{"track_num":3,"title":"Quartz","duration":378.0,"midi_sources":["Haydn/op01n1-04.mid","Verdi/adl_N12_Coro_di_mattadori_spagnuoli.mid"],"events":[{"t":0.172,"note":53,"dur":0.078,"vel":0.496,"inst":"bell_v0_plucked_126","midi_source":""},{"t":0.513,"note":41,"dur":0.296,"vel":0.709,"inst":"chimes_v0_plucked_130","midi_source":""},{"t":0.513,"note":41,"dur":0.296,"vel":0.709,"inst":"chimes_v0_plucked_130","midi_source":""},{"t":0.513,"note":53,"dur":0.296,"vel":0.709,"inst":"chimes_v0_plucked_130","midi_source":""},{"t":0.513,"note":53,"dur":0.296,"vel":0.709,"inst":"chimes_v0_plucked_130","midi_source":""},{"t":0.81,"note":41,"dur":0.296,"vel":0.709,"inst":"chimes_v0_plucked_130","midi_source":""},{"t":0.81,"note":45,"dur":0.296,"vel":0.709,"inst":"chimes_v0_plucked_130","midi_source":""},{"t":0.81,"note":53,"dur":0.296,"vel":0.709,"inst":"chimes_v0_plucked_130","midi_source":""},{"t":0.81,"note":57,"dur":0.296,"vel":0.709,"inst":"chimes_v0_plucked_130","midi_source":""},{"t":1.106,"note":45,"dur":0.296,"vel":0.709,"inst":"chimes_v0_plucked_130","midi_source":""},{"t":1.106,"note":57,"dur":0.296,"vel":0.709,"inst":"chimes_v0_plucked_130","midi_source":""},{"t":1.403,"note":36,"dur":0.296,"vel":0.709,"inst":"synth_arp_v0_struck_314","midi_source":""},{"t":1.403,"note":45,"dur":0.296,"vel":0.709,"inst":"chimes_v0_plucked_130","midi_source":""},{"t":1.403,"note":48,"dur":0.296,"vel":0.709,"inst":"synth_arp_v0_struck_314","midi_source":""},{"t":1.403,"note":57,"dur":0.296,"vel":0.709,"inst":"chimes_v0_plucked_130","midi_source":""},{"t":1.699,"note":41,"dur":0.296,"vel":0.709,"inst":"chimes_v0_plucked_130","midi_source":""},{"t":1.699,"note":45,"dur":0.296,"vel":0.709,"inst":"chimes_v0_plucked_130","midi_source":""},{"t":1.699,"note":53,"dur":0.296,"vel":0.709,"inst":"chimes_v0_plucked_130","midi_source":""},{"t":1.699,"note":57,"dur":0.296,"vel":0.709,"inst":"chimes_v0_plucked_130","midi_source":""},{"t":1.995,"note":41,"dur":0.296,"vel":0.709,"inst":"chimes_v0_plucked_130","midi_source":""},{"t":1.995,"note":53,"dur":0.296,"vel":0.709,"inst":"chimes_v0_plucked_130","midi_source":""},{"t":2.292,"note":41,"dur":0.296,"vel":0.709,"inst":"chimes_v0_plucked_130","midi_source":""},{"t":2.292,"note":41,"dur":0.296,"vel":0.709,"inst":"chimes_v0_plucked_130","midi_source":""},{"t":2.292,"note":53,"dur":0.296,"vel":0.709,"inst":"chimes_v0_plucked_130","midi_source":""},{"t":2.292,"note":53,"dur":0.296,"vel":0.709,"inst":"chimes_v0_plucked_130","midi_source":""},{"t":2.588,"note":33,"dur":0.296,"vel":0.709,"inst":"chimes_v0_plucked_130","midi_source":""},{"t":2.588,"note":45,"dur":0.296,"vel":0.709,"inst":"chimes_v0_plucked_130","midi_source":""},{"t":2.588,"note":50,"dur":0.296,"vel":0.709,"inst":"synth_arp_v0_struck_314","midi_source":""},{"t":2.588,"note":62,"dur":0.296,"vel":0.709,"inst":"synth_arp_v0_struck_314","midi_source":""},{"t":2.885,"note":50,"dur":0.296,"vel":0.709,"inst":"synth_arp_v0_struck_314","midi_source":""},{"t":2.885,"note":62,"dur":0.296,"vel":0.709,"inst":"synth_arp_v0_struck_314","midi_source":""},{"t":3.181,"note":33,"dur":0.296,"vel":0.709,"inst":"chimes_v0_plucked_130","midi_source":""},{"t":3.181,"note":50,"dur":0.296,"vel":0.709,"inst":"synth_arp_v0_struck_314","midi_source":""},{"t":3.181,"note":57,"dur":0.296,"vel":0.709,"inst":"chimes_v0_plucked_130","midi_source":""},{"t":3.181,"note":62,"dur":0.296,"vel":0.709,"inst":"synth_arp_v0_struck_314","midi_source":""},{"t":3.478,"note":41,"dur":0.296,"vel":0.709,"inst":"chimes_v0_plucked_130","midi_source":""},{"t":3.478,"note":48,"dur":0.296,"vel":0.709,"inst":"synth_arp_v0_struck_314","midi_source":""},{"t":3.478,"note":57,"dur":0.593,"vel":0.709,"inst":"chimes_v0_plucked_130","midi_source":""},{"t":3.478,"note":60,"dur":0.296,"vel":0.709,"inst":"synth_arp_v0_struck_314","midi_source":""},{"t":3.774,"note":41,"dur":0.296,"vel":0.709,"inst":"chimes_v0_plucked_130","midi_source":""},{"t":3.774,"note":53,"dur":0.148,"vel":0.709,"inst":"chimes_v0_plucked_130","midi_source":""},{"t":3.774,"note":65,"dur":0.148,"vel":0.709,"inst":"chimes_v0_plucked_130","midi_source":""},{"t":3.922,"note":48,"dur":0.148,"vel":0.709,"inst":"synth_arp_v0_struck_314","midi_source":""},{"t":3.922,"note":60,"dur":0.148,"vel":0.709,"inst":"synth_arp_v0_struck_314","midi_source":""},{"t":4.07,"note":41,"dur":0.296,"vel":0.709,"inst":"chimes_v0_plucked_130","midi_source":""},{"t":4.07,"note":50,"dur":0.148,"vel":0.709,"inst":"synth_arp_v0_struck_314","midi_source":""},{"t":4.07,"note":57,"dur":0.296,"vel":0.709,"inst":"chimes_v0_plucked_130","midi_source":""},{"t":4.07,"note":62,"dur":0.148,"vel":0.709,"inst":"synth_arp_v0_struck_314","midi_source":""},{"t":4.219,"note":45,"dur":0.148,"vel":0.709,"inst":"chimes_v0_plucked_130","midi_source":""},{"t":4.219,"note":57,"dur":0.148,"vel":0.709,"inst":"chimes_v0_plucked_130","midi_source":""},{"t":4.367,"note":41,"dur":0.296,"vel":0.709,"inst":"chimes_v0_plucked_130","midi_source":""},{"t":4.367,"note":48,"dur":0.296,"vel":0.709,"inst":"synth_arp_v0_struck_314","midi_source":""},{"t":4.367,"note":57,"dur":0.296,"vel":0.709,"inst":"chimes_v0_plucked_130","midi_source":""},{"t":4.367,"note":60,"dur":0.296,"vel":0.709,"inst":"synth_arp_v0_struck_314","midi_source":""},{"t":4.663,"note":53,"dur":0.148,"vel":0.709,"inst":"chimes_v0_plucked_130","midi_source":""},{"t":4.663,"note":65,"dur":0.148,"vel":0.709,"inst":"chimes_v0_plucked_130","midi_source":""},{"t":4.811,"note":48,"dur":0.148,"vel":0.709,"inst":"synth_arp_v0_struck_314","midi_source":""},{"t":4.811,"note":60,"dur":0.148,"vel":0.709,"inst":"synth_arp_v0_struck_314","midi_source":""},{"t":4.96,"note":45,"dur":0.148,"vel":0.709,"inst":"chimes_v0_plucked_130","midi_source":""},{"t":4.96,"note":57,"dur":0.148,"vel":0.709,"inst":"chimes_v0_plucked_130","midi_source":""},{"t":5.108,"note":45,"dur":0.148,"vel":0.709,"inst":"chimes_v0_plucked_130","midi_source":""},{"t":5.108,"note":57,"dur":0.148,"vel":0.709,"inst":"chimes_v0_plucked_130","midi_source":""},{"t":5.256,"note":33,"dur":0.296,"vel":0.709,"inst":"chimes_v0_plucked_130","midi_source":""},{"t":5.256,"note":42,"dur":0.296,"vel":0.709,"inst":"synth_arp_v0_struck_314","midi_source":""},{"t":5.256,"note":50,"dur":0.296,"vel":0.709,"inst":"synth_arp_v0_struck_314","midi_source":""},{"t":5.256,"note":54,"dur":0.296,"vel":0.709,"inst":"synth_arp_v0_struck_314","midi_source":""},{"t":5.552,"note":36,"dur":0.296,"vel":0.709,"inst":"synth_arp_v0_struck_314","midi_source":""},{"t":5.552,"note":41,"dur":0.296,"vel":0.709,"inst":"chimes_v0_plucked_130","midi_source":""},{"t":5.552,"note":45,"dur":0.296,"vel":0.709,"inst":"chimes_v0_plucked_130","midi_source":""},{"t":5.552,"note":53,"dur":0.296,"vel":0.709,"inst":"chimes_v0_plucked_130","midi_source":""},{"t":5.849,"note":24,"dur":0.296,"vel":0.709,"inst":"synth_arp_v0_struck_314","midi_source":""},{"t":5.849,"note":41,"dur":0.296,"vel":0.709,"inst":"chimes_v0_plucked_130","midi_source":""},{"t":5.849,"note":42,"dur":0.296,"vel":0.709,"inst":"synth_arp_v0_struck_314","midi_source":""},{"t":5.849,"note":53,"dur":0.296,"vel":0.709,"inst":"chimes_v0_plucked_130","midi_source":""},{"t":6.145,"note":29,"dur":0.593,"vel":0.709,"inst":"chimes_v0_plucked_130","midi_source":""},{"t":6.145,"note":41,"dur":0.296,"vel":0.709,"inst":"chimes_v0_plucked_130","midi_source":""},{"t":6.145,"note":41,"dur":0.296,"vel":0.709,"inst":"chimes_v0_plucked_130","midi_source":""},{"t":6.145,"note":53,"dur":0.593,"vel":0.709,"inst":"chimes_v0_plucked_130","midi_source":""},{"t":7.035,"note":41,"dur":0.296,"vel":0.709,"inst":"chimes_v0_plucked_130","midi_source":""},{"t":7.035,"note":41,"dur":0.296,"vel":0.709,"inst":"chimes_v0_plucked_130","midi_source":""},{"t":7.035,"note":53,"dur":0.296,"vel":0.709,"inst":"chimes_v0_plucked_130","midi_source":""},{"t":7.035,"note":53,"dur":0.296,"vel":0.709,"inst":"chimes_v0_plucked_130","midi_source":""},{"t":7.331,"note":41,"dur":0.296,"vel":0.709,"inst":"chimes_v0_plucked_130","midi_source":""},{"t":7.331,"note":45,"dur":0.296,"vel":0.709,"inst":"chimes_v0_plucked_130","midi_source":""},{"t":7.331,"note":53,"dur":0.296,"vel":0.709,"inst":"chimes_v0_plucked_130","midi_source":""},{"t":7.331,"note":57,"dur":0.296,"vel":0.709,"inst":"chimes_v0_plucked_130","midi_source":""},{"t":7.627,"note":45,"dur":0.296,"vel":0.709,"inst":"chimes_v0_plucked_130","midi_source":""},{"t":7.627,"note":57,"dur":0.296,"vel":0.709,"inst":"chimes_v0_plucked_130","midi_source":""},{"t":7.924,"note":36,"dur":0.296,"vel":0.709,"inst":"synth_arp_v0_struck_314","midi_source":""},{"t":7.924,"note":45,"dur":0.296,"vel":0.709,"inst":"chimes_v0_plucked_130","midi_source":""},{"t":7.924,"note":48,"dur":0.296,"vel":0.709,"inst":"synth_arp_v0_struck_314","midi_source":""},{"t":7.924,"note":57,"dur":0.296,"vel":0.709,"inst":"chimes_v0_plucked_130","midi_source":""},{"t":8.22,"note":41,"dur":0.296,"vel":0.709,"inst":"chimes_v0_plucked_130","midi_source":""},{"t":8.22,"note":45,"dur":0.296,"vel":0.709,"inst":"chimes_v0_plucked_130","midi_source":""},{"t":8.22,"note":53,"dur":0.296,"vel":0.709,"inst":"chimes_v0_plucked_130","midi_source":""},{"t":8.22,"note":57,"dur":0.296,"vel":0.709,"inst":"chimes_v0_plucked_130","midi_source":""},{"t":8.517,"note":41,"dur":0.296,"vel":0.709,"inst":"chimes_v0_plucked_130","midi_source":""},{"t":8.517,"note":53,"dur":0.296,"vel":0.709,"inst":"chimes_v0_plucked_130","midi_source":""},{"t":8.813,"note":41,"dur":0.296,"vel":0.709,"inst":"chimes_v0_plucked_130","midi_source":""},{"t":8.813,"note":41,"dur":0.296,"vel":0.709,"inst":"chimes_v0_plucked_130","midi_source":""},{"t":8.813,"note":53,"dur":0.296,"vel":0.709,"inst":"chimes_v0_plucked_130","midi_source":""},{"t":8.813,"note":53,"dur":0.296,"vel":0.709,"inst":"chimes_v0_plucked_130","midi_source":""},{"t":9.109,"note":33,"dur":0.296,"vel":0.709,"inst":"chimes_v0_plucked_130","midi_source":""},{"t":9.109,"note":45,"dur":0.296,"vel":0.709,"inst":"chimes_v0_plucked_130","midi_source":""},{"t":9.109,"note":50,"dur":0.296,"vel":0.709,"inst":"synth_arp_v0_struck_314","midi_source":""},{"t":9.109,"note":62,"dur":0.296,"vel":0.709,"inst":"synth_arp_v0_struck_314","midi_source":""},{"t":9.406,"note":50,"dur":0.296,"vel":0.709,"inst":"synth_arp_v0_struck_314","midi_source":""},{"t":9.406,"note":62,"dur":0.296,"vel":0.709,"inst":"synth_arp_v0_struck_314","midi_source":""},{"t":9.702,"note":33,"dur":0.296,"vel":0.709,"inst":"chimes_v0_plucked_130","midi_source":""},{"t":9.702,"note":50,"dur":0.296,"vel":0.709,"inst":"synth_arp_v0_struck_314","midi_source":""},{"t":9.702,"note":57,"dur":0.296,"vel":0.709,"inst":"chimes_v0_plucked_130","midi_source":""},{"t":9.702,"note":62,"dur":0.296,"vel":0.709,"inst":"synth_arp_v0_struck_314","midi_source":""},{"t":9.999,"note":41,"dur":0.296,"vel":0.709,"inst":"chimes_v0_plucked_130","midi_source":""},{"t":9.999,"note":48,"dur":0.296,"vel":0.709,"inst":"synth_arp_v0_struck_314","midi_source":""},{"t":9.999,"note":57,"dur":0.593,"vel":0.709,"inst":"chimes_v0_plucked_130","midi_source":""},{"t":9.999,"note":60,"dur":0.296,"vel":0.709,"inst":"synth_arp_v0_struck_314","midi_source":""},{"t":10.295,"note":41,"dur":0.296,"vel":0.709,"inst":"chimes_v0_plucked_130","midi_source":""},{"t":10.295,"note":53,"dur":0.148,"vel":0.709,"inst":"chimes_v0_plucked_130","midi_source":""},{"t":10.295,"note":65,"dur":0.148,"vel":0.709,"inst":"chimes_v0_plucked_130","midi_source":""},{"t":10.443,"note":48,"dur":0.148,"vel":0.709,"inst":"synth_arp_v0_struck_314","midi_source":""},{"t":10.443,"note":60,"dur":0.148,"vel":0.709,"inst":"synth_arp_v0_struck_314","midi_source":""},{"t":10.592,"note":41,"dur":0.296,"vel":0.709,"inst":"chimes_v0_plucked_130","midi_source":""},{"t":10.592,"note":50,"dur":0.148,"vel":0.709,"inst":"synth_arp_v0_struck_314","midi_source":""},{"t":10.592,"note":57,"dur":0.296,"vel":0.709,"inst":"chimes_v0_plucked_130","midi_source":""},{"t":10.592,"note":62,"dur":0.148,"vel":0.709,"inst":"synth_arp_v0_struck_314","midi_source":""},{"t":10.74,"note":45,"dur":0.148,"vel":0.709,"inst":"chimes_v0_plucked_130","midi_source":""},{"t":10.74,"note":57,"dur":0.148,"vel":0.709,"inst":"chimes_v0_plucked_130","midi_source":""},{"t":10.888,"note":41,"dur":0.296,"vel":0.709,"inst":"chimes_v0_plucked_130","midi_source":""},{"t":10.888,"note":48,"dur":0.296,"vel":0.709,"inst":"synth_arp_v0_struck_314","midi_source":""},{"t":10.888,"note":57,"dur":0.296,"vel":0.709,"inst":"chimes_v0_plucked_130","midi_source":""},{"t":10.888,"note":60,"dur":0.296,"vel":0.709,"inst":"synth_arp_v0_struck_314","midi_source":""},{"t":11.184,"note":53,"dur":0.148,"vel":0.709,"inst":"chimes_v0_plucked_130","midi_source":""},{"t":11.184,"note":65,"dur":0.148,"vel":0.709,"inst":"chimes_v0_plucked_130","midi_source":""},{"t":11.333,"note":48,"dur":0.148,"vel":0.709,"inst":"synth_arp_v0_struck_314","midi_source":""},{"t":11.333,"note":60,"dur":0.148,"vel":0.709,"inst":"synth_arp_v0_struck_314","midi_source":""},{"t":11.481,"note":45,"dur":0.148,"vel":0.709,"inst":"chimes_v0_plucked_130","midi_source":""},{"t":11.481,"note":57,"dur":0.148,"vel":0.709,"inst":"chimes_v0_plucked_130","midi_source":""},{"t":11.629,"note":45,"dur":0.148,"vel":0.709,"inst":"chimes_v0_plucked_130","midi_source":""},{"t":11.629,"note":57,"dur":0.148,"vel":0.709,"inst":"chimes_v0_plucked_130","midi_source":""},{"t":11.777,"note":33,"dur":0.296,"vel":0.709,"inst":"chimes_v0_plucked_130","midi_source":""},{"t":11.777,"note":42,"dur":0.296,"vel":0.709,"inst":"synth_arp_v0_struck_314","midi_source":""},{"t":11.777,"note":50,"dur":0.296,"vel":0.709,"inst":"synth_arp_v0_struck_314","midi_source":""},{"t":11.777,"note":54,"dur":0.296,"vel":0.709,"inst":"synth_arp_v0_struck_314","midi_source":""},{"t":12.074,"note":36,"dur":0.296,"vel":0.709,"inst":"synth_arp_v0_struck_314","midi_source":""},{"t":12.074,"note":41,"dur":0.296,"vel":0.709,"inst":"chimes_v0_plucked_130","midi_source":""},{"t":12.074,"note":45,"dur":0.296,"vel":0.709,"inst":"chimes_v0_plucked_130","midi_source":""},{"t":12.074,"note":53,"dur":0.296,"vel":0.709,"inst":"chimes_v0_plucked_130","midi_source":""},{"t":12.37,"note":24,"dur":0.296,"vel":0.709,"inst":"synth_arp_v0_struck_314","midi_source":""},{"t":12.37,"note":41,"dur":0.296,"vel":0.709,"inst":"chimes_v0_plucked_130","midi_source":""},{"t":12.37,"note":42,"dur":0.296,"vel":0.709,"inst":"synth_arp_v0_struck_314","midi_source":""},{"t":12.37,"note":53,"dur":0.296,"vel":0.709,"inst":"chimes_v0_plucked_130","midi_source":""},{"t":12.666,"note":29,"dur":0.593,"vel":0.709,"inst":"chimes_v0_plucked_130","midi_source":""},{"t":12.666,"note":41,"dur":0.296,"vel":0.709,"inst":"chimes_v0_plucked_130","midi_source":""},{"t":12.666,"note":41,"dur":0.296,"vel":0.709,"inst":"chimes_v0_plucked_130","midi_source":""},{"t":12.666,"note":53,"dur":0.593,"vel":0.709,"inst":"chimes_v0_plucked_130","midi_source":""},{"t":13.556,"note":41,"dur":0.296,"vel":0.709,"inst":"chimes_v0_plucked_130","midi_source":""},{"t":13.556,"note":41,"dur":0.296,"vel":0.709,"inst":"chimes_v0_plucked_130","midi_source":""},{"t":13.556,"note":53,"dur":0.296,"vel":0.709,"inst":"chimes_v0_plucked_130","midi_source":""},{"t":13.556,"note":53,"dur":0.296,"vel":0.709,"inst":"chimes_v0_plucked_130","midi_source":""},{"t":13.852,"note":41,"dur":0.296,"vel":0.709,"inst":"chimes_v0_plucked_130","midi_source":""},{"t":13.852,"note":45,"dur":0.296,"vel":0.709,"inst":"chimes_v0_plucked_130","midi_source":""},{"t":13.852,"note":53,"dur":0.296,"vel":0.709,"inst":"chimes_v0_plucked_130","midi_source":""},{"t":13.852,"note":57,"dur":0.296,"vel":0.709,"inst":"chimes_v0_plucked_130","midi_source":""},{"t":14.149,"note":45,"dur":0.296,"vel":0.709,"inst":"chimes_v0_plucked_130","midi_source":""},{"t":14.149,"note":57,"dur":0.296,"vel":0.709,"inst":"chimes_v0_plucked_130","midi_source":""},{"t":14.445,"note":36,"dur":0.296,"vel":0.709,"inst":"synth_arp_v0_struck_314","midi_source":""},{"t":14.445,"note":45,"dur":0.296,"vel":0.709,"inst":"chimes_v0_plucked_130","midi_source":""},{"t":14.445,"note":48,"dur":0.296,"vel":0.709,"inst":"synth_arp_v0_struck_314","midi_source":""},{"t":14.445,"note":57,"dur":0.296,"vel":0.709,"inst":"chimes_v0_plucked_130","midi_source":""},{"t":14.741,"note":41,"dur":0.296,"vel":0.709,"inst":"chimes_v0_plucked_130","midi_source":""},{"t":14.741,"note":45,"dur":0.296,"vel":0.709,"inst":"chimes_v0_plucked_130","midi_source":""},{"t":14.741,"note":53,"dur":0.296,"vel":0.709,"inst":"chimes_v0_plucked_130","midi_source":""},{"t":14.741,"note":57,"dur":0.296,"vel":0.709,"inst":"chimes_v0_plucked_130","midi_source":""},{"t":15.038,"note":41,"dur":0.296,"vel":0.709,"inst":"chimes_v0_plucked_130","midi_source":""},{"t":15.038,"note":53,"dur":0.296,"vel":0.709,"inst":"chimes_v0_plucked_130","midi_source":""},{"t":15.334,"note":41,"dur":0.296,"vel":0.709,"inst":"chimes_v0_plucked_130","midi_source":""},{"t":15.334,"note":41,"dur":0.296,"vel":0.709,"inst":"chimes_v0_plucked_130","midi_source":""},{"t":15.334,"note":53,"dur":0.296,"vel":0.709,"inst":"chimes_v0_plucked_130","midi_source":""},{"t":15.334,"note":53,"dur":0.296,"vel":0.709,"inst":"chimes_v0_plucked_130","midi_source":""},{"t":15.631,"note":33,"dur":0.296,"vel":0.709,"inst":"chimes_v0_plucked_130","midi_source":""},{"t":15.631,"note":45,"dur":0.296,"vel":0.709,"inst":"chimes_v0_plucked_130","midi_source":""},{"t":15.631,"note":50,"dur":0.296,"vel":0.709,"inst":"synth_arp_v0_struck_314","midi_source":""},{"t":15.631,"note":62,"dur":0.296,"vel":0.709,"inst":"synth_arp_v0_struck_314","midi_source":""},{"t":15.927,"note":50,"dur":0.296,"vel":0.709,"inst":"synth_arp_v0_struck_314","midi_source":""},{"t":15.927,"note":62,"dur":0.296,"vel":0.709,"inst":"synth_arp_v0_struck_314","midi_source":""},{"t":16.223,"note":33,"dur":0.296,"vel":0.709,"inst":"chimes_v0_plucked_130","midi_source":""},{"t":16.223,"note":50,"dur":0.296,"vel":0.709,"inst":"synth_arp_v0_struck_314","midi_source":""},{"t":16.223,"note":57,"dur":0.296,"vel":0.709,"inst":"chimes_v0_plucked_130","midi_source":""},{"t":16.223,"note":62,"dur":0.296,"vel":0.709,"inst":"synth_arp_v0_struck_314","midi_source":""},{"t":16.52,"note":41,"dur":0.296,"vel":0.709,"inst":"chimes_v0_plucked_130","midi_source":""},{"t":16.52,"note":48,"dur":0.296,"vel":0.709,"inst":"synth_arp_v0_struck_314","midi_source":""},{"t":16.52,"note":57,"dur":0.593,"vel":0.709,"inst":"chimes_v0_plucked_130","midi_source":""},{"t":16.52,"note":60,"dur":0.296,"vel":0.709,"inst":"synth_arp_v0_struck_314","midi_source":""},{"t":16.816,"note":41,"dur":0.296,"vel":0.709,"inst":"chimes_v0_plucked_130","midi_source":""},{"t":16.816,"note":53,"dur":0.148,"vel":0.709,"inst":"chimes_v0_plucked_130","midi_source":""},{"t":16.816,"note":65,"dur":0.148,"vel":0.709,"inst":"chimes_v0_plucked_130","midi_source":""},{"t":16.965,"note":48,"dur":0.148,"vel":0.709,"inst":"synth_arp_v0_struck_314","midi_source":""},{"t":16.965,"note":60,"dur":0.148,"vel":0.709,"inst":"synth_arp_v0_struck_314","midi_source":""},{"t":17.113,"note":41,"dur":0.296,"vel":0.709,"inst":"chimes_v0_plucked_130","midi_source":""},{"t":17.113,"note":50,"dur":0.148,"vel":0.709,"inst":"synth_arp_v0_struck_314","midi_source":""},{"t":17.113,"note":57,"dur":0.296,"vel":0.709,"inst":"chimes_v0_plucked_130","midi_source":""},{"t":17.113,"note":62,"dur":0.148,"vel":0.709,"inst":"synth_arp_v0_struck_314","midi_source":""},{"t":17.261,"note":45,"dur":0.148,"vel":0.709,"inst":"chimes_v0_plucked_130","midi_source":""},{"t":17.261,"note":57,"dur":0.148,"vel":0.709,"inst":"chimes_v0_plucked_130","midi_source":""},{"t":17.409,"note":41,"dur":0.296,"vel":0.709,"inst":"chimes_v0_plucked_130","midi_source":""},{"t":17.409,"note":48,"dur":0.296,"vel":0.709,"inst":"synth_arp_v0_struck_314","midi_source":""},{"t":17.409,"note":57,"dur":0.296,"vel":0.709,"inst":"chimes_v0_plucked_130","midi_source":""},{"t":17.409,"note":60,"dur":0.296,"vel":0.709,"inst":"synth_arp_v0_struck_314","midi_source":""},{"t":17.706,"note":53,"dur":0.148,"vel":0.709,"inst":"chimes_v0_plucked_130","midi_source":""},{"t":17.706,"note":65,"dur":0.148,"vel":0.709,"inst":"chimes_v0_plucked_130","midi_source":""},{"t":17.854,"note":48,"dur":0.148,"vel":0.709,"inst":"synth_arp_v0_struck_314","midi_source":""},{"t":17.854,"note":60,"dur":0.148,"vel":0.709,"inst":"synth_arp_v0_struck_314","midi_source":""},{"t":18.002,"note":45,"dur":0.148,"vel":0.709,"inst":"chimes_v0_plucked_130","midi_source":""},{"t":18.002,"note":57,"dur":0.148,"vel":0.709,"inst":"chimes_v0_plucked_130","midi_source":""},{"t":18.15,"note":45,"dur":0.148,"vel":0.709,"inst":"chimes_v0_plucked_130","midi_source":""},{"t":18.15,"note":57,"dur":0.148,"vel":0.709,"inst":"chimes_v0_plucked_130","midi_source":""},{"t":18.298,"note":33,"dur":0.296,"vel":0.709,"inst":"chimes_v0_plucked_130","midi_source":""},{"t":18.298,"note":42,"dur":0.296,"vel":0.709,"inst":"synth_arp_v0_struck_314","midi_source":""},{"t":18.298,"note":50,"dur":0.296,"vel":0.709,"inst":"synth_arp_v0_struck_314","midi_source":""},{"t":18.298,"note":54,"dur":0.296,"vel":0.709,"inst":"synth_arp_v0_struck_314","midi_source":""},{"t":18.595,"note":36,"dur":0.296,"vel":0.709,"inst":"synth_arp_v0_struck_314","midi_source":""},{"t":18.595,"note":41,"dur":0.296,"vel":0.709,"inst":"chimes_v0_plucked_130","midi_source":""},{"t":18.595,"note":45,"dur":0.296,"vel":0.709,"inst":"chimes_v0_plucked_130","midi_source":""},{"t":18.595,"note":53,"dur":0.296,"vel":0.709,"inst":"chimes_v0_plucked_130","midi_source":""},{"t":18.891,"note":24,"dur":0.296,"vel":0.709,"inst":"synth_arp_v0_struck_314","midi_source":""},{"t":18.891,"note":41,"dur":0.296,"vel":0.709,"inst":"chimes_v0_plucked_130","midi_source":""},{"t":18.891,"note":42,"dur":0.296,"vel":0.709,"inst":"synth_arp_v0_struck_314","midi_source":""},{"t":18.891,"note":53,"dur":0.296,"vel":0.709,"inst":"chimes_v0_plucked_130","midi_source":""},{"t":19.188,"note":29,"dur":0.593,"vel":0.709,"inst":"chimes_v0_plucked_130","midi_source":""},{"t":19.188,"note":41,"dur":0.296,"vel":0.709,"inst":"chimes_v0_plucked_130","midi_source":""},{"t":19.188,"note":41,"dur":0.296,"vel":0.709,"inst":"chimes_v0_plucked_130","midi_source":""},{"t":19.188,"note":53,"dur":0.593,"vel":0.709,"inst":"chimes_v0_plucked_130","midi_source":""},{"t":20.077,"note":41,"dur":0.296,"vel":0.709,"inst":"chimes_v0_plucked_130","midi_source":""},{"t":20.077,"note":41,"dur":0.296,"vel":0.709,"inst":"chimes_v0_plucked_130","midi_source":""},{"t":20.077,"note":53,"dur":0.296,"vel":0.709,"inst":"chimes_v0_plucked_130","midi_source":""},{"t":20.077,"note":53,"dur":0.296,"vel":0.709,"inst":"chimes_v0_plucked_130","midi_source":""},{"t":20.373,"note":41,"dur":0.296,"vel":0.709,"inst":"chimes_v0_plucked_130","midi_source":""},{"t":20.373,"note":45,"dur":0.296,"vel":0.709,"inst":"chimes_v0_plucked_130","midi_source":""},{"t":20.373,"note":53,"dur":0.296,"vel":0.709,"inst":"chimes_v0_plucked_130","midi_source":""},{"t":20.373,"note":57,"dur":0.296,"vel":0.709,"inst":"chimes_v0_plucked_130","midi_source":""},{"t":20.67,"note":45,"dur":0.296,"vel":0.709,"inst":"chimes_v0_plucked_130","midi_source":""},{"t":20.67,"note":57,"dur":0.296,"vel":0.709,"inst":"chimes_v0_plucked_130","midi_source":""},{"t":20.966,"note":36,"dur":0.296,"vel":0.709,"inst":"synth_arp_v0_struck_314","midi_source":""},{"t":20.966,"note":45,"dur":0.296,"vel":0.709,"inst":"chimes_v0_plucked_130","midi_source":""},{"t":20.966,"note":48,"dur":0.296,"vel":0.709,"inst":"synth_arp_v0_struck_314","midi_source":""},{"t":20.966,"note":57,"dur":0.296,"vel":0.709,"inst":"chimes_v0_plucked_130","midi_source":""},{"t":21.263,"note":41,"dur":0.296,"vel":0.709,"inst":"chimes_v0_plucked_130","midi_source":""},{"t":21.263,"note":45,"dur":0.296,"vel":0.709,"inst":"chimes_v0_plucked_130","midi_source":""},{"t":21.263,"note":53,"dur":0.296,"vel":0.709,"inst":"chimes_v0_plucked_130","midi_source":""},{"t":21.263,"note":57,"dur":0.296,"vel":0.709,"inst":"chimes_v0_plucked_130","midi_source":""},{"t":21.559,"note":41,"dur":0.296,"vel":0.709,"inst":"chimes_v0_plucked_130","midi_source":""},{"t":21.559,"note":53,"dur":0.296,"vel":0.709,"inst":"chimes_v0_plucked_130","midi_source":""},{"t":21.855,"note":41,"dur":0.296,"vel":0.709,"inst":"chimes_v0_plucked_130","midi_source":""},{"t":21.855,"note":41,"dur":0.296,"vel":0.709,"inst":"chimes_v0_plucked_130","midi_source":""},{"t":21.855,"note":53,"dur":0.296,"vel":0.709,"inst":"chimes_v0_plucked_130","midi_source":""},{"t":21.855,"note":53,"dur":0.296,"vel":0.709,"inst":"chimes_v0_plucked_130","midi_source":""},{"t":22.152,"note":33,"dur":0.296,"vel":0.709,"inst":"chimes_v0_plucked_130","midi_source":""},{"t":22.152,"note":45,"dur":0.296,"vel":0.709,"inst":"chimes_v0_plucked_130","midi_source":""},{"t":22.152,"note":50,"dur":0.296,"vel":0.709,"inst":"synth_arp_v0_struck_314","midi_source":""},{"t":22.152,"note":62,"dur":0.296,"vel":0.709,"inst":"synth_arp_v0_struck_314","midi_source":""},{"t":22.448,"note":50,"dur":0.296,"vel":0.709,"inst":"synth_arp_v0_struck_314","midi_source":""},{"t":22.448,"note":62,"dur":0.296,"vel":0.709,"inst":"synth_arp_v0_struck_314","midi_source":""},{"t":22.745,"note":33,"dur":0.296,"vel":0.709,"inst":"chimes_v0_plucked_130","midi_source":""},{"t":22.745,"note":50,"dur":0.296,"vel":0.709,"inst":"synth_arp_v0_struck_314","midi_source":""},{"t":22.745,"note":57,"dur":0.296,"vel":0.709,"inst":"chimes_v0_plucked_130","midi_source":""},{"t":22.745,"note":62,"dur":0.296,"vel":0.709,"inst":"synth_arp_v0_struck_314","midi_source":""},{"t":23.041,"note":41,"dur":0.296,"vel":0.709,"inst":"chimes_v0_plucked_130","midi_source":""},{"t":23.041,"note":48,"dur":0.296,"vel":0.709,"inst":"synth_arp_v0_struck_314","midi_source":""},{"t":23.041,"note":57,"dur":0.593,"vel":0.709,"inst":"chimes_v0_plucked_130","midi_source":""},{"t":23.041,"note":60,"dur":0.296,"vel":0.709,"inst":"synth_arp_v0_struck_314","midi_source":""},{"t":23.337,"note":41,"dur":0.296,"vel":0.709,"inst":"chimes_v0_plucked_130","midi_source":""},{"t":23.337,"note":53,"dur":0.148,"vel":0.709,"inst":"chimes_v0_plucked_130","midi_source":""},{"t":23.337,"note":65,"dur":0.148,"vel":0.709,"inst":"chimes_v0_plucked_130","midi_source":""},{"t":23.486,"note":48,"dur":0.148,"vel":0.709,"inst":"synth_arp_v0_struck_314","midi_source":""},{"t":23.486,"note":60,"dur":0.148,"vel":0.709,"inst":"synth_arp_v0_struck_314","midi_source":""},{"t":23.634,"note":41,"dur":0.296,"vel":0.709,"inst":"chimes_v0_plucked_130","midi_source":""},{"t":23.634,"note":50,"dur":0.148,"vel":0.709,"inst":"synth_arp_v0_struck_314","midi_source":""},{"t":23.634,"note":57,"dur":0.296,"vel":0.709,"inst":"chimes_v0_plucked_130","midi_source":""},{"t":23.634,"note":62,"dur":0.148,"vel":0.709,"inst":"synth_arp_v0_struck_314","midi_source":""},{"t":23.782,"note":45,"dur":0.148,"vel":0.709,"inst":"chimes_v0_plucked_130","midi_source":""},{"t":23.782,"note":57,"dur":0.148,"vel":0.709,"inst":"chimes_v0_plucked_130","midi_source":""},{"t":23.93,"note":41,"dur":0.296,"vel":0.709,"inst":"chimes_v0_plucked_130","midi_source":""},{"t":23.93,"note":48,"dur":0.296,"vel":0.709,"inst":"synth_arp_v0_struck_314","midi_source":""},{"t":23.93,"note":57,"dur":0.296,"vel":0.709,"inst":"chimes_v0_plucked_130","midi_source":""},{"t":23.93,"note":60,"dur":0.296,"vel":0.709,"inst":"synth_arp_v0_struck_314","midi_source":""},{"t":24.227,"note":53,"dur":0.148,"vel":0.709,"inst":"chimes_v0_plucked_130","midi_source":""},{"t":24.227,"note":65,"dur":0.148,"vel":0.709,"inst":"chimes_v0_plucked_130","midi_source":""},{"t":24.375,"note":48,"dur":0.148,"vel":0.709,"inst":"synth_arp_v0_struck_314","midi_source":""},{"t":24.375,"note":60,"dur":0.148,"vel":0.709,"inst":"synth_arp_v0_struck_314","midi_source":""},{"t":24.523,"note":45,"dur":0.148,"vel":0.709,"inst":"chimes_v0_plucked_130","midi_source":""},{"t":24.523,"note":57,"dur":0.148,"vel":0.709,"inst":"chimes_v0_plucked_130","midi_source":""},{"t":24.671,"note":45,"dur":0.148,"vel":0.709,"inst":"chimes_v0_plucked_130","midi_source":""},{"t":24.671,"note":57,"dur":0.148,"vel":0.709,"inst":"chimes_v0_plucked_130","midi_source":""},{"t":24.82,"note":33,"dur":0.296,"vel":0.709,"inst":"chimes_v0_plucked_130","midi_source":""},{"t":24.82,"note":42,"dur":0.296,"vel":0.709,"inst":"synth_arp_v0_struck_314","midi_source":""},{"t":24.82,"note":50,"dur":0.296,"vel":0.709,"inst":"synth_arp_v0_struck_314","midi_source":""},{"t":24.82,"note":54,"dur":0.296,"vel":0.709,"inst":"synth_arp_v0_struck_314","midi_source":""},{"t":25.116,"note":36,"dur":0.296,"vel":0.709,"inst":"synth_arp_v0_struck_314","midi_source":""},{"t":25.116,"note":41,"dur":0.296,"vel":0.709,"inst":"chimes_v0_plucked_130","midi_source":""},{"t":25.116,"note":45,"dur":0.296,"vel":0.709,"inst":"chimes_v0_plucked_130","midi_source":""},{"t":25.116,"note":53,"dur":0.296,"vel":0.709,"inst":"chimes_v0_plucked_130","midi_source":""},{"t":25.412,"note":24,"dur":0.296,"vel":0.709,"inst":"synth_arp_v0_struck_314","midi_source":""},{"t":25.412,"note":41,"dur":0.296,"vel":0.709,"inst":"chimes_v0_plucked_130","midi_source":""},{"t":25.412,"note":42,"dur":0.296,"vel":0.709,"inst":"synth_arp_v0_struck_314","midi_source":""},{"t":25.412,"note":53,"dur":0.296,"vel":0.709,"inst":"chimes_v0_plucked_130","midi_source":""},{"t":25.709,"note":29,"dur":0.593,"vel":0.709,"inst":"chimes_v0_plucked_130","midi_source":""},{"t":25.709,"note":41,"dur":0.296,"vel":0.709,"inst":"chimes_v0_plucked_130","midi_source":""},{"t":25.709,"note":41,"dur":0.296,"vel":0.709,"inst":"chimes_v0_plucked_130","midi_source":""},{"t":25.709,"note":53,"dur":0.593,"vel":0.709,"inst":"chimes_v0_plucked_130","midi_source":""},{"t":26.598,"note":41,"dur":0.296,"vel":0.709,"inst":"chimes_v0_plucked_130","midi_source":""},{"t":26.598,"note":41,"dur":0.296,"vel":0.709,"inst":"chimes_v0_plucked_130","midi_source":""},{"t":26.598,"note":53,"dur":0.296,"vel":0.709,"inst":"chimes_v0_plucked_130","midi_source":""},{"t":26.598,"note":53,"dur":0.296,"vel":0.709,"inst":"chimes_v0_plucked_130","midi_source":""},{"t":26.894,"note":41,"dur":0.296,"vel":0.709,"inst":"chimes_v0_plucked_130","midi_source":""},{"t":26.894,"note":45,"dur":0.296,"vel":0.709,"inst":"chimes_v0_plucked_130","midi_source":""},{"t":26.894,"note":53,"dur":0.296,"vel":0.709,"inst":"chimes_v0_plucked_130","midi_source":""},{"t":26.894,"note":57,"dur":0.296,"vel":0.709,"inst":"chimes_v0_plucked_130","midi_source":""},{"t":27.191,"note":45,"dur":0.296,"vel":0.709,"inst":"chimes_v0_plucked_130","midi_source":""},{"t":27.191,"note":57,"dur":0.296,"vel":0.709,"inst":"chimes_v0_plucked_130","midi_source":""},{"t":27.487,"note":36,"dur":0.296,"vel":0.709,"inst":"synth_arp_v0_struck_314","midi_source":""},{"t":27.487,"note":45,"dur":0.296,"vel":0.709,"inst":"chimes_v0_plucked_130","midi_source":""},{"t":27.487,"note":48,"dur":0.296,"vel":0.709,"inst":"synth_arp_v0_struck_314","midi_source":""},{"t":27.487,"note":57,"dur":0.296,"vel":0.709,"inst":"chimes_v0_plucked_130","midi_source":""},{"t":27.784,"note":41,"dur":0.296,"vel":0.709,"inst":"chimes_v0_plucked_130","midi_source":""},{"t":27.784,"note":45,"dur":0.296,"vel":0.709,"inst":"chimes_v0_plucked_130","midi_source":""},{"t":27.784,"note":53,"dur":0.296,"vel":0.709,"inst":"chimes_v0_plucked_130","midi_source":""},{"t":27.784,"note":57,"dur":0.296,"vel":0.709,"inst":"chimes_v0_plucked_130","midi_source":""},{"t":28.08,"note":41,"dur":0.296,"vel":0.709,"inst":"chimes_v0_plucked_130","midi_source":""},{"t":28.08,"note":53,"dur":0.296,"vel":0.709,"inst":"chimes_v0_plucked_130","midi_source":""},{"t":28.377,"note":41,"dur":0.296,"vel":0.709,"inst":"chimes_v0_plucked_130","midi_source":""},{"t":28.377,"note":41,"dur":0.296,"vel":0.709,"inst":"chimes_v0_plucked_130","midi_source":""},{"t":28.377,"note":53,"dur":0.296,"vel":0.709,"inst":"chimes_v0_plucked_130","midi_source":""},{"t":28.377,"note":53,"dur":0.296,"vel":0.709,"inst":"chimes_v0_plucked_130","midi_source":""},{"t":28.673,"note":33,"dur":0.296,"vel":0.709,"inst":"chimes_v0_plucked_130","midi_source":""},{"t":28.673,"note":45,"dur":0.296,"vel":0.709,"inst":"chimes_v0_plucked_130","midi_source":""},{"t":28.673,"note":50,"dur":0.296,"vel":0.709,"inst":"synth_arp_v0_struck_314","midi_source":""},{"t":28.673,"note":62,"dur":0.296,"vel":0.709,"inst":"synth_arp_v0_struck_314","midi_source":""},{"t":28.969,"note":50,"dur":0.296,"vel":0.709,"inst":"synth_arp_v0_struck_314","midi_source":""},{"t":28.969,"note":62,"dur":0.296,"vel":0.709,"inst":"synth_arp_v0_struck_314","midi_source":""},{"t":29.266,"note":33,"dur":0.296,"vel":0.709,"inst":"chimes_v0_plucked_130","midi_source":""},{"t":29.266,"note":50,"dur":0.296,"vel":0.709,"inst":"synth_arp_v0_struck_314","midi_source":""},{"t":29.266,"note":57,"dur":0.296,"vel":0.709,"inst":"chimes_v0_plucked_130","midi_source":""},{"t":29.266,"note":62,"dur":0.296,"vel":0.709,"inst":"synth_arp_v0_struck_314","midi_source":""},{"t":29.562,"note":41,"dur":0.296,"vel":0.709,"inst":"chimes_v0_plucked_130","midi_source":""},{"t":29.562,"note":48,"dur":0.296,"vel":0.709,"inst":"synth_arp_v0_struck_314","midi_source":""},{"t":29.562,"note":57,"dur":0.593,"vel":0.709,"inst":"chimes_v0_plucked_130","midi_source":""},{"t":29.562,"note":60,"dur":0.296,"vel":0.709,"inst":"synth_arp_v0_struck_314","midi_source":""},{"t":29.859,"note":41,"dur":0.296,"vel":0.709,"inst":"chimes_v0_plucked_130","midi_source":""},{"t":29.859,"note":53,"dur":0.148,"vel":0.709,"inst":"chimes_v0_plucked_130","midi_source":""},{"t":29.859,"note":65,"dur":0.148,"vel":0.709,"inst":"chimes_v0_plucked_130","midi_source":""},{"t":30.007,"note":48,"dur":0.148,"vel":0.709,"inst":"synth_arp_v0_struck_314","midi_source":""},{"t":30.007,"note":60,"dur":0.148,"vel":0.709,"inst":"synth_arp_v0_struck_314","midi_source":""},{"t":30.155,"note":41,"dur":0.296,"vel":0.709,"inst":"chimes_v0_plucked_130","midi_source":""},{"t":30.155,"note":50,"dur":0.148,"vel":0.709,"inst":"synth_arp_v0_struck_314","midi_source":""},{"t":30.155,"note":57,"dur":0.296,"vel":0.709,"inst":"chimes_v0_plucked_130","midi_source":""},{"t":30.155,"note":62,"dur":0.148,"vel":0.709,"inst":"synth_arp_v0_struck_314","midi_source":""},{"t":30.303,"note":45,"dur":0.148,"vel":0.709,"inst":"chimes_v0_plucked_130","midi_source":""},{"t":30.303,"note":57,"dur":0.148,"vel":0.709,"inst":"chimes_v0_plucked_130","midi_source":""},{"t":30.451,"note":41,"dur":0.296,"vel":0.709,"inst":"chimes_v0_plucked_130","midi_source":""},{"t":30.451,"note":48,"dur":0.296,"vel":0.709,"inst":"synth_arp_v0_struck_314","midi_source":""},{"t":30.451,"note":57,"dur":0.296,"vel":0.709,"inst":"chimes_v0_plucked_130","midi_source":""},{"t":30.451,"note":60,"dur":0.296,"vel":0.709,"inst":"synth_arp_v0_struck_314","midi_source":""},{"t":30.748,"note":53,"dur":0.148,"vel":0.709,"inst":"chimes_v0_plucked_130","midi_source":""},{"t":30.748,"note":65,"dur":0.148,"vel":0.709,"inst":"chimes_v0_plucked_130","midi_source":""},{"t":30.896,"note":48,"dur":0.148,"vel":0.709,"inst":"synth_arp_v0_struck_314","midi_source":""},{"t":30.896,"note":60,"dur":0.148,"vel":0.709,"inst":"synth_arp_v0_struck_314","midi_source":""},{"t":31.044,"note":45,"dur":0.148,"vel":0.709,"inst":"chimes_v0_plucked_130","midi_source":""},{"t":31.044,"note":57,"dur":0.148,"vel":0.709,"inst":"chimes_v0_plucked_130","midi_source":""},{"t":31.192,"note":45,"dur":0.148,"vel":0.709,"inst":"chimes_v0_plucked_130","midi_source":""},{"t":31.192,"note":57,"dur":0.148,"vel":0.709,"inst":"chimes_v0_plucked_130","midi_source":""},{"t":31.341,"note":33,"dur":0.296,"vel":0.709,"inst":"chimes_v0_plucked_130","midi_source":""},{"t":31.341,"note":42,"dur":0.296,"vel":0.709,"inst":"synth_arp_v0_struck_314","midi_source":""},{"t":31.341,"note":50,"dur":0.296,"vel":0.709,"inst":"synth_arp_v0_struck_314","midi_source":""},{"t":31.341,"note":54,"dur":0.296,"vel":0.709,"inst":"synth_arp_v0_struck_314","midi_source":""},{"t":31.637,"note":36,"dur":0.296,"vel":0.709,"inst":"synth_arp_v0_struck_314","midi_source":""},{"t":31.637,"note":41,"dur":0.296,"vel":0.709,"inst":"chimes_v0_plucked_130","midi_source":""},{"t":31.637,"note":45,"dur":0.296,"vel":0.709,"inst":"chimes_v0_plucked_130","midi_source":""},{"t":31.637,"note":53,"dur":0.296,"vel":0.709,"inst":"chimes_v0_plucked_130","midi_source":""},{"t":31.934,"note":24,"dur":0.296,"vel":0.709,"inst":"synth_arp_v0_struck_314","midi_source":""},{"t":31.934,"note":41,"dur":0.296,"vel":0.709,"inst":"chimes_v0_plucked_130","midi_source":""},{"t":31.934,"note":42,"dur":0.296,"vel":0.709,"inst":"synth_arp_v0_struck_314","midi_source":""},{"t":31.934,"note":53,"dur":0.296,"vel":0.709,"inst":"chimes_v0_plucked_130","midi_source":""},{"t":32.23,"note":29,"dur":0.593,"vel":0.709,"inst":"chimes_v0_plucked_130","midi_source":""},{"t":32.23,"note":41,"dur":0.296,"vel":0.709,"inst":"chimes_v0_plucked_130","midi_source":""},{"t":32.23,"note":41,"dur":0.296,"vel":0.709,"inst":"chimes_v0_plucked_130","midi_source":""},{"t":32.23,"note":53,"dur":0.593,"vel":0.709,"inst":"chimes_v0_plucked_130","midi_source":""},{"t":33.119,"note":41,"dur":0.296,"vel":0.709,"inst":"chimes_v0_plucked_130","midi_source":""},{"t":33.119,"note":41,"dur":0.296,"vel":0.709,"inst":"chimes_v0_plucked_130","midi_source":""},{"t":33.119,"note":53,"dur":0.296,"vel":0.709,"inst":"chimes_v0_plucked_130","midi_source":""},{"t":33.119,"note":53,"dur":0.296,"vel":0.709,"inst":"chimes_v0_plucked_130","midi_source":""},{"t":33.416,"note":41,"dur":0.296,"vel":0.709,"inst":"chimes_v0_plucked_130","midi_source":""},{"t":33.416,"note":45,"dur":0.296,"vel":0.709,"inst":"chimes_v0_plucked_130","midi_source":""},{"t":33.416,"note":53,"dur":0.296,"vel":0.709,"inst":"chimes_v0_plucked_130","midi_source":""},{"t":33.416,"note":57,"dur":0.296,"vel":0.709,"inst":"chimes_v0_plucked_130","midi_source":""},{"t":33.712,"note":45,"dur":0.296,"vel":0.709,"inst":"chimes_v0_plucked_130","midi_source":""},{"t":33.712,"note":57,"dur":0.296,"vel":0.709,"inst":"chimes_v0_plucked_130","midi_source":""},{"t":34.008,"note":36,"dur":0.296,"vel":0.709,"inst":"synth_arp_v0_struck_314","midi_source":""},{"t":34.008,"note":45,"dur":0.296,"vel":0.709,"inst":"chimes_v0_plucked_130","midi_source":""},{"t":34.008,"note":48,"dur":0.296,"vel":0.709,"inst":"synth_arp_v0_struck_314","midi_source":""},{"t":34.008,"note":57,"dur":0.296,"vel":0.709,"inst":"chimes_v0_plucked_130","midi_source":""},{"t":34.305,"note":41,"dur":0.296,"vel":0.709,"inst":"chimes_v0_plucked_130","midi_source":""},{"t":34.305,"note":45,"dur":0.296,"vel":0.709,"inst":"chimes_v0_plucked_130","midi_source":""},{"t":34.305,"note":53,"dur":0.296,"vel":0.709,"inst":"chimes_v0_plucked_130","midi_source":""},{"t":34.305,"note":57,"dur":0.296,"vel":0.709,"inst":"chimes_v0_plucked_130","midi_source":""},{"t":34.601,"note":41,"dur":0.296,"vel":0.709,"inst":"chimes_v0_plucked_130","midi_source":""},{"t":34.601,"note":53,"dur":0.296,"vel":0.709,"inst":"chimes_v0_plucked_130","midi_source":""},{"t":34.898,"note":41,"dur":0.296,"vel":0.709,"inst":"chimes_v0_plucked_130","midi_source":""},{"t":34.898,"note":41,"dur":0.296,"vel":0.709,"inst":"chimes_v0_plucked_130","midi_source":""},{"t":34.898,"note":53,"dur":0.296,"vel":0.709,"inst":"chimes_v0_plucked_130","midi_source":""},{"t":34.898,"note":53,"dur":0.296,"vel":0.709,"inst":"chimes_v0_plucked_130","midi_source":""},{"t":35.194,"note":33,"dur":0.296,"vel":0.709,"inst":"chimes_v0_plucked_130","midi_source":""},{"t":35.194,"note":45,"dur":0.296,"vel":0.709,"inst":"chimes_v0_plucked_130","midi_source":""},{"t":35.194,"note":50,"dur":0.296,"vel":0.709,"inst":"synth_arp_v0_struck_314","midi_source":""},{"t":35.194,"note":62,"dur":0.296,"vel":0.709,"inst":"synth_arp_v0_struck_314","midi_source":""},{"t":35.49,"note":50,"dur":0.296,"vel":0.709,"inst":"synth_arp_v0_struck_314","midi_source":""},{"t":35.49,"note":62,"dur":0.296,"vel":0.709,"inst":"synth_arp_v0_struck_314","midi_source":""},{"t":35.787,"note":33,"dur":0.296,"vel":0.709,"inst":"chimes_v0_plucked_130","midi_source":""},{"t":35.787,"note":50,"dur":0.296,"vel":0.709,"inst":"synth_arp_v0_struck_314","midi_source":""},{"t":35.787,"note":57,"dur":0.296,"vel":0.709,"inst":"chimes_v0_plucked_130","midi_source":""},{"t":35.787,"note":62,"dur":0.296,"vel":0.709,"inst":"synth_arp_v0_struck_314","midi_source":""},{"t":36.083,"note":41,"dur":0.296,"vel":0.709,"inst":"chimes_v0_plucked_130","midi_source":""},{"t":36.083,"note":48,"dur":0.296,"vel":0.709,"inst":"synth_arp_v0_struck_314","midi_source":""},{"t":36.083,"note":57,"dur":0.593,"vel":0.709,"inst":"chimes_v0_plucked_130","midi_source":""},{"t":36.083,"note":60,"dur":0.296,"vel":0.709,"inst":"synth_arp_v0_struck_314","midi_source":""},{"t":36.38,"note":41,"dur":0.296,"vel":0.709,"inst":"chimes_v0_plucked_130","midi_source":""},{"t":36.38,"note":53,"dur":0.148,"vel":0.709,"inst":"chimes_v0_plucked_130","midi_source":""},{"t":36.38,"note":65,"dur":0.148,"vel":0.709,"inst":"chimes_v0_plucked_130","midi_source":""},{"t":36.528,"note":48,"dur":0.148,"vel":0.709,"inst":"synth_arp_v0_struck_314","midi_source":""},{"t":36.528,"note":60,"dur":0.148,"vel":0.709,"inst":"synth_arp_v0_struck_314","midi_source":""},{"t":36.676,"note":41,"dur":0.296,"vel":0.709,"inst":"chimes_v0_plucked_130","midi_source":""},{"t":36.676,"note":50,"dur":0.148,"vel":0.709,"inst":"synth_arp_v0_struck_314","midi_source":""},{"t":36.676,"note":57,"dur":0.296,"vel":0.709,"inst":"chimes_v0_plucked_130","midi_source":""},{"t":36.676,"note":62,"dur":0.148,"vel":0.709,"inst":"synth_arp_v0_struck_314","midi_source":""},{"t":36.824,"note":45,"dur":0.148,"vel":0.709,"inst":"chimes_v0_plucked_130","midi_source":""},{"t":36.824,"note":57,"dur":0.148,"vel":0.709,"inst":"chimes_v0_plucked_130","midi_source":""},{"t":36.973,"note":41,"dur":0.296,"vel":0.709,"inst":"chimes_v0_plucked_130","midi_source":""},{"t":36.973,"note":48,"dur":0.296,"vel":0.709,"inst":"synth_arp_v0_struck_314","midi_source":""},{"t":36.973,"note":57,"dur":0.296,"vel":0.709,"inst":"chimes_v0_plucked_130","midi_source":""},{"t":36.973,"note":60,"dur":0.296,"vel":0.709,"inst":"synth_arp_v0_struck_314","midi_source":""},{"t":37.269,"note":53,"dur":0.148,"vel":0.709,"inst":"chimes_v0_plucked_130","midi_source":""},{"t":37.269,"note":65,"dur":0.148,"vel":0.709,"inst":"chimes_v0_plucked_130","midi_source":""},{"t":37.417,"note":48,"dur":0.148,"vel":0.709,"inst":"synth_arp_v0_struck_314","midi_source":""},{"t":37.417,"note":60,"dur":0.148,"vel":0.709,"inst":"synth_arp_v0_struck_314","midi_source":""},{"t":37.565,"note":45,"dur":0.148,"vel":0.709,"inst":"chimes_v0_plucked_130","midi_source":""},{"t":37.565,"note":57,"dur":0.148,"vel":0.709,"inst":"chimes_v0_plucked_130","midi_source":""},{"t":37.714,"note":45,"dur":0.148,"vel":0.709,"inst":"chimes_v0_plucked_130","midi_source":""},{"t":37.714,"note":57,"dur":0.148,"vel":0.709,"inst":"chimes_v0_plucked_130","midi_source":""},{"t":37.862,"note":33,"dur":0.296,"vel":0.709,"inst":"chimes_v0_plucked_130","midi_source":""},{"t":37.862,"note":42,"dur":0.296,"vel":0.709,"inst":"synth_arp_v0_struck_314","midi_source":""},{"t":37.862,"note":50,"dur":0.296,"vel":0.709,"inst":"synth_arp_v0_struck_314","midi_source":""},{"t":37.862,"note":54,"dur":0.296,"vel":0.709,"inst":"synth_arp_v0_struck_314","midi_source":""},{"t":38.158,"note":36,"dur":0.296,"vel":0.709,"inst":"synth_arp_v0_struck_314","midi_source":""},{"t":38.158,"note":41,"dur":0.296,"vel":0.709,"inst":"chimes_v0_plucked_130","midi_source":""},{"t":38.158,"note":45,"dur":0.296,"vel":0.709,"inst":"chimes_v0_plucked_130","midi_source":""},{"t":38.158,"note":53,"dur":0.296,"vel":0.709,"inst":"chimes_v0_plucked_130","midi_source":""},{"t":38.455,"note":24,"dur":0.296,"vel":0.709,"inst":"synth_arp_v0_struck_314","midi_source":""},{"t":38.455,"note":41,"dur":0.296,"vel":0.709,"inst":"chimes_v0_plucked_130","midi_source":""},{"t":38.455,"note":42,"dur":0.296,"vel":0.709,"inst":"synth_arp_v0_struck_314","midi_source":""},{"t":38.455,"note":53,"dur":0.296,"vel":0.709,"inst":"chimes_v0_plucked_130","midi_source":""},{"t":38.751,"note":29,"dur":0.593,"vel":0.709,"inst":"chimes_v0_plucked_130","midi_source":""},{"t":38.751,"note":41,"dur":0.296,"vel":0.709,"inst":"chimes_v0_plucked_130","midi_source":""},{"t":38.751,"note":41,"dur":0.296,"vel":0.709,"inst":"chimes_v0_plucked_130","midi_source":""},{"t":38.751,"note":53,"dur":0.593,"vel":0.709,"inst":"chimes_v0_plucked_130","midi_source":""},{"t":39.64,"note":41,"dur":0.296,"vel":0.709,"inst":"chimes_v0_plucked_130","midi_source":""},{"t":39.64,"note":41,"dur":0.296,"vel":0.709,"inst":"chimes_v0_plucked_130","midi_source":""},{"t":39.64,"note":53,"dur":0.296,"vel":0.709,"inst":"chimes_v0_plucked_130","midi_source":""},{"t":39.64,"note":53,"dur":0.296,"vel":0.709,"inst":"chimes_v0_plucked_130","midi_source":""},{"t":39.937,"note":41,"dur":0.296,"vel":0.709,"inst":"chimes_v0_plucked_130","midi_source":""},{"t":39.937,"note":45,"dur":0.296,"vel":0.709,"inst":"chimes_v0_plucked_130","midi_source":""},{"t":39.937,"note":53,"dur":0.296,"vel":0.709,"inst":"chimes_v0_plucked_130","midi_source":""},{"t":39.937,"note":57,"dur":0.296,"vel":0.709,"inst":"chimes_v0_plucked_130","midi_source":""},{"t":40.233,"note":45,"dur":0.296,"vel":0.709,"inst":"chimes_v0_plucked_130","midi_source":""},{"t":40.233,"note":57,"dur":0.296,"vel":0.709,"inst":"chimes_v0_plucked_130","midi_source":""},{"t":40.53,"note":36,"dur":0.296,"vel":0.709,"inst":"synth_arp_v0_struck_314","midi_source":""},{"t":40.53,"note":45,"dur":0.296,"vel":0.709,"inst":"chimes_v0_plucked_130","midi_source":""},{"t":40.53,"note":48,"dur":0.296,"vel":0.709,"inst":"synth_arp_v0_struck_314","midi_source":""},{"t":40.53,"note":57,"dur":0.296,"vel":0.709,"inst":"chimes_v0_plucked_130","midi_source":""},{"t":40.826,"note":41,"dur":0.296,"vel":0.709,"inst":"chimes_v0_plucked_130","midi_source":""},{"t":40.826,"note":45,"dur":0.296,"vel":0.709,"inst":"chimes_v0_plucked_130","midi_source":""},{"t":40.826,"note":53,"dur":0.296,"vel":0.709,"inst":"chimes_v0_plucked_130","midi_source":""},{"t":40.826,"note":57,"dur":0.296,"vel":0.709,"inst":"chimes_v0_plucked_130","midi_source":""},{"t":41.122,"note":41,"dur":0.296,"vel":0.709,"inst":"chimes_v0_plucked_130","midi_source":""},{"t":41.122,"note":53,"dur":0.296,"vel":0.709,"inst":"chimes_v0_plucked_130","midi_source":""},{"t":41.419,"note":41,"dur":0.296,"vel":0.709,"inst":"chimes_v0_plucked_130","midi_source":""},{"t":41.419,"note":41,"dur":0.296,"vel":0.709,"inst":"chimes_v0_plucked_130","midi_source":""},{"t":41.419,"note":53,"dur":0.296,"vel":0.709,"inst":"chimes_v0_plucked_130","midi_source":""},{"t":41.419,"note":53,"dur":0.296,"vel":0.709,"inst":"chimes_v0_plucked_130","midi_source":""},{"t":41.715,"note":33,"dur":0.296,"vel":0.709,"inst":"chimes_v0_plucked_130","midi_source":""},{"t":41.715,"note":45,"dur":0.296,"vel":0.709,"inst":"chimes_v0_plucked_130","midi_source":""},{"t":41.715,"note":50,"dur":0.296,"vel":0.709,"inst":"synth_arp_v0_struck_314","midi_source":""},{"t":41.715,"note":62,"dur":0.296,"vel":0.709,"inst":"synth_arp_v0_struck_314","midi_source":""},{"t":42.012,"note":50,"dur":0.296,"vel":0.709,"inst":"synth_arp_v0_struck_314","midi_source":""},{"t":42.012,"note":62,"dur":0.296,"vel":0.709,"inst":"synth_arp_v0_struck_314","midi_source":""},{"t":42.308,"note":33,"dur":0.296,"vel":0.709,"inst":"chimes_v0_plucked_130","midi_source":""},{"t":42.308,"note":50,"dur":0.296,"vel":0.709,"inst":"synth_arp_v0_struck_314","midi_source":""},{"t":42.308,"note":57,"dur":0.296,"vel":0.709,"inst":"chimes_v0_plucked_130","midi_source":""},{"t":42.308,"note":62,"dur":0.296,"vel":0.709,"inst":"synth_arp_v0_struck_314","midi_source":""},{"t":42.604,"note":41,"dur":0.296,"vel":0.709,"inst":"chimes_v0_plucked_130","midi_source":""},{"t":42.604,"note":48,"dur":0.296,"vel":0.709,"inst":"synth_arp_v0_struck_314","midi_source":""},{"t":42.604,"note":57,"dur":0.593,"vel":0.709,"inst":"chimes_v0_plucked_130","midi_source":""},{"t":42.604,"note":60,"dur":0.296,"vel":0.709,"inst":"synth_arp_v0_struck_314","midi_source":""},{"t":42.901,"note":41,"dur":0.296,"vel":0.709,"inst":"chimes_v0_plucked_130","midi_source":""},{"t":42.901,"note":53,"dur":0.148,"vel":0.709,"inst":"chimes_v0_plucked_130","midi_source":""},{"t":42.901,"note":65,"dur":0.148,"vel":0.709,"inst":"chimes_v0_plucked_130","midi_source":""},{"t":43.049,"note":48,"dur":0.148,"vel":0.709,"inst":"synth_arp_v0_struck_314","midi_source":""},{"t":43.049,"note":60,"dur":0.148,"vel":0.709,"inst":"synth_arp_v0_struck_314","midi_source":""},{"t":43.197,"note":41,"dur":0.296,"vel":0.709,"inst":"chimes_v0_plucked_130","midi_source":""},{"t":43.197,"note":50,"dur":0.148,"vel":0.709,"inst":"synth_arp_v0_struck_314","midi_source":""},{"t":43.197,"note":57,"dur":0.296,"vel":0.709,"inst":"chimes_v0_plucked_130","midi_source":""},{"t":43.197,"note":62,"dur":0.148,"vel":0.709,"inst":"synth_arp_v0_struck_314","midi_source":""},{"t":43.346,"note":45,"dur":0.148,"vel":0.709,"inst":"chimes_v0_plucked_130","midi_source":""},{"t":43.346,"note":57,"dur":0.148,"vel":0.709,"inst":"chimes_v0_plucked_130","midi_source":""},{"t":43.494,"note":41,"dur":0.296,"vel":0.709,"inst":"chimes_v0_plucked_130","midi_source":""},{"t":43.494,"note":48,"dur":0.296,"vel":0.709,"inst":"synth_arp_v0_struck_314","midi_source":""},{"t":43.494,"note":57,"dur":0.296,"vel":0.709,"inst":"chimes_v0_plucked_130","midi_source":""},{"t":43.494,"note":60,"dur":0.296,"vel":0.709,"inst":"synth_arp_v0_struck_314","midi_source":""},{"t":43.79,"note":53,"dur":0.148,"vel":0.709,"inst":"chimes_v0_plucked_130","midi_source":""},{"t":43.79,"note":65,"dur":0.148,"vel":0.709,"inst":"chimes_v0_plucked_130","midi_source":""},{"t":43.938,"note":48,"dur":0.148,"vel":0.709,"inst":"synth_arp_v0_struck_314","midi_source":""},{"t":43.938,"note":60,"dur":0.148,"vel":0.709,"inst":"synth_arp_v0_struck_314","midi_source":""},{"t":44.087,"note":45,"dur":0.148,"vel":0.709,"inst":"chimes_v0_plucked_130","midi_source":""},{"t":44.087,"note":57,"dur":0.148,"vel":0.709,"inst":"chimes_v0_plucked_130","midi_source":""},{"t":44.235,"note":45,"dur":0.148,"vel":0.709,"inst":"chimes_v0_plucked_130","midi_source":""},{"t":44.235,"note":57,"dur":0.148,"vel":0.709,"inst":"chimes_v0_plucked_130","midi_source":""},{"t":44.383,"note":33,"dur":0.296,"vel":0.709,"inst":"chimes_v0_plucked_130","midi_source":""},{"t":44.383,"note":42,"dur":0.296,"vel":0.709,"inst":"synth_arp_v0_struck_314","midi_source":""},{"t":44.383,"note":50,"dur":0.296,"vel":0.709,"inst":"synth_arp_v0_struck_314","midi_source":""},{"t":44.383,"note":54,"dur":0.296,"vel":0.709,"inst":"synth_arp_v0_struck_314","midi_source":""},{"t":44.679,"note":36,"dur":0.296,"vel":0.709,"inst":"synth_arp_v0_struck_314","midi_source":""},{"t":44.679,"note":41,"dur":0.296,"vel":0.709,"inst":"chimes_v0_plucked_130","midi_source":""},{"t":44.679,"note":45,"dur":0.296,"vel":0.709,"inst":"chimes_v0_plucked_130","midi_source":""},{"t":44.679,"note":53,"dur":0.296,"vel":0.709,"inst":"chimes_v0_plucked_130","midi_source":""},{"t":44.976,"note":24,"dur":0.296,"vel":0.709,"inst":"synth_arp_v0_struck_314","midi_source":""},{"t":44.976,"note":41,"dur":0.296,"vel":0.709,"inst":"chimes_v0_plucked_130","midi_source":""},{"t":44.976,"note":42,"dur":0.296,"vel":0.709,"inst":"synth_arp_v0_struck_314","midi_source":""},{"t":44.976,"note":53,"dur":0.296,"vel":0.709,"inst":"chimes_v0_plucked_130","midi_source":""},{"t":45.272,"note":29,"dur":0.593,"vel":0.709,"inst":"chimes_v0_plucked_130","midi_source":""},{"t":45.272,"note":41,"dur":0.296,"vel":0.709,"inst":"chimes_v0_plucked_130","midi_source":""},{"t":45.272,"note":41,"dur":0.296,"vel":0.709,"inst":"chimes_v0_plucked_130","midi_source":""},{"t":45.272,"note":53,"dur":0.593,"vel":0.709,"inst":"chimes_v0_plucked_130","midi_source":""},{"t":46.161,"note":41,"dur":0.296,"vel":0.709,"inst":"chimes_v0_plucked_130","midi_source":""},{"t":46.161,"note":41,"dur":0.296,"vel":0.709,"inst":"chimes_v0_plucked_130","midi_source":""},{"t":46.161,"note":53,"dur":0.296,"vel":0.709,"inst":"chimes_v0_plucked_130","midi_source":""},{"t":46.161,"note":53,"dur":0.296,"vel":0.709,"inst":"chimes_v0_plucked_130","midi_source":""},{"t":46.458,"note":41,"dur":0.296,"vel":0.709,"inst":"chimes_v0_plucked_130","midi_source":""},{"t":46.458,"note":45,"dur":0.296,"vel":0.709,"inst":"chimes_v0_plucked_130","midi_source":""},{"t":46.458,"note":53,"dur":0.296,"vel":0.709,"inst":"chimes_v0_plucked_130","midi_source":""},{"t":46.458,"note":57,"dur":0.296,"vel":0.709,"inst":"chimes_v0_plucked_130","midi_source":""},{"t":46.754,"note":45,"dur":0.296,"vel":0.709,"inst":"chimes_v0_plucked_130","midi_source":""},{"t":46.754,"note":57,"dur":0.296,"vel":0.709,"inst":"chimes_v0_plucked_130","midi_source":""},{"t":47.051,"note":36,"dur":0.296,"vel":0.709,"inst":"synth_arp_v0_struck_314","midi_source":""},{"t":47.051,"note":45,"dur":0.296,"vel":0.709,"inst":"chimes_v0_plucked_130","midi_source":""},{"t":47.051,"note":48,"dur":0.296,"vel":0.709,"inst":"synth_arp_v0_struck_314","midi_source":""},{"t":47.051,"note":57,"dur":0.296,"vel":0.709,"inst":"chimes_v0_plucked_130","midi_source":""},{"t":47.347,"note":41,"dur":0.296,"vel":0.709,"inst":"chimes_v0_plucked_130","midi_source":""},{"t":47.347,"note":45,"dur":0.296,"vel":0.709,"inst":"chimes_v0_plucked_130","midi_source":""},{"t":47.347,"note":53,"dur":0.296,"vel":0.709,"inst":"chimes_v0_plucked_130","midi_source":""},{"t":47.347,"note":57,"dur":0.296,"vel":0.709,"inst":"chimes_v0_plucked_130","midi_source":""},{"t":47.644,"note":41,"dur":0.296,"vel":0.709,"inst":"chimes_v0_plucked_130","midi_source":""},{"t":47.644,"note":53,"dur":0.296,"vel":0.709,"inst":"chimes_v0_plucked_130","midi_source":""},{"t":47.94,"note":41,"dur":0.296,"vel":0.709,"inst":"chimes_v0_plucked_130","midi_source":""},{"t":47.94,"note":41,"dur":0.296,"vel":0.709,"inst":"chimes_v0_plucked_130","midi_source":""},{"t":47.94,"note":53,"dur":0.296,"vel":0.709,"inst":"chimes_v0_plucked_130","midi_source":""},{"t":47.94,"note":53,"dur":0.296,"vel":0.709,"inst":"chimes_v0_plucked_130","midi_source":""},{"t":48.236,"note":33,"dur":0.296,"vel":0.709,"inst":"chimes_v0_plucked_130","midi_source":""},{"t":48.236,"note":45,"dur":0.296,"vel":0.709,"inst":"chimes_v0_plucked_130","midi_source":""},{"t":48.236,"note":50,"dur":0.296,"vel":0.709,"inst":"synth_arp_v0_struck_314","midi_source":""},{"t":48.236,"note":62,"dur":0.296,"vel":0.709,"inst":"synth_arp_v0_struck_314","midi_source":""},{"t":48.533,"note":50,"dur":0.296,"vel":0.709,"inst":"synth_arp_v0_struck_314","midi_source":""},{"t":48.533,"note":62,"dur":0.296,"vel":0.709,"inst":"synth_arp_v0_struck_314","midi_source":""},{"t":48.829,"note":33,"dur":0.296,"vel":0.709,"inst":"chimes_v0_plucked_130","midi_source":""},{"t":48.829,"note":50,"dur":0.296,"vel":0.709,"inst":"synth_arp_v0_struck_314","midi_source":""},{"t":48.829,"note":57,"dur":0.296,"vel":0.709,"inst":"chimes_v0_plucked_130","midi_source":""},{"t":48.829,"note":62,"dur":0.296,"vel":0.709,"inst":"synth_arp_v0_struck_314","midi_source":""},{"t":49.126,"note":41,"dur":0.296,"vel":0.709,"inst":"chimes_v0_plucked_130","midi_source":""},{"t":49.126,"note":48,"dur":0.296,"vel":0.709,"inst":"synth_arp_v0_struck_314","midi_source":""},{"t":49.126,"note":57,"dur":0.593,"vel":0.709,"inst":"chimes_v0_plucked_130","midi_source":""},{"t":49.126,"note":60,"dur":0.296,"vel":0.709,"inst":"synth_arp_v0_struck_314","midi_source":""},{"t":49.422,"note":41,"dur":0.296,"vel":0.709,"inst":"chimes_v0_plucked_130","midi_source":""},{"t":49.422,"note":53,"dur":0.148,"vel":0.709,"inst":"chimes_v0_plucked_130","midi_source":""},{"t":49.422,"note":65,"dur":0.148,"vel":0.709,"inst":"chimes_v0_plucked_130","midi_source":""},{"t":49.57,"note":48,"dur":0.148,"vel":0.709,"inst":"synth_arp_v0_struck_314","midi_source":""},{"t":49.57,"note":60,"dur":0.148,"vel":0.709,"inst":"synth_arp_v0_struck_314","midi_source":""},{"t":49.718,"note":41,"dur":0.296,"vel":0.709,"inst":"chimes_v0_plucked_130","midi_source":""},{"t":49.718,"note":50,"dur":0.148,"vel":0.709,"inst":"synth_arp_v0_struck_314","midi_source":""},{"t":49.718,"note":57,"dur":0.296,"vel":0.709,"inst":"chimes_v0_plucked_130","midi_source":""},{"t":49.718,"note":62,"dur":0.148,"vel":0.709,"inst":"synth_arp_v0_struck_314","midi_source":""},{"t":49.867,"note":45,"dur":0.148,"vel":0.709,"inst":"chimes_v0_plucked_130","midi_source":""},{"t":49.867,"note":57,"dur":0.148,"vel":0.709,"inst":"chimes_v0_plucked_130","midi_source":""},{"t":50.015,"note":41,"dur":0.296,"vel":0.709,"inst":"chimes_v0_plucked_130","midi_source":""},{"t":50.015,"note":48,"dur":0.296,"vel":0.709,"inst":"synth_arp_v0_struck_314","midi_source":""},{"t":50.015,"note":57,"dur":0.296,"vel":0.709,"inst":"chimes_v0_plucked_130","midi_source":""},{"t":50.015,"note":60,"dur":0.296,"vel":0.709,"inst":"synth_arp_v0_struck_314","midi_source":""},{"t":50.311,"note":53,"dur":0.148,"vel":0.709,"inst":"chimes_v0_plucked_130","midi_source":""},{"t":50.311,"note":65,"dur":0.148,"vel":0.709,"inst":"chimes_v0_plucked_130","midi_source":""},{"t":50.46,"note":48,"dur":0.148,"vel":0.709,"inst":"synth_arp_v0_struck_314","midi_source":""},{"t":50.46,"note":60,"dur":0.148,"vel":0.709,"inst":"synth_arp_v0_struck_314","midi_source":""},{"t":50.608,"note":45,"dur":0.148,"vel":0.709,"inst":"chimes_v0_plucked_130","midi_source":""},{"t":50.608,"note":57,"dur":0.148,"vel":0.709,"inst":"chimes_v0_plucked_130","midi_source":""},{"t":50.756,"note":45,"dur":0.148,"vel":0.709,"inst":"chimes_v0_plucked_130","midi_source":""},{"t":50.756,"note":57,"dur":0.148,"vel":0.709,"inst":"chimes_v0_plucked_130","midi_source":""},{"t":50.904,"note":33,"dur":0.296,"vel":0.709,"inst":"chimes_v0_plucked_130","midi_source":""},{"t":50.904,"note":42,"dur":0.296,"vel":0.709,"inst":"synth_arp_v0_struck_314","midi_source":""},{"t":50.904,"note":50,"dur":0.296,"vel":0.709,"inst":"synth_arp_v0_struck_314","midi_source":""},{"t":50.904,"note":54,"dur":0.296,"vel":0.709,"inst":"synth_arp_v0_struck_314","midi_source":""},{"t":51.201,"note":36,"dur":0.296,"vel":0.709,"inst":"synth_arp_v0_struck_314","midi_source":""},{"t":51.201,"note":41,"dur":0.296,"vel":0.709,"inst":"chimes_v0_plucked_130","midi_source":""},{"t":51.201,"note":45,"dur":0.296,"vel":0.709,"inst":"chimes_v0_plucked_130","midi_source":""},{"t":51.201,"note":53,"dur":0.296,"vel":0.709,"inst":"chimes_v0_plucked_130","midi_source":""},{"t":51.497,"note":24,"dur":0.296,"vel":0.709,"inst":"synth_arp_v0_struck_314","midi_source":""},{"t":51.497,"note":41,"dur":0.296,"vel":0.709,"inst":"chimes_v0_plucked_130","midi_source":""},{"t":51.497,"note":42,"dur":0.296,"vel":0.709,"inst":"synth_arp_v0_struck_314","midi_source":""},{"t":51.497,"note":53,"dur":0.296,"vel":0.709,"inst":"chimes_v0_plucked_130","midi_source":""},{"t":51.793,"note":29,"dur":0.593,"vel":0.709,"inst":"chimes_v0_plucked_130","midi_source":""},{"t":51.793,"note":41,"dur":0.296,"vel":0.709,"inst":"chimes_v0_plucked_130","midi_source":""},{"t":51.793,"note":41,"dur":0.296,"vel":0.709,"inst":"chimes_v0_plucked_130","midi_source":""},{"t":51.793,"note":53,"dur":0.593,"vel":0.709,"inst":"chimes_v0_plucked_130","midi_source":""},{"t":52.683,"note":41,"dur":0.296,"vel":0.709,"inst":"chimes_v0_plucked_130","midi_source":""},{"t":52.683,"note":41,"dur":0.296,"vel":0.709,"inst":"chimes_v0_plucked_130","midi_source":""},{"t":52.683,"note":53,"dur":0.296,"vel":0.709,"inst":"chimes_v0_plucked_130","midi_source":""},{"t":52.683,"note":53,"dur":0.296,"vel":0.709,"inst":"chimes_v0_plucked_130","midi_source":""},{"t":52.979,"note":41,"dur":0.296,"vel":0.709,"inst":"chimes_v0_plucked_130","midi_source":""},{"t":52.979,"note":45,"dur":0.296,"vel":0.709,"inst":"chimes_v0_plucked_130","midi_source":""},{"t":52.979,"note":53,"dur":0.296,"vel":0.709,"inst":"chimes_v0_plucked_130","midi_source":""},{"t":52.979,"note":57,"dur":0.296,"vel":0.709,"inst":"chimes_v0_plucked_130","midi_source":""},{"t":53.275,"note":45,"dur":0.296,"vel":0.709,"inst":"chimes_v0_plucked_130","midi_source":""},{"t":53.275,"note":57,"dur":0.296,"vel":0.709,"inst":"chimes_v0_plucked_130","midi_source":""},{"t":53.572,"note":36,"dur":0.296,"vel":0.709,"inst":"synth_arp_v0_struck_314","midi_source":""},{"t":53.572,"note":45,"dur":0.296,"vel":0.709,"inst":"chimes_v0_plucked_130","midi_source":""},{"t":53.572,"note":48,"dur":0.296,"vel":0.709,"inst":"synth_arp_v0_struck_314","midi_source":""},{"t":53.572,"note":57,"dur":0.296,"vel":0.709,"inst":"chimes_v0_plucked_130","midi_source":""},{"t":53.868,"note":41,"dur":0.296,"vel":0.709,"inst":"chimes_v0_plucked_130","midi_source":""},{"t":53.868,"note":45,"dur":0.296,"vel":0.709,"inst":"chimes_v0_plucked_130","midi_source":""},{"t":53.868,"note":53,"dur":0.296,"vel":0.709,"inst":"chimes_v0_plucked_130","midi_source":""},{"t":53.868,"note":57,"dur":0.296,"vel":0.709,"inst":"chimes_v0_plucked_130","midi_source":""},{"t":54.165,"note":41,"dur":0.296,"vel":0.709,"inst":"chimes_v0_plucked_130","midi_source":""},{"t":54.165,"note":53,"dur":0.296,"vel":0.709,"inst":"chimes_v0_plucked_130","midi_source":""},{"t":54.461,"note":41,"dur":0.296,"vel":0.709,"inst":"chimes_v0_plucked_130","midi_source":""},{"t":54.461,"note":41,"dur":0.296,"vel":0.709,"inst":"chimes_v0_plucked_130","midi_source":""},{"t":54.461,"note":53,"dur":0.296,"vel":0.709,"inst":"chimes_v0_plucked_130","midi_source":""},{"t":54.461,"note":53,"dur":0.296,"vel":0.709,"inst":"chimes_v0_plucked_130","midi_source":""},{"t":54.758,"note":33,"dur":0.296,"vel":0.709,"inst":"chimes_v0_plucked_130","midi_source":""},{"t":54.758,"note":45,"dur":0.296,"vel":0.709,"inst":"chimes_v0_plucked_130","midi_source":""},{"t":54.758,"note":50,"dur":0.296,"vel":0.709,"inst":"synth_arp_v0_struck_314","midi_source":""},{"t":54.758,"note":62,"dur":0.296,"vel":0.709,"inst":"synth_arp_v0_struck_314","midi_source":""},{"t":55.054,"note":50,"dur":0.296,"vel":0.709,"inst":"synth_arp_v0_struck_314","midi_source":""},{"t":55.054,"note":62,"dur":0.296,"vel":0.709,"inst":"synth_arp_v0_struck_314","midi_source":""},{"t":55.35,"note":33,"dur":0.296,"vel":0.709,"inst":"chimes_v0_plucked_130","midi_source":""},{"t":55.35,"note":50,"dur":0.296,"vel":0.709,"inst":"synth_arp_v0_struck_314","midi_source":""},{"t":55.35,"note":57,"dur":0.296,"vel":0.709,"inst":"chimes_v0_plucked_130","midi_source":""},{"t":55.35,"note":62,"dur":0.296,"vel":0.709,"inst":"synth_arp_v0_struck_314","midi_source":""},{"t":55.647,"note":41,"dur":0.296,"vel":0.709,"inst":"chimes_v0_plucked_130","midi_source":""},{"t":55.647,"note":48,"dur":0.296,"vel":0.709,"inst":"synth_arp_v0_struck_314","midi_source":""},{"t":55.647,"note":57,"dur":0.593,"vel":0.709,"inst":"chimes_v0_plucked_130","midi_source":""},{"t":55.647,"note":60,"dur":0.296,"vel":0.709,"inst":"synth_arp_v0_struck_314","midi_source":""},{"t":55.943,"note":41,"dur":0.296,"vel":0.709,"inst":"chimes_v0_plucked_130","midi_source":""},{"t":55.943,"note":53,"dur":0.148,"vel":0.709,"inst":"chimes_v0_plucked_130","midi_source":""},{"t":55.943,"note":65,"dur":0.148,"vel":0.709,"inst":"chimes_v0_plucked_130","midi_source":""},{"t":56.091,"note":48,"dur":0.148,"vel":0.709,"inst":"synth_arp_v0_struck_314","midi_source":""},{"t":56.091,"note":60,"dur":0.148,"vel":0.709,"inst":"synth_arp_v0_struck_314","midi_source":""},{"t":56.24,"note":41,"dur":0.296,"vel":0.709,"inst":"chimes_v0_plucked_130","midi_source":""},{"t":56.24,"note":50,"dur":0.148,"vel":0.709,"inst":"synth_arp_v0_struck_314","midi_source":""},{"t":56.24,"note":57,"dur":0.296,"vel":0.709,"inst":"chimes_v0_plucked_130","midi_source":""},{"t":56.24,"note":62,"dur":0.148,"vel":0.709,"inst":"synth_arp_v0_struck_314","midi_source":""},{"t":56.388,"note":45,"dur":0.148,"vel":0.709,"inst":"chimes_v0_plucked_130","midi_source":""},{"t":56.388,"note":57,"dur":0.148,"vel":0.709,"inst":"chimes_v0_plucked_130","midi_source":""},{"t":56.536,"note":41,"dur":0.296,"vel":0.709,"inst":"chimes_v0_plucked_130","midi_source":""},{"t":56.536,"note":48,"dur":0.296,"vel":0.709,"inst":"synth_arp_v0_struck_314","midi_source":""},{"t":56.536,"note":57,"dur":0.296,"vel":0.709,"inst":"chimes_v0_plucked_130","midi_source":""},{"t":56.536,"note":60,"dur":0.296,"vel":0.709,"inst":"synth_arp_v0_struck_314","midi_source":""},{"t":56.832,"note":53,"dur":0.148,"vel":0.709,"inst":"chimes_v0_plucked_130","midi_source":""},{"t":56.832,"note":65,"dur":0.148,"vel":0.709,"inst":"chimes_v0_plucked_130","midi_source":""},{"t":56.981,"note":48,"dur":0.148,"vel":0.709,"inst":"synth_arp_v0_struck_314","midi_source":""},{"t":56.981,"note":60,"dur":0.148,"vel":0.709,"inst":"synth_arp_v0_struck_314","midi_source":""},{"t":57.129,"note":45,"dur":0.148,"vel":0.709,"inst":"chimes_v0_plucked_130","midi_source":""},{"t":57.129,"note":57,"dur":0.148,"vel":0.709,"inst":"chimes_v0_plucked_130","midi_source":""},{"t":57.277,"note":45,"dur":0.148,"vel":0.709,"inst":"chimes_v0_plucked_130","midi_source":""},{"t":57.277,"note":57,"dur":0.148,"vel":0.709,"inst":"chimes_v0_plucked_130","midi_source":""},{"t":57.425,"note":33,"dur":0.296,"vel":0.709,"inst":"chimes_v0_plucked_130","midi_source":""},{"t":57.425,"note":42,"dur":0.296,"vel":0.709,"inst":"synth_arp_v0_struck_314","midi_source":""},{"t":57.425,"note":50,"dur":0.296,"vel":0.709,"inst":"synth_arp_v0_struck_314","midi_source":""},{"t":57.425,"note":54,"dur":0.296,"vel":0.709,"inst":"synth_arp_v0_struck_314","midi_source":""},{"t":57.722,"note":36,"dur":0.296,"vel":0.709,"inst":"synth_arp_v0_struck_314","midi_source":""},{"t":57.722,"note":41,"dur":0.296,"vel":0.709,"inst":"chimes_v0_plucked_130","midi_source":""},{"t":57.722,"note":45,"dur":0.296,"vel":0.709,"inst":"chimes_v0_plucked_130","midi_source":""},{"t":57.722,"note":53,"dur":0.296,"vel":0.709,"inst":"chimes_v0_plucked_130","midi_source":""},{"t":58.018,"note":24,"dur":0.296,"vel":0.709,"inst":"synth_arp_v0_struck_314","midi_source":""},{"t":58.018,"note":41,"dur":0.296,"vel":0.709,"inst":"chimes_v0_plucked_130","midi_source":""},{"t":58.018,"note":42,"dur":0.296,"vel":0.709,"inst":"synth_arp_v0_struck_314","midi_source":""},{"t":58.018,"note":53,"dur":0.296,"vel":0.709,"inst":"chimes_v0_plucked_130","midi_source":""},{"t":58.315,"note":29,"dur":0.593,"vel":0.709,"inst":"chimes_v0_plucked_130","midi_source":""},{"t":58.315,"note":41,"dur":0.296,"vel":0.709,"inst":"chimes_v0_plucked_130","midi_source":""},{"t":58.315,"note":41,"dur":0.296,"vel":0.709,"inst":"chimes_v0_plucked_130","midi_source":""},{"t":58.315,"note":53,"dur":0.593,"vel":0.709,"inst":"chimes_v0_plucked_130","midi_source":""},{"t":59.204,"note":41,"dur":0.296,"vel":0.709,"inst":"chimes_v0_plucked_130","midi_source":""},{"t":59.204,"note":41,"dur":0.296,"vel":0.709,"inst":"chimes_v0_plucked_130","midi_source":""},{"t":59.204,"note":53,"dur":0.296,"vel":0.709,"inst":"chimes_v0_plucked_130","midi_source":""},{"t":59.204,"note":53,"dur":0.296,"vel":0.709,"inst":"chimes_v0_plucked_130","midi_source":""},{"t":59.5,"note":41,"dur":0.296,"vel":0.709,"inst":"chimes_v0_plucked_130","midi_source":""},{"t":59.5,"note":45,"dur":0.296,"vel":0.709,"inst":"chimes_v0_plucked_130","midi_source":""},{"t":59.5,"note":53,"dur":0.296,"vel":0.709,"inst":"chimes_v0_plucked_130","midi_source":""},{"t":59.5,"note":57,"dur":0.296,"vel":0.709,"inst":"chimes_v0_plucked_130","midi_source":""},{"t":59.797,"note":45,"dur":0.296,"vel":0.709,"inst":"chimes_v0_plucked_130","midi_source":""},{"t":59.797,"note":57,"dur":0.296,"vel":0.709,"inst":"chimes_v0_plucked_130","midi_source":""},{"t":60.093,"note":36,"dur":0.296,"vel":0.709,"inst":"synth_arp_v0_struck_314","midi_source":""},{"t":60.093,"note":45,"dur":0.296,"vel":0.709,"inst":"chimes_v0_plucked_130","midi_source":""},{"t":60.093,"note":48,"dur":0.296,"vel":0.709,"inst":"synth_arp_v0_struck_314","midi_source":""},{"t":60.093,"note":57,"dur":0.296,"vel":0.709,"inst":"chimes_v0_plucked_130","midi_source":""},{"t":60.389,"note":41,"dur":0.296,"vel":0.709,"inst":"chimes_v0_plucked_130","midi_source":""},{"t":60.389,"note":45,"dur":0.296,"vel":0.709,"inst":"chimes_v0_plucked_130","midi_source":""},{"t":60.389,"note":53,"dur":0.296,"vel":0.709,"inst":"chimes_v0_plucked_130","midi_source":""},{"t":60.389,"note":57,"dur":0.296,"vel":0.709,"inst":"chimes_v0_plucked_130","midi_source":""},{"t":60.686,"note":41,"dur":0.296,"vel":0.709,"inst":"chimes_v0_plucked_130","midi_source":""},{"t":60.686,"note":53,"dur":0.296,"vel":0.709,"inst":"chimes_v0_plucked_130","midi_source":""},{"t":60.982,"note":41,"dur":0.296,"vel":0.709,"inst":"chimes_v0_plucked_130","midi_source":""},{"t":60.982,"note":41,"dur":0.296,"vel":0.709,"inst":"chimes_v0_plucked_130","midi_source":""},{"t":60.982,"note":53,"dur":0.296,"vel":0.709,"inst":"chimes_v0_plucked_130","midi_source":""},{"t":60.982,"note":53,"dur":0.296,"vel":0.709,"inst":"chimes_v0_plucked_130","midi_source":""},{"t":61.279,"note":33,"dur":0.296,"vel":0.709,"inst":"chimes_v0_plucked_130","midi_source":""},{"t":61.279,"note":45,"dur":0.296,"vel":0.709,"inst":"chimes_v0_plucked_130","midi_source":""},{"t":61.279,"note":50,"dur":0.296,"vel":0.709,"inst":"synth_arp_v0_struck_314","midi_source":""},{"t":61.279,"note":62,"dur":0.296,"vel":0.709,"inst":"synth_arp_v0_struck_314","midi_source":""},{"t":61.575,"note":50,"dur":0.296,"vel":0.709,"inst":"synth_arp_v0_struck_314","midi_source":""},{"t":61.575,"note":62,"dur":0.296,"vel":0.709,"inst":"synth_arp_v0_struck_314","midi_source":""},{"t":61.872,"note":33,"dur":0.296,"vel":0.709,"inst":"chimes_v0_plucked_130","midi_source":""},{"t":61.872,"note":50,"dur":0.296,"vel":0.709,"inst":"synth_arp_v0_struck_314","midi_source":""},{"t":61.872,"note":57,"dur":0.296,"vel":0.709,"inst":"chimes_v0_plucked_130","midi_source":""},{"t":61.872,"note":62,"dur":0.296,"vel":0.709,"inst":"synth_arp_v0_struck_314","midi_source":""},{"t":62.168,"note":41,"dur":0.296,"vel":0.709,"inst":"chimes_v0_plucked_130","midi_source":""},{"t":62.168,"note":48,"dur":0.296,"vel":0.709,"inst":"synth_arp_v0_struck_314","midi_source":""},{"t":62.168,"note":57,"dur":0.593,"vel":0.709,"inst":"chimes_v0_plucked_130","midi_source":""},{"t":62.168,"note":60,"dur":0.296,"vel":0.709,"inst":"synth_arp_v0_struck_314","midi_source":""},{"t":62.464,"note":41,"dur":0.296,"vel":0.709,"inst":"chimes_v0_plucked_130","midi_source":""},{"t":62.464,"note":53,"dur":0.148,"vel":0.709,"inst":"chimes_v0_plucked_130","midi_source":""},{"t":62.464,"note":65,"dur":0.148,"vel":0.709,"inst":"chimes_v0_plucked_130","midi_source":""},{"t":62.613,"note":48,"dur":0.148,"vel":0.709,"inst":"synth_arp_v0_struck_314","midi_source":""},{"t":62.613,"note":60,"dur":0.148,"vel":0.709,"inst":"synth_arp_v0_struck_314","midi_source":""},{"t":62.761,"note":41,"dur":0.296,"vel":0.709,"inst":"chimes_v0_plucked_130","midi_source":""},{"t":62.761,"note":50,"dur":0.148,"vel":0.709,"inst":"synth_arp_v0_struck_314","midi_source":""},{"t":62.761,"note":57,"dur":0.296,"vel":0.709,"inst":"chimes_v0_plucked_130","midi_source":""},{"t":62.761,"note":62,"dur":0.148,"vel":0.709,"inst":"synth_arp_v0_struck_314","midi_source":""},{"t":62.909,"note":45,"dur":0.148,"vel":0.709,"inst":"chimes_v0_plucked_130","midi_source":""},{"t":62.909,"note":57,"dur":0.148,"vel":0.709,"inst":"chimes_v0_plucked_130","midi_source":""},{"t":63.057,"note":41,"dur":0.296,"vel":0.709,"inst":"chimes_v0_plucked_130","midi_source":""},{"t":63.057,"note":48,"dur":0.296,"vel":0.709,"inst":"synth_arp_v0_struck_314","midi_source":""},{"t":63.057,"note":57,"dur":0.296,"vel":0.709,"inst":"chimes_v0_plucked_130","midi_source":""},{"t":63.057,"note":60,"dur":0.296,"vel":0.709,"inst":"synth_arp_v0_struck_314","midi_source":""},{"t":63.354,"note":53,"dur":0.148,"vel":0.709,"inst":"chimes_v0_plucked_130","midi_source":""},{"t":63.354,"note":65,"dur":0.148,"vel":0.709,"inst":"chimes_v0_plucked_130","midi_source":""},{"t":63.502,"note":48,"dur":0.148,"vel":0.709,"inst":"synth_arp_v0_struck_314","midi_source":""},{"t":63.502,"note":60,"dur":0.148,"vel":0.709,"inst":"synth_arp_v0_struck_314","midi_source":""},{"t":63.65,"note":45,"dur":0.148,"vel":0.709,"inst":"chimes_v0_plucked_130","midi_source":""},{"t":63.65,"note":57,"dur":0.148,"vel":0.709,"inst":"chimes_v0_plucked_130","midi_source":""},{"t":63.798,"note":45,"dur":0.148,"vel":0.709,"inst":"chimes_v0_plucked_130","midi_source":""},{"t":63.798,"note":57,"dur":0.148,"vel":0.709,"inst":"chimes_v0_plucked_130","midi_source":""},{"t":63.946,"note":33,"dur":0.296,"vel":0.709,"inst":"chimes_v0_plucked_130","midi_source":""},{"t":63.946,"note":42,"dur":0.296,"vel":0.709,"inst":"synth_arp_v0_struck_314","midi_source":""},{"t":63.946,"note":50,"dur":0.296,"vel":0.709,"inst":"synth_arp_v0_struck_314","midi_source":""},{"t":63.946,"note":54,"dur":0.296,"vel":0.709,"inst":"synth_arp_v0_struck_314","midi_source":""},{"t":64.243,"note":36,"dur":0.296,"vel":0.709,"inst":"synth_arp_v0_struck_314","midi_source":""},{"t":64.243,"note":41,"dur":0.296,"vel":0.709,"inst":"chimes_v0_plucked_130","midi_source":""},{"t":64.243,"note":45,"dur":0.296,"vel":0.709,"inst":"chimes_v0_plucked_130","midi_source":""},{"t":64.243,"note":53,"dur":0.296,"vel":0.709,"inst":"chimes_v0_plucked_130","midi_source":""},{"t":64.539,"note":24,"dur":0.296,"vel":0.709,"inst":"synth_arp_v0_struck_314","midi_source":""},{"t":64.539,"note":41,"dur":0.296,"vel":0.709,"inst":"chimes_v0_plucked_130","midi_source":""},{"t":64.539,"note":42,"dur":0.296,"vel":0.709,"inst":"synth_arp_v0_struck_314","midi_source":""},{"t":64.539,"note":53,"dur":0.296,"vel":0.709,"inst":"chimes_v0_plucked_130","midi_source":""},{"t":64.836,"note":29,"dur":0.593,"vel":0.709,"inst":"chimes_v0_plucked_130","midi_source":""},{"t":64.836,"note":41,"dur":0.296,"vel":0.709,"inst":"chimes_v0_plucked_130","midi_source":""},{"t":64.836,"note":41,"dur":0.296,"vel":0.709,"inst":"chimes_v0_plucked_130","midi_source":""},{"t":64.836,"note":53,"dur":0.593,"vel":0.709,"inst":"chimes_v0_plucked_130","midi_source":""},{"t":65.725,"note":41,"dur":0.296,"vel":0.709,"inst":"chimes_v0_plucked_130","midi_source":""},{"t":65.725,"note":41,"dur":0.296,"vel":0.709,"inst":"chimes_v0_plucked_130","midi_source":""},{"t":65.725,"note":53,"dur":0.296,"vel":0.709,"inst":"chimes_v0_plucked_130","midi_source":""},{"t":65.725,"note":53,"dur":0.296,"vel":0.709,"inst":"chimes_v0_plucked_130","midi_source":""},{"t":66.021,"note":41,"dur":0.296,"vel":0.709,"inst":"chimes_v0_plucked_130","midi_source":""},{"t":66.021,"note":45,"dur":0.296,"vel":0.709,"inst":"chimes_v0_plucked_130","midi_source":""},{"t":66.021,"note":53,"dur":0.296,"vel":0.709,"inst":"chimes_v0_plucked_130","midi_source":""},{"t":66.021,"note":57,"dur":0.296,"vel":0.709,"inst":"chimes_v0_plucked_130","midi_source":""},{"t":66.318,"note":45,"dur":0.296,"vel":0.709,"inst":"chimes_v0_plucked_130","midi_source":""},{"t":66.318,"note":57,"dur":0.296,"vel":0.709,"inst":"chimes_v0_plucked_130","midi_source":""},{"t":66.614,"note":36,"dur":0.296,"vel":0.709,"inst":"synth_arp_v0_struck_314","midi_source":""},{"t":66.614,"note":45,"dur":0.296,"vel":0.709,"inst":"chimes_v0_plucked_130","midi_source":""},{"t":66.614,"note":48,"dur":0.296,"vel":0.709,"inst":"synth_arp_v0_struck_314","midi_source":""},{"t":66.614,"note":57,"dur":0.296,"vel":0.709,"inst":"chimes_v0_plucked_130","midi_source":""},{"t":66.911,"note":41,"dur":0.296,"vel":0.709,"inst":"chimes_v0_plucked_130","midi_source":""},{"t":66.911,"note":45,"dur":0.296,"vel":0.709,"inst":"chimes_v0_plucked_130","midi_source":""},{"t":66.911,"note":53,"dur":0.296,"vel":0.709,"inst":"chimes_v0_plucked_130","midi_source":""},{"t":66.911,"note":57,"dur":0.296,"vel":0.709,"inst":"chimes_v0_plucked_130","midi_source":""},{"t":67.207,"note":41,"dur":0.296,"vel":0.709,"inst":"chimes_v0_plucked_130","midi_source":""},{"t":67.207,"note":53,"dur":0.296,"vel":0.709,"inst":"chimes_v0_plucked_130","midi_source":""},{"t":67.503,"note":41,"dur":0.296,"vel":0.709,"inst":"chimes_v0_plucked_130","midi_source":""},{"t":67.503,"note":41,"dur":0.296,"vel":0.709,"inst":"chimes_v0_plucked_130","midi_source":""},{"t":67.503,"note":53,"dur":0.296,"vel":0.709,"inst":"chimes_v0_plucked_130","midi_source":""},{"t":67.503,"note":53,"dur":0.296,"vel":0.709,"inst":"chimes_v0_plucked_130","midi_source":""},{"t":67.8,"note":33,"dur":0.296,"vel":0.709,"inst":"chimes_v0_plucked_130","midi_source":""},{"t":67.8,"note":45,"dur":0.296,"vel":0.709,"inst":"chimes_v0_plucked_130","midi_source":""},{"t":67.8,"note":50,"dur":0.296,"vel":0.709,"inst":"synth_arp_v0_struck_314","midi_source":""},{"t":67.8,"note":62,"dur":0.296,"vel":0.709,"inst":"synth_arp_v0_struck_314","midi_source":""},{"t":68.096,"note":50,"dur":0.296,"vel":0.709,"inst":"synth_arp_v0_struck_314","midi_source":""},{"t":68.096,"note":62,"dur":0.296,"vel":0.709,"inst":"synth_arp_v0_struck_314","midi_source":""},{"t":68.393,"note":33,"dur":0.296,"vel":0.709,"inst":"chimes_v0_plucked_130","midi_source":""},{"t":68.393,"note":50,"dur":0.296,"vel":0.709,"inst":"synth_arp_v0_struck_314","midi_source":""},{"t":68.393,"note":57,"dur":0.296,"vel":0.709,"inst":"chimes_v0_plucked_130","midi_source":""},{"t":68.393,"note":62,"dur":0.296,"vel":0.709,"inst":"synth_arp_v0_struck_314","midi_source":""},{"t":68.689,"note":41,"dur":0.296,"vel":0.709,"inst":"chimes_v0_plucked_130","midi_source":""},{"t":68.689,"note":48,"dur":0.296,"vel":0.709,"inst":"synth_arp_v0_struck_314","midi_source":""},{"t":68.689,"note":57,"dur":0.593,"vel":0.709,"inst":"chimes_v0_plucked_130","midi_source":""},{"t":68.689,"note":60,"dur":0.296,"vel":0.709,"inst":"synth_arp_v0_struck_314","midi_source":""},{"t":68.986,"note":41,"dur":0.296,"vel":0.709,"inst":"chimes_v0_plucked_130","midi_source":""},{"t":68.986,"note":53,"dur":0.148,"vel":0.709,"inst":"chimes_v0_plucked_130","midi_source":""},{"t":68.986,"note":65,"dur":0.148,"vel":0.709,"inst":"chimes_v0_plucked_130","midi_source":""},{"t":69.134,"note":48,"dur":0.148,"vel":0.709,"inst":"synth_arp_v0_struck_314","midi_source":""},{"t":69.134,"note":60,"dur":0.148,"vel":0.709,"inst":"synth_arp_v0_struck_314","midi_source":""},{"t":69.282,"note":41,"dur":0.296,"vel":0.709,"inst":"chimes_v0_plucked_130","midi_source":""},{"t":69.282,"note":50,"dur":0.148,"vel":0.709,"inst":"synth_arp_v0_struck_314","midi_source":""},{"t":69.282,"note":57,"dur":0.296,"vel":0.709,"inst":"chimes_v0_plucked_130","midi_source":""},{"t":69.282,"note":62,"dur":0.148,"vel":0.709,"inst":"synth_arp_v0_struck_314","midi_source":""},{"t":69.43,"note":45,"dur":0.148,"vel":0.709,"inst":"chimes_v0_plucked_130","midi_source":""},{"t":69.43,"note":57,"dur":0.148,"vel":0.709,"inst":"chimes_v0_plucked_130","midi_source":""},{"t":69.578,"note":41,"dur":0.296,"vel":0.709,"inst":"chimes_v0_plucked_130","midi_source":""},{"t":69.578,"note":48,"dur":0.296,"vel":0.709,"inst":"synth_arp_v0_struck_314","midi_source":""},{"t":69.578,"note":57,"dur":0.296,"vel":0.709,"inst":"chimes_v0_plucked_130","midi_source":""},{"t":69.578,"note":60,"dur":0.296,"vel":0.709,"inst":"synth_arp_v0_struck_314","midi_source":""},{"t":69.875,"note":53,"dur":0.148,"vel":0.709,"inst":"chimes_v0_plucked_130","midi_source":""},{"t":69.875,"note":65,"dur":0.148,"vel":0.709,"inst":"chimes_v0_plucked_130","midi_source":""},{"t":70.023,"note":48,"dur":0.148,"vel":0.709,"inst":"synth_arp_v0_struck_314","midi_source":""},{"t":70.023,"note":60,"dur":0.148,"vel":0.709,"inst":"synth_arp_v0_struck_314","midi_source":""},{"t":70.171,"note":45,"dur":0.148,"vel":0.709,"inst":"chimes_v0_plucked_130","midi_source":""},{"t":70.171,"note":57,"dur":0.148,"vel":0.709,"inst":"chimes_v0_plucked_130","midi_source":""},{"t":70.319,"note":45,"dur":0.148,"vel":0.709,"inst":"chimes_v0_plucked_130","midi_source":""},{"t":70.319,"note":57,"dur":0.148,"vel":0.709,"inst":"chimes_v0_plucked_130","midi_source":""},{"t":70.468,"note":33,"dur":0.296,"vel":0.709,"inst":"chimes_v0_plucked_130","midi_source":""},{"t":70.468,"note":42,"dur":0.296,"vel":0.709,"inst":"synth_arp_v0_struck_314","midi_source":""},{"t":70.468,"note":50,"dur":0.296,"vel":0.709,"inst":"synth_arp_v0_struck_314","midi_source":""},{"t":70.468,"note":54,"dur":0.296,"vel":0.709,"inst":"synth_arp_v0_struck_314","midi_source":""},{"t":70.764,"note":36,"dur":0.296,"vel":0.709,"inst":"synth_arp_v0_struck_314","midi_source":""},{"t":70.764,"note":41,"dur":0.296,"vel":0.709,"inst":"chimes_v0_plucked_130","midi_source":""},{"t":70.764,"note":45,"dur":0.296,"vel":0.709,"inst":"chimes_v0_plucked_130","midi_source":""},{"t":70.764,"note":53,"dur":0.296,"vel":0.709,"inst":"chimes_v0_plucked_130","midi_source":""},{"t":71.06,"note":24,"dur":0.296,"vel":0.709,"inst":"synth_arp_v0_struck_314","midi_source":""},{"t":71.06,"note":41,"dur":0.296,"vel":0.709,"inst":"chimes_v0_plucked_130","midi_source":""},{"t":71.06,"note":42,"dur":0.296,"vel":0.709,"inst":"synth_arp_v0_struck_314","midi_source":""},{"t":71.06,"note":53,"dur":0.296,"vel":0.709,"inst":"chimes_v0_plucked_130","midi_source":""},{"t":71.357,"note":29,"dur":0.593,"vel":0.709,"inst":"chimes_v0_plucked_130","midi_source":""},{"t":71.357,"note":41,"dur":0.296,"vel":0.709,"inst":"chimes_v0_plucked_130","midi_source":""},{"t":71.357,"note":41,"dur":0.296,"vel":0.709,"inst":"chimes_v0_plucked_130","midi_source":""},{"t":71.357,"note":53,"dur":0.593,"vel":0.709,"inst":"chimes_v0_plucked_130","midi_source":""},{"t":72.246,"note":41,"dur":0.296,"vel":0.709,"inst":"chimes_v0_plucked_130","midi_source":""},{"t":72.246,"note":41,"dur":0.296,"vel":0.709,"inst":"chimes_v0_plucked_130","midi_source":""},{"t":72.246,"note":53,"dur":0.296,"vel":0.709,"inst":"chimes_v0_plucked_130","midi_source":""},{"t":72.246,"note":53,"dur":0.296,"vel":0.709,"inst":"chimes_v0_plucked_130","midi_source":""},{"t":72.542,"note":41,"dur":0.296,"vel":0.709,"inst":"chimes_v0_plucked_130","midi_source":""},{"t":72.542,"note":45,"dur":0.296,"vel":0.709,"inst":"chimes_v0_plucked_130","midi_source":""},{"t":72.542,"note":53,"dur":0.296,"vel":0.709,"inst":"chimes_v0_plucked_130","midi_source":""},{"t":72.542,"note":57,"dur":0.296,"vel":0.709,"inst":"chimes_v0_plucked_130","midi_source":""},{"t":72.839,"note":45,"dur":0.296,"vel":0.709,"inst":"chimes_v0_plucked_130","midi_source":""},{"t":72.839,"note":57,"dur":0.296,"vel":0.709,"inst":"chimes_v0_plucked_130","midi_source":""},{"t":73.135,"note":36,"dur":0.296,"vel":0.709,"inst":"synth_arp_v0_struck_314","midi_source":""},{"t":73.135,"note":45,"dur":0.296,"vel":0.709,"inst":"chimes_v0_plucked_130","midi_source":""},{"t":73.135,"note":48,"dur":0.296,"vel":0.709,"inst":"synth_arp_v0_struck_314","midi_source":""},{"t":73.135,"note":57,"dur":0.296,"vel":0.709,"inst":"chimes_v0_plucked_130","midi_source":""},{"t":73.432,"note":41,"dur":0.296,"vel":0.709,"inst":"chimes_v0_plucked_130","midi_source":""},{"t":73.432,"note":45,"dur":0.296,"vel":0.709,"inst":"chimes_v0_plucked_130","midi_source":""},{"t":73.432,"note":53,"dur":0.296,"vel":0.709,"inst":"chimes_v0_plucked_130","midi_source":""},{"t":73.432,"note":57,"dur":0.296,"vel":0.709,"inst":"chimes_v0_plucked_130","midi_source":""},{"t":73.728,"note":41,"dur":0.296,"vel":0.709,"inst":"chimes_v0_plucked_130","midi_source":""},{"t":73.728,"note":53,"dur":0.296,"vel":0.709,"inst":"chimes_v0_plucked_130","midi_source":""},{"t":74.025,"note":41,"dur":0.296,"vel":0.709,"inst":"chimes_v0_plucked_130","midi_source":""},{"t":74.025,"note":41,"dur":0.296,"vel":0.709,"inst":"chimes_v0_plucked_130","midi_source":""},{"t":74.025,"note":53,"dur":0.296,"vel":0.709,"inst":"chimes_v0_plucked_130","midi_source":""},{"t":74.025,"note":53,"dur":0.296,"vel":0.709,"inst":"chimes_v0_plucked_130","midi_source":""},{"t":74.321,"note":33,"dur":0.296,"vel":0.709,"inst":"chimes_v0_plucked_130","midi_source":""},{"t":74.321,"note":45,"dur":0.296,"vel":0.709,"inst":"chimes_v0_plucked_130","midi_source":""},{"t":74.321,"note":50,"dur":0.296,"vel":0.709,"inst":"synth_arp_v0_struck_314","midi_source":""},{"t":74.321,"note":62,"dur":0.296,"vel":0.709,"inst":"synth_arp_v0_struck_314","midi_source":""},{"t":74.617,"note":50,"dur":0.296,"vel":0.709,"inst":"synth_arp_v0_struck_314","midi_source":""},{"t":74.617,"note":62,"dur":0.296,"vel":0.709,"inst":"synth_arp_v0_struck_314","midi_source":""},{"t":74.914,"note":33,"dur":0.296,"vel":0.709,"inst":"chimes_v0_plucked_130","midi_source":""},{"t":74.914,"note":50,"dur":0.296,"vel":0.709,"inst":"synth_arp_v0_struck_314","midi_source":""},{"t":74.914,"note":57,"dur":0.296,"vel":0.709,"inst":"chimes_v0_plucked_130","midi_source":""},{"t":74.914,"note":62,"dur":0.296,"vel":0.709,"inst":"synth_arp_v0_struck_314","midi_source":""},{"t":75.21,"note":41,"dur":0.296,"vel":0.709,"inst":"chimes_v0_plucked_130","midi_source":""},{"t":75.21,"note":48,"dur":0.296,"vel":0.709,"inst":"synth_arp_v0_struck_314","midi_source":""},{"t":75.21,"note":57,"dur":0.593,"vel":0.709,"inst":"chimes_v0_plucked_130","midi_source":""},{"t":75.21,"note":60,"dur":0.296,"vel":0.709,"inst":"synth_arp_v0_struck_314","midi_source":""},{"t":75.507,"note":41,"dur":0.296,"vel":0.709,"inst":"chimes_v0_plucked_130","midi_source":""},{"t":75.507,"note":53,"dur":0.148,"vel":0.709,"inst":"chimes_v0_plucked_130","midi_source":""},{"t":75.507,"note":65,"dur":0.148,"vel":0.709,"inst":"chimes_v0_plucked_130","midi_source":""},{"t":75.655,"note":48,"dur":0.148,"vel":0.709,"inst":"synth_arp_v0_struck_314","midi_source":""},{"t":75.655,"note":60,"dur":0.148,"vel":0.709,"inst":"synth_arp_v0_struck_314","midi_source":""},{"t":75.803,"note":41,"dur":0.296,"vel":0.709,"inst":"chimes_v0_plucked_130","midi_source":""},{"t":75.803,"note":50,"dur":0.148,"vel":0.709,"inst":"synth_arp_v0_struck_314","midi_source":""},{"t":75.803,"note":57,"dur":0.296,"vel":0.709,"inst":"chimes_v0_plucked_130","midi_source":""},{"t":75.803,"note":62,"dur":0.148,"vel":0.709,"inst":"synth_arp_v0_struck_314","midi_source":""},{"t":75.951,"note":45,"dur":0.148,"vel":0.709,"inst":"chimes_v0_plucked_130","midi_source":""},{"t":75.951,"note":57,"dur":0.148,"vel":0.709,"inst":"chimes_v0_plucked_130","midi_source":""},{"t":76.099,"note":41,"dur":0.296,"vel":0.709,"inst":"chimes_v0_plucked_130","midi_source":""},{"t":76.099,"note":48,"dur":0.296,"vel":0.709,"inst":"synth_arp_v0_struck_314","midi_source":""},{"t":76.099,"note":57,"dur":0.296,"vel":0.709,"inst":"chimes_v0_plucked_130","midi_source":""},{"t":76.099,"note":60,"dur":0.296,"vel":0.709,"inst":"synth_arp_v0_struck_314","midi_source":""},{"t":76.396,"note":53,"dur":0.148,"vel":0.709,"inst":"chimes_v0_plucked_130","midi_source":""},{"t":76.396,"note":65,"dur":0.148,"vel":0.709,"inst":"chimes_v0_plucked_130","midi_source":""},{"t":76.544,"note":48,"dur":0.148,"vel":0.709,"inst":"synth_arp_v0_struck_314","midi_source":""},{"t":76.544,"note":60,"dur":0.148,"vel":0.709,"inst":"synth_arp_v0_struck_314","midi_source":""},{"t":76.692,"note":45,"dur":0.148,"vel":0.709,"inst":"chimes_v0_plucked_130","midi_source":""},{"t":76.692,"note":57,"dur":0.148,"vel":0.709,"inst":"chimes_v0_plucked_130","midi_source":""},{"t":76.841,"note":45,"dur":0.148,"vel":0.709,"inst":"chimes_v0_plucked_130","midi_source":""},{"t":76.841,"note":57,"dur":0.148,"vel":0.709,"inst":"chimes_v0_plucked_130","midi_source":""},{"t":76.989,"note":33,"dur":0.296,"vel":0.709,"inst":"chimes_v0_plucked_130","midi_source":""},{"t":76.989,"note":42,"dur":0.296,"vel":0.709,"inst":"synth_arp_v0_struck_314","midi_source":""},{"t":76.989,"note":50,"dur":0.296,"vel":0.709,"inst":"synth_arp_v0_struck_314","midi_source":""},{"t":76.989,"note":54,"dur":0.296,"vel":0.709,"inst":"synth_arp_v0_struck_314","midi_source":""},{"t":77.285,"note":36,"dur":0.296,"vel":0.709,"inst":"synth_arp_v0_struck_314","midi_source":""},{"t":77.285,"note":41,"dur":0.296,"vel":0.709,"inst":"chimes_v0_plucked_130","midi_source":""},{"t":77.285,"note":45,"dur":0.296,"vel":0.709,"inst":"chimes_v0_plucked_130","midi_source":""},{"t":77.285,"note":53,"dur":0.296,"vel":0.709,"inst":"chimes_v0_plucked_130","midi_source":""},{"t":77.582,"note":24,"dur":0.296,"vel":0.709,"inst":"synth_arp_v0_struck_314","midi_source":""},{"t":77.582,"note":41,"dur":0.296,"vel":0.709,"inst":"chimes_v0_plucked_130","midi_source":""},{"t":77.582,"note":42,"dur":0.296,"vel":0.709,"inst":"synth_arp_v0_struck_314","midi_source":""},{"t":77.582,"note":53,"dur":0.296,"vel":0.709,"inst":"chimes_v0_plucked_130","midi_source":""},{"t":77.878,"note":29,"dur":0.593,"vel":0.709,"inst":"chimes_v0_plucked_130","midi_source":""},{"t":77.878,"note":41,"dur":0.296,"vel":0.709,"inst":"chimes_v0_plucked_130","midi_source":""},{"t":77.878,"note":41,"dur":0.296,"vel":0.709,"inst":"chimes_v0_plucked_130","midi_source":""},{"t":77.878,"note":53,"dur":0.593,"vel":0.709,"inst":"chimes_v0_plucked_130","midi_source":""},{"t":78.767,"note":41,"dur":0.296,"vel":0.709,"inst":"chimes_v0_plucked_130","midi_source":""},{"t":78.767,"note":41,"dur":0.296,"vel":0.709,"inst":"chimes_v0_plucked_130","midi_source":""},{"t":78.767,"note":53,"dur":0.296,"vel":0.709,"inst":"chimes_v0_plucked_130","midi_source":""},{"t":78.767,"note":53,"dur":0.296,"vel":0.709,"inst":"chimes_v0_plucked_130","midi_source":""},{"t":79.064,"note":41,"dur":0.296,"vel":0.709,"inst":"chimes_v0_plucked_130","midi_source":""},{"t":79.064,"note":45,"dur":0.296,"vel":0.709,"inst":"chimes_v0_plucked_130","midi_source":""},{"t":79.064,"note":53,"dur":0.296,"vel":0.709,"inst":"chimes_v0_plucked_130","midi_source":""},{"t":79.064,"note":57,"dur":0.296,"vel":0.709,"inst":"chimes_v0_plucked_130","midi_source":""},{"t":79.36,"note":45,"dur":0.296,"vel":0.709,"inst":"chimes_v0_plucked_130","midi_source":""},{"t":79.36,"note":57,"dur":0.296,"vel":0.709,"inst":"chimes_v0_plucked_130","midi_source":""},{"t":79.656,"note":36,"dur":0.296,"vel":0.709,"inst":"synth_arp_v0_struck_314","midi_source":""},{"t":79.656,"note":45,"dur":0.296,"vel":0.709,"inst":"chimes_v0_plucked_130","midi_source":""},{"t":79.656,"note":48,"dur":0.296,"vel":0.709,"inst":"synth_arp_v0_struck_314","midi_source":""},{"t":79.656,"note":57,"dur":0.296,"vel":0.709,"inst":"chimes_v0_plucked_130","midi_source":""},{"t":79.953,"note":41,"dur":0.296,"vel":0.709,"inst":"chimes_v0_plucked_130","midi_source":""},{"t":79.953,"note":45,"dur":0.296,"vel":0.709,"inst":"chimes_v0_plucked_130","midi_source":""},{"t":79.953,"note":53,"dur":0.296,"vel":0.709,"inst":"chimes_v0_plucked_130","midi_source":""},{"t":79.953,"note":57,"dur":0.296,"vel":0.709,"inst":"chimes_v0_plucked_130","midi_source":""},{"t":80.249,"note":41,"dur":0.296,"vel":0.709,"inst":"chimes_v0_plucked_130","midi_source":""},{"t":80.249,"note":53,"dur":0.296,"vel":0.709,"inst":"chimes_v0_plucked_130","midi_source":""},{"t":80.546,"note":41,"dur":0.296,"vel":0.709,"inst":"chimes_v0_plucked_130","midi_source":""},{"t":80.546,"note":41,"dur":0.296,"vel":0.709,"inst":"chimes_v0_plucked_130","midi_source":""},{"t":80.546,"note":53,"dur":0.296,"vel":0.709,"inst":"chimes_v0_plucked_130","midi_source":""},{"t":80.546,"note":53,"dur":0.296,"vel":0.709,"inst":"chimes_v0_plucked_130","midi_source":""},{"t":80.842,"note":33,"dur":0.296,"vel":0.709,"inst":"chimes_v0_plucked_130","midi_source":""},{"t":80.842,"note":45,"dur":0.296,"vel":0.709,"inst":"chimes_v0_plucked_130","midi_source":""},{"t":80.842,"note":50,"dur":0.296,"vel":0.709,"inst":"synth_arp_v0_struck_314","midi_source":""},{"t":80.842,"note":62,"dur":0.296,"vel":0.709,"inst":"synth_arp_v0_struck_314","midi_source":""},{"t":81.139,"note":50,"dur":0.296,"vel":0.709,"inst":"synth_arp_v0_struck_314","midi_source":""},{"t":81.139,"note":62,"dur":0.296,"vel":0.709,"inst":"synth_arp_v0_struck_314","midi_source":""},{"t":81.435,"note":33,"dur":0.296,"vel":0.709,"inst":"chimes_v0_plucked_130","midi_source":""},{"t":81.435,"note":50,"dur":0.296,"vel":0.709,"inst":"synth_arp_v0_struck_314","midi_source":""},{"t":81.435,"note":57,"dur":0.296,"vel":0.709,"inst":"chimes_v0_plucked_130","midi_source":""},{"t":81.435,"note":62,"dur":0.296,"vel":0.709,"inst":"synth_arp_v0_struck_314","midi_source":""},{"t":81.731,"note":41,"dur":0.296,"vel":0.709,"inst":"chimes_v0_plucked_130","midi_source":""},{"t":81.731,"note":48,"dur":0.296,"vel":0.709,"inst":"synth_arp_v0_struck_314","midi_source":""},{"t":81.731,"note":57,"dur":0.593,"vel":0.709,"inst":"chimes_v0_plucked_130","midi_source":""},{"t":81.731,"note":60,"dur":0.296,"vel":0.709,"inst":"synth_arp_v0_struck_314","midi_source":""},{"t":82.028,"note":41,"dur":0.296,"vel":0.709,"inst":"chimes_v0_plucked_130","midi_source":""},{"t":82.028,"note":53,"dur":0.148,"vel":0.709,"inst":"chimes_v0_plucked_130","midi_source":""},{"t":82.028,"note":65,"dur":0.148,"vel":0.709,"inst":"chimes_v0_plucked_130","midi_source":""},{"t":82.176,"note":48,"dur":0.148,"vel":0.709,"inst":"synth_arp_v0_struck_314","midi_source":""},{"t":82.176,"note":60,"dur":0.148,"vel":0.709,"inst":"synth_arp_v0_struck_314","midi_source":""},{"t":82.324,"note":41,"dur":0.296,"vel":0.709,"inst":"chimes_v0_plucked_130","midi_source":""},{"t":82.324,"note":50,"dur":0.148,"vel":0.709,"inst":"synth_arp_v0_struck_314","midi_source":""},{"t":82.324,"note":57,"dur":0.296,"vel":0.709,"inst":"chimes_v0_plucked_130","midi_source":""},{"t":82.324,"note":62,"dur":0.148,"vel":0.709,"inst":"synth_arp_v0_struck_314","midi_source":""},{"t":82.472,"note":45,"dur":0.148,"vel":0.709,"inst":"chimes_v0_plucked_130","midi_source":""},{"t":82.472,"note":57,"dur":0.148,"vel":0.709,"inst":"chimes_v0_plucked_130","midi_source":""},{"t":82.621,"note":41,"dur":0.296,"vel":0.709,"inst":"chimes_v0_plucked_130","midi_source":""},{"t":82.621,"note":48,"dur":0.296,"vel":0.709,"inst":"synth_arp_v0_struck_314","midi_source":""},{"t":82.621,"note":57,"dur":0.296,"vel":0.709,"inst":"chimes_v0_plucked_130","midi_source":""},{"t":82.621,"note":60,"dur":0.296,"vel":0.709,"inst":"synth_arp_v0_struck_314","midi_source":""},{"t":82.917,"note":53,"dur":0.148,"vel":0.709,"inst":"chimes_v0_plucked_130","midi_source":""},{"t":82.917,"note":65,"dur":0.148,"vel":0.709,"inst":"chimes_v0_plucked_130","midi_source":""},{"t":83.065,"note":48,"dur":0.148,"vel":0.709,"inst":"synth_arp_v0_struck_314","midi_source":""},{"t":83.065,"note":60,"dur":0.148,"vel":0.709,"inst":"synth_arp_v0_struck_314","midi_source":""},{"t":83.213,"note":45,"dur":0.148,"vel":0.709,"inst":"chimes_v0_plucked_130","midi_source":""},{"t":83.213,"note":57,"dur":0.148,"vel":0.709,"inst":"chimes_v0_plucked_130","midi_source":""},{"t":83.362,"note":45,"dur":0.148,"vel":0.709,"inst":"chimes_v0_plucked_130","midi_source":""},{"t":83.362,"note":57,"dur":0.148,"vel":0.709,"inst":"chimes_v0_plucked_130","midi_source":""},{"t":83.51,"note":33,"dur":0.296,"vel":0.709,"inst":"chimes_v0_plucked_130","midi_source":""},{"t":83.51,"note":42,"dur":0.296,"vel":0.709,"inst":"synth_arp_v0_struck_314","midi_source":""},{"t":83.51,"note":50,"dur":0.296,"vel":0.709,"inst":"synth_arp_v0_struck_314","midi_source":""},{"t":83.51,"note":54,"dur":0.296,"vel":0.709,"inst":"synth_arp_v0_struck_314","midi_source":""},{"t":83.806,"note":36,"dur":0.296,"vel":0.709,"inst":"synth_arp_v0_struck_314","midi_source":""},{"t":83.806,"note":41,"dur":0.296,"vel":0.709,"inst":"chimes_v0_plucked_130","midi_source":""},{"t":83.806,"note":45,"dur":0.296,"vel":0.709,"inst":"chimes_v0_plucked_130","midi_source":""},{"t":83.806,"note":53,"dur":0.296,"vel":0.709,"inst":"chimes_v0_plucked_130","midi_source":""},{"t":84.103,"note":24,"dur":0.296,"vel":0.709,"inst":"synth_arp_v0_struck_314","midi_source":""},{"t":84.103,"note":41,"dur":0.296,"vel":0.709,"inst":"chimes_v0_plucked_130","midi_source":""},{"t":84.103,"note":42,"dur":0.296,"vel":0.709,"inst":"synth_arp_v0_struck_314","midi_source":""},{"t":84.103,"note":53,"dur":0.296,"vel":0.709,"inst":"chimes_v0_plucked_130","midi_source":""},{"t":84.399,"note":29,"dur":0.593,"vel":0.709,"inst":"chimes_v0_plucked_130","midi_source":""},{"t":84.399,"note":41,"dur":0.296,"vel":0.709,"inst":"chimes_v0_plucked_130","midi_source":""},{"t":84.399,"note":41,"dur":0.296,"vel":0.709,"inst":"chimes_v0_plucked_130","midi_source":""},{"t":84.399,"note":53,"dur":0.593,"vel":0.709,"inst":"chimes_v0_plucked_130","midi_source":""},{"t":85.288,"note":41,"dur":0.296,"vel":0.709,"inst":"chimes_v0_plucked_130","midi_source":""},{"t":85.288,"note":41,"dur":0.296,"vel":0.709,"inst":"chimes_v0_plucked_130","midi_source":""},{"t":85.288,"note":53,"dur":0.296,"vel":0.709,"inst":"chimes_v0_plucked_130","midi_source":""},{"t":85.288,"note":53,"dur":0.296,"vel":0.709,"inst":"chimes_v0_plucked_130","midi_source":""},{"t":85.585,"note":41,"dur":0.296,"vel":0.709,"inst":"chimes_v0_plucked_130","midi_source":""},{"t":85.585,"note":45,"dur":0.296,"vel":0.709,"inst":"chimes_v0_plucked_130","midi_source":""},{"t":85.585,"note":53,"dur":0.296,"vel":0.709,"inst":"chimes_v0_plucked_130","midi_source":""},{"t":85.585,"note":57,"dur":0.296,"vel":0.709,"inst":"chimes_v0_plucked_130","midi_source":""},{"t":85.881,"note":45,"dur":0.296,"vel":0.709,"inst":"chimes_v0_plucked_130","midi_source":""},{"t":85.881,"note":57,"dur":0.296,"vel":0.709,"inst":"chimes_v0_plucked_130","midi_source":""},{"t":86.178,"note":36,"dur":0.296,"vel":0.709,"inst":"synth_arp_v0_struck_314","midi_source":""},{"t":86.178,"note":45,"dur":0.296,"vel":0.709,"inst":"chimes_v0_plucked_130","midi_source":""},{"t":86.178,"note":48,"dur":0.296,"vel":0.709,"inst":"synth_arp_v0_struck_314","midi_source":""},{"t":86.178,"note":57,"dur":0.296,"vel":0.709,"inst":"chimes_v0_plucked_130","midi_source":""},{"t":86.474,"note":41,"dur":0.296,"vel":0.709,"inst":"chimes_v0_plucked_130","midi_source":""},{"t":86.474,"note":45,"dur":0.296,"vel":0.709,"inst":"chimes_v0_plucked_130","midi_source":""},{"t":86.474,"note":53,"dur":0.296,"vel":0.709,"inst":"chimes_v0_plucked_130","midi_source":""},{"t":86.474,"note":57,"dur":0.296,"vel":0.709,"inst":"chimes_v0_plucked_130","midi_source":""},{"t":86.77,"note":41,"dur":0.296,"vel":0.709,"inst":"chimes_v0_plucked_130","midi_source":""},{"t":86.77,"note":53,"dur":0.296,"vel":0.709,"inst":"chimes_v0_plucked_130","midi_source":""},{"t":87.067,"note":41,"dur":0.296,"vel":0.709,"inst":"chimes_v0_plucked_130","midi_source":""},{"t":87.067,"note":41,"dur":0.296,"vel":0.709,"inst":"chimes_v0_plucked_130","midi_source":""},{"t":87.067,"note":53,"dur":0.296,"vel":0.709,"inst":"chimes_v0_plucked_130","midi_source":""},{"t":87.067,"note":53,"dur":0.296,"vel":0.709,"inst":"chimes_v0_plucked_130","midi_source":""},{"t":87.363,"note":33,"dur":0.296,"vel":0.709,"inst":"chimes_v0_plucked_130","midi_source":""},{"t":87.363,"note":45,"dur":0.296,"vel":0.709,"inst":"chimes_v0_plucked_130","midi_source":""},{"t":87.363,"note":50,"dur":0.296,"vel":0.709,"inst":"synth_arp_v0_struck_314","midi_source":""},{"t":87.363,"note":62,"dur":0.296,"vel":0.709,"inst":"synth_arp_v0_struck_314","midi_source":""},{"t":87.66,"note":50,"dur":0.296,"vel":0.709,"inst":"synth_arp_v0_struck_314","midi_source":""},{"t":87.66,"note":62,"dur":0.296,"vel":0.709,"inst":"synth_arp_v0_struck_314","midi_source":""},{"t":87.956,"note":33,"dur":0.296,"vel":0.709,"inst":"chimes_v0_plucked_130","midi_source":""},{"t":87.956,"note":50,"dur":0.296,"vel":0.709,"inst":"synth_arp_v0_struck_314","midi_source":""},{"t":87.956,"note":57,"dur":0.296,"vel":0.709,"inst":"chimes_v0_plucked_130","midi_source":""},{"t":87.956,"note":62,"dur":0.296,"vel":0.709,"inst":"synth_arp_v0_struck_314","midi_source":""},{"t":88.253,"note":41,"dur":0.296,"vel":0.709,"inst":"chimes_v0_plucked_130","midi_source":""},{"t":88.253,"note":48,"dur":0.296,"vel":0.709,"inst":"synth_arp_v0_struck_314","midi_source":""},{"t":88.253,"note":57,"dur":0.593,"vel":0.709,"inst":"chimes_v0_plucked_130","midi_source":""},{"t":88.253,"note":60,"dur":0.296,"vel":0.709,"inst":"synth_arp_v0_struck_314","midi_source":""},{"t":88.549,"note":41,"dur":0.296,"vel":0.709,"inst":"chimes_v0_plucked_130","midi_source":""},{"t":88.549,"note":53,"dur":0.148,"vel":0.709,"inst":"chimes_v0_plucked_130","midi_source":""},{"t":88.549,"note":65,"dur":0.148,"vel":0.709,"inst":"chimes_v0_plucked_130","midi_source":""},{"t":88.697,"note":48,"dur":0.148,"vel":0.709,"inst":"synth_arp_v0_struck_314","midi_source":""},{"t":88.697,"note":60,"dur":0.148,"vel":0.709,"inst":"synth_arp_v0_struck_314","midi_source":""},{"t":88.845,"note":41,"dur":0.296,"vel":0.709,"inst":"chimes_v0_plucked_130","midi_source":""},{"t":88.845,"note":50,"dur":0.148,"vel":0.709,"inst":"synth_arp_v0_struck_314","midi_source":""},{"t":88.845,"note":57,"dur":0.296,"vel":0.709,"inst":"chimes_v0_plucked_130","midi_source":""},{"t":88.845,"note":62,"dur":0.148,"vel":0.709,"inst":"synth_arp_v0_struck_314","midi_source":""},{"t":88.994,"note":45,"dur":0.148,"vel":0.709,"inst":"chimes_v0_plucked_130","midi_source":""},{"t":88.994,"note":57,"dur":0.148,"vel":0.709,"inst":"chimes_v0_plucked_130","midi_source":""},{"t":89.142,"note":41,"dur":0.296,"vel":0.709,"inst":"chimes_v0_plucked_130","midi_source":""},{"t":89.142,"note":48,"dur":0.296,"vel":0.709,"inst":"synth_arp_v0_struck_314","midi_source":""},{"t":89.142,"note":57,"dur":0.296,"vel":0.709,"inst":"chimes_v0_plucked_130","midi_source":""},{"t":89.142,"note":60,"dur":0.296,"vel":0.709,"inst":"synth_arp_v0_struck_314","midi_source":""},{"t":89.438,"note":53,"dur":0.148,"vel":0.709,"inst":"chimes_v0_plucked_130","midi_source":""},{"t":89.438,"note":65,"dur":0.148,"vel":0.709,"inst":"chimes_v0_plucked_130","midi_source":""},{"t":89.586,"note":48,"dur":0.148,"vel":0.709,"inst":"synth_arp_v0_struck_314","midi_source":""},{"t":89.586,"note":60,"dur":0.148,"vel":0.709,"inst":"synth_arp_v0_struck_314","midi_source":""},{"t":89.735,"note":45,"dur":0.148,"vel":0.709,"inst":"chimes_v0_plucked_130","midi_source":""},{"t":89.735,"note":57,"dur":0.148,"vel":0.709,"inst":"chimes_v0_plucked_130","midi_source":""},{"t":89.883,"note":45,"dur":0.148,"vel":0.709,"inst":"chimes_v0_plucked_130","midi_source":""},{"t":89.883,"note":57,"dur":0.148,"vel":0.709,"inst":"chimes_v0_plucked_130","midi_source":""},{"t":90.031,"note":33,"dur":0.296,"vel":0.709,"inst":"chimes_v0_plucked_130","midi_source":""},{"t":90.031,"note":42,"dur":0.296,"vel":0.709,"inst":"synth_arp_v0_struck_314","midi_source":""},{"t":90.031,"note":50,"dur":0.296,"vel":0.709,"inst":"synth_arp_v0_struck_314","midi_source":""},{"t":90.031,"note":54,"dur":0.296,"vel":0.709,"inst":"synth_arp_v0_struck_314","midi_source":""},{"t":90.327,"note":36,"dur":0.296,"vel":0.709,"inst":"synth_arp_v0_struck_314","midi_source":""},{"t":90.327,"note":41,"dur":0.296,"vel":0.709,"inst":"chimes_v0_plucked_130","midi_source":""},{"t":90.327,"note":45,"dur":0.296,"vel":0.709,"inst":"chimes_v0_plucked_130","midi_source":""},{"t":90.327,"note":53,"dur":0.296,"vel":0.709,"inst":"chimes_v0_plucked_130","midi_source":""},{"t":90.624,"note":24,"dur":0.296,"vel":0.709,"inst":"synth_arp_v0_struck_314","midi_source":""},{"t":90.624,"note":41,"dur":0.296,"vel":0.709,"inst":"chimes_v0_plucked_130","midi_source":""},{"t":90.624,"note":42,"dur":0.296,"vel":0.709,"inst":"synth_arp_v0_struck_314","midi_source":""},{"t":90.624,"note":53,"dur":0.296,"vel":0.709,"inst":"chimes_v0_plucked_130","midi_source":""},{"t":90.92,"note":29,"dur":0.593,"vel":0.709,"inst":"chimes_v0_plucked_130","midi_source":""},{"t":90.92,"note":41,"dur":0.296,"vel":0.709,"inst":"chimes_v0_plucked_130","midi_source":""},{"t":90.92,"note":41,"dur":0.296,"vel":0.709,"inst":"chimes_v0_plucked_130","midi_source":""},{"t":90.92,"note":53,"dur":0.593,"vel":0.709,"inst":"chimes_v0_plucked_130","midi_source":""},{"t":91.81,"note":41,"dur":0.296,"vel":0.709,"inst":"chimes_v0_plucked_130","midi_source":""},{"t":91.81,"note":41,"dur":0.296,"vel":0.709,"inst":"chimes_v0_plucked_130","midi_source":""},{"t":91.81,"note":53,"dur":0.296,"vel":0.709,"inst":"chimes_v0_plucked_130","midi_source":""},{"t":91.81,"note":53,"dur":0.296,"vel":0.709,"inst":"chimes_v0_plucked_130","midi_source":""},{"t":92.106,"note":41,"dur":0.296,"vel":0.709,"inst":"chimes_v0_plucked_130","midi_source":""},{"t":92.106,"note":45,"dur":0.296,"vel":0.709,"inst":"chimes_v0_plucked_130","midi_source":""},{"t":92.106,"note":53,"dur":0.296,"vel":0.709,"inst":"chimes_v0_plucked_130","midi_source":""},{"t":92.106,"note":57,"dur":0.296,"vel":0.709,"inst":"chimes_v0_plucked_130","midi_source":""},{"t":92.402,"note":45,"dur":0.296,"vel":0.709,"inst":"chimes_v0_plucked_130","midi_source":""},{"t":92.402,"note":57,"dur":0.296,"vel":0.709,"inst":"chimes_v0_plucked_130","midi_source":""},{"t":92.699,"note":36,"dur":0.296,"vel":0.709,"inst":"synth_arp_v0_struck_314","midi_source":""},{"t":92.699,"note":45,"dur":0.296,"vel":0.709,"inst":"chimes_v0_plucked_130","midi_source":""},{"t":92.699,"note":48,"dur":0.296,"vel":0.709,"inst":"synth_arp_v0_struck_314","midi_source":""},{"t":92.699,"note":57,"dur":0.296,"vel":0.709,"inst":"chimes_v0_plucked_130","midi_source":""},{"t":92.995,"note":41,"dur":0.296,"vel":0.709,"inst":"chimes_v0_plucked_130","midi_source":""},{"t":92.995,"note":45,"dur":0.296,"vel":0.709,"inst":"chimes_v0_plucked_130","midi_source":""},{"t":92.995,"note":53,"dur":0.296,"vel":0.709,"inst":"chimes_v0_plucked_130","midi_source":""},{"t":92.995,"note":57,"dur":0.296,"vel":0.709,"inst":"chimes_v0_plucked_130","midi_source":""},{"t":93.292,"note":41,"dur":0.296,"vel":0.709,"inst":"chimes_v0_plucked_130","midi_source":""},{"t":93.292,"note":53,"dur":0.296,"vel":0.709,"inst":"chimes_v0_plucked_130","midi_source":""},{"t":93.588,"note":41,"dur":0.296,"vel":0.709,"inst":"chimes_v0_plucked_130","midi_source":""},{"t":93.588,"note":41,"dur":0.296,"vel":0.709,"inst":"chimes_v0_plucked_130","midi_source":""},{"t":93.588,"note":53,"dur":0.296,"vel":0.709,"inst":"chimes_v0_plucked_130","midi_source":""},{"t":93.588,"note":53,"dur":0.296,"vel":0.709,"inst":"chimes_v0_plucked_130","midi_source":""},{"t":93.884,"note":33,"dur":0.296,"vel":0.709,"inst":"chimes_v0_plucked_130","midi_source":""},{"t":93.884,"note":45,"dur":0.296,"vel":0.709,"inst":"chimes_v0_plucked_130","midi_source":""},{"t":93.884,"note":50,"dur":0.296,"vel":0.709,"inst":"synth_arp_v0_struck_314","midi_source":""},{"t":93.884,"note":62,"dur":0.296,"vel":0.709,"inst":"synth_arp_v0_struck_314","midi_source":""},{"t":94.181,"note":50,"dur":0.296,"vel":0.709,"inst":"synth_arp_v0_struck_314","midi_source":""},{"t":94.181,"note":62,"dur":0.296,"vel":0.709,"inst":"synth_arp_v0_struck_314","midi_source":""},{"t":94.477,"note":33,"dur":0.296,"vel":0.709,"inst":"chimes_v0_plucked_130","midi_source":""},{"t":94.477,"note":50,"dur":0.296,"vel":0.709,"inst":"synth_arp_v0_struck_314","midi_source":""},{"t":94.477,"note":57,"dur":0.296,"vel":0.709,"inst":"chimes_v0_plucked_130","midi_source":""},{"t":94.477,"note":62,"dur":0.296,"vel":0.709,"inst":"synth_arp_v0_struck_314","midi_source":""},{"t":94.774,"note":41,"dur":0.296,"vel":0.709,"inst":"chimes_v0_plucked_130","midi_source":""},{"t":94.774,"note":48,"dur":0.296,"vel":0.709,"inst":"synth_arp_v0_struck_314","midi_source":""},{"t":94.774,"note":57,"dur":0.593,"vel":0.709,"inst":"chimes_v0_plucked_130","midi_source":""},{"t":94.774,"note":60,"dur":0.296,"vel":0.709,"inst":"synth_arp_v0_struck_314","midi_source":""},{"t":95.07,"note":41,"dur":0.296,"vel":0.709,"inst":"chimes_v0_plucked_130","midi_source":""},{"t":95.07,"note":53,"dur":0.148,"vel":0.709,"inst":"chimes_v0_plucked_130","midi_source":""},{"t":95.07,"note":65,"dur":0.148,"vel":0.709,"inst":"chimes_v0_plucked_130","midi_source":""},{"t":95.218,"note":48,"dur":0.148,"vel":0.709,"inst":"synth_arp_v0_struck_314","midi_source":""},{"t":95.218,"note":60,"dur":0.148,"vel":0.709,"inst":"synth_arp_v0_struck_314","midi_source":""},{"t":95.367,"note":41,"dur":0.296,"vel":0.709,"inst":"chimes_v0_plucked_130","midi_source":""},{"t":95.367,"note":50,"dur":0.148,"vel":0.709,"inst":"synth_arp_v0_struck_314","midi_source":""},{"t":95.367,"note":57,"dur":0.296,"vel":0.709,"inst":"chimes_v0_plucked_130","midi_source":""},{"t":95.367,"note":62,"dur":0.148,"vel":0.709,"inst":"synth_arp_v0_struck_314","midi_source":""},{"t":95.515,"note":45,"dur":0.148,"vel":0.709,"inst":"chimes_v0_plucked_130","midi_source":""},{"t":95.515,"note":57,"dur":0.148,"vel":0.709,"inst":"chimes_v0_plucked_130","midi_source":""},{"t":95.663,"note":41,"dur":0.296,"vel":0.709,"inst":"chimes_v0_plucked_130","midi_source":""},{"t":95.663,"note":48,"dur":0.296,"vel":0.709,"inst":"synth_arp_v0_struck_314","midi_source":""},{"t":95.663,"note":57,"dur":0.296,"vel":0.709,"inst":"chimes_v0_plucked_130","midi_source":""},{"t":95.663,"note":60,"dur":0.296,"vel":0.709,"inst":"synth_arp_v0_struck_314","midi_source":""},{"t":95.959,"note":53,"dur":0.148,"vel":0.709,"inst":"chimes_v0_plucked_130","midi_source":""},{"t":95.959,"note":65,"dur":0.148,"vel":0.709,"inst":"chimes_v0_plucked_130","midi_source":""},{"t":96.108,"note":48,"dur":0.148,"vel":0.709,"inst":"synth_arp_v0_struck_314","midi_source":""},{"t":96.108,"note":60,"dur":0.148,"vel":0.709,"inst":"synth_arp_v0_struck_314","midi_source":""},{"t":96.256,"note":45,"dur":0.148,"vel":0.709,"inst":"chimes_v0_plucked_130","midi_source":""},{"t":96.256,"note":57,"dur":0.148,"vel":0.709,"inst":"chimes_v0_plucked_130","midi_source":""},{"t":96.404,"note":45,"dur":0.148,"vel":0.709,"inst":"chimes_v0_plucked_130","midi_source":""},{"t":96.404,"note":57,"dur":0.148,"vel":0.709,"inst":"chimes_v0_plucked_130","midi_source":""},{"t":96.552,"note":33,"dur":0.296,"vel":0.709,"inst":"chimes_v0_plucked_130","midi_source":""},{"t":96.552,"note":42,"dur":0.296,"vel":0.709,"inst":"synth_arp_v0_struck_314","midi_source":""},{"t":96.552,"note":50,"dur":0.296,"vel":0.709,"inst":"synth_arp_v0_struck_314","midi_source":""},{"t":96.552,"note":54,"dur":0.296,"vel":0.709,"inst":"synth_arp_v0_struck_314","midi_source":""},{"t":96.849,"note":36,"dur":0.296,"vel":0.709,"inst":"synth_arp_v0_struck_314","midi_source":""},{"t":96.849,"note":41,"dur":0.296,"vel":0.709,"inst":"chimes_v0_plucked_130","midi_source":""},{"t":96.849,"note":45,"dur":0.296,"vel":0.709,"inst":"chimes_v0_plucked_130","midi_source":""},{"t":96.849,"note":53,"dur":0.296,"vel":0.709,"inst":"chimes_v0_plucked_130","midi_source":""},{"t":97.145,"note":24,"dur":0.296,"vel":0.709,"inst":"synth_arp_v0_struck_314","midi_source":""},{"t":97.145,"note":41,"dur":0.296,"vel":0.709,"inst":"chimes_v0_plucked_130","midi_source":""},{"t":97.145,"note":42,"dur":0.296,"vel":0.709,"inst":"synth_arp_v0_struck_314","midi_source":""},{"t":97.145,"note":53,"dur":0.296,"vel":0.709,"inst":"chimes_v0_plucked_130","midi_source":""},{"t":97.441,"note":29,"dur":0.593,"vel":0.709,"inst":"chimes_v0_plucked_130","midi_source":""},{"t":97.441,"note":41,"dur":0.296,"vel":0.709,"inst":"chimes_v0_plucked_130","midi_source":""},{"t":97.441,"note":41,"dur":0.296,"vel":0.709,"inst":"chimes_v0_plucked_130","midi_source":""},{"t":97.441,"note":53,"dur":0.593,"vel":0.709,"inst":"chimes_v0_plucked_130","midi_source":""},{"t":98.331,"note":41,"dur":0.296,"vel":0.709,"inst":"chimes_v0_plucked_130","midi_source":""},{"t":98.331,"note":41,"dur":0.296,"vel":0.709,"inst":"chimes_v0_plucked_130","midi_source":""},{"t":98.331,"note":53,"dur":0.296,"vel":0.709,"inst":"chimes_v0_plucked_130","midi_source":""},{"t":98.331,"note":53,"dur":0.296,"vel":0.709,"inst":"chimes_v0_plucked_130","midi_source":""},{"t":98.627,"note":41,"dur":0.296,"vel":0.709,"inst":"chimes_v0_plucked_130","midi_source":""},{"t":98.627,"note":45,"dur":0.296,"vel":0.709,"inst":"chimes_v0_plucked_130","midi_source":""},{"t":98.627,"note":53,"dur":0.296,"vel":0.709,"inst":"chimes_v0_plucked_130","midi_source":""},{"t":98.627,"note":57,"dur":0.296,"vel":0.709,"inst":"chimes_v0_plucked_130","midi_source":""},{"t":98.924,"note":45,"dur":0.296,"vel":0.709,"inst":"chimes_v0_plucked_130","midi_source":""},{"t":98.924,"note":57,"dur":0.296,"vel":0.709,"inst":"chimes_v0_plucked_130","midi_source":""},{"t":99.22,"note":36,"dur":0.296,"vel":0.709,"inst":"synth_arp_v0_struck_314","midi_source":""},{"t":99.22,"note":45,"dur":0.296,"vel":0.709,"inst":"chimes_v0_plucked_130","midi_source":""},{"t":99.22,"note":48,"dur":0.296,"vel":0.709,"inst":"synth_arp_v0_struck_314","midi_source":""},{"t":99.22,"note":57,"dur":0.296,"vel":0.709,"inst":"chimes_v0_plucked_130","midi_source":""},{"t":99.516,"note":41,"dur":0.296,"vel":0.709,"inst":"chimes_v0_plucked_130","midi_source":""},{"t":99.516,"note":45,"dur":0.296,"vel":0.709,"inst":"chimes_v0_plucked_130","midi_source":""},{"t":99.516,"note":53,"dur":0.296,"vel":0.709,"inst":"chimes_v0_plucked_130","midi_source":""},{"t":99.516,"note":57,"dur":0.296,"vel":0.709,"inst":"chimes_v0_plucked_130","midi_source":""},{"t":99.813,"note":41,"dur":0.296,"vel":0.709,"inst":"chimes_v0_plucked_130","midi_source":""},{"t":99.813,"note":53,"dur":0.296,"vel":0.709,"inst":"chimes_v0_plucked_130","midi_source":""},{"t":100.109,"note":41,"dur":0.296,"vel":0.709,"inst":"chimes_v0_plucked_130","midi_source":""},{"t":100.109,"note":41,"dur":0.296,"vel":0.709,"inst":"chimes_v0_plucked_130","midi_source":""},{"t":100.109,"note":53,"dur":0.296,"vel":0.709,"inst":"chimes_v0_plucked_130","midi_source":""},{"t":100.109,"note":53,"dur":0.296,"vel":0.709,"inst":"chimes_v0_plucked_130","midi_source":""},{"t":100.406,"note":33,"dur":0.296,"vel":0.709,"inst":"chimes_v0_plucked_130","midi_source":""},{"t":100.406,"note":45,"dur":0.296,"vel":0.709,"inst":"chimes_v0_plucked_130","midi_source":""},{"t":100.406,"note":50,"dur":0.296,"vel":0.709,"inst":"synth_arp_v0_struck_314","midi_source":""},{"t":100.406,"note":62,"dur":0.296,"vel":0.709,"inst":"synth_arp_v0_struck_314","midi_source":""},{"t":100.702,"note":50,"dur":0.296,"vel":0.709,"inst":"synth_arp_v0_struck_314","midi_source":""},{"t":100.702,"note":62,"dur":0.296,"vel":0.709,"inst":"synth_arp_v0_struck_314","midi_source":""},{"t":100.998,"note":33,"dur":0.296,"vel":0.709,"inst":"chimes_v0_plucked_130","midi_source":""},{"t":100.998,"note":50,"dur":0.296,"vel":0.709,"inst":"synth_arp_v0_struck_314","midi_source":""},{"t":100.998,"note":57,"dur":0.296,"vel":0.709,"inst":"chimes_v0_plucked_130","midi_source":""},{"t":100.998,"note":62,"dur":0.296,"vel":0.709,"inst":"synth_arp_v0_struck_314","midi_source":""},{"t":101.295,"note":41,"dur":0.296,"vel":0.709,"inst":"chimes_v0_plucked_130","midi_source":""},{"t":101.295,"note":48,"dur":0.296,"vel":0.709,"inst":"synth_arp_v0_struck_314","midi_source":""},{"t":101.295,"note":57,"dur":0.593,"vel":0.709,"inst":"chimes_v0_plucked_130","midi_source":""},{"t":101.295,"note":60,"dur":0.296,"vel":0.709,"inst":"synth_arp_v0_struck_314","midi_source":""},{"t":101.591,"note":41,"dur":0.296,"vel":0.709,"inst":"chimes_v0_plucked_130","midi_source":""},{"t":101.591,"note":53,"dur":0.148,"vel":0.709,"inst":"chimes_v0_plucked_130","midi_source":""},{"t":101.591,"note":65,"dur":0.148,"vel":0.709,"inst":"chimes_v0_plucked_130","midi_source":""},{"t":101.739,"note":48,"dur":0.148,"vel":0.709,"inst":"synth_arp_v0_struck_314","midi_source":""},{"t":101.739,"note":60,"dur":0.148,"vel":0.709,"inst":"synth_arp_v0_struck_314","midi_source":""},{"t":101.888,"note":41,"dur":0.296,"vel":0.709,"inst":"chimes_v0_plucked_130","midi_source":""},{"t":101.888,"note":50,"dur":0.148,"vel":0.709,"inst":"synth_arp_v0_struck_314","midi_source":""},{"t":101.888,"note":57,"dur":0.296,"vel":0.709,"inst":"chimes_v0_plucked_130","midi_source":""},{"t":101.888,"note":62,"dur":0.148,"vel":0.709,"inst":"synth_arp_v0_struck_314","midi_source":""},{"t":102.036,"note":45,"dur":0.148,"vel":0.709,"inst":"chimes_v0_plucked_130","midi_source":""},{"t":102.036,"note":57,"dur":0.148,"vel":0.709,"inst":"chimes_v0_plucked_130","midi_source":""},{"t":102.184,"note":41,"dur":0.296,"vel":0.709,"inst":"chimes_v0_plucked_130","midi_source":""},{"t":102.184,"note":48,"dur":0.296,"vel":0.709,"inst":"synth_arp_v0_struck_314","midi_source":""},{"t":102.184,"note":57,"dur":0.296,"vel":0.709,"inst":"chimes_v0_plucked_130","midi_source":""},{"t":102.184,"note":60,"dur":0.296,"vel":0.709,"inst":"synth_arp_v0_struck_314","midi_source":""},{"t":102.481,"note":53,"dur":0.148,"vel":0.709,"inst":"chimes_v0_plucked_130","midi_source":""},{"t":102.481,"note":65,"dur":0.148,"vel":0.709,"inst":"chimes_v0_plucked_130","midi_source":""},{"t":102.629,"note":48,"dur":0.148,"vel":0.709,"inst":"synth_arp_v0_struck_314","midi_source":""},{"t":102.629,"note":60,"dur":0.148,"vel":0.709,"inst":"synth_arp_v0_struck_314","midi_source":""},{"t":102.777,"note":45,"dur":0.148,"vel":0.709,"inst":"chimes_v0_plucked_130","midi_source":""},{"t":102.777,"note":57,"dur":0.148,"vel":0.709,"inst":"chimes_v0_plucked_130","midi_source":""},{"t":102.925,"note":45,"dur":0.148,"vel":0.709,"inst":"chimes_v0_plucked_130","midi_source":""},{"t":102.925,"note":57,"dur":0.148,"vel":0.709,"inst":"chimes_v0_plucked_130","midi_source":""},{"t":103.073,"note":33,"dur":0.296,"vel":0.709,"inst":"chimes_v0_plucked_130","midi_source":""},{"t":103.073,"note":42,"dur":0.296,"vel":0.709,"inst":"synth_arp_v0_struck_314","midi_source":""},{"t":103.073,"note":50,"dur":0.296,"vel":0.709,"inst":"synth_arp_v0_struck_314","midi_source":""},{"t":103.073,"note":54,"dur":0.296,"vel":0.709,"inst":"synth_arp_v0_struck_314","midi_source":""},{"t":103.37,"note":36,"dur":0.296,"vel":0.709,"inst":"synth_arp_v0_struck_314","midi_source":""},{"t":103.37,"note":41,"dur":0.296,"vel":0.709,"inst":"chimes_v0_plucked_130","midi_source":""},{"t":103.37,"note":45,"dur":0.296,"vel":0.709,"inst":"chimes_v0_plucked_130","midi_source":""},{"t":103.37,"note":53,"dur":0.296,"vel":0.709,"inst":"chimes_v0_plucked_130","midi_source":""},{"t":103.666,"note":24,"dur":0.296,"vel":0.709,"inst":"synth_arp_v0_struck_314","midi_source":""},{"t":103.666,"note":41,"dur":0.296,"vel":0.709,"inst":"chimes_v0_plucked_130","midi_source":""},{"t":103.666,"note":42,"dur":0.296,"vel":0.709,"inst":"synth_arp_v0_struck_314","midi_source":""},{"t":103.666,"note":53,"dur":0.296,"vel":0.709,"inst":"chimes_v0_plucked_130","midi_source":""},{"t":103.963,"note":29,"dur":0.593,"vel":0.709,"inst":"chimes_v0_plucked_130","midi_source":""},{"t":103.963,"note":41,"dur":0.296,"vel":0.709,"inst":"chimes_v0_plucked_130","midi_source":""},{"t":103.963,"note":41,"dur":0.296,"vel":0.709,"inst":"chimes_v0_plucked_130","midi_source":""},{"t":103.963,"note":53,"dur":0.593,"vel":0.709,"inst":"chimes_v0_plucked_130","midi_source":""},{"t":104.852,"note":41,"dur":0.296,"vel":0.709,"inst":"chimes_v0_plucked_130","midi_source":""},{"t":104.852,"note":41,"dur":0.296,"vel":0.709,"inst":"chimes_v0_plucked_130","midi_source":""},{"t":104.852,"note":53,"dur":0.296,"vel":0.709,"inst":"chimes_v0_plucked_130","midi_source":""},{"t":104.852,"note":53,"dur":0.296,"vel":0.709,"inst":"chimes_v0_plucked_130","midi_source":""},{"t":105.148,"note":41,"dur":0.296,"vel":0.709,"inst":"chimes_v0_plucked_130","midi_source":""},{"t":105.148,"note":45,"dur":0.296,"vel":0.709,"inst":"chimes_v0_plucked_130","midi_source":""},{"t":105.148,"note":53,"dur":0.296,"vel":0.709,"inst":"chimes_v0_plucked_130","midi_source":""},{"t":105.148,"note":57,"dur":0.296,"vel":0.709,"inst":"chimes_v0_plucked_130","midi_source":""},{"t":105.445,"note":45,"dur":0.296,"vel":0.709,"inst":"chimes_v0_plucked_130","midi_source":""},{"t":105.445,"note":57,"dur":0.296,"vel":0.709,"inst":"chimes_v0_plucked_130","midi_source":""},{"t":105.741,"note":36,"dur":0.296,"vel":0.709,"inst":"synth_arp_v0_struck_314","midi_source":""},{"t":105.741,"note":45,"dur":0.296,"vel":0.709,"inst":"chimes_v0_plucked_130","midi_source":""},{"t":105.741,"note":48,"dur":0.296,"vel":0.709,"inst":"synth_arp_v0_struck_314","midi_source":""},{"t":105.741,"note":57,"dur":0.296,"vel":0.709,"inst":"chimes_v0_plucked_130","midi_source":""},{"t":106.037,"note":41,"dur":0.296,"vel":0.709,"inst":"chimes_v0_plucked_130","midi_source":""},{"t":106.037,"note":45,"dur":0.296,"vel":0.709,"inst":"chimes_v0_plucked_130","midi_source":""},{"t":106.037,"note":53,"dur":0.296,"vel":0.709,"inst":"chimes_v0_plucked_130","midi_source":""},{"t":106.037,"note":57,"dur":0.296,"vel":0.709,"inst":"chimes_v0_plucked_130","midi_source":""},{"t":106.334,"note":41,"dur":0.296,"vel":0.709,"inst":"chimes_v0_plucked_130","midi_source":""},{"t":106.334,"note":53,"dur":0.296,"vel":0.709,"inst":"chimes_v0_plucked_130","midi_source":""},{"t":106.63,"note":41,"dur":0.296,"vel":0.709,"inst":"chimes_v0_plucked_130","midi_source":""},{"t":106.63,"note":41,"dur":0.296,"vel":0.709,"inst":"chimes_v0_plucked_130","midi_source":""},{"t":106.63,"note":53,"dur":0.296,"vel":0.709,"inst":"chimes_v0_plucked_130","midi_source":""},{"t":106.63,"note":53,"dur":0.296,"vel":0.709,"inst":"chimes_v0_plucked_130","midi_source":""},{"t":106.927,"note":33,"dur":0.296,"vel":0.709,"inst":"chimes_v0_plucked_130","midi_source":""},{"t":106.927,"note":45,"dur":0.296,"vel":0.709,"inst":"chimes_v0_plucked_130","midi_source":""},{"t":106.927,"note":50,"dur":0.296,"vel":0.709,"inst":"synth_arp_v0_struck_314","midi_source":""},{"t":106.927,"note":62,"dur":0.296,"vel":0.709,"inst":"synth_arp_v0_struck_314","midi_source":""},{"t":107.223,"note":50,"dur":0.296,"vel":0.709,"inst":"synth_arp_v0_struck_314","midi_source":""},{"t":107.223,"note":62,"dur":0.296,"vel":0.709,"inst":"synth_arp_v0_struck_314","midi_source":""},{"t":107.52,"note":33,"dur":0.296,"vel":0.709,"inst":"chimes_v0_plucked_130","midi_source":""},{"t":107.52,"note":50,"dur":0.296,"vel":0.709,"inst":"synth_arp_v0_struck_314","midi_source":""},{"t":107.52,"note":57,"dur":0.296,"vel":0.709,"inst":"chimes_v0_plucked_130","midi_source":""},{"t":107.52,"note":62,"dur":0.296,"vel":0.709,"inst":"synth_arp_v0_struck_314","midi_source":""},{"t":107.816,"note":41,"dur":0.296,"vel":0.709,"inst":"chimes_v0_plucked_130","midi_source":""},{"t":107.816,"note":48,"dur":0.296,"vel":0.709,"inst":"synth_arp_v0_struck_314","midi_source":""},{"t":107.816,"note":57,"dur":0.593,"vel":0.709,"inst":"chimes_v0_plucked_130","midi_source":""},{"t":107.816,"note":60,"dur":0.296,"vel":0.709,"inst":"synth_arp_v0_struck_314","midi_source":""},{"t":108.112,"note":41,"dur":0.296,"vel":0.709,"inst":"chimes_v0_plucked_130","midi_source":""},{"t":108.112,"note":53,"dur":0.148,"vel":0.709,"inst":"chimes_v0_plucked_130","midi_source":""},{"t":108.112,"note":65,"dur":0.148,"vel":0.709,"inst":"chimes_v0_plucked_130","midi_source":""},{"t":108.261,"note":48,"dur":0.148,"vel":0.709,"inst":"synth_arp_v0_struck_314","midi_source":""},{"t":108.261,"note":60,"dur":0.148,"vel":0.709,"inst":"synth_arp_v0_struck_314","midi_source":""},{"t":108.409,"note":41,"dur":0.296,"vel":0.709,"inst":"chimes_v0_plucked_130","midi_source":""},{"t":108.409,"note":50,"dur":0.148,"vel":0.709,"inst":"synth_arp_v0_struck_314","midi_source":""},{"t":108.409,"note":57,"dur":0.296,"vel":0.709,"inst":"chimes_v0_plucked_130","midi_source":""},{"t":108.409,"note":62,"dur":0.148,"vel":0.709,"inst":"synth_arp_v0_struck_314","midi_source":""},{"t":108.557,"note":45,"dur":0.148,"vel":0.709,"inst":"chimes_v0_plucked_130","midi_source":""},{"t":108.557,"note":57,"dur":0.148,"vel":0.709,"inst":"chimes_v0_plucked_130","midi_source":""},{"t":108.705,"note":41,"dur":0.296,"vel":0.709,"inst":"chimes_v0_plucked_130","midi_source":""},{"t":108.705,"note":48,"dur":0.296,"vel":0.709,"inst":"synth_arp_v0_struck_314","midi_source":""},{"t":108.705,"note":57,"dur":0.296,"vel":0.709,"inst":"chimes_v0_plucked_130","midi_source":""},{"t":108.705,"note":60,"dur":0.296,"vel":0.709,"inst":"synth_arp_v0_struck_314","midi_source":""},{"t":109.002,"note":53,"dur":0.148,"vel":0.709,"inst":"chimes_v0_plucked_130","midi_source":""},{"t":109.002,"note":65,"dur":0.148,"vel":0.709,"inst":"chimes_v0_plucked_130","midi_source":""},{"t":109.15,"note":48,"dur":0.148,"vel":0.709,"inst":"synth_arp_v0_struck_314","midi_source":""},{"t":109.15,"note":60,"dur":0.148,"vel":0.709,"inst":"synth_arp_v0_struck_314","midi_source":""},{"t":109.298,"note":45,"dur":0.148,"vel":0.709,"inst":"chimes_v0_plucked_130","midi_source":""},{"t":109.298,"note":57,"dur":0.148,"vel":0.709,"inst":"chimes_v0_plucked_130","midi_source":""},{"t":109.446,"note":45,"dur":0.148,"vel":0.709,"inst":"chimes_v0_plucked_130","midi_source":""},{"t":109.446,"note":57,"dur":0.148,"vel":0.709,"inst":"chimes_v0_plucked_130","midi_source":""},{"t":109.594,"note":33,"dur":0.296,"vel":0.709,"inst":"chimes_v0_plucked_130","midi_source":""},{"t":109.594,"note":42,"dur":0.296,"vel":0.709,"inst":"synth_arp_v0_struck_314","midi_source":""},{"t":109.594,"note":50,"dur":0.296,"vel":0.709,"inst":"synth_arp_v0_struck_314","midi_source":""},{"t":109.594,"note":54,"dur":0.296,"vel":0.709,"inst":"synth_arp_v0_struck_314","midi_source":""},{"t":109.891,"note":36,"dur":0.296,"vel":0.709,"inst":"synth_arp_v0_struck_314","midi_source":""},{"t":109.891,"note":41,"dur":0.296,"vel":0.709,"inst":"chimes_v0_plucked_130","midi_source":""},{"t":109.891,"note":45,"dur":0.296,"vel":0.709,"inst":"chimes_v0_plucked_130","midi_source":""},{"t":109.891,"note":53,"dur":0.296,"vel":0.709,"inst":"chimes_v0_plucked_130","midi_source":""},{"t":110.187,"note":24,"dur":0.296,"vel":0.709,"inst":"synth_arp_v0_struck_314","midi_source":""},{"t":110.187,"note":41,"dur":0.296,"vel":0.709,"inst":"chimes_v0_plucked_130","midi_source":""},{"t":110.187,"note":42,"dur":0.296,"vel":0.709,"inst":"synth_arp_v0_struck_314","midi_source":""},{"t":110.187,"note":53,"dur":0.296,"vel":0.709,"inst":"chimes_v0_plucked_130","midi_source":""},{"t":110.484,"note":29,"dur":0.593,"vel":0.709,"inst":"chimes_v0_plucked_130","midi_source":""},{"t":110.484,"note":41,"dur":0.296,"vel":0.709,"inst":"chimes_v0_plucked_130","midi_source":""},{"t":110.484,"note":41,"dur":0.296,"vel":0.709,"inst":"chimes_v0_plucked_130","midi_source":""},{"t":110.484,"note":53,"dur":0.593,"vel":0.709,"inst":"chimes_v0_plucked_130","midi_source":""},{"t":111.373,"note":41,"dur":0.296,"vel":0.709,"inst":"chimes_v0_plucked_130","midi_source":""},{"t":111.373,"note":41,"dur":0.296,"vel":0.709,"inst":"chimes_v0_plucked_130","midi_source":""},{"t":111.373,"note":53,"dur":0.296,"vel":0.709,"inst":"chimes_v0_plucked_130","midi_source":""},{"t":111.373,"note":53,"dur":0.296,"vel":0.709,"inst":"chimes_v0_plucked_130","midi_source":""},{"t":111.669,"note":41,"dur":0.296,"vel":0.709,"inst":"chimes_v0_plucked_130","midi_source":""},{"t":111.669,"note":45,"dur":0.296,"vel":0.709,"inst":"chimes_v0_plucked_130","midi_source":""},{"t":111.669,"note":53,"dur":0.296,"vel":0.709,"inst":"chimes_v0_plucked_130","midi_source":""},{"t":111.669,"note":57,"dur":0.296,"vel":0.709,"inst":"chimes_v0_plucked_130","midi_source":""},{"t":111.966,"note":45,"dur":0.296,"vel":0.709,"inst":"chimes_v0_plucked_130","midi_source":""},{"t":111.966,"note":57,"dur":0.296,"vel":0.709,"inst":"chimes_v0_plucked_130","midi_source":""},{"t":112.262,"note":36,"dur":0.296,"vel":0.709,"inst":"synth_arp_v0_struck_314","midi_source":""},{"t":112.262,"note":45,"dur":0.296,"vel":0.709,"inst":"chimes_v0_plucked_130","midi_source":""},{"t":112.262,"note":48,"dur":0.296,"vel":0.709,"inst":"synth_arp_v0_struck_314","midi_source":""},{"t":112.262,"note":57,"dur":0.296,"vel":0.709,"inst":"chimes_v0_plucked_130","midi_source":""},{"t":112.559,"note":41,"dur":0.296,"vel":0.709,"inst":"chimes_v0_plucked_130","midi_source":""},{"t":112.559,"note":45,"dur":0.296,"vel":0.709,"inst":"chimes_v0_plucked_130","midi_source":""},{"t":112.559,"note":53,"dur":0.296,"vel":0.709,"inst":"chimes_v0_plucked_130","midi_source":""},{"t":112.559,"note":57,"dur":0.296,"vel":0.709,"inst":"chimes_v0_plucked_130","midi_source":""},{"t":112.855,"note":41,"dur":0.296,"vel":0.709,"inst":"chimes_v0_plucked_130","midi_source":""},{"t":112.855,"note":53,"dur":0.296,"vel":0.709,"inst":"chimes_v0_plucked_130","midi_source":""},{"t":113.151,"note":41,"dur":0.296,"vel":0.709,"inst":"chimes_v0_plucked_130","midi_source":""},{"t":113.151,"note":41,"dur":0.296,"vel":0.709,"inst":"chimes_v0_plucked_130","midi_source":""},{"t":113.151,"note":53,"dur":0.296,"vel":0.709,"inst":"chimes_v0_plucked_130","midi_source":""},{"t":113.151,"note":53,"dur":0.296,"vel":0.709,"inst":"chimes_v0_plucked_130","midi_source":""},{"t":113.448,"note":33,"dur":0.296,"vel":0.709,"inst":"chimes_v0_plucked_130","midi_source":""},{"t":113.448,"note":45,"dur":0.296,"vel":0.709,"inst":"chimes_v0_plucked_130","midi_source":""},{"t":113.448,"note":50,"dur":0.296,"vel":0.709,"inst":"synth_arp_v0_struck_314","midi_source":""},{"t":113.448,"note":62,"dur":0.296,"vel":0.709,"inst":"synth_arp_v0_struck_314","midi_source":""},{"t":113.744,"note":50,"dur":0.296,"vel":0.709,"inst":"synth_arp_v0_struck_314","midi_source":""},{"t":113.744,"note":62,"dur":0.296,"vel":0.709,"inst":"synth_arp_v0_struck_314","midi_source":""},{"t":114.041,"note":33,"dur":0.296,"vel":0.709,"inst":"chimes_v0_plucked_130","midi_source":""},{"t":114.041,"note":50,"dur":0.296,"vel":0.709,"inst":"synth_arp_v0_struck_314","midi_source":""},{"t":114.041,"note":57,"dur":0.296,"vel":0.709,"inst":"chimes_v0_plucked_130","midi_source":""},{"t":114.041,"note":62,"dur":0.296,"vel":0.709,"inst":"synth_arp_v0_struck_314","midi_source":""},{"t":114.337,"note":41,"dur":0.296,"vel":0.709,"inst":"chimes_v0_plucked_130","midi_source":""},{"t":114.337,"note":48,"dur":0.296,"vel":0.709,"inst":"synth_arp_v0_struck_314","midi_source":""},{"t":114.337,"note":57,"dur":0.593,"vel":0.709,"inst":"chimes_v0_plucked_130","midi_source":""},{"t":114.337,"note":60,"dur":0.296,"vel":0.709,"inst":"synth_arp_v0_struck_314","midi_source":""},{"t":114.634,"note":41,"dur":0.296,"vel":0.709,"inst":"chimes_v0_plucked_130","midi_source":""},{"t":114.634,"note":53,"dur":0.148,"vel":0.709,"inst":"chimes_v0_plucked_130","midi_source":""},{"t":114.634,"note":65,"dur":0.148,"vel":0.709,"inst":"chimes_v0_plucked_130","midi_source":""},{"t":114.782,"note":48,"dur":0.148,"vel":0.709,"inst":"synth_arp_v0_struck_314","midi_source":""},{"t":114.782,"note":60,"dur":0.148,"vel":0.709,"inst":"synth_arp_v0_struck_314","midi_source":""},{"t":114.93,"note":41,"dur":0.296,"vel":0.709,"inst":"chimes_v0_plucked_130","midi_source":""},{"t":114.93,"note":50,"dur":0.148,"vel":0.709,"inst":"synth_arp_v0_struck_314","midi_source":""},{"t":114.93,"note":57,"dur":0.296,"vel":0.709,"inst":"chimes_v0_plucked_130","midi_source":""},{"t":114.93,"note":62,"dur":0.148,"vel":0.709,"inst":"synth_arp_v0_struck_314","midi_source":""},{"t":115.078,"note":45,"dur":0.148,"vel":0.709,"inst":"chimes_v0_plucked_130","midi_source":""},{"t":115.078,"note":57,"dur":0.148,"vel":0.709,"inst":"chimes_v0_plucked_130","midi_source":""},{"t":115.226,"note":41,"dur":0.296,"vel":0.709,"inst":"chimes_v0_plucked_130","midi_source":""},{"t":115.226,"note":48,"dur":0.296,"vel":0.709,"inst":"synth_arp_v0_struck_314","midi_source":""},{"t":115.226,"note":57,"dur":0.296,"vel":0.709,"inst":"chimes_v0_plucked_130","midi_source":""},{"t":115.226,"note":60,"dur":0.296,"vel":0.709,"inst":"synth_arp_v0_struck_314","midi_source":""},{"t":115.523,"note":53,"dur":0.148,"vel":0.709,"inst":"chimes_v0_plucked_130","midi_source":""},{"t":115.523,"note":65,"dur":0.148,"vel":0.709,"inst":"chimes_v0_plucked_130","midi_source":""},{"t":115.671,"note":48,"dur":0.148,"vel":0.709,"inst":"synth_arp_v0_struck_314","midi_source":""},{"t":115.671,"note":60,"dur":0.148,"vel":0.709,"inst":"synth_arp_v0_struck_314","midi_source":""},{"t":115.819,"note":45,"dur":0.148,"vel":0.709,"inst":"chimes_v0_plucked_130","midi_source":""},{"t":115.819,"note":57,"dur":0.148,"vel":0.709,"inst":"chimes_v0_plucked_130","midi_source":""},{"t":115.967,"note":45,"dur":0.148,"vel":0.709,"inst":"chimes_v0_plucked_130","midi_source":""},{"t":115.967,"note":57,"dur":0.148,"vel":0.709,"inst":"chimes_v0_plucked_130","midi_source":""},{"t":116.116,"note":33,"dur":0.296,"vel":0.709,"inst":"chimes_v0_plucked_130","midi_source":""},{"t":116.116,"note":42,"dur":0.296,"vel":0.709,"inst":"synth_arp_v0_struck_314","midi_source":""},{"t":116.116,"note":50,"dur":0.296,"vel":0.709,"inst":"synth_arp_v0_struck_314","midi_source":""},{"t":116.116,"note":54,"dur":0.296,"vel":0.709,"inst":"synth_arp_v0_struck_314","midi_source":""},{"t":116.412,"note":36,"dur":0.296,"vel":0.709,"inst":"synth_arp_v0_struck_314","midi_source":""},{"t":116.412,"note":41,"dur":0.296,"vel":0.709,"inst":"chimes_v0_plucked_130","midi_source":""},{"t":116.412,"note":45,"dur":0.296,"vel":0.709,"inst":"chimes_v0_plucked_130","midi_source":""},{"t":116.412,"note":53,"dur":0.296,"vel":0.709,"inst":"chimes_v0_plucked_130","midi_source":""},{"t":116.708,"note":24,"dur":0.296,"vel":0.709,"inst":"synth_arp_v0_struck_314","midi_source":""},{"t":116.708,"note":41,"dur":0.296,"vel":0.709,"inst":"chimes_v0_plucked_130","midi_source":""},{"t":116.708,"note":42,"dur":0.296,"vel":0.709,"inst":"synth_arp_v0_struck_314","midi_source":""},{"t":116.708,"note":53,"dur":0.296,"vel":0.709,"inst":"chimes_v0_plucked_130","midi_source":""},{"t":117.005,"note":29,"dur":0.593,"vel":0.709,"inst":"chimes_v0_plucked_130","midi_source":""},{"t":117.005,"note":41,"dur":0.296,"vel":0.709,"inst":"chimes_v0_plucked_130","midi_source":""},{"t":117.005,"note":41,"dur":0.296,"vel":0.709,"inst":"chimes_v0_plucked_130","midi_source":""},{"t":117.005,"note":53,"dur":0.593,"vel":0.709,"inst":"chimes_v0_plucked_130","midi_source":""},{"t":117.894,"note":41,"dur":0.296,"vel":0.709,"inst":"chimes_v0_plucked_130","midi_source":""},{"t":117.894,"note":41,"dur":0.296,"vel":0.709,"inst":"chimes_v0_plucked_130","midi_source":""},{"t":117.894,"note":53,"dur":0.296,"vel":0.709,"inst":"chimes_v0_plucked_130","midi_source":""},{"t":117.894,"note":53,"dur":0.296,"vel":0.709,"inst":"chimes_v0_plucked_130","midi_source":""},{"t":118.191,"note":41,"dur":0.296,"vel":0.709,"inst":"chimes_v0_plucked_130","midi_source":""},{"t":118.191,"note":45,"dur":0.296,"vel":0.709,"inst":"chimes_v0_plucked_130","midi_source":""},{"t":118.191,"note":53,"dur":0.296,"vel":0.709,"inst":"chimes_v0_plucked_130","midi_source":""},{"t":118.191,"note":57,"dur":0.296,"vel":0.709,"inst":"chimes_v0_plucked_130","midi_source":""},{"t":118.487,"note":45,"dur":0.296,"vel":0.709,"inst":"chimes_v0_plucked_130","midi_source":""},{"t":118.487,"note":57,"dur":0.296,"vel":0.709,"inst":"chimes_v0_plucked_130","midi_source":""},{"t":118.783,"note":36,"dur":0.296,"vel":0.709,"inst":"synth_arp_v0_struck_314","midi_source":""},{"t":118.783,"note":45,"dur":0.296,"vel":0.709,"inst":"chimes_v0_plucked_130","midi_source":""},{"t":118.783,"note":48,"dur":0.296,"vel":0.709,"inst":"synth_arp_v0_struck_314","midi_source":""},{"t":118.783,"note":57,"dur":0.296,"vel":0.709,"inst":"chimes_v0_plucked_130","midi_source":""},{"t":119.08,"note":41,"dur":0.296,"vel":0.709,"inst":"chimes_v0_plucked_130","midi_source":""},{"t":119.08,"note":45,"dur":0.296,"vel":0.709,"inst":"chimes_v0_plucked_130","midi_source":""},{"t":119.08,"note":53,"dur":0.296,"vel":0.709,"inst":"chimes_v0_plucked_130","midi_source":""},{"t":119.08,"note":57,"dur":0.296,"vel":0.709,"inst":"chimes_v0_plucked_130","midi_source":""},{"t":119.376,"note":41,"dur":0.296,"vel":0.709,"inst":"chimes_v0_plucked_130","midi_source":""},{"t":119.376,"note":53,"dur":0.296,"vel":0.709,"inst":"chimes_v0_plucked_130","midi_source":""},{"t":119.673,"note":41,"dur":0.296,"vel":0.709,"inst":"chimes_v0_plucked_130","midi_source":""},{"t":119.673,"note":41,"dur":0.296,"vel":0.709,"inst":"chimes_v0_plucked_130","midi_source":""},{"t":119.673,"note":53,"dur":0.296,"vel":0.709,"inst":"chimes_v0_plucked_130","midi_source":""},{"t":119.673,"note":53,"dur":0.296,"vel":0.709,"inst":"chimes_v0_plucked_130","midi_source":""},{"t":119.969,"note":33,"dur":0.296,"vel":0.709,"inst":"chimes_v0_plucked_130","midi_source":""},{"t":119.969,"note":45,"dur":0.296,"vel":0.709,"inst":"chimes_v0_plucked_130","midi_source":""},{"t":119.969,"note":50,"dur":0.296,"vel":0.709,"inst":"synth_arp_v0_struck_314","midi_source":""},{"t":119.969,"note":62,"dur":0.296,"vel":0.709,"inst":"synth_arp_v0_struck_314","midi_source":""},{"t":120.265,"note":50,"dur":0.296,"vel":0.709,"inst":"synth_arp_v0_struck_314","midi_source":""},{"t":120.265,"note":62,"dur":0.296,"vel":0.709,"inst":"synth_arp_v0_struck_314","midi_source":""},{"t":120.562,"note":33,"dur":0.296,"vel":0.709,"inst":"chimes_v0_plucked_130","midi_source":""},{"t":120.562,"note":50,"dur":0.296,"vel":0.709,"inst":"synth_arp_v0_struck_314","midi_source":""},{"t":120.562,"note":57,"dur":0.296,"vel":0.709,"inst":"chimes_v0_plucked_130","midi_source":""},{"t":120.562,"note":62,"dur":0.296,"vel":0.709,"inst":"synth_arp_v0_struck_314","midi_source":""},{"t":120.858,"note":41,"dur":0.296,"vel":0.709,"inst":"chimes_v0_plucked_130","midi_source":""},{"t":120.858,"note":48,"dur":0.296,"vel":0.709,"inst":"synth_arp_v0_struck_314","midi_source":""},{"t":120.858,"note":57,"dur":0.593,"vel":0.709,"inst":"chimes_v0_plucked_130","midi_source":""},{"t":120.858,"note":60,"dur":0.296,"vel":0.709,"inst":"synth_arp_v0_struck_314","midi_source":""},{"t":121.155,"note":41,"dur":0.296,"vel":0.709,"inst":"chimes_v0_plucked_130","midi_source":""},{"t":121.155,"note":53,"dur":0.148,"vel":0.709,"inst":"chimes_v0_plucked_130","midi_source":""},{"t":121.155,"note":65,"dur":0.148,"vel":0.709,"inst":"chimes_v0_plucked_130","midi_source":""},{"t":121.303,"note":48,"dur":0.148,"vel":0.709,"inst":"synth_arp_v0_struck_314","midi_source":""},{"t":121.303,"note":60,"dur":0.148,"vel":0.709,"inst":"synth_arp_v0_struck_314","midi_source":""},{"t":121.451,"note":41,"dur":0.296,"vel":0.709,"inst":"chimes_v0_plucked_130","midi_source":""},{"t":121.451,"note":50,"dur":0.148,"vel":0.709,"inst":"synth_arp_v0_struck_314","midi_source":""},{"t":121.451,"note":57,"dur":0.296,"vel":0.709,"inst":"chimes_v0_plucked_130","midi_source":""},{"t":121.451,"note":62,"dur":0.148,"vel":0.709,"inst":"synth_arp_v0_struck_314","midi_source":""},{"t":121.599,"note":45,"dur":0.148,"vel":0.709,"inst":"chimes_v0_plucked_130","midi_source":""},{"t":121.599,"note":57,"dur":0.148,"vel":0.709,"inst":"chimes_v0_plucked_130","midi_source":""},{"t":121.748,"note":41,"dur":0.296,"vel":0.709,"inst":"chimes_v0_plucked_130","midi_source":""},{"t":121.748,"note":48,"dur":0.296,"vel":0.709,"inst":"synth_arp_v0_struck_314","midi_source":""},{"t":121.748,"note":57,"dur":0.296,"vel":0.709,"inst":"chimes_v0_plucked_130","midi_source":""},{"t":121.748,"note":60,"dur":0.296,"vel":0.709,"inst":"synth_arp_v0_struck_314","midi_source":""},{"t":122.044,"note":53,"dur":0.148,"vel":0.709,"inst":"chimes_v0_plucked_130","midi_source":""},{"t":122.044,"note":65,"dur":0.148,"vel":0.709,"inst":"chimes_v0_plucked_130","midi_source":""},{"t":122.192,"note":48,"dur":0.148,"vel":0.709,"inst":"synth_arp_v0_struck_314","midi_source":""},{"t":122.192,"note":60,"dur":0.148,"vel":0.709,"inst":"synth_arp_v0_struck_314","midi_source":""},{"t":122.34,"note":45,"dur":0.148,"vel":0.709,"inst":"chimes_v0_plucked_130","midi_source":""},{"t":122.34,"note":57,"dur":0.148,"vel":0.709,"inst":"chimes_v0_plucked_130","midi_source":""},{"t":122.489,"note":45,"dur":0.148,"vel":0.709,"inst":"chimes_v0_plucked_130","midi_source":""},{"t":122.489,"note":57,"dur":0.148,"vel":0.709,"inst":"chimes_v0_plucked_130","midi_source":""},{"t":122.637,"note":33,"dur":0.296,"vel":0.709,"inst":"chimes_v0_plucked_130","midi_source":""},{"t":122.637,"note":42,"dur":0.296,"vel":0.709,"inst":"synth_arp_v0_struck_314","midi_source":""},{"t":122.637,"note":50,"dur":0.296,"vel":0.709,"inst":"synth_arp_v0_struck_314","midi_source":""},{"t":122.637,"note":54,"dur":0.296,"vel":0.709,"inst":"synth_arp_v0_struck_314","midi_source":""},{"t":122.933,"note":36,"dur":0.296,"vel":0.709,"inst":"synth_arp_v0_struck_314","midi_source":""},{"t":122.933,"note":41,"dur":0.296,"vel":0.709,"inst":"chimes_v0_plucked_130","midi_source":""},{"t":122.933,"note":45,"dur":0.296,"vel":0.709,"inst":"chimes_v0_plucked_130","midi_source":""},{"t":122.933,"note":53,"dur":0.296,"vel":0.709,"inst":"chimes_v0_plucked_130","midi_source":""},{"t":123.23,"note":24,"dur":0.296,"vel":0.709,"inst":"synth_arp_v0_struck_314","midi_source":""},{"t":123.23,"note":41,"dur":0.296,"vel":0.709,"inst":"chimes_v0_plucked_130","midi_source":""},{"t":123.23,"note":42,"dur":0.296,"vel":0.709,"inst":"synth_arp_v0_struck_314","midi_source":""},{"t":123.23,"note":53,"dur":0.296,"vel":0.709,"inst":"chimes_v0_plucked_130","midi_source":""},{"t":123.526,"note":29,"dur":0.593,"vel":0.709,"inst":"chimes_v0_plucked_130","midi_source":""},{"t":123.526,"note":41,"dur":0.296,"vel":0.709,"inst":"chimes_v0_plucked_130","midi_source":""},{"t":123.526,"note":41,"dur":0.296,"vel":0.709,"inst":"chimes_v0_plucked_130","midi_source":""},{"t":123.526,"note":53,"dur":0.593,"vel":0.709,"inst":"chimes_v0_plucked_130","midi_source":""},{"t":124.415,"note":41,"dur":0.296,"vel":0.709,"inst":"chimes_v0_plucked_130","midi_source":""},{"t":124.415,"note":41,"dur":0.296,"vel":0.709,"inst":"chimes_v0_plucked_130","midi_source":""},{"t":124.415,"note":53,"dur":0.296,"vel":0.709,"inst":"chimes_v0_plucked_130","midi_source":""},{"t":124.415,"note":53,"dur":0.296,"vel":0.709,"inst":"chimes_v0_plucked_130","midi_source":""},{"t":124.712,"note":41,"dur":0.296,"vel":0.709,"inst":"chimes_v0_plucked_130","midi_source":""},{"t":124.712,"note":45,"dur":0.296,"vel":0.709,"inst":"chimes_v0_plucked_130","midi_source":""},{"t":124.712,"note":53,"dur":0.296,"vel":0.709,"inst":"chimes_v0_plucked_130","midi_source":""},{"t":124.712,"note":57,"dur":0.296,"vel":0.709,"inst":"chimes_v0_plucked_130","midi_source":""},{"t":125.008,"note":45,"dur":0.296,"vel":0.709,"inst":"chimes_v0_plucked_130","midi_source":""},{"t":125.008,"note":57,"dur":0.296,"vel":0.709,"inst":"chimes_v0_plucked_130","midi_source":""},{"t":125.305,"note":36,"dur":0.296,"vel":0.709,"inst":"synth_arp_v0_struck_314","midi_source":""},{"t":125.305,"note":45,"dur":0.296,"vel":0.709,"inst":"chimes_v0_plucked_130","midi_source":""},{"t":125.305,"note":48,"dur":0.296,"vel":0.709,"inst":"synth_arp_v0_struck_314","midi_source":""},{"t":125.305,"note":57,"dur":0.296,"vel":0.709,"inst":"chimes_v0_plucked_130","midi_source":""},{"t":125.601,"note":41,"dur":0.296,"vel":0.709,"inst":"chimes_v0_plucked_130","midi_source":""},{"t":125.601,"note":45,"dur":0.296,"vel":0.709,"inst":"chimes_v0_plucked_130","midi_source":""},{"t":125.601,"note":53,"dur":0.296,"vel":0.709,"inst":"chimes_v0_plucked_130","midi_source":""},{"t":125.601,"note":57,"dur":0.296,"vel":0.709,"inst":"chimes_v0_plucked_130","midi_source":""},{"t":125.897,"note":41,"dur":0.296,"vel":0.709,"inst":"chimes_v0_plucked_130","midi_source":""},{"t":125.897,"note":53,"dur":0.296,"vel":0.709,"inst":"chimes_v0_plucked_130","midi_source":""},{"t":126.194,"note":41,"dur":0.296,"vel":0.709,"inst":"chimes_v0_plucked_130","midi_source":""},{"t":126.194,"note":41,"dur":0.296,"vel":0.709,"inst":"chimes_v0_plucked_130","midi_source":""},{"t":126.194,"note":53,"dur":0.296,"vel":0.709,"inst":"chimes_v0_plucked_130","midi_source":""},{"t":126.194,"note":53,"dur":0.296,"vel":0.709,"inst":"chimes_v0_plucked_130","midi_source":""},{"t":126.49,"note":33,"dur":0.296,"vel":0.709,"inst":"chimes_v0_plucked_130","midi_source":""},{"t":126.49,"note":45,"dur":0.296,"vel":0.709,"inst":"chimes_v0_plucked_130","midi_source":""},{"t":126.49,"note":50,"dur":0.296,"vel":0.709,"inst":"synth_arp_v0_struck_314","midi_source":""},{"t":126.49,"note":62,"dur":0.296,"vel":0.709,"inst":"synth_arp_v0_struck_314","midi_source":""},{"t":126.787,"note":50,"dur":0.296,"vel":0.709,"inst":"synth_arp_v0_struck_314","midi_source":""},{"t":126.787,"note":62,"dur":0.296,"vel":0.709,"inst":"synth_arp_v0_struck_314","midi_source":""},{"t":127.083,"note":33,"dur":0.296,"vel":0.709,"inst":"chimes_v0_plucked_130","midi_source":""},{"t":127.083,"note":50,"dur":0.296,"vel":0.709,"inst":"synth_arp_v0_struck_314","midi_source":""},{"t":127.083,"note":57,"dur":0.296,"vel":0.709,"inst":"chimes_v0_plucked_130","midi_source":""},{"t":127.083,"note":62,"dur":0.296,"vel":0.709,"inst":"synth_arp_v0_struck_314","midi_source":""},{"t":127.379,"note":41,"dur":0.296,"vel":0.709,"inst":"chimes_v0_plucked_130","midi_source":""},{"t":127.379,"note":48,"dur":0.296,"vel":0.709,"inst":"synth_arp_v0_struck_314","midi_source":""},{"t":127.379,"note":57,"dur":0.593,"vel":0.709,"inst":"chimes_v0_plucked_130","midi_source":""},{"t":127.379,"note":60,"dur":0.296,"vel":0.709,"inst":"synth_arp_v0_struck_314","midi_source":""},{"t":127.676,"note":41,"dur":0.296,"vel":0.709,"inst":"chimes_v0_plucked_130","midi_source":""},{"t":127.676,"note":53,"dur":0.148,"vel":0.709,"inst":"chimes_v0_plucked_130","midi_source":""},{"t":127.676,"note":65,"dur":0.148,"vel":0.709,"inst":"chimes_v0_plucked_130","midi_source":""},{"t":127.824,"note":48,"dur":0.148,"vel":0.709,"inst":"synth_arp_v0_struck_314","midi_source":""},{"t":127.824,"note":60,"dur":0.148,"vel":0.709,"inst":"synth_arp_v0_struck_314","midi_source":""},{"t":127.972,"note":41,"dur":0.296,"vel":0.709,"inst":"chimes_v0_plucked_130","midi_source":""},{"t":127.972,"note":50,"dur":0.148,"vel":0.709,"inst":"synth_arp_v0_struck_314","midi_source":""},{"t":127.972,"note":57,"dur":0.296,"vel":0.709,"inst":"chimes_v0_plucked_130","midi_source":""},{"t":127.972,"note":62,"dur":0.148,"vel":0.709,"inst":"synth_arp_v0_struck_314","midi_source":""},{"t":128.12,"note":45,"dur":0.148,"vel":0.709,"inst":"chimes_v0_plucked_130","midi_source":""},{"t":128.12,"note":57,"dur":0.148,"vel":0.709,"inst":"chimes_v0_plucked_130","midi_source":""},{"t":128.269,"note":41,"dur":0.296,"vel":0.709,"inst":"chimes_v0_plucked_130","midi_source":""},{"t":128.269,"note":48,"dur":0.296,"vel":0.709,"inst":"synth_arp_v0_struck_314","midi_source":""},{"t":128.269,"note":57,"dur":0.296,"vel":0.709,"inst":"chimes_v0_plucked_130","midi_source":""},{"t":128.269,"note":60,"dur":0.296,"vel":0.709,"inst":"synth_arp_v0_struck_314","midi_source":""},{"t":128.565,"note":53,"dur":0.148,"vel":0.709,"inst":"chimes_v0_plucked_130","midi_source":""},{"t":128.565,"note":65,"dur":0.148,"vel":0.709,"inst":"chimes_v0_plucked_130","midi_source":""},{"t":128.713,"note":48,"dur":0.148,"vel":0.709,"inst":"synth_arp_v0_struck_314","midi_source":""},{"t":128.713,"note":60,"dur":0.148,"vel":0.709,"inst":"synth_arp_v0_struck_314","midi_source":""},{"t":128.862,"note":45,"dur":0.148,"vel":0.709,"inst":"chimes_v0_plucked_130","midi_source":""},{"t":128.862,"note":57,"dur":0.148,"vel":0.709,"inst":"chimes_v0_plucked_130","midi_source":""},{"t":129.01,"note":45,"dur":0.148,"vel":0.709,"inst":"chimes_v0_plucked_130","midi_source":""},{"t":129.01,"note":57,"dur":0.148,"vel":0.709,"inst":"chimes_v0_plucked_130","midi_source":""},{"t":129.158,"note":33,"dur":0.296,"vel":0.709,"inst":"chimes_v0_plucked_130","midi_source":""},{"t":129.158,"note":42,"dur":0.296,"vel":0.709,"inst":"synth_arp_v0_struck_314","midi_source":""},{"t":129.158,"note":50,"dur":0.296,"vel":0.709,"inst":"synth_arp_v0_struck_314","midi_source":""},{"t":129.158,"note":54,"dur":0.296,"vel":0.709,"inst":"synth_arp_v0_struck_314","midi_source":""},{"t":129.454,"note":36,"dur":0.296,"vel":0.709,"inst":"synth_arp_v0_struck_314","midi_source":""},{"t":129.454,"note":41,"dur":0.296,"vel":0.709,"inst":"chimes_v0_plucked_130","midi_source":""},{"t":129.454,"note":45,"dur":0.296,"vel":0.709,"inst":"chimes_v0_plucked_130","midi_source":""},{"t":129.454,"note":53,"dur":0.296,"vel":0.709,"inst":"chimes_v0_plucked_130","midi_source":""},{"t":129.751,"note":24,"dur":0.296,"vel":0.709,"inst":"synth_arp_v0_struck_314","midi_source":""},{"t":129.751,"note":41,"dur":0.296,"vel":0.709,"inst":"chimes_v0_plucked_130","midi_source":""},{"t":129.751,"note":42,"dur":0.296,"vel":0.709,"inst":"synth_arp_v0_struck_314","midi_source":""},{"t":129.751,"note":53,"dur":0.296,"vel":0.709,"inst":"chimes_v0_plucked_130","midi_source":""},{"t":130.047,"note":29,"dur":0.593,"vel":0.709,"inst":"chimes_v0_plucked_130","midi_source":""},{"t":130.047,"note":41,"dur":0.296,"vel":0.709,"inst":"chimes_v0_plucked_130","midi_source":""},{"t":130.047,"note":41,"dur":0.296,"vel":0.709,"inst":"chimes_v0_plucked_130","midi_source":""},{"t":130.047,"note":53,"dur":0.593,"vel":0.709,"inst":"chimes_v0_plucked_130","midi_source":""},{"t":130.936,"note":41,"dur":0.296,"vel":0.709,"inst":"chimes_v0_plucked_130","midi_source":""},{"t":130.936,"note":41,"dur":0.296,"vel":0.709,"inst":"chimes_v0_plucked_130","midi_source":""},{"t":130.936,"note":53,"dur":0.296,"vel":0.709,"inst":"chimes_v0_plucked_130","midi_source":""},{"t":130.936,"note":53,"dur":0.296,"vel":0.709,"inst":"chimes_v0_plucked_130","midi_source":""},{"t":131.233,"note":41,"dur":0.296,"vel":0.709,"inst":"chimes_v0_plucked_130","midi_source":""},{"t":131.233,"note":45,"dur":0.296,"vel":0.709,"inst":"chimes_v0_plucked_130","midi_source":""},{"t":131.233,"note":53,"dur":0.296,"vel":0.709,"inst":"chimes_v0_plucked_130","midi_source":""},{"t":131.233,"note":57,"dur":0.296,"vel":0.709,"inst":"chimes_v0_plucked_130","midi_source":""},{"t":131.529,"note":45,"dur":0.296,"vel":0.709,"inst":"chimes_v0_plucked_130","midi_source":""},{"t":131.529,"note":57,"dur":0.296,"vel":0.709,"inst":"chimes_v0_plucked_130","midi_source":""},{"t":131.826,"note":36,"dur":0.296,"vel":0.709,"inst":"synth_arp_v0_struck_314","midi_source":""},{"t":131.826,"note":45,"dur":0.296,"vel":0.709,"inst":"chimes_v0_plucked_130","midi_source":""},{"t":131.826,"note":48,"dur":0.296,"vel":0.709,"inst":"synth_arp_v0_struck_314","midi_source":""},{"t":131.826,"note":57,"dur":0.296,"vel":0.709,"inst":"chimes_v0_plucked_130","midi_source":""},{"t":132.122,"note":41,"dur":0.296,"vel":0.709,"inst":"chimes_v0_plucked_130","midi_source":""},{"t":132.122,"note":45,"dur":0.296,"vel":0.709,"inst":"chimes_v0_plucked_130","midi_source":""},{"t":132.122,"note":53,"dur":0.296,"vel":0.709,"inst":"chimes_v0_plucked_130","midi_source":""},{"t":132.122,"note":57,"dur":0.296,"vel":0.709,"inst":"chimes_v0_plucked_130","midi_source":""},{"t":132.419,"note":41,"dur":0.296,"vel":0.709,"inst":"chimes_v0_plucked_130","midi_source":""},{"t":132.419,"note":53,"dur":0.296,"vel":0.709,"inst":"chimes_v0_plucked_130","midi_source":""},{"t":132.715,"note":41,"dur":0.296,"vel":0.709,"inst":"chimes_v0_plucked_130","midi_source":""},{"t":132.715,"note":41,"dur":0.296,"vel":0.709,"inst":"chimes_v0_plucked_130","midi_source":""},{"t":132.715,"note":53,"dur":0.296,"vel":0.709,"inst":"chimes_v0_plucked_130","midi_source":""},{"t":132.715,"note":53,"dur":0.296,"vel":0.709,"inst":"chimes_v0_plucked_130","midi_source":""},{"t":133.011,"note":33,"dur":0.296,"vel":0.709,"inst":"chimes_v0_plucked_130","midi_source":""},{"t":133.011,"note":45,"dur":0.296,"vel":0.709,"inst":"chimes_v0_plucked_130","midi_source":""},{"t":133.011,"note":50,"dur":0.296,"vel":0.709,"inst":"synth_arp_v0_struck_314","midi_source":""},{"t":133.011,"note":62,"dur":0.296,"vel":0.709,"inst":"synth_arp_v0_struck_314","midi_source":""},{"t":133.308,"note":50,"dur":0.296,"vel":0.709,"inst":"synth_arp_v0_struck_314","midi_source":""},{"t":133.308,"note":62,"dur":0.296,"vel":0.709,"inst":"synth_arp_v0_struck_314","midi_source":""},{"t":133.604,"note":33,"dur":0.296,"vel":0.709,"inst":"chimes_v0_plucked_130","midi_source":""},{"t":133.604,"note":50,"dur":0.296,"vel":0.709,"inst":"synth_arp_v0_struck_314","midi_source":""},{"t":133.604,"note":57,"dur":0.296,"vel":0.709,"inst":"chimes_v0_plucked_130","midi_source":""},{"t":133.604,"note":62,"dur":0.296,"vel":0.709,"inst":"synth_arp_v0_struck_314","midi_source":""},{"t":133.901,"note":41,"dur":0.296,"vel":0.709,"inst":"chimes_v0_plucked_130","midi_source":""},{"t":133.901,"note":48,"dur":0.296,"vel":0.709,"inst":"synth_arp_v0_struck_314","midi_source":""},{"t":133.901,"note":57,"dur":0.593,"vel":0.709,"inst":"chimes_v0_plucked_130","midi_source":""},{"t":133.901,"note":60,"dur":0.296,"vel":0.709,"inst":"synth_arp_v0_struck_314","midi_source":""},{"t":134.197,"note":41,"dur":0.296,"vel":0.709,"inst":"chimes_v0_plucked_130","midi_source":""},{"t":134.197,"note":53,"dur":0.148,"vel":0.709,"inst":"chimes_v0_plucked_130","midi_source":""},{"t":134.197,"note":65,"dur":0.148,"vel":0.709,"inst":"chimes_v0_plucked_130","midi_source":""},{"t":134.345,"note":48,"dur":0.148,"vel":0.709,"inst":"synth_arp_v0_struck_314","midi_source":""},{"t":134.345,"note":60,"dur":0.148,"vel":0.709,"inst":"synth_arp_v0_struck_314","midi_source":""},{"t":134.493,"note":41,"dur":0.296,"vel":0.709,"inst":"chimes_v0_plucked_130","midi_source":""},{"t":134.493,"note":50,"dur":0.148,"vel":0.709,"inst":"synth_arp_v0_struck_314","midi_source":""},{"t":134.493,"note":57,"dur":0.296,"vel":0.709,"inst":"chimes_v0_plucked_130","midi_source":""},{"t":134.493,"note":62,"dur":0.148,"vel":0.709,"inst":"synth_arp_v0_struck_314","midi_source":""},{"t":134.642,"note":45,"dur":0.148,"vel":0.709,"inst":"chimes_v0_plucked_130","midi_source":""},{"t":134.642,"note":57,"dur":0.148,"vel":0.709,"inst":"chimes_v0_plucked_130","midi_source":""},{"t":134.79,"note":41,"dur":0.296,"vel":0.709,"inst":"chimes_v0_plucked_130","midi_source":""},{"t":134.79,"note":48,"dur":0.296,"vel":0.709,"inst":"synth_arp_v0_struck_314","midi_source":""},{"t":134.79,"note":57,"dur":0.296,"vel":0.709,"inst":"chimes_v0_plucked_130","midi_source":""},{"t":134.79,"note":60,"dur":0.296,"vel":0.709,"inst":"synth_arp_v0_struck_314","midi_source":""},{"t":135.086,"note":53,"dur":0.148,"vel":0.709,"inst":"chimes_v0_plucked_130","midi_source":""},{"t":135.086,"note":65,"dur":0.148,"vel":0.709,"inst":"chimes_v0_plucked_130","midi_source":""},{"t":135.234,"note":48,"dur":0.148,"vel":0.709,"inst":"synth_arp_v0_struck_314","midi_source":""},{"t":135.234,"note":60,"dur":0.148,"vel":0.709,"inst":"synth_arp_v0_struck_314","midi_source":""},{"t":135.383,"note":45,"dur":0.148,"vel":0.709,"inst":"chimes_v0_plucked_130","midi_source":""},{"t":135.383,"note":57,"dur":0.148,"vel":0.709,"inst":"chimes_v0_plucked_130","midi_source":""},{"t":135.531,"note":45,"dur":0.148,"vel":0.709,"inst":"chimes_v0_plucked_130","midi_source":""},{"t":135.531,"note":57,"dur":0.148,"vel":0.709,"inst":"chimes_v0_plucked_130","midi_source":""},{"t":135.679,"note":33,"dur":0.296,"vel":0.709,"inst":"chimes_v0_plucked_130","midi_source":""},{"t":135.679,"note":42,"dur":0.296,"vel":0.709,"inst":"synth_arp_v0_struck_314","midi_source":""},{"t":135.679,"note":50,"dur":0.296,"vel":0.709,"inst":"synth_arp_v0_struck_314","midi_source":""},{"t":135.679,"note":54,"dur":0.296,"vel":0.709,"inst":"synth_arp_v0_struck_314","midi_source":""},{"t":135.976,"note":36,"dur":0.296,"vel":0.709,"inst":"synth_arp_v0_struck_314","midi_source":""},{"t":135.976,"note":41,"dur":0.296,"vel":0.709,"inst":"chimes_v0_plucked_130","midi_source":""},{"t":135.976,"note":45,"dur":0.296,"vel":0.709,"inst":"chimes_v0_plucked_130","midi_source":""},{"t":135.976,"note":53,"dur":0.296,"vel":0.709,"inst":"chimes_v0_plucked_130","midi_source":""},{"t":136.272,"note":24,"dur":0.296,"vel":0.709,"inst":"synth_arp_v0_struck_314","midi_source":""},{"t":136.272,"note":41,"dur":0.296,"vel":0.709,"inst":"chimes_v0_plucked_130","midi_source":""},{"t":136.272,"note":42,"dur":0.296,"vel":0.709,"inst":"synth_arp_v0_struck_314","midi_source":""},{"t":136.272,"note":53,"dur":0.296,"vel":0.709,"inst":"chimes_v0_plucked_130","midi_source":""},{"t":136.568,"note":29,"dur":0.593,"vel":0.709,"inst":"chimes_v0_plucked_130","midi_source":""},{"t":136.568,"note":41,"dur":0.296,"vel":0.709,"inst":"chimes_v0_plucked_130","midi_source":""},{"t":136.568,"note":41,"dur":0.296,"vel":0.709,"inst":"chimes_v0_plucked_130","midi_source":""},{"t":136.568,"note":53,"dur":0.593,"vel":0.709,"inst":"chimes_v0_plucked_130","midi_source":""},{"t":137.458,"note":41,"dur":0.296,"vel":0.709,"inst":"chimes_v0_plucked_130","midi_source":""},{"t":137.458,"note":41,"dur":0.296,"vel":0.709,"inst":"chimes_v0_plucked_130","midi_source":""},{"t":137.458,"note":53,"dur":0.296,"vel":0.709,"inst":"chimes_v0_plucked_130","midi_source":""},{"t":137.458,"note":53,"dur":0.296,"vel":0.709,"inst":"chimes_v0_plucked_130","midi_source":""},{"t":137.754,"note":41,"dur":0.296,"vel":0.709,"inst":"chimes_v0_plucked_130","midi_source":""},{"t":137.754,"note":45,"dur":0.296,"vel":0.709,"inst":"chimes_v0_plucked_130","midi_source":""},{"t":137.754,"note":53,"dur":0.296,"vel":0.709,"inst":"chimes_v0_plucked_130","midi_source":""},{"t":137.754,"note":57,"dur":0.296,"vel":0.709,"inst":"chimes_v0_plucked_130","midi_source":""},{"t":138.05,"note":45,"dur":0.296,"vel":0.709,"inst":"chimes_v0_plucked_130","midi_source":""},{"t":138.05,"note":57,"dur":0.296,"vel":0.709,"inst":"chimes_v0_plucked_130","midi_source":""},{"t":138.347,"note":36,"dur":0.296,"vel":0.709,"inst":"synth_arp_v0_struck_314","midi_source":""},{"t":138.347,"note":45,"dur":0.296,"vel":0.709,"inst":"chimes_v0_plucked_130","midi_source":""},{"t":138.347,"note":48,"dur":0.296,"vel":0.709,"inst":"synth_arp_v0_struck_314","midi_source":""},{"t":138.347,"note":57,"dur":0.296,"vel":0.709,"inst":"chimes_v0_plucked_130","midi_source":""},{"t":138.643,"note":41,"dur":0.296,"vel":0.709,"inst":"chimes_v0_plucked_130","midi_source":""},{"t":138.643,"note":45,"dur":0.296,"vel":0.709,"inst":"chimes_v0_plucked_130","midi_source":""},{"t":138.643,"note":53,"dur":0.296,"vel":0.709,"inst":"chimes_v0_plucked_130","midi_source":""},{"t":138.643,"note":57,"dur":0.296,"vel":0.709,"inst":"chimes_v0_plucked_130","midi_source":""},{"t":138.94,"note":41,"dur":0.296,"vel":0.709,"inst":"chimes_v0_plucked_130","midi_source":""},{"t":138.94,"note":53,"dur":0.296,"vel":0.709,"inst":"chimes_v0_plucked_130","midi_source":""},{"t":139.236,"note":41,"dur":0.296,"vel":0.709,"inst":"chimes_v0_plucked_130","midi_source":""},{"t":139.236,"note":41,"dur":0.296,"vel":0.709,"inst":"chimes_v0_plucked_130","midi_source":""},{"t":139.236,"note":53,"dur":0.296,"vel":0.709,"inst":"chimes_v0_plucked_130","midi_source":""},{"t":139.236,"note":53,"dur":0.296,"vel":0.709,"inst":"chimes_v0_plucked_130","midi_source":""},{"t":139.532,"note":33,"dur":0.296,"vel":0.709,"inst":"chimes_v0_plucked_130","midi_source":""},{"t":139.532,"note":45,"dur":0.296,"vel":0.709,"inst":"chimes_v0_plucked_130","midi_source":""},{"t":139.532,"note":50,"dur":0.296,"vel":0.709,"inst":"synth_arp_v0_struck_314","midi_source":""},{"t":139.532,"note":62,"dur":0.296,"vel":0.709,"inst":"synth_arp_v0_struck_314","midi_source":""},{"t":139.829,"note":50,"dur":0.296,"vel":0.709,"inst":"synth_arp_v0_struck_314","midi_source":""},{"t":139.829,"note":62,"dur":0.296,"vel":0.709,"inst":"synth_arp_v0_struck_314","midi_source":""},{"t":140.125,"note":33,"dur":0.296,"vel":0.709,"inst":"chimes_v0_plucked_130","midi_source":""},{"t":140.125,"note":50,"dur":0.296,"vel":0.709,"inst":"synth_arp_v0_struck_314","midi_source":""},{"t":140.125,"note":57,"dur":0.296,"vel":0.709,"inst":"chimes_v0_plucked_130","midi_source":""},{"t":140.125,"note":62,"dur":0.296,"vel":0.709,"inst":"synth_arp_v0_struck_314","midi_source":""},{"t":140.422,"note":41,"dur":0.296,"vel":0.709,"inst":"chimes_v0_plucked_130","midi_source":""},{"t":140.422,"note":48,"dur":0.296,"vel":0.709,"inst":"synth_arp_v0_struck_314","midi_source":""},{"t":140.422,"note":57,"dur":0.593,"vel":0.709,"inst":"chimes_v0_plucked_130","midi_source":""},{"t":140.422,"note":60,"dur":0.296,"vel":0.709,"inst":"synth_arp_v0_struck_314","midi_source":""},{"t":140.718,"note":41,"dur":0.296,"vel":0.709,"inst":"chimes_v0_plucked_130","midi_source":""},{"t":140.718,"note":53,"dur":0.148,"vel":0.709,"inst":"chimes_v0_plucked_130","midi_source":""},{"t":140.718,"note":65,"dur":0.148,"vel":0.709,"inst":"chimes_v0_plucked_130","midi_source":""},{"t":140.866,"note":48,"dur":0.148,"vel":0.709,"inst":"synth_arp_v0_struck_314","midi_source":""},{"t":140.866,"note":60,"dur":0.148,"vel":0.709,"inst":"synth_arp_v0_struck_314","midi_source":""},{"t":141.015,"note":41,"dur":0.296,"vel":0.709,"inst":"chimes_v0_plucked_130","midi_source":""},{"t":141.015,"note":50,"dur":0.148,"vel":0.709,"inst":"synth_arp_v0_struck_314","midi_source":""},{"t":141.015,"note":57,"dur":0.296,"vel":0.709,"inst":"chimes_v0_plucked_130","midi_source":""},{"t":141.015,"note":62,"dur":0.148,"vel":0.709,"inst":"synth_arp_v0_struck_314","midi_source":""},{"t":141.163,"note":45,"dur":0.148,"vel":0.709,"inst":"chimes_v0_plucked_130","midi_source":""},{"t":141.163,"note":57,"dur":0.148,"vel":0.709,"inst":"chimes_v0_plucked_130","midi_source":""},{"t":141.311,"note":41,"dur":0.296,"vel":0.709,"inst":"chimes_v0_plucked_130","midi_source":""},{"t":141.311,"note":48,"dur":0.296,"vel":0.709,"inst":"synth_arp_v0_struck_314","midi_source":""},{"t":141.311,"note":57,"dur":0.296,"vel":0.709,"inst":"chimes_v0_plucked_130","midi_source":""},{"t":141.311,"note":60,"dur":0.296,"vel":0.709,"inst":"synth_arp_v0_struck_314","midi_source":""},{"t":141.607,"note":53,"dur":0.148,"vel":0.709,"inst":"chimes_v0_plucked_130","midi_source":""},{"t":141.607,"note":65,"dur":0.148,"vel":0.709,"inst":"chimes_v0_plucked_130","midi_source":""},{"t":141.756,"note":48,"dur":0.148,"vel":0.709,"inst":"synth_arp_v0_struck_314","midi_source":""},{"t":141.756,"note":60,"dur":0.148,"vel":0.709,"inst":"synth_arp_v0_struck_314","midi_source":""},{"t":141.904,"note":45,"dur":0.148,"vel":0.709,"inst":"chimes_v0_plucked_130","midi_source":""},{"t":141.904,"note":57,"dur":0.148,"vel":0.709,"inst":"chimes_v0_plucked_130","midi_source":""},{"t":142.052,"note":45,"dur":0.148,"vel":0.709,"inst":"chimes_v0_plucked_130","midi_source":""},{"t":142.052,"note":57,"dur":0.148,"vel":0.709,"inst":"chimes_v0_plucked_130","midi_source":""},{"t":142.2,"note":33,"dur":0.296,"vel":0.709,"inst":"chimes_v0_plucked_130","midi_source":""},{"t":142.2,"note":42,"dur":0.296,"vel":0.709,"inst":"synth_arp_v0_struck_314","midi_source":""},{"t":142.2,"note":50,"dur":0.296,"vel":0.709,"inst":"synth_arp_v0_struck_314","midi_source":""},{"t":142.2,"note":54,"dur":0.296,"vel":0.709,"inst":"synth_arp_v0_struck_314","midi_source":""},{"t":142.497,"note":36,"dur":0.296,"vel":0.709,"inst":"synth_arp_v0_struck_314","midi_source":""},{"t":142.497,"note":41,"dur":0.296,"vel":0.709,"inst":"chimes_v0_plucked_130","midi_source":""},{"t":142.497,"note":45,"dur":0.296,"vel":0.709,"inst":"chimes_v0_plucked_130","midi_source":""},{"t":142.497,"note":53,"dur":0.296,"vel":0.709,"inst":"chimes_v0_plucked_130","midi_source":""},{"t":142.793,"note":24,"dur":0.296,"vel":0.709,"inst":"synth_arp_v0_struck_314","midi_source":""},{"t":142.793,"note":41,"dur":0.296,"vel":0.709,"inst":"chimes_v0_plucked_130","midi_source":""},{"t":142.793,"note":42,"dur":0.296,"vel":0.709,"inst":"synth_arp_v0_struck_314","midi_source":""},{"t":142.793,"note":53,"dur":0.296,"vel":0.709,"inst":"chimes_v0_plucked_130","midi_source":""},{"t":143.089,"note":29,"dur":0.593,"vel":0.709,"inst":"chimes_v0_plucked_130","midi_source":""},{"t":143.089,"note":41,"dur":0.296,"vel":0.709,"inst":"chimes_v0_plucked_130","midi_source":""},{"t":143.089,"note":41,"dur":0.296,"vel":0.709,"inst":"chimes_v0_plucked_130","midi_source":""},{"t":143.089,"note":53,"dur":0.593,"vel":0.709,"inst":"chimes_v0_plucked_130","midi_source":""},{"t":143.979,"note":41,"dur":0.296,"vel":0.709,"inst":"chimes_v0_plucked_130","midi_source":""},{"t":143.979,"note":41,"dur":0.296,"vel":0.709,"inst":"chimes_v0_plucked_130","midi_source":""},{"t":143.979,"note":53,"dur":0.296,"vel":0.709,"inst":"chimes_v0_plucked_130","midi_source":""},{"t":143.979,"note":53,"dur":0.296,"vel":0.709,"inst":"chimes_v0_plucked_130","midi_source":""},{"t":144.275,"note":41,"dur":0.296,"vel":0.709,"inst":"chimes_v0_plucked_130","midi_source":""},{"t":144.275,"note":45,"dur":0.296,"vel":0.709,"inst":"chimes_v0_plucked_130","midi_source":""},{"t":144.275,"note":53,"dur":0.296,"vel":0.709,"inst":"chimes_v0_plucked_130","midi_source":""},{"t":144.275,"note":57,"dur":0.296,"vel":0.709,"inst":"chimes_v0_plucked_130","midi_source":""},{"t":144.572,"note":45,"dur":0.296,"vel":0.709,"inst":"chimes_v0_plucked_130","midi_source":""},{"t":144.572,"note":57,"dur":0.296,"vel":0.709,"inst":"chimes_v0_plucked_130","midi_source":""},{"t":144.868,"note":36,"dur":0.296,"vel":0.709,"inst":"synth_arp_v0_struck_314","midi_source":""},{"t":144.868,"note":45,"dur":0.296,"vel":0.709,"inst":"chimes_v0_plucked_130","midi_source":""},{"t":144.868,"note":48,"dur":0.296,"vel":0.709,"inst":"synth_arp_v0_struck_314","midi_source":""},{"t":144.868,"note":57,"dur":0.296,"vel":0.709,"inst":"chimes_v0_plucked_130","midi_source":""},{"t":145.164,"note":41,"dur":0.296,"vel":0.709,"inst":"chimes_v0_plucked_130","midi_source":""},{"t":145.164,"note":45,"dur":0.296,"vel":0.709,"inst":"chimes_v0_plucked_130","midi_source":""},{"t":145.164,"note":53,"dur":0.296,"vel":0.709,"inst":"chimes_v0_plucked_130","midi_source":""},{"t":145.164,"note":57,"dur":0.296,"vel":0.709,"inst":"chimes_v0_plucked_130","midi_source":""},{"t":145.461,"note":41,"dur":0.296,"vel":0.709,"inst":"chimes_v0_plucked_130","midi_source":""},{"t":145.461,"note":53,"dur":0.296,"vel":0.709,"inst":"chimes_v0_plucked_130","midi_source":""},{"t":145.757,"note":41,"dur":0.296,"vel":0.709,"inst":"chimes_v0_plucked_130","midi_source":""},{"t":145.757,"note":41,"dur":0.296,"vel":0.709,"inst":"chimes_v0_plucked_130","midi_source":""},{"t":145.757,"note":53,"dur":0.296,"vel":0.709,"inst":"chimes_v0_plucked_130","midi_source":""},{"t":145.757,"note":53,"dur":0.296,"vel":0.709,"inst":"chimes_v0_plucked_130","midi_source":""},{"t":146.054,"note":33,"dur":0.296,"vel":0.709,"inst":"chimes_v0_plucked_130","midi_source":""},{"t":146.054,"note":45,"dur":0.296,"vel":0.709,"inst":"chimes_v0_plucked_130","midi_source":""},{"t":146.054,"note":50,"dur":0.296,"vel":0.709,"inst":"synth_arp_v0_struck_314","midi_source":""},{"t":146.054,"note":62,"dur":0.296,"vel":0.709,"inst":"synth_arp_v0_struck_314","midi_source":""},{"t":146.35,"note":50,"dur":0.296,"vel":0.709,"inst":"synth_arp_v0_struck_314","midi_source":""},{"t":146.35,"note":62,"dur":0.296,"vel":0.709,"inst":"synth_arp_v0_struck_314","midi_source":""},{"t":146.646,"note":33,"dur":0.296,"vel":0.709,"inst":"chimes_v0_plucked_130","midi_source":""},{"t":146.646,"note":50,"dur":0.296,"vel":0.709,"inst":"synth_arp_v0_struck_314","midi_source":""},{"t":146.646,"note":57,"dur":0.296,"vel":0.709,"inst":"chimes_v0_plucked_130","midi_source":""},{"t":146.646,"note":62,"dur":0.296,"vel":0.709,"inst":"synth_arp_v0_struck_314","midi_source":""},{"t":146.943,"note":41,"dur":0.296,"vel":0.709,"inst":"chimes_v0_plucked_130","midi_source":""},{"t":146.943,"note":48,"dur":0.296,"vel":0.709,"inst":"synth_arp_v0_struck_314","midi_source":""},{"t":146.943,"note":57,"dur":0.593,"vel":0.709,"inst":"chimes_v0_plucked_130","midi_source":""},{"t":146.943,"note":60,"dur":0.296,"vel":0.709,"inst":"synth_arp_v0_struck_314","midi_source":""},{"t":147.239,"note":41,"dur":0.296,"vel":0.709,"inst":"chimes_v0_plucked_130","midi_source":""},{"t":147.239,"note":53,"dur":0.148,"vel":0.709,"inst":"chimes_v0_plucked_130","midi_source":""},{"t":147.239,"note":65,"dur":0.148,"vel":0.709,"inst":"chimes_v0_plucked_130","midi_source":""},{"t":147.388,"note":48,"dur":0.148,"vel":0.709,"inst":"synth_arp_v0_struck_314","midi_source":""},{"t":147.388,"note":60,"dur":0.148,"vel":0.709,"inst":"synth_arp_v0_struck_314","midi_source":""},{"t":147.536,"note":41,"dur":0.296,"vel":0.709,"inst":"chimes_v0_plucked_130","midi_source":""},{"t":147.536,"note":50,"dur":0.148,"vel":0.709,"inst":"synth_arp_v0_struck_314","midi_source":""},{"t":147.536,"note":57,"dur":0.296,"vel":0.709,"inst":"chimes_v0_plucked_130","midi_source":""},{"t":147.536,"note":62,"dur":0.148,"vel":0.709,"inst":"synth_arp_v0_struck_314","midi_source":""},{"t":147.684,"note":45,"dur":0.148,"vel":0.709,"inst":"chimes_v0_plucked_130","midi_source":""},{"t":147.684,"note":57,"dur":0.148,"vel":0.709,"inst":"chimes_v0_plucked_130","midi_source":""},{"t":147.832,"note":41,"dur":0.296,"vel":0.709,"inst":"chimes_v0_plucked_130","midi_source":""},{"t":147.832,"note":48,"dur":0.296,"vel":0.709,"inst":"synth_arp_v0_struck_314","midi_source":""},{"t":147.832,"note":57,"dur":0.296,"vel":0.709,"inst":"chimes_v0_plucked_130","midi_source":""},{"t":147.832,"note":60,"dur":0.296,"vel":0.709,"inst":"synth_arp_v0_struck_314","midi_source":""},{"t":148.129,"note":53,"dur":0.148,"vel":0.709,"inst":"chimes_v0_plucked_130","midi_source":""},{"t":148.129,"note":65,"dur":0.148,"vel":0.709,"inst":"chimes_v0_plucked_130","midi_source":""},{"t":148.277,"note":48,"dur":0.148,"vel":0.709,"inst":"synth_arp_v0_struck_314","midi_source":""},{"t":148.277,"note":60,"dur":0.148,"vel":0.709,"inst":"synth_arp_v0_struck_314","midi_source":""},{"t":148.425,"note":45,"dur":0.148,"vel":0.709,"inst":"chimes_v0_plucked_130","midi_source":""},{"t":148.425,"note":57,"dur":0.148,"vel":0.709,"inst":"chimes_v0_plucked_130","midi_source":""},{"t":148.573,"note":45,"dur":0.148,"vel":0.709,"inst":"chimes_v0_plucked_130","midi_source":""},{"t":148.573,"note":57,"dur":0.148,"vel":0.709,"inst":"chimes_v0_plucked_130","midi_source":""},{"t":148.721,"note":33,"dur":0.296,"vel":0.709,"inst":"chimes_v0_plucked_130","midi_source":""},{"t":148.721,"note":42,"dur":0.296,"vel":0.709,"inst":"synth_arp_v0_struck_314","midi_source":""},{"t":148.721,"note":50,"dur":0.296,"vel":0.709,"inst":"synth_arp_v0_struck_314","midi_source":""},{"t":148.721,"note":54,"dur":0.296,"vel":0.709,"inst":"synth_arp_v0_struck_314","midi_source":""},{"t":149.018,"note":36,"dur":0.296,"vel":0.709,"inst":"synth_arp_v0_struck_314","midi_source":""},{"t":149.018,"note":41,"dur":0.296,"vel":0.709,"inst":"chimes_v0_plucked_130","midi_source":""},{"t":149.018,"note":45,"dur":0.296,"vel":0.709,"inst":"chimes_v0_plucked_130","midi_source":""},{"t":149.018,"note":53,"dur":0.296,"vel":0.709,"inst":"chimes_v0_plucked_130","midi_source":""},{"t":149.314,"note":24,"dur":0.296,"vel":0.709,"inst":"synth_arp_v0_struck_314","midi_source":""},{"t":149.314,"note":41,"dur":0.296,"vel":0.709,"inst":"chimes_v0_plucked_130","midi_source":""},{"t":149.314,"note":42,"dur":0.296,"vel":0.709,"inst":"synth_arp_v0_struck_314","midi_source":""},{"t":149.314,"note":53,"dur":0.296,"vel":0.709,"inst":"chimes_v0_plucked_130","midi_source":""},{"t":149.611,"note":29,"dur":0.593,"vel":0.709,"inst":"chimes_v0_plucked_130","midi_source":""},{"t":149.611,"note":41,"dur":0.296,"vel":0.709,"inst":"chimes_v0_plucked_130","midi_source":""},{"t":149.611,"note":41,"dur":0.296,"vel":0.709,"inst":"chimes_v0_plucked_130","midi_source":""},{"t":149.611,"note":53,"dur":0.593,"vel":0.709,"inst":"chimes_v0_plucked_130","midi_source":""},{"t":150.5,"note":41,"dur":0.296,"vel":0.709,"inst":"chimes_v0_plucked_130","midi_source":""},{"t":150.5,"note":41,"dur":0.296,"vel":0.709,"inst":"chimes_v0_plucked_130","midi_source":""},{"t":150.5,"note":53,"dur":0.296,"vel":0.709,"inst":"chimes_v0_plucked_130","midi_source":""},{"t":150.5,"note":53,"dur":0.296,"vel":0.709,"inst":"chimes_v0_plucked_130","midi_source":""},{"t":150.796,"note":41,"dur":0.296,"vel":0.709,"inst":"chimes_v0_plucked_130","midi_source":""},{"t":150.796,"note":45,"dur":0.296,"vel":0.709,"inst":"chimes_v0_plucked_130","midi_source":""},{"t":150.796,"note":53,"dur":0.296,"vel":0.709,"inst":"chimes_v0_plucked_130","midi_source":""},{"t":150.796,"note":57,"dur":0.296,"vel":0.709,"inst":"chimes_v0_plucked_130","midi_source":""},{"t":151.093,"note":45,"dur":0.296,"vel":0.709,"inst":"chimes_v0_plucked_130","midi_source":""},{"t":151.093,"note":57,"dur":0.296,"vel":0.709,"inst":"chimes_v0_plucked_130","midi_source":""},{"t":151.389,"note":36,"dur":0.296,"vel":0.709,"inst":"synth_arp_v0_struck_314","midi_source":""},{"t":151.389,"note":45,"dur":0.296,"vel":0.709,"inst":"chimes_v0_plucked_130","midi_source":""},{"t":151.389,"note":48,"dur":0.296,"vel":0.709,"inst":"synth_arp_v0_struck_314","midi_source":""},{"t":151.389,"note":57,"dur":0.296,"vel":0.709,"inst":"chimes_v0_plucked_130","midi_source":""},{"t":151.686,"note":41,"dur":0.296,"vel":0.709,"inst":"chimes_v0_plucked_130","midi_source":""},{"t":151.686,"note":45,"dur":0.296,"vel":0.709,"inst":"chimes_v0_plucked_130","midi_source":""},{"t":151.686,"note":53,"dur":0.296,"vel":0.709,"inst":"chimes_v0_plucked_130","midi_source":""},{"t":151.686,"note":57,"dur":0.296,"vel":0.709,"inst":"chimes_v0_plucked_130","midi_source":""},{"t":151.982,"note":41,"dur":0.296,"vel":0.709,"inst":"chimes_v0_plucked_130","midi_source":""},{"t":151.982,"note":53,"dur":0.296,"vel":0.709,"inst":"chimes_v0_plucked_130","midi_source":""},{"t":152.278,"note":41,"dur":0.296,"vel":0.709,"inst":"chimes_v0_plucked_130","midi_source":""},{"t":152.278,"note":41,"dur":0.296,"vel":0.709,"inst":"chimes_v0_plucked_130","midi_source":""},{"t":152.278,"note":53,"dur":0.296,"vel":0.709,"inst":"chimes_v0_plucked_130","midi_source":""},{"t":152.278,"note":53,"dur":0.296,"vel":0.709,"inst":"chimes_v0_plucked_130","midi_source":""},{"t":152.575,"note":33,"dur":0.296,"vel":0.709,"inst":"chimes_v0_plucked_130","midi_source":""},{"t":152.575,"note":45,"dur":0.296,"vel":0.709,"inst":"chimes_v0_plucked_130","midi_source":""},{"t":152.575,"note":50,"dur":0.296,"vel":0.709,"inst":"synth_arp_v0_struck_314","midi_source":""},{"t":152.575,"note":62,"dur":0.296,"vel":0.709,"inst":"synth_arp_v0_struck_314","midi_source":""},{"t":152.871,"note":50,"dur":0.296,"vel":0.709,"inst":"synth_arp_v0_struck_314","midi_source":""},{"t":152.871,"note":62,"dur":0.296,"vel":0.709,"inst":"synth_arp_v0_struck_314","midi_source":""},{"t":153.168,"note":33,"dur":0.296,"vel":0.709,"inst":"chimes_v0_plucked_130","midi_source":""},{"t":153.168,"note":50,"dur":0.296,"vel":0.709,"inst":"synth_arp_v0_struck_314","midi_source":""},{"t":153.168,"note":57,"dur":0.296,"vel":0.709,"inst":"chimes_v0_plucked_130","midi_source":""},{"t":153.168,"note":62,"dur":0.296,"vel":0.709,"inst":"synth_arp_v0_struck_314","midi_source":""},{"t":153.464,"note":41,"dur":0.296,"vel":0.709,"inst":"chimes_v0_plucked_130","midi_source":""},{"t":153.464,"note":48,"dur":0.296,"vel":0.709,"inst":"synth_arp_v0_struck_314","midi_source":""},{"t":153.464,"note":57,"dur":0.593,"vel":0.709,"inst":"chimes_v0_plucked_130","midi_source":""},{"t":153.464,"note":60,"dur":0.296,"vel":0.709,"inst":"synth_arp_v0_struck_314","midi_source":""},{"t":153.76,"note":41,"dur":0.296,"vel":0.709,"inst":"chimes_v0_plucked_130","midi_source":""},{"t":153.76,"note":53,"dur":0.148,"vel":0.709,"inst":"chimes_v0_plucked_130","midi_source":""},{"t":153.76,"note":65,"dur":0.148,"vel":0.709,"inst":"chimes_v0_plucked_130","midi_source":""},{"t":153.909,"note":48,"dur":0.148,"vel":0.709,"inst":"synth_arp_v0_struck_314","midi_source":""},{"t":153.909,"note":60,"dur":0.148,"vel":0.709,"inst":"synth_arp_v0_struck_314","midi_source":""},{"t":154.057,"note":41,"dur":0.296,"vel":0.709,"inst":"chimes_v0_plucked_130","midi_source":""},{"t":154.057,"note":50,"dur":0.148,"vel":0.709,"inst":"synth_arp_v0_struck_314","midi_source":""},{"t":154.057,"note":57,"dur":0.296,"vel":0.709,"inst":"chimes_v0_plucked_130","midi_source":""},{"t":154.057,"note":62,"dur":0.148,"vel":0.709,"inst":"synth_arp_v0_struck_314","midi_source":""},{"t":154.205,"note":45,"dur":0.148,"vel":0.709,"inst":"chimes_v0_plucked_130","midi_source":""},{"t":154.205,"note":57,"dur":0.148,"vel":0.709,"inst":"chimes_v0_plucked_130","midi_source":""},{"t":154.353,"note":41,"dur":0.296,"vel":0.709,"inst":"chimes_v0_plucked_130","midi_source":""},{"t":154.353,"note":48,"dur":0.296,"vel":0.709,"inst":"synth_arp_v0_struck_314","midi_source":""},{"t":154.353,"note":57,"dur":0.296,"vel":0.709,"inst":"chimes_v0_plucked_130","midi_source":""},{"t":154.353,"note":60,"dur":0.296,"vel":0.709,"inst":"synth_arp_v0_struck_314","midi_source":""},{"t":154.65,"note":53,"dur":0.148,"vel":0.709,"inst":"chimes_v0_plucked_130","midi_source":""},{"t":154.65,"note":65,"dur":0.148,"vel":0.709,"inst":"chimes_v0_plucked_130","midi_source":""},{"t":154.798,"note":48,"dur":0.148,"vel":0.709,"inst":"synth_arp_v0_struck_314","midi_source":""},{"t":154.798,"note":60,"dur":0.148,"vel":0.709,"inst":"synth_arp_v0_struck_314","midi_source":""},{"t":154.946,"note":45,"dur":0.148,"vel":0.709,"inst":"chimes_v0_plucked_130","midi_source":""},{"t":154.946,"note":57,"dur":0.148,"vel":0.709,"inst":"chimes_v0_plucked_130","midi_source":""},{"t":155.094,"note":45,"dur":0.148,"vel":0.709,"inst":"chimes_v0_plucked_130","midi_source":""},{"t":155.094,"note":57,"dur":0.148,"vel":0.709,"inst":"chimes_v0_plucked_130","midi_source":""},{"t":155.243,"note":33,"dur":0.296,"vel":0.709,"inst":"chimes_v0_plucked_130","midi_source":""},{"t":155.243,"note":42,"dur":0.296,"vel":0.709,"inst":"synth_arp_v0_struck_314","midi_source":""},{"t":155.243,"note":50,"dur":0.296,"vel":0.709,"inst":"synth_arp_v0_struck_314","midi_source":""},{"t":155.243,"note":54,"dur":0.296,"vel":0.709,"inst":"synth_arp_v0_struck_314","midi_source":""},{"t":155.539,"note":36,"dur":0.296,"vel":0.709,"inst":"synth_arp_v0_struck_314","midi_source":""},{"t":155.539,"note":41,"dur":0.296,"vel":0.709,"inst":"chimes_v0_plucked_130","midi_source":""},{"t":155.539,"note":45,"dur":0.296,"vel":0.709,"inst":"chimes_v0_plucked_130","midi_source":""},{"t":155.539,"note":53,"dur":0.296,"vel":0.709,"inst":"chimes_v0_plucked_130","midi_source":""},{"t":155.835,"note":24,"dur":0.296,"vel":0.709,"inst":"synth_arp_v0_struck_314","midi_source":""},{"t":155.835,"note":41,"dur":0.296,"vel":0.709,"inst":"chimes_v0_plucked_130","midi_source":""},{"t":155.835,"note":42,"dur":0.296,"vel":0.709,"inst":"synth_arp_v0_struck_314","midi_source":""},{"t":155.835,"note":53,"dur":0.296,"vel":0.709,"inst":"chimes_v0_plucked_130","midi_source":""},{"t":156.132,"note":29,"dur":0.593,"vel":0.709,"inst":"chimes_v0_plucked_130","midi_source":""},{"t":156.132,"note":41,"dur":0.296,"vel":0.709,"inst":"chimes_v0_plucked_130","midi_source":""},{"t":156.132,"note":41,"dur":0.296,"vel":0.709,"inst":"chimes_v0_plucked_130","midi_source":""},{"t":156.132,"note":53,"dur":0.593,"vel":0.709,"inst":"chimes_v0_plucked_130","midi_source":""},{"t":157.021,"note":41,"dur":0.296,"vel":0.709,"inst":"chimes_v0_plucked_130","midi_source":""},{"t":157.021,"note":41,"dur":0.296,"vel":0.709,"inst":"chimes_v0_plucked_130","midi_source":""},{"t":157.021,"note":53,"dur":0.296,"vel":0.709,"inst":"chimes_v0_plucked_130","midi_source":""},{"t":157.021,"note":53,"dur":0.296,"vel":0.709,"inst":"chimes_v0_plucked_130","midi_source":""},{"t":157.317,"note":41,"dur":0.296,"vel":0.709,"inst":"chimes_v0_plucked_130","midi_source":""},{"t":157.317,"note":45,"dur":0.296,"vel":0.709,"inst":"chimes_v0_plucked_130","midi_source":""},{"t":157.317,"note":53,"dur":0.296,"vel":0.709,"inst":"chimes_v0_plucked_130","midi_source":""},{"t":157.317,"note":57,"dur":0.296,"vel":0.709,"inst":"chimes_v0_plucked_130","midi_source":""},{"t":157.614,"note":45,"dur":0.296,"vel":0.709,"inst":"chimes_v0_plucked_130","midi_source":""},{"t":157.614,"note":57,"dur":0.296,"vel":0.709,"inst":"chimes_v0_plucked_130","midi_source":""},{"t":157.91,"note":36,"dur":0.296,"vel":0.709,"inst":"synth_arp_v0_struck_314","midi_source":""},{"t":157.91,"note":45,"dur":0.296,"vel":0.709,"inst":"chimes_v0_plucked_130","midi_source":""},{"t":157.91,"note":48,"dur":0.296,"vel":0.709,"inst":"synth_arp_v0_struck_314","midi_source":""},{"t":157.91,"note":57,"dur":0.296,"vel":0.709,"inst":"chimes_v0_plucked_130","midi_source":""},{"t":158.207,"note":41,"dur":0.296,"vel":0.709,"inst":"chimes_v0_plucked_130","midi_source":""},{"t":158.207,"note":45,"dur":0.296,"vel":0.709,"inst":"chimes_v0_plucked_130","midi_source":""},{"t":158.207,"note":53,"dur":0.296,"vel":0.709,"inst":"chimes_v0_plucked_130","midi_source":""},{"t":158.207,"note":57,"dur":0.296,"vel":0.709,"inst":"chimes_v0_plucked_130","midi_source":""},{"t":158.503,"note":41,"dur":0.296,"vel":0.709,"inst":"chimes_v0_plucked_130","midi_source":""},{"t":158.503,"note":53,"dur":0.296,"vel":0.709,"inst":"chimes_v0_plucked_130","midi_source":""},{"t":158.8,"note":41,"dur":0.296,"vel":0.709,"inst":"chimes_v0_plucked_130","midi_source":""},{"t":158.8,"note":41,"dur":0.296,"vel":0.709,"inst":"chimes_v0_plucked_130","midi_source":""},{"t":158.8,"note":53,"dur":0.296,"vel":0.709,"inst":"chimes_v0_plucked_130","midi_source":""},{"t":158.8,"note":53,"dur":0.296,"vel":0.709,"inst":"chimes_v0_plucked_130","midi_source":""},{"t":159.096,"note":33,"dur":0.296,"vel":0.709,"inst":"chimes_v0_plucked_130","midi_source":""},{"t":159.096,"note":45,"dur":0.296,"vel":0.709,"inst":"chimes_v0_plucked_130","midi_source":""},{"t":159.096,"note":50,"dur":0.296,"vel":0.709,"inst":"synth_arp_v0_struck_314","midi_source":""},{"t":159.096,"note":62,"dur":0.296,"vel":0.709,"inst":"synth_arp_v0_struck_314","midi_source":""},{"t":159.392,"note":50,"dur":0.296,"vel":0.709,"inst":"synth_arp_v0_struck_314","midi_source":""},{"t":159.392,"note":62,"dur":0.296,"vel":0.709,"inst":"synth_arp_v0_struck_314","midi_source":""},{"t":159.689,"note":33,"dur":0.296,"vel":0.709,"inst":"chimes_v0_plucked_130","midi_source":""},{"t":159.689,"note":50,"dur":0.296,"vel":0.709,"inst":"synth_arp_v0_struck_314","midi_source":""},{"t":159.689,"note":57,"dur":0.296,"vel":0.709,"inst":"chimes_v0_plucked_130","midi_source":""},{"t":159.689,"note":62,"dur":0.296,"vel":0.709,"inst":"synth_arp_v0_struck_314","midi_source":""},{"t":159.985,"note":41,"dur":0.296,"vel":0.709,"inst":"chimes_v0_plucked_130","midi_source":""},{"t":159.985,"note":48,"dur":0.296,"vel":0.709,"inst":"synth_arp_v0_struck_314","midi_source":""},{"t":159.985,"note":57,"dur":0.593,"vel":0.709,"inst":"chimes_v0_plucked_130","midi_source":""},{"t":159.985,"note":60,"dur":0.296,"vel":0.709,"inst":"synth_arp_v0_struck_314","midi_source":""},{"t":160.282,"note":41,"dur":0.296,"vel":0.709,"inst":"chimes_v0_plucked_130","midi_source":""},{"t":160.282,"note":53,"dur":0.148,"vel":0.709,"inst":"chimes_v0_plucked_130","midi_source":""},{"t":160.282,"note":65,"dur":0.148,"vel":0.709,"inst":"chimes_v0_plucked_130","midi_source":""},{"t":160.43,"note":48,"dur":0.148,"vel":0.709,"inst":"synth_arp_v0_struck_314","midi_source":""},{"t":160.43,"note":60,"dur":0.148,"vel":0.709,"inst":"synth_arp_v0_struck_314","midi_source":""},{"t":160.578,"note":41,"dur":0.296,"vel":0.709,"inst":"chimes_v0_plucked_130","midi_source":""},{"t":160.578,"note":50,"dur":0.148,"vel":0.709,"inst":"synth_arp_v0_struck_314","midi_source":""},{"t":160.578,"note":57,"dur":0.296,"vel":0.709,"inst":"chimes_v0_plucked_130","midi_source":""},{"t":160.578,"note":62,"dur":0.148,"vel":0.709,"inst":"synth_arp_v0_struck_314","midi_source":""},{"t":160.726,"note":45,"dur":0.148,"vel":0.709,"inst":"chimes_v0_plucked_130","midi_source":""},{"t":160.726,"note":57,"dur":0.148,"vel":0.709,"inst":"chimes_v0_plucked_130","midi_source":""},{"t":160.874,"note":41,"dur":0.296,"vel":0.709,"inst":"chimes_v0_plucked_130","midi_source":""},{"t":160.874,"note":48,"dur":0.296,"vel":0.709,"inst":"synth_arp_v0_struck_314","midi_source":""},{"t":160.874,"note":57,"dur":0.296,"vel":0.709,"inst":"chimes_v0_plucked_130","midi_source":""},{"t":160.874,"note":60,"dur":0.296,"vel":0.709,"inst":"synth_arp_v0_struck_314","midi_source":""},{"t":161.171,"note":53,"dur":0.148,"vel":0.709,"inst":"chimes_v0_plucked_130","midi_source":""},{"t":161.171,"note":65,"dur":0.148,"vel":0.709,"inst":"chimes_v0_plucked_130","midi_source":""},{"t":161.319,"note":48,"dur":0.148,"vel":0.709,"inst":"synth_arp_v0_struck_314","midi_source":""},{"t":161.319,"note":60,"dur":0.148,"vel":0.709,"inst":"synth_arp_v0_struck_314","midi_source":""},{"t":161.467,"note":45,"dur":0.148,"vel":0.709,"inst":"chimes_v0_plucked_130","midi_source":""},{"t":161.467,"note":57,"dur":0.148,"vel":0.709,"inst":"chimes_v0_plucked_130","midi_source":""},{"t":161.615,"note":45,"dur":0.148,"vel":0.709,"inst":"chimes_v0_plucked_130","midi_source":""},{"t":161.615,"note":57,"dur":0.148,"vel":0.709,"inst":"chimes_v0_plucked_130","midi_source":""},{"t":161.764,"note":33,"dur":0.296,"vel":0.709,"inst":"chimes_v0_plucked_130","midi_source":""},{"t":161.764,"note":42,"dur":0.296,"vel":0.709,"inst":"synth_arp_v0_struck_314","midi_source":""},{"t":161.764,"note":50,"dur":0.296,"vel":0.709,"inst":"synth_arp_v0_struck_314","midi_source":""},{"t":161.764,"note":54,"dur":0.296,"vel":0.709,"inst":"synth_arp_v0_struck_314","midi_source":""},{"t":162.06,"note":36,"dur":0.296,"vel":0.709,"inst":"synth_arp_v0_struck_314","midi_source":""},{"t":162.06,"note":41,"dur":0.296,"vel":0.709,"inst":"chimes_v0_plucked_130","midi_source":""},{"t":162.06,"note":45,"dur":0.296,"vel":0.709,"inst":"chimes_v0_plucked_130","midi_source":""},{"t":162.06,"note":53,"dur":0.296,"vel":0.709,"inst":"chimes_v0_plucked_130","midi_source":""},{"t":162.357,"note":24,"dur":0.296,"vel":0.709,"inst":"synth_arp_v0_struck_314","midi_source":""},{"t":162.357,"note":41,"dur":0.296,"vel":0.709,"inst":"chimes_v0_plucked_130","midi_source":""},{"t":162.357,"note":42,"dur":0.296,"vel":0.709,"inst":"synth_arp_v0_struck_314","midi_source":""},{"t":162.357,"note":53,"dur":0.296,"vel":0.709,"inst":"chimes_v0_plucked_130","midi_source":""},{"t":162.653,"note":29,"dur":0.593,"vel":0.709,"inst":"chimes_v0_plucked_130","midi_source":""},{"t":162.653,"note":41,"dur":0.296,"vel":0.709,"inst":"chimes_v0_plucked_130","midi_source":""},{"t":162.653,"note":41,"dur":0.296,"vel":0.709,"inst":"chimes_v0_plucked_130","midi_source":""},{"t":162.653,"note":53,"dur":0.593,"vel":0.709,"inst":"chimes_v0_plucked_130","midi_source":""},{"t":163.542,"note":41,"dur":0.296,"vel":0.709,"inst":"chimes_v0_plucked_130","midi_source":""},{"t":163.542,"note":41,"dur":0.296,"vel":0.709,"inst":"chimes_v0_plucked_130","midi_source":""},{"t":163.542,"note":53,"dur":0.296,"vel":0.709,"inst":"chimes_v0_plucked_130","midi_source":""},{"t":163.542,"note":53,"dur":0.296,"vel":0.709,"inst":"chimes_v0_plucked_130","midi_source":""},{"t":163.839,"note":41,"dur":0.296,"vel":0.709,"inst":"chimes_v0_plucked_130","midi_source":""},{"t":163.839,"note":45,"dur":0.296,"vel":0.709,"inst":"chimes_v0_plucked_130","midi_source":""},{"t":163.839,"note":53,"dur":0.296,"vel":0.709,"inst":"chimes_v0_plucked_130","midi_source":""},{"t":163.839,"note":57,"dur":0.296,"vel":0.709,"inst":"chimes_v0_plucked_130","midi_source":""},{"t":164.135,"note":45,"dur":0.296,"vel":0.709,"inst":"chimes_v0_plucked_130","midi_source":""},{"t":164.135,"note":57,"dur":0.296,"vel":0.709,"inst":"chimes_v0_plucked_130","midi_source":""},{"t":164.431,"note":36,"dur":0.296,"vel":0.709,"inst":"synth_arp_v0_struck_314","midi_source":""},{"t":164.431,"note":45,"dur":0.296,"vel":0.709,"inst":"chimes_v0_plucked_130","midi_source":""},{"t":164.431,"note":48,"dur":0.296,"vel":0.709,"inst":"synth_arp_v0_struck_314","midi_source":""},{"t":164.431,"note":57,"dur":0.296,"vel":0.709,"inst":"chimes_v0_plucked_130","midi_source":""},{"t":164.728,"note":41,"dur":0.296,"vel":0.709,"inst":"chimes_v0_plucked_130","midi_source":""},{"t":164.728,"note":45,"dur":0.296,"vel":0.709,"inst":"chimes_v0_plucked_130","midi_source":""},{"t":164.728,"note":53,"dur":0.296,"vel":0.709,"inst":"chimes_v0_plucked_130","midi_source":""},{"t":164.728,"note":57,"dur":0.296,"vel":0.709,"inst":"chimes_v0_plucked_130","midi_source":""},{"t":165.024,"note":41,"dur":0.296,"vel":0.709,"inst":"chimes_v0_plucked_130","midi_source":""},{"t":165.024,"note":53,"dur":0.296,"vel":0.709,"inst":"chimes_v0_plucked_130","midi_source":""},{"t":165.321,"note":41,"dur":0.296,"vel":0.709,"inst":"chimes_v0_plucked_130","midi_source":""},{"t":165.321,"note":41,"dur":0.296,"vel":0.709,"inst":"chimes_v0_plucked_130","midi_source":""},{"t":165.321,"note":53,"dur":0.296,"vel":0.709,"inst":"chimes_v0_plucked_130","midi_source":""},{"t":165.321,"note":53,"dur":0.296,"vel":0.709,"inst":"chimes_v0_plucked_130","midi_source":""},{"t":165.617,"note":33,"dur":0.296,"vel":0.709,"inst":"chimes_v0_plucked_130","midi_source":""},{"t":165.617,"note":45,"dur":0.296,"vel":0.709,"inst":"chimes_v0_plucked_130","midi_source":""},{"t":165.617,"note":50,"dur":0.296,"vel":0.709,"inst":"synth_arp_v0_struck_314","midi_source":""},{"t":165.617,"note":62,"dur":0.296,"vel":0.709,"inst":"synth_arp_v0_struck_314","midi_source":""},{"t":165.914,"note":50,"dur":0.296,"vel":0.709,"inst":"synth_arp_v0_struck_314","midi_source":""},{"t":165.914,"note":62,"dur":0.296,"vel":0.709,"inst":"synth_arp_v0_struck_314","midi_source":""},{"t":166.21,"note":33,"dur":0.296,"vel":0.709,"inst":"chimes_v0_plucked_130","midi_source":""},{"t":166.21,"note":50,"dur":0.296,"vel":0.709,"inst":"synth_arp_v0_struck_314","midi_source":""},{"t":166.21,"note":57,"dur":0.296,"vel":0.709,"inst":"chimes_v0_plucked_130","midi_source":""},{"t":166.21,"note":62,"dur":0.296,"vel":0.709,"inst":"synth_arp_v0_struck_314","midi_source":""},{"t":166.506,"note":41,"dur":0.296,"vel":0.709,"inst":"chimes_v0_plucked_130","midi_source":""},{"t":166.506,"note":48,"dur":0.296,"vel":0.709,"inst":"synth_arp_v0_struck_314","midi_source":""},{"t":166.506,"note":57,"dur":0.593,"vel":0.709,"inst":"chimes_v0_plucked_130","midi_source":""},{"t":166.506,"note":60,"dur":0.296,"vel":0.709,"inst":"synth_arp_v0_struck_314","midi_source":""},{"t":166.803,"note":41,"dur":0.296,"vel":0.709,"inst":"chimes_v0_plucked_130","midi_source":""},{"t":166.803,"note":53,"dur":0.148,"vel":0.709,"inst":"chimes_v0_plucked_130","midi_source":""},{"t":166.803,"note":65,"dur":0.148,"vel":0.709,"inst":"chimes_v0_plucked_130","midi_source":""},{"t":166.951,"note":48,"dur":0.148,"vel":0.709,"inst":"synth_arp_v0_struck_314","midi_source":""},{"t":166.951,"note":60,"dur":0.148,"vel":0.709,"inst":"synth_arp_v0_struck_314","midi_source":""},{"t":167.099,"note":41,"dur":0.296,"vel":0.709,"inst":"chimes_v0_plucked_130","midi_source":""},{"t":167.099,"note":50,"dur":0.148,"vel":0.709,"inst":"synth_arp_v0_struck_314","midi_source":""},{"t":167.099,"note":57,"dur":0.296,"vel":0.709,"inst":"chimes_v0_plucked_130","midi_source":""},{"t":167.099,"note":62,"dur":0.148,"vel":0.709,"inst":"synth_arp_v0_struck_314","midi_source":""},{"t":167.247,"note":45,"dur":0.148,"vel":0.709,"inst":"chimes_v0_plucked_130","midi_source":""},{"t":167.247,"note":57,"dur":0.148,"vel":0.709,"inst":"chimes_v0_plucked_130","midi_source":""},{"t":167.396,"note":41,"dur":0.296,"vel":0.709,"inst":"chimes_v0_plucked_130","midi_source":""},{"t":167.396,"note":48,"dur":0.296,"vel":0.709,"inst":"synth_arp_v0_struck_314","midi_source":""},{"t":167.396,"note":57,"dur":0.296,"vel":0.709,"inst":"chimes_v0_plucked_130","midi_source":""},{"t":167.396,"note":60,"dur":0.296,"vel":0.709,"inst":"synth_arp_v0_struck_314","midi_source":""},{"t":167.692,"note":53,"dur":0.148,"vel":0.709,"inst":"chimes_v0_plucked_130","midi_source":""},{"t":167.692,"note":65,"dur":0.148,"vel":0.709,"inst":"chimes_v0_plucked_130","midi_source":""},{"t":167.84,"note":48,"dur":0.148,"vel":0.709,"inst":"synth_arp_v0_struck_314","midi_source":""},{"t":167.84,"note":60,"dur":0.148,"vel":0.709,"inst":"synth_arp_v0_struck_314","midi_source":""},{"t":167.988,"note":45,"dur":0.148,"vel":0.709,"inst":"chimes_v0_plucked_130","midi_source":""},{"t":167.988,"note":57,"dur":0.148,"vel":0.709,"inst":"chimes_v0_plucked_130","midi_source":""},{"t":168.137,"note":45,"dur":0.113,"vel":0.709,"inst":"chimes_v0_plucked_130","midi_source":""},{"t":168.137,"note":57,"dur":0.113,"vel":0.709,"inst":"chimes_v0_plucked_130","midi_source":""},{"t":168.353,"note":28,"dur":0.162,"vel":1.0,"inst":"harp_v0_bowed_168","midi_source":""},{"t":168.353,"note":40,"dur":0.162,"vel":1.0,"inst":"harp_v0_bowed_168","midi_source":""},{"t":168.353,"note":59,"dur":0.325,"vel":1.0,"inst":"tuba_v0_struck_284","midi_source":""},{"t":168.353,"note":62,"dur":0.325,"vel":1.0,"inst":"harp_v0_bowed_168","midi_source":""},{"t":168.516,"note":40,"dur":0.162,"vel":1.0,"inst":"harp_v0_bowed_168","midi_source":""},{"t":168.516,"note":43,"dur":0.162,"vel":1.0,"inst":"tuba_v0_struck_284","midi_source":""},{"t":168.516,"note":47,"dur":0.162,"vel":1.0,"inst":"tuba_v0_struck_284","midi_source":""},{"t":168.678,"note":40,"dur":0.162,"vel":1.0,"inst":"harp_v0_bowed_168","midi_source":""},{"t":168.678,"note":43,"dur":0.162,"vel":1.0,"inst":"tuba_v0_struck_284","midi_source":""},{"t":168.678,"note":47,"dur":0.162,"vel":1.0,"inst":"tuba_v0_struck_284","midi_source":""},{"t":168.678,"note":59,"dur":0.162,"vel":1.0,"inst":"tuba_v0_struck_284","midi_source":""},{"t":168.678,"note":62,"dur":0.162,"vel":1.0,"inst":"harp_v0_bowed_168","midi_source":""},{"t":168.84,"note":28,"dur":0.162,"vel":1.0,"inst":"harp_v0_bowed_168","midi_source":""},{"t":168.84,"note":40,"dur":0.162,"vel":1.0,"inst":"harp_v0_bowed_168","midi_source":""},{"t":168.84,"note":59,"dur":0.325,"vel":1.0,"inst":"tuba_v0_struck_284","midi_source":""},{"t":168.84,"note":62,"dur":0.325,"vel":1.0,"inst":"harp_v0_bowed_168","midi_source":""},{"t":169.003,"note":40,"dur":0.162,"vel":1.0,"inst":"harp_v0_bowed_168","midi_source":""},{"t":169.003,"note":43,"dur":0.162,"vel":1.0,"inst":"tuba_v0_struck_284","midi_source":""},{"t":169.003,"note":47,"dur":0.162,"vel":1.0,"inst":"tuba_v0_struck_284","midi_source":""},{"t":169.165,"note":40,"dur":0.162,"vel":1.0,"inst":"harp_v0_bowed_168","midi_source":""},{"t":169.165,"note":43,"dur":0.162,"vel":1.0,"inst":"tuba_v0_struck_284","midi_source":""},{"t":169.165,"note":47,"dur":0.162,"vel":1.0,"inst":"tuba_v0_struck_284","midi_source":""},{"t":169.165,"note":59,"dur":0.162,"vel":1.0,"inst":"tuba_v0_struck_284","midi_source":""},{"t":169.165,"note":62,"dur":0.162,"vel":1.0,"inst":"harp_v0_bowed_168","midi_source":""},{"t":169.328,"note":28,"dur":0.162,"vel":1.0,"inst":"harp_v0_bowed_168","midi_source":""},{"t":169.328,"note":40,"dur":0.162,"vel":1.0,"inst":"harp_v0_bowed_168","midi_source":""},{"t":169.328,"note":64,"dur":0.162,"vel":1.0,"inst":"harp_v0_bowed_168","midi_source":""},{"t":169.328,"note":67,"dur":0.162,"vel":1.0,"inst":"tuba_v0_struck_284","midi_source":""},{"t":169.49,"note":40,"dur":0.162,"vel":1.0,"inst":"harp_v0_bowed_168","midi_source":""},{"t":169.49,"note":43,"dur":0.162,"vel":1.0,"inst":"tuba_v0_struck_284","midi_source":""},{"t":169.49,"note":47,"dur":0.162,"vel":1.0,"inst":"tuba_v0_struck_284","midi_source":""},{"t":169.49,"note":62,"dur":0.162,"vel":1.0,"inst":"harp_v0_bowed_168","midi_source":""},{"t":169.49,"note":55,"dur":0.162,"vel":1.0,"inst":"tuba_v0_struck_284","midi_source":""},{"t":169.652,"note":40,"dur":0.162,"vel":1.0,"inst":"harp_v0_bowed_168","midi_source":""},{"t":169.652,"note":43,"dur":0.162,"vel":1.0,"inst":"tuba_v0_struck_284","midi_source":""},{"t":169.652,"note":47,"dur":0.162,"vel":1.0,"inst":"tuba_v0_struck_284","midi_source":""},{"t":169.652,"note":60,"dur":0.162,"vel":1.0,"inst":"harp_v0_bowed_168","midi_source":""},{"t":169.652,"note":64,"dur":0.162,"vel":1.0,"inst":"harp_v0_bowed_168","midi_source":""},{"t":169.815,"note":28,"dur":0.162,"vel":1.0,"inst":"harp_v0_bowed_168","midi_source":""},{"t":169.815,"note":40,"dur":0.162,"vel":1.0,"inst":"harp_v0_bowed_168","midi_source":""},{"t":169.815,"note":59,"dur":0.162,"vel":1.0,"inst":"tuba_v0_struck_284","midi_source":""},{"t":169.815,"note":62,"dur":0.162,"vel":1.0,"inst":"harp_v0_bowed_168","midi_source":""},{"t":169.977,"note":40,"dur":0.162,"vel":1.0,"inst":"harp_v0_bowed_168","midi_source":""},{"t":169.977,"note":43,"dur":0.162,"vel":1.0,"inst":"tuba_v0_struck_284","midi_source":""},{"t":169.977,"note":47,"dur":0.162,"vel":1.0,"inst":"tuba_v0_struck_284","midi_source":""},{"t":169.977,"note":57,"dur":0.162,"vel":1.0,"inst":"tuba_v0_struck_284","midi_source":""},{"t":169.977,"note":60,"dur":0.162,"vel":1.0,"inst":"harp_v0_bowed_168","midi_source":""},{"t":170.14,"note":40,"dur":0.162,"vel":1.0,"inst":"harp_v0_bowed_168","midi_source":""},{"t":170.14,"note":43,"dur":0.162,"vel":1.0,"inst":"tuba_v0_struck_284","midi_source":""},{"t":170.14,"note":47,"dur":0.162,"vel":1.0,"inst":"tuba_v0_struck_284","midi_source":""},{"t":170.14,"note":55,"dur":0.162,"vel":1.0,"inst":"tuba_v0_struck_284","midi_source":""},{"t":170.14,"note":59,"dur":0.162,"vel":1.0,"inst":"tuba_v0_struck_284","midi_source":""},{"t":170.302,"note":33,"dur":0.162,"vel":1.0,"inst":"tuba_v0_struck_284","midi_source":""},{"t":170.302,"note":57,"dur":0.487,"vel":1.0,"inst":"tuba_v0_struck_284","midi_source":""},{"t":170.464,"note":48,"dur":0.162,"vel":1.0,"inst":"harp_v0_bowed_168","midi_source":""},{"t":170.464,"note":52,"dur":0.162,"vel":1.0,"inst":"harp_v0_bowed_168","midi_source":""},{"t":170.627,"note":48,"dur":0.162,"vel":1.0,"inst":"harp_v0_bowed_168","midi_source":""},{"t":170.627,"note":52,"dur":0.162,"vel":1.0,"inst":"harp_v0_bowed_168","midi_source":""},{"t":170.789,"note":45,"dur":0.162,"vel":1.0,"inst":"tuba_v0_struck_284","midi_source":""},{"t":170.789,"note":69,"dur":0.081,"vel":1.0,"inst":"tuba_v0_struck_284","midi_source":""},{"t":170.87,"note":71,"dur":0.081,"vel":1.0,"inst":"tuba_v0_struck_284","midi_source":""},{"t":170.951,"note":48,"dur":0.162,"vel":1.0,"inst":"harp_v0_bowed_168","midi_source":""},{"t":170.951,"note":52,"dur":0.162,"vel":1.0,"inst":"harp_v0_bowed_168","midi_source":""},{"t":170.951,"note":57,"dur":0.162,"vel":1.0,"inst":"tuba_v0_struck_284","midi_source":""},{"t":170.951,"note":72,"dur":0.162,"vel":1.0,"inst":"harp_v0_bowed_168","midi_source":""},{"t":171.114,"note":48,"dur":0.162,"vel":1.0,"inst":"harp_v0_bowed_168","midi_source":""},{"t":171.114,"note":52,"dur":0.162,"vel":1.0,"inst":"harp_v0_bowed_168","midi_source":""},{"t":171.114,"note":57,"dur":0.162,"vel":1.0,"inst":"tuba_v0_struck_284","midi_source":""},{"t":171.114,"note":74,"dur":0.162,"vel":1.0,"inst":"harp_v0_bowed_168","midi_source":""},{"t":171.276,"note":45,"dur":0.162,"vel":1.0,"inst":"tuba_v0_struck_284","midi_source":""},{"t":171.276,"note":76,"dur":0.325,"vel":1.0,"inst":"harp_v0_bowed_168","midi_source":""},{"t":171.439,"note":48,"dur":0.162,"vel":1.0,"inst":"harp_v0_bowed_168","midi_source":""},{"t":171.439,"note":52,"dur":0.162,"vel":1.0,"inst":"harp_v0_bowed_168","midi_source":""},{"t":171.439,"note":57,"dur":0.162,"vel":1.0,"inst":"tuba_v0_struck_284","midi_source":""},{"t":171.601,"note":48,"dur":0.162,"vel":1.0,"inst":"harp_v0_bowed_168","midi_source":""},{"t":171.601,"note":52,"dur":0.162,"vel":1.0,"inst":"harp_v0_bowed_168","midi_source":""},{"t":171.601,"note":57,"dur":0.162,"vel":1.0,"inst":"tuba_v0_struck_284","midi_source":""},{"t":171.601,"note":77,"dur":0.162,"vel":1.0,"inst":"tuba_v0_struck_284","midi_source":""},{"t":171.763,"note":45,"dur":0.162,"vel":1.0,"inst":"tuba_v0_struck_284","midi_source":""},{"t":171.763,"note":77,"dur":0.081,"vel":1.0,"inst":"tuba_v0_struck_284","midi_source":""},{"t":171.763,"note":79,"dur":0.081,"vel":1.0,"inst":"tuba_v0_struck_284","midi_source":""},{"t":171.845,"note":76,"dur":0.081,"vel":1.0,"inst":"harp_v0_bowed_168","midi_source":""},{"t":171.926,"note":48,"dur":0.162,"vel":1.0,"inst":"harp_v0_bowed_168","midi_source":""},{"t":171.926,"note":52,"dur":0.162,"vel":1.0,"inst":"harp_v0_bowed_168","midi_source":""},{"t":171.926,"note":57,"dur":0.162,"vel":1.0,"inst":"tuba_v0_struck_284","midi_source":""},{"t":171.926,"note":76,"dur":0.162,"vel":1.0,"inst":"harp_v0_bowed_168","midi_source":""},{"t":172.088,"note":48,"dur":0.162,"vel":1.0,"inst":"harp_v0_bowed_168","midi_source":""},{"t":172.088,"note":52,"dur":0.162,"vel":1.0,"inst":"harp_v0_bowed_168","midi_source":""},{"t":172.088,"note":57,"dur":0.162,"vel":1.0,"inst":"tuba_v0_struck_284","midi_source":""},{"t":172.088,"note":81,"dur":0.162,"vel":1.0,"inst":"tuba_v0_struck_284","midi_source":""},{"t":172.251,"note":45,"dur":0.162,"vel":1.0,"inst":"tuba_v0_struck_284","midi_source":""},{"t":172.251,"note":76,"dur":0.325,"vel":1.0,"inst":"harp_v0_bowed_168","midi_source":""},{"t":172.413,"note":48,"dur":0.162,"vel":1.0,"inst":"harp_v0_bowed_168","midi_source":""},{"t":172.413,"note":52,"dur":0.162,"vel":1.0,"inst":"harp_v0_bowed_168","midi_source":""},{"t":172.413,"note":57,"dur":0.162,"vel":1.0,"inst":"tuba_v0_struck_284","midi_source":""},{"t":172.575,"note":48,"dur":0.162,"vel":1.0,"inst":"harp_v0_bowed_168","midi_source":""},{"t":172.575,"note":52,"dur":0.162,"vel":1.0,"inst":"harp_v0_bowed_168","midi_source":""},{"t":172.575,"note":57,"dur":0.162,"vel":1.0,"inst":"tuba_v0_struck_284","midi_source":""},{"t":172.575,"note":69,"dur":0.162,"vel":1.0,"inst":"tuba_v0_struck_284","midi_source":""},{"t":172.738,"note":40,"dur":0.162,"vel":1.0,"inst":"harp_v0_bowed_168","midi_source":""},{"t":172.738,"note":71,"dur":0.081,"vel":1.0,"inst":"tuba_v0_struck_284","midi_source":""},{"t":172.819,"note":76,"dur":0.081,"vel":1.0,"inst":"harp_v0_bowed_168","midi_source":""},{"t":172.9,"note":47,"dur":0.162,"vel":1.0,"inst":"tuba_v0_struck_284","midi_source":""},{"t":172.9,"note":52,"dur":0.162,"vel":1.0,"inst":"harp_v0_bowed_168","midi_source":""},{"t":172.9,"note":55,"dur":0.162,"vel":1.0,"inst":"tuba_v0_struck_284","midi_source":""},{"t":172.9,"note":76,"dur":0.162,"vel":1.0,"inst":"harp_v0_bowed_168","midi_source":""},{"t":173.063,"note":47,"dur":0.162,"vel":1.0,"inst":"tuba_v0_struck_284","midi_source":""},{"t":173.063,"note":52,"dur":0.162,"vel":1.0,"inst":"harp_v0_bowed_168","midi_source":""},{"t":173.063,"note":55,"dur":0.162,"vel":1.0,"inst":"tuba_v0_struck_284","midi_source":""},{"t":173.063,"note":71,"dur":0.162,"vel":1.0,"inst":"tuba_v0_struck_284","midi_source":""},{"t":173.225,"note":45,"dur":0.162,"vel":1.0,"inst":"tuba_v0_struck_284","midi_source":""},{"t":173.225,"note":72,"dur":0.325,"vel":1.0,"inst":"harp_v0_bowed_168","midi_source":""},{"t":173.387,"note":48,"dur":0.162,"vel":1.0,"inst":"harp_v0_bowed_168","midi_source":""},{"t":173.387,"note":52,"dur":0.162,"vel":1.0,"inst":"harp_v0_bowed_168","midi_source":""},{"t":173.387,"note":57,"dur":0.162,"vel":1.0,"inst":"tuba_v0_struck_284","midi_source":""},{"t":173.55,"note":48,"dur":0.162,"vel":1.0,"inst":"harp_v0_bowed_168","midi_source":""},{"t":173.55,"note":52,"dur":0.162,"vel":1.0,"inst":"harp_v0_bowed_168","midi_source":""},{"t":173.55,"note":57,"dur":0.162,"vel":1.0,"inst":"tuba_v0_struck_284","midi_source":""},{"t":173.55,"note":69,"dur":0.162,"vel":1.0,"inst":"tuba_v0_struck_284","midi_source":""},{"t":173.712,"note":40,"dur":0.162,"vel":1.0,"inst":"harp_v0_bowed_168","midi_source":""},{"t":173.712,"note":71,"dur":0.081,"vel":1.0,"inst":"tuba_v0_struck_284","midi_source":""},{"t":173.793,"note":76,"dur":0.081,"vel":1.0,"inst":"harp_v0_bowed_168","midi_source":""},{"t":173.875,"note":47,"dur":0.162,"vel":1.0,"inst":"tuba_v0_struck_284","midi_source":""},{"t":173.875,"note":52,"dur":0.162,"vel":1.0,"inst":"harp_v0_bowed_168","midi_source":""},{"t":173.875,"note":55,"dur":0.162,"vel":1.0,"inst":"tuba_v0_struck_284","midi_source":""},{"t":173.875,"note":76,"dur":0.162,"vel":1.0,"inst":"harp_v0_bowed_168","midi_source":""},{"t":174.037,"note":47,"dur":0.162,"vel":1.0,"inst":"tuba_v0_struck_284","midi_source":""},{"t":174.037,"note":52,"dur":0.162,"vel":1.0,"inst":"harp_v0_bowed_168","midi_source":""},{"t":174.037,"note":55,"dur":0.162,"vel":1.0,"inst":"tuba_v0_struck_284","midi_source":""},{"t":174.037,"note":67,"dur":0.162,"vel":1.0,"inst":"tuba_v0_struck_284","midi_source":""},{"t":174.199,"note":45,"dur":0.487,"vel":1.0,"inst":"tuba_v0_struck_284","midi_source":""},{"t":174.199,"note":48,"dur":0.487,"vel":1.0,"inst":"harp_v0_bowed_168","midi_source":""},{"t":174.199,"note":52,"dur":0.487,"vel":1.0,"inst":"harp_v0_bowed_168","midi_source":""},{"t":174.199,"note":57,"dur":0.487,"vel":1.0,"inst":"tuba_v0_struck_284","midi_source":""},{"t":174.199,"note":69,"dur":0.325,"vel":1.0,"inst":"tuba_v0_struck_284","midi_source":""},{"t":174.605,"note":76,"dur":0.081,"vel":1.0,"inst":"harp_v0_bowed_168","midi_source":""},{"t":174.605,"note":67,"dur":0.081,"vel":1.0,"inst":"tuba_v0_struck_284","midi_source":""},{"t":174.605,"note":79,"dur":0.081,"vel":1.0,"inst":"tuba_v0_struck_284","midi_source":""},{"t":174.687,"note":33,"dur":0.162,"vel":1.0,"inst":"tuba_v0_struck_284","midi_source":""},{"t":174.687,"note":40,"dur":0.162,"vel":1.0,"inst":"harp_v0_bowed_168","midi_source":""},{"t":174.687,"note":45,"dur":0.162,"vel":1.0,"inst":"tuba_v0_struck_284","midi_source":""},{"t":174.687,"note":81,"dur":0.081,"vel":1.0,"inst":"tuba_v0_struck_284","midi_source":""},{"t":174.768,"note":79,"dur":0.081,"vel":1.0,"inst":"tuba_v0_struck_284","midi_source":""},{"t":174.849,"note":48,"dur":0.162,"vel":1.0,"inst":"harp_v0_bowed_168","midi_source":""},{"t":174.849,"note":52,"dur":0.162,"vel":1.0,"inst":"harp_v0_bowed_168","midi_source":""},{"t":174.849,"note":77,"dur":0.081,"vel":1.0,"inst":"tuba_v0_struck_284","midi_source":""},{"t":174.93,"note":76,"dur":0.081,"vel":1.0,"inst":"harp_v0_bowed_168","midi_source":""},{"t":175.011,"note":45,"dur":0.162,"vel":1.0,"inst":"tuba_v0_struck_284","midi_source":""},{"t":175.011,"note":48,"dur":0.162,"vel":1.0,"inst":"harp_v0_bowed_168","midi_source":""},{"t":175.011,"note":74,"dur":0.081,"vel":1.0,"inst":"harp_v0_bowed_168","midi_source":""},{"t":175.093,"note":72,"dur":0.081,"vel":1.0,"inst":"harp_v0_bowed_168","midi_source":""},{"t":175.174,"note":28,"dur":0.162,"vel":1.0,"inst":"harp_v0_bowed_168","midi_source":""},{"t":175.174,"note":35,"dur":0.162,"vel":1.0,"inst":"tuba_v0_struck_284","midi_source":""},{"t":175.174,"note":40,"dur":0.162,"vel":1.0,"inst":"harp_v0_bowed_168","midi_source":""},{"t":175.174,"note":77,"dur":0.162,"vel":1.0,"inst":"tuba_v0_struck_284","midi_source":""},{"t":175.336,"note":47,"dur":0.162,"vel":1.0,"inst":"tuba_v0_struck_284","midi_source":""},{"t":175.336,"note":50,"dur":0.162,"vel":1.0,"inst":"harp_v0_bowed_168","midi_source":""},{"t":175.336,"note":76,"dur":0.081,"vel":1.0,"inst":"harp_v0_bowed_168","midi_source":""},{"t":175.417,"note":74,"dur":0.081,"vel":1.0,"inst":"harp_v0_bowed_168","midi_source":""},{"t":175.499,"note":43,"dur":0.162,"vel":1.0,"inst":"tuba_v0_struck_284","midi_source":""},{"t":175.499,"note":47,"dur":0.162,"vel":1.0,"inst":"tuba_v0_struck_284","midi_source":""},{"t":175.499,"note":72,"dur":0.081,"vel":1.0,"inst":"harp_v0_bowed_168","midi_source":""},{"t":175.58,"note":71,"dur":0.081,"vel":1.0,"inst":"tuba_v0_struck_284","midi_source":""},{"t":175.661,"note":28,"dur":0.162,"vel":1.0,"inst":"harp_v0_bowed_168","midi_source":""},{"t":175.661,"note":35,"dur":0.162,"vel":1.0,"inst":"tuba_v0_struck_284","midi_source":""},{"t":175.661,"note":40,"dur":0.162,"vel":1.0,"inst":"harp_v0_bowed_168","midi_source":""},{"t":175.661,"note":77,"dur":0.162,"vel":1.0,"inst":"tuba_v0_struck_284","midi_source":""},{"t":175.823,"note":47,"dur":0.162,"vel":1.0,"inst":"tuba_v0_struck_284","midi_source":""},{"t":175.823,"note":50,"dur":0.162,"vel":1.0,"inst":"harp_v0_bowed_168","midi_source":""},{"t":175.823,"note":76,"dur":0.081,"vel":1.0,"inst":"harp_v0_bowed_168","midi_source":""},{"t":175.905,"note":74,"dur":0.081,"vel":1.0,"inst":"harp_v0_bowed_168","midi_source":""},{"t":175.986,"note":43,"dur":0.162,"vel":1.0,"inst":"tuba_v0_struck_284","midi_source":""},{"t":175.986,"note":47,"dur":0.162,"vel":1.0,"inst":"tuba_v0_struck_284","midi_source":""},{"t":175.986,"note":72,"dur":0.081,"vel":1.0,"inst":"harp_v0_bowed_168","midi_source":""},{"t":176.148,"note":28,"dur":0.162,"vel":1.0,"inst":"harp_v0_bowed_168","midi_source":""},{"t":176.148,"note":40,"dur":0.162,"vel":1.0,"inst":"harp_v0_bowed_168","midi_source":""},{"t":176.148,"note":59,"dur":0.325,"vel":1.0,"inst":"tuba_v0_struck_284","midi_source":""},{"t":176.148,"note":62,"dur":0.325,"vel":1.0,"inst":"harp_v0_bowed_168","midi_source":""},{"t":176.311,"note":40,"dur":0.162,"vel":1.0,"inst":"harp_v0_bowed_168","midi_source":""},{"t":176.311,"note":43,"dur":0.162,"vel":1.0,"inst":"tuba_v0_struck_284","midi_source":""},{"t":176.311,"note":47,"dur":0.162,"vel":1.0,"inst":"tuba_v0_struck_284","midi_source":""},{"t":176.473,"note":40,"dur":0.162,"vel":1.0,"inst":"harp_v0_bowed_168","midi_source":""},{"t":176.473,"note":43,"dur":0.162,"vel":1.0,"inst":"tuba_v0_struck_284","midi_source":""},{"t":176.473,"note":47,"dur":0.162,"vel":1.0,"inst":"tuba_v0_struck_284","midi_source":""},{"t":176.473,"note":59,"dur":0.162,"vel":1.0,"inst":"tuba_v0_struck_284","midi_source":""},{"t":176.473,"note":62,"dur":0.162,"vel":1.0,"inst":"harp_v0_bowed_168","midi_source":""},{"t":176.635,"note":28,"dur":0.162,"vel":1.0,"inst":"harp_v0_bowed_168","midi_source":""},{"t":176.635,"note":40,"dur":0.162,"vel":1.0,"inst":"harp_v0_bowed_168","midi_source":""},{"t":176.635,"note":59,"dur":0.325,"vel":1.0,"inst":"tuba_v0_struck_284","midi_source":""},{"t":176.635,"note":62,"dur":0.325,"vel":1.0,"inst":"harp_v0_bowed_168","midi_source":""},{"t":176.798,"note":40,"dur":0.162,"vel":1.0,"inst":"harp_v0_bowed_168","midi_source":""},{"t":176.798,"note":43,"dur":0.162,"vel":1.0,"inst":"tuba_v0_struck_284","midi_source":""},{"t":176.798,"note":47,"dur":0.162,"vel":1.0,"inst":"tuba_v0_struck_284","midi_source":""},{"t":176.96,"note":40,"dur":0.162,"vel":1.0,"inst":"harp_v0_bowed_168","midi_source":""},{"t":176.96,"note":43,"dur":0.162,"vel":1.0,"inst":"tuba_v0_struck_284","midi_source":""},{"t":176.96,"note":47,"dur":0.162,"vel":1.0,"inst":"tuba_v0_struck_284","midi_source":""},{"t":176.96,"note":59,"dur":0.162,"vel":1.0,"inst":"tuba_v0_struck_284","midi_source":""},{"t":176.96,"note":62,"dur":0.162,"vel":1.0,"inst":"harp_v0_bowed_168","midi_source":""},{"t":177.122,"note":28,"dur":0.162,"vel":1.0,"inst":"harp_v0_bowed_168","midi_source":""},{"t":177.122,"note":40,"dur":0.162,"vel":1.0,"inst":"harp_v0_bowed_168","midi_source":""},{"t":177.122,"note":64,"dur":0.162,"vel":1.0,"inst":"harp_v0_bowed_168","midi_source":""},{"t":177.122,"note":67,"dur":0.162,"vel":1.0,"inst":"tuba_v0_struck_284","midi_source":""},{"t":177.285,"note":40,"dur":0.162,"vel":1.0,"inst":"harp_v0_bowed_168","midi_source":""},{"t":177.285,"note":43,"dur":0.162,"vel":1.0,"inst":"tuba_v0_struck_284","midi_source":""},{"t":177.285,"note":47,"dur":0.162,"vel":1.0,"inst":"tuba_v0_struck_284","midi_source":""},{"t":177.285,"note":62,"dur":0.162,"vel":1.0,"inst":"harp_v0_bowed_168","midi_source":""},{"t":177.285,"note":55,"dur":0.162,"vel":1.0,"inst":"tuba_v0_struck_284","midi_source":""},{"t":177.447,"note":40,"dur":0.162,"vel":1.0,"inst":"harp_v0_bowed_168","midi_source":""},{"t":177.447,"note":43,"dur":0.162,"vel":1.0,"inst":"tuba_v0_struck_284","midi_source":""},{"t":177.447,"note":47,"dur":0.162,"vel":1.0,"inst":"tuba_v0_struck_284","midi_source":""},{"t":177.447,"note":60,"dur":0.162,"vel":1.0,"inst":"harp_v0_bowed_168","midi_source":""},{"t":177.447,"note":64,"dur":0.162,"vel":1.0,"inst":"harp_v0_bowed_168","midi_source":""},{"t":177.61,"note":28,"dur":0.162,"vel":1.0,"inst":"harp_v0_bowed_168","midi_source":""},{"t":177.61,"note":40,"dur":0.162,"vel":1.0,"inst":"harp_v0_bowed_168","midi_source":""},{"t":177.61,"note":59,"dur":0.162,"vel":1.0,"inst":"tuba_v0_struck_284","midi_source":""},{"t":177.61,"note":62,"dur":0.162,"vel":1.0,"inst":"harp_v0_bowed_168","midi_source":""},{"t":177.772,"note":40,"dur":0.162,"vel":1.0,"inst":"harp_v0_bowed_168","midi_source":""},{"t":177.772,"note":43,"dur":0.162,"vel":1.0,"inst":"tuba_v0_struck_284","midi_source":""},{"t":177.772,"note":47,"dur":0.162,"vel":1.0,"inst":"tuba_v0_struck_284","midi_source":""},{"t":177.772,"note":57,"dur":0.162,"vel":1.0,"inst":"tuba_v0_struck_284","midi_source":""},{"t":177.772,"note":60,"dur":0.162,"vel":1.0,"inst":"harp_v0_bowed_168","midi_source":""},{"t":177.934,"note":40,"dur":0.162,"vel":1.0,"inst":"harp_v0_bowed_168","midi_source":""},{"t":177.934,"note":43,"dur":0.162,"vel":1.0,"inst":"tuba_v0_struck_284","midi_source":""},{"t":177.934,"note":47,"dur":0.162,"vel":1.0,"inst":"tuba_v0_struck_284","midi_source":""},{"t":177.934,"note":55,"dur":0.162,"vel":1.0,"inst":"tuba_v0_struck_284","midi_source":""},{"t":177.934,"note":59,"dur":0.162,"vel":1.0,"inst":"tuba_v0_struck_284","midi_source":""},{"t":178.097,"note":33,"dur":0.162,"vel":1.0,"inst":"tuba_v0_struck_284","midi_source":""},{"t":178.097,"note":57,"dur":0.487,"vel":1.0,"inst":"tuba_v0_struck_284","midi_source":""},{"t":178.259,"note":48,"dur":0.162,"vel":1.0,"inst":"harp_v0_bowed_168","midi_source":""},{"t":178.259,"note":52,"dur":0.162,"vel":1.0,"inst":"harp_v0_bowed_168","midi_source":""},{"t":178.422,"note":48,"dur":0.162,"vel":1.0,"inst":"harp_v0_bowed_168","midi_source":""},{"t":178.422,"note":52,"dur":0.162,"vel":1.0,"inst":"harp_v0_bowed_168","midi_source":""},{"t":178.584,"note":45,"dur":0.162,"vel":1.0,"inst":"tuba_v0_struck_284","midi_source":""},{"t":178.584,"note":69,"dur":0.081,"vel":1.0,"inst":"tuba_v0_struck_284","midi_source":""},{"t":178.665,"note":71,"dur":0.081,"vel":1.0,"inst":"tuba_v0_struck_284","midi_source":""},{"t":178.746,"note":48,"dur":0.162,"vel":1.0,"inst":"harp_v0_bowed_168","midi_source":""},{"t":178.746,"note":52,"dur":0.162,"vel":1.0,"inst":"harp_v0_bowed_168","midi_source":""},{"t":178.746,"note":57,"dur":0.162,"vel":1.0,"inst":"tuba_v0_struck_284","midi_source":""},{"t":178.746,"note":72,"dur":0.162,"vel":1.0,"inst":"harp_v0_bowed_168","midi_source":""},{"t":178.909,"note":48,"dur":0.162,"vel":1.0,"inst":"harp_v0_bowed_168","midi_source":""},{"t":178.909,"note":52,"dur":0.162,"vel":1.0,"inst":"harp_v0_bowed_168","midi_source":""},{"t":178.909,"note":57,"dur":0.162,"vel":1.0,"inst":"tuba_v0_struck_284","midi_source":""},{"t":178.909,"note":74,"dur":0.162,"vel":1.0,"inst":"harp_v0_bowed_168","midi_source":""},{"t":179.071,"note":45,"dur":0.162,"vel":1.0,"inst":"tuba_v0_struck_284","midi_source":""},{"t":179.071,"note":76,"dur":0.325,"vel":1.0,"inst":"harp_v0_bowed_168","midi_source":""},{"t":179.234,"note":48,"dur":0.162,"vel":1.0,"inst":"harp_v0_bowed_168","midi_source":""},{"t":179.234,"note":52,"dur":0.162,"vel":1.0,"inst":"harp_v0_bowed_168","midi_source":""},{"t":179.234,"note":57,"dur":0.162,"vel":1.0,"inst":"tuba_v0_struck_284","midi_source":""},{"t":179.396,"note":48,"dur":0.162,"vel":1.0,"inst":"harp_v0_bowed_168","midi_source":""},{"t":179.396,"note":52,"dur":0.162,"vel":1.0,"inst":"harp_v0_bowed_168","midi_source":""},{"t":179.396,"note":57,"dur":0.162,"vel":1.0,"inst":"tuba_v0_struck_284","midi_source":""},{"t":179.396,"note":77,"dur":0.162,"vel":1.0,"inst":"tuba_v0_struck_284","midi_source":""},{"t":179.558,"note":45,"dur":0.162,"vel":1.0,"inst":"tuba_v0_struck_284","midi_source":""},{"t":179.558,"note":77,"dur":0.081,"vel":1.0,"inst":"tuba_v0_struck_284","midi_source":""},{"t":179.558,"note":79,"dur":0.081,"vel":1.0,"inst":"tuba_v0_struck_284","midi_source":""},{"t":179.64,"note":76,"dur":0.081,"vel":1.0,"inst":"harp_v0_bowed_168","midi_source":""},{"t":179.721,"note":48,"dur":0.162,"vel":1.0,"inst":"harp_v0_bowed_168","midi_source":""},{"t":179.721,"note":52,"dur":0.162,"vel":1.0,"inst":"harp_v0_bowed_168","midi_source":""},{"t":179.721,"note":57,"dur":0.162,"vel":1.0,"inst":"tuba_v0_struck_284","midi_source":""},{"t":179.721,"note":76,"dur":0.162,"vel":1.0,"inst":"harp_v0_bowed_168","midi_source":""},{"t":179.883,"note":48,"dur":0.162,"vel":1.0,"inst":"harp_v0_bowed_168","midi_source":""},{"t":179.883,"note":52,"dur":0.162,"vel":1.0,"inst":"harp_v0_bowed_168","midi_source":""},{"t":179.883,"note":57,"dur":0.162,"vel":1.0,"inst":"tuba_v0_struck_284","midi_source":""},{"t":179.883,"note":81,"dur":0.162,"vel":1.0,"inst":"tuba_v0_struck_284","midi_source":""},{"t":180.046,"note":45,"dur":0.162,"vel":1.0,"inst":"tuba_v0_struck_284","midi_source":""},{"t":180.046,"note":76,"dur":0.325,"vel":1.0,"inst":"harp_v0_bowed_168","midi_source":""},{"t":180.208,"note":48,"dur":0.162,"vel":1.0,"inst":"harp_v0_bowed_168","midi_source":""},{"t":180.208,"note":52,"dur":0.162,"vel":1.0,"inst":"harp_v0_bowed_168","midi_source":""},{"t":180.208,"note":57,"dur":0.162,"vel":1.0,"inst":"tuba_v0_struck_284","midi_source":""},{"t":180.37,"note":48,"dur":0.162,"vel":1.0,"inst":"harp_v0_bowed_168","midi_source":""},{"t":180.37,"note":52,"dur":0.162,"vel":1.0,"inst":"harp_v0_bowed_168","midi_source":""},{"t":180.37,"note":57,"dur":0.162,"vel":1.0,"inst":"tuba_v0_struck_284","midi_source":""},{"t":180.37,"note":69,"dur":0.162,"vel":1.0,"inst":"tuba_v0_struck_284","midi_source":""},{"t":180.533,"note":40,"dur":0.162,"vel":1.0,"inst":"harp_v0_bowed_168","midi_source":""},{"t":180.533,"note":71,"dur":0.081,"vel":1.0,"inst":"tuba_v0_struck_284","midi_source":""},{"t":180.614,"note":76,"dur":0.081,"vel":1.0,"inst":"harp_v0_bowed_168","midi_source":""},{"t":180.695,"note":47,"dur":0.162,"vel":1.0,"inst":"tuba_v0_struck_284","midi_source":""},{"t":180.695,"note":52,"dur":0.162,"vel":1.0,"inst":"harp_v0_bowed_168","midi_source":""},{"t":180.695,"note":55,"dur":0.162,"vel":1.0,"inst":"tuba_v0_struck_284","midi_source":""},{"t":180.695,"note":76,"dur":0.162,"vel":1.0,"inst":"harp_v0_bowed_168","midi_source":""},{"t":180.858,"note":47,"dur":0.162,"vel":1.0,"inst":"tuba_v0_struck_284","midi_source":""},{"t":180.858,"note":52,"dur":0.162,"vel":1.0,"inst":"harp_v0_bowed_168","midi_source":""},{"t":180.858,"note":55,"dur":0.162,"vel":1.0,"inst":"tuba_v0_struck_284","midi_source":""},{"t":180.858,"note":71,"dur":0.162,"vel":1.0,"inst":"tuba_v0_struck_284","midi_source":""},{"t":181.02,"note":45,"dur":0.162,"vel":1.0,"inst":"tuba_v0_struck_284","midi_source":""},{"t":181.02,"note":72,"dur":0.325,"vel":1.0,"inst":"harp_v0_bowed_168","midi_source":""},{"t":181.182,"note":48,"dur":0.162,"vel":1.0,"inst":"harp_v0_bowed_168","midi_source":""},{"t":181.182,"note":52,"dur":0.162,"vel":1.0,"inst":"harp_v0_bowed_168","midi_source":""},{"t":181.182,"note":57,"dur":0.162,"vel":1.0,"inst":"tuba_v0_struck_284","midi_source":""},{"t":181.345,"note":48,"dur":0.162,"vel":1.0,"inst":"harp_v0_bowed_168","midi_source":""},{"t":181.345,"note":52,"dur":0.162,"vel":1.0,"inst":"harp_v0_bowed_168","midi_source":""},{"t":181.345,"note":57,"dur":0.162,"vel":1.0,"inst":"tuba_v0_struck_284","midi_source":""},{"t":181.345,"note":69,"dur":0.162,"vel":1.0,"inst":"tuba_v0_struck_284","midi_source":""},{"t":181.507,"note":40,"dur":0.162,"vel":1.0,"inst":"harp_v0_bowed_168","midi_source":""},{"t":181.507,"note":71,"dur":0.081,"vel":1.0,"inst":"tuba_v0_struck_284","midi_source":""},{"t":181.588,"note":76,"dur":0.081,"vel":1.0,"inst":"harp_v0_bowed_168","midi_source":""},{"t":181.67,"note":47,"dur":0.162,"vel":1.0,"inst":"tuba_v0_struck_284","midi_source":""},{"t":181.67,"note":52,"dur":0.162,"vel":1.0,"inst":"harp_v0_bowed_168","midi_source":""},{"t":181.67,"note":55,"dur":0.162,"vel":1.0,"inst":"tuba_v0_struck_284","midi_source":""},{"t":181.67,"note":76,"dur":0.162,"vel":1.0,"inst":"harp_v0_bowed_168","midi_source":""},{"t":181.832,"note":47,"dur":0.162,"vel":1.0,"inst":"tuba_v0_struck_284","midi_source":""},{"t":181.832,"note":52,"dur":0.162,"vel":1.0,"inst":"harp_v0_bowed_168","midi_source":""},{"t":181.832,"note":55,"dur":0.162,"vel":1.0,"inst":"tuba_v0_struck_284","midi_source":""},{"t":181.832,"note":67,"dur":0.162,"vel":1.0,"inst":"tuba_v0_struck_284","midi_source":""},{"t":181.994,"note":45,"dur":0.487,"vel":1.0,"inst":"tuba_v0_struck_284","midi_source":""},{"t":181.994,"note":48,"dur":0.487,"vel":1.0,"inst":"harp_v0_bowed_168","midi_source":""},{"t":181.994,"note":52,"dur":0.487,"vel":1.0,"inst":"harp_v0_bowed_168","midi_source":""},{"t":181.994,"note":57,"dur":0.487,"vel":1.0,"inst":"tuba_v0_struck_284","midi_source":""},{"t":181.994,"note":69,"dur":0.325,"vel":1.0,"inst":"tuba_v0_struck_284","midi_source":""},{"t":182.4,"note":76,"dur":0.081,"vel":1.0,"inst":"harp_v0_bowed_168","midi_source":""},{"t":182.4,"note":67,"dur":0.081,"vel":1.0,"inst":"tuba_v0_struck_284","midi_source":""},{"t":182.4,"note":79,"dur":0.081,"vel":1.0,"inst":"tuba_v0_struck_284","midi_source":""},{"t":182.482,"note":33,"dur":0.162,"vel":1.0,"inst":"tuba_v0_struck_284","midi_source":""},{"t":182.482,"note":40,"dur":0.162,"vel":1.0,"inst":"harp_v0_bowed_168","midi_source":""},{"t":182.482,"note":45,"dur":0.162,"vel":1.0,"inst":"tuba_v0_struck_284","midi_source":""},{"t":182.482,"note":81,"dur":0.081,"vel":1.0,"inst":"tuba_v0_struck_284","midi_source":""},{"t":182.563,"note":79,"dur":0.081,"vel":1.0,"inst":"tuba_v0_struck_284","midi_source":""},{"t":182.644,"note":48,"dur":0.162,"vel":1.0,"inst":"harp_v0_bowed_168","midi_source":""},{"t":182.644,"note":52,"dur":0.162,"vel":1.0,"inst":"harp_v0_bowed_168","midi_source":""},{"t":182.644,"note":77,"dur":0.081,"vel":1.0,"inst":"tuba_v0_struck_284","midi_source":""},{"t":182.725,"note":76,"dur":0.081,"vel":1.0,"inst":"harp_v0_bowed_168","midi_source":""},{"t":182.806,"note":45,"dur":0.162,"vel":1.0,"inst":"tuba_v0_struck_284","midi_source":""},{"t":182.806,"note":48,"dur":0.162,"vel":1.0,"inst":"harp_v0_bowed_168","midi_source":""},{"t":182.806,"note":74,"dur":0.081,"vel":1.0,"inst":"harp_v0_bowed_168","midi_source":""},{"t":182.887,"note":72,"dur":0.081,"vel":1.0,"inst":"harp_v0_bowed_168","midi_source":""},{"t":182.969,"note":28,"dur":0.162,"vel":1.0,"inst":"harp_v0_bowed_168","midi_source":""},{"t":182.969,"note":35,"dur":0.162,"vel":1.0,"inst":"tuba_v0_struck_284","midi_source":""},{"t":182.969,"note":40,"dur":0.162,"vel":1.0,"inst":"harp_v0_bowed_168","midi_source":""},{"t":182.969,"note":77,"dur":0.162,"vel":1.0,"inst":"tuba_v0_struck_284","midi_source":""},{"t":183.131,"note":47,"dur":0.162,"vel":1.0,"inst":"tuba_v0_struck_284","midi_source":""},{"t":183.131,"note":50,"dur":0.162,"vel":1.0,"inst":"harp_v0_bowed_168","midi_source":""},{"t":183.131,"note":76,"dur":0.081,"vel":1.0,"inst":"harp_v0_bowed_168","midi_source":""},{"t":183.212,"note":74,"dur":0.081,"vel":1.0,"inst":"harp_v0_bowed_168","midi_source":""},{"t":183.293,"note":43,"dur":0.162,"vel":1.0,"inst":"tuba_v0_struck_284","midi_source":""},{"t":183.293,"note":47,"dur":0.162,"vel":1.0,"inst":"tuba_v0_struck_284","midi_source":""},{"t":183.293,"note":72,"dur":0.081,"vel":1.0,"inst":"harp_v0_bowed_168","midi_source":""},{"t":183.375,"note":71,"dur":0.081,"vel":1.0,"inst":"tuba_v0_struck_284","midi_source":""},{"t":183.456,"note":28,"dur":0.162,"vel":1.0,"inst":"harp_v0_bowed_168","midi_source":""},{"t":183.456,"note":35,"dur":0.162,"vel":1.0,"inst":"tuba_v0_struck_284","midi_source":""},{"t":183.456,"note":40,"dur":0.162,"vel":1.0,"inst":"harp_v0_bowed_168","midi_source":""},{"t":183.456,"note":77,"dur":0.162,"vel":1.0,"inst":"tuba_v0_struck_284","midi_source":""},{"t":183.618,"note":47,"dur":0.162,"vel":1.0,"inst":"tuba_v0_struck_284","midi_source":""},{"t":183.618,"note":50,"dur":0.162,"vel":1.0,"inst":"harp_v0_bowed_168","midi_source":""},{"t":183.618,"note":76,"dur":0.081,"vel":1.0,"inst":"harp_v0_bowed_168","midi_source":""},{"t":183.699,"note":74,"dur":0.081,"vel":1.0,"inst":"harp_v0_bowed_168","midi_source":""},{"t":183.781,"note":43,"dur":0.162,"vel":1.0,"inst":"tuba_v0_struck_284","midi_source":""},{"t":183.781,"note":47,"dur":0.162,"vel":1.0,"inst":"tuba_v0_struck_284","midi_source":""},{"t":183.781,"note":72,"dur":0.081,"vel":1.0,"inst":"harp_v0_bowed_168","midi_source":""},{"t":183.943,"note":28,"dur":0.162,"vel":1.0,"inst":"harp_v0_bowed_168","midi_source":""},{"t":183.943,"note":40,"dur":0.162,"vel":1.0,"inst":"harp_v0_bowed_168","midi_source":""},{"t":183.943,"note":59,"dur":0.325,"vel":1.0,"inst":"tuba_v0_struck_284","midi_source":""},{"t":183.943,"note":62,"dur":0.325,"vel":1.0,"inst":"harp_v0_bowed_168","midi_source":""},{"t":184.105,"note":40,"dur":0.162,"vel":1.0,"inst":"harp_v0_bowed_168","midi_source":""},{"t":184.105,"note":43,"dur":0.162,"vel":1.0,"inst":"tuba_v0_struck_284","midi_source":""},{"t":184.105,"note":47,"dur":0.162,"vel":1.0,"inst":"tuba_v0_struck_284","midi_source":""},{"t":184.268,"note":40,"dur":0.162,"vel":1.0,"inst":"harp_v0_bowed_168","midi_source":""},{"t":184.268,"note":43,"dur":0.162,"vel":1.0,"inst":"tuba_v0_struck_284","midi_source":""},{"t":184.268,"note":47,"dur":0.162,"vel":1.0,"inst":"tuba_v0_struck_284","midi_source":""},{"t":184.268,"note":59,"dur":0.162,"vel":1.0,"inst":"tuba_v0_struck_284","midi_source":""},{"t":184.268,"note":62,"dur":0.162,"vel":1.0,"inst":"harp_v0_bowed_168","midi_source":""},{"t":184.43,"note":28,"dur":0.162,"vel":1.0,"inst":"harp_v0_bowed_168","midi_source":""},{"t":184.43,"note":40,"dur":0.162,"vel":1.0,"inst":"harp_v0_bowed_168","midi_source":""},{"t":184.43,"note":59,"dur":0.325,"vel":1.0,"inst":"tuba_v0_struck_284","midi_source":""},{"t":184.43,"note":62,"dur":0.325,"vel":1.0,"inst":"harp_v0_bowed_168","midi_source":""},{"t":184.593,"note":40,"dur":0.162,"vel":1.0,"inst":"harp_v0_bowed_168","midi_source":""},{"t":184.593,"note":43,"dur":0.162,"vel":1.0,"inst":"tuba_v0_struck_284","midi_source":""},{"t":184.593,"note":47,"dur":0.162,"vel":1.0,"inst":"tuba_v0_struck_284","midi_source":""},{"t":184.755,"note":40,"dur":0.162,"vel":1.0,"inst":"harp_v0_bowed_168","midi_source":""},{"t":184.755,"note":43,"dur":0.162,"vel":1.0,"inst":"tuba_v0_struck_284","midi_source":""},{"t":184.755,"note":47,"dur":0.162,"vel":1.0,"inst":"tuba_v0_struck_284","midi_source":""},{"t":184.755,"note":59,"dur":0.162,"vel":1.0,"inst":"tuba_v0_struck_284","midi_source":""},{"t":184.755,"note":62,"dur":0.162,"vel":1.0,"inst":"harp_v0_bowed_168","midi_source":""},{"t":184.917,"note":28,"dur":0.162,"vel":1.0,"inst":"harp_v0_bowed_168","midi_source":""},{"t":184.917,"note":40,"dur":0.162,"vel":1.0,"inst":"harp_v0_bowed_168","midi_source":""},{"t":184.917,"note":64,"dur":0.162,"vel":1.0,"inst":"harp_v0_bowed_168","midi_source":""},{"t":184.917,"note":67,"dur":0.162,"vel":1.0,"inst":"tuba_v0_struck_284","midi_source":""},{"t":185.08,"note":40,"dur":0.162,"vel":1.0,"inst":"harp_v0_bowed_168","midi_source":""},{"t":185.08,"note":43,"dur":0.162,"vel":1.0,"inst":"tuba_v0_struck_284","midi_source":""},{"t":185.08,"note":47,"dur":0.162,"vel":1.0,"inst":"tuba_v0_struck_284","midi_source":""},{"t":185.08,"note":62,"dur":0.162,"vel":1.0,"inst":"harp_v0_bowed_168","midi_source":""},{"t":185.08,"note":55,"dur":0.162,"vel":1.0,"inst":"tuba_v0_struck_284","midi_source":""},{"t":185.242,"note":40,"dur":0.162,"vel":1.0,"inst":"harp_v0_bowed_168","midi_source":""},{"t":185.242,"note":43,"dur":0.162,"vel":1.0,"inst":"tuba_v0_struck_284","midi_source":""},{"t":185.242,"note":47,"dur":0.162,"vel":1.0,"inst":"tuba_v0_struck_284","midi_source":""},{"t":185.242,"note":60,"dur":0.162,"vel":1.0,"inst":"harp_v0_bowed_168","midi_source":""},{"t":185.242,"note":64,"dur":0.162,"vel":1.0,"inst":"harp_v0_bowed_168","midi_source":""},{"t":185.405,"note":28,"dur":0.162,"vel":1.0,"inst":"harp_v0_bowed_168","midi_source":""},{"t":185.405,"note":40,"dur":0.162,"vel":1.0,"inst":"harp_v0_bowed_168","midi_source":""},{"t":185.405,"note":59,"dur":0.162,"vel":1.0,"inst":"tuba_v0_struck_284","midi_source":""},{"t":185.405,"note":62,"dur":0.162,"vel":1.0,"inst":"harp_v0_bowed_168","midi_source":""},{"t":185.567,"note":40,"dur":0.162,"vel":1.0,"inst":"harp_v0_bowed_168","midi_source":""},{"t":185.567,"note":43,"dur":0.162,"vel":1.0,"inst":"tuba_v0_struck_284","midi_source":""},{"t":185.567,"note":47,"dur":0.162,"vel":1.0,"inst":"tuba_v0_struck_284","midi_source":""},{"t":185.567,"note":57,"dur":0.162,"vel":1.0,"inst":"tuba_v0_struck_284","midi_source":""},{"t":185.567,"note":60,"dur":0.162,"vel":1.0,"inst":"harp_v0_bowed_168","midi_source":""},{"t":185.729,"note":40,"dur":0.162,"vel":1.0,"inst":"harp_v0_bowed_168","midi_source":""},{"t":185.729,"note":43,"dur":0.162,"vel":1.0,"inst":"tuba_v0_struck_284","midi_source":""},{"t":185.729,"note":47,"dur":0.162,"vel":1.0,"inst":"tuba_v0_struck_284","midi_source":""},{"t":185.729,"note":55,"dur":0.162,"vel":1.0,"inst":"tuba_v0_struck_284","midi_source":""},{"t":185.729,"note":59,"dur":0.162,"vel":1.0,"inst":"tuba_v0_struck_284","midi_source":""},{"t":185.892,"note":33,"dur":0.162,"vel":1.0,"inst":"tuba_v0_struck_284","midi_source":""},{"t":185.892,"note":57,"dur":0.487,"vel":1.0,"inst":"tuba_v0_struck_284","midi_source":""},{"t":186.054,"note":48,"dur":0.162,"vel":1.0,"inst":"harp_v0_bowed_168","midi_source":""},{"t":186.054,"note":52,"dur":0.162,"vel":1.0,"inst":"harp_v0_bowed_168","midi_source":""},{"t":186.217,"note":48,"dur":0.162,"vel":1.0,"inst":"harp_v0_bowed_168","midi_source":""},{"t":186.217,"note":52,"dur":0.162,"vel":1.0,"inst":"harp_v0_bowed_168","midi_source":""},{"t":186.379,"note":45,"dur":0.162,"vel":1.0,"inst":"tuba_v0_struck_284","midi_source":""},{"t":186.379,"note":69,"dur":0.081,"vel":1.0,"inst":"tuba_v0_struck_284","midi_source":""},{"t":186.46,"note":71,"dur":0.081,"vel":1.0,"inst":"tuba_v0_struck_284","midi_source":""},{"t":186.541,"note":48,"dur":0.162,"vel":1.0,"inst":"harp_v0_bowed_168","midi_source":""},{"t":186.541,"note":52,"dur":0.162,"vel":1.0,"inst":"harp_v0_bowed_168","midi_source":""},{"t":186.541,"note":57,"dur":0.162,"vel":1.0,"inst":"tuba_v0_struck_284","midi_source":""},{"t":186.541,"note":72,"dur":0.162,"vel":1.0,"inst":"harp_v0_bowed_168","midi_source":""},{"t":186.704,"note":48,"dur":0.162,"vel":1.0,"inst":"harp_v0_bowed_168","midi_source":""},{"t":186.704,"note":52,"dur":0.162,"vel":1.0,"inst":"harp_v0_bowed_168","midi_source":""},{"t":186.704,"note":57,"dur":0.162,"vel":1.0,"inst":"tuba_v0_struck_284","midi_source":""},{"t":186.704,"note":74,"dur":0.162,"vel":1.0,"inst":"harp_v0_bowed_168","midi_source":""},{"t":186.866,"note":45,"dur":0.162,"vel":1.0,"inst":"tuba_v0_struck_284","midi_source":""},{"t":186.866,"note":76,"dur":0.325,"vel":1.0,"inst":"harp_v0_bowed_168","midi_source":""},{"t":187.029,"note":48,"dur":0.162,"vel":1.0,"inst":"harp_v0_bowed_168","midi_source":""},{"t":187.029,"note":52,"dur":0.162,"vel":1.0,"inst":"harp_v0_bowed_168","midi_source":""},{"t":187.029,"note":57,"dur":0.162,"vel":1.0,"inst":"tuba_v0_struck_284","midi_source":""},{"t":187.191,"note":48,"dur":0.162,"vel":1.0,"inst":"harp_v0_bowed_168","midi_source":""},{"t":187.191,"note":52,"dur":0.162,"vel":1.0,"inst":"harp_v0_bowed_168","midi_source":""},{"t":187.191,"note":57,"dur":0.162,"vel":1.0,"inst":"tuba_v0_struck_284","midi_source":""},{"t":187.191,"note":77,"dur":0.162,"vel":1.0,"inst":"tuba_v0_struck_284","midi_source":""},{"t":187.353,"note":45,"dur":0.162,"vel":1.0,"inst":"tuba_v0_struck_284","midi_source":""},{"t":187.353,"note":77,"dur":0.081,"vel":1.0,"inst":"tuba_v0_struck_284","midi_source":""},{"t":187.353,"note":79,"dur":0.081,"vel":1.0,"inst":"tuba_v0_struck_284","midi_source":""},{"t":187.435,"note":76,"dur":0.081,"vel":1.0,"inst":"harp_v0_bowed_168","midi_source":""},{"t":187.516,"note":48,"dur":0.162,"vel":1.0,"inst":"harp_v0_bowed_168","midi_source":""},{"t":187.516,"note":52,"dur":0.162,"vel":1.0,"inst":"harp_v0_bowed_168","midi_source":""},{"t":187.516,"note":57,"dur":0.162,"vel":1.0,"inst":"tuba_v0_struck_284","midi_source":""},{"t":187.516,"note":76,"dur":0.162,"vel":1.0,"inst":"harp_v0_bowed_168","midi_source":""},{"t":187.678,"note":48,"dur":0.162,"vel":1.0,"inst":"harp_v0_bowed_168","midi_source":""},{"t":187.678,"note":52,"dur":0.162,"vel":1.0,"inst":"harp_v0_bowed_168","midi_source":""},{"t":187.678,"note":57,"dur":0.162,"vel":1.0,"inst":"tuba_v0_struck_284","midi_source":""},{"t":187.678,"note":81,"dur":0.162,"vel":1.0,"inst":"tuba_v0_struck_284","midi_source":""},{"t":187.841,"note":45,"dur":0.162,"vel":1.0,"inst":"tuba_v0_struck_284","midi_source":""},{"t":187.841,"note":76,"dur":0.325,"vel":1.0,"inst":"harp_v0_bowed_168","midi_source":""},{"t":188.003,"note":48,"dur":0.162,"vel":1.0,"inst":"harp_v0_bowed_168","midi_source":""},{"t":188.003,"note":52,"dur":0.162,"vel":1.0,"inst":"harp_v0_bowed_168","midi_source":""},{"t":188.003,"note":57,"dur":0.162,"vel":1.0,"inst":"tuba_v0_struck_284","midi_source":""},{"t":188.165,"note":48,"dur":0.162,"vel":1.0,"inst":"harp_v0_bowed_168","midi_source":""},{"t":188.165,"note":52,"dur":0.162,"vel":1.0,"inst":"harp_v0_bowed_168","midi_source":""},{"t":188.165,"note":57,"dur":0.162,"vel":1.0,"inst":"tuba_v0_struck_284","midi_source":""},{"t":188.165,"note":69,"dur":0.162,"vel":1.0,"inst":"tuba_v0_struck_284","midi_source":""},{"t":188.328,"note":40,"dur":0.162,"vel":1.0,"inst":"harp_v0_bowed_168","midi_source":""},{"t":188.328,"note":71,"dur":0.081,"vel":1.0,"inst":"tuba_v0_struck_284","midi_source":""},{"t":188.409,"note":76,"dur":0.081,"vel":1.0,"inst":"harp_v0_bowed_168","midi_source":""},{"t":188.49,"note":47,"dur":0.162,"vel":1.0,"inst":"tuba_v0_struck_284","midi_source":""},{"t":188.49,"note":52,"dur":0.162,"vel":1.0,"inst":"harp_v0_bowed_168","midi_source":""},{"t":188.49,"note":55,"dur":0.162,"vel":1.0,"inst":"tuba_v0_struck_284","midi_source":""},{"t":188.49,"note":76,"dur":0.162,"vel":1.0,"inst":"harp_v0_bowed_168","midi_source":""},{"t":188.652,"note":47,"dur":0.162,"vel":1.0,"inst":"tuba_v0_struck_284","midi_source":""},{"t":188.652,"note":52,"dur":0.162,"vel":1.0,"inst":"harp_v0_bowed_168","midi_source":""},{"t":188.652,"note":55,"dur":0.162,"vel":1.0,"inst":"tuba_v0_struck_284","midi_source":""},{"t":188.652,"note":71,"dur":0.162,"vel":1.0,"inst":"tuba_v0_struck_284","midi_source":""},{"t":188.815,"note":45,"dur":0.162,"vel":1.0,"inst":"tuba_v0_struck_284","midi_source":""},{"t":188.815,"note":72,"dur":0.325,"vel":1.0,"inst":"harp_v0_bowed_168","midi_source":""},{"t":188.977,"note":48,"dur":0.162,"vel":1.0,"inst":"harp_v0_bowed_168","midi_source":""},{"t":188.977,"note":52,"dur":0.162,"vel":1.0,"inst":"harp_v0_bowed_168","midi_source":""},{"t":188.977,"note":57,"dur":0.162,"vel":1.0,"inst":"tuba_v0_struck_284","midi_source":""},{"t":189.14,"note":48,"dur":0.162,"vel":1.0,"inst":"harp_v0_bowed_168","midi_source":""},{"t":189.14,"note":52,"dur":0.162,"vel":1.0,"inst":"harp_v0_bowed_168","midi_source":""},{"t":189.14,"note":57,"dur":0.162,"vel":1.0,"inst":"tuba_v0_struck_284","midi_source":""},{"t":189.14,"note":69,"dur":0.162,"vel":1.0,"inst":"tuba_v0_struck_284","midi_source":""},{"t":189.302,"note":40,"dur":0.162,"vel":1.0,"inst":"harp_v0_bowed_168","midi_source":""},{"t":189.302,"note":71,"dur":0.081,"vel":1.0,"inst":"tuba_v0_struck_284","midi_source":""},{"t":189.383,"note":76,"dur":0.081,"vel":1.0,"inst":"harp_v0_bowed_168","midi_source":""},{"t":189.464,"note":47,"dur":0.162,"vel":1.0,"inst":"tuba_v0_struck_284","midi_source":""},{"t":189.464,"note":52,"dur":0.162,"vel":1.0,"inst":"harp_v0_bowed_168","midi_source":""},{"t":189.464,"note":55,"dur":0.162,"vel":1.0,"inst":"tuba_v0_struck_284","midi_source":""},{"t":189.464,"note":76,"dur":0.162,"vel":1.0,"inst":"harp_v0_bowed_168","midi_source":""},{"t":189.627,"note":47,"dur":0.162,"vel":1.0,"inst":"tuba_v0_struck_284","midi_source":""},{"t":189.627,"note":52,"dur":0.162,"vel":1.0,"inst":"harp_v0_bowed_168","midi_source":""},{"t":189.627,"note":55,"dur":0.162,"vel":1.0,"inst":"tuba_v0_struck_284","midi_source":""},{"t":189.627,"note":67,"dur":0.162,"vel":1.0,"inst":"tuba_v0_struck_284","midi_source":""},{"t":189.789,"note":45,"dur":0.487,"vel":1.0,"inst":"tuba_v0_struck_284","midi_source":""},{"t":189.789,"note":48,"dur":0.487,"vel":1.0,"inst":"harp_v0_bowed_168","midi_source":""},{"t":189.789,"note":52,"dur":0.487,"vel":1.0,"inst":"harp_v0_bowed_168","midi_source":""},{"t":189.789,"note":57,"dur":0.487,"vel":1.0,"inst":"tuba_v0_struck_284","midi_source":""},{"t":189.789,"note":69,"dur":0.325,"vel":1.0,"inst":"tuba_v0_struck_284","midi_source":""},{"t":190.195,"note":76,"dur":0.081,"vel":1.0,"inst":"harp_v0_bowed_168","midi_source":""},{"t":190.195,"note":67,"dur":0.081,"vel":1.0,"inst":"tuba_v0_struck_284","midi_source":""},{"t":190.195,"note":79,"dur":0.081,"vel":1.0,"inst":"tuba_v0_struck_284","midi_source":""},{"t":190.276,"note":33,"dur":0.162,"vel":1.0,"inst":"tuba_v0_struck_284","midi_source":""},{"t":190.276,"note":40,"dur":0.162,"vel":1.0,"inst":"harp_v0_bowed_168","midi_source":""},{"t":190.276,"note":45,"dur":0.162,"vel":1.0,"inst":"tuba_v0_struck_284","midi_source":""},{"t":190.276,"note":81,"dur":0.081,"vel":1.0,"inst":"tuba_v0_struck_284","midi_source":""},{"t":190.358,"note":79,"dur":0.081,"vel":1.0,"inst":"tuba_v0_struck_284","midi_source":""},{"t":190.439,"note":48,"dur":0.162,"vel":1.0,"inst":"harp_v0_bowed_168","midi_source":""},{"t":190.439,"note":52,"dur":0.162,"vel":1.0,"inst":"harp_v0_bowed_168","midi_source":""},{"t":190.439,"note":77,"dur":0.081,"vel":1.0,"inst":"tuba_v0_struck_284","midi_source":""},{"t":190.52,"note":76,"dur":0.081,"vel":1.0,"inst":"harp_v0_bowed_168","midi_source":""},{"t":190.601,"note":45,"dur":0.162,"vel":1.0,"inst":"tuba_v0_struck_284","midi_source":""},{"t":190.601,"note":48,"dur":0.162,"vel":1.0,"inst":"harp_v0_bowed_168","midi_source":""},{"t":190.601,"note":74,"dur":0.081,"vel":1.0,"inst":"harp_v0_bowed_168","midi_source":""},{"t":190.682,"note":72,"dur":0.081,"vel":1.0,"inst":"harp_v0_bowed_168","midi_source":""},{"t":190.764,"note":28,"dur":0.162,"vel":1.0,"inst":"harp_v0_bowed_168","midi_source":""},{"t":190.764,"note":35,"dur":0.162,"vel":1.0,"inst":"tuba_v0_struck_284","midi_source":""},{"t":190.764,"note":40,"dur":0.162,"vel":1.0,"inst":"harp_v0_bowed_168","midi_source":""},{"t":190.764,"note":77,"dur":0.162,"vel":1.0,"inst":"tuba_v0_struck_284","midi_source":""},{"t":190.926,"note":47,"dur":0.162,"vel":1.0,"inst":"tuba_v0_struck_284","midi_source":""},{"t":190.926,"note":50,"dur":0.162,"vel":1.0,"inst":"harp_v0_bowed_168","midi_source":""},{"t":190.926,"note":76,"dur":0.081,"vel":1.0,"inst":"harp_v0_bowed_168","midi_source":""},{"t":191.007,"note":74,"dur":0.081,"vel":1.0,"inst":"harp_v0_bowed_168","midi_source":""},{"t":191.088,"note":43,"dur":0.162,"vel":1.0,"inst":"tuba_v0_struck_284","midi_source":""},{"t":191.088,"note":47,"dur":0.162,"vel":1.0,"inst":"tuba_v0_struck_284","midi_source":""},{"t":191.088,"note":72,"dur":0.081,"vel":1.0,"inst":"harp_v0_bowed_168","midi_source":""},{"t":191.17,"note":71,"dur":0.081,"vel":1.0,"inst":"tuba_v0_struck_284","midi_source":""},{"t":191.251,"note":28,"dur":0.162,"vel":1.0,"inst":"harp_v0_bowed_168","midi_source":""},{"t":191.251,"note":35,"dur":0.162,"vel":1.0,"inst":"tuba_v0_struck_284","midi_source":""},{"t":191.251,"note":40,"dur":0.162,"vel":1.0,"inst":"harp_v0_bowed_168","midi_source":""},{"t":191.251,"note":77,"dur":0.162,"vel":1.0,"inst":"tuba_v0_struck_284","midi_source":""},{"t":191.413,"note":47,"dur":0.162,"vel":1.0,"inst":"tuba_v0_struck_284","midi_source":""},{"t":191.413,"note":50,"dur":0.162,"vel":1.0,"inst":"harp_v0_bowed_168","midi_source":""},{"t":191.413,"note":76,"dur":0.081,"vel":1.0,"inst":"harp_v0_bowed_168","midi_source":""},{"t":191.494,"note":74,"dur":0.081,"vel":1.0,"inst":"harp_v0_bowed_168","midi_source":""},{"t":191.576,"note":43,"dur":0.162,"vel":1.0,"inst":"tuba_v0_struck_284","midi_source":""},{"t":191.576,"note":47,"dur":0.162,"vel":1.0,"inst":"tuba_v0_struck_284","midi_source":""},{"t":191.576,"note":72,"dur":0.081,"vel":1.0,"inst":"harp_v0_bowed_168","midi_source":""},{"t":191.738,"note":28,"dur":0.162,"vel":1.0,"inst":"harp_v0_bowed_168","midi_source":""},{"t":191.738,"note":40,"dur":0.162,"vel":1.0,"inst":"harp_v0_bowed_168","midi_source":""},{"t":191.738,"note":59,"dur":0.325,"vel":1.0,"inst":"tuba_v0_struck_284","midi_source":""},{"t":191.738,"note":62,"dur":0.325,"vel":1.0,"inst":"harp_v0_bowed_168","midi_source":""},{"t":191.9,"note":40,"dur":0.162,"vel":1.0,"inst":"harp_v0_bowed_168","midi_source":""},{"t":191.9,"note":43,"dur":0.162,"vel":1.0,"inst":"tuba_v0_struck_284","midi_source":""},{"t":191.9,"note":47,"dur":0.162,"vel":1.0,"inst":"tuba_v0_struck_284","midi_source":""},{"t":192.063,"note":40,"dur":0.162,"vel":1.0,"inst":"harp_v0_bowed_168","midi_source":""},{"t":192.063,"note":43,"dur":0.162,"vel":1.0,"inst":"tuba_v0_struck_284","midi_source":""},{"t":192.063,"note":47,"dur":0.162,"vel":1.0,"inst":"tuba_v0_struck_284","midi_source":""},{"t":192.063,"note":59,"dur":0.162,"vel":1.0,"inst":"tuba_v0_struck_284","midi_source":""},{"t":192.063,"note":62,"dur":0.162,"vel":1.0,"inst":"harp_v0_bowed_168","midi_source":""},{"t":192.225,"note":28,"dur":0.162,"vel":1.0,"inst":"harp_v0_bowed_168","midi_source":""},{"t":192.225,"note":40,"dur":0.162,"vel":1.0,"inst":"harp_v0_bowed_168","midi_source":""},{"t":192.225,"note":59,"dur":0.325,"vel":1.0,"inst":"tuba_v0_struck_284","midi_source":""},{"t":192.225,"note":62,"dur":0.325,"vel":1.0,"inst":"harp_v0_bowed_168","midi_source":""},{"t":192.388,"note":40,"dur":0.162,"vel":1.0,"inst":"harp_v0_bowed_168","midi_source":""},{"t":192.388,"note":43,"dur":0.162,"vel":1.0,"inst":"tuba_v0_struck_284","midi_source":""},{"t":192.388,"note":47,"dur":0.162,"vel":1.0,"inst":"tuba_v0_struck_284","midi_source":""},{"t":192.55,"note":40,"dur":0.162,"vel":1.0,"inst":"harp_v0_bowed_168","midi_source":""},{"t":192.55,"note":43,"dur":0.162,"vel":1.0,"inst":"tuba_v0_struck_284","midi_source":""},{"t":192.55,"note":47,"dur":0.162,"vel":1.0,"inst":"tuba_v0_struck_284","midi_source":""},{"t":192.55,"note":59,"dur":0.162,"vel":1.0,"inst":"tuba_v0_struck_284","midi_source":""},{"t":192.55,"note":62,"dur":0.162,"vel":1.0,"inst":"harp_v0_bowed_168","midi_source":""},{"t":192.712,"note":28,"dur":0.162,"vel":1.0,"inst":"harp_v0_bowed_168","midi_source":""},{"t":192.712,"note":40,"dur":0.162,"vel":1.0,"inst":"harp_v0_bowed_168","midi_source":""},{"t":192.712,"note":64,"dur":0.162,"vel":1.0,"inst":"harp_v0_bowed_168","midi_source":""},{"t":192.712,"note":67,"dur":0.162,"vel":1.0,"inst":"tuba_v0_struck_284","midi_source":""},{"t":192.875,"note":40,"dur":0.162,"vel":1.0,"inst":"harp_v0_bowed_168","midi_source":""},{"t":192.875,"note":43,"dur":0.162,"vel":1.0,"inst":"tuba_v0_struck_284","midi_source":""},{"t":192.875,"note":47,"dur":0.162,"vel":1.0,"inst":"tuba_v0_struck_284","midi_source":""},{"t":192.875,"note":62,"dur":0.162,"vel":1.0,"inst":"harp_v0_bowed_168","midi_source":""},{"t":192.875,"note":55,"dur":0.162,"vel":1.0,"inst":"tuba_v0_struck_284","midi_source":""},{"t":193.037,"note":40,"dur":0.162,"vel":1.0,"inst":"harp_v0_bowed_168","midi_source":""},{"t":193.037,"note":43,"dur":0.162,"vel":1.0,"inst":"tuba_v0_struck_284","midi_source":""},{"t":193.037,"note":47,"dur":0.162,"vel":1.0,"inst":"tuba_v0_struck_284","midi_source":""},{"t":193.037,"note":60,"dur":0.162,"vel":1.0,"inst":"harp_v0_bowed_168","midi_source":""},{"t":193.037,"note":64,"dur":0.162,"vel":1.0,"inst":"harp_v0_bowed_168","midi_source":""},{"t":193.2,"note":28,"dur":0.162,"vel":1.0,"inst":"harp_v0_bowed_168","midi_source":""},{"t":193.2,"note":40,"dur":0.162,"vel":1.0,"inst":"harp_v0_bowed_168","midi_source":""},{"t":193.2,"note":59,"dur":0.162,"vel":1.0,"inst":"tuba_v0_struck_284","midi_source":""},{"t":193.2,"note":62,"dur":0.162,"vel":1.0,"inst":"harp_v0_bowed_168","midi_source":""},{"t":193.362,"note":40,"dur":0.162,"vel":1.0,"inst":"harp_v0_bowed_168","midi_source":""},{"t":193.362,"note":43,"dur":0.162,"vel":1.0,"inst":"tuba_v0_struck_284","midi_source":""},{"t":193.362,"note":47,"dur":0.162,"vel":1.0,"inst":"tuba_v0_struck_284","midi_source":""},{"t":193.362,"note":57,"dur":0.162,"vel":1.0,"inst":"tuba_v0_struck_284","midi_source":""},{"t":193.362,"note":60,"dur":0.162,"vel":1.0,"inst":"harp_v0_bowed_168","midi_source":""},{"t":193.524,"note":40,"dur":0.162,"vel":1.0,"inst":"harp_v0_bowed_168","midi_source":""},{"t":193.524,"note":43,"dur":0.162,"vel":1.0,"inst":"tuba_v0_struck_284","midi_source":""},{"t":193.524,"note":47,"dur":0.162,"vel":1.0,"inst":"tuba_v0_struck_284","midi_source":""},{"t":193.524,"note":55,"dur":0.162,"vel":1.0,"inst":"tuba_v0_struck_284","midi_source":""},{"t":193.524,"note":59,"dur":0.162,"vel":1.0,"inst":"tuba_v0_struck_284","midi_source":""},{"t":193.687,"note":33,"dur":0.162,"vel":1.0,"inst":"tuba_v0_struck_284","midi_source":""},{"t":193.687,"note":57,"dur":0.487,"vel":1.0,"inst":"tuba_v0_struck_284","midi_source":""},{"t":193.849,"note":48,"dur":0.162,"vel":1.0,"inst":"harp_v0_bowed_168","midi_source":""},{"t":193.849,"note":52,"dur":0.162,"vel":1.0,"inst":"harp_v0_bowed_168","midi_source":""},{"t":194.012,"note":48,"dur":0.162,"vel":1.0,"inst":"harp_v0_bowed_168","midi_source":""},{"t":194.012,"note":52,"dur":0.162,"vel":1.0,"inst":"harp_v0_bowed_168","midi_source":""},{"t":194.174,"note":45,"dur":0.162,"vel":1.0,"inst":"tuba_v0_struck_284","midi_source":""},{"t":194.174,"note":69,"dur":0.081,"vel":1.0,"inst":"tuba_v0_struck_284","midi_source":""},{"t":194.255,"note":71,"dur":0.081,"vel":1.0,"inst":"tuba_v0_struck_284","midi_source":""},{"t":194.336,"note":48,"dur":0.162,"vel":1.0,"inst":"harp_v0_bowed_168","midi_source":""},{"t":194.336,"note":52,"dur":0.162,"vel":1.0,"inst":"harp_v0_bowed_168","midi_source":""},{"t":194.336,"note":57,"dur":0.162,"vel":1.0,"inst":"tuba_v0_struck_284","midi_source":""},{"t":194.336,"note":72,"dur":0.162,"vel":1.0,"inst":"harp_v0_bowed_168","midi_source":""},{"t":194.499,"note":48,"dur":0.162,"vel":1.0,"inst":"harp_v0_bowed_168","midi_source":""},{"t":194.499,"note":52,"dur":0.162,"vel":1.0,"inst":"harp_v0_bowed_168","midi_source":""},{"t":194.499,"note":57,"dur":0.162,"vel":1.0,"inst":"tuba_v0_struck_284","midi_source":""},{"t":194.499,"note":74,"dur":0.162,"vel":1.0,"inst":"harp_v0_bowed_168","midi_source":""},{"t":194.661,"note":45,"dur":0.162,"vel":1.0,"inst":"tuba_v0_struck_284","midi_source":""},{"t":194.661,"note":76,"dur":0.325,"vel":1.0,"inst":"harp_v0_bowed_168","midi_source":""},{"t":194.823,"note":48,"dur":0.162,"vel":1.0,"inst":"harp_v0_bowed_168","midi_source":""},{"t":194.823,"note":52,"dur":0.162,"vel":1.0,"inst":"harp_v0_bowed_168","midi_source":""},{"t":194.823,"note":57,"dur":0.162,"vel":1.0,"inst":"tuba_v0_struck_284","midi_source":""},{"t":194.986,"note":48,"dur":0.162,"vel":1.0,"inst":"harp_v0_bowed_168","midi_source":""},{"t":194.986,"note":52,"dur":0.162,"vel":1.0,"inst":"harp_v0_bowed_168","midi_source":""},{"t":194.986,"note":57,"dur":0.162,"vel":1.0,"inst":"tuba_v0_struck_284","midi_source":""},{"t":194.986,"note":77,"dur":0.162,"vel":1.0,"inst":"tuba_v0_struck_284","midi_source":""},{"t":195.148,"note":45,"dur":0.162,"vel":1.0,"inst":"tuba_v0_struck_284","midi_source":""},{"t":195.148,"note":77,"dur":0.081,"vel":1.0,"inst":"tuba_v0_struck_284","midi_source":""},{"t":195.148,"note":79,"dur":0.081,"vel":1.0,"inst":"tuba_v0_struck_284","midi_source":""},{"t":195.229,"note":76,"dur":0.081,"vel":1.0,"inst":"harp_v0_bowed_168","midi_source":""},{"t":195.311,"note":48,"dur":0.162,"vel":1.0,"inst":"harp_v0_bowed_168","midi_source":""},{"t":195.311,"note":52,"dur":0.162,"vel":1.0,"inst":"harp_v0_bowed_168","midi_source":""},{"t":195.311,"note":57,"dur":0.162,"vel":1.0,"inst":"tuba_v0_struck_284","midi_source":""},{"t":195.311,"note":76,"dur":0.162,"vel":1.0,"inst":"harp_v0_bowed_168","midi_source":""},{"t":195.473,"note":48,"dur":0.162,"vel":1.0,"inst":"harp_v0_bowed_168","midi_source":""},{"t":195.473,"note":52,"dur":0.162,"vel":1.0,"inst":"harp_v0_bowed_168","midi_source":""},{"t":195.473,"note":57,"dur":0.162,"vel":1.0,"inst":"tuba_v0_struck_284","midi_source":""},{"t":195.473,"note":81,"dur":0.162,"vel":1.0,"inst":"tuba_v0_struck_284","midi_source":""},{"t":195.635,"note":45,"dur":0.162,"vel":1.0,"inst":"tuba_v0_struck_284","midi_source":""},{"t":195.635,"note":76,"dur":0.325,"vel":1.0,"inst":"harp_v0_bowed_168","midi_source":""},{"t":195.798,"note":48,"dur":0.162,"vel":1.0,"inst":"harp_v0_bowed_168","midi_source":""},{"t":195.798,"note":52,"dur":0.162,"vel":1.0,"inst":"harp_v0_bowed_168","midi_source":""},{"t":195.798,"note":57,"dur":0.162,"vel":1.0,"inst":"tuba_v0_struck_284","midi_source":""},{"t":195.96,"note":48,"dur":0.162,"vel":1.0,"inst":"harp_v0_bowed_168","midi_source":""},{"t":195.96,"note":52,"dur":0.162,"vel":1.0,"inst":"harp_v0_bowed_168","midi_source":""},{"t":195.96,"note":57,"dur":0.162,"vel":1.0,"inst":"tuba_v0_struck_284","midi_source":""},{"t":195.96,"note":69,"dur":0.162,"vel":1.0,"inst":"tuba_v0_struck_284","midi_source":""},{"t":196.123,"note":40,"dur":0.162,"vel":1.0,"inst":"harp_v0_bowed_168","midi_source":""},{"t":196.123,"note":71,"dur":0.081,"vel":1.0,"inst":"tuba_v0_struck_284","midi_source":""},{"t":196.204,"note":76,"dur":0.081,"vel":1.0,"inst":"harp_v0_bowed_168","midi_source":""},{"t":196.285,"note":47,"dur":0.162,"vel":1.0,"inst":"tuba_v0_struck_284","midi_source":""},{"t":196.285,"note":52,"dur":0.162,"vel":1.0,"inst":"harp_v0_bowed_168","midi_source":""},{"t":196.285,"note":55,"dur":0.162,"vel":1.0,"inst":"tuba_v0_struck_284","midi_source":""},{"t":196.285,"note":76,"dur":0.162,"vel":1.0,"inst":"harp_v0_bowed_168","midi_source":""},{"t":196.447,"note":47,"dur":0.162,"vel":1.0,"inst":"tuba_v0_struck_284","midi_source":""},{"t":196.447,"note":52,"dur":0.162,"vel":1.0,"inst":"harp_v0_bowed_168","midi_source":""},{"t":196.447,"note":55,"dur":0.162,"vel":1.0,"inst":"tuba_v0_struck_284","midi_source":""},{"t":196.447,"note":71,"dur":0.162,"vel":1.0,"inst":"tuba_v0_struck_284","midi_source":""},{"t":196.61,"note":45,"dur":0.162,"vel":1.0,"inst":"tuba_v0_struck_284","midi_source":""},{"t":196.61,"note":72,"dur":0.325,"vel":1.0,"inst":"harp_v0_bowed_168","midi_source":""},{"t":196.772,"note":48,"dur":0.162,"vel":1.0,"inst":"harp_v0_bowed_168","midi_source":""},{"t":196.772,"note":52,"dur":0.162,"vel":1.0,"inst":"harp_v0_bowed_168","midi_source":""},{"t":196.772,"note":57,"dur":0.162,"vel":1.0,"inst":"tuba_v0_struck_284","midi_source":""},{"t":196.935,"note":48,"dur":0.162,"vel":1.0,"inst":"harp_v0_bowed_168","midi_source":""},{"t":196.935,"note":52,"dur":0.162,"vel":1.0,"inst":"harp_v0_bowed_168","midi_source":""},{"t":196.935,"note":57,"dur":0.162,"vel":1.0,"inst":"tuba_v0_struck_284","midi_source":""},{"t":196.935,"note":69,"dur":0.162,"vel":1.0,"inst":"tuba_v0_struck_284","midi_source":""},{"t":197.097,"note":40,"dur":0.162,"vel":1.0,"inst":"harp_v0_bowed_168","midi_source":""},{"t":197.097,"note":71,"dur":0.081,"vel":1.0,"inst":"tuba_v0_struck_284","midi_source":""},{"t":197.178,"note":76,"dur":0.081,"vel":1.0,"inst":"harp_v0_bowed_168","midi_source":""},{"t":197.259,"note":47,"dur":0.162,"vel":1.0,"inst":"tuba_v0_struck_284","midi_source":""},{"t":197.259,"note":52,"dur":0.162,"vel":1.0,"inst":"harp_v0_bowed_168","midi_source":""},{"t":197.259,"note":55,"dur":0.162,"vel":1.0,"inst":"tuba_v0_struck_284","midi_source":""},{"t":197.259,"note":76,"dur":0.162,"vel":1.0,"inst":"harp_v0_bowed_168","midi_source":""},{"t":197.422,"note":47,"dur":0.162,"vel":1.0,"inst":"tuba_v0_struck_284","midi_source":""},{"t":197.422,"note":52,"dur":0.162,"vel":1.0,"inst":"harp_v0_bowed_168","midi_source":""},{"t":197.422,"note":55,"dur":0.162,"vel":1.0,"inst":"tuba_v0_struck_284","midi_source":""},{"t":197.422,"note":67,"dur":0.162,"vel":1.0,"inst":"tuba_v0_struck_284","midi_source":""},{"t":197.584,"note":45,"dur":0.487,"vel":1.0,"inst":"tuba_v0_struck_284","midi_source":""},{"t":197.584,"note":48,"dur":0.487,"vel":1.0,"inst":"harp_v0_bowed_168","midi_source":""},{"t":197.584,"note":52,"dur":0.487,"vel":1.0,"inst":"harp_v0_bowed_168","midi_source":""},{"t":197.584,"note":57,"dur":0.487,"vel":1.0,"inst":"tuba_v0_struck_284","midi_source":""},{"t":197.584,"note":69,"dur":0.325,"vel":1.0,"inst":"tuba_v0_struck_284","midi_source":""},{"t":197.99,"note":76,"dur":0.081,"vel":1.0,"inst":"harp_v0_bowed_168","midi_source":""},{"t":197.99,"note":67,"dur":0.081,"vel":1.0,"inst":"tuba_v0_struck_284","midi_source":""},{"t":197.99,"note":79,"dur":0.081,"vel":1.0,"inst":"tuba_v0_struck_284","midi_source":""},{"t":198.071,"note":33,"dur":0.162,"vel":1.0,"inst":"tuba_v0_struck_284","midi_source":""},{"t":198.071,"note":40,"dur":0.162,"vel":1.0,"inst":"harp_v0_bowed_168","midi_source":""},{"t":198.071,"note":45,"dur":0.162,"vel":1.0,"inst":"tuba_v0_struck_284","midi_source":""},{"t":198.071,"note":81,"dur":0.081,"vel":1.0,"inst":"tuba_v0_struck_284","midi_source":""},{"t":198.153,"note":79,"dur":0.081,"vel":1.0,"inst":"tuba_v0_struck_284","midi_source":""},{"t":198.234,"note":48,"dur":0.162,"vel":1.0,"inst":"harp_v0_bowed_168","midi_source":""},{"t":198.234,"note":52,"dur":0.162,"vel":1.0,"inst":"harp_v0_bowed_168","midi_source":""},{"t":198.234,"note":77,"dur":0.081,"vel":1.0,"inst":"tuba_v0_struck_284","midi_source":""},{"t":198.315,"note":76,"dur":0.081,"vel":1.0,"inst":"harp_v0_bowed_168","midi_source":""},{"t":198.396,"note":45,"dur":0.162,"vel":1.0,"inst":"tuba_v0_struck_284","midi_source":""},{"t":198.396,"note":48,"dur":0.162,"vel":1.0,"inst":"harp_v0_bowed_168","midi_source":""},{"t":198.396,"note":74,"dur":0.081,"vel":1.0,"inst":"harp_v0_bowed_168","midi_source":""},{"t":198.477,"note":72,"dur":0.081,"vel":1.0,"inst":"harp_v0_bowed_168","midi_source":""},{"t":198.559,"note":28,"dur":0.162,"vel":1.0,"inst":"harp_v0_bowed_168","midi_source":""},{"t":198.559,"note":35,"dur":0.162,"vel":1.0,"inst":"tuba_v0_struck_284","midi_source":""},{"t":198.559,"note":40,"dur":0.162,"vel":1.0,"inst":"harp_v0_bowed_168","midi_source":""},{"t":198.559,"note":77,"dur":0.162,"vel":1.0,"inst":"tuba_v0_struck_284","midi_source":""},{"t":198.721,"note":47,"dur":0.162,"vel":1.0,"inst":"tuba_v0_struck_284","midi_source":""},{"t":198.721,"note":50,"dur":0.162,"vel":1.0,"inst":"harp_v0_bowed_168","midi_source":""},{"t":198.721,"note":76,"dur":0.081,"vel":1.0,"inst":"harp_v0_bowed_168","midi_source":""},{"t":198.802,"note":74,"dur":0.081,"vel":1.0,"inst":"harp_v0_bowed_168","midi_source":""},{"t":198.883,"note":43,"dur":0.162,"vel":1.0,"inst":"tuba_v0_struck_284","midi_source":""},{"t":198.883,"note":47,"dur":0.162,"vel":1.0,"inst":"tuba_v0_struck_284","midi_source":""},{"t":198.883,"note":72,"dur":0.081,"vel":1.0,"inst":"harp_v0_bowed_168","midi_source":""},{"t":198.965,"note":71,"dur":0.081,"vel":1.0,"inst":"tuba_v0_struck_284","midi_source":""},{"t":199.046,"note":28,"dur":0.162,"vel":1.0,"inst":"harp_v0_bowed_168","midi_source":""},{"t":199.046,"note":35,"dur":0.162,"vel":1.0,"inst":"tuba_v0_struck_284","midi_source":""},{"t":199.046,"note":40,"dur":0.162,"vel":1.0,"inst":"harp_v0_bowed_168","midi_source":""},{"t":199.046,"note":77,"dur":0.162,"vel":1.0,"inst":"tuba_v0_struck_284","midi_source":""},{"t":199.208,"note":47,"dur":0.162,"vel":1.0,"inst":"tuba_v0_struck_284","midi_source":""},{"t":199.208,"note":50,"dur":0.162,"vel":1.0,"inst":"harp_v0_bowed_168","midi_source":""},{"t":199.208,"note":76,"dur":0.081,"vel":1.0,"inst":"harp_v0_bowed_168","midi_source":""},{"t":199.289,"note":74,"dur":0.081,"vel":1.0,"inst":"harp_v0_bowed_168","midi_source":""},{"t":199.371,"note":43,"dur":0.162,"vel":1.0,"inst":"tuba_v0_struck_284","midi_source":""},{"t":199.371,"note":47,"dur":0.162,"vel":1.0,"inst":"tuba_v0_struck_284","midi_source":""},{"t":199.371,"note":72,"dur":0.081,"vel":1.0,"inst":"harp_v0_bowed_168","midi_source":""},{"t":199.533,"note":28,"dur":0.162,"vel":1.0,"inst":"harp_v0_bowed_168","midi_source":""},{"t":199.533,"note":40,"dur":0.162,"vel":1.0,"inst":"harp_v0_bowed_168","midi_source":""},{"t":199.533,"note":59,"dur":0.325,"vel":1.0,"inst":"tuba_v0_struck_284","midi_source":""},{"t":199.533,"note":62,"dur":0.325,"vel":1.0,"inst":"harp_v0_bowed_168","midi_source":""},{"t":199.695,"note":40,"dur":0.162,"vel":1.0,"inst":"harp_v0_bowed_168","midi_source":""},{"t":199.695,"note":43,"dur":0.162,"vel":1.0,"inst":"tuba_v0_struck_284","midi_source":""},{"t":199.695,"note":47,"dur":0.162,"vel":1.0,"inst":"tuba_v0_struck_284","midi_source":""},{"t":199.858,"note":40,"dur":0.162,"vel":1.0,"inst":"harp_v0_bowed_168","midi_source":""},{"t":199.858,"note":43,"dur":0.162,"vel":1.0,"inst":"tuba_v0_struck_284","midi_source":""},{"t":199.858,"note":47,"dur":0.162,"vel":1.0,"inst":"tuba_v0_struck_284","midi_source":""},{"t":199.858,"note":59,"dur":0.162,"vel":1.0,"inst":"tuba_v0_struck_284","midi_source":""},{"t":199.858,"note":62,"dur":0.162,"vel":1.0,"inst":"harp_v0_bowed_168","midi_source":""},{"t":200.02,"note":28,"dur":0.162,"vel":1.0,"inst":"harp_v0_bowed_168","midi_source":""},{"t":200.02,"note":40,"dur":0.162,"vel":1.0,"inst":"harp_v0_bowed_168","midi_source":""},{"t":200.02,"note":59,"dur":0.325,"vel":1.0,"inst":"tuba_v0_struck_284","midi_source":""},{"t":200.02,"note":62,"dur":0.325,"vel":1.0,"inst":"harp_v0_bowed_168","midi_source":""},{"t":200.182,"note":40,"dur":0.162,"vel":1.0,"inst":"harp_v0_bowed_168","midi_source":""},{"t":200.182,"note":43,"dur":0.162,"vel":1.0,"inst":"tuba_v0_struck_284","midi_source":""},{"t":200.182,"note":47,"dur":0.162,"vel":1.0,"inst":"tuba_v0_struck_284","midi_source":""},{"t":200.345,"note":40,"dur":0.162,"vel":1.0,"inst":"harp_v0_bowed_168","midi_source":""},{"t":200.345,"note":43,"dur":0.162,"vel":1.0,"inst":"tuba_v0_struck_284","midi_source":""},{"t":200.345,"note":47,"dur":0.162,"vel":1.0,"inst":"tuba_v0_struck_284","midi_source":""},{"t":200.345,"note":59,"dur":0.162,"vel":1.0,"inst":"tuba_v0_struck_284","midi_source":""},{"t":200.345,"note":62,"dur":0.162,"vel":1.0,"inst":"harp_v0_bowed_168","midi_source":""},{"t":200.507,"note":28,"dur":0.162,"vel":1.0,"inst":"harp_v0_bowed_168","midi_source":""},{"t":200.507,"note":40,"dur":0.162,"vel":1.0,"inst":"harp_v0_bowed_168","midi_source":""},{"t":200.507,"note":64,"dur":0.162,"vel":1.0,"inst":"harp_v0_bowed_168","midi_source":""},{"t":200.507,"note":67,"dur":0.162,"vel":1.0,"inst":"tuba_v0_struck_284","midi_source":""},{"t":200.67,"note":40,"dur":0.162,"vel":1.0,"inst":"harp_v0_bowed_168","midi_source":""},{"t":200.67,"note":43,"dur":0.162,"vel":1.0,"inst":"tuba_v0_struck_284","midi_source":""},{"t":200.67,"note":47,"dur":0.162,"vel":1.0,"inst":"tuba_v0_struck_284","midi_source":""},{"t":200.67,"note":62,"dur":0.162,"vel":1.0,"inst":"harp_v0_bowed_168","midi_source":""},{"t":200.67,"note":55,"dur":0.162,"vel":1.0,"inst":"tuba_v0_struck_284","midi_source":""},{"t":200.832,"note":40,"dur":0.162,"vel":1.0,"inst":"harp_v0_bowed_168","midi_source":""},{"t":200.832,"note":43,"dur":0.162,"vel":1.0,"inst":"tuba_v0_struck_284","midi_source":""},{"t":200.832,"note":47,"dur":0.162,"vel":1.0,"inst":"tuba_v0_struck_284","midi_source":""},{"t":200.832,"note":60,"dur":0.162,"vel":1.0,"inst":"harp_v0_bowed_168","midi_source":""},{"t":200.832,"note":64,"dur":0.162,"vel":1.0,"inst":"harp_v0_bowed_168","midi_source":""},{"t":200.994,"note":28,"dur":0.162,"vel":1.0,"inst":"harp_v0_bowed_168","midi_source":""},{"t":200.994,"note":40,"dur":0.162,"vel":1.0,"inst":"harp_v0_bowed_168","midi_source":""},{"t":200.994,"note":59,"dur":0.162,"vel":1.0,"inst":"tuba_v0_struck_284","midi_source":""},{"t":200.994,"note":62,"dur":0.162,"vel":1.0,"inst":"harp_v0_bowed_168","midi_source":""},{"t":201.157,"note":40,"dur":0.162,"vel":1.0,"inst":"harp_v0_bowed_168","midi_source":""},{"t":201.157,"note":43,"dur":0.162,"vel":1.0,"inst":"tuba_v0_struck_284","midi_source":""},{"t":201.157,"note":47,"dur":0.162,"vel":1.0,"inst":"tuba_v0_struck_284","midi_source":""},{"t":201.157,"note":57,"dur":0.162,"vel":1.0,"inst":"tuba_v0_struck_284","midi_source":""},{"t":201.157,"note":60,"dur":0.162,"vel":1.0,"inst":"harp_v0_bowed_168","midi_source":""},{"t":201.319,"note":40,"dur":0.162,"vel":1.0,"inst":"harp_v0_bowed_168","midi_source":""},{"t":201.319,"note":43,"dur":0.162,"vel":1.0,"inst":"tuba_v0_struck_284","midi_source":""},{"t":201.319,"note":47,"dur":0.162,"vel":1.0,"inst":"tuba_v0_struck_284","midi_source":""},{"t":201.319,"note":55,"dur":0.162,"vel":1.0,"inst":"tuba_v0_struck_284","midi_source":""},{"t":201.319,"note":59,"dur":0.162,"vel":1.0,"inst":"tuba_v0_struck_284","midi_source":""},{"t":201.482,"note":33,"dur":0.162,"vel":1.0,"inst":"tuba_v0_struck_284","midi_source":""},{"t":201.482,"note":57,"dur":0.487,"vel":1.0,"inst":"tuba_v0_struck_284","midi_source":""},{"t":201.644,"note":48,"dur":0.162,"vel":1.0,"inst":"harp_v0_bowed_168","midi_source":""},{"t":201.644,"note":52,"dur":0.162,"vel":1.0,"inst":"harp_v0_bowed_168","midi_source":""},{"t":201.806,"note":48,"dur":0.162,"vel":1.0,"inst":"harp_v0_bowed_168","midi_source":""},{"t":201.806,"note":52,"dur":0.162,"vel":1.0,"inst":"harp_v0_bowed_168","midi_source":""},{"t":201.969,"note":45,"dur":0.162,"vel":1.0,"inst":"tuba_v0_struck_284","midi_source":""},{"t":201.969,"note":69,"dur":0.081,"vel":1.0,"inst":"tuba_v0_struck_284","midi_source":""},{"t":202.05,"note":71,"dur":0.081,"vel":1.0,"inst":"tuba_v0_struck_284","midi_source":""},{"t":202.131,"note":48,"dur":0.162,"vel":1.0,"inst":"harp_v0_bowed_168","midi_source":""},{"t":202.131,"note":52,"dur":0.162,"vel":1.0,"inst":"harp_v0_bowed_168","midi_source":""},{"t":202.131,"note":57,"dur":0.162,"vel":1.0,"inst":"tuba_v0_struck_284","midi_source":""},{"t":202.131,"note":72,"dur":0.162,"vel":1.0,"inst":"harp_v0_bowed_168","midi_source":""},{"t":202.294,"note":48,"dur":0.162,"vel":1.0,"inst":"harp_v0_bowed_168","midi_source":""},{"t":202.294,"note":52,"dur":0.162,"vel":1.0,"inst":"harp_v0_bowed_168","midi_source":""},{"t":202.294,"note":57,"dur":0.162,"vel":1.0,"inst":"tuba_v0_struck_284","midi_source":""},{"t":202.294,"note":74,"dur":0.162,"vel":1.0,"inst":"harp_v0_bowed_168","midi_source":""},{"t":202.456,"note":45,"dur":0.162,"vel":1.0,"inst":"tuba_v0_struck_284","midi_source":""},{"t":202.456,"note":76,"dur":0.325,"vel":1.0,"inst":"harp_v0_bowed_168","midi_source":""},{"t":202.618,"note":48,"dur":0.162,"vel":1.0,"inst":"harp_v0_bowed_168","midi_source":""},{"t":202.618,"note":52,"dur":0.162,"vel":1.0,"inst":"harp_v0_bowed_168","midi_source":""},{"t":202.618,"note":57,"dur":0.162,"vel":1.0,"inst":"tuba_v0_struck_284","midi_source":""},{"t":202.781,"note":48,"dur":0.162,"vel":1.0,"inst":"harp_v0_bowed_168","midi_source":""},{"t":202.781,"note":52,"dur":0.162,"vel":1.0,"inst":"harp_v0_bowed_168","midi_source":""},{"t":202.781,"note":57,"dur":0.162,"vel":1.0,"inst":"tuba_v0_struck_284","midi_source":""},{"t":202.781,"note":77,"dur":0.162,"vel":1.0,"inst":"tuba_v0_struck_284","midi_source":""},{"t":202.943,"note":45,"dur":0.162,"vel":1.0,"inst":"tuba_v0_struck_284","midi_source":""},{"t":202.943,"note":77,"dur":0.081,"vel":1.0,"inst":"tuba_v0_struck_284","midi_source":""},{"t":202.943,"note":79,"dur":0.081,"vel":1.0,"inst":"tuba_v0_struck_284","midi_source":""},{"t":203.024,"note":76,"dur":0.081,"vel":1.0,"inst":"harp_v0_bowed_168","midi_source":""},{"t":203.106,"note":48,"dur":0.162,"vel":1.0,"inst":"harp_v0_bowed_168","midi_source":""},{"t":203.106,"note":52,"dur":0.162,"vel":1.0,"inst":"harp_v0_bowed_168","midi_source":""},{"t":203.106,"note":57,"dur":0.162,"vel":1.0,"inst":"tuba_v0_struck_284","midi_source":""},{"t":203.106,"note":76,"dur":0.162,"vel":1.0,"inst":"harp_v0_bowed_168","midi_source":""},{"t":203.268,"note":48,"dur":0.162,"vel":1.0,"inst":"harp_v0_bowed_168","midi_source":""},{"t":203.268,"note":52,"dur":0.162,"vel":1.0,"inst":"harp_v0_bowed_168","midi_source":""},{"t":203.268,"note":57,"dur":0.162,"vel":1.0,"inst":"tuba_v0_struck_284","midi_source":""},{"t":203.268,"note":81,"dur":0.162,"vel":1.0,"inst":"tuba_v0_struck_284","midi_source":""},{"t":203.43,"note":45,"dur":0.162,"vel":1.0,"inst":"tuba_v0_struck_284","midi_source":""},{"t":203.43,"note":76,"dur":0.325,"vel":1.0,"inst":"harp_v0_bowed_168","midi_source":""},{"t":203.593,"note":48,"dur":0.162,"vel":1.0,"inst":"harp_v0_bowed_168","midi_source":""},{"t":203.593,"note":52,"dur":0.162,"vel":1.0,"inst":"harp_v0_bowed_168","midi_source":""},{"t":203.593,"note":57,"dur":0.162,"vel":1.0,"inst":"tuba_v0_struck_284","midi_source":""},{"t":203.755,"note":48,"dur":0.162,"vel":1.0,"inst":"harp_v0_bowed_168","midi_source":""},{"t":203.755,"note":52,"dur":0.162,"vel":1.0,"inst":"harp_v0_bowed_168","midi_source":""},{"t":203.755,"note":57,"dur":0.162,"vel":1.0,"inst":"tuba_v0_struck_284","midi_source":""},{"t":203.755,"note":69,"dur":0.162,"vel":1.0,"inst":"tuba_v0_struck_284","midi_source":""},{"t":203.918,"note":40,"dur":0.162,"vel":1.0,"inst":"harp_v0_bowed_168","midi_source":""},{"t":203.918,"note":71,"dur":0.081,"vel":1.0,"inst":"tuba_v0_struck_284","midi_source":""},{"t":203.999,"note":76,"dur":0.081,"vel":1.0,"inst":"harp_v0_bowed_168","midi_source":""},{"t":204.08,"note":47,"dur":0.162,"vel":1.0,"inst":"tuba_v0_struck_284","midi_source":""},{"t":204.08,"note":52,"dur":0.162,"vel":1.0,"inst":"harp_v0_bowed_168","midi_source":""},{"t":204.08,"note":55,"dur":0.162,"vel":1.0,"inst":"tuba_v0_struck_284","midi_source":""},{"t":204.08,"note":76,"dur":0.162,"vel":1.0,"inst":"harp_v0_bowed_168","midi_source":""},{"t":204.242,"note":47,"dur":0.162,"vel":1.0,"inst":"tuba_v0_struck_284","midi_source":""},{"t":204.242,"note":52,"dur":0.162,"vel":1.0,"inst":"harp_v0_bowed_168","midi_source":""},{"t":204.242,"note":55,"dur":0.162,"vel":1.0,"inst":"tuba_v0_struck_284","midi_source":""},{"t":204.242,"note":71,"dur":0.162,"vel":1.0,"inst":"tuba_v0_struck_284","midi_source":""},{"t":204.405,"note":45,"dur":0.162,"vel":1.0,"inst":"tuba_v0_struck_284","midi_source":""},{"t":204.405,"note":72,"dur":0.325,"vel":1.0,"inst":"harp_v0_bowed_168","midi_source":""},{"t":204.567,"note":48,"dur":0.162,"vel":1.0,"inst":"harp_v0_bowed_168","midi_source":""},{"t":204.567,"note":52,"dur":0.162,"vel":1.0,"inst":"harp_v0_bowed_168","midi_source":""},{"t":204.567,"note":57,"dur":0.162,"vel":1.0,"inst":"tuba_v0_struck_284","midi_source":""},{"t":204.73,"note":48,"dur":0.162,"vel":1.0,"inst":"harp_v0_bowed_168","midi_source":""},{"t":204.73,"note":52,"dur":0.162,"vel":1.0,"inst":"harp_v0_bowed_168","midi_source":""},{"t":204.73,"note":57,"dur":0.162,"vel":1.0,"inst":"tuba_v0_struck_284","midi_source":""},{"t":204.73,"note":69,"dur":0.162,"vel":1.0,"inst":"tuba_v0_struck_284","midi_source":""},{"t":204.892,"note":40,"dur":0.162,"vel":1.0,"inst":"harp_v0_bowed_168","midi_source":""},{"t":204.892,"note":71,"dur":0.081,"vel":1.0,"inst":"tuba_v0_struck_284","midi_source":""},{"t":204.973,"note":76,"dur":0.081,"vel":1.0,"inst":"harp_v0_bowed_168","midi_source":""},{"t":205.054,"note":47,"dur":0.162,"vel":1.0,"inst":"tuba_v0_struck_284","midi_source":""},{"t":205.054,"note":52,"dur":0.162,"vel":1.0,"inst":"harp_v0_bowed_168","midi_source":""},{"t":205.054,"note":55,"dur":0.162,"vel":1.0,"inst":"tuba_v0_struck_284","midi_source":""},{"t":205.054,"note":76,"dur":0.162,"vel":1.0,"inst":"harp_v0_bowed_168","midi_source":""},{"t":205.217,"note":47,"dur":0.162,"vel":1.0,"inst":"tuba_v0_struck_284","midi_source":""},{"t":205.217,"note":52,"dur":0.162,"vel":1.0,"inst":"harp_v0_bowed_168","midi_source":""},{"t":205.217,"note":55,"dur":0.162,"vel":1.0,"inst":"tuba_v0_struck_284","midi_source":""},{"t":205.217,"note":67,"dur":0.162,"vel":1.0,"inst":"tuba_v0_struck_284","midi_source":""},{"t":205.379,"note":45,"dur":0.487,"vel":1.0,"inst":"tuba_v0_struck_284","midi_source":""},{"t":205.379,"note":48,"dur":0.487,"vel":1.0,"inst":"harp_v0_bowed_168","midi_source":""},{"t":205.379,"note":52,"dur":0.487,"vel":1.0,"inst":"harp_v0_bowed_168","midi_source":""},{"t":205.379,"note":57,"dur":0.487,"vel":1.0,"inst":"tuba_v0_struck_284","midi_source":""},{"t":205.379,"note":69,"dur":0.325,"vel":1.0,"inst":"tuba_v0_struck_284","midi_source":""},{"t":205.785,"note":76,"dur":0.081,"vel":1.0,"inst":"harp_v0_bowed_168","midi_source":""},{"t":205.785,"note":67,"dur":0.081,"vel":1.0,"inst":"tuba_v0_struck_284","midi_source":""},{"t":205.785,"note":79,"dur":0.081,"vel":1.0,"inst":"tuba_v0_struck_284","midi_source":""},{"t":205.866,"note":33,"dur":0.162,"vel":1.0,"inst":"tuba_v0_struck_284","midi_source":""},{"t":205.866,"note":40,"dur":0.162,"vel":1.0,"inst":"harp_v0_bowed_168","midi_source":""},{"t":205.866,"note":45,"dur":0.162,"vel":1.0,"inst":"tuba_v0_struck_284","midi_source":""},{"t":205.866,"note":81,"dur":0.081,"vel":1.0,"inst":"tuba_v0_struck_284","midi_source":""},{"t":205.947,"note":79,"dur":0.081,"vel":1.0,"inst":"tuba_v0_struck_284","midi_source":""},{"t":206.029,"note":48,"dur":0.162,"vel":1.0,"inst":"harp_v0_bowed_168","midi_source":""},{"t":206.029,"note":52,"dur":0.162,"vel":1.0,"inst":"harp_v0_bowed_168","midi_source":""},{"t":206.029,"note":77,"dur":0.081,"vel":1.0,"inst":"tuba_v0_struck_284","midi_source":""},{"t":206.11,"note":76,"dur":0.081,"vel":1.0,"inst":"harp_v0_bowed_168","midi_source":""},{"t":206.191,"note":45,"dur":0.162,"vel":1.0,"inst":"tuba_v0_struck_284","midi_source":""},{"t":206.191,"note":48,"dur":0.162,"vel":1.0,"inst":"harp_v0_bowed_168","midi_source":""},{"t":206.191,"note":74,"dur":0.081,"vel":1.0,"inst":"harp_v0_bowed_168","midi_source":""},{"t":206.272,"note":72,"dur":0.081,"vel":1.0,"inst":"harp_v0_bowed_168","midi_source":""},{"t":206.353,"note":28,"dur":0.162,"vel":1.0,"inst":"harp_v0_bowed_168","midi_source":""},{"t":206.353,"note":35,"dur":0.162,"vel":1.0,"inst":"tuba_v0_struck_284","midi_source":""},{"t":206.353,"note":40,"dur":0.162,"vel":1.0,"inst":"harp_v0_bowed_168","midi_source":""},{"t":206.353,"note":77,"dur":0.162,"vel":1.0,"inst":"tuba_v0_struck_284","midi_source":""},{"t":206.516,"note":47,"dur":0.162,"vel":1.0,"inst":"tuba_v0_struck_284","midi_source":""},{"t":206.516,"note":50,"dur":0.162,"vel":1.0,"inst":"harp_v0_bowed_168","midi_source":""},{"t":206.516,"note":76,"dur":0.081,"vel":1.0,"inst":"harp_v0_bowed_168","midi_source":""},{"t":206.597,"note":74,"dur":0.081,"vel":1.0,"inst":"harp_v0_bowed_168","midi_source":""},{"t":206.678,"note":43,"dur":0.162,"vel":1.0,"inst":"tuba_v0_struck_284","midi_source":""},{"t":206.678,"note":47,"dur":0.162,"vel":1.0,"inst":"tuba_v0_struck_284","midi_source":""},{"t":206.678,"note":72,"dur":0.081,"vel":1.0,"inst":"harp_v0_bowed_168","midi_source":""},{"t":206.759,"note":71,"dur":0.081,"vel":1.0,"inst":"tuba_v0_struck_284","midi_source":""},{"t":206.841,"note":28,"dur":0.162,"vel":1.0,"inst":"harp_v0_bowed_168","midi_source":""},{"t":206.841,"note":35,"dur":0.162,"vel":1.0,"inst":"tuba_v0_struck_284","midi_source":""},{"t":206.841,"note":40,"dur":0.162,"vel":1.0,"inst":"harp_v0_bowed_168","midi_source":""},{"t":206.841,"note":77,"dur":0.162,"vel":1.0,"inst":"tuba_v0_struck_284","midi_source":""},{"t":207.003,"note":47,"dur":0.162,"vel":1.0,"inst":"tuba_v0_struck_284","midi_source":""},{"t":207.003,"note":50,"dur":0.162,"vel":1.0,"inst":"harp_v0_bowed_168","midi_source":""},{"t":207.003,"note":76,"dur":0.081,"vel":1.0,"inst":"harp_v0_bowed_168","midi_source":""},{"t":207.084,"note":74,"dur":0.081,"vel":1.0,"inst":"harp_v0_bowed_168","midi_source":""},{"t":207.165,"note":43,"dur":0.162,"vel":1.0,"inst":"tuba_v0_struck_284","midi_source":""},{"t":207.165,"note":47,"dur":0.162,"vel":1.0,"inst":"tuba_v0_struck_284","midi_source":""},{"t":207.165,"note":72,"dur":0.081,"vel":1.0,"inst":"harp_v0_bowed_168","midi_source":""},{"t":207.328,"note":28,"dur":0.162,"vel":1.0,"inst":"harp_v0_bowed_168","midi_source":""},{"t":207.328,"note":40,"dur":0.162,"vel":1.0,"inst":"harp_v0_bowed_168","midi_source":""},{"t":207.328,"note":59,"dur":0.325,"vel":1.0,"inst":"tuba_v0_struck_284","midi_source":""},{"t":207.328,"note":62,"dur":0.325,"vel":1.0,"inst":"harp_v0_bowed_168","midi_source":""},{"t":207.49,"note":40,"dur":0.162,"vel":1.0,"inst":"harp_v0_bowed_168","midi_source":""},{"t":207.49,"note":43,"dur":0.162,"vel":1.0,"inst":"tuba_v0_struck_284","midi_source":""},{"t":207.49,"note":47,"dur":0.162,"vel":1.0,"inst":"tuba_v0_struck_284","midi_source":""},{"t":207.653,"note":40,"dur":0.162,"vel":1.0,"inst":"harp_v0_bowed_168","midi_source":""},{"t":207.653,"note":43,"dur":0.162,"vel":1.0,"inst":"tuba_v0_struck_284","midi_source":""},{"t":207.653,"note":47,"dur":0.162,"vel":1.0,"inst":"tuba_v0_struck_284","midi_source":""},{"t":207.653,"note":59,"dur":0.162,"vel":1.0,"inst":"tuba_v0_struck_284","midi_source":""},{"t":207.653,"note":62,"dur":0.162,"vel":1.0,"inst":"harp_v0_bowed_168","midi_source":""},{"t":207.815,"note":28,"dur":0.162,"vel":1.0,"inst":"harp_v0_bowed_168","midi_source":""},{"t":207.815,"note":40,"dur":0.162,"vel":1.0,"inst":"harp_v0_bowed_168","midi_source":""},{"t":207.815,"note":59,"dur":0.325,"vel":1.0,"inst":"tuba_v0_struck_284","midi_source":""},{"t":207.815,"note":62,"dur":0.325,"vel":1.0,"inst":"harp_v0_bowed_168","midi_source":""},{"t":207.977,"note":40,"dur":0.162,"vel":1.0,"inst":"harp_v0_bowed_168","midi_source":""},{"t":207.977,"note":43,"dur":0.162,"vel":1.0,"inst":"tuba_v0_struck_284","midi_source":""},{"t":207.977,"note":47,"dur":0.162,"vel":1.0,"inst":"tuba_v0_struck_284","midi_source":""},{"t":208.14,"note":40,"dur":0.162,"vel":1.0,"inst":"harp_v0_bowed_168","midi_source":""},{"t":208.14,"note":43,"dur":0.162,"vel":1.0,"inst":"tuba_v0_struck_284","midi_source":""},{"t":208.14,"note":47,"dur":0.162,"vel":1.0,"inst":"tuba_v0_struck_284","midi_source":""},{"t":208.14,"note":59,"dur":0.162,"vel":1.0,"inst":"tuba_v0_struck_284","midi_source":""},{"t":208.14,"note":62,"dur":0.162,"vel":1.0,"inst":"harp_v0_bowed_168","midi_source":""},{"t":208.302,"note":28,"dur":0.162,"vel":1.0,"inst":"harp_v0_bowed_168","midi_source":""},{"t":208.302,"note":40,"dur":0.162,"vel":1.0,"inst":"harp_v0_bowed_168","midi_source":""},{"t":208.302,"note":64,"dur":0.162,"vel":1.0,"inst":"harp_v0_bowed_168","midi_source":""},{"t":208.302,"note":67,"dur":0.162,"vel":1.0,"inst":"tuba_v0_struck_284","midi_source":""},{"t":208.465,"note":40,"dur":0.162,"vel":1.0,"inst":"harp_v0_bowed_168","midi_source":""},{"t":208.465,"note":43,"dur":0.162,"vel":1.0,"inst":"tuba_v0_struck_284","midi_source":""},{"t":208.465,"note":47,"dur":0.162,"vel":1.0,"inst":"tuba_v0_struck_284","midi_source":""},{"t":208.465,"note":62,"dur":0.162,"vel":1.0,"inst":"harp_v0_bowed_168","midi_source":""},{"t":208.465,"note":55,"dur":0.162,"vel":1.0,"inst":"tuba_v0_struck_284","midi_source":""},{"t":208.627,"note":40,"dur":0.162,"vel":1.0,"inst":"harp_v0_bowed_168","midi_source":""},{"t":208.627,"note":43,"dur":0.162,"vel":1.0,"inst":"tuba_v0_struck_284","midi_source":""},{"t":208.627,"note":47,"dur":0.162,"vel":1.0,"inst":"tuba_v0_struck_284","midi_source":""},{"t":208.627,"note":60,"dur":0.162,"vel":1.0,"inst":"harp_v0_bowed_168","midi_source":""},{"t":208.627,"note":64,"dur":0.162,"vel":1.0,"inst":"harp_v0_bowed_168","midi_source":""},{"t":208.789,"note":28,"dur":0.162,"vel":1.0,"inst":"harp_v0_bowed_168","midi_source":""},{"t":208.789,"note":40,"dur":0.162,"vel":1.0,"inst":"harp_v0_bowed_168","midi_source":""},{"t":208.789,"note":59,"dur":0.162,"vel":1.0,"inst":"tuba_v0_struck_284","midi_source":""},{"t":208.789,"note":62,"dur":0.162,"vel":1.0,"inst":"harp_v0_bowed_168","midi_source":""},{"t":208.952,"note":40,"dur":0.162,"vel":1.0,"inst":"harp_v0_bowed_168","midi_source":""},{"t":208.952,"note":43,"dur":0.162,"vel":1.0,"inst":"tuba_v0_struck_284","midi_source":""},{"t":208.952,"note":47,"dur":0.162,"vel":1.0,"inst":"tuba_v0_struck_284","midi_source":""},{"t":208.952,"note":57,"dur":0.162,"vel":1.0,"inst":"tuba_v0_struck_284","midi_source":""},{"t":208.952,"note":60,"dur":0.162,"vel":1.0,"inst":"harp_v0_bowed_168","midi_source":""},{"t":209.114,"note":40,"dur":0.162,"vel":1.0,"inst":"harp_v0_bowed_168","midi_source":""},{"t":209.114,"note":43,"dur":0.162,"vel":1.0,"inst":"tuba_v0_struck_284","midi_source":""},{"t":209.114,"note":47,"dur":0.162,"vel":1.0,"inst":"tuba_v0_struck_284","midi_source":""},{"t":209.114,"note":55,"dur":0.162,"vel":1.0,"inst":"tuba_v0_struck_284","midi_source":""},{"t":209.114,"note":59,"dur":0.162,"vel":1.0,"inst":"tuba_v0_struck_284","midi_source":""},{"t":209.277,"note":33,"dur":0.162,"vel":1.0,"inst":"tuba_v0_struck_284","midi_source":""},{"t":209.277,"note":57,"dur":0.487,"vel":1.0,"inst":"tuba_v0_struck_284","midi_source":""},{"t":209.439,"note":48,"dur":0.162,"vel":1.0,"inst":"harp_v0_bowed_168","midi_source":""},{"t":209.439,"note":52,"dur":0.162,"vel":1.0,"inst":"harp_v0_bowed_168","midi_source":""},{"t":209.601,"note":48,"dur":0.162,"vel":1.0,"inst":"harp_v0_bowed_168","midi_source":""},{"t":209.601,"note":52,"dur":0.162,"vel":1.0,"inst":"harp_v0_bowed_168","midi_source":""},{"t":209.764,"note":45,"dur":0.162,"vel":1.0,"inst":"tuba_v0_struck_284","midi_source":""},{"t":209.764,"note":69,"dur":0.081,"vel":1.0,"inst":"tuba_v0_struck_284","midi_source":""},{"t":209.845,"note":71,"dur":0.081,"vel":1.0,"inst":"tuba_v0_struck_284","midi_source":""},{"t":209.926,"note":48,"dur":0.162,"vel":1.0,"inst":"harp_v0_bowed_168","midi_source":""},{"t":209.926,"note":52,"dur":0.162,"vel":1.0,"inst":"harp_v0_bowed_168","midi_source":""},{"t":209.926,"note":57,"dur":0.162,"vel":1.0,"inst":"tuba_v0_struck_284","midi_source":""},{"t":209.926,"note":72,"dur":0.162,"vel":1.0,"inst":"harp_v0_bowed_168","midi_source":""},{"t":210.089,"note":48,"dur":0.162,"vel":1.0,"inst":"harp_v0_bowed_168","midi_source":""},{"t":210.089,"note":52,"dur":0.162,"vel":1.0,"inst":"harp_v0_bowed_168","midi_source":""},{"t":210.089,"note":57,"dur":0.162,"vel":1.0,"inst":"tuba_v0_struck_284","midi_source":""},{"t":210.089,"note":74,"dur":0.162,"vel":1.0,"inst":"harp_v0_bowed_168","midi_source":""},{"t":210.251,"note":45,"dur":0.162,"vel":1.0,"inst":"tuba_v0_struck_284","midi_source":""},{"t":210.251,"note":76,"dur":0.325,"vel":1.0,"inst":"harp_v0_bowed_168","midi_source":""},{"t":210.413,"note":48,"dur":0.162,"vel":1.0,"inst":"harp_v0_bowed_168","midi_source":""},{"t":210.413,"note":52,"dur":0.162,"vel":1.0,"inst":"harp_v0_bowed_168","midi_source":""},{"t":210.413,"note":57,"dur":0.162,"vel":1.0,"inst":"tuba_v0_struck_284","midi_source":""},{"t":210.576,"note":48,"dur":0.162,"vel":1.0,"inst":"harp_v0_bowed_168","midi_source":""},{"t":210.576,"note":52,"dur":0.162,"vel":1.0,"inst":"harp_v0_bowed_168","midi_source":""},{"t":210.576,"note":57,"dur":0.162,"vel":1.0,"inst":"tuba_v0_struck_284","midi_source":""},{"t":210.576,"note":77,"dur":0.162,"vel":1.0,"inst":"tuba_v0_struck_284","midi_source":""},{"t":210.738,"note":45,"dur":0.162,"vel":1.0,"inst":"tuba_v0_struck_284","midi_source":""},{"t":210.738,"note":77,"dur":0.081,"vel":1.0,"inst":"tuba_v0_struck_284","midi_source":""},{"t":210.738,"note":79,"dur":0.081,"vel":1.0,"inst":"tuba_v0_struck_284","midi_source":""},{"t":210.819,"note":76,"dur":0.081,"vel":1.0,"inst":"harp_v0_bowed_168","midi_source":""},{"t":210.901,"note":48,"dur":0.162,"vel":1.0,"inst":"harp_v0_bowed_168","midi_source":""},{"t":210.901,"note":52,"dur":0.162,"vel":1.0,"inst":"harp_v0_bowed_168","midi_source":""},{"t":210.901,"note":57,"dur":0.162,"vel":1.0,"inst":"tuba_v0_struck_284","midi_source":""},{"t":210.901,"note":76,"dur":0.162,"vel":1.0,"inst":"harp_v0_bowed_168","midi_source":""},{"t":211.063,"note":48,"dur":0.162,"vel":1.0,"inst":"harp_v0_bowed_168","midi_source":""},{"t":211.063,"note":52,"dur":0.162,"vel":1.0,"inst":"harp_v0_bowed_168","midi_source":""},{"t":211.063,"note":57,"dur":0.162,"vel":1.0,"inst":"tuba_v0_struck_284","midi_source":""},{"t":211.063,"note":81,"dur":0.162,"vel":1.0,"inst":"tuba_v0_struck_284","midi_source":""},{"t":211.225,"note":45,"dur":0.162,"vel":1.0,"inst":"tuba_v0_struck_284","midi_source":""},{"t":211.225,"note":76,"dur":0.325,"vel":1.0,"inst":"harp_v0_bowed_168","midi_source":""},{"t":211.388,"note":48,"dur":0.162,"vel":1.0,"inst":"harp_v0_bowed_168","midi_source":""},{"t":211.388,"note":52,"dur":0.162,"vel":1.0,"inst":"harp_v0_bowed_168","midi_source":""},{"t":211.388,"note":57,"dur":0.162,"vel":1.0,"inst":"tuba_v0_struck_284","midi_source":""},{"t":211.55,"note":48,"dur":0.162,"vel":1.0,"inst":"harp_v0_bowed_168","midi_source":""},{"t":211.55,"note":52,"dur":0.162,"vel":1.0,"inst":"harp_v0_bowed_168","midi_source":""},{"t":211.55,"note":57,"dur":0.162,"vel":1.0,"inst":"tuba_v0_struck_284","midi_source":""},{"t":211.55,"note":69,"dur":0.162,"vel":1.0,"inst":"tuba_v0_struck_284","midi_source":""},{"t":211.712,"note":40,"dur":0.162,"vel":1.0,"inst":"harp_v0_bowed_168","midi_source":""},{"t":211.712,"note":71,"dur":0.081,"vel":1.0,"inst":"tuba_v0_struck_284","midi_source":""},{"t":211.794,"note":76,"dur":0.081,"vel":1.0,"inst":"harp_v0_bowed_168","midi_source":""},{"t":211.875,"note":47,"dur":0.162,"vel":1.0,"inst":"tuba_v0_struck_284","midi_source":""},{"t":211.875,"note":52,"dur":0.162,"vel":1.0,"inst":"harp_v0_bowed_168","midi_source":""},{"t":211.875,"note":55,"dur":0.162,"vel":1.0,"inst":"tuba_v0_struck_284","midi_source":""},{"t":211.875,"note":76,"dur":0.162,"vel":1.0,"inst":"harp_v0_bowed_168","midi_source":""},{"t":212.037,"note":47,"dur":0.162,"vel":1.0,"inst":"tuba_v0_struck_284","midi_source":""},{"t":212.037,"note":52,"dur":0.162,"vel":1.0,"inst":"harp_v0_bowed_168","midi_source":""},{"t":212.037,"note":55,"dur":0.162,"vel":1.0,"inst":"tuba_v0_struck_284","midi_source":""},{"t":212.037,"note":71,"dur":0.162,"vel":1.0,"inst":"tuba_v0_struck_284","midi_source":""},{"t":212.2,"note":45,"dur":0.162,"vel":1.0,"inst":"tuba_v0_struck_284","midi_source":""},{"t":212.2,"note":72,"dur":0.325,"vel":1.0,"inst":"harp_v0_bowed_168","midi_source":""},{"t":212.362,"note":48,"dur":0.162,"vel":1.0,"inst":"harp_v0_bowed_168","midi_source":""},{"t":212.362,"note":52,"dur":0.162,"vel":1.0,"inst":"harp_v0_bowed_168","midi_source":""},{"t":212.362,"note":57,"dur":0.162,"vel":1.0,"inst":"tuba_v0_struck_284","midi_source":""},{"t":212.524,"note":48,"dur":0.162,"vel":1.0,"inst":"harp_v0_bowed_168","midi_source":""},{"t":212.524,"note":52,"dur":0.162,"vel":1.0,"inst":"harp_v0_bowed_168","midi_source":""},{"t":212.524,"note":57,"dur":0.162,"vel":1.0,"inst":"tuba_v0_struck_284","midi_source":""},{"t":212.524,"note":69,"dur":0.162,"vel":1.0,"inst":"tuba_v0_struck_284","midi_source":""},{"t":212.687,"note":40,"dur":0.162,"vel":1.0,"inst":"harp_v0_bowed_168","midi_source":""},{"t":212.687,"note":71,"dur":0.081,"vel":1.0,"inst":"tuba_v0_struck_284","midi_source":""},{"t":212.768,"note":76,"dur":0.081,"vel":1.0,"inst":"harp_v0_bowed_168","midi_source":""},{"t":212.849,"note":47,"dur":0.162,"vel":1.0,"inst":"tuba_v0_struck_284","midi_source":""},{"t":212.849,"note":52,"dur":0.162,"vel":1.0,"inst":"harp_v0_bowed_168","midi_source":""},{"t":212.849,"note":55,"dur":0.162,"vel":1.0,"inst":"tuba_v0_struck_284","midi_source":""},{"t":212.849,"note":76,"dur":0.162,"vel":1.0,"inst":"harp_v0_bowed_168","midi_source":""},{"t":213.012,"note":47,"dur":0.162,"vel":1.0,"inst":"tuba_v0_struck_284","midi_source":""},{"t":213.012,"note":52,"dur":0.162,"vel":1.0,"inst":"harp_v0_bowed_168","midi_source":""},{"t":213.012,"note":55,"dur":0.162,"vel":1.0,"inst":"tuba_v0_struck_284","midi_source":""},{"t":213.012,"note":67,"dur":0.162,"vel":1.0,"inst":"tuba_v0_struck_284","midi_source":""},{"t":213.174,"note":45,"dur":0.487,"vel":1.0,"inst":"tuba_v0_struck_284","midi_source":""},{"t":213.174,"note":48,"dur":0.487,"vel":1.0,"inst":"harp_v0_bowed_168","midi_source":""},{"t":213.174,"note":52,"dur":0.487,"vel":1.0,"inst":"harp_v0_bowed_168","midi_source":""},{"t":213.174,"note":57,"dur":0.487,"vel":1.0,"inst":"tuba_v0_struck_284","midi_source":""},{"t":213.174,"note":69,"dur":0.325,"vel":1.0,"inst":"tuba_v0_struck_284","midi_source":""},{"t":213.58,"note":76,"dur":0.081,"vel":1.0,"inst":"harp_v0_bowed_168","midi_source":""},{"t":213.58,"note":67,"dur":0.081,"vel":1.0,"inst":"tuba_v0_struck_284","midi_source":""},{"t":213.58,"note":79,"dur":0.081,"vel":1.0,"inst":"tuba_v0_struck_284","midi_source":""},{"t":213.661,"note":33,"dur":0.162,"vel":1.0,"inst":"tuba_v0_struck_284","midi_source":""},{"t":213.661,"note":40,"dur":0.162,"vel":1.0,"inst":"harp_v0_bowed_168","midi_source":""},{"t":213.661,"note":45,"dur":0.162,"vel":1.0,"inst":"tuba_v0_struck_284","midi_source":""},{"t":213.661,"note":81,"dur":0.081,"vel":1.0,"inst":"tuba_v0_struck_284","midi_source":""},{"t":213.742,"note":79,"dur":0.081,"vel":1.0,"inst":"tuba_v0_struck_284","midi_source":""},{"t":213.824,"note":48,"dur":0.162,"vel":1.0,"inst":"harp_v0_bowed_168","midi_source":""},{"t":213.824,"note":52,"dur":0.162,"vel":1.0,"inst":"harp_v0_bowed_168","midi_source":""},{"t":213.824,"note":77,"dur":0.081,"vel":1.0,"inst":"tuba_v0_struck_284","midi_source":""},{"t":213.905,"note":76,"dur":0.081,"vel":1.0,"inst":"harp_v0_bowed_168","midi_source":""},{"t":213.986,"note":45,"dur":0.162,"vel":1.0,"inst":"tuba_v0_struck_284","midi_source":""},{"t":213.986,"note":48,"dur":0.162,"vel":1.0,"inst":"harp_v0_bowed_168","midi_source":""},{"t":213.986,"note":74,"dur":0.081,"vel":1.0,"inst":"harp_v0_bowed_168","midi_source":""},{"t":214.067,"note":72,"dur":0.081,"vel":1.0,"inst":"harp_v0_bowed_168","midi_source":""},{"t":214.148,"note":28,"dur":0.162,"vel":1.0,"inst":"harp_v0_bowed_168","midi_source":""},{"t":214.148,"note":35,"dur":0.162,"vel":1.0,"inst":"tuba_v0_struck_284","midi_source":""},{"t":214.148,"note":40,"dur":0.162,"vel":1.0,"inst":"harp_v0_bowed_168","midi_source":""},{"t":214.148,"note":77,"dur":0.162,"vel":1.0,"inst":"tuba_v0_struck_284","midi_source":""},{"t":214.311,"note":47,"dur":0.162,"vel":1.0,"inst":"tuba_v0_struck_284","midi_source":""},{"t":214.311,"note":50,"dur":0.162,"vel":1.0,"inst":"harp_v0_bowed_168","midi_source":""},{"t":214.311,"note":76,"dur":0.081,"vel":1.0,"inst":"harp_v0_bowed_168","midi_source":""},{"t":214.392,"note":74,"dur":0.081,"vel":1.0,"inst":"harp_v0_bowed_168","midi_source":""},{"t":214.473,"note":43,"dur":0.162,"vel":1.0,"inst":"tuba_v0_struck_284","midi_source":""},{"t":214.473,"note":47,"dur":0.162,"vel":1.0,"inst":"tuba_v0_struck_284","midi_source":""},{"t":214.473,"note":72,"dur":0.081,"vel":1.0,"inst":"harp_v0_bowed_168","midi_source":""},{"t":214.554,"note":71,"dur":0.081,"vel":1.0,"inst":"tuba_v0_struck_284","midi_source":""},{"t":214.636,"note":28,"dur":0.162,"vel":1.0,"inst":"harp_v0_bowed_168","midi_source":""},{"t":214.636,"note":35,"dur":0.162,"vel":1.0,"inst":"tuba_v0_struck_284","midi_source":""},{"t":214.636,"note":40,"dur":0.162,"vel":1.0,"inst":"harp_v0_bowed_168","midi_source":""},{"t":214.636,"note":77,"dur":0.162,"vel":1.0,"inst":"tuba_v0_struck_284","midi_source":""},{"t":214.798,"note":47,"dur":0.162,"vel":1.0,"inst":"tuba_v0_struck_284","midi_source":""},{"t":214.798,"note":50,"dur":0.162,"vel":1.0,"inst":"harp_v0_bowed_168","midi_source":""},{"t":214.798,"note":76,"dur":0.081,"vel":1.0,"inst":"harp_v0_bowed_168","midi_source":""},{"t":214.879,"note":74,"dur":0.081,"vel":1.0,"inst":"harp_v0_bowed_168","midi_source":""},{"t":214.96,"note":43,"dur":0.162,"vel":1.0,"inst":"tuba_v0_struck_284","midi_source":""},{"t":214.96,"note":47,"dur":0.162,"vel":1.0,"inst":"tuba_v0_struck_284","midi_source":""},{"t":214.96,"note":72,"dur":0.081,"vel":1.0,"inst":"harp_v0_bowed_168","midi_source":""},{"t":215.123,"note":28,"dur":0.162,"vel":1.0,"inst":"harp_v0_bowed_168","midi_source":""},{"t":215.123,"note":40,"dur":0.162,"vel":1.0,"inst":"harp_v0_bowed_168","midi_source":""},{"t":215.123,"note":59,"dur":0.325,"vel":1.0,"inst":"tuba_v0_struck_284","midi_source":""},{"t":215.123,"note":62,"dur":0.325,"vel":1.0,"inst":"harp_v0_bowed_168","midi_source":""},{"t":215.285,"note":40,"dur":0.162,"vel":1.0,"inst":"harp_v0_bowed_168","midi_source":""},{"t":215.285,"note":43,"dur":0.162,"vel":1.0,"inst":"tuba_v0_struck_284","midi_source":""},{"t":215.285,"note":47,"dur":0.162,"vel":1.0,"inst":"tuba_v0_struck_284","midi_source":""},{"t":215.448,"note":40,"dur":0.162,"vel":1.0,"inst":"harp_v0_bowed_168","midi_source":""},{"t":215.448,"note":43,"dur":0.162,"vel":1.0,"inst":"tuba_v0_struck_284","midi_source":""},{"t":215.448,"note":47,"dur":0.162,"vel":1.0,"inst":"tuba_v0_struck_284","midi_source":""},{"t":215.448,"note":59,"dur":0.162,"vel":1.0,"inst":"tuba_v0_struck_284","midi_source":""},{"t":215.448,"note":62,"dur":0.162,"vel":1.0,"inst":"harp_v0_bowed_168","midi_source":""},{"t":215.61,"note":28,"dur":0.162,"vel":1.0,"inst":"harp_v0_bowed_168","midi_source":""},{"t":215.61,"note":40,"dur":0.162,"vel":1.0,"inst":"harp_v0_bowed_168","midi_source":""},{"t":215.61,"note":59,"dur":0.325,"vel":1.0,"inst":"tuba_v0_struck_284","midi_source":""},{"t":215.61,"note":62,"dur":0.325,"vel":1.0,"inst":"harp_v0_bowed_168","midi_source":""},{"t":215.772,"note":40,"dur":0.162,"vel":1.0,"inst":"harp_v0_bowed_168","midi_source":""},{"t":215.772,"note":43,"dur":0.162,"vel":1.0,"inst":"tuba_v0_struck_284","midi_source":""},{"t":215.772,"note":47,"dur":0.162,"vel":1.0,"inst":"tuba_v0_struck_284","midi_source":""},{"t":215.935,"note":40,"dur":0.162,"vel":1.0,"inst":"harp_v0_bowed_168","midi_source":""},{"t":215.935,"note":43,"dur":0.162,"vel":1.0,"inst":"tuba_v0_struck_284","midi_source":""},{"t":215.935,"note":47,"dur":0.162,"vel":1.0,"inst":"tuba_v0_struck_284","midi_source":""},{"t":215.935,"note":59,"dur":0.162,"vel":1.0,"inst":"tuba_v0_struck_284","midi_source":""},{"t":215.935,"note":62,"dur":0.162,"vel":1.0,"inst":"harp_v0_bowed_168","midi_source":""},{"t":216.097,"note":28,"dur":0.162,"vel":1.0,"inst":"harp_v0_bowed_168","midi_source":""},{"t":216.097,"note":40,"dur":0.162,"vel":1.0,"inst":"harp_v0_bowed_168","midi_source":""},{"t":216.097,"note":64,"dur":0.162,"vel":1.0,"inst":"harp_v0_bowed_168","midi_source":""},{"t":216.097,"note":67,"dur":0.162,"vel":1.0,"inst":"tuba_v0_struck_284","midi_source":""},{"t":216.26,"note":40,"dur":0.162,"vel":1.0,"inst":"harp_v0_bowed_168","midi_source":""},{"t":216.26,"note":43,"dur":0.162,"vel":1.0,"inst":"tuba_v0_struck_284","midi_source":""},{"t":216.26,"note":47,"dur":0.162,"vel":1.0,"inst":"tuba_v0_struck_284","midi_source":""},{"t":216.26,"note":62,"dur":0.162,"vel":1.0,"inst":"harp_v0_bowed_168","midi_source":""},{"t":216.26,"note":55,"dur":0.162,"vel":1.0,"inst":"tuba_v0_struck_284","midi_source":""},{"t":216.422,"note":40,"dur":0.162,"vel":1.0,"inst":"harp_v0_bowed_168","midi_source":""},{"t":216.422,"note":43,"dur":0.162,"vel":1.0,"inst":"tuba_v0_struck_284","midi_source":""},{"t":216.422,"note":47,"dur":0.162,"vel":1.0,"inst":"tuba_v0_struck_284","midi_source":""},{"t":216.422,"note":60,"dur":0.162,"vel":1.0,"inst":"harp_v0_bowed_168","midi_source":""},{"t":216.422,"note":64,"dur":0.162,"vel":1.0,"inst":"harp_v0_bowed_168","midi_source":""},{"t":216.584,"note":28,"dur":0.162,"vel":1.0,"inst":"harp_v0_bowed_168","midi_source":""},{"t":216.584,"note":40,"dur":0.162,"vel":1.0,"inst":"harp_v0_bowed_168","midi_source":""},{"t":216.584,"note":59,"dur":0.162,"vel":1.0,"inst":"tuba_v0_struck_284","midi_source":""},{"t":216.584,"note":62,"dur":0.162,"vel":1.0,"inst":"harp_v0_bowed_168","midi_source":""},{"t":216.747,"note":40,"dur":0.162,"vel":1.0,"inst":"harp_v0_bowed_168","midi_source":""},{"t":216.747,"note":43,"dur":0.162,"vel":1.0,"inst":"tuba_v0_struck_284","midi_source":""},{"t":216.747,"note":47,"dur":0.162,"vel":1.0,"inst":"tuba_v0_struck_284","midi_source":""},{"t":216.747,"note":57,"dur":0.162,"vel":1.0,"inst":"tuba_v0_struck_284","midi_source":""},{"t":216.747,"note":60,"dur":0.162,"vel":1.0,"inst":"harp_v0_bowed_168","midi_source":""},{"t":216.909,"note":40,"dur":0.162,"vel":1.0,"inst":"harp_v0_bowed_168","midi_source":""},{"t":216.909,"note":43,"dur":0.162,"vel":1.0,"inst":"tuba_v0_struck_284","midi_source":""},{"t":216.909,"note":47,"dur":0.162,"vel":1.0,"inst":"tuba_v0_struck_284","midi_source":""},{"t":216.909,"note":55,"dur":0.162,"vel":1.0,"inst":"tuba_v0_struck_284","midi_source":""},{"t":216.909,"note":59,"dur":0.162,"vel":1.0,"inst":"tuba_v0_struck_284","midi_source":""},{"t":217.072,"note":33,"dur":0.162,"vel":1.0,"inst":"tuba_v0_struck_284","midi_source":""},{"t":217.072,"note":57,"dur":0.487,"vel":1.0,"inst":"tuba_v0_struck_284","midi_source":""},{"t":217.234,"note":48,"dur":0.162,"vel":1.0,"inst":"harp_v0_bowed_168","midi_source":""},{"t":217.234,"note":52,"dur":0.162,"vel":1.0,"inst":"harp_v0_bowed_168","midi_source":""},{"t":217.396,"note":48,"dur":0.162,"vel":1.0,"inst":"harp_v0_bowed_168","midi_source":""},{"t":217.396,"note":52,"dur":0.162,"vel":1.0,"inst":"harp_v0_bowed_168","midi_source":""},{"t":217.559,"note":45,"dur":0.162,"vel":1.0,"inst":"tuba_v0_struck_284","midi_source":""},{"t":217.559,"note":69,"dur":0.081,"vel":1.0,"inst":"tuba_v0_struck_284","midi_source":""},{"t":217.64,"note":71,"dur":0.081,"vel":1.0,"inst":"tuba_v0_struck_284","midi_source":""},{"t":217.721,"note":48,"dur":0.162,"vel":1.0,"inst":"harp_v0_bowed_168","midi_source":""},{"t":217.721,"note":52,"dur":0.162,"vel":1.0,"inst":"harp_v0_bowed_168","midi_source":""},{"t":217.721,"note":57,"dur":0.162,"vel":1.0,"inst":"tuba_v0_struck_284","midi_source":""},{"t":217.721,"note":72,"dur":0.162,"vel":1.0,"inst":"harp_v0_bowed_168","midi_source":""},{"t":217.883,"note":48,"dur":0.162,"vel":1.0,"inst":"harp_v0_bowed_168","midi_source":""},{"t":217.883,"note":52,"dur":0.162,"vel":1.0,"inst":"harp_v0_bowed_168","midi_source":""},{"t":217.883,"note":57,"dur":0.162,"vel":1.0,"inst":"tuba_v0_struck_284","midi_source":""},{"t":217.883,"note":74,"dur":0.162,"vel":1.0,"inst":"harp_v0_bowed_168","midi_source":""},{"t":218.046,"note":45,"dur":0.162,"vel":1.0,"inst":"tuba_v0_struck_284","midi_source":""},{"t":218.046,"note":76,"dur":0.325,"vel":1.0,"inst":"harp_v0_bowed_168","midi_source":""},{"t":218.208,"note":48,"dur":0.162,"vel":1.0,"inst":"harp_v0_bowed_168","midi_source":""},{"t":218.208,"note":52,"dur":0.162,"vel":1.0,"inst":"harp_v0_bowed_168","midi_source":""},{"t":218.208,"note":57,"dur":0.162,"vel":1.0,"inst":"tuba_v0_struck_284","midi_source":""},{"t":218.371,"note":48,"dur":0.162,"vel":1.0,"inst":"harp_v0_bowed_168","midi_source":""},{"t":218.371,"note":52,"dur":0.162,"vel":1.0,"inst":"harp_v0_bowed_168","midi_source":""},{"t":218.371,"note":57,"dur":0.162,"vel":1.0,"inst":"tuba_v0_struck_284","midi_source":""},{"t":218.371,"note":77,"dur":0.162,"vel":1.0,"inst":"tuba_v0_struck_284","midi_source":""},{"t":218.533,"note":45,"dur":0.162,"vel":1.0,"inst":"tuba_v0_struck_284","midi_source":""},{"t":218.533,"note":77,"dur":0.081,"vel":1.0,"inst":"tuba_v0_struck_284","midi_source":""},{"t":218.533,"note":79,"dur":0.081,"vel":1.0,"inst":"tuba_v0_struck_284","midi_source":""},{"t":218.614,"note":76,"dur":0.081,"vel":1.0,"inst":"harp_v0_bowed_168","midi_source":""},{"t":218.695,"note":48,"dur":0.162,"vel":1.0,"inst":"harp_v0_bowed_168","midi_source":""},{"t":218.695,"note":52,"dur":0.162,"vel":1.0,"inst":"harp_v0_bowed_168","midi_source":""},{"t":218.695,"note":57,"dur":0.162,"vel":1.0,"inst":"tuba_v0_struck_284","midi_source":""},{"t":218.695,"note":76,"dur":0.162,"vel":1.0,"inst":"harp_v0_bowed_168","midi_source":""},{"t":218.858,"note":48,"dur":0.162,"vel":1.0,"inst":"harp_v0_bowed_168","midi_source":""},{"t":218.858,"note":52,"dur":0.162,"vel":1.0,"inst":"harp_v0_bowed_168","midi_source":""},{"t":218.858,"note":57,"dur":0.162,"vel":1.0,"inst":"tuba_v0_struck_284","midi_source":""},{"t":218.858,"note":81,"dur":0.162,"vel":1.0,"inst":"tuba_v0_struck_284","midi_source":""},{"t":219.02,"note":45,"dur":0.162,"vel":1.0,"inst":"tuba_v0_struck_284","midi_source":""},{"t":219.02,"note":76,"dur":0.325,"vel":1.0,"inst":"harp_v0_bowed_168","midi_source":""},{"t":219.183,"note":48,"dur":0.162,"vel":1.0,"inst":"harp_v0_bowed_168","midi_source":""},{"t":219.183,"note":52,"dur":0.162,"vel":1.0,"inst":"harp_v0_bowed_168","midi_source":""},{"t":219.183,"note":57,"dur":0.162,"vel":1.0,"inst":"tuba_v0_struck_284","midi_source":""},{"t":219.345,"note":48,"dur":0.162,"vel":1.0,"inst":"harp_v0_bowed_168","midi_source":""},{"t":219.345,"note":52,"dur":0.162,"vel":1.0,"inst":"harp_v0_bowed_168","midi_source":""},{"t":219.345,"note":57,"dur":0.162,"vel":1.0,"inst":"tuba_v0_struck_284","midi_source":""},{"t":219.345,"note":69,"dur":0.162,"vel":1.0,"inst":"tuba_v0_struck_284","midi_source":""},{"t":219.507,"note":40,"dur":0.162,"vel":1.0,"inst":"harp_v0_bowed_168","midi_source":""},{"t":219.507,"note":71,"dur":0.081,"vel":1.0,"inst":"tuba_v0_struck_284","midi_source":""},{"t":219.589,"note":76,"dur":0.081,"vel":1.0,"inst":"harp_v0_bowed_168","midi_source":""},{"t":219.67,"note":47,"dur":0.162,"vel":1.0,"inst":"tuba_v0_struck_284","midi_source":""},{"t":219.67,"note":52,"dur":0.162,"vel":1.0,"inst":"harp_v0_bowed_168","midi_source":""},{"t":219.67,"note":55,"dur":0.162,"vel":1.0,"inst":"tuba_v0_struck_284","midi_source":""},{"t":219.67,"note":76,"dur":0.162,"vel":1.0,"inst":"harp_v0_bowed_168","midi_source":""},{"t":219.832,"note":47,"dur":0.162,"vel":1.0,"inst":"tuba_v0_struck_284","midi_source":""},{"t":219.832,"note":52,"dur":0.162,"vel":1.0,"inst":"harp_v0_bowed_168","midi_source":""},{"t":219.832,"note":55,"dur":0.162,"vel":1.0,"inst":"tuba_v0_struck_284","midi_source":""},{"t":219.832,"note":71,"dur":0.162,"vel":1.0,"inst":"tuba_v0_struck_284","midi_source":""},{"t":219.995,"note":45,"dur":0.162,"vel":1.0,"inst":"tuba_v0_struck_284","midi_source":""},{"t":219.995,"note":72,"dur":0.325,"vel":1.0,"inst":"harp_v0_bowed_168","midi_source":""},{"t":220.157,"note":48,"dur":0.162,"vel":1.0,"inst":"harp_v0_bowed_168","midi_source":""},{"t":220.157,"note":52,"dur":0.162,"vel":1.0,"inst":"harp_v0_bowed_168","midi_source":""},{"t":220.157,"note":57,"dur":0.162,"vel":1.0,"inst":"tuba_v0_struck_284","midi_source":""},{"t":220.319,"note":48,"dur":0.162,"vel":1.0,"inst":"harp_v0_bowed_168","midi_source":""},{"t":220.319,"note":52,"dur":0.162,"vel":1.0,"inst":"harp_v0_bowed_168","midi_source":""},{"t":220.319,"note":57,"dur":0.162,"vel":1.0,"inst":"tuba_v0_struck_284","midi_source":""},{"t":220.319,"note":69,"dur":0.162,"vel":1.0,"inst":"tuba_v0_struck_284","midi_source":""},{"t":220.482,"note":40,"dur":0.162,"vel":1.0,"inst":"harp_v0_bowed_168","midi_source":""},{"t":220.482,"note":71,"dur":0.081,"vel":1.0,"inst":"tuba_v0_struck_284","midi_source":""},{"t":220.563,"note":76,"dur":0.081,"vel":1.0,"inst":"harp_v0_bowed_168","midi_source":""},{"t":220.644,"note":47,"dur":0.162,"vel":1.0,"inst":"tuba_v0_struck_284","midi_source":""},{"t":220.644,"note":52,"dur":0.162,"vel":1.0,"inst":"harp_v0_bowed_168","midi_source":""},{"t":220.644,"note":55,"dur":0.162,"vel":1.0,"inst":"tuba_v0_struck_284","midi_source":""},{"t":220.644,"note":76,"dur":0.162,"vel":1.0,"inst":"harp_v0_bowed_168","midi_source":""},{"t":220.807,"note":47,"dur":0.162,"vel":1.0,"inst":"tuba_v0_struck_284","midi_source":""},{"t":220.807,"note":52,"dur":0.162,"vel":1.0,"inst":"harp_v0_bowed_168","midi_source":""},{"t":220.807,"note":55,"dur":0.162,"vel":1.0,"inst":"tuba_v0_struck_284","midi_source":""},{"t":220.807,"note":67,"dur":0.162,"vel":1.0,"inst":"tuba_v0_struck_284","midi_source":""},{"t":220.969,"note":45,"dur":0.487,"vel":1.0,"inst":"tuba_v0_struck_284","midi_source":""},{"t":220.969,"note":48,"dur":0.487,"vel":1.0,"inst":"harp_v0_bowed_168","midi_source":""},{"t":220.969,"note":52,"dur":0.487,"vel":1.0,"inst":"harp_v0_bowed_168","midi_source":""},{"t":220.969,"note":57,"dur":0.487,"vel":1.0,"inst":"tuba_v0_struck_284","midi_source":""},{"t":220.969,"note":69,"dur":0.325,"vel":1.0,"inst":"tuba_v0_struck_284","midi_source":""},{"t":221.375,"note":76,"dur":0.081,"vel":1.0,"inst":"harp_v0_bowed_168","midi_source":""},{"t":221.375,"note":67,"dur":0.081,"vel":1.0,"inst":"tuba_v0_struck_284","midi_source":""},{"t":221.375,"note":79,"dur":0.081,"vel":1.0,"inst":"tuba_v0_struck_284","midi_source":""},{"t":221.456,"note":33,"dur":0.162,"vel":1.0,"inst":"tuba_v0_struck_284","midi_source":""},{"t":221.456,"note":40,"dur":0.162,"vel":1.0,"inst":"harp_v0_bowed_168","midi_source":""},{"t":221.456,"note":45,"dur":0.162,"vel":1.0,"inst":"tuba_v0_struck_284","midi_source":""},{"t":221.456,"note":81,"dur":0.081,"vel":1.0,"inst":"tuba_v0_struck_284","midi_source":""},{"t":221.537,"note":79,"dur":0.081,"vel":1.0,"inst":"tuba_v0_struck_284","midi_source":""},{"t":221.619,"note":48,"dur":0.162,"vel":1.0,"inst":"harp_v0_bowed_168","midi_source":""},{"t":221.619,"note":52,"dur":0.162,"vel":1.0,"inst":"harp_v0_bowed_168","midi_source":""},{"t":221.619,"note":77,"dur":0.081,"vel":1.0,"inst":"tuba_v0_struck_284","midi_source":""},{"t":221.7,"note":76,"dur":0.081,"vel":1.0,"inst":"harp_v0_bowed_168","midi_source":""},{"t":221.781,"note":45,"dur":0.162,"vel":1.0,"inst":"tuba_v0_struck_284","midi_source":""},{"t":221.781,"note":48,"dur":0.162,"vel":1.0,"inst":"harp_v0_bowed_168","midi_source":""},{"t":221.781,"note":74,"dur":0.081,"vel":1.0,"inst":"harp_v0_bowed_168","midi_source":""},{"t":221.862,"note":72,"dur":0.081,"vel":1.0,"inst":"harp_v0_bowed_168","midi_source":""},{"t":221.943,"note":28,"dur":0.162,"vel":1.0,"inst":"harp_v0_bowed_168","midi_source":""},{"t":221.943,"note":35,"dur":0.162,"vel":1.0,"inst":"tuba_v0_struck_284","midi_source":""},{"t":221.943,"note":40,"dur":0.162,"vel":1.0,"inst":"harp_v0_bowed_168","midi_source":""},{"t":221.943,"note":77,"dur":0.162,"vel":1.0,"inst":"tuba_v0_struck_284","midi_source":""},{"t":222.106,"note":47,"dur":0.162,"vel":1.0,"inst":"tuba_v0_struck_284","midi_source":""},{"t":222.106,"note":50,"dur":0.162,"vel":1.0,"inst":"harp_v0_bowed_168","midi_source":""},{"t":222.106,"note":76,"dur":0.081,"vel":1.0,"inst":"harp_v0_bowed_168","midi_source":""},{"t":222.187,"note":74,"dur":0.081,"vel":1.0,"inst":"harp_v0_bowed_168","midi_source":""},{"t":222.268,"note":43,"dur":0.162,"vel":1.0,"inst":"tuba_v0_struck_284","midi_source":""},{"t":222.268,"note":47,"dur":0.162,"vel":1.0,"inst":"tuba_v0_struck_284","midi_source":""},{"t":222.268,"note":72,"dur":0.081,"vel":1.0,"inst":"harp_v0_bowed_168","midi_source":""},{"t":222.349,"note":71,"dur":0.081,"vel":1.0,"inst":"tuba_v0_struck_284","midi_source":""},{"t":222.431,"note":28,"dur":0.162,"vel":1.0,"inst":"harp_v0_bowed_168","midi_source":""},{"t":222.431,"note":35,"dur":0.162,"vel":1.0,"inst":"tuba_v0_struck_284","midi_source":""},{"t":222.431,"note":40,"dur":0.162,"vel":1.0,"inst":"harp_v0_bowed_168","midi_source":""},{"t":222.431,"note":77,"dur":0.162,"vel":1.0,"inst":"tuba_v0_struck_284","midi_source":""},{"t":222.593,"note":47,"dur":0.162,"vel":1.0,"inst":"tuba_v0_struck_284","midi_source":""},{"t":222.593,"note":50,"dur":0.162,"vel":1.0,"inst":"harp_v0_bowed_168","midi_source":""},{"t":222.593,"note":76,"dur":0.081,"vel":1.0,"inst":"harp_v0_bowed_168","midi_source":""},{"t":222.674,"note":74,"dur":0.081,"vel":1.0,"inst":"harp_v0_bowed_168","midi_source":""},{"t":222.755,"note":43,"dur":0.162,"vel":1.0,"inst":"tuba_v0_struck_284","midi_source":""},{"t":222.755,"note":47,"dur":0.162,"vel":1.0,"inst":"tuba_v0_struck_284","midi_source":""},{"t":222.755,"note":72,"dur":0.081,"vel":1.0,"inst":"harp_v0_bowed_168","midi_source":""},{"t":222.918,"note":28,"dur":0.162,"vel":1.0,"inst":"harp_v0_bowed_168","midi_source":""},{"t":222.918,"note":40,"dur":0.162,"vel":1.0,"inst":"harp_v0_bowed_168","midi_source":""},{"t":222.918,"note":59,"dur":0.325,"vel":1.0,"inst":"tuba_v0_struck_284","midi_source":""},{"t":222.918,"note":62,"dur":0.325,"vel":1.0,"inst":"harp_v0_bowed_168","midi_source":""},{"t":223.08,"note":40,"dur":0.162,"vel":1.0,"inst":"harp_v0_bowed_168","midi_source":""},{"t":223.08,"note":43,"dur":0.162,"vel":1.0,"inst":"tuba_v0_struck_284","midi_source":""},{"t":223.08,"note":47,"dur":0.162,"vel":1.0,"inst":"tuba_v0_struck_284","midi_source":""},{"t":223.242,"note":40,"dur":0.162,"vel":1.0,"inst":"harp_v0_bowed_168","midi_source":""},{"t":223.242,"note":43,"dur":0.162,"vel":1.0,"inst":"tuba_v0_struck_284","midi_source":""},{"t":223.242,"note":47,"dur":0.162,"vel":1.0,"inst":"tuba_v0_struck_284","midi_source":""},{"t":223.242,"note":59,"dur":0.162,"vel":1.0,"inst":"tuba_v0_struck_284","midi_source":""},{"t":223.242,"note":62,"dur":0.162,"vel":1.0,"inst":"harp_v0_bowed_168","midi_source":""},{"t":223.405,"note":28,"dur":0.162,"vel":1.0,"inst":"harp_v0_bowed_168","midi_source":""},{"t":223.405,"note":40,"dur":0.162,"vel":1.0,"inst":"harp_v0_bowed_168","midi_source":""},{"t":223.405,"note":59,"dur":0.325,"vel":1.0,"inst":"tuba_v0_struck_284","midi_source":""},{"t":223.405,"note":62,"dur":0.325,"vel":1.0,"inst":"harp_v0_bowed_168","midi_source":""},{"t":223.567,"note":40,"dur":0.162,"vel":1.0,"inst":"harp_v0_bowed_168","midi_source":""},{"t":223.567,"note":43,"dur":0.162,"vel":1.0,"inst":"tuba_v0_struck_284","midi_source":""},{"t":223.567,"note":47,"dur":0.162,"vel":1.0,"inst":"tuba_v0_struck_284","midi_source":""},{"t":223.73,"note":40,"dur":0.162,"vel":1.0,"inst":"harp_v0_bowed_168","midi_source":""},{"t":223.73,"note":43,"dur":0.162,"vel":1.0,"inst":"tuba_v0_struck_284","midi_source":""},{"t":223.73,"note":47,"dur":0.162,"vel":1.0,"inst":"tuba_v0_struck_284","midi_source":""},{"t":223.73,"note":59,"dur":0.162,"vel":1.0,"inst":"tuba_v0_struck_284","midi_source":""},{"t":223.73,"note":62,"dur":0.162,"vel":1.0,"inst":"harp_v0_bowed_168","midi_source":""},{"t":223.892,"note":28,"dur":0.162,"vel":1.0,"inst":"harp_v0_bowed_168","midi_source":""},{"t":223.892,"note":40,"dur":0.162,"vel":1.0,"inst":"harp_v0_bowed_168","midi_source":""},{"t":223.892,"note":64,"dur":0.162,"vel":1.0,"inst":"harp_v0_bowed_168","midi_source":""},{"t":223.892,"note":67,"dur":0.162,"vel":1.0,"inst":"tuba_v0_struck_284","midi_source":""},{"t":224.054,"note":40,"dur":0.162,"vel":1.0,"inst":"harp_v0_bowed_168","midi_source":""},{"t":224.054,"note":43,"dur":0.162,"vel":1.0,"inst":"tuba_v0_struck_284","midi_source":""},{"t":224.054,"note":47,"dur":0.162,"vel":1.0,"inst":"tuba_v0_struck_284","midi_source":""},{"t":224.054,"note":62,"dur":0.162,"vel":1.0,"inst":"harp_v0_bowed_168","midi_source":""},{"t":224.054,"note":55,"dur":0.162,"vel":1.0,"inst":"tuba_v0_struck_284","midi_source":""},{"t":224.217,"note":40,"dur":0.162,"vel":1.0,"inst":"harp_v0_bowed_168","midi_source":""},{"t":224.217,"note":43,"dur":0.162,"vel":1.0,"inst":"tuba_v0_struck_284","midi_source":""},{"t":224.217,"note":47,"dur":0.162,"vel":1.0,"inst":"tuba_v0_struck_284","midi_source":""},{"t":224.217,"note":60,"dur":0.162,"vel":1.0,"inst":"harp_v0_bowed_168","midi_source":""},{"t":224.217,"note":64,"dur":0.162,"vel":1.0,"inst":"harp_v0_bowed_168","midi_source":""},{"t":224.379,"note":28,"dur":0.162,"vel":1.0,"inst":"harp_v0_bowed_168","midi_source":""},{"t":224.379,"note":40,"dur":0.162,"vel":1.0,"inst":"harp_v0_bowed_168","midi_source":""},{"t":224.379,"note":59,"dur":0.162,"vel":1.0,"inst":"tuba_v0_struck_284","midi_source":""},{"t":224.379,"note":62,"dur":0.162,"vel":1.0,"inst":"harp_v0_bowed_168","midi_source":""},{"t":224.542,"note":40,"dur":0.162,"vel":1.0,"inst":"harp_v0_bowed_168","midi_source":""},{"t":224.542,"note":43,"dur":0.162,"vel":1.0,"inst":"tuba_v0_struck_284","midi_source":""},{"t":224.542,"note":47,"dur":0.162,"vel":1.0,"inst":"tuba_v0_struck_284","midi_source":""},{"t":224.542,"note":57,"dur":0.162,"vel":1.0,"inst":"tuba_v0_struck_284","midi_source":""},{"t":224.542,"note":60,"dur":0.162,"vel":1.0,"inst":"harp_v0_bowed_168","midi_source":""},{"t":224.704,"note":40,"dur":0.162,"vel":1.0,"inst":"harp_v0_bowed_168","midi_source":""},{"t":224.704,"note":43,"dur":0.162,"vel":1.0,"inst":"tuba_v0_struck_284","midi_source":""},{"t":224.704,"note":47,"dur":0.162,"vel":1.0,"inst":"tuba_v0_struck_284","midi_source":""},{"t":224.704,"note":55,"dur":0.162,"vel":1.0,"inst":"tuba_v0_struck_284","midi_source":""},{"t":224.704,"note":59,"dur":0.162,"vel":1.0,"inst":"tuba_v0_struck_284","midi_source":""},{"t":224.866,"note":33,"dur":0.162,"vel":1.0,"inst":"tuba_v0_struck_284","midi_source":""},{"t":224.866,"note":57,"dur":0.487,"vel":1.0,"inst":"tuba_v0_struck_284","midi_source":""},{"t":225.029,"note":48,"dur":0.162,"vel":1.0,"inst":"harp_v0_bowed_168","midi_source":""},{"t":225.029,"note":52,"dur":0.162,"vel":1.0,"inst":"harp_v0_bowed_168","midi_source":""},{"t":225.191,"note":48,"dur":0.162,"vel":1.0,"inst":"harp_v0_bowed_168","midi_source":""},{"t":225.191,"note":52,"dur":0.162,"vel":1.0,"inst":"harp_v0_bowed_168","midi_source":""},{"t":225.354,"note":45,"dur":0.162,"vel":1.0,"inst":"tuba_v0_struck_284","midi_source":""},{"t":225.354,"note":69,"dur":0.081,"vel":1.0,"inst":"tuba_v0_struck_284","midi_source":""},{"t":225.435,"note":71,"dur":0.081,"vel":1.0,"inst":"tuba_v0_struck_284","midi_source":""},{"t":225.516,"note":48,"dur":0.162,"vel":1.0,"inst":"harp_v0_bowed_168","midi_source":""},{"t":225.516,"note":52,"dur":0.162,"vel":1.0,"inst":"harp_v0_bowed_168","midi_source":""},{"t":225.516,"note":57,"dur":0.162,"vel":1.0,"inst":"tuba_v0_struck_284","midi_source":""},{"t":225.516,"note":72,"dur":0.162,"vel":1.0,"inst":"harp_v0_bowed_168","midi_source":""},{"t":225.678,"note":48,"dur":0.162,"vel":1.0,"inst":"harp_v0_bowed_168","midi_source":""},{"t":225.678,"note":52,"dur":0.162,"vel":1.0,"inst":"harp_v0_bowed_168","midi_source":""},{"t":225.678,"note":57,"dur":0.162,"vel":1.0,"inst":"tuba_v0_struck_284","midi_source":""},{"t":225.678,"note":74,"dur":0.162,"vel":1.0,"inst":"harp_v0_bowed_168","midi_source":""},{"t":225.841,"note":45,"dur":0.162,"vel":1.0,"inst":"tuba_v0_struck_284","midi_source":""},{"t":225.841,"note":76,"dur":0.325,"vel":1.0,"inst":"harp_v0_bowed_168","midi_source":""},{"t":226.003,"note":48,"dur":0.162,"vel":1.0,"inst":"harp_v0_bowed_168","midi_source":""},{"t":226.003,"note":52,"dur":0.162,"vel":1.0,"inst":"harp_v0_bowed_168","midi_source":""},{"t":226.003,"note":57,"dur":0.162,"vel":1.0,"inst":"tuba_v0_struck_284","midi_source":""},{"t":226.166,"note":48,"dur":0.162,"vel":1.0,"inst":"harp_v0_bowed_168","midi_source":""},{"t":226.166,"note":52,"dur":0.162,"vel":1.0,"inst":"harp_v0_bowed_168","midi_source":""},{"t":226.166,"note":57,"dur":0.162,"vel":1.0,"inst":"tuba_v0_struck_284","midi_source":""},{"t":226.166,"note":77,"dur":0.162,"vel":1.0,"inst":"tuba_v0_struck_284","midi_source":""},{"t":226.328,"note":45,"dur":0.162,"vel":1.0,"inst":"tuba_v0_struck_284","midi_source":""},{"t":226.328,"note":77,"dur":0.081,"vel":1.0,"inst":"tuba_v0_struck_284","midi_source":""},{"t":226.328,"note":79,"dur":0.081,"vel":1.0,"inst":"tuba_v0_struck_284","midi_source":""},{"t":226.409,"note":76,"dur":0.081,"vel":1.0,"inst":"harp_v0_bowed_168","midi_source":""},{"t":226.49,"note":48,"dur":0.162,"vel":1.0,"inst":"harp_v0_bowed_168","midi_source":""},{"t":226.49,"note":52,"dur":0.162,"vel":1.0,"inst":"harp_v0_bowed_168","midi_source":""},{"t":226.49,"note":57,"dur":0.162,"vel":1.0,"inst":"tuba_v0_struck_284","midi_source":""},{"t":226.49,"note":76,"dur":0.162,"vel":1.0,"inst":"harp_v0_bowed_168","midi_source":""},{"t":226.653,"note":48,"dur":0.162,"vel":1.0,"inst":"harp_v0_bowed_168","midi_source":""},{"t":226.653,"note":52,"dur":0.162,"vel":1.0,"inst":"harp_v0_bowed_168","midi_source":""},{"t":226.653,"note":57,"dur":0.162,"vel":1.0,"inst":"tuba_v0_struck_284","midi_source":""},{"t":226.653,"note":81,"dur":0.162,"vel":1.0,"inst":"tuba_v0_struck_284","midi_source":""},{"t":226.815,"note":45,"dur":0.162,"vel":1.0,"inst":"tuba_v0_struck_284","midi_source":""},{"t":226.815,"note":76,"dur":0.325,"vel":1.0,"inst":"harp_v0_bowed_168","midi_source":""},{"t":226.978,"note":48,"dur":0.162,"vel":1.0,"inst":"harp_v0_bowed_168","midi_source":""},{"t":226.978,"note":52,"dur":0.162,"vel":1.0,"inst":"harp_v0_bowed_168","midi_source":""},{"t":226.978,"note":57,"dur":0.162,"vel":1.0,"inst":"tuba_v0_struck_284","midi_source":""},{"t":227.14,"note":48,"dur":0.162,"vel":1.0,"inst":"harp_v0_bowed_168","midi_source":""},{"t":227.14,"note":52,"dur":0.162,"vel":1.0,"inst":"harp_v0_bowed_168","midi_source":""},{"t":227.14,"note":57,"dur":0.162,"vel":1.0,"inst":"tuba_v0_struck_284","midi_source":""},{"t":227.14,"note":69,"dur":0.162,"vel":1.0,"inst":"tuba_v0_struck_284","midi_source":""},{"t":227.302,"note":40,"dur":0.162,"vel":1.0,"inst":"harp_v0_bowed_168","midi_source":""},{"t":227.302,"note":71,"dur":0.081,"vel":1.0,"inst":"tuba_v0_struck_284","midi_source":""},{"t":227.384,"note":76,"dur":0.081,"vel":1.0,"inst":"harp_v0_bowed_168","midi_source":""},{"t":227.465,"note":47,"dur":0.162,"vel":1.0,"inst":"tuba_v0_struck_284","midi_source":""},{"t":227.465,"note":52,"dur":0.162,"vel":1.0,"inst":"harp_v0_bowed_168","midi_source":""},{"t":227.465,"note":55,"dur":0.162,"vel":1.0,"inst":"tuba_v0_struck_284","midi_source":""},{"t":227.465,"note":76,"dur":0.162,"vel":1.0,"inst":"harp_v0_bowed_168","midi_source":""},{"t":227.627,"note":47,"dur":0.162,"vel":1.0,"inst":"tuba_v0_struck_284","midi_source":""},{"t":227.627,"note":52,"dur":0.162,"vel":1.0,"inst":"harp_v0_bowed_168","midi_source":""},{"t":227.627,"note":55,"dur":0.162,"vel":1.0,"inst":"tuba_v0_struck_284","midi_source":""},{"t":227.627,"note":71,"dur":0.162,"vel":1.0,"inst":"tuba_v0_struck_284","midi_source":""},{"t":227.79,"note":45,"dur":0.162,"vel":1.0,"inst":"tuba_v0_struck_284","midi_source":""},{"t":227.79,"note":72,"dur":0.325,"vel":1.0,"inst":"harp_v0_bowed_168","midi_source":""},{"t":227.952,"note":48,"dur":0.162,"vel":1.0,"inst":"harp_v0_bowed_168","midi_source":""},{"t":227.952,"note":52,"dur":0.162,"vel":1.0,"inst":"harp_v0_bowed_168","midi_source":""},{"t":227.952,"note":57,"dur":0.162,"vel":1.0,"inst":"tuba_v0_struck_284","midi_source":""},{"t":228.114,"note":48,"dur":0.162,"vel":1.0,"inst":"harp_v0_bowed_168","midi_source":""},{"t":228.114,"note":52,"dur":0.162,"vel":1.0,"inst":"harp_v0_bowed_168","midi_source":""},{"t":228.114,"note":57,"dur":0.162,"vel":1.0,"inst":"tuba_v0_struck_284","midi_source":""},{"t":228.114,"note":69,"dur":0.162,"vel":1.0,"inst":"tuba_v0_struck_284","midi_source":""},{"t":228.277,"note":40,"dur":0.162,"vel":1.0,"inst":"harp_v0_bowed_168","midi_source":""},{"t":228.277,"note":71,"dur":0.081,"vel":1.0,"inst":"tuba_v0_struck_284","midi_source":""},{"t":228.358,"note":76,"dur":0.081,"vel":1.0,"inst":"harp_v0_bowed_168","midi_source":""},{"t":228.439,"note":47,"dur":0.162,"vel":1.0,"inst":"tuba_v0_struck_284","midi_source":""},{"t":228.439,"note":52,"dur":0.162,"vel":1.0,"inst":"harp_v0_bowed_168","midi_source":""},{"t":228.439,"note":55,"dur":0.162,"vel":1.0,"inst":"tuba_v0_struck_284","midi_source":""},{"t":228.439,"note":76,"dur":0.162,"vel":1.0,"inst":"harp_v0_bowed_168","midi_source":""},{"t":228.602,"note":47,"dur":0.162,"vel":1.0,"inst":"tuba_v0_struck_284","midi_source":""},{"t":228.602,"note":52,"dur":0.162,"vel":1.0,"inst":"harp_v0_bowed_168","midi_source":""},{"t":228.602,"note":55,"dur":0.162,"vel":1.0,"inst":"tuba_v0_struck_284","midi_source":""},{"t":228.602,"note":67,"dur":0.162,"vel":1.0,"inst":"tuba_v0_struck_284","midi_source":""},{"t":228.764,"note":45,"dur":0.487,"vel":1.0,"inst":"tuba_v0_struck_284","midi_source":""},{"t":228.764,"note":48,"dur":0.487,"vel":1.0,"inst":"harp_v0_bowed_168","midi_source":""},{"t":228.764,"note":52,"dur":0.487,"vel":1.0,"inst":"harp_v0_bowed_168","midi_source":""},{"t":228.764,"note":57,"dur":0.487,"vel":1.0,"inst":"tuba_v0_struck_284","midi_source":""},{"t":228.764,"note":69,"dur":0.325,"vel":1.0,"inst":"tuba_v0_struck_284","midi_source":""},{"t":229.17,"note":76,"dur":0.081,"vel":1.0,"inst":"harp_v0_bowed_168","midi_source":""},{"t":229.17,"note":67,"dur":0.081,"vel":1.0,"inst":"tuba_v0_struck_284","midi_source":""},{"t":229.17,"note":79,"dur":0.081,"vel":1.0,"inst":"tuba_v0_struck_284","midi_source":""},{"t":229.251,"note":33,"dur":0.162,"vel":1.0,"inst":"tuba_v0_struck_284","midi_source":""},{"t":229.251,"note":40,"dur":0.162,"vel":1.0,"inst":"harp_v0_bowed_168","midi_source":""},{"t":229.251,"note":45,"dur":0.162,"vel":1.0,"inst":"tuba_v0_struck_284","midi_source":""},{"t":229.251,"note":81,"dur":0.081,"vel":1.0,"inst":"tuba_v0_struck_284","midi_source":""},{"t":229.332,"note":79,"dur":0.081,"vel":1.0,"inst":"tuba_v0_struck_284","midi_source":""},{"t":229.413,"note":48,"dur":0.162,"vel":1.0,"inst":"harp_v0_bowed_168","midi_source":""},{"t":229.413,"note":52,"dur":0.162,"vel":1.0,"inst":"harp_v0_bowed_168","midi_source":""},{"t":229.413,"note":77,"dur":0.081,"vel":1.0,"inst":"tuba_v0_struck_284","midi_source":""},{"t":229.495,"note":76,"dur":0.081,"vel":1.0,"inst":"harp_v0_bowed_168","midi_source":""},{"t":229.576,"note":45,"dur":0.162,"vel":1.0,"inst":"tuba_v0_struck_284","midi_source":""},{"t":229.576,"note":48,"dur":0.162,"vel":1.0,"inst":"harp_v0_bowed_168","midi_source":""},{"t":229.576,"note":74,"dur":0.081,"vel":1.0,"inst":"harp_v0_bowed_168","midi_source":""},{"t":229.657,"note":72,"dur":0.081,"vel":1.0,"inst":"harp_v0_bowed_168","midi_source":""},{"t":229.738,"note":28,"dur":0.162,"vel":1.0,"inst":"harp_v0_bowed_168","midi_source":""},{"t":229.738,"note":35,"dur":0.162,"vel":1.0,"inst":"tuba_v0_struck_284","midi_source":""},{"t":229.738,"note":40,"dur":0.162,"vel":1.0,"inst":"harp_v0_bowed_168","midi_source":""},{"t":229.738,"note":77,"dur":0.162,"vel":1.0,"inst":"tuba_v0_struck_284","midi_source":""},{"t":229.901,"note":47,"dur":0.162,"vel":1.0,"inst":"tuba_v0_struck_284","midi_source":""},{"t":229.901,"note":50,"dur":0.162,"vel":1.0,"inst":"harp_v0_bowed_168","midi_source":""},{"t":229.901,"note":76,"dur":0.081,"vel":1.0,"inst":"harp_v0_bowed_168","midi_source":""},{"t":229.982,"note":74,"dur":0.081,"vel":1.0,"inst":"harp_v0_bowed_168","midi_source":""},{"t":230.063,"note":43,"dur":0.162,"vel":1.0,"inst":"tuba_v0_struck_284","midi_source":""},{"t":230.063,"note":47,"dur":0.162,"vel":1.0,"inst":"tuba_v0_struck_284","midi_source":""},{"t":230.063,"note":72,"dur":0.081,"vel":1.0,"inst":"harp_v0_bowed_168","midi_source":""},{"t":230.144,"note":71,"dur":0.081,"vel":1.0,"inst":"tuba_v0_struck_284","midi_source":""},{"t":230.225,"note":28,"dur":0.162,"vel":1.0,"inst":"harp_v0_bowed_168","midi_source":""},{"t":230.225,"note":35,"dur":0.162,"vel":1.0,"inst":"tuba_v0_struck_284","midi_source":""},{"t":230.225,"note":40,"dur":0.162,"vel":1.0,"inst":"harp_v0_bowed_168","midi_source":""},{"t":230.225,"note":77,"dur":0.162,"vel":1.0,"inst":"tuba_v0_struck_284","midi_source":""},{"t":230.388,"note":47,"dur":0.162,"vel":1.0,"inst":"tuba_v0_struck_284","midi_source":""},{"t":230.388,"note":50,"dur":0.162,"vel":1.0,"inst":"harp_v0_bowed_168","midi_source":""},{"t":230.388,"note":76,"dur":0.081,"vel":1.0,"inst":"harp_v0_bowed_168","midi_source":""},{"t":230.469,"note":74,"dur":0.081,"vel":1.0,"inst":"harp_v0_bowed_168","midi_source":""},{"t":230.55,"note":43,"dur":0.162,"vel":1.0,"inst":"tuba_v0_struck_284","midi_source":""},{"t":230.55,"note":47,"dur":0.162,"vel":1.0,"inst":"tuba_v0_struck_284","midi_source":""},{"t":230.55,"note":72,"dur":0.081,"vel":1.0,"inst":"harp_v0_bowed_168","midi_source":""},{"t":230.713,"note":28,"dur":0.162,"vel":1.0,"inst":"harp_v0_bowed_168","midi_source":""},{"t":230.713,"note":40,"dur":0.162,"vel":1.0,"inst":"harp_v0_bowed_168","midi_source":""},{"t":230.713,"note":59,"dur":0.325,"vel":1.0,"inst":"tuba_v0_struck_284","midi_source":""},{"t":230.713,"note":62,"dur":0.325,"vel":1.0,"inst":"harp_v0_bowed_168","midi_source":""},{"t":230.875,"note":40,"dur":0.162,"vel":1.0,"inst":"harp_v0_bowed_168","midi_source":""},{"t":230.875,"note":43,"dur":0.162,"vel":1.0,"inst":"tuba_v0_struck_284","midi_source":""},{"t":230.875,"note":47,"dur":0.162,"vel":1.0,"inst":"tuba_v0_struck_284","midi_source":""},{"t":231.037,"note":40,"dur":0.162,"vel":1.0,"inst":"harp_v0_bowed_168","midi_source":""},{"t":231.037,"note":43,"dur":0.162,"vel":1.0,"inst":"tuba_v0_struck_284","midi_source":""},{"t":231.037,"note":47,"dur":0.162,"vel":1.0,"inst":"tuba_v0_struck_284","midi_source":""},{"t":231.037,"note":59,"dur":0.162,"vel":1.0,"inst":"tuba_v0_struck_284","midi_source":""},{"t":231.037,"note":62,"dur":0.162,"vel":1.0,"inst":"harp_v0_bowed_168","midi_source":""},{"t":231.2,"note":28,"dur":0.162,"vel":1.0,"inst":"harp_v0_bowed_168","midi_source":""},{"t":231.2,"note":40,"dur":0.162,"vel":1.0,"inst":"harp_v0_bowed_168","midi_source":""},{"t":231.2,"note":59,"dur":0.325,"vel":1.0,"inst":"tuba_v0_struck_284","midi_source":""},{"t":231.2,"note":62,"dur":0.325,"vel":1.0,"inst":"harp_v0_bowed_168","midi_source":""},{"t":231.362,"note":40,"dur":0.162,"vel":1.0,"inst":"harp_v0_bowed_168","midi_source":""},{"t":231.362,"note":43,"dur":0.162,"vel":1.0,"inst":"tuba_v0_struck_284","midi_source":""},{"t":231.362,"note":47,"dur":0.162,"vel":1.0,"inst":"tuba_v0_struck_284","midi_source":""},{"t":231.525,"note":40,"dur":0.162,"vel":1.0,"inst":"harp_v0_bowed_168","midi_source":""},{"t":231.525,"note":43,"dur":0.162,"vel":1.0,"inst":"tuba_v0_struck_284","midi_source":""},{"t":231.525,"note":47,"dur":0.162,"vel":1.0,"inst":"tuba_v0_struck_284","midi_source":""},{"t":231.525,"note":59,"dur":0.162,"vel":1.0,"inst":"tuba_v0_struck_284","midi_source":""},{"t":231.525,"note":62,"dur":0.162,"vel":1.0,"inst":"harp_v0_bowed_168","midi_source":""},{"t":231.687,"note":28,"dur":0.162,"vel":1.0,"inst":"harp_v0_bowed_168","midi_source":""},{"t":231.687,"note":40,"dur":0.162,"vel":1.0,"inst":"harp_v0_bowed_168","midi_source":""},{"t":231.687,"note":64,"dur":0.162,"vel":1.0,"inst":"harp_v0_bowed_168","midi_source":""},{"t":231.687,"note":67,"dur":0.162,"vel":1.0,"inst":"tuba_v0_struck_284","midi_source":""},{"t":231.849,"note":40,"dur":0.162,"vel":1.0,"inst":"harp_v0_bowed_168","midi_source":""},{"t":231.849,"note":43,"dur":0.162,"vel":1.0,"inst":"tuba_v0_struck_284","midi_source":""},{"t":231.849,"note":47,"dur":0.162,"vel":1.0,"inst":"tuba_v0_struck_284","midi_source":""},{"t":231.849,"note":62,"dur":0.162,"vel":1.0,"inst":"harp_v0_bowed_168","midi_source":""},{"t":231.849,"note":55,"dur":0.162,"vel":1.0,"inst":"tuba_v0_struck_284","midi_source":""},{"t":232.012,"note":40,"dur":0.162,"vel":1.0,"inst":"harp_v0_bowed_168","midi_source":""},{"t":232.012,"note":43,"dur":0.162,"vel":1.0,"inst":"tuba_v0_struck_284","midi_source":""},{"t":232.012,"note":47,"dur":0.162,"vel":1.0,"inst":"tuba_v0_struck_284","midi_source":""},{"t":232.012,"note":60,"dur":0.162,"vel":1.0,"inst":"harp_v0_bowed_168","midi_source":""},{"t":232.012,"note":64,"dur":0.162,"vel":1.0,"inst":"harp_v0_bowed_168","midi_source":""},{"t":232.174,"note":28,"dur":0.162,"vel":1.0,"inst":"harp_v0_bowed_168","midi_source":""},{"t":232.174,"note":40,"dur":0.162,"vel":1.0,"inst":"harp_v0_bowed_168","midi_source":""},{"t":232.174,"note":59,"dur":0.162,"vel":1.0,"inst":"tuba_v0_struck_284","midi_source":""},{"t":232.174,"note":62,"dur":0.162,"vel":1.0,"inst":"harp_v0_bowed_168","midi_source":""},{"t":232.337,"note":40,"dur":0.162,"vel":1.0,"inst":"harp_v0_bowed_168","midi_source":""},{"t":232.337,"note":43,"dur":0.162,"vel":1.0,"inst":"tuba_v0_struck_284","midi_source":""},{"t":232.337,"note":47,"dur":0.162,"vel":1.0,"inst":"tuba_v0_struck_284","midi_source":""},{"t":232.337,"note":57,"dur":0.162,"vel":1.0,"inst":"tuba_v0_struck_284","midi_source":""},{"t":232.337,"note":60,"dur":0.162,"vel":1.0,"inst":"harp_v0_bowed_168","midi_source":""},{"t":232.499,"note":40,"dur":0.162,"vel":1.0,"inst":"harp_v0_bowed_168","midi_source":""},{"t":232.499,"note":43,"dur":0.162,"vel":1.0,"inst":"tuba_v0_struck_284","midi_source":""},{"t":232.499,"note":47,"dur":0.162,"vel":1.0,"inst":"tuba_v0_struck_284","midi_source":""},{"t":232.499,"note":55,"dur":0.162,"vel":1.0,"inst":"tuba_v0_struck_284","midi_source":""},{"t":232.499,"note":59,"dur":0.162,"vel":1.0,"inst":"tuba_v0_struck_284","midi_source":""},{"t":232.661,"note":33,"dur":0.162,"vel":1.0,"inst":"tuba_v0_struck_284","midi_source":""},{"t":232.661,"note":57,"dur":0.487,"vel":1.0,"inst":"tuba_v0_struck_284","midi_source":""},{"t":232.824,"note":48,"dur":0.162,"vel":1.0,"inst":"harp_v0_bowed_168","midi_source":""},{"t":232.824,"note":52,"dur":0.162,"vel":1.0,"inst":"harp_v0_bowed_168","midi_source":""},{"t":232.986,"note":48,"dur":0.162,"vel":1.0,"inst":"harp_v0_bowed_168","midi_source":""},{"t":232.986,"note":52,"dur":0.162,"vel":1.0,"inst":"harp_v0_bowed_168","midi_source":""},{"t":233.149,"note":45,"dur":0.162,"vel":1.0,"inst":"tuba_v0_struck_284","midi_source":""},{"t":233.149,"note":69,"dur":0.081,"vel":1.0,"inst":"tuba_v0_struck_284","midi_source":""},{"t":233.23,"note":71,"dur":0.081,"vel":1.0,"inst":"tuba_v0_struck_284","midi_source":""},{"t":233.311,"note":48,"dur":0.162,"vel":1.0,"inst":"harp_v0_bowed_168","midi_source":""},{"t":233.311,"note":52,"dur":0.162,"vel":1.0,"inst":"harp_v0_bowed_168","midi_source":""},{"t":233.311,"note":57,"dur":0.162,"vel":1.0,"inst":"tuba_v0_struck_284","midi_source":""},{"t":233.311,"note":72,"dur":0.162,"vel":1.0,"inst":"harp_v0_bowed_168","midi_source":""},{"t":233.473,"note":48,"dur":0.162,"vel":1.0,"inst":"harp_v0_bowed_168","midi_source":""},{"t":233.473,"note":52,"dur":0.162,"vel":1.0,"inst":"harp_v0_bowed_168","midi_source":""},{"t":233.473,"note":57,"dur":0.162,"vel":1.0,"inst":"tuba_v0_struck_284","midi_source":""},{"t":233.473,"note":74,"dur":0.162,"vel":1.0,"inst":"harp_v0_bowed_168","midi_source":""},{"t":233.636,"note":45,"dur":0.162,"vel":1.0,"inst":"tuba_v0_struck_284","midi_source":""},{"t":233.636,"note":76,"dur":0.325,"vel":1.0,"inst":"harp_v0_bowed_168","midi_source":""},{"t":233.798,"note":48,"dur":0.162,"vel":1.0,"inst":"harp_v0_bowed_168","midi_source":""},{"t":233.798,"note":52,"dur":0.162,"vel":1.0,"inst":"harp_v0_bowed_168","midi_source":""},{"t":233.798,"note":57,"dur":0.162,"vel":1.0,"inst":"tuba_v0_struck_284","midi_source":""},{"t":233.961,"note":48,"dur":0.162,"vel":1.0,"inst":"harp_v0_bowed_168","midi_source":""},{"t":233.961,"note":52,"dur":0.162,"vel":1.0,"inst":"harp_v0_bowed_168","midi_source":""},{"t":233.961,"note":57,"dur":0.162,"vel":1.0,"inst":"tuba_v0_struck_284","midi_source":""},{"t":233.961,"note":77,"dur":0.162,"vel":1.0,"inst":"tuba_v0_struck_284","midi_source":""},{"t":234.123,"note":45,"dur":0.162,"vel":1.0,"inst":"tuba_v0_struck_284","midi_source":""},{"t":234.123,"note":77,"dur":0.081,"vel":1.0,"inst":"tuba_v0_struck_284","midi_source":""},{"t":234.123,"note":79,"dur":0.081,"vel":1.0,"inst":"tuba_v0_struck_284","midi_source":""},{"t":234.204,"note":76,"dur":0.081,"vel":1.0,"inst":"harp_v0_bowed_168","midi_source":""},{"t":234.285,"note":48,"dur":0.162,"vel":1.0,"inst":"harp_v0_bowed_168","midi_source":""},{"t":234.285,"note":52,"dur":0.162,"vel":1.0,"inst":"harp_v0_bowed_168","midi_source":""},{"t":234.285,"note":57,"dur":0.162,"vel":1.0,"inst":"tuba_v0_struck_284","midi_source":""},{"t":234.285,"note":76,"dur":0.162,"vel":1.0,"inst":"harp_v0_bowed_168","midi_source":""},{"t":234.448,"note":48,"dur":0.162,"vel":1.0,"inst":"harp_v0_bowed_168","midi_source":""},{"t":234.448,"note":52,"dur":0.162,"vel":1.0,"inst":"harp_v0_bowed_168","midi_source":""},{"t":234.448,"note":57,"dur":0.162,"vel":1.0,"inst":"tuba_v0_struck_284","midi_source":""},{"t":234.448,"note":81,"dur":0.162,"vel":1.0,"inst":"tuba_v0_struck_284","midi_source":""},{"t":234.61,"note":45,"dur":0.162,"vel":1.0,"inst":"tuba_v0_struck_284","midi_source":""},{"t":234.61,"note":76,"dur":0.325,"vel":1.0,"inst":"harp_v0_bowed_168","midi_source":""},{"t":234.773,"note":48,"dur":0.162,"vel":1.0,"inst":"harp_v0_bowed_168","midi_source":""},{"t":234.773,"note":52,"dur":0.162,"vel":1.0,"inst":"harp_v0_bowed_168","midi_source":""},{"t":234.773,"note":57,"dur":0.162,"vel":1.0,"inst":"tuba_v0_struck_284","midi_source":""},{"t":234.935,"note":48,"dur":0.162,"vel":1.0,"inst":"harp_v0_bowed_168","midi_source":""},{"t":234.935,"note":52,"dur":0.162,"vel":1.0,"inst":"harp_v0_bowed_168","midi_source":""},{"t":234.935,"note":57,"dur":0.162,"vel":1.0,"inst":"tuba_v0_struck_284","midi_source":""},{"t":234.935,"note":69,"dur":0.162,"vel":1.0,"inst":"tuba_v0_struck_284","midi_source":""},{"t":235.097,"note":40,"dur":0.162,"vel":1.0,"inst":"harp_v0_bowed_168","midi_source":""},{"t":235.097,"note":71,"dur":0.081,"vel":1.0,"inst":"tuba_v0_struck_284","midi_source":""},{"t":235.178,"note":76,"dur":0.081,"vel":1.0,"inst":"harp_v0_bowed_168","midi_source":""},{"t":235.26,"note":47,"dur":0.162,"vel":1.0,"inst":"tuba_v0_struck_284","midi_source":""},{"t":235.26,"note":52,"dur":0.162,"vel":1.0,"inst":"harp_v0_bowed_168","midi_source":""},{"t":235.26,"note":55,"dur":0.162,"vel":1.0,"inst":"tuba_v0_struck_284","midi_source":""},{"t":235.26,"note":76,"dur":0.162,"vel":1.0,"inst":"harp_v0_bowed_168","midi_source":""},{"t":235.422,"note":47,"dur":0.162,"vel":1.0,"inst":"tuba_v0_struck_284","midi_source":""},{"t":235.422,"note":52,"dur":0.162,"vel":1.0,"inst":"harp_v0_bowed_168","midi_source":""},{"t":235.422,"note":55,"dur":0.162,"vel":1.0,"inst":"tuba_v0_struck_284","midi_source":""},{"t":235.422,"note":71,"dur":0.162,"vel":1.0,"inst":"tuba_v0_struck_284","midi_source":""},{"t":235.584,"note":45,"dur":0.162,"vel":1.0,"inst":"tuba_v0_struck_284","midi_source":""},{"t":235.584,"note":72,"dur":0.325,"vel":1.0,"inst":"harp_v0_bowed_168","midi_source":""},{"t":235.747,"note":48,"dur":0.162,"vel":1.0,"inst":"harp_v0_bowed_168","midi_source":""},{"t":235.747,"note":52,"dur":0.162,"vel":1.0,"inst":"harp_v0_bowed_168","midi_source":""},{"t":235.747,"note":57,"dur":0.162,"vel":1.0,"inst":"tuba_v0_struck_284","midi_source":""},{"t":235.909,"note":48,"dur":0.162,"vel":1.0,"inst":"harp_v0_bowed_168","midi_source":""},{"t":235.909,"note":52,"dur":0.162,"vel":1.0,"inst":"harp_v0_bowed_168","midi_source":""},{"t":235.909,"note":57,"dur":0.162,"vel":1.0,"inst":"tuba_v0_struck_284","midi_source":""},{"t":235.909,"note":69,"dur":0.162,"vel":1.0,"inst":"tuba_v0_struck_284","midi_source":""},{"t":236.072,"note":40,"dur":0.162,"vel":1.0,"inst":"harp_v0_bowed_168","midi_source":""},{"t":236.072,"note":71,"dur":0.081,"vel":1.0,"inst":"tuba_v0_struck_284","midi_source":""},{"t":236.153,"note":76,"dur":0.081,"vel":1.0,"inst":"harp_v0_bowed_168","midi_source":""},{"t":236.234,"note":47,"dur":0.162,"vel":1.0,"inst":"tuba_v0_struck_284","midi_source":""},{"t":236.234,"note":52,"dur":0.162,"vel":1.0,"inst":"harp_v0_bowed_168","midi_source":""},{"t":236.234,"note":55,"dur":0.162,"vel":1.0,"inst":"tuba_v0_struck_284","midi_source":""},{"t":236.234,"note":76,"dur":0.162,"vel":1.0,"inst":"harp_v0_bowed_168","midi_source":""},{"t":236.396,"note":47,"dur":0.162,"vel":1.0,"inst":"tuba_v0_struck_284","midi_source":""},{"t":236.396,"note":52,"dur":0.162,"vel":1.0,"inst":"harp_v0_bowed_168","midi_source":""},{"t":236.396,"note":55,"dur":0.162,"vel":1.0,"inst":"tuba_v0_struck_284","midi_source":""},{"t":236.396,"note":67,"dur":0.162,"vel":1.0,"inst":"tuba_v0_struck_284","midi_source":""},{"t":236.559,"note":45,"dur":0.487,"vel":1.0,"inst":"tuba_v0_struck_284","midi_source":""},{"t":236.559,"note":48,"dur":0.487,"vel":1.0,"inst":"harp_v0_bowed_168","midi_source":""},{"t":236.559,"note":52,"dur":0.487,"vel":1.0,"inst":"harp_v0_bowed_168","midi_source":""},{"t":236.559,"note":57,"dur":0.487,"vel":1.0,"inst":"tuba_v0_struck_284","midi_source":""},{"t":236.559,"note":69,"dur":0.325,"vel":1.0,"inst":"tuba_v0_struck_284","midi_source":""},{"t":236.965,"note":76,"dur":0.081,"vel":1.0,"inst":"harp_v0_bowed_168","midi_source":""},{"t":236.965,"note":67,"dur":0.081,"vel":1.0,"inst":"tuba_v0_struck_284","midi_source":""},{"t":236.965,"note":79,"dur":0.081,"vel":1.0,"inst":"tuba_v0_struck_284","midi_source":""},{"t":237.046,"note":33,"dur":0.162,"vel":1.0,"inst":"tuba_v0_struck_284","midi_source":""},{"t":237.046,"note":40,"dur":0.162,"vel":1.0,"inst":"harp_v0_bowed_168","midi_source":""},{"t":237.046,"note":45,"dur":0.162,"vel":1.0,"inst":"tuba_v0_struck_284","midi_source":""},{"t":237.046,"note":81,"dur":0.081,"vel":1.0,"inst":"tuba_v0_struck_284","midi_source":""},{"t":237.127,"note":79,"dur":0.081,"vel":1.0,"inst":"tuba_v0_struck_284","midi_source":""},{"t":237.208,"note":48,"dur":0.162,"vel":1.0,"inst":"harp_v0_bowed_168","midi_source":""},{"t":237.208,"note":52,"dur":0.162,"vel":1.0,"inst":"harp_v0_bowed_168","midi_source":""},{"t":237.208,"note":77,"dur":0.081,"vel":1.0,"inst":"tuba_v0_struck_284","midi_source":""},{"t":237.29,"note":76,"dur":0.081,"vel":1.0,"inst":"harp_v0_bowed_168","midi_source":""},{"t":237.371,"note":45,"dur":0.162,"vel":1.0,"inst":"tuba_v0_struck_284","midi_source":""},{"t":237.371,"note":48,"dur":0.162,"vel":1.0,"inst":"harp_v0_bowed_168","midi_source":""},{"t":237.371,"note":74,"dur":0.081,"vel":1.0,"inst":"harp_v0_bowed_168","midi_source":""},{"t":237.452,"note":72,"dur":0.081,"vel":1.0,"inst":"harp_v0_bowed_168","midi_source":""},{"t":237.533,"note":28,"dur":0.162,"vel":1.0,"inst":"harp_v0_bowed_168","midi_source":""},{"t":237.533,"note":35,"dur":0.162,"vel":1.0,"inst":"tuba_v0_struck_284","midi_source":""},{"t":237.533,"note":40,"dur":0.162,"vel":1.0,"inst":"harp_v0_bowed_168","midi_source":""},{"t":237.533,"note":77,"dur":0.162,"vel":1.0,"inst":"tuba_v0_struck_284","midi_source":""},{"t":237.696,"note":47,"dur":0.162,"vel":1.0,"inst":"tuba_v0_struck_284","midi_source":""},{"t":237.696,"note":50,"dur":0.162,"vel":1.0,"inst":"harp_v0_bowed_168","midi_source":""},{"t":237.696,"note":76,"dur":0.081,"vel":1.0,"inst":"harp_v0_bowed_168","midi_source":""},{"t":237.777,"note":74,"dur":0.081,"vel":1.0,"inst":"harp_v0_bowed_168","midi_source":""},{"t":237.858,"note":43,"dur":0.162,"vel":1.0,"inst":"tuba_v0_struck_284","midi_source":""},{"t":237.858,"note":47,"dur":0.162,"vel":1.0,"inst":"tuba_v0_struck_284","midi_source":""},{"t":237.858,"note":72,"dur":0.081,"vel":1.0,"inst":"harp_v0_bowed_168","midi_source":""},{"t":237.939,"note":71,"dur":0.081,"vel":1.0,"inst":"tuba_v0_struck_284","midi_source":""},{"t":238.02,"note":28,"dur":0.162,"vel":1.0,"inst":"harp_v0_bowed_168","midi_source":""},{"t":238.02,"note":35,"dur":0.162,"vel":1.0,"inst":"tuba_v0_struck_284","midi_source":""},{"t":238.02,"note":40,"dur":0.162,"vel":1.0,"inst":"harp_v0_bowed_168","midi_source":""},{"t":238.02,"note":77,"dur":0.162,"vel":1.0,"inst":"tuba_v0_struck_284","midi_source":""},{"t":238.183,"note":47,"dur":0.162,"vel":1.0,"inst":"tuba_v0_struck_284","midi_source":""},{"t":238.183,"note":50,"dur":0.162,"vel":1.0,"inst":"harp_v0_bowed_168","midi_source":""},{"t":238.183,"note":76,"dur":0.081,"vel":1.0,"inst":"harp_v0_bowed_168","midi_source":""},{"t":238.264,"note":74,"dur":0.081,"vel":1.0,"inst":"harp_v0_bowed_168","midi_source":""},{"t":238.345,"note":43,"dur":0.162,"vel":1.0,"inst":"tuba_v0_struck_284","midi_source":""},{"t":238.345,"note":47,"dur":0.162,"vel":1.0,"inst":"tuba_v0_struck_284","midi_source":""},{"t":238.345,"note":72,"dur":0.081,"vel":1.0,"inst":"harp_v0_bowed_168","midi_source":""},{"t":238.508,"note":28,"dur":0.162,"vel":1.0,"inst":"harp_v0_bowed_168","midi_source":""},{"t":238.508,"note":40,"dur":0.162,"vel":1.0,"inst":"harp_v0_bowed_168","midi_source":""},{"t":238.508,"note":59,"dur":0.325,"vel":1.0,"inst":"tuba_v0_struck_284","midi_source":""},{"t":238.508,"note":62,"dur":0.325,"vel":1.0,"inst":"harp_v0_bowed_168","midi_source":""},{"t":238.67,"note":40,"dur":0.162,"vel":1.0,"inst":"harp_v0_bowed_168","midi_source":""},{"t":238.67,"note":43,"dur":0.162,"vel":1.0,"inst":"tuba_v0_struck_284","midi_source":""},{"t":238.67,"note":47,"dur":0.162,"vel":1.0,"inst":"tuba_v0_struck_284","midi_source":""},{"t":238.832,"note":40,"dur":0.162,"vel":1.0,"inst":"harp_v0_bowed_168","midi_source":""},{"t":238.832,"note":43,"dur":0.162,"vel":1.0,"inst":"tuba_v0_struck_284","midi_source":""},{"t":238.832,"note":47,"dur":0.162,"vel":1.0,"inst":"tuba_v0_struck_284","midi_source":""},{"t":238.832,"note":59,"dur":0.162,"vel":1.0,"inst":"tuba_v0_struck_284","midi_source":""},{"t":238.832,"note":62,"dur":0.162,"vel":1.0,"inst":"harp_v0_bowed_168","midi_source":""},{"t":238.995,"note":28,"dur":0.162,"vel":1.0,"inst":"harp_v0_bowed_168","midi_source":""},{"t":238.995,"note":40,"dur":0.162,"vel":1.0,"inst":"harp_v0_bowed_168","midi_source":""},{"t":238.995,"note":59,"dur":0.325,"vel":1.0,"inst":"tuba_v0_struck_284","midi_source":""},{"t":238.995,"note":62,"dur":0.325,"vel":1.0,"inst":"harp_v0_bowed_168","midi_source":""},{"t":239.157,"note":40,"dur":0.162,"vel":1.0,"inst":"harp_v0_bowed_168","midi_source":""},{"t":239.157,"note":43,"dur":0.162,"vel":1.0,"inst":"tuba_v0_struck_284","midi_source":""},{"t":239.157,"note":47,"dur":0.162,"vel":1.0,"inst":"tuba_v0_struck_284","midi_source":""},{"t":239.32,"note":40,"dur":0.162,"vel":1.0,"inst":"harp_v0_bowed_168","midi_source":""},{"t":239.32,"note":43,"dur":0.162,"vel":1.0,"inst":"tuba_v0_struck_284","midi_source":""},{"t":239.32,"note":47,"dur":0.162,"vel":1.0,"inst":"tuba_v0_struck_284","midi_source":""},{"t":239.32,"note":59,"dur":0.162,"vel":1.0,"inst":"tuba_v0_struck_284","midi_source":""},{"t":239.32,"note":62,"dur":0.162,"vel":1.0,"inst":"harp_v0_bowed_168","midi_source":""},{"t":239.482,"note":28,"dur":0.162,"vel":1.0,"inst":"harp_v0_bowed_168","midi_source":""},{"t":239.482,"note":40,"dur":0.162,"vel":1.0,"inst":"harp_v0_bowed_168","midi_source":""},{"t":239.482,"note":64,"dur":0.162,"vel":1.0,"inst":"harp_v0_bowed_168","midi_source":""},{"t":239.482,"note":67,"dur":0.162,"vel":1.0,"inst":"tuba_v0_struck_284","midi_source":""},{"t":239.644,"note":40,"dur":0.162,"vel":1.0,"inst":"harp_v0_bowed_168","midi_source":""},{"t":239.644,"note":43,"dur":0.162,"vel":1.0,"inst":"tuba_v0_struck_284","midi_source":""},{"t":239.644,"note":47,"dur":0.162,"vel":1.0,"inst":"tuba_v0_struck_284","midi_source":""},{"t":239.644,"note":62,"dur":0.162,"vel":1.0,"inst":"harp_v0_bowed_168","midi_source":""},{"t":239.644,"note":55,"dur":0.162,"vel":1.0,"inst":"tuba_v0_struck_284","midi_source":""},{"t":239.807,"note":40,"dur":0.162,"vel":1.0,"inst":"harp_v0_bowed_168","midi_source":""},{"t":239.807,"note":43,"dur":0.162,"vel":1.0,"inst":"tuba_v0_struck_284","midi_source":""},{"t":239.807,"note":47,"dur":0.162,"vel":1.0,"inst":"tuba_v0_struck_284","midi_source":""},{"t":239.807,"note":60,"dur":0.162,"vel":1.0,"inst":"harp_v0_bowed_168","midi_source":""},{"t":239.807,"note":64,"dur":0.162,"vel":1.0,"inst":"harp_v0_bowed_168","midi_source":""},{"t":239.969,"note":28,"dur":0.162,"vel":1.0,"inst":"harp_v0_bowed_168","midi_source":""},{"t":239.969,"note":40,"dur":0.162,"vel":1.0,"inst":"harp_v0_bowed_168","midi_source":""},{"t":239.969,"note":59,"dur":0.162,"vel":1.0,"inst":"tuba_v0_struck_284","midi_source":""},{"t":239.969,"note":62,"dur":0.162,"vel":1.0,"inst":"harp_v0_bowed_168","midi_source":""},{"t":240.132,"note":40,"dur":0.162,"vel":1.0,"inst":"harp_v0_bowed_168","midi_source":""},{"t":240.132,"note":43,"dur":0.162,"vel":1.0,"inst":"tuba_v0_struck_284","midi_source":""},{"t":240.132,"note":47,"dur":0.162,"vel":1.0,"inst":"tuba_v0_struck_284","midi_source":""},{"t":240.132,"note":57,"dur":0.162,"vel":1.0,"inst":"tuba_v0_struck_284","midi_source":""},{"t":240.132,"note":60,"dur":0.162,"vel":1.0,"inst":"harp_v0_bowed_168","midi_source":""},{"t":240.294,"note":40,"dur":0.162,"vel":1.0,"inst":"harp_v0_bowed_168","midi_source":""},{"t":240.294,"note":43,"dur":0.162,"vel":1.0,"inst":"tuba_v0_struck_284","midi_source":""},{"t":240.294,"note":47,"dur":0.162,"vel":1.0,"inst":"tuba_v0_struck_284","midi_source":""},{"t":240.294,"note":55,"dur":0.162,"vel":1.0,"inst":"tuba_v0_struck_284","midi_source":""},{"t":240.294,"note":59,"dur":0.162,"vel":1.0,"inst":"tuba_v0_struck_284","midi_source":""},{"t":240.456,"note":33,"dur":0.162,"vel":1.0,"inst":"tuba_v0_struck_284","midi_source":""},{"t":240.456,"note":57,"dur":0.487,"vel":1.0,"inst":"tuba_v0_struck_284","midi_source":""},{"t":240.619,"note":48,"dur":0.162,"vel":1.0,"inst":"harp_v0_bowed_168","midi_source":""},{"t":240.619,"note":52,"dur":0.162,"vel":1.0,"inst":"harp_v0_bowed_168","midi_source":""},{"t":240.781,"note":48,"dur":0.162,"vel":1.0,"inst":"harp_v0_bowed_168","midi_source":""},{"t":240.781,"note":52,"dur":0.162,"vel":1.0,"inst":"harp_v0_bowed_168","midi_source":""},{"t":240.943,"note":45,"dur":0.162,"vel":1.0,"inst":"tuba_v0_struck_284","midi_source":""},{"t":240.943,"note":69,"dur":0.081,"vel":1.0,"inst":"tuba_v0_struck_284","midi_source":""},{"t":241.025,"note":71,"dur":0.081,"vel":1.0,"inst":"tuba_v0_struck_284","midi_source":""},{"t":241.106,"note":48,"dur":0.162,"vel":1.0,"inst":"harp_v0_bowed_168","midi_source":""},{"t":241.106,"note":52,"dur":0.162,"vel":1.0,"inst":"harp_v0_bowed_168","midi_source":""},{"t":241.106,"note":57,"dur":0.162,"vel":1.0,"inst":"tuba_v0_struck_284","midi_source":""},{"t":241.106,"note":72,"dur":0.162,"vel":1.0,"inst":"harp_v0_bowed_168","midi_source":""},{"t":241.268,"note":48,"dur":0.162,"vel":1.0,"inst":"harp_v0_bowed_168","midi_source":""},{"t":241.268,"note":52,"dur":0.162,"vel":1.0,"inst":"harp_v0_bowed_168","midi_source":""},{"t":241.268,"note":57,"dur":0.162,"vel":1.0,"inst":"tuba_v0_struck_284","midi_source":""},{"t":241.268,"note":74,"dur":0.162,"vel":1.0,"inst":"harp_v0_bowed_168","midi_source":""},{"t":241.431,"note":45,"dur":0.162,"vel":1.0,"inst":"tuba_v0_struck_284","midi_source":""},{"t":241.431,"note":76,"dur":0.325,"vel":1.0,"inst":"harp_v0_bowed_168","midi_source":""},{"t":241.593,"note":48,"dur":0.162,"vel":1.0,"inst":"harp_v0_bowed_168","midi_source":""},{"t":241.593,"note":52,"dur":0.162,"vel":1.0,"inst":"harp_v0_bowed_168","midi_source":""},{"t":241.593,"note":57,"dur":0.162,"vel":1.0,"inst":"tuba_v0_struck_284","midi_source":""},{"t":241.755,"note":48,"dur":0.162,"vel":1.0,"inst":"harp_v0_bowed_168","midi_source":""},{"t":241.755,"note":52,"dur":0.162,"vel":1.0,"inst":"harp_v0_bowed_168","midi_source":""},{"t":241.755,"note":57,"dur":0.162,"vel":1.0,"inst":"tuba_v0_struck_284","midi_source":""},{"t":241.755,"note":77,"dur":0.162,"vel":1.0,"inst":"tuba_v0_struck_284","midi_source":""},{"t":241.918,"note":45,"dur":0.162,"vel":1.0,"inst":"tuba_v0_struck_284","midi_source":""},{"t":241.918,"note":77,"dur":0.081,"vel":1.0,"inst":"tuba_v0_struck_284","midi_source":""},{"t":241.918,"note":79,"dur":0.081,"vel":1.0,"inst":"tuba_v0_struck_284","midi_source":""},{"t":241.999,"note":76,"dur":0.081,"vel":1.0,"inst":"harp_v0_bowed_168","midi_source":""},{"t":242.08,"note":48,"dur":0.162,"vel":1.0,"inst":"harp_v0_bowed_168","midi_source":""},{"t":242.08,"note":52,"dur":0.162,"vel":1.0,"inst":"harp_v0_bowed_168","midi_source":""},{"t":242.08,"note":57,"dur":0.162,"vel":1.0,"inst":"tuba_v0_struck_284","midi_source":""},{"t":242.08,"note":76,"dur":0.162,"vel":1.0,"inst":"harp_v0_bowed_168","midi_source":""},{"t":242.243,"note":48,"dur":0.162,"vel":1.0,"inst":"harp_v0_bowed_168","midi_source":""},{"t":242.243,"note":52,"dur":0.162,"vel":1.0,"inst":"harp_v0_bowed_168","midi_source":""},{"t":242.243,"note":57,"dur":0.162,"vel":1.0,"inst":"tuba_v0_struck_284","midi_source":""},{"t":242.243,"note":81,"dur":0.162,"vel":1.0,"inst":"tuba_v0_struck_284","midi_source":""},{"t":242.405,"note":45,"dur":0.162,"vel":1.0,"inst":"tuba_v0_struck_284","midi_source":""},{"t":242.405,"note":76,"dur":0.325,"vel":1.0,"inst":"harp_v0_bowed_168","midi_source":""},{"t":242.567,"note":48,"dur":0.162,"vel":1.0,"inst":"harp_v0_bowed_168","midi_source":""},{"t":242.567,"note":52,"dur":0.162,"vel":1.0,"inst":"harp_v0_bowed_168","midi_source":""},{"t":242.567,"note":57,"dur":0.162,"vel":1.0,"inst":"tuba_v0_struck_284","midi_source":""},{"t":242.73,"note":48,"dur":0.162,"vel":1.0,"inst":"harp_v0_bowed_168","midi_source":""},{"t":242.73,"note":52,"dur":0.162,"vel":1.0,"inst":"harp_v0_bowed_168","midi_source":""},{"t":242.73,"note":57,"dur":0.162,"vel":1.0,"inst":"tuba_v0_struck_284","midi_source":""},{"t":242.73,"note":69,"dur":0.162,"vel":1.0,"inst":"tuba_v0_struck_284","midi_source":""},{"t":242.892,"note":40,"dur":0.162,"vel":1.0,"inst":"harp_v0_bowed_168","midi_source":""},{"t":242.892,"note":71,"dur":0.081,"vel":1.0,"inst":"tuba_v0_struck_284","midi_source":""},{"t":242.973,"note":76,"dur":0.081,"vel":1.0,"inst":"harp_v0_bowed_168","midi_source":""},{"t":243.055,"note":47,"dur":0.162,"vel":1.0,"inst":"tuba_v0_struck_284","midi_source":""},{"t":243.055,"note":52,"dur":0.162,"vel":1.0,"inst":"harp_v0_bowed_168","midi_source":""},{"t":243.055,"note":55,"dur":0.162,"vel":1.0,"inst":"tuba_v0_struck_284","midi_source":""},{"t":243.055,"note":76,"dur":0.162,"vel":1.0,"inst":"harp_v0_bowed_168","midi_source":""},{"t":243.217,"note":47,"dur":0.162,"vel":1.0,"inst":"tuba_v0_struck_284","midi_source":""},{"t":243.217,"note":52,"dur":0.162,"vel":1.0,"inst":"harp_v0_bowed_168","midi_source":""},{"t":243.217,"note":55,"dur":0.162,"vel":1.0,"inst":"tuba_v0_struck_284","midi_source":""},{"t":243.217,"note":71,"dur":0.162,"vel":1.0,"inst":"tuba_v0_struck_284","midi_source":""},{"t":243.379,"note":45,"dur":0.162,"vel":1.0,"inst":"tuba_v0_struck_284","midi_source":""},{"t":243.379,"note":72,"dur":0.325,"vel":1.0,"inst":"harp_v0_bowed_168","midi_source":""},{"t":243.542,"note":48,"dur":0.162,"vel":1.0,"inst":"harp_v0_bowed_168","midi_source":""},{"t":243.542,"note":52,"dur":0.162,"vel":1.0,"inst":"harp_v0_bowed_168","midi_source":""},{"t":243.542,"note":57,"dur":0.162,"vel":1.0,"inst":"tuba_v0_struck_284","midi_source":""},{"t":243.704,"note":48,"dur":0.162,"vel":1.0,"inst":"harp_v0_bowed_168","midi_source":""},{"t":243.704,"note":52,"dur":0.162,"vel":1.0,"inst":"harp_v0_bowed_168","midi_source":""},{"t":243.704,"note":57,"dur":0.162,"vel":1.0,"inst":"tuba_v0_struck_284","midi_source":""},{"t":243.704,"note":69,"dur":0.162,"vel":1.0,"inst":"tuba_v0_struck_284","midi_source":""},{"t":243.867,"note":40,"dur":0.162,"vel":1.0,"inst":"harp_v0_bowed_168","midi_source":""},{"t":243.867,"note":71,"dur":0.081,"vel":1.0,"inst":"tuba_v0_struck_284","midi_source":""},{"t":243.948,"note":76,"dur":0.081,"vel":1.0,"inst":"harp_v0_bowed_168","midi_source":""},{"t":244.029,"note":47,"dur":0.162,"vel":1.0,"inst":"tuba_v0_struck_284","midi_source":""},{"t":244.029,"note":52,"dur":0.162,"vel":1.0,"inst":"harp_v0_bowed_168","midi_source":""},{"t":244.029,"note":55,"dur":0.162,"vel":1.0,"inst":"tuba_v0_struck_284","midi_source":""},{"t":244.029,"note":76,"dur":0.162,"vel":1.0,"inst":"harp_v0_bowed_168","midi_source":""},{"t":244.191,"note":47,"dur":0.162,"vel":1.0,"inst":"tuba_v0_struck_284","midi_source":""},{"t":244.191,"note":52,"dur":0.162,"vel":1.0,"inst":"harp_v0_bowed_168","midi_source":""},{"t":244.191,"note":55,"dur":0.162,"vel":1.0,"inst":"tuba_v0_struck_284","midi_source":""},{"t":244.191,"note":67,"dur":0.162,"vel":1.0,"inst":"tuba_v0_struck_284","midi_source":""},{"t":244.354,"note":45,"dur":0.487,"vel":1.0,"inst":"tuba_v0_struck_284","midi_source":""},{"t":244.354,"note":48,"dur":0.487,"vel":1.0,"inst":"harp_v0_bowed_168","midi_source":""},{"t":244.354,"note":52,"dur":0.487,"vel":1.0,"inst":"harp_v0_bowed_168","midi_source":""},{"t":244.354,"note":57,"dur":0.487,"vel":1.0,"inst":"tuba_v0_struck_284","midi_source":""},{"t":244.354,"note":69,"dur":0.325,"vel":1.0,"inst":"tuba_v0_struck_284","midi_source":""},{"t":244.76,"note":76,"dur":0.081,"vel":1.0,"inst":"harp_v0_bowed_168","midi_source":""},{"t":244.76,"note":67,"dur":0.081,"vel":1.0,"inst":"tuba_v0_struck_284","midi_source":""},{"t":244.76,"note":79,"dur":0.081,"vel":1.0,"inst":"tuba_v0_struck_284","midi_source":""},{"t":244.841,"note":33,"dur":0.162,"vel":1.0,"inst":"tuba_v0_struck_284","midi_source":""},{"t":244.841,"note":40,"dur":0.162,"vel":1.0,"inst":"harp_v0_bowed_168","midi_source":""},{"t":244.841,"note":45,"dur":0.162,"vel":1.0,"inst":"tuba_v0_struck_284","midi_source":""},{"t":244.841,"note":81,"dur":0.081,"vel":1.0,"inst":"tuba_v0_struck_284","midi_source":""},{"t":244.922,"note":79,"dur":0.081,"vel":1.0,"inst":"tuba_v0_struck_284","midi_source":""},{"t":245.003,"note":48,"dur":0.162,"vel":1.0,"inst":"harp_v0_bowed_168","midi_source":""},{"t":245.003,"note":52,"dur":0.162,"vel":1.0,"inst":"harp_v0_bowed_168","midi_source":""},{"t":245.003,"note":77,"dur":0.081,"vel":1.0,"inst":"tuba_v0_struck_284","midi_source":""},{"t":245.085,"note":76,"dur":0.081,"vel":1.0,"inst":"harp_v0_bowed_168","midi_source":""},{"t":245.166,"note":45,"dur":0.162,"vel":1.0,"inst":"tuba_v0_struck_284","midi_source":""},{"t":245.166,"note":48,"dur":0.162,"vel":1.0,"inst":"harp_v0_bowed_168","midi_source":""},{"t":245.166,"note":74,"dur":0.081,"vel":1.0,"inst":"harp_v0_bowed_168","midi_source":""},{"t":245.247,"note":72,"dur":0.081,"vel":1.0,"inst":"harp_v0_bowed_168","midi_source":""},{"t":245.328,"note":28,"dur":0.162,"vel":1.0,"inst":"harp_v0_bowed_168","midi_source":""},{"t":245.328,"note":35,"dur":0.162,"vel":1.0,"inst":"tuba_v0_struck_284","midi_source":""},{"t":245.328,"note":40,"dur":0.162,"vel":1.0,"inst":"harp_v0_bowed_168","midi_source":""},{"t":245.328,"note":77,"dur":0.162,"vel":1.0,"inst":"tuba_v0_struck_284","midi_source":""},{"t":245.491,"note":47,"dur":0.162,"vel":1.0,"inst":"tuba_v0_struck_284","midi_source":""},{"t":245.491,"note":50,"dur":0.162,"vel":1.0,"inst":"harp_v0_bowed_168","midi_source":""},{"t":245.491,"note":76,"dur":0.081,"vel":1.0,"inst":"harp_v0_bowed_168","midi_source":""},{"t":245.572,"note":74,"dur":0.081,"vel":1.0,"inst":"harp_v0_bowed_168","midi_source":""},{"t":245.653,"note":43,"dur":0.162,"vel":1.0,"inst":"tuba_v0_struck_284","midi_source":""},{"t":245.653,"note":47,"dur":0.162,"vel":1.0,"inst":"tuba_v0_struck_284","midi_source":""},{"t":245.653,"note":72,"dur":0.081,"vel":1.0,"inst":"harp_v0_bowed_168","midi_source":""},{"t":245.734,"note":71,"dur":0.081,"vel":1.0,"inst":"tuba_v0_struck_284","midi_source":""},{"t":245.815,"note":28,"dur":0.162,"vel":1.0,"inst":"harp_v0_bowed_168","midi_source":""},{"t":245.815,"note":35,"dur":0.162,"vel":1.0,"inst":"tuba_v0_struck_284","midi_source":""},{"t":245.815,"note":40,"dur":0.162,"vel":1.0,"inst":"harp_v0_bowed_168","midi_source":""},{"t":245.815,"note":77,"dur":0.162,"vel":1.0,"inst":"tuba_v0_struck_284","midi_source":""},{"t":245.978,"note":47,"dur":0.162,"vel":1.0,"inst":"tuba_v0_struck_284","midi_source":""},{"t":245.978,"note":50,"dur":0.162,"vel":1.0,"inst":"harp_v0_bowed_168","midi_source":""},{"t":245.978,"note":76,"dur":0.081,"vel":1.0,"inst":"harp_v0_bowed_168","midi_source":""},{"t":246.059,"note":74,"dur":0.081,"vel":1.0,"inst":"harp_v0_bowed_168","midi_source":""},{"t":246.14,"note":43,"dur":0.162,"vel":1.0,"inst":"tuba_v0_struck_284","midi_source":""},{"t":246.14,"note":47,"dur":0.162,"vel":1.0,"inst":"tuba_v0_struck_284","midi_source":""},{"t":246.14,"note":72,"dur":0.081,"vel":1.0,"inst":"harp_v0_bowed_168","midi_source":""},{"t":246.303,"note":28,"dur":0.162,"vel":1.0,"inst":"harp_v0_bowed_168","midi_source":""},{"t":246.303,"note":40,"dur":0.162,"vel":1.0,"inst":"harp_v0_bowed_168","midi_source":""},{"t":246.303,"note":59,"dur":0.325,"vel":1.0,"inst":"tuba_v0_struck_284","midi_source":""},{"t":246.303,"note":62,"dur":0.325,"vel":1.0,"inst":"harp_v0_bowed_168","midi_source":""},{"t":246.465,"note":40,"dur":0.162,"vel":1.0,"inst":"harp_v0_bowed_168","midi_source":""},{"t":246.465,"note":43,"dur":0.162,"vel":1.0,"inst":"tuba_v0_struck_284","midi_source":""},{"t":246.465,"note":47,"dur":0.162,"vel":1.0,"inst":"tuba_v0_struck_284","midi_source":""},{"t":246.627,"note":40,"dur":0.162,"vel":1.0,"inst":"harp_v0_bowed_168","midi_source":""},{"t":246.627,"note":43,"dur":0.162,"vel":1.0,"inst":"tuba_v0_struck_284","midi_source":""},{"t":246.627,"note":47,"dur":0.162,"vel":1.0,"inst":"tuba_v0_struck_284","midi_source":""},{"t":246.627,"note":59,"dur":0.162,"vel":1.0,"inst":"tuba_v0_struck_284","midi_source":""},{"t":246.627,"note":62,"dur":0.162,"vel":1.0,"inst":"harp_v0_bowed_168","midi_source":""},{"t":246.79,"note":28,"dur":0.162,"vel":1.0,"inst":"harp_v0_bowed_168","midi_source":""},{"t":246.79,"note":40,"dur":0.162,"vel":1.0,"inst":"harp_v0_bowed_168","midi_source":""},{"t":246.79,"note":59,"dur":0.325,"vel":1.0,"inst":"tuba_v0_struck_284","midi_source":""},{"t":246.79,"note":62,"dur":0.325,"vel":1.0,"inst":"harp_v0_bowed_168","midi_source":""},{"t":246.952,"note":40,"dur":0.162,"vel":1.0,"inst":"harp_v0_bowed_168","midi_source":""},{"t":246.952,"note":43,"dur":0.162,"vel":1.0,"inst":"tuba_v0_struck_284","midi_source":""},{"t":246.952,"note":47,"dur":0.162,"vel":1.0,"inst":"tuba_v0_struck_284","midi_source":""},{"t":247.114,"note":40,"dur":0.162,"vel":1.0,"inst":"harp_v0_bowed_168","midi_source":""},{"t":247.114,"note":43,"dur":0.162,"vel":1.0,"inst":"tuba_v0_struck_284","midi_source":""},{"t":247.114,"note":47,"dur":0.162,"vel":1.0,"inst":"tuba_v0_struck_284","midi_source":""},{"t":247.114,"note":59,"dur":0.162,"vel":1.0,"inst":"tuba_v0_struck_284","midi_source":""},{"t":247.114,"note":62,"dur":0.162,"vel":1.0,"inst":"harp_v0_bowed_168","midi_source":""},{"t":247.277,"note":28,"dur":0.162,"vel":1.0,"inst":"harp_v0_bowed_168","midi_source":""},{"t":247.277,"note":40,"dur":0.162,"vel":1.0,"inst":"harp_v0_bowed_168","midi_source":""},{"t":247.277,"note":64,"dur":0.162,"vel":1.0,"inst":"harp_v0_bowed_168","midi_source":""},{"t":247.277,"note":67,"dur":0.162,"vel":1.0,"inst":"tuba_v0_struck_284","midi_source":""},{"t":247.439,"note":40,"dur":0.162,"vel":1.0,"inst":"harp_v0_bowed_168","midi_source":""},{"t":247.439,"note":43,"dur":0.162,"vel":1.0,"inst":"tuba_v0_struck_284","midi_source":""},{"t":247.439,"note":47,"dur":0.162,"vel":1.0,"inst":"tuba_v0_struck_284","midi_source":""},{"t":247.439,"note":62,"dur":0.162,"vel":1.0,"inst":"harp_v0_bowed_168","midi_source":""},{"t":247.439,"note":55,"dur":0.162,"vel":1.0,"inst":"tuba_v0_struck_284","midi_source":""},{"t":247.602,"note":40,"dur":0.162,"vel":1.0,"inst":"harp_v0_bowed_168","midi_source":""},{"t":247.602,"note":43,"dur":0.162,"vel":1.0,"inst":"tuba_v0_struck_284","midi_source":""},{"t":247.602,"note":47,"dur":0.162,"vel":1.0,"inst":"tuba_v0_struck_284","midi_source":""},{"t":247.602,"note":60,"dur":0.162,"vel":1.0,"inst":"harp_v0_bowed_168","midi_source":""},{"t":247.602,"note":64,"dur":0.162,"vel":1.0,"inst":"harp_v0_bowed_168","midi_source":""},{"t":247.764,"note":28,"dur":0.162,"vel":1.0,"inst":"harp_v0_bowed_168","midi_source":""},{"t":247.764,"note":40,"dur":0.162,"vel":1.0,"inst":"harp_v0_bowed_168","midi_source":""},{"t":247.764,"note":59,"dur":0.162,"vel":1.0,"inst":"tuba_v0_struck_284","midi_source":""},{"t":247.764,"note":62,"dur":0.162,"vel":1.0,"inst":"harp_v0_bowed_168","midi_source":""},{"t":247.926,"note":40,"dur":0.162,"vel":1.0,"inst":"harp_v0_bowed_168","midi_source":""},{"t":247.926,"note":43,"dur":0.162,"vel":1.0,"inst":"tuba_v0_struck_284","midi_source":""},{"t":247.926,"note":47,"dur":0.162,"vel":1.0,"inst":"tuba_v0_struck_284","midi_source":""},{"t":247.926,"note":57,"dur":0.162,"vel":1.0,"inst":"tuba_v0_struck_284","midi_source":""},{"t":247.926,"note":60,"dur":0.162,"vel":1.0,"inst":"harp_v0_bowed_168","midi_source":""},{"t":248.089,"note":40,"dur":0.162,"vel":1.0,"inst":"harp_v0_bowed_168","midi_source":""},{"t":248.089,"note":43,"dur":0.162,"vel":1.0,"inst":"tuba_v0_struck_284","midi_source":""},{"t":248.089,"note":47,"dur":0.162,"vel":1.0,"inst":"tuba_v0_struck_284","midi_source":""},{"t":248.089,"note":55,"dur":0.162,"vel":1.0,"inst":"tuba_v0_struck_284","midi_source":""},{"t":248.089,"note":59,"dur":0.162,"vel":1.0,"inst":"tuba_v0_struck_284","midi_source":""},{"t":248.251,"note":33,"dur":0.162,"vel":1.0,"inst":"tuba_v0_struck_284","midi_source":""},{"t":248.251,"note":57,"dur":0.487,"vel":1.0,"inst":"tuba_v0_struck_284","midi_source":""},{"t":248.414,"note":48,"dur":0.162,"vel":1.0,"inst":"harp_v0_bowed_168","midi_source":""},{"t":248.414,"note":52,"dur":0.162,"vel":1.0,"inst":"harp_v0_bowed_168","midi_source":""},{"t":248.576,"note":48,"dur":0.162,"vel":1.0,"inst":"harp_v0_bowed_168","midi_source":""},{"t":248.576,"note":52,"dur":0.162,"vel":1.0,"inst":"harp_v0_bowed_168","midi_source":""},{"t":248.738,"note":45,"dur":0.162,"vel":1.0,"inst":"tuba_v0_struck_284","midi_source":""},{"t":248.738,"note":69,"dur":0.081,"vel":1.0,"inst":"tuba_v0_struck_284","midi_source":""},{"t":248.82,"note":71,"dur":0.081,"vel":1.0,"inst":"tuba_v0_struck_284","midi_source":""},{"t":248.901,"note":48,"dur":0.162,"vel":1.0,"inst":"harp_v0_bowed_168","midi_source":""},{"t":248.901,"note":52,"dur":0.162,"vel":1.0,"inst":"harp_v0_bowed_168","midi_source":""},{"t":248.901,"note":57,"dur":0.162,"vel":1.0,"inst":"tuba_v0_struck_284","midi_source":""},{"t":248.901,"note":72,"dur":0.162,"vel":1.0,"inst":"harp_v0_bowed_168","midi_source":""},{"t":249.063,"note":48,"dur":0.162,"vel":1.0,"inst":"harp_v0_bowed_168","midi_source":""},{"t":249.063,"note":52,"dur":0.162,"vel":1.0,"inst":"harp_v0_bowed_168","midi_source":""},{"t":249.063,"note":57,"dur":0.162,"vel":1.0,"inst":"tuba_v0_struck_284","midi_source":""},{"t":249.063,"note":74,"dur":0.162,"vel":1.0,"inst":"harp_v0_bowed_168","midi_source":""},{"t":249.226,"note":45,"dur":0.162,"vel":1.0,"inst":"tuba_v0_struck_284","midi_source":""},{"t":249.226,"note":76,"dur":0.325,"vel":1.0,"inst":"harp_v0_bowed_168","midi_source":""},{"t":249.388,"note":48,"dur":0.162,"vel":1.0,"inst":"harp_v0_bowed_168","midi_source":""},{"t":249.388,"note":52,"dur":0.162,"vel":1.0,"inst":"harp_v0_bowed_168","midi_source":""},{"t":249.388,"note":57,"dur":0.162,"vel":1.0,"inst":"tuba_v0_struck_284","midi_source":""},{"t":249.55,"note":48,"dur":0.162,"vel":1.0,"inst":"harp_v0_bowed_168","midi_source":""},{"t":249.55,"note":52,"dur":0.162,"vel":1.0,"inst":"harp_v0_bowed_168","midi_source":""},{"t":249.55,"note":57,"dur":0.162,"vel":1.0,"inst":"tuba_v0_struck_284","midi_source":""},{"t":249.55,"note":77,"dur":0.162,"vel":1.0,"inst":"tuba_v0_struck_284","midi_source":""},{"t":249.713,"note":45,"dur":0.162,"vel":1.0,"inst":"tuba_v0_struck_284","midi_source":""},{"t":249.713,"note":77,"dur":0.081,"vel":1.0,"inst":"tuba_v0_struck_284","midi_source":""},{"t":249.713,"note":79,"dur":0.081,"vel":1.0,"inst":"tuba_v0_struck_284","midi_source":""},{"t":249.794,"note":76,"dur":0.081,"vel":1.0,"inst":"harp_v0_bowed_168","midi_source":""},{"t":249.875,"note":48,"dur":0.162,"vel":1.0,"inst":"harp_v0_bowed_168","midi_source":""},{"t":249.875,"note":52,"dur":0.162,"vel":1.0,"inst":"harp_v0_bowed_168","midi_source":""},{"t":249.875,"note":57,"dur":0.162,"vel":1.0,"inst":"tuba_v0_struck_284","midi_source":""},{"t":249.875,"note":76,"dur":0.162,"vel":1.0,"inst":"harp_v0_bowed_168","midi_source":""},{"t":250.038,"note":48,"dur":0.162,"vel":1.0,"inst":"harp_v0_bowed_168","midi_source":""},{"t":250.038,"note":52,"dur":0.162,"vel":1.0,"inst":"harp_v0_bowed_168","midi_source":""},{"t":250.038,"note":57,"dur":0.162,"vel":1.0,"inst":"tuba_v0_struck_284","midi_source":""},{"t":250.038,"note":81,"dur":0.162,"vel":1.0,"inst":"tuba_v0_struck_284","midi_source":""},{"t":250.2,"note":45,"dur":0.162,"vel":1.0,"inst":"tuba_v0_struck_284","midi_source":""},{"t":250.2,"note":76,"dur":0.325,"vel":1.0,"inst":"harp_v0_bowed_168","midi_source":""},{"t":250.362,"note":48,"dur":0.162,"vel":1.0,"inst":"harp_v0_bowed_168","midi_source":""},{"t":250.362,"note":52,"dur":0.162,"vel":1.0,"inst":"harp_v0_bowed_168","midi_source":""},{"t":250.362,"note":57,"dur":0.162,"vel":1.0,"inst":"tuba_v0_struck_284","midi_source":""},{"t":250.525,"note":48,"dur":0.162,"vel":1.0,"inst":"harp_v0_bowed_168","midi_source":""},{"t":250.525,"note":52,"dur":0.162,"vel":1.0,"inst":"harp_v0_bowed_168","midi_source":""},{"t":250.525,"note":57,"dur":0.162,"vel":1.0,"inst":"tuba_v0_struck_284","midi_source":""},{"t":250.525,"note":69,"dur":0.162,"vel":1.0,"inst":"tuba_v0_struck_284","midi_source":""},{"t":250.687,"note":40,"dur":0.162,"vel":1.0,"inst":"harp_v0_bowed_168","midi_source":""},{"t":250.687,"note":71,"dur":0.081,"vel":1.0,"inst":"tuba_v0_struck_284","midi_source":""},{"t":250.768,"note":76,"dur":0.081,"vel":1.0,"inst":"harp_v0_bowed_168","midi_source":""},{"t":250.85,"note":47,"dur":0.162,"vel":1.0,"inst":"tuba_v0_struck_284","midi_source":""},{"t":250.85,"note":52,"dur":0.162,"vel":1.0,"inst":"harp_v0_bowed_168","midi_source":""},{"t":250.85,"note":55,"dur":0.162,"vel":1.0,"inst":"tuba_v0_struck_284","midi_source":""},{"t":250.85,"note":76,"dur":0.162,"vel":1.0,"inst":"harp_v0_bowed_168","midi_source":""},{"t":251.012,"note":47,"dur":0.162,"vel":1.0,"inst":"tuba_v0_struck_284","midi_source":""},{"t":251.012,"note":52,"dur":0.162,"vel":1.0,"inst":"harp_v0_bowed_168","midi_source":""},{"t":251.012,"note":55,"dur":0.162,"vel":1.0,"inst":"tuba_v0_struck_284","midi_source":""},{"t":251.012,"note":71,"dur":0.162,"vel":1.0,"inst":"tuba_v0_struck_284","midi_source":""},{"t":251.174,"note":45,"dur":0.162,"vel":1.0,"inst":"tuba_v0_struck_284","midi_source":""},{"t":251.174,"note":72,"dur":0.325,"vel":1.0,"inst":"harp_v0_bowed_168","midi_source":""},{"t":251.337,"note":48,"dur":0.162,"vel":1.0,"inst":"harp_v0_bowed_168","midi_source":""},{"t":251.337,"note":52,"dur":0.162,"vel":1.0,"inst":"harp_v0_bowed_168","midi_source":""},{"t":251.337,"note":57,"dur":0.162,"vel":1.0,"inst":"tuba_v0_struck_284","midi_source":""},{"t":251.499,"note":48,"dur":0.162,"vel":1.0,"inst":"harp_v0_bowed_168","midi_source":""},{"t":251.499,"note":52,"dur":0.162,"vel":1.0,"inst":"harp_v0_bowed_168","midi_source":""},{"t":251.499,"note":57,"dur":0.162,"vel":1.0,"inst":"tuba_v0_struck_284","midi_source":""},{"t":251.499,"note":69,"dur":0.162,"vel":1.0,"inst":"tuba_v0_struck_284","midi_source":""},{"t":251.662,"note":40,"dur":0.162,"vel":1.0,"inst":"harp_v0_bowed_168","midi_source":""},{"t":251.662,"note":71,"dur":0.081,"vel":1.0,"inst":"tuba_v0_struck_284","midi_source":""},{"t":251.743,"note":76,"dur":0.081,"vel":1.0,"inst":"harp_v0_bowed_168","midi_source":""},{"t":251.824,"note":47,"dur":0.162,"vel":1.0,"inst":"tuba_v0_struck_284","midi_source":""},{"t":251.824,"note":52,"dur":0.162,"vel":1.0,"inst":"harp_v0_bowed_168","midi_source":""},{"t":251.824,"note":55,"dur":0.162,"vel":1.0,"inst":"tuba_v0_struck_284","midi_source":""},{"t":251.824,"note":76,"dur":0.162,"vel":1.0,"inst":"harp_v0_bowed_168","midi_source":""},{"t":251.986,"note":47,"dur":0.162,"vel":1.0,"inst":"tuba_v0_struck_284","midi_source":""},{"t":251.986,"note":52,"dur":0.162,"vel":1.0,"inst":"harp_v0_bowed_168","midi_source":""},{"t":251.986,"note":55,"dur":0.162,"vel":1.0,"inst":"tuba_v0_struck_284","midi_source":""},{"t":251.986,"note":67,"dur":0.162,"vel":1.0,"inst":"tuba_v0_struck_284","midi_source":""},{"t":252.149,"note":45,"dur":0.487,"vel":1.0,"inst":"tuba_v0_struck_284","midi_source":""},{"t":252.149,"note":48,"dur":0.487,"vel":1.0,"inst":"harp_v0_bowed_168","midi_source":""},{"t":252.149,"note":52,"dur":0.487,"vel":1.0,"inst":"harp_v0_bowed_168","midi_source":""},{"t":252.149,"note":57,"dur":0.487,"vel":1.0,"inst":"tuba_v0_struck_284","midi_source":""},{"t":252.149,"note":69,"dur":0.325,"vel":1.0,"inst":"tuba_v0_struck_284","midi_source":""},{"t":252.555,"note":76,"dur":0.081,"vel":1.0,"inst":"harp_v0_bowed_168","midi_source":""},{"t":252.555,"note":67,"dur":0.081,"vel":1.0,"inst":"tuba_v0_struck_284","midi_source":""},{"t":252.555,"note":79,"dur":0.081,"vel":1.0,"inst":"tuba_v0_struck_284","midi_source":""},{"t":252.636,"note":33,"dur":0.162,"vel":1.0,"inst":"tuba_v0_struck_284","midi_source":""},{"t":252.636,"note":40,"dur":0.162,"vel":1.0,"inst":"harp_v0_bowed_168","midi_source":""},{"t":252.636,"note":45,"dur":0.162,"vel":1.0,"inst":"tuba_v0_struck_284","midi_source":""},{"t":252.636,"note":81,"dur":0.081,"vel":1.0,"inst":"tuba_v0_struck_284","midi_source":""},{"t":252.717,"note":79,"dur":0.081,"vel":1.0,"inst":"tuba_v0_struck_284","midi_source":""},{"t":252.798,"note":48,"dur":0.162,"vel":1.0,"inst":"harp_v0_bowed_168","midi_source":""},{"t":252.798,"note":52,"dur":0.162,"vel":1.0,"inst":"harp_v0_bowed_168","midi_source":""},{"t":252.798,"note":77,"dur":0.081,"vel":1.0,"inst":"tuba_v0_struck_284","midi_source":""},{"t":252.879,"note":76,"dur":0.081,"vel":1.0,"inst":"harp_v0_bowed_168","midi_source":""},{"t":252.961,"note":45,"dur":0.162,"vel":1.0,"inst":"tuba_v0_struck_284","midi_source":""},{"t":252.961,"note":48,"dur":0.162,"vel":1.0,"inst":"harp_v0_bowed_168","midi_source":""},{"t":252.961,"note":74,"dur":0.081,"vel":1.0,"inst":"harp_v0_bowed_168","midi_source":""},{"t":253.042,"note":72,"dur":0.081,"vel":1.0,"inst":"harp_v0_bowed_168","midi_source":""},{"t":253.123,"note":28,"dur":0.162,"vel":1.0,"inst":"harp_v0_bowed_168","midi_source":""},{"t":253.123,"note":35,"dur":0.162,"vel":1.0,"inst":"tuba_v0_struck_284","midi_source":""},{"t":253.123,"note":40,"dur":0.162,"vel":1.0,"inst":"harp_v0_bowed_168","midi_source":""},{"t":253.123,"note":77,"dur":0.162,"vel":1.0,"inst":"tuba_v0_struck_284","midi_source":""},{"t":253.285,"note":47,"dur":0.162,"vel":1.0,"inst":"tuba_v0_struck_284","midi_source":""},{"t":253.285,"note":50,"dur":0.162,"vel":1.0,"inst":"harp_v0_bowed_168","midi_source":""},{"t":253.285,"note":76,"dur":0.081,"vel":1.0,"inst":"harp_v0_bowed_168","midi_source":""},{"t":253.367,"note":74,"dur":0.081,"vel":1.0,"inst":"harp_v0_bowed_168","midi_source":""},{"t":253.448,"note":43,"dur":0.162,"vel":1.0,"inst":"tuba_v0_struck_284","midi_source":""},{"t":253.448,"note":47,"dur":0.162,"vel":1.0,"inst":"tuba_v0_struck_284","midi_source":""},{"t":253.448,"note":72,"dur":0.081,"vel":1.0,"inst":"harp_v0_bowed_168","midi_source":""},{"t":253.529,"note":71,"dur":0.081,"vel":1.0,"inst":"tuba_v0_struck_284","midi_source":""},{"t":253.61,"note":28,"dur":0.162,"vel":1.0,"inst":"harp_v0_bowed_168","midi_source":""},{"t":253.61,"note":35,"dur":0.162,"vel":1.0,"inst":"tuba_v0_struck_284","midi_source":""},{"t":253.61,"note":40,"dur":0.162,"vel":1.0,"inst":"harp_v0_bowed_168","midi_source":""},{"t":253.61,"note":77,"dur":0.162,"vel":1.0,"inst":"tuba_v0_struck_284","midi_source":""},{"t":253.773,"note":47,"dur":0.162,"vel":1.0,"inst":"tuba_v0_struck_284","midi_source":""},{"t":253.773,"note":50,"dur":0.162,"vel":1.0,"inst":"harp_v0_bowed_168","midi_source":""},{"t":253.773,"note":76,"dur":0.081,"vel":1.0,"inst":"harp_v0_bowed_168","midi_source":""},{"t":253.854,"note":74,"dur":0.081,"vel":1.0,"inst":"harp_v0_bowed_168","midi_source":""},{"t":253.935,"note":43,"dur":0.162,"vel":1.0,"inst":"tuba_v0_struck_284","midi_source":""},{"t":253.935,"note":47,"dur":0.162,"vel":1.0,"inst":"tuba_v0_struck_284","midi_source":""},{"t":253.935,"note":72,"dur":0.081,"vel":1.0,"inst":"harp_v0_bowed_168","midi_source":""},{"t":254.097,"note":28,"dur":0.162,"vel":1.0,"inst":"harp_v0_bowed_168","midi_source":""},{"t":254.097,"note":40,"dur":0.162,"vel":1.0,"inst":"harp_v0_bowed_168","midi_source":""},{"t":254.097,"note":59,"dur":0.325,"vel":1.0,"inst":"tuba_v0_struck_284","midi_source":""},{"t":254.097,"note":62,"dur":0.325,"vel":1.0,"inst":"harp_v0_bowed_168","midi_source":""},{"t":254.26,"note":40,"dur":0.162,"vel":1.0,"inst":"harp_v0_bowed_168","midi_source":""},{"t":254.26,"note":43,"dur":0.162,"vel":1.0,"inst":"tuba_v0_struck_284","midi_source":""},{"t":254.26,"note":47,"dur":0.162,"vel":1.0,"inst":"tuba_v0_struck_284","midi_source":""},{"t":254.422,"note":40,"dur":0.162,"vel":1.0,"inst":"harp_v0_bowed_168","midi_source":""},{"t":254.422,"note":43,"dur":0.162,"vel":1.0,"inst":"tuba_v0_struck_284","midi_source":""},{"t":254.422,"note":47,"dur":0.162,"vel":1.0,"inst":"tuba_v0_struck_284","midi_source":""},{"t":254.422,"note":59,"dur":0.162,"vel":1.0,"inst":"tuba_v0_struck_284","midi_source":""},{"t":254.422,"note":62,"dur":0.162,"vel":1.0,"inst":"harp_v0_bowed_168","midi_source":""},{"t":254.585,"note":28,"dur":0.162,"vel":1.0,"inst":"harp_v0_bowed_168","midi_source":""},{"t":254.585,"note":40,"dur":0.162,"vel":1.0,"inst":"harp_v0_bowed_168","midi_source":""},{"t":254.585,"note":59,"dur":0.325,"vel":1.0,"inst":"tuba_v0_struck_284","midi_source":""},{"t":254.585,"note":62,"dur":0.325,"vel":1.0,"inst":"harp_v0_bowed_168","midi_source":""},{"t":254.747,"note":40,"dur":0.162,"vel":1.0,"inst":"harp_v0_bowed_168","midi_source":""},{"t":254.747,"note":43,"dur":0.162,"vel":1.0,"inst":"tuba_v0_struck_284","midi_source":""},{"t":254.747,"note":47,"dur":0.162,"vel":1.0,"inst":"tuba_v0_struck_284","midi_source":""},{"t":254.909,"note":40,"dur":0.162,"vel":1.0,"inst":"harp_v0_bowed_168","midi_source":""},{"t":254.909,"note":43,"dur":0.162,"vel":1.0,"inst":"tuba_v0_struck_284","midi_source":""},{"t":254.909,"note":47,"dur":0.162,"vel":1.0,"inst":"tuba_v0_struck_284","midi_source":""},{"t":254.909,"note":59,"dur":0.162,"vel":1.0,"inst":"tuba_v0_struck_284","midi_source":""},{"t":254.909,"note":62,"dur":0.162,"vel":1.0,"inst":"harp_v0_bowed_168","midi_source":""},{"t":255.072,"note":28,"dur":0.162,"vel":1.0,"inst":"harp_v0_bowed_168","midi_source":""},{"t":255.072,"note":40,"dur":0.162,"vel":1.0,"inst":"harp_v0_bowed_168","midi_source":""},{"t":255.072,"note":64,"dur":0.162,"vel":1.0,"inst":"harp_v0_bowed_168","midi_source":""},{"t":255.072,"note":67,"dur":0.162,"vel":1.0,"inst":"tuba_v0_struck_284","midi_source":""},{"t":255.234,"note":40,"dur":0.162,"vel":1.0,"inst":"harp_v0_bowed_168","midi_source":""},{"t":255.234,"note":43,"dur":0.162,"vel":1.0,"inst":"tuba_v0_struck_284","midi_source":""},{"t":255.234,"note":47,"dur":0.162,"vel":1.0,"inst":"tuba_v0_struck_284","midi_source":""},{"t":255.234,"note":62,"dur":0.162,"vel":1.0,"inst":"harp_v0_bowed_168","midi_source":""},{"t":255.234,"note":55,"dur":0.162,"vel":1.0,"inst":"tuba_v0_struck_284","midi_source":""},{"t":255.397,"note":40,"dur":0.162,"vel":1.0,"inst":"harp_v0_bowed_168","midi_source":""},{"t":255.397,"note":43,"dur":0.162,"vel":1.0,"inst":"tuba_v0_struck_284","midi_source":""},{"t":255.397,"note":47,"dur":0.162,"vel":1.0,"inst":"tuba_v0_struck_284","midi_source":""},{"t":255.397,"note":60,"dur":0.162,"vel":1.0,"inst":"harp_v0_bowed_168","midi_source":""},{"t":255.397,"note":64,"dur":0.162,"vel":1.0,"inst":"harp_v0_bowed_168","midi_source":""},{"t":255.559,"note":28,"dur":0.162,"vel":1.0,"inst":"harp_v0_bowed_168","midi_source":""},{"t":255.559,"note":40,"dur":0.162,"vel":1.0,"inst":"harp_v0_bowed_168","midi_source":""},{"t":255.559,"note":59,"dur":0.162,"vel":1.0,"inst":"tuba_v0_struck_284","midi_source":""},{"t":255.559,"note":62,"dur":0.162,"vel":1.0,"inst":"harp_v0_bowed_168","midi_source":""},{"t":255.721,"note":40,"dur":0.162,"vel":1.0,"inst":"harp_v0_bowed_168","midi_source":""},{"t":255.721,"note":43,"dur":0.162,"vel":1.0,"inst":"tuba_v0_struck_284","midi_source":""},{"t":255.721,"note":47,"dur":0.162,"vel":1.0,"inst":"tuba_v0_struck_284","midi_source":""},{"t":255.721,"note":57,"dur":0.162,"vel":1.0,"inst":"tuba_v0_struck_284","midi_source":""},{"t":255.721,"note":60,"dur":0.162,"vel":1.0,"inst":"harp_v0_bowed_168","midi_source":""},{"t":255.884,"note":40,"dur":0.162,"vel":1.0,"inst":"harp_v0_bowed_168","midi_source":""},{"t":255.884,"note":43,"dur":0.162,"vel":1.0,"inst":"tuba_v0_struck_284","midi_source":""},{"t":255.884,"note":47,"dur":0.162,"vel":1.0,"inst":"tuba_v0_struck_284","midi_source":""},{"t":255.884,"note":55,"dur":0.162,"vel":1.0,"inst":"tuba_v0_struck_284","midi_source":""},{"t":255.884,"note":59,"dur":0.162,"vel":1.0,"inst":"tuba_v0_struck_284","midi_source":""},{"t":256.046,"note":33,"dur":0.162,"vel":1.0,"inst":"tuba_v0_struck_284","midi_source":""},{"t":256.046,"note":57,"dur":0.487,"vel":1.0,"inst":"tuba_v0_struck_284","midi_source":""},{"t":256.209,"note":48,"dur":0.162,"vel":1.0,"inst":"harp_v0_bowed_168","midi_source":""},{"t":256.209,"note":52,"dur":0.162,"vel":1.0,"inst":"harp_v0_bowed_168","midi_source":""},{"t":256.371,"note":48,"dur":0.162,"vel":1.0,"inst":"harp_v0_bowed_168","midi_source":""},{"t":256.371,"note":52,"dur":0.162,"vel":1.0,"inst":"harp_v0_bowed_168","midi_source":""},{"t":256.533,"note":45,"dur":0.162,"vel":1.0,"inst":"tuba_v0_struck_284","midi_source":""},{"t":256.533,"note":69,"dur":0.081,"vel":1.0,"inst":"tuba_v0_struck_284","midi_source":""},{"t":256.615,"note":71,"dur":0.081,"vel":1.0,"inst":"tuba_v0_struck_284","midi_source":""},{"t":256.696,"note":48,"dur":0.162,"vel":1.0,"inst":"harp_v0_bowed_168","midi_source":""},{"t":256.696,"note":52,"dur":0.162,"vel":1.0,"inst":"harp_v0_bowed_168","midi_source":""},{"t":256.696,"note":57,"dur":0.162,"vel":1.0,"inst":"tuba_v0_struck_284","midi_source":""},{"t":256.696,"note":72,"dur":0.162,"vel":1.0,"inst":"harp_v0_bowed_168","midi_source":""},{"t":256.858,"note":48,"dur":0.162,"vel":1.0,"inst":"harp_v0_bowed_168","midi_source":""},{"t":256.858,"note":52,"dur":0.162,"vel":1.0,"inst":"harp_v0_bowed_168","midi_source":""},{"t":256.858,"note":57,"dur":0.162,"vel":1.0,"inst":"tuba_v0_struck_284","midi_source":""},{"t":256.858,"note":74,"dur":0.162,"vel":1.0,"inst":"harp_v0_bowed_168","midi_source":""},{"t":257.021,"note":45,"dur":0.162,"vel":1.0,"inst":"tuba_v0_struck_284","midi_source":""},{"t":257.021,"note":76,"dur":0.325,"vel":1.0,"inst":"harp_v0_bowed_168","midi_source":""},{"t":257.183,"note":48,"dur":0.162,"vel":1.0,"inst":"harp_v0_bowed_168","midi_source":""},{"t":257.183,"note":52,"dur":0.162,"vel":1.0,"inst":"harp_v0_bowed_168","midi_source":""},{"t":257.183,"note":57,"dur":0.162,"vel":1.0,"inst":"tuba_v0_struck_284","midi_source":""},{"t":257.345,"note":48,"dur":0.162,"vel":1.0,"inst":"harp_v0_bowed_168","midi_source":""},{"t":257.345,"note":52,"dur":0.162,"vel":1.0,"inst":"harp_v0_bowed_168","midi_source":""},{"t":257.345,"note":57,"dur":0.162,"vel":1.0,"inst":"tuba_v0_struck_284","midi_source":""},{"t":257.345,"note":77,"dur":0.162,"vel":1.0,"inst":"tuba_v0_struck_284","midi_source":""},{"t":257.508,"note":45,"dur":0.162,"vel":1.0,"inst":"tuba_v0_struck_284","midi_source":""},{"t":257.508,"note":77,"dur":0.081,"vel":1.0,"inst":"tuba_v0_struck_284","midi_source":""},{"t":257.508,"note":79,"dur":0.081,"vel":1.0,"inst":"tuba_v0_struck_284","midi_source":""},{"t":257.589,"note":76,"dur":0.081,"vel":1.0,"inst":"harp_v0_bowed_168","midi_source":""},{"t":257.67,"note":48,"dur":0.162,"vel":1.0,"inst":"harp_v0_bowed_168","midi_source":""},{"t":257.67,"note":52,"dur":0.162,"vel":1.0,"inst":"harp_v0_bowed_168","midi_source":""},{"t":257.67,"note":57,"dur":0.162,"vel":1.0,"inst":"tuba_v0_struck_284","midi_source":""},{"t":257.67,"note":76,"dur":0.162,"vel":1.0,"inst":"harp_v0_bowed_168","midi_source":""},{"t":257.833,"note":48,"dur":0.162,"vel":1.0,"inst":"harp_v0_bowed_168","midi_source":""},{"t":257.833,"note":52,"dur":0.162,"vel":1.0,"inst":"harp_v0_bowed_168","midi_source":""},{"t":257.833,"note":57,"dur":0.162,"vel":1.0,"inst":"tuba_v0_struck_284","midi_source":""},{"t":257.833,"note":81,"dur":0.162,"vel":1.0,"inst":"tuba_v0_struck_284","midi_source":""},{"t":257.995,"note":45,"dur":0.162,"vel":1.0,"inst":"tuba_v0_struck_284","midi_source":""},{"t":257.995,"note":76,"dur":0.325,"vel":1.0,"inst":"harp_v0_bowed_168","midi_source":""},{"t":258.157,"note":48,"dur":0.162,"vel":1.0,"inst":"harp_v0_bowed_168","midi_source":""},{"t":258.157,"note":52,"dur":0.162,"vel":1.0,"inst":"harp_v0_bowed_168","midi_source":""},{"t":258.157,"note":57,"dur":0.162,"vel":1.0,"inst":"tuba_v0_struck_284","midi_source":""},{"t":258.32,"note":48,"dur":0.162,"vel":1.0,"inst":"harp_v0_bowed_168","midi_source":""},{"t":258.32,"note":52,"dur":0.162,"vel":1.0,"inst":"harp_v0_bowed_168","midi_source":""},{"t":258.32,"note":57,"dur":0.162,"vel":1.0,"inst":"tuba_v0_struck_284","midi_source":""},{"t":258.32,"note":69,"dur":0.162,"vel":1.0,"inst":"tuba_v0_struck_284","midi_source":""},{"t":258.482,"note":40,"dur":0.162,"vel":1.0,"inst":"harp_v0_bowed_168","midi_source":""},{"t":258.482,"note":71,"dur":0.081,"vel":1.0,"inst":"tuba_v0_struck_284","midi_source":""},{"t":258.563,"note":76,"dur":0.081,"vel":1.0,"inst":"harp_v0_bowed_168","midi_source":""},{"t":258.644,"note":47,"dur":0.162,"vel":1.0,"inst":"tuba_v0_struck_284","midi_source":""},{"t":258.644,"note":52,"dur":0.162,"vel":1.0,"inst":"harp_v0_bowed_168","midi_source":""},{"t":258.644,"note":55,"dur":0.162,"vel":1.0,"inst":"tuba_v0_struck_284","midi_source":""},{"t":258.644,"note":76,"dur":0.162,"vel":1.0,"inst":"harp_v0_bowed_168","midi_source":""},{"t":258.807,"note":47,"dur":0.162,"vel":1.0,"inst":"tuba_v0_struck_284","midi_source":""},{"t":258.807,"note":52,"dur":0.162,"vel":1.0,"inst":"harp_v0_bowed_168","midi_source":""},{"t":258.807,"note":55,"dur":0.162,"vel":1.0,"inst":"tuba_v0_struck_284","midi_source":""},{"t":258.807,"note":71,"dur":0.162,"vel":1.0,"inst":"tuba_v0_struck_284","midi_source":""},{"t":258.969,"note":45,"dur":0.162,"vel":1.0,"inst":"tuba_v0_struck_284","midi_source":""},{"t":258.969,"note":72,"dur":0.325,"vel":1.0,"inst":"harp_v0_bowed_168","midi_source":""},{"t":259.132,"note":48,"dur":0.162,"vel":1.0,"inst":"harp_v0_bowed_168","midi_source":""},{"t":259.132,"note":52,"dur":0.162,"vel":1.0,"inst":"harp_v0_bowed_168","midi_source":""},{"t":259.132,"note":57,"dur":0.162,"vel":1.0,"inst":"tuba_v0_struck_284","midi_source":""},{"t":259.294,"note":48,"dur":0.162,"vel":1.0,"inst":"harp_v0_bowed_168","midi_source":""},{"t":259.294,"note":52,"dur":0.162,"vel":1.0,"inst":"harp_v0_bowed_168","midi_source":""},{"t":259.294,"note":57,"dur":0.162,"vel":1.0,"inst":"tuba_v0_struck_284","midi_source":""},{"t":259.294,"note":69,"dur":0.162,"vel":1.0,"inst":"tuba_v0_struck_284","midi_source":""},{"t":259.456,"note":40,"dur":0.162,"vel":1.0,"inst":"harp_v0_bowed_168","midi_source":""},{"t":259.456,"note":71,"dur":0.081,"vel":1.0,"inst":"tuba_v0_struck_284","midi_source":""},{"t":259.538,"note":76,"dur":0.081,"vel":1.0,"inst":"harp_v0_bowed_168","midi_source":""},{"t":259.619,"note":47,"dur":0.162,"vel":1.0,"inst":"tuba_v0_struck_284","midi_source":""},{"t":259.619,"note":52,"dur":0.162,"vel":1.0,"inst":"harp_v0_bowed_168","midi_source":""},{"t":259.619,"note":55,"dur":0.162,"vel":1.0,"inst":"tuba_v0_struck_284","midi_source":""},{"t":259.619,"note":76,"dur":0.162,"vel":1.0,"inst":"harp_v0_bowed_168","midi_source":""},{"t":259.781,"note":47,"dur":0.162,"vel":1.0,"inst":"tuba_v0_struck_284","midi_source":""},{"t":259.781,"note":52,"dur":0.162,"vel":1.0,"inst":"harp_v0_bowed_168","midi_source":""},{"t":259.781,"note":55,"dur":0.162,"vel":1.0,"inst":"tuba_v0_struck_284","midi_source":""},{"t":259.781,"note":67,"dur":0.162,"vel":1.0,"inst":"tuba_v0_struck_284","midi_source":""},{"t":259.944,"note":45,"dur":0.487,"vel":1.0,"inst":"tuba_v0_struck_284","midi_source":""},{"t":259.944,"note":48,"dur":0.487,"vel":1.0,"inst":"harp_v0_bowed_168","midi_source":""},{"t":259.944,"note":52,"dur":0.487,"vel":1.0,"inst":"harp_v0_bowed_168","midi_source":""},{"t":259.944,"note":57,"dur":0.487,"vel":1.0,"inst":"tuba_v0_struck_284","midi_source":""},{"t":259.944,"note":69,"dur":0.325,"vel":1.0,"inst":"tuba_v0_struck_284","midi_source":""},{"t":260.35,"note":76,"dur":0.081,"vel":1.0,"inst":"harp_v0_bowed_168","midi_source":""},{"t":260.35,"note":67,"dur":0.081,"vel":1.0,"inst":"tuba_v0_struck_284","midi_source":""},{"t":260.35,"note":79,"dur":0.081,"vel":1.0,"inst":"tuba_v0_struck_284","midi_source":""},{"t":260.431,"note":33,"dur":0.162,"vel":1.0,"inst":"tuba_v0_struck_284","midi_source":""},{"t":260.431,"note":40,"dur":0.162,"vel":1.0,"inst":"harp_v0_bowed_168","midi_source":""},{"t":260.431,"note":45,"dur":0.162,"vel":1.0,"inst":"tuba_v0_struck_284","midi_source":""},{"t":260.431,"note":81,"dur":0.081,"vel":1.0,"inst":"tuba_v0_struck_284","midi_source":""},{"t":260.512,"note":79,"dur":0.081,"vel":1.0,"inst":"tuba_v0_struck_284","midi_source":""},{"t":260.593,"note":48,"dur":0.162,"vel":1.0,"inst":"harp_v0_bowed_168","midi_source":""},{"t":260.593,"note":52,"dur":0.162,"vel":1.0,"inst":"harp_v0_bowed_168","midi_source":""},{"t":260.593,"note":77,"dur":0.081,"vel":1.0,"inst":"tuba_v0_struck_284","midi_source":""},{"t":260.674,"note":76,"dur":0.081,"vel":1.0,"inst":"harp_v0_bowed_168","midi_source":""},{"t":260.756,"note":45,"dur":0.162,"vel":1.0,"inst":"tuba_v0_struck_284","midi_source":""},{"t":260.756,"note":48,"dur":0.162,"vel":1.0,"inst":"harp_v0_bowed_168","midi_source":""},{"t":260.756,"note":74,"dur":0.081,"vel":1.0,"inst":"harp_v0_bowed_168","midi_source":""},{"t":260.837,"note":72,"dur":0.081,"vel":1.0,"inst":"harp_v0_bowed_168","midi_source":""},{"t":260.918,"note":28,"dur":0.162,"vel":1.0,"inst":"harp_v0_bowed_168","midi_source":""},{"t":260.918,"note":35,"dur":0.162,"vel":1.0,"inst":"tuba_v0_struck_284","midi_source":""},{"t":260.918,"note":40,"dur":0.162,"vel":1.0,"inst":"harp_v0_bowed_168","midi_source":""},{"t":260.918,"note":77,"dur":0.162,"vel":1.0,"inst":"tuba_v0_struck_284","midi_source":""},{"t":261.08,"note":47,"dur":0.162,"vel":1.0,"inst":"tuba_v0_struck_284","midi_source":""},{"t":261.08,"note":50,"dur":0.162,"vel":1.0,"inst":"harp_v0_bowed_168","midi_source":""},{"t":261.08,"note":76,"dur":0.081,"vel":1.0,"inst":"harp_v0_bowed_168","midi_source":""},{"t":261.162,"note":74,"dur":0.081,"vel":1.0,"inst":"harp_v0_bowed_168","midi_source":""},{"t":261.243,"note":43,"dur":0.162,"vel":1.0,"inst":"tuba_v0_struck_284","midi_source":""},{"t":261.243,"note":47,"dur":0.162,"vel":1.0,"inst":"tuba_v0_struck_284","midi_source":""},{"t":261.243,"note":72,"dur":0.081,"vel":1.0,"inst":"harp_v0_bowed_168","midi_source":""},{"t":261.324,"note":71,"dur":0.081,"vel":1.0,"inst":"tuba_v0_struck_284","midi_source":""},{"t":261.405,"note":28,"dur":0.162,"vel":1.0,"inst":"harp_v0_bowed_168","midi_source":""},{"t":261.405,"note":35,"dur":0.162,"vel":1.0,"inst":"tuba_v0_struck_284","midi_source":""},{"t":261.405,"note":40,"dur":0.162,"vel":1.0,"inst":"harp_v0_bowed_168","midi_source":""},{"t":261.405,"note":77,"dur":0.162,"vel":1.0,"inst":"tuba_v0_struck_284","midi_source":""},{"t":261.568,"note":47,"dur":0.162,"vel":1.0,"inst":"tuba_v0_struck_284","midi_source":""},{"t":261.568,"note":50,"dur":0.162,"vel":1.0,"inst":"harp_v0_bowed_168","midi_source":""},{"t":261.568,"note":76,"dur":0.081,"vel":1.0,"inst":"harp_v0_bowed_168","midi_source":""},{"t":261.649,"note":74,"dur":0.081,"vel":1.0,"inst":"harp_v0_bowed_168","midi_source":""},{"t":261.73,"note":43,"dur":0.162,"vel":1.0,"inst":"tuba_v0_struck_284","midi_source":""},{"t":261.73,"note":47,"dur":0.162,"vel":1.0,"inst":"tuba_v0_struck_284","midi_source":""},{"t":261.73,"note":72,"dur":0.081,"vel":1.0,"inst":"harp_v0_bowed_168","midi_source":""},{"t":261.892,"note":28,"dur":0.162,"vel":1.0,"inst":"harp_v0_bowed_168","midi_source":""},{"t":261.892,"note":40,"dur":0.162,"vel":1.0,"inst":"harp_v0_bowed_168","midi_source":""},{"t":261.892,"note":59,"dur":0.325,"vel":1.0,"inst":"tuba_v0_struck_284","midi_source":""},{"t":261.892,"note":62,"dur":0.325,"vel":1.0,"inst":"harp_v0_bowed_168","midi_source":""},{"t":262.055,"note":40,"dur":0.162,"vel":1.0,"inst":"harp_v0_bowed_168","midi_source":""},{"t":262.055,"note":43,"dur":0.162,"vel":1.0,"inst":"tuba_v0_struck_284","midi_source":""},{"t":262.055,"note":47,"dur":0.162,"vel":1.0,"inst":"tuba_v0_struck_284","midi_source":""},{"t":262.217,"note":40,"dur":0.162,"vel":1.0,"inst":"harp_v0_bowed_168","midi_source":""},{"t":262.217,"note":43,"dur":0.162,"vel":1.0,"inst":"tuba_v0_struck_284","midi_source":""},{"t":262.217,"note":47,"dur":0.162,"vel":1.0,"inst":"tuba_v0_struck_284","midi_source":""},{"t":262.217,"note":59,"dur":0.162,"vel":1.0,"inst":"tuba_v0_struck_284","midi_source":""},{"t":262.217,"note":62,"dur":0.162,"vel":1.0,"inst":"harp_v0_bowed_168","midi_source":""},{"t":262.38,"note":28,"dur":0.162,"vel":1.0,"inst":"harp_v0_bowed_168","midi_source":""},{"t":262.38,"note":40,"dur":0.162,"vel":1.0,"inst":"harp_v0_bowed_168","midi_source":""},{"t":262.38,"note":59,"dur":0.325,"vel":1.0,"inst":"tuba_v0_struck_284","midi_source":""},{"t":262.38,"note":62,"dur":0.325,"vel":1.0,"inst":"harp_v0_bowed_168","midi_source":""},{"t":262.542,"note":40,"dur":0.162,"vel":1.0,"inst":"harp_v0_bowed_168","midi_source":""},{"t":262.542,"note":43,"dur":0.162,"vel":1.0,"inst":"tuba_v0_struck_284","midi_source":""},{"t":262.542,"note":47,"dur":0.162,"vel":1.0,"inst":"tuba_v0_struck_284","midi_source":""},{"t":262.704,"note":40,"dur":0.162,"vel":1.0,"inst":"harp_v0_bowed_168","midi_source":""},{"t":262.704,"note":43,"dur":0.162,"vel":1.0,"inst":"tuba_v0_struck_284","midi_source":""},{"t":262.704,"note":47,"dur":0.162,"vel":1.0,"inst":"tuba_v0_struck_284","midi_source":""},{"t":262.704,"note":59,"dur":0.162,"vel":1.0,"inst":"tuba_v0_struck_284","midi_source":""},{"t":262.704,"note":62,"dur":0.162,"vel":1.0,"inst":"harp_v0_bowed_168","midi_source":""},{"t":262.867,"note":28,"dur":0.162,"vel":1.0,"inst":"harp_v0_bowed_168","midi_source":""},{"t":262.867,"note":40,"dur":0.162,"vel":1.0,"inst":"harp_v0_bowed_168","midi_source":""},{"t":262.867,"note":64,"dur":0.162,"vel":1.0,"inst":"harp_v0_bowed_168","midi_source":""},{"t":262.867,"note":67,"dur":0.162,"vel":1.0,"inst":"tuba_v0_struck_284","midi_source":""},{"t":263.029,"note":40,"dur":0.162,"vel":1.0,"inst":"harp_v0_bowed_168","midi_source":""},{"t":263.029,"note":43,"dur":0.162,"vel":1.0,"inst":"tuba_v0_struck_284","midi_source":""},{"t":263.029,"note":47,"dur":0.162,"vel":1.0,"inst":"tuba_v0_struck_284","midi_source":""},{"t":263.029,"note":62,"dur":0.162,"vel":1.0,"inst":"harp_v0_bowed_168","midi_source":""},{"t":263.029,"note":55,"dur":0.162,"vel":1.0,"inst":"tuba_v0_struck_284","midi_source":""},{"t":263.192,"note":40,"dur":0.162,"vel":1.0,"inst":"harp_v0_bowed_168","midi_source":""},{"t":263.192,"note":43,"dur":0.162,"vel":1.0,"inst":"tuba_v0_struck_284","midi_source":""},{"t":263.192,"note":47,"dur":0.162,"vel":1.0,"inst":"tuba_v0_struck_284","midi_source":""},{"t":263.192,"note":60,"dur":0.162,"vel":1.0,"inst":"harp_v0_bowed_168","midi_source":""},{"t":263.192,"note":64,"dur":0.162,"vel":1.0,"inst":"harp_v0_bowed_168","midi_source":""},{"t":263.354,"note":28,"dur":0.162,"vel":1.0,"inst":"harp_v0_bowed_168","midi_source":""},{"t":263.354,"note":40,"dur":0.162,"vel":1.0,"inst":"harp_v0_bowed_168","midi_source":""},{"t":263.354,"note":59,"dur":0.162,"vel":1.0,"inst":"tuba_v0_struck_284","midi_source":""},{"t":263.354,"note":62,"dur":0.162,"vel":1.0,"inst":"harp_v0_bowed_168","midi_source":""},{"t":263.516,"note":40,"dur":0.162,"vel":1.0,"inst":"harp_v0_bowed_168","midi_source":""},{"t":263.516,"note":43,"dur":0.162,"vel":1.0,"inst":"tuba_v0_struck_284","midi_source":""},{"t":263.516,"note":47,"dur":0.162,"vel":1.0,"inst":"tuba_v0_struck_284","midi_source":""},{"t":263.516,"note":57,"dur":0.162,"vel":1.0,"inst":"tuba_v0_struck_284","midi_source":""},{"t":263.516,"note":60,"dur":0.162,"vel":1.0,"inst":"harp_v0_bowed_168","midi_source":""},{"t":263.679,"note":40,"dur":0.162,"vel":1.0,"inst":"harp_v0_bowed_168","midi_source":""},{"t":263.679,"note":43,"dur":0.162,"vel":1.0,"inst":"tuba_v0_struck_284","midi_source":""},{"t":263.679,"note":47,"dur":0.162,"vel":1.0,"inst":"tuba_v0_struck_284","midi_source":""},{"t":263.679,"note":55,"dur":0.162,"vel":1.0,"inst":"tuba_v0_struck_284","midi_source":""},{"t":263.679,"note":59,"dur":0.162,"vel":1.0,"inst":"tuba_v0_struck_284","midi_source":""},{"t":263.841,"note":33,"dur":0.162,"vel":1.0,"inst":"tuba_v0_struck_284","midi_source":""},{"t":263.841,"note":57,"dur":0.487,"vel":1.0,"inst":"tuba_v0_struck_284","midi_source":""},{"t":264.003,"note":48,"dur":0.162,"vel":1.0,"inst":"harp_v0_bowed_168","midi_source":""},{"t":264.003,"note":52,"dur":0.162,"vel":1.0,"inst":"harp_v0_bowed_168","midi_source":""},{"t":264.166,"note":48,"dur":0.162,"vel":1.0,"inst":"harp_v0_bowed_168","midi_source":""},{"t":264.166,"note":52,"dur":0.162,"vel":1.0,"inst":"harp_v0_bowed_168","midi_source":""},{"t":264.328,"note":45,"dur":0.162,"vel":1.0,"inst":"tuba_v0_struck_284","midi_source":""},{"t":264.328,"note":69,"dur":0.081,"vel":1.0,"inst":"tuba_v0_struck_284","midi_source":""},{"t":264.409,"note":71,"dur":0.081,"vel":1.0,"inst":"tuba_v0_struck_284","midi_source":""},{"t":264.491,"note":48,"dur":0.162,"vel":1.0,"inst":"harp_v0_bowed_168","midi_source":""},{"t":264.491,"note":52,"dur":0.162,"vel":1.0,"inst":"harp_v0_bowed_168","midi_source":""},{"t":264.491,"note":57,"dur":0.162,"vel":1.0,"inst":"tuba_v0_struck_284","midi_source":""},{"t":264.491,"note":72,"dur":0.162,"vel":1.0,"inst":"harp_v0_bowed_168","midi_source":""},{"t":264.653,"note":48,"dur":0.162,"vel":1.0,"inst":"harp_v0_bowed_168","midi_source":""},{"t":264.653,"note":52,"dur":0.162,"vel":1.0,"inst":"harp_v0_bowed_168","midi_source":""},{"t":264.653,"note":57,"dur":0.162,"vel":1.0,"inst":"tuba_v0_struck_284","midi_source":""},{"t":264.653,"note":74,"dur":0.162,"vel":1.0,"inst":"harp_v0_bowed_168","midi_source":""},{"t":264.815,"note":45,"dur":0.162,"vel":1.0,"inst":"tuba_v0_struck_284","midi_source":""},{"t":264.815,"note":76,"dur":0.325,"vel":1.0,"inst":"harp_v0_bowed_168","midi_source":""},{"t":264.978,"note":48,"dur":0.162,"vel":1.0,"inst":"harp_v0_bowed_168","midi_source":""},{"t":264.978,"note":52,"dur":0.162,"vel":1.0,"inst":"harp_v0_bowed_168","midi_source":""},{"t":264.978,"note":57,"dur":0.162,"vel":1.0,"inst":"tuba_v0_struck_284","midi_source":""},{"t":265.14,"note":48,"dur":0.162,"vel":1.0,"inst":"harp_v0_bowed_168","midi_source":""},{"t":265.14,"note":52,"dur":0.162,"vel":1.0,"inst":"harp_v0_bowed_168","midi_source":""},{"t":265.14,"note":57,"dur":0.162,"vel":1.0,"inst":"tuba_v0_struck_284","midi_source":""},{"t":265.14,"note":77,"dur":0.162,"vel":1.0,"inst":"tuba_v0_struck_284","midi_source":""},{"t":265.303,"note":45,"dur":0.162,"vel":1.0,"inst":"tuba_v0_struck_284","midi_source":""},{"t":265.303,"note":77,"dur":0.081,"vel":1.0,"inst":"tuba_v0_struck_284","midi_source":""},{"t":265.303,"note":79,"dur":0.081,"vel":1.0,"inst":"tuba_v0_struck_284","midi_source":""},{"t":265.384,"note":76,"dur":0.081,"vel":1.0,"inst":"harp_v0_bowed_168","midi_source":""},{"t":265.465,"note":48,"dur":0.162,"vel":1.0,"inst":"harp_v0_bowed_168","midi_source":""},{"t":265.465,"note":52,"dur":0.162,"vel":1.0,"inst":"harp_v0_bowed_168","midi_source":""},{"t":265.465,"note":57,"dur":0.162,"vel":1.0,"inst":"tuba_v0_struck_284","midi_source":""},{"t":265.465,"note":76,"dur":0.162,"vel":1.0,"inst":"harp_v0_bowed_168","midi_source":""},{"t":265.627,"note":48,"dur":0.162,"vel":1.0,"inst":"harp_v0_bowed_168","midi_source":""},{"t":265.627,"note":52,"dur":0.162,"vel":1.0,"inst":"harp_v0_bowed_168","midi_source":""},{"t":265.627,"note":57,"dur":0.162,"vel":1.0,"inst":"tuba_v0_struck_284","midi_source":""},{"t":265.627,"note":81,"dur":0.162,"vel":1.0,"inst":"tuba_v0_struck_284","midi_source":""},{"t":265.79,"note":45,"dur":0.162,"vel":1.0,"inst":"tuba_v0_struck_284","midi_source":""},{"t":265.79,"note":76,"dur":0.325,"vel":1.0,"inst":"harp_v0_bowed_168","midi_source":""},{"t":265.952,"note":48,"dur":0.162,"vel":1.0,"inst":"harp_v0_bowed_168","midi_source":""},{"t":265.952,"note":52,"dur":0.162,"vel":1.0,"inst":"harp_v0_bowed_168","midi_source":""},{"t":265.952,"note":57,"dur":0.162,"vel":1.0,"inst":"tuba_v0_struck_284","midi_source":""},{"t":266.115,"note":48,"dur":0.162,"vel":1.0,"inst":"harp_v0_bowed_168","midi_source":""},{"t":266.115,"note":52,"dur":0.162,"vel":1.0,"inst":"harp_v0_bowed_168","midi_source":""},{"t":266.115,"note":57,"dur":0.162,"vel":1.0,"inst":"tuba_v0_struck_284","midi_source":""},{"t":266.115,"note":69,"dur":0.162,"vel":1.0,"inst":"tuba_v0_struck_284","midi_source":""},{"t":266.277,"note":40,"dur":0.162,"vel":1.0,"inst":"harp_v0_bowed_168","midi_source":""},{"t":266.277,"note":71,"dur":0.081,"vel":1.0,"inst":"tuba_v0_struck_284","midi_source":""},{"t":266.358,"note":76,"dur":0.081,"vel":1.0,"inst":"harp_v0_bowed_168","midi_source":""},{"t":266.439,"note":47,"dur":0.162,"vel":1.0,"inst":"tuba_v0_struck_284","midi_source":""},{"t":266.439,"note":52,"dur":0.162,"vel":1.0,"inst":"harp_v0_bowed_168","midi_source":""},{"t":266.439,"note":55,"dur":0.162,"vel":1.0,"inst":"tuba_v0_struck_284","midi_source":""},{"t":266.439,"note":76,"dur":0.162,"vel":1.0,"inst":"harp_v0_bowed_168","midi_source":""},{"t":266.602,"note":47,"dur":0.162,"vel":1.0,"inst":"tuba_v0_struck_284","midi_source":""},{"t":266.602,"note":52,"dur":0.162,"vel":1.0,"inst":"harp_v0_bowed_168","midi_source":""},{"t":266.602,"note":55,"dur":0.162,"vel":1.0,"inst":"tuba_v0_struck_284","midi_source":""},{"t":266.602,"note":71,"dur":0.162,"vel":1.0,"inst":"tuba_v0_struck_284","midi_source":""},{"t":266.764,"note":45,"dur":0.162,"vel":1.0,"inst":"tuba_v0_struck_284","midi_source":""},{"t":266.764,"note":72,"dur":0.325,"vel":1.0,"inst":"harp_v0_bowed_168","midi_source":""},{"t":266.927,"note":48,"dur":0.162,"vel":1.0,"inst":"harp_v0_bowed_168","midi_source":""},{"t":266.927,"note":52,"dur":0.162,"vel":1.0,"inst":"harp_v0_bowed_168","midi_source":""},{"t":266.927,"note":57,"dur":0.162,"vel":1.0,"inst":"tuba_v0_struck_284","midi_source":""},{"t":267.089,"note":48,"dur":0.162,"vel":1.0,"inst":"harp_v0_bowed_168","midi_source":""},{"t":267.089,"note":52,"dur":0.162,"vel":1.0,"inst":"harp_v0_bowed_168","midi_source":""},{"t":267.089,"note":57,"dur":0.162,"vel":1.0,"inst":"tuba_v0_struck_284","midi_source":""},{"t":267.089,"note":69,"dur":0.162,"vel":1.0,"inst":"tuba_v0_struck_284","midi_source":""},{"t":267.251,"note":40,"dur":0.162,"vel":1.0,"inst":"harp_v0_bowed_168","midi_source":""},{"t":267.251,"note":71,"dur":0.081,"vel":1.0,"inst":"tuba_v0_struck_284","midi_source":""},{"t":267.333,"note":76,"dur":0.081,"vel":1.0,"inst":"harp_v0_bowed_168","midi_source":""},{"t":267.414,"note":47,"dur":0.162,"vel":1.0,"inst":"tuba_v0_struck_284","midi_source":""},{"t":267.414,"note":52,"dur":0.162,"vel":1.0,"inst":"harp_v0_bowed_168","midi_source":""},{"t":267.414,"note":55,"dur":0.162,"vel":1.0,"inst":"tuba_v0_struck_284","midi_source":""},{"t":267.414,"note":76,"dur":0.162,"vel":1.0,"inst":"harp_v0_bowed_168","midi_source":""},{"t":267.576,"note":47,"dur":0.162,"vel":1.0,"inst":"tuba_v0_struck_284","midi_source":""},{"t":267.576,"note":52,"dur":0.162,"vel":1.0,"inst":"harp_v0_bowed_168","midi_source":""},{"t":267.576,"note":55,"dur":0.162,"vel":1.0,"inst":"tuba_v0_struck_284","midi_source":""},{"t":267.576,"note":67,"dur":0.162,"vel":1.0,"inst":"tuba_v0_struck_284","midi_source":""},{"t":267.739,"note":45,"dur":0.487,"vel":1.0,"inst":"tuba_v0_struck_284","midi_source":""},{"t":267.739,"note":48,"dur":0.487,"vel":1.0,"inst":"harp_v0_bowed_168","midi_source":""},{"t":267.739,"note":52,"dur":0.487,"vel":1.0,"inst":"harp_v0_bowed_168","midi_source":""},{"t":267.739,"note":57,"dur":0.487,"vel":1.0,"inst":"tuba_v0_struck_284","midi_source":""},{"t":267.739,"note":69,"dur":0.325,"vel":1.0,"inst":"tuba_v0_struck_284","midi_source":""},{"t":268.145,"note":76,"dur":0.081,"vel":1.0,"inst":"harp_v0_bowed_168","midi_source":""},{"t":268.145,"note":67,"dur":0.081,"vel":1.0,"inst":"tuba_v0_struck_284","midi_source":""},{"t":268.145,"note":79,"dur":0.081,"vel":1.0,"inst":"tuba_v0_struck_284","midi_source":""},{"t":268.226,"note":33,"dur":0.162,"vel":1.0,"inst":"tuba_v0_struck_284","midi_source":""},{"t":268.226,"note":40,"dur":0.162,"vel":1.0,"inst":"harp_v0_bowed_168","midi_source":""},{"t":268.226,"note":45,"dur":0.162,"vel":1.0,"inst":"tuba_v0_struck_284","midi_source":""},{"t":268.226,"note":81,"dur":0.081,"vel":1.0,"inst":"tuba_v0_struck_284","midi_source":""},{"t":268.307,"note":79,"dur":0.081,"vel":1.0,"inst":"tuba_v0_struck_284","midi_source":""},{"t":268.388,"note":48,"dur":0.162,"vel":1.0,"inst":"harp_v0_bowed_168","midi_source":""},{"t":268.388,"note":52,"dur":0.162,"vel":1.0,"inst":"harp_v0_bowed_168","midi_source":""},{"t":268.388,"note":77,"dur":0.081,"vel":1.0,"inst":"tuba_v0_struck_284","midi_source":""},{"t":268.469,"note":76,"dur":0.081,"vel":1.0,"inst":"harp_v0_bowed_168","midi_source":""},{"t":268.551,"note":45,"dur":0.162,"vel":1.0,"inst":"tuba_v0_struck_284","midi_source":""},{"t":268.551,"note":48,"dur":0.162,"vel":1.0,"inst":"harp_v0_bowed_168","midi_source":""},{"t":268.551,"note":74,"dur":0.081,"vel":1.0,"inst":"harp_v0_bowed_168","midi_source":""},{"t":268.632,"note":72,"dur":0.081,"vel":1.0,"inst":"harp_v0_bowed_168","midi_source":""},{"t":268.713,"note":28,"dur":0.162,"vel":1.0,"inst":"harp_v0_bowed_168","midi_source":""},{"t":268.713,"note":35,"dur":0.162,"vel":1.0,"inst":"tuba_v0_struck_284","midi_source":""},{"t":268.713,"note":40,"dur":0.162,"vel":1.0,"inst":"harp_v0_bowed_168","midi_source":""},{"t":268.713,"note":77,"dur":0.162,"vel":1.0,"inst":"tuba_v0_struck_284","midi_source":""},{"t":268.875,"note":47,"dur":0.162,"vel":1.0,"inst":"tuba_v0_struck_284","midi_source":""},{"t":268.875,"note":50,"dur":0.162,"vel":1.0,"inst":"harp_v0_bowed_168","midi_source":""},{"t":268.875,"note":76,"dur":0.081,"vel":1.0,"inst":"harp_v0_bowed_168","midi_source":""},{"t":268.957,"note":74,"dur":0.081,"vel":1.0,"inst":"harp_v0_bowed_168","midi_source":""},{"t":269.038,"note":43,"dur":0.162,"vel":1.0,"inst":"tuba_v0_struck_284","midi_source":""},{"t":269.038,"note":47,"dur":0.162,"vel":1.0,"inst":"tuba_v0_struck_284","midi_source":""},{"t":269.038,"note":72,"dur":0.081,"vel":1.0,"inst":"harp_v0_bowed_168","midi_source":""},{"t":269.119,"note":71,"dur":0.081,"vel":1.0,"inst":"tuba_v0_struck_284","midi_source":""},{"t":269.2,"note":28,"dur":0.162,"vel":1.0,"inst":"harp_v0_bowed_168","midi_source":""},{"t":269.2,"note":35,"dur":0.162,"vel":1.0,"inst":"tuba_v0_struck_284","midi_source":""},{"t":269.2,"note":40,"dur":0.162,"vel":1.0,"inst":"harp_v0_bowed_168","midi_source":""},{"t":269.2,"note":77,"dur":0.162,"vel":1.0,"inst":"tuba_v0_struck_284","midi_source":""},{"t":269.363,"note":47,"dur":0.162,"vel":1.0,"inst":"tuba_v0_struck_284","midi_source":""},{"t":269.363,"note":50,"dur":0.162,"vel":1.0,"inst":"harp_v0_bowed_168","midi_source":""},{"t":269.363,"note":76,"dur":0.081,"vel":1.0,"inst":"harp_v0_bowed_168","midi_source":""},{"t":269.444,"note":74,"dur":0.081,"vel":1.0,"inst":"harp_v0_bowed_168","midi_source":""},{"t":269.525,"note":43,"dur":0.162,"vel":1.0,"inst":"tuba_v0_struck_284","midi_source":""},{"t":269.525,"note":47,"dur":0.162,"vel":1.0,"inst":"tuba_v0_struck_284","midi_source":""},{"t":269.525,"note":72,"dur":0.081,"vel":1.0,"inst":"harp_v0_bowed_168","midi_source":""},{"t":269.687,"note":28,"dur":0.162,"vel":1.0,"inst":"harp_v0_bowed_168","midi_source":""},{"t":269.687,"note":40,"dur":0.162,"vel":1.0,"inst":"harp_v0_bowed_168","midi_source":""},{"t":269.687,"note":59,"dur":0.325,"vel":1.0,"inst":"tuba_v0_struck_284","midi_source":""},{"t":269.687,"note":62,"dur":0.325,"vel":1.0,"inst":"harp_v0_bowed_168","midi_source":""},{"t":269.85,"note":40,"dur":0.162,"vel":1.0,"inst":"harp_v0_bowed_168","midi_source":""},{"t":269.85,"note":43,"dur":0.162,"vel":1.0,"inst":"tuba_v0_struck_284","midi_source":""},{"t":269.85,"note":47,"dur":0.162,"vel":1.0,"inst":"tuba_v0_struck_284","midi_source":""},{"t":270.012,"note":40,"dur":0.162,"vel":1.0,"inst":"harp_v0_bowed_168","midi_source":""},{"t":270.012,"note":43,"dur":0.162,"vel":1.0,"inst":"tuba_v0_struck_284","midi_source":""},{"t":270.012,"note":47,"dur":0.162,"vel":1.0,"inst":"tuba_v0_struck_284","midi_source":""},{"t":270.012,"note":59,"dur":0.162,"vel":1.0,"inst":"tuba_v0_struck_284","midi_source":""},{"t":270.012,"note":62,"dur":0.162,"vel":1.0,"inst":"harp_v0_bowed_168","midi_source":""},{"t":270.174,"note":28,"dur":0.162,"vel":1.0,"inst":"harp_v0_bowed_168","midi_source":""},{"t":270.174,"note":40,"dur":0.162,"vel":1.0,"inst":"harp_v0_bowed_168","midi_source":""},{"t":270.174,"note":59,"dur":0.325,"vel":1.0,"inst":"tuba_v0_struck_284","midi_source":""},{"t":270.174,"note":62,"dur":0.325,"vel":1.0,"inst":"harp_v0_bowed_168","midi_source":""},{"t":270.337,"note":40,"dur":0.162,"vel":1.0,"inst":"harp_v0_bowed_168","midi_source":""},{"t":270.337,"note":43,"dur":0.162,"vel":1.0,"inst":"tuba_v0_struck_284","midi_source":""},{"t":270.337,"note":47,"dur":0.162,"vel":1.0,"inst":"tuba_v0_struck_284","midi_source":""},{"t":270.499,"note":40,"dur":0.162,"vel":1.0,"inst":"harp_v0_bowed_168","midi_source":""},{"t":270.499,"note":43,"dur":0.162,"vel":1.0,"inst":"tuba_v0_struck_284","midi_source":""},{"t":270.499,"note":47,"dur":0.162,"vel":1.0,"inst":"tuba_v0_struck_284","midi_source":""},{"t":270.499,"note":59,"dur":0.162,"vel":1.0,"inst":"tuba_v0_struck_284","midi_source":""},{"t":270.499,"note":62,"dur":0.162,"vel":1.0,"inst":"harp_v0_bowed_168","midi_source":""},{"t":270.662,"note":28,"dur":0.162,"vel":1.0,"inst":"harp_v0_bowed_168","midi_source":""},{"t":270.662,"note":40,"dur":0.162,"vel":1.0,"inst":"harp_v0_bowed_168","midi_source":""},{"t":270.662,"note":64,"dur":0.162,"vel":1.0,"inst":"harp_v0_bowed_168","midi_source":""},{"t":270.662,"note":67,"dur":0.162,"vel":1.0,"inst":"tuba_v0_struck_284","midi_source":""},{"t":270.824,"note":40,"dur":0.162,"vel":1.0,"inst":"harp_v0_bowed_168","midi_source":""},{"t":270.824,"note":43,"dur":0.162,"vel":1.0,"inst":"tuba_v0_struck_284","midi_source":""},{"t":270.824,"note":47,"dur":0.162,"vel":1.0,"inst":"tuba_v0_struck_284","midi_source":""},{"t":270.824,"note":62,"dur":0.162,"vel":1.0,"inst":"harp_v0_bowed_168","midi_source":""},{"t":270.824,"note":55,"dur":0.162,"vel":1.0,"inst":"tuba_v0_struck_284","midi_source":""},{"t":270.986,"note":40,"dur":0.162,"vel":1.0,"inst":"harp_v0_bowed_168","midi_source":""},{"t":270.986,"note":43,"dur":0.162,"vel":1.0,"inst":"tuba_v0_struck_284","midi_source":""},{"t":270.986,"note":47,"dur":0.162,"vel":1.0,"inst":"tuba_v0_struck_284","midi_source":""},{"t":270.986,"note":60,"dur":0.162,"vel":1.0,"inst":"harp_v0_bowed_168","midi_source":""},{"t":270.986,"note":64,"dur":0.162,"vel":1.0,"inst":"harp_v0_bowed_168","midi_source":""},{"t":271.149,"note":28,"dur":0.162,"vel":1.0,"inst":"harp_v0_bowed_168","midi_source":""},{"t":271.149,"note":40,"dur":0.162,"vel":1.0,"inst":"harp_v0_bowed_168","midi_source":""},{"t":271.149,"note":59,"dur":0.162,"vel":1.0,"inst":"tuba_v0_struck_284","midi_source":""},{"t":271.149,"note":62,"dur":0.162,"vel":1.0,"inst":"harp_v0_bowed_168","midi_source":""},{"t":271.311,"note":40,"dur":0.162,"vel":1.0,"inst":"harp_v0_bowed_168","midi_source":""},{"t":271.311,"note":43,"dur":0.162,"vel":1.0,"inst":"tuba_v0_struck_284","midi_source":""},{"t":271.311,"note":47,"dur":0.162,"vel":1.0,"inst":"tuba_v0_struck_284","midi_source":""},{"t":271.311,"note":57,"dur":0.162,"vel":1.0,"inst":"tuba_v0_struck_284","midi_source":""},{"t":271.311,"note":60,"dur":0.162,"vel":1.0,"inst":"harp_v0_bowed_168","midi_source":""},{"t":271.474,"note":40,"dur":0.162,"vel":1.0,"inst":"harp_v0_bowed_168","midi_source":""},{"t":271.474,"note":43,"dur":0.162,"vel":1.0,"inst":"tuba_v0_struck_284","midi_source":""},{"t":271.474,"note":47,"dur":0.162,"vel":1.0,"inst":"tuba_v0_struck_284","midi_source":""},{"t":271.474,"note":55,"dur":0.162,"vel":1.0,"inst":"tuba_v0_struck_284","midi_source":""},{"t":271.474,"note":59,"dur":0.162,"vel":1.0,"inst":"tuba_v0_struck_284","midi_source":""},{"t":271.636,"note":33,"dur":0.162,"vel":1.0,"inst":"tuba_v0_struck_284","midi_source":""},{"t":271.636,"note":57,"dur":0.487,"vel":1.0,"inst":"tuba_v0_struck_284","midi_source":""},{"t":271.798,"note":48,"dur":0.162,"vel":1.0,"inst":"harp_v0_bowed_168","midi_source":""},{"t":271.798,"note":52,"dur":0.162,"vel":1.0,"inst":"harp_v0_bowed_168","midi_source":""},{"t":271.961,"note":48,"dur":0.162,"vel":1.0,"inst":"harp_v0_bowed_168","midi_source":""},{"t":271.961,"note":52,"dur":0.162,"vel":1.0,"inst":"harp_v0_bowed_168","midi_source":""},{"t":272.123,"note":45,"dur":0.162,"vel":1.0,"inst":"tuba_v0_struck_284","midi_source":""},{"t":272.123,"note":69,"dur":0.081,"vel":1.0,"inst":"tuba_v0_struck_284","midi_source":""},{"t":272.204,"note":71,"dur":0.081,"vel":1.0,"inst":"tuba_v0_struck_284","midi_source":""},{"t":272.286,"note":48,"dur":0.162,"vel":1.0,"inst":"harp_v0_bowed_168","midi_source":""},{"t":272.286,"note":52,"dur":0.162,"vel":1.0,"inst":"harp_v0_bowed_168","midi_source":""},{"t":272.286,"note":57,"dur":0.162,"vel":1.0,"inst":"tuba_v0_struck_284","midi_source":""},{"t":272.286,"note":72,"dur":0.162,"vel":1.0,"inst":"harp_v0_bowed_168","midi_source":""},{"t":272.448,"note":48,"dur":0.162,"vel":1.0,"inst":"harp_v0_bowed_168","midi_source":""},{"t":272.448,"note":52,"dur":0.162,"vel":1.0,"inst":"harp_v0_bowed_168","midi_source":""},{"t":272.448,"note":57,"dur":0.162,"vel":1.0,"inst":"tuba_v0_struck_284","midi_source":""},{"t":272.448,"note":74,"dur":0.162,"vel":1.0,"inst":"harp_v0_bowed_168","midi_source":""},{"t":272.61,"note":45,"dur":0.162,"vel":1.0,"inst":"tuba_v0_struck_284","midi_source":""},{"t":272.61,"note":76,"dur":0.325,"vel":1.0,"inst":"harp_v0_bowed_168","midi_source":""},{"t":272.773,"note":48,"dur":0.162,"vel":1.0,"inst":"harp_v0_bowed_168","midi_source":""},{"t":272.773,"note":52,"dur":0.162,"vel":1.0,"inst":"harp_v0_bowed_168","midi_source":""},{"t":272.773,"note":57,"dur":0.162,"vel":1.0,"inst":"tuba_v0_struck_284","midi_source":""},{"t":272.935,"note":48,"dur":0.162,"vel":1.0,"inst":"harp_v0_bowed_168","midi_source":""},{"t":272.935,"note":52,"dur":0.162,"vel":1.0,"inst":"harp_v0_bowed_168","midi_source":""},{"t":272.935,"note":57,"dur":0.162,"vel":1.0,"inst":"tuba_v0_struck_284","midi_source":""},{"t":272.935,"note":77,"dur":0.162,"vel":1.0,"inst":"tuba_v0_struck_284","midi_source":""},{"t":273.098,"note":45,"dur":0.162,"vel":1.0,"inst":"tuba_v0_struck_284","midi_source":""},{"t":273.098,"note":77,"dur":0.081,"vel":1.0,"inst":"tuba_v0_struck_284","midi_source":""},{"t":273.098,"note":79,"dur":0.081,"vel":1.0,"inst":"tuba_v0_struck_284","midi_source":""},{"t":273.179,"note":76,"dur":0.081,"vel":1.0,"inst":"harp_v0_bowed_168","midi_source":""},{"t":273.26,"note":48,"dur":0.162,"vel":1.0,"inst":"harp_v0_bowed_168","midi_source":""},{"t":273.26,"note":52,"dur":0.162,"vel":1.0,"inst":"harp_v0_bowed_168","midi_source":""},{"t":273.26,"note":57,"dur":0.162,"vel":1.0,"inst":"tuba_v0_struck_284","midi_source":""},{"t":273.26,"note":76,"dur":0.162,"vel":1.0,"inst":"harp_v0_bowed_168","midi_source":""},{"t":273.422,"note":48,"dur":0.162,"vel":1.0,"inst":"harp_v0_bowed_168","midi_source":""},{"t":273.422,"note":52,"dur":0.162,"vel":1.0,"inst":"harp_v0_bowed_168","midi_source":""},{"t":273.422,"note":57,"dur":0.162,"vel":1.0,"inst":"tuba_v0_struck_284","midi_source":""},{"t":273.422,"note":81,"dur":0.162,"vel":1.0,"inst":"tuba_v0_struck_284","midi_source":""},{"t":273.585,"note":45,"dur":0.162,"vel":1.0,"inst":"tuba_v0_struck_284","midi_source":""},{"t":273.585,"note":76,"dur":0.325,"vel":1.0,"inst":"harp_v0_bowed_168","midi_source":""},{"t":273.747,"note":48,"dur":0.162,"vel":1.0,"inst":"harp_v0_bowed_168","midi_source":""},{"t":273.747,"note":52,"dur":0.162,"vel":1.0,"inst":"harp_v0_bowed_168","midi_source":""},{"t":273.747,"note":57,"dur":0.162,"vel":1.0,"inst":"tuba_v0_struck_284","midi_source":""},{"t":273.91,"note":48,"dur":0.162,"vel":1.0,"inst":"harp_v0_bowed_168","midi_source":""},{"t":273.91,"note":52,"dur":0.162,"vel":1.0,"inst":"harp_v0_bowed_168","midi_source":""},{"t":273.91,"note":57,"dur":0.162,"vel":1.0,"inst":"tuba_v0_struck_284","midi_source":""},{"t":273.91,"note":69,"dur":0.162,"vel":1.0,"inst":"tuba_v0_struck_284","midi_source":""},{"t":274.072,"note":40,"dur":0.162,"vel":1.0,"inst":"harp_v0_bowed_168","midi_source":""},{"t":274.072,"note":71,"dur":0.081,"vel":1.0,"inst":"tuba_v0_struck_284","midi_source":""},{"t":274.153,"note":76,"dur":0.081,"vel":1.0,"inst":"harp_v0_bowed_168","midi_source":""},{"t":274.234,"note":47,"dur":0.162,"vel":1.0,"inst":"tuba_v0_struck_284","midi_source":""},{"t":274.234,"note":52,"dur":0.162,"vel":1.0,"inst":"harp_v0_bowed_168","midi_source":""},{"t":274.234,"note":55,"dur":0.162,"vel":1.0,"inst":"tuba_v0_struck_284","midi_source":""},{"t":274.234,"note":76,"dur":0.162,"vel":1.0,"inst":"harp_v0_bowed_168","midi_source":""},{"t":274.397,"note":47,"dur":0.162,"vel":1.0,"inst":"tuba_v0_struck_284","midi_source":""},{"t":274.397,"note":52,"dur":0.162,"vel":1.0,"inst":"harp_v0_bowed_168","midi_source":""},{"t":274.397,"note":55,"dur":0.162,"vel":1.0,"inst":"tuba_v0_struck_284","midi_source":""},{"t":274.397,"note":71,"dur":0.162,"vel":1.0,"inst":"tuba_v0_struck_284","midi_source":""},{"t":274.559,"note":45,"dur":0.162,"vel":1.0,"inst":"tuba_v0_struck_284","midi_source":""},{"t":274.559,"note":72,"dur":0.325,"vel":1.0,"inst":"harp_v0_bowed_168","midi_source":""},{"t":274.722,"note":48,"dur":0.162,"vel":1.0,"inst":"harp_v0_bowed_168","midi_source":""},{"t":274.722,"note":52,"dur":0.162,"vel":1.0,"inst":"harp_v0_bowed_168","midi_source":""},{"t":274.722,"note":57,"dur":0.162,"vel":1.0,"inst":"tuba_v0_struck_284","midi_source":""},{"t":274.884,"note":48,"dur":0.162,"vel":1.0,"inst":"harp_v0_bowed_168","midi_source":""},{"t":274.884,"note":52,"dur":0.162,"vel":1.0,"inst":"harp_v0_bowed_168","midi_source":""},{"t":274.884,"note":57,"dur":0.162,"vel":1.0,"inst":"tuba_v0_struck_284","midi_source":""},{"t":274.884,"note":69,"dur":0.162,"vel":1.0,"inst":"tuba_v0_struck_284","midi_source":""},{"t":275.046,"note":40,"dur":0.162,"vel":1.0,"inst":"harp_v0_bowed_168","midi_source":""},{"t":275.046,"note":71,"dur":0.081,"vel":1.0,"inst":"tuba_v0_struck_284","midi_source":""},{"t":275.128,"note":76,"dur":0.081,"vel":1.0,"inst":"harp_v0_bowed_168","midi_source":""},{"t":275.209,"note":47,"dur":0.162,"vel":1.0,"inst":"tuba_v0_struck_284","midi_source":""},{"t":275.209,"note":52,"dur":0.162,"vel":1.0,"inst":"harp_v0_bowed_168","midi_source":""},{"t":275.209,"note":55,"dur":0.162,"vel":1.0,"inst":"tuba_v0_struck_284","midi_source":""},{"t":275.209,"note":76,"dur":0.162,"vel":1.0,"inst":"harp_v0_bowed_168","midi_source":""},{"t":275.371,"note":47,"dur":0.162,"vel":1.0,"inst":"tuba_v0_struck_284","midi_source":""},{"t":275.371,"note":52,"dur":0.162,"vel":1.0,"inst":"harp_v0_bowed_168","midi_source":""},{"t":275.371,"note":55,"dur":0.162,"vel":1.0,"inst":"tuba_v0_struck_284","midi_source":""},{"t":275.371,"note":67,"dur":0.162,"vel":1.0,"inst":"tuba_v0_struck_284","midi_source":""},{"t":275.533,"note":45,"dur":0.487,"vel":1.0,"inst":"tuba_v0_struck_284","midi_source":""},{"t":275.533,"note":48,"dur":0.487,"vel":1.0,"inst":"harp_v0_bowed_168","midi_source":""},{"t":275.533,"note":52,"dur":0.487,"vel":1.0,"inst":"harp_v0_bowed_168","midi_source":""},{"t":275.533,"note":57,"dur":0.487,"vel":1.0,"inst":"tuba_v0_struck_284","midi_source":""},{"t":275.533,"note":69,"dur":0.325,"vel":1.0,"inst":"tuba_v0_struck_284","midi_source":""},{"t":275.939,"note":76,"dur":0.081,"vel":1.0,"inst":"harp_v0_bowed_168","midi_source":""},{"t":275.939,"note":67,"dur":0.081,"vel":1.0,"inst":"tuba_v0_struck_284","midi_source":""},{"t":275.939,"note":79,"dur":0.081,"vel":1.0,"inst":"tuba_v0_struck_284","midi_source":""},{"t":276.021,"note":33,"dur":0.162,"vel":1.0,"inst":"tuba_v0_struck_284","midi_source":""},{"t":276.021,"note":40,"dur":0.162,"vel":1.0,"inst":"harp_v0_bowed_168","midi_source":""},{"t":276.021,"note":45,"dur":0.162,"vel":1.0,"inst":"tuba_v0_struck_284","midi_source":""},{"t":276.021,"note":81,"dur":0.081,"vel":1.0,"inst":"tuba_v0_struck_284","midi_source":""},{"t":276.102,"note":79,"dur":0.081,"vel":1.0,"inst":"tuba_v0_struck_284","midi_source":""},{"t":276.183,"note":48,"dur":0.162,"vel":1.0,"inst":"harp_v0_bowed_168","midi_source":""},{"t":276.183,"note":52,"dur":0.162,"vel":1.0,"inst":"harp_v0_bowed_168","midi_source":""},{"t":276.183,"note":77,"dur":0.081,"vel":1.0,"inst":"tuba_v0_struck_284","midi_source":""},{"t":276.264,"note":76,"dur":0.081,"vel":1.0,"inst":"harp_v0_bowed_168","midi_source":""},{"t":276.345,"note":45,"dur":0.162,"vel":1.0,"inst":"tuba_v0_struck_284","midi_source":""},{"t":276.345,"note":48,"dur":0.162,"vel":1.0,"inst":"harp_v0_bowed_168","midi_source":""},{"t":276.345,"note":74,"dur":0.081,"vel":1.0,"inst":"harp_v0_bowed_168","midi_source":""},{"t":276.427,"note":72,"dur":0.081,"vel":1.0,"inst":"harp_v0_bowed_168","midi_source":""},{"t":276.508,"note":28,"dur":0.162,"vel":1.0,"inst":"harp_v0_bowed_168","midi_source":""},{"t":276.508,"note":35,"dur":0.162,"vel":1.0,"inst":"tuba_v0_struck_284","midi_source":""},{"t":276.508,"note":40,"dur":0.162,"vel":1.0,"inst":"harp_v0_bowed_168","midi_source":""},{"t":276.508,"note":77,"dur":0.162,"vel":1.0,"inst":"tuba_v0_struck_284","midi_source":""},{"t":276.67,"note":47,"dur":0.162,"vel":1.0,"inst":"tuba_v0_struck_284","midi_source":""},{"t":276.67,"note":50,"dur":0.162,"vel":1.0,"inst":"harp_v0_bowed_168","midi_source":""},{"t":276.67,"note":76,"dur":0.081,"vel":1.0,"inst":"harp_v0_bowed_168","midi_source":""},{"t":276.751,"note":74,"dur":0.081,"vel":1.0,"inst":"harp_v0_bowed_168","midi_source":""},{"t":276.833,"note":43,"dur":0.162,"vel":1.0,"inst":"tuba_v0_struck_284","midi_source":""},{"t":276.833,"note":47,"dur":0.162,"vel":1.0,"inst":"tuba_v0_struck_284","midi_source":""},{"t":276.833,"note":72,"dur":0.081,"vel":1.0,"inst":"harp_v0_bowed_168","midi_source":""},{"t":276.914,"note":71,"dur":0.081,"vel":1.0,"inst":"tuba_v0_struck_284","midi_source":""},{"t":276.995,"note":28,"dur":0.162,"vel":1.0,"inst":"harp_v0_bowed_168","midi_source":""},{"t":276.995,"note":35,"dur":0.162,"vel":1.0,"inst":"tuba_v0_struck_284","midi_source":""},{"t":276.995,"note":40,"dur":0.162,"vel":1.0,"inst":"harp_v0_bowed_168","midi_source":""},{"t":276.995,"note":77,"dur":0.162,"vel":1.0,"inst":"tuba_v0_struck_284","midi_source":""},{"t":277.157,"note":47,"dur":0.162,"vel":1.0,"inst":"tuba_v0_struck_284","midi_source":""},{"t":277.157,"note":50,"dur":0.162,"vel":1.0,"inst":"harp_v0_bowed_168","midi_source":""},{"t":277.157,"note":76,"dur":0.081,"vel":1.0,"inst":"harp_v0_bowed_168","midi_source":""},{"t":277.239,"note":74,"dur":0.081,"vel":1.0,"inst":"harp_v0_bowed_168","midi_source":""},{"t":277.32,"note":43,"dur":0.162,"vel":1.0,"inst":"tuba_v0_struck_284","midi_source":""},{"t":277.32,"note":47,"dur":0.162,"vel":1.0,"inst":"tuba_v0_struck_284","midi_source":""},{"t":277.32,"note":72,"dur":0.081,"vel":1.0,"inst":"harp_v0_bowed_168","midi_source":""},{"t":277.482,"note":28,"dur":0.162,"vel":1.0,"inst":"harp_v0_bowed_168","midi_source":""},{"t":277.482,"note":40,"dur":0.162,"vel":1.0,"inst":"harp_v0_bowed_168","midi_source":""},{"t":277.482,"note":59,"dur":0.325,"vel":1.0,"inst":"tuba_v0_struck_284","midi_source":""},{"t":277.482,"note":62,"dur":0.325,"vel":1.0,"inst":"harp_v0_bowed_168","midi_source":""},{"t":277.645,"note":40,"dur":0.162,"vel":1.0,"inst":"harp_v0_bowed_168","midi_source":""},{"t":277.645,"note":43,"dur":0.162,"vel":1.0,"inst":"tuba_v0_struck_284","midi_source":""},{"t":277.645,"note":47,"dur":0.162,"vel":1.0,"inst":"tuba_v0_struck_284","midi_source":""},{"t":277.807,"note":40,"dur":0.162,"vel":1.0,"inst":"harp_v0_bowed_168","midi_source":""},{"t":277.807,"note":43,"dur":0.162,"vel":1.0,"inst":"tuba_v0_struck_284","midi_source":""},{"t":277.807,"note":47,"dur":0.162,"vel":1.0,"inst":"tuba_v0_struck_284","midi_source":""},{"t":277.807,"note":59,"dur":0.162,"vel":1.0,"inst":"tuba_v0_struck_284","midi_source":""},{"t":277.807,"note":62,"dur":0.162,"vel":1.0,"inst":"harp_v0_bowed_168","midi_source":""},{"t":277.969,"note":28,"dur":0.162,"vel":1.0,"inst":"harp_v0_bowed_168","midi_source":""},{"t":277.969,"note":40,"dur":0.162,"vel":1.0,"inst":"harp_v0_bowed_168","midi_source":""},{"t":277.969,"note":59,"dur":0.325,"vel":1.0,"inst":"tuba_v0_struck_284","midi_source":""},{"t":277.969,"note":62,"dur":0.325,"vel":1.0,"inst":"harp_v0_bowed_168","midi_source":""},{"t":278.132,"note":40,"dur":0.162,"vel":1.0,"inst":"harp_v0_bowed_168","midi_source":""},{"t":278.132,"note":43,"dur":0.162,"vel":1.0,"inst":"tuba_v0_struck_284","midi_source":""},{"t":278.132,"note":47,"dur":0.162,"vel":1.0,"inst":"tuba_v0_struck_284","midi_source":""},{"t":278.294,"note":40,"dur":0.162,"vel":1.0,"inst":"harp_v0_bowed_168","midi_source":""},{"t":278.294,"note":43,"dur":0.162,"vel":1.0,"inst":"tuba_v0_struck_284","midi_source":""},{"t":278.294,"note":47,"dur":0.162,"vel":1.0,"inst":"tuba_v0_struck_284","midi_source":""},{"t":278.294,"note":59,"dur":0.162,"vel":1.0,"inst":"tuba_v0_struck_284","midi_source":""},{"t":278.294,"note":62,"dur":0.162,"vel":1.0,"inst":"harp_v0_bowed_168","midi_source":""},{"t":278.457,"note":28,"dur":0.162,"vel":1.0,"inst":"harp_v0_bowed_168","midi_source":""},{"t":278.457,"note":40,"dur":0.162,"vel":1.0,"inst":"harp_v0_bowed_168","midi_source":""},{"t":278.457,"note":64,"dur":0.162,"vel":1.0,"inst":"harp_v0_bowed_168","midi_source":""},{"t":278.457,"note":67,"dur":0.162,"vel":1.0,"inst":"tuba_v0_struck_284","midi_source":""},{"t":278.619,"note":40,"dur":0.162,"vel":1.0,"inst":"harp_v0_bowed_168","midi_source":""},{"t":278.619,"note":43,"dur":0.162,"vel":1.0,"inst":"tuba_v0_struck_284","midi_source":""},{"t":278.619,"note":47,"dur":0.162,"vel":1.0,"inst":"tuba_v0_struck_284","midi_source":""},{"t":278.619,"note":62,"dur":0.162,"vel":1.0,"inst":"harp_v0_bowed_168","midi_source":""},{"t":278.619,"note":55,"dur":0.162,"vel":1.0,"inst":"tuba_v0_struck_284","midi_source":""},{"t":278.781,"note":40,"dur":0.162,"vel":1.0,"inst":"harp_v0_bowed_168","midi_source":""},{"t":278.781,"note":43,"dur":0.162,"vel":1.0,"inst":"tuba_v0_struck_284","midi_source":""},{"t":278.781,"note":47,"dur":0.162,"vel":1.0,"inst":"tuba_v0_struck_284","midi_source":""},{"t":278.781,"note":60,"dur":0.162,"vel":1.0,"inst":"harp_v0_bowed_168","midi_source":""},{"t":278.781,"note":64,"dur":0.162,"vel":1.0,"inst":"harp_v0_bowed_168","midi_source":""},{"t":278.944,"note":28,"dur":0.162,"vel":1.0,"inst":"harp_v0_bowed_168","midi_source":""},{"t":278.944,"note":40,"dur":0.162,"vel":1.0,"inst":"harp_v0_bowed_168","midi_source":""},{"t":278.944,"note":59,"dur":0.162,"vel":1.0,"inst":"tuba_v0_struck_284","midi_source":""},{"t":278.944,"note":62,"dur":0.162,"vel":1.0,"inst":"harp_v0_bowed_168","midi_source":""},{"t":279.106,"note":40,"dur":0.162,"vel":1.0,"inst":"harp_v0_bowed_168","midi_source":""},{"t":279.106,"note":43,"dur":0.162,"vel":1.0,"inst":"tuba_v0_struck_284","midi_source":""},{"t":279.106,"note":47,"dur":0.162,"vel":1.0,"inst":"tuba_v0_struck_284","midi_source":""},{"t":279.106,"note":57,"dur":0.162,"vel":1.0,"inst":"tuba_v0_struck_284","midi_source":""},{"t":279.106,"note":60,"dur":0.162,"vel":1.0,"inst":"harp_v0_bowed_168","midi_source":""},{"t":279.269,"note":40,"dur":0.162,"vel":1.0,"inst":"harp_v0_bowed_168","midi_source":""},{"t":279.269,"note":43,"dur":0.162,"vel":1.0,"inst":"tuba_v0_struck_284","midi_source":""},{"t":279.269,"note":47,"dur":0.162,"vel":1.0,"inst":"tuba_v0_struck_284","midi_source":""},{"t":279.269,"note":55,"dur":0.162,"vel":1.0,"inst":"tuba_v0_struck_284","midi_source":""},{"t":279.269,"note":59,"dur":0.162,"vel":1.0,"inst":"tuba_v0_struck_284","midi_source":""},{"t":279.431,"note":33,"dur":0.162,"vel":1.0,"inst":"tuba_v0_struck_284","midi_source":""},{"t":279.431,"note":57,"dur":0.487,"vel":1.0,"inst":"tuba_v0_struck_284","midi_source":""},{"t":279.593,"note":48,"dur":0.162,"vel":1.0,"inst":"harp_v0_bowed_168","midi_source":""},{"t":279.593,"note":52,"dur":0.162,"vel":1.0,"inst":"harp_v0_bowed_168","midi_source":""},{"t":279.756,"note":48,"dur":0.162,"vel":1.0,"inst":"harp_v0_bowed_168","midi_source":""},{"t":279.756,"note":52,"dur":0.162,"vel":1.0,"inst":"harp_v0_bowed_168","midi_source":""},{"t":279.918,"note":45,"dur":0.162,"vel":1.0,"inst":"tuba_v0_struck_284","midi_source":""},{"t":279.918,"note":69,"dur":0.081,"vel":1.0,"inst":"tuba_v0_struck_284","midi_source":""},{"t":279.999,"note":71,"dur":0.081,"vel":1.0,"inst":"tuba_v0_struck_284","midi_source":""},{"t":280.081,"note":48,"dur":0.162,"vel":1.0,"inst":"harp_v0_bowed_168","midi_source":""},{"t":280.081,"note":52,"dur":0.162,"vel":1.0,"inst":"harp_v0_bowed_168","midi_source":""},{"t":280.081,"note":57,"dur":0.162,"vel":1.0,"inst":"tuba_v0_struck_284","midi_source":""},{"t":280.081,"note":72,"dur":0.162,"vel":1.0,"inst":"harp_v0_bowed_168","midi_source":""},{"t":280.243,"note":48,"dur":0.162,"vel":1.0,"inst":"harp_v0_bowed_168","midi_source":""},{"t":280.243,"note":52,"dur":0.162,"vel":1.0,"inst":"harp_v0_bowed_168","midi_source":""},{"t":280.243,"note":57,"dur":0.162,"vel":1.0,"inst":"tuba_v0_struck_284","midi_source":""},{"t":280.243,"note":74,"dur":0.162,"vel":1.0,"inst":"harp_v0_bowed_168","midi_source":""},{"t":280.405,"note":45,"dur":0.162,"vel":1.0,"inst":"tuba_v0_struck_284","midi_source":""},{"t":280.405,"note":76,"dur":0.325,"vel":1.0,"inst":"harp_v0_bowed_168","midi_source":""},{"t":280.568,"note":48,"dur":0.162,"vel":1.0,"inst":"harp_v0_bowed_168","midi_source":""},{"t":280.568,"note":52,"dur":0.162,"vel":1.0,"inst":"harp_v0_bowed_168","midi_source":""},{"t":280.568,"note":57,"dur":0.162,"vel":1.0,"inst":"tuba_v0_struck_284","midi_source":""},{"t":280.73,"note":48,"dur":0.162,"vel":1.0,"inst":"harp_v0_bowed_168","midi_source":""},{"t":280.73,"note":52,"dur":0.162,"vel":1.0,"inst":"harp_v0_bowed_168","midi_source":""},{"t":280.73,"note":57,"dur":0.162,"vel":1.0,"inst":"tuba_v0_struck_284","midi_source":""},{"t":280.73,"note":77,"dur":0.162,"vel":1.0,"inst":"tuba_v0_struck_284","midi_source":""},{"t":280.893,"note":45,"dur":0.162,"vel":1.0,"inst":"tuba_v0_struck_284","midi_source":""},{"t":280.893,"note":77,"dur":0.081,"vel":1.0,"inst":"tuba_v0_struck_284","midi_source":""},{"t":280.893,"note":79,"dur":0.081,"vel":1.0,"inst":"tuba_v0_struck_284","midi_source":""},{"t":280.974,"note":76,"dur":0.081,"vel":1.0,"inst":"harp_v0_bowed_168","midi_source":""},{"t":281.055,"note":48,"dur":0.162,"vel":1.0,"inst":"harp_v0_bowed_168","midi_source":""},{"t":281.055,"note":52,"dur":0.162,"vel":1.0,"inst":"harp_v0_bowed_168","midi_source":""},{"t":281.055,"note":57,"dur":0.162,"vel":1.0,"inst":"tuba_v0_struck_284","midi_source":""},{"t":281.055,"note":76,"dur":0.162,"vel":1.0,"inst":"harp_v0_bowed_168","midi_source":""},{"t":281.217,"note":48,"dur":0.162,"vel":1.0,"inst":"harp_v0_bowed_168","midi_source":""},{"t":281.217,"note":52,"dur":0.162,"vel":1.0,"inst":"harp_v0_bowed_168","midi_source":""},{"t":281.217,"note":57,"dur":0.162,"vel":1.0,"inst":"tuba_v0_struck_284","midi_source":""},{"t":281.217,"note":81,"dur":0.162,"vel":1.0,"inst":"tuba_v0_struck_284","midi_source":""},{"t":281.38,"note":45,"dur":0.162,"vel":1.0,"inst":"tuba_v0_struck_284","midi_source":""},{"t":281.38,"note":76,"dur":0.325,"vel":1.0,"inst":"harp_v0_bowed_168","midi_source":""},{"t":281.542,"note":48,"dur":0.162,"vel":1.0,"inst":"harp_v0_bowed_168","midi_source":""},{"t":281.542,"note":52,"dur":0.162,"vel":1.0,"inst":"harp_v0_bowed_168","midi_source":""},{"t":281.542,"note":57,"dur":0.162,"vel":1.0,"inst":"tuba_v0_struck_284","midi_source":""},{"t":281.704,"note":48,"dur":0.162,"vel":1.0,"inst":"harp_v0_bowed_168","midi_source":""},{"t":281.704,"note":52,"dur":0.162,"vel":1.0,"inst":"harp_v0_bowed_168","midi_source":""},{"t":281.704,"note":57,"dur":0.162,"vel":1.0,"inst":"tuba_v0_struck_284","midi_source":""},{"t":281.704,"note":69,"dur":0.162,"vel":1.0,"inst":"tuba_v0_struck_284","midi_source":""},{"t":281.867,"note":40,"dur":0.162,"vel":1.0,"inst":"harp_v0_bowed_168","midi_source":""},{"t":281.867,"note":71,"dur":0.081,"vel":1.0,"inst":"tuba_v0_struck_284","midi_source":""},{"t":281.948,"note":76,"dur":0.081,"vel":1.0,"inst":"harp_v0_bowed_168","midi_source":""},{"t":282.029,"note":47,"dur":0.162,"vel":1.0,"inst":"tuba_v0_struck_284","midi_source":""},{"t":282.029,"note":52,"dur":0.162,"vel":1.0,"inst":"harp_v0_bowed_168","midi_source":""},{"t":282.029,"note":55,"dur":0.162,"vel":1.0,"inst":"tuba_v0_struck_284","midi_source":""},{"t":282.029,"note":76,"dur":0.162,"vel":1.0,"inst":"harp_v0_bowed_168","midi_source":""},{"t":282.192,"note":47,"dur":0.162,"vel":1.0,"inst":"tuba_v0_struck_284","midi_source":""},{"t":282.192,"note":52,"dur":0.162,"vel":1.0,"inst":"harp_v0_bowed_168","midi_source":""},{"t":282.192,"note":55,"dur":0.162,"vel":1.0,"inst":"tuba_v0_struck_284","midi_source":""},{"t":282.192,"note":71,"dur":0.162,"vel":1.0,"inst":"tuba_v0_struck_284","midi_source":""},{"t":282.354,"note":45,"dur":0.162,"vel":1.0,"inst":"tuba_v0_struck_284","midi_source":""},{"t":282.354,"note":72,"dur":0.325,"vel":1.0,"inst":"harp_v0_bowed_168","midi_source":""},{"t":282.516,"note":48,"dur":0.162,"vel":1.0,"inst":"harp_v0_bowed_168","midi_source":""},{"t":282.516,"note":52,"dur":0.162,"vel":1.0,"inst":"harp_v0_bowed_168","midi_source":""},{"t":282.516,"note":57,"dur":0.162,"vel":1.0,"inst":"tuba_v0_struck_284","midi_source":""},{"t":282.679,"note":48,"dur":0.162,"vel":1.0,"inst":"harp_v0_bowed_168","midi_source":""},{"t":282.679,"note":52,"dur":0.162,"vel":1.0,"inst":"harp_v0_bowed_168","midi_source":""},{"t":282.679,"note":57,"dur":0.162,"vel":1.0,"inst":"tuba_v0_struck_284","midi_source":""},{"t":282.679,"note":69,"dur":0.162,"vel":1.0,"inst":"tuba_v0_struck_284","midi_source":""},{"t":282.841,"note":40,"dur":0.162,"vel":1.0,"inst":"harp_v0_bowed_168","midi_source":""},{"t":282.841,"note":71,"dur":0.081,"vel":1.0,"inst":"tuba_v0_struck_284","midi_source":""},{"t":282.922,"note":76,"dur":0.081,"vel":1.0,"inst":"harp_v0_bowed_168","midi_source":""},{"t":283.004,"note":47,"dur":0.162,"vel":1.0,"inst":"tuba_v0_struck_284","midi_source":""},{"t":283.004,"note":52,"dur":0.162,"vel":1.0,"inst":"harp_v0_bowed_168","midi_source":""},{"t":283.004,"note":55,"dur":0.162,"vel":1.0,"inst":"tuba_v0_struck_284","midi_source":""},{"t":283.004,"note":76,"dur":0.162,"vel":1.0,"inst":"harp_v0_bowed_168","midi_source":""},{"t":283.166,"note":47,"dur":0.162,"vel":1.0,"inst":"tuba_v0_struck_284","midi_source":""},{"t":283.166,"note":52,"dur":0.162,"vel":1.0,"inst":"harp_v0_bowed_168","midi_source":""},{"t":283.166,"note":55,"dur":0.162,"vel":1.0,"inst":"tuba_v0_struck_284","midi_source":""},{"t":283.166,"note":67,"dur":0.162,"vel":1.0,"inst":"tuba_v0_struck_284","midi_source":""},{"t":283.328,"note":45,"dur":0.487,"vel":1.0,"inst":"tuba_v0_struck_284","midi_source":""},{"t":283.328,"note":48,"dur":0.487,"vel":1.0,"inst":"harp_v0_bowed_168","midi_source":""},{"t":283.328,"note":52,"dur":0.487,"vel":1.0,"inst":"harp_v0_bowed_168","midi_source":""},{"t":283.328,"note":57,"dur":0.487,"vel":1.0,"inst":"tuba_v0_struck_284","midi_source":""},{"t":283.328,"note":69,"dur":0.325,"vel":1.0,"inst":"tuba_v0_struck_284","midi_source":""},{"t":283.734,"note":76,"dur":0.081,"vel":1.0,"inst":"harp_v0_bowed_168","midi_source":""},{"t":283.734,"note":67,"dur":0.081,"vel":1.0,"inst":"tuba_v0_struck_284","midi_source":""},{"t":283.734,"note":79,"dur":0.081,"vel":1.0,"inst":"tuba_v0_struck_284","midi_source":""},{"t":283.816,"note":33,"dur":0.162,"vel":1.0,"inst":"tuba_v0_struck_284","midi_source":""},{"t":283.816,"note":40,"dur":0.162,"vel":1.0,"inst":"harp_v0_bowed_168","midi_source":""},{"t":283.816,"note":45,"dur":0.162,"vel":1.0,"inst":"tuba_v0_struck_284","midi_source":""},{"t":283.816,"note":81,"dur":0.081,"vel":1.0,"inst":"tuba_v0_struck_284","midi_source":""},{"t":283.897,"note":79,"dur":0.081,"vel":1.0,"inst":"tuba_v0_struck_284","midi_source":""},{"t":283.978,"note":48,"dur":0.162,"vel":1.0,"inst":"harp_v0_bowed_168","midi_source":""},{"t":283.978,"note":52,"dur":0.162,"vel":1.0,"inst":"harp_v0_bowed_168","midi_source":""},{"t":283.978,"note":77,"dur":0.081,"vel":1.0,"inst":"tuba_v0_struck_284","midi_source":""},{"t":284.059,"note":76,"dur":0.081,"vel":1.0,"inst":"harp_v0_bowed_168","midi_source":""},{"t":284.14,"note":45,"dur":0.162,"vel":1.0,"inst":"tuba_v0_struck_284","midi_source":""},{"t":284.14,"note":48,"dur":0.162,"vel":1.0,"inst":"harp_v0_bowed_168","midi_source":""},{"t":284.14,"note":74,"dur":0.081,"vel":1.0,"inst":"harp_v0_bowed_168","midi_source":""},{"t":284.222,"note":72,"dur":0.081,"vel":1.0,"inst":"harp_v0_bowed_168","midi_source":""},{"t":284.303,"note":28,"dur":0.162,"vel":1.0,"inst":"harp_v0_bowed_168","midi_source":""},{"t":284.303,"note":35,"dur":0.162,"vel":1.0,"inst":"tuba_v0_struck_284","midi_source":""},{"t":284.303,"note":40,"dur":0.162,"vel":1.0,"inst":"harp_v0_bowed_168","midi_source":""},{"t":284.303,"note":77,"dur":0.162,"vel":1.0,"inst":"tuba_v0_struck_284","midi_source":""},{"t":284.465,"note":47,"dur":0.162,"vel":1.0,"inst":"tuba_v0_struck_284","midi_source":""},{"t":284.465,"note":50,"dur":0.162,"vel":1.0,"inst":"harp_v0_bowed_168","midi_source":""},{"t":284.465,"note":76,"dur":0.081,"vel":1.0,"inst":"harp_v0_bowed_168","midi_source":""},{"t":284.546,"note":74,"dur":0.081,"vel":1.0,"inst":"harp_v0_bowed_168","midi_source":""},{"t":284.628,"note":43,"dur":0.162,"vel":1.0,"inst":"tuba_v0_struck_284","midi_source":""},{"t":284.628,"note":47,"dur":0.162,"vel":1.0,"inst":"tuba_v0_struck_284","midi_source":""},{"t":284.628,"note":72,"dur":0.081,"vel":1.0,"inst":"harp_v0_bowed_168","midi_source":""},{"t":284.709,"note":71,"dur":0.081,"vel":1.0,"inst":"tuba_v0_struck_284","midi_source":""},{"t":284.79,"note":28,"dur":0.162,"vel":1.0,"inst":"harp_v0_bowed_168","midi_source":""},{"t":284.79,"note":35,"dur":0.162,"vel":1.0,"inst":"tuba_v0_struck_284","midi_source":""},{"t":284.79,"note":40,"dur":0.162,"vel":1.0,"inst":"harp_v0_bowed_168","midi_source":""},{"t":284.79,"note":77,"dur":0.162,"vel":1.0,"inst":"tuba_v0_struck_284","midi_source":""},{"t":284.952,"note":47,"dur":0.162,"vel":1.0,"inst":"tuba_v0_struck_284","midi_source":""},{"t":284.952,"note":50,"dur":0.162,"vel":1.0,"inst":"harp_v0_bowed_168","midi_source":""},{"t":284.952,"note":76,"dur":0.081,"vel":1.0,"inst":"harp_v0_bowed_168","midi_source":""},{"t":285.034,"note":74,"dur":0.081,"vel":1.0,"inst":"harp_v0_bowed_168","midi_source":""},{"t":285.115,"note":43,"dur":0.162,"vel":1.0,"inst":"tuba_v0_struck_284","midi_source":""},{"t":285.115,"note":47,"dur":0.162,"vel":1.0,"inst":"tuba_v0_struck_284","midi_source":""},{"t":285.115,"note":72,"dur":0.081,"vel":1.0,"inst":"harp_v0_bowed_168","midi_source":""},{"t":285.277,"note":28,"dur":0.162,"vel":1.0,"inst":"harp_v0_bowed_168","midi_source":""},{"t":285.277,"note":40,"dur":0.162,"vel":1.0,"inst":"harp_v0_bowed_168","midi_source":""},{"t":285.277,"note":59,"dur":0.325,"vel":1.0,"inst":"tuba_v0_struck_284","midi_source":""},{"t":285.277,"note":62,"dur":0.325,"vel":1.0,"inst":"harp_v0_bowed_168","midi_source":""},{"t":285.44,"note":40,"dur":0.162,"vel":1.0,"inst":"harp_v0_bowed_168","midi_source":""},{"t":285.44,"note":43,"dur":0.162,"vel":1.0,"inst":"tuba_v0_struck_284","midi_source":""},{"t":285.44,"note":47,"dur":0.162,"vel":1.0,"inst":"tuba_v0_struck_284","midi_source":""},{"t":285.602,"note":40,"dur":0.162,"vel":1.0,"inst":"harp_v0_bowed_168","midi_source":""},{"t":285.602,"note":43,"dur":0.162,"vel":1.0,"inst":"tuba_v0_struck_284","midi_source":""},{"t":285.602,"note":47,"dur":0.162,"vel":1.0,"inst":"tuba_v0_struck_284","midi_source":""},{"t":285.602,"note":59,"dur":0.162,"vel":1.0,"inst":"tuba_v0_struck_284","midi_source":""},{"t":285.602,"note":62,"dur":0.162,"vel":1.0,"inst":"harp_v0_bowed_168","midi_source":""},{"t":285.764,"note":28,"dur":0.162,"vel":1.0,"inst":"harp_v0_bowed_168","midi_source":""},{"t":285.764,"note":40,"dur":0.162,"vel":1.0,"inst":"harp_v0_bowed_168","midi_source":""},{"t":285.764,"note":59,"dur":0.325,"vel":1.0,"inst":"tuba_v0_struck_284","midi_source":""},{"t":285.764,"note":62,"dur":0.325,"vel":1.0,"inst":"harp_v0_bowed_168","midi_source":""},{"t":285.927,"note":40,"dur":0.162,"vel":1.0,"inst":"harp_v0_bowed_168","midi_source":""},{"t":285.927,"note":43,"dur":0.162,"vel":1.0,"inst":"tuba_v0_struck_284","midi_source":""},{"t":285.927,"note":47,"dur":0.162,"vel":1.0,"inst":"tuba_v0_struck_284","midi_source":""},{"t":286.089,"note":40,"dur":0.162,"vel":1.0,"inst":"harp_v0_bowed_168","midi_source":""},{"t":286.089,"note":43,"dur":0.162,"vel":1.0,"inst":"tuba_v0_struck_284","midi_source":""},{"t":286.089,"note":47,"dur":0.162,"vel":1.0,"inst":"tuba_v0_struck_284","midi_source":""},{"t":286.089,"note":59,"dur":0.162,"vel":1.0,"inst":"tuba_v0_struck_284","midi_source":""},{"t":286.089,"note":62,"dur":0.162,"vel":1.0,"inst":"harp_v0_bowed_168","midi_source":""},{"t":286.252,"note":28,"dur":0.162,"vel":1.0,"inst":"harp_v0_bowed_168","midi_source":""},{"t":286.252,"note":40,"dur":0.162,"vel":1.0,"inst":"harp_v0_bowed_168","midi_source":""},{"t":286.252,"note":64,"dur":0.162,"vel":1.0,"inst":"harp_v0_bowed_168","midi_source":""},{"t":286.252,"note":67,"dur":0.162,"vel":1.0,"inst":"tuba_v0_struck_284","midi_source":""},{"t":286.414,"note":40,"dur":0.162,"vel":1.0,"inst":"harp_v0_bowed_168","midi_source":""},{"t":286.414,"note":43,"dur":0.162,"vel":1.0,"inst":"tuba_v0_struck_284","midi_source":""},{"t":286.414,"note":47,"dur":0.162,"vel":1.0,"inst":"tuba_v0_struck_284","midi_source":""},{"t":286.414,"note":62,"dur":0.162,"vel":1.0,"inst":"harp_v0_bowed_168","midi_source":""},{"t":286.414,"note":55,"dur":0.162,"vel":1.0,"inst":"tuba_v0_struck_284","midi_source":""},{"t":286.576,"note":40,"dur":0.162,"vel":1.0,"inst":"harp_v0_bowed_168","midi_source":""},{"t":286.576,"note":43,"dur":0.162,"vel":1.0,"inst":"tuba_v0_struck_284","midi_source":""},{"t":286.576,"note":47,"dur":0.162,"vel":1.0,"inst":"tuba_v0_struck_284","midi_source":""},{"t":286.576,"note":60,"dur":0.162,"vel":1.0,"inst":"harp_v0_bowed_168","midi_source":""},{"t":286.576,"note":64,"dur":0.162,"vel":1.0,"inst":"harp_v0_bowed_168","midi_source":""},{"t":286.739,"note":28,"dur":0.162,"vel":1.0,"inst":"harp_v0_bowed_168","midi_source":""},{"t":286.739,"note":40,"dur":0.162,"vel":1.0,"inst":"harp_v0_bowed_168","midi_source":""},{"t":286.739,"note":59,"dur":0.162,"vel":1.0,"inst":"tuba_v0_struck_284","midi_source":""},{"t":286.739,"note":62,"dur":0.162,"vel":1.0,"inst":"harp_v0_bowed_168","midi_source":""},{"t":286.901,"note":40,"dur":0.162,"vel":1.0,"inst":"harp_v0_bowed_168","midi_source":""},{"t":286.901,"note":43,"dur":0.162,"vel":1.0,"inst":"tuba_v0_struck_284","midi_source":""},{"t":286.901,"note":47,"dur":0.162,"vel":1.0,"inst":"tuba_v0_struck_284","midi_source":""},{"t":286.901,"note":57,"dur":0.162,"vel":1.0,"inst":"tuba_v0_struck_284","midi_source":""},{"t":286.901,"note":60,"dur":0.162,"vel":1.0,"inst":"harp_v0_bowed_168","midi_source":""},{"t":287.064,"note":40,"dur":0.162,"vel":1.0,"inst":"harp_v0_bowed_168","midi_source":""},{"t":287.064,"note":43,"dur":0.162,"vel":1.0,"inst":"tuba_v0_struck_284","midi_source":""},{"t":287.064,"note":47,"dur":0.162,"vel":1.0,"inst":"tuba_v0_struck_284","midi_source":""},{"t":287.064,"note":55,"dur":0.162,"vel":1.0,"inst":"tuba_v0_struck_284","midi_source":""},{"t":287.064,"note":59,"dur":0.162,"vel":1.0,"inst":"tuba_v0_struck_284","midi_source":""},{"t":287.226,"note":33,"dur":0.162,"vel":1.0,"inst":"tuba_v0_struck_284","midi_source":""},{"t":287.226,"note":57,"dur":0.487,"vel":1.0,"inst":"tuba_v0_struck_284","midi_source":""},{"t":287.388,"note":48,"dur":0.162,"vel":1.0,"inst":"harp_v0_bowed_168","midi_source":""},{"t":287.388,"note":52,"dur":0.162,"vel":1.0,"inst":"harp_v0_bowed_168","midi_source":""},{"t":287.551,"note":48,"dur":0.162,"vel":1.0,"inst":"harp_v0_bowed_168","midi_source":""},{"t":287.551,"note":52,"dur":0.162,"vel":1.0,"inst":"harp_v0_bowed_168","midi_source":""},{"t":287.713,"note":45,"dur":0.162,"vel":1.0,"inst":"tuba_v0_struck_284","midi_source":""},{"t":287.713,"note":69,"dur":0.081,"vel":1.0,"inst":"tuba_v0_struck_284","midi_source":""},{"t":287.794,"note":71,"dur":0.081,"vel":1.0,"inst":"tuba_v0_struck_284","midi_source":""},{"t":287.875,"note":48,"dur":0.162,"vel":1.0,"inst":"harp_v0_bowed_168","midi_source":""},{"t":287.875,"note":52,"dur":0.162,"vel":1.0,"inst":"harp_v0_bowed_168","midi_source":""},{"t":287.875,"note":57,"dur":0.162,"vel":1.0,"inst":"tuba_v0_struck_284","midi_source":""},{"t":287.875,"note":72,"dur":0.162,"vel":1.0,"inst":"harp_v0_bowed_168","midi_source":""},{"t":288.038,"note":48,"dur":0.162,"vel":1.0,"inst":"harp_v0_bowed_168","midi_source":""},{"t":288.038,"note":52,"dur":0.162,"vel":1.0,"inst":"harp_v0_bowed_168","midi_source":""},{"t":288.038,"note":57,"dur":0.162,"vel":1.0,"inst":"tuba_v0_struck_284","midi_source":""},{"t":288.038,"note":74,"dur":0.162,"vel":1.0,"inst":"harp_v0_bowed_168","midi_source":""},{"t":288.2,"note":45,"dur":0.162,"vel":1.0,"inst":"tuba_v0_struck_284","midi_source":""},{"t":288.2,"note":76,"dur":0.325,"vel":1.0,"inst":"harp_v0_bowed_168","midi_source":""},{"t":288.363,"note":48,"dur":0.162,"vel":1.0,"inst":"harp_v0_bowed_168","midi_source":""},{"t":288.363,"note":52,"dur":0.162,"vel":1.0,"inst":"harp_v0_bowed_168","midi_source":""},{"t":288.363,"note":57,"dur":0.162,"vel":1.0,"inst":"tuba_v0_struck_284","midi_source":""},{"t":288.525,"note":48,"dur":0.162,"vel":1.0,"inst":"harp_v0_bowed_168","midi_source":""},{"t":288.525,"note":52,"dur":0.162,"vel":1.0,"inst":"harp_v0_bowed_168","midi_source":""},{"t":288.525,"note":57,"dur":0.162,"vel":1.0,"inst":"tuba_v0_struck_284","midi_source":""},{"t":288.525,"note":77,"dur":0.162,"vel":1.0,"inst":"tuba_v0_struck_284","midi_source":""},{"t":288.687,"note":45,"dur":0.162,"vel":1.0,"inst":"tuba_v0_struck_284","midi_source":""},{"t":288.687,"note":77,"dur":0.081,"vel":1.0,"inst":"tuba_v0_struck_284","midi_source":""},{"t":288.687,"note":79,"dur":0.081,"vel":1.0,"inst":"tuba_v0_struck_284","midi_source":""},{"t":288.769,"note":76,"dur":0.081,"vel":1.0,"inst":"harp_v0_bowed_168","midi_source":""},{"t":288.85,"note":48,"dur":0.162,"vel":1.0,"inst":"harp_v0_bowed_168","midi_source":""},{"t":288.85,"note":52,"dur":0.162,"vel":1.0,"inst":"harp_v0_bowed_168","midi_source":""},{"t":288.85,"note":57,"dur":0.162,"vel":1.0,"inst":"tuba_v0_struck_284","midi_source":""},{"t":288.85,"note":76,"dur":0.162,"vel":1.0,"inst":"harp_v0_bowed_168","midi_source":""},{"t":289.012,"note":48,"dur":0.162,"vel":1.0,"inst":"harp_v0_bowed_168","midi_source":""},{"t":289.012,"note":52,"dur":0.162,"vel":1.0,"inst":"harp_v0_bowed_168","midi_source":""},{"t":289.012,"note":57,"dur":0.162,"vel":1.0,"inst":"tuba_v0_struck_284","midi_source":""},{"t":289.012,"note":81,"dur":0.162,"vel":1.0,"inst":"tuba_v0_struck_284","midi_source":""},{"t":289.175,"note":45,"dur":0.162,"vel":1.0,"inst":"tuba_v0_struck_284","midi_source":""},{"t":289.175,"note":76,"dur":0.325,"vel":1.0,"inst":"harp_v0_bowed_168","midi_source":""},{"t":289.337,"note":48,"dur":0.162,"vel":1.0,"inst":"harp_v0_bowed_168","midi_source":""},{"t":289.337,"note":52,"dur":0.162,"vel":1.0,"inst":"harp_v0_bowed_168","midi_source":""},{"t":289.337,"note":57,"dur":0.162,"vel":1.0,"inst":"tuba_v0_struck_284","midi_source":""},{"t":289.499,"note":48,"dur":0.162,"vel":1.0,"inst":"harp_v0_bowed_168","midi_source":""},{"t":289.499,"note":52,"dur":0.162,"vel":1.0,"inst":"harp_v0_bowed_168","midi_source":""},{"t":289.499,"note":57,"dur":0.162,"vel":1.0,"inst":"tuba_v0_struck_284","midi_source":""},{"t":289.499,"note":69,"dur":0.162,"vel":1.0,"inst":"tuba_v0_struck_284","midi_source":""},{"t":289.662,"note":40,"dur":0.162,"vel":1.0,"inst":"harp_v0_bowed_168","midi_source":""},{"t":289.662,"note":71,"dur":0.081,"vel":1.0,"inst":"tuba_v0_struck_284","midi_source":""},{"t":289.743,"note":76,"dur":0.081,"vel":1.0,"inst":"harp_v0_bowed_168","midi_source":""},{"t":289.824,"note":47,"dur":0.162,"vel":1.0,"inst":"tuba_v0_struck_284","midi_source":""},{"t":289.824,"note":52,"dur":0.162,"vel":1.0,"inst":"harp_v0_bowed_168","midi_source":""},{"t":289.824,"note":55,"dur":0.162,"vel":1.0,"inst":"tuba_v0_struck_284","midi_source":""},{"t":289.824,"note":76,"dur":0.162,"vel":1.0,"inst":"harp_v0_bowed_168","midi_source":""},{"t":289.987,"note":47,"dur":0.162,"vel":1.0,"inst":"tuba_v0_struck_284","midi_source":""},{"t":289.987,"note":52,"dur":0.162,"vel":1.0,"inst":"harp_v0_bowed_168","midi_source":""},{"t":289.987,"note":55,"dur":0.162,"vel":1.0,"inst":"tuba_v0_struck_284","midi_source":""},{"t":289.987,"note":71,"dur":0.162,"vel":1.0,"inst":"tuba_v0_struck_284","midi_source":""},{"t":290.149,"note":45,"dur":0.162,"vel":1.0,"inst":"tuba_v0_struck_284","midi_source":""},{"t":290.149,"note":72,"dur":0.325,"vel":1.0,"inst":"harp_v0_bowed_168","midi_source":""},{"t":290.311,"note":48,"dur":0.162,"vel":1.0,"inst":"harp_v0_bowed_168","midi_source":""},{"t":290.311,"note":52,"dur":0.162,"vel":1.0,"inst":"harp_v0_bowed_168","midi_source":""},{"t":290.311,"note":57,"dur":0.162,"vel":1.0,"inst":"tuba_v0_struck_284","midi_source":""},{"t":290.474,"note":48,"dur":0.162,"vel":1.0,"inst":"harp_v0_bowed_168","midi_source":""},{"t":290.474,"note":52,"dur":0.162,"vel":1.0,"inst":"harp_v0_bowed_168","midi_source":""},{"t":290.474,"note":57,"dur":0.162,"vel":1.0,"inst":"tuba_v0_struck_284","midi_source":""},{"t":290.474,"note":69,"dur":0.162,"vel":1.0,"inst":"tuba_v0_struck_284","midi_source":""},{"t":290.636,"note":40,"dur":0.162,"vel":1.0,"inst":"harp_v0_bowed_168","midi_source":""},{"t":290.636,"note":71,"dur":0.081,"vel":1.0,"inst":"tuba_v0_struck_284","midi_source":""},{"t":290.717,"note":76,"dur":0.081,"vel":1.0,"inst":"harp_v0_bowed_168","midi_source":""},{"t":290.799,"note":47,"dur":0.162,"vel":1.0,"inst":"tuba_v0_struck_284","midi_source":""},{"t":290.799,"note":52,"dur":0.162,"vel":1.0,"inst":"harp_v0_bowed_168","midi_source":""},{"t":290.799,"note":55,"dur":0.162,"vel":1.0,"inst":"tuba_v0_struck_284","midi_source":""},{"t":290.799,"note":76,"dur":0.162,"vel":1.0,"inst":"harp_v0_bowed_168","midi_source":""},{"t":290.961,"note":47,"dur":0.162,"vel":1.0,"inst":"tuba_v0_struck_284","midi_source":""},{"t":290.961,"note":52,"dur":0.162,"vel":1.0,"inst":"harp_v0_bowed_168","midi_source":""},{"t":290.961,"note":55,"dur":0.162,"vel":1.0,"inst":"tuba_v0_struck_284","midi_source":""},{"t":290.961,"note":67,"dur":0.162,"vel":1.0,"inst":"tuba_v0_struck_284","midi_source":""},{"t":291.123,"note":45,"dur":0.487,"vel":1.0,"inst":"tuba_v0_struck_284","midi_source":""},{"t":291.123,"note":48,"dur":0.487,"vel":1.0,"inst":"harp_v0_bowed_168","midi_source":""},{"t":291.123,"note":52,"dur":0.487,"vel":1.0,"inst":"harp_v0_bowed_168","midi_source":""},{"t":291.123,"note":57,"dur":0.487,"vel":1.0,"inst":"tuba_v0_struck_284","midi_source":""},{"t":291.123,"note":69,"dur":0.325,"vel":1.0,"inst":"tuba_v0_struck_284","midi_source":""},{"t":291.529,"note":76,"dur":0.081,"vel":1.0,"inst":"harp_v0_bowed_168","midi_source":""},{"t":291.529,"note":67,"dur":0.081,"vel":1.0,"inst":"tuba_v0_struck_284","midi_source":""},{"t":291.529,"note":79,"dur":0.081,"vel":1.0,"inst":"tuba_v0_struck_284","midi_source":""},{"t":291.611,"note":33,"dur":0.162,"vel":1.0,"inst":"tuba_v0_struck_284","midi_source":""},{"t":291.611,"note":40,"dur":0.162,"vel":1.0,"inst":"harp_v0_bowed_168","midi_source":""},{"t":291.611,"note":45,"dur":0.162,"vel":1.0,"inst":"tuba_v0_struck_284","midi_source":""},{"t":291.611,"note":81,"dur":0.081,"vel":1.0,"inst":"tuba_v0_struck_284","midi_source":""},{"t":291.692,"note":79,"dur":0.081,"vel":1.0,"inst":"tuba_v0_struck_284","midi_source":""},{"t":291.773,"note":48,"dur":0.162,"vel":1.0,"inst":"harp_v0_bowed_168","midi_source":""},{"t":291.773,"note":52,"dur":0.162,"vel":1.0,"inst":"harp_v0_bowed_168","midi_source":""},{"t":291.773,"note":77,"dur":0.081,"vel":1.0,"inst":"tuba_v0_struck_284","midi_source":""},{"t":291.854,"note":76,"dur":0.081,"vel":1.0,"inst":"harp_v0_bowed_168","midi_source":""},{"t":291.935,"note":45,"dur":0.162,"vel":1.0,"inst":"tuba_v0_struck_284","midi_source":""},{"t":291.935,"note":48,"dur":0.162,"vel":1.0,"inst":"harp_v0_bowed_168","midi_source":""},{"t":291.935,"note":74,"dur":0.081,"vel":1.0,"inst":"harp_v0_bowed_168","midi_source":""},{"t":292.017,"note":72,"dur":0.081,"vel":1.0,"inst":"harp_v0_bowed_168","midi_source":""},{"t":292.098,"note":28,"dur":0.162,"vel":1.0,"inst":"harp_v0_bowed_168","midi_source":""},{"t":292.098,"note":35,"dur":0.162,"vel":1.0,"inst":"tuba_v0_struck_284","midi_source":""},{"t":292.098,"note":40,"dur":0.162,"vel":1.0,"inst":"harp_v0_bowed_168","midi_source":""},{"t":292.098,"note":77,"dur":0.162,"vel":1.0,"inst":"tuba_v0_struck_284","midi_source":""},{"t":292.26,"note":47,"dur":0.162,"vel":1.0,"inst":"tuba_v0_struck_284","midi_source":""},{"t":292.26,"note":50,"dur":0.162,"vel":1.0,"inst":"harp_v0_bowed_168","midi_source":""},{"t":292.26,"note":76,"dur":0.081,"vel":1.0,"inst":"harp_v0_bowed_168","midi_source":""},{"t":292.341,"note":74,"dur":0.081,"vel":1.0,"inst":"harp_v0_bowed_168","midi_source":""},{"t":292.423,"note":43,"dur":0.162,"vel":1.0,"inst":"tuba_v0_struck_284","midi_source":""},{"t":292.423,"note":47,"dur":0.162,"vel":1.0,"inst":"tuba_v0_struck_284","midi_source":""},{"t":292.423,"note":72,"dur":0.081,"vel":1.0,"inst":"harp_v0_bowed_168","midi_source":""},{"t":292.504,"note":71,"dur":0.081,"vel":1.0,"inst":"tuba_v0_struck_284","midi_source":""},{"t":292.585,"note":28,"dur":0.162,"vel":1.0,"inst":"harp_v0_bowed_168","midi_source":""},{"t":292.585,"note":35,"dur":0.162,"vel":1.0,"inst":"tuba_v0_struck_284","midi_source":""},{"t":292.585,"note":40,"dur":0.162,"vel":1.0,"inst":"harp_v0_bowed_168","midi_source":""},{"t":292.585,"note":77,"dur":0.162,"vel":1.0,"inst":"tuba_v0_struck_284","midi_source":""},{"t":292.747,"note":47,"dur":0.162,"vel":1.0,"inst":"tuba_v0_struck_284","midi_source":""},{"t":292.747,"note":50,"dur":0.162,"vel":1.0,"inst":"harp_v0_bowed_168","midi_source":""},{"t":292.747,"note":76,"dur":0.081,"vel":1.0,"inst":"harp_v0_bowed_168","midi_source":""},{"t":292.829,"note":74,"dur":0.081,"vel":1.0,"inst":"harp_v0_bowed_168","midi_source":""},{"t":292.91,"note":43,"dur":0.162,"vel":1.0,"inst":"tuba_v0_struck_284","midi_source":""},{"t":292.91,"note":47,"dur":0.162,"vel":1.0,"inst":"tuba_v0_struck_284","midi_source":""},{"t":292.91,"note":72,"dur":0.081,"vel":1.0,"inst":"harp_v0_bowed_168","midi_source":""},{"t":293.072,"note":28,"dur":0.162,"vel":1.0,"inst":"harp_v0_bowed_168","midi_source":""},{"t":293.072,"note":40,"dur":0.162,"vel":1.0,"inst":"harp_v0_bowed_168","midi_source":""},{"t":293.072,"note":59,"dur":0.325,"vel":1.0,"inst":"tuba_v0_struck_284","midi_source":""},{"t":293.072,"note":62,"dur":0.325,"vel":1.0,"inst":"harp_v0_bowed_168","midi_source":""},{"t":293.234,"note":40,"dur":0.162,"vel":1.0,"inst":"harp_v0_bowed_168","midi_source":""},{"t":293.234,"note":43,"dur":0.162,"vel":1.0,"inst":"tuba_v0_struck_284","midi_source":""},{"t":293.234,"note":47,"dur":0.162,"vel":1.0,"inst":"tuba_v0_struck_284","midi_source":""},{"t":293.397,"note":40,"dur":0.162,"vel":1.0,"inst":"harp_v0_bowed_168","midi_source":""},{"t":293.397,"note":43,"dur":0.162,"vel":1.0,"inst":"tuba_v0_struck_284","midi_source":""},{"t":293.397,"note":47,"dur":0.162,"vel":1.0,"inst":"tuba_v0_struck_284","midi_source":""},{"t":293.397,"note":59,"dur":0.162,"vel":1.0,"inst":"tuba_v0_struck_284","midi_source":""},{"t":293.397,"note":62,"dur":0.162,"vel":1.0,"inst":"harp_v0_bowed_168","midi_source":""},{"t":293.559,"note":28,"dur":0.162,"vel":1.0,"inst":"harp_v0_bowed_168","midi_source":""},{"t":293.559,"note":40,"dur":0.162,"vel":1.0,"inst":"harp_v0_bowed_168","midi_source":""},{"t":293.559,"note":59,"dur":0.325,"vel":1.0,"inst":"tuba_v0_struck_284","midi_source":""},{"t":293.559,"note":62,"dur":0.325,"vel":1.0,"inst":"harp_v0_bowed_168","midi_source":""},{"t":293.722,"note":40,"dur":0.162,"vel":1.0,"inst":"harp_v0_bowed_168","midi_source":""},{"t":293.722,"note":43,"dur":0.162,"vel":1.0,"inst":"tuba_v0_struck_284","midi_source":""},{"t":293.722,"note":47,"dur":0.162,"vel":1.0,"inst":"tuba_v0_struck_284","midi_source":""},{"t":293.884,"note":40,"dur":0.162,"vel":1.0,"inst":"harp_v0_bowed_168","midi_source":""},{"t":293.884,"note":43,"dur":0.162,"vel":1.0,"inst":"tuba_v0_struck_284","midi_source":""},{"t":293.884,"note":47,"dur":0.162,"vel":1.0,"inst":"tuba_v0_struck_284","midi_source":""},{"t":293.884,"note":59,"dur":0.162,"vel":1.0,"inst":"tuba_v0_struck_284","midi_source":""},{"t":293.884,"note":62,"dur":0.162,"vel":1.0,"inst":"harp_v0_bowed_168","midi_source":""},{"t":294.046,"note":28,"dur":0.162,"vel":1.0,"inst":"harp_v0_bowed_168","midi_source":""},{"t":294.046,"note":40,"dur":0.162,"vel":1.0,"inst":"harp_v0_bowed_168","midi_source":""},{"t":294.046,"note":64,"dur":0.162,"vel":1.0,"inst":"harp_v0_bowed_168","midi_source":""},{"t":294.046,"note":67,"dur":0.162,"vel":1.0,"inst":"tuba_v0_struck_284","midi_source":""},{"t":294.209,"note":40,"dur":0.162,"vel":1.0,"inst":"harp_v0_bowed_168","midi_source":""},{"t":294.209,"note":43,"dur":0.162,"vel":1.0,"inst":"tuba_v0_struck_284","midi_source":""},{"t":294.209,"note":47,"dur":0.162,"vel":1.0,"inst":"tuba_v0_struck_284","midi_source":""},{"t":294.209,"note":62,"dur":0.162,"vel":1.0,"inst":"harp_v0_bowed_168","midi_source":""},{"t":294.209,"note":55,"dur":0.162,"vel":1.0,"inst":"tuba_v0_struck_284","midi_source":""},{"t":294.371,"note":40,"dur":0.162,"vel":1.0,"inst":"harp_v0_bowed_168","midi_source":""},{"t":294.371,"note":43,"dur":0.162,"vel":1.0,"inst":"tuba_v0_struck_284","midi_source":""},{"t":294.371,"note":47,"dur":0.162,"vel":1.0,"inst":"tuba_v0_struck_284","midi_source":""},{"t":294.371,"note":60,"dur":0.162,"vel":1.0,"inst":"harp_v0_bowed_168","midi_source":""},{"t":294.371,"note":64,"dur":0.162,"vel":1.0,"inst":"harp_v0_bowed_168","midi_source":""},{"t":294.534,"note":28,"dur":0.162,"vel":1.0,"inst":"harp_v0_bowed_168","midi_source":""},{"t":294.534,"note":40,"dur":0.162,"vel":1.0,"inst":"harp_v0_bowed_168","midi_source":""},{"t":294.534,"note":59,"dur":0.162,"vel":1.0,"inst":"tuba_v0_struck_284","midi_source":""},{"t":294.534,"note":62,"dur":0.162,"vel":1.0,"inst":"harp_v0_bowed_168","midi_source":""},{"t":294.696,"note":40,"dur":0.162,"vel":1.0,"inst":"harp_v0_bowed_168","midi_source":""},{"t":294.696,"note":43,"dur":0.162,"vel":1.0,"inst":"tuba_v0_struck_284","midi_source":""},{"t":294.696,"note":47,"dur":0.162,"vel":1.0,"inst":"tuba_v0_struck_284","midi_source":""},{"t":294.696,"note":57,"dur":0.162,"vel":1.0,"inst":"tuba_v0_struck_284","midi_source":""},{"t":294.696,"note":60,"dur":0.162,"vel":1.0,"inst":"harp_v0_bowed_168","midi_source":""},{"t":294.858,"note":40,"dur":0.162,"vel":1.0,"inst":"harp_v0_bowed_168","midi_source":""},{"t":294.858,"note":43,"dur":0.162,"vel":1.0,"inst":"tuba_v0_struck_284","midi_source":""},{"t":294.858,"note":47,"dur":0.162,"vel":1.0,"inst":"tuba_v0_struck_284","midi_source":""},{"t":294.858,"note":55,"dur":0.162,"vel":1.0,"inst":"tuba_v0_struck_284","midi_source":""},{"t":294.858,"note":59,"dur":0.162,"vel":1.0,"inst":"tuba_v0_struck_284","midi_source":""},{"t":295.021,"note":33,"dur":0.162,"vel":1.0,"inst":"tuba_v0_struck_284","midi_source":""},{"t":295.021,"note":57,"dur":0.487,"vel":1.0,"inst":"tuba_v0_struck_284","midi_source":""},{"t":295.183,"note":48,"dur":0.162,"vel":1.0,"inst":"harp_v0_bowed_168","midi_source":""},{"t":295.183,"note":52,"dur":0.162,"vel":1.0,"inst":"harp_v0_bowed_168","midi_source":""},{"t":295.346,"note":48,"dur":0.162,"vel":1.0,"inst":"harp_v0_bowed_168","midi_source":""},{"t":295.346,"note":52,"dur":0.162,"vel":1.0,"inst":"harp_v0_bowed_168","midi_source":""},{"t":295.508,"note":45,"dur":0.162,"vel":1.0,"inst":"tuba_v0_struck_284","midi_source":""},{"t":295.508,"note":69,"dur":0.081,"vel":1.0,"inst":"tuba_v0_struck_284","midi_source":""},{"t":295.589,"note":71,"dur":0.081,"vel":1.0,"inst":"tuba_v0_struck_284","midi_source":""},{"t":295.67,"note":48,"dur":0.162,"vel":1.0,"inst":"harp_v0_bowed_168","midi_source":""},{"t":295.67,"note":52,"dur":0.162,"vel":1.0,"inst":"harp_v0_bowed_168","midi_source":""},{"t":295.67,"note":57,"dur":0.162,"vel":1.0,"inst":"tuba_v0_struck_284","midi_source":""},{"t":295.67,"note":72,"dur":0.162,"vel":1.0,"inst":"harp_v0_bowed_168","midi_source":""},{"t":295.833,"note":48,"dur":0.162,"vel":1.0,"inst":"harp_v0_bowed_168","midi_source":""},{"t":295.833,"note":52,"dur":0.162,"vel":1.0,"inst":"harp_v0_bowed_168","midi_source":""},{"t":295.833,"note":57,"dur":0.162,"vel":1.0,"inst":"tuba_v0_struck_284","midi_source":""},{"t":295.833,"note":74,"dur":0.162,"vel":1.0,"inst":"harp_v0_bowed_168","midi_source":""},{"t":295.995,"note":45,"dur":0.162,"vel":1.0,"inst":"tuba_v0_struck_284","midi_source":""},{"t":295.995,"note":76,"dur":0.325,"vel":1.0,"inst":"harp_v0_bowed_168","midi_source":""},{"t":296.158,"note":48,"dur":0.162,"vel":1.0,"inst":"harp_v0_bowed_168","midi_source":""},{"t":296.158,"note":52,"dur":0.162,"vel":1.0,"inst":"harp_v0_bowed_168","midi_source":""},{"t":296.158,"note":57,"dur":0.162,"vel":1.0,"inst":"tuba_v0_struck_284","midi_source":""},{"t":296.32,"note":48,"dur":0.162,"vel":1.0,"inst":"harp_v0_bowed_168","midi_source":""},{"t":296.32,"note":52,"dur":0.162,"vel":1.0,"inst":"harp_v0_bowed_168","midi_source":""},{"t":296.32,"note":57,"dur":0.162,"vel":1.0,"inst":"tuba_v0_struck_284","midi_source":""},{"t":296.32,"note":77,"dur":0.162,"vel":1.0,"inst":"tuba_v0_struck_284","midi_source":""},{"t":296.482,"note":45,"dur":0.162,"vel":1.0,"inst":"tuba_v0_struck_284","midi_source":""},{"t":296.482,"note":77,"dur":0.081,"vel":1.0,"inst":"tuba_v0_struck_284","midi_source":""},{"t":296.482,"note":79,"dur":0.081,"vel":1.0,"inst":"tuba_v0_struck_284","midi_source":""},{"t":296.564,"note":76,"dur":0.081,"vel":1.0,"inst":"harp_v0_bowed_168","midi_source":""},{"t":296.645,"note":48,"dur":0.162,"vel":1.0,"inst":"harp_v0_bowed_168","midi_source":""},{"t":296.645,"note":52,"dur":0.162,"vel":1.0,"inst":"harp_v0_bowed_168","midi_source":""},{"t":296.645,"note":57,"dur":0.162,"vel":1.0,"inst":"tuba_v0_struck_284","midi_source":""},{"t":296.645,"note":76,"dur":0.162,"vel":1.0,"inst":"harp_v0_bowed_168","midi_source":""},{"t":296.807,"note":48,"dur":0.162,"vel":1.0,"inst":"harp_v0_bowed_168","midi_source":""},{"t":296.807,"note":52,"dur":0.162,"vel":1.0,"inst":"harp_v0_bowed_168","midi_source":""},{"t":296.807,"note":57,"dur":0.162,"vel":1.0,"inst":"tuba_v0_struck_284","midi_source":""},{"t":296.807,"note":81,"dur":0.162,"vel":1.0,"inst":"tuba_v0_struck_284","midi_source":""},{"t":296.97,"note":45,"dur":0.162,"vel":1.0,"inst":"tuba_v0_struck_284","midi_source":""},{"t":296.97,"note":76,"dur":0.325,"vel":1.0,"inst":"harp_v0_bowed_168","midi_source":""},{"t":297.132,"note":48,"dur":0.162,"vel":1.0,"inst":"harp_v0_bowed_168","midi_source":""},{"t":297.132,"note":52,"dur":0.162,"vel":1.0,"inst":"harp_v0_bowed_168","midi_source":""},{"t":297.132,"note":57,"dur":0.162,"vel":1.0,"inst":"tuba_v0_struck_284","midi_source":""},{"t":297.294,"note":48,"dur":0.162,"vel":1.0,"inst":"harp_v0_bowed_168","midi_source":""},{"t":297.294,"note":52,"dur":0.162,"vel":1.0,"inst":"harp_v0_bowed_168","midi_source":""},{"t":297.294,"note":57,"dur":0.162,"vel":1.0,"inst":"tuba_v0_struck_284","midi_source":""},{"t":297.294,"note":69,"dur":0.162,"vel":1.0,"inst":"tuba_v0_struck_284","midi_source":""},{"t":297.457,"note":40,"dur":0.162,"vel":1.0,"inst":"harp_v0_bowed_168","midi_source":""},{"t":297.457,"note":71,"dur":0.081,"vel":1.0,"inst":"tuba_v0_struck_284","midi_source":""},{"t":297.538,"note":76,"dur":0.081,"vel":1.0,"inst":"harp_v0_bowed_168","midi_source":""},{"t":297.619,"note":47,"dur":0.162,"vel":1.0,"inst":"tuba_v0_struck_284","midi_source":""},{"t":297.619,"note":52,"dur":0.162,"vel":1.0,"inst":"harp_v0_bowed_168","midi_source":""},{"t":297.619,"note":55,"dur":0.162,"vel":1.0,"inst":"tuba_v0_struck_284","midi_source":""},{"t":297.619,"note":76,"dur":0.162,"vel":1.0,"inst":"harp_v0_bowed_168","midi_source":""},{"t":297.782,"note":47,"dur":0.162,"vel":1.0,"inst":"tuba_v0_struck_284","midi_source":""},{"t":297.782,"note":52,"dur":0.162,"vel":1.0,"inst":"harp_v0_bowed_168","midi_source":""},{"t":297.782,"note":55,"dur":0.162,"vel":1.0,"inst":"tuba_v0_struck_284","midi_source":""},{"t":297.782,"note":71,"dur":0.162,"vel":1.0,"inst":"tuba_v0_struck_284","midi_source":""},{"t":297.944,"note":45,"dur":0.162,"vel":1.0,"inst":"tuba_v0_struck_284","midi_source":""},{"t":297.944,"note":72,"dur":0.325,"vel":1.0,"inst":"harp_v0_bowed_168","midi_source":""},{"t":298.106,"note":48,"dur":0.162,"vel":1.0,"inst":"harp_v0_bowed_168","midi_source":""},{"t":298.106,"note":52,"dur":0.162,"vel":1.0,"inst":"harp_v0_bowed_168","midi_source":""},{"t":298.106,"note":57,"dur":0.162,"vel":1.0,"inst":"tuba_v0_struck_284","midi_source":""},{"t":298.269,"note":48,"dur":0.162,"vel":1.0,"inst":"harp_v0_bowed_168","midi_source":""},{"t":298.269,"note":52,"dur":0.162,"vel":1.0,"inst":"harp_v0_bowed_168","midi_source":""},{"t":298.269,"note":57,"dur":0.162,"vel":1.0,"inst":"tuba_v0_struck_284","midi_source":""},{"t":298.269,"note":69,"dur":0.162,"vel":1.0,"inst":"tuba_v0_struck_284","midi_source":""},{"t":298.431,"note":40,"dur":0.162,"vel":1.0,"inst":"harp_v0_bowed_168","midi_source":""},{"t":298.431,"note":71,"dur":0.081,"vel":1.0,"inst":"tuba_v0_struck_284","midi_source":""},{"t":298.512,"note":76,"dur":0.081,"vel":1.0,"inst":"harp_v0_bowed_168","midi_source":""},{"t":298.594,"note":47,"dur":0.162,"vel":1.0,"inst":"tuba_v0_struck_284","midi_source":""},{"t":298.594,"note":52,"dur":0.162,"vel":1.0,"inst":"harp_v0_bowed_168","midi_source":""},{"t":298.594,"note":55,"dur":0.162,"vel":1.0,"inst":"tuba_v0_struck_284","midi_source":""},{"t":298.594,"note":76,"dur":0.162,"vel":1.0,"inst":"harp_v0_bowed_168","midi_source":""},{"t":298.756,"note":47,"dur":0.162,"vel":1.0,"inst":"tuba_v0_struck_284","midi_source":""},{"t":298.756,"note":52,"dur":0.162,"vel":1.0,"inst":"harp_v0_bowed_168","midi_source":""},{"t":298.756,"note":55,"dur":0.162,"vel":1.0,"inst":"tuba_v0_struck_284","midi_source":""},{"t":298.756,"note":67,"dur":0.162,"vel":1.0,"inst":"tuba_v0_struck_284","midi_source":""},{"t":298.918,"note":45,"dur":0.487,"vel":1.0,"inst":"tuba_v0_struck_284","midi_source":""},{"t":298.918,"note":48,"dur":0.487,"vel":1.0,"inst":"harp_v0_bowed_168","midi_source":""},{"t":298.918,"note":52,"dur":0.487,"vel":1.0,"inst":"harp_v0_bowed_168","midi_source":""},{"t":298.918,"note":57,"dur":0.487,"vel":1.0,"inst":"tuba_v0_struck_284","midi_source":""},{"t":298.918,"note":69,"dur":0.325,"vel":1.0,"inst":"tuba_v0_struck_284","midi_source":""},{"t":299.324,"note":76,"dur":0.081,"vel":1.0,"inst":"harp_v0_bowed_168","midi_source":""},{"t":299.324,"note":67,"dur":0.081,"vel":1.0,"inst":"tuba_v0_struck_284","midi_source":""},{"t":299.324,"note":79,"dur":0.081,"vel":1.0,"inst":"tuba_v0_struck_284","midi_source":""},{"t":299.405,"note":33,"dur":0.162,"vel":1.0,"inst":"tuba_v0_struck_284","midi_source":""},{"t":299.405,"note":40,"dur":0.162,"vel":1.0,"inst":"harp_v0_bowed_168","midi_source":""},{"t":299.405,"note":45,"dur":0.162,"vel":1.0,"inst":"tuba_v0_struck_284","midi_source":""},{"t":299.405,"note":81,"dur":0.081,"vel":1.0,"inst":"tuba_v0_struck_284","midi_source":""},{"t":299.487,"note":79,"dur":0.081,"vel":1.0,"inst":"tuba_v0_struck_284","midi_source":""},{"t":299.568,"note":48,"dur":0.162,"vel":1.0,"inst":"harp_v0_bowed_168","midi_source":""},{"t":299.568,"note":52,"dur":0.162,"vel":1.0,"inst":"harp_v0_bowed_168","midi_source":""},{"t":299.568,"note":77,"dur":0.081,"vel":1.0,"inst":"tuba_v0_struck_284","midi_source":""},{"t":299.649,"note":76,"dur":0.081,"vel":1.0,"inst":"harp_v0_bowed_168","midi_source":""},{"t":299.73,"note":45,"dur":0.162,"vel":1.0,"inst":"tuba_v0_struck_284","midi_source":""},{"t":299.73,"note":48,"dur":0.162,"vel":1.0,"inst":"harp_v0_bowed_168","midi_source":""},{"t":299.73,"note":74,"dur":0.081,"vel":1.0,"inst":"harp_v0_bowed_168","midi_source":""},{"t":299.811,"note":72,"dur":0.081,"vel":1.0,"inst":"harp_v0_bowed_168","midi_source":""},{"t":299.893,"note":28,"dur":0.162,"vel":1.0,"inst":"harp_v0_bowed_168","midi_source":""},{"t":299.893,"note":35,"dur":0.162,"vel":1.0,"inst":"tuba_v0_struck_284","midi_source":""},{"t":299.893,"note":40,"dur":0.162,"vel":1.0,"inst":"harp_v0_bowed_168","midi_source":""},{"t":299.893,"note":77,"dur":0.162,"vel":1.0,"inst":"tuba_v0_struck_284","midi_source":""},{"t":300.055,"note":47,"dur":0.162,"vel":1.0,"inst":"tuba_v0_struck_284","midi_source":""},{"t":300.055,"note":50,"dur":0.162,"vel":1.0,"inst":"harp_v0_bowed_168","midi_source":""},{"t":300.055,"note":76,"dur":0.081,"vel":1.0,"inst":"harp_v0_bowed_168","midi_source":""},{"t":300.136,"note":74,"dur":0.081,"vel":1.0,"inst":"harp_v0_bowed_168","midi_source":""},{"t":300.217,"note":43,"dur":0.162,"vel":1.0,"inst":"tuba_v0_struck_284","midi_source":""},{"t":300.217,"note":47,"dur":0.162,"vel":1.0,"inst":"tuba_v0_struck_284","midi_source":""},{"t":300.217,"note":72,"dur":0.081,"vel":1.0,"inst":"harp_v0_bowed_168","midi_source":""},{"t":300.299,"note":71,"dur":0.081,"vel":1.0,"inst":"tuba_v0_struck_284","midi_source":""},{"t":300.38,"note":28,"dur":0.162,"vel":1.0,"inst":"harp_v0_bowed_168","midi_source":""},{"t":300.38,"note":35,"dur":0.162,"vel":1.0,"inst":"tuba_v0_struck_284","midi_source":""},{"t":300.38,"note":40,"dur":0.162,"vel":1.0,"inst":"harp_v0_bowed_168","midi_source":""},{"t":300.38,"note":77,"dur":0.162,"vel":1.0,"inst":"tuba_v0_struck_284","midi_source":""},{"t":300.542,"note":47,"dur":0.162,"vel":1.0,"inst":"tuba_v0_struck_284","midi_source":""},{"t":300.542,"note":50,"dur":0.162,"vel":1.0,"inst":"harp_v0_bowed_168","midi_source":""},{"t":300.542,"note":76,"dur":0.081,"vel":1.0,"inst":"harp_v0_bowed_168","midi_source":""},{"t":300.623,"note":74,"dur":0.081,"vel":1.0,"inst":"harp_v0_bowed_168","midi_source":""},{"t":300.705,"note":43,"dur":0.162,"vel":1.0,"inst":"tuba_v0_struck_284","midi_source":""},{"t":300.705,"note":47,"dur":0.162,"vel":1.0,"inst":"tuba_v0_struck_284","midi_source":""},{"t":300.705,"note":72,"dur":0.081,"vel":1.0,"inst":"harp_v0_bowed_168","midi_source":""},{"t":300.867,"note":28,"dur":0.162,"vel":1.0,"inst":"harp_v0_bowed_168","midi_source":""},{"t":300.867,"note":40,"dur":0.162,"vel":1.0,"inst":"harp_v0_bowed_168","midi_source":""},{"t":300.867,"note":59,"dur":0.325,"vel":1.0,"inst":"tuba_v0_struck_284","midi_source":""},{"t":300.867,"note":62,"dur":0.325,"vel":1.0,"inst":"harp_v0_bowed_168","midi_source":""},{"t":301.029,"note":40,"dur":0.162,"vel":1.0,"inst":"harp_v0_bowed_168","midi_source":""},{"t":301.029,"note":43,"dur":0.162,"vel":1.0,"inst":"tuba_v0_struck_284","midi_source":""},{"t":301.029,"note":47,"dur":0.162,"vel":1.0,"inst":"tuba_v0_struck_284","midi_source":""},{"t":301.192,"note":40,"dur":0.162,"vel":1.0,"inst":"harp_v0_bowed_168","midi_source":""},{"t":301.192,"note":43,"dur":0.162,"vel":1.0,"inst":"tuba_v0_struck_284","midi_source":""},{"t":301.192,"note":47,"dur":0.162,"vel":1.0,"inst":"tuba_v0_struck_284","midi_source":""},{"t":301.192,"note":59,"dur":0.162,"vel":1.0,"inst":"tuba_v0_struck_284","midi_source":""},{"t":301.192,"note":62,"dur":0.162,"vel":1.0,"inst":"harp_v0_bowed_168","midi_source":""},{"t":301.354,"note":28,"dur":0.162,"vel":1.0,"inst":"harp_v0_bowed_168","midi_source":""},{"t":301.354,"note":40,"dur":0.162,"vel":1.0,"inst":"harp_v0_bowed_168","midi_source":""},{"t":301.354,"note":59,"dur":0.325,"vel":1.0,"inst":"tuba_v0_struck_284","midi_source":""},{"t":301.354,"note":62,"dur":0.325,"vel":1.0,"inst":"harp_v0_bowed_168","midi_source":""},{"t":301.517,"note":40,"dur":0.162,"vel":1.0,"inst":"harp_v0_bowed_168","midi_source":""},{"t":301.517,"note":43,"dur":0.162,"vel":1.0,"inst":"tuba_v0_struck_284","midi_source":""},{"t":301.517,"note":47,"dur":0.162,"vel":1.0,"inst":"tuba_v0_struck_284","midi_source":""},{"t":301.679,"note":40,"dur":0.162,"vel":1.0,"inst":"harp_v0_bowed_168","midi_source":""},{"t":301.679,"note":43,"dur":0.162,"vel":1.0,"inst":"tuba_v0_struck_284","midi_source":""},{"t":301.679,"note":47,"dur":0.162,"vel":1.0,"inst":"tuba_v0_struck_284","midi_source":""},{"t":301.679,"note":59,"dur":0.162,"vel":1.0,"inst":"tuba_v0_struck_284","midi_source":""},{"t":301.679,"note":62,"dur":0.162,"vel":1.0,"inst":"harp_v0_bowed_168","midi_source":""},{"t":301.841,"note":28,"dur":0.162,"vel":1.0,"inst":"harp_v0_bowed_168","midi_source":""},{"t":301.841,"note":40,"dur":0.162,"vel":1.0,"inst":"harp_v0_bowed_168","midi_source":""},{"t":301.841,"note":64,"dur":0.162,"vel":1.0,"inst":"harp_v0_bowed_168","midi_source":""},{"t":301.841,"note":67,"dur":0.162,"vel":1.0,"inst":"tuba_v0_struck_284","midi_source":""},{"t":302.004,"note":40,"dur":0.162,"vel":1.0,"inst":"harp_v0_bowed_168","midi_source":""},{"t":302.004,"note":43,"dur":0.162,"vel":1.0,"inst":"tuba_v0_struck_284","midi_source":""},{"t":302.004,"note":47,"dur":0.162,"vel":1.0,"inst":"tuba_v0_struck_284","midi_source":""},{"t":302.004,"note":62,"dur":0.162,"vel":1.0,"inst":"harp_v0_bowed_168","midi_source":""},{"t":302.004,"note":55,"dur":0.162,"vel":1.0,"inst":"tuba_v0_struck_284","midi_source":""},{"t":302.166,"note":40,"dur":0.162,"vel":1.0,"inst":"harp_v0_bowed_168","midi_source":""},{"t":302.166,"note":43,"dur":0.162,"vel":1.0,"inst":"tuba_v0_struck_284","midi_source":""},{"t":302.166,"note":47,"dur":0.162,"vel":1.0,"inst":"tuba_v0_struck_284","midi_source":""},{"t":302.166,"note":60,"dur":0.162,"vel":1.0,"inst":"harp_v0_bowed_168","midi_source":""},{"t":302.166,"note":64,"dur":0.162,"vel":1.0,"inst":"harp_v0_bowed_168","midi_source":""},{"t":302.329,"note":28,"dur":0.162,"vel":1.0,"inst":"harp_v0_bowed_168","midi_source":""},{"t":302.329,"note":40,"dur":0.162,"vel":1.0,"inst":"harp_v0_bowed_168","midi_source":""},{"t":302.329,"note":59,"dur":0.162,"vel":1.0,"inst":"tuba_v0_struck_284","midi_source":""},{"t":302.329,"note":62,"dur":0.162,"vel":1.0,"inst":"harp_v0_bowed_168","midi_source":""},{"t":302.491,"note":40,"dur":0.162,"vel":1.0,"inst":"harp_v0_bowed_168","midi_source":""},{"t":302.491,"note":43,"dur":0.162,"vel":1.0,"inst":"tuba_v0_struck_284","midi_source":""},{"t":302.491,"note":47,"dur":0.162,"vel":1.0,"inst":"tuba_v0_struck_284","midi_source":""},{"t":302.491,"note":57,"dur":0.162,"vel":1.0,"inst":"tuba_v0_struck_284","midi_source":""},{"t":302.491,"note":60,"dur":0.162,"vel":1.0,"inst":"harp_v0_bowed_168","midi_source":""},{"t":302.653,"note":40,"dur":0.162,"vel":1.0,"inst":"harp_v0_bowed_168","midi_source":""},{"t":302.653,"note":43,"dur":0.162,"vel":1.0,"inst":"tuba_v0_struck_284","midi_source":""},{"t":302.653,"note":47,"dur":0.162,"vel":1.0,"inst":"tuba_v0_struck_284","midi_source":""},{"t":302.653,"note":55,"dur":0.162,"vel":1.0,"inst":"tuba_v0_struck_284","midi_source":""},{"t":302.653,"note":59,"dur":0.162,"vel":1.0,"inst":"tuba_v0_struck_284","midi_source":""},{"t":302.816,"note":33,"dur":0.162,"vel":1.0,"inst":"tuba_v0_struck_284","midi_source":""},{"t":302.816,"note":57,"dur":0.487,"vel":1.0,"inst":"tuba_v0_struck_284","midi_source":""},{"t":302.978,"note":48,"dur":0.162,"vel":1.0,"inst":"harp_v0_bowed_168","midi_source":""},{"t":302.978,"note":52,"dur":0.162,"vel":1.0,"inst":"harp_v0_bowed_168","midi_source":""},{"t":303.141,"note":48,"dur":0.162,"vel":1.0,"inst":"harp_v0_bowed_168","midi_source":""},{"t":303.141,"note":52,"dur":0.162,"vel":1.0,"inst":"harp_v0_bowed_168","midi_source":""},{"t":303.303,"note":45,"dur":0.162,"vel":1.0,"inst":"tuba_v0_struck_284","midi_source":""},{"t":303.303,"note":69,"dur":0.081,"vel":1.0,"inst":"tuba_v0_struck_284","midi_source":""},{"t":303.384,"note":71,"dur":0.081,"vel":1.0,"inst":"tuba_v0_struck_284","midi_source":""},{"t":303.465,"note":48,"dur":0.162,"vel":1.0,"inst":"harp_v0_bowed_168","midi_source":""},{"t":303.465,"note":52,"dur":0.162,"vel":1.0,"inst":"harp_v0_bowed_168","midi_source":""},{"t":303.465,"note":57,"dur":0.162,"vel":1.0,"inst":"tuba_v0_struck_284","midi_source":""},{"t":303.465,"note":72,"dur":0.162,"vel":1.0,"inst":"harp_v0_bowed_168","midi_source":""},{"t":303.628,"note":48,"dur":0.162,"vel":1.0,"inst":"harp_v0_bowed_168","midi_source":""},{"t":303.628,"note":52,"dur":0.162,"vel":1.0,"inst":"harp_v0_bowed_168","midi_source":""},{"t":303.628,"note":57,"dur":0.162,"vel":1.0,"inst":"tuba_v0_struck_284","midi_source":""},{"t":303.628,"note":74,"dur":0.162,"vel":1.0,"inst":"harp_v0_bowed_168","midi_source":""},{"t":303.79,"note":45,"dur":0.162,"vel":1.0,"inst":"tuba_v0_struck_284","midi_source":""},{"t":303.79,"note":76,"dur":0.325,"vel":1.0,"inst":"harp_v0_bowed_168","midi_source":""},{"t":303.953,"note":48,"dur":0.162,"vel":1.0,"inst":"harp_v0_bowed_168","midi_source":""},{"t":303.953,"note":52,"dur":0.162,"vel":1.0,"inst":"harp_v0_bowed_168","midi_source":""},{"t":303.953,"note":57,"dur":0.162,"vel":1.0,"inst":"tuba_v0_struck_284","midi_source":""},{"t":304.115,"note":48,"dur":0.162,"vel":1.0,"inst":"harp_v0_bowed_168","midi_source":""},{"t":304.115,"note":52,"dur":0.162,"vel":1.0,"inst":"harp_v0_bowed_168","midi_source":""},{"t":304.115,"note":57,"dur":0.162,"vel":1.0,"inst":"tuba_v0_struck_284","midi_source":""},{"t":304.115,"note":77,"dur":0.162,"vel":1.0,"inst":"tuba_v0_struck_284","midi_source":""},{"t":304.277,"note":45,"dur":0.162,"vel":1.0,"inst":"tuba_v0_struck_284","midi_source":""},{"t":304.277,"note":77,"dur":0.081,"vel":1.0,"inst":"tuba_v0_struck_284","midi_source":""},{"t":304.277,"note":79,"dur":0.081,"vel":1.0,"inst":"tuba_v0_struck_284","midi_source":""},{"t":304.359,"note":76,"dur":0.081,"vel":1.0,"inst":"harp_v0_bowed_168","midi_source":""},{"t":304.44,"note":48,"dur":0.162,"vel":1.0,"inst":"harp_v0_bowed_168","midi_source":""},{"t":304.44,"note":52,"dur":0.162,"vel":1.0,"inst":"harp_v0_bowed_168","midi_source":""},{"t":304.44,"note":57,"dur":0.162,"vel":1.0,"inst":"tuba_v0_struck_284","midi_source":""},{"t":304.44,"note":76,"dur":0.162,"vel":1.0,"inst":"harp_v0_bowed_168","midi_source":""},{"t":304.602,"note":48,"dur":0.162,"vel":1.0,"inst":"harp_v0_bowed_168","midi_source":""},{"t":304.602,"note":52,"dur":0.162,"vel":1.0,"inst":"harp_v0_bowed_168","midi_source":""},{"t":304.602,"note":57,"dur":0.162,"vel":1.0,"inst":"tuba_v0_struck_284","midi_source":""},{"t":304.602,"note":81,"dur":0.162,"vel":1.0,"inst":"tuba_v0_struck_284","midi_source":""},{"t":304.764,"note":45,"dur":0.162,"vel":1.0,"inst":"tuba_v0_struck_284","midi_source":""},{"t":304.764,"note":76,"dur":0.325,"vel":1.0,"inst":"harp_v0_bowed_168","midi_source":""},{"t":304.927,"note":48,"dur":0.162,"vel":1.0,"inst":"harp_v0_bowed_168","midi_source":""},{"t":304.927,"note":52,"dur":0.162,"vel":1.0,"inst":"harp_v0_bowed_168","midi_source":""},{"t":304.927,"note":57,"dur":0.162,"vel":1.0,"inst":"tuba_v0_struck_284","midi_source":""},{"t":305.089,"note":48,"dur":0.162,"vel":1.0,"inst":"harp_v0_bowed_168","midi_source":""},{"t":305.089,"note":52,"dur":0.162,"vel":1.0,"inst":"harp_v0_bowed_168","midi_source":""},{"t":305.089,"note":57,"dur":0.162,"vel":1.0,"inst":"tuba_v0_struck_284","midi_source":""},{"t":305.089,"note":69,"dur":0.162,"vel":1.0,"inst":"tuba_v0_struck_284","midi_source":""},{"t":305.252,"note":40,"dur":0.162,"vel":1.0,"inst":"harp_v0_bowed_168","midi_source":""},{"t":305.252,"note":71,"dur":0.081,"vel":1.0,"inst":"tuba_v0_struck_284","midi_source":""},{"t":305.333,"note":76,"dur":0.081,"vel":1.0,"inst":"harp_v0_bowed_168","midi_source":""},{"t":305.414,"note":47,"dur":0.162,"vel":1.0,"inst":"tuba_v0_struck_284","midi_source":""},{"t":305.414,"note":52,"dur":0.162,"vel":1.0,"inst":"harp_v0_bowed_168","midi_source":""},{"t":305.414,"note":55,"dur":0.162,"vel":1.0,"inst":"tuba_v0_struck_284","midi_source":""},{"t":305.414,"note":76,"dur":0.162,"vel":1.0,"inst":"harp_v0_bowed_168","midi_source":""},{"t":305.576,"note":47,"dur":0.162,"vel":1.0,"inst":"tuba_v0_struck_284","midi_source":""},{"t":305.576,"note":52,"dur":0.162,"vel":1.0,"inst":"harp_v0_bowed_168","midi_source":""},{"t":305.576,"note":55,"dur":0.162,"vel":1.0,"inst":"tuba_v0_struck_284","midi_source":""},{"t":305.576,"note":71,"dur":0.162,"vel":1.0,"inst":"tuba_v0_struck_284","midi_source":""},{"t":305.739,"note":45,"dur":0.162,"vel":1.0,"inst":"tuba_v0_struck_284","midi_source":""},{"t":305.739,"note":72,"dur":0.325,"vel":1.0,"inst":"harp_v0_bowed_168","midi_source":""},{"t":305.901,"note":48,"dur":0.162,"vel":1.0,"inst":"harp_v0_bowed_168","midi_source":""},{"t":305.901,"note":52,"dur":0.162,"vel":1.0,"inst":"harp_v0_bowed_168","midi_source":""},{"t":305.901,"note":57,"dur":0.162,"vel":1.0,"inst":"tuba_v0_struck_284","midi_source":""},{"t":306.064,"note":48,"dur":0.162,"vel":1.0,"inst":"harp_v0_bowed_168","midi_source":""},{"t":306.064,"note":52,"dur":0.162,"vel":1.0,"inst":"harp_v0_bowed_168","midi_source":""},{"t":306.064,"note":57,"dur":0.162,"vel":1.0,"inst":"tuba_v0_struck_284","midi_source":""},{"t":306.064,"note":69,"dur":0.162,"vel":1.0,"inst":"tuba_v0_struck_284","midi_source":""},{"t":306.226,"note":40,"dur":0.162,"vel":1.0,"inst":"harp_v0_bowed_168","midi_source":""},{"t":306.226,"note":71,"dur":0.081,"vel":1.0,"inst":"tuba_v0_struck_284","midi_source":""},{"t":306.307,"note":76,"dur":0.081,"vel":1.0,"inst":"harp_v0_bowed_168","midi_source":""},{"t":306.388,"note":47,"dur":0.162,"vel":1.0,"inst":"tuba_v0_struck_284","midi_source":""},{"t":306.388,"note":52,"dur":0.162,"vel":1.0,"inst":"harp_v0_bowed_168","midi_source":""},{"t":306.388,"note":55,"dur":0.162,"vel":1.0,"inst":"tuba_v0_struck_284","midi_source":""},{"t":306.388,"note":76,"dur":0.162,"vel":1.0,"inst":"harp_v0_bowed_168","midi_source":""},{"t":306.551,"note":47,"dur":0.162,"vel":1.0,"inst":"tuba_v0_struck_284","midi_source":""},{"t":306.551,"note":52,"dur":0.162,"vel":1.0,"inst":"harp_v0_bowed_168","midi_source":""},{"t":306.551,"note":55,"dur":0.162,"vel":1.0,"inst":"tuba_v0_struck_284","midi_source":""},{"t":306.551,"note":67,"dur":0.162,"vel":1.0,"inst":"tuba_v0_struck_284","midi_source":""},{"t":306.713,"note":45,"dur":0.487,"vel":1.0,"inst":"tuba_v0_struck_284","midi_source":""},{"t":306.713,"note":48,"dur":0.487,"vel":1.0,"inst":"harp_v0_bowed_168","midi_source":""},{"t":306.713,"note":52,"dur":0.487,"vel":1.0,"inst":"harp_v0_bowed_168","midi_source":""},{"t":306.713,"note":57,"dur":0.487,"vel":1.0,"inst":"tuba_v0_struck_284","midi_source":""},{"t":306.713,"note":69,"dur":0.325,"vel":1.0,"inst":"tuba_v0_struck_284","midi_source":""},{"t":307.119,"note":76,"dur":0.081,"vel":1.0,"inst":"harp_v0_bowed_168","midi_source":""},{"t":307.119,"note":67,"dur":0.081,"vel":1.0,"inst":"tuba_v0_struck_284","midi_source":""},{"t":307.119,"note":79,"dur":0.081,"vel":1.0,"inst":"tuba_v0_struck_284","midi_source":""},{"t":307.2,"note":33,"dur":0.162,"vel":1.0,"inst":"tuba_v0_struck_284","midi_source":""},{"t":307.2,"note":40,"dur":0.162,"vel":1.0,"inst":"harp_v0_bowed_168","midi_source":""},{"t":307.2,"note":45,"dur":0.162,"vel":1.0,"inst":"tuba_v0_struck_284","midi_source":""},{"t":307.2,"note":81,"dur":0.081,"vel":1.0,"inst":"tuba_v0_struck_284","midi_source":""},{"t":307.282,"note":79,"dur":0.081,"vel":1.0,"inst":"tuba_v0_struck_284","midi_source":""},{"t":307.363,"note":48,"dur":0.162,"vel":1.0,"inst":"harp_v0_bowed_168","midi_source":""},{"t":307.363,"note":52,"dur":0.162,"vel":1.0,"inst":"harp_v0_bowed_168","midi_source":""},{"t":307.363,"note":77,"dur":0.081,"vel":1.0,"inst":"tuba_v0_struck_284","midi_source":""},{"t":307.444,"note":76,"dur":0.081,"vel":1.0,"inst":"harp_v0_bowed_168","midi_source":""},{"t":307.525,"note":45,"dur":0.162,"vel":1.0,"inst":"tuba_v0_struck_284","midi_source":""},{"t":307.525,"note":48,"dur":0.162,"vel":1.0,"inst":"harp_v0_bowed_168","midi_source":""},{"t":307.525,"note":74,"dur":0.081,"vel":1.0,"inst":"harp_v0_bowed_168","midi_source":""},{"t":307.606,"note":72,"dur":0.081,"vel":1.0,"inst":"harp_v0_bowed_168","midi_source":""},{"t":307.688,"note":28,"dur":0.162,"vel":1.0,"inst":"harp_v0_bowed_168","midi_source":""},{"t":307.688,"note":35,"dur":0.162,"vel":1.0,"inst":"tuba_v0_struck_284","midi_source":""},{"t":307.688,"note":40,"dur":0.162,"vel":1.0,"inst":"harp_v0_bowed_168","midi_source":""},{"t":307.688,"note":77,"dur":0.162,"vel":1.0,"inst":"tuba_v0_struck_284","midi_source":""},{"t":307.85,"note":47,"dur":0.162,"vel":1.0,"inst":"tuba_v0_struck_284","midi_source":""},{"t":307.85,"note":50,"dur":0.162,"vel":1.0,"inst":"harp_v0_bowed_168","midi_source":""},{"t":307.85,"note":76,"dur":0.081,"vel":1.0,"inst":"harp_v0_bowed_168","midi_source":""},{"t":307.931,"note":74,"dur":0.081,"vel":1.0,"inst":"harp_v0_bowed_168","midi_source":""},{"t":308.012,"note":43,"dur":0.162,"vel":1.0,"inst":"tuba_v0_struck_284","midi_source":""},{"t":308.012,"note":47,"dur":0.162,"vel":1.0,"inst":"tuba_v0_struck_284","midi_source":""},{"t":308.012,"note":72,"dur":0.081,"vel":1.0,"inst":"harp_v0_bowed_168","midi_source":""},{"t":308.094,"note":71,"dur":0.081,"vel":1.0,"inst":"tuba_v0_struck_284","midi_source":""},{"t":308.175,"note":28,"dur":0.162,"vel":1.0,"inst":"harp_v0_bowed_168","midi_source":""},{"t":308.175,"note":35,"dur":0.162,"vel":1.0,"inst":"tuba_v0_struck_284","midi_source":""},{"t":308.175,"note":40,"dur":0.162,"vel":1.0,"inst":"harp_v0_bowed_168","midi_source":""},{"t":308.175,"note":77,"dur":0.162,"vel":1.0,"inst":"tuba_v0_struck_284","midi_source":""},{"t":308.337,"note":47,"dur":0.162,"vel":1.0,"inst":"tuba_v0_struck_284","midi_source":""},{"t":308.337,"note":50,"dur":0.162,"vel":1.0,"inst":"harp_v0_bowed_168","midi_source":""},{"t":308.337,"note":76,"dur":0.081,"vel":1.0,"inst":"harp_v0_bowed_168","midi_source":""},{"t":308.418,"note":74,"dur":0.081,"vel":1.0,"inst":"harp_v0_bowed_168","midi_source":""},{"t":308.5,"note":43,"dur":0.162,"vel":1.0,"inst":"tuba_v0_struck_284","midi_source":""},{"t":308.5,"note":47,"dur":0.162,"vel":1.0,"inst":"tuba_v0_struck_284","midi_source":""},{"t":308.5,"note":72,"dur":0.081,"vel":1.0,"inst":"harp_v0_bowed_168","midi_source":""},{"t":308.662,"note":28,"dur":0.162,"vel":1.0,"inst":"harp_v0_bowed_168","midi_source":""},{"t":308.662,"note":40,"dur":0.162,"vel":1.0,"inst":"harp_v0_bowed_168","midi_source":""},{"t":308.662,"note":59,"dur":0.325,"vel":1.0,"inst":"tuba_v0_struck_284","midi_source":""},{"t":308.662,"note":62,"dur":0.325,"vel":1.0,"inst":"harp_v0_bowed_168","midi_source":""},{"t":308.824,"note":40,"dur":0.162,"vel":1.0,"inst":"harp_v0_bowed_168","midi_source":""},{"t":308.824,"note":43,"dur":0.162,"vel":1.0,"inst":"tuba_v0_struck_284","midi_source":""},{"t":308.824,"note":47,"dur":0.162,"vel":1.0,"inst":"tuba_v0_struck_284","midi_source":""},{"t":308.987,"note":40,"dur":0.162,"vel":1.0,"inst":"harp_v0_bowed_168","midi_source":""},{"t":308.987,"note":43,"dur":0.162,"vel":1.0,"inst":"tuba_v0_struck_284","midi_source":""},{"t":308.987,"note":47,"dur":0.162,"vel":1.0,"inst":"tuba_v0_struck_284","midi_source":""},{"t":308.987,"note":59,"dur":0.162,"vel":1.0,"inst":"tuba_v0_struck_284","midi_source":""},{"t":308.987,"note":62,"dur":0.162,"vel":1.0,"inst":"harp_v0_bowed_168","midi_source":""},{"t":309.149,"note":28,"dur":0.162,"vel":1.0,"inst":"harp_v0_bowed_168","midi_source":""},{"t":309.149,"note":40,"dur":0.162,"vel":1.0,"inst":"harp_v0_bowed_168","midi_source":""},{"t":309.149,"note":59,"dur":0.325,"vel":1.0,"inst":"tuba_v0_struck_284","midi_source":""},{"t":309.149,"note":62,"dur":0.325,"vel":1.0,"inst":"harp_v0_bowed_168","midi_source":""},{"t":309.312,"note":40,"dur":0.162,"vel":1.0,"inst":"harp_v0_bowed_168","midi_source":""},{"t":309.312,"note":43,"dur":0.162,"vel":1.0,"inst":"tuba_v0_struck_284","midi_source":""},{"t":309.312,"note":47,"dur":0.162,"vel":1.0,"inst":"tuba_v0_struck_284","midi_source":""},{"t":309.474,"note":40,"dur":0.162,"vel":1.0,"inst":"harp_v0_bowed_168","midi_source":""},{"t":309.474,"note":43,"dur":0.162,"vel":1.0,"inst":"tuba_v0_struck_284","midi_source":""},{"t":309.474,"note":47,"dur":0.162,"vel":1.0,"inst":"tuba_v0_struck_284","midi_source":""},{"t":309.474,"note":59,"dur":0.162,"vel":1.0,"inst":"tuba_v0_struck_284","midi_source":""},{"t":309.474,"note":62,"dur":0.162,"vel":1.0,"inst":"harp_v0_bowed_168","midi_source":""},{"t":309.636,"note":28,"dur":0.162,"vel":1.0,"inst":"harp_v0_bowed_168","midi_source":""},{"t":309.636,"note":40,"dur":0.162,"vel":1.0,"inst":"harp_v0_bowed_168","midi_source":""},{"t":309.636,"note":64,"dur":0.162,"vel":1.0,"inst":"harp_v0_bowed_168","midi_source":""},{"t":309.636,"note":67,"dur":0.162,"vel":1.0,"inst":"tuba_v0_struck_284","midi_source":""},{"t":309.799,"note":40,"dur":0.162,"vel":1.0,"inst":"harp_v0_bowed_168","midi_source":""},{"t":309.799,"note":43,"dur":0.162,"vel":1.0,"inst":"tuba_v0_struck_284","midi_source":""},{"t":309.799,"note":47,"dur":0.162,"vel":1.0,"inst":"tuba_v0_struck_284","midi_source":""},{"t":309.799,"note":62,"dur":0.162,"vel":1.0,"inst":"harp_v0_bowed_168","midi_source":""},{"t":309.799,"note":55,"dur":0.162,"vel":1.0,"inst":"tuba_v0_struck_284","midi_source":""},{"t":309.961,"note":40,"dur":0.162,"vel":1.0,"inst":"harp_v0_bowed_168","midi_source":""},{"t":309.961,"note":43,"dur":0.162,"vel":1.0,"inst":"tuba_v0_struck_284","midi_source":""},{"t":309.961,"note":47,"dur":0.162,"vel":1.0,"inst":"tuba_v0_struck_284","midi_source":""},{"t":309.961,"note":60,"dur":0.162,"vel":1.0,"inst":"harp_v0_bowed_168","midi_source":""},{"t":309.961,"note":64,"dur":0.162,"vel":1.0,"inst":"harp_v0_bowed_168","midi_source":""},{"t":310.124,"note":28,"dur":0.162,"vel":1.0,"inst":"harp_v0_bowed_168","midi_source":""},{"t":310.124,"note":40,"dur":0.162,"vel":1.0,"inst":"harp_v0_bowed_168","midi_source":""},{"t":310.124,"note":59,"dur":0.162,"vel":1.0,"inst":"tuba_v0_struck_284","midi_source":""},{"t":310.124,"note":62,"dur":0.162,"vel":1.0,"inst":"harp_v0_bowed_168","midi_source":""},{"t":310.286,"note":40,"dur":0.162,"vel":1.0,"inst":"harp_v0_bowed_168","midi_source":""},{"t":310.286,"note":43,"dur":0.162,"vel":1.0,"inst":"tuba_v0_struck_284","midi_source":""},{"t":310.286,"note":47,"dur":0.162,"vel":1.0,"inst":"tuba_v0_struck_284","midi_source":""},{"t":310.286,"note":57,"dur":0.162,"vel":1.0,"inst":"tuba_v0_struck_284","midi_source":""},{"t":310.286,"note":60,"dur":0.162,"vel":1.0,"inst":"harp_v0_bowed_168","midi_source":""},{"t":310.448,"note":40,"dur":0.162,"vel":1.0,"inst":"harp_v0_bowed_168","midi_source":""},{"t":310.448,"note":43,"dur":0.162,"vel":1.0,"inst":"tuba_v0_struck_284","midi_source":""},{"t":310.448,"note":47,"dur":0.162,"vel":1.0,"inst":"tuba_v0_struck_284","midi_source":""},{"t":310.448,"note":55,"dur":0.162,"vel":1.0,"inst":"tuba_v0_struck_284","midi_source":""},{"t":310.448,"note":59,"dur":0.162,"vel":1.0,"inst":"tuba_v0_struck_284","midi_source":""},{"t":310.611,"note":33,"dur":0.162,"vel":1.0,"inst":"tuba_v0_struck_284","midi_source":""},{"t":310.611,"note":57,"dur":0.487,"vel":1.0,"inst":"tuba_v0_struck_284","midi_source":""},{"t":310.773,"note":48,"dur":0.162,"vel":1.0,"inst":"harp_v0_bowed_168","midi_source":""},{"t":310.773,"note":52,"dur":0.162,"vel":1.0,"inst":"harp_v0_bowed_168","midi_source":""},{"t":310.935,"note":48,"dur":0.162,"vel":1.0,"inst":"harp_v0_bowed_168","midi_source":""},{"t":310.935,"note":52,"dur":0.162,"vel":1.0,"inst":"harp_v0_bowed_168","midi_source":""},{"t":311.098,"note":45,"dur":0.162,"vel":1.0,"inst":"tuba_v0_struck_284","midi_source":""},{"t":311.098,"note":69,"dur":0.081,"vel":1.0,"inst":"tuba_v0_struck_284","midi_source":""},{"t":311.179,"note":71,"dur":0.081,"vel":1.0,"inst":"tuba_v0_struck_284","midi_source":""},{"t":311.26,"note":48,"dur":0.162,"vel":1.0,"inst":"harp_v0_bowed_168","midi_source":""},{"t":311.26,"note":52,"dur":0.162,"vel":1.0,"inst":"harp_v0_bowed_168","midi_source":""},{"t":311.26,"note":57,"dur":0.162,"vel":1.0,"inst":"tuba_v0_struck_284","midi_source":""},{"t":311.26,"note":72,"dur":0.162,"vel":1.0,"inst":"harp_v0_bowed_168","midi_source":""},{"t":311.423,"note":48,"dur":0.162,"vel":1.0,"inst":"harp_v0_bowed_168","midi_source":""},{"t":311.423,"note":52,"dur":0.162,"vel":1.0,"inst":"harp_v0_bowed_168","midi_source":""},{"t":311.423,"note":57,"dur":0.162,"vel":1.0,"inst":"tuba_v0_struck_284","midi_source":""},{"t":311.423,"note":74,"dur":0.162,"vel":1.0,"inst":"harp_v0_bowed_168","midi_source":""},{"t":311.585,"note":45,"dur":0.162,"vel":1.0,"inst":"tuba_v0_struck_284","midi_source":""},{"t":311.585,"note":76,"dur":0.325,"vel":1.0,"inst":"harp_v0_bowed_168","midi_source":""},{"t":311.747,"note":48,"dur":0.162,"vel":1.0,"inst":"harp_v0_bowed_168","midi_source":""},{"t":311.747,"note":52,"dur":0.162,"vel":1.0,"inst":"harp_v0_bowed_168","midi_source":""},{"t":311.747,"note":57,"dur":0.162,"vel":1.0,"inst":"tuba_v0_struck_284","midi_source":""},{"t":311.91,"note":48,"dur":0.162,"vel":1.0,"inst":"harp_v0_bowed_168","midi_source":""},{"t":311.91,"note":52,"dur":0.162,"vel":1.0,"inst":"harp_v0_bowed_168","midi_source":""},{"t":311.91,"note":57,"dur":0.162,"vel":1.0,"inst":"tuba_v0_struck_284","midi_source":""},{"t":311.91,"note":77,"dur":0.162,"vel":1.0,"inst":"tuba_v0_struck_284","midi_source":""},{"t":312.072,"note":45,"dur":0.162,"vel":1.0,"inst":"tuba_v0_struck_284","midi_source":""},{"t":312.072,"note":77,"dur":0.081,"vel":1.0,"inst":"tuba_v0_struck_284","midi_source":""},{"t":312.072,"note":79,"dur":0.081,"vel":1.0,"inst":"tuba_v0_struck_284","midi_source":""},{"t":312.153,"note":76,"dur":0.081,"vel":1.0,"inst":"harp_v0_bowed_168","midi_source":""},{"t":312.235,"note":48,"dur":0.162,"vel":1.0,"inst":"harp_v0_bowed_168","midi_source":""},{"t":312.235,"note":52,"dur":0.162,"vel":1.0,"inst":"harp_v0_bowed_168","midi_source":""},{"t":312.235,"note":57,"dur":0.162,"vel":1.0,"inst":"tuba_v0_struck_284","midi_source":""},{"t":312.235,"note":76,"dur":0.162,"vel":1.0,"inst":"harp_v0_bowed_168","midi_source":""},{"t":312.397,"note":48,"dur":0.162,"vel":1.0,"inst":"harp_v0_bowed_168","midi_source":""},{"t":312.397,"note":52,"dur":0.162,"vel":1.0,"inst":"harp_v0_bowed_168","midi_source":""},{"t":312.397,"note":57,"dur":0.162,"vel":1.0,"inst":"tuba_v0_struck_284","midi_source":""},{"t":312.397,"note":81,"dur":0.162,"vel":1.0,"inst":"tuba_v0_struck_284","midi_source":""},{"t":312.559,"note":45,"dur":0.162,"vel":1.0,"inst":"tuba_v0_struck_284","midi_source":""},{"t":312.559,"note":76,"dur":0.325,"vel":1.0,"inst":"harp_v0_bowed_168","midi_source":""},{"t":312.722,"note":48,"dur":0.162,"vel":1.0,"inst":"harp_v0_bowed_168","midi_source":""},{"t":312.722,"note":52,"dur":0.162,"vel":1.0,"inst":"harp_v0_bowed_168","midi_source":""},{"t":312.722,"note":57,"dur":0.162,"vel":1.0,"inst":"tuba_v0_struck_284","midi_source":""},{"t":312.884,"note":48,"dur":0.162,"vel":1.0,"inst":"harp_v0_bowed_168","midi_source":""},{"t":312.884,"note":52,"dur":0.162,"vel":1.0,"inst":"harp_v0_bowed_168","midi_source":""},{"t":312.884,"note":57,"dur":0.162,"vel":1.0,"inst":"tuba_v0_struck_284","midi_source":""},{"t":312.884,"note":69,"dur":0.162,"vel":1.0,"inst":"tuba_v0_struck_284","midi_source":""},{"t":313.047,"note":40,"dur":0.162,"vel":1.0,"inst":"harp_v0_bowed_168","midi_source":""},{"t":313.047,"note":71,"dur":0.081,"vel":1.0,"inst":"tuba_v0_struck_284","midi_source":""},{"t":313.128,"note":76,"dur":0.081,"vel":1.0,"inst":"harp_v0_bowed_168","midi_source":""},{"t":313.209,"note":47,"dur":0.162,"vel":1.0,"inst":"tuba_v0_struck_284","midi_source":""},{"t":313.209,"note":52,"dur":0.162,"vel":1.0,"inst":"harp_v0_bowed_168","midi_source":""},{"t":313.209,"note":55,"dur":0.162,"vel":1.0,"inst":"tuba_v0_struck_284","midi_source":""},{"t":313.209,"note":76,"dur":0.162,"vel":1.0,"inst":"harp_v0_bowed_168","midi_source":""},{"t":313.371,"note":47,"dur":0.162,"vel":1.0,"inst":"tuba_v0_struck_284","midi_source":""},{"t":313.371,"note":52,"dur":0.162,"vel":1.0,"inst":"harp_v0_bowed_168","midi_source":""},{"t":313.371,"note":55,"dur":0.162,"vel":1.0,"inst":"tuba_v0_struck_284","midi_source":""},{"t":313.371,"note":71,"dur":0.162,"vel":1.0,"inst":"tuba_v0_struck_284","midi_source":""},{"t":313.534,"note":45,"dur":0.162,"vel":1.0,"inst":"tuba_v0_struck_284","midi_source":""},{"t":313.534,"note":72,"dur":0.325,"vel":1.0,"inst":"harp_v0_bowed_168","midi_source":""},{"t":313.696,"note":48,"dur":0.162,"vel":1.0,"inst":"harp_v0_bowed_168","midi_source":""},{"t":313.696,"note":52,"dur":0.162,"vel":1.0,"inst":"harp_v0_bowed_168","midi_source":""},{"t":313.696,"note":57,"dur":0.162,"vel":1.0,"inst":"tuba_v0_struck_284","midi_source":""},{"t":313.859,"note":48,"dur":0.162,"vel":1.0,"inst":"harp_v0_bowed_168","midi_source":""},{"t":313.859,"note":52,"dur":0.162,"vel":1.0,"inst":"harp_v0_bowed_168","midi_source":""},{"t":313.859,"note":57,"dur":0.162,"vel":1.0,"inst":"tuba_v0_struck_284","midi_source":""},{"t":313.859,"note":69,"dur":0.162,"vel":1.0,"inst":"tuba_v0_struck_284","midi_source":""},{"t":314.021,"note":40,"dur":0.162,"vel":1.0,"inst":"harp_v0_bowed_168","midi_source":""},{"t":314.021,"note":71,"dur":0.081,"vel":1.0,"inst":"tuba_v0_struck_284","midi_source":""},{"t":314.102,"note":76,"dur":0.081,"vel":1.0,"inst":"harp_v0_bowed_168","midi_source":""},{"t":314.183,"note":47,"dur":0.162,"vel":1.0,"inst":"tuba_v0_struck_284","midi_source":""},{"t":314.183,"note":52,"dur":0.162,"vel":1.0,"inst":"harp_v0_bowed_168","midi_source":""},{"t":314.183,"note":55,"dur":0.162,"vel":1.0,"inst":"tuba_v0_struck_284","midi_source":""},{"t":314.183,"note":76,"dur":0.162,"vel":1.0,"inst":"harp_v0_bowed_168","midi_source":""},{"t":314.346,"note":47,"dur":0.162,"vel":1.0,"inst":"tuba_v0_struck_284","midi_source":""},{"t":314.346,"note":52,"dur":0.162,"vel":1.0,"inst":"harp_v0_bowed_168","midi_source":""},{"t":314.346,"note":55,"dur":0.162,"vel":1.0,"inst":"tuba_v0_struck_284","midi_source":""},{"t":314.346,"note":67,"dur":0.162,"vel":1.0,"inst":"tuba_v0_struck_284","midi_source":""},{"t":314.508,"note":45,"dur":0.487,"vel":1.0,"inst":"tuba_v0_struck_284","midi_source":""},{"t":314.508,"note":48,"dur":0.487,"vel":1.0,"inst":"harp_v0_bowed_168","midi_source":""},{"t":314.508,"note":52,"dur":0.487,"vel":1.0,"inst":"harp_v0_bowed_168","midi_source":""},{"t":314.508,"note":57,"dur":0.487,"vel":1.0,"inst":"tuba_v0_struck_284","midi_source":""},{"t":314.508,"note":69,"dur":0.325,"vel":1.0,"inst":"tuba_v0_struck_284","midi_source":""},{"t":314.914,"note":76,"dur":0.081,"vel":1.0,"inst":"harp_v0_bowed_168","midi_source":""},{"t":314.914,"note":67,"dur":0.081,"vel":1.0,"inst":"tuba_v0_struck_284","midi_source":""},{"t":314.914,"note":79,"dur":0.081,"vel":1.0,"inst":"tuba_v0_struck_284","midi_source":""},{"t":314.995,"note":33,"dur":0.162,"vel":1.0,"inst":"tuba_v0_struck_284","midi_source":""},{"t":314.995,"note":40,"dur":0.162,"vel":1.0,"inst":"harp_v0_bowed_168","midi_source":""},{"t":314.995,"note":45,"dur":0.162,"vel":1.0,"inst":"tuba_v0_struck_284","midi_source":""},{"t":314.995,"note":81,"dur":0.081,"vel":1.0,"inst":"tuba_v0_struck_284","midi_source":""},{"t":315.077,"note":79,"dur":0.081,"vel":1.0,"inst":"tuba_v0_struck_284","midi_source":""},{"t":315.158,"note":48,"dur":0.162,"vel":1.0,"inst":"harp_v0_bowed_168","midi_source":""},{"t":315.158,"note":52,"dur":0.162,"vel":1.0,"inst":"harp_v0_bowed_168","midi_source":""},{"t":315.158,"note":77,"dur":0.081,"vel":1.0,"inst":"tuba_v0_struck_284","midi_source":""},{"t":315.239,"note":76,"dur":0.081,"vel":1.0,"inst":"harp_v0_bowed_168","midi_source":""},{"t":315.32,"note":45,"dur":0.162,"vel":1.0,"inst":"tuba_v0_struck_284","midi_source":""},{"t":315.32,"note":48,"dur":0.162,"vel":1.0,"inst":"harp_v0_bowed_168","midi_source":""},{"t":315.32,"note":74,"dur":0.081,"vel":1.0,"inst":"harp_v0_bowed_168","midi_source":""},{"t":315.401,"note":72,"dur":0.081,"vel":1.0,"inst":"harp_v0_bowed_168","midi_source":""},{"t":315.483,"note":28,"dur":0.162,"vel":1.0,"inst":"harp_v0_bowed_168","midi_source":""},{"t":315.483,"note":35,"dur":0.162,"vel":1.0,"inst":"tuba_v0_struck_284","midi_source":""},{"t":315.483,"note":40,"dur":0.162,"vel":1.0,"inst":"harp_v0_bowed_168","midi_source":""},{"t":315.483,"note":77,"dur":0.162,"vel":1.0,"inst":"tuba_v0_struck_284","midi_source":""},{"t":315.645,"note":47,"dur":0.162,"vel":1.0,"inst":"tuba_v0_struck_284","midi_source":""},{"t":315.645,"note":50,"dur":0.162,"vel":1.0,"inst":"harp_v0_bowed_168","midi_source":""},{"t":315.645,"note":76,"dur":0.081,"vel":1.0,"inst":"harp_v0_bowed_168","midi_source":""},{"t":315.726,"note":74,"dur":0.081,"vel":1.0,"inst":"harp_v0_bowed_168","midi_source":""},{"t":315.807,"note":43,"dur":0.162,"vel":1.0,"inst":"tuba_v0_struck_284","midi_source":""},{"t":315.807,"note":47,"dur":0.162,"vel":1.0,"inst":"tuba_v0_struck_284","midi_source":""},{"t":315.807,"note":72,"dur":0.081,"vel":1.0,"inst":"harp_v0_bowed_168","midi_source":""},{"t":315.889,"note":71,"dur":0.081,"vel":1.0,"inst":"tuba_v0_struck_284","midi_source":""},{"t":315.97,"note":28,"dur":0.162,"vel":1.0,"inst":"harp_v0_bowed_168","midi_source":""},{"t":315.97,"note":35,"dur":0.162,"vel":1.0,"inst":"tuba_v0_struck_284","midi_source":""},{"t":315.97,"note":40,"dur":0.162,"vel":1.0,"inst":"harp_v0_bowed_168","midi_source":""},{"t":315.97,"note":77,"dur":0.162,"vel":1.0,"inst":"tuba_v0_struck_284","midi_source":""},{"t":316.132,"note":47,"dur":0.162,"vel":1.0,"inst":"tuba_v0_struck_284","midi_source":""},{"t":316.132,"note":50,"dur":0.162,"vel":1.0,"inst":"harp_v0_bowed_168","midi_source":""},{"t":316.132,"note":76,"dur":0.081,"vel":1.0,"inst":"harp_v0_bowed_168","midi_source":""},{"t":316.213,"note":74,"dur":0.081,"vel":1.0,"inst":"harp_v0_bowed_168","midi_source":""},{"t":316.294,"note":43,"dur":0.162,"vel":1.0,"inst":"tuba_v0_struck_284","midi_source":""},{"t":316.294,"note":47,"dur":0.162,"vel":1.0,"inst":"tuba_v0_struck_284","midi_source":""},{"t":316.294,"note":72,"dur":0.081,"vel":1.0,"inst":"harp_v0_bowed_168","midi_source":""},{"t":316.457,"note":28,"dur":0.162,"vel":1.0,"inst":"harp_v0_bowed_168","midi_source":""},{"t":316.457,"note":40,"dur":0.162,"vel":1.0,"inst":"harp_v0_bowed_168","midi_source":""},{"t":316.457,"note":59,"dur":0.325,"vel":1.0,"inst":"tuba_v0_struck_284","midi_source":""},{"t":316.457,"note":62,"dur":0.325,"vel":1.0,"inst":"harp_v0_bowed_168","midi_source":""},{"t":316.619,"note":40,"dur":0.162,"vel":1.0,"inst":"harp_v0_bowed_168","midi_source":""},{"t":316.619,"note":43,"dur":0.162,"vel":1.0,"inst":"tuba_v0_struck_284","midi_source":""},{"t":316.619,"note":47,"dur":0.162,"vel":1.0,"inst":"tuba_v0_struck_284","midi_source":""},{"t":316.782,"note":40,"dur":0.162,"vel":1.0,"inst":"harp_v0_bowed_168","midi_source":""},{"t":316.782,"note":43,"dur":0.162,"vel":1.0,"inst":"tuba_v0_struck_284","midi_source":""},{"t":316.782,"note":47,"dur":0.162,"vel":1.0,"inst":"tuba_v0_struck_284","midi_source":""},{"t":316.782,"note":59,"dur":0.162,"vel":1.0,"inst":"tuba_v0_struck_284","midi_source":""},{"t":316.782,"note":62,"dur":0.162,"vel":1.0,"inst":"harp_v0_bowed_168","midi_source":""},{"t":316.944,"note":28,"dur":0.162,"vel":1.0,"inst":"harp_v0_bowed_168","midi_source":""},{"t":316.944,"note":40,"dur":0.162,"vel":1.0,"inst":"harp_v0_bowed_168","midi_source":""},{"t":316.944,"note":59,"dur":0.325,"vel":1.0,"inst":"tuba_v0_struck_284","midi_source":""},{"t":316.944,"note":62,"dur":0.325,"vel":1.0,"inst":"harp_v0_bowed_168","midi_source":""},{"t":317.106,"note":40,"dur":0.162,"vel":1.0,"inst":"harp_v0_bowed_168","midi_source":""},{"t":317.106,"note":43,"dur":0.162,"vel":1.0,"inst":"tuba_v0_struck_284","midi_source":""},{"t":317.106,"note":47,"dur":0.162,"vel":1.0,"inst":"tuba_v0_struck_284","midi_source":""},{"t":317.269,"note":40,"dur":0.162,"vel":1.0,"inst":"harp_v0_bowed_168","midi_source":""},{"t":317.269,"note":43,"dur":0.162,"vel":1.0,"inst":"tuba_v0_struck_284","midi_source":""},{"t":317.269,"note":47,"dur":0.162,"vel":1.0,"inst":"tuba_v0_struck_284","midi_source":""},{"t":317.269,"note":59,"dur":0.162,"vel":1.0,"inst":"tuba_v0_struck_284","midi_source":""},{"t":317.269,"note":62,"dur":0.162,"vel":1.0,"inst":"harp_v0_bowed_168","midi_source":""},{"t":317.431,"note":28,"dur":0.162,"vel":1.0,"inst":"harp_v0_bowed_168","midi_source":""},{"t":317.431,"note":40,"dur":0.162,"vel":1.0,"inst":"harp_v0_bowed_168","midi_source":""},{"t":317.431,"note":64,"dur":0.162,"vel":1.0,"inst":"harp_v0_bowed_168","midi_source":""},{"t":317.431,"note":67,"dur":0.162,"vel":1.0,"inst":"tuba_v0_struck_284","midi_source":""},{"t":317.594,"note":40,"dur":0.162,"vel":1.0,"inst":"harp_v0_bowed_168","midi_source":""},{"t":317.594,"note":43,"dur":0.162,"vel":1.0,"inst":"tuba_v0_struck_284","midi_source":""},{"t":317.594,"note":47,"dur":0.162,"vel":1.0,"inst":"tuba_v0_struck_284","midi_source":""},{"t":317.594,"note":62,"dur":0.162,"vel":1.0,"inst":"harp_v0_bowed_168","midi_source":""},{"t":317.594,"note":55,"dur":0.162,"vel":1.0,"inst":"tuba_v0_struck_284","midi_source":""},{"t":317.756,"note":40,"dur":0.162,"vel":1.0,"inst":"harp_v0_bowed_168","midi_source":""},{"t":317.756,"note":43,"dur":0.162,"vel":1.0,"inst":"tuba_v0_struck_284","midi_source":""},{"t":317.756,"note":47,"dur":0.162,"vel":1.0,"inst":"tuba_v0_struck_284","midi_source":""},{"t":317.756,"note":60,"dur":0.162,"vel":1.0,"inst":"harp_v0_bowed_168","midi_source":""},{"t":317.756,"note":64,"dur":0.162,"vel":1.0,"inst":"harp_v0_bowed_168","midi_source":""},{"t":317.918,"note":28,"dur":0.162,"vel":1.0,"inst":"harp_v0_bowed_168","midi_source":""},{"t":317.918,"note":40,"dur":0.162,"vel":1.0,"inst":"harp_v0_bowed_168","midi_source":""},{"t":317.918,"note":59,"dur":0.162,"vel":1.0,"inst":"tuba_v0_struck_284","midi_source":""},{"t":317.918,"note":62,"dur":0.162,"vel":1.0,"inst":"harp_v0_bowed_168","midi_source":""},{"t":318.081,"note":40,"dur":0.162,"vel":1.0,"inst":"harp_v0_bowed_168","midi_source":""},{"t":318.081,"note":43,"dur":0.162,"vel":1.0,"inst":"tuba_v0_struck_284","midi_source":""},{"t":318.081,"note":47,"dur":0.162,"vel":1.0,"inst":"tuba_v0_struck_284","midi_source":""},{"t":318.081,"note":57,"dur":0.162,"vel":1.0,"inst":"tuba_v0_struck_284","midi_source":""},{"t":318.081,"note":60,"dur":0.162,"vel":1.0,"inst":"harp_v0_bowed_168","midi_source":""},{"t":318.243,"note":40,"dur":0.162,"vel":1.0,"inst":"harp_v0_bowed_168","midi_source":""},{"t":318.243,"note":43,"dur":0.162,"vel":1.0,"inst":"tuba_v0_struck_284","midi_source":""},{"t":318.243,"note":47,"dur":0.162,"vel":1.0,"inst":"tuba_v0_struck_284","midi_source":""},{"t":318.243,"note":55,"dur":0.162,"vel":1.0,"inst":"tuba_v0_struck_284","midi_source":""},{"t":318.243,"note":59,"dur":0.162,"vel":1.0,"inst":"tuba_v0_struck_284","midi_source":""},{"t":318.406,"note":33,"dur":0.162,"vel":1.0,"inst":"tuba_v0_struck_284","midi_source":""},{"t":318.406,"note":57,"dur":0.487,"vel":1.0,"inst":"tuba_v0_struck_284","midi_source":""},{"t":318.568,"note":48,"dur":0.162,"vel":1.0,"inst":"harp_v0_bowed_168","midi_source":""},{"t":318.568,"note":52,"dur":0.162,"vel":1.0,"inst":"harp_v0_bowed_168","midi_source":""},{"t":318.73,"note":48,"dur":0.162,"vel":1.0,"inst":"harp_v0_bowed_168","midi_source":""},{"t":318.73,"note":52,"dur":0.162,"vel":1.0,"inst":"harp_v0_bowed_168","midi_source":""},{"t":318.893,"note":45,"dur":0.162,"vel":1.0,"inst":"tuba_v0_struck_284","midi_source":""},{"t":318.893,"note":69,"dur":0.081,"vel":1.0,"inst":"tuba_v0_struck_284","midi_source":""},{"t":318.974,"note":71,"dur":0.081,"vel":1.0,"inst":"tuba_v0_struck_284","midi_source":""},{"t":319.055,"note":48,"dur":0.162,"vel":1.0,"inst":"harp_v0_bowed_168","midi_source":""},{"t":319.055,"note":52,"dur":0.162,"vel":1.0,"inst":"harp_v0_bowed_168","midi_source":""},{"t":319.055,"note":57,"dur":0.162,"vel":1.0,"inst":"tuba_v0_struck_284","midi_source":""},{"t":319.055,"note":72,"dur":0.162,"vel":1.0,"inst":"harp_v0_bowed_168","midi_source":""},{"t":319.218,"note":48,"dur":0.162,"vel":1.0,"inst":"harp_v0_bowed_168","midi_source":""},{"t":319.218,"note":52,"dur":0.162,"vel":1.0,"inst":"harp_v0_bowed_168","midi_source":""},{"t":319.218,"note":57,"dur":0.162,"vel":1.0,"inst":"tuba_v0_struck_284","midi_source":""},{"t":319.218,"note":74,"dur":0.162,"vel":1.0,"inst":"harp_v0_bowed_168","midi_source":""},{"t":319.38,"note":45,"dur":0.162,"vel":1.0,"inst":"tuba_v0_struck_284","midi_source":""},{"t":319.38,"note":76,"dur":0.325,"vel":1.0,"inst":"harp_v0_bowed_168","midi_source":""},{"t":319.542,"note":48,"dur":0.162,"vel":1.0,"inst":"harp_v0_bowed_168","midi_source":""},{"t":319.542,"note":52,"dur":0.162,"vel":1.0,"inst":"harp_v0_bowed_168","midi_source":""},{"t":319.542,"note":57,"dur":0.162,"vel":1.0,"inst":"tuba_v0_struck_284","midi_source":""},{"t":319.705,"note":48,"dur":0.162,"vel":1.0,"inst":"harp_v0_bowed_168","midi_source":""},{"t":319.705,"note":52,"dur":0.162,"vel":1.0,"inst":"harp_v0_bowed_168","midi_source":""},{"t":319.705,"note":57,"dur":0.162,"vel":1.0,"inst":"tuba_v0_struck_284","midi_source":""},{"t":319.705,"note":77,"dur":0.162,"vel":1.0,"inst":"tuba_v0_struck_284","midi_source":""},{"t":319.867,"note":45,"dur":0.162,"vel":1.0,"inst":"tuba_v0_struck_284","midi_source":""},{"t":319.867,"note":77,"dur":0.081,"vel":1.0,"inst":"tuba_v0_struck_284","midi_source":""},{"t":319.867,"note":79,"dur":0.081,"vel":1.0,"inst":"tuba_v0_struck_284","midi_source":""},{"t":319.948,"note":76,"dur":0.081,"vel":1.0,"inst":"harp_v0_bowed_168","midi_source":""},{"t":320.03,"note":48,"dur":0.162,"vel":1.0,"inst":"harp_v0_bowed_168","midi_source":""},{"t":320.03,"note":52,"dur":0.162,"vel":1.0,"inst":"harp_v0_bowed_168","midi_source":""},{"t":320.03,"note":57,"dur":0.162,"vel":1.0,"inst":"tuba_v0_struck_284","midi_source":""},{"t":320.03,"note":76,"dur":0.162,"vel":1.0,"inst":"harp_v0_bowed_168","midi_source":""},{"t":320.192,"note":48,"dur":0.162,"vel":1.0,"inst":"harp_v0_bowed_168","midi_source":""},{"t":320.192,"note":52,"dur":0.162,"vel":1.0,"inst":"harp_v0_bowed_168","midi_source":""},{"t":320.192,"note":57,"dur":0.162,"vel":1.0,"inst":"tuba_v0_struck_284","midi_source":""},{"t":320.192,"note":81,"dur":0.162,"vel":1.0,"inst":"tuba_v0_struck_284","midi_source":""},{"t":320.354,"note":45,"dur":0.162,"vel":1.0,"inst":"tuba_v0_struck_284","midi_source":""},{"t":320.354,"note":76,"dur":0.325,"vel":1.0,"inst":"harp_v0_bowed_168","midi_source":""},{"t":320.517,"note":48,"dur":0.162,"vel":1.0,"inst":"harp_v0_bowed_168","midi_source":""},{"t":320.517,"note":52,"dur":0.162,"vel":1.0,"inst":"harp_v0_bowed_168","midi_source":""},{"t":320.517,"note":57,"dur":0.162,"vel":1.0,"inst":"tuba_v0_struck_284","midi_source":""},{"t":320.679,"note":48,"dur":0.162,"vel":1.0,"inst":"harp_v0_bowed_168","midi_source":""},{"t":320.679,"note":52,"dur":0.162,"vel":1.0,"inst":"harp_v0_bowed_168","midi_source":""},{"t":320.679,"note":57,"dur":0.162,"vel":1.0,"inst":"tuba_v0_struck_284","midi_source":""},{"t":320.679,"note":69,"dur":0.162,"vel":1.0,"inst":"tuba_v0_struck_284","midi_source":""},{"t":320.842,"note":40,"dur":0.162,"vel":1.0,"inst":"harp_v0_bowed_168","midi_source":""},{"t":320.842,"note":71,"dur":0.081,"vel":1.0,"inst":"tuba_v0_struck_284","midi_source":""},{"t":320.923,"note":76,"dur":0.081,"vel":1.0,"inst":"harp_v0_bowed_168","midi_source":""},{"t":321.004,"note":47,"dur":0.162,"vel":1.0,"inst":"tuba_v0_struck_284","midi_source":""},{"t":321.004,"note":52,"dur":0.162,"vel":1.0,"inst":"harp_v0_bowed_168","midi_source":""},{"t":321.004,"note":55,"dur":0.162,"vel":1.0,"inst":"tuba_v0_struck_284","midi_source":""},{"t":321.004,"note":76,"dur":0.162,"vel":1.0,"inst":"harp_v0_bowed_168","midi_source":""},{"t":321.166,"note":47,"dur":0.162,"vel":1.0,"inst":"tuba_v0_struck_284","midi_source":""},{"t":321.166,"note":52,"dur":0.162,"vel":1.0,"inst":"harp_v0_bowed_168","midi_source":""},{"t":321.166,"note":55,"dur":0.162,"vel":1.0,"inst":"tuba_v0_struck_284","midi_source":""},{"t":321.166,"note":71,"dur":0.162,"vel":1.0,"inst":"tuba_v0_struck_284","midi_source":""},{"t":321.329,"note":45,"dur":0.162,"vel":1.0,"inst":"tuba_v0_struck_284","midi_source":""},{"t":321.329,"note":72,"dur":0.325,"vel":1.0,"inst":"harp_v0_bowed_168","midi_source":""},{"t":321.491,"note":48,"dur":0.162,"vel":1.0,"inst":"harp_v0_bowed_168","midi_source":""},{"t":321.491,"note":52,"dur":0.162,"vel":1.0,"inst":"harp_v0_bowed_168","midi_source":""},{"t":321.491,"note":57,"dur":0.162,"vel":1.0,"inst":"tuba_v0_struck_284","midi_source":""},{"t":321.654,"note":48,"dur":0.162,"vel":1.0,"inst":"harp_v0_bowed_168","midi_source":""},{"t":321.654,"note":52,"dur":0.162,"vel":1.0,"inst":"harp_v0_bowed_168","midi_source":""},{"t":321.654,"note":57,"dur":0.162,"vel":1.0,"inst":"tuba_v0_struck_284","midi_source":""},{"t":321.654,"note":69,"dur":0.162,"vel":1.0,"inst":"tuba_v0_struck_284","midi_source":""},{"t":321.816,"note":40,"dur":0.162,"vel":1.0,"inst":"harp_v0_bowed_168","midi_source":""},{"t":321.816,"note":71,"dur":0.081,"vel":1.0,"inst":"tuba_v0_struck_284","midi_source":""},{"t":321.897,"note":76,"dur":0.081,"vel":1.0,"inst":"harp_v0_bowed_168","midi_source":""},{"t":321.978,"note":47,"dur":0.162,"vel":1.0,"inst":"tuba_v0_struck_284","midi_source":""},{"t":321.978,"note":52,"dur":0.162,"vel":1.0,"inst":"harp_v0_bowed_168","midi_source":""},{"t":321.978,"note":55,"dur":0.162,"vel":1.0,"inst":"tuba_v0_struck_284","midi_source":""},{"t":321.978,"note":76,"dur":0.162,"vel":1.0,"inst":"harp_v0_bowed_168","midi_source":""},{"t":322.141,"note":47,"dur":0.162,"vel":1.0,"inst":"tuba_v0_struck_284","midi_source":""},{"t":322.141,"note":52,"dur":0.162,"vel":1.0,"inst":"harp_v0_bowed_168","midi_source":""},{"t":322.141,"note":55,"dur":0.162,"vel":1.0,"inst":"tuba_v0_struck_284","midi_source":""},{"t":322.141,"note":67,"dur":0.162,"vel":1.0,"inst":"tuba_v0_struck_284","midi_source":""},{"t":322.303,"note":45,"dur":0.487,"vel":1.0,"inst":"tuba_v0_struck_284","midi_source":""},{"t":322.303,"note":48,"dur":0.487,"vel":1.0,"inst":"harp_v0_bowed_168","midi_source":""},{"t":322.303,"note":52,"dur":0.487,"vel":1.0,"inst":"harp_v0_bowed_168","midi_source":""},{"t":322.303,"note":57,"dur":0.487,"vel":1.0,"inst":"tuba_v0_struck_284","midi_source":""},{"t":322.303,"note":69,"dur":0.325,"vel":1.0,"inst":"tuba_v0_struck_284","midi_source":""},{"t":322.709,"note":76,"dur":0.081,"vel":1.0,"inst":"harp_v0_bowed_168","midi_source":""},{"t":322.709,"note":67,"dur":0.081,"vel":1.0,"inst":"tuba_v0_struck_284","midi_source":""},{"t":322.709,"note":79,"dur":0.081,"vel":1.0,"inst":"tuba_v0_struck_284","midi_source":""},{"t":322.79,"note":33,"dur":0.162,"vel":1.0,"inst":"tuba_v0_struck_284","midi_source":""},{"t":322.79,"note":40,"dur":0.162,"vel":1.0,"inst":"harp_v0_bowed_168","midi_source":""},{"t":322.79,"note":45,"dur":0.162,"vel":1.0,"inst":"tuba_v0_struck_284","midi_source":""},{"t":322.79,"note":81,"dur":0.081,"vel":1.0,"inst":"tuba_v0_struck_284","midi_source":""},{"t":322.871,"note":79,"dur":0.081,"vel":1.0,"inst":"tuba_v0_struck_284","midi_source":""},{"t":322.953,"note":48,"dur":0.162,"vel":1.0,"inst":"harp_v0_bowed_168","midi_source":""},{"t":322.953,"note":52,"dur":0.162,"vel":1.0,"inst":"harp_v0_bowed_168","midi_source":""},{"t":322.953,"note":77,"dur":0.081,"vel":1.0,"inst":"tuba_v0_struck_284","midi_source":""},{"t":323.034,"note":76,"dur":0.081,"vel":1.0,"inst":"harp_v0_bowed_168","midi_source":""},{"t":323.115,"note":45,"dur":0.162,"vel":1.0,"inst":"tuba_v0_struck_284","midi_source":""},{"t":323.115,"note":48,"dur":0.162,"vel":1.0,"inst":"harp_v0_bowed_168","midi_source":""},{"t":323.115,"note":74,"dur":0.081,"vel":1.0,"inst":"harp_v0_bowed_168","midi_source":""},{"t":323.196,"note":72,"dur":0.081,"vel":1.0,"inst":"harp_v0_bowed_168","midi_source":""},{"t":323.277,"note":28,"dur":0.162,"vel":1.0,"inst":"harp_v0_bowed_168","midi_source":""},{"t":323.277,"note":35,"dur":0.162,"vel":1.0,"inst":"tuba_v0_struck_284","midi_source":""},{"t":323.277,"note":40,"dur":0.162,"vel":1.0,"inst":"harp_v0_bowed_168","midi_source":""},{"t":323.277,"note":77,"dur":0.162,"vel":1.0,"inst":"tuba_v0_struck_284","midi_source":""},{"t":323.44,"note":47,"dur":0.162,"vel":1.0,"inst":"tuba_v0_struck_284","midi_source":""},{"t":323.44,"note":50,"dur":0.162,"vel":1.0,"inst":"harp_v0_bowed_168","midi_source":""},{"t":323.44,"note":76,"dur":0.081,"vel":1.0,"inst":"harp_v0_bowed_168","midi_source":""},{"t":323.521,"note":74,"dur":0.081,"vel":1.0,"inst":"harp_v0_bowed_168","midi_source":""},{"t":323.602,"note":43,"dur":0.162,"vel":1.0,"inst":"tuba_v0_struck_284","midi_source":""},{"t":323.602,"note":47,"dur":0.162,"vel":1.0,"inst":"tuba_v0_struck_284","midi_source":""},{"t":323.602,"note":72,"dur":0.081,"vel":1.0,"inst":"harp_v0_bowed_168","midi_source":""},{"t":323.683,"note":71,"dur":0.081,"vel":1.0,"inst":"tuba_v0_struck_284","midi_source":""},{"t":323.765,"note":28,"dur":0.162,"vel":1.0,"inst":"harp_v0_bowed_168","midi_source":""},{"t":323.765,"note":35,"dur":0.162,"vel":1.0,"inst":"tuba_v0_struck_284","midi_source":""},{"t":323.765,"note":40,"dur":0.162,"vel":1.0,"inst":"harp_v0_bowed_168","midi_source":""},{"t":323.765,"note":77,"dur":0.162,"vel":1.0,"inst":"tuba_v0_struck_284","midi_source":""},{"t":323.927,"note":47,"dur":0.162,"vel":1.0,"inst":"tuba_v0_struck_284","midi_source":""},{"t":323.927,"note":50,"dur":0.162,"vel":1.0,"inst":"harp_v0_bowed_168","midi_source":""},{"t":323.927,"note":76,"dur":0.081,"vel":1.0,"inst":"harp_v0_bowed_168","midi_source":""},{"t":324.008,"note":74,"dur":0.081,"vel":1.0,"inst":"harp_v0_bowed_168","midi_source":""},{"t":324.089,"note":43,"dur":0.162,"vel":1.0,"inst":"tuba_v0_struck_284","midi_source":""},{"t":324.089,"note":47,"dur":0.162,"vel":1.0,"inst":"tuba_v0_struck_284","midi_source":""},{"t":324.089,"note":72,"dur":0.081,"vel":1.0,"inst":"harp_v0_bowed_168","midi_source":""},{"t":324.252,"note":28,"dur":0.162,"vel":1.0,"inst":"harp_v0_bowed_168","midi_source":""},{"t":324.252,"note":40,"dur":0.162,"vel":1.0,"inst":"harp_v0_bowed_168","midi_source":""},{"t":324.252,"note":59,"dur":0.325,"vel":1.0,"inst":"tuba_v0_struck_284","midi_source":""},{"t":324.252,"note":62,"dur":0.325,"vel":1.0,"inst":"harp_v0_bowed_168","midi_source":""},{"t":324.414,"note":40,"dur":0.162,"vel":1.0,"inst":"harp_v0_bowed_168","midi_source":""},{"t":324.414,"note":43,"dur":0.162,"vel":1.0,"inst":"tuba_v0_struck_284","midi_source":""},{"t":324.414,"note":47,"dur":0.162,"vel":1.0,"inst":"tuba_v0_struck_284","midi_source":""},{"t":324.577,"note":40,"dur":0.162,"vel":1.0,"inst":"harp_v0_bowed_168","midi_source":""},{"t":324.577,"note":43,"dur":0.162,"vel":1.0,"inst":"tuba_v0_struck_284","midi_source":""},{"t":324.577,"note":47,"dur":0.162,"vel":1.0,"inst":"tuba_v0_struck_284","midi_source":""},{"t":324.577,"note":59,"dur":0.162,"vel":1.0,"inst":"tuba_v0_struck_284","midi_source":""},{"t":324.577,"note":62,"dur":0.162,"vel":1.0,"inst":"harp_v0_bowed_168","midi_source":""},{"t":324.739,"note":28,"dur":0.162,"vel":1.0,"inst":"harp_v0_bowed_168","midi_source":""},{"t":324.739,"note":40,"dur":0.162,"vel":1.0,"inst":"harp_v0_bowed_168","midi_source":""},{"t":324.739,"note":59,"dur":0.325,"vel":1.0,"inst":"tuba_v0_struck_284","midi_source":""},{"t":324.739,"note":62,"dur":0.325,"vel":1.0,"inst":"harp_v0_bowed_168","midi_source":""},{"t":324.901,"note":40,"dur":0.162,"vel":1.0,"inst":"harp_v0_bowed_168","midi_source":""},{"t":324.901,"note":43,"dur":0.162,"vel":1.0,"inst":"tuba_v0_struck_284","midi_source":""},{"t":324.901,"note":47,"dur":0.162,"vel":1.0,"inst":"tuba_v0_struck_284","midi_source":""},{"t":325.064,"note":40,"dur":0.162,"vel":1.0,"inst":"harp_v0_bowed_168","midi_source":""},{"t":325.064,"note":43,"dur":0.162,"vel":1.0,"inst":"tuba_v0_struck_284","midi_source":""},{"t":325.064,"note":47,"dur":0.162,"vel":1.0,"inst":"tuba_v0_struck_284","midi_source":""},{"t":325.064,"note":59,"dur":0.162,"vel":1.0,"inst":"tuba_v0_struck_284","midi_source":""},{"t":325.064,"note":62,"dur":0.162,"vel":1.0,"inst":"harp_v0_bowed_168","midi_source":""},{"t":325.226,"note":28,"dur":0.162,"vel":1.0,"inst":"harp_v0_bowed_168","midi_source":""},{"t":325.226,"note":40,"dur":0.162,"vel":1.0,"inst":"harp_v0_bowed_168","midi_source":""},{"t":325.226,"note":64,"dur":0.162,"vel":1.0,"inst":"harp_v0_bowed_168","midi_source":""},{"t":325.226,"note":67,"dur":0.162,"vel":1.0,"inst":"tuba_v0_struck_284","midi_source":""},{"t":325.389,"note":40,"dur":0.162,"vel":1.0,"inst":"harp_v0_bowed_168","midi_source":""},{"t":325.389,"note":43,"dur":0.162,"vel":1.0,"inst":"tuba_v0_struck_284","midi_source":""},{"t":325.389,"note":47,"dur":0.162,"vel":1.0,"inst":"tuba_v0_struck_284","midi_source":""},{"t":325.389,"note":62,"dur":0.162,"vel":1.0,"inst":"harp_v0_bowed_168","midi_source":""},{"t":325.389,"note":55,"dur":0.162,"vel":1.0,"inst":"tuba_v0_struck_284","midi_source":""},{"t":325.551,"note":40,"dur":0.162,"vel":1.0,"inst":"harp_v0_bowed_168","midi_source":""},{"t":325.551,"note":43,"dur":0.162,"vel":1.0,"inst":"tuba_v0_struck_284","midi_source":""},{"t":325.551,"note":47,"dur":0.162,"vel":1.0,"inst":"tuba_v0_struck_284","midi_source":""},{"t":325.551,"note":60,"dur":0.162,"vel":1.0,"inst":"harp_v0_bowed_168","midi_source":""},{"t":325.551,"note":64,"dur":0.162,"vel":1.0,"inst":"harp_v0_bowed_168","midi_source":""},{"t":325.713,"note":28,"dur":0.162,"vel":1.0,"inst":"harp_v0_bowed_168","midi_source":""},{"t":325.713,"note":40,"dur":0.162,"vel":1.0,"inst":"harp_v0_bowed_168","midi_source":""},{"t":325.713,"note":59,"dur":0.162,"vel":1.0,"inst":"tuba_v0_struck_284","midi_source":""},{"t":325.713,"note":62,"dur":0.162,"vel":1.0,"inst":"harp_v0_bowed_168","midi_source":""},{"t":325.876,"note":40,"dur":0.162,"vel":1.0,"inst":"harp_v0_bowed_168","midi_source":""},{"t":325.876,"note":43,"dur":0.162,"vel":1.0,"inst":"tuba_v0_struck_284","midi_source":""},{"t":325.876,"note":47,"dur":0.162,"vel":1.0,"inst":"tuba_v0_struck_284","midi_source":""},{"t":325.876,"note":57,"dur":0.162,"vel":1.0,"inst":"tuba_v0_struck_284","midi_source":""},{"t":325.876,"note":60,"dur":0.162,"vel":1.0,"inst":"harp_v0_bowed_168","midi_source":""},{"t":326.038,"note":40,"dur":0.162,"vel":1.0,"inst":"harp_v0_bowed_168","midi_source":""},{"t":326.038,"note":43,"dur":0.162,"vel":1.0,"inst":"tuba_v0_struck_284","midi_source":""},{"t":326.038,"note":47,"dur":0.162,"vel":1.0,"inst":"tuba_v0_struck_284","midi_source":""},{"t":326.038,"note":55,"dur":0.162,"vel":1.0,"inst":"tuba_v0_struck_284","midi_source":""},{"t":326.038,"note":59,"dur":0.162,"vel":1.0,"inst":"tuba_v0_struck_284","midi_source":""},{"t":326.201,"note":33,"dur":0.162,"vel":1.0,"inst":"tuba_v0_struck_284","midi_source":""},{"t":326.201,"note":57,"dur":0.487,"vel":1.0,"inst":"tuba_v0_struck_284","midi_source":""},{"t":326.363,"note":48,"dur":0.162,"vel":1.0,"inst":"harp_v0_bowed_168","midi_source":""},{"t":326.363,"note":52,"dur":0.162,"vel":1.0,"inst":"harp_v0_bowed_168","midi_source":""},{"t":326.525,"note":48,"dur":0.162,"vel":1.0,"inst":"harp_v0_bowed_168","midi_source":""},{"t":326.525,"note":52,"dur":0.162,"vel":1.0,"inst":"harp_v0_bowed_168","midi_source":""},{"t":326.688,"note":45,"dur":0.162,"vel":1.0,"inst":"tuba_v0_struck_284","midi_source":""},{"t":326.688,"note":69,"dur":0.081,"vel":1.0,"inst":"tuba_v0_struck_284","midi_source":""},{"t":326.769,"note":71,"dur":0.081,"vel":1.0,"inst":"tuba_v0_struck_284","midi_source":""},{"t":326.85,"note":48,"dur":0.162,"vel":1.0,"inst":"harp_v0_bowed_168","midi_source":""},{"t":326.85,"note":52,"dur":0.162,"vel":1.0,"inst":"harp_v0_bowed_168","midi_source":""},{"t":326.85,"note":57,"dur":0.162,"vel":1.0,"inst":"tuba_v0_struck_284","midi_source":""},{"t":326.85,"note":72,"dur":0.162,"vel":1.0,"inst":"harp_v0_bowed_168","midi_source":""},{"t":327.013,"note":48,"dur":0.162,"vel":1.0,"inst":"harp_v0_bowed_168","midi_source":""},{"t":327.013,"note":52,"dur":0.162,"vel":1.0,"inst":"harp_v0_bowed_168","midi_source":""},{"t":327.013,"note":57,"dur":0.162,"vel":1.0,"inst":"tuba_v0_struck_284","midi_source":""},{"t":327.013,"note":74,"dur":0.162,"vel":1.0,"inst":"harp_v0_bowed_168","midi_source":""},{"t":327.175,"note":45,"dur":0.162,"vel":1.0,"inst":"tuba_v0_struck_284","midi_source":""},{"t":327.175,"note":76,"dur":0.325,"vel":1.0,"inst":"harp_v0_bowed_168","midi_source":""},{"t":327.337,"note":48,"dur":0.162,"vel":1.0,"inst":"harp_v0_bowed_168","midi_source":""},{"t":327.337,"note":52,"dur":0.162,"vel":1.0,"inst":"harp_v0_bowed_168","midi_source":""},{"t":327.337,"note":57,"dur":0.162,"vel":1.0,"inst":"tuba_v0_struck_284","midi_source":""},{"t":327.5,"note":48,"dur":0.162,"vel":1.0,"inst":"harp_v0_bowed_168","midi_source":""},{"t":327.5,"note":52,"dur":0.162,"vel":1.0,"inst":"harp_v0_bowed_168","midi_source":""},{"t":327.5,"note":57,"dur":0.162,"vel":1.0,"inst":"tuba_v0_struck_284","midi_source":""},{"t":327.5,"note":77,"dur":0.162,"vel":1.0,"inst":"tuba_v0_struck_284","midi_source":""},{"t":327.662,"note":45,"dur":0.162,"vel":1.0,"inst":"tuba_v0_struck_284","midi_source":""},{"t":327.662,"note":77,"dur":0.081,"vel":1.0,"inst":"tuba_v0_struck_284","midi_source":""},{"t":327.662,"note":79,"dur":0.081,"vel":1.0,"inst":"tuba_v0_struck_284","midi_source":""},{"t":327.743,"note":76,"dur":0.081,"vel":1.0,"inst":"harp_v0_bowed_168","midi_source":""},{"t":327.825,"note":48,"dur":0.162,"vel":1.0,"inst":"harp_v0_bowed_168","midi_source":""},{"t":327.825,"note":52,"dur":0.162,"vel":1.0,"inst":"harp_v0_bowed_168","midi_source":""},{"t":327.825,"note":57,"dur":0.162,"vel":1.0,"inst":"tuba_v0_struck_284","midi_source":""},{"t":327.825,"note":76,"dur":0.162,"vel":1.0,"inst":"harp_v0_bowed_168","midi_source":""},{"t":327.987,"note":48,"dur":0.162,"vel":1.0,"inst":"harp_v0_bowed_168","midi_source":""},{"t":327.987,"note":52,"dur":0.162,"vel":1.0,"inst":"harp_v0_bowed_168","midi_source":""},{"t":327.987,"note":57,"dur":0.162,"vel":1.0,"inst":"tuba_v0_struck_284","midi_source":""},{"t":327.987,"note":81,"dur":0.162,"vel":1.0,"inst":"tuba_v0_struck_284","midi_source":""},{"t":328.149,"note":45,"dur":0.162,"vel":1.0,"inst":"tuba_v0_struck_284","midi_source":""},{"t":328.149,"note":76,"dur":0.325,"vel":1.0,"inst":"harp_v0_bowed_168","midi_source":""},{"t":328.312,"note":48,"dur":0.162,"vel":1.0,"inst":"harp_v0_bowed_168","midi_source":""},{"t":328.312,"note":52,"dur":0.162,"vel":1.0,"inst":"harp_v0_bowed_168","midi_source":""},{"t":328.312,"note":57,"dur":0.162,"vel":1.0,"inst":"tuba_v0_struck_284","midi_source":""},{"t":328.474,"note":48,"dur":0.162,"vel":1.0,"inst":"harp_v0_bowed_168","midi_source":""},{"t":328.474,"note":52,"dur":0.162,"vel":1.0,"inst":"harp_v0_bowed_168","midi_source":""},{"t":328.474,"note":57,"dur":0.162,"vel":1.0,"inst":"tuba_v0_struck_284","midi_source":""},{"t":328.474,"note":69,"dur":0.162,"vel":1.0,"inst":"tuba_v0_struck_284","midi_source":""},{"t":328.636,"note":40,"dur":0.162,"vel":1.0,"inst":"harp_v0_bowed_168","midi_source":""},{"t":328.636,"note":71,"dur":0.081,"vel":1.0,"inst":"tuba_v0_struck_284","midi_source":""},{"t":328.718,"note":76,"dur":0.081,"vel":1.0,"inst":"harp_v0_bowed_168","midi_source":""},{"t":328.799,"note":47,"dur":0.162,"vel":1.0,"inst":"tuba_v0_struck_284","midi_source":""},{"t":328.799,"note":52,"dur":0.162,"vel":1.0,"inst":"harp_v0_bowed_168","midi_source":""},{"t":328.799,"note":55,"dur":0.162,"vel":1.0,"inst":"tuba_v0_struck_284","midi_source":""},{"t":328.799,"note":76,"dur":0.162,"vel":1.0,"inst":"harp_v0_bowed_168","midi_source":""},{"t":328.961,"note":47,"dur":0.162,"vel":1.0,"inst":"tuba_v0_struck_284","midi_source":""},{"t":328.961,"note":52,"dur":0.162,"vel":1.0,"inst":"harp_v0_bowed_168","midi_source":""},{"t":328.961,"note":55,"dur":0.162,"vel":1.0,"inst":"tuba_v0_struck_284","midi_source":""},{"t":328.961,"note":71,"dur":0.162,"vel":1.0,"inst":"tuba_v0_struck_284","midi_source":""},{"t":329.124,"note":45,"dur":0.162,"vel":1.0,"inst":"tuba_v0_struck_284","midi_source":""},{"t":329.124,"note":72,"dur":0.325,"vel":1.0,"inst":"harp_v0_bowed_168","midi_source":""},{"t":329.286,"note":48,"dur":0.162,"vel":1.0,"inst":"harp_v0_bowed_168","midi_source":""},{"t":329.286,"note":52,"dur":0.162,"vel":1.0,"inst":"harp_v0_bowed_168","midi_source":""},{"t":329.286,"note":57,"dur":0.162,"vel":1.0,"inst":"tuba_v0_struck_284","midi_source":""},{"t":329.448,"note":48,"dur":0.162,"vel":1.0,"inst":"harp_v0_bowed_168","midi_source":""},{"t":329.448,"note":52,"dur":0.162,"vel":1.0,"inst":"harp_v0_bowed_168","midi_source":""},{"t":329.448,"note":57,"dur":0.162,"vel":1.0,"inst":"tuba_v0_struck_284","midi_source":""},{"t":329.448,"note":69,"dur":0.162,"vel":1.0,"inst":"tuba_v0_struck_284","midi_source":""},{"t":329.611,"note":40,"dur":0.162,"vel":1.0,"inst":"harp_v0_bowed_168","midi_source":""},{"t":329.611,"note":71,"dur":0.081,"vel":1.0,"inst":"tuba_v0_struck_284","midi_source":""},{"t":329.692,"note":76,"dur":0.081,"vel":1.0,"inst":"harp_v0_bowed_168","midi_source":""},{"t":329.773,"note":47,"dur":0.162,"vel":1.0,"inst":"tuba_v0_struck_284","midi_source":""},{"t":329.773,"note":52,"dur":0.162,"vel":1.0,"inst":"harp_v0_bowed_168","midi_source":""},{"t":329.773,"note":55,"dur":0.162,"vel":1.0,"inst":"tuba_v0_struck_284","midi_source":""},{"t":329.773,"note":76,"dur":0.162,"vel":1.0,"inst":"harp_v0_bowed_168","midi_source":""},{"t":329.936,"note":47,"dur":0.162,"vel":1.0,"inst":"tuba_v0_struck_284","midi_source":""},{"t":329.936,"note":52,"dur":0.162,"vel":1.0,"inst":"harp_v0_bowed_168","midi_source":""},{"t":329.936,"note":55,"dur":0.162,"vel":1.0,"inst":"tuba_v0_struck_284","midi_source":""},{"t":329.936,"note":67,"dur":0.162,"vel":1.0,"inst":"tuba_v0_struck_284","midi_source":""},{"t":330.098,"note":45,"dur":0.487,"vel":1.0,"inst":"tuba_v0_struck_284","midi_source":""},{"t":330.098,"note":48,"dur":0.487,"vel":1.0,"inst":"harp_v0_bowed_168","midi_source":""},{"t":330.098,"note":52,"dur":0.487,"vel":1.0,"inst":"harp_v0_bowed_168","midi_source":""},{"t":330.098,"note":57,"dur":0.487,"vel":1.0,"inst":"tuba_v0_struck_284","midi_source":""},{"t":330.098,"note":69,"dur":0.325,"vel":1.0,"inst":"tuba_v0_struck_284","midi_source":""},{"t":330.504,"note":76,"dur":0.081,"vel":1.0,"inst":"harp_v0_bowed_168","midi_source":""},{"t":330.504,"note":67,"dur":0.081,"vel":1.0,"inst":"tuba_v0_struck_284","midi_source":""},{"t":330.504,"note":79,"dur":0.081,"vel":1.0,"inst":"tuba_v0_struck_284","midi_source":""},{"t":330.585,"note":33,"dur":0.162,"vel":1.0,"inst":"tuba_v0_struck_284","midi_source":""},{"t":330.585,"note":40,"dur":0.162,"vel":1.0,"inst":"harp_v0_bowed_168","midi_source":""},{"t":330.585,"note":45,"dur":0.162,"vel":1.0,"inst":"tuba_v0_struck_284","midi_source":""},{"t":330.585,"note":81,"dur":0.081,"vel":1.0,"inst":"tuba_v0_struck_284","midi_source":""},{"t":330.666,"note":79,"dur":0.081,"vel":1.0,"inst":"tuba_v0_struck_284","midi_source":""},{"t":330.748,"note":48,"dur":0.162,"vel":1.0,"inst":"harp_v0_bowed_168","midi_source":""},{"t":330.748,"note":52,"dur":0.162,"vel":1.0,"inst":"harp_v0_bowed_168","midi_source":""},{"t":330.748,"note":77,"dur":0.081,"vel":1.0,"inst":"tuba_v0_struck_284","midi_source":""},{"t":330.829,"note":76,"dur":0.081,"vel":1.0,"inst":"harp_v0_bowed_168","midi_source":""},{"t":330.91,"note":45,"dur":0.162,"vel":1.0,"inst":"tuba_v0_struck_284","midi_source":""},{"t":330.91,"note":48,"dur":0.162,"vel":1.0,"inst":"harp_v0_bowed_168","midi_source":""},{"t":330.91,"note":74,"dur":0.081,"vel":1.0,"inst":"harp_v0_bowed_168","midi_source":""},{"t":330.991,"note":72,"dur":0.081,"vel":1.0,"inst":"harp_v0_bowed_168","midi_source":""},{"t":331.072,"note":28,"dur":0.162,"vel":1.0,"inst":"harp_v0_bowed_168","midi_source":""},{"t":331.072,"note":35,"dur":0.162,"vel":1.0,"inst":"tuba_v0_struck_284","midi_source":""},{"t":331.072,"note":40,"dur":0.162,"vel":1.0,"inst":"harp_v0_bowed_168","midi_source":""},{"t":331.072,"note":77,"dur":0.162,"vel":1.0,"inst":"tuba_v0_struck_284","midi_source":""},{"t":331.235,"note":47,"dur":0.162,"vel":1.0,"inst":"tuba_v0_struck_284","midi_source":""},{"t":331.235,"note":50,"dur":0.162,"vel":1.0,"inst":"harp_v0_bowed_168","midi_source":""},{"t":331.235,"note":76,"dur":0.081,"vel":1.0,"inst":"harp_v0_bowed_168","midi_source":""},{"t":331.316,"note":74,"dur":0.081,"vel":1.0,"inst":"harp_v0_bowed_168","midi_source":""},{"t":331.397,"note":43,"dur":0.162,"vel":1.0,"inst":"tuba_v0_struck_284","midi_source":""},{"t":331.397,"note":47,"dur":0.162,"vel":1.0,"inst":"tuba_v0_struck_284","midi_source":""},{"t":331.397,"note":72,"dur":0.081,"vel":1.0,"inst":"harp_v0_bowed_168","midi_source":""},{"t":331.478,"note":71,"dur":0.081,"vel":1.0,"inst":"tuba_v0_struck_284","midi_source":""},{"t":331.56,"note":28,"dur":0.162,"vel":1.0,"inst":"harp_v0_bowed_168","midi_source":""},{"t":331.56,"note":35,"dur":0.162,"vel":1.0,"inst":"tuba_v0_struck_284","midi_source":""},{"t":331.56,"note":40,"dur":0.162,"vel":1.0,"inst":"harp_v0_bowed_168","midi_source":""},{"t":331.56,"note":77,"dur":0.162,"vel":1.0,"inst":"tuba_v0_struck_284","midi_source":""},{"t":331.722,"note":47,"dur":0.162,"vel":1.0,"inst":"tuba_v0_struck_284","midi_source":""},{"t":331.722,"note":50,"dur":0.162,"vel":1.0,"inst":"harp_v0_bowed_168","midi_source":""},{"t":331.722,"note":76,"dur":0.081,"vel":1.0,"inst":"harp_v0_bowed_168","midi_source":""},{"t":331.803,"note":74,"dur":0.081,"vel":1.0,"inst":"harp_v0_bowed_168","midi_source":""},{"t":331.884,"note":43,"dur":0.162,"vel":1.0,"inst":"tuba_v0_struck_284","midi_source":""},{"t":331.884,"note":47,"dur":0.162,"vel":1.0,"inst":"tuba_v0_struck_284","midi_source":""},{"t":331.884,"note":72,"dur":0.081,"vel":1.0,"inst":"harp_v0_bowed_168","midi_source":""},{"t":332.047,"note":28,"dur":0.162,"vel":1.0,"inst":"harp_v0_bowed_168","midi_source":""},{"t":332.047,"note":40,"dur":0.162,"vel":1.0,"inst":"harp_v0_bowed_168","midi_source":""},{"t":332.047,"note":59,"dur":0.325,"vel":1.0,"inst":"tuba_v0_struck_284","midi_source":""},{"t":332.047,"note":62,"dur":0.325,"vel":1.0,"inst":"harp_v0_bowed_168","midi_source":""},{"t":332.209,"note":40,"dur":0.162,"vel":1.0,"inst":"harp_v0_bowed_168","midi_source":""},{"t":332.209,"note":43,"dur":0.162,"vel":1.0,"inst":"tuba_v0_struck_284","midi_source":""},{"t":332.209,"note":47,"dur":0.162,"vel":1.0,"inst":"tuba_v0_struck_284","midi_source":""},{"t":332.372,"note":40,"dur":0.162,"vel":1.0,"inst":"harp_v0_bowed_168","midi_source":""},{"t":332.372,"note":43,"dur":0.162,"vel":1.0,"inst":"tuba_v0_struck_284","midi_source":""},{"t":332.372,"note":47,"dur":0.162,"vel":1.0,"inst":"tuba_v0_struck_284","midi_source":""},{"t":332.372,"note":59,"dur":0.162,"vel":1.0,"inst":"tuba_v0_struck_284","midi_source":""},{"t":332.372,"note":62,"dur":0.162,"vel":1.0,"inst":"harp_v0_bowed_168","midi_source":""},{"t":332.534,"note":28,"dur":0.162,"vel":1.0,"inst":"harp_v0_bowed_168","midi_source":""},{"t":332.534,"note":40,"dur":0.162,"vel":1.0,"inst":"harp_v0_bowed_168","midi_source":""},{"t":332.534,"note":59,"dur":0.325,"vel":1.0,"inst":"tuba_v0_struck_284","midi_source":""},{"t":332.534,"note":62,"dur":0.325,"vel":1.0,"inst":"harp_v0_bowed_168","midi_source":""},{"t":332.696,"note":40,"dur":0.162,"vel":1.0,"inst":"harp_v0_bowed_168","midi_source":""},{"t":332.696,"note":43,"dur":0.162,"vel":1.0,"inst":"tuba_v0_struck_284","midi_source":""},{"t":332.696,"note":47,"dur":0.162,"vel":1.0,"inst":"tuba_v0_struck_284","midi_source":""},{"t":332.859,"note":40,"dur":0.162,"vel":1.0,"inst":"harp_v0_bowed_168","midi_source":""},{"t":332.859,"note":43,"dur":0.162,"vel":1.0,"inst":"tuba_v0_struck_284","midi_source":""},{"t":332.859,"note":47,"dur":0.162,"vel":1.0,"inst":"tuba_v0_struck_284","midi_source":""},{"t":332.859,"note":59,"dur":0.162,"vel":1.0,"inst":"tuba_v0_struck_284","midi_source":""},{"t":332.859,"note":62,"dur":0.162,"vel":1.0,"inst":"harp_v0_bowed_168","midi_source":""},{"t":333.021,"note":28,"dur":0.162,"vel":1.0,"inst":"harp_v0_bowed_168","midi_source":""},{"t":333.021,"note":40,"dur":0.162,"vel":1.0,"inst":"harp_v0_bowed_168","midi_source":""},{"t":333.021,"note":64,"dur":0.162,"vel":1.0,"inst":"harp_v0_bowed_168","midi_source":""},{"t":333.021,"note":67,"dur":0.162,"vel":1.0,"inst":"tuba_v0_struck_284","midi_source":""},{"t":333.184,"note":40,"dur":0.162,"vel":1.0,"inst":"harp_v0_bowed_168","midi_source":""},{"t":333.184,"note":43,"dur":0.162,"vel":1.0,"inst":"tuba_v0_struck_284","midi_source":""},{"t":333.184,"note":47,"dur":0.162,"vel":1.0,"inst":"tuba_v0_struck_284","midi_source":""},{"t":333.184,"note":62,"dur":0.162,"vel":1.0,"inst":"harp_v0_bowed_168","midi_source":""},{"t":333.184,"note":55,"dur":0.162,"vel":1.0,"inst":"tuba_v0_struck_284","midi_source":""},{"t":333.346,"note":40,"dur":0.162,"vel":1.0,"inst":"harp_v0_bowed_168","midi_source":""},{"t":333.346,"note":43,"dur":0.162,"vel":1.0,"inst":"tuba_v0_struck_284","midi_source":""},{"t":333.346,"note":47,"dur":0.162,"vel":1.0,"inst":"tuba_v0_struck_284","midi_source":""},{"t":333.346,"note":60,"dur":0.162,"vel":1.0,"inst":"harp_v0_bowed_168","midi_source":""},{"t":333.346,"note":64,"dur":0.162,"vel":1.0,"inst":"harp_v0_bowed_168","midi_source":""},{"t":333.508,"note":28,"dur":0.162,"vel":1.0,"inst":"harp_v0_bowed_168","midi_source":""},{"t":333.508,"note":40,"dur":0.162,"vel":1.0,"inst":"harp_v0_bowed_168","midi_source":""},{"t":333.508,"note":59,"dur":0.162,"vel":1.0,"inst":"tuba_v0_struck_284","midi_source":""},{"t":333.508,"note":62,"dur":0.162,"vel":1.0,"inst":"harp_v0_bowed_168","midi_source":""},{"t":333.671,"note":40,"dur":0.162,"vel":1.0,"inst":"harp_v0_bowed_168","midi_source":""},{"t":333.671,"note":43,"dur":0.162,"vel":1.0,"inst":"tuba_v0_struck_284","midi_source":""},{"t":333.671,"note":47,"dur":0.162,"vel":1.0,"inst":"tuba_v0_struck_284","midi_source":""},{"t":333.671,"note":57,"dur":0.162,"vel":1.0,"inst":"tuba_v0_struck_284","midi_source":""},{"t":333.671,"note":60,"dur":0.162,"vel":1.0,"inst":"harp_v0_bowed_168","midi_source":""},{"t":333.833,"note":40,"dur":0.162,"vel":1.0,"inst":"harp_v0_bowed_168","midi_source":""},{"t":333.833,"note":43,"dur":0.162,"vel":1.0,"inst":"tuba_v0_struck_284","midi_source":""},{"t":333.833,"note":47,"dur":0.162,"vel":1.0,"inst":"tuba_v0_struck_284","midi_source":""},{"t":333.833,"note":55,"dur":0.162,"vel":1.0,"inst":"tuba_v0_struck_284","midi_source":""},{"t":333.833,"note":59,"dur":0.162,"vel":1.0,"inst":"tuba_v0_struck_284","midi_source":""},{"t":333.995,"note":33,"dur":0.162,"vel":1.0,"inst":"tuba_v0_struck_284","midi_source":""},{"t":333.995,"note":57,"dur":0.487,"vel":1.0,"inst":"tuba_v0_struck_284","midi_source":""},{"t":334.158,"note":48,"dur":0.162,"vel":1.0,"inst":"harp_v0_bowed_168","midi_source":""},{"t":334.158,"note":52,"dur":0.162,"vel":1.0,"inst":"harp_v0_bowed_168","midi_source":""},{"t":334.32,"note":48,"dur":0.162,"vel":1.0,"inst":"harp_v0_bowed_168","midi_source":""},{"t":334.32,"note":52,"dur":0.162,"vel":1.0,"inst":"harp_v0_bowed_168","midi_source":""},{"t":334.483,"note":45,"dur":0.162,"vel":1.0,"inst":"tuba_v0_struck_284","midi_source":""},{"t":334.483,"note":69,"dur":0.081,"vel":1.0,"inst":"tuba_v0_struck_284","midi_source":""},{"t":334.564,"note":71,"dur":0.081,"vel":1.0,"inst":"tuba_v0_struck_284","midi_source":""},{"t":334.645,"note":48,"dur":0.162,"vel":1.0,"inst":"harp_v0_bowed_168","midi_source":""},{"t":334.645,"note":52,"dur":0.162,"vel":1.0,"inst":"harp_v0_bowed_168","midi_source":""},{"t":334.645,"note":57,"dur":0.162,"vel":1.0,"inst":"tuba_v0_struck_284","midi_source":""},{"t":334.645,"note":72,"dur":0.162,"vel":1.0,"inst":"harp_v0_bowed_168","midi_source":""},{"t":334.807,"note":48,"dur":0.162,"vel":1.0,"inst":"harp_v0_bowed_168","midi_source":""},{"t":334.807,"note":52,"dur":0.162,"vel":1.0,"inst":"harp_v0_bowed_168","midi_source":""},{"t":334.807,"note":57,"dur":0.162,"vel":1.0,"inst":"tuba_v0_struck_284","midi_source":""},{"t":334.807,"note":74,"dur":0.162,"vel":1.0,"inst":"harp_v0_bowed_168","midi_source":""},{"t":334.97,"note":45,"dur":0.162,"vel":1.0,"inst":"tuba_v0_struck_284","midi_source":""},{"t":334.97,"note":76,"dur":0.325,"vel":1.0,"inst":"harp_v0_bowed_168","midi_source":""},{"t":335.132,"note":48,"dur":0.162,"vel":1.0,"inst":"harp_v0_bowed_168","midi_source":""},{"t":335.132,"note":52,"dur":0.162,"vel":1.0,"inst":"harp_v0_bowed_168","midi_source":""},{"t":335.132,"note":57,"dur":0.162,"vel":1.0,"inst":"tuba_v0_struck_284","midi_source":""},{"t":335.295,"note":48,"dur":0.162,"vel":1.0,"inst":"harp_v0_bowed_168","midi_source":""},{"t":335.295,"note":52,"dur":0.162,"vel":1.0,"inst":"harp_v0_bowed_168","midi_source":""},{"t":335.295,"note":57,"dur":0.162,"vel":1.0,"inst":"tuba_v0_struck_284","midi_source":""},{"t":335.295,"note":77,"dur":0.162,"vel":1.0,"inst":"tuba_v0_struck_284","midi_source":""},{"t":335.457,"note":45,"dur":0.162,"vel":1.0,"inst":"tuba_v0_struck_284","midi_source":""},{"t":335.457,"note":77,"dur":0.081,"vel":1.0,"inst":"tuba_v0_struck_284","midi_source":""},{"t":335.457,"note":79,"dur":0.081,"vel":1.0,"inst":"tuba_v0_struck_284","midi_source":""},{"t":335.538,"note":76,"dur":0.081,"vel":1.0,"inst":"harp_v0_bowed_168","midi_source":""},{"t":335.619,"note":48,"dur":0.162,"vel":1.0,"inst":"harp_v0_bowed_168","midi_source":""},{"t":335.619,"note":52,"dur":0.162,"vel":1.0,"inst":"harp_v0_bowed_168","midi_source":""},{"t":335.619,"note":57,"dur":0.162,"vel":1.0,"inst":"tuba_v0_struck_284","midi_source":""},{"t":335.619,"note":76,"dur":0.162,"vel":1.0,"inst":"harp_v0_bowed_168","midi_source":""},{"t":335.782,"note":48,"dur":0.162,"vel":1.0,"inst":"harp_v0_bowed_168","midi_source":""},{"t":335.782,"note":52,"dur":0.162,"vel":1.0,"inst":"harp_v0_bowed_168","midi_source":""},{"t":335.782,"note":57,"dur":0.162,"vel":1.0,"inst":"tuba_v0_struck_284","midi_source":""},{"t":335.782,"note":81,"dur":0.162,"vel":1.0,"inst":"tuba_v0_struck_284","midi_source":""},{"t":335.944,"note":45,"dur":0.162,"vel":1.0,"inst":"tuba_v0_struck_284","midi_source":""},{"t":335.944,"note":76,"dur":0.325,"vel":1.0,"inst":"harp_v0_bowed_168","midi_source":""},{"t":336.107,"note":48,"dur":0.162,"vel":1.0,"inst":"harp_v0_bowed_168","midi_source":""},{"t":336.107,"note":52,"dur":0.162,"vel":1.0,"inst":"harp_v0_bowed_168","midi_source":""},{"t":336.107,"note":57,"dur":0.162,"vel":1.0,"inst":"tuba_v0_struck_284","midi_source":""},{"t":336.269,"note":48,"dur":0.162,"vel":1.0,"inst":"harp_v0_bowed_168","midi_source":""},{"t":336.269,"note":52,"dur":0.162,"vel":1.0,"inst":"harp_v0_bowed_168","midi_source":""},{"t":336.269,"note":57,"dur":0.162,"vel":1.0,"inst":"tuba_v0_struck_284","midi_source":""},{"t":336.269,"note":69,"dur":0.162,"vel":1.0,"inst":"tuba_v0_struck_284","midi_source":""},{"t":336.431,"note":40,"dur":0.162,"vel":1.0,"inst":"harp_v0_bowed_168","midi_source":""},{"t":336.431,"note":71,"dur":0.081,"vel":1.0,"inst":"tuba_v0_struck_284","midi_source":""},{"t":336.513,"note":76,"dur":0.081,"vel":1.0,"inst":"harp_v0_bowed_168","midi_source":""},{"t":336.594,"note":47,"dur":0.162,"vel":1.0,"inst":"tuba_v0_struck_284","midi_source":""},{"t":336.594,"note":52,"dur":0.162,"vel":1.0,"inst":"harp_v0_bowed_168","midi_source":""},{"t":336.594,"note":55,"dur":0.162,"vel":1.0,"inst":"tuba_v0_struck_284","midi_source":""},{"t":336.594,"note":76,"dur":0.162,"vel":1.0,"inst":"harp_v0_bowed_168","midi_source":""},{"t":336.756,"note":47,"dur":0.162,"vel":1.0,"inst":"tuba_v0_struck_284","midi_source":""},{"t":336.756,"note":52,"dur":0.162,"vel":1.0,"inst":"harp_v0_bowed_168","midi_source":""},{"t":336.756,"note":55,"dur":0.162,"vel":1.0,"inst":"tuba_v0_struck_284","midi_source":""},{"t":336.756,"note":71,"dur":0.162,"vel":1.0,"inst":"tuba_v0_struck_284","midi_source":""},{"t":336.919,"note":45,"dur":0.162,"vel":1.0,"inst":"tuba_v0_struck_284","midi_source":""},{"t":336.919,"note":72,"dur":0.325,"vel":1.0,"inst":"harp_v0_bowed_168","midi_source":""},{"t":337.081,"note":48,"dur":0.162,"vel":1.0,"inst":"harp_v0_bowed_168","midi_source":""},{"t":337.081,"note":52,"dur":0.162,"vel":1.0,"inst":"harp_v0_bowed_168","midi_source":""},{"t":337.081,"note":57,"dur":0.162,"vel":1.0,"inst":"tuba_v0_struck_284","midi_source":""},{"t":337.243,"note":48,"dur":0.162,"vel":1.0,"inst":"harp_v0_bowed_168","midi_source":""},{"t":337.243,"note":52,"dur":0.162,"vel":1.0,"inst":"harp_v0_bowed_168","midi_source":""},{"t":337.243,"note":57,"dur":0.162,"vel":1.0,"inst":"tuba_v0_struck_284","midi_source":""},{"t":337.243,"note":69,"dur":0.162,"vel":1.0,"inst":"tuba_v0_struck_284","midi_source":""},{"t":337.406,"note":40,"dur":0.162,"vel":1.0,"inst":"harp_v0_bowed_168","midi_source":""},{"t":337.406,"note":71,"dur":0.081,"vel":1.0,"inst":"tuba_v0_struck_284","midi_source":""},{"t":337.487,"note":76,"dur":0.081,"vel":1.0,"inst":"harp_v0_bowed_168","midi_source":""},{"t":337.568,"note":47,"dur":0.162,"vel":1.0,"inst":"tuba_v0_struck_284","midi_source":""},{"t":337.568,"note":52,"dur":0.162,"vel":1.0,"inst":"harp_v0_bowed_168","midi_source":""},{"t":337.568,"note":55,"dur":0.162,"vel":1.0,"inst":"tuba_v0_struck_284","midi_source":""},{"t":337.568,"note":76,"dur":0.162,"vel":1.0,"inst":"harp_v0_bowed_168","midi_source":""},{"t":337.731,"note":47,"dur":0.162,"vel":1.0,"inst":"tuba_v0_struck_284","midi_source":""},{"t":337.731,"note":52,"dur":0.162,"vel":1.0,"inst":"harp_v0_bowed_168","midi_source":""},{"t":337.731,"note":55,"dur":0.162,"vel":1.0,"inst":"tuba_v0_struck_284","midi_source":""},{"t":337.731,"note":67,"dur":0.162,"vel":1.0,"inst":"tuba_v0_struck_284","midi_source":""},{"t":337.893,"note":45,"dur":0.487,"vel":1.0,"inst":"tuba_v0_struck_284","midi_source":""},{"t":337.893,"note":48,"dur":0.487,"vel":1.0,"inst":"harp_v0_bowed_168","midi_source":""},{"t":337.893,"note":52,"dur":0.487,"vel":1.0,"inst":"harp_v0_bowed_168","midi_source":""},{"t":337.893,"note":57,"dur":0.487,"vel":1.0,"inst":"tuba_v0_struck_284","midi_source":""},{"t":337.893,"note":69,"dur":0.325,"vel":1.0,"inst":"tuba_v0_struck_284","midi_source":""},{"t":338.299,"note":76,"dur":0.081,"vel":1.0,"inst":"harp_v0_bowed_168","midi_source":""},{"t":338.299,"note":67,"dur":0.081,"vel":1.0,"inst":"tuba_v0_struck_284","midi_source":""},{"t":338.299,"note":79,"dur":0.081,"vel":1.0,"inst":"tuba_v0_struck_284","midi_source":""},{"t":338.38,"note":33,"dur":0.162,"vel":1.0,"inst":"tuba_v0_struck_284","midi_source":""},{"t":338.38,"note":40,"dur":0.162,"vel":1.0,"inst":"harp_v0_bowed_168","midi_source":""},{"t":338.38,"note":45,"dur":0.162,"vel":1.0,"inst":"tuba_v0_struck_284","midi_source":""},{"t":338.38,"note":81,"dur":0.081,"vel":1.0,"inst":"tuba_v0_struck_284","midi_source":""},{"t":338.461,"note":79,"dur":0.081,"vel":1.0,"inst":"tuba_v0_struck_284","midi_source":""},{"t":338.543,"note":48,"dur":0.162,"vel":1.0,"inst":"harp_v0_bowed_168","midi_source":""},{"t":338.543,"note":52,"dur":0.162,"vel":1.0,"inst":"harp_v0_bowed_168","midi_source":""},{"t":338.543,"note":77,"dur":0.081,"vel":1.0,"inst":"tuba_v0_struck_284","midi_source":""},{"t":338.624,"note":76,"dur":0.081,"vel":1.0,"inst":"harp_v0_bowed_168","midi_source":""},{"t":338.705,"note":45,"dur":0.162,"vel":1.0,"inst":"tuba_v0_struck_284","midi_source":""},{"t":338.705,"note":48,"dur":0.162,"vel":1.0,"inst":"harp_v0_bowed_168","midi_source":""},{"t":338.705,"note":74,"dur":0.081,"vel":1.0,"inst":"harp_v0_bowed_168","midi_source":""},{"t":338.786,"note":72,"dur":0.081,"vel":1.0,"inst":"harp_v0_bowed_168","midi_source":""},{"t":338.867,"note":28,"dur":0.162,"vel":1.0,"inst":"harp_v0_bowed_168","midi_source":""},{"t":338.867,"note":35,"dur":0.162,"vel":1.0,"inst":"tuba_v0_struck_284","midi_source":""},{"t":338.867,"note":40,"dur":0.162,"vel":1.0,"inst":"harp_v0_bowed_168","midi_source":""},{"t":338.867,"note":77,"dur":0.162,"vel":1.0,"inst":"tuba_v0_struck_284","midi_source":""},{"t":339.03,"note":47,"dur":0.162,"vel":1.0,"inst":"tuba_v0_struck_284","midi_source":""},{"t":339.03,"note":50,"dur":0.162,"vel":1.0,"inst":"harp_v0_bowed_168","midi_source":""},{"t":339.03,"note":76,"dur":0.081,"vel":1.0,"inst":"harp_v0_bowed_168","midi_source":""},{"t":339.111,"note":74,"dur":0.081,"vel":1.0,"inst":"harp_v0_bowed_168","midi_source":""},{"t":339.192,"note":43,"dur":0.162,"vel":1.0,"inst":"tuba_v0_struck_284","midi_source":""},{"t":339.192,"note":47,"dur":0.162,"vel":1.0,"inst":"tuba_v0_struck_284","midi_source":""},{"t":339.192,"note":72,"dur":0.081,"vel":1.0,"inst":"harp_v0_bowed_168","midi_source":""},{"t":339.273,"note":71,"dur":0.081,"vel":1.0,"inst":"tuba_v0_struck_284","midi_source":""},{"t":339.355,"note":28,"dur":0.162,"vel":1.0,"inst":"harp_v0_bowed_168","midi_source":""},{"t":339.355,"note":35,"dur":0.162,"vel":1.0,"inst":"tuba_v0_struck_284","midi_source":""},{"t":339.355,"note":40,"dur":0.162,"vel":1.0,"inst":"harp_v0_bowed_168","midi_source":""},{"t":339.355,"note":77,"dur":0.162,"vel":1.0,"inst":"tuba_v0_struck_284","midi_source":""},{"t":339.517,"note":47,"dur":0.162,"vel":1.0,"inst":"tuba_v0_struck_284","midi_source":""},{"t":339.517,"note":50,"dur":0.162,"vel":1.0,"inst":"harp_v0_bowed_168","midi_source":""},{"t":339.517,"note":76,"dur":0.081,"vel":1.0,"inst":"harp_v0_bowed_168","midi_source":""},{"t":339.598,"note":74,"dur":0.081,"vel":1.0,"inst":"harp_v0_bowed_168","midi_source":""},{"t":339.679,"note":43,"dur":0.162,"vel":1.0,"inst":"tuba_v0_struck_284","midi_source":""},{"t":339.679,"note":47,"dur":0.162,"vel":1.0,"inst":"tuba_v0_struck_284","midi_source":""},{"t":339.679,"note":72,"dur":0.081,"vel":1.0,"inst":"harp_v0_bowed_168","midi_source":""},{"t":339.842,"note":28,"dur":0.162,"vel":1.0,"inst":"harp_v0_bowed_168","midi_source":""},{"t":339.842,"note":40,"dur":0.162,"vel":1.0,"inst":"harp_v0_bowed_168","midi_source":""},{"t":339.842,"note":59,"dur":0.325,"vel":1.0,"inst":"tuba_v0_struck_284","midi_source":""},{"t":339.842,"note":62,"dur":0.325,"vel":1.0,"inst":"harp_v0_bowed_168","midi_source":""},{"t":340.004,"note":40,"dur":0.162,"vel":1.0,"inst":"harp_v0_bowed_168","midi_source":""},{"t":340.004,"note":43,"dur":0.162,"vel":1.0,"inst":"tuba_v0_struck_284","midi_source":""},{"t":340.004,"note":47,"dur":0.162,"vel":1.0,"inst":"tuba_v0_struck_284","midi_source":""},{"t":340.166,"note":40,"dur":0.162,"vel":1.0,"inst":"harp_v0_bowed_168","midi_source":""},{"t":340.166,"note":43,"dur":0.162,"vel":1.0,"inst":"tuba_v0_struck_284","midi_source":""},{"t":340.166,"note":47,"dur":0.162,"vel":1.0,"inst":"tuba_v0_struck_284","midi_source":""},{"t":340.166,"note":59,"dur":0.162,"vel":1.0,"inst":"tuba_v0_struck_284","midi_source":""},{"t":340.166,"note":62,"dur":0.162,"vel":1.0,"inst":"harp_v0_bowed_168","midi_source":""},{"t":340.329,"note":28,"dur":0.162,"vel":1.0,"inst":"harp_v0_bowed_168","midi_source":""},{"t":340.329,"note":40,"dur":0.162,"vel":1.0,"inst":"harp_v0_bowed_168","midi_source":""},{"t":340.329,"note":59,"dur":0.325,"vel":1.0,"inst":"tuba_v0_struck_284","midi_source":""},{"t":340.329,"note":62,"dur":0.325,"vel":1.0,"inst":"harp_v0_bowed_168","midi_source":""},{"t":340.491,"note":40,"dur":0.162,"vel":1.0,"inst":"harp_v0_bowed_168","midi_source":""},{"t":340.491,"note":43,"dur":0.162,"vel":1.0,"inst":"tuba_v0_struck_284","midi_source":""},{"t":340.491,"note":47,"dur":0.162,"vel":1.0,"inst":"tuba_v0_struck_284","midi_source":""},{"t":340.654,"note":40,"dur":0.162,"vel":1.0,"inst":"harp_v0_bowed_168","midi_source":""},{"t":340.654,"note":43,"dur":0.162,"vel":1.0,"inst":"tuba_v0_struck_284","midi_source":""},{"t":340.654,"note":47,"dur":0.162,"vel":1.0,"inst":"tuba_v0_struck_284","midi_source":""},{"t":340.654,"note":59,"dur":0.162,"vel":1.0,"inst":"tuba_v0_struck_284","midi_source":""},{"t":340.654,"note":62,"dur":0.162,"vel":1.0,"inst":"harp_v0_bowed_168","midi_source":""},{"t":340.816,"note":28,"dur":0.162,"vel":1.0,"inst":"harp_v0_bowed_168","midi_source":""},{"t":340.816,"note":40,"dur":0.162,"vel":1.0,"inst":"harp_v0_bowed_168","midi_source":""},{"t":340.816,"note":64,"dur":0.162,"vel":1.0,"inst":"harp_v0_bowed_168","midi_source":""},{"t":340.816,"note":67,"dur":0.162,"vel":1.0,"inst":"tuba_v0_struck_284","midi_source":""},{"t":340.978,"note":40,"dur":0.162,"vel":1.0,"inst":"harp_v0_bowed_168","midi_source":""},{"t":340.978,"note":43,"dur":0.162,"vel":1.0,"inst":"tuba_v0_struck_284","midi_source":""},{"t":340.978,"note":47,"dur":0.162,"vel":1.0,"inst":"tuba_v0_struck_284","midi_source":""},{"t":340.978,"note":62,"dur":0.162,"vel":1.0,"inst":"harp_v0_bowed_168","midi_source":""},{"t":340.978,"note":55,"dur":0.162,"vel":1.0,"inst":"tuba_v0_struck_284","midi_source":""},{"t":341.141,"note":40,"dur":0.162,"vel":1.0,"inst":"harp_v0_bowed_168","midi_source":""},{"t":341.141,"note":43,"dur":0.162,"vel":1.0,"inst":"tuba_v0_struck_284","midi_source":""},{"t":341.141,"note":47,"dur":0.162,"vel":1.0,"inst":"tuba_v0_struck_284","midi_source":""},{"t":341.141,"note":60,"dur":0.162,"vel":1.0,"inst":"harp_v0_bowed_168","midi_source":""},{"t":341.141,"note":64,"dur":0.162,"vel":1.0,"inst":"harp_v0_bowed_168","midi_source":""},{"t":341.303,"note":28,"dur":0.162,"vel":1.0,"inst":"harp_v0_bowed_168","midi_source":""},{"t":341.303,"note":40,"dur":0.162,"vel":1.0,"inst":"harp_v0_bowed_168","midi_source":""},{"t":341.303,"note":59,"dur":0.162,"vel":1.0,"inst":"tuba_v0_struck_284","midi_source":""},{"t":341.303,"note":62,"dur":0.162,"vel":1.0,"inst":"harp_v0_bowed_168","midi_source":""},{"t":341.466,"note":40,"dur":0.162,"vel":1.0,"inst":"harp_v0_bowed_168","midi_source":""},{"t":341.466,"note":43,"dur":0.162,"vel":1.0,"inst":"tuba_v0_struck_284","midi_source":""},{"t":341.466,"note":47,"dur":0.162,"vel":1.0,"inst":"tuba_v0_struck_284","midi_source":""},{"t":341.466,"note":57,"dur":0.162,"vel":1.0,"inst":"tuba_v0_struck_284","midi_source":""},{"t":341.466,"note":60,"dur":0.162,"vel":1.0,"inst":"harp_v0_bowed_168","midi_source":""},{"t":341.628,"note":40,"dur":0.162,"vel":1.0,"inst":"harp_v0_bowed_168","midi_source":""},{"t":341.628,"note":43,"dur":0.162,"vel":1.0,"inst":"tuba_v0_struck_284","midi_source":""},{"t":341.628,"note":47,"dur":0.162,"vel":1.0,"inst":"tuba_v0_struck_284","midi_source":""},{"t":341.628,"note":55,"dur":0.162,"vel":1.0,"inst":"tuba_v0_struck_284","midi_source":""},{"t":341.628,"note":59,"dur":0.162,"vel":1.0,"inst":"tuba_v0_struck_284","midi_source":""},{"t":341.79,"note":33,"dur":0.162,"vel":1.0,"inst":"tuba_v0_struck_284","midi_source":""},{"t":341.79,"note":57,"dur":0.487,"vel":1.0,"inst":"tuba_v0_struck_284","midi_source":""},{"t":341.953,"note":48,"dur":0.162,"vel":1.0,"inst":"harp_v0_bowed_168","midi_source":""},{"t":341.953,"note":52,"dur":0.162,"vel":1.0,"inst":"harp_v0_bowed_168","midi_source":""},{"t":342.115,"note":48,"dur":0.162,"vel":1.0,"inst":"harp_v0_bowed_168","midi_source":""},{"t":342.115,"note":52,"dur":0.162,"vel":1.0,"inst":"harp_v0_bowed_168","midi_source":""},{"t":342.278,"note":45,"dur":0.162,"vel":1.0,"inst":"tuba_v0_struck_284","midi_source":""},{"t":342.278,"note":69,"dur":0.081,"vel":1.0,"inst":"tuba_v0_struck_284","midi_source":""},{"t":342.359,"note":71,"dur":0.081,"vel":1.0,"inst":"tuba_v0_struck_284","midi_source":""},{"t":342.44,"note":48,"dur":0.162,"vel":1.0,"inst":"harp_v0_bowed_168","midi_source":""},{"t":342.44,"note":52,"dur":0.162,"vel":1.0,"inst":"harp_v0_bowed_168","midi_source":""},{"t":342.44,"note":57,"dur":0.162,"vel":1.0,"inst":"tuba_v0_struck_284","midi_source":""},{"t":342.44,"note":72,"dur":0.162,"vel":1.0,"inst":"harp_v0_bowed_168","midi_source":""},{"t":342.602,"note":48,"dur":0.162,"vel":1.0,"inst":"harp_v0_bowed_168","midi_source":""},{"t":342.602,"note":52,"dur":0.162,"vel":1.0,"inst":"harp_v0_bowed_168","midi_source":""},{"t":342.602,"note":57,"dur":0.162,"vel":1.0,"inst":"tuba_v0_struck_284","midi_source":""},{"t":342.602,"note":74,"dur":0.162,"vel":1.0,"inst":"harp_v0_bowed_168","midi_source":""},{"t":342.765,"note":45,"dur":0.162,"vel":1.0,"inst":"tuba_v0_struck_284","midi_source":""},{"t":342.765,"note":76,"dur":0.325,"vel":1.0,"inst":"harp_v0_bowed_168","midi_source":""},{"t":342.927,"note":48,"dur":0.162,"vel":1.0,"inst":"harp_v0_bowed_168","midi_source":""},{"t":342.927,"note":52,"dur":0.162,"vel":1.0,"inst":"harp_v0_bowed_168","midi_source":""},{"t":342.927,"note":57,"dur":0.162,"vel":1.0,"inst":"tuba_v0_struck_284","midi_source":""},{"t":343.09,"note":48,"dur":0.162,"vel":1.0,"inst":"harp_v0_bowed_168","midi_source":""},{"t":343.09,"note":52,"dur":0.162,"vel":1.0,"inst":"harp_v0_bowed_168","midi_source":""},{"t":343.09,"note":57,"dur":0.162,"vel":1.0,"inst":"tuba_v0_struck_284","midi_source":""},{"t":343.09,"note":77,"dur":0.162,"vel":1.0,"inst":"tuba_v0_struck_284","midi_source":""},{"t":343.252,"note":45,"dur":0.162,"vel":1.0,"inst":"tuba_v0_struck_284","midi_source":""},{"t":343.252,"note":77,"dur":0.081,"vel":1.0,"inst":"tuba_v0_struck_284","midi_source":""},{"t":343.252,"note":79,"dur":0.081,"vel":1.0,"inst":"tuba_v0_struck_284","midi_source":""},{"t":343.333,"note":76,"dur":0.081,"vel":1.0,"inst":"harp_v0_bowed_168","midi_source":""},{"t":343.414,"note":48,"dur":0.162,"vel":1.0,"inst":"harp_v0_bowed_168","midi_source":""},{"t":343.414,"note":52,"dur":0.162,"vel":1.0,"inst":"harp_v0_bowed_168","midi_source":""},{"t":343.414,"note":57,"dur":0.162,"vel":1.0,"inst":"tuba_v0_struck_284","midi_source":""},{"t":343.414,"note":76,"dur":0.162,"vel":1.0,"inst":"harp_v0_bowed_168","midi_source":""},{"t":343.577,"note":48,"dur":0.162,"vel":1.0,"inst":"harp_v0_bowed_168","midi_source":""},{"t":343.577,"note":52,"dur":0.162,"vel":1.0,"inst":"harp_v0_bowed_168","midi_source":""},{"t":343.577,"note":57,"dur":0.162,"vel":1.0,"inst":"tuba_v0_struck_284","midi_source":""},{"t":343.577,"note":81,"dur":0.162,"vel":1.0,"inst":"tuba_v0_struck_284","midi_source":""},{"t":343.739,"note":45,"dur":0.162,"vel":1.0,"inst":"tuba_v0_struck_284","midi_source":""},{"t":343.739,"note":76,"dur":0.325,"vel":1.0,"inst":"harp_v0_bowed_168","midi_source":""},{"t":343.902,"note":48,"dur":0.162,"vel":1.0,"inst":"harp_v0_bowed_168","midi_source":""},{"t":343.902,"note":52,"dur":0.162,"vel":1.0,"inst":"harp_v0_bowed_168","midi_source":""},{"t":343.902,"note":57,"dur":0.162,"vel":1.0,"inst":"tuba_v0_struck_284","midi_source":""},{"t":344.064,"note":48,"dur":0.162,"vel":1.0,"inst":"harp_v0_bowed_168","midi_source":""},{"t":344.064,"note":52,"dur":0.162,"vel":1.0,"inst":"harp_v0_bowed_168","midi_source":""},{"t":344.064,"note":57,"dur":0.162,"vel":1.0,"inst":"tuba_v0_struck_284","midi_source":""},{"t":344.064,"note":69,"dur":0.162,"vel":1.0,"inst":"tuba_v0_struck_284","midi_source":""},{"t":344.226,"note":40,"dur":0.162,"vel":1.0,"inst":"harp_v0_bowed_168","midi_source":""},{"t":344.226,"note":71,"dur":0.081,"vel":1.0,"inst":"tuba_v0_struck_284","midi_source":""},{"t":344.308,"note":76,"dur":0.081,"vel":1.0,"inst":"harp_v0_bowed_168","midi_source":""},{"t":344.389,"note":47,"dur":0.162,"vel":1.0,"inst":"tuba_v0_struck_284","midi_source":""},{"t":344.389,"note":52,"dur":0.162,"vel":1.0,"inst":"harp_v0_bowed_168","midi_source":""},{"t":344.389,"note":55,"dur":0.162,"vel":1.0,"inst":"tuba_v0_struck_284","midi_source":""},{"t":344.389,"note":76,"dur":0.162,"vel":1.0,"inst":"harp_v0_bowed_168","midi_source":""},{"t":344.551,"note":47,"dur":0.162,"vel":1.0,"inst":"tuba_v0_struck_284","midi_source":""},{"t":344.551,"note":52,"dur":0.162,"vel":1.0,"inst":"harp_v0_bowed_168","midi_source":""},{"t":344.551,"note":55,"dur":0.162,"vel":1.0,"inst":"tuba_v0_struck_284","midi_source":""},{"t":344.551,"note":71,"dur":0.162,"vel":1.0,"inst":"tuba_v0_struck_284","midi_source":""},{"t":344.714,"note":45,"dur":0.162,"vel":1.0,"inst":"tuba_v0_struck_284","midi_source":""},{"t":344.714,"note":72,"dur":0.325,"vel":1.0,"inst":"harp_v0_bowed_168","midi_source":""},{"t":344.876,"note":48,"dur":0.162,"vel":1.0,"inst":"harp_v0_bowed_168","midi_source":""},{"t":344.876,"note":52,"dur":0.162,"vel":1.0,"inst":"harp_v0_bowed_168","midi_source":""},{"t":344.876,"note":57,"dur":0.162,"vel":1.0,"inst":"tuba_v0_struck_284","midi_source":""},{"t":345.038,"note":48,"dur":0.162,"vel":1.0,"inst":"harp_v0_bowed_168","midi_source":""},{"t":345.038,"note":52,"dur":0.162,"vel":1.0,"inst":"harp_v0_bowed_168","midi_source":""},{"t":345.038,"note":57,"dur":0.162,"vel":1.0,"inst":"tuba_v0_struck_284","midi_source":""},{"t":345.038,"note":69,"dur":0.162,"vel":1.0,"inst":"tuba_v0_struck_284","midi_source":""},{"t":345.201,"note":40,"dur":0.162,"vel":1.0,"inst":"harp_v0_bowed_168","midi_source":""},{"t":345.201,"note":71,"dur":0.081,"vel":1.0,"inst":"tuba_v0_struck_284","midi_source":""},{"t":345.282,"note":76,"dur":0.081,"vel":1.0,"inst":"harp_v0_bowed_168","midi_source":""},{"t":345.363,"note":47,"dur":0.162,"vel":1.0,"inst":"tuba_v0_struck_284","midi_source":""},{"t":345.363,"note":52,"dur":0.162,"vel":1.0,"inst":"harp_v0_bowed_168","midi_source":""},{"t":345.363,"note":55,"dur":0.162,"vel":1.0,"inst":"tuba_v0_struck_284","midi_source":""},{"t":345.363,"note":76,"dur":0.162,"vel":1.0,"inst":"harp_v0_bowed_168","midi_source":""},{"t":345.525,"note":47,"dur":0.162,"vel":1.0,"inst":"tuba_v0_struck_284","midi_source":""},{"t":345.525,"note":52,"dur":0.162,"vel":1.0,"inst":"harp_v0_bowed_168","midi_source":""},{"t":345.525,"note":55,"dur":0.162,"vel":1.0,"inst":"tuba_v0_struck_284","midi_source":""},{"t":345.525,"note":67,"dur":0.162,"vel":1.0,"inst":"tuba_v0_struck_284","midi_source":""},{"t":345.688,"note":45,"dur":0.487,"vel":1.0,"inst":"tuba_v0_struck_284","midi_source":""},{"t":345.688,"note":48,"dur":0.487,"vel":1.0,"inst":"harp_v0_bowed_168","midi_source":""},{"t":345.688,"note":52,"dur":0.487,"vel":1.0,"inst":"harp_v0_bowed_168","midi_source":""},{"t":345.688,"note":57,"dur":0.487,"vel":1.0,"inst":"tuba_v0_struck_284","midi_source":""},{"t":345.688,"note":69,"dur":0.325,"vel":1.0,"inst":"tuba_v0_struck_284","midi_source":""},{"t":346.094,"note":76,"dur":0.081,"vel":1.0,"inst":"harp_v0_bowed_168","midi_source":""},{"t":346.094,"note":67,"dur":0.081,"vel":1.0,"inst":"tuba_v0_struck_284","midi_source":""},{"t":346.094,"note":79,"dur":0.081,"vel":1.0,"inst":"tuba_v0_struck_284","midi_source":""},{"t":346.175,"note":33,"dur":0.162,"vel":1.0,"inst":"tuba_v0_struck_284","midi_source":""},{"t":346.175,"note":40,"dur":0.162,"vel":1.0,"inst":"harp_v0_bowed_168","midi_source":""},{"t":346.175,"note":45,"dur":0.162,"vel":1.0,"inst":"tuba_v0_struck_284","midi_source":""},{"t":346.175,"note":81,"dur":0.081,"vel":1.0,"inst":"tuba_v0_struck_284","midi_source":""},{"t":346.256,"note":79,"dur":0.081,"vel":1.0,"inst":"tuba_v0_struck_284","midi_source":""},{"t":346.337,"note":48,"dur":0.162,"vel":1.0,"inst":"harp_v0_bowed_168","midi_source":""},{"t":346.337,"note":52,"dur":0.162,"vel":1.0,"inst":"harp_v0_bowed_168","midi_source":""},{"t":346.337,"note":77,"dur":0.081,"vel":1.0,"inst":"tuba_v0_struck_284","midi_source":""},{"t":346.419,"note":76,"dur":0.081,"vel":1.0,"inst":"harp_v0_bowed_168","midi_source":""},{"t":346.5,"note":45,"dur":0.162,"vel":1.0,"inst":"tuba_v0_struck_284","midi_source":""},{"t":346.5,"note":48,"dur":0.162,"vel":1.0,"inst":"harp_v0_bowed_168","midi_source":""},{"t":346.5,"note":74,"dur":0.081,"vel":1.0,"inst":"harp_v0_bowed_168","midi_source":""},{"t":346.581,"note":72,"dur":0.081,"vel":1.0,"inst":"harp_v0_bowed_168","midi_source":""},{"t":346.662,"note":28,"dur":0.162,"vel":1.0,"inst":"harp_v0_bowed_168","midi_source":""},{"t":346.662,"note":35,"dur":0.162,"vel":1.0,"inst":"tuba_v0_struck_284","midi_source":""},{"t":346.662,"note":40,"dur":0.162,"vel":1.0,"inst":"harp_v0_bowed_168","midi_source":""},{"t":346.662,"note":77,"dur":0.162,"vel":1.0,"inst":"tuba_v0_struck_284","midi_source":""},{"t":346.825,"note":47,"dur":0.162,"vel":1.0,"inst":"tuba_v0_struck_284","midi_source":""},{"t":346.825,"note":50,"dur":0.162,"vel":1.0,"inst":"harp_v0_bowed_168","midi_source":""},{"t":346.825,"note":76,"dur":0.081,"vel":1.0,"inst":"harp_v0_bowed_168","midi_source":""},{"t":346.906,"note":74,"dur":0.081,"vel":1.0,"inst":"harp_v0_bowed_168","midi_source":""},{"t":346.987,"note":43,"dur":0.162,"vel":1.0,"inst":"tuba_v0_struck_284","midi_source":""},{"t":346.987,"note":47,"dur":0.162,"vel":1.0,"inst":"tuba_v0_struck_284","midi_source":""},{"t":346.987,"note":72,"dur":0.081,"vel":1.0,"inst":"harp_v0_bowed_168","midi_source":""},{"t":347.068,"note":71,"dur":0.081,"vel":1.0,"inst":"tuba_v0_struck_284","midi_source":""},{"t":347.149,"note":28,"dur":0.162,"vel":1.0,"inst":"harp_v0_bowed_168","midi_source":""},{"t":347.149,"note":35,"dur":0.162,"vel":1.0,"inst":"tuba_v0_struck_284","midi_source":""},{"t":347.149,"note":40,"dur":0.162,"vel":1.0,"inst":"harp_v0_bowed_168","midi_source":""},{"t":347.149,"note":77,"dur":0.162,"vel":1.0,"inst":"tuba_v0_struck_284","midi_source":""},{"t":347.312,"note":47,"dur":0.162,"vel":1.0,"inst":"tuba_v0_struck_284","midi_source":""},{"t":347.312,"note":50,"dur":0.162,"vel":1.0,"inst":"harp_v0_bowed_168","midi_source":""},{"t":347.312,"note":76,"dur":0.081,"vel":1.0,"inst":"harp_v0_bowed_168","midi_source":""},{"t":347.393,"note":74,"dur":0.081,"vel":1.0,"inst":"harp_v0_bowed_168","midi_source":""},{"t":347.474,"note":43,"dur":0.162,"vel":1.0,"inst":"tuba_v0_struck_284","midi_source":""},{"t":347.474,"note":47,"dur":0.162,"vel":1.0,"inst":"tuba_v0_struck_284","midi_source":""},{"t":347.474,"note":72,"dur":0.081,"vel":1.0,"inst":"harp_v0_bowed_168","midi_source":""},{"t":347.637,"note":28,"dur":0.162,"vel":1.0,"inst":"harp_v0_bowed_168","midi_source":""},{"t":347.637,"note":40,"dur":0.162,"vel":1.0,"inst":"harp_v0_bowed_168","midi_source":""},{"t":347.637,"note":59,"dur":0.325,"vel":1.0,"inst":"tuba_v0_struck_284","midi_source":""},{"t":347.637,"note":62,"dur":0.325,"vel":1.0,"inst":"harp_v0_bowed_168","midi_source":""},{"t":347.799,"note":40,"dur":0.162,"vel":1.0,"inst":"harp_v0_bowed_168","midi_source":""},{"t":347.799,"note":43,"dur":0.162,"vel":1.0,"inst":"tuba_v0_struck_284","midi_source":""},{"t":347.799,"note":47,"dur":0.162,"vel":1.0,"inst":"tuba_v0_struck_284","midi_source":""},{"t":347.961,"note":40,"dur":0.162,"vel":1.0,"inst":"harp_v0_bowed_168","midi_source":""},{"t":347.961,"note":43,"dur":0.162,"vel":1.0,"inst":"tuba_v0_struck_284","midi_source":""},{"t":347.961,"note":47,"dur":0.162,"vel":1.0,"inst":"tuba_v0_struck_284","midi_source":""},{"t":347.961,"note":59,"dur":0.162,"vel":1.0,"inst":"tuba_v0_struck_284","midi_source":""},{"t":347.961,"note":62,"dur":0.162,"vel":1.0,"inst":"harp_v0_bowed_168","midi_source":""},{"t":348.124,"note":28,"dur":0.162,"vel":1.0,"inst":"harp_v0_bowed_168","midi_source":""},{"t":348.124,"note":40,"dur":0.162,"vel":1.0,"inst":"harp_v0_bowed_168","midi_source":""},{"t":348.124,"note":59,"dur":0.325,"vel":1.0,"inst":"tuba_v0_struck_284","midi_source":""},{"t":348.124,"note":62,"dur":0.325,"vel":1.0,"inst":"harp_v0_bowed_168","midi_source":""},{"t":348.286,"note":40,"dur":0.162,"vel":1.0,"inst":"harp_v0_bowed_168","midi_source":""},{"t":348.286,"note":43,"dur":0.162,"vel":1.0,"inst":"tuba_v0_struck_284","midi_source":""},{"t":348.286,"note":47,"dur":0.162,"vel":1.0,"inst":"tuba_v0_struck_284","midi_source":""},{"t":348.449,"note":40,"dur":0.162,"vel":1.0,"inst":"harp_v0_bowed_168","midi_source":""},{"t":348.449,"note":43,"dur":0.162,"vel":1.0,"inst":"tuba_v0_struck_284","midi_source":""},{"t":348.449,"note":47,"dur":0.162,"vel":1.0,"inst":"tuba_v0_struck_284","midi_source":""},{"t":348.449,"note":59,"dur":0.162,"vel":1.0,"inst":"tuba_v0_struck_284","midi_source":""},{"t":348.449,"note":62,"dur":0.162,"vel":1.0,"inst":"harp_v0_bowed_168","midi_source":""},{"t":348.611,"note":28,"dur":0.162,"vel":1.0,"inst":"harp_v0_bowed_168","midi_source":""},{"t":348.611,"note":40,"dur":0.162,"vel":1.0,"inst":"harp_v0_bowed_168","midi_source":""},{"t":348.611,"note":64,"dur":0.162,"vel":1.0,"inst":"harp_v0_bowed_168","midi_source":""},{"t":348.611,"note":67,"dur":0.162,"vel":1.0,"inst":"tuba_v0_struck_284","midi_source":""},{"t":348.773,"note":40,"dur":0.162,"vel":1.0,"inst":"harp_v0_bowed_168","midi_source":""},{"t":348.773,"note":43,"dur":0.162,"vel":1.0,"inst":"tuba_v0_struck_284","midi_source":""},{"t":348.773,"note":47,"dur":0.162,"vel":1.0,"inst":"tuba_v0_struck_284","midi_source":""},{"t":348.773,"note":62,"dur":0.162,"vel":1.0,"inst":"harp_v0_bowed_168","midi_source":""},{"t":348.773,"note":55,"dur":0.162,"vel":1.0,"inst":"tuba_v0_struck_284","midi_source":""},{"t":348.936,"note":40,"dur":0.162,"vel":1.0,"inst":"harp_v0_bowed_168","midi_source":""},{"t":348.936,"note":43,"dur":0.162,"vel":1.0,"inst":"tuba_v0_struck_284","midi_source":""},{"t":348.936,"note":47,"dur":0.162,"vel":1.0,"inst":"tuba_v0_struck_284","midi_source":""},{"t":348.936,"note":60,"dur":0.162,"vel":1.0,"inst":"harp_v0_bowed_168","midi_source":""},{"t":348.936,"note":64,"dur":0.162,"vel":1.0,"inst":"harp_v0_bowed_168","midi_source":""},{"t":349.098,"note":28,"dur":0.162,"vel":1.0,"inst":"harp_v0_bowed_168","midi_source":""},{"t":349.098,"note":40,"dur":0.162,"vel":1.0,"inst":"harp_v0_bowed_168","midi_source":""},{"t":349.098,"note":59,"dur":0.162,"vel":1.0,"inst":"tuba_v0_struck_284","midi_source":""},{"t":349.098,"note":62,"dur":0.162,"vel":1.0,"inst":"harp_v0_bowed_168","midi_source":""},{"t":349.261,"note":40,"dur":0.162,"vel":1.0,"inst":"harp_v0_bowed_168","midi_source":""},{"t":349.261,"note":43,"dur":0.162,"vel":1.0,"inst":"tuba_v0_struck_284","midi_source":""},{"t":349.261,"note":47,"dur":0.162,"vel":1.0,"inst":"tuba_v0_struck_284","midi_source":""},{"t":349.261,"note":57,"dur":0.162,"vel":1.0,"inst":"tuba_v0_struck_284","midi_source":""},{"t":349.261,"note":60,"dur":0.162,"vel":1.0,"inst":"harp_v0_bowed_168","midi_source":""},{"t":349.423,"note":40,"dur":0.162,"vel":1.0,"inst":"harp_v0_bowed_168","midi_source":""},{"t":349.423,"note":43,"dur":0.162,"vel":1.0,"inst":"tuba_v0_struck_284","midi_source":""},{"t":349.423,"note":47,"dur":0.162,"vel":1.0,"inst":"tuba_v0_struck_284","midi_source":""},{"t":349.423,"note":55,"dur":0.162,"vel":1.0,"inst":"tuba_v0_struck_284","midi_source":""},{"t":349.423,"note":59,"dur":0.162,"vel":1.0,"inst":"tuba_v0_struck_284","midi_source":""},{"t":349.585,"note":33,"dur":0.162,"vel":1.0,"inst":"tuba_v0_struck_284","midi_source":""},{"t":349.585,"note":57,"dur":0.487,"vel":1.0,"inst":"tuba_v0_struck_284","midi_source":""},{"t":349.748,"note":48,"dur":0.162,"vel":1.0,"inst":"harp_v0_bowed_168","midi_source":""},{"t":349.748,"note":52,"dur":0.162,"vel":1.0,"inst":"harp_v0_bowed_168","midi_source":""},{"t":349.91,"note":48,"dur":0.162,"vel":1.0,"inst":"harp_v0_bowed_168","midi_source":""},{"t":349.91,"note":52,"dur":0.162,"vel":1.0,"inst":"harp_v0_bowed_168","midi_source":""},{"t":350.073,"note":45,"dur":0.162,"vel":1.0,"inst":"tuba_v0_struck_284","midi_source":""},{"t":350.073,"note":69,"dur":0.081,"vel":1.0,"inst":"tuba_v0_struck_284","midi_source":""},{"t":350.154,"note":71,"dur":0.081,"vel":1.0,"inst":"tuba_v0_struck_284","midi_source":""},{"t":350.235,"note":48,"dur":0.162,"vel":1.0,"inst":"harp_v0_bowed_168","midi_source":""},{"t":350.235,"note":52,"dur":0.162,"vel":1.0,"inst":"harp_v0_bowed_168","midi_source":""},{"t":350.235,"note":57,"dur":0.162,"vel":1.0,"inst":"tuba_v0_struck_284","midi_source":""},{"t":350.235,"note":72,"dur":0.162,"vel":1.0,"inst":"harp_v0_bowed_168","midi_source":""},{"t":350.397,"note":48,"dur":0.162,"vel":1.0,"inst":"harp_v0_bowed_168","midi_source":""},{"t":350.397,"note":52,"dur":0.162,"vel":1.0,"inst":"harp_v0_bowed_168","midi_source":""},{"t":350.397,"note":57,"dur":0.162,"vel":1.0,"inst":"tuba_v0_struck_284","midi_source":""},{"t":350.397,"note":74,"dur":0.162,"vel":1.0,"inst":"harp_v0_bowed_168","midi_source":""},{"t":350.56,"note":45,"dur":0.162,"vel":1.0,"inst":"tuba_v0_struck_284","midi_source":""},{"t":350.56,"note":76,"dur":0.325,"vel":1.0,"inst":"harp_v0_bowed_168","midi_source":""},{"t":350.722,"note":48,"dur":0.162,"vel":1.0,"inst":"harp_v0_bowed_168","midi_source":""},{"t":350.722,"note":52,"dur":0.162,"vel":1.0,"inst":"harp_v0_bowed_168","midi_source":""},{"t":350.722,"note":57,"dur":0.162,"vel":1.0,"inst":"tuba_v0_struck_284","midi_source":""},{"t":350.885,"note":48,"dur":0.162,"vel":1.0,"inst":"harp_v0_bowed_168","midi_source":""},{"t":350.885,"note":52,"dur":0.162,"vel":1.0,"inst":"harp_v0_bowed_168","midi_source":""},{"t":350.885,"note":57,"dur":0.162,"vel":1.0,"inst":"tuba_v0_struck_284","midi_source":""},{"t":350.885,"note":77,"dur":0.162,"vel":1.0,"inst":"tuba_v0_struck_284","midi_source":""},{"t":351.047,"note":45,"dur":0.162,"vel":1.0,"inst":"tuba_v0_struck_284","midi_source":""},{"t":351.047,"note":77,"dur":0.081,"vel":1.0,"inst":"tuba_v0_struck_284","midi_source":""},{"t":351.047,"note":79,"dur":0.081,"vel":1.0,"inst":"tuba_v0_struck_284","midi_source":""},{"t":351.128,"note":76,"dur":0.081,"vel":1.0,"inst":"harp_v0_bowed_168","midi_source":""},{"t":351.209,"note":48,"dur":0.162,"vel":1.0,"inst":"harp_v0_bowed_168","midi_source":""},{"t":351.209,"note":52,"dur":0.162,"vel":1.0,"inst":"harp_v0_bowed_168","midi_source":""},{"t":351.209,"note":57,"dur":0.162,"vel":1.0,"inst":"tuba_v0_struck_284","midi_source":""},{"t":351.209,"note":76,"dur":0.162,"vel":1.0,"inst":"harp_v0_bowed_168","midi_source":""},{"t":351.372,"note":48,"dur":0.162,"vel":1.0,"inst":"harp_v0_bowed_168","midi_source":""},{"t":351.372,"note":52,"dur":0.162,"vel":1.0,"inst":"harp_v0_bowed_168","midi_source":""},{"t":351.372,"note":57,"dur":0.162,"vel":1.0,"inst":"tuba_v0_struck_284","midi_source":""},{"t":351.372,"note":81,"dur":0.162,"vel":1.0,"inst":"tuba_v0_struck_284","midi_source":""},{"t":351.534,"note":45,"dur":0.162,"vel":1.0,"inst":"tuba_v0_struck_284","midi_source":""},{"t":351.534,"note":76,"dur":0.325,"vel":1.0,"inst":"harp_v0_bowed_168","midi_source":""},{"t":351.696,"note":48,"dur":0.162,"vel":1.0,"inst":"harp_v0_bowed_168","midi_source":""},{"t":351.696,"note":52,"dur":0.162,"vel":1.0,"inst":"harp_v0_bowed_168","midi_source":""},{"t":351.696,"note":57,"dur":0.162,"vel":1.0,"inst":"tuba_v0_struck_284","midi_source":""},{"t":351.859,"note":48,"dur":0.162,"vel":1.0,"inst":"harp_v0_bowed_168","midi_source":""},{"t":351.859,"note":52,"dur":0.162,"vel":1.0,"inst":"harp_v0_bowed_168","midi_source":""},{"t":351.859,"note":57,"dur":0.162,"vel":1.0,"inst":"tuba_v0_struck_284","midi_source":""},{"t":351.859,"note":69,"dur":0.162,"vel":1.0,"inst":"tuba_v0_struck_284","midi_source":""},{"t":352.021,"note":40,"dur":0.162,"vel":1.0,"inst":"harp_v0_bowed_168","midi_source":""},{"t":352.021,"note":71,"dur":0.081,"vel":1.0,"inst":"tuba_v0_struck_284","midi_source":""},{"t":352.102,"note":76,"dur":0.081,"vel":1.0,"inst":"harp_v0_bowed_168","midi_source":""},{"t":352.184,"note":47,"dur":0.162,"vel":1.0,"inst":"tuba_v0_struck_284","midi_source":""},{"t":352.184,"note":52,"dur":0.162,"vel":1.0,"inst":"harp_v0_bowed_168","midi_source":""},{"t":352.184,"note":55,"dur":0.162,"vel":1.0,"inst":"tuba_v0_struck_284","midi_source":""},{"t":352.184,"note":76,"dur":0.162,"vel":1.0,"inst":"harp_v0_bowed_168","midi_source":""},{"t":352.346,"note":47,"dur":0.162,"vel":1.0,"inst":"tuba_v0_struck_284","midi_source":""},{"t":352.346,"note":52,"dur":0.162,"vel":1.0,"inst":"harp_v0_bowed_168","midi_source":""},{"t":352.346,"note":55,"dur":0.162,"vel":1.0,"inst":"tuba_v0_struck_284","midi_source":""},{"t":352.346,"note":71,"dur":0.162,"vel":1.0,"inst":"tuba_v0_struck_284","midi_source":""},{"t":352.508,"note":45,"dur":0.162,"vel":1.0,"inst":"tuba_v0_struck_284","midi_source":""},{"t":352.508,"note":72,"dur":0.325,"vel":1.0,"inst":"harp_v0_bowed_168","midi_source":""},{"t":352.671,"note":48,"dur":0.162,"vel":1.0,"inst":"harp_v0_bowed_168","midi_source":""},{"t":352.671,"note":52,"dur":0.162,"vel":1.0,"inst":"harp_v0_bowed_168","midi_source":""},{"t":352.671,"note":57,"dur":0.162,"vel":1.0,"inst":"tuba_v0_struck_284","midi_source":""},{"t":352.833,"note":48,"dur":0.162,"vel":1.0,"inst":"harp_v0_bowed_168","midi_source":""},{"t":352.833,"note":52,"dur":0.162,"vel":1.0,"inst":"harp_v0_bowed_168","midi_source":""},{"t":352.833,"note":57,"dur":0.162,"vel":1.0,"inst":"tuba_v0_struck_284","midi_source":""},{"t":352.833,"note":69,"dur":0.162,"vel":1.0,"inst":"tuba_v0_struck_284","midi_source":""},{"t":352.996,"note":40,"dur":0.162,"vel":1.0,"inst":"harp_v0_bowed_168","midi_source":""},{"t":352.996,"note":71,"dur":0.081,"vel":1.0,"inst":"tuba_v0_struck_284","midi_source":""},{"t":353.077,"note":76,"dur":0.081,"vel":1.0,"inst":"harp_v0_bowed_168","midi_source":""},{"t":353.158,"note":47,"dur":0.162,"vel":1.0,"inst":"tuba_v0_struck_284","midi_source":""},{"t":353.158,"note":52,"dur":0.162,"vel":1.0,"inst":"harp_v0_bowed_168","midi_source":""},{"t":353.158,"note":55,"dur":0.162,"vel":1.0,"inst":"tuba_v0_struck_284","midi_source":""},{"t":353.158,"note":76,"dur":0.162,"vel":1.0,"inst":"harp_v0_bowed_168","midi_source":""},{"t":353.32,"note":47,"dur":0.162,"vel":1.0,"inst":"tuba_v0_struck_284","midi_source":""},{"t":353.32,"note":52,"dur":0.162,"vel":1.0,"inst":"harp_v0_bowed_168","midi_source":""},{"t":353.32,"note":55,"dur":0.162,"vel":1.0,"inst":"tuba_v0_struck_284","midi_source":""},{"t":353.32,"note":67,"dur":0.162,"vel":1.0,"inst":"tuba_v0_struck_284","midi_source":""},{"t":353.483,"note":45,"dur":0.487,"vel":1.0,"inst":"tuba_v0_struck_284","midi_source":""},{"t":353.483,"note":48,"dur":0.487,"vel":1.0,"inst":"harp_v0_bowed_168","midi_source":""},{"t":353.483,"note":52,"dur":0.487,"vel":1.0,"inst":"harp_v0_bowed_168","midi_source":""},{"t":353.483,"note":57,"dur":0.487,"vel":1.0,"inst":"tuba_v0_struck_284","midi_source":""},{"t":353.483,"note":69,"dur":0.325,"vel":1.0,"inst":"tuba_v0_struck_284","midi_source":""},{"t":353.889,"note":76,"dur":0.081,"vel":1.0,"inst":"harp_v0_bowed_168","midi_source":""},{"t":353.889,"note":67,"dur":0.081,"vel":1.0,"inst":"tuba_v0_struck_284","midi_source":""},{"t":353.889,"note":79,"dur":0.081,"vel":1.0,"inst":"tuba_v0_struck_284","midi_source":""},{"t":353.97,"note":33,"dur":0.162,"vel":1.0,"inst":"tuba_v0_struck_284","midi_source":""},{"t":353.97,"note":40,"dur":0.162,"vel":1.0,"inst":"harp_v0_bowed_168","midi_source":""},{"t":353.97,"note":45,"dur":0.162,"vel":1.0,"inst":"tuba_v0_struck_284","midi_source":""},{"t":353.97,"note":81,"dur":0.081,"vel":1.0,"inst":"tuba_v0_struck_284","midi_source":""},{"t":354.051,"note":79,"dur":0.081,"vel":1.0,"inst":"tuba_v0_struck_284","midi_source":""},{"t":354.132,"note":48,"dur":0.162,"vel":1.0,"inst":"harp_v0_bowed_168","midi_source":""},{"t":354.132,"note":52,"dur":0.162,"vel":1.0,"inst":"harp_v0_bowed_168","midi_source":""},{"t":354.132,"note":77,"dur":0.081,"vel":1.0,"inst":"tuba_v0_struck_284","midi_source":""},{"t":354.214,"note":76,"dur":0.081,"vel":1.0,"inst":"harp_v0_bowed_168","midi_source":""},{"t":354.295,"note":45,"dur":0.162,"vel":1.0,"inst":"tuba_v0_struck_284","midi_source":""},{"t":354.295,"note":48,"dur":0.162,"vel":1.0,"inst":"harp_v0_bowed_168","midi_source":""},{"t":354.295,"note":74,"dur":0.081,"vel":1.0,"inst":"harp_v0_bowed_168","midi_source":""},{"t":354.376,"note":72,"dur":0.081,"vel":1.0,"inst":"harp_v0_bowed_168","midi_source":""},{"t":354.457,"note":28,"dur":0.162,"vel":1.0,"inst":"harp_v0_bowed_168","midi_source":""},{"t":354.457,"note":35,"dur":0.162,"vel":1.0,"inst":"tuba_v0_struck_284","midi_source":""},{"t":354.457,"note":40,"dur":0.162,"vel":1.0,"inst":"harp_v0_bowed_168","midi_source":""},{"t":354.457,"note":77,"dur":0.162,"vel":1.0,"inst":"tuba_v0_struck_284","midi_source":""},{"t":354.62,"note":47,"dur":0.162,"vel":1.0,"inst":"tuba_v0_struck_284","midi_source":""},{"t":354.62,"note":50,"dur":0.162,"vel":1.0,"inst":"harp_v0_bowed_168","midi_source":""},{"t":354.62,"note":76,"dur":0.081,"vel":1.0,"inst":"harp_v0_bowed_168","midi_source":""},{"t":354.701,"note":74,"dur":0.081,"vel":1.0,"inst":"harp_v0_bowed_168","midi_source":""},{"t":354.782,"note":43,"dur":0.162,"vel":1.0,"inst":"tuba_v0_struck_284","midi_source":""},{"t":354.782,"note":47,"dur":0.162,"vel":1.0,"inst":"tuba_v0_struck_284","midi_source":""},{"t":354.782,"note":72,"dur":0.081,"vel":1.0,"inst":"harp_v0_bowed_168","midi_source":""},{"t":354.863,"note":71,"dur":0.081,"vel":1.0,"inst":"tuba_v0_struck_284","midi_source":""},{"t":354.944,"note":28,"dur":0.162,"vel":1.0,"inst":"harp_v0_bowed_168","midi_source":""},{"t":354.944,"note":35,"dur":0.162,"vel":1.0,"inst":"tuba_v0_struck_284","midi_source":""},{"t":354.944,"note":40,"dur":0.162,"vel":1.0,"inst":"harp_v0_bowed_168","midi_source":""},{"t":354.944,"note":77,"dur":0.162,"vel":1.0,"inst":"tuba_v0_struck_284","midi_source":""},{"t":355.107,"note":47,"dur":0.162,"vel":1.0,"inst":"tuba_v0_struck_284","midi_source":""},{"t":355.107,"note":50,"dur":0.162,"vel":1.0,"inst":"harp_v0_bowed_168","midi_source":""},{"t":355.107,"note":76,"dur":0.081,"vel":1.0,"inst":"harp_v0_bowed_168","midi_source":""},{"t":355.188,"note":74,"dur":0.081,"vel":1.0,"inst":"harp_v0_bowed_168","midi_source":""},{"t":355.269,"note":43,"dur":0.162,"vel":1.0,"inst":"tuba_v0_struck_284","midi_source":""},{"t":355.269,"note":47,"dur":0.162,"vel":1.0,"inst":"tuba_v0_struck_284","midi_source":""},{"t":355.269,"note":72,"dur":0.081,"vel":1.0,"inst":"harp_v0_bowed_168","midi_source":""},{"t":355.432,"note":28,"dur":0.162,"vel":1.0,"inst":"harp_v0_bowed_168","midi_source":""},{"t":355.432,"note":40,"dur":0.162,"vel":1.0,"inst":"harp_v0_bowed_168","midi_source":""},{"t":355.432,"note":59,"dur":0.325,"vel":1.0,"inst":"tuba_v0_struck_284","midi_source":""},{"t":355.432,"note":62,"dur":0.325,"vel":1.0,"inst":"harp_v0_bowed_168","midi_source":""},{"t":355.594,"note":40,"dur":0.162,"vel":1.0,"inst":"harp_v0_bowed_168","midi_source":""},{"t":355.594,"note":43,"dur":0.162,"vel":1.0,"inst":"tuba_v0_struck_284","midi_source":""},{"t":355.594,"note":47,"dur":0.162,"vel":1.0,"inst":"tuba_v0_struck_284","midi_source":""},{"t":355.756,"note":40,"dur":0.162,"vel":1.0,"inst":"harp_v0_bowed_168","midi_source":""},{"t":355.756,"note":43,"dur":0.162,"vel":1.0,"inst":"tuba_v0_struck_284","midi_source":""},{"t":355.756,"note":47,"dur":0.162,"vel":1.0,"inst":"tuba_v0_struck_284","midi_source":""},{"t":355.756,"note":59,"dur":0.162,"vel":1.0,"inst":"tuba_v0_struck_284","midi_source":""},{"t":355.756,"note":62,"dur":0.162,"vel":1.0,"inst":"harp_v0_bowed_168","midi_source":""},{"t":355.919,"note":28,"dur":0.162,"vel":1.0,"inst":"harp_v0_bowed_168","midi_source":""},{"t":355.919,"note":40,"dur":0.162,"vel":1.0,"inst":"harp_v0_bowed_168","midi_source":""},{"t":355.919,"note":59,"dur":0.325,"vel":1.0,"inst":"tuba_v0_struck_284","midi_source":""},{"t":355.919,"note":62,"dur":0.325,"vel":1.0,"inst":"harp_v0_bowed_168","midi_source":""},{"t":356.081,"note":40,"dur":0.162,"vel":1.0,"inst":"harp_v0_bowed_168","midi_source":""},{"t":356.081,"note":43,"dur":0.162,"vel":1.0,"inst":"tuba_v0_struck_284","midi_source":""},{"t":356.081,"note":47,"dur":0.162,"vel":1.0,"inst":"tuba_v0_struck_284","midi_source":""},{"t":356.244,"note":40,"dur":0.162,"vel":1.0,"inst":"harp_v0_bowed_168","midi_source":""},{"t":356.244,"note":43,"dur":0.162,"vel":1.0,"inst":"tuba_v0_struck_284","midi_source":""},{"t":356.244,"note":47,"dur":0.162,"vel":1.0,"inst":"tuba_v0_struck_284","midi_source":""},{"t":356.244,"note":59,"dur":0.162,"vel":1.0,"inst":"tuba_v0_struck_284","midi_source":""},{"t":356.244,"note":62,"dur":0.162,"vel":1.0,"inst":"harp_v0_bowed_168","midi_source":""},{"t":356.406,"note":28,"dur":0.162,"vel":1.0,"inst":"harp_v0_bowed_168","midi_source":""},{"t":356.406,"note":40,"dur":0.162,"vel":1.0,"inst":"harp_v0_bowed_168","midi_source":""},{"t":356.406,"note":64,"dur":0.162,"vel":1.0,"inst":"harp_v0_bowed_168","midi_source":""},{"t":356.406,"note":67,"dur":0.162,"vel":1.0,"inst":"tuba_v0_struck_284","midi_source":""},{"t":356.568,"note":40,"dur":0.162,"vel":1.0,"inst":"harp_v0_bowed_168","midi_source":""},{"t":356.568,"note":43,"dur":0.162,"vel":1.0,"inst":"tuba_v0_struck_284","midi_source":""},{"t":356.568,"note":47,"dur":0.162,"vel":1.0,"inst":"tuba_v0_struck_284","midi_source":""},{"t":356.568,"note":62,"dur":0.162,"vel":1.0,"inst":"harp_v0_bowed_168","midi_source":""},{"t":356.568,"note":55,"dur":0.162,"vel":1.0,"inst":"tuba_v0_struck_284","midi_source":""},{"t":356.731,"note":40,"dur":0.162,"vel":1.0,"inst":"harp_v0_bowed_168","midi_source":""},{"t":356.731,"note":43,"dur":0.162,"vel":1.0,"inst":"tuba_v0_struck_284","midi_source":""},{"t":356.731,"note":47,"dur":0.162,"vel":1.0,"inst":"tuba_v0_struck_284","midi_source":""},{"t":356.731,"note":60,"dur":0.162,"vel":1.0,"inst":"harp_v0_bowed_168","midi_source":""},{"t":356.731,"note":64,"dur":0.162,"vel":1.0,"inst":"harp_v0_bowed_168","midi_source":""},{"t":356.893,"note":28,"dur":0.162,"vel":1.0,"inst":"harp_v0_bowed_168","midi_source":""},{"t":356.893,"note":40,"dur":0.162,"vel":1.0,"inst":"harp_v0_bowed_168","midi_source":""},{"t":356.893,"note":59,"dur":0.162,"vel":1.0,"inst":"tuba_v0_struck_284","midi_source":""},{"t":356.893,"note":62,"dur":0.162,"vel":1.0,"inst":"harp_v0_bowed_168","midi_source":""},{"t":357.055,"note":40,"dur":0.162,"vel":1.0,"inst":"harp_v0_bowed_168","midi_source":""},{"t":357.055,"note":43,"dur":0.162,"vel":1.0,"inst":"tuba_v0_struck_284","midi_source":""},{"t":357.055,"note":47,"dur":0.162,"vel":1.0,"inst":"tuba_v0_struck_284","midi_source":""},{"t":357.055,"note":57,"dur":0.162,"vel":1.0,"inst":"tuba_v0_struck_284","midi_source":""},{"t":357.055,"note":60,"dur":0.162,"vel":1.0,"inst":"harp_v0_bowed_168","midi_source":""},{"t":357.218,"note":40,"dur":0.162,"vel":1.0,"inst":"harp_v0_bowed_168","midi_source":""},{"t":357.218,"note":43,"dur":0.162,"vel":1.0,"inst":"tuba_v0_struck_284","midi_source":""},{"t":357.218,"note":47,"dur":0.162,"vel":1.0,"inst":"tuba_v0_struck_284","midi_source":""},{"t":357.218,"note":55,"dur":0.162,"vel":1.0,"inst":"tuba_v0_struck_284","midi_source":""},{"t":357.218,"note":59,"dur":0.162,"vel":1.0,"inst":"tuba_v0_struck_284","midi_source":""},{"t":357.38,"note":33,"dur":0.162,"vel":1.0,"inst":"tuba_v0_struck_284","midi_source":""},{"t":357.38,"note":57,"dur":0.487,"vel":1.0,"inst":"tuba_v0_struck_284","midi_source":""},{"t":357.543,"note":48,"dur":0.162,"vel":1.0,"inst":"harp_v0_bowed_168","midi_source":""},{"t":357.543,"note":52,"dur":0.162,"vel":1.0,"inst":"harp_v0_bowed_168","midi_source":""},{"t":357.705,"note":48,"dur":0.162,"vel":1.0,"inst":"harp_v0_bowed_168","midi_source":""},{"t":357.705,"note":52,"dur":0.162,"vel":1.0,"inst":"harp_v0_bowed_168","midi_source":""},{"t":357.867,"note":45,"dur":0.162,"vel":1.0,"inst":"tuba_v0_struck_284","midi_source":""},{"t":357.867,"note":69,"dur":0.081,"vel":1.0,"inst":"tuba_v0_struck_284","midi_source":""},{"t":357.949,"note":71,"dur":0.081,"vel":1.0,"inst":"tuba_v0_struck_284","midi_source":""},{"t":358.03,"note":48,"dur":0.162,"vel":1.0,"inst":"harp_v0_bowed_168","midi_source":""},{"t":358.03,"note":52,"dur":0.162,"vel":1.0,"inst":"harp_v0_bowed_168","midi_source":""},{"t":358.03,"note":57,"dur":0.162,"vel":1.0,"inst":"tuba_v0_struck_284","midi_source":""},{"t":358.03,"note":72,"dur":0.162,"vel":1.0,"inst":"harp_v0_bowed_168","midi_source":""},{"t":358.192,"note":48,"dur":0.162,"vel":1.0,"inst":"harp_v0_bowed_168","midi_source":""},{"t":358.192,"note":52,"dur":0.162,"vel":1.0,"inst":"harp_v0_bowed_168","midi_source":""},{"t":358.192,"note":57,"dur":0.162,"vel":1.0,"inst":"tuba_v0_struck_284","midi_source":""},{"t":358.192,"note":74,"dur":0.162,"vel":1.0,"inst":"harp_v0_bowed_168","midi_source":""},{"t":358.355,"note":45,"dur":0.162,"vel":1.0,"inst":"tuba_v0_struck_284","midi_source":""},{"t":358.355,"note":76,"dur":0.325,"vel":1.0,"inst":"harp_v0_bowed_168","midi_source":""},{"t":358.517,"note":48,"dur":0.162,"vel":1.0,"inst":"harp_v0_bowed_168","midi_source":""},{"t":358.517,"note":52,"dur":0.162,"vel":1.0,"inst":"harp_v0_bowed_168","midi_source":""},{"t":358.517,"note":57,"dur":0.162,"vel":1.0,"inst":"tuba_v0_struck_284","midi_source":""},{"t":358.679,"note":48,"dur":0.162,"vel":1.0,"inst":"harp_v0_bowed_168","midi_source":""},{"t":358.679,"note":52,"dur":0.162,"vel":1.0,"inst":"harp_v0_bowed_168","midi_source":""},{"t":358.679,"note":57,"dur":0.162,"vel":1.0,"inst":"tuba_v0_struck_284","midi_source":""},{"t":358.679,"note":77,"dur":0.162,"vel":1.0,"inst":"tuba_v0_struck_284","midi_source":""},{"t":358.842,"note":45,"dur":0.162,"vel":1.0,"inst":"tuba_v0_struck_284","midi_source":""},{"t":358.842,"note":77,"dur":0.081,"vel":1.0,"inst":"tuba_v0_struck_284","midi_source":""},{"t":358.842,"note":79,"dur":0.081,"vel":1.0,"inst":"tuba_v0_struck_284","midi_source":""},{"t":358.923,"note":76,"dur":0.081,"vel":1.0,"inst":"harp_v0_bowed_168","midi_source":""},{"t":359.004,"note":48,"dur":0.162,"vel":1.0,"inst":"harp_v0_bowed_168","midi_source":""},{"t":359.004,"note":52,"dur":0.162,"vel":1.0,"inst":"harp_v0_bowed_168","midi_source":""},{"t":359.004,"note":57,"dur":0.162,"vel":1.0,"inst":"tuba_v0_struck_284","midi_source":""},{"t":359.004,"note":76,"dur":0.162,"vel":1.0,"inst":"harp_v0_bowed_168","midi_source":""},{"t":359.167,"note":48,"dur":0.162,"vel":1.0,"inst":"harp_v0_bowed_168","midi_source":""},{"t":359.167,"note":52,"dur":0.162,"vel":1.0,"inst":"harp_v0_bowed_168","midi_source":""},{"t":359.167,"note":57,"dur":0.162,"vel":1.0,"inst":"tuba_v0_struck_284","midi_source":""},{"t":359.167,"note":81,"dur":0.162,"vel":1.0,"inst":"tuba_v0_struck_284","midi_source":""},{"t":359.329,"note":45,"dur":0.162,"vel":1.0,"inst":"tuba_v0_struck_284","midi_source":""},{"t":359.329,"note":76,"dur":0.325,"vel":1.0,"inst":"harp_v0_bowed_168","midi_source":""},{"t":359.491,"note":48,"dur":0.162,"vel":1.0,"inst":"harp_v0_bowed_168","midi_source":""},{"t":359.491,"note":52,"dur":0.162,"vel":1.0,"inst":"harp_v0_bowed_168","midi_source":""},{"t":359.491,"note":57,"dur":0.162,"vel":1.0,"inst":"tuba_v0_struck_284","midi_source":""},{"t":359.654,"note":48,"dur":0.162,"vel":1.0,"inst":"harp_v0_bowed_168","midi_source":""},{"t":359.654,"note":52,"dur":0.162,"vel":1.0,"inst":"harp_v0_bowed_168","midi_source":""},{"t":359.654,"note":57,"dur":0.162,"vel":1.0,"inst":"tuba_v0_struck_284","midi_source":""},{"t":359.654,"note":69,"dur":0.162,"vel":1.0,"inst":"tuba_v0_struck_284","midi_source":""},{"t":359.816,"note":40,"dur":0.162,"vel":1.0,"inst":"harp_v0_bowed_168","midi_source":""},{"t":359.816,"note":71,"dur":0.081,"vel":1.0,"inst":"tuba_v0_struck_284","midi_source":""},{"t":359.897,"note":76,"dur":0.081,"vel":1.0,"inst":"harp_v0_bowed_168","midi_source":""},{"t":359.979,"note":47,"dur":0.162,"vel":1.0,"inst":"tuba_v0_struck_284","midi_source":""},{"t":359.979,"note":52,"dur":0.162,"vel":1.0,"inst":"harp_v0_bowed_168","midi_source":""},{"t":359.979,"note":55,"dur":0.162,"vel":1.0,"inst":"tuba_v0_struck_284","midi_source":""},{"t":359.979,"note":76,"dur":0.162,"vel":1.0,"inst":"harp_v0_bowed_168","midi_source":""},{"t":360.141,"note":47,"dur":0.162,"vel":1.0,"inst":"tuba_v0_struck_284","midi_source":""},{"t":360.141,"note":52,"dur":0.162,"vel":1.0,"inst":"harp_v0_bowed_168","midi_source":""},{"t":360.141,"note":55,"dur":0.162,"vel":1.0,"inst":"tuba_v0_struck_284","midi_source":""},{"t":360.141,"note":71,"dur":0.162,"vel":1.0,"inst":"tuba_v0_struck_284","midi_source":""},{"t":360.303,"note":45,"dur":0.162,"vel":1.0,"inst":"tuba_v0_struck_284","midi_source":""},{"t":360.303,"note":72,"dur":0.325,"vel":1.0,"inst":"harp_v0_bowed_168","midi_source":""},{"t":360.466,"note":48,"dur":0.162,"vel":1.0,"inst":"harp_v0_bowed_168","midi_source":""},{"t":360.466,"note":52,"dur":0.162,"vel":1.0,"inst":"harp_v0_bowed_168","midi_source":""},{"t":360.466,"note":57,"dur":0.162,"vel":1.0,"inst":"tuba_v0_struck_284","midi_source":""},{"t":360.628,"note":48,"dur":0.162,"vel":1.0,"inst":"harp_v0_bowed_168","midi_source":""},{"t":360.628,"note":52,"dur":0.162,"vel":1.0,"inst":"harp_v0_bowed_168","midi_source":""},{"t":360.628,"note":57,"dur":0.162,"vel":1.0,"inst":"tuba_v0_struck_284","midi_source":""},{"t":360.628,"note":69,"dur":0.162,"vel":1.0,"inst":"tuba_v0_struck_284","midi_source":""},{"t":360.791,"note":40,"dur":0.162,"vel":1.0,"inst":"harp_v0_bowed_168","midi_source":""},{"t":360.791,"note":71,"dur":0.081,"vel":1.0,"inst":"tuba_v0_struck_284","midi_source":""},{"t":360.872,"note":76,"dur":0.081,"vel":1.0,"inst":"harp_v0_bowed_168","midi_source":""},{"t":360.953,"note":47,"dur":0.162,"vel":1.0,"inst":"tuba_v0_struck_284","midi_source":""},{"t":360.953,"note":52,"dur":0.162,"vel":1.0,"inst":"harp_v0_bowed_168","midi_source":""},{"t":360.953,"note":55,"dur":0.162,"vel":1.0,"inst":"tuba_v0_struck_284","midi_source":""},{"t":360.953,"note":76,"dur":0.162,"vel":1.0,"inst":"harp_v0_bowed_168","midi_source":""},{"t":361.115,"note":47,"dur":0.162,"vel":1.0,"inst":"tuba_v0_struck_284","midi_source":""},{"t":361.115,"note":52,"dur":0.162,"vel":1.0,"inst":"harp_v0_bowed_168","midi_source":""},{"t":361.115,"note":55,"dur":0.162,"vel":1.0,"inst":"tuba_v0_struck_284","midi_source":""},{"t":361.115,"note":67,"dur":0.162,"vel":1.0,"inst":"tuba_v0_struck_284","midi_source":""},{"t":361.278,"note":45,"dur":0.487,"vel":1.0,"inst":"tuba_v0_struck_284","midi_source":""},{"t":361.278,"note":48,"dur":0.487,"vel":1.0,"inst":"harp_v0_bowed_168","midi_source":""},{"t":361.278,"note":52,"dur":0.487,"vel":1.0,"inst":"harp_v0_bowed_168","midi_source":""},{"t":361.278,"note":57,"dur":0.487,"vel":1.0,"inst":"tuba_v0_struck_284","midi_source":""},{"t":361.278,"note":69,"dur":0.325,"vel":1.0,"inst":"tuba_v0_struck_284","midi_source":""},{"t":361.684,"note":76,"dur":0.081,"vel":1.0,"inst":"harp_v0_bowed_168","midi_source":""},{"t":361.684,"note":67,"dur":0.081,"vel":1.0,"inst":"tuba_v0_struck_284","midi_source":""},{"t":361.684,"note":79,"dur":0.081,"vel":1.0,"inst":"tuba_v0_struck_284","midi_source":""},{"t":361.765,"note":33,"dur":0.162,"vel":1.0,"inst":"tuba_v0_struck_284","midi_source":""},{"t":361.765,"note":40,"dur":0.162,"vel":1.0,"inst":"harp_v0_bowed_168","midi_source":""},{"t":361.765,"note":45,"dur":0.162,"vel":1.0,"inst":"tuba_v0_struck_284","midi_source":""},{"t":361.765,"note":81,"dur":0.081,"vel":1.0,"inst":"tuba_v0_struck_284","midi_source":""},{"t":361.846,"note":79,"dur":0.081,"vel":1.0,"inst":"tuba_v0_struck_284","midi_source":""},{"t":361.927,"note":48,"dur":0.162,"vel":1.0,"inst":"harp_v0_bowed_168","midi_source":""},{"t":361.927,"note":52,"dur":0.162,"vel":1.0,"inst":"harp_v0_bowed_168","midi_source":""},{"t":361.927,"note":77,"dur":0.081,"vel":1.0,"inst":"tuba_v0_struck_284","midi_source":""},{"t":362.009,"note":76,"dur":0.081,"vel":1.0,"inst":"harp_v0_bowed_168","midi_source":""},{"t":362.09,"note":45,"dur":0.162,"vel":1.0,"inst":"tuba_v0_struck_284","midi_source":""},{"t":362.09,"note":48,"dur":0.162,"vel":1.0,"inst":"harp_v0_bowed_168","midi_source":""},{"t":362.09,"note":74,"dur":0.081,"vel":1.0,"inst":"harp_v0_bowed_168","midi_source":""},{"t":362.171,"note":72,"dur":0.081,"vel":1.0,"inst":"harp_v0_bowed_168","midi_source":""},{"t":362.252,"note":28,"dur":0.162,"vel":1.0,"inst":"harp_v0_bowed_168","midi_source":""},{"t":362.252,"note":35,"dur":0.162,"vel":1.0,"inst":"tuba_v0_struck_284","midi_source":""},{"t":362.252,"note":40,"dur":0.162,"vel":1.0,"inst":"harp_v0_bowed_168","midi_source":""},{"t":362.252,"note":77,"dur":0.162,"vel":1.0,"inst":"tuba_v0_struck_284","midi_source":""},{"t":362.415,"note":47,"dur":0.162,"vel":1.0,"inst":"tuba_v0_struck_284","midi_source":""},{"t":362.415,"note":50,"dur":0.162,"vel":1.0,"inst":"harp_v0_bowed_168","midi_source":""},{"t":362.415,"note":76,"dur":0.081,"vel":1.0,"inst":"harp_v0_bowed_168","midi_source":""},{"t":362.496,"note":74,"dur":0.081,"vel":1.0,"inst":"harp_v0_bowed_168","midi_source":""},{"t":362.577,"note":43,"dur":0.162,"vel":1.0,"inst":"tuba_v0_struck_284","midi_source":""},{"t":362.577,"note":47,"dur":0.162,"vel":1.0,"inst":"tuba_v0_struck_284","midi_source":""},{"t":362.577,"note":72,"dur":0.081,"vel":1.0,"inst":"harp_v0_bowed_168","midi_source":""},{"t":362.658,"note":71,"dur":0.081,"vel":1.0,"inst":"tuba_v0_struck_284","midi_source":""},{"t":362.739,"note":28,"dur":0.162,"vel":1.0,"inst":"harp_v0_bowed_168","midi_source":""},{"t":362.739,"note":35,"dur":0.162,"vel":1.0,"inst":"tuba_v0_struck_284","midi_source":""},{"t":362.739,"note":40,"dur":0.162,"vel":1.0,"inst":"harp_v0_bowed_168","midi_source":""},{"t":362.739,"note":77,"dur":0.162,"vel":1.0,"inst":"tuba_v0_struck_284","midi_source":""},{"t":362.902,"note":47,"dur":0.162,"vel":1.0,"inst":"tuba_v0_struck_284","midi_source":""},{"t":362.902,"note":50,"dur":0.162,"vel":1.0,"inst":"harp_v0_bowed_168","midi_source":""},{"t":362.902,"note":76,"dur":0.081,"vel":1.0,"inst":"harp_v0_bowed_168","midi_source":""},{"t":362.983,"note":74,"dur":0.081,"vel":1.0,"inst":"harp_v0_bowed_168","midi_source":""},{"t":363.064,"note":43,"dur":0.162,"vel":1.0,"inst":"tuba_v0_struck_284","midi_source":""},{"t":363.064,"note":47,"dur":0.162,"vel":1.0,"inst":"tuba_v0_struck_284","midi_source":""},{"t":363.064,"note":72,"dur":0.081,"vel":1.0,"inst":"harp_v0_bowed_168","midi_source":""},{"t":363.226,"note":28,"dur":0.162,"vel":1.0,"inst":"harp_v0_bowed_168","midi_source":""},{"t":363.226,"note":40,"dur":0.162,"vel":1.0,"inst":"harp_v0_bowed_168","midi_source":""},{"t":363.226,"note":59,"dur":0.325,"vel":1.0,"inst":"tuba_v0_struck_284","midi_source":""},{"t":363.226,"note":62,"dur":0.325,"vel":1.0,"inst":"harp_v0_bowed_168","midi_source":""},{"t":363.389,"note":40,"dur":0.162,"vel":1.0,"inst":"harp_v0_bowed_168","midi_source":""},{"t":363.389,"note":43,"dur":0.162,"vel":1.0,"inst":"tuba_v0_struck_284","midi_source":""},{"t":363.389,"note":47,"dur":0.162,"vel":1.0,"inst":"tuba_v0_struck_284","midi_source":""},{"t":363.551,"note":40,"dur":0.162,"vel":1.0,"inst":"harp_v0_bowed_168","midi_source":""},{"t":363.551,"note":43,"dur":0.162,"vel":1.0,"inst":"tuba_v0_struck_284","midi_source":""},{"t":363.551,"note":47,"dur":0.162,"vel":1.0,"inst":"tuba_v0_struck_284","midi_source":""},{"t":363.551,"note":59,"dur":0.162,"vel":1.0,"inst":"tuba_v0_struck_284","midi_source":""},{"t":363.551,"note":62,"dur":0.162,"vel":1.0,"inst":"harp_v0_bowed_168","midi_source":""},{"t":363.714,"note":28,"dur":0.162,"vel":1.0,"inst":"harp_v0_bowed_168","midi_source":""},{"t":363.714,"note":40,"dur":0.162,"vel":1.0,"inst":"harp_v0_bowed_168","midi_source":""},{"t":363.714,"note":59,"dur":0.325,"vel":1.0,"inst":"tuba_v0_struck_284","midi_source":""},{"t":363.714,"note":62,"dur":0.325,"vel":1.0,"inst":"harp_v0_bowed_168","midi_source":""},{"t":363.876,"note":40,"dur":0.162,"vel":1.0,"inst":"harp_v0_bowed_168","midi_source":""},{"t":363.876,"note":43,"dur":0.162,"vel":1.0,"inst":"tuba_v0_struck_284","midi_source":""},{"t":363.876,"note":47,"dur":0.162,"vel":1.0,"inst":"tuba_v0_struck_284","midi_source":""},{"t":364.038,"note":40,"dur":0.162,"vel":1.0,"inst":"harp_v0_bowed_168","midi_source":""},{"t":364.038,"note":43,"dur":0.162,"vel":1.0,"inst":"tuba_v0_struck_284","midi_source":""},{"t":364.038,"note":47,"dur":0.162,"vel":1.0,"inst":"tuba_v0_struck_284","midi_source":""},{"t":364.038,"note":59,"dur":0.162,"vel":1.0,"inst":"tuba_v0_struck_284","midi_source":""},{"t":364.038,"note":62,"dur":0.162,"vel":1.0,"inst":"harp_v0_bowed_168","midi_source":""},{"t":364.201,"note":28,"dur":0.162,"vel":1.0,"inst":"harp_v0_bowed_168","midi_source":""},{"t":364.201,"note":40,"dur":0.162,"vel":1.0,"inst":"harp_v0_bowed_168","midi_source":""},{"t":364.201,"note":64,"dur":0.162,"vel":1.0,"inst":"harp_v0_bowed_168","midi_source":""},{"t":364.201,"note":67,"dur":0.162,"vel":1.0,"inst":"tuba_v0_struck_284","midi_source":""},{"t":364.363,"note":40,"dur":0.162,"vel":1.0,"inst":"harp_v0_bowed_168","midi_source":""},{"t":364.363,"note":43,"dur":0.162,"vel":1.0,"inst":"tuba_v0_struck_284","midi_source":""},{"t":364.363,"note":47,"dur":0.162,"vel":1.0,"inst":"tuba_v0_struck_284","midi_source":""},{"t":364.363,"note":62,"dur":0.162,"vel":1.0,"inst":"harp_v0_bowed_168","midi_source":""},{"t":364.363,"note":55,"dur":0.162,"vel":1.0,"inst":"tuba_v0_struck_284","midi_source":""},{"t":364.526,"note":40,"dur":0.162,"vel":1.0,"inst":"harp_v0_bowed_168","midi_source":""},{"t":364.526,"note":43,"dur":0.162,"vel":1.0,"inst":"tuba_v0_struck_284","midi_source":""},{"t":364.526,"note":47,"dur":0.162,"vel":1.0,"inst":"tuba_v0_struck_284","midi_source":""},{"t":364.526,"note":60,"dur":0.162,"vel":1.0,"inst":"harp_v0_bowed_168","midi_source":""},{"t":364.526,"note":64,"dur":0.162,"vel":1.0,"inst":"harp_v0_bowed_168","midi_source":""},{"t":364.688,"note":28,"dur":0.162,"vel":1.0,"inst":"harp_v0_bowed_168","midi_source":""},{"t":364.688,"note":40,"dur":0.162,"vel":1.0,"inst":"harp_v0_bowed_168","midi_source":""},{"t":364.688,"note":59,"dur":0.162,"vel":1.0,"inst":"tuba_v0_struck_284","midi_source":""},{"t":364.688,"note":62,"dur":0.162,"vel":1.0,"inst":"harp_v0_bowed_168","midi_source":""},{"t":364.85,"note":40,"dur":0.162,"vel":1.0,"inst":"harp_v0_bowed_168","midi_source":""},{"t":364.85,"note":43,"dur":0.162,"vel":1.0,"inst":"tuba_v0_struck_284","midi_source":""},{"t":364.85,"note":47,"dur":0.162,"vel":1.0,"inst":"tuba_v0_struck_284","midi_source":""},{"t":364.85,"note":57,"dur":0.162,"vel":1.0,"inst":"tuba_v0_struck_284","midi_source":""},{"t":364.85,"note":60,"dur":0.162,"vel":1.0,"inst":"harp_v0_bowed_168","midi_source":""},{"t":365.013,"note":40,"dur":0.162,"vel":1.0,"inst":"harp_v0_bowed_168","midi_source":""},{"t":365.013,"note":43,"dur":0.162,"vel":1.0,"inst":"tuba_v0_struck_284","midi_source":""},{"t":365.013,"note":47,"dur":0.162,"vel":1.0,"inst":"tuba_v0_struck_284","midi_source":""},{"t":365.013,"note":55,"dur":0.162,"vel":1.0,"inst":"tuba_v0_struck_284","midi_source":""},{"t":365.013,"note":59,"dur":0.162,"vel":1.0,"inst":"tuba_v0_struck_284","midi_source":""},{"t":365.175,"note":33,"dur":0.162,"vel":1.0,"inst":"tuba_v0_struck_284","midi_source":""},{"t":365.175,"note":57,"dur":0.487,"vel":1.0,"inst":"tuba_v0_struck_284","midi_source":""},{"t":365.338,"note":48,"dur":0.162,"vel":1.0,"inst":"harp_v0_bowed_168","midi_source":""},{"t":365.338,"note":52,"dur":0.162,"vel":1.0,"inst":"harp_v0_bowed_168","midi_source":""},{"t":365.5,"note":48,"dur":0.162,"vel":1.0,"inst":"harp_v0_bowed_168","midi_source":""},{"t":365.5,"note":52,"dur":0.162,"vel":1.0,"inst":"harp_v0_bowed_168","midi_source":""},{"t":365.662,"note":45,"dur":0.162,"vel":1.0,"inst":"tuba_v0_struck_284","midi_source":""},{"t":365.662,"note":69,"dur":0.081,"vel":1.0,"inst":"tuba_v0_struck_284","midi_source":""},{"t":365.744,"note":71,"dur":0.081,"vel":1.0,"inst":"tuba_v0_struck_284","midi_source":""},{"t":365.825,"note":48,"dur":0.162,"vel":1.0,"inst":"harp_v0_bowed_168","midi_source":""},{"t":365.825,"note":52,"dur":0.162,"vel":1.0,"inst":"harp_v0_bowed_168","midi_source":""},{"t":365.825,"note":57,"dur":0.162,"vel":1.0,"inst":"tuba_v0_struck_284","midi_source":""},{"t":365.825,"note":72,"dur":0.162,"vel":1.0,"inst":"harp_v0_bowed_168","midi_source":""},{"t":365.987,"note":48,"dur":0.162,"vel":1.0,"inst":"harp_v0_bowed_168","midi_source":""},{"t":365.987,"note":52,"dur":0.162,"vel":1.0,"inst":"harp_v0_bowed_168","midi_source":""},{"t":365.987,"note":57,"dur":0.162,"vel":1.0,"inst":"tuba_v0_struck_284","midi_source":""},{"t":365.987,"note":74,"dur":0.162,"vel":1.0,"inst":"harp_v0_bowed_168","midi_source":""},{"t":366.15,"note":45,"dur":0.162,"vel":1.0,"inst":"tuba_v0_struck_284","midi_source":""},{"t":366.15,"note":76,"dur":0.325,"vel":1.0,"inst":"harp_v0_bowed_168","midi_source":""},{"t":366.312,"note":48,"dur":0.162,"vel":1.0,"inst":"harp_v0_bowed_168","midi_source":""},{"t":366.312,"note":52,"dur":0.162,"vel":1.0,"inst":"harp_v0_bowed_168","midi_source":""},{"t":366.312,"note":57,"dur":0.162,"vel":1.0,"inst":"tuba_v0_struck_284","midi_source":""},{"t":366.474,"note":48,"dur":0.162,"vel":1.0,"inst":"harp_v0_bowed_168","midi_source":""},{"t":366.474,"note":52,"dur":0.162,"vel":1.0,"inst":"harp_v0_bowed_168","midi_source":""},{"t":366.474,"note":57,"dur":0.162,"vel":1.0,"inst":"tuba_v0_struck_284","midi_source":""},{"t":366.474,"note":77,"dur":0.162,"vel":1.0,"inst":"tuba_v0_struck_284","midi_source":""},{"t":366.637,"note":45,"dur":0.162,"vel":1.0,"inst":"tuba_v0_struck_284","midi_source":""},{"t":366.637,"note":77,"dur":0.081,"vel":1.0,"inst":"tuba_v0_struck_284","midi_source":""},{"t":366.637,"note":79,"dur":0.081,"vel":1.0,"inst":"tuba_v0_struck_284","midi_source":""},{"t":366.718,"note":76,"dur":0.081,"vel":1.0,"inst":"harp_v0_bowed_168","midi_source":""},{"t":366.799,"note":48,"dur":0.162,"vel":1.0,"inst":"harp_v0_bowed_168","midi_source":""},{"t":366.799,"note":52,"dur":0.162,"vel":1.0,"inst":"harp_v0_bowed_168","midi_source":""},{"t":366.799,"note":57,"dur":0.162,"vel":1.0,"inst":"tuba_v0_struck_284","midi_source":""},{"t":366.799,"note":76,"dur":0.162,"vel":1.0,"inst":"harp_v0_bowed_168","midi_source":""},{"t":366.962,"note":48,"dur":0.162,"vel":1.0,"inst":"harp_v0_bowed_168","midi_source":""},{"t":366.962,"note":52,"dur":0.162,"vel":1.0,"inst":"harp_v0_bowed_168","midi_source":""},{"t":366.962,"note":57,"dur":0.162,"vel":1.0,"inst":"tuba_v0_struck_284","midi_source":""},{"t":366.962,"note":81,"dur":0.162,"vel":1.0,"inst":"tuba_v0_struck_284","midi_source":""},{"t":367.124,"note":45,"dur":0.162,"vel":1.0,"inst":"tuba_v0_struck_284","midi_source":""},{"t":367.124,"note":76,"dur":0.325,"vel":1.0,"inst":"harp_v0_bowed_168","midi_source":""},{"t":367.286,"note":48,"dur":0.162,"vel":1.0,"inst":"harp_v0_bowed_168","midi_source":""},{"t":367.286,"note":52,"dur":0.162,"vel":1.0,"inst":"harp_v0_bowed_168","midi_source":""},{"t":367.286,"note":57,"dur":0.162,"vel":1.0,"inst":"tuba_v0_struck_284","midi_source":""},{"t":367.449,"note":48,"dur":0.162,"vel":1.0,"inst":"harp_v0_bowed_168","midi_source":""},{"t":367.449,"note":52,"dur":0.162,"vel":1.0,"inst":"harp_v0_bowed_168","midi_source":""},{"t":367.449,"note":57,"dur":0.162,"vel":1.0,"inst":"tuba_v0_struck_284","midi_source":""},{"t":367.449,"note":69,"dur":0.162,"vel":1.0,"inst":"tuba_v0_struck_284","midi_source":""},{"t":367.611,"note":40,"dur":0.162,"vel":1.0,"inst":"harp_v0_bowed_168","midi_source":""},{"t":367.611,"note":71,"dur":0.081,"vel":1.0,"inst":"tuba_v0_struck_284","midi_source":""},{"t":367.692,"note":76,"dur":0.081,"vel":1.0,"inst":"harp_v0_bowed_168","midi_source":""},{"t":367.774,"note":47,"dur":0.162,"vel":1.0,"inst":"tuba_v0_struck_284","midi_source":""},{"t":367.774,"note":52,"dur":0.162,"vel":1.0,"inst":"harp_v0_bowed_168","midi_source":""},{"t":367.774,"note":55,"dur":0.162,"vel":1.0,"inst":"tuba_v0_struck_284","midi_source":""},{"t":367.774,"note":76,"dur":0.162,"vel":1.0,"inst":"harp_v0_bowed_168","midi_source":""},{"t":367.936,"note":47,"dur":0.162,"vel":1.0,"inst":"tuba_v0_struck_284","midi_source":""},{"t":367.936,"note":52,"dur":0.162,"vel":1.0,"inst":"harp_v0_bowed_168","midi_source":""},{"t":367.936,"note":55,"dur":0.162,"vel":1.0,"inst":"tuba_v0_struck_284","midi_source":""},{"t":367.936,"note":71,"dur":0.162,"vel":1.0,"inst":"tuba_v0_struck_284","midi_source":""},{"t":368.098,"note":45,"dur":0.162,"vel":1.0,"inst":"tuba_v0_struck_284","midi_source":""},{"t":368.098,"note":72,"dur":0.325,"vel":1.0,"inst":"harp_v0_bowed_168","midi_source":""},{"t":368.261,"note":48,"dur":0.162,"vel":1.0,"inst":"harp_v0_bowed_168","midi_source":""},{"t":368.261,"note":52,"dur":0.162,"vel":1.0,"inst":"harp_v0_bowed_168","midi_source":""},{"t":368.261,"note":57,"dur":0.162,"vel":1.0,"inst":"tuba_v0_struck_284","midi_source":""},{"t":368.423,"note":48,"dur":0.162,"vel":1.0,"inst":"harp_v0_bowed_168","midi_source":""},{"t":368.423,"note":52,"dur":0.162,"vel":1.0,"inst":"harp_v0_bowed_168","midi_source":""},{"t":368.423,"note":57,"dur":0.162,"vel":1.0,"inst":"tuba_v0_struck_284","midi_source":""},{"t":368.423,"note":69,"dur":0.162,"vel":1.0,"inst":"tuba_v0_struck_284","midi_source":""},{"t":368.585,"note":40,"dur":0.162,"vel":1.0,"inst":"harp_v0_bowed_168","midi_source":""},{"t":368.585,"note":71,"dur":0.081,"vel":1.0,"inst":"tuba_v0_struck_284","midi_source":""},{"t":368.667,"note":76,"dur":0.081,"vel":1.0,"inst":"harp_v0_bowed_168","midi_source":""},{"t":368.748,"note":47,"dur":0.162,"vel":1.0,"inst":"tuba_v0_struck_284","midi_source":""},{"t":368.748,"note":52,"dur":0.162,"vel":1.0,"inst":"harp_v0_bowed_168","midi_source":""},{"t":368.748,"note":55,"dur":0.162,"vel":1.0,"inst":"tuba_v0_struck_284","midi_source":""},{"t":368.748,"note":76,"dur":0.162,"vel":1.0,"inst":"harp_v0_bowed_168","midi_source":""},{"t":368.91,"note":47,"dur":0.162,"vel":1.0,"inst":"tuba_v0_struck_284","midi_source":""},{"t":368.91,"note":52,"dur":0.162,"vel":1.0,"inst":"harp_v0_bowed_168","midi_source":""},{"t":368.91,"note":55,"dur":0.162,"vel":1.0,"inst":"tuba_v0_struck_284","midi_source":""},{"t":368.91,"note":67,"dur":0.162,"vel":1.0,"inst":"tuba_v0_struck_284","midi_source":""},{"t":369.073,"note":45,"dur":0.487,"vel":1.0,"inst":"tuba_v0_struck_284","midi_source":""},{"t":369.073,"note":48,"dur":0.487,"vel":1.0,"inst":"harp_v0_bowed_168","midi_source":""},{"t":369.073,"note":52,"dur":0.487,"vel":1.0,"inst":"harp_v0_bowed_168","midi_source":""},{"t":369.073,"note":57,"dur":0.487,"vel":1.0,"inst":"tuba_v0_struck_284","midi_source":""},{"t":369.073,"note":69,"dur":0.325,"vel":1.0,"inst":"tuba_v0_struck_284","midi_source":""},{"t":369.479,"note":76,"dur":0.081,"vel":1.0,"inst":"harp_v0_bowed_168","midi_source":""},{"t":369.479,"note":67,"dur":0.081,"vel":1.0,"inst":"tuba_v0_struck_284","midi_source":""},{"t":369.479,"note":79,"dur":0.081,"vel":1.0,"inst":"tuba_v0_struck_284","midi_source":""},{"t":369.56,"note":33,"dur":0.162,"vel":1.0,"inst":"tuba_v0_struck_284","midi_source":""},{"t":369.56,"note":40,"dur":0.162,"vel":1.0,"inst":"harp_v0_bowed_168","midi_source":""},{"t":369.56,"note":45,"dur":0.162,"vel":1.0,"inst":"tuba_v0_struck_284","midi_source":""},{"t":369.56,"note":81,"dur":0.081,"vel":1.0,"inst":"tuba_v0_struck_284","midi_source":""},{"t":369.641,"note":79,"dur":0.081,"vel":1.0,"inst":"tuba_v0_struck_284","midi_source":""},{"t":369.722,"note":48,"dur":0.162,"vel":1.0,"inst":"harp_v0_bowed_168","midi_source":""},{"t":369.722,"note":52,"dur":0.162,"vel":1.0,"inst":"harp_v0_bowed_168","midi_source":""},{"t":369.722,"note":77,"dur":0.081,"vel":1.0,"inst":"tuba_v0_struck_284","midi_source":""},{"t":369.803,"note":76,"dur":0.081,"vel":1.0,"inst":"harp_v0_bowed_168","midi_source":""},{"t":369.885,"note":45,"dur":0.162,"vel":1.0,"inst":"tuba_v0_struck_284","midi_source":""},{"t":369.885,"note":48,"dur":0.162,"vel":1.0,"inst":"harp_v0_bowed_168","midi_source":""},{"t":369.885,"note":74,"dur":0.081,"vel":1.0,"inst":"harp_v0_bowed_168","midi_source":""},{"t":369.966,"note":72,"dur":0.081,"vel":1.0,"inst":"harp_v0_bowed_168","midi_source":""},{"t":370.047,"note":28,"dur":0.162,"vel":1.0,"inst":"harp_v0_bowed_168","midi_source":""},{"t":370.047,"note":35,"dur":0.162,"vel":1.0,"inst":"tuba_v0_struck_284","midi_source":""},{"t":370.047,"note":40,"dur":0.162,"vel":1.0,"inst":"harp_v0_bowed_168","midi_source":""},{"t":370.047,"note":77,"dur":0.162,"vel":1.0,"inst":"tuba_v0_struck_284","midi_source":""},{"t":370.209,"note":47,"dur":0.162,"vel":1.0,"inst":"tuba_v0_struck_284","midi_source":""},{"t":370.209,"note":50,"dur":0.162,"vel":1.0,"inst":"harp_v0_bowed_168","midi_source":""},{"t":370.209,"note":76,"dur":0.081,"vel":1.0,"inst":"harp_v0_bowed_168","midi_source":""},{"t":370.291,"note":74,"dur":0.081,"vel":1.0,"inst":"harp_v0_bowed_168","midi_source":""},{"t":370.372,"note":43,"dur":0.162,"vel":1.0,"inst":"tuba_v0_struck_284","midi_source":""},{"t":370.372,"note":47,"dur":0.162,"vel":1.0,"inst":"tuba_v0_struck_284","midi_source":""},{"t":370.372,"note":72,"dur":0.081,"vel":1.0,"inst":"harp_v0_bowed_168","midi_source":""},{"t":370.453,"note":71,"dur":0.081,"vel":1.0,"inst":"tuba_v0_struck_284","midi_source":""},{"t":370.534,"note":28,"dur":0.162,"vel":1.0,"inst":"harp_v0_bowed_168","midi_source":""},{"t":370.534,"note":35,"dur":0.162,"vel":1.0,"inst":"tuba_v0_struck_284","midi_source":""},{"t":370.534,"note":40,"dur":0.162,"vel":1.0,"inst":"harp_v0_bowed_168","midi_source":""},{"t":370.534,"note":77,"dur":0.162,"vel":1.0,"inst":"tuba_v0_struck_284","midi_source":""},{"t":370.697,"note":47,"dur":0.162,"vel":1.0,"inst":"tuba_v0_struck_284","midi_source":""},{"t":370.697,"note":50,"dur":0.162,"vel":1.0,"inst":"harp_v0_bowed_168","midi_source":""},{"t":370.697,"note":76,"dur":0.081,"vel":1.0,"inst":"harp_v0_bowed_168","midi_source":""},{"t":370.778,"note":74,"dur":0.081,"vel":1.0,"inst":"harp_v0_bowed_168","midi_source":""},{"t":370.859,"note":43,"dur":0.162,"vel":1.0,"inst":"tuba_v0_struck_284","midi_source":""},{"t":370.859,"note":47,"dur":0.162,"vel":1.0,"inst":"tuba_v0_struck_284","midi_source":""},{"t":370.859,"note":72,"dur":0.081,"vel":1.0,"inst":"harp_v0_bowed_168","midi_source":""},{"t":371.021,"note":28,"dur":0.162,"vel":1.0,"inst":"harp_v0_bowed_168","midi_source":""},{"t":371.021,"note":40,"dur":0.162,"vel":1.0,"inst":"harp_v0_bowed_168","midi_source":""},{"t":371.021,"note":59,"dur":0.325,"vel":1.0,"inst":"tuba_v0_struck_284","midi_source":""},{"t":371.021,"note":62,"dur":0.325,"vel":1.0,"inst":"harp_v0_bowed_168","midi_source":""},{"t":371.184,"note":40,"dur":0.162,"vel":1.0,"inst":"harp_v0_bowed_168","midi_source":""},{"t":371.184,"note":43,"dur":0.162,"vel":1.0,"inst":"tuba_v0_struck_284","midi_source":""},{"t":371.184,"note":47,"dur":0.162,"vel":1.0,"inst":"tuba_v0_struck_284","midi_source":""},{"t":371.346,"note":40,"dur":0.162,"vel":1.0,"inst":"harp_v0_bowed_168","midi_source":""},{"t":371.346,"note":43,"dur":0.162,"vel":1.0,"inst":"tuba_v0_struck_284","midi_source":""},{"t":371.346,"note":47,"dur":0.162,"vel":1.0,"inst":"tuba_v0_struck_284","midi_source":""},{"t":371.346,"note":59,"dur":0.162,"vel":1.0,"inst":"tuba_v0_struck_284","midi_source":""},{"t":371.346,"note":62,"dur":0.162,"vel":1.0,"inst":"harp_v0_bowed_168","midi_source":""},{"t":371.509,"note":28,"dur":0.162,"vel":1.0,"inst":"harp_v0_bowed_168","midi_source":""},{"t":371.509,"note":40,"dur":0.162,"vel":1.0,"inst":"harp_v0_bowed_168","midi_source":""},{"t":371.509,"note":59,"dur":0.325,"vel":1.0,"inst":"tuba_v0_struck_284","midi_source":""},{"t":371.509,"note":62,"dur":0.325,"vel":1.0,"inst":"harp_v0_bowed_168","midi_source":""},{"t":371.671,"note":40,"dur":0.162,"vel":1.0,"inst":"harp_v0_bowed_168","midi_source":""},{"t":371.671,"note":43,"dur":0.162,"vel":1.0,"inst":"tuba_v0_struck_284","midi_source":""},{"t":371.671,"note":47,"dur":0.162,"vel":1.0,"inst":"tuba_v0_struck_284","midi_source":""},{"t":371.833,"note":40,"dur":0.162,"vel":1.0,"inst":"harp_v0_bowed_168","midi_source":""},{"t":371.833,"note":43,"dur":0.162,"vel":1.0,"inst":"tuba_v0_struck_284","midi_source":""},{"t":371.833,"note":47,"dur":0.162,"vel":1.0,"inst":"tuba_v0_struck_284","midi_source":""},{"t":371.833,"note":59,"dur":0.162,"vel":1.0,"inst":"tuba_v0_struck_284","midi_source":""},{"t":371.833,"note":62,"dur":0.162,"vel":1.0,"inst":"harp_v0_bowed_168","midi_source":""},{"t":371.996,"note":28,"dur":0.162,"vel":1.0,"inst":"harp_v0_bowed_168","midi_source":""},{"t":371.996,"note":40,"dur":0.162,"vel":1.0,"inst":"harp_v0_bowed_168","midi_source":""},{"t":371.996,"note":64,"dur":0.162,"vel":1.0,"inst":"harp_v0_bowed_168","midi_source":""},{"t":371.996,"note":67,"dur":0.162,"vel":1.0,"inst":"tuba_v0_struck_284","midi_source":""},{"t":372.158,"note":40,"dur":0.162,"vel":1.0,"inst":"harp_v0_bowed_168","midi_source":""},{"t":372.158,"note":43,"dur":0.162,"vel":1.0,"inst":"tuba_v0_struck_284","midi_source":""},{"t":372.158,"note":47,"dur":0.162,"vel":1.0,"inst":"tuba_v0_struck_284","midi_source":""},{"t":372.158,"note":62,"dur":0.162,"vel":1.0,"inst":"harp_v0_bowed_168","midi_source":""},{"t":372.158,"note":55,"dur":0.162,"vel":1.0,"inst":"tuba_v0_struck_284","midi_source":""},{"t":372.321,"note":40,"dur":0.162,"vel":1.0,"inst":"harp_v0_bowed_168","midi_source":""},{"t":372.321,"note":43,"dur":0.162,"vel":1.0,"inst":"tuba_v0_struck_284","midi_source":""},{"t":372.321,"note":47,"dur":0.162,"vel":1.0,"inst":"tuba_v0_struck_284","midi_source":""},{"t":372.321,"note":60,"dur":0.162,"vel":1.0,"inst":"harp_v0_bowed_168","midi_source":""},{"t":372.321,"note":64,"dur":0.162,"vel":1.0,"inst":"harp_v0_bowed_168","midi_source":""},{"t":372.483,"note":28,"dur":0.162,"vel":1.0,"inst":"harp_v0_bowed_168","midi_source":""},{"t":372.483,"note":40,"dur":0.162,"vel":1.0,"inst":"harp_v0_bowed_168","midi_source":""},{"t":372.483,"note":59,"dur":0.162,"vel":1.0,"inst":"tuba_v0_struck_284","midi_source":""},{"t":372.483,"note":62,"dur":0.162,"vel":1.0,"inst":"harp_v0_bowed_168","midi_source":""},{"t":372.645,"note":40,"dur":0.162,"vel":1.0,"inst":"harp_v0_bowed_168","midi_source":""},{"t":372.645,"note":43,"dur":0.162,"vel":1.0,"inst":"tuba_v0_struck_284","midi_source":""},{"t":372.645,"note":47,"dur":0.162,"vel":1.0,"inst":"tuba_v0_struck_284","midi_source":""},{"t":372.645,"note":57,"dur":0.162,"vel":1.0,"inst":"tuba_v0_struck_284","midi_source":""},{"t":372.645,"note":60,"dur":0.162,"vel":1.0,"inst":"harp_v0_bowed_168","midi_source":""},{"t":372.808,"note":40,"dur":0.162,"vel":1.0,"inst":"harp_v0_bowed_168","midi_source":""},{"t":372.808,"note":43,"dur":0.162,"vel":1.0,"inst":"tuba_v0_struck_284","midi_source":""},{"t":372.808,"note":47,"dur":0.162,"vel":1.0,"inst":"tuba_v0_struck_284","midi_source":""},{"t":372.808,"note":55,"dur":0.162,"vel":1.0,"inst":"tuba_v0_struck_284","midi_source":""},{"t":372.808,"note":59,"dur":0.162,"vel":1.0,"inst":"tuba_v0_struck_284","midi_source":""},{"t":372.97,"note":33,"dur":0.162,"vel":1.0,"inst":"tuba_v0_struck_284","midi_source":""},{"t":372.97,"note":57,"dur":0.487,"vel":1.0,"inst":"tuba_v0_struck_284","midi_source":""},{"t":373.133,"note":48,"dur":0.162,"vel":1.0,"inst":"harp_v0_bowed_168","midi_source":""},{"t":373.133,"note":52,"dur":0.162,"vel":1.0,"inst":"harp_v0_bowed_168","midi_source":""},{"t":373.295,"note":48,"dur":0.162,"vel":1.0,"inst":"harp_v0_bowed_168","midi_source":""},{"t":373.295,"note":52,"dur":0.162,"vel":1.0,"inst":"harp_v0_bowed_168","midi_source":""},{"t":373.457,"note":45,"dur":0.162,"vel":1.0,"inst":"tuba_v0_struck_284","midi_source":""},{"t":373.457,"note":69,"dur":0.081,"vel":1.0,"inst":"tuba_v0_struck_284","midi_source":""},{"t":373.539,"note":71,"dur":0.081,"vel":1.0,"inst":"tuba_v0_struck_284","midi_source":""},{"t":373.62,"note":48,"dur":0.162,"vel":1.0,"inst":"harp_v0_bowed_168","midi_source":""},{"t":373.62,"note":52,"dur":0.162,"vel":1.0,"inst":"harp_v0_bowed_168","midi_source":""},{"t":373.62,"note":57,"dur":0.162,"vel":1.0,"inst":"tuba_v0_struck_284","midi_source":""},{"t":373.62,"note":72,"dur":0.162,"vel":1.0,"inst":"harp_v0_bowed_168","midi_source":""},{"t":373.782,"note":48,"dur":0.162,"vel":1.0,"inst":"harp_v0_bowed_168","midi_source":""},{"t":373.782,"note":52,"dur":0.162,"vel":1.0,"inst":"harp_v0_bowed_168","midi_source":""},{"t":373.782,"note":57,"dur":0.162,"vel":1.0,"inst":"tuba_v0_struck_284","midi_source":""},{"t":373.782,"note":74,"dur":0.162,"vel":1.0,"inst":"harp_v0_bowed_168","midi_source":""},{"t":373.945,"note":45,"dur":0.162,"vel":1.0,"inst":"tuba_v0_struck_284","midi_source":""},{"t":373.945,"note":76,"dur":0.325,"vel":1.0,"inst":"harp_v0_bowed_168","midi_source":""},{"t":374.107,"note":48,"dur":0.162,"vel":1.0,"inst":"harp_v0_bowed_168","midi_source":""},{"t":374.107,"note":52,"dur":0.162,"vel":1.0,"inst":"harp_v0_bowed_168","midi_source":""},{"t":374.107,"note":57,"dur":0.162,"vel":1.0,"inst":"tuba_v0_struck_284","midi_source":""},{"t":374.269,"note":48,"dur":0.162,"vel":1.0,"inst":"harp_v0_bowed_168","midi_source":""},{"t":374.269,"note":52,"dur":0.162,"vel":1.0,"inst":"harp_v0_bowed_168","midi_source":""},{"t":374.269,"note":57,"dur":0.162,"vel":1.0,"inst":"tuba_v0_struck_284","midi_source":""},{"t":374.269,"note":77,"dur":0.162,"vel":1.0,"inst":"tuba_v0_struck_284","midi_source":""},{"t":374.432,"note":45,"dur":0.162,"vel":1.0,"inst":"tuba_v0_struck_284","midi_source":""},{"t":374.432,"note":77,"dur":0.081,"vel":1.0,"inst":"tuba_v0_struck_284","midi_source":""},{"t":374.432,"note":79,"dur":0.081,"vel":1.0,"inst":"tuba_v0_struck_284","midi_source":""},{"t":374.513,"note":76,"dur":0.081,"vel":1.0,"inst":"harp_v0_bowed_168","midi_source":""},{"t":374.594,"note":48,"dur":0.162,"vel":1.0,"inst":"harp_v0_bowed_168","midi_source":""},{"t":374.594,"note":52,"dur":0.162,"vel":1.0,"inst":"harp_v0_bowed_168","midi_source":""},{"t":374.594,"note":57,"dur":0.162,"vel":1.0,"inst":"tuba_v0_struck_284","midi_source":""},{"t":374.594,"note":76,"dur":0.162,"vel":1.0,"inst":"harp_v0_bowed_168","midi_source":""},{"t":374.756,"note":48,"dur":0.162,"vel":1.0,"inst":"harp_v0_bowed_168","midi_source":""},{"t":374.756,"note":52,"dur":0.162,"vel":1.0,"inst":"harp_v0_bowed_168","midi_source":""},{"t":374.756,"note":57,"dur":0.162,"vel":1.0,"inst":"tuba_v0_struck_284","midi_source":""},{"t":374.756,"note":81,"dur":0.162,"vel":1.0,"inst":"tuba_v0_struck_284","midi_source":""},{"t":374.919,"note":45,"dur":0.162,"vel":1.0,"inst":"tuba_v0_struck_284","midi_source":""},{"t":374.919,"note":76,"dur":0.325,"vel":1.0,"inst":"harp_v0_bowed_168","midi_source":""},{"t":375.081,"note":48,"dur":0.162,"vel":1.0,"inst":"harp_v0_bowed_168","midi_source":""},{"t":375.081,"note":52,"dur":0.162,"vel":1.0,"inst":"harp_v0_bowed_168","midi_source":""},{"t":375.081,"note":57,"dur":0.162,"vel":1.0,"inst":"tuba_v0_struck_284","midi_source":""},{"t":375.244,"note":48,"dur":0.162,"vel":1.0,"inst":"harp_v0_bowed_168","midi_source":""},{"t":375.244,"note":52,"dur":0.162,"vel":1.0,"inst":"harp_v0_bowed_168","midi_source":""},{"t":375.244,"note":57,"dur":0.162,"vel":1.0,"inst":"tuba_v0_struck_284","midi_source":""},{"t":375.244,"note":69,"dur":0.162,"vel":1.0,"inst":"tuba_v0_struck_284","midi_source":""},{"t":375.406,"note":40,"dur":0.162,"vel":1.0,"inst":"harp_v0_bowed_168","midi_source":""},{"t":375.406,"note":71,"dur":0.081,"vel":1.0,"inst":"tuba_v0_struck_284","midi_source":""},{"t":375.487,"note":76,"dur":0.081,"vel":1.0,"inst":"harp_v0_bowed_168","midi_source":""},{"t":375.568,"note":47,"dur":0.162,"vel":1.0,"inst":"tuba_v0_struck_284","midi_source":""},{"t":375.568,"note":52,"dur":0.162,"vel":1.0,"inst":"harp_v0_bowed_168","midi_source":""},{"t":375.568,"note":55,"dur":0.162,"vel":1.0,"inst":"tuba_v0_struck_284","midi_source":""},{"t":375.568,"note":76,"dur":0.162,"vel":1.0,"inst":"harp_v0_bowed_168","midi_source":""},{"t":375.731,"note":47,"dur":0.162,"vel":1.0,"inst":"tuba_v0_struck_284","midi_source":""},{"t":375.731,"note":52,"dur":0.162,"vel":1.0,"inst":"harp_v0_bowed_168","midi_source":""},{"t":375.731,"note":55,"dur":0.162,"vel":1.0,"inst":"tuba_v0_struck_284","midi_source":""},{"t":375.731,"note":71,"dur":0.162,"vel":1.0,"inst":"tuba_v0_struck_284","midi_source":""},{"t":375.893,"note":45,"dur":0.162,"vel":1.0,"inst":"tuba_v0_struck_284","midi_source":""},{"t":375.893,"note":72,"dur":0.325,"vel":1.0,"inst":"harp_v0_bowed_168","midi_source":""},{"t":376.056,"note":48,"dur":0.162,"vel":1.0,"inst":"harp_v0_bowed_168","midi_source":""},{"t":376.056,"note":52,"dur":0.162,"vel":1.0,"inst":"harp_v0_bowed_168","midi_source":""},{"t":376.056,"note":57,"dur":0.162,"vel":1.0,"inst":"tuba_v0_struck_284","midi_source":""},{"t":376.218,"note":48,"dur":0.162,"vel":1.0,"inst":"harp_v0_bowed_168","midi_source":""},{"t":376.218,"note":52,"dur":0.162,"vel":1.0,"inst":"harp_v0_bowed_168","midi_source":""},{"t":376.218,"note":57,"dur":0.162,"vel":1.0,"inst":"tuba_v0_struck_284","midi_source":""},{"t":376.218,"note":69,"dur":0.162,"vel":1.0,"inst":"tuba_v0_struck_284","midi_source":""},{"t":376.38,"note":40,"dur":0.162,"vel":1.0,"inst":"harp_v0_bowed_168","midi_source":""},{"t":376.38,"note":71,"dur":0.081,"vel":1.0,"inst":"tuba_v0_struck_284","midi_source":""},{"t":376.462,"note":76,"dur":0.081,"vel":1.0,"inst":"harp_v0_bowed_168","midi_source":""},{"t":376.543,"note":47,"dur":0.162,"vel":1.0,"inst":"tuba_v0_struck_284","midi_source":""},{"t":376.543,"note":52,"dur":0.162,"vel":1.0,"inst":"harp_v0_bowed_168","midi_source":""},{"t":376.543,"note":55,"dur":0.162,"vel":1.0,"inst":"tuba_v0_struck_284","midi_source":""},{"t":376.543,"note":76,"dur":0.162,"vel":1.0,"inst":"harp_v0_bowed_168","midi_source":""},{"t":376.705,"note":47,"dur":0.162,"vel":1.0,"inst":"tuba_v0_struck_284","midi_source":""},{"t":376.705,"note":52,"dur":0.162,"vel":1.0,"inst":"harp_v0_bowed_168","midi_source":""},{"t":376.705,"note":55,"dur":0.162,"vel":1.0,"inst":"tuba_v0_struck_284","midi_source":""},{"t":376.705,"note":67,"dur":0.162,"vel":1.0,"inst":"tuba_v0_struck_284","midi_source":""},{"t":376.868,"note":45,"dur":0.487,"vel":1.0,"inst":"tuba_v0_struck_284","midi_source":""},{"t":376.868,"note":48,"dur":0.487,"vel":1.0,"inst":"harp_v0_bowed_168","midi_source":""},{"t":376.868,"note":52,"dur":0.487,"vel":1.0,"inst":"harp_v0_bowed_168","midi_source":""},{"t":376.868,"note":57,"dur":0.487,"vel":1.0,"inst":"tuba_v0_struck_284","midi_source":""},{"t":376.868,"note":69,"dur":0.325,"vel":1.0,"inst":"tuba_v0_struck_284","midi_source":""},{"t":377.274,"note":76,"dur":0.081,"vel":1.0,"inst":"harp_v0_bowed_168","midi_source":""},{"t":377.274,"note":67,"dur":0.081,"vel":1.0,"inst":"tuba_v0_struck_284","midi_source":""},{"t":377.274,"note":79,"dur":0.081,"vel":1.0,"inst":"tuba_v0_struck_284","midi_source":""},{"t":377.355,"note":33,"dur":0.162,"vel":1.0,"inst":"tuba_v0_struck_284","midi_source":""},{"t":377.355,"note":40,"dur":0.162,"vel":1.0,"inst":"harp_v0_bowed_168","midi_source":""},{"t":377.355,"note":45,"dur":0.162,"vel":1.0,"inst":"tuba_v0_struck_284","midi_source":""},{"t":377.355,"note":81,"dur":0.081,"vel":1.0,"inst":"tuba_v0_struck_284","midi_source":""},{"t":377.436,"note":79,"dur":0.081,"vel":1.0,"inst":"tuba_v0_struck_284","midi_source":""},{"t":377.517,"note":48,"dur":0.162,"vel":1.0,"inst":"harp_v0_bowed_168","midi_source":""},{"t":377.517,"note":52,"dur":0.162,"vel":1.0,"inst":"harp_v0_bowed_168","midi_source":""},{"t":377.517,"note":77,"dur":0.081,"vel":1.0,"inst":"tuba_v0_struck_284","midi_source":""},{"t":377.598,"note":76,"dur":0.081,"vel":1.0,"inst":"harp_v0_bowed_168","midi_source":""},{"t":377.68,"note":45,"dur":0.162,"vel":1.0,"inst":"tuba_v0_struck_284","midi_source":""},{"t":377.68,"note":48,"dur":0.162,"vel":1.0,"inst":"harp_v0_bowed_168","midi_source":""},{"t":377.68,"note":74,"dur":0.081,"vel":1.0,"inst":"harp_v0_bowed_168","midi_source":""},{"t":377.761,"note":72,"dur":0.081,"vel":1.0,"inst":"harp_v0_bowed_168","midi_source":""},{"t":377.842,"note":28,"dur":0.162,"vel":1.0,"inst":"harp_v0_bowed_168","midi_source":""},{"t":377.842,"note":35,"dur":0.162,"vel":1.0,"inst":"tuba_v0_struck_284","midi_source":""},{"t":377.842,"note":40,"dur":0.162,"vel":1.0,"inst":"harp_v0_bowed_168","midi_source":""},{"t":377.842,"note":77,"dur":0.162,"vel":1.0,"inst":"tuba_v0_struck_284","midi_source":""}]}