{"track_num":1,"title":"Ember","duration":251.75,"midi_sources":["Bach/adl_English_Suite_II_Bourree_I.mid","Chopin/adl_Nocturne_in_C_Minor.mid"],"events":[{"t":0.024,"note":32,"dur":0.222,"vel":0.559,"inst":"bass_v0_bell_432","midi_source":""},{"t":0.024,"note":59,"dur":0.147,"vel":0.787,"inst":"koto_v0_additive_32","midi_source":""},{"t":0.171,"note":61,"dur":0.147,"vel":0.787,"inst":"koto_v0_additive_32","midi_source":""},{"t":0.246,"note":39,"dur":0.222,"vel":0.63,"inst":"koto_v0_additive_32","midi_source":""},{"t":0.319,"note":59,"dur":0.149,"vel":0.787,"inst":"koto_v0_additive_32","midi_source":""},{"t":0.468,"note":47,"dur":0.222,"vel":0.677,"inst":"koto_v0_additive_32","midi_source":""},{"t":0.468,"note":56,"dur":0.443,"vel":0.528,"inst":"bass_v0_bell_432","midi_source":""},{"t":0.689,"note":39,"dur":0.222,"vel":0.559,"inst":"koto_v0_additive_32","midi_source":""},{"t":0.911,"note":34,"dur":0.222,"vel":0.551,"inst":"bass_v0_bell_432","midi_source":""},{"t":0.911,"note":56,"dur":0.443,"vel":0.638,"inst":"bass_v0_bell_432","midi_source":""},{"t":0.911,"note":58,"dur":0.443,"vel":0.638,"inst":"bass_v0_bell_432","midi_source":""},{"t":1.132,"note":40,"dur":0.222,"vel":0.638,"inst":"bass_v0_bell_432","midi_source":""},{"t":1.354,"note":50,"dur":0.222,"vel":0.748,"inst":"bass_v0_bell_432","midi_source":""},{"t":1.354,"note":56,"dur":0.332,"vel":0.606,"inst":"bass_v0_bell_432","midi_source":""},{"t":1.354,"note":58,"dur":0.332,"vel":0.606,"inst":"bass_v0_bell_432","midi_source":""},{"t":1.576,"note":46,"dur":0.222,"vel":0.591,"inst":"bass_v0_bell_432","midi_source":""},{"t":1.687,"note":56,"dur":0.111,"vel":0.551,"inst":"bass_v0_bell_432","midi_source":""},{"t":1.687,"note":58,"dur":0.111,"vel":0.551,"inst":"bass_v0_bell_432","midi_source":""},{"t":1.797,"note":39,"dur":0.222,"vel":0.535,"inst":"koto_v0_additive_32","midi_source":""},{"t":1.797,"note":54,"dur":0.443,"vel":0.614,"inst":"bass_v0_bell_432","midi_source":""},{"t":1.797,"note":58,"dur":0.443,"vel":0.614,"inst":"bass_v0_bell_432","midi_source":""},{"t":2.019,"note":46,"dur":0.222,"vel":0.63,"inst":"bass_v0_bell_432","midi_source":""},{"t":2.241,"note":54,"dur":0.222,"vel":0.709,"inst":"bass_v0_bell_432","midi_source":""},{"t":2.241,"note":58,"dur":0.332,"vel":0.709,"inst":"bass_v0_bell_432","midi_source":""},{"t":2.241,"note":66,"dur":0.332,"vel":0.709,"inst":"bass_v0_bell_432","midi_source":""},{"t":2.462,"note":46,"dur":0.222,"vel":0.543,"inst":"bass_v0_bell_432","midi_source":""},{"t":2.573,"note":58,"dur":0.111,"vel":0.614,"inst":"bass_v0_bell_432","midi_source":""},{"t":2.573,"note":66,"dur":0.111,"vel":0.614,"inst":"bass_v0_bell_432","midi_source":""},{"t":2.684,"note":34,"dur":0.222,"vel":0.488,"inst":"bass_v0_bell_432","midi_source":""},{"t":2.684,"note":56,"dur":0.332,"vel":0.591,"inst":"bass_v0_bell_432","midi_source":""},{"t":2.684,"note":64,"dur":0.332,"vel":0.591,"inst":"bass_v0_bell_432","midi_source":""},{"t":2.906,"note":40,"dur":0.222,"vel":0.622,"inst":"bass_v0_bell_432","midi_source":""},{"t":3.017,"note":54,"dur":0.111,"vel":0.622,"inst":"bass_v0_bell_432","midi_source":""},{"t":3.017,"note":63,"dur":0.111,"vel":0.622,"inst":"koto_v0_additive_32","midi_source":""},{"t":3.127,"note":50,"dur":0.222,"vel":0.724,"inst":"bass_v0_bell_432","midi_source":""},{"t":3.127,"note":56,"dur":0.332,"vel":0.606,"inst":"bass_v0_bell_432","midi_source":""},{"t":3.127,"note":64,"dur":0.332,"vel":0.606,"inst":"bass_v0_bell_432","midi_source":""},{"t":3.349,"note":46,"dur":0.222,"vel":0.606,"inst":"bass_v0_bell_432","midi_source":""},{"t":3.46,"note":58,"dur":0.111,"vel":0.654,"inst":"bass_v0_bell_432","midi_source":""},{"t":3.46,"note":66,"dur":0.111,"vel":0.654,"inst":"bass_v0_bell_432","midi_source":""},{"t":3.571,"note":39,"dur":0.222,"vel":0.543,"inst":"koto_v0_additive_32","midi_source":""},{"t":3.571,"note":52,"dur":0.887,"vel":0.528,"inst":"bass_v0_bell_432","midi_source":""},{"t":3.571,"note":63,"dur":0.887,"vel":0.528,"inst":"koto_v0_additive_32","midi_source":""},{"t":3.792,"note":46,"dur":0.222,"vel":0.646,"inst":"bass_v0_bell_432","midi_source":""},{"t":4.014,"note":54,"dur":0.222,"vel":0.709,"inst":"bass_v0_bell_432","midi_source":""},{"t":4.236,"note":46,"dur":0.222,"vel":0.559,"inst":"bass_v0_bell_432","midi_source":""},{"t":4.457,"note":35,"dur":0.222,"vel":0.543,"inst":"koto_v0_additive_32","midi_source":""},{"t":4.457,"note":63,"dur":0.443,"vel":0.591,"inst":"koto_v0_additive_32","midi_source":""},{"t":4.679,"note":39,"dur":0.222,"vel":0.598,"inst":"koto_v0_additive_32","midi_source":""},{"t":4.901,"note":51,"dur":0.222,"vel":0.772,"inst":"koto_v0_additive_32","midi_source":""},{"t":4.901,"note":62,"dur":0.222,"vel":0.559,"inst":"bass_v0_bell_432","midi_source":""},{"t":5.122,"note":47,"dur":0.222,"vel":0.614,"inst":"koto_v0_additive_32","midi_source":""},{"t":5.122,"note":63,"dur":0.222,"vel":0.614,"inst":"koto_v0_additive_32","midi_source":""},{"t":5.344,"note":34,"dur":0.222,"vel":0.535,"inst":"bass_v0_bell_432","midi_source":""},{"t":5.344,"note":66,"dur":0.665,"vel":0.669,"inst":"bass_v0_bell_432","midi_source":""},{"t":5.566,"note":38,"dur":0.222,"vel":0.606,"inst":"bass_v0_bell_432","midi_source":""},{"t":5.787,"note":50,"dur":0.222,"vel":0.748,"inst":"bass_v0_bell_432","midi_source":""},{"t":6.009,"note":46,"dur":0.222,"vel":0.606,"inst":"bass_v0_bell_432","midi_source":""},{"t":6.009,"note":64,"dur":0.222,"vel":0.591,"inst":"bass_v0_bell_432","midi_source":""},{"t":6.23,"note":35,"dur":0.222,"vel":0.535,"inst":"koto_v0_additive_32","midi_source":""},{"t":6.23,"note":53,"dur":0.332,"vel":0.425,"inst":"koto_v0_additive_32","midi_source":""},{"t":6.452,"note":39,"dur":0.222,"vel":0.661,"inst":"koto_v0_additive_32","midi_source":""},{"t":6.563,"note":63,"dur":0.111,"vel":0.709,"inst":"koto_v0_additive_32","midi_source":""},{"t":6.674,"note":51,"dur":0.222,"vel":0.78,"inst":"koto_v0_additive_32","midi_source":""},{"t":6.674,"note":63,"dur":0.222,"vel":0.598,"inst":"koto_v0_additive_32","midi_source":""},{"t":6.895,"note":47,"dur":0.222,"vel":0.654,"inst":"koto_v0_additive_32","midi_source":""},{"t":6.895,"note":63,"dur":0.222,"vel":0.598,"inst":"koto_v0_additive_32","midi_source":""},{"t":7.117,"note":34,"dur":0.222,"vel":0.528,"inst":"bass_v0_bell_432","midi_source":""},{"t":7.117,"note":62,"dur":0.222,"vel":0.559,"inst":"bass_v0_bell_432","midi_source":""},{"t":7.339,"note":38,"dur":0.222,"vel":0.591,"inst":"bass_v0_bell_432","midi_source":""},{"t":7.339,"note":65,"dur":0.665,"vel":0.638,"inst":"koto_v0_additive_32","midi_source":""},{"t":7.56,"note":50,"dur":0.222,"vel":0.764,"inst":"bass_v0_bell_432","midi_source":""},{"t":7.782,"note":46,"dur":0.222,"vel":0.614,"inst":"bass_v0_bell_432","midi_source":""},{"t":8.004,"note":40,"dur":0.222,"vel":0.559,"inst":"bass_v0_bell_432","midi_source":""},{"t":8.004,"note":58,"dur":0.222,"vel":0.504,"inst":"bass_v0_bell_432","midi_source":""},{"t":8.225,"note":43,"dur":0.222,"vel":0.614,"inst":"koto_v0_additive_32","midi_source":""},{"t":8.225,"note":60,"dur":0.111,"vel":0.598,"inst":"bass_v0_bell_432","midi_source":""},{"t":8.336,"note":58,"dur":0.111,"vel":0.543,"inst":"bass_v0_bell_432","midi_source":""},{"t":8.447,"note":48,"dur":0.222,"vel":0.63,"inst":"bass_v0_bell_432","midi_source":""},{"t":8.447,"note":57,"dur":0.222,"vel":0.567,"inst":"koto_v0_additive_32","midi_source":""},{"t":8.669,"note":46,"dur":0.222,"vel":0.551,"inst":"bass_v0_bell_432","midi_source":""},{"t":8.669,"note":55,"dur":0.222,"vel":0.535,"inst":"koto_v0_additive_32","midi_source":""},{"t":8.89,"note":41,"dur":0.222,"vel":0.575,"inst":"koto_v0_additive_32","midi_source":""},{"t":8.89,"note":55,"dur":0.665,"vel":0.606,"inst":"koto_v0_additive_32","midi_source":""},{"t":9.112,"note":46,"dur":0.222,"vel":0.614,"inst":"bass_v0_bell_432","midi_source":""},{"t":9.334,"note":50,"dur":0.222,"vel":0.677,"inst":"bass_v0_bell_432","midi_source":""},{"t":9.555,"note":46,"dur":0.222,"vel":0.551,"inst":"bass_v0_bell_432","midi_source":""},{"t":9.555,"note":53,"dur":0.222,"vel":0.567,"inst":"koto_v0_additive_32","midi_source":""},{"t":9.777,"note":41,"dur":0.222,"vel":0.591,"inst":"koto_v0_additive_32","midi_source":""},{"t":9.777,"note":53,"dur":0.332,"vel":0.591,"inst":"koto_v0_additive_32","midi_source":""},{"t":9.999,"note":45,"dur":0.222,"vel":0.63,"inst":"koto_v0_additive_32","midi_source":""},{"t":10.109,"note":63,"dur":0.111,"vel":0.717,"inst":"koto_v0_additive_32","midi_source":""},{"t":10.22,"note":51,"dur":0.222,"vel":0.677,"inst":"koto_v0_additive_32","midi_source":""},{"t":10.22,"note":55,"dur":0.332,"vel":0.496,"inst":"koto_v0_additive_32","midi_source":""},{"t":10.442,"note":53,"dur":0.222,"vel":0.661,"inst":"koto_v0_additive_32","midi_source":""},{"t":10.553,"note":57,"dur":0.111,"vel":0.591,"inst":"koto_v0_additive_32","midi_source":""},{"t":10.664,"note":34,"dur":0.111,"vel":0.52,"inst":"bass_v0_bell_432","midi_source":""},{"t":10.664,"note":58,"dur":0.332,"vel":0.63,"inst":"bass_v0_bell_432","midi_source":""},{"t":10.774,"note":38,"dur":0.111,"vel":0.63,"inst":"bass_v0_bell_432","midi_source":""},{"t":10.885,"note":41,"dur":0.111,"vel":0.638,"inst":"koto_v0_additive_32","midi_source":""},{"t":10.996,"note":46,"dur":0.111,"vel":0.661,"inst":"bass_v0_bell_432","midi_source":""},{"t":10.996,"note":70,"dur":0.111,"vel":0.732,"inst":"bass_v0_bell_432","midi_source":""},{"t":11.107,"note":50,"dur":0.443,"vel":0.669,"inst":"bass_v0_bell_432","midi_source":""},{"t":11.107,"note":62,"dur":0.332,"vel":0.504,"inst":"bass_v0_bell_432","midi_source":""},{"t":11.439,"note":63,"dur":0.111,"vel":0.606,"inst":"koto_v0_additive_32","midi_source":""},{"t":11.55,"note":35,"dur":0.222,"vel":0.52,"inst":"koto_v0_additive_32","midi_source":""},{"t":11.55,"note":59,"dur":0.665,"vel":0.654,"inst":"koto_v0_additive_32","midi_source":""},{"t":11.55,"note":63,"dur":0.665,"vel":0.654,"inst":"koto_v0_additive_32","midi_source":""},{"t":11.55,"note":65,"dur":0.665,"vel":0.654,"inst":"koto_v0_additive_32","midi_source":""},{"t":11.772,"note":45,"dur":0.111,"vel":0.638,"inst":"koto_v0_additive_32","midi_source":""},{"t":11.883,"note":51,"dur":0.111,"vel":0.717,"inst":"koto_v0_additive_32","midi_source":""},{"t":11.993,"note":53,"dur":0.222,"vel":0.63,"inst":"koto_v0_additive_32","midi_source":""},{"t":12.215,"note":41,"dur":0.111,"vel":0.559,"inst":"koto_v0_additive_32","midi_source":""},{"t":12.215,"note":58,"dur":0.665,"vel":0.614,"inst":"bass_v0_bell_432","midi_source":""},{"t":12.215,"note":62,"dur":0.665,"vel":0.614,"inst":"bass_v0_bell_432","midi_source":""},{"t":12.215,"note":65,"dur":0.665,"vel":0.614,"inst":"koto_v0_additive_32","midi_source":""},{"t":12.326,"note":46,"dur":0.111,"vel":0.614,"inst":"bass_v0_bell_432","midi_source":""},{"t":12.437,"note":50,"dur":0.332,"vel":0.693,"inst":"bass_v0_bell_432","midi_source":""},{"t":12.769,"note":46,"dur":0.111,"vel":0.606,"inst":"bass_v0_bell_432","midi_source":""},{"t":12.88,"note":29,"dur":0.222,"vel":0.535,"inst":"koto_v0_additive_32","midi_source":""},{"t":12.88,"note":57,"dur":0.665,"vel":0.598,"inst":"koto_v0_additive_32","midi_source":""},{"t":12.88,"note":63,"dur":0.665,"vel":0.598,"inst":"koto_v0_additive_32","midi_source":""},{"t":12.88,"note":65,"dur":0.665,"vel":0.598,"inst":"koto_v0_additive_32","midi_source":""},{"t":13.102,"note":41,"dur":0.111,"vel":0.701,"inst":"koto_v0_additive_32","midi_source":""},{"t":13.212,"note":45,"dur":0.111,"vel":0.638,"inst":"koto_v0_additive_32","midi_source":""},{"t":13.323,"note":48,"dur":0.222,"vel":0.614,"inst":"bass_v0_bell_432","midi_source":""},{"t":13.545,"note":41,"dur":0.111,"vel":0.551,"inst":"koto_v0_additive_32","midi_source":""},{"t":13.545,"note":58,"dur":0.665,"vel":0.614,"inst":"bass_v0_bell_432","midi_source":""},{"t":13.545,"note":62,"dur":0.665,"vel":0.614,"inst":"bass_v0_bell_432","midi_source":""},{"t":13.545,"note":65,"dur":0.665,"vel":0.614,"inst":"koto_v0_additive_32","midi_source":""},{"t":13.656,"note":46,"dur":0.111,"vel":0.63,"inst":"bass_v0_bell_432","midi_source":""},{"t":13.767,"note":50,"dur":0.332,"vel":0.685,"inst":"bass_v0_bell_432","midi_source":""},{"t":14.099,"note":46,"dur":0.111,"vel":0.583,"inst":"bass_v0_bell_432","midi_source":""},{"t":14.21,"note":35,"dur":0.222,"vel":0.512,"inst":"koto_v0_additive_32","midi_source":""},{"t":14.21,"note":57,"dur":0.665,"vel":0.606,"inst":"koto_v0_additive_32","midi_source":""},{"t":14.21,"note":63,"dur":0.665,"vel":0.606,"inst":"koto_v0_additive_32","midi_source":""},{"t":14.21,"note":65,"dur":0.665,"vel":0.606,"inst":"koto_v0_additive_32","midi_source":""},{"t":14.432,"note":45,"dur":0.111,"vel":0.638,"inst":"koto_v0_additive_32","midi_source":""},{"t":14.542,"note":51,"dur":0.111,"vel":0.669,"inst":"koto_v0_additive_32","midi_source":""},{"t":14.653,"note":53,"dur":0.222,"vel":0.685,"inst":"koto_v0_additive_32","midi_source":""},{"t":14.875,"note":41,"dur":0.111,"vel":0.535,"inst":"koto_v0_additive_32","midi_source":""},{"t":14.875,"note":58,"dur":0.665,"vel":0.614,"inst":"bass_v0_bell_432","midi_source":""},{"t":14.875,"note":62,"dur":0.665,"vel":0.614,"inst":"bass_v0_bell_432","midi_source":""},{"t":14.875,"note":65,"dur":0.665,"vel":0.614,"inst":"koto_v0_additive_32","midi_source":""},{"t":14.986,"note":46,"dur":0.111,"vel":0.614,"inst":"bass_v0_bell_432","midi_source":""},{"t":15.097,"note":50,"dur":0.332,"vel":0.677,"inst":"bass_v0_bell_432","midi_source":""},{"t":15.429,"note":46,"dur":0.111,"vel":0.575,"inst":"bass_v0_bell_432","midi_source":""},{"t":15.54,"note":29,"dur":0.222,"vel":0.528,"inst":"koto_v0_additive_32","midi_source":""},{"t":15.54,"note":57,"dur":0.665,"vel":0.591,"inst":"koto_v0_additive_32","midi_source":""},{"t":15.54,"note":65,"dur":0.665,"vel":0.591,"inst":"koto_v0_additive_32","midi_source":""},{"t":15.761,"note":41,"dur":0.111,"vel":0.669,"inst":"koto_v0_additive_32","midi_source":""},{"t":15.872,"note":45,"dur":0.111,"vel":0.63,"inst":"koto_v0_additive_32","midi_source":""},{"t":15.983,"note":32,"dur":0.222,"vel":0.559,"inst":"bass_v0_bell_432","midi_source":""},{"t":15.983,"note":59,"dur":0.147,"vel":0.787,"inst":"koto_v0_additive_32","midi_source":""},{"t":16.13,"note":61,"dur":0.147,"vel":0.787,"inst":"koto_v0_additive_32","midi_source":""},{"t":16.205,"note":39,"dur":0.222,"vel":0.63,"inst":"koto_v0_additive_32","midi_source":""},{"t":16.278,"note":59,"dur":0.149,"vel":0.787,"inst":"koto_v0_additive_32","midi_source":""},{"t":16.426,"note":47,"dur":0.222,"vel":0.677,"inst":"koto_v0_additive_32","midi_source":""},{"t":16.426,"note":56,"dur":0.443,"vel":0.528,"inst":"bass_v0_bell_432","midi_source":""},{"t":16.648,"note":39,"dur":0.222,"vel":0.559,"inst":"koto_v0_additive_32","midi_source":""},{"t":16.87,"note":34,"dur":0.222,"vel":0.551,"inst":"bass_v0_bell_432","midi_source":""},{"t":16.87,"note":56,"dur":0.443,"vel":0.638,"inst":"bass_v0_bell_432","midi_source":""},{"t":16.87,"note":58,"dur":0.443,"vel":0.638,"inst":"bass_v0_bell_432","midi_source":""},{"t":17.091,"note":40,"dur":0.222,"vel":0.638,"inst":"bass_v0_bell_432","midi_source":""},{"t":17.313,"note":50,"dur":0.222,"vel":0.748,"inst":"bass_v0_bell_432","midi_source":""},{"t":17.313,"note":56,"dur":0.332,"vel":0.606,"inst":"bass_v0_bell_432","midi_source":""},{"t":17.313,"note":58,"dur":0.332,"vel":0.606,"inst":"bass_v0_bell_432","midi_source":""},{"t":17.535,"note":46,"dur":0.222,"vel":0.591,"inst":"bass_v0_bell_432","midi_source":""},{"t":17.646,"note":56,"dur":0.111,"vel":0.551,"inst":"bass_v0_bell_432","midi_source":""},{"t":17.646,"note":58,"dur":0.111,"vel":0.551,"inst":"bass_v0_bell_432","midi_source":""},{"t":17.756,"note":39,"dur":0.222,"vel":0.535,"inst":"koto_v0_additive_32","midi_source":""},{"t":17.756,"note":54,"dur":0.443,"vel":0.614,"inst":"bass_v0_bell_432","midi_source":""},{"t":17.756,"note":58,"dur":0.443,"vel":0.614,"inst":"bass_v0_bell_432","midi_source":""},{"t":17.978,"note":46,"dur":0.222,"vel":0.63,"inst":"bass_v0_bell_432","midi_source":""},{"t":18.2,"note":54,"dur":0.222,"vel":0.709,"inst":"bass_v0_bell_432","midi_source":""},{"t":18.2,"note":58,"dur":0.332,"vel":0.709,"inst":"bass_v0_bell_432","midi_source":""},{"t":18.2,"note":66,"dur":0.332,"vel":0.709,"inst":"bass_v0_bell_432","midi_source":""},{"t":18.421,"note":46,"dur":0.222,"vel":0.543,"inst":"bass_v0_bell_432","midi_source":""},{"t":18.532,"note":58,"dur":0.111,"vel":0.614,"inst":"bass_v0_bell_432","midi_source":""},{"t":18.532,"note":66,"dur":0.111,"vel":0.614,"inst":"bass_v0_bell_432","midi_source":""},{"t":18.643,"note":34,"dur":0.222,"vel":0.488,"inst":"bass_v0_bell_432","midi_source":""},{"t":18.643,"note":56,"dur":0.332,"vel":0.591,"inst":"bass_v0_bell_432","midi_source":""},{"t":18.643,"note":64,"dur":0.332,"vel":0.591,"inst":"bass_v0_bell_432","midi_source":""},{"t":18.865,"note":40,"dur":0.222,"vel":0.622,"inst":"bass_v0_bell_432","midi_source":""},{"t":18.975,"note":54,"dur":0.111,"vel":0.622,"inst":"bass_v0_bell_432","midi_source":""},{"t":18.975,"note":63,"dur":0.111,"vel":0.622,"inst":"koto_v0_additive_32","midi_source":""},{"t":19.086,"note":50,"dur":0.222,"vel":0.724,"inst":"bass_v0_bell_432","midi_source":""},{"t":19.086,"note":56,"dur":0.332,"vel":0.606,"inst":"bass_v0_bell_432","midi_source":""},{"t":19.086,"note":64,"dur":0.332,"vel":0.606,"inst":"bass_v0_bell_432","midi_source":""},{"t":19.308,"note":46,"dur":0.222,"vel":0.606,"inst":"bass_v0_bell_432","midi_source":""},{"t":19.419,"note":58,"dur":0.111,"vel":0.654,"inst":"bass_v0_bell_432","midi_source":""},{"t":19.419,"note":66,"dur":0.111,"vel":0.654,"inst":"bass_v0_bell_432","midi_source":""},{"t":19.53,"note":39,"dur":0.222,"vel":0.543,"inst":"koto_v0_additive_32","midi_source":""},{"t":19.53,"note":52,"dur":0.887,"vel":0.528,"inst":"bass_v0_bell_432","midi_source":""},{"t":19.53,"note":63,"dur":0.887,"vel":0.528,"inst":"koto_v0_additive_32","midi_source":""},{"t":19.751,"note":46,"dur":0.222,"vel":0.646,"inst":"bass_v0_bell_432","midi_source":""},{"t":19.973,"note":54,"dur":0.222,"vel":0.709,"inst":"bass_v0_bell_432","midi_source":""},{"t":20.195,"note":46,"dur":0.222,"vel":0.559,"inst":"bass_v0_bell_432","midi_source":""},{"t":20.416,"note":35,"dur":0.222,"vel":0.543,"inst":"koto_v0_additive_32","midi_source":""},{"t":20.416,"note":63,"dur":0.443,"vel":0.591,"inst":"koto_v0_additive_32","midi_source":""},{"t":20.638,"note":39,"dur":0.222,"vel":0.598,"inst":"koto_v0_additive_32","midi_source":""},{"t":20.859,"note":51,"dur":0.222,"vel":0.772,"inst":"koto_v0_additive_32","midi_source":""},{"t":20.859,"note":62,"dur":0.222,"vel":0.559,"inst":"bass_v0_bell_432","midi_source":""},{"t":21.081,"note":47,"dur":0.222,"vel":0.614,"inst":"koto_v0_additive_32","midi_source":""},{"t":21.081,"note":63,"dur":0.222,"vel":0.614,"inst":"koto_v0_additive_32","midi_source":""},{"t":21.303,"note":34,"dur":0.222,"vel":0.535,"inst":"bass_v0_bell_432","midi_source":""},{"t":21.303,"note":66,"dur":0.665,"vel":0.669,"inst":"bass_v0_bell_432","midi_source":""},{"t":21.524,"note":38,"dur":0.222,"vel":0.606,"inst":"bass_v0_bell_432","midi_source":""},{"t":21.746,"note":50,"dur":0.222,"vel":0.748,"inst":"bass_v0_bell_432","midi_source":""},{"t":21.968,"note":46,"dur":0.222,"vel":0.606,"inst":"bass_v0_bell_432","midi_source":""},{"t":21.968,"note":64,"dur":0.222,"vel":0.591,"inst":"bass_v0_bell_432","midi_source":""},{"t":22.189,"note":35,"dur":0.222,"vel":0.535,"inst":"koto_v0_additive_32","midi_source":""},{"t":22.189,"note":53,"dur":0.332,"vel":0.425,"inst":"koto_v0_additive_32","midi_source":""},{"t":22.411,"note":39,"dur":0.222,"vel":0.661,"inst":"koto_v0_additive_32","midi_source":""},{"t":22.522,"note":63,"dur":0.111,"vel":0.709,"inst":"koto_v0_additive_32","midi_source":""},{"t":22.633,"note":51,"dur":0.222,"vel":0.78,"inst":"koto_v0_additive_32","midi_source":""},{"t":22.633,"note":63,"dur":0.222,"vel":0.598,"inst":"koto_v0_additive_32","midi_source":""},{"t":22.854,"note":47,"dur":0.222,"vel":0.654,"inst":"koto_v0_additive_32","midi_source":""},{"t":22.854,"note":63,"dur":0.222,"vel":0.598,"inst":"koto_v0_additive_32","midi_source":""},{"t":23.076,"note":34,"dur":0.222,"vel":0.528,"inst":"bass_v0_bell_432","midi_source":""},{"t":23.076,"note":62,"dur":0.222,"vel":0.559,"inst":"bass_v0_bell_432","midi_source":""},{"t":23.298,"note":38,"dur":0.222,"vel":0.591,"inst":"bass_v0_bell_432","midi_source":""},{"t":23.298,"note":65,"dur":0.665,"vel":0.638,"inst":"koto_v0_additive_32","midi_source":""},{"t":23.519,"note":50,"dur":0.222,"vel":0.764,"inst":"bass_v0_bell_432","midi_source":""},{"t":23.741,"note":46,"dur":0.222,"vel":0.614,"inst":"bass_v0_bell_432","midi_source":""},{"t":23.963,"note":40,"dur":0.222,"vel":0.559,"inst":"bass_v0_bell_432","midi_source":""},{"t":23.963,"note":58,"dur":0.222,"vel":0.504,"inst":"bass_v0_bell_432","midi_source":""},{"t":24.184,"note":43,"dur":0.222,"vel":0.614,"inst":"koto_v0_additive_32","midi_source":""},{"t":24.184,"note":60,"dur":0.111,"vel":0.598,"inst":"bass_v0_bell_432","midi_source":""},{"t":24.295,"note":58,"dur":0.111,"vel":0.543,"inst":"bass_v0_bell_432","midi_source":""},{"t":24.406,"note":48,"dur":0.222,"vel":0.63,"inst":"bass_v0_bell_432","midi_source":""},{"t":24.406,"note":57,"dur":0.222,"vel":0.567,"inst":"koto_v0_additive_32","midi_source":""},{"t":24.628,"note":46,"dur":0.222,"vel":0.551,"inst":"bass_v0_bell_432","midi_source":""},{"t":24.628,"note":55,"dur":0.222,"vel":0.535,"inst":"koto_v0_additive_32","midi_source":""},{"t":24.849,"note":41,"dur":0.222,"vel":0.575,"inst":"koto_v0_additive_32","midi_source":""},{"t":24.849,"note":55,"dur":0.665,"vel":0.606,"inst":"koto_v0_additive_32","midi_source":""},{"t":25.071,"note":46,"dur":0.222,"vel":0.614,"inst":"bass_v0_bell_432","midi_source":""},{"t":25.292,"note":50,"dur":0.222,"vel":0.677,"inst":"bass_v0_bell_432","midi_source":""},{"t":25.514,"note":46,"dur":0.222,"vel":0.551,"inst":"bass_v0_bell_432","midi_source":""},{"t":25.514,"note":53,"dur":0.222,"vel":0.567,"inst":"koto_v0_additive_32","midi_source":""},{"t":25.736,"note":41,"dur":0.222,"vel":0.591,"inst":"koto_v0_additive_32","midi_source":""},{"t":25.736,"note":53,"dur":0.332,"vel":0.591,"inst":"koto_v0_additive_32","midi_source":""},{"t":25.957,"note":45,"dur":0.222,"vel":0.63,"inst":"koto_v0_additive_32","midi_source":""},{"t":26.068,"note":63,"dur":0.111,"vel":0.717,"inst":"koto_v0_additive_32","midi_source":""},{"t":26.179,"note":51,"dur":0.222,"vel":0.677,"inst":"koto_v0_additive_32","midi_source":""},{"t":26.179,"note":55,"dur":0.332,"vel":0.496,"inst":"koto_v0_additive_32","midi_source":""},{"t":26.401,"note":53,"dur":0.222,"vel":0.661,"inst":"koto_v0_additive_32","midi_source":""},{"t":26.512,"note":57,"dur":0.111,"vel":0.591,"inst":"koto_v0_additive_32","midi_source":""},{"t":26.622,"note":34,"dur":0.111,"vel":0.52,"inst":"bass_v0_bell_432","midi_source":""},{"t":26.622,"note":58,"dur":0.332,"vel":0.63,"inst":"bass_v0_bell_432","midi_source":""},{"t":26.733,"note":38,"dur":0.111,"vel":0.63,"inst":"bass_v0_bell_432","midi_source":""},{"t":26.844,"note":41,"dur":0.111,"vel":0.638,"inst":"koto_v0_additive_32","midi_source":""},{"t":26.955,"note":46,"dur":0.111,"vel":0.661,"inst":"bass_v0_bell_432","midi_source":""},{"t":26.955,"note":70,"dur":0.111,"vel":0.732,"inst":"bass_v0_bell_432","midi_source":""},{"t":27.066,"note":50,"dur":0.443,"vel":0.669,"inst":"bass_v0_bell_432","midi_source":""},{"t":27.066,"note":62,"dur":0.332,"vel":0.504,"inst":"bass_v0_bell_432","midi_source":""},{"t":27.398,"note":63,"dur":0.111,"vel":0.606,"inst":"koto_v0_additive_32","midi_source":""},{"t":27.509,"note":35,"dur":0.222,"vel":0.52,"inst":"koto_v0_additive_32","midi_source":""},{"t":27.509,"note":59,"dur":0.665,"vel":0.654,"inst":"koto_v0_additive_32","midi_source":""},{"t":27.509,"note":63,"dur":0.665,"vel":0.654,"inst":"koto_v0_additive_32","midi_source":""},{"t":27.509,"note":65,"dur":0.665,"vel":0.654,"inst":"koto_v0_additive_32","midi_source":""},{"t":27.731,"note":45,"dur":0.111,"vel":0.638,"inst":"koto_v0_additive_32","midi_source":""},{"t":27.841,"note":51,"dur":0.111,"vel":0.717,"inst":"koto_v0_additive_32","midi_source":""},{"t":27.952,"note":53,"dur":0.222,"vel":0.63,"inst":"koto_v0_additive_32","midi_source":""},{"t":28.174,"note":41,"dur":0.111,"vel":0.559,"inst":"koto_v0_additive_32","midi_source":""},{"t":28.174,"note":58,"dur":0.665,"vel":0.614,"inst":"bass_v0_bell_432","midi_source":""},{"t":28.174,"note":62,"dur":0.665,"vel":0.614,"inst":"bass_v0_bell_432","midi_source":""},{"t":28.174,"note":65,"dur":0.665,"vel":0.614,"inst":"koto_v0_additive_32","midi_source":""},{"t":28.285,"note":46,"dur":0.111,"vel":0.614,"inst":"bass_v0_bell_432","midi_source":""},{"t":28.396,"note":50,"dur":0.332,"vel":0.693,"inst":"bass_v0_bell_432","midi_source":""},{"t":28.728,"note":46,"dur":0.111,"vel":0.606,"inst":"bass_v0_bell_432","midi_source":""},{"t":28.839,"note":29,"dur":0.222,"vel":0.535,"inst":"koto_v0_additive_32","midi_source":""},{"t":28.839,"note":57,"dur":0.665,"vel":0.598,"inst":"koto_v0_additive_32","midi_source":""},{"t":28.839,"note":63,"dur":0.665,"vel":0.598,"inst":"koto_v0_additive_32","midi_source":""},{"t":28.839,"note":65,"dur":0.665,"vel":0.598,"inst":"koto_v0_additive_32","midi_source":""},{"t":29.061,"note":41,"dur":0.111,"vel":0.701,"inst":"koto_v0_additive_32","midi_source":""},{"t":29.171,"note":45,"dur":0.111,"vel":0.638,"inst":"koto_v0_additive_32","midi_source":""},{"t":29.282,"note":48,"dur":0.222,"vel":0.614,"inst":"bass_v0_bell_432","midi_source":""},{"t":29.504,"note":41,"dur":0.111,"vel":0.551,"inst":"koto_v0_additive_32","midi_source":""},{"t":29.504,"note":58,"dur":0.665,"vel":0.614,"inst":"bass_v0_bell_432","midi_source":""},{"t":29.504,"note":62,"dur":0.665,"vel":0.614,"inst":"bass_v0_bell_432","midi_source":""},{"t":29.504,"note":65,"dur":0.665,"vel":0.614,"inst":"koto_v0_additive_32","midi_source":""},{"t":29.615,"note":46,"dur":0.111,"vel":0.63,"inst":"bass_v0_bell_432","midi_source":""},{"t":29.726,"note":50,"dur":0.332,"vel":0.685,"inst":"bass_v0_bell_432","midi_source":""},{"t":30.058,"note":46,"dur":0.111,"vel":0.583,"inst":"bass_v0_bell_432","midi_source":""},{"t":30.169,"note":35,"dur":0.222,"vel":0.512,"inst":"koto_v0_additive_32","midi_source":""},{"t":30.169,"note":57,"dur":0.665,"vel":0.606,"inst":"koto_v0_additive_32","midi_source":""},{"t":30.169,"note":63,"dur":0.665,"vel":0.606,"inst":"koto_v0_additive_32","midi_source":""},{"t":30.169,"note":65,"dur":0.665,"vel":0.606,"inst":"koto_v0_additive_32","midi_source":""},{"t":30.39,"note":45,"dur":0.111,"vel":0.638,"inst":"koto_v0_additive_32","midi_source":""},{"t":30.501,"note":51,"dur":0.111,"vel":0.669,"inst":"koto_v0_additive_32","midi_source":""},{"t":30.612,"note":53,"dur":0.222,"vel":0.685,"inst":"koto_v0_additive_32","midi_source":""},{"t":30.834,"note":41,"dur":0.111,"vel":0.535,"inst":"koto_v0_additive_32","midi_source":""},{"t":30.834,"note":58,"dur":0.665,"vel":0.614,"inst":"bass_v0_bell_432","midi_source":""},{"t":30.834,"note":62,"dur":0.665,"vel":0.614,"inst":"bass_v0_bell_432","midi_source":""},{"t":30.834,"note":65,"dur":0.665,"vel":0.614,"inst":"koto_v0_additive_32","midi_source":""},{"t":30.945,"note":46,"dur":0.111,"vel":0.614,"inst":"bass_v0_bell_432","midi_source":""},{"t":31.055,"note":50,"dur":0.332,"vel":0.677,"inst":"bass_v0_bell_432","midi_source":""},{"t":31.388,"note":46,"dur":0.111,"vel":0.575,"inst":"bass_v0_bell_432","midi_source":""},{"t":31.499,"note":29,"dur":0.222,"vel":0.528,"inst":"koto_v0_additive_32","midi_source":""},{"t":31.499,"note":57,"dur":0.665,"vel":0.591,"inst":"koto_v0_additive_32","midi_source":""},{"t":31.499,"note":65,"dur":0.665,"vel":0.591,"inst":"koto_v0_additive_32","midi_source":""},{"t":31.72,"note":41,"dur":0.111,"vel":0.669,"inst":"koto_v0_additive_32","midi_source":""},{"t":31.831,"note":45,"dur":0.111,"vel":0.63,"inst":"koto_v0_additive_32","midi_source":""},{"t":31.942,"note":32,"dur":0.222,"vel":0.559,"inst":"bass_v0_bell_432","midi_source":""},{"t":31.942,"note":59,"dur":0.147,"vel":0.787,"inst":"koto_v0_additive_32","midi_source":""},{"t":32.089,"note":61,"dur":0.147,"vel":0.787,"inst":"koto_v0_additive_32","midi_source":""},{"t":32.164,"note":39,"dur":0.222,"vel":0.63,"inst":"koto_v0_additive_32","midi_source":""},{"t":32.236,"note":59,"dur":0.149,"vel":0.787,"inst":"koto_v0_additive_32","midi_source":""},{"t":32.385,"note":47,"dur":0.222,"vel":0.677,"inst":"koto_v0_additive_32","midi_source":""},{"t":32.385,"note":56,"dur":0.443,"vel":0.528,"inst":"bass_v0_bell_432","midi_source":""},{"t":32.607,"note":39,"dur":0.222,"vel":0.559,"inst":"koto_v0_additive_32","midi_source":""},{"t":32.829,"note":34,"dur":0.222,"vel":0.551,"inst":"bass_v0_bell_432","midi_source":""},{"t":32.829,"note":56,"dur":0.443,"vel":0.638,"inst":"bass_v0_bell_432","midi_source":""},{"t":32.829,"note":58,"dur":0.443,"vel":0.638,"inst":"bass_v0_bell_432","midi_source":""},{"t":33.05,"note":40,"dur":0.222,"vel":0.638,"inst":"bass_v0_bell_432","midi_source":""},{"t":33.272,"note":50,"dur":0.222,"vel":0.748,"inst":"bass_v0_bell_432","midi_source":""},{"t":33.272,"note":56,"dur":0.332,"vel":0.606,"inst":"bass_v0_bell_432","midi_source":""},{"t":33.272,"note":58,"dur":0.332,"vel":0.606,"inst":"bass_v0_bell_432","midi_source":""},{"t":33.494,"note":46,"dur":0.222,"vel":0.591,"inst":"bass_v0_bell_432","midi_source":""},{"t":33.604,"note":56,"dur":0.111,"vel":0.551,"inst":"bass_v0_bell_432","midi_source":""},{"t":33.604,"note":58,"dur":0.111,"vel":0.551,"inst":"bass_v0_bell_432","midi_source":""},{"t":33.715,"note":39,"dur":0.222,"vel":0.535,"inst":"koto_v0_additive_32","midi_source":""},{"t":33.715,"note":54,"dur":0.443,"vel":0.614,"inst":"bass_v0_bell_432","midi_source":""},{"t":33.715,"note":58,"dur":0.443,"vel":0.614,"inst":"bass_v0_bell_432","midi_source":""},{"t":33.937,"note":46,"dur":0.222,"vel":0.63,"inst":"bass_v0_bell_432","midi_source":""},{"t":34.159,"note":54,"dur":0.222,"vel":0.709,"inst":"bass_v0_bell_432","midi_source":""},{"t":34.159,"note":58,"dur":0.332,"vel":0.709,"inst":"bass_v0_bell_432","midi_source":""},{"t":34.159,"note":66,"dur":0.332,"vel":0.709,"inst":"bass_v0_bell_432","midi_source":""},{"t":34.38,"note":46,"dur":0.222,"vel":0.543,"inst":"bass_v0_bell_432","midi_source":""},{"t":34.491,"note":58,"dur":0.111,"vel":0.614,"inst":"bass_v0_bell_432","midi_source":""},{"t":34.491,"note":66,"dur":0.111,"vel":0.614,"inst":"bass_v0_bell_432","midi_source":""},{"t":34.602,"note":34,"dur":0.222,"vel":0.488,"inst":"bass_v0_bell_432","midi_source":""},{"t":34.602,"note":56,"dur":0.332,"vel":0.591,"inst":"bass_v0_bell_432","midi_source":""},{"t":34.602,"note":64,"dur":0.332,"vel":0.591,"inst":"bass_v0_bell_432","midi_source":""},{"t":34.823,"note":40,"dur":0.222,"vel":0.622,"inst":"bass_v0_bell_432","midi_source":""},{"t":34.934,"note":54,"dur":0.111,"vel":0.622,"inst":"bass_v0_bell_432","midi_source":""},{"t":34.934,"note":63,"dur":0.111,"vel":0.622,"inst":"koto_v0_additive_32","midi_source":""},{"t":35.045,"note":50,"dur":0.222,"vel":0.724,"inst":"bass_v0_bell_432","midi_source":""},{"t":35.045,"note":56,"dur":0.332,"vel":0.606,"inst":"bass_v0_bell_432","midi_source":""},{"t":35.045,"note":64,"dur":0.332,"vel":0.606,"inst":"bass_v0_bell_432","midi_source":""},{"t":35.267,"note":46,"dur":0.222,"vel":0.606,"inst":"bass_v0_bell_432","midi_source":""},{"t":35.378,"note":58,"dur":0.111,"vel":0.654,"inst":"bass_v0_bell_432","midi_source":""},{"t":35.378,"note":66,"dur":0.111,"vel":0.654,"inst":"bass_v0_bell_432","midi_source":""},{"t":35.488,"note":39,"dur":0.222,"vel":0.543,"inst":"koto_v0_additive_32","midi_source":""},{"t":35.488,"note":52,"dur":0.887,"vel":0.528,"inst":"bass_v0_bell_432","midi_source":""},{"t":35.488,"note":63,"dur":0.887,"vel":0.528,"inst":"koto_v0_additive_32","midi_source":""},{"t":35.71,"note":46,"dur":0.222,"vel":0.646,"inst":"bass_v0_bell_432","midi_source":""},{"t":35.932,"note":54,"dur":0.222,"vel":0.709,"inst":"bass_v0_bell_432","midi_source":""},{"t":36.153,"note":46,"dur":0.222,"vel":0.559,"inst":"bass_v0_bell_432","midi_source":""},{"t":36.375,"note":35,"dur":0.222,"vel":0.543,"inst":"koto_v0_additive_32","midi_source":""},{"t":36.375,"note":63,"dur":0.443,"vel":0.591,"inst":"koto_v0_additive_32","midi_source":""},{"t":36.597,"note":39,"dur":0.222,"vel":0.598,"inst":"koto_v0_additive_32","midi_source":""},{"t":36.818,"note":51,"dur":0.222,"vel":0.772,"inst":"koto_v0_additive_32","midi_source":""},{"t":36.818,"note":62,"dur":0.222,"vel":0.559,"inst":"bass_v0_bell_432","midi_source":""},{"t":37.04,"note":47,"dur":0.222,"vel":0.614,"inst":"koto_v0_additive_32","midi_source":""},{"t":37.04,"note":63,"dur":0.222,"vel":0.614,"inst":"koto_v0_additive_32","midi_source":""},{"t":37.262,"note":34,"dur":0.222,"vel":0.535,"inst":"bass_v0_bell_432","midi_source":""},{"t":37.262,"note":66,"dur":0.665,"vel":0.669,"inst":"bass_v0_bell_432","midi_source":""},{"t":37.483,"note":38,"dur":0.222,"vel":0.606,"inst":"bass_v0_bell_432","midi_source":""},{"t":37.705,"note":50,"dur":0.222,"vel":0.748,"inst":"bass_v0_bell_432","midi_source":""},{"t":37.927,"note":46,"dur":0.222,"vel":0.606,"inst":"bass_v0_bell_432","midi_source":""},{"t":37.927,"note":64,"dur":0.222,"vel":0.591,"inst":"bass_v0_bell_432","midi_source":""},{"t":38.148,"note":35,"dur":0.222,"vel":0.535,"inst":"koto_v0_additive_32","midi_source":""},{"t":38.148,"note":53,"dur":0.332,"vel":0.425,"inst":"koto_v0_additive_32","midi_source":""},{"t":38.37,"note":39,"dur":0.222,"vel":0.661,"inst":"koto_v0_additive_32","midi_source":""},{"t":38.481,"note":63,"dur":0.111,"vel":0.709,"inst":"koto_v0_additive_32","midi_source":""},{"t":38.592,"note":51,"dur":0.222,"vel":0.78,"inst":"koto_v0_additive_32","midi_source":""},{"t":38.592,"note":63,"dur":0.222,"vel":0.598,"inst":"koto_v0_additive_32","midi_source":""},{"t":38.813,"note":47,"dur":0.222,"vel":0.654,"inst":"koto_v0_additive_32","midi_source":""},{"t":38.813,"note":63,"dur":0.222,"vel":0.598,"inst":"koto_v0_additive_32","midi_source":""},{"t":39.035,"note":34,"dur":0.222,"vel":0.528,"inst":"bass_v0_bell_432","midi_source":""},{"t":39.035,"note":62,"dur":0.222,"vel":0.559,"inst":"bass_v0_bell_432","midi_source":""},{"t":39.257,"note":38,"dur":0.222,"vel":0.591,"inst":"bass_v0_bell_432","midi_source":""},{"t":39.257,"note":65,"dur":0.665,"vel":0.638,"inst":"koto_v0_additive_32","midi_source":""},{"t":39.478,"note":50,"dur":0.222,"vel":0.764,"inst":"bass_v0_bell_432","midi_source":""},{"t":39.7,"note":46,"dur":0.222,"vel":0.614,"inst":"bass_v0_bell_432","midi_source":""},{"t":39.921,"note":40,"dur":0.222,"vel":0.559,"inst":"bass_v0_bell_432","midi_source":""},{"t":39.921,"note":58,"dur":0.222,"vel":0.504,"inst":"bass_v0_bell_432","midi_source":""},{"t":40.143,"note":43,"dur":0.222,"vel":0.614,"inst":"koto_v0_additive_32","midi_source":""},{"t":40.143,"note":60,"dur":0.111,"vel":0.598,"inst":"bass_v0_bell_432","midi_source":""},{"t":40.254,"note":58,"dur":0.111,"vel":0.543,"inst":"bass_v0_bell_432","midi_source":""},{"t":40.365,"note":48,"dur":0.222,"vel":0.63,"inst":"bass_v0_bell_432","midi_source":""},{"t":40.365,"note":57,"dur":0.222,"vel":0.567,"inst":"koto_v0_additive_32","midi_source":""},{"t":40.586,"note":46,"dur":0.222,"vel":0.551,"inst":"bass_v0_bell_432","midi_source":""},{"t":40.586,"note":55,"dur":0.222,"vel":0.535,"inst":"koto_v0_additive_32","midi_source":""},{"t":40.808,"note":41,"dur":0.222,"vel":0.575,"inst":"koto_v0_additive_32","midi_source":""},{"t":40.808,"note":55,"dur":0.665,"vel":0.606,"inst":"koto_v0_additive_32","midi_source":""},{"t":41.03,"note":46,"dur":0.222,"vel":0.614,"inst":"bass_v0_bell_432","midi_source":""},{"t":41.251,"note":50,"dur":0.222,"vel":0.677,"inst":"bass_v0_bell_432","midi_source":""},{"t":41.473,"note":46,"dur":0.222,"vel":0.551,"inst":"bass_v0_bell_432","midi_source":""},{"t":41.473,"note":53,"dur":0.222,"vel":0.567,"inst":"koto_v0_additive_32","midi_source":""},{"t":41.695,"note":41,"dur":0.222,"vel":0.591,"inst":"koto_v0_additive_32","midi_source":""},{"t":41.695,"note":53,"dur":0.332,"vel":0.591,"inst":"koto_v0_additive_32","midi_source":""},{"t":41.916,"note":45,"dur":0.222,"vel":0.63,"inst":"koto_v0_additive_32","midi_source":""},{"t":42.027,"note":63,"dur":0.111,"vel":0.717,"inst":"koto_v0_additive_32","midi_source":""},{"t":42.138,"note":51,"dur":0.222,"vel":0.677,"inst":"koto_v0_additive_32","midi_source":""},{"t":42.138,"note":55,"dur":0.332,"vel":0.496,"inst":"koto_v0_additive_32","midi_source":""},{"t":42.36,"note":53,"dur":0.222,"vel":0.661,"inst":"koto_v0_additive_32","midi_source":""},{"t":42.47,"note":57,"dur":0.111,"vel":0.591,"inst":"koto_v0_additive_32","midi_source":""},{"t":42.581,"note":34,"dur":0.111,"vel":0.52,"inst":"bass_v0_bell_432","midi_source":""},{"t":42.581,"note":58,"dur":0.332,"vel":0.63,"inst":"bass_v0_bell_432","midi_source":""},{"t":42.692,"note":38,"dur":0.111,"vel":0.63,"inst":"bass_v0_bell_432","midi_source":""},{"t":42.803,"note":41,"dur":0.111,"vel":0.638,"inst":"koto_v0_additive_32","midi_source":""},{"t":42.914,"note":46,"dur":0.111,"vel":0.661,"inst":"bass_v0_bell_432","midi_source":""},{"t":42.914,"note":70,"dur":0.111,"vel":0.732,"inst":"bass_v0_bell_432","midi_source":""},{"t":43.025,"note":50,"dur":0.443,"vel":0.669,"inst":"bass_v0_bell_432","midi_source":""},{"t":43.025,"note":62,"dur":0.332,"vel":0.504,"inst":"bass_v0_bell_432","midi_source":""},{"t":43.357,"note":63,"dur":0.111,"vel":0.606,"inst":"koto_v0_additive_32","midi_source":""},{"t":43.468,"note":35,"dur":0.222,"vel":0.52,"inst":"koto_v0_additive_32","midi_source":""},{"t":43.468,"note":59,"dur":0.665,"vel":0.654,"inst":"koto_v0_additive_32","midi_source":""},{"t":43.468,"note":63,"dur":0.665,"vel":0.654,"inst":"koto_v0_additive_32","midi_source":""},{"t":43.468,"note":65,"dur":0.665,"vel":0.654,"inst":"koto_v0_additive_32","midi_source":""},{"t":43.69,"note":45,"dur":0.111,"vel":0.638,"inst":"koto_v0_additive_32","midi_source":""},{"t":43.8,"note":51,"dur":0.111,"vel":0.717,"inst":"koto_v0_additive_32","midi_source":""},{"t":43.911,"note":53,"dur":0.222,"vel":0.63,"inst":"koto_v0_additive_32","midi_source":""},{"t":44.133,"note":41,"dur":0.111,"vel":0.559,"inst":"koto_v0_additive_32","midi_source":""},{"t":44.133,"note":58,"dur":0.665,"vel":0.614,"inst":"bass_v0_bell_432","midi_source":""},{"t":44.133,"note":62,"dur":0.665,"vel":0.614,"inst":"bass_v0_bell_432","midi_source":""},{"t":44.133,"note":65,"dur":0.665,"vel":0.614,"inst":"koto_v0_additive_32","midi_source":""},{"t":44.244,"note":46,"dur":0.111,"vel":0.614,"inst":"bass_v0_bell_432","midi_source":""},{"t":44.354,"note":50,"dur":0.332,"vel":0.693,"inst":"bass_v0_bell_432","midi_source":""},{"t":44.687,"note":46,"dur":0.111,"vel":0.606,"inst":"bass_v0_bell_432","midi_source":""},{"t":44.798,"note":29,"dur":0.222,"vel":0.535,"inst":"koto_v0_additive_32","midi_source":""},{"t":44.798,"note":57,"dur":0.665,"vel":0.598,"inst":"koto_v0_additive_32","midi_source":""},{"t":44.798,"note":63,"dur":0.665,"vel":0.598,"inst":"koto_v0_additive_32","midi_source":""},{"t":44.798,"note":65,"dur":0.665,"vel":0.598,"inst":"koto_v0_additive_32","midi_source":""},{"t":45.019,"note":41,"dur":0.111,"vel":0.701,"inst":"koto_v0_additive_32","midi_source":""},{"t":45.13,"note":45,"dur":0.111,"vel":0.638,"inst":"koto_v0_additive_32","midi_source":""},{"t":45.241,"note":48,"dur":0.222,"vel":0.614,"inst":"bass_v0_bell_432","midi_source":""},{"t":45.463,"note":41,"dur":0.111,"vel":0.551,"inst":"koto_v0_additive_32","midi_source":""},{"t":45.463,"note":58,"dur":0.665,"vel":0.614,"inst":"bass_v0_bell_432","midi_source":""},{"t":45.463,"note":62,"dur":0.665,"vel":0.614,"inst":"bass_v0_bell_432","midi_source":""},{"t":45.463,"note":65,"dur":0.665,"vel":0.614,"inst":"koto_v0_additive_32","midi_source":""},{"t":45.574,"note":46,"dur":0.111,"vel":0.63,"inst":"bass_v0_bell_432","midi_source":""},{"t":45.684,"note":50,"dur":0.332,"vel":0.685,"inst":"bass_v0_bell_432","midi_source":""},{"t":46.017,"note":46,"dur":0.111,"vel":0.583,"inst":"bass_v0_bell_432","midi_source":""},{"t":46.128,"note":35,"dur":0.222,"vel":0.512,"inst":"koto_v0_additive_32","midi_source":""},{"t":46.128,"note":57,"dur":0.665,"vel":0.606,"inst":"koto_v0_additive_32","midi_source":""},{"t":46.128,"note":63,"dur":0.665,"vel":0.606,"inst":"koto_v0_additive_32","midi_source":""},{"t":46.128,"note":65,"dur":0.665,"vel":0.606,"inst":"koto_v0_additive_32","midi_source":""},{"t":46.349,"note":45,"dur":0.111,"vel":0.638,"inst":"koto_v0_additive_32","midi_source":""},{"t":46.46,"note":51,"dur":0.111,"vel":0.669,"inst":"koto_v0_additive_32","midi_source":""},{"t":46.571,"note":53,"dur":0.222,"vel":0.685,"inst":"koto_v0_additive_32","midi_source":""},{"t":46.793,"note":41,"dur":0.111,"vel":0.535,"inst":"koto_v0_additive_32","midi_source":""},{"t":46.793,"note":58,"dur":0.665,"vel":0.614,"inst":"bass_v0_bell_432","midi_source":""},{"t":46.793,"note":62,"dur":0.665,"vel":0.614,"inst":"bass_v0_bell_432","midi_source":""},{"t":46.793,"note":65,"dur":0.665,"vel":0.614,"inst":"koto_v0_additive_32","midi_source":""},{"t":46.903,"note":46,"dur":0.111,"vel":0.614,"inst":"bass_v0_bell_432","midi_source":""},{"t":47.014,"note":50,"dur":0.332,"vel":0.677,"inst":"bass_v0_bell_432","midi_source":""},{"t":47.347,"note":46,"dur":0.111,"vel":0.575,"inst":"bass_v0_bell_432","midi_source":""},{"t":47.458,"note":29,"dur":0.222,"vel":0.528,"inst":"koto_v0_additive_32","midi_source":""},{"t":47.458,"note":57,"dur":0.665,"vel":0.591,"inst":"koto_v0_additive_32","midi_source":""},{"t":47.458,"note":65,"dur":0.665,"vel":0.591,"inst":"koto_v0_additive_32","midi_source":""},{"t":47.679,"note":41,"dur":0.111,"vel":0.669,"inst":"koto_v0_additive_32","midi_source":""},{"t":47.79,"note":45,"dur":0.111,"vel":0.63,"inst":"koto_v0_additive_32","midi_source":""},{"t":47.901,"note":32,"dur":0.222,"vel":0.559,"inst":"bass_v0_bell_432","midi_source":""},{"t":47.901,"note":59,"dur":0.147,"vel":0.787,"inst":"koto_v0_additive_32","midi_source":""},{"t":48.048,"note":61,"dur":0.147,"vel":0.787,"inst":"koto_v0_additive_32","midi_source":""},{"t":48.123,"note":39,"dur":0.222,"vel":0.63,"inst":"koto_v0_additive_32","midi_source":""},{"t":48.195,"note":59,"dur":0.149,"vel":0.787,"inst":"koto_v0_additive_32","midi_source":""},{"t":48.344,"note":47,"dur":0.222,"vel":0.677,"inst":"koto_v0_additive_32","midi_source":""},{"t":48.344,"note":56,"dur":0.443,"vel":0.528,"inst":"bass_v0_bell_432","midi_source":""},{"t":48.566,"note":39,"dur":0.222,"vel":0.559,"inst":"koto_v0_additive_32","midi_source":""},{"t":48.788,"note":34,"dur":0.222,"vel":0.551,"inst":"bass_v0_bell_432","midi_source":""},{"t":48.788,"note":56,"dur":0.443,"vel":0.638,"inst":"bass_v0_bell_432","midi_source":""},{"t":48.788,"note":58,"dur":0.443,"vel":0.638,"inst":"bass_v0_bell_432","midi_source":""},{"t":49.009,"note":40,"dur":0.222,"vel":0.638,"inst":"bass_v0_bell_432","midi_source":""},{"t":49.231,"note":50,"dur":0.222,"vel":0.748,"inst":"bass_v0_bell_432","midi_source":""},{"t":49.231,"note":56,"dur":0.332,"vel":0.606,"inst":"bass_v0_bell_432","midi_source":""},{"t":49.231,"note":58,"dur":0.332,"vel":0.606,"inst":"bass_v0_bell_432","midi_source":""},{"t":49.452,"note":46,"dur":0.222,"vel":0.591,"inst":"bass_v0_bell_432","midi_source":""},{"t":49.563,"note":56,"dur":0.111,"vel":0.551,"inst":"bass_v0_bell_432","midi_source":""},{"t":49.563,"note":58,"dur":0.111,"vel":0.551,"inst":"bass_v0_bell_432","midi_source":""},{"t":49.674,"note":39,"dur":0.222,"vel":0.535,"inst":"koto_v0_additive_32","midi_source":""},{"t":49.674,"note":54,"dur":0.443,"vel":0.614,"inst":"bass_v0_bell_432","midi_source":""},{"t":49.674,"note":58,"dur":0.443,"vel":0.614,"inst":"bass_v0_bell_432","midi_source":""},{"t":49.896,"note":46,"dur":0.222,"vel":0.63,"inst":"bass_v0_bell_432","midi_source":""},{"t":50.117,"note":54,"dur":0.222,"vel":0.709,"inst":"bass_v0_bell_432","midi_source":""},{"t":50.117,"note":58,"dur":0.332,"vel":0.709,"inst":"bass_v0_bell_432","midi_source":""},{"t":50.117,"note":66,"dur":0.332,"vel":0.709,"inst":"bass_v0_bell_432","midi_source":""},{"t":50.339,"note":46,"dur":0.222,"vel":0.543,"inst":"bass_v0_bell_432","midi_source":""},{"t":50.45,"note":58,"dur":0.111,"vel":0.614,"inst":"bass_v0_bell_432","midi_source":""},{"t":50.45,"note":66,"dur":0.111,"vel":0.614,"inst":"bass_v0_bell_432","midi_source":""},{"t":50.561,"note":34,"dur":0.222,"vel":0.488,"inst":"bass_v0_bell_432","midi_source":""},{"t":50.561,"note":56,"dur":0.332,"vel":0.591,"inst":"bass_v0_bell_432","midi_source":""},{"t":50.561,"note":64,"dur":0.332,"vel":0.591,"inst":"bass_v0_bell_432","midi_source":""},{"t":50.782,"note":40,"dur":0.222,"vel":0.622,"inst":"bass_v0_bell_432","midi_source":""},{"t":50.893,"note":54,"dur":0.111,"vel":0.622,"inst":"bass_v0_bell_432","midi_source":""},{"t":50.893,"note":63,"dur":0.111,"vel":0.622,"inst":"koto_v0_additive_32","midi_source":""},{"t":51.004,"note":50,"dur":0.222,"vel":0.724,"inst":"bass_v0_bell_432","midi_source":""},{"t":51.004,"note":56,"dur":0.332,"vel":0.606,"inst":"bass_v0_bell_432","midi_source":""},{"t":51.004,"note":64,"dur":0.332,"vel":0.606,"inst":"bass_v0_bell_432","midi_source":""},{"t":51.226,"note":46,"dur":0.222,"vel":0.606,"inst":"bass_v0_bell_432","midi_source":""},{"t":51.337,"note":58,"dur":0.111,"vel":0.654,"inst":"bass_v0_bell_432","midi_source":""},{"t":51.337,"note":66,"dur":0.111,"vel":0.654,"inst":"bass_v0_bell_432","midi_source":""},{"t":51.447,"note":39,"dur":0.222,"vel":0.543,"inst":"koto_v0_additive_32","midi_source":""},{"t":51.447,"note":52,"dur":0.887,"vel":0.528,"inst":"bass_v0_bell_432","midi_source":""},{"t":51.447,"note":63,"dur":0.887,"vel":0.528,"inst":"koto_v0_additive_32","midi_source":""},{"t":51.669,"note":46,"dur":0.222,"vel":0.646,"inst":"bass_v0_bell_432","midi_source":""},{"t":51.891,"note":54,"dur":0.222,"vel":0.709,"inst":"bass_v0_bell_432","midi_source":""},{"t":52.112,"note":46,"dur":0.222,"vel":0.559,"inst":"bass_v0_bell_432","midi_source":""},{"t":52.334,"note":35,"dur":0.222,"vel":0.543,"inst":"koto_v0_additive_32","midi_source":""},{"t":52.334,"note":63,"dur":0.443,"vel":0.591,"inst":"koto_v0_additive_32","midi_source":""},{"t":52.556,"note":39,"dur":0.222,"vel":0.598,"inst":"koto_v0_additive_32","midi_source":""},{"t":52.777,"note":51,"dur":0.222,"vel":0.772,"inst":"koto_v0_additive_32","midi_source":""},{"t":52.777,"note":62,"dur":0.222,"vel":0.559,"inst":"bass_v0_bell_432","midi_source":""},{"t":52.999,"note":47,"dur":0.222,"vel":0.614,"inst":"koto_v0_additive_32","midi_source":""},{"t":52.999,"note":63,"dur":0.222,"vel":0.614,"inst":"koto_v0_additive_32","midi_source":""},{"t":53.221,"note":34,"dur":0.222,"vel":0.535,"inst":"bass_v0_bell_432","midi_source":""},{"t":53.221,"note":66,"dur":0.665,"vel":0.669,"inst":"bass_v0_bell_432","midi_source":""},{"t":53.442,"note":38,"dur":0.222,"vel":0.606,"inst":"bass_v0_bell_432","midi_source":""},{"t":53.664,"note":50,"dur":0.222,"vel":0.748,"inst":"bass_v0_bell_432","midi_source":""},{"t":53.885,"note":46,"dur":0.222,"vel":0.606,"inst":"bass_v0_bell_432","midi_source":""},{"t":53.885,"note":64,"dur":0.222,"vel":0.591,"inst":"bass_v0_bell_432","midi_source":""},{"t":54.107,"note":35,"dur":0.222,"vel":0.535,"inst":"koto_v0_additive_32","midi_source":""},{"t":54.107,"note":53,"dur":0.332,"vel":0.425,"inst":"koto_v0_additive_32","midi_source":""},{"t":54.329,"note":39,"dur":0.222,"vel":0.661,"inst":"koto_v0_additive_32","midi_source":""},{"t":54.44,"note":63,"dur":0.111,"vel":0.709,"inst":"koto_v0_additive_32","midi_source":""},{"t":54.55,"note":51,"dur":0.222,"vel":0.78,"inst":"koto_v0_additive_32","midi_source":""},{"t":54.55,"note":63,"dur":0.222,"vel":0.598,"inst":"koto_v0_additive_32","midi_source":""},{"t":54.772,"note":47,"dur":0.222,"vel":0.654,"inst":"koto_v0_additive_32","midi_source":""},{"t":54.772,"note":63,"dur":0.222,"vel":0.598,"inst":"koto_v0_additive_32","midi_source":""},{"t":54.994,"note":34,"dur":0.222,"vel":0.528,"inst":"bass_v0_bell_432","midi_source":""},{"t":54.994,"note":62,"dur":0.222,"vel":0.559,"inst":"bass_v0_bell_432","midi_source":""},{"t":55.215,"note":38,"dur":0.222,"vel":0.591,"inst":"bass_v0_bell_432","midi_source":""},{"t":55.215,"note":65,"dur":0.665,"vel":0.638,"inst":"koto_v0_additive_32","midi_source":""},{"t":55.437,"note":50,"dur":0.222,"vel":0.764,"inst":"bass_v0_bell_432","midi_source":""},{"t":55.659,"note":46,"dur":0.222,"vel":0.614,"inst":"bass_v0_bell_432","midi_source":""},{"t":55.88,"note":40,"dur":0.222,"vel":0.559,"inst":"bass_v0_bell_432","midi_source":""},{"t":55.88,"note":58,"dur":0.222,"vel":0.504,"inst":"bass_v0_bell_432","midi_source":""},{"t":56.102,"note":43,"dur":0.222,"vel":0.614,"inst":"koto_v0_additive_32","midi_source":""},{"t":56.102,"note":60,"dur":0.111,"vel":0.598,"inst":"bass_v0_bell_432","midi_source":""},{"t":56.213,"note":58,"dur":0.111,"vel":0.543,"inst":"bass_v0_bell_432","midi_source":""},{"t":56.324,"note":48,"dur":0.222,"vel":0.63,"inst":"bass_v0_bell_432","midi_source":""},{"t":56.324,"note":57,"dur":0.222,"vel":0.567,"inst":"koto_v0_additive_32","midi_source":""},{"t":56.545,"note":46,"dur":0.222,"vel":0.551,"inst":"bass_v0_bell_432","midi_source":""},{"t":56.545,"note":55,"dur":0.222,"vel":0.535,"inst":"koto_v0_additive_32","midi_source":""},{"t":56.767,"note":41,"dur":0.222,"vel":0.575,"inst":"koto_v0_additive_32","midi_source":""},{"t":56.767,"note":55,"dur":0.665,"vel":0.606,"inst":"koto_v0_additive_32","midi_source":""},{"t":56.989,"note":46,"dur":0.222,"vel":0.614,"inst":"bass_v0_bell_432","midi_source":""},{"t":57.21,"note":50,"dur":0.222,"vel":0.677,"inst":"bass_v0_bell_432","midi_source":""},{"t":57.432,"note":46,"dur":0.222,"vel":0.551,"inst":"bass_v0_bell_432","midi_source":""},{"t":57.432,"note":53,"dur":0.222,"vel":0.567,"inst":"koto_v0_additive_32","midi_source":""},{"t":57.654,"note":41,"dur":0.222,"vel":0.591,"inst":"koto_v0_additive_32","midi_source":""},{"t":57.654,"note":53,"dur":0.332,"vel":0.591,"inst":"koto_v0_additive_32","midi_source":""},{"t":57.875,"note":45,"dur":0.222,"vel":0.63,"inst":"koto_v0_additive_32","midi_source":""},{"t":57.986,"note":63,"dur":0.111,"vel":0.717,"inst":"koto_v0_additive_32","midi_source":""},{"t":58.097,"note":51,"dur":0.222,"vel":0.677,"inst":"koto_v0_additive_32","midi_source":""},{"t":58.097,"note":55,"dur":0.332,"vel":0.496,"inst":"koto_v0_additive_32","midi_source":""},{"t":58.319,"note":53,"dur":0.222,"vel":0.661,"inst":"koto_v0_additive_32","midi_source":""},{"t":58.429,"note":57,"dur":0.111,"vel":0.591,"inst":"koto_v0_additive_32","midi_source":""},{"t":58.54,"note":34,"dur":0.111,"vel":0.52,"inst":"bass_v0_bell_432","midi_source":""},{"t":58.54,"note":58,"dur":0.332,"vel":0.63,"inst":"bass_v0_bell_432","midi_source":""},{"t":58.651,"note":38,"dur":0.111,"vel":0.63,"inst":"bass_v0_bell_432","midi_source":""},{"t":58.762,"note":41,"dur":0.111,"vel":0.638,"inst":"koto_v0_additive_32","midi_source":""},{"t":58.873,"note":46,"dur":0.111,"vel":0.661,"inst":"bass_v0_bell_432","midi_source":""},{"t":58.873,"note":70,"dur":0.111,"vel":0.732,"inst":"bass_v0_bell_432","midi_source":""},{"t":58.983,"note":50,"dur":0.443,"vel":0.669,"inst":"bass_v0_bell_432","midi_source":""},{"t":58.983,"note":62,"dur":0.332,"vel":0.504,"inst":"bass_v0_bell_432","midi_source":""},{"t":59.316,"note":63,"dur":0.111,"vel":0.606,"inst":"koto_v0_additive_32","midi_source":""},{"t":59.427,"note":35,"dur":0.222,"vel":0.52,"inst":"koto_v0_additive_32","midi_source":""},{"t":59.427,"note":59,"dur":0.665,"vel":0.654,"inst":"koto_v0_additive_32","midi_source":""},{"t":59.427,"note":63,"dur":0.665,"vel":0.654,"inst":"koto_v0_additive_32","midi_source":""},{"t":59.427,"note":65,"dur":0.665,"vel":0.654,"inst":"koto_v0_additive_32","midi_source":""},{"t":59.648,"note":45,"dur":0.111,"vel":0.638,"inst":"koto_v0_additive_32","midi_source":""},{"t":59.759,"note":51,"dur":0.111,"vel":0.717,"inst":"koto_v0_additive_32","midi_source":""},{"t":59.87,"note":53,"dur":0.222,"vel":0.63,"inst":"koto_v0_additive_32","midi_source":""},{"t":60.092,"note":41,"dur":0.111,"vel":0.559,"inst":"koto_v0_additive_32","midi_source":""},{"t":60.092,"note":58,"dur":0.665,"vel":0.614,"inst":"bass_v0_bell_432","midi_source":""},{"t":60.092,"note":62,"dur":0.665,"vel":0.614,"inst":"bass_v0_bell_432","midi_source":""},{"t":60.092,"note":65,"dur":0.665,"vel":0.614,"inst":"koto_v0_additive_32","midi_source":""},{"t":60.203,"note":46,"dur":0.111,"vel":0.614,"inst":"bass_v0_bell_432","midi_source":""},{"t":60.313,"note":50,"dur":0.332,"vel":0.693,"inst":"bass_v0_bell_432","midi_source":""},{"t":60.646,"note":46,"dur":0.111,"vel":0.606,"inst":"bass_v0_bell_432","midi_source":""},{"t":60.757,"note":29,"dur":0.222,"vel":0.535,"inst":"koto_v0_additive_32","midi_source":""},{"t":60.757,"note":57,"dur":0.665,"vel":0.598,"inst":"koto_v0_additive_32","midi_source":""},{"t":60.757,"note":63,"dur":0.665,"vel":0.598,"inst":"koto_v0_additive_32","midi_source":""},{"t":60.757,"note":65,"dur":0.665,"vel":0.598,"inst":"koto_v0_additive_32","midi_source":""},{"t":60.978,"note":41,"dur":0.111,"vel":0.701,"inst":"koto_v0_additive_32","midi_source":""},{"t":61.089,"note":45,"dur":0.111,"vel":0.638,"inst":"koto_v0_additive_32","midi_source":""},{"t":61.2,"note":48,"dur":0.222,"vel":0.614,"inst":"bass_v0_bell_432","midi_source":""},{"t":61.422,"note":41,"dur":0.111,"vel":0.551,"inst":"koto_v0_additive_32","midi_source":""},{"t":61.422,"note":58,"dur":0.665,"vel":0.614,"inst":"bass_v0_bell_432","midi_source":""},{"t":61.422,"note":62,"dur":0.665,"vel":0.614,"inst":"bass_v0_bell_432","midi_source":""},{"t":61.422,"note":65,"dur":0.665,"vel":0.614,"inst":"koto_v0_additive_32","midi_source":""},{"t":61.532,"note":46,"dur":0.111,"vel":0.63,"inst":"bass_v0_bell_432","midi_source":""},{"t":61.643,"note":50,"dur":0.332,"vel":0.685,"inst":"bass_v0_bell_432","midi_source":""},{"t":61.976,"note":46,"dur":0.111,"vel":0.583,"inst":"bass_v0_bell_432","midi_source":""},{"t":62.087,"note":35,"dur":0.222,"vel":0.512,"inst":"koto_v0_additive_32","midi_source":""},{"t":62.087,"note":57,"dur":0.665,"vel":0.606,"inst":"koto_v0_additive_32","midi_source":""},{"t":62.087,"note":63,"dur":0.665,"vel":0.606,"inst":"koto_v0_additive_32","midi_source":""},{"t":62.087,"note":65,"dur":0.665,"vel":0.606,"inst":"koto_v0_additive_32","midi_source":""},{"t":62.308,"note":45,"dur":0.111,"vel":0.638,"inst":"koto_v0_additive_32","midi_source":""},{"t":62.419,"note":51,"dur":0.111,"vel":0.669,"inst":"koto_v0_additive_32","midi_source":""},{"t":62.53,"note":53,"dur":0.222,"vel":0.685,"inst":"koto_v0_additive_32","midi_source":""},{"t":62.752,"note":41,"dur":0.111,"vel":0.535,"inst":"koto_v0_additive_32","midi_source":""},{"t":62.752,"note":58,"dur":0.665,"vel":0.614,"inst":"bass_v0_bell_432","midi_source":""},{"t":62.752,"note":62,"dur":0.665,"vel":0.614,"inst":"bass_v0_bell_432","midi_source":""},{"t":62.752,"note":65,"dur":0.665,"vel":0.614,"inst":"koto_v0_additive_32","midi_source":""},{"t":62.862,"note":46,"dur":0.111,"vel":0.614,"inst":"bass_v0_bell_432","midi_source":""},{"t":62.973,"note":50,"dur":0.332,"vel":0.677,"inst":"bass_v0_bell_432","midi_source":""},{"t":63.306,"note":46,"dur":0.111,"vel":0.575,"inst":"bass_v0_bell_432","midi_source":""},{"t":63.416,"note":29,"dur":0.222,"vel":0.528,"inst":"koto_v0_additive_32","midi_source":""},{"t":63.416,"note":57,"dur":0.665,"vel":0.591,"inst":"koto_v0_additive_32","midi_source":""},{"t":63.416,"note":65,"dur":0.665,"vel":0.591,"inst":"koto_v0_additive_32","midi_source":""},{"t":63.638,"note":41,"dur":0.111,"vel":0.669,"inst":"koto_v0_additive_32","midi_source":""},{"t":63.749,"note":45,"dur":0.111,"vel":0.63,"inst":"koto_v0_additive_32","midi_source":""},{"t":63.86,"note":32,"dur":0.222,"vel":0.559,"inst":"bass_v0_bell_432","midi_source":""},{"t":63.86,"note":59,"dur":0.147,"vel":0.787,"inst":"koto_v0_additive_32","midi_source":""},{"t":64.007,"note":61,"dur":0.147,"vel":0.787,"inst":"koto_v0_additive_32","midi_source":""},{"t":64.081,"note":39,"dur":0.222,"vel":0.63,"inst":"koto_v0_additive_32","midi_source":""},{"t":64.154,"note":59,"dur":0.149,"vel":0.787,"inst":"koto_v0_additive_32","midi_source":""},{"t":64.303,"note":47,"dur":0.222,"vel":0.677,"inst":"koto_v0_additive_32","midi_source":""},{"t":64.303,"note":56,"dur":0.443,"vel":0.528,"inst":"bass_v0_bell_432","midi_source":""},{"t":64.525,"note":39,"dur":0.222,"vel":0.559,"inst":"koto_v0_additive_32","midi_source":""},{"t":64.746,"note":34,"dur":0.222,"vel":0.551,"inst":"bass_v0_bell_432","midi_source":""},{"t":64.746,"note":56,"dur":0.443,"vel":0.638,"inst":"bass_v0_bell_432","midi_source":""},{"t":64.746,"note":58,"dur":0.443,"vel":0.638,"inst":"bass_v0_bell_432","midi_source":""},{"t":64.968,"note":40,"dur":0.222,"vel":0.638,"inst":"bass_v0_bell_432","midi_source":""},{"t":65.19,"note":50,"dur":0.222,"vel":0.748,"inst":"bass_v0_bell_432","midi_source":""},{"t":65.19,"note":56,"dur":0.332,"vel":0.606,"inst":"bass_v0_bell_432","midi_source":""},{"t":65.19,"note":58,"dur":0.332,"vel":0.606,"inst":"bass_v0_bell_432","midi_source":""},{"t":65.411,"note":46,"dur":0.222,"vel":0.591,"inst":"bass_v0_bell_432","midi_source":""},{"t":65.522,"note":56,"dur":0.111,"vel":0.551,"inst":"bass_v0_bell_432","midi_source":""},{"t":65.522,"note":58,"dur":0.111,"vel":0.551,"inst":"bass_v0_bell_432","midi_source":""},{"t":65.633,"note":39,"dur":0.222,"vel":0.535,"inst":"koto_v0_additive_32","midi_source":""},{"t":65.633,"note":54,"dur":0.443,"vel":0.614,"inst":"bass_v0_bell_432","midi_source":""},{"t":65.633,"note":58,"dur":0.443,"vel":0.614,"inst":"bass_v0_bell_432","midi_source":""},{"t":65.855,"note":46,"dur":0.222,"vel":0.63,"inst":"bass_v0_bell_432","midi_source":""},{"t":66.076,"note":54,"dur":0.222,"vel":0.709,"inst":"bass_v0_bell_432","midi_source":""},{"t":66.076,"note":58,"dur":0.332,"vel":0.709,"inst":"bass_v0_bell_432","midi_source":""},{"t":66.076,"note":66,"dur":0.332,"vel":0.709,"inst":"bass_v0_bell_432","midi_source":""},{"t":66.298,"note":46,"dur":0.222,"vel":0.543,"inst":"bass_v0_bell_432","midi_source":""},{"t":66.409,"note":58,"dur":0.111,"vel":0.614,"inst":"bass_v0_bell_432","midi_source":""},{"t":66.409,"note":66,"dur":0.111,"vel":0.614,"inst":"bass_v0_bell_432","midi_source":""},{"t":66.52,"note":34,"dur":0.222,"vel":0.488,"inst":"bass_v0_bell_432","midi_source":""},{"t":66.52,"note":56,"dur":0.332,"vel":0.591,"inst":"bass_v0_bell_432","midi_source":""},{"t":66.52,"note":64,"dur":0.332,"vel":0.591,"inst":"bass_v0_bell_432","midi_source":""},{"t":66.741,"note":40,"dur":0.222,"vel":0.622,"inst":"bass_v0_bell_432","midi_source":""},{"t":66.852,"note":54,"dur":0.111,"vel":0.622,"inst":"bass_v0_bell_432","midi_source":""},{"t":66.852,"note":63,"dur":0.111,"vel":0.622,"inst":"koto_v0_additive_32","midi_source":""},{"t":66.963,"note":50,"dur":0.222,"vel":0.724,"inst":"bass_v0_bell_432","midi_source":""},{"t":66.963,"note":56,"dur":0.332,"vel":0.606,"inst":"bass_v0_bell_432","midi_source":""},{"t":66.963,"note":64,"dur":0.332,"vel":0.606,"inst":"bass_v0_bell_432","midi_source":""},{"t":67.185,"note":46,"dur":0.222,"vel":0.606,"inst":"bass_v0_bell_432","midi_source":""},{"t":67.295,"note":58,"dur":0.111,"vel":0.654,"inst":"bass_v0_bell_432","midi_source":""},{"t":67.295,"note":66,"dur":0.111,"vel":0.654,"inst":"bass_v0_bell_432","midi_source":""},{"t":67.406,"note":39,"dur":0.222,"vel":0.543,"inst":"koto_v0_additive_32","midi_source":""},{"t":67.406,"note":52,"dur":0.887,"vel":0.528,"inst":"bass_v0_bell_432","midi_source":""},{"t":67.406,"note":63,"dur":0.887,"vel":0.528,"inst":"koto_v0_additive_32","midi_source":""},{"t":67.628,"note":46,"dur":0.222,"vel":0.646,"inst":"bass_v0_bell_432","midi_source":""},{"t":67.85,"note":54,"dur":0.222,"vel":0.709,"inst":"bass_v0_bell_432","midi_source":""},{"t":68.071,"note":46,"dur":0.222,"vel":0.559,"inst":"bass_v0_bell_432","midi_source":""},{"t":68.293,"note":35,"dur":0.222,"vel":0.543,"inst":"koto_v0_additive_32","midi_source":""},{"t":68.293,"note":63,"dur":0.443,"vel":0.591,"inst":"koto_v0_additive_32","midi_source":""},{"t":68.514,"note":39,"dur":0.222,"vel":0.598,"inst":"koto_v0_additive_32","midi_source":""},{"t":68.736,"note":51,"dur":0.222,"vel":0.772,"inst":"koto_v0_additive_32","midi_source":""},{"t":68.736,"note":62,"dur":0.222,"vel":0.559,"inst":"bass_v0_bell_432","midi_source":""},{"t":68.958,"note":47,"dur":0.222,"vel":0.614,"inst":"koto_v0_additive_32","midi_source":""},{"t":68.958,"note":63,"dur":0.222,"vel":0.614,"inst":"koto_v0_additive_32","midi_source":""},{"t":69.179,"note":34,"dur":0.222,"vel":0.535,"inst":"bass_v0_bell_432","midi_source":""},{"t":69.179,"note":66,"dur":0.665,"vel":0.669,"inst":"bass_v0_bell_432","midi_source":""},{"t":69.401,"note":38,"dur":0.222,"vel":0.606,"inst":"bass_v0_bell_432","midi_source":""},{"t":69.623,"note":50,"dur":0.222,"vel":0.748,"inst":"bass_v0_bell_432","midi_source":""},{"t":69.844,"note":46,"dur":0.222,"vel":0.606,"inst":"bass_v0_bell_432","midi_source":""},{"t":69.844,"note":64,"dur":0.222,"vel":0.591,"inst":"bass_v0_bell_432","midi_source":""},{"t":70.066,"note":35,"dur":0.222,"vel":0.535,"inst":"koto_v0_additive_32","midi_source":""},{"t":70.066,"note":53,"dur":0.332,"vel":0.425,"inst":"koto_v0_additive_32","midi_source":""},{"t":70.288,"note":39,"dur":0.222,"vel":0.661,"inst":"koto_v0_additive_32","midi_source":""},{"t":70.399,"note":63,"dur":0.111,"vel":0.709,"inst":"koto_v0_additive_32","midi_source":""},{"t":70.509,"note":51,"dur":0.222,"vel":0.78,"inst":"koto_v0_additive_32","midi_source":""},{"t":70.509,"note":63,"dur":0.222,"vel":0.598,"inst":"koto_v0_additive_32","midi_source":""},{"t":70.731,"note":47,"dur":0.222,"vel":0.654,"inst":"koto_v0_additive_32","midi_source":""},{"t":70.731,"note":63,"dur":0.222,"vel":0.598,"inst":"koto_v0_additive_32","midi_source":""},{"t":70.953,"note":34,"dur":0.222,"vel":0.528,"inst":"bass_v0_bell_432","midi_source":""},{"t":70.953,"note":62,"dur":0.222,"vel":0.559,"inst":"bass_v0_bell_432","midi_source":""},{"t":71.174,"note":38,"dur":0.222,"vel":0.591,"inst":"bass_v0_bell_432","midi_source":""},{"t":71.174,"note":65,"dur":0.665,"vel":0.638,"inst":"koto_v0_additive_32","midi_source":""},{"t":71.396,"note":50,"dur":0.222,"vel":0.764,"inst":"bass_v0_bell_432","midi_source":""},{"t":71.618,"note":46,"dur":0.222,"vel":0.614,"inst":"bass_v0_bell_432","midi_source":""},{"t":71.839,"note":40,"dur":0.222,"vel":0.559,"inst":"bass_v0_bell_432","midi_source":""},{"t":71.839,"note":58,"dur":0.222,"vel":0.504,"inst":"bass_v0_bell_432","midi_source":""},{"t":72.061,"note":43,"dur":0.222,"vel":0.614,"inst":"koto_v0_additive_32","midi_source":""},{"t":72.061,"note":60,"dur":0.111,"vel":0.598,"inst":"bass_v0_bell_432","midi_source":""},{"t":72.172,"note":58,"dur":0.111,"vel":0.543,"inst":"bass_v0_bell_432","midi_source":""},{"t":72.283,"note":48,"dur":0.222,"vel":0.63,"inst":"bass_v0_bell_432","midi_source":""},{"t":72.283,"note":57,"dur":0.222,"vel":0.567,"inst":"koto_v0_additive_32","midi_source":""},{"t":72.504,"note":46,"dur":0.222,"vel":0.551,"inst":"bass_v0_bell_432","midi_source":""},{"t":72.504,"note":55,"dur":0.222,"vel":0.535,"inst":"koto_v0_additive_32","midi_source":""},{"t":72.726,"note":41,"dur":0.222,"vel":0.575,"inst":"koto_v0_additive_32","midi_source":""},{"t":72.726,"note":55,"dur":0.665,"vel":0.606,"inst":"koto_v0_additive_32","midi_source":""},{"t":72.948,"note":46,"dur":0.222,"vel":0.614,"inst":"bass_v0_bell_432","midi_source":""},{"t":73.169,"note":50,"dur":0.222,"vel":0.677,"inst":"bass_v0_bell_432","midi_source":""},{"t":73.391,"note":46,"dur":0.222,"vel":0.551,"inst":"bass_v0_bell_432","midi_source":""},{"t":73.391,"note":53,"dur":0.222,"vel":0.567,"inst":"koto_v0_additive_32","midi_source":""},{"t":73.612,"note":41,"dur":0.222,"vel":0.591,"inst":"koto_v0_additive_32","midi_source":""},{"t":73.612,"note":53,"dur":0.332,"vel":0.591,"inst":"koto_v0_additive_32","midi_source":""},{"t":73.834,"note":45,"dur":0.222,"vel":0.63,"inst":"koto_v0_additive_32","midi_source":""},{"t":73.945,"note":63,"dur":0.111,"vel":0.717,"inst":"koto_v0_additive_32","midi_source":""},{"t":74.056,"note":51,"dur":0.222,"vel":0.677,"inst":"koto_v0_additive_32","midi_source":""},{"t":74.056,"note":55,"dur":0.332,"vel":0.496,"inst":"koto_v0_additive_32","midi_source":""},{"t":74.277,"note":53,"dur":0.222,"vel":0.661,"inst":"koto_v0_additive_32","midi_source":""},{"t":74.388,"note":57,"dur":0.111,"vel":0.591,"inst":"koto_v0_additive_32","midi_source":""},{"t":74.499,"note":34,"dur":0.111,"vel":0.52,"inst":"bass_v0_bell_432","midi_source":""},{"t":74.499,"note":58,"dur":0.332,"vel":0.63,"inst":"bass_v0_bell_432","midi_source":""},{"t":74.61,"note":38,"dur":0.111,"vel":0.63,"inst":"bass_v0_bell_432","midi_source":""},{"t":74.721,"note":41,"dur":0.111,"vel":0.638,"inst":"koto_v0_additive_32","midi_source":""},{"t":74.832,"note":46,"dur":0.111,"vel":0.661,"inst":"bass_v0_bell_432","midi_source":""},{"t":74.832,"note":70,"dur":0.111,"vel":0.732,"inst":"bass_v0_bell_432","midi_source":""},{"t":74.942,"note":50,"dur":0.443,"vel":0.669,"inst":"bass_v0_bell_432","midi_source":""},{"t":74.942,"note":62,"dur":0.332,"vel":0.504,"inst":"bass_v0_bell_432","midi_source":""},{"t":75.275,"note":63,"dur":0.111,"vel":0.606,"inst":"koto_v0_additive_32","midi_source":""},{"t":75.386,"note":35,"dur":0.222,"vel":0.52,"inst":"koto_v0_additive_32","midi_source":""},{"t":75.386,"note":59,"dur":0.665,"vel":0.654,"inst":"koto_v0_additive_32","midi_source":""},{"t":75.386,"note":63,"dur":0.665,"vel":0.654,"inst":"koto_v0_additive_32","midi_source":""},{"t":75.386,"note":65,"dur":0.665,"vel":0.654,"inst":"koto_v0_additive_32","midi_source":""},{"t":75.607,"note":45,"dur":0.111,"vel":0.638,"inst":"koto_v0_additive_32","midi_source":""},{"t":75.718,"note":51,"dur":0.111,"vel":0.717,"inst":"koto_v0_additive_32","midi_source":""},{"t":75.829,"note":53,"dur":0.222,"vel":0.63,"inst":"koto_v0_additive_32","midi_source":""},{"t":76.051,"note":41,"dur":0.111,"vel":0.559,"inst":"koto_v0_additive_32","midi_source":""},{"t":76.051,"note":58,"dur":0.665,"vel":0.614,"inst":"bass_v0_bell_432","midi_source":""},{"t":76.051,"note":62,"dur":0.665,"vel":0.614,"inst":"bass_v0_bell_432","midi_source":""},{"t":76.051,"note":65,"dur":0.665,"vel":0.614,"inst":"koto_v0_additive_32","midi_source":""},{"t":76.161,"note":46,"dur":0.111,"vel":0.614,"inst":"bass_v0_bell_432","midi_source":""},{"t":76.272,"note":50,"dur":0.332,"vel":0.693,"inst":"bass_v0_bell_432","midi_source":""},{"t":76.605,"note":46,"dur":0.111,"vel":0.606,"inst":"bass_v0_bell_432","midi_source":""},{"t":76.716,"note":29,"dur":0.222,"vel":0.535,"inst":"koto_v0_additive_32","midi_source":""},{"t":76.716,"note":57,"dur":0.665,"vel":0.598,"inst":"koto_v0_additive_32","midi_source":""},{"t":76.716,"note":63,"dur":0.665,"vel":0.598,"inst":"koto_v0_additive_32","midi_source":""},{"t":76.716,"note":65,"dur":0.665,"vel":0.598,"inst":"koto_v0_additive_32","midi_source":""},{"t":76.937,"note":41,"dur":0.111,"vel":0.701,"inst":"koto_v0_additive_32","midi_source":""},{"t":77.048,"note":45,"dur":0.111,"vel":0.638,"inst":"koto_v0_additive_32","midi_source":""},{"t":77.159,"note":48,"dur":0.222,"vel":0.614,"inst":"bass_v0_bell_432","midi_source":""},{"t":77.381,"note":41,"dur":0.111,"vel":0.551,"inst":"koto_v0_additive_32","midi_source":""},{"t":77.381,"note":58,"dur":0.665,"vel":0.614,"inst":"bass_v0_bell_432","midi_source":""},{"t":77.381,"note":62,"dur":0.665,"vel":0.614,"inst":"bass_v0_bell_432","midi_source":""},{"t":77.381,"note":65,"dur":0.665,"vel":0.614,"inst":"koto_v0_additive_32","midi_source":""},{"t":77.491,"note":46,"dur":0.111,"vel":0.63,"inst":"bass_v0_bell_432","midi_source":""},{"t":77.602,"note":50,"dur":0.332,"vel":0.685,"inst":"bass_v0_bell_432","midi_source":""},{"t":77.935,"note":46,"dur":0.111,"vel":0.583,"inst":"bass_v0_bell_432","midi_source":""},{"t":78.045,"note":35,"dur":0.222,"vel":0.512,"inst":"koto_v0_additive_32","midi_source":""},{"t":78.045,"note":57,"dur":0.665,"vel":0.606,"inst":"koto_v0_additive_32","midi_source":""},{"t":78.045,"note":63,"dur":0.665,"vel":0.606,"inst":"koto_v0_additive_32","midi_source":""},{"t":78.045,"note":65,"dur":0.665,"vel":0.606,"inst":"koto_v0_additive_32","midi_source":""},{"t":78.267,"note":45,"dur":0.111,"vel":0.638,"inst":"koto_v0_additive_32","midi_source":""},{"t":78.378,"note":51,"dur":0.111,"vel":0.669,"inst":"koto_v0_additive_32","midi_source":""},{"t":78.489,"note":53,"dur":0.222,"vel":0.685,"inst":"koto_v0_additive_32","midi_source":""},{"t":78.71,"note":41,"dur":0.111,"vel":0.535,"inst":"koto_v0_additive_32","midi_source":""},{"t":78.71,"note":58,"dur":0.665,"vel":0.614,"inst":"bass_v0_bell_432","midi_source":""},{"t":78.71,"note":62,"dur":0.665,"vel":0.614,"inst":"bass_v0_bell_432","midi_source":""},{"t":78.71,"note":65,"dur":0.665,"vel":0.614,"inst":"koto_v0_additive_32","midi_source":""},{"t":78.821,"note":46,"dur":0.111,"vel":0.614,"inst":"bass_v0_bell_432","midi_source":""},{"t":78.932,"note":50,"dur":0.332,"vel":0.677,"inst":"bass_v0_bell_432","midi_source":""},{"t":79.265,"note":46,"dur":0.111,"vel":0.575,"inst":"bass_v0_bell_432","midi_source":""},{"t":79.375,"note":29,"dur":0.222,"vel":0.528,"inst":"koto_v0_additive_32","midi_source":""},{"t":79.375,"note":57,"dur":0.665,"vel":0.591,"inst":"koto_v0_additive_32","midi_source":""},{"t":79.375,"note":65,"dur":0.665,"vel":0.591,"inst":"koto_v0_additive_32","midi_source":""},{"t":79.597,"note":41,"dur":0.111,"vel":0.669,"inst":"koto_v0_additive_32","midi_source":""},{"t":79.708,"note":45,"dur":0.111,"vel":0.63,"inst":"koto_v0_additive_32","midi_source":""},{"t":79.819,"note":32,"dur":0.222,"vel":0.559,"inst":"bass_v0_bell_432","midi_source":""},{"t":79.819,"note":59,"dur":0.147,"vel":0.787,"inst":"koto_v0_additive_32","midi_source":""},{"t":79.966,"note":61,"dur":0.147,"vel":0.787,"inst":"koto_v0_additive_32","midi_source":""},{"t":80.04,"note":39,"dur":0.222,"vel":0.63,"inst":"koto_v0_additive_32","midi_source":""},{"t":80.113,"note":59,"dur":0.149,"vel":0.787,"inst":"koto_v0_additive_32","midi_source":""},{"t":80.262,"note":47,"dur":0.222,"vel":0.677,"inst":"koto_v0_additive_32","midi_source":""},{"t":80.262,"note":56,"dur":0.443,"vel":0.528,"inst":"bass_v0_bell_432","midi_source":""},{"t":80.484,"note":39,"dur":0.222,"vel":0.559,"inst":"koto_v0_additive_32","midi_source":""},{"t":80.705,"note":34,"dur":0.222,"vel":0.551,"inst":"bass_v0_bell_432","midi_source":""},{"t":80.705,"note":56,"dur":0.443,"vel":0.638,"inst":"bass_v0_bell_432","midi_source":""},{"t":80.705,"note":58,"dur":0.443,"vel":0.638,"inst":"bass_v0_bell_432","midi_source":""},{"t":80.927,"note":40,"dur":0.222,"vel":0.638,"inst":"bass_v0_bell_432","midi_source":""},{"t":81.149,"note":50,"dur":0.222,"vel":0.748,"inst":"bass_v0_bell_432","midi_source":""},{"t":81.149,"note":56,"dur":0.332,"vel":0.606,"inst":"bass_v0_bell_432","midi_source":""},{"t":81.149,"note":58,"dur":0.332,"vel":0.606,"inst":"bass_v0_bell_432","midi_source":""},{"t":81.37,"note":46,"dur":0.222,"vel":0.591,"inst":"bass_v0_bell_432","midi_source":""},{"t":81.481,"note":56,"dur":0.111,"vel":0.551,"inst":"bass_v0_bell_432","midi_source":""},{"t":81.481,"note":58,"dur":0.111,"vel":0.551,"inst":"bass_v0_bell_432","midi_source":""},{"t":81.592,"note":39,"dur":0.222,"vel":0.535,"inst":"koto_v0_additive_32","midi_source":""},{"t":81.592,"note":54,"dur":0.443,"vel":0.614,"inst":"bass_v0_bell_432","midi_source":""},{"t":81.592,"note":58,"dur":0.443,"vel":0.614,"inst":"bass_v0_bell_432","midi_source":""},{"t":81.814,"note":46,"dur":0.222,"vel":0.63,"inst":"bass_v0_bell_432","midi_source":""},{"t":82.035,"note":54,"dur":0.222,"vel":0.709,"inst":"bass_v0_bell_432","midi_source":""},{"t":82.035,"note":58,"dur":0.332,"vel":0.709,"inst":"bass_v0_bell_432","midi_source":""},{"t":82.035,"note":66,"dur":0.332,"vel":0.709,"inst":"bass_v0_bell_432","midi_source":""},{"t":82.257,"note":46,"dur":0.222,"vel":0.543,"inst":"bass_v0_bell_432","midi_source":""},{"t":82.368,"note":58,"dur":0.111,"vel":0.614,"inst":"bass_v0_bell_432","midi_source":""},{"t":82.368,"note":66,"dur":0.111,"vel":0.614,"inst":"bass_v0_bell_432","midi_source":""},{"t":82.479,"note":34,"dur":0.222,"vel":0.488,"inst":"bass_v0_bell_432","midi_source":""},{"t":82.479,"note":56,"dur":0.332,"vel":0.591,"inst":"bass_v0_bell_432","midi_source":""},{"t":82.479,"note":64,"dur":0.332,"vel":0.591,"inst":"bass_v0_bell_432","midi_source":""},{"t":82.7,"note":40,"dur":0.222,"vel":0.622,"inst":"bass_v0_bell_432","midi_source":""},{"t":82.811,"note":54,"dur":0.111,"vel":0.622,"inst":"bass_v0_bell_432","midi_source":""},{"t":82.811,"note":63,"dur":0.111,"vel":0.622,"inst":"koto_v0_additive_32","midi_source":""},{"t":82.922,"note":50,"dur":0.222,"vel":0.724,"inst":"bass_v0_bell_432","midi_source":""},{"t":82.922,"note":56,"dur":0.332,"vel":0.606,"inst":"bass_v0_bell_432","midi_source":""},{"t":82.922,"note":64,"dur":0.332,"vel":0.606,"inst":"bass_v0_bell_432","midi_source":""},{"t":83.143,"note":46,"dur":0.222,"vel":0.606,"inst":"bass_v0_bell_432","midi_source":""},{"t":83.254,"note":58,"dur":0.111,"vel":0.654,"inst":"bass_v0_bell_432","midi_source":""},{"t":83.254,"note":66,"dur":0.111,"vel":0.654,"inst":"bass_v0_bell_432","midi_source":""},{"t":83.365,"note":39,"dur":0.222,"vel":0.543,"inst":"koto_v0_additive_32","midi_source":""},{"t":83.365,"note":52,"dur":0.887,"vel":0.528,"inst":"bass_v0_bell_432","midi_source":""},{"t":83.365,"note":63,"dur":0.887,"vel":0.528,"inst":"koto_v0_additive_32","midi_source":""},{"t":83.587,"note":46,"dur":0.222,"vel":0.646,"inst":"bass_v0_bell_432","midi_source":""},{"t":83.808,"note":54,"dur":0.222,"vel":0.709,"inst":"bass_v0_bell_432","midi_source":""},{"t":84.03,"note":46,"dur":0.222,"vel":0.559,"inst":"bass_v0_bell_432","midi_source":""},{"t":84.252,"note":35,"dur":0.222,"vel":0.543,"inst":"koto_v0_additive_32","midi_source":""},{"t":84.252,"note":63,"dur":0.443,"vel":0.591,"inst":"koto_v0_additive_32","midi_source":""},{"t":84.473,"note":39,"dur":0.222,"vel":0.598,"inst":"koto_v0_additive_32","midi_source":""},{"t":84.695,"note":51,"dur":0.222,"vel":0.772,"inst":"koto_v0_additive_32","midi_source":""},{"t":84.695,"note":62,"dur":0.222,"vel":0.559,"inst":"bass_v0_bell_432","midi_source":""},{"t":84.917,"note":47,"dur":0.222,"vel":0.614,"inst":"koto_v0_additive_32","midi_source":""},{"t":84.917,"note":63,"dur":0.222,"vel":0.614,"inst":"koto_v0_additive_32","midi_source":""},{"t":85.138,"note":34,"dur":0.222,"vel":0.535,"inst":"bass_v0_bell_432","midi_source":""},{"t":85.138,"note":66,"dur":0.665,"vel":0.669,"inst":"bass_v0_bell_432","midi_source":""},{"t":85.36,"note":38,"dur":0.222,"vel":0.606,"inst":"bass_v0_bell_432","midi_source":""},{"t":85.582,"note":50,"dur":0.222,"vel":0.748,"inst":"bass_v0_bell_432","midi_source":""},{"t":85.803,"note":46,"dur":0.222,"vel":0.606,"inst":"bass_v0_bell_432","midi_source":""},{"t":85.803,"note":64,"dur":0.222,"vel":0.591,"inst":"bass_v0_bell_432","midi_source":""},{"t":86.025,"note":35,"dur":0.222,"vel":0.535,"inst":"koto_v0_additive_32","midi_source":""},{"t":86.025,"note":53,"dur":0.332,"vel":0.425,"inst":"koto_v0_additive_32","midi_source":""},{"t":86.247,"note":39,"dur":0.222,"vel":0.661,"inst":"koto_v0_additive_32","midi_source":""},{"t":86.357,"note":63,"dur":0.111,"vel":0.709,"inst":"koto_v0_additive_32","midi_source":""},{"t":86.468,"note":51,"dur":0.222,"vel":0.78,"inst":"koto_v0_additive_32","midi_source":""},{"t":86.468,"note":63,"dur":0.222,"vel":0.598,"inst":"koto_v0_additive_32","midi_source":""},{"t":86.69,"note":47,"dur":0.222,"vel":0.654,"inst":"koto_v0_additive_32","midi_source":""},{"t":86.69,"note":63,"dur":0.222,"vel":0.598,"inst":"koto_v0_additive_32","midi_source":""},{"t":86.912,"note":34,"dur":0.222,"vel":0.528,"inst":"bass_v0_bell_432","midi_source":""},{"t":86.912,"note":62,"dur":0.222,"vel":0.559,"inst":"bass_v0_bell_432","midi_source":""},{"t":87.133,"note":38,"dur":0.222,"vel":0.591,"inst":"bass_v0_bell_432","midi_source":""},{"t":87.133,"note":65,"dur":0.665,"vel":0.638,"inst":"koto_v0_additive_32","midi_source":""},{"t":87.355,"note":50,"dur":0.222,"vel":0.764,"inst":"bass_v0_bell_432","midi_source":""},{"t":87.576,"note":46,"dur":0.222,"vel":0.614,"inst":"bass_v0_bell_432","midi_source":""},{"t":87.798,"note":40,"dur":0.222,"vel":0.559,"inst":"bass_v0_bell_432","midi_source":""},{"t":87.798,"note":58,"dur":0.222,"vel":0.504,"inst":"bass_v0_bell_432","midi_source":""},{"t":88.02,"note":43,"dur":0.222,"vel":0.614,"inst":"koto_v0_additive_32","midi_source":""},{"t":88.02,"note":60,"dur":0.111,"vel":0.598,"inst":"bass_v0_bell_432","midi_source":""},{"t":88.131,"note":58,"dur":0.111,"vel":0.543,"inst":"bass_v0_bell_432","midi_source":""},{"t":88.241,"note":48,"dur":0.222,"vel":0.63,"inst":"bass_v0_bell_432","midi_source":""},{"t":88.241,"note":57,"dur":0.222,"vel":0.567,"inst":"koto_v0_additive_32","midi_source":""},{"t":88.463,"note":46,"dur":0.222,"vel":0.551,"inst":"bass_v0_bell_432","midi_source":""},{"t":88.463,"note":55,"dur":0.222,"vel":0.535,"inst":"koto_v0_additive_32","midi_source":""},{"t":88.685,"note":41,"dur":0.222,"vel":0.575,"inst":"koto_v0_additive_32","midi_source":""},{"t":88.685,"note":55,"dur":0.665,"vel":0.606,"inst":"koto_v0_additive_32","midi_source":""},{"t":88.906,"note":46,"dur":0.222,"vel":0.614,"inst":"bass_v0_bell_432","midi_source":""},{"t":89.128,"note":50,"dur":0.222,"vel":0.677,"inst":"bass_v0_bell_432","midi_source":""},{"t":89.35,"note":46,"dur":0.222,"vel":0.551,"inst":"bass_v0_bell_432","midi_source":""},{"t":89.35,"note":53,"dur":0.222,"vel":0.567,"inst":"koto_v0_additive_32","midi_source":""},{"t":89.571,"note":41,"dur":0.222,"vel":0.591,"inst":"koto_v0_additive_32","midi_source":""},{"t":89.571,"note":53,"dur":0.332,"vel":0.591,"inst":"koto_v0_additive_32","midi_source":""},{"t":89.793,"note":45,"dur":0.222,"vel":0.63,"inst":"koto_v0_additive_32","midi_source":""},{"t":89.904,"note":63,"dur":0.111,"vel":0.717,"inst":"koto_v0_additive_32","midi_source":""},{"t":90.015,"note":51,"dur":0.222,"vel":0.677,"inst":"koto_v0_additive_32","midi_source":""},{"t":90.015,"note":55,"dur":0.332,"vel":0.496,"inst":"koto_v0_additive_32","midi_source":""},{"t":90.236,"note":53,"dur":0.222,"vel":0.661,"inst":"koto_v0_additive_32","midi_source":""},{"t":90.347,"note":57,"dur":0.111,"vel":0.591,"inst":"koto_v0_additive_32","midi_source":""},{"t":90.458,"note":34,"dur":0.111,"vel":0.52,"inst":"bass_v0_bell_432","midi_source":""},{"t":90.458,"note":58,"dur":0.332,"vel":0.63,"inst":"bass_v0_bell_432","midi_source":""},{"t":90.569,"note":38,"dur":0.111,"vel":0.63,"inst":"bass_v0_bell_432","midi_source":""},{"t":90.68,"note":41,"dur":0.111,"vel":0.638,"inst":"koto_v0_additive_32","midi_source":""},{"t":90.79,"note":46,"dur":0.111,"vel":0.661,"inst":"bass_v0_bell_432","midi_source":""},{"t":90.79,"note":70,"dur":0.111,"vel":0.732,"inst":"bass_v0_bell_432","midi_source":""},{"t":90.901,"note":50,"dur":0.443,"vel":0.669,"inst":"bass_v0_bell_432","midi_source":""},{"t":90.901,"note":62,"dur":0.332,"vel":0.504,"inst":"bass_v0_bell_432","midi_source":""},{"t":91.234,"note":63,"dur":0.111,"vel":0.606,"inst":"koto_v0_additive_32","midi_source":""},{"t":91.345,"note":35,"dur":0.222,"vel":0.52,"inst":"koto_v0_additive_32","midi_source":""},{"t":91.345,"note":59,"dur":0.665,"vel":0.654,"inst":"koto_v0_additive_32","midi_source":""},{"t":91.345,"note":63,"dur":0.665,"vel":0.654,"inst":"koto_v0_additive_32","midi_source":""},{"t":91.345,"note":65,"dur":0.665,"vel":0.654,"inst":"koto_v0_additive_32","midi_source":""},{"t":91.566,"note":45,"dur":0.111,"vel":0.638,"inst":"koto_v0_additive_32","midi_source":""},{"t":91.677,"note":51,"dur":0.111,"vel":0.717,"inst":"koto_v0_additive_32","midi_source":""},{"t":91.788,"note":53,"dur":0.222,"vel":0.63,"inst":"koto_v0_additive_32","midi_source":""},{"t":92.01,"note":41,"dur":0.111,"vel":0.559,"inst":"koto_v0_additive_32","midi_source":""},{"t":92.01,"note":58,"dur":0.665,"vel":0.614,"inst":"bass_v0_bell_432","midi_source":""},{"t":92.01,"note":62,"dur":0.665,"vel":0.614,"inst":"bass_v0_bell_432","midi_source":""},{"t":92.01,"note":65,"dur":0.665,"vel":0.614,"inst":"koto_v0_additive_32","midi_source":""},{"t":92.12,"note":46,"dur":0.111,"vel":0.614,"inst":"bass_v0_bell_432","midi_source":""},{"t":92.231,"note":50,"dur":0.332,"vel":0.693,"inst":"bass_v0_bell_432","midi_source":""},{"t":92.564,"note":46,"dur":0.111,"vel":0.606,"inst":"bass_v0_bell_432","midi_source":""},{"t":92.674,"note":29,"dur":0.222,"vel":0.535,"inst":"koto_v0_additive_32","midi_source":""},{"t":92.674,"note":57,"dur":0.665,"vel":0.598,"inst":"koto_v0_additive_32","midi_source":""},{"t":92.674,"note":63,"dur":0.665,"vel":0.598,"inst":"koto_v0_additive_32","midi_source":""},{"t":92.674,"note":65,"dur":0.665,"vel":0.598,"inst":"koto_v0_additive_32","midi_source":""},{"t":92.896,"note":41,"dur":0.111,"vel":0.701,"inst":"koto_v0_additive_32","midi_source":""},{"t":93.007,"note":45,"dur":0.111,"vel":0.638,"inst":"koto_v0_additive_32","midi_source":""},{"t":93.118,"note":48,"dur":0.222,"vel":0.614,"inst":"bass_v0_bell_432","midi_source":""},{"t":93.339,"note":41,"dur":0.111,"vel":0.551,"inst":"koto_v0_additive_32","midi_source":""},{"t":93.339,"note":58,"dur":0.665,"vel":0.614,"inst":"bass_v0_bell_432","midi_source":""},{"t":93.339,"note":62,"dur":0.665,"vel":0.614,"inst":"bass_v0_bell_432","midi_source":""},{"t":93.339,"note":65,"dur":0.665,"vel":0.614,"inst":"koto_v0_additive_32","midi_source":""},{"t":93.45,"note":46,"dur":0.111,"vel":0.63,"inst":"bass_v0_bell_432","midi_source":""},{"t":93.561,"note":50,"dur":0.332,"vel":0.685,"inst":"bass_v0_bell_432","midi_source":""},{"t":93.894,"note":46,"dur":0.111,"vel":0.583,"inst":"bass_v0_bell_432","midi_source":""},{"t":94.004,"note":35,"dur":0.222,"vel":0.512,"inst":"koto_v0_additive_32","midi_source":""},{"t":94.004,"note":57,"dur":0.665,"vel":0.606,"inst":"koto_v0_additive_32","midi_source":""},{"t":94.004,"note":63,"dur":0.665,"vel":0.606,"inst":"koto_v0_additive_32","midi_source":""},{"t":94.004,"note":65,"dur":0.665,"vel":0.606,"inst":"koto_v0_additive_32","midi_source":""},{"t":94.226,"note":45,"dur":0.111,"vel":0.638,"inst":"koto_v0_additive_32","midi_source":""},{"t":94.337,"note":51,"dur":0.111,"vel":0.669,"inst":"koto_v0_additive_32","midi_source":""},{"t":94.448,"note":53,"dur":0.222,"vel":0.685,"inst":"koto_v0_additive_32","midi_source":""},{"t":94.669,"note":41,"dur":0.111,"vel":0.535,"inst":"koto_v0_additive_32","midi_source":""},{"t":94.669,"note":58,"dur":0.665,"vel":0.614,"inst":"bass_v0_bell_432","midi_source":""},{"t":94.669,"note":62,"dur":0.665,"vel":0.614,"inst":"bass_v0_bell_432","midi_source":""},{"t":94.669,"note":65,"dur":0.665,"vel":0.614,"inst":"koto_v0_additive_32","midi_source":""},{"t":94.78,"note":46,"dur":0.111,"vel":0.614,"inst":"bass_v0_bell_432","midi_source":""},{"t":94.891,"note":50,"dur":0.332,"vel":0.677,"inst":"bass_v0_bell_432","midi_source":""},{"t":95.223,"note":46,"dur":0.111,"vel":0.575,"inst":"bass_v0_bell_432","midi_source":""},{"t":95.334,"note":29,"dur":0.222,"vel":0.528,"inst":"koto_v0_additive_32","midi_source":""},{"t":95.334,"note":57,"dur":0.665,"vel":0.591,"inst":"koto_v0_additive_32","midi_source":""},{"t":95.334,"note":65,"dur":0.665,"vel":0.591,"inst":"koto_v0_additive_32","midi_source":""},{"t":95.556,"note":41,"dur":0.111,"vel":0.669,"inst":"koto_v0_additive_32","midi_source":""},{"t":95.667,"note":45,"dur":0.111,"vel":0.63,"inst":"koto_v0_additive_32","midi_source":""},{"t":95.778,"note":32,"dur":0.222,"vel":0.559,"inst":"bass_v0_bell_432","midi_source":""},{"t":95.778,"note":59,"dur":0.147,"vel":0.787,"inst":"koto_v0_additive_32","midi_source":""},{"t":95.925,"note":61,"dur":0.147,"vel":0.787,"inst":"koto_v0_additive_32","midi_source":""},{"t":95.999,"note":39,"dur":0.222,"vel":0.63,"inst":"koto_v0_additive_32","midi_source":""},{"t":96.072,"note":59,"dur":0.149,"vel":0.787,"inst":"koto_v0_additive_32","midi_source":""},{"t":96.221,"note":47,"dur":0.222,"vel":0.677,"inst":"koto_v0_additive_32","midi_source":""},{"t":96.221,"note":56,"dur":0.443,"vel":0.528,"inst":"bass_v0_bell_432","midi_source":""},{"t":96.443,"note":39,"dur":0.222,"vel":0.559,"inst":"koto_v0_additive_32","midi_source":""},{"t":96.664,"note":34,"dur":0.222,"vel":0.551,"inst":"bass_v0_bell_432","midi_source":""},{"t":96.664,"note":56,"dur":0.443,"vel":0.638,"inst":"bass_v0_bell_432","midi_source":""},{"t":96.664,"note":58,"dur":0.443,"vel":0.638,"inst":"bass_v0_bell_432","midi_source":""},{"t":96.886,"note":40,"dur":0.222,"vel":0.638,"inst":"bass_v0_bell_432","midi_source":""},{"t":97.107,"note":50,"dur":0.222,"vel":0.748,"inst":"bass_v0_bell_432","midi_source":""},{"t":97.107,"note":56,"dur":0.332,"vel":0.606,"inst":"bass_v0_bell_432","midi_source":""},{"t":97.107,"note":58,"dur":0.332,"vel":0.606,"inst":"bass_v0_bell_432","midi_source":""},{"t":97.329,"note":46,"dur":0.222,"vel":0.591,"inst":"bass_v0_bell_432","midi_source":""},{"t":97.44,"note":56,"dur":0.111,"vel":0.551,"inst":"bass_v0_bell_432","midi_source":""},{"t":97.44,"note":58,"dur":0.111,"vel":0.551,"inst":"bass_v0_bell_432","midi_source":""},{"t":97.551,"note":39,"dur":0.222,"vel":0.535,"inst":"koto_v0_additive_32","midi_source":""},{"t":97.551,"note":54,"dur":0.443,"vel":0.614,"inst":"bass_v0_bell_432","midi_source":""},{"t":97.551,"note":58,"dur":0.443,"vel":0.614,"inst":"bass_v0_bell_432","midi_source":""},{"t":97.772,"note":46,"dur":0.222,"vel":0.63,"inst":"bass_v0_bell_432","midi_source":""},{"t":97.994,"note":54,"dur":0.222,"vel":0.709,"inst":"bass_v0_bell_432","midi_source":""},{"t":97.994,"note":58,"dur":0.332,"vel":0.709,"inst":"bass_v0_bell_432","midi_source":""},{"t":97.994,"note":66,"dur":0.332,"vel":0.709,"inst":"bass_v0_bell_432","midi_source":""},{"t":98.216,"note":46,"dur":0.222,"vel":0.543,"inst":"bass_v0_bell_432","midi_source":""},{"t":98.327,"note":58,"dur":0.111,"vel":0.614,"inst":"bass_v0_bell_432","midi_source":""},{"t":98.327,"note":66,"dur":0.111,"vel":0.614,"inst":"bass_v0_bell_432","midi_source":""},{"t":98.437,"note":34,"dur":0.222,"vel":0.488,"inst":"bass_v0_bell_432","midi_source":""},{"t":98.437,"note":56,"dur":0.332,"vel":0.591,"inst":"bass_v0_bell_432","midi_source":""},{"t":98.437,"note":64,"dur":0.332,"vel":0.591,"inst":"bass_v0_bell_432","midi_source":""},{"t":98.659,"note":40,"dur":0.222,"vel":0.622,"inst":"bass_v0_bell_432","midi_source":""},{"t":98.77,"note":54,"dur":0.111,"vel":0.622,"inst":"bass_v0_bell_432","midi_source":""},{"t":98.77,"note":63,"dur":0.111,"vel":0.622,"inst":"koto_v0_additive_32","midi_source":""},{"t":98.881,"note":50,"dur":0.222,"vel":0.724,"inst":"bass_v0_bell_432","midi_source":""},{"t":98.881,"note":56,"dur":0.332,"vel":0.606,"inst":"bass_v0_bell_432","midi_source":""},{"t":98.881,"note":64,"dur":0.332,"vel":0.606,"inst":"bass_v0_bell_432","midi_source":""},{"t":99.102,"note":46,"dur":0.222,"vel":0.606,"inst":"bass_v0_bell_432","midi_source":""},{"t":99.213,"note":58,"dur":0.111,"vel":0.654,"inst":"bass_v0_bell_432","midi_source":""},{"t":99.213,"note":66,"dur":0.111,"vel":0.654,"inst":"bass_v0_bell_432","midi_source":""},{"t":99.324,"note":39,"dur":0.222,"vel":0.543,"inst":"koto_v0_additive_32","midi_source":""},{"t":99.324,"note":52,"dur":0.887,"vel":0.528,"inst":"bass_v0_bell_432","midi_source":""},{"t":99.324,"note":63,"dur":0.887,"vel":0.528,"inst":"koto_v0_additive_32","midi_source":""},{"t":99.546,"note":46,"dur":0.222,"vel":0.646,"inst":"bass_v0_bell_432","midi_source":""},{"t":99.767,"note":54,"dur":0.222,"vel":0.709,"inst":"bass_v0_bell_432","midi_source":""},{"t":99.989,"note":46,"dur":0.222,"vel":0.559,"inst":"bass_v0_bell_432","midi_source":""},{"t":100.211,"note":35,"dur":0.222,"vel":0.543,"inst":"koto_v0_additive_32","midi_source":""},{"t":100.211,"note":63,"dur":0.443,"vel":0.591,"inst":"koto_v0_additive_32","midi_source":""},{"t":100.432,"note":39,"dur":0.222,"vel":0.598,"inst":"koto_v0_additive_32","midi_source":""},{"t":100.654,"note":51,"dur":0.222,"vel":0.772,"inst":"koto_v0_additive_32","midi_source":""},{"t":100.654,"note":62,"dur":0.222,"vel":0.559,"inst":"bass_v0_bell_432","midi_source":""},{"t":100.876,"note":47,"dur":0.222,"vel":0.614,"inst":"koto_v0_additive_32","midi_source":""},{"t":100.876,"note":63,"dur":0.222,"vel":0.614,"inst":"koto_v0_additive_32","midi_source":""},{"t":101.097,"note":34,"dur":0.222,"vel":0.535,"inst":"bass_v0_bell_432","midi_source":""},{"t":101.097,"note":66,"dur":0.665,"vel":0.669,"inst":"bass_v0_bell_432","midi_source":""},{"t":101.319,"note":38,"dur":0.222,"vel":0.606,"inst":"bass_v0_bell_432","midi_source":""},{"t":101.541,"note":50,"dur":0.222,"vel":0.748,"inst":"bass_v0_bell_432","midi_source":""},{"t":101.762,"note":46,"dur":0.222,"vel":0.606,"inst":"bass_v0_bell_432","midi_source":""},{"t":101.762,"note":64,"dur":0.222,"vel":0.591,"inst":"bass_v0_bell_432","midi_source":""},{"t":101.984,"note":35,"dur":0.222,"vel":0.535,"inst":"koto_v0_additive_32","midi_source":""},{"t":101.984,"note":53,"dur":0.332,"vel":0.425,"inst":"koto_v0_additive_32","midi_source":""},{"t":102.205,"note":39,"dur":0.222,"vel":0.661,"inst":"koto_v0_additive_32","midi_source":""},{"t":102.316,"note":63,"dur":0.111,"vel":0.709,"inst":"koto_v0_additive_32","midi_source":""},{"t":102.427,"note":51,"dur":0.222,"vel":0.78,"inst":"koto_v0_additive_32","midi_source":""},{"t":102.427,"note":63,"dur":0.222,"vel":0.598,"inst":"koto_v0_additive_32","midi_source":""},{"t":102.649,"note":47,"dur":0.222,"vel":0.654,"inst":"koto_v0_additive_32","midi_source":""},{"t":102.649,"note":63,"dur":0.222,"vel":0.598,"inst":"koto_v0_additive_32","midi_source":""},{"t":102.87,"note":34,"dur":0.222,"vel":0.528,"inst":"bass_v0_bell_432","midi_source":""},{"t":102.87,"note":62,"dur":0.222,"vel":0.559,"inst":"bass_v0_bell_432","midi_source":""},{"t":103.092,"note":38,"dur":0.222,"vel":0.591,"inst":"bass_v0_bell_432","midi_source":""},{"t":103.092,"note":65,"dur":0.665,"vel":0.638,"inst":"koto_v0_additive_32","midi_source":""},{"t":103.314,"note":50,"dur":0.222,"vel":0.764,"inst":"bass_v0_bell_432","midi_source":""},{"t":103.535,"note":46,"dur":0.222,"vel":0.614,"inst":"bass_v0_bell_432","midi_source":""},{"t":103.757,"note":40,"dur":0.222,"vel":0.559,"inst":"bass_v0_bell_432","midi_source":""},{"t":103.757,"note":58,"dur":0.222,"vel":0.504,"inst":"bass_v0_bell_432","midi_source":""},{"t":103.979,"note":43,"dur":0.222,"vel":0.614,"inst":"koto_v0_additive_32","midi_source":""},{"t":103.979,"note":60,"dur":0.111,"vel":0.598,"inst":"bass_v0_bell_432","midi_source":""},{"t":104.09,"note":58,"dur":0.111,"vel":0.543,"inst":"bass_v0_bell_432","midi_source":""},{"t":104.2,"note":48,"dur":0.222,"vel":0.63,"inst":"bass_v0_bell_432","midi_source":""},{"t":104.2,"note":57,"dur":0.222,"vel":0.567,"inst":"koto_v0_additive_32","midi_source":""},{"t":104.422,"note":46,"dur":0.222,"vel":0.551,"inst":"bass_v0_bell_432","midi_source":""},{"t":104.422,"note":55,"dur":0.222,"vel":0.535,"inst":"koto_v0_additive_32","midi_source":""},{"t":104.644,"note":41,"dur":0.222,"vel":0.575,"inst":"koto_v0_additive_32","midi_source":""},{"t":104.644,"note":55,"dur":0.665,"vel":0.606,"inst":"koto_v0_additive_32","midi_source":""},{"t":104.865,"note":46,"dur":0.222,"vel":0.614,"inst":"bass_v0_bell_432","midi_source":""},{"t":105.087,"note":50,"dur":0.222,"vel":0.677,"inst":"bass_v0_bell_432","midi_source":""},{"t":105.309,"note":46,"dur":0.222,"vel":0.551,"inst":"bass_v0_bell_432","midi_source":""},{"t":105.309,"note":53,"dur":0.222,"vel":0.567,"inst":"koto_v0_additive_32","midi_source":""},{"t":105.53,"note":41,"dur":0.222,"vel":0.591,"inst":"koto_v0_additive_32","midi_source":""},{"t":105.53,"note":53,"dur":0.332,"vel":0.591,"inst":"koto_v0_additive_32","midi_source":""},{"t":105.752,"note":45,"dur":0.222,"vel":0.63,"inst":"koto_v0_additive_32","midi_source":""},{"t":105.863,"note":63,"dur":0.111,"vel":0.717,"inst":"koto_v0_additive_32","midi_source":""},{"t":105.974,"note":51,"dur":0.222,"vel":0.677,"inst":"koto_v0_additive_32","midi_source":""},{"t":105.974,"note":55,"dur":0.332,"vel":0.496,"inst":"koto_v0_additive_32","midi_source":""},{"t":106.195,"note":53,"dur":0.222,"vel":0.661,"inst":"koto_v0_additive_32","midi_source":""},{"t":106.306,"note":57,"dur":0.111,"vel":0.591,"inst":"koto_v0_additive_32","midi_source":""},{"t":106.417,"note":34,"dur":0.111,"vel":0.52,"inst":"bass_v0_bell_432","midi_source":""},{"t":106.417,"note":58,"dur":0.332,"vel":0.63,"inst":"bass_v0_bell_432","midi_source":""},{"t":106.528,"note":38,"dur":0.111,"vel":0.63,"inst":"bass_v0_bell_432","midi_source":""},{"t":106.638,"note":41,"dur":0.111,"vel":0.638,"inst":"koto_v0_additive_32","midi_source":""},{"t":106.749,"note":46,"dur":0.111,"vel":0.661,"inst":"bass_v0_bell_432","midi_source":""},{"t":106.749,"note":70,"dur":0.111,"vel":0.732,"inst":"bass_v0_bell_432","midi_source":""},{"t":106.86,"note":50,"dur":0.443,"vel":0.669,"inst":"bass_v0_bell_432","midi_source":""},{"t":106.86,"note":62,"dur":0.332,"vel":0.504,"inst":"bass_v0_bell_432","midi_source":""},{"t":107.193,"note":63,"dur":0.111,"vel":0.606,"inst":"koto_v0_additive_32","midi_source":""},{"t":107.303,"note":35,"dur":0.222,"vel":0.52,"inst":"koto_v0_additive_32","midi_source":""},{"t":107.303,"note":59,"dur":0.665,"vel":0.654,"inst":"koto_v0_additive_32","midi_source":""},{"t":107.303,"note":63,"dur":0.665,"vel":0.654,"inst":"koto_v0_additive_32","midi_source":""},{"t":107.303,"note":65,"dur":0.665,"vel":0.654,"inst":"koto_v0_additive_32","midi_source":""},{"t":107.525,"note":45,"dur":0.111,"vel":0.638,"inst":"koto_v0_additive_32","midi_source":""},{"t":107.636,"note":51,"dur":0.111,"vel":0.717,"inst":"koto_v0_additive_32","midi_source":""},{"t":107.747,"note":53,"dur":0.222,"vel":0.63,"inst":"koto_v0_additive_32","midi_source":""},{"t":107.968,"note":41,"dur":0.111,"vel":0.559,"inst":"koto_v0_additive_32","midi_source":""},{"t":107.968,"note":58,"dur":0.665,"vel":0.614,"inst":"bass_v0_bell_432","midi_source":""},{"t":107.968,"note":62,"dur":0.665,"vel":0.614,"inst":"bass_v0_bell_432","midi_source":""},{"t":107.968,"note":65,"dur":0.665,"vel":0.614,"inst":"koto_v0_additive_32","midi_source":""},{"t":108.079,"note":46,"dur":0.111,"vel":0.614,"inst":"bass_v0_bell_432","midi_source":""},{"t":108.19,"note":50,"dur":0.332,"vel":0.693,"inst":"bass_v0_bell_432","midi_source":""},{"t":108.523,"note":46,"dur":0.111,"vel":0.606,"inst":"bass_v0_bell_432","midi_source":""},{"t":108.633,"note":29,"dur":0.222,"vel":0.535,"inst":"koto_v0_additive_32","midi_source":""},{"t":108.633,"note":57,"dur":0.665,"vel":0.598,"inst":"koto_v0_additive_32","midi_source":""},{"t":108.633,"note":63,"dur":0.665,"vel":0.598,"inst":"koto_v0_additive_32","midi_source":""},{"t":108.633,"note":65,"dur":0.665,"vel":0.598,"inst":"koto_v0_additive_32","midi_source":""},{"t":108.855,"note":41,"dur":0.111,"vel":0.701,"inst":"koto_v0_additive_32","midi_source":""},{"t":108.966,"note":45,"dur":0.111,"vel":0.638,"inst":"koto_v0_additive_32","midi_source":""},{"t":109.077,"note":48,"dur":0.222,"vel":0.614,"inst":"bass_v0_bell_432","midi_source":""},{"t":109.298,"note":41,"dur":0.111,"vel":0.551,"inst":"koto_v0_additive_32","midi_source":""},{"t":109.298,"note":58,"dur":0.665,"vel":0.614,"inst":"bass_v0_bell_432","midi_source":""},{"t":109.298,"note":62,"dur":0.665,"vel":0.614,"inst":"bass_v0_bell_432","midi_source":""},{"t":109.298,"note":65,"dur":0.665,"vel":0.614,"inst":"koto_v0_additive_32","midi_source":""},{"t":109.409,"note":46,"dur":0.111,"vel":0.63,"inst":"bass_v0_bell_432","midi_source":""},{"t":109.52,"note":50,"dur":0.332,"vel":0.685,"inst":"bass_v0_bell_432","midi_source":""},{"t":109.852,"note":46,"dur":0.111,"vel":0.583,"inst":"bass_v0_bell_432","midi_source":""},{"t":109.963,"note":35,"dur":0.222,"vel":0.512,"inst":"koto_v0_additive_32","midi_source":""},{"t":109.963,"note":57,"dur":0.665,"vel":0.606,"inst":"koto_v0_additive_32","midi_source":""},{"t":109.963,"note":63,"dur":0.665,"vel":0.606,"inst":"koto_v0_additive_32","midi_source":""},{"t":109.963,"note":65,"dur":0.665,"vel":0.606,"inst":"koto_v0_additive_32","midi_source":""},{"t":110.185,"note":45,"dur":0.111,"vel":0.638,"inst":"koto_v0_additive_32","midi_source":""},{"t":110.296,"note":51,"dur":0.111,"vel":0.669,"inst":"koto_v0_additive_32","midi_source":""},{"t":110.407,"note":53,"dur":0.222,"vel":0.685,"inst":"koto_v0_additive_32","midi_source":""},{"t":110.628,"note":41,"dur":0.111,"vel":0.535,"inst":"koto_v0_additive_32","midi_source":""},{"t":110.628,"note":58,"dur":0.665,"vel":0.614,"inst":"bass_v0_bell_432","midi_source":""},{"t":110.628,"note":62,"dur":0.665,"vel":0.614,"inst":"bass_v0_bell_432","midi_source":""},{"t":110.628,"note":65,"dur":0.665,"vel":0.614,"inst":"koto_v0_additive_32","midi_source":""},{"t":110.739,"note":46,"dur":0.111,"vel":0.614,"inst":"bass_v0_bell_432","midi_source":""},{"t":110.85,"note":50,"dur":0.332,"vel":0.677,"inst":"bass_v0_bell_432","midi_source":""},{"t":111.182,"note":46,"dur":0.111,"vel":0.575,"inst":"bass_v0_bell_432","midi_source":""},{"t":111.293,"note":29,"dur":0.222,"vel":0.528,"inst":"koto_v0_additive_32","midi_source":""},{"t":111.293,"note":57,"dur":0.665,"vel":0.591,"inst":"koto_v0_additive_32","midi_source":""},{"t":111.293,"note":65,"dur":0.665,"vel":0.591,"inst":"koto_v0_additive_32","midi_source":""},{"t":111.515,"note":41,"dur":0.111,"vel":0.669,"inst":"koto_v0_additive_32","midi_source":""},{"t":111.626,"note":45,"dur":0.111,"vel":0.63,"inst":"koto_v0_additive_32","midi_source":""},{"t":111.736,"note":32,"dur":0.222,"vel":0.559,"inst":"bass_v0_bell_432","midi_source":""},{"t":111.736,"note":59,"dur":0.147,"vel":0.787,"inst":"koto_v0_additive_32","midi_source":""},{"t":111.884,"note":61,"dur":0.147,"vel":0.787,"inst":"koto_v0_additive_32","midi_source":""},{"t":111.958,"note":39,"dur":0.222,"vel":0.63,"inst":"koto_v0_additive_32","midi_source":""},{"t":112.031,"note":59,"dur":0.149,"vel":0.787,"inst":"koto_v0_additive_32","midi_source":""},{"t":112.18,"note":47,"dur":0.222,"vel":0.677,"inst":"koto_v0_additive_32","midi_source":""},{"t":112.18,"note":56,"dur":0.443,"vel":0.528,"inst":"bass_v0_bell_432","midi_source":""},{"t":112.401,"note":39,"dur":0.222,"vel":0.559,"inst":"koto_v0_additive_32","midi_source":""},{"t":112.623,"note":34,"dur":0.222,"vel":0.551,"inst":"bass_v0_bell_432","midi_source":""},{"t":112.623,"note":56,"dur":0.443,"vel":0.638,"inst":"bass_v0_bell_432","midi_source":""},{"t":112.623,"note":58,"dur":0.443,"vel":0.638,"inst":"bass_v0_bell_432","midi_source":""},{"t":112.845,"note":40,"dur":0.222,"vel":0.638,"inst":"bass_v0_bell_432","midi_source":""},{"t":113.066,"note":50,"dur":0.222,"vel":0.748,"inst":"bass_v0_bell_432","midi_source":""},{"t":113.066,"note":56,"dur":0.332,"vel":0.606,"inst":"bass_v0_bell_432","midi_source":""},{"t":113.066,"note":58,"dur":0.332,"vel":0.606,"inst":"bass_v0_bell_432","midi_source":""},{"t":113.288,"note":46,"dur":0.222,"vel":0.591,"inst":"bass_v0_bell_432","midi_source":""},{"t":113.399,"note":56,"dur":0.111,"vel":0.551,"inst":"bass_v0_bell_432","midi_source":""},{"t":113.399,"note":58,"dur":0.111,"vel":0.551,"inst":"bass_v0_bell_432","midi_source":""},{"t":113.51,"note":39,"dur":0.222,"vel":0.535,"inst":"koto_v0_additive_32","midi_source":""},{"t":113.51,"note":54,"dur":0.443,"vel":0.614,"inst":"bass_v0_bell_432","midi_source":""},{"t":113.51,"note":58,"dur":0.443,"vel":0.614,"inst":"bass_v0_bell_432","midi_source":""},{"t":113.731,"note":46,"dur":0.222,"vel":0.63,"inst":"bass_v0_bell_432","midi_source":""},{"t":113.953,"note":54,"dur":0.222,"vel":0.709,"inst":"bass_v0_bell_432","midi_source":""},{"t":113.953,"note":58,"dur":0.332,"vel":0.709,"inst":"bass_v0_bell_432","midi_source":""},{"t":113.953,"note":66,"dur":0.332,"vel":0.709,"inst":"bass_v0_bell_432","midi_source":""},{"t":114.175,"note":46,"dur":0.222,"vel":0.543,"inst":"bass_v0_bell_432","midi_source":""},{"t":114.285,"note":58,"dur":0.111,"vel":0.614,"inst":"bass_v0_bell_432","midi_source":""},{"t":114.285,"note":66,"dur":0.111,"vel":0.614,"inst":"bass_v0_bell_432","midi_source":""},{"t":114.396,"note":34,"dur":0.222,"vel":0.488,"inst":"bass_v0_bell_432","midi_source":""},{"t":114.396,"note":56,"dur":0.332,"vel":0.591,"inst":"bass_v0_bell_432","midi_source":""},{"t":114.396,"note":64,"dur":0.332,"vel":0.591,"inst":"bass_v0_bell_432","midi_source":""},{"t":114.618,"note":40,"dur":0.222,"vel":0.622,"inst":"bass_v0_bell_432","midi_source":""},{"t":114.729,"note":54,"dur":0.111,"vel":0.622,"inst":"bass_v0_bell_432","midi_source":""},{"t":114.729,"note":63,"dur":0.111,"vel":0.622,"inst":"koto_v0_additive_32","midi_source":""},{"t":114.84,"note":50,"dur":0.222,"vel":0.724,"inst":"bass_v0_bell_432","midi_source":""},{"t":114.84,"note":56,"dur":0.332,"vel":0.606,"inst":"bass_v0_bell_432","midi_source":""},{"t":114.84,"note":64,"dur":0.332,"vel":0.606,"inst":"bass_v0_bell_432","midi_source":""},{"t":115.061,"note":46,"dur":0.222,"vel":0.606,"inst":"bass_v0_bell_432","midi_source":""},{"t":115.172,"note":58,"dur":0.111,"vel":0.654,"inst":"bass_v0_bell_432","midi_source":""},{"t":115.172,"note":66,"dur":0.111,"vel":0.654,"inst":"bass_v0_bell_432","midi_source":""},{"t":115.283,"note":39,"dur":0.222,"vel":0.543,"inst":"koto_v0_additive_32","midi_source":""},{"t":115.283,"note":52,"dur":0.887,"vel":0.528,"inst":"bass_v0_bell_432","midi_source":""},{"t":115.283,"note":63,"dur":0.887,"vel":0.528,"inst":"koto_v0_additive_32","midi_source":""},{"t":115.505,"note":46,"dur":0.222,"vel":0.646,"inst":"bass_v0_bell_432","midi_source":""},{"t":115.726,"note":54,"dur":0.222,"vel":0.709,"inst":"bass_v0_bell_432","midi_source":""},{"t":115.948,"note":46,"dur":0.222,"vel":0.559,"inst":"bass_v0_bell_432","midi_source":""},{"t":116.169,"note":35,"dur":0.222,"vel":0.543,"inst":"koto_v0_additive_32","midi_source":""},{"t":116.169,"note":63,"dur":0.443,"vel":0.591,"inst":"koto_v0_additive_32","midi_source":""},{"t":116.391,"note":39,"dur":0.222,"vel":0.598,"inst":"koto_v0_additive_32","midi_source":""},{"t":116.613,"note":51,"dur":0.222,"vel":0.772,"inst":"koto_v0_additive_32","midi_source":""},{"t":116.613,"note":62,"dur":0.222,"vel":0.559,"inst":"bass_v0_bell_432","midi_source":""},{"t":116.834,"note":47,"dur":0.222,"vel":0.614,"inst":"koto_v0_additive_32","midi_source":""},{"t":116.834,"note":63,"dur":0.222,"vel":0.614,"inst":"koto_v0_additive_32","midi_source":""},{"t":117.056,"note":34,"dur":0.222,"vel":0.535,"inst":"bass_v0_bell_432","midi_source":""},{"t":117.056,"note":66,"dur":0.665,"vel":0.669,"inst":"bass_v0_bell_432","midi_source":""},{"t":117.278,"note":38,"dur":0.222,"vel":0.606,"inst":"bass_v0_bell_432","midi_source":""},{"t":117.499,"note":50,"dur":0.222,"vel":0.748,"inst":"bass_v0_bell_432","midi_source":""},{"t":117.721,"note":46,"dur":0.222,"vel":0.606,"inst":"bass_v0_bell_432","midi_source":""},{"t":117.721,"note":64,"dur":0.222,"vel":0.591,"inst":"bass_v0_bell_432","midi_source":""},{"t":117.943,"note":35,"dur":0.222,"vel":0.535,"inst":"koto_v0_additive_32","midi_source":""},{"t":117.943,"note":53,"dur":0.332,"vel":0.425,"inst":"koto_v0_additive_32","midi_source":""},{"t":118.164,"note":39,"dur":0.222,"vel":0.661,"inst":"koto_v0_additive_32","midi_source":""},{"t":118.275,"note":63,"dur":0.111,"vel":0.709,"inst":"koto_v0_additive_32","midi_source":""},{"t":118.386,"note":51,"dur":0.222,"vel":0.78,"inst":"koto_v0_additive_32","midi_source":""},{"t":118.386,"note":63,"dur":0.222,"vel":0.598,"inst":"koto_v0_additive_32","midi_source":""},{"t":118.608,"note":47,"dur":0.222,"vel":0.654,"inst":"koto_v0_additive_32","midi_source":""},{"t":118.608,"note":63,"dur":0.222,"vel":0.598,"inst":"koto_v0_additive_32","midi_source":""},{"t":118.829,"note":34,"dur":0.222,"vel":0.528,"inst":"bass_v0_bell_432","midi_source":""},{"t":118.829,"note":62,"dur":0.222,"vel":0.559,"inst":"bass_v0_bell_432","midi_source":""},{"t":119.051,"note":38,"dur":0.222,"vel":0.591,"inst":"bass_v0_bell_432","midi_source":""},{"t":119.051,"note":65,"dur":0.665,"vel":0.638,"inst":"koto_v0_additive_32","midi_source":""},{"t":119.273,"note":50,"dur":0.222,"vel":0.764,"inst":"bass_v0_bell_432","midi_source":""},{"t":119.494,"note":46,"dur":0.222,"vel":0.614,"inst":"bass_v0_bell_432","midi_source":""},{"t":119.716,"note":40,"dur":0.222,"vel":0.559,"inst":"bass_v0_bell_432","midi_source":""},{"t":119.716,"note":58,"dur":0.222,"vel":0.504,"inst":"bass_v0_bell_432","midi_source":""},{"t":119.938,"note":43,"dur":0.222,"vel":0.614,"inst":"koto_v0_additive_32","midi_source":""},{"t":119.938,"note":60,"dur":0.111,"vel":0.598,"inst":"bass_v0_bell_432","midi_source":""},{"t":120.048,"note":58,"dur":0.111,"vel":0.543,"inst":"bass_v0_bell_432","midi_source":""},{"t":120.159,"note":48,"dur":0.222,"vel":0.63,"inst":"bass_v0_bell_432","midi_source":""},{"t":120.159,"note":57,"dur":0.222,"vel":0.567,"inst":"koto_v0_additive_32","midi_source":""},{"t":120.381,"note":46,"dur":0.222,"vel":0.551,"inst":"bass_v0_bell_432","midi_source":""},{"t":120.381,"note":55,"dur":0.222,"vel":0.535,"inst":"koto_v0_additive_32","midi_source":""},{"t":120.603,"note":41,"dur":0.222,"vel":0.575,"inst":"koto_v0_additive_32","midi_source":""},{"t":120.603,"note":55,"dur":0.665,"vel":0.606,"inst":"koto_v0_additive_32","midi_source":""},{"t":120.824,"note":46,"dur":0.222,"vel":0.614,"inst":"bass_v0_bell_432","midi_source":""},{"t":121.046,"note":50,"dur":0.222,"vel":0.677,"inst":"bass_v0_bell_432","midi_source":""},{"t":121.267,"note":46,"dur":0.222,"vel":0.551,"inst":"bass_v0_bell_432","midi_source":""},{"t":121.267,"note":53,"dur":0.222,"vel":0.567,"inst":"koto_v0_additive_32","midi_source":""},{"t":121.489,"note":41,"dur":0.222,"vel":0.591,"inst":"koto_v0_additive_32","midi_source":""},{"t":121.489,"note":53,"dur":0.332,"vel":0.591,"inst":"koto_v0_additive_32","midi_source":""},{"t":121.711,"note":45,"dur":0.222,"vel":0.63,"inst":"koto_v0_additive_32","midi_source":""},{"t":121.822,"note":63,"dur":0.111,"vel":0.717,"inst":"koto_v0_additive_32","midi_source":""},{"t":121.932,"note":51,"dur":0.222,"vel":0.677,"inst":"koto_v0_additive_32","midi_source":""},{"t":121.932,"note":55,"dur":0.332,"vel":0.496,"inst":"koto_v0_additive_32","midi_source":""},{"t":122.154,"note":53,"dur":0.222,"vel":0.661,"inst":"koto_v0_additive_32","midi_source":""},{"t":122.265,"note":57,"dur":0.111,"vel":0.591,"inst":"koto_v0_additive_32","midi_source":""},{"t":122.376,"note":34,"dur":0.111,"vel":0.52,"inst":"bass_v0_bell_432","midi_source":""},{"t":122.376,"note":58,"dur":0.332,"vel":0.63,"inst":"bass_v0_bell_432","midi_source":""},{"t":122.487,"note":38,"dur":0.111,"vel":0.63,"inst":"bass_v0_bell_432","midi_source":""},{"t":122.597,"note":41,"dur":0.111,"vel":0.638,"inst":"koto_v0_additive_32","midi_source":""},{"t":122.708,"note":46,"dur":0.111,"vel":0.661,"inst":"bass_v0_bell_432","midi_source":""},{"t":122.708,"note":70,"dur":0.111,"vel":0.732,"inst":"bass_v0_bell_432","midi_source":""},{"t":122.819,"note":50,"dur":0.443,"vel":0.669,"inst":"bass_v0_bell_432","midi_source":""},{"t":122.819,"note":62,"dur":0.332,"vel":0.504,"inst":"bass_v0_bell_432","midi_source":""},{"t":123.152,"note":63,"dur":0.111,"vel":0.606,"inst":"koto_v0_additive_32","midi_source":""},{"t":123.262,"note":35,"dur":0.222,"vel":0.52,"inst":"koto_v0_additive_32","midi_source":""},{"t":123.262,"note":59,"dur":0.665,"vel":0.654,"inst":"koto_v0_additive_32","midi_source":""},{"t":123.262,"note":63,"dur":0.665,"vel":0.654,"inst":"koto_v0_additive_32","midi_source":""},{"t":123.262,"note":65,"dur":0.665,"vel":0.654,"inst":"koto_v0_additive_32","midi_source":""},{"t":123.484,"note":45,"dur":0.111,"vel":0.638,"inst":"koto_v0_additive_32","midi_source":""},{"t":123.595,"note":51,"dur":0.111,"vel":0.717,"inst":"koto_v0_additive_32","midi_source":""},{"t":123.706,"note":53,"dur":0.222,"vel":0.63,"inst":"koto_v0_additive_32","midi_source":""},{"t":123.927,"note":41,"dur":0.111,"vel":0.559,"inst":"koto_v0_additive_32","midi_source":""},{"t":123.927,"note":58,"dur":0.665,"vel":0.614,"inst":"bass_v0_bell_432","midi_source":""},{"t":123.927,"note":62,"dur":0.665,"vel":0.614,"inst":"bass_v0_bell_432","midi_source":""},{"t":123.927,"note":65,"dur":0.665,"vel":0.614,"inst":"koto_v0_additive_32","midi_source":""},{"t":124.038,"note":46,"dur":0.111,"vel":0.614,"inst":"bass_v0_bell_432","midi_source":""},{"t":124.149,"note":50,"dur":0.332,"vel":0.693,"inst":"bass_v0_bell_432","midi_source":""},{"t":124.481,"note":46,"dur":0.111,"vel":0.606,"inst":"bass_v0_bell_432","midi_source":""},{"t":124.592,"note":29,"dur":0.222,"vel":0.535,"inst":"koto_v0_additive_32","midi_source":""},{"t":124.592,"note":57,"dur":0.665,"vel":0.598,"inst":"koto_v0_additive_32","midi_source":""},{"t":124.592,"note":63,"dur":0.665,"vel":0.598,"inst":"koto_v0_additive_32","midi_source":""},{"t":124.592,"note":65,"dur":0.665,"vel":0.598,"inst":"koto_v0_additive_32","midi_source":""},{"t":124.814,"note":41,"dur":0.111,"vel":0.701,"inst":"koto_v0_additive_32","midi_source":""},{"t":124.925,"note":45,"dur":0.111,"vel":0.638,"inst":"koto_v0_additive_32","midi_source":""},{"t":125.036,"note":48,"dur":0.222,"vel":0.614,"inst":"bass_v0_bell_432","midi_source":""},{"t":125.257,"note":41,"dur":0.111,"vel":0.551,"inst":"koto_v0_additive_32","midi_source":""},{"t":125.257,"note":58,"dur":0.665,"vel":0.614,"inst":"bass_v0_bell_432","midi_source":""},{"t":125.257,"note":62,"dur":0.665,"vel":0.614,"inst":"bass_v0_bell_432","midi_source":""},{"t":125.257,"note":65,"dur":0.665,"vel":0.614,"inst":"koto_v0_additive_32","midi_source":""},{"t":125.368,"note":46,"dur":0.111,"vel":0.63,"inst":"bass_v0_bell_432","midi_source":""},{"t":125.479,"note":50,"dur":0.332,"vel":0.685,"inst":"bass_v0_bell_432","midi_source":""},{"t":125.811,"note":46,"dur":0.111,"vel":0.583,"inst":"bass_v0_bell_432","midi_source":""},{"t":125.922,"note":35,"dur":0.222,"vel":0.512,"inst":"koto_v0_additive_32","midi_source":""},{"t":125.922,"note":57,"dur":0.665,"vel":0.606,"inst":"koto_v0_additive_32","midi_source":""},{"t":125.922,"note":63,"dur":0.665,"vel":0.606,"inst":"koto_v0_additive_32","midi_source":""},{"t":125.922,"note":65,"dur":0.665,"vel":0.606,"inst":"koto_v0_additive_32","midi_source":""},{"t":126.144,"note":45,"dur":0.111,"vel":0.638,"inst":"koto_v0_additive_32","midi_source":""},{"t":126.255,"note":51,"dur":0.111,"vel":0.669,"inst":"koto_v0_additive_32","midi_source":""},{"t":126.365,"note":53,"dur":0.222,"vel":0.685,"inst":"koto_v0_additive_32","midi_source":""},{"t":126.587,"note":41,"dur":0.111,"vel":0.535,"inst":"koto_v0_additive_32","midi_source":""},{"t":126.587,"note":58,"dur":0.665,"vel":0.614,"inst":"bass_v0_bell_432","midi_source":""},{"t":126.587,"note":62,"dur":0.665,"vel":0.614,"inst":"bass_v0_bell_432","midi_source":""},{"t":126.587,"note":65,"dur":0.665,"vel":0.614,"inst":"koto_v0_additive_32","midi_source":""},{"t":126.698,"note":46,"dur":0.111,"vel":0.614,"inst":"bass_v0_bell_432","midi_source":""},{"t":126.809,"note":50,"dur":0.332,"vel":0.677,"inst":"bass_v0_bell_432","midi_source":""},{"t":127.141,"note":46,"dur":0.111,"vel":0.575,"inst":"bass_v0_bell_432","midi_source":""},{"t":127.252,"note":29,"dur":0.222,"vel":0.528,"inst":"koto_v0_additive_32","midi_source":""},{"t":127.252,"note":57,"dur":0.665,"vel":0.591,"inst":"koto_v0_additive_32","midi_source":""},{"t":127.252,"note":65,"dur":0.665,"vel":0.591,"inst":"koto_v0_additive_32","midi_source":""},{"t":127.474,"note":41,"dur":0.111,"vel":0.669,"inst":"koto_v0_additive_32","midi_source":""},{"t":127.585,"note":45,"dur":0.111,"vel":0.63,"inst":"koto_v0_additive_32","midi_source":""},{"t":127.695,"note":32,"dur":0.222,"vel":0.559,"inst":"bass_v0_bell_432","midi_source":""},{"t":127.695,"note":59,"dur":0.147,"vel":0.787,"inst":"koto_v0_additive_32","midi_source":""},{"t":127.843,"note":61,"dur":0.147,"vel":0.787,"inst":"koto_v0_additive_32","midi_source":""},{"t":127.917,"note":39,"dur":0.222,"vel":0.63,"inst":"koto_v0_additive_32","midi_source":""},{"t":127.99,"note":59,"dur":0.149,"vel":0.787,"inst":"koto_v0_additive_32","midi_source":""},{"t":128.139,"note":47,"dur":0.222,"vel":0.677,"inst":"koto_v0_additive_32","midi_source":""},{"t":128.139,"note":56,"dur":0.443,"vel":0.528,"inst":"bass_v0_bell_432","midi_source":""},{"t":128.36,"note":39,"dur":0.222,"vel":0.559,"inst":"koto_v0_additive_32","midi_source":""},{"t":128.582,"note":34,"dur":0.222,"vel":0.551,"inst":"bass_v0_bell_432","midi_source":""},{"t":128.582,"note":56,"dur":0.443,"vel":0.638,"inst":"bass_v0_bell_432","midi_source":""},{"t":128.582,"note":58,"dur":0.443,"vel":0.638,"inst":"bass_v0_bell_432","midi_source":""},{"t":128.804,"note":40,"dur":0.222,"vel":0.638,"inst":"bass_v0_bell_432","midi_source":""},{"t":129.025,"note":50,"dur":0.222,"vel":0.748,"inst":"bass_v0_bell_432","midi_source":""},{"t":129.025,"note":56,"dur":0.332,"vel":0.606,"inst":"bass_v0_bell_432","midi_source":""},{"t":129.025,"note":58,"dur":0.332,"vel":0.606,"inst":"bass_v0_bell_432","midi_source":""},{"t":129.247,"note":46,"dur":0.222,"vel":0.591,"inst":"bass_v0_bell_432","midi_source":""},{"t":129.358,"note":56,"dur":0.111,"vel":0.551,"inst":"bass_v0_bell_432","midi_source":""},{"t":129.358,"note":58,"dur":0.111,"vel":0.551,"inst":"bass_v0_bell_432","midi_source":""},{"t":129.469,"note":39,"dur":0.222,"vel":0.535,"inst":"koto_v0_additive_32","midi_source":""},{"t":129.469,"note":54,"dur":0.443,"vel":0.614,"inst":"bass_v0_bell_432","midi_source":""},{"t":129.469,"note":58,"dur":0.443,"vel":0.614,"inst":"bass_v0_bell_432","midi_source":""},{"t":129.69,"note":46,"dur":0.222,"vel":0.63,"inst":"bass_v0_bell_432","midi_source":""},{"t":129.912,"note":54,"dur":0.222,"vel":0.709,"inst":"bass_v0_bell_432","midi_source":""},{"t":129.912,"note":58,"dur":0.332,"vel":0.709,"inst":"bass_v0_bell_432","midi_source":""},{"t":129.912,"note":66,"dur":0.332,"vel":0.709,"inst":"bass_v0_bell_432","midi_source":""},{"t":130.134,"note":46,"dur":0.222,"vel":0.543,"inst":"bass_v0_bell_432","midi_source":""},{"t":130.244,"note":58,"dur":0.111,"vel":0.614,"inst":"bass_v0_bell_432","midi_source":""},{"t":130.244,"note":66,"dur":0.111,"vel":0.614,"inst":"bass_v0_bell_432","midi_source":""},{"t":130.355,"note":34,"dur":0.222,"vel":0.488,"inst":"bass_v0_bell_432","midi_source":""},{"t":130.355,"note":56,"dur":0.332,"vel":0.591,"inst":"bass_v0_bell_432","midi_source":""},{"t":130.355,"note":64,"dur":0.332,"vel":0.591,"inst":"bass_v0_bell_432","midi_source":""},{"t":130.577,"note":40,"dur":0.222,"vel":0.622,"inst":"bass_v0_bell_432","midi_source":""},{"t":130.688,"note":54,"dur":0.111,"vel":0.622,"inst":"bass_v0_bell_432","midi_source":""},{"t":130.688,"note":63,"dur":0.111,"vel":0.622,"inst":"koto_v0_additive_32","midi_source":""},{"t":130.798,"note":50,"dur":0.222,"vel":0.724,"inst":"bass_v0_bell_432","midi_source":""},{"t":130.798,"note":56,"dur":0.332,"vel":0.606,"inst":"bass_v0_bell_432","midi_source":""},{"t":130.798,"note":64,"dur":0.332,"vel":0.606,"inst":"bass_v0_bell_432","midi_source":""},{"t":131.02,"note":46,"dur":0.222,"vel":0.606,"inst":"bass_v0_bell_432","midi_source":""},{"t":131.131,"note":58,"dur":0.111,"vel":0.654,"inst":"bass_v0_bell_432","midi_source":""},{"t":131.131,"note":66,"dur":0.111,"vel":0.654,"inst":"bass_v0_bell_432","midi_source":""},{"t":131.242,"note":39,"dur":0.222,"vel":0.543,"inst":"koto_v0_additive_32","midi_source":""},{"t":131.242,"note":52,"dur":0.887,"vel":0.528,"inst":"bass_v0_bell_432","midi_source":""},{"t":131.242,"note":63,"dur":0.887,"vel":0.528,"inst":"koto_v0_additive_32","midi_source":""},{"t":131.463,"note":46,"dur":0.222,"vel":0.646,"inst":"bass_v0_bell_432","midi_source":""},{"t":131.685,"note":54,"dur":0.222,"vel":0.709,"inst":"bass_v0_bell_432","midi_source":""},{"t":131.907,"note":46,"dur":0.222,"vel":0.559,"inst":"bass_v0_bell_432","midi_source":""},{"t":132.128,"note":35,"dur":0.222,"vel":0.543,"inst":"koto_v0_additive_32","midi_source":""},{"t":132.128,"note":63,"dur":0.443,"vel":0.591,"inst":"koto_v0_additive_32","midi_source":""},{"t":132.35,"note":39,"dur":0.222,"vel":0.598,"inst":"koto_v0_additive_32","midi_source":""},{"t":132.572,"note":51,"dur":0.222,"vel":0.772,"inst":"koto_v0_additive_32","midi_source":""},{"t":132.572,"note":62,"dur":0.222,"vel":0.559,"inst":"bass_v0_bell_432","midi_source":""},{"t":132.793,"note":47,"dur":0.222,"vel":0.614,"inst":"koto_v0_additive_32","midi_source":""},{"t":132.793,"note":63,"dur":0.222,"vel":0.614,"inst":"koto_v0_additive_32","midi_source":""},{"t":133.015,"note":34,"dur":0.222,"vel":0.535,"inst":"bass_v0_bell_432","midi_source":""},{"t":133.015,"note":66,"dur":0.665,"vel":0.669,"inst":"bass_v0_bell_432","midi_source":""},{"t":133.237,"note":38,"dur":0.222,"vel":0.606,"inst":"bass_v0_bell_432","midi_source":""},{"t":133.458,"note":50,"dur":0.222,"vel":0.748,"inst":"bass_v0_bell_432","midi_source":""},{"t":133.68,"note":46,"dur":0.222,"vel":0.606,"inst":"bass_v0_bell_432","midi_source":""},{"t":133.68,"note":64,"dur":0.222,"vel":0.591,"inst":"bass_v0_bell_432","midi_source":""},{"t":133.902,"note":35,"dur":0.222,"vel":0.535,"inst":"koto_v0_additive_32","midi_source":""},{"t":133.902,"note":53,"dur":0.332,"vel":0.425,"inst":"koto_v0_additive_32","midi_source":""},{"t":134.123,"note":39,"dur":0.222,"vel":0.661,"inst":"koto_v0_additive_32","midi_source":""},{"t":134.234,"note":63,"dur":0.111,"vel":0.709,"inst":"koto_v0_additive_32","midi_source":""},{"t":134.345,"note":51,"dur":0.222,"vel":0.78,"inst":"koto_v0_additive_32","midi_source":""},{"t":134.345,"note":63,"dur":0.222,"vel":0.598,"inst":"koto_v0_additive_32","midi_source":""},{"t":134.567,"note":47,"dur":0.222,"vel":0.654,"inst":"koto_v0_additive_32","midi_source":""},{"t":134.567,"note":63,"dur":0.222,"vel":0.598,"inst":"koto_v0_additive_32","midi_source":""},{"t":134.788,"note":34,"dur":0.222,"vel":0.528,"inst":"bass_v0_bell_432","midi_source":""},{"t":134.788,"note":62,"dur":0.222,"vel":0.559,"inst":"bass_v0_bell_432","midi_source":""},{"t":135.01,"note":38,"dur":0.222,"vel":0.591,"inst":"bass_v0_bell_432","midi_source":""},{"t":135.01,"note":65,"dur":0.665,"vel":0.638,"inst":"koto_v0_additive_32","midi_source":""},{"t":135.232,"note":50,"dur":0.222,"vel":0.764,"inst":"bass_v0_bell_432","midi_source":""},{"t":135.453,"note":46,"dur":0.222,"vel":0.614,"inst":"bass_v0_bell_432","midi_source":""},{"t":135.675,"note":40,"dur":0.222,"vel":0.559,"inst":"bass_v0_bell_432","midi_source":""},{"t":135.675,"note":58,"dur":0.222,"vel":0.504,"inst":"bass_v0_bell_432","midi_source":""},{"t":135.896,"note":43,"dur":0.222,"vel":0.614,"inst":"koto_v0_additive_32","midi_source":""},{"t":135.896,"note":60,"dur":0.111,"vel":0.598,"inst":"bass_v0_bell_432","midi_source":""},{"t":136.007,"note":58,"dur":0.111,"vel":0.543,"inst":"bass_v0_bell_432","midi_source":""},{"t":136.118,"note":48,"dur":0.222,"vel":0.63,"inst":"bass_v0_bell_432","midi_source":""},{"t":136.118,"note":57,"dur":0.222,"vel":0.567,"inst":"koto_v0_additive_32","midi_source":""},{"t":136.34,"note":46,"dur":0.222,"vel":0.551,"inst":"bass_v0_bell_432","midi_source":""},{"t":136.34,"note":55,"dur":0.222,"vel":0.535,"inst":"koto_v0_additive_32","midi_source":""},{"t":136.561,"note":41,"dur":0.222,"vel":0.575,"inst":"koto_v0_additive_32","midi_source":""},{"t":136.561,"note":55,"dur":0.665,"vel":0.606,"inst":"koto_v0_additive_32","midi_source":""},{"t":136.783,"note":46,"dur":0.222,"vel":0.614,"inst":"bass_v0_bell_432","midi_source":""},{"t":137.005,"note":50,"dur":0.222,"vel":0.677,"inst":"bass_v0_bell_432","midi_source":""},{"t":137.226,"note":46,"dur":0.222,"vel":0.551,"inst":"bass_v0_bell_432","midi_source":""},{"t":137.226,"note":53,"dur":0.222,"vel":0.567,"inst":"koto_v0_additive_32","midi_source":""},{"t":137.448,"note":41,"dur":0.222,"vel":0.591,"inst":"koto_v0_additive_32","midi_source":""},{"t":137.448,"note":53,"dur":0.332,"vel":0.591,"inst":"koto_v0_additive_32","midi_source":""},{"t":137.67,"note":45,"dur":0.222,"vel":0.63,"inst":"koto_v0_additive_32","midi_source":""},{"t":137.78,"note":63,"dur":0.111,"vel":0.717,"inst":"koto_v0_additive_32","midi_source":""},{"t":137.891,"note":51,"dur":0.222,"vel":0.677,"inst":"koto_v0_additive_32","midi_source":""},{"t":137.891,"note":55,"dur":0.332,"vel":0.496,"inst":"koto_v0_additive_32","midi_source":""},{"t":138.113,"note":53,"dur":0.222,"vel":0.661,"inst":"koto_v0_additive_32","midi_source":""},{"t":138.224,"note":57,"dur":0.111,"vel":0.591,"inst":"koto_v0_additive_32","midi_source":""},{"t":138.335,"note":34,"dur":0.111,"vel":0.52,"inst":"bass_v0_bell_432","midi_source":""},{"t":138.335,"note":58,"dur":0.332,"vel":0.63,"inst":"bass_v0_bell_432","midi_source":""},{"t":138.445,"note":38,"dur":0.111,"vel":0.63,"inst":"bass_v0_bell_432","midi_source":""},{"t":138.556,"note":41,"dur":0.111,"vel":0.638,"inst":"koto_v0_additive_32","midi_source":""},{"t":138.667,"note":46,"dur":0.111,"vel":0.661,"inst":"bass_v0_bell_432","midi_source":""},{"t":138.667,"note":70,"dur":0.111,"vel":0.732,"inst":"bass_v0_bell_432","midi_source":""},{"t":138.778,"note":50,"dur":0.443,"vel":0.669,"inst":"bass_v0_bell_432","midi_source":""},{"t":138.778,"note":62,"dur":0.332,"vel":0.504,"inst":"bass_v0_bell_432","midi_source":""},{"t":139.11,"note":63,"dur":0.111,"vel":0.606,"inst":"koto_v0_additive_32","midi_source":""},{"t":139.221,"note":35,"dur":0.222,"vel":0.52,"inst":"koto_v0_additive_32","midi_source":""},{"t":139.221,"note":59,"dur":0.665,"vel":0.654,"inst":"koto_v0_additive_32","midi_source":""},{"t":139.221,"note":63,"dur":0.665,"vel":0.654,"inst":"koto_v0_additive_32","midi_source":""},{"t":139.221,"note":65,"dur":0.665,"vel":0.654,"inst":"koto_v0_additive_32","midi_source":""},{"t":139.443,"note":45,"dur":0.111,"vel":0.638,"inst":"koto_v0_additive_32","midi_source":""},{"t":139.554,"note":51,"dur":0.111,"vel":0.717,"inst":"koto_v0_additive_32","midi_source":""},{"t":139.665,"note":53,"dur":0.222,"vel":0.63,"inst":"koto_v0_additive_32","midi_source":""},{"t":139.886,"note":41,"dur":0.111,"vel":0.559,"inst":"koto_v0_additive_32","midi_source":""},{"t":139.886,"note":58,"dur":0.665,"vel":0.614,"inst":"bass_v0_bell_432","midi_source":""},{"t":139.886,"note":62,"dur":0.665,"vel":0.614,"inst":"bass_v0_bell_432","midi_source":""},{"t":139.886,"note":65,"dur":0.665,"vel":0.614,"inst":"koto_v0_additive_32","midi_source":""},{"t":139.997,"note":46,"dur":0.111,"vel":0.614,"inst":"bass_v0_bell_432","midi_source":""},{"t":140.108,"note":50,"dur":0.332,"vel":0.693,"inst":"bass_v0_bell_432","midi_source":""},{"t":140.44,"note":46,"dur":0.111,"vel":0.606,"inst":"bass_v0_bell_432","midi_source":""},{"t":140.551,"note":29,"dur":0.222,"vel":0.535,"inst":"koto_v0_additive_32","midi_source":""},{"t":140.551,"note":57,"dur":0.665,"vel":0.598,"inst":"koto_v0_additive_32","midi_source":""},{"t":140.551,"note":63,"dur":0.665,"vel":0.598,"inst":"koto_v0_additive_32","midi_source":""},{"t":140.551,"note":65,"dur":0.665,"vel":0.598,"inst":"koto_v0_additive_32","midi_source":""},{"t":140.773,"note":41,"dur":0.111,"vel":0.701,"inst":"koto_v0_additive_32","midi_source":""},{"t":140.884,"note":45,"dur":0.111,"vel":0.638,"inst":"koto_v0_additive_32","midi_source":""},{"t":140.994,"note":48,"dur":0.222,"vel":0.614,"inst":"bass_v0_bell_432","midi_source":""},{"t":141.216,"note":41,"dur":0.111,"vel":0.551,"inst":"koto_v0_additive_32","midi_source":""},{"t":141.216,"note":58,"dur":0.665,"vel":0.614,"inst":"bass_v0_bell_432","midi_source":""},{"t":141.216,"note":62,"dur":0.665,"vel":0.614,"inst":"bass_v0_bell_432","midi_source":""},{"t":141.216,"note":65,"dur":0.665,"vel":0.614,"inst":"koto_v0_additive_32","midi_source":""},{"t":141.327,"note":46,"dur":0.111,"vel":0.63,"inst":"bass_v0_bell_432","midi_source":""},{"t":141.438,"note":50,"dur":0.332,"vel":0.685,"inst":"bass_v0_bell_432","midi_source":""},{"t":141.77,"note":46,"dur":0.111,"vel":0.583,"inst":"bass_v0_bell_432","midi_source":""},{"t":141.881,"note":35,"dur":0.222,"vel":0.512,"inst":"koto_v0_additive_32","midi_source":""},{"t":141.881,"note":57,"dur":0.665,"vel":0.606,"inst":"koto_v0_additive_32","midi_source":""},{"t":141.881,"note":63,"dur":0.665,"vel":0.606,"inst":"koto_v0_additive_32","midi_source":""},{"t":141.881,"note":65,"dur":0.665,"vel":0.606,"inst":"koto_v0_additive_32","midi_source":""},{"t":142.103,"note":45,"dur":0.111,"vel":0.638,"inst":"koto_v0_additive_32","midi_source":""},{"t":142.214,"note":51,"dur":0.111,"vel":0.669,"inst":"koto_v0_additive_32","midi_source":""},{"t":142.324,"note":53,"dur":0.222,"vel":0.685,"inst":"koto_v0_additive_32","midi_source":""},{"t":142.546,"note":41,"dur":0.111,"vel":0.535,"inst":"koto_v0_additive_32","midi_source":""},{"t":142.546,"note":58,"dur":0.665,"vel":0.614,"inst":"bass_v0_bell_432","midi_source":""},{"t":142.546,"note":62,"dur":0.665,"vel":0.614,"inst":"bass_v0_bell_432","midi_source":""},{"t":142.546,"note":65,"dur":0.665,"vel":0.614,"inst":"koto_v0_additive_32","midi_source":""},{"t":142.657,"note":46,"dur":0.111,"vel":0.614,"inst":"bass_v0_bell_432","midi_source":""},{"t":142.768,"note":50,"dur":0.332,"vel":0.677,"inst":"bass_v0_bell_432","midi_source":""},{"t":143.1,"note":46,"dur":0.111,"vel":0.575,"inst":"bass_v0_bell_432","midi_source":""},{"t":143.211,"note":29,"dur":0.222,"vel":0.528,"inst":"koto_v0_additive_32","midi_source":""},{"t":143.211,"note":57,"dur":0.665,"vel":0.591,"inst":"koto_v0_additive_32","midi_source":""},{"t":143.211,"note":65,"dur":0.665,"vel":0.591,"inst":"koto_v0_additive_32","midi_source":""},{"t":143.433,"note":41,"dur":0.111,"vel":0.669,"inst":"koto_v0_additive_32","midi_source":""},{"t":143.543,"note":45,"dur":0.111,"vel":0.63,"inst":"koto_v0_additive_32","midi_source":""},{"t":143.654,"note":32,"dur":0.222,"vel":0.559,"inst":"bass_v0_bell_432","midi_source":""},{"t":143.654,"note":59,"dur":0.147,"vel":0.787,"inst":"koto_v0_additive_32","midi_source":""},{"t":143.801,"note":61,"dur":0.147,"vel":0.787,"inst":"koto_v0_additive_32","midi_source":""},{"t":143.876,"note":39,"dur":0.222,"vel":0.63,"inst":"koto_v0_additive_32","midi_source":""},{"t":143.949,"note":59,"dur":0.149,"vel":0.787,"inst":"koto_v0_additive_32","midi_source":""},{"t":144.098,"note":47,"dur":0.222,"vel":0.677,"inst":"koto_v0_additive_32","midi_source":""},{"t":144.098,"note":56,"dur":0.443,"vel":0.528,"inst":"bass_v0_bell_432","midi_source":""},{"t":144.319,"note":39,"dur":0.222,"vel":0.559,"inst":"koto_v0_additive_32","midi_source":""},{"t":144.541,"note":34,"dur":0.222,"vel":0.551,"inst":"bass_v0_bell_432","midi_source":""},{"t":144.541,"note":56,"dur":0.443,"vel":0.638,"inst":"bass_v0_bell_432","midi_source":""},{"t":144.541,"note":58,"dur":0.443,"vel":0.638,"inst":"bass_v0_bell_432","midi_source":""},{"t":144.763,"note":40,"dur":0.222,"vel":0.638,"inst":"bass_v0_bell_432","midi_source":""},{"t":144.984,"note":50,"dur":0.222,"vel":0.748,"inst":"bass_v0_bell_432","midi_source":""},{"t":144.984,"note":56,"dur":0.332,"vel":0.606,"inst":"bass_v0_bell_432","midi_source":""},{"t":144.984,"note":58,"dur":0.332,"vel":0.606,"inst":"bass_v0_bell_432","midi_source":""},{"t":145.206,"note":46,"dur":0.222,"vel":0.591,"inst":"bass_v0_bell_432","midi_source":""},{"t":145.317,"note":56,"dur":0.111,"vel":0.551,"inst":"bass_v0_bell_432","midi_source":""},{"t":145.317,"note":58,"dur":0.111,"vel":0.551,"inst":"bass_v0_bell_432","midi_source":""},{"t":145.427,"note":39,"dur":0.222,"vel":0.535,"inst":"koto_v0_additive_32","midi_source":""},{"t":145.427,"note":54,"dur":0.443,"vel":0.614,"inst":"bass_v0_bell_432","midi_source":""},{"t":145.427,"note":58,"dur":0.443,"vel":0.614,"inst":"bass_v0_bell_432","midi_source":""},{"t":145.649,"note":46,"dur":0.222,"vel":0.63,"inst":"bass_v0_bell_432","midi_source":""},{"t":145.871,"note":54,"dur":0.222,"vel":0.709,"inst":"bass_v0_bell_432","midi_source":""},{"t":145.871,"note":58,"dur":0.332,"vel":0.709,"inst":"bass_v0_bell_432","midi_source":""},{"t":145.871,"note":66,"dur":0.332,"vel":0.709,"inst":"bass_v0_bell_432","midi_source":""},{"t":146.092,"note":46,"dur":0.222,"vel":0.543,"inst":"bass_v0_bell_432","midi_source":""},{"t":146.203,"note":58,"dur":0.111,"vel":0.614,"inst":"bass_v0_bell_432","midi_source":""},{"t":146.203,"note":66,"dur":0.111,"vel":0.614,"inst":"bass_v0_bell_432","midi_source":""},{"t":146.314,"note":34,"dur":0.222,"vel":0.488,"inst":"bass_v0_bell_432","midi_source":""},{"t":146.314,"note":56,"dur":0.332,"vel":0.591,"inst":"bass_v0_bell_432","midi_source":""},{"t":146.314,"note":64,"dur":0.332,"vel":0.591,"inst":"bass_v0_bell_432","midi_source":""},{"t":146.536,"note":40,"dur":0.222,"vel":0.622,"inst":"bass_v0_bell_432","midi_source":""},{"t":146.647,"note":54,"dur":0.111,"vel":0.622,"inst":"bass_v0_bell_432","midi_source":""},{"t":146.647,"note":63,"dur":0.111,"vel":0.622,"inst":"koto_v0_additive_32","midi_source":""},{"t":146.757,"note":50,"dur":0.222,"vel":0.724,"inst":"bass_v0_bell_432","midi_source":""},{"t":146.757,"note":56,"dur":0.332,"vel":0.606,"inst":"bass_v0_bell_432","midi_source":""},{"t":146.757,"note":64,"dur":0.332,"vel":0.606,"inst":"bass_v0_bell_432","midi_source":""},{"t":146.979,"note":46,"dur":0.222,"vel":0.606,"inst":"bass_v0_bell_432","midi_source":""},{"t":147.09,"note":58,"dur":0.111,"vel":0.654,"inst":"bass_v0_bell_432","midi_source":""},{"t":147.09,"note":66,"dur":0.111,"vel":0.654,"inst":"bass_v0_bell_432","midi_source":""},{"t":147.201,"note":39,"dur":0.222,"vel":0.543,"inst":"koto_v0_additive_32","midi_source":""},{"t":147.201,"note":52,"dur":0.887,"vel":0.528,"inst":"bass_v0_bell_432","midi_source":""},{"t":147.201,"note":63,"dur":0.887,"vel":0.528,"inst":"koto_v0_additive_32","midi_source":""},{"t":147.422,"note":46,"dur":0.222,"vel":0.646,"inst":"bass_v0_bell_432","midi_source":""},{"t":147.644,"note":54,"dur":0.222,"vel":0.709,"inst":"bass_v0_bell_432","midi_source":""},{"t":147.866,"note":46,"dur":0.222,"vel":0.559,"inst":"bass_v0_bell_432","midi_source":""},{"t":148.087,"note":35,"dur":0.222,"vel":0.543,"inst":"koto_v0_additive_32","midi_source":""},{"t":148.087,"note":63,"dur":0.443,"vel":0.591,"inst":"koto_v0_additive_32","midi_source":""},{"t":148.309,"note":39,"dur":0.222,"vel":0.598,"inst":"koto_v0_additive_32","midi_source":""},{"t":148.531,"note":51,"dur":0.222,"vel":0.772,"inst":"koto_v0_additive_32","midi_source":""},{"t":148.531,"note":62,"dur":0.222,"vel":0.559,"inst":"bass_v0_bell_432","midi_source":""},{"t":148.752,"note":47,"dur":0.222,"vel":0.614,"inst":"koto_v0_additive_32","midi_source":""},{"t":148.752,"note":63,"dur":0.222,"vel":0.614,"inst":"koto_v0_additive_32","midi_source":""},{"t":148.974,"note":34,"dur":0.222,"vel":0.535,"inst":"bass_v0_bell_432","midi_source":""},{"t":148.974,"note":66,"dur":0.665,"vel":0.669,"inst":"bass_v0_bell_432","midi_source":""},{"t":149.196,"note":38,"dur":0.222,"vel":0.606,"inst":"bass_v0_bell_432","midi_source":""},{"t":149.417,"note":50,"dur":0.222,"vel":0.748,"inst":"bass_v0_bell_432","midi_source":""},{"t":149.639,"note":46,"dur":0.222,"vel":0.606,"inst":"bass_v0_bell_432","midi_source":""},{"t":149.639,"note":64,"dur":0.222,"vel":0.591,"inst":"bass_v0_bell_432","midi_source":""},{"t":149.86,"note":35,"dur":0.222,"vel":0.535,"inst":"koto_v0_additive_32","midi_source":""},{"t":149.86,"note":53,"dur":0.332,"vel":0.425,"inst":"koto_v0_additive_32","midi_source":""},{"t":150.082,"note":39,"dur":0.222,"vel":0.661,"inst":"koto_v0_additive_32","midi_source":""},{"t":150.193,"note":63,"dur":0.111,"vel":0.709,"inst":"koto_v0_additive_32","midi_source":""},{"t":150.304,"note":51,"dur":0.222,"vel":0.78,"inst":"koto_v0_additive_32","midi_source":""},{"t":150.304,"note":63,"dur":0.222,"vel":0.598,"inst":"koto_v0_additive_32","midi_source":""},{"t":150.525,"note":47,"dur":0.222,"vel":0.654,"inst":"koto_v0_additive_32","midi_source":""},{"t":150.525,"note":63,"dur":0.222,"vel":0.598,"inst":"koto_v0_additive_32","midi_source":""},{"t":150.747,"note":34,"dur":0.222,"vel":0.528,"inst":"bass_v0_bell_432","midi_source":""},{"t":150.747,"note":62,"dur":0.222,"vel":0.559,"inst":"bass_v0_bell_432","midi_source":""},{"t":150.969,"note":38,"dur":0.222,"vel":0.591,"inst":"bass_v0_bell_432","midi_source":""},{"t":150.969,"note":65,"dur":0.665,"vel":0.638,"inst":"koto_v0_additive_32","midi_source":""},{"t":151.19,"note":50,"dur":0.222,"vel":0.764,"inst":"bass_v0_bell_432","midi_source":""},{"t":151.412,"note":46,"dur":0.222,"vel":0.614,"inst":"bass_v0_bell_432","midi_source":""},{"t":151.634,"note":40,"dur":0.222,"vel":0.559,"inst":"bass_v0_bell_432","midi_source":""},{"t":151.634,"note":58,"dur":0.222,"vel":0.504,"inst":"bass_v0_bell_432","midi_source":""},{"t":151.855,"note":43,"dur":0.222,"vel":0.614,"inst":"koto_v0_additive_32","midi_source":""},{"t":151.855,"note":60,"dur":0.111,"vel":0.598,"inst":"bass_v0_bell_432","midi_source":""},{"t":151.966,"note":58,"dur":0.111,"vel":0.543,"inst":"bass_v0_bell_432","midi_source":""},{"t":152.077,"note":48,"dur":0.222,"vel":0.63,"inst":"bass_v0_bell_432","midi_source":""},{"t":152.077,"note":57,"dur":0.222,"vel":0.567,"inst":"koto_v0_additive_32","midi_source":""},{"t":152.299,"note":46,"dur":0.222,"vel":0.551,"inst":"bass_v0_bell_432","midi_source":""},{"t":152.299,"note":55,"dur":0.222,"vel":0.535,"inst":"koto_v0_additive_32","midi_source":""},{"t":152.52,"note":41,"dur":0.222,"vel":0.575,"inst":"koto_v0_additive_32","midi_source":""},{"t":152.52,"note":55,"dur":0.665,"vel":0.606,"inst":"koto_v0_additive_32","midi_source":""},{"t":152.742,"note":46,"dur":0.222,"vel":0.614,"inst":"bass_v0_bell_432","midi_source":""},{"t":152.964,"note":50,"dur":0.222,"vel":0.677,"inst":"bass_v0_bell_432","midi_source":""},{"t":153.185,"note":46,"dur":0.222,"vel":0.551,"inst":"bass_v0_bell_432","midi_source":""},{"t":153.185,"note":53,"dur":0.222,"vel":0.567,"inst":"koto_v0_additive_32","midi_source":""},{"t":153.407,"note":41,"dur":0.222,"vel":0.591,"inst":"koto_v0_additive_32","midi_source":""},{"t":153.407,"note":53,"dur":0.332,"vel":0.591,"inst":"koto_v0_additive_32","midi_source":""},{"t":153.629,"note":45,"dur":0.222,"vel":0.63,"inst":"koto_v0_additive_32","midi_source":""},{"t":153.739,"note":63,"dur":0.111,"vel":0.717,"inst":"koto_v0_additive_32","midi_source":""},{"t":153.85,"note":51,"dur":0.222,"vel":0.677,"inst":"koto_v0_additive_32","midi_source":""},{"t":153.85,"note":55,"dur":0.332,"vel":0.496,"inst":"koto_v0_additive_32","midi_source":""},{"t":154.072,"note":53,"dur":0.222,"vel":0.661,"inst":"koto_v0_additive_32","midi_source":""},{"t":154.183,"note":57,"dur":0.111,"vel":0.591,"inst":"koto_v0_additive_32","midi_source":""},{"t":154.294,"note":34,"dur":0.111,"vel":0.52,"inst":"bass_v0_bell_432","midi_source":""},{"t":154.294,"note":58,"dur":0.332,"vel":0.63,"inst":"bass_v0_bell_432","midi_source":""},{"t":154.404,"note":38,"dur":0.111,"vel":0.63,"inst":"bass_v0_bell_432","midi_source":""},{"t":154.515,"note":41,"dur":0.111,"vel":0.638,"inst":"koto_v0_additive_32","midi_source":""},{"t":154.626,"note":46,"dur":0.111,"vel":0.661,"inst":"bass_v0_bell_432","midi_source":""},{"t":154.626,"note":70,"dur":0.111,"vel":0.732,"inst":"bass_v0_bell_432","midi_source":""},{"t":154.737,"note":50,"dur":0.443,"vel":0.669,"inst":"bass_v0_bell_432","midi_source":""},{"t":154.737,"note":62,"dur":0.332,"vel":0.504,"inst":"bass_v0_bell_432","midi_source":""},{"t":155.069,"note":63,"dur":0.111,"vel":0.606,"inst":"koto_v0_additive_32","midi_source":""},{"t":155.18,"note":35,"dur":0.222,"vel":0.52,"inst":"koto_v0_additive_32","midi_source":""},{"t":155.18,"note":59,"dur":0.665,"vel":0.654,"inst":"koto_v0_additive_32","midi_source":""},{"t":155.18,"note":63,"dur":0.665,"vel":0.654,"inst":"koto_v0_additive_32","midi_source":""},{"t":155.18,"note":65,"dur":0.665,"vel":0.654,"inst":"koto_v0_additive_32","midi_source":""},{"t":155.402,"note":45,"dur":0.111,"vel":0.638,"inst":"koto_v0_additive_32","midi_source":""},{"t":155.513,"note":51,"dur":0.111,"vel":0.717,"inst":"koto_v0_additive_32","midi_source":""},{"t":155.623,"note":53,"dur":0.222,"vel":0.63,"inst":"koto_v0_additive_32","midi_source":""},{"t":155.845,"note":41,"dur":0.111,"vel":0.559,"inst":"koto_v0_additive_32","midi_source":""},{"t":155.845,"note":58,"dur":0.665,"vel":0.614,"inst":"bass_v0_bell_432","midi_source":""},{"t":155.845,"note":62,"dur":0.665,"vel":0.614,"inst":"bass_v0_bell_432","midi_source":""},{"t":155.845,"note":65,"dur":0.665,"vel":0.614,"inst":"koto_v0_additive_32","midi_source":""},{"t":155.956,"note":46,"dur":0.111,"vel":0.614,"inst":"bass_v0_bell_432","midi_source":""},{"t":156.067,"note":50,"dur":0.332,"vel":0.693,"inst":"bass_v0_bell_432","midi_source":""},{"t":156.399,"note":46,"dur":0.111,"vel":0.606,"inst":"bass_v0_bell_432","midi_source":""},{"t":156.51,"note":29,"dur":0.222,"vel":0.535,"inst":"koto_v0_additive_32","midi_source":""},{"t":156.51,"note":57,"dur":0.665,"vel":0.598,"inst":"koto_v0_additive_32","midi_source":""},{"t":156.51,"note":63,"dur":0.665,"vel":0.598,"inst":"koto_v0_additive_32","midi_source":""},{"t":156.51,"note":65,"dur":0.665,"vel":0.598,"inst":"koto_v0_additive_32","midi_source":""},{"t":156.732,"note":41,"dur":0.111,"vel":0.701,"inst":"koto_v0_additive_32","midi_source":""},{"t":156.842,"note":45,"dur":0.111,"vel":0.638,"inst":"koto_v0_additive_32","midi_source":""},{"t":156.953,"note":48,"dur":0.222,"vel":0.614,"inst":"bass_v0_bell_432","midi_source":""},{"t":157.175,"note":41,"dur":0.111,"vel":0.551,"inst":"koto_v0_additive_32","midi_source":""},{"t":157.175,"note":58,"dur":0.665,"vel":0.614,"inst":"bass_v0_bell_432","midi_source":""},{"t":157.175,"note":62,"dur":0.665,"vel":0.614,"inst":"bass_v0_bell_432","midi_source":""},{"t":157.175,"note":65,"dur":0.665,"vel":0.614,"inst":"koto_v0_additive_32","midi_source":""},{"t":157.286,"note":46,"dur":0.111,"vel":0.63,"inst":"bass_v0_bell_432","midi_source":""},{"t":157.397,"note":50,"dur":0.332,"vel":0.685,"inst":"bass_v0_bell_432","midi_source":""},{"t":157.729,"note":46,"dur":0.111,"vel":0.583,"inst":"bass_v0_bell_432","midi_source":""},{"t":157.84,"note":35,"dur":0.222,"vel":0.512,"inst":"koto_v0_additive_32","midi_source":""},{"t":157.84,"note":57,"dur":0.665,"vel":0.606,"inst":"koto_v0_additive_32","midi_source":""},{"t":157.84,"note":63,"dur":0.665,"vel":0.606,"inst":"koto_v0_additive_32","midi_source":""},{"t":157.84,"note":65,"dur":0.665,"vel":0.606,"inst":"koto_v0_additive_32","midi_source":""},{"t":158.062,"note":45,"dur":0.111,"vel":0.638,"inst":"koto_v0_additive_32","midi_source":""},{"t":158.172,"note":51,"dur":0.111,"vel":0.669,"inst":"koto_v0_additive_32","midi_source":""},{"t":158.283,"note":53,"dur":0.222,"vel":0.685,"inst":"koto_v0_additive_32","midi_source":""},{"t":158.505,"note":41,"dur":0.111,"vel":0.535,"inst":"koto_v0_additive_32","midi_source":""},{"t":158.505,"note":58,"dur":0.665,"vel":0.614,"inst":"bass_v0_bell_432","midi_source":""},{"t":158.505,"note":62,"dur":0.665,"vel":0.614,"inst":"bass_v0_bell_432","midi_source":""},{"t":158.505,"note":65,"dur":0.665,"vel":0.614,"inst":"koto_v0_additive_32","midi_source":""},{"t":158.616,"note":46,"dur":0.111,"vel":0.614,"inst":"bass_v0_bell_432","midi_source":""},{"t":158.727,"note":50,"dur":0.332,"vel":0.677,"inst":"bass_v0_bell_432","midi_source":""},{"t":159.059,"note":46,"dur":0.111,"vel":0.575,"inst":"bass_v0_bell_432","midi_source":""},{"t":159.17,"note":29,"dur":0.222,"vel":0.528,"inst":"koto_v0_additive_32","midi_source":""},{"t":159.17,"note":57,"dur":0.665,"vel":0.591,"inst":"koto_v0_additive_32","midi_source":""},{"t":159.17,"note":65,"dur":0.665,"vel":0.591,"inst":"koto_v0_additive_32","midi_source":""},{"t":159.391,"note":41,"dur":0.111,"vel":0.669,"inst":"koto_v0_additive_32","midi_source":""},{"t":159.502,"note":45,"dur":0.111,"vel":0.63,"inst":"koto_v0_additive_32","midi_source":""},{"t":159.613,"note":32,"dur":0.222,"vel":0.559,"inst":"bass_v0_bell_432","midi_source":""},{"t":159.613,"note":59,"dur":0.147,"vel":0.787,"inst":"koto_v0_additive_32","midi_source":""},{"t":159.76,"note":61,"dur":0.147,"vel":0.787,"inst":"koto_v0_additive_32","midi_source":""},{"t":159.835,"note":39,"dur":0.222,"vel":0.63,"inst":"koto_v0_additive_32","midi_source":""},{"t":159.908,"note":59,"dur":0.149,"vel":0.787,"inst":"koto_v0_additive_32","midi_source":""},{"t":160.056,"note":47,"dur":0.222,"vel":0.677,"inst":"koto_v0_additive_32","midi_source":""},{"t":160.056,"note":56,"dur":0.443,"vel":0.528,"inst":"bass_v0_bell_432","midi_source":""},{"t":160.278,"note":39,"dur":0.222,"vel":0.559,"inst":"koto_v0_additive_32","midi_source":""},{"t":160.5,"note":34,"dur":0.222,"vel":0.551,"inst":"bass_v0_bell_432","midi_source":""},{"t":160.5,"note":56,"dur":0.443,"vel":0.638,"inst":"bass_v0_bell_432","midi_source":""},{"t":160.5,"note":58,"dur":0.443,"vel":0.638,"inst":"bass_v0_bell_432","midi_source":""},{"t":160.721,"note":40,"dur":0.222,"vel":0.638,"inst":"bass_v0_bell_432","midi_source":""},{"t":160.943,"note":50,"dur":0.222,"vel":0.748,"inst":"bass_v0_bell_432","midi_source":""},{"t":160.943,"note":56,"dur":0.332,"vel":0.606,"inst":"bass_v0_bell_432","midi_source":""},{"t":160.943,"note":58,"dur":0.332,"vel":0.606,"inst":"bass_v0_bell_432","midi_source":""},{"t":161.165,"note":46,"dur":0.222,"vel":0.591,"inst":"bass_v0_bell_432","midi_source":""},{"t":161.276,"note":56,"dur":0.111,"vel":0.551,"inst":"bass_v0_bell_432","midi_source":""},{"t":161.276,"note":58,"dur":0.111,"vel":0.551,"inst":"bass_v0_bell_432","midi_source":""},{"t":161.386,"note":39,"dur":0.222,"vel":0.535,"inst":"koto_v0_additive_32","midi_source":""},{"t":161.386,"note":54,"dur":0.443,"vel":0.614,"inst":"bass_v0_bell_432","midi_source":""},{"t":161.386,"note":58,"dur":0.443,"vel":0.614,"inst":"bass_v0_bell_432","midi_source":""},{"t":161.608,"note":46,"dur":0.222,"vel":0.63,"inst":"bass_v0_bell_432","midi_source":""},{"t":161.83,"note":54,"dur":0.222,"vel":0.709,"inst":"bass_v0_bell_432","midi_source":""},{"t":161.83,"note":58,"dur":0.332,"vel":0.709,"inst":"bass_v0_bell_432","midi_source":""},{"t":161.83,"note":66,"dur":0.332,"vel":0.709,"inst":"bass_v0_bell_432","midi_source":""},{"t":162.051,"note":46,"dur":0.222,"vel":0.543,"inst":"bass_v0_bell_432","midi_source":""},{"t":162.162,"note":58,"dur":0.111,"vel":0.614,"inst":"bass_v0_bell_432","midi_source":""},{"t":162.162,"note":66,"dur":0.111,"vel":0.614,"inst":"bass_v0_bell_432","midi_source":""},{"t":162.273,"note":34,"dur":0.222,"vel":0.488,"inst":"bass_v0_bell_432","midi_source":""},{"t":162.273,"note":56,"dur":0.332,"vel":0.591,"inst":"bass_v0_bell_432","midi_source":""},{"t":162.273,"note":64,"dur":0.332,"vel":0.591,"inst":"bass_v0_bell_432","midi_source":""},{"t":162.495,"note":40,"dur":0.222,"vel":0.622,"inst":"bass_v0_bell_432","midi_source":""},{"t":162.605,"note":54,"dur":0.111,"vel":0.622,"inst":"bass_v0_bell_432","midi_source":""},{"t":162.605,"note":63,"dur":0.111,"vel":0.622,"inst":"koto_v0_additive_32","midi_source":""},{"t":162.716,"note":50,"dur":0.222,"vel":0.724,"inst":"bass_v0_bell_432","midi_source":""},{"t":162.716,"note":56,"dur":0.332,"vel":0.606,"inst":"bass_v0_bell_432","midi_source":""},{"t":162.716,"note":64,"dur":0.332,"vel":0.606,"inst":"bass_v0_bell_432","midi_source":""},{"t":162.938,"note":46,"dur":0.222,"vel":0.606,"inst":"bass_v0_bell_432","midi_source":""},{"t":163.049,"note":58,"dur":0.111,"vel":0.654,"inst":"bass_v0_bell_432","midi_source":""},{"t":163.049,"note":66,"dur":0.111,"vel":0.654,"inst":"bass_v0_bell_432","midi_source":""},{"t":163.16,"note":39,"dur":0.222,"vel":0.543,"inst":"koto_v0_additive_32","midi_source":""},{"t":163.16,"note":52,"dur":0.887,"vel":0.528,"inst":"bass_v0_bell_432","midi_source":""},{"t":163.16,"note":63,"dur":0.887,"vel":0.528,"inst":"koto_v0_additive_32","midi_source":""},{"t":163.381,"note":46,"dur":0.222,"vel":0.646,"inst":"bass_v0_bell_432","midi_source":""},{"t":163.603,"note":54,"dur":0.222,"vel":0.709,"inst":"bass_v0_bell_432","midi_source":""},{"t":163.825,"note":46,"dur":0.222,"vel":0.559,"inst":"bass_v0_bell_432","midi_source":""},{"t":164.046,"note":35,"dur":0.222,"vel":0.543,"inst":"koto_v0_additive_32","midi_source":""},{"t":164.046,"note":63,"dur":0.443,"vel":0.591,"inst":"koto_v0_additive_32","midi_source":""},{"t":164.268,"note":39,"dur":0.222,"vel":0.598,"inst":"koto_v0_additive_32","midi_source":""},{"t":164.489,"note":51,"dur":0.222,"vel":0.772,"inst":"koto_v0_additive_32","midi_source":""},{"t":164.489,"note":62,"dur":0.222,"vel":0.559,"inst":"bass_v0_bell_432","midi_source":""},{"t":164.711,"note":47,"dur":0.222,"vel":0.614,"inst":"koto_v0_additive_32","midi_source":""},{"t":164.711,"note":63,"dur":0.222,"vel":0.614,"inst":"koto_v0_additive_32","midi_source":""},{"t":164.933,"note":34,"dur":0.222,"vel":0.535,"inst":"bass_v0_bell_432","midi_source":""},{"t":164.933,"note":66,"dur":0.665,"vel":0.669,"inst":"bass_v0_bell_432","midi_source":""},{"t":165.154,"note":38,"dur":0.222,"vel":0.606,"inst":"bass_v0_bell_432","midi_source":""},{"t":165.376,"note":50,"dur":0.222,"vel":0.748,"inst":"bass_v0_bell_432","midi_source":""},{"t":165.598,"note":46,"dur":0.222,"vel":0.606,"inst":"bass_v0_bell_432","midi_source":""},{"t":165.598,"note":64,"dur":0.222,"vel":0.591,"inst":"bass_v0_bell_432","midi_source":""},{"t":165.819,"note":35,"dur":0.222,"vel":0.535,"inst":"koto_v0_additive_32","midi_source":""},{"t":165.819,"note":53,"dur":0.332,"vel":0.425,"inst":"koto_v0_additive_32","midi_source":""},{"t":166.041,"note":39,"dur":0.222,"vel":0.661,"inst":"koto_v0_additive_32","midi_source":""},{"t":166.152,"note":63,"dur":0.111,"vel":0.709,"inst":"koto_v0_additive_32","midi_source":""},{"t":166.263,"note":51,"dur":0.222,"vel":0.78,"inst":"koto_v0_additive_32","midi_source":""},{"t":166.263,"note":63,"dur":0.222,"vel":0.598,"inst":"koto_v0_additive_32","midi_source":""},{"t":166.484,"note":47,"dur":0.222,"vel":0.654,"inst":"koto_v0_additive_32","midi_source":""},{"t":166.484,"note":63,"dur":0.222,"vel":0.598,"inst":"koto_v0_additive_32","midi_source":""},{"t":166.706,"note":34,"dur":0.222,"vel":0.528,"inst":"bass_v0_bell_432","midi_source":""},{"t":166.706,"note":62,"dur":0.222,"vel":0.559,"inst":"bass_v0_bell_432","midi_source":""},{"t":166.928,"note":38,"dur":0.222,"vel":0.591,"inst":"bass_v0_bell_432","midi_source":""},{"t":166.928,"note":65,"dur":0.665,"vel":0.638,"inst":"koto_v0_additive_32","midi_source":""},{"t":167.149,"note":50,"dur":0.222,"vel":0.764,"inst":"bass_v0_bell_432","midi_source":""},{"t":167.371,"note":46,"dur":0.222,"vel":0.614,"inst":"bass_v0_bell_432","midi_source":""},{"t":167.593,"note":40,"dur":0.222,"vel":0.559,"inst":"bass_v0_bell_432","midi_source":""},{"t":167.593,"note":58,"dur":0.222,"vel":0.504,"inst":"bass_v0_bell_432","midi_source":""},{"t":167.814,"note":43,"dur":0.186,"vel":0.614,"inst":"koto_v0_additive_32","midi_source":""},{"t":167.814,"note":60,"dur":0.111,"vel":0.598,"inst":"bass_v0_bell_432","midi_source":""},{"t":167.925,"note":58,"dur":0.075,"vel":0.543,"inst":"bass_v0_bell_432","midi_source":""},{"t":168.111,"note":40,"dur":0.147,"vel":1.0,"inst":"clarinet_v0_plucked_119","midi_source":""},{"t":168.111,"note":59,"dur":0.147,"vel":1.0,"inst":"glockenspiel_v0_pad_339","midi_source":""},{"t":168.257,"note":38,"dur":0.147,"vel":1.0,"inst":"clarinet_v0_plucked_119","midi_source":""},{"t":168.257,"note":50,"dur":0.147,"vel":1.0,"inst":"clarinet_v0_plucked_119","midi_source":""},{"t":168.404,"note":40,"dur":0.147,"vel":1.0,"inst":"clarinet_v0_plucked_119","midi_source":""},{"t":168.404,"note":57,"dur":0.147,"vel":1.0,"inst":"glockenspiel_v0_pad_339","midi_source":""},{"t":168.55,"note":38,"dur":0.147,"vel":1.0,"inst":"clarinet_v0_plucked_119","midi_source":""},{"t":168.55,"note":57,"dur":0.147,"vel":1.0,"inst":"glockenspiel_v0_pad_339","midi_source":""},{"t":168.697,"note":38,"dur":0.147,"vel":1.0,"inst":"clarinet_v0_plucked_119","midi_source":""},{"t":168.697,"note":59,"dur":0.147,"vel":1.0,"inst":"glockenspiel_v0_pad_339","midi_source":""},{"t":168.843,"note":35,"dur":0.147,"vel":1.0,"inst":"glockenspiel_v0_pad_339","midi_source":""},{"t":168.843,"note":50,"dur":0.147,"vel":1.0,"inst":"clarinet_v0_plucked_119","midi_source":""},{"t":168.99,"note":38,"dur":0.293,"vel":1.0,"inst":"clarinet_v0_plucked_119","midi_source":""},{"t":168.99,"note":57,"dur":0.147,"vel":1.0,"inst":"glockenspiel_v0_pad_339","midi_source":""},{"t":169.136,"note":59,"dur":0.147,"vel":1.0,"inst":"glockenspiel_v0_pad_339","midi_source":""},{"t":169.283,"note":45,"dur":0.293,"vel":1.0,"inst":"glockenspiel_v0_pad_339","midi_source":""},{"t":169.283,"note":62,"dur":0.147,"vel":1.0,"inst":"clarinet_v0_plucked_119","midi_source":""},{"t":169.43,"note":52,"dur":0.147,"vel":1.0,"inst":"clarinet_v0_plucked_119","midi_source":""},{"t":169.576,"note":42,"dur":0.293,"vel":1.0,"inst":"clarinet_v0_plucked_119","midi_source":""},{"t":169.576,"note":59,"dur":0.147,"vel":1.0,"inst":"glockenspiel_v0_pad_339","midi_source":""},{"t":169.723,"note":59,"dur":0.147,"vel":1.0,"inst":"glockenspiel_v0_pad_339","midi_source":""},{"t":169.869,"note":40,"dur":0.293,"vel":1.0,"inst":"clarinet_v0_plucked_119","midi_source":""},{"t":169.869,"note":62,"dur":0.147,"vel":1.0,"inst":"clarinet_v0_plucked_119","midi_source":""},{"t":170.016,"note":54,"dur":0.147,"vel":1.0,"inst":"clarinet_v0_plucked_119","midi_source":""},{"t":170.162,"note":38,"dur":0.147,"vel":1.0,"inst":"clarinet_v0_plucked_119","midi_source":""},{"t":170.162,"note":59,"dur":0.147,"vel":1.0,"inst":"glockenspiel_v0_pad_339","midi_source":""},{"t":170.309,"note":38,"dur":0.147,"vel":1.0,"inst":"clarinet_v0_plucked_119","midi_source":""},{"t":170.309,"note":62,"dur":0.147,"vel":1.0,"inst":"clarinet_v0_plucked_119","midi_source":""},{"t":170.455,"note":35,"dur":0.147,"vel":1.0,"inst":"glockenspiel_v0_pad_339","midi_source":""},{"t":170.455,"note":62,"dur":0.147,"vel":1.0,"inst":"clarinet_v0_plucked_119","midi_source":""},{"t":170.602,"note":38,"dur":0.147,"vel":1.0,"inst":"clarinet_v0_plucked_119","midi_source":""},{"t":170.602,"note":59,"dur":0.147,"vel":1.0,"inst":"glockenspiel_v0_pad_339","midi_source":""},{"t":170.748,"note":38,"dur":0.147,"vel":1.0,"inst":"clarinet_v0_plucked_119","midi_source":""},{"t":170.748,"note":59,"dur":0.147,"vel":1.0,"inst":"glockenspiel_v0_pad_339","midi_source":""},{"t":170.895,"note":35,"dur":0.147,"vel":1.0,"inst":"glockenspiel_v0_pad_339","midi_source":""},{"t":170.895,"note":54,"dur":0.147,"vel":1.0,"inst":"clarinet_v0_plucked_119","midi_source":""},{"t":171.041,"note":40,"dur":0.147,"vel":1.0,"inst":"clarinet_v0_plucked_119","midi_source":""},{"t":171.041,"note":59,"dur":0.147,"vel":1.0,"inst":"glockenspiel_v0_pad_339","midi_source":""},{"t":171.188,"note":38,"dur":0.147,"vel":1.0,"inst":"clarinet_v0_plucked_119","midi_source":""},{"t":171.188,"note":50,"dur":0.147,"vel":1.0,"inst":"clarinet_v0_plucked_119","midi_source":""},{"t":171.335,"note":40,"dur":0.147,"vel":1.0,"inst":"clarinet_v0_plucked_119","midi_source":""},{"t":171.335,"note":57,"dur":0.147,"vel":1.0,"inst":"glockenspiel_v0_pad_339","midi_source":""},{"t":171.481,"note":38,"dur":0.147,"vel":1.0,"inst":"clarinet_v0_plucked_119","midi_source":""},{"t":171.481,"note":57,"dur":0.147,"vel":1.0,"inst":"glockenspiel_v0_pad_339","midi_source":""},{"t":171.628,"note":38,"dur":0.147,"vel":1.0,"inst":"clarinet_v0_plucked_119","midi_source":""},{"t":171.628,"note":59,"dur":0.147,"vel":1.0,"inst":"glockenspiel_v0_pad_339","midi_source":""},{"t":171.774,"note":35,"dur":0.147,"vel":1.0,"inst":"glockenspiel_v0_pad_339","midi_source":""},{"t":171.774,"note":50,"dur":0.147,"vel":1.0,"inst":"clarinet_v0_plucked_119","midi_source":""},{"t":171.921,"note":38,"dur":0.293,"vel":1.0,"inst":"clarinet_v0_plucked_119","midi_source":""},{"t":171.921,"note":57,"dur":0.147,"vel":1.0,"inst":"glockenspiel_v0_pad_339","midi_source":""},{"t":172.067,"note":59,"dur":0.147,"vel":1.0,"inst":"glockenspiel_v0_pad_339","midi_source":""},{"t":172.214,"note":45,"dur":0.293,"vel":1.0,"inst":"glockenspiel_v0_pad_339","midi_source":""},{"t":172.214,"note":62,"dur":0.147,"vel":1.0,"inst":"clarinet_v0_plucked_119","midi_source":""},{"t":172.36,"note":52,"dur":0.147,"vel":1.0,"inst":"clarinet_v0_plucked_119","midi_source":""},{"t":172.507,"note":42,"dur":0.293,"vel":1.0,"inst":"clarinet_v0_plucked_119","midi_source":""},{"t":172.507,"note":59,"dur":0.147,"vel":1.0,"inst":"glockenspiel_v0_pad_339","midi_source":""},{"t":172.653,"note":59,"dur":0.147,"vel":1.0,"inst":"glockenspiel_v0_pad_339","midi_source":""},{"t":172.8,"note":40,"dur":0.293,"vel":1.0,"inst":"clarinet_v0_plucked_119","midi_source":""},{"t":172.8,"note":62,"dur":0.147,"vel":1.0,"inst":"clarinet_v0_plucked_119","midi_source":""},{"t":172.946,"note":54,"dur":0.147,"vel":1.0,"inst":"clarinet_v0_plucked_119","midi_source":""},{"t":173.093,"note":38,"dur":0.147,"vel":1.0,"inst":"clarinet_v0_plucked_119","midi_source":""},{"t":173.093,"note":59,"dur":0.147,"vel":1.0,"inst":"glockenspiel_v0_pad_339","midi_source":""},{"t":173.24,"note":38,"dur":0.147,"vel":1.0,"inst":"clarinet_v0_plucked_119","midi_source":""},{"t":173.24,"note":62,"dur":0.147,"vel":1.0,"inst":"clarinet_v0_plucked_119","midi_source":""},{"t":173.386,"note":35,"dur":0.147,"vel":1.0,"inst":"glockenspiel_v0_pad_339","midi_source":""},{"t":173.386,"note":62,"dur":0.147,"vel":1.0,"inst":"clarinet_v0_plucked_119","midi_source":""},{"t":173.533,"note":38,"dur":0.147,"vel":1.0,"inst":"clarinet_v0_plucked_119","midi_source":""},{"t":173.533,"note":59,"dur":0.147,"vel":1.0,"inst":"glockenspiel_v0_pad_339","midi_source":""},{"t":173.679,"note":38,"dur":0.147,"vel":1.0,"inst":"clarinet_v0_plucked_119","midi_source":""},{"t":173.679,"note":59,"dur":0.147,"vel":1.0,"inst":"glockenspiel_v0_pad_339","midi_source":""},{"t":173.826,"note":35,"dur":0.147,"vel":1.0,"inst":"glockenspiel_v0_pad_339","midi_source":""},{"t":173.826,"note":54,"dur":0.147,"vel":1.0,"inst":"clarinet_v0_plucked_119","midi_source":""},{"t":173.972,"note":40,"dur":0.147,"vel":1.0,"inst":"clarinet_v0_plucked_119","midi_source":""},{"t":173.972,"note":59,"dur":0.147,"vel":1.0,"inst":"glockenspiel_v0_pad_339","midi_source":""},{"t":174.119,"note":38,"dur":0.147,"vel":1.0,"inst":"clarinet_v0_plucked_119","midi_source":""},{"t":174.119,"note":50,"dur":0.147,"vel":1.0,"inst":"clarinet_v0_plucked_119","midi_source":""},{"t":174.265,"note":40,"dur":0.147,"vel":1.0,"inst":"clarinet_v0_plucked_119","midi_source":""},{"t":174.265,"note":57,"dur":0.147,"vel":1.0,"inst":"glockenspiel_v0_pad_339","midi_source":""},{"t":174.412,"note":38,"dur":0.147,"vel":1.0,"inst":"clarinet_v0_plucked_119","midi_source":""},{"t":174.412,"note":57,"dur":0.147,"vel":1.0,"inst":"glockenspiel_v0_pad_339","midi_source":""},{"t":174.558,"note":38,"dur":0.147,"vel":1.0,"inst":"clarinet_v0_plucked_119","midi_source":""},{"t":174.558,"note":59,"dur":0.147,"vel":1.0,"inst":"glockenspiel_v0_pad_339","midi_source":""},{"t":174.705,"note":35,"dur":0.147,"vel":1.0,"inst":"glockenspiel_v0_pad_339","midi_source":""},{"t":174.705,"note":50,"dur":0.147,"vel":1.0,"inst":"clarinet_v0_plucked_119","midi_source":""},{"t":174.852,"note":38,"dur":0.293,"vel":1.0,"inst":"clarinet_v0_plucked_119","midi_source":""},{"t":174.852,"note":57,"dur":0.147,"vel":1.0,"inst":"glockenspiel_v0_pad_339","midi_source":""},{"t":174.998,"note":59,"dur":0.147,"vel":1.0,"inst":"glockenspiel_v0_pad_339","midi_source":""},{"t":175.145,"note":45,"dur":0.293,"vel":1.0,"inst":"glockenspiel_v0_pad_339","midi_source":""},{"t":175.145,"note":62,"dur":0.147,"vel":1.0,"inst":"clarinet_v0_plucked_119","midi_source":""},{"t":175.291,"note":52,"dur":0.147,"vel":1.0,"inst":"clarinet_v0_plucked_119","midi_source":""},{"t":175.438,"note":42,"dur":0.293,"vel":1.0,"inst":"clarinet_v0_plucked_119","midi_source":""},{"t":175.438,"note":59,"dur":0.147,"vel":1.0,"inst":"glockenspiel_v0_pad_339","midi_source":""},{"t":175.584,"note":59,"dur":0.147,"vel":1.0,"inst":"glockenspiel_v0_pad_339","midi_source":""},{"t":175.731,"note":40,"dur":0.293,"vel":1.0,"inst":"clarinet_v0_plucked_119","midi_source":""},{"t":175.731,"note":62,"dur":0.147,"vel":1.0,"inst":"clarinet_v0_plucked_119","midi_source":""},{"t":175.877,"note":54,"dur":0.147,"vel":1.0,"inst":"clarinet_v0_plucked_119","midi_source":""},{"t":176.024,"note":38,"dur":0.147,"vel":1.0,"inst":"clarinet_v0_plucked_119","midi_source":""},{"t":176.024,"note":59,"dur":0.147,"vel":1.0,"inst":"glockenspiel_v0_pad_339","midi_source":""},{"t":176.17,"note":38,"dur":0.147,"vel":1.0,"inst":"clarinet_v0_plucked_119","midi_source":""},{"t":176.17,"note":62,"dur":0.147,"vel":1.0,"inst":"clarinet_v0_plucked_119","midi_source":""},{"t":176.317,"note":35,"dur":0.147,"vel":1.0,"inst":"glockenspiel_v0_pad_339","midi_source":""},{"t":176.317,"note":62,"dur":0.147,"vel":1.0,"inst":"clarinet_v0_plucked_119","midi_source":""},{"t":176.463,"note":38,"dur":0.147,"vel":1.0,"inst":"clarinet_v0_plucked_119","midi_source":""},{"t":176.463,"note":59,"dur":0.147,"vel":1.0,"inst":"glockenspiel_v0_pad_339","midi_source":""},{"t":176.61,"note":38,"dur":0.147,"vel":1.0,"inst":"clarinet_v0_plucked_119","midi_source":""},{"t":176.61,"note":59,"dur":0.147,"vel":1.0,"inst":"glockenspiel_v0_pad_339","midi_source":""},{"t":176.757,"note":35,"dur":0.147,"vel":1.0,"inst":"glockenspiel_v0_pad_339","midi_source":""},{"t":176.757,"note":54,"dur":0.147,"vel":1.0,"inst":"clarinet_v0_plucked_119","midi_source":""},{"t":176.903,"note":40,"dur":0.147,"vel":1.0,"inst":"clarinet_v0_plucked_119","midi_source":""},{"t":176.903,"note":59,"dur":0.147,"vel":1.0,"inst":"glockenspiel_v0_pad_339","midi_source":""},{"t":177.05,"note":38,"dur":0.147,"vel":1.0,"inst":"clarinet_v0_plucked_119","midi_source":""},{"t":177.05,"note":50,"dur":0.147,"vel":1.0,"inst":"clarinet_v0_plucked_119","midi_source":""},{"t":177.196,"note":40,"dur":0.147,"vel":1.0,"inst":"clarinet_v0_plucked_119","midi_source":""},{"t":177.196,"note":57,"dur":0.147,"vel":1.0,"inst":"glockenspiel_v0_pad_339","midi_source":""},{"t":177.343,"note":38,"dur":0.147,"vel":1.0,"inst":"clarinet_v0_plucked_119","midi_source":""},{"t":177.343,"note":57,"dur":0.147,"vel":1.0,"inst":"glockenspiel_v0_pad_339","midi_source":""},{"t":177.489,"note":38,"dur":0.147,"vel":1.0,"inst":"clarinet_v0_plucked_119","midi_source":""},{"t":177.489,"note":59,"dur":0.147,"vel":1.0,"inst":"glockenspiel_v0_pad_339","midi_source":""},{"t":177.636,"note":35,"dur":0.147,"vel":1.0,"inst":"glockenspiel_v0_pad_339","midi_source":""},{"t":177.636,"note":50,"dur":0.147,"vel":1.0,"inst":"clarinet_v0_plucked_119","midi_source":""},{"t":177.782,"note":38,"dur":0.293,"vel":1.0,"inst":"clarinet_v0_plucked_119","midi_source":""},{"t":177.782,"note":57,"dur":0.147,"vel":1.0,"inst":"glockenspiel_v0_pad_339","midi_source":""},{"t":177.929,"note":59,"dur":0.147,"vel":1.0,"inst":"glockenspiel_v0_pad_339","midi_source":""},{"t":178.075,"note":45,"dur":0.293,"vel":1.0,"inst":"glockenspiel_v0_pad_339","midi_source":""},{"t":178.075,"note":62,"dur":0.147,"vel":1.0,"inst":"clarinet_v0_plucked_119","midi_source":""},{"t":178.222,"note":52,"dur":0.147,"vel":1.0,"inst":"clarinet_v0_plucked_119","midi_source":""},{"t":178.368,"note":42,"dur":0.293,"vel":1.0,"inst":"clarinet_v0_plucked_119","midi_source":""},{"t":178.368,"note":59,"dur":0.147,"vel":1.0,"inst":"glockenspiel_v0_pad_339","midi_source":""},{"t":178.515,"note":59,"dur":0.147,"vel":1.0,"inst":"glockenspiel_v0_pad_339","midi_source":""},{"t":178.662,"note":40,"dur":0.293,"vel":1.0,"inst":"clarinet_v0_plucked_119","midi_source":""},{"t":178.662,"note":62,"dur":0.147,"vel":1.0,"inst":"clarinet_v0_plucked_119","midi_source":""},{"t":178.808,"note":54,"dur":0.147,"vel":1.0,"inst":"clarinet_v0_plucked_119","midi_source":""},{"t":178.955,"note":38,"dur":0.147,"vel":1.0,"inst":"clarinet_v0_plucked_119","midi_source":""},{"t":178.955,"note":59,"dur":0.147,"vel":1.0,"inst":"glockenspiel_v0_pad_339","midi_source":""},{"t":179.101,"note":38,"dur":0.147,"vel":1.0,"inst":"clarinet_v0_plucked_119","midi_source":""},{"t":179.101,"note":62,"dur":0.147,"vel":1.0,"inst":"clarinet_v0_plucked_119","midi_source":""},{"t":179.248,"note":35,"dur":0.147,"vel":1.0,"inst":"glockenspiel_v0_pad_339","midi_source":""},{"t":179.248,"note":62,"dur":0.147,"vel":1.0,"inst":"clarinet_v0_plucked_119","midi_source":""},{"t":179.394,"note":38,"dur":0.147,"vel":1.0,"inst":"clarinet_v0_plucked_119","midi_source":""},{"t":179.394,"note":59,"dur":0.147,"vel":1.0,"inst":"glockenspiel_v0_pad_339","midi_source":""},{"t":179.541,"note":38,"dur":0.147,"vel":1.0,"inst":"clarinet_v0_plucked_119","midi_source":""},{"t":179.541,"note":59,"dur":0.147,"vel":1.0,"inst":"glockenspiel_v0_pad_339","midi_source":""},{"t":179.687,"note":35,"dur":0.147,"vel":1.0,"inst":"glockenspiel_v0_pad_339","midi_source":""},{"t":179.687,"note":54,"dur":0.147,"vel":1.0,"inst":"clarinet_v0_plucked_119","midi_source":""},{"t":179.834,"note":40,"dur":0.147,"vel":1.0,"inst":"clarinet_v0_plucked_119","midi_source":""},{"t":179.834,"note":59,"dur":0.147,"vel":1.0,"inst":"glockenspiel_v0_pad_339","midi_source":""},{"t":179.98,"note":38,"dur":0.147,"vel":1.0,"inst":"clarinet_v0_plucked_119","midi_source":""},{"t":179.98,"note":50,"dur":0.147,"vel":1.0,"inst":"clarinet_v0_plucked_119","midi_source":""},{"t":180.127,"note":40,"dur":0.147,"vel":1.0,"inst":"clarinet_v0_plucked_119","midi_source":""},{"t":180.127,"note":57,"dur":0.147,"vel":1.0,"inst":"glockenspiel_v0_pad_339","midi_source":""},{"t":180.273,"note":38,"dur":0.147,"vel":1.0,"inst":"clarinet_v0_plucked_119","midi_source":""},{"t":180.273,"note":57,"dur":0.147,"vel":1.0,"inst":"glockenspiel_v0_pad_339","midi_source":""},{"t":180.42,"note":38,"dur":0.147,"vel":1.0,"inst":"clarinet_v0_plucked_119","midi_source":""},{"t":180.42,"note":59,"dur":0.147,"vel":1.0,"inst":"glockenspiel_v0_pad_339","midi_source":""},{"t":180.567,"note":35,"dur":0.147,"vel":1.0,"inst":"glockenspiel_v0_pad_339","midi_source":""},{"t":180.567,"note":50,"dur":0.147,"vel":1.0,"inst":"clarinet_v0_plucked_119","midi_source":""},{"t":180.713,"note":38,"dur":0.293,"vel":1.0,"inst":"clarinet_v0_plucked_119","midi_source":""},{"t":180.713,"note":57,"dur":0.147,"vel":1.0,"inst":"glockenspiel_v0_pad_339","midi_source":""},{"t":180.86,"note":59,"dur":0.147,"vel":1.0,"inst":"glockenspiel_v0_pad_339","midi_source":""},{"t":181.006,"note":45,"dur":0.293,"vel":1.0,"inst":"glockenspiel_v0_pad_339","midi_source":""},{"t":181.006,"note":62,"dur":0.147,"vel":1.0,"inst":"clarinet_v0_plucked_119","midi_source":""},{"t":181.153,"note":52,"dur":0.147,"vel":1.0,"inst":"clarinet_v0_plucked_119","midi_source":""},{"t":181.299,"note":42,"dur":0.293,"vel":1.0,"inst":"clarinet_v0_plucked_119","midi_source":""},{"t":181.299,"note":59,"dur":0.147,"vel":1.0,"inst":"glockenspiel_v0_pad_339","midi_source":""},{"t":181.446,"note":59,"dur":0.147,"vel":1.0,"inst":"glockenspiel_v0_pad_339","midi_source":""},{"t":181.592,"note":40,"dur":0.293,"vel":1.0,"inst":"clarinet_v0_plucked_119","midi_source":""},{"t":181.592,"note":62,"dur":0.147,"vel":1.0,"inst":"clarinet_v0_plucked_119","midi_source":""},{"t":181.739,"note":54,"dur":0.147,"vel":1.0,"inst":"clarinet_v0_plucked_119","midi_source":""},{"t":181.885,"note":38,"dur":0.147,"vel":1.0,"inst":"clarinet_v0_plucked_119","midi_source":""},{"t":181.885,"note":59,"dur":0.147,"vel":1.0,"inst":"glockenspiel_v0_pad_339","midi_source":""},{"t":182.032,"note":38,"dur":0.147,"vel":1.0,"inst":"clarinet_v0_plucked_119","midi_source":""},{"t":182.032,"note":62,"dur":0.147,"vel":1.0,"inst":"clarinet_v0_plucked_119","midi_source":""},{"t":182.179,"note":35,"dur":0.147,"vel":1.0,"inst":"glockenspiel_v0_pad_339","midi_source":""},{"t":182.179,"note":62,"dur":0.147,"vel":1.0,"inst":"clarinet_v0_plucked_119","midi_source":""},{"t":182.325,"note":38,"dur":0.147,"vel":1.0,"inst":"clarinet_v0_plucked_119","midi_source":""},{"t":182.325,"note":59,"dur":0.147,"vel":1.0,"inst":"glockenspiel_v0_pad_339","midi_source":""},{"t":182.472,"note":38,"dur":0.147,"vel":1.0,"inst":"clarinet_v0_plucked_119","midi_source":""},{"t":182.472,"note":59,"dur":0.147,"vel":1.0,"inst":"glockenspiel_v0_pad_339","midi_source":""},{"t":182.618,"note":35,"dur":0.147,"vel":1.0,"inst":"glockenspiel_v0_pad_339","midi_source":""},{"t":182.618,"note":54,"dur":0.147,"vel":1.0,"inst":"clarinet_v0_plucked_119","midi_source":""},{"t":182.765,"note":40,"dur":0.147,"vel":1.0,"inst":"clarinet_v0_plucked_119","midi_source":""},{"t":182.765,"note":59,"dur":0.147,"vel":1.0,"inst":"glockenspiel_v0_pad_339","midi_source":""},{"t":182.911,"note":38,"dur":0.147,"vel":1.0,"inst":"clarinet_v0_plucked_119","midi_source":""},{"t":182.911,"note":50,"dur":0.147,"vel":1.0,"inst":"clarinet_v0_plucked_119","midi_source":""},{"t":183.058,"note":40,"dur":0.147,"vel":1.0,"inst":"clarinet_v0_plucked_119","midi_source":""},{"t":183.058,"note":57,"dur":0.147,"vel":1.0,"inst":"glockenspiel_v0_pad_339","midi_source":""},{"t":183.204,"note":38,"dur":0.147,"vel":1.0,"inst":"clarinet_v0_plucked_119","midi_source":""},{"t":183.204,"note":57,"dur":0.147,"vel":1.0,"inst":"glockenspiel_v0_pad_339","midi_source":""},{"t":183.351,"note":38,"dur":0.147,"vel":1.0,"inst":"clarinet_v0_plucked_119","midi_source":""},{"t":183.351,"note":59,"dur":0.147,"vel":1.0,"inst":"glockenspiel_v0_pad_339","midi_source":""},{"t":183.497,"note":35,"dur":0.147,"vel":1.0,"inst":"glockenspiel_v0_pad_339","midi_source":""},{"t":183.497,"note":50,"dur":0.147,"vel":1.0,"inst":"clarinet_v0_plucked_119","midi_source":""},{"t":183.644,"note":38,"dur":0.293,"vel":1.0,"inst":"clarinet_v0_plucked_119","midi_source":""},{"t":183.644,"note":57,"dur":0.147,"vel":1.0,"inst":"glockenspiel_v0_pad_339","midi_source":""},{"t":183.79,"note":59,"dur":0.147,"vel":1.0,"inst":"glockenspiel_v0_pad_339","midi_source":""},{"t":183.937,"note":45,"dur":0.293,"vel":1.0,"inst":"glockenspiel_v0_pad_339","midi_source":""},{"t":183.937,"note":62,"dur":0.147,"vel":1.0,"inst":"clarinet_v0_plucked_119","midi_source":""},{"t":184.084,"note":52,"dur":0.147,"vel":1.0,"inst":"clarinet_v0_plucked_119","midi_source":""},{"t":184.23,"note":42,"dur":0.293,"vel":1.0,"inst":"clarinet_v0_plucked_119","midi_source":""},{"t":184.23,"note":59,"dur":0.147,"vel":1.0,"inst":"glockenspiel_v0_pad_339","midi_source":""},{"t":184.377,"note":59,"dur":0.147,"vel":1.0,"inst":"glockenspiel_v0_pad_339","midi_source":""},{"t":184.523,"note":40,"dur":0.293,"vel":1.0,"inst":"clarinet_v0_plucked_119","midi_source":""},{"t":184.523,"note":62,"dur":0.147,"vel":1.0,"inst":"clarinet_v0_plucked_119","midi_source":""},{"t":184.67,"note":54,"dur":0.147,"vel":1.0,"inst":"clarinet_v0_plucked_119","midi_source":""},{"t":184.816,"note":38,"dur":0.147,"vel":1.0,"inst":"clarinet_v0_plucked_119","midi_source":""},{"t":184.816,"note":59,"dur":0.147,"vel":1.0,"inst":"glockenspiel_v0_pad_339","midi_source":""},{"t":184.963,"note":38,"dur":0.147,"vel":1.0,"inst":"clarinet_v0_plucked_119","midi_source":""},{"t":184.963,"note":62,"dur":0.147,"vel":1.0,"inst":"clarinet_v0_plucked_119","midi_source":""},{"t":185.109,"note":35,"dur":0.147,"vel":1.0,"inst":"glockenspiel_v0_pad_339","midi_source":""},{"t":185.109,"note":62,"dur":0.147,"vel":1.0,"inst":"clarinet_v0_plucked_119","midi_source":""},{"t":185.256,"note":38,"dur":0.147,"vel":1.0,"inst":"clarinet_v0_plucked_119","midi_source":""},{"t":185.256,"note":59,"dur":0.147,"vel":1.0,"inst":"glockenspiel_v0_pad_339","midi_source":""},{"t":185.402,"note":38,"dur":0.147,"vel":1.0,"inst":"clarinet_v0_plucked_119","midi_source":""},{"t":185.402,"note":59,"dur":0.147,"vel":1.0,"inst":"glockenspiel_v0_pad_339","midi_source":""},{"t":185.549,"note":35,"dur":0.147,"vel":1.0,"inst":"glockenspiel_v0_pad_339","midi_source":""},{"t":185.549,"note":54,"dur":0.147,"vel":1.0,"inst":"clarinet_v0_plucked_119","midi_source":""},{"t":185.695,"note":40,"dur":0.147,"vel":1.0,"inst":"clarinet_v0_plucked_119","midi_source":""},{"t":185.695,"note":59,"dur":0.147,"vel":1.0,"inst":"glockenspiel_v0_pad_339","midi_source":""},{"t":185.842,"note":38,"dur":0.147,"vel":1.0,"inst":"clarinet_v0_plucked_119","midi_source":""},{"t":185.842,"note":50,"dur":0.147,"vel":1.0,"inst":"clarinet_v0_plucked_119","midi_source":""},{"t":185.989,"note":40,"dur":0.147,"vel":1.0,"inst":"clarinet_v0_plucked_119","midi_source":""},{"t":185.989,"note":57,"dur":0.147,"vel":1.0,"inst":"glockenspiel_v0_pad_339","midi_source":""},{"t":186.135,"note":38,"dur":0.147,"vel":1.0,"inst":"clarinet_v0_plucked_119","midi_source":""},{"t":186.135,"note":57,"dur":0.147,"vel":1.0,"inst":"glockenspiel_v0_pad_339","midi_source":""},{"t":186.282,"note":38,"dur":0.147,"vel":1.0,"inst":"clarinet_v0_plucked_119","midi_source":""},{"t":186.282,"note":59,"dur":0.147,"vel":1.0,"inst":"glockenspiel_v0_pad_339","midi_source":""},{"t":186.428,"note":35,"dur":0.147,"vel":1.0,"inst":"glockenspiel_v0_pad_339","midi_source":""},{"t":186.428,"note":50,"dur":0.147,"vel":1.0,"inst":"clarinet_v0_plucked_119","midi_source":""},{"t":186.575,"note":38,"dur":0.293,"vel":1.0,"inst":"clarinet_v0_plucked_119","midi_source":""},{"t":186.575,"note":57,"dur":0.147,"vel":1.0,"inst":"glockenspiel_v0_pad_339","midi_source":""},{"t":186.721,"note":59,"dur":0.147,"vel":1.0,"inst":"glockenspiel_v0_pad_339","midi_source":""},{"t":186.868,"note":45,"dur":0.293,"vel":1.0,"inst":"glockenspiel_v0_pad_339","midi_source":""},{"t":186.868,"note":62,"dur":0.147,"vel":1.0,"inst":"clarinet_v0_plucked_119","midi_source":""},{"t":187.014,"note":52,"dur":0.147,"vel":1.0,"inst":"clarinet_v0_plucked_119","midi_source":""},{"t":187.161,"note":42,"dur":0.293,"vel":1.0,"inst":"clarinet_v0_plucked_119","midi_source":""},{"t":187.161,"note":59,"dur":0.147,"vel":1.0,"inst":"glockenspiel_v0_pad_339","midi_source":""},{"t":187.307,"note":59,"dur":0.147,"vel":1.0,"inst":"glockenspiel_v0_pad_339","midi_source":""},{"t":187.454,"note":40,"dur":0.293,"vel":1.0,"inst":"clarinet_v0_plucked_119","midi_source":""},{"t":187.454,"note":62,"dur":0.147,"vel":1.0,"inst":"clarinet_v0_plucked_119","midi_source":""},{"t":187.6,"note":54,"dur":0.147,"vel":1.0,"inst":"clarinet_v0_plucked_119","midi_source":""},{"t":187.747,"note":38,"dur":0.147,"vel":1.0,"inst":"clarinet_v0_plucked_119","midi_source":""},{"t":187.747,"note":59,"dur":0.147,"vel":1.0,"inst":"glockenspiel_v0_pad_339","midi_source":""},{"t":187.894,"note":38,"dur":0.147,"vel":1.0,"inst":"clarinet_v0_plucked_119","midi_source":""},{"t":187.894,"note":62,"dur":0.147,"vel":1.0,"inst":"clarinet_v0_plucked_119","midi_source":""},{"t":188.04,"note":35,"dur":0.147,"vel":1.0,"inst":"glockenspiel_v0_pad_339","midi_source":""},{"t":188.04,"note":62,"dur":0.147,"vel":1.0,"inst":"clarinet_v0_plucked_119","midi_source":""},{"t":188.187,"note":38,"dur":0.147,"vel":1.0,"inst":"clarinet_v0_plucked_119","midi_source":""},{"t":188.187,"note":59,"dur":0.147,"vel":1.0,"inst":"glockenspiel_v0_pad_339","midi_source":""},{"t":188.333,"note":38,"dur":0.147,"vel":1.0,"inst":"clarinet_v0_plucked_119","midi_source":""},{"t":188.333,"note":59,"dur":0.147,"vel":1.0,"inst":"glockenspiel_v0_pad_339","midi_source":""},{"t":188.48,"note":35,"dur":0.147,"vel":1.0,"inst":"glockenspiel_v0_pad_339","midi_source":""},{"t":188.48,"note":54,"dur":0.147,"vel":1.0,"inst":"clarinet_v0_plucked_119","midi_source":""},{"t":188.626,"note":40,"dur":0.147,"vel":1.0,"inst":"clarinet_v0_plucked_119","midi_source":""},{"t":188.626,"note":59,"dur":0.147,"vel":1.0,"inst":"glockenspiel_v0_pad_339","midi_source":""},{"t":188.773,"note":38,"dur":0.147,"vel":1.0,"inst":"clarinet_v0_plucked_119","midi_source":""},{"t":188.773,"note":50,"dur":0.147,"vel":1.0,"inst":"clarinet_v0_plucked_119","midi_source":""},{"t":188.919,"note":40,"dur":0.147,"vel":1.0,"inst":"clarinet_v0_plucked_119","midi_source":""},{"t":188.919,"note":57,"dur":0.147,"vel":1.0,"inst":"glockenspiel_v0_pad_339","midi_source":""},{"t":189.066,"note":38,"dur":0.147,"vel":1.0,"inst":"clarinet_v0_plucked_119","midi_source":""},{"t":189.066,"note":57,"dur":0.147,"vel":1.0,"inst":"glockenspiel_v0_pad_339","midi_source":""},{"t":189.212,"note":38,"dur":0.147,"vel":1.0,"inst":"clarinet_v0_plucked_119","midi_source":""},{"t":189.212,"note":59,"dur":0.147,"vel":1.0,"inst":"glockenspiel_v0_pad_339","midi_source":""},{"t":189.359,"note":35,"dur":0.147,"vel":1.0,"inst":"glockenspiel_v0_pad_339","midi_source":""},{"t":189.359,"note":50,"dur":0.147,"vel":1.0,"inst":"clarinet_v0_plucked_119","midi_source":""},{"t":189.506,"note":38,"dur":0.293,"vel":1.0,"inst":"clarinet_v0_plucked_119","midi_source":""},{"t":189.506,"note":57,"dur":0.147,"vel":1.0,"inst":"glockenspiel_v0_pad_339","midi_source":""},{"t":189.652,"note":59,"dur":0.147,"vel":1.0,"inst":"glockenspiel_v0_pad_339","midi_source":""},{"t":189.799,"note":45,"dur":0.293,"vel":1.0,"inst":"glockenspiel_v0_pad_339","midi_source":""},{"t":189.799,"note":62,"dur":0.147,"vel":1.0,"inst":"clarinet_v0_plucked_119","midi_source":""},{"t":189.945,"note":52,"dur":0.147,"vel":1.0,"inst":"clarinet_v0_plucked_119","midi_source":""},{"t":190.092,"note":42,"dur":0.293,"vel":1.0,"inst":"clarinet_v0_plucked_119","midi_source":""},{"t":190.092,"note":59,"dur":0.147,"vel":1.0,"inst":"glockenspiel_v0_pad_339","midi_source":""},{"t":190.238,"note":59,"dur":0.147,"vel":1.0,"inst":"glockenspiel_v0_pad_339","midi_source":""},{"t":190.385,"note":40,"dur":0.293,"vel":1.0,"inst":"clarinet_v0_plucked_119","midi_source":""},{"t":190.385,"note":62,"dur":0.147,"vel":1.0,"inst":"clarinet_v0_plucked_119","midi_source":""},{"t":190.531,"note":54,"dur":0.147,"vel":1.0,"inst":"clarinet_v0_plucked_119","midi_source":""},{"t":190.678,"note":38,"dur":0.147,"vel":1.0,"inst":"clarinet_v0_plucked_119","midi_source":""},{"t":190.678,"note":59,"dur":0.147,"vel":1.0,"inst":"glockenspiel_v0_pad_339","midi_source":""},{"t":190.824,"note":38,"dur":0.147,"vel":1.0,"inst":"clarinet_v0_plucked_119","midi_source":""},{"t":190.824,"note":62,"dur":0.147,"vel":1.0,"inst":"clarinet_v0_plucked_119","midi_source":""},{"t":190.971,"note":35,"dur":0.147,"vel":1.0,"inst":"glockenspiel_v0_pad_339","midi_source":""},{"t":190.971,"note":62,"dur":0.147,"vel":1.0,"inst":"clarinet_v0_plucked_119","midi_source":""},{"t":191.117,"note":38,"dur":0.147,"vel":1.0,"inst":"clarinet_v0_plucked_119","midi_source":""},{"t":191.117,"note":59,"dur":0.147,"vel":1.0,"inst":"glockenspiel_v0_pad_339","midi_source":""},{"t":191.264,"note":38,"dur":0.147,"vel":1.0,"inst":"clarinet_v0_plucked_119","midi_source":""},{"t":191.264,"note":59,"dur":0.147,"vel":1.0,"inst":"glockenspiel_v0_pad_339","midi_source":""},{"t":191.411,"note":35,"dur":0.147,"vel":1.0,"inst":"glockenspiel_v0_pad_339","midi_source":""},{"t":191.411,"note":54,"dur":0.147,"vel":1.0,"inst":"clarinet_v0_plucked_119","midi_source":""},{"t":191.557,"note":40,"dur":0.147,"vel":1.0,"inst":"clarinet_v0_plucked_119","midi_source":""},{"t":191.557,"note":59,"dur":0.147,"vel":1.0,"inst":"glockenspiel_v0_pad_339","midi_source":""},{"t":191.704,"note":38,"dur":0.147,"vel":1.0,"inst":"clarinet_v0_plucked_119","midi_source":""},{"t":191.704,"note":50,"dur":0.147,"vel":1.0,"inst":"clarinet_v0_plucked_119","midi_source":""},{"t":191.85,"note":40,"dur":0.147,"vel":1.0,"inst":"clarinet_v0_plucked_119","midi_source":""},{"t":191.85,"note":57,"dur":0.147,"vel":1.0,"inst":"glockenspiel_v0_pad_339","midi_source":""},{"t":191.997,"note":38,"dur":0.147,"vel":1.0,"inst":"clarinet_v0_plucked_119","midi_source":""},{"t":191.997,"note":57,"dur":0.147,"vel":1.0,"inst":"glockenspiel_v0_pad_339","midi_source":""},{"t":192.143,"note":38,"dur":0.147,"vel":1.0,"inst":"clarinet_v0_plucked_119","midi_source":""},{"t":192.143,"note":59,"dur":0.147,"vel":1.0,"inst":"glockenspiel_v0_pad_339","midi_source":""},{"t":192.29,"note":35,"dur":0.147,"vel":1.0,"inst":"glockenspiel_v0_pad_339","midi_source":""},{"t":192.29,"note":50,"dur":0.147,"vel":1.0,"inst":"clarinet_v0_plucked_119","midi_source":""},{"t":192.436,"note":38,"dur":0.293,"vel":1.0,"inst":"clarinet_v0_plucked_119","midi_source":""},{"t":192.436,"note":57,"dur":0.147,"vel":1.0,"inst":"glockenspiel_v0_pad_339","midi_source":""},{"t":192.583,"note":59,"dur":0.147,"vel":1.0,"inst":"glockenspiel_v0_pad_339","midi_source":""},{"t":192.729,"note":45,"dur":0.293,"vel":1.0,"inst":"glockenspiel_v0_pad_339","midi_source":""},{"t":192.729,"note":62,"dur":0.147,"vel":1.0,"inst":"clarinet_v0_plucked_119","midi_source":""},{"t":192.876,"note":52,"dur":0.147,"vel":1.0,"inst":"clarinet_v0_plucked_119","midi_source":""},{"t":193.022,"note":42,"dur":0.293,"vel":1.0,"inst":"clarinet_v0_plucked_119","midi_source":""},{"t":193.022,"note":59,"dur":0.147,"vel":1.0,"inst":"glockenspiel_v0_pad_339","midi_source":""},{"t":193.169,"note":59,"dur":0.147,"vel":1.0,"inst":"glockenspiel_v0_pad_339","midi_source":""},{"t":193.316,"note":40,"dur":0.293,"vel":1.0,"inst":"clarinet_v0_plucked_119","midi_source":""},{"t":193.316,"note":62,"dur":0.147,"vel":1.0,"inst":"clarinet_v0_plucked_119","midi_source":""},{"t":193.462,"note":54,"dur":0.147,"vel":1.0,"inst":"clarinet_v0_plucked_119","midi_source":""},{"t":193.609,"note":38,"dur":0.147,"vel":1.0,"inst":"clarinet_v0_plucked_119","midi_source":""},{"t":193.609,"note":59,"dur":0.147,"vel":1.0,"inst":"glockenspiel_v0_pad_339","midi_source":""},{"t":193.755,"note":38,"dur":0.147,"vel":1.0,"inst":"clarinet_v0_plucked_119","midi_source":""},{"t":193.755,"note":62,"dur":0.147,"vel":1.0,"inst":"clarinet_v0_plucked_119","midi_source":""},{"t":193.902,"note":35,"dur":0.147,"vel":1.0,"inst":"glockenspiel_v0_pad_339","midi_source":""},{"t":193.902,"note":62,"dur":0.147,"vel":1.0,"inst":"clarinet_v0_plucked_119","midi_source":""},{"t":194.048,"note":38,"dur":0.147,"vel":1.0,"inst":"clarinet_v0_plucked_119","midi_source":""},{"t":194.048,"note":59,"dur":0.147,"vel":1.0,"inst":"glockenspiel_v0_pad_339","midi_source":""},{"t":194.195,"note":38,"dur":0.147,"vel":1.0,"inst":"clarinet_v0_plucked_119","midi_source":""},{"t":194.195,"note":59,"dur":0.147,"vel":1.0,"inst":"glockenspiel_v0_pad_339","midi_source":""},{"t":194.341,"note":35,"dur":0.147,"vel":1.0,"inst":"glockenspiel_v0_pad_339","midi_source":""},{"t":194.341,"note":54,"dur":0.147,"vel":1.0,"inst":"clarinet_v0_plucked_119","midi_source":""},{"t":194.488,"note":40,"dur":0.147,"vel":1.0,"inst":"clarinet_v0_plucked_119","midi_source":""},{"t":194.488,"note":59,"dur":0.147,"vel":1.0,"inst":"glockenspiel_v0_pad_339","midi_source":""},{"t":194.634,"note":38,"dur":0.147,"vel":1.0,"inst":"clarinet_v0_plucked_119","midi_source":""},{"t":194.634,"note":50,"dur":0.147,"vel":1.0,"inst":"clarinet_v0_plucked_119","midi_source":""},{"t":194.781,"note":40,"dur":0.147,"vel":1.0,"inst":"clarinet_v0_plucked_119","midi_source":""},{"t":194.781,"note":57,"dur":0.147,"vel":1.0,"inst":"glockenspiel_v0_pad_339","midi_source":""},{"t":194.927,"note":38,"dur":0.147,"vel":1.0,"inst":"clarinet_v0_plucked_119","midi_source":""},{"t":194.927,"note":57,"dur":0.147,"vel":1.0,"inst":"glockenspiel_v0_pad_339","midi_source":""},{"t":195.074,"note":38,"dur":0.147,"vel":1.0,"inst":"clarinet_v0_plucked_119","midi_source":""},{"t":195.074,"note":59,"dur":0.147,"vel":1.0,"inst":"glockenspiel_v0_pad_339","midi_source":""},{"t":195.221,"note":35,"dur":0.147,"vel":1.0,"inst":"glockenspiel_v0_pad_339","midi_source":""},{"t":195.221,"note":50,"dur":0.147,"vel":1.0,"inst":"clarinet_v0_plucked_119","midi_source":""},{"t":195.367,"note":38,"dur":0.293,"vel":1.0,"inst":"clarinet_v0_plucked_119","midi_source":""},{"t":195.367,"note":57,"dur":0.147,"vel":1.0,"inst":"glockenspiel_v0_pad_339","midi_source":""},{"t":195.514,"note":59,"dur":0.147,"vel":1.0,"inst":"glockenspiel_v0_pad_339","midi_source":""},{"t":195.66,"note":45,"dur":0.293,"vel":1.0,"inst":"glockenspiel_v0_pad_339","midi_source":""},{"t":195.66,"note":62,"dur":0.147,"vel":1.0,"inst":"clarinet_v0_plucked_119","midi_source":""},{"t":195.807,"note":52,"dur":0.147,"vel":1.0,"inst":"clarinet_v0_plucked_119","midi_source":""},{"t":195.953,"note":42,"dur":0.293,"vel":1.0,"inst":"clarinet_v0_plucked_119","midi_source":""},{"t":195.953,"note":59,"dur":0.147,"vel":1.0,"inst":"glockenspiel_v0_pad_339","midi_source":""},{"t":196.1,"note":59,"dur":0.147,"vel":1.0,"inst":"glockenspiel_v0_pad_339","midi_source":""},{"t":196.246,"note":40,"dur":0.293,"vel":1.0,"inst":"clarinet_v0_plucked_119","midi_source":""},{"t":196.246,"note":62,"dur":0.147,"vel":1.0,"inst":"clarinet_v0_plucked_119","midi_source":""},{"t":196.393,"note":54,"dur":0.147,"vel":1.0,"inst":"clarinet_v0_plucked_119","midi_source":""},{"t":196.539,"note":38,"dur":0.147,"vel":1.0,"inst":"clarinet_v0_plucked_119","midi_source":""},{"t":196.539,"note":59,"dur":0.147,"vel":1.0,"inst":"glockenspiel_v0_pad_339","midi_source":""},{"t":196.686,"note":38,"dur":0.147,"vel":1.0,"inst":"clarinet_v0_plucked_119","midi_source":""},{"t":196.686,"note":62,"dur":0.147,"vel":1.0,"inst":"clarinet_v0_plucked_119","midi_source":""},{"t":196.832,"note":35,"dur":0.147,"vel":1.0,"inst":"glockenspiel_v0_pad_339","midi_source":""},{"t":196.832,"note":62,"dur":0.147,"vel":1.0,"inst":"clarinet_v0_plucked_119","midi_source":""},{"t":196.979,"note":38,"dur":0.147,"vel":1.0,"inst":"clarinet_v0_plucked_119","midi_source":""},{"t":196.979,"note":59,"dur":0.147,"vel":1.0,"inst":"glockenspiel_v0_pad_339","midi_source":""},{"t":197.126,"note":38,"dur":0.147,"vel":1.0,"inst":"clarinet_v0_plucked_119","midi_source":""},{"t":197.126,"note":59,"dur":0.147,"vel":1.0,"inst":"glockenspiel_v0_pad_339","midi_source":""},{"t":197.272,"note":35,"dur":0.147,"vel":1.0,"inst":"glockenspiel_v0_pad_339","midi_source":""},{"t":197.272,"note":54,"dur":0.147,"vel":1.0,"inst":"clarinet_v0_plucked_119","midi_source":""},{"t":197.419,"note":40,"dur":0.147,"vel":1.0,"inst":"clarinet_v0_plucked_119","midi_source":""},{"t":197.419,"note":59,"dur":0.147,"vel":1.0,"inst":"glockenspiel_v0_pad_339","midi_source":""},{"t":197.565,"note":38,"dur":0.147,"vel":1.0,"inst":"clarinet_v0_plucked_119","midi_source":""},{"t":197.565,"note":50,"dur":0.147,"vel":1.0,"inst":"clarinet_v0_plucked_119","midi_source":""},{"t":197.712,"note":40,"dur":0.147,"vel":1.0,"inst":"clarinet_v0_plucked_119","midi_source":""},{"t":197.712,"note":57,"dur":0.147,"vel":1.0,"inst":"glockenspiel_v0_pad_339","midi_source":""},{"t":197.858,"note":38,"dur":0.147,"vel":1.0,"inst":"clarinet_v0_plucked_119","midi_source":""},{"t":197.858,"note":57,"dur":0.147,"vel":1.0,"inst":"glockenspiel_v0_pad_339","midi_source":""},{"t":198.005,"note":38,"dur":0.147,"vel":1.0,"inst":"clarinet_v0_plucked_119","midi_source":""},{"t":198.005,"note":59,"dur":0.147,"vel":1.0,"inst":"glockenspiel_v0_pad_339","midi_source":""},{"t":198.151,"note":35,"dur":0.147,"vel":1.0,"inst":"glockenspiel_v0_pad_339","midi_source":""},{"t":198.151,"note":50,"dur":0.147,"vel":1.0,"inst":"clarinet_v0_plucked_119","midi_source":""},{"t":198.298,"note":38,"dur":0.293,"vel":1.0,"inst":"clarinet_v0_plucked_119","midi_source":""},{"t":198.298,"note":57,"dur":0.147,"vel":1.0,"inst":"glockenspiel_v0_pad_339","midi_source":""},{"t":198.444,"note":59,"dur":0.147,"vel":1.0,"inst":"glockenspiel_v0_pad_339","midi_source":""},{"t":198.591,"note":45,"dur":0.293,"vel":1.0,"inst":"glockenspiel_v0_pad_339","midi_source":""},{"t":198.591,"note":62,"dur":0.147,"vel":1.0,"inst":"clarinet_v0_plucked_119","midi_source":""},{"t":198.738,"note":52,"dur":0.147,"vel":1.0,"inst":"clarinet_v0_plucked_119","midi_source":""},{"t":198.884,"note":42,"dur":0.293,"vel":1.0,"inst":"clarinet_v0_plucked_119","midi_source":""},{"t":198.884,"note":59,"dur":0.147,"vel":1.0,"inst":"glockenspiel_v0_pad_339","midi_source":""},{"t":199.031,"note":59,"dur":0.147,"vel":1.0,"inst":"glockenspiel_v0_pad_339","midi_source":""},{"t":199.177,"note":40,"dur":0.293,"vel":1.0,"inst":"clarinet_v0_plucked_119","midi_source":""},{"t":199.177,"note":62,"dur":0.147,"vel":1.0,"inst":"clarinet_v0_plucked_119","midi_source":""},{"t":199.324,"note":54,"dur":0.147,"vel":1.0,"inst":"clarinet_v0_plucked_119","midi_source":""},{"t":199.47,"note":38,"dur":0.147,"vel":1.0,"inst":"clarinet_v0_plucked_119","midi_source":""},{"t":199.47,"note":59,"dur":0.147,"vel":1.0,"inst":"glockenspiel_v0_pad_339","midi_source":""},{"t":199.617,"note":38,"dur":0.147,"vel":1.0,"inst":"clarinet_v0_plucked_119","midi_source":""},{"t":199.617,"note":62,"dur":0.147,"vel":1.0,"inst":"clarinet_v0_plucked_119","midi_source":""},{"t":199.763,"note":35,"dur":0.147,"vel":1.0,"inst":"glockenspiel_v0_pad_339","midi_source":""},{"t":199.763,"note":62,"dur":0.147,"vel":1.0,"inst":"clarinet_v0_plucked_119","midi_source":""},{"t":199.91,"note":38,"dur":0.147,"vel":1.0,"inst":"clarinet_v0_plucked_119","midi_source":""},{"t":199.91,"note":59,"dur":0.147,"vel":1.0,"inst":"glockenspiel_v0_pad_339","midi_source":""},{"t":200.056,"note":38,"dur":0.147,"vel":1.0,"inst":"clarinet_v0_plucked_119","midi_source":""},{"t":200.056,"note":59,"dur":0.147,"vel":1.0,"inst":"glockenspiel_v0_pad_339","midi_source":""},{"t":200.203,"note":35,"dur":0.147,"vel":1.0,"inst":"glockenspiel_v0_pad_339","midi_source":""},{"t":200.203,"note":54,"dur":0.147,"vel":1.0,"inst":"clarinet_v0_plucked_119","midi_source":""},{"t":200.349,"note":40,"dur":0.147,"vel":1.0,"inst":"clarinet_v0_plucked_119","midi_source":""},{"t":200.349,"note":59,"dur":0.147,"vel":1.0,"inst":"glockenspiel_v0_pad_339","midi_source":""},{"t":200.496,"note":38,"dur":0.147,"vel":1.0,"inst":"clarinet_v0_plucked_119","midi_source":""},{"t":200.496,"note":50,"dur":0.147,"vel":1.0,"inst":"clarinet_v0_plucked_119","midi_source":""},{"t":200.643,"note":40,"dur":0.147,"vel":1.0,"inst":"clarinet_v0_plucked_119","midi_source":""},{"t":200.643,"note":57,"dur":0.147,"vel":1.0,"inst":"glockenspiel_v0_pad_339","midi_source":""},{"t":200.789,"note":38,"dur":0.147,"vel":1.0,"inst":"clarinet_v0_plucked_119","midi_source":""},{"t":200.789,"note":57,"dur":0.147,"vel":1.0,"inst":"glockenspiel_v0_pad_339","midi_source":""},{"t":200.936,"note":38,"dur":0.147,"vel":1.0,"inst":"clarinet_v0_plucked_119","midi_source":""},{"t":200.936,"note":59,"dur":0.147,"vel":1.0,"inst":"glockenspiel_v0_pad_339","midi_source":""},{"t":201.082,"note":35,"dur":0.147,"vel":1.0,"inst":"glockenspiel_v0_pad_339","midi_source":""},{"t":201.082,"note":50,"dur":0.147,"vel":1.0,"inst":"clarinet_v0_plucked_119","midi_source":""},{"t":201.229,"note":38,"dur":0.293,"vel":1.0,"inst":"clarinet_v0_plucked_119","midi_source":""},{"t":201.229,"note":57,"dur":0.147,"vel":1.0,"inst":"glockenspiel_v0_pad_339","midi_source":""},{"t":201.375,"note":59,"dur":0.147,"vel":1.0,"inst":"glockenspiel_v0_pad_339","midi_source":""},{"t":201.522,"note":45,"dur":0.293,"vel":1.0,"inst":"glockenspiel_v0_pad_339","midi_source":""},{"t":201.522,"note":62,"dur":0.147,"vel":1.0,"inst":"clarinet_v0_plucked_119","midi_source":""},{"t":201.668,"note":52,"dur":0.147,"vel":1.0,"inst":"clarinet_v0_plucked_119","midi_source":""},{"t":201.815,"note":42,"dur":0.293,"vel":1.0,"inst":"clarinet_v0_plucked_119","midi_source":""},{"t":201.815,"note":59,"dur":0.147,"vel":1.0,"inst":"glockenspiel_v0_pad_339","midi_source":""},{"t":201.961,"note":59,"dur":0.147,"vel":1.0,"inst":"glockenspiel_v0_pad_339","midi_source":""},{"t":202.108,"note":40,"dur":0.293,"vel":1.0,"inst":"clarinet_v0_plucked_119","midi_source":""},{"t":202.108,"note":62,"dur":0.147,"vel":1.0,"inst":"clarinet_v0_plucked_119","midi_source":""},{"t":202.254,"note":54,"dur":0.147,"vel":1.0,"inst":"clarinet_v0_plucked_119","midi_source":""},{"t":202.401,"note":38,"dur":0.147,"vel":1.0,"inst":"clarinet_v0_plucked_119","midi_source":""},{"t":202.401,"note":59,"dur":0.147,"vel":1.0,"inst":"glockenspiel_v0_pad_339","midi_source":""},{"t":202.548,"note":38,"dur":0.147,"vel":1.0,"inst":"clarinet_v0_plucked_119","midi_source":""},{"t":202.548,"note":62,"dur":0.147,"vel":1.0,"inst":"clarinet_v0_plucked_119","midi_source":""},{"t":202.694,"note":35,"dur":0.147,"vel":1.0,"inst":"glockenspiel_v0_pad_339","midi_source":""},{"t":202.694,"note":62,"dur":0.147,"vel":1.0,"inst":"clarinet_v0_plucked_119","midi_source":""},{"t":202.841,"note":38,"dur":0.147,"vel":1.0,"inst":"clarinet_v0_plucked_119","midi_source":""},{"t":202.841,"note":59,"dur":0.147,"vel":1.0,"inst":"glockenspiel_v0_pad_339","midi_source":""},{"t":202.987,"note":38,"dur":0.147,"vel":1.0,"inst":"clarinet_v0_plucked_119","midi_source":""},{"t":202.987,"note":59,"dur":0.147,"vel":1.0,"inst":"glockenspiel_v0_pad_339","midi_source":""},{"t":203.134,"note":35,"dur":0.147,"vel":1.0,"inst":"glockenspiel_v0_pad_339","midi_source":""},{"t":203.134,"note":54,"dur":0.147,"vel":1.0,"inst":"clarinet_v0_plucked_119","midi_source":""},{"t":203.28,"note":40,"dur":0.147,"vel":1.0,"inst":"clarinet_v0_plucked_119","midi_source":""},{"t":203.28,"note":59,"dur":0.147,"vel":1.0,"inst":"glockenspiel_v0_pad_339","midi_source":""},{"t":203.427,"note":38,"dur":0.147,"vel":1.0,"inst":"clarinet_v0_plucked_119","midi_source":""},{"t":203.427,"note":50,"dur":0.147,"vel":1.0,"inst":"clarinet_v0_plucked_119","midi_source":""},{"t":203.573,"note":40,"dur":0.147,"vel":1.0,"inst":"clarinet_v0_plucked_119","midi_source":""},{"t":203.573,"note":57,"dur":0.147,"vel":1.0,"inst":"glockenspiel_v0_pad_339","midi_source":""},{"t":203.72,"note":38,"dur":0.147,"vel":1.0,"inst":"clarinet_v0_plucked_119","midi_source":""},{"t":203.72,"note":57,"dur":0.147,"vel":1.0,"inst":"glockenspiel_v0_pad_339","midi_source":""},{"t":203.866,"note":38,"dur":0.147,"vel":1.0,"inst":"clarinet_v0_plucked_119","midi_source":""},{"t":203.866,"note":59,"dur":0.147,"vel":1.0,"inst":"glockenspiel_v0_pad_339","midi_source":""},{"t":204.013,"note":35,"dur":0.147,"vel":1.0,"inst":"glockenspiel_v0_pad_339","midi_source":""},{"t":204.013,"note":50,"dur":0.147,"vel":1.0,"inst":"clarinet_v0_plucked_119","midi_source":""},{"t":204.159,"note":38,"dur":0.293,"vel":1.0,"inst":"clarinet_v0_plucked_119","midi_source":""},{"t":204.159,"note":57,"dur":0.147,"vel":1.0,"inst":"glockenspiel_v0_pad_339","midi_source":""},{"t":204.306,"note":59,"dur":0.147,"vel":1.0,"inst":"glockenspiel_v0_pad_339","midi_source":""},{"t":204.453,"note":45,"dur":0.293,"vel":1.0,"inst":"glockenspiel_v0_pad_339","midi_source":""},{"t":204.453,"note":62,"dur":0.147,"vel":1.0,"inst":"clarinet_v0_plucked_119","midi_source":""},{"t":204.599,"note":52,"dur":0.147,"vel":1.0,"inst":"clarinet_v0_plucked_119","midi_source":""},{"t":204.746,"note":42,"dur":0.293,"vel":1.0,"inst":"clarinet_v0_plucked_119","midi_source":""},{"t":204.746,"note":59,"dur":0.147,"vel":1.0,"inst":"glockenspiel_v0_pad_339","midi_source":""},{"t":204.892,"note":59,"dur":0.147,"vel":1.0,"inst":"glockenspiel_v0_pad_339","midi_source":""},{"t":205.039,"note":40,"dur":0.293,"vel":1.0,"inst":"clarinet_v0_plucked_119","midi_source":""},{"t":205.039,"note":62,"dur":0.147,"vel":1.0,"inst":"clarinet_v0_plucked_119","midi_source":""},{"t":205.185,"note":54,"dur":0.147,"vel":1.0,"inst":"clarinet_v0_plucked_119","midi_source":""},{"t":205.332,"note":38,"dur":0.147,"vel":1.0,"inst":"clarinet_v0_plucked_119","midi_source":""},{"t":205.332,"note":59,"dur":0.147,"vel":1.0,"inst":"glockenspiel_v0_pad_339","midi_source":""},{"t":205.478,"note":38,"dur":0.147,"vel":1.0,"inst":"clarinet_v0_plucked_119","midi_source":""},{"t":205.478,"note":62,"dur":0.147,"vel":1.0,"inst":"clarinet_v0_plucked_119","midi_source":""},{"t":205.625,"note":35,"dur":0.147,"vel":1.0,"inst":"glockenspiel_v0_pad_339","midi_source":""},{"t":205.625,"note":62,"dur":0.147,"vel":1.0,"inst":"clarinet_v0_plucked_119","midi_source":""},{"t":205.771,"note":38,"dur":0.147,"vel":1.0,"inst":"clarinet_v0_plucked_119","midi_source":""},{"t":205.771,"note":59,"dur":0.147,"vel":1.0,"inst":"glockenspiel_v0_pad_339","midi_source":""},{"t":205.918,"note":38,"dur":0.147,"vel":1.0,"inst":"clarinet_v0_plucked_119","midi_source":""},{"t":205.918,"note":59,"dur":0.147,"vel":1.0,"inst":"glockenspiel_v0_pad_339","midi_source":""},{"t":206.065,"note":35,"dur":0.147,"vel":1.0,"inst":"glockenspiel_v0_pad_339","midi_source":""},{"t":206.065,"note":54,"dur":0.147,"vel":1.0,"inst":"clarinet_v0_plucked_119","midi_source":""},{"t":206.211,"note":40,"dur":0.147,"vel":1.0,"inst":"clarinet_v0_plucked_119","midi_source":""},{"t":206.211,"note":59,"dur":0.147,"vel":1.0,"inst":"glockenspiel_v0_pad_339","midi_source":""},{"t":206.358,"note":38,"dur":0.147,"vel":1.0,"inst":"clarinet_v0_plucked_119","midi_source":""},{"t":206.358,"note":50,"dur":0.147,"vel":1.0,"inst":"clarinet_v0_plucked_119","midi_source":""},{"t":206.504,"note":40,"dur":0.147,"vel":1.0,"inst":"clarinet_v0_plucked_119","midi_source":""},{"t":206.504,"note":57,"dur":0.147,"vel":1.0,"inst":"glockenspiel_v0_pad_339","midi_source":""},{"t":206.651,"note":38,"dur":0.147,"vel":1.0,"inst":"clarinet_v0_plucked_119","midi_source":""},{"t":206.651,"note":57,"dur":0.147,"vel":1.0,"inst":"glockenspiel_v0_pad_339","midi_source":""},{"t":206.797,"note":38,"dur":0.147,"vel":1.0,"inst":"clarinet_v0_plucked_119","midi_source":""},{"t":206.797,"note":59,"dur":0.147,"vel":1.0,"inst":"glockenspiel_v0_pad_339","midi_source":""},{"t":206.944,"note":35,"dur":0.147,"vel":1.0,"inst":"glockenspiel_v0_pad_339","midi_source":""},{"t":206.944,"note":50,"dur":0.147,"vel":1.0,"inst":"clarinet_v0_plucked_119","midi_source":""},{"t":207.09,"note":38,"dur":0.293,"vel":1.0,"inst":"clarinet_v0_plucked_119","midi_source":""},{"t":207.09,"note":57,"dur":0.147,"vel":1.0,"inst":"glockenspiel_v0_pad_339","midi_source":""},{"t":207.237,"note":59,"dur":0.147,"vel":1.0,"inst":"glockenspiel_v0_pad_339","midi_source":""},{"t":207.383,"note":45,"dur":0.293,"vel":1.0,"inst":"glockenspiel_v0_pad_339","midi_source":""},{"t":207.383,"note":62,"dur":0.147,"vel":1.0,"inst":"clarinet_v0_plucked_119","midi_source":""},{"t":207.53,"note":52,"dur":0.147,"vel":1.0,"inst":"clarinet_v0_plucked_119","midi_source":""},{"t":207.676,"note":42,"dur":0.293,"vel":1.0,"inst":"clarinet_v0_plucked_119","midi_source":""},{"t":207.676,"note":59,"dur":0.147,"vel":1.0,"inst":"glockenspiel_v0_pad_339","midi_source":""},{"t":207.823,"note":59,"dur":0.147,"vel":1.0,"inst":"glockenspiel_v0_pad_339","midi_source":""},{"t":207.97,"note":40,"dur":0.293,"vel":1.0,"inst":"clarinet_v0_plucked_119","midi_source":""},{"t":207.97,"note":62,"dur":0.147,"vel":1.0,"inst":"clarinet_v0_plucked_119","midi_source":""},{"t":208.116,"note":54,"dur":0.147,"vel":1.0,"inst":"clarinet_v0_plucked_119","midi_source":""},{"t":208.263,"note":38,"dur":0.147,"vel":1.0,"inst":"clarinet_v0_plucked_119","midi_source":""},{"t":208.263,"note":59,"dur":0.147,"vel":1.0,"inst":"glockenspiel_v0_pad_339","midi_source":""},{"t":208.409,"note":38,"dur":0.147,"vel":1.0,"inst":"clarinet_v0_plucked_119","midi_source":""},{"t":208.409,"note":62,"dur":0.147,"vel":1.0,"inst":"clarinet_v0_plucked_119","midi_source":""},{"t":208.556,"note":35,"dur":0.147,"vel":1.0,"inst":"glockenspiel_v0_pad_339","midi_source":""},{"t":208.556,"note":62,"dur":0.147,"vel":1.0,"inst":"clarinet_v0_plucked_119","midi_source":""},{"t":208.702,"note":38,"dur":0.147,"vel":1.0,"inst":"clarinet_v0_plucked_119","midi_source":""},{"t":208.702,"note":59,"dur":0.147,"vel":1.0,"inst":"glockenspiel_v0_pad_339","midi_source":""},{"t":208.849,"note":38,"dur":0.147,"vel":1.0,"inst":"clarinet_v0_plucked_119","midi_source":""},{"t":208.849,"note":59,"dur":0.147,"vel":1.0,"inst":"glockenspiel_v0_pad_339","midi_source":""},{"t":208.995,"note":35,"dur":0.147,"vel":1.0,"inst":"glockenspiel_v0_pad_339","midi_source":""},{"t":208.995,"note":54,"dur":0.147,"vel":1.0,"inst":"clarinet_v0_plucked_119","midi_source":""},{"t":209.142,"note":40,"dur":0.147,"vel":1.0,"inst":"clarinet_v0_plucked_119","midi_source":""},{"t":209.142,"note":59,"dur":0.147,"vel":1.0,"inst":"glockenspiel_v0_pad_339","midi_source":""},{"t":209.288,"note":38,"dur":0.147,"vel":1.0,"inst":"clarinet_v0_plucked_119","midi_source":""},{"t":209.288,"note":50,"dur":0.147,"vel":1.0,"inst":"clarinet_v0_plucked_119","midi_source":""},{"t":209.435,"note":40,"dur":0.147,"vel":1.0,"inst":"clarinet_v0_plucked_119","midi_source":""},{"t":209.435,"note":57,"dur":0.147,"vel":1.0,"inst":"glockenspiel_v0_pad_339","midi_source":""},{"t":209.581,"note":38,"dur":0.147,"vel":1.0,"inst":"clarinet_v0_plucked_119","midi_source":""},{"t":209.581,"note":57,"dur":0.147,"vel":1.0,"inst":"glockenspiel_v0_pad_339","midi_source":""},{"t":209.728,"note":38,"dur":0.147,"vel":1.0,"inst":"clarinet_v0_plucked_119","midi_source":""},{"t":209.728,"note":59,"dur":0.147,"vel":1.0,"inst":"glockenspiel_v0_pad_339","midi_source":""},{"t":209.875,"note":35,"dur":0.147,"vel":1.0,"inst":"glockenspiel_v0_pad_339","midi_source":""},{"t":209.875,"note":50,"dur":0.147,"vel":1.0,"inst":"clarinet_v0_plucked_119","midi_source":""},{"t":210.021,"note":38,"dur":0.293,"vel":1.0,"inst":"clarinet_v0_plucked_119","midi_source":""},{"t":210.021,"note":57,"dur":0.147,"vel":1.0,"inst":"glockenspiel_v0_pad_339","midi_source":""},{"t":210.168,"note":59,"dur":0.147,"vel":1.0,"inst":"glockenspiel_v0_pad_339","midi_source":""},{"t":210.314,"note":45,"dur":0.293,"vel":1.0,"inst":"glockenspiel_v0_pad_339","midi_source":""},{"t":210.314,"note":62,"dur":0.147,"vel":1.0,"inst":"clarinet_v0_plucked_119","midi_source":""},{"t":210.461,"note":52,"dur":0.147,"vel":1.0,"inst":"clarinet_v0_plucked_119","midi_source":""},{"t":210.607,"note":42,"dur":0.293,"vel":1.0,"inst":"clarinet_v0_plucked_119","midi_source":""},{"t":210.607,"note":59,"dur":0.147,"vel":1.0,"inst":"glockenspiel_v0_pad_339","midi_source":""},{"t":210.754,"note":59,"dur":0.147,"vel":1.0,"inst":"glockenspiel_v0_pad_339","midi_source":""},{"t":210.9,"note":40,"dur":0.293,"vel":1.0,"inst":"clarinet_v0_plucked_119","midi_source":""},{"t":210.9,"note":62,"dur":0.147,"vel":1.0,"inst":"clarinet_v0_plucked_119","midi_source":""},{"t":211.047,"note":54,"dur":0.147,"vel":1.0,"inst":"clarinet_v0_plucked_119","midi_source":""},{"t":211.193,"note":38,"dur":0.147,"vel":1.0,"inst":"clarinet_v0_plucked_119","midi_source":""},{"t":211.193,"note":59,"dur":0.147,"vel":1.0,"inst":"glockenspiel_v0_pad_339","midi_source":""},{"t":211.34,"note":38,"dur":0.147,"vel":1.0,"inst":"clarinet_v0_plucked_119","midi_source":""},{"t":211.34,"note":62,"dur":0.147,"vel":1.0,"inst":"clarinet_v0_plucked_119","midi_source":""},{"t":211.486,"note":35,"dur":0.147,"vel":1.0,"inst":"glockenspiel_v0_pad_339","midi_source":""},{"t":211.486,"note":62,"dur":0.147,"vel":1.0,"inst":"clarinet_v0_plucked_119","midi_source":""},{"t":211.633,"note":38,"dur":0.147,"vel":1.0,"inst":"clarinet_v0_plucked_119","midi_source":""},{"t":211.633,"note":59,"dur":0.147,"vel":1.0,"inst":"glockenspiel_v0_pad_339","midi_source":""},{"t":211.78,"note":38,"dur":0.147,"vel":1.0,"inst":"clarinet_v0_plucked_119","midi_source":""},{"t":211.78,"note":59,"dur":0.147,"vel":1.0,"inst":"glockenspiel_v0_pad_339","midi_source":""},{"t":211.926,"note":35,"dur":0.147,"vel":1.0,"inst":"glockenspiel_v0_pad_339","midi_source":""},{"t":211.926,"note":54,"dur":0.147,"vel":1.0,"inst":"clarinet_v0_plucked_119","midi_source":""},{"t":212.073,"note":40,"dur":0.147,"vel":1.0,"inst":"clarinet_v0_plucked_119","midi_source":""},{"t":212.073,"note":59,"dur":0.147,"vel":1.0,"inst":"glockenspiel_v0_pad_339","midi_source":""},{"t":212.219,"note":38,"dur":0.147,"vel":1.0,"inst":"clarinet_v0_plucked_119","midi_source":""},{"t":212.219,"note":50,"dur":0.147,"vel":1.0,"inst":"clarinet_v0_plucked_119","midi_source":""},{"t":212.366,"note":40,"dur":0.147,"vel":1.0,"inst":"clarinet_v0_plucked_119","midi_source":""},{"t":212.366,"note":57,"dur":0.147,"vel":1.0,"inst":"glockenspiel_v0_pad_339","midi_source":""},{"t":212.512,"note":38,"dur":0.147,"vel":1.0,"inst":"clarinet_v0_plucked_119","midi_source":""},{"t":212.512,"note":57,"dur":0.147,"vel":1.0,"inst":"glockenspiel_v0_pad_339","midi_source":""},{"t":212.659,"note":38,"dur":0.147,"vel":1.0,"inst":"clarinet_v0_plucked_119","midi_source":""},{"t":212.659,"note":59,"dur":0.147,"vel":1.0,"inst":"glockenspiel_v0_pad_339","midi_source":""},{"t":212.805,"note":35,"dur":0.147,"vel":1.0,"inst":"glockenspiel_v0_pad_339","midi_source":""},{"t":212.805,"note":50,"dur":0.147,"vel":1.0,"inst":"clarinet_v0_plucked_119","midi_source":""},{"t":212.952,"note":38,"dur":0.293,"vel":1.0,"inst":"clarinet_v0_plucked_119","midi_source":""},{"t":212.952,"note":57,"dur":0.147,"vel":1.0,"inst":"glockenspiel_v0_pad_339","midi_source":""},{"t":213.098,"note":59,"dur":0.147,"vel":1.0,"inst":"glockenspiel_v0_pad_339","midi_source":""},{"t":213.245,"note":45,"dur":0.293,"vel":1.0,"inst":"glockenspiel_v0_pad_339","midi_source":""},{"t":213.245,"note":62,"dur":0.147,"vel":1.0,"inst":"clarinet_v0_plucked_119","midi_source":""},{"t":213.392,"note":52,"dur":0.147,"vel":1.0,"inst":"clarinet_v0_plucked_119","midi_source":""},{"t":213.538,"note":42,"dur":0.293,"vel":1.0,"inst":"clarinet_v0_plucked_119","midi_source":""},{"t":213.538,"note":59,"dur":0.147,"vel":1.0,"inst":"glockenspiel_v0_pad_339","midi_source":""},{"t":213.685,"note":59,"dur":0.147,"vel":1.0,"inst":"glockenspiel_v0_pad_339","midi_source":""},{"t":213.831,"note":40,"dur":0.293,"vel":1.0,"inst":"clarinet_v0_plucked_119","midi_source":""},{"t":213.831,"note":62,"dur":0.147,"vel":1.0,"inst":"clarinet_v0_plucked_119","midi_source":""},{"t":213.978,"note":54,"dur":0.147,"vel":1.0,"inst":"clarinet_v0_plucked_119","midi_source":""},{"t":214.124,"note":38,"dur":0.147,"vel":1.0,"inst":"clarinet_v0_plucked_119","midi_source":""},{"t":214.124,"note":59,"dur":0.147,"vel":1.0,"inst":"glockenspiel_v0_pad_339","midi_source":""},{"t":214.271,"note":38,"dur":0.147,"vel":1.0,"inst":"clarinet_v0_plucked_119","midi_source":""},{"t":214.271,"note":62,"dur":0.147,"vel":1.0,"inst":"clarinet_v0_plucked_119","midi_source":""},{"t":214.417,"note":35,"dur":0.147,"vel":1.0,"inst":"glockenspiel_v0_pad_339","midi_source":""},{"t":214.417,"note":62,"dur":0.147,"vel":1.0,"inst":"clarinet_v0_plucked_119","midi_source":""},{"t":214.564,"note":38,"dur":0.147,"vel":1.0,"inst":"clarinet_v0_plucked_119","midi_source":""},{"t":214.564,"note":59,"dur":0.147,"vel":1.0,"inst":"glockenspiel_v0_pad_339","midi_source":""},{"t":214.71,"note":38,"dur":0.147,"vel":1.0,"inst":"clarinet_v0_plucked_119","midi_source":""},{"t":214.71,"note":59,"dur":0.147,"vel":1.0,"inst":"glockenspiel_v0_pad_339","midi_source":""},{"t":214.857,"note":35,"dur":0.147,"vel":1.0,"inst":"glockenspiel_v0_pad_339","midi_source":""},{"t":214.857,"note":54,"dur":0.147,"vel":1.0,"inst":"clarinet_v0_plucked_119","midi_source":""},{"t":215.003,"note":40,"dur":0.147,"vel":1.0,"inst":"clarinet_v0_plucked_119","midi_source":""},{"t":215.003,"note":59,"dur":0.147,"vel":1.0,"inst":"glockenspiel_v0_pad_339","midi_source":""},{"t":215.15,"note":38,"dur":0.147,"vel":1.0,"inst":"clarinet_v0_plucked_119","midi_source":""},{"t":215.15,"note":50,"dur":0.147,"vel":1.0,"inst":"clarinet_v0_plucked_119","midi_source":""},{"t":215.297,"note":40,"dur":0.147,"vel":1.0,"inst":"clarinet_v0_plucked_119","midi_source":""},{"t":215.297,"note":57,"dur":0.147,"vel":1.0,"inst":"glockenspiel_v0_pad_339","midi_source":""},{"t":215.443,"note":38,"dur":0.147,"vel":1.0,"inst":"clarinet_v0_plucked_119","midi_source":""},{"t":215.443,"note":57,"dur":0.147,"vel":1.0,"inst":"glockenspiel_v0_pad_339","midi_source":""},{"t":215.59,"note":38,"dur":0.147,"vel":1.0,"inst":"clarinet_v0_plucked_119","midi_source":""},{"t":215.59,"note":59,"dur":0.147,"vel":1.0,"inst":"glockenspiel_v0_pad_339","midi_source":""},{"t":215.736,"note":35,"dur":0.147,"vel":1.0,"inst":"glockenspiel_v0_pad_339","midi_source":""},{"t":215.736,"note":50,"dur":0.147,"vel":1.0,"inst":"clarinet_v0_plucked_119","midi_source":""},{"t":215.883,"note":38,"dur":0.293,"vel":1.0,"inst":"clarinet_v0_plucked_119","midi_source":""},{"t":215.883,"note":57,"dur":0.147,"vel":1.0,"inst":"glockenspiel_v0_pad_339","midi_source":""},{"t":216.029,"note":59,"dur":0.147,"vel":1.0,"inst":"glockenspiel_v0_pad_339","midi_source":""},{"t":216.176,"note":45,"dur":0.293,"vel":1.0,"inst":"glockenspiel_v0_pad_339","midi_source":""},{"t":216.176,"note":62,"dur":0.147,"vel":1.0,"inst":"clarinet_v0_plucked_119","midi_source":""},{"t":216.322,"note":52,"dur":0.147,"vel":1.0,"inst":"clarinet_v0_plucked_119","midi_source":""},{"t":216.469,"note":42,"dur":0.293,"vel":1.0,"inst":"clarinet_v0_plucked_119","midi_source":""},{"t":216.469,"note":59,"dur":0.147,"vel":1.0,"inst":"glockenspiel_v0_pad_339","midi_source":""},{"t":216.615,"note":59,"dur":0.147,"vel":1.0,"inst":"glockenspiel_v0_pad_339","midi_source":""},{"t":216.762,"note":40,"dur":0.293,"vel":1.0,"inst":"clarinet_v0_plucked_119","midi_source":""},{"t":216.762,"note":62,"dur":0.147,"vel":1.0,"inst":"clarinet_v0_plucked_119","midi_source":""},{"t":216.908,"note":54,"dur":0.147,"vel":1.0,"inst":"clarinet_v0_plucked_119","midi_source":""},{"t":217.055,"note":38,"dur":0.147,"vel":1.0,"inst":"clarinet_v0_plucked_119","midi_source":""},{"t":217.055,"note":59,"dur":0.147,"vel":1.0,"inst":"glockenspiel_v0_pad_339","midi_source":""},{"t":217.202,"note":38,"dur":0.147,"vel":1.0,"inst":"clarinet_v0_plucked_119","midi_source":""},{"t":217.202,"note":62,"dur":0.147,"vel":1.0,"inst":"clarinet_v0_plucked_119","midi_source":""},{"t":217.348,"note":35,"dur":0.147,"vel":1.0,"inst":"glockenspiel_v0_pad_339","midi_source":""},{"t":217.348,"note":62,"dur":0.147,"vel":1.0,"inst":"clarinet_v0_plucked_119","midi_source":""},{"t":217.495,"note":38,"dur":0.147,"vel":1.0,"inst":"clarinet_v0_plucked_119","midi_source":""},{"t":217.495,"note":59,"dur":0.147,"vel":1.0,"inst":"glockenspiel_v0_pad_339","midi_source":""},{"t":217.641,"note":38,"dur":0.147,"vel":1.0,"inst":"clarinet_v0_plucked_119","midi_source":""},{"t":217.641,"note":59,"dur":0.147,"vel":1.0,"inst":"glockenspiel_v0_pad_339","midi_source":""},{"t":217.788,"note":35,"dur":0.147,"vel":1.0,"inst":"glockenspiel_v0_pad_339","midi_source":""},{"t":217.788,"note":54,"dur":0.147,"vel":1.0,"inst":"clarinet_v0_plucked_119","midi_source":""},{"t":217.934,"note":40,"dur":0.147,"vel":1.0,"inst":"clarinet_v0_plucked_119","midi_source":""},{"t":217.934,"note":59,"dur":0.147,"vel":1.0,"inst":"glockenspiel_v0_pad_339","midi_source":""},{"t":218.081,"note":38,"dur":0.147,"vel":1.0,"inst":"clarinet_v0_plucked_119","midi_source":""},{"t":218.081,"note":50,"dur":0.147,"vel":1.0,"inst":"clarinet_v0_plucked_119","midi_source":""},{"t":218.227,"note":40,"dur":0.147,"vel":1.0,"inst":"clarinet_v0_plucked_119","midi_source":""},{"t":218.227,"note":57,"dur":0.147,"vel":1.0,"inst":"glockenspiel_v0_pad_339","midi_source":""},{"t":218.374,"note":38,"dur":0.147,"vel":1.0,"inst":"clarinet_v0_plucked_119","midi_source":""},{"t":218.374,"note":57,"dur":0.147,"vel":1.0,"inst":"glockenspiel_v0_pad_339","midi_source":""},{"t":218.52,"note":38,"dur":0.147,"vel":1.0,"inst":"clarinet_v0_plucked_119","midi_source":""},{"t":218.52,"note":59,"dur":0.147,"vel":1.0,"inst":"glockenspiel_v0_pad_339","midi_source":""},{"t":218.667,"note":35,"dur":0.147,"vel":1.0,"inst":"glockenspiel_v0_pad_339","midi_source":""},{"t":218.667,"note":50,"dur":0.147,"vel":1.0,"inst":"clarinet_v0_plucked_119","midi_source":""},{"t":218.813,"note":38,"dur":0.293,"vel":1.0,"inst":"clarinet_v0_plucked_119","midi_source":""},{"t":218.813,"note":57,"dur":0.147,"vel":1.0,"inst":"glockenspiel_v0_pad_339","midi_source":""},{"t":218.96,"note":59,"dur":0.147,"vel":1.0,"inst":"glockenspiel_v0_pad_339","midi_source":""},{"t":219.107,"note":45,"dur":0.293,"vel":1.0,"inst":"glockenspiel_v0_pad_339","midi_source":""},{"t":219.107,"note":62,"dur":0.147,"vel":1.0,"inst":"clarinet_v0_plucked_119","midi_source":""},{"t":219.253,"note":52,"dur":0.147,"vel":1.0,"inst":"clarinet_v0_plucked_119","midi_source":""},{"t":219.4,"note":42,"dur":0.293,"vel":1.0,"inst":"clarinet_v0_plucked_119","midi_source":""},{"t":219.4,"note":59,"dur":0.147,"vel":1.0,"inst":"glockenspiel_v0_pad_339","midi_source":""},{"t":219.546,"note":59,"dur":0.147,"vel":1.0,"inst":"glockenspiel_v0_pad_339","midi_source":""},{"t":219.693,"note":40,"dur":0.293,"vel":1.0,"inst":"clarinet_v0_plucked_119","midi_source":""},{"t":219.693,"note":62,"dur":0.147,"vel":1.0,"inst":"clarinet_v0_plucked_119","midi_source":""},{"t":219.839,"note":54,"dur":0.147,"vel":1.0,"inst":"clarinet_v0_plucked_119","midi_source":""},{"t":219.986,"note":38,"dur":0.147,"vel":1.0,"inst":"clarinet_v0_plucked_119","midi_source":""},{"t":219.986,"note":59,"dur":0.147,"vel":1.0,"inst":"glockenspiel_v0_pad_339","midi_source":""},{"t":220.132,"note":38,"dur":0.147,"vel":1.0,"inst":"clarinet_v0_plucked_119","midi_source":""},{"t":220.132,"note":62,"dur":0.147,"vel":1.0,"inst":"clarinet_v0_plucked_119","midi_source":""},{"t":220.279,"note":35,"dur":0.147,"vel":1.0,"inst":"glockenspiel_v0_pad_339","midi_source":""},{"t":220.279,"note":62,"dur":0.147,"vel":1.0,"inst":"clarinet_v0_plucked_119","midi_source":""},{"t":220.425,"note":38,"dur":0.147,"vel":1.0,"inst":"clarinet_v0_plucked_119","midi_source":""},{"t":220.425,"note":59,"dur":0.147,"vel":1.0,"inst":"glockenspiel_v0_pad_339","midi_source":""},{"t":220.572,"note":38,"dur":0.147,"vel":1.0,"inst":"clarinet_v0_plucked_119","midi_source":""},{"t":220.572,"note":59,"dur":0.147,"vel":1.0,"inst":"glockenspiel_v0_pad_339","midi_source":""},{"t":220.719,"note":35,"dur":0.147,"vel":1.0,"inst":"glockenspiel_v0_pad_339","midi_source":""},{"t":220.719,"note":54,"dur":0.147,"vel":1.0,"inst":"clarinet_v0_plucked_119","midi_source":""},{"t":220.865,"note":40,"dur":0.147,"vel":1.0,"inst":"clarinet_v0_plucked_119","midi_source":""},{"t":220.865,"note":59,"dur":0.147,"vel":1.0,"inst":"glockenspiel_v0_pad_339","midi_source":""},{"t":221.012,"note":38,"dur":0.147,"vel":1.0,"inst":"clarinet_v0_plucked_119","midi_source":""},{"t":221.012,"note":50,"dur":0.147,"vel":1.0,"inst":"clarinet_v0_plucked_119","midi_source":""},{"t":221.158,"note":40,"dur":0.147,"vel":1.0,"inst":"clarinet_v0_plucked_119","midi_source":""},{"t":221.158,"note":57,"dur":0.147,"vel":1.0,"inst":"glockenspiel_v0_pad_339","midi_source":""},{"t":221.305,"note":38,"dur":0.147,"vel":1.0,"inst":"clarinet_v0_plucked_119","midi_source":""},{"t":221.305,"note":57,"dur":0.147,"vel":1.0,"inst":"glockenspiel_v0_pad_339","midi_source":""},{"t":221.451,"note":38,"dur":0.147,"vel":1.0,"inst":"clarinet_v0_plucked_119","midi_source":""},{"t":221.451,"note":59,"dur":0.147,"vel":1.0,"inst":"glockenspiel_v0_pad_339","midi_source":""},{"t":221.598,"note":35,"dur":0.147,"vel":1.0,"inst":"glockenspiel_v0_pad_339","midi_source":""},{"t":221.598,"note":50,"dur":0.147,"vel":1.0,"inst":"clarinet_v0_plucked_119","midi_source":""},{"t":221.744,"note":38,"dur":0.293,"vel":1.0,"inst":"clarinet_v0_plucked_119","midi_source":""},{"t":221.744,"note":57,"dur":0.147,"vel":1.0,"inst":"glockenspiel_v0_pad_339","midi_source":""},{"t":221.891,"note":59,"dur":0.147,"vel":1.0,"inst":"glockenspiel_v0_pad_339","midi_source":""},{"t":222.037,"note":45,"dur":0.293,"vel":1.0,"inst":"glockenspiel_v0_pad_339","midi_source":""},{"t":222.037,"note":62,"dur":0.147,"vel":1.0,"inst":"clarinet_v0_plucked_119","midi_source":""},{"t":222.184,"note":52,"dur":0.147,"vel":1.0,"inst":"clarinet_v0_plucked_119","midi_source":""},{"t":222.33,"note":42,"dur":0.293,"vel":1.0,"inst":"clarinet_v0_plucked_119","midi_source":""},{"t":222.33,"note":59,"dur":0.147,"vel":1.0,"inst":"glockenspiel_v0_pad_339","midi_source":""},{"t":222.477,"note":59,"dur":0.147,"vel":1.0,"inst":"glockenspiel_v0_pad_339","midi_source":""},{"t":222.624,"note":40,"dur":0.293,"vel":1.0,"inst":"clarinet_v0_plucked_119","midi_source":""},{"t":222.624,"note":62,"dur":0.147,"vel":1.0,"inst":"clarinet_v0_plucked_119","midi_source":""},{"t":222.77,"note":54,"dur":0.147,"vel":1.0,"inst":"clarinet_v0_plucked_119","midi_source":""},{"t":222.917,"note":38,"dur":0.147,"vel":1.0,"inst":"clarinet_v0_plucked_119","midi_source":""},{"t":222.917,"note":59,"dur":0.147,"vel":1.0,"inst":"glockenspiel_v0_pad_339","midi_source":""},{"t":223.063,"note":38,"dur":0.147,"vel":1.0,"inst":"clarinet_v0_plucked_119","midi_source":""},{"t":223.063,"note":62,"dur":0.147,"vel":1.0,"inst":"clarinet_v0_plucked_119","midi_source":""},{"t":223.21,"note":35,"dur":0.147,"vel":1.0,"inst":"glockenspiel_v0_pad_339","midi_source":""},{"t":223.21,"note":62,"dur":0.147,"vel":1.0,"inst":"clarinet_v0_plucked_119","midi_source":""},{"t":223.356,"note":38,"dur":0.147,"vel":1.0,"inst":"clarinet_v0_plucked_119","midi_source":""},{"t":223.356,"note":59,"dur":0.147,"vel":1.0,"inst":"glockenspiel_v0_pad_339","midi_source":""},{"t":223.503,"note":38,"dur":0.147,"vel":1.0,"inst":"clarinet_v0_plucked_119","midi_source":""},{"t":223.503,"note":59,"dur":0.147,"vel":1.0,"inst":"glockenspiel_v0_pad_339","midi_source":""},{"t":223.649,"note":35,"dur":0.147,"vel":1.0,"inst":"glockenspiel_v0_pad_339","midi_source":""},{"t":223.649,"note":54,"dur":0.147,"vel":1.0,"inst":"clarinet_v0_plucked_119","midi_source":""},{"t":223.796,"note":40,"dur":0.147,"vel":1.0,"inst":"clarinet_v0_plucked_119","midi_source":""},{"t":223.796,"note":59,"dur":0.147,"vel":1.0,"inst":"glockenspiel_v0_pad_339","midi_source":""},{"t":223.942,"note":38,"dur":0.147,"vel":1.0,"inst":"clarinet_v0_plucked_119","midi_source":""},{"t":223.942,"note":50,"dur":0.147,"vel":1.0,"inst":"clarinet_v0_plucked_119","midi_source":""},{"t":224.089,"note":40,"dur":0.147,"vel":1.0,"inst":"clarinet_v0_plucked_119","midi_source":""},{"t":224.089,"note":57,"dur":0.147,"vel":1.0,"inst":"glockenspiel_v0_pad_339","midi_source":""},{"t":224.235,"note":38,"dur":0.147,"vel":1.0,"inst":"clarinet_v0_plucked_119","midi_source":""},{"t":224.235,"note":57,"dur":0.147,"vel":1.0,"inst":"glockenspiel_v0_pad_339","midi_source":""},{"t":224.382,"note":38,"dur":0.147,"vel":1.0,"inst":"clarinet_v0_plucked_119","midi_source":""},{"t":224.382,"note":59,"dur":0.147,"vel":1.0,"inst":"glockenspiel_v0_pad_339","midi_source":""},{"t":224.529,"note":35,"dur":0.147,"vel":1.0,"inst":"glockenspiel_v0_pad_339","midi_source":""},{"t":224.529,"note":50,"dur":0.147,"vel":1.0,"inst":"clarinet_v0_plucked_119","midi_source":""},{"t":224.675,"note":38,"dur":0.293,"vel":1.0,"inst":"clarinet_v0_plucked_119","midi_source":""},{"t":224.675,"note":57,"dur":0.147,"vel":1.0,"inst":"glockenspiel_v0_pad_339","midi_source":""},{"t":224.822,"note":59,"dur":0.147,"vel":1.0,"inst":"glockenspiel_v0_pad_339","midi_source":""},{"t":224.968,"note":45,"dur":0.293,"vel":1.0,"inst":"glockenspiel_v0_pad_339","midi_source":""},{"t":224.968,"note":62,"dur":0.147,"vel":1.0,"inst":"clarinet_v0_plucked_119","midi_source":""},{"t":225.115,"note":52,"dur":0.147,"vel":1.0,"inst":"clarinet_v0_plucked_119","midi_source":""},{"t":225.261,"note":42,"dur":0.293,"vel":1.0,"inst":"clarinet_v0_plucked_119","midi_source":""},{"t":225.261,"note":59,"dur":0.147,"vel":1.0,"inst":"glockenspiel_v0_pad_339","midi_source":""},{"t":225.408,"note":59,"dur":0.147,"vel":1.0,"inst":"glockenspiel_v0_pad_339","midi_source":""},{"t":225.554,"note":40,"dur":0.293,"vel":1.0,"inst":"clarinet_v0_plucked_119","midi_source":""},{"t":225.554,"note":62,"dur":0.147,"vel":1.0,"inst":"clarinet_v0_plucked_119","midi_source":""},{"t":225.701,"note":54,"dur":0.147,"vel":1.0,"inst":"clarinet_v0_plucked_119","midi_source":""},{"t":225.847,"note":38,"dur":0.147,"vel":1.0,"inst":"clarinet_v0_plucked_119","midi_source":""},{"t":225.847,"note":59,"dur":0.147,"vel":1.0,"inst":"glockenspiel_v0_pad_339","midi_source":""},{"t":225.994,"note":38,"dur":0.147,"vel":1.0,"inst":"clarinet_v0_plucked_119","midi_source":""},{"t":225.994,"note":62,"dur":0.147,"vel":1.0,"inst":"clarinet_v0_plucked_119","midi_source":""},{"t":226.14,"note":35,"dur":0.147,"vel":1.0,"inst":"glockenspiel_v0_pad_339","midi_source":""},{"t":226.14,"note":62,"dur":0.147,"vel":1.0,"inst":"clarinet_v0_plucked_119","midi_source":""},{"t":226.287,"note":38,"dur":0.147,"vel":1.0,"inst":"clarinet_v0_plucked_119","midi_source":""},{"t":226.287,"note":59,"dur":0.147,"vel":1.0,"inst":"glockenspiel_v0_pad_339","midi_source":""},{"t":226.434,"note":38,"dur":0.147,"vel":1.0,"inst":"clarinet_v0_plucked_119","midi_source":""},{"t":226.434,"note":59,"dur":0.147,"vel":1.0,"inst":"glockenspiel_v0_pad_339","midi_source":""},{"t":226.58,"note":35,"dur":0.147,"vel":1.0,"inst":"glockenspiel_v0_pad_339","midi_source":""},{"t":226.58,"note":54,"dur":0.147,"vel":1.0,"inst":"clarinet_v0_plucked_119","midi_source":""},{"t":226.727,"note":40,"dur":0.147,"vel":1.0,"inst":"clarinet_v0_plucked_119","midi_source":""},{"t":226.727,"note":59,"dur":0.147,"vel":1.0,"inst":"glockenspiel_v0_pad_339","midi_source":""},{"t":226.873,"note":38,"dur":0.147,"vel":1.0,"inst":"clarinet_v0_plucked_119","midi_source":""},{"t":226.873,"note":50,"dur":0.147,"vel":1.0,"inst":"clarinet_v0_plucked_119","midi_source":""},{"t":227.02,"note":40,"dur":0.147,"vel":1.0,"inst":"clarinet_v0_plucked_119","midi_source":""},{"t":227.02,"note":57,"dur":0.147,"vel":1.0,"inst":"glockenspiel_v0_pad_339","midi_source":""},{"t":227.166,"note":38,"dur":0.147,"vel":1.0,"inst":"clarinet_v0_plucked_119","midi_source":""},{"t":227.166,"note":57,"dur":0.147,"vel":1.0,"inst":"glockenspiel_v0_pad_339","midi_source":""},{"t":227.313,"note":38,"dur":0.147,"vel":1.0,"inst":"clarinet_v0_plucked_119","midi_source":""},{"t":227.313,"note":59,"dur":0.147,"vel":1.0,"inst":"glockenspiel_v0_pad_339","midi_source":""},{"t":227.459,"note":35,"dur":0.147,"vel":1.0,"inst":"glockenspiel_v0_pad_339","midi_source":""},{"t":227.459,"note":50,"dur":0.147,"vel":1.0,"inst":"clarinet_v0_plucked_119","midi_source":""},{"t":227.606,"note":38,"dur":0.293,"vel":1.0,"inst":"clarinet_v0_plucked_119","midi_source":""},{"t":227.606,"note":57,"dur":0.147,"vel":1.0,"inst":"glockenspiel_v0_pad_339","midi_source":""},{"t":227.752,"note":59,"dur":0.147,"vel":1.0,"inst":"glockenspiel_v0_pad_339","midi_source":""},{"t":227.899,"note":45,"dur":0.293,"vel":1.0,"inst":"glockenspiel_v0_pad_339","midi_source":""},{"t":227.899,"note":62,"dur":0.147,"vel":1.0,"inst":"clarinet_v0_plucked_119","midi_source":""},{"t":228.046,"note":52,"dur":0.147,"vel":1.0,"inst":"clarinet_v0_plucked_119","midi_source":""},{"t":228.192,"note":42,"dur":0.293,"vel":1.0,"inst":"clarinet_v0_plucked_119","midi_source":""},{"t":228.192,"note":59,"dur":0.147,"vel":1.0,"inst":"glockenspiel_v0_pad_339","midi_source":""},{"t":228.339,"note":59,"dur":0.147,"vel":1.0,"inst":"glockenspiel_v0_pad_339","midi_source":""},{"t":228.485,"note":40,"dur":0.293,"vel":1.0,"inst":"clarinet_v0_plucked_119","midi_source":""},{"t":228.485,"note":62,"dur":0.147,"vel":1.0,"inst":"clarinet_v0_plucked_119","midi_source":""},{"t":228.632,"note":54,"dur":0.147,"vel":1.0,"inst":"clarinet_v0_plucked_119","midi_source":""},{"t":228.778,"note":38,"dur":0.147,"vel":1.0,"inst":"clarinet_v0_plucked_119","midi_source":""},{"t":228.778,"note":59,"dur":0.147,"vel":1.0,"inst":"glockenspiel_v0_pad_339","midi_source":""},{"t":228.925,"note":38,"dur":0.147,"vel":1.0,"inst":"clarinet_v0_plucked_119","midi_source":""},{"t":228.925,"note":62,"dur":0.147,"vel":1.0,"inst":"clarinet_v0_plucked_119","midi_source":""},{"t":229.071,"note":35,"dur":0.147,"vel":1.0,"inst":"glockenspiel_v0_pad_339","midi_source":""},{"t":229.071,"note":62,"dur":0.147,"vel":1.0,"inst":"clarinet_v0_plucked_119","midi_source":""},{"t":229.218,"note":38,"dur":0.147,"vel":1.0,"inst":"clarinet_v0_plucked_119","midi_source":""},{"t":229.218,"note":59,"dur":0.147,"vel":1.0,"inst":"glockenspiel_v0_pad_339","midi_source":""},{"t":229.364,"note":38,"dur":0.147,"vel":1.0,"inst":"clarinet_v0_plucked_119","midi_source":""},{"t":229.364,"note":59,"dur":0.147,"vel":1.0,"inst":"glockenspiel_v0_pad_339","midi_source":""},{"t":229.511,"note":35,"dur":0.147,"vel":1.0,"inst":"glockenspiel_v0_pad_339","midi_source":""},{"t":229.511,"note":54,"dur":0.147,"vel":1.0,"inst":"clarinet_v0_plucked_119","midi_source":""},{"t":229.657,"note":40,"dur":0.147,"vel":1.0,"inst":"clarinet_v0_plucked_119","midi_source":""},{"t":229.657,"note":59,"dur":0.147,"vel":1.0,"inst":"glockenspiel_v0_pad_339","midi_source":""},{"t":229.804,"note":38,"dur":0.147,"vel":1.0,"inst":"clarinet_v0_plucked_119","midi_source":""},{"t":229.804,"note":50,"dur":0.147,"vel":1.0,"inst":"clarinet_v0_plucked_119","midi_source":""},{"t":229.951,"note":40,"dur":0.147,"vel":1.0,"inst":"clarinet_v0_plucked_119","midi_source":""},{"t":229.951,"note":57,"dur":0.147,"vel":1.0,"inst":"glockenspiel_v0_pad_339","midi_source":""},{"t":230.097,"note":38,"dur":0.147,"vel":1.0,"inst":"clarinet_v0_plucked_119","midi_source":""},{"t":230.097,"note":57,"dur":0.147,"vel":1.0,"inst":"glockenspiel_v0_pad_339","midi_source":""},{"t":230.244,"note":38,"dur":0.147,"vel":1.0,"inst":"clarinet_v0_plucked_119","midi_source":""},{"t":230.244,"note":59,"dur":0.147,"vel":1.0,"inst":"glockenspiel_v0_pad_339","midi_source":""},{"t":230.39,"note":35,"dur":0.147,"vel":1.0,"inst":"glockenspiel_v0_pad_339","midi_source":""},{"t":230.39,"note":50,"dur":0.147,"vel":1.0,"inst":"clarinet_v0_plucked_119","midi_source":""},{"t":230.537,"note":38,"dur":0.293,"vel":1.0,"inst":"clarinet_v0_plucked_119","midi_source":""},{"t":230.537,"note":57,"dur":0.147,"vel":1.0,"inst":"glockenspiel_v0_pad_339","midi_source":""},{"t":230.683,"note":59,"dur":0.147,"vel":1.0,"inst":"glockenspiel_v0_pad_339","midi_source":""},{"t":230.83,"note":45,"dur":0.293,"vel":1.0,"inst":"glockenspiel_v0_pad_339","midi_source":""},{"t":230.83,"note":62,"dur":0.147,"vel":1.0,"inst":"clarinet_v0_plucked_119","midi_source":""},{"t":230.976,"note":52,"dur":0.147,"vel":1.0,"inst":"clarinet_v0_plucked_119","midi_source":""},{"t":231.123,"note":42,"dur":0.293,"vel":1.0,"inst":"clarinet_v0_plucked_119","midi_source":""},{"t":231.123,"note":59,"dur":0.147,"vel":1.0,"inst":"glockenspiel_v0_pad_339","midi_source":""},{"t":231.269,"note":59,"dur":0.147,"vel":1.0,"inst":"glockenspiel_v0_pad_339","midi_source":""},{"t":231.416,"note":40,"dur":0.293,"vel":1.0,"inst":"clarinet_v0_plucked_119","midi_source":""},{"t":231.416,"note":62,"dur":0.147,"vel":1.0,"inst":"clarinet_v0_plucked_119","midi_source":""},{"t":231.562,"note":54,"dur":0.147,"vel":1.0,"inst":"clarinet_v0_plucked_119","midi_source":""},{"t":231.709,"note":38,"dur":0.147,"vel":1.0,"inst":"clarinet_v0_plucked_119","midi_source":""},{"t":231.709,"note":59,"dur":0.147,"vel":1.0,"inst":"glockenspiel_v0_pad_339","midi_source":""},{"t":231.856,"note":38,"dur":0.147,"vel":1.0,"inst":"clarinet_v0_plucked_119","midi_source":""},{"t":231.856,"note":62,"dur":0.147,"vel":1.0,"inst":"clarinet_v0_plucked_119","midi_source":""},{"t":232.002,"note":35,"dur":0.147,"vel":1.0,"inst":"glockenspiel_v0_pad_339","midi_source":""},{"t":232.002,"note":62,"dur":0.147,"vel":1.0,"inst":"clarinet_v0_plucked_119","midi_source":""},{"t":232.149,"note":38,"dur":0.147,"vel":1.0,"inst":"clarinet_v0_plucked_119","midi_source":""},{"t":232.149,"note":59,"dur":0.147,"vel":1.0,"inst":"glockenspiel_v0_pad_339","midi_source":""},{"t":232.295,"note":38,"dur":0.147,"vel":1.0,"inst":"clarinet_v0_plucked_119","midi_source":""},{"t":232.295,"note":59,"dur":0.147,"vel":1.0,"inst":"glockenspiel_v0_pad_339","midi_source":""},{"t":232.442,"note":35,"dur":0.147,"vel":1.0,"inst":"glockenspiel_v0_pad_339","midi_source":""},{"t":232.442,"note":54,"dur":0.147,"vel":1.0,"inst":"clarinet_v0_plucked_119","midi_source":""},{"t":232.588,"note":40,"dur":0.147,"vel":1.0,"inst":"clarinet_v0_plucked_119","midi_source":""},{"t":232.588,"note":59,"dur":0.147,"vel":1.0,"inst":"glockenspiel_v0_pad_339","midi_source":""},{"t":232.735,"note":38,"dur":0.147,"vel":1.0,"inst":"clarinet_v0_plucked_119","midi_source":""},{"t":232.735,"note":50,"dur":0.147,"vel":1.0,"inst":"clarinet_v0_plucked_119","midi_source":""},{"t":232.881,"note":40,"dur":0.147,"vel":1.0,"inst":"clarinet_v0_plucked_119","midi_source":""},{"t":232.881,"note":57,"dur":0.147,"vel":1.0,"inst":"glockenspiel_v0_pad_339","midi_source":""},{"t":233.028,"note":38,"dur":0.147,"vel":1.0,"inst":"clarinet_v0_plucked_119","midi_source":""},{"t":233.028,"note":57,"dur":0.147,"vel":1.0,"inst":"glockenspiel_v0_pad_339","midi_source":""},{"t":233.174,"note":38,"dur":0.147,"vel":1.0,"inst":"clarinet_v0_plucked_119","midi_source":""},{"t":233.174,"note":59,"dur":0.147,"vel":1.0,"inst":"glockenspiel_v0_pad_339","midi_source":""},{"t":233.321,"note":35,"dur":0.147,"vel":1.0,"inst":"glockenspiel_v0_pad_339","midi_source":""},{"t":233.321,"note":50,"dur":0.147,"vel":1.0,"inst":"clarinet_v0_plucked_119","midi_source":""},{"t":233.467,"note":38,"dur":0.293,"vel":1.0,"inst":"clarinet_v0_plucked_119","midi_source":""},{"t":233.467,"note":57,"dur":0.147,"vel":1.0,"inst":"glockenspiel_v0_pad_339","midi_source":""},{"t":233.614,"note":59,"dur":0.147,"vel":1.0,"inst":"glockenspiel_v0_pad_339","midi_source":""},{"t":233.761,"note":45,"dur":0.293,"vel":1.0,"inst":"glockenspiel_v0_pad_339","midi_source":""},{"t":233.761,"note":62,"dur":0.147,"vel":1.0,"inst":"clarinet_v0_plucked_119","midi_source":""},{"t":233.907,"note":52,"dur":0.147,"vel":1.0,"inst":"clarinet_v0_plucked_119","midi_source":""},{"t":234.054,"note":42,"dur":0.293,"vel":1.0,"inst":"clarinet_v0_plucked_119","midi_source":""},{"t":234.054,"note":59,"dur":0.147,"vel":1.0,"inst":"glockenspiel_v0_pad_339","midi_source":""},{"t":234.2,"note":59,"dur":0.147,"vel":1.0,"inst":"glockenspiel_v0_pad_339","midi_source":""},{"t":234.347,"note":40,"dur":0.293,"vel":1.0,"inst":"clarinet_v0_plucked_119","midi_source":""},{"t":234.347,"note":62,"dur":0.147,"vel":1.0,"inst":"clarinet_v0_plucked_119","midi_source":""},{"t":234.493,"note":54,"dur":0.147,"vel":1.0,"inst":"clarinet_v0_plucked_119","midi_source":""},{"t":234.64,"note":38,"dur":0.147,"vel":1.0,"inst":"clarinet_v0_plucked_119","midi_source":""},{"t":234.64,"note":59,"dur":0.147,"vel":1.0,"inst":"glockenspiel_v0_pad_339","midi_source":""},{"t":234.786,"note":38,"dur":0.147,"vel":1.0,"inst":"clarinet_v0_plucked_119","midi_source":""},{"t":234.786,"note":62,"dur":0.147,"vel":1.0,"inst":"clarinet_v0_plucked_119","midi_source":""},{"t":234.933,"note":35,"dur":0.147,"vel":1.0,"inst":"glockenspiel_v0_pad_339","midi_source":""},{"t":234.933,"note":62,"dur":0.147,"vel":1.0,"inst":"clarinet_v0_plucked_119","midi_source":""},{"t":235.079,"note":38,"dur":0.147,"vel":1.0,"inst":"clarinet_v0_plucked_119","midi_source":""},{"t":235.079,"note":59,"dur":0.147,"vel":1.0,"inst":"glockenspiel_v0_pad_339","midi_source":""},{"t":235.226,"note":38,"dur":0.147,"vel":1.0,"inst":"clarinet_v0_plucked_119","midi_source":""},{"t":235.226,"note":59,"dur":0.147,"vel":1.0,"inst":"glockenspiel_v0_pad_339","midi_source":""},{"t":235.373,"note":35,"dur":0.147,"vel":1.0,"inst":"glockenspiel_v0_pad_339","midi_source":""},{"t":235.373,"note":54,"dur":0.147,"vel":1.0,"inst":"clarinet_v0_plucked_119","midi_source":""},{"t":235.519,"note":40,"dur":0.147,"vel":1.0,"inst":"clarinet_v0_plucked_119","midi_source":""},{"t":235.519,"note":59,"dur":0.147,"vel":1.0,"inst":"glockenspiel_v0_pad_339","midi_source":""},{"t":235.666,"note":38,"dur":0.147,"vel":1.0,"inst":"clarinet_v0_plucked_119","midi_source":""},{"t":235.666,"note":50,"dur":0.147,"vel":1.0,"inst":"clarinet_v0_plucked_119","midi_source":""},{"t":235.812,"note":40,"dur":0.147,"vel":1.0,"inst":"clarinet_v0_plucked_119","midi_source":""},{"t":235.812,"note":57,"dur":0.147,"vel":1.0,"inst":"glockenspiel_v0_pad_339","midi_source":""},{"t":235.959,"note":38,"dur":0.147,"vel":1.0,"inst":"clarinet_v0_plucked_119","midi_source":""},{"t":235.959,"note":57,"dur":0.147,"vel":1.0,"inst":"glockenspiel_v0_pad_339","midi_source":""},{"t":236.105,"note":38,"dur":0.147,"vel":1.0,"inst":"clarinet_v0_plucked_119","midi_source":""},{"t":236.105,"note":59,"dur":0.147,"vel":1.0,"inst":"glockenspiel_v0_pad_339","midi_source":""},{"t":236.252,"note":35,"dur":0.147,"vel":1.0,"inst":"glockenspiel_v0_pad_339","midi_source":""},{"t":236.252,"note":50,"dur":0.147,"vel":1.0,"inst":"clarinet_v0_plucked_119","midi_source":""},{"t":236.398,"note":38,"dur":0.293,"vel":1.0,"inst":"clarinet_v0_plucked_119","midi_source":""},{"t":236.398,"note":57,"dur":0.147,"vel":1.0,"inst":"glockenspiel_v0_pad_339","midi_source":""},{"t":236.545,"note":59,"dur":0.147,"vel":1.0,"inst":"glockenspiel_v0_pad_339","midi_source":""},{"t":236.691,"note":45,"dur":0.293,"vel":1.0,"inst":"glockenspiel_v0_pad_339","midi_source":""},{"t":236.691,"note":62,"dur":0.147,"vel":1.0,"inst":"clarinet_v0_plucked_119","midi_source":""},{"t":236.838,"note":52,"dur":0.147,"vel":1.0,"inst":"clarinet_v0_plucked_119","midi_source":""},{"t":236.984,"note":42,"dur":0.293,"vel":1.0,"inst":"clarinet_v0_plucked_119","midi_source":""},{"t":236.984,"note":59,"dur":0.147,"vel":1.0,"inst":"glockenspiel_v0_pad_339","midi_source":""},{"t":237.131,"note":59,"dur":0.147,"vel":1.0,"inst":"glockenspiel_v0_pad_339","midi_source":""},{"t":237.278,"note":40,"dur":0.293,"vel":1.0,"inst":"clarinet_v0_plucked_119","midi_source":""},{"t":237.278,"note":62,"dur":0.147,"vel":1.0,"inst":"clarinet_v0_plucked_119","midi_source":""},{"t":237.424,"note":54,"dur":0.147,"vel":1.0,"inst":"clarinet_v0_plucked_119","midi_source":""},{"t":237.571,"note":38,"dur":0.147,"vel":1.0,"inst":"clarinet_v0_plucked_119","midi_source":""},{"t":237.571,"note":59,"dur":0.147,"vel":1.0,"inst":"glockenspiel_v0_pad_339","midi_source":""},{"t":237.717,"note":38,"dur":0.147,"vel":1.0,"inst":"clarinet_v0_plucked_119","midi_source":""},{"t":237.717,"note":62,"dur":0.147,"vel":1.0,"inst":"clarinet_v0_plucked_119","midi_source":""},{"t":237.864,"note":35,"dur":0.147,"vel":1.0,"inst":"glockenspiel_v0_pad_339","midi_source":""},{"t":237.864,"note":62,"dur":0.147,"vel":1.0,"inst":"clarinet_v0_plucked_119","midi_source":""},{"t":238.01,"note":38,"dur":0.147,"vel":1.0,"inst":"clarinet_v0_plucked_119","midi_source":""},{"t":238.01,"note":59,"dur":0.147,"vel":1.0,"inst":"glockenspiel_v0_pad_339","midi_source":""},{"t":238.157,"note":38,"dur":0.147,"vel":1.0,"inst":"clarinet_v0_plucked_119","midi_source":""},{"t":238.157,"note":59,"dur":0.147,"vel":1.0,"inst":"glockenspiel_v0_pad_339","midi_source":""},{"t":238.303,"note":35,"dur":0.147,"vel":1.0,"inst":"glockenspiel_v0_pad_339","midi_source":""},{"t":238.303,"note":54,"dur":0.147,"vel":1.0,"inst":"clarinet_v0_plucked_119","midi_source":""},{"t":238.45,"note":40,"dur":0.147,"vel":1.0,"inst":"clarinet_v0_plucked_119","midi_source":""},{"t":238.45,"note":59,"dur":0.147,"vel":1.0,"inst":"glockenspiel_v0_pad_339","midi_source":""},{"t":238.596,"note":38,"dur":0.147,"vel":1.0,"inst":"clarinet_v0_plucked_119","midi_source":""},{"t":238.596,"note":50,"dur":0.147,"vel":1.0,"inst":"clarinet_v0_plucked_119","midi_source":""},{"t":238.743,"note":40,"dur":0.147,"vel":1.0,"inst":"clarinet_v0_plucked_119","midi_source":""},{"t":238.743,"note":57,"dur":0.147,"vel":1.0,"inst":"glockenspiel_v0_pad_339","midi_source":""},{"t":238.889,"note":38,"dur":0.147,"vel":1.0,"inst":"clarinet_v0_plucked_119","midi_source":""},{"t":238.889,"note":57,"dur":0.147,"vel":1.0,"inst":"glockenspiel_v0_pad_339","midi_source":""},{"t":239.036,"note":38,"dur":0.147,"vel":1.0,"inst":"clarinet_v0_plucked_119","midi_source":""},{"t":239.036,"note":59,"dur":0.147,"vel":1.0,"inst":"glockenspiel_v0_pad_339","midi_source":""},{"t":239.183,"note":35,"dur":0.147,"vel":1.0,"inst":"glockenspiel_v0_pad_339","midi_source":""},{"t":239.183,"note":50,"dur":0.147,"vel":1.0,"inst":"clarinet_v0_plucked_119","midi_source":""},{"t":239.329,"note":38,"dur":0.293,"vel":1.0,"inst":"clarinet_v0_plucked_119","midi_source":""},{"t":239.329,"note":57,"dur":0.147,"vel":1.0,"inst":"glockenspiel_v0_pad_339","midi_source":""},{"t":239.476,"note":59,"dur":0.147,"vel":1.0,"inst":"glockenspiel_v0_pad_339","midi_source":""},{"t":239.622,"note":45,"dur":0.293,"vel":1.0,"inst":"glockenspiel_v0_pad_339","midi_source":""},{"t":239.622,"note":62,"dur":0.147,"vel":1.0,"inst":"clarinet_v0_plucked_119","midi_source":""},{"t":239.769,"note":52,"dur":0.147,"vel":1.0,"inst":"clarinet_v0_plucked_119","midi_source":""},{"t":239.915,"note":42,"dur":0.293,"vel":1.0,"inst":"clarinet_v0_plucked_119","midi_source":""},{"t":239.915,"note":59,"dur":0.147,"vel":1.0,"inst":"glockenspiel_v0_pad_339","midi_source":""},{"t":240.062,"note":59,"dur":0.147,"vel":1.0,"inst":"glockenspiel_v0_pad_339","midi_source":""},{"t":240.208,"note":40,"dur":0.293,"vel":1.0,"inst":"clarinet_v0_plucked_119","midi_source":""},{"t":240.208,"note":62,"dur":0.147,"vel":1.0,"inst":"clarinet_v0_plucked_119","midi_source":""},{"t":240.355,"note":54,"dur":0.147,"vel":1.0,"inst":"clarinet_v0_plucked_119","midi_source":""},{"t":240.501,"note":38,"dur":0.147,"vel":1.0,"inst":"clarinet_v0_plucked_119","midi_source":""},{"t":240.501,"note":59,"dur":0.147,"vel":1.0,"inst":"glockenspiel_v0_pad_339","midi_source":""},{"t":240.648,"note":38,"dur":0.147,"vel":1.0,"inst":"clarinet_v0_plucked_119","midi_source":""},{"t":240.648,"note":62,"dur":0.147,"vel":1.0,"inst":"clarinet_v0_plucked_119","midi_source":""},{"t":240.794,"note":35,"dur":0.147,"vel":1.0,"inst":"glockenspiel_v0_pad_339","midi_source":""},{"t":240.794,"note":62,"dur":0.147,"vel":1.0,"inst":"clarinet_v0_plucked_119","midi_source":""},{"t":240.941,"note":38,"dur":0.147,"vel":1.0,"inst":"clarinet_v0_plucked_119","midi_source":""},{"t":240.941,"note":59,"dur":0.147,"vel":1.0,"inst":"glockenspiel_v0_pad_339","midi_source":""},{"t":241.088,"note":38,"dur":0.147,"vel":1.0,"inst":"clarinet_v0_plucked_119","midi_source":""},{"t":241.088,"note":59,"dur":0.147,"vel":1.0,"inst":"glockenspiel_v0_pad_339","midi_source":""},{"t":241.234,"note":35,"dur":0.147,"vel":1.0,"inst":"glockenspiel_v0_pad_339","midi_source":""},{"t":241.234,"note":54,"dur":0.147,"vel":1.0,"inst":"clarinet_v0_plucked_119","midi_source":""},{"t":241.381,"note":40,"dur":0.147,"vel":1.0,"inst":"clarinet_v0_plucked_119","midi_source":""},{"t":241.381,"note":59,"dur":0.147,"vel":1.0,"inst":"glockenspiel_v0_pad_339","midi_source":""},{"t":241.527,"note":38,"dur":0.147,"vel":1.0,"inst":"clarinet_v0_plucked_119","midi_source":""},{"t":241.527,"note":50,"dur":0.147,"vel":1.0,"inst":"clarinet_v0_plucked_119","midi_source":""},{"t":241.674,"note":40,"dur":0.147,"vel":1.0,"inst":"clarinet_v0_plucked_119","midi_source":""},{"t":241.674,"note":57,"dur":0.147,"vel":1.0,"inst":"glockenspiel_v0_pad_339","midi_source":""},{"t":241.82,"note":38,"dur":0.147,"vel":1.0,"inst":"clarinet_v0_plucked_119","midi_source":""},{"t":241.82,"note":57,"dur":0.147,"vel":1.0,"inst":"glockenspiel_v0_pad_339","midi_source":""},{"t":241.967,"note":38,"dur":0.147,"vel":1.0,"inst":"clarinet_v0_plucked_119","midi_source":""},{"t":241.967,"note":59,"dur":0.147,"vel":1.0,"inst":"glockenspiel_v0_pad_339","midi_source":""},{"t":242.113,"note":35,"dur":0.147,"vel":1.0,"inst":"glockenspiel_v0_pad_339","midi_source":""},{"t":242.113,"note":50,"dur":0.147,"vel":1.0,"inst":"clarinet_v0_plucked_119","midi_source":""},{"t":242.26,"note":38,"dur":0.293,"vel":1.0,"inst":"clarinet_v0_plucked_119","midi_source":""},{"t":242.26,"note":57,"dur":0.147,"vel":1.0,"inst":"glockenspiel_v0_pad_339","midi_source":""},{"t":242.406,"note":59,"dur":0.147,"vel":1.0,"inst":"glockenspiel_v0_pad_339","midi_source":""},{"t":242.553,"note":45,"dur":0.293,"vel":1.0,"inst":"glockenspiel_v0_pad_339","midi_source":""},{"t":242.553,"note":62,"dur":0.147,"vel":1.0,"inst":"clarinet_v0_plucked_119","midi_source":""},{"t":242.7,"note":52,"dur":0.147,"vel":1.0,"inst":"clarinet_v0_plucked_119","midi_source":""},{"t":242.846,"note":42,"dur":0.293,"vel":1.0,"inst":"clarinet_v0_plucked_119","midi_source":""},{"t":242.846,"note":59,"dur":0.147,"vel":1.0,"inst":"glockenspiel_v0_pad_339","midi_source":""},{"t":242.993,"note":59,"dur":0.147,"vel":1.0,"inst":"glockenspiel_v0_pad_339","midi_source":""},{"t":243.139,"note":40,"dur":0.293,"vel":1.0,"inst":"clarinet_v0_plucked_119","midi_source":""},{"t":243.139,"note":62,"dur":0.147,"vel":1.0,"inst":"clarinet_v0_plucked_119","midi_source":""},{"t":243.286,"note":54,"dur":0.147,"vel":1.0,"inst":"clarinet_v0_plucked_119","midi_source":""},{"t":243.432,"note":38,"dur":0.147,"vel":1.0,"inst":"clarinet_v0_plucked_119","midi_source":""},{"t":243.432,"note":59,"dur":0.147,"vel":1.0,"inst":"glockenspiel_v0_pad_339","midi_source":""},{"t":243.579,"note":38,"dur":0.147,"vel":1.0,"inst":"clarinet_v0_plucked_119","midi_source":""},{"t":243.579,"note":62,"dur":0.147,"vel":1.0,"inst":"clarinet_v0_plucked_119","midi_source":""},{"t":243.725,"note":35,"dur":0.147,"vel":1.0,"inst":"glockenspiel_v0_pad_339","midi_source":""},{"t":243.725,"note":62,"dur":0.147,"vel":1.0,"inst":"clarinet_v0_plucked_119","midi_source":""},{"t":243.872,"note":38,"dur":0.147,"vel":1.0,"inst":"clarinet_v0_plucked_119","midi_source":""},{"t":243.872,"note":59,"dur":0.147,"vel":1.0,"inst":"glockenspiel_v0_pad_339","midi_source":""},{"t":244.018,"note":38,"dur":0.147,"vel":1.0,"inst":"clarinet_v0_plucked_119","midi_source":""},{"t":244.018,"note":59,"dur":0.147,"vel":1.0,"inst":"glockenspiel_v0_pad_339","midi_source":""},{"t":244.165,"note":35,"dur":0.147,"vel":1.0,"inst":"glockenspiel_v0_pad_339","midi_source":""},{"t":244.165,"note":54,"dur":0.147,"vel":1.0,"inst":"clarinet_v0_plucked_119","midi_source":""},{"t":244.311,"note":40,"dur":0.147,"vel":1.0,"inst":"clarinet_v0_plucked_119","midi_source":""},{"t":244.311,"note":59,"dur":0.147,"vel":1.0,"inst":"glockenspiel_v0_pad_339","midi_source":""},{"t":244.458,"note":38,"dur":0.147,"vel":1.0,"inst":"clarinet_v0_plucked_119","midi_source":""},{"t":244.458,"note":50,"dur":0.147,"vel":1.0,"inst":"clarinet_v0_plucked_119","midi_source":""},{"t":244.605,"note":40,"dur":0.147,"vel":1.0,"inst":"clarinet_v0_plucked_119","midi_source":""},{"t":244.605,"note":57,"dur":0.147,"vel":1.0,"inst":"glockenspiel_v0_pad_339","midi_source":""},{"t":244.751,"note":38,"dur":0.147,"vel":1.0,"inst":"clarinet_v0_plucked_119","midi_source":""},{"t":244.751,"note":57,"dur":0.147,"vel":1.0,"inst":"glockenspiel_v0_pad_339","midi_source":""},{"t":244.898,"note":38,"dur":0.147,"vel":1.0,"inst":"clarinet_v0_plucked_119","midi_source":""},{"t":244.898,"note":59,"dur":0.147,"vel":1.0,"inst":"glockenspiel_v0_pad_339","midi_source":""},{"t":245.044,"note":35,"dur":0.147,"vel":1.0,"inst":"glockenspiel_v0_pad_339","midi_source":""},{"t":245.044,"note":50,"dur":0.147,"vel":1.0,"inst":"clarinet_v0_plucked_119","midi_source":""},{"t":245.191,"note":38,"dur":0.293,"vel":1.0,"inst":"clarinet_v0_plucked_119","midi_source":""},{"t":245.191,"note":57,"dur":0.147,"vel":1.0,"inst":"glockenspiel_v0_pad_339","midi_source":""},{"t":245.337,"note":59,"dur":0.147,"vel":1.0,"inst":"glockenspiel_v0_pad_339","midi_source":""},{"t":245.484,"note":45,"dur":0.293,"vel":1.0,"inst":"glockenspiel_v0_pad_339","midi_source":""},{"t":245.484,"note":62,"dur":0.147,"vel":1.0,"inst":"clarinet_v0_plucked_119","midi_source":""},{"t":245.63,"note":52,"dur":0.147,"vel":1.0,"inst":"clarinet_v0_plucked_119","midi_source":""},{"t":245.777,"note":42,"dur":0.293,"vel":1.0,"inst":"clarinet_v0_plucked_119","midi_source":""},{"t":245.777,"note":59,"dur":0.147,"vel":1.0,"inst":"glockenspiel_v0_pad_339","midi_source":""},{"t":245.923,"note":59,"dur":0.147,"vel":1.0,"inst":"glockenspiel_v0_pad_339","midi_source":""},{"t":246.07,"note":40,"dur":0.293,"vel":1.0,"inst":"clarinet_v0_plucked_119","midi_source":""},{"t":246.07,"note":62,"dur":0.147,"vel":1.0,"inst":"clarinet_v0_plucked_119","midi_source":""},{"t":246.216,"note":54,"dur":0.147,"vel":1.0,"inst":"clarinet_v0_plucked_119","midi_source":""},{"t":246.363,"note":38,"dur":0.147,"vel":1.0,"inst":"clarinet_v0_plucked_119","midi_source":""},{"t":246.363,"note":59,"dur":0.147,"vel":1.0,"inst":"glockenspiel_v0_pad_339","midi_source":""},{"t":246.51,"note":38,"dur":0.147,"vel":1.0,"inst":"clarinet_v0_plucked_119","midi_source":""},{"t":246.51,"note":62,"dur":0.147,"vel":1.0,"inst":"clarinet_v0_plucked_119","midi_source":""},{"t":246.656,"note":35,"dur":0.147,"vel":1.0,"inst":"glockenspiel_v0_pad_339","midi_source":""},{"t":246.656,"note":62,"dur":0.147,"vel":1.0,"inst":"clarinet_v0_plucked_119","midi_source":""},{"t":246.803,"note":38,"dur":0.147,"vel":1.0,"inst":"clarinet_v0_plucked_119","midi_source":""},{"t":246.803,"note":59,"dur":0.147,"vel":1.0,"inst":"glockenspiel_v0_pad_339","midi_source":""},{"t":246.949,"note":38,"dur":0.147,"vel":1.0,"inst":"clarinet_v0_plucked_119","midi_source":""},{"t":246.949,"note":59,"dur":0.147,"vel":1.0,"inst":"glockenspiel_v0_pad_339","midi_source":""},{"t":247.096,"note":35,"dur":0.147,"vel":1.0,"inst":"glockenspiel_v0_pad_339","midi_source":""},{"t":247.096,"note":54,"dur":0.147,"vel":1.0,"inst":"clarinet_v0_plucked_119","midi_source":""},{"t":247.242,"note":40,"dur":0.147,"vel":1.0,"inst":"clarinet_v0_plucked_119","midi_source":""},{"t":247.242,"note":59,"dur":0.147,"vel":1.0,"inst":"glockenspiel_v0_pad_339","midi_source":""},{"t":247.389,"note":38,"dur":0.147,"vel":1.0,"inst":"clarinet_v0_plucked_119","midi_source":""},{"t":247.389,"note":50,"dur":0.147,"vel":1.0,"inst":"clarinet_v0_plucked_119","midi_source":""},{"t":247.535,"note":40,"dur":0.147,"vel":1.0,"inst":"clarinet_v0_plucked_119","midi_source":""},{"t":247.535,"note":57,"dur":0.147,"vel":1.0,"inst":"glockenspiel_v0_pad_339","midi_source":""},{"t":247.682,"note":38,"dur":0.147,"vel":1.0,"inst":"clarinet_v0_plucked_119","midi_source":""},{"t":247.682,"note":57,"dur":0.147,"vel":1.0,"inst":"glockenspiel_v0_pad_339","midi_source":""},{"t":247.828,"note":38,"dur":0.147,"vel":1.0,"inst":"clarinet_v0_plucked_119","midi_source":""},{"t":247.828,"note":59,"dur":0.147,"vel":1.0,"inst":"glockenspiel_v0_pad_339","midi_source":""},{"t":247.975,"note":35,"dur":0.147,"vel":1.0,"inst":"glockenspiel_v0_pad_339","midi_source":""},{"t":247.975,"note":50,"dur":0.147,"vel":1.0,"inst":"clarinet_v0_plucked_119","midi_source":""},{"t":248.121,"note":38,"dur":0.293,"vel":1.0,"inst":"clarinet_v0_plucked_119","midi_source":""},{"t":248.121,"note":57,"dur":0.147,"vel":1.0,"inst":"glockenspiel_v0_pad_339","midi_source":""},{"t":248.268,"note":59,"dur":0.147,"vel":1.0,"inst":"glockenspiel_v0_pad_339","midi_source":""},{"t":248.415,"note":45,"dur":0.293,"vel":1.0,"inst":"glockenspiel_v0_pad_339","midi_source":""},{"t":248.415,"note":62,"dur":0.147,"vel":1.0,"inst":"clarinet_v0_plucked_119","midi_source":""},{"t":248.561,"note":52,"dur":0.147,"vel":1.0,"inst":"clarinet_v0_plucked_119","midi_source":""},{"t":248.708,"note":42,"dur":0.293,"vel":1.0,"inst":"clarinet_v0_plucked_119","midi_source":""},{"t":248.708,"note":59,"dur":0.147,"vel":1.0,"inst":"glockenspiel_v0_pad_339","midi_source":""},{"t":248.854,"note":59,"dur":0.147,"vel":1.0,"inst":"glockenspiel_v0_pad_339","midi_source":""},{"t":249.001,"note":40,"dur":0.293,"vel":1.0,"inst":"clarinet_v0_plucked_119","midi_source":""},{"t":249.001,"note":62,"dur":0.147,"vel":1.0,"inst":"clarinet_v0_plucked_119","midi_source":""},{"t":249.147,"note":54,"dur":0.147,"vel":1.0,"inst":"clarinet_v0_plucked_119","midi_source":""},{"t":249.294,"note":38,"dur":0.147,"vel":1.0,"inst":"clarinet_v0_plucked_119","midi_source":""},{"t":249.294,"note":59,"dur":0.147,"vel":1.0,"inst":"glockenspiel_v0_pad_339","midi_source":""},{"t":249.44,"note":38,"dur":0.147,"vel":1.0,"inst":"clarinet_v0_plucked_119","midi_source":""},{"t":249.44,"note":62,"dur":0.147,"vel":1.0,"inst":"clarinet_v0_plucked_119","midi_source":""},{"t":249.587,"note":35,"dur":0.147,"vel":1.0,"inst":"glockenspiel_v0_pad_339","midi_source":""},{"t":249.587,"note":62,"dur":0.147,"vel":1.0,"inst":"clarinet_v0_plucked_119","midi_source":""},{"t":249.733,"note":38,"dur":0.147,"vel":1.0,"inst":"clarinet_v0_plucked_119","midi_source":""},{"t":249.733,"note":59,"dur":0.147,"vel":1.0,"inst":"glockenspiel_v0_pad_339","midi_source":""},{"t":249.88,"note":38,"dur":0.147,"vel":1.0,"inst":"clarinet_v0_plucked_119","midi_source":""},{"t":249.88,"note":59,"dur":0.147,"vel":1.0,"inst":"glockenspiel_v0_pad_339","midi_source":""},{"t":250.026,"note":35,"dur":0.147,"vel":1.0,"inst":"glockenspiel_v0_pad_339","midi_source":""},{"t":250.026,"note":54,"dur":0.147,"vel":1.0,"inst":"clarinet_v0_plucked_119","midi_source":""},{"t":250.173,"note":40,"dur":0.147,"vel":1.0,"inst":"clarinet_v0_plucked_119","midi_source":""},{"t":250.173,"note":59,"dur":0.147,"vel":1.0,"inst":"glockenspiel_v0_pad_339","midi_source":""},{"t":250.32,"note":38,"dur":0.147,"vel":1.0,"inst":"clarinet_v0_plucked_119","midi_source":""},{"t":250.32,"note":50,"dur":0.147,"vel":1.0,"inst":"clarinet_v0_plucked_119","midi_source":""},{"t":250.466,"note":40,"dur":0.147,"vel":1.0,"inst":"clarinet_v0_plucked_119","midi_source":""},{"t":250.466,"note":57,"dur":0.147,"vel":1.0,"inst":"glockenspiel_v0_pad_339","midi_source":""},{"t":250.613,"note":38,"dur":0.147,"vel":1.0,"inst":"clarinet_v0_plucked_119","midi_source":""},{"t":250.613,"note":57,"dur":0.147,"vel":1.0,"inst":"glockenspiel_v0_pad_339","midi_source":""},{"t":250.759,"note":38,"dur":0.147,"vel":1.0,"inst":"clarinet_v0_plucked_119","midi_source":""},{"t":250.759,"note":59,"dur":0.147,"vel":1.0,"inst":"glockenspiel_v0_pad_339","midi_source":""},{"t":250.906,"note":35,"dur":0.147,"vel":1.0,"inst":"glockenspiel_v0_pad_339","midi_source":""},{"t":250.906,"note":50,"dur":0.147,"vel":1.0,"inst":"clarinet_v0_plucked_119","midi_source":""},{"t":251.052,"note":38,"dur":0.293,"vel":1.0,"inst":"clarinet_v0_plucked_119","midi_source":""},{"t":251.052,"note":57,"dur":0.147,"vel":1.0,"inst":"glockenspiel_v0_pad_339","midi_source":""},{"t":251.199,"note":59,"dur":0.147,"vel":1.0,"inst":"glockenspiel_v0_pad_339","midi_source":""},{"t":251.345,"note":45,"dur":0.293,"vel":1.0,"inst":"glockenspiel_v0_pad_339","midi_source":""},{"t":251.345,"note":62,"dur":0.147,"vel":1.0,"inst":"clarinet_v0_plucked_119","midi_source":""},{"t":251.492,"note":52,"dur":0.147,"vel":1.0,"inst":"clarinet_v0_plucked_119","midi_source":""},{"t":251.638,"note":42,"dur":0.293,"vel":1.0,"inst":"clarinet_v0_plucked_119","midi_source":""},{"t":251.638,"note":59,"dur":0.147,"vel":1.0,"inst":"glockenspiel_v0_pad_339","midi_source":""}]}