{"album":"In The Beginning Phase 0","artist":"aiphenomenon (A. Johan Bizzle)","seed":779275,"duration":3666.649,"n_tracks":16,"n_events":8626,"tracks":[{"track_num":1,"file":"In_The_Beginning_Phase_0-aiphenomenon-01-Bright_Nebula_notes.json","duration":133.427,"n_events":314,"start_time":0.0},{"track_num":2,"file":"In_The_Beginning_Phase_0-aiphenomenon-02-Stellar_Filament_notes.json","duration":196.804,"n_events":800,"start_time":133.427},{"track_num":3,"file":"In_The_Beginning_Phase_0-aiphenomenon-03-Crystalline_Fracture_notes.json","duration":149.233,"n_events":510,"start_time":330.231},{"track_num":5,"file":"In_The_Beginning_Phase_0-aiphenomenon-05-Through_Present_notes.json","duration":177.414,"n_events":441,"start_time":479.464},{"track_num":6,"file":"In_The_Beginning_Phase_0-aiphenomenon-06-DNA_Field_notes.json","duration":220.571,"n_events":330,"start_time":656.8779999999999},{"track_num":7,"file":"In_The_Beginning_Phase_0-aiphenomenon-07-Dark_Fragment_notes.json","duration":328.786,"n_events":590,"start_time":877.449},{"track_num":8,"file":"In_The_Beginning_Phase_0-aiphenomenon-08-Planck_Chord_notes.json","duration":294.75899999999996,"n_events":935,"start_time":1206.235},{"track_num":9,"file":"In_The_Beginning_Phase_0-aiphenomenon-09-Volatile_Cycle_9_notes.json","duration":137.38,"n_events":359,"start_time":1500.994},{"track_num":10,"file":"In_The_Beginning_Phase_0-aiphenomenon-10-Frozen_Phase_notes.json","duration":242.391,"n_events":517,"start_time":1638.3739999999998},{"track_num":11,"file":"In_The_Beginning_Phase_0-aiphenomenon-11-Nucleosynthesis_Flux_notes.json","duration":244.0,"n_events":351,"start_time":1880.7649999999999},{"track_num":12,"file":"In_The_Beginning_Phase_0-aiphenomenon-12-Volatile_Singularity_notes.json","duration":312.80899999999997,"n_events":1050,"start_time":2124.765},{"track_num":13,"file":"In_The_Beginning_Phase_0-aiphenomenon-13-Spectral_Arc_notes.json","duration":137.876,"n_events":226,"start_time":2437.5739999999996},{"track_num":14,"file":"In_The_Beginning_Phase_0-aiphenomenon-14-Solar_to_Era_notes.json","duration":223.784,"n_events":422,"start_time":2575.45},{"track_num":15,"file":"In_The_Beginning_Phase_0-aiphenomenon-15-Nebular_Singularity_notes.json","duration":285.87600000000003,"n_events":920,"start_time":2799.234},{"track_num":16,"file":"In_The_Beginning_Phase_0-aiphenomenon-16-Electroweak_Pulse_notes.json","duration":187.196,"n_events":232,"start_time":3085.11},{"track_num":17,"file":"In_The_Beginning_Phase_0-aiphenomenon-17-Resonant_Recitation_notes.json","duration":394.343,"n_events":629,"start_time":3272.306}],"events":[{"t":0.105,"dur":0.342,"note":59,"inst":"celesta_v0_additive_3","vel":1.0,"bend":0.0,"ch":11,"track":1},{"t":0.448,"dur":0.685,"note":28,"inst":"piano_v0_additive_0","vel":1.0,"bend":0.0,"ch":12,"track":1},{"t":0.448,"dur":0.342,"note":59,"inst":"celesta_v0_additive_3","vel":1.0,"bend":0.0,"ch":11,"track":1},{"t":0.79,"dur":0.114,"note":59,"inst":"celesta_v0_additive_3","vel":1.0,"bend":0.0,"ch":11,"track":1},{"t":0.904,"dur":0.114,"note":59,"inst":"celesta_v0_additive_3","vel":1.0,"bend":0.0,"ch":11,"track":1},{"t":1.018,"dur":0.114,"note":59,"inst":"celesta_v0_additive_3","vel":1.0,"bend":0.0,"ch":11,"track":1},{"t":1.132,"dur":0.685,"note":35,"inst":"celesta_v0_additive_3","vel":1.0,"bend":0.0,"ch":3,"track":1},{"t":1.132,"dur":0.342,"note":59,"inst":"celesta_v0_additive_3","vel":1.0,"bend":0.0,"ch":11,"track":1},{"t":1.475,"dur":0.342,"note":59,"inst":"celesta_v0_additive_3","vel":1.0,"bend":0.0,"ch":11,"track":1},{"t":1.817,"dur":0.685,"note":28,"inst":"piano_v0_additive_0","vel":1.0,"bend":0.0,"ch":12,"track":1},{"t":1.817,"dur":0.342,"note":52,"inst":"piano_v0_additive_0","vel":1.0,"bend":0.0,"ch":4,"track":1},{"t":2.159,"dur":0.342,"note":59,"inst":"celesta_v0_additive_3","vel":1.0,"bend":0.0,"ch":11,"track":1},{"t":2.502,"dur":0.685,"note":35,"inst":"celesta_v0_additive_3","vel":1.0,"bend":0.0,"ch":3,"track":1},{"t":2.502,"dur":0.342,"note":59,"inst":"celesta_v0_additive_3","vel":1.0,"bend":0.0,"ch":11,"track":1},{"t":2.844,"dur":0.342,"note":59,"inst":"celesta_v0_additive_3","vel":1.0,"bend":0.0,"ch":11,"track":1},{"t":3.187,"dur":0.685,"note":28,"inst":"piano_v0_additive_0","vel":1.0,"bend":0.0,"ch":12,"track":1},{"t":3.187,"dur":0.342,"note":59,"inst":"celesta_v0_additive_3","vel":1.0,"bend":0.0,"ch":11,"track":1},{"t":3.529,"dur":0.114,"note":59,"inst":"celesta_v0_additive_3","vel":1.0,"bend":0.0,"ch":11,"track":1},{"t":3.643,"dur":0.114,"note":59,"inst":"celesta_v0_additive_3","vel":1.0,"bend":0.0,"ch":11,"track":1},{"t":3.757,"dur":0.114,"note":59,"inst":"celesta_v0_additive_3","vel":1.0,"bend":0.0,"ch":11,"track":1},{"t":3.871,"dur":0.685,"note":35,"inst":"celesta_v0_additive_3","vel":1.0,"bend":0.0,"ch":3,"track":1},{"t":3.871,"dur":0.342,"note":59,"inst":"celesta_v0_additive_3","vel":1.0,"bend":0.0,"ch":11,"track":1},{"t":4.214,"dur":0.342,"note":59,"inst":"celesta_v0_additive_3","vel":1.0,"bend":0.0,"ch":11,"track":1},{"t":4.556,"dur":0.685,"note":35,"inst":"celesta_v0_additive_3","vel":1.0,"bend":0.0,"ch":3,"track":1},{"t":4.556,"dur":0.342,"note":59,"inst":"celesta_v0_additive_3","vel":1.0,"bend":0.0,"ch":11,"track":1},{"t":4.899,"dur":0.342,"note":52,"inst":"piano_v0_additive_0","vel":1.0,"bend":0.0,"ch":4,"track":1},{"t":5.241,"dur":0.685,"note":35,"inst":"celesta_v0_additive_3","vel":1.0,"bend":0.0,"ch":3,"track":1},{"t":5.241,"dur":0.342,"note":52,"inst":"piano_v0_additive_0","vel":1.0,"bend":0.0,"ch":4,"track":1},{"t":5.583,"dur":0.342,"note":64,"inst":"piano_v0_additive_0","vel":1.0,"bend":0.0,"ch":0,"track":1},{"t":5.926,"dur":0.685,"note":28,"inst":"piano_v0_additive_0","vel":1.0,"bend":0.0,"ch":12,"track":1},{"t":5.926,"dur":0.342,"note":64,"inst":"piano_v0_additive_0","vel":1.0,"bend":0.0,"ch":0,"track":1},{"t":6.268,"dur":0.114,"note":52,"inst":"piano_v0_additive_0","vel":1.0,"bend":0.0,"ch":4,"track":1},{"t":6.382,"dur":0.114,"note":59,"inst":"celesta_v0_additive_3","vel":1.0,"bend":0.0,"ch":11,"track":1},{"t":6.496,"dur":0.114,"note":52,"inst":"piano_v0_additive_0","vel":1.0,"bend":0.0,"ch":4,"track":1},{"t":6.61,"dur":0.685,"note":35,"inst":"celesta_v0_additive_3","vel":1.0,"bend":0.0,"ch":3,"track":1},{"t":6.61,"dur":0.342,"note":52,"inst":"piano_v0_additive_0","vel":1.0,"bend":0.0,"ch":4,"track":1},{"t":6.953,"dur":0.342,"note":64,"inst":"piano_v0_additive_0","vel":1.0,"bend":0.0,"ch":0,"track":1},{"t":7.295,"dur":0.685,"note":28,"inst":"piano_v0_additive_0","vel":1.0,"bend":0.0,"ch":12,"track":1},{"t":7.295,"dur":0.342,"note":52,"inst":"piano_v0_additive_0","vel":1.0,"bend":0.0,"ch":4,"track":1},{"t":7.638,"dur":0.114,"note":40,"inst":"piano_v0_additive_0","vel":1.0,"bend":0.0,"ch":8,"track":1},{"t":7.752,"dur":0.114,"note":52,"inst":"piano_v0_additive_0","vel":1.0,"bend":0.0,"ch":4,"track":1},{"t":7.866,"dur":0.114,"note":40,"inst":"piano_v0_additive_0","vel":1.0,"bend":0.0,"ch":8,"track":1},{"t":7.98,"dur":0.685,"note":35,"inst":"celesta_v0_additive_3","vel":1.0,"bend":0.0,"ch":3,"track":1},{"t":7.98,"dur":0.342,"note":47,"inst":"celesta_v0_additive_3","vel":1.0,"bend":0.0,"ch":15,"track":1},{"t":8.322,"dur":0.342,"note":52,"inst":"piano_v0_additive_0","vel":1.0,"bend":0.0,"ch":4,"track":1},{"t":8.665,"dur":0.685,"note":35,"inst":"celesta_v0_additive_3","vel":1.0,"bend":0.0,"ch":3,"track":1},{"t":8.665,"dur":0.342,"note":59,"inst":"celesta_v0_additive_3","vel":1.0,"bend":0.0,"ch":11,"track":1},{"t":9.007,"dur":0.114,"note":59,"inst":"celesta_v0_additive_3","vel":1.0,"bend":0.0,"ch":11,"track":1},{"t":9.121,"dur":0.114,"note":52,"inst":"piano_v0_additive_0","vel":1.0,"bend":0.0,"ch":4,"track":1},{"t":9.235,"dur":0.114,"note":59,"inst":"celesta_v0_additive_3","vel":1.0,"bend":0.0,"ch":11,"track":1},{"t":9.349,"dur":0.685,"note":35,"inst":"celesta_v0_additive_3","vel":1.0,"bend":0.0,"ch":3,"track":1},{"t":9.349,"dur":0.342,"note":59,"inst":"celesta_v0_additive_3","vel":1.0,"bend":0.0,"ch":11,"track":1},{"t":9.692,"dur":0.342,"note":59,"inst":"celesta_v0_additive_3","vel":1.0,"bend":0.0,"ch":11,"track":1},{"t":10.034,"dur":0.685,"note":28,"inst":"piano_v0_additive_0","vel":1.0,"bend":0.0,"ch":12,"track":1},{"t":10.034,"dur":0.342,"note":64,"inst":"piano_v0_additive_0","vel":1.0,"bend":0.0,"ch":0,"track":1},{"t":10.377,"dur":0.342,"note":52,"inst":"piano_v0_additive_0","vel":1.0,"bend":0.0,"ch":4,"track":1},{"t":10.719,"dur":0.685,"note":35,"inst":"celesta_v0_additive_3","vel":1.0,"bend":0.0,"ch":3,"track":1},{"t":10.719,"dur":0.342,"note":59,"inst":"celesta_v0_additive_3","vel":1.0,"bend":0.0,"ch":11,"track":1},{"t":11.061,"dur":0.342,"note":59,"inst":"celesta_v0_additive_3","vel":1.0,"bend":0.0,"ch":11,"track":1},{"t":11.404,"dur":0.685,"note":28,"inst":"piano_v0_additive_0","vel":1.0,"bend":0.0,"ch":12,"track":1},{"t":11.404,"dur":0.342,"note":59,"inst":"celesta_v0_additive_3","vel":1.0,"bend":0.0,"ch":11,"track":1},{"t":11.746,"dur":0.114,"note":59,"inst":"celesta_v0_additive_3","vel":1.0,"bend":0.0,"ch":11,"track":1},{"t":11.86,"dur":0.114,"note":59,"inst":"celesta_v0_additive_3","vel":1.0,"bend":0.0,"ch":11,"track":1},{"t":11.974,"dur":0.114,"note":59,"inst":"celesta_v0_additive_3","vel":1.0,"bend":0.0,"ch":11,"track":1},{"t":12.089,"dur":0.685,"note":28,"inst":"piano_v0_additive_0","vel":1.0,"bend":0.0,"ch":12,"track":1},{"t":12.089,"dur":0.342,"note":59,"inst":"celesta_v0_additive_3","vel":1.0,"bend":0.0,"ch":11,"track":1},{"t":12.431,"dur":0.342,"note":59,"inst":"celesta_v0_additive_3","vel":1.0,"bend":0.0,"ch":11,"track":1},{"t":12.773,"dur":0.685,"note":24,"inst":"piano_v0_additive_0","vel":1.0,"bend":0.0,"ch":8,"track":1},{"t":12.773,"dur":0.342,"note":52,"inst":"piano_v0_additive_0","vel":1.0,"bend":0.0,"ch":4,"track":1},{"t":13.116,"dur":0.342,"note":59,"inst":"celesta_v0_additive_3","vel":1.0,"bend":0.0,"ch":11,"track":1},{"t":13.458,"dur":0.685,"note":28,"inst":"piano_v0_additive_0","vel":1.0,"bend":0.0,"ch":12,"track":1},{"t":13.458,"dur":0.342,"note":59,"inst":"celesta_v0_additive_3","vel":1.0,"bend":0.0,"ch":11,"track":1},{"t":13.8,"dur":0.342,"note":59,"inst":"celesta_v0_additive_3","vel":1.0,"bend":0.0,"ch":11,"track":1},{"t":14.143,"dur":0.685,"note":28,"inst":"piano_v0_additive_0","vel":1.0,"bend":0.0,"ch":12,"track":1},{"t":14.143,"dur":0.342,"note":59,"inst":"celesta_v0_additive_3","vel":1.0,"bend":0.0,"ch":11,"track":1},{"t":14.485,"dur":0.114,"note":59,"inst":"celesta_v0_additive_3","vel":1.0,"bend":0.0,"ch":11,"track":1},{"t":14.599,"dur":0.114,"note":59,"inst":"celesta_v0_additive_3","vel":1.0,"bend":0.0,"ch":11,"track":1},{"t":14.713,"dur":0.114,"note":59,"inst":"celesta_v0_additive_3","vel":1.0,"bend":0.0,"ch":11,"track":1},{"t":14.828,"dur":0.685,"note":24,"inst":"piano_v0_additive_0","vel":1.0,"bend":0.0,"ch":8,"track":1},{"t":14.828,"dur":0.342,"note":59,"inst":"celesta_v0_additive_3","vel":1.0,"bend":0.0,"ch":11,"track":1},{"t":15.17,"dur":0.342,"note":59,"inst":"celesta_v0_additive_3","vel":1.0,"bend":0.0,"ch":11,"track":1},{"t":15.512,"dur":0.685,"note":24,"inst":"piano_v0_additive_0","vel":1.0,"bend":0.0,"ch":8,"track":1},{"t":15.512,"dur":0.342,"note":59,"inst":"celesta_v0_additive_3","vel":1.0,"bend":0.0,"ch":11,"track":1},{"t":15.855,"dur":0.342,"note":52,"inst":"piano_v0_additive_0","vel":1.0,"bend":0.0,"ch":4,"track":1},{"t":16.197,"dur":0.685,"note":28,"inst":"piano_v0_additive_0","vel":1.0,"bend":0.0,"ch":12,"track":1},{"t":16.197,"dur":0.342,"note":52,"inst":"piano_v0_additive_0","vel":1.0,"bend":0.0,"ch":4,"track":1},{"t":16.539,"dur":0.342,"note":64,"inst":"piano_v0_additive_0","vel":1.0,"bend":0.0,"ch":0,"track":1},{"t":16.882,"dur":0.685,"note":28,"inst":"piano_v0_additive_0","vel":1.0,"bend":0.0,"ch":12,"track":1},{"t":16.882,"dur":0.342,"note":64,"inst":"piano_v0_additive_0","vel":1.0,"bend":0.0,"ch":0,"track":1},{"t":17.224,"dur":0.114,"note":52,"inst":"piano_v0_additive_0","vel":1.0,"bend":0.0,"ch":4,"track":1},{"t":17.338,"dur":0.114,"note":59,"inst":"celesta_v0_additive_3","vel":1.0,"bend":0.0,"ch":11,"track":1},{"t":17.453,"dur":0.114,"note":52,"inst":"piano_v0_additive_0","vel":1.0,"bend":0.0,"ch":4,"track":1},{"t":17.567,"dur":0.685,"note":28,"inst":"piano_v0_additive_0","vel":1.0,"bend":0.0,"ch":12,"track":1},{"t":17.567,"dur":0.342,"note":52,"inst":"piano_v0_additive_0","vel":1.0,"bend":0.0,"ch":4,"track":1},{"t":17.909,"dur":0.342,"note":59,"inst":"celesta_v0_additive_3","vel":1.0,"bend":0.0,"ch":11,"track":1},{"t":18.251,"dur":0.685,"note":28,"inst":"piano_v0_additive_0","vel":1.0,"bend":0.0,"ch":12,"track":1},{"t":18.251,"dur":0.342,"note":59,"inst":"celesta_v0_additive_3","vel":1.0,"bend":0.0,"ch":11,"track":1},{"t":18.594,"dur":0.342,"note":52,"inst":"piano_v0_additive_0","vel":1.0,"bend":0.0,"ch":4,"track":1},{"t":18.936,"dur":0.685,"note":35,"inst":"celesta_v0_additive_3","vel":1.0,"bend":0.0,"ch":3,"track":1},{"t":18.936,"dur":0.685,"note":59,"inst":"celesta_v0_additive_3","vel":1.0,"bend":0.0,"ch":11,"track":1},{"t":19.621,"dur":0.342,"note":71,"inst":"celesta_v0_additive_3","vel":1.0,"bend":0.0,"ch":7,"track":1},{"t":19.963,"dur":0.114,"note":71,"inst":"celesta_v0_additive_3","vel":1.0,"bend":0.0,"ch":7,"track":1},{"t":20.077,"dur":0.114,"note":71,"inst":"celesta_v0_additive_3","vel":1.0,"bend":0.0,"ch":7,"track":1},{"t":20.192,"dur":0.114,"note":71,"inst":"celesta_v0_additive_3","vel":1.0,"bend":0.0,"ch":7,"track":1},{"t":20.306,"dur":0.685,"note":28,"inst":"piano_v0_additive_0","vel":1.0,"bend":0.0,"ch":12,"track":1},{"t":20.306,"dur":0.342,"note":71,"inst":"celesta_v0_additive_3","vel":1.0,"bend":0.0,"ch":7,"track":1},{"t":20.648,"dur":0.342,"note":71,"inst":"celesta_v0_additive_3","vel":1.0,"bend":0.0,"ch":7,"track":1},{"t":20.99,"dur":0.685,"note":24,"inst":"piano_v0_additive_0","vel":1.0,"bend":0.0,"ch":8,"track":1},{"t":20.99,"dur":0.342,"note":71,"inst":"celesta_v0_additive_3","vel":1.0,"bend":0.0,"ch":7,"track":1},{"t":21.333,"dur":0.114,"note":64,"inst":"piano_v0_additive_0","vel":1.0,"bend":0.0,"ch":0,"track":1},{"t":21.447,"dur":0.114,"note":71,"inst":"celesta_v0_additive_3","vel":1.0,"bend":0.0,"ch":7,"track":1},{"t":21.561,"dur":0.114,"note":64,"inst":"piano_v0_additive_0","vel":1.0,"bend":0.0,"ch":0,"track":1},{"t":21.675,"dur":0.685,"note":28,"inst":"piano_v0_additive_0","vel":1.0,"bend":0.0,"ch":12,"track":1},{"t":21.675,"dur":0.342,"note":64,"inst":"piano_v0_additive_0","vel":1.0,"bend":0.0,"ch":0,"track":1},{"t":22.018,"dur":0.342,"note":71,"inst":"celesta_v0_additive_3","vel":1.0,"bend":0.0,"ch":7,"track":1},{"t":22.36,"dur":0.685,"note":24,"inst":"piano_v0_additive_0","vel":1.0,"bend":0.0,"ch":8,"track":1},{"t":22.36,"dur":0.342,"note":71,"inst":"celesta_v0_additive_3","vel":1.0,"bend":0.0,"ch":7,"track":1},{"t":22.702,"dur":0.342,"note":64,"inst":"piano_v0_additive_0","vel":1.0,"bend":0.0,"ch":0,"track":1},{"t":23.045,"dur":0.685,"note":28,"inst":"piano_v0_additive_0","vel":1.0,"bend":0.0,"ch":12,"track":1},{"t":23.045,"dur":0.171,"note":59,"inst":"celesta_v0_additive_3","vel":1.0,"bend":0.0,"ch":11,"track":1},{"t":23.216,"dur":0.171,"note":59,"inst":"celesta_v0_additive_3","vel":1.0,"bend":0.0,"ch":11,"track":1},{"t":23.387,"dur":0.171,"note":59,"inst":"celesta_v0_additive_3","vel":1.0,"bend":0.0,"ch":11,"track":1},{"t":23.558,"dur":0.171,"note":59,"inst":"celesta_v0_additive_3","vel":1.0,"bend":0.0,"ch":11,"track":1},{"t":23.729,"dur":0.685,"note":24,"inst":"piano_v0_additive_0","vel":1.0,"bend":0.0,"ch":8,"track":1},{"t":23.729,"dur":0.171,"note":52,"inst":"piano_v0_additive_0","vel":1.0,"bend":0.0,"ch":4,"track":1},{"t":23.901,"dur":0.171,"note":64,"inst":"piano_v0_additive_0","vel":1.0,"bend":0.0,"ch":0,"track":1},{"t":24.072,"dur":0.171,"note":64,"inst":"piano_v0_additive_0","vel":1.0,"bend":0.0,"ch":0,"track":1},{"t":24.243,"dur":0.171,"note":71,"inst":"celesta_v0_additive_3","vel":1.0,"bend":0.0,"ch":7,"track":1},{"t":24.414,"dur":0.685,"note":28,"inst":"piano_v0_additive_0","vel":1.0,"bend":0.0,"ch":12,"track":1},{"t":24.414,"dur":0.685,"note":71,"inst":"celesta_v0_additive_3","vel":1.0,"bend":0.0,"ch":7,"track":1},{"t":42.088,"dur":0.112,"note":53,"inst":"organ_v0_additive_1","vel":0.543,"bend":0.0,"ch":5,"track":1},{"t":42.2,"dur":0.112,"note":65,"inst":"organ_v0_additive_1","vel":0.646,"bend":0.0,"ch":1,"track":1},{"t":42.312,"dur":0.112,"note":53,"inst":"organ_v0_additive_1","vel":0.535,"bend":0.0,"ch":5,"track":1},{"t":42.424,"dur":0.112,"note":65,"inst":"organ_v0_additive_1","vel":0.661,"bend":0.0,"ch":1,"track":1},{"t":42.536,"dur":0.112,"note":53,"inst":"organ_v0_additive_1","vel":0.528,"bend":0.0,"ch":5,"track":1},{"t":42.649,"dur":0.112,"note":65,"inst":"organ_v0_additive_1","vel":0.646,"bend":0.0,"ch":1,"track":1},{"t":42.761,"dur":0.112,"note":53,"inst":"organ_v0_additive_1","vel":0.512,"bend":0.0,"ch":5,"track":1},{"t":42.761,"dur":0.224,"note":82,"inst":"harpsichord_v0_additive_2","vel":0.551,"bend":0.0,"ch":2,"track":1},{"t":42.761,"dur":0.224,"note":84,"inst":"piano_v0_additive_0","vel":0.551,"bend":0.0,"ch":4,"track":1},{"t":42.761,"dur":0.224,"note":89,"inst":"organ_v0_additive_1","vel":0.551,"bend":0.0,"ch":9,"track":1},{"t":42.873,"dur":0.112,"note":65,"inst":"organ_v0_additive_1","vel":0.669,"bend":0.0,"ch":1,"track":1},{"t":42.985,"dur":0.112,"note":53,"inst":"organ_v0_additive_1","vel":0.559,"bend":0.0,"ch":5,"track":1},{"t":42.985,"dur":3.59,"note":80,"inst":"piano_v0_additive_0","vel":0.575,"bend":0.0,"ch":0,"track":1},{"t":42.985,"dur":3.59,"note":84,"inst":"piano_v0_additive_0","vel":0.575,"bend":0.0,"ch":4,"track":1},{"t":42.985,"dur":3.59,"note":89,"inst":"organ_v0_additive_1","vel":0.575,"bend":0.0,"ch":9,"track":1},{"t":43.097,"dur":0.112,"note":65,"inst":"organ_v0_additive_1","vel":0.685,"bend":0.0,"ch":1,"track":1},{"t":43.209,"dur":0.112,"note":53,"inst":"organ_v0_additive_1","vel":0.535,"bend":0.0,"ch":5,"track":1},{"t":43.322,"dur":0.112,"note":65,"inst":"organ_v0_additive_1","vel":0.677,"bend":0.0,"ch":1,"track":1},{"t":43.434,"dur":0.112,"note":53,"inst":"organ_v0_additive_1","vel":0.52,"bend":0.0,"ch":5,"track":1},{"t":43.546,"dur":0.112,"note":65,"inst":"organ_v0_additive_1","vel":0.661,"bend":0.0,"ch":1,"track":1},{"t":43.658,"dur":0.112,"note":53,"inst":"organ_v0_additive_1","vel":0.512,"bend":0.0,"ch":5,"track":1},{"t":43.77,"dur":0.112,"note":65,"inst":"organ_v0_additive_1","vel":0.677,"bend":0.0,"ch":1,"track":1},{"t":43.883,"dur":0.112,"note":53,"inst":"organ_v0_additive_1","vel":0.551,"bend":0.0,"ch":5,"track":1},{"t":43.995,"dur":0.112,"note":65,"inst":"organ_v0_additive_1","vel":0.677,"bend":0.0,"ch":1,"track":1},{"t":44.107,"dur":0.112,"note":53,"inst":"organ_v0_additive_1","vel":0.504,"bend":0.0,"ch":5,"track":1},{"t":44.219,"dur":0.112,"note":65,"inst":"organ_v0_additive_1","vel":0.685,"bend":0.0,"ch":1,"track":1},{"t":44.331,"dur":0.112,"note":53,"inst":"organ_v0_additive_1","vel":0.488,"bend":0.0,"ch":5,"track":1},{"t":44.443,"dur":0.112,"note":65,"inst":"organ_v0_additive_1","vel":0.693,"bend":0.0,"ch":1,"track":1},{"t":44.556,"dur":0.112,"note":53,"inst":"organ_v0_additive_1","vel":0.512,"bend":0.0,"ch":5,"track":1},{"t":44.668,"dur":0.112,"note":65,"inst":"organ_v0_additive_1","vel":0.661,"bend":0.0,"ch":1,"track":1},{"t":44.78,"dur":0.224,"note":53,"inst":"organ_v0_additive_1","vel":0.598,"bend":0.0,"ch":5,"track":1},{"t":44.78,"dur":0.224,"note":65,"inst":"organ_v0_additive_1","vel":0.598,"bend":0.0,"ch":1,"track":1},{"t":45.004,"dur":0.224,"note":48,"inst":"piano_v0_additive_0","vel":0.559,"bend":0.0,"ch":0,"track":1},{"t":45.004,"dur":0.224,"note":60,"inst":"piano_v0_additive_0","vel":0.559,"bend":0.0,"ch":12,"track":1},{"t":45.229,"dur":0.224,"note":53,"inst":"organ_v0_additive_1","vel":0.638,"bend":0.0,"ch":5,"track":1},{"t":45.229,"dur":0.224,"note":65,"inst":"organ_v0_additive_1","vel":0.638,"bend":0.0,"ch":1,"track":1},{"t":45.453,"dur":0.224,"note":48,"inst":"piano_v0_additive_0","vel":0.559,"bend":0.0,"ch":0,"track":1},{"t":45.453,"dur":0.224,"note":60,"inst":"piano_v0_additive_0","vel":0.559,"bend":0.0,"ch":12,"track":1},{"t":45.677,"dur":0.224,"note":53,"inst":"organ_v0_additive_1","vel":0.654,"bend":0.0,"ch":5,"track":1},{"t":45.677,"dur":0.224,"note":65,"inst":"organ_v0_additive_1","vel":0.654,"bend":0.0,"ch":1,"track":1},{"t":45.902,"dur":0.224,"note":48,"inst":"piano_v0_additive_0","vel":0.559,"bend":0.0,"ch":0,"track":1},{"t":45.902,"dur":0.224,"note":60,"inst":"piano_v0_additive_0","vel":0.559,"bend":0.0,"ch":12,"track":1},{"t":46.126,"dur":0.224,"note":53,"inst":"organ_v0_additive_1","vel":0.622,"bend":0.0,"ch":5,"track":1},{"t":46.126,"dur":0.224,"note":65,"inst":"organ_v0_additive_1","vel":0.622,"bend":0.0,"ch":1,"track":1},{"t":46.35,"dur":0.224,"note":48,"inst":"piano_v0_additive_0","vel":0.567,"bend":0.0,"ch":0,"track":1},{"t":46.35,"dur":0.224,"note":60,"inst":"piano_v0_additive_0","vel":0.567,"bend":0.0,"ch":12,"track":1},{"t":46.575,"dur":0.112,"note":53,"inst":"organ_v0_additive_1","vel":0.543,"bend":0.0,"ch":5,"track":1},{"t":46.575,"dur":1.795,"note":77,"inst":"organ_v0_additive_1","vel":0.433,"bend":0.0,"ch":13,"track":1},{"t":46.687,"dur":0.112,"note":65,"inst":"organ_v0_additive_1","vel":0.677,"bend":0.0,"ch":1,"track":1},{"t":46.799,"dur":0.112,"note":53,"inst":"organ_v0_additive_1","vel":0.535,"bend":0.0,"ch":5,"track":1},{"t":46.911,"dur":0.112,"note":65,"inst":"organ_v0_additive_1","vel":0.646,"bend":0.0,"ch":1,"track":1},{"t":47.024,"dur":0.112,"note":53,"inst":"organ_v0_additive_1","vel":0.543,"bend":0.0,"ch":5,"track":1},{"t":47.136,"dur":0.112,"note":65,"inst":"organ_v0_additive_1","vel":0.646,"bend":0.0,"ch":1,"track":1},{"t":47.248,"dur":0.112,"note":53,"inst":"organ_v0_additive_1","vel":0.535,"bend":0.0,"ch":5,"track":1},{"t":47.36,"dur":0.112,"note":65,"inst":"organ_v0_additive_1","vel":0.669,"bend":0.0,"ch":1,"track":1},{"t":47.472,"dur":0.112,"note":53,"inst":"organ_v0_additive_1","vel":0.496,"bend":0.0,"ch":5,"track":1},{"t":47.584,"dur":0.112,"note":65,"inst":"organ_v0_additive_1","vel":0.654,"bend":0.0,"ch":1,"track":1},{"t":47.697,"dur":0.112,"note":53,"inst":"organ_v0_additive_1","vel":0.512,"bend":0.0,"ch":5,"track":1},{"t":47.809,"dur":0.112,"note":65,"inst":"organ_v0_additive_1","vel":0.646,"bend":0.0,"ch":1,"track":1},{"t":47.921,"dur":0.112,"note":53,"inst":"organ_v0_additive_1","vel":0.535,"bend":0.0,"ch":5,"track":1},{"t":48.033,"dur":0.112,"note":65,"inst":"organ_v0_additive_1","vel":0.646,"bend":0.0,"ch":1,"track":1},{"t":48.145,"dur":0.112,"note":53,"inst":"organ_v0_additive_1","vel":0.535,"bend":0.0,"ch":5,"track":1},{"t":48.258,"dur":0.112,"note":65,"inst":"organ_v0_additive_1","vel":0.622,"bend":0.0,"ch":1,"track":1},{"t":48.37,"dur":0.112,"note":53,"inst":"organ_v0_additive_1","vel":0.52,"bend":0.0,"ch":5,"track":1},{"t":48.37,"dur":1.795,"note":84,"inst":"piano_v0_additive_0","vel":0.677,"bend":0.0,"ch":4,"track":1},{"t":48.482,"dur":0.112,"note":65,"inst":"organ_v0_additive_1","vel":0.693,"bend":0.0,"ch":1,"track":1},{"t":48.594,"dur":0.112,"note":53,"inst":"organ_v0_additive_1","vel":0.512,"bend":0.0,"ch":5,"track":1},{"t":48.706,"dur":0.112,"note":65,"inst":"organ_v0_additive_1","vel":0.693,"bend":0.0,"ch":1,"track":1},{"t":48.818,"dur":0.112,"note":53,"inst":"organ_v0_additive_1","vel":0.496,"bend":0.0,"ch":5,"track":1},{"t":48.931,"dur":0.112,"note":65,"inst":"organ_v0_additive_1","vel":0.654,"bend":0.0,"ch":1,"track":1},{"t":49.043,"dur":0.112,"note":53,"inst":"organ_v0_additive_1","vel":0.528,"bend":0.0,"ch":5,"track":1},{"t":49.155,"dur":0.112,"note":65,"inst":"organ_v0_additive_1","vel":0.646,"bend":0.0,"ch":1,"track":1},{"t":49.267,"dur":0.112,"note":53,"inst":"organ_v0_additive_1","vel":0.496,"bend":0.0,"ch":5,"track":1},{"t":49.379,"dur":0.112,"note":65,"inst":"organ_v0_additive_1","vel":0.63,"bend":0.0,"ch":1,"track":1},{"t":49.492,"dur":0.112,"note":53,"inst":"organ_v0_additive_1","vel":0.528,"bend":0.0,"ch":5,"track":1},{"t":49.604,"dur":0.112,"note":65,"inst":"organ_v0_additive_1","vel":0.677,"bend":0.0,"ch":1,"track":1},{"t":49.716,"dur":0.112,"note":53,"inst":"organ_v0_additive_1","vel":0.488,"bend":0.0,"ch":5,"track":1},{"t":49.828,"dur":0.112,"note":65,"inst":"organ_v0_additive_1","vel":0.685,"bend":0.0,"ch":1,"track":1},{"t":49.94,"dur":0.112,"note":53,"inst":"organ_v0_additive_1","vel":0.52,"bend":0.0,"ch":5,"track":1},{"t":50.052,"dur":0.112,"note":65,"inst":"organ_v0_additive_1","vel":0.654,"bend":0.0,"ch":1,"track":1},{"t":50.165,"dur":0.112,"note":53,"inst":"organ_v0_additive_1","vel":0.52,"bend":0.0,"ch":5,"track":1},{"t":50.165,"dur":1.346,"note":89,"inst":"organ_v0_additive_1","vel":0.669,"bend":0.0,"ch":9,"track":1},{"t":50.277,"dur":0.112,"note":65,"inst":"organ_v0_additive_1","vel":0.669,"bend":0.0,"ch":1,"track":1},{"t":50.389,"dur":0.112,"note":53,"inst":"organ_v0_additive_1","vel":0.48,"bend":0.0,"ch":5,"track":1},{"t":50.501,"dur":0.112,"note":65,"inst":"organ_v0_additive_1","vel":0.669,"bend":0.0,"ch":1,"track":1},{"t":50.613,"dur":0.112,"note":53,"inst":"organ_v0_additive_1","vel":0.496,"bend":0.0,"ch":5,"track":1},{"t":50.725,"dur":0.112,"note":65,"inst":"organ_v0_additive_1","vel":0.669,"bend":0.0,"ch":1,"track":1},{"t":50.838,"dur":0.112,"note":53,"inst":"organ_v0_additive_1","vel":0.52,"bend":0.0,"ch":5,"track":1},{"t":50.95,"dur":0.112,"note":65,"inst":"organ_v0_additive_1","vel":0.677,"bend":0.0,"ch":1,"track":1},{"t":51.062,"dur":0.112,"note":53,"inst":"organ_v0_additive_1","vel":0.543,"bend":0.0,"ch":5,"track":1},{"t":51.174,"dur":0.112,"note":65,"inst":"organ_v0_additive_1","vel":0.646,"bend":0.0,"ch":1,"track":1},{"t":51.286,"dur":0.112,"note":53,"inst":"organ_v0_additive_1","vel":0.496,"bend":0.0,"ch":5,"track":1},{"t":51.399,"dur":0.112,"note":65,"inst":"organ_v0_additive_1","vel":0.709,"bend":0.0,"ch":1,"track":1},{"t":51.511,"dur":0.112,"note":53,"inst":"organ_v0_additive_1","vel":0.512,"bend":0.0,"ch":5,"track":1},{"t":51.623,"dur":0.112,"note":65,"inst":"organ_v0_additive_1","vel":0.685,"bend":0.0,"ch":1,"track":1},{"t":51.735,"dur":0.112,"note":53,"inst":"organ_v0_additive_1","vel":0.52,"bend":0.0,"ch":5,"track":1},{"t":51.735,"dur":0.224,"note":80,"inst":"piano_v0_additive_0","vel":0.567,"bend":0.0,"ch":0,"track":1},{"t":51.735,"dur":0.224,"note":84,"inst":"piano_v0_additive_0","vel":0.567,"bend":0.0,"ch":4,"track":1},{"t":51.735,"dur":0.224,"note":89,"inst":"organ_v0_additive_1","vel":0.567,"bend":0.0,"ch":9,"track":1},{"t":51.847,"dur":0.112,"note":65,"inst":"organ_v0_additive_1","vel":0.677,"bend":0.0,"ch":1,"track":1},{"t":51.959,"dur":0.112,"note":53,"inst":"organ_v0_additive_1","vel":0.488,"bend":0.0,"ch":5,"track":1},{"t":51.959,"dur":3.59,"note":82,"inst":"harpsichord_v0_additive_2","vel":0.614,"bend":0.0,"ch":2,"track":1},{"t":51.959,"dur":3.59,"note":84,"inst":"piano_v0_additive_0","vel":0.614,"bend":0.0,"ch":4,"track":1},{"t":51.959,"dur":3.59,"note":89,"inst":"organ_v0_additive_1","vel":0.614,"bend":0.0,"ch":9,"track":1},{"t":52.072,"dur":0.112,"note":65,"inst":"organ_v0_additive_1","vel":0.669,"bend":0.0,"ch":1,"track":1},{"t":52.184,"dur":0.112,"note":53,"inst":"organ_v0_additive_1","vel":0.551,"bend":0.0,"ch":5,"track":1},{"t":52.296,"dur":0.112,"note":65,"inst":"organ_v0_additive_1","vel":0.685,"bend":0.0,"ch":1,"track":1},{"t":52.408,"dur":0.112,"note":53,"inst":"organ_v0_additive_1","vel":0.551,"bend":0.0,"ch":5,"track":1},{"t":52.52,"dur":0.112,"note":65,"inst":"organ_v0_additive_1","vel":0.701,"bend":0.0,"ch":1,"track":1},{"t":52.633,"dur":0.112,"note":53,"inst":"organ_v0_additive_1","vel":0.504,"bend":0.0,"ch":5,"track":1},{"t":52.745,"dur":0.112,"note":65,"inst":"organ_v0_additive_1","vel":0.693,"bend":0.0,"ch":1,"track":1},{"t":52.857,"dur":0.112,"note":53,"inst":"organ_v0_additive_1","vel":0.535,"bend":0.0,"ch":5,"track":1},{"t":52.969,"dur":0.112,"note":65,"inst":"organ_v0_additive_1","vel":0.654,"bend":0.0,"ch":1,"track":1},{"t":53.081,"dur":0.112,"note":53,"inst":"organ_v0_additive_1","vel":0.535,"bend":0.0,"ch":5,"track":1},{"t":53.193,"dur":0.112,"note":65,"inst":"organ_v0_additive_1","vel":0.654,"bend":0.0,"ch":1,"track":1},{"t":53.306,"dur":0.112,"note":53,"inst":"organ_v0_additive_1","vel":0.496,"bend":0.0,"ch":5,"track":1},{"t":53.418,"dur":0.112,"note":65,"inst":"organ_v0_additive_1","vel":0.685,"bend":0.0,"ch":1,"track":1},{"t":53.53,"dur":0.112,"note":53,"inst":"organ_v0_additive_1","vel":0.535,"bend":0.0,"ch":5,"track":1},{"t":53.642,"dur":0.112,"note":65,"inst":"organ_v0_additive_1","vel":0.638,"bend":0.0,"ch":1,"track":1},{"t":53.754,"dur":0.224,"note":53,"inst":"organ_v0_additive_1","vel":0.583,"bend":0.0,"ch":5,"track":1},{"t":53.754,"dur":0.224,"note":65,"inst":"organ_v0_additive_1","vel":0.583,"bend":0.0,"ch":1,"track":1},{"t":53.979,"dur":0.224,"note":48,"inst":"piano_v0_additive_0","vel":0.575,"bend":0.0,"ch":0,"track":1},{"t":53.979,"dur":0.224,"note":60,"inst":"piano_v0_additive_0","vel":0.575,"bend":0.0,"ch":12,"track":1},{"t":54.203,"dur":0.224,"note":53,"inst":"organ_v0_additive_1","vel":0.669,"bend":0.0,"ch":5,"track":1},{"t":54.203,"dur":0.224,"note":65,"inst":"organ_v0_additive_1","vel":0.669,"bend":0.0,"ch":1,"track":1},{"t":54.427,"dur":0.224,"note":48,"inst":"piano_v0_additive_0","vel":0.567,"bend":0.0,"ch":0,"track":1},{"t":54.427,"dur":0.224,"note":60,"inst":"piano_v0_additive_0","vel":0.567,"bend":0.0,"ch":12,"track":1},{"t":126.109,"dur":0.17,"note":64,"inst":"piano_v0_additive_0","vel":0.709,"bend":0.0,"ch":0,"track":1},{"t":126.279,"dur":0.681,"note":47,"inst":"celesta_v0_additive_3","vel":0.709,"bend":0.0,"ch":15,"track":1},{"t":126.279,"dur":0.681,"note":47,"inst":"celesta_v0_additive_3","vel":0.709,"bend":0.0,"ch":15,"track":1},{"t":126.279,"dur":0.34,"note":62,"inst":"harpsichord_v0_additive_2","vel":0.709,"bend":0.0,"ch":14,"track":1},{"t":126.62,"dur":1.021,"note":65,"inst":"organ_v0_additive_1","vel":0.709,"bend":0.0,"ch":1,"track":1},{"t":126.62,"dur":0.17,"note":71,"inst":"celesta_v0_additive_3","vel":0.709,"bend":0.0,"ch":7,"track":1},{"t":126.79,"dur":0.17,"note":69,"inst":"organ_v0_additive_1","vel":0.709,"bend":0.0,"ch":5,"track":1},{"t":126.96,"dur":0.34,"note":35,"inst":"celesta_v0_additive_3","vel":0.709,"bend":0.0,"ch":3,"track":1},{"t":126.96,"dur":0.34,"note":35,"inst":"celesta_v0_additive_3","vel":0.709,"bend":0.0,"ch":3,"track":1},{"t":126.96,"dur":0.17,"note":67,"inst":"celesta_v0_additive_3","vel":0.709,"bend":0.0,"ch":3,"track":1},{"t":127.13,"dur":0.17,"note":65,"inst":"organ_v0_additive_1","vel":0.709,"bend":0.0,"ch":1,"track":1},{"t":127.3,"dur":0.681,"note":40,"inst":"piano_v0_additive_0","vel":0.709,"bend":0.0,"ch":8,"track":1},{"t":127.3,"dur":0.681,"note":40,"inst":"piano_v0_additive_0","vel":0.709,"bend":0.0,"ch":8,"track":1},{"t":127.3,"dur":0.681,"note":67,"inst":"celesta_v0_additive_3","vel":0.709,"bend":0.0,"ch":3,"track":1},{"t":127.641,"dur":0.34,"note":59,"inst":"celesta_v0_additive_3","vel":0.709,"bend":0.0,"ch":11,"track":1},{"t":127.981,"dur":0.34,"note":40,"inst":"piano_v0_additive_0","vel":0.709,"bend":0.0,"ch":8,"track":1},{"t":127.981,"dur":0.34,"note":40,"inst":"piano_v0_additive_0","vel":0.709,"bend":0.0,"ch":8,"track":1},{"t":127.981,"dur":0.681,"note":64,"inst":"piano_v0_additive_0","vel":0.709,"bend":0.0,"ch":0,"track":1},{"t":127.981,"dur":0.34,"note":67,"inst":"celesta_v0_additive_3","vel":0.709,"bend":0.0,"ch":3,"track":1},{"t":128.321,"dur":0.681,"note":41,"inst":"organ_v0_additive_1","vel":0.709,"bend":0.0,"ch":9,"track":1},{"t":128.321,"dur":0.681,"note":41,"inst":"organ_v0_additive_1","vel":0.709,"bend":0.0,"ch":9,"track":1},{"t":128.321,"dur":0.681,"note":57,"inst":"organ_v0_additive_1","vel":0.709,"bend":0.0,"ch":9,"track":1},{"t":128.662,"dur":0.681,"note":62,"inst":"harpsichord_v0_additive_2","vel":0.709,"bend":0.0,"ch":14,"track":1},{"t":129.002,"dur":0.681,"note":40,"inst":"piano_v0_additive_0","vel":0.709,"bend":0.0,"ch":8,"track":1},{"t":129.002,"dur":0.681,"note":40,"inst":"piano_v0_additive_0","vel":0.709,"bend":0.0,"ch":8,"track":1},{"t":129.002,"dur":0.681,"note":59,"inst":"celesta_v0_additive_3","vel":0.709,"bend":0.0,"ch":11,"track":1},{"t":129.343,"dur":0.34,"note":60,"inst":"piano_v0_additive_0","vel":0.709,"bend":0.0,"ch":12,"track":1},{"t":129.683,"dur":0.681,"note":41,"inst":"organ_v0_additive_1","vel":0.709,"bend":0.0,"ch":9,"track":1},{"t":129.683,"dur":0.681,"note":41,"inst":"organ_v0_additive_1","vel":0.709,"bend":0.0,"ch":9,"track":1},{"t":129.683,"dur":0.511,"note":59,"inst":"celesta_v0_additive_3","vel":0.709,"bend":0.0,"ch":11,"track":1},{"t":129.683,"dur":0.681,"note":60,"inst":"piano_v0_additive_0","vel":0.709,"bend":0.0,"ch":12,"track":1},{"t":130.194,"dur":0.17,"note":57,"inst":"organ_v0_additive_1","vel":0.709,"bend":0.0,"ch":9,"track":1},{"t":130.364,"dur":0.681,"note":35,"inst":"celesta_v0_additive_3","vel":0.709,"bend":0.0,"ch":3,"track":1},{"t":130.364,"dur":0.681,"note":35,"inst":"celesta_v0_additive_3","vel":0.709,"bend":0.0,"ch":3,"track":1},{"t":130.364,"dur":0.34,"note":59,"inst":"celesta_v0_additive_3","vel":0.709,"bend":0.0,"ch":11,"track":1},{"t":130.364,"dur":0.681,"note":59,"inst":"celesta_v0_additive_3","vel":0.709,"bend":0.0,"ch":11,"track":1},{"t":130.704,"dur":0.17,"note":71,"inst":"celesta_v0_additive_3","vel":0.709,"bend":0.0,"ch":7,"track":1},{"t":130.874,"dur":0.17,"note":72,"inst":"piano_v0_additive_0","vel":0.709,"bend":0.0,"ch":8,"track":1},{"t":131.044,"dur":0.34,"note":59,"inst":"celesta_v0_additive_3","vel":0.709,"bend":0.0,"ch":11,"track":1},{"t":131.044,"dur":0.34,"note":59,"inst":"celesta_v0_additive_3","vel":0.709,"bend":0.0,"ch":11,"track":1},{"t":131.044,"dur":0.681,"note":74,"inst":"harpsichord_v0_additive_2","vel":0.709,"bend":0.0,"ch":10,"track":1},{"t":131.385,"dur":0.34,"note":45,"inst":"organ_v0_additive_1","vel":0.709,"bend":0.0,"ch":13,"track":1},{"t":131.385,"dur":0.34,"note":45,"inst":"organ_v0_additive_1","vel":0.709,"bend":0.0,"ch":13,"track":1},{"t":131.385,"dur":1.021,"note":71,"inst":"celesta_v0_additive_3","vel":0.709,"bend":0.0,"ch":7,"track":1},{"t":131.725,"dur":0.34,"note":52,"inst":"piano_v0_additive_0","vel":0.709,"bend":0.0,"ch":4,"track":1},{"t":131.725,"dur":0.34,"note":52,"inst":"piano_v0_additive_0","vel":0.709,"bend":0.0,"ch":4,"track":1},{"t":131.725,"dur":0.17,"note":76,"inst":"piano_v0_additive_0","vel":0.709,"bend":0.0,"ch":12,"track":1},{"t":131.895,"dur":0.17,"note":74,"inst":"harpsichord_v0_additive_2","vel":0.709,"bend":0.0,"ch":10,"track":1},{"t":132.066,"dur":0.17,"note":72,"inst":"piano_v0_additive_0","vel":0.709,"bend":0.0,"ch":8,"track":1},{"t":132.236,"dur":0.17,"note":71,"inst":"celesta_v0_additive_3","vel":0.709,"bend":0.0,"ch":7,"track":1},{"t":132.406,"dur":0.34,"note":57,"inst":"organ_v0_additive_1","vel":0.709,"bend":0.0,"ch":9,"track":1},{"t":132.406,"dur":0.34,"note":57,"inst":"organ_v0_additive_1","vel":0.709,"bend":0.0,"ch":9,"track":1},{"t":132.406,"dur":1.021,"note":64,"inst":"piano_v0_additive_0","vel":0.709,"bend":0.0,"ch":0,"track":1},{"t":132.406,"dur":0.34,"note":72,"inst":"piano_v0_additive_0","vel":0.709,"bend":0.0,"ch":8,"track":1},{"t":132.746,"dur":0.34,"note":45,"inst":"organ_v0_additive_1","vel":0.709,"bend":0.0,"ch":13,"track":1},{"t":132.746,"dur":0.34,"note":45,"inst":"organ_v0_additive_1","vel":0.709,"bend":0.0,"ch":13,"track":1},{"t":132.746,"dur":0.17,"note":69,"inst":"organ_v0_additive_1","vel":0.709,"bend":0.0,"ch":5,"track":1},{"t":133.444,"dur":0.342,"note":56,"inst":"celesta_v0_additive_3","vel":1.0,"bend":0.0,"ch":8,"track":2},{"t":133.444,"dur":0.171,"note":83,"inst":"celesta_v0_additive_3","vel":1.0,"bend":0.0,"ch":3,"track":2},{"t":133.615,"dur":0.171,"note":80,"inst":"celesta_v0_additive_3","vel":1.0,"bend":0.0,"ch":0,"track":2},{"t":133.786,"dur":0.342,"note":52,"inst":"organ_v0_additive_1","vel":1.0,"bend":0.0,"ch":4,"track":2},{"t":133.786,"dur":0.171,"note":80,"inst":"celesta_v0_additive_3","vel":1.0,"bend":0.0,"ch":0,"track":2},{"t":133.958,"dur":0.057,"note":80,"inst":"celesta_v0_additive_3","vel":1.0,"bend":0.0,"ch":0,"track":2},{"t":134.015,"dur":0.057,"note":83,"inst":"celesta_v0_additive_3","vel":1.0,"bend":0.0,"ch":3,"track":2},{"t":134.072,"dur":0.057,"note":80,"inst":"celesta_v0_additive_3","vel":1.0,"bend":0.0,"ch":0,"track":2},{"t":134.129,"dur":0.342,"note":61,"inst":"organ_v0_additive_1","vel":1.0,"bend":0.0,"ch":13,"track":2},{"t":134.129,"dur":0.171,"note":80,"inst":"celesta_v0_additive_3","vel":1.0,"bend":0.0,"ch":0,"track":2},{"t":134.3,"dur":0.171,"note":83,"inst":"celesta_v0_additive_3","vel":1.0,"bend":0.0,"ch":3,"track":2},{"t":134.471,"dur":0.342,"note":59,"inst":"celesta_v0_additive_3","vel":1.0,"bend":0.0,"ch":11,"track":2},{"t":134.471,"dur":0.171,"note":80,"inst":"celesta_v0_additive_3","vel":1.0,"bend":0.0,"ch":0,"track":2},{"t":134.642,"dur":0.171,"note":78,"inst":"piano_v0_additive_0","vel":1.0,"bend":0.0,"ch":14,"track":2},{"t":134.813,"dur":0.342,"note":59,"inst":"celesta_v0_additive_3","vel":1.0,"bend":0.0,"ch":11,"track":2},{"t":134.813,"dur":0.171,"note":76,"inst":"organ_v0_additive_1","vel":1.0,"bend":0.0,"ch":12,"track":2},{"t":134.985,"dur":0.171,"note":90,"inst":"piano_v0_additive_0","vel":1.0,"bend":0.0,"ch":10,"track":2},{"t":135.156,"dur":0.342,"note":52,"inst":"organ_v0_additive_1","vel":1.0,"bend":0.0,"ch":4,"track":2},{"t":135.156,"dur":0.171,"note":88,"inst":"organ_v0_additive_1","vel":1.0,"bend":0.0,"ch":8,"track":2},{"t":135.327,"dur":0.057,"note":78,"inst":"piano_v0_additive_0","vel":1.0,"bend":0.0,"ch":14,"track":2},{"t":135.384,"dur":0.057,"note":80,"inst":"celesta_v0_additive_3","vel":1.0,"bend":0.0,"ch":0,"track":2},{"t":135.441,"dur":0.057,"note":78,"inst":"piano_v0_additive_0","vel":1.0,"bend":0.0,"ch":14,"track":2},{"t":135.498,"dur":0.342,"note":59,"inst":"celesta_v0_additive_3","vel":1.0,"bend":0.0,"ch":11,"track":2},{"t":135.498,"dur":0.171,"note":76,"inst":"organ_v0_additive_1","vel":1.0,"bend":0.0,"ch":12,"track":2},{"t":135.669,"dur":0.171,"note":88,"inst":"organ_v0_additive_1","vel":1.0,"bend":0.0,"ch":8,"track":2},{"t":135.841,"dur":0.342,"note":52,"inst":"organ_v0_additive_1","vel":1.0,"bend":0.0,"ch":4,"track":2},{"t":135.841,"dur":0.171,"note":85,"inst":"organ_v0_additive_1","vel":1.0,"bend":0.0,"ch":5,"track":2},{"t":136.012,"dur":0.057,"note":73,"inst":"organ_v0_additive_1","vel":1.0,"bend":0.0,"ch":9,"track":2},{"t":136.069,"dur":0.057,"note":76,"inst":"organ_v0_additive_1","vel":1.0,"bend":0.0,"ch":12,"track":2},{"t":136.126,"dur":0.057,"note":73,"inst":"organ_v0_additive_1","vel":1.0,"bend":0.0,"ch":9,"track":2},{"t":136.183,"dur":0.342,"note":56,"inst":"celesta_v0_additive_3","vel":1.0,"bend":0.0,"ch":8,"track":2},{"t":136.183,"dur":0.171,"note":73,"inst":"organ_v0_additive_1","vel":1.0,"bend":0.0,"ch":9,"track":2},{"t":136.354,"dur":0.171,"note":85,"inst":"organ_v0_additive_1","vel":1.0,"bend":0.0,"ch":5,"track":2},{"t":136.525,"dur":0.342,"note":56,"inst":"celesta_v0_additive_3","vel":1.0,"bend":0.0,"ch":8,"track":2},{"t":136.525,"dur":0.171,"note":85,"inst":"organ_v0_additive_1","vel":1.0,"bend":0.0,"ch":5,"track":2},{"t":136.697,"dur":0.057,"note":85,"inst":"organ_v0_additive_1","vel":1.0,"bend":0.0,"ch":5,"track":2},{"t":136.754,"dur":0.057,"note":85,"inst":"organ_v0_additive_1","vel":1.0,"bend":0.0,"ch":5,"track":2},{"t":136.811,"dur":0.057,"note":85,"inst":"organ_v0_additive_1","vel":1.0,"bend":0.0,"ch":5,"track":2},{"t":136.868,"dur":0.342,"note":56,"inst":"celesta_v0_additive_3","vel":1.0,"bend":0.0,"ch":8,"track":2},{"t":136.868,"dur":0.171,"note":83,"inst":"celesta_v0_additive_3","vel":1.0,"bend":0.0,"ch":3,"track":2},{"t":137.039,"dur":0.171,"note":85,"inst":"organ_v0_additive_1","vel":1.0,"bend":0.0,"ch":5,"track":2},{"t":137.21,"dur":0.342,"note":52,"inst":"organ_v0_additive_1","vel":1.0,"bend":0.0,"ch":4,"track":2},{"t":137.21,"dur":0.171,"note":88,"inst":"organ_v0_additive_1","vel":1.0,"bend":0.0,"ch":8,"track":2},{"t":137.381,"dur":0.171,"note":85,"inst":"organ_v0_additive_1","vel":1.0,"bend":0.0,"ch":5,"track":2},{"t":137.553,"dur":0.342,"note":59,"inst":"celesta_v0_additive_3","vel":1.0,"bend":0.0,"ch":11,"track":2},{"t":137.553,"dur":0.171,"note":85,"inst":"organ_v0_additive_1","vel":1.0,"bend":0.0,"ch":5,"track":2},{"t":137.724,"dur":0.171,"note":83,"inst":"celesta_v0_additive_3","vel":1.0,"bend":0.0,"ch":3,"track":2},{"t":137.895,"dur":0.342,"note":52,"inst":"organ_v0_additive_1","vel":1.0,"bend":0.0,"ch":4,"track":2},{"t":137.895,"dur":0.171,"note":83,"inst":"celesta_v0_additive_3","vel":1.0,"bend":0.0,"ch":3,"track":2},{"t":138.066,"dur":0.057,"note":83,"inst":"celesta_v0_additive_3","vel":1.0,"bend":0.0,"ch":3,"track":2},{"t":138.123,"dur":0.057,"note":85,"inst":"organ_v0_additive_1","vel":1.0,"bend":0.0,"ch":5,"track":2},{"t":138.18,"dur":0.057,"note":83,"inst":"celesta_v0_additive_3","vel":1.0,"bend":0.0,"ch":3,"track":2},{"t":138.237,"dur":0.342,"note":52,"inst":"organ_v0_additive_1","vel":1.0,"bend":0.0,"ch":4,"track":2},{"t":138.237,"dur":0.171,"note":83,"inst":"celesta_v0_additive_3","vel":1.0,"bend":0.0,"ch":3,"track":2},{"t":138.408,"dur":0.171,"note":83,"inst":"celesta_v0_additive_3","vel":1.0,"bend":0.0,"ch":3,"track":2},{"t":138.58,"dur":0.342,"note":49,"inst":"organ_v0_additive_1","vel":1.0,"bend":0.0,"ch":1,"track":2},{"t":138.58,"dur":0.171,"note":85,"inst":"organ_v0_additive_1","vel":1.0,"bend":0.0,"ch":5,"track":2},{"t":138.751,"dur":0.171,"note":85,"inst":"organ_v0_additive_1","vel":1.0,"bend":0.0,"ch":5,"track":2},{"t":138.922,"dur":0.342,"note":54,"inst":"piano_v0_additive_0","vel":1.0,"bend":0.0,"ch":6,"track":2},{"t":138.922,"dur":0.171,"note":83,"inst":"celesta_v0_additive_3","vel":1.0,"bend":0.0,"ch":3,"track":2},{"t":139.093,"dur":0.171,"note":80,"inst":"celesta_v0_additive_3","vel":1.0,"bend":0.0,"ch":0,"track":2},{"t":139.264,"dur":0.342,"note":52,"inst":"organ_v0_additive_1","vel":1.0,"bend":0.0,"ch":4,"track":2},{"t":139.264,"dur":0.171,"note":80,"inst":"celesta_v0_additive_3","vel":1.0,"bend":0.0,"ch":0,"track":2},{"t":139.436,"dur":0.057,"note":80,"inst":"celesta_v0_additive_3","vel":1.0,"bend":0.0,"ch":0,"track":2},{"t":139.493,"dur":0.057,"note":83,"inst":"celesta_v0_additive_3","vel":1.0,"bend":0.0,"ch":3,"track":2},{"t":139.55,"dur":0.057,"note":80,"inst":"celesta_v0_additive_3","vel":1.0,"bend":0.0,"ch":0,"track":2},{"t":139.607,"dur":0.342,"note":49,"inst":"organ_v0_additive_1","vel":1.0,"bend":0.0,"ch":1,"track":2},{"t":139.607,"dur":0.171,"note":80,"inst":"celesta_v0_additive_3","vel":1.0,"bend":0.0,"ch":0,"track":2},{"t":139.778,"dur":0.171,"note":83,"inst":"celesta_v0_additive_3","vel":1.0,"bend":0.0,"ch":3,"track":2},{"t":139.949,"dur":0.342,"note":40,"inst":"organ_v0_additive_1","vel":1.0,"bend":0.0,"ch":8,"track":2},{"t":139.949,"dur":0.171,"note":80,"inst":"celesta_v0_additive_3","vel":1.0,"bend":0.0,"ch":0,"track":2},{"t":140.12,"dur":0.171,"note":78,"inst":"piano_v0_additive_0","vel":1.0,"bend":0.0,"ch":14,"track":2},{"t":140.292,"dur":0.342,"note":52,"inst":"organ_v0_additive_1","vel":1.0,"bend":0.0,"ch":4,"track":2},{"t":140.292,"dur":0.171,"note":76,"inst":"organ_v0_additive_1","vel":1.0,"bend":0.0,"ch":12,"track":2},{"t":140.463,"dur":0.171,"note":90,"inst":"piano_v0_additive_0","vel":1.0,"bend":0.0,"ch":10,"track":2},{"t":140.634,"dur":0.342,"note":52,"inst":"organ_v0_additive_1","vel":1.0,"bend":0.0,"ch":4,"track":2},{"t":140.634,"dur":0.171,"note":88,"inst":"organ_v0_additive_1","vel":1.0,"bend":0.0,"ch":8,"track":2},{"t":140.805,"dur":0.057,"note":78,"inst":"piano_v0_additive_0","vel":1.0,"bend":0.0,"ch":14,"track":2},{"t":140.862,"dur":0.057,"note":80,"inst":"celesta_v0_additive_3","vel":1.0,"bend":0.0,"ch":0,"track":2},{"t":140.919,"dur":0.057,"note":78,"inst":"piano_v0_additive_0","vel":1.0,"bend":0.0,"ch":14,"track":2},{"t":140.976,"dur":0.342,"note":52,"inst":"organ_v0_additive_1","vel":1.0,"bend":0.0,"ch":4,"track":2},{"t":140.976,"dur":0.171,"note":76,"inst":"organ_v0_additive_1","vel":1.0,"bend":0.0,"ch":12,"track":2},{"t":141.148,"dur":0.171,"note":85,"inst":"organ_v0_additive_1","vel":1.0,"bend":0.0,"ch":5,"track":2},{"t":141.319,"dur":0.342,"note":52,"inst":"organ_v0_additive_1","vel":1.0,"bend":0.0,"ch":4,"track":2},{"t":141.319,"dur":0.171,"note":83,"inst":"celesta_v0_additive_3","vel":1.0,"bend":0.0,"ch":3,"track":2},{"t":141.49,"dur":0.171,"note":76,"inst":"organ_v0_additive_1","vel":1.0,"bend":0.0,"ch":12,"track":2},{"t":141.661,"dur":0.342,"note":56,"inst":"celesta_v0_additive_3","vel":1.0,"bend":0.0,"ch":8,"track":2},{"t":141.661,"dur":0.342,"note":80,"inst":"celesta_v0_additive_3","vel":1.0,"bend":0.0,"ch":0,"track":2},{"t":142.003,"dur":0.171,"note":92,"inst":"celesta_v0_additive_3","vel":1.0,"bend":0.0,"ch":12,"track":2},{"t":142.175,"dur":0.057,"note":92,"inst":"celesta_v0_additive_3","vel":1.0,"bend":0.0,"ch":12,"track":2},{"t":142.232,"dur":0.057,"note":95,"inst":"celesta_v0_additive_3","vel":1.0,"bend":0.0,"ch":15,"track":2},{"t":142.289,"dur":0.057,"note":92,"inst":"celesta_v0_additive_3","vel":1.0,"bend":0.0,"ch":12,"track":2},{"t":142.346,"dur":0.342,"note":52,"inst":"organ_v0_additive_1","vel":1.0,"bend":0.0,"ch":4,"track":2},{"t":142.346,"dur":0.171,"note":92,"inst":"celesta_v0_additive_3","vel":1.0,"bend":0.0,"ch":12,"track":2},{"t":142.517,"dur":0.171,"note":97,"inst":"organ_v0_additive_1","vel":1.0,"bend":0.0,"ch":1,"track":2},{"t":142.688,"dur":0.342,"note":47,"inst":"celesta_v0_additive_3","vel":1.0,"bend":0.0,"ch":15,"track":2},{"t":142.688,"dur":0.171,"note":95,"inst":"celesta_v0_additive_3","vel":1.0,"bend":0.0,"ch":15,"track":2},{"t":142.859,"dur":0.057,"note":90,"inst":"piano_v0_additive_0","vel":1.0,"bend":0.0,"ch":10,"track":2},{"t":142.916,"dur":0.057,"note":92,"inst":"celesta_v0_additive_3","vel":1.0,"bend":0.0,"ch":12,"track":2},{"t":142.974,"dur":0.057,"note":90,"inst":"piano_v0_additive_0","vel":1.0,"bend":0.0,"ch":10,"track":2},{"t":143.031,"dur":0.342,"note":52,"inst":"organ_v0_additive_1","vel":1.0,"bend":0.0,"ch":4,"track":2},{"t":143.031,"dur":0.171,"note":88,"inst":"organ_v0_additive_1","vel":1.0,"bend":0.0,"ch":8,"track":2},{"t":143.202,"dur":0.171,"note":92,"inst":"celesta_v0_additive_3","vel":1.0,"bend":0.0,"ch":12,"track":2},{"t":143.373,"dur":0.342,"note":47,"inst":"celesta_v0_additive_3","vel":1.0,"bend":0.0,"ch":15,"track":2},{"t":143.373,"dur":0.171,"note":92,"inst":"celesta_v0_additive_3","vel":1.0,"bend":0.0,"ch":12,"track":2},{"t":143.544,"dur":0.171,"note":88,"inst":"organ_v0_additive_1","vel":1.0,"bend":0.0,"ch":8,"track":2},{"t":143.715,"dur":0.342,"note":52,"inst":"organ_v0_additive_1","vel":1.0,"bend":0.0,"ch":4,"track":2},{"t":143.715,"dur":0.086,"note":83,"inst":"celesta_v0_additive_3","vel":1.0,"bend":0.0,"ch":3,"track":2},{"t":143.801,"dur":0.086,"note":80,"inst":"celesta_v0_additive_3","vel":1.0,"bend":0.0,"ch":0,"track":2},{"t":143.887,"dur":0.086,"note":83,"inst":"celesta_v0_additive_3","vel":1.0,"bend":0.0,"ch":3,"track":2},{"t":143.972,"dur":0.086,"note":85,"inst":"organ_v0_additive_1","vel":1.0,"bend":0.0,"ch":5,"track":2},{"t":144.058,"dur":0.342,"note":47,"inst":"celesta_v0_additive_3","vel":1.0,"bend":0.0,"ch":15,"track":2},{"t":144.058,"dur":0.086,"note":76,"inst":"organ_v0_additive_1","vel":1.0,"bend":0.0,"ch":12,"track":2},{"t":144.143,"dur":0.086,"note":88,"inst":"organ_v0_additive_1","vel":1.0,"bend":0.0,"ch":8,"track":2},{"t":144.229,"dur":0.086,"note":90,"inst":"piano_v0_additive_0","vel":1.0,"bend":0.0,"ch":10,"track":2},{"t":144.315,"dur":0.086,"note":92,"inst":"celesta_v0_additive_3","vel":1.0,"bend":0.0,"ch":12,"track":2},{"t":175.717,"dur":3.053,"note":39,"inst":"piano_v0_additive_0","vel":0.63,"bend":0.0,"ch":7,"track":2},{"t":175.717,"dur":2.29,"note":43,"inst":"organ_v0_additive_1","vel":0.63,"bend":0.0,"ch":11,"track":2},{"t":178.008,"dur":0.762,"note":41,"inst":"celesta_v0_additive_3","vel":0.63,"bend":0.0,"ch":9,"track":2},{"t":178.772,"dur":3.053,"note":41,"inst":"celesta_v0_additive_3","vel":0.63,"bend":0.0,"ch":9,"track":2},{"t":178.772,"dur":1.526,"note":41,"inst":"celesta_v0_additive_3","vel":0.63,"bend":0.0,"ch":9,"track":2},{"t":180.299,"dur":3.053,"note":43,"inst":"organ_v0_additive_1","vel":0.63,"bend":0.0,"ch":11,"track":2},{"t":180.299,"dur":3.053,"note":59,"inst":"celesta_v0_additive_3","vel":0.63,"bend":0.0,"ch":11,"track":2},{"t":181.827,"dur":1.526,"note":39,"inst":"piano_v0_additive_0","vel":0.63,"bend":0.0,"ch":7,"track":2},{"t":183.354,"dur":4.581,"note":41,"inst":"celesta_v0_additive_3","vel":0.63,"bend":0.0,"ch":9,"track":2},{"t":183.354,"dur":3.053,"note":41,"inst":"celesta_v0_additive_3","vel":0.63,"bend":0.0,"ch":9,"track":2},{"t":183.354,"dur":3.053,"note":57,"inst":"piano_v0_additive_0","vel":0.63,"bend":0.0,"ch":9,"track":2},{"t":186.409,"dur":3.053,"note":35,"inst":"celesta_v0_additive_3","vel":0.63,"bend":0.0,"ch":3,"track":2},{"t":186.409,"dur":2.901,"note":47,"inst":"celesta_v0_additive_3","vel":0.63,"bend":0.0,"ch":15,"track":2},{"t":186.409,"dur":3.053,"note":59,"inst":"celesta_v0_additive_3","vel":0.63,"bend":0.0,"ch":11,"track":2},{"t":187.937,"dur":0.762,"note":39,"inst":"piano_v0_additive_0","vel":0.63,"bend":0.0,"ch":7,"track":2},{"t":188.701,"dur":0.762,"note":37,"inst":"organ_v0_additive_1","vel":0.63,"bend":0.0,"ch":5,"track":2},{"t":217.464,"dur":0.395,"note":38,"inst":"celesta_v0_additive_3","vel":1.0,"bend":0.0,"ch":6,"track":2},{"t":217.464,"dur":1.185,"note":58,"inst":"organ_v0_additive_1","vel":1.0,"bend":0.0,"ch":10,"track":2},{"t":217.859,"dur":0.395,"note":50,"inst":"celesta_v0_additive_3","vel":1.0,"bend":0.0,"ch":2,"track":2},{"t":218.254,"dur":0.395,"note":53,"inst":"celesta_v0_additive_3","vel":1.0,"bend":0.0,"ch":5,"track":2},{"t":218.649,"dur":0.395,"note":50,"inst":"celesta_v0_additive_3","vel":1.0,"bend":0.0,"ch":2,"track":2},{"t":218.649,"dur":1.185,"note":53,"inst":"celesta_v0_additive_3","vel":1.0,"bend":0.0,"ch":5,"track":2},{"t":219.044,"dur":0.395,"note":53,"inst":"celesta_v0_additive_3","vel":1.0,"bend":0.0,"ch":5,"track":2},{"t":219.439,"dur":0.395,"note":38,"inst":"celesta_v0_additive_3","vel":1.0,"bend":0.0,"ch":6,"track":2},{"t":219.834,"dur":0.395,"note":38,"inst":"celesta_v0_additive_3","vel":1.0,"bend":0.0,"ch":6,"track":2},{"t":219.834,"dur":1.185,"note":57,"inst":"piano_v0_additive_0","vel":1.0,"bend":0.0,"ch":9,"track":2},{"t":220.229,"dur":0.395,"note":38,"inst":"celesta_v0_additive_3","vel":1.0,"bend":0.0,"ch":6,"track":2},{"t":220.625,"dur":0.395,"note":50,"inst":"celesta_v0_additive_3","vel":1.0,"bend":0.0,"ch":2,"track":2},{"t":221.02,"dur":0.395,"note":38,"inst":"celesta_v0_additive_3","vel":1.0,"bend":0.0,"ch":6,"track":2},{"t":221.02,"dur":1.185,"note":53,"inst":"celesta_v0_additive_3","vel":1.0,"bend":0.0,"ch":5,"track":2},{"t":221.415,"dur":0.395,"note":50,"inst":"celesta_v0_additive_3","vel":1.0,"bend":0.0,"ch":2,"track":2},{"t":221.81,"dur":0.395,"note":38,"inst":"celesta_v0_additive_3","vel":1.0,"bend":0.0,"ch":6,"track":2},{"t":222.205,"dur":0.395,"note":46,"inst":"organ_v0_additive_1","vel":1.0,"bend":0.0,"ch":14,"track":2},{"t":222.205,"dur":1.185,"note":53,"inst":"celesta_v0_additive_3","vel":1.0,"bend":0.0,"ch":5,"track":2},{"t":222.6,"dur":0.395,"note":38,"inst":"celesta_v0_additive_3","vel":1.0,"bend":0.0,"ch":6,"track":2},{"t":222.995,"dur":0.395,"note":38,"inst":"celesta_v0_additive_3","vel":1.0,"bend":0.0,"ch":6,"track":2},{"t":223.39,"dur":0.395,"note":38,"inst":"celesta_v0_additive_3","vel":1.0,"bend":0.0,"ch":6,"track":2},{"t":223.39,"dur":1.185,"note":50,"inst":"celesta_v0_additive_3","vel":1.0,"bend":0.0,"ch":2,"track":2},{"t":223.785,"dur":0.395,"note":38,"inst":"celesta_v0_additive_3","vel":1.0,"bend":0.0,"ch":6,"track":2},{"t":224.18,"dur":0.395,"note":46,"inst":"organ_v0_additive_1","vel":1.0,"bend":0.0,"ch":14,"track":2},{"t":224.575,"dur":0.395,"note":45,"inst":"piano_v0_additive_0","vel":1.0,"bend":0.0,"ch":13,"track":2},{"t":224.575,"dur":1.185,"note":53,"inst":"celesta_v0_additive_3","vel":1.0,"bend":0.0,"ch":5,"track":2},{"t":224.97,"dur":0.395,"note":46,"inst":"organ_v0_additive_1","vel":1.0,"bend":0.0,"ch":14,"track":2},{"t":225.365,"dur":0.395,"note":38,"inst":"celesta_v0_additive_3","vel":1.0,"bend":0.0,"ch":6,"track":2},{"t":225.76,"dur":0.395,"note":46,"inst":"organ_v0_additive_1","vel":1.0,"bend":0.0,"ch":14,"track":2},{"t":225.76,"dur":1.185,"note":38,"inst":"celesta_v0_additive_3","vel":1.0,"bend":0.0,"ch":6,"track":2},{"t":226.155,"dur":0.395,"note":38,"inst":"celesta_v0_additive_3","vel":1.0,"bend":0.0,"ch":6,"track":2},{"t":226.55,"dur":0.395,"note":45,"inst":"piano_v0_additive_0","vel":1.0,"bend":0.0,"ch":13,"track":2},{"t":226.946,"dur":1.185,"note":41,"inst":"celesta_v0_additive_3","vel":1.0,"bend":0.0,"ch":9,"track":2},{"t":226.946,"dur":0.395,"note":58,"inst":"organ_v0_additive_1","vel":1.0,"bend":0.0,"ch":10,"track":2},{"t":227.341,"dur":0.395,"note":50,"inst":"celesta_v0_additive_3","vel":1.0,"bend":0.0,"ch":2,"track":2},{"t":227.736,"dur":0.395,"note":53,"inst":"celesta_v0_additive_3","vel":1.0,"bend":0.0,"ch":5,"track":2},{"t":228.131,"dur":1.185,"note":38,"inst":"celesta_v0_additive_3","vel":1.0,"bend":0.0,"ch":6,"track":2},{"t":228.131,"dur":0.395,"note":53,"inst":"celesta_v0_additive_3","vel":1.0,"bend":0.0,"ch":5,"track":2},{"t":228.526,"dur":0.79,"note":57,"inst":"piano_v0_additive_0","vel":1.0,"bend":0.0,"ch":9,"track":2},{"t":229.316,"dur":1.185,"note":45,"inst":"piano_v0_additive_0","vel":1.0,"bend":0.0,"ch":13,"track":2},{"t":229.316,"dur":0.395,"note":57,"inst":"piano_v0_additive_0","vel":1.0,"bend":0.0,"ch":9,"track":2},{"t":229.316,"dur":0.395,"note":50,"inst":"celesta_v0_additive_3","vel":1.0,"bend":0.0,"ch":2,"track":2},{"t":229.711,"dur":0.395,"note":58,"inst":"organ_v0_additive_1","vel":1.0,"bend":0.0,"ch":10,"track":2},{"t":230.106,"dur":0.395,"note":53,"inst":"celesta_v0_additive_3","vel":1.0,"bend":0.0,"ch":5,"track":2},{"t":230.501,"dur":0.395,"note":26,"inst":"celesta_v0_additive_3","vel":1.0,"bend":0.0,"ch":10,"track":2},{"t":230.501,"dur":1.185,"note":50,"inst":"celesta_v0_additive_3","vel":1.0,"bend":0.0,"ch":2,"track":2},{"t":230.896,"dur":0.395,"note":38,"inst":"celesta_v0_additive_3","vel":1.0,"bend":0.0,"ch":6,"track":2},{"t":231.291,"dur":0.395,"note":41,"inst":"celesta_v0_additive_3","vel":1.0,"bend":0.0,"ch":9,"track":2},{"t":231.686,"dur":0.395,"note":41,"inst":"celesta_v0_additive_3","vel":1.0,"bend":0.0,"ch":9,"track":2},{"t":231.686,"dur":1.185,"note":50,"inst":"celesta_v0_additive_3","vel":1.0,"bend":0.0,"ch":2,"track":2},{"t":232.081,"dur":0.395,"note":45,"inst":"piano_v0_additive_0","vel":1.0,"bend":0.0,"ch":13,"track":2},{"t":232.476,"dur":0.395,"note":46,"inst":"organ_v0_additive_1","vel":1.0,"bend":0.0,"ch":14,"track":2},{"t":232.871,"dur":0.395,"note":45,"inst":"piano_v0_additive_0","vel":1.0,"bend":0.0,"ch":13,"track":2},{"t":232.871,"dur":1.185,"note":50,"inst":"celesta_v0_additive_3","vel":1.0,"bend":0.0,"ch":2,"track":2},{"t":233.267,"dur":0.395,"note":46,"inst":"organ_v0_additive_1","vel":1.0,"bend":0.0,"ch":14,"track":2},{"t":233.662,"dur":0.395,"note":41,"inst":"celesta_v0_additive_3","vel":1.0,"bend":0.0,"ch":9,"track":2},{"t":234.057,"dur":0.395,"note":41,"inst":"celesta_v0_additive_3","vel":1.0,"bend":0.0,"ch":9,"track":2},{"t":234.057,"dur":1.185,"note":38,"inst":"celesta_v0_additive_3","vel":1.0,"bend":0.0,"ch":6,"track":2},{"t":234.452,"dur":0.395,"note":41,"inst":"celesta_v0_additive_3","vel":1.0,"bend":0.0,"ch":9,"track":2},{"t":234.847,"dur":0.395,"note":45,"inst":"piano_v0_additive_0","vel":1.0,"bend":0.0,"ch":13,"track":2},{"t":235.242,"dur":0.395,"note":41,"inst":"celesta_v0_additive_3","vel":1.0,"bend":0.0,"ch":9,"track":2},{"t":235.242,"dur":1.185,"note":58,"inst":"organ_v0_additive_1","vel":1.0,"bend":0.0,"ch":10,"track":2},{"t":235.637,"dur":0.395,"note":45,"inst":"piano_v0_additive_0","vel":1.0,"bend":0.0,"ch":13,"track":2},{"t":236.032,"dur":0.395,"note":41,"inst":"celesta_v0_additive_3","vel":1.0,"bend":0.0,"ch":9,"track":2},{"t":236.427,"dur":0.395,"note":38,"inst":"celesta_v0_additive_3","vel":1.0,"bend":0.0,"ch":6,"track":2},{"t":236.427,"dur":1.185,"note":38,"inst":"celesta_v0_additive_3","vel":1.0,"bend":0.0,"ch":6,"track":2},{"t":236.822,"dur":0.395,"note":41,"inst":"celesta_v0_additive_3","vel":1.0,"bend":0.0,"ch":9,"track":2},{"t":237.217,"dur":0.395,"note":41,"inst":"celesta_v0_additive_3","vel":1.0,"bend":0.0,"ch":9,"track":2},{"t":237.612,"dur":1.185,"note":41,"inst":"celesta_v0_additive_3","vel":1.0,"bend":0.0,"ch":9,"track":2},{"t":237.612,"dur":0.395,"note":57,"inst":"piano_v0_additive_0","vel":1.0,"bend":0.0,"ch":9,"track":2},{"t":238.007,"dur":0.395,"note":38,"inst":"celesta_v0_additive_3","vel":1.0,"bend":0.0,"ch":6,"track":2},{"t":238.402,"dur":0.395,"note":50,"inst":"celesta_v0_additive_3","vel":1.0,"bend":0.0,"ch":2,"track":2},{"t":238.797,"dur":1.185,"note":26,"inst":"celesta_v0_additive_3","vel":1.0,"bend":0.0,"ch":10,"track":2},{"t":238.797,"dur":0.395,"note":58,"inst":"organ_v0_additive_1","vel":1.0,"bend":0.0,"ch":10,"track":2},{"t":239.192,"dur":0.395,"note":53,"inst":"celesta_v0_additive_3","vel":1.0,"bend":0.0,"ch":5,"track":2},{"t":239.588,"dur":0.395,"note":57,"inst":"piano_v0_additive_0","vel":1.0,"bend":0.0,"ch":9,"track":2},{"t":239.983,"dur":1.185,"note":38,"inst":"celesta_v0_additive_3","vel":1.0,"bend":0.0,"ch":6,"track":2},{"t":239.983,"dur":0.395,"note":53,"inst":"celesta_v0_additive_3","vel":1.0,"bend":0.0,"ch":5,"track":2},{"t":240.378,"dur":0.395,"note":57,"inst":"piano_v0_additive_0","vel":1.0,"bend":0.0,"ch":9,"track":2},{"t":240.773,"dur":0.395,"note":53,"inst":"celesta_v0_additive_3","vel":1.0,"bend":0.0,"ch":5,"track":2},{"t":241.168,"dur":2.37,"note":26,"inst":"celesta_v0_additive_3","vel":1.0,"bend":0.0,"ch":10,"track":2},{"t":241.168,"dur":0.395,"note":50,"inst":"celesta_v0_additive_3","vel":1.0,"bend":0.0,"ch":2,"track":2},{"t":241.563,"dur":0.395,"note":50,"inst":"celesta_v0_additive_3","vel":1.0,"bend":0.0,"ch":2,"track":2},{"t":241.958,"dur":0.395,"note":50,"inst":"celesta_v0_additive_3","vel":1.0,"bend":0.0,"ch":2,"track":2},{"t":242.353,"dur":0.395,"note":62,"inst":"celesta_v0_additive_3","vel":1.0,"bend":0.0,"ch":14,"track":2},{"t":242.748,"dur":0.395,"note":65,"inst":"celesta_v0_additive_3","vel":1.0,"bend":0.0,"ch":1,"track":2},{"t":243.143,"dur":0.395,"note":65,"inst":"celesta_v0_additive_3","vel":1.0,"bend":0.0,"ch":1,"track":2},{"t":243.538,"dur":1.185,"note":41,"inst":"celesta_v0_additive_3","vel":1.0,"bend":0.0,"ch":9,"track":2},{"t":243.538,"dur":0.395,"note":65,"inst":"celesta_v0_additive_3","vel":1.0,"bend":0.0,"ch":1,"track":2},{"t":243.933,"dur":0.395,"note":65,"inst":"celesta_v0_additive_3","vel":1.0,"bend":0.0,"ch":1,"track":2},{"t":244.328,"dur":0.395,"note":62,"inst":"celesta_v0_additive_3","vel":1.0,"bend":0.0,"ch":14,"track":2},{"t":244.723,"dur":1.185,"note":34,"inst":"organ_v0_additive_1","vel":1.0,"bend":0.0,"ch":2,"track":2},{"t":244.723,"dur":0.395,"note":46,"inst":"organ_v0_additive_1","vel":1.0,"bend":0.0,"ch":14,"track":2},{"t":244.723,"dur":0.395,"note":50,"inst":"celesta_v0_additive_3","vel":1.0,"bend":0.0,"ch":2,"track":2},{"t":245.118,"dur":0.395,"note":65,"inst":"celesta_v0_additive_3","vel":1.0,"bend":0.0,"ch":1,"track":2},{"t":245.513,"dur":0.395,"note":50,"inst":"celesta_v0_additive_3","vel":1.0,"bend":0.0,"ch":2,"track":2},{"t":245.909,"dur":0.395,"note":50,"inst":"celesta_v0_additive_3","vel":1.0,"bend":0.0,"ch":2,"track":2},{"t":246.304,"dur":0.395,"note":65,"inst":"celesta_v0_additive_3","vel":1.0,"bend":0.0,"ch":1,"track":2},{"t":246.699,"dur":0.395,"note":57,"inst":"piano_v0_additive_0","vel":1.0,"bend":0.0,"ch":9,"track":2},{"t":247.094,"dur":1.185,"note":26,"inst":"celesta_v0_additive_3","vel":1.0,"bend":0.0,"ch":10,"track":2},{"t":247.094,"dur":0.395,"note":58,"inst":"organ_v0_additive_1","vel":1.0,"bend":0.0,"ch":10,"track":2},{"t":247.489,"dur":0.395,"note":50,"inst":"celesta_v0_additive_3","vel":1.0,"bend":0.0,"ch":2,"track":2},{"t":247.884,"dur":0.395,"note":53,"inst":"celesta_v0_additive_3","vel":1.0,"bend":0.0,"ch":5,"track":2},{"t":248.279,"dur":1.185,"note":38,"inst":"celesta_v0_additive_3","vel":1.0,"bend":0.0,"ch":6,"track":2},{"t":248.279,"dur":0.395,"note":53,"inst":"celesta_v0_additive_3","vel":1.0,"bend":0.0,"ch":5,"track":2},{"t":248.674,"dur":0.395,"note":58,"inst":"organ_v0_additive_1","vel":1.0,"bend":0.0,"ch":10,"track":2},{"t":249.069,"dur":0.395,"note":53,"inst":"celesta_v0_additive_3","vel":1.0,"bend":0.0,"ch":5,"track":2},{"t":249.464,"dur":0.395,"note":53,"inst":"celesta_v0_additive_3","vel":1.0,"bend":0.0,"ch":5,"track":2},{"t":249.859,"dur":0.395,"note":58,"inst":"organ_v0_additive_1","vel":1.0,"bend":0.0,"ch":10,"track":2},{"t":250.254,"dur":0.395,"note":50,"inst":"celesta_v0_additive_3","vel":1.0,"bend":0.0,"ch":2,"track":2},{"t":250.649,"dur":0.395,"note":50,"inst":"celesta_v0_additive_3","vel":1.0,"bend":0.0,"ch":2,"track":2},{"t":251.044,"dur":0.79,"note":53,"inst":"celesta_v0_additive_3","vel":1.0,"bend":0.0,"ch":5,"track":2},{"t":251.439,"dur":0.395,"note":46,"inst":"organ_v0_additive_1","vel":1.0,"bend":0.0,"ch":14,"track":2},{"t":251.834,"dur":0.395,"note":38,"inst":"celesta_v0_additive_3","vel":1.0,"bend":0.0,"ch":6,"track":2},{"t":252.23,"dur":0.395,"note":50,"inst":"celesta_v0_additive_3","vel":1.0,"bend":0.0,"ch":2,"track":2},{"t":252.625,"dur":0.395,"note":46,"inst":"organ_v0_additive_1","vel":1.0,"bend":0.0,"ch":14,"track":2},{"t":253.02,"dur":0.395,"note":38,"inst":"celesta_v0_additive_3","vel":1.0,"bend":0.0,"ch":6,"track":2},{"t":253.02,"dur":1.185,"note":50,"inst":"celesta_v0_additive_3","vel":1.0,"bend":0.0,"ch":2,"track":2},{"t":253.415,"dur":0.395,"note":50,"inst":"celesta_v0_additive_3","vel":1.0,"bend":0.0,"ch":2,"track":2},{"t":253.81,"dur":0.395,"note":41,"inst":"celesta_v0_additive_3","vel":1.0,"bend":0.0,"ch":9,"track":2},{"t":254.205,"dur":0.395,"note":45,"inst":"piano_v0_additive_0","vel":1.0,"bend":0.0,"ch":13,"track":2},{"t":254.205,"dur":1.185,"note":50,"inst":"celesta_v0_additive_3","vel":1.0,"bend":0.0,"ch":2,"track":2},{"t":254.6,"dur":0.395,"note":38,"inst":"celesta_v0_additive_3","vel":1.0,"bend":0.0,"ch":6,"track":2},{"t":254.995,"dur":0.395,"note":38,"inst":"celesta_v0_additive_3","vel":1.0,"bend":0.0,"ch":6,"track":2},{"t":255.39,"dur":0.395,"note":41,"inst":"celesta_v0_additive_3","vel":1.0,"bend":0.0,"ch":9,"track":2},{"t":255.39,"dur":1.185,"note":38,"inst":"celesta_v0_additive_3","vel":1.0,"bend":0.0,"ch":6,"track":2},{"t":255.785,"dur":0.395,"note":45,"inst":"piano_v0_additive_0","vel":1.0,"bend":0.0,"ch":13,"track":2},{"t":256.18,"dur":0.395,"note":38,"inst":"celesta_v0_additive_3","vel":1.0,"bend":0.0,"ch":6,"track":2},{"t":256.575,"dur":0.395,"note":41,"inst":"celesta_v0_additive_3","vel":1.0,"bend":0.0,"ch":9,"track":2},{"t":256.575,"dur":1.185,"note":58,"inst":"organ_v0_additive_1","vel":1.0,"bend":0.0,"ch":10,"track":2},{"t":256.97,"dur":0.395,"note":45,"inst":"piano_v0_additive_0","vel":1.0,"bend":0.0,"ch":13,"track":2},{"t":257.365,"dur":0.395,"note":26,"inst":"celesta_v0_additive_3","vel":1.0,"bend":0.0,"ch":10,"track":2},{"t":257.76,"dur":0.395,"note":26,"inst":"celesta_v0_additive_3","vel":1.0,"bend":0.0,"ch":10,"track":2},{"t":257.76,"dur":1.185,"note":57,"inst":"piano_v0_additive_0","vel":1.0,"bend":0.0,"ch":9,"track":2},{"t":258.155,"dur":0.395,"note":41,"inst":"celesta_v0_additive_3","vel":1.0,"bend":0.0,"ch":9,"track":2},{"t":258.551,"dur":0.395,"note":33,"inst":"piano_v0_additive_0","vel":1.0,"bend":0.0,"ch":1,"track":2},{"t":258.946,"dur":0.395,"note":34,"inst":"organ_v0_additive_1","vel":1.0,"bend":0.0,"ch":2,"track":2},{"t":258.946,"dur":1.185,"note":38,"inst":"celesta_v0_additive_3","vel":1.0,"bend":0.0,"ch":6,"track":2},{"t":259.341,"dur":0.395,"note":26,"inst":"celesta_v0_additive_3","vel":1.0,"bend":0.0,"ch":10,"track":2},{"t":259.736,"dur":0.395,"note":33,"inst":"piano_v0_additive_0","vel":1.0,"bend":0.0,"ch":1,"track":2},{"t":260.131,"dur":0.395,"note":34,"inst":"organ_v0_additive_1","vel":1.0,"bend":0.0,"ch":2,"track":2},{"t":260.131,"dur":1.185,"note":53,"inst":"celesta_v0_additive_3","vel":1.0,"bend":0.0,"ch":5,"track":2},{"t":260.526,"dur":0.395,"note":26,"inst":"celesta_v0_additive_3","vel":1.0,"bend":0.0,"ch":10,"track":2},{"t":260.921,"dur":0.395,"note":29,"inst":"celesta_v0_additive_3","vel":1.0,"bend":0.0,"ch":13,"track":2},{"t":261.316,"dur":0.395,"note":29,"inst":"celesta_v0_additive_3","vel":1.0,"bend":0.0,"ch":13,"track":2},{"t":261.316,"dur":1.185,"note":58,"inst":"organ_v0_additive_1","vel":1.0,"bend":0.0,"ch":10,"track":2},{"t":261.711,"dur":0.395,"note":34,"inst":"organ_v0_additive_1","vel":1.0,"bend":0.0,"ch":2,"track":2},{"t":262.106,"dur":0.395,"note":24,"inst":"piano_v0_additive_0","vel":1.0,"bend":0.0,"ch":8,"track":2},{"t":262.501,"dur":1.185,"note":26,"inst":"celesta_v0_additive_3","vel":1.0,"bend":0.0,"ch":10,"track":2},{"t":262.896,"dur":0.395,"note":50,"inst":"celesta_v0_additive_3","vel":1.0,"bend":0.0,"ch":2,"track":2},{"t":263.291,"dur":0.395,"note":53,"inst":"celesta_v0_additive_3","vel":1.0,"bend":0.0,"ch":5,"track":2},{"t":263.686,"dur":1.185,"note":26,"inst":"celesta_v0_additive_3","vel":1.0,"bend":0.0,"ch":10,"track":2},{"t":263.686,"dur":0.395,"note":53,"inst":"celesta_v0_additive_3","vel":1.0,"bend":0.0,"ch":5,"track":2},{"t":264.081,"dur":0.79,"note":57,"inst":"piano_v0_additive_0","vel":1.0,"bend":0.0,"ch":9,"track":2},{"t":264.872,"dur":0.395,"note":57,"inst":"piano_v0_additive_0","vel":1.0,"bend":0.0,"ch":9,"track":2},{"t":265.267,"dur":0.395,"note":58,"inst":"organ_v0_additive_1","vel":1.0,"bend":0.0,"ch":10,"track":2},{"t":265.662,"dur":0.395,"note":53,"inst":"celesta_v0_additive_3","vel":1.0,"bend":0.0,"ch":5,"track":2},{"t":266.057,"dur":1.185,"note":26,"inst":"celesta_v0_additive_3","vel":1.0,"bend":0.0,"ch":10,"track":2},{"t":266.057,"dur":0.395,"note":69,"inst":"piano_v0_additive_0","vel":1.0,"bend":0.0,"ch":5,"track":2},{"t":266.452,"dur":0.395,"note":65,"inst":"celesta_v0_additive_3","vel":1.0,"bend":0.0,"ch":1,"track":2},{"t":266.847,"dur":0.395,"note":65,"inst":"celesta_v0_additive_3","vel":1.0,"bend":0.0,"ch":1,"track":2},{"t":267.242,"dur":1.185,"note":26,"inst":"celesta_v0_additive_3","vel":1.0,"bend":0.0,"ch":10,"track":2},{"t":267.242,"dur":0.395,"note":62,"inst":"celesta_v0_additive_3","vel":1.0,"bend":0.0,"ch":14,"track":2},{"t":267.637,"dur":0.395,"note":50,"inst":"celesta_v0_additive_3","vel":1.0,"bend":0.0,"ch":2,"track":2},{"t":268.032,"dur":0.395,"note":50,"inst":"celesta_v0_additive_3","vel":1.0,"bend":0.0,"ch":2,"track":2},{"t":268.427,"dur":1.185,"note":38,"inst":"celesta_v0_additive_3","vel":1.0,"bend":0.0,"ch":6,"track":2},{"t":268.427,"dur":0.395,"note":53,"inst":"celesta_v0_additive_3","vel":1.0,"bend":0.0,"ch":5,"track":2},{"t":268.427,"dur":0.395,"note":50,"inst":"celesta_v0_additive_3","vel":1.0,"bend":0.0,"ch":2,"track":2},{"t":268.822,"dur":0.395,"note":58,"inst":"organ_v0_additive_1","vel":1.0,"bend":0.0,"ch":10,"track":2},{"t":269.217,"dur":0.395,"note":50,"inst":"celesta_v0_additive_3","vel":1.0,"bend":0.0,"ch":2,"track":2},{"t":269.612,"dur":0.395,"note":33,"inst":"piano_v0_additive_0","vel":1.0,"bend":0.0,"ch":1,"track":2},{"t":269.612,"dur":1.185,"note":57,"inst":"piano_v0_additive_0","vel":1.0,"bend":0.0,"ch":9,"track":2},{"t":270.007,"dur":0.395,"note":34,"inst":"organ_v0_additive_1","vel":1.0,"bend":0.0,"ch":2,"track":2},{"t":270.402,"dur":0.395,"note":26,"inst":"celesta_v0_additive_3","vel":1.0,"bend":0.0,"ch":10,"track":2},{"t":270.797,"dur":0.395,"note":26,"inst":"celesta_v0_additive_3","vel":1.0,"bend":0.0,"ch":10,"track":2},{"t":271.193,"dur":0.395,"note":38,"inst":"celesta_v0_additive_3","vel":1.0,"bend":0.0,"ch":6,"track":2},{"t":271.588,"dur":0.395,"note":41,"inst":"celesta_v0_additive_3","vel":1.0,"bend":0.0,"ch":9,"track":2},{"t":271.983,"dur":0.395,"note":38,"inst":"celesta_v0_additive_3","vel":1.0,"bend":0.0,"ch":6,"track":2},{"t":272.378,"dur":0.395,"note":41,"inst":"celesta_v0_additive_3","vel":1.0,"bend":0.0,"ch":9,"track":2},{"t":272.773,"dur":0.395,"note":26,"inst":"celesta_v0_additive_3","vel":1.0,"bend":0.0,"ch":10,"track":2},{"t":273.168,"dur":0.395,"note":26,"inst":"celesta_v0_additive_3","vel":1.0,"bend":0.0,"ch":10,"track":2},{"t":273.168,"dur":0.395,"note":45,"inst":"piano_v0_additive_0","vel":1.0,"bend":0.0,"ch":13,"track":2},{"t":273.563,"dur":0.395,"note":26,"inst":"celesta_v0_additive_3","vel":1.0,"bend":0.0,"ch":10,"track":2},{"t":273.563,"dur":0.395,"note":46,"inst":"organ_v0_additive_1","vel":1.0,"bend":0.0,"ch":14,"track":2},{"t":273.958,"dur":0.395,"note":38,"inst":"celesta_v0_additive_3","vel":1.0,"bend":0.0,"ch":6,"track":2},{"t":273.958,"dur":0.395,"note":38,"inst":"celesta_v0_additive_3","vel":1.0,"bend":0.0,"ch":6,"track":2},{"t":274.353,"dur":0.395,"note":41,"inst":"celesta_v0_additive_3","vel":1.0,"bend":0.0,"ch":9,"track":2},{"t":274.353,"dur":0.395,"note":38,"inst":"celesta_v0_additive_3","vel":1.0,"bend":0.0,"ch":6,"track":2},{"t":274.748,"dur":0.395,"note":38,"inst":"celesta_v0_additive_3","vel":1.0,"bend":0.0,"ch":6,"track":2},{"t":274.748,"dur":0.395,"note":50,"inst":"celesta_v0_additive_3","vel":1.0,"bend":0.0,"ch":2,"track":2},{"t":275.143,"dur":0.395,"note":26,"inst":"celesta_v0_additive_3","vel":1.0,"bend":0.0,"ch":10,"track":2},{"t":275.143,"dur":0.395,"note":53,"inst":"celesta_v0_additive_3","vel":1.0,"bend":0.0,"ch":5,"track":2},{"t":275.538,"dur":1.185,"note":41,"inst":"celesta_v0_additive_3","vel":1.0,"bend":0.0,"ch":9,"track":2},{"t":275.538,"dur":0.395,"note":50,"inst":"celesta_v0_additive_3","vel":1.0,"bend":0.0,"ch":2,"track":2},{"t":275.933,"dur":0.395,"note":53,"inst":"celesta_v0_additive_3","vel":1.0,"bend":0.0,"ch":5,"track":2},{"t":276.328,"dur":0.395,"note":38,"inst":"celesta_v0_additive_3","vel":1.0,"bend":0.0,"ch":6,"track":2},{"t":276.723,"dur":0.395,"note":38,"inst":"celesta_v0_additive_3","vel":1.0,"bend":0.0,"ch":6,"track":2},{"t":276.723,"dur":0.395,"note":50,"inst":"celesta_v0_additive_3","vel":1.0,"bend":0.0,"ch":2,"track":2},{"t":277.118,"dur":0.395,"note":53,"inst":"celesta_v0_additive_3","vel":1.0,"bend":0.0,"ch":5,"track":2},{"t":277.514,"dur":0.395,"note":53,"inst":"celesta_v0_additive_3","vel":1.0,"bend":0.0,"ch":5,"track":2},{"t":277.909,"dur":1.185,"note":41,"inst":"celesta_v0_additive_3","vel":1.0,"bend":0.0,"ch":9,"track":2},{"t":277.909,"dur":0.395,"note":57,"inst":"piano_v0_additive_0","vel":1.0,"bend":0.0,"ch":9,"track":2},{"t":278.304,"dur":0.395,"note":58,"inst":"organ_v0_additive_1","vel":1.0,"bend":0.0,"ch":10,"track":2},{"t":278.699,"dur":0.395,"note":58,"inst":"organ_v0_additive_1","vel":1.0,"bend":0.0,"ch":10,"track":2},{"t":279.094,"dur":1.185,"note":46,"inst":"organ_v0_additive_1","vel":1.0,"bend":0.0,"ch":14,"track":2},{"t":279.094,"dur":0.395,"note":58,"inst":"organ_v0_additive_1","vel":1.0,"bend":0.0,"ch":10,"track":2},{"t":279.489,"dur":0.395,"note":58,"inst":"organ_v0_additive_1","vel":1.0,"bend":0.0,"ch":10,"track":2},{"t":279.884,"dur":0.395,"note":57,"inst":"piano_v0_additive_0","vel":1.0,"bend":0.0,"ch":9,"track":2},{"t":280.279,"dur":1.185,"note":38,"inst":"celesta_v0_additive_3","vel":1.0,"bend":0.0,"ch":6,"track":2},{"t":280.279,"dur":0.395,"note":53,"inst":"celesta_v0_additive_3","vel":1.0,"bend":0.0,"ch":5,"track":2},{"t":280.674,"dur":0.395,"note":57,"inst":"piano_v0_additive_0","vel":1.0,"bend":0.0,"ch":9,"track":2},{"t":281.069,"dur":0.395,"note":58,"inst":"organ_v0_additive_1","vel":1.0,"bend":0.0,"ch":10,"track":2},{"t":281.464,"dur":2.37,"note":45,"inst":"piano_v0_additive_0","vel":1.0,"bend":0.0,"ch":13,"track":2},{"t":281.464,"dur":0.395,"note":58,"inst":"organ_v0_additive_1","vel":1.0,"bend":0.0,"ch":10,"track":2},{"t":281.859,"dur":0.395,"note":50,"inst":"celesta_v0_additive_3","vel":1.0,"bend":0.0,"ch":2,"track":2},{"t":282.254,"dur":0.395,"note":62,"inst":"celesta_v0_additive_3","vel":1.0,"bend":0.0,"ch":14,"track":2},{"t":282.649,"dur":0.395,"note":53,"inst":"celesta_v0_additive_3","vel":1.0,"bend":0.0,"ch":5,"track":2},{"t":282.649,"dur":0.395,"note":50,"inst":"celesta_v0_additive_3","vel":1.0,"bend":0.0,"ch":2,"track":2},{"t":283.044,"dur":0.395,"note":62,"inst":"celesta_v0_additive_3","vel":1.0,"bend":0.0,"ch":14,"track":2},{"t":283.439,"dur":0.395,"note":58,"inst":"organ_v0_additive_1","vel":1.0,"bend":0.0,"ch":10,"track":2},{"t":301.724,"dur":0.15,"note":62,"inst":"celesta_v0_additive_3","vel":1.0,"bend":0.0,"ch":14,"track":2},{"t":301.724,"dur":0.224,"note":86,"inst":"celesta_v0_additive_3","vel":1.0,"bend":0.0,"ch":6,"track":2},{"t":301.874,"dur":0.15,"note":65,"inst":"celesta_v0_additive_3","vel":1.0,"bend":0.0,"ch":1,"track":2},{"t":301.948,"dur":0.112,"note":88,"inst":"organ_v0_additive_1","vel":1.0,"bend":0.0,"ch":8,"track":2},{"t":302.023,"dur":0.15,"note":69,"inst":"piano_v0_additive_0","vel":1.0,"bend":0.0,"ch":5,"track":2},{"t":302.061,"dur":0.112,"note":86,"inst":"celesta_v0_additive_3","vel":1.0,"bend":0.0,"ch":6,"track":2},{"t":302.173,"dur":0.15,"note":64,"inst":"organ_v0_additive_1","vel":1.0,"bend":0.0,"ch":0,"track":2},{"t":302.173,"dur":0.224,"note":83,"inst":"celesta_v0_additive_3","vel":1.0,"bend":0.0,"ch":3,"track":2},{"t":302.323,"dur":0.15,"note":67,"inst":"organ_v0_additive_1","vel":1.0,"bend":0.0,"ch":3,"track":2},{"t":302.397,"dur":0.224,"note":74,"inst":"celesta_v0_additive_3","vel":1.0,"bend":0.0,"ch":10,"track":2},{"t":302.472,"dur":0.15,"note":69,"inst":"piano_v0_additive_0","vel":1.0,"bend":0.0,"ch":5,"track":2},{"t":302.622,"dur":0.15,"note":62,"inst":"celesta_v0_additive_3","vel":1.0,"bend":0.0,"ch":14,"track":2},{"t":302.622,"dur":0.449,"note":86,"inst":"celesta_v0_additive_3","vel":1.0,"bend":0.0,"ch":6,"track":2},{"t":302.771,"dur":0.15,"note":65,"inst":"celesta_v0_additive_3","vel":1.0,"bend":0.0,"ch":1,"track":2},{"t":302.921,"dur":0.15,"note":69,"inst":"piano_v0_additive_0","vel":1.0,"bend":0.0,"ch":5,"track":2},{"t":303.071,"dur":0.15,"note":55,"inst":"organ_v0_additive_1","vel":1.0,"bend":0.0,"ch":7,"track":2},{"t":303.071,"dur":0.449,"note":83,"inst":"celesta_v0_additive_3","vel":1.0,"bend":0.0,"ch":3,"track":2},{"t":303.22,"dur":0.15,"note":65,"inst":"celesta_v0_additive_3","vel":1.0,"bend":0.0,"ch":1,"track":2},{"t":303.37,"dur":0.15,"note":67,"inst":"organ_v0_additive_1","vel":1.0,"bend":0.0,"ch":3,"track":2},{"t":303.52,"dur":0.15,"note":60,"inst":"piano_v0_additive_0","vel":1.0,"bend":0.0,"ch":12,"track":2},{"t":303.52,"dur":0.224,"note":86,"inst":"celesta_v0_additive_3","vel":1.0,"bend":0.0,"ch":6,"track":2},{"t":303.669,"dur":0.15,"note":64,"inst":"organ_v0_additive_1","vel":1.0,"bend":0.0,"ch":0,"track":2},{"t":303.744,"dur":0.224,"note":84,"inst":"piano_v0_additive_0","vel":1.0,"bend":0.0,"ch":4,"track":2},{"t":303.819,"dur":0.15,"note":69,"inst":"piano_v0_additive_0","vel":1.0,"bend":0.0,"ch":5,"track":2},{"t":303.969,"dur":0.15,"note":62,"inst":"celesta_v0_additive_3","vel":1.0,"bend":0.0,"ch":14,"track":2},{"t":303.969,"dur":0.224,"note":81,"inst":"piano_v0_additive_0","vel":1.0,"bend":0.0,"ch":1,"track":2},{"t":304.118,"dur":0.15,"note":65,"inst":"celesta_v0_additive_3","vel":1.0,"bend":0.0,"ch":1,"track":2},{"t":304.193,"dur":0.224,"note":77,"inst":"celesta_v0_additive_3","vel":1.0,"bend":0.0,"ch":13,"track":2},{"t":304.268,"dur":0.15,"note":69,"inst":"piano_v0_additive_0","vel":1.0,"bend":0.0,"ch":5,"track":2},{"t":304.418,"dur":0.15,"note":55,"inst":"organ_v0_additive_1","vel":1.0,"bend":0.0,"ch":7,"track":2},{"t":304.418,"dur":0.449,"note":79,"inst":"organ_v0_additive_1","vel":1.0,"bend":0.0,"ch":15,"track":2},{"t":304.567,"dur":0.15,"note":62,"inst":"celesta_v0_additive_3","vel":1.0,"bend":0.0,"ch":14,"track":2},{"t":304.717,"dur":0.15,"note":67,"inst":"organ_v0_additive_1","vel":1.0,"bend":0.0,"ch":3,"track":2},{"t":304.979,"dur":0.112,"note":55,"inst":"organ_v0_additive_1","vel":1.0,"bend":0.0,"ch":7,"track":2},{"t":304.979,"dur":0.112,"note":67,"inst":"organ_v0_additive_1","vel":1.0,"bend":0.0,"ch":3,"track":2},{"t":305.091,"dur":0.112,"note":57,"inst":"piano_v0_additive_0","vel":1.0,"bend":0.0,"ch":9,"track":2},{"t":305.091,"dur":0.112,"note":69,"inst":"piano_v0_additive_0","vel":1.0,"bend":0.0,"ch":5,"track":2},{"t":305.203,"dur":0.112,"note":59,"inst":"celesta_v0_additive_3","vel":1.0,"bend":0.0,"ch":11,"track":2},{"t":305.203,"dur":0.112,"note":71,"inst":"celesta_v0_additive_3","vel":1.0,"bend":0.0,"ch":7,"track":2},{"t":305.315,"dur":0.112,"note":60,"inst":"piano_v0_additive_0","vel":1.0,"bend":0.0,"ch":12,"track":2},{"t":305.315,"dur":0.112,"note":72,"inst":"piano_v0_additive_0","vel":1.0,"bend":0.0,"ch":8,"track":2},{"t":305.428,"dur":0.112,"note":55,"inst":"organ_v0_additive_1","vel":1.0,"bend":0.0,"ch":7,"track":2},{"t":305.428,"dur":0.112,"note":67,"inst":"organ_v0_additive_1","vel":1.0,"bend":0.0,"ch":3,"track":2},{"t":305.54,"dur":0.112,"note":57,"inst":"piano_v0_additive_0","vel":1.0,"bend":0.0,"ch":9,"track":2},{"t":305.54,"dur":0.112,"note":69,"inst":"piano_v0_additive_0","vel":1.0,"bend":0.0,"ch":5,"track":2},{"t":305.652,"dur":0.112,"note":59,"inst":"celesta_v0_additive_3","vel":1.0,"bend":0.0,"ch":11,"track":2},{"t":305.652,"dur":0.112,"note":71,"inst":"celesta_v0_additive_3","vel":1.0,"bend":0.0,"ch":7,"track":2},{"t":305.764,"dur":0.112,"note":60,"inst":"piano_v0_additive_0","vel":1.0,"bend":0.0,"ch":12,"track":2},{"t":305.764,"dur":0.112,"note":72,"inst":"piano_v0_additive_0","vel":1.0,"bend":0.0,"ch":8,"track":2},{"t":305.877,"dur":0.112,"note":62,"inst":"celesta_v0_additive_3","vel":1.0,"bend":0.0,"ch":14,"track":2},{"t":305.877,"dur":0.112,"note":74,"inst":"celesta_v0_additive_3","vel":1.0,"bend":0.0,"ch":10,"track":2},{"t":305.989,"dur":0.112,"note":64,"inst":"organ_v0_additive_1","vel":1.0,"bend":0.0,"ch":0,"track":2},{"t":305.989,"dur":0.112,"note":76,"inst":"organ_v0_additive_1","vel":1.0,"bend":0.0,"ch":12,"track":2},{"t":306.101,"dur":0.112,"note":65,"inst":"celesta_v0_additive_3","vel":1.0,"bend":0.0,"ch":1,"track":2},{"t":306.101,"dur":0.112,"note":77,"inst":"celesta_v0_additive_3","vel":1.0,"bend":0.0,"ch":13,"track":2},{"t":306.213,"dur":0.224,"note":60,"inst":"piano_v0_additive_0","vel":1.0,"bend":0.0,"ch":12,"track":2},{"t":306.213,"dur":0.224,"note":64,"inst":"organ_v0_additive_1","vel":1.0,"bend":0.0,"ch":0,"track":2},{"t":306.213,"dur":0.224,"note":67,"inst":"organ_v0_additive_1","vel":1.0,"bend":0.0,"ch":3,"track":2},{"t":306.213,"dur":0.224,"note":79,"inst":"organ_v0_additive_1","vel":1.0,"bend":0.0,"ch":15,"track":2},{"t":306.438,"dur":0.224,"note":60,"inst":"piano_v0_additive_0","vel":1.0,"bend":0.0,"ch":12,"track":2},{"t":306.438,"dur":0.224,"note":64,"inst":"organ_v0_additive_1","vel":1.0,"bend":0.0,"ch":0,"track":2},{"t":306.438,"dur":0.224,"note":67,"inst":"organ_v0_additive_1","vel":1.0,"bend":0.0,"ch":3,"track":2},{"t":306.438,"dur":0.224,"note":76,"inst":"organ_v0_additive_1","vel":1.0,"bend":0.0,"ch":12,"track":2},{"t":306.662,"dur":0.224,"note":60,"inst":"piano_v0_additive_0","vel":1.0,"bend":0.0,"ch":12,"track":2},{"t":306.662,"dur":0.224,"note":64,"inst":"organ_v0_additive_1","vel":1.0,"bend":0.0,"ch":0,"track":2},{"t":306.662,"dur":0.224,"note":67,"inst":"organ_v0_additive_1","vel":1.0,"bend":0.0,"ch":3,"track":2},{"t":306.662,"dur":0.224,"note":84,"inst":"piano_v0_additive_0","vel":1.0,"bend":0.0,"ch":4,"track":2},{"t":306.887,"dur":0.224,"note":60,"inst":"piano_v0_additive_0","vel":1.0,"bend":0.0,"ch":12,"track":2},{"t":306.887,"dur":0.224,"note":64,"inst":"organ_v0_additive_1","vel":1.0,"bend":0.0,"ch":0,"track":2},{"t":306.887,"dur":0.224,"note":67,"inst":"organ_v0_additive_1","vel":1.0,"bend":0.0,"ch":3,"track":2},{"t":306.887,"dur":0.224,"note":79,"inst":"organ_v0_additive_1","vel":1.0,"bend":0.0,"ch":15,"track":2},{"t":307.111,"dur":0.224,"note":60,"inst":"piano_v0_additive_0","vel":1.0,"bend":0.0,"ch":12,"track":2},{"t":307.111,"dur":0.224,"note":64,"inst":"organ_v0_additive_1","vel":1.0,"bend":0.0,"ch":0,"track":2},{"t":307.111,"dur":0.224,"note":67,"inst":"organ_v0_additive_1","vel":1.0,"bend":0.0,"ch":3,"track":2},{"t":307.111,"dur":0.224,"note":72,"inst":"piano_v0_additive_0","vel":1.0,"bend":0.0,"ch":8,"track":2},{"t":307.111,"dur":0.224,"note":88,"inst":"organ_v0_additive_1","vel":1.0,"bend":0.0,"ch":8,"track":2},{"t":307.336,"dur":0.224,"note":60,"inst":"piano_v0_additive_0","vel":1.0,"bend":0.0,"ch":12,"track":2},{"t":307.336,"dur":0.224,"note":64,"inst":"organ_v0_additive_1","vel":1.0,"bend":0.0,"ch":0,"track":2},{"t":307.336,"dur":0.224,"note":67,"inst":"organ_v0_additive_1","vel":1.0,"bend":0.0,"ch":3,"track":2},{"t":307.336,"dur":0.224,"note":72,"inst":"piano_v0_additive_0","vel":1.0,"bend":0.0,"ch":8,"track":2},{"t":307.336,"dur":0.224,"note":84,"inst":"piano_v0_additive_0","vel":1.0,"bend":0.0,"ch":4,"track":2},{"t":307.56,"dur":0.224,"note":60,"inst":"piano_v0_additive_0","vel":1.0,"bend":0.0,"ch":12,"track":2},{"t":307.56,"dur":0.224,"note":64,"inst":"organ_v0_additive_1","vel":1.0,"bend":0.0,"ch":0,"track":2},{"t":307.56,"dur":0.224,"note":67,"inst":"organ_v0_additive_1","vel":1.0,"bend":0.0,"ch":3,"track":2},{"t":307.56,"dur":0.224,"note":72,"inst":"piano_v0_additive_0","vel":1.0,"bend":0.0,"ch":8,"track":2},{"t":307.56,"dur":0.224,"note":91,"inst":"organ_v0_additive_1","vel":1.0,"bend":0.0,"ch":11,"track":2},{"t":307.785,"dur":0.224,"note":60,"inst":"piano_v0_additive_0","vel":1.0,"bend":0.0,"ch":12,"track":2},{"t":307.785,"dur":0.224,"note":64,"inst":"organ_v0_additive_1","vel":1.0,"bend":0.0,"ch":0,"track":2},{"t":307.785,"dur":0.224,"note":67,"inst":"organ_v0_additive_1","vel":1.0,"bend":0.0,"ch":3,"track":2},{"t":307.785,"dur":0.224,"note":72,"inst":"piano_v0_additive_0","vel":1.0,"bend":0.0,"ch":8,"track":2},{"t":307.785,"dur":0.224,"note":88,"inst":"organ_v0_additive_1","vel":1.0,"bend":0.0,"ch":8,"track":2},{"t":308.009,"dur":0.449,"note":65,"inst":"celesta_v0_additive_3","vel":1.0,"bend":0.0,"ch":1,"track":2},{"t":308.009,"dur":0.449,"note":69,"inst":"piano_v0_additive_0","vel":1.0,"bend":0.0,"ch":5,"track":2},{"t":308.009,"dur":0.449,"note":72,"inst":"piano_v0_additive_0","vel":1.0,"bend":0.0,"ch":8,"track":2},{"t":308.009,"dur":0.449,"note":81,"inst":"piano_v0_additive_0","vel":1.0,"bend":0.0,"ch":1,"track":2},{"t":308.009,"dur":0.449,"note":93,"inst":"piano_v0_additive_0","vel":1.0,"bend":0.0,"ch":13,"track":2},{"t":308.57,"dur":0.112,"note":60,"inst":"piano_v0_additive_0","vel":1.0,"bend":0.0,"ch":12,"track":2},{"t":308.57,"dur":0.112,"note":72,"inst":"piano_v0_additive_0","vel":1.0,"bend":0.0,"ch":8,"track":2},{"t":308.682,"dur":0.112,"note":62,"inst":"celesta_v0_additive_3","vel":1.0,"bend":0.0,"ch":14,"track":2},{"t":308.682,"dur":0.112,"note":74,"inst":"celesta_v0_additive_3","vel":1.0,"bend":0.0,"ch":10,"track":2},{"t":308.795,"dur":0.112,"note":64,"inst":"organ_v0_additive_1","vel":1.0,"bend":0.0,"ch":0,"track":2},{"t":308.795,"dur":0.112,"note":76,"inst":"organ_v0_additive_1","vel":1.0,"bend":0.0,"ch":12,"track":2},{"t":308.907,"dur":0.112,"note":65,"inst":"celesta_v0_additive_3","vel":1.0,"bend":0.0,"ch":1,"track":2},{"t":308.907,"dur":0.112,"note":77,"inst":"celesta_v0_additive_3","vel":1.0,"bend":0.0,"ch":13,"track":2},{"t":309.019,"dur":0.112,"note":60,"inst":"piano_v0_additive_0","vel":1.0,"bend":0.0,"ch":12,"track":2},{"t":309.019,"dur":0.112,"note":72,"inst":"piano_v0_additive_0","vel":1.0,"bend":0.0,"ch":8,"track":2},{"t":309.131,"dur":0.112,"note":62,"inst":"celesta_v0_additive_3","vel":1.0,"bend":0.0,"ch":14,"track":2},{"t":309.131,"dur":0.112,"note":74,"inst":"celesta_v0_additive_3","vel":1.0,"bend":0.0,"ch":10,"track":2},{"t":309.244,"dur":0.112,"note":64,"inst":"organ_v0_additive_1","vel":1.0,"bend":0.0,"ch":0,"track":2},{"t":309.244,"dur":0.112,"note":76,"inst":"organ_v0_additive_1","vel":1.0,"bend":0.0,"ch":12,"track":2},{"t":309.356,"dur":0.112,"note":65,"inst":"celesta_v0_additive_3","vel":1.0,"bend":0.0,"ch":1,"track":2},{"t":309.356,"dur":0.112,"note":77,"inst":"celesta_v0_additive_3","vel":1.0,"bend":0.0,"ch":13,"track":2},{"t":309.468,"dur":0.112,"note":67,"inst":"organ_v0_additive_1","vel":1.0,"bend":0.0,"ch":3,"track":2},{"t":309.468,"dur":0.112,"note":79,"inst":"organ_v0_additive_1","vel":1.0,"bend":0.0,"ch":15,"track":2},{"t":309.58,"dur":0.112,"note":69,"inst":"piano_v0_additive_0","vel":1.0,"bend":0.0,"ch":5,"track":2},{"t":309.58,"dur":0.112,"note":81,"inst":"piano_v0_additive_0","vel":1.0,"bend":0.0,"ch":1,"track":2},{"t":309.693,"dur":0.112,"note":69,"inst":"piano_v0_additive_0","vel":1.0,"bend":0.0,"ch":5,"track":2},{"t":309.693,"dur":0.112,"note":81,"inst":"piano_v0_additive_0","vel":1.0,"bend":0.0,"ch":1,"track":2},{"t":309.805,"dur":0.224,"note":65,"inst":"celesta_v0_additive_3","vel":1.0,"bend":0.0,"ch":1,"track":2},{"t":309.805,"dur":0.224,"note":69,"inst":"piano_v0_additive_0","vel":1.0,"bend":0.0,"ch":5,"track":2},{"t":309.805,"dur":0.224,"note":72,"inst":"piano_v0_additive_0","vel":1.0,"bend":0.0,"ch":8,"track":2},{"t":309.805,"dur":0.224,"note":84,"inst":"piano_v0_additive_0","vel":1.0,"bend":0.0,"ch":4,"track":2},{"t":310.029,"dur":0.224,"note":65,"inst":"celesta_v0_additive_3","vel":1.0,"bend":0.0,"ch":1,"track":2},{"t":310.029,"dur":0.224,"note":69,"inst":"piano_v0_additive_0","vel":1.0,"bend":0.0,"ch":5,"track":2},{"t":310.029,"dur":0.224,"note":72,"inst":"piano_v0_additive_0","vel":1.0,"bend":0.0,"ch":8,"track":2},{"t":310.029,"dur":0.224,"note":77,"inst":"celesta_v0_additive_3","vel":1.0,"bend":0.0,"ch":13,"track":2},{"t":310.029,"dur":0.224,"note":81,"inst":"piano_v0_additive_0","vel":1.0,"bend":0.0,"ch":1,"track":2},{"t":310.254,"dur":0.224,"note":65,"inst":"celesta_v0_additive_3","vel":1.0,"bend":0.0,"ch":1,"track":2},{"t":310.254,"dur":0.224,"note":69,"inst":"piano_v0_additive_0","vel":1.0,"bend":0.0,"ch":5,"track":2},{"t":310.254,"dur":0.224,"note":72,"inst":"piano_v0_additive_0","vel":1.0,"bend":0.0,"ch":8,"track":2},{"t":310.254,"dur":0.224,"note":77,"inst":"celesta_v0_additive_3","vel":1.0,"bend":0.0,"ch":13,"track":2},{"t":310.254,"dur":0.224,"note":89,"inst":"celesta_v0_additive_3","vel":1.0,"bend":0.0,"ch":9,"track":2},{"t":310.478,"dur":0.224,"note":65,"inst":"celesta_v0_additive_3","vel":1.0,"bend":0.0,"ch":1,"track":2},{"t":310.478,"dur":0.224,"note":69,"inst":"piano_v0_additive_0","vel":1.0,"bend":0.0,"ch":5,"track":2},{"t":310.478,"dur":0.224,"note":72,"inst":"piano_v0_additive_0","vel":1.0,"bend":0.0,"ch":8,"track":2},{"t":310.478,"dur":0.224,"note":77,"inst":"celesta_v0_additive_3","vel":1.0,"bend":0.0,"ch":13,"track":2},{"t":310.478,"dur":0.224,"note":84,"inst":"piano_v0_additive_0","vel":1.0,"bend":0.0,"ch":4,"track":2},{"t":310.703,"dur":0.224,"note":65,"inst":"celesta_v0_additive_3","vel":1.0,"bend":0.0,"ch":1,"track":2},{"t":310.703,"dur":0.224,"note":69,"inst":"piano_v0_additive_0","vel":1.0,"bend":0.0,"ch":5,"track":2},{"t":310.703,"dur":0.224,"note":72,"inst":"piano_v0_additive_0","vel":1.0,"bend":0.0,"ch":8,"track":2},{"t":310.703,"dur":0.224,"note":77,"inst":"celesta_v0_additive_3","vel":1.0,"bend":0.0,"ch":13,"track":2},{"t":310.703,"dur":0.224,"note":93,"inst":"piano_v0_additive_0","vel":1.0,"bend":0.0,"ch":13,"track":2},{"t":310.927,"dur":0.224,"note":65,"inst":"celesta_v0_additive_3","vel":1.0,"bend":0.0,"ch":1,"track":2},{"t":310.927,"dur":0.224,"note":69,"inst":"piano_v0_additive_0","vel":1.0,"bend":0.0,"ch":5,"track":2},{"t":310.927,"dur":0.224,"note":72,"inst":"piano_v0_additive_0","vel":1.0,"bend":0.0,"ch":8,"track":2},{"t":310.927,"dur":0.224,"note":77,"inst":"celesta_v0_additive_3","vel":1.0,"bend":0.0,"ch":13,"track":2},{"t":310.927,"dur":0.224,"note":89,"inst":"celesta_v0_additive_3","vel":1.0,"bend":0.0,"ch":9,"track":2},{"t":311.152,"dur":0.224,"note":67,"inst":"organ_v0_additive_1","vel":1.0,"bend":0.0,"ch":3,"track":2},{"t":311.152,"dur":0.224,"note":71,"inst":"celesta_v0_additive_3","vel":1.0,"bend":0.0,"ch":7,"track":2},{"t":311.152,"dur":0.224,"note":74,"inst":"celesta_v0_additive_3","vel":1.0,"bend":0.0,"ch":10,"track":2},{"t":311.152,"dur":0.224,"note":101,"inst":"celesta_v0_additive_3","vel":1.0,"bend":0.0,"ch":5,"track":2},{"t":311.376,"dur":0.224,"note":67,"inst":"organ_v0_additive_1","vel":1.0,"bend":0.0,"ch":3,"track":2},{"t":311.376,"dur":0.224,"note":71,"inst":"celesta_v0_additive_3","vel":1.0,"bend":0.0,"ch":7,"track":2},{"t":311.376,"dur":0.224,"note":74,"inst":"celesta_v0_additive_3","vel":1.0,"bend":0.0,"ch":10,"track":2},{"t":311.376,"dur":0.224,"note":95,"inst":"celesta_v0_additive_3","vel":1.0,"bend":0.0,"ch":15,"track":2},{"t":311.6,"dur":0.449,"note":60,"inst":"piano_v0_additive_0","vel":1.0,"bend":0.0,"ch":12,"track":2},{"t":311.6,"dur":0.449,"note":72,"inst":"piano_v0_additive_0","vel":1.0,"bend":0.0,"ch":8,"track":2},{"t":311.6,"dur":0.449,"note":84,"inst":"piano_v0_additive_0","vel":1.0,"bend":0.0,"ch":4,"track":2},{"t":311.6,"dur":0.449,"note":96,"inst":"piano_v0_additive_0","vel":1.0,"bend":0.0,"ch":0,"track":2},{"t":312.162,"dur":0.112,"note":55,"inst":"organ_v0_additive_1","vel":1.0,"bend":0.0,"ch":7,"track":2},{"t":312.162,"dur":0.112,"note":67,"inst":"organ_v0_additive_1","vel":1.0,"bend":0.0,"ch":3,"track":2},{"t":312.274,"dur":0.112,"note":57,"inst":"piano_v0_additive_0","vel":1.0,"bend":0.0,"ch":9,"track":2},{"t":312.274,"dur":0.112,"note":69,"inst":"piano_v0_additive_0","vel":1.0,"bend":0.0,"ch":5,"track":2},{"t":312.386,"dur":0.112,"note":59,"inst":"celesta_v0_additive_3","vel":1.0,"bend":0.0,"ch":11,"track":2},{"t":312.386,"dur":0.112,"note":71,"inst":"celesta_v0_additive_3","vel":1.0,"bend":0.0,"ch":7,"track":2},{"t":312.498,"dur":0.112,"note":60,"inst":"piano_v0_additive_0","vel":1.0,"bend":0.0,"ch":12,"track":2},{"t":312.498,"dur":0.112,"note":72,"inst":"piano_v0_additive_0","vel":1.0,"bend":0.0,"ch":8,"track":2},{"t":312.611,"dur":0.112,"note":55,"inst":"organ_v0_additive_1","vel":1.0,"bend":0.0,"ch":7,"track":2},{"t":312.611,"dur":0.112,"note":67,"inst":"organ_v0_additive_1","vel":1.0,"bend":0.0,"ch":3,"track":2},{"t":312.723,"dur":0.112,"note":57,"inst":"piano_v0_additive_0","vel":1.0,"bend":0.0,"ch":9,"track":2},{"t":312.723,"dur":0.112,"note":69,"inst":"piano_v0_additive_0","vel":1.0,"bend":0.0,"ch":5,"track":2},{"t":312.835,"dur":0.112,"note":59,"inst":"celesta_v0_additive_3","vel":1.0,"bend":0.0,"ch":11,"track":2},{"t":312.835,"dur":0.112,"note":71,"inst":"celesta_v0_additive_3","vel":1.0,"bend":0.0,"ch":7,"track":2},{"t":312.947,"dur":0.112,"note":60,"inst":"piano_v0_additive_0","vel":1.0,"bend":0.0,"ch":12,"track":2},{"t":312.947,"dur":0.112,"note":72,"inst":"piano_v0_additive_0","vel":1.0,"bend":0.0,"ch":8,"track":2},{"t":313.06,"dur":0.112,"note":62,"inst":"celesta_v0_additive_3","vel":1.0,"bend":0.0,"ch":14,"track":2},{"t":313.06,"dur":0.112,"note":74,"inst":"celesta_v0_additive_3","vel":1.0,"bend":0.0,"ch":10,"track":2},{"t":313.172,"dur":0.112,"note":64,"inst":"organ_v0_additive_1","vel":1.0,"bend":0.0,"ch":0,"track":2},{"t":313.172,"dur":0.112,"note":76,"inst":"organ_v0_additive_1","vel":1.0,"bend":0.0,"ch":12,"track":2},{"t":313.284,"dur":0.112,"note":65,"inst":"celesta_v0_additive_3","vel":1.0,"bend":0.0,"ch":1,"track":2},{"t":313.284,"dur":0.112,"note":77,"inst":"celesta_v0_additive_3","vel":1.0,"bend":0.0,"ch":13,"track":2},{"t":313.396,"dur":0.224,"note":60,"inst":"piano_v0_additive_0","vel":1.0,"bend":0.0,"ch":12,"track":2},{"t":313.396,"dur":0.224,"note":64,"inst":"organ_v0_additive_1","vel":1.0,"bend":0.0,"ch":0,"track":2},{"t":313.396,"dur":0.224,"note":67,"inst":"organ_v0_additive_1","vel":1.0,"bend":0.0,"ch":3,"track":2},{"t":313.396,"dur":0.112,"note":79,"inst":"organ_v0_additive_1","vel":1.0,"bend":0.0,"ch":15,"track":2},{"t":313.508,"dur":0.112,"note":76,"inst":"organ_v0_additive_1","vel":1.0,"bend":0.0,"ch":12,"track":2},{"t":313.621,"dur":0.224,"note":60,"inst":"piano_v0_additive_0","vel":1.0,"bend":0.0,"ch":12,"track":2},{"t":313.621,"dur":0.224,"note":64,"inst":"organ_v0_additive_1","vel":1.0,"bend":0.0,"ch":0,"track":2},{"t":313.621,"dur":0.224,"note":67,"inst":"organ_v0_additive_1","vel":1.0,"bend":0.0,"ch":3,"track":2},{"t":313.621,"dur":0.112,"note":72,"inst":"piano_v0_additive_0","vel":1.0,"bend":0.0,"ch":8,"track":2},{"t":313.733,"dur":0.112,"note":79,"inst":"organ_v0_additive_1","vel":1.0,"bend":0.0,"ch":15,"track":2},{"t":313.845,"dur":0.224,"note":60,"inst":"piano_v0_additive_0","vel":1.0,"bend":0.0,"ch":12,"track":2},{"t":313.845,"dur":0.224,"note":64,"inst":"organ_v0_additive_1","vel":1.0,"bend":0.0,"ch":0,"track":2},{"t":313.845,"dur":0.224,"note":67,"inst":"organ_v0_additive_1","vel":1.0,"bend":0.0,"ch":3,"track":2},{"t":313.845,"dur":0.112,"note":84,"inst":"piano_v0_additive_0","vel":1.0,"bend":0.0,"ch":4,"track":2},{"t":313.957,"dur":0.112,"note":79,"inst":"organ_v0_additive_1","vel":1.0,"bend":0.0,"ch":15,"track":2},{"t":314.07,"dur":0.224,"note":60,"inst":"piano_v0_additive_0","vel":1.0,"bend":0.0,"ch":12,"track":2},{"t":314.07,"dur":0.224,"note":64,"inst":"organ_v0_additive_1","vel":1.0,"bend":0.0,"ch":0,"track":2},{"t":314.07,"dur":0.224,"note":67,"inst":"organ_v0_additive_1","vel":1.0,"bend":0.0,"ch":3,"track":2},{"t":314.07,"dur":0.112,"note":76,"inst":"organ_v0_additive_1","vel":1.0,"bend":0.0,"ch":12,"track":2},{"t":314.182,"dur":0.112,"note":84,"inst":"piano_v0_additive_0","vel":1.0,"bend":0.0,"ch":4,"track":2},{"t":314.294,"dur":0.224,"note":60,"inst":"piano_v0_additive_0","vel":1.0,"bend":0.0,"ch":12,"track":2},{"t":314.294,"dur":0.224,"note":64,"inst":"organ_v0_additive_1","vel":1.0,"bend":0.0,"ch":0,"track":2},{"t":314.294,"dur":0.224,"note":67,"inst":"organ_v0_additive_1","vel":1.0,"bend":0.0,"ch":3,"track":2},{"t":314.294,"dur":0.224,"note":72,"inst":"piano_v0_additive_0","vel":1.0,"bend":0.0,"ch":8,"track":2},{"t":314.294,"dur":0.112,"note":88,"inst":"organ_v0_additive_1","vel":1.0,"bend":0.0,"ch":8,"track":2},{"t":314.406,"dur":0.112,"note":84,"inst":"piano_v0_additive_0","vel":1.0,"bend":0.0,"ch":4,"track":2},{"t":314.519,"dur":0.224,"note":60,"inst":"piano_v0_additive_0","vel":1.0,"bend":0.0,"ch":12,"track":2},{"t":314.519,"dur":0.224,"note":64,"inst":"organ_v0_additive_1","vel":1.0,"bend":0.0,"ch":0,"track":2},{"t":314.519,"dur":0.224,"note":67,"inst":"organ_v0_additive_1","vel":1.0,"bend":0.0,"ch":3,"track":2},{"t":314.519,"dur":0.224,"note":72,"inst":"piano_v0_additive_0","vel":1.0,"bend":0.0,"ch":8,"track":2},{"t":314.519,"dur":0.112,"note":79,"inst":"organ_v0_additive_1","vel":1.0,"bend":0.0,"ch":15,"track":2},{"t":314.631,"dur":0.112,"note":88,"inst":"organ_v0_additive_1","vel":1.0,"bend":0.0,"ch":8,"track":2},{"t":314.743,"dur":0.224,"note":60,"inst":"piano_v0_additive_0","vel":1.0,"bend":0.0,"ch":12,"track":2},{"t":314.743,"dur":0.224,"note":64,"inst":"organ_v0_additive_1","vel":1.0,"bend":0.0,"ch":0,"track":2},{"t":314.743,"dur":0.224,"note":67,"inst":"organ_v0_additive_1","vel":1.0,"bend":0.0,"ch":3,"track":2},{"t":314.743,"dur":0.224,"note":72,"inst":"piano_v0_additive_0","vel":1.0,"bend":0.0,"ch":8,"track":2},{"t":314.743,"dur":0.112,"note":91,"inst":"organ_v0_additive_1","vel":1.0,"bend":0.0,"ch":11,"track":2},{"t":314.855,"dur":0.112,"note":88,"inst":"organ_v0_additive_1","vel":1.0,"bend":0.0,"ch":8,"track":2},{"t":314.967,"dur":0.224,"note":60,"inst":"piano_v0_additive_0","vel":1.0,"bend":0.0,"ch":12,"track":2},{"t":314.967,"dur":0.224,"note":64,"inst":"organ_v0_additive_1","vel":1.0,"bend":0.0,"ch":0,"track":2},{"t":314.967,"dur":0.224,"note":67,"inst":"organ_v0_additive_1","vel":1.0,"bend":0.0,"ch":3,"track":2},{"t":314.967,"dur":0.224,"note":72,"inst":"piano_v0_additive_0","vel":1.0,"bend":0.0,"ch":8,"track":2},{"t":314.967,"dur":0.112,"note":84,"inst":"piano_v0_additive_0","vel":1.0,"bend":0.0,"ch":4,"track":2},{"t":315.08,"dur":0.112,"note":91,"inst":"organ_v0_additive_1","vel":1.0,"bend":0.0,"ch":11,"track":2},{"t":315.192,"dur":0.449,"note":65,"inst":"celesta_v0_additive_3","vel":1.0,"bend":0.0,"ch":1,"track":2},{"t":315.192,"dur":0.449,"note":69,"inst":"piano_v0_additive_0","vel":1.0,"bend":0.0,"ch":5,"track":2},{"t":315.192,"dur":0.449,"note":72,"inst":"piano_v0_additive_0","vel":1.0,"bend":0.0,"ch":8,"track":2},{"t":315.192,"dur":0.449,"note":81,"inst":"piano_v0_additive_0","vel":1.0,"bend":0.0,"ch":1,"track":2},{"t":315.192,"dur":0.449,"note":84,"inst":"piano_v0_additive_0","vel":1.0,"bend":0.0,"ch":4,"track":2},{"t":315.192,"dur":0.449,"note":89,"inst":"celesta_v0_additive_3","vel":1.0,"bend":0.0,"ch":9,"track":2},{"t":315.192,"dur":0.449,"note":93,"inst":"piano_v0_additive_0","vel":1.0,"bend":0.0,"ch":13,"track":2},{"t":315.753,"dur":0.112,"note":60,"inst":"piano_v0_additive_0","vel":1.0,"bend":0.0,"ch":12,"track":2},{"t":315.753,"dur":0.112,"note":72,"inst":"piano_v0_additive_0","vel":1.0,"bend":0.0,"ch":8,"track":2},{"t":315.865,"dur":0.112,"note":62,"inst":"celesta_v0_additive_3","vel":1.0,"bend":0.0,"ch":14,"track":2},{"t":315.865,"dur":0.112,"note":74,"inst":"celesta_v0_additive_3","vel":1.0,"bend":0.0,"ch":10,"track":2},{"t":315.978,"dur":0.112,"note":64,"inst":"organ_v0_additive_1","vel":1.0,"bend":0.0,"ch":0,"track":2},{"t":315.978,"dur":0.112,"note":76,"inst":"organ_v0_additive_1","vel":1.0,"bend":0.0,"ch":12,"track":2},{"t":316.09,"dur":0.112,"note":65,"inst":"celesta_v0_additive_3","vel":1.0,"bend":0.0,"ch":1,"track":2},{"t":316.09,"dur":0.112,"note":77,"inst":"celesta_v0_additive_3","vel":1.0,"bend":0.0,"ch":13,"track":2},{"t":316.202,"dur":0.112,"note":60,"inst":"piano_v0_additive_0","vel":1.0,"bend":0.0,"ch":12,"track":2},{"t":316.202,"dur":0.112,"note":72,"inst":"piano_v0_additive_0","vel":1.0,"bend":0.0,"ch":8,"track":2},{"t":316.314,"dur":0.112,"note":62,"inst":"celesta_v0_additive_3","vel":1.0,"bend":0.0,"ch":14,"track":2},{"t":316.314,"dur":0.112,"note":74,"inst":"celesta_v0_additive_3","vel":1.0,"bend":0.0,"ch":10,"track":2},{"t":316.427,"dur":0.112,"note":64,"inst":"organ_v0_additive_1","vel":1.0,"bend":0.0,"ch":0,"track":2},{"t":316.427,"dur":0.112,"note":76,"inst":"organ_v0_additive_1","vel":1.0,"bend":0.0,"ch":12,"track":2},{"t":316.539,"dur":0.112,"note":65,"inst":"celesta_v0_additive_3","vel":1.0,"bend":0.0,"ch":1,"track":2},{"t":316.539,"dur":0.112,"note":77,"inst":"celesta_v0_additive_3","vel":1.0,"bend":0.0,"ch":13,"track":2},{"t":316.651,"dur":0.112,"note":67,"inst":"organ_v0_additive_1","vel":1.0,"bend":0.0,"ch":3,"track":2},{"t":316.651,"dur":0.112,"note":79,"inst":"organ_v0_additive_1","vel":1.0,"bend":0.0,"ch":15,"track":2},{"t":316.763,"dur":0.112,"note":69,"inst":"piano_v0_additive_0","vel":1.0,"bend":0.0,"ch":5,"track":2},{"t":316.763,"dur":0.112,"note":81,"inst":"piano_v0_additive_0","vel":1.0,"bend":0.0,"ch":1,"track":2},{"t":316.875,"dur":0.112,"note":69,"inst":"piano_v0_additive_0","vel":1.0,"bend":0.0,"ch":5,"track":2},{"t":316.875,"dur":0.112,"note":81,"inst":"piano_v0_additive_0","vel":1.0,"bend":0.0,"ch":1,"track":2},{"t":316.988,"dur":0.224,"note":65,"inst":"celesta_v0_additive_3","vel":1.0,"bend":0.0,"ch":1,"track":2},{"t":316.988,"dur":0.224,"note":69,"inst":"piano_v0_additive_0","vel":1.0,"bend":0.0,"ch":5,"track":2},{"t":316.988,"dur":0.224,"note":72,"inst":"piano_v0_additive_0","vel":1.0,"bend":0.0,"ch":8,"track":2},{"t":316.988,"dur":0.112,"note":84,"inst":"piano_v0_additive_0","vel":1.0,"bend":0.0,"ch":4,"track":2},{"t":317.1,"dur":0.112,"note":81,"inst":"piano_v0_additive_0","vel":1.0,"bend":0.0,"ch":1,"track":2},{"t":317.212,"dur":0.224,"note":65,"inst":"celesta_v0_additive_3","vel":1.0,"bend":0.0,"ch":1,"track":2},{"t":317.212,"dur":0.224,"note":69,"inst":"piano_v0_additive_0","vel":1.0,"bend":0.0,"ch":5,"track":2},{"t":317.212,"dur":0.224,"note":72,"inst":"piano_v0_additive_0","vel":1.0,"bend":0.0,"ch":8,"track":2},{"t":317.212,"dur":0.112,"note":77,"inst":"celesta_v0_additive_3","vel":1.0,"bend":0.0,"ch":13,"track":2},{"t":317.324,"dur":0.112,"note":84,"inst":"piano_v0_additive_0","vel":1.0,"bend":0.0,"ch":4,"track":2},{"t":317.437,"dur":0.224,"note":65,"inst":"celesta_v0_additive_3","vel":1.0,"bend":0.0,"ch":1,"track":2},{"t":317.437,"dur":0.224,"note":69,"inst":"piano_v0_additive_0","vel":1.0,"bend":0.0,"ch":5,"track":2},{"t":317.437,"dur":0.224,"note":72,"inst":"piano_v0_additive_0","vel":1.0,"bend":0.0,"ch":8,"track":2},{"t":317.437,"dur":0.112,"note":89,"inst":"celesta_v0_additive_3","vel":1.0,"bend":0.0,"ch":9,"track":2},{"t":317.549,"dur":0.112,"note":84,"inst":"piano_v0_additive_0","vel":1.0,"bend":0.0,"ch":4,"track":2},{"t":317.661,"dur":0.224,"note":65,"inst":"celesta_v0_additive_3","vel":1.0,"bend":0.0,"ch":1,"track":2},{"t":317.661,"dur":0.224,"note":69,"inst":"piano_v0_additive_0","vel":1.0,"bend":0.0,"ch":5,"track":2},{"t":317.661,"dur":0.224,"note":72,"inst":"piano_v0_additive_0","vel":1.0,"bend":0.0,"ch":8,"track":2},{"t":317.661,"dur":0.112,"note":81,"inst":"piano_v0_additive_0","vel":1.0,"bend":0.0,"ch":1,"track":2},{"t":317.773,"dur":0.112,"note":89,"inst":"celesta_v0_additive_3","vel":1.0,"bend":0.0,"ch":9,"track":2},{"t":317.886,"dur":0.224,"note":65,"inst":"celesta_v0_additive_3","vel":1.0,"bend":0.0,"ch":1,"track":2},{"t":317.886,"dur":0.224,"note":69,"inst":"piano_v0_additive_0","vel":1.0,"bend":0.0,"ch":5,"track":2},{"t":317.886,"dur":0.224,"note":72,"inst":"piano_v0_additive_0","vel":1.0,"bend":0.0,"ch":8,"track":2},{"t":317.886,"dur":0.224,"note":77,"inst":"celesta_v0_additive_3","vel":1.0,"bend":0.0,"ch":13,"track":2},{"t":317.886,"dur":0.112,"note":93,"inst":"piano_v0_additive_0","vel":1.0,"bend":0.0,"ch":13,"track":2},{"t":317.998,"dur":0.112,"note":89,"inst":"celesta_v0_additive_3","vel":1.0,"bend":0.0,"ch":9,"track":2},{"t":318.11,"dur":0.224,"note":65,"inst":"celesta_v0_additive_3","vel":1.0,"bend":0.0,"ch":1,"track":2},{"t":318.11,"dur":0.224,"note":69,"inst":"piano_v0_additive_0","vel":1.0,"bend":0.0,"ch":5,"track":2},{"t":318.11,"dur":0.224,"note":72,"inst":"piano_v0_additive_0","vel":1.0,"bend":0.0,"ch":8,"track":2},{"t":318.11,"dur":0.224,"note":77,"inst":"celesta_v0_additive_3","vel":1.0,"bend":0.0,"ch":13,"track":2},{"t":318.11,"dur":0.112,"note":84,"inst":"piano_v0_additive_0","vel":1.0,"bend":0.0,"ch":4,"track":2},{"t":318.222,"dur":0.112,"note":93,"inst":"piano_v0_additive_0","vel":1.0,"bend":0.0,"ch":13,"track":2},{"t":318.334,"dur":0.224,"note":67,"inst":"organ_v0_additive_1","vel":1.0,"bend":0.0,"ch":3,"track":2},{"t":318.334,"dur":0.224,"note":71,"inst":"celesta_v0_additive_3","vel":1.0,"bend":0.0,"ch":7,"track":2},{"t":318.334,"dur":0.224,"note":74,"inst":"celesta_v0_additive_3","vel":1.0,"bend":0.0,"ch":10,"track":2},{"t":318.334,"dur":0.112,"note":89,"inst":"celesta_v0_additive_3","vel":1.0,"bend":0.0,"ch":9,"track":2},{"t":318.447,"dur":0.112,"note":101,"inst":"celesta_v0_additive_3","vel":1.0,"bend":0.0,"ch":5,"track":2},{"t":318.559,"dur":0.224,"note":67,"inst":"organ_v0_additive_1","vel":1.0,"bend":0.0,"ch":3,"track":2},{"t":318.559,"dur":0.224,"note":71,"inst":"celesta_v0_additive_3","vel":1.0,"bend":0.0,"ch":7,"track":2},{"t":318.559,"dur":0.224,"note":74,"inst":"celesta_v0_additive_3","vel":1.0,"bend":0.0,"ch":10,"track":2},{"t":318.559,"dur":0.112,"note":98,"inst":"celesta_v0_additive_3","vel":1.0,"bend":0.0,"ch":2,"track":2},{"t":318.671,"dur":0.112,"note":95,"inst":"celesta_v0_additive_3","vel":1.0,"bend":0.0,"ch":15,"track":2},{"t":318.783,"dur":0.449,"note":60,"inst":"piano_v0_additive_0","vel":1.0,"bend":0.0,"ch":12,"track":2},{"t":318.783,"dur":0.449,"note":72,"inst":"piano_v0_additive_0","vel":1.0,"bend":0.0,"ch":8,"track":2},{"t":318.783,"dur":0.449,"note":96,"inst":"piano_v0_additive_0","vel":1.0,"bend":0.0,"ch":0,"track":2},{"t":319.681,"dur":0.15,"note":72,"inst":"piano_v0_additive_0","vel":1.0,"bend":0.0,"ch":8,"track":2},{"t":319.681,"dur":0.224,"note":88,"inst":"organ_v0_additive_1","vel":1.0,"bend":0.0,"ch":8,"track":2},{"t":319.831,"dur":0.15,"note":76,"inst":"organ_v0_additive_1","vel":1.0,"bend":0.0,"ch":12,"track":2},{"t":319.906,"dur":0.112,"note":89,"inst":"celesta_v0_additive_3","vel":1.0,"bend":0.0,"ch":9,"track":2},{"t":319.981,"dur":0.15,"note":79,"inst":"organ_v0_additive_1","vel":1.0,"bend":0.0,"ch":15,"track":2},{"t":320.018,"dur":0.112,"note":88,"inst":"organ_v0_additive_1","vel":1.0,"bend":0.0,"ch":8,"track":2},{"t":320.13,"dur":0.15,"note":71,"inst":"celesta_v0_additive_3","vel":1.0,"bend":0.0,"ch":7,"track":2},{"t":320.13,"dur":0.224,"note":91,"inst":"organ_v0_additive_1","vel":1.0,"bend":0.0,"ch":11,"track":2},{"t":320.28,"dur":0.15,"note":74,"inst":"celesta_v0_additive_3","vel":1.0,"bend":0.0,"ch":10,"track":2},{"t":320.355,"dur":0.112,"note":93,"inst":"piano_v0_additive_0","vel":1.0,"bend":0.0,"ch":13,"track":2},{"t":320.43,"dur":0.15,"note":79,"inst":"organ_v0_additive_1","vel":1.0,"bend":0.0,"ch":15,"track":2},{"t":320.467,"dur":0.112,"note":91,"inst":"organ_v0_additive_1","vel":1.0,"bend":0.0,"ch":11,"track":2},{"t":320.579,"dur":0.15,"note":72,"inst":"piano_v0_additive_0","vel":1.0,"bend":0.0,"ch":8,"track":2},{"t":320.579,"dur":0.224,"note":88,"inst":"organ_v0_additive_1","vel":1.0,"bend":0.0,"ch":8,"track":2},{"t":320.729,"dur":0.15,"note":76,"inst":"organ_v0_additive_1","vel":1.0,"bend":0.0,"ch":12,"track":2},{"t":320.804,"dur":0.112,"note":89,"inst":"celesta_v0_additive_3","vel":1.0,"bend":0.0,"ch":9,"track":2},{"t":320.878,"dur":0.15,"note":79,"inst":"organ_v0_additive_1","vel":1.0,"bend":0.0,"ch":15,"track":2},{"t":320.916,"dur":0.112,"note":88,"inst":"organ_v0_additive_1","vel":1.0,"bend":0.0,"ch":8,"track":2},{"t":321.028,"dur":0.15,"note":71,"inst":"celesta_v0_additive_3","vel":1.0,"bend":0.0,"ch":7,"track":2},{"t":321.028,"dur":0.224,"note":91,"inst":"organ_v0_additive_1","vel":1.0,"bend":0.0,"ch":11,"track":2},{"t":321.178,"dur":0.15,"note":74,"inst":"celesta_v0_additive_3","vel":1.0,"bend":0.0,"ch":10,"track":2},{"t":321.253,"dur":0.112,"note":93,"inst":"piano_v0_additive_0","vel":1.0,"bend":0.0,"ch":13,"track":2},{"t":321.327,"dur":0.15,"note":79,"inst":"organ_v0_additive_1","vel":1.0,"bend":0.0,"ch":15,"track":2},{"t":321.365,"dur":0.112,"note":91,"inst":"organ_v0_additive_1","vel":1.0,"bend":0.0,"ch":11,"track":2},{"t":321.477,"dur":0.15,"note":69,"inst":"piano_v0_additive_0","vel":1.0,"bend":0.0,"ch":5,"track":2},{"t":321.477,"dur":0.224,"note":84,"inst":"piano_v0_additive_0","vel":1.0,"bend":0.0,"ch":4,"track":2},{"t":321.627,"dur":0.15,"note":72,"inst":"piano_v0_additive_0","vel":1.0,"bend":0.0,"ch":8,"track":2},{"t":321.701,"dur":0.112,"note":86,"inst":"celesta_v0_additive_3","vel":1.0,"bend":0.0,"ch":6,"track":2},{"t":321.776,"dur":0.15,"note":76,"inst":"organ_v0_additive_1","vel":1.0,"bend":0.0,"ch":12,"track":2},{"t":321.814,"dur":0.112,"note":84,"inst":"piano_v0_additive_0","vel":1.0,"bend":0.0,"ch":4,"track":2},{"t":321.926,"dur":0.15,"note":67,"inst":"organ_v0_additive_1","vel":1.0,"bend":0.0,"ch":3,"track":2},{"t":321.926,"dur":0.224,"note":88,"inst":"organ_v0_additive_1","vel":1.0,"bend":0.0,"ch":8,"track":2},{"t":322.076,"dur":0.15,"note":71,"inst":"celesta_v0_additive_3","vel":1.0,"bend":0.0,"ch":7,"track":2},{"t":322.15,"dur":0.112,"note":89,"inst":"celesta_v0_additive_3","vel":1.0,"bend":0.0,"ch":9,"track":2},{"t":322.225,"dur":0.15,"note":76,"inst":"organ_v0_additive_1","vel":1.0,"bend":0.0,"ch":12,"track":2},{"t":322.263,"dur":0.112,"note":88,"inst":"organ_v0_additive_1","vel":1.0,"bend":0.0,"ch":8,"track":2},{"t":322.375,"dur":0.15,"note":69,"inst":"piano_v0_additive_0","vel":1.0,"bend":0.0,"ch":5,"track":2},{"t":322.375,"dur":0.224,"note":84,"inst":"piano_v0_additive_0","vel":1.0,"bend":0.0,"ch":4,"track":2},{"t":322.525,"dur":0.15,"note":72,"inst":"piano_v0_additive_0","vel":1.0,"bend":0.0,"ch":8,"track":2},{"t":322.599,"dur":0.112,"note":86,"inst":"celesta_v0_additive_3","vel":1.0,"bend":0.0,"ch":6,"track":2},{"t":322.674,"dur":0.15,"note":76,"inst":"organ_v0_additive_1","vel":1.0,"bend":0.0,"ch":12,"track":2},{"t":322.712,"dur":0.112,"note":84,"inst":"piano_v0_additive_0","vel":1.0,"bend":0.0,"ch":4,"track":2},{"t":322.824,"dur":0.15,"note":67,"inst":"organ_v0_additive_1","vel":1.0,"bend":0.0,"ch":3,"track":2},{"t":322.824,"dur":0.224,"note":88,"inst":"organ_v0_additive_1","vel":1.0,"bend":0.0,"ch":8,"track":2},{"t":322.973,"dur":0.15,"note":71,"inst":"celesta_v0_additive_3","vel":1.0,"bend":0.0,"ch":7,"track":2},{"t":323.048,"dur":0.112,"note":89,"inst":"celesta_v0_additive_3","vel":1.0,"bend":0.0,"ch":9,"track":2},{"t":323.123,"dur":0.15,"note":76,"inst":"organ_v0_additive_1","vel":1.0,"bend":0.0,"ch":12,"track":2},{"t":323.161,"dur":0.112,"note":88,"inst":"organ_v0_additive_1","vel":1.0,"bend":0.0,"ch":8,"track":2},{"t":323.273,"dur":0.15,"note":69,"inst":"piano_v0_additive_0","vel":1.0,"bend":0.0,"ch":5,"track":2},{"t":323.273,"dur":0.224,"note":84,"inst":"piano_v0_additive_0","vel":1.0,"bend":0.0,"ch":4,"track":2},{"t":323.422,"dur":0.15,"note":72,"inst":"piano_v0_additive_0","vel":1.0,"bend":0.0,"ch":8,"track":2},{"t":323.497,"dur":0.112,"note":86,"inst":"celesta_v0_additive_3","vel":1.0,"bend":0.0,"ch":6,"track":2},{"t":323.572,"dur":0.15,"note":76,"inst":"organ_v0_additive_1","vel":1.0,"bend":0.0,"ch":12,"track":2},{"t":323.609,"dur":0.112,"note":84,"inst":"piano_v0_additive_0","vel":1.0,"bend":0.0,"ch":4,"track":2},{"t":323.722,"dur":0.15,"note":65,"inst":"celesta_v0_additive_3","vel":1.0,"bend":0.0,"ch":1,"track":2},{"t":323.722,"dur":0.224,"note":86,"inst":"celesta_v0_additive_3","vel":1.0,"bend":0.0,"ch":6,"track":2},{"t":323.871,"dur":0.15,"note":69,"inst":"piano_v0_additive_0","vel":1.0,"bend":0.0,"ch":5,"track":2},{"t":323.946,"dur":0.112,"note":88,"inst":"organ_v0_additive_1","vel":1.0,"bend":0.0,"ch":8,"track":2},{"t":324.021,"dur":0.15,"note":74,"inst":"celesta_v0_additive_3","vel":1.0,"bend":0.0,"ch":10,"track":2},{"t":324.058,"dur":0.112,"note":86,"inst":"celesta_v0_additive_3","vel":1.0,"bend":0.0,"ch":6,"track":2},{"t":324.171,"dur":0.112,"note":67,"inst":"organ_v0_additive_1","vel":1.0,"bend":0.0,"ch":3,"track":2},{"t":324.171,"dur":0.224,"note":83,"inst":"celesta_v0_additive_3","vel":1.0,"bend":0.0,"ch":3,"track":2},{"t":324.283,"dur":0.112,"note":71,"inst":"celesta_v0_additive_3","vel":1.0,"bend":0.0,"ch":7,"track":2},{"t":324.395,"dur":0.112,"note":74,"inst":"celesta_v0_additive_3","vel":1.0,"bend":0.0,"ch":10,"track":2},{"t":324.395,"dur":0.112,"note":84,"inst":"piano_v0_additive_0","vel":1.0,"bend":0.0,"ch":4,"track":2},{"t":324.507,"dur":0.112,"note":71,"inst":"celesta_v0_additive_3","vel":1.0,"bend":0.0,"ch":7,"track":2},{"t":324.507,"dur":0.112,"note":83,"inst":"celesta_v0_additive_3","vel":1.0,"bend":0.0,"ch":3,"track":2},{"t":324.62,"dur":0.112,"note":65,"inst":"celesta_v0_additive_3","vel":1.0,"bend":0.0,"ch":1,"track":2},{"t":324.62,"dur":0.224,"note":86,"inst":"celesta_v0_additive_3","vel":1.0,"bend":0.0,"ch":6,"track":2},{"t":324.732,"dur":0.112,"note":69,"inst":"piano_v0_additive_0","vel":1.0,"bend":0.0,"ch":5,"track":2},{"t":324.844,"dur":0.112,"note":74,"inst":"celesta_v0_additive_3","vel":1.0,"bend":0.0,"ch":10,"track":2},{"t":324.844,"dur":0.112,"note":88,"inst":"organ_v0_additive_1","vel":1.0,"bend":0.0,"ch":8,"track":2},{"t":324.956,"dur":0.112,"note":69,"inst":"piano_v0_additive_0","vel":1.0,"bend":0.0,"ch":5,"track":2},{"t":324.956,"dur":0.112,"note":86,"inst":"celesta_v0_additive_3","vel":1.0,"bend":0.0,"ch":6,"track":2},{"t":325.068,"dur":0.112,"note":64,"inst":"organ_v0_additive_1","vel":1.0,"bend":0.0,"ch":0,"track":2},{"t":325.068,"dur":0.224,"note":79,"inst":"organ_v0_additive_1","vel":1.0,"bend":0.0,"ch":15,"track":2},{"t":325.181,"dur":0.112,"note":67,"inst":"organ_v0_additive_1","vel":1.0,"bend":0.0,"ch":3,"track":2},{"t":325.293,"dur":0.112,"note":71,"inst":"celesta_v0_additive_3","vel":1.0,"bend":0.0,"ch":7,"track":2},{"t":325.293,"dur":0.112,"note":81,"inst":"piano_v0_additive_0","vel":1.0,"bend":0.0,"ch":1,"track":2},{"t":325.405,"dur":0.112,"note":67,"inst":"organ_v0_additive_1","vel":1.0,"bend":0.0,"ch":3,"track":2},{"t":325.405,"dur":0.112,"note":79,"inst":"organ_v0_additive_1","vel":1.0,"bend":0.0,"ch":15,"track":2},{"t":325.517,"dur":0.112,"note":62,"inst":"celesta_v0_additive_3","vel":1.0,"bend":0.0,"ch":14,"track":2},{"t":325.517,"dur":0.449,"note":83,"inst":"celesta_v0_additive_3","vel":1.0,"bend":0.0,"ch":3,"track":2},{"t":325.63,"dur":0.112,"note":65,"inst":"celesta_v0_additive_3","vel":1.0,"bend":0.0,"ch":1,"track":2},{"t":325.742,"dur":0.112,"note":71,"inst":"celesta_v0_additive_3","vel":1.0,"bend":0.0,"ch":7,"track":2},{"t":325.854,"dur":0.112,"note":65,"inst":"celesta_v0_additive_3","vel":1.0,"bend":0.0,"ch":1,"track":2},{"t":325.966,"dur":0.112,"note":60,"inst":"piano_v0_additive_0","vel":1.0,"bend":0.0,"ch":12,"track":2},{"t":325.966,"dur":0.224,"note":76,"inst":"organ_v0_additive_1","vel":1.0,"bend":0.0,"ch":12,"track":2},{"t":326.079,"dur":0.112,"note":64,"inst":"organ_v0_additive_1","vel":1.0,"bend":0.0,"ch":0,"track":2},{"t":326.191,"dur":0.112,"note":67,"inst":"organ_v0_additive_1","vel":1.0,"bend":0.0,"ch":3,"track":2},{"t":326.191,"dur":0.112,"note":77,"inst":"celesta_v0_additive_3","vel":1.0,"bend":0.0,"ch":13,"track":2},{"t":326.303,"dur":0.112,"note":64,"inst":"organ_v0_additive_1","vel":1.0,"bend":0.0,"ch":0,"track":2},{"t":326.303,"dur":0.112,"note":76,"inst":"organ_v0_additive_1","vel":1.0,"bend":0.0,"ch":12,"track":2},{"t":326.415,"dur":0.112,"note":59,"inst":"celesta_v0_additive_3","vel":1.0,"bend":0.0,"ch":11,"track":2},{"t":326.415,"dur":0.224,"note":79,"inst":"organ_v0_additive_1","vel":1.0,"bend":0.0,"ch":15,"track":2},{"t":326.528,"dur":0.112,"note":62,"inst":"celesta_v0_additive_3","vel":1.0,"bend":0.0,"ch":14,"track":2},{"t":326.64,"dur":0.112,"note":67,"inst":"organ_v0_additive_1","vel":1.0,"bend":0.0,"ch":3,"track":2},{"t":326.64,"dur":0.112,"note":81,"inst":"piano_v0_additive_0","vel":1.0,"bend":0.0,"ch":1,"track":2},{"t":326.752,"dur":0.112,"note":62,"inst":"celesta_v0_additive_3","vel":1.0,"bend":0.0,"ch":14,"track":2},{"t":326.752,"dur":0.112,"note":79,"inst":"organ_v0_additive_1","vel":1.0,"bend":0.0,"ch":15,"track":2},{"t":326.864,"dur":0.112,"note":57,"inst":"piano_v0_additive_0","vel":1.0,"bend":0.0,"ch":9,"track":2},{"t":326.864,"dur":0.224,"note":81,"inst":"piano_v0_additive_0","vel":1.0,"bend":0.0,"ch":1,"track":2},{"t":326.976,"dur":0.112,"note":62,"inst":"celesta_v0_additive_3","vel":1.0,"bend":0.0,"ch":14,"track":2},{"t":327.089,"dur":0.112,"note":65,"inst":"celesta_v0_additive_3","vel":1.0,"bend":0.0,"ch":1,"track":2},{"t":327.089,"dur":0.112,"note":83,"inst":"celesta_v0_additive_3","vel":1.0,"bend":0.0,"ch":3,"track":2},{"t":327.201,"dur":0.112,"note":62,"inst":"celesta_v0_additive_3","vel":1.0,"bend":0.0,"ch":14,"track":2},{"t":327.201,"dur":0.112,"note":81,"inst":"piano_v0_additive_0","vel":1.0,"bend":0.0,"ch":1,"track":2},{"t":327.313,"dur":0.112,"note":55,"inst":"organ_v0_additive_1","vel":1.0,"bend":0.0,"ch":7,"track":2},{"t":327.313,"dur":0.449,"note":83,"inst":"celesta_v0_additive_3","vel":1.0,"bend":0.0,"ch":3,"track":2},{"t":327.425,"dur":0.112,"note":62,"inst":"celesta_v0_additive_3","vel":1.0,"bend":0.0,"ch":14,"track":2},{"t":327.538,"dur":0.112,"note":67,"inst":"organ_v0_additive_1","vel":1.0,"bend":0.0,"ch":3,"track":2},{"t":327.65,"dur":0.112,"note":62,"inst":"celesta_v0_additive_3","vel":1.0,"bend":0.0,"ch":14,"track":2},{"t":327.762,"dur":0.112,"note":67,"inst":"organ_v0_additive_1","vel":1.0,"bend":0.0,"ch":3,"track":2},{"t":327.762,"dur":0.224,"note":83,"inst":"celesta_v0_additive_3","vel":1.0,"bend":0.0,"ch":3,"track":2},{"t":327.874,"dur":0.112,"note":71,"inst":"celesta_v0_additive_3","vel":1.0,"bend":0.0,"ch":7,"track":2},{"t":327.987,"dur":0.112,"note":74,"inst":"celesta_v0_additive_3","vel":1.0,"bend":0.0,"ch":10,"track":2},{"t":327.987,"dur":0.112,"note":84,"inst":"piano_v0_additive_0","vel":1.0,"bend":0.0,"ch":4,"track":2},{"t":328.099,"dur":0.112,"note":71,"inst":"celesta_v0_additive_3","vel":1.0,"bend":0.0,"ch":7,"track":2},{"t":328.099,"dur":0.112,"note":83,"inst":"celesta_v0_additive_3","vel":1.0,"bend":0.0,"ch":3,"track":2},{"t":328.211,"dur":0.112,"note":65,"inst":"celesta_v0_additive_3","vel":1.0,"bend":0.0,"ch":1,"track":2},{"t":328.211,"dur":0.224,"note":86,"inst":"celesta_v0_additive_3","vel":1.0,"bend":0.0,"ch":6,"track":2},{"t":328.323,"dur":0.112,"note":69,"inst":"piano_v0_additive_0","vel":1.0,"bend":0.0,"ch":5,"track":2},{"t":328.435,"dur":0.112,"note":74,"inst":"celesta_v0_additive_3","vel":1.0,"bend":0.0,"ch":10,"track":2},{"t":328.435,"dur":0.112,"note":88,"inst":"organ_v0_additive_1","vel":1.0,"bend":0.0,"ch":8,"track":2},{"t":328.548,"dur":0.112,"note":69,"inst":"piano_v0_additive_0","vel":1.0,"bend":0.0,"ch":5,"track":2},{"t":328.548,"dur":0.112,"note":86,"inst":"celesta_v0_additive_3","vel":1.0,"bend":0.0,"ch":6,"track":2},{"t":328.66,"dur":0.112,"note":64,"inst":"organ_v0_additive_1","vel":1.0,"bend":0.0,"ch":0,"track":2},{"t":328.66,"dur":0.224,"note":91,"inst":"organ_v0_additive_1","vel":1.0,"bend":0.0,"ch":11,"track":2},{"t":328.772,"dur":0.112,"note":69,"inst":"piano_v0_additive_0","vel":1.0,"bend":0.0,"ch":5,"track":2},{"t":328.884,"dur":0.112,"note":62,"inst":"celesta_v0_additive_3","vel":1.0,"bend":0.0,"ch":14,"track":2},{"t":328.884,"dur":0.112,"note":93,"inst":"piano_v0_additive_0","vel":1.0,"bend":0.0,"ch":13,"track":2},{"t":328.997,"dur":0.112,"note":69,"inst":"piano_v0_additive_0","vel":1.0,"bend":0.0,"ch":5,"track":2},{"t":328.997,"dur":0.112,"note":91,"inst":"organ_v0_additive_1","vel":1.0,"bend":0.0,"ch":11,"track":2},{"t":329.109,"dur":0.112,"note":62,"inst":"celesta_v0_additive_3","vel":1.0,"bend":0.0,"ch":14,"track":2},{"t":329.109,"dur":0.449,"note":89,"inst":"celesta_v0_additive_3","vel":1.0,"bend":0.0,"ch":9,"track":2},{"t":329.221,"dur":0.112,"note":69,"inst":"piano_v0_additive_0","vel":1.0,"bend":0.0,"ch":5,"track":2},{"t":329.333,"dur":0.112,"note":74,"inst":"celesta_v0_additive_3","vel":1.0,"bend":0.0,"ch":10,"track":2},{"t":329.446,"dur":0.112,"note":69,"inst":"piano_v0_additive_0","vel":1.0,"bend":0.0,"ch":5,"track":2},{"t":329.558,"dur":0.112,"note":67,"inst":"organ_v0_additive_1","vel":1.0,"bend":0.0,"ch":3,"track":2},{"t":329.558,"dur":0.224,"note":88,"inst":"organ_v0_additive_1","vel":1.0,"bend":0.0,"ch":8,"track":2},{"t":329.67,"dur":0.112,"note":71,"inst":"celesta_v0_additive_3","vel":1.0,"bend":0.0,"ch":7,"track":2},{"t":329.782,"dur":0.112,"note":76,"inst":"organ_v0_additive_1","vel":1.0,"bend":0.0,"ch":12,"track":2},{"t":329.782,"dur":0.112,"note":89,"inst":"celesta_v0_additive_3","vel":1.0,"bend":0.0,"ch":9,"track":2},{"t":329.895,"dur":0.112,"note":71,"inst":"celesta_v0_additive_3","vel":1.0,"bend":0.0,"ch":7,"track":2},{"t":329.895,"dur":0.112,"note":88,"inst":"organ_v0_additive_1","vel":1.0,"bend":0.0,"ch":8,"track":2},{"t":330.007,"dur":0.112,"note":69,"inst":"piano_v0_additive_0","vel":1.0,"bend":0.0,"ch":5,"track":2},{"t":330.007,"dur":0.224,"note":74,"inst":"celesta_v0_additive_3","vel":1.0,"bend":0.0,"ch":10,"track":2},{"t":330.007,"dur":0.224,"note":86,"inst":"celesta_v0_additive_3","vel":1.0,"bend":0.0,"ch":6,"track":2},{"t":330.119,"dur":0.112,"note":76,"inst":"organ_v0_additive_1","vel":1.0,"bend":0.0,"ch":12,"track":2},{"t":330.313,"dur":0.184,"note":77,"inst":"celesta_v0_additive_3","vel":1.0,"bend":0.0,"ch":13,"track":3},{"t":330.497,"dur":0.369,"note":55,"inst":"harpsichord_v0_additive_2","vel":1.0,"bend":0.0,"ch":7,"track":3},{"t":330.497,"dur":0.184,"note":75,"inst":"organ_v0_additive_1","vel":1.0,"bend":0.0,"ch":11,"track":3},{"t":330.681,"dur":0.184,"note":72,"inst":"organ_v0_additive_1","vel":1.0,"bend":0.0,"ch":8,"track":3},{"t":330.866,"dur":0.369,"note":53,"inst":"celesta_v0_additive_3","vel":1.0,"bend":0.0,"ch":5,"track":3},{"t":330.866,"dur":0.184,"note":60,"inst":"organ_v0_additive_1","vel":1.0,"bend":0.0,"ch":12,"track":3},{"t":331.05,"dur":0.184,"note":84,"inst":"organ_v0_additive_1","vel":1.0,"bend":0.0,"ch":4,"track":3},{"t":331.234,"dur":0.369,"note":36,"inst":"organ_v0_additive_1","vel":1.0,"bend":0.0,"ch":4,"track":3},{"t":331.234,"dur":0.184,"note":72,"inst":"organ_v0_additive_1","vel":1.0,"bend":0.0,"ch":8,"track":3},{"t":331.419,"dur":0.061,"note":72,"inst":"organ_v0_additive_1","vel":1.0,"bend":0.0,"ch":8,"track":3},{"t":331.48,"dur":0.061,"note":75,"inst":"organ_v0_additive_1","vel":1.0,"bend":0.0,"ch":11,"track":3},{"t":331.542,"dur":0.061,"note":72,"inst":"organ_v0_additive_1","vel":1.0,"bend":0.0,"ch":8,"track":3},{"t":331.603,"dur":0.369,"note":53,"inst":"celesta_v0_additive_3","vel":1.0,"bend":0.0,"ch":5,"track":3},{"t":331.603,"dur":0.184,"note":60,"inst":"organ_v0_additive_1","vel":1.0,"bend":0.0,"ch":12,"track":3},{"t":331.787,"dur":0.184,"note":72,"inst":"organ_v0_additive_1","vel":1.0,"bend":0.0,"ch":8,"track":3},{"t":331.972,"dur":0.369,"note":36,"inst":"organ_v0_additive_1","vel":1.0,"bend":0.0,"ch":4,"track":3},{"t":331.972,"dur":0.184,"note":82,"inst":"harpsichord_v0_additive_2","vel":1.0,"bend":0.0,"ch":2,"track":3},{"t":332.156,"dur":0.061,"note":70,"inst":"harpsichord_v0_additive_2","vel":1.0,"bend":0.0,"ch":6,"track":3},{"t":332.218,"dur":0.061,"note":60,"inst":"organ_v0_additive_1","vel":1.0,"bend":0.0,"ch":12,"track":3},{"t":332.279,"dur":0.061,"note":70,"inst":"harpsichord_v0_additive_2","vel":1.0,"bend":0.0,"ch":6,"track":3},{"t":332.341,"dur":0.369,"note":51,"inst":"organ_v0_additive_1","vel":1.0,"bend":0.0,"ch":3,"track":3},{"t":332.341,"dur":0.184,"note":67,"inst":"harpsichord_v0_additive_2","vel":1.0,"bend":0.0,"ch":3,"track":3},{"t":332.525,"dur":0.184,"note":82,"inst":"harpsichord_v0_additive_2","vel":1.0,"bend":0.0,"ch":2,"track":3},{"t":332.709,"dur":0.369,"note":51,"inst":"organ_v0_additive_1","vel":1.0,"bend":0.0,"ch":3,"track":3},{"t":332.709,"dur":0.184,"note":79,"inst":"harpsichord_v0_additive_2","vel":1.0,"bend":0.0,"ch":15,"track":3},{"t":332.894,"dur":0.061,"note":79,"inst":"harpsichord_v0_additive_2","vel":1.0,"bend":0.0,"ch":15,"track":3},{"t":332.955,"dur":0.061,"note":82,"inst":"harpsichord_v0_additive_2","vel":1.0,"bend":0.0,"ch":2,"track":3},{"t":333.017,"dur":0.061,"note":79,"inst":"harpsichord_v0_additive_2","vel":1.0,"bend":0.0,"ch":15,"track":3},{"t":333.078,"dur":0.369,"note":51,"inst":"organ_v0_additive_1","vel":1.0,"bend":0.0,"ch":3,"track":3},{"t":333.078,"dur":0.184,"note":79,"inst":"harpsichord_v0_additive_2","vel":1.0,"bend":0.0,"ch":15,"track":3},{"t":333.262,"dur":0.184,"note":79,"inst":"harpsichord_v0_additive_2","vel":1.0,"bend":0.0,"ch":15,"track":3},{"t":333.447,"dur":0.369,"note":36,"inst":"organ_v0_additive_1","vel":1.0,"bend":0.0,"ch":4,"track":3},{"t":333.447,"dur":0.184,"note":72,"inst":"organ_v0_additive_1","vel":1.0,"bend":0.0,"ch":8,"track":3},{"t":333.631,"dur":0.184,"note":82,"inst":"harpsichord_v0_additive_2","vel":1.0,"bend":0.0,"ch":2,"track":3},{"t":333.815,"dur":0.369,"note":53,"inst":"celesta_v0_additive_3","vel":1.0,"bend":0.0,"ch":5,"track":3},{"t":333.815,"dur":0.184,"note":79,"inst":"harpsichord_v0_additive_2","vel":1.0,"bend":0.0,"ch":15,"track":3},{"t":334.0,"dur":0.184,"note":77,"inst":"celesta_v0_additive_3","vel":1.0,"bend":0.0,"ch":13,"track":3},{"t":334.184,"dur":0.369,"note":36,"inst":"organ_v0_additive_1","vel":1.0,"bend":0.0,"ch":4,"track":3},{"t":334.184,"dur":0.184,"note":77,"inst":"celesta_v0_additive_3","vel":1.0,"bend":0.0,"ch":13,"track":3},{"t":334.369,"dur":0.061,"note":77,"inst":"celesta_v0_additive_3","vel":1.0,"bend":0.0,"ch":13,"track":3},{"t":334.43,"dur":0.061,"note":79,"inst":"harpsichord_v0_additive_2","vel":1.0,"bend":0.0,"ch":15,"track":3},{"t":334.491,"dur":0.061,"note":77,"inst":"celesta_v0_additive_3","vel":1.0,"bend":0.0,"ch":13,"track":3},{"t":334.553,"dur":0.369,"note":48,"inst":"organ_v0_additive_1","vel":1.0,"bend":0.0,"ch":0,"track":3},{"t":334.553,"dur":0.184,"note":77,"inst":"celesta_v0_additive_3","vel":1.0,"bend":0.0,"ch":13,"track":3},{"t":334.737,"dur":0.184,"note":77,"inst":"celesta_v0_additive_3","vel":1.0,"bend":0.0,"ch":13,"track":3},{"t":334.922,"dur":0.369,"note":43,"inst":"harpsichord_v0_additive_2","vel":1.0,"bend":0.0,"ch":11,"track":3},{"t":334.922,"dur":0.184,"note":82,"inst":"harpsichord_v0_additive_2","vel":1.0,"bend":0.0,"ch":2,"track":3},{"t":335.106,"dur":0.184,"note":79,"inst":"harpsichord_v0_additive_2","vel":1.0,"bend":0.0,"ch":15,"track":3},{"t":335.29,"dur":0.369,"note":48,"inst":"organ_v0_additive_1","vel":1.0,"bend":0.0,"ch":0,"track":3},{"t":335.29,"dur":0.184,"note":77,"inst":"celesta_v0_additive_3","vel":1.0,"bend":0.0,"ch":13,"track":3},{"t":335.475,"dur":0.184,"note":75,"inst":"organ_v0_additive_1","vel":1.0,"bend":0.0,"ch":11,"track":3},{"t":335.659,"dur":0.369,"note":36,"inst":"organ_v0_additive_1","vel":1.0,"bend":0.0,"ch":4,"track":3},{"t":335.659,"dur":0.184,"note":75,"inst":"organ_v0_additive_1","vel":1.0,"bend":0.0,"ch":11,"track":3},{"t":335.843,"dur":0.061,"note":75,"inst":"organ_v0_additive_1","vel":1.0,"bend":0.0,"ch":11,"track":3},{"t":335.905,"dur":0.061,"note":77,"inst":"celesta_v0_additive_3","vel":1.0,"bend":0.0,"ch":13,"track":3},{"t":335.966,"dur":0.061,"note":75,"inst":"organ_v0_additive_1","vel":1.0,"bend":0.0,"ch":11,"track":3},{"t":336.028,"dur":0.369,"note":46,"inst":"harpsichord_v0_additive_2","vel":1.0,"bend":0.0,"ch":14,"track":3},{"t":336.028,"dur":0.184,"note":75,"inst":"organ_v0_additive_1","vel":1.0,"bend":0.0,"ch":11,"track":3},{"t":336.212,"dur":0.184,"note":77,"inst":"celesta_v0_additive_3","vel":1.0,"bend":0.0,"ch":13,"track":3},{"t":336.396,"dur":0.369,"note":46,"inst":"harpsichord_v0_additive_2","vel":1.0,"bend":0.0,"ch":14,"track":3},{"t":336.396,"dur":0.184,"note":75,"inst":"organ_v0_additive_1","vel":1.0,"bend":0.0,"ch":11,"track":3},{"t":336.581,"dur":0.184,"note":72,"inst":"organ_v0_additive_1","vel":1.0,"bend":0.0,"ch":8,"track":3},{"t":336.765,"dur":0.369,"note":36,"inst":"organ_v0_additive_1","vel":1.0,"bend":0.0,"ch":4,"track":3},{"t":336.765,"dur":0.184,"note":60,"inst":"organ_v0_additive_1","vel":1.0,"bend":0.0,"ch":12,"track":3},{"t":336.95,"dur":0.184,"note":84,"inst":"organ_v0_additive_1","vel":1.0,"bend":0.0,"ch":4,"track":3},{"t":337.134,"dur":0.369,"note":36,"inst":"organ_v0_additive_1","vel":1.0,"bend":0.0,"ch":4,"track":3},{"t":337.134,"dur":0.184,"note":72,"inst":"organ_v0_additive_1","vel":1.0,"bend":0.0,"ch":8,"track":3},{"t":337.318,"dur":0.061,"note":72,"inst":"organ_v0_additive_1","vel":1.0,"bend":0.0,"ch":8,"track":3},{"t":337.38,"dur":0.061,"note":75,"inst":"organ_v0_additive_1","vel":1.0,"bend":0.0,"ch":11,"track":3},{"t":337.441,"dur":0.061,"note":72,"inst":"organ_v0_additive_1","vel":1.0,"bend":0.0,"ch":8,"track":3},{"t":337.503,"dur":0.369,"note":36,"inst":"organ_v0_additive_1","vel":1.0,"bend":0.0,"ch":4,"track":3},{"t":337.503,"dur":0.184,"note":60,"inst":"organ_v0_additive_1","vel":1.0,"bend":0.0,"ch":12,"track":3},{"t":337.687,"dur":0.184,"note":79,"inst":"harpsichord_v0_additive_2","vel":1.0,"bend":0.0,"ch":15,"track":3},{"t":337.871,"dur":0.369,"note":36,"inst":"organ_v0_additive_1","vel":1.0,"bend":0.0,"ch":4,"track":3},{"t":337.871,"dur":0.184,"note":77,"inst":"celesta_v0_additive_3","vel":1.0,"bend":0.0,"ch":13,"track":3},{"t":338.056,"dur":0.184,"note":60,"inst":"organ_v0_additive_1","vel":1.0,"bend":0.0,"ch":12,"track":3},{"t":338.24,"dur":0.369,"note":51,"inst":"organ_v0_additive_1","vel":1.0,"bend":0.0,"ch":3,"track":3},{"t":338.24,"dur":0.369,"note":75,"inst":"organ_v0_additive_1","vel":1.0,"bend":0.0,"ch":11,"track":3},{"t":338.609,"dur":0.184,"note":87,"inst":"organ_v0_additive_1","vel":1.0,"bend":0.0,"ch":7,"track":3},{"t":338.793,"dur":0.061,"note":87,"inst":"organ_v0_additive_1","vel":1.0,"bend":0.0,"ch":7,"track":3},{"t":338.855,"dur":0.061,"note":89,"inst":"celesta_v0_additive_3","vel":1.0,"bend":0.0,"ch":9,"track":3},{"t":338.916,"dur":0.061,"note":87,"inst":"organ_v0_additive_1","vel":1.0,"bend":0.0,"ch":7,"track":3},{"t":338.977,"dur":0.369,"note":36,"inst":"organ_v0_additive_1","vel":1.0,"bend":0.0,"ch":4,"track":3},{"t":338.977,"dur":0.184,"note":87,"inst":"organ_v0_additive_1","vel":1.0,"bend":0.0,"ch":7,"track":3},{"t":339.162,"dur":0.184,"note":91,"inst":"harpsichord_v0_additive_2","vel":1.0,"bend":0.0,"ch":11,"track":3},{"t":339.346,"dur":0.369,"note":41,"inst":"celesta_v0_additive_3","vel":1.0,"bend":0.0,"ch":9,"track":3},{"t":339.346,"dur":0.184,"note":89,"inst":"celesta_v0_additive_3","vel":1.0,"bend":0.0,"ch":9,"track":3},{"t":339.531,"dur":0.061,"note":84,"inst":"organ_v0_additive_1","vel":1.0,"bend":0.0,"ch":4,"track":3},{"t":339.592,"dur":0.061,"note":87,"inst":"organ_v0_additive_1","vel":1.0,"bend":0.0,"ch":7,"track":3},{"t":339.653,"dur":0.061,"note":84,"inst":"organ_v0_additive_1","vel":1.0,"bend":0.0,"ch":4,"track":3},{"t":339.715,"dur":0.369,"note":36,"inst":"organ_v0_additive_1","vel":1.0,"bend":0.0,"ch":4,"track":3},{"t":339.715,"dur":0.184,"note":72,"inst":"organ_v0_additive_1","vel":1.0,"bend":0.0,"ch":8,"track":3},{"t":339.899,"dur":0.184,"note":87,"inst":"organ_v0_additive_1","vel":1.0,"bend":0.0,"ch":7,"track":3},{"t":340.084,"dur":0.369,"note":41,"inst":"celesta_v0_additive_3","vel":1.0,"bend":0.0,"ch":9,"track":3},{"t":340.084,"dur":0.184,"note":87,"inst":"organ_v0_additive_1","vel":1.0,"bend":0.0,"ch":7,"track":3},{"t":340.268,"dur":0.184,"note":72,"inst":"organ_v0_additive_1","vel":1.0,"bend":0.0,"ch":8,"track":3},{"t":340.452,"dur":0.369,"note":36,"inst":"organ_v0_additive_1","vel":1.0,"bend":0.0,"ch":4,"track":3},{"t":340.452,"dur":0.092,"note":77,"inst":"celesta_v0_additive_3","vel":1.0,"bend":0.0,"ch":13,"track":3},{"t":340.545,"dur":0.092,"note":75,"inst":"organ_v0_additive_1","vel":1.0,"bend":0.0,"ch":11,"track":3},{"t":340.637,"dur":0.092,"note":77,"inst":"celesta_v0_additive_3","vel":1.0,"bend":0.0,"ch":13,"track":3},{"t":340.729,"dur":0.092,"note":79,"inst":"harpsichord_v0_additive_2","vel":1.0,"bend":0.0,"ch":15,"track":3},{"t":340.821,"dur":0.369,"note":41,"inst":"celesta_v0_additive_3","vel":1.0,"bend":0.0,"ch":9,"track":3},{"t":340.821,"dur":0.092,"note":82,"inst":"harpsichord_v0_additive_2","vel":1.0,"bend":0.0,"ch":2,"track":3},{"t":340.913,"dur":0.092,"note":72,"inst":"organ_v0_additive_1","vel":1.0,"bend":0.0,"ch":8,"track":3},{"t":341.005,"dur":0.092,"note":84,"inst":"organ_v0_additive_1","vel":1.0,"bend":0.0,"ch":4,"track":3},{"t":341.098,"dur":0.092,"note":87,"inst":"organ_v0_additive_1","vel":1.0,"bend":0.0,"ch":7,"track":3},{"t":341.19,"dur":0.369,"note":48,"inst":"organ_v0_additive_1","vel":1.0,"bend":0.0,"ch":0,"track":3},{"t":341.19,"dur":0.369,"note":87,"inst":"organ_v0_additive_1","vel":1.0,"bend":0.0,"ch":7,"track":3},{"t":341.559,"dur":0.369,"note":41,"inst":"celesta_v0_additive_3","vel":1.0,"bend":0.0,"ch":9,"track":3},{"t":341.743,"dur":0.061,"note":87,"inst":"organ_v0_additive_1","vel":1.0,"bend":0.0,"ch":7,"track":3},{"t":341.804,"dur":0.061,"note":89,"inst":"celesta_v0_additive_3","vel":1.0,"bend":0.0,"ch":9,"track":3},{"t":341.866,"dur":0.061,"note":87,"inst":"organ_v0_additive_1","vel":1.0,"bend":0.0,"ch":7,"track":3},{"t":341.927,"dur":0.369,"note":48,"inst":"organ_v0_additive_1","vel":1.0,"bend":0.0,"ch":0,"track":3},{"t":341.927,"dur":0.184,"note":84,"inst":"organ_v0_additive_1","vel":1.0,"bend":0.0,"ch":4,"track":3},{"t":342.112,"dur":0.184,"note":91,"inst":"harpsichord_v0_additive_2","vel":1.0,"bend":0.0,"ch":11,"track":3},{"t":342.296,"dur":0.369,"note":41,"inst":"celesta_v0_additive_3","vel":1.0,"bend":0.0,"ch":9,"track":3},{"t":342.296,"dur":0.184,"note":89,"inst":"celesta_v0_additive_3","vel":1.0,"bend":0.0,"ch":9,"track":3},{"t":342.48,"dur":0.061,"note":84,"inst":"organ_v0_additive_1","vel":1.0,"bend":0.0,"ch":4,"track":3},{"t":342.542,"dur":0.061,"note":87,"inst":"organ_v0_additive_1","vel":1.0,"bend":0.0,"ch":7,"track":3},{"t":342.603,"dur":0.061,"note":84,"inst":"organ_v0_additive_1","vel":1.0,"bend":0.0,"ch":4,"track":3},{"t":342.665,"dur":0.369,"note":48,"inst":"organ_v0_additive_1","vel":1.0,"bend":0.0,"ch":0,"track":3},{"t":342.665,"dur":0.184,"note":82,"inst":"harpsichord_v0_additive_2","vel":1.0,"bend":0.0,"ch":2,"track":3},{"t":342.849,"dur":0.184,"note":87,"inst":"organ_v0_additive_1","vel":1.0,"bend":0.0,"ch":7,"track":3},{"t":343.033,"dur":0.369,"note":41,"inst":"celesta_v0_additive_3","vel":1.0,"bend":0.0,"ch":9,"track":3},{"t":343.033,"dur":0.184,"note":84,"inst":"organ_v0_additive_1","vel":1.0,"bend":0.0,"ch":4,"track":3},{"t":343.218,"dur":0.184,"note":82,"inst":"harpsichord_v0_additive_2","vel":1.0,"bend":0.0,"ch":2,"track":3},{"t":343.402,"dur":0.369,"note":46,"inst":"harpsichord_v0_additive_2","vel":1.0,"bend":0.0,"ch":14,"track":3},{"t":343.402,"dur":0.092,"note":77,"inst":"celesta_v0_additive_3","vel":1.0,"bend":0.0,"ch":13,"track":3},{"t":343.494,"dur":0.092,"note":77,"inst":"celesta_v0_additive_3","vel":1.0,"bend":0.0,"ch":13,"track":3},{"t":343.586,"dur":0.092,"note":77,"inst":"celesta_v0_additive_3","vel":1.0,"bend":0.0,"ch":13,"track":3},{"t":343.679,"dur":0.092,"note":79,"inst":"harpsichord_v0_additive_2","vel":1.0,"bend":0.0,"ch":15,"track":3},{"t":343.771,"dur":0.369,"note":41,"inst":"celesta_v0_additive_3","vel":1.0,"bend":0.0,"ch":9,"track":3},{"t":343.771,"dur":0.092,"note":82,"inst":"harpsichord_v0_additive_2","vel":1.0,"bend":0.0,"ch":2,"track":3},{"t":343.863,"dur":0.092,"note":72,"inst":"organ_v0_additive_1","vel":1.0,"bend":0.0,"ch":8,"track":3},{"t":343.955,"dur":0.092,"note":84,"inst":"organ_v0_additive_1","vel":1.0,"bend":0.0,"ch":4,"track":3},{"t":344.047,"dur":0.092,"note":87,"inst":"organ_v0_additive_1","vel":1.0,"bend":0.0,"ch":7,"track":3},{"t":344.14,"dur":0.369,"note":36,"inst":"organ_v0_additive_1","vel":1.0,"bend":0.0,"ch":4,"track":3},{"t":344.14,"dur":0.369,"note":87,"inst":"organ_v0_additive_1","vel":1.0,"bend":0.0,"ch":7,"track":3},{"t":344.508,"dur":0.369,"note":41,"inst":"celesta_v0_additive_3","vel":1.0,"bend":0.0,"ch":9,"track":3},{"t":344.877,"dur":0.369,"note":36,"inst":"organ_v0_additive_1","vel":1.0,"bend":0.0,"ch":4,"track":3},{"t":344.877,"dur":0.184,"note":87,"inst":"organ_v0_additive_1","vel":1.0,"bend":0.0,"ch":7,"track":3},{"t":345.061,"dur":0.184,"note":91,"inst":"harpsichord_v0_additive_2","vel":1.0,"bend":0.0,"ch":11,"track":3},{"t":345.246,"dur":0.369,"note":41,"inst":"celesta_v0_additive_3","vel":1.0,"bend":0.0,"ch":9,"track":3},{"t":345.246,"dur":0.184,"note":89,"inst":"celesta_v0_additive_3","vel":1.0,"bend":0.0,"ch":9,"track":3},{"t":345.43,"dur":0.061,"note":84,"inst":"organ_v0_additive_1","vel":1.0,"bend":0.0,"ch":4,"track":3},{"t":345.492,"dur":0.061,"note":87,"inst":"organ_v0_additive_1","vel":1.0,"bend":0.0,"ch":7,"track":3},{"t":345.553,"dur":0.061,"note":84,"inst":"organ_v0_additive_1","vel":1.0,"bend":0.0,"ch":4,"track":3},{"t":345.614,"dur":0.369,"note":36,"inst":"organ_v0_additive_1","vel":1.0,"bend":0.0,"ch":4,"track":3},{"t":345.614,"dur":0.184,"note":72,"inst":"organ_v0_additive_1","vel":1.0,"bend":0.0,"ch":8,"track":3},{"t":345.799,"dur":0.184,"note":87,"inst":"organ_v0_additive_1","vel":1.0,"bend":0.0,"ch":7,"track":3},{"t":345.983,"dur":0.369,"note":41,"inst":"celesta_v0_additive_3","vel":1.0,"bend":0.0,"ch":9,"track":3},{"t":345.983,"dur":0.184,"note":87,"inst":"organ_v0_additive_1","vel":1.0,"bend":0.0,"ch":7,"track":3},{"t":346.167,"dur":0.184,"note":72,"inst":"organ_v0_additive_1","vel":1.0,"bend":0.0,"ch":8,"track":3},{"t":346.352,"dur":0.369,"note":36,"inst":"organ_v0_additive_1","vel":1.0,"bend":0.0,"ch":4,"track":3},{"t":346.352,"dur":0.092,"note":77,"inst":"celesta_v0_additive_3","vel":1.0,"bend":0.0,"ch":13,"track":3},{"t":346.444,"dur":0.092,"note":79,"inst":"harpsichord_v0_additive_2","vel":1.0,"bend":0.0,"ch":15,"track":3},{"t":346.536,"dur":0.092,"note":82,"inst":"harpsichord_v0_additive_2","vel":1.0,"bend":0.0,"ch":2,"track":3},{"t":346.628,"dur":0.092,"note":72,"inst":"organ_v0_additive_1","vel":1.0,"bend":0.0,"ch":8,"track":3},{"t":346.721,"dur":0.369,"note":41,"inst":"celesta_v0_additive_3","vel":1.0,"bend":0.0,"ch":9,"track":3},{"t":346.721,"dur":0.092,"note":84,"inst":"organ_v0_additive_1","vel":1.0,"bend":0.0,"ch":4,"track":3},{"t":346.813,"dur":0.092,"note":87,"inst":"organ_v0_additive_1","vel":1.0,"bend":0.0,"ch":7,"track":3},{"t":346.905,"dur":0.092,"note":87,"inst":"organ_v0_additive_1","vel":1.0,"bend":0.0,"ch":7,"track":3},{"t":346.997,"dur":0.092,"note":89,"inst":"celesta_v0_additive_3","vel":1.0,"bend":0.0,"ch":9,"track":3},{"t":347.089,"dur":0.369,"note":51,"inst":"organ_v0_additive_1","vel":1.0,"bend":0.0,"ch":3,"track":3},{"t":347.089,"dur":0.369,"note":91,"inst":"harpsichord_v0_additive_2","vel":1.0,"bend":0.0,"ch":11,"track":3},{"t":347.458,"dur":0.369,"note":51,"inst":"organ_v0_additive_1","vel":1.0,"bend":0.0,"ch":3,"track":3},{"t":347.827,"dur":0.369,"note":51,"inst":"organ_v0_additive_1","vel":1.0,"bend":0.0,"ch":3,"track":3},{"t":347.827,"dur":0.184,"note":79,"inst":"harpsichord_v0_additive_2","vel":1.0,"bend":0.0,"ch":15,"track":3},{"t":348.011,"dur":0.184,"note":87,"inst":"organ_v0_additive_1","vel":1.0,"bend":0.0,"ch":7,"track":3},{"t":348.195,"dur":0.369,"note":51,"inst":"organ_v0_additive_1","vel":1.0,"bend":0.0,"ch":3,"track":3},{"t":348.195,"dur":0.184,"note":84,"inst":"organ_v0_additive_1","vel":1.0,"bend":0.0,"ch":4,"track":3},{"t":348.38,"dur":0.184,"note":79,"inst":"harpsichord_v0_additive_2","vel":1.0,"bend":0.0,"ch":15,"track":3},{"t":348.564,"dur":0.369,"note":53,"inst":"celesta_v0_additive_3","vel":1.0,"bend":0.0,"ch":5,"track":3},{"t":348.564,"dur":0.184,"note":77,"inst":"celesta_v0_additive_3","vel":1.0,"bend":0.0,"ch":13,"track":3},{"t":348.749,"dur":0.184,"note":84,"inst":"organ_v0_additive_1","vel":1.0,"bend":0.0,"ch":4,"track":3},{"t":348.933,"dur":0.369,"note":53,"inst":"celesta_v0_additive_3","vel":1.0,"bend":0.0,"ch":5,"track":3},{"t":348.933,"dur":0.184,"note":72,"inst":"organ_v0_additive_1","vel":1.0,"bend":0.0,"ch":8,"track":3},{"t":349.117,"dur":0.184,"note":60,"inst":"organ_v0_additive_1","vel":1.0,"bend":0.0,"ch":12,"track":3},{"t":349.302,"dur":0.369,"note":53,"inst":"celesta_v0_additive_3","vel":1.0,"bend":0.0,"ch":5,"track":3},{"t":349.302,"dur":0.184,"note":70,"inst":"harpsichord_v0_additive_2","vel":1.0,"bend":0.0,"ch":6,"track":3},{"t":349.486,"dur":0.184,"note":79,"inst":"harpsichord_v0_additive_2","vel":1.0,"bend":0.0,"ch":15,"track":3},{"t":349.67,"dur":0.369,"note":53,"inst":"celesta_v0_additive_3","vel":1.0,"bend":0.0,"ch":5,"track":3},{"t":349.67,"dur":0.184,"note":77,"inst":"celesta_v0_additive_3","vel":1.0,"bend":0.0,"ch":13,"track":3},{"t":349.855,"dur":0.184,"note":70,"inst":"harpsichord_v0_additive_2","vel":1.0,"bend":0.0,"ch":6,"track":3},{"t":350.039,"dur":0.369,"note":36,"inst":"organ_v0_additive_1","vel":1.0,"bend":0.0,"ch":4,"track":3},{"t":350.039,"dur":0.369,"note":60,"inst":"organ_v0_additive_1","vel":1.0,"bend":0.0,"ch":12,"track":3},{"t":350.408,"dur":0.184,"note":72,"inst":"organ_v0_additive_1","vel":1.0,"bend":0.0,"ch":8,"track":3},{"t":372.239,"dur":0.13,"note":61,"inst":"harpsichord_v0_additive_2","vel":0.677,"bend":0.0,"ch":13,"track":3},{"t":372.37,"dur":0.13,"note":49,"inst":"harpsichord_v0_additive_2","vel":0.512,"bend":0.0,"ch":1,"track":3},{"t":372.5,"dur":0.13,"note":61,"inst":"harpsichord_v0_additive_2","vel":0.669,"bend":0.0,"ch":13,"track":3},{"t":372.631,"dur":0.13,"note":49,"inst":"harpsichord_v0_additive_2","vel":0.535,"bend":0.0,"ch":1,"track":3},{"t":372.761,"dur":0.13,"note":61,"inst":"harpsichord_v0_additive_2","vel":0.638,"bend":0.0,"ch":13,"track":3},{"t":372.892,"dur":0.13,"note":49,"inst":"harpsichord_v0_additive_2","vel":0.512,"bend":0.0,"ch":1,"track":3},{"t":372.892,"dur":2.088,"note":73,"inst":"harpsichord_v0_additive_2","vel":0.52,"bend":0.0,"ch":9,"track":3},{"t":373.022,"dur":0.13,"note":61,"inst":"harpsichord_v0_additive_2","vel":0.654,"bend":0.0,"ch":13,"track":3},{"t":373.152,"dur":0.13,"note":49,"inst":"harpsichord_v0_additive_2","vel":0.535,"bend":0.0,"ch":1,"track":3},{"t":373.283,"dur":0.13,"note":61,"inst":"harpsichord_v0_additive_2","vel":0.693,"bend":0.0,"ch":13,"track":3},{"t":373.413,"dur":0.13,"note":49,"inst":"harpsichord_v0_additive_2","vel":0.496,"bend":0.0,"ch":1,"track":3},{"t":373.544,"dur":0.13,"note":61,"inst":"harpsichord_v0_additive_2","vel":0.669,"bend":0.0,"ch":13,"track":3},{"t":373.674,"dur":0.13,"note":49,"inst":"harpsichord_v0_additive_2","vel":0.535,"bend":0.0,"ch":1,"track":3},{"t":373.805,"dur":0.13,"note":61,"inst":"harpsichord_v0_additive_2","vel":0.685,"bend":0.0,"ch":13,"track":3},{"t":373.935,"dur":0.13,"note":49,"inst":"harpsichord_v0_additive_2","vel":0.528,"bend":0.0,"ch":1,"track":3},{"t":374.066,"dur":0.13,"note":61,"inst":"harpsichord_v0_additive_2","vel":0.669,"bend":0.0,"ch":13,"track":3},{"t":374.196,"dur":0.13,"note":49,"inst":"harpsichord_v0_additive_2","vel":0.543,"bend":0.0,"ch":1,"track":3},{"t":374.327,"dur":0.13,"note":61,"inst":"harpsichord_v0_additive_2","vel":0.646,"bend":0.0,"ch":13,"track":3},{"t":374.457,"dur":0.13,"note":49,"inst":"harpsichord_v0_additive_2","vel":0.543,"bend":0.0,"ch":1,"track":3},{"t":374.588,"dur":0.13,"note":61,"inst":"harpsichord_v0_additive_2","vel":0.693,"bend":0.0,"ch":13,"track":3},{"t":374.718,"dur":0.13,"note":49,"inst":"harpsichord_v0_additive_2","vel":0.535,"bend":0.0,"ch":1,"track":3},{"t":374.849,"dur":0.13,"note":61,"inst":"harpsichord_v0_additive_2","vel":0.646,"bend":0.0,"ch":13,"track":3},{"t":374.979,"dur":0.13,"note":49,"inst":"harpsichord_v0_additive_2","vel":0.535,"bend":0.0,"ch":1,"track":3},{"t":374.979,"dur":2.088,"note":69,"inst":"organ_v0_additive_1","vel":0.701,"bend":0.0,"ch":5,"track":3},{"t":375.11,"dur":0.13,"note":61,"inst":"harpsichord_v0_additive_2","vel":0.646,"bend":0.0,"ch":13,"track":3},{"t":375.24,"dur":0.13,"note":49,"inst":"harpsichord_v0_additive_2","vel":0.559,"bend":0.0,"ch":1,"track":3},{"t":375.371,"dur":0.13,"note":61,"inst":"harpsichord_v0_additive_2","vel":0.677,"bend":0.0,"ch":13,"track":3},{"t":375.501,"dur":0.13,"note":49,"inst":"harpsichord_v0_additive_2","vel":0.535,"bend":0.0,"ch":1,"track":3},{"t":375.632,"dur":0.13,"note":61,"inst":"harpsichord_v0_additive_2","vel":0.701,"bend":0.0,"ch":13,"track":3},{"t":375.762,"dur":0.13,"note":49,"inst":"harpsichord_v0_additive_2","vel":0.543,"bend":0.0,"ch":1,"track":3},{"t":375.892,"dur":0.13,"note":61,"inst":"harpsichord_v0_additive_2","vel":0.709,"bend":0.0,"ch":13,"track":3},{"t":376.023,"dur":0.13,"note":49,"inst":"harpsichord_v0_additive_2","vel":0.496,"bend":0.0,"ch":1,"track":3},{"t":376.153,"dur":0.13,"note":61,"inst":"harpsichord_v0_additive_2","vel":0.693,"bend":0.0,"ch":13,"track":3},{"t":376.284,"dur":0.13,"note":49,"inst":"harpsichord_v0_additive_2","vel":0.504,"bend":0.0,"ch":1,"track":3},{"t":376.414,"dur":0.13,"note":61,"inst":"harpsichord_v0_additive_2","vel":0.669,"bend":0.0,"ch":13,"track":3},{"t":376.545,"dur":0.13,"note":49,"inst":"harpsichord_v0_additive_2","vel":0.559,"bend":0.0,"ch":1,"track":3},{"t":376.675,"dur":0.13,"note":61,"inst":"harpsichord_v0_additive_2","vel":0.669,"bend":0.0,"ch":13,"track":3},{"t":376.806,"dur":0.13,"note":49,"inst":"harpsichord_v0_additive_2","vel":0.488,"bend":0.0,"ch":1,"track":3},{"t":376.936,"dur":0.13,"note":61,"inst":"harpsichord_v0_additive_2","vel":0.646,"bend":0.0,"ch":13,"track":3},{"t":377.067,"dur":0.13,"note":49,"inst":"harpsichord_v0_additive_2","vel":0.528,"bend":0.0,"ch":1,"track":3},{"t":377.067,"dur":1.566,"note":85,"inst":"harpsichord_v0_additive_2","vel":0.685,"bend":0.0,"ch":5,"track":3},{"t":377.197,"dur":0.13,"note":61,"inst":"harpsichord_v0_additive_2","vel":0.669,"bend":0.0,"ch":13,"track":3},{"t":377.328,"dur":0.13,"note":49,"inst":"harpsichord_v0_additive_2","vel":0.543,"bend":0.0,"ch":1,"track":3},{"t":377.458,"dur":0.13,"note":61,"inst":"harpsichord_v0_additive_2","vel":0.638,"bend":0.0,"ch":13,"track":3},{"t":377.589,"dur":0.13,"note":49,"inst":"harpsichord_v0_additive_2","vel":0.528,"bend":0.0,"ch":1,"track":3},{"t":377.719,"dur":0.13,"note":61,"inst":"harpsichord_v0_additive_2","vel":0.685,"bend":0.0,"ch":13,"track":3},{"t":377.85,"dur":0.13,"note":49,"inst":"harpsichord_v0_additive_2","vel":0.535,"bend":0.0,"ch":1,"track":3},{"t":377.98,"dur":0.13,"note":61,"inst":"harpsichord_v0_additive_2","vel":0.654,"bend":0.0,"ch":13,"track":3},{"t":378.111,"dur":0.13,"note":49,"inst":"harpsichord_v0_additive_2","vel":0.543,"bend":0.0,"ch":1,"track":3},{"t":378.241,"dur":0.13,"note":61,"inst":"harpsichord_v0_additive_2","vel":0.646,"bend":0.0,"ch":13,"track":3},{"t":378.372,"dur":0.13,"note":49,"inst":"harpsichord_v0_additive_2","vel":0.535,"bend":0.0,"ch":1,"track":3},{"t":378.502,"dur":0.13,"note":61,"inst":"harpsichord_v0_additive_2","vel":0.661,"bend":0.0,"ch":13,"track":3},{"t":378.632,"dur":0.13,"note":49,"inst":"harpsichord_v0_additive_2","vel":0.528,"bend":0.0,"ch":1,"track":3},{"t":378.763,"dur":0.13,"note":61,"inst":"harpsichord_v0_additive_2","vel":0.646,"bend":0.0,"ch":13,"track":3},{"t":378.893,"dur":0.13,"note":49,"inst":"harpsichord_v0_additive_2","vel":0.512,"bend":0.0,"ch":1,"track":3},{"t":378.893,"dur":0.261,"note":76,"inst":"harpsichord_v0_additive_2","vel":0.551,"bend":0.0,"ch":12,"track":3},{"t":378.893,"dur":0.261,"note":69,"inst":"organ_v0_additive_1","vel":0.551,"bend":0.0,"ch":5,"track":3},{"t":378.893,"dur":0.261,"note":85,"inst":"harpsichord_v0_additive_2","vel":0.551,"bend":0.0,"ch":5,"track":3},{"t":379.024,"dur":0.13,"note":61,"inst":"harpsichord_v0_additive_2","vel":0.669,"bend":0.0,"ch":13,"track":3},{"t":379.154,"dur":0.13,"note":49,"inst":"harpsichord_v0_additive_2","vel":0.559,"bend":0.0,"ch":1,"track":3},{"t":379.154,"dur":4.175,"note":76,"inst":"harpsichord_v0_additive_2","vel":0.575,"bend":0.0,"ch":12,"track":3},{"t":379.154,"dur":4.175,"note":69,"inst":"organ_v0_additive_1","vel":0.575,"bend":0.0,"ch":5,"track":3},{"t":379.154,"dur":4.175,"note":85,"inst":"harpsichord_v0_additive_2","vel":0.575,"bend":0.0,"ch":5,"track":3},{"t":379.285,"dur":0.13,"note":61,"inst":"harpsichord_v0_additive_2","vel":0.685,"bend":0.0,"ch":13,"track":3},{"t":379.415,"dur":0.13,"note":49,"inst":"harpsichord_v0_additive_2","vel":0.535,"bend":0.0,"ch":1,"track":3},{"t":379.546,"dur":0.13,"note":61,"inst":"harpsichord_v0_additive_2","vel":0.677,"bend":0.0,"ch":13,"track":3},{"t":379.676,"dur":0.13,"note":49,"inst":"harpsichord_v0_additive_2","vel":0.52,"bend":0.0,"ch":1,"track":3},{"t":379.807,"dur":0.13,"note":61,"inst":"harpsichord_v0_additive_2","vel":0.661,"bend":0.0,"ch":13,"track":3},{"t":379.937,"dur":0.13,"note":49,"inst":"harpsichord_v0_additive_2","vel":0.512,"bend":0.0,"ch":1,"track":3},{"t":380.068,"dur":0.13,"note":61,"inst":"harpsichord_v0_additive_2","vel":0.677,"bend":0.0,"ch":13,"track":3},{"t":380.198,"dur":0.13,"note":49,"inst":"harpsichord_v0_additive_2","vel":0.551,"bend":0.0,"ch":1,"track":3},{"t":380.329,"dur":0.13,"note":61,"inst":"harpsichord_v0_additive_2","vel":0.677,"bend":0.0,"ch":13,"track":3},{"t":380.459,"dur":0.13,"note":49,"inst":"harpsichord_v0_additive_2","vel":0.504,"bend":0.0,"ch":1,"track":3},{"t":380.59,"dur":0.13,"note":61,"inst":"harpsichord_v0_additive_2","vel":0.685,"bend":0.0,"ch":13,"track":3},{"t":380.72,"dur":0.13,"note":49,"inst":"harpsichord_v0_additive_2","vel":0.488,"bend":0.0,"ch":1,"track":3},{"t":380.851,"dur":0.13,"note":61,"inst":"harpsichord_v0_additive_2","vel":0.693,"bend":0.0,"ch":13,"track":3},{"t":380.981,"dur":0.13,"note":49,"inst":"harpsichord_v0_additive_2","vel":0.512,"bend":0.0,"ch":1,"track":3},{"t":381.112,"dur":0.13,"note":61,"inst":"harpsichord_v0_additive_2","vel":0.661,"bend":0.0,"ch":13,"track":3},{"t":381.242,"dur":0.261,"note":49,"inst":"harpsichord_v0_additive_2","vel":0.598,"bend":0.0,"ch":1,"track":3},{"t":381.242,"dur":0.261,"note":61,"inst":"harpsichord_v0_additive_2","vel":0.598,"bend":0.0,"ch":13,"track":3},{"t":381.503,"dur":0.261,"note":33,"inst":"organ_v0_additive_1","vel":0.559,"bend":0.0,"ch":1,"track":3},{"t":381.503,"dur":0.261,"note":45,"inst":"organ_v0_additive_1","vel":0.559,"bend":0.0,"ch":13,"track":3},{"t":381.764,"dur":0.261,"note":49,"inst":"harpsichord_v0_additive_2","vel":0.638,"bend":0.0,"ch":1,"track":3},{"t":381.764,"dur":0.261,"note":61,"inst":"harpsichord_v0_additive_2","vel":0.638,"bend":0.0,"ch":13,"track":3},{"t":382.025,"dur":0.261,"note":33,"inst":"organ_v0_additive_1","vel":0.559,"bend":0.0,"ch":1,"track":3},{"t":382.025,"dur":0.261,"note":45,"inst":"organ_v0_additive_1","vel":0.559,"bend":0.0,"ch":13,"track":3},{"t":382.286,"dur":0.261,"note":49,"inst":"harpsichord_v0_additive_2","vel":0.654,"bend":0.0,"ch":1,"track":3},{"t":382.286,"dur":0.261,"note":61,"inst":"harpsichord_v0_additive_2","vel":0.654,"bend":0.0,"ch":13,"track":3},{"t":382.547,"dur":0.261,"note":33,"inst":"organ_v0_additive_1","vel":0.559,"bend":0.0,"ch":1,"track":3},{"t":382.547,"dur":0.261,"note":45,"inst":"organ_v0_additive_1","vel":0.559,"bend":0.0,"ch":13,"track":3},{"t":382.808,"dur":0.261,"note":49,"inst":"harpsichord_v0_additive_2","vel":0.622,"bend":0.0,"ch":1,"track":3},{"t":382.808,"dur":0.261,"note":61,"inst":"harpsichord_v0_additive_2","vel":0.622,"bend":0.0,"ch":13,"track":3},{"t":383.069,"dur":0.261,"note":33,"inst":"organ_v0_additive_1","vel":0.567,"bend":0.0,"ch":1,"track":3},{"t":383.069,"dur":0.261,"note":45,"inst":"organ_v0_additive_1","vel":0.567,"bend":0.0,"ch":13,"track":3},{"t":383.33,"dur":0.13,"note":49,"inst":"harpsichord_v0_additive_2","vel":0.543,"bend":0.0,"ch":1,"track":3},{"t":383.33,"dur":2.088,"note":73,"inst":"harpsichord_v0_additive_2","vel":0.433,"bend":0.0,"ch":9,"track":3},{"t":383.46,"dur":0.13,"note":61,"inst":"harpsichord_v0_additive_2","vel":0.677,"bend":0.0,"ch":13,"track":3},{"t":383.591,"dur":0.13,"note":49,"inst":"harpsichord_v0_additive_2","vel":0.535,"bend":0.0,"ch":1,"track":3},{"t":383.721,"dur":0.13,"note":61,"inst":"harpsichord_v0_additive_2","vel":0.646,"bend":0.0,"ch":13,"track":3},{"t":383.851,"dur":0.13,"note":49,"inst":"harpsichord_v0_additive_2","vel":0.543,"bend":0.0,"ch":1,"track":3},{"t":383.982,"dur":0.13,"note":61,"inst":"harpsichord_v0_additive_2","vel":0.646,"bend":0.0,"ch":13,"track":3},{"t":384.112,"dur":0.13,"note":49,"inst":"harpsichord_v0_additive_2","vel":0.535,"bend":0.0,"ch":1,"track":3},{"t":384.243,"dur":0.13,"note":61,"inst":"harpsichord_v0_additive_2","vel":0.669,"bend":0.0,"ch":13,"track":3},{"t":384.373,"dur":0.13,"note":49,"inst":"harpsichord_v0_additive_2","vel":0.496,"bend":0.0,"ch":1,"track":3},{"t":384.504,"dur":0.13,"note":61,"inst":"harpsichord_v0_additive_2","vel":0.654,"bend":0.0,"ch":13,"track":3},{"t":384.634,"dur":0.13,"note":49,"inst":"harpsichord_v0_additive_2","vel":0.512,"bend":0.0,"ch":1,"track":3},{"t":384.765,"dur":0.13,"note":61,"inst":"harpsichord_v0_additive_2","vel":0.646,"bend":0.0,"ch":13,"track":3},{"t":384.895,"dur":0.13,"note":49,"inst":"harpsichord_v0_additive_2","vel":0.535,"bend":0.0,"ch":1,"track":3},{"t":385.026,"dur":0.13,"note":61,"inst":"harpsichord_v0_additive_2","vel":0.646,"bend":0.0,"ch":13,"track":3},{"t":385.156,"dur":0.13,"note":49,"inst":"harpsichord_v0_additive_2","vel":0.535,"bend":0.0,"ch":1,"track":3},{"t":385.287,"dur":0.13,"note":61,"inst":"harpsichord_v0_additive_2","vel":0.622,"bend":0.0,"ch":13,"track":3},{"t":385.417,"dur":0.13,"note":49,"inst":"harpsichord_v0_additive_2","vel":0.52,"bend":0.0,"ch":1,"track":3},{"t":385.417,"dur":2.088,"note":69,"inst":"organ_v0_additive_1","vel":0.677,"bend":0.0,"ch":5,"track":3},{"t":385.548,"dur":0.13,"note":61,"inst":"harpsichord_v0_additive_2","vel":0.693,"bend":0.0,"ch":13,"track":3},{"t":385.678,"dur":0.13,"note":49,"inst":"harpsichord_v0_additive_2","vel":0.512,"bend":0.0,"ch":1,"track":3},{"t":385.809,"dur":0.13,"note":61,"inst":"harpsichord_v0_additive_2","vel":0.693,"bend":0.0,"ch":13,"track":3},{"t":385.939,"dur":0.13,"note":49,"inst":"harpsichord_v0_additive_2","vel":0.496,"bend":0.0,"ch":1,"track":3},{"t":386.07,"dur":0.13,"note":61,"inst":"harpsichord_v0_additive_2","vel":0.654,"bend":0.0,"ch":13,"track":3},{"t":386.2,"dur":0.13,"note":49,"inst":"harpsichord_v0_additive_2","vel":0.528,"bend":0.0,"ch":1,"track":3},{"t":386.331,"dur":0.13,"note":61,"inst":"harpsichord_v0_additive_2","vel":0.646,"bend":0.0,"ch":13,"track":3},{"t":386.461,"dur":0.13,"note":49,"inst":"harpsichord_v0_additive_2","vel":0.496,"bend":0.0,"ch":1,"track":3},{"t":386.591,"dur":0.13,"note":61,"inst":"harpsichord_v0_additive_2","vel":0.63,"bend":0.0,"ch":13,"track":3},{"t":386.722,"dur":0.13,"note":49,"inst":"harpsichord_v0_additive_2","vel":0.528,"bend":0.0,"ch":1,"track":3},{"t":386.852,"dur":0.13,"note":61,"inst":"harpsichord_v0_additive_2","vel":0.677,"bend":0.0,"ch":13,"track":3},{"t":386.983,"dur":0.13,"note":49,"inst":"harpsichord_v0_additive_2","vel":0.488,"bend":0.0,"ch":1,"track":3},{"t":387.113,"dur":0.13,"note":61,"inst":"harpsichord_v0_additive_2","vel":0.685,"bend":0.0,"ch":13,"track":3},{"t":387.244,"dur":0.13,"note":49,"inst":"harpsichord_v0_additive_2","vel":0.52,"bend":0.0,"ch":1,"track":3},{"t":387.374,"dur":0.13,"note":61,"inst":"harpsichord_v0_additive_2","vel":0.654,"bend":0.0,"ch":13,"track":3},{"t":387.505,"dur":0.13,"note":49,"inst":"harpsichord_v0_additive_2","vel":0.52,"bend":0.0,"ch":1,"track":3},{"t":387.505,"dur":1.566,"note":85,"inst":"harpsichord_v0_additive_2","vel":0.669,"bend":0.0,"ch":5,"track":3},{"t":387.635,"dur":0.13,"note":61,"inst":"harpsichord_v0_additive_2","vel":0.669,"bend":0.0,"ch":13,"track":3},{"t":387.766,"dur":0.13,"note":49,"inst":"harpsichord_v0_additive_2","vel":0.48,"bend":0.0,"ch":1,"track":3},{"t":387.896,"dur":0.13,"note":61,"inst":"harpsichord_v0_additive_2","vel":0.669,"bend":0.0,"ch":13,"track":3},{"t":388.027,"dur":0.13,"note":49,"inst":"harpsichord_v0_additive_2","vel":0.496,"bend":0.0,"ch":1,"track":3},{"t":388.157,"dur":0.13,"note":61,"inst":"harpsichord_v0_additive_2","vel":0.669,"bend":0.0,"ch":13,"track":3},{"t":388.288,"dur":0.13,"note":49,"inst":"harpsichord_v0_additive_2","vel":0.52,"bend":0.0,"ch":1,"track":3},{"t":388.418,"dur":0.13,"note":61,"inst":"harpsichord_v0_additive_2","vel":0.677,"bend":0.0,"ch":13,"track":3},{"t":388.549,"dur":0.13,"note":49,"inst":"harpsichord_v0_additive_2","vel":0.543,"bend":0.0,"ch":1,"track":3},{"t":388.679,"dur":0.13,"note":61,"inst":"harpsichord_v0_additive_2","vel":0.646,"bend":0.0,"ch":13,"track":3},{"t":388.81,"dur":0.13,"note":49,"inst":"harpsichord_v0_additive_2","vel":0.496,"bend":0.0,"ch":1,"track":3},{"t":456.385,"dur":0.361,"note":48,"inst":"organ_v0_additive_1","vel":0.709,"bend":0.0,"ch":0,"track":3},{"t":456.385,"dur":0.361,"note":48,"inst":"organ_v0_additive_1","vel":0.709,"bend":0.0,"ch":0,"track":3},{"t":456.385,"dur":0.361,"note":63,"inst":"organ_v0_additive_1","vel":0.709,"bend":0.0,"ch":15,"track":3},{"t":456.745,"dur":0.361,"note":48,"inst":"organ_v0_additive_1","vel":0.709,"bend":0.0,"ch":0,"track":3},{"t":456.745,"dur":0.361,"note":48,"inst":"organ_v0_additive_1","vel":0.709,"bend":0.0,"ch":0,"track":3},{"t":456.745,"dur":0.721,"note":55,"inst":"harpsichord_v0_additive_2","vel":0.709,"bend":0.0,"ch":7,"track":3},{"t":457.106,"dur":0.361,"note":36,"inst":"organ_v0_additive_1","vel":0.709,"bend":0.0,"ch":4,"track":3},{"t":457.106,"dur":0.361,"note":43,"inst":"harpsichord_v0_additive_2","vel":0.709,"bend":0.0,"ch":11,"track":3},{"t":457.106,"dur":0.721,"note":65,"inst":"celesta_v0_additive_3","vel":0.709,"bend":0.0,"ch":1,"track":3},{"t":457.466,"dur":0.721,"note":48,"inst":"organ_v0_additive_1","vel":0.709,"bend":0.0,"ch":0,"track":3},{"t":457.466,"dur":0.721,"note":48,"inst":"organ_v0_additive_1","vel":0.709,"bend":0.0,"ch":0,"track":3},{"t":457.466,"dur":0.361,"note":67,"inst":"harpsichord_v0_additive_2","vel":0.709,"bend":0.0,"ch":3,"track":3},{"t":457.827,"dur":1.442,"note":63,"inst":"organ_v0_additive_1","vel":0.709,"bend":0.0,"ch":15,"track":3},{"t":457.827,"dur":0.721,"note":67,"inst":"harpsichord_v0_additive_2","vel":0.709,"bend":0.0,"ch":3,"track":3},{"t":458.188,"dur":0.18,"note":48,"inst":"organ_v0_additive_1","vel":0.709,"bend":0.0,"ch":0,"track":3},{"t":458.188,"dur":0.18,"note":48,"inst":"organ_v0_additive_1","vel":0.709,"bend":0.0,"ch":0,"track":3},{"t":458.368,"dur":0.18,"note":46,"inst":"harpsichord_v0_additive_2","vel":0.709,"bend":0.0,"ch":14,"track":3},{"t":458.368,"dur":0.18,"note":46,"inst":"harpsichord_v0_additive_2","vel":0.709,"bend":0.0,"ch":14,"track":3},{"t":458.548,"dur":0.361,"note":46,"inst":"harpsichord_v0_additive_2","vel":0.709,"bend":0.0,"ch":14,"track":3},{"t":458.548,"dur":0.361,"note":46,"inst":"harpsichord_v0_additive_2","vel":0.709,"bend":0.0,"ch":14,"track":3},{"t":458.548,"dur":0.361,"note":72,"inst":"organ_v0_additive_1","vel":0.709,"bend":0.0,"ch":8,"track":3},{"t":458.909,"dur":0.361,"note":46,"inst":"harpsichord_v0_additive_2","vel":0.709,"bend":0.0,"ch":14,"track":3},{"t":458.909,"dur":0.361,"note":46,"inst":"harpsichord_v0_additive_2","vel":0.709,"bend":0.0,"ch":14,"track":3},{"t":458.909,"dur":0.721,"note":65,"inst":"celesta_v0_additive_3","vel":0.709,"bend":0.0,"ch":1,"track":3},{"t":459.27,"dur":0.361,"note":34,"inst":"harpsichord_v0_additive_2","vel":0.709,"bend":0.0,"ch":2,"track":3},{"t":459.27,"dur":0.361,"note":41,"inst":"celesta_v0_additive_3","vel":0.709,"bend":0.0,"ch":9,"track":3},{"t":459.27,"dur":1.082,"note":60,"inst":"organ_v0_additive_1","vel":0.709,"bend":0.0,"ch":12,"track":3},{"t":459.63,"dur":0.361,"note":46,"inst":"harpsichord_v0_additive_2","vel":0.709,"bend":0.0,"ch":14,"track":3},{"t":459.63,"dur":0.361,"note":46,"inst":"harpsichord_v0_additive_2","vel":0.709,"bend":0.0,"ch":14,"track":3},{"t":459.63,"dur":0.361,"note":60,"inst":"organ_v0_additive_1","vel":0.709,"bend":0.0,"ch":12,"track":3},{"t":459.991,"dur":0.361,"note":39,"inst":"organ_v0_additive_1","vel":0.709,"bend":0.0,"ch":7,"track":3},{"t":459.991,"dur":0.361,"note":39,"inst":"organ_v0_additive_1","vel":0.709,"bend":0.0,"ch":7,"track":3},{"t":459.991,"dur":1.082,"note":65,"inst":"celesta_v0_additive_3","vel":0.709,"bend":0.0,"ch":1,"track":3},{"t":460.351,"dur":0.361,"note":43,"inst":"harpsichord_v0_additive_2","vel":0.709,"bend":0.0,"ch":11,"track":3},{"t":460.351,"dur":0.361,"note":43,"inst":"harpsichord_v0_additive_2","vel":0.709,"bend":0.0,"ch":11,"track":3},{"t":460.351,"dur":1.082,"note":60,"inst":"organ_v0_additive_1","vel":0.709,"bend":0.0,"ch":12,"track":3},{"t":460.712,"dur":0.361,"note":31,"inst":"harpsichord_v0_additive_2","vel":0.709,"bend":0.0,"ch":15,"track":3},{"t":460.712,"dur":0.361,"note":31,"inst":"harpsichord_v0_additive_2","vel":0.709,"bend":0.0,"ch":15,"track":3},{"t":461.073,"dur":0.721,"note":36,"inst":"organ_v0_additive_1","vel":0.709,"bend":0.0,"ch":4,"track":3},{"t":461.073,"dur":0.721,"note":36,"inst":"organ_v0_additive_1","vel":0.709,"bend":0.0,"ch":4,"track":3},{"t":461.073,"dur":1.082,"note":65,"inst":"celesta_v0_additive_3","vel":0.709,"bend":0.0,"ch":1,"track":3},{"t":461.433,"dur":0.361,"note":53,"inst":"celesta_v0_additive_3","vel":0.709,"bend":0.0,"ch":5,"track":3},{"t":461.794,"dur":0.361,"note":41,"inst":"celesta_v0_additive_3","vel":0.709,"bend":0.0,"ch":9,"track":3},{"t":461.794,"dur":0.361,"note":41,"inst":"celesta_v0_additive_3","vel":0.709,"bend":0.0,"ch":9,"track":3},{"t":461.794,"dur":0.721,"note":58,"inst":"harpsichord_v0_additive_2","vel":0.709,"bend":0.0,"ch":10,"track":3},{"t":462.154,"dur":0.721,"note":36,"inst":"organ_v0_additive_1","vel":0.709,"bend":0.0,"ch":4,"track":3},{"t":462.154,"dur":0.721,"note":36,"inst":"organ_v0_additive_1","vel":0.709,"bend":0.0,"ch":4,"track":3},{"t":462.154,"dur":1.082,"note":63,"inst":"organ_v0_additive_1","vel":0.709,"bend":0.0,"ch":15,"track":3},{"t":462.515,"dur":0.361,"note":51,"inst":"organ_v0_additive_1","vel":0.709,"bend":0.0,"ch":3,"track":3},{"t":462.876,"dur":0.361,"note":41,"inst":"celesta_v0_additive_3","vel":0.709,"bend":0.0,"ch":9,"track":3},{"t":462.876,"dur":0.361,"note":41,"inst":"celesta_v0_additive_3","vel":0.709,"bend":0.0,"ch":9,"track":3},{"t":462.876,"dur":0.721,"note":55,"inst":"harpsichord_v0_additive_2","vel":0.709,"bend":0.0,"ch":7,"track":3},{"t":463.236,"dur":0.721,"note":34,"inst":"harpsichord_v0_additive_2","vel":0.709,"bend":0.0,"ch":2,"track":3},{"t":463.236,"dur":0.721,"note":34,"inst":"harpsichord_v0_additive_2","vel":0.709,"bend":0.0,"ch":2,"track":3},{"t":463.236,"dur":1.082,"note":60,"inst":"organ_v0_additive_1","vel":0.709,"bend":0.0,"ch":12,"track":3},{"t":463.597,"dur":0.361,"note":48,"inst":"organ_v0_additive_1","vel":0.709,"bend":0.0,"ch":0,"track":3},{"t":463.958,"dur":0.361,"note":39,"inst":"organ_v0_additive_1","vel":0.709,"bend":0.0,"ch":7,"track":3},{"t":463.958,"dur":0.361,"note":39,"inst":"organ_v0_additive_1","vel":0.709,"bend":0.0,"ch":7,"track":3},{"t":463.958,"dur":1.082,"note":53,"inst":"celesta_v0_additive_3","vel":0.709,"bend":0.0,"ch":5,"track":3},{"t":464.318,"dur":0.721,"note":31,"inst":"harpsichord_v0_additive_2","vel":0.709,"bend":0.0,"ch":15,"track":3},{"t":464.318,"dur":0.721,"note":31,"inst":"harpsichord_v0_additive_2","vel":0.709,"bend":0.0,"ch":15,"track":3},{"t":464.318,"dur":0.361,"note":60,"inst":"organ_v0_additive_1","vel":0.709,"bend":0.0,"ch":12,"track":3},{"t":464.679,"dur":0.361,"note":55,"inst":"harpsichord_v0_additive_2","vel":0.709,"bend":0.0,"ch":7,"track":3},{"t":465.039,"dur":0.361,"note":34,"inst":"harpsichord_v0_additive_2","vel":0.709,"bend":0.0,"ch":2,"track":3},{"t":465.039,"dur":0.361,"note":34,"inst":"harpsichord_v0_additive_2","vel":0.709,"bend":0.0,"ch":2,"track":3},{"t":465.039,"dur":0.721,"note":53,"inst":"celesta_v0_additive_3","vel":0.709,"bend":0.0,"ch":5,"track":3},{"t":465.039,"dur":0.361,"note":60,"inst":"organ_v0_additive_1","vel":0.709,"bend":0.0,"ch":12,"track":3},{"t":465.4,"dur":0.361,"note":29,"inst":"celesta_v0_additive_3","vel":0.709,"bend":0.0,"ch":13,"track":3},{"t":465.4,"dur":0.361,"note":29,"inst":"celesta_v0_additive_3","vel":0.709,"bend":0.0,"ch":13,"track":3},{"t":465.4,"dur":0.361,"note":48,"inst":"organ_v0_additive_1","vel":0.709,"bend":0.0,"ch":0,"track":3},{"t":465.761,"dur":0.721,"note":31,"inst":"harpsichord_v0_additive_2","vel":0.709,"bend":0.0,"ch":15,"track":3},{"t":465.761,"dur":0.721,"note":31,"inst":"harpsichord_v0_additive_2","vel":0.709,"bend":0.0,"ch":15,"track":3},{"t":465.761,"dur":0.541,"note":48,"inst":"organ_v0_additive_1","vel":0.709,"bend":0.0,"ch":0,"track":3},{"t":465.761,"dur":0.721,"note":51,"inst":"organ_v0_additive_1","vel":0.709,"bend":0.0,"ch":3,"track":3},{"t":466.302,"dur":0.18,"note":48,"inst":"organ_v0_additive_1","vel":0.709,"bend":0.0,"ch":0,"track":3},{"t":466.482,"dur":0.361,"note":36,"inst":"organ_v0_additive_1","vel":0.709,"bend":0.0,"ch":4,"track":3},{"t":466.482,"dur":0.361,"note":36,"inst":"organ_v0_additive_1","vel":0.709,"bend":0.0,"ch":4,"track":3},{"t":466.482,"dur":0.361,"note":48,"inst":"organ_v0_additive_1","vel":0.709,"bend":0.0,"ch":0,"track":3},{"t":466.482,"dur":0.721,"note":48,"inst":"organ_v0_additive_1","vel":0.709,"bend":0.0,"ch":0,"track":3},{"t":466.843,"dur":0.721,"note":48,"inst":"organ_v0_additive_1","vel":0.709,"bend":0.0,"ch":0,"track":3},{"t":466.843,"dur":0.721,"note":48,"inst":"organ_v0_additive_1","vel":0.709,"bend":0.0,"ch":0,"track":3},{"t":466.843,"dur":0.541,"note":65,"inst":"celesta_v0_additive_3","vel":0.709,"bend":0.0,"ch":1,"track":3},{"t":467.384,"dur":0.18,"note":67,"inst":"harpsichord_v0_additive_2","vel":0.709,"bend":0.0,"ch":3,"track":3},{"t":467.564,"dur":0.361,"note":48,"inst":"organ_v0_additive_1","vel":0.709,"bend":0.0,"ch":0,"track":3},{"t":467.564,"dur":0.361,"note":48,"inst":"organ_v0_additive_1","vel":0.709,"bend":0.0,"ch":0,"track":3},{"t":467.564,"dur":0.361,"note":67,"inst":"harpsichord_v0_additive_2","vel":0.709,"bend":0.0,"ch":3,"track":3},{"t":467.924,"dur":0.721,"note":39,"inst":"organ_v0_additive_1","vel":0.709,"bend":0.0,"ch":7,"track":3},{"t":467.924,"dur":0.721,"note":39,"inst":"organ_v0_additive_1","vel":0.709,"bend":0.0,"ch":7,"track":3},{"t":467.924,"dur":0.541,"note":65,"inst":"celesta_v0_additive_3","vel":0.709,"bend":0.0,"ch":1,"track":3},{"t":467.924,"dur":0.18,"note":70,"inst":"harpsichord_v0_additive_2","vel":0.709,"bend":0.0,"ch":6,"track":3},{"t":468.105,"dur":0.18,"note":67,"inst":"harpsichord_v0_additive_2","vel":0.709,"bend":0.0,"ch":3,"track":3},{"t":468.285,"dur":0.18,"note":65,"inst":"celesta_v0_additive_3","vel":0.709,"bend":0.0,"ch":1,"track":3},{"t":468.465,"dur":0.18,"note":65,"inst":"celesta_v0_additive_3","vel":0.709,"bend":0.0,"ch":1,"track":3},{"t":468.465,"dur":0.18,"note":65,"inst":"celesta_v0_additive_3","vel":0.709,"bend":0.0,"ch":1,"track":3},{"t":468.646,"dur":0.541,"note":51,"inst":"organ_v0_additive_1","vel":0.709,"bend":0.0,"ch":3,"track":3},{"t":468.646,"dur":0.541,"note":51,"inst":"organ_v0_additive_1","vel":0.709,"bend":0.0,"ch":3,"track":3},{"t":468.646,"dur":0.541,"note":58,"inst":"harpsichord_v0_additive_2","vel":0.709,"bend":0.0,"ch":10,"track":3},{"t":468.646,"dur":0.541,"note":65,"inst":"celesta_v0_additive_3","vel":0.709,"bend":0.0,"ch":1,"track":3},{"t":469.187,"dur":0.18,"note":41,"inst":"celesta_v0_additive_3","vel":0.709,"bend":0.0,"ch":9,"track":3},{"t":469.187,"dur":0.18,"note":41,"inst":"celesta_v0_additive_3","vel":0.709,"bend":0.0,"ch":9,"track":3},{"t":469.187,"dur":0.18,"note":63,"inst":"organ_v0_additive_1","vel":0.709,"bend":0.0,"ch":15,"track":3},{"t":469.187,"dur":0.18,"note":70,"inst":"harpsichord_v0_additive_2","vel":0.709,"bend":0.0,"ch":6,"track":3},{"t":469.367,"dur":0.721,"note":43,"inst":"harpsichord_v0_additive_2","vel":0.709,"bend":0.0,"ch":11,"track":3},{"t":469.367,"dur":0.721,"note":43,"inst":"harpsichord_v0_additive_2","vel":0.709,"bend":0.0,"ch":11,"track":3},{"t":469.367,"dur":0.361,"note":51,"inst":"organ_v0_additive_1","vel":0.709,"bend":0.0,"ch":3,"track":3},{"t":469.367,"dur":0.361,"note":65,"inst":"celesta_v0_additive_3","vel":0.709,"bend":0.0,"ch":1,"track":3},{"t":469.728,"dur":0.361,"note":63,"inst":"organ_v0_additive_1","vel":0.709,"bend":0.0,"ch":15,"track":3},{"t":469.728,"dur":0.361,"note":65,"inst":"celesta_v0_additive_3","vel":0.709,"bend":0.0,"ch":1,"track":3},{"t":470.088,"dur":0.721,"note":46,"inst":"harpsichord_v0_additive_2","vel":0.709,"bend":0.0,"ch":14,"track":3},{"t":470.088,"dur":0.721,"note":46,"inst":"harpsichord_v0_additive_2","vel":0.709,"bend":0.0,"ch":14,"track":3},{"t":470.088,"dur":0.541,"note":63,"inst":"organ_v0_additive_1","vel":0.709,"bend":0.0,"ch":15,"track":3},{"t":470.088,"dur":0.721,"note":65,"inst":"celesta_v0_additive_3","vel":0.709,"bend":0.0,"ch":1,"track":3},{"t":470.629,"dur":0.18,"note":51,"inst":"organ_v0_additive_1","vel":0.709,"bend":0.0,"ch":3,"track":3},{"t":470.809,"dur":0.361,"note":39,"inst":"organ_v0_additive_1","vel":0.709,"bend":0.0,"ch":7,"track":3},{"t":470.809,"dur":0.361,"note":39,"inst":"organ_v0_additive_1","vel":0.709,"bend":0.0,"ch":7,"track":3},{"t":470.809,"dur":0.361,"note":63,"inst":"organ_v0_additive_1","vel":0.709,"bend":0.0,"ch":15,"track":3},{"t":470.809,"dur":0.721,"note":63,"inst":"organ_v0_additive_1","vel":0.709,"bend":0.0,"ch":15,"track":3},{"t":471.17,"dur":0.721,"note":27,"inst":"organ_v0_additive_1","vel":0.709,"bend":0.0,"ch":11,"track":3},{"t":471.17,"dur":0.721,"note":27,"inst":"organ_v0_additive_1","vel":0.709,"bend":0.0,"ch":11,"track":3},{"t":471.17,"dur":0.18,"note":70,"inst":"harpsichord_v0_additive_2","vel":0.709,"bend":0.0,"ch":6,"track":3},{"t":471.35,"dur":0.18,"note":67,"inst":"harpsichord_v0_additive_2","vel":0.709,"bend":0.0,"ch":3,"track":3},{"t":471.531,"dur":0.18,"note":65,"inst":"celesta_v0_additive_3","vel":0.709,"bend":0.0,"ch":1,"track":3},{"t":471.711,"dur":0.18,"note":65,"inst":"celesta_v0_additive_3","vel":0.709,"bend":0.0,"ch":1,"track":3},{"t":471.891,"dur":0.361,"note":39,"inst":"organ_v0_additive_1","vel":0.709,"bend":0.0,"ch":7,"track":3},{"t":471.891,"dur":0.361,"note":39,"inst":"organ_v0_additive_1","vel":0.709,"bend":0.0,"ch":7,"track":3},{"t":471.891,"dur":0.361,"note":65,"inst":"celesta_v0_additive_3","vel":0.709,"bend":0.0,"ch":1,"track":3},{"t":472.252,"dur":0.721,"note":34,"inst":"harpsichord_v0_additive_2","vel":0.709,"bend":0.0,"ch":2,"track":3},{"t":472.252,"dur":0.721,"note":34,"inst":"harpsichord_v0_additive_2","vel":0.709,"bend":0.0,"ch":2,"track":3},{"t":472.252,"dur":0.721,"note":65,"inst":"celesta_v0_additive_3","vel":0.709,"bend":0.0,"ch":1,"track":3},{"t":472.252,"dur":0.18,"note":70,"inst":"harpsichord_v0_additive_2","vel":0.709,"bend":0.0,"ch":6,"track":3},{"t":472.432,"dur":0.18,"note":67,"inst":"harpsichord_v0_additive_2","vel":0.709,"bend":0.0,"ch":3,"track":3},{"t":472.613,"dur":0.18,"note":65,"inst":"celesta_v0_additive_3","vel":0.709,"bend":0.0,"ch":1,"track":3},{"t":472.793,"dur":0.18,"note":65,"inst":"celesta_v0_additive_3","vel":0.709,"bend":0.0,"ch":1,"track":3},{"t":472.973,"dur":0.361,"note":39,"inst":"organ_v0_additive_1","vel":0.709,"bend":0.0,"ch":7,"track":3},{"t":472.973,"dur":0.361,"note":39,"inst":"organ_v0_additive_1","vel":0.709,"bend":0.0,"ch":7,"track":3},{"t":472.973,"dur":0.361,"note":65,"inst":"celesta_v0_additive_3","vel":0.709,"bend":0.0,"ch":1,"track":3},{"t":473.334,"dur":0.721,"note":27,"inst":"organ_v0_additive_1","vel":0.709,"bend":0.0,"ch":11,"track":3},{"t":473.334,"dur":0.721,"note":27,"inst":"organ_v0_additive_1","vel":0.709,"bend":0.0,"ch":11,"track":3},{"t":473.334,"dur":1.082,"note":65,"inst":"celesta_v0_additive_3","vel":0.709,"bend":0.0,"ch":1,"track":3},{"t":473.334,"dur":0.18,"note":70,"inst":"harpsichord_v0_additive_2","vel":0.709,"bend":0.0,"ch":6,"track":3},{"t":473.514,"dur":0.18,"note":67,"inst":"harpsichord_v0_additive_2","vel":0.709,"bend":0.0,"ch":3,"track":3},{"t":473.694,"dur":0.18,"note":65,"inst":"celesta_v0_additive_3","vel":0.709,"bend":0.0,"ch":1,"track":3},{"t":473.875,"dur":0.18,"note":65,"inst":"celesta_v0_additive_3","vel":0.709,"bend":0.0,"ch":1,"track":3},{"t":474.055,"dur":0.721,"note":39,"inst":"organ_v0_additive_1","vel":0.709,"bend":0.0,"ch":7,"track":3},{"t":474.055,"dur":0.721,"note":39,"inst":"organ_v0_additive_1","vel":0.709,"bend":0.0,"ch":7,"track":3},{"t":474.055,"dur":1.442,"note":65,"inst":"celesta_v0_additive_3","vel":0.709,"bend":0.0,"ch":1,"track":3},{"t":474.416,"dur":0.18,"note":63,"inst":"organ_v0_additive_1","vel":0.709,"bend":0.0,"ch":15,"track":3},{"t":474.596,"dur":0.18,"note":60,"inst":"organ_v0_additive_1","vel":0.709,"bend":0.0,"ch":12,"track":3},{"t":474.776,"dur":0.361,"note":39,"inst":"organ_v0_additive_1","vel":0.709,"bend":0.0,"ch":7,"track":3},{"t":474.776,"dur":0.361,"note":39,"inst":"organ_v0_additive_1","vel":0.709,"bend":0.0,"ch":7,"track":3},{"t":474.776,"dur":0.18,"note":60,"inst":"organ_v0_additive_1","vel":0.709,"bend":0.0,"ch":12,"track":3},{"t":474.957,"dur":0.18,"note":58,"inst":"harpsichord_v0_additive_2","vel":0.709,"bend":0.0,"ch":10,"track":3},{"t":475.137,"dur":0.721,"note":41,"inst":"celesta_v0_additive_3","vel":0.709,"bend":0.0,"ch":9,"track":3},{"t":475.137,"dur":0.721,"note":41,"inst":"celesta_v0_additive_3","vel":0.709,"bend":0.0,"ch":9,"track":3},{"t":475.137,"dur":0.361,"note":58,"inst":"harpsichord_v0_additive_2","vel":0.709,"bend":0.0,"ch":10,"track":3},{"t":475.498,"dur":1.082,"note":60,"inst":"organ_v0_additive_1","vel":0.709,"bend":0.0,"ch":12,"track":3},{"t":475.498,"dur":0.18,"note":65,"inst":"celesta_v0_additive_3","vel":0.709,"bend":0.0,"ch":1,"track":3},{"t":475.678,"dur":0.18,"note":63,"inst":"organ_v0_additive_1","vel":0.709,"bend":0.0,"ch":15,"track":3},{"t":475.858,"dur":0.361,"note":29,"inst":"celesta_v0_additive_3","vel":0.709,"bend":0.0,"ch":13,"track":3},{"t":475.858,"dur":0.361,"note":29,"inst":"celesta_v0_additive_3","vel":0.709,"bend":0.0,"ch":13,"track":3},{"t":475.858,"dur":0.18,"note":60,"inst":"organ_v0_additive_1","vel":0.709,"bend":0.0,"ch":12,"track":3},{"t":476.038,"dur":0.18,"note":60,"inst":"organ_v0_additive_1","vel":0.709,"bend":0.0,"ch":12,"track":3},{"t":476.219,"dur":0.721,"note":34,"inst":"harpsichord_v0_additive_2","vel":0.709,"bend":0.0,"ch":2,"track":3},{"t":476.219,"dur":0.721,"note":34,"inst":"harpsichord_v0_additive_2","vel":0.709,"bend":0.0,"ch":2,"track":3},{"t":476.219,"dur":0.721,"note":60,"inst":"organ_v0_additive_1","vel":0.709,"bend":0.0,"ch":12,"track":3},{"t":476.579,"dur":0.361,"note":53,"inst":"celesta_v0_additive_3","vel":0.709,"bend":0.0,"ch":5,"track":3},{"t":476.94,"dur":0.361,"note":34,"inst":"harpsichord_v0_additive_2","vel":0.709,"bend":0.0,"ch":2,"track":3},{"t":476.94,"dur":0.361,"note":34,"inst":"harpsichord_v0_additive_2","vel":0.709,"bend":0.0,"ch":2,"track":3},{"t":476.94,"dur":0.721,"note":58,"inst":"harpsichord_v0_additive_2","vel":0.709,"bend":0.0,"ch":10,"track":3},{"t":476.94,"dur":0.361,"note":60,"inst":"organ_v0_additive_1","vel":0.709,"bend":0.0,"ch":12,"track":3},{"t":477.301,"dur":0.721,"note":36,"inst":"organ_v0_additive_1","vel":0.709,"bend":0.0,"ch":4,"track":3},{"t":477.301,"dur":0.721,"note":36,"inst":"organ_v0_additive_1","vel":0.709,"bend":0.0,"ch":4,"track":3},{"t":477.301,"dur":0.721,"note":51,"inst":"organ_v0_additive_1","vel":0.709,"bend":0.0,"ch":3,"track":3},{"t":477.661,"dur":0.721,"note":55,"inst":"harpsichord_v0_additive_2","vel":0.709,"bend":0.0,"ch":7,"track":3},{"t":478.022,"dur":0.721,"note":34,"inst":"harpsichord_v0_additive_2","vel":0.709,"bend":0.0,"ch":2,"track":3},{"t":478.022,"dur":0.721,"note":34,"inst":"harpsichord_v0_additive_2","vel":0.709,"bend":0.0,"ch":2,"track":3},{"t":478.022,"dur":0.721,"note":53,"inst":"celesta_v0_additive_3","vel":0.709,"bend":0.0,"ch":5,"track":3},{"t":478.382,"dur":0.361,"note":55,"inst":"harpsichord_v0_additive_2","vel":0.709,"bend":0.0,"ch":7,"track":3},{"t":478.743,"dur":0.721,"note":36,"inst":"organ_v0_additive_1","vel":0.709,"bend":0.0,"ch":4,"track":3},{"t":478.743,"dur":0.721,"note":36,"inst":"organ_v0_additive_1","vel":0.709,"bend":0.0,"ch":4,"track":3},{"t":478.743,"dur":0.541,"note":53,"inst":"celesta_v0_additive_3","vel":0.709,"bend":0.0,"ch":5,"track":3},{"t":478.743,"dur":0.721,"note":55,"inst":"harpsichord_v0_additive_2","vel":0.709,"bend":0.0,"ch":7,"track":3},{"t":479.284,"dur":0.18,"note":51,"inst":"organ_v0_additive_1","vel":0.709,"bend":0.0,"ch":3,"track":3},{"t":479.517,"dur":0.342,"note":56,"inst":"harpsichord_v0_additive_2","vel":1.0,"bend":0.0,"ch":8,"track":5},{"t":479.517,"dur":0.171,"note":83,"inst":"harpsichord_v0_additive_2","vel":1.0,"bend":0.0,"ch":3,"track":5},{"t":479.688,"dur":0.171,"note":83,"inst":"harpsichord_v0_additive_2","vel":1.0,"bend":0.0,"ch":3,"track":5},{"t":479.859,"dur":0.342,"note":51,"inst":"piano_v0_additive_0","vel":1.0,"bend":0.0,"ch":3,"track":5},{"t":479.859,"dur":0.171,"note":87,"inst":"piano_v0_additive_0","vel":1.0,"bend":0.0,"ch":7,"track":5},{"t":480.03,"dur":0.171,"note":85,"inst":"organ_v0_additive_1","vel":1.0,"bend":0.0,"ch":5,"track":5},{"t":480.201,"dur":0.342,"note":58,"inst":"organ_v0_additive_1","vel":1.0,"bend":0.0,"ch":10,"track":5},{"t":480.201,"dur":0.171,"note":83,"inst":"harpsichord_v0_additive_2","vel":1.0,"bend":0.0,"ch":3,"track":5},{"t":480.373,"dur":0.171,"note":80,"inst":"harpsichord_v0_additive_2","vel":1.0,"bend":0.0,"ch":0,"track":5},{"t":480.544,"dur":0.342,"note":51,"inst":"piano_v0_additive_0","vel":1.0,"bend":0.0,"ch":3,"track":5},{"t":480.544,"dur":0.171,"note":82,"inst":"organ_v0_additive_1","vel":1.0,"bend":0.0,"ch":2,"track":5},{"t":480.715,"dur":0.057,"note":82,"inst":"organ_v0_additive_1","vel":1.0,"bend":0.0,"ch":2,"track":5},{"t":480.772,"dur":0.057,"note":83,"inst":"harpsichord_v0_additive_2","vel":1.0,"bend":0.0,"ch":3,"track":5},{"t":480.829,"dur":0.057,"note":82,"inst":"organ_v0_additive_1","vel":1.0,"bend":0.0,"ch":2,"track":5},{"t":480.886,"dur":0.342,"note":54,"inst":"piano_v0_additive_0","vel":1.0,"bend":0.0,"ch":6,"track":5},{"t":480.886,"dur":0.171,"note":80,"inst":"harpsichord_v0_additive_2","vel":1.0,"bend":0.0,"ch":0,"track":5},{"t":481.057,"dur":0.171,"note":82,"inst":"organ_v0_additive_1","vel":1.0,"bend":0.0,"ch":2,"track":5},{"t":481.229,"dur":0.342,"note":51,"inst":"piano_v0_additive_0","vel":1.0,"bend":0.0,"ch":3,"track":5},{"t":481.229,"dur":0.171,"note":85,"inst":"organ_v0_additive_1","vel":1.0,"bend":0.0,"ch":5,"track":5},{"t":481.4,"dur":0.171,"note":83,"inst":"harpsichord_v0_additive_2","vel":1.0,"bend":0.0,"ch":3,"track":5},{"t":481.571,"dur":0.342,"note":56,"inst":"harpsichord_v0_additive_2","vel":1.0,"bend":0.0,"ch":8,"track":5},{"t":481.571,"dur":0.171,"note":82,"inst":"organ_v0_additive_1","vel":1.0,"bend":0.0,"ch":2,"track":5},{"t":481.742,"dur":0.171,"note":78,"inst":"piano_v0_additive_0","vel":1.0,"bend":0.0,"ch":14,"track":5},{"t":481.913,"dur":0.342,"note":51,"inst":"piano_v0_additive_0","vel":1.0,"bend":0.0,"ch":3,"track":5},{"t":481.913,"dur":0.171,"note":80,"inst":"harpsichord_v0_additive_2","vel":1.0,"bend":0.0,"ch":0,"track":5},{"t":482.084,"dur":0.057,"note":80,"inst":"harpsichord_v0_additive_2","vel":1.0,"bend":0.0,"ch":0,"track":5},{"t":482.142,"dur":0.057,"note":82,"inst":"organ_v0_additive_1","vel":1.0,"bend":0.0,"ch":2,"track":5},{"t":482.199,"dur":0.057,"note":80,"inst":"harpsichord_v0_additive_2","vel":1.0,"bend":0.0,"ch":0,"track":5},{"t":482.256,"dur":0.342,"note":59,"inst":"harpsichord_v0_additive_2","vel":1.0,"bend":0.0,"ch":11,"track":5},{"t":482.256,"dur":0.171,"note":78,"inst":"piano_v0_additive_0","vel":1.0,"bend":0.0,"ch":14,"track":5},{"t":482.427,"dur":0.171,"note":82,"inst":"organ_v0_additive_1","vel":1.0,"bend":0.0,"ch":2,"track":5},{"t":482.598,"dur":0.342,"note":59,"inst":"harpsichord_v0_additive_2","vel":1.0,"bend":0.0,"ch":11,"track":5},{"t":482.598,"dur":0.171,"note":80,"inst":"harpsichord_v0_additive_2","vel":1.0,"bend":0.0,"ch":0,"track":5},{"t":482.769,"dur":0.171,"note":76,"inst":"organ_v0_additive_1","vel":1.0,"bend":0.0,"ch":12,"track":5},{"t":482.94,"dur":0.342,"note":58,"inst":"organ_v0_additive_1","vel":1.0,"bend":0.0,"ch":10,"track":5},{"t":482.94,"dur":0.171,"note":75,"inst":"piano_v0_additive_0","vel":1.0,"bend":0.0,"ch":11,"track":5},{"t":483.112,"dur":0.171,"note":88,"inst":"organ_v0_additive_1","vel":1.0,"bend":0.0,"ch":8,"track":5},{"t":483.283,"dur":0.342,"note":51,"inst":"piano_v0_additive_0","vel":1.0,"bend":0.0,"ch":3,"track":5},{"t":483.283,"dur":0.171,"note":87,"inst":"piano_v0_additive_0","vel":1.0,"bend":0.0,"ch":7,"track":5},{"t":483.454,"dur":0.057,"note":76,"inst":"organ_v0_additive_1","vel":1.0,"bend":0.0,"ch":12,"track":5},{"t":483.511,"dur":0.057,"note":78,"inst":"piano_v0_additive_0","vel":1.0,"bend":0.0,"ch":14,"track":5},{"t":483.568,"dur":0.057,"note":76,"inst":"organ_v0_additive_1","vel":1.0,"bend":0.0,"ch":12,"track":5},{"t":483.625,"dur":0.342,"note":58,"inst":"organ_v0_additive_1","vel":1.0,"bend":0.0,"ch":10,"track":5},{"t":483.625,"dur":0.171,"note":75,"inst":"piano_v0_additive_0","vel":1.0,"bend":0.0,"ch":11,"track":5},{"t":483.796,"dur":0.171,"note":87,"inst":"piano_v0_additive_0","vel":1.0,"bend":0.0,"ch":7,"track":5},{"t":483.968,"dur":0.342,"note":51,"inst":"piano_v0_additive_0","vel":1.0,"bend":0.0,"ch":3,"track":5},{"t":483.968,"dur":0.171,"note":85,"inst":"organ_v0_additive_1","vel":1.0,"bend":0.0,"ch":5,"track":5},{"t":484.139,"dur":0.057,"note":73,"inst":"organ_v0_additive_1","vel":1.0,"bend":0.0,"ch":9,"track":5},{"t":484.196,"dur":0.057,"note":75,"inst":"piano_v0_additive_0","vel":1.0,"bend":0.0,"ch":11,"track":5},{"t":484.253,"dur":0.057,"note":73,"inst":"organ_v0_additive_1","vel":1.0,"bend":0.0,"ch":9,"track":5},{"t":484.31,"dur":0.342,"note":56,"inst":"harpsichord_v0_additive_2","vel":1.0,"bend":0.0,"ch":8,"track":5},{"t":484.31,"dur":0.171,"note":71,"inst":"harpsichord_v0_additive_2","vel":1.0,"bend":0.0,"ch":7,"track":5},{"t":484.481,"dur":0.171,"note":85,"inst":"organ_v0_additive_1","vel":1.0,"bend":0.0,"ch":5,"track":5},{"t":484.652,"dur":0.342,"note":56,"inst":"harpsichord_v0_additive_2","vel":1.0,"bend":0.0,"ch":8,"track":5},{"t":484.652,"dur":0.171,"note":83,"inst":"harpsichord_v0_additive_2","vel":1.0,"bend":0.0,"ch":3,"track":5},{"t":484.824,"dur":0.057,"note":83,"inst":"harpsichord_v0_additive_2","vel":1.0,"bend":0.0,"ch":3,"track":5},{"t":484.881,"dur":0.057,"note":85,"inst":"organ_v0_additive_1","vel":1.0,"bend":0.0,"ch":5,"track":5},{"t":484.938,"dur":0.057,"note":83,"inst":"harpsichord_v0_additive_2","vel":1.0,"bend":0.0,"ch":3,"track":5},{"t":484.995,"dur":0.342,"note":56,"inst":"harpsichord_v0_additive_2","vel":1.0,"bend":0.0,"ch":8,"track":5},{"t":484.995,"dur":0.171,"note":83,"inst":"harpsichord_v0_additive_2","vel":1.0,"bend":0.0,"ch":3,"track":5},{"t":485.166,"dur":0.171,"note":83,"inst":"harpsichord_v0_additive_2","vel":1.0,"bend":0.0,"ch":3,"track":5},{"t":485.337,"dur":0.342,"note":51,"inst":"piano_v0_additive_0","vel":1.0,"bend":0.0,"ch":3,"track":5},{"t":485.337,"dur":0.171,"note":87,"inst":"piano_v0_additive_0","vel":1.0,"bend":0.0,"ch":7,"track":5},{"t":485.508,"dur":0.171,"note":85,"inst":"organ_v0_additive_1","vel":1.0,"bend":0.0,"ch":5,"track":5},{"t":485.679,"dur":0.342,"note":58,"inst":"organ_v0_additive_1","vel":1.0,"bend":0.0,"ch":10,"track":5},{"t":485.679,"dur":0.171,"note":83,"inst":"harpsichord_v0_additive_2","vel":1.0,"bend":0.0,"ch":3,"track":5},{"t":485.851,"dur":0.171,"note":80,"inst":"harpsichord_v0_additive_2","vel":1.0,"bend":0.0,"ch":0,"track":5},{"t":486.022,"dur":0.342,"note":51,"inst":"piano_v0_additive_0","vel":1.0,"bend":0.0,"ch":3,"track":5},{"t":486.022,"dur":0.171,"note":82,"inst":"organ_v0_additive_1","vel":1.0,"bend":0.0,"ch":2,"track":5},{"t":486.193,"dur":0.057,"note":82,"inst":"organ_v0_additive_1","vel":1.0,"bend":0.0,"ch":2,"track":5},{"t":486.25,"dur":0.057,"note":83,"inst":"harpsichord_v0_additive_2","vel":1.0,"bend":0.0,"ch":3,"track":5},{"t":486.307,"dur":0.057,"note":82,"inst":"organ_v0_additive_1","vel":1.0,"bend":0.0,"ch":2,"track":5},{"t":486.364,"dur":0.342,"note":52,"inst":"organ_v0_additive_1","vel":1.0,"bend":0.0,"ch":4,"track":5},{"t":486.364,"dur":0.171,"note":80,"inst":"harpsichord_v0_additive_2","vel":1.0,"bend":0.0,"ch":0,"track":5},{"t":486.535,"dur":0.171,"note":82,"inst":"organ_v0_additive_1","vel":1.0,"bend":0.0,"ch":2,"track":5},{"t":486.707,"dur":0.342,"note":47,"inst":"harpsichord_v0_additive_2","vel":1.0,"bend":0.0,"ch":15,"track":5},{"t":486.707,"dur":0.171,"note":85,"inst":"organ_v0_additive_1","vel":1.0,"bend":0.0,"ch":5,"track":5},{"t":486.878,"dur":0.171,"note":83,"inst":"harpsichord_v0_additive_2","vel":1.0,"bend":0.0,"ch":3,"track":5},{"t":487.049,"dur":0.342,"note":52,"inst":"organ_v0_additive_1","vel":1.0,"bend":0.0,"ch":4,"track":5},{"t":487.049,"dur":0.171,"note":82,"inst":"organ_v0_additive_1","vel":1.0,"bend":0.0,"ch":2,"track":5},{"t":487.22,"dur":0.171,"note":78,"inst":"piano_v0_additive_0","vel":1.0,"bend":0.0,"ch":14,"track":5},{"t":487.391,"dur":0.342,"note":51,"inst":"piano_v0_additive_0","vel":1.0,"bend":0.0,"ch":3,"track":5},{"t":487.391,"dur":0.171,"note":80,"inst":"harpsichord_v0_additive_2","vel":1.0,"bend":0.0,"ch":0,"track":5},{"t":487.563,"dur":0.057,"note":80,"inst":"harpsichord_v0_additive_2","vel":1.0,"bend":0.0,"ch":0,"track":5},{"t":487.62,"dur":0.057,"note":82,"inst":"organ_v0_additive_1","vel":1.0,"bend":0.0,"ch":2,"track":5},{"t":487.677,"dur":0.057,"note":80,"inst":"harpsichord_v0_additive_2","vel":1.0,"bend":0.0,"ch":0,"track":5},{"t":487.734,"dur":0.342,"note":49,"inst":"organ_v0_additive_1","vel":1.0,"bend":0.0,"ch":1,"track":5},{"t":487.734,"dur":0.171,"note":78,"inst":"piano_v0_additive_0","vel":1.0,"bend":0.0,"ch":14,"track":5},{"t":487.905,"dur":0.171,"note":82,"inst":"organ_v0_additive_1","vel":1.0,"bend":0.0,"ch":2,"track":5},{"t":488.076,"dur":0.342,"note":49,"inst":"organ_v0_additive_1","vel":1.0,"bend":0.0,"ch":1,"track":5},{"t":488.076,"dur":0.171,"note":80,"inst":"harpsichord_v0_additive_2","vel":1.0,"bend":0.0,"ch":0,"track":5},{"t":488.247,"dur":0.171,"note":76,"inst":"organ_v0_additive_1","vel":1.0,"bend":0.0,"ch":12,"track":5},{"t":488.419,"dur":0.342,"note":51,"inst":"piano_v0_additive_0","vel":1.0,"bend":0.0,"ch":3,"track":5},{"t":488.419,"dur":0.171,"note":75,"inst":"piano_v0_additive_0","vel":1.0,"bend":0.0,"ch":11,"track":5},{"t":488.59,"dur":0.171,"note":88,"inst":"organ_v0_additive_1","vel":1.0,"bend":0.0,"ch":8,"track":5},{"t":488.761,"dur":0.342,"note":51,"inst":"piano_v0_additive_0","vel":1.0,"bend":0.0,"ch":3,"track":5},{"t":488.761,"dur":0.171,"note":87,"inst":"piano_v0_additive_0","vel":1.0,"bend":0.0,"ch":7,"track":5},{"t":488.932,"dur":0.057,"note":76,"inst":"organ_v0_additive_1","vel":1.0,"bend":0.0,"ch":12,"track":5},{"t":488.989,"dur":0.057,"note":78,"inst":"piano_v0_additive_0","vel":1.0,"bend":0.0,"ch":14,"track":5},{"t":489.046,"dur":0.057,"note":76,"inst":"organ_v0_additive_1","vel":1.0,"bend":0.0,"ch":12,"track":5},{"t":489.103,"dur":0.342,"note":51,"inst":"piano_v0_additive_0","vel":1.0,"bend":0.0,"ch":3,"track":5},{"t":489.103,"dur":0.171,"note":75,"inst":"piano_v0_additive_0","vel":1.0,"bend":0.0,"ch":11,"track":5},{"t":489.274,"dur":0.171,"note":83,"inst":"harpsichord_v0_additive_2","vel":1.0,"bend":0.0,"ch":3,"track":5},{"t":489.446,"dur":0.342,"note":51,"inst":"piano_v0_additive_0","vel":1.0,"bend":0.0,"ch":3,"track":5},{"t":489.446,"dur":0.171,"note":82,"inst":"organ_v0_additive_1","vel":1.0,"bend":0.0,"ch":2,"track":5},{"t":489.617,"dur":0.171,"note":75,"inst":"piano_v0_additive_0","vel":1.0,"bend":0.0,"ch":11,"track":5},{"t":489.788,"dur":0.342,"note":56,"inst":"harpsichord_v0_additive_2","vel":1.0,"bend":0.0,"ch":8,"track":5},{"t":489.788,"dur":0.342,"note":80,"inst":"harpsichord_v0_additive_2","vel":1.0,"bend":0.0,"ch":0,"track":5},{"t":490.13,"dur":0.171,"note":92,"inst":"harpsichord_v0_additive_2","vel":1.0,"bend":0.0,"ch":12,"track":5},{"t":490.302,"dur":0.057,"note":92,"inst":"harpsichord_v0_additive_2","vel":1.0,"bend":0.0,"ch":12,"track":5},{"t":490.359,"dur":0.057,"note":94,"inst":"organ_v0_additive_1","vel":1.0,"bend":0.0,"ch":14,"track":5},{"t":490.416,"dur":0.057,"note":92,"inst":"harpsichord_v0_additive_2","vel":1.0,"bend":0.0,"ch":12,"track":5},{"t":490.473,"dur":0.342,"note":51,"inst":"piano_v0_additive_0","vel":1.0,"bend":0.0,"ch":3,"track":5},{"t":490.473,"dur":0.171,"note":90,"inst":"piano_v0_additive_0","vel":1.0,"bend":0.0,"ch":10,"track":5},{"t":490.644,"dur":0.171,"note":95,"inst":"harpsichord_v0_additive_2","vel":1.0,"bend":0.0,"ch":15,"track":5},{"t":490.815,"dur":0.342,"note":46,"inst":"organ_v0_additive_1","vel":1.0,"bend":0.0,"ch":14,"track":5},{"t":490.815,"dur":0.171,"note":94,"inst":"organ_v0_additive_1","vel":1.0,"bend":0.0,"ch":14,"track":5},{"t":490.986,"dur":0.057,"note":88,"inst":"organ_v0_additive_1","vel":1.0,"bend":0.0,"ch":8,"track":5},{"t":491.043,"dur":0.057,"note":90,"inst":"piano_v0_additive_0","vel":1.0,"bend":0.0,"ch":10,"track":5},{"t":491.1,"dur":0.057,"note":88,"inst":"organ_v0_additive_1","vel":1.0,"bend":0.0,"ch":8,"track":5},{"t":491.158,"dur":0.342,"note":51,"inst":"piano_v0_additive_0","vel":1.0,"bend":0.0,"ch":3,"track":5},{"t":491.158,"dur":0.171,"note":87,"inst":"piano_v0_additive_0","vel":1.0,"bend":0.0,"ch":7,"track":5},{"t":491.329,"dur":0.171,"note":92,"inst":"harpsichord_v0_additive_2","vel":1.0,"bend":0.0,"ch":12,"track":5},{"t":491.5,"dur":0.342,"note":46,"inst":"organ_v0_additive_1","vel":1.0,"bend":0.0,"ch":14,"track":5},{"t":491.5,"dur":0.171,"note":90,"inst":"piano_v0_additive_0","vel":1.0,"bend":0.0,"ch":10,"track":5},{"t":491.671,"dur":0.171,"note":87,"inst":"piano_v0_additive_0","vel":1.0,"bend":0.0,"ch":7,"track":5},{"t":491.842,"dur":0.342,"note":51,"inst":"piano_v0_additive_0","vel":1.0,"bend":0.0,"ch":3,"track":5},{"t":491.842,"dur":0.086,"note":82,"inst":"organ_v0_additive_1","vel":1.0,"bend":0.0,"ch":2,"track":5},{"t":491.928,"dur":0.086,"note":80,"inst":"harpsichord_v0_additive_2","vel":1.0,"bend":0.0,"ch":0,"track":5},{"t":492.014,"dur":0.086,"note":82,"inst":"organ_v0_additive_1","vel":1.0,"bend":0.0,"ch":2,"track":5},{"t":492.099,"dur":0.086,"note":83,"inst":"harpsichord_v0_additive_2","vel":1.0,"bend":0.0,"ch":3,"track":5},{"t":492.185,"dur":0.342,"note":46,"inst":"organ_v0_additive_1","vel":1.0,"bend":0.0,"ch":14,"track":5},{"t":492.185,"dur":0.086,"note":85,"inst":"organ_v0_additive_1","vel":1.0,"bend":0.0,"ch":5,"track":5},{"t":492.27,"dur":0.086,"note":87,"inst":"piano_v0_additive_0","vel":1.0,"bend":0.0,"ch":7,"track":5},{"t":492.356,"dur":0.086,"note":88,"inst":"organ_v0_additive_1","vel":1.0,"bend":0.0,"ch":8,"track":5},{"t":492.441,"dur":0.086,"note":90,"inst":"piano_v0_additive_0","vel":1.0,"bend":0.0,"ch":10,"track":5},{"t":492.527,"dur":0.342,"note":52,"inst":"organ_v0_additive_1","vel":1.0,"bend":0.0,"ch":4,"track":5},{"t":492.527,"dur":0.342,"note":92,"inst":"harpsichord_v0_additive_2","vel":1.0,"bend":0.0,"ch":12,"track":5},{"t":492.869,"dur":0.342,"note":46,"inst":"organ_v0_additive_1","vel":1.0,"bend":0.0,"ch":14,"track":5},{"t":493.041,"dur":0.057,"note":92,"inst":"harpsichord_v0_additive_2","vel":1.0,"bend":0.0,"ch":12,"track":5},{"t":493.098,"dur":0.057,"note":94,"inst":"organ_v0_additive_1","vel":1.0,"bend":0.0,"ch":14,"track":5},{"t":493.155,"dur":0.057,"note":92,"inst":"harpsichord_v0_additive_2","vel":1.0,"bend":0.0,"ch":12,"track":5},{"t":493.212,"dur":0.342,"note":52,"inst":"organ_v0_additive_1","vel":1.0,"bend":0.0,"ch":4,"track":5},{"t":493.212,"dur":0.171,"note":88,"inst":"organ_v0_additive_1","vel":1.0,"bend":0.0,"ch":8,"track":5},{"t":493.383,"dur":0.171,"note":95,"inst":"harpsichord_v0_additive_2","vel":1.0,"bend":0.0,"ch":15,"track":5},{"t":493.554,"dur":0.342,"note":46,"inst":"organ_v0_additive_1","vel":1.0,"bend":0.0,"ch":14,"track":5},{"t":493.554,"dur":0.171,"note":94,"inst":"organ_v0_additive_1","vel":1.0,"bend":0.0,"ch":14,"track":5},{"t":493.725,"dur":0.057,"note":88,"inst":"organ_v0_additive_1","vel":1.0,"bend":0.0,"ch":8,"track":5},{"t":493.782,"dur":0.057,"note":90,"inst":"piano_v0_additive_0","vel":1.0,"bend":0.0,"ch":10,"track":5},{"t":493.84,"dur":0.057,"note":88,"inst":"organ_v0_additive_1","vel":1.0,"bend":0.0,"ch":8,"track":5},{"t":493.897,"dur":0.342,"note":52,"inst":"organ_v0_additive_1","vel":1.0,"bend":0.0,"ch":4,"track":5},{"t":493.897,"dur":0.171,"note":85,"inst":"organ_v0_additive_1","vel":1.0,"bend":0.0,"ch":5,"track":5},{"t":494.068,"dur":0.171,"note":90,"inst":"piano_v0_additive_0","vel":1.0,"bend":0.0,"ch":10,"track":5},{"t":494.239,"dur":0.342,"note":46,"inst":"organ_v0_additive_1","vel":1.0,"bend":0.0,"ch":14,"track":5},{"t":494.239,"dur":0.171,"note":88,"inst":"organ_v0_additive_1","vel":1.0,"bend":0.0,"ch":8,"track":5},{"t":494.41,"dur":0.171,"note":85,"inst":"organ_v0_additive_1","vel":1.0,"bend":0.0,"ch":5,"track":5},{"t":494.581,"dur":0.342,"note":49,"inst":"organ_v0_additive_1","vel":1.0,"bend":0.0,"ch":1,"track":5},{"t":494.581,"dur":0.086,"note":82,"inst":"organ_v0_additive_1","vel":1.0,"bend":0.0,"ch":2,"track":5},{"t":494.667,"dur":0.086,"note":80,"inst":"harpsichord_v0_additive_2","vel":1.0,"bend":0.0,"ch":0,"track":5},{"t":494.753,"dur":0.086,"note":82,"inst":"organ_v0_additive_1","vel":1.0,"bend":0.0,"ch":2,"track":5},{"t":494.838,"dur":0.086,"note":83,"inst":"harpsichord_v0_additive_2","vel":1.0,"bend":0.0,"ch":3,"track":5},{"t":494.924,"dur":0.342,"note":46,"inst":"organ_v0_additive_1","vel":1.0,"bend":0.0,"ch":14,"track":5},{"t":494.924,"dur":0.086,"note":85,"inst":"organ_v0_additive_1","vel":1.0,"bend":0.0,"ch":5,"track":5},{"t":495.009,"dur":0.086,"note":87,"inst":"piano_v0_additive_0","vel":1.0,"bend":0.0,"ch":7,"track":5},{"t":495.095,"dur":0.086,"note":88,"inst":"organ_v0_additive_1","vel":1.0,"bend":0.0,"ch":8,"track":5},{"t":495.181,"dur":0.086,"note":90,"inst":"piano_v0_additive_0","vel":1.0,"bend":0.0,"ch":10,"track":5},{"t":495.266,"dur":0.342,"note":51,"inst":"piano_v0_additive_0","vel":1.0,"bend":0.0,"ch":3,"track":5},{"t":495.266,"dur":0.342,"note":90,"inst":"piano_v0_additive_0","vel":1.0,"bend":0.0,"ch":10,"track":5},{"t":495.609,"dur":0.342,"note":46,"inst":"organ_v0_additive_1","vel":1.0,"bend":0.0,"ch":14,"track":5},{"t":495.951,"dur":0.342,"note":51,"inst":"piano_v0_additive_0","vel":1.0,"bend":0.0,"ch":3,"track":5},{"t":495.951,"dur":0.171,"note":90,"inst":"piano_v0_additive_0","vel":1.0,"bend":0.0,"ch":10,"track":5},{"t":496.122,"dur":0.171,"note":95,"inst":"harpsichord_v0_additive_2","vel":1.0,"bend":0.0,"ch":15,"track":5},{"t":496.293,"dur":0.342,"note":46,"inst":"organ_v0_additive_1","vel":1.0,"bend":0.0,"ch":14,"track":5},{"t":496.293,"dur":0.171,"note":94,"inst":"organ_v0_additive_1","vel":1.0,"bend":0.0,"ch":14,"track":5},{"t":496.464,"dur":0.057,"note":88,"inst":"organ_v0_additive_1","vel":1.0,"bend":0.0,"ch":8,"track":5},{"t":496.522,"dur":0.057,"note":90,"inst":"piano_v0_additive_0","vel":1.0,"bend":0.0,"ch":10,"track":5},{"t":496.579,"dur":0.057,"note":88,"inst":"organ_v0_additive_1","vel":1.0,"bend":0.0,"ch":8,"track":5},{"t":496.636,"dur":0.342,"note":51,"inst":"piano_v0_additive_0","vel":1.0,"bend":0.0,"ch":3,"track":5},{"t":496.636,"dur":0.171,"note":87,"inst":"piano_v0_additive_0","vel":1.0,"bend":0.0,"ch":7,"track":5},{"t":496.807,"dur":0.171,"note":92,"inst":"harpsichord_v0_additive_2","vel":1.0,"bend":0.0,"ch":12,"track":5},{"t":496.978,"dur":0.342,"note":46,"inst":"organ_v0_additive_1","vel":1.0,"bend":0.0,"ch":14,"track":5},{"t":496.978,"dur":0.171,"note":90,"inst":"piano_v0_additive_0","vel":1.0,"bend":0.0,"ch":10,"track":5},{"t":497.149,"dur":0.171,"note":87,"inst":"piano_v0_additive_0","vel":1.0,"bend":0.0,"ch":7,"track":5},{"t":497.32,"dur":0.342,"note":51,"inst":"piano_v0_additive_0","vel":1.0,"bend":0.0,"ch":3,"track":5},{"t":497.32,"dur":0.086,"note":82,"inst":"organ_v0_additive_1","vel":1.0,"bend":0.0,"ch":2,"track":5},{"t":497.406,"dur":0.086,"note":83,"inst":"harpsichord_v0_additive_2","vel":1.0,"bend":0.0,"ch":3,"track":5},{"t":497.492,"dur":0.086,"note":85,"inst":"organ_v0_additive_1","vel":1.0,"bend":0.0,"ch":5,"track":5},{"t":497.577,"dur":0.086,"note":87,"inst":"piano_v0_additive_0","vel":1.0,"bend":0.0,"ch":7,"track":5},{"t":497.663,"dur":0.342,"note":46,"inst":"organ_v0_additive_1","vel":1.0,"bend":0.0,"ch":14,"track":5},{"t":497.663,"dur":0.086,"note":88,"inst":"organ_v0_additive_1","vel":1.0,"bend":0.0,"ch":8,"track":5},{"t":497.748,"dur":0.086,"note":90,"inst":"piano_v0_additive_0","vel":1.0,"bend":0.0,"ch":10,"track":5},{"t":497.834,"dur":0.086,"note":92,"inst":"harpsichord_v0_additive_2","vel":1.0,"bend":0.0,"ch":12,"track":5},{"t":497.92,"dur":0.086,"note":94,"inst":"organ_v0_additive_1","vel":1.0,"bend":0.0,"ch":14,"track":5},{"t":498.005,"dur":0.342,"note":56,"inst":"harpsichord_v0_additive_2","vel":1.0,"bend":0.0,"ch":8,"track":5},{"t":498.005,"dur":0.342,"note":95,"inst":"harpsichord_v0_additive_2","vel":1.0,"bend":0.0,"ch":15,"track":5},{"t":498.348,"dur":0.342,"note":56,"inst":"harpsichord_v0_additive_2","vel":1.0,"bend":0.0,"ch":8,"track":5},{"t":498.69,"dur":0.342,"note":56,"inst":"harpsichord_v0_additive_2","vel":1.0,"bend":0.0,"ch":8,"track":5},{"t":498.69,"dur":0.171,"note":83,"inst":"harpsichord_v0_additive_2","vel":1.0,"bend":0.0,"ch":3,"track":5},{"t":498.861,"dur":0.171,"note":90,"inst":"piano_v0_additive_0","vel":1.0,"bend":0.0,"ch":10,"track":5},{"t":499.032,"dur":0.342,"note":56,"inst":"harpsichord_v0_additive_2","vel":1.0,"bend":0.0,"ch":8,"track":5},{"t":499.032,"dur":0.171,"note":88,"inst":"organ_v0_additive_1","vel":1.0,"bend":0.0,"ch":8,"track":5},{"t":499.204,"dur":0.171,"note":83,"inst":"harpsichord_v0_additive_2","vel":1.0,"bend":0.0,"ch":3,"track":5},{"t":499.375,"dur":0.342,"note":58,"inst":"organ_v0_additive_1","vel":1.0,"bend":0.0,"ch":10,"track":5},{"t":499.375,"dur":0.171,"note":82,"inst":"organ_v0_additive_1","vel":1.0,"bend":0.0,"ch":2,"track":5},{"t":499.546,"dur":0.171,"note":88,"inst":"organ_v0_additive_1","vel":1.0,"bend":0.0,"ch":8,"track":5},{"t":499.717,"dur":0.342,"note":58,"inst":"organ_v0_additive_1","vel":1.0,"bend":0.0,"ch":10,"track":5},{"t":499.717,"dur":0.171,"note":87,"inst":"piano_v0_additive_0","vel":1.0,"bend":0.0,"ch":7,"track":5},{"t":499.888,"dur":0.171,"note":75,"inst":"piano_v0_additive_0","vel":1.0,"bend":0.0,"ch":11,"track":5},{"t":500.059,"dur":0.342,"note":58,"inst":"organ_v0_additive_1","vel":1.0,"bend":0.0,"ch":10,"track":5},{"t":500.059,"dur":0.171,"note":73,"inst":"organ_v0_additive_1","vel":1.0,"bend":0.0,"ch":9,"track":5},{"t":500.231,"dur":0.171,"note":83,"inst":"harpsichord_v0_additive_2","vel":1.0,"bend":0.0,"ch":3,"track":5},{"t":500.402,"dur":0.342,"note":58,"inst":"organ_v0_additive_1","vel":1.0,"bend":0.0,"ch":10,"track":5},{"t":500.402,"dur":0.171,"note":82,"inst":"organ_v0_additive_1","vel":1.0,"bend":0.0,"ch":2,"track":5},{"t":500.573,"dur":0.171,"note":73,"inst":"organ_v0_additive_1","vel":1.0,"bend":0.0,"ch":9,"track":5},{"t":500.744,"dur":0.342,"note":51,"inst":"piano_v0_additive_0","vel":1.0,"bend":0.0,"ch":3,"track":5},{"t":500.744,"dur":0.342,"note":75,"inst":"piano_v0_additive_0","vel":1.0,"bend":0.0,"ch":11,"track":5},{"t":647.675,"dur":0.673,"note":77,"inst":"harpsichord_v0_additive_2","vel":0.992,"bend":0.0,"ch":13,"track":5},{"t":647.675,"dur":0.673,"note":80,"inst":"harpsichord_v0_additive_2","vel":0.992,"bend":0.0,"ch":0,"track":5},{"t":647.675,"dur":0.673,"note":82,"inst":"organ_v0_additive_1","vel":0.992,"bend":0.0,"ch":2,"track":5},{"t":647.675,"dur":0.112,"note":87,"inst":"piano_v0_additive_0","vel":0.992,"bend":0.0,"ch":7,"track":5},{"t":647.787,"dur":0.056,"note":85,"inst":"organ_v0_additive_1","vel":0.992,"bend":0.0,"ch":5,"track":5},{"t":647.843,"dur":0.449,"note":89,"inst":"harpsichord_v0_additive_2","vel":0.992,"bend":0.0,"ch":9,"track":5},{"t":648.292,"dur":0.168,"note":89,"inst":"harpsichord_v0_additive_2","vel":0.992,"bend":0.0,"ch":9,"track":5},{"t":648.348,"dur":0.224,"note":82,"inst":"organ_v0_additive_1","vel":0.992,"bend":0.0,"ch":2,"track":5},{"t":648.461,"dur":0.112,"note":94,"inst":"organ_v0_additive_1","vel":0.992,"bend":0.0,"ch":14,"track":5},{"t":648.573,"dur":0.056,"note":61,"inst":"organ_v0_additive_1","vel":0.992,"bend":0.0,"ch":13,"track":5},{"t":648.573,"dur":0.056,"note":65,"inst":"harpsichord_v0_additive_2","vel":0.992,"bend":0.0,"ch":1,"track":5},{"t":648.573,"dur":0.224,"note":94,"inst":"organ_v0_additive_1","vel":0.992,"bend":0.0,"ch":14,"track":5},{"t":648.629,"dur":0.056,"note":70,"inst":"organ_v0_additive_1","vel":0.992,"bend":0.0,"ch":6,"track":5},{"t":648.685,"dur":0.056,"note":61,"inst":"organ_v0_additive_1","vel":0.992,"bend":0.0,"ch":13,"track":5},{"t":648.685,"dur":0.056,"note":65,"inst":"harpsichord_v0_additive_2","vel":0.992,"bend":0.0,"ch":1,"track":5},{"t":648.741,"dur":0.056,"note":70,"inst":"organ_v0_additive_1","vel":0.992,"bend":0.0,"ch":6,"track":5},{"t":648.797,"dur":0.056,"note":61,"inst":"organ_v0_additive_1","vel":0.992,"bend":0.0,"ch":13,"track":5},{"t":648.797,"dur":0.056,"note":65,"inst":"harpsichord_v0_additive_2","vel":0.992,"bend":0.0,"ch":1,"track":5},{"t":648.797,"dur":0.224,"note":82,"inst":"organ_v0_additive_1","vel":0.992,"bend":0.0,"ch":2,"track":5},{"t":648.797,"dur":0.168,"note":94,"inst":"organ_v0_additive_1","vel":0.992,"bend":0.0,"ch":14,"track":5},{"t":648.853,"dur":0.056,"note":70,"inst":"organ_v0_additive_1","vel":0.992,"bend":0.0,"ch":6,"track":5},{"t":648.909,"dur":0.056,"note":61,"inst":"organ_v0_additive_1","vel":0.992,"bend":0.0,"ch":13,"track":5},{"t":648.909,"dur":0.056,"note":65,"inst":"harpsichord_v0_additive_2","vel":0.992,"bend":0.0,"ch":1,"track":5},{"t":648.966,"dur":0.056,"note":70,"inst":"organ_v0_additive_1","vel":0.992,"bend":0.0,"ch":6,"track":5},{"t":648.966,"dur":0.056,"note":87,"inst":"piano_v0_additive_0","vel":0.992,"bend":0.0,"ch":7,"track":5},{"t":649.022,"dur":0.056,"note":61,"inst":"organ_v0_additive_1","vel":0.992,"bend":0.0,"ch":13,"track":5},{"t":649.022,"dur":0.056,"note":65,"inst":"harpsichord_v0_additive_2","vel":0.992,"bend":0.0,"ch":1,"track":5},{"t":649.022,"dur":0.224,"note":87,"inst":"piano_v0_additive_0","vel":0.992,"bend":0.0,"ch":7,"track":5},{"t":649.078,"dur":0.056,"note":70,"inst":"organ_v0_additive_1","vel":0.992,"bend":0.0,"ch":6,"track":5},{"t":649.134,"dur":0.056,"note":61,"inst":"organ_v0_additive_1","vel":0.992,"bend":0.0,"ch":13,"track":5},{"t":649.134,"dur":0.056,"note":65,"inst":"harpsichord_v0_additive_2","vel":0.992,"bend":0.0,"ch":1,"track":5},{"t":649.19,"dur":0.056,"note":70,"inst":"organ_v0_additive_1","vel":0.992,"bend":0.0,"ch":6,"track":5},{"t":649.246,"dur":0.056,"note":63,"inst":"piano_v0_additive_0","vel":0.992,"bend":0.0,"ch":15,"track":5},{"t":649.246,"dur":0.056,"note":67,"inst":"organ_v0_additive_1","vel":0.992,"bend":0.0,"ch":3,"track":5},{"t":649.246,"dur":0.224,"note":80,"inst":"harpsichord_v0_additive_2","vel":0.992,"bend":0.0,"ch":0,"track":5},{"t":649.246,"dur":0.168,"note":85,"inst":"organ_v0_additive_1","vel":0.992,"bend":0.0,"ch":5,"track":5},{"t":649.302,"dur":0.056,"note":70,"inst":"organ_v0_additive_1","vel":0.992,"bend":0.0,"ch":6,"track":5},{"t":649.358,"dur":0.056,"note":63,"inst":"piano_v0_additive_0","vel":0.992,"bend":0.0,"ch":15,"track":5},{"t":649.358,"dur":0.056,"note":67,"inst":"organ_v0_additive_1","vel":0.992,"bend":0.0,"ch":3,"track":5},{"t":649.414,"dur":0.056,"note":70,"inst":"organ_v0_additive_1","vel":0.992,"bend":0.0,"ch":6,"track":5},{"t":649.414,"dur":0.056,"note":89,"inst":"harpsichord_v0_additive_2","vel":0.992,"bend":0.0,"ch":9,"track":5},{"t":649.471,"dur":0.056,"note":65,"inst":"harpsichord_v0_additive_2","vel":0.992,"bend":0.0,"ch":1,"track":5},{"t":649.471,"dur":0.056,"note":68,"inst":"harpsichord_v0_additive_2","vel":0.992,"bend":0.0,"ch":4,"track":5},{"t":649.471,"dur":0.112,"note":89,"inst":"harpsichord_v0_additive_2","vel":0.992,"bend":0.0,"ch":9,"track":5},{"t":649.527,"dur":0.056,"note":70,"inst":"organ_v0_additive_1","vel":0.992,"bend":0.0,"ch":6,"track":5},{"t":649.583,"dur":0.056,"note":65,"inst":"harpsichord_v0_additive_2","vel":0.992,"bend":0.0,"ch":1,"track":5},{"t":649.583,"dur":0.056,"note":68,"inst":"harpsichord_v0_additive_2","vel":0.992,"bend":0.0,"ch":4,"track":5},{"t":649.583,"dur":0.449,"note":89,"inst":"harpsichord_v0_additive_2","vel":0.992,"bend":0.0,"ch":9,"track":5},{"t":649.639,"dur":0.056,"note":70,"inst":"organ_v0_additive_1","vel":0.992,"bend":0.0,"ch":6,"track":5},{"t":649.695,"dur":0.056,"note":65,"inst":"harpsichord_v0_additive_2","vel":0.992,"bend":0.0,"ch":1,"track":5},{"t":649.695,"dur":0.056,"note":68,"inst":"harpsichord_v0_additive_2","vel":0.992,"bend":0.0,"ch":4,"track":5},{"t":649.695,"dur":0.224,"note":77,"inst":"harpsichord_v0_additive_2","vel":0.992,"bend":0.0,"ch":13,"track":5},{"t":649.751,"dur":0.056,"note":70,"inst":"organ_v0_additive_1","vel":0.992,"bend":0.0,"ch":6,"track":5},{"t":649.807,"dur":0.056,"note":65,"inst":"harpsichord_v0_additive_2","vel":0.992,"bend":0.0,"ch":1,"track":5},{"t":649.807,"dur":0.056,"note":68,"inst":"harpsichord_v0_additive_2","vel":0.992,"bend":0.0,"ch":4,"track":5},{"t":649.863,"dur":0.056,"note":70,"inst":"organ_v0_additive_1","vel":0.992,"bend":0.0,"ch":6,"track":5},{"t":649.92,"dur":0.056,"note":65,"inst":"harpsichord_v0_additive_2","vel":0.992,"bend":0.0,"ch":1,"track":5},{"t":649.92,"dur":0.056,"note":68,"inst":"harpsichord_v0_additive_2","vel":0.992,"bend":0.0,"ch":4,"track":5},{"t":649.92,"dur":0.112,"note":77,"inst":"harpsichord_v0_additive_2","vel":0.992,"bend":0.0,"ch":13,"track":5},{"t":649.976,"dur":0.056,"note":70,"inst":"organ_v0_additive_1","vel":0.992,"bend":0.0,"ch":6,"track":5},{"t":650.032,"dur":0.056,"note":63,"inst":"piano_v0_additive_0","vel":0.992,"bend":0.0,"ch":15,"track":5},{"t":650.032,"dur":0.056,"note":67,"inst":"organ_v0_additive_1","vel":0.992,"bend":0.0,"ch":3,"track":5},{"t":650.032,"dur":0.112,"note":82,"inst":"organ_v0_additive_1","vel":0.992,"bend":0.0,"ch":2,"track":5},{"t":650.088,"dur":0.056,"note":70,"inst":"organ_v0_additive_1","vel":0.992,"bend":0.0,"ch":6,"track":5},{"t":650.144,"dur":0.056,"note":61,"inst":"organ_v0_additive_1","vel":0.992,"bend":0.0,"ch":13,"track":5},{"t":650.144,"dur":0.056,"note":65,"inst":"harpsichord_v0_additive_2","vel":0.992,"bend":0.0,"ch":1,"track":5},{"t":650.144,"dur":0.112,"note":82,"inst":"organ_v0_additive_1","vel":0.992,"bend":0.0,"ch":2,"track":5},{"t":650.2,"dur":0.056,"note":70,"inst":"organ_v0_additive_1","vel":0.992,"bend":0.0,"ch":6,"track":5},{"t":650.256,"dur":0.056,"note":61,"inst":"organ_v0_additive_1","vel":0.992,"bend":0.0,"ch":13,"track":5},{"t":650.256,"dur":0.056,"note":65,"inst":"harpsichord_v0_additive_2","vel":0.992,"bend":0.0,"ch":1,"track":5},{"t":650.256,"dur":0.112,"note":82,"inst":"organ_v0_additive_1","vel":0.992,"bend":0.0,"ch":2,"track":5},{"t":650.312,"dur":0.056,"note":70,"inst":"organ_v0_additive_1","vel":0.992,"bend":0.0,"ch":6,"track":5},{"t":650.368,"dur":0.056,"note":61,"inst":"organ_v0_additive_1","vel":0.992,"bend":0.0,"ch":13,"track":5},{"t":650.368,"dur":0.056,"note":65,"inst":"harpsichord_v0_additive_2","vel":0.992,"bend":0.0,"ch":1,"track":5},{"t":650.368,"dur":0.224,"note":85,"inst":"organ_v0_additive_1","vel":0.992,"bend":0.0,"ch":5,"track":5},{"t":650.425,"dur":0.056,"note":70,"inst":"organ_v0_additive_1","vel":0.992,"bend":0.0,"ch":6,"track":5},{"t":650.481,"dur":0.056,"note":61,"inst":"organ_v0_additive_1","vel":0.992,"bend":0.0,"ch":13,"track":5},{"t":650.481,"dur":0.056,"note":65,"inst":"harpsichord_v0_additive_2","vel":0.992,"bend":0.0,"ch":1,"track":5},{"t":650.537,"dur":0.056,"note":70,"inst":"organ_v0_additive_1","vel":0.992,"bend":0.0,"ch":6,"track":5},{"t":650.593,"dur":0.056,"note":61,"inst":"organ_v0_additive_1","vel":0.992,"bend":0.0,"ch":13,"track":5},{"t":650.593,"dur":0.056,"note":65,"inst":"harpsichord_v0_additive_2","vel":0.992,"bend":0.0,"ch":1,"track":5},{"t":650.593,"dur":6.285,"note":84,"inst":"piano_v0_additive_0","vel":0.992,"bend":0.0,"ch":4,"track":5},{"t":650.593,"dur":0.168,"note":85,"inst":"organ_v0_additive_1","vel":0.992,"bend":0.0,"ch":5,"track":5},{"t":650.649,"dur":0.056,"note":70,"inst":"organ_v0_additive_1","vel":0.992,"bend":0.0,"ch":6,"track":5},{"t":650.705,"dur":0.056,"note":61,"inst":"organ_v0_additive_1","vel":0.992,"bend":0.0,"ch":13,"track":5},{"t":650.705,"dur":0.056,"note":65,"inst":"harpsichord_v0_additive_2","vel":0.992,"bend":0.0,"ch":1,"track":5},{"t":650.761,"dur":0.056,"note":70,"inst":"organ_v0_additive_1","vel":0.992,"bend":0.0,"ch":6,"track":5},{"t":650.761,"dur":0.056,"note":87,"inst":"piano_v0_additive_0","vel":0.992,"bend":0.0,"ch":7,"track":5},{"t":650.817,"dur":0.056,"note":61,"inst":"organ_v0_additive_1","vel":0.992,"bend":0.0,"ch":13,"track":5},{"t":650.817,"dur":0.056,"note":65,"inst":"harpsichord_v0_additive_2","vel":0.992,"bend":0.0,"ch":1,"track":5},{"t":650.817,"dur":0.281,"note":87,"inst":"piano_v0_additive_0","vel":0.992,"bend":0.0,"ch":7,"track":5},{"t":650.874,"dur":0.056,"note":70,"inst":"organ_v0_additive_1","vel":0.992,"bend":0.0,"ch":6,"track":5},{"t":650.93,"dur":0.056,"note":61,"inst":"organ_v0_additive_1","vel":0.992,"bend":0.0,"ch":13,"track":5},{"t":650.93,"dur":0.056,"note":65,"inst":"harpsichord_v0_additive_2","vel":0.992,"bend":0.0,"ch":1,"track":5},{"t":650.986,"dur":0.056,"note":70,"inst":"organ_v0_additive_1","vel":0.992,"bend":0.0,"ch":6,"track":5},{"t":651.042,"dur":0.056,"note":63,"inst":"piano_v0_additive_0","vel":0.992,"bend":0.0,"ch":15,"track":5},{"t":651.042,"dur":0.056,"note":67,"inst":"organ_v0_additive_1","vel":0.992,"bend":0.0,"ch":3,"track":5},{"t":651.098,"dur":0.056,"note":70,"inst":"organ_v0_additive_1","vel":0.992,"bend":0.0,"ch":6,"track":5},{"t":651.098,"dur":0.056,"note":87,"inst":"piano_v0_additive_0","vel":0.992,"bend":0.0,"ch":7,"track":5},{"t":651.154,"dur":0.056,"note":63,"inst":"piano_v0_additive_0","vel":0.992,"bend":0.0,"ch":15,"track":5},{"t":651.154,"dur":0.056,"note":67,"inst":"organ_v0_additive_1","vel":0.992,"bend":0.0,"ch":3,"track":5},{"t":651.154,"dur":0.056,"note":97,"inst":"organ_v0_additive_1","vel":0.992,"bend":0.0,"ch":1,"track":5},{"t":651.21,"dur":0.056,"note":70,"inst":"organ_v0_additive_1","vel":0.992,"bend":0.0,"ch":6,"track":5},{"t":651.21,"dur":0.056,"note":94,"inst":"organ_v0_additive_1","vel":0.992,"bend":0.0,"ch":14,"track":5},{"t":651.266,"dur":0.056,"note":65,"inst":"harpsichord_v0_additive_2","vel":0.992,"bend":0.0,"ch":1,"track":5},{"t":651.266,"dur":0.056,"note":68,"inst":"harpsichord_v0_additive_2","vel":0.992,"bend":0.0,"ch":4,"track":5},{"t":651.266,"dur":0.337,"note":94,"inst":"organ_v0_additive_1","vel":0.992,"bend":0.0,"ch":14,"track":5},{"t":651.322,"dur":0.056,"note":70,"inst":"organ_v0_additive_1","vel":0.992,"bend":0.0,"ch":6,"track":5},{"t":651.379,"dur":0.056,"note":65,"inst":"harpsichord_v0_additive_2","vel":0.992,"bend":0.0,"ch":1,"track":5},{"t":651.379,"dur":0.056,"note":68,"inst":"harpsichord_v0_additive_2","vel":0.992,"bend":0.0,"ch":4,"track":5},{"t":651.435,"dur":0.056,"note":70,"inst":"organ_v0_additive_1","vel":0.992,"bend":0.0,"ch":6,"track":5},{"t":651.491,"dur":0.056,"note":65,"inst":"harpsichord_v0_additive_2","vel":0.992,"bend":0.0,"ch":1,"track":5},{"t":651.491,"dur":0.056,"note":68,"inst":"harpsichord_v0_additive_2","vel":0.992,"bend":0.0,"ch":4,"track":5},{"t":651.547,"dur":0.056,"note":70,"inst":"organ_v0_additive_1","vel":0.992,"bend":0.0,"ch":6,"track":5},{"t":651.603,"dur":0.056,"note":65,"inst":"harpsichord_v0_additive_2","vel":0.992,"bend":0.0,"ch":1,"track":5},{"t":651.603,"dur":0.056,"note":68,"inst":"harpsichord_v0_additive_2","vel":0.992,"bend":0.0,"ch":4,"track":5},{"t":651.603,"dur":0.056,"note":97,"inst":"organ_v0_additive_1","vel":0.992,"bend":0.0,"ch":1,"track":5},{"t":651.659,"dur":0.056,"note":70,"inst":"organ_v0_additive_1","vel":0.992,"bend":0.0,"ch":6,"track":5},{"t":651.659,"dur":0.056,"note":94,"inst":"organ_v0_additive_1","vel":0.992,"bend":0.0,"ch":14,"track":5},{"t":651.715,"dur":0.056,"note":65,"inst":"harpsichord_v0_additive_2","vel":0.992,"bend":0.0,"ch":1,"track":5},{"t":651.715,"dur":0.056,"note":68,"inst":"harpsichord_v0_additive_2","vel":0.992,"bend":0.0,"ch":4,"track":5},{"t":651.771,"dur":0.056,"note":70,"inst":"organ_v0_additive_1","vel":0.992,"bend":0.0,"ch":6,"track":5},{"t":651.828,"dur":0.056,"note":63,"inst":"piano_v0_additive_0","vel":0.992,"bend":0.0,"ch":15,"track":5},{"t":651.828,"dur":0.056,"note":65,"inst":"harpsichord_v0_additive_2","vel":0.992,"bend":0.0,"ch":1,"track":5},{"t":651.884,"dur":0.056,"note":70,"inst":"organ_v0_additive_1","vel":0.992,"bend":0.0,"ch":6,"track":5},{"t":651.94,"dur":0.056,"note":61,"inst":"organ_v0_additive_1","vel":0.992,"bend":0.0,"ch":13,"track":5},{"t":651.94,"dur":0.056,"note":65,"inst":"harpsichord_v0_additive_2","vel":0.992,"bend":0.0,"ch":1,"track":5},{"t":651.94,"dur":0.112,"note":75,"inst":"piano_v0_additive_0","vel":0.992,"bend":0.0,"ch":11,"track":5},{"t":651.996,"dur":0.056,"note":70,"inst":"organ_v0_additive_1","vel":0.992,"bend":0.0,"ch":6,"track":5},{"t":652.052,"dur":0.056,"note":61,"inst":"organ_v0_additive_1","vel":0.992,"bend":0.0,"ch":13,"track":5},{"t":652.052,"dur":0.056,"note":65,"inst":"harpsichord_v0_additive_2","vel":0.992,"bend":0.0,"ch":1,"track":5},{"t":652.052,"dur":0.112,"note":75,"inst":"piano_v0_additive_0","vel":0.992,"bend":0.0,"ch":11,"track":5},{"t":652.108,"dur":0.056,"note":70,"inst":"organ_v0_additive_1","vel":0.992,"bend":0.0,"ch":6,"track":5},{"t":652.164,"dur":0.056,"note":63,"inst":"piano_v0_additive_0","vel":0.992,"bend":0.0,"ch":15,"track":5},{"t":652.164,"dur":0.673,"note":65,"inst":"harpsichord_v0_additive_2","vel":0.992,"bend":0.0,"ch":1,"track":5},{"t":652.164,"dur":0.056,"note":65,"inst":"harpsichord_v0_additive_2","vel":0.992,"bend":0.0,"ch":1,"track":5},{"t":652.164,"dur":0.673,"note":68,"inst":"harpsichord_v0_additive_2","vel":0.992,"bend":0.0,"ch":4,"track":5},{"t":652.164,"dur":0.673,"note":70,"inst":"organ_v0_additive_1","vel":0.992,"bend":0.0,"ch":6,"track":5},{"t":652.164,"dur":0.168,"note":75,"inst":"piano_v0_additive_0","vel":0.992,"bend":0.0,"ch":11,"track":5},{"t":652.22,"dur":0.056,"note":70,"inst":"organ_v0_additive_1","vel":1.0,"bend":0.0,"ch":6,"track":5},{"t":652.276,"dur":0.056,"note":73,"inst":"organ_v0_additive_1","vel":1.0,"bend":0.0,"ch":9,"track":5},{"t":652.333,"dur":0.056,"note":73,"inst":"organ_v0_additive_1","vel":0.992,"bend":0.0,"ch":9,"track":5},{"t":652.333,"dur":0.056,"note":75,"inst":"piano_v0_additive_0","vel":1.0,"bend":0.0,"ch":11,"track":5},{"t":652.389,"dur":0.056,"note":70,"inst":"organ_v0_additive_1","vel":1.0,"bend":0.0,"ch":6,"track":5},{"t":652.389,"dur":0.449,"note":77,"inst":"harpsichord_v0_additive_2","vel":0.992,"bend":0.0,"ch":13,"track":5},{"t":652.445,"dur":0.056,"note":65,"inst":"harpsichord_v0_additive_2","vel":1.0,"bend":0.0,"ch":1,"track":5},{"t":652.501,"dur":0.056,"note":65,"inst":"harpsichord_v0_additive_2","vel":0.992,"bend":0.0,"ch":1,"track":5},{"t":652.557,"dur":0.056,"note":63,"inst":"piano_v0_additive_0","vel":1.0,"bend":0.0,"ch":15,"track":5},{"t":652.613,"dur":0.056,"note":58,"inst":"organ_v0_additive_1","vel":0.992,"bend":0.0,"ch":10,"track":5},{"t":652.613,"dur":0.056,"note":61,"inst":"organ_v0_additive_1","vel":0.992,"bend":0.0,"ch":13,"track":5},{"t":652.669,"dur":0.056,"note":65,"inst":"harpsichord_v0_additive_2","vel":1.0,"bend":0.0,"ch":1,"track":5},{"t":652.725,"dur":0.056,"note":68,"inst":"harpsichord_v0_additive_2","vel":1.0,"bend":0.0,"ch":4,"track":5},{"t":652.781,"dur":0.056,"note":58,"inst":"organ_v0_additive_1","vel":1.0,"bend":0.0,"ch":10,"track":5},{"t":652.838,"dur":0.056,"note":58,"inst":"organ_v0_additive_1","vel":1.0,"bend":0.0,"ch":10,"track":5},{"t":652.838,"dur":0.224,"note":65,"inst":"harpsichord_v0_additive_2","vel":0.992,"bend":0.0,"ch":1,"track":5},{"t":652.838,"dur":0.224,"note":70,"inst":"organ_v0_additive_1","vel":0.992,"bend":0.0,"ch":6,"track":5},{"t":652.838,"dur":0.168,"note":77,"inst":"harpsichord_v0_additive_2","vel":0.992,"bend":0.0,"ch":13,"track":5},{"t":652.894,"dur":0.056,"note":63,"inst":"piano_v0_additive_0","vel":1.0,"bend":0.0,"ch":15,"track":5},{"t":652.95,"dur":0.056,"note":65,"inst":"harpsichord_v0_additive_2","vel":1.0,"bend":0.0,"ch":1,"track":5},{"t":653.006,"dur":0.056,"note":58,"inst":"organ_v0_additive_1","vel":1.0,"bend":0.0,"ch":10,"track":5},{"t":653.006,"dur":0.056,"note":75,"inst":"piano_v0_additive_0","vel":0.992,"bend":0.0,"ch":11,"track":5},{"t":653.062,"dur":0.056,"note":58,"inst":"organ_v0_additive_1","vel":0.992,"bend":0.0,"ch":10,"track":5},{"t":653.062,"dur":0.056,"note":63,"inst":"piano_v0_additive_0","vel":0.992,"bend":0.0,"ch":15,"track":5},{"t":653.062,"dur":0.224,"note":68,"inst":"harpsichord_v0_additive_2","vel":0.992,"bend":0.0,"ch":4,"track":5},{"t":653.062,"dur":0.224,"note":70,"inst":"organ_v0_additive_1","vel":0.992,"bend":0.0,"ch":6,"track":5},{"t":653.062,"dur":0.168,"note":75,"inst":"piano_v0_additive_0","vel":0.992,"bend":0.0,"ch":11,"track":5},{"t":653.118,"dur":0.056,"note":65,"inst":"harpsichord_v0_additive_2","vel":0.992,"bend":0.0,"ch":1,"track":5},{"t":653.174,"dur":0.056,"note":70,"inst":"organ_v0_additive_1","vel":0.992,"bend":0.0,"ch":6,"track":5},{"t":653.23,"dur":0.056,"note":70,"inst":"organ_v0_additive_1","vel":0.992,"bend":0.0,"ch":6,"track":5},{"t":653.23,"dur":0.056,"note":73,"inst":"organ_v0_additive_1","vel":0.992,"bend":0.0,"ch":9,"track":5},{"t":653.287,"dur":0.224,"note":65,"inst":"harpsichord_v0_additive_2","vel":0.992,"bend":0.0,"ch":1,"track":5},{"t":653.287,"dur":0.056,"note":65,"inst":"harpsichord_v0_additive_2","vel":0.992,"bend":0.0,"ch":1,"track":5},{"t":653.287,"dur":0.224,"note":70,"inst":"organ_v0_additive_1","vel":0.992,"bend":0.0,"ch":6,"track":5},{"t":653.287,"dur":0.168,"note":77,"inst":"harpsichord_v0_additive_2","vel":0.992,"bend":0.0,"ch":13,"track":5},{"t":653.343,"dur":0.056,"note":63,"inst":"piano_v0_additive_0","vel":0.992,"bend":0.0,"ch":15,"track":5},{"t":653.399,"dur":0.056,"note":61,"inst":"organ_v0_additive_1","vel":0.992,"bend":0.0,"ch":13,"track":5},{"t":653.455,"dur":0.056,"note":58,"inst":"organ_v0_additive_1","vel":0.992,"bend":0.0,"ch":10,"track":5},{"t":653.455,"dur":0.056,"note":75,"inst":"piano_v0_additive_0","vel":0.992,"bend":0.0,"ch":11,"track":5},{"t":653.511,"dur":0.056,"note":51,"inst":"piano_v0_additive_0","vel":0.992,"bend":0.0,"ch":3,"track":5},{"t":653.511,"dur":0.056,"note":55,"inst":"organ_v0_additive_1","vel":0.992,"bend":0.0,"ch":7,"track":5},{"t":653.511,"dur":0.224,"note":65,"inst":"harpsichord_v0_additive_2","vel":0.992,"bend":0.0,"ch":1,"track":5},{"t":653.511,"dur":0.224,"note":70,"inst":"organ_v0_additive_1","vel":0.992,"bend":0.0,"ch":6,"track":5},{"t":653.511,"dur":0.168,"note":77,"inst":"harpsichord_v0_additive_2","vel":0.992,"bend":0.0,"ch":13,"track":5},{"t":653.567,"dur":0.056,"note":58,"inst":"organ_v0_additive_1","vel":0.992,"bend":0.0,"ch":10,"track":5},{"t":653.623,"dur":0.056,"note":63,"inst":"piano_v0_additive_0","vel":0.992,"bend":0.0,"ch":15,"track":5},{"t":653.679,"dur":0.056,"note":55,"inst":"organ_v0_additive_1","vel":0.992,"bend":0.0,"ch":7,"track":5},{"t":653.679,"dur":0.056,"note":77,"inst":"harpsichord_v0_additive_2","vel":0.496,"bend":0.0,"ch":13,"track":5},{"t":653.735,"dur":0.056,"note":56,"inst":"harpsichord_v0_additive_2","vel":0.992,"bend":0.0,"ch":8,"track":5},{"t":653.735,"dur":0.056,"note":73,"inst":"organ_v0_additive_1","vel":0.496,"bend":0.0,"ch":9,"track":5},{"t":653.792,"dur":0.056,"note":58,"inst":"organ_v0_additive_1","vel":0.992,"bend":0.0,"ch":10,"track":5},{"t":653.792,"dur":0.056,"note":77,"inst":"harpsichord_v0_additive_2","vel":0.496,"bend":0.0,"ch":13,"track":5},{"t":653.848,"dur":0.056,"note":63,"inst":"piano_v0_additive_0","vel":0.992,"bend":0.0,"ch":15,"track":5},{"t":653.848,"dur":0.056,"note":80,"inst":"harpsichord_v0_additive_2","vel":0.496,"bend":0.0,"ch":0,"track":5},{"t":653.904,"dur":0.056,"note":56,"inst":"harpsichord_v0_additive_2","vel":0.992,"bend":0.0,"ch":8,"track":5},{"t":653.904,"dur":0.056,"note":82,"inst":"organ_v0_additive_1","vel":0.496,"bend":0.0,"ch":2,"track":5},{"t":653.96,"dur":0.056,"note":82,"inst":"organ_v0_additive_1","vel":0.496,"bend":0.0,"ch":2,"track":5},{"t":654.016,"dur":0.056,"note":80,"inst":"harpsichord_v0_additive_2","vel":0.496,"bend":0.0,"ch":0,"track":5},{"t":654.072,"dur":0.056,"note":77,"inst":"harpsichord_v0_additive_2","vel":0.496,"bend":0.0,"ch":13,"track":5},{"t":654.128,"dur":0.056,"note":77,"inst":"harpsichord_v0_additive_2","vel":0.496,"bend":0.0,"ch":13,"track":5},{"t":654.184,"dur":0.056,"note":80,"inst":"harpsichord_v0_additive_2","vel":0.496,"bend":0.0,"ch":0,"track":5},{"t":654.241,"dur":0.056,"note":85,"inst":"organ_v0_additive_1","vel":0.496,"bend":0.0,"ch":5,"track":5},{"t":654.297,"dur":0.056,"note":89,"inst":"harpsichord_v0_additive_2","vel":0.496,"bend":0.0,"ch":9,"track":5},{"t":654.353,"dur":0.056,"note":92,"inst":"harpsichord_v0_additive_2","vel":0.496,"bend":0.0,"ch":12,"track":5},{"t":654.409,"dur":0.056,"note":89,"inst":"harpsichord_v0_additive_2","vel":0.496,"bend":0.0,"ch":9,"track":5},{"t":654.465,"dur":0.056,"note":89,"inst":"harpsichord_v0_additive_2","vel":0.496,"bend":0.0,"ch":9,"track":5},{"t":654.521,"dur":0.056,"note":87,"inst":"piano_v0_additive_0","vel":0.496,"bend":0.0,"ch":7,"track":5},{"t":654.577,"dur":0.056,"note":85,"inst":"organ_v0_additive_1","vel":0.496,"bend":0.0,"ch":5,"track":5},{"t":654.633,"dur":0.056,"note":89,"inst":"harpsichord_v0_additive_2","vel":0.496,"bend":0.0,"ch":9,"track":5},{"t":654.689,"dur":0.056,"note":92,"inst":"harpsichord_v0_additive_2","vel":0.496,"bend":0.0,"ch":12,"track":5},{"t":654.746,"dur":0.056,"note":94,"inst":"organ_v0_additive_1","vel":0.496,"bend":0.0,"ch":14,"track":5},{"t":654.802,"dur":0.056,"note":94,"inst":"organ_v0_additive_1","vel":0.496,"bend":0.0,"ch":14,"track":5},{"t":654.858,"dur":0.056,"note":94,"inst":"organ_v0_additive_1","vel":0.496,"bend":0.0,"ch":14,"track":5},{"t":654.914,"dur":0.056,"note":92,"inst":"harpsichord_v0_additive_2","vel":0.496,"bend":0.0,"ch":12,"track":5},{"t":654.97,"dur":0.056,"note":89,"inst":"harpsichord_v0_additive_2","vel":0.496,"bend":0.0,"ch":9,"track":5},{"t":655.026,"dur":0.056,"note":89,"inst":"harpsichord_v0_additive_2","vel":0.496,"bend":0.0,"ch":9,"track":5},{"t":655.082,"dur":0.056,"note":92,"inst":"harpsichord_v0_additive_2","vel":0.496,"bend":0.0,"ch":12,"track":5},{"t":655.138,"dur":0.056,"note":89,"inst":"harpsichord_v0_additive_2","vel":0.496,"bend":0.0,"ch":9,"track":5},{"t":655.195,"dur":0.056,"note":87,"inst":"piano_v0_additive_0","vel":0.496,"bend":0.0,"ch":7,"track":5},{"t":655.251,"dur":0.056,"note":85,"inst":"organ_v0_additive_1","vel":0.496,"bend":0.0,"ch":5,"track":5},{"t":655.307,"dur":0.056,"note":92,"inst":"harpsichord_v0_additive_2","vel":0.496,"bend":0.0,"ch":12,"track":5},{"t":655.363,"dur":0.056,"note":89,"inst":"harpsichord_v0_additive_2","vel":0.496,"bend":0.0,"ch":9,"track":5},{"t":655.419,"dur":0.056,"note":87,"inst":"piano_v0_additive_0","vel":0.496,"bend":0.0,"ch":7,"track":5},{"t":655.475,"dur":0.056,"note":85,"inst":"organ_v0_additive_1","vel":0.496,"bend":0.0,"ch":5,"track":5},{"t":655.531,"dur":0.056,"note":89,"inst":"harpsichord_v0_additive_2","vel":0.496,"bend":0.0,"ch":9,"track":5},{"t":655.531,"dur":0.056,"note":101,"inst":"harpsichord_v0_additive_2","vel":0.496,"bend":0.0,"ch":5,"track":5},{"t":657.023,"dur":0.178,"note":74,"inst":"celesta_v0_additive_3","vel":1.0,"bend":0.0,"ch":10,"track":6},{"t":657.201,"dur":0.355,"note":55,"inst":"harpsichord_v0_additive_2","vel":1.0,"bend":0.0,"ch":7,"track":6},{"t":657.201,"dur":0.178,"note":62,"inst":"celesta_v0_additive_3","vel":1.0,"bend":0.0,"ch":14,"track":6},{"t":657.378,"dur":0.178,"note":86,"inst":"celesta_v0_additive_3","vel":1.0,"bend":0.0,"ch":6,"track":6},{"t":657.556,"dur":0.355,"note":38,"inst":"celesta_v0_additive_3","vel":1.0,"bend":0.0,"ch":6,"track":6},{"t":657.556,"dur":0.178,"note":74,"inst":"celesta_v0_additive_3","vel":1.0,"bend":0.0,"ch":10,"track":6},{"t":657.733,"dur":0.059,"note":74,"inst":"celesta_v0_additive_3","vel":1.0,"bend":0.0,"ch":10,"track":6},{"t":657.792,"dur":0.059,"note":77,"inst":"celesta_v0_additive_3","vel":1.0,"bend":0.0,"ch":13,"track":6},{"t":657.852,"dur":0.059,"note":74,"inst":"celesta_v0_additive_3","vel":1.0,"bend":0.0,"ch":10,"track":6},{"t":657.911,"dur":0.355,"note":55,"inst":"harpsichord_v0_additive_2","vel":1.0,"bend":0.0,"ch":7,"track":6},{"t":657.911,"dur":0.178,"note":62,"inst":"celesta_v0_additive_3","vel":1.0,"bend":0.0,"ch":14,"track":6},{"t":658.088,"dur":0.178,"note":74,"inst":"celesta_v0_additive_3","vel":1.0,"bend":0.0,"ch":10,"track":6},{"t":658.266,"dur":0.355,"note":38,"inst":"celesta_v0_additive_3","vel":1.0,"bend":0.0,"ch":6,"track":6},{"t":658.266,"dur":0.178,"note":83,"inst":"celesta_v0_additive_3","vel":1.0,"bend":0.0,"ch":3,"track":6},{"t":658.443,"dur":0.059,"note":71,"inst":"celesta_v0_additive_3","vel":1.0,"bend":0.0,"ch":7,"track":6},{"t":658.503,"dur":0.059,"note":62,"inst":"celesta_v0_additive_3","vel":1.0,"bend":0.0,"ch":14,"track":6},{"t":658.562,"dur":0.059,"note":71,"inst":"celesta_v0_additive_3","vel":1.0,"bend":0.0,"ch":7,"track":6},{"t":658.621,"dur":0.355,"note":53,"inst":"celesta_v0_additive_3","vel":1.0,"bend":0.0,"ch":5,"track":6},{"t":658.621,"dur":0.178,"note":69,"inst":"piano_v0_additive_0","vel":1.0,"bend":0.0,"ch":5,"track":6},{"t":658.798,"dur":0.178,"note":83,"inst":"celesta_v0_additive_3","vel":1.0,"bend":0.0,"ch":3,"track":6},{"t":658.976,"dur":0.355,"note":53,"inst":"celesta_v0_additive_3","vel":1.0,"bend":0.0,"ch":5,"track":6},{"t":658.976,"dur":0.178,"note":81,"inst":"piano_v0_additive_0","vel":1.0,"bend":0.0,"ch":1,"track":6},{"t":659.154,"dur":0.059,"note":81,"inst":"piano_v0_additive_0","vel":1.0,"bend":0.0,"ch":1,"track":6},{"t":659.213,"dur":0.059,"note":83,"inst":"celesta_v0_additive_3","vel":1.0,"bend":0.0,"ch":3,"track":6},{"t":659.272,"dur":0.059,"note":81,"inst":"piano_v0_additive_0","vel":1.0,"bend":0.0,"ch":1,"track":6},{"t":659.331,"dur":0.355,"note":53,"inst":"celesta_v0_additive_3","vel":1.0,"bend":0.0,"ch":5,"track":6},{"t":659.331,"dur":0.178,"note":81,"inst":"piano_v0_additive_0","vel":1.0,"bend":0.0,"ch":1,"track":6},{"t":659.509,"dur":0.178,"note":81,"inst":"piano_v0_additive_0","vel":1.0,"bend":0.0,"ch":1,"track":6},{"t":659.686,"dur":0.355,"note":38,"inst":"celesta_v0_additive_3","vel":1.0,"bend":0.0,"ch":6,"track":6},{"t":659.686,"dur":0.178,"note":74,"inst":"celesta_v0_additive_3","vel":1.0,"bend":0.0,"ch":10,"track":6},{"t":659.864,"dur":0.178,"note":83,"inst":"celesta_v0_additive_3","vel":1.0,"bend":0.0,"ch":3,"track":6},{"t":660.041,"dur":0.355,"note":55,"inst":"harpsichord_v0_additive_2","vel":1.0,"bend":0.0,"ch":7,"track":6},{"t":660.041,"dur":0.178,"note":81,"inst":"piano_v0_additive_0","vel":1.0,"bend":0.0,"ch":1,"track":6},{"t":660.219,"dur":0.178,"note":79,"inst":"harpsichord_v0_additive_2","vel":1.0,"bend":0.0,"ch":15,"track":6},{"t":660.396,"dur":0.355,"note":38,"inst":"celesta_v0_additive_3","vel":1.0,"bend":0.0,"ch":6,"track":6},{"t":660.396,"dur":0.178,"note":79,"inst":"harpsichord_v0_additive_2","vel":1.0,"bend":0.0,"ch":15,"track":6},{"t":660.574,"dur":0.059,"note":79,"inst":"harpsichord_v0_additive_2","vel":1.0,"bend":0.0,"ch":15,"track":6},{"t":660.633,"dur":0.059,"note":81,"inst":"piano_v0_additive_0","vel":1.0,"bend":0.0,"ch":1,"track":6},{"t":660.692,"dur":0.059,"note":79,"inst":"harpsichord_v0_additive_2","vel":1.0,"bend":0.0,"ch":15,"track":6},{"t":660.751,"dur":0.355,"note":50,"inst":"celesta_v0_additive_3","vel":1.0,"bend":0.0,"ch":2,"track":6},{"t":660.751,"dur":0.178,"note":79,"inst":"harpsichord_v0_additive_2","vel":1.0,"bend":0.0,"ch":15,"track":6},{"t":660.929,"dur":0.178,"note":79,"inst":"harpsichord_v0_additive_2","vel":1.0,"bend":0.0,"ch":15,"track":6},{"t":661.106,"dur":0.355,"note":45,"inst":"piano_v0_additive_0","vel":1.0,"bend":0.0,"ch":13,"track":6},{"t":661.106,"dur":0.178,"note":83,"inst":"celesta_v0_additive_3","vel":1.0,"bend":0.0,"ch":3,"track":6},{"t":661.284,"dur":0.178,"note":81,"inst":"piano_v0_additive_0","vel":1.0,"bend":0.0,"ch":1,"track":6},{"t":661.461,"dur":0.355,"note":50,"inst":"celesta_v0_additive_3","vel":1.0,"bend":0.0,"ch":2,"track":6},{"t":661.461,"dur":0.178,"note":79,"inst":"harpsichord_v0_additive_2","vel":1.0,"bend":0.0,"ch":15,"track":6},{"t":661.639,"dur":0.178,"note":77,"inst":"celesta_v0_additive_3","vel":1.0,"bend":0.0,"ch":13,"track":6},{"t":661.817,"dur":0.355,"note":38,"inst":"celesta_v0_additive_3","vel":1.0,"bend":0.0,"ch":6,"track":6},{"t":661.817,"dur":0.178,"note":77,"inst":"celesta_v0_additive_3","vel":1.0,"bend":0.0,"ch":13,"track":6},{"t":661.994,"dur":0.059,"note":77,"inst":"celesta_v0_additive_3","vel":1.0,"bend":0.0,"ch":13,"track":6},{"t":662.053,"dur":0.059,"note":79,"inst":"harpsichord_v0_additive_2","vel":1.0,"bend":0.0,"ch":15,"track":6},{"t":662.112,"dur":0.059,"note":77,"inst":"celesta_v0_additive_3","vel":1.0,"bend":0.0,"ch":13,"track":6},{"t":662.172,"dur":0.355,"note":47,"inst":"celesta_v0_additive_3","vel":1.0,"bend":0.0,"ch":15,"track":6},{"t":662.172,"dur":0.178,"note":77,"inst":"celesta_v0_additive_3","vel":1.0,"bend":0.0,"ch":13,"track":6},{"t":662.349,"dur":0.178,"note":79,"inst":"harpsichord_v0_additive_2","vel":1.0,"bend":0.0,"ch":15,"track":6},{"t":662.527,"dur":0.355,"note":48,"inst":"piano_v0_additive_0","vel":1.0,"bend":0.0,"ch":0,"track":6},{"t":662.527,"dur":0.178,"note":77,"inst":"celesta_v0_additive_3","vel":1.0,"bend":0.0,"ch":13,"track":6},{"t":662.704,"dur":0.178,"note":74,"inst":"celesta_v0_additive_3","vel":1.0,"bend":0.0,"ch":10,"track":6},{"t":662.882,"dur":0.355,"note":38,"inst":"celesta_v0_additive_3","vel":1.0,"bend":0.0,"ch":6,"track":6},{"t":662.882,"dur":0.178,"note":62,"inst":"celesta_v0_additive_3","vel":1.0,"bend":0.0,"ch":14,"track":6},{"t":663.059,"dur":0.178,"note":86,"inst":"celesta_v0_additive_3","vel":1.0,"bend":0.0,"ch":6,"track":6},{"t":663.237,"dur":0.355,"note":38,"inst":"celesta_v0_additive_3","vel":1.0,"bend":0.0,"ch":6,"track":6},{"t":663.237,"dur":0.178,"note":74,"inst":"celesta_v0_additive_3","vel":1.0,"bend":0.0,"ch":10,"track":6},{"t":663.414,"dur":0.059,"note":74,"inst":"celesta_v0_additive_3","vel":1.0,"bend":0.0,"ch":10,"track":6},{"t":663.473,"dur":0.059,"note":77,"inst":"celesta_v0_additive_3","vel":1.0,"bend":0.0,"ch":13,"track":6},{"t":663.533,"dur":0.059,"note":74,"inst":"celesta_v0_additive_3","vel":1.0,"bend":0.0,"ch":10,"track":6},{"t":663.592,"dur":0.355,"note":38,"inst":"celesta_v0_additive_3","vel":1.0,"bend":0.0,"ch":6,"track":6},{"t":663.592,"dur":0.178,"note":62,"inst":"celesta_v0_additive_3","vel":1.0,"bend":0.0,"ch":14,"track":6},{"t":663.769,"dur":0.178,"note":81,"inst":"piano_v0_additive_0","vel":1.0,"bend":0.0,"ch":1,"track":6},{"t":663.947,"dur":0.355,"note":38,"inst":"celesta_v0_additive_3","vel":1.0,"bend":0.0,"ch":6,"track":6},{"t":663.947,"dur":0.178,"note":79,"inst":"harpsichord_v0_additive_2","vel":1.0,"bend":0.0,"ch":15,"track":6},{"t":664.124,"dur":0.178,"note":62,"inst":"celesta_v0_additive_3","vel":1.0,"bend":0.0,"ch":14,"track":6},{"t":664.302,"dur":0.355,"note":53,"inst":"celesta_v0_additive_3","vel":1.0,"bend":0.0,"ch":5,"track":6},{"t":664.302,"dur":0.355,"note":77,"inst":"celesta_v0_additive_3","vel":1.0,"bend":0.0,"ch":13,"track":6},{"t":664.657,"dur":0.178,"note":89,"inst":"celesta_v0_additive_3","vel":1.0,"bend":0.0,"ch":9,"track":6},{"t":664.835,"dur":0.059,"note":89,"inst":"celesta_v0_additive_3","vel":1.0,"bend":0.0,"ch":9,"track":6},{"t":664.894,"dur":0.059,"note":91,"inst":"harpsichord_v0_additive_2","vel":1.0,"bend":0.0,"ch":11,"track":6},{"t":664.953,"dur":0.059,"note":89,"inst":"celesta_v0_additive_3","vel":1.0,"bend":0.0,"ch":9,"track":6},{"t":665.012,"dur":0.355,"note":38,"inst":"celesta_v0_additive_3","vel":1.0,"bend":0.0,"ch":6,"track":6},{"t":665.012,"dur":0.178,"note":89,"inst":"celesta_v0_additive_3","vel":1.0,"bend":0.0,"ch":9,"track":6},{"t":665.19,"dur":0.178,"note":93,"inst":"piano_v0_additive_0","vel":1.0,"bend":0.0,"ch":13,"track":6},{"t":665.367,"dur":0.355,"note":43,"inst":"harpsichord_v0_additive_2","vel":1.0,"bend":0.0,"ch":11,"track":6},{"t":665.367,"dur":0.178,"note":91,"inst":"harpsichord_v0_additive_2","vel":1.0,"bend":0.0,"ch":11,"track":6},{"t":665.545,"dur":0.059,"note":86,"inst":"celesta_v0_additive_3","vel":1.0,"bend":0.0,"ch":6,"track":6},{"t":665.604,"dur":0.059,"note":89,"inst":"celesta_v0_additive_3","vel":1.0,"bend":0.0,"ch":9,"track":6},{"t":665.663,"dur":0.059,"note":86,"inst":"celesta_v0_additive_3","vel":1.0,"bend":0.0,"ch":6,"track":6},{"t":665.722,"dur":0.355,"note":38,"inst":"celesta_v0_additive_3","vel":1.0,"bend":0.0,"ch":6,"track":6},{"t":665.722,"dur":0.178,"note":74,"inst":"celesta_v0_additive_3","vel":1.0,"bend":0.0,"ch":10,"track":6},{"t":665.9,"dur":0.178,"note":89,"inst":"celesta_v0_additive_3","vel":1.0,"bend":0.0,"ch":9,"track":6},{"t":666.077,"dur":0.355,"note":43,"inst":"harpsichord_v0_additive_2","vel":1.0,"bend":0.0,"ch":11,"track":6},{"t":666.077,"dur":0.178,"note":89,"inst":"celesta_v0_additive_3","vel":1.0,"bend":0.0,"ch":9,"track":6},{"t":666.255,"dur":0.178,"note":74,"inst":"celesta_v0_additive_3","vel":1.0,"bend":0.0,"ch":10,"track":6},{"t":666.432,"dur":0.355,"note":38,"inst":"celesta_v0_additive_3","vel":1.0,"bend":0.0,"ch":6,"track":6},{"t":666.432,"dur":0.089,"note":79,"inst":"harpsichord_v0_additive_2","vel":1.0,"bend":0.0,"ch":15,"track":6},{"t":666.521,"dur":0.089,"note":77,"inst":"celesta_v0_additive_3","vel":1.0,"bend":0.0,"ch":13,"track":6},{"t":666.61,"dur":0.089,"note":79,"inst":"harpsichord_v0_additive_2","vel":1.0,"bend":0.0,"ch":15,"track":6},{"t":666.699,"dur":0.089,"note":81,"inst":"piano_v0_additive_0","vel":1.0,"bend":0.0,"ch":1,"track":6},{"t":666.787,"dur":0.355,"note":43,"inst":"harpsichord_v0_additive_2","vel":1.0,"bend":0.0,"ch":11,"track":6},{"t":666.787,"dur":0.089,"note":84,"inst":"piano_v0_additive_0","vel":1.0,"bend":0.0,"ch":4,"track":6},{"t":666.876,"dur":0.089,"note":74,"inst":"celesta_v0_additive_3","vel":1.0,"bend":0.0,"ch":10,"track":6},{"t":666.965,"dur":0.089,"note":86,"inst":"celesta_v0_additive_3","vel":1.0,"bend":0.0,"ch":6,"track":6},{"t":667.054,"dur":0.089,"note":89,"inst":"celesta_v0_additive_3","vel":1.0,"bend":0.0,"ch":9,"track":6},{"t":667.142,"dur":0.355,"note":50,"inst":"celesta_v0_additive_3","vel":1.0,"bend":0.0,"ch":2,"track":6},{"t":667.142,"dur":0.355,"note":89,"inst":"celesta_v0_additive_3","vel":1.0,"bend":0.0,"ch":9,"track":6},{"t":667.497,"dur":0.355,"note":43,"inst":"harpsichord_v0_additive_2","vel":1.0,"bend":0.0,"ch":11,"track":6},{"t":667.675,"dur":0.059,"note":89,"inst":"celesta_v0_additive_3","vel":1.0,"bend":0.0,"ch":9,"track":6},{"t":667.734,"dur":0.059,"note":91,"inst":"harpsichord_v0_additive_2","vel":1.0,"bend":0.0,"ch":11,"track":6},{"t":667.793,"dur":0.059,"note":89,"inst":"celesta_v0_additive_3","vel":1.0,"bend":0.0,"ch":9,"track":6},{"t":667.853,"dur":0.355,"note":50,"inst":"celesta_v0_additive_3","vel":1.0,"bend":0.0,"ch":2,"track":6},{"t":667.853,"dur":0.178,"note":86,"inst":"celesta_v0_additive_3","vel":1.0,"bend":0.0,"ch":6,"track":6},{"t":668.03,"dur":0.178,"note":93,"inst":"piano_v0_additive_0","vel":1.0,"bend":0.0,"ch":13,"track":6},{"t":668.208,"dur":0.355,"note":43,"inst":"harpsichord_v0_additive_2","vel":1.0,"bend":0.0,"ch":11,"track":6},{"t":668.208,"dur":0.178,"note":91,"inst":"harpsichord_v0_additive_2","vel":1.0,"bend":0.0,"ch":11,"track":6},{"t":668.385,"dur":0.059,"note":86,"inst":"celesta_v0_additive_3","vel":1.0,"bend":0.0,"ch":6,"track":6},{"t":668.444,"dur":0.059,"note":89,"inst":"celesta_v0_additive_3","vel":1.0,"bend":0.0,"ch":9,"track":6},{"t":668.503,"dur":0.059,"note":86,"inst":"celesta_v0_additive_3","vel":1.0,"bend":0.0,"ch":6,"track":6},{"t":668.563,"dur":0.355,"note":50,"inst":"celesta_v0_additive_3","vel":1.0,"bend":0.0,"ch":2,"track":6},{"t":668.563,"dur":0.178,"note":84,"inst":"piano_v0_additive_0","vel":1.0,"bend":0.0,"ch":4,"track":6},{"t":699.056,"dur":0.181,"note":41,"inst":"celesta_v0_additive_3","vel":0.528,"bend":0.0,"ch":9,"track":6},{"t":699.237,"dur":0.181,"note":53,"inst":"celesta_v0_additive_3","vel":0.677,"bend":0.0,"ch":5,"track":6},{"t":699.418,"dur":0.181,"note":41,"inst":"celesta_v0_additive_3","vel":0.512,"bend":0.0,"ch":9,"track":6},{"t":699.599,"dur":0.181,"note":53,"inst":"celesta_v0_additive_3","vel":0.669,"bend":0.0,"ch":5,"track":6},{"t":699.78,"dur":0.181,"note":41,"inst":"celesta_v0_additive_3","vel":0.535,"bend":0.0,"ch":9,"track":6},{"t":699.961,"dur":0.181,"note":53,"inst":"celesta_v0_additive_3","vel":0.638,"bend":0.0,"ch":5,"track":6},{"t":700.142,"dur":0.181,"note":41,"inst":"celesta_v0_additive_3","vel":0.512,"bend":0.0,"ch":9,"track":6},{"t":700.142,"dur":2.895,"note":65,"inst":"celesta_v0_additive_3","vel":0.52,"bend":0.0,"ch":1,"track":6},{"t":700.323,"dur":0.181,"note":53,"inst":"celesta_v0_additive_3","vel":0.654,"bend":0.0,"ch":5,"track":6},{"t":700.504,"dur":0.181,"note":41,"inst":"celesta_v0_additive_3","vel":0.535,"bend":0.0,"ch":9,"track":6},{"t":700.685,"dur":0.181,"note":53,"inst":"celesta_v0_additive_3","vel":0.693,"bend":0.0,"ch":5,"track":6},{"t":700.866,"dur":0.181,"note":41,"inst":"celesta_v0_additive_3","vel":0.496,"bend":0.0,"ch":9,"track":6},{"t":701.047,"dur":0.181,"note":53,"inst":"celesta_v0_additive_3","vel":0.669,"bend":0.0,"ch":5,"track":6},{"t":701.228,"dur":0.181,"note":41,"inst":"celesta_v0_additive_3","vel":0.535,"bend":0.0,"ch":9,"track":6},{"t":701.409,"dur":0.181,"note":53,"inst":"celesta_v0_additive_3","vel":0.685,"bend":0.0,"ch":5,"track":6},{"t":701.59,"dur":0.181,"note":41,"inst":"celesta_v0_additive_3","vel":0.528,"bend":0.0,"ch":9,"track":6},{"t":701.77,"dur":0.181,"note":53,"inst":"celesta_v0_additive_3","vel":0.669,"bend":0.0,"ch":5,"track":6},{"t":701.951,"dur":0.181,"note":41,"inst":"celesta_v0_additive_3","vel":0.543,"bend":0.0,"ch":9,"track":6},{"t":702.132,"dur":0.181,"note":53,"inst":"celesta_v0_additive_3","vel":0.646,"bend":0.0,"ch":5,"track":6},{"t":702.313,"dur":0.181,"note":41,"inst":"celesta_v0_additive_3","vel":0.543,"bend":0.0,"ch":9,"track":6},{"t":702.494,"dur":0.181,"note":53,"inst":"celesta_v0_additive_3","vel":0.693,"bend":0.0,"ch":5,"track":6},{"t":702.675,"dur":0.181,"note":41,"inst":"celesta_v0_additive_3","vel":0.535,"bend":0.0,"ch":9,"track":6},{"t":702.856,"dur":0.181,"note":53,"inst":"celesta_v0_additive_3","vel":0.646,"bend":0.0,"ch":5,"track":6},{"t":703.037,"dur":0.181,"note":41,"inst":"celesta_v0_additive_3","vel":0.535,"bend":0.0,"ch":9,"track":6},{"t":703.037,"dur":2.895,"note":61,"inst":"harpsichord_v0_additive_2","vel":0.701,"bend":0.0,"ch":13,"track":6},{"t":703.218,"dur":0.181,"note":53,"inst":"celesta_v0_additive_3","vel":0.646,"bend":0.0,"ch":5,"track":6},{"t":703.399,"dur":0.181,"note":41,"inst":"celesta_v0_additive_3","vel":0.559,"bend":0.0,"ch":9,"track":6},{"t":703.58,"dur":0.181,"note":53,"inst":"celesta_v0_additive_3","vel":0.677,"bend":0.0,"ch":5,"track":6},{"t":703.761,"dur":0.181,"note":41,"inst":"celesta_v0_additive_3","vel":0.535,"bend":0.0,"ch":9,"track":6},{"t":703.942,"dur":0.181,"note":53,"inst":"celesta_v0_additive_3","vel":0.701,"bend":0.0,"ch":5,"track":6},{"t":704.123,"dur":0.181,"note":41,"inst":"celesta_v0_additive_3","vel":0.543,"bend":0.0,"ch":9,"track":6},{"t":704.304,"dur":0.181,"note":53,"inst":"celesta_v0_additive_3","vel":0.709,"bend":0.0,"ch":5,"track":6},{"t":704.485,"dur":0.181,"note":41,"inst":"celesta_v0_additive_3","vel":0.496,"bend":0.0,"ch":9,"track":6},{"t":704.666,"dur":0.181,"note":53,"inst":"celesta_v0_additive_3","vel":0.693,"bend":0.0,"ch":5,"track":6},{"t":704.847,"dur":0.181,"note":41,"inst":"celesta_v0_additive_3","vel":0.504,"bend":0.0,"ch":9,"track":6},{"t":705.028,"dur":0.181,"note":53,"inst":"celesta_v0_additive_3","vel":0.669,"bend":0.0,"ch":5,"track":6},{"t":705.209,"dur":0.181,"note":41,"inst":"celesta_v0_additive_3","vel":0.559,"bend":0.0,"ch":9,"track":6},{"t":705.39,"dur":0.181,"note":53,"inst":"celesta_v0_additive_3","vel":0.669,"bend":0.0,"ch":5,"track":6},{"t":705.571,"dur":0.181,"note":41,"inst":"celesta_v0_additive_3","vel":0.488,"bend":0.0,"ch":9,"track":6},{"t":705.752,"dur":0.181,"note":53,"inst":"celesta_v0_additive_3","vel":0.646,"bend":0.0,"ch":5,"track":6},{"t":705.932,"dur":0.181,"note":41,"inst":"celesta_v0_additive_3","vel":0.528,"bend":0.0,"ch":9,"track":6},{"t":705.932,"dur":2.171,"note":77,"inst":"celesta_v0_additive_3","vel":0.685,"bend":0.0,"ch":13,"track":6},{"t":706.113,"dur":0.181,"note":53,"inst":"celesta_v0_additive_3","vel":0.669,"bend":0.0,"ch":5,"track":6},{"t":706.294,"dur":0.181,"note":41,"inst":"celesta_v0_additive_3","vel":0.543,"bend":0.0,"ch":9,"track":6},{"t":706.475,"dur":0.181,"note":53,"inst":"celesta_v0_additive_3","vel":0.638,"bend":0.0,"ch":5,"track":6},{"t":706.656,"dur":0.181,"note":41,"inst":"celesta_v0_additive_3","vel":0.528,"bend":0.0,"ch":9,"track":6},{"t":706.837,"dur":0.181,"note":53,"inst":"celesta_v0_additive_3","vel":0.685,"bend":0.0,"ch":5,"track":6},{"t":707.018,"dur":0.181,"note":41,"inst":"celesta_v0_additive_3","vel":0.535,"bend":0.0,"ch":9,"track":6},{"t":707.199,"dur":0.181,"note":53,"inst":"celesta_v0_additive_3","vel":0.654,"bend":0.0,"ch":5,"track":6},{"t":707.38,"dur":0.181,"note":41,"inst":"celesta_v0_additive_3","vel":0.543,"bend":0.0,"ch":9,"track":6},{"t":707.561,"dur":0.181,"note":53,"inst":"celesta_v0_additive_3","vel":0.646,"bend":0.0,"ch":5,"track":6},{"t":707.742,"dur":0.181,"note":41,"inst":"celesta_v0_additive_3","vel":0.535,"bend":0.0,"ch":9,"track":6},{"t":707.923,"dur":0.181,"note":53,"inst":"celesta_v0_additive_3","vel":0.661,"bend":0.0,"ch":5,"track":6},{"t":708.104,"dur":0.181,"note":41,"inst":"celesta_v0_additive_3","vel":0.528,"bend":0.0,"ch":9,"track":6},{"t":708.285,"dur":0.181,"note":53,"inst":"celesta_v0_additive_3","vel":0.646,"bend":0.0,"ch":5,"track":6},{"t":708.466,"dur":0.181,"note":41,"inst":"celesta_v0_additive_3","vel":0.512,"bend":0.0,"ch":9,"track":6},{"t":708.466,"dur":0.362,"note":69,"inst":"piano_v0_additive_0","vel":0.551,"bend":0.0,"ch":5,"track":6},{"t":708.466,"dur":0.362,"note":61,"inst":"harpsichord_v0_additive_2","vel":0.551,"bend":0.0,"ch":13,"track":6},{"t":708.466,"dur":0.362,"note":77,"inst":"celesta_v0_additive_3","vel":0.551,"bend":0.0,"ch":13,"track":6},{"t":708.647,"dur":0.181,"note":53,"inst":"celesta_v0_additive_3","vel":0.669,"bend":0.0,"ch":5,"track":6},{"t":708.828,"dur":0.181,"note":41,"inst":"celesta_v0_additive_3","vel":0.559,"bend":0.0,"ch":9,"track":6},{"t":708.828,"dur":5.791,"note":67,"inst":"harpsichord_v0_additive_2","vel":0.575,"bend":0.0,"ch":3,"track":6},{"t":708.828,"dur":5.791,"note":61,"inst":"harpsichord_v0_additive_2","vel":0.575,"bend":0.0,"ch":13,"track":6},{"t":708.828,"dur":5.791,"note":77,"inst":"celesta_v0_additive_3","vel":0.575,"bend":0.0,"ch":13,"track":6},{"t":709.009,"dur":0.181,"note":53,"inst":"celesta_v0_additive_3","vel":0.685,"bend":0.0,"ch":5,"track":6},{"t":709.19,"dur":0.181,"note":41,"inst":"celesta_v0_additive_3","vel":0.535,"bend":0.0,"ch":9,"track":6},{"t":709.371,"dur":0.181,"note":53,"inst":"celesta_v0_additive_3","vel":0.677,"bend":0.0,"ch":5,"track":6},{"t":709.552,"dur":0.181,"note":41,"inst":"celesta_v0_additive_3","vel":0.52,"bend":0.0,"ch":9,"track":6},{"t":709.733,"dur":0.181,"note":53,"inst":"celesta_v0_additive_3","vel":0.661,"bend":0.0,"ch":5,"track":6},{"t":709.914,"dur":0.181,"note":41,"inst":"celesta_v0_additive_3","vel":0.512,"bend":0.0,"ch":9,"track":6},{"t":710.095,"dur":0.181,"note":53,"inst":"celesta_v0_additive_3","vel":0.677,"bend":0.0,"ch":5,"track":6},{"t":710.275,"dur":0.181,"note":41,"inst":"celesta_v0_additive_3","vel":0.551,"bend":0.0,"ch":9,"track":6},{"t":710.456,"dur":0.181,"note":53,"inst":"celesta_v0_additive_3","vel":0.677,"bend":0.0,"ch":5,"track":6},{"t":710.637,"dur":0.181,"note":41,"inst":"celesta_v0_additive_3","vel":0.504,"bend":0.0,"ch":9,"track":6},{"t":710.818,"dur":0.181,"note":53,"inst":"celesta_v0_additive_3","vel":0.685,"bend":0.0,"ch":5,"track":6},{"t":710.999,"dur":0.181,"note":41,"inst":"celesta_v0_additive_3","vel":0.488,"bend":0.0,"ch":9,"track":6},{"t":711.18,"dur":0.181,"note":53,"inst":"celesta_v0_additive_3","vel":0.693,"bend":0.0,"ch":5,"track":6},{"t":711.361,"dur":0.181,"note":41,"inst":"celesta_v0_additive_3","vel":0.512,"bend":0.0,"ch":9,"track":6},{"t":711.542,"dur":0.181,"note":53,"inst":"celesta_v0_additive_3","vel":0.661,"bend":0.0,"ch":5,"track":6},{"t":711.723,"dur":0.362,"note":41,"inst":"celesta_v0_additive_3","vel":0.598,"bend":0.0,"ch":9,"track":6},{"t":711.723,"dur":0.362,"note":53,"inst":"celesta_v0_additive_3","vel":0.598,"bend":0.0,"ch":5,"track":6},{"t":712.085,"dur":0.362,"note":25,"inst":"harpsichord_v0_additive_2","vel":0.559,"bend":0.0,"ch":9,"track":6},{"t":712.085,"dur":0.362,"note":37,"inst":"harpsichord_v0_additive_2","vel":0.559,"bend":0.0,"ch":5,"track":6},{"t":712.447,"dur":0.362,"note":41,"inst":"celesta_v0_additive_3","vel":0.638,"bend":0.0,"ch":9,"track":6},{"t":712.447,"dur":0.362,"note":53,"inst":"celesta_v0_additive_3","vel":0.638,"bend":0.0,"ch":5,"track":6},{"t":712.809,"dur":0.362,"note":25,"inst":"harpsichord_v0_additive_2","vel":0.559,"bend":0.0,"ch":9,"track":6},{"t":712.809,"dur":0.362,"note":37,"inst":"harpsichord_v0_additive_2","vel":0.559,"bend":0.0,"ch":5,"track":6},{"t":713.171,"dur":0.362,"note":41,"inst":"celesta_v0_additive_3","vel":0.654,"bend":0.0,"ch":9,"track":6},{"t":713.171,"dur":0.362,"note":53,"inst":"celesta_v0_additive_3","vel":0.654,"bend":0.0,"ch":5,"track":6},{"t":713.533,"dur":0.362,"note":25,"inst":"harpsichord_v0_additive_2","vel":0.559,"bend":0.0,"ch":9,"track":6},{"t":713.533,"dur":0.362,"note":37,"inst":"harpsichord_v0_additive_2","vel":0.559,"bend":0.0,"ch":5,"track":6},{"t":713.895,"dur":0.362,"note":41,"inst":"celesta_v0_additive_3","vel":0.622,"bend":0.0,"ch":9,"track":6},{"t":713.895,"dur":0.362,"note":53,"inst":"celesta_v0_additive_3","vel":0.622,"bend":0.0,"ch":5,"track":6},{"t":714.257,"dur":0.362,"note":25,"inst":"harpsichord_v0_additive_2","vel":0.567,"bend":0.0,"ch":9,"track":6},{"t":714.257,"dur":0.362,"note":37,"inst":"harpsichord_v0_additive_2","vel":0.567,"bend":0.0,"ch":5,"track":6},{"t":714.618,"dur":0.181,"note":41,"inst":"celesta_v0_additive_3","vel":0.543,"bend":0.0,"ch":9,"track":6},{"t":714.618,"dur":2.895,"note":65,"inst":"celesta_v0_additive_3","vel":0.433,"bend":0.0,"ch":1,"track":6},{"t":714.799,"dur":0.181,"note":53,"inst":"celesta_v0_additive_3","vel":0.677,"bend":0.0,"ch":5,"track":6},{"t":714.98,"dur":0.181,"note":41,"inst":"celesta_v0_additive_3","vel":0.535,"bend":0.0,"ch":9,"track":6},{"t":715.161,"dur":0.181,"note":53,"inst":"celesta_v0_additive_3","vel":0.646,"bend":0.0,"ch":5,"track":6},{"t":715.342,"dur":0.181,"note":41,"inst":"celesta_v0_additive_3","vel":0.543,"bend":0.0,"ch":9,"track":6},{"t":715.523,"dur":0.181,"note":53,"inst":"celesta_v0_additive_3","vel":0.646,"bend":0.0,"ch":5,"track":6},{"t":715.704,"dur":0.181,"note":41,"inst":"celesta_v0_additive_3","vel":0.535,"bend":0.0,"ch":9,"track":6},{"t":715.885,"dur":0.181,"note":53,"inst":"celesta_v0_additive_3","vel":0.669,"bend":0.0,"ch":5,"track":6},{"t":716.066,"dur":0.181,"note":41,"inst":"celesta_v0_additive_3","vel":0.496,"bend":0.0,"ch":9,"track":6},{"t":716.247,"dur":0.181,"note":53,"inst":"celesta_v0_additive_3","vel":0.654,"bend":0.0,"ch":5,"track":6},{"t":716.428,"dur":0.181,"note":41,"inst":"celesta_v0_additive_3","vel":0.512,"bend":0.0,"ch":9,"track":6},{"t":716.609,"dur":0.181,"note":53,"inst":"celesta_v0_additive_3","vel":0.646,"bend":0.0,"ch":5,"track":6},{"t":716.79,"dur":0.181,"note":41,"inst":"celesta_v0_additive_3","vel":0.535,"bend":0.0,"ch":9,"track":6},{"t":716.971,"dur":0.181,"note":53,"inst":"celesta_v0_additive_3","vel":0.646,"bend":0.0,"ch":5,"track":6},{"t":717.152,"dur":0.181,"note":41,"inst":"celesta_v0_additive_3","vel":0.535,"bend":0.0,"ch":9,"track":6},{"t":717.333,"dur":0.181,"note":53,"inst":"celesta_v0_additive_3","vel":0.622,"bend":0.0,"ch":5,"track":6},{"t":717.514,"dur":0.181,"note":41,"inst":"celesta_v0_additive_3","vel":0.52,"bend":0.0,"ch":9,"track":6},{"t":717.514,"dur":2.895,"note":61,"inst":"harpsichord_v0_additive_2","vel":0.677,"bend":0.0,"ch":13,"track":6},{"t":717.695,"dur":0.181,"note":53,"inst":"celesta_v0_additive_3","vel":0.693,"bend":0.0,"ch":5,"track":6},{"t":717.876,"dur":0.181,"note":41,"inst":"celesta_v0_additive_3","vel":0.512,"bend":0.0,"ch":9,"track":6},{"t":718.057,"dur":0.181,"note":53,"inst":"celesta_v0_additive_3","vel":0.693,"bend":0.0,"ch":5,"track":6},{"t":718.238,"dur":0.181,"note":41,"inst":"celesta_v0_additive_3","vel":0.496,"bend":0.0,"ch":9,"track":6},{"t":718.419,"dur":0.181,"note":53,"inst":"celesta_v0_additive_3","vel":0.654,"bend":0.0,"ch":5,"track":6},{"t":718.599,"dur":0.181,"note":41,"inst":"celesta_v0_additive_3","vel":0.528,"bend":0.0,"ch":9,"track":6},{"t":718.78,"dur":0.181,"note":53,"inst":"celesta_v0_additive_3","vel":0.646,"bend":0.0,"ch":5,"track":6},{"t":718.961,"dur":0.181,"note":41,"inst":"celesta_v0_additive_3","vel":0.496,"bend":0.0,"ch":9,"track":6},{"t":719.142,"dur":0.181,"note":53,"inst":"celesta_v0_additive_3","vel":0.63,"bend":0.0,"ch":5,"track":6},{"t":719.323,"dur":0.181,"note":41,"inst":"celesta_v0_additive_3","vel":0.528,"bend":0.0,"ch":9,"track":6},{"t":719.504,"dur":0.181,"note":53,"inst":"celesta_v0_additive_3","vel":0.677,"bend":0.0,"ch":5,"track":6},{"t":719.685,"dur":0.181,"note":41,"inst":"celesta_v0_additive_3","vel":0.488,"bend":0.0,"ch":9,"track":6},{"t":719.866,"dur":0.181,"note":53,"inst":"celesta_v0_additive_3","vel":0.685,"bend":0.0,"ch":5,"track":6},{"t":720.047,"dur":0.181,"note":41,"inst":"celesta_v0_additive_3","vel":0.52,"bend":0.0,"ch":9,"track":6},{"t":720.228,"dur":0.181,"note":53,"inst":"celesta_v0_additive_3","vel":0.654,"bend":0.0,"ch":5,"track":6},{"t":720.409,"dur":0.181,"note":41,"inst":"celesta_v0_additive_3","vel":0.52,"bend":0.0,"ch":9,"track":6},{"t":720.409,"dur":2.171,"note":77,"inst":"celesta_v0_additive_3","vel":0.669,"bend":0.0,"ch":13,"track":6},{"t":720.59,"dur":0.181,"note":53,"inst":"celesta_v0_additive_3","vel":0.669,"bend":0.0,"ch":5,"track":6},{"t":720.771,"dur":0.181,"note":41,"inst":"celesta_v0_additive_3","vel":0.48,"bend":0.0,"ch":9,"track":6},{"t":720.952,"dur":0.181,"note":53,"inst":"celesta_v0_additive_3","vel":0.669,"bend":0.0,"ch":5,"track":6},{"t":721.133,"dur":0.181,"note":41,"inst":"celesta_v0_additive_3","vel":0.496,"bend":0.0,"ch":9,"track":6},{"t":721.314,"dur":0.181,"note":53,"inst":"celesta_v0_additive_3","vel":0.669,"bend":0.0,"ch":5,"track":6},{"t":721.495,"dur":0.181,"note":41,"inst":"celesta_v0_additive_3","vel":0.52,"bend":0.0,"ch":9,"track":6},{"t":721.676,"dur":0.181,"note":53,"inst":"celesta_v0_additive_3","vel":0.677,"bend":0.0,"ch":5,"track":6},{"t":721.857,"dur":0.181,"note":41,"inst":"celesta_v0_additive_3","vel":0.543,"bend":0.0,"ch":9,"track":6},{"t":722.038,"dur":0.181,"note":53,"inst":"celesta_v0_additive_3","vel":0.646,"bend":0.0,"ch":5,"track":6},{"t":867.063,"dur":0.433,"note":47,"inst":"celesta_v0_additive_3","vel":0.709,"bend":0.0,"ch":15,"track":6},{"t":867.496,"dur":0.433,"note":27,"inst":"piano_v0_additive_0","vel":0.709,"bend":0.0,"ch":11,"track":6},{"t":867.496,"dur":0.433,"note":27,"inst":"piano_v0_additive_0","vel":0.709,"bend":0.0,"ch":11,"track":6},{"t":867.496,"dur":1.298,"note":53,"inst":"celesta_v0_additive_3","vel":0.709,"bend":0.0,"ch":5,"track":6},{"t":867.929,"dur":0.865,"note":31,"inst":"harpsichord_v0_additive_2","vel":0.709,"bend":0.0,"ch":15,"track":6},{"t":867.929,"dur":0.865,"note":31,"inst":"harpsichord_v0_additive_2","vel":0.709,"bend":0.0,"ch":15,"track":6},{"t":867.929,"dur":0.433,"note":59,"inst":"celesta_v0_additive_3","vel":0.709,"bend":0.0,"ch":11,"track":6},{"t":868.361,"dur":0.433,"note":55,"inst":"harpsichord_v0_additive_2","vel":0.709,"bend":0.0,"ch":7,"track":6},{"t":868.794,"dur":0.433,"note":33,"inst":"piano_v0_additive_0","vel":0.709,"bend":0.0,"ch":1,"track":6},{"t":868.794,"dur":0.433,"note":33,"inst":"piano_v0_additive_0","vel":0.709,"bend":0.0,"ch":1,"track":6},{"t":868.794,"dur":0.865,"note":51,"inst":"piano_v0_additive_0","vel":0.709,"bend":0.0,"ch":3,"track":6},{"t":868.794,"dur":0.433,"note":59,"inst":"celesta_v0_additive_3","vel":0.709,"bend":0.0,"ch":11,"track":6},{"t":869.227,"dur":0.433,"note":29,"inst":"celesta_v0_additive_3","vel":0.709,"bend":0.0,"ch":13,"track":6},{"t":869.227,"dur":0.433,"note":29,"inst":"celesta_v0_additive_3","vel":0.709,"bend":0.0,"ch":13,"track":6},{"t":869.227,"dur":0.433,"note":47,"inst":"celesta_v0_additive_3","vel":0.709,"bend":0.0,"ch":15,"track":6},{"t":869.66,"dur":0.865,"note":31,"inst":"harpsichord_v0_additive_2","vel":0.709,"bend":0.0,"ch":15,"track":6},{"t":869.66,"dur":0.865,"note":31,"inst":"harpsichord_v0_additive_2","vel":0.709,"bend":0.0,"ch":15,"track":6},{"t":869.66,"dur":0.649,"note":47,"inst":"celesta_v0_additive_3","vel":0.709,"bend":0.0,"ch":15,"track":6},{"t":869.66,"dur":0.865,"note":39,"inst":"piano_v0_additive_0","vel":0.709,"bend":0.0,"ch":7,"track":6},{"t":870.309,"dur":0.216,"note":47,"inst":"celesta_v0_additive_3","vel":0.709,"bend":0.0,"ch":15,"track":6},{"t":870.525,"dur":0.433,"note":35,"inst":"celesta_v0_additive_3","vel":0.709,"bend":0.0,"ch":3,"track":6},{"t":870.525,"dur":0.433,"note":35,"inst":"celesta_v0_additive_3","vel":0.709,"bend":0.0,"ch":3,"track":6},{"t":870.525,"dur":0.433,"note":47,"inst":"celesta_v0_additive_3","vel":0.709,"bend":0.0,"ch":15,"track":6},{"t":870.525,"dur":0.865,"note":47,"inst":"celesta_v0_additive_3","vel":0.709,"bend":0.0,"ch":15,"track":6},{"t":870.958,"dur":0.865,"note":47,"inst":"celesta_v0_additive_3","vel":0.709,"bend":0.0,"ch":15,"track":6},{"t":870.958,"dur":0.865,"note":47,"inst":"celesta_v0_additive_3","vel":0.709,"bend":0.0,"ch":15,"track":6},{"t":870.958,"dur":0.649,"note":63,"inst":"piano_v0_additive_0","vel":0.709,"bend":0.0,"ch":15,"track":6},{"t":871.607,"dur":0.216,"note":65,"inst":"celesta_v0_additive_3","vel":0.709,"bend":0.0,"ch":1,"track":6},{"t":871.823,"dur":0.433,"note":47,"inst":"celesta_v0_additive_3","vel":0.709,"bend":0.0,"ch":15,"track":6},{"t":871.823,"dur":0.433,"note":47,"inst":"celesta_v0_additive_3","vel":0.709,"bend":0.0,"ch":15,"track":6},{"t":871.823,"dur":0.433,"note":67,"inst":"harpsichord_v0_additive_2","vel":0.709,"bend":0.0,"ch":3,"track":6},{"t":872.256,"dur":0.865,"note":49,"inst":"harpsichord_v0_additive_2","vel":0.709,"bend":0.0,"ch":1,"track":6},{"t":872.256,"dur":0.865,"note":49,"inst":"harpsichord_v0_additive_2","vel":0.709,"bend":0.0,"ch":1,"track":6},{"t":872.256,"dur":0.649,"note":63,"inst":"piano_v0_additive_0","vel":0.709,"bend":0.0,"ch":15,"track":6},{"t":872.256,"dur":0.216,"note":69,"inst":"piano_v0_additive_0","vel":0.709,"bend":0.0,"ch":5,"track":6},{"t":872.472,"dur":0.216,"note":67,"inst":"harpsichord_v0_additive_2","vel":0.709,"bend":0.0,"ch":3,"track":6},{"t":872.689,"dur":0.216,"note":65,"inst":"celesta_v0_additive_3","vel":0.709,"bend":0.0,"ch":1,"track":6},{"t":872.905,"dur":0.216,"note":63,"inst":"piano_v0_additive_0","vel":0.709,"bend":0.0,"ch":15,"track":6},{"t":872.905,"dur":0.216,"note":63,"inst":"piano_v0_additive_0","vel":0.709,"bend":0.0,"ch":15,"track":6},{"t":873.122,"dur":0.649,"note":39,"inst":"piano_v0_additive_0","vel":0.709,"bend":0.0,"ch":7,"track":6},{"t":873.122,"dur":0.649,"note":39,"inst":"piano_v0_additive_0","vel":0.709,"bend":0.0,"ch":7,"track":6},{"t":873.122,"dur":0.649,"note":57,"inst":"piano_v0_additive_0","vel":0.709,"bend":0.0,"ch":9,"track":6},{"t":873.122,"dur":0.649,"note":65,"inst":"celesta_v0_additive_3","vel":0.709,"bend":0.0,"ch":1,"track":6},{"t":873.771,"dur":0.216,"note":41,"inst":"celesta_v0_additive_3","vel":0.709,"bend":0.0,"ch":9,"track":6},{"t":873.771,"dur":0.216,"note":41,"inst":"celesta_v0_additive_3","vel":0.709,"bend":0.0,"ch":9,"track":6},{"t":873.771,"dur":0.216,"note":51,"inst":"piano_v0_additive_0","vel":0.709,"bend":0.0,"ch":3,"track":6},{"t":873.771,"dur":0.216,"note":69,"inst":"piano_v0_additive_0","vel":0.709,"bend":0.0,"ch":5,"track":6},{"t":873.987,"dur":0.865,"note":43,"inst":"harpsichord_v0_additive_2","vel":0.709,"bend":0.0,"ch":11,"track":6},{"t":873.987,"dur":0.865,"note":43,"inst":"harpsichord_v0_additive_2","vel":0.709,"bend":0.0,"ch":11,"track":6},{"t":873.987,"dur":0.433,"note":61,"inst":"harpsichord_v0_additive_2","vel":0.709,"bend":0.0,"ch":13,"track":6},{"t":873.987,"dur":0.433,"note":63,"inst":"piano_v0_additive_0","vel":0.709,"bend":0.0,"ch":15,"track":6},{"t":874.42,"dur":0.433,"note":51,"inst":"piano_v0_additive_0","vel":0.709,"bend":0.0,"ch":3,"track":6},{"t":874.42,"dur":0.433,"note":65,"inst":"celesta_v0_additive_3","vel":0.709,"bend":0.0,"ch":1,"track":6},{"t":874.853,"dur":0.865,"note":45,"inst":"piano_v0_additive_0","vel":0.709,"bend":0.0,"ch":13,"track":6},{"t":874.853,"dur":0.865,"note":45,"inst":"piano_v0_additive_0","vel":0.709,"bend":0.0,"ch":13,"track":6},{"t":874.853,"dur":0.649,"note":51,"inst":"piano_v0_additive_0","vel":0.709,"bend":0.0,"ch":3,"track":6},{"t":874.853,"dur":0.865,"note":63,"inst":"piano_v0_additive_0","vel":0.709,"bend":0.0,"ch":15,"track":6},{"t":875.502,"dur":0.216,"note":61,"inst":"harpsichord_v0_additive_2","vel":0.709,"bend":0.0,"ch":13,"track":6},{"t":875.718,"dur":0.433,"note":27,"inst":"piano_v0_additive_0","vel":0.709,"bend":0.0,"ch":11,"track":6},{"t":875.718,"dur":0.433,"note":27,"inst":"piano_v0_additive_0","vel":0.709,"bend":0.0,"ch":11,"track":6},{"t":875.718,"dur":0.433,"note":51,"inst":"piano_v0_additive_0","vel":0.709,"bend":0.0,"ch":3,"track":6},{"t":875.718,"dur":0.865,"note":51,"inst":"piano_v0_additive_0","vel":0.709,"bend":0.0,"ch":3,"track":6},{"t":876.151,"dur":0.865,"note":37,"inst":"harpsichord_v0_additive_2","vel":0.709,"bend":0.0,"ch":5,"track":6},{"t":876.151,"dur":0.865,"note":37,"inst":"harpsichord_v0_additive_2","vel":0.709,"bend":0.0,"ch":5,"track":6},{"t":876.151,"dur":0.216,"note":69,"inst":"piano_v0_additive_0","vel":0.709,"bend":0.0,"ch":5,"track":6},{"t":876.367,"dur":0.216,"note":67,"inst":"harpsichord_v0_additive_2","vel":0.709,"bend":0.0,"ch":3,"track":6},{"t":876.584,"dur":0.216,"note":65,"inst":"celesta_v0_additive_3","vel":0.709,"bend":0.0,"ch":1,"track":6},{"t":876.8,"dur":0.216,"note":63,"inst":"piano_v0_additive_0","vel":0.709,"bend":0.0,"ch":15,"track":6},{"t":877.016,"dur":0.433,"note":27,"inst":"piano_v0_additive_0","vel":0.709,"bend":0.0,"ch":11,"track":6},{"t":877.016,"dur":0.433,"note":27,"inst":"piano_v0_additive_0","vel":0.709,"bend":0.0,"ch":11,"track":6},{"t":877.016,"dur":0.433,"note":65,"inst":"celesta_v0_additive_3","vel":0.709,"bend":0.0,"ch":1,"track":6},{"t":877.49,"dur":0.192,"note":70,"inst":"harpsichord_v0_additive_2","vel":1.0,"bend":0.0,"ch":6,"track":7},{"t":877.682,"dur":0.383,"note":44,"inst":"piano_v0_additive_0","vel":1.0,"bend":0.0,"ch":12,"track":7},{"t":877.682,"dur":0.192,"note":68,"inst":"piano_v0_additive_0","vel":1.0,"bend":0.0,"ch":4,"track":7},{"t":877.873,"dur":0.192,"note":82,"inst":"harpsichord_v0_additive_2","vel":1.0,"bend":0.0,"ch":2,"track":7},{"t":878.065,"dur":0.383,"note":44,"inst":"piano_v0_additive_0","vel":1.0,"bend":0.0,"ch":12,"track":7},{"t":878.065,"dur":0.192,"note":80,"inst":"piano_v0_additive_0","vel":1.0,"bend":0.0,"ch":0,"track":7},{"t":878.257,"dur":0.064,"note":70,"inst":"harpsichord_v0_additive_2","vel":1.0,"bend":0.0,"ch":6,"track":7},{"t":878.321,"dur":0.064,"note":72,"inst":"piano_v0_additive_0","vel":1.0,"bend":0.0,"ch":8,"track":7},{"t":878.385,"dur":0.064,"note":70,"inst":"harpsichord_v0_additive_2","vel":1.0,"bend":0.0,"ch":6,"track":7},{"t":878.449,"dur":0.383,"note":44,"inst":"piano_v0_additive_0","vel":1.0,"bend":0.0,"ch":12,"track":7},{"t":878.449,"dur":0.192,"note":68,"inst":"piano_v0_additive_0","vel":1.0,"bend":0.0,"ch":4,"track":7},{"t":878.64,"dur":0.192,"note":77,"inst":"organ_v0_additive_1","vel":1.0,"bend":0.0,"ch":13,"track":7},{"t":878.832,"dur":0.383,"note":44,"inst":"piano_v0_additive_0","vel":1.0,"bend":0.0,"ch":12,"track":7},{"t":878.832,"dur":0.192,"note":75,"inst":"celesta_v0_additive_3","vel":1.0,"bend":0.0,"ch":11,"track":7},{"t":879.024,"dur":0.192,"note":68,"inst":"piano_v0_additive_0","vel":1.0,"bend":0.0,"ch":4,"track":7},{"t":879.216,"dur":0.383,"note":49,"inst":"organ_v0_additive_1","vel":1.0,"bend":0.0,"ch":1,"track":7},{"t":879.216,"dur":0.383,"note":73,"inst":"organ_v0_additive_1","vel":1.0,"bend":0.0,"ch":9,"track":7},{"t":879.599,"dur":0.192,"note":85,"inst":"organ_v0_additive_1","vel":1.0,"bend":0.0,"ch":5,"track":7},{"t":879.791,"dur":0.064,"note":85,"inst":"organ_v0_additive_1","vel":1.0,"bend":0.0,"ch":5,"track":7},{"t":879.855,"dur":0.064,"note":87,"inst":"celesta_v0_additive_3","vel":1.0,"bend":0.0,"ch":7,"track":7},{"t":879.919,"dur":0.064,"note":85,"inst":"organ_v0_additive_1","vel":1.0,"bend":0.0,"ch":5,"track":7},{"t":879.982,"dur":0.383,"note":44,"inst":"piano_v0_additive_0","vel":1.0,"bend":0.0,"ch":12,"track":7},{"t":879.982,"dur":0.192,"note":84,"inst":"piano_v0_additive_0","vel":1.0,"bend":0.0,"ch":4,"track":7},{"t":880.174,"dur":0.192,"note":89,"inst":"organ_v0_additive_1","vel":1.0,"bend":0.0,"ch":9,"track":7},{"t":880.366,"dur":0.383,"note":39,"inst":"celesta_v0_additive_3","vel":1.0,"bend":0.0,"ch":7,"track":7},{"t":880.366,"dur":0.192,"note":87,"inst":"celesta_v0_additive_3","vel":1.0,"bend":0.0,"ch":7,"track":7},{"t":880.558,"dur":0.064,"note":82,"inst":"harpsichord_v0_additive_2","vel":1.0,"bend":0.0,"ch":2,"track":7},{"t":880.622,"dur":0.064,"note":84,"inst":"piano_v0_additive_0","vel":1.0,"bend":0.0,"ch":4,"track":7},{"t":880.685,"dur":0.064,"note":82,"inst":"harpsichord_v0_additive_2","vel":1.0,"bend":0.0,"ch":2,"track":7},{"t":880.749,"dur":0.383,"note":44,"inst":"piano_v0_additive_0","vel":1.0,"bend":0.0,"ch":12,"track":7},{"t":880.749,"dur":0.192,"note":80,"inst":"piano_v0_additive_0","vel":1.0,"bend":0.0,"ch":0,"track":7},{"t":880.941,"dur":0.192,"note":85,"inst":"organ_v0_additive_1","vel":1.0,"bend":0.0,"ch":5,"track":7},{"t":881.133,"dur":0.383,"note":39,"inst":"celesta_v0_additive_3","vel":1.0,"bend":0.0,"ch":7,"track":7},{"t":881.133,"dur":0.192,"note":84,"inst":"piano_v0_additive_0","vel":1.0,"bend":0.0,"ch":4,"track":7},{"t":881.325,"dur":0.192,"note":80,"inst":"piano_v0_additive_0","vel":1.0,"bend":0.0,"ch":0,"track":7},{"t":881.516,"dur":0.383,"note":44,"inst":"piano_v0_additive_0","vel":1.0,"bend":0.0,"ch":12,"track":7},{"t":881.516,"dur":0.096,"note":75,"inst":"celesta_v0_additive_3","vel":1.0,"bend":0.0,"ch":11,"track":7},{"t":881.612,"dur":0.096,"note":73,"inst":"organ_v0_additive_1","vel":1.0,"bend":0.0,"ch":9,"track":7},{"t":881.708,"dur":0.096,"note":75,"inst":"celesta_v0_additive_3","vel":1.0,"bend":0.0,"ch":11,"track":7},{"t":881.804,"dur":0.096,"note":77,"inst":"organ_v0_additive_1","vel":1.0,"bend":0.0,"ch":13,"track":7},{"t":881.9,"dur":0.383,"note":39,"inst":"celesta_v0_additive_3","vel":1.0,"bend":0.0,"ch":7,"track":7},{"t":881.9,"dur":0.096,"note":78,"inst":"harpsichord_v0_additive_2","vel":1.0,"bend":0.0,"ch":14,"track":7},{"t":881.996,"dur":0.096,"note":80,"inst":"piano_v0_additive_0","vel":1.0,"bend":0.0,"ch":0,"track":7},{"t":882.092,"dur":0.096,"note":82,"inst":"harpsichord_v0_additive_2","vel":1.0,"bend":0.0,"ch":2,"track":7},{"t":882.187,"dur":0.096,"note":84,"inst":"piano_v0_additive_0","vel":1.0,"bend":0.0,"ch":4,"track":7},{"t":882.283,"dur":0.383,"note":46,"inst":"harpsichord_v0_additive_2","vel":1.0,"bend":0.0,"ch":14,"track":7},{"t":882.283,"dur":0.383,"note":85,"inst":"organ_v0_additive_1","vel":1.0,"bend":0.0,"ch":5,"track":7},{"t":882.667,"dur":0.383,"note":39,"inst":"celesta_v0_additive_3","vel":1.0,"bend":0.0,"ch":7,"track":7},{"t":882.858,"dur":0.064,"note":85,"inst":"organ_v0_additive_1","vel":1.0,"bend":0.0,"ch":5,"track":7},{"t":882.922,"dur":0.064,"note":87,"inst":"celesta_v0_additive_3","vel":1.0,"bend":0.0,"ch":7,"track":7},{"t":882.986,"dur":0.064,"note":85,"inst":"organ_v0_additive_1","vel":1.0,"bend":0.0,"ch":5,"track":7},{"t":883.05,"dur":0.383,"note":46,"inst":"harpsichord_v0_additive_2","vel":1.0,"bend":0.0,"ch":14,"track":7},{"t":883.05,"dur":0.192,"note":82,"inst":"harpsichord_v0_additive_2","vel":1.0,"bend":0.0,"ch":2,"track":7},{"t":911.449,"type":"tts","inst":"voice","text":"- Protein translation via codon table. attrs mutating True","track":7},{"t":919.725,"dur":0.333,"note":49,"inst":"organ_v0_additive_1","vel":0.709,"bend":0.0,"ch":1,"track":7},{"t":919.725,"dur":0.333,"note":58,"inst":"harpsichord_v0_additive_2","vel":0.709,"bend":0.0,"ch":10,"track":7},{"t":920.058,"dur":0.999,"note":37,"inst":"organ_v0_additive_1","vel":0.709,"bend":0.0,"ch":5,"track":7},{"t":920.058,"dur":0.999,"note":49,"inst":"organ_v0_additive_1","vel":0.709,"bend":0.0,"ch":1,"track":7},{"t":920.058,"dur":0.999,"note":51,"inst":"celesta_v0_additive_3","vel":0.709,"bend":0.0,"ch":3,"track":7},{"t":920.058,"dur":0.333,"note":61,"inst":"organ_v0_additive_1","vel":0.709,"bend":0.0,"ch":13,"track":7},{"t":920.391,"dur":0.333,"note":61,"inst":"organ_v0_additive_1","vel":0.709,"bend":0.0,"ch":13,"track":7},{"t":920.724,"dur":0.333,"note":63,"inst":"celesta_v0_additive_3","vel":0.709,"bend":0.0,"ch":15,"track":7},{"t":921.057,"dur":0.999,"note":30,"inst":"harpsichord_v0_additive_2","vel":0.709,"bend":0.0,"ch":14,"track":7},{"t":921.057,"dur":0.333,"note":49,"inst":"organ_v0_additive_1","vel":0.709,"bend":0.0,"ch":1,"track":7},{"t":921.057,"dur":0.999,"note":49,"inst":"organ_v0_additive_1","vel":0.709,"bend":0.0,"ch":1,"track":7},{"t":921.057,"dur":0.333,"note":56,"inst":"piano_v0_additive_0","vel":0.709,"bend":0.0,"ch":8,"track":7},{"t":921.39,"dur":0.333,"note":49,"inst":"organ_v0_additive_1","vel":0.709,"bend":0.0,"ch":1,"track":7},{"t":921.39,"dur":0.333,"note":58,"inst":"harpsichord_v0_additive_2","vel":0.709,"bend":0.0,"ch":10,"track":7},{"t":921.723,"dur":0.333,"note":51,"inst":"celesta_v0_additive_3","vel":0.709,"bend":0.0,"ch":3,"track":7},{"t":921.723,"dur":0.333,"note":61,"inst":"organ_v0_additive_1","vel":0.709,"bend":0.0,"ch":13,"track":7},{"t":922.057,"dur":0.999,"note":24,"inst":"piano_v0_additive_0","vel":0.709,"bend":0.0,"ch":8,"track":7},{"t":922.057,"dur":0.999,"note":30,"inst":"harpsichord_v0_additive_2","vel":0.709,"bend":0.0,"ch":14,"track":7},{"t":922.057,"dur":0.999,"note":44,"inst":"piano_v0_additive_0","vel":0.709,"bend":0.0,"ch":12,"track":7},{"t":922.057,"dur":0.333,"note":61,"inst":"organ_v0_additive_1","vel":0.709,"bend":0.0,"ch":13,"track":7},{"t":922.39,"dur":0.333,"note":63,"inst":"celesta_v0_additive_3","vel":0.709,"bend":0.0,"ch":15,"track":7},{"t":922.723,"dur":0.333,"note":54,"inst":"harpsichord_v0_additive_2","vel":0.709,"bend":0.0,"ch":6,"track":7},{"t":923.056,"dur":0.999,"note":30,"inst":"harpsichord_v0_additive_2","vel":0.709,"bend":0.0,"ch":14,"track":7},{"t":923.056,"dur":0.999,"note":42,"inst":"harpsichord_v0_additive_2","vel":0.709,"bend":0.0,"ch":10,"track":7},{"t":923.056,"dur":0.999,"note":46,"inst":"harpsichord_v0_additive_2","vel":0.709,"bend":0.0,"ch":14,"track":7},{"t":923.056,"dur":0.333,"note":63,"inst":"celesta_v0_additive_3","vel":0.709,"bend":0.0,"ch":15,"track":7},{"t":923.389,"dur":0.333,"note":54,"inst":"harpsichord_v0_additive_2","vel":0.709,"bend":0.0,"ch":6,"track":7},{"t":923.722,"dur":0.333,"note":61,"inst":"organ_v0_additive_1","vel":0.709,"bend":0.0,"ch":13,"track":7},{"t":924.055,"dur":0.999,"note":32,"inst":"piano_v0_additive_0","vel":0.709,"bend":0.0,"ch":0,"track":7},{"t":924.055,"dur":0.999,"note":44,"inst":"piano_v0_additive_0","vel":0.709,"bend":0.0,"ch":12,"track":7},{"t":924.055,"dur":0.999,"note":49,"inst":"organ_v0_additive_1","vel":0.709,"bend":0.0,"ch":1,"track":7},{"t":924.055,"dur":0.333,"note":61,"inst":"organ_v0_additive_1","vel":0.709,"bend":0.0,"ch":13,"track":7},{"t":924.388,"dur":0.333,"note":58,"inst":"harpsichord_v0_additive_2","vel":0.709,"bend":0.0,"ch":10,"track":7},{"t":924.721,"dur":0.333,"note":56,"inst":"piano_v0_additive_0","vel":0.709,"bend":0.0,"ch":8,"track":7},{"t":925.054,"dur":0.999,"note":24,"inst":"piano_v0_additive_0","vel":0.709,"bend":0.0,"ch":8,"track":7},{"t":925.054,"dur":0.666,"note":49,"inst":"organ_v0_additive_1","vel":0.709,"bend":0.0,"ch":1,"track":7},{"t":925.054,"dur":0.999,"note":56,"inst":"piano_v0_additive_0","vel":0.709,"bend":0.0,"ch":8,"track":7},{"t":925.054,"dur":0.333,"note":68,"inst":"piano_v0_additive_0","vel":0.709,"bend":0.0,"ch":4,"track":7},{"t":925.387,"dur":0.333,"note":54,"inst":"harpsichord_v0_additive_2","vel":0.709,"bend":0.0,"ch":6,"track":7},{"t":925.721,"dur":0.333,"note":42,"inst":"harpsichord_v0_additive_2","vel":0.709,"bend":0.0,"ch":10,"track":7},{"t":925.721,"dur":0.333,"note":61,"inst":"organ_v0_additive_1","vel":0.709,"bend":0.0,"ch":13,"track":7},{"t":926.054,"dur":3.997,"note":27,"inst":"celesta_v0_additive_3","vel":0.709,"bend":0.0,"ch":11,"track":7},{"t":926.054,"dur":0.999,"note":51,"inst":"celesta_v0_additive_3","vel":0.709,"bend":0.0,"ch":3,"track":7},{"t":926.054,"dur":0.999,"note":54,"inst":"harpsichord_v0_additive_2","vel":0.709,"bend":0.0,"ch":6,"track":7},{"t":926.054,"dur":0.333,"note":63,"inst":"celesta_v0_additive_3","vel":0.709,"bend":0.0,"ch":15,"track":7},{"t":926.387,"dur":0.333,"note":66,"inst":"harpsichord_v0_additive_2","vel":0.709,"bend":0.0,"ch":2,"track":7},{"t":926.72,"dur":0.333,"note":63,"inst":"celesta_v0_additive_3","vel":0.709,"bend":0.0,"ch":15,"track":7},{"t":927.053,"dur":0.666,"note":49,"inst":"organ_v0_additive_1","vel":0.709,"bend":0.0,"ch":1,"track":7},{"t":927.053,"dur":0.999,"note":56,"inst":"piano_v0_additive_0","vel":0.709,"bend":0.0,"ch":8,"track":7},{"t":927.053,"dur":0.333,"note":68,"inst":"piano_v0_additive_0","vel":0.709,"bend":0.0,"ch":4,"track":7},{"t":927.386,"dur":0.333,"note":54,"inst":"harpsichord_v0_additive_2","vel":0.709,"bend":0.0,"ch":6,"track":7},{"t":927.719,"dur":0.333,"note":42,"inst":"harpsichord_v0_additive_2","vel":0.709,"bend":0.0,"ch":10,"track":7},{"t":927.719,"dur":0.333,"note":61,"inst":"organ_v0_additive_1","vel":0.709,"bend":0.0,"ch":13,"track":7},{"t":928.052,"dur":0.999,"note":51,"inst":"celesta_v0_additive_3","vel":0.709,"bend":0.0,"ch":3,"track":7},{"t":928.052,"dur":0.999,"note":54,"inst":"harpsichord_v0_additive_2","vel":0.709,"bend":0.0,"ch":6,"track":7},{"t":928.052,"dur":0.333,"note":63,"inst":"celesta_v0_additive_3","vel":0.709,"bend":0.0,"ch":15,"track":7},{"t":928.385,"dur":0.333,"note":66,"inst":"harpsichord_v0_additive_2","vel":0.709,"bend":0.0,"ch":2,"track":7},{"t":928.718,"dur":0.333,"note":63,"inst":"celesta_v0_additive_3","vel":0.709,"bend":0.0,"ch":15,"track":7},{"t":929.051,"dur":0.666,"note":49,"inst":"organ_v0_additive_1","vel":0.709,"bend":0.0,"ch":1,"track":7},{"t":929.051,"dur":0.999,"note":56,"inst":"piano_v0_additive_0","vel":0.709,"bend":0.0,"ch":8,"track":7},{"t":929.051,"dur":0.333,"note":68,"inst":"piano_v0_additive_0","vel":0.709,"bend":0.0,"ch":4,"track":7},{"t":929.385,"dur":0.333,"note":54,"inst":"harpsichord_v0_additive_2","vel":0.709,"bend":0.0,"ch":6,"track":7},{"t":929.718,"dur":0.333,"note":42,"inst":"harpsichord_v0_additive_2","vel":0.709,"bend":0.0,"ch":10,"track":7},{"t":929.718,"dur":0.333,"note":61,"inst":"organ_v0_additive_1","vel":0.709,"bend":0.0,"ch":13,"track":7},{"t":930.051,"dur":0.999,"note":27,"inst":"celesta_v0_additive_3","vel":0.709,"bend":0.0,"ch":11,"track":7},{"t":930.051,"dur":0.999,"note":51,"inst":"celesta_v0_additive_3","vel":0.709,"bend":0.0,"ch":3,"track":7},{"t":930.051,"dur":0.999,"note":54,"inst":"harpsichord_v0_additive_2","vel":0.709,"bend":0.0,"ch":6,"track":7},{"t":930.051,"dur":0.333,"note":63,"inst":"celesta_v0_additive_3","vel":0.709,"bend":0.0,"ch":15,"track":7},{"t":930.384,"dur":0.333,"note":54,"inst":"harpsichord_v0_additive_2","vel":0.709,"bend":0.0,"ch":6,"track":7},{"t":930.717,"dur":0.333,"note":66,"inst":"harpsichord_v0_additive_2","vel":0.709,"bend":0.0,"ch":2,"track":7},{"t":931.05,"dur":0.999,"note":27,"inst":"celesta_v0_additive_3","vel":0.709,"bend":0.0,"ch":11,"track":7},{"t":931.05,"dur":0.999,"note":42,"inst":"harpsichord_v0_additive_2","vel":0.709,"bend":0.0,"ch":10,"track":7},{"t":931.05,"dur":0.999,"note":56,"inst":"piano_v0_additive_0","vel":0.709,"bend":0.0,"ch":8,"track":7},{"t":931.05,"dur":0.333,"note":58,"inst":"harpsichord_v0_additive_2","vel":0.709,"bend":0.0,"ch":10,"track":7},{"t":931.383,"dur":0.333,"note":61,"inst":"organ_v0_additive_1","vel":0.709,"bend":0.0,"ch":13,"track":7},{"t":961.623,"dur":0.237,"note":56,"inst":"piano_v0_additive_0","vel":0.709,"bend":0.0,"ch":8,"track":7},{"t":961.86,"dur":0.711,"note":37,"inst":"organ_v0_additive_1","vel":0.709,"bend":0.0,"ch":5,"track":7},{"t":961.86,"dur":0.237,"note":53,"inst":"organ_v0_additive_1","vel":0.709,"bend":0.0,"ch":5,"track":7},{"t":962.097,"dur":0.237,"note":49,"inst":"organ_v0_additive_1","vel":0.709,"bend":0.0,"ch":1,"track":7},{"t":962.335,"dur":0.237,"note":53,"inst":"organ_v0_additive_1","vel":0.709,"bend":0.0,"ch":5,"track":7},{"t":962.572,"dur":0.711,"note":36,"inst":"piano_v0_additive_0","vel":0.709,"bend":0.0,"ch":4,"track":7},{"t":962.572,"dur":0.237,"note":55,"inst":"celesta_v0_additive_3","vel":0.709,"bend":0.0,"ch":7,"track":7},{"t":962.808,"dur":0.237,"note":48,"inst":"piano_v0_additive_0","vel":0.709,"bend":0.0,"ch":0,"track":7},{"t":963.046,"dur":0.237,"note":55,"inst":"celesta_v0_additive_3","vel":0.709,"bend":0.0,"ch":7,"track":7},{"t":963.283,"dur":0.711,"note":36,"inst":"piano_v0_additive_0","vel":0.709,"bend":0.0,"ch":4,"track":7},{"t":963.283,"dur":0.237,"note":48,"inst":"piano_v0_additive_0","vel":0.709,"bend":0.0,"ch":0,"track":7},{"t":963.52,"dur":0.237,"note":41,"inst":"organ_v0_additive_1","vel":0.709,"bend":0.0,"ch":9,"track":7},{"t":963.757,"dur":0.237,"note":56,"inst":"piano_v0_additive_0","vel":0.709,"bend":0.0,"ch":8,"track":7},{"t":963.994,"dur":0.711,"note":37,"inst":"organ_v0_additive_1","vel":0.709,"bend":0.0,"ch":5,"track":7},{"t":963.994,"dur":0.237,"note":44,"inst":"piano_v0_additive_0","vel":0.709,"bend":0.0,"ch":12,"track":7},{"t":964.231,"dur":0.237,"note":56,"inst":"piano_v0_additive_0","vel":0.709,"bend":0.0,"ch":8,"track":7},{"t":964.469,"dur":0.237,"note":55,"inst":"celesta_v0_additive_3","vel":0.709,"bend":0.0,"ch":7,"track":7},{"t":964.706,"dur":0.711,"note":37,"inst":"organ_v0_additive_1","vel":0.709,"bend":0.0,"ch":5,"track":7},{"t":964.706,"dur":0.237,"note":49,"inst":"organ_v0_additive_1","vel":0.709,"bend":0.0,"ch":1,"track":7},{"t":964.942,"dur":0.237,"note":53,"inst":"organ_v0_additive_1","vel":0.709,"bend":0.0,"ch":5,"track":7},{"t":965.18,"dur":0.237,"note":60,"inst":"piano_v0_additive_0","vel":0.709,"bend":0.0,"ch":12,"track":7},{"t":965.417,"dur":0.711,"note":29,"inst":"organ_v0_additive_1","vel":0.709,"bend":0.0,"ch":13,"track":7},{"t":965.417,"dur":0.237,"note":48,"inst":"piano_v0_additive_0","vel":0.709,"bend":0.0,"ch":0,"track":7},{"t":965.654,"dur":0.237,"note":60,"inst":"piano_v0_additive_0","vel":0.709,"bend":0.0,"ch":12,"track":7},{"t":965.891,"dur":0.237,"note":56,"inst":"piano_v0_additive_0","vel":0.709,"bend":0.0,"ch":8,"track":7},{"t":966.128,"dur":0.711,"note":29,"inst":"organ_v0_additive_1","vel":0.709,"bend":0.0,"ch":13,"track":7},{"t":966.128,"dur":0.237,"note":41,"inst":"organ_v0_additive_1","vel":0.709,"bend":0.0,"ch":9,"track":7},{"t":966.365,"dur":0.237,"note":55,"inst":"celesta_v0_additive_3","vel":0.709,"bend":0.0,"ch":7,"track":7},{"t":966.603,"dur":0.237,"note":60,"inst":"piano_v0_additive_0","vel":0.709,"bend":0.0,"ch":12,"track":7},{"t":966.839,"dur":0.237,"note":41,"inst":"organ_v0_additive_1","vel":0.709,"bend":0.0,"ch":9,"track":7},{"t":967.076,"dur":0.237,"note":60,"inst":"piano_v0_additive_0","vel":0.709,"bend":0.0,"ch":12,"track":7},{"t":967.314,"dur":0.237,"note":60,"inst":"piano_v0_additive_0","vel":0.709,"bend":0.0,"ch":12,"track":7},{"t":967.551,"dur":0.711,"note":41,"inst":"organ_v0_additive_1","vel":0.709,"bend":0.0,"ch":9,"track":7},{"t":967.551,"dur":0.237,"note":53,"inst":"organ_v0_additive_1","vel":0.709,"bend":0.0,"ch":5,"track":7},{"t":967.788,"dur":0.237,"note":56,"inst":"piano_v0_additive_0","vel":0.709,"bend":0.0,"ch":8,"track":7},{"t":968.025,"dur":0.237,"note":61,"inst":"organ_v0_additive_1","vel":0.709,"bend":0.0,"ch":13,"track":7},{"t":968.262,"dur":0.237,"note":53,"inst":"organ_v0_additive_1","vel":0.709,"bend":0.0,"ch":5,"track":7},{"t":968.499,"dur":0.237,"note":61,"inst":"organ_v0_additive_1","vel":0.709,"bend":0.0,"ch":13,"track":7},{"t":968.737,"dur":0.237,"note":60,"inst":"piano_v0_additive_0","vel":0.709,"bend":0.0,"ch":12,"track":7},{"t":968.973,"dur":0.711,"note":43,"inst":"celesta_v0_additive_3","vel":0.709,"bend":0.0,"ch":11,"track":7},{"t":968.973,"dur":0.237,"note":55,"inst":"celesta_v0_additive_3","vel":0.709,"bend":0.0,"ch":7,"track":7},{"t":969.21,"dur":0.237,"note":60,"inst":"piano_v0_additive_0","vel":0.709,"bend":0.0,"ch":12,"track":7},{"t":969.448,"dur":0.237,"note":53,"inst":"organ_v0_additive_1","vel":0.709,"bend":0.0,"ch":5,"track":7},{"t":969.685,"dur":0.237,"note":41,"inst":"organ_v0_additive_1","vel":0.709,"bend":0.0,"ch":9,"track":7},{"t":969.922,"dur":0.237,"note":53,"inst":"organ_v0_additive_1","vel":0.709,"bend":0.0,"ch":5,"track":7},{"t":970.159,"dur":0.237,"note":61,"inst":"organ_v0_additive_1","vel":0.709,"bend":0.0,"ch":13,"track":7},{"t":970.396,"dur":0.711,"note":44,"inst":"piano_v0_additive_0","vel":0.709,"bend":0.0,"ch":12,"track":7},{"t":970.396,"dur":0.237,"note":56,"inst":"piano_v0_additive_0","vel":0.709,"bend":0.0,"ch":8,"track":7},{"t":970.633,"dur":0.237,"note":61,"inst":"organ_v0_additive_1","vel":0.709,"bend":0.0,"ch":13,"track":7},{"t":970.871,"dur":0.237,"note":61,"inst":"organ_v0_additive_1","vel":0.709,"bend":0.0,"ch":13,"track":7},{"t":971.107,"dur":0.711,"note":48,"inst":"piano_v0_additive_0","vel":0.709,"bend":0.0,"ch":0,"track":7},{"t":971.107,"dur":0.237,"note":53,"inst":"organ_v0_additive_1","vel":0.709,"bend":0.0,"ch":5,"track":7},{"t":971.344,"dur":0.237,"note":61,"inst":"organ_v0_additive_1","vel":0.709,"bend":0.0,"ch":13,"track":7},{"t":1087.889,"dur":0.215,"note":48,"inst":"piano_v0_additive_0","vel":1.0,"bend":0.0,"ch":0,"track":7},{"t":1087.889,"dur":0.107,"note":67,"inst":"celesta_v0_additive_3","vel":1.0,"bend":0.0,"ch":3,"track":7},{"t":1087.996,"dur":0.107,"note":72,"inst":"piano_v0_additive_0","vel":1.0,"bend":0.0,"ch":8,"track":7},{"t":1087.996,"dur":0.107,"note":74,"inst":"harpsichord_v0_additive_2","vel":1.0,"bend":0.0,"ch":10,"track":7},{"t":1088.103,"dur":0.215,"note":60,"inst":"piano_v0_additive_0","vel":1.0,"bend":0.0,"ch":12,"track":7},{"t":1088.103,"dur":0.322,"note":74,"inst":"harpsichord_v0_additive_2","vel":1.0,"bend":0.0,"ch":10,"track":7},{"t":1088.318,"dur":0.215,"note":52,"inst":"piano_v0_additive_0","vel":1.0,"bend":0.0,"ch":4,"track":7},{"t":1088.425,"dur":0.107,"note":72,"inst":"piano_v0_additive_0","vel":1.0,"bend":0.0,"ch":8,"track":7},{"t":1088.425,"dur":0.107,"note":74,"inst":"harpsichord_v0_additive_2","vel":1.0,"bend":0.0,"ch":10,"track":7},{"t":1088.533,"dur":0.215,"note":55,"inst":"celesta_v0_additive_3","vel":1.0,"bend":0.0,"ch":7,"track":7},{"t":1088.533,"dur":0.107,"note":74,"inst":"harpsichord_v0_additive_2","vel":1.0,"bend":0.0,"ch":10,"track":7},{"t":1088.533,"dur":0.107,"note":74,"inst":"harpsichord_v0_additive_2","vel":1.0,"bend":0.0,"ch":10,"track":7},{"t":1088.64,"dur":0.107,"note":72,"inst":"piano_v0_additive_0","vel":1.0,"bend":0.0,"ch":8,"track":7},{"t":1088.64,"dur":0.107,"note":72,"inst":"piano_v0_additive_0","vel":1.0,"bend":0.0,"ch":8,"track":7},{"t":1088.748,"dur":0.215,"note":50,"inst":"harpsichord_v0_additive_2","vel":1.0,"bend":0.0,"ch":2,"track":7},{"t":1088.748,"dur":0.107,"note":72,"inst":"piano_v0_additive_0","vel":1.0,"bend":0.0,"ch":8,"track":7},{"t":1088.855,"dur":0.107,"note":67,"inst":"celesta_v0_additive_3","vel":1.0,"bend":0.0,"ch":3,"track":7},{"t":1088.962,"dur":0.215,"note":48,"inst":"piano_v0_additive_0","vel":1.0,"bend":0.0,"ch":0,"track":7},{"t":1088.962,"dur":0.107,"note":57,"inst":"organ_v0_additive_1","vel":1.0,"bend":0.0,"ch":9,"track":7},{"t":1089.07,"dur":0.107,"note":64,"inst":"piano_v0_additive_0","vel":1.0,"bend":0.0,"ch":0,"track":7},{"t":1089.177,"dur":0.215,"note":50,"inst":"harpsichord_v0_additive_2","vel":1.0,"bend":0.0,"ch":2,"track":7},{"t":1089.177,"dur":0.107,"note":67,"inst":"celesta_v0_additive_3","vel":1.0,"bend":0.0,"ch":3,"track":7},{"t":1089.284,"dur":0.107,"note":72,"inst":"piano_v0_additive_0","vel":1.0,"bend":0.0,"ch":8,"track":7},{"t":1089.392,"dur":0.215,"note":55,"inst":"celesta_v0_additive_3","vel":1.0,"bend":0.0,"ch":7,"track":7},{"t":1089.392,"dur":0.107,"note":67,"inst":"celesta_v0_additive_3","vel":1.0,"bend":0.0,"ch":3,"track":7},{"t":1089.499,"dur":0.107,"note":64,"inst":"piano_v0_additive_0","vel":1.0,"bend":0.0,"ch":0,"track":7},{"t":1089.607,"dur":0.215,"note":60,"inst":"piano_v0_additive_0","vel":1.0,"bend":0.0,"ch":12,"track":7},{"t":1089.607,"dur":0.107,"note":62,"inst":"harpsichord_v0_additive_2","vel":1.0,"bend":0.0,"ch":14,"track":7},{"t":1089.714,"dur":0.107,"note":72,"inst":"piano_v0_additive_0","vel":1.0,"bend":0.0,"ch":8,"track":7},{"t":1089.714,"dur":0.107,"note":74,"inst":"harpsichord_v0_additive_2","vel":1.0,"bend":0.0,"ch":10,"track":7},{"t":1089.821,"dur":0.215,"note":45,"inst":"organ_v0_additive_1","vel":1.0,"bend":0.0,"ch":13,"track":7},{"t":1089.821,"dur":0.107,"note":74,"inst":"harpsichord_v0_additive_2","vel":1.0,"bend":0.0,"ch":10,"track":7},{"t":1089.821,"dur":0.107,"note":74,"inst":"harpsichord_v0_additive_2","vel":1.0,"bend":0.0,"ch":10,"track":7},{"t":1089.929,"dur":0.107,"note":72,"inst":"piano_v0_additive_0","vel":1.0,"bend":0.0,"ch":8,"track":7},{"t":1090.036,"dur":0.215,"note":50,"inst":"harpsichord_v0_additive_2","vel":1.0,"bend":0.0,"ch":2,"track":7},{"t":1090.036,"dur":0.107,"note":79,"inst":"celesta_v0_additive_3","vel":1.0,"bend":0.0,"ch":15,"track":7},{"t":1090.143,"dur":0.107,"note":72,"inst":"piano_v0_additive_0","vel":1.0,"bend":0.0,"ch":8,"track":7},{"t":1090.251,"dur":0.215,"note":52,"inst":"piano_v0_additive_0","vel":1.0,"bend":0.0,"ch":4,"track":7},{"t":1090.251,"dur":0.107,"note":69,"inst":"organ_v0_additive_1","vel":1.0,"bend":0.0,"ch":5,"track":7},{"t":1090.358,"dur":0.107,"note":72,"inst":"piano_v0_additive_0","vel":1.0,"bend":0.0,"ch":8,"track":7},{"t":1090.466,"dur":0.215,"note":55,"inst":"celesta_v0_additive_3","vel":1.0,"bend":0.0,"ch":7,"track":7},{"t":1090.466,"dur":0.107,"note":72,"inst":"piano_v0_additive_0","vel":1.0,"bend":0.0,"ch":8,"track":7},{"t":1090.573,"dur":0.107,"note":72,"inst":"piano_v0_additive_0","vel":1.0,"bend":0.0,"ch":8,"track":7},{"t":1090.68,"dur":0.215,"note":43,"inst":"celesta_v0_additive_3","vel":1.0,"bend":0.0,"ch":11,"track":7},{"t":1090.68,"dur":0.107,"note":74,"inst":"harpsichord_v0_additive_2","vel":1.0,"bend":0.0,"ch":10,"track":7},{"t":1090.788,"dur":0.107,"note":72,"inst":"piano_v0_additive_0","vel":1.0,"bend":0.0,"ch":8,"track":7},{"t":1090.895,"dur":0.107,"note":67,"inst":"celesta_v0_additive_3","vel":1.0,"bend":0.0,"ch":3,"track":7},{"t":1091.002,"dur":0.107,"note":64,"inst":"piano_v0_additive_0","vel":1.0,"bend":0.0,"ch":0,"track":7},{"t":1091.11,"dur":0.107,"note":62,"inst":"harpsichord_v0_additive_2","vel":1.0,"bend":0.0,"ch":14,"track":7},{"t":1091.217,"dur":0.107,"note":62,"inst":"harpsichord_v0_additive_2","vel":1.0,"bend":0.0,"ch":14,"track":7},{"t":1091.325,"dur":0.107,"note":79,"inst":"celesta_v0_additive_3","vel":1.0,"bend":0.0,"ch":15,"track":7},{"t":1091.432,"dur":0.107,"note":74,"inst":"harpsichord_v0_additive_2","vel":1.0,"bend":0.0,"ch":10,"track":7},{"t":1091.432,"dur":0.107,"note":74,"inst":"harpsichord_v0_additive_2","vel":1.0,"bend":0.0,"ch":10,"track":7},{"t":1091.539,"dur":0.107,"note":72,"inst":"piano_v0_additive_0","vel":1.0,"bend":0.0,"ch":8,"track":7},{"t":1091.647,"dur":0.107,"note":69,"inst":"organ_v0_additive_1","vel":1.0,"bend":0.0,"ch":5,"track":7},{"t":1091.754,"dur":0.107,"note":64,"inst":"piano_v0_additive_0","vel":1.0,"bend":0.0,"ch":0,"track":7},{"t":1091.861,"dur":0.107,"note":72,"inst":"piano_v0_additive_0","vel":1.0,"bend":0.0,"ch":8,"track":7},{"t":1091.969,"dur":0.107,"note":60,"inst":"piano_v0_additive_0","vel":1.0,"bend":0.0,"ch":12,"track":7},{"t":1092.076,"dur":0.107,"note":72,"inst":"piano_v0_additive_0","vel":1.0,"bend":0.0,"ch":8,"track":7},{"t":1092.183,"dur":0.107,"note":69,"inst":"organ_v0_additive_1","vel":1.0,"bend":0.0,"ch":5,"track":7},{"t":1092.291,"dur":0.107,"note":76,"inst":"piano_v0_additive_0","vel":1.0,"bend":0.0,"ch":12,"track":7},{"t":1092.291,"dur":0.107,"note":76,"inst":"piano_v0_additive_0","vel":1.0,"bend":0.0,"ch":12,"track":7},{"t":1092.398,"dur":0.215,"note":57,"inst":"organ_v0_additive_1","vel":1.0,"bend":0.0,"ch":9,"track":7},{"t":1092.398,"dur":0.215,"note":76,"inst":"piano_v0_additive_0","vel":1.0,"bend":0.0,"ch":12,"track":7},{"t":1092.613,"dur":0.107,"note":79,"inst":"celesta_v0_additive_3","vel":1.0,"bend":0.0,"ch":15,"track":7},{"t":1092.72,"dur":0.107,"note":79,"inst":"celesta_v0_additive_3","vel":1.0,"bend":0.0,"ch":15,"track":7},{"t":1092.72,"dur":0.107,"note":69,"inst":"organ_v0_additive_1","vel":1.0,"bend":0.0,"ch":5,"track":7},{"t":1092.828,"dur":0.107,"note":74,"inst":"harpsichord_v0_additive_2","vel":1.0,"bend":0.0,"ch":10,"track":7},{"t":1092.828,"dur":0.107,"note":76,"inst":"piano_v0_additive_0","vel":1.0,"bend":0.0,"ch":12,"track":7},{"t":1092.935,"dur":0.107,"note":74,"inst":"harpsichord_v0_additive_2","vel":1.0,"bend":0.0,"ch":10,"track":7},{"t":1092.935,"dur":0.107,"note":74,"inst":"harpsichord_v0_additive_2","vel":1.0,"bend":0.0,"ch":10,"track":7},{"t":1093.042,"dur":0.107,"note":76,"inst":"piano_v0_additive_0","vel":1.0,"bend":0.0,"ch":12,"track":7},{"t":1093.15,"dur":0.107,"note":72,"inst":"piano_v0_additive_0","vel":1.0,"bend":0.0,"ch":8,"track":7},{"t":1093.15,"dur":0.107,"note":74,"inst":"harpsichord_v0_additive_2","vel":1.0,"bend":0.0,"ch":10,"track":7},{"t":1093.257,"dur":0.107,"note":69,"inst":"organ_v0_additive_1","vel":1.0,"bend":0.0,"ch":5,"track":7},{"t":1093.365,"dur":0.107,"note":57,"inst":"organ_v0_additive_1","vel":1.0,"bend":0.0,"ch":9,"track":7},{"t":1093.472,"dur":0.107,"note":62,"inst":"harpsichord_v0_additive_2","vel":1.0,"bend":0.0,"ch":14,"track":7},{"t":1093.579,"dur":0.107,"note":72,"inst":"piano_v0_additive_0","vel":1.0,"bend":0.0,"ch":8,"track":7},{"t":1093.687,"dur":0.107,"note":57,"inst":"organ_v0_additive_1","vel":1.0,"bend":0.0,"ch":9,"track":7},{"t":1093.794,"dur":0.107,"note":69,"inst":"organ_v0_additive_1","vel":1.0,"bend":0.0,"ch":5,"track":7},{"t":1093.901,"dur":0.107,"note":79,"inst":"celesta_v0_additive_3","vel":1.0,"bend":0.0,"ch":15,"track":7},{"t":1094.009,"dur":0.107,"note":74,"inst":"harpsichord_v0_additive_2","vel":1.0,"bend":0.0,"ch":10,"track":7},{"t":1094.009,"dur":0.107,"note":74,"inst":"harpsichord_v0_additive_2","vel":1.0,"bend":0.0,"ch":10,"track":7},{"t":1094.116,"dur":0.215,"note":67,"inst":"celesta_v0_additive_3","vel":1.0,"bend":0.0,"ch":3,"track":7},{"t":1094.116,"dur":0.215,"note":74,"inst":"harpsichord_v0_additive_2","vel":1.0,"bend":0.0,"ch":10,"track":7},{"t":1130.017,"dur":0.202,"note":40,"inst":"piano_v0_additive_0","vel":0.756,"bend":0.0,"ch":8,"track":7},{"t":1130.017,"dur":0.202,"note":52,"inst":"piano_v0_additive_0","vel":0.756,"bend":0.0,"ch":4,"track":7},{"t":1130.017,"dur":0.202,"note":52,"inst":"piano_v0_additive_0","vel":0.756,"bend":0.0,"ch":4,"track":7},{"t":1130.017,"dur":0.202,"note":52,"inst":"piano_v0_additive_0","vel":0.756,"bend":0.0,"ch":4,"track":7},{"t":1130.219,"dur":0.067,"note":40,"inst":"piano_v0_additive_0","vel":0.756,"bend":0.0,"ch":8,"track":7},{"t":1130.219,"dur":0.067,"note":52,"inst":"piano_v0_additive_0","vel":0.756,"bend":0.0,"ch":4,"track":7},{"t":1130.219,"dur":0.067,"note":52,"inst":"piano_v0_additive_0","vel":0.756,"bend":0.0,"ch":4,"track":7},{"t":1130.219,"dur":0.067,"note":52,"inst":"piano_v0_additive_0","vel":0.756,"bend":0.0,"ch":4,"track":7},{"t":1130.286,"dur":0.538,"note":45,"inst":"organ_v0_additive_1","vel":0.709,"bend":0.0,"ch":13,"track":7},{"t":1130.286,"dur":0.538,"note":38,"inst":"harpsichord_v0_additive_2","vel":0.709,"bend":0.0,"ch":6,"track":7},{"t":1130.286,"dur":0.538,"note":57,"inst":"organ_v0_additive_1","vel":0.709,"bend":0.0,"ch":9,"track":7},{"t":1130.286,"dur":0.538,"note":57,"inst":"organ_v0_additive_1","vel":0.709,"bend":0.0,"ch":9,"track":7},{"t":1130.286,"dur":0.538,"note":57,"inst":"organ_v0_additive_1","vel":0.709,"bend":0.0,"ch":9,"track":7},{"t":1130.825,"dur":0.269,"note":57,"inst":"organ_v0_additive_1","vel":0.709,"bend":0.0,"ch":9,"track":7},{"t":1130.825,"dur":0.269,"note":50,"inst":"harpsichord_v0_additive_2","vel":0.709,"bend":0.0,"ch":2,"track":7},{"t":1131.094,"dur":0.269,"note":59,"inst":"celesta_v0_additive_3","vel":0.709,"bend":0.0,"ch":11,"track":7},{"t":1131.094,"dur":0.269,"note":62,"inst":"harpsichord_v0_additive_2","vel":0.709,"bend":0.0,"ch":14,"track":7},{"t":1131.363,"dur":0.404,"note":50,"inst":"harpsichord_v0_additive_2","vel":0.709,"bend":0.0,"ch":2,"track":7},{"t":1131.363,"dur":0.404,"note":64,"inst":"piano_v0_additive_0","vel":0.709,"bend":0.0,"ch":0,"track":7},{"t":1131.767,"dur":0.067,"note":62,"inst":"harpsichord_v0_additive_2","vel":0.709,"bend":0.0,"ch":14,"track":7},{"t":1131.767,"dur":0.067,"note":66,"inst":"harpsichord_v0_additive_2","vel":0.709,"bend":0.0,"ch":2,"track":7},{"t":1131.834,"dur":0.067,"note":50,"inst":"harpsichord_v0_additive_2","vel":0.709,"bend":0.0,"ch":2,"track":7},{"t":1131.834,"dur":0.067,"note":64,"inst":"piano_v0_additive_0","vel":0.709,"bend":0.0,"ch":0,"track":7},{"t":1131.902,"dur":0.269,"note":59,"inst":"celesta_v0_additive_3","vel":0.709,"bend":0.0,"ch":11,"track":7},{"t":1131.902,"dur":0.269,"note":62,"inst":"harpsichord_v0_additive_2","vel":0.709,"bend":0.0,"ch":14,"track":7},{"t":1132.171,"dur":0.269,"note":57,"inst":"organ_v0_additive_1","vel":0.709,"bend":0.0,"ch":9,"track":7},{"t":1132.171,"dur":0.269,"note":50,"inst":"harpsichord_v0_additive_2","vel":0.709,"bend":0.0,"ch":2,"track":7},{"t":1132.171,"dur":0.269,"note":64,"inst":"piano_v0_additive_0","vel":0.709,"bend":0.0,"ch":0,"track":7},{"t":1132.171,"dur":0.269,"note":76,"inst":"piano_v0_additive_0","vel":0.709,"bend":0.0,"ch":12,"track":7},{"t":1132.44,"dur":0.269,"note":57,"inst":"organ_v0_additive_1","vel":0.709,"bend":0.0,"ch":9,"track":7},{"t":1132.44,"dur":0.269,"note":59,"inst":"celesta_v0_additive_3","vel":0.709,"bend":0.0,"ch":11,"track":7},{"t":1132.44,"dur":0.404,"note":64,"inst":"piano_v0_additive_0","vel":0.709,"bend":0.0,"ch":0,"track":7},{"t":1132.44,"dur":0.404,"note":76,"inst":"piano_v0_additive_0","vel":0.709,"bend":0.0,"ch":12,"track":7},{"t":1132.709,"dur":0.269,"note":52,"inst":"piano_v0_additive_0","vel":0.709,"bend":0.0,"ch":4,"track":7},{"t":1132.709,"dur":0.269,"note":57,"inst":"organ_v0_additive_1","vel":0.709,"bend":0.0,"ch":9,"track":7},{"t":1132.844,"dur":0.067,"note":66,"inst":"harpsichord_v0_additive_2","vel":0.709,"bend":0.0,"ch":2,"track":7},{"t":1132.844,"dur":0.067,"note":78,"inst":"harpsichord_v0_additive_2","vel":0.709,"bend":0.0,"ch":14,"track":7},{"t":1132.911,"dur":0.067,"note":62,"inst":"harpsichord_v0_additive_2","vel":0.709,"bend":0.0,"ch":14,"track":7},{"t":1132.911,"dur":0.067,"note":74,"inst":"harpsichord_v0_additive_2","vel":0.709,"bend":0.0,"ch":10,"track":7},{"t":1132.978,"dur":0.269,"note":57,"inst":"organ_v0_additive_1","vel":0.756,"bend":0.0,"ch":9,"track":7},{"t":1132.978,"dur":0.269,"note":57,"inst":"organ_v0_additive_1","vel":0.756,"bend":0.0,"ch":9,"track":7},{"t":1132.978,"dur":0.269,"note":50,"inst":"harpsichord_v0_additive_2","vel":0.709,"bend":0.0,"ch":2,"track":7},{"t":1132.978,"dur":0.269,"note":62,"inst":"harpsichord_v0_additive_2","vel":0.709,"bend":0.0,"ch":14,"track":7},{"t":1133.247,"dur":0.269,"note":50,"inst":"harpsichord_v0_additive_2","vel":0.756,"bend":0.0,"ch":2,"track":7},{"t":1133.247,"dur":0.269,"note":50,"inst":"harpsichord_v0_additive_2","vel":0.756,"bend":0.0,"ch":2,"track":7},{"t":1133.247,"dur":0.202,"note":66,"inst":"harpsichord_v0_additive_2","vel":0.709,"bend":0.0,"ch":2,"track":7},{"t":1133.247,"dur":0.202,"note":74,"inst":"harpsichord_v0_additive_2","vel":0.709,"bend":0.0,"ch":10,"track":7},{"t":1133.449,"dur":0.067,"note":62,"inst":"harpsichord_v0_additive_2","vel":0.709,"bend":0.0,"ch":14,"track":7},{"t":1133.449,"dur":0.067,"note":71,"inst":"celesta_v0_additive_3","vel":0.709,"bend":0.0,"ch":7,"track":7},{"t":1133.517,"dur":0.269,"note":52,"inst":"piano_v0_additive_0","vel":0.756,"bend":0.0,"ch":4,"track":7},{"t":1133.517,"dur":0.269,"note":52,"inst":"piano_v0_additive_0","vel":0.756,"bend":0.0,"ch":4,"track":7},{"t":1133.517,"dur":0.538,"note":50,"inst":"harpsichord_v0_additive_2","vel":0.709,"bend":0.0,"ch":2,"track":7},{"t":1133.517,"dur":0.538,"note":69,"inst":"organ_v0_additive_1","vel":0.709,"bend":0.0,"ch":5,"track":7},{"t":1133.786,"dur":0.269,"note":40,"inst":"piano_v0_additive_0","vel":0.756,"bend":0.0,"ch":8,"track":7},{"t":1133.786,"dur":0.269,"note":64,"inst":"piano_v0_additive_0","vel":0.756,"bend":0.0,"ch":0,"track":7},{"t":1134.055,"dur":0.269,"note":40,"inst":"piano_v0_additive_0","vel":0.756,"bend":0.0,"ch":8,"track":7},{"t":1134.055,"dur":0.269,"note":52,"inst":"piano_v0_additive_0","vel":0.756,"bend":0.0,"ch":4,"track":7},{"t":1134.055,"dur":0.269,"note":59,"inst":"celesta_v0_additive_3","vel":0.709,"bend":0.0,"ch":11,"track":7},{"t":1134.055,"dur":0.269,"note":69,"inst":"organ_v0_additive_1","vel":0.709,"bend":0.0,"ch":5,"track":7},{"t":1134.324,"dur":0.202,"note":40,"inst":"piano_v0_additive_0","vel":0.756,"bend":0.0,"ch":8,"track":7},{"t":1134.324,"dur":0.202,"note":52,"inst":"piano_v0_additive_0","vel":0.756,"bend":0.0,"ch":4,"track":7},{"t":1134.526,"dur":0.067,"note":40,"inst":"piano_v0_additive_0","vel":0.756,"bend":0.0,"ch":8,"track":7},{"t":1134.526,"dur":0.067,"note":52,"inst":"piano_v0_additive_0","vel":0.756,"bend":0.0,"ch":4,"track":7},{"t":1134.593,"dur":0.404,"note":59,"inst":"celesta_v0_additive_3","vel":0.709,"bend":0.0,"ch":11,"track":7},{"t":1134.593,"dur":0.404,"note":62,"inst":"harpsichord_v0_additive_2","vel":0.709,"bend":0.0,"ch":14,"track":7},{"t":1134.997,"dur":0.067,"note":50,"inst":"harpsichord_v0_additive_2","vel":0.709,"bend":0.0,"ch":2,"track":7},{"t":1134.997,"dur":0.067,"note":64,"inst":"piano_v0_additive_0","vel":0.709,"bend":0.0,"ch":0,"track":7},{"t":1135.064,"dur":0.067,"note":59,"inst":"celesta_v0_additive_3","vel":0.709,"bend":0.0,"ch":11,"track":7},{"t":1135.064,"dur":0.067,"note":62,"inst":"harpsichord_v0_additive_2","vel":0.709,"bend":0.0,"ch":14,"track":7},{"t":1135.132,"dur":0.269,"note":57,"inst":"organ_v0_additive_1","vel":0.709,"bend":0.0,"ch":9,"track":7},{"t":1135.132,"dur":0.269,"note":50,"inst":"harpsichord_v0_additive_2","vel":0.709,"bend":0.0,"ch":2,"track":7},{"t":1135.401,"dur":0.269,"note":59,"inst":"celesta_v0_additive_3","vel":0.709,"bend":0.0,"ch":11,"track":7},{"t":1135.401,"dur":0.269,"note":62,"inst":"harpsichord_v0_additive_2","vel":0.709,"bend":0.0,"ch":14,"track":7},{"t":1135.401,"dur":0.202,"note":64,"inst":"piano_v0_additive_0","vel":0.756,"bend":0.0,"ch":0,"track":7},{"t":1135.401,"dur":0.202,"note":64,"inst":"piano_v0_additive_0","vel":0.756,"bend":0.0,"ch":0,"track":7},{"t":1135.603,"dur":0.067,"note":64,"inst":"piano_v0_additive_0","vel":0.756,"bend":0.0,"ch":0,"track":7},{"t":1135.603,"dur":0.067,"note":64,"inst":"piano_v0_additive_0","vel":0.756,"bend":0.0,"ch":0,"track":7},{"t":1135.67,"dur":0.538,"note":57,"inst":"organ_v0_additive_1","vel":0.709,"bend":0.0,"ch":9,"track":7},{"t":1135.67,"dur":0.538,"note":59,"inst":"celesta_v0_additive_3","vel":0.709,"bend":0.0,"ch":11,"track":7},{"t":1135.67,"dur":0.404,"note":74,"inst":"harpsichord_v0_additive_2","vel":0.709,"bend":0.0,"ch":10,"track":7},{"t":1135.67,"dur":0.404,"note":78,"inst":"harpsichord_v0_additive_2","vel":0.709,"bend":0.0,"ch":14,"track":7},{"t":1136.074,"dur":0.045,"note":78,"inst":"harpsichord_v0_additive_2","vel":0.709,"bend":0.0,"ch":14,"track":7},{"t":1136.074,"dur":0.045,"note":81,"inst":"organ_v0_additive_1","vel":0.709,"bend":0.0,"ch":1,"track":7},{"t":1136.118,"dur":0.045,"note":76,"inst":"piano_v0_additive_0","vel":0.709,"bend":0.0,"ch":12,"track":7},{"t":1136.118,"dur":0.045,"note":81,"inst":"organ_v0_additive_1","vel":0.709,"bend":0.0,"ch":1,"track":7},{"t":1136.164,"dur":0.045,"note":74,"inst":"harpsichord_v0_additive_2","vel":0.709,"bend":0.0,"ch":10,"track":7},{"t":1136.164,"dur":0.045,"note":78,"inst":"harpsichord_v0_additive_2","vel":0.709,"bend":0.0,"ch":14,"track":7},{"t":1136.208,"dur":0.135,"note":57,"inst":"organ_v0_additive_1","vel":0.709,"bend":0.0,"ch":9,"track":7},{"t":1136.208,"dur":0.135,"note":50,"inst":"harpsichord_v0_additive_2","vel":0.709,"bend":0.0,"ch":2,"track":7},{"t":1136.208,"dur":0.135,"note":62,"inst":"harpsichord_v0_additive_2","vel":0.756,"bend":0.0,"ch":14,"track":7},{"t":1136.208,"dur":0.135,"note":76,"inst":"piano_v0_additive_0","vel":0.756,"bend":0.0,"ch":12,"track":7},{"t":1136.343,"dur":0.135,"note":52,"inst":"piano_v0_additive_0","vel":0.756,"bend":0.0,"ch":4,"track":7},{"t":1136.343,"dur":0.135,"note":57,"inst":"organ_v0_additive_1","vel":0.756,"bend":0.0,"ch":9,"track":7},{"t":1136.343,"dur":0.135,"note":71,"inst":"celesta_v0_additive_3","vel":0.756,"bend":0.0,"ch":7,"track":7},{"t":1136.343,"dur":0.135,"note":74,"inst":"harpsichord_v0_additive_2","vel":0.756,"bend":0.0,"ch":10,"track":7},{"t":1136.478,"dur":0.135,"note":54,"inst":"harpsichord_v0_additive_2","vel":0.756,"bend":0.0,"ch":6,"track":7},{"t":1136.478,"dur":0.135,"note":57,"inst":"organ_v0_additive_1","vel":0.756,"bend":0.0,"ch":9,"track":7},{"t":1136.478,"dur":0.135,"note":69,"inst":"organ_v0_additive_1","vel":0.756,"bend":0.0,"ch":5,"track":7},{"t":1136.478,"dur":0.135,"note":62,"inst":"harpsichord_v0_additive_2","vel":0.756,"bend":0.0,"ch":14,"track":7},{"t":1136.612,"dur":0.135,"note":50,"inst":"harpsichord_v0_additive_2","vel":0.756,"bend":0.0,"ch":2,"track":7},{"t":1136.612,"dur":0.135,"note":50,"inst":"harpsichord_v0_additive_2","vel":0.756,"bend":0.0,"ch":2,"track":7},{"t":1136.612,"dur":0.135,"note":66,"inst":"harpsichord_v0_additive_2","vel":0.756,"bend":0.0,"ch":2,"track":7},{"t":1136.612,"dur":0.135,"note":71,"inst":"celesta_v0_additive_3","vel":0.756,"bend":0.0,"ch":7,"track":7},{"t":1136.747,"dur":0.269,"note":52,"inst":"piano_v0_additive_0","vel":0.709,"bend":0.0,"ch":4,"track":7},{"t":1136.747,"dur":0.538,"note":52,"inst":"piano_v0_additive_0","vel":0.709,"bend":0.0,"ch":4,"track":7},{"t":1136.747,"dur":0.269,"note":50,"inst":"harpsichord_v0_additive_2","vel":0.709,"bend":0.0,"ch":2,"track":7},{"t":1136.747,"dur":0.269,"note":69,"inst":"organ_v0_additive_1","vel":0.709,"bend":0.0,"ch":5,"track":7},{"t":1137.285,"dur":0.404,"note":50,"inst":"harpsichord_v0_additive_2","vel":0.709,"bend":0.0,"ch":2,"track":7},{"t":1137.285,"dur":0.538,"note":57,"inst":"organ_v0_additive_1","vel":0.709,"bend":0.0,"ch":9,"track":7},{"t":1137.285,"dur":0.404,"note":64,"inst":"piano_v0_additive_0","vel":0.709,"bend":0.0,"ch":0,"track":7},{"t":1137.554,"dur":0.269,"note":40,"inst":"piano_v0_additive_0","vel":0.709,"bend":0.0,"ch":8,"track":7},{"t":1137.689,"dur":0.135,"note":47,"inst":"celesta_v0_additive_3","vel":0.709,"bend":0.0,"ch":15,"track":7},{"t":1137.689,"dur":0.067,"note":66,"inst":"harpsichord_v0_additive_2","vel":0.709,"bend":0.0,"ch":2,"track":7},{"t":1137.756,"dur":0.067,"note":62,"inst":"harpsichord_v0_additive_2","vel":0.709,"bend":0.0,"ch":14,"track":7},{"t":1137.823,"dur":0.269,"note":33,"inst":"organ_v0_additive_1","vel":0.709,"bend":0.0,"ch":1,"track":7},{"t":1137.823,"dur":0.135,"note":45,"inst":"organ_v0_additive_1","vel":0.756,"bend":0.0,"ch":13,"track":7},{"t":1137.823,"dur":0.135,"note":57,"inst":"organ_v0_additive_1","vel":0.709,"bend":0.0,"ch":9,"track":7},{"t":1137.823,"dur":0.269,"note":50,"inst":"harpsichord_v0_additive_2","vel":0.709,"bend":0.0,"ch":2,"track":7},{"t":1137.958,"dur":0.135,"note":57,"inst":"organ_v0_additive_1","vel":0.756,"bend":0.0,"ch":9,"track":7},{"t":1137.958,"dur":0.135,"note":50,"inst":"harpsichord_v0_additive_2","vel":0.756,"bend":0.0,"ch":2,"track":7},{"t":1138.093,"dur":0.269,"note":26,"inst":"harpsichord_v0_additive_2","vel":0.709,"bend":0.0,"ch":10,"track":7},{"t":1138.093,"dur":0.135,"note":57,"inst":"organ_v0_additive_1","vel":0.756,"bend":0.0,"ch":9,"track":7},{"t":1138.093,"dur":0.135,"note":50,"inst":"harpsichord_v0_additive_2","vel":0.756,"bend":0.0,"ch":2,"track":7},{"t":1138.227,"dur":0.135,"note":57,"inst":"organ_v0_additive_1","vel":0.756,"bend":0.0,"ch":9,"track":7},{"t":1138.227,"dur":0.135,"note":50,"inst":"harpsichord_v0_additive_2","vel":0.756,"bend":0.0,"ch":2,"track":7},{"t":1138.362,"dur":0.269,"note":40,"inst":"piano_v0_additive_0","vel":0.709,"bend":0.0,"ch":8,"track":7},{"t":1138.362,"dur":0.135,"note":57,"inst":"organ_v0_additive_1","vel":0.756,"bend":0.0,"ch":9,"track":7},{"t":1138.362,"dur":0.135,"note":50,"inst":"harpsichord_v0_additive_2","vel":0.756,"bend":0.0,"ch":2,"track":7},{"t":1138.496,"dur":0.135,"note":57,"inst":"organ_v0_additive_1","vel":0.756,"bend":0.0,"ch":9,"track":7},{"t":1138.496,"dur":0.135,"note":50,"inst":"harpsichord_v0_additive_2","vel":0.756,"bend":0.0,"ch":2,"track":7},{"t":1138.631,"dur":0.269,"note":45,"inst":"organ_v0_additive_1","vel":0.709,"bend":0.0,"ch":13,"track":7},{"t":1138.631,"dur":0.135,"note":57,"inst":"organ_v0_additive_1","vel":0.756,"bend":0.0,"ch":9,"track":7},{"t":1138.631,"dur":0.135,"note":50,"inst":"harpsichord_v0_additive_2","vel":0.756,"bend":0.0,"ch":2,"track":7},{"t":1138.631,"dur":0.202,"note":69,"inst":"organ_v0_additive_1","vel":0.756,"bend":0.0,"ch":5,"track":7},{"t":1138.766,"dur":0.135,"note":57,"inst":"organ_v0_additive_1","vel":0.756,"bend":0.0,"ch":9,"track":7},{"t":1138.766,"dur":0.135,"note":50,"inst":"harpsichord_v0_additive_2","vel":0.756,"bend":0.0,"ch":2,"track":7},{"t":1138.833,"dur":0.067,"note":69,"inst":"organ_v0_additive_1","vel":0.756,"bend":0.0,"ch":5,"track":7},{"t":1138.9,"dur":0.269,"note":38,"inst":"harpsichord_v0_additive_2","vel":0.709,"bend":0.0,"ch":6,"track":7},{"t":1138.9,"dur":0.135,"note":57,"inst":"organ_v0_additive_1","vel":0.709,"bend":0.0,"ch":9,"track":7},{"t":1138.9,"dur":0.135,"note":64,"inst":"piano_v0_additive_0","vel":0.709,"bend":0.0,"ch":0,"track":7},{"t":1138.9,"dur":0.673,"note":78,"inst":"harpsichord_v0_additive_2","vel":0.709,"bend":0.0,"ch":14,"track":7},{"t":1139.035,"dur":0.135,"note":57,"inst":"organ_v0_additive_1","vel":0.709,"bend":0.0,"ch":9,"track":7},{"t":1139.035,"dur":0.135,"note":64,"inst":"piano_v0_additive_0","vel":0.709,"bend":0.0,"ch":0,"track":7},{"t":1139.169,"dur":0.269,"note":52,"inst":"piano_v0_additive_0","vel":0.709,"bend":0.0,"ch":4,"track":7},{"t":1139.169,"dur":0.135,"note":50,"inst":"harpsichord_v0_additive_2","vel":0.709,"bend":0.0,"ch":2,"track":7},{"t":1139.169,"dur":0.135,"note":64,"inst":"piano_v0_additive_0","vel":0.709,"bend":0.0,"ch":0,"track":7},{"t":1139.304,"dur":0.135,"note":50,"inst":"harpsichord_v0_additive_2","vel":0.709,"bend":0.0,"ch":2,"track":7},{"t":1139.304,"dur":0.135,"note":64,"inst":"piano_v0_additive_0","vel":0.709,"bend":0.0,"ch":0,"track":7},{"t":1139.439,"dur":0.269,"note":57,"inst":"organ_v0_additive_1","vel":0.709,"bend":0.0,"ch":9,"track":7},{"t":1139.439,"dur":0.135,"note":50,"inst":"harpsichord_v0_additive_2","vel":0.709,"bend":0.0,"ch":2,"track":7},{"t":1139.439,"dur":0.135,"note":64,"inst":"piano_v0_additive_0","vel":0.709,"bend":0.0,"ch":0,"track":7},{"t":1139.573,"dur":0.135,"note":50,"inst":"harpsichord_v0_additive_2","vel":0.709,"bend":0.0,"ch":2,"track":7},{"t":1139.573,"dur":0.135,"note":64,"inst":"piano_v0_additive_0","vel":0.709,"bend":0.0,"ch":0,"track":7},{"t":1139.573,"dur":0.067,"note":78,"inst":"harpsichord_v0_additive_2","vel":0.709,"bend":0.0,"ch":14,"track":7},{"t":1139.64,"dur":0.067,"note":78,"inst":"harpsichord_v0_additive_2","vel":0.709,"bend":0.0,"ch":14,"track":7},{"t":1139.708,"dur":0.135,"note":50,"inst":"harpsichord_v0_additive_2","vel":0.709,"bend":0.0,"ch":2,"track":7},{"t":1139.708,"dur":0.269,"note":50,"inst":"harpsichord_v0_additive_2","vel":0.709,"bend":0.0,"ch":2,"track":7},{"t":1139.708,"dur":0.135,"note":64,"inst":"piano_v0_additive_0","vel":0.709,"bend":0.0,"ch":0,"track":7},{"t":1139.708,"dur":0.067,"note":78,"inst":"harpsichord_v0_additive_2","vel":0.709,"bend":0.0,"ch":14,"track":7},{"t":1139.775,"dur":0.067,"note":78,"inst":"harpsichord_v0_additive_2","vel":0.709,"bend":0.0,"ch":14,"track":7},{"t":1139.842,"dur":0.135,"note":50,"inst":"harpsichord_v0_additive_2","vel":0.709,"bend":0.0,"ch":2,"track":7},{"t":1139.842,"dur":0.135,"note":64,"inst":"piano_v0_additive_0","vel":0.709,"bend":0.0,"ch":0,"track":7},{"t":1139.842,"dur":0.067,"note":81,"inst":"organ_v0_additive_1","vel":0.709,"bend":0.0,"ch":1,"track":7},{"t":1139.91,"dur":0.067,"note":78,"inst":"harpsichord_v0_additive_2","vel":0.709,"bend":0.0,"ch":14,"track":7},{"t":1139.977,"dur":0.269,"note":33,"inst":"organ_v0_additive_1","vel":0.709,"bend":0.0,"ch":1,"track":7},{"t":1139.977,"dur":0.135,"note":62,"inst":"harpsichord_v0_additive_2","vel":0.709,"bend":0.0,"ch":14,"track":7},{"t":1139.977,"dur":0.135,"note":66,"inst":"harpsichord_v0_additive_2","vel":0.709,"bend":0.0,"ch":2,"track":7},{"t":1139.977,"dur":0.269,"note":78,"inst":"harpsichord_v0_additive_2","vel":0.709,"bend":0.0,"ch":14,"track":7},{"t":1140.111,"dur":0.135,"note":62,"inst":"harpsichord_v0_additive_2","vel":0.709,"bend":0.0,"ch":14,"track":7},{"t":1140.111,"dur":0.135,"note":66,"inst":"harpsichord_v0_additive_2","vel":0.709,"bend":0.0,"ch":2,"track":7},{"t":1140.246,"dur":0.269,"note":38,"inst":"harpsichord_v0_additive_2","vel":0.709,"bend":0.0,"ch":6,"track":7},{"t":1140.246,"dur":0.135,"note":62,"inst":"harpsichord_v0_additive_2","vel":0.709,"bend":0.0,"ch":14,"track":7},{"t":1140.246,"dur":0.135,"note":66,"inst":"harpsichord_v0_additive_2","vel":0.709,"bend":0.0,"ch":2,"track":7},{"t":1140.381,"dur":0.135,"note":62,"inst":"harpsichord_v0_additive_2","vel":0.709,"bend":0.0,"ch":14,"track":7},{"t":1140.381,"dur":0.135,"note":66,"inst":"harpsichord_v0_additive_2","vel":0.709,"bend":0.0,"ch":2,"track":7},{"t":1140.515,"dur":0.269,"note":42,"inst":"harpsichord_v0_additive_2","vel":0.709,"bend":0.0,"ch":10,"track":7},{"t":1140.515,"dur":0.135,"note":62,"inst":"harpsichord_v0_additive_2","vel":0.709,"bend":0.0,"ch":14,"track":7},{"t":1140.515,"dur":0.135,"note":66,"inst":"harpsichord_v0_additive_2","vel":0.709,"bend":0.0,"ch":2,"track":7},{"t":1140.65,"dur":0.135,"note":62,"inst":"harpsichord_v0_additive_2","vel":0.709,"bend":0.0,"ch":14,"track":7},{"t":1140.65,"dur":0.135,"note":66,"inst":"harpsichord_v0_additive_2","vel":0.709,"bend":0.0,"ch":2,"track":7},{"t":1140.784,"dur":0.269,"note":45,"inst":"organ_v0_additive_1","vel":0.709,"bend":0.0,"ch":13,"track":7},{"t":1140.784,"dur":0.135,"note":62,"inst":"harpsichord_v0_additive_2","vel":0.709,"bend":0.0,"ch":14,"track":7},{"t":1140.784,"dur":0.135,"note":66,"inst":"harpsichord_v0_additive_2","vel":0.709,"bend":0.0,"ch":2,"track":7},{"t":1140.784,"dur":0.202,"note":78,"inst":"harpsichord_v0_additive_2","vel":0.756,"bend":0.0,"ch":14,"track":7},{"t":1140.919,"dur":0.135,"note":62,"inst":"harpsichord_v0_additive_2","vel":0.709,"bend":0.0,"ch":14,"track":7},{"t":1140.919,"dur":0.135,"note":66,"inst":"harpsichord_v0_additive_2","vel":0.709,"bend":0.0,"ch":2,"track":7},{"t":1140.986,"dur":0.067,"note":78,"inst":"harpsichord_v0_additive_2","vel":0.756,"bend":0.0,"ch":14,"track":7},{"t":1141.054,"dur":0.269,"note":33,"inst":"organ_v0_additive_1","vel":0.709,"bend":0.0,"ch":1,"track":7},{"t":1141.054,"dur":0.135,"note":59,"inst":"celesta_v0_additive_3","vel":0.709,"bend":0.0,"ch":11,"track":7},{"t":1141.054,"dur":0.135,"note":62,"inst":"harpsichord_v0_additive_2","vel":0.709,"bend":0.0,"ch":14,"track":7},{"t":1141.054,"dur":0.135,"note":69,"inst":"organ_v0_additive_1","vel":0.709,"bend":0.0,"ch":5,"track":7},{"t":1141.054,"dur":0.673,"note":86,"inst":"harpsichord_v0_additive_2","vel":0.709,"bend":0.0,"ch":6,"track":7},{"t":1141.188,"dur":0.135,"note":59,"inst":"celesta_v0_additive_3","vel":0.709,"bend":0.0,"ch":11,"track":7},{"t":1141.188,"dur":0.135,"note":62,"inst":"harpsichord_v0_additive_2","vel":0.709,"bend":0.0,"ch":14,"track":7},{"t":1141.188,"dur":0.135,"note":69,"inst":"organ_v0_additive_1","vel":0.709,"bend":0.0,"ch":5,"track":7},{"t":1141.323,"dur":0.269,"note":57,"inst":"organ_v0_additive_1","vel":0.709,"bend":0.0,"ch":9,"track":7},{"t":1141.323,"dur":0.135,"note":59,"inst":"celesta_v0_additive_3","vel":0.709,"bend":0.0,"ch":11,"track":7},{"t":1141.323,"dur":0.135,"note":62,"inst":"harpsichord_v0_additive_2","vel":0.709,"bend":0.0,"ch":14,"track":7},{"t":1141.323,"dur":0.135,"note":69,"inst":"organ_v0_additive_1","vel":0.709,"bend":0.0,"ch":5,"track":7},{"t":1141.457,"dur":0.135,"note":59,"inst":"celesta_v0_additive_3","vel":0.709,"bend":0.0,"ch":11,"track":7},{"t":1141.457,"dur":0.135,"note":62,"inst":"harpsichord_v0_additive_2","vel":0.709,"bend":0.0,"ch":14,"track":7},{"t":1141.457,"dur":0.135,"note":69,"inst":"organ_v0_additive_1","vel":0.709,"bend":0.0,"ch":5,"track":7},{"t":1141.592,"dur":0.135,"note":59,"inst":"celesta_v0_additive_3","vel":0.709,"bend":0.0,"ch":11,"track":7},{"t":1141.592,"dur":0.269,"note":59,"inst":"celesta_v0_additive_3","vel":0.709,"bend":0.0,"ch":11,"track":7},{"t":1141.592,"dur":0.135,"note":62,"inst":"harpsichord_v0_additive_2","vel":0.709,"bend":0.0,"ch":14,"track":7},{"t":1141.592,"dur":0.135,"note":69,"inst":"organ_v0_additive_1","vel":0.709,"bend":0.0,"ch":5,"track":7},{"t":1141.727,"dur":0.135,"note":59,"inst":"celesta_v0_additive_3","vel":0.709,"bend":0.0,"ch":11,"track":7},{"t":1141.727,"dur":0.135,"note":62,"inst":"harpsichord_v0_additive_2","vel":0.709,"bend":0.0,"ch":14,"track":7},{"t":1141.727,"dur":0.135,"note":69,"inst":"organ_v0_additive_1","vel":0.709,"bend":0.0,"ch":5,"track":7},{"t":1141.727,"dur":0.067,"note":74,"inst":"harpsichord_v0_additive_2","vel":0.709,"bend":0.0,"ch":10,"track":7},{"t":1141.794,"dur":0.067,"note":83,"inst":"celesta_v0_additive_3","vel":0.709,"bend":0.0,"ch":3,"track":7},{"t":1141.861,"dur":0.135,"note":62,"inst":"harpsichord_v0_additive_2","vel":0.709,"bend":0.0,"ch":14,"track":7},{"t":1141.861,"dur":0.269,"note":62,"inst":"harpsichord_v0_additive_2","vel":0.709,"bend":0.0,"ch":14,"track":7},{"t":1141.861,"dur":0.135,"note":71,"inst":"celesta_v0_additive_3","vel":0.709,"bend":0.0,"ch":7,"track":7},{"t":1141.861,"dur":0.067,"note":74,"inst":"harpsichord_v0_additive_2","vel":0.709,"bend":0.0,"ch":10,"track":7},{"t":1141.928,"dur":0.067,"note":83,"inst":"celesta_v0_additive_3","vel":0.709,"bend":0.0,"ch":3,"track":7},{"t":1141.996,"dur":0.135,"note":62,"inst":"harpsichord_v0_additive_2","vel":0.709,"bend":0.0,"ch":14,"track":7},{"t":1141.996,"dur":0.135,"note":71,"inst":"celesta_v0_additive_3","vel":0.709,"bend":0.0,"ch":7,"track":7},{"t":1141.996,"dur":0.067,"note":81,"inst":"organ_v0_additive_1","vel":0.709,"bend":0.0,"ch":1,"track":7},{"t":1142.063,"dur":0.067,"note":81,"inst":"organ_v0_additive_1","vel":0.709,"bend":0.0,"ch":1,"track":7},{"t":1142.13,"dur":0.269,"note":33,"inst":"organ_v0_additive_1","vel":0.709,"bend":0.0,"ch":1,"track":7},{"t":1142.13,"dur":0.135,"note":50,"inst":"harpsichord_v0_additive_2","vel":0.709,"bend":0.0,"ch":2,"track":7},{"t":1142.13,"dur":0.135,"note":69,"inst":"organ_v0_additive_1","vel":0.709,"bend":0.0,"ch":5,"track":7},{"t":1142.13,"dur":0.269,"note":81,"inst":"organ_v0_additive_1","vel":0.709,"bend":0.0,"ch":1,"track":7},{"t":1142.265,"dur":0.135,"note":52,"inst":"piano_v0_additive_0","vel":0.709,"bend":0.0,"ch":4,"track":7},{"t":1142.265,"dur":0.135,"note":57,"inst":"organ_v0_additive_1","vel":0.709,"bend":0.0,"ch":9,"track":7},{"t":1142.265,"dur":0.135,"note":50,"inst":"harpsichord_v0_additive_2","vel":0.709,"bend":0.0,"ch":2,"track":7},{"t":1142.399,"dur":0.269,"note":26,"inst":"harpsichord_v0_additive_2","vel":0.709,"bend":0.0,"ch":10,"track":7},{"t":1142.399,"dur":0.135,"note":52,"inst":"piano_v0_additive_0","vel":0.709,"bend":0.0,"ch":4,"track":7},{"t":1142.399,"dur":0.135,"note":57,"inst":"organ_v0_additive_1","vel":0.709,"bend":0.0,"ch":9,"track":7},{"t":1142.399,"dur":0.135,"note":50,"inst":"harpsichord_v0_additive_2","vel":0.709,"bend":0.0,"ch":2,"track":7},{"t":1142.534,"dur":0.135,"note":52,"inst":"piano_v0_additive_0","vel":0.709,"bend":0.0,"ch":4,"track":7},{"t":1142.534,"dur":0.135,"note":57,"inst":"organ_v0_additive_1","vel":0.709,"bend":0.0,"ch":9,"track":7},{"t":1142.534,"dur":0.135,"note":50,"inst":"harpsichord_v0_additive_2","vel":0.709,"bend":0.0,"ch":2,"track":7},{"t":1142.669,"dur":0.269,"note":40,"inst":"piano_v0_additive_0","vel":0.709,"bend":0.0,"ch":8,"track":7},{"t":1142.669,"dur":0.135,"note":52,"inst":"piano_v0_additive_0","vel":0.709,"bend":0.0,"ch":4,"track":7},{"t":1142.669,"dur":0.135,"note":57,"inst":"organ_v0_additive_1","vel":0.709,"bend":0.0,"ch":9,"track":7},{"t":1142.669,"dur":0.135,"note":50,"inst":"harpsichord_v0_additive_2","vel":0.709,"bend":0.0,"ch":2,"track":7},{"t":1142.803,"dur":0.135,"note":52,"inst":"piano_v0_additive_0","vel":0.709,"bend":0.0,"ch":4,"track":7},{"t":1142.803,"dur":0.135,"note":57,"inst":"organ_v0_additive_1","vel":0.709,"bend":0.0,"ch":9,"track":7},{"t":1142.803,"dur":0.135,"note":50,"inst":"harpsichord_v0_additive_2","vel":0.709,"bend":0.0,"ch":2,"track":7},{"t":1142.938,"dur":0.269,"note":45,"inst":"organ_v0_additive_1","vel":0.709,"bend":0.0,"ch":13,"track":7},{"t":1142.938,"dur":0.135,"note":52,"inst":"piano_v0_additive_0","vel":0.709,"bend":0.0,"ch":4,"track":7},{"t":1142.938,"dur":0.135,"note":57,"inst":"organ_v0_additive_1","vel":0.709,"bend":0.0,"ch":9,"track":7},{"t":1142.938,"dur":0.135,"note":50,"inst":"harpsichord_v0_additive_2","vel":0.709,"bend":0.0,"ch":2,"track":7},{"t":1142.938,"dur":0.202,"note":69,"inst":"organ_v0_additive_1","vel":0.756,"bend":0.0,"ch":5,"track":7},{"t":1143.072,"dur":0.135,"note":52,"inst":"piano_v0_additive_0","vel":0.709,"bend":0.0,"ch":4,"track":7},{"t":1143.072,"dur":0.135,"note":57,"inst":"organ_v0_additive_1","vel":0.709,"bend":0.0,"ch":9,"track":7},{"t":1143.072,"dur":0.135,"note":50,"inst":"harpsichord_v0_additive_2","vel":0.709,"bend":0.0,"ch":2,"track":7},{"t":1143.14,"dur":0.067,"note":69,"inst":"organ_v0_additive_1","vel":0.756,"bend":0.0,"ch":5,"track":7},{"t":1143.207,"dur":0.269,"note":38,"inst":"harpsichord_v0_additive_2","vel":0.709,"bend":0.0,"ch":6,"track":7},{"t":1143.207,"dur":0.135,"note":57,"inst":"organ_v0_additive_1","vel":0.709,"bend":0.0,"ch":9,"track":7},{"t":1143.207,"dur":0.135,"note":64,"inst":"piano_v0_additive_0","vel":0.709,"bend":0.0,"ch":0,"track":7},{"t":1143.207,"dur":0.673,"note":78,"inst":"harpsichord_v0_additive_2","vel":0.709,"bend":0.0,"ch":14,"track":7},{"t":1143.342,"dur":0.135,"note":57,"inst":"organ_v0_additive_1","vel":0.709,"bend":0.0,"ch":9,"track":7},{"t":1143.342,"dur":0.135,"note":64,"inst":"piano_v0_additive_0","vel":0.709,"bend":0.0,"ch":0,"track":7},{"t":1143.476,"dur":0.269,"note":52,"inst":"piano_v0_additive_0","vel":0.709,"bend":0.0,"ch":4,"track":7},{"t":1143.476,"dur":0.135,"note":50,"inst":"harpsichord_v0_additive_2","vel":0.709,"bend":0.0,"ch":2,"track":7},{"t":1143.476,"dur":0.135,"note":64,"inst":"piano_v0_additive_0","vel":0.709,"bend":0.0,"ch":0,"track":7},{"t":1143.611,"dur":0.135,"note":50,"inst":"harpsichord_v0_additive_2","vel":0.709,"bend":0.0,"ch":2,"track":7},{"t":1143.611,"dur":0.135,"note":64,"inst":"piano_v0_additive_0","vel":0.709,"bend":0.0,"ch":0,"track":7},{"t":1143.745,"dur":0.269,"note":57,"inst":"organ_v0_additive_1","vel":0.709,"bend":0.0,"ch":9,"track":7},{"t":1143.745,"dur":0.135,"note":50,"inst":"harpsichord_v0_additive_2","vel":0.709,"bend":0.0,"ch":2,"track":7},{"t":1143.745,"dur":0.135,"note":64,"inst":"piano_v0_additive_0","vel":0.709,"bend":0.0,"ch":0,"track":7},{"t":1143.88,"dur":0.135,"note":50,"inst":"harpsichord_v0_additive_2","vel":0.709,"bend":0.0,"ch":2,"track":7},{"t":1143.88,"dur":0.135,"note":64,"inst":"piano_v0_additive_0","vel":0.709,"bend":0.0,"ch":0,"track":7},{"t":1143.88,"dur":0.067,"note":78,"inst":"harpsichord_v0_additive_2","vel":0.709,"bend":0.0,"ch":14,"track":7},{"t":1143.947,"dur":0.067,"note":78,"inst":"harpsichord_v0_additive_2","vel":0.709,"bend":0.0,"ch":14,"track":7},{"t":1144.015,"dur":0.135,"note":50,"inst":"harpsichord_v0_additive_2","vel":0.709,"bend":0.0,"ch":2,"track":7},{"t":1144.015,"dur":0.269,"note":50,"inst":"harpsichord_v0_additive_2","vel":0.709,"bend":0.0,"ch":2,"track":7},{"t":1144.015,"dur":0.135,"note":64,"inst":"piano_v0_additive_0","vel":0.709,"bend":0.0,"ch":0,"track":7},{"t":1144.015,"dur":0.067,"note":78,"inst":"harpsichord_v0_additive_2","vel":0.709,"bend":0.0,"ch":14,"track":7},{"t":1144.082,"dur":0.067,"note":78,"inst":"harpsichord_v0_additive_2","vel":0.709,"bend":0.0,"ch":14,"track":7},{"t":1144.149,"dur":0.135,"note":50,"inst":"harpsichord_v0_additive_2","vel":0.709,"bend":0.0,"ch":2,"track":7},{"t":1144.149,"dur":0.135,"note":64,"inst":"piano_v0_additive_0","vel":0.709,"bend":0.0,"ch":0,"track":7},{"t":1144.149,"dur":0.067,"note":81,"inst":"organ_v0_additive_1","vel":0.709,"bend":0.0,"ch":1,"track":7},{"t":1144.216,"dur":0.067,"note":78,"inst":"harpsichord_v0_additive_2","vel":0.709,"bend":0.0,"ch":14,"track":7},{"t":1144.284,"dur":0.269,"note":33,"inst":"organ_v0_additive_1","vel":0.709,"bend":0.0,"ch":1,"track":7},{"t":1144.284,"dur":0.135,"note":62,"inst":"harpsichord_v0_additive_2","vel":0.709,"bend":0.0,"ch":14,"track":7},{"t":1144.284,"dur":0.135,"note":66,"inst":"harpsichord_v0_additive_2","vel":0.709,"bend":0.0,"ch":2,"track":7},{"t":1144.284,"dur":0.269,"note":78,"inst":"harpsichord_v0_additive_2","vel":0.709,"bend":0.0,"ch":14,"track":7},{"t":1144.418,"dur":0.135,"note":62,"inst":"harpsichord_v0_additive_2","vel":0.709,"bend":0.0,"ch":14,"track":7},{"t":1144.418,"dur":0.135,"note":66,"inst":"harpsichord_v0_additive_2","vel":0.709,"bend":0.0,"ch":2,"track":7},{"t":1171.747,"dur":0.608,"note":60,"inst":"piano_v0_additive_0","vel":0.63,"bend":0.0,"ch":12,"track":7},{"t":1172.388,"dur":1.217,"note":48,"inst":"piano_v0_additive_0","vel":0.63,"bend":0.0,"ch":0,"track":7},{"t":1172.388,"dur":2.435,"note":67,"inst":"celesta_v0_additive_3","vel":0.63,"bend":0.0,"ch":3,"track":7},{"t":1173.67,"dur":2.435,"note":58,"inst":"harpsichord_v0_additive_2","vel":0.63,"bend":0.0,"ch":10,"track":7},{"t":1174.952,"dur":1.217,"note":67,"inst":"celesta_v0_additive_3","vel":0.63,"bend":0.0,"ch":3,"track":7},{"t":1176.234,"dur":4.871,"note":55,"inst":"celesta_v0_additive_3","vel":0.63,"bend":0.0,"ch":7,"track":7},{"t":1176.234,"dur":14.615,"note":62,"inst":"harpsichord_v0_additive_2","vel":0.63,"bend":0.0,"ch":14,"track":7},{"t":1176.234,"dur":3.653,"note":67,"inst":"celesta_v0_additive_3","vel":0.63,"bend":0.0,"ch":3,"track":7},{"t":1178.799,"dur":2.435,"note":43,"inst":"celesta_v0_additive_3","vel":0.63,"bend":0.0,"ch":11,"track":7},{"t":1180.081,"dur":0.608,"note":65,"inst":"organ_v0_additive_1","vel":0.63,"bend":0.0,"ch":1,"track":7},{"t":1180.722,"dur":0.608,"note":65,"inst":"organ_v0_additive_1","vel":0.63,"bend":0.0,"ch":1,"track":7},{"t":1181.363,"dur":3.653,"note":50,"inst":"harpsichord_v0_additive_2","vel":0.63,"bend":0.0,"ch":2,"track":7},{"t":1181.363,"dur":1.217,"note":65,"inst":"organ_v0_additive_1","vel":0.63,"bend":0.0,"ch":1,"track":7},{"t":1182.645,"dur":1.826,"note":62,"inst":"harpsichord_v0_additive_2","vel":0.63,"bend":0.0,"ch":14,"track":7},{"t":1183.927,"dur":2.435,"note":65,"inst":"organ_v0_additive_1","vel":0.63,"bend":0.0,"ch":1,"track":7},{"t":1184.568,"dur":0.608,"note":60,"inst":"piano_v0_additive_0","vel":0.63,"bend":0.0,"ch":12,"track":7},{"t":1185.21,"dur":1.217,"note":48,"inst":"piano_v0_additive_0","vel":0.63,"bend":0.0,"ch":0,"track":7},{"t":1185.21,"dur":1.217,"note":58,"inst":"harpsichord_v0_additive_2","vel":0.63,"bend":0.0,"ch":10,"track":7},{"t":1186.492,"dur":1.217,"note":36,"inst":"piano_v0_additive_0","vel":0.63,"bend":0.0,"ch":4,"track":7},{"t":1186.492,"dur":2.435,"note":48,"inst":"piano_v0_additive_0","vel":0.63,"bend":0.0,"ch":0,"track":7},{"t":1186.492,"dur":2.435,"note":67,"inst":"celesta_v0_additive_3","vel":0.63,"bend":0.0,"ch":3,"track":7},{"t":1187.774,"dur":1.217,"note":43,"inst":"celesta_v0_additive_3","vel":0.63,"bend":0.0,"ch":11,"track":7},{"t":1189.056,"dur":2.435,"note":50,"inst":"harpsichord_v0_additive_2","vel":0.63,"bend":0.0,"ch":2,"track":7},{"t":1189.056,"dur":1.217,"note":58,"inst":"harpsichord_v0_additive_2","vel":0.63,"bend":0.0,"ch":10,"track":7},{"t":1189.056,"dur":2.435,"note":70,"inst":"harpsichord_v0_additive_2","vel":0.63,"bend":0.0,"ch":6,"track":7},{"t":1190.338,"dur":1.217,"note":53,"inst":"organ_v0_additive_1","vel":0.63,"bend":0.0,"ch":5,"track":7},{"t":1191.62,"dur":2.435,"note":43,"inst":"celesta_v0_additive_3","vel":0.63,"bend":0.0,"ch":11,"track":7},{"t":1191.62,"dur":1.217,"note":55,"inst":"celesta_v0_additive_3","vel":0.63,"bend":0.0,"ch":7,"track":7},{"t":1191.62,"dur":14.615,"note":62,"inst":"harpsichord_v0_additive_2","vel":0.63,"bend":0.0,"ch":14,"track":7},{"t":1191.62,"dur":3.653,"note":60,"inst":"piano_v0_additive_0","vel":0.63,"bend":0.0,"ch":12,"track":7},{"t":1192.903,"dur":2.435,"note":48,"inst":"piano_v0_additive_0","vel":0.63,"bend":0.0,"ch":0,"track":7},{"t":1194.185,"dur":2.435,"note":55,"inst":"celesta_v0_additive_3","vel":0.63,"bend":0.0,"ch":7,"track":7},{"t":1195.467,"dur":1.217,"note":60,"inst":"piano_v0_additive_0","vel":0.63,"bend":0.0,"ch":12,"track":7},{"t":1195.467,"dur":1.217,"note":67,"inst":"celesta_v0_additive_3","vel":0.63,"bend":0.0,"ch":3,"track":7},{"t":1196.749,"dur":2.435,"note":53,"inst":"organ_v0_additive_1","vel":0.63,"bend":0.0,"ch":5,"track":7},{"t":1196.749,"dur":1.217,"note":58,"inst":"harpsichord_v0_additive_2","vel":0.63,"bend":0.0,"ch":10,"track":7},{"t":1196.749,"dur":2.435,"note":70,"inst":"harpsichord_v0_additive_2","vel":0.63,"bend":0.0,"ch":6,"track":7},{"t":1198.031,"dur":2.435,"note":62,"inst":"harpsichord_v0_additive_2","vel":0.63,"bend":0.0,"ch":14,"track":7},{"t":1199.313,"dur":2.435,"note":55,"inst":"celesta_v0_additive_3","vel":0.63,"bend":0.0,"ch":7,"track":7},{"t":1199.313,"dur":3.653,"note":60,"inst":"piano_v0_additive_0","vel":0.63,"bend":0.0,"ch":12,"track":7},{"t":1206.306,"dur":0.114,"note":62,"inst":"harpsichord_v0_additive_2","vel":1.0,"bend":0.0,"ch":14,"track":8},{"t":1206.42,"dur":0.114,"note":60,"inst":"piano_v0_additive_0","vel":1.0,"bend":0.0,"ch":12,"track":8},{"t":1206.535,"dur":0.685,"note":32,"inst":"piano_v0_additive_0","vel":1.0,"bend":0.0,"ch":0,"track":8},{"t":1206.535,"dur":0.342,"note":58,"inst":"harpsichord_v0_additive_2","vel":1.0,"bend":0.0,"ch":10,"track":8},{"t":1206.877,"dur":0.342,"note":60,"inst":"piano_v0_additive_0","vel":1.0,"bend":0.0,"ch":12,"track":8},{"t":1207.219,"dur":0.685,"note":28,"inst":"piano_v0_additive_0","vel":1.0,"bend":0.0,"ch":12,"track":8},{"t":1207.219,"dur":0.342,"note":52,"inst":"piano_v0_additive_0","vel":1.0,"bend":0.0,"ch":4,"track":8},{"t":1207.562,"dur":0.342,"note":62,"inst":"harpsichord_v0_additive_2","vel":1.0,"bend":0.0,"ch":14,"track":8},{"t":1207.904,"dur":0.685,"note":34,"inst":"harpsichord_v0_additive_2","vel":1.0,"bend":0.0,"ch":2,"track":8},{"t":1207.904,"dur":0.342,"note":60,"inst":"piano_v0_additive_0","vel":1.0,"bend":0.0,"ch":12,"track":8},{"t":1208.246,"dur":0.342,"note":56,"inst":"piano_v0_additive_0","vel":1.0,"bend":0.0,"ch":8,"track":8},{"t":1208.589,"dur":0.685,"note":28,"inst":"piano_v0_additive_0","vel":1.0,"bend":0.0,"ch":12,"track":8},{"t":1208.589,"dur":0.342,"note":58,"inst":"harpsichord_v0_additive_2","vel":1.0,"bend":0.0,"ch":10,"track":8},{"t":1208.931,"dur":0.114,"note":58,"inst":"harpsichord_v0_additive_2","vel":1.0,"bend":0.0,"ch":10,"track":8},{"t":1209.045,"dur":0.114,"note":60,"inst":"piano_v0_additive_0","vel":1.0,"bend":0.0,"ch":12,"track":8},{"t":1209.16,"dur":0.114,"note":58,"inst":"harpsichord_v0_additive_2","vel":1.0,"bend":0.0,"ch":10,"track":8},{"t":1209.274,"dur":0.685,"note":38,"inst":"harpsichord_v0_additive_2","vel":1.0,"bend":0.0,"ch":6,"track":8},{"t":1209.274,"dur":0.342,"note":56,"inst":"piano_v0_additive_0","vel":1.0,"bend":0.0,"ch":8,"track":8},{"t":1209.616,"dur":0.342,"note":60,"inst":"piano_v0_additive_0","vel":1.0,"bend":0.0,"ch":12,"track":8},{"t":1209.958,"dur":0.685,"note":36,"inst":"piano_v0_additive_0","vel":1.0,"bend":0.0,"ch":4,"track":8},{"t":1209.958,"dur":0.342,"note":58,"inst":"harpsichord_v0_additive_2","vel":1.0,"bend":0.0,"ch":10,"track":8},{"t":1210.301,"dur":0.342,"note":54,"inst":"harpsichord_v0_additive_2","vel":1.0,"bend":0.0,"ch":6,"track":8},{"t":1210.643,"dur":0.685,"note":36,"inst":"piano_v0_additive_0","vel":1.0,"bend":0.0,"ch":4,"track":8},{"t":1210.643,"dur":0.342,"note":52,"inst":"piano_v0_additive_0","vel":1.0,"bend":0.0,"ch":4,"track":8},{"t":1210.986,"dur":0.342,"note":66,"inst":"harpsichord_v0_additive_2","vel":1.0,"bend":0.0,"ch":2,"track":8},{"t":1211.328,"dur":0.685,"note":28,"inst":"piano_v0_additive_0","vel":1.0,"bend":0.0,"ch":12,"track":8},{"t":1211.328,"dur":0.342,"note":64,"inst":"piano_v0_additive_0","vel":1.0,"bend":0.0,"ch":0,"track":8},{"t":1211.67,"dur":0.114,"note":54,"inst":"harpsichord_v0_additive_2","vel":1.0,"bend":0.0,"ch":6,"track":8},{"t":1211.784,"dur":0.114,"note":56,"inst":"piano_v0_additive_0","vel":1.0,"bend":0.0,"ch":8,"track":8},{"t":1211.899,"dur":0.114,"note":54,"inst":"harpsichord_v0_additive_2","vel":1.0,"bend":0.0,"ch":6,"track":8},{"t":1212.013,"dur":0.685,"note":36,"inst":"piano_v0_additive_0","vel":1.0,"bend":0.0,"ch":4,"track":8},{"t":1212.013,"dur":0.342,"note":52,"inst":"piano_v0_additive_0","vel":1.0,"bend":0.0,"ch":4,"track":8},{"t":1212.355,"dur":0.342,"note":64,"inst":"piano_v0_additive_0","vel":1.0,"bend":0.0,"ch":0,"track":8},{"t":1212.697,"dur":0.685,"note":28,"inst":"piano_v0_additive_0","vel":1.0,"bend":0.0,"ch":12,"track":8},{"t":1212.697,"dur":0.342,"note":52,"inst":"piano_v0_additive_0","vel":1.0,"bend":0.0,"ch":4,"track":8},{"t":1213.04,"dur":0.114,"note":40,"inst":"piano_v0_additive_0","vel":1.0,"bend":0.0,"ch":8,"track":8},{"t":1213.154,"dur":0.114,"note":52,"inst":"piano_v0_additive_0","vel":1.0,"bend":0.0,"ch":4,"track":8},{"t":1213.268,"dur":0.114,"note":40,"inst":"piano_v0_additive_0","vel":1.0,"bend":0.0,"ch":8,"track":8},{"t":1213.382,"dur":0.685,"note":34,"inst":"harpsichord_v0_additive_2","vel":1.0,"bend":0.0,"ch":2,"track":8},{"t":1213.382,"dur":0.342,"note":50,"inst":"harpsichord_v0_additive_2","vel":1.0,"bend":0.0,"ch":2,"track":8},{"t":1213.725,"dur":0.342,"note":52,"inst":"piano_v0_additive_0","vel":1.0,"bend":0.0,"ch":4,"track":8},{"t":1214.067,"dur":0.685,"note":34,"inst":"harpsichord_v0_additive_2","vel":1.0,"bend":0.0,"ch":2,"track":8},{"t":1214.067,"dur":0.342,"note":62,"inst":"harpsichord_v0_additive_2","vel":1.0,"bend":0.0,"ch":14,"track":8},{"t":1214.409,"dur":0.114,"note":62,"inst":"harpsichord_v0_additive_2","vel":1.0,"bend":0.0,"ch":14,"track":8},{"t":1214.523,"dur":0.114,"note":52,"inst":"piano_v0_additive_0","vel":1.0,"bend":0.0,"ch":4,"track":8},{"t":1214.638,"dur":0.114,"note":62,"inst":"harpsichord_v0_additive_2","vel":1.0,"bend":0.0,"ch":14,"track":8},{"t":1214.752,"dur":0.685,"note":34,"inst":"harpsichord_v0_additive_2","vel":1.0,"bend":0.0,"ch":2,"track":8},{"t":1214.752,"dur":0.342,"note":60,"inst":"piano_v0_additive_0","vel":1.0,"bend":0.0,"ch":12,"track":8},{"t":1215.094,"dur":0.342,"note":62,"inst":"harpsichord_v0_additive_2","vel":1.0,"bend":0.0,"ch":14,"track":8},{"t":1215.436,"dur":0.685,"note":28,"inst":"piano_v0_additive_0","vel":1.0,"bend":0.0,"ch":12,"track":8},{"t":1215.436,"dur":0.342,"note":64,"inst":"piano_v0_additive_0","vel":1.0,"bend":0.0,"ch":0,"track":8},{"t":1215.779,"dur":0.342,"note":52,"inst":"piano_v0_additive_0","vel":1.0,"bend":0.0,"ch":4,"track":8},{"t":1216.121,"dur":0.685,"note":36,"inst":"piano_v0_additive_0","vel":1.0,"bend":0.0,"ch":4,"track":8},{"t":1216.121,"dur":0.342,"note":62,"inst":"harpsichord_v0_additive_2","vel":1.0,"bend":0.0,"ch":14,"track":8},{"t":1216.464,"dur":0.342,"note":58,"inst":"harpsichord_v0_additive_2","vel":1.0,"bend":0.0,"ch":10,"track":8},{"t":1216.806,"dur":0.685,"note":28,"inst":"piano_v0_additive_0","vel":1.0,"bend":0.0,"ch":12,"track":8},{"t":1216.806,"dur":0.342,"note":60,"inst":"piano_v0_additive_0","vel":1.0,"bend":0.0,"ch":12,"track":8},{"t":1217.148,"dur":0.114,"note":60,"inst":"piano_v0_additive_0","vel":1.0,"bend":0.0,"ch":12,"track":8},{"t":1217.263,"dur":0.114,"note":62,"inst":"harpsichord_v0_additive_2","vel":1.0,"bend":0.0,"ch":14,"track":8},{"t":1217.377,"dur":0.114,"note":60,"inst":"piano_v0_additive_0","vel":1.0,"bend":0.0,"ch":12,"track":8},{"t":1217.491,"dur":0.685,"note":30,"inst":"harpsichord_v0_additive_2","vel":1.0,"bend":0.0,"ch":14,"track":8},{"t":1217.491,"dur":0.342,"note":58,"inst":"harpsichord_v0_additive_2","vel":1.0,"bend":0.0,"ch":10,"track":8},{"t":1217.833,"dur":0.342,"note":60,"inst":"piano_v0_additive_0","vel":1.0,"bend":0.0,"ch":12,"track":8},{"t":1218.176,"dur":0.685,"note":26,"inst":"harpsichord_v0_additive_2","vel":1.0,"bend":0.0,"ch":10,"track":8},{"t":1218.176,"dur":0.342,"note":52,"inst":"piano_v0_additive_0","vel":1.0,"bend":0.0,"ch":4,"track":8},{"t":1218.518,"dur":0.342,"note":62,"inst":"harpsichord_v0_additive_2","vel":1.0,"bend":0.0,"ch":14,"track":8},{"t":1218.86,"dur":0.685,"note":30,"inst":"harpsichord_v0_additive_2","vel":1.0,"bend":0.0,"ch":14,"track":8},{"t":1218.86,"dur":0.342,"note":60,"inst":"piano_v0_additive_0","vel":1.0,"bend":0.0,"ch":12,"track":8},{"t":1219.203,"dur":0.342,"note":56,"inst":"piano_v0_additive_0","vel":1.0,"bend":0.0,"ch":8,"track":8},{"t":1219.545,"dur":0.685,"note":28,"inst":"piano_v0_additive_0","vel":1.0,"bend":0.0,"ch":12,"track":8},{"t":1219.545,"dur":0.342,"note":58,"inst":"harpsichord_v0_additive_2","vel":1.0,"bend":0.0,"ch":10,"track":8},{"t":1219.887,"dur":0.114,"note":58,"inst":"harpsichord_v0_additive_2","vel":1.0,"bend":0.0,"ch":10,"track":8},{"t":1220.002,"dur":0.114,"note":60,"inst":"piano_v0_additive_0","vel":1.0,"bend":0.0,"ch":12,"track":8},{"t":1220.116,"dur":0.114,"note":58,"inst":"harpsichord_v0_additive_2","vel":1.0,"bend":0.0,"ch":10,"track":8},{"t":1220.23,"dur":0.685,"note":24,"inst":"piano_v0_additive_0","vel":1.0,"bend":0.0,"ch":8,"track":8},{"t":1220.23,"dur":0.342,"note":56,"inst":"piano_v0_additive_0","vel":1.0,"bend":0.0,"ch":8,"track":8},{"t":1220.572,"dur":0.342,"note":60,"inst":"piano_v0_additive_0","vel":1.0,"bend":0.0,"ch":12,"track":8},{"t":1220.915,"dur":0.685,"note":28,"inst":"piano_v0_additive_0","vel":1.0,"bend":0.0,"ch":12,"track":8},{"t":1220.915,"dur":0.342,"note":58,"inst":"harpsichord_v0_additive_2","vel":1.0,"bend":0.0,"ch":10,"track":8},{"t":1221.257,"dur":0.342,"note":54,"inst":"harpsichord_v0_additive_2","vel":1.0,"bend":0.0,"ch":6,"track":8},{"t":1221.599,"dur":0.685,"note":28,"inst":"piano_v0_additive_0","vel":1.0,"bend":0.0,"ch":12,"track":8},{"t":1221.599,"dur":0.342,"note":52,"inst":"piano_v0_additive_0","vel":1.0,"bend":0.0,"ch":4,"track":8},{"t":1221.942,"dur":0.342,"note":66,"inst":"harpsichord_v0_additive_2","vel":1.0,"bend":0.0,"ch":2,"track":8},{"t":1222.284,"dur":0.685,"note":28,"inst":"piano_v0_additive_0","vel":1.0,"bend":0.0,"ch":12,"track":8},{"t":1222.284,"dur":0.342,"note":64,"inst":"piano_v0_additive_0","vel":1.0,"bend":0.0,"ch":0,"track":8},{"t":1222.626,"dur":0.114,"note":54,"inst":"harpsichord_v0_additive_2","vel":1.0,"bend":0.0,"ch":6,"track":8},{"t":1222.741,"dur":0.114,"note":56,"inst":"piano_v0_additive_0","vel":1.0,"bend":0.0,"ch":8,"track":8},{"t":1222.855,"dur":0.114,"note":54,"inst":"harpsichord_v0_additive_2","vel":1.0,"bend":0.0,"ch":6,"track":8},{"t":1222.969,"dur":0.685,"note":28,"inst":"piano_v0_additive_0","vel":1.0,"bend":0.0,"ch":12,"track":8},{"t":1222.969,"dur":0.342,"note":52,"inst":"piano_v0_additive_0","vel":1.0,"bend":0.0,"ch":4,"track":8},{"t":1223.311,"dur":0.342,"note":62,"inst":"harpsichord_v0_additive_2","vel":1.0,"bend":0.0,"ch":14,"track":8},{"t":1223.654,"dur":0.685,"note":28,"inst":"piano_v0_additive_0","vel":1.0,"bend":0.0,"ch":12,"track":8},{"t":1223.654,"dur":0.342,"note":60,"inst":"piano_v0_additive_0","vel":1.0,"bend":0.0,"ch":12,"track":8},{"t":1223.996,"dur":0.342,"note":52,"inst":"piano_v0_additive_0","vel":1.0,"bend":0.0,"ch":4,"track":8},{"t":1224.338,"dur":0.685,"note":34,"inst":"harpsichord_v0_additive_2","vel":1.0,"bend":0.0,"ch":2,"track":8},{"t":1224.338,"dur":0.685,"note":58,"inst":"harpsichord_v0_additive_2","vel":1.0,"bend":0.0,"ch":10,"track":8},{"t":1249.139,"dur":2.086,"note":43,"inst":"celesta_v0_additive_3","vel":0.63,"bend":0.0,"ch":11,"track":8},{"t":1249.139,"dur":1.982,"note":55,"inst":"celesta_v0_additive_3","vel":0.63,"bend":0.0,"ch":7,"track":8},{"t":1249.139,"dur":0.521,"note":57,"inst":"organ_v0_additive_1","vel":0.63,"bend":0.0,"ch":9,"track":8},{"t":1249.661,"dur":0.521,"note":59,"inst":"celesta_v0_additive_3","vel":0.63,"bend":0.0,"ch":11,"track":8},{"t":1250.183,"dur":0.521,"note":62,"inst":"harpsichord_v0_additive_2","vel":0.63,"bend":0.0,"ch":14,"track":8},{"t":1250.705,"dur":0.521,"note":62,"inst":"harpsichord_v0_additive_2","vel":0.63,"bend":0.0,"ch":14,"track":8},{"t":1251.226,"dur":0.99,"note":52,"inst":"piano_v0_additive_0","vel":0.63,"bend":0.0,"ch":4,"track":8},{"t":1251.226,"dur":1.042,"note":64,"inst":"piano_v0_additive_0","vel":0.63,"bend":0.0,"ch":0,"track":8},{"t":1252.27,"dur":1.564,"note":47,"inst":"celesta_v0_additive_3","vel":0.63,"bend":0.0,"ch":15,"track":8},{"t":1252.27,"dur":1.486,"note":55,"inst":"celesta_v0_additive_3","vel":0.63,"bend":0.0,"ch":7,"track":8},{"t":1252.27,"dur":1.564,"note":59,"inst":"celesta_v0_additive_3","vel":0.63,"bend":0.0,"ch":11,"track":8},{"t":1252.27,"dur":1.564,"note":62,"inst":"harpsichord_v0_additive_2","vel":0.63,"bend":0.0,"ch":14,"track":8},{"t":1253.835,"dur":0.495,"note":50,"inst":"harpsichord_v0_additive_2","vel":0.63,"bend":0.0,"ch":2,"track":8},{"t":1253.835,"dur":0.521,"note":50,"inst":"harpsichord_v0_additive_2","vel":0.63,"bend":0.0,"ch":2,"track":8},{"t":1253.835,"dur":0.521,"note":57,"inst":"organ_v0_additive_1","vel":0.63,"bend":0.0,"ch":9,"track":8},{"t":1253.835,"dur":0.521,"note":62,"inst":"harpsichord_v0_additive_2","vel":0.63,"bend":0.0,"ch":14,"track":8},{"t":1254.357,"dur":1.042,"note":45,"inst":"organ_v0_additive_1","vel":0.63,"bend":0.0,"ch":13,"track":8},{"t":1254.357,"dur":0.99,"note":52,"inst":"piano_v0_additive_0","vel":0.63,"bend":0.0,"ch":4,"track":8},{"t":1254.357,"dur":1.042,"note":57,"inst":"organ_v0_additive_1","vel":0.63,"bend":0.0,"ch":9,"track":8},{"t":1254.357,"dur":2.086,"note":62,"inst":"harpsichord_v0_additive_2","vel":0.63,"bend":0.0,"ch":14,"track":8},{"t":1255.4,"dur":2.086,"note":47,"inst":"celesta_v0_additive_3","vel":0.63,"bend":0.0,"ch":15,"track":8},{"t":1255.4,"dur":0.99,"note":50,"inst":"harpsichord_v0_additive_2","vel":0.63,"bend":0.0,"ch":2,"track":8},{"t":1255.4,"dur":2.086,"note":55,"inst":"celesta_v0_additive_3","vel":0.63,"bend":0.0,"ch":7,"track":8},{"t":1256.444,"dur":0.99,"note":50,"inst":"harpsichord_v0_additive_2","vel":0.63,"bend":0.0,"ch":2,"track":8},{"t":1256.444,"dur":1.042,"note":59,"inst":"celesta_v0_additive_3","vel":0.63,"bend":0.0,"ch":11,"track":8},{"t":1257.487,"dur":4.173,"note":43,"inst":"celesta_v0_additive_3","vel":0.63,"bend":0.0,"ch":11,"track":8},{"t":1257.487,"dur":3.964,"note":50,"inst":"harpsichord_v0_additive_2","vel":0.63,"bend":0.0,"ch":2,"track":8},{"t":1257.487,"dur":4.173,"note":62,"inst":"harpsichord_v0_additive_2","vel":0.63,"bend":0.0,"ch":14,"track":8},{"t":1260.618,"dur":2.086,"note":55,"inst":"celesta_v0_additive_3","vel":0.63,"bend":0.0,"ch":7,"track":8},{"t":1261.661,"dur":2.086,"note":47,"inst":"celesta_v0_additive_3","vel":0.63,"bend":0.0,"ch":15,"track":8},{"t":1262.705,"dur":2.086,"note":57,"inst":"organ_v0_additive_1","vel":0.63,"bend":0.0,"ch":9,"track":8},{"t":1263.748,"dur":2.086,"note":50,"inst":"harpsichord_v0_additive_2","vel":0.63,"bend":0.0,"ch":2,"track":8},{"t":1264.792,"dur":2.086,"note":57,"inst":"organ_v0_additive_1","vel":0.63,"bend":0.0,"ch":9,"track":8},{"t":1416.457,"dur":0.395,"note":58,"inst":"harpsichord_v0_additive_2","vel":1.0,"bend":0.0,"ch":10,"track":8},{"t":1416.852,"dur":0.395,"note":53,"inst":"organ_v0_additive_1","vel":1.0,"bend":0.0,"ch":5,"track":8},{"t":1417.247,"dur":0.395,"note":26,"inst":"harpsichord_v0_additive_2","vel":1.0,"bend":0.0,"ch":10,"track":8},{"t":1417.247,"dur":1.185,"note":50,"inst":"harpsichord_v0_additive_2","vel":1.0,"bend":0.0,"ch":2,"track":8},{"t":1417.642,"dur":0.395,"note":38,"inst":"harpsichord_v0_additive_2","vel":1.0,"bend":0.0,"ch":6,"track":8},{"t":1418.037,"dur":0.395,"note":41,"inst":"organ_v0_additive_1","vel":1.0,"bend":0.0,"ch":9,"track":8},{"t":1418.433,"dur":0.395,"note":41,"inst":"organ_v0_additive_1","vel":1.0,"bend":0.0,"ch":9,"track":8},{"t":1418.433,"dur":1.185,"note":50,"inst":"harpsichord_v0_additive_2","vel":1.0,"bend":0.0,"ch":2,"track":8},{"t":1418.828,"dur":0.395,"note":45,"inst":"organ_v0_additive_1","vel":1.0,"bend":0.0,"ch":13,"track":8},{"t":1419.223,"dur":0.395,"note":46,"inst":"harpsichord_v0_additive_2","vel":1.0,"bend":0.0,"ch":14,"track":8},{"t":1419.618,"dur":0.395,"note":45,"inst":"organ_v0_additive_1","vel":1.0,"bend":0.0,"ch":13,"track":8},{"t":1419.618,"dur":1.185,"note":50,"inst":"harpsichord_v0_additive_2","vel":1.0,"bend":0.0,"ch":2,"track":8},{"t":1420.013,"dur":0.395,"note":46,"inst":"harpsichord_v0_additive_2","vel":1.0,"bend":0.0,"ch":14,"track":8},{"t":1420.408,"dur":0.395,"note":41,"inst":"organ_v0_additive_1","vel":1.0,"bend":0.0,"ch":9,"track":8},{"t":1420.803,"dur":0.395,"note":41,"inst":"organ_v0_additive_1","vel":1.0,"bend":0.0,"ch":9,"track":8},{"t":1420.803,"dur":1.185,"note":38,"inst":"harpsichord_v0_additive_2","vel":1.0,"bend":0.0,"ch":6,"track":8},{"t":1421.198,"dur":0.395,"note":41,"inst":"organ_v0_additive_1","vel":1.0,"bend":0.0,"ch":9,"track":8},{"t":1421.593,"dur":0.395,"note":45,"inst":"organ_v0_additive_1","vel":1.0,"bend":0.0,"ch":13,"track":8},{"t":1421.988,"dur":0.395,"note":41,"inst":"organ_v0_additive_1","vel":1.0,"bend":0.0,"ch":9,"track":8},{"t":1421.988,"dur":1.185,"note":58,"inst":"harpsichord_v0_additive_2","vel":1.0,"bend":0.0,"ch":10,"track":8},{"t":1422.383,"dur":0.395,"note":45,"inst":"organ_v0_additive_1","vel":1.0,"bend":0.0,"ch":13,"track":8},{"t":1422.778,"dur":0.395,"note":41,"inst":"organ_v0_additive_1","vel":1.0,"bend":0.0,"ch":9,"track":8},{"t":1423.173,"dur":0.395,"note":38,"inst":"harpsichord_v0_additive_2","vel":1.0,"bend":0.0,"ch":6,"track":8},{"t":1423.173,"dur":1.185,"note":38,"inst":"harpsichord_v0_additive_2","vel":1.0,"bend":0.0,"ch":6,"track":8},{"t":1423.568,"dur":0.395,"note":41,"inst":"organ_v0_additive_1","vel":1.0,"bend":0.0,"ch":9,"track":8},{"t":1423.963,"dur":0.395,"note":41,"inst":"organ_v0_additive_1","vel":1.0,"bend":0.0,"ch":9,"track":8},{"t":1424.358,"dur":1.185,"note":41,"inst":"organ_v0_additive_1","vel":1.0,"bend":0.0,"ch":9,"track":8},{"t":1424.358,"dur":0.395,"note":57,"inst":"organ_v0_additive_1","vel":1.0,"bend":0.0,"ch":9,"track":8},{"t":1424.754,"dur":0.395,"note":38,"inst":"harpsichord_v0_additive_2","vel":1.0,"bend":0.0,"ch":6,"track":8},{"t":1425.149,"dur":0.395,"note":50,"inst":"harpsichord_v0_additive_2","vel":1.0,"bend":0.0,"ch":2,"track":8},{"t":1425.544,"dur":1.185,"note":26,"inst":"harpsichord_v0_additive_2","vel":1.0,"bend":0.0,"ch":10,"track":8},{"t":1425.544,"dur":0.395,"note":58,"inst":"harpsichord_v0_additive_2","vel":1.0,"bend":0.0,"ch":10,"track":8},{"t":1425.939,"dur":0.395,"note":53,"inst":"organ_v0_additive_1","vel":1.0,"bend":0.0,"ch":5,"track":8},{"t":1426.334,"dur":0.395,"note":57,"inst":"organ_v0_additive_1","vel":1.0,"bend":0.0,"ch":9,"track":8},{"t":1426.729,"dur":1.185,"note":38,"inst":"harpsichord_v0_additive_2","vel":1.0,"bend":0.0,"ch":6,"track":8},{"t":1426.729,"dur":0.395,"note":53,"inst":"organ_v0_additive_1","vel":1.0,"bend":0.0,"ch":5,"track":8},{"t":1427.124,"dur":0.395,"note":57,"inst":"organ_v0_additive_1","vel":1.0,"bend":0.0,"ch":9,"track":8},{"t":1427.519,"dur":0.395,"note":53,"inst":"organ_v0_additive_1","vel":1.0,"bend":0.0,"ch":5,"track":8},{"t":1427.914,"dur":2.37,"note":26,"inst":"harpsichord_v0_additive_2","vel":1.0,"bend":0.0,"ch":10,"track":8},{"t":1427.914,"dur":0.395,"note":50,"inst":"harpsichord_v0_additive_2","vel":1.0,"bend":0.0,"ch":2,"track":8},{"t":1428.309,"dur":0.395,"note":50,"inst":"harpsichord_v0_additive_2","vel":1.0,"bend":0.0,"ch":2,"track":8},{"t":1428.704,"dur":0.395,"note":50,"inst":"harpsichord_v0_additive_2","vel":1.0,"bend":0.0,"ch":2,"track":8},{"t":1429.099,"dur":0.395,"note":62,"inst":"harpsichord_v0_additive_2","vel":1.0,"bend":0.0,"ch":14,"track":8},{"t":1429.494,"dur":0.395,"note":65,"inst":"organ_v0_additive_1","vel":1.0,"bend":0.0,"ch":1,"track":8},{"t":1429.889,"dur":0.395,"note":65,"inst":"organ_v0_additive_1","vel":1.0,"bend":0.0,"ch":1,"track":8},{"t":1430.284,"dur":1.185,"note":41,"inst":"organ_v0_additive_1","vel":1.0,"bend":0.0,"ch":9,"track":8},{"t":1430.284,"dur":0.395,"note":65,"inst":"organ_v0_additive_1","vel":1.0,"bend":0.0,"ch":1,"track":8},{"t":1430.679,"dur":0.395,"note":65,"inst":"organ_v0_additive_1","vel":1.0,"bend":0.0,"ch":1,"track":8},{"t":1431.075,"dur":0.395,"note":62,"inst":"harpsichord_v0_additive_2","vel":1.0,"bend":0.0,"ch":14,"track":8},{"t":1431.47,"dur":1.185,"note":34,"inst":"harpsichord_v0_additive_2","vel":1.0,"bend":0.0,"ch":2,"track":8},{"t":1431.47,"dur":0.395,"note":46,"inst":"harpsichord_v0_additive_2","vel":1.0,"bend":0.0,"ch":14,"track":8},{"t":1431.47,"dur":0.395,"note":50,"inst":"harpsichord_v0_additive_2","vel":1.0,"bend":0.0,"ch":2,"track":8},{"t":1431.865,"dur":0.395,"note":65,"inst":"organ_v0_additive_1","vel":1.0,"bend":0.0,"ch":1,"track":8},{"t":1432.26,"dur":0.395,"note":50,"inst":"harpsichord_v0_additive_2","vel":1.0,"bend":0.0,"ch":2,"track":8},{"t":1432.655,"dur":0.395,"note":50,"inst":"harpsichord_v0_additive_2","vel":1.0,"bend":0.0,"ch":2,"track":8},{"t":1433.05,"dur":0.395,"note":65,"inst":"organ_v0_additive_1","vel":1.0,"bend":0.0,"ch":1,"track":8},{"t":1433.445,"dur":0.395,"note":57,"inst":"organ_v0_additive_1","vel":1.0,"bend":0.0,"ch":9,"track":8},{"t":1433.84,"dur":1.185,"note":26,"inst":"harpsichord_v0_additive_2","vel":1.0,"bend":0.0,"ch":10,"track":8},{"t":1433.84,"dur":0.395,"note":58,"inst":"harpsichord_v0_additive_2","vel":1.0,"bend":0.0,"ch":10,"track":8},{"t":1434.235,"dur":0.395,"note":50,"inst":"harpsichord_v0_additive_2","vel":1.0,"bend":0.0,"ch":2,"track":8},{"t":1434.63,"dur":0.395,"note":53,"inst":"organ_v0_additive_1","vel":1.0,"bend":0.0,"ch":5,"track":8},{"t":1435.025,"dur":1.185,"note":38,"inst":"harpsichord_v0_additive_2","vel":1.0,"bend":0.0,"ch":6,"track":8},{"t":1435.025,"dur":0.395,"note":53,"inst":"organ_v0_additive_1","vel":1.0,"bend":0.0,"ch":5,"track":8},{"t":1435.42,"dur":0.395,"note":58,"inst":"harpsichord_v0_additive_2","vel":1.0,"bend":0.0,"ch":10,"track":8},{"t":1435.815,"dur":0.395,"note":53,"inst":"organ_v0_additive_1","vel":1.0,"bend":0.0,"ch":5,"track":8},{"t":1436.21,"dur":0.395,"note":53,"inst":"organ_v0_additive_1","vel":1.0,"bend":0.0,"ch":5,"track":8},{"t":1436.605,"dur":0.395,"note":58,"inst":"harpsichord_v0_additive_2","vel":1.0,"bend":0.0,"ch":10,"track":8},{"t":1437.0,"dur":0.395,"note":50,"inst":"harpsichord_v0_additive_2","vel":1.0,"bend":0.0,"ch":2,"track":8},{"t":1437.396,"dur":0.395,"note":50,"inst":"harpsichord_v0_additive_2","vel":1.0,"bend":0.0,"ch":2,"track":8},{"t":1437.791,"dur":0.79,"note":53,"inst":"organ_v0_additive_1","vel":1.0,"bend":0.0,"ch":5,"track":8},{"t":1438.186,"dur":0.395,"note":46,"inst":"harpsichord_v0_additive_2","vel":1.0,"bend":0.0,"ch":14,"track":8},{"t":1438.581,"dur":0.395,"note":38,"inst":"harpsichord_v0_additive_2","vel":1.0,"bend":0.0,"ch":6,"track":8},{"t":1438.976,"dur":0.395,"note":50,"inst":"harpsichord_v0_additive_2","vel":1.0,"bend":0.0,"ch":2,"track":8},{"t":1439.371,"dur":0.395,"note":46,"inst":"harpsichord_v0_additive_2","vel":1.0,"bend":0.0,"ch":14,"track":8},{"t":1439.766,"dur":0.395,"note":38,"inst":"harpsichord_v0_additive_2","vel":1.0,"bend":0.0,"ch":6,"track":8},{"t":1439.766,"dur":1.185,"note":50,"inst":"harpsichord_v0_additive_2","vel":1.0,"bend":0.0,"ch":2,"track":8},{"t":1440.161,"dur":0.395,"note":50,"inst":"harpsichord_v0_additive_2","vel":1.0,"bend":0.0,"ch":2,"track":8},{"t":1440.556,"dur":0.395,"note":41,"inst":"organ_v0_additive_1","vel":1.0,"bend":0.0,"ch":9,"track":8},{"t":1440.951,"dur":0.395,"note":45,"inst":"organ_v0_additive_1","vel":1.0,"bend":0.0,"ch":13,"track":8},{"t":1440.951,"dur":1.185,"note":50,"inst":"harpsichord_v0_additive_2","vel":1.0,"bend":0.0,"ch":2,"track":8},{"t":1441.346,"dur":0.395,"note":38,"inst":"harpsichord_v0_additive_2","vel":1.0,"bend":0.0,"ch":6,"track":8},{"t":1441.741,"dur":0.395,"note":38,"inst":"harpsichord_v0_additive_2","vel":1.0,"bend":0.0,"ch":6,"track":8},{"t":1442.136,"dur":0.395,"note":41,"inst":"organ_v0_additive_1","vel":1.0,"bend":0.0,"ch":9,"track":8},{"t":1442.136,"dur":1.185,"note":38,"inst":"harpsichord_v0_additive_2","vel":1.0,"bend":0.0,"ch":6,"track":8},{"t":1442.531,"dur":0.395,"note":45,"inst":"organ_v0_additive_1","vel":1.0,"bend":0.0,"ch":13,"track":8},{"t":1442.926,"dur":0.395,"note":38,"inst":"harpsichord_v0_additive_2","vel":1.0,"bend":0.0,"ch":6,"track":8},{"t":1443.321,"dur":0.395,"note":41,"inst":"organ_v0_additive_1","vel":1.0,"bend":0.0,"ch":9,"track":8},{"t":1443.321,"dur":1.185,"note":58,"inst":"harpsichord_v0_additive_2","vel":1.0,"bend":0.0,"ch":10,"track":8},{"t":1443.717,"dur":0.395,"note":45,"inst":"organ_v0_additive_1","vel":1.0,"bend":0.0,"ch":13,"track":8},{"t":1444.112,"dur":0.395,"note":26,"inst":"harpsichord_v0_additive_2","vel":1.0,"bend":0.0,"ch":10,"track":8},{"t":1444.507,"dur":0.395,"note":26,"inst":"harpsichord_v0_additive_2","vel":1.0,"bend":0.0,"ch":10,"track":8},{"t":1444.507,"dur":1.185,"note":57,"inst":"organ_v0_additive_1","vel":1.0,"bend":0.0,"ch":9,"track":8},{"t":1444.902,"dur":0.395,"note":41,"inst":"organ_v0_additive_1","vel":1.0,"bend":0.0,"ch":9,"track":8},{"t":1445.297,"dur":0.395,"note":33,"inst":"organ_v0_additive_1","vel":1.0,"bend":0.0,"ch":1,"track":8},{"t":1445.692,"dur":0.395,"note":34,"inst":"harpsichord_v0_additive_2","vel":1.0,"bend":0.0,"ch":2,"track":8},{"t":1445.692,"dur":1.185,"note":38,"inst":"harpsichord_v0_additive_2","vel":1.0,"bend":0.0,"ch":6,"track":8},{"t":1446.087,"dur":0.395,"note":26,"inst":"harpsichord_v0_additive_2","vel":1.0,"bend":0.0,"ch":10,"track":8},{"t":1446.482,"dur":0.395,"note":33,"inst":"organ_v0_additive_1","vel":1.0,"bend":0.0,"ch":1,"track":8},{"t":1446.877,"dur":0.395,"note":34,"inst":"harpsichord_v0_additive_2","vel":1.0,"bend":0.0,"ch":2,"track":8},{"t":1446.877,"dur":1.185,"note":53,"inst":"organ_v0_additive_1","vel":1.0,"bend":0.0,"ch":5,"track":8},{"t":1447.272,"dur":0.395,"note":26,"inst":"harpsichord_v0_additive_2","vel":1.0,"bend":0.0,"ch":10,"track":8},{"t":1447.667,"dur":0.395,"note":29,"inst":"organ_v0_additive_1","vel":1.0,"bend":0.0,"ch":13,"track":8},{"t":1448.062,"dur":0.395,"note":29,"inst":"organ_v0_additive_1","vel":1.0,"bend":0.0,"ch":13,"track":8},{"t":1448.062,"dur":1.185,"note":58,"inst":"harpsichord_v0_additive_2","vel":1.0,"bend":0.0,"ch":10,"track":8},{"t":1448.457,"dur":0.395,"note":34,"inst":"harpsichord_v0_additive_2","vel":1.0,"bend":0.0,"ch":2,"track":8},{"t":1448.852,"dur":0.395,"note":24,"inst":"piano_v0_additive_0","vel":1.0,"bend":0.0,"ch":8,"track":8},{"t":1449.247,"dur":1.185,"note":26,"inst":"harpsichord_v0_additive_2","vel":1.0,"bend":0.0,"ch":10,"track":8},{"t":1449.642,"dur":0.395,"note":50,"inst":"harpsichord_v0_additive_2","vel":1.0,"bend":0.0,"ch":2,"track":8},{"t":1450.038,"dur":0.395,"note":53,"inst":"organ_v0_additive_1","vel":1.0,"bend":0.0,"ch":5,"track":8},{"t":1450.433,"dur":1.185,"note":26,"inst":"harpsichord_v0_additive_2","vel":1.0,"bend":0.0,"ch":10,"track":8},{"t":1450.433,"dur":0.395,"note":53,"inst":"organ_v0_additive_1","vel":1.0,"bend":0.0,"ch":5,"track":8},{"t":1450.828,"dur":0.79,"note":57,"inst":"organ_v0_additive_1","vel":1.0,"bend":0.0,"ch":9,"track":8},{"t":1451.618,"dur":0.395,"note":57,"inst":"organ_v0_additive_1","vel":1.0,"bend":0.0,"ch":9,"track":8},{"t":1452.013,"dur":0.395,"note":58,"inst":"harpsichord_v0_additive_2","vel":1.0,"bend":0.0,"ch":10,"track":8},{"t":1452.408,"dur":0.395,"note":53,"inst":"organ_v0_additive_1","vel":1.0,"bend":0.0,"ch":5,"track":8},{"t":1452.803,"dur":1.185,"note":26,"inst":"harpsichord_v0_additive_2","vel":1.0,"bend":0.0,"ch":10,"track":8},{"t":1452.803,"dur":0.395,"note":69,"inst":"organ_v0_additive_1","vel":1.0,"bend":0.0,"ch":5,"track":8},{"t":1453.198,"dur":0.395,"note":65,"inst":"organ_v0_additive_1","vel":1.0,"bend":0.0,"ch":1,"track":8},{"t":1453.593,"dur":0.395,"note":65,"inst":"organ_v0_additive_1","vel":1.0,"bend":0.0,"ch":1,"track":8},{"t":1453.988,"dur":1.185,"note":26,"inst":"harpsichord_v0_additive_2","vel":1.0,"bend":0.0,"ch":10,"track":8},{"t":1453.988,"dur":0.395,"note":62,"inst":"harpsichord_v0_additive_2","vel":1.0,"bend":0.0,"ch":14,"track":8},{"t":1454.383,"dur":0.395,"note":50,"inst":"harpsichord_v0_additive_2","vel":1.0,"bend":0.0,"ch":2,"track":8},{"t":1454.778,"dur":0.395,"note":50,"inst":"harpsichord_v0_additive_2","vel":1.0,"bend":0.0,"ch":2,"track":8},{"t":1455.173,"dur":1.185,"note":38,"inst":"harpsichord_v0_additive_2","vel":1.0,"bend":0.0,"ch":6,"track":8},{"t":1455.173,"dur":0.395,"note":53,"inst":"organ_v0_additive_1","vel":1.0,"bend":0.0,"ch":5,"track":8},{"t":1455.173,"dur":0.395,"note":50,"inst":"harpsichord_v0_additive_2","vel":1.0,"bend":0.0,"ch":2,"track":8},{"t":1455.568,"dur":0.395,"note":58,"inst":"harpsichord_v0_additive_2","vel":1.0,"bend":0.0,"ch":10,"track":8},{"t":1455.963,"dur":0.395,"note":50,"inst":"harpsichord_v0_additive_2","vel":1.0,"bend":0.0,"ch":2,"track":8},{"t":1456.359,"dur":0.395,"note":33,"inst":"organ_v0_additive_1","vel":1.0,"bend":0.0,"ch":1,"track":8},{"t":1456.359,"dur":1.185,"note":57,"inst":"organ_v0_additive_1","vel":1.0,"bend":0.0,"ch":9,"track":8},{"t":1456.754,"dur":0.395,"note":34,"inst":"harpsichord_v0_additive_2","vel":1.0,"bend":0.0,"ch":2,"track":8},{"t":1457.149,"dur":0.395,"note":26,"inst":"harpsichord_v0_additive_2","vel":1.0,"bend":0.0,"ch":10,"track":8},{"t":1457.544,"dur":0.395,"note":26,"inst":"harpsichord_v0_additive_2","vel":1.0,"bend":0.0,"ch":10,"track":8},{"t":1457.939,"dur":0.395,"note":38,"inst":"harpsichord_v0_additive_2","vel":1.0,"bend":0.0,"ch":6,"track":8},{"t":1458.334,"dur":0.395,"note":41,"inst":"organ_v0_additive_1","vel":1.0,"bend":0.0,"ch":9,"track":8},{"t":1458.344,"dur":0.148,"note":54,"inst":"harpsichord_v0_additive_2","vel":1.0,"bend":0.0,"ch":6,"track":8},{"t":1458.491,"dur":0.148,"note":56,"inst":"piano_v0_additive_0","vel":1.0,"bend":0.0,"ch":8,"track":8},{"t":1458.639,"dur":0.148,"note":49,"inst":"organ_v0_additive_1","vel":1.0,"bend":0.0,"ch":1,"track":8},{"t":1458.639,"dur":0.222,"note":76,"inst":"piano_v0_additive_0","vel":1.0,"bend":0.0,"ch":12,"track":8},{"t":1458.729,"dur":0.395,"note":38,"inst":"harpsichord_v0_additive_2","vel":1.0,"bend":0.0,"ch":6,"track":8},{"t":1458.787,"dur":0.148,"note":54,"inst":"harpsichord_v0_additive_2","vel":1.0,"bend":0.0,"ch":6,"track":8},{"t":1458.861,"dur":0.222,"note":73,"inst":"organ_v0_additive_1","vel":1.0,"bend":0.0,"ch":9,"track":8},{"t":1458.935,"dur":0.148,"note":59,"inst":"celesta_v0_additive_3","vel":1.0,"bend":0.0,"ch":11,"track":8},{"t":1459.083,"dur":0.148,"note":52,"inst":"piano_v0_additive_0","vel":1.0,"bend":0.0,"ch":4,"track":8},{"t":1459.083,"dur":0.222,"note":71,"inst":"celesta_v0_additive_3","vel":1.0,"bend":0.0,"ch":7,"track":8},{"t":1459.124,"dur":0.395,"note":41,"inst":"organ_v0_additive_1","vel":1.0,"bend":0.0,"ch":9,"track":8},{"t":1459.231,"dur":0.148,"note":56,"inst":"piano_v0_additive_0","vel":1.0,"bend":0.0,"ch":8,"track":8},{"t":1459.305,"dur":0.222,"note":68,"inst":"piano_v0_additive_0","vel":1.0,"bend":0.0,"ch":4,"track":8},{"t":1459.378,"dur":0.148,"note":59,"inst":"celesta_v0_additive_3","vel":1.0,"bend":0.0,"ch":11,"track":8},{"t":1459.519,"dur":0.395,"note":26,"inst":"harpsichord_v0_additive_2","vel":1.0,"bend":0.0,"ch":10,"track":8},{"t":1459.526,"dur":0.148,"note":44,"inst":"piano_v0_additive_0","vel":1.0,"bend":0.0,"ch":12,"track":8},{"t":1459.526,"dur":0.444,"note":68,"inst":"piano_v0_additive_0","vel":1.0,"bend":0.0,"ch":4,"track":8},{"t":1459.674,"dur":0.148,"note":52,"inst":"piano_v0_additive_0","vel":1.0,"bend":0.0,"ch":4,"track":8},{"t":1459.822,"dur":0.148,"note":56,"inst":"piano_v0_additive_0","vel":1.0,"bend":0.0,"ch":8,"track":8},{"t":1459.914,"dur":0.395,"note":26,"inst":"harpsichord_v0_additive_2","vel":1.0,"bend":0.0,"ch":10,"track":8},{"t":1459.914,"dur":0.395,"note":45,"inst":"organ_v0_additive_1","vel":1.0,"bend":0.0,"ch":13,"track":8},{"t":1460.081,"dur":0.111,"note":44,"inst":"piano_v0_additive_0","vel":1.0,"bend":0.0,"ch":12,"track":8},{"t":1460.081,"dur":0.111,"note":56,"inst":"piano_v0_additive_0","vel":1.0,"bend":0.0,"ch":8,"track":8},{"t":1460.192,"dur":0.111,"note":47,"inst":"celesta_v0_additive_3","vel":1.0,"bend":0.0,"ch":15,"track":8},{"t":1460.192,"dur":0.111,"note":59,"inst":"celesta_v0_additive_3","vel":1.0,"bend":0.0,"ch":11,"track":8},{"t":1460.302,"dur":0.111,"note":49,"inst":"organ_v0_additive_1","vel":1.0,"bend":0.0,"ch":1,"track":8},{"t":1460.302,"dur":0.111,"note":61,"inst":"organ_v0_additive_1","vel":1.0,"bend":0.0,"ch":13,"track":8},{"t":1460.309,"dur":0.395,"note":26,"inst":"harpsichord_v0_additive_2","vel":1.0,"bend":0.0,"ch":10,"track":8},{"t":1460.309,"dur":0.395,"note":46,"inst":"harpsichord_v0_additive_2","vel":1.0,"bend":0.0,"ch":14,"track":8},{"t":1460.413,"dur":0.111,"note":49,"inst":"organ_v0_additive_1","vel":1.0,"bend":0.0,"ch":1,"track":8},{"t":1460.413,"dur":0.111,"note":61,"inst":"organ_v0_additive_1","vel":1.0,"bend":0.0,"ch":13,"track":8},{"t":1460.524,"dur":0.111,"note":44,"inst":"piano_v0_additive_0","vel":1.0,"bend":0.0,"ch":12,"track":8},{"t":1460.524,"dur":0.111,"note":56,"inst":"piano_v0_additive_0","vel":1.0,"bend":0.0,"ch":8,"track":8},{"t":1460.635,"dur":0.111,"note":47,"inst":"celesta_v0_additive_3","vel":1.0,"bend":0.0,"ch":15,"track":8},{"t":1460.635,"dur":0.111,"note":59,"inst":"celesta_v0_additive_3","vel":1.0,"bend":0.0,"ch":11,"track":8},{"t":1460.704,"dur":0.395,"note":38,"inst":"harpsichord_v0_additive_2","vel":1.0,"bend":0.0,"ch":6,"track":8},{"t":1460.704,"dur":0.395,"note":38,"inst":"harpsichord_v0_additive_2","vel":1.0,"bend":0.0,"ch":6,"track":8},{"t":1460.746,"dur":0.111,"note":49,"inst":"organ_v0_additive_1","vel":1.0,"bend":0.0,"ch":1,"track":8},{"t":1460.746,"dur":0.111,"note":61,"inst":"organ_v0_additive_1","vel":1.0,"bend":0.0,"ch":13,"track":8},{"t":1460.857,"dur":0.111,"note":49,"inst":"organ_v0_additive_1","vel":1.0,"bend":0.0,"ch":1,"track":8},{"t":1460.857,"dur":0.111,"note":61,"inst":"organ_v0_additive_1","vel":1.0,"bend":0.0,"ch":13,"track":8},{"t":1460.968,"dur":0.111,"note":52,"inst":"piano_v0_additive_0","vel":1.0,"bend":0.0,"ch":4,"track":8},{"t":1460.968,"dur":0.111,"note":64,"inst":"piano_v0_additive_0","vel":1.0,"bend":0.0,"ch":0,"track":8},{"t":1461.079,"dur":0.111,"note":54,"inst":"harpsichord_v0_additive_2","vel":1.0,"bend":0.0,"ch":6,"track":8},{"t":1461.079,"dur":0.111,"note":66,"inst":"harpsichord_v0_additive_2","vel":1.0,"bend":0.0,"ch":2,"track":8},{"t":1461.099,"dur":0.395,"note":41,"inst":"organ_v0_additive_1","vel":1.0,"bend":0.0,"ch":9,"track":8},{"t":1461.099,"dur":0.395,"note":38,"inst":"harpsichord_v0_additive_2","vel":1.0,"bend":0.0,"ch":6,"track":8},{"t":1461.189,"dur":0.111,"note":54,"inst":"harpsichord_v0_additive_2","vel":1.0,"bend":0.0,"ch":6,"track":8},{"t":1461.189,"dur":0.111,"note":66,"inst":"harpsichord_v0_additive_2","vel":1.0,"bend":0.0,"ch":2,"track":8},{"t":1461.3,"dur":0.222,"note":49,"inst":"organ_v0_additive_1","vel":1.0,"bend":0.0,"ch":1,"track":8},{"t":1461.3,"dur":0.222,"note":54,"inst":"harpsichord_v0_additive_2","vel":1.0,"bend":0.0,"ch":6,"track":8},{"t":1461.3,"dur":0.222,"note":56,"inst":"piano_v0_additive_0","vel":1.0,"bend":0.0,"ch":8,"track":8},{"t":1461.3,"dur":0.222,"note":68,"inst":"piano_v0_additive_0","vel":1.0,"bend":0.0,"ch":4,"track":8},{"t":1461.494,"dur":0.395,"note":38,"inst":"harpsichord_v0_additive_2","vel":1.0,"bend":0.0,"ch":6,"track":8},{"t":1461.494,"dur":0.395,"note":50,"inst":"harpsichord_v0_additive_2","vel":1.0,"bend":0.0,"ch":2,"track":8},{"t":1461.522,"dur":0.222,"note":49,"inst":"organ_v0_additive_1","vel":1.0,"bend":0.0,"ch":1,"track":8},{"t":1461.522,"dur":0.222,"note":54,"inst":"harpsichord_v0_additive_2","vel":1.0,"bend":0.0,"ch":6,"track":8},{"t":1461.522,"dur":0.222,"note":56,"inst":"piano_v0_additive_0","vel":1.0,"bend":0.0,"ch":8,"track":8},{"t":1461.522,"dur":0.222,"note":66,"inst":"harpsichord_v0_additive_2","vel":1.0,"bend":0.0,"ch":2,"track":8},{"t":1461.744,"dur":0.222,"note":49,"inst":"organ_v0_additive_1","vel":1.0,"bend":0.0,"ch":1,"track":8},{"t":1461.744,"dur":0.222,"note":54,"inst":"harpsichord_v0_additive_2","vel":1.0,"bend":0.0,"ch":6,"track":8},{"t":1461.744,"dur":0.222,"note":56,"inst":"piano_v0_additive_0","vel":1.0,"bend":0.0,"ch":8,"track":8},{"t":1461.744,"dur":0.222,"note":73,"inst":"organ_v0_additive_1","vel":1.0,"bend":0.0,"ch":9,"track":8},{"t":1461.889,"dur":0.395,"note":26,"inst":"harpsichord_v0_additive_2","vel":1.0,"bend":0.0,"ch":10,"track":8},{"t":1461.889,"dur":0.395,"note":53,"inst":"organ_v0_additive_1","vel":1.0,"bend":0.0,"ch":5,"track":8},{"t":1461.966,"dur":0.222,"note":49,"inst":"organ_v0_additive_1","vel":1.0,"bend":0.0,"ch":1,"track":8},{"t":1461.966,"dur":0.222,"note":54,"inst":"harpsichord_v0_additive_2","vel":1.0,"bend":0.0,"ch":6,"track":8},{"t":1461.966,"dur":0.222,"note":56,"inst":"piano_v0_additive_0","vel":1.0,"bend":0.0,"ch":8,"track":8},{"t":1461.966,"dur":0.222,"note":68,"inst":"piano_v0_additive_0","vel":1.0,"bend":0.0,"ch":4,"track":8},{"t":1462.187,"dur":0.222,"note":49,"inst":"organ_v0_additive_1","vel":1.0,"bend":0.0,"ch":1,"track":8},{"t":1462.187,"dur":0.222,"note":54,"inst":"harpsichord_v0_additive_2","vel":1.0,"bend":0.0,"ch":6,"track":8},{"t":1462.187,"dur":0.222,"note":56,"inst":"piano_v0_additive_0","vel":1.0,"bend":0.0,"ch":8,"track":8},{"t":1462.187,"dur":0.222,"note":61,"inst":"organ_v0_additive_1","vel":1.0,"bend":0.0,"ch":13,"track":8},{"t":1462.187,"dur":0.222,"note":78,"inst":"harpsichord_v0_additive_2","vel":1.0,"bend":0.0,"ch":14,"track":8},{"t":1462.284,"dur":1.185,"note":41,"inst":"organ_v0_additive_1","vel":1.0,"bend":0.0,"ch":9,"track":8},{"t":1462.284,"dur":0.395,"note":50,"inst":"harpsichord_v0_additive_2","vel":1.0,"bend":0.0,"ch":2,"track":8},{"t":1462.409,"dur":0.222,"note":49,"inst":"organ_v0_additive_1","vel":1.0,"bend":0.0,"ch":1,"track":8},{"t":1462.409,"dur":0.222,"note":54,"inst":"harpsichord_v0_additive_2","vel":1.0,"bend":0.0,"ch":6,"track":8},{"t":1462.409,"dur":0.222,"note":56,"inst":"piano_v0_additive_0","vel":1.0,"bend":0.0,"ch":8,"track":8},{"t":1462.409,"dur":0.222,"note":61,"inst":"organ_v0_additive_1","vel":1.0,"bend":0.0,"ch":13,"track":8},{"t":1462.409,"dur":0.222,"note":73,"inst":"organ_v0_additive_1","vel":1.0,"bend":0.0,"ch":9,"track":8},{"t":1462.631,"dur":0.222,"note":49,"inst":"organ_v0_additive_1","vel":1.0,"bend":0.0,"ch":1,"track":8},{"t":1462.631,"dur":0.222,"note":54,"inst":"harpsichord_v0_additive_2","vel":1.0,"bend":0.0,"ch":6,"track":8},{"t":1462.631,"dur":0.222,"note":56,"inst":"piano_v0_additive_0","vel":1.0,"bend":0.0,"ch":8,"track":8},{"t":1462.631,"dur":0.222,"note":61,"inst":"organ_v0_additive_1","vel":1.0,"bend":0.0,"ch":13,"track":8},{"t":1462.631,"dur":0.222,"note":80,"inst":"piano_v0_additive_0","vel":1.0,"bend":0.0,"ch":0,"track":8},{"t":1462.68,"dur":0.395,"note":53,"inst":"organ_v0_additive_1","vel":1.0,"bend":0.0,"ch":5,"track":8},{"t":1462.853,"dur":0.222,"note":49,"inst":"organ_v0_additive_1","vel":1.0,"bend":0.0,"ch":1,"track":8},{"t":1462.853,"dur":0.222,"note":54,"inst":"harpsichord_v0_additive_2","vel":1.0,"bend":0.0,"ch":6,"track":8},{"t":1462.853,"dur":0.222,"note":56,"inst":"piano_v0_additive_0","vel":1.0,"bend":0.0,"ch":8,"track":8},{"t":1462.853,"dur":0.222,"note":61,"inst":"organ_v0_additive_1","vel":1.0,"bend":0.0,"ch":13,"track":8},{"t":1462.853,"dur":0.222,"note":78,"inst":"harpsichord_v0_additive_2","vel":1.0,"bend":0.0,"ch":14,"track":8},{"t":1463.074,"dur":0.444,"note":54,"inst":"harpsichord_v0_additive_2","vel":1.0,"bend":0.0,"ch":6,"track":8},{"t":1463.074,"dur":0.444,"note":59,"inst":"celesta_v0_additive_3","vel":1.0,"bend":0.0,"ch":11,"track":8},{"t":1463.074,"dur":0.444,"note":61,"inst":"organ_v0_additive_1","vel":1.0,"bend":0.0,"ch":13,"track":8},{"t":1463.074,"dur":0.444,"note":71,"inst":"celesta_v0_additive_3","vel":1.0,"bend":0.0,"ch":7,"track":8},{"t":1463.074,"dur":0.444,"note":83,"inst":"celesta_v0_additive_3","vel":1.0,"bend":0.0,"ch":3,"track":8},{"t":1463.075,"dur":0.395,"note":38,"inst":"harpsichord_v0_additive_2","vel":1.0,"bend":0.0,"ch":6,"track":8},{"t":1463.47,"dur":0.395,"note":38,"inst":"harpsichord_v0_additive_2","vel":1.0,"bend":0.0,"ch":6,"track":8},{"t":1463.47,"dur":0.395,"note":50,"inst":"harpsichord_v0_additive_2","vel":1.0,"bend":0.0,"ch":2,"track":8},{"t":1463.629,"dur":0.111,"note":49,"inst":"organ_v0_additive_1","vel":1.0,"bend":0.0,"ch":1,"track":8},{"t":1463.629,"dur":0.111,"note":61,"inst":"organ_v0_additive_1","vel":1.0,"bend":0.0,"ch":13,"track":8},{"t":1463.74,"dur":0.111,"note":52,"inst":"piano_v0_additive_0","vel":1.0,"bend":0.0,"ch":4,"track":8},{"t":1463.74,"dur":0.111,"note":64,"inst":"piano_v0_additive_0","vel":1.0,"bend":0.0,"ch":0,"track":8},{"t":1463.85,"dur":0.111,"note":54,"inst":"harpsichord_v0_additive_2","vel":1.0,"bend":0.0,"ch":6,"track":8},{"t":1463.85,"dur":0.111,"note":66,"inst":"harpsichord_v0_additive_2","vel":1.0,"bend":0.0,"ch":2,"track":8},{"t":1463.865,"dur":0.395,"note":53,"inst":"organ_v0_additive_1","vel":1.0,"bend":0.0,"ch":5,"track":8},{"t":1463.961,"dur":0.111,"note":54,"inst":"harpsichord_v0_additive_2","vel":1.0,"bend":0.0,"ch":6,"track":8},{"t":1463.961,"dur":0.111,"note":66,"inst":"harpsichord_v0_additive_2","vel":1.0,"bend":0.0,"ch":2,"track":8},{"t":1464.072,"dur":0.111,"note":49,"inst":"organ_v0_additive_1","vel":1.0,"bend":0.0,"ch":1,"track":8},{"t":1464.072,"dur":0.111,"note":61,"inst":"organ_v0_additive_1","vel":1.0,"bend":0.0,"ch":13,"track":8},{"t":1464.183,"dur":0.111,"note":52,"inst":"piano_v0_additive_0","vel":1.0,"bend":0.0,"ch":4,"track":8},{"t":1464.183,"dur":0.111,"note":64,"inst":"piano_v0_additive_0","vel":1.0,"bend":0.0,"ch":0,"track":8},{"t":1464.26,"dur":0.395,"note":53,"inst":"organ_v0_additive_1","vel":1.0,"bend":0.0,"ch":5,"track":8},{"t":1464.294,"dur":0.111,"note":54,"inst":"harpsichord_v0_additive_2","vel":1.0,"bend":0.0,"ch":6,"track":8},{"t":1464.294,"dur":0.111,"note":66,"inst":"harpsichord_v0_additive_2","vel":1.0,"bend":0.0,"ch":2,"track":8},{"t":1464.405,"dur":0.111,"note":54,"inst":"harpsichord_v0_additive_2","vel":1.0,"bend":0.0,"ch":6,"track":8},{"t":1464.405,"dur":0.111,"note":66,"inst":"harpsichord_v0_additive_2","vel":1.0,"bend":0.0,"ch":2,"track":8},{"t":1464.516,"dur":0.111,"note":56,"inst":"piano_v0_additive_0","vel":1.0,"bend":0.0,"ch":8,"track":8},{"t":1464.516,"dur":0.111,"note":68,"inst":"piano_v0_additive_0","vel":1.0,"bend":0.0,"ch":4,"track":8},{"t":1464.627,"dur":0.111,"note":59,"inst":"celesta_v0_additive_3","vel":1.0,"bend":0.0,"ch":11,"track":8},{"t":1464.627,"dur":0.111,"note":71,"inst":"celesta_v0_additive_3","vel":1.0,"bend":0.0,"ch":7,"track":8},{"t":1464.655,"dur":1.185,"note":41,"inst":"organ_v0_additive_1","vel":1.0,"bend":0.0,"ch":9,"track":8},{"t":1464.655,"dur":0.395,"note":57,"inst":"organ_v0_additive_1","vel":1.0,"bend":0.0,"ch":9,"track":8},{"t":1464.737,"dur":0.111,"note":59,"inst":"celesta_v0_additive_3","vel":1.0,"bend":0.0,"ch":11,"track":8},{"t":1464.737,"dur":0.111,"note":71,"inst":"celesta_v0_additive_3","vel":1.0,"bend":0.0,"ch":7,"track":8},{"t":1464.848,"dur":0.222,"note":54,"inst":"harpsichord_v0_additive_2","vel":1.0,"bend":0.0,"ch":6,"track":8},{"t":1464.848,"dur":0.222,"note":59,"inst":"celesta_v0_additive_3","vel":1.0,"bend":0.0,"ch":11,"track":8},{"t":1464.848,"dur":0.222,"note":61,"inst":"organ_v0_additive_1","vel":1.0,"bend":0.0,"ch":13,"track":8},{"t":1464.848,"dur":0.222,"note":73,"inst":"organ_v0_additive_1","vel":1.0,"bend":0.0,"ch":9,"track":8},{"t":1465.05,"dur":0.395,"note":58,"inst":"harpsichord_v0_additive_2","vel":1.0,"bend":0.0,"ch":10,"track":8},{"t":1465.07,"dur":0.222,"note":54,"inst":"harpsichord_v0_additive_2","vel":1.0,"bend":0.0,"ch":6,"track":8},{"t":1465.07,"dur":0.222,"note":59,"inst":"celesta_v0_additive_3","vel":1.0,"bend":0.0,"ch":11,"track":8},{"t":1465.07,"dur":0.222,"note":61,"inst":"organ_v0_additive_1","vel":1.0,"bend":0.0,"ch":13,"track":8},{"t":1465.07,"dur":0.222,"note":66,"inst":"harpsichord_v0_additive_2","vel":1.0,"bend":0.0,"ch":2,"track":8},{"t":1465.07,"dur":0.222,"note":71,"inst":"celesta_v0_additive_3","vel":1.0,"bend":0.0,"ch":7,"track":8},{"t":1465.292,"dur":0.222,"note":54,"inst":"harpsichord_v0_additive_2","vel":1.0,"bend":0.0,"ch":6,"track":8},{"t":1465.292,"dur":0.222,"note":59,"inst":"celesta_v0_additive_3","vel":1.0,"bend":0.0,"ch":11,"track":8},{"t":1465.292,"dur":0.222,"note":61,"inst":"organ_v0_additive_1","vel":1.0,"bend":0.0,"ch":13,"track":8},{"t":1465.292,"dur":0.222,"note":66,"inst":"harpsichord_v0_additive_2","vel":1.0,"bend":0.0,"ch":2,"track":8},{"t":1465.292,"dur":0.222,"note":78,"inst":"harpsichord_v0_additive_2","vel":1.0,"bend":0.0,"ch":14,"track":8},{"t":1465.445,"dur":0.395,"note":58,"inst":"harpsichord_v0_additive_2","vel":1.0,"bend":0.0,"ch":10,"track":8},{"t":1465.514,"dur":0.222,"note":54,"inst":"harpsichord_v0_additive_2","vel":1.0,"bend":0.0,"ch":6,"track":8},{"t":1465.514,"dur":0.222,"note":59,"inst":"celesta_v0_additive_3","vel":1.0,"bend":0.0,"ch":11,"track":8},{"t":1465.514,"dur":0.222,"note":61,"inst":"organ_v0_additive_1","vel":1.0,"bend":0.0,"ch":13,"track":8},{"t":1465.514,"dur":0.222,"note":66,"inst":"harpsichord_v0_additive_2","vel":1.0,"bend":0.0,"ch":2,"track":8},{"t":1465.514,"dur":0.222,"note":73,"inst":"organ_v0_additive_1","vel":1.0,"bend":0.0,"ch":9,"track":8},{"t":1465.735,"dur":0.222,"note":54,"inst":"harpsichord_v0_additive_2","vel":1.0,"bend":0.0,"ch":6,"track":8},{"t":1465.735,"dur":0.222,"note":59,"inst":"celesta_v0_additive_3","vel":1.0,"bend":0.0,"ch":11,"track":8},{"t":1465.735,"dur":0.222,"note":61,"inst":"organ_v0_additive_1","vel":1.0,"bend":0.0,"ch":13,"track":8},{"t":1465.735,"dur":0.222,"note":66,"inst":"harpsichord_v0_additive_2","vel":1.0,"bend":0.0,"ch":2,"track":8},{"t":1465.735,"dur":0.222,"note":83,"inst":"celesta_v0_additive_3","vel":1.0,"bend":0.0,"ch":3,"track":8},{"t":1465.84,"dur":1.185,"note":46,"inst":"harpsichord_v0_additive_2","vel":1.0,"bend":0.0,"ch":14,"track":8},{"t":1465.84,"dur":0.395,"note":58,"inst":"harpsichord_v0_additive_2","vel":1.0,"bend":0.0,"ch":10,"track":8},{"t":1465.957,"dur":0.222,"note":54,"inst":"harpsichord_v0_additive_2","vel":1.0,"bend":0.0,"ch":6,"track":8},{"t":1465.957,"dur":0.222,"note":59,"inst":"celesta_v0_additive_3","vel":1.0,"bend":0.0,"ch":11,"track":8},{"t":1465.957,"dur":0.222,"note":61,"inst":"organ_v0_additive_1","vel":1.0,"bend":0.0,"ch":13,"track":8},{"t":1465.957,"dur":0.222,"note":66,"inst":"harpsichord_v0_additive_2","vel":1.0,"bend":0.0,"ch":2,"track":8},{"t":1465.957,"dur":0.222,"note":78,"inst":"harpsichord_v0_additive_2","vel":1.0,"bend":0.0,"ch":14,"track":8},{"t":1466.179,"dur":0.222,"note":56,"inst":"piano_v0_additive_0","vel":1.0,"bend":0.0,"ch":8,"track":8},{"t":1466.179,"dur":0.222,"note":61,"inst":"organ_v0_additive_1","vel":1.0,"bend":0.0,"ch":13,"track":8},{"t":1466.179,"dur":0.222,"note":64,"inst":"piano_v0_additive_0","vel":1.0,"bend":0.0,"ch":0,"track":8},{"t":1466.179,"dur":0.222,"note":90,"inst":"harpsichord_v0_additive_2","vel":1.0,"bend":0.0,"ch":10,"track":8},{"t":1466.235,"dur":0.395,"note":58,"inst":"harpsichord_v0_additive_2","vel":1.0,"bend":0.0,"ch":10,"track":8},{"t":1466.401,"dur":0.222,"note":56,"inst":"piano_v0_additive_0","vel":1.0,"bend":0.0,"ch":8,"track":8},{"t":1466.401,"dur":0.222,"note":61,"inst":"organ_v0_additive_1","vel":1.0,"bend":0.0,"ch":13,"track":8},{"t":1466.401,"dur":0.222,"note":64,"inst":"piano_v0_additive_0","vel":1.0,"bend":0.0,"ch":0,"track":8},{"t":1466.401,"dur":0.222,"note":85,"inst":"organ_v0_additive_1","vel":1.0,"bend":0.0,"ch":5,"track":8},{"t":1466.622,"dur":0.444,"note":49,"inst":"organ_v0_additive_1","vel":1.0,"bend":0.0,"ch":1,"track":8},{"t":1466.622,"dur":0.444,"note":61,"inst":"organ_v0_additive_1","vel":1.0,"bend":0.0,"ch":13,"track":8},{"t":1466.622,"dur":0.444,"note":73,"inst":"organ_v0_additive_1","vel":1.0,"bend":0.0,"ch":9,"track":8},{"t":1466.622,"dur":0.444,"note":85,"inst":"organ_v0_additive_1","vel":1.0,"bend":0.0,"ch":5,"track":8},{"t":1466.63,"dur":0.395,"note":57,"inst":"organ_v0_additive_1","vel":1.0,"bend":0.0,"ch":9,"track":8},{"t":1467.025,"dur":1.185,"note":38,"inst":"harpsichord_v0_additive_2","vel":1.0,"bend":0.0,"ch":6,"track":8},{"t":1467.025,"dur":0.395,"note":53,"inst":"organ_v0_additive_1","vel":1.0,"bend":0.0,"ch":5,"track":8},{"t":1467.177,"dur":0.111,"note":44,"inst":"piano_v0_additive_0","vel":1.0,"bend":0.0,"ch":12,"track":8},{"t":1467.177,"dur":0.111,"note":56,"inst":"piano_v0_additive_0","vel":1.0,"bend":0.0,"ch":8,"track":8},{"t":1467.288,"dur":0.111,"note":47,"inst":"celesta_v0_additive_3","vel":1.0,"bend":0.0,"ch":15,"track":8},{"t":1467.288,"dur":0.111,"note":59,"inst":"celesta_v0_additive_3","vel":1.0,"bend":0.0,"ch":11,"track":8},{"t":1467.399,"dur":0.111,"note":49,"inst":"organ_v0_additive_1","vel":1.0,"bend":0.0,"ch":1,"track":8},{"t":1467.399,"dur":0.111,"note":61,"inst":"organ_v0_additive_1","vel":1.0,"bend":0.0,"ch":13,"track":8},{"t":1467.42,"dur":0.395,"note":57,"inst":"organ_v0_additive_1","vel":1.0,"bend":0.0,"ch":9,"track":8},{"t":1467.509,"dur":0.111,"note":49,"inst":"organ_v0_additive_1","vel":1.0,"bend":0.0,"ch":1,"track":8},{"t":1467.509,"dur":0.111,"note":61,"inst":"organ_v0_additive_1","vel":1.0,"bend":0.0,"ch":13,"track":8},{"t":1467.62,"dur":0.111,"note":44,"inst":"piano_v0_additive_0","vel":1.0,"bend":0.0,"ch":12,"track":8},{"t":1467.62,"dur":0.111,"note":56,"inst":"piano_v0_additive_0","vel":1.0,"bend":0.0,"ch":8,"track":8},{"t":1467.731,"dur":0.111,"note":47,"inst":"celesta_v0_additive_3","vel":1.0,"bend":0.0,"ch":15,"track":8},{"t":1467.731,"dur":0.111,"note":59,"inst":"celesta_v0_additive_3","vel":1.0,"bend":0.0,"ch":11,"track":8},{"t":1467.815,"dur":0.395,"note":58,"inst":"harpsichord_v0_additive_2","vel":1.0,"bend":0.0,"ch":10,"track":8},{"t":1467.842,"dur":0.111,"note":49,"inst":"organ_v0_additive_1","vel":1.0,"bend":0.0,"ch":1,"track":8},{"t":1467.842,"dur":0.111,"note":61,"inst":"organ_v0_additive_1","vel":1.0,"bend":0.0,"ch":13,"track":8},{"t":1467.953,"dur":0.111,"note":49,"inst":"organ_v0_additive_1","vel":1.0,"bend":0.0,"ch":1,"track":8},{"t":1467.953,"dur":0.111,"note":61,"inst":"organ_v0_additive_1","vel":1.0,"bend":0.0,"ch":13,"track":8},{"t":1468.064,"dur":0.111,"note":52,"inst":"piano_v0_additive_0","vel":1.0,"bend":0.0,"ch":4,"track":8},{"t":1468.064,"dur":0.111,"note":64,"inst":"piano_v0_additive_0","vel":1.0,"bend":0.0,"ch":0,"track":8},{"t":1468.175,"dur":0.111,"note":54,"inst":"harpsichord_v0_additive_2","vel":1.0,"bend":0.0,"ch":6,"track":8},{"t":1468.175,"dur":0.111,"note":66,"inst":"harpsichord_v0_additive_2","vel":1.0,"bend":0.0,"ch":2,"track":8},{"t":1468.21,"dur":2.37,"note":45,"inst":"organ_v0_additive_1","vel":1.0,"bend":0.0,"ch":13,"track":8},{"t":1468.21,"dur":0.395,"note":58,"inst":"harpsichord_v0_additive_2","vel":1.0,"bend":0.0,"ch":10,"track":8},{"t":1468.286,"dur":0.111,"note":54,"inst":"harpsichord_v0_additive_2","vel":1.0,"bend":0.0,"ch":6,"track":8},{"t":1468.286,"dur":0.111,"note":66,"inst":"harpsichord_v0_additive_2","vel":1.0,"bend":0.0,"ch":2,"track":8},{"t":1468.396,"dur":0.222,"note":49,"inst":"organ_v0_additive_1","vel":1.0,"bend":0.0,"ch":1,"track":8},{"t":1468.396,"dur":0.222,"note":54,"inst":"harpsichord_v0_additive_2","vel":1.0,"bend":0.0,"ch":6,"track":8},{"t":1468.396,"dur":0.222,"note":56,"inst":"piano_v0_additive_0","vel":1.0,"bend":0.0,"ch":8,"track":8},{"t":1468.396,"dur":0.111,"note":68,"inst":"piano_v0_additive_0","vel":1.0,"bend":0.0,"ch":4,"track":8},{"t":1468.507,"dur":0.111,"note":66,"inst":"harpsichord_v0_additive_2","vel":1.0,"bend":0.0,"ch":2,"track":8},{"t":1468.605,"dur":0.395,"note":50,"inst":"harpsichord_v0_additive_2","vel":1.0,"bend":0.0,"ch":2,"track":8},{"t":1468.618,"dur":0.222,"note":49,"inst":"organ_v0_additive_1","vel":1.0,"bend":0.0,"ch":1,"track":8},{"t":1468.618,"dur":0.222,"note":54,"inst":"harpsichord_v0_additive_2","vel":1.0,"bend":0.0,"ch":6,"track":8},{"t":1468.618,"dur":0.222,"note":56,"inst":"piano_v0_additive_0","vel":1.0,"bend":0.0,"ch":8,"track":8},{"t":1468.618,"dur":0.111,"note":61,"inst":"organ_v0_additive_1","vel":1.0,"bend":0.0,"ch":13,"track":8},{"t":1468.729,"dur":0.111,"note":68,"inst":"piano_v0_additive_0","vel":1.0,"bend":0.0,"ch":4,"track":8},{"t":1468.84,"dur":0.222,"note":49,"inst":"organ_v0_additive_1","vel":1.0,"bend":0.0,"ch":1,"track":8},{"t":1468.84,"dur":0.222,"note":54,"inst":"harpsichord_v0_additive_2","vel":1.0,"bend":0.0,"ch":6,"track":8},{"t":1468.84,"dur":0.222,"note":56,"inst":"piano_v0_additive_0","vel":1.0,"bend":0.0,"ch":8,"track":8},{"t":1468.84,"dur":0.111,"note":73,"inst":"organ_v0_additive_1","vel":1.0,"bend":0.0,"ch":9,"track":8},{"t":1468.951,"dur":0.111,"note":68,"inst":"piano_v0_additive_0","vel":1.0,"bend":0.0,"ch":4,"track":8},{"t":1469.001,"dur":0.395,"note":62,"inst":"harpsichord_v0_additive_2","vel":1.0,"bend":0.0,"ch":14,"track":8},{"t":1469.062,"dur":0.222,"note":49,"inst":"organ_v0_additive_1","vel":1.0,"bend":0.0,"ch":1,"track":8},{"t":1469.062,"dur":0.222,"note":54,"inst":"harpsichord_v0_additive_2","vel":1.0,"bend":0.0,"ch":6,"track":8},{"t":1469.062,"dur":0.222,"note":56,"inst":"piano_v0_additive_0","vel":1.0,"bend":0.0,"ch":8,"track":8},{"t":1469.062,"dur":0.111,"note":66,"inst":"harpsichord_v0_additive_2","vel":1.0,"bend":0.0,"ch":2,"track":8},{"t":1469.173,"dur":0.111,"note":73,"inst":"organ_v0_additive_1","vel":1.0,"bend":0.0,"ch":9,"track":8},{"t":1469.283,"dur":0.222,"note":49,"inst":"organ_v0_additive_1","vel":1.0,"bend":0.0,"ch":1,"track":8},{"t":1469.283,"dur":0.222,"note":54,"inst":"harpsichord_v0_additive_2","vel":1.0,"bend":0.0,"ch":6,"track":8},{"t":1469.283,"dur":0.222,"note":56,"inst":"piano_v0_additive_0","vel":1.0,"bend":0.0,"ch":8,"track":8},{"t":1469.283,"dur":0.222,"note":61,"inst":"organ_v0_additive_1","vel":1.0,"bend":0.0,"ch":13,"track":8},{"t":1469.283,"dur":0.111,"note":78,"inst":"harpsichord_v0_additive_2","vel":1.0,"bend":0.0,"ch":14,"track":8},{"t":1469.394,"dur":0.111,"note":73,"inst":"organ_v0_additive_1","vel":1.0,"bend":0.0,"ch":9,"track":8},{"t":1469.396,"dur":0.395,"note":53,"inst":"organ_v0_additive_1","vel":1.0,"bend":0.0,"ch":5,"track":8},{"t":1469.396,"dur":0.395,"note":50,"inst":"harpsichord_v0_additive_2","vel":1.0,"bend":0.0,"ch":2,"track":8},{"t":1469.505,"dur":0.222,"note":49,"inst":"organ_v0_additive_1","vel":1.0,"bend":0.0,"ch":1,"track":8},{"t":1469.505,"dur":0.222,"note":54,"inst":"harpsichord_v0_additive_2","vel":1.0,"bend":0.0,"ch":6,"track":8},{"t":1469.505,"dur":0.222,"note":56,"inst":"piano_v0_additive_0","vel":1.0,"bend":0.0,"ch":8,"track":8},{"t":1469.505,"dur":0.222,"note":61,"inst":"organ_v0_additive_1","vel":1.0,"bend":0.0,"ch":13,"track":8},{"t":1469.505,"dur":0.111,"note":68,"inst":"piano_v0_additive_0","vel":1.0,"bend":0.0,"ch":4,"track":8},{"t":1469.616,"dur":0.111,"note":78,"inst":"harpsichord_v0_additive_2","vel":1.0,"bend":0.0,"ch":14,"track":8},{"t":1469.727,"dur":0.222,"note":49,"inst":"organ_v0_additive_1","vel":1.0,"bend":0.0,"ch":1,"track":8},{"t":1469.727,"dur":0.222,"note":54,"inst":"harpsichord_v0_additive_2","vel":1.0,"bend":0.0,"ch":6,"track":8},{"t":1469.727,"dur":0.222,"note":56,"inst":"piano_v0_additive_0","vel":1.0,"bend":0.0,"ch":8,"track":8},{"t":1469.727,"dur":0.222,"note":61,"inst":"organ_v0_additive_1","vel":1.0,"bend":0.0,"ch":13,"track":8},{"t":1469.727,"dur":0.111,"note":80,"inst":"piano_v0_additive_0","vel":1.0,"bend":0.0,"ch":0,"track":8},{"t":1469.791,"dur":0.395,"note":62,"inst":"harpsichord_v0_additive_2","vel":1.0,"bend":0.0,"ch":14,"track":8},{"t":1469.838,"dur":0.111,"note":78,"inst":"harpsichord_v0_additive_2","vel":1.0,"bend":0.0,"ch":14,"track":8},{"t":1469.949,"dur":0.222,"note":49,"inst":"organ_v0_additive_1","vel":1.0,"bend":0.0,"ch":1,"track":8},{"t":1469.949,"dur":0.222,"note":54,"inst":"harpsichord_v0_additive_2","vel":1.0,"bend":0.0,"ch":6,"track":8},{"t":1469.949,"dur":0.222,"note":56,"inst":"piano_v0_additive_0","vel":1.0,"bend":0.0,"ch":8,"track":8},{"t":1469.949,"dur":0.222,"note":61,"inst":"organ_v0_additive_1","vel":1.0,"bend":0.0,"ch":13,"track":8},{"t":1469.949,"dur":0.111,"note":73,"inst":"organ_v0_additive_1","vel":1.0,"bend":0.0,"ch":9,"track":8},{"t":1470.06,"dur":0.111,"note":80,"inst":"piano_v0_additive_0","vel":1.0,"bend":0.0,"ch":0,"track":8},{"t":1470.17,"dur":0.444,"note":54,"inst":"harpsichord_v0_additive_2","vel":1.0,"bend":0.0,"ch":6,"track":8},{"t":1470.17,"dur":0.444,"note":59,"inst":"celesta_v0_additive_3","vel":1.0,"bend":0.0,"ch":11,"track":8},{"t":1470.17,"dur":0.444,"note":61,"inst":"organ_v0_additive_1","vel":1.0,"bend":0.0,"ch":13,"track":8},{"t":1470.17,"dur":0.444,"note":71,"inst":"celesta_v0_additive_3","vel":1.0,"bend":0.0,"ch":7,"track":8},{"t":1470.17,"dur":0.444,"note":73,"inst":"organ_v0_additive_1","vel":1.0,"bend":0.0,"ch":9,"track":8},{"t":1470.17,"dur":0.444,"note":78,"inst":"harpsichord_v0_additive_2","vel":1.0,"bend":0.0,"ch":14,"track":8},{"t":1470.17,"dur":0.444,"note":83,"inst":"celesta_v0_additive_3","vel":1.0,"bend":0.0,"ch":3,"track":8},{"t":1470.186,"dur":0.395,"note":58,"inst":"harpsichord_v0_additive_2","vel":1.0,"bend":0.0,"ch":10,"track":8},{"t":1470.581,"dur":0.395,"note":41,"inst":"organ_v0_additive_1","vel":1.0,"bend":0.0,"ch":9,"track":8},{"t":1470.581,"dur":0.395,"note":53,"inst":"organ_v0_additive_1","vel":1.0,"bend":0.0,"ch":5,"track":8},{"t":1470.581,"dur":0.395,"note":58,"inst":"harpsichord_v0_additive_2","vel":1.0,"bend":0.0,"ch":10,"track":8},{"t":1470.725,"dur":0.111,"note":49,"inst":"organ_v0_additive_1","vel":1.0,"bend":0.0,"ch":1,"track":8},{"t":1470.725,"dur":0.111,"note":61,"inst":"organ_v0_additive_1","vel":1.0,"bend":0.0,"ch":13,"track":8},{"t":1470.836,"dur":0.111,"note":52,"inst":"piano_v0_additive_0","vel":1.0,"bend":0.0,"ch":4,"track":8},{"t":1470.836,"dur":0.111,"note":64,"inst":"piano_v0_additive_0","vel":1.0,"bend":0.0,"ch":0,"track":8},{"t":1470.947,"dur":0.111,"note":54,"inst":"harpsichord_v0_additive_2","vel":1.0,"bend":0.0,"ch":6,"track":8},{"t":1470.947,"dur":0.111,"note":66,"inst":"harpsichord_v0_additive_2","vel":1.0,"bend":0.0,"ch":2,"track":8},{"t":1470.976,"dur":0.395,"note":41,"inst":"organ_v0_additive_1","vel":1.0,"bend":0.0,"ch":9,"track":8},{"t":1470.976,"dur":0.395,"note":50,"inst":"harpsichord_v0_additive_2","vel":1.0,"bend":0.0,"ch":2,"track":8},{"t":1471.057,"dur":0.111,"note":54,"inst":"harpsichord_v0_additive_2","vel":1.0,"bend":0.0,"ch":6,"track":8},{"t":1471.057,"dur":0.111,"note":66,"inst":"harpsichord_v0_additive_2","vel":1.0,"bend":0.0,"ch":2,"track":8},{"t":1471.168,"dur":0.111,"note":49,"inst":"organ_v0_additive_1","vel":1.0,"bend":0.0,"ch":1,"track":8},{"t":1471.168,"dur":0.111,"note":61,"inst":"organ_v0_additive_1","vel":1.0,"bend":0.0,"ch":13,"track":8},{"t":1471.279,"dur":0.111,"note":52,"inst":"piano_v0_additive_0","vel":1.0,"bend":0.0,"ch":4,"track":8},{"t":1471.279,"dur":0.111,"note":64,"inst":"piano_v0_additive_0","vel":1.0,"bend":0.0,"ch":0,"track":8},{"t":1471.371,"dur":0.395,"note":38,"inst":"harpsichord_v0_additive_2","vel":1.0,"bend":0.0,"ch":6,"track":8},{"t":1471.371,"dur":0.395,"note":50,"inst":"harpsichord_v0_additive_2","vel":1.0,"bend":0.0,"ch":2,"track":8},{"t":1471.39,"dur":0.111,"note":54,"inst":"harpsichord_v0_additive_2","vel":1.0,"bend":0.0,"ch":6,"track":8},{"t":1471.39,"dur":0.111,"note":66,"inst":"harpsichord_v0_additive_2","vel":1.0,"bend":0.0,"ch":2,"track":8},{"t":1471.501,"dur":0.111,"note":54,"inst":"harpsichord_v0_additive_2","vel":1.0,"bend":0.0,"ch":6,"track":8},{"t":1471.501,"dur":0.111,"note":66,"inst":"harpsichord_v0_additive_2","vel":1.0,"bend":0.0,"ch":2,"track":8},{"t":1471.612,"dur":0.111,"note":56,"inst":"piano_v0_additive_0","vel":1.0,"bend":0.0,"ch":8,"track":8},{"t":1471.612,"dur":0.111,"note":68,"inst":"piano_v0_additive_0","vel":1.0,"bend":0.0,"ch":4,"track":8},{"t":1471.723,"dur":0.111,"note":59,"inst":"celesta_v0_additive_3","vel":1.0,"bend":0.0,"ch":11,"track":8},{"t":1471.723,"dur":0.111,"note":71,"inst":"celesta_v0_additive_3","vel":1.0,"bend":0.0,"ch":7,"track":8},{"t":1471.834,"dur":0.111,"note":59,"inst":"celesta_v0_additive_3","vel":1.0,"bend":0.0,"ch":11,"track":8},{"t":1471.834,"dur":0.111,"note":71,"inst":"celesta_v0_additive_3","vel":1.0,"bend":0.0,"ch":7,"track":8},{"t":1471.944,"dur":0.222,"note":54,"inst":"harpsichord_v0_additive_2","vel":1.0,"bend":0.0,"ch":6,"track":8},{"t":1471.944,"dur":0.222,"note":59,"inst":"celesta_v0_additive_3","vel":1.0,"bend":0.0,"ch":11,"track":8},{"t":1471.944,"dur":0.222,"note":61,"inst":"organ_v0_additive_1","vel":1.0,"bend":0.0,"ch":13,"track":8},{"t":1471.944,"dur":0.111,"note":73,"inst":"organ_v0_additive_1","vel":1.0,"bend":0.0,"ch":9,"track":8},{"t":1472.055,"dur":0.111,"note":71,"inst":"celesta_v0_additive_3","vel":1.0,"bend":0.0,"ch":7,"track":8},{"t":1472.166,"dur":0.222,"note":54,"inst":"harpsichord_v0_additive_2","vel":1.0,"bend":0.0,"ch":6,"track":8},{"t":1472.166,"dur":0.222,"note":59,"inst":"celesta_v0_additive_3","vel":1.0,"bend":0.0,"ch":11,"track":8},{"t":1472.166,"dur":0.222,"note":61,"inst":"organ_v0_additive_1","vel":1.0,"bend":0.0,"ch":13,"track":8},{"t":1472.166,"dur":0.111,"note":66,"inst":"harpsichord_v0_additive_2","vel":1.0,"bend":0.0,"ch":2,"track":8},{"t":1472.277,"dur":0.111,"note":73,"inst":"organ_v0_additive_1","vel":1.0,"bend":0.0,"ch":9,"track":8},{"t":1472.388,"dur":0.222,"note":54,"inst":"harpsichord_v0_additive_2","vel":1.0,"bend":0.0,"ch":6,"track":8},{"t":1472.388,"dur":0.222,"note":59,"inst":"celesta_v0_additive_3","vel":1.0,"bend":0.0,"ch":11,"track":8},{"t":1472.388,"dur":0.222,"note":61,"inst":"organ_v0_additive_1","vel":1.0,"bend":0.0,"ch":13,"track":8},{"t":1472.388,"dur":0.111,"note":78,"inst":"harpsichord_v0_additive_2","vel":1.0,"bend":0.0,"ch":14,"track":8},{"t":1472.499,"dur":0.111,"note":73,"inst":"organ_v0_additive_1","vel":1.0,"bend":0.0,"ch":9,"track":8},{"t":1472.61,"dur":0.222,"note":54,"inst":"harpsichord_v0_additive_2","vel":1.0,"bend":0.0,"ch":6,"track":8},{"t":1472.61,"dur":0.222,"note":59,"inst":"celesta_v0_additive_3","vel":1.0,"bend":0.0,"ch":11,"track":8},{"t":1472.61,"dur":0.222,"note":61,"inst":"organ_v0_additive_1","vel":1.0,"bend":0.0,"ch":13,"track":8},{"t":1472.61,"dur":0.111,"note":71,"inst":"celesta_v0_additive_3","vel":1.0,"bend":0.0,"ch":7,"track":8},{"t":1472.721,"dur":0.111,"note":78,"inst":"harpsichord_v0_additive_2","vel":1.0,"bend":0.0,"ch":14,"track":8},{"t":1472.831,"dur":0.222,"note":54,"inst":"harpsichord_v0_additive_2","vel":1.0,"bend":0.0,"ch":6,"track":8},{"t":1472.831,"dur":0.222,"note":59,"inst":"celesta_v0_additive_3","vel":1.0,"bend":0.0,"ch":11,"track":8},{"t":1472.831,"dur":0.222,"note":61,"inst":"organ_v0_additive_1","vel":1.0,"bend":0.0,"ch":13,"track":8},{"t":1472.831,"dur":0.222,"note":66,"inst":"harpsichord_v0_additive_2","vel":1.0,"bend":0.0,"ch":2,"track":8},{"t":1472.831,"dur":0.111,"note":83,"inst":"celesta_v0_additive_3","vel":1.0,"bend":0.0,"ch":3,"track":8},{"t":1472.942,"dur":0.111,"note":78,"inst":"harpsichord_v0_additive_2","vel":1.0,"bend":0.0,"ch":14,"track":8},{"t":1473.053,"dur":0.222,"note":54,"inst":"harpsichord_v0_additive_2","vel":1.0,"bend":0.0,"ch":6,"track":8},{"t":1473.053,"dur":0.222,"note":59,"inst":"celesta_v0_additive_3","vel":1.0,"bend":0.0,"ch":11,"track":8},{"t":1473.053,"dur":0.222,"note":61,"inst":"organ_v0_additive_1","vel":1.0,"bend":0.0,"ch":13,"track":8},{"t":1473.053,"dur":0.222,"note":66,"inst":"harpsichord_v0_additive_2","vel":1.0,"bend":0.0,"ch":2,"track":8},{"t":1473.053,"dur":0.111,"note":73,"inst":"organ_v0_additive_1","vel":1.0,"bend":0.0,"ch":9,"track":8},{"t":1473.164,"dur":0.111,"note":83,"inst":"celesta_v0_additive_3","vel":1.0,"bend":0.0,"ch":3,"track":8},{"t":1473.275,"dur":0.222,"note":56,"inst":"piano_v0_additive_0","vel":1.0,"bend":0.0,"ch":8,"track":8},{"t":1473.275,"dur":0.222,"note":61,"inst":"organ_v0_additive_1","vel":1.0,"bend":0.0,"ch":13,"track":8},{"t":1473.275,"dur":0.222,"note":64,"inst":"piano_v0_additive_0","vel":1.0,"bend":0.0,"ch":0,"track":8},{"t":1473.275,"dur":0.111,"note":78,"inst":"harpsichord_v0_additive_2","vel":1.0,"bend":0.0,"ch":14,"track":8},{"t":1473.386,"dur":0.111,"note":90,"inst":"harpsichord_v0_additive_2","vel":1.0,"bend":0.0,"ch":10,"track":8},{"t":1473.497,"dur":0.222,"note":56,"inst":"piano_v0_additive_0","vel":1.0,"bend":0.0,"ch":8,"track":8},{"t":1473.497,"dur":0.222,"note":61,"inst":"organ_v0_additive_1","vel":1.0,"bend":0.0,"ch":13,"track":8},{"t":1473.497,"dur":0.222,"note":64,"inst":"piano_v0_additive_0","vel":1.0,"bend":0.0,"ch":0,"track":8},{"t":1473.497,"dur":0.111,"note":88,"inst":"piano_v0_additive_0","vel":1.0,"bend":0.0,"ch":8,"track":8},{"t":1473.608,"dur":0.111,"note":85,"inst":"organ_v0_additive_1","vel":1.0,"bend":0.0,"ch":5,"track":8},{"t":1473.719,"dur":0.444,"note":49,"inst":"organ_v0_additive_1","vel":1.0,"bend":0.0,"ch":1,"track":8},{"t":1473.719,"dur":0.444,"note":61,"inst":"organ_v0_additive_1","vel":1.0,"bend":0.0,"ch":13,"track":8},{"t":1473.719,"dur":0.444,"note":85,"inst":"organ_v0_additive_1","vel":1.0,"bend":0.0,"ch":5,"track":8},{"t":1474.606,"dur":0.148,"note":61,"inst":"organ_v0_additive_1","vel":1.0,"bend":0.0,"ch":13,"track":8},{"t":1474.606,"dur":0.222,"note":78,"inst":"harpsichord_v0_additive_2","vel":1.0,"bend":0.0,"ch":14,"track":8},{"t":1474.753,"dur":0.148,"note":66,"inst":"harpsichord_v0_additive_2","vel":1.0,"bend":0.0,"ch":2,"track":8},{"t":1474.827,"dur":0.111,"note":78,"inst":"harpsichord_v0_additive_2","vel":1.0,"bend":0.0,"ch":14,"track":8},{"t":1474.901,"dur":0.148,"note":68,"inst":"piano_v0_additive_0","vel":1.0,"bend":0.0,"ch":4,"track":8},{"t":1474.938,"dur":0.111,"note":78,"inst":"harpsichord_v0_additive_2","vel":1.0,"bend":0.0,"ch":14,"track":8},{"t":1475.049,"dur":0.148,"note":61,"inst":"organ_v0_additive_1","vel":1.0,"bend":0.0,"ch":13,"track":8},{"t":1475.049,"dur":0.222,"note":80,"inst":"piano_v0_additive_0","vel":1.0,"bend":0.0,"ch":0,"track":8},{"t":1475.197,"dur":0.148,"note":64,"inst":"piano_v0_additive_0","vel":1.0,"bend":0.0,"ch":0,"track":8},{"t":1475.271,"dur":0.111,"note":83,"inst":"celesta_v0_additive_3","vel":1.0,"bend":0.0,"ch":3,"track":8},{"t":1475.345,"dur":0.148,"note":68,"inst":"piano_v0_additive_0","vel":1.0,"bend":0.0,"ch":4,"track":8},{"t":1475.382,"dur":0.111,"note":80,"inst":"piano_v0_additive_0","vel":1.0,"bend":0.0,"ch":0,"track":8},{"t":1475.493,"dur":0.148,"note":61,"inst":"organ_v0_additive_1","vel":1.0,"bend":0.0,"ch":13,"track":8},{"t":1475.493,"dur":0.222,"note":78,"inst":"harpsichord_v0_additive_2","vel":1.0,"bend":0.0,"ch":14,"track":8},{"t":1475.64,"dur":0.148,"note":66,"inst":"harpsichord_v0_additive_2","vel":1.0,"bend":0.0,"ch":2,"track":8},{"t":1475.714,"dur":0.111,"note":78,"inst":"harpsichord_v0_additive_2","vel":1.0,"bend":0.0,"ch":14,"track":8},{"t":1475.788,"dur":0.148,"note":68,"inst":"piano_v0_additive_0","vel":1.0,"bend":0.0,"ch":4,"track":8},{"t":1475.825,"dur":0.111,"note":78,"inst":"harpsichord_v0_additive_2","vel":1.0,"bend":0.0,"ch":14,"track":8},{"t":1475.936,"dur":0.148,"note":61,"inst":"organ_v0_additive_1","vel":1.0,"bend":0.0,"ch":13,"track":8},{"t":1475.936,"dur":0.222,"note":80,"inst":"piano_v0_additive_0","vel":1.0,"bend":0.0,"ch":0,"track":8},{"t":1476.084,"dur":0.148,"note":64,"inst":"piano_v0_additive_0","vel":1.0,"bend":0.0,"ch":0,"track":8},{"t":1476.158,"dur":0.111,"note":83,"inst":"celesta_v0_additive_3","vel":1.0,"bend":0.0,"ch":3,"track":8},{"t":1476.232,"dur":0.148,"note":68,"inst":"piano_v0_additive_0","vel":1.0,"bend":0.0,"ch":4,"track":8},{"t":1476.269,"dur":0.111,"note":80,"inst":"piano_v0_additive_0","vel":1.0,"bend":0.0,"ch":0,"track":8},{"t":1476.38,"dur":0.148,"note":59,"inst":"celesta_v0_additive_3","vel":1.0,"bend":0.0,"ch":11,"track":8},{"t":1476.38,"dur":0.222,"note":73,"inst":"organ_v0_additive_1","vel":1.0,"bend":0.0,"ch":9,"track":8},{"t":1476.527,"dur":0.148,"note":61,"inst":"organ_v0_additive_1","vel":1.0,"bend":0.0,"ch":13,"track":8},{"t":1476.601,"dur":0.111,"note":76,"inst":"piano_v0_additive_0","vel":1.0,"bend":0.0,"ch":12,"track":8},{"t":1476.675,"dur":0.148,"note":66,"inst":"harpsichord_v0_additive_2","vel":1.0,"bend":0.0,"ch":2,"track":8},{"t":1476.712,"dur":0.111,"note":73,"inst":"organ_v0_additive_1","vel":1.0,"bend":0.0,"ch":9,"track":8},{"t":1476.823,"dur":0.148,"note":58,"inst":"harpsichord_v0_additive_2","vel":1.0,"bend":0.0,"ch":10,"track":8},{"t":1476.823,"dur":0.222,"note":78,"inst":"harpsichord_v0_additive_2","vel":1.0,"bend":0.0,"ch":14,"track":8},{"t":1476.971,"dur":0.148,"note":61,"inst":"organ_v0_additive_1","vel":1.0,"bend":0.0,"ch":13,"track":8},{"t":1477.045,"dur":0.111,"note":78,"inst":"harpsichord_v0_additive_2","vel":1.0,"bend":0.0,"ch":14,"track":8},{"t":1477.119,"dur":0.148,"note":66,"inst":"harpsichord_v0_additive_2","vel":1.0,"bend":0.0,"ch":2,"track":8},{"t":1477.156,"dur":0.111,"note":78,"inst":"harpsichord_v0_additive_2","vel":1.0,"bend":0.0,"ch":14,"track":8},{"t":1477.267,"dur":0.148,"note":59,"inst":"celesta_v0_additive_3","vel":1.0,"bend":0.0,"ch":11,"track":8},{"t":1477.267,"dur":0.222,"note":73,"inst":"organ_v0_additive_1","vel":1.0,"bend":0.0,"ch":9,"track":8},{"t":1477.414,"dur":0.148,"note":61,"inst":"organ_v0_additive_1","vel":1.0,"bend":0.0,"ch":13,"track":8},{"t":1477.488,"dur":0.111,"note":76,"inst":"piano_v0_additive_0","vel":1.0,"bend":0.0,"ch":12,"track":8},{"t":1477.562,"dur":0.148,"note":66,"inst":"harpsichord_v0_additive_2","vel":1.0,"bend":0.0,"ch":2,"track":8},{"t":1477.599,"dur":0.111,"note":73,"inst":"organ_v0_additive_1","vel":1.0,"bend":0.0,"ch":9,"track":8},{"t":1477.71,"dur":0.148,"note":58,"inst":"harpsichord_v0_additive_2","vel":1.0,"bend":0.0,"ch":10,"track":8},{"t":1477.71,"dur":0.222,"note":78,"inst":"harpsichord_v0_additive_2","vel":1.0,"bend":0.0,"ch":14,"track":8},{"t":1477.858,"dur":0.148,"note":61,"inst":"organ_v0_additive_1","vel":1.0,"bend":0.0,"ch":13,"track":8},{"t":1477.932,"dur":0.111,"note":78,"inst":"harpsichord_v0_additive_2","vel":1.0,"bend":0.0,"ch":14,"track":8},{"t":1478.006,"dur":0.148,"note":66,"inst":"harpsichord_v0_additive_2","vel":1.0,"bend":0.0,"ch":2,"track":8},{"t":1478.043,"dur":0.111,"note":78,"inst":"harpsichord_v0_additive_2","vel":1.0,"bend":0.0,"ch":14,"track":8},{"t":1478.154,"dur":0.148,"note":59,"inst":"celesta_v0_additive_3","vel":1.0,"bend":0.0,"ch":11,"track":8},{"t":1478.154,"dur":0.222,"note":73,"inst":"organ_v0_additive_1","vel":1.0,"bend":0.0,"ch":9,"track":8},{"t":1478.301,"dur":0.148,"note":61,"inst":"organ_v0_additive_1","vel":1.0,"bend":0.0,"ch":13,"track":8},{"t":1478.375,"dur":0.111,"note":76,"inst":"piano_v0_additive_0","vel":1.0,"bend":0.0,"ch":12,"track":8},{"t":1478.449,"dur":0.148,"note":66,"inst":"harpsichord_v0_additive_2","vel":1.0,"bend":0.0,"ch":2,"track":8},{"t":1478.486,"dur":0.111,"note":73,"inst":"organ_v0_additive_1","vel":1.0,"bend":0.0,"ch":9,"track":8},{"t":1478.597,"dur":0.148,"note":56,"inst":"piano_v0_additive_0","vel":1.0,"bend":0.0,"ch":8,"track":8},{"t":1478.597,"dur":0.222,"note":76,"inst":"piano_v0_additive_0","vel":1.0,"bend":0.0,"ch":12,"track":8},{"t":1478.745,"dur":0.148,"note":59,"inst":"celesta_v0_additive_3","vel":1.0,"bend":0.0,"ch":11,"track":8},{"t":1478.819,"dur":0.111,"note":78,"inst":"harpsichord_v0_additive_2","vel":1.0,"bend":0.0,"ch":14,"track":8},{"t":1478.893,"dur":0.148,"note":64,"inst":"piano_v0_additive_0","vel":1.0,"bend":0.0,"ch":0,"track":8},{"t":1478.93,"dur":0.111,"note":76,"inst":"piano_v0_additive_0","vel":1.0,"bend":0.0,"ch":12,"track":8},{"t":1479.041,"dur":0.111,"note":56,"inst":"piano_v0_additive_0","vel":1.0,"bend":0.0,"ch":8,"track":8},{"t":1479.041,"dur":0.222,"note":73,"inst":"organ_v0_additive_1","vel":1.0,"bend":0.0,"ch":9,"track":8},{"t":1479.151,"dur":0.111,"note":61,"inst":"organ_v0_additive_1","vel":1.0,"bend":0.0,"ch":13,"track":8},{"t":1479.262,"dur":0.111,"note":64,"inst":"piano_v0_additive_0","vel":1.0,"bend":0.0,"ch":0,"track":8},{"t":1479.262,"dur":0.111,"note":73,"inst":"organ_v0_additive_1","vel":1.0,"bend":0.0,"ch":9,"track":8},{"t":1479.373,"dur":0.111,"note":61,"inst":"organ_v0_additive_1","vel":1.0,"bend":0.0,"ch":13,"track":8},{"t":1479.373,"dur":0.111,"note":73,"inst":"organ_v0_additive_1","vel":1.0,"bend":0.0,"ch":9,"track":8},{"t":1479.484,"dur":0.111,"note":56,"inst":"piano_v0_additive_0","vel":1.0,"bend":0.0,"ch":8,"track":8},{"t":1479.484,"dur":0.222,"note":76,"inst":"piano_v0_additive_0","vel":1.0,"bend":0.0,"ch":12,"track":8},{"t":1479.595,"dur":0.111,"note":59,"inst":"celesta_v0_additive_3","vel":1.0,"bend":0.0,"ch":11,"track":8},{"t":1479.706,"dur":0.111,"note":64,"inst":"piano_v0_additive_0","vel":1.0,"bend":0.0,"ch":0,"track":8},{"t":1479.706,"dur":0.111,"note":78,"inst":"harpsichord_v0_additive_2","vel":1.0,"bend":0.0,"ch":14,"track":8},{"t":1479.817,"dur":0.111,"note":59,"inst":"celesta_v0_additive_3","vel":1.0,"bend":0.0,"ch":11,"track":8},{"t":1479.817,"dur":0.111,"note":76,"inst":"piano_v0_additive_0","vel":1.0,"bend":0.0,"ch":12,"track":8},{"t":1479.928,"dur":0.111,"note":54,"inst":"harpsichord_v0_additive_2","vel":1.0,"bend":0.0,"ch":6,"track":8},{"t":1479.928,"dur":0.222,"note":68,"inst":"piano_v0_additive_0","vel":1.0,"bend":0.0,"ch":4,"track":8},{"t":1480.038,"dur":0.111,"note":56,"inst":"piano_v0_additive_0","vel":1.0,"bend":0.0,"ch":8,"track":8},{"t":1480.149,"dur":0.111,"note":61,"inst":"organ_v0_additive_1","vel":1.0,"bend":0.0,"ch":13,"track":8},{"t":1480.149,"dur":0.111,"note":71,"inst":"celesta_v0_additive_3","vel":1.0,"bend":0.0,"ch":7,"track":8},{"t":1480.26,"dur":0.111,"note":56,"inst":"piano_v0_additive_0","vel":1.0,"bend":0.0,"ch":8,"track":8},{"t":1480.26,"dur":0.111,"note":68,"inst":"piano_v0_additive_0","vel":1.0,"bend":0.0,"ch":4,"track":8},{"t":1480.371,"dur":0.111,"note":52,"inst":"piano_v0_additive_0","vel":1.0,"bend":0.0,"ch":4,"track":8},{"t":1480.371,"dur":0.444,"note":73,"inst":"organ_v0_additive_1","vel":1.0,"bend":0.0,"ch":9,"track":8},{"t":1480.482,"dur":0.111,"note":56,"inst":"piano_v0_additive_0","vel":1.0,"bend":0.0,"ch":8,"track":8},{"t":1480.593,"dur":0.111,"note":61,"inst":"organ_v0_additive_1","vel":1.0,"bend":0.0,"ch":13,"track":8},{"t":1480.704,"dur":0.111,"note":56,"inst":"piano_v0_additive_0","vel":1.0,"bend":0.0,"ch":8,"track":8},{"t":1480.815,"dur":0.111,"note":49,"inst":"organ_v0_additive_1","vel":1.0,"bend":0.0,"ch":1,"track":8},{"t":1480.815,"dur":0.222,"note":66,"inst":"harpsichord_v0_additive_2","vel":1.0,"bend":0.0,"ch":2,"track":8},{"t":1480.926,"dur":0.111,"note":54,"inst":"harpsichord_v0_additive_2","vel":1.0,"bend":0.0,"ch":6,"track":8},{"t":1481.036,"dur":0.111,"note":56,"inst":"piano_v0_additive_0","vel":1.0,"bend":0.0,"ch":8,"track":8},{"t":1481.036,"dur":0.111,"note":68,"inst":"piano_v0_additive_0","vel":1.0,"bend":0.0,"ch":4,"track":8},{"t":1481.147,"dur":0.111,"note":54,"inst":"harpsichord_v0_additive_2","vel":1.0,"bend":0.0,"ch":6,"track":8},{"t":1481.147,"dur":0.111,"note":66,"inst":"harpsichord_v0_additive_2","vel":1.0,"bend":0.0,"ch":2,"track":8},{"t":1481.258,"dur":0.111,"note":49,"inst":"organ_v0_additive_1","vel":1.0,"bend":0.0,"ch":1,"track":8},{"t":1481.258,"dur":0.222,"note":68,"inst":"piano_v0_additive_0","vel":1.0,"bend":0.0,"ch":4,"track":8},{"t":1481.369,"dur":0.111,"note":52,"inst":"piano_v0_additive_0","vel":1.0,"bend":0.0,"ch":4,"track":8},{"t":1481.48,"dur":0.111,"note":56,"inst":"piano_v0_additive_0","vel":1.0,"bend":0.0,"ch":8,"track":8},{"t":1481.48,"dur":0.111,"note":71,"inst":"celesta_v0_additive_3","vel":1.0,"bend":0.0,"ch":7,"track":8},{"t":1481.591,"dur":0.111,"note":52,"inst":"piano_v0_additive_0","vel":1.0,"bend":0.0,"ch":4,"track":8},{"t":1481.591,"dur":0.111,"note":68,"inst":"piano_v0_additive_0","vel":1.0,"bend":0.0,"ch":4,"track":8},{"t":1481.702,"dur":0.111,"note":47,"inst":"celesta_v0_additive_3","vel":1.0,"bend":0.0,"ch":15,"track":8},{"t":1481.702,"dur":0.222,"note":71,"inst":"celesta_v0_additive_3","vel":1.0,"bend":0.0,"ch":7,"track":8},{"t":1481.813,"dur":0.111,"note":52,"inst":"piano_v0_additive_0","vel":1.0,"bend":0.0,"ch":4,"track":8},{"t":1481.923,"dur":0.111,"note":56,"inst":"piano_v0_additive_0","vel":1.0,"bend":0.0,"ch":8,"track":8},{"t":1481.923,"dur":0.111,"note":73,"inst":"organ_v0_additive_1","vel":1.0,"bend":0.0,"ch":9,"track":8},{"t":1482.034,"dur":0.111,"note":52,"inst":"piano_v0_additive_0","vel":1.0,"bend":0.0,"ch":4,"track":8},{"t":1482.034,"dur":0.111,"note":71,"inst":"celesta_v0_additive_3","vel":1.0,"bend":0.0,"ch":7,"track":8},{"t":1482.145,"dur":0.111,"note":44,"inst":"piano_v0_additive_0","vel":1.0,"bend":0.0,"ch":12,"track":8},{"t":1482.145,"dur":0.444,"note":73,"inst":"organ_v0_additive_1","vel":1.0,"bend":0.0,"ch":9,"track":8},{"t":1482.256,"dur":0.111,"note":52,"inst":"piano_v0_additive_0","vel":1.0,"bend":0.0,"ch":4,"track":8},{"t":1482.367,"dur":0.111,"note":56,"inst":"piano_v0_additive_0","vel":1.0,"bend":0.0,"ch":8,"track":8},{"t":1482.478,"dur":0.111,"note":52,"inst":"piano_v0_additive_0","vel":1.0,"bend":0.0,"ch":4,"track":8},{"t":1482.589,"dur":0.111,"note":56,"inst":"piano_v0_additive_0","vel":1.0,"bend":0.0,"ch":8,"track":8},{"t":1482.589,"dur":0.222,"note":73,"inst":"organ_v0_additive_1","vel":1.0,"bend":0.0,"ch":9,"track":8},{"t":1482.7,"dur":0.111,"note":61,"inst":"organ_v0_additive_1","vel":1.0,"bend":0.0,"ch":13,"track":8},{"t":1482.81,"dur":0.111,"note":64,"inst":"piano_v0_additive_0","vel":1.0,"bend":0.0,"ch":0,"track":8},{"t":1482.81,"dur":0.111,"note":73,"inst":"organ_v0_additive_1","vel":1.0,"bend":0.0,"ch":9,"track":8},{"t":1482.921,"dur":0.111,"note":61,"inst":"organ_v0_additive_1","vel":1.0,"bend":0.0,"ch":13,"track":8},{"t":1482.921,"dur":0.111,"note":73,"inst":"organ_v0_additive_1","vel":1.0,"bend":0.0,"ch":9,"track":8},{"t":1483.032,"dur":0.111,"note":56,"inst":"piano_v0_additive_0","vel":1.0,"bend":0.0,"ch":8,"track":8},{"t":1483.032,"dur":0.222,"note":76,"inst":"piano_v0_additive_0","vel":1.0,"bend":0.0,"ch":12,"track":8},{"t":1483.143,"dur":0.111,"note":59,"inst":"celesta_v0_additive_3","vel":1.0,"bend":0.0,"ch":11,"track":8},{"t":1483.254,"dur":0.111,"note":64,"inst":"piano_v0_additive_0","vel":1.0,"bend":0.0,"ch":0,"track":8},{"t":1483.254,"dur":0.111,"note":78,"inst":"harpsichord_v0_additive_2","vel":1.0,"bend":0.0,"ch":14,"track":8},{"t":1483.365,"dur":0.111,"note":59,"inst":"celesta_v0_additive_3","vel":1.0,"bend":0.0,"ch":11,"track":8},{"t":1483.365,"dur":0.111,"note":76,"inst":"piano_v0_additive_0","vel":1.0,"bend":0.0,"ch":12,"track":8},{"t":1483.476,"dur":0.111,"note":54,"inst":"harpsichord_v0_additive_2","vel":1.0,"bend":0.0,"ch":6,"track":8},{"t":1483.476,"dur":0.222,"note":80,"inst":"piano_v0_additive_0","vel":1.0,"bend":0.0,"ch":0,"track":8},{"t":1483.587,"dur":0.111,"note":59,"inst":"celesta_v0_additive_3","vel":1.0,"bend":0.0,"ch":11,"track":8},{"t":1483.697,"dur":0.111,"note":63,"inst":"celesta_v0_additive_3","vel":1.0,"bend":0.0,"ch":15,"track":8},{"t":1483.697,"dur":0.111,"note":83,"inst":"celesta_v0_additive_3","vel":1.0,"bend":0.0,"ch":3,"track":8},{"t":1483.808,"dur":0.111,"note":59,"inst":"celesta_v0_additive_3","vel":1.0,"bend":0.0,"ch":11,"track":8},{"t":1483.808,"dur":0.111,"note":80,"inst":"piano_v0_additive_0","vel":1.0,"bend":0.0,"ch":0,"track":8},{"t":1483.919,"dur":0.111,"note":52,"inst":"piano_v0_additive_0","vel":1.0,"bend":0.0,"ch":4,"track":8},{"t":1483.919,"dur":0.444,"note":80,"inst":"piano_v0_additive_0","vel":1.0,"bend":0.0,"ch":0,"track":8},{"t":1484.03,"dur":0.111,"note":59,"inst":"celesta_v0_additive_3","vel":1.0,"bend":0.0,"ch":11,"track":8},{"t":1484.141,"dur":0.111,"note":64,"inst":"piano_v0_additive_0","vel":1.0,"bend":0.0,"ch":0,"track":8},{"t":1484.252,"dur":0.111,"note":59,"inst":"celesta_v0_additive_3","vel":1.0,"bend":0.0,"ch":11,"track":8},{"t":1484.363,"dur":0.111,"note":56,"inst":"piano_v0_additive_0","vel":1.0,"bend":0.0,"ch":8,"track":8},{"t":1484.363,"dur":0.222,"note":78,"inst":"harpsichord_v0_additive_2","vel":1.0,"bend":0.0,"ch":14,"track":8},{"t":1484.474,"dur":0.111,"note":61,"inst":"organ_v0_additive_1","vel":1.0,"bend":0.0,"ch":13,"track":8},{"t":1484.584,"dur":0.111,"note":66,"inst":"harpsichord_v0_additive_2","vel":1.0,"bend":0.0,"ch":2,"track":8},{"t":1484.584,"dur":0.111,"note":80,"inst":"piano_v0_additive_0","vel":1.0,"bend":0.0,"ch":0,"track":8},{"t":1484.695,"dur":0.111,"note":61,"inst":"organ_v0_additive_1","vel":1.0,"bend":0.0,"ch":13,"track":8},{"t":1484.695,"dur":0.111,"note":78,"inst":"harpsichord_v0_additive_2","vel":1.0,"bend":0.0,"ch":14,"track":8},{"t":1484.806,"dur":0.111,"note":59,"inst":"celesta_v0_additive_3","vel":1.0,"bend":0.0,"ch":11,"track":8},{"t":1484.806,"dur":0.222,"note":75,"inst":"celesta_v0_additive_3","vel":1.0,"bend":0.0,"ch":11,"track":8},{"t":1484.806,"dur":0.222,"note":76,"inst":"piano_v0_additive_0","vel":1.0,"bend":0.0,"ch":12,"track":8},{"t":1484.917,"dur":0.111,"note":66,"inst":"harpsichord_v0_additive_2","vel":1.0,"bend":0.0,"ch":2,"track":8},{"t":1485.028,"dur":0.111,"note":68,"inst":"piano_v0_additive_0","vel":1.0,"bend":0.0,"ch":4,"track":8},{"t":1485.028,"dur":0.111,"note":73,"inst":"organ_v0_additive_1","vel":1.0,"bend":0.0,"ch":9,"track":8},{"t":1485.139,"dur":0.111,"note":66,"inst":"harpsichord_v0_additive_2","vel":1.0,"bend":0.0,"ch":2,"track":8},{"t":1485.139,"dur":0.111,"note":75,"inst":"celesta_v0_additive_3","vel":1.0,"bend":0.0,"ch":11,"track":8},{"t":1485.25,"dur":0.111,"note":52,"inst":"piano_v0_additive_0","vel":1.0,"bend":0.0,"ch":4,"track":8},{"t":1485.25,"dur":0.444,"note":76,"inst":"piano_v0_additive_0","vel":1.0,"bend":0.0,"ch":12,"track":8},{"t":1485.361,"dur":0.111,"note":56,"inst":"piano_v0_additive_0","vel":1.0,"bend":0.0,"ch":8,"track":8},{"t":1485.471,"dur":0.111,"note":59,"inst":"celesta_v0_additive_3","vel":1.0,"bend":0.0,"ch":11,"track":8},{"t":1485.582,"dur":0.111,"note":64,"inst":"piano_v0_additive_0","vel":1.0,"bend":0.0,"ch":0,"track":8},{"t":1485.693,"dur":0.111,"note":63,"inst":"celesta_v0_additive_3","vel":1.0,"bend":0.0,"ch":15,"track":8},{"t":1485.804,"dur":0.111,"note":64,"inst":"piano_v0_additive_0","vel":1.0,"bend":0.0,"ch":0,"track":8},{"t":1485.915,"dur":0.111,"note":61,"inst":"organ_v0_additive_1","vel":1.0,"bend":0.0,"ch":13,"track":8},{"t":1486.026,"dur":0.111,"note":59,"inst":"celesta_v0_additive_3","vel":1.0,"bend":0.0,"ch":11,"track":8},{"t":1486.137,"dur":0.111,"note":56,"inst":"piano_v0_additive_0","vel":1.0,"bend":0.0,"ch":8,"track":8},{"t":1486.248,"dur":0.111,"note":64,"inst":"piano_v0_additive_0","vel":1.0,"bend":0.0,"ch":0,"track":8},{"t":1486.285,"dur":0.148,"note":73,"inst":"organ_v0_additive_1","vel":1.0,"bend":0.0,"ch":9,"track":8},{"t":1486.358,"dur":0.111,"note":61,"inst":"organ_v0_additive_1","vel":1.0,"bend":0.0,"ch":13,"track":8},{"t":1486.432,"dur":0.148,"note":85,"inst":"organ_v0_additive_1","vel":1.0,"bend":0.0,"ch":5,"track":8},{"t":1486.469,"dur":0.111,"note":64,"inst":"piano_v0_additive_0","vel":1.0,"bend":0.0,"ch":0,"track":8},{"t":1486.58,"dur":0.111,"note":56,"inst":"piano_v0_additive_0","vel":1.0,"bend":0.0,"ch":8,"track":8},{"t":1486.691,"dur":0.111,"note":64,"inst":"piano_v0_additive_0","vel":1.0,"bend":0.0,"ch":0,"track":8},{"t":1486.728,"dur":0.148,"note":76,"inst":"piano_v0_additive_0","vel":1.0,"bend":0.0,"ch":12,"track":8},{"t":1486.802,"dur":0.111,"note":59,"inst":"celesta_v0_additive_3","vel":1.0,"bend":0.0,"ch":11,"track":8},{"t":1486.876,"dur":0.148,"note":88,"inst":"piano_v0_additive_0","vel":1.0,"bend":0.0,"ch":8,"track":8},{"t":1486.913,"dur":0.111,"note":64,"inst":"piano_v0_additive_0","vel":1.0,"bend":0.0,"ch":0,"track":8},{"t":1487.024,"dur":0.111,"note":54,"inst":"harpsichord_v0_additive_2","vel":1.0,"bend":0.0,"ch":6,"track":8},{"t":1487.135,"dur":0.111,"note":61,"inst":"organ_v0_additive_1","vel":1.0,"bend":0.0,"ch":13,"track":8},{"t":1487.172,"dur":0.148,"note":68,"inst":"piano_v0_additive_0","vel":1.0,"bend":0.0,"ch":4,"track":8},{"t":1487.245,"dur":0.111,"note":56,"inst":"piano_v0_additive_0","vel":1.0,"bend":0.0,"ch":8,"track":8},{"t":1487.319,"dur":0.148,"note":80,"inst":"piano_v0_additive_0","vel":1.0,"bend":0.0,"ch":0,"track":8},{"t":1487.356,"dur":0.111,"note":61,"inst":"organ_v0_additive_1","vel":1.0,"bend":0.0,"ch":13,"track":8},{"t":1487.467,"dur":0.111,"note":52,"inst":"piano_v0_additive_0","vel":1.0,"bend":0.0,"ch":4,"track":8},{"t":1487.578,"dur":0.111,"note":61,"inst":"organ_v0_additive_1","vel":1.0,"bend":0.0,"ch":13,"track":8},{"t":1487.615,"dur":0.148,"note":73,"inst":"organ_v0_additive_1","vel":1.0,"bend":0.0,"ch":9,"track":8},{"t":1487.689,"dur":0.111,"note":56,"inst":"piano_v0_additive_0","vel":1.0,"bend":0.0,"ch":8,"track":8},{"t":1487.763,"dur":0.148,"note":85,"inst":"organ_v0_additive_1","vel":1.0,"bend":0.0,"ch":5,"track":8},{"t":1487.8,"dur":0.111,"note":61,"inst":"organ_v0_additive_1","vel":1.0,"bend":0.0,"ch":13,"track":8},{"t":1487.911,"dur":0.111,"note":49,"inst":"organ_v0_additive_1","vel":1.0,"bend":0.0,"ch":1,"track":8},{"t":1488.022,"dur":0.111,"note":56,"inst":"piano_v0_additive_0","vel":1.0,"bend":0.0,"ch":8,"track":8},{"t":1488.059,"dur":0.148,"note":66,"inst":"harpsichord_v0_additive_2","vel":1.0,"bend":0.0,"ch":2,"track":8},{"t":1488.133,"dur":0.111,"note":54,"inst":"harpsichord_v0_additive_2","vel":1.0,"bend":0.0,"ch":6,"track":8},{"t":1488.206,"dur":0.148,"note":78,"inst":"harpsichord_v0_additive_2","vel":1.0,"bend":0.0,"ch":14,"track":8},{"t":1488.243,"dur":0.111,"note":56,"inst":"piano_v0_additive_0","vel":1.0,"bend":0.0,"ch":8,"track":8},{"t":1488.354,"dur":0.111,"note":49,"inst":"organ_v0_additive_1","vel":1.0,"bend":0.0,"ch":1,"track":8},{"t":1488.465,"dur":0.111,"note":56,"inst":"piano_v0_additive_0","vel":1.0,"bend":0.0,"ch":8,"track":8},{"t":1488.502,"dur":0.148,"note":68,"inst":"piano_v0_additive_0","vel":1.0,"bend":0.0,"ch":4,"track":8},{"t":1488.576,"dur":0.111,"note":52,"inst":"piano_v0_additive_0","vel":1.0,"bend":0.0,"ch":4,"track":8},{"t":1488.65,"dur":0.148,"note":80,"inst":"piano_v0_additive_0","vel":1.0,"bend":0.0,"ch":0,"track":8},{"t":1488.687,"dur":0.111,"note":56,"inst":"piano_v0_additive_0","vel":1.0,"bend":0.0,"ch":8,"track":8},{"t":1488.798,"dur":0.111,"note":47,"inst":"celesta_v0_additive_3","vel":1.0,"bend":0.0,"ch":15,"track":8},{"t":1488.909,"dur":0.111,"note":56,"inst":"piano_v0_additive_0","vel":1.0,"bend":0.0,"ch":8,"track":8},{"t":1488.946,"dur":0.148,"note":71,"inst":"celesta_v0_additive_3","vel":1.0,"bend":0.0,"ch":7,"track":8},{"t":1489.02,"dur":0.111,"note":52,"inst":"piano_v0_additive_0","vel":1.0,"bend":0.0,"ch":4,"track":8},{"t":1489.093,"dur":0.148,"note":83,"inst":"celesta_v0_additive_3","vel":1.0,"bend":0.0,"ch":3,"track":8},{"t":1489.13,"dur":0.111,"note":56,"inst":"piano_v0_additive_0","vel":1.0,"bend":0.0,"ch":8,"track":8},{"t":1489.241,"dur":0.111,"note":44,"inst":"piano_v0_additive_0","vel":1.0,"bend":0.0,"ch":12,"track":8},{"t":1489.352,"dur":0.111,"note":56,"inst":"piano_v0_additive_0","vel":1.0,"bend":0.0,"ch":8,"track":8},{"t":1489.389,"dur":0.148,"note":73,"inst":"organ_v0_additive_1","vel":1.0,"bend":0.0,"ch":9,"track":8},{"t":1489.463,"dur":0.111,"note":52,"inst":"piano_v0_additive_0","vel":1.0,"bend":0.0,"ch":4,"track":8},{"t":1489.537,"dur":0.148,"note":85,"inst":"organ_v0_additive_1","vel":1.0,"bend":0.0,"ch":5,"track":8},{"t":1489.574,"dur":0.111,"note":56,"inst":"piano_v0_additive_0","vel":1.0,"bend":0.0,"ch":8,"track":8},{"t":1489.685,"dur":0.111,"note":56,"inst":"piano_v0_additive_0","vel":1.0,"bend":0.0,"ch":8,"track":8},{"t":1489.796,"dur":0.111,"note":64,"inst":"piano_v0_additive_0","vel":1.0,"bend":0.0,"ch":0,"track":8},{"t":1489.833,"dur":0.148,"note":73,"inst":"organ_v0_additive_1","vel":1.0,"bend":0.0,"ch":9,"track":8},{"t":1489.907,"dur":0.111,"note":61,"inst":"organ_v0_additive_1","vel":1.0,"bend":0.0,"ch":13,"track":8},{"t":1489.98,"dur":0.148,"note":85,"inst":"organ_v0_additive_1","vel":1.0,"bend":0.0,"ch":5,"track":8},{"t":1490.017,"dur":0.111,"note":64,"inst":"piano_v0_additive_0","vel":1.0,"bend":0.0,"ch":0,"track":8},{"t":1490.128,"dur":0.111,"note":56,"inst":"piano_v0_additive_0","vel":1.0,"bend":0.0,"ch":8,"track":8},{"t":1490.239,"dur":0.111,"note":64,"inst":"piano_v0_additive_0","vel":1.0,"bend":0.0,"ch":0,"track":8},{"t":1490.276,"dur":0.148,"note":76,"inst":"piano_v0_additive_0","vel":1.0,"bend":0.0,"ch":12,"track":8},{"t":1490.35,"dur":0.111,"note":59,"inst":"celesta_v0_additive_3","vel":1.0,"bend":0.0,"ch":11,"track":8},{"t":1490.424,"dur":0.148,"note":88,"inst":"piano_v0_additive_0","vel":1.0,"bend":0.0,"ch":8,"track":8},{"t":1490.461,"dur":0.111,"note":64,"inst":"piano_v0_additive_0","vel":1.0,"bend":0.0,"ch":0,"track":8},{"t":1490.572,"dur":0.111,"note":54,"inst":"harpsichord_v0_additive_2","vel":1.0,"bend":0.0,"ch":6,"track":8},{"t":1490.683,"dur":0.111,"note":63,"inst":"celesta_v0_additive_3","vel":1.0,"bend":0.0,"ch":15,"track":8},{"t":1490.72,"dur":0.148,"note":80,"inst":"piano_v0_additive_0","vel":1.0,"bend":0.0,"ch":0,"track":8},{"t":1490.794,"dur":0.111,"note":59,"inst":"celesta_v0_additive_3","vel":1.0,"bend":0.0,"ch":11,"track":8},{"t":1490.867,"dur":0.148,"note":92,"inst":"piano_v0_additive_0","vel":1.0,"bend":0.0,"ch":12,"track":8},{"t":1490.904,"dur":0.111,"note":63,"inst":"celesta_v0_additive_3","vel":1.0,"bend":0.0,"ch":15,"track":8},{"t":1491.015,"dur":0.111,"note":52,"inst":"piano_v0_additive_0","vel":1.0,"bend":0.0,"ch":4,"track":8},{"t":1491.126,"dur":0.111,"note":64,"inst":"piano_v0_additive_0","vel":1.0,"bend":0.0,"ch":0,"track":8},{"t":1491.163,"dur":0.148,"note":80,"inst":"piano_v0_additive_0","vel":1.0,"bend":0.0,"ch":0,"track":8},{"t":1491.237,"dur":0.111,"note":59,"inst":"celesta_v0_additive_3","vel":1.0,"bend":0.0,"ch":11,"track":8},{"t":1491.311,"dur":0.148,"note":92,"inst":"piano_v0_additive_0","vel":1.0,"bend":0.0,"ch":12,"track":8},{"t":1491.348,"dur":0.111,"note":64,"inst":"piano_v0_additive_0","vel":1.0,"bend":0.0,"ch":0,"track":8},{"t":1491.459,"dur":0.111,"note":56,"inst":"piano_v0_additive_0","vel":1.0,"bend":0.0,"ch":8,"track":8},{"t":1491.57,"dur":0.111,"note":66,"inst":"harpsichord_v0_additive_2","vel":1.0,"bend":0.0,"ch":2,"track":8},{"t":1491.607,"dur":0.148,"note":78,"inst":"harpsichord_v0_additive_2","vel":1.0,"bend":0.0,"ch":14,"track":8},{"t":1491.681,"dur":0.111,"note":61,"inst":"organ_v0_additive_1","vel":1.0,"bend":0.0,"ch":13,"track":8},{"t":1491.754,"dur":0.148,"note":90,"inst":"harpsichord_v0_additive_2","vel":1.0,"bend":0.0,"ch":10,"track":8},{"t":1491.791,"dur":0.111,"note":66,"inst":"harpsichord_v0_additive_2","vel":1.0,"bend":0.0,"ch":2,"track":8},{"t":1491.902,"dur":0.111,"note":59,"inst":"celesta_v0_additive_3","vel":1.0,"bend":0.0,"ch":11,"track":8},{"t":1492.013,"dur":0.111,"note":68,"inst":"piano_v0_additive_0","vel":1.0,"bend":0.0,"ch":4,"track":8},{"t":1492.05,"dur":0.148,"note":75,"inst":"celesta_v0_additive_3","vel":1.0,"bend":0.0,"ch":11,"track":8},{"t":1492.124,"dur":0.111,"note":66,"inst":"harpsichord_v0_additive_2","vel":1.0,"bend":0.0,"ch":2,"track":8},{"t":1492.198,"dur":0.148,"note":87,"inst":"celesta_v0_additive_3","vel":1.0,"bend":0.0,"ch":7,"track":8},{"t":1492.235,"dur":0.111,"note":68,"inst":"piano_v0_additive_0","vel":1.0,"bend":0.0,"ch":4,"track":8},{"t":1492.346,"dur":0.111,"note":52,"inst":"piano_v0_additive_0","vel":1.0,"bend":0.0,"ch":4,"track":8},{"t":1492.457,"dur":0.111,"note":56,"inst":"piano_v0_additive_0","vel":1.0,"bend":0.0,"ch":8,"track":8},{"t":1492.494,"dur":0.148,"note":76,"inst":"piano_v0_additive_0","vel":1.0,"bend":0.0,"ch":12,"track":8},{"t":1492.568,"dur":0.111,"note":59,"inst":"celesta_v0_additive_3","vel":1.0,"bend":0.0,"ch":11,"track":8},{"t":1492.642,"dur":0.148,"note":88,"inst":"piano_v0_additive_0","vel":1.0,"bend":0.0,"ch":8,"track":8},{"t":1492.678,"dur":0.111,"note":64,"inst":"piano_v0_additive_0","vel":1.0,"bend":0.0,"ch":0,"track":8},{"t":1492.789,"dur":0.111,"note":63,"inst":"celesta_v0_additive_3","vel":1.0,"bend":0.0,"ch":15,"track":8},{"t":1492.9,"dur":0.111,"note":64,"inst":"piano_v0_additive_0","vel":1.0,"bend":0.0,"ch":0,"track":8},{"t":1493.011,"dur":0.111,"note":59,"inst":"celesta_v0_additive_3","vel":1.0,"bend":0.0,"ch":11,"track":8},{"t":1493.122,"dur":0.111,"note":56,"inst":"piano_v0_additive_0","vel":1.0,"bend":0.0,"ch":8,"track":8},{"t":1493.233,"dur":0.222,"note":52,"inst":"piano_v0_additive_0","vel":1.0,"bend":0.0,"ch":4,"track":8},{"t":1493.233,"dur":0.222,"note":76,"inst":"piano_v0_additive_0","vel":1.0,"bend":0.0,"ch":12,"track":8},{"t":1493.455,"dur":0.111,"note":54,"inst":"harpsichord_v0_additive_2","vel":1.0,"bend":0.0,"ch":6,"track":8},{"t":1493.455,"dur":0.111,"note":78,"inst":"harpsichord_v0_additive_2","vel":1.0,"bend":0.0,"ch":14,"track":8},{"t":1493.565,"dur":0.111,"note":52,"inst":"piano_v0_additive_0","vel":1.0,"bend":0.0,"ch":4,"track":8},{"t":1493.565,"dur":0.111,"note":76,"inst":"piano_v0_additive_0","vel":1.0,"bend":0.0,"ch":12,"track":8},{"t":1493.676,"dur":0.222,"note":49,"inst":"organ_v0_additive_1","vel":1.0,"bend":0.0,"ch":1,"track":8},{"t":1493.676,"dur":0.222,"note":73,"inst":"organ_v0_additive_1","vel":1.0,"bend":0.0,"ch":9,"track":8},{"t":1493.898,"dur":0.222,"note":51,"inst":"celesta_v0_additive_3","vel":1.0,"bend":0.0,"ch":3,"track":8},{"t":1493.898,"dur":0.222,"note":75,"inst":"celesta_v0_additive_3","vel":1.0,"bend":0.0,"ch":11,"track":8},{"t":1494.12,"dur":0.444,"note":52,"inst":"piano_v0_additive_0","vel":1.0,"bend":0.0,"ch":4,"track":8},{"t":1494.12,"dur":0.444,"note":76,"inst":"piano_v0_additive_0","vel":1.0,"bend":0.0,"ch":12,"track":8},{"t":1494.563,"dur":0.444,"note":40,"inst":"piano_v0_additive_0","vel":1.0,"bend":0.0,"ch":8,"track":8},{"t":1494.563,"dur":0.444,"note":64,"inst":"piano_v0_additive_0","vel":1.0,"bend":0.0,"ch":0,"track":8},{"t":1495.007,"dur":0.222,"note":42,"inst":"harpsichord_v0_additive_2","vel":1.0,"bend":0.0,"ch":10,"track":8},{"t":1495.007,"dur":0.222,"note":44,"inst":"piano_v0_additive_0","vel":1.0,"bend":0.0,"ch":12,"track":8},{"t":1495.007,"dur":0.222,"note":66,"inst":"harpsichord_v0_additive_2","vel":1.0,"bend":0.0,"ch":2,"track":8},{"t":1495.007,"dur":0.222,"note":68,"inst":"piano_v0_additive_0","vel":1.0,"bend":0.0,"ch":4,"track":8},{"t":1495.229,"dur":0.222,"note":40,"inst":"piano_v0_additive_0","vel":1.0,"bend":0.0,"ch":8,"track":8},{"t":1495.229,"dur":0.222,"note":64,"inst":"piano_v0_additive_0","vel":1.0,"bend":0.0,"ch":0,"track":8},{"t":1495.45,"dur":0.222,"note":42,"inst":"harpsichord_v0_additive_2","vel":1.0,"bend":0.0,"ch":10,"track":8},{"t":1495.45,"dur":0.222,"note":66,"inst":"harpsichord_v0_additive_2","vel":1.0,"bend":0.0,"ch":2,"track":8},{"t":1495.672,"dur":0.222,"note":44,"inst":"piano_v0_additive_0","vel":1.0,"bend":0.0,"ch":12,"track":8},{"t":1495.672,"dur":0.222,"note":68,"inst":"piano_v0_additive_0","vel":1.0,"bend":0.0,"ch":4,"track":8},{"t":1495.894,"dur":0.444,"note":44,"inst":"piano_v0_additive_0","vel":1.0,"bend":0.0,"ch":12,"track":8},{"t":1495.894,"dur":0.444,"note":68,"inst":"piano_v0_additive_0","vel":1.0,"bend":0.0,"ch":4,"track":8},{"t":1496.337,"dur":0.444,"note":32,"inst":"piano_v0_additive_0","vel":1.0,"bend":0.0,"ch":0,"track":8},{"t":1496.337,"dur":0.444,"note":56,"inst":"piano_v0_additive_0","vel":1.0,"bend":0.0,"ch":8,"track":8},{"t":1496.781,"dur":0.111,"note":52,"inst":"piano_v0_additive_0","vel":1.0,"bend":0.0,"ch":4,"track":8},{"t":1496.892,"dur":0.111,"note":59,"inst":"celesta_v0_additive_3","vel":1.0,"bend":0.0,"ch":11,"track":8},{"t":1496.929,"dur":0.148,"note":76,"inst":"piano_v0_additive_0","vel":1.0,"bend":0.0,"ch":12,"track":8},{"t":1497.003,"dur":0.111,"note":56,"inst":"piano_v0_additive_0","vel":1.0,"bend":0.0,"ch":8,"track":8},{"t":1497.077,"dur":0.148,"note":88,"inst":"piano_v0_additive_0","vel":1.0,"bend":0.0,"ch":8,"track":8},{"t":1497.114,"dur":0.111,"note":59,"inst":"celesta_v0_additive_3","vel":1.0,"bend":0.0,"ch":11,"track":8},{"t":1497.224,"dur":0.111,"note":54,"inst":"harpsichord_v0_additive_2","vel":1.0,"bend":0.0,"ch":6,"track":8},{"t":1497.335,"dur":0.111,"note":59,"inst":"celesta_v0_additive_3","vel":1.0,"bend":0.0,"ch":11,"track":8},{"t":1497.372,"dur":0.148,"note":75,"inst":"celesta_v0_additive_3","vel":1.0,"bend":0.0,"ch":11,"track":8},{"t":1497.446,"dur":0.111,"note":56,"inst":"piano_v0_additive_0","vel":1.0,"bend":0.0,"ch":8,"track":8},{"t":1497.52,"dur":0.148,"note":87,"inst":"celesta_v0_additive_3","vel":1.0,"bend":0.0,"ch":7,"track":8},{"t":1497.557,"dur":0.111,"note":59,"inst":"celesta_v0_additive_3","vel":1.0,"bend":0.0,"ch":11,"track":8},{"t":1497.668,"dur":0.111,"note":52,"inst":"piano_v0_additive_0","vel":1.0,"bend":0.0,"ch":4,"track":8},{"t":1497.779,"dur":0.111,"note":59,"inst":"celesta_v0_additive_3","vel":1.0,"bend":0.0,"ch":11,"track":8},{"t":1497.816,"dur":0.148,"note":76,"inst":"piano_v0_additive_0","vel":1.0,"bend":0.0,"ch":12,"track":8},{"t":1497.89,"dur":0.111,"note":56,"inst":"piano_v0_additive_0","vel":1.0,"bend":0.0,"ch":8,"track":8},{"t":1497.964,"dur":0.148,"note":88,"inst":"piano_v0_additive_0","vel":1.0,"bend":0.0,"ch":8,"track":8},{"t":1498.001,"dur":0.111,"note":59,"inst":"celesta_v0_additive_3","vel":1.0,"bend":0.0,"ch":11,"track":8},{"t":1498.111,"dur":0.111,"note":44,"inst":"piano_v0_additive_0","vel":1.0,"bend":0.0,"ch":12,"track":8},{"t":1498.222,"dur":0.111,"note":56,"inst":"piano_v0_additive_0","vel":1.0,"bend":0.0,"ch":8,"track":8},{"t":1498.259,"dur":0.148,"note":73,"inst":"organ_v0_additive_1","vel":1.0,"bend":0.0,"ch":9,"track":8},{"t":1498.333,"dur":0.111,"note":54,"inst":"harpsichord_v0_additive_2","vel":1.0,"bend":0.0,"ch":6,"track":8},{"t":1498.407,"dur":0.148,"note":85,"inst":"organ_v0_additive_1","vel":1.0,"bend":0.0,"ch":5,"track":8},{"t":1498.444,"dur":0.111,"note":56,"inst":"piano_v0_additive_0","vel":1.0,"bend":0.0,"ch":8,"track":8},{"t":1498.555,"dur":0.111,"note":49,"inst":"organ_v0_additive_1","vel":1.0,"bend":0.0,"ch":1,"track":8},{"t":1498.666,"dur":0.111,"note":59,"inst":"celesta_v0_additive_3","vel":1.0,"bend":0.0,"ch":11,"track":8},{"t":1498.703,"dur":0.148,"note":73,"inst":"organ_v0_additive_1","vel":1.0,"bend":0.0,"ch":9,"track":8},{"t":1498.777,"dur":0.111,"note":54,"inst":"harpsichord_v0_additive_2","vel":1.0,"bend":0.0,"ch":6,"track":8},{"t":1498.851,"dur":0.148,"note":85,"inst":"organ_v0_additive_1","vel":1.0,"bend":0.0,"ch":5,"track":8},{"t":1498.888,"dur":0.111,"note":59,"inst":"celesta_v0_additive_3","vel":1.0,"bend":0.0,"ch":11,"track":8},{"t":1498.998,"dur":0.111,"note":52,"inst":"piano_v0_additive_0","vel":1.0,"bend":0.0,"ch":4,"track":8},{"t":1499.109,"dur":0.111,"note":61,"inst":"organ_v0_additive_1","vel":1.0,"bend":0.0,"ch":13,"track":8},{"t":1499.146,"dur":0.148,"note":68,"inst":"piano_v0_additive_0","vel":1.0,"bend":0.0,"ch":4,"track":8},{"t":1499.22,"dur":0.111,"note":59,"inst":"celesta_v0_additive_3","vel":1.0,"bend":0.0,"ch":11,"track":8},{"t":1499.294,"dur":0.148,"note":80,"inst":"piano_v0_additive_0","vel":1.0,"bend":0.0,"ch":0,"track":8},{"t":1499.331,"dur":0.111,"note":61,"inst":"organ_v0_additive_1","vel":1.0,"bend":0.0,"ch":13,"track":8},{"t":1499.442,"dur":0.111,"note":56,"inst":"piano_v0_additive_0","vel":1.0,"bend":0.0,"ch":8,"track":8},{"t":1499.442,"dur":0.111,"note":61,"inst":"organ_v0_additive_1","vel":1.0,"bend":0.0,"ch":13,"track":8},{"t":1499.442,"dur":0.444,"note":68,"inst":"piano_v0_additive_0","vel":1.0,"bend":0.0,"ch":4,"track":8},{"t":1499.442,"dur":0.444,"note":80,"inst":"piano_v0_additive_0","vel":1.0,"bend":0.0,"ch":0,"track":8},{"t":1499.553,"dur":0.111,"note":64,"inst":"piano_v0_additive_0","vel":1.0,"bend":0.0,"ch":0,"track":8},{"t":1499.664,"dur":0.111,"note":61,"inst":"organ_v0_additive_1","vel":1.0,"bend":0.0,"ch":13,"track":8},{"t":1499.775,"dur":0.111,"note":61,"inst":"organ_v0_additive_1","vel":1.0,"bend":0.0,"ch":13,"track":8},{"t":1499.885,"dur":0.111,"note":59,"inst":"celesta_v0_additive_3","vel":1.0,"bend":0.0,"ch":11,"track":8},{"t":1499.996,"dur":0.111,"note":56,"inst":"piano_v0_additive_0","vel":1.0,"bend":0.0,"ch":8,"track":8},{"t":1500.107,"dur":0.111,"note":56,"inst":"piano_v0_additive_0","vel":1.0,"bend":0.0,"ch":8,"track":8},{"t":1500.218,"dur":0.111,"note":54,"inst":"harpsichord_v0_additive_2","vel":1.0,"bend":0.0,"ch":6,"track":8},{"t":1500.329,"dur":0.222,"note":52,"inst":"piano_v0_additive_0","vel":1.0,"bend":0.0,"ch":4,"track":8},{"t":1500.329,"dur":0.222,"note":76,"inst":"piano_v0_additive_0","vel":1.0,"bend":0.0,"ch":12,"track":8},{"t":1500.551,"dur":0.111,"note":54,"inst":"harpsichord_v0_additive_2","vel":1.0,"bend":0.0,"ch":6,"track":8},{"t":1500.551,"dur":0.111,"note":78,"inst":"harpsichord_v0_additive_2","vel":1.0,"bend":0.0,"ch":14,"track":8},{"t":1500.662,"dur":0.111,"note":52,"inst":"piano_v0_additive_0","vel":1.0,"bend":0.0,"ch":4,"track":8},{"t":1500.662,"dur":0.111,"note":76,"inst":"piano_v0_additive_0","vel":1.0,"bend":0.0,"ch":12,"track":8},{"t":1500.772,"dur":0.222,"note":49,"inst":"organ_v0_additive_1","vel":1.0,"bend":0.0,"ch":1,"track":8},{"t":1500.772,"dur":0.222,"note":73,"inst":"organ_v0_additive_1","vel":1.0,"bend":0.0,"ch":9,"track":8},{"t":1501.042,"dur":0.109,"note":64,"inst":"piano_v0_additive_0","vel":1.0,"bend":0.0,"ch":0,"track":9},{"t":1501.151,"dur":0.109,"note":76,"inst":"piano_v0_additive_0","vel":1.0,"bend":0.0,"ch":12,"track":9},{"t":1501.26,"dur":0.436,"note":28,"inst":"piano_v0_additive_0","vel":1.0,"bend":0.0,"ch":12,"track":9},{"t":1501.26,"dur":0.436,"note":78,"inst":"harpsichord_v0_additive_2","vel":1.0,"bend":0.0,"ch":14,"track":9},{"t":1501.695,"dur":0.436,"note":32,"inst":"piano_v0_additive_0","vel":1.0,"bend":0.0,"ch":0,"track":9},{"t":1501.913,"dur":0.073,"note":78,"inst":"harpsichord_v0_additive_2","vel":1.0,"bend":0.0,"ch":14,"track":9},{"t":1501.986,"dur":0.073,"note":80,"inst":"piano_v0_additive_0","vel":1.0,"bend":0.0,"ch":0,"track":9},{"t":1502.058,"dur":0.073,"note":78,"inst":"harpsichord_v0_additive_2","vel":1.0,"bend":0.0,"ch":14,"track":9},{"t":1502.131,"dur":0.436,"note":28,"inst":"piano_v0_additive_0","vel":1.0,"bend":0.0,"ch":12,"track":9},{"t":1502.131,"dur":0.218,"note":64,"inst":"piano_v0_additive_0","vel":1.0,"bend":0.0,"ch":0,"track":9},{"t":1502.349,"dur":0.218,"note":83,"inst":"celesta_v0_additive_3","vel":1.0,"bend":0.0,"ch":3,"track":9},{"t":1502.567,"dur":0.436,"note":32,"inst":"piano_v0_additive_0","vel":1.0,"bend":0.0,"ch":0,"track":9},{"t":1502.567,"dur":0.218,"note":80,"inst":"piano_v0_additive_0","vel":1.0,"bend":0.0,"ch":0,"track":9},{"t":1502.785,"dur":0.073,"note":64,"inst":"piano_v0_additive_0","vel":1.0,"bend":0.0,"ch":0,"track":9},{"t":1502.857,"dur":0.073,"note":76,"inst":"piano_v0_additive_0","vel":1.0,"bend":0.0,"ch":12,"track":9},{"t":1502.93,"dur":0.073,"note":64,"inst":"piano_v0_additive_0","vel":1.0,"bend":0.0,"ch":0,"track":9},{"t":1503.003,"dur":0.436,"note":28,"inst":"piano_v0_additive_0","vel":1.0,"bend":0.0,"ch":12,"track":9},{"t":1503.003,"dur":0.218,"note":71,"inst":"celesta_v0_additive_3","vel":1.0,"bend":0.0,"ch":7,"track":9},{"t":1503.22,"dur":0.218,"note":76,"inst":"piano_v0_additive_0","vel":1.0,"bend":0.0,"ch":12,"track":9},{"t":1503.438,"dur":0.436,"note":32,"inst":"piano_v0_additive_0","vel":1.0,"bend":0.0,"ch":0,"track":9},{"t":1503.438,"dur":0.218,"note":64,"inst":"piano_v0_additive_0","vel":1.0,"bend":0.0,"ch":0,"track":9},{"t":1503.656,"dur":0.218,"note":71,"inst":"celesta_v0_additive_3","vel":1.0,"bend":0.0,"ch":7,"track":9},{"t":1503.874,"dur":0.436,"note":35,"inst":"celesta_v0_additive_3","vel":1.0,"bend":0.0,"ch":3,"track":9},{"t":1503.874,"dur":0.109,"note":68,"inst":"piano_v0_additive_0","vel":1.0,"bend":0.0,"ch":4,"track":9},{"t":1503.983,"dur":0.109,"note":66,"inst":"harpsichord_v0_additive_2","vel":1.0,"bend":0.0,"ch":2,"track":9},{"t":1504.092,"dur":0.109,"note":68,"inst":"piano_v0_additive_0","vel":1.0,"bend":0.0,"ch":4,"track":9},{"t":1504.201,"dur":0.109,"note":71,"inst":"celesta_v0_additive_3","vel":1.0,"bend":0.0,"ch":7,"track":9},{"t":1504.31,"dur":0.436,"note":32,"inst":"piano_v0_additive_0","vel":1.0,"bend":0.0,"ch":0,"track":9},{"t":1504.31,"dur":0.109,"note":71,"inst":"celesta_v0_additive_3","vel":1.0,"bend":0.0,"ch":7,"track":9},{"t":1504.419,"dur":0.109,"note":73,"inst":"organ_v0_additive_1","vel":1.0,"bend":0.0,"ch":9,"track":9},{"t":1504.528,"dur":0.109,"note":64,"inst":"piano_v0_additive_0","vel":1.0,"bend":0.0,"ch":0,"track":9},{"t":1504.637,"dur":0.109,"note":76,"inst":"piano_v0_additive_0","vel":1.0,"bend":0.0,"ch":12,"track":9},{"t":1504.746,"dur":0.436,"note":37,"inst":"organ_v0_additive_1","vel":1.0,"bend":0.0,"ch":5,"track":9},{"t":1504.746,"dur":0.436,"note":76,"inst":"piano_v0_additive_0","vel":1.0,"bend":0.0,"ch":12,"track":9},{"t":1505.181,"dur":0.436,"note":32,"inst":"piano_v0_additive_0","vel":1.0,"bend":0.0,"ch":0,"track":9},{"t":1505.617,"dur":0.436,"note":37,"inst":"organ_v0_additive_1","vel":1.0,"bend":0.0,"ch":5,"track":9},{"t":1505.617,"dur":0.218,"note":76,"inst":"piano_v0_additive_0","vel":1.0,"bend":0.0,"ch":12,"track":9},{"t":1505.835,"dur":0.218,"note":83,"inst":"celesta_v0_additive_3","vel":1.0,"bend":0.0,"ch":3,"track":9},{"t":1506.053,"dur":0.436,"note":32,"inst":"piano_v0_additive_0","vel":1.0,"bend":0.0,"ch":0,"track":9},{"t":1506.053,"dur":0.218,"note":80,"inst":"piano_v0_additive_0","vel":1.0,"bend":0.0,"ch":0,"track":9},{"t":1506.271,"dur":0.073,"note":64,"inst":"piano_v0_additive_0","vel":1.0,"bend":0.0,"ch":0,"track":9},{"t":1506.343,"dur":0.073,"note":76,"inst":"piano_v0_additive_0","vel":1.0,"bend":0.0,"ch":12,"track":9},{"t":1506.416,"dur":0.073,"note":64,"inst":"piano_v0_additive_0","vel":1.0,"bend":0.0,"ch":0,"track":9},{"t":1506.489,"dur":0.436,"note":37,"inst":"organ_v0_additive_1","vel":1.0,"bend":0.0,"ch":5,"track":9},{"t":1506.489,"dur":0.218,"note":73,"inst":"organ_v0_additive_1","vel":1.0,"bend":0.0,"ch":9,"track":9},{"t":1506.707,"dur":0.218,"note":78,"inst":"harpsichord_v0_additive_2","vel":1.0,"bend":0.0,"ch":14,"track":9},{"t":1506.924,"dur":0.436,"note":32,"inst":"piano_v0_additive_0","vel":1.0,"bend":0.0,"ch":0,"track":9},{"t":1506.924,"dur":0.218,"note":76,"inst":"piano_v0_additive_0","vel":1.0,"bend":0.0,"ch":12,"track":9},{"t":1627.028,"dur":0.21,"note":49,"inst":"organ_v0_additive_1","vel":0.709,"bend":0.0,"ch":1,"track":9},{"t":1627.028,"dur":0.21,"note":60,"inst":"piano_v0_additive_0","vel":0.709,"bend":0.0,"ch":12,"track":9},{"t":1627.028,"dur":0.21,"note":61,"inst":"organ_v0_additive_1","vel":0.709,"bend":0.0,"ch":13,"track":9},{"t":1627.028,"dur":0.21,"note":64,"inst":"piano_v0_additive_0","vel":0.709,"bend":0.0,"ch":0,"track":9},{"t":1627.239,"dur":0.105,"note":49,"inst":"organ_v0_additive_1","vel":0.709,"bend":0.0,"ch":1,"track":9},{"t":1627.239,"dur":0.105,"note":61,"inst":"organ_v0_additive_1","vel":0.709,"bend":0.0,"ch":13,"track":9},{"t":1627.239,"dur":0.21,"note":64,"inst":"piano_v0_additive_0","vel":0.709,"bend":0.0,"ch":0,"track":9},{"t":1627.344,"dur":0.105,"note":61,"inst":"organ_v0_additive_1","vel":0.709,"bend":0.0,"ch":13,"track":9},{"t":1627.344,"dur":0.105,"note":64,"inst":"piano_v0_additive_0","vel":0.709,"bend":0.0,"ch":0,"track":9},{"t":1627.449,"dur":0.105,"note":58,"inst":"harpsichord_v0_additive_2","vel":0.709,"bend":0.0,"ch":10,"track":9},{"t":1627.449,"dur":0.105,"note":61,"inst":"organ_v0_additive_1","vel":0.709,"bend":0.0,"ch":13,"track":9},{"t":1627.449,"dur":0.105,"note":64,"inst":"piano_v0_additive_0","vel":0.709,"bend":0.0,"ch":0,"track":9},{"t":1627.449,"dur":3.782,"note":70,"inst":"harpsichord_v0_additive_2","vel":0.709,"bend":0.0,"ch":6,"track":9},{"t":1627.449,"dur":0.105,"note":72,"inst":"piano_v0_additive_0","vel":0.709,"bend":0.0,"ch":8,"track":9},{"t":1627.554,"dur":0.105,"note":56,"inst":"piano_v0_additive_0","vel":0.709,"bend":0.0,"ch":8,"track":9},{"t":1627.554,"dur":0.105,"note":61,"inst":"organ_v0_additive_1","vel":0.709,"bend":0.0,"ch":13,"track":9},{"t":1627.554,"dur":0.105,"note":64,"inst":"piano_v0_additive_0","vel":0.709,"bend":0.0,"ch":0,"track":9},{"t":1627.554,"dur":0.105,"note":73,"inst":"organ_v0_additive_1","vel":0.709,"bend":0.0,"ch":9,"track":9},{"t":1627.659,"dur":0.21,"note":56,"inst":"piano_v0_additive_0","vel":0.709,"bend":0.0,"ch":8,"track":9},{"t":1627.659,"dur":0.21,"note":58,"inst":"harpsichord_v0_additive_2","vel":0.709,"bend":0.0,"ch":10,"track":9},{"t":1627.659,"dur":0.21,"note":64,"inst":"piano_v0_additive_0","vel":0.709,"bend":0.0,"ch":0,"track":9},{"t":1627.659,"dur":0.84,"note":68,"inst":"piano_v0_additive_0","vel":0.709,"bend":0.0,"ch":4,"track":9},{"t":1627.659,"dur":0.158,"note":76,"inst":"piano_v0_additive_0","vel":0.709,"bend":0.0,"ch":12,"track":9},{"t":1627.816,"dur":0.053,"note":76,"inst":"piano_v0_additive_0","vel":0.709,"bend":0.0,"ch":12,"track":9},{"t":1627.869,"dur":0.21,"note":56,"inst":"piano_v0_additive_0","vel":0.709,"bend":0.0,"ch":8,"track":9},{"t":1627.869,"dur":0.21,"note":58,"inst":"harpsichord_v0_additive_2","vel":0.709,"bend":0.0,"ch":10,"track":9},{"t":1627.869,"dur":0.21,"note":65,"inst":"organ_v0_additive_1","vel":0.709,"bend":0.0,"ch":1,"track":9},{"t":1627.869,"dur":0.63,"note":77,"inst":"organ_v0_additive_1","vel":0.709,"bend":0.0,"ch":13,"track":9},{"t":1628.079,"dur":0.105,"note":56,"inst":"piano_v0_additive_0","vel":0.709,"bend":0.0,"ch":8,"track":9},{"t":1628.079,"dur":0.105,"note":58,"inst":"harpsichord_v0_additive_2","vel":0.709,"bend":0.0,"ch":10,"track":9},{"t":1628.079,"dur":0.105,"note":65,"inst":"organ_v0_additive_1","vel":0.709,"bend":0.0,"ch":1,"track":9},{"t":1628.184,"dur":0.105,"note":53,"inst":"organ_v0_additive_1","vel":0.709,"bend":0.0,"ch":5,"track":9},{"t":1628.184,"dur":0.105,"note":56,"inst":"piano_v0_additive_0","vel":0.709,"bend":0.0,"ch":8,"track":9},{"t":1628.184,"dur":0.105,"note":61,"inst":"organ_v0_additive_1","vel":0.709,"bend":0.0,"ch":13,"track":9},{"t":1628.289,"dur":0.105,"note":53,"inst":"organ_v0_additive_1","vel":0.709,"bend":0.0,"ch":5,"track":9},{"t":1628.289,"dur":0.105,"note":56,"inst":"piano_v0_additive_0","vel":0.709,"bend":0.0,"ch":8,"track":9},{"t":1628.289,"dur":0.105,"note":61,"inst":"organ_v0_additive_1","vel":0.709,"bend":0.0,"ch":13,"track":9},{"t":1628.394,"dur":0.105,"note":53,"inst":"organ_v0_additive_1","vel":0.709,"bend":0.0,"ch":5,"track":9},{"t":1628.394,"dur":0.105,"note":56,"inst":"piano_v0_additive_0","vel":0.709,"bend":0.0,"ch":8,"track":9},{"t":1628.394,"dur":0.105,"note":61,"inst":"organ_v0_additive_1","vel":0.709,"bend":0.0,"ch":13,"track":9},{"t":1628.499,"dur":0.21,"note":53,"inst":"organ_v0_additive_1","vel":0.709,"bend":0.0,"ch":5,"track":9},{"t":1628.499,"dur":0.21,"note":56,"inst":"piano_v0_additive_0","vel":0.709,"bend":0.0,"ch":8,"track":9},{"t":1628.499,"dur":0.21,"note":61,"inst":"organ_v0_additive_1","vel":0.709,"bend":0.0,"ch":13,"track":9},{"t":1628.499,"dur":0.84,"note":68,"inst":"piano_v0_additive_0","vel":0.709,"bend":0.0,"ch":4,"track":9},{"t":1628.499,"dur":0.158,"note":76,"inst":"piano_v0_additive_0","vel":0.709,"bend":0.0,"ch":12,"track":9},{"t":1628.657,"dur":0.053,"note":76,"inst":"piano_v0_additive_0","vel":0.709,"bend":0.0,"ch":12,"track":9},{"t":1628.709,"dur":0.21,"note":53,"inst":"organ_v0_additive_1","vel":0.709,"bend":0.0,"ch":5,"track":9},{"t":1628.709,"dur":0.21,"note":56,"inst":"piano_v0_additive_0","vel":0.709,"bend":0.0,"ch":8,"track":9},{"t":1628.709,"dur":0.21,"note":61,"inst":"organ_v0_additive_1","vel":0.709,"bend":0.0,"ch":13,"track":9},{"t":1628.709,"dur":0.42,"note":77,"inst":"organ_v0_additive_1","vel":0.709,"bend":0.0,"ch":13,"track":9},{"t":1629.13,"dur":0.158,"note":76,"inst":"piano_v0_additive_0","vel":0.709,"bend":0.0,"ch":12,"track":9},{"t":1629.287,"dur":0.053,"note":80,"inst":"piano_v0_additive_0","vel":0.709,"bend":0.0,"ch":0,"track":9},{"t":1629.34,"dur":0.21,"note":46,"inst":"harpsichord_v0_additive_2","vel":1.0,"bend":0.0,"ch":14,"track":9},{"t":1629.34,"dur":0.21,"note":52,"inst":"piano_v0_additive_0","vel":1.0,"bend":0.0,"ch":4,"track":9},{"t":1629.34,"dur":0.21,"note":58,"inst":"harpsichord_v0_additive_2","vel":1.0,"bend":0.0,"ch":10,"track":9},{"t":1629.34,"dur":0.21,"note":80,"inst":"piano_v0_additive_0","vel":0.709,"bend":0.0,"ch":0,"track":9},{"t":1629.55,"dur":0.21,"note":44,"inst":"piano_v0_additive_0","vel":1.0,"bend":0.0,"ch":12,"track":9},{"t":1629.55,"dur":0.21,"note":52,"inst":"piano_v0_additive_0","vel":1.0,"bend":0.0,"ch":4,"track":9},{"t":1629.55,"dur":0.21,"note":56,"inst":"piano_v0_additive_0","vel":1.0,"bend":0.0,"ch":8,"track":9},{"t":1629.55,"dur":0.21,"note":68,"inst":"piano_v0_additive_0","vel":0.709,"bend":0.0,"ch":4,"track":9},{"t":1629.55,"dur":0.158,"note":80,"inst":"piano_v0_additive_0","vel":0.709,"bend":0.0,"ch":0,"track":9},{"t":1629.707,"dur":0.053,"note":73,"inst":"organ_v0_additive_1","vel":0.709,"bend":0.0,"ch":9,"track":9},{"t":1629.76,"dur":0.21,"note":43,"inst":"celesta_v0_additive_3","vel":1.0,"bend":0.0,"ch":11,"track":9},{"t":1629.76,"dur":0.21,"note":52,"inst":"piano_v0_additive_0","vel":1.0,"bend":0.0,"ch":4,"track":9},{"t":1629.76,"dur":0.21,"note":55,"inst":"celesta_v0_additive_3","vel":1.0,"bend":0.0,"ch":7,"track":9},{"t":1629.76,"dur":0.21,"note":73,"inst":"organ_v0_additive_1","vel":0.709,"bend":0.0,"ch":9,"track":9},{"t":1629.97,"dur":0.21,"note":65,"inst":"organ_v0_additive_1","vel":0.709,"bend":0.0,"ch":1,"track":9},{"t":1629.97,"dur":0.158,"note":72,"inst":"piano_v0_additive_0","vel":0.709,"bend":0.0,"ch":8,"track":9},{"t":1630.128,"dur":0.053,"note":76,"inst":"piano_v0_additive_0","vel":0.709,"bend":0.0,"ch":12,"track":9},{"t":1630.18,"dur":0.105,"note":76,"inst":"piano_v0_additive_0","vel":0.709,"bend":0.0,"ch":12,"track":9},{"t":1630.285,"dur":0.42,"note":76,"inst":"piano_v0_additive_0","vel":0.709,"bend":0.0,"ch":12,"track":9},{"t":1630.39,"dur":0.21,"note":64,"inst":"piano_v0_additive_0","vel":0.709,"bend":0.0,"ch":0,"track":9},{"t":1630.6,"dur":0.105,"note":64,"inst":"piano_v0_additive_0","vel":0.709,"bend":0.0,"ch":0,"track":9},{"t":1630.705,"dur":0.105,"note":68,"inst":"piano_v0_additive_0","vel":0.709,"bend":0.0,"ch":4,"track":9},{"t":1630.81,"dur":0.105,"note":68,"inst":"piano_v0_additive_0","vel":0.709,"bend":0.0,"ch":4,"track":9},{"t":1630.915,"dur":0.105,"note":68,"inst":"piano_v0_additive_0","vel":0.709,"bend":0.0,"ch":4,"track":9},{"t":1631.02,"dur":0.21,"note":73,"inst":"organ_v0_additive_1","vel":0.709,"bend":0.0,"ch":9,"track":9},{"t":1631.231,"dur":0.158,"note":70,"inst":"harpsichord_v0_additive_2","vel":0.709,"bend":0.0,"ch":6,"track":9},{"t":1631.388,"dur":0.053,"note":73,"inst":"organ_v0_additive_1","vel":0.709,"bend":0.0,"ch":9,"track":9},{"t":1631.441,"dur":0.263,"note":73,"inst":"organ_v0_additive_1","vel":0.709,"bend":0.0,"ch":9,"track":9},{"t":1631.703,"dur":0.053,"note":73,"inst":"organ_v0_additive_1","vel":0.709,"bend":0.0,"ch":9,"track":9},{"t":1631.756,"dur":0.053,"note":82,"inst":"harpsichord_v0_additive_2","vel":0.709,"bend":0.0,"ch":2,"track":9},{"t":1631.808,"dur":0.053,"note":80,"inst":"piano_v0_additive_0","vel":0.709,"bend":0.0,"ch":0,"track":9},{"t":1631.861,"dur":0.053,"note":55,"inst":"celesta_v0_additive_3","vel":0.496,"bend":0.0,"ch":7,"track":9},{"t":1631.861,"dur":0.053,"note":58,"inst":"harpsichord_v0_additive_2","vel":0.496,"bend":0.0,"ch":10,"track":9},{"t":1631.861,"dur":0.315,"note":80,"inst":"piano_v0_additive_0","vel":0.709,"bend":0.0,"ch":0,"track":9},{"t":1631.913,"dur":0.053,"note":64,"inst":"piano_v0_additive_0","vel":0.709,"bend":0.0,"ch":0,"track":9},{"t":1631.966,"dur":0.053,"note":55,"inst":"celesta_v0_additive_3","vel":0.709,"bend":0.0,"ch":7,"track":9},{"t":1631.966,"dur":0.053,"note":58,"inst":"harpsichord_v0_additive_2","vel":0.709,"bend":0.0,"ch":10,"track":9},{"t":1632.018,"dur":0.053,"note":64,"inst":"piano_v0_additive_0","vel":0.709,"bend":0.0,"ch":0,"track":9},{"t":1632.071,"dur":0.053,"note":55,"inst":"celesta_v0_additive_3","vel":0.709,"bend":0.0,"ch":7,"track":9},{"t":1632.071,"dur":0.053,"note":58,"inst":"harpsichord_v0_additive_2","vel":0.709,"bend":0.0,"ch":10,"track":9},{"t":1632.124,"dur":0.053,"note":64,"inst":"piano_v0_additive_0","vel":0.709,"bend":0.0,"ch":0,"track":9},{"t":1632.176,"dur":0.053,"note":55,"inst":"celesta_v0_additive_3","vel":0.709,"bend":0.0,"ch":7,"track":9},{"t":1632.176,"dur":0.053,"note":58,"inst":"harpsichord_v0_additive_2","vel":0.709,"bend":0.0,"ch":10,"track":9},{"t":1632.176,"dur":0.053,"note":82,"inst":"harpsichord_v0_additive_2","vel":0.709,"bend":0.0,"ch":2,"track":9},{"t":1632.229,"dur":0.053,"note":64,"inst":"piano_v0_additive_0","vel":0.709,"bend":0.0,"ch":0,"track":9},{"t":1632.229,"dur":0.053,"note":80,"inst":"piano_v0_additive_0","vel":0.709,"bend":0.0,"ch":0,"track":9},{"t":1632.281,"dur":0.053,"note":55,"inst":"celesta_v0_additive_3","vel":0.709,"bend":0.0,"ch":7,"track":9},{"t":1632.281,"dur":0.053,"note":58,"inst":"harpsichord_v0_additive_2","vel":0.709,"bend":0.0,"ch":10,"track":9},{"t":1632.334,"dur":0.053,"note":64,"inst":"piano_v0_additive_0","vel":0.709,"bend":0.0,"ch":0,"track":9},{"t":1632.386,"dur":0.053,"note":55,"inst":"celesta_v0_additive_3","vel":0.709,"bend":0.0,"ch":7,"track":9},{"t":1632.386,"dur":0.053,"note":58,"inst":"harpsichord_v0_additive_2","vel":0.709,"bend":0.0,"ch":10,"track":9},{"t":1632.439,"dur":0.053,"note":64,"inst":"piano_v0_additive_0","vel":0.709,"bend":0.0,"ch":0,"track":9},{"t":1632.491,"dur":0.053,"note":56,"inst":"piano_v0_additive_0","vel":0.709,"bend":0.0,"ch":8,"track":9},{"t":1632.491,"dur":0.053,"note":60,"inst":"piano_v0_additive_0","vel":0.709,"bend":0.0,"ch":12,"track":9},{"t":1632.491,"dur":0.105,"note":68,"inst":"piano_v0_additive_0","vel":0.709,"bend":0.0,"ch":4,"track":9},{"t":1632.544,"dur":0.053,"note":64,"inst":"piano_v0_additive_0","vel":0.709,"bend":0.0,"ch":0,"track":9},{"t":1632.596,"dur":0.053,"note":56,"inst":"piano_v0_additive_0","vel":0.709,"bend":0.0,"ch":8,"track":9},{"t":1632.596,"dur":0.053,"note":60,"inst":"piano_v0_additive_0","vel":0.709,"bend":0.0,"ch":12,"track":9},{"t":1632.596,"dur":0.105,"note":68,"inst":"piano_v0_additive_0","vel":0.709,"bend":0.0,"ch":4,"track":9},{"t":1632.649,"dur":0.053,"note":64,"inst":"piano_v0_additive_0","vel":0.709,"bend":0.0,"ch":0,"track":9},{"t":1632.701,"dur":0.63,"note":58,"inst":"harpsichord_v0_additive_2","vel":0.709,"bend":0.0,"ch":10,"track":9},{"t":1632.701,"dur":0.053,"note":58,"inst":"harpsichord_v0_additive_2","vel":0.709,"bend":0.0,"ch":10,"track":9},{"t":1632.701,"dur":0.63,"note":61,"inst":"organ_v0_additive_1","vel":0.709,"bend":0.0,"ch":13,"track":9},{"t":1632.701,"dur":0.053,"note":61,"inst":"organ_v0_additive_1","vel":0.709,"bend":0.0,"ch":13,"track":9},{"t":1632.701,"dur":0.158,"note":68,"inst":"piano_v0_additive_0","vel":0.709,"bend":0.0,"ch":4,"track":9},{"t":1632.754,"dur":0.053,"note":64,"inst":"piano_v0_additive_0","vel":0.709,"bend":0.0,"ch":0,"track":9},{"t":1632.806,"dur":0.053,"note":58,"inst":"harpsichord_v0_additive_2","vel":0.709,"bend":0.0,"ch":10,"track":9},{"t":1632.806,"dur":0.053,"note":61,"inst":"organ_v0_additive_1","vel":0.709,"bend":0.0,"ch":13,"track":9},{"t":1632.859,"dur":0.053,"note":64,"inst":"piano_v0_additive_0","vel":0.709,"bend":0.0,"ch":0,"track":9},{"t":1632.859,"dur":0.053,"note":67,"inst":"celesta_v0_additive_3","vel":0.709,"bend":0.0,"ch":3,"track":9},{"t":1632.911,"dur":0.053,"note":58,"inst":"harpsichord_v0_additive_2","vel":0.709,"bend":0.0,"ch":10,"track":9},{"t":1632.911,"dur":0.053,"note":61,"inst":"organ_v0_additive_1","vel":0.709,"bend":0.0,"ch":13,"track":9},{"t":1632.911,"dur":0.42,"note":70,"inst":"harpsichord_v0_additive_2","vel":0.709,"bend":0.0,"ch":6,"track":9},{"t":1632.964,"dur":0.053,"note":64,"inst":"piano_v0_additive_0","vel":0.709,"bend":0.0,"ch":0,"track":9},{"t":1633.016,"dur":0.053,"note":58,"inst":"harpsichord_v0_additive_2","vel":0.709,"bend":0.0,"ch":10,"track":9},{"t":1633.016,"dur":0.053,"note":61,"inst":"organ_v0_additive_1","vel":0.709,"bend":0.0,"ch":13,"track":9},{"t":1633.069,"dur":0.053,"note":64,"inst":"piano_v0_additive_0","vel":0.709,"bend":0.0,"ch":0,"track":9},{"t":1633.122,"dur":0.053,"note":58,"inst":"harpsichord_v0_additive_2","vel":0.709,"bend":0.0,"ch":10,"track":9},{"t":1633.122,"dur":0.053,"note":61,"inst":"organ_v0_additive_1","vel":0.709,"bend":0.0,"ch":13,"track":9},{"t":1633.174,"dur":0.053,"note":64,"inst":"piano_v0_additive_0","vel":0.709,"bend":0.0,"ch":0,"track":9},{"t":1633.227,"dur":0.053,"note":56,"inst":"piano_v0_additive_0","vel":0.709,"bend":0.0,"ch":8,"track":9},{"t":1633.227,"dur":0.053,"note":60,"inst":"piano_v0_additive_0","vel":0.709,"bend":0.0,"ch":12,"track":9},{"t":1633.279,"dur":0.053,"note":64,"inst":"piano_v0_additive_0","vel":0.709,"bend":0.0,"ch":0,"track":9},{"t":1633.332,"dur":0.053,"note":55,"inst":"celesta_v0_additive_3","vel":0.709,"bend":0.0,"ch":7,"track":9},{"t":1633.332,"dur":0.053,"note":58,"inst":"harpsichord_v0_additive_2","vel":0.709,"bend":0.0,"ch":10,"track":9},{"t":1633.332,"dur":0.21,"note":64,"inst":"piano_v0_additive_0","vel":1.0,"bend":0.0,"ch":0,"track":9},{"t":1633.332,"dur":0.158,"note":70,"inst":"harpsichord_v0_additive_2","vel":1.0,"bend":0.0,"ch":6,"track":9},{"t":1633.384,"dur":0.053,"note":64,"inst":"piano_v0_additive_0","vel":0.709,"bend":0.0,"ch":0,"track":9},{"t":1633.437,"dur":0.053,"note":55,"inst":"celesta_v0_additive_3","vel":0.709,"bend":0.0,"ch":7,"track":9},{"t":1633.437,"dur":0.053,"note":58,"inst":"harpsichord_v0_additive_2","vel":0.709,"bend":0.0,"ch":10,"track":9},{"t":1633.489,"dur":0.053,"note":64,"inst":"piano_v0_additive_0","vel":0.709,"bend":0.0,"ch":0,"track":9},{"t":1633.489,"dur":0.053,"note":68,"inst":"piano_v0_additive_0","vel":1.0,"bend":0.0,"ch":4,"track":9},{"t":1633.542,"dur":0.053,"note":55,"inst":"celesta_v0_additive_3","vel":0.496,"bend":0.0,"ch":7,"track":9},{"t":1633.542,"dur":0.053,"note":58,"inst":"harpsichord_v0_additive_2","vel":0.496,"bend":0.0,"ch":10,"track":9},{"t":1633.542,"dur":0.21,"note":61,"inst":"organ_v0_additive_1","vel":1.0,"bend":0.0,"ch":13,"track":9},{"t":1633.542,"dur":0.21,"note":64,"inst":"piano_v0_additive_0","vel":1.0,"bend":0.0,"ch":0,"track":9},{"t":1633.542,"dur":0.158,"note":68,"inst":"piano_v0_additive_0","vel":1.0,"bend":0.0,"ch":4,"track":9},{"t":1633.594,"dur":0.053,"note":64,"inst":"piano_v0_additive_0","vel":0.496,"bend":0.0,"ch":0,"track":9},{"t":1633.647,"dur":0.053,"note":55,"inst":"celesta_v0_additive_3","vel":0.709,"bend":0.0,"ch":7,"track":9},{"t":1633.647,"dur":0.053,"note":58,"inst":"harpsichord_v0_additive_2","vel":0.709,"bend":0.0,"ch":10,"track":9},{"t":1633.699,"dur":0.053,"note":64,"inst":"piano_v0_additive_0","vel":0.709,"bend":0.0,"ch":0,"track":9},{"t":1633.699,"dur":0.053,"note":67,"inst":"celesta_v0_additive_3","vel":1.0,"bend":0.0,"ch":3,"track":9},{"t":1633.752,"dur":0.053,"note":55,"inst":"celesta_v0_additive_3","vel":0.709,"bend":0.0,"ch":7,"track":9},{"t":1633.752,"dur":0.053,"note":58,"inst":"harpsichord_v0_additive_2","vel":0.709,"bend":0.0,"ch":10,"track":9},{"t":1633.752,"dur":0.21,"note":58,"inst":"harpsichord_v0_additive_2","vel":1.0,"bend":0.0,"ch":10,"track":9},{"t":1633.752,"dur":0.21,"note":64,"inst":"piano_v0_additive_0","vel":1.0,"bend":0.0,"ch":0,"track":9},{"t":1633.752,"dur":0.158,"note":70,"inst":"harpsichord_v0_additive_2","vel":1.0,"bend":0.0,"ch":6,"track":9},{"t":1633.804,"dur":0.053,"note":64,"inst":"piano_v0_additive_0","vel":0.709,"bend":0.0,"ch":0,"track":9},{"t":1633.857,"dur":0.053,"note":55,"inst":"celesta_v0_additive_3","vel":0.709,"bend":0.0,"ch":7,"track":9},{"t":1633.857,"dur":0.053,"note":58,"inst":"harpsichord_v0_additive_2","vel":0.709,"bend":0.0,"ch":10,"track":9},{"t":1633.909,"dur":0.053,"note":64,"inst":"piano_v0_additive_0","vel":0.709,"bend":0.0,"ch":0,"track":9},{"t":1633.909,"dur":0.053,"note":68,"inst":"piano_v0_additive_0","vel":1.0,"bend":0.0,"ch":4,"track":9},{"t":1633.962,"dur":0.053,"note":55,"inst":"celesta_v0_additive_3","vel":0.709,"bend":0.0,"ch":7,"track":9},{"t":1633.962,"dur":0.21,"note":58,"inst":"harpsichord_v0_additive_2","vel":1.0,"bend":0.0,"ch":10,"track":9},{"t":1633.962,"dur":0.053,"note":58,"inst":"harpsichord_v0_additive_2","vel":0.709,"bend":0.0,"ch":10,"track":9},{"t":1633.962,"dur":0.21,"note":64,"inst":"piano_v0_additive_0","vel":1.0,"bend":0.0,"ch":0,"track":9},{"t":1633.962,"dur":0.158,"note":70,"inst":"harpsichord_v0_additive_2","vel":1.0,"bend":0.0,"ch":6,"track":9},{"t":1634.014,"dur":0.053,"note":64,"inst":"piano_v0_additive_0","vel":0.709,"bend":0.0,"ch":0,"track":9},{"t":1634.067,"dur":0.053,"note":55,"inst":"celesta_v0_additive_3","vel":0.709,"bend":0.0,"ch":7,"track":9},{"t":1634.067,"dur":0.053,"note":58,"inst":"harpsichord_v0_additive_2","vel":0.709,"bend":0.0,"ch":10,"track":9},{"t":1634.12,"dur":0.053,"note":64,"inst":"piano_v0_additive_0","vel":0.709,"bend":0.0,"ch":0,"track":9},{"t":1634.12,"dur":0.053,"note":70,"inst":"harpsichord_v0_additive_2","vel":0.709,"bend":0.0,"ch":6,"track":9},{"t":1634.172,"dur":0.053,"note":56,"inst":"piano_v0_additive_0","vel":0.709,"bend":0.0,"ch":8,"track":9},{"t":1634.172,"dur":0.053,"note":60,"inst":"piano_v0_additive_0","vel":0.709,"bend":0.0,"ch":12,"track":9},{"t":1634.172,"dur":0.053,"note":67,"inst":"celesta_v0_additive_3","vel":0.496,"bend":0.0,"ch":3,"track":9},{"t":1634.225,"dur":0.053,"note":64,"inst":"piano_v0_additive_0","vel":0.709,"bend":0.0,"ch":0,"track":9},{"t":1634.225,"dur":0.053,"note":70,"inst":"harpsichord_v0_additive_2","vel":0.496,"bend":0.0,"ch":6,"track":9},{"t":1634.277,"dur":0.053,"note":56,"inst":"piano_v0_additive_0","vel":0.709,"bend":0.0,"ch":8,"track":9},{"t":1634.277,"dur":0.053,"note":58,"inst":"harpsichord_v0_additive_2","vel":0.709,"bend":0.0,"ch":10,"track":9},{"t":1634.277,"dur":0.053,"note":73,"inst":"organ_v0_additive_1","vel":0.709,"bend":0.0,"ch":9,"track":9},{"t":1634.33,"dur":0.053,"note":64,"inst":"piano_v0_additive_0","vel":0.709,"bend":0.0,"ch":0,"track":9},{"t":1634.33,"dur":0.053,"note":76,"inst":"piano_v0_additive_0","vel":0.709,"bend":0.0,"ch":12,"track":9},{"t":1634.382,"dur":0.053,"note":58,"inst":"harpsichord_v0_additive_2","vel":0.709,"bend":0.0,"ch":10,"track":9},{"t":1634.382,"dur":0.053,"note":61,"inst":"organ_v0_additive_1","vel":0.709,"bend":0.0,"ch":13,"track":9},{"t":1634.382,"dur":0.053,"note":76,"inst":"piano_v0_additive_0","vel":0.709,"bend":0.0,"ch":12,"track":9},{"t":1634.435,"dur":0.053,"note":64,"inst":"piano_v0_additive_0","vel":0.709,"bend":0.0,"ch":0,"track":9},{"t":1634.435,"dur":0.053,"note":73,"inst":"organ_v0_additive_1","vel":0.709,"bend":0.0,"ch":9,"track":9},{"t":1634.487,"dur":0.053,"note":58,"inst":"harpsichord_v0_additive_2","vel":0.709,"bend":0.0,"ch":10,"track":9},{"t":1634.487,"dur":0.053,"note":61,"inst":"organ_v0_additive_1","vel":0.709,"bend":0.0,"ch":13,"track":9},{"t":1634.487,"dur":0.053,"note":70,"inst":"harpsichord_v0_additive_2","vel":0.709,"bend":0.0,"ch":6,"track":9},{"t":1634.54,"dur":0.053,"note":64,"inst":"piano_v0_additive_0","vel":0.709,"bend":0.0,"ch":0,"track":9},{"t":1634.54,"dur":0.053,"note":70,"inst":"harpsichord_v0_additive_2","vel":0.709,"bend":0.0,"ch":6,"track":9},{"t":1634.592,"dur":0.053,"note":58,"inst":"harpsichord_v0_additive_2","vel":0.709,"bend":0.0,"ch":10,"track":9},{"t":1634.592,"dur":0.053,"note":61,"inst":"organ_v0_additive_1","vel":0.709,"bend":0.0,"ch":13,"track":9},{"t":1634.592,"dur":0.053,"note":73,"inst":"organ_v0_additive_1","vel":0.709,"bend":0.0,"ch":9,"track":9},{"t":1634.645,"dur":0.053,"note":64,"inst":"piano_v0_additive_0","vel":0.709,"bend":0.0,"ch":0,"track":9},{"t":1634.645,"dur":0.053,"note":79,"inst":"celesta_v0_additive_3","vel":0.709,"bend":0.0,"ch":15,"track":9},{"t":1634.697,"dur":0.053,"note":58,"inst":"harpsichord_v0_additive_2","vel":0.709,"bend":0.0,"ch":10,"track":9},{"t":1634.697,"dur":0.053,"note":61,"inst":"organ_v0_additive_1","vel":0.709,"bend":0.0,"ch":13,"track":9},{"t":1634.697,"dur":0.053,"note":82,"inst":"harpsichord_v0_additive_2","vel":0.709,"bend":0.0,"ch":2,"track":9},{"t":1634.75,"dur":0.053,"note":64,"inst":"piano_v0_additive_0","vel":0.709,"bend":0.0,"ch":0,"track":9},{"t":1634.75,"dur":0.053,"note":85,"inst":"organ_v0_additive_1","vel":0.709,"bend":0.0,"ch":5,"track":9},{"t":1634.802,"dur":0.053,"note":58,"inst":"harpsichord_v0_additive_2","vel":0.709,"bend":0.0,"ch":10,"track":9},{"t":1634.802,"dur":0.053,"note":61,"inst":"organ_v0_additive_1","vel":0.709,"bend":0.0,"ch":13,"track":9},{"t":1634.802,"dur":0.053,"note":82,"inst":"harpsichord_v0_additive_2","vel":0.709,"bend":0.0,"ch":2,"track":9},{"t":1634.855,"dur":0.053,"note":64,"inst":"piano_v0_additive_0","vel":0.709,"bend":0.0,"ch":0,"track":9},{"t":1634.855,"dur":0.053,"note":82,"inst":"harpsichord_v0_additive_2","vel":0.709,"bend":0.0,"ch":2,"track":9},{"t":1634.907,"dur":0.053,"note":56,"inst":"piano_v0_additive_0","vel":0.709,"bend":0.0,"ch":8,"track":9},{"t":1634.907,"dur":0.053,"note":58,"inst":"harpsichord_v0_additive_2","vel":0.709,"bend":0.0,"ch":10,"track":9},{"t":1634.907,"dur":0.053,"note":80,"inst":"piano_v0_additive_0","vel":0.709,"bend":0.0,"ch":0,"track":9},{"t":1634.96,"dur":0.053,"note":64,"inst":"piano_v0_additive_0","vel":0.709,"bend":0.0,"ch":0,"track":9},{"t":1634.96,"dur":0.053,"note":79,"inst":"celesta_v0_additive_3","vel":0.709,"bend":0.0,"ch":15,"track":9},{"t":1635.012,"dur":0.053,"note":55,"inst":"celesta_v0_additive_3","vel":0.709,"bend":0.0,"ch":7,"track":9},{"t":1635.012,"dur":0.053,"note":58,"inst":"harpsichord_v0_additive_2","vel":0.709,"bend":0.0,"ch":10,"track":9},{"t":1635.012,"dur":0.053,"note":82,"inst":"harpsichord_v0_additive_2","vel":0.709,"bend":0.0,"ch":2,"track":9},{"t":1635.065,"dur":0.053,"note":64,"inst":"piano_v0_additive_0","vel":0.709,"bend":0.0,"ch":0,"track":9},{"t":1635.065,"dur":0.053,"note":85,"inst":"organ_v0_additive_1","vel":0.709,"bend":0.0,"ch":5,"track":9},{"t":1635.118,"dur":0.053,"note":55,"inst":"celesta_v0_additive_3","vel":0.709,"bend":0.0,"ch":7,"track":9},{"t":1635.118,"dur":0.053,"note":58,"inst":"harpsichord_v0_additive_2","vel":0.709,"bend":0.0,"ch":10,"track":9},{"t":1635.118,"dur":0.053,"note":88,"inst":"piano_v0_additive_0","vel":0.709,"bend":0.0,"ch":8,"track":9},{"t":1635.17,"dur":0.053,"note":64,"inst":"piano_v0_additive_0","vel":0.709,"bend":0.0,"ch":0,"track":9},{"t":1635.17,"dur":0.053,"note":88,"inst":"piano_v0_additive_0","vel":0.709,"bend":0.0,"ch":8,"track":9},{"t":1635.223,"dur":0.053,"note":56,"inst":"piano_v0_additive_0","vel":0.992,"bend":0.0,"ch":8,"track":9},{"t":1635.223,"dur":0.053,"note":58,"inst":"harpsichord_v0_additive_2","vel":0.992,"bend":0.0,"ch":10,"track":9},{"t":1635.223,"dur":0.053,"note":88,"inst":"piano_v0_additive_0","vel":0.709,"bend":0.0,"ch":8,"track":9},{"t":1635.275,"dur":0.053,"note":64,"inst":"piano_v0_additive_0","vel":1.0,"bend":0.0,"ch":0,"track":9},{"t":1635.275,"dur":0.053,"note":85,"inst":"organ_v0_additive_1","vel":0.709,"bend":0.0,"ch":5,"track":9},{"t":1635.328,"dur":0.053,"note":67,"inst":"celesta_v0_additive_3","vel":1.0,"bend":0.0,"ch":3,"track":9},{"t":1635.328,"dur":0.053,"note":82,"inst":"harpsichord_v0_additive_2","vel":0.709,"bend":0.0,"ch":2,"track":9},{"t":1635.38,"dur":0.053,"note":68,"inst":"piano_v0_additive_0","vel":1.0,"bend":0.0,"ch":4,"track":9},{"t":1635.38,"dur":0.053,"note":82,"inst":"harpsichord_v0_additive_2","vel":0.709,"bend":0.0,"ch":2,"track":9},{"t":1635.433,"dur":0.053,"note":64,"inst":"piano_v0_additive_0","vel":1.0,"bend":0.0,"ch":0,"track":9},{"t":1635.433,"dur":0.053,"note":82,"inst":"harpsichord_v0_additive_2","vel":0.709,"bend":0.0,"ch":2,"track":9},{"t":1635.485,"dur":0.053,"note":58,"inst":"harpsichord_v0_additive_2","vel":1.0,"bend":0.0,"ch":10,"track":9},{"t":1635.485,"dur":0.053,"note":82,"inst":"harpsichord_v0_additive_2","vel":0.709,"bend":0.0,"ch":2,"track":9},{"t":1635.538,"dur":0.053,"note":58,"inst":"harpsichord_v0_additive_2","vel":1.0,"bend":0.0,"ch":10,"track":9},{"t":1635.538,"dur":0.053,"note":80,"inst":"piano_v0_additive_0","vel":0.709,"bend":0.0,"ch":0,"track":9},{"t":1635.59,"dur":0.053,"note":56,"inst":"piano_v0_additive_0","vel":1.0,"bend":0.0,"ch":8,"track":9},{"t":1635.59,"dur":0.053,"note":79,"inst":"celesta_v0_additive_3","vel":0.709,"bend":0.0,"ch":15,"track":9},{"t":1635.643,"dur":0.053,"note":52,"inst":"piano_v0_additive_0","vel":0.992,"bend":0.0,"ch":4,"track":9},{"t":1635.643,"dur":0.053,"note":55,"inst":"celesta_v0_additive_3","vel":0.992,"bend":0.0,"ch":7,"track":9},{"t":1635.643,"dur":0.053,"note":85,"inst":"organ_v0_additive_1","vel":0.709,"bend":0.0,"ch":5,"track":9},{"t":1635.695,"dur":0.053,"note":58,"inst":"harpsichord_v0_additive_2","vel":1.0,"bend":0.0,"ch":10,"track":9},{"t":1635.695,"dur":0.053,"note":82,"inst":"harpsichord_v0_additive_2","vel":0.709,"bend":0.0,"ch":2,"track":9},{"t":1635.748,"dur":0.053,"note":61,"inst":"organ_v0_additive_1","vel":1.0,"bend":0.0,"ch":13,"track":9},{"t":1635.748,"dur":0.053,"note":80,"inst":"piano_v0_additive_0","vel":0.709,"bend":0.0,"ch":0,"track":9},{"t":1635.8,"dur":0.053,"note":52,"inst":"piano_v0_additive_0","vel":1.0,"bend":0.0,"ch":4,"track":9},{"t":1635.8,"dur":0.053,"note":79,"inst":"celesta_v0_additive_3","vel":0.709,"bend":0.0,"ch":15,"track":9},{"t":1635.853,"dur":0.053,"note":52,"inst":"piano_v0_additive_0","vel":1.0,"bend":0.0,"ch":4,"track":9},{"t":1635.853,"dur":0.053,"note":82,"inst":"harpsichord_v0_additive_2","vel":0.756,"bend":0.0,"ch":2,"track":9},{"t":1635.905,"dur":0.053,"note":56,"inst":"piano_v0_additive_0","vel":1.0,"bend":0.0,"ch":8,"track":9},{"t":1635.905,"dur":0.053,"note":79,"inst":"celesta_v0_additive_3","vel":0.756,"bend":0.0,"ch":15,"track":9},{"t":1635.958,"dur":0.053,"note":58,"inst":"harpsichord_v0_additive_2","vel":1.0,"bend":0.0,"ch":10,"track":9},{"t":1635.958,"dur":0.053,"note":76,"inst":"piano_v0_additive_0","vel":0.756,"bend":0.0,"ch":12,"track":9},{"t":1636.011,"dur":0.053,"note":52,"inst":"piano_v0_additive_0","vel":1.0,"bend":0.0,"ch":4,"track":9},{"t":1636.011,"dur":0.053,"note":76,"inst":"piano_v0_additive_0","vel":0.756,"bend":0.0,"ch":12,"track":9},{"t":1636.063,"dur":0.053,"note":52,"inst":"piano_v0_additive_0","vel":0.992,"bend":0.0,"ch":4,"track":9},{"t":1636.063,"dur":0.053,"note":56,"inst":"piano_v0_additive_0","vel":0.992,"bend":0.0,"ch":8,"track":9},{"t":1636.063,"dur":0.21,"note":76,"inst":"piano_v0_additive_0","vel":0.709,"bend":0.0,"ch":12,"track":9},{"t":1636.116,"dur":0.053,"note":58,"inst":"harpsichord_v0_additive_2","vel":0.992,"bend":0.0,"ch":10,"track":9},{"t":1636.168,"dur":0.053,"note":64,"inst":"piano_v0_additive_0","vel":0.992,"bend":0.0,"ch":0,"track":9},{"t":1636.221,"dur":0.053,"note":64,"inst":"piano_v0_additive_0","vel":0.992,"bend":0.0,"ch":0,"track":9},{"t":1636.273,"dur":0.053,"note":58,"inst":"harpsichord_v0_additive_2","vel":0.992,"bend":0.0,"ch":10,"track":9},{"t":1636.273,"dur":0.42,"note":70,"inst":"harpsichord_v0_additive_2","vel":0.709,"bend":0.0,"ch":6,"track":9},{"t":1636.326,"dur":0.053,"note":56,"inst":"piano_v0_additive_0","vel":0.992,"bend":0.0,"ch":8,"track":9},{"t":1636.378,"dur":0.053,"note":53,"inst":"organ_v0_additive_1","vel":0.992,"bend":0.0,"ch":5,"track":9},{"t":1636.431,"dur":0.053,"note":52,"inst":"piano_v0_additive_0","vel":0.992,"bend":0.0,"ch":4,"track":9},{"t":1636.483,"dur":0.053,"note":44,"inst":"piano_v0_additive_0","vel":0.992,"bend":0.0,"ch":12,"track":9},{"t":1636.483,"dur":0.053,"note":48,"inst":"piano_v0_additive_0","vel":0.992,"bend":0.0,"ch":0,"track":9},{"t":1636.536,"dur":0.053,"note":52,"inst":"piano_v0_additive_0","vel":0.992,"bend":0.0,"ch":4,"track":9},{"t":1636.588,"dur":0.053,"note":56,"inst":"piano_v0_additive_0","vel":0.992,"bend":0.0,"ch":8,"track":9},{"t":1636.641,"dur":0.053,"note":48,"inst":"piano_v0_additive_0","vel":0.992,"bend":0.0,"ch":0,"track":9},{"t":1636.693,"dur":0.053,"note":49,"inst":"organ_v0_additive_1","vel":0.992,"bend":0.0,"ch":1,"track":9},{"t":1636.693,"dur":0.105,"note":72,"inst":"piano_v0_additive_0","vel":0.709,"bend":0.0,"ch":8,"track":9},{"t":1636.746,"dur":0.053,"note":52,"inst":"piano_v0_additive_0","vel":0.992,"bend":0.0,"ch":4,"track":9},{"t":1636.798,"dur":0.053,"note":56,"inst":"piano_v0_additive_0","vel":0.992,"bend":0.0,"ch":8,"track":9},{"t":1636.798,"dur":0.105,"note":68,"inst":"piano_v0_additive_0","vel":0.709,"bend":0.0,"ch":4,"track":9},{"t":1636.851,"dur":0.053,"note":49,"inst":"organ_v0_additive_1","vel":0.992,"bend":0.0,"ch":1,"track":9},{"t":1636.903,"dur":0.21,"note":68,"inst":"piano_v0_additive_0","vel":0.709,"bend":0.0,"ch":4,"track":9},{"t":1637.114,"dur":0.21,"note":44,"inst":"piano_v0_additive_0","vel":0.992,"bend":0.0,"ch":12,"track":9},{"t":1637.114,"dur":0.21,"note":49,"inst":"organ_v0_additive_1","vel":0.992,"bend":0.0,"ch":1,"track":9},{"t":1637.114,"dur":0.21,"note":53,"inst":"organ_v0_additive_1","vel":0.992,"bend":0.0,"ch":5,"track":9},{"t":1637.114,"dur":0.105,"note":67,"inst":"celesta_v0_additive_3","vel":0.709,"bend":0.0,"ch":3,"track":9},{"t":1637.219,"dur":0.105,"note":68,"inst":"piano_v0_additive_0","vel":0.709,"bend":0.0,"ch":4,"track":9},{"t":1637.324,"dur":0.105,"note":68,"inst":"piano_v0_additive_0","vel":0.756,"bend":0.0,"ch":4,"track":9},{"t":1637.429,"dur":0.105,"note":72,"inst":"piano_v0_additive_0","vel":0.756,"bend":0.0,"ch":8,"track":9},{"t":1637.534,"dur":0.21,"note":49,"inst":"organ_v0_additive_1","vel":0.992,"bend":0.0,"ch":1,"track":9},{"t":1637.534,"dur":0.21,"note":56,"inst":"piano_v0_additive_0","vel":0.992,"bend":0.0,"ch":8,"track":9},{"t":1637.534,"dur":0.21,"note":65,"inst":"organ_v0_additive_1","vel":0.992,"bend":0.0,"ch":1,"track":9},{"t":1637.534,"dur":0.053,"note":73,"inst":"organ_v0_additive_1","vel":0.709,"bend":0.0,"ch":9,"track":9},{"t":1637.586,"dur":0.053,"note":73,"inst":"organ_v0_additive_1","vel":0.709,"bend":0.0,"ch":9,"track":9},{"t":1637.639,"dur":0.053,"note":73,"inst":"organ_v0_additive_1","vel":0.709,"bend":0.0,"ch":9,"track":9},{"t":1637.691,"dur":0.053,"note":76,"inst":"piano_v0_additive_0","vel":0.709,"bend":0.0,"ch":12,"track":9},{"t":1637.744,"dur":0.053,"note":73,"inst":"organ_v0_additive_1","vel":0.496,"bend":0.0,"ch":9,"track":9},{"t":1637.796,"dur":0.053,"note":76,"inst":"piano_v0_additive_0","vel":0.496,"bend":0.0,"ch":12,"track":9},{"t":1637.849,"dur":0.053,"note":77,"inst":"organ_v0_additive_1","vel":0.709,"bend":0.0,"ch":13,"track":9},{"t":1637.901,"dur":0.053,"note":76,"inst":"piano_v0_additive_0","vel":0.756,"bend":0.0,"ch":12,"track":9},{"t":1637.954,"dur":0.21,"note":53,"inst":"organ_v0_additive_1","vel":0.992,"bend":0.0,"ch":5,"track":9},{"t":1637.954,"dur":0.21,"note":65,"inst":"organ_v0_additive_1","vel":0.992,"bend":0.0,"ch":1,"track":9},{"t":1637.954,"dur":0.263,"note":70,"inst":"harpsichord_v0_additive_2","vel":0.709,"bend":0.0,"ch":6,"track":9},{"t":1638.164,"dur":0.105,"note":53,"inst":"organ_v0_additive_1","vel":0.992,"bend":0.0,"ch":5,"track":9},{"t":1638.164,"dur":0.105,"note":65,"inst":"organ_v0_additive_1","vel":0.992,"bend":0.0,"ch":1,"track":9},{"t":1638.217,"dur":0.026,"note":72,"inst":"piano_v0_additive_0","vel":0.709,"bend":0.0,"ch":8,"track":9},{"t":1638.243,"dur":0.026,"note":70,"inst":"harpsichord_v0_additive_2","vel":0.709,"bend":0.0,"ch":6,"track":9},{"t":1638.269,"dur":0.105,"note":65,"inst":"organ_v0_additive_1","vel":0.992,"bend":0.0,"ch":1,"track":9},{"t":1638.269,"dur":0.105,"note":68,"inst":"piano_v0_additive_0","vel":0.992,"bend":0.0,"ch":4,"track":9},{"t":1638.269,"dur":0.026,"note":72,"inst":"piano_v0_additive_0","vel":0.709,"bend":0.0,"ch":8,"track":9},{"t":1638.295,"dur":0.026,"note":70,"inst":"harpsichord_v0_additive_2","vel":0.709,"bend":0.0,"ch":6,"track":9},{"t":1638.322,"dur":0.026,"note":73,"inst":"organ_v0_additive_1","vel":0.709,"bend":0.0,"ch":9,"track":9},{"t":1638.677,"dur":0.114,"note":40,"inst":"piano_v0_additive_0","vel":1.0,"bend":0.0,"ch":8,"track":10},{"t":1638.791,"dur":0.114,"note":52,"inst":"piano_v0_additive_0","vel":1.0,"bend":0.0,"ch":4,"track":10},{"t":1638.905,"dur":0.114,"note":40,"inst":"piano_v0_additive_0","vel":1.0,"bend":0.0,"ch":8,"track":10},{"t":1639.02,"dur":0.685,"note":24,"inst":"piano_v0_additive_0","vel":1.0,"bend":0.0,"ch":8,"track":10},{"t":1639.02,"dur":0.342,"note":48,"inst":"piano_v0_additive_0","vel":1.0,"bend":0.0,"ch":0,"track":10},{"t":1639.362,"dur":0.342,"note":58,"inst":"harpsichord_v0_additive_2","vel":1.0,"bend":0.0,"ch":10,"track":10},{"t":1639.704,"dur":0.685,"note":24,"inst":"piano_v0_additive_0","vel":1.0,"bend":0.0,"ch":8,"track":10},{"t":1639.704,"dur":0.342,"note":56,"inst":"piano_v0_additive_0","vel":1.0,"bend":0.0,"ch":8,"track":10},{"t":1640.047,"dur":0.342,"note":48,"inst":"piano_v0_additive_0","vel":1.0,"bend":0.0,"ch":0,"track":10},{"t":1640.389,"dur":0.685,"note":30,"inst":"harpsichord_v0_additive_2","vel":1.0,"bend":0.0,"ch":14,"track":10},{"t":1640.389,"dur":0.685,"note":54,"inst":"harpsichord_v0_additive_2","vel":1.0,"bend":0.0,"ch":6,"track":10},{"t":1641.074,"dur":0.342,"note":66,"inst":"harpsichord_v0_additive_2","vel":1.0,"bend":0.0,"ch":2,"track":10},{"t":1641.416,"dur":0.114,"note":66,"inst":"harpsichord_v0_additive_2","vel":1.0,"bend":0.0,"ch":2,"track":10},{"t":1641.53,"dur":0.114,"note":68,"inst":"piano_v0_additive_0","vel":1.0,"bend":0.0,"ch":4,"track":10},{"t":1641.644,"dur":0.114,"note":66,"inst":"harpsichord_v0_additive_2","vel":1.0,"bend":0.0,"ch":2,"track":10},{"t":1641.759,"dur":0.685,"note":24,"inst":"piano_v0_additive_0","vel":1.0,"bend":0.0,"ch":8,"track":10},{"t":1641.759,"dur":0.342,"note":64,"inst":"piano_v0_additive_0","vel":1.0,"bend":0.0,"ch":0,"track":10},{"t":1642.101,"dur":0.342,"note":70,"inst":"harpsichord_v0_additive_2","vel":1.0,"bend":0.0,"ch":6,"track":10},{"t":1642.443,"dur":0.685,"note":24,"inst":"piano_v0_additive_0","vel":1.0,"bend":0.0,"ch":8,"track":10},{"t":1642.443,"dur":0.342,"note":68,"inst":"piano_v0_additive_0","vel":1.0,"bend":0.0,"ch":4,"track":10},{"t":1642.786,"dur":0.114,"note":52,"inst":"piano_v0_additive_0","vel":1.0,"bend":0.0,"ch":4,"track":10},{"t":1642.9,"dur":0.114,"note":64,"inst":"piano_v0_additive_0","vel":1.0,"bend":0.0,"ch":0,"track":10},{"t":1643.014,"dur":0.114,"note":52,"inst":"piano_v0_additive_0","vel":1.0,"bend":0.0,"ch":4,"track":10},{"t":1643.128,"dur":0.685,"note":24,"inst":"piano_v0_additive_0","vel":1.0,"bend":0.0,"ch":8,"track":10},{"t":1643.128,"dur":0.342,"note":60,"inst":"piano_v0_additive_0","vel":1.0,"bend":0.0,"ch":12,"track":10},{"t":1643.47,"dur":0.342,"note":66,"inst":"harpsichord_v0_additive_2","vel":1.0,"bend":0.0,"ch":2,"track":10},{"t":1643.813,"dur":0.685,"note":24,"inst":"piano_v0_additive_0","vel":1.0,"bend":0.0,"ch":8,"track":10},{"t":1643.813,"dur":0.342,"note":64,"inst":"piano_v0_additive_0","vel":1.0,"bend":0.0,"ch":0,"track":10},{"t":1644.155,"dur":0.342,"note":60,"inst":"piano_v0_additive_0","vel":1.0,"bend":0.0,"ch":12,"track":10},{"t":1644.498,"dur":0.685,"note":24,"inst":"piano_v0_additive_0","vel":1.0,"bend":0.0,"ch":8,"track":10},{"t":1644.498,"dur":0.171,"note":56,"inst":"piano_v0_additive_0","vel":1.0,"bend":0.0,"ch":8,"track":10},{"t":1644.669,"dur":0.171,"note":54,"inst":"harpsichord_v0_additive_2","vel":1.0,"bend":0.0,"ch":6,"track":10},{"t":1644.84,"dur":0.171,"note":56,"inst":"piano_v0_additive_0","vel":1.0,"bend":0.0,"ch":8,"track":10},{"t":1645.011,"dur":0.171,"note":58,"inst":"harpsichord_v0_additive_2","vel":1.0,"bend":0.0,"ch":10,"track":10},{"t":1645.182,"dur":0.685,"note":24,"inst":"piano_v0_additive_0","vel":1.0,"bend":0.0,"ch":8,"track":10},{"t":1645.182,"dur":0.171,"note":60,"inst":"piano_v0_additive_0","vel":1.0,"bend":0.0,"ch":12,"track":10},{"t":1645.354,"dur":0.171,"note":60,"inst":"piano_v0_additive_0","vel":1.0,"bend":0.0,"ch":12,"track":10},{"t":1645.525,"dur":0.171,"note":52,"inst":"piano_v0_additive_0","vel":1.0,"bend":0.0,"ch":4,"track":10},{"t":1645.696,"dur":0.171,"note":64,"inst":"piano_v0_additive_0","vel":1.0,"bend":0.0,"ch":0,"track":10},{"t":1645.867,"dur":0.685,"note":24,"inst":"piano_v0_additive_0","vel":1.0,"bend":0.0,"ch":8,"track":10},{"t":1645.867,"dur":0.685,"note":66,"inst":"harpsichord_v0_additive_2","vel":1.0,"bend":0.0,"ch":2,"track":10},{"t":1646.552,"dur":0.685,"note":24,"inst":"piano_v0_additive_0","vel":1.0,"bend":0.0,"ch":8,"track":10},{"t":1646.894,"dur":0.114,"note":66,"inst":"harpsichord_v0_additive_2","vel":1.0,"bend":0.0,"ch":2,"track":10},{"t":1647.008,"dur":0.114,"note":68,"inst":"piano_v0_additive_0","vel":1.0,"bend":0.0,"ch":4,"track":10},{"t":1647.123,"dur":0.114,"note":66,"inst":"harpsichord_v0_additive_2","vel":1.0,"bend":0.0,"ch":2,"track":10},{"t":1647.237,"dur":0.685,"note":24,"inst":"piano_v0_additive_0","vel":1.0,"bend":0.0,"ch":8,"track":10},{"t":1647.237,"dur":0.342,"note":52,"inst":"piano_v0_additive_0","vel":1.0,"bend":0.0,"ch":4,"track":10},{"t":1647.579,"dur":0.342,"note":70,"inst":"harpsichord_v0_additive_2","vel":1.0,"bend":0.0,"ch":6,"track":10},{"t":1647.921,"dur":0.685,"note":24,"inst":"piano_v0_additive_0","vel":1.0,"bend":0.0,"ch":8,"track":10},{"t":1647.921,"dur":0.342,"note":68,"inst":"piano_v0_additive_0","vel":1.0,"bend":0.0,"ch":4,"track":10},{"t":1648.264,"dur":0.114,"note":52,"inst":"piano_v0_additive_0","vel":1.0,"bend":0.0,"ch":4,"track":10},{"t":1648.378,"dur":0.114,"note":64,"inst":"piano_v0_additive_0","vel":1.0,"bend":0.0,"ch":0,"track":10},{"t":1648.492,"dur":0.114,"note":52,"inst":"piano_v0_additive_0","vel":1.0,"bend":0.0,"ch":4,"track":10},{"t":1648.606,"dur":0.685,"note":24,"inst":"piano_v0_additive_0","vel":1.0,"bend":0.0,"ch":8,"track":10},{"t":1648.606,"dur":0.342,"note":60,"inst":"piano_v0_additive_0","vel":1.0,"bend":0.0,"ch":12,"track":10},{"t":1648.949,"dur":0.342,"note":64,"inst":"piano_v0_additive_0","vel":1.0,"bend":0.0,"ch":0,"track":10},{"t":1649.291,"dur":0.685,"note":24,"inst":"piano_v0_additive_0","vel":1.0,"bend":0.0,"ch":8,"track":10},{"t":1649.291,"dur":0.342,"note":52,"inst":"piano_v0_additive_0","vel":1.0,"bend":0.0,"ch":4,"track":10},{"t":1649.633,"dur":0.342,"note":60,"inst":"piano_v0_additive_0","vel":1.0,"bend":0.0,"ch":12,"track":10},{"t":1649.976,"dur":0.685,"note":24,"inst":"piano_v0_additive_0","vel":1.0,"bend":0.0,"ch":8,"track":10},{"t":1649.976,"dur":0.171,"note":56,"inst":"piano_v0_additive_0","vel":1.0,"bend":0.0,"ch":8,"track":10},{"t":1650.147,"dur":0.171,"note":54,"inst":"harpsichord_v0_additive_2","vel":1.0,"bend":0.0,"ch":6,"track":10},{"t":1650.318,"dur":0.171,"note":56,"inst":"piano_v0_additive_0","vel":1.0,"bend":0.0,"ch":8,"track":10},{"t":1650.489,"dur":0.171,"note":58,"inst":"harpsichord_v0_additive_2","vel":1.0,"bend":0.0,"ch":10,"track":10},{"t":1650.66,"dur":0.685,"note":24,"inst":"piano_v0_additive_0","vel":1.0,"bend":0.0,"ch":8,"track":10},{"t":1650.66,"dur":0.171,"note":60,"inst":"piano_v0_additive_0","vel":1.0,"bend":0.0,"ch":12,"track":10},{"t":1650.832,"dur":0.171,"note":60,"inst":"piano_v0_additive_0","vel":1.0,"bend":0.0,"ch":12,"track":10},{"t":1651.003,"dur":0.171,"note":52,"inst":"piano_v0_additive_0","vel":1.0,"bend":0.0,"ch":4,"track":10},{"t":1651.174,"dur":0.171,"note":64,"inst":"piano_v0_additive_0","vel":1.0,"bend":0.0,"ch":0,"track":10},{"t":1651.345,"dur":0.685,"note":24,"inst":"piano_v0_additive_0","vel":1.0,"bend":0.0,"ch":8,"track":10},{"t":1651.345,"dur":0.685,"note":64,"inst":"piano_v0_additive_0","vel":1.0,"bend":0.0,"ch":0,"track":10},{"t":1652.03,"dur":0.685,"note":24,"inst":"piano_v0_additive_0","vel":1.0,"bend":0.0,"ch":8,"track":10},{"t":1652.715,"dur":0.685,"note":24,"inst":"piano_v0_additive_0","vel":1.0,"bend":0.0,"ch":8,"track":10},{"t":1652.715,"dur":0.342,"note":64,"inst":"piano_v0_additive_0","vel":1.0,"bend":0.0,"ch":0,"track":10},{"t":1653.057,"dur":0.342,"note":70,"inst":"harpsichord_v0_additive_2","vel":1.0,"bend":0.0,"ch":6,"track":10},{"t":1653.4,"dur":0.685,"note":24,"inst":"piano_v0_additive_0","vel":1.0,"bend":0.0,"ch":8,"track":10},{"t":1653.4,"dur":0.342,"note":68,"inst":"piano_v0_additive_0","vel":1.0,"bend":0.0,"ch":4,"track":10},{"t":1653.742,"dur":0.114,"note":52,"inst":"piano_v0_additive_0","vel":1.0,"bend":0.0,"ch":4,"track":10},{"t":1653.856,"dur":0.114,"note":64,"inst":"piano_v0_additive_0","vel":1.0,"bend":0.0,"ch":0,"track":10},{"t":1653.97,"dur":0.114,"note":52,"inst":"piano_v0_additive_0","vel":1.0,"bend":0.0,"ch":4,"track":10},{"t":1654.084,"dur":0.685,"note":24,"inst":"piano_v0_additive_0","vel":1.0,"bend":0.0,"ch":8,"track":10},{"t":1654.084,"dur":0.342,"note":60,"inst":"piano_v0_additive_0","vel":1.0,"bend":0.0,"ch":12,"track":10},{"t":1654.427,"dur":0.342,"note":66,"inst":"harpsichord_v0_additive_2","vel":1.0,"bend":0.0,"ch":2,"track":10},{"t":1654.769,"dur":0.685,"note":24,"inst":"piano_v0_additive_0","vel":1.0,"bend":0.0,"ch":8,"track":10},{"t":1654.769,"dur":0.342,"note":64,"inst":"piano_v0_additive_0","vel":1.0,"bend":0.0,"ch":0,"track":10},{"t":1655.111,"dur":0.342,"note":60,"inst":"piano_v0_additive_0","vel":1.0,"bend":0.0,"ch":12,"track":10},{"t":1655.454,"dur":0.685,"note":24,"inst":"piano_v0_additive_0","vel":1.0,"bend":0.0,"ch":8,"track":10},{"t":1655.454,"dur":0.171,"note":56,"inst":"piano_v0_additive_0","vel":1.0,"bend":0.0,"ch":8,"track":10},{"t":1655.625,"dur":0.171,"note":58,"inst":"harpsichord_v0_additive_2","vel":1.0,"bend":0.0,"ch":10,"track":10},{"t":1655.796,"dur":0.171,"note":60,"inst":"piano_v0_additive_0","vel":1.0,"bend":0.0,"ch":12,"track":10},{"t":1655.967,"dur":0.171,"note":60,"inst":"piano_v0_additive_0","vel":1.0,"bend":0.0,"ch":12,"track":10},{"t":1656.139,"dur":0.685,"note":24,"inst":"piano_v0_additive_0","vel":1.0,"bend":0.0,"ch":8,"track":10},{"t":1656.139,"dur":0.171,"note":52,"inst":"piano_v0_additive_0","vel":1.0,"bend":0.0,"ch":4,"track":10},{"t":1656.31,"dur":0.171,"note":64,"inst":"piano_v0_additive_0","vel":1.0,"bend":0.0,"ch":0,"track":10},{"t":1656.481,"dur":0.171,"note":66,"inst":"harpsichord_v0_additive_2","vel":1.0,"bend":0.0,"ch":2,"track":10},{"t":1656.652,"dur":0.171,"note":68,"inst":"piano_v0_additive_0","vel":1.0,"bend":0.0,"ch":4,"track":10},{"t":1656.823,"dur":0.685,"note":30,"inst":"harpsichord_v0_additive_2","vel":1.0,"bend":0.0,"ch":14,"track":10},{"t":1656.823,"dur":0.685,"note":70,"inst":"harpsichord_v0_additive_2","vel":1.0,"bend":0.0,"ch":6,"track":10},{"t":1722.72,"dur":2.848,"note":31,"inst":"celesta_v0_additive_3","vel":0.63,"bend":0.0,"ch":15,"track":10},{"t":1722.72,"dur":2.135,"note":43,"inst":"celesta_v0_additive_3","vel":0.63,"bend":0.0,"ch":11,"track":10},{"t":1724.144,"dur":2.705,"note":46,"inst":"harpsichord_v0_additive_2","vel":0.63,"bend":0.0,"ch":14,"track":10},{"t":1724.857,"dur":0.711,"note":46,"inst":"harpsichord_v0_additive_2","vel":0.63,"bend":0.0,"ch":14,"track":10},{"t":1725.569,"dur":0.711,"note":46,"inst":"harpsichord_v0_additive_2","vel":0.63,"bend":0.0,"ch":14,"track":10},{"t":1726.281,"dur":0.711,"note":46,"inst":"harpsichord_v0_additive_2","vel":0.63,"bend":0.0,"ch":14,"track":10},{"t":1726.994,"dur":1.352,"note":43,"inst":"celesta_v0_additive_3","vel":0.63,"bend":0.0,"ch":11,"track":10},{"t":1726.994,"dur":2.848,"note":43,"inst":"celesta_v0_additive_3","vel":0.63,"bend":0.0,"ch":11,"track":10},{"t":1726.994,"dur":2.848,"note":46,"inst":"harpsichord_v0_additive_2","vel":0.63,"bend":0.0,"ch":14,"track":10},{"t":1728.418,"dur":1.352,"note":46,"inst":"harpsichord_v0_additive_2","vel":0.63,"bend":0.0,"ch":14,"track":10},{"t":1729.843,"dur":0.711,"note":40,"inst":"piano_v0_additive_0","vel":0.63,"bend":0.0,"ch":8,"track":10},{"t":1729.843,"dur":0.711,"note":46,"inst":"harpsichord_v0_additive_2","vel":0.63,"bend":0.0,"ch":14,"track":10},{"t":1729.843,"dur":1.352,"note":48,"inst":"piano_v0_additive_0","vel":0.63,"bend":0.0,"ch":0,"track":10},{"t":1729.843,"dur":2.848,"note":55,"inst":"celesta_v0_additive_3","vel":0.63,"bend":0.0,"ch":7,"track":10},{"t":1730.555,"dur":0.711,"note":39,"inst":"celesta_v0_additive_3","vel":0.63,"bend":0.0,"ch":7,"track":10},{"t":1730.555,"dur":0.711,"note":43,"inst":"celesta_v0_additive_3","vel":0.63,"bend":0.0,"ch":11,"track":10},{"t":1731.267,"dur":2.848,"note":39,"inst":"celesta_v0_additive_3","vel":0.63,"bend":0.0,"ch":7,"track":10},{"t":1731.267,"dur":2.848,"note":46,"inst":"harpsichord_v0_additive_2","vel":0.63,"bend":0.0,"ch":14,"track":10},{"t":1731.267,"dur":2.705,"note":51,"inst":"celesta_v0_additive_3","vel":0.63,"bend":0.0,"ch":3,"track":10},{"t":1732.692,"dur":1.423,"note":52,"inst":"piano_v0_additive_0","vel":0.63,"bend":0.0,"ch":4,"track":10},{"t":1734.117,"dur":5.697,"note":31,"inst":"celesta_v0_additive_3","vel":0.63,"bend":0.0,"ch":15,"track":10},{"t":1734.117,"dur":5.697,"note":43,"inst":"celesta_v0_additive_3","vel":0.63,"bend":0.0,"ch":11,"track":10},{"t":1734.117,"dur":1.352,"note":46,"inst":"harpsichord_v0_additive_2","vel":0.63,"bend":0.0,"ch":14,"track":10},{"t":1734.117,"dur":2.135,"note":55,"inst":"celesta_v0_additive_3","vel":0.63,"bend":0.0,"ch":7,"track":10},{"t":1735.541,"dur":2.029,"note":51,"inst":"celesta_v0_additive_3","vel":0.63,"bend":0.0,"ch":3,"track":10},{"t":1736.254,"dur":0.711,"note":58,"inst":"harpsichord_v0_additive_2","vel":0.63,"bend":0.0,"ch":10,"track":10},{"t":1736.966,"dur":0.711,"note":58,"inst":"harpsichord_v0_additive_2","vel":0.63,"bend":0.0,"ch":10,"track":10},{"t":1737.678,"dur":0.675,"note":48,"inst":"piano_v0_additive_0","vel":0.63,"bend":0.0,"ch":0,"track":10},{"t":1737.678,"dur":0.711,"note":58,"inst":"harpsichord_v0_additive_2","vel":0.63,"bend":0.0,"ch":10,"track":10},{"t":1738.391,"dur":0.675,"note":46,"inst":"harpsichord_v0_additive_2","vel":0.63,"bend":0.0,"ch":14,"track":10},{"t":1738.391,"dur":2.848,"note":58,"inst":"harpsichord_v0_additive_2","vel":0.63,"bend":0.0,"ch":10,"track":10},{"t":1739.103,"dur":0.675,"note":46,"inst":"harpsichord_v0_additive_2","vel":0.63,"bend":0.0,"ch":14,"track":10},{"t":1739.815,"dur":2.705,"note":43,"inst":"celesta_v0_additive_3","vel":0.63,"bend":0.0,"ch":11,"track":10},{"t":1741.24,"dur":2.848,"note":43,"inst":"celesta_v0_additive_3","vel":0.63,"bend":0.0,"ch":11,"track":10},{"t":1741.24,"dur":0.711,"note":58,"inst":"harpsichord_v0_additive_2","vel":0.63,"bend":0.0,"ch":10,"track":10},{"t":1741.952,"dur":0.711,"note":55,"inst":"celesta_v0_additive_3","vel":0.63,"bend":0.0,"ch":7,"track":10},{"t":1742.664,"dur":2.848,"note":51,"inst":"celesta_v0_additive_3","vel":0.63,"bend":0.0,"ch":3,"track":10},{"t":1742.664,"dur":2.848,"note":58,"inst":"harpsichord_v0_additive_2","vel":0.63,"bend":0.0,"ch":10,"track":10},{"t":1744.089,"dur":1.423,"note":40,"inst":"piano_v0_additive_0","vel":0.63,"bend":0.0,"ch":8,"track":10},{"t":1745.514,"dur":2.135,"note":43,"inst":"celesta_v0_additive_3","vel":0.63,"bend":0.0,"ch":11,"track":10},{"t":1745.514,"dur":2.848,"note":51,"inst":"celesta_v0_additive_3","vel":0.63,"bend":0.0,"ch":3,"track":10},{"t":1746.938,"dur":1.423,"note":55,"inst":"celesta_v0_additive_3","vel":0.63,"bend":0.0,"ch":7,"track":10},{"t":1747.65,"dur":0.711,"note":46,"inst":"harpsichord_v0_additive_2","vel":0.63,"bend":0.0,"ch":14,"track":10},{"t":1748.363,"dur":0.711,"note":46,"inst":"harpsichord_v0_additive_2","vel":0.63,"bend":0.0,"ch":14,"track":10},{"t":1748.363,"dur":2.848,"note":51,"inst":"celesta_v0_additive_3","vel":0.63,"bend":0.0,"ch":3,"track":10},{"t":1748.363,"dur":1.423,"note":55,"inst":"celesta_v0_additive_3","vel":0.63,"bend":0.0,"ch":7,"track":10},{"t":1749.075,"dur":0.711,"note":46,"inst":"harpsichord_v0_additive_2","vel":0.63,"bend":0.0,"ch":14,"track":10},{"t":1749.787,"dur":2.848,"note":46,"inst":"harpsichord_v0_additive_2","vel":0.63,"bend":0.0,"ch":14,"track":10},{"t":1749.787,"dur":0.711,"note":52,"inst":"piano_v0_additive_0","vel":0.63,"bend":0.0,"ch":4,"track":10},{"t":1750.5,"dur":0.711,"note":51,"inst":"celesta_v0_additive_3","vel":0.63,"bend":0.0,"ch":3,"track":10},{"t":1751.212,"dur":1.423,"note":51,"inst":"celesta_v0_additive_3","vel":0.63,"bend":0.0,"ch":3,"track":10},{"t":1751.212,"dur":2.848,"note":51,"inst":"celesta_v0_additive_3","vel":0.63,"bend":0.0,"ch":3,"track":10},{"t":1752.637,"dur":0.711,"note":46,"inst":"harpsichord_v0_additive_2","vel":0.63,"bend":0.0,"ch":14,"track":10},{"t":1752.637,"dur":2.848,"note":55,"inst":"celesta_v0_additive_3","vel":0.63,"bend":0.0,"ch":7,"track":10},{"t":1753.349,"dur":0.711,"note":43,"inst":"celesta_v0_additive_3","vel":0.63,"bend":0.0,"ch":11,"track":10},{"t":1754.061,"dur":2.848,"note":46,"inst":"harpsichord_v0_additive_2","vel":0.63,"bend":0.0,"ch":14,"track":10},{"t":1754.061,"dur":2.848,"note":48,"inst":"piano_v0_additive_0","vel":0.63,"bend":0.0,"ch":0,"track":10},{"t":1755.486,"dur":1.423,"note":52,"inst":"piano_v0_additive_0","vel":0.63,"bend":0.0,"ch":4,"track":10},{"t":1756.91,"dur":1.423,"note":43,"inst":"celesta_v0_additive_3","vel":0.63,"bend":0.0,"ch":11,"track":10},{"t":1756.91,"dur":5.697,"note":51,"inst":"celesta_v0_additive_3","vel":0.63,"bend":0.0,"ch":3,"track":10},{"t":1756.91,"dur":1.423,"note":55,"inst":"celesta_v0_additive_3","vel":0.63,"bend":0.0,"ch":7,"track":10},{"t":1758.335,"dur":1.423,"note":31,"inst":"celesta_v0_additive_3","vel":0.63,"bend":0.0,"ch":15,"track":10},{"t":1758.335,"dur":1.423,"note":58,"inst":"harpsichord_v0_additive_2","vel":0.63,"bend":0.0,"ch":10,"track":10},{"t":1759.76,"dur":2.848,"note":39,"inst":"celesta_v0_additive_3","vel":0.63,"bend":0.0,"ch":7,"track":10},{"t":1759.76,"dur":2.848,"note":58,"inst":"harpsichord_v0_additive_2","vel":0.63,"bend":0.0,"ch":10,"track":10},{"t":1762.609,"dur":2.848,"note":31,"inst":"celesta_v0_additive_3","vel":0.63,"bend":0.0,"ch":15,"track":10},{"t":1762.609,"dur":2.705,"note":43,"inst":"celesta_v0_additive_3","vel":0.63,"bend":0.0,"ch":11,"track":10},{"t":1762.609,"dur":2.848,"note":55,"inst":"celesta_v0_additive_3","vel":0.63,"bend":0.0,"ch":7,"track":10},{"t":1765.458,"dur":1.423,"note":34,"inst":"harpsichord_v0_additive_2","vel":0.63,"bend":0.0,"ch":2,"track":10},{"t":1765.458,"dur":2.705,"note":36,"inst":"piano_v0_additive_0","vel":0.63,"bend":0.0,"ch":4,"track":10},{"t":1766.883,"dur":2.848,"note":36,"inst":"piano_v0_additive_0","vel":0.63,"bend":0.0,"ch":4,"track":10},{"t":1806.573,"dur":0.263,"note":59,"inst":"celesta_v0_additive_3","vel":1.0,"bend":0.0,"ch":11,"track":10},{"t":1806.836,"dur":0.263,"note":50,"inst":"harpsichord_v0_additive_2","vel":1.0,"bend":0.0,"ch":2,"track":10},{"t":1807.1,"dur":0.263,"note":50,"inst":"harpsichord_v0_additive_2","vel":1.0,"bend":0.0,"ch":2,"track":10},{"t":1807.1,"dur":0.263,"note":59,"inst":"celesta_v0_additive_3","vel":1.0,"bend":0.0,"ch":11,"track":10},{"t":1807.363,"dur":0.263,"note":50,"inst":"harpsichord_v0_additive_2","vel":1.0,"bend":0.0,"ch":2,"track":10},{"t":1807.626,"dur":0.263,"note":57,"inst":"organ_v0_additive_1","vel":1.0,"bend":0.0,"ch":9,"track":10},{"t":1807.89,"dur":0.263,"note":57,"inst":"organ_v0_additive_1","vel":1.0,"bend":0.0,"ch":9,"track":10},{"t":1808.153,"dur":0.263,"note":50,"inst":"harpsichord_v0_additive_2","vel":1.0,"bend":0.0,"ch":2,"track":10},{"t":1808.417,"dur":0.263,"note":38,"inst":"harpsichord_v0_additive_2","vel":1.0,"bend":0.0,"ch":6,"track":10},{"t":1808.68,"dur":0.263,"note":47,"inst":"celesta_v0_additive_3","vel":1.0,"bend":0.0,"ch":15,"track":10},{"t":1808.68,"dur":0.79,"note":64,"inst":"piano_v0_additive_0","vel":1.0,"bend":0.0,"ch":0,"track":10},{"t":1808.943,"dur":0.263,"note":45,"inst":"organ_v0_additive_1","vel":1.0,"bend":0.0,"ch":13,"track":10},{"t":1809.207,"dur":0.263,"note":45,"inst":"organ_v0_additive_1","vel":1.0,"bend":0.0,"ch":13,"track":10},{"t":1809.47,"dur":0.263,"note":45,"inst":"organ_v0_additive_1","vel":1.0,"bend":0.0,"ch":13,"track":10},{"t":1809.47,"dur":0.263,"note":54,"inst":"harpsichord_v0_additive_2","vel":1.0,"bend":0.0,"ch":6,"track":10},{"t":1809.47,"dur":0.79,"note":62,"inst":"harpsichord_v0_additive_2","vel":1.0,"bend":0.0,"ch":14,"track":10},{"t":1809.733,"dur":0.263,"note":45,"inst":"organ_v0_additive_1","vel":1.0,"bend":0.0,"ch":13,"track":10},{"t":1809.997,"dur":0.263,"note":47,"inst":"celesta_v0_additive_3","vel":1.0,"bend":0.0,"ch":15,"track":10},{"t":1810.26,"dur":0.263,"note":35,"inst":"celesta_v0_additive_3","vel":1.0,"bend":0.0,"ch":3,"track":10},{"t":1810.524,"dur":0.263,"note":50,"inst":"harpsichord_v0_additive_2","vel":1.0,"bend":0.0,"ch":2,"track":10},{"t":1810.787,"dur":0.263,"note":52,"inst":"piano_v0_additive_0","vel":1.0,"bend":0.0,"ch":4,"track":10},{"t":1811.05,"dur":0.263,"note":54,"inst":"harpsichord_v0_additive_2","vel":1.0,"bend":0.0,"ch":6,"track":10},{"t":1811.314,"dur":0.263,"note":57,"inst":"organ_v0_additive_1","vel":1.0,"bend":0.0,"ch":9,"track":10},{"t":1811.577,"dur":0.263,"note":57,"inst":"organ_v0_additive_1","vel":1.0,"bend":0.0,"ch":9,"track":10},{"t":1811.84,"dur":0.263,"note":57,"inst":"organ_v0_additive_1","vel":1.0,"bend":0.0,"ch":9,"track":10},{"t":1812.104,"dur":0.263,"note":57,"inst":"organ_v0_additive_1","vel":1.0,"bend":0.0,"ch":9,"track":10},{"t":1812.367,"dur":0.263,"note":54,"inst":"harpsichord_v0_additive_2","vel":1.0,"bend":0.0,"ch":6,"track":10},{"t":1812.631,"dur":0.79,"note":26,"inst":"harpsichord_v0_additive_2","vel":1.0,"bend":0.0,"ch":10,"track":10},{"t":1812.631,"dur":0.79,"note":52,"inst":"piano_v0_additive_0","vel":1.0,"bend":0.0,"ch":4,"track":10},{"t":1812.894,"dur":0.263,"note":50,"inst":"harpsichord_v0_additive_2","vel":1.0,"bend":0.0,"ch":2,"track":10},{"t":1813.157,"dur":0.263,"note":62,"inst":"harpsichord_v0_additive_2","vel":1.0,"bend":0.0,"ch":14,"track":10},{"t":1813.421,"dur":1.58,"note":50,"inst":"harpsichord_v0_additive_2","vel":1.0,"bend":0.0,"ch":2,"track":10},{"t":1813.421,"dur":0.263,"note":64,"inst":"piano_v0_additive_0","vel":1.0,"bend":0.0,"ch":0,"track":10},{"t":1813.684,"dur":0.263,"note":66,"inst":"harpsichord_v0_additive_2","vel":1.0,"bend":0.0,"ch":2,"track":10},{"t":1813.947,"dur":0.263,"note":69,"inst":"organ_v0_additive_1","vel":1.0,"bend":0.0,"ch":5,"track":10},{"t":1814.211,"dur":0.263,"note":66,"inst":"harpsichord_v0_additive_2","vel":1.0,"bend":0.0,"ch":2,"track":10},{"t":1814.474,"dur":0.263,"note":69,"inst":"organ_v0_additive_1","vel":1.0,"bend":0.0,"ch":5,"track":10},{"t":1814.738,"dur":0.263,"note":64,"inst":"piano_v0_additive_0","vel":1.0,"bend":0.0,"ch":0,"track":10},{"t":1815.001,"dur":0.263,"note":42,"inst":"harpsichord_v0_additive_2","vel":1.0,"bend":0.0,"ch":10,"track":10},{"t":1815.001,"dur":1.054,"note":69,"inst":"organ_v0_additive_1","vel":1.0,"bend":0.0,"ch":5,"track":10},{"t":1815.264,"dur":0.263,"note":57,"inst":"organ_v0_additive_1","vel":1.0,"bend":0.0,"ch":9,"track":10},{"t":1815.528,"dur":0.263,"note":59,"inst":"celesta_v0_additive_3","vel":1.0,"bend":0.0,"ch":11,"track":10},{"t":1815.791,"dur":0.79,"note":50,"inst":"harpsichord_v0_additive_2","vel":1.0,"bend":0.0,"ch":2,"track":10},{"t":1816.054,"dur":0.263,"note":62,"inst":"harpsichord_v0_additive_2","vel":1.0,"bend":0.0,"ch":14,"track":10},{"t":1816.318,"dur":0.263,"note":64,"inst":"piano_v0_additive_0","vel":1.0,"bend":0.0,"ch":0,"track":10},{"t":1816.581,"dur":0.263,"note":62,"inst":"harpsichord_v0_additive_2","vel":1.0,"bend":0.0,"ch":14,"track":10},{"t":1816.845,"dur":0.263,"note":64,"inst":"piano_v0_additive_0","vel":1.0,"bend":0.0,"ch":0,"track":10},{"t":1817.108,"dur":0.263,"note":50,"inst":"harpsichord_v0_additive_2","vel":1.0,"bend":0.0,"ch":2,"track":10},{"t":1817.371,"dur":0.79,"note":38,"inst":"harpsichord_v0_additive_2","vel":1.0,"bend":0.0,"ch":6,"track":10},{"t":1817.371,"dur":0.263,"note":59,"inst":"celesta_v0_additive_3","vel":1.0,"bend":0.0,"ch":11,"track":10},{"t":1817.635,"dur":0.263,"note":66,"inst":"harpsichord_v0_additive_2","vel":1.0,"bend":0.0,"ch":2,"track":10},{"t":1817.898,"dur":0.263,"note":69,"inst":"organ_v0_additive_1","vel":1.0,"bend":0.0,"ch":5,"track":10},{"t":1818.161,"dur":0.263,"note":69,"inst":"organ_v0_additive_1","vel":1.0,"bend":0.0,"ch":5,"track":10},{"t":1818.425,"dur":0.263,"note":71,"inst":"celesta_v0_additive_3","vel":1.0,"bend":0.0,"ch":7,"track":10},{"t":1818.688,"dur":0.263,"note":62,"inst":"harpsichord_v0_additive_2","vel":1.0,"bend":0.0,"ch":14,"track":10},{"t":1818.952,"dur":0.263,"note":71,"inst":"celesta_v0_additive_3","vel":1.0,"bend":0.0,"ch":7,"track":10},{"t":1819.215,"dur":0.263,"note":62,"inst":"harpsichord_v0_additive_2","vel":1.0,"bend":0.0,"ch":14,"track":10},{"t":1819.478,"dur":0.263,"note":69,"inst":"organ_v0_additive_1","vel":1.0,"bend":0.0,"ch":5,"track":10},{"t":1819.742,"dur":0.79,"note":45,"inst":"organ_v0_additive_1","vel":1.0,"bend":0.0,"ch":13,"track":10},{"t":1819.742,"dur":0.79,"note":74,"inst":"harpsichord_v0_additive_2","vel":1.0,"bend":0.0,"ch":10,"track":10},{"t":1822.112,"dur":0.263,"note":45,"inst":"organ_v0_additive_1","vel":1.0,"bend":0.0,"ch":13,"track":10},{"t":1822.112,"dur":0.263,"note":52,"inst":"piano_v0_additive_0","vel":1.0,"bend":0.0,"ch":4,"track":10},{"t":1822.112,"dur":0.263,"note":76,"inst":"piano_v0_additive_0","vel":1.0,"bend":0.0,"ch":12,"track":10},{"t":1822.375,"dur":0.263,"note":54,"inst":"harpsichord_v0_additive_2","vel":1.0,"bend":0.0,"ch":6,"track":10},{"t":1822.375,"dur":0.263,"note":74,"inst":"harpsichord_v0_additive_2","vel":1.0,"bend":0.0,"ch":10,"track":10},{"t":1822.639,"dur":0.263,"note":57,"inst":"organ_v0_additive_1","vel":1.0,"bend":0.0,"ch":9,"track":10},{"t":1822.639,"dur":0.263,"note":62,"inst":"harpsichord_v0_additive_2","vel":1.0,"bend":0.0,"ch":14,"track":10},{"t":1822.902,"dur":0.263,"note":57,"inst":"organ_v0_additive_1","vel":1.0,"bend":0.0,"ch":9,"track":10},{"t":1822.902,"dur":0.263,"note":71,"inst":"celesta_v0_additive_3","vel":1.0,"bend":0.0,"ch":7,"track":10},{"t":1823.166,"dur":0.263,"note":59,"inst":"celesta_v0_additive_3","vel":1.0,"bend":0.0,"ch":11,"track":10},{"t":1823.166,"dur":0.263,"note":69,"inst":"organ_v0_additive_1","vel":1.0,"bend":0.0,"ch":5,"track":10},{"t":1823.429,"dur":0.263,"note":50,"inst":"harpsichord_v0_additive_2","vel":1.0,"bend":0.0,"ch":2,"track":10},{"t":1823.429,"dur":0.263,"note":69,"inst":"organ_v0_additive_1","vel":1.0,"bend":0.0,"ch":5,"track":10},{"t":1823.692,"dur":0.263,"note":59,"inst":"celesta_v0_additive_3","vel":1.0,"bend":0.0,"ch":11,"track":10},{"t":1823.692,"dur":0.263,"note":69,"inst":"organ_v0_additive_1","vel":1.0,"bend":0.0,"ch":5,"track":10},{"t":1823.956,"dur":0.263,"note":50,"inst":"harpsichord_v0_additive_2","vel":1.0,"bend":0.0,"ch":2,"track":10},{"t":1823.956,"dur":0.263,"note":69,"inst":"organ_v0_additive_1","vel":1.0,"bend":0.0,"ch":5,"track":10},{"t":1824.219,"dur":0.263,"note":57,"inst":"organ_v0_additive_1","vel":1.0,"bend":0.0,"ch":9,"track":10},{"t":1824.219,"dur":0.263,"note":71,"inst":"celesta_v0_additive_3","vel":1.0,"bend":0.0,"ch":7,"track":10},{"t":1824.482,"dur":0.263,"note":45,"inst":"organ_v0_additive_1","vel":1.0,"bend":0.0,"ch":13,"track":10},{"t":1824.482,"dur":0.263,"note":54,"inst":"harpsichord_v0_additive_2","vel":1.0,"bend":0.0,"ch":6,"track":10},{"t":1824.482,"dur":0.79,"note":62,"inst":"harpsichord_v0_additive_2","vel":1.0,"bend":0.0,"ch":14,"track":10},{"t":1824.746,"dur":0.263,"note":38,"inst":"harpsichord_v0_additive_2","vel":1.0,"bend":0.0,"ch":6,"track":10},{"t":1825.009,"dur":0.263,"note":50,"inst":"harpsichord_v0_additive_2","vel":1.0,"bend":0.0,"ch":2,"track":10},{"t":1825.273,"dur":0.263,"note":52,"inst":"piano_v0_additive_0","vel":1.0,"bend":0.0,"ch":4,"track":10},{"t":1825.536,"dur":0.263,"note":54,"inst":"harpsichord_v0_additive_2","vel":1.0,"bend":0.0,"ch":6,"track":10},{"t":1825.799,"dur":0.263,"note":54,"inst":"harpsichord_v0_additive_2","vel":1.0,"bend":0.0,"ch":6,"track":10},{"t":1826.063,"dur":0.263,"note":54,"inst":"harpsichord_v0_additive_2","vel":1.0,"bend":0.0,"ch":6,"track":10},{"t":1826.326,"dur":0.263,"note":54,"inst":"harpsichord_v0_additive_2","vel":1.0,"bend":0.0,"ch":6,"track":10},{"t":1826.589,"dur":0.263,"note":52,"inst":"piano_v0_additive_0","vel":1.0,"bend":0.0,"ch":4,"track":10},{"t":1826.853,"dur":0.263,"note":50,"inst":"harpsichord_v0_additive_2","vel":1.0,"bend":0.0,"ch":2,"track":10},{"t":1826.853,"dur":0.263,"note":83,"inst":"celesta_v0_additive_3","vel":1.0,"bend":0.0,"ch":3,"track":10},{"t":1827.116,"dur":0.263,"note":54,"inst":"harpsichord_v0_additive_2","vel":1.0,"bend":0.0,"ch":6,"track":10},{"t":1827.116,"dur":0.263,"note":81,"inst":"organ_v0_additive_1","vel":1.0,"bend":0.0,"ch":1,"track":10},{"t":1827.38,"dur":0.263,"note":57,"inst":"organ_v0_additive_1","vel":1.0,"bend":0.0,"ch":9,"track":10},{"t":1827.38,"dur":0.263,"note":81,"inst":"organ_v0_additive_1","vel":1.0,"bend":0.0,"ch":1,"track":10},{"t":1827.643,"dur":0.263,"note":57,"inst":"organ_v0_additive_1","vel":1.0,"bend":0.0,"ch":9,"track":10},{"t":1827.643,"dur":0.263,"note":78,"inst":"harpsichord_v0_additive_2","vel":1.0,"bend":0.0,"ch":14,"track":10},{"t":1827.906,"dur":0.263,"note":59,"inst":"celesta_v0_additive_3","vel":1.0,"bend":0.0,"ch":11,"track":10},{"t":1827.906,"dur":0.263,"note":76,"inst":"piano_v0_additive_0","vel":1.0,"bend":0.0,"ch":12,"track":10},{"t":1828.17,"dur":0.263,"note":50,"inst":"harpsichord_v0_additive_2","vel":1.0,"bend":0.0,"ch":2,"track":10},{"t":1828.17,"dur":0.263,"note":74,"inst":"harpsichord_v0_additive_2","vel":1.0,"bend":0.0,"ch":10,"track":10},{"t":1828.433,"dur":0.263,"note":59,"inst":"celesta_v0_additive_3","vel":1.0,"bend":0.0,"ch":11,"track":10},{"t":1828.433,"dur":0.263,"note":76,"inst":"piano_v0_additive_0","vel":1.0,"bend":0.0,"ch":12,"track":10},{"t":1828.696,"dur":0.263,"note":50,"inst":"harpsichord_v0_additive_2","vel":1.0,"bend":0.0,"ch":2,"track":10},{"t":1828.696,"dur":0.263,"note":74,"inst":"harpsichord_v0_additive_2","vel":1.0,"bend":0.0,"ch":10,"track":10},{"t":1828.96,"dur":0.263,"note":57,"inst":"organ_v0_additive_1","vel":1.0,"bend":0.0,"ch":9,"track":10},{"t":1828.96,"dur":0.263,"note":78,"inst":"harpsichord_v0_additive_2","vel":1.0,"bend":0.0,"ch":14,"track":10},{"t":1829.223,"dur":0.79,"note":52,"inst":"piano_v0_additive_0","vel":1.0,"bend":0.0,"ch":4,"track":10},{"t":1829.223,"dur":0.79,"note":57,"inst":"organ_v0_additive_1","vel":1.0,"bend":0.0,"ch":9,"track":10},{"t":1829.355,"dur":0.132,"note":76,"inst":"piano_v0_additive_0","vel":1.0,"bend":0.0,"ch":12,"track":10},{"t":1829.487,"dur":0.132,"note":74,"inst":"harpsichord_v0_additive_2","vel":1.0,"bend":0.0,"ch":10,"track":10},{"t":1829.618,"dur":0.132,"note":62,"inst":"harpsichord_v0_additive_2","vel":1.0,"bend":0.0,"ch":14,"track":10},{"t":1829.75,"dur":0.395,"note":81,"inst":"organ_v0_additive_1","vel":1.0,"bend":0.0,"ch":1,"track":10},{"t":1830.013,"dur":0.79,"note":54,"inst":"harpsichord_v0_additive_2","vel":1.0,"bend":0.0,"ch":6,"track":10},{"t":1830.013,"dur":0.79,"note":57,"inst":"organ_v0_additive_1","vel":1.0,"bend":0.0,"ch":9,"track":10},{"t":1830.145,"dur":0.132,"note":78,"inst":"harpsichord_v0_additive_2","vel":1.0,"bend":0.0,"ch":14,"track":10},{"t":1830.277,"dur":0.132,"note":76,"inst":"piano_v0_additive_0","vel":1.0,"bend":0.0,"ch":12,"track":10},{"t":1830.408,"dur":0.132,"note":74,"inst":"harpsichord_v0_additive_2","vel":1.0,"bend":0.0,"ch":10,"track":10},{"t":1830.54,"dur":0.395,"note":81,"inst":"organ_v0_additive_1","vel":1.0,"bend":0.0,"ch":1,"track":10},{"t":1830.803,"dur":0.79,"note":57,"inst":"organ_v0_additive_1","vel":1.0,"bend":0.0,"ch":9,"track":10},{"t":1830.803,"dur":0.79,"note":59,"inst":"celesta_v0_additive_3","vel":1.0,"bend":0.0,"ch":11,"track":10},{"t":1830.935,"dur":0.132,"note":81,"inst":"organ_v0_additive_1","vel":1.0,"bend":0.0,"ch":1,"track":10},{"t":1831.067,"dur":0.132,"note":78,"inst":"harpsichord_v0_additive_2","vel":1.0,"bend":0.0,"ch":14,"track":10},{"t":1831.198,"dur":0.132,"note":76,"inst":"piano_v0_additive_0","vel":1.0,"bend":0.0,"ch":12,"track":10},{"t":1831.33,"dur":0.263,"note":83,"inst":"celesta_v0_additive_3","vel":1.0,"bend":0.0,"ch":3,"track":10},{"t":1831.594,"dur":0.79,"note":57,"inst":"organ_v0_additive_1","vel":1.0,"bend":0.0,"ch":9,"track":10},{"t":1831.594,"dur":0.79,"note":50,"inst":"harpsichord_v0_additive_2","vel":1.0,"bend":0.0,"ch":2,"track":10},{"t":1848.442,"dur":0.299,"note":45,"inst":"organ_v0_additive_1","vel":1.0,"bend":0.0,"ch":13,"track":10},{"t":1848.442,"dur":0.449,"note":57,"inst":"organ_v0_additive_1","vel":1.0,"bend":0.0,"ch":9,"track":10},{"t":1848.741,"dur":0.299,"note":45,"inst":"organ_v0_additive_1","vel":1.0,"bend":0.0,"ch":13,"track":10},{"t":1848.891,"dur":0.224,"note":50,"inst":"harpsichord_v0_additive_2","vel":1.0,"bend":0.0,"ch":2,"track":10},{"t":1849.04,"dur":0.299,"note":50,"inst":"harpsichord_v0_additive_2","vel":1.0,"bend":0.0,"ch":2,"track":10},{"t":1849.115,"dur":0.224,"note":57,"inst":"organ_v0_additive_1","vel":1.0,"bend":0.0,"ch":9,"track":10},{"t":1849.34,"dur":0.299,"note":45,"inst":"organ_v0_additive_1","vel":1.0,"bend":0.0,"ch":13,"track":10},{"t":1849.34,"dur":0.449,"note":62,"inst":"harpsichord_v0_additive_2","vel":1.0,"bend":0.0,"ch":14,"track":10},{"t":1849.639,"dur":0.299,"note":45,"inst":"organ_v0_additive_1","vel":1.0,"bend":0.0,"ch":13,"track":10},{"t":1849.789,"dur":0.224,"note":62,"inst":"harpsichord_v0_additive_2","vel":1.0,"bend":0.0,"ch":14,"track":10},{"t":1849.938,"dur":0.299,"note":50,"inst":"harpsichord_v0_additive_2","vel":1.0,"bend":0.0,"ch":2,"track":10},{"t":1850.013,"dur":0.224,"note":62,"inst":"harpsichord_v0_additive_2","vel":1.0,"bend":0.0,"ch":14,"track":10},{"t":1850.238,"dur":0.299,"note":45,"inst":"organ_v0_additive_1","vel":1.0,"bend":0.0,"ch":13,"track":10},{"t":1850.238,"dur":0.449,"note":57,"inst":"organ_v0_additive_1","vel":1.0,"bend":0.0,"ch":9,"track":10},{"t":1850.537,"dur":0.299,"note":45,"inst":"organ_v0_additive_1","vel":1.0,"bend":0.0,"ch":13,"track":10},{"t":1850.686,"dur":0.224,"note":50,"inst":"harpsichord_v0_additive_2","vel":1.0,"bend":0.0,"ch":2,"track":10},{"t":1850.836,"dur":0.299,"note":50,"inst":"harpsichord_v0_additive_2","vel":1.0,"bend":0.0,"ch":2,"track":10},{"t":1850.911,"dur":0.224,"note":57,"inst":"organ_v0_additive_1","vel":1.0,"bend":0.0,"ch":9,"track":10},{"t":1851.135,"dur":0.299,"note":38,"inst":"harpsichord_v0_additive_2","vel":1.0,"bend":0.0,"ch":6,"track":10},{"t":1851.135,"dur":0.449,"note":50,"inst":"harpsichord_v0_additive_2","vel":1.0,"bend":0.0,"ch":2,"track":10},{"t":1851.435,"dur":0.299,"note":45,"inst":"organ_v0_additive_1","vel":1.0,"bend":0.0,"ch":13,"track":10},{"t":1851.584,"dur":0.224,"note":62,"inst":"harpsichord_v0_additive_2","vel":1.0,"bend":0.0,"ch":14,"track":10},{"t":1851.734,"dur":0.299,"note":38,"inst":"harpsichord_v0_additive_2","vel":1.0,"bend":0.0,"ch":6,"track":10},{"t":1851.809,"dur":0.224,"note":50,"inst":"harpsichord_v0_additive_2","vel":1.0,"bend":0.0,"ch":2,"track":10},{"t":1852.033,"dur":0.224,"note":38,"inst":"harpsichord_v0_additive_2","vel":1.0,"bend":0.0,"ch":6,"track":10},{"t":1852.033,"dur":0.449,"note":57,"inst":"organ_v0_additive_1","vel":1.0,"bend":0.0,"ch":9,"track":10},{"t":1852.258,"dur":0.224,"note":45,"inst":"organ_v0_additive_1","vel":1.0,"bend":0.0,"ch":13,"track":10},{"t":1852.482,"dur":0.224,"note":38,"inst":"harpsichord_v0_additive_2","vel":1.0,"bend":0.0,"ch":6,"track":10},{"t":1852.482,"dur":0.224,"note":57,"inst":"organ_v0_additive_1","vel":1.0,"bend":0.0,"ch":9,"track":10},{"t":1852.707,"dur":0.224,"note":45,"inst":"organ_v0_additive_1","vel":1.0,"bend":0.0,"ch":13,"track":10},{"t":1852.707,"dur":0.224,"note":57,"inst":"organ_v0_additive_1","vel":1.0,"bend":0.0,"ch":9,"track":10},{"t":1852.931,"dur":0.224,"note":38,"inst":"harpsichord_v0_additive_2","vel":1.0,"bend":0.0,"ch":6,"track":10},{"t":1852.931,"dur":0.449,"note":50,"inst":"harpsichord_v0_additive_2","vel":1.0,"bend":0.0,"ch":2,"track":10},{"t":1853.156,"dur":0.224,"note":45,"inst":"organ_v0_additive_1","vel":1.0,"bend":0.0,"ch":13,"track":10},{"t":1853.38,"dur":0.224,"note":38,"inst":"harpsichord_v0_additive_2","vel":1.0,"bend":0.0,"ch":6,"track":10},{"t":1853.38,"dur":0.224,"note":62,"inst":"harpsichord_v0_additive_2","vel":1.0,"bend":0.0,"ch":14,"track":10},{"t":1853.605,"dur":0.224,"note":45,"inst":"organ_v0_additive_1","vel":1.0,"bend":0.0,"ch":13,"track":10},{"t":1853.605,"dur":0.224,"note":50,"inst":"harpsichord_v0_additive_2","vel":1.0,"bend":0.0,"ch":2,"track":10},{"t":1853.829,"dur":0.224,"note":38,"inst":"harpsichord_v0_additive_2","vel":1.0,"bend":0.0,"ch":6,"track":10},{"t":1853.829,"dur":0.449,"note":50,"inst":"harpsichord_v0_additive_2","vel":1.0,"bend":0.0,"ch":2,"track":10},{"t":1854.053,"dur":0.224,"note":38,"inst":"harpsichord_v0_additive_2","vel":1.0,"bend":0.0,"ch":6,"track":10},{"t":1854.278,"dur":0.224,"note":45,"inst":"organ_v0_additive_1","vel":1.0,"bend":0.0,"ch":13,"track":10},{"t":1854.278,"dur":0.224,"note":57,"inst":"organ_v0_additive_1","vel":1.0,"bend":0.0,"ch":9,"track":10},{"t":1854.502,"dur":0.224,"note":38,"inst":"harpsichord_v0_additive_2","vel":1.0,"bend":0.0,"ch":6,"track":10},{"t":1854.502,"dur":0.224,"note":50,"inst":"harpsichord_v0_additive_2","vel":1.0,"bend":0.0,"ch":2,"track":10},{"t":1854.727,"dur":0.224,"note":26,"inst":"harpsichord_v0_additive_2","vel":1.0,"bend":0.0,"ch":10,"track":10},{"t":1854.727,"dur":0.898,"note":57,"inst":"organ_v0_additive_1","vel":1.0,"bend":0.0,"ch":9,"track":10},{"t":1854.951,"dur":0.224,"note":38,"inst":"harpsichord_v0_additive_2","vel":1.0,"bend":0.0,"ch":6,"track":10},{"t":1855.176,"dur":0.224,"note":45,"inst":"organ_v0_additive_1","vel":1.0,"bend":0.0,"ch":13,"track":10},{"t":1855.4,"dur":0.224,"note":38,"inst":"harpsichord_v0_additive_2","vel":1.0,"bend":0.0,"ch":6,"track":10},{"t":1855.625,"dur":0.224,"note":33,"inst":"organ_v0_additive_1","vel":1.0,"bend":0.0,"ch":1,"track":10},{"t":1855.625,"dur":0.449,"note":50,"inst":"harpsichord_v0_additive_2","vel":1.0,"bend":0.0,"ch":2,"track":10},{"t":1855.849,"dur":0.224,"note":38,"inst":"harpsichord_v0_additive_2","vel":1.0,"bend":0.0,"ch":6,"track":10},{"t":1856.074,"dur":0.224,"note":38,"inst":"harpsichord_v0_additive_2","vel":1.0,"bend":0.0,"ch":6,"track":10},{"t":1856.074,"dur":0.224,"note":50,"inst":"harpsichord_v0_additive_2","vel":1.0,"bend":0.0,"ch":2,"track":10},{"t":1856.298,"dur":0.224,"note":38,"inst":"harpsichord_v0_additive_2","vel":1.0,"bend":0.0,"ch":6,"track":10},{"t":1856.298,"dur":0.224,"note":50,"inst":"harpsichord_v0_additive_2","vel":1.0,"bend":0.0,"ch":2,"track":10},{"t":1856.523,"dur":0.224,"note":33,"inst":"organ_v0_additive_1","vel":1.0,"bend":0.0,"ch":1,"track":10},{"t":1856.523,"dur":0.449,"note":50,"inst":"harpsichord_v0_additive_2","vel":1.0,"bend":0.0,"ch":2,"track":10},{"t":1856.747,"dur":0.224,"note":26,"inst":"harpsichord_v0_additive_2","vel":1.0,"bend":0.0,"ch":10,"track":10},{"t":1856.972,"dur":0.224,"note":38,"inst":"harpsichord_v0_additive_2","vel":1.0,"bend":0.0,"ch":6,"track":10},{"t":1856.972,"dur":0.224,"note":57,"inst":"organ_v0_additive_1","vel":1.0,"bend":0.0,"ch":9,"track":10},{"t":1857.196,"dur":0.224,"note":26,"inst":"harpsichord_v0_additive_2","vel":1.0,"bend":0.0,"ch":10,"track":10},{"t":1857.196,"dur":0.224,"note":50,"inst":"harpsichord_v0_additive_2","vel":1.0,"bend":0.0,"ch":2,"track":10},{"t":1857.42,"dur":0.224,"note":33,"inst":"organ_v0_additive_1","vel":1.0,"bend":0.0,"ch":1,"track":10},{"t":1857.42,"dur":0.449,"note":57,"inst":"organ_v0_additive_1","vel":1.0,"bend":0.0,"ch":9,"track":10},{"t":1857.645,"dur":0.224,"note":26,"inst":"harpsichord_v0_additive_2","vel":1.0,"bend":0.0,"ch":10,"track":10},{"t":1857.869,"dur":0.224,"note":38,"inst":"harpsichord_v0_additive_2","vel":1.0,"bend":0.0,"ch":6,"track":10},{"t":1857.869,"dur":0.224,"note":57,"inst":"organ_v0_additive_1","vel":1.0,"bend":0.0,"ch":9,"track":10},{"t":1858.094,"dur":0.224,"note":26,"inst":"harpsichord_v0_additive_2","vel":1.0,"bend":0.0,"ch":10,"track":10},{"t":1858.094,"dur":0.224,"note":57,"inst":"organ_v0_additive_1","vel":1.0,"bend":0.0,"ch":9,"track":10},{"t":1858.318,"dur":0.224,"note":26,"inst":"harpsichord_v0_additive_2","vel":1.0,"bend":0.0,"ch":10,"track":10},{"t":1858.318,"dur":0.898,"note":57,"inst":"organ_v0_additive_1","vel":1.0,"bend":0.0,"ch":9,"track":10},{"t":1858.543,"dur":0.224,"note":26,"inst":"harpsichord_v0_additive_2","vel":1.0,"bend":0.0,"ch":10,"track":10},{"t":1858.767,"dur":0.224,"note":38,"inst":"harpsichord_v0_additive_2","vel":1.0,"bend":0.0,"ch":6,"track":10},{"t":1858.992,"dur":0.224,"note":26,"inst":"harpsichord_v0_additive_2","vel":1.0,"bend":0.0,"ch":10,"track":10},{"t":1859.216,"dur":0.224,"note":38,"inst":"harpsichord_v0_additive_2","vel":1.0,"bend":0.0,"ch":6,"track":10},{"t":1859.216,"dur":0.449,"note":57,"inst":"organ_v0_additive_1","vel":1.0,"bend":0.0,"ch":9,"track":10},{"t":1859.441,"dur":0.224,"note":45,"inst":"organ_v0_additive_1","vel":1.0,"bend":0.0,"ch":13,"track":10},{"t":1859.665,"dur":0.224,"note":38,"inst":"harpsichord_v0_additive_2","vel":1.0,"bend":0.0,"ch":6,"track":10},{"t":1859.665,"dur":0.224,"note":57,"inst":"organ_v0_additive_1","vel":1.0,"bend":0.0,"ch":9,"track":10},{"t":1859.89,"dur":0.224,"note":45,"inst":"organ_v0_additive_1","vel":1.0,"bend":0.0,"ch":13,"track":10},{"t":1859.89,"dur":0.224,"note":57,"inst":"organ_v0_additive_1","vel":1.0,"bend":0.0,"ch":9,"track":10},{"t":1860.114,"dur":0.224,"note":38,"inst":"harpsichord_v0_additive_2","vel":1.0,"bend":0.0,"ch":6,"track":10},{"t":1860.114,"dur":0.449,"note":50,"inst":"harpsichord_v0_additive_2","vel":1.0,"bend":0.0,"ch":2,"track":10},{"t":1860.339,"dur":0.224,"note":45,"inst":"organ_v0_additive_1","vel":1.0,"bend":0.0,"ch":13,"track":10},{"t":1860.563,"dur":0.224,"note":38,"inst":"harpsichord_v0_additive_2","vel":1.0,"bend":0.0,"ch":6,"track":10},{"t":1860.563,"dur":0.224,"note":62,"inst":"harpsichord_v0_additive_2","vel":1.0,"bend":0.0,"ch":14,"track":10},{"t":1860.787,"dur":0.224,"note":45,"inst":"organ_v0_additive_1","vel":1.0,"bend":0.0,"ch":13,"track":10},{"t":1860.787,"dur":0.224,"note":50,"inst":"harpsichord_v0_additive_2","vel":1.0,"bend":0.0,"ch":2,"track":10},{"t":1861.012,"dur":0.224,"note":38,"inst":"harpsichord_v0_additive_2","vel":1.0,"bend":0.0,"ch":6,"track":10},{"t":1861.012,"dur":0.449,"note":62,"inst":"harpsichord_v0_additive_2","vel":1.0,"bend":0.0,"ch":14,"track":10},{"t":1861.236,"dur":0.224,"note":45,"inst":"organ_v0_additive_1","vel":1.0,"bend":0.0,"ch":13,"track":10},{"t":1861.461,"dur":0.224,"note":45,"inst":"organ_v0_additive_1","vel":1.0,"bend":0.0,"ch":13,"track":10},{"t":1861.461,"dur":0.224,"note":69,"inst":"organ_v0_additive_1","vel":1.0,"bend":0.0,"ch":5,"track":10},{"t":1861.685,"dur":0.224,"note":45,"inst":"organ_v0_additive_1","vel":1.0,"bend":0.0,"ch":13,"track":10},{"t":1861.685,"dur":0.224,"note":62,"inst":"harpsichord_v0_additive_2","vel":1.0,"bend":0.0,"ch":14,"track":10},{"t":1861.91,"dur":0.224,"note":26,"inst":"harpsichord_v0_additive_2","vel":1.0,"bend":0.0,"ch":10,"track":10},{"t":1861.91,"dur":0.898,"note":62,"inst":"harpsichord_v0_additive_2","vel":1.0,"bend":0.0,"ch":14,"track":10},{"t":1862.134,"dur":0.224,"note":45,"inst":"organ_v0_additive_1","vel":1.0,"bend":0.0,"ch":13,"track":10},{"t":1862.359,"dur":0.224,"note":38,"inst":"harpsichord_v0_additive_2","vel":1.0,"bend":0.0,"ch":6,"track":10},{"t":1862.583,"dur":0.224,"note":45,"inst":"organ_v0_additive_1","vel":1.0,"bend":0.0,"ch":13,"track":10},{"t":1862.808,"dur":0.224,"note":38,"inst":"harpsichord_v0_additive_2","vel":1.0,"bend":0.0,"ch":6,"track":10},{"t":1862.808,"dur":0.449,"note":62,"inst":"harpsichord_v0_additive_2","vel":1.0,"bend":0.0,"ch":14,"track":10},{"t":1863.032,"dur":0.224,"note":45,"inst":"organ_v0_additive_1","vel":1.0,"bend":0.0,"ch":13,"track":10},{"t":1863.257,"dur":0.224,"note":50,"inst":"harpsichord_v0_additive_2","vel":1.0,"bend":0.0,"ch":2,"track":10},{"t":1863.257,"dur":0.224,"note":62,"inst":"harpsichord_v0_additive_2","vel":1.0,"bend":0.0,"ch":14,"track":10},{"t":1863.481,"dur":0.224,"note":45,"inst":"organ_v0_additive_1","vel":1.0,"bend":0.0,"ch":13,"track":10},{"t":1863.481,"dur":0.224,"note":62,"inst":"harpsichord_v0_additive_2","vel":1.0,"bend":0.0,"ch":14,"track":10},{"t":1863.706,"dur":0.224,"note":45,"inst":"organ_v0_additive_1","vel":1.0,"bend":0.0,"ch":13,"track":10},{"t":1863.706,"dur":0.449,"note":57,"inst":"organ_v0_additive_1","vel":1.0,"bend":0.0,"ch":9,"track":10},{"t":1863.706,"dur":0.449,"note":50,"inst":"harpsichord_v0_additive_2","vel":1.0,"bend":0.0,"ch":2,"track":10},{"t":1863.93,"dur":0.224,"note":50,"inst":"harpsichord_v0_additive_2","vel":1.0,"bend":0.0,"ch":2,"track":10},{"t":1864.154,"dur":0.224,"note":50,"inst":"harpsichord_v0_additive_2","vel":1.0,"bend":0.0,"ch":2,"track":10},{"t":1864.154,"dur":0.224,"note":57,"inst":"organ_v0_additive_1","vel":1.0,"bend":0.0,"ch":9,"track":10},{"t":1864.379,"dur":0.224,"note":50,"inst":"harpsichord_v0_additive_2","vel":1.0,"bend":0.0,"ch":2,"track":10},{"t":1864.379,"dur":0.224,"note":57,"inst":"organ_v0_additive_1","vel":1.0,"bend":0.0,"ch":9,"track":10},{"t":1864.603,"dur":0.224,"note":26,"inst":"harpsichord_v0_additive_2","vel":1.0,"bend":0.0,"ch":10,"track":10},{"t":1864.603,"dur":0.898,"note":50,"inst":"harpsichord_v0_additive_2","vel":1.0,"bend":0.0,"ch":2,"track":10},{"t":1864.828,"dur":0.224,"note":38,"inst":"harpsichord_v0_additive_2","vel":1.0,"bend":0.0,"ch":6,"track":10},{"t":1865.052,"dur":0.224,"note":45,"inst":"organ_v0_additive_1","vel":1.0,"bend":0.0,"ch":13,"track":10},{"t":1865.277,"dur":0.224,"note":38,"inst":"harpsichord_v0_additive_2","vel":1.0,"bend":0.0,"ch":6,"track":10},{"t":1865.501,"dur":0.224,"note":45,"inst":"organ_v0_additive_1","vel":1.0,"bend":0.0,"ch":13,"track":10},{"t":1865.726,"dur":0.224,"note":38,"inst":"harpsichord_v0_additive_2","vel":1.0,"bend":0.0,"ch":6,"track":10},{"t":1865.95,"dur":0.224,"note":45,"inst":"organ_v0_additive_1","vel":1.0,"bend":0.0,"ch":13,"track":10},{"t":1866.175,"dur":0.224,"note":45,"inst":"organ_v0_additive_1","vel":1.0,"bend":0.0,"ch":13,"track":10},{"t":1866.399,"dur":0.224,"note":38,"inst":"harpsichord_v0_additive_2","vel":1.0,"bend":0.0,"ch":6,"track":10},{"t":1866.624,"dur":0.224,"note":38,"inst":"harpsichord_v0_additive_2","vel":1.0,"bend":0.0,"ch":6,"track":10},{"t":1866.698,"dur":0.299,"note":57,"inst":"organ_v0_additive_1","vel":1.0,"bend":0.0,"ch":9,"track":10},{"t":1866.848,"dur":0.224,"note":45,"inst":"organ_v0_additive_1","vel":1.0,"bend":0.0,"ch":13,"track":10},{"t":1866.998,"dur":0.299,"note":69,"inst":"organ_v0_additive_1","vel":1.0,"bend":0.0,"ch":5,"track":10},{"t":1867.073,"dur":0.224,"note":38,"inst":"harpsichord_v0_additive_2","vel":1.0,"bend":0.0,"ch":6,"track":10},{"t":1867.297,"dur":0.224,"note":38,"inst":"harpsichord_v0_additive_2","vel":1.0,"bend":0.0,"ch":6,"track":10},{"t":1867.521,"dur":0.224,"note":38,"inst":"harpsichord_v0_additive_2","vel":1.0,"bend":0.0,"ch":6,"track":10},{"t":1867.596,"dur":0.299,"note":50,"inst":"harpsichord_v0_additive_2","vel":1.0,"bend":0.0,"ch":2,"track":10},{"t":1867.746,"dur":0.224,"note":45,"inst":"organ_v0_additive_1","vel":1.0,"bend":0.0,"ch":13,"track":10},{"t":1867.896,"dur":0.299,"note":62,"inst":"harpsichord_v0_additive_2","vel":1.0,"bend":0.0,"ch":14,"track":10},{"t":1867.97,"dur":0.224,"note":38,"inst":"harpsichord_v0_additive_2","vel":1.0,"bend":0.0,"ch":6,"track":10},{"t":1868.195,"dur":0.224,"note":38,"inst":"harpsichord_v0_additive_2","vel":1.0,"bend":0.0,"ch":6,"track":10},{"t":1868.419,"dur":0.224,"note":45,"inst":"organ_v0_additive_1","vel":1.0,"bend":0.0,"ch":13,"track":10},{"t":1868.494,"dur":0.299,"note":50,"inst":"harpsichord_v0_additive_2","vel":1.0,"bend":0.0,"ch":2,"track":10},{"t":1868.644,"dur":0.224,"note":38,"inst":"harpsichord_v0_additive_2","vel":1.0,"bend":0.0,"ch":6,"track":10},{"t":1868.793,"dur":0.299,"note":62,"inst":"harpsichord_v0_additive_2","vel":1.0,"bend":0.0,"ch":14,"track":10},{"t":1868.868,"dur":0.224,"note":45,"inst":"organ_v0_additive_1","vel":1.0,"bend":0.0,"ch":13,"track":10},{"t":1869.093,"dur":0.224,"note":26,"inst":"harpsichord_v0_additive_2","vel":1.0,"bend":0.0,"ch":10,"track":10},{"t":1869.317,"dur":0.224,"note":45,"inst":"organ_v0_additive_1","vel":1.0,"bend":0.0,"ch":13,"track":10},{"t":1869.392,"dur":0.299,"note":57,"inst":"organ_v0_additive_1","vel":1.0,"bend":0.0,"ch":9,"track":10},{"t":1869.542,"dur":0.224,"note":38,"inst":"harpsichord_v0_additive_2","vel":1.0,"bend":0.0,"ch":6,"track":10},{"t":1869.691,"dur":0.299,"note":69,"inst":"organ_v0_additive_1","vel":1.0,"bend":0.0,"ch":5,"track":10},{"t":1869.766,"dur":0.224,"note":45,"inst":"organ_v0_additive_1","vel":1.0,"bend":0.0,"ch":13,"track":10},{"t":1869.991,"dur":0.224,"note":33,"inst":"organ_v0_additive_1","vel":1.0,"bend":0.0,"ch":1,"track":10},{"t":1870.215,"dur":0.224,"note":38,"inst":"harpsichord_v0_additive_2","vel":1.0,"bend":0.0,"ch":6,"track":10},{"t":1870.29,"dur":0.299,"note":50,"inst":"harpsichord_v0_additive_2","vel":1.0,"bend":0.0,"ch":2,"track":10},{"t":1870.44,"dur":0.224,"note":38,"inst":"harpsichord_v0_additive_2","vel":1.0,"bend":0.0,"ch":6,"track":10},{"t":1870.589,"dur":0.299,"note":62,"inst":"harpsichord_v0_additive_2","vel":1.0,"bend":0.0,"ch":14,"track":10},{"t":1870.664,"dur":0.224,"note":38,"inst":"harpsichord_v0_additive_2","vel":1.0,"bend":0.0,"ch":6,"track":10},{"t":1870.888,"dur":0.224,"note":33,"inst":"organ_v0_additive_1","vel":1.0,"bend":0.0,"ch":1,"track":10},{"t":1871.113,"dur":0.224,"note":38,"inst":"harpsichord_v0_additive_2","vel":1.0,"bend":0.0,"ch":6,"track":10},{"t":1871.188,"dur":0.299,"note":50,"inst":"harpsichord_v0_additive_2","vel":1.0,"bend":0.0,"ch":2,"track":10},{"t":1871.337,"dur":0.224,"note":26,"inst":"harpsichord_v0_additive_2","vel":1.0,"bend":0.0,"ch":10,"track":10},{"t":1871.487,"dur":0.299,"note":62,"inst":"harpsichord_v0_additive_2","vel":1.0,"bend":0.0,"ch":14,"track":10},{"t":1871.562,"dur":0.224,"note":38,"inst":"harpsichord_v0_additive_2","vel":1.0,"bend":0.0,"ch":6,"track":10},{"t":1871.786,"dur":0.224,"note":33,"inst":"organ_v0_additive_1","vel":1.0,"bend":0.0,"ch":1,"track":10},{"t":1872.011,"dur":0.224,"note":38,"inst":"harpsichord_v0_additive_2","vel":1.0,"bend":0.0,"ch":6,"track":10},{"t":1872.086,"dur":0.299,"note":57,"inst":"organ_v0_additive_1","vel":1.0,"bend":0.0,"ch":9,"track":10},{"t":1872.235,"dur":0.224,"note":26,"inst":"harpsichord_v0_additive_2","vel":1.0,"bend":0.0,"ch":10,"track":10},{"t":1872.385,"dur":0.299,"note":69,"inst":"organ_v0_additive_1","vel":1.0,"bend":0.0,"ch":5,"track":10},{"t":1872.46,"dur":0.224,"note":38,"inst":"harpsichord_v0_additive_2","vel":1.0,"bend":0.0,"ch":6,"track":10},{"t":1872.684,"dur":0.224,"note":26,"inst":"harpsichord_v0_additive_2","vel":1.0,"bend":0.0,"ch":10,"track":10},{"t":1872.909,"dur":0.224,"note":38,"inst":"harpsichord_v0_additive_2","vel":1.0,"bend":0.0,"ch":6,"track":10},{"t":1872.984,"dur":0.299,"note":57,"inst":"organ_v0_additive_1","vel":1.0,"bend":0.0,"ch":9,"track":10},{"t":1873.133,"dur":0.224,"note":26,"inst":"harpsichord_v0_additive_2","vel":1.0,"bend":0.0,"ch":10,"track":10},{"t":1873.283,"dur":0.299,"note":69,"inst":"organ_v0_additive_1","vel":1.0,"bend":0.0,"ch":5,"track":10},{"t":1873.358,"dur":0.224,"note":38,"inst":"harpsichord_v0_additive_2","vel":1.0,"bend":0.0,"ch":6,"track":10},{"t":1873.582,"dur":0.224,"note":38,"inst":"harpsichord_v0_additive_2","vel":1.0,"bend":0.0,"ch":6,"track":10},{"t":1873.807,"dur":0.224,"note":38,"inst":"harpsichord_v0_additive_2","vel":1.0,"bend":0.0,"ch":6,"track":10},{"t":1873.881,"dur":0.299,"note":57,"inst":"organ_v0_additive_1","vel":1.0,"bend":0.0,"ch":9,"track":10},{"t":1874.031,"dur":0.224,"note":45,"inst":"organ_v0_additive_1","vel":1.0,"bend":0.0,"ch":13,"track":10},{"t":1874.181,"dur":0.299,"note":69,"inst":"organ_v0_additive_1","vel":1.0,"bend":0.0,"ch":5,"track":10},{"t":1874.255,"dur":0.224,"note":38,"inst":"harpsichord_v0_additive_2","vel":1.0,"bend":0.0,"ch":6,"track":10},{"t":1874.48,"dur":0.224,"note":38,"inst":"harpsichord_v0_additive_2","vel":1.0,"bend":0.0,"ch":6,"track":10},{"t":1874.704,"dur":0.224,"note":38,"inst":"harpsichord_v0_additive_2","vel":1.0,"bend":0.0,"ch":6,"track":10},{"t":1874.779,"dur":0.299,"note":50,"inst":"harpsichord_v0_additive_2","vel":1.0,"bend":0.0,"ch":2,"track":10},{"t":1874.929,"dur":0.224,"note":45,"inst":"organ_v0_additive_1","vel":1.0,"bend":0.0,"ch":13,"track":10},{"t":1875.079,"dur":0.299,"note":62,"inst":"harpsichord_v0_additive_2","vel":1.0,"bend":0.0,"ch":14,"track":10},{"t":1875.153,"dur":0.224,"note":38,"inst":"harpsichord_v0_additive_2","vel":1.0,"bend":0.0,"ch":6,"track":10},{"t":1875.378,"dur":0.224,"note":38,"inst":"harpsichord_v0_additive_2","vel":1.0,"bend":0.0,"ch":6,"track":10},{"t":1875.602,"dur":0.224,"note":45,"inst":"organ_v0_additive_1","vel":1.0,"bend":0.0,"ch":13,"track":10},{"t":1875.677,"dur":0.299,"note":62,"inst":"harpsichord_v0_additive_2","vel":1.0,"bend":0.0,"ch":14,"track":10},{"t":1875.827,"dur":0.224,"note":45,"inst":"organ_v0_additive_1","vel":1.0,"bend":0.0,"ch":13,"track":10},{"t":1875.976,"dur":0.299,"note":74,"inst":"harpsichord_v0_additive_2","vel":1.0,"bend":0.0,"ch":10,"track":10},{"t":1876.051,"dur":0.224,"note":45,"inst":"organ_v0_additive_1","vel":1.0,"bend":0.0,"ch":13,"track":10},{"t":1876.276,"dur":0.224,"note":26,"inst":"harpsichord_v0_additive_2","vel":1.0,"bend":0.0,"ch":10,"track":10},{"t":1876.5,"dur":0.224,"note":38,"inst":"harpsichord_v0_additive_2","vel":1.0,"bend":0.0,"ch":6,"track":10},{"t":1876.575,"dur":0.299,"note":62,"inst":"harpsichord_v0_additive_2","vel":1.0,"bend":0.0,"ch":14,"track":10},{"t":1876.725,"dur":0.224,"note":45,"inst":"organ_v0_additive_1","vel":1.0,"bend":0.0,"ch":13,"track":10},{"t":1876.874,"dur":0.299,"note":74,"inst":"harpsichord_v0_additive_2","vel":1.0,"bend":0.0,"ch":10,"track":10},{"t":1876.949,"dur":0.224,"note":38,"inst":"harpsichord_v0_additive_2","vel":1.0,"bend":0.0,"ch":6,"track":10},{"t":1877.174,"dur":0.224,"note":38,"inst":"harpsichord_v0_additive_2","vel":1.0,"bend":0.0,"ch":6,"track":10},{"t":1877.398,"dur":0.224,"note":50,"inst":"harpsichord_v0_additive_2","vel":1.0,"bend":0.0,"ch":2,"track":10},{"t":1877.473,"dur":0.299,"note":62,"inst":"harpsichord_v0_additive_2","vel":1.0,"bend":0.0,"ch":14,"track":10},{"t":1877.622,"dur":0.224,"note":45,"inst":"organ_v0_additive_1","vel":1.0,"bend":0.0,"ch":13,"track":10},{"t":1877.772,"dur":0.299,"note":74,"inst":"harpsichord_v0_additive_2","vel":1.0,"bend":0.0,"ch":10,"track":10},{"t":1877.847,"dur":0.224,"note":50,"inst":"harpsichord_v0_additive_2","vel":1.0,"bend":0.0,"ch":2,"track":10},{"t":1878.071,"dur":0.224,"note":45,"inst":"organ_v0_additive_1","vel":1.0,"bend":0.0,"ch":13,"track":10},{"t":1878.296,"dur":0.224,"note":50,"inst":"harpsichord_v0_additive_2","vel":1.0,"bend":0.0,"ch":2,"track":10},{"t":1878.371,"dur":0.299,"note":57,"inst":"organ_v0_additive_1","vel":1.0,"bend":0.0,"ch":9,"track":10},{"t":1878.52,"dur":0.224,"note":50,"inst":"harpsichord_v0_additive_2","vel":1.0,"bend":0.0,"ch":2,"track":10},{"t":1878.67,"dur":0.299,"note":69,"inst":"organ_v0_additive_1","vel":1.0,"bend":0.0,"ch":5,"track":10},{"t":1878.745,"dur":0.224,"note":50,"inst":"harpsichord_v0_additive_2","vel":1.0,"bend":0.0,"ch":2,"track":10},{"t":1878.969,"dur":0.224,"note":26,"inst":"harpsichord_v0_additive_2","vel":1.0,"bend":0.0,"ch":10,"track":10},{"t":1879.194,"dur":0.224,"note":38,"inst":"harpsichord_v0_additive_2","vel":1.0,"bend":0.0,"ch":6,"track":10},{"t":1879.269,"dur":0.299,"note":50,"inst":"harpsichord_v0_additive_2","vel":1.0,"bend":0.0,"ch":2,"track":10},{"t":1879.418,"dur":0.224,"note":45,"inst":"organ_v0_additive_1","vel":1.0,"bend":0.0,"ch":13,"track":10},{"t":1879.568,"dur":0.299,"note":62,"inst":"harpsichord_v0_additive_2","vel":1.0,"bend":0.0,"ch":14,"track":10},{"t":1879.643,"dur":0.224,"note":38,"inst":"harpsichord_v0_additive_2","vel":1.0,"bend":0.0,"ch":6,"track":10},{"t":1879.867,"dur":0.224,"note":45,"inst":"organ_v0_additive_1","vel":1.0,"bend":0.0,"ch":13,"track":10},{"t":1880.092,"dur":0.224,"note":38,"inst":"harpsichord_v0_additive_2","vel":1.0,"bend":0.0,"ch":6,"track":10},{"t":1880.316,"dur":0.224,"note":45,"inst":"organ_v0_additive_1","vel":1.0,"bend":0.0,"ch":13,"track":10},{"t":1880.541,"dur":0.224,"note":38,"inst":"harpsichord_v0_additive_2","vel":1.0,"bend":0.0,"ch":6,"track":10},{"t":1880.887,"dur":0.505,"note":24,"inst":"piano_v0_additive_0","vel":1.0,"bend":0.0,"ch":8,"track":11},{"t":1880.887,"dur":0.252,"note":68,"inst":"piano_v0_additive_0","vel":1.0,"bend":0.0,"ch":4,"track":11},{"t":1881.139,"dur":0.252,"note":68,"inst":"piano_v0_additive_0","vel":1.0,"bend":0.0,"ch":4,"track":11},{"t":1881.392,"dur":0.505,"note":39,"inst":"celesta_v0_additive_3","vel":1.0,"bend":0.0,"ch":7,"track":11},{"t":1881.392,"dur":0.252,"note":65,"inst":"organ_v0_additive_1","vel":1.0,"bend":0.0,"ch":1,"track":11},{"t":1881.644,"dur":0.252,"note":63,"inst":"celesta_v0_additive_3","vel":1.0,"bend":0.0,"ch":15,"track":11},{"t":1881.896,"dur":0.505,"note":24,"inst":"piano_v0_additive_0","vel":1.0,"bend":0.0,"ch":8,"track":11},{"t":1881.896,"dur":0.252,"note":63,"inst":"celesta_v0_additive_3","vel":1.0,"bend":0.0,"ch":15,"track":11},{"t":1882.149,"dur":0.084,"note":63,"inst":"celesta_v0_additive_3","vel":1.0,"bend":0.0,"ch":15,"track":11},{"t":1882.233,"dur":0.084,"note":65,"inst":"organ_v0_additive_1","vel":1.0,"bend":0.0,"ch":1,"track":11},{"t":1882.317,"dur":0.084,"note":63,"inst":"celesta_v0_additive_3","vel":1.0,"bend":0.0,"ch":15,"track":11},{"t":1882.401,"dur":0.505,"note":44,"inst":"piano_v0_additive_0","vel":1.0,"bend":0.0,"ch":12,"track":11},{"t":1882.401,"dur":0.252,"note":63,"inst":"celesta_v0_additive_3","vel":1.0,"bend":0.0,"ch":15,"track":11},{"t":1882.653,"dur":0.252,"note":65,"inst":"organ_v0_additive_1","vel":1.0,"bend":0.0,"ch":1,"track":11},{"t":1882.905,"dur":0.505,"note":43,"inst":"celesta_v0_additive_3","vel":1.0,"bend":0.0,"ch":11,"track":11},{"t":1882.905,"dur":0.252,"note":63,"inst":"celesta_v0_additive_3","vel":1.0,"bend":0.0,"ch":15,"track":11},{"t":1883.158,"dur":0.252,"note":60,"inst":"piano_v0_additive_0","vel":1.0,"bend":0.0,"ch":12,"track":11},{"t":1883.41,"dur":0.505,"note":41,"inst":"organ_v0_additive_1","vel":1.0,"bend":0.0,"ch":9,"track":11},{"t":1883.41,"dur":0.252,"note":48,"inst":"piano_v0_additive_0","vel":1.0,"bend":0.0,"ch":0,"track":11},{"t":1883.662,"dur":0.252,"note":72,"inst":"piano_v0_additive_0","vel":1.0,"bend":0.0,"ch":8,"track":11},{"t":1883.915,"dur":0.505,"note":24,"inst":"piano_v0_additive_0","vel":1.0,"bend":0.0,"ch":8,"track":11},{"t":1883.915,"dur":0.252,"note":60,"inst":"piano_v0_additive_0","vel":1.0,"bend":0.0,"ch":12,"track":11},{"t":1884.167,"dur":0.084,"note":60,"inst":"piano_v0_additive_0","vel":1.0,"bend":0.0,"ch":12,"track":11},{"t":1884.251,"dur":0.084,"note":63,"inst":"celesta_v0_additive_3","vel":1.0,"bend":0.0,"ch":15,"track":11},{"t":1884.335,"dur":0.084,"note":60,"inst":"piano_v0_additive_0","vel":1.0,"bend":0.0,"ch":12,"track":11},{"t":1884.419,"dur":0.505,"note":41,"inst":"organ_v0_additive_1","vel":1.0,"bend":0.0,"ch":9,"track":11},{"t":1884.419,"dur":0.252,"note":48,"inst":"piano_v0_additive_0","vel":1.0,"bend":0.0,"ch":0,"track":11},{"t":1884.671,"dur":0.252,"note":60,"inst":"piano_v0_additive_0","vel":1.0,"bend":0.0,"ch":12,"track":11},{"t":1884.924,"dur":0.505,"note":24,"inst":"piano_v0_additive_0","vel":1.0,"bend":0.0,"ch":8,"track":11},{"t":1884.924,"dur":0.252,"note":68,"inst":"piano_v0_additive_0","vel":1.0,"bend":0.0,"ch":4,"track":11},{"t":1885.176,"dur":0.084,"note":56,"inst":"piano_v0_additive_0","vel":1.0,"bend":0.0,"ch":8,"track":11},{"t":1885.26,"dur":0.084,"note":48,"inst":"piano_v0_additive_0","vel":1.0,"bend":0.0,"ch":0,"track":11},{"t":1885.344,"dur":0.084,"note":56,"inst":"piano_v0_additive_0","vel":1.0,"bend":0.0,"ch":8,"track":11},{"t":1885.428,"dur":0.505,"note":39,"inst":"celesta_v0_additive_3","vel":1.0,"bend":0.0,"ch":7,"track":11},{"t":1885.428,"dur":0.252,"note":56,"inst":"piano_v0_additive_0","vel":1.0,"bend":0.0,"ch":8,"track":11},{"t":1885.681,"dur":0.252,"note":68,"inst":"piano_v0_additive_0","vel":1.0,"bend":0.0,"ch":4,"track":11},{"t":1885.933,"dur":0.505,"note":39,"inst":"celesta_v0_additive_3","vel":1.0,"bend":0.0,"ch":7,"track":11},{"t":1885.933,"dur":0.252,"note":68,"inst":"piano_v0_additive_0","vel":1.0,"bend":0.0,"ch":4,"track":11},{"t":1886.185,"dur":0.084,"note":68,"inst":"piano_v0_additive_0","vel":1.0,"bend":0.0,"ch":4,"track":11},{"t":1886.269,"dur":0.084,"note":68,"inst":"piano_v0_additive_0","vel":1.0,"bend":0.0,"ch":4,"track":11},{"t":1886.353,"dur":0.084,"note":68,"inst":"piano_v0_additive_0","vel":1.0,"bend":0.0,"ch":4,"track":11},{"t":1886.437,"dur":0.505,"note":39,"inst":"celesta_v0_additive_3","vel":1.0,"bend":0.0,"ch":7,"track":11},{"t":1886.437,"dur":0.252,"note":67,"inst":"celesta_v0_additive_3","vel":1.0,"bend":0.0,"ch":3,"track":11},{"t":1886.69,"dur":0.252,"note":68,"inst":"piano_v0_additive_0","vel":1.0,"bend":0.0,"ch":4,"track":11},{"t":1886.942,"dur":0.505,"note":24,"inst":"piano_v0_additive_0","vel":1.0,"bend":0.0,"ch":8,"track":11},{"t":1886.942,"dur":0.252,"note":60,"inst":"piano_v0_additive_0","vel":1.0,"bend":0.0,"ch":12,"track":11},{"t":1887.194,"dur":0.252,"note":68,"inst":"piano_v0_additive_0","vel":1.0,"bend":0.0,"ch":4,"track":11},{"t":1887.446,"dur":0.505,"note":41,"inst":"organ_v0_additive_1","vel":1.0,"bend":0.0,"ch":9,"track":11},{"t":1887.446,"dur":0.252,"note":68,"inst":"piano_v0_additive_0","vel":1.0,"bend":0.0,"ch":4,"track":11},{"t":1887.699,"dur":0.252,"note":65,"inst":"organ_v0_additive_1","vel":1.0,"bend":0.0,"ch":1,"track":11},{"t":1887.951,"dur":0.505,"note":24,"inst":"piano_v0_additive_0","vel":1.0,"bend":0.0,"ch":8,"track":11},{"t":1887.951,"dur":0.252,"note":65,"inst":"organ_v0_additive_1","vel":1.0,"bend":0.0,"ch":1,"track":11},{"t":1888.203,"dur":0.084,"note":65,"inst":"organ_v0_additive_1","vel":1.0,"bend":0.0,"ch":1,"track":11},{"t":1888.287,"dur":0.084,"note":68,"inst":"piano_v0_additive_0","vel":1.0,"bend":0.0,"ch":4,"track":11},{"t":1888.372,"dur":0.084,"note":65,"inst":"organ_v0_additive_1","vel":1.0,"bend":0.0,"ch":1,"track":11},{"t":1888.456,"dur":0.505,"note":36,"inst":"piano_v0_additive_0","vel":1.0,"bend":0.0,"ch":4,"track":11},{"t":1888.456,"dur":0.252,"note":65,"inst":"organ_v0_additive_1","vel":1.0,"bend":0.0,"ch":1,"track":11},{"t":1888.708,"dur":0.252,"note":65,"inst":"organ_v0_additive_1","vel":1.0,"bend":0.0,"ch":1,"track":11},{"t":1888.96,"dur":0.505,"note":32,"inst":"piano_v0_additive_0","vel":1.0,"bend":0.0,"ch":0,"track":11},{"t":1888.96,"dur":0.252,"note":68,"inst":"piano_v0_additive_0","vel":1.0,"bend":0.0,"ch":4,"track":11},{"t":1889.212,"dur":0.252,"note":68,"inst":"piano_v0_additive_0","vel":1.0,"bend":0.0,"ch":4,"track":11},{"t":1889.465,"dur":0.505,"note":36,"inst":"piano_v0_additive_0","vel":1.0,"bend":0.0,"ch":4,"track":11},{"t":1889.465,"dur":0.252,"note":65,"inst":"organ_v0_additive_1","vel":1.0,"bend":0.0,"ch":1,"track":11},{"t":1889.717,"dur":0.252,"note":63,"inst":"celesta_v0_additive_3","vel":1.0,"bend":0.0,"ch":15,"track":11},{"t":1889.969,"dur":0.505,"note":24,"inst":"piano_v0_additive_0","vel":1.0,"bend":0.0,"ch":8,"track":11},{"t":1889.969,"dur":0.252,"note":63,"inst":"celesta_v0_additive_3","vel":1.0,"bend":0.0,"ch":15,"track":11},{"t":1890.222,"dur":0.084,"note":63,"inst":"celesta_v0_additive_3","vel":1.0,"bend":0.0,"ch":15,"track":11},{"t":1890.306,"dur":0.084,"note":65,"inst":"organ_v0_additive_1","vel":1.0,"bend":0.0,"ch":1,"track":11},{"t":1890.39,"dur":0.084,"note":63,"inst":"celesta_v0_additive_3","vel":1.0,"bend":0.0,"ch":15,"track":11},{"t":1890.474,"dur":0.505,"note":32,"inst":"piano_v0_additive_0","vel":1.0,"bend":0.0,"ch":0,"track":11},{"t":1890.474,"dur":0.252,"note":63,"inst":"celesta_v0_additive_3","vel":1.0,"bend":0.0,"ch":15,"track":11},{"t":1890.726,"dur":0.252,"note":65,"inst":"organ_v0_additive_1","vel":1.0,"bend":0.0,"ch":1,"track":11},{"t":1890.978,"dur":0.505,"note":34,"inst":"harpsichord_v0_additive_2","vel":1.0,"bend":0.0,"ch":2,"track":11},{"t":1890.978,"dur":0.252,"note":63,"inst":"celesta_v0_additive_3","vel":1.0,"bend":0.0,"ch":15,"track":11},{"t":1891.231,"dur":0.252,"note":60,"inst":"piano_v0_additive_0","vel":1.0,"bend":0.0,"ch":12,"track":11},{"t":1891.483,"dur":0.505,"note":24,"inst":"piano_v0_additive_0","vel":1.0,"bend":0.0,"ch":8,"track":11},{"t":1891.483,"dur":0.252,"note":48,"inst":"piano_v0_additive_0","vel":1.0,"bend":0.0,"ch":0,"track":11},{"t":1891.735,"dur":0.252,"note":72,"inst":"piano_v0_additive_0","vel":1.0,"bend":0.0,"ch":8,"track":11},{"t":1891.988,"dur":0.505,"note":24,"inst":"piano_v0_additive_0","vel":1.0,"bend":0.0,"ch":8,"track":11},{"t":1891.988,"dur":0.252,"note":60,"inst":"piano_v0_additive_0","vel":1.0,"bend":0.0,"ch":12,"track":11},{"t":1892.24,"dur":0.084,"note":60,"inst":"piano_v0_additive_0","vel":1.0,"bend":0.0,"ch":12,"track":11},{"t":1892.324,"dur":0.084,"note":63,"inst":"celesta_v0_additive_3","vel":1.0,"bend":0.0,"ch":15,"track":11},{"t":1892.408,"dur":0.084,"note":60,"inst":"piano_v0_additive_0","vel":1.0,"bend":0.0,"ch":12,"track":11},{"t":1892.492,"dur":0.505,"note":24,"inst":"piano_v0_additive_0","vel":1.0,"bend":0.0,"ch":8,"track":11},{"t":1892.492,"dur":0.252,"note":48,"inst":"piano_v0_additive_0","vel":1.0,"bend":0.0,"ch":0,"track":11},{"t":1892.744,"dur":0.252,"note":68,"inst":"piano_v0_additive_0","vel":1.0,"bend":0.0,"ch":4,"track":11},{"t":1892.997,"dur":0.505,"note":24,"inst":"piano_v0_additive_0","vel":1.0,"bend":0.0,"ch":8,"track":11},{"t":1892.997,"dur":0.252,"note":65,"inst":"organ_v0_additive_1","vel":1.0,"bend":0.0,"ch":1,"track":11},{"t":1893.249,"dur":0.252,"note":48,"inst":"piano_v0_additive_0","vel":1.0,"bend":0.0,"ch":0,"track":11},{"t":1893.501,"dur":0.505,"note":39,"inst":"celesta_v0_additive_3","vel":1.0,"bend":0.0,"ch":7,"track":11},{"t":1893.501,"dur":0.505,"note":63,"inst":"celesta_v0_additive_3","vel":1.0,"bend":0.0,"ch":15,"track":11},{"t":1894.006,"dur":0.252,"note":75,"inst":"celesta_v0_additive_3","vel":1.0,"bend":0.0,"ch":11,"track":11},{"t":1894.258,"dur":0.084,"note":75,"inst":"celesta_v0_additive_3","vel":1.0,"bend":0.0,"ch":11,"track":11},{"t":1894.342,"dur":0.084,"note":77,"inst":"organ_v0_additive_1","vel":1.0,"bend":0.0,"ch":13,"track":11},{"t":1894.426,"dur":0.084,"note":75,"inst":"celesta_v0_additive_3","vel":1.0,"bend":0.0,"ch":11,"track":11},{"t":1894.51,"dur":0.505,"note":24,"inst":"piano_v0_additive_0","vel":1.0,"bend":0.0,"ch":8,"track":11},{"t":1894.51,"dur":0.252,"note":75,"inst":"celesta_v0_additive_3","vel":1.0,"bend":0.0,"ch":11,"track":11},{"t":1894.763,"dur":0.252,"note":80,"inst":"piano_v0_additive_0","vel":1.0,"bend":0.0,"ch":0,"track":11},{"t":1895.015,"dur":0.505,"note":29,"inst":"organ_v0_additive_1","vel":1.0,"bend":0.0,"ch":13,"track":11},{"t":1895.015,"dur":0.252,"note":77,"inst":"organ_v0_additive_1","vel":1.0,"bend":0.0,"ch":13,"track":11},{"t":1895.267,"dur":0.084,"note":72,"inst":"piano_v0_additive_0","vel":1.0,"bend":0.0,"ch":8,"track":11},{"t":1895.351,"dur":0.084,"note":75,"inst":"celesta_v0_additive_3","vel":1.0,"bend":0.0,"ch":11,"track":11},{"t":1895.435,"dur":0.084,"note":72,"inst":"piano_v0_additive_0","vel":1.0,"bend":0.0,"ch":8,"track":11},{"t":1895.519,"dur":0.505,"note":24,"inst":"piano_v0_additive_0","vel":1.0,"bend":0.0,"ch":8,"track":11},{"t":1895.519,"dur":0.252,"note":60,"inst":"piano_v0_additive_0","vel":1.0,"bend":0.0,"ch":12,"track":11},{"t":1895.772,"dur":0.252,"note":75,"inst":"celesta_v0_additive_3","vel":1.0,"bend":0.0,"ch":11,"track":11},{"t":1896.024,"dur":0.505,"note":29,"inst":"organ_v0_additive_1","vel":1.0,"bend":0.0,"ch":13,"track":11},{"t":1896.024,"dur":0.252,"note":75,"inst":"celesta_v0_additive_3","vel":1.0,"bend":0.0,"ch":11,"track":11},{"t":1896.276,"dur":0.252,"note":60,"inst":"piano_v0_additive_0","vel":1.0,"bend":0.0,"ch":12,"track":11},{"t":1896.529,"dur":0.505,"note":24,"inst":"piano_v0_additive_0","vel":1.0,"bend":0.0,"ch":8,"track":11},{"t":1896.529,"dur":0.126,"note":65,"inst":"organ_v0_additive_1","vel":1.0,"bend":0.0,"ch":1,"track":11},{"t":1896.655,"dur":0.126,"note":63,"inst":"celesta_v0_additive_3","vel":1.0,"bend":0.0,"ch":15,"track":11},{"t":1896.781,"dur":0.126,"note":65,"inst":"organ_v0_additive_1","vel":1.0,"bend":0.0,"ch":1,"track":11},{"t":1896.907,"dur":0.126,"note":68,"inst":"piano_v0_additive_0","vel":1.0,"bend":0.0,"ch":4,"track":11},{"t":1897.033,"dur":0.505,"note":29,"inst":"organ_v0_additive_1","vel":1.0,"bend":0.0,"ch":13,"track":11},{"t":1897.033,"dur":0.126,"note":70,"inst":"harpsichord_v0_additive_2","vel":1.0,"bend":0.0,"ch":6,"track":11},{"t":1897.159,"dur":0.126,"note":60,"inst":"piano_v0_additive_0","vel":1.0,"bend":0.0,"ch":12,"track":11},{"t":1897.285,"dur":0.126,"note":72,"inst":"piano_v0_additive_0","vel":1.0,"bend":0.0,"ch":8,"track":11},{"t":1897.412,"dur":0.126,"note":75,"inst":"celesta_v0_additive_3","vel":1.0,"bend":0.0,"ch":11,"track":11},{"t":1897.538,"dur":0.505,"note":36,"inst":"piano_v0_additive_0","vel":1.0,"bend":0.0,"ch":4,"track":11},{"t":1897.538,"dur":0.505,"note":75,"inst":"celesta_v0_additive_3","vel":1.0,"bend":0.0,"ch":11,"track":11},{"t":1898.042,"dur":0.505,"note":29,"inst":"organ_v0_additive_1","vel":1.0,"bend":0.0,"ch":13,"track":11},{"t":1898.295,"dur":0.084,"note":75,"inst":"celesta_v0_additive_3","vel":1.0,"bend":0.0,"ch":11,"track":11},{"t":1898.379,"dur":0.084,"note":77,"inst":"organ_v0_additive_1","vel":1.0,"bend":0.0,"ch":13,"track":11},{"t":1898.463,"dur":0.084,"note":75,"inst":"celesta_v0_additive_3","vel":1.0,"bend":0.0,"ch":11,"track":11},{"t":1898.547,"dur":0.505,"note":36,"inst":"piano_v0_additive_0","vel":1.0,"bend":0.0,"ch":4,"track":11},{"t":1898.547,"dur":0.252,"note":72,"inst":"piano_v0_additive_0","vel":1.0,"bend":0.0,"ch":8,"track":11},{"t":1898.799,"dur":0.252,"note":80,"inst":"piano_v0_additive_0","vel":1.0,"bend":0.0,"ch":0,"track":11},{"t":1899.051,"dur":0.505,"note":29,"inst":"organ_v0_additive_1","vel":1.0,"bend":0.0,"ch":13,"track":11},{"t":1899.051,"dur":0.252,"note":77,"inst":"organ_v0_additive_1","vel":1.0,"bend":0.0,"ch":13,"track":11},{"t":1899.304,"dur":0.084,"note":72,"inst":"piano_v0_additive_0","vel":1.0,"bend":0.0,"ch":8,"track":11},{"t":1899.388,"dur":0.084,"note":75,"inst":"celesta_v0_additive_3","vel":1.0,"bend":0.0,"ch":11,"track":11},{"t":1899.472,"dur":0.084,"note":72,"inst":"piano_v0_additive_0","vel":1.0,"bend":0.0,"ch":8,"track":11},{"t":1899.556,"dur":0.505,"note":36,"inst":"piano_v0_additive_0","vel":1.0,"bend":0.0,"ch":4,"track":11},{"t":1899.556,"dur":0.252,"note":70,"inst":"harpsichord_v0_additive_2","vel":1.0,"bend":0.0,"ch":6,"track":11},{"t":1899.808,"dur":0.252,"note":75,"inst":"celesta_v0_additive_3","vel":1.0,"bend":0.0,"ch":11,"track":11},{"t":1900.061,"dur":0.505,"note":29,"inst":"organ_v0_additive_1","vel":1.0,"bend":0.0,"ch":13,"track":11},{"t":1900.061,"dur":0.252,"note":72,"inst":"piano_v0_additive_0","vel":1.0,"bend":0.0,"ch":8,"track":11},{"t":1900.313,"dur":0.252,"note":70,"inst":"harpsichord_v0_additive_2","vel":1.0,"bend":0.0,"ch":6,"track":11},{"t":1900.565,"dur":0.505,"note":34,"inst":"harpsichord_v0_additive_2","vel":1.0,"bend":0.0,"ch":2,"track":11},{"t":1900.565,"dur":0.126,"note":65,"inst":"organ_v0_additive_1","vel":1.0,"bend":0.0,"ch":1,"track":11},{"t":1900.691,"dur":0.126,"note":65,"inst":"organ_v0_additive_1","vel":1.0,"bend":0.0,"ch":1,"track":11},{"t":1900.817,"dur":0.126,"note":65,"inst":"organ_v0_additive_1","vel":1.0,"bend":0.0,"ch":1,"track":11},{"t":1900.944,"dur":0.126,"note":68,"inst":"piano_v0_additive_0","vel":1.0,"bend":0.0,"ch":4,"track":11},{"t":1901.07,"dur":0.505,"note":29,"inst":"organ_v0_additive_1","vel":1.0,"bend":0.0,"ch":13,"track":11},{"t":1901.07,"dur":0.126,"note":70,"inst":"harpsichord_v0_additive_2","vel":1.0,"bend":0.0,"ch":6,"track":11},{"t":1901.196,"dur":0.126,"note":60,"inst":"piano_v0_additive_0","vel":1.0,"bend":0.0,"ch":12,"track":11},{"t":1901.322,"dur":0.126,"note":72,"inst":"piano_v0_additive_0","vel":1.0,"bend":0.0,"ch":8,"track":11},{"t":1901.448,"dur":0.126,"note":74,"inst":"harpsichord_v0_additive_2","vel":1.0,"bend":0.0,"ch":10,"track":11},{"t":1901.574,"dur":0.505,"note":24,"inst":"piano_v0_additive_0","vel":1.0,"bend":0.0,"ch":8,"track":11},{"t":1901.574,"dur":0.505,"note":75,"inst":"celesta_v0_additive_3","vel":1.0,"bend":0.0,"ch":11,"track":11},{"t":1902.079,"dur":0.505,"note":29,"inst":"organ_v0_additive_1","vel":1.0,"bend":0.0,"ch":13,"track":11},{"t":1902.583,"dur":0.505,"note":24,"inst":"piano_v0_additive_0","vel":1.0,"bend":0.0,"ch":8,"track":11},{"t":1902.583,"dur":0.252,"note":75,"inst":"celesta_v0_additive_3","vel":1.0,"bend":0.0,"ch":11,"track":11},{"t":1902.836,"dur":0.252,"note":80,"inst":"piano_v0_additive_0","vel":1.0,"bend":0.0,"ch":0,"track":11},{"t":1903.088,"dur":0.505,"note":29,"inst":"organ_v0_additive_1","vel":1.0,"bend":0.0,"ch":13,"track":11},{"t":1903.088,"dur":0.252,"note":77,"inst":"organ_v0_additive_1","vel":1.0,"bend":0.0,"ch":13,"track":11},{"t":1903.34,"dur":0.084,"note":72,"inst":"piano_v0_additive_0","vel":1.0,"bend":0.0,"ch":8,"track":11},{"t":1903.424,"dur":0.084,"note":75,"inst":"celesta_v0_additive_3","vel":1.0,"bend":0.0,"ch":11,"track":11},{"t":1903.508,"dur":0.084,"note":72,"inst":"piano_v0_additive_0","vel":1.0,"bend":0.0,"ch":8,"track":11},{"t":1903.592,"dur":0.505,"note":24,"inst":"piano_v0_additive_0","vel":1.0,"bend":0.0,"ch":8,"track":11},{"t":1903.592,"dur":0.252,"note":60,"inst":"piano_v0_additive_0","vel":1.0,"bend":0.0,"ch":12,"track":11},{"t":1903.845,"dur":0.252,"note":75,"inst":"celesta_v0_additive_3","vel":1.0,"bend":0.0,"ch":11,"track":11},{"t":1904.097,"dur":0.505,"note":29,"inst":"organ_v0_additive_1","vel":1.0,"bend":0.0,"ch":13,"track":11},{"t":1904.097,"dur":0.252,"note":75,"inst":"celesta_v0_additive_3","vel":1.0,"bend":0.0,"ch":11,"track":11},{"t":1904.349,"dur":0.252,"note":60,"inst":"piano_v0_additive_0","vel":1.0,"bend":0.0,"ch":12,"track":11},{"t":1904.602,"dur":0.505,"note":24,"inst":"piano_v0_additive_0","vel":1.0,"bend":0.0,"ch":8,"track":11},{"t":1904.602,"dur":0.126,"note":65,"inst":"organ_v0_additive_1","vel":1.0,"bend":0.0,"ch":1,"track":11},{"t":1904.728,"dur":0.126,"note":68,"inst":"piano_v0_additive_0","vel":1.0,"bend":0.0,"ch":4,"track":11},{"t":1904.854,"dur":0.126,"note":70,"inst":"harpsichord_v0_additive_2","vel":1.0,"bend":0.0,"ch":6,"track":11},{"t":1904.98,"dur":0.126,"note":60,"inst":"piano_v0_additive_0","vel":1.0,"bend":0.0,"ch":12,"track":11},{"t":1922.875,"dur":0.914,"note":48,"inst":"piano_v0_additive_0","vel":0.63,"bend":0.0,"ch":0,"track":11},{"t":1922.875,"dur":0.914,"note":41,"inst":"organ_v0_additive_1","vel":0.63,"bend":0.0,"ch":9,"track":11},{"t":1922.875,"dur":0.868,"note":57,"inst":"organ_v0_additive_1","vel":0.63,"bend":0.0,"ch":9,"track":11},{"t":1923.789,"dur":0.914,"note":50,"inst":"harpsichord_v0_additive_2","vel":0.63,"bend":0.0,"ch":2,"track":11},{"t":1923.789,"dur":1.828,"note":53,"inst":"organ_v0_additive_1","vel":0.63,"bend":0.0,"ch":5,"track":11},{"t":1923.789,"dur":1.737,"note":58,"inst":"harpsichord_v0_additive_2","vel":0.63,"bend":0.0,"ch":10,"track":11},{"t":1924.704,"dur":1.828,"note":45,"inst":"organ_v0_additive_1","vel":0.63,"bend":0.0,"ch":13,"track":11},{"t":1925.619,"dur":1.828,"note":41,"inst":"organ_v0_additive_1","vel":0.63,"bend":0.0,"ch":9,"track":11},{"t":1925.619,"dur":1.737,"note":57,"inst":"organ_v0_additive_1","vel":0.63,"bend":0.0,"ch":9,"track":11},{"t":1926.533,"dur":1.828,"note":46,"inst":"harpsichord_v0_additive_2","vel":0.63,"bend":0.0,"ch":14,"track":11},{"t":1927.448,"dur":0.914,"note":50,"inst":"harpsichord_v0_additive_2","vel":0.63,"bend":0.0,"ch":2,"track":11},{"t":1927.448,"dur":0.868,"note":55,"inst":"celesta_v0_additive_3","vel":0.63,"bend":0.0,"ch":7,"track":11},{"t":1928.363,"dur":1.828,"note":45,"inst":"organ_v0_additive_1","vel":0.63,"bend":0.0,"ch":13,"track":11},{"t":1928.363,"dur":0.914,"note":41,"inst":"organ_v0_additive_1","vel":0.63,"bend":0.0,"ch":9,"track":11},{"t":1928.363,"dur":1.737,"note":57,"inst":"organ_v0_additive_1","vel":0.63,"bend":0.0,"ch":9,"track":11},{"t":1929.278,"dur":1.371,"note":57,"inst":"organ_v0_additive_1","vel":0.63,"bend":0.0,"ch":9,"track":11},{"t":1930.192,"dur":1.303,"note":45,"inst":"organ_v0_additive_1","vel":0.63,"bend":0.0,"ch":13,"track":11},{"t":1930.65,"dur":0.456,"note":58,"inst":"harpsichord_v0_additive_2","vel":0.63,"bend":0.0,"ch":10,"track":11},{"t":1931.107,"dur":1.371,"note":45,"inst":"organ_v0_additive_1","vel":0.63,"bend":0.0,"ch":13,"track":11},{"t":1931.107,"dur":0.456,"note":60,"inst":"piano_v0_additive_0","vel":0.63,"bend":0.0,"ch":12,"track":11},{"t":1931.564,"dur":0.434,"note":46,"inst":"harpsichord_v0_additive_2","vel":0.63,"bend":0.0,"ch":14,"track":11},{"t":1931.564,"dur":0.456,"note":62,"inst":"harpsichord_v0_additive_2","vel":0.63,"bend":0.0,"ch":14,"track":11},{"t":2049.088,"dur":0.395,"note":38,"inst":"harpsichord_v0_additive_2","vel":1.0,"bend":0.0,"ch":6,"track":11},{"t":2049.088,"dur":0.395,"note":50,"inst":"harpsichord_v0_additive_2","vel":1.0,"bend":0.0,"ch":2,"track":11},{"t":2049.483,"dur":0.395,"note":41,"inst":"organ_v0_additive_1","vel":1.0,"bend":0.0,"ch":9,"track":11},{"t":2049.483,"dur":0.395,"note":58,"inst":"harpsichord_v0_additive_2","vel":1.0,"bend":0.0,"ch":10,"track":11},{"t":2049.878,"dur":0.395,"note":41,"inst":"organ_v0_additive_1","vel":1.0,"bend":0.0,"ch":9,"track":11},{"t":2049.878,"dur":0.395,"note":57,"inst":"organ_v0_additive_1","vel":1.0,"bend":0.0,"ch":9,"track":11},{"t":2050.273,"dur":0.395,"note":41,"inst":"organ_v0_additive_1","vel":1.0,"bend":0.0,"ch":9,"track":11},{"t":2050.273,"dur":0.395,"note":58,"inst":"harpsichord_v0_additive_2","vel":1.0,"bend":0.0,"ch":10,"track":11},{"t":2050.668,"dur":0.395,"note":41,"inst":"organ_v0_additive_1","vel":1.0,"bend":0.0,"ch":9,"track":11},{"t":2050.668,"dur":0.395,"note":57,"inst":"organ_v0_additive_1","vel":1.0,"bend":0.0,"ch":9,"track":11},{"t":2051.063,"dur":0.395,"note":38,"inst":"harpsichord_v0_additive_2","vel":1.0,"bend":0.0,"ch":6,"track":11},{"t":2051.063,"dur":0.395,"note":50,"inst":"harpsichord_v0_additive_2","vel":1.0,"bend":0.0,"ch":2,"track":11},{"t":2051.458,"dur":1.185,"note":34,"inst":"harpsichord_v0_additive_2","vel":1.0,"bend":0.0,"ch":2,"track":11},{"t":2051.458,"dur":1.185,"note":38,"inst":"harpsichord_v0_additive_2","vel":1.0,"bend":0.0,"ch":6,"track":11},{"t":2051.656,"dur":0.198,"note":58,"inst":"harpsichord_v0_additive_2","vel":1.0,"bend":0.0,"ch":10,"track":11},{"t":2051.853,"dur":0.198,"note":57,"inst":"organ_v0_additive_1","vel":1.0,"bend":0.0,"ch":9,"track":11},{"t":2052.051,"dur":0.198,"note":53,"inst":"organ_v0_additive_1","vel":1.0,"bend":0.0,"ch":5,"track":11},{"t":2052.249,"dur":0.593,"note":62,"inst":"harpsichord_v0_additive_2","vel":1.0,"bend":0.0,"ch":14,"track":11},{"t":2052.644,"dur":1.185,"note":26,"inst":"harpsichord_v0_additive_2","vel":1.0,"bend":0.0,"ch":10,"track":11},{"t":2052.644,"dur":1.185,"note":38,"inst":"harpsichord_v0_additive_2","vel":1.0,"bend":0.0,"ch":6,"track":11},{"t":2052.841,"dur":0.198,"note":50,"inst":"harpsichord_v0_additive_2","vel":1.0,"bend":0.0,"ch":2,"track":11},{"t":2053.039,"dur":0.198,"note":58,"inst":"harpsichord_v0_additive_2","vel":1.0,"bend":0.0,"ch":10,"track":11},{"t":2053.236,"dur":0.198,"note":57,"inst":"organ_v0_additive_1","vel":1.0,"bend":0.0,"ch":9,"track":11},{"t":2053.434,"dur":0.593,"note":62,"inst":"harpsichord_v0_additive_2","vel":1.0,"bend":0.0,"ch":14,"track":11},{"t":2053.829,"dur":1.185,"note":38,"inst":"harpsichord_v0_additive_2","vel":1.0,"bend":0.0,"ch":6,"track":11},{"t":2053.829,"dur":1.185,"note":41,"inst":"organ_v0_additive_1","vel":1.0,"bend":0.0,"ch":9,"track":11},{"t":2054.026,"dur":0.198,"note":62,"inst":"harpsichord_v0_additive_2","vel":1.0,"bend":0.0,"ch":14,"track":11},{"t":2054.224,"dur":0.198,"note":50,"inst":"harpsichord_v0_additive_2","vel":1.0,"bend":0.0,"ch":2,"track":11},{"t":2054.421,"dur":0.198,"note":58,"inst":"harpsichord_v0_additive_2","vel":1.0,"bend":0.0,"ch":10,"track":11},{"t":2054.619,"dur":0.395,"note":65,"inst":"organ_v0_additive_1","vel":1.0,"bend":0.0,"ch":1,"track":11},{"t":2055.014,"dur":1.185,"note":38,"inst":"harpsichord_v0_additive_2","vel":1.0,"bend":0.0,"ch":6,"track":11},{"t":2055.014,"dur":1.185,"note":41,"inst":"organ_v0_additive_1","vel":1.0,"bend":0.0,"ch":9,"track":11},{"t":2055.409,"dur":0.395,"note":45,"inst":"organ_v0_additive_1","vel":1.0,"bend":0.0,"ch":13,"track":11},{"t":2055.409,"dur":0.395,"note":53,"inst":"organ_v0_additive_1","vel":1.0,"bend":0.0,"ch":5,"track":11},{"t":2055.804,"dur":0.395,"note":46,"inst":"harpsichord_v0_additive_2","vel":1.0,"bend":0.0,"ch":14,"track":11},{"t":2055.804,"dur":0.395,"note":53,"inst":"organ_v0_additive_1","vel":1.0,"bend":0.0,"ch":5,"track":11},{"t":2056.199,"dur":0.395,"note":38,"inst":"harpsichord_v0_additive_2","vel":1.0,"bend":0.0,"ch":6,"track":11},{"t":2056.199,"dur":0.395,"note":57,"inst":"organ_v0_additive_1","vel":1.0,"bend":0.0,"ch":9,"track":11},{"t":2056.594,"dur":0.395,"note":50,"inst":"harpsichord_v0_additive_2","vel":1.0,"bend":0.0,"ch":2,"track":11},{"t":2056.594,"dur":0.395,"note":58,"inst":"harpsichord_v0_additive_2","vel":1.0,"bend":0.0,"ch":10,"track":11},{"t":2056.989,"dur":0.395,"note":50,"inst":"harpsichord_v0_additive_2","vel":1.0,"bend":0.0,"ch":2,"track":11},{"t":2056.989,"dur":0.395,"note":50,"inst":"harpsichord_v0_additive_2","vel":1.0,"bend":0.0,"ch":2,"track":11},{"t":2057.384,"dur":0.395,"note":50,"inst":"harpsichord_v0_additive_2","vel":1.0,"bend":0.0,"ch":2,"track":11},{"t":2057.384,"dur":0.395,"note":58,"inst":"harpsichord_v0_additive_2","vel":1.0,"bend":0.0,"ch":10,"track":11},{"t":2057.779,"dur":0.395,"note":50,"inst":"harpsichord_v0_additive_2","vel":1.0,"bend":0.0,"ch":2,"track":11},{"t":2057.779,"dur":0.395,"note":50,"inst":"harpsichord_v0_additive_2","vel":1.0,"bend":0.0,"ch":2,"track":11},{"t":2058.174,"dur":0.395,"note":38,"inst":"harpsichord_v0_additive_2","vel":1.0,"bend":0.0,"ch":6,"track":11},{"t":2058.174,"dur":0.395,"note":57,"inst":"organ_v0_additive_1","vel":1.0,"bend":0.0,"ch":9,"track":11},{"t":2058.57,"dur":1.185,"note":50,"inst":"harpsichord_v0_additive_2","vel":1.0,"bend":0.0,"ch":2,"track":11},{"t":2058.57,"dur":1.185,"note":58,"inst":"harpsichord_v0_additive_2","vel":1.0,"bend":0.0,"ch":10,"track":11},{"t":2058.965,"dur":0.395,"note":41,"inst":"organ_v0_additive_1","vel":1.0,"bend":0.0,"ch":9,"track":11},{"t":2059.36,"dur":0.395,"note":26,"inst":"harpsichord_v0_additive_2","vel":1.0,"bend":0.0,"ch":10,"track":11},{"t":2059.755,"dur":0.395,"note":38,"inst":"harpsichord_v0_additive_2","vel":1.0,"bend":0.0,"ch":6,"track":11},{"t":2060.15,"dur":0.395,"note":33,"inst":"organ_v0_additive_1","vel":1.0,"bend":0.0,"ch":1,"track":11},{"t":2060.545,"dur":0.395,"note":34,"inst":"harpsichord_v0_additive_2","vel":1.0,"bend":0.0,"ch":2,"track":11},{"t":2060.94,"dur":0.395,"note":28,"inst":"piano_v0_additive_0","vel":1.0,"bend":0.0,"ch":12,"track":11},{"t":2060.94,"dur":0.395,"note":41,"inst":"organ_v0_additive_1","vel":1.0,"bend":0.0,"ch":9,"track":11},{"t":2060.94,"dur":0.395,"note":38,"inst":"harpsichord_v0_additive_2","vel":1.0,"bend":0.0,"ch":6,"track":11},{"t":2061.335,"dur":0.395,"note":29,"inst":"organ_v0_additive_1","vel":1.0,"bend":0.0,"ch":13,"track":11},{"t":2061.335,"dur":0.395,"note":45,"inst":"organ_v0_additive_1","vel":1.0,"bend":0.0,"ch":13,"track":11},{"t":2090.767,"dur":0.187,"note":50,"inst":"harpsichord_v0_additive_2","vel":1.0,"bend":0.0,"ch":2,"track":11},{"t":2090.767,"dur":0.187,"note":53,"inst":"organ_v0_additive_1","vel":1.0,"bend":0.0,"ch":5,"track":11},{"t":2090.767,"dur":0.187,"note":74,"inst":"harpsichord_v0_additive_2","vel":1.0,"bend":0.0,"ch":10,"track":11},{"t":2090.767,"dur":0.187,"note":77,"inst":"organ_v0_additive_1","vel":1.0,"bend":0.0,"ch":13,"track":11},{"t":2090.954,"dur":0.187,"note":38,"inst":"harpsichord_v0_additive_2","vel":1.0,"bend":0.0,"ch":6,"track":11},{"t":2090.954,"dur":0.187,"note":62,"inst":"harpsichord_v0_additive_2","vel":1.0,"bend":0.0,"ch":14,"track":11},{"t":2091.141,"dur":0.187,"note":50,"inst":"harpsichord_v0_additive_2","vel":1.0,"bend":0.0,"ch":2,"track":11},{"t":2091.141,"dur":0.187,"note":74,"inst":"harpsichord_v0_additive_2","vel":1.0,"bend":0.0,"ch":10,"track":11},{"t":2091.328,"dur":0.187,"note":53,"inst":"organ_v0_additive_1","vel":1.0,"bend":0.0,"ch":5,"track":11},{"t":2091.328,"dur":0.187,"note":77,"inst":"organ_v0_additive_1","vel":1.0,"bend":0.0,"ch":13,"track":11},{"t":2091.515,"dur":0.374,"note":53,"inst":"organ_v0_additive_1","vel":1.0,"bend":0.0,"ch":5,"track":11},{"t":2091.515,"dur":0.374,"note":77,"inst":"organ_v0_additive_1","vel":1.0,"bend":0.0,"ch":13,"track":11},{"t":2091.889,"dur":0.374,"note":41,"inst":"organ_v0_additive_1","vel":1.0,"bend":0.0,"ch":9,"track":11},{"t":2091.889,"dur":0.374,"note":65,"inst":"organ_v0_additive_1","vel":1.0,"bend":0.0,"ch":1,"track":11},{"t":2092.263,"dur":0.094,"note":50,"inst":"harpsichord_v0_additive_2","vel":1.0,"bend":0.0,"ch":2,"track":11},{"t":2092.357,"dur":0.094,"note":67,"inst":"celesta_v0_additive_3","vel":1.0,"bend":0.0,"ch":3,"track":11},{"t":2092.388,"dur":0.125,"note":74,"inst":"harpsichord_v0_additive_2","vel":1.0,"bend":0.0,"ch":10,"track":11},{"t":2092.45,"dur":0.094,"note":65,"inst":"organ_v0_additive_1","vel":1.0,"bend":0.0,"ch":1,"track":11},{"t":2092.513,"dur":0.125,"note":86,"inst":"harpsichord_v0_additive_2","vel":1.0,"bend":0.0,"ch":6,"track":11},{"t":2092.544,"dur":0.094,"note":67,"inst":"celesta_v0_additive_3","vel":1.0,"bend":0.0,"ch":3,"track":11},{"t":2092.638,"dur":0.094,"note":62,"inst":"harpsichord_v0_additive_2","vel":1.0,"bend":0.0,"ch":14,"track":11},{"t":2092.731,"dur":0.094,"note":67,"inst":"celesta_v0_additive_3","vel":1.0,"bend":0.0,"ch":3,"track":11},{"t":2092.762,"dur":0.125,"note":84,"inst":"piano_v0_additive_0","vel":1.0,"bend":0.0,"ch":4,"track":11},{"t":2092.825,"dur":0.094,"note":65,"inst":"organ_v0_additive_1","vel":1.0,"bend":0.0,"ch":1,"track":11},{"t":2092.887,"dur":0.125,"note":96,"inst":"piano_v0_additive_0","vel":1.0,"bend":0.0,"ch":0,"track":11},{"t":2092.918,"dur":0.094,"note":67,"inst":"celesta_v0_additive_3","vel":1.0,"bend":0.0,"ch":3,"track":11},{"t":2093.012,"dur":0.094,"note":50,"inst":"harpsichord_v0_additive_2","vel":1.0,"bend":0.0,"ch":2,"track":11},{"t":2093.105,"dur":0.094,"note":67,"inst":"celesta_v0_additive_3","vel":1.0,"bend":0.0,"ch":3,"track":11},{"t":2093.136,"dur":0.125,"note":74,"inst":"harpsichord_v0_additive_2","vel":1.0,"bend":0.0,"ch":10,"track":11},{"t":2093.199,"dur":0.094,"note":65,"inst":"organ_v0_additive_1","vel":1.0,"bend":0.0,"ch":1,"track":11},{"t":2093.261,"dur":0.125,"note":86,"inst":"harpsichord_v0_additive_2","vel":1.0,"bend":0.0,"ch":6,"track":11},{"t":2093.292,"dur":0.094,"note":67,"inst":"celesta_v0_additive_3","vel":1.0,"bend":0.0,"ch":3,"track":11},{"t":2093.386,"dur":0.094,"note":53,"inst":"organ_v0_additive_1","vel":1.0,"bend":0.0,"ch":5,"track":11},{"t":2093.479,"dur":0.094,"note":65,"inst":"organ_v0_additive_1","vel":1.0,"bend":0.0,"ch":1,"track":11},{"t":2093.51,"dur":0.125,"note":81,"inst":"organ_v0_additive_1","vel":1.0,"bend":0.0,"ch":1,"track":11},{"t":2093.573,"dur":0.094,"note":64,"inst":"piano_v0_additive_0","vel":1.0,"bend":0.0,"ch":0,"track":11},{"t":2093.635,"dur":0.125,"note":93,"inst":"organ_v0_additive_1","vel":1.0,"bend":0.0,"ch":13,"track":11},{"t":2093.666,"dur":0.094,"note":65,"inst":"organ_v0_additive_1","vel":1.0,"bend":0.0,"ch":1,"track":11},{"t":2093.76,"dur":0.094,"note":59,"inst":"celesta_v0_additive_3","vel":1.0,"bend":0.0,"ch":11,"track":11},{"t":2093.853,"dur":0.094,"note":67,"inst":"celesta_v0_additive_3","vel":1.0,"bend":0.0,"ch":3,"track":11},{"t":2093.885,"dur":0.125,"note":83,"inst":"celesta_v0_additive_3","vel":1.0,"bend":0.0,"ch":3,"track":11},{"t":2093.947,"dur":0.094,"note":62,"inst":"harpsichord_v0_additive_2","vel":1.0,"bend":0.0,"ch":14,"track":11},{"t":2094.009,"dur":0.125,"note":95,"inst":"celesta_v0_additive_3","vel":1.0,"bend":0.0,"ch":15,"track":11},{"t":2094.04,"dur":0.094,"note":67,"inst":"celesta_v0_additive_3","vel":1.0,"bend":0.0,"ch":3,"track":11},{"t":2094.134,"dur":0.094,"note":50,"inst":"harpsichord_v0_additive_2","vel":1.0,"bend":0.0,"ch":2,"track":11},{"t":2094.227,"dur":0.094,"note":71,"inst":"celesta_v0_additive_3","vel":1.0,"bend":0.0,"ch":7,"track":11},{"t":2094.259,"dur":0.125,"note":77,"inst":"organ_v0_additive_1","vel":1.0,"bend":0.0,"ch":13,"track":11},{"t":2094.321,"dur":0.094,"note":67,"inst":"celesta_v0_additive_3","vel":1.0,"bend":0.0,"ch":3,"track":11},{"t":2094.383,"dur":0.125,"note":89,"inst":"organ_v0_additive_1","vel":1.0,"bend":0.0,"ch":9,"track":11},{"t":2094.415,"dur":0.094,"note":71,"inst":"celesta_v0_additive_3","vel":1.0,"bend":0.0,"ch":7,"track":11},{"t":2094.508,"dur":0.094,"note":65,"inst":"organ_v0_additive_1","vel":1.0,"bend":0.0,"ch":1,"track":11},{"t":2094.508,"dur":0.094,"note":69,"inst":"organ_v0_additive_1","vel":1.0,"bend":0.0,"ch":5,"track":11},{"t":2094.508,"dur":0.374,"note":77,"inst":"organ_v0_additive_1","vel":1.0,"bend":0.0,"ch":13,"track":11},{"t":2094.508,"dur":0.374,"note":89,"inst":"organ_v0_additive_1","vel":1.0,"bend":0.0,"ch":9,"track":11},{"t":2094.602,"dur":0.094,"note":62,"inst":"harpsichord_v0_additive_2","vel":1.0,"bend":0.0,"ch":14,"track":11},{"t":2094.695,"dur":0.094,"note":71,"inst":"celesta_v0_additive_3","vel":1.0,"bend":0.0,"ch":7,"track":11},{"t":2094.789,"dur":0.094,"note":69,"inst":"organ_v0_additive_1","vel":1.0,"bend":0.0,"ch":5,"track":11},{"t":2094.882,"dur":0.094,"note":67,"inst":"celesta_v0_additive_3","vel":1.0,"bend":0.0,"ch":3,"track":11},{"t":2094.976,"dur":0.094,"note":65,"inst":"organ_v0_additive_1","vel":1.0,"bend":0.0,"ch":1,"track":11},{"t":2095.069,"dur":0.094,"note":65,"inst":"organ_v0_additive_1","vel":1.0,"bend":0.0,"ch":1,"track":11},{"t":2095.163,"dur":0.094,"note":62,"inst":"harpsichord_v0_additive_2","vel":1.0,"bend":0.0,"ch":14,"track":11},{"t":2095.256,"dur":0.187,"note":50,"inst":"harpsichord_v0_additive_2","vel":1.0,"bend":0.0,"ch":2,"track":11},{"t":2095.256,"dur":0.187,"note":74,"inst":"harpsichord_v0_additive_2","vel":1.0,"bend":0.0,"ch":10,"track":11},{"t":2095.443,"dur":0.094,"note":62,"inst":"harpsichord_v0_additive_2","vel":1.0,"bend":0.0,"ch":14,"track":11},{"t":2095.443,"dur":0.094,"note":86,"inst":"harpsichord_v0_additive_2","vel":1.0,"bend":0.0,"ch":6,"track":11},{"t":2095.537,"dur":0.094,"note":50,"inst":"harpsichord_v0_additive_2","vel":1.0,"bend":0.0,"ch":2,"track":11},{"t":2095.537,"dur":0.094,"note":74,"inst":"harpsichord_v0_additive_2","vel":1.0,"bend":0.0,"ch":10,"track":11},{"t":2095.63,"dur":0.187,"note":57,"inst":"organ_v0_additive_1","vel":1.0,"bend":0.0,"ch":9,"track":11},{"t":2095.63,"dur":0.187,"note":81,"inst":"organ_v0_additive_1","vel":1.0,"bend":0.0,"ch":1,"track":11},{"t":2095.817,"dur":0.187,"note":60,"inst":"piano_v0_additive_0","vel":1.0,"bend":0.0,"ch":12,"track":11},{"t":2095.817,"dur":0.187,"note":84,"inst":"piano_v0_additive_0","vel":1.0,"bend":0.0,"ch":4,"track":11},{"t":2096.005,"dur":0.374,"note":50,"inst":"harpsichord_v0_additive_2","vel":1.0,"bend":0.0,"ch":2,"track":11},{"t":2096.005,"dur":0.374,"note":74,"inst":"harpsichord_v0_additive_2","vel":1.0,"bend":0.0,"ch":10,"track":11},{"t":2096.379,"dur":0.374,"note":38,"inst":"harpsichord_v0_additive_2","vel":1.0,"bend":0.0,"ch":6,"track":11},{"t":2096.379,"dur":0.374,"note":62,"inst":"harpsichord_v0_additive_2","vel":1.0,"bend":0.0,"ch":14,"track":11},{"t":2096.753,"dur":0.094,"note":74,"inst":"harpsichord_v0_additive_2","vel":1.0,"bend":0.0,"ch":10,"track":11},{"t":2096.753,"dur":0.187,"note":86,"inst":"harpsichord_v0_additive_2","vel":1.0,"bend":0.0,"ch":6,"track":11},{"t":2096.846,"dur":0.094,"note":89,"inst":"organ_v0_additive_1","vel":1.0,"bend":0.0,"ch":9,"track":11},{"t":2096.94,"dur":0.094,"note":74,"inst":"harpsichord_v0_additive_2","vel":1.0,"bend":0.0,"ch":10,"track":11},{"t":2096.94,"dur":0.094,"note":98,"inst":"harpsichord_v0_additive_2","vel":1.0,"bend":0.0,"ch":2,"track":11},{"t":2097.033,"dur":0.094,"note":89,"inst":"organ_v0_additive_1","vel":1.0,"bend":0.0,"ch":9,"track":11},{"t":2097.033,"dur":0.094,"note":86,"inst":"harpsichord_v0_additive_2","vel":1.0,"bend":0.0,"ch":6,"track":11},{"t":2097.127,"dur":0.094,"note":86,"inst":"harpsichord_v0_additive_2","vel":1.0,"bend":0.0,"ch":6,"track":11},{"t":2097.127,"dur":0.187,"note":93,"inst":"organ_v0_additive_1","vel":1.0,"bend":0.0,"ch":13,"track":11},{"t":2097.22,"dur":0.094,"note":89,"inst":"organ_v0_additive_1","vel":1.0,"bend":0.0,"ch":9,"track":11},{"t":2097.314,"dur":0.094,"note":86,"inst":"harpsichord_v0_additive_2","vel":1.0,"bend":0.0,"ch":6,"track":11},{"t":2097.314,"dur":0.187,"note":96,"inst":"piano_v0_additive_0","vel":1.0,"bend":0.0,"ch":0,"track":11},{"t":2097.407,"dur":0.094,"note":89,"inst":"organ_v0_additive_1","vel":1.0,"bend":0.0,"ch":9,"track":11},{"t":2097.501,"dur":0.374,"note":74,"inst":"harpsichord_v0_additive_2","vel":1.0,"bend":0.0,"ch":10,"track":11},{"t":2097.501,"dur":0.374,"note":89,"inst":"organ_v0_additive_1","vel":1.0,"bend":0.0,"ch":9,"track":11},{"t":2097.501,"dur":0.374,"note":86,"inst":"harpsichord_v0_additive_2","vel":1.0,"bend":0.0,"ch":6,"track":11},{"t":2098.249,"dur":0.187,"note":50,"inst":"harpsichord_v0_additive_2","vel":1.0,"bend":0.0,"ch":2,"track":11},{"t":2098.249,"dur":0.187,"note":53,"inst":"organ_v0_additive_1","vel":1.0,"bend":0.0,"ch":5,"track":11},{"t":2098.249,"dur":0.187,"note":74,"inst":"harpsichord_v0_additive_2","vel":1.0,"bend":0.0,"ch":10,"track":11},{"t":2098.249,"dur":0.187,"note":77,"inst":"organ_v0_additive_1","vel":1.0,"bend":0.0,"ch":13,"track":11},{"t":2098.436,"dur":0.187,"note":38,"inst":"harpsichord_v0_additive_2","vel":1.0,"bend":0.0,"ch":6,"track":11},{"t":2098.436,"dur":0.187,"note":62,"inst":"harpsichord_v0_additive_2","vel":1.0,"bend":0.0,"ch":14,"track":11},{"t":2124.765,"type":"tts","inst":"voice","text":"r ? s+extends s+ w+ ?. self._transition_total 0","track":11},{"t":2124.87,"dur":0.599,"note":27,"inst":"piano_v0_additive_0","vel":1.0,"bend":0.0,"ch":11,"track":12},{"t":2124.87,"dur":0.3,"note":64,"inst":"organ_v0_additive_1","vel":1.0,"bend":0.0,"ch":0,"track":12},{"t":2125.169,"dur":0.3,"note":63,"inst":"piano_v0_additive_0","vel":1.0,"bend":0.0,"ch":15,"track":12},{"t":2125.469,"dur":0.599,"note":32,"inst":"celesta_v0_additive_3","vel":1.0,"bend":0.0,"ch":0,"track":12},{"t":2125.469,"dur":0.3,"note":61,"inst":"organ_v0_additive_1","vel":1.0,"bend":0.0,"ch":13,"track":12},{"t":2125.768,"dur":0.3,"note":57,"inst":"piano_v0_additive_0","vel":1.0,"bend":0.0,"ch":9,"track":12},{"t":2126.068,"dur":0.599,"note":31,"inst":"organ_v0_additive_1","vel":1.0,"bend":0.0,"ch":15,"track":12},{"t":2126.068,"dur":0.3,"note":60,"inst":"piano_v0_additive_0","vel":1.0,"bend":0.0,"ch":12,"track":12},{"t":2126.367,"dur":0.1,"note":60,"inst":"piano_v0_additive_0","vel":1.0,"bend":0.0,"ch":12,"track":12},{"t":2126.467,"dur":0.1,"note":61,"inst":"organ_v0_additive_1","vel":1.0,"bend":0.0,"ch":13,"track":12},{"t":2126.567,"dur":0.1,"note":60,"inst":"piano_v0_additive_0","vel":1.0,"bend":0.0,"ch":12,"track":12},{"t":2126.667,"dur":0.599,"note":28,"inst":"organ_v0_additive_1","vel":1.0,"bend":0.0,"ch":12,"track":12},{"t":2126.667,"dur":0.3,"note":57,"inst":"piano_v0_additive_0","vel":1.0,"bend":0.0,"ch":9,"track":12},{"t":2126.967,"dur":0.3,"note":61,"inst":"organ_v0_additive_1","vel":1.0,"bend":0.0,"ch":13,"track":12},{"t":2127.266,"dur":0.599,"note":28,"inst":"organ_v0_additive_1","vel":1.0,"bend":0.0,"ch":12,"track":12},{"t":2127.266,"dur":0.3,"note":60,"inst":"piano_v0_additive_0","vel":1.0,"bend":0.0,"ch":12,"track":12},{"t":2127.566,"dur":0.3,"note":56,"inst":"celesta_v0_additive_3","vel":1.0,"bend":0.0,"ch":8,"track":12},{"t":2127.865,"dur":0.599,"note":31,"inst":"organ_v0_additive_1","vel":1.0,"bend":0.0,"ch":15,"track":12},{"t":2127.865,"dur":0.3,"note":55,"inst":"organ_v0_additive_1","vel":1.0,"bend":0.0,"ch":7,"track":12},{"t":2128.165,"dur":0.3,"note":68,"inst":"celesta_v0_additive_3","vel":1.0,"bend":0.0,"ch":4,"track":12},{"t":2128.465,"dur":0.599,"note":31,"inst":"organ_v0_additive_1","vel":1.0,"bend":0.0,"ch":15,"track":12},{"t":2128.465,"dur":0.3,"note":67,"inst":"organ_v0_additive_1","vel":1.0,"bend":0.0,"ch":3,"track":12},{"t":2128.764,"dur":0.1,"note":56,"inst":"celesta_v0_additive_3","vel":1.0,"bend":0.0,"ch":8,"track":12},{"t":2128.864,"dur":0.1,"note":57,"inst":"piano_v0_additive_0","vel":1.0,"bend":0.0,"ch":9,"track":12},{"t":2128.964,"dur":0.1,"note":56,"inst":"celesta_v0_additive_3","vel":1.0,"bend":0.0,"ch":8,"track":12},{"t":2129.064,"dur":0.599,"note":31,"inst":"organ_v0_additive_1","vel":1.0,"bend":0.0,"ch":15,"track":12},{"t":2129.064,"dur":0.3,"note":55,"inst":"organ_v0_additive_1","vel":1.0,"bend":0.0,"ch":7,"track":12},{"t":2129.363,"dur":0.3,"note":63,"inst":"piano_v0_additive_0","vel":1.0,"bend":0.0,"ch":15,"track":12},{"t":2129.663,"dur":0.599,"note":31,"inst":"organ_v0_additive_1","vel":1.0,"bend":0.0,"ch":15,"track":12},{"t":2129.663,"dur":0.3,"note":61,"inst":"organ_v0_additive_1","vel":1.0,"bend":0.0,"ch":13,"track":12},{"t":2129.962,"dur":0.3,"note":55,"inst":"organ_v0_additive_1","vel":1.0,"bend":0.0,"ch":7,"track":12},{"t":2130.262,"dur":0.599,"note":36,"inst":"piano_v0_additive_0","vel":1.0,"bend":0.0,"ch":4,"track":12},{"t":2130.262,"dur":0.599,"note":60,"inst":"piano_v0_additive_0","vel":1.0,"bend":0.0,"ch":12,"track":12},{"t":2130.861,"dur":0.3,"note":72,"inst":"piano_v0_additive_0","vel":1.0,"bend":0.0,"ch":8,"track":12},{"t":2131.161,"dur":0.1,"note":72,"inst":"piano_v0_additive_0","vel":1.0,"bend":0.0,"ch":8,"track":12},{"t":2131.261,"dur":0.1,"note":73,"inst":"organ_v0_additive_1","vel":1.0,"bend":0.0,"ch":9,"track":12},{"t":2131.361,"dur":0.1,"note":72,"inst":"piano_v0_additive_0","vel":1.0,"bend":0.0,"ch":8,"track":12},{"t":2131.46,"dur":0.599,"note":31,"inst":"organ_v0_additive_1","vel":1.0,"bend":0.0,"ch":15,"track":12},{"t":2131.46,"dur":0.3,"note":69,"inst":"piano_v0_additive_0","vel":1.0,"bend":0.0,"ch":5,"track":12},{"t":2131.76,"dur":0.3,"note":75,"inst":"piano_v0_additive_0","vel":1.0,"bend":0.0,"ch":11,"track":12},{"t":2132.06,"dur":0.599,"note":25,"inst":"organ_v0_additive_1","vel":1.0,"bend":0.0,"ch":9,"track":12},{"t":2132.06,"dur":0.3,"note":73,"inst":"organ_v0_additive_1","vel":1.0,"bend":0.0,"ch":9,"track":12},{"t":2132.359,"dur":0.1,"note":68,"inst":"celesta_v0_additive_3","vel":1.0,"bend":0.0,"ch":4,"track":12},{"t":2132.459,"dur":0.1,"note":69,"inst":"piano_v0_additive_0","vel":1.0,"bend":0.0,"ch":5,"track":12},{"t":2132.559,"dur":0.1,"note":68,"inst":"celesta_v0_additive_3","vel":1.0,"bend":0.0,"ch":4,"track":12},{"t":2132.659,"dur":0.599,"note":31,"inst":"organ_v0_additive_1","vel":1.0,"bend":0.0,"ch":15,"track":12},{"t":2132.659,"dur":0.3,"note":67,"inst":"organ_v0_additive_1","vel":1.0,"bend":0.0,"ch":3,"track":12},{"t":2132.958,"dur":0.3,"note":72,"inst":"piano_v0_additive_0","vel":1.0,"bend":0.0,"ch":8,"track":12},{"t":2133.258,"dur":0.599,"note":25,"inst":"organ_v0_additive_1","vel":1.0,"bend":0.0,"ch":9,"track":12},{"t":2133.258,"dur":0.3,"note":69,"inst":"piano_v0_additive_0","vel":1.0,"bend":0.0,"ch":5,"track":12},{"t":2133.557,"dur":0.3,"note":67,"inst":"organ_v0_additive_1","vel":1.0,"bend":0.0,"ch":3,"track":12},{"t":2133.857,"dur":0.599,"note":31,"inst":"organ_v0_additive_1","vel":1.0,"bend":0.0,"ch":15,"track":12},{"t":2133.857,"dur":0.15,"note":61,"inst":"organ_v0_additive_1","vel":1.0,"bend":0.0,"ch":13,"track":12},{"t":2134.007,"dur":0.15,"note":60,"inst":"piano_v0_additive_0","vel":1.0,"bend":0.0,"ch":12,"track":12},{"t":2134.157,"dur":0.15,"note":61,"inst":"organ_v0_additive_1","vel":1.0,"bend":0.0,"ch":13,"track":12},{"t":2134.306,"dur":0.15,"note":63,"inst":"piano_v0_additive_0","vel":1.0,"bend":0.0,"ch":15,"track":12},{"t":2134.456,"dur":0.599,"note":25,"inst":"organ_v0_additive_1","vel":1.0,"bend":0.0,"ch":9,"track":12},{"t":2134.456,"dur":0.15,"note":64,"inst":"organ_v0_additive_1","vel":1.0,"bend":0.0,"ch":0,"track":12},{"t":2134.606,"dur":0.15,"note":67,"inst":"organ_v0_additive_1","vel":1.0,"bend":0.0,"ch":3,"track":12},{"t":2134.756,"dur":0.15,"note":68,"inst":"celesta_v0_additive_3","vel":1.0,"bend":0.0,"ch":4,"track":12},{"t":2134.906,"dur":0.15,"note":69,"inst":"piano_v0_additive_0","vel":1.0,"bend":0.0,"ch":5,"track":12},{"t":2135.055,"dur":0.599,"note":32,"inst":"celesta_v0_additive_3","vel":1.0,"bend":0.0,"ch":0,"track":12},{"t":2135.055,"dur":0.599,"note":72,"inst":"piano_v0_additive_0","vel":1.0,"bend":0.0,"ch":8,"track":12},{"t":2135.655,"dur":0.599,"note":25,"inst":"organ_v0_additive_1","vel":1.0,"bend":0.0,"ch":9,"track":12},{"t":2135.954,"dur":0.1,"note":72,"inst":"piano_v0_additive_0","vel":1.0,"bend":0.0,"ch":8,"track":12},{"t":2136.054,"dur":0.1,"note":73,"inst":"organ_v0_additive_1","vel":1.0,"bend":0.0,"ch":9,"track":12},{"t":2136.154,"dur":0.1,"note":72,"inst":"piano_v0_additive_0","vel":1.0,"bend":0.0,"ch":8,"track":12},{"t":2136.254,"dur":0.599,"note":32,"inst":"celesta_v0_additive_3","vel":1.0,"bend":0.0,"ch":0,"track":12},{"t":2136.254,"dur":0.3,"note":68,"inst":"celesta_v0_additive_3","vel":1.0,"bend":0.0,"ch":4,"track":12},{"t":2136.553,"dur":0.3,"note":75,"inst":"piano_v0_additive_0","vel":1.0,"bend":0.0,"ch":11,"track":12},{"t":2136.853,"dur":0.599,"note":25,"inst":"organ_v0_additive_1","vel":1.0,"bend":0.0,"ch":9,"track":12},{"t":2136.853,"dur":0.3,"note":73,"inst":"organ_v0_additive_1","vel":1.0,"bend":0.0,"ch":9,"track":12},{"t":2137.152,"dur":0.1,"note":68,"inst":"celesta_v0_additive_3","vel":1.0,"bend":0.0,"ch":4,"track":12},{"t":2137.252,"dur":0.1,"note":69,"inst":"piano_v0_additive_0","vel":1.0,"bend":0.0,"ch":5,"track":12},{"t":2137.352,"dur":0.1,"note":68,"inst":"celesta_v0_additive_3","vel":1.0,"bend":0.0,"ch":4,"track":12},{"t":2137.452,"dur":0.599,"note":32,"inst":"celesta_v0_additive_3","vel":1.0,"bend":0.0,"ch":0,"track":12},{"t":2137.452,"dur":0.3,"note":64,"inst":"organ_v0_additive_1","vel":1.0,"bend":0.0,"ch":0,"track":12},{"t":2137.752,"dur":0.3,"note":69,"inst":"piano_v0_additive_0","vel":1.0,"bend":0.0,"ch":5,"track":12},{"t":2138.051,"dur":0.599,"note":25,"inst":"organ_v0_additive_1","vel":1.0,"bend":0.0,"ch":9,"track":12},{"t":2138.051,"dur":0.3,"note":68,"inst":"celesta_v0_additive_3","vel":1.0,"bend":0.0,"ch":4,"track":12},{"t":2138.351,"dur":0.3,"note":64,"inst":"organ_v0_additive_1","vel":1.0,"bend":0.0,"ch":0,"track":12},{"t":2138.65,"dur":0.599,"note":28,"inst":"organ_v0_additive_1","vel":1.0,"bend":0.0,"ch":12,"track":12},{"t":2138.65,"dur":0.15,"note":61,"inst":"organ_v0_additive_1","vel":1.0,"bend":0.0,"ch":13,"track":12},{"t":2138.8,"dur":0.15,"note":60,"inst":"piano_v0_additive_0","vel":1.0,"bend":0.0,"ch":12,"track":12},{"t":2138.95,"dur":0.15,"note":61,"inst":"organ_v0_additive_1","vel":1.0,"bend":0.0,"ch":13,"track":12},{"t":2139.1,"dur":0.15,"note":63,"inst":"piano_v0_additive_0","vel":1.0,"bend":0.0,"ch":15,"track":12},{"t":2139.25,"dur":0.599,"note":25,"inst":"organ_v0_additive_1","vel":1.0,"bend":0.0,"ch":9,"track":12},{"t":2139.25,"dur":0.15,"note":64,"inst":"organ_v0_additive_1","vel":1.0,"bend":0.0,"ch":0,"track":12},{"t":2139.399,"dur":0.15,"note":67,"inst":"organ_v0_additive_1","vel":1.0,"bend":0.0,"ch":3,"track":12},{"t":2139.549,"dur":0.15,"note":68,"inst":"celesta_v0_additive_3","vel":1.0,"bend":0.0,"ch":4,"track":12},{"t":2139.699,"dur":0.15,"note":69,"inst":"piano_v0_additive_0","vel":1.0,"bend":0.0,"ch":5,"track":12},{"t":2139.849,"dur":0.599,"note":31,"inst":"organ_v0_additive_1","vel":1.0,"bend":0.0,"ch":15,"track":12},{"t":2139.849,"dur":0.599,"note":69,"inst":"piano_v0_additive_0","vel":1.0,"bend":0.0,"ch":5,"track":12},{"t":2140.448,"dur":0.599,"note":25,"inst":"organ_v0_additive_1","vel":1.0,"bend":0.0,"ch":9,"track":12},{"t":2141.047,"dur":0.599,"note":31,"inst":"organ_v0_additive_1","vel":1.0,"bend":0.0,"ch":15,"track":12},{"t":2141.047,"dur":0.3,"note":69,"inst":"piano_v0_additive_0","vel":1.0,"bend":0.0,"ch":5,"track":12},{"t":2141.347,"dur":0.3,"note":75,"inst":"piano_v0_additive_0","vel":1.0,"bend":0.0,"ch":11,"track":12},{"t":2250.803,"dur":0.217,"note":44,"inst":"celesta_v0_additive_3","vel":0.709,"bend":0.0,"ch":12,"track":12},{"t":2250.803,"dur":0.217,"note":62,"inst":"celesta_v0_additive_3","vel":0.709,"bend":0.0,"ch":14,"track":12},{"t":2250.803,"dur":0.217,"note":71,"inst":"celesta_v0_additive_3","vel":0.709,"bend":0.0,"ch":7,"track":12},{"t":2251.02,"dur":0.217,"note":44,"inst":"celesta_v0_additive_3","vel":0.709,"bend":0.0,"ch":12,"track":12},{"t":2251.237,"dur":0.434,"note":44,"inst":"celesta_v0_additive_3","vel":0.709,"bend":0.0,"ch":12,"track":12},{"t":2251.671,"dur":0.217,"note":68,"inst":"celesta_v0_additive_3","vel":0.709,"bend":0.0,"ch":4,"track":12},{"t":2251.671,"dur":0.217,"note":71,"inst":"celesta_v0_additive_3","vel":0.709,"bend":0.0,"ch":7,"track":12},{"t":2251.888,"dur":0.434,"note":44,"inst":"celesta_v0_additive_3","vel":0.709,"bend":0.0,"ch":12,"track":12},{"t":2251.888,"dur":0.217,"note":68,"inst":"celesta_v0_additive_3","vel":0.709,"bend":0.0,"ch":4,"track":12},{"t":2251.888,"dur":0.217,"note":71,"inst":"celesta_v0_additive_3","vel":0.709,"bend":0.0,"ch":7,"track":12},{"t":2252.105,"dur":0.217,"note":69,"inst":"piano_v0_additive_0","vel":0.709,"bend":0.0,"ch":5,"track":12},{"t":2252.105,"dur":0.217,"note":73,"inst":"organ_v0_additive_1","vel":0.709,"bend":0.0,"ch":9,"track":12},{"t":2252.322,"dur":0.217,"note":69,"inst":"piano_v0_additive_0","vel":0.709,"bend":0.0,"ch":5,"track":12},{"t":2252.322,"dur":0.217,"note":73,"inst":"organ_v0_additive_1","vel":0.709,"bend":0.0,"ch":9,"track":12},{"t":2252.539,"dur":0.434,"note":44,"inst":"celesta_v0_additive_3","vel":0.709,"bend":0.0,"ch":12,"track":12},{"t":2252.539,"dur":0.217,"note":69,"inst":"piano_v0_additive_0","vel":0.709,"bend":0.0,"ch":5,"track":12},{"t":2252.539,"dur":0.217,"note":73,"inst":"organ_v0_additive_1","vel":0.709,"bend":0.0,"ch":9,"track":12},{"t":2252.756,"dur":0.217,"note":71,"inst":"celesta_v0_additive_3","vel":0.709,"bend":0.0,"ch":7,"track":12},{"t":2252.756,"dur":0.217,"note":74,"inst":"celesta_v0_additive_3","vel":0.709,"bend":0.0,"ch":10,"track":12},{"t":2252.973,"dur":0.217,"note":71,"inst":"celesta_v0_additive_3","vel":0.709,"bend":0.0,"ch":7,"track":12},{"t":2252.973,"dur":0.217,"note":74,"inst":"celesta_v0_additive_3","vel":0.709,"bend":0.0,"ch":10,"track":12},{"t":2253.19,"dur":0.434,"note":44,"inst":"celesta_v0_additive_3","vel":0.709,"bend":0.0,"ch":12,"track":12},{"t":2253.19,"dur":0.217,"note":71,"inst":"celesta_v0_additive_3","vel":0.709,"bend":0.0,"ch":7,"track":12},{"t":2253.19,"dur":0.217,"note":74,"inst":"celesta_v0_additive_3","vel":0.709,"bend":0.0,"ch":10,"track":12},{"t":2253.407,"dur":0.217,"note":71,"inst":"celesta_v0_additive_3","vel":0.709,"bend":0.0,"ch":7,"track":12},{"t":2253.407,"dur":0.217,"note":74,"inst":"celesta_v0_additive_3","vel":0.709,"bend":0.0,"ch":10,"track":12},{"t":2253.624,"dur":0.217,"note":71,"inst":"celesta_v0_additive_3","vel":0.709,"bend":0.0,"ch":7,"track":12},{"t":2253.624,"dur":0.217,"note":74,"inst":"celesta_v0_additive_3","vel":0.709,"bend":0.0,"ch":10,"track":12},{"t":2253.841,"dur":0.434,"note":44,"inst":"celesta_v0_additive_3","vel":0.709,"bend":0.0,"ch":12,"track":12},{"t":2253.841,"dur":0.217,"note":71,"inst":"celesta_v0_additive_3","vel":0.709,"bend":0.0,"ch":7,"track":12},{"t":2253.841,"dur":0.217,"note":74,"inst":"celesta_v0_additive_3","vel":0.709,"bend":0.0,"ch":10,"track":12},{"t":2254.058,"dur":0.217,"note":73,"inst":"organ_v0_additive_1","vel":0.709,"bend":0.0,"ch":9,"track":12},{"t":2254.058,"dur":0.217,"note":77,"inst":"celesta_v0_additive_3","vel":0.709,"bend":0.0,"ch":13,"track":12},{"t":2254.275,"dur":0.217,"note":73,"inst":"organ_v0_additive_1","vel":0.709,"bend":0.0,"ch":9,"track":12},{"t":2254.275,"dur":0.217,"note":77,"inst":"celesta_v0_additive_3","vel":0.709,"bend":0.0,"ch":13,"track":12},{"t":2254.492,"dur":1.736,"note":44,"inst":"celesta_v0_additive_3","vel":0.709,"bend":0.0,"ch":12,"track":12},{"t":2254.492,"dur":1.302,"note":74,"inst":"celesta_v0_additive_3","vel":0.709,"bend":0.0,"ch":10,"track":12},{"t":2254.492,"dur":1.302,"note":77,"inst":"celesta_v0_additive_3","vel":0.709,"bend":0.0,"ch":13,"track":12},{"t":2255.794,"dur":0.434,"note":74,"inst":"celesta_v0_additive_3","vel":0.709,"bend":0.0,"ch":10,"track":12},{"t":2255.794,"dur":0.434,"note":78,"inst":"piano_v0_additive_0","vel":0.709,"bend":0.0,"ch":14,"track":12},{"t":2256.879,"dur":0.217,"note":77,"inst":"celesta_v0_additive_3","vel":0.709,"bend":0.0,"ch":13,"track":12},{"t":2257.096,"dur":0.434,"note":49,"inst":"organ_v0_additive_1","vel":0.709,"bend":0.0,"ch":1,"track":12},{"t":2257.096,"dur":0.434,"note":65,"inst":"celesta_v0_additive_3","vel":0.709,"bend":0.0,"ch":1,"track":12},{"t":2257.096,"dur":0.434,"note":68,"inst":"celesta_v0_additive_3","vel":0.709,"bend":0.0,"ch":4,"track":12},{"t":2257.096,"dur":0.434,"note":77,"inst":"celesta_v0_additive_3","vel":0.709,"bend":0.0,"ch":13,"track":12},{"t":2257.53,"dur":0.217,"note":78,"inst":"piano_v0_additive_0","vel":0.709,"bend":0.0,"ch":14,"track":12},{"t":2257.747,"dur":0.434,"note":44,"inst":"celesta_v0_additive_3","vel":0.709,"bend":0.0,"ch":12,"track":12},{"t":2257.747,"dur":0.434,"note":62,"inst":"celesta_v0_additive_3","vel":0.709,"bend":0.0,"ch":14,"track":12},{"t":2257.747,"dur":0.434,"note":66,"inst":"piano_v0_additive_0","vel":0.709,"bend":0.0,"ch":2,"track":12},{"t":2257.747,"dur":0.217,"note":74,"inst":"celesta_v0_additive_3","vel":0.709,"bend":0.0,"ch":10,"track":12},{"t":2257.964,"dur":0.217,"note":77,"inst":"celesta_v0_additive_3","vel":0.709,"bend":0.0,"ch":13,"track":12},{"t":2258.181,"dur":0.217,"note":78,"inst":"piano_v0_additive_0","vel":0.709,"bend":0.0,"ch":14,"track":12},{"t":2258.398,"dur":0.434,"note":37,"inst":"organ_v0_additive_1","vel":0.709,"bend":0.0,"ch":5,"track":12},{"t":2258.398,"dur":0.434,"note":61,"inst":"organ_v0_additive_1","vel":0.709,"bend":0.0,"ch":13,"track":12},{"t":2258.398,"dur":0.434,"note":65,"inst":"celesta_v0_additive_3","vel":0.709,"bend":0.0,"ch":1,"track":12},{"t":2258.398,"dur":0.217,"note":80,"inst":"celesta_v0_additive_3","vel":0.709,"bend":0.0,"ch":0,"track":12},{"t":2258.615,"dur":0.217,"note":77,"inst":"celesta_v0_additive_3","vel":0.709,"bend":0.0,"ch":13,"track":12},{"t":2258.832,"dur":0.217,"note":73,"inst":"organ_v0_additive_1","vel":0.709,"bend":0.0,"ch":9,"track":12},{"t":2259.049,"dur":0.217,"note":73,"inst":"organ_v0_additive_1","vel":0.709,"bend":0.0,"ch":9,"track":12},{"t":2259.483,"dur":0.217,"note":74,"inst":"celesta_v0_additive_3","vel":0.709,"bend":0.0,"ch":10,"track":12},{"t":2259.7,"dur":0.434,"note":68,"inst":"celesta_v0_additive_3","vel":0.709,"bend":0.0,"ch":4,"track":12},{"t":2259.7,"dur":0.434,"note":71,"inst":"celesta_v0_additive_3","vel":0.709,"bend":0.0,"ch":7,"track":12},{"t":2259.7,"dur":0.434,"note":74,"inst":"celesta_v0_additive_3","vel":0.709,"bend":0.0,"ch":10,"track":12},{"t":2260.134,"dur":0.217,"note":77,"inst":"celesta_v0_additive_3","vel":0.709,"bend":0.0,"ch":13,"track":12},{"t":2260.351,"dur":0.434,"note":62,"inst":"celesta_v0_additive_3","vel":0.709,"bend":0.0,"ch":14,"track":12},{"t":2260.351,"dur":0.434,"note":66,"inst":"piano_v0_additive_0","vel":0.709,"bend":0.0,"ch":2,"track":12},{"t":2260.351,"dur":0.217,"note":73,"inst":"organ_v0_additive_1","vel":0.709,"bend":0.0,"ch":9,"track":12},{"t":2260.568,"dur":0.217,"note":71,"inst":"celesta_v0_additive_3","vel":0.709,"bend":0.0,"ch":7,"track":12},{"t":2260.785,"dur":0.217,"note":69,"inst":"piano_v0_additive_0","vel":0.709,"bend":0.0,"ch":5,"track":12},{"t":2261.002,"dur":0.434,"note":59,"inst":"celesta_v0_additive_3","vel":0.709,"bend":0.0,"ch":11,"track":12},{"t":2261.002,"dur":0.434,"note":62,"inst":"celesta_v0_additive_3","vel":0.709,"bend":0.0,"ch":14,"track":12},{"t":2261.002,"dur":0.217,"note":68,"inst":"celesta_v0_additive_3","vel":0.709,"bend":0.0,"ch":4,"track":12},{"t":2261.219,"dur":0.217,"note":66,"inst":"piano_v0_additive_0","vel":0.709,"bend":0.0,"ch":2,"track":12},{"t":2261.436,"dur":0.217,"note":68,"inst":"celesta_v0_additive_3","vel":0.709,"bend":0.0,"ch":4,"track":12},{"t":2261.653,"dur":0.217,"note":68,"inst":"celesta_v0_additive_3","vel":0.709,"bend":0.0,"ch":4,"track":12},{"t":2262.087,"dur":0.217,"note":69,"inst":"piano_v0_additive_0","vel":0.709,"bend":0.0,"ch":5,"track":12},{"t":2262.304,"dur":0.651,"note":54,"inst":"piano_v0_additive_0","vel":0.709,"bend":0.0,"ch":6,"track":12},{"t":2262.304,"dur":1.302,"note":54,"inst":"piano_v0_additive_0","vel":0.709,"bend":0.0,"ch":6,"track":12},{"t":2262.304,"dur":0.651,"note":61,"inst":"organ_v0_additive_1","vel":0.709,"bend":0.0,"ch":13,"track":12},{"t":2262.304,"dur":0.434,"note":69,"inst":"piano_v0_additive_0","vel":0.709,"bend":0.0,"ch":5,"track":12},{"t":2262.738,"dur":0.217,"note":69,"inst":"piano_v0_additive_0","vel":0.709,"bend":0.0,"ch":5,"track":12},{"t":2262.955,"dur":0.651,"note":56,"inst":"celesta_v0_additive_3","vel":0.709,"bend":0.0,"ch":8,"track":12},{"t":2262.955,"dur":0.651,"note":59,"inst":"celesta_v0_additive_3","vel":0.709,"bend":0.0,"ch":11,"track":12},{"t":2262.955,"dur":0.217,"note":66,"inst":"piano_v0_additive_0","vel":0.709,"bend":0.0,"ch":2,"track":12},{"t":2263.172,"dur":0.217,"note":65,"inst":"celesta_v0_additive_3","vel":0.709,"bend":0.0,"ch":1,"track":12},{"t":2263.389,"dur":0.217,"note":62,"inst":"celesta_v0_additive_3","vel":0.709,"bend":0.0,"ch":14,"track":12},{"t":2263.606,"dur":0.434,"note":53,"inst":"celesta_v0_additive_3","vel":0.709,"bend":0.0,"ch":5,"track":12},{"t":2263.606,"dur":0.434,"note":56,"inst":"celesta_v0_additive_3","vel":0.709,"bend":0.0,"ch":8,"track":12},{"t":2263.606,"dur":0.434,"note":61,"inst":"organ_v0_additive_1","vel":0.709,"bend":0.0,"ch":13,"track":12},{"t":2263.606,"dur":0.217,"note":68,"inst":"celesta_v0_additive_3","vel":0.709,"bend":0.0,"ch":4,"track":12},{"t":2263.823,"dur":0.217,"note":69,"inst":"piano_v0_additive_0","vel":0.709,"bend":0.0,"ch":5,"track":12},{"t":2264.04,"dur":0.217,"note":71,"inst":"celesta_v0_additive_3","vel":0.709,"bend":0.0,"ch":7,"track":12},{"t":2264.257,"dur":0.217,"note":73,"inst":"organ_v0_additive_1","vel":0.709,"bend":0.0,"ch":9,"track":12},{"t":2264.474,"dur":0.217,"note":74,"inst":"celesta_v0_additive_3","vel":0.709,"bend":0.0,"ch":10,"track":12},{"t":2264.691,"dur":0.217,"note":77,"inst":"celesta_v0_additive_3","vel":0.709,"bend":0.0,"ch":13,"track":12},{"t":2264.908,"dur":0.434,"note":54,"inst":"piano_v0_additive_0","vel":0.709,"bend":0.0,"ch":6,"track":12},{"t":2264.908,"dur":0.434,"note":54,"inst":"piano_v0_additive_0","vel":0.709,"bend":0.0,"ch":6,"track":12},{"t":2264.908,"dur":0.434,"note":69,"inst":"piano_v0_additive_0","vel":0.709,"bend":0.0,"ch":5,"track":12},{"t":2264.908,"dur":0.434,"note":78,"inst":"piano_v0_additive_0","vel":0.709,"bend":0.0,"ch":14,"track":12},{"t":2265.559,"dur":0.434,"note":56,"inst":"celesta_v0_additive_3","vel":0.709,"bend":0.0,"ch":8,"track":12},{"t":2265.559,"dur":0.434,"note":56,"inst":"celesta_v0_additive_3","vel":0.709,"bend":0.0,"ch":8,"track":12},{"t":2265.559,"dur":0.217,"note":66,"inst":"piano_v0_additive_0","vel":0.709,"bend":0.0,"ch":2,"track":12},{"t":2265.559,"dur":0.217,"note":74,"inst":"celesta_v0_additive_3","vel":0.709,"bend":0.0,"ch":10,"track":12},{"t":2265.776,"dur":0.217,"note":65,"inst":"celesta_v0_additive_3","vel":0.709,"bend":0.0,"ch":1,"track":12},{"t":2265.776,"dur":0.217,"note":73,"inst":"organ_v0_additive_1","vel":0.709,"bend":0.0,"ch":9,"track":12},{"t":2265.993,"dur":0.217,"note":62,"inst":"celesta_v0_additive_3","vel":0.709,"bend":0.0,"ch":14,"track":12},{"t":2265.993,"dur":0.217,"note":71,"inst":"celesta_v0_additive_3","vel":0.709,"bend":0.0,"ch":7,"track":12},{"t":2266.21,"dur":0.434,"note":49,"inst":"organ_v0_additive_1","vel":0.709,"bend":0.0,"ch":1,"track":12},{"t":2266.21,"dur":0.434,"note":49,"inst":"organ_v0_additive_1","vel":0.709,"bend":0.0,"ch":1,"track":12},{"t":2266.21,"dur":0.434,"note":61,"inst":"organ_v0_additive_1","vel":0.709,"bend":0.0,"ch":13,"track":12},{"t":2266.21,"dur":0.434,"note":73,"inst":"organ_v0_additive_1","vel":0.709,"bend":0.0,"ch":9,"track":12},{"t":2267.512,"dur":0.434,"note":49,"inst":"organ_v0_additive_1","vel":0.709,"bend":0.0,"ch":1,"track":12},{"t":2267.512,"dur":6.51,"note":49,"inst":"organ_v0_additive_1","vel":0.709,"bend":0.0,"ch":1,"track":12},{"t":2267.512,"dur":0.651,"note":61,"inst":"organ_v0_additive_1","vel":0.709,"bend":0.0,"ch":13,"track":12},{"t":2267.512,"dur":0.434,"note":73,"inst":"organ_v0_additive_1","vel":0.709,"bend":0.0,"ch":9,"track":12},{"t":2268.163,"dur":0.651,"note":69,"inst":"piano_v0_additive_0","vel":0.709,"bend":0.0,"ch":5,"track":12},{"t":2268.597,"dur":0.217,"note":73,"inst":"organ_v0_additive_1","vel":0.709,"bend":0.0,"ch":9,"track":12},{"t":2268.814,"dur":0.434,"note":68,"inst":"celesta_v0_additive_3","vel":0.709,"bend":0.0,"ch":4,"track":12},{"t":2268.814,"dur":0.217,"note":71,"inst":"celesta_v0_additive_3","vel":0.709,"bend":0.0,"ch":7,"track":12},{"t":2269.031,"dur":0.217,"note":73,"inst":"organ_v0_additive_1","vel":0.709,"bend":0.0,"ch":9,"track":12},{"t":2269.248,"dur":0.217,"note":66,"inst":"piano_v0_additive_0","vel":0.709,"bend":0.0,"ch":2,"track":12},{"t":2269.248,"dur":0.217,"note":69,"inst":"piano_v0_additive_0","vel":0.709,"bend":0.0,"ch":5,"track":12},{"t":2269.465,"dur":0.434,"note":65,"inst":"celesta_v0_additive_3","vel":0.709,"bend":0.0,"ch":1,"track":12},{"t":2269.465,"dur":0.217,"note":68,"inst":"celesta_v0_additive_3","vel":0.709,"bend":0.0,"ch":4,"track":12},{"t":2269.682,"dur":0.217,"note":69,"inst":"piano_v0_additive_0","vel":0.709,"bend":0.0,"ch":5,"track":12},{"t":2269.899,"dur":0.217,"note":62,"inst":"celesta_v0_additive_3","vel":0.709,"bend":0.0,"ch":14,"track":12},{"t":2269.899,"dur":0.217,"note":66,"inst":"piano_v0_additive_0","vel":0.709,"bend":0.0,"ch":2,"track":12},{"t":2270.116,"dur":0.434,"note":49,"inst":"organ_v0_additive_1","vel":0.709,"bend":0.0,"ch":1,"track":12},{"t":2270.116,"dur":0.217,"note":61,"inst":"organ_v0_additive_1","vel":0.709,"bend":0.0,"ch":13,"track":12},{"t":2270.116,"dur":0.217,"note":65,"inst":"celesta_v0_additive_3","vel":0.709,"bend":0.0,"ch":1,"track":12},{"t":2270.333,"dur":0.217,"note":62,"inst":"celesta_v0_additive_3","vel":0.709,"bend":0.0,"ch":14,"track":12},{"t":2270.333,"dur":0.217,"note":66,"inst":"piano_v0_additive_0","vel":0.709,"bend":0.0,"ch":2,"track":12},{"t":2270.55,"dur":0.217,"note":65,"inst":"celesta_v0_additive_3","vel":0.709,"bend":0.0,"ch":1,"track":12},{"t":2270.55,"dur":0.217,"note":68,"inst":"celesta_v0_additive_3","vel":0.709,"bend":0.0,"ch":4,"track":12},{"t":2270.767,"dur":0.434,"note":65,"inst":"celesta_v0_additive_3","vel":0.709,"bend":0.0,"ch":1,"track":12},{"t":2270.767,"dur":0.434,"note":68,"inst":"celesta_v0_additive_3","vel":0.709,"bend":0.0,"ch":4,"track":12},{"t":2271.201,"dur":0.217,"note":69,"inst":"piano_v0_additive_0","vel":0.709,"bend":0.0,"ch":5,"track":12},{"t":2271.201,"dur":0.217,"note":73,"inst":"organ_v0_additive_1","vel":0.709,"bend":0.0,"ch":9,"track":12},{"t":2271.418,"dur":0.434,"note":68,"inst":"celesta_v0_additive_3","vel":0.709,"bend":0.0,"ch":4,"track":12},{"t":2271.418,"dur":0.217,"note":71,"inst":"celesta_v0_additive_3","vel":0.709,"bend":0.0,"ch":7,"track":12},{"t":2271.635,"dur":0.217,"note":73,"inst":"organ_v0_additive_1","vel":0.709,"bend":0.0,"ch":9,"track":12},{"t":2271.852,"dur":0.217,"note":66,"inst":"piano_v0_additive_0","vel":0.709,"bend":0.0,"ch":2,"track":12},{"t":2271.852,"dur":0.217,"note":69,"inst":"piano_v0_additive_0","vel":0.709,"bend":0.0,"ch":5,"track":12},{"t":2272.069,"dur":0.434,"note":65,"inst":"celesta_v0_additive_3","vel":0.709,"bend":0.0,"ch":1,"track":12},{"t":2272.069,"dur":0.217,"note":68,"inst":"celesta_v0_additive_3","vel":0.709,"bend":0.0,"ch":4,"track":12},{"t":2272.286,"dur":0.217,"note":69,"inst":"piano_v0_additive_0","vel":0.709,"bend":0.0,"ch":5,"track":12},{"t":2272.503,"dur":0.217,"note":62,"inst":"celesta_v0_additive_3","vel":0.709,"bend":0.0,"ch":14,"track":12},{"t":2272.503,"dur":0.217,"note":66,"inst":"piano_v0_additive_0","vel":0.709,"bend":0.0,"ch":2,"track":12},{"t":2272.72,"dur":1.302,"note":56,"inst":"celesta_v0_additive_3","vel":0.709,"bend":0.0,"ch":8,"track":12},{"t":2272.72,"dur":0.651,"note":61,"inst":"organ_v0_additive_1","vel":0.709,"bend":0.0,"ch":13,"track":12},{"t":2272.72,"dur":0.217,"note":65,"inst":"celesta_v0_additive_3","vel":0.709,"bend":0.0,"ch":1,"track":12},{"t":2272.937,"dur":0.217,"note":66,"inst":"piano_v0_additive_0","vel":0.709,"bend":0.0,"ch":2,"track":12},{"t":2273.154,"dur":0.217,"note":68,"inst":"celesta_v0_additive_3","vel":0.709,"bend":0.0,"ch":4,"track":12},{"t":2273.371,"dur":0.651,"note":59,"inst":"celesta_v0_additive_3","vel":0.709,"bend":0.0,"ch":11,"track":12},{"t":2273.371,"dur":0.217,"note":61,"inst":"organ_v0_additive_1","vel":0.709,"bend":0.0,"ch":13,"track":12},{"t":2273.588,"dur":0.217,"note":62,"inst":"celesta_v0_additive_3","vel":0.709,"bend":0.0,"ch":14,"track":12},{"t":2273.805,"dur":0.217,"note":65,"inst":"celesta_v0_additive_3","vel":0.709,"bend":0.0,"ch":1,"track":12},{"t":2274.022,"dur":0.651,"note":49,"inst":"organ_v0_additive_1","vel":0.709,"bend":0.0,"ch":1,"track":12},{"t":2274.022,"dur":0.651,"note":54,"inst":"piano_v0_additive_0","vel":0.709,"bend":0.0,"ch":6,"track":12},{"t":2274.022,"dur":0.651,"note":57,"inst":"piano_v0_additive_0","vel":0.709,"bend":0.0,"ch":9,"track":12},{"t":2274.022,"dur":0.868,"note":66,"inst":"piano_v0_additive_0","vel":0.709,"bend":0.0,"ch":2,"track":12},{"t":2274.673,"dur":0.651,"note":49,"inst":"organ_v0_additive_1","vel":0.709,"bend":0.0,"ch":1,"track":12},{"t":2274.673,"dur":0.651,"note":54,"inst":"piano_v0_additive_0","vel":0.709,"bend":0.0,"ch":6,"track":12},{"t":2274.673,"dur":0.651,"note":57,"inst":"piano_v0_additive_0","vel":0.709,"bend":0.0,"ch":9,"track":12},{"t":2274.89,"dur":0.217,"note":54,"inst":"piano_v0_additive_0","vel":0.709,"bend":0.0,"ch":6,"track":12},{"t":2274.89,"dur":0.217,"note":66,"inst":"piano_v0_additive_0","vel":0.709,"bend":0.0,"ch":2,"track":12},{"t":2292.81,"dur":0.117,"note":76,"inst":"organ_v0_additive_1","vel":0.709,"bend":0.0,"ch":12,"track":12},{"t":2292.928,"dur":0.117,"note":71,"inst":"celesta_v0_additive_3","vel":0.709,"bend":0.0,"ch":7,"track":12},{"t":2293.045,"dur":0.117,"note":68,"inst":"celesta_v0_additive_3","vel":0.709,"bend":0.0,"ch":4,"track":12},{"t":2293.163,"dur":0.117,"note":80,"inst":"celesta_v0_additive_3","vel":0.709,"bend":0.0,"ch":0,"track":12},{"t":2293.28,"dur":0.117,"note":78,"inst":"piano_v0_additive_0","vel":0.709,"bend":0.0,"ch":14,"track":12},{"t":2293.398,"dur":0.353,"note":62,"inst":"celesta_v0_additive_3","vel":0.709,"bend":0.0,"ch":14,"track":12},{"t":2293.398,"dur":0.117,"note":76,"inst":"organ_v0_additive_1","vel":0.709,"bend":0.0,"ch":12,"track":12},{"t":2293.515,"dur":0.117,"note":76,"inst":"organ_v0_additive_1","vel":0.709,"bend":0.0,"ch":12,"track":12},{"t":2293.633,"dur":0.117,"note":74,"inst":"celesta_v0_additive_3","vel":0.709,"bend":0.0,"ch":10,"track":12},{"t":2293.75,"dur":0.353,"note":50,"inst":"celesta_v0_additive_3","vel":0.709,"bend":0.0,"ch":2,"track":12},{"t":2293.75,"dur":0.117,"note":71,"inst":"celesta_v0_additive_3","vel":0.709,"bend":0.0,"ch":7,"track":12},{"t":2293.868,"dur":0.117,"note":71,"inst":"celesta_v0_additive_3","vel":0.709,"bend":0.0,"ch":7,"track":12},{"t":2293.985,"dur":0.117,"note":68,"inst":"celesta_v0_additive_3","vel":0.709,"bend":0.0,"ch":4,"track":12},{"t":2294.103,"dur":0.353,"note":52,"inst":"organ_v0_additive_1","vel":0.709,"bend":0.0,"ch":4,"track":12},{"t":2294.103,"dur":0.117,"note":68,"inst":"celesta_v0_additive_3","vel":0.709,"bend":0.0,"ch":4,"track":12},{"t":2294.22,"dur":0.117,"note":68,"inst":"celesta_v0_additive_3","vel":0.709,"bend":0.0,"ch":4,"track":12},{"t":2294.338,"dur":0.117,"note":71,"inst":"celesta_v0_additive_3","vel":0.709,"bend":0.0,"ch":7,"track":12},{"t":2294.455,"dur":0.176,"note":47,"inst":"celesta_v0_additive_3","vel":0.709,"bend":0.0,"ch":15,"track":12},{"t":2294.455,"dur":0.117,"note":64,"inst":"organ_v0_additive_1","vel":0.709,"bend":0.0,"ch":0,"track":12},{"t":2294.573,"dur":0.117,"note":64,"inst":"organ_v0_additive_1","vel":0.709,"bend":0.0,"ch":0,"track":12},{"t":2294.632,"dur":0.176,"note":50,"inst":"celesta_v0_additive_3","vel":0.709,"bend":0.0,"ch":2,"track":12},{"t":2294.69,"dur":0.117,"note":62,"inst":"celesta_v0_additive_3","vel":0.709,"bend":0.0,"ch":14,"track":12},{"t":2294.808,"dur":0.353,"note":52,"inst":"organ_v0_additive_1","vel":0.709,"bend":0.0,"ch":4,"track":12},{"t":2294.808,"dur":0.117,"note":59,"inst":"celesta_v0_additive_3","vel":0.709,"bend":0.0,"ch":11,"track":12},{"t":2294.925,"dur":0.117,"note":64,"inst":"organ_v0_additive_1","vel":0.709,"bend":0.0,"ch":0,"track":12},{"t":2295.043,"dur":0.117,"note":68,"inst":"celesta_v0_additive_3","vel":0.709,"bend":0.0,"ch":4,"track":12},{"t":2295.16,"dur":0.353,"note":40,"inst":"organ_v0_additive_1","vel":0.709,"bend":0.0,"ch":8,"track":12},{"t":2295.16,"dur":0.117,"note":59,"inst":"celesta_v0_additive_3","vel":0.709,"bend":0.0,"ch":11,"track":12},{"t":2295.278,"dur":0.117,"note":68,"inst":"celesta_v0_additive_3","vel":0.709,"bend":0.0,"ch":4,"track":12},{"t":2295.395,"dur":0.117,"note":68,"inst":"celesta_v0_additive_3","vel":0.709,"bend":0.0,"ch":4,"track":12},{"t":2295.513,"dur":0.705,"note":44,"inst":"celesta_v0_additive_3","vel":0.709,"bend":0.0,"ch":12,"track":12},{"t":2295.513,"dur":0.353,"note":56,"inst":"celesta_v0_additive_3","vel":0.709,"bend":0.0,"ch":8,"track":12},{"t":2295.983,"dur":0.117,"note":83,"inst":"celesta_v0_additive_3","vel":0.709,"bend":0.0,"ch":3,"track":12},{"t":2296.1,"dur":0.117,"note":83,"inst":"celesta_v0_additive_3","vel":0.709,"bend":0.0,"ch":3,"track":12},{"t":2296.218,"dur":0.353,"note":56,"inst":"celesta_v0_additive_3","vel":0.709,"bend":0.0,"ch":8,"track":12},{"t":2296.218,"dur":0.117,"note":76,"inst":"organ_v0_additive_1","vel":0.709,"bend":0.0,"ch":12,"track":12},{"t":2296.335,"dur":0.117,"note":83,"inst":"celesta_v0_additive_3","vel":0.709,"bend":0.0,"ch":3,"track":12},{"t":2296.453,"dur":0.117,"note":83,"inst":"celesta_v0_additive_3","vel":0.709,"bend":0.0,"ch":3,"track":12},{"t":2296.57,"dur":0.353,"note":44,"inst":"celesta_v0_additive_3","vel":0.709,"bend":0.0,"ch":12,"track":12},{"t":2296.57,"dur":0.117,"note":76,"inst":"organ_v0_additive_1","vel":0.709,"bend":0.0,"ch":12,"track":12},{"t":2296.688,"dur":0.117,"note":83,"inst":"celesta_v0_additive_3","vel":0.709,"bend":0.0,"ch":3,"track":12},{"t":2296.805,"dur":0.117,"note":83,"inst":"celesta_v0_additive_3","vel":0.709,"bend":0.0,"ch":3,"track":12},{"t":2296.923,"dur":0.353,"note":50,"inst":"celesta_v0_additive_3","vel":0.709,"bend":0.0,"ch":2,"track":12},{"t":2296.923,"dur":0.117,"note":78,"inst":"piano_v0_additive_0","vel":0.709,"bend":0.0,"ch":14,"track":12},{"t":2297.04,"dur":0.117,"note":83,"inst":"celesta_v0_additive_3","vel":0.709,"bend":0.0,"ch":3,"track":12},{"t":2297.158,"dur":0.117,"note":83,"inst":"celesta_v0_additive_3","vel":0.709,"bend":0.0,"ch":3,"track":12},{"t":2297.275,"dur":0.117,"note":78,"inst":"piano_v0_additive_0","vel":0.709,"bend":0.0,"ch":14,"track":12},{"t":2297.393,"dur":0.117,"note":83,"inst":"celesta_v0_additive_3","vel":0.709,"bend":0.0,"ch":3,"track":12},{"t":2297.51,"dur":0.117,"note":83,"inst":"celesta_v0_additive_3","vel":0.709,"bend":0.0,"ch":3,"track":12},{"t":2297.628,"dur":0.353,"note":54,"inst":"piano_v0_additive_0","vel":0.709,"bend":0.0,"ch":6,"track":12},{"t":2297.628,"dur":0.117,"note":78,"inst":"piano_v0_additive_0","vel":0.709,"bend":0.0,"ch":14,"track":12},{"t":2297.745,"dur":0.117,"note":83,"inst":"celesta_v0_additive_3","vel":0.709,"bend":0.0,"ch":3,"track":12},{"t":2297.863,"dur":0.117,"note":83,"inst":"celesta_v0_additive_3","vel":0.709,"bend":0.0,"ch":3,"track":12},{"t":2297.98,"dur":0.353,"note":42,"inst":"piano_v0_additive_0","vel":0.709,"bend":0.0,"ch":10,"track":12},{"t":2297.98,"dur":0.117,"note":78,"inst":"piano_v0_additive_0","vel":0.709,"bend":0.0,"ch":14,"track":12},{"t":2298.098,"dur":0.117,"note":83,"inst":"celesta_v0_additive_3","vel":0.709,"bend":0.0,"ch":3,"track":12},{"t":2298.216,"dur":0.117,"note":83,"inst":"celesta_v0_additive_3","vel":0.709,"bend":0.0,"ch":3,"track":12},{"t":2298.333,"dur":0.353,"note":47,"inst":"celesta_v0_additive_3","vel":0.709,"bend":0.0,"ch":15,"track":12},{"t":2298.333,"dur":0.117,"note":76,"inst":"organ_v0_additive_1","vel":0.709,"bend":0.0,"ch":12,"track":12},{"t":2298.45,"dur":0.117,"note":83,"inst":"celesta_v0_additive_3","vel":0.709,"bend":0.0,"ch":3,"track":12},{"t":2298.568,"dur":0.117,"note":83,"inst":"celesta_v0_additive_3","vel":0.709,"bend":0.0,"ch":3,"track":12},{"t":2298.685,"dur":0.117,"note":76,"inst":"organ_v0_additive_1","vel":0.709,"bend":0.0,"ch":12,"track":12},{"t":2298.803,"dur":0.117,"note":83,"inst":"celesta_v0_additive_3","vel":0.709,"bend":0.0,"ch":3,"track":12},{"t":2298.921,"dur":0.117,"note":83,"inst":"celesta_v0_additive_3","vel":0.709,"bend":0.0,"ch":3,"track":12},{"t":2299.038,"dur":0.353,"note":54,"inst":"piano_v0_additive_0","vel":0.709,"bend":0.0,"ch":6,"track":12},{"t":2299.038,"dur":0.117,"note":78,"inst":"piano_v0_additive_0","vel":0.709,"bend":0.0,"ch":14,"track":12},{"t":2299.155,"dur":0.117,"note":80,"inst":"celesta_v0_additive_3","vel":0.709,"bend":0.0,"ch":0,"track":12},{"t":2299.273,"dur":0.117,"note":80,"inst":"celesta_v0_additive_3","vel":0.709,"bend":0.0,"ch":0,"track":12},{"t":2299.39,"dur":0.353,"note":42,"inst":"piano_v0_additive_0","vel":0.709,"bend":0.0,"ch":10,"track":12},{"t":2299.39,"dur":0.117,"note":78,"inst":"piano_v0_additive_0","vel":0.709,"bend":0.0,"ch":14,"track":12},{"t":2299.508,"dur":0.117,"note":80,"inst":"celesta_v0_additive_3","vel":0.709,"bend":0.0,"ch":0,"track":12},{"t":2299.626,"dur":0.117,"note":80,"inst":"celesta_v0_additive_3","vel":0.709,"bend":0.0,"ch":0,"track":12},{"t":2299.743,"dur":0.353,"note":47,"inst":"celesta_v0_additive_3","vel":0.709,"bend":0.0,"ch":15,"track":12},{"t":2299.743,"dur":0.117,"note":74,"inst":"celesta_v0_additive_3","vel":0.709,"bend":0.0,"ch":10,"track":12},{"t":2299.86,"dur":0.117,"note":80,"inst":"celesta_v0_additive_3","vel":0.709,"bend":0.0,"ch":0,"track":12},{"t":2299.978,"dur":0.117,"note":80,"inst":"celesta_v0_additive_3","vel":0.709,"bend":0.0,"ch":0,"track":12},{"t":2300.095,"dur":0.117,"note":74,"inst":"celesta_v0_additive_3","vel":0.709,"bend":0.0,"ch":10,"track":12},{"t":2300.213,"dur":0.117,"note":80,"inst":"celesta_v0_additive_3","vel":0.709,"bend":0.0,"ch":0,"track":12},{"t":2300.331,"dur":0.117,"note":80,"inst":"celesta_v0_additive_3","vel":0.709,"bend":0.0,"ch":0,"track":12},{"t":2300.448,"dur":0.353,"note":52,"inst":"organ_v0_additive_1","vel":0.709,"bend":0.0,"ch":4,"track":12},{"t":2300.448,"dur":0.117,"note":76,"inst":"organ_v0_additive_1","vel":0.709,"bend":0.0,"ch":12,"track":12},{"t":2300.565,"dur":0.117,"note":78,"inst":"piano_v0_additive_0","vel":0.709,"bend":0.0,"ch":14,"track":12},{"t":2300.683,"dur":0.117,"note":78,"inst":"piano_v0_additive_0","vel":0.709,"bend":0.0,"ch":14,"track":12},{"t":2300.8,"dur":0.353,"note":40,"inst":"organ_v0_additive_1","vel":0.709,"bend":0.0,"ch":8,"track":12},{"t":2300.8,"dur":0.117,"note":76,"inst":"organ_v0_additive_1","vel":0.709,"bend":0.0,"ch":12,"track":12},{"t":2300.918,"dur":0.117,"note":78,"inst":"piano_v0_additive_0","vel":0.709,"bend":0.0,"ch":14,"track":12},{"t":2301.036,"dur":0.117,"note":78,"inst":"piano_v0_additive_0","vel":0.709,"bend":0.0,"ch":14,"track":12},{"t":2301.153,"dur":0.353,"note":44,"inst":"celesta_v0_additive_3","vel":0.709,"bend":0.0,"ch":12,"track":12},{"t":2301.153,"dur":0.117,"note":71,"inst":"celesta_v0_additive_3","vel":0.709,"bend":0.0,"ch":7,"track":12},{"t":2301.27,"dur":0.117,"note":76,"inst":"organ_v0_additive_1","vel":0.709,"bend":0.0,"ch":12,"track":12},{"t":2301.388,"dur":0.117,"note":76,"inst":"organ_v0_additive_1","vel":0.709,"bend":0.0,"ch":12,"track":12},{"t":2301.506,"dur":0.117,"note":71,"inst":"celesta_v0_additive_3","vel":0.709,"bend":0.0,"ch":7,"track":12},{"t":2301.623,"dur":0.117,"note":80,"inst":"celesta_v0_additive_3","vel":0.709,"bend":0.0,"ch":0,"track":12},{"t":2301.741,"dur":0.117,"note":80,"inst":"celesta_v0_additive_3","vel":0.709,"bend":0.0,"ch":0,"track":12},{"t":2301.858,"dur":0.353,"note":47,"inst":"celesta_v0_additive_3","vel":0.709,"bend":0.0,"ch":15,"track":12},{"t":2301.858,"dur":0.117,"note":74,"inst":"celesta_v0_additive_3","vel":0.709,"bend":0.0,"ch":10,"track":12},{"t":2301.975,"dur":0.117,"note":80,"inst":"celesta_v0_additive_3","vel":0.709,"bend":0.0,"ch":0,"track":12},{"t":2302.093,"dur":0.117,"note":80,"inst":"celesta_v0_additive_3","vel":0.709,"bend":0.0,"ch":0,"track":12},{"t":2302.211,"dur":0.353,"note":47,"inst":"celesta_v0_additive_3","vel":0.709,"bend":0.0,"ch":15,"track":12},{"t":2302.211,"dur":0.117,"note":76,"inst":"organ_v0_additive_1","vel":0.709,"bend":0.0,"ch":12,"track":12},{"t":2302.328,"dur":0.117,"note":78,"inst":"piano_v0_additive_0","vel":0.709,"bend":0.0,"ch":14,"track":12},{"t":2302.446,"dur":0.117,"note":78,"inst":"piano_v0_additive_0","vel":0.709,"bend":0.0,"ch":14,"track":12},{"t":2302.563,"dur":0.353,"note":44,"inst":"celesta_v0_additive_3","vel":0.709,"bend":0.0,"ch":12,"track":12},{"t":2302.563,"dur":0.117,"note":68,"inst":"celesta_v0_additive_3","vel":0.709,"bend":0.0,"ch":4,"track":12},{"t":2302.68,"dur":0.117,"note":76,"inst":"organ_v0_additive_1","vel":0.709,"bend":0.0,"ch":12,"track":12},{"t":2302.798,"dur":0.117,"note":76,"inst":"organ_v0_additive_1","vel":0.709,"bend":0.0,"ch":12,"track":12},{"t":2302.916,"dur":0.353,"note":47,"inst":"celesta_v0_additive_3","vel":0.709,"bend":0.0,"ch":15,"track":12},{"t":2302.916,"dur":0.117,"note":71,"inst":"celesta_v0_additive_3","vel":0.709,"bend":0.0,"ch":7,"track":12},{"t":2303.033,"dur":0.117,"note":76,"inst":"organ_v0_additive_1","vel":0.709,"bend":0.0,"ch":12,"track":12},{"t":2303.151,"dur":0.117,"note":74,"inst":"celesta_v0_additive_3","vel":0.709,"bend":0.0,"ch":10,"track":12},{"t":2303.268,"dur":0.705,"note":52,"inst":"organ_v0_additive_1","vel":0.709,"bend":0.0,"ch":4,"track":12},{"t":2303.268,"dur":0.117,"note":76,"inst":"organ_v0_additive_1","vel":0.709,"bend":0.0,"ch":12,"track":12},{"t":2303.385,"dur":0.117,"note":78,"inst":"piano_v0_additive_0","vel":0.709,"bend":0.0,"ch":14,"track":12},{"t":2303.503,"dur":0.117,"note":78,"inst":"piano_v0_additive_0","vel":0.709,"bend":0.0,"ch":14,"track":12},{"t":2303.621,"dur":0.117,"note":76,"inst":"organ_v0_additive_1","vel":0.709,"bend":0.0,"ch":12,"track":12},{"t":2303.738,"dur":0.117,"note":78,"inst":"piano_v0_additive_0","vel":0.709,"bend":0.0,"ch":14,"track":12},{"t":2303.856,"dur":0.117,"note":78,"inst":"piano_v0_additive_0","vel":0.709,"bend":0.0,"ch":14,"track":12},{"t":2303.973,"dur":0.353,"note":56,"inst":"celesta_v0_additive_3","vel":0.709,"bend":0.0,"ch":8,"track":12},{"t":2303.973,"dur":0.117,"note":73,"inst":"organ_v0_additive_1","vel":0.709,"bend":0.0,"ch":9,"track":12},{"t":2304.09,"dur":0.117,"note":78,"inst":"piano_v0_additive_0","vel":0.709,"bend":0.0,"ch":14,"track":12},{"t":2304.208,"dur":0.117,"note":78,"inst":"piano_v0_additive_0","vel":0.709,"bend":0.0,"ch":14,"track":12},{"t":2304.326,"dur":0.353,"note":44,"inst":"celesta_v0_additive_3","vel":0.709,"bend":0.0,"ch":12,"track":12},{"t":2304.326,"dur":0.117,"note":68,"inst":"celesta_v0_additive_3","vel":0.709,"bend":0.0,"ch":4,"track":12},{"t":2304.443,"dur":0.117,"note":78,"inst":"piano_v0_additive_0","vel":0.709,"bend":0.0,"ch":14,"track":12},{"t":2304.561,"dur":0.117,"note":78,"inst":"piano_v0_additive_0","vel":0.709,"bend":0.0,"ch":14,"track":12},{"t":2304.678,"dur":0.353,"note":50,"inst":"celesta_v0_additive_3","vel":0.709,"bend":0.0,"ch":2,"track":12},{"t":2304.678,"dur":0.117,"note":74,"inst":"celesta_v0_additive_3","vel":0.709,"bend":0.0,"ch":10,"track":12},{"t":2304.796,"dur":0.117,"note":76,"inst":"organ_v0_additive_1","vel":0.709,"bend":0.0,"ch":12,"track":12},{"t":2304.913,"dur":0.117,"note":76,"inst":"organ_v0_additive_1","vel":0.709,"bend":0.0,"ch":12,"track":12},{"t":2305.031,"dur":0.117,"note":74,"inst":"celesta_v0_additive_3","vel":0.709,"bend":0.0,"ch":10,"track":12},{"t":2305.148,"dur":0.117,"note":76,"inst":"organ_v0_additive_1","vel":0.709,"bend":0.0,"ch":12,"track":12},{"t":2305.266,"dur":0.117,"note":76,"inst":"organ_v0_additive_1","vel":0.709,"bend":0.0,"ch":12,"track":12},{"t":2305.383,"dur":0.353,"note":54,"inst":"piano_v0_additive_0","vel":0.709,"bend":0.0,"ch":6,"track":12},{"t":2305.383,"dur":0.117,"note":71,"inst":"celesta_v0_additive_3","vel":0.709,"bend":0.0,"ch":7,"track":12},{"t":2305.501,"dur":0.117,"note":76,"inst":"organ_v0_additive_1","vel":0.709,"bend":0.0,"ch":12,"track":12},{"t":2305.618,"dur":0.117,"note":76,"inst":"organ_v0_additive_1","vel":0.709,"bend":0.0,"ch":12,"track":12},{"t":2305.736,"dur":0.353,"note":42,"inst":"piano_v0_additive_0","vel":0.709,"bend":0.0,"ch":10,"track":12},{"t":2305.736,"dur":0.117,"note":66,"inst":"piano_v0_additive_0","vel":0.709,"bend":0.0,"ch":2,"track":12},{"t":2305.853,"dur":0.117,"note":76,"inst":"organ_v0_additive_1","vel":0.709,"bend":0.0,"ch":12,"track":12},{"t":2305.971,"dur":0.117,"note":76,"inst":"organ_v0_additive_1","vel":0.709,"bend":0.0,"ch":12,"track":12},{"t":2306.088,"dur":0.705,"note":47,"inst":"celesta_v0_additive_3","vel":0.709,"bend":0.0,"ch":15,"track":12},{"t":2306.088,"dur":0.117,"note":71,"inst":"celesta_v0_additive_3","vel":0.709,"bend":0.0,"ch":7,"track":12},{"t":2306.206,"dur":0.117,"note":74,"inst":"celesta_v0_additive_3","vel":0.709,"bend":0.0,"ch":10,"track":12},{"t":2306.323,"dur":0.117,"note":76,"inst":"organ_v0_additive_1","vel":0.709,"bend":0.0,"ch":12,"track":12},{"t":2306.441,"dur":0.117,"note":71,"inst":"celesta_v0_additive_3","vel":0.709,"bend":0.0,"ch":7,"track":12},{"t":2306.558,"dur":0.117,"note":74,"inst":"celesta_v0_additive_3","vel":0.709,"bend":0.0,"ch":10,"track":12},{"t":2306.676,"dur":0.117,"note":76,"inst":"organ_v0_additive_1","vel":0.709,"bend":0.0,"ch":12,"track":12},{"t":2306.793,"dur":0.705,"note":52,"inst":"organ_v0_additive_1","vel":0.709,"bend":0.0,"ch":4,"track":12},{"t":2306.793,"dur":0.117,"note":68,"inst":"celesta_v0_additive_3","vel":0.709,"bend":0.0,"ch":4,"track":12},{"t":2334.807,"dur":0.383,"note":44,"inst":"celesta_v0_additive_3","vel":1.0,"bend":0.0,"ch":12,"track":12},{"t":2334.807,"dur":0.383,"note":48,"inst":"piano_v0_additive_0","vel":1.0,"bend":0.0,"ch":0,"track":12},{"t":2334.807,"dur":0.383,"note":53,"inst":"celesta_v0_additive_3","vel":1.0,"bend":0.0,"ch":5,"track":12},{"t":2334.807,"dur":0.096,"note":65,"inst":"celesta_v0_additive_3","vel":1.0,"bend":0.0,"ch":1,"track":12},{"t":2334.903,"dur":0.096,"note":72,"inst":"piano_v0_additive_0","vel":1.0,"bend":0.0,"ch":8,"track":12},{"t":2334.999,"dur":0.096,"note":77,"inst":"celesta_v0_additive_3","vel":1.0,"bend":0.0,"ch":13,"track":12},{"t":2335.094,"dur":0.096,"note":73,"inst":"organ_v0_additive_1","vel":1.0,"bend":0.0,"ch":9,"track":12},{"t":2335.19,"dur":0.096,"note":70,"inst":"organ_v0_additive_1","vel":1.0,"bend":0.0,"ch":6,"track":12},{"t":2335.286,"dur":0.096,"note":44,"inst":"celesta_v0_additive_3","vel":1.0,"bend":0.0,"ch":12,"track":12},{"t":2335.286,"dur":0.096,"note":46,"inst":"organ_v0_additive_1","vel":1.0,"bend":0.0,"ch":14,"track":12},{"t":2335.286,"dur":0.096,"note":53,"inst":"celesta_v0_additive_3","vel":1.0,"bend":0.0,"ch":5,"track":12},{"t":2335.286,"dur":0.096,"note":61,"inst":"organ_v0_additive_1","vel":1.0,"bend":0.0,"ch":13,"track":12},{"t":2335.382,"dur":0.096,"note":46,"inst":"organ_v0_additive_1","vel":1.0,"bend":0.0,"ch":14,"track":12},{"t":2335.382,"dur":0.096,"note":53,"inst":"celesta_v0_additive_3","vel":1.0,"bend":0.0,"ch":5,"track":12},{"t":2335.382,"dur":0.096,"note":61,"inst":"organ_v0_additive_1","vel":1.0,"bend":0.0,"ch":13,"track":12},{"t":2335.478,"dur":0.096,"note":41,"inst":"celesta_v0_additive_3","vel":1.0,"bend":0.0,"ch":9,"track":12},{"t":2335.478,"dur":0.096,"note":46,"inst":"organ_v0_additive_1","vel":1.0,"bend":0.0,"ch":14,"track":12},{"t":2335.478,"dur":0.096,"note":52,"inst":"organ_v0_additive_1","vel":1.0,"bend":0.0,"ch":4,"track":12},{"t":2335.478,"dur":0.096,"note":64,"inst":"organ_v0_additive_1","vel":1.0,"bend":0.0,"ch":0,"track":12},{"t":2335.573,"dur":0.383,"note":52,"inst":"organ_v0_additive_1","vel":1.0,"bend":0.0,"ch":4,"track":12},{"t":2335.573,"dur":0.096,"note":73,"inst":"organ_v0_additive_1","vel":1.0,"bend":0.0,"ch":9,"track":12},{"t":2335.669,"dur":0.096,"note":70,"inst":"organ_v0_additive_1","vel":1.0,"bend":0.0,"ch":6,"track":12},{"t":2335.669,"dur":0.096,"note":70,"inst":"organ_v0_additive_1","vel":1.0,"bend":0.0,"ch":6,"track":12},{"t":2335.765,"dur":0.096,"note":70,"inst":"organ_v0_additive_1","vel":1.0,"bend":0.0,"ch":6,"track":12},{"t":2335.861,"dur":0.096,"note":76,"inst":"organ_v0_additive_1","vel":1.0,"bend":0.0,"ch":12,"track":12},{"t":2335.957,"dur":0.383,"note":41,"inst":"celesta_v0_additive_3","vel":1.0,"bend":0.0,"ch":9,"track":12},{"t":2335.957,"dur":0.383,"note":48,"inst":"piano_v0_additive_0","vel":1.0,"bend":0.0,"ch":0,"track":12},{"t":2335.957,"dur":0.096,"note":68,"inst":"celesta_v0_additive_3","vel":1.0,"bend":0.0,"ch":4,"track":12},{"t":2336.053,"dur":0.096,"note":67,"inst":"organ_v0_additive_1","vel":1.0,"bend":0.0,"ch":3,"track":12},{"t":2336.053,"dur":0.096,"note":70,"inst":"organ_v0_additive_1","vel":1.0,"bend":0.0,"ch":6,"track":12},{"t":2336.148,"dur":0.096,"note":68,"inst":"celesta_v0_additive_3","vel":1.0,"bend":0.0,"ch":4,"track":12},{"t":2336.244,"dur":0.096,"note":67,"inst":"organ_v0_additive_1","vel":1.0,"bend":0.0,"ch":3,"track":12},{"t":2336.244,"dur":0.096,"note":70,"inst":"organ_v0_additive_1","vel":1.0,"bend":0.0,"ch":6,"track":12},{"t":2336.34,"dur":0.383,"note":72,"inst":"piano_v0_additive_0","vel":1.0,"bend":0.0,"ch":8,"track":12},{"t":2336.436,"dur":0.096,"note":48,"inst":"piano_v0_additive_0","vel":1.0,"bend":0.0,"ch":0,"track":12},{"t":2336.436,"dur":0.096,"note":52,"inst":"organ_v0_additive_1","vel":1.0,"bend":0.0,"ch":4,"track":12},{"t":2336.532,"dur":0.096,"note":52,"inst":"organ_v0_additive_1","vel":1.0,"bend":0.0,"ch":4,"track":12},{"t":2336.627,"dur":0.096,"note":49,"inst":"organ_v0_additive_1","vel":1.0,"bend":0.0,"ch":1,"track":12},{"t":2336.627,"dur":0.096,"note":53,"inst":"celesta_v0_additive_3","vel":1.0,"bend":0.0,"ch":5,"track":12},{"t":2336.723,"dur":0.287,"note":52,"inst":"organ_v0_additive_1","vel":1.0,"bend":0.0,"ch":4,"track":12},{"t":2336.723,"dur":0.287,"note":53,"inst":"celesta_v0_additive_3","vel":1.0,"bend":0.0,"ch":5,"track":12},{"t":2337.011,"dur":0.096,"note":53,"inst":"celesta_v0_additive_3","vel":1.0,"bend":0.0,"ch":5,"track":12},{"t":2337.011,"dur":0.096,"note":60,"inst":"piano_v0_additive_0","vel":1.0,"bend":0.0,"ch":12,"track":12},{"t":2337.107,"dur":0.096,"note":44,"inst":"celesta_v0_additive_3","vel":1.0,"bend":0.0,"ch":12,"track":12},{"t":2337.107,"dur":0.287,"note":64,"inst":"organ_v0_additive_1","vel":1.0,"bend":0.0,"ch":0,"track":12},{"t":2337.202,"dur":0.096,"note":52,"inst":"organ_v0_additive_1","vel":1.0,"bend":0.0,"ch":4,"track":12},{"t":2337.202,"dur":0.096,"note":53,"inst":"celesta_v0_additive_3","vel":1.0,"bend":0.0,"ch":5,"track":12},{"t":2337.298,"dur":0.096,"note":53,"inst":"celesta_v0_additive_3","vel":1.0,"bend":0.0,"ch":5,"track":12},{"t":2337.394,"dur":0.096,"note":48,"inst":"piano_v0_additive_0","vel":1.0,"bend":0.0,"ch":0,"track":12},{"t":2337.394,"dur":0.096,"note":65,"inst":"celesta_v0_additive_3","vel":1.0,"bend":0.0,"ch":1,"track":12},{"t":2337.49,"dur":0.383,"note":41,"inst":"celesta_v0_additive_3","vel":1.0,"bend":0.0,"ch":9,"track":12},{"t":2337.49,"dur":0.383,"note":46,"inst":"organ_v0_additive_1","vel":1.0,"bend":0.0,"ch":14,"track":12},{"t":2337.49,"dur":0.383,"note":49,"inst":"organ_v0_additive_1","vel":1.0,"bend":0.0,"ch":1,"track":12},{"t":2337.49,"dur":0.096,"note":65,"inst":"celesta_v0_additive_3","vel":1.0,"bend":0.0,"ch":1,"track":12},{"t":2337.586,"dur":0.096,"note":64,"inst":"organ_v0_additive_1","vel":1.0,"bend":0.0,"ch":0,"track":12},{"t":2337.586,"dur":0.096,"note":65,"inst":"celesta_v0_additive_3","vel":1.0,"bend":0.0,"ch":1,"track":12},{"t":2337.681,"dur":0.096,"note":67,"inst":"organ_v0_additive_1","vel":1.0,"bend":0.0,"ch":3,"track":12},{"t":2337.777,"dur":0.096,"note":60,"inst":"piano_v0_additive_0","vel":1.0,"bend":0.0,"ch":12,"track":12},{"t":2337.777,"dur":0.096,"note":68,"inst":"celesta_v0_additive_3","vel":1.0,"bend":0.0,"ch":4,"track":12},{"t":2337.873,"dur":0.096,"note":70,"inst":"organ_v0_additive_1","vel":1.0,"bend":0.0,"ch":6,"track":12},{"t":2337.969,"dur":0.096,"note":60,"inst":"piano_v0_additive_0","vel":1.0,"bend":0.0,"ch":12,"track":12},{"t":2337.969,"dur":0.096,"note":65,"inst":"celesta_v0_additive_3","vel":1.0,"bend":0.0,"ch":1,"track":12},{"t":2337.969,"dur":0.096,"note":68,"inst":"celesta_v0_additive_3","vel":1.0,"bend":0.0,"ch":4,"track":12},{"t":2338.065,"dur":0.096,"note":70,"inst":"organ_v0_additive_1","vel":1.0,"bend":0.0,"ch":6,"track":12},{"t":2338.161,"dur":0.096,"note":64,"inst":"organ_v0_additive_1","vel":1.0,"bend":0.0,"ch":0,"track":12},{"t":2338.161,"dur":0.096,"note":68,"inst":"celesta_v0_additive_3","vel":1.0,"bend":0.0,"ch":4,"track":12},{"t":2338.161,"dur":0.096,"note":72,"inst":"piano_v0_additive_0","vel":1.0,"bend":0.0,"ch":8,"track":12},{"t":2338.256,"dur":0.287,"note":70,"inst":"organ_v0_additive_1","vel":1.0,"bend":0.0,"ch":6,"track":12},{"t":2338.256,"dur":0.287,"note":73,"inst":"organ_v0_additive_1","vel":1.0,"bend":0.0,"ch":9,"track":12},{"t":2338.544,"dur":0.096,"note":70,"inst":"organ_v0_additive_1","vel":1.0,"bend":0.0,"ch":6,"track":12},{"t":2338.544,"dur":0.096,"note":73,"inst":"organ_v0_additive_1","vel":1.0,"bend":0.0,"ch":9,"track":12},{"t":2338.64,"dur":0.383,"note":41,"inst":"celesta_v0_additive_3","vel":1.0,"bend":0.0,"ch":9,"track":12},{"t":2338.64,"dur":0.383,"note":46,"inst":"organ_v0_additive_1","vel":1.0,"bend":0.0,"ch":14,"track":12},{"t":2338.64,"dur":0.383,"note":49,"inst":"organ_v0_additive_1","vel":1.0,"bend":0.0,"ch":1,"track":12},{"t":2338.64,"dur":0.383,"note":55,"inst":"organ_v0_additive_1","vel":1.0,"bend":0.0,"ch":7,"track":12},{"t":2338.64,"dur":0.096,"note":76,"inst":"organ_v0_additive_1","vel":1.0,"bend":0.0,"ch":12,"track":12},{"t":2338.735,"dur":0.096,"note":72,"inst":"piano_v0_additive_0","vel":1.0,"bend":0.0,"ch":8,"track":12},{"t":2338.831,"dur":0.192,"note":72,"inst":"piano_v0_additive_0","vel":1.0,"bend":0.0,"ch":8,"track":12},{"t":2339.023,"dur":0.767,"note":41,"inst":"celesta_v0_additive_3","vel":1.0,"bend":0.0,"ch":9,"track":12},{"t":2339.023,"dur":0.767,"note":48,"inst":"piano_v0_additive_0","vel":1.0,"bend":0.0,"ch":0,"track":12},{"t":2339.023,"dur":0.767,"note":53,"inst":"celesta_v0_additive_3","vel":1.0,"bend":0.0,"ch":5,"track":12},{"t":2339.023,"dur":0.767,"note":68,"inst":"celesta_v0_additive_3","vel":1.0,"bend":0.0,"ch":4,"track":12},{"t":2339.023,"dur":0.767,"note":72,"inst":"piano_v0_additive_0","vel":1.0,"bend":0.0,"ch":8,"track":12},{"t":2339.023,"dur":0.767,"note":77,"inst":"celesta_v0_additive_3","vel":1.0,"bend":0.0,"ch":13,"track":12},{"t":2339.789,"dur":0.192,"note":46,"inst":"organ_v0_additive_1","vel":1.0,"bend":0.0,"ch":14,"track":12},{"t":2339.789,"dur":0.096,"note":65,"inst":"celesta_v0_additive_3","vel":1.0,"bend":0.0,"ch":1,"track":12},{"t":2339.885,"dur":0.096,"note":70,"inst":"organ_v0_additive_1","vel":1.0,"bend":0.0,"ch":6,"track":12},{"t":2339.885,"dur":0.096,"note":72,"inst":"piano_v0_additive_0","vel":1.0,"bend":0.0,"ch":8,"track":12},{"t":2339.981,"dur":0.192,"note":58,"inst":"organ_v0_additive_1","vel":1.0,"bend":0.0,"ch":10,"track":12},{"t":2339.981,"dur":0.287,"note":73,"inst":"organ_v0_additive_1","vel":1.0,"bend":0.0,"ch":9,"track":12},{"t":2340.173,"dur":0.192,"note":52,"inst":"organ_v0_additive_1","vel":1.0,"bend":0.0,"ch":4,"track":12},{"t":2340.268,"dur":0.096,"note":70,"inst":"organ_v0_additive_1","vel":1.0,"bend":0.0,"ch":6,"track":12},{"t":2340.268,"dur":0.096,"note":72,"inst":"piano_v0_additive_0","vel":1.0,"bend":0.0,"ch":8,"track":12},{"t":2340.364,"dur":0.192,"note":53,"inst":"celesta_v0_additive_3","vel":1.0,"bend":0.0,"ch":5,"track":12},{"t":2340.364,"dur":0.096,"note":72,"inst":"piano_v0_additive_0","vel":1.0,"bend":0.0,"ch":8,"track":12},{"t":2340.364,"dur":0.096,"note":73,"inst":"organ_v0_additive_1","vel":1.0,"bend":0.0,"ch":9,"track":12},{"t":2340.46,"dur":0.096,"note":68,"inst":"celesta_v0_additive_3","vel":1.0,"bend":0.0,"ch":4,"track":12},{"t":2340.46,"dur":0.096,"note":70,"inst":"organ_v0_additive_1","vel":1.0,"bend":0.0,"ch":6,"track":12},{"t":2340.556,"dur":0.192,"note":49,"inst":"organ_v0_additive_1","vel":1.0,"bend":0.0,"ch":1,"track":12},{"t":2340.556,"dur":0.096,"note":70,"inst":"organ_v0_additive_1","vel":1.0,"bend":0.0,"ch":6,"track":12},{"t":2340.652,"dur":0.096,"note":65,"inst":"celesta_v0_additive_3","vel":1.0,"bend":0.0,"ch":1,"track":12},{"t":2340.748,"dur":0.192,"note":46,"inst":"organ_v0_additive_1","vel":1.0,"bend":0.0,"ch":14,"track":12},{"t":2340.748,"dur":0.096,"note":65,"inst":"celesta_v0_additive_3","vel":1.0,"bend":0.0,"ch":1,"track":12},{"t":2340.843,"dur":0.096,"note":64,"inst":"organ_v0_additive_1","vel":1.0,"bend":0.0,"ch":0,"track":12},{"t":2340.939,"dur":0.192,"note":49,"inst":"organ_v0_additive_1","vel":1.0,"bend":0.0,"ch":1,"track":12},{"t":2340.939,"dur":0.096,"note":65,"inst":"celesta_v0_additive_3","vel":1.0,"bend":0.0,"ch":1,"track":12},{"t":2341.035,"dur":0.096,"note":70,"inst":"organ_v0_additive_1","vel":1.0,"bend":0.0,"ch":6,"track":12},{"t":2341.131,"dur":0.192,"note":53,"inst":"celesta_v0_additive_3","vel":1.0,"bend":0.0,"ch":5,"track":12},{"t":2341.131,"dur":0.096,"note":65,"inst":"celesta_v0_additive_3","vel":1.0,"bend":0.0,"ch":1,"track":12},{"t":2341.227,"dur":0.096,"note":64,"inst":"organ_v0_additive_1","vel":1.0,"bend":0.0,"ch":0,"track":12},{"t":2341.322,"dur":0.192,"note":58,"inst":"organ_v0_additive_1","vel":1.0,"bend":0.0,"ch":10,"track":12},{"t":2341.322,"dur":0.096,"note":61,"inst":"organ_v0_additive_1","vel":1.0,"bend":0.0,"ch":13,"track":12},{"t":2341.418,"dur":0.096,"note":70,"inst":"organ_v0_additive_1","vel":1.0,"bend":0.0,"ch":6,"track":12},{"t":2341.418,"dur":0.096,"note":72,"inst":"piano_v0_additive_0","vel":1.0,"bend":0.0,"ch":8,"track":12},{"t":2341.514,"dur":0.192,"note":53,"inst":"celesta_v0_additive_3","vel":1.0,"bend":0.0,"ch":5,"track":12},{"t":2341.514,"dur":0.096,"note":72,"inst":"piano_v0_additive_0","vel":1.0,"bend":0.0,"ch":8,"track":12},{"t":2341.514,"dur":0.096,"note":73,"inst":"organ_v0_additive_1","vel":1.0,"bend":0.0,"ch":9,"track":12},{"t":2341.61,"dur":0.096,"note":70,"inst":"organ_v0_additive_1","vel":1.0,"bend":0.0,"ch":6,"track":12},{"t":2341.706,"dur":0.192,"note":49,"inst":"organ_v0_additive_1","vel":1.0,"bend":0.0,"ch":1,"track":12},{"t":2341.706,"dur":0.096,"note":77,"inst":"celesta_v0_additive_3","vel":1.0,"bend":0.0,"ch":13,"track":12},{"t":2341.802,"dur":0.096,"note":70,"inst":"organ_v0_additive_1","vel":1.0,"bend":0.0,"ch":6,"track":12},{"t":2341.897,"dur":0.192,"note":52,"inst":"organ_v0_additive_1","vel":1.0,"bend":0.0,"ch":4,"track":12},{"t":2341.897,"dur":0.096,"note":77,"inst":"celesta_v0_additive_3","vel":1.0,"bend":0.0,"ch":13,"track":12},{"t":2341.993,"dur":0.096,"note":70,"inst":"organ_v0_additive_1","vel":1.0,"bend":0.0,"ch":6,"track":12},{"t":2342.089,"dur":0.192,"note":53,"inst":"celesta_v0_additive_3","vel":1.0,"bend":0.0,"ch":5,"track":12},{"t":2342.089,"dur":0.096,"note":68,"inst":"celesta_v0_additive_3","vel":1.0,"bend":0.0,"ch":4,"track":12},{"t":2342.185,"dur":0.096,"note":70,"inst":"organ_v0_additive_1","vel":1.0,"bend":0.0,"ch":6,"track":12},{"t":2342.281,"dur":0.192,"note":41,"inst":"celesta_v0_additive_3","vel":1.0,"bend":0.0,"ch":9,"track":12},{"t":2342.281,"dur":0.096,"note":72,"inst":"piano_v0_additive_0","vel":1.0,"bend":0.0,"ch":8,"track":12},{"t":2342.376,"dur":0.096,"note":68,"inst":"celesta_v0_additive_3","vel":1.0,"bend":0.0,"ch":4,"track":12},{"t":2342.472,"dur":0.096,"note":65,"inst":"celesta_v0_additive_3","vel":1.0,"bend":0.0,"ch":1,"track":12},{"t":2342.568,"dur":0.096,"note":64,"inst":"organ_v0_additive_1","vel":1.0,"bend":0.0,"ch":0,"track":12},{"t":2342.664,"dur":0.096,"note":61,"inst":"organ_v0_additive_1","vel":1.0,"bend":0.0,"ch":13,"track":12},{"t":2342.76,"dur":0.096,"note":60,"inst":"piano_v0_additive_0","vel":1.0,"bend":0.0,"ch":12,"track":12},{"t":2342.856,"dur":0.096,"note":77,"inst":"celesta_v0_additive_3","vel":1.0,"bend":0.0,"ch":13,"track":12},{"t":2342.951,"dur":0.096,"note":72,"inst":"piano_v0_additive_0","vel":1.0,"bend":0.0,"ch":8,"track":12},{"t":2342.951,"dur":0.096,"note":73,"inst":"organ_v0_additive_1","vel":1.0,"bend":0.0,"ch":9,"track":12},{"t":2343.047,"dur":0.096,"note":70,"inst":"organ_v0_additive_1","vel":1.0,"bend":0.0,"ch":6,"track":12},{"t":2343.143,"dur":0.096,"note":68,"inst":"celesta_v0_additive_3","vel":1.0,"bend":0.0,"ch":4,"track":12},{"t":2343.239,"dur":0.096,"note":61,"inst":"organ_v0_additive_1","vel":1.0,"bend":0.0,"ch":13,"track":12},{"t":2343.335,"dur":0.096,"note":70,"inst":"organ_v0_additive_1","vel":1.0,"bend":0.0,"ch":6,"track":12},{"t":2343.43,"dur":0.096,"note":58,"inst":"organ_v0_additive_1","vel":1.0,"bend":0.0,"ch":10,"track":12},{"t":2343.526,"dur":0.096,"note":70,"inst":"organ_v0_additive_1","vel":1.0,"bend":0.0,"ch":6,"track":12},{"t":2343.622,"dur":0.096,"note":77,"inst":"celesta_v0_additive_3","vel":1.0,"bend":0.0,"ch":13,"track":12},{"t":2343.718,"dur":0.096,"note":73,"inst":"organ_v0_additive_1","vel":1.0,"bend":0.0,"ch":9,"track":12},{"t":2343.718,"dur":0.096,"note":76,"inst":"organ_v0_additive_1","vel":1.0,"bend":0.0,"ch":12,"track":12},{"t":2343.814,"dur":0.192,"note":65,"inst":"celesta_v0_additive_3","vel":1.0,"bend":0.0,"ch":1,"track":12},{"t":2343.814,"dur":0.192,"note":76,"inst":"organ_v0_additive_1","vel":1.0,"bend":0.0,"ch":12,"track":12},{"t":2344.005,"dur":0.096,"note":77,"inst":"celesta_v0_additive_3","vel":1.0,"bend":0.0,"ch":13,"track":12},{"t":2344.101,"dur":0.096,"note":77,"inst":"celesta_v0_additive_3","vel":1.0,"bend":0.0,"ch":13,"track":12},{"t":2344.101,"dur":0.096,"note":77,"inst":"celesta_v0_additive_3","vel":1.0,"bend":0.0,"ch":13,"track":12},{"t":2344.197,"dur":0.096,"note":73,"inst":"organ_v0_additive_1","vel":1.0,"bend":0.0,"ch":9,"track":12},{"t":2344.197,"dur":0.096,"note":76,"inst":"organ_v0_additive_1","vel":1.0,"bend":0.0,"ch":12,"track":12},{"t":2344.293,"dur":0.096,"note":72,"inst":"piano_v0_additive_0","vel":1.0,"bend":0.0,"ch":8,"track":12},{"t":2344.293,"dur":0.096,"note":73,"inst":"organ_v0_additive_1","vel":1.0,"bend":0.0,"ch":9,"track":12},{"t":2344.389,"dur":0.096,"note":76,"inst":"organ_v0_additive_1","vel":1.0,"bend":0.0,"ch":12,"track":12},{"t":2344.484,"dur":0.096,"note":70,"inst":"organ_v0_additive_1","vel":1.0,"bend":0.0,"ch":6,"track":12},{"t":2344.484,"dur":0.096,"note":72,"inst":"piano_v0_additive_0","vel":1.0,"bend":0.0,"ch":8,"track":12},{"t":2344.58,"dur":0.096,"note":68,"inst":"celesta_v0_additive_3","vel":1.0,"bend":0.0,"ch":4,"track":12},{"t":2344.676,"dur":0.096,"note":65,"inst":"celesta_v0_additive_3","vel":1.0,"bend":0.0,"ch":1,"track":12},{"t":2344.772,"dur":0.096,"note":60,"inst":"piano_v0_additive_0","vel":1.0,"bend":0.0,"ch":12,"track":12},{"t":2344.868,"dur":0.096,"note":70,"inst":"organ_v0_additive_1","vel":1.0,"bend":0.0,"ch":6,"track":12},{"t":2344.964,"dur":0.096,"note":56,"inst":"celesta_v0_additive_3","vel":1.0,"bend":0.0,"ch":8,"track":12},{"t":2345.059,"dur":0.096,"note":68,"inst":"celesta_v0_additive_3","vel":1.0,"bend":0.0,"ch":4,"track":12},{"t":2345.155,"dur":0.096,"note":77,"inst":"celesta_v0_additive_3","vel":1.0,"bend":0.0,"ch":13,"track":12},{"t":2345.251,"dur":0.096,"note":72,"inst":"piano_v0_additive_0","vel":1.0,"bend":0.0,"ch":8,"track":12},{"t":2345.251,"dur":0.096,"note":73,"inst":"organ_v0_additive_1","vel":1.0,"bend":0.0,"ch":9,"track":12},{"t":2345.347,"dur":0.192,"note":65,"inst":"celesta_v0_additive_3","vel":1.0,"bend":0.0,"ch":1,"track":12},{"t":2345.347,"dur":0.192,"note":73,"inst":"organ_v0_additive_1","vel":1.0,"bend":0.0,"ch":9,"track":12},{"t":2345.538,"dur":0.096,"note":76,"inst":"organ_v0_additive_1","vel":1.0,"bend":0.0,"ch":12,"track":12},{"t":2345.634,"dur":0.096,"note":76,"inst":"organ_v0_additive_1","vel":1.0,"bend":0.0,"ch":12,"track":12},{"t":2345.634,"dur":0.096,"note":77,"inst":"celesta_v0_additive_3","vel":1.0,"bend":0.0,"ch":13,"track":12},{"t":2345.73,"dur":0.096,"note":73,"inst":"organ_v0_additive_1","vel":1.0,"bend":0.0,"ch":9,"track":12},{"t":2345.826,"dur":0.096,"note":68,"inst":"celesta_v0_additive_3","vel":1.0,"bend":0.0,"ch":4,"track":12},{"t":2345.826,"dur":0.096,"note":70,"inst":"organ_v0_additive_1","vel":1.0,"bend":0.0,"ch":6,"track":12},{"t":2345.922,"dur":0.192,"note":53,"inst":"celesta_v0_additive_3","vel":1.0,"bend":0.0,"ch":5,"track":12},{"t":2345.922,"dur":0.096,"note":68,"inst":"celesta_v0_additive_3","vel":1.0,"bend":0.0,"ch":4,"track":12},{"t":2345.922,"dur":0.096,"note":70,"inst":"organ_v0_additive_1","vel":1.0,"bend":0.0,"ch":6,"track":12},{"t":2346.018,"dur":0.096,"note":65,"inst":"celesta_v0_additive_3","vel":1.0,"bend":0.0,"ch":1,"track":12},{"t":2346.018,"dur":0.096,"note":65,"inst":"celesta_v0_additive_3","vel":1.0,"bend":0.0,"ch":1,"track":12},{"t":2346.113,"dur":0.192,"note":58,"inst":"organ_v0_additive_1","vel":1.0,"bend":0.0,"ch":10,"track":12},{"t":2346.113,"dur":0.096,"note":64,"inst":"organ_v0_additive_1","vel":1.0,"bend":0.0,"ch":0,"track":12},{"t":2346.209,"dur":0.192,"note":73,"inst":"organ_v0_additive_1","vel":1.0,"bend":0.0,"ch":9,"track":12},{"t":2346.305,"dur":0.192,"note":64,"inst":"organ_v0_additive_1","vel":1.0,"bend":0.0,"ch":0,"track":12},{"t":2346.401,"dur":0.096,"note":70,"inst":"organ_v0_additive_1","vel":1.0,"bend":0.0,"ch":6,"track":12},{"t":2346.401,"dur":0.096,"note":72,"inst":"piano_v0_additive_0","vel":1.0,"bend":0.0,"ch":8,"track":12},{"t":2346.497,"dur":0.192,"note":53,"inst":"celesta_v0_additive_3","vel":1.0,"bend":0.0,"ch":5,"track":12},{"t":2346.497,"dur":0.096,"note":72,"inst":"piano_v0_additive_0","vel":1.0,"bend":0.0,"ch":8,"track":12},{"t":2346.497,"dur":0.096,"note":73,"inst":"organ_v0_additive_1","vel":1.0,"bend":0.0,"ch":9,"track":12},{"t":2346.592,"dur":0.096,"note":68,"inst":"celesta_v0_additive_3","vel":1.0,"bend":0.0,"ch":4,"track":12},{"t":2346.592,"dur":0.096,"note":70,"inst":"organ_v0_additive_1","vel":1.0,"bend":0.0,"ch":6,"track":12},{"t":2346.688,"dur":0.192,"note":53,"inst":"celesta_v0_additive_3","vel":1.0,"bend":0.0,"ch":5,"track":12},{"t":2346.688,"dur":0.096,"note":70,"inst":"organ_v0_additive_1","vel":1.0,"bend":0.0,"ch":6,"track":12},{"t":2346.688,"dur":0.096,"note":72,"inst":"piano_v0_additive_0","vel":1.0,"bend":0.0,"ch":8,"track":12},{"t":2346.784,"dur":0.096,"note":73,"inst":"organ_v0_additive_1","vel":1.0,"bend":0.0,"ch":9,"track":12},{"t":2346.784,"dur":0.096,"note":76,"inst":"organ_v0_additive_1","vel":1.0,"bend":0.0,"ch":12,"track":12},{"t":2346.88,"dur":0.192,"note":58,"inst":"organ_v0_additive_1","vel":1.0,"bend":0.0,"ch":10,"track":12},{"t":2346.88,"dur":0.096,"note":77,"inst":"celesta_v0_additive_3","vel":1.0,"bend":0.0,"ch":13,"track":12},{"t":2346.976,"dur":0.192,"note":70,"inst":"organ_v0_additive_1","vel":1.0,"bend":0.0,"ch":6,"track":12},{"t":2347.072,"dur":0.192,"note":61,"inst":"organ_v0_additive_1","vel":1.0,"bend":0.0,"ch":13,"track":12},{"t":2347.167,"dur":0.096,"note":68,"inst":"celesta_v0_additive_3","vel":1.0,"bend":0.0,"ch":4,"track":12},{"t":2347.167,"dur":0.096,"note":70,"inst":"organ_v0_additive_1","vel":1.0,"bend":0.0,"ch":6,"track":12},{"t":2347.263,"dur":0.192,"note":53,"inst":"celesta_v0_additive_3","vel":1.0,"bend":0.0,"ch":5,"track":12},{"t":2347.263,"dur":0.096,"note":70,"inst":"organ_v0_additive_1","vel":1.0,"bend":0.0,"ch":6,"track":12},{"t":2347.263,"dur":0.096,"note":72,"inst":"piano_v0_additive_0","vel":1.0,"bend":0.0,"ch":8,"track":12},{"t":2347.359,"dur":0.096,"note":68,"inst":"celesta_v0_additive_3","vel":1.0,"bend":0.0,"ch":4,"track":12},{"t":2347.359,"dur":0.096,"note":70,"inst":"organ_v0_additive_1","vel":1.0,"bend":0.0,"ch":6,"track":12},{"t":2347.455,"dur":0.192,"note":52,"inst":"organ_v0_additive_1","vel":1.0,"bend":0.0,"ch":4,"track":12},{"t":2347.455,"dur":0.096,"note":77,"inst":"celesta_v0_additive_3","vel":1.0,"bend":0.0,"ch":13,"track":12},{"t":2347.455,"dur":0.096,"note":77,"inst":"celesta_v0_additive_3","vel":1.0,"bend":0.0,"ch":13,"track":12},{"t":2347.551,"dur":0.096,"note":73,"inst":"organ_v0_additive_1","vel":1.0,"bend":0.0,"ch":9,"track":12},{"t":2347.551,"dur":0.096,"note":76,"inst":"organ_v0_additive_1","vel":1.0,"bend":0.0,"ch":12,"track":12},{"t":2347.646,"dur":0.192,"note":53,"inst":"celesta_v0_additive_3","vel":1.0,"bend":0.0,"ch":5,"track":12},{"t":2347.646,"dur":0.096,"note":76,"inst":"organ_v0_additive_1","vel":1.0,"bend":0.0,"ch":12,"track":12},{"t":2347.742,"dur":0.192,"note":70,"inst":"organ_v0_additive_1","vel":1.0,"bend":0.0,"ch":6,"track":12},{"t":2347.838,"dur":0.192,"note":53,"inst":"celesta_v0_additive_3","vel":1.0,"bend":0.0,"ch":5,"track":12},{"t":2347.934,"dur":0.096,"note":70,"inst":"organ_v0_additive_1","vel":1.0,"bend":0.0,"ch":6,"track":12},{"t":2347.934,"dur":0.096,"note":70,"inst":"organ_v0_additive_1","vel":1.0,"bend":0.0,"ch":6,"track":12},{"t":2348.03,"dur":0.192,"note":52,"inst":"organ_v0_additive_1","vel":1.0,"bend":0.0,"ch":4,"track":12},{"t":2348.03,"dur":0.096,"note":70,"inst":"organ_v0_additive_1","vel":1.0,"bend":0.0,"ch":6,"track":12},{"t":2348.03,"dur":0.096,"note":73,"inst":"organ_v0_additive_1","vel":1.0,"bend":0.0,"ch":9,"track":12},{"t":2348.126,"dur":0.096,"note":70,"inst":"organ_v0_additive_1","vel":1.0,"bend":0.0,"ch":6,"track":12},{"t":2348.126,"dur":0.096,"note":70,"inst":"organ_v0_additive_1","vel":1.0,"bend":0.0,"ch":6,"track":12},{"t":2348.221,"dur":0.192,"note":49,"inst":"organ_v0_additive_1","vel":1.0,"bend":0.0,"ch":1,"track":12},{"t":2348.221,"dur":0.096,"note":76,"inst":"organ_v0_additive_1","vel":1.0,"bend":0.0,"ch":12,"track":12},{"t":2348.221,"dur":0.096,"note":77,"inst":"celesta_v0_additive_3","vel":1.0,"bend":0.0,"ch":13,"track":12},{"t":2348.317,"dur":0.096,"note":72,"inst":"piano_v0_additive_0","vel":1.0,"bend":0.0,"ch":8,"track":12},{"t":2348.317,"dur":0.096,"note":73,"inst":"organ_v0_additive_1","vel":1.0,"bend":0.0,"ch":9,"track":12},{"t":2348.413,"dur":0.192,"note":53,"inst":"celesta_v0_additive_3","vel":1.0,"bend":0.0,"ch":5,"track":12},{"t":2348.413,"dur":0.096,"note":73,"inst":"organ_v0_additive_1","vel":1.0,"bend":0.0,"ch":9,"track":12},{"t":2348.509,"dur":0.192,"note":70,"inst":"organ_v0_additive_1","vel":1.0,"bend":0.0,"ch":6,"track":12},{"t":2348.605,"dur":0.192,"note":52,"inst":"organ_v0_additive_1","vel":1.0,"bend":0.0,"ch":4,"track":12},{"t":2348.7,"dur":0.096,"note":68,"inst":"celesta_v0_additive_3","vel":1.0,"bend":0.0,"ch":4,"track":12},{"t":2348.7,"dur":0.096,"note":70,"inst":"organ_v0_additive_1","vel":1.0,"bend":0.0,"ch":6,"track":12},{"t":2348.796,"dur":0.192,"note":49,"inst":"organ_v0_additive_1","vel":1.0,"bend":0.0,"ch":1,"track":12},{"t":2348.796,"dur":0.096,"note":70,"inst":"organ_v0_additive_1","vel":1.0,"bend":0.0,"ch":6,"track":12},{"t":2348.796,"dur":0.096,"note":72,"inst":"piano_v0_additive_0","vel":1.0,"bend":0.0,"ch":8,"track":12},{"t":2348.892,"dur":0.096,"note":68,"inst":"celesta_v0_additive_3","vel":1.0,"bend":0.0,"ch":4,"track":12},{"t":2348.892,"dur":0.096,"note":70,"inst":"organ_v0_additive_1","vel":1.0,"bend":0.0,"ch":6,"track":12},{"t":2348.988,"dur":0.192,"note":48,"inst":"piano_v0_additive_0","vel":1.0,"bend":0.0,"ch":0,"track":12},{"t":2348.988,"dur":0.096,"note":70,"inst":"organ_v0_additive_1","vel":1.0,"bend":0.0,"ch":6,"track":12},{"t":2348.988,"dur":0.096,"note":76,"inst":"organ_v0_additive_1","vel":1.0,"bend":0.0,"ch":12,"track":12},{"t":2349.084,"dur":0.096,"note":67,"inst":"organ_v0_additive_1","vel":1.0,"bend":0.0,"ch":3,"track":12},{"t":2349.084,"dur":0.096,"note":68,"inst":"celesta_v0_additive_3","vel":1.0,"bend":0.0,"ch":4,"track":12},{"t":2349.179,"dur":0.192,"note":52,"inst":"organ_v0_additive_1","vel":1.0,"bend":0.0,"ch":4,"track":12},{"t":2349.179,"dur":0.096,"note":68,"inst":"celesta_v0_additive_3","vel":1.0,"bend":0.0,"ch":4,"track":12},{"t":2349.275,"dur":0.096,"note":72,"inst":"piano_v0_additive_0","vel":1.0,"bend":0.0,"ch":8,"track":12},{"t":2349.371,"dur":0.192,"note":53,"inst":"celesta_v0_additive_3","vel":1.0,"bend":0.0,"ch":5,"track":12},{"t":2349.371,"dur":0.096,"note":68,"inst":"celesta_v0_additive_3","vel":1.0,"bend":0.0,"ch":4,"track":12},{"t":2349.371,"dur":0.096,"note":76,"inst":"organ_v0_additive_1","vel":1.0,"bend":0.0,"ch":12,"track":12},{"t":2349.467,"dur":0.096,"note":65,"inst":"celesta_v0_additive_3","vel":1.0,"bend":0.0,"ch":1,"track":12},{"t":2349.467,"dur":0.096,"note":65,"inst":"celesta_v0_additive_3","vel":1.0,"bend":0.0,"ch":1,"track":12},{"t":2349.563,"dur":0.192,"note":46,"inst":"organ_v0_additive_1","vel":1.0,"bend":0.0,"ch":14,"track":12},{"t":2349.563,"dur":0.096,"note":65,"inst":"celesta_v0_additive_3","vel":1.0,"bend":0.0,"ch":1,"track":12},{"t":2349.659,"dur":0.096,"note":70,"inst":"organ_v0_additive_1","vel":1.0,"bend":0.0,"ch":6,"track":12},{"t":2349.754,"dur":0.192,"note":44,"inst":"celesta_v0_additive_3","vel":1.0,"bend":0.0,"ch":12,"track":12},{"t":2349.754,"dur":0.096,"note":65,"inst":"celesta_v0_additive_3","vel":1.0,"bend":0.0,"ch":1,"track":12},{"t":2349.754,"dur":0.096,"note":76,"inst":"organ_v0_additive_1","vel":1.0,"bend":0.0,"ch":12,"track":12},{"t":2349.85,"dur":0.096,"note":64,"inst":"organ_v0_additive_1","vel":1.0,"bend":0.0,"ch":0,"track":12},{"t":2349.85,"dur":0.096,"note":65,"inst":"celesta_v0_additive_3","vel":1.0,"bend":0.0,"ch":1,"track":12},{"t":2349.946,"dur":0.192,"note":48,"inst":"piano_v0_additive_0","vel":1.0,"bend":0.0,"ch":0,"track":12},{"t":2349.946,"dur":0.192,"note":65,"inst":"celesta_v0_additive_3","vel":1.0,"bend":0.0,"ch":1,"track":12},{"t":2376.844,"dur":0.038,"note":87,"inst":"piano_v0_additive_0","vel":0.709,"bend":0.0,"ch":7,"track":12},{"t":2376.844,"dur":0.038,"note":90,"inst":"piano_v0_additive_0","vel":0.709,"bend":0.0,"ch":10,"track":12},{"t":2376.882,"dur":0.038,"note":85,"inst":"organ_v0_additive_1","vel":0.709,"bend":0.0,"ch":5,"track":12},{"t":2376.882,"dur":0.038,"note":90,"inst":"piano_v0_additive_0","vel":0.709,"bend":0.0,"ch":10,"track":12},{"t":2376.92,"dur":0.038,"note":85,"inst":"organ_v0_additive_1","vel":0.709,"bend":0.0,"ch":5,"track":12},{"t":2376.92,"dur":0.038,"note":87,"inst":"piano_v0_additive_0","vel":0.709,"bend":0.0,"ch":7,"track":12},{"t":2376.958,"dur":0.114,"note":66,"inst":"piano_v0_additive_0","vel":0.709,"bend":0.0,"ch":2,"track":12},{"t":2376.958,"dur":0.114,"note":70,"inst":"organ_v0_additive_1","vel":0.709,"bend":0.0,"ch":6,"track":12},{"t":2376.958,"dur":0.114,"note":82,"inst":"organ_v0_additive_1","vel":0.756,"bend":0.0,"ch":2,"track":12},{"t":2376.958,"dur":0.114,"note":85,"inst":"organ_v0_additive_1","vel":0.756,"bend":0.0,"ch":5,"track":12},{"t":2377.071,"dur":0.114,"note":61,"inst":"organ_v0_additive_1","vel":0.756,"bend":0.0,"ch":13,"track":12},{"t":2377.071,"dur":0.114,"note":66,"inst":"piano_v0_additive_0","vel":0.756,"bend":0.0,"ch":2,"track":12},{"t":2377.071,"dur":0.114,"note":70,"inst":"organ_v0_additive_1","vel":0.756,"bend":0.0,"ch":6,"track":12},{"t":2377.071,"dur":0.114,"note":85,"inst":"organ_v0_additive_1","vel":0.756,"bend":0.0,"ch":5,"track":12},{"t":2377.185,"dur":0.114,"note":63,"inst":"piano_v0_additive_0","vel":0.756,"bend":0.0,"ch":15,"track":12},{"t":2377.185,"dur":0.114,"note":66,"inst":"piano_v0_additive_0","vel":0.756,"bend":0.0,"ch":2,"track":12},{"t":2377.185,"dur":0.114,"note":78,"inst":"piano_v0_additive_0","vel":0.756,"bend":0.0,"ch":14,"track":12},{"t":2377.185,"dur":0.114,"note":82,"inst":"organ_v0_additive_1","vel":0.756,"bend":0.0,"ch":2,"track":12},{"t":2377.299,"dur":0.114,"note":61,"inst":"organ_v0_additive_1","vel":0.756,"bend":0.0,"ch":13,"track":12},{"t":2377.299,"dur":0.114,"note":61,"inst":"organ_v0_additive_1","vel":0.756,"bend":0.0,"ch":13,"track":12},{"t":2377.299,"dur":0.114,"note":75,"inst":"piano_v0_additive_0","vel":0.756,"bend":0.0,"ch":11,"track":12},{"t":2377.299,"dur":0.114,"note":70,"inst":"organ_v0_additive_1","vel":0.756,"bend":0.0,"ch":6,"track":12},{"t":2377.412,"dur":0.227,"note":61,"inst":"organ_v0_additive_1","vel":0.709,"bend":0.0,"ch":13,"track":12},{"t":2377.412,"dur":0.454,"note":61,"inst":"organ_v0_additive_1","vel":0.709,"bend":0.0,"ch":13,"track":12},{"t":2377.412,"dur":0.227,"note":70,"inst":"organ_v0_additive_1","vel":0.709,"bend":0.0,"ch":6,"track":12},{"t":2377.412,"dur":0.227,"note":78,"inst":"piano_v0_additive_0","vel":0.709,"bend":0.0,"ch":14,"track":12},{"t":2377.866,"dur":0.341,"note":61,"inst":"organ_v0_additive_1","vel":0.709,"bend":0.0,"ch":13,"track":12},{"t":2377.866,"dur":0.454,"note":66,"inst":"piano_v0_additive_0","vel":0.709,"bend":0.0,"ch":2,"track":12},{"t":2377.866,"dur":0.341,"note":73,"inst":"organ_v0_additive_1","vel":0.709,"bend":0.0,"ch":9,"track":12},{"t":2378.093,"dur":0.227,"note":49,"inst":"organ_v0_additive_1","vel":0.709,"bend":0.0,"ch":1,"track":12},{"t":2378.207,"dur":0.114,"note":46,"inst":"organ_v0_additive_1","vel":0.709,"bend":0.0,"ch":14,"track":12},{"t":2378.207,"dur":0.057,"note":75,"inst":"piano_v0_additive_0","vel":0.709,"bend":0.0,"ch":11,"track":12},{"t":2378.264,"dur":0.057,"note":73,"inst":"organ_v0_additive_1","vel":0.709,"bend":0.0,"ch":9,"track":12},{"t":2378.32,"dur":0.227,"note":54,"inst":"piano_v0_additive_0","vel":0.709,"bend":0.0,"ch":6,"track":12},{"t":2378.32,"dur":0.227,"note":54,"inst":"piano_v0_additive_0","vel":0.709,"bend":0.0,"ch":6,"track":12},{"t":2378.32,"dur":0.227,"note":66,"inst":"piano_v0_additive_0","vel":0.709,"bend":0.0,"ch":2,"track":12},{"t":2378.32,"dur":0.227,"note":70,"inst":"organ_v0_additive_1","vel":0.709,"bend":0.0,"ch":6,"track":12},{"t":2379.002,"dur":0.227,"note":42,"inst":"piano_v0_additive_0","vel":0.709,"bend":0.0,"ch":10,"track":12},{"t":2379.002,"dur":0.114,"note":54,"inst":"piano_v0_additive_0","vel":0.709,"bend":0.0,"ch":6,"track":12},{"t":2379.002,"dur":0.114,"note":66,"inst":"piano_v0_additive_0","vel":0.709,"bend":0.0,"ch":2,"track":12},{"t":2379.002,"dur":0.227,"note":70,"inst":"organ_v0_additive_1","vel":0.709,"bend":0.0,"ch":6,"track":12},{"t":2379.115,"dur":0.114,"note":66,"inst":"piano_v0_additive_0","vel":0.756,"bend":0.0,"ch":2,"track":12},{"t":2379.115,"dur":0.114,"note":70,"inst":"organ_v0_additive_1","vel":0.709,"bend":0.0,"ch":6,"track":12},{"t":2379.229,"dur":0.227,"note":46,"inst":"organ_v0_additive_1","vel":0.709,"bend":0.0,"ch":14,"track":12},{"t":2379.229,"dur":0.114,"note":66,"inst":"piano_v0_additive_0","vel":0.756,"bend":0.0,"ch":2,"track":12},{"t":2379.229,"dur":0.114,"note":70,"inst":"organ_v0_additive_1","vel":0.756,"bend":0.0,"ch":6,"track":12},{"t":2379.342,"dur":0.114,"note":66,"inst":"piano_v0_additive_0","vel":0.756,"bend":0.0,"ch":2,"track":12},{"t":2379.342,"dur":0.114,"note":70,"inst":"organ_v0_additive_1","vel":0.756,"bend":0.0,"ch":6,"track":12},{"t":2379.456,"dur":0.227,"note":49,"inst":"organ_v0_additive_1","vel":0.709,"bend":0.0,"ch":1,"track":12},{"t":2379.456,"dur":0.114,"note":66,"inst":"piano_v0_additive_0","vel":0.756,"bend":0.0,"ch":2,"track":12},{"t":2379.456,"dur":0.114,"note":70,"inst":"organ_v0_additive_1","vel":0.756,"bend":0.0,"ch":6,"track":12},{"t":2379.569,"dur":0.114,"note":66,"inst":"piano_v0_additive_0","vel":0.756,"bend":0.0,"ch":2,"track":12},{"t":2379.569,"dur":0.114,"note":70,"inst":"organ_v0_additive_1","vel":0.756,"bend":0.0,"ch":6,"track":12},{"t":2379.683,"dur":0.227,"note":54,"inst":"piano_v0_additive_0","vel":0.709,"bend":0.0,"ch":6,"track":12},{"t":2379.683,"dur":0.114,"note":66,"inst":"piano_v0_additive_0","vel":0.756,"bend":0.0,"ch":2,"track":12},{"t":2379.683,"dur":0.114,"note":70,"inst":"organ_v0_additive_1","vel":0.756,"bend":0.0,"ch":6,"track":12},{"t":2379.683,"dur":0.17,"note":73,"inst":"organ_v0_additive_1","vel":0.756,"bend":0.0,"ch":9,"track":12},{"t":2379.796,"dur":0.114,"note":66,"inst":"piano_v0_additive_0","vel":0.756,"bend":0.0,"ch":2,"track":12},{"t":2379.796,"dur":0.114,"note":70,"inst":"organ_v0_additive_1","vel":0.756,"bend":0.0,"ch":6,"track":12},{"t":2379.853,"dur":0.057,"note":73,"inst":"organ_v0_additive_1","vel":0.756,"bend":0.0,"ch":9,"track":12},{"t":2379.91,"dur":0.227,"note":58,"inst":"organ_v0_additive_1","vel":0.709,"bend":0.0,"ch":10,"track":12},{"t":2379.91,"dur":0.114,"note":66,"inst":"piano_v0_additive_0","vel":0.756,"bend":0.0,"ch":2,"track":12},{"t":2379.91,"dur":0.114,"note":70,"inst":"organ_v0_additive_1","vel":0.756,"bend":0.0,"ch":6,"track":12},{"t":2379.91,"dur":0.568,"note":78,"inst":"piano_v0_additive_0","vel":0.709,"bend":0.0,"ch":14,"track":12},{"t":2380.024,"dur":0.114,"note":66,"inst":"piano_v0_additive_0","vel":0.756,"bend":0.0,"ch":2,"track":12},{"t":2380.024,"dur":0.114,"note":70,"inst":"organ_v0_additive_1","vel":0.756,"bend":0.0,"ch":6,"track":12},{"t":2380.137,"dur":0.227,"note":61,"inst":"organ_v0_additive_1","vel":0.709,"bend":0.0,"ch":13,"track":12},{"t":2380.137,"dur":0.114,"note":66,"inst":"piano_v0_additive_0","vel":0.756,"bend":0.0,"ch":2,"track":12},{"t":2380.137,"dur":0.114,"note":70,"inst":"organ_v0_additive_1","vel":0.756,"bend":0.0,"ch":6,"track":12},{"t":2380.251,"dur":0.114,"note":66,"inst":"piano_v0_additive_0","vel":0.756,"bend":0.0,"ch":2,"track":12},{"t":2380.251,"dur":0.114,"note":70,"inst":"organ_v0_additive_1","vel":0.756,"bend":0.0,"ch":6,"track":12},{"t":2380.364,"dur":0.114,"note":66,"inst":"piano_v0_additive_0","vel":0.756,"bend":0.0,"ch":2,"track":12},{"t":2380.364,"dur":0.227,"note":66,"inst":"piano_v0_additive_0","vel":0.709,"bend":0.0,"ch":2,"track":12},{"t":2380.364,"dur":0.114,"note":70,"inst":"organ_v0_additive_1","vel":0.756,"bend":0.0,"ch":6,"track":12},{"t":2380.478,"dur":0.114,"note":66,"inst":"piano_v0_additive_0","vel":0.756,"bend":0.0,"ch":2,"track":12},{"t":2380.478,"dur":0.114,"note":70,"inst":"organ_v0_additive_1","vel":0.756,"bend":0.0,"ch":6,"track":12},{"t":2380.478,"dur":0.057,"note":78,"inst":"piano_v0_additive_0","vel":0.709,"bend":0.0,"ch":14,"track":12},{"t":2380.535,"dur":0.057,"note":78,"inst":"piano_v0_additive_0","vel":0.709,"bend":0.0,"ch":14,"track":12},{"t":2380.591,"dur":0.114,"note":66,"inst":"piano_v0_additive_0","vel":0.756,"bend":0.0,"ch":2,"track":12},{"t":2380.591,"dur":0.114,"note":70,"inst":"organ_v0_additive_1","vel":0.756,"bend":0.0,"ch":6,"track":12},{"t":2380.591,"dur":0.227,"note":70,"inst":"organ_v0_additive_1","vel":0.709,"bend":0.0,"ch":6,"track":12},{"t":2380.591,"dur":0.057,"note":78,"inst":"piano_v0_additive_0","vel":0.709,"bend":0.0,"ch":14,"track":12},{"t":2380.648,"dur":0.057,"note":78,"inst":"piano_v0_additive_0","vel":0.709,"bend":0.0,"ch":14,"track":12},{"t":2380.705,"dur":0.114,"note":66,"inst":"piano_v0_additive_0","vel":0.756,"bend":0.0,"ch":2,"track":12},{"t":2380.705,"dur":0.114,"note":70,"inst":"organ_v0_additive_1","vel":0.756,"bend":0.0,"ch":6,"track":12},{"t":2380.705,"dur":0.057,"note":82,"inst":"organ_v0_additive_1","vel":0.709,"bend":0.0,"ch":2,"track":12},{"t":2380.762,"dur":0.057,"note":78,"inst":"piano_v0_additive_0","vel":0.709,"bend":0.0,"ch":14,"track":12},{"t":2380.818,"dur":0.114,"note":66,"inst":"piano_v0_additive_0","vel":0.709,"bend":0.0,"ch":2,"track":12},{"t":2380.818,"dur":0.114,"note":70,"inst":"organ_v0_additive_1","vel":0.709,"bend":0.0,"ch":6,"track":12},{"t":2380.818,"dur":0.227,"note":73,"inst":"organ_v0_additive_1","vel":0.709,"bend":0.0,"ch":9,"track":12},{"t":2380.818,"dur":0.227,"note":73,"inst":"organ_v0_additive_1","vel":0.709,"bend":0.0,"ch":9,"track":12},{"t":2380.932,"dur":0.114,"note":66,"inst":"piano_v0_additive_0","vel":0.709,"bend":0.0,"ch":2,"track":12},{"t":2380.932,"dur":0.114,"note":70,"inst":"organ_v0_additive_1","vel":0.709,"bend":0.0,"ch":6,"track":12},{"t":2381.045,"dur":0.114,"note":66,"inst":"piano_v0_additive_0","vel":0.709,"bend":0.0,"ch":2,"track":12},{"t":2381.045,"dur":0.114,"note":70,"inst":"organ_v0_additive_1","vel":0.709,"bend":0.0,"ch":6,"track":12},{"t":2381.045,"dur":0.227,"note":78,"inst":"piano_v0_additive_0","vel":0.709,"bend":0.0,"ch":14,"track":12},{"t":2381.159,"dur":0.114,"note":66,"inst":"piano_v0_additive_0","vel":0.709,"bend":0.0,"ch":2,"track":12},{"t":2381.159,"dur":0.114,"note":70,"inst":"organ_v0_additive_1","vel":0.709,"bend":0.0,"ch":6,"track":12},{"t":2381.273,"dur":0.114,"note":66,"inst":"piano_v0_additive_0","vel":0.709,"bend":0.0,"ch":2,"track":12},{"t":2381.273,"dur":0.114,"note":70,"inst":"organ_v0_additive_1","vel":0.709,"bend":0.0,"ch":6,"track":12},{"t":2381.273,"dur":0.227,"note":82,"inst":"organ_v0_additive_1","vel":0.709,"bend":0.0,"ch":2,"track":12},{"t":2381.386,"dur":0.114,"note":66,"inst":"piano_v0_additive_0","vel":0.709,"bend":0.0,"ch":2,"track":12},{"t":2381.386,"dur":0.114,"note":70,"inst":"organ_v0_additive_1","vel":0.709,"bend":0.0,"ch":6,"track":12},{"t":2381.5,"dur":0.114,"note":66,"inst":"piano_v0_additive_0","vel":0.709,"bend":0.0,"ch":2,"track":12},{"t":2381.5,"dur":0.114,"note":70,"inst":"organ_v0_additive_1","vel":0.709,"bend":0.0,"ch":6,"track":12},{"t":2381.5,"dur":0.17,"note":73,"inst":"organ_v0_additive_1","vel":0.756,"bend":0.0,"ch":9,"track":12},{"t":2381.5,"dur":0.227,"note":78,"inst":"piano_v0_additive_0","vel":0.709,"bend":0.0,"ch":14,"track":12},{"t":2381.613,"dur":0.114,"note":66,"inst":"piano_v0_additive_0","vel":0.709,"bend":0.0,"ch":2,"track":12},{"t":2381.613,"dur":0.114,"note":70,"inst":"organ_v0_additive_1","vel":0.709,"bend":0.0,"ch":6,"track":12},{"t":2381.67,"dur":0.057,"note":73,"inst":"organ_v0_additive_1","vel":0.756,"bend":0.0,"ch":9,"track":12},{"t":2381.727,"dur":0.227,"note":49,"inst":"organ_v0_additive_1","vel":0.709,"bend":0.0,"ch":1,"track":12},{"t":2381.727,"dur":0.114,"note":61,"inst":"organ_v0_additive_1","vel":0.709,"bend":0.0,"ch":13,"track":12},{"t":2381.727,"dur":0.114,"note":66,"inst":"piano_v0_additive_0","vel":0.709,"bend":0.0,"ch":2,"track":12},{"t":2381.727,"dur":0.114,"note":58,"inst":"organ_v0_additive_1","vel":0.709,"bend":0.0,"ch":10,"track":12},{"t":2381.727,"dur":0.114,"note":73,"inst":"organ_v0_additive_1","vel":0.709,"bend":0.0,"ch":9,"track":12},{"t":2381.727,"dur":0.568,"note":70,"inst":"organ_v0_additive_1","vel":0.709,"bend":0.0,"ch":6,"track":12},{"t":2381.84,"dur":0.114,"note":61,"inst":"organ_v0_additive_1","vel":0.709,"bend":0.0,"ch":13,"track":12},{"t":2381.84,"dur":0.114,"note":66,"inst":"piano_v0_additive_0","vel":0.709,"bend":0.0,"ch":2,"track":12},{"t":2381.84,"dur":0.114,"note":58,"inst":"organ_v0_additive_1","vel":0.709,"bend":0.0,"ch":10,"track":12},{"t":2381.84,"dur":0.114,"note":73,"inst":"organ_v0_additive_1","vel":0.709,"bend":0.0,"ch":9,"track":12},{"t":2381.954,"dur":0.114,"note":61,"inst":"organ_v0_additive_1","vel":0.709,"bend":0.0,"ch":13,"track":12},{"t":2381.954,"dur":0.227,"note":61,"inst":"organ_v0_additive_1","vel":0.709,"bend":0.0,"ch":13,"track":12},{"t":2381.954,"dur":0.114,"note":66,"inst":"piano_v0_additive_0","vel":0.709,"bend":0.0,"ch":2,"track":12},{"t":2381.954,"dur":0.114,"note":58,"inst":"organ_v0_additive_1","vel":0.709,"bend":0.0,"ch":10,"track":12},{"t":2381.954,"dur":0.114,"note":73,"inst":"organ_v0_additive_1","vel":0.709,"bend":0.0,"ch":9,"track":12},{"t":2382.067,"dur":0.114,"note":61,"inst":"organ_v0_additive_1","vel":0.709,"bend":0.0,"ch":13,"track":12},{"t":2382.067,"dur":0.114,"note":66,"inst":"piano_v0_additive_0","vel":0.709,"bend":0.0,"ch":2,"track":12},{"t":2382.067,"dur":0.114,"note":58,"inst":"organ_v0_additive_1","vel":0.709,"bend":0.0,"ch":10,"track":12},{"t":2382.067,"dur":0.114,"note":73,"inst":"organ_v0_additive_1","vel":0.709,"bend":0.0,"ch":9,"track":12},{"t":2382.181,"dur":0.114,"note":61,"inst":"organ_v0_additive_1","vel":0.709,"bend":0.0,"ch":13,"track":12},{"t":2382.181,"dur":0.114,"note":66,"inst":"piano_v0_additive_0","vel":0.709,"bend":0.0,"ch":2,"track":12},{"t":2382.181,"dur":0.227,"note":66,"inst":"piano_v0_additive_0","vel":0.709,"bend":0.0,"ch":2,"track":12},{"t":2382.181,"dur":0.114,"note":58,"inst":"organ_v0_additive_1","vel":0.709,"bend":0.0,"ch":10,"track":12},{"t":2382.181,"dur":0.114,"note":73,"inst":"organ_v0_additive_1","vel":0.709,"bend":0.0,"ch":9,"track":12},{"t":2382.294,"dur":0.114,"note":61,"inst":"organ_v0_additive_1","vel":0.709,"bend":0.0,"ch":13,"track":12},{"t":2382.294,"dur":0.114,"note":66,"inst":"piano_v0_additive_0","vel":0.709,"bend":0.0,"ch":2,"track":12},{"t":2382.294,"dur":0.114,"note":58,"inst":"organ_v0_additive_1","vel":0.709,"bend":0.0,"ch":10,"track":12},{"t":2382.294,"dur":0.114,"note":73,"inst":"organ_v0_additive_1","vel":0.709,"bend":0.0,"ch":9,"track":12},{"t":2382.294,"dur":0.057,"note":80,"inst":"celesta_v0_additive_3","vel":0.709,"bend":0.0,"ch":0,"track":12},{"t":2382.351,"dur":0.057,"note":70,"inst":"organ_v0_additive_1","vel":0.709,"bend":0.0,"ch":6,"track":12},{"t":2382.408,"dur":0.114,"note":61,"inst":"organ_v0_additive_1","vel":0.709,"bend":0.0,"ch":13,"track":12},{"t":2382.408,"dur":0.114,"note":66,"inst":"piano_v0_additive_0","vel":0.709,"bend":0.0,"ch":2,"track":12},{"t":2382.408,"dur":0.114,"note":58,"inst":"organ_v0_additive_1","vel":0.709,"bend":0.0,"ch":10,"track":12},{"t":2382.408,"dur":0.227,"note":58,"inst":"organ_v0_additive_1","vel":0.709,"bend":0.0,"ch":10,"track":12},{"t":2382.408,"dur":0.114,"note":73,"inst":"organ_v0_additive_1","vel":0.709,"bend":0.0,"ch":9,"track":12},{"t":2382.408,"dur":0.057,"note":80,"inst":"celesta_v0_additive_3","vel":0.709,"bend":0.0,"ch":0,"track":12},{"t":2382.465,"dur":0.057,"note":70,"inst":"organ_v0_additive_1","vel":0.709,"bend":0.0,"ch":6,"track":12},{"t":2382.522,"dur":0.114,"note":61,"inst":"organ_v0_additive_1","vel":0.709,"bend":0.0,"ch":13,"track":12},{"t":2382.522,"dur":0.114,"note":66,"inst":"piano_v0_additive_0","vel":0.709,"bend":0.0,"ch":2,"track":12},{"t":2382.522,"dur":0.114,"note":58,"inst":"organ_v0_additive_1","vel":0.709,"bend":0.0,"ch":10,"track":12},{"t":2382.522,"dur":0.114,"note":73,"inst":"organ_v0_additive_1","vel":0.709,"bend":0.0,"ch":9,"track":12},{"t":2382.522,"dur":0.057,"note":85,"inst":"organ_v0_additive_1","vel":0.709,"bend":0.0,"ch":5,"track":12},{"t":2382.578,"dur":0.057,"note":70,"inst":"organ_v0_additive_1","vel":0.709,"bend":0.0,"ch":6,"track":12},{"t":2382.635,"dur":0.114,"note":61,"inst":"organ_v0_additive_1","vel":0.709,"bend":0.0,"ch":13,"track":12},{"t":2382.635,"dur":0.114,"note":66,"inst":"piano_v0_additive_0","vel":0.709,"bend":0.0,"ch":2,"track":12},{"t":2382.635,"dur":0.114,"note":58,"inst":"organ_v0_additive_1","vel":0.709,"bend":0.0,"ch":10,"track":12},{"t":2382.635,"dur":0.114,"note":73,"inst":"organ_v0_additive_1","vel":0.709,"bend":0.0,"ch":9,"track":12},{"t":2382.635,"dur":0.227,"note":73,"inst":"organ_v0_additive_1","vel":0.709,"bend":0.0,"ch":9,"track":12},{"t":2382.635,"dur":0.227,"note":73,"inst":"organ_v0_additive_1","vel":0.709,"bend":0.0,"ch":9,"track":12},{"t":2382.749,"dur":0.114,"note":61,"inst":"organ_v0_additive_1","vel":0.709,"bend":0.0,"ch":13,"track":12},{"t":2382.749,"dur":0.114,"note":66,"inst":"piano_v0_additive_0","vel":0.709,"bend":0.0,"ch":2,"track":12},{"t":2382.749,"dur":0.114,"note":58,"inst":"organ_v0_additive_1","vel":0.709,"bend":0.0,"ch":10,"track":12},{"t":2382.749,"dur":0.114,"note":73,"inst":"organ_v0_additive_1","vel":0.709,"bend":0.0,"ch":9,"track":12},{"t":2382.862,"dur":0.114,"note":61,"inst":"organ_v0_additive_1","vel":0.709,"bend":0.0,"ch":13,"track":12},{"t":2382.862,"dur":0.114,"note":66,"inst":"piano_v0_additive_0","vel":0.709,"bend":0.0,"ch":2,"track":12},{"t":2382.862,"dur":0.114,"note":58,"inst":"organ_v0_additive_1","vel":0.709,"bend":0.0,"ch":10,"track":12},{"t":2382.862,"dur":0.114,"note":73,"inst":"organ_v0_additive_1","vel":0.709,"bend":0.0,"ch":9,"track":12},{"t":2382.862,"dur":0.227,"note":78,"inst":"piano_v0_additive_0","vel":0.709,"bend":0.0,"ch":14,"track":12},{"t":2382.976,"dur":0.114,"note":61,"inst":"organ_v0_additive_1","vel":0.709,"bend":0.0,"ch":13,"track":12},{"t":2382.976,"dur":0.114,"note":66,"inst":"piano_v0_additive_0","vel":0.709,"bend":0.0,"ch":2,"track":12},{"t":2382.976,"dur":0.114,"note":58,"inst":"organ_v0_additive_1","vel":0.709,"bend":0.0,"ch":10,"track":12},{"t":2382.976,"dur":0.114,"note":73,"inst":"organ_v0_additive_1","vel":0.709,"bend":0.0,"ch":9,"track":12},{"t":2383.089,"dur":0.114,"note":61,"inst":"organ_v0_additive_1","vel":0.709,"bend":0.0,"ch":13,"track":12},{"t":2383.089,"dur":0.114,"note":66,"inst":"piano_v0_additive_0","vel":0.709,"bend":0.0,"ch":2,"track":12},{"t":2383.089,"dur":0.114,"note":58,"inst":"organ_v0_additive_1","vel":0.709,"bend":0.0,"ch":10,"track":12},{"t":2383.089,"dur":0.114,"note":73,"inst":"organ_v0_additive_1","vel":0.709,"bend":0.0,"ch":9,"track":12},{"t":2383.089,"dur":0.227,"note":70,"inst":"organ_v0_additive_1","vel":0.709,"bend":0.0,"ch":6,"track":12},{"t":2383.203,"dur":0.114,"note":61,"inst":"organ_v0_additive_1","vel":0.709,"bend":0.0,"ch":13,"track":12},{"t":2383.203,"dur":0.114,"note":66,"inst":"piano_v0_additive_0","vel":0.709,"bend":0.0,"ch":2,"track":12},{"t":2383.203,"dur":0.114,"note":58,"inst":"organ_v0_additive_1","vel":0.709,"bend":0.0,"ch":10,"track":12},{"t":2383.203,"dur":0.114,"note":73,"inst":"organ_v0_additive_1","vel":0.709,"bend":0.0,"ch":9,"track":12},{"t":2383.316,"dur":0.114,"note":61,"inst":"organ_v0_additive_1","vel":0.709,"bend":0.0,"ch":13,"track":12},{"t":2383.316,"dur":0.114,"note":66,"inst":"piano_v0_additive_0","vel":0.709,"bend":0.0,"ch":2,"track":12},{"t":2383.316,"dur":0.114,"note":58,"inst":"organ_v0_additive_1","vel":0.709,"bend":0.0,"ch":10,"track":12},{"t":2383.316,"dur":0.114,"note":73,"inst":"organ_v0_additive_1","vel":0.709,"bend":0.0,"ch":9,"track":12},{"t":2383.316,"dur":0.17,"note":73,"inst":"organ_v0_additive_1","vel":0.756,"bend":0.0,"ch":9,"track":12},{"t":2383.316,"dur":0.227,"note":85,"inst":"organ_v0_additive_1","vel":0.709,"bend":0.0,"ch":5,"track":12},{"t":2383.43,"dur":0.114,"note":61,"inst":"organ_v0_additive_1","vel":0.709,"bend":0.0,"ch":13,"track":12},{"t":2383.43,"dur":0.114,"note":66,"inst":"piano_v0_additive_0","vel":0.709,"bend":0.0,"ch":2,"track":12},{"t":2383.43,"dur":0.114,"note":58,"inst":"organ_v0_additive_1","vel":0.709,"bend":0.0,"ch":10,"track":12},{"t":2383.43,"dur":0.114,"note":73,"inst":"organ_v0_additive_1","vel":0.709,"bend":0.0,"ch":9,"track":12},{"t":2383.487,"dur":0.057,"note":73,"inst":"organ_v0_additive_1","vel":0.756,"bend":0.0,"ch":9,"track":12},{"t":2383.543,"dur":0.227,"note":42,"inst":"piano_v0_additive_0","vel":0.709,"bend":0.0,"ch":10,"track":12},{"t":2383.543,"dur":0.114,"note":61,"inst":"organ_v0_additive_1","vel":0.709,"bend":0.0,"ch":13,"track":12},{"t":2383.543,"dur":0.114,"note":66,"inst":"piano_v0_additive_0","vel":0.709,"bend":0.0,"ch":2,"track":12},{"t":2383.543,"dur":0.114,"note":70,"inst":"organ_v0_additive_1","vel":0.709,"bend":0.0,"ch":6,"track":12},{"t":2383.543,"dur":0.568,"note":82,"inst":"organ_v0_additive_1","vel":0.709,"bend":0.0,"ch":2,"track":12},{"t":2383.657,"dur":0.114,"note":61,"inst":"organ_v0_additive_1","vel":0.709,"bend":0.0,"ch":13,"track":12},{"t":2383.657,"dur":0.114,"note":66,"inst":"piano_v0_additive_0","vel":0.709,"bend":0.0,"ch":2,"track":12},{"t":2383.657,"dur":0.114,"note":70,"inst":"organ_v0_additive_1","vel":0.709,"bend":0.0,"ch":6,"track":12},{"t":2383.77,"dur":0.227,"note":54,"inst":"piano_v0_additive_0","vel":0.709,"bend":0.0,"ch":6,"track":12},{"t":2383.77,"dur":0.114,"note":61,"inst":"organ_v0_additive_1","vel":0.709,"bend":0.0,"ch":13,"track":12},{"t":2383.77,"dur":0.114,"note":66,"inst":"piano_v0_additive_0","vel":0.709,"bend":0.0,"ch":2,"track":12},{"t":2383.77,"dur":0.114,"note":70,"inst":"organ_v0_additive_1","vel":0.709,"bend":0.0,"ch":6,"track":12},{"t":2383.884,"dur":0.114,"note":61,"inst":"organ_v0_additive_1","vel":0.709,"bend":0.0,"ch":13,"track":12},{"t":2383.884,"dur":0.114,"note":66,"inst":"piano_v0_additive_0","vel":0.709,"bend":0.0,"ch":2,"track":12},{"t":2383.884,"dur":0.114,"note":70,"inst":"organ_v0_additive_1","vel":0.709,"bend":0.0,"ch":6,"track":12},{"t":2383.998,"dur":0.227,"note":51,"inst":"piano_v0_additive_0","vel":0.709,"bend":0.0,"ch":3,"track":12},{"t":2383.998,"dur":0.114,"note":66,"inst":"piano_v0_additive_0","vel":0.709,"bend":0.0,"ch":2,"track":12},{"t":2383.998,"dur":0.114,"note":58,"inst":"organ_v0_additive_1","vel":0.709,"bend":0.0,"ch":10,"track":12},{"t":2383.998,"dur":0.114,"note":70,"inst":"organ_v0_additive_1","vel":0.709,"bend":0.0,"ch":6,"track":12},{"t":2384.111,"dur":0.114,"note":66,"inst":"piano_v0_additive_0","vel":0.709,"bend":0.0,"ch":2,"track":12},{"t":2384.111,"dur":0.114,"note":58,"inst":"organ_v0_additive_1","vel":0.709,"bend":0.0,"ch":10,"track":12},{"t":2384.111,"dur":0.114,"note":70,"inst":"organ_v0_additive_1","vel":0.709,"bend":0.0,"ch":6,"track":12},{"t":2384.111,"dur":0.057,"note":82,"inst":"organ_v0_additive_1","vel":0.709,"bend":0.0,"ch":2,"track":12},{"t":2384.168,"dur":0.057,"note":82,"inst":"organ_v0_additive_1","vel":0.709,"bend":0.0,"ch":2,"track":12},{"t":2384.225,"dur":0.227,"note":63,"inst":"piano_v0_additive_0","vel":0.709,"bend":0.0,"ch":15,"track":12},{"t":2384.225,"dur":0.114,"note":66,"inst":"piano_v0_additive_0","vel":0.709,"bend":0.0,"ch":2,"track":12},{"t":2384.225,"dur":0.114,"note":58,"inst":"organ_v0_additive_1","vel":0.709,"bend":0.0,"ch":10,"track":12},{"t":2384.225,"dur":0.114,"note":70,"inst":"organ_v0_additive_1","vel":0.709,"bend":0.0,"ch":6,"track":12},{"t":2384.225,"dur":0.057,"note":82,"inst":"organ_v0_additive_1","vel":0.709,"bend":0.0,"ch":2,"track":12},{"t":2384.281,"dur":0.057,"note":82,"inst":"organ_v0_additive_1","vel":0.709,"bend":0.0,"ch":2,"track":12},{"t":2384.338,"dur":0.114,"note":66,"inst":"piano_v0_additive_0","vel":0.709,"bend":0.0,"ch":2,"track":12},{"t":2384.338,"dur":0.114,"note":58,"inst":"organ_v0_additive_1","vel":0.709,"bend":0.0,"ch":10,"track":12},{"t":2384.338,"dur":0.114,"note":70,"inst":"organ_v0_additive_1","vel":0.709,"bend":0.0,"ch":6,"track":12},{"t":2384.338,"dur":0.057,"note":85,"inst":"organ_v0_additive_1","vel":0.709,"bend":0.0,"ch":5,"track":12},{"t":2384.395,"dur":0.057,"note":70,"inst":"organ_v0_additive_1","vel":0.709,"bend":0.0,"ch":6,"track":12},{"t":2384.452,"dur":0.227,"note":63,"inst":"piano_v0_additive_0","vel":0.709,"bend":0.0,"ch":15,"track":12},{"t":2384.452,"dur":0.114,"note":66,"inst":"piano_v0_additive_0","vel":0.709,"bend":0.0,"ch":2,"track":12},{"t":2384.452,"dur":0.114,"note":66,"inst":"piano_v0_additive_0","vel":0.709,"bend":0.0,"ch":2,"track":12},{"t":2384.452,"dur":0.114,"note":70,"inst":"organ_v0_additive_1","vel":0.709,"bend":0.0,"ch":6,"track":12},{"t":2384.452,"dur":0.057,"note":70,"inst":"organ_v0_additive_1","vel":0.709,"bend":0.0,"ch":6,"track":12},{"t":2384.508,"dur":0.057,"note":78,"inst":"piano_v0_additive_0","vel":0.709,"bend":0.0,"ch":14,"track":12},{"t":2384.565,"dur":0.114,"note":66,"inst":"piano_v0_additive_0","vel":0.709,"bend":0.0,"ch":2,"track":12},{"t":2384.565,"dur":0.114,"note":66,"inst":"piano_v0_additive_0","vel":0.709,"bend":0.0,"ch":2,"track":12},{"t":2384.565,"dur":0.114,"note":70,"inst":"organ_v0_additive_1","vel":0.709,"bend":0.0,"ch":6,"track":12},{"t":2384.565,"dur":0.057,"note":78,"inst":"piano_v0_additive_0","vel":0.709,"bend":0.0,"ch":14,"track":12},{"t":2384.622,"dur":0.057,"note":78,"inst":"piano_v0_additive_0","vel":0.709,"bend":0.0,"ch":14,"track":12},{"t":2384.679,"dur":0.227,"note":61,"inst":"organ_v0_additive_1","vel":0.709,"bend":0.0,"ch":13,"track":12},{"t":2384.679,"dur":0.114,"note":63,"inst":"piano_v0_additive_0","vel":0.709,"bend":0.0,"ch":15,"track":12},{"t":2384.679,"dur":0.114,"note":66,"inst":"piano_v0_additive_0","vel":0.709,"bend":0.0,"ch":2,"track":12},{"t":2384.679,"dur":0.114,"note":58,"inst":"organ_v0_additive_1","vel":0.709,"bend":0.0,"ch":10,"track":12},{"t":2384.679,"dur":0.057,"note":78,"inst":"piano_v0_additive_0","vel":0.709,"bend":0.0,"ch":14,"track":12},{"t":2384.736,"dur":0.057,"note":78,"inst":"piano_v0_additive_0","vel":0.709,"bend":0.0,"ch":14,"track":12},{"t":2384.792,"dur":0.114,"note":63,"inst":"piano_v0_additive_0","vel":0.709,"bend":0.0,"ch":15,"track":12},{"t":2384.792,"dur":0.114,"note":66,"inst":"piano_v0_additive_0","vel":0.709,"bend":0.0,"ch":2,"track":12},{"t":2384.792,"dur":0.114,"note":58,"inst":"organ_v0_additive_1","vel":0.709,"bend":0.0,"ch":10,"track":12},{"t":2384.792,"dur":0.057,"note":82,"inst":"organ_v0_additive_1","vel":0.709,"bend":0.0,"ch":2,"track":12},{"t":2384.849,"dur":0.057,"note":78,"inst":"piano_v0_additive_0","vel":0.709,"bend":0.0,"ch":14,"track":12},{"t":2384.906,"dur":0.114,"note":61,"inst":"organ_v0_additive_1","vel":0.709,"bend":0.0,"ch":13,"track":12},{"t":2384.906,"dur":0.227,"note":61,"inst":"organ_v0_additive_1","vel":0.709,"bend":0.0,"ch":13,"track":12},{"t":2384.906,"dur":0.114,"note":66,"inst":"piano_v0_additive_0","vel":0.709,"bend":0.0,"ch":2,"track":12},{"t":2384.906,"dur":0.114,"note":58,"inst":"organ_v0_additive_1","vel":0.709,"bend":0.0,"ch":10,"track":12},{"t":2384.906,"dur":0.057,"note":78,"inst":"piano_v0_additive_0","vel":0.709,"bend":0.0,"ch":14,"track":12},{"t":2384.963,"dur":0.057,"note":78,"inst":"piano_v0_additive_0","vel":0.709,"bend":0.0,"ch":14,"track":12},{"t":2385.019,"dur":0.114,"note":61,"inst":"organ_v0_additive_1","vel":0.709,"bend":0.0,"ch":13,"track":12},{"t":2385.019,"dur":0.114,"note":66,"inst":"piano_v0_additive_0","vel":0.709,"bend":0.0,"ch":2,"track":12},{"t":2385.019,"dur":0.114,"note":58,"inst":"organ_v0_additive_1","vel":0.709,"bend":0.0,"ch":10,"track":12},{"t":2385.019,"dur":0.057,"note":70,"inst":"organ_v0_additive_1","vel":0.709,"bend":0.0,"ch":6,"track":12},{"t":2385.076,"dur":0.057,"note":78,"inst":"piano_v0_additive_0","vel":0.709,"bend":0.0,"ch":14,"track":12},{"t":2385.133,"dur":0.227,"note":54,"inst":"piano_v0_additive_0","vel":0.709,"bend":0.0,"ch":6,"track":12},{"t":2385.133,"dur":0.114,"note":58,"inst":"organ_v0_additive_1","vel":0.709,"bend":0.0,"ch":10,"track":12},{"t":2385.133,"dur":0.114,"note":73,"inst":"organ_v0_additive_1","vel":0.709,"bend":0.0,"ch":9,"track":12},{"t":2385.133,"dur":0.057,"note":82,"inst":"organ_v0_additive_1","vel":0.709,"bend":0.0,"ch":2,"track":12},{"t":2385.19,"dur":0.057,"note":70,"inst":"organ_v0_additive_1","vel":0.709,"bend":0.0,"ch":6,"track":12},{"t":2385.247,"dur":0.114,"note":58,"inst":"organ_v0_additive_1","vel":0.709,"bend":0.0,"ch":10,"track":12},{"t":2385.247,"dur":0.114,"note":73,"inst":"organ_v0_additive_1","vel":0.709,"bend":0.0,"ch":9,"track":12},{"t":2385.247,"dur":0.057,"note":85,"inst":"organ_v0_additive_1","vel":0.709,"bend":0.0,"ch":5,"track":12},{"t":2385.303,"dur":0.057,"note":85,"inst":"organ_v0_additive_1","vel":0.709,"bend":0.0,"ch":5,"track":12},{"t":2385.36,"dur":0.227,"note":54,"inst":"piano_v0_additive_0","vel":0.709,"bend":0.0,"ch":6,"track":12},{"t":2385.36,"dur":0.114,"note":70,"inst":"organ_v0_additive_1","vel":0.709,"bend":0.0,"ch":6,"track":12},{"t":2385.36,"dur":0.114,"note":73,"inst":"organ_v0_additive_1","vel":0.709,"bend":0.0,"ch":9,"track":12},{"t":2385.36,"dur":0.057,"note":85,"inst":"organ_v0_additive_1","vel":0.709,"bend":0.0,"ch":5,"track":12},{"t":2385.417,"dur":0.057,"note":82,"inst":"organ_v0_additive_1","vel":0.709,"bend":0.0,"ch":2,"track":12},{"t":2385.474,"dur":0.114,"note":70,"inst":"organ_v0_additive_1","vel":0.709,"bend":0.0,"ch":6,"track":12},{"t":2385.474,"dur":0.114,"note":73,"inst":"organ_v0_additive_1","vel":0.709,"bend":0.0,"ch":9,"track":12},{"t":2385.474,"dur":0.057,"note":82,"inst":"organ_v0_additive_1","vel":0.709,"bend":0.0,"ch":2,"track":12},{"t":2385.53,"dur":0.057,"note":82,"inst":"organ_v0_additive_1","vel":0.709,"bend":0.0,"ch":2,"track":12},{"t":2385.587,"dur":0.227,"note":54,"inst":"piano_v0_additive_0","vel":0.709,"bend":0.0,"ch":6,"track":12},{"t":2385.587,"dur":0.114,"note":63,"inst":"piano_v0_additive_0","vel":0.709,"bend":0.0,"ch":15,"track":12},{"t":2385.587,"dur":0.114,"note":73,"inst":"organ_v0_additive_1","vel":0.709,"bend":0.0,"ch":9,"track":12},{"t":2385.587,"dur":0.057,"note":82,"inst":"organ_v0_additive_1","vel":0.709,"bend":0.0,"ch":2,"track":12},{"t":2385.644,"dur":0.057,"note":78,"inst":"piano_v0_additive_0","vel":0.709,"bend":0.0,"ch":14,"track":12},{"t":2385.701,"dur":0.114,"note":63,"inst":"piano_v0_additive_0","vel":0.709,"bend":0.0,"ch":15,"track":12},{"t":2385.701,"dur":0.114,"note":73,"inst":"organ_v0_additive_1","vel":0.709,"bend":0.0,"ch":9,"track":12},{"t":2385.701,"dur":0.057,"note":78,"inst":"piano_v0_additive_0","vel":0.709,"bend":0.0,"ch":14,"track":12},{"t":2385.757,"dur":0.057,"note":75,"inst":"piano_v0_additive_0","vel":0.709,"bend":0.0,"ch":11,"track":12},{"t":2385.814,"dur":0.227,"note":46,"inst":"organ_v0_additive_1","vel":0.709,"bend":0.0,"ch":14,"track":12},{"t":2385.814,"dur":0.114,"note":66,"inst":"piano_v0_additive_0","vel":0.709,"bend":0.0,"ch":2,"track":12},{"t":2385.814,"dur":0.114,"note":58,"inst":"organ_v0_additive_1","vel":0.709,"bend":0.0,"ch":10,"track":12},{"t":2385.814,"dur":0.227,"note":73,"inst":"organ_v0_additive_1","vel":0.709,"bend":0.0,"ch":9,"track":12},{"t":2385.814,"dur":0.114,"note":73,"inst":"organ_v0_additive_1","vel":0.709,"bend":0.0,"ch":9,"track":12},{"t":2385.928,"dur":0.114,"note":66,"inst":"piano_v0_additive_0","vel":0.709,"bend":0.0,"ch":2,"track":12},{"t":2385.928,"dur":0.114,"note":58,"inst":"organ_v0_additive_1","vel":0.709,"bend":0.0,"ch":10,"track":12},{"t":2385.928,"dur":0.114,"note":73,"inst":"organ_v0_additive_1","vel":0.709,"bend":0.0,"ch":9,"track":12},{"t":2386.041,"dur":0.227,"note":46,"inst":"organ_v0_additive_1","vel":0.709,"bend":0.0,"ch":14,"track":12},{"t":2386.041,"dur":0.114,"note":63,"inst":"piano_v0_additive_0","vel":0.709,"bend":0.0,"ch":15,"track":12},{"t":2386.041,"dur":0.114,"note":66,"inst":"piano_v0_additive_0","vel":0.709,"bend":0.0,"ch":2,"track":12},{"t":2386.041,"dur":0.114,"note":73,"inst":"organ_v0_additive_1","vel":0.709,"bend":0.0,"ch":9,"track":12},{"t":2386.041,"dur":0.17,"note":75,"inst":"piano_v0_additive_0","vel":0.709,"bend":0.0,"ch":11,"track":12},{"t":2386.155,"dur":0.114,"note":63,"inst":"piano_v0_additive_0","vel":0.709,"bend":0.0,"ch":15,"track":12},{"t":2386.155,"dur":0.114,"note":66,"inst":"piano_v0_additive_0","vel":0.709,"bend":0.0,"ch":2,"track":12},{"t":2386.155,"dur":0.114,"note":73,"inst":"organ_v0_additive_1","vel":0.709,"bend":0.0,"ch":9,"track":12},{"t":2386.212,"dur":0.057,"note":73,"inst":"organ_v0_additive_1","vel":0.709,"bend":0.0,"ch":9,"track":12},{"t":2386.268,"dur":0.227,"note":49,"inst":"organ_v0_additive_1","vel":0.709,"bend":0.0,"ch":1,"track":12},{"t":2386.268,"dur":0.114,"note":61,"inst":"organ_v0_additive_1","vel":0.709,"bend":0.0,"ch":13,"track":12},{"t":2386.268,"dur":0.114,"note":66,"inst":"piano_v0_additive_0","vel":0.709,"bend":0.0,"ch":2,"track":12},{"t":2386.268,"dur":0.227,"note":73,"inst":"organ_v0_additive_1","vel":0.709,"bend":0.0,"ch":9,"track":12},{"t":2386.268,"dur":0.114,"note":73,"inst":"organ_v0_additive_1","vel":0.709,"bend":0.0,"ch":9,"track":12},{"t":2386.382,"dur":0.114,"note":61,"inst":"organ_v0_additive_1","vel":0.709,"bend":0.0,"ch":13,"track":12},{"t":2386.382,"dur":0.114,"note":66,"inst":"piano_v0_additive_0","vel":0.709,"bend":0.0,"ch":2,"track":12},{"t":2386.382,"dur":0.114,"note":73,"inst":"organ_v0_additive_1","vel":0.709,"bend":0.0,"ch":9,"track":12},{"t":2386.495,"dur":0.114,"note":61,"inst":"organ_v0_additive_1","vel":0.709,"bend":0.0,"ch":13,"track":12},{"t":2386.495,"dur":0.227,"note":61,"inst":"organ_v0_additive_1","vel":0.709,"bend":0.0,"ch":13,"track":12},{"t":2386.495,"dur":0.114,"note":66,"inst":"piano_v0_additive_0","vel":0.709,"bend":0.0,"ch":2,"track":12},{"t":2386.495,"dur":0.114,"note":73,"inst":"organ_v0_additive_1","vel":0.709,"bend":0.0,"ch":9,"track":12},{"t":2386.609,"dur":0.114,"note":61,"inst":"organ_v0_additive_1","vel":0.709,"bend":0.0,"ch":13,"track":12},{"t":2386.609,"dur":0.114,"note":66,"inst":"piano_v0_additive_0","vel":0.709,"bend":0.0,"ch":2,"track":12},{"t":2386.609,"dur":0.114,"note":73,"inst":"organ_v0_additive_1","vel":0.709,"bend":0.0,"ch":9,"track":12},{"t":2386.723,"dur":0.114,"note":63,"inst":"piano_v0_additive_0","vel":0.709,"bend":0.0,"ch":15,"track":12},{"t":2386.723,"dur":0.114,"note":66,"inst":"piano_v0_additive_0","vel":0.709,"bend":0.0,"ch":2,"track":12},{"t":2386.723,"dur":0.114,"note":73,"inst":"organ_v0_additive_1","vel":0.709,"bend":0.0,"ch":9,"track":12},{"t":2386.836,"dur":0.114,"note":63,"inst":"piano_v0_additive_0","vel":0.709,"bend":0.0,"ch":15,"track":12},{"t":2386.836,"dur":0.114,"note":66,"inst":"piano_v0_additive_0","vel":0.709,"bend":0.0,"ch":2,"track":12},{"t":2386.836,"dur":0.114,"note":73,"inst":"organ_v0_additive_1","vel":0.709,"bend":0.0,"ch":9,"track":12},{"t":2386.95,"dur":0.114,"note":66,"inst":"piano_v0_additive_0","vel":0.709,"bend":0.0,"ch":2,"track":12},{"t":2386.95,"dur":0.114,"note":58,"inst":"organ_v0_additive_1","vel":0.709,"bend":0.0,"ch":10,"track":12},{"t":2386.95,"dur":0.114,"note":73,"inst":"organ_v0_additive_1","vel":0.709,"bend":0.0,"ch":9,"track":12},{"t":2386.95,"dur":0.17,"note":73,"inst":"organ_v0_additive_1","vel":0.756,"bend":0.0,"ch":9,"track":12},{"t":2387.063,"dur":0.114,"note":66,"inst":"piano_v0_additive_0","vel":0.709,"bend":0.0,"ch":2,"track":12},{"t":2387.063,"dur":0.114,"note":58,"inst":"organ_v0_additive_1","vel":0.709,"bend":0.0,"ch":10,"track":12},{"t":2387.063,"dur":0.114,"note":73,"inst":"organ_v0_additive_1","vel":0.709,"bend":0.0,"ch":9,"track":12},{"t":2387.12,"dur":0.057,"note":73,"inst":"organ_v0_additive_1","vel":0.756,"bend":0.0,"ch":9,"track":12},{"t":2387.177,"dur":0.227,"note":42,"inst":"piano_v0_additive_0","vel":0.709,"bend":0.0,"ch":10,"track":12},{"t":2387.177,"dur":0.114,"note":66,"inst":"piano_v0_additive_0","vel":0.709,"bend":0.0,"ch":2,"track":12},{"t":2387.177,"dur":0.114,"note":70,"inst":"organ_v0_additive_1","vel":0.709,"bend":0.0,"ch":6,"track":12},{"t":2387.177,"dur":0.568,"note":78,"inst":"piano_v0_additive_0","vel":0.709,"bend":0.0,"ch":14,"track":12},{"t":2387.29,"dur":0.114,"note":66,"inst":"piano_v0_additive_0","vel":0.709,"bend":0.0,"ch":2,"track":12},{"t":2387.29,"dur":0.114,"note":70,"inst":"organ_v0_additive_1","vel":0.709,"bend":0.0,"ch":6,"track":12},{"t":2387.404,"dur":0.227,"note":46,"inst":"organ_v0_additive_1","vel":0.709,"bend":0.0,"ch":14,"track":12},{"t":2387.404,"dur":0.114,"note":66,"inst":"piano_v0_additive_0","vel":0.709,"bend":0.0,"ch":2,"track":12},{"t":2387.404,"dur":0.114,"note":70,"inst":"organ_v0_additive_1","vel":0.709,"bend":0.0,"ch":6,"track":12},{"t":2387.517,"dur":0.114,"note":66,"inst":"piano_v0_additive_0","vel":0.709,"bend":0.0,"ch":2,"track":12},{"t":2387.517,"dur":0.114,"note":70,"inst":"organ_v0_additive_1","vel":0.709,"bend":0.0,"ch":6,"track":12},{"t":2387.631,"dur":0.227,"note":49,"inst":"organ_v0_additive_1","vel":0.709,"bend":0.0,"ch":1,"track":12},{"t":2387.631,"dur":0.114,"note":66,"inst":"piano_v0_additive_0","vel":0.709,"bend":0.0,"ch":2,"track":12},{"t":2387.631,"dur":0.114,"note":70,"inst":"organ_v0_additive_1","vel":0.709,"bend":0.0,"ch":6,"track":12},{"t":2419.861,"dur":0.512,"note":59,"inst":"celesta_v0_additive_3","vel":0.63,"bend":0.0,"ch":11,"track":12},{"t":2420.401,"dur":1.025,"note":59,"inst":"celesta_v0_additive_3","vel":0.63,"bend":0.0,"ch":11,"track":12},{"t":2421.481,"dur":1.025,"note":57,"inst":"piano_v0_additive_0","vel":0.63,"bend":0.0,"ch":9,"track":12},{"t":2421.481,"dur":2.051,"note":65,"inst":"celesta_v0_additive_3","vel":0.63,"bend":0.0,"ch":1,"track":12},{"t":2422.561,"dur":1.025,"note":62,"inst":"celesta_v0_additive_3","vel":0.63,"bend":0.0,"ch":14,"track":12},{"t":2422.561,"dur":2.051,"note":74,"inst":"celesta_v0_additive_3","vel":0.63,"bend":0.0,"ch":10,"track":12},{"t":2423.641,"dur":1.025,"note":62,"inst":"celesta_v0_additive_3","vel":0.63,"bend":0.0,"ch":14,"track":12},{"t":2423.641,"dur":1.025,"note":65,"inst":"celesta_v0_additive_3","vel":0.63,"bend":0.0,"ch":1,"track":12},{"t":2424.721,"dur":3.077,"note":59,"inst":"celesta_v0_additive_3","vel":0.63,"bend":0.0,"ch":11,"track":12},{"t":2424.721,"dur":1.025,"note":65,"inst":"celesta_v0_additive_3","vel":0.63,"bend":0.0,"ch":1,"track":12},{"t":2424.721,"dur":3.077,"note":77,"inst":"celesta_v0_additive_3","vel":0.63,"bend":0.0,"ch":13,"track":12},{"t":2425.802,"dur":2.051,"note":57,"inst":"piano_v0_additive_0","vel":0.63,"bend":0.0,"ch":9,"track":12},{"t":2427.962,"dur":1.025,"note":59,"inst":"celesta_v0_additive_3","vel":0.63,"bend":0.0,"ch":11,"track":12},{"t":2427.962,"dur":1.025,"note":62,"inst":"celesta_v0_additive_3","vel":0.63,"bend":0.0,"ch":14,"track":12},{"t":2427.962,"dur":1.025,"note":74,"inst":"celesta_v0_additive_3","vel":0.63,"bend":0.0,"ch":10,"track":12},{"t":2429.042,"dur":1.538,"note":59,"inst":"celesta_v0_additive_3","vel":0.63,"bend":0.0,"ch":11,"track":12},{"t":2429.042,"dur":1.025,"note":65,"inst":"celesta_v0_additive_3","vel":0.63,"bend":0.0,"ch":1,"track":12},{"t":2429.042,"dur":2.051,"note":71,"inst":"celesta_v0_additive_3","vel":0.63,"bend":0.0,"ch":7,"track":12},{"t":2430.122,"dur":1.025,"note":65,"inst":"celesta_v0_additive_3","vel":0.63,"bend":0.0,"ch":1,"track":12},{"t":2430.662,"dur":0.512,"note":62,"inst":"celesta_v0_additive_3","vel":0.63,"bend":0.0,"ch":14,"track":12},{"t":2431.202,"dur":2.051,"note":65,"inst":"celesta_v0_additive_3","vel":0.63,"bend":0.0,"ch":1,"track":12},{"t":2431.202,"dur":2.051,"note":66,"inst":"piano_v0_additive_0","vel":0.63,"bend":0.0,"ch":2,"track":12},{"t":2431.202,"dur":1.025,"note":71,"inst":"celesta_v0_additive_3","vel":0.63,"bend":0.0,"ch":7,"track":12},{"t":2432.282,"dur":1.538,"note":77,"inst":"celesta_v0_additive_3","vel":0.63,"bend":0.0,"ch":13,"track":12},{"t":2433.362,"dur":2.051,"note":65,"inst":"celesta_v0_additive_3","vel":0.63,"bend":0.0,"ch":1,"track":12},{"t":2433.902,"dur":0.512,"note":74,"inst":"celesta_v0_additive_3","vel":0.63,"bend":0.0,"ch":10,"track":12},{"t":2434.443,"dur":1.025,"note":71,"inst":"celesta_v0_additive_3","vel":0.63,"bend":0.0,"ch":7,"track":12},{"t":2435.523,"dur":2.051,"note":65,"inst":"celesta_v0_additive_3","vel":0.63,"bend":0.0,"ch":1,"track":12},{"t":2435.523,"dur":2.051,"note":71,"inst":"celesta_v0_additive_3","vel":0.63,"bend":0.0,"ch":7,"track":12},{"t":2437.669,"dur":0.363,"note":35,"inst":"celesta_v0_additive_3","vel":1.0,"bend":0.0,"ch":3,"track":13},{"t":2437.669,"dur":0.182,"note":66,"inst":"harpsichord_v0_additive_2","vel":1.0,"bend":0.0,"ch":2,"track":13},{"t":2437.85,"dur":0.182,"note":59,"inst":"celesta_v0_additive_3","vel":1.0,"bend":0.0,"ch":11,"track":13},{"t":2438.032,"dur":0.363,"note":40,"inst":"piano_v0_additive_0","vel":1.0,"bend":0.0,"ch":8,"track":13},{"t":2438.032,"dur":0.363,"note":64,"inst":"piano_v0_additive_0","vel":1.0,"bend":0.0,"ch":0,"track":13},{"t":2438.395,"dur":0.182,"note":76,"inst":"piano_v0_additive_0","vel":1.0,"bend":0.0,"ch":12,"track":13},{"t":2438.576,"dur":0.061,"note":76,"inst":"piano_v0_additive_0","vel":1.0,"bend":0.0,"ch":12,"track":13},{"t":2438.637,"dur":0.061,"note":78,"inst":"harpsichord_v0_additive_2","vel":1.0,"bend":0.0,"ch":14,"track":13},{"t":2438.697,"dur":0.061,"note":76,"inst":"piano_v0_additive_0","vel":1.0,"bend":0.0,"ch":12,"track":13},{"t":2438.758,"dur":0.363,"note":35,"inst":"celesta_v0_additive_3","vel":1.0,"bend":0.0,"ch":3,"track":13},{"t":2438.758,"dur":0.182,"note":76,"inst":"piano_v0_additive_0","vel":1.0,"bend":0.0,"ch":12,"track":13},{"t":2438.94,"dur":0.182,"note":80,"inst":"piano_v0_additive_0","vel":1.0,"bend":0.0,"ch":0,"track":13},{"t":2439.121,"dur":0.363,"note":30,"inst":"harpsichord_v0_additive_2","vel":1.0,"bend":0.0,"ch":14,"track":13},{"t":2439.121,"dur":0.182,"note":78,"inst":"harpsichord_v0_additive_2","vel":1.0,"bend":0.0,"ch":14,"track":13},{"t":2439.303,"dur":0.061,"note":73,"inst":"organ_v0_additive_1","vel":1.0,"bend":0.0,"ch":9,"track":13},{"t":2439.363,"dur":0.061,"note":76,"inst":"piano_v0_additive_0","vel":1.0,"bend":0.0,"ch":12,"track":13},{"t":2439.424,"dur":0.061,"note":73,"inst":"organ_v0_additive_1","vel":1.0,"bend":0.0,"ch":9,"track":13},{"t":2439.484,"dur":0.363,"note":35,"inst":"celesta_v0_additive_3","vel":1.0,"bend":0.0,"ch":3,"track":13},{"t":2439.484,"dur":0.182,"note":71,"inst":"celesta_v0_additive_3","vel":1.0,"bend":0.0,"ch":7,"track":13},{"t":2439.666,"dur":0.182,"note":76,"inst":"piano_v0_additive_0","vel":1.0,"bend":0.0,"ch":12,"track":13},{"t":2439.847,"dur":0.363,"note":30,"inst":"harpsichord_v0_additive_2","vel":1.0,"bend":0.0,"ch":14,"track":13},{"t":2439.847,"dur":0.182,"note":76,"inst":"piano_v0_additive_0","vel":1.0,"bend":0.0,"ch":12,"track":13},{"t":2440.029,"dur":0.182,"note":71,"inst":"celesta_v0_additive_3","vel":1.0,"bend":0.0,"ch":7,"track":13},{"t":2440.21,"dur":0.363,"note":35,"inst":"celesta_v0_additive_3","vel":1.0,"bend":0.0,"ch":3,"track":13},{"t":2440.21,"dur":0.091,"note":66,"inst":"harpsichord_v0_additive_2","vel":1.0,"bend":0.0,"ch":2,"track":13},{"t":2440.301,"dur":0.091,"note":64,"inst":"piano_v0_additive_0","vel":1.0,"bend":0.0,"ch":0,"track":13},{"t":2440.392,"dur":0.091,"note":66,"inst":"harpsichord_v0_additive_2","vel":1.0,"bend":0.0,"ch":2,"track":13},{"t":2521.649,"dur":0.1,"note":74,"inst":"harpsichord_v0_additive_2","vel":0.685,"bend":0.0,"ch":10,"track":13},{"t":2521.749,"dur":0.1,"note":62,"inst":"harpsichord_v0_additive_2","vel":0.535,"bend":0.0,"ch":14,"track":13},{"t":2521.849,"dur":0.1,"note":74,"inst":"harpsichord_v0_additive_2","vel":0.677,"bend":0.0,"ch":10,"track":13},{"t":2521.95,"dur":0.1,"note":62,"inst":"harpsichord_v0_additive_2","vel":0.52,"bend":0.0,"ch":14,"track":13},{"t":2522.05,"dur":0.1,"note":74,"inst":"harpsichord_v0_additive_2","vel":0.661,"bend":0.0,"ch":10,"track":13},{"t":2522.15,"dur":0.1,"note":62,"inst":"harpsichord_v0_additive_2","vel":0.512,"bend":0.0,"ch":14,"track":13},{"t":2522.25,"dur":0.1,"note":74,"inst":"harpsichord_v0_additive_2","vel":0.677,"bend":0.0,"ch":10,"track":13},{"t":2522.35,"dur":0.1,"note":62,"inst":"harpsichord_v0_additive_2","vel":0.551,"bend":0.0,"ch":14,"track":13},{"t":2522.45,"dur":0.1,"note":74,"inst":"harpsichord_v0_additive_2","vel":0.677,"bend":0.0,"ch":10,"track":13},{"t":2522.551,"dur":0.1,"note":62,"inst":"harpsichord_v0_additive_2","vel":0.504,"bend":0.0,"ch":14,"track":13},{"t":2522.651,"dur":0.1,"note":74,"inst":"harpsichord_v0_additive_2","vel":0.685,"bend":0.0,"ch":10,"track":13},{"t":2522.751,"dur":0.1,"note":62,"inst":"harpsichord_v0_additive_2","vel":0.488,"bend":0.0,"ch":14,"track":13},{"t":2522.851,"dur":0.1,"note":74,"inst":"harpsichord_v0_additive_2","vel":0.693,"bend":0.0,"ch":10,"track":13},{"t":2522.951,"dur":0.1,"note":62,"inst":"harpsichord_v0_additive_2","vel":0.512,"bend":0.0,"ch":14,"track":13},{"t":2523.051,"dur":0.1,"note":74,"inst":"harpsichord_v0_additive_2","vel":0.661,"bend":0.0,"ch":10,"track":13},{"t":2523.152,"dur":0.2,"note":62,"inst":"harpsichord_v0_additive_2","vel":0.598,"bend":0.0,"ch":14,"track":13},{"t":2523.152,"dur":0.2,"note":74,"inst":"harpsichord_v0_additive_2","vel":0.598,"bend":0.0,"ch":10,"track":13},{"t":2523.352,"dur":0.2,"note":57,"inst":"organ_v0_additive_1","vel":0.559,"bend":0.0,"ch":9,"track":13},{"t":2523.352,"dur":0.2,"note":69,"inst":"organ_v0_additive_1","vel":0.559,"bend":0.0,"ch":5,"track":13},{"t":2523.552,"dur":0.2,"note":62,"inst":"harpsichord_v0_additive_2","vel":0.638,"bend":0.0,"ch":14,"track":13},{"t":2523.552,"dur":0.2,"note":74,"inst":"harpsichord_v0_additive_2","vel":0.638,"bend":0.0,"ch":10,"track":13},{"t":2523.753,"dur":0.2,"note":57,"inst":"organ_v0_additive_1","vel":0.559,"bend":0.0,"ch":9,"track":13},{"t":2523.753,"dur":0.2,"note":69,"inst":"organ_v0_additive_1","vel":0.559,"bend":0.0,"ch":5,"track":13},{"t":2523.953,"dur":0.2,"note":62,"inst":"harpsichord_v0_additive_2","vel":0.654,"bend":0.0,"ch":14,"track":13},{"t":2523.953,"dur":0.2,"note":74,"inst":"harpsichord_v0_additive_2","vel":0.654,"bend":0.0,"ch":10,"track":13},{"t":2524.153,"dur":0.2,"note":57,"inst":"organ_v0_additive_1","vel":0.559,"bend":0.0,"ch":9,"track":13},{"t":2524.153,"dur":0.2,"note":69,"inst":"organ_v0_additive_1","vel":0.559,"bend":0.0,"ch":5,"track":13},{"t":2524.354,"dur":0.2,"note":62,"inst":"harpsichord_v0_additive_2","vel":0.622,"bend":0.0,"ch":14,"track":13},{"t":2524.354,"dur":0.2,"note":74,"inst":"harpsichord_v0_additive_2","vel":0.622,"bend":0.0,"ch":10,"track":13},{"t":2524.554,"dur":0.2,"note":57,"inst":"organ_v0_additive_1","vel":0.567,"bend":0.0,"ch":9,"track":13},{"t":2524.554,"dur":0.2,"note":69,"inst":"organ_v0_additive_1","vel":0.567,"bend":0.0,"ch":5,"track":13},{"t":2524.754,"dur":0.1,"note":62,"inst":"harpsichord_v0_additive_2","vel":0.543,"bend":0.0,"ch":14,"track":13},{"t":2524.754,"dur":1.603,"note":86,"inst":"harpsichord_v0_additive_2","vel":0.433,"bend":0.0,"ch":6,"track":13},{"t":2524.854,"dur":0.1,"note":74,"inst":"harpsichord_v0_additive_2","vel":0.677,"bend":0.0,"ch":10,"track":13},{"t":2524.955,"dur":0.1,"note":62,"inst":"harpsichord_v0_additive_2","vel":0.535,"bend":0.0,"ch":14,"track":13},{"t":2525.055,"dur":0.1,"note":74,"inst":"harpsichord_v0_additive_2","vel":0.646,"bend":0.0,"ch":10,"track":13},{"t":2525.155,"dur":0.1,"note":62,"inst":"harpsichord_v0_additive_2","vel":0.543,"bend":0.0,"ch":14,"track":13},{"t":2525.255,"dur":0.1,"note":74,"inst":"harpsichord_v0_additive_2","vel":0.646,"bend":0.0,"ch":10,"track":13},{"t":2525.355,"dur":0.1,"note":62,"inst":"harpsichord_v0_additive_2","vel":0.535,"bend":0.0,"ch":14,"track":13},{"t":2525.455,"dur":0.1,"note":74,"inst":"harpsichord_v0_additive_2","vel":0.669,"bend":0.0,"ch":10,"track":13},{"t":2525.556,"dur":0.1,"note":62,"inst":"harpsichord_v0_additive_2","vel":0.496,"bend":0.0,"ch":14,"track":13},{"t":2525.656,"dur":0.1,"note":74,"inst":"harpsichord_v0_additive_2","vel":0.654,"bend":0.0,"ch":10,"track":13},{"t":2525.756,"dur":0.1,"note":62,"inst":"harpsichord_v0_additive_2","vel":0.512,"bend":0.0,"ch":14,"track":13},{"t":2525.856,"dur":0.1,"note":74,"inst":"harpsichord_v0_additive_2","vel":0.646,"bend":0.0,"ch":10,"track":13},{"t":2525.956,"dur":0.1,"note":62,"inst":"harpsichord_v0_additive_2","vel":0.535,"bend":0.0,"ch":14,"track":13},{"t":2526.056,"dur":0.1,"note":74,"inst":"harpsichord_v0_additive_2","vel":0.646,"bend":0.0,"ch":10,"track":13},{"t":2526.157,"dur":0.1,"note":62,"inst":"harpsichord_v0_additive_2","vel":0.535,"bend":0.0,"ch":14,"track":13},{"t":2526.257,"dur":0.1,"note":74,"inst":"harpsichord_v0_additive_2","vel":0.622,"bend":0.0,"ch":10,"track":13},{"t":2526.357,"dur":0.1,"note":62,"inst":"harpsichord_v0_additive_2","vel":0.52,"bend":0.0,"ch":14,"track":13},{"t":2526.357,"dur":1.603,"note":93,"inst":"organ_v0_additive_1","vel":0.677,"bend":0.0,"ch":13,"track":13},{"t":2526.457,"dur":0.1,"note":74,"inst":"harpsichord_v0_additive_2","vel":0.693,"bend":0.0,"ch":10,"track":13},{"t":2526.557,"dur":0.1,"note":62,"inst":"harpsichord_v0_additive_2","vel":0.512,"bend":0.0,"ch":14,"track":13},{"t":2526.657,"dur":0.1,"note":74,"inst":"harpsichord_v0_additive_2","vel":0.693,"bend":0.0,"ch":10,"track":13},{"t":2526.758,"dur":0.1,"note":62,"inst":"harpsichord_v0_additive_2","vel":0.496,"bend":0.0,"ch":14,"track":13},{"t":2526.858,"dur":0.1,"note":74,"inst":"harpsichord_v0_additive_2","vel":0.654,"bend":0.0,"ch":10,"track":13},{"t":2526.958,"dur":0.1,"note":62,"inst":"harpsichord_v0_additive_2","vel":0.528,"bend":0.0,"ch":14,"track":13},{"t":2527.058,"dur":0.1,"note":74,"inst":"harpsichord_v0_additive_2","vel":0.646,"bend":0.0,"ch":10,"track":13},{"t":2527.158,"dur":0.1,"note":62,"inst":"harpsichord_v0_additive_2","vel":0.496,"bend":0.0,"ch":14,"track":13},{"t":2563.761,"dur":0.119,"note":68,"inst":"piano_v0_additive_0","vel":0.709,"bend":0.0,"ch":4,"track":13},{"t":2563.761,"dur":0.119,"note":68,"inst":"piano_v0_additive_0","vel":0.709,"bend":0.0,"ch":4,"track":13},{"t":2563.881,"dur":0.119,"note":66,"inst":"harpsichord_v0_additive_2","vel":0.709,"bend":0.0,"ch":2,"track":13},{"t":2563.881,"dur":0.119,"note":66,"inst":"harpsichord_v0_additive_2","vel":0.709,"bend":0.0,"ch":2,"track":13},{"t":2564.0,"dur":0.239,"note":64,"inst":"piano_v0_additive_0","vel":0.709,"bend":0.0,"ch":0,"track":13},{"t":2564.0,"dur":0.239,"note":64,"inst":"piano_v0_additive_0","vel":0.709,"bend":0.0,"ch":0,"track":13},{"t":2564.0,"dur":0.239,"note":92,"inst":"piano_v0_additive_0","vel":0.709,"bend":0.0,"ch":12,"track":13},{"t":2564.238,"dur":0.239,"note":66,"inst":"harpsichord_v0_additive_2","vel":0.709,"bend":0.0,"ch":2,"track":13},{"t":2564.238,"dur":0.239,"note":66,"inst":"harpsichord_v0_additive_2","vel":0.709,"bend":0.0,"ch":2,"track":13},{"t":2564.238,"dur":0.477,"note":85,"inst":"organ_v0_additive_1","vel":0.709,"bend":0.0,"ch":5,"track":13},{"t":2564.477,"dur":0.239,"note":54,"inst":"harpsichord_v0_additive_2","vel":0.709,"bend":0.0,"ch":6,"track":13},{"t":2564.477,"dur":0.239,"note":61,"inst":"organ_v0_additive_1","vel":0.709,"bend":0.0,"ch":13,"track":13},{"t":2564.477,"dur":0.716,"note":80,"inst":"piano_v0_additive_0","vel":0.709,"bend":0.0,"ch":0,"track":13},{"t":2564.715,"dur":0.239,"note":66,"inst":"harpsichord_v0_additive_2","vel":0.709,"bend":0.0,"ch":2,"track":13},{"t":2564.715,"dur":0.239,"note":66,"inst":"harpsichord_v0_additive_2","vel":0.709,"bend":0.0,"ch":2,"track":13},{"t":2564.715,"dur":0.239,"note":80,"inst":"piano_v0_additive_0","vel":0.709,"bend":0.0,"ch":0,"track":13},{"t":2564.954,"dur":0.239,"note":59,"inst":"celesta_v0_additive_3","vel":0.709,"bend":0.0,"ch":11,"track":13},{"t":2564.954,"dur":0.239,"note":59,"inst":"celesta_v0_additive_3","vel":0.709,"bend":0.0,"ch":11,"track":13},{"t":2564.954,"dur":0.716,"note":86,"inst":"harpsichord_v0_additive_2","vel":0.709,"bend":0.0,"ch":6,"track":13},{"t":2565.193,"dur":0.239,"note":64,"inst":"piano_v0_additive_0","vel":0.709,"bend":0.0,"ch":0,"track":13},{"t":2565.193,"dur":0.239,"note":64,"inst":"piano_v0_additive_0","vel":0.709,"bend":0.0,"ch":0,"track":13},{"t":2565.193,"dur":0.716,"note":80,"inst":"piano_v0_additive_0","vel":0.709,"bend":0.0,"ch":0,"track":13},{"t":2565.431,"dur":0.239,"note":52,"inst":"piano_v0_additive_0","vel":0.709,"bend":0.0,"ch":4,"track":13},{"t":2565.431,"dur":0.239,"note":52,"inst":"piano_v0_additive_0","vel":0.709,"bend":0.0,"ch":4,"track":13},{"t":2565.67,"dur":0.477,"note":56,"inst":"piano_v0_additive_0","vel":0.709,"bend":0.0,"ch":8,"track":13},{"t":2565.67,"dur":0.477,"note":56,"inst":"piano_v0_additive_0","vel":0.709,"bend":0.0,"ch":8,"track":13},{"t":2565.67,"dur":0.716,"note":85,"inst":"organ_v0_additive_1","vel":0.709,"bend":0.0,"ch":5,"track":13},{"t":2565.908,"dur":0.239,"note":73,"inst":"organ_v0_additive_1","vel":0.709,"bend":0.0,"ch":9,"track":13},{"t":2566.147,"dur":0.239,"note":62,"inst":"harpsichord_v0_additive_2","vel":0.709,"bend":0.0,"ch":14,"track":13},{"t":2566.147,"dur":0.239,"note":62,"inst":"harpsichord_v0_additive_2","vel":0.709,"bend":0.0,"ch":14,"track":13},{"t":2566.147,"dur":0.477,"note":78,"inst":"harpsichord_v0_additive_2","vel":0.709,"bend":0.0,"ch":14,"track":13},{"t":2566.385,"dur":0.477,"note":56,"inst":"piano_v0_additive_0","vel":0.709,"bend":0.0,"ch":8,"track":13},{"t":2566.385,"dur":0.477,"note":56,"inst":"piano_v0_additive_0","vel":0.709,"bend":0.0,"ch":8,"track":13},{"t":2566.385,"dur":0.716,"note":83,"inst":"celesta_v0_additive_3","vel":0.709,"bend":0.0,"ch":3,"track":13},{"t":2566.624,"dur":0.239,"note":71,"inst":"celesta_v0_additive_3","vel":0.709,"bend":0.0,"ch":7,"track":13},{"t":2566.862,"dur":0.239,"note":61,"inst":"organ_v0_additive_1","vel":0.709,"bend":0.0,"ch":13,"track":13},{"t":2566.862,"dur":0.239,"note":61,"inst":"organ_v0_additive_1","vel":0.709,"bend":0.0,"ch":13,"track":13},{"t":2566.862,"dur":0.477,"note":76,"inst":"piano_v0_additive_0","vel":0.709,"bend":0.0,"ch":12,"track":13},{"t":2567.101,"dur":0.477,"note":54,"inst":"harpsichord_v0_additive_2","vel":0.709,"bend":0.0,"ch":6,"track":13},{"t":2567.101,"dur":0.477,"note":54,"inst":"harpsichord_v0_additive_2","vel":0.709,"bend":0.0,"ch":6,"track":13},{"t":2567.101,"dur":0.716,"note":80,"inst":"piano_v0_additive_0","vel":0.709,"bend":0.0,"ch":0,"track":13},{"t":2567.339,"dur":0.239,"note":68,"inst":"piano_v0_additive_0","vel":0.709,"bend":0.0,"ch":4,"track":13},{"t":2567.578,"dur":0.239,"note":59,"inst":"celesta_v0_additive_3","vel":0.709,"bend":0.0,"ch":11,"track":13},{"t":2567.578,"dur":0.239,"note":59,"inst":"celesta_v0_additive_3","vel":0.709,"bend":0.0,"ch":11,"track":13},{"t":2567.578,"dur":0.716,"note":74,"inst":"harpsichord_v0_additive_2","vel":0.709,"bend":0.0,"ch":10,"track":13},{"t":2567.816,"dur":0.477,"note":52,"inst":"piano_v0_additive_0","vel":0.709,"bend":0.0,"ch":4,"track":13},{"t":2567.816,"dur":0.477,"note":52,"inst":"piano_v0_additive_0","vel":0.709,"bend":0.0,"ch":4,"track":13},{"t":2567.816,"dur":0.239,"note":80,"inst":"piano_v0_additive_0","vel":0.709,"bend":0.0,"ch":0,"track":13},{"t":2568.055,"dur":0.239,"note":76,"inst":"piano_v0_additive_0","vel":0.709,"bend":0.0,"ch":12,"track":13},{"t":2568.294,"dur":0.239,"note":54,"inst":"harpsichord_v0_additive_2","vel":0.709,"bend":0.0,"ch":6,"track":13},{"t":2568.294,"dur":0.239,"note":54,"inst":"harpsichord_v0_additive_2","vel":0.709,"bend":0.0,"ch":6,"track":13},{"t":2568.294,"dur":0.477,"note":73,"inst":"organ_v0_additive_1","vel":0.709,"bend":0.0,"ch":9,"track":13},{"t":2568.294,"dur":0.239,"note":80,"inst":"piano_v0_additive_0","vel":0.709,"bend":0.0,"ch":0,"track":13},{"t":2568.532,"dur":0.239,"note":50,"inst":"harpsichord_v0_additive_2","vel":0.709,"bend":0.0,"ch":2,"track":13},{"t":2568.532,"dur":0.239,"note":50,"inst":"harpsichord_v0_additive_2","vel":0.709,"bend":0.0,"ch":2,"track":13},{"t":2568.532,"dur":0.239,"note":68,"inst":"piano_v0_additive_0","vel":0.709,"bend":0.0,"ch":4,"track":13},{"t":2568.771,"dur":0.477,"note":52,"inst":"piano_v0_additive_0","vel":0.709,"bend":0.0,"ch":4,"track":13},{"t":2568.771,"dur":0.477,"note":52,"inst":"piano_v0_additive_0","vel":0.709,"bend":0.0,"ch":4,"track":13},{"t":2568.771,"dur":0.358,"note":68,"inst":"piano_v0_additive_0","vel":0.709,"bend":0.0,"ch":4,"track":13},{"t":2568.771,"dur":0.477,"note":71,"inst":"celesta_v0_additive_3","vel":0.709,"bend":0.0,"ch":7,"track":13},{"t":2569.128,"dur":0.119,"note":68,"inst":"piano_v0_additive_0","vel":0.709,"bend":0.0,"ch":4,"track":13},{"t":2569.248,"dur":0.239,"note":56,"inst":"piano_v0_additive_0","vel":0.709,"bend":0.0,"ch":8,"track":13},{"t":2569.248,"dur":0.239,"note":56,"inst":"piano_v0_additive_0","vel":0.709,"bend":0.0,"ch":8,"track":13},{"t":2569.248,"dur":0.239,"note":68,"inst":"piano_v0_additive_0","vel":0.709,"bend":0.0,"ch":4,"track":13},{"t":2569.248,"dur":0.477,"note":68,"inst":"piano_v0_additive_0","vel":0.709,"bend":0.0,"ch":4,"track":13},{"t":2569.486,"dur":0.477,"note":68,"inst":"piano_v0_additive_0","vel":0.709,"bend":0.0,"ch":4,"track":13},{"t":2569.486,"dur":0.477,"note":68,"inst":"piano_v0_additive_0","vel":0.709,"bend":0.0,"ch":4,"track":13},{"t":2569.486,"dur":0.358,"note":85,"inst":"organ_v0_additive_1","vel":0.709,"bend":0.0,"ch":5,"track":13},{"t":2569.844,"dur":0.119,"note":86,"inst":"harpsichord_v0_additive_2","vel":0.709,"bend":0.0,"ch":6,"track":13},{"t":2569.963,"dur":0.239,"note":68,"inst":"piano_v0_additive_0","vel":0.709,"bend":0.0,"ch":4,"track":13},{"t":2569.963,"dur":0.239,"note":68,"inst":"piano_v0_additive_0","vel":0.709,"bend":0.0,"ch":4,"track":13},{"t":2569.963,"dur":0.239,"note":88,"inst":"piano_v0_additive_0","vel":0.709,"bend":0.0,"ch":8,"track":13},{"t":2570.202,"dur":0.477,"note":70,"inst":"harpsichord_v0_additive_2","vel":0.709,"bend":0.0,"ch":6,"track":13},{"t":2570.202,"dur":0.477,"note":70,"inst":"harpsichord_v0_additive_2","vel":0.709,"bend":0.0,"ch":6,"track":13},{"t":2570.202,"dur":0.358,"note":85,"inst":"organ_v0_additive_1","vel":0.709,"bend":0.0,"ch":5,"track":13},{"t":2570.202,"dur":0.119,"note":90,"inst":"harpsichord_v0_additive_2","vel":0.709,"bend":0.0,"ch":10,"track":13},{"t":2570.321,"dur":0.119,"note":88,"inst":"piano_v0_additive_0","vel":0.709,"bend":0.0,"ch":8,"track":13},{"t":2570.44,"dur":0.119,"note":86,"inst":"harpsichord_v0_additive_2","vel":0.709,"bend":0.0,"ch":6,"track":13},{"t":2570.56,"dur":0.119,"note":85,"inst":"organ_v0_additive_1","vel":0.709,"bend":0.0,"ch":5,"track":13},{"t":2570.56,"dur":0.119,"note":85,"inst":"organ_v0_additive_1","vel":0.709,"bend":0.0,"ch":5,"track":13},{"t":2570.679,"dur":0.358,"note":71,"inst":"celesta_v0_additive_3","vel":0.709,"bend":0.0,"ch":7,"track":13},{"t":2570.679,"dur":0.358,"note":71,"inst":"celesta_v0_additive_3","vel":0.709,"bend":0.0,"ch":7,"track":13},{"t":2570.679,"dur":0.358,"note":78,"inst":"harpsichord_v0_additive_2","vel":0.709,"bend":0.0,"ch":14,"track":13},{"t":2570.679,"dur":0.358,"note":86,"inst":"harpsichord_v0_additive_2","vel":0.709,"bend":0.0,"ch":6,"track":13},{"t":2571.037,"dur":0.119,"note":62,"inst":"harpsichord_v0_additive_2","vel":0.709,"bend":0.0,"ch":14,"track":13},{"t":2571.037,"dur":0.119,"note":62,"inst":"harpsichord_v0_additive_2","vel":0.709,"bend":0.0,"ch":14,"track":13},{"t":2571.037,"dur":0.119,"note":83,"inst":"celesta_v0_additive_3","vel":0.709,"bend":0.0,"ch":3,"track":13},{"t":2571.037,"dur":0.119,"note":90,"inst":"harpsichord_v0_additive_2","vel":0.709,"bend":0.0,"ch":10,"track":13},{"t":2571.156,"dur":0.477,"note":64,"inst":"piano_v0_additive_0","vel":0.709,"bend":0.0,"ch":0,"track":13},{"t":2571.156,"dur":0.477,"note":64,"inst":"piano_v0_additive_0","vel":0.709,"bend":0.0,"ch":0,"track":13},{"t":2571.156,"dur":0.239,"note":82,"inst":"harpsichord_v0_additive_2","vel":0.709,"bend":0.0,"ch":2,"track":13},{"t":2571.156,"dur":0.239,"note":85,"inst":"organ_v0_additive_1","vel":0.709,"bend":0.0,"ch":5,"track":13},{"t":2571.395,"dur":0.239,"note":83,"inst":"celesta_v0_additive_3","vel":0.709,"bend":0.0,"ch":3,"track":13},{"t":2571.395,"dur":0.239,"note":86,"inst":"harpsichord_v0_additive_2","vel":0.709,"bend":0.0,"ch":6,"track":13},{"t":2571.633,"dur":0.477,"note":66,"inst":"harpsichord_v0_additive_2","vel":0.709,"bend":0.0,"ch":2,"track":13},{"t":2571.633,"dur":0.477,"note":66,"inst":"harpsichord_v0_additive_2","vel":0.709,"bend":0.0,"ch":2,"track":13},{"t":2571.633,"dur":0.358,"note":83,"inst":"celesta_v0_additive_3","vel":0.709,"bend":0.0,"ch":3,"track":13},{"t":2571.633,"dur":0.477,"note":85,"inst":"organ_v0_additive_1","vel":0.709,"bend":0.0,"ch":5,"track":13},{"t":2571.991,"dur":0.119,"note":82,"inst":"harpsichord_v0_additive_2","vel":0.709,"bend":0.0,"ch":2,"track":13},{"t":2572.11,"dur":0.239,"note":59,"inst":"celesta_v0_additive_3","vel":0.709,"bend":0.0,"ch":11,"track":13},{"t":2572.11,"dur":0.239,"note":59,"inst":"celesta_v0_additive_3","vel":0.709,"bend":0.0,"ch":11,"track":13},{"t":2572.11,"dur":0.239,"note":83,"inst":"celesta_v0_additive_3","vel":0.709,"bend":0.0,"ch":3,"track":13},{"t":2572.11,"dur":0.477,"note":83,"inst":"celesta_v0_additive_3","vel":0.709,"bend":0.0,"ch":3,"track":13},{"t":2572.349,"dur":0.477,"note":58,"inst":"harpsichord_v0_additive_2","vel":0.709,"bend":0.0,"ch":10,"track":13},{"t":2572.349,"dur":0.477,"note":58,"inst":"harpsichord_v0_additive_2","vel":0.709,"bend":0.0,"ch":10,"track":13},{"t":2572.349,"dur":0.119,"note":90,"inst":"harpsichord_v0_additive_2","vel":0.709,"bend":0.0,"ch":10,"track":13},{"t":2572.468,"dur":0.119,"note":88,"inst":"piano_v0_additive_0","vel":0.709,"bend":0.0,"ch":8,"track":13},{"t":2572.587,"dur":0.119,"note":86,"inst":"harpsichord_v0_additive_2","vel":0.709,"bend":0.0,"ch":6,"track":13},{"t":2572.707,"dur":0.119,"note":85,"inst":"organ_v0_additive_1","vel":0.709,"bend":0.0,"ch":5,"track":13},{"t":2572.826,"dur":0.239,"note":59,"inst":"celesta_v0_additive_3","vel":0.709,"bend":0.0,"ch":11,"track":13},{"t":2572.826,"dur":0.239,"note":59,"inst":"celesta_v0_additive_3","vel":0.709,"bend":0.0,"ch":11,"track":13},{"t":2572.826,"dur":0.239,"note":86,"inst":"harpsichord_v0_additive_2","vel":0.709,"bend":0.0,"ch":6,"track":13},{"t":2573.064,"dur":0.477,"note":54,"inst":"harpsichord_v0_additive_2","vel":0.709,"bend":0.0,"ch":6,"track":13},{"t":2573.064,"dur":0.477,"note":54,"inst":"harpsichord_v0_additive_2","vel":0.709,"bend":0.0,"ch":6,"track":13},{"t":2573.064,"dur":0.477,"note":85,"inst":"organ_v0_additive_1","vel":0.709,"bend":0.0,"ch":5,"track":13},{"t":2573.064,"dur":0.119,"note":90,"inst":"harpsichord_v0_additive_2","vel":0.709,"bend":0.0,"ch":10,"track":13},{"t":2573.184,"dur":0.119,"note":88,"inst":"piano_v0_additive_0","vel":0.709,"bend":0.0,"ch":8,"track":13},{"t":2573.303,"dur":0.119,"note":86,"inst":"harpsichord_v0_additive_2","vel":0.709,"bend":0.0,"ch":6,"track":13},{"t":2573.422,"dur":0.119,"note":85,"inst":"organ_v0_additive_1","vel":0.709,"bend":0.0,"ch":5,"track":13},{"t":2573.541,"dur":0.239,"note":59,"inst":"celesta_v0_additive_3","vel":0.709,"bend":0.0,"ch":11,"track":13},{"t":2573.541,"dur":0.239,"note":59,"inst":"celesta_v0_additive_3","vel":0.709,"bend":0.0,"ch":11,"track":13},{"t":2573.541,"dur":0.239,"note":86,"inst":"harpsichord_v0_additive_2","vel":0.709,"bend":0.0,"ch":6,"track":13},{"t":2573.78,"dur":0.477,"note":58,"inst":"harpsichord_v0_additive_2","vel":0.709,"bend":0.0,"ch":10,"track":13},{"t":2573.78,"dur":0.477,"note":58,"inst":"harpsichord_v0_additive_2","vel":0.709,"bend":0.0,"ch":10,"track":13},{"t":2573.78,"dur":0.716,"note":85,"inst":"organ_v0_additive_1","vel":0.709,"bend":0.0,"ch":5,"track":13},{"t":2573.78,"dur":0.119,"note":90,"inst":"harpsichord_v0_additive_2","vel":0.709,"bend":0.0,"ch":10,"track":13},{"t":2573.899,"dur":0.119,"note":88,"inst":"piano_v0_additive_0","vel":0.709,"bend":0.0,"ch":8,"track":13},{"t":2574.019,"dur":0.119,"note":86,"inst":"harpsichord_v0_additive_2","vel":0.709,"bend":0.0,"ch":6,"track":13},{"t":2574.138,"dur":0.119,"note":85,"inst":"organ_v0_additive_1","vel":0.709,"bend":0.0,"ch":5,"track":13},{"t":2574.257,"dur":0.477,"note":59,"inst":"celesta_v0_additive_3","vel":0.709,"bend":0.0,"ch":11,"track":13},{"t":2574.257,"dur":0.477,"note":59,"inst":"celesta_v0_additive_3","vel":0.709,"bend":0.0,"ch":11,"track":13},{"t":2574.257,"dur":0.954,"note":86,"inst":"harpsichord_v0_additive_2","vel":0.709,"bend":0.0,"ch":6,"track":13},{"t":2574.496,"dur":0.119,"note":83,"inst":"celesta_v0_additive_3","vel":0.709,"bend":0.0,"ch":3,"track":13},{"t":2574.615,"dur":0.119,"note":80,"inst":"piano_v0_additive_0","vel":0.709,"bend":0.0,"ch":0,"track":13},{"t":2574.734,"dur":0.239,"note":59,"inst":"celesta_v0_additive_3","vel":0.709,"bend":0.0,"ch":11,"track":13},{"t":2574.734,"dur":0.239,"note":59,"inst":"celesta_v0_additive_3","vel":0.709,"bend":0.0,"ch":11,"track":13},{"t":2574.734,"dur":0.119,"note":80,"inst":"piano_v0_additive_0","vel":0.709,"bend":0.0,"ch":0,"track":13},{"t":2574.853,"dur":0.119,"note":78,"inst":"harpsichord_v0_additive_2","vel":0.709,"bend":0.0,"ch":14,"track":13},{"t":2574.973,"dur":0.477,"note":61,"inst":"organ_v0_additive_1","vel":0.709,"bend":0.0,"ch":13,"track":13},{"t":2574.973,"dur":0.477,"note":61,"inst":"organ_v0_additive_1","vel":0.709,"bend":0.0,"ch":13,"track":13},{"t":2574.973,"dur":0.239,"note":76,"inst":"piano_v0_additive_0","vel":0.709,"bend":0.0,"ch":12,"track":13},{"t":2575.579,"dur":0.399,"note":41,"inst":"celesta_v0_additive_3","vel":1.0,"bend":0.0,"ch":9,"track":14},{"t":2575.579,"dur":0.2,"note":70,"inst":"harpsichord_v0_additive_2","vel":1.0,"bend":0.0,"ch":6,"track":14},{"t":2575.779,"dur":0.2,"note":68,"inst":"celesta_v0_additive_3","vel":1.0,"bend":0.0,"ch":4,"track":14},{"t":2575.978,"dur":0.399,"note":41,"inst":"celesta_v0_additive_3","vel":1.0,"bend":0.0,"ch":9,"track":14},{"t":2575.978,"dur":0.2,"note":65,"inst":"celesta_v0_additive_3","vel":1.0,"bend":0.0,"ch":1,"track":14},{"t":2576.178,"dur":0.2,"note":80,"inst":"celesta_v0_additive_3","vel":1.0,"bend":0.0,"ch":0,"track":14},{"t":2576.378,"dur":0.399,"note":41,"inst":"celesta_v0_additive_3","vel":1.0,"bend":0.0,"ch":9,"track":14},{"t":2576.378,"dur":0.2,"note":77,"inst":"celesta_v0_additive_3","vel":1.0,"bend":0.0,"ch":13,"track":14},{"t":2576.578,"dur":0.067,"note":68,"inst":"celesta_v0_additive_3","vel":1.0,"bend":0.0,"ch":4,"track":14},{"t":2576.644,"dur":0.067,"note":70,"inst":"harpsichord_v0_additive_2","vel":1.0,"bend":0.0,"ch":6,"track":14},{"t":2576.711,"dur":0.067,"note":68,"inst":"celesta_v0_additive_3","vel":1.0,"bend":0.0,"ch":4,"track":14},{"t":2576.777,"dur":0.399,"note":41,"inst":"celesta_v0_additive_3","vel":1.0,"bend":0.0,"ch":9,"track":14},{"t":2576.777,"dur":0.2,"note":65,"inst":"celesta_v0_additive_3","vel":1.0,"bend":0.0,"ch":1,"track":14},{"t":2576.977,"dur":0.2,"note":75,"inst":"piano_v0_additive_0","vel":1.0,"bend":0.0,"ch":11,"track":14},{"t":2577.177,"dur":0.399,"note":41,"inst":"celesta_v0_additive_3","vel":1.0,"bend":0.0,"ch":9,"track":14},{"t":2577.177,"dur":0.2,"note":73,"inst":"harpsichord_v0_additive_2","vel":1.0,"bend":0.0,"ch":9,"track":14},{"t":2577.376,"dur":0.2,"note":65,"inst":"celesta_v0_additive_3","vel":1.0,"bend":0.0,"ch":1,"track":14},{"t":2577.576,"dur":0.399,"note":46,"inst":"harpsichord_v0_additive_2","vel":1.0,"bend":0.0,"ch":14,"track":14},{"t":2577.576,"dur":0.399,"note":70,"inst":"harpsichord_v0_additive_2","vel":1.0,"bend":0.0,"ch":6,"track":14},{"t":2577.976,"dur":0.2,"note":82,"inst":"harpsichord_v0_additive_2","vel":1.0,"bend":0.0,"ch":2,"track":14},{"t":2578.175,"dur":0.067,"note":82,"inst":"harpsichord_v0_additive_2","vel":1.0,"bend":0.0,"ch":2,"track":14},{"t":2578.242,"dur":0.067,"note":85,"inst":"harpsichord_v0_additive_2","vel":1.0,"bend":0.0,"ch":5,"track":14},{"t":2578.309,"dur":0.067,"note":82,"inst":"harpsichord_v0_additive_2","vel":1.0,"bend":0.0,"ch":2,"track":14},{"t":2578.375,"dur":0.399,"note":41,"inst":"celesta_v0_additive_3","vel":1.0,"bend":0.0,"ch":9,"track":14},{"t":2578.375,"dur":0.2,"note":82,"inst":"harpsichord_v0_additive_2","vel":1.0,"bend":0.0,"ch":2,"track":14},{"t":2578.575,"dur":0.2,"note":87,"inst":"piano_v0_additive_0","vel":1.0,"bend":0.0,"ch":7,"track":14},{"t":2578.775,"dur":0.399,"note":37,"inst":"harpsichord_v0_additive_2","vel":1.0,"bend":0.0,"ch":5,"track":14},{"t":2578.775,"dur":0.2,"note":85,"inst":"harpsichord_v0_additive_2","vel":1.0,"bend":0.0,"ch":5,"track":14},{"t":2578.974,"dur":0.067,"note":80,"inst":"celesta_v0_additive_3","vel":1.0,"bend":0.0,"ch":0,"track":14},{"t":2579.041,"dur":0.067,"note":82,"inst":"harpsichord_v0_additive_2","vel":1.0,"bend":0.0,"ch":2,"track":14},{"t":2579.107,"dur":0.067,"note":80,"inst":"celesta_v0_additive_3","vel":1.0,"bend":0.0,"ch":0,"track":14},{"t":2579.174,"dur":0.399,"note":41,"inst":"celesta_v0_additive_3","vel":1.0,"bend":0.0,"ch":9,"track":14},{"t":2579.174,"dur":0.2,"note":77,"inst":"celesta_v0_additive_3","vel":1.0,"bend":0.0,"ch":13,"track":14},{"t":2579.374,"dur":0.2,"note":82,"inst":"harpsichord_v0_additive_2","vel":1.0,"bend":0.0,"ch":2,"track":14},{"t":2579.573,"dur":0.399,"note":37,"inst":"harpsichord_v0_additive_2","vel":1.0,"bend":0.0,"ch":5,"track":14},{"t":2579.573,"dur":0.2,"note":82,"inst":"harpsichord_v0_additive_2","vel":1.0,"bend":0.0,"ch":2,"track":14},{"t":2579.773,"dur":0.2,"note":77,"inst":"celesta_v0_additive_3","vel":1.0,"bend":0.0,"ch":13,"track":14},{"t":2579.973,"dur":0.399,"note":41,"inst":"celesta_v0_additive_3","vel":1.0,"bend":0.0,"ch":9,"track":14},{"t":2579.973,"dur":0.1,"note":73,"inst":"harpsichord_v0_additive_2","vel":1.0,"bend":0.0,"ch":9,"track":14},{"t":2580.073,"dur":0.1,"note":70,"inst":"harpsichord_v0_additive_2","vel":1.0,"bend":0.0,"ch":6,"track":14},{"t":2580.173,"dur":0.1,"note":73,"inst":"harpsichord_v0_additive_2","vel":1.0,"bend":0.0,"ch":9,"track":14},{"t":2580.272,"dur":0.1,"note":75,"inst":"piano_v0_additive_0","vel":1.0,"bend":0.0,"ch":11,"track":14},{"t":2580.372,"dur":0.399,"note":37,"inst":"harpsichord_v0_additive_2","vel":1.0,"bend":0.0,"ch":5,"track":14},{"t":2580.372,"dur":0.1,"note":77,"inst":"celesta_v0_additive_3","vel":1.0,"bend":0.0,"ch":13,"track":14},{"t":2580.472,"dur":0.1,"note":77,"inst":"celesta_v0_additive_3","vel":1.0,"bend":0.0,"ch":13,"track":14},{"t":2580.572,"dur":0.1,"note":80,"inst":"celesta_v0_additive_3","vel":1.0,"bend":0.0,"ch":0,"track":14},{"t":2580.672,"dur":0.1,"note":82,"inst":"harpsichord_v0_additive_2","vel":1.0,"bend":0.0,"ch":2,"track":14},{"t":2580.772,"dur":0.399,"note":44,"inst":"celesta_v0_additive_3","vel":1.0,"bend":0.0,"ch":12,"track":14},{"t":2580.772,"dur":0.399,"note":82,"inst":"harpsichord_v0_additive_2","vel":1.0,"bend":0.0,"ch":2,"track":14},{"t":2581.171,"dur":0.399,"note":37,"inst":"harpsichord_v0_additive_2","vel":1.0,"bend":0.0,"ch":5,"track":14},{"t":2581.371,"dur":0.067,"note":82,"inst":"harpsichord_v0_additive_2","vel":1.0,"bend":0.0,"ch":2,"track":14},{"t":2581.438,"dur":0.067,"note":85,"inst":"harpsichord_v0_additive_2","vel":1.0,"bend":0.0,"ch":5,"track":14},{"t":2581.504,"dur":0.067,"note":82,"inst":"harpsichord_v0_additive_2","vel":1.0,"bend":0.0,"ch":2,"track":14},{"t":2581.571,"dur":0.399,"note":44,"inst":"celesta_v0_additive_3","vel":1.0,"bend":0.0,"ch":12,"track":14},{"t":2581.571,"dur":0.2,"note":80,"inst":"celesta_v0_additive_3","vel":1.0,"bend":0.0,"ch":0,"track":14},{"t":2581.77,"dur":0.2,"note":87,"inst":"piano_v0_additive_0","vel":1.0,"bend":0.0,"ch":7,"track":14},{"t":2581.97,"dur":0.399,"note":37,"inst":"harpsichord_v0_additive_2","vel":1.0,"bend":0.0,"ch":5,"track":14},{"t":2581.97,"dur":0.2,"note":85,"inst":"harpsichord_v0_additive_2","vel":1.0,"bend":0.0,"ch":5,"track":14},{"t":2582.17,"dur":0.067,"note":80,"inst":"celesta_v0_additive_3","vel":1.0,"bend":0.0,"ch":0,"track":14},{"t":2582.236,"dur":0.067,"note":82,"inst":"harpsichord_v0_additive_2","vel":1.0,"bend":0.0,"ch":2,"track":14},{"t":2582.303,"dur":0.067,"note":80,"inst":"celesta_v0_additive_3","vel":1.0,"bend":0.0,"ch":0,"track":14},{"t":2582.37,"dur":0.399,"note":44,"inst":"celesta_v0_additive_3","vel":1.0,"bend":0.0,"ch":12,"track":14},{"t":2582.37,"dur":0.2,"note":77,"inst":"celesta_v0_additive_3","vel":1.0,"bend":0.0,"ch":13,"track":14},{"t":2582.569,"dur":0.2,"note":82,"inst":"harpsichord_v0_additive_2","vel":1.0,"bend":0.0,"ch":2,"track":14},{"t":2582.769,"dur":0.399,"note":37,"inst":"harpsichord_v0_additive_2","vel":1.0,"bend":0.0,"ch":5,"track":14},{"t":2582.769,"dur":0.2,"note":80,"inst":"celesta_v0_additive_3","vel":1.0,"bend":0.0,"ch":0,"track":14},{"t":2582.969,"dur":0.2,"note":77,"inst":"celesta_v0_additive_3","vel":1.0,"bend":0.0,"ch":13,"track":14},{"t":2583.168,"dur":0.399,"note":41,"inst":"celesta_v0_additive_3","vel":1.0,"bend":0.0,"ch":9,"track":14},{"t":2583.168,"dur":0.1,"note":73,"inst":"harpsichord_v0_additive_2","vel":1.0,"bend":0.0,"ch":9,"track":14},{"t":2583.268,"dur":0.1,"note":72,"inst":"piano_v0_additive_0","vel":1.0,"bend":0.0,"ch":8,"track":14},{"t":2583.368,"dur":0.1,"note":73,"inst":"harpsichord_v0_additive_2","vel":1.0,"bend":0.0,"ch":9,"track":14},{"t":2583.468,"dur":0.1,"note":75,"inst":"piano_v0_additive_0","vel":1.0,"bend":0.0,"ch":11,"track":14},{"t":2583.568,"dur":0.399,"note":37,"inst":"harpsichord_v0_additive_2","vel":1.0,"bend":0.0,"ch":5,"track":14},{"t":2583.568,"dur":0.1,"note":77,"inst":"celesta_v0_additive_3","vel":1.0,"bend":0.0,"ch":13,"track":14},{"t":2583.668,"dur":0.1,"note":77,"inst":"celesta_v0_additive_3","vel":1.0,"bend":0.0,"ch":13,"track":14},{"t":2583.768,"dur":0.1,"note":80,"inst":"celesta_v0_additive_3","vel":1.0,"bend":0.0,"ch":0,"track":14},{"t":2583.867,"dur":0.1,"note":80,"inst":"celesta_v0_additive_3","vel":1.0,"bend":0.0,"ch":0,"track":14},{"t":2583.967,"dur":0.399,"note":41,"inst":"celesta_v0_additive_3","vel":1.0,"bend":0.0,"ch":9,"track":14},{"t":2583.967,"dur":0.399,"note":82,"inst":"harpsichord_v0_additive_2","vel":1.0,"bend":0.0,"ch":2,"track":14},{"t":2584.367,"dur":0.399,"note":37,"inst":"harpsichord_v0_additive_2","vel":1.0,"bend":0.0,"ch":5,"track":14},{"t":2584.766,"dur":0.399,"note":41,"inst":"celesta_v0_additive_3","vel":1.0,"bend":0.0,"ch":9,"track":14},{"t":2584.766,"dur":0.2,"note":82,"inst":"harpsichord_v0_additive_2","vel":1.0,"bend":0.0,"ch":2,"track":14},{"t":2584.966,"dur":0.2,"note":87,"inst":"piano_v0_additive_0","vel":1.0,"bend":0.0,"ch":7,"track":14},{"t":2585.166,"dur":0.399,"note":37,"inst":"harpsichord_v0_additive_2","vel":1.0,"bend":0.0,"ch":5,"track":14},{"t":2585.166,"dur":0.2,"note":85,"inst":"harpsichord_v0_additive_2","vel":1.0,"bend":0.0,"ch":5,"track":14},{"t":2585.365,"dur":0.067,"note":80,"inst":"celesta_v0_additive_3","vel":1.0,"bend":0.0,"ch":0,"track":14},{"t":2585.432,"dur":0.067,"note":82,"inst":"harpsichord_v0_additive_2","vel":1.0,"bend":0.0,"ch":2,"track":14},{"t":2585.499,"dur":0.067,"note":80,"inst":"celesta_v0_additive_3","vel":1.0,"bend":0.0,"ch":0,"track":14},{"t":2585.565,"dur":0.399,"note":41,"inst":"celesta_v0_additive_3","vel":1.0,"bend":0.0,"ch":9,"track":14},{"t":2585.565,"dur":0.2,"note":77,"inst":"celesta_v0_additive_3","vel":1.0,"bend":0.0,"ch":13,"track":14},{"t":2585.765,"dur":0.2,"note":82,"inst":"harpsichord_v0_additive_2","vel":1.0,"bend":0.0,"ch":2,"track":14},{"t":2585.965,"dur":0.399,"note":37,"inst":"harpsichord_v0_additive_2","vel":1.0,"bend":0.0,"ch":5,"track":14},{"t":2585.965,"dur":0.2,"note":82,"inst":"harpsichord_v0_additive_2","vel":1.0,"bend":0.0,"ch":2,"track":14},{"t":2586.164,"dur":0.2,"note":77,"inst":"celesta_v0_additive_3","vel":1.0,"bend":0.0,"ch":13,"track":14},{"t":2586.364,"dur":0.399,"note":41,"inst":"celesta_v0_additive_3","vel":1.0,"bend":0.0,"ch":9,"track":14},{"t":2586.364,"dur":0.1,"note":73,"inst":"harpsichord_v0_additive_2","vel":1.0,"bend":0.0,"ch":9,"track":14},{"t":2586.464,"dur":0.1,"note":75,"inst":"piano_v0_additive_0","vel":1.0,"bend":0.0,"ch":11,"track":14},{"t":2586.564,"dur":0.1,"note":77,"inst":"celesta_v0_additive_3","vel":1.0,"bend":0.0,"ch":13,"track":14},{"t":2586.664,"dur":0.1,"note":77,"inst":"celesta_v0_additive_3","vel":1.0,"bend":0.0,"ch":13,"track":14},{"t":2586.763,"dur":0.399,"note":37,"inst":"harpsichord_v0_additive_2","vel":1.0,"bend":0.0,"ch":5,"track":14},{"t":2586.763,"dur":0.1,"note":80,"inst":"celesta_v0_additive_3","vel":1.0,"bend":0.0,"ch":0,"track":14},{"t":2586.863,"dur":0.1,"note":82,"inst":"harpsichord_v0_additive_2","vel":1.0,"bend":0.0,"ch":2,"track":14},{"t":2586.963,"dur":0.1,"note":82,"inst":"harpsichord_v0_additive_2","vel":1.0,"bend":0.0,"ch":2,"track":14},{"t":2587.063,"dur":0.1,"note":85,"inst":"harpsichord_v0_additive_2","vel":1.0,"bend":0.0,"ch":5,"track":14},{"t":2587.163,"dur":0.399,"note":46,"inst":"harpsichord_v0_additive_2","vel":1.0,"bend":0.0,"ch":14,"track":14},{"t":2587.163,"dur":0.399,"note":87,"inst":"piano_v0_additive_0","vel":1.0,"bend":0.0,"ch":7,"track":14},{"t":2587.562,"dur":0.399,"note":46,"inst":"harpsichord_v0_additive_2","vel":1.0,"bend":0.0,"ch":14,"track":14},{"t":2587.962,"dur":0.399,"note":46,"inst":"harpsichord_v0_additive_2","vel":1.0,"bend":0.0,"ch":14,"track":14},{"t":2587.962,"dur":0.2,"note":75,"inst":"piano_v0_additive_0","vel":1.0,"bend":0.0,"ch":11,"track":14},{"t":2588.161,"dur":0.2,"note":82,"inst":"harpsichord_v0_additive_2","vel":1.0,"bend":0.0,"ch":2,"track":14},{"t":2588.361,"dur":0.399,"note":46,"inst":"harpsichord_v0_additive_2","vel":1.0,"bend":0.0,"ch":14,"track":14},{"t":2588.361,"dur":0.2,"note":80,"inst":"celesta_v0_additive_3","vel":1.0,"bend":0.0,"ch":0,"track":14},{"t":2588.561,"dur":0.2,"note":75,"inst":"piano_v0_additive_0","vel":1.0,"bend":0.0,"ch":11,"track":14},{"t":2588.761,"dur":0.399,"note":49,"inst":"harpsichord_v0_additive_2","vel":1.0,"bend":0.0,"ch":1,"track":14},{"t":2588.761,"dur":0.2,"note":73,"inst":"harpsichord_v0_additive_2","vel":1.0,"bend":0.0,"ch":9,"track":14},{"t":2588.96,"dur":0.2,"note":80,"inst":"celesta_v0_additive_3","vel":1.0,"bend":0.0,"ch":0,"track":14},{"t":2589.16,"dur":0.399,"note":49,"inst":"harpsichord_v0_additive_2","vel":1.0,"bend":0.0,"ch":1,"track":14},{"t":2589.16,"dur":0.2,"note":77,"inst":"celesta_v0_additive_3","vel":1.0,"bend":0.0,"ch":13,"track":14},{"t":2589.36,"dur":0.2,"note":65,"inst":"celesta_v0_additive_3","vel":1.0,"bend":0.0,"ch":1,"track":14},{"t":2589.56,"dur":0.399,"note":49,"inst":"harpsichord_v0_additive_2","vel":1.0,"bend":0.0,"ch":1,"track":14},{"t":2589.56,"dur":0.2,"note":65,"inst":"celesta_v0_additive_3","vel":1.0,"bend":0.0,"ch":1,"track":14},{"t":2589.759,"dur":0.2,"note":75,"inst":"piano_v0_additive_0","vel":1.0,"bend":0.0,"ch":11,"track":14},{"t":2617.611,"dur":0.181,"note":51,"inst":"piano_v0_additive_0","vel":0.654,"bend":0.0,"ch":3,"track":14},{"t":2617.792,"dur":0.181,"note":39,"inst":"piano_v0_additive_0","vel":0.512,"bend":0.0,"ch":7,"track":14},{"t":2617.973,"dur":0.181,"note":51,"inst":"piano_v0_additive_0","vel":0.646,"bend":0.0,"ch":3,"track":14},{"t":2618.154,"dur":0.181,"note":39,"inst":"piano_v0_additive_0","vel":0.535,"bend":0.0,"ch":7,"track":14},{"t":2618.335,"dur":0.181,"note":51,"inst":"piano_v0_additive_0","vel":0.646,"bend":0.0,"ch":3,"track":14},{"t":2618.516,"dur":0.181,"note":39,"inst":"piano_v0_additive_0","vel":0.535,"bend":0.0,"ch":7,"track":14},{"t":2618.697,"dur":0.181,"note":51,"inst":"piano_v0_additive_0","vel":0.622,"bend":0.0,"ch":3,"track":14},{"t":2618.878,"dur":0.181,"note":39,"inst":"piano_v0_additive_0","vel":0.52,"bend":0.0,"ch":7,"track":14},{"t":2618.878,"dur":2.895,"note":69,"inst":"piano_v0_additive_0","vel":0.677,"bend":0.0,"ch":5,"track":14},{"t":2619.059,"dur":0.181,"note":51,"inst":"piano_v0_additive_0","vel":0.693,"bend":0.0,"ch":3,"track":14},{"t":2619.24,"dur":0.181,"note":39,"inst":"piano_v0_additive_0","vel":0.512,"bend":0.0,"ch":7,"track":14},{"t":2619.421,"dur":0.181,"note":51,"inst":"piano_v0_additive_0","vel":0.693,"bend":0.0,"ch":3,"track":14},{"t":2619.602,"dur":0.181,"note":39,"inst":"piano_v0_additive_0","vel":0.496,"bend":0.0,"ch":7,"track":14},{"t":2619.783,"dur":0.181,"note":51,"inst":"piano_v0_additive_0","vel":0.654,"bend":0.0,"ch":3,"track":14},{"t":2619.964,"dur":0.181,"note":39,"inst":"piano_v0_additive_0","vel":0.528,"bend":0.0,"ch":7,"track":14},{"t":2620.145,"dur":0.181,"note":51,"inst":"piano_v0_additive_0","vel":0.646,"bend":0.0,"ch":3,"track":14},{"t":2620.326,"dur":0.181,"note":39,"inst":"piano_v0_additive_0","vel":0.496,"bend":0.0,"ch":7,"track":14},{"t":2620.506,"dur":0.181,"note":51,"inst":"piano_v0_additive_0","vel":0.63,"bend":0.0,"ch":3,"track":14},{"t":2620.687,"dur":0.181,"note":39,"inst":"piano_v0_additive_0","vel":0.528,"bend":0.0,"ch":7,"track":14},{"t":2620.868,"dur":0.181,"note":51,"inst":"piano_v0_additive_0","vel":0.677,"bend":0.0,"ch":3,"track":14},{"t":2621.049,"dur":0.181,"note":39,"inst":"piano_v0_additive_0","vel":0.488,"bend":0.0,"ch":7,"track":14},{"t":2621.23,"dur":0.181,"note":51,"inst":"piano_v0_additive_0","vel":0.685,"bend":0.0,"ch":3,"track":14},{"t":2621.411,"dur":0.181,"note":39,"inst":"piano_v0_additive_0","vel":0.52,"bend":0.0,"ch":7,"track":14},{"t":2621.592,"dur":0.181,"note":51,"inst":"piano_v0_additive_0","vel":0.654,"bend":0.0,"ch":3,"track":14},{"t":2621.773,"dur":0.181,"note":39,"inst":"piano_v0_additive_0","vel":0.52,"bend":0.0,"ch":7,"track":14},{"t":2621.773,"dur":2.171,"note":75,"inst":"piano_v0_additive_0","vel":0.669,"bend":0.0,"ch":11,"track":14},{"t":2621.954,"dur":0.181,"note":51,"inst":"piano_v0_additive_0","vel":0.669,"bend":0.0,"ch":3,"track":14},{"t":2622.135,"dur":0.181,"note":39,"inst":"piano_v0_additive_0","vel":0.48,"bend":0.0,"ch":7,"track":14},{"t":2622.316,"dur":0.181,"note":51,"inst":"piano_v0_additive_0","vel":0.669,"bend":0.0,"ch":3,"track":14},{"t":2622.497,"dur":0.181,"note":39,"inst":"piano_v0_additive_0","vel":0.496,"bend":0.0,"ch":7,"track":14},{"t":2622.678,"dur":0.181,"note":51,"inst":"piano_v0_additive_0","vel":0.669,"bend":0.0,"ch":3,"track":14},{"t":2622.859,"dur":0.181,"note":39,"inst":"piano_v0_additive_0","vel":0.52,"bend":0.0,"ch":7,"track":14},{"t":2623.04,"dur":0.181,"note":51,"inst":"piano_v0_additive_0","vel":0.677,"bend":0.0,"ch":3,"track":14},{"t":2623.221,"dur":0.181,"note":39,"inst":"piano_v0_additive_0","vel":0.543,"bend":0.0,"ch":7,"track":14},{"t":2623.402,"dur":0.181,"note":51,"inst":"piano_v0_additive_0","vel":0.646,"bend":0.0,"ch":3,"track":14},{"t":2623.583,"dur":0.181,"note":39,"inst":"piano_v0_additive_0","vel":0.496,"bend":0.0,"ch":7,"track":14},{"t":2623.764,"dur":0.181,"note":51,"inst":"piano_v0_additive_0","vel":0.709,"bend":0.0,"ch":3,"track":14},{"t":2623.945,"dur":0.181,"note":39,"inst":"piano_v0_additive_0","vel":0.512,"bend":0.0,"ch":7,"track":14},{"t":2624.126,"dur":0.181,"note":51,"inst":"piano_v0_additive_0","vel":0.685,"bend":0.0,"ch":3,"track":14},{"t":2624.307,"dur":0.181,"note":39,"inst":"piano_v0_additive_0","vel":0.52,"bend":0.0,"ch":7,"track":14},{"t":2624.307,"dur":0.362,"note":65,"inst":"celesta_v0_additive_3","vel":0.567,"bend":0.0,"ch":1,"track":14},{"t":2624.307,"dur":0.362,"note":69,"inst":"piano_v0_additive_0","vel":0.567,"bend":0.0,"ch":5,"track":14},{"t":2624.307,"dur":0.362,"note":75,"inst":"piano_v0_additive_0","vel":0.567,"bend":0.0,"ch":11,"track":14},{"t":2624.488,"dur":0.181,"note":51,"inst":"piano_v0_additive_0","vel":0.677,"bend":0.0,"ch":3,"track":14},{"t":2624.668,"dur":0.181,"note":39,"inst":"piano_v0_additive_0","vel":0.488,"bend":0.0,"ch":7,"track":14},{"t":2624.668,"dur":5.791,"note":67,"inst":"harpsichord_v0_additive_2","vel":0.614,"bend":0.0,"ch":3,"track":14},{"t":2624.668,"dur":5.791,"note":69,"inst":"piano_v0_additive_0","vel":0.614,"bend":0.0,"ch":5,"track":14},{"t":2624.668,"dur":5.791,"note":75,"inst":"piano_v0_additive_0","vel":0.614,"bend":0.0,"ch":11,"track":14},{"t":2624.849,"dur":0.181,"note":51,"inst":"piano_v0_additive_0","vel":0.669,"bend":0.0,"ch":3,"track":14},{"t":2625.03,"dur":0.181,"note":39,"inst":"piano_v0_additive_0","vel":0.551,"bend":0.0,"ch":7,"track":14},{"t":2625.211,"dur":0.181,"note":51,"inst":"piano_v0_additive_0","vel":0.685,"bend":0.0,"ch":3,"track":14},{"t":2625.392,"dur":0.181,"note":39,"inst":"piano_v0_additive_0","vel":0.551,"bend":0.0,"ch":7,"track":14},{"t":2625.573,"dur":0.181,"note":51,"inst":"piano_v0_additive_0","vel":0.701,"bend":0.0,"ch":3,"track":14},{"t":2625.754,"dur":0.181,"note":39,"inst":"piano_v0_additive_0","vel":0.504,"bend":0.0,"ch":7,"track":14},{"t":2625.935,"dur":0.181,"note":51,"inst":"piano_v0_additive_0","vel":0.693,"bend":0.0,"ch":3,"track":14},{"t":2626.116,"dur":0.181,"note":39,"inst":"piano_v0_additive_0","vel":0.535,"bend":0.0,"ch":7,"track":14},{"t":2626.297,"dur":0.181,"note":51,"inst":"piano_v0_additive_0","vel":0.654,"bend":0.0,"ch":3,"track":14},{"t":2626.478,"dur":0.181,"note":39,"inst":"piano_v0_additive_0","vel":0.535,"bend":0.0,"ch":7,"track":14},{"t":2626.659,"dur":0.181,"note":51,"inst":"piano_v0_additive_0","vel":0.654,"bend":0.0,"ch":3,"track":14},{"t":2626.84,"dur":0.181,"note":39,"inst":"piano_v0_additive_0","vel":0.496,"bend":0.0,"ch":7,"track":14},{"t":2627.021,"dur":0.181,"note":51,"inst":"piano_v0_additive_0","vel":0.685,"bend":0.0,"ch":3,"track":14},{"t":2627.202,"dur":0.181,"note":39,"inst":"piano_v0_additive_0","vel":0.535,"bend":0.0,"ch":7,"track":14},{"t":2627.383,"dur":0.181,"note":51,"inst":"piano_v0_additive_0","vel":0.638,"bend":0.0,"ch":3,"track":14},{"t":2627.564,"dur":0.362,"note":39,"inst":"piano_v0_additive_0","vel":0.583,"bend":0.0,"ch":7,"track":14},{"t":2627.564,"dur":0.362,"note":51,"inst":"piano_v0_additive_0","vel":0.583,"bend":0.0,"ch":3,"track":14},{"t":2627.926,"dur":0.362,"note":33,"inst":"piano_v0_additive_0","vel":0.575,"bend":0.0,"ch":1,"track":14},{"t":2627.926,"dur":0.362,"note":45,"inst":"piano_v0_additive_0","vel":0.575,"bend":0.0,"ch":13,"track":14},{"t":2628.288,"dur":0.362,"note":39,"inst":"piano_v0_additive_0","vel":0.669,"bend":0.0,"ch":7,"track":14},{"t":2628.288,"dur":0.362,"note":51,"inst":"piano_v0_additive_0","vel":0.669,"bend":0.0,"ch":3,"track":14},{"t":2628.65,"dur":0.362,"note":33,"inst":"piano_v0_additive_0","vel":0.567,"bend":0.0,"ch":1,"track":14},{"t":2628.65,"dur":0.362,"note":45,"inst":"piano_v0_additive_0","vel":0.567,"bend":0.0,"ch":13,"track":14},{"t":2629.011,"dur":0.362,"note":39,"inst":"piano_v0_additive_0","vel":0.661,"bend":0.0,"ch":7,"track":14},{"t":2629.011,"dur":0.362,"note":51,"inst":"piano_v0_additive_0","vel":0.661,"bend":0.0,"ch":3,"track":14},{"t":2629.373,"dur":0.362,"note":33,"inst":"piano_v0_additive_0","vel":0.528,"bend":0.0,"ch":1,"track":14},{"t":2629.373,"dur":0.362,"note":45,"inst":"piano_v0_additive_0","vel":0.528,"bend":0.0,"ch":13,"track":14},{"t":2629.735,"dur":0.362,"note":39,"inst":"piano_v0_additive_0","vel":0.638,"bend":0.0,"ch":7,"track":14},{"t":2629.735,"dur":0.362,"note":51,"inst":"piano_v0_additive_0","vel":0.638,"bend":0.0,"ch":3,"track":14},{"t":2630.097,"dur":0.362,"note":33,"inst":"piano_v0_additive_0","vel":0.583,"bend":0.0,"ch":1,"track":14},{"t":2630.097,"dur":0.362,"note":45,"inst":"piano_v0_additive_0","vel":0.583,"bend":0.0,"ch":13,"track":14},{"t":2630.459,"dur":0.181,"note":39,"inst":"piano_v0_additive_0","vel":0.496,"bend":0.0,"ch":7,"track":14},{"t":2630.459,"dur":2.895,"note":63,"inst":"piano_v0_additive_0","vel":0.409,"bend":0.0,"ch":15,"track":14},{"t":2630.64,"dur":0.181,"note":51,"inst":"piano_v0_additive_0","vel":0.677,"bend":0.0,"ch":3,"track":14},{"t":2630.821,"dur":0.181,"note":39,"inst":"piano_v0_additive_0","vel":0.528,"bend":0.0,"ch":7,"track":14},{"t":2631.002,"dur":0.181,"note":51,"inst":"piano_v0_additive_0","vel":0.661,"bend":0.0,"ch":3,"track":14},{"t":2631.183,"dur":0.181,"note":39,"inst":"piano_v0_additive_0","vel":0.551,"bend":0.0,"ch":7,"track":14},{"t":2631.364,"dur":0.181,"note":51,"inst":"piano_v0_additive_0","vel":0.646,"bend":0.0,"ch":3,"track":14},{"t":2631.545,"dur":0.181,"note":39,"inst":"piano_v0_additive_0","vel":0.528,"bend":0.0,"ch":7,"track":14},{"t":2631.726,"dur":0.181,"note":51,"inst":"piano_v0_additive_0","vel":0.677,"bend":0.0,"ch":3,"track":14},{"t":2631.907,"dur":0.181,"note":39,"inst":"piano_v0_additive_0","vel":0.504,"bend":0.0,"ch":7,"track":14},{"t":2632.088,"dur":0.181,"note":51,"inst":"piano_v0_additive_0","vel":0.661,"bend":0.0,"ch":3,"track":14},{"t":2632.269,"dur":0.181,"note":39,"inst":"piano_v0_additive_0","vel":0.52,"bend":0.0,"ch":7,"track":14},{"t":2632.45,"dur":0.181,"note":51,"inst":"piano_v0_additive_0","vel":0.717,"bend":0.0,"ch":3,"track":14},{"t":2632.631,"dur":0.181,"note":39,"inst":"piano_v0_additive_0","vel":0.52,"bend":0.0,"ch":7,"track":14},{"t":2632.812,"dur":0.181,"note":51,"inst":"piano_v0_additive_0","vel":0.677,"bend":0.0,"ch":3,"track":14},{"t":2632.993,"dur":0.181,"note":39,"inst":"piano_v0_additive_0","vel":0.512,"bend":0.0,"ch":7,"track":14},{"t":2633.173,"dur":0.181,"note":51,"inst":"piano_v0_additive_0","vel":0.685,"bend":0.0,"ch":3,"track":14},{"t":2633.354,"dur":0.181,"note":39,"inst":"piano_v0_additive_0","vel":0.535,"bend":0.0,"ch":7,"track":14},{"t":2633.354,"dur":2.895,"note":69,"inst":"piano_v0_additive_0","vel":0.661,"bend":0.0,"ch":5,"track":14},{"t":2633.535,"dur":0.181,"note":51,"inst":"piano_v0_additive_0","vel":0.654,"bend":0.0,"ch":3,"track":14},{"t":2633.716,"dur":0.181,"note":39,"inst":"piano_v0_additive_0","vel":0.528,"bend":0.0,"ch":7,"track":14},{"t":2633.897,"dur":0.181,"note":51,"inst":"piano_v0_additive_0","vel":0.685,"bend":0.0,"ch":3,"track":14},{"t":2634.078,"dur":0.181,"note":39,"inst":"piano_v0_additive_0","vel":0.496,"bend":0.0,"ch":7,"track":14},{"t":2634.259,"dur":0.181,"note":51,"inst":"piano_v0_additive_0","vel":0.661,"bend":0.0,"ch":3,"track":14},{"t":2634.44,"dur":0.181,"note":39,"inst":"piano_v0_additive_0","vel":0.543,"bend":0.0,"ch":7,"track":14},{"t":2634.621,"dur":0.181,"note":51,"inst":"piano_v0_additive_0","vel":0.654,"bend":0.0,"ch":3,"track":14},{"t":2634.802,"dur":0.181,"note":39,"inst":"piano_v0_additive_0","vel":0.583,"bend":0.0,"ch":7,"track":14},{"t":2634.983,"dur":0.181,"note":51,"inst":"piano_v0_additive_0","vel":0.646,"bend":0.0,"ch":3,"track":14},{"t":2635.164,"dur":0.181,"note":39,"inst":"piano_v0_additive_0","vel":0.528,"bend":0.0,"ch":7,"track":14},{"t":2635.345,"dur":0.181,"note":51,"inst":"piano_v0_additive_0","vel":0.677,"bend":0.0,"ch":3,"track":14},{"t":2635.526,"dur":0.181,"note":39,"inst":"piano_v0_additive_0","vel":0.583,"bend":0.0,"ch":7,"track":14},{"t":2635.707,"dur":0.181,"note":51,"inst":"piano_v0_additive_0","vel":0.646,"bend":0.0,"ch":3,"track":14},{"t":2635.888,"dur":0.181,"note":39,"inst":"piano_v0_additive_0","vel":0.496,"bend":0.0,"ch":7,"track":14},{"t":2636.069,"dur":0.181,"note":51,"inst":"piano_v0_additive_0","vel":0.677,"bend":0.0,"ch":3,"track":14},{"t":2636.25,"dur":0.181,"note":39,"inst":"piano_v0_additive_0","vel":0.504,"bend":0.0,"ch":7,"track":14},{"t":2636.25,"dur":2.171,"note":75,"inst":"piano_v0_additive_0","vel":0.701,"bend":0.0,"ch":11,"track":14},{"t":2636.431,"dur":0.181,"note":51,"inst":"piano_v0_additive_0","vel":0.685,"bend":0.0,"ch":3,"track":14},{"t":2636.612,"dur":0.181,"note":39,"inst":"piano_v0_additive_0","vel":0.52,"bend":0.0,"ch":7,"track":14},{"t":2636.793,"dur":0.181,"note":51,"inst":"piano_v0_additive_0","vel":0.709,"bend":0.0,"ch":3,"track":14},{"t":2636.974,"dur":0.181,"note":39,"inst":"piano_v0_additive_0","vel":0.535,"bend":0.0,"ch":7,"track":14},{"t":2637.155,"dur":0.181,"note":51,"inst":"piano_v0_additive_0","vel":0.693,"bend":0.0,"ch":3,"track":14},{"t":2637.335,"dur":0.181,"note":39,"inst":"piano_v0_additive_0","vel":0.535,"bend":0.0,"ch":7,"track":14},{"t":2637.516,"dur":0.181,"note":51,"inst":"piano_v0_additive_0","vel":0.661,"bend":0.0,"ch":3,"track":14},{"t":2637.697,"dur":0.181,"note":39,"inst":"piano_v0_additive_0","vel":0.496,"bend":0.0,"ch":7,"track":14},{"t":2637.878,"dur":0.181,"note":51,"inst":"piano_v0_additive_0","vel":0.669,"bend":0.0,"ch":3,"track":14},{"t":2638.059,"dur":0.181,"note":39,"inst":"piano_v0_additive_0","vel":0.504,"bend":0.0,"ch":7,"track":14},{"t":2638.24,"dur":0.181,"note":51,"inst":"piano_v0_additive_0","vel":0.693,"bend":0.0,"ch":3,"track":14},{"t":2638.421,"dur":0.181,"note":39,"inst":"piano_v0_additive_0","vel":0.535,"bend":0.0,"ch":7,"track":14},{"t":2638.602,"dur":0.181,"note":51,"inst":"piano_v0_additive_0","vel":0.654,"bend":0.0,"ch":3,"track":14},{"t":2638.783,"dur":0.181,"note":39,"inst":"piano_v0_additive_0","vel":0.512,"bend":0.0,"ch":7,"track":14},{"t":2638.783,"dur":0.362,"note":69,"inst":"piano_v0_additive_0","vel":0.661,"bend":0.0,"ch":5,"track":14},{"t":2638.783,"dur":0.362,"note":75,"inst":"piano_v0_additive_0","vel":0.661,"bend":0.0,"ch":11,"track":14},{"t":2638.783,"dur":0.362,"note":79,"inst":"harpsichord_v0_additive_2","vel":0.661,"bend":0.0,"ch":15,"track":14},{"t":2638.964,"dur":0.181,"note":51,"inst":"piano_v0_additive_0","vel":0.654,"bend":0.0,"ch":3,"track":14},{"t":2639.145,"dur":0.181,"note":43,"inst":"harpsichord_v0_additive_2","vel":0.52,"bend":0.0,"ch":11,"track":14},{"t":2639.145,"dur":2.171,"note":75,"inst":"piano_v0_additive_0","vel":0.701,"bend":0.0,"ch":11,"track":14},{"t":2639.145,"dur":2.171,"note":79,"inst":"harpsichord_v0_additive_2","vel":0.701,"bend":0.0,"ch":15,"track":14},{"t":2639.145,"dur":2.171,"note":73,"inst":"harpsichord_v0_additive_2","vel":0.701,"bend":0.0,"ch":9,"track":14},{"t":2785.637,"dur":0.119,"note":68,"inst":"celesta_v0_additive_3","vel":0.709,"bend":0.0,"ch":4,"track":14},{"t":2785.637,"dur":0.119,"note":68,"inst":"celesta_v0_additive_3","vel":0.709,"bend":0.0,"ch":4,"track":14},{"t":2785.757,"dur":0.119,"note":66,"inst":"piano_v0_additive_0","vel":0.709,"bend":0.0,"ch":2,"track":14},{"t":2785.757,"dur":0.119,"note":66,"inst":"piano_v0_additive_0","vel":0.709,"bend":0.0,"ch":2,"track":14},{"t":2785.876,"dur":0.239,"note":64,"inst":"harpsichord_v0_additive_2","vel":0.709,"bend":0.0,"ch":0,"track":14},{"t":2785.876,"dur":0.239,"note":64,"inst":"harpsichord_v0_additive_2","vel":0.709,"bend":0.0,"ch":0,"track":14},{"t":2785.876,"dur":0.239,"note":92,"inst":"celesta_v0_additive_3","vel":0.709,"bend":0.0,"ch":12,"track":14},{"t":2786.114,"dur":0.239,"note":66,"inst":"piano_v0_additive_0","vel":0.709,"bend":0.0,"ch":2,"track":14},{"t":2786.114,"dur":0.239,"note":66,"inst":"piano_v0_additive_0","vel":0.709,"bend":0.0,"ch":2,"track":14},{"t":2786.114,"dur":0.477,"note":85,"inst":"harpsichord_v0_additive_2","vel":0.709,"bend":0.0,"ch":5,"track":14},{"t":2786.353,"dur":0.239,"note":54,"inst":"piano_v0_additive_0","vel":0.709,"bend":0.0,"ch":6,"track":14},{"t":2786.353,"dur":0.239,"note":61,"inst":"harpsichord_v0_additive_2","vel":0.709,"bend":0.0,"ch":13,"track":14},{"t":2786.353,"dur":0.716,"note":81,"inst":"piano_v0_additive_0","vel":0.709,"bend":0.0,"ch":1,"track":14},{"t":2786.591,"dur":0.239,"note":66,"inst":"piano_v0_additive_0","vel":0.709,"bend":0.0,"ch":2,"track":14},{"t":2786.591,"dur":0.239,"note":66,"inst":"piano_v0_additive_0","vel":0.709,"bend":0.0,"ch":2,"track":14},{"t":2786.591,"dur":0.239,"note":81,"inst":"piano_v0_additive_0","vel":0.709,"bend":0.0,"ch":1,"track":14},{"t":2786.83,"dur":0.239,"note":59,"inst":"celesta_v0_additive_3","vel":0.709,"bend":0.0,"ch":11,"track":14},{"t":2786.83,"dur":0.239,"note":59,"inst":"celesta_v0_additive_3","vel":0.709,"bend":0.0,"ch":11,"track":14},{"t":2786.83,"dur":0.716,"note":86,"inst":"celesta_v0_additive_3","vel":0.709,"bend":0.0,"ch":6,"track":14},{"t":2787.069,"dur":0.239,"note":64,"inst":"harpsichord_v0_additive_2","vel":0.709,"bend":0.0,"ch":0,"track":14},{"t":2787.069,"dur":0.239,"note":64,"inst":"harpsichord_v0_additive_2","vel":0.709,"bend":0.0,"ch":0,"track":14},{"t":2787.069,"dur":0.716,"note":80,"inst":"celesta_v0_additive_3","vel":0.709,"bend":0.0,"ch":0,"track":14},{"t":2787.307,"dur":0.239,"note":52,"inst":"harpsichord_v0_additive_2","vel":0.709,"bend":0.0,"ch":4,"track":14},{"t":2787.307,"dur":0.239,"note":52,"inst":"harpsichord_v0_additive_2","vel":0.709,"bend":0.0,"ch":4,"track":14},{"t":2787.546,"dur":0.477,"note":57,"inst":"piano_v0_additive_0","vel":0.709,"bend":0.0,"ch":9,"track":14},{"t":2787.546,"dur":0.477,"note":57,"inst":"piano_v0_additive_0","vel":0.709,"bend":0.0,"ch":9,"track":14},{"t":2787.546,"dur":0.716,"note":85,"inst":"harpsichord_v0_additive_2","vel":0.709,"bend":0.0,"ch":5,"track":14},{"t":2787.784,"dur":0.239,"note":73,"inst":"harpsichord_v0_additive_2","vel":0.709,"bend":0.0,"ch":9,"track":14},{"t":2788.023,"dur":0.239,"note":62,"inst":"celesta_v0_additive_3","vel":0.709,"bend":0.0,"ch":14,"track":14},{"t":2788.023,"dur":0.239,"note":62,"inst":"celesta_v0_additive_3","vel":0.709,"bend":0.0,"ch":14,"track":14},{"t":2788.023,"dur":0.477,"note":78,"inst":"piano_v0_additive_0","vel":0.709,"bend":0.0,"ch":14,"track":14},{"t":2788.261,"dur":0.477,"note":56,"inst":"celesta_v0_additive_3","vel":0.709,"bend":0.0,"ch":8,"track":14},{"t":2788.261,"dur":0.477,"note":56,"inst":"celesta_v0_additive_3","vel":0.709,"bend":0.0,"ch":8,"track":14},{"t":2788.261,"dur":0.716,"note":83,"inst":"celesta_v0_additive_3","vel":0.709,"bend":0.0,"ch":3,"track":14},{"t":2788.5,"dur":0.239,"note":71,"inst":"celesta_v0_additive_3","vel":0.709,"bend":0.0,"ch":7,"track":14},{"t":2788.738,"dur":0.239,"note":61,"inst":"harpsichord_v0_additive_2","vel":0.709,"bend":0.0,"ch":13,"track":14},{"t":2788.738,"dur":0.239,"note":61,"inst":"harpsichord_v0_additive_2","vel":0.709,"bend":0.0,"ch":13,"track":14},{"t":2788.738,"dur":0.477,"note":76,"inst":"harpsichord_v0_additive_2","vel":0.709,"bend":0.0,"ch":12,"track":14},{"t":2788.977,"dur":0.477,"note":54,"inst":"piano_v0_additive_0","vel":0.709,"bend":0.0,"ch":6,"track":14},{"t":2788.977,"dur":0.477,"note":54,"inst":"piano_v0_additive_0","vel":0.709,"bend":0.0,"ch":6,"track":14},{"t":2788.977,"dur":0.716,"note":81,"inst":"piano_v0_additive_0","vel":0.709,"bend":0.0,"ch":1,"track":14},{"t":2789.215,"dur":0.239,"note":69,"inst":"piano_v0_additive_0","vel":0.709,"bend":0.0,"ch":5,"track":14},{"t":2789.454,"dur":0.239,"note":59,"inst":"celesta_v0_additive_3","vel":0.709,"bend":0.0,"ch":11,"track":14},{"t":2789.454,"dur":0.239,"note":59,"inst":"celesta_v0_additive_3","vel":0.709,"bend":0.0,"ch":11,"track":14},{"t":2789.454,"dur":0.716,"note":74,"inst":"celesta_v0_additive_3","vel":0.709,"bend":0.0,"ch":10,"track":14},{"t":2789.692,"dur":0.477,"note":52,"inst":"harpsichord_v0_additive_2","vel":0.709,"bend":0.0,"ch":4,"track":14},{"t":2789.692,"dur":0.477,"note":52,"inst":"harpsichord_v0_additive_2","vel":0.709,"bend":0.0,"ch":4,"track":14},{"t":2789.692,"dur":0.239,"note":80,"inst":"celesta_v0_additive_3","vel":0.709,"bend":0.0,"ch":0,"track":14},{"t":2789.931,"dur":0.239,"note":76,"inst":"harpsichord_v0_additive_2","vel":0.709,"bend":0.0,"ch":12,"track":14},{"t":2790.17,"dur":0.239,"note":54,"inst":"piano_v0_additive_0","vel":0.709,"bend":0.0,"ch":6,"track":14},{"t":2790.17,"dur":0.239,"note":54,"inst":"piano_v0_additive_0","vel":0.709,"bend":0.0,"ch":6,"track":14},{"t":2790.17,"dur":0.477,"note":73,"inst":"harpsichord_v0_additive_2","vel":0.709,"bend":0.0,"ch":9,"track":14},{"t":2790.17,"dur":0.239,"note":81,"inst":"piano_v0_additive_0","vel":0.709,"bend":0.0,"ch":1,"track":14},{"t":2790.408,"dur":0.239,"note":50,"inst":"celesta_v0_additive_3","vel":0.709,"bend":0.0,"ch":2,"track":14},{"t":2790.408,"dur":0.239,"note":50,"inst":"celesta_v0_additive_3","vel":0.709,"bend":0.0,"ch":2,"track":14},{"t":2790.408,"dur":0.239,"note":69,"inst":"piano_v0_additive_0","vel":0.709,"bend":0.0,"ch":5,"track":14},{"t":2790.647,"dur":0.477,"note":52,"inst":"harpsichord_v0_additive_2","vel":0.709,"bend":0.0,"ch":4,"track":14},{"t":2790.647,"dur":0.477,"note":52,"inst":"harpsichord_v0_additive_2","vel":0.709,"bend":0.0,"ch":4,"track":14},{"t":2790.647,"dur":0.358,"note":69,"inst":"piano_v0_additive_0","vel":0.709,"bend":0.0,"ch":5,"track":14},{"t":2790.647,"dur":0.477,"note":71,"inst":"celesta_v0_additive_3","vel":0.709,"bend":0.0,"ch":7,"track":14},{"t":2791.004,"dur":0.119,"note":68,"inst":"celesta_v0_additive_3","vel":0.709,"bend":0.0,"ch":4,"track":14},{"t":2791.124,"dur":0.239,"note":57,"inst":"piano_v0_additive_0","vel":0.709,"bend":0.0,"ch":9,"track":14},{"t":2791.124,"dur":0.239,"note":57,"inst":"piano_v0_additive_0","vel":0.709,"bend":0.0,"ch":9,"track":14},{"t":2791.124,"dur":0.239,"note":69,"inst":"piano_v0_additive_0","vel":0.709,"bend":0.0,"ch":5,"track":14},{"t":2791.124,"dur":0.477,"note":69,"inst":"piano_v0_additive_0","vel":0.709,"bend":0.0,"ch":5,"track":14},{"t":2791.362,"dur":0.477,"note":69,"inst":"piano_v0_additive_0","vel":0.709,"bend":0.0,"ch":5,"track":14},{"t":2791.362,"dur":0.477,"note":69,"inst":"piano_v0_additive_0","vel":0.709,"bend":0.0,"ch":5,"track":14},{"t":2791.362,"dur":0.358,"note":85,"inst":"harpsichord_v0_additive_2","vel":0.709,"bend":0.0,"ch":5,"track":14},{"t":2791.72,"dur":0.119,"note":86,"inst":"celesta_v0_additive_3","vel":0.709,"bend":0.0,"ch":6,"track":14},{"t":2791.839,"dur":0.239,"note":68,"inst":"celesta_v0_additive_3","vel":0.709,"bend":0.0,"ch":4,"track":14},{"t":2791.839,"dur":0.239,"note":68,"inst":"celesta_v0_additive_3","vel":0.709,"bend":0.0,"ch":4,"track":14},{"t":2791.839,"dur":0.239,"note":88,"inst":"harpsichord_v0_additive_2","vel":0.709,"bend":0.0,"ch":8,"track":14},{"t":2792.078,"dur":0.477,"note":59,"inst":"celesta_v0_additive_3","vel":0.709,"bend":0.0,"ch":11,"track":14},{"t":2792.078,"dur":0.477,"note":59,"inst":"celesta_v0_additive_3","vel":0.709,"bend":0.0,"ch":11,"track":14},{"t":2792.078,"dur":0.358,"note":85,"inst":"harpsichord_v0_additive_2","vel":0.709,"bend":0.0,"ch":5,"track":14},{"t":2792.078,"dur":0.119,"note":90,"inst":"piano_v0_additive_0","vel":0.709,"bend":0.0,"ch":10,"track":14},{"t":2792.197,"dur":0.119,"note":88,"inst":"harpsichord_v0_additive_2","vel":0.709,"bend":0.0,"ch":8,"track":14},{"t":2792.316,"dur":0.119,"note":86,"inst":"celesta_v0_additive_3","vel":0.709,"bend":0.0,"ch":6,"track":14},{"t":2792.436,"dur":0.119,"note":85,"inst":"harpsichord_v0_additive_2","vel":0.709,"bend":0.0,"ch":5,"track":14},{"t":2792.436,"dur":0.119,"note":85,"inst":"harpsichord_v0_additive_2","vel":0.709,"bend":0.0,"ch":5,"track":14},{"t":2792.555,"dur":0.358,"note":71,"inst":"celesta_v0_additive_3","vel":0.709,"bend":0.0,"ch":7,"track":14},{"t":2792.555,"dur":0.358,"note":71,"inst":"celesta_v0_additive_3","vel":0.709,"bend":0.0,"ch":7,"track":14},{"t":2792.555,"dur":0.358,"note":78,"inst":"piano_v0_additive_0","vel":0.709,"bend":0.0,"ch":14,"track":14},{"t":2792.555,"dur":0.358,"note":86,"inst":"celesta_v0_additive_3","vel":0.709,"bend":0.0,"ch":6,"track":14},{"t":2792.913,"dur":0.119,"note":62,"inst":"celesta_v0_additive_3","vel":0.709,"bend":0.0,"ch":14,"track":14},{"t":2792.913,"dur":0.119,"note":62,"inst":"celesta_v0_additive_3","vel":0.709,"bend":0.0,"ch":14,"track":14},{"t":2792.913,"dur":0.119,"note":83,"inst":"celesta_v0_additive_3","vel":0.709,"bend":0.0,"ch":3,"track":14},{"t":2792.913,"dur":0.119,"note":90,"inst":"piano_v0_additive_0","vel":0.709,"bend":0.0,"ch":10,"track":14},{"t":2793.032,"dur":0.477,"note":64,"inst":"harpsichord_v0_additive_2","vel":0.709,"bend":0.0,"ch":0,"track":14},{"t":2793.032,"dur":0.477,"note":64,"inst":"harpsichord_v0_additive_2","vel":0.709,"bend":0.0,"ch":0,"track":14},{"t":2793.032,"dur":0.239,"note":71,"inst":"celesta_v0_additive_3","vel":0.709,"bend":0.0,"ch":7,"track":14},{"t":2793.032,"dur":0.239,"note":85,"inst":"harpsichord_v0_additive_2","vel":0.709,"bend":0.0,"ch":5,"track":14},{"t":2793.271,"dur":0.239,"note":83,"inst":"celesta_v0_additive_3","vel":0.709,"bend":0.0,"ch":3,"track":14},{"t":2793.271,"dur":0.239,"note":86,"inst":"celesta_v0_additive_3","vel":0.709,"bend":0.0,"ch":6,"track":14},{"t":2793.509,"dur":0.477,"note":66,"inst":"piano_v0_additive_0","vel":0.709,"bend":0.0,"ch":2,"track":14},{"t":2793.509,"dur":0.477,"note":66,"inst":"piano_v0_additive_0","vel":0.709,"bend":0.0,"ch":2,"track":14},{"t":2793.509,"dur":0.358,"note":83,"inst":"celesta_v0_additive_3","vel":0.709,"bend":0.0,"ch":3,"track":14},{"t":2793.509,"dur":0.477,"note":85,"inst":"harpsichord_v0_additive_2","vel":0.709,"bend":0.0,"ch":5,"track":14},{"t":2793.867,"dur":0.119,"note":71,"inst":"celesta_v0_additive_3","vel":0.709,"bend":0.0,"ch":7,"track":14},{"t":2793.986,"dur":0.239,"note":59,"inst":"celesta_v0_additive_3","vel":0.709,"bend":0.0,"ch":11,"track":14},{"t":2793.986,"dur":0.239,"note":59,"inst":"celesta_v0_additive_3","vel":0.709,"bend":0.0,"ch":11,"track":14},{"t":2793.986,"dur":0.239,"note":83,"inst":"celesta_v0_additive_3","vel":0.709,"bend":0.0,"ch":3,"track":14},{"t":2793.986,"dur":0.477,"note":83,"inst":"celesta_v0_additive_3","vel":0.709,"bend":0.0,"ch":3,"track":14},{"t":2794.225,"dur":0.477,"note":47,"inst":"celesta_v0_additive_3","vel":0.709,"bend":0.0,"ch":15,"track":14},{"t":2794.225,"dur":0.477,"note":47,"inst":"celesta_v0_additive_3","vel":0.709,"bend":0.0,"ch":15,"track":14},{"t":2794.225,"dur":0.119,"note":90,"inst":"piano_v0_additive_0","vel":0.709,"bend":0.0,"ch":10,"track":14},{"t":2794.344,"dur":0.119,"note":88,"inst":"harpsichord_v0_additive_2","vel":0.709,"bend":0.0,"ch":8,"track":14},{"t":2794.463,"dur":0.119,"note":86,"inst":"celesta_v0_additive_3","vel":0.709,"bend":0.0,"ch":6,"track":14},{"t":2794.583,"dur":0.119,"note":85,"inst":"harpsichord_v0_additive_2","vel":0.709,"bend":0.0,"ch":5,"track":14},{"t":2794.702,"dur":0.239,"note":59,"inst":"celesta_v0_additive_3","vel":0.709,"bend":0.0,"ch":11,"track":14},{"t":2794.702,"dur":0.239,"note":59,"inst":"celesta_v0_additive_3","vel":0.709,"bend":0.0,"ch":11,"track":14},{"t":2794.702,"dur":0.239,"note":86,"inst":"celesta_v0_additive_3","vel":0.709,"bend":0.0,"ch":6,"track":14},{"t":2794.94,"dur":0.477,"note":54,"inst":"piano_v0_additive_0","vel":0.709,"bend":0.0,"ch":6,"track":14},{"t":2794.94,"dur":0.477,"note":54,"inst":"piano_v0_additive_0","vel":0.709,"bend":0.0,"ch":6,"track":14},{"t":2794.94,"dur":0.477,"note":85,"inst":"harpsichord_v0_additive_2","vel":0.709,"bend":0.0,"ch":5,"track":14},{"t":2794.94,"dur":0.119,"note":90,"inst":"piano_v0_additive_0","vel":0.709,"bend":0.0,"ch":10,"track":14},{"t":2795.06,"dur":0.119,"note":88,"inst":"harpsichord_v0_additive_2","vel":0.709,"bend":0.0,"ch":8,"track":14},{"t":2795.179,"dur":0.119,"note":86,"inst":"celesta_v0_additive_3","vel":0.709,"bend":0.0,"ch":6,"track":14},{"t":2795.298,"dur":0.119,"note":85,"inst":"harpsichord_v0_additive_2","vel":0.709,"bend":0.0,"ch":5,"track":14},{"t":2795.417,"dur":0.239,"note":59,"inst":"celesta_v0_additive_3","vel":0.709,"bend":0.0,"ch":11,"track":14},{"t":2795.417,"dur":0.239,"note":59,"inst":"celesta_v0_additive_3","vel":0.709,"bend":0.0,"ch":11,"track":14},{"t":2795.417,"dur":0.239,"note":86,"inst":"celesta_v0_additive_3","vel":0.709,"bend":0.0,"ch":6,"track":14},{"t":2795.656,"dur":0.477,"note":47,"inst":"celesta_v0_additive_3","vel":0.709,"bend":0.0,"ch":15,"track":14},{"t":2795.656,"dur":0.477,"note":47,"inst":"celesta_v0_additive_3","vel":0.709,"bend":0.0,"ch":15,"track":14},{"t":2795.656,"dur":0.716,"note":85,"inst":"harpsichord_v0_additive_2","vel":0.709,"bend":0.0,"ch":5,"track":14},{"t":2795.656,"dur":0.119,"note":90,"inst":"piano_v0_additive_0","vel":0.709,"bend":0.0,"ch":10,"track":14},{"t":2795.775,"dur":0.119,"note":88,"inst":"harpsichord_v0_additive_2","vel":0.709,"bend":0.0,"ch":8,"track":14},{"t":2795.895,"dur":0.119,"note":86,"inst":"celesta_v0_additive_3","vel":0.709,"bend":0.0,"ch":6,"track":14},{"t":2796.014,"dur":0.119,"note":85,"inst":"harpsichord_v0_additive_2","vel":0.709,"bend":0.0,"ch":5,"track":14},{"t":2796.133,"dur":0.477,"note":59,"inst":"celesta_v0_additive_3","vel":0.709,"bend":0.0,"ch":11,"track":14},{"t":2796.133,"dur":0.477,"note":59,"inst":"celesta_v0_additive_3","vel":0.709,"bend":0.0,"ch":11,"track":14},{"t":2796.133,"dur":0.954,"note":86,"inst":"celesta_v0_additive_3","vel":0.709,"bend":0.0,"ch":6,"track":14},{"t":2796.372,"dur":0.119,"note":83,"inst":"celesta_v0_additive_3","vel":0.709,"bend":0.0,"ch":3,"track":14},{"t":2796.491,"dur":0.119,"note":81,"inst":"piano_v0_additive_0","vel":0.709,"bend":0.0,"ch":1,"track":14},{"t":2796.61,"dur":0.239,"note":59,"inst":"celesta_v0_additive_3","vel":0.709,"bend":0.0,"ch":11,"track":14},{"t":2796.61,"dur":0.239,"note":59,"inst":"celesta_v0_additive_3","vel":0.709,"bend":0.0,"ch":11,"track":14},{"t":2796.61,"dur":0.119,"note":80,"inst":"celesta_v0_additive_3","vel":0.709,"bend":0.0,"ch":0,"track":14},{"t":2796.729,"dur":0.119,"note":78,"inst":"piano_v0_additive_0","vel":0.709,"bend":0.0,"ch":14,"track":14},{"t":2796.849,"dur":0.477,"note":61,"inst":"harpsichord_v0_additive_2","vel":0.709,"bend":0.0,"ch":13,"track":14},{"t":2796.849,"dur":0.477,"note":61,"inst":"harpsichord_v0_additive_2","vel":0.709,"bend":0.0,"ch":13,"track":14},{"t":2796.849,"dur":0.239,"note":76,"inst":"harpsichord_v0_additive_2","vel":0.709,"bend":0.0,"ch":12,"track":14},{"t":2797.087,"dur":0.716,"note":80,"inst":"celesta_v0_additive_3","vel":0.709,"bend":0.0,"ch":0,"track":14},{"t":2797.087,"dur":0.119,"note":85,"inst":"harpsichord_v0_additive_2","vel":0.709,"bend":0.0,"ch":5,"track":14},{"t":2797.206,"dur":0.119,"note":83,"inst":"celesta_v0_additive_3","vel":0.709,"bend":0.0,"ch":3,"track":14},{"t":2797.326,"dur":0.239,"note":49,"inst":"harpsichord_v0_additive_2","vel":0.709,"bend":0.0,"ch":1,"track":14},{"t":2797.326,"dur":0.239,"note":49,"inst":"harpsichord_v0_additive_2","vel":0.709,"bend":0.0,"ch":1,"track":14},{"t":2797.326,"dur":0.119,"note":81,"inst":"piano_v0_additive_0","vel":0.709,"bend":0.0,"ch":1,"track":14},{"t":2797.445,"dur":0.119,"note":80,"inst":"celesta_v0_additive_3","vel":0.709,"bend":0.0,"ch":0,"track":14},{"t":2797.564,"dur":0.477,"note":54,"inst":"piano_v0_additive_0","vel":0.709,"bend":0.0,"ch":6,"track":14},{"t":2797.564,"dur":0.477,"note":54,"inst":"piano_v0_additive_0","vel":0.709,"bend":0.0,"ch":6,"track":14},{"t":2797.564,"dur":0.477,"note":81,"inst":"piano_v0_additive_0","vel":0.709,"bend":0.0,"ch":1,"track":14},{"t":2797.803,"dur":0.239,"note":73,"inst":"harpsichord_v0_additive_2","vel":0.709,"bend":0.0,"ch":9,"track":14},{"t":2798.041,"dur":0.239,"note":54,"inst":"piano_v0_additive_0","vel":0.709,"bend":0.0,"ch":6,"track":14},{"t":2798.041,"dur":0.239,"note":54,"inst":"piano_v0_additive_0","vel":0.709,"bend":0.0,"ch":6,"track":14},{"t":2798.041,"dur":0.477,"note":78,"inst":"piano_v0_additive_0","vel":0.709,"bend":0.0,"ch":14,"track":14},{"t":2798.041,"dur":0.239,"note":81,"inst":"piano_v0_additive_0","vel":0.709,"bend":0.0,"ch":1,"track":14},{"t":2798.28,"dur":0.477,"note":56,"inst":"celesta_v0_additive_3","vel":0.709,"bend":0.0,"ch":8,"track":14},{"t":2798.28,"dur":0.477,"note":56,"inst":"celesta_v0_additive_3","vel":0.709,"bend":0.0,"ch":8,"track":14},{"t":2798.28,"dur":0.477,"note":71,"inst":"celesta_v0_additive_3","vel":0.709,"bend":0.0,"ch":7,"track":14},{"t":2798.518,"dur":0.477,"note":76,"inst":"harpsichord_v0_additive_2","vel":0.709,"bend":0.0,"ch":12,"track":14},{"t":2798.757,"dur":0.477,"note":54,"inst":"piano_v0_additive_0","vel":0.709,"bend":0.0,"ch":6,"track":14},{"t":2798.757,"dur":0.477,"note":54,"inst":"piano_v0_additive_0","vel":0.709,"bend":0.0,"ch":6,"track":14},{"t":2798.757,"dur":0.477,"note":73,"inst":"harpsichord_v0_additive_2","vel":0.709,"bend":0.0,"ch":9,"track":14},{"t":2799.345,"dur":0.2,"note":80,"inst":"piano_v0_additive_0","vel":1.0,"bend":0.0,"ch":0,"track":15},{"t":2799.545,"dur":0.399,"note":43,"inst":"celesta_v0_additive_3","vel":1.0,"bend":0.0,"ch":11,"track":15},{"t":2799.545,"dur":0.2,"note":79,"inst":"celesta_v0_additive_3","vel":1.0,"bend":0.0,"ch":15,"track":15},{"t":2799.745,"dur":0.067,"note":68,"inst":"piano_v0_additive_0","vel":1.0,"bend":0.0,"ch":4,"track":15},{"t":2799.811,"dur":0.067,"note":70,"inst":"harpsichord_v0_additive_2","vel":1.0,"bend":0.0,"ch":6,"track":15},{"t":2799.878,"dur":0.067,"note":68,"inst":"piano_v0_additive_0","vel":1.0,"bend":0.0,"ch":4,"track":15},{"t":2799.944,"dur":0.399,"note":49,"inst":"organ_v0_additive_1","vel":1.0,"bend":0.0,"ch":1,"track":15},{"t":2799.944,"dur":0.2,"note":67,"inst":"celesta_v0_additive_3","vel":1.0,"bend":0.0,"ch":3,"track":15},{"t":2800.144,"dur":0.2,"note":79,"inst":"celesta_v0_additive_3","vel":1.0,"bend":0.0,"ch":15,"track":15},{"t":2800.344,"dur":0.399,"note":43,"inst":"celesta_v0_additive_3","vel":1.0,"bend":0.0,"ch":11,"track":15},{"t":2800.344,"dur":0.2,"note":77,"inst":"organ_v0_additive_1","vel":1.0,"bend":0.0,"ch":13,"track":15},{"t":2800.544,"dur":0.067,"note":65,"inst":"organ_v0_additive_1","vel":1.0,"bend":0.0,"ch":1,"track":15},{"t":2800.61,"dur":0.067,"note":67,"inst":"celesta_v0_additive_3","vel":1.0,"bend":0.0,"ch":3,"track":15},{"t":2800.677,"dur":0.067,"note":65,"inst":"organ_v0_additive_1","vel":1.0,"bend":0.0,"ch":1,"track":15},{"t":2800.743,"dur":0.399,"note":48,"inst":"piano_v0_additive_0","vel":1.0,"bend":0.0,"ch":0,"track":15},{"t":2800.743,"dur":0.2,"note":63,"inst":"celesta_v0_additive_3","vel":1.0,"bend":0.0,"ch":15,"track":15},{"t":2800.943,"dur":0.2,"note":77,"inst":"organ_v0_additive_1","vel":1.0,"bend":0.0,"ch":13,"track":15},{"t":2801.143,"dur":0.399,"note":48,"inst":"piano_v0_additive_0","vel":1.0,"bend":0.0,"ch":0,"track":15},{"t":2801.143,"dur":0.2,"note":75,"inst":"celesta_v0_additive_3","vel":1.0,"bend":0.0,"ch":11,"track":15},{"t":2801.343,"dur":0.067,"note":75,"inst":"celesta_v0_additive_3","vel":1.0,"bend":0.0,"ch":11,"track":15},{"t":2801.409,"dur":0.067,"note":77,"inst":"organ_v0_additive_1","vel":1.0,"bend":0.0,"ch":13,"track":15},{"t":2801.476,"dur":0.067,"note":75,"inst":"celesta_v0_additive_3","vel":1.0,"bend":0.0,"ch":11,"track":15},{"t":2801.542,"dur":0.399,"note":48,"inst":"piano_v0_additive_0","vel":1.0,"bend":0.0,"ch":0,"track":15},{"t":2801.542,"dur":0.2,"note":75,"inst":"celesta_v0_additive_3","vel":1.0,"bend":0.0,"ch":11,"track":15},{"t":2801.742,"dur":0.2,"note":75,"inst":"celesta_v0_additive_3","vel":1.0,"bend":0.0,"ch":11,"track":15},{"t":2801.942,"dur":0.399,"note":43,"inst":"celesta_v0_additive_3","vel":1.0,"bend":0.0,"ch":11,"track":15},{"t":2801.942,"dur":0.2,"note":79,"inst":"celesta_v0_additive_3","vel":1.0,"bend":0.0,"ch":15,"track":15},{"t":2802.141,"dur":0.2,"note":77,"inst":"organ_v0_additive_1","vel":1.0,"bend":0.0,"ch":13,"track":15},{"t":2802.341,"dur":0.399,"note":49,"inst":"organ_v0_additive_1","vel":1.0,"bend":0.0,"ch":1,"track":15},{"t":2802.341,"dur":0.2,"note":75,"inst":"celesta_v0_additive_3","vel":1.0,"bend":0.0,"ch":11,"track":15},{"t":2802.541,"dur":0.2,"note":73,"inst":"organ_v0_additive_1","vel":1.0,"bend":0.0,"ch":9,"track":15},{"t":2802.741,"dur":0.399,"note":43,"inst":"celesta_v0_additive_3","vel":1.0,"bend":0.0,"ch":11,"track":15},{"t":2802.741,"dur":0.2,"note":73,"inst":"organ_v0_additive_1","vel":1.0,"bend":0.0,"ch":9,"track":15},{"t":2802.94,"dur":0.067,"note":73,"inst":"organ_v0_additive_1","vel":1.0,"bend":0.0,"ch":9,"track":15},{"t":2803.007,"dur":0.067,"note":75,"inst":"celesta_v0_additive_3","vel":1.0,"bend":0.0,"ch":11,"track":15},{"t":2803.073,"dur":0.067,"note":73,"inst":"organ_v0_additive_1","vel":1.0,"bend":0.0,"ch":9,"track":15},{"t":2803.14,"dur":0.399,"note":44,"inst":"piano_v0_additive_0","vel":1.0,"bend":0.0,"ch":12,"track":15},{"t":2803.14,"dur":0.2,"note":73,"inst":"organ_v0_additive_1","vel":1.0,"bend":0.0,"ch":9,"track":15},{"t":2803.34,"dur":0.2,"note":73,"inst":"organ_v0_additive_1","vel":1.0,"bend":0.0,"ch":9,"track":15},{"t":2803.539,"dur":0.399,"note":39,"inst":"celesta_v0_additive_3","vel":1.0,"bend":0.0,"ch":7,"track":15},{"t":2803.539,"dur":0.2,"note":77,"inst":"organ_v0_additive_1","vel":1.0,"bend":0.0,"ch":13,"track":15},{"t":2803.739,"dur":0.2,"note":75,"inst":"celesta_v0_additive_3","vel":1.0,"bend":0.0,"ch":11,"track":15},{"t":2803.939,"dur":0.399,"note":44,"inst":"piano_v0_additive_0","vel":1.0,"bend":0.0,"ch":12,"track":15},{"t":2803.939,"dur":0.2,"note":73,"inst":"organ_v0_additive_1","vel":1.0,"bend":0.0,"ch":9,"track":15},{"t":2804.139,"dur":0.2,"note":70,"inst":"harpsichord_v0_additive_2","vel":1.0,"bend":0.0,"ch":6,"track":15},{"t":2804.338,"dur":0.399,"note":43,"inst":"celesta_v0_additive_3","vel":1.0,"bend":0.0,"ch":11,"track":15},{"t":2804.338,"dur":0.2,"note":72,"inst":"piano_v0_additive_0","vel":1.0,"bend":0.0,"ch":8,"track":15},{"t":2804.538,"dur":0.067,"note":72,"inst":"piano_v0_additive_0","vel":1.0,"bend":0.0,"ch":8,"track":15},{"t":2804.605,"dur":0.067,"note":73,"inst":"organ_v0_additive_1","vel":1.0,"bend":0.0,"ch":9,"track":15},{"t":2804.671,"dur":0.067,"note":72,"inst":"piano_v0_additive_0","vel":1.0,"bend":0.0,"ch":8,"track":15},{"t":2804.738,"dur":0.399,"note":41,"inst":"organ_v0_additive_1","vel":1.0,"bend":0.0,"ch":9,"track":15},{"t":2804.738,"dur":0.2,"note":70,"inst":"harpsichord_v0_additive_2","vel":1.0,"bend":0.0,"ch":6,"track":15},{"t":2804.938,"dur":0.2,"note":73,"inst":"organ_v0_additive_1","vel":1.0,"bend":0.0,"ch":9,"track":15},{"t":2805.137,"dur":0.399,"note":41,"inst":"organ_v0_additive_1","vel":1.0,"bend":0.0,"ch":9,"track":15},{"t":2805.137,"dur":0.2,"note":72,"inst":"piano_v0_additive_0","vel":1.0,"bend":0.0,"ch":8,"track":15},{"t":2805.337,"dur":0.2,"note":68,"inst":"piano_v0_additive_0","vel":1.0,"bend":0.0,"ch":4,"track":15},{"t":2805.537,"dur":0.399,"note":43,"inst":"celesta_v0_additive_3","vel":1.0,"bend":0.0,"ch":11,"track":15},{"t":2805.537,"dur":0.2,"note":67,"inst":"celesta_v0_additive_3","vel":1.0,"bend":0.0,"ch":3,"track":15},{"t":2805.736,"dur":0.2,"note":80,"inst":"piano_v0_additive_0","vel":1.0,"bend":0.0,"ch":0,"track":15},{"t":2805.936,"dur":0.399,"note":43,"inst":"celesta_v0_additive_3","vel":1.0,"bend":0.0,"ch":11,"track":15},{"t":2805.936,"dur":0.2,"note":79,"inst":"celesta_v0_additive_3","vel":1.0,"bend":0.0,"ch":15,"track":15},{"t":2806.136,"dur":0.067,"note":68,"inst":"piano_v0_additive_0","vel":1.0,"bend":0.0,"ch":4,"track":15},{"t":2806.202,"dur":0.067,"note":70,"inst":"harpsichord_v0_additive_2","vel":1.0,"bend":0.0,"ch":6,"track":15},{"t":2806.269,"dur":0.067,"note":68,"inst":"piano_v0_additive_0","vel":1.0,"bend":0.0,"ch":4,"track":15},{"t":2806.336,"dur":0.399,"note":43,"inst":"celesta_v0_additive_3","vel":1.0,"bend":0.0,"ch":11,"track":15},{"t":2806.336,"dur":0.2,"note":67,"inst":"celesta_v0_additive_3","vel":1.0,"bend":0.0,"ch":3,"track":15},{"t":2806.535,"dur":0.2,"note":75,"inst":"celesta_v0_additive_3","vel":1.0,"bend":0.0,"ch":11,"track":15},{"t":2806.735,"dur":0.399,"note":43,"inst":"celesta_v0_additive_3","vel":1.0,"bend":0.0,"ch":11,"track":15},{"t":2806.735,"dur":0.2,"note":73,"inst":"organ_v0_additive_1","vel":1.0,"bend":0.0,"ch":9,"track":15},{"t":2806.935,"dur":0.2,"note":67,"inst":"celesta_v0_additive_3","vel":1.0,"bend":0.0,"ch":3,"track":15},{"t":2807.134,"dur":0.399,"note":48,"inst":"piano_v0_additive_0","vel":1.0,"bend":0.0,"ch":0,"track":15},{"t":2807.134,"dur":0.399,"note":72,"inst":"piano_v0_additive_0","vel":1.0,"bend":0.0,"ch":8,"track":15},{"t":2807.534,"dur":0.2,"note":84,"inst":"piano_v0_additive_0","vel":1.0,"bend":0.0,"ch":4,"track":15},{"t":2807.734,"dur":0.067,"note":84,"inst":"piano_v0_additive_0","vel":1.0,"bend":0.0,"ch":4,"track":15},{"t":2807.8,"dur":0.067,"note":85,"inst":"organ_v0_additive_1","vel":1.0,"bend":0.0,"ch":5,"track":15},{"t":2807.867,"dur":0.067,"note":84,"inst":"piano_v0_additive_0","vel":1.0,"bend":0.0,"ch":4,"track":15},{"t":2807.933,"dur":0.399,"note":43,"inst":"celesta_v0_additive_3","vel":1.0,"bend":0.0,"ch":11,"track":15},{"t":2807.933,"dur":0.2,"note":82,"inst":"harpsichord_v0_additive_2","vel":1.0,"bend":0.0,"ch":2,"track":15},{"t":2808.133,"dur":0.2,"note":87,"inst":"celesta_v0_additive_3","vel":1.0,"bend":0.0,"ch":7,"track":15},{"t":2808.333,"dur":0.399,"note":37,"inst":"organ_v0_additive_1","vel":1.0,"bend":0.0,"ch":5,"track":15},{"t":2808.333,"dur":0.2,"note":85,"inst":"organ_v0_additive_1","vel":1.0,"bend":0.0,"ch":5,"track":15},{"t":2808.533,"dur":0.067,"note":80,"inst":"piano_v0_additive_0","vel":1.0,"bend":0.0,"ch":0,"track":15},{"t":2808.599,"dur":0.067,"note":82,"inst":"harpsichord_v0_additive_2","vel":1.0,"bend":0.0,"ch":2,"track":15},{"t":2808.666,"dur":0.067,"note":80,"inst":"piano_v0_additive_0","vel":1.0,"bend":0.0,"ch":0,"track":15},{"t":2808.732,"dur":0.399,"note":43,"inst":"celesta_v0_additive_3","vel":1.0,"bend":0.0,"ch":11,"track":15},{"t":2808.732,"dur":0.2,"note":79,"inst":"celesta_v0_additive_3","vel":1.0,"bend":0.0,"ch":15,"track":15},{"t":2808.932,"dur":0.2,"note":84,"inst":"piano_v0_additive_0","vel":1.0,"bend":0.0,"ch":4,"track":15},{"t":2809.132,"dur":0.399,"note":37,"inst":"organ_v0_additive_1","vel":1.0,"bend":0.0,"ch":5,"track":15},{"t":2809.132,"dur":0.2,"note":82,"inst":"harpsichord_v0_additive_2","vel":1.0,"bend":0.0,"ch":2,"track":15},{"t":2809.331,"dur":0.2,"note":79,"inst":"celesta_v0_additive_3","vel":1.0,"bend":0.0,"ch":15,"track":15},{"t":2809.531,"dur":0.399,"note":43,"inst":"celesta_v0_additive_3","vel":1.0,"bend":0.0,"ch":11,"track":15},{"t":2809.531,"dur":0.1,"note":73,"inst":"organ_v0_additive_1","vel":1.0,"bend":0.0,"ch":9,"track":15},{"t":2809.631,"dur":0.1,"note":72,"inst":"piano_v0_additive_0","vel":1.0,"bend":0.0,"ch":8,"track":15},{"t":2809.731,"dur":0.1,"note":73,"inst":"organ_v0_additive_1","vel":1.0,"bend":0.0,"ch":9,"track":15},{"t":2809.831,"dur":0.1,"note":75,"inst":"celesta_v0_additive_3","vel":1.0,"bend":0.0,"ch":11,"track":15},{"t":2809.931,"dur":0.399,"note":37,"inst":"organ_v0_additive_1","vel":1.0,"bend":0.0,"ch":5,"track":15},{"t":2809.931,"dur":0.1,"note":77,"inst":"organ_v0_additive_1","vel":1.0,"bend":0.0,"ch":13,"track":15},{"t":2810.03,"dur":0.1,"note":79,"inst":"celesta_v0_additive_3","vel":1.0,"bend":0.0,"ch":15,"track":15},{"t":2810.13,"dur":0.1,"note":80,"inst":"piano_v0_additive_0","vel":1.0,"bend":0.0,"ch":0,"track":15},{"t":2810.23,"dur":0.1,"note":82,"inst":"harpsichord_v0_additive_2","vel":1.0,"bend":0.0,"ch":2,"track":15},{"t":2810.33,"dur":0.399,"note":44,"inst":"piano_v0_additive_0","vel":1.0,"bend":0.0,"ch":12,"track":15},{"t":2810.33,"dur":0.399,"note":84,"inst":"piano_v0_additive_0","vel":1.0,"bend":0.0,"ch":4,"track":15},{"t":2810.729,"dur":0.399,"note":37,"inst":"organ_v0_additive_1","vel":1.0,"bend":0.0,"ch":5,"track":15},{"t":2810.929,"dur":0.067,"note":84,"inst":"piano_v0_additive_0","vel":1.0,"bend":0.0,"ch":4,"track":15},{"t":2810.996,"dur":0.067,"note":85,"inst":"organ_v0_additive_1","vel":1.0,"bend":0.0,"ch":5,"track":15},{"t":2811.062,"dur":0.067,"note":84,"inst":"piano_v0_additive_0","vel":1.0,"bend":0.0,"ch":4,"track":15},{"t":2811.129,"dur":0.399,"note":44,"inst":"piano_v0_additive_0","vel":1.0,"bend":0.0,"ch":12,"track":15},{"t":2811.129,"dur":0.2,"note":80,"inst":"piano_v0_additive_0","vel":1.0,"bend":0.0,"ch":0,"track":15},{"t":2811.329,"dur":0.2,"note":87,"inst":"celesta_v0_additive_3","vel":1.0,"bend":0.0,"ch":7,"track":15},{"t":2811.528,"dur":0.399,"note":37,"inst":"organ_v0_additive_1","vel":1.0,"bend":0.0,"ch":5,"track":15},{"t":2811.528,"dur":0.2,"note":85,"inst":"organ_v0_additive_1","vel":1.0,"bend":0.0,"ch":5,"track":15},{"t":2811.728,"dur":0.067,"note":80,"inst":"piano_v0_additive_0","vel":1.0,"bend":0.0,"ch":0,"track":15},{"t":2811.795,"dur":0.067,"note":82,"inst":"harpsichord_v0_additive_2","vel":1.0,"bend":0.0,"ch":2,"track":15},{"t":2811.861,"dur":0.067,"note":80,"inst":"piano_v0_additive_0","vel":1.0,"bend":0.0,"ch":0,"track":15},{"t":2811.928,"dur":0.399,"note":44,"inst":"piano_v0_additive_0","vel":1.0,"bend":0.0,"ch":12,"track":15},{"t":2811.928,"dur":0.2,"note":77,"inst":"organ_v0_additive_1","vel":1.0,"bend":0.0,"ch":13,"track":15},{"t":2812.128,"dur":0.2,"note":82,"inst":"harpsichord_v0_additive_2","vel":1.0,"bend":0.0,"ch":2,"track":15},{"t":2812.327,"dur":0.399,"note":37,"inst":"organ_v0_additive_1","vel":1.0,"bend":0.0,"ch":5,"track":15},{"t":2812.327,"dur":0.2,"note":80,"inst":"piano_v0_additive_0","vel":1.0,"bend":0.0,"ch":0,"track":15},{"t":2812.527,"dur":0.2,"note":77,"inst":"organ_v0_additive_1","vel":1.0,"bend":0.0,"ch":13,"track":15},{"t":2812.727,"dur":0.399,"note":41,"inst":"organ_v0_additive_1","vel":1.0,"bend":0.0,"ch":9,"track":15},{"t":2812.727,"dur":0.1,"note":73,"inst":"organ_v0_additive_1","vel":1.0,"bend":0.0,"ch":9,"track":15},{"t":2812.827,"dur":0.1,"note":73,"inst":"organ_v0_additive_1","vel":1.0,"bend":0.0,"ch":9,"track":15},{"t":2812.926,"dur":0.1,"note":73,"inst":"organ_v0_additive_1","vel":1.0,"bend":0.0,"ch":9,"track":15},{"t":2813.026,"dur":0.1,"note":75,"inst":"celesta_v0_additive_3","vel":1.0,"bend":0.0,"ch":11,"track":15},{"t":2813.126,"dur":0.399,"note":37,"inst":"organ_v0_additive_1","vel":1.0,"bend":0.0,"ch":5,"track":15},{"t":2813.126,"dur":0.1,"note":77,"inst":"organ_v0_additive_1","vel":1.0,"bend":0.0,"ch":13,"track":15},{"t":2813.226,"dur":0.1,"note":79,"inst":"celesta_v0_additive_3","vel":1.0,"bend":0.0,"ch":15,"track":15},{"t":2813.326,"dur":0.1,"note":80,"inst":"piano_v0_additive_0","vel":1.0,"bend":0.0,"ch":0,"track":15},{"t":2813.426,"dur":0.1,"note":82,"inst":"harpsichord_v0_additive_2","vel":1.0,"bend":0.0,"ch":2,"track":15},{"t":2813.526,"dur":0.399,"note":43,"inst":"celesta_v0_additive_3","vel":1.0,"bend":0.0,"ch":11,"track":15},{"t":2813.526,"dur":0.399,"note":82,"inst":"harpsichord_v0_additive_2","vel":1.0,"bend":0.0,"ch":2,"track":15},{"t":2813.925,"dur":0.399,"note":37,"inst":"organ_v0_additive_1","vel":1.0,"bend":0.0,"ch":5,"track":15},{"t":2814.324,"dur":0.399,"note":43,"inst":"celesta_v0_additive_3","vel":1.0,"bend":0.0,"ch":11,"track":15},{"t":2814.324,"dur":0.2,"note":82,"inst":"harpsichord_v0_additive_2","vel":1.0,"bend":0.0,"ch":2,"track":15},{"t":2814.524,"dur":0.2,"note":87,"inst":"celesta_v0_additive_3","vel":1.0,"bend":0.0,"ch":7,"track":15},{"t":2814.724,"dur":0.399,"note":37,"inst":"organ_v0_additive_1","vel":1.0,"bend":0.0,"ch":5,"track":15},{"t":2814.724,"dur":0.2,"note":85,"inst":"organ_v0_additive_1","vel":1.0,"bend":0.0,"ch":5,"track":15},{"t":2814.924,"dur":0.067,"note":80,"inst":"piano_v0_additive_0","vel":1.0,"bend":0.0,"ch":0,"track":15},{"t":2814.99,"dur":0.067,"note":82,"inst":"harpsichord_v0_additive_2","vel":1.0,"bend":0.0,"ch":2,"track":15},{"t":2815.057,"dur":0.067,"note":80,"inst":"piano_v0_additive_0","vel":1.0,"bend":0.0,"ch":0,"track":15},{"t":2815.123,"dur":0.399,"note":43,"inst":"celesta_v0_additive_3","vel":1.0,"bend":0.0,"ch":11,"track":15},{"t":2815.123,"dur":0.2,"note":79,"inst":"celesta_v0_additive_3","vel":1.0,"bend":0.0,"ch":15,"track":15},{"t":2815.323,"dur":0.2,"note":84,"inst":"piano_v0_additive_0","vel":1.0,"bend":0.0,"ch":4,"track":15},{"t":2815.523,"dur":0.399,"note":37,"inst":"organ_v0_additive_1","vel":1.0,"bend":0.0,"ch":5,"track":15},{"t":2815.523,"dur":0.2,"note":82,"inst":"harpsichord_v0_additive_2","vel":1.0,"bend":0.0,"ch":2,"track":15},{"t":2815.723,"dur":0.2,"note":79,"inst":"celesta_v0_additive_3","vel":1.0,"bend":0.0,"ch":15,"track":15},{"t":2815.922,"dur":0.399,"note":43,"inst":"celesta_v0_additive_3","vel":1.0,"bend":0.0,"ch":11,"track":15},{"t":2815.922,"dur":0.1,"note":73,"inst":"organ_v0_additive_1","vel":1.0,"bend":0.0,"ch":9,"track":15},{"t":2816.022,"dur":0.1,"note":75,"inst":"celesta_v0_additive_3","vel":1.0,"bend":0.0,"ch":11,"track":15},{"t":2816.122,"dur":0.1,"note":77,"inst":"organ_v0_additive_1","vel":1.0,"bend":0.0,"ch":13,"track":15},{"t":2816.222,"dur":0.1,"note":79,"inst":"celesta_v0_additive_3","vel":1.0,"bend":0.0,"ch":15,"track":15},{"t":2816.322,"dur":0.399,"note":37,"inst":"organ_v0_additive_1","vel":1.0,"bend":0.0,"ch":5,"track":15},{"t":2816.322,"dur":0.1,"note":80,"inst":"piano_v0_additive_0","vel":1.0,"bend":0.0,"ch":0,"track":15},{"t":2816.422,"dur":0.1,"note":82,"inst":"harpsichord_v0_additive_2","vel":1.0,"bend":0.0,"ch":2,"track":15},{"t":2816.521,"dur":0.1,"note":84,"inst":"piano_v0_additive_0","vel":1.0,"bend":0.0,"ch":4,"track":15},{"t":2816.621,"dur":0.1,"note":85,"inst":"organ_v0_additive_1","vel":1.0,"bend":0.0,"ch":5,"track":15},{"t":2816.721,"dur":0.399,"note":48,"inst":"piano_v0_additive_0","vel":1.0,"bend":0.0,"ch":0,"track":15},{"t":2816.721,"dur":0.399,"note":87,"inst":"celesta_v0_additive_3","vel":1.0,"bend":0.0,"ch":7,"track":15},{"t":2817.121,"dur":0.399,"note":48,"inst":"piano_v0_additive_0","vel":1.0,"bend":0.0,"ch":0,"track":15},{"t":2817.52,"dur":0.399,"note":48,"inst":"piano_v0_additive_0","vel":1.0,"bend":0.0,"ch":0,"track":15},{"t":2817.52,"dur":0.2,"note":75,"inst":"celesta_v0_additive_3","vel":1.0,"bend":0.0,"ch":11,"track":15},{"t":2817.72,"dur":0.2,"note":82,"inst":"harpsichord_v0_additive_2","vel":1.0,"bend":0.0,"ch":2,"track":15},{"t":2817.919,"dur":0.399,"note":48,"inst":"piano_v0_additive_0","vel":1.0,"bend":0.0,"ch":0,"track":15},{"t":2817.919,"dur":0.2,"note":80,"inst":"piano_v0_additive_0","vel":1.0,"bend":0.0,"ch":0,"track":15},{"t":2818.119,"dur":0.2,"note":75,"inst":"celesta_v0_additive_3","vel":1.0,"bend":0.0,"ch":11,"track":15},{"t":2818.319,"dur":0.399,"note":49,"inst":"organ_v0_additive_1","vel":1.0,"bend":0.0,"ch":1,"track":15},{"t":2818.319,"dur":0.2,"note":73,"inst":"organ_v0_additive_1","vel":1.0,"bend":0.0,"ch":9,"track":15},{"t":2841.241,"dur":0.063,"note":78,"inst":"harpsichord_v0_additive_2","vel":0.575,"bend":0.0,"ch":14,"track":15},{"t":2841.302,"dur":0.091,"note":82,"inst":"harpsichord_v0_additive_2","vel":0.535,"bend":0.0,"ch":2,"track":15},{"t":2841.404,"dur":0.047,"note":83,"inst":"celesta_v0_additive_3","vel":0.465,"bend":0.0,"ch":3,"track":15},{"t":2841.405,"dur":0.201,"note":71,"inst":"celesta_v0_additive_3","vel":0.441,"bend":0.0,"ch":7,"track":15},{"t":2841.407,"dur":0.174,"note":61,"inst":"organ_v0_additive_1","vel":0.37,"bend":0.0,"ch":13,"track":15},{"t":2841.475,"dur":0.065,"note":78,"inst":"harpsichord_v0_additive_2","vel":0.528,"bend":0.0,"ch":14,"track":15},{"t":2841.53,"dur":0.065,"note":83,"inst":"celesta_v0_additive_3","vel":0.638,"bend":0.0,"ch":3,"track":15},{"t":2841.583,"dur":0.042,"note":83,"inst":"celesta_v0_additive_3","vel":0.701,"bend":0.0,"ch":3,"track":15},{"t":2841.636,"dur":0.07,"note":78,"inst":"harpsichord_v0_additive_2","vel":0.661,"bend":0.0,"ch":14,"track":15},{"t":2841.701,"dur":0.079,"note":88,"inst":"piano_v0_additive_0","vel":0.654,"bend":0.0,"ch":8,"track":15},{"t":2841.752,"dur":0.052,"note":90,"inst":"harpsichord_v0_additive_2","vel":0.638,"bend":0.0,"ch":10,"track":15},{"t":2841.756,"dur":0.225,"note":71,"inst":"celesta_v0_additive_3","vel":0.677,"bend":0.0,"ch":7,"track":15},{"t":2841.757,"dur":0.302,"note":64,"inst":"piano_v0_additive_0","vel":0.63,"bend":0.0,"ch":0,"track":15},{"t":2841.816,"dur":0.128,"note":78,"inst":"harpsichord_v0_additive_2","vel":0.654,"bend":0.0,"ch":14,"track":15},{"t":2841.879,"dur":0.102,"note":83,"inst":"celesta_v0_additive_3","vel":0.654,"bend":0.0,"ch":3,"track":15},{"t":2841.948,"dur":0.221,"note":71,"inst":"celesta_v0_additive_3","vel":0.732,"bend":0.0,"ch":7,"track":15},{"t":2841.961,"dur":0.143,"note":83,"inst":"celesta_v0_additive_3","vel":0.661,"bend":0.0,"ch":3,"track":15},{"t":2842.025,"dur":0.098,"note":78,"inst":"harpsichord_v0_additive_2","vel":0.661,"bend":0.0,"ch":14,"track":15},{"t":2842.077,"dur":0.093,"note":82,"inst":"harpsichord_v0_additive_2","vel":0.677,"bend":0.0,"ch":2,"track":15},{"t":2842.149,"dur":0.43,"note":71,"inst":"celesta_v0_additive_3","vel":0.551,"bend":0.0,"ch":7,"track":15},{"t":2842.149,"dur":0.072,"note":83,"inst":"celesta_v0_additive_3","vel":0.724,"bend":0.0,"ch":3,"track":15},{"t":2842.159,"dur":0.105,"note":61,"inst":"organ_v0_additive_1","vel":0.48,"bend":0.0,"ch":13,"track":15},{"t":2842.211,"dur":0.275,"note":78,"inst":"harpsichord_v0_additive_2","vel":0.677,"bend":0.0,"ch":14,"track":15},{"t":2842.282,"dur":0.328,"note":83,"inst":"celesta_v0_additive_3","vel":0.709,"bend":0.0,"ch":3,"track":15},{"t":2842.381,"dur":0.547,"note":59,"inst":"celesta_v0_additive_3","vel":0.504,"bend":0.0,"ch":11,"track":15},{"t":2842.452,"dur":0.267,"note":88,"inst":"piano_v0_additive_0","vel":0.669,"bend":0.0,"ch":8,"track":15},{"t":2842.606,"dur":0.094,"note":76,"inst":"piano_v0_additive_0","vel":0.622,"bend":0.0,"ch":12,"track":15},{"t":2842.683,"dur":0.153,"note":80,"inst":"piano_v0_additive_0","vel":0.654,"bend":0.0,"ch":0,"track":15},{"t":2842.765,"dur":0.316,"note":68,"inst":"piano_v0_additive_0","vel":0.693,"bend":0.0,"ch":4,"track":15},{"t":2842.837,"dur":0.068,"note":83,"inst":"celesta_v0_additive_3","vel":0.622,"bend":0.0,"ch":3,"track":15},{"t":2842.906,"dur":0.089,"note":76,"inst":"piano_v0_additive_0","vel":0.598,"bend":0.0,"ch":12,"track":15},{"t":2842.97,"dur":0.065,"note":80,"inst":"piano_v0_additive_0","vel":0.591,"bend":0.0,"ch":0,"track":15},{"t":2843.017,"dur":0.333,"note":59,"inst":"celesta_v0_additive_3","vel":0.512,"bend":0.0,"ch":11,"track":15},{"t":2843.021,"dur":0.158,"note":85,"inst":"organ_v0_additive_1","vel":0.646,"bend":0.0,"ch":5,"track":15},{"t":2843.084,"dur":0.068,"note":73,"inst":"organ_v0_additive_1","vel":0.63,"bend":0.0,"ch":9,"track":15},{"t":2843.139,"dur":0.077,"note":78,"inst":"harpsichord_v0_additive_2","vel":0.661,"bend":0.0,"ch":14,"track":15},{"t":2843.19,"dur":0.248,"note":66,"inst":"harpsichord_v0_additive_2","vel":0.661,"bend":0.0,"ch":2,"track":15},{"t":2843.2,"dur":0.054,"note":80,"inst":"piano_v0_additive_0","vel":0.622,"bend":0.0,"ch":0,"track":15},{"t":2843.253,"dur":0.067,"note":73,"inst":"organ_v0_additive_1","vel":0.543,"bend":0.0,"ch":9,"track":15},{"t":2843.316,"dur":0.075,"note":78,"inst":"harpsichord_v0_additive_2","vel":0.575,"bend":0.0,"ch":14,"track":15},{"t":2843.363,"dur":0.37,"note":56,"inst":"piano_v0_additive_0","vel":0.52,"bend":0.0,"ch":8,"track":15},{"t":2843.375,"dur":0.209,"note":83,"inst":"celesta_v0_additive_3","vel":0.575,"bend":0.0,"ch":3,"track":15},{"t":2843.429,"dur":0.086,"note":71,"inst":"celesta_v0_additive_3","vel":0.567,"bend":0.0,"ch":7,"track":15},{"t":2843.479,"dur":0.097,"note":78,"inst":"harpsichord_v0_additive_2","vel":0.567,"bend":0.0,"ch":14,"track":15},{"t":2843.55,"dur":0.224,"note":66,"inst":"harpsichord_v0_additive_2","vel":0.598,"bend":0.0,"ch":2,"track":15},{"t":2843.551,"dur":0.073,"note":78,"inst":"harpsichord_v0_additive_2","vel":0.598,"bend":0.0,"ch":14,"track":15},{"t":2843.612,"dur":0.05,"note":71,"inst":"celesta_v0_additive_3","vel":0.48,"bend":0.0,"ch":7,"track":15},{"t":2843.678,"dur":0.046,"note":78,"inst":"harpsichord_v0_additive_2","vel":0.496,"bend":0.0,"ch":14,"track":15},{"t":2843.729,"dur":0.148,"note":83,"inst":"celesta_v0_additive_3","vel":0.551,"bend":0.0,"ch":3,"track":15},{"t":2843.734,"dur":0.299,"note":54,"inst":"harpsichord_v0_additive_2","vel":0.441,"bend":0.0,"ch":6,"track":15},{"t":2843.794,"dur":0.065,"note":71,"inst":"celesta_v0_additive_3","vel":0.425,"bend":0.0,"ch":7,"track":15},{"t":2843.845,"dur":0.062,"note":76,"inst":"piano_v0_additive_0","vel":0.535,"bend":0.0,"ch":12,"track":15},{"t":2843.9,"dur":0.151,"note":64,"inst":"piano_v0_additive_0","vel":0.472,"bend":0.0,"ch":0,"track":15},{"t":2843.901,"dur":0.091,"note":78,"inst":"harpsichord_v0_additive_2","vel":0.528,"bend":0.0,"ch":14,"track":15},{"t":2843.958,"dur":0.067,"note":71,"inst":"celesta_v0_additive_3","vel":0.449,"bend":0.0,"ch":7,"track":15},{"t":2844.021,"dur":0.087,"note":76,"inst":"piano_v0_additive_0","vel":0.559,"bend":0.0,"ch":12,"track":15},{"t":2844.093,"dur":0.061,"note":76,"inst":"piano_v0_additive_0","vel":0.614,"bend":0.0,"ch":12,"track":15},{"t":2844.162,"dur":0.058,"note":71,"inst":"celesta_v0_additive_3","vel":0.48,"bend":0.0,"ch":7,"track":15},{"t":2844.214,"dur":0.078,"note":80,"inst":"piano_v0_additive_0","vel":0.504,"bend":0.0,"ch":0,"track":15},{"t":2844.243,"dur":0.043,"note":56,"inst":"piano_v0_additive_0","vel":0.472,"bend":0.0,"ch":8,"track":15},{"t":2844.249,"dur":0.07,"note":64,"inst":"piano_v0_additive_0","vel":0.52,"bend":0.0,"ch":0,"track":15},{"t":2844.251,"dur":0.102,"note":59,"inst":"celesta_v0_additive_3","vel":0.457,"bend":0.0,"ch":11,"track":15},{"t":2925.309,"dur":0.091,"note":68,"inst":"piano_v0_additive_0","vel":0.677,"bend":0.0,"ch":4,"track":15},{"t":2925.311,"dur":0.21,"note":80,"inst":"piano_v0_additive_0","vel":0.701,"bend":0.0,"ch":0,"track":15},{"t":2925.46,"dur":0.153,"note":66,"inst":"harpsichord_v0_additive_2","vel":0.528,"bend":0.0,"ch":2,"track":15},{"t":2925.461,"dur":0.287,"note":60,"inst":"piano_v0_additive_0","vel":0.441,"bend":0.0,"ch":12,"track":15},{"t":2925.462,"dur":0.164,"note":56,"inst":"piano_v0_additive_0","vel":0.457,"bend":0.0,"ch":8,"track":15},{"t":2925.472,"dur":0.21,"note":83,"inst":"celesta_v0_additive_3","vel":0.701,"bend":0.0,"ch":3,"track":15},{"t":2925.477,"dur":0.054,"note":71,"inst":"celesta_v0_additive_3","vel":0.669,"bend":0.0,"ch":7,"track":15},{"t":2925.479,"dur":0.078,"note":78,"inst":"harpsichord_v0_additive_2","vel":0.63,"bend":0.0,"ch":14,"track":15},{"t":2925.49,"dur":0.119,"note":62,"inst":"harpsichord_v0_additive_2","vel":0.417,"bend":0.0,"ch":14,"track":15},{"t":2925.629,"dur":0.078,"note":72,"inst":"piano_v0_additive_0","vel":0.74,"bend":0.0,"ch":8,"track":15},{"t":2925.629,"dur":0.109,"note":84,"inst":"piano_v0_additive_0","vel":0.732,"bend":0.0,"ch":4,"track":15},{"t":2925.673,"dur":0.022,"note":71,"inst":"celesta_v0_additive_3","vel":0.402,"bend":0.0,"ch":7,"track":15},{"t":2925.794,"dur":0.076,"note":67,"inst":"celesta_v0_additive_3","vel":0.748,"bend":0.0,"ch":3,"track":15},{"t":2925.795,"dur":0.105,"note":62,"inst":"harpsichord_v0_additive_2","vel":0.669,"bend":0.0,"ch":14,"track":15},{"t":2925.798,"dur":0.07,"note":55,"inst":"celesta_v0_additive_3","vel":0.622,"bend":0.0,"ch":7,"track":15},{"t":2925.8,"dur":0.069,"note":71,"inst":"celesta_v0_additive_3","vel":0.748,"bend":0.0,"ch":7,"track":15},{"t":2925.803,"dur":0.074,"note":83,"inst":"celesta_v0_additive_3","vel":0.803,"bend":0.0,"ch":3,"track":15},{"t":2925.81,"dur":0.11,"note":79,"inst":"celesta_v0_additive_3","vel":0.748,"bend":0.0,"ch":15,"track":15},{"t":2926.207,"dur":0.093,"note":79,"inst":"celesta_v0_additive_3","vel":0.732,"bend":0.0,"ch":15,"track":15},{"t":2926.21,"dur":0.076,"note":59,"inst":"celesta_v0_additive_3","vel":0.685,"bend":0.0,"ch":11,"track":15},{"t":2926.21,"dur":0.064,"note":87,"inst":"celesta_v0_additive_3","vel":0.843,"bend":0.0,"ch":7,"track":15},{"t":2926.211,"dur":0.063,"note":75,"inst":"celesta_v0_additive_3","vel":0.874,"bend":0.0,"ch":11,"track":15},{"t":2926.212,"dur":0.072,"note":71,"inst":"celesta_v0_additive_3","vel":0.756,"bend":0.0,"ch":7,"track":15},{"t":2926.213,"dur":0.101,"note":67,"inst":"celesta_v0_additive_3","vel":0.732,"bend":0.0,"ch":3,"track":15},{"t":2926.22,"dur":0.075,"note":60,"inst":"piano_v0_additive_0","vel":0.551,"bend":0.0,"ch":12,"track":15},{"t":2926.242,"dur":0.025,"note":84,"inst":"piano_v0_additive_0","vel":0.472,"bend":0.0,"ch":4,"track":15},{"t":2926.498,"dur":0.056,"note":67,"inst":"celesta_v0_additive_3","vel":0.685,"bend":0.0,"ch":3,"track":15},{"t":2926.508,"dur":0.02,"note":71,"inst":"celesta_v0_additive_3","vel":0.575,"bend":0.0,"ch":7,"track":15},{"t":2926.51,"dur":0.032,"note":62,"inst":"harpsichord_v0_additive_2","vel":0.512,"bend":0.0,"ch":14,"track":15},{"t":2926.517,"dur":0.021,"note":74,"inst":"harpsichord_v0_additive_2","vel":0.717,"bend":0.0,"ch":10,"track":15},{"t":2926.517,"dur":0.02,"note":79,"inst":"celesta_v0_additive_3","vel":0.717,"bend":0.0,"ch":15,"track":15},{"t":2926.521,"dur":0.021,"note":86,"inst":"harpsichord_v0_additive_2","vel":0.677,"bend":0.0,"ch":6,"track":15},{"t":2926.592,"dur":0.065,"note":86,"inst":"harpsichord_v0_additive_2","vel":0.756,"bend":0.0,"ch":6,"track":15},{"t":2926.595,"dur":0.055,"note":71,"inst":"celesta_v0_additive_3","vel":0.748,"bend":0.0,"ch":7,"track":15},{"t":2926.596,"dur":0.086,"note":59,"inst":"celesta_v0_additive_3","vel":0.425,"bend":0.0,"ch":11,"track":15},{"t":2926.596,"dur":0.076,"note":67,"inst":"celesta_v0_additive_3","vel":0.622,"bend":0.0,"ch":3,"track":15},{"t":2926.596,"dur":0.053,"note":74,"inst":"harpsichord_v0_additive_2","vel":0.827,"bend":0.0,"ch":10,"track":15},{"t":2926.597,"dur":0.056,"note":79,"inst":"celesta_v0_additive_3","vel":0.795,"bend":0.0,"ch":15,"track":15},{"t":2926.607,"dur":0.061,"note":62,"inst":"harpsichord_v0_additive_2","vel":0.677,"bend":0.0,"ch":14,"track":15},{"t":2926.82,"dur":0.06,"note":51,"inst":"celesta_v0_additive_3","vel":0.614,"bend":0.0,"ch":3,"track":15},{"t":2926.835,"dur":0.045,"note":86,"inst":"harpsichord_v0_additive_2","vel":0.535,"bend":0.0,"ch":6,"track":15},{"t":2926.895,"dur":0.107,"note":62,"inst":"harpsichord_v0_additive_2","vel":0.606,"bend":0.0,"ch":14,"track":15},{"t":2926.922,"dur":0.13,"note":72,"inst":"piano_v0_additive_0","vel":0.74,"bend":0.0,"ch":8,"track":15},{"t":2926.922,"dur":0.108,"note":80,"inst":"piano_v0_additive_0","vel":0.638,"bend":0.0,"ch":0,"track":15},{"t":2926.924,"dur":0.167,"note":84,"inst":"piano_v0_additive_0","vel":0.677,"bend":0.0,"ch":4,"track":15},{"t":2926.938,"dur":0.042,"note":68,"inst":"piano_v0_additive_0","vel":0.764,"bend":0.0,"ch":4,"track":15},{"t":2927.172,"dur":0.05,"note":83,"inst":"celesta_v0_additive_3","vel":0.63,"bend":0.0,"ch":3,"track":15},{"t":2927.173,"dur":0.091,"note":44,"inst":"piano_v0_additive_0","vel":0.441,"bend":0.0,"ch":12,"track":15},{"t":2927.176,"dur":0.036,"note":71,"inst":"celesta_v0_additive_3","vel":0.567,"bend":0.0,"ch":7,"track":15},{"t":2927.231,"dur":0.066,"note":51,"inst":"celesta_v0_additive_3","vel":0.622,"bend":0.0,"ch":3,"track":15},{"t":2927.281,"dur":0.058,"note":80,"inst":"piano_v0_additive_0","vel":0.717,"bend":0.0,"ch":0,"track":15},{"t":2927.286,"dur":0.053,"note":60,"inst":"piano_v0_additive_0","vel":0.701,"bend":0.0,"ch":12,"track":15},{"t":2927.287,"dur":0.037,"note":68,"inst":"piano_v0_additive_0","vel":0.669,"bend":0.0,"ch":4,"track":15},{"t":2927.512,"dur":0.063,"note":50,"inst":"harpsichord_v0_additive_2","vel":0.496,"bend":0.0,"ch":2,"track":15},{"t":2927.572,"dur":0.143,"note":56,"inst":"piano_v0_additive_0","vel":0.591,"bend":0.0,"ch":8,"track":15},{"t":2927.618,"dur":0.051,"note":66,"inst":"harpsichord_v0_additive_2","vel":0.677,"bend":0.0,"ch":2,"track":15},{"t":2927.626,"dur":0.094,"note":68,"inst":"piano_v0_additive_0","vel":0.756,"bend":0.0,"ch":4,"track":15},{"t":2927.626,"dur":0.173,"note":80,"inst":"piano_v0_additive_0","vel":0.772,"bend":0.0,"ch":0,"track":15},{"t":2927.634,"dur":0.121,"note":78,"inst":"harpsichord_v0_additive_2","vel":0.646,"bend":0.0,"ch":14,"track":15},{"t":2927.86,"dur":0.082,"note":44,"inst":"piano_v0_additive_0","vel":0.496,"bend":0.0,"ch":12,"track":15},{"t":2927.878,"dur":0.036,"note":83,"inst":"celesta_v0_additive_3","vel":0.677,"bend":0.0,"ch":3,"track":15},{"t":2927.882,"dur":0.027,"note":71,"inst":"celesta_v0_additive_3","vel":0.661,"bend":0.0,"ch":7,"track":15},{"t":2927.909,"dur":0.031,"note":75,"inst":"celesta_v0_additive_3","vel":0.598,"bend":0.0,"ch":11,"track":15},{"t":2927.914,"dur":0.105,"note":51,"inst":"celesta_v0_additive_3","vel":0.669,"bend":0.0,"ch":3,"track":15},{"t":2927.96,"dur":0.05,"note":60,"inst":"piano_v0_additive_0","vel":0.78,"bend":0.0,"ch":12,"track":15},{"t":2927.975,"dur":0.08,"note":84,"inst":"piano_v0_additive_0","vel":0.795,"bend":0.0,"ch":4,"track":15},{"t":2927.979,"dur":0.067,"note":72,"inst":"piano_v0_additive_0","vel":0.819,"bend":0.0,"ch":8,"track":15},{"t":2927.982,"dur":0.064,"note":75,"inst":"celesta_v0_additive_3","vel":0.772,"bend":0.0,"ch":11,"track":15},{"t":2928.192,"dur":0.077,"note":38,"inst":"harpsichord_v0_additive_2","vel":0.433,"bend":0.0,"ch":6,"track":15},{"t":2928.263,"dur":0.134,"note":44,"inst":"piano_v0_additive_0","vel":0.535,"bend":0.0,"ch":12,"track":15},{"t":2928.305,"dur":0.226,"note":78,"inst":"harpsichord_v0_additive_2","vel":0.669,"bend":0.0,"ch":14,"track":15},{"t":2928.306,"dur":0.05,"note":54,"inst":"harpsichord_v0_additive_2","vel":0.819,"bend":0.0,"ch":6,"track":15},{"t":2928.306,"dur":0.134,"note":72,"inst":"piano_v0_additive_0","vel":0.669,"bend":0.0,"ch":8,"track":15},{"t":2928.306,"dur":0.174,"note":74,"inst":"harpsichord_v0_additive_2","vel":0.764,"bend":0.0,"ch":10,"track":15},{"t":2928.307,"dur":0.126,"note":84,"inst":"piano_v0_additive_0","vel":0.74,"bend":0.0,"ch":4,"track":15},{"t":2928.338,"dur":0.053,"note":43,"inst":"celesta_v0_additive_3","vel":0.276,"bend":0.0,"ch":11,"track":15},{"t":2928.349,"dur":0.031,"note":80,"inst":"piano_v0_additive_0","vel":0.433,"bend":0.0,"ch":0,"track":15},{"t":2928.546,"dur":0.103,"note":32,"inst":"piano_v0_additive_0","vel":0.535,"bend":0.0,"ch":0,"track":15},{"t":2928.558,"dur":0.037,"note":71,"inst":"celesta_v0_additive_3","vel":0.543,"bend":0.0,"ch":7,"track":15},{"t":2928.56,"dur":0.123,"note":83,"inst":"celesta_v0_additive_3","vel":0.606,"bend":0.0,"ch":3,"track":15},{"t":2928.615,"dur":0.088,"note":39,"inst":"celesta_v0_additive_3","vel":0.598,"bend":0.0,"ch":7,"track":15},{"t":2928.654,"dur":0.085,"note":75,"inst":"celesta_v0_additive_3","vel":0.48,"bend":0.0,"ch":11,"track":15},{"t":2928.665,"dur":0.07,"note":68,"inst":"piano_v0_additive_0","vel":0.709,"bend":0.0,"ch":4,"track":15},{"t":2928.666,"dur":0.078,"note":80,"inst":"piano_v0_additive_0","vel":0.709,"bend":0.0,"ch":0,"track":15},{"t":2928.672,"dur":0.059,"note":48,"inst":"piano_v0_additive_0","vel":0.803,"bend":0.0,"ch":0,"track":15},{"t":2928.908,"dur":0.098,"note":38,"inst":"harpsichord_v0_additive_2","vel":0.472,"bend":0.0,"ch":6,"track":15},{"t":2928.99,"dur":0.115,"note":44,"inst":"piano_v0_additive_0","vel":0.614,"bend":0.0,"ch":12,"track":15},{"t":2929.044,"dur":0.099,"note":79,"inst":"celesta_v0_additive_3","vel":0.685,"bend":0.0,"ch":15,"track":15},{"t":2929.045,"dur":0.132,"note":67,"inst":"celesta_v0_additive_3","vel":0.748,"bend":0.0,"ch":3,"track":15},{"t":2929.045,"dur":0.332,"note":68,"inst":"piano_v0_additive_0","vel":0.709,"bend":0.0,"ch":4,"track":15},{"t":2929.045,"dur":0.282,"note":74,"inst":"harpsichord_v0_additive_2","vel":0.701,"bend":0.0,"ch":10,"track":15},{"t":2929.046,"dur":0.101,"note":54,"inst":"harpsichord_v0_additive_2","vel":0.819,"bend":0.0,"ch":6,"track":15},{"t":2929.366,"dur":0.123,"note":44,"inst":"piano_v0_additive_0","vel":0.591,"bend":0.0,"ch":12,"track":15},{"t":2929.374,"dur":0.153,"note":78,"inst":"harpsichord_v0_additive_2","vel":0.638,"bend":0.0,"ch":14,"track":15},{"t":2929.377,"dur":0.146,"note":66,"inst":"harpsichord_v0_additive_2","vel":0.551,"bend":0.0,"ch":2,"track":15},{"t":2929.445,"dur":0.246,"note":51,"inst":"celesta_v0_additive_3","vel":0.575,"bend":0.0,"ch":3,"track":15},{"t":2929.564,"dur":0.105,"note":60,"inst":"piano_v0_additive_0","vel":0.74,"bend":0.0,"ch":12,"track":15},{"t":2929.594,"dur":0.05,"note":75,"inst":"celesta_v0_additive_3","vel":0.795,"bend":0.0,"ch":11,"track":15},{"t":2929.596,"dur":0.055,"note":63,"inst":"celesta_v0_additive_3","vel":0.764,"bend":0.0,"ch":15,"track":15},{"t":2929.598,"dur":0.067,"note":72,"inst":"piano_v0_additive_0","vel":0.701,"bend":0.0,"ch":8,"track":15},{"t":2930.088,"dur":0.101,"note":32,"inst":"piano_v0_additive_0","vel":0.457,"bend":0.0,"ch":0,"track":15},{"t":2930.11,"dur":0.093,"note":44,"inst":"piano_v0_additive_0","vel":0.48,"bend":0.0,"ch":12,"track":15},{"t":2930.188,"dur":0.049,"note":32,"inst":"piano_v0_additive_0","vel":0.512,"bend":0.0,"ch":0,"track":15},{"t":2930.207,"dur":0.039,"note":44,"inst":"piano_v0_additive_0","vel":0.512,"bend":0.0,"ch":12,"track":15},{"t":2930.261,"dur":0.069,"note":35,"inst":"celesta_v0_additive_3","vel":0.465,"bend":0.0,"ch":3,"track":15},{"t":2930.282,"dur":0.045,"note":47,"inst":"celesta_v0_additive_3","vel":0.567,"bend":0.0,"ch":15,"track":15},{"t":2930.336,"dur":0.085,"note":36,"inst":"piano_v0_additive_0","vel":0.543,"bend":0.0,"ch":4,"track":15},{"t":2930.349,"dur":0.039,"note":48,"inst":"piano_v0_additive_0","vel":0.551,"bend":0.0,"ch":0,"track":15},{"t":2930.398,"dur":0.066,"note":38,"inst":"harpsichord_v0_additive_2","vel":0.465,"bend":0.0,"ch":6,"track":15},{"t":2930.412,"dur":0.039,"note":50,"inst":"harpsichord_v0_additive_2","vel":0.606,"bend":0.0,"ch":2,"track":15},{"t":2930.461,"dur":0.05,"note":39,"inst":"celesta_v0_additive_3","vel":0.559,"bend":0.0,"ch":7,"track":15},{"t":2930.495,"dur":0.047,"note":51,"inst":"celesta_v0_additive_3","vel":0.535,"bend":0.0,"ch":3,"track":15},{"t":2930.536,"dur":0.05,"note":42,"inst":"harpsichord_v0_additive_2","vel":0.543,"bend":0.0,"ch":10,"track":15},{"t":2930.564,"dur":0.066,"note":54,"inst":"harpsichord_v0_additive_2","vel":0.606,"bend":0.0,"ch":6,"track":15},{"t":2930.615,"dur":0.049,"note":44,"inst":"piano_v0_additive_0","vel":0.591,"bend":0.0,"ch":12,"track":15},{"t":2930.63,"dur":0.061,"note":56,"inst":"piano_v0_additive_0","vel":0.591,"bend":0.0,"ch":8,"track":15},{"t":2930.684,"dur":0.037,"note":56,"inst":"piano_v0_additive_0","vel":0.575,"bend":0.0,"ch":8,"track":15},{"t":2930.688,"dur":0.047,"note":44,"inst":"piano_v0_additive_0","vel":0.535,"bend":0.0,"ch":12,"track":15},{"t":2930.755,"dur":0.06,"note":47,"inst":"celesta_v0_additive_3","vel":0.535,"bend":0.0,"ch":15,"track":15},{"t":2930.763,"dur":0.04,"note":59,"inst":"celesta_v0_additive_3","vel":0.598,"bend":0.0,"ch":11,"track":15},{"t":2930.826,"dur":0.099,"note":48,"inst":"piano_v0_additive_0","vel":0.528,"bend":0.0,"ch":0,"track":15},{"t":2930.834,"dur":0.048,"note":60,"inst":"piano_v0_additive_0","vel":0.591,"bend":0.0,"ch":12,"track":15},{"t":2930.885,"dur":0.077,"note":50,"inst":"harpsichord_v0_additive_2","vel":0.575,"bend":0.0,"ch":2,"track":15},{"t":2930.901,"dur":0.032,"note":62,"inst":"harpsichord_v0_additive_2","vel":0.528,"bend":0.0,"ch":14,"track":15},{"t":2930.957,"dur":0.042,"note":51,"inst":"celesta_v0_additive_3","vel":0.528,"bend":0.0,"ch":3,"track":15},{"t":2930.976,"dur":0.036,"note":63,"inst":"celesta_v0_additive_3","vel":0.543,"bend":0.0,"ch":15,"track":15},{"t":2931.017,"dur":0.05,"note":54,"inst":"harpsichord_v0_additive_2","vel":0.559,"bend":0.0,"ch":6,"track":15},{"t":2931.036,"dur":0.06,"note":66,"inst":"harpsichord_v0_additive_2","vel":0.567,"bend":0.0,"ch":2,"track":15},{"t":2931.096,"dur":0.056,"note":56,"inst":"piano_v0_additive_0","vel":0.567,"bend":0.0,"ch":8,"track":15},{"t":2931.096,"dur":0.075,"note":68,"inst":"piano_v0_additive_0","vel":0.575,"bend":0.0,"ch":4,"track":15},{"t":2931.143,"dur":0.044,"note":68,"inst":"piano_v0_additive_0","vel":0.614,"bend":0.0,"ch":4,"track":15},{"t":2931.163,"dur":0.038,"note":56,"inst":"piano_v0_additive_0","vel":0.591,"bend":0.0,"ch":8,"track":15},{"t":2931.216,"dur":0.071,"note":59,"inst":"celesta_v0_additive_3","vel":0.614,"bend":0.0,"ch":11,"track":15},{"t":2931.227,"dur":0.059,"note":71,"inst":"celesta_v0_additive_3","vel":0.591,"bend":0.0,"ch":7,"track":15},{"t":2931.295,"dur":0.065,"note":72,"inst":"piano_v0_additive_0","vel":0.646,"bend":0.0,"ch":8,"track":15},{"t":2931.302,"dur":0.113,"note":60,"inst":"piano_v0_additive_0","vel":0.598,"bend":0.0,"ch":12,"track":15},{"t":2931.357,"dur":0.075,"note":62,"inst":"harpsichord_v0_additive_2","vel":0.543,"bend":0.0,"ch":14,"track":15},{"t":2931.358,"dur":0.051,"note":74,"inst":"harpsichord_v0_additive_2","vel":0.606,"bend":0.0,"ch":10,"track":15},{"t":2931.412,"dur":0.071,"note":63,"inst":"celesta_v0_additive_3","vel":0.63,"bend":0.0,"ch":15,"track":15},{"t":2931.428,"dur":0.072,"note":75,"inst":"celesta_v0_additive_3","vel":0.669,"bend":0.0,"ch":11,"track":15},{"t":2931.496,"dur":0.067,"note":66,"inst":"harpsichord_v0_additive_2","vel":0.559,"bend":0.0,"ch":2,"track":15},{"t":2931.509,"dur":0.078,"note":78,"inst":"harpsichord_v0_additive_2","vel":0.614,"bend":0.0,"ch":14,"track":15},{"t":2931.561,"dur":0.082,"note":80,"inst":"piano_v0_additive_0","vel":0.677,"bend":0.0,"ch":0,"track":15},{"t":2931.568,"dur":0.08,"note":68,"inst":"piano_v0_additive_0","vel":0.63,"bend":0.0,"ch":4,"track":15},{"t":2931.617,"dur":0.044,"note":80,"inst":"piano_v0_additive_0","vel":0.654,"bend":0.0,"ch":0,"track":15},{"t":2931.623,"dur":0.072,"note":68,"inst":"piano_v0_additive_0","vel":0.709,"bend":0.0,"ch":4,"track":15},{"t":2931.694,"dur":0.072,"note":83,"inst":"celesta_v0_additive_3","vel":0.677,"bend":0.0,"ch":3,"track":15},{"t":2931.713,"dur":0.097,"note":71,"inst":"celesta_v0_additive_3","vel":0.638,"bend":0.0,"ch":7,"track":15},{"t":2931.765,"dur":0.076,"note":84,"inst":"piano_v0_additive_0","vel":0.677,"bend":0.0,"ch":4,"track":15},{"t":2931.8,"dur":0.141,"note":72,"inst":"piano_v0_additive_0","vel":0.693,"bend":0.0,"ch":8,"track":15},{"t":2931.812,"dur":0.13,"note":74,"inst":"harpsichord_v0_additive_2","vel":0.575,"bend":0.0,"ch":10,"track":15},{"t":2931.824,"dur":0.043,"note":86,"inst":"harpsichord_v0_additive_2","vel":0.693,"bend":0.0,"ch":6,"track":15},{"t":2931.89,"dur":0.07,"note":87,"inst":"celesta_v0_additive_3","vel":0.701,"bend":0.0,"ch":7,"track":15},{"t":2931.893,"dur":0.075,"note":75,"inst":"celesta_v0_additive_3","vel":0.63,"bend":0.0,"ch":11,"track":15},{"t":2931.954,"dur":0.097,"note":90,"inst":"harpsichord_v0_additive_2","vel":0.693,"bend":0.0,"ch":10,"track":15},{"t":2931.964,"dur":0.059,"note":78,"inst":"harpsichord_v0_additive_2","vel":0.693,"bend":0.0,"ch":14,"track":15},{"t":2932.028,"dur":0.043,"note":92,"inst":"piano_v0_additive_0","vel":0.543,"bend":0.0,"ch":12,"track":15},{"t":2932.044,"dur":0.063,"note":92,"inst":"piano_v0_additive_0","vel":0.866,"bend":0.0,"ch":12,"track":15},{"t":2932.048,"dur":0.048,"note":80,"inst":"piano_v0_additive_0","vel":0.89,"bend":0.0,"ch":0,"track":15},{"t":2932.346,"dur":0.092,"note":95,"inst":"celesta_v0_additive_3","vel":0.433,"bend":0.0,"ch":15,"track":15},{"t":2932.378,"dur":0.08,"note":84,"inst":"piano_v0_additive_0","vel":0.795,"bend":0.0,"ch":4,"track":15},{"t":2932.379,"dur":0.109,"note":92,"inst":"piano_v0_additive_0","vel":0.819,"bend":0.0,"ch":12,"track":15},{"t":2932.382,"dur":0.067,"note":90,"inst":"harpsichord_v0_additive_2","vel":0.661,"bend":0.0,"ch":10,"track":15},{"t":2932.388,"dur":0.042,"note":38,"inst":"harpsichord_v0_additive_2","vel":0.795,"bend":0.0,"ch":6,"track":15},{"t":2932.392,"dur":0.039,"note":26,"inst":"harpsichord_v0_additive_2","vel":0.709,"bend":0.0,"ch":10,"track":15},{"t":2932.421,"dur":0.026,"note":95,"inst":"celesta_v0_additive_3","vel":0.551,"bend":0.0,"ch":15,"track":15},{"t":2932.53,"dur":0.107,"note":92,"inst":"piano_v0_additive_0","vel":0.693,"bend":0.0,"ch":12,"track":15},{"t":2932.531,"dur":0.179,"note":90,"inst":"harpsichord_v0_additive_2","vel":0.74,"bend":0.0,"ch":10,"track":15},{"t":2932.534,"dur":0.059,"note":83,"inst":"celesta_v0_additive_3","vel":0.717,"bend":0.0,"ch":3,"track":15},{"t":2932.699,"dur":0.02,"note":62,"inst":"harpsichord_v0_additive_2","vel":0.78,"bend":0.0,"ch":14,"track":15},{"t":2932.702,"dur":0.322,"note":92,"inst":"piano_v0_additive_0","vel":0.78,"bend":0.0,"ch":12,"track":15},{"t":2932.708,"dur":0.022,"note":50,"inst":"harpsichord_v0_additive_2","vel":0.638,"bend":0.0,"ch":2,"track":15},{"t":2932.708,"dur":0.268,"note":84,"inst":"piano_v0_additive_0","vel":0.811,"bend":0.0,"ch":4,"track":15},{"t":2932.719,"dur":0.183,"note":90,"inst":"harpsichord_v0_additive_2","vel":0.646,"bend":0.0,"ch":10,"track":15},{"t":3009.3,"dur":0.396,"note":32,"inst":"piano_v0_additive_0","vel":1.0,"bend":0.0,"ch":0,"track":15},{"t":3009.695,"dur":0.396,"note":44,"inst":"piano_v0_additive_0","vel":1.0,"bend":0.0,"ch":12,"track":15},{"t":3009.695,"dur":0.396,"note":44,"inst":"piano_v0_additive_0","vel":1.0,"bend":0.0,"ch":12,"track":15},{"t":3009.695,"dur":0.396,"note":49,"inst":"organ_v0_additive_1","vel":1.0,"bend":0.0,"ch":1,"track":15},{"t":3010.091,"dur":0.396,"note":37,"inst":"organ_v0_additive_1","vel":1.0,"bend":0.0,"ch":5,"track":15},{"t":3010.091,"dur":0.396,"note":44,"inst":"piano_v0_additive_0","vel":1.0,"bend":0.0,"ch":12,"track":15},{"t":3010.486,"dur":0.396,"note":44,"inst":"piano_v0_additive_0","vel":1.0,"bend":0.0,"ch":12,"track":15},{"t":3010.486,"dur":0.791,"note":44,"inst":"piano_v0_additive_0","vel":1.0,"bend":0.0,"ch":12,"track":15},{"t":3010.486,"dur":0.791,"note":49,"inst":"organ_v0_additive_1","vel":1.0,"bend":0.0,"ch":1,"track":15},{"t":3010.882,"dur":0.396,"note":32,"inst":"piano_v0_additive_0","vel":1.0,"bend":0.0,"ch":0,"track":15},{"t":3011.278,"dur":0.396,"note":37,"inst":"organ_v0_additive_1","vel":1.0,"bend":0.0,"ch":5,"track":15},{"t":3011.278,"dur":0.396,"note":44,"inst":"piano_v0_additive_0","vel":1.0,"bend":0.0,"ch":12,"track":15},{"t":3011.278,"dur":0.396,"note":37,"inst":"organ_v0_additive_1","vel":1.0,"bend":0.0,"ch":5,"track":15},{"t":3011.673,"dur":0.396,"note":32,"inst":"piano_v0_additive_0","vel":1.0,"bend":0.0,"ch":0,"track":15},{"t":3012.069,"dur":0.396,"note":37,"inst":"organ_v0_additive_1","vel":1.0,"bend":0.0,"ch":5,"track":15},{"t":3012.069,"dur":0.396,"note":44,"inst":"piano_v0_additive_0","vel":1.0,"bend":0.0,"ch":12,"track":15},{"t":3012.069,"dur":0.396,"note":37,"inst":"organ_v0_additive_1","vel":1.0,"bend":0.0,"ch":5,"track":15},{"t":3012.464,"dur":0.396,"note":37,"inst":"organ_v0_additive_1","vel":1.0,"bend":0.0,"ch":5,"track":15},{"t":3012.464,"dur":0.396,"note":44,"inst":"piano_v0_additive_0","vel":1.0,"bend":0.0,"ch":12,"track":15},{"t":3012.86,"dur":0.396,"note":37,"inst":"organ_v0_additive_1","vel":1.0,"bend":0.0,"ch":5,"track":15},{"t":3012.86,"dur":0.791,"note":44,"inst":"piano_v0_additive_0","vel":1.0,"bend":0.0,"ch":12,"track":15},{"t":3012.86,"dur":0.791,"note":37,"inst":"organ_v0_additive_1","vel":1.0,"bend":0.0,"ch":5,"track":15},{"t":3013.255,"dur":0.396,"note":32,"inst":"piano_v0_additive_0","vel":1.0,"bend":0.0,"ch":0,"track":15},{"t":3013.651,"dur":0.396,"note":37,"inst":"organ_v0_additive_1","vel":1.0,"bend":0.0,"ch":5,"track":15},{"t":3013.651,"dur":0.396,"note":44,"inst":"piano_v0_additive_0","vel":1.0,"bend":0.0,"ch":12,"track":15},{"t":3013.651,"dur":0.396,"note":44,"inst":"piano_v0_additive_0","vel":1.0,"bend":0.0,"ch":12,"track":15},{"t":3014.046,"dur":0.396,"note":32,"inst":"piano_v0_additive_0","vel":1.0,"bend":0.0,"ch":0,"track":15},{"t":3014.442,"dur":0.396,"note":37,"inst":"organ_v0_additive_1","vel":1.0,"bend":0.0,"ch":5,"track":15},{"t":3014.442,"dur":0.396,"note":37,"inst":"organ_v0_additive_1","vel":1.0,"bend":0.0,"ch":5,"track":15},{"t":3014.442,"dur":0.396,"note":44,"inst":"piano_v0_additive_0","vel":1.0,"bend":0.0,"ch":12,"track":15},{"t":3014.837,"dur":0.396,"note":32,"inst":"piano_v0_additive_0","vel":1.0,"bend":0.0,"ch":0,"track":15},{"t":3015.233,"dur":0.396,"note":25,"inst":"organ_v0_additive_1","vel":1.0,"bend":0.0,"ch":9,"track":15},{"t":3015.233,"dur":0.791,"note":37,"inst":"organ_v0_additive_1","vel":1.0,"bend":0.0,"ch":5,"track":15},{"t":3015.233,"dur":0.791,"note":44,"inst":"piano_v0_additive_0","vel":1.0,"bend":0.0,"ch":12,"track":15},{"t":3015.628,"dur":0.396,"note":32,"inst":"piano_v0_additive_0","vel":1.0,"bend":0.0,"ch":0,"track":15},{"t":3016.024,"dur":0.396,"note":32,"inst":"piano_v0_additive_0","vel":1.0,"bend":0.0,"ch":0,"track":15},{"t":3016.024,"dur":0.396,"note":37,"inst":"organ_v0_additive_1","vel":1.0,"bend":0.0,"ch":5,"track":15},{"t":3016.024,"dur":0.396,"note":44,"inst":"piano_v0_additive_0","vel":1.0,"bend":0.0,"ch":12,"track":15},{"t":3016.419,"dur":0.396,"note":32,"inst":"piano_v0_additive_0","vel":1.0,"bend":0.0,"ch":0,"track":15},{"t":3016.419,"dur":0.396,"note":32,"inst":"piano_v0_additive_0","vel":1.0,"bend":0.0,"ch":0,"track":15},{"t":3016.419,"dur":1.187,"note":44,"inst":"piano_v0_additive_0","vel":1.0,"bend":0.0,"ch":12,"track":15},{"t":3016.815,"dur":0.396,"note":25,"inst":"organ_v0_additive_1","vel":1.0,"bend":0.0,"ch":9,"track":15},{"t":3017.21,"dur":0.396,"note":25,"inst":"organ_v0_additive_1","vel":1.0,"bend":0.0,"ch":9,"track":15},{"t":3017.606,"dur":1.187,"note":37,"inst":"organ_v0_additive_1","vel":1.0,"bend":0.0,"ch":5,"track":15},{"t":3018.001,"dur":0.396,"note":44,"inst":"piano_v0_additive_0","vel":1.0,"bend":0.0,"ch":12,"track":15},{"t":3018.001,"dur":0.396,"note":56,"inst":"piano_v0_additive_0","vel":1.0,"bend":0.0,"ch":8,"track":15},{"t":3018.001,"dur":0.396,"note":56,"inst":"piano_v0_additive_0","vel":1.0,"bend":0.0,"ch":8,"track":15},{"t":3018.397,"dur":0.396,"note":44,"inst":"piano_v0_additive_0","vel":1.0,"bend":0.0,"ch":12,"track":15},{"t":3018.397,"dur":0.396,"note":56,"inst":"piano_v0_additive_0","vel":1.0,"bend":0.0,"ch":8,"track":15},{"t":3018.397,"dur":0.396,"note":56,"inst":"piano_v0_additive_0","vel":1.0,"bend":0.0,"ch":8,"track":15},{"t":3018.792,"dur":0.396,"note":25,"inst":"organ_v0_additive_1","vel":1.0,"bend":0.0,"ch":9,"track":15},{"t":3018.792,"dur":1.187,"note":37,"inst":"organ_v0_additive_1","vel":1.0,"bend":0.0,"ch":5,"track":15},{"t":3018.792,"dur":1.187,"note":56,"inst":"piano_v0_additive_0","vel":1.0,"bend":0.0,"ch":8,"track":15},{"t":3018.792,"dur":1.187,"note":56,"inst":"piano_v0_additive_0","vel":1.0,"bend":0.0,"ch":8,"track":15},{"t":3019.188,"dur":0.396,"note":25,"inst":"organ_v0_additive_1","vel":1.0,"bend":0.0,"ch":9,"track":15},{"t":3019.584,"dur":0.396,"note":25,"inst":"organ_v0_additive_1","vel":1.0,"bend":0.0,"ch":9,"track":15},{"t":3019.979,"dur":1.187,"note":24,"inst":"piano_v0_additive_0","vel":1.0,"bend":0.0,"ch":8,"track":15},{"t":3020.375,"dur":0.396,"note":37,"inst":"organ_v0_additive_1","vel":1.0,"bend":0.0,"ch":5,"track":15},{"t":3020.375,"dur":0.396,"note":44,"inst":"piano_v0_additive_0","vel":1.0,"bend":0.0,"ch":12,"track":15},{"t":3020.375,"dur":0.396,"note":37,"inst":"organ_v0_additive_1","vel":1.0,"bend":0.0,"ch":5,"track":15},{"t":3020.77,"dur":0.396,"note":37,"inst":"organ_v0_additive_1","vel":1.0,"bend":0.0,"ch":5,"track":15},{"t":3020.77,"dur":0.396,"note":44,"inst":"piano_v0_additive_0","vel":1.0,"bend":0.0,"ch":12,"track":15},{"t":3020.77,"dur":0.396,"note":44,"inst":"piano_v0_additive_0","vel":1.0,"bend":0.0,"ch":12,"track":15},{"t":3021.166,"dur":0.396,"note":32,"inst":"piano_v0_additive_0","vel":1.0,"bend":0.0,"ch":0,"track":15},{"t":3021.166,"dur":1.187,"note":44,"inst":"piano_v0_additive_0","vel":1.0,"bend":0.0,"ch":12,"track":15},{"t":3021.166,"dur":1.187,"note":44,"inst":"piano_v0_additive_0","vel":1.0,"bend":0.0,"ch":12,"track":15},{"t":3021.561,"dur":0.396,"note":25,"inst":"organ_v0_additive_1","vel":1.0,"bend":0.0,"ch":9,"track":15},{"t":3021.957,"dur":0.396,"note":25,"inst":"organ_v0_additive_1","vel":1.0,"bend":0.0,"ch":9,"track":15},{"t":3022.352,"dur":1.187,"note":37,"inst":"organ_v0_additive_1","vel":1.0,"bend":0.0,"ch":5,"track":15},{"t":3022.748,"dur":0.396,"note":44,"inst":"piano_v0_additive_0","vel":1.0,"bend":0.0,"ch":12,"track":15},{"t":3022.748,"dur":0.396,"note":56,"inst":"piano_v0_additive_0","vel":1.0,"bend":0.0,"ch":8,"track":15},{"t":3022.748,"dur":0.396,"note":56,"inst":"piano_v0_additive_0","vel":1.0,"bend":0.0,"ch":8,"track":15},{"t":3023.143,"dur":0.396,"note":44,"inst":"piano_v0_additive_0","vel":1.0,"bend":0.0,"ch":12,"track":15},{"t":3023.143,"dur":0.396,"note":56,"inst":"piano_v0_additive_0","vel":1.0,"bend":0.0,"ch":8,"track":15},{"t":3023.143,"dur":0.396,"note":56,"inst":"piano_v0_additive_0","vel":1.0,"bend":0.0,"ch":8,"track":15},{"t":3023.539,"dur":0.396,"note":37,"inst":"organ_v0_additive_1","vel":1.0,"bend":0.0,"ch":5,"track":15},{"t":3023.539,"dur":0.791,"note":37,"inst":"organ_v0_additive_1","vel":1.0,"bend":0.0,"ch":5,"track":15},{"t":3023.539,"dur":0.791,"note":56,"inst":"piano_v0_additive_0","vel":1.0,"bend":0.0,"ch":8,"track":15},{"t":3023.539,"dur":0.791,"note":56,"inst":"piano_v0_additive_0","vel":1.0,"bend":0.0,"ch":8,"track":15},{"t":3023.934,"dur":0.791,"note":37,"inst":"organ_v0_additive_1","vel":1.0,"bend":0.0,"ch":5,"track":15},{"t":3024.33,"dur":0.791,"note":37,"inst":"organ_v0_additive_1","vel":1.0,"bend":0.0,"ch":5,"track":15},{"t":3024.33,"dur":0.791,"note":56,"inst":"piano_v0_additive_0","vel":1.0,"bend":0.0,"ch":8,"track":15},{"t":3024.33,"dur":0.791,"note":56,"inst":"piano_v0_additive_0","vel":1.0,"bend":0.0,"ch":8,"track":15},{"t":3024.725,"dur":0.791,"note":44,"inst":"piano_v0_additive_0","vel":1.0,"bend":0.0,"ch":12,"track":15},{"t":3025.121,"dur":0.791,"note":56,"inst":"piano_v0_additive_0","vel":1.0,"bend":0.0,"ch":8,"track":15},{"t":3025.121,"dur":0.791,"note":56,"inst":"piano_v0_additive_0","vel":1.0,"bend":0.0,"ch":8,"track":15},{"t":3025.121,"dur":0.791,"note":49,"inst":"organ_v0_additive_1","vel":1.0,"bend":0.0,"ch":1,"track":15},{"t":3025.516,"dur":0.396,"note":49,"inst":"organ_v0_additive_1","vel":1.0,"bend":0.0,"ch":1,"track":15},{"t":3025.912,"dur":0.396,"note":37,"inst":"organ_v0_additive_1","vel":1.0,"bend":0.0,"ch":5,"track":15},{"t":3025.912,"dur":0.396,"note":49,"inst":"organ_v0_additive_1","vel":1.0,"bend":0.0,"ch":1,"track":15},{"t":3025.912,"dur":0.396,"note":56,"inst":"piano_v0_additive_0","vel":1.0,"bend":0.0,"ch":8,"track":15},{"t":3025.912,"dur":0.396,"note":49,"inst":"organ_v0_additive_1","vel":1.0,"bend":0.0,"ch":1,"track":15},{"t":3026.307,"dur":0.396,"note":56,"inst":"piano_v0_additive_0","vel":1.0,"bend":0.0,"ch":8,"track":15},{"t":3026.307,"dur":0.396,"note":49,"inst":"organ_v0_additive_1","vel":1.0,"bend":0.0,"ch":1,"track":15},{"t":3026.307,"dur":0.396,"note":68,"inst":"piano_v0_additive_0","vel":1.0,"bend":0.0,"ch":4,"track":15},{"t":3026.703,"dur":0.396,"note":56,"inst":"piano_v0_additive_0","vel":1.0,"bend":0.0,"ch":8,"track":15},{"t":3026.703,"dur":0.396,"note":49,"inst":"organ_v0_additive_1","vel":1.0,"bend":0.0,"ch":1,"track":15},{"t":3027.098,"dur":0.396,"note":56,"inst":"piano_v0_additive_0","vel":1.0,"bend":0.0,"ch":8,"track":15},{"t":3027.098,"dur":0.791,"note":49,"inst":"organ_v0_additive_1","vel":1.0,"bend":0.0,"ch":1,"track":15},{"t":3027.098,"dur":0.791,"note":68,"inst":"piano_v0_additive_0","vel":1.0,"bend":0.0,"ch":4,"track":15},{"t":3027.494,"dur":0.396,"note":37,"inst":"organ_v0_additive_1","vel":1.0,"bend":0.0,"ch":5,"track":15},{"t":3027.89,"dur":0.396,"note":56,"inst":"piano_v0_additive_0","vel":1.0,"bend":0.0,"ch":8,"track":15},{"t":3027.89,"dur":0.396,"note":56,"inst":"piano_v0_additive_0","vel":1.0,"bend":0.0,"ch":8,"track":15},{"t":3027.89,"dur":0.396,"note":61,"inst":"organ_v0_additive_1","vel":1.0,"bend":0.0,"ch":13,"track":15},{"t":3028.285,"dur":0.396,"note":37,"inst":"organ_v0_additive_1","vel":1.0,"bend":0.0,"ch":5,"track":15},{"t":3028.681,"dur":0.396,"note":56,"inst":"piano_v0_additive_0","vel":1.0,"bend":0.0,"ch":8,"track":15},{"t":3028.681,"dur":0.396,"note":56,"inst":"piano_v0_additive_0","vel":1.0,"bend":0.0,"ch":8,"track":15},{"t":3028.681,"dur":0.396,"note":61,"inst":"organ_v0_additive_1","vel":1.0,"bend":0.0,"ch":13,"track":15},{"t":3029.076,"dur":0.396,"note":49,"inst":"organ_v0_additive_1","vel":1.0,"bend":0.0,"ch":1,"track":15},{"t":3029.076,"dur":0.396,"note":56,"inst":"piano_v0_additive_0","vel":1.0,"bend":0.0,"ch":8,"track":15},{"t":3029.472,"dur":0.396,"note":56,"inst":"piano_v0_additive_0","vel":1.0,"bend":0.0,"ch":8,"track":15},{"t":3029.472,"dur":0.791,"note":56,"inst":"piano_v0_additive_0","vel":1.0,"bend":0.0,"ch":8,"track":15},{"t":3029.472,"dur":0.791,"note":61,"inst":"organ_v0_additive_1","vel":1.0,"bend":0.0,"ch":13,"track":15},{"t":3029.867,"dur":0.396,"note":37,"inst":"organ_v0_additive_1","vel":1.0,"bend":0.0,"ch":5,"track":15},{"t":3030.263,"dur":0.396,"note":49,"inst":"organ_v0_additive_1","vel":1.0,"bend":0.0,"ch":1,"track":15},{"t":3030.263,"dur":0.396,"note":56,"inst":"piano_v0_additive_0","vel":1.0,"bend":0.0,"ch":8,"track":15},{"t":3030.263,"dur":0.396,"note":49,"inst":"organ_v0_additive_1","vel":1.0,"bend":0.0,"ch":1,"track":15},{"t":3030.658,"dur":0.396,"note":37,"inst":"organ_v0_additive_1","vel":1.0,"bend":0.0,"ch":5,"track":15},{"t":3031.054,"dur":1.187,"note":44,"inst":"piano_v0_additive_0","vel":1.0,"bend":0.0,"ch":12,"track":15},{"t":3031.054,"dur":1.187,"note":49,"inst":"organ_v0_additive_1","vel":1.0,"bend":0.0,"ch":1,"track":15},{"t":3031.054,"dur":0.396,"note":56,"inst":"piano_v0_additive_0","vel":1.0,"bend":0.0,"ch":8,"track":15},{"t":3031.054,"dur":0.396,"note":49,"inst":"organ_v0_additive_1","vel":1.0,"bend":0.0,"ch":1,"track":15},{"t":3031.449,"dur":0.396,"note":56,"inst":"piano_v0_additive_0","vel":1.0,"bend":0.0,"ch":8,"track":15},{"t":3031.845,"dur":0.396,"note":56,"inst":"piano_v0_additive_0","vel":1.0,"bend":0.0,"ch":8,"track":15},{"t":3031.845,"dur":0.396,"note":49,"inst":"organ_v0_additive_1","vel":1.0,"bend":0.0,"ch":1,"track":15},{"t":3032.24,"dur":0.791,"note":37,"inst":"organ_v0_additive_1","vel":1.0,"bend":0.0,"ch":5,"track":15},{"t":3032.24,"dur":0.791,"note":44,"inst":"piano_v0_additive_0","vel":1.0,"bend":0.0,"ch":12,"track":15},{"t":3032.24,"dur":0.396,"note":37,"inst":"organ_v0_additive_1","vel":1.0,"bend":0.0,"ch":5,"track":15},{"t":3032.24,"dur":0.396,"note":56,"inst":"piano_v0_additive_0","vel":1.0,"bend":0.0,"ch":8,"track":15},{"t":3032.636,"dur":0.396,"note":37,"inst":"organ_v0_additive_1","vel":1.0,"bend":0.0,"ch":5,"track":15},{"t":3033.031,"dur":0.396,"note":37,"inst":"organ_v0_additive_1","vel":1.0,"bend":0.0,"ch":5,"track":15},{"t":3033.031,"dur":0.396,"note":56,"inst":"piano_v0_additive_0","vel":1.0,"bend":0.0,"ch":8,"track":15},{"t":3033.427,"dur":1.187,"note":25,"inst":"organ_v0_additive_1","vel":1.0,"bend":0.0,"ch":9,"track":15},{"t":3033.427,"dur":1.187,"note":37,"inst":"organ_v0_additive_1","vel":1.0,"bend":0.0,"ch":5,"track":15},{"t":3033.427,"dur":0.396,"note":44,"inst":"piano_v0_additive_0","vel":1.0,"bend":0.0,"ch":12,"track":15},{"t":3033.427,"dur":0.396,"note":44,"inst":"piano_v0_additive_0","vel":1.0,"bend":0.0,"ch":12,"track":15},{"t":3033.822,"dur":0.396,"note":44,"inst":"piano_v0_additive_0","vel":1.0,"bend":0.0,"ch":12,"track":15},{"t":3034.218,"dur":0.791,"note":44,"inst":"piano_v0_additive_0","vel":1.0,"bend":0.0,"ch":12,"track":15},{"t":3034.218,"dur":0.791,"note":44,"inst":"piano_v0_additive_0","vel":1.0,"bend":0.0,"ch":12,"track":15},{"t":3034.613,"dur":0.396,"note":32,"inst":"piano_v0_additive_0","vel":1.0,"bend":0.0,"ch":0,"track":15},{"t":3035.009,"dur":0.396,"note":32,"inst":"piano_v0_additive_0","vel":1.0,"bend":0.0,"ch":0,"track":15},{"t":3035.009,"dur":0.396,"note":25,"inst":"organ_v0_additive_1","vel":1.0,"bend":0.0,"ch":9,"track":15},{"t":3035.009,"dur":0.396,"note":37,"inst":"organ_v0_additive_1","vel":1.0,"bend":0.0,"ch":5,"track":15},{"t":3035.009,"dur":0.396,"note":44,"inst":"piano_v0_additive_0","vel":1.0,"bend":0.0,"ch":12,"track":15},{"t":3035.404,"dur":0.396,"note":32,"inst":"piano_v0_additive_0","vel":1.0,"bend":0.0,"ch":0,"track":15},{"t":3035.404,"dur":0.396,"note":37,"inst":"organ_v0_additive_1","vel":1.0,"bend":0.0,"ch":5,"track":15},{"t":3035.404,"dur":0.396,"note":44,"inst":"piano_v0_additive_0","vel":1.0,"bend":0.0,"ch":12,"track":15},{"t":3035.404,"dur":0.396,"note":44,"inst":"piano_v0_additive_0","vel":1.0,"bend":0.0,"ch":12,"track":15},{"t":3035.8,"dur":0.396,"note":61,"inst":"organ_v0_additive_1","vel":1.0,"bend":0.0,"ch":13,"track":15},{"t":3035.8,"dur":0.396,"note":68,"inst":"piano_v0_additive_0","vel":1.0,"bend":0.0,"ch":4,"track":15},{"t":3035.8,"dur":0.396,"note":68,"inst":"piano_v0_additive_0","vel":1.0,"bend":0.0,"ch":4,"track":15},{"t":3036.195,"dur":0.396,"note":49,"inst":"organ_v0_additive_1","vel":1.0,"bend":0.0,"ch":1,"track":15},{"t":3036.195,"dur":0.396,"note":61,"inst":"organ_v0_additive_1","vel":1.0,"bend":0.0,"ch":13,"track":15},{"t":3036.591,"dur":0.396,"note":61,"inst":"organ_v0_additive_1","vel":1.0,"bend":0.0,"ch":13,"track":15},{"t":3036.591,"dur":0.791,"note":68,"inst":"piano_v0_additive_0","vel":1.0,"bend":0.0,"ch":4,"track":15},{"t":3036.591,"dur":0.791,"note":68,"inst":"piano_v0_additive_0","vel":1.0,"bend":0.0,"ch":4,"track":15},{"t":3036.987,"dur":0.396,"note":56,"inst":"piano_v0_additive_0","vel":1.0,"bend":0.0,"ch":8,"track":15},{"t":3037.382,"dur":0.396,"note":49,"inst":"organ_v0_additive_1","vel":1.0,"bend":0.0,"ch":1,"track":15},{"t":3037.382,"dur":0.396,"note":61,"inst":"organ_v0_additive_1","vel":1.0,"bend":0.0,"ch":13,"track":15},{"t":3037.382,"dur":0.396,"note":68,"inst":"piano_v0_additive_0","vel":1.0,"bend":0.0,"ch":4,"track":15},{"t":3037.778,"dur":0.396,"note":56,"inst":"piano_v0_additive_0","vel":1.0,"bend":0.0,"ch":8,"track":15},{"t":3038.173,"dur":0.396,"note":56,"inst":"piano_v0_additive_0","vel":1.0,"bend":0.0,"ch":8,"track":15},{"t":3038.173,"dur":0.396,"note":61,"inst":"organ_v0_additive_1","vel":1.0,"bend":0.0,"ch":13,"track":15},{"t":3038.173,"dur":0.396,"note":68,"inst":"piano_v0_additive_0","vel":1.0,"bend":0.0,"ch":4,"track":15},{"t":3038.569,"dur":0.396,"note":56,"inst":"piano_v0_additive_0","vel":1.0,"bend":0.0,"ch":8,"track":15},{"t":3038.569,"dur":0.396,"note":49,"inst":"organ_v0_additive_1","vel":1.0,"bend":0.0,"ch":1,"track":15},{"t":3038.964,"dur":0.396,"note":56,"inst":"piano_v0_additive_0","vel":1.0,"bend":0.0,"ch":8,"track":15},{"t":3038.964,"dur":0.791,"note":61,"inst":"organ_v0_additive_1","vel":1.0,"bend":0.0,"ch":13,"track":15},{"t":3038.964,"dur":0.791,"note":68,"inst":"piano_v0_additive_0","vel":1.0,"bend":0.0,"ch":4,"track":15},{"t":3039.36,"dur":0.396,"note":56,"inst":"piano_v0_additive_0","vel":1.0,"bend":0.0,"ch":8,"track":15},{"t":3039.755,"dur":0.396,"note":56,"inst":"piano_v0_additive_0","vel":1.0,"bend":0.0,"ch":8,"track":15},{"t":3039.755,"dur":0.396,"note":49,"inst":"organ_v0_additive_1","vel":1.0,"bend":0.0,"ch":1,"track":15},{"t":3039.755,"dur":0.396,"note":68,"inst":"piano_v0_additive_0","vel":1.0,"bend":0.0,"ch":4,"track":15},{"t":3040.151,"dur":0.396,"note":56,"inst":"piano_v0_additive_0","vel":1.0,"bend":0.0,"ch":8,"track":15},{"t":3040.546,"dur":1.187,"note":49,"inst":"organ_v0_additive_1","vel":1.0,"bend":0.0,"ch":1,"track":15},{"t":3040.546,"dur":1.187,"note":56,"inst":"piano_v0_additive_0","vel":1.0,"bend":0.0,"ch":8,"track":15},{"t":3040.546,"dur":0.396,"note":49,"inst":"organ_v0_additive_1","vel":1.0,"bend":0.0,"ch":1,"track":15},{"t":3040.546,"dur":0.396,"note":68,"inst":"piano_v0_additive_0","vel":1.0,"bend":0.0,"ch":4,"track":15},{"t":3051.314,"dur":0.253,"note":71,"inst":"celesta_v0_additive_3","vel":0.535,"bend":0.0,"ch":7,"track":15},{"t":3051.484,"dur":0.275,"note":66,"inst":"harpsichord_v0_additive_2","vel":0.512,"bend":0.0,"ch":2,"track":15},{"t":3051.49,"dur":0.218,"note":42,"inst":"harpsichord_v0_additive_2","vel":0.291,"bend":0.0,"ch":10,"track":15},{"t":3051.662,"dur":0.044,"note":54,"inst":"harpsichord_v0_additive_2","vel":0.354,"bend":0.0,"ch":6,"track":15},{"t":3051.791,"dur":0.107,"note":69,"inst":"organ_v0_additive_1","vel":0.433,"bend":0.0,"ch":5,"track":15},{"t":3051.882,"dur":0.211,"note":66,"inst":"harpsichord_v0_additive_2","vel":0.543,"bend":0.0,"ch":2,"track":15},{"t":3052.024,"dur":0.212,"note":71,"inst":"celesta_v0_additive_3","vel":0.535,"bend":0.0,"ch":7,"track":15},{"t":3052.075,"dur":1.14,"note":42,"inst":"harpsichord_v0_additive_2","vel":0.26,"bend":0.0,"ch":10,"track":15},{"t":3052.078,"dur":0.17,"note":45,"inst":"organ_v0_additive_1","vel":0.283,"bend":0.0,"ch":13,"track":15},{"t":3052.211,"dur":0.053,"note":59,"inst":"celesta_v0_additive_3","vel":0.307,"bend":0.0,"ch":11,"track":15},{"t":3052.287,"dur":0.146,"note":54,"inst":"harpsichord_v0_additive_2","vel":0.48,"bend":0.0,"ch":6,"track":15},{"t":3052.376,"dur":0.179,"note":71,"inst":"celesta_v0_additive_3","vel":0.583,"bend":0.0,"ch":7,"track":15},{"t":3052.5,"dur":0.207,"note":74,"inst":"harpsichord_v0_additive_2","vel":0.591,"bend":0.0,"ch":10,"track":15},{"t":3052.524,"dur":0.142,"note":45,"inst":"organ_v0_additive_1","vel":0.378,"bend":0.0,"ch":13,"track":15},{"t":3052.657,"dur":0.043,"note":62,"inst":"harpsichord_v0_additive_2","vel":0.402,"bend":0.0,"ch":14,"track":15},{"t":3052.755,"dur":0.159,"note":54,"inst":"harpsichord_v0_additive_2","vel":0.52,"bend":0.0,"ch":6,"track":15},{"t":3052.845,"dur":0.202,"note":74,"inst":"harpsichord_v0_additive_2","vel":0.622,"bend":0.0,"ch":10,"track":15},{"t":3052.977,"dur":0.192,"note":69,"inst":"organ_v0_additive_1","vel":0.598,"bend":0.0,"ch":5,"track":15},{"t":3052.997,"dur":0.172,"note":43,"inst":"celesta_v0_additive_3","vel":0.37,"bend":0.0,"ch":11,"track":15},{"t":3053.144,"dur":0.054,"note":57,"inst":"organ_v0_additive_1","vel":0.299,"bend":0.0,"ch":9,"track":15},{"t":3053.237,"dur":0.168,"note":54,"inst":"harpsichord_v0_additive_2","vel":0.457,"bend":0.0,"ch":6,"track":15},{"t":3053.341,"dur":0.187,"note":69,"inst":"organ_v0_additive_1","vel":0.559,"bend":0.0,"ch":5,"track":15},{"t":3053.478,"dur":0.236,"note":67,"inst":"celesta_v0_additive_3","vel":0.551,"bend":0.0,"ch":3,"track":15},{"t":3053.492,"dur":0.227,"note":42,"inst":"harpsichord_v0_additive_2","vel":0.276,"bend":0.0,"ch":10,"track":15},{"t":3053.503,"dur":0.209,"note":47,"inst":"celesta_v0_additive_3","vel":0.323,"bend":0.0,"ch":15,"track":15},{"t":3053.641,"dur":0.068,"note":57,"inst":"organ_v0_additive_1","vel":0.339,"bend":0.0,"ch":9,"track":15},{"t":3053.756,"dur":0.167,"note":54,"inst":"harpsichord_v0_additive_2","vel":0.449,"bend":0.0,"ch":6,"track":15},{"t":3053.858,"dur":0.242,"note":67,"inst":"celesta_v0_additive_3","vel":0.535,"bend":0.0,"ch":3,"track":15},{"t":3054.028,"dur":0.281,"note":71,"inst":"celesta_v0_additive_3","vel":0.496,"bend":0.0,"ch":7,"track":15},{"t":3054.043,"dur":0.193,"note":52,"inst":"piano_v0_additive_0","vel":0.299,"bend":0.0,"ch":4,"track":15},{"t":3054.046,"dur":0.217,"note":47,"inst":"celesta_v0_additive_3","vel":0.291,"bend":0.0,"ch":15,"track":15},{"t":3054.216,"dur":0.118,"note":57,"inst":"organ_v0_additive_1","vel":0.315,"bend":0.0,"ch":9,"track":15},{"t":3054.343,"dur":0.123,"note":64,"inst":"piano_v0_additive_0","vel":0.409,"bend":0.0,"ch":0,"track":15},{"t":3054.439,"dur":0.261,"note":71,"inst":"celesta_v0_additive_3","vel":0.472,"bend":0.0,"ch":7,"track":15},{"t":3054.634,"dur":0.256,"note":69,"inst":"organ_v0_additive_1","vel":0.441,"bend":0.0,"ch":5,"track":15},{"t":3054.69,"dur":0.178,"note":30,"inst":"harpsichord_v0_additive_2","vel":0.283,"bend":0.0,"ch":14,"track":15},{"t":3054.695,"dur":0.184,"note":47,"inst":"celesta_v0_additive_3","vel":0.236,"bend":0.0,"ch":15,"track":15},{"t":3054.872,"dur":0.09,"note":57,"inst":"organ_v0_additive_1","vel":0.26,"bend":0.0,"ch":9,"track":15},{"t":3054.949,"dur":0.106,"note":54,"inst":"harpsichord_v0_additive_2","vel":0.425,"bend":0.0,"ch":6,"track":15},{"t":3055.048,"dur":0.299,"note":71,"inst":"celesta_v0_additive_3","vel":0.567,"bend":0.0,"ch":7,"track":15},{"t":3055.214,"dur":0.117,"note":76,"inst":"piano_v0_additive_0","vel":0.52,"bend":0.0,"ch":12,"track":15},{"t":3055.263,"dur":0.577,"note":74,"inst":"harpsichord_v0_additive_2","vel":0.528,"bend":0.0,"ch":10,"track":15},{"t":3055.281,"dur":0.795,"note":59,"inst":"celesta_v0_additive_3","vel":0.299,"bend":0.0,"ch":11,"track":15},{"t":3055.288,"dur":0.161,"note":55,"inst":"celesta_v0_additive_3","vel":0.299,"bend":0.0,"ch":7,"track":15},{"t":3055.439,"dur":0.051,"note":64,"inst":"piano_v0_additive_0","vel":0.386,"bend":0.0,"ch":0,"track":15},{"t":3055.547,"dur":0.155,"note":69,"inst":"organ_v0_additive_1","vel":0.425,"bend":0.0,"ch":5,"track":15},{"t":3055.654,"dur":0.25,"note":71,"inst":"celesta_v0_additive_3","vel":0.512,"bend":0.0,"ch":7,"track":15},{"t":3055.833,"dur":0.28,"note":66,"inst":"harpsichord_v0_additive_2","vel":0.512,"bend":0.0,"ch":2,"track":15},{"t":3055.853,"dur":0.214,"note":42,"inst":"harpsichord_v0_additive_2","vel":0.268,"bend":0.0,"ch":10,"track":15},{"t":3056.034,"dur":0.045,"note":54,"inst":"harpsichord_v0_additive_2","vel":0.315,"bend":0.0,"ch":6,"track":15},{"t":3056.172,"dur":0.123,"note":69,"inst":"organ_v0_additive_1","vel":0.354,"bend":0.0,"ch":5,"track":15},{"t":3056.28,"dur":0.211,"note":66,"inst":"harpsichord_v0_additive_2","vel":0.48,"bend":0.0,"ch":2,"track":15},{"t":3056.432,"dur":0.238,"note":71,"inst":"celesta_v0_additive_3","vel":0.457,"bend":0.0,"ch":7,"track":15},{"t":3056.47,"dur":0.209,"note":45,"inst":"organ_v0_additive_1","vel":0.315,"bend":0.0,"ch":13,"track":15},{"t":3056.487,"dur":1.137,"note":42,"inst":"harpsichord_v0_additive_2","vel":0.299,"bend":0.0,"ch":10,"track":15},{"t":3056.632,"dur":0.06,"note":59,"inst":"celesta_v0_additive_3","vel":0.323,"bend":0.0,"ch":11,"track":15},{"t":3056.712,"dur":0.179,"note":54,"inst":"harpsichord_v0_additive_2","vel":0.496,"bend":0.0,"ch":6,"track":15},{"t":3056.799,"dur":0.174,"note":71,"inst":"celesta_v0_additive_3","vel":0.583,"bend":0.0,"ch":7,"track":15},{"t":3056.919,"dur":0.201,"note":74,"inst":"harpsichord_v0_additive_2","vel":0.567,"bend":0.0,"ch":10,"track":15},{"t":3056.94,"dur":0.185,"note":45,"inst":"organ_v0_additive_1","vel":0.315,"bend":0.0,"ch":13,"track":15},{"t":3057.075,"dur":0.036,"note":62,"inst":"harpsichord_v0_additive_2","vel":0.37,"bend":0.0,"ch":14,"track":15},{"t":3057.169,"dur":0.179,"note":54,"inst":"harpsichord_v0_additive_2","vel":0.512,"bend":0.0,"ch":6,"track":15},{"t":3057.264,"dur":0.205,"note":74,"inst":"harpsichord_v0_additive_2","vel":0.606,"bend":0.0,"ch":10,"track":15},{"t":3057.4,"dur":0.23,"note":69,"inst":"organ_v0_additive_1","vel":0.583,"bend":0.0,"ch":5,"track":15},{"t":3057.407,"dur":0.165,"note":43,"inst":"celesta_v0_additive_3","vel":0.378,"bend":0.0,"ch":11,"track":15},{"t":3057.549,"dur":0.126,"note":57,"inst":"organ_v0_additive_1","vel":0.354,"bend":0.0,"ch":9,"track":15},{"t":3057.663,"dur":0.162,"note":54,"inst":"harpsichord_v0_additive_2","vel":0.449,"bend":0.0,"ch":6,"track":15},{"t":3057.748,"dur":0.187,"note":69,"inst":"organ_v0_additive_1","vel":0.52,"bend":0.0,"ch":5,"track":15},{"t":3057.898,"dur":0.275,"note":67,"inst":"celesta_v0_additive_3","vel":0.496,"bend":0.0,"ch":3,"track":15},{"t":3057.917,"dur":0.2,"note":42,"inst":"harpsichord_v0_additive_2","vel":0.291,"bend":0.0,"ch":10,"track":15},{"t":3057.918,"dur":0.224,"note":47,"inst":"celesta_v0_additive_3","vel":0.315,"bend":0.0,"ch":15,"track":15},{"t":3058.067,"dur":0.102,"note":57,"inst":"organ_v0_additive_1","vel":0.315,"bend":0.0,"ch":9,"track":15},{"t":3058.194,"dur":0.152,"note":54,"inst":"harpsichord_v0_additive_2","vel":0.425,"bend":0.0,"ch":6,"track":15},{"t":3058.292,"dur":0.216,"note":67,"inst":"celesta_v0_additive_3","vel":0.465,"bend":0.0,"ch":3,"track":15},{"t":3058.473,"dur":0.288,"note":71,"inst":"celesta_v0_additive_3","vel":0.465,"bend":0.0,"ch":7,"track":15},{"t":3058.486,"dur":0.229,"note":52,"inst":"piano_v0_additive_0","vel":0.299,"bend":0.0,"ch":4,"track":15},{"t":3058.488,"dur":0.226,"note":47,"inst":"celesta_v0_additive_3","vel":0.26,"bend":0.0,"ch":15,"track":15},{"t":3058.66,"dur":0.073,"note":57,"inst":"organ_v0_additive_1","vel":0.268,"bend":0.0,"ch":9,"track":15},{"t":3058.799,"dur":0.201,"note":64,"inst":"piano_v0_additive_0","vel":0.37,"bend":0.0,"ch":0,"track":15},{"t":3058.939,"dur":0.656,"note":71,"inst":"celesta_v0_additive_3","vel":0.402,"bend":0.0,"ch":7,"track":15},{"t":3059.283,"dur":0.257,"note":54,"inst":"harpsichord_v0_additive_2","vel":0.331,"bend":0.0,"ch":6,"track":15},{"t":3059.315,"dur":0.367,"note":57,"inst":"organ_v0_additive_1","vel":0.228,"bend":0.0,"ch":9,"track":15},{"t":3059.318,"dur":0.304,"note":47,"inst":"celesta_v0_additive_3","vel":0.228,"bend":0.0,"ch":15,"track":15},{"t":3059.324,"dur":0.247,"note":30,"inst":"harpsichord_v0_additive_2","vel":0.283,"bend":0.0,"ch":14,"track":15},{"t":3059.852,"dur":0.361,"note":76,"inst":"piano_v0_additive_0","vel":0.559,"bend":0.0,"ch":12,"track":15},{"t":3060.087,"dur":0.117,"note":79,"inst":"celesta_v0_additive_3","vel":0.543,"bend":0.0,"ch":15,"track":15},{"t":3060.128,"dur":0.417,"note":66,"inst":"harpsichord_v0_additive_2","vel":0.575,"bend":0.0,"ch":2,"track":15},{"t":3060.193,"dur":0.949,"note":64,"inst":"piano_v0_additive_0","vel":0.276,"bend":0.0,"ch":0,"track":15},{"t":3060.198,"dur":0.208,"note":57,"inst":"organ_v0_additive_1","vel":0.276,"bend":0.0,"ch":9,"track":15},{"t":3060.411,"dur":0.041,"note":69,"inst":"organ_v0_additive_1","vel":0.386,"bend":0.0,"ch":5,"track":15},{"t":3060.523,"dur":0.16,"note":71,"inst":"celesta_v0_additive_3","vel":0.504,"bend":0.0,"ch":7,"track":15},{"t":3060.627,"dur":0.281,"note":76,"inst":"piano_v0_additive_0","vel":0.606,"bend":0.0,"ch":12,"track":15},{"t":3060.825,"dur":0.309,"note":83,"inst":"celesta_v0_additive_3","vel":0.606,"bend":0.0,"ch":3,"track":15},{"t":3060.864,"dur":0.306,"note":55,"inst":"celesta_v0_additive_3","vel":0.283,"bend":0.0,"ch":7,"track":15},{"t":3061.055,"dur":0.062,"note":71,"inst":"celesta_v0_additive_3","vel":0.457,"bend":0.0,"ch":7,"track":15},{"t":3061.14,"dur":0.123,"note":74,"inst":"harpsichord_v0_additive_2","vel":0.528,"bend":0.0,"ch":10,"track":15},{"t":3061.223,"dur":0.222,"note":76,"inst":"piano_v0_additive_0","vel":0.677,"bend":0.0,"ch":12,"track":15},{"t":3061.364,"dur":0.092,"note":79,"inst":"celesta_v0_additive_3","vel":0.622,"bend":0.0,"ch":15,"track":15},{"t":3061.393,"dur":0.584,"note":66,"inst":"harpsichord_v0_additive_2","vel":0.614,"bend":0.0,"ch":2,"track":15},{"t":3061.409,"dur":0.23,"note":64,"inst":"piano_v0_additive_0","vel":0.339,"bend":0.0,"ch":0,"track":15},{"t":3061.416,"dur":0.175,"note":57,"inst":"organ_v0_additive_1","vel":0.37,"bend":0.0,"ch":9,"track":15},{"t":3061.548,"dur":0.08,"note":69,"inst":"organ_v0_additive_1","vel":0.441,"bend":0.0,"ch":5,"track":15},{"t":3061.643,"dur":0.122,"note":71,"inst":"celesta_v0_additive_3","vel":0.551,"bend":0.0,"ch":7,"track":15},{"t":3061.75,"dur":0.245,"note":76,"inst":"piano_v0_additive_0","vel":0.622,"bend":0.0,"ch":12,"track":15},{"t":3061.934,"dur":0.298,"note":81,"inst":"organ_v0_additive_1","vel":0.567,"bend":0.0,"ch":1,"track":15},{"t":3061.968,"dur":0.264,"note":55,"inst":"celesta_v0_additive_3","vel":0.307,"bend":0.0,"ch":7,"track":15},{"t":3061.974,"dur":0.246,"note":59,"inst":"celesta_v0_additive_3","vel":0.276,"bend":0.0,"ch":11,"track":15},{"t":3062.146,"dur":0.088,"note":64,"inst":"piano_v0_additive_0","vel":0.362,"bend":0.0,"ch":0,"track":15},{"t":3062.259,"dur":0.195,"note":69,"inst":"organ_v0_additive_1","vel":0.417,"bend":0.0,"ch":5,"track":15},{"t":3062.377,"dur":0.313,"note":71,"inst":"celesta_v0_additive_3","vel":0.449,"bend":0.0,"ch":7,"track":15},{"t":3062.552,"dur":0.1,"note":76,"inst":"piano_v0_additive_0","vel":0.409,"bend":0.0,"ch":12,"track":15},{"t":3062.607,"dur":0.489,"note":74,"inst":"harpsichord_v0_additive_2","vel":0.402,"bend":0.0,"ch":10,"track":15},{"t":3062.649,"dur":0.269,"note":54,"inst":"harpsichord_v0_additive_2","vel":0.26,"bend":0.0,"ch":6,"track":15},{"t":3062.654,"dur":0.809,"note":59,"inst":"celesta_v0_additive_3","vel":0.236,"bend":0.0,"ch":11,"track":15},{"t":3062.804,"dur":0.072,"note":62,"inst":"harpsichord_v0_additive_2","vel":0.315,"bend":0.0,"ch":14,"track":15},{"t":3062.918,"dur":0.199,"note":69,"inst":"organ_v0_additive_1","vel":0.37,"bend":0.0,"ch":5,"track":15},{"t":3063.011,"dur":0.198,"note":71,"inst":"celesta_v0_additive_3","vel":0.433,"bend":0.0,"ch":7,"track":15},{"t":3063.153,"dur":0.252,"note":76,"inst":"piano_v0_additive_0","vel":0.386,"bend":0.0,"ch":12,"track":15},{"t":3063.187,"dur":0.257,"note":55,"inst":"celesta_v0_additive_3","vel":0.26,"bend":0.0,"ch":7,"track":15},{"t":3063.344,"dur":0.132,"note":54,"inst":"harpsichord_v0_additive_2","vel":0.26,"bend":0.0,"ch":6,"track":15},{"t":3063.463,"dur":0.129,"note":67,"inst":"celesta_v0_additive_3","vel":0.409,"bend":0.0,"ch":3,"track":15},{"t":3063.539,"dur":0.197,"note":76,"inst":"piano_v0_additive_0","vel":0.433,"bend":0.0,"ch":12,"track":15},{"t":3063.675,"dur":0.256,"note":74,"inst":"harpsichord_v0_additive_2","vel":0.417,"bend":0.0,"ch":10,"track":15},{"t":3063.69,"dur":0.198,"note":59,"inst":"celesta_v0_additive_3","vel":0.315,"bend":0.0,"ch":11,"track":15},{"t":3063.695,"dur":0.163,"note":55,"inst":"celesta_v0_additive_3","vel":0.244,"bend":0.0,"ch":7,"track":15},{"t":3063.847,"dur":0.172,"note":54,"inst":"harpsichord_v0_additive_2","vel":0.291,"bend":0.0,"ch":6,"track":15},{"t":3063.972,"dur":0.115,"note":67,"inst":"celesta_v0_additive_3","vel":0.402,"bend":0.0,"ch":3,"track":15},{"t":3064.08,"dur":0.294,"note":74,"inst":"harpsichord_v0_additive_2","vel":0.378,"bend":0.0,"ch":10,"track":15},{"t":3064.281,"dur":0.251,"note":71,"inst":"celesta_v0_additive_3","vel":0.378,"bend":0.0,"ch":7,"track":15},{"t":3064.308,"dur":0.159,"note":47,"inst":"celesta_v0_additive_3","vel":0.291,"bend":0.0,"ch":15,"track":15},{"t":3064.322,"dur":0.208,"note":55,"inst":"celesta_v0_additive_3","vel":0.236,"bend":0.0,"ch":7,"track":15},{"t":3064.503,"dur":0.143,"note":64,"inst":"piano_v0_additive_0","vel":0.244,"bend":0.0,"ch":0,"track":15},{"t":3064.591,"dur":0.065,"note":67,"inst":"celesta_v0_additive_3","vel":0.425,"bend":0.0,"ch":3,"track":15},{"t":3064.691,"dur":0.358,"note":76,"inst":"piano_v0_additive_0","vel":0.528,"bend":0.0,"ch":12,"track":15},{"t":3064.906,"dur":0.12,"note":79,"inst":"celesta_v0_additive_3","vel":0.465,"bend":0.0,"ch":15,"track":15},{"t":3064.952,"dur":0.456,"note":66,"inst":"harpsichord_v0_additive_2","vel":0.465,"bend":0.0,"ch":2,"track":15},{"t":3065.005,"dur":1.025,"note":64,"inst":"piano_v0_additive_0","vel":0.252,"bend":0.0,"ch":0,"track":15},{"t":3065.006,"dur":0.243,"note":57,"inst":"organ_v0_additive_1","vel":0.244,"bend":0.0,"ch":9,"track":15},{"t":3065.186,"dur":0.057,"note":69,"inst":"organ_v0_additive_1","vel":0.339,"bend":0.0,"ch":5,"track":15},{"t":3065.321,"dur":0.158,"note":71,"inst":"celesta_v0_additive_3","vel":0.354,"bend":0.0,"ch":7,"track":15},{"t":3065.432,"dur":0.293,"note":76,"inst":"piano_v0_additive_0","vel":0.449,"bend":0.0,"ch":12,"track":15},{"t":3065.657,"dur":0.343,"note":83,"inst":"celesta_v0_additive_3","vel":0.48,"bend":0.0,"ch":3,"track":15},{"t":3065.684,"dur":0.405,"note":55,"inst":"celesta_v0_additive_3","vel":0.307,"bend":0.0,"ch":7,"track":15},{"t":3065.934,"dur":0.058,"note":71,"inst":"celesta_v0_additive_3","vel":0.346,"bend":0.0,"ch":7,"track":15},{"t":3066.027,"dur":0.104,"note":74,"inst":"harpsichord_v0_additive_2","vel":0.457,"bend":0.0,"ch":10,"track":15},{"t":3066.108,"dur":0.25,"note":76,"inst":"piano_v0_additive_0","vel":0.567,"bend":0.0,"ch":12,"track":15},{"t":3066.254,"dur":0.096,"note":79,"inst":"celesta_v0_additive_3","vel":0.543,"bend":0.0,"ch":15,"track":15},{"t":3066.289,"dur":0.523,"note":66,"inst":"harpsichord_v0_additive_2","vel":0.551,"bend":0.0,"ch":2,"track":15},{"t":3066.319,"dur":0.135,"note":57,"inst":"organ_v0_additive_1","vel":0.307,"bend":0.0,"ch":9,"track":15},{"t":3066.32,"dur":0.226,"note":64,"inst":"piano_v0_additive_0","vel":0.307,"bend":0.0,"ch":0,"track":15},{"t":3066.44,"dur":0.067,"note":69,"inst":"organ_v0_additive_1","vel":0.409,"bend":0.0,"ch":5,"track":15},{"t":3066.543,"dur":0.141,"note":71,"inst":"celesta_v0_additive_3","vel":0.504,"bend":0.0,"ch":7,"track":15},{"t":3066.643,"dur":0.199,"note":76,"inst":"piano_v0_additive_0","vel":0.622,"bend":0.0,"ch":12,"track":15},{"t":3066.776,"dur":0.233,"note":81,"inst":"organ_v0_additive_1","vel":0.598,"bend":0.0,"ch":1,"track":15},{"t":3066.805,"dur":0.166,"note":55,"inst":"celesta_v0_additive_3","vel":0.315,"bend":0.0,"ch":7,"track":15},{"t":3066.805,"dur":0.163,"note":59,"inst":"celesta_v0_additive_3","vel":0.331,"bend":0.0,"ch":11,"track":15},{"t":3066.934,"dur":0.046,"note":64,"inst":"piano_v0_additive_0","vel":0.441,"bend":0.0,"ch":0,"track":15},{"t":3067.021,"dur":0.148,"note":69,"inst":"organ_v0_additive_1","vel":0.512,"bend":0.0,"ch":5,"track":15},{"t":3067.096,"dur":0.253,"note":71,"inst":"celesta_v0_additive_3","vel":0.591,"bend":0.0,"ch":7,"track":15},{"t":3067.22,"dur":0.102,"note":76,"inst":"piano_v0_additive_0","vel":0.528,"bend":0.0,"ch":12,"track":15},{"t":3067.256,"dur":0.394,"note":74,"inst":"harpsichord_v0_additive_2","vel":0.535,"bend":0.0,"ch":10,"track":15},{"t":3067.315,"dur":0.205,"note":54,"inst":"harpsichord_v0_additive_2","vel":0.283,"bend":0.0,"ch":6,"track":15},{"t":3067.322,"dur":0.821,"note":59,"inst":"celesta_v0_additive_3","vel":0.299,"bend":0.0,"ch":11,"track":15},{"t":3067.45,"dur":0.052,"note":62,"inst":"harpsichord_v0_additive_2","vel":0.394,"bend":0.0,"ch":14,"track":15},{"t":3067.536,"dur":0.201,"note":69,"inst":"organ_v0_additive_1","vel":0.48,"bend":0.0,"ch":5,"track":15},{"t":3067.631,"dur":0.276,"note":71,"inst":"celesta_v0_additive_3","vel":0.591,"bend":0.0,"ch":7,"track":15},{"t":3067.801,"dur":0.296,"note":76,"inst":"piano_v0_additive_0","vel":0.535,"bend":0.0,"ch":12,"track":15},{"t":3067.85,"dur":0.245,"note":55,"inst":"celesta_v0_additive_3","vel":0.291,"bend":0.0,"ch":7,"track":15},{"t":3068.031,"dur":0.126,"note":54,"inst":"harpsichord_v0_additive_2","vel":0.299,"bend":0.0,"ch":6,"track":15},{"t":3068.143,"dur":0.139,"note":67,"inst":"celesta_v0_additive_3","vel":0.472,"bend":0.0,"ch":3,"track":15},{"t":3068.22,"dur":0.209,"note":76,"inst":"piano_v0_additive_0","vel":0.496,"bend":0.0,"ch":12,"track":15},{"t":3068.351,"dur":0.288,"note":74,"inst":"harpsichord_v0_additive_2","vel":0.457,"bend":0.0,"ch":10,"track":15},{"t":3068.388,"dur":0.184,"note":59,"inst":"celesta_v0_additive_3","vel":0.291,"bend":0.0,"ch":11,"track":15},{"t":3068.399,"dur":0.143,"note":55,"inst":"celesta_v0_additive_3","vel":0.244,"bend":0.0,"ch":7,"track":15},{"t":3068.547,"dur":0.166,"note":54,"inst":"harpsichord_v0_additive_2","vel":0.307,"bend":0.0,"ch":6,"track":15},{"t":3068.685,"dur":0.128,"note":67,"inst":"celesta_v0_additive_3","vel":0.402,"bend":0.0,"ch":3,"track":15},{"t":3068.797,"dur":0.289,"note":74,"inst":"harpsichord_v0_additive_2","vel":0.378,"bend":0.0,"ch":10,"track":15},{"t":3069.005,"dur":0.373,"note":71,"inst":"celesta_v0_additive_3","vel":0.394,"bend":0.0,"ch":7,"track":15},{"t":3069.07,"dur":0.207,"note":47,"inst":"celesta_v0_additive_3","vel":0.181,"bend":0.0,"ch":15,"track":15},{"t":3069.076,"dur":0.251,"note":55,"inst":"celesta_v0_additive_3","vel":0.236,"bend":0.0,"ch":7,"track":15},{"t":3069.283,"dur":0.189,"note":64,"inst":"piano_v0_additive_0","vel":0.252,"bend":0.0,"ch":0,"track":15},{"t":3069.42,"dur":0.124,"note":67,"inst":"celesta_v0_additive_3","vel":0.362,"bend":0.0,"ch":3,"track":15},{"t":3069.519,"dur":0.331,"note":71,"inst":"celesta_v0_additive_3","vel":0.409,"bend":0.0,"ch":7,"track":15},{"t":3069.714,"dur":0.135,"note":76,"inst":"piano_v0_additive_0","vel":0.37,"bend":0.0,"ch":12,"track":15},{"t":3069.785,"dur":0.698,"note":74,"inst":"harpsichord_v0_additive_2","vel":0.37,"bend":0.0,"ch":10,"track":15},{"t":3069.798,"dur":0.942,"note":59,"inst":"celesta_v0_additive_3","vel":0.213,"bend":0.0,"ch":11,"track":15},{"t":3069.824,"dur":0.274,"note":55,"inst":"celesta_v0_additive_3","vel":0.189,"bend":0.0,"ch":7,"track":15},{"t":3070.008,"dur":0.075,"note":64,"inst":"piano_v0_additive_0","vel":0.236,"bend":0.0,"ch":0,"track":15},{"t":3070.131,"dur":0.153,"note":69,"inst":"organ_v0_additive_1","vel":0.331,"bend":0.0,"ch":5,"track":15},{"t":3070.234,"dur":0.255,"note":71,"inst":"celesta_v0_additive_3","vel":0.433,"bend":0.0,"ch":7,"track":15},{"t":3070.436,"dur":0.316,"note":66,"inst":"harpsichord_v0_additive_2","vel":0.425,"bend":0.0,"ch":2,"track":15},{"t":3070.464,"dur":0.261,"note":42,"inst":"harpsichord_v0_additive_2","vel":0.268,"bend":0.0,"ch":10,"track":15},{"t":3070.639,"dur":0.059,"note":54,"inst":"harpsichord_v0_additive_2","vel":0.315,"bend":0.0,"ch":6,"track":15},{"t":3070.741,"dur":0.161,"note":69,"inst":"organ_v0_additive_1","vel":0.417,"bend":0.0,"ch":5,"track":15},{"t":3070.823,"dur":0.248,"note":71,"inst":"celesta_v0_additive_3","vel":0.543,"bend":0.0,"ch":7,"track":15},{"t":3070.97,"dur":0.088,"note":76,"inst":"piano_v0_additive_0","vel":0.457,"bend":0.0,"ch":12,"track":15},{"t":3071.006,"dur":0.545,"note":74,"inst":"harpsichord_v0_additive_2","vel":0.496,"bend":0.0,"ch":10,"track":15},{"t":3071.037,"dur":0.57,"note":59,"inst":"celesta_v0_additive_3","vel":0.268,"bend":0.0,"ch":11,"track":15},{"t":3071.04,"dur":0.151,"note":55,"inst":"celesta_v0_additive_3","vel":0.268,"bend":0.0,"ch":7,"track":15},{"t":3071.169,"dur":0.073,"note":64,"inst":"piano_v0_additive_0","vel":0.37,"bend":0.0,"ch":0,"track":15},{"t":3071.275,"dur":0.147,"note":69,"inst":"organ_v0_additive_1","vel":0.504,"bend":0.0,"ch":5,"track":15},{"t":3071.363,"dur":0.227,"note":71,"inst":"celesta_v0_additive_3","vel":0.583,"bend":0.0,"ch":7,"track":15},{"t":3071.489,"dur":0.198,"note":66,"inst":"harpsichord_v0_additive_2","vel":0.591,"bend":0.0,"ch":2,"track":15},{"t":3071.499,"dur":0.12,"note":42,"inst":"harpsichord_v0_additive_2","vel":0.37,"bend":0.0,"ch":10,"track":15},{"t":3071.636,"dur":0.039,"note":54,"inst":"harpsichord_v0_additive_2","vel":0.409,"bend":0.0,"ch":6,"track":15},{"t":3071.736,"dur":0.203,"note":69,"inst":"organ_v0_additive_1","vel":0.465,"bend":0.0,"ch":5,"track":15},{"t":3071.815,"dur":0.198,"note":66,"inst":"harpsichord_v0_additive_2","vel":0.598,"bend":0.0,"ch":2,"track":15},{"t":3071.939,"dur":0.224,"note":78,"inst":"harpsichord_v0_additive_2","vel":0.567,"bend":0.0,"ch":14,"track":15},{"t":3071.988,"dur":0.099,"note":59,"inst":"celesta_v0_additive_3","vel":0.299,"bend":0.0,"ch":11,"track":15},{"t":3071.993,"dur":0.656,"note":62,"inst":"harpsichord_v0_additive_2","vel":0.236,"bend":0.0,"ch":14,"track":15},{"t":3072.11,"dur":0.093,"note":66,"inst":"harpsichord_v0_additive_2","vel":0.362,"bend":0.0,"ch":2,"track":15},{"t":3072.196,"dur":0.196,"note":69,"inst":"organ_v0_additive_1","vel":0.496,"bend":0.0,"ch":5,"track":15},{"t":3072.278,"dur":0.165,"note":78,"inst":"harpsichord_v0_additive_2","vel":0.583,"bend":0.0,"ch":14,"track":15},{"t":3072.406,"dur":0.191,"note":79,"inst":"celesta_v0_additive_3","vel":0.638,"bend":0.0,"ch":15,"track":15},{"t":3072.418,"dur":0.144,"note":57,"inst":"organ_v0_additive_1","vel":0.378,"bend":0.0,"ch":9,"track":15},{"t":3072.547,"dur":0.079,"note":67,"inst":"celesta_v0_additive_3","vel":0.449,"bend":0.0,"ch":3,"track":15},{"t":3072.639,"dur":0.185,"note":69,"inst":"organ_v0_additive_1","vel":0.496,"bend":0.0,"ch":5,"track":15},{"t":3072.731,"dur":0.184,"note":79,"inst":"celesta_v0_additive_3","vel":0.583,"bend":0.0,"ch":15,"track":15},{"t":3072.878,"dur":0.222,"note":81,"inst":"organ_v0_additive_1","vel":0.591,"bend":0.0,"ch":1,"track":15},{"t":3072.904,"dur":0.109,"note":57,"inst":"organ_v0_additive_1","vel":0.315,"bend":0.0,"ch":9,"track":15},{"t":3072.912,"dur":0.846,"note":62,"inst":"harpsichord_v0_additive_2","vel":0.283,"bend":0.0,"ch":14,"track":15},{"t":3073.044,"dur":0.059,"note":66,"inst":"harpsichord_v0_additive_2","vel":0.378,"bend":0.0,"ch":2,"track":15},{"t":3073.153,"dur":0.143,"note":71,"inst":"celesta_v0_additive_3","vel":0.465,"bend":0.0,"ch":7,"track":15},{"t":3073.248,"dur":0.223,"note":81,"inst":"organ_v0_additive_1","vel":0.575,"bend":0.0,"ch":1,"track":15},{"t":3073.439,"dur":0.273,"note":81,"inst":"organ_v0_additive_1","vel":0.583,"bend":0.0,"ch":1,"track":15},{"t":3073.469,"dur":0.261,"note":55,"inst":"celesta_v0_additive_3","vel":0.299,"bend":0.0,"ch":7,"track":15},{"t":3073.653,"dur":0.187,"note":67,"inst":"celesta_v0_additive_3","vel":0.37,"bend":0.0,"ch":3,"track":15},{"t":3073.757,"dur":0.17,"note":69,"inst":"organ_v0_additive_1","vel":0.441,"bend":0.0,"ch":5,"track":15},{"t":3073.844,"dur":0.354,"note":74,"inst":"harpsichord_v0_additive_2","vel":0.567,"bend":0.0,"ch":10,"track":15},{"t":3074.04,"dur":0.127,"note":66,"inst":"harpsichord_v0_additive_2","vel":0.512,"bend":0.0,"ch":2,"track":15},{"t":3074.083,"dur":0.523,"note":74,"inst":"harpsichord_v0_additive_2","vel":0.535,"bend":0.0,"ch":10,"track":15},{"t":3074.133,"dur":0.251,"note":59,"inst":"celesta_v0_additive_3","vel":0.291,"bend":0.0,"ch":11,"track":15},{"t":3074.154,"dur":0.814,"note":62,"inst":"harpsichord_v0_additive_2","vel":0.22,"bend":0.0,"ch":14,"track":15},{"t":3074.333,"dur":0.171,"note":66,"inst":"harpsichord_v0_additive_2","vel":0.323,"bend":0.0,"ch":2,"track":15},{"t":3074.434,"dur":0.189,"note":69,"inst":"organ_v0_additive_1","vel":0.409,"bend":0.0,"ch":5,"track":15},{"t":3074.524,"dur":0.24,"note":74,"inst":"harpsichord_v0_additive_2","vel":0.535,"bend":0.0,"ch":10,"track":15},{"t":3074.692,"dur":0.275,"note":79,"inst":"celesta_v0_additive_3","vel":0.575,"bend":0.0,"ch":15,"track":15},{"t":3074.727,"dur":0.224,"note":57,"inst":"organ_v0_additive_1","vel":0.268,"bend":0.0,"ch":9,"track":15},{"t":3074.876,"dur":0.09,"note":67,"inst":"celesta_v0_additive_3","vel":0.37,"bend":0.0,"ch":3,"track":15},{"t":3074.944,"dur":0.129,"note":69,"inst":"organ_v0_additive_1","vel":0.496,"bend":0.0,"ch":5,"track":15},{"t":3075.014,"dur":0.234,"note":74,"inst":"harpsichord_v0_additive_2","vel":0.575,"bend":0.0,"ch":10,"track":15},{"t":3075.137,"dur":0.093,"note":66,"inst":"harpsichord_v0_additive_2","vel":0.551,"bend":0.0,"ch":2,"track":15},{"t":3075.174,"dur":0.49,"note":74,"inst":"harpsichord_v0_additive_2","vel":0.583,"bend":0.0,"ch":10,"track":15},{"t":3075.204,"dur":0.632,"note":62,"inst":"harpsichord_v0_additive_2","vel":0.307,"bend":0.0,"ch":14,"track":15},{"t":3075.207,"dur":0.141,"note":59,"inst":"celesta_v0_additive_3","vel":0.323,"bend":0.0,"ch":11,"track":15},{"t":3075.338,"dur":0.149,"note":66,"inst":"harpsichord_v0_additive_2","vel":0.386,"bend":0.0,"ch":2,"track":15},{"t":3075.417,"dur":0.148,"note":69,"inst":"organ_v0_additive_1","vel":0.52,"bend":0.0,"ch":5,"track":15},{"t":3075.502,"dur":0.201,"note":74,"inst":"harpsichord_v0_additive_2","vel":0.606,"bend":0.0,"ch":10,"track":15},{"t":3075.622,"dur":0.205,"note":79,"inst":"celesta_v0_additive_3","vel":0.63,"bend":0.0,"ch":15,"track":15},{"t":3075.64,"dur":0.145,"note":57,"inst":"organ_v0_additive_1","vel":0.402,"bend":0.0,"ch":9,"track":15},{"t":3075.766,"dur":0.104,"note":67,"inst":"celesta_v0_additive_3","vel":0.496,"bend":0.0,"ch":3,"track":15},{"t":3075.849,"dur":0.178,"note":69,"inst":"organ_v0_additive_1","vel":0.528,"bend":0.0,"ch":5,"track":15},{"t":3075.94,"dur":0.18,"note":79,"inst":"celesta_v0_additive_3","vel":0.654,"bend":0.0,"ch":15,"track":15},{"t":3076.074,"dur":0.221,"note":81,"inst":"organ_v0_additive_1","vel":0.622,"bend":0.0,"ch":1,"track":15},{"t":3076.099,"dur":0.641,"note":62,"inst":"harpsichord_v0_additive_2","vel":0.26,"bend":0.0,"ch":14,"track":15},{"t":3076.1,"dur":0.101,"note":57,"inst":"organ_v0_additive_1","vel":0.346,"bend":0.0,"ch":9,"track":15},{"t":3076.23,"dur":0.069,"note":66,"inst":"harpsichord_v0_additive_2","vel":0.433,"bend":0.0,"ch":2,"track":15},{"t":3076.323,"dur":0.138,"note":71,"inst":"celesta_v0_additive_3","vel":0.535,"bend":0.0,"ch":7,"track":15},{"t":3076.398,"dur":0.164,"note":81,"inst":"organ_v0_additive_1","vel":0.654,"bend":0.0,"ch":1,"track":15},{"t":3076.532,"dur":0.244,"note":81,"inst":"organ_v0_additive_1","vel":0.614,"bend":0.0,"ch":1,"track":15},{"t":3076.552,"dur":0.189,"note":55,"inst":"celesta_v0_additive_3","vel":0.37,"bend":0.0,"ch":7,"track":15},{"t":3076.712,"dur":0.137,"note":67,"inst":"celesta_v0_additive_3","vel":0.362,"bend":0.0,"ch":3,"track":15},{"t":3076.806,"dur":0.095,"note":69,"inst":"organ_v0_additive_1","vel":0.496,"bend":0.0,"ch":5,"track":15},{"t":3076.888,"dur":0.182,"note":81,"inst":"organ_v0_additive_1","vel":0.591,"bend":0.0,"ch":1,"track":15},{"t":3077.033,"dur":0.271,"note":83,"inst":"celesta_v0_additive_3","vel":0.63,"bend":0.0,"ch":3,"track":15},{"t":3077.061,"dur":0.177,"note":42,"inst":"harpsichord_v0_additive_2","vel":0.315,"bend":0.0,"ch":10,"track":15},{"t":3077.067,"dur":0.191,"note":62,"inst":"harpsichord_v0_additive_2","vel":0.299,"bend":0.0,"ch":14,"track":15},{"t":3077.216,"dur":0.161,"note":67,"inst":"celesta_v0_additive_3","vel":0.409,"bend":0.0,"ch":3,"track":15},{"t":3077.326,"dur":0.167,"note":71,"inst":"celesta_v0_additive_3","vel":0.52,"bend":0.0,"ch":7,"track":15},{"t":3077.423,"dur":0.207,"note":83,"inst":"celesta_v0_additive_3","vel":0.606,"bend":0.0,"ch":3,"track":15},{"t":3077.595,"dur":0.215,"note":83,"inst":"celesta_v0_additive_3","vel":0.606,"bend":0.0,"ch":3,"track":15},{"t":3077.632,"dur":0.238,"note":52,"inst":"piano_v0_additive_0","vel":0.315,"bend":0.0,"ch":4,"track":15},{"t":3077.662,"dur":0.291,"note":59,"inst":"celesta_v0_additive_3","vel":0.26,"bend":0.0,"ch":11,"track":15},{"t":3077.781,"dur":0.114,"note":67,"inst":"celesta_v0_additive_3","vel":0.394,"bend":0.0,"ch":3,"track":15},{"t":3077.875,"dur":0.116,"note":69,"inst":"organ_v0_additive_1","vel":0.48,"bend":0.0,"ch":5,"track":15},{"t":3077.97,"dur":0.281,"note":71,"inst":"celesta_v0_additive_3","vel":0.598,"bend":0.0,"ch":7,"track":15},{"t":3078.132,"dur":0.1,"note":76,"inst":"piano_v0_additive_0","vel":0.535,"bend":0.0,"ch":12,"track":15},{"t":3078.173,"dur":0.487,"note":74,"inst":"harpsichord_v0_additive_2","vel":0.543,"bend":0.0,"ch":10,"track":15},{"t":3078.191,"dur":0.212,"note":55,"inst":"celesta_v0_additive_3","vel":0.299,"bend":0.0,"ch":7,"track":15},{"t":3078.207,"dur":0.637,"note":59,"inst":"celesta_v0_additive_3","vel":0.26,"bend":0.0,"ch":11,"track":15},{"t":3078.343,"dur":0.081,"note":64,"inst":"piano_v0_additive_0","vel":0.425,"bend":0.0,"ch":0,"track":15},{"t":3078.436,"dur":0.125,"note":69,"inst":"organ_v0_additive_1","vel":0.504,"bend":0.0,"ch":5,"track":15},{"t":3078.527,"dur":0.211,"note":71,"inst":"celesta_v0_additive_3","vel":0.583,"bend":0.0,"ch":7,"track":15},{"t":3078.675,"dur":0.221,"note":66,"inst":"harpsichord_v0_additive_2","vel":0.567,"bend":0.0,"ch":2,"track":15},{"t":3078.681,"dur":0.164,"note":42,"inst":"harpsichord_v0_additive_2","vel":0.346,"bend":0.0,"ch":10,"track":15},{"t":3078.796,"dur":0.047,"note":54,"inst":"harpsichord_v0_additive_2","vel":0.37,"bend":0.0,"ch":6,"track":15},{"t":3078.922,"dur":0.131,"note":69,"inst":"organ_v0_additive_1","vel":0.449,"bend":0.0,"ch":5,"track":15},{"t":3079.028,"dur":0.229,"note":66,"inst":"harpsichord_v0_additive_2","vel":0.48,"bend":0.0,"ch":2,"track":15},{"t":3079.19,"dur":0.288,"note":71,"inst":"celesta_v0_additive_3","vel":0.512,"bend":0.0,"ch":7,"track":15},{"t":3079.243,"dur":0.298,"note":45,"inst":"organ_v0_additive_1","vel":0.394,"bend":0.0,"ch":13,"track":15},{"t":3079.286,"dur":1.259,"note":42,"inst":"harpsichord_v0_additive_2","vel":0.354,"bend":0.0,"ch":10,"track":15},{"t":3079.444,"dur":0.093,"note":59,"inst":"celesta_v0_additive_3","vel":0.386,"bend":0.0,"ch":11,"track":15},{"t":3079.552,"dur":0.174,"note":54,"inst":"harpsichord_v0_additive_2","vel":0.457,"bend":0.0,"ch":6,"track":15},{"t":3079.634,"dur":0.216,"note":71,"inst":"celesta_v0_additive_3","vel":0.496,"bend":0.0,"ch":7,"track":15},{"t":3079.781,"dur":0.256,"note":74,"inst":"harpsichord_v0_additive_2","vel":0.512,"bend":0.0,"ch":10,"track":15},{"t":3079.828,"dur":0.219,"note":45,"inst":"organ_v0_additive_1","vel":0.488,"bend":0.0,"ch":13,"track":15},{"t":3079.985,"dur":0.068,"note":62,"inst":"harpsichord_v0_additive_2","vel":0.394,"bend":0.0,"ch":14,"track":15},{"t":3080.094,"dur":0.154,"note":54,"inst":"harpsichord_v0_additive_2","vel":0.441,"bend":0.0,"ch":6,"track":15},{"t":3080.173,"dur":0.179,"note":74,"inst":"harpsichord_v0_additive_2","vel":0.512,"bend":0.0,"ch":10,"track":15},{"t":3080.292,"dur":0.187,"note":69,"inst":"organ_v0_additive_1","vel":0.528,"bend":0.0,"ch":5,"track":15},{"t":3080.302,"dur":0.165,"note":43,"inst":"celesta_v0_additive_3","vel":0.488,"bend":0.0,"ch":11,"track":15},{"t":3080.449,"dur":0.125,"note":57,"inst":"organ_v0_additive_1","vel":0.37,"bend":0.0,"ch":9,"track":15},{"t":3080.544,"dur":0.172,"note":54,"inst":"harpsichord_v0_additive_2","vel":0.488,"bend":0.0,"ch":6,"track":15},{"t":3080.631,"dur":0.205,"note":69,"inst":"organ_v0_additive_1","vel":0.528,"bend":0.0,"ch":5,"track":15},{"t":3080.762,"dur":0.222,"note":67,"inst":"celesta_v0_additive_3","vel":0.543,"bend":0.0,"ch":3,"track":15},{"t":3080.789,"dur":0.193,"note":42,"inst":"harpsichord_v0_additive_2","vel":0.346,"bend":0.0,"ch":10,"track":15},{"t":3080.795,"dur":0.214,"note":47,"inst":"celesta_v0_additive_3","vel":0.362,"bend":0.0,"ch":15,"track":15},{"t":3080.926,"dur":0.117,"note":57,"inst":"organ_v0_additive_1","vel":0.378,"bend":0.0,"ch":9,"track":15},{"t":3081.04,"dur":0.153,"note":54,"inst":"harpsichord_v0_additive_2","vel":0.449,"bend":0.0,"ch":6,"track":15},{"t":3081.132,"dur":0.231,"note":67,"inst":"celesta_v0_additive_3","vel":0.551,"bend":0.0,"ch":3,"track":15},{"t":3081.288,"dur":0.29,"note":71,"inst":"celesta_v0_additive_3","vel":0.52,"bend":0.0,"ch":7,"track":15},{"t":3081.314,"dur":0.186,"note":52,"inst":"piano_v0_additive_0","vel":0.323,"bend":0.0,"ch":4,"track":15},{"t":3081.322,"dur":0.174,"note":47,"inst":"celesta_v0_additive_3","vel":0.323,"bend":0.0,"ch":15,"track":15},{"t":3081.476,"dur":0.157,"note":57,"inst":"organ_v0_additive_1","vel":0.362,"bend":0.0,"ch":9,"track":15},{"t":3081.615,"dur":0.114,"note":64,"inst":"piano_v0_additive_0","vel":0.402,"bend":0.0,"ch":0,"track":15},{"t":3081.702,"dur":0.245,"note":71,"inst":"celesta_v0_additive_3","vel":0.465,"bend":0.0,"ch":7,"track":15},{"t":3081.885,"dur":0.239,"note":69,"inst":"organ_v0_additive_1","vel":0.449,"bend":0.0,"ch":5,"track":15},{"t":3081.937,"dur":0.185,"note":30,"inst":"harpsichord_v0_additive_2","vel":0.354,"bend":0.0,"ch":14,"track":15},{"t":3081.965,"dur":0.186,"note":47,"inst":"celesta_v0_additive_3","vel":0.283,"bend":0.0,"ch":15,"track":15},{"t":3082.14,"dur":0.104,"note":57,"inst":"organ_v0_additive_1","vel":0.307,"bend":0.0,"ch":9,"track":15},{"t":3082.244,"dur":0.105,"note":54,"inst":"harpsichord_v0_additive_2","vel":0.362,"bend":0.0,"ch":6,"track":15},{"t":3082.326,"dur":0.348,"note":71,"inst":"celesta_v0_additive_3","vel":0.543,"bend":0.0,"ch":7,"track":15},{"t":3082.527,"dur":0.124,"note":76,"inst":"piano_v0_additive_0","vel":0.52,"bend":0.0,"ch":12,"track":15},{"t":3082.567,"dur":0.593,"note":74,"inst":"harpsichord_v0_additive_2","vel":0.543,"bend":0.0,"ch":10,"track":15},{"t":3082.659,"dur":0.179,"note":55,"inst":"celesta_v0_additive_3","vel":0.244,"bend":0.0,"ch":7,"track":15},{"t":3082.666,"dur":0.63,"note":59,"inst":"celesta_v0_additive_3","vel":0.244,"bend":0.0,"ch":11,"track":15},{"t":3082.809,"dur":0.07,"note":64,"inst":"piano_v0_additive_0","vel":0.354,"bend":0.0,"ch":0,"track":15},{"t":3082.887,"dur":0.145,"note":69,"inst":"organ_v0_additive_1","vel":0.472,"bend":0.0,"ch":5,"track":15},{"t":3082.977,"dur":0.238,"note":71,"inst":"celesta_v0_additive_3","vel":0.63,"bend":0.0,"ch":7,"track":15},{"t":3083.12,"dur":0.239,"note":66,"inst":"harpsichord_v0_additive_2","vel":0.638,"bend":0.0,"ch":2,"track":15},{"t":3083.151,"dur":0.131,"note":42,"inst":"harpsichord_v0_additive_2","vel":0.283,"bend":0.0,"ch":10,"track":15},{"t":3083.285,"dur":0.03,"note":54,"inst":"harpsichord_v0_additive_2","vel":0.394,"bend":0.0,"ch":6,"track":15},{"t":3083.377,"dur":0.135,"note":69,"inst":"organ_v0_additive_1","vel":0.551,"bend":0.0,"ch":5,"track":15},{"t":3083.468,"dur":0.203,"note":66,"inst":"harpsichord_v0_additive_2","vel":0.654,"bend":0.0,"ch":2,"track":15},{"t":3083.606,"dur":0.285,"note":71,"inst":"celesta_v0_additive_3","vel":0.622,"bend":0.0,"ch":7,"track":15},{"t":3083.674,"dur":0.213,"note":45,"inst":"organ_v0_additive_1","vel":0.283,"bend":0.0,"ch":13,"track":15},{"t":3083.676,"dur":1.434,"note":42,"inst":"harpsichord_v0_additive_2","vel":0.299,"bend":0.0,"ch":10,"track":15},{"t":3083.819,"dur":0.068,"note":59,"inst":"celesta_v0_additive_3","vel":0.339,"bend":0.0,"ch":11,"track":15},{"t":3085.241,"dur":0.505,"note":31,"inst":"celesta_v0_additive_3","vel":1.0,"bend":0.0,"ch":15,"track":16},{"t":3085.241,"dur":0.252,"note":63,"inst":"celesta_v0_additive_3","vel":1.0,"bend":0.0,"ch":15,"track":16},{"t":3085.494,"dur":0.252,"note":55,"inst":"celesta_v0_additive_3","vel":1.0,"bend":0.0,"ch":7,"track":16},{"t":3085.746,"dur":0.505,"note":36,"inst":"piano_v0_additive_0","vel":1.0,"bend":0.0,"ch":4,"track":16},{"t":3085.746,"dur":0.505,"note":60,"inst":"piano_v0_additive_0","vel":1.0,"bend":0.0,"ch":12,"track":16},{"t":3086.251,"dur":0.252,"note":72,"inst":"piano_v0_additive_0","vel":1.0,"bend":0.0,"ch":8,"track":16},{"t":3086.503,"dur":0.084,"note":72,"inst":"piano_v0_additive_0","vel":1.0,"bend":0.0,"ch":8,"track":16},{"t":3086.587,"dur":0.084,"note":75,"inst":"celesta_v0_additive_3","vel":1.0,"bend":0.0,"ch":11,"track":16},{"t":3086.671,"dur":0.084,"note":72,"inst":"piano_v0_additive_0","vel":1.0,"bend":0.0,"ch":8,"track":16},{"t":3086.755,"dur":0.505,"note":31,"inst":"celesta_v0_additive_3","vel":1.0,"bend":0.0,"ch":15,"track":16},{"t":3086.755,"dur":0.252,"note":72,"inst":"piano_v0_additive_0","vel":1.0,"bend":0.0,"ch":8,"track":16},{"t":3087.007,"dur":0.252,"note":77,"inst":"organ_v0_additive_1","vel":1.0,"bend":0.0,"ch":13,"track":16},{"t":3087.26,"dur":0.505,"note":27,"inst":"celesta_v0_additive_3","vel":1.0,"bend":0.0,"ch":11,"track":16},{"t":3087.26,"dur":0.252,"note":75,"inst":"celesta_v0_additive_3","vel":1.0,"bend":0.0,"ch":11,"track":16},{"t":3087.512,"dur":0.084,"note":70,"inst":"harpsichord_v0_additive_2","vel":1.0,"bend":0.0,"ch":6,"track":16},{"t":3087.596,"dur":0.084,"note":72,"inst":"piano_v0_additive_0","vel":1.0,"bend":0.0,"ch":8,"track":16},{"t":3087.68,"dur":0.084,"note":70,"inst":"harpsichord_v0_additive_2","vel":1.0,"bend":0.0,"ch":6,"track":16},{"t":3087.764,"dur":0.505,"note":31,"inst":"celesta_v0_additive_3","vel":1.0,"bend":0.0,"ch":15,"track":16},{"t":3087.764,"dur":0.252,"note":67,"inst":"celesta_v0_additive_3","vel":1.0,"bend":0.0,"ch":3,"track":16},{"t":3088.016,"dur":0.252,"note":72,"inst":"piano_v0_additive_0","vel":1.0,"bend":0.0,"ch":8,"track":16},{"t":3088.269,"dur":0.505,"note":27,"inst":"celesta_v0_additive_3","vel":1.0,"bend":0.0,"ch":11,"track":16},{"t":3088.269,"dur":0.252,"note":72,"inst":"piano_v0_additive_0","vel":1.0,"bend":0.0,"ch":8,"track":16},{"t":3088.521,"dur":0.252,"note":67,"inst":"celesta_v0_additive_3","vel":1.0,"bend":0.0,"ch":3,"track":16},{"t":3088.773,"dur":0.505,"note":31,"inst":"celesta_v0_additive_3","vel":1.0,"bend":0.0,"ch":15,"track":16},{"t":3088.773,"dur":0.126,"note":63,"inst":"celesta_v0_additive_3","vel":1.0,"bend":0.0,"ch":15,"track":16},{"t":3088.899,"dur":0.126,"note":60,"inst":"piano_v0_additive_0","vel":1.0,"bend":0.0,"ch":12,"track":16},{"t":3089.026,"dur":0.126,"note":63,"inst":"celesta_v0_additive_3","vel":1.0,"bend":0.0,"ch":15,"track":16},{"t":3169.182,"dur":1.485,"note":41,"inst":"organ_v0_additive_1","vel":0.717,"bend":0.0,"ch":9,"track":16},{"t":3169.182,"dur":1.485,"note":53,"inst":"organ_v0_additive_1","vel":0.717,"bend":0.0,"ch":5,"track":16},{"t":3169.182,"dur":0.495,"note":68,"inst":"piano_v0_additive_0","vel":0.638,"bend":0.0,"ch":4,"track":16},{"t":3169.182,"dur":0.495,"note":80,"inst":"piano_v0_additive_0","vel":0.638,"bend":0.0,"ch":0,"track":16},{"t":3169.677,"dur":0.495,"note":70,"inst":"harpsichord_v0_additive_2","vel":0.583,"bend":0.0,"ch":6,"track":16},{"t":3169.677,"dur":0.495,"note":82,"inst":"harpsichord_v0_additive_2","vel":0.583,"bend":0.0,"ch":2,"track":16},{"t":3170.172,"dur":2.475,"note":71,"inst":"celesta_v0_additive_3","vel":0.63,"bend":0.0,"ch":7,"track":16},{"t":3170.172,"dur":2.475,"note":83,"inst":"celesta_v0_additive_3","vel":0.63,"bend":0.0,"ch":3,"track":16},{"t":3170.667,"dur":0.495,"note":56,"inst":"piano_v0_additive_0","vel":0.811,"bend":0.0,"ch":8,"track":16},{"t":3170.667,"dur":0.495,"note":68,"inst":"piano_v0_additive_0","vel":0.811,"bend":0.0,"ch":4,"track":16},{"t":3171.162,"dur":0.495,"note":53,"inst":"organ_v0_additive_1","vel":0.567,"bend":0.0,"ch":5,"track":16},{"t":3171.162,"dur":0.495,"note":65,"inst":"organ_v0_additive_1","vel":0.567,"bend":0.0,"ch":1,"track":16},{"t":3171.657,"dur":0.495,"note":47,"inst":"celesta_v0_additive_3","vel":0.488,"bend":0.0,"ch":15,"track":16},{"t":3171.657,"dur":0.495,"note":59,"inst":"celesta_v0_additive_3","vel":0.488,"bend":0.0,"ch":11,"track":16},{"t":3172.151,"dur":0.495,"note":44,"inst":"piano_v0_additive_0","vel":0.52,"bend":0.0,"ch":12,"track":16},{"t":3172.151,"dur":0.495,"note":56,"inst":"piano_v0_additive_0","vel":0.52,"bend":0.0,"ch":8,"track":16},{"t":3172.646,"dur":0.495,"note":41,"inst":"organ_v0_additive_1","vel":0.551,"bend":0.0,"ch":9,"track":16},{"t":3172.646,"dur":0.495,"note":53,"inst":"organ_v0_additive_1","vel":0.551,"bend":0.0,"ch":5,"track":16},{"t":3172.646,"dur":0.247,"note":68,"inst":"piano_v0_additive_0","vel":0.528,"bend":0.0,"ch":4,"track":16},{"t":3172.646,"dur":0.247,"note":80,"inst":"piano_v0_additive_0","vel":0.528,"bend":0.0,"ch":0,"track":16},{"t":3172.894,"dur":0.247,"note":70,"inst":"harpsichord_v0_additive_2","vel":0.646,"bend":0.0,"ch":6,"track":16},{"t":3172.894,"dur":0.247,"note":82,"inst":"harpsichord_v0_additive_2","vel":0.646,"bend":0.0,"ch":2,"track":16},{"t":3173.141,"dur":0.124,"note":41,"inst":"organ_v0_additive_1","vel":0.528,"bend":0.0,"ch":9,"track":16},{"t":3173.141,"dur":1.98,"note":71,"inst":"celesta_v0_additive_3","vel":0.654,"bend":0.0,"ch":7,"track":16},{"t":3173.141,"dur":1.98,"note":77,"inst":"organ_v0_additive_1","vel":0.654,"bend":0.0,"ch":13,"track":16},{"t":3173.141,"dur":1.98,"note":80,"inst":"piano_v0_additive_0","vel":0.654,"bend":0.0,"ch":0,"track":16},{"t":3173.141,"dur":1.98,"note":83,"inst":"celesta_v0_additive_3","vel":0.654,"bend":0.0,"ch":3,"track":16},{"t":3173.265,"dur":0.124,"note":53,"inst":"organ_v0_additive_1","vel":0.724,"bend":0.0,"ch":5,"track":16},{"t":3173.389,"dur":0.124,"note":41,"inst":"organ_v0_additive_1","vel":0.551,"bend":0.0,"ch":9,"track":16},{"t":3173.513,"dur":0.124,"note":53,"inst":"organ_v0_additive_1","vel":0.78,"bend":0.0,"ch":5,"track":16},{"t":3173.636,"dur":0.124,"note":41,"inst":"organ_v0_additive_1","vel":0.551,"bend":0.0,"ch":9,"track":16},{"t":3173.76,"dur":0.124,"note":53,"inst":"organ_v0_additive_1","vel":0.78,"bend":0.0,"ch":5,"track":16},{"t":3173.884,"dur":0.124,"note":41,"inst":"organ_v0_additive_1","vel":0.551,"bend":0.0,"ch":9,"track":16},{"t":3174.008,"dur":0.124,"note":53,"inst":"organ_v0_additive_1","vel":0.772,"bend":0.0,"ch":5,"track":16},{"t":3174.131,"dur":0.124,"note":41,"inst":"organ_v0_additive_1","vel":0.551,"bend":0.0,"ch":9,"track":16},{"t":3174.255,"dur":0.124,"note":53,"inst":"organ_v0_additive_1","vel":0.795,"bend":0.0,"ch":5,"track":16},{"t":3174.379,"dur":0.124,"note":41,"inst":"organ_v0_additive_1","vel":0.551,"bend":0.0,"ch":9,"track":16},{"t":3174.503,"dur":0.124,"note":53,"inst":"organ_v0_additive_1","vel":0.78,"bend":0.0,"ch":5,"track":16},{"t":3174.626,"dur":0.124,"note":41,"inst":"organ_v0_additive_1","vel":0.575,"bend":0.0,"ch":9,"track":16},{"t":3174.75,"dur":0.124,"note":53,"inst":"organ_v0_additive_1","vel":0.756,"bend":0.0,"ch":5,"track":16},{"t":3174.874,"dur":0.124,"note":41,"inst":"organ_v0_additive_1","vel":0.543,"bend":0.0,"ch":9,"track":16},{"t":3174.998,"dur":0.124,"note":53,"inst":"organ_v0_additive_1","vel":0.764,"bend":0.0,"ch":5,"track":16},{"t":3253.371,"dur":0.166,"note":49,"inst":"organ_v0_additive_1","vel":0.709,"bend":0.0,"ch":1,"track":16},{"t":3253.371,"dur":0.166,"note":49,"inst":"organ_v0_additive_1","vel":0.709,"bend":0.0,"ch":1,"track":16},{"t":3253.537,"dur":0.166,"note":48,"inst":"piano_v0_additive_0","vel":0.709,"bend":0.0,"ch":0,"track":16},{"t":3253.537,"dur":0.166,"note":48,"inst":"piano_v0_additive_0","vel":0.709,"bend":0.0,"ch":0,"track":16},{"t":3253.703,"dur":0.332,"note":46,"inst":"harpsichord_v0_additive_2","vel":0.709,"bend":0.0,"ch":14,"track":16},{"t":3253.703,"dur":0.332,"note":46,"inst":"harpsichord_v0_additive_2","vel":0.709,"bend":0.0,"ch":14,"track":16},{"t":3253.703,"dur":0.332,"note":73,"inst":"organ_v0_additive_1","vel":0.709,"bend":0.0,"ch":9,"track":16},{"t":3254.035,"dur":0.332,"note":48,"inst":"piano_v0_additive_0","vel":0.709,"bend":0.0,"ch":0,"track":16},{"t":3254.035,"dur":0.332,"note":48,"inst":"piano_v0_additive_0","vel":0.709,"bend":0.0,"ch":0,"track":16},{"t":3254.035,"dur":0.664,"note":66,"inst":"harpsichord_v0_additive_2","vel":0.709,"bend":0.0,"ch":2,"track":16},{"t":3254.367,"dur":0.332,"note":36,"inst":"piano_v0_additive_0","vel":0.709,"bend":0.0,"ch":4,"track":16},{"t":3254.367,"dur":0.332,"note":42,"inst":"harpsichord_v0_additive_2","vel":0.709,"bend":0.0,"ch":10,"track":16},{"t":3254.367,"dur":0.997,"note":64,"inst":"piano_v0_additive_0","vel":0.709,"bend":0.0,"ch":0,"track":16},{"t":3254.7,"dur":0.332,"note":48,"inst":"piano_v0_additive_0","vel":0.709,"bend":0.0,"ch":0,"track":16},{"t":3254.7,"dur":0.332,"note":48,"inst":"piano_v0_additive_0","vel":0.709,"bend":0.0,"ch":0,"track":16},{"t":3254.7,"dur":0.332,"note":64,"inst":"piano_v0_additive_0","vel":0.709,"bend":0.0,"ch":0,"track":16},{"t":3255.032,"dur":0.332,"note":41,"inst":"organ_v0_additive_1","vel":0.709,"bend":0.0,"ch":9,"track":16},{"t":3255.032,"dur":0.332,"note":41,"inst":"organ_v0_additive_1","vel":0.709,"bend":0.0,"ch":9,"track":16},{"t":3255.032,"dur":0.997,"note":69,"inst":"organ_v0_additive_1","vel":0.709,"bend":0.0,"ch":5,"track":16},{"t":3255.364,"dur":0.332,"note":46,"inst":"harpsichord_v0_additive_2","vel":0.709,"bend":0.0,"ch":14,"track":16},{"t":3255.364,"dur":0.332,"note":46,"inst":"harpsichord_v0_additive_2","vel":0.709,"bend":0.0,"ch":14,"track":16},{"t":3255.364,"dur":0.997,"note":61,"inst":"organ_v0_additive_1","vel":0.709,"bend":0.0,"ch":13,"track":16},{"t":3255.696,"dur":0.332,"note":34,"inst":"harpsichord_v0_additive_2","vel":0.709,"bend":0.0,"ch":2,"track":16},{"t":3255.696,"dur":0.332,"note":34,"inst":"harpsichord_v0_additive_2","vel":0.709,"bend":0.0,"ch":2,"track":16},{"t":3256.029,"dur":0.664,"note":40,"inst":"piano_v0_additive_0","vel":0.709,"bend":0.0,"ch":8,"track":16},{"t":3256.029,"dur":0.664,"note":40,"inst":"piano_v0_additive_0","vel":0.709,"bend":0.0,"ch":8,"track":16},{"t":3256.029,"dur":0.997,"note":66,"inst":"harpsichord_v0_additive_2","vel":0.709,"bend":0.0,"ch":2,"track":16},{"t":3256.361,"dur":0.332,"note":54,"inst":"harpsichord_v0_additive_2","vel":0.709,"bend":0.0,"ch":6,"track":16},{"t":3256.693,"dur":0.332,"note":45,"inst":"organ_v0_additive_1","vel":0.709,"bend":0.0,"ch":13,"track":16},{"t":3256.693,"dur":0.332,"note":45,"inst":"organ_v0_additive_1","vel":0.709,"bend":0.0,"ch":13,"track":16},{"t":3256.693,"dur":0.664,"note":60,"inst":"piano_v0_additive_0","vel":0.709,"bend":0.0,"ch":12,"track":16},{"t":3257.025,"dur":0.664,"note":37,"inst":"organ_v0_additive_1","vel":0.709,"bend":0.0,"ch":5,"track":16},{"t":3257.025,"dur":0.664,"note":37,"inst":"organ_v0_additive_1","vel":0.709,"bend":0.0,"ch":5,"track":16},{"t":3257.025,"dur":0.997,"note":65,"inst":"organ_v0_additive_1","vel":0.709,"bend":0.0,"ch":1,"track":16},{"t":3257.357,"dur":0.332,"note":53,"inst":"organ_v0_additive_1","vel":0.709,"bend":0.0,"ch":5,"track":16},{"t":3257.69,"dur":0.332,"note":42,"inst":"harpsichord_v0_additive_2","vel":0.709,"bend":0.0,"ch":10,"track":16},{"t":3257.69,"dur":0.332,"note":42,"inst":"harpsichord_v0_additive_2","vel":0.709,"bend":0.0,"ch":10,"track":16},{"t":3257.69,"dur":0.664,"note":58,"inst":"harpsichord_v0_additive_2","vel":0.709,"bend":0.0,"ch":10,"track":16},{"t":3258.022,"dur":0.664,"note":36,"inst":"piano_v0_additive_0","vel":0.709,"bend":0.0,"ch":4,"track":16},{"t":3258.022,"dur":0.664,"note":36,"inst":"piano_v0_additive_0","vel":0.709,"bend":0.0,"ch":4,"track":16},{"t":3258.022,"dur":0.997,"note":64,"inst":"piano_v0_additive_0","vel":0.709,"bend":0.0,"ch":0,"track":16},{"t":3258.354,"dur":0.332,"note":52,"inst":"piano_v0_additive_0","vel":0.709,"bend":0.0,"ch":4,"track":16},{"t":3258.686,"dur":0.332,"note":41,"inst":"organ_v0_additive_1","vel":0.709,"bend":0.0,"ch":9,"track":16},{"t":3258.686,"dur":0.332,"note":41,"inst":"organ_v0_additive_1","vel":0.709,"bend":0.0,"ch":9,"track":16},{"t":3258.686,"dur":0.997,"note":57,"inst":"organ_v0_additive_1","vel":0.709,"bend":0.0,"ch":9,"track":16},{"t":3259.018,"dur":0.664,"note":34,"inst":"harpsichord_v0_additive_2","vel":0.709,"bend":0.0,"ch":2,"track":16},{"t":3259.018,"dur":0.664,"note":34,"inst":"harpsichord_v0_additive_2","vel":0.709,"bend":0.0,"ch":2,"track":16},{"t":3259.018,"dur":0.332,"note":61,"inst":"organ_v0_additive_1","vel":0.709,"bend":0.0,"ch":13,"track":16},{"t":3259.351,"dur":0.332,"note":58,"inst":"harpsichord_v0_additive_2","vel":0.709,"bend":0.0,"ch":10,"track":16},{"t":3259.683,"dur":0.332,"note":36,"inst":"piano_v0_additive_0","vel":0.709,"bend":0.0,"ch":4,"track":16},{"t":3259.683,"dur":0.332,"note":36,"inst":"piano_v0_additive_0","vel":0.709,"bend":0.0,"ch":4,"track":16},{"t":3259.683,"dur":0.664,"note":54,"inst":"harpsichord_v0_additive_2","vel":0.709,"bend":0.0,"ch":6,"track":16},{"t":3259.683,"dur":0.332,"note":64,"inst":"piano_v0_additive_0","vel":0.709,"bend":0.0,"ch":0,"track":16},{"t":3260.015,"dur":0.332,"note":33,"inst":"organ_v0_additive_1","vel":0.709,"bend":0.0,"ch":1,"track":16},{"t":3260.015,"dur":0.332,"note":33,"inst":"organ_v0_additive_1","vel":0.709,"bend":0.0,"ch":1,"track":16},{"t":3260.015,"dur":0.332,"note":52,"inst":"piano_v0_additive_0","vel":0.709,"bend":0.0,"ch":4,"track":16},{"t":3260.347,"dur":0.664,"note":34,"inst":"harpsichord_v0_additive_2","vel":0.709,"bend":0.0,"ch":2,"track":16},{"t":3260.347,"dur":0.664,"note":34,"inst":"harpsichord_v0_additive_2","vel":0.709,"bend":0.0,"ch":2,"track":16},{"t":3260.347,"dur":0.498,"note":52,"inst":"piano_v0_additive_0","vel":0.709,"bend":0.0,"ch":4,"track":16},{"t":3260.347,"dur":0.664,"note":53,"inst":"organ_v0_additive_1","vel":0.709,"bend":0.0,"ch":5,"track":16},{"t":3260.846,"dur":0.166,"note":49,"inst":"organ_v0_additive_1","vel":0.709,"bend":0.0,"ch":1,"track":16},{"t":3261.012,"dur":0.332,"note":40,"inst":"piano_v0_additive_0","vel":0.709,"bend":0.0,"ch":8,"track":16},{"t":3261.012,"dur":0.332,"note":40,"inst":"piano_v0_additive_0","vel":0.709,"bend":0.0,"ch":8,"track":16},{"t":3261.012,"dur":0.332,"note":52,"inst":"piano_v0_additive_0","vel":0.709,"bend":0.0,"ch":4,"track":16},{"t":3261.012,"dur":0.664,"note":52,"inst":"piano_v0_additive_0","vel":0.709,"bend":0.0,"ch":4,"track":16},{"t":3261.344,"dur":0.664,"note":52,"inst":"piano_v0_additive_0","vel":0.709,"bend":0.0,"ch":4,"track":16},{"t":3261.344,"dur":0.664,"note":52,"inst":"piano_v0_additive_0","vel":0.709,"bend":0.0,"ch":4,"track":16},{"t":3261.344,"dur":0.498,"note":66,"inst":"harpsichord_v0_additive_2","vel":0.709,"bend":0.0,"ch":2,"track":16},{"t":3261.842,"dur":0.166,"note":69,"inst":"organ_v0_additive_1","vel":0.709,"bend":0.0,"ch":5,"track":16},{"t":3262.008,"dur":0.332,"note":49,"inst":"organ_v0_additive_1","vel":0.709,"bend":0.0,"ch":1,"track":16},{"t":3262.008,"dur":0.332,"note":49,"inst":"organ_v0_additive_1","vel":0.709,"bend":0.0,"ch":1,"track":16},{"t":3262.008,"dur":0.332,"note":70,"inst":"harpsichord_v0_additive_2","vel":0.709,"bend":0.0,"ch":6,"track":16},{"t":3262.34,"dur":0.664,"note":52,"inst":"piano_v0_additive_0","vel":0.709,"bend":0.0,"ch":4,"track":16},{"t":3262.34,"dur":0.664,"note":52,"inst":"piano_v0_additive_0","vel":0.709,"bend":0.0,"ch":4,"track":16},{"t":3262.34,"dur":0.498,"note":66,"inst":"harpsichord_v0_additive_2","vel":0.709,"bend":0.0,"ch":2,"track":16},{"t":3262.34,"dur":0.166,"note":72,"inst":"piano_v0_additive_0","vel":0.709,"bend":0.0,"ch":8,"track":16},{"t":3262.507,"dur":0.166,"note":70,"inst":"harpsichord_v0_additive_2","vel":0.709,"bend":0.0,"ch":6,"track":16},{"t":3262.673,"dur":0.166,"note":69,"inst":"organ_v0_additive_1","vel":0.709,"bend":0.0,"ch":5,"track":16},{"t":3262.839,"dur":0.166,"note":66,"inst":"harpsichord_v0_additive_2","vel":0.709,"bend":0.0,"ch":2,"track":16},{"t":3262.839,"dur":0.166,"note":66,"inst":"harpsichord_v0_additive_2","vel":0.709,"bend":0.0,"ch":2,"track":16},{"t":3263.005,"dur":0.498,"note":53,"inst":"organ_v0_additive_1","vel":0.709,"bend":0.0,"ch":5,"track":16},{"t":3263.005,"dur":0.498,"note":53,"inst":"organ_v0_additive_1","vel":0.709,"bend":0.0,"ch":5,"track":16},{"t":3263.005,"dur":0.498,"note":60,"inst":"piano_v0_additive_0","vel":0.709,"bend":0.0,"ch":12,"track":16},{"t":3263.005,"dur":0.498,"note":69,"inst":"organ_v0_additive_1","vel":0.709,"bend":0.0,"ch":5,"track":16},{"t":3263.503,"dur":0.166,"note":45,"inst":"organ_v0_additive_1","vel":0.709,"bend":0.0,"ch":13,"track":16},{"t":3263.503,"dur":0.166,"note":45,"inst":"organ_v0_additive_1","vel":0.709,"bend":0.0,"ch":13,"track":16},{"t":3263.503,"dur":0.166,"note":65,"inst":"organ_v0_additive_1","vel":0.709,"bend":0.0,"ch":1,"track":16},{"t":3263.503,"dur":0.166,"note":72,"inst":"piano_v0_additive_0","vel":0.709,"bend":0.0,"ch":8,"track":16},{"t":3263.669,"dur":0.664,"note":46,"inst":"harpsichord_v0_additive_2","vel":0.709,"bend":0.0,"ch":14,"track":16},{"t":3263.669,"dur":0.664,"note":46,"inst":"harpsichord_v0_additive_2","vel":0.709,"bend":0.0,"ch":14,"track":16},{"t":3263.669,"dur":0.332,"note":64,"inst":"piano_v0_additive_0","vel":0.709,"bend":0.0,"ch":0,"track":16},{"t":3263.669,"dur":0.332,"note":66,"inst":"harpsichord_v0_additive_2","vel":0.709,"bend":0.0,"ch":2,"track":16},{"t":3264.002,"dur":0.332,"note":65,"inst":"organ_v0_additive_1","vel":0.709,"bend":0.0,"ch":1,"track":16},{"t":3264.002,"dur":0.332,"note":69,"inst":"organ_v0_additive_1","vel":0.709,"bend":0.0,"ch":5,"track":16},{"t":3264.334,"dur":0.664,"note":48,"inst":"piano_v0_additive_0","vel":0.709,"bend":0.0,"ch":0,"track":16},{"t":3264.334,"dur":0.664,"note":48,"inst":"piano_v0_additive_0","vel":0.709,"bend":0.0,"ch":0,"track":16},{"t":3264.334,"dur":0.498,"note":65,"inst":"organ_v0_additive_1","vel":0.709,"bend":0.0,"ch":1,"track":16},{"t":3264.334,"dur":0.664,"note":66,"inst":"harpsichord_v0_additive_2","vel":0.709,"bend":0.0,"ch":2,"track":16},{"t":3264.832,"dur":0.166,"note":64,"inst":"piano_v0_additive_0","vel":0.709,"bend":0.0,"ch":0,"track":16},{"t":3264.998,"dur":0.332,"note":41,"inst":"organ_v0_additive_1","vel":0.709,"bend":0.0,"ch":9,"track":16},{"t":3264.998,"dur":0.332,"note":41,"inst":"organ_v0_additive_1","vel":0.709,"bend":0.0,"ch":9,"track":16},{"t":3264.998,"dur":0.332,"note":65,"inst":"organ_v0_additive_1","vel":0.709,"bend":0.0,"ch":1,"track":16},{"t":3264.998,"dur":0.664,"note":65,"inst":"organ_v0_additive_1","vel":0.709,"bend":0.0,"ch":1,"track":16},{"t":3265.33,"dur":0.664,"note":40,"inst":"piano_v0_additive_0","vel":0.709,"bend":0.0,"ch":8,"track":16},{"t":3265.33,"dur":0.664,"note":40,"inst":"piano_v0_additive_0","vel":0.709,"bend":0.0,"ch":8,"track":16},{"t":3265.33,"dur":0.166,"note":72,"inst":"piano_v0_additive_0","vel":0.709,"bend":0.0,"ch":8,"track":16},{"t":3265.496,"dur":0.166,"note":70,"inst":"harpsichord_v0_additive_2","vel":0.709,"bend":0.0,"ch":6,"track":16},{"t":3265.663,"dur":0.166,"note":69,"inst":"organ_v0_additive_1","vel":0.709,"bend":0.0,"ch":5,"track":16},{"t":3265.829,"dur":0.166,"note":66,"inst":"harpsichord_v0_additive_2","vel":0.709,"bend":0.0,"ch":2,"track":16},{"t":3265.995,"dur":0.332,"note":41,"inst":"organ_v0_additive_1","vel":0.709,"bend":0.0,"ch":9,"track":16},{"t":3265.995,"dur":0.332,"note":41,"inst":"organ_v0_additive_1","vel":0.709,"bend":0.0,"ch":9,"track":16},{"t":3265.995,"dur":0.332,"note":69,"inst":"organ_v0_additive_1","vel":0.709,"bend":0.0,"ch":5,"track":16},{"t":3266.327,"dur":0.664,"note":36,"inst":"piano_v0_additive_0","vel":0.709,"bend":0.0,"ch":4,"track":16},{"t":3266.327,"dur":0.664,"note":36,"inst":"piano_v0_additive_0","vel":0.709,"bend":0.0,"ch":4,"track":16},{"t":3266.327,"dur":0.664,"note":66,"inst":"harpsichord_v0_additive_2","vel":0.709,"bend":0.0,"ch":2,"track":16},{"t":3266.327,"dur":0.166,"note":72,"inst":"piano_v0_additive_0","vel":0.709,"bend":0.0,"ch":8,"track":16},{"t":3266.493,"dur":0.166,"note":70,"inst":"harpsichord_v0_additive_2","vel":0.709,"bend":0.0,"ch":6,"track":16},{"t":3266.659,"dur":0.166,"note":69,"inst":"organ_v0_additive_1","vel":0.709,"bend":0.0,"ch":5,"track":16},{"t":3266.825,"dur":0.166,"note":66,"inst":"harpsichord_v0_additive_2","vel":0.709,"bend":0.0,"ch":2,"track":16},{"t":3266.991,"dur":0.332,"note":41,"inst":"organ_v0_additive_1","vel":0.709,"bend":0.0,"ch":9,"track":16},{"t":3266.991,"dur":0.332,"note":41,"inst":"organ_v0_additive_1","vel":0.709,"bend":0.0,"ch":9,"track":16},{"t":3266.991,"dur":0.332,"note":69,"inst":"organ_v0_additive_1","vel":0.709,"bend":0.0,"ch":5,"track":16},{"t":3267.324,"dur":0.664,"note":40,"inst":"piano_v0_additive_0","vel":0.709,"bend":0.0,"ch":8,"track":16},{"t":3267.324,"dur":0.664,"note":40,"inst":"piano_v0_additive_0","vel":0.709,"bend":0.0,"ch":8,"track":16},{"t":3267.324,"dur":0.997,"note":66,"inst":"harpsichord_v0_additive_2","vel":0.709,"bend":0.0,"ch":2,"track":16},{"t":3267.324,"dur":0.166,"note":72,"inst":"piano_v0_additive_0","vel":0.709,"bend":0.0,"ch":8,"track":16},{"t":3267.49,"dur":0.166,"note":70,"inst":"harpsichord_v0_additive_2","vel":0.709,"bend":0.0,"ch":6,"track":16},{"t":3267.656,"dur":0.166,"note":69,"inst":"organ_v0_additive_1","vel":0.709,"bend":0.0,"ch":5,"track":16},{"t":3267.822,"dur":0.166,"note":66,"inst":"harpsichord_v0_additive_2","vel":0.709,"bend":0.0,"ch":2,"track":16},{"t":3267.988,"dur":0.664,"note":41,"inst":"organ_v0_additive_1","vel":0.709,"bend":0.0,"ch":9,"track":16},{"t":3267.988,"dur":0.664,"note":41,"inst":"organ_v0_additive_1","vel":0.709,"bend":0.0,"ch":9,"track":16},{"t":3267.988,"dur":1.329,"note":69,"inst":"organ_v0_additive_1","vel":0.709,"bend":0.0,"ch":5,"track":16},{"t":3268.32,"dur":0.166,"note":65,"inst":"organ_v0_additive_1","vel":0.709,"bend":0.0,"ch":1,"track":16},{"t":3268.486,"dur":0.166,"note":64,"inst":"piano_v0_additive_0","vel":0.709,"bend":0.0,"ch":0,"track":16},{"t":3268.652,"dur":0.332,"note":41,"inst":"organ_v0_additive_1","vel":0.709,"bend":0.0,"ch":9,"track":16},{"t":3268.652,"dur":0.332,"note":41,"inst":"organ_v0_additive_1","vel":0.709,"bend":0.0,"ch":9,"track":16},{"t":3268.652,"dur":0.166,"note":61,"inst":"organ_v0_additive_1","vel":0.709,"bend":0.0,"ch":13,"track":16},{"t":3268.819,"dur":0.166,"note":60,"inst":"piano_v0_additive_0","vel":0.709,"bend":0.0,"ch":12,"track":16},{"t":3268.985,"dur":0.664,"note":42,"inst":"harpsichord_v0_additive_2","vel":0.709,"bend":0.0,"ch":10,"track":16},{"t":3268.985,"dur":0.664,"note":42,"inst":"harpsichord_v0_additive_2","vel":0.709,"bend":0.0,"ch":10,"track":16},{"t":3268.985,"dur":0.332,"note":58,"inst":"harpsichord_v0_additive_2","vel":0.709,"bend":0.0,"ch":10,"track":16},{"t":3269.317,"dur":0.997,"note":61,"inst":"organ_v0_additive_1","vel":0.709,"bend":0.0,"ch":13,"track":16},{"t":3269.317,"dur":0.166,"note":66,"inst":"harpsichord_v0_additive_2","vel":0.709,"bend":0.0,"ch":2,"track":16},{"t":3269.483,"dur":0.166,"note":65,"inst":"organ_v0_additive_1","vel":0.709,"bend":0.0,"ch":1,"track":16},{"t":3269.649,"dur":0.332,"note":30,"inst":"harpsichord_v0_additive_2","vel":0.709,"bend":0.0,"ch":14,"track":16},{"t":3269.649,"dur":0.332,"note":30,"inst":"harpsichord_v0_additive_2","vel":0.709,"bend":0.0,"ch":14,"track":16},{"t":3269.649,"dur":0.166,"note":64,"inst":"piano_v0_additive_0","vel":0.709,"bend":0.0,"ch":0,"track":16},{"t":3269.815,"dur":0.166,"note":61,"inst":"organ_v0_additive_1","vel":0.709,"bend":0.0,"ch":13,"track":16},{"t":3269.981,"dur":0.664,"note":36,"inst":"piano_v0_additive_0","vel":0.709,"bend":0.0,"ch":4,"track":16},{"t":3269.981,"dur":0.664,"note":36,"inst":"piano_v0_additive_0","vel":0.709,"bend":0.0,"ch":4,"track":16},{"t":3269.981,"dur":0.664,"note":64,"inst":"piano_v0_additive_0","vel":0.709,"bend":0.0,"ch":0,"track":16},{"t":3270.313,"dur":0.332,"note":54,"inst":"harpsichord_v0_additive_2","vel":0.709,"bend":0.0,"ch":6,"track":16},{"t":3270.646,"dur":0.332,"note":36,"inst":"piano_v0_additive_0","vel":0.709,"bend":0.0,"ch":4,"track":16},{"t":3270.646,"dur":0.332,"note":36,"inst":"piano_v0_additive_0","vel":0.709,"bend":0.0,"ch":4,"track":16},{"t":3270.646,"dur":0.664,"note":60,"inst":"piano_v0_additive_0","vel":0.709,"bend":0.0,"ch":12,"track":16},{"t":3270.646,"dur":0.332,"note":64,"inst":"piano_v0_additive_0","vel":0.709,"bend":0.0,"ch":0,"track":16},{"t":3270.978,"dur":0.664,"note":37,"inst":"organ_v0_additive_1","vel":0.709,"bend":0.0,"ch":5,"track":16},{"t":3270.978,"dur":0.664,"note":37,"inst":"organ_v0_additive_1","vel":0.709,"bend":0.0,"ch":5,"track":16},{"t":3270.978,"dur":0.664,"note":54,"inst":"harpsichord_v0_additive_2","vel":0.709,"bend":0.0,"ch":6,"track":16},{"t":3271.31,"dur":0.664,"note":58,"inst":"harpsichord_v0_additive_2","vel":0.709,"bend":0.0,"ch":10,"track":16},{"t":3271.642,"dur":0.664,"note":36,"inst":"piano_v0_additive_0","vel":0.709,"bend":0.0,"ch":4,"track":16},{"t":3271.642,"dur":0.664,"note":36,"inst":"piano_v0_additive_0","vel":0.709,"bend":0.0,"ch":4,"track":16},{"t":3271.642,"dur":0.664,"note":54,"inst":"harpsichord_v0_additive_2","vel":0.709,"bend":0.0,"ch":6,"track":16},{"t":3272.332,"dur":0.104,"note":68,"inst":"piano_v0_additive_0","vel":1.0,"bend":0.0,"ch":4,"track":17},{"t":3272.436,"dur":0.104,"note":69,"inst":"organ_v0_additive_1","vel":1.0,"bend":0.0,"ch":5,"track":17},{"t":3272.54,"dur":0.104,"note":71,"inst":"celesta_v0_additive_3","vel":1.0,"bend":0.0,"ch":7,"track":17},{"t":3272.645,"dur":0.417,"note":33,"inst":"organ_v0_additive_1","vel":1.0,"bend":0.0,"ch":1,"track":17},{"t":3272.645,"dur":0.104,"note":74,"inst":"harpsichord_v0_additive_2","vel":1.0,"bend":0.0,"ch":10,"track":17},{"t":3272.749,"dur":0.104,"note":74,"inst":"harpsichord_v0_additive_2","vel":1.0,"bend":0.0,"ch":10,"track":17},{"t":3272.853,"dur":0.104,"note":77,"inst":"organ_v0_additive_1","vel":1.0,"bend":0.0,"ch":13,"track":17},{"t":3272.957,"dur":0.104,"note":78,"inst":"harpsichord_v0_additive_2","vel":1.0,"bend":0.0,"ch":14,"track":17},{"t":3273.061,"dur":0.417,"note":41,"inst":"organ_v0_additive_1","vel":1.0,"bend":0.0,"ch":9,"track":17},{"t":3273.061,"dur":0.417,"note":80,"inst":"piano_v0_additive_0","vel":1.0,"bend":0.0,"ch":0,"track":17},{"t":3273.478,"dur":0.417,"note":33,"inst":"organ_v0_additive_1","vel":1.0,"bend":0.0,"ch":1,"track":17},{"t":3273.687,"dur":0.069,"note":80,"inst":"piano_v0_additive_0","vel":1.0,"bend":0.0,"ch":0,"track":17},{"t":3273.756,"dur":0.069,"note":81,"inst":"organ_v0_additive_1","vel":1.0,"bend":0.0,"ch":1,"track":17},{"t":3273.826,"dur":0.069,"note":80,"inst":"piano_v0_additive_0","vel":1.0,"bend":0.0,"ch":0,"track":17},{"t":3273.895,"dur":0.417,"note":41,"inst":"organ_v0_additive_1","vel":1.0,"bend":0.0,"ch":9,"track":17},{"t":3273.895,"dur":0.208,"note":77,"inst":"organ_v0_additive_1","vel":1.0,"bend":0.0,"ch":13,"track":17},{"t":3274.103,"dur":0.208,"note":83,"inst":"celesta_v0_additive_3","vel":1.0,"bend":0.0,"ch":3,"track":17},{"t":3274.312,"dur":0.417,"note":33,"inst":"organ_v0_additive_1","vel":1.0,"bend":0.0,"ch":1,"track":17},{"t":3274.312,"dur":0.208,"note":81,"inst":"organ_v0_additive_1","vel":1.0,"bend":0.0,"ch":1,"track":17},{"t":3274.52,"dur":0.069,"note":77,"inst":"organ_v0_additive_1","vel":1.0,"bend":0.0,"ch":13,"track":17},{"t":3274.59,"dur":0.069,"note":78,"inst":"harpsichord_v0_additive_2","vel":1.0,"bend":0.0,"ch":14,"track":17},{"t":3274.659,"dur":0.069,"note":77,"inst":"organ_v0_additive_1","vel":1.0,"bend":0.0,"ch":13,"track":17},{"t":3274.729,"dur":0.417,"note":41,"inst":"organ_v0_additive_1","vel":1.0,"bend":0.0,"ch":9,"track":17},{"t":3274.729,"dur":0.208,"note":74,"inst":"harpsichord_v0_additive_2","vel":1.0,"bend":0.0,"ch":10,"track":17},{"t":3274.937,"dur":0.208,"note":78,"inst":"harpsichord_v0_additive_2","vel":1.0,"bend":0.0,"ch":14,"track":17},{"t":3275.146,"dur":0.417,"note":33,"inst":"organ_v0_additive_1","vel":1.0,"bend":0.0,"ch":1,"track":17},{"t":3275.146,"dur":0.208,"note":77,"inst":"organ_v0_additive_1","vel":1.0,"bend":0.0,"ch":13,"track":17},{"t":3275.354,"dur":0.208,"note":74,"inst":"harpsichord_v0_additive_2","vel":1.0,"bend":0.0,"ch":10,"track":17},{"t":3275.562,"dur":0.417,"note":38,"inst":"harpsichord_v0_additive_2","vel":1.0,"bend":0.0,"ch":6,"track":17},{"t":3275.562,"dur":0.104,"note":69,"inst":"organ_v0_additive_1","vel":1.0,"bend":0.0,"ch":5,"track":17},{"t":3275.667,"dur":0.104,"note":69,"inst":"organ_v0_additive_1","vel":1.0,"bend":0.0,"ch":5,"track":17},{"t":3275.771,"dur":0.104,"note":69,"inst":"organ_v0_additive_1","vel":1.0,"bend":0.0,"ch":5,"track":17},{"t":3275.875,"dur":0.104,"note":71,"inst":"celesta_v0_additive_3","vel":1.0,"bend":0.0,"ch":7,"track":17},{"t":3275.979,"dur":0.417,"note":33,"inst":"organ_v0_additive_1","vel":1.0,"bend":0.0,"ch":1,"track":17},{"t":3275.979,"dur":0.104,"note":74,"inst":"harpsichord_v0_additive_2","vel":1.0,"bend":0.0,"ch":10,"track":17},{"t":3276.083,"dur":0.104,"note":74,"inst":"harpsichord_v0_additive_2","vel":1.0,"bend":0.0,"ch":10,"track":17},{"t":3276.188,"dur":0.104,"note":77,"inst":"organ_v0_additive_1","vel":1.0,"bend":0.0,"ch":13,"track":17},{"t":3276.292,"dur":0.104,"note":78,"inst":"harpsichord_v0_additive_2","vel":1.0,"bend":0.0,"ch":14,"track":17},{"t":3276.396,"dur":0.417,"note":38,"inst":"harpsichord_v0_additive_2","vel":1.0,"bend":0.0,"ch":6,"track":17},{"t":3276.396,"dur":0.417,"note":78,"inst":"harpsichord_v0_additive_2","vel":1.0,"bend":0.0,"ch":14,"track":17},{"t":3276.813,"dur":0.417,"note":33,"inst":"organ_v0_additive_1","vel":1.0,"bend":0.0,"ch":1,"track":17},{"t":3277.23,"dur":0.417,"note":38,"inst":"harpsichord_v0_additive_2","vel":1.0,"bend":0.0,"ch":6,"track":17},{"t":3277.23,"dur":0.208,"note":78,"inst":"harpsichord_v0_additive_2","vel":1.0,"bend":0.0,"ch":14,"track":17},{"t":3277.438,"dur":0.208,"note":83,"inst":"celesta_v0_additive_3","vel":1.0,"bend":0.0,"ch":3,"track":17},{"t":3277.646,"dur":0.417,"note":33,"inst":"organ_v0_additive_1","vel":1.0,"bend":0.0,"ch":1,"track":17},{"t":3277.646,"dur":0.208,"note":81,"inst":"organ_v0_additive_1","vel":1.0,"bend":0.0,"ch":1,"track":17},{"t":3277.855,"dur":0.069,"note":77,"inst":"organ_v0_additive_1","vel":1.0,"bend":0.0,"ch":13,"track":17},{"t":3277.924,"dur":0.069,"note":78,"inst":"harpsichord_v0_additive_2","vel":1.0,"bend":0.0,"ch":14,"track":17},{"t":3277.994,"dur":0.069,"note":77,"inst":"organ_v0_additive_1","vel":1.0,"bend":0.0,"ch":13,"track":17},{"t":3278.063,"dur":0.417,"note":38,"inst":"harpsichord_v0_additive_2","vel":1.0,"bend":0.0,"ch":6,"track":17},{"t":3278.063,"dur":0.208,"note":74,"inst":"harpsichord_v0_additive_2","vel":1.0,"bend":0.0,"ch":10,"track":17},{"t":3278.272,"dur":0.208,"note":80,"inst":"piano_v0_additive_0","vel":1.0,"bend":0.0,"ch":0,"track":17},{"t":3278.48,"dur":0.417,"note":33,"inst":"organ_v0_additive_1","vel":1.0,"bend":0.0,"ch":1,"track":17},{"t":3278.48,"dur":0.208,"note":78,"inst":"harpsichord_v0_additive_2","vel":1.0,"bend":0.0,"ch":14,"track":17},{"t":3278.688,"dur":0.208,"note":74,"inst":"harpsichord_v0_additive_2","vel":1.0,"bend":0.0,"ch":10,"track":17},{"t":3278.897,"dur":0.417,"note":38,"inst":"harpsichord_v0_additive_2","vel":1.0,"bend":0.0,"ch":6,"track":17},{"t":3278.897,"dur":0.104,"note":69,"inst":"organ_v0_additive_1","vel":1.0,"bend":0.0,"ch":5,"track":17},{"t":3314.342,"dur":0.208,"note":44,"inst":"piano_v0_additive_0","vel":0.709,"bend":0.0,"ch":12,"track":17},{"t":3314.342,"dur":0.208,"note":63,"inst":"celesta_v0_additive_3","vel":0.709,"bend":0.0,"ch":15,"track":17},{"t":3314.342,"dur":0.208,"note":73,"inst":"organ_v0_additive_1","vel":0.709,"bend":0.0,"ch":9,"track":17},{"t":3314.55,"dur":0.208,"note":44,"inst":"piano_v0_additive_0","vel":0.709,"bend":0.0,"ch":12,"track":17},{"t":3314.757,"dur":0.415,"note":44,"inst":"piano_v0_additive_0","vel":0.709,"bend":0.0,"ch":12,"track":17},{"t":3315.172,"dur":0.208,"note":68,"inst":"piano_v0_additive_0","vel":0.709,"bend":0.0,"ch":4,"track":17},{"t":3315.172,"dur":0.208,"note":73,"inst":"organ_v0_additive_1","vel":0.709,"bend":0.0,"ch":9,"track":17},{"t":3315.38,"dur":0.415,"note":44,"inst":"piano_v0_additive_0","vel":0.709,"bend":0.0,"ch":12,"track":17},{"t":3315.38,"dur":0.208,"note":68,"inst":"piano_v0_additive_0","vel":0.709,"bend":0.0,"ch":4,"track":17},{"t":3315.38,"dur":0.208,"note":73,"inst":"organ_v0_additive_1","vel":0.709,"bend":0.0,"ch":9,"track":17},{"t":3315.587,"dur":0.208,"note":70,"inst":"harpsichord_v0_additive_2","vel":0.709,"bend":0.0,"ch":6,"track":17},{"t":3315.587,"dur":0.208,"note":73,"inst":"organ_v0_additive_1","vel":0.709,"bend":0.0,"ch":9,"track":17},{"t":3315.795,"dur":0.208,"note":70,"inst":"harpsichord_v0_additive_2","vel":0.709,"bend":0.0,"ch":6,"track":17},{"t":3315.795,"dur":0.208,"note":73,"inst":"organ_v0_additive_1","vel":0.709,"bend":0.0,"ch":9,"track":17},{"t":3316.003,"dur":0.415,"note":44,"inst":"piano_v0_additive_0","vel":0.709,"bend":0.0,"ch":12,"track":17},{"t":3316.003,"dur":0.208,"note":70,"inst":"harpsichord_v0_additive_2","vel":0.709,"bend":0.0,"ch":6,"track":17},{"t":3316.003,"dur":0.208,"note":73,"inst":"organ_v0_additive_1","vel":0.709,"bend":0.0,"ch":9,"track":17},{"t":3316.21,"dur":0.208,"note":72,"inst":"piano_v0_additive_0","vel":0.709,"bend":0.0,"ch":8,"track":17},{"t":3316.21,"dur":0.208,"note":75,"inst":"celesta_v0_additive_3","vel":0.709,"bend":0.0,"ch":11,"track":17},{"t":3316.418,"dur":0.208,"note":72,"inst":"piano_v0_additive_0","vel":0.709,"bend":0.0,"ch":8,"track":17},{"t":3316.418,"dur":0.208,"note":75,"inst":"celesta_v0_additive_3","vel":0.709,"bend":0.0,"ch":11,"track":17},{"t":3316.625,"dur":0.415,"note":44,"inst":"piano_v0_additive_0","vel":0.709,"bend":0.0,"ch":12,"track":17},{"t":3316.625,"dur":0.208,"note":72,"inst":"piano_v0_additive_0","vel":0.709,"bend":0.0,"ch":8,"track":17},{"t":3316.625,"dur":0.208,"note":75,"inst":"celesta_v0_additive_3","vel":0.709,"bend":0.0,"ch":11,"track":17},{"t":3316.833,"dur":0.208,"note":73,"inst":"organ_v0_additive_1","vel":0.709,"bend":0.0,"ch":9,"track":17},{"t":3316.833,"dur":0.208,"note":75,"inst":"celesta_v0_additive_3","vel":0.709,"bend":0.0,"ch":11,"track":17},{"t":3317.04,"dur":0.208,"note":73,"inst":"organ_v0_additive_1","vel":0.709,"bend":0.0,"ch":9,"track":17},{"t":3317.04,"dur":0.208,"note":75,"inst":"celesta_v0_additive_3","vel":0.709,"bend":0.0,"ch":11,"track":17},{"t":3317.248,"dur":0.415,"note":44,"inst":"piano_v0_additive_0","vel":0.709,"bend":0.0,"ch":12,"track":17},{"t":3317.248,"dur":0.208,"note":73,"inst":"organ_v0_additive_1","vel":0.709,"bend":0.0,"ch":9,"track":17},{"t":3317.248,"dur":0.208,"note":75,"inst":"celesta_v0_additive_3","vel":0.709,"bend":0.0,"ch":11,"track":17},{"t":3317.455,"dur":0.208,"note":73,"inst":"organ_v0_additive_1","vel":0.709,"bend":0.0,"ch":9,"track":17},{"t":3317.455,"dur":0.208,"note":77,"inst":"organ_v0_additive_1","vel":0.709,"bend":0.0,"ch":13,"track":17},{"t":3317.663,"dur":0.208,"note":73,"inst":"organ_v0_additive_1","vel":0.709,"bend":0.0,"ch":9,"track":17},{"t":3317.663,"dur":0.208,"note":77,"inst":"organ_v0_additive_1","vel":0.709,"bend":0.0,"ch":13,"track":17},{"t":3317.87,"dur":1.66,"note":44,"inst":"piano_v0_additive_0","vel":0.709,"bend":0.0,"ch":12,"track":17},{"t":3317.87,"dur":1.245,"note":75,"inst":"celesta_v0_additive_3","vel":0.709,"bend":0.0,"ch":11,"track":17},{"t":3317.87,"dur":1.245,"note":77,"inst":"organ_v0_additive_1","vel":0.709,"bend":0.0,"ch":13,"track":17},{"t":3319.116,"dur":0.415,"note":75,"inst":"celesta_v0_additive_3","vel":0.709,"bend":0.0,"ch":11,"track":17},{"t":3319.116,"dur":0.415,"note":79,"inst":"celesta_v0_additive_3","vel":0.709,"bend":0.0,"ch":15,"track":17},{"t":3320.154,"dur":0.208,"note":77,"inst":"organ_v0_additive_1","vel":0.709,"bend":0.0,"ch":13,"track":17},{"t":3320.361,"dur":0.415,"note":49,"inst":"organ_v0_additive_1","vel":0.709,"bend":0.0,"ch":1,"track":17},{"t":3320.361,"dur":0.415,"note":65,"inst":"organ_v0_additive_1","vel":0.709,"bend":0.0,"ch":1,"track":17},{"t":3320.361,"dur":0.415,"note":68,"inst":"piano_v0_additive_0","vel":0.709,"bend":0.0,"ch":4,"track":17},{"t":3320.361,"dur":0.415,"note":77,"inst":"organ_v0_additive_1","vel":0.709,"bend":0.0,"ch":13,"track":17},{"t":3320.776,"dur":0.208,"note":79,"inst":"celesta_v0_additive_3","vel":0.709,"bend":0.0,"ch":15,"track":17},{"t":3320.984,"dur":0.415,"note":44,"inst":"piano_v0_additive_0","vel":0.709,"bend":0.0,"ch":12,"track":17},{"t":3320.984,"dur":0.415,"note":63,"inst":"celesta_v0_additive_3","vel":0.709,"bend":0.0,"ch":15,"track":17},{"t":3320.984,"dur":0.415,"note":67,"inst":"celesta_v0_additive_3","vel":0.709,"bend":0.0,"ch":3,"track":17},{"t":3320.984,"dur":0.208,"note":75,"inst":"celesta_v0_additive_3","vel":0.709,"bend":0.0,"ch":11,"track":17},{"t":3321.191,"dur":0.208,"note":77,"inst":"organ_v0_additive_1","vel":0.709,"bend":0.0,"ch":13,"track":17},{"t":3321.399,"dur":0.208,"note":79,"inst":"celesta_v0_additive_3","vel":0.709,"bend":0.0,"ch":15,"track":17},{"t":3321.606,"dur":0.415,"note":37,"inst":"organ_v0_additive_1","vel":0.709,"bend":0.0,"ch":5,"track":17},{"t":3321.606,"dur":0.415,"note":61,"inst":"organ_v0_additive_1","vel":0.709,"bend":0.0,"ch":13,"track":17},{"t":3321.606,"dur":0.415,"note":65,"inst":"organ_v0_additive_1","vel":0.709,"bend":0.0,"ch":1,"track":17},{"t":3321.606,"dur":0.208,"note":80,"inst":"piano_v0_additive_0","vel":0.709,"bend":0.0,"ch":0,"track":17},{"t":3321.814,"dur":0.208,"note":77,"inst":"organ_v0_additive_1","vel":0.709,"bend":0.0,"ch":13,"track":17},{"t":3322.022,"dur":0.208,"note":73,"inst":"organ_v0_additive_1","vel":0.709,"bend":0.0,"ch":9,"track":17},{"t":3322.229,"dur":0.208,"note":73,"inst":"organ_v0_additive_1","vel":0.709,"bend":0.0,"ch":9,"track":17},{"t":3322.644,"dur":0.208,"note":75,"inst":"celesta_v0_additive_3","vel":0.709,"bend":0.0,"ch":11,"track":17},{"t":3322.852,"dur":0.415,"note":68,"inst":"piano_v0_additive_0","vel":0.709,"bend":0.0,"ch":4,"track":17},{"t":3322.852,"dur":0.415,"note":73,"inst":"organ_v0_additive_1","vel":0.709,"bend":0.0,"ch":9,"track":17},{"t":3322.852,"dur":0.415,"note":75,"inst":"celesta_v0_additive_3","vel":0.709,"bend":0.0,"ch":11,"track":17},{"t":3323.267,"dur":0.208,"note":77,"inst":"organ_v0_additive_1","vel":0.709,"bend":0.0,"ch":13,"track":17},{"t":3323.474,"dur":0.415,"note":63,"inst":"celesta_v0_additive_3","vel":0.709,"bend":0.0,"ch":15,"track":17},{"t":3323.474,"dur":0.415,"note":68,"inst":"piano_v0_additive_0","vel":0.709,"bend":0.0,"ch":4,"track":17},{"t":3323.474,"dur":0.208,"note":73,"inst":"organ_v0_additive_1","vel":0.709,"bend":0.0,"ch":9,"track":17},{"t":3323.682,"dur":0.208,"note":73,"inst":"organ_v0_additive_1","vel":0.709,"bend":0.0,"ch":9,"track":17},{"t":3323.89,"dur":0.208,"note":70,"inst":"harpsichord_v0_additive_2","vel":0.709,"bend":0.0,"ch":6,"track":17},{"t":3324.097,"dur":0.415,"note":61,"inst":"organ_v0_additive_1","vel":0.709,"bend":0.0,"ch":13,"track":17},{"t":3324.097,"dur":0.415,"note":63,"inst":"celesta_v0_additive_3","vel":0.709,"bend":0.0,"ch":15,"track":17},{"t":3324.097,"dur":0.208,"note":68,"inst":"piano_v0_additive_0","vel":0.709,"bend":0.0,"ch":4,"track":17},{"t":3324.305,"dur":0.208,"note":68,"inst":"piano_v0_additive_0","vel":0.709,"bend":0.0,"ch":4,"track":17},{"t":3324.512,"dur":0.208,"note":68,"inst":"piano_v0_additive_0","vel":0.709,"bend":0.0,"ch":4,"track":17},{"t":3324.72,"dur":0.208,"note":68,"inst":"piano_v0_additive_0","vel":0.709,"bend":0.0,"ch":4,"track":17},{"t":3325.135,"dur":0.208,"note":70,"inst":"harpsichord_v0_additive_2","vel":0.709,"bend":0.0,"ch":6,"track":17},{"t":3325.342,"dur":0.623,"note":55,"inst":"celesta_v0_additive_3","vel":0.709,"bend":0.0,"ch":7,"track":17},{"t":3325.342,"dur":1.245,"note":55,"inst":"celesta_v0_additive_3","vel":0.709,"bend":0.0,"ch":7,"track":17},{"t":3325.342,"dur":0.623,"note":61,"inst":"organ_v0_additive_1","vel":0.709,"bend":0.0,"ch":13,"track":17},{"t":3325.342,"dur":0.415,"note":70,"inst":"harpsichord_v0_additive_2","vel":0.709,"bend":0.0,"ch":6,"track":17},{"t":3325.758,"dur":0.208,"note":70,"inst":"harpsichord_v0_additive_2","vel":0.709,"bend":0.0,"ch":6,"track":17},{"t":3325.965,"dur":0.623,"note":56,"inst":"piano_v0_additive_0","vel":0.709,"bend":0.0,"ch":8,"track":17},{"t":3325.965,"dur":0.623,"note":61,"inst":"organ_v0_additive_1","vel":0.709,"bend":0.0,"ch":13,"track":17},{"t":3325.965,"dur":0.208,"note":67,"inst":"celesta_v0_additive_3","vel":0.709,"bend":0.0,"ch":3,"track":17},{"t":3326.173,"dur":0.208,"note":65,"inst":"organ_v0_additive_1","vel":0.709,"bend":0.0,"ch":1,"track":17},{"t":3326.38,"dur":0.208,"note":63,"inst":"celesta_v0_additive_3","vel":0.709,"bend":0.0,"ch":15,"track":17},{"t":3326.588,"dur":0.415,"note":53,"inst":"organ_v0_additive_1","vel":0.709,"bend":0.0,"ch":5,"track":17},{"t":3326.588,"dur":0.415,"note":56,"inst":"piano_v0_additive_0","vel":0.709,"bend":0.0,"ch":8,"track":17},{"t":3326.588,"dur":0.415,"note":61,"inst":"organ_v0_additive_1","vel":0.709,"bend":0.0,"ch":13,"track":17},{"t":3326.588,"dur":0.208,"note":68,"inst":"piano_v0_additive_0","vel":0.709,"bend":0.0,"ch":4,"track":17},{"t":3326.795,"dur":0.208,"note":70,"inst":"harpsichord_v0_additive_2","vel":0.709,"bend":0.0,"ch":6,"track":17},{"t":3327.003,"dur":0.208,"note":73,"inst":"organ_v0_additive_1","vel":0.709,"bend":0.0,"ch":9,"track":17},{"t":3327.21,"dur":0.208,"note":73,"inst":"organ_v0_additive_1","vel":0.709,"bend":0.0,"ch":9,"track":17},{"t":3327.418,"dur":0.208,"note":75,"inst":"celesta_v0_additive_3","vel":0.709,"bend":0.0,"ch":11,"track":17},{"t":3348.306,"type":"tts","inst":"voice","text":"preceding source max 0 m.start - 80 m.start. Rust AST introspection using rustc and regex-based pars","track":17},{"t":3356.405,"dur":0.114,"note":82,"inst":"harpsichord_v0_additive_2","vel":0.709,"bend":0.0,"ch":2,"track":17},{"t":3356.52,"dur":0.114,"note":77,"inst":"organ_v0_additive_1","vel":0.709,"bend":0.0,"ch":13,"track":17},{"t":3356.634,"dur":0.343,"note":63,"inst":"celesta_v0_additive_3","vel":0.709,"bend":0.0,"ch":15,"track":17},{"t":3356.634,"dur":0.114,"note":80,"inst":"piano_v0_additive_0","vel":0.709,"bend":0.0,"ch":0,"track":17},{"t":3356.748,"dur":0.114,"note":82,"inst":"harpsichord_v0_additive_2","vel":0.709,"bend":0.0,"ch":2,"track":17},{"t":3356.863,"dur":0.114,"note":80,"inst":"piano_v0_additive_0","vel":0.709,"bend":0.0,"ch":0,"track":17},{"t":3356.977,"dur":0.343,"note":63,"inst":"celesta_v0_additive_3","vel":0.709,"bend":0.0,"ch":15,"track":17},{"t":3356.977,"dur":0.114,"note":77,"inst":"organ_v0_additive_1","vel":0.709,"bend":0.0,"ch":13,"track":17},{"t":3357.092,"dur":0.114,"note":82,"inst":"harpsichord_v0_additive_2","vel":0.709,"bend":0.0,"ch":2,"track":17},{"t":3357.206,"dur":0.114,"note":77,"inst":"organ_v0_additive_1","vel":0.709,"bend":0.0,"ch":13,"track":17},{"t":3357.321,"dur":0.343,"note":61,"inst":"organ_v0_additive_1","vel":0.709,"bend":0.0,"ch":13,"track":17},{"t":3357.321,"dur":0.114,"note":75,"inst":"celesta_v0_additive_3","vel":0.709,"bend":0.0,"ch":11,"track":17},{"t":3357.435,"dur":0.114,"note":82,"inst":"harpsichord_v0_additive_2","vel":0.709,"bend":0.0,"ch":2,"track":17},{"t":3357.55,"dur":0.114,"note":82,"inst":"harpsichord_v0_additive_2","vel":0.709,"bend":0.0,"ch":2,"track":17},{"t":3357.664,"dur":0.343,"note":53,"inst":"organ_v0_additive_1","vel":0.709,"bend":0.0,"ch":5,"track":17},{"t":3357.664,"dur":0.229,"note":65,"inst":"organ_v0_additive_1","vel":0.709,"bend":0.0,"ch":1,"track":17},{"t":3357.893,"dur":0.114,"note":82,"inst":"harpsichord_v0_additive_2","vel":0.709,"bend":0.0,"ch":2,"track":17},{"t":3358.008,"dur":0.343,"note":58,"inst":"harpsichord_v0_additive_2","vel":0.709,"bend":0.0,"ch":10,"track":17},{"t":3358.008,"dur":0.343,"note":58,"inst":"harpsichord_v0_additive_2","vel":0.709,"bend":0.0,"ch":10,"track":17},{"t":3358.351,"dur":0.343,"note":56,"inst":"piano_v0_additive_0","vel":0.709,"bend":0.0,"ch":8,"track":17},{"t":3358.465,"dur":0.114,"note":82,"inst":"harpsichord_v0_additive_2","vel":0.709,"bend":0.0,"ch":2,"track":17},{"t":3358.58,"dur":0.114,"note":80,"inst":"piano_v0_additive_0","vel":0.709,"bend":0.0,"ch":0,"track":17},{"t":3358.694,"dur":0.343,"note":56,"inst":"piano_v0_additive_0","vel":0.709,"bend":0.0,"ch":8,"track":17},{"t":3358.694,"dur":0.114,"note":85,"inst":"organ_v0_additive_1","vel":0.709,"bend":0.0,"ch":5,"track":17},{"t":3358.809,"dur":0.114,"note":82,"inst":"harpsichord_v0_additive_2","vel":0.709,"bend":0.0,"ch":2,"track":17},{"t":3358.923,"dur":0.114,"note":85,"inst":"organ_v0_additive_1","vel":0.709,"bend":0.0,"ch":5,"track":17},{"t":3359.038,"dur":0.687,"note":56,"inst":"piano_v0_additive_0","vel":0.709,"bend":0.0,"ch":8,"track":17},{"t":3359.038,"dur":0.114,"note":73,"inst":"organ_v0_additive_1","vel":0.709,"bend":0.0,"ch":9,"track":17},{"t":3359.152,"dur":0.114,"note":75,"inst":"celesta_v0_additive_3","vel":0.709,"bend":0.0,"ch":11,"track":17},{"t":3359.267,"dur":0.114,"note":75,"inst":"celesta_v0_additive_3","vel":0.709,"bend":0.0,"ch":11,"track":17},{"t":3359.381,"dur":0.114,"note":70,"inst":"harpsichord_v0_additive_2","vel":0.709,"bend":0.0,"ch":6,"track":17},{"t":3359.495,"dur":0.114,"note":75,"inst":"celesta_v0_additive_3","vel":0.709,"bend":0.0,"ch":11,"track":17},{"t":3359.61,"dur":0.114,"note":75,"inst":"celesta_v0_additive_3","vel":0.709,"bend":0.0,"ch":11,"track":17},{"t":3359.724,"dur":0.343,"note":56,"inst":"piano_v0_additive_0","vel":0.709,"bend":0.0,"ch":8,"track":17},{"t":3359.724,"dur":0.114,"note":68,"inst":"piano_v0_additive_0","vel":0.709,"bend":0.0,"ch":4,"track":17},{"t":3359.839,"dur":0.114,"note":75,"inst":"celesta_v0_additive_3","vel":0.709,"bend":0.0,"ch":11,"track":17},{"t":3359.954,"dur":0.114,"note":75,"inst":"celesta_v0_additive_3","vel":0.709,"bend":0.0,"ch":11,"track":17},{"t":3360.068,"dur":0.343,"note":53,"inst":"organ_v0_additive_1","vel":0.709,"bend":0.0,"ch":5,"track":17},{"t":3360.068,"dur":0.114,"note":68,"inst":"piano_v0_additive_0","vel":0.709,"bend":0.0,"ch":4,"track":17},{"t":3360.182,"dur":0.114,"note":75,"inst":"celesta_v0_additive_3","vel":0.709,"bend":0.0,"ch":11,"track":17},{"t":3360.297,"dur":0.114,"note":75,"inst":"celesta_v0_additive_3","vel":0.709,"bend":0.0,"ch":11,"track":17},{"t":3360.411,"dur":0.343,"note":58,"inst":"harpsichord_v0_additive_2","vel":0.709,"bend":0.0,"ch":10,"track":17},{"t":3360.411,"dur":0.114,"note":70,"inst":"harpsichord_v0_additive_2","vel":0.709,"bend":0.0,"ch":6,"track":17},{"t":3440.352,"dur":0.269,"note":37,"inst":"organ_v0_additive_1","vel":1.0,"bend":0.0,"ch":5,"track":17},{"t":3440.352,"dur":0.134,"note":66,"inst":"harpsichord_v0_additive_2","vel":1.0,"bend":0.0,"ch":2,"track":17},{"t":3440.352,"dur":0.134,"note":69,"inst":"organ_v0_additive_1","vel":1.0,"bend":0.0,"ch":5,"track":17},{"t":3440.486,"dur":0.134,"note":64,"inst":"piano_v0_additive_0","vel":1.0,"bend":0.0,"ch":0,"track":17},{"t":3440.486,"dur":0.134,"note":66,"inst":"harpsichord_v0_additive_2","vel":1.0,"bend":0.0,"ch":2,"track":17},{"t":3440.621,"dur":0.269,"note":25,"inst":"organ_v0_additive_1","vel":1.0,"bend":0.0,"ch":9,"track":17},{"t":3440.621,"dur":0.134,"note":66,"inst":"harpsichord_v0_additive_2","vel":1.0,"bend":0.0,"ch":2,"track":17},{"t":3440.621,"dur":0.134,"note":68,"inst":"piano_v0_additive_0","vel":1.0,"bend":0.0,"ch":4,"track":17},{"t":3440.755,"dur":0.134,"note":64,"inst":"piano_v0_additive_0","vel":1.0,"bend":0.0,"ch":0,"track":17},{"t":3440.755,"dur":0.134,"note":66,"inst":"harpsichord_v0_additive_2","vel":1.0,"bend":0.0,"ch":2,"track":17},{"t":3440.889,"dur":0.134,"note":30,"inst":"harpsichord_v0_additive_2","vel":1.0,"bend":0.0,"ch":14,"track":17},{"t":3440.889,"dur":0.537,"note":66,"inst":"harpsichord_v0_additive_2","vel":1.0,"bend":0.0,"ch":2,"track":17},{"t":3441.024,"dur":0.134,"note":32,"inst":"piano_v0_additive_0","vel":1.0,"bend":0.0,"ch":0,"track":17},{"t":3441.024,"dur":0.134,"note":33,"inst":"organ_v0_additive_1","vel":1.0,"bend":0.0,"ch":1,"track":17},{"t":3441.158,"dur":0.134,"note":35,"inst":"celesta_v0_additive_3","vel":1.0,"bend":0.0,"ch":3,"track":17},{"t":3441.158,"dur":0.134,"note":37,"inst":"organ_v0_additive_1","vel":1.0,"bend":0.0,"ch":5,"track":17},{"t":3441.292,"dur":0.134,"note":38,"inst":"harpsichord_v0_additive_2","vel":1.0,"bend":0.0,"ch":6,"track":17},{"t":3441.292,"dur":0.134,"note":40,"inst":"piano_v0_additive_0","vel":1.0,"bend":0.0,"ch":8,"track":17},{"t":3441.426,"dur":0.269,"note":42,"inst":"harpsichord_v0_additive_2","vel":1.0,"bend":0.0,"ch":10,"track":17},{"t":3441.426,"dur":0.134,"note":64,"inst":"piano_v0_additive_0","vel":1.0,"bend":0.0,"ch":0,"track":17},{"t":3441.561,"dur":0.134,"note":62,"inst":"harpsichord_v0_additive_2","vel":1.0,"bend":0.0,"ch":14,"track":17},{"t":3441.561,"dur":0.134,"note":64,"inst":"piano_v0_additive_0","vel":1.0,"bend":0.0,"ch":0,"track":17},{"t":3441.695,"dur":0.269,"note":40,"inst":"piano_v0_additive_0","vel":1.0,"bend":0.0,"ch":8,"track":17},{"t":3441.695,"dur":0.134,"note":62,"inst":"harpsichord_v0_additive_2","vel":1.0,"bend":0.0,"ch":14,"track":17},{"t":3441.695,"dur":0.134,"note":66,"inst":"harpsichord_v0_additive_2","vel":1.0,"bend":0.0,"ch":2,"track":17},{"t":3441.829,"dur":0.134,"note":64,"inst":"piano_v0_additive_0","vel":1.0,"bend":0.0,"ch":0,"track":17},{"t":3441.829,"dur":0.134,"note":66,"inst":"harpsichord_v0_additive_2","vel":1.0,"bend":0.0,"ch":2,"track":17},{"t":3441.964,"dur":0.269,"note":38,"inst":"harpsichord_v0_additive_2","vel":1.0,"bend":0.0,"ch":6,"track":17},{"t":3441.964,"dur":0.134,"note":59,"inst":"celesta_v0_additive_3","vel":1.0,"bend":0.0,"ch":11,"track":17},{"t":3441.964,"dur":0.134,"note":62,"inst":"harpsichord_v0_additive_2","vel":1.0,"bend":0.0,"ch":14,"track":17},{"t":3442.098,"dur":0.134,"note":66,"inst":"harpsichord_v0_additive_2","vel":1.0,"bend":0.0,"ch":2,"track":17},{"t":3442.098,"dur":0.134,"note":68,"inst":"piano_v0_additive_0","vel":1.0,"bend":0.0,"ch":4,"track":17},{"t":3442.232,"dur":0.269,"note":42,"inst":"harpsichord_v0_additive_2","vel":1.0,"bend":0.0,"ch":10,"track":17},{"t":3442.232,"dur":0.269,"note":69,"inst":"organ_v0_additive_1","vel":1.0,"bend":0.0,"ch":5,"track":17},{"t":3442.501,"dur":0.269,"note":38,"inst":"harpsichord_v0_additive_2","vel":1.0,"bend":0.0,"ch":6,"track":17},{"t":3442.501,"dur":0.134,"note":68,"inst":"piano_v0_additive_0","vel":1.0,"bend":0.0,"ch":4,"track":17},{"t":3442.635,"dur":0.134,"note":66,"inst":"harpsichord_v0_additive_2","vel":1.0,"bend":0.0,"ch":2,"track":17},{"t":3442.635,"dur":0.134,"note":69,"inst":"organ_v0_additive_1","vel":1.0,"bend":0.0,"ch":5,"track":17},{"t":3442.769,"dur":0.269,"note":35,"inst":"celesta_v0_additive_3","vel":1.0,"bend":0.0,"ch":3,"track":17},{"t":3442.769,"dur":0.134,"note":66,"inst":"harpsichord_v0_additive_2","vel":1.0,"bend":0.0,"ch":2,"track":17},{"t":3442.769,"dur":0.134,"note":68,"inst":"piano_v0_additive_0","vel":1.0,"bend":0.0,"ch":4,"track":17},{"t":3442.903,"dur":0.134,"note":62,"inst":"harpsichord_v0_additive_2","vel":1.0,"bend":0.0,"ch":14,"track":17},{"t":3442.903,"dur":0.134,"note":64,"inst":"piano_v0_additive_0","vel":1.0,"bend":0.0,"ch":0,"track":17},{"t":3443.038,"dur":0.269,"note":44,"inst":"piano_v0_additive_0","vel":1.0,"bend":0.0,"ch":12,"track":17},{"t":3443.038,"dur":0.134,"note":59,"inst":"celesta_v0_additive_3","vel":1.0,"bend":0.0,"ch":11,"track":17},{"t":3443.038,"dur":0.134,"note":64,"inst":"piano_v0_additive_0","vel":1.0,"bend":0.0,"ch":0,"track":17},{"t":3443.172,"dur":0.134,"note":64,"inst":"piano_v0_additive_0","vel":1.0,"bend":0.0,"ch":0,"track":17},{"t":3443.172,"dur":0.134,"note":66,"inst":"harpsichord_v0_additive_2","vel":1.0,"bend":0.0,"ch":2,"track":17},{"t":3443.306,"dur":0.269,"note":47,"inst":"celesta_v0_additive_3","vel":1.0,"bend":0.0,"ch":15,"track":17},{"t":3443.306,"dur":0.269,"note":68,"inst":"piano_v0_additive_0","vel":1.0,"bend":0.0,"ch":4,"track":17},{"t":3443.575,"dur":0.269,"note":40,"inst":"piano_v0_additive_0","vel":1.0,"bend":0.0,"ch":8,"track":17},{"t":3443.575,"dur":0.134,"note":66,"inst":"harpsichord_v0_additive_2","vel":1.0,"bend":0.0,"ch":2,"track":17},{"t":3443.709,"dur":0.134,"note":64,"inst":"piano_v0_additive_0","vel":1.0,"bend":0.0,"ch":0,"track":17},{"t":3443.709,"dur":0.134,"note":68,"inst":"piano_v0_additive_0","vel":1.0,"bend":0.0,"ch":4,"track":17},{"t":3443.843,"dur":0.269,"note":44,"inst":"piano_v0_additive_0","vel":1.0,"bend":0.0,"ch":12,"track":17},{"t":3443.843,"dur":0.134,"note":64,"inst":"piano_v0_additive_0","vel":1.0,"bend":0.0,"ch":0,"track":17},{"t":3443.843,"dur":0.134,"note":66,"inst":"harpsichord_v0_additive_2","vel":1.0,"bend":0.0,"ch":2,"track":17},{"t":3443.978,"dur":0.134,"note":61,"inst":"organ_v0_additive_1","vel":1.0,"bend":0.0,"ch":13,"track":17},{"t":3443.978,"dur":0.134,"note":62,"inst":"harpsichord_v0_additive_2","vel":1.0,"bend":0.0,"ch":14,"track":17},{"t":3444.112,"dur":0.269,"note":24,"inst":"piano_v0_additive_0","vel":1.0,"bend":0.0,"ch":8,"track":17},{"t":3444.112,"dur":0.134,"note":59,"inst":"celesta_v0_additive_3","vel":1.0,"bend":0.0,"ch":11,"track":17},{"t":3444.112,"dur":0.134,"note":71,"inst":"celesta_v0_additive_3","vel":1.0,"bend":0.0,"ch":7,"track":17},{"t":3444.246,"dur":0.134,"note":66,"inst":"harpsichord_v0_additive_2","vel":1.0,"bend":0.0,"ch":2,"track":17},{"t":3444.246,"dur":0.134,"note":68,"inst":"piano_v0_additive_0","vel":1.0,"bend":0.0,"ch":4,"track":17},{"t":3444.381,"dur":0.269,"note":42,"inst":"harpsichord_v0_additive_2","vel":1.0,"bend":0.0,"ch":10,"track":17},{"t":3444.381,"dur":0.134,"note":64,"inst":"piano_v0_additive_0","vel":1.0,"bend":0.0,"ch":0,"track":17},{"t":3444.515,"dur":0.134,"note":62,"inst":"harpsichord_v0_additive_2","vel":1.0,"bend":0.0,"ch":14,"track":17},{"t":3444.649,"dur":0.269,"note":44,"inst":"piano_v0_additive_0","vel":1.0,"bend":0.0,"ch":12,"track":17},{"t":3444.649,"dur":0.134,"note":68,"inst":"piano_v0_additive_0","vel":1.0,"bend":0.0,"ch":4,"track":17},{"t":3444.783,"dur":0.134,"note":69,"inst":"organ_v0_additive_1","vel":1.0,"bend":0.0,"ch":5,"track":17},{"t":3444.783,"dur":0.134,"note":73,"inst":"organ_v0_additive_1","vel":1.0,"bend":0.0,"ch":9,"track":17},{"t":3444.918,"dur":0.269,"note":32,"inst":"piano_v0_additive_0","vel":1.0,"bend":0.0,"ch":0,"track":17},{"t":3444.918,"dur":0.134,"note":62,"inst":"harpsichord_v0_additive_2","vel":1.0,"bend":0.0,"ch":14,"track":17},{"t":3445.052,"dur":0.134,"note":62,"inst":"harpsichord_v0_additive_2","vel":1.0,"bend":0.0,"ch":14,"track":17},{"t":3445.186,"dur":0.269,"note":38,"inst":"harpsichord_v0_additive_2","vel":1.0,"bend":0.0,"ch":6,"track":17},{"t":3445.186,"dur":0.134,"note":66,"inst":"harpsichord_v0_additive_2","vel":1.0,"bend":0.0,"ch":2,"track":17},{"t":3445.321,"dur":0.134,"note":68,"inst":"piano_v0_additive_0","vel":1.0,"bend":0.0,"ch":4,"track":17},{"t":3445.321,"dur":0.134,"note":59,"inst":"celesta_v0_additive_3","vel":1.0,"bend":0.0,"ch":11,"track":17},{"t":3445.455,"dur":0.269,"note":35,"inst":"celesta_v0_additive_3","vel":1.0,"bend":0.0,"ch":3,"track":17},{"t":3445.455,"dur":0.134,"note":62,"inst":"harpsichord_v0_additive_2","vel":1.0,"bend":0.0,"ch":14,"track":17},{"t":3445.455,"dur":0.134,"note":64,"inst":"piano_v0_additive_0","vel":1.0,"bend":0.0,"ch":0,"track":17},{"t":3445.589,"dur":0.134,"note":62,"inst":"harpsichord_v0_additive_2","vel":1.0,"bend":0.0,"ch":14,"track":17},{"t":3445.589,"dur":0.134,"note":62,"inst":"harpsichord_v0_additive_2","vel":1.0,"bend":0.0,"ch":14,"track":17},{"t":3445.723,"dur":0.269,"note":49,"inst":"organ_v0_additive_1","vel":1.0,"bend":0.0,"ch":1,"track":17},{"t":3445.723,"dur":0.134,"note":62,"inst":"harpsichord_v0_additive_2","vel":1.0,"bend":0.0,"ch":14,"track":17},{"t":3445.723,"dur":0.134,"note":66,"inst":"harpsichord_v0_additive_2","vel":1.0,"bend":0.0,"ch":2,"track":17},{"t":3445.858,"dur":0.134,"note":64,"inst":"piano_v0_additive_0","vel":1.0,"bend":0.0,"ch":0,"track":17},{"t":3445.858,"dur":0.134,"note":66,"inst":"harpsichord_v0_additive_2","vel":1.0,"bend":0.0,"ch":2,"track":17},{"t":3445.992,"dur":0.269,"note":38,"inst":"harpsichord_v0_additive_2","vel":1.0,"bend":0.0,"ch":6,"track":17},{"t":3445.992,"dur":0.134,"note":68,"inst":"piano_v0_additive_0","vel":1.0,"bend":0.0,"ch":4,"track":17},{"t":3445.992,"dur":0.134,"note":59,"inst":"celesta_v0_additive_3","vel":1.0,"bend":0.0,"ch":11,"track":17},{"t":3446.126,"dur":0.134,"note":71,"inst":"celesta_v0_additive_3","vel":1.0,"bend":0.0,"ch":7,"track":17},{"t":3446.126,"dur":0.134,"note":73,"inst":"organ_v0_additive_1","vel":1.0,"bend":0.0,"ch":9,"track":17},{"t":3446.26,"dur":0.269,"note":44,"inst":"piano_v0_additive_0","vel":1.0,"bend":0.0,"ch":12,"track":17},{"t":3446.26,"dur":0.134,"note":59,"inst":"celesta_v0_additive_3","vel":1.0,"bend":0.0,"ch":11,"track":17},{"t":3446.26,"dur":0.134,"note":71,"inst":"celesta_v0_additive_3","vel":1.0,"bend":0.0,"ch":7,"track":17},{"t":3446.395,"dur":0.201,"note":66,"inst":"harpsichord_v0_additive_2","vel":1.0,"bend":0.0,"ch":2,"track":17},{"t":3446.395,"dur":0.201,"note":68,"inst":"piano_v0_additive_0","vel":1.0,"bend":0.0,"ch":4,"track":17},{"t":3446.529,"dur":0.269,"note":35,"inst":"celesta_v0_additive_3","vel":1.0,"bend":0.0,"ch":3,"track":17},{"t":3446.663,"dur":0.269,"note":68,"inst":"piano_v0_additive_0","vel":1.0,"bend":0.0,"ch":4,"track":17},{"t":3446.798,"dur":0.269,"note":47,"inst":"celesta_v0_additive_3","vel":1.0,"bend":0.0,"ch":15,"track":17},{"t":3446.932,"dur":0.269,"note":62,"inst":"harpsichord_v0_additive_2","vel":1.0,"bend":0.0,"ch":14,"track":17},{"t":3447.066,"dur":0.269,"note":47,"inst":"celesta_v0_additive_3","vel":1.0,"bend":0.0,"ch":15,"track":17},{"t":3447.2,"dur":0.269,"note":64,"inst":"piano_v0_additive_0","vel":1.0,"bend":0.0,"ch":0,"track":17},{"t":3447.335,"dur":0.269,"note":49,"inst":"organ_v0_additive_1","vel":1.0,"bend":0.0,"ch":1,"track":17},{"t":3447.469,"dur":0.269,"note":59,"inst":"celesta_v0_additive_3","vel":1.0,"bend":0.0,"ch":11,"track":17},{"t":3447.603,"dur":0.269,"note":50,"inst":"harpsichord_v0_additive_2","vel":1.0,"bend":0.0,"ch":2,"track":17},{"t":3447.738,"dur":0.134,"note":61,"inst":"organ_v0_additive_1","vel":1.0,"bend":0.0,"ch":13,"track":17},{"t":3447.872,"dur":0.269,"note":52,"inst":"piano_v0_additive_0","vel":1.0,"bend":0.0,"ch":4,"track":17},{"t":3447.872,"dur":0.134,"note":59,"inst":"celesta_v0_additive_3","vel":1.0,"bend":0.0,"ch":11,"track":17},{"t":3448.006,"dur":0.134,"note":56,"inst":"piano_v0_additive_0","vel":1.0,"bend":0.0,"ch":8,"track":17},{"t":3448.006,"dur":0.134,"note":57,"inst":"organ_v0_additive_1","vel":1.0,"bend":0.0,"ch":9,"track":17},{"t":3448.14,"dur":0.269,"note":49,"inst":"organ_v0_additive_1","vel":1.0,"bend":0.0,"ch":1,"track":17},{"t":3448.14,"dur":0.134,"note":57,"inst":"organ_v0_additive_1","vel":1.0,"bend":0.0,"ch":9,"track":17},{"t":3448.275,"dur":0.134,"note":61,"inst":"organ_v0_additive_1","vel":1.0,"bend":0.0,"ch":13,"track":17},{"t":3448.409,"dur":0.269,"note":35,"inst":"celesta_v0_additive_3","vel":1.0,"bend":0.0,"ch":3,"track":17},{"t":3448.409,"dur":0.134,"note":54,"inst":"harpsichord_v0_additive_2","vel":1.0,"bend":0.0,"ch":6,"track":17},{"t":3448.409,"dur":0.134,"note":64,"inst":"piano_v0_additive_0","vel":1.0,"bend":0.0,"ch":0,"track":17},{"t":3448.543,"dur":0.134,"note":61,"inst":"organ_v0_additive_1","vel":1.0,"bend":0.0,"ch":13,"track":17},{"t":3448.543,"dur":0.134,"note":62,"inst":"harpsichord_v0_additive_2","vel":1.0,"bend":0.0,"ch":14,"track":17},{"t":3448.678,"dur":0.269,"note":44,"inst":"piano_v0_additive_0","vel":1.0,"bend":0.0,"ch":12,"track":17},{"t":3448.678,"dur":0.134,"note":71,"inst":"celesta_v0_additive_3","vel":1.0,"bend":0.0,"ch":7,"track":17},{"t":3448.812,"dur":0.134,"note":59,"inst":"celesta_v0_additive_3","vel":1.0,"bend":0.0,"ch":11,"track":17},{"t":3448.946,"dur":0.269,"note":50,"inst":"harpsichord_v0_additive_2","vel":1.0,"bend":0.0,"ch":2,"track":17},{"t":3448.946,"dur":0.269,"note":68,"inst":"piano_v0_additive_0","vel":1.0,"bend":0.0,"ch":4,"track":17},{"t":3449.215,"dur":0.269,"note":38,"inst":"harpsichord_v0_additive_2","vel":1.0,"bend":0.0,"ch":6,"track":17},{"t":3449.215,"dur":0.134,"note":66,"inst":"harpsichord_v0_additive_2","vel":1.0,"bend":0.0,"ch":2,"track":17},{"t":3449.349,"dur":0.134,"note":68,"inst":"piano_v0_additive_0","vel":1.0,"bend":0.0,"ch":4,"track":17},{"t":3449.483,"dur":0.269,"note":44,"inst":"piano_v0_additive_0","vel":1.0,"bend":0.0,"ch":12,"track":17},{"t":3449.483,"dur":0.537,"note":68,"inst":"piano_v0_additive_0","vel":1.0,"bend":0.0,"ch":4,"track":17},{"t":3449.752,"dur":0.269,"note":35,"inst":"celesta_v0_additive_3","vel":1.0,"bend":0.0,"ch":3,"track":17},{"t":3450.02,"dur":0.269,"note":47,"inst":"celesta_v0_additive_3","vel":1.0,"bend":0.0,"ch":15,"track":17},{"t":3450.02,"dur":0.134,"note":66,"inst":"harpsichord_v0_additive_2","vel":1.0,"bend":0.0,"ch":2,"track":17},{"t":3450.155,"dur":0.134,"note":68,"inst":"piano_v0_additive_0","vel":1.0,"bend":0.0,"ch":4,"track":17},{"t":3450.155,"dur":0.134,"note":69,"inst":"organ_v0_additive_1","vel":1.0,"bend":0.0,"ch":5,"track":17},{"t":3450.289,"dur":0.269,"note":44,"inst":"piano_v0_additive_0","vel":1.0,"bend":0.0,"ch":12,"track":17},{"t":3450.289,"dur":0.134,"note":66,"inst":"harpsichord_v0_additive_2","vel":1.0,"bend":0.0,"ch":2,"track":17},{"t":3450.289,"dur":0.134,"note":68,"inst":"piano_v0_additive_0","vel":1.0,"bend":0.0,"ch":4,"track":17},{"t":3450.423,"dur":0.134,"note":62,"inst":"harpsichord_v0_additive_2","vel":1.0,"bend":0.0,"ch":14,"track":17},{"t":3450.423,"dur":0.134,"note":64,"inst":"piano_v0_additive_0","vel":1.0,"bend":0.0,"ch":0,"track":17},{"t":3450.557,"dur":0.269,"note":49,"inst":"organ_v0_additive_1","vel":1.0,"bend":0.0,"ch":1,"track":17},{"t":3450.557,"dur":0.134,"note":64,"inst":"piano_v0_additive_0","vel":1.0,"bend":0.0,"ch":0,"track":17},{"t":3450.557,"dur":0.134,"note":66,"inst":"harpsichord_v0_additive_2","vel":1.0,"bend":0.0,"ch":2,"track":17},{"t":3450.692,"dur":0.134,"note":61,"inst":"organ_v0_additive_1","vel":1.0,"bend":0.0,"ch":13,"track":17},{"t":3450.692,"dur":0.134,"note":62,"inst":"harpsichord_v0_additive_2","vel":1.0,"bend":0.0,"ch":14,"track":17},{"t":3450.826,"dur":0.269,"note":52,"inst":"piano_v0_additive_0","vel":1.0,"bend":0.0,"ch":4,"track":17},{"t":3450.826,"dur":0.269,"note":68,"inst":"piano_v0_additive_0","vel":1.0,"bend":0.0,"ch":4,"track":17},{"t":3451.095,"dur":0.269,"note":49,"inst":"organ_v0_additive_1","vel":1.0,"bend":0.0,"ch":1,"track":17},{"t":3451.095,"dur":0.134,"note":64,"inst":"piano_v0_additive_0","vel":1.0,"bend":0.0,"ch":0,"track":17},{"t":3451.229,"dur":0.134,"note":66,"inst":"harpsichord_v0_additive_2","vel":1.0,"bend":0.0,"ch":2,"track":17},{"t":3451.229,"dur":0.134,"note":68,"inst":"piano_v0_additive_0","vel":1.0,"bend":0.0,"ch":4,"track":17},{"t":3451.363,"dur":0.269,"note":35,"inst":"celesta_v0_additive_3","vel":1.0,"bend":0.0,"ch":3,"track":17},{"t":3451.363,"dur":0.134,"note":64,"inst":"piano_v0_additive_0","vel":1.0,"bend":0.0,"ch":0,"track":17},{"t":3451.363,"dur":0.134,"note":66,"inst":"harpsichord_v0_additive_2","vel":1.0,"bend":0.0,"ch":2,"track":17},{"t":3451.497,"dur":0.134,"note":61,"inst":"organ_v0_additive_1","vel":1.0,"bend":0.0,"ch":13,"track":17},{"t":3451.497,"dur":0.134,"note":62,"inst":"harpsichord_v0_additive_2","vel":1.0,"bend":0.0,"ch":14,"track":17},{"t":3451.632,"dur":0.269,"note":47,"inst":"celesta_v0_additive_3","vel":1.0,"bend":0.0,"ch":15,"track":17},{"t":3451.632,"dur":0.134,"note":62,"inst":"harpsichord_v0_additive_2","vel":1.0,"bend":0.0,"ch":14,"track":17},{"t":3451.632,"dur":0.134,"note":64,"inst":"piano_v0_additive_0","vel":1.0,"bend":0.0,"ch":0,"track":17},{"t":3451.766,"dur":0.134,"note":59,"inst":"celesta_v0_additive_3","vel":1.0,"bend":0.0,"ch":11,"track":17},{"t":3451.766,"dur":0.134,"note":61,"inst":"organ_v0_additive_1","vel":1.0,"bend":0.0,"ch":13,"track":17},{"t":3451.9,"dur":0.269,"note":50,"inst":"harpsichord_v0_additive_2","vel":1.0,"bend":0.0,"ch":2,"track":17},{"t":3451.9,"dur":0.269,"note":68,"inst":"piano_v0_additive_0","vel":1.0,"bend":0.0,"ch":4,"track":17},{"t":3452.169,"dur":0.269,"note":47,"inst":"celesta_v0_additive_3","vel":1.0,"bend":0.0,"ch":15,"track":17},{"t":3452.169,"dur":0.134,"note":62,"inst":"harpsichord_v0_additive_2","vel":1.0,"bend":0.0,"ch":14,"track":17},{"t":3452.303,"dur":0.134,"note":64,"inst":"piano_v0_additive_0","vel":1.0,"bend":0.0,"ch":0,"track":17},{"t":3452.303,"dur":0.134,"note":66,"inst":"harpsichord_v0_additive_2","vel":1.0,"bend":0.0,"ch":2,"track":17},{"t":3452.437,"dur":0.269,"note":44,"inst":"piano_v0_additive_0","vel":1.0,"bend":0.0,"ch":12,"track":17},{"t":3452.437,"dur":0.134,"note":62,"inst":"harpsichord_v0_additive_2","vel":1.0,"bend":0.0,"ch":14,"track":17},{"t":3452.437,"dur":0.134,"note":64,"inst":"piano_v0_additive_0","vel":1.0,"bend":0.0,"ch":0,"track":17},{"t":3452.572,"dur":0.134,"note":59,"inst":"celesta_v0_additive_3","vel":1.0,"bend":0.0,"ch":11,"track":17},{"t":3452.572,"dur":0.134,"note":61,"inst":"organ_v0_additive_1","vel":1.0,"bend":0.0,"ch":13,"track":17},{"t":3452.706,"dur":0.269,"note":35,"inst":"celesta_v0_additive_3","vel":1.0,"bend":0.0,"ch":3,"track":17},{"t":3452.706,"dur":0.134,"note":61,"inst":"organ_v0_additive_1","vel":1.0,"bend":0.0,"ch":13,"track":17},{"t":3452.706,"dur":0.134,"note":62,"inst":"harpsichord_v0_additive_2","vel":1.0,"bend":0.0,"ch":14,"track":17},{"t":3452.84,"dur":0.134,"note":57,"inst":"organ_v0_additive_1","vel":1.0,"bend":0.0,"ch":9,"track":17},{"t":3452.84,"dur":0.134,"note":59,"inst":"celesta_v0_additive_3","vel":1.0,"bend":0.0,"ch":11,"track":17},{"t":3452.974,"dur":0.269,"note":49,"inst":"organ_v0_additive_1","vel":1.0,"bend":0.0,"ch":1,"track":17},{"t":3452.974,"dur":0.269,"note":68,"inst":"piano_v0_additive_0","vel":1.0,"bend":0.0,"ch":4,"track":17},{"t":3453.243,"dur":0.269,"note":35,"inst":"celesta_v0_additive_3","vel":1.0,"bend":0.0,"ch":3,"track":17},{"t":3453.243,"dur":0.134,"note":61,"inst":"organ_v0_additive_1","vel":1.0,"bend":0.0,"ch":13,"track":17},{"t":3453.377,"dur":0.134,"note":62,"inst":"harpsichord_v0_additive_2","vel":1.0,"bend":0.0,"ch":14,"track":17},{"t":3453.377,"dur":0.134,"note":64,"inst":"piano_v0_additive_0","vel":1.0,"bend":0.0,"ch":0,"track":17},{"t":3453.512,"dur":0.269,"note":42,"inst":"harpsichord_v0_additive_2","vel":1.0,"bend":0.0,"ch":10,"track":17},{"t":3453.512,"dur":0.134,"note":61,"inst":"organ_v0_additive_1","vel":1.0,"bend":0.0,"ch":13,"track":17},{"t":3453.512,"dur":0.134,"note":62,"inst":"harpsichord_v0_additive_2","vel":1.0,"bend":0.0,"ch":14,"track":17},{"t":3453.646,"dur":0.134,"note":57,"inst":"organ_v0_additive_1","vel":1.0,"bend":0.0,"ch":9,"track":17},{"t":3453.646,"dur":0.134,"note":59,"inst":"celesta_v0_additive_3","vel":1.0,"bend":0.0,"ch":11,"track":17},{"t":3453.78,"dur":0.269,"note":44,"inst":"piano_v0_additive_0","vel":1.0,"bend":0.0,"ch":12,"track":17},{"t":3453.78,"dur":0.134,"note":59,"inst":"celesta_v0_additive_3","vel":1.0,"bend":0.0,"ch":11,"track":17},{"t":3453.78,"dur":0.134,"note":61,"inst":"organ_v0_additive_1","vel":1.0,"bend":0.0,"ch":13,"track":17},{"t":3453.914,"dur":0.134,"note":56,"inst":"piano_v0_additive_0","vel":1.0,"bend":0.0,"ch":8,"track":17},{"t":3453.914,"dur":0.134,"note":47,"inst":"celesta_v0_additive_3","vel":1.0,"bend":0.0,"ch":15,"track":17},{"t":3454.049,"dur":0.269,"note":47,"inst":"celesta_v0_additive_3","vel":1.0,"bend":0.0,"ch":15,"track":17},{"t":3454.049,"dur":0.269,"note":68,"inst":"piano_v0_additive_0","vel":1.0,"bend":0.0,"ch":4,"track":17},{"t":3454.317,"dur":0.269,"note":44,"inst":"piano_v0_additive_0","vel":1.0,"bend":0.0,"ch":12,"track":17},{"t":3454.317,"dur":0.134,"note":59,"inst":"celesta_v0_additive_3","vel":1.0,"bend":0.0,"ch":11,"track":17},{"t":3454.452,"dur":0.134,"note":61,"inst":"organ_v0_additive_1","vel":1.0,"bend":0.0,"ch":13,"track":17},{"t":3454.452,"dur":0.134,"note":62,"inst":"harpsichord_v0_additive_2","vel":1.0,"bend":0.0,"ch":14,"track":17},{"t":3454.586,"dur":0.269,"note":40,"inst":"piano_v0_additive_0","vel":1.0,"bend":0.0,"ch":8,"track":17},{"t":3454.586,"dur":0.134,"note":59,"inst":"celesta_v0_additive_3","vel":1.0,"bend":0.0,"ch":11,"track":17},{"t":3454.586,"dur":0.134,"note":61,"inst":"organ_v0_additive_1","vel":1.0,"bend":0.0,"ch":13,"track":17},{"t":3454.72,"dur":0.134,"note":56,"inst":"piano_v0_additive_0","vel":1.0,"bend":0.0,"ch":8,"track":17},{"t":3454.72,"dur":0.134,"note":47,"inst":"celesta_v0_additive_3","vel":1.0,"bend":0.0,"ch":15,"track":17},{"t":3524.433,"dur":0.464,"note":46,"inst":"harpsichord_v0_additive_2","vel":0.709,"bend":0.0,"ch":14,"track":17},{"t":3524.433,"dur":0.618,"note":51,"inst":"celesta_v0_additive_3","vel":0.709,"bend":0.0,"ch":3,"track":17},{"t":3524.433,"dur":0.464,"note":60,"inst":"piano_v0_additive_0","vel":0.709,"bend":0.0,"ch":12,"track":17},{"t":3524.742,"dur":0.309,"note":36,"inst":"piano_v0_additive_0","vel":0.709,"bend":0.0,"ch":4,"track":17},{"t":3524.897,"dur":0.155,"note":43,"inst":"celesta_v0_additive_3","vel":0.709,"bend":0.0,"ch":11,"track":17},{"t":3524.897,"dur":0.077,"note":63,"inst":"celesta_v0_additive_3","vel":0.709,"bend":0.0,"ch":15,"track":17},{"t":3524.974,"dur":0.077,"note":58,"inst":"harpsichord_v0_additive_2","vel":0.709,"bend":0.0,"ch":10,"track":17},{"t":3525.051,"dur":0.309,"note":29,"inst":"organ_v0_additive_1","vel":0.709,"bend":0.0,"ch":13,"track":17},{"t":3525.051,"dur":0.155,"note":41,"inst":"organ_v0_additive_1","vel":0.756,"bend":0.0,"ch":9,"track":17},{"t":3525.051,"dur":0.155,"note":53,"inst":"organ_v0_additive_1","vel":0.709,"bend":0.0,"ch":5,"track":17},{"t":3525.051,"dur":0.309,"note":46,"inst":"harpsichord_v0_additive_2","vel":0.709,"bend":0.0,"ch":14,"track":17},{"t":3525.206,"dur":0.155,"note":53,"inst":"organ_v0_additive_1","vel":0.756,"bend":0.0,"ch":5,"track":17},{"t":3525.206,"dur":0.155,"note":46,"inst":"harpsichord_v0_additive_2","vel":0.756,"bend":0.0,"ch":14,"track":17},{"t":3525.36,"dur":0.309,"note":24,"inst":"piano_v0_additive_0","vel":0.709,"bend":0.0,"ch":8,"track":17},{"t":3525.36,"dur":0.155,"note":53,"inst":"organ_v0_additive_1","vel":0.756,"bend":0.0,"ch":5,"track":17},{"t":3525.36,"dur":0.155,"note":46,"inst":"harpsichord_v0_additive_2","vel":0.756,"bend":0.0,"ch":14,"track":17},{"t":3525.515,"dur":0.155,"note":53,"inst":"organ_v0_additive_1","vel":0.756,"bend":0.0,"ch":5,"track":17},{"t":3525.515,"dur":0.155,"note":46,"inst":"harpsichord_v0_additive_2","vel":0.756,"bend":0.0,"ch":14,"track":17},{"t":3525.669,"dur":0.309,"note":36,"inst":"piano_v0_additive_0","vel":0.709,"bend":0.0,"ch":4,"track":17},{"t":3525.669,"dur":0.155,"note":53,"inst":"organ_v0_additive_1","vel":0.756,"bend":0.0,"ch":5,"track":17},{"t":3525.669,"dur":0.155,"note":46,"inst":"harpsichord_v0_additive_2","vel":0.756,"bend":0.0,"ch":14,"track":17},{"t":3525.824,"dur":0.155,"note":53,"inst":"organ_v0_additive_1","vel":0.756,"bend":0.0,"ch":5,"track":17},{"t":3525.824,"dur":0.155,"note":46,"inst":"harpsichord_v0_additive_2","vel":0.756,"bend":0.0,"ch":14,"track":17},{"t":3525.979,"dur":0.309,"note":41,"inst":"organ_v0_additive_1","vel":0.709,"bend":0.0,"ch":9,"track":17},{"t":3525.979,"dur":0.155,"note":53,"inst":"organ_v0_additive_1","vel":0.756,"bend":0.0,"ch":5,"track":17},{"t":3525.979,"dur":0.155,"note":46,"inst":"harpsichord_v0_additive_2","vel":0.756,"bend":0.0,"ch":14,"track":17},{"t":3525.979,"dur":0.232,"note":65,"inst":"organ_v0_additive_1","vel":0.756,"bend":0.0,"ch":1,"track":17},{"t":3526.133,"dur":0.155,"note":53,"inst":"organ_v0_additive_1","vel":0.756,"bend":0.0,"ch":5,"track":17},{"t":3526.133,"dur":0.155,"note":46,"inst":"harpsichord_v0_additive_2","vel":0.756,"bend":0.0,"ch":14,"track":17},{"t":3526.21,"dur":0.077,"note":65,"inst":"organ_v0_additive_1","vel":0.756,"bend":0.0,"ch":1,"track":17},{"t":3526.288,"dur":0.309,"note":34,"inst":"harpsichord_v0_additive_2","vel":0.709,"bend":0.0,"ch":2,"track":17},{"t":3526.288,"dur":0.155,"note":53,"inst":"organ_v0_additive_1","vel":0.709,"bend":0.0,"ch":5,"track":17},{"t":3526.288,"dur":0.155,"note":60,"inst":"piano_v0_additive_0","vel":0.709,"bend":0.0,"ch":12,"track":17},{"t":3526.288,"dur":0.773,"note":75,"inst":"celesta_v0_additive_3","vel":0.709,"bend":0.0,"ch":11,"track":17},{"t":3526.442,"dur":0.155,"note":53,"inst":"organ_v0_additive_1","vel":0.709,"bend":0.0,"ch":5,"track":17},{"t":3526.442,"dur":0.155,"note":60,"inst":"piano_v0_additive_0","vel":0.709,"bend":0.0,"ch":12,"track":17},{"t":3526.597,"dur":0.309,"note":48,"inst":"piano_v0_additive_0","vel":0.709,"bend":0.0,"ch":0,"track":17},{"t":3526.597,"dur":0.155,"note":46,"inst":"harpsichord_v0_additive_2","vel":0.709,"bend":0.0,"ch":14,"track":17},{"t":3526.597,"dur":0.155,"note":60,"inst":"piano_v0_additive_0","vel":0.709,"bend":0.0,"ch":12,"track":17},{"t":3526.751,"dur":0.155,"note":46,"inst":"harpsichord_v0_additive_2","vel":0.709,"bend":0.0,"ch":14,"track":17},{"t":3526.751,"dur":0.155,"note":60,"inst":"piano_v0_additive_0","vel":0.709,"bend":0.0,"ch":12,"track":17},{"t":3526.906,"dur":0.309,"note":53,"inst":"organ_v0_additive_1","vel":0.709,"bend":0.0,"ch":5,"track":17},{"t":3526.906,"dur":0.155,"note":46,"inst":"harpsichord_v0_additive_2","vel":0.709,"bend":0.0,"ch":14,"track":17},{"t":3526.906,"dur":0.155,"note":60,"inst":"piano_v0_additive_0","vel":0.709,"bend":0.0,"ch":12,"track":17},{"t":3527.061,"dur":0.155,"note":46,"inst":"harpsichord_v0_additive_2","vel":0.709,"bend":0.0,"ch":14,"track":17},{"t":3527.061,"dur":0.155,"note":60,"inst":"piano_v0_additive_0","vel":0.709,"bend":0.0,"ch":12,"track":17},{"t":3527.061,"dur":0.077,"note":75,"inst":"celesta_v0_additive_3","vel":0.709,"bend":0.0,"ch":11,"track":17},{"t":3527.138,"dur":0.077,"note":75,"inst":"celesta_v0_additive_3","vel":0.709,"bend":0.0,"ch":11,"track":17},{"t":3527.215,"dur":0.155,"note":46,"inst":"harpsichord_v0_additive_2","vel":0.709,"bend":0.0,"ch":14,"track":17},{"t":3527.215,"dur":0.309,"note":46,"inst":"harpsichord_v0_additive_2","vel":0.709,"bend":0.0,"ch":14,"track":17},{"t":3527.215,"dur":0.155,"note":60,"inst":"piano_v0_additive_0","vel":0.709,"bend":0.0,"ch":12,"track":17},{"t":3527.215,"dur":0.077,"note":75,"inst":"celesta_v0_additive_3","vel":0.709,"bend":0.0,"ch":11,"track":17},{"t":3527.292,"dur":0.077,"note":75,"inst":"celesta_v0_additive_3","vel":0.709,"bend":0.0,"ch":11,"track":17},{"t":3527.37,"dur":0.155,"note":46,"inst":"harpsichord_v0_additive_2","vel":0.709,"bend":0.0,"ch":14,"track":17},{"t":3527.37,"dur":0.155,"note":60,"inst":"piano_v0_additive_0","vel":0.709,"bend":0.0,"ch":12,"track":17},{"t":3527.37,"dur":0.077,"note":77,"inst":"organ_v0_additive_1","vel":0.709,"bend":0.0,"ch":13,"track":17},{"t":3527.447,"dur":0.077,"note":75,"inst":"celesta_v0_additive_3","vel":0.709,"bend":0.0,"ch":11,"track":17},{"t":3527.524,"dur":0.309,"note":29,"inst":"organ_v0_additive_1","vel":0.709,"bend":0.0,"ch":13,"track":17},{"t":3527.524,"dur":0.155,"note":58,"inst":"harpsichord_v0_additive_2","vel":0.709,"bend":0.0,"ch":10,"track":17},{"t":3527.524,"dur":0.155,"note":63,"inst":"celesta_v0_additive_3","vel":0.709,"bend":0.0,"ch":15,"track":17},{"t":3527.524,"dur":0.309,"note":75,"inst":"celesta_v0_additive_3","vel":0.709,"bend":0.0,"ch":11,"track":17},{"t":3527.679,"dur":0.155,"note":58,"inst":"harpsichord_v0_additive_2","vel":0.709,"bend":0.0,"ch":10,"track":17},{"t":3527.679,"dur":0.155,"note":63,"inst":"celesta_v0_additive_3","vel":0.709,"bend":0.0,"ch":15,"track":17},{"t":3527.833,"dur":0.309,"note":34,"inst":"harpsichord_v0_additive_2","vel":0.709,"bend":0.0,"ch":2,"track":17},{"t":3527.833,"dur":0.155,"note":58,"inst":"harpsichord_v0_additive_2","vel":0.709,"bend":0.0,"ch":10,"track":17},{"t":3527.833,"dur":0.155,"note":63,"inst":"celesta_v0_additive_3","vel":0.709,"bend":0.0,"ch":15,"track":17},{"t":3527.988,"dur":0.155,"note":58,"inst":"harpsichord_v0_additive_2","vel":0.709,"bend":0.0,"ch":10,"track":17},{"t":3527.988,"dur":0.155,"note":63,"inst":"celesta_v0_additive_3","vel":0.709,"bend":0.0,"ch":15,"track":17},{"t":3528.143,"dur":0.309,"note":39,"inst":"celesta_v0_additive_3","vel":0.709,"bend":0.0,"ch":7,"track":17},{"t":3528.143,"dur":0.155,"note":58,"inst":"harpsichord_v0_additive_2","vel":0.709,"bend":0.0,"ch":10,"track":17},{"t":3528.143,"dur":0.155,"note":63,"inst":"celesta_v0_additive_3","vel":0.709,"bend":0.0,"ch":15,"track":17},{"t":3528.297,"dur":0.155,"note":58,"inst":"harpsichord_v0_additive_2","vel":0.709,"bend":0.0,"ch":10,"track":17},{"t":3528.297,"dur":0.155,"note":63,"inst":"celesta_v0_additive_3","vel":0.709,"bend":0.0,"ch":15,"track":17},{"t":3528.452,"dur":0.309,"note":41,"inst":"organ_v0_additive_1","vel":0.709,"bend":0.0,"ch":9,"track":17},{"t":3528.452,"dur":0.155,"note":58,"inst":"harpsichord_v0_additive_2","vel":0.709,"bend":0.0,"ch":10,"track":17},{"t":3528.452,"dur":0.155,"note":63,"inst":"celesta_v0_additive_3","vel":0.709,"bend":0.0,"ch":15,"track":17},{"t":3528.452,"dur":0.232,"note":75,"inst":"celesta_v0_additive_3","vel":0.756,"bend":0.0,"ch":11,"track":17},{"t":3528.606,"dur":0.155,"note":58,"inst":"harpsichord_v0_additive_2","vel":0.709,"bend":0.0,"ch":10,"track":17},{"t":3528.606,"dur":0.155,"note":63,"inst":"celesta_v0_additive_3","vel":0.709,"bend":0.0,"ch":15,"track":17},{"t":3528.684,"dur":0.077,"note":75,"inst":"celesta_v0_additive_3","vel":0.756,"bend":0.0,"ch":11,"track":17},{"t":3528.761,"dur":0.309,"note":29,"inst":"organ_v0_additive_1","vel":0.709,"bend":0.0,"ch":13,"track":17},{"t":3528.761,"dur":0.155,"note":55,"inst":"celesta_v0_additive_3","vel":0.709,"bend":0.0,"ch":7,"track":17},{"t":3528.761,"dur":0.155,"note":58,"inst":"harpsichord_v0_additive_2","vel":0.709,"bend":0.0,"ch":10,"track":17},{"t":3528.761,"dur":0.155,"note":63,"inst":"celesta_v0_additive_3","vel":0.709,"bend":0.0,"ch":15,"track":17},{"t":3528.761,"dur":0.773,"note":82,"inst":"harpsichord_v0_additive_2","vel":0.709,"bend":0.0,"ch":2,"track":17},{"t":3528.915,"dur":0.155,"note":55,"inst":"celesta_v0_additive_3","vel":0.709,"bend":0.0,"ch":7,"track":17},{"t":3528.915,"dur":0.155,"note":58,"inst":"harpsichord_v0_additive_2","vel":0.709,"bend":0.0,"ch":10,"track":17},{"t":3528.915,"dur":0.155,"note":63,"inst":"celesta_v0_additive_3","vel":0.709,"bend":0.0,"ch":15,"track":17},{"t":3529.07,"dur":0.309,"note":51,"inst":"celesta_v0_additive_3","vel":0.709,"bend":0.0,"ch":3,"track":17},{"t":3529.07,"dur":0.155,"note":55,"inst":"celesta_v0_additive_3","vel":0.709,"bend":0.0,"ch":7,"track":17},{"t":3529.07,"dur":0.155,"note":58,"inst":"harpsichord_v0_additive_2","vel":0.709,"bend":0.0,"ch":10,"track":17},{"t":3529.07,"dur":0.155,"note":63,"inst":"celesta_v0_additive_3","vel":0.709,"bend":0.0,"ch":15,"track":17},{"t":3529.225,"dur":0.155,"note":55,"inst":"celesta_v0_additive_3","vel":0.709,"bend":0.0,"ch":7,"track":17},{"t":3529.225,"dur":0.155,"note":58,"inst":"harpsichord_v0_additive_2","vel":0.709,"bend":0.0,"ch":10,"track":17},{"t":3529.225,"dur":0.155,"note":63,"inst":"celesta_v0_additive_3","vel":0.709,"bend":0.0,"ch":15,"track":17},{"t":3529.379,"dur":0.155,"note":55,"inst":"celesta_v0_additive_3","vel":0.709,"bend":0.0,"ch":7,"track":17},{"t":3529.379,"dur":0.309,"note":55,"inst":"celesta_v0_additive_3","vel":0.709,"bend":0.0,"ch":7,"track":17},{"t":3529.379,"dur":0.155,"note":58,"inst":"harpsichord_v0_additive_2","vel":0.709,"bend":0.0,"ch":10,"track":17},{"t":3529.379,"dur":0.155,"note":63,"inst":"celesta_v0_additive_3","vel":0.709,"bend":0.0,"ch":15,"track":17},{"t":3529.534,"dur":0.155,"note":55,"inst":"celesta_v0_additive_3","vel":0.709,"bend":0.0,"ch":7,"track":17},{"t":3529.534,"dur":0.155,"note":58,"inst":"harpsichord_v0_additive_2","vel":0.709,"bend":0.0,"ch":10,"track":17},{"t":3529.534,"dur":0.155,"note":63,"inst":"celesta_v0_additive_3","vel":0.709,"bend":0.0,"ch":15,"track":17},{"t":3529.534,"dur":0.077,"note":70,"inst":"harpsichord_v0_additive_2","vel":0.709,"bend":0.0,"ch":6,"track":17},{"t":3529.611,"dur":0.077,"note":79,"inst":"celesta_v0_additive_3","vel":0.709,"bend":0.0,"ch":15,"track":17},{"t":3529.688,"dur":0.155,"note":58,"inst":"harpsichord_v0_additive_2","vel":0.709,"bend":0.0,"ch":10,"track":17},{"t":3529.688,"dur":0.309,"note":58,"inst":"harpsichord_v0_additive_2","vel":0.709,"bend":0.0,"ch":10,"track":17},{"t":3529.688,"dur":0.155,"note":67,"inst":"celesta_v0_additive_3","vel":0.709,"bend":0.0,"ch":3,"track":17},{"t":3529.688,"dur":0.077,"note":70,"inst":"harpsichord_v0_additive_2","vel":0.709,"bend":0.0,"ch":6,"track":17},{"t":3529.766,"dur":0.077,"note":79,"inst":"celesta_v0_additive_3","vel":0.709,"bend":0.0,"ch":15,"track":17},{"t":3529.843,"dur":0.155,"note":58,"inst":"harpsichord_v0_additive_2","vel":0.709,"bend":0.0,"ch":10,"track":17},{"t":3529.843,"dur":0.155,"note":67,"inst":"celesta_v0_additive_3","vel":0.709,"bend":0.0,"ch":3,"track":17},{"t":3529.843,"dur":0.077,"note":77,"inst":"organ_v0_additive_1","vel":0.709,"bend":0.0,"ch":13,"track":17},{"t":3529.92,"dur":0.077,"note":75,"inst":"celesta_v0_additive_3","vel":0.709,"bend":0.0,"ch":11,"track":17},{"t":3529.997,"dur":0.309,"note":29,"inst":"organ_v0_additive_1","vel":0.709,"bend":0.0,"ch":13,"track":17},{"t":3529.997,"dur":0.155,"note":46,"inst":"harpsichord_v0_additive_2","vel":0.709,"bend":0.0,"ch":14,"track":17},{"t":3529.997,"dur":0.155,"note":65,"inst":"organ_v0_additive_1","vel":0.709,"bend":0.0,"ch":1,"track":17},{"t":3529.997,"dur":0.309,"note":77,"inst":"organ_v0_additive_1","vel":0.709,"bend":0.0,"ch":13,"track":17},{"t":3530.152,"dur":0.155,"note":48,"inst":"piano_v0_additive_0","vel":0.709,"bend":0.0,"ch":0,"track":17},{"t":3530.152,"dur":0.155,"note":53,"inst":"organ_v0_additive_1","vel":0.709,"bend":0.0,"ch":5,"track":17},{"t":3530.152,"dur":0.155,"note":46,"inst":"harpsichord_v0_additive_2","vel":0.709,"bend":0.0,"ch":14,"track":17},{"t":3530.307,"dur":0.309,"note":24,"inst":"piano_v0_additive_0","vel":0.709,"bend":0.0,"ch":8,"track":17},{"t":3530.307,"dur":0.155,"note":48,"inst":"piano_v0_additive_0","vel":0.709,"bend":0.0,"ch":0,"track":17},{"t":3530.307,"dur":0.155,"note":53,"inst":"organ_v0_additive_1","vel":0.709,"bend":0.0,"ch":5,"track":17},{"t":3530.307,"dur":0.155,"note":46,"inst":"harpsichord_v0_additive_2","vel":0.709,"bend":0.0,"ch":14,"track":17},{"t":3530.461,"dur":0.155,"note":48,"inst":"piano_v0_additive_0","vel":0.709,"bend":0.0,"ch":0,"track":17},{"t":3530.461,"dur":0.155,"note":53,"inst":"organ_v0_additive_1","vel":0.709,"bend":0.0,"ch":5,"track":17},{"t":3530.461,"dur":0.155,"note":46,"inst":"harpsichord_v0_additive_2","vel":0.709,"bend":0.0,"ch":14,"track":17},{"t":3530.616,"dur":0.309,"note":36,"inst":"piano_v0_additive_0","vel":0.709,"bend":0.0,"ch":4,"track":17},{"t":3530.616,"dur":0.155,"note":48,"inst":"piano_v0_additive_0","vel":0.709,"bend":0.0,"ch":0,"track":17},{"t":3530.616,"dur":0.155,"note":53,"inst":"organ_v0_additive_1","vel":0.709,"bend":0.0,"ch":5,"track":17},{"t":3530.616,"dur":0.155,"note":46,"inst":"harpsichord_v0_additive_2","vel":0.709,"bend":0.0,"ch":14,"track":17},{"t":3530.77,"dur":0.155,"note":48,"inst":"piano_v0_additive_0","vel":0.709,"bend":0.0,"ch":0,"track":17},{"t":3530.77,"dur":0.155,"note":53,"inst":"organ_v0_additive_1","vel":0.709,"bend":0.0,"ch":5,"track":17},{"t":3530.77,"dur":0.155,"note":46,"inst":"harpsichord_v0_additive_2","vel":0.709,"bend":0.0,"ch":14,"track":17},{"t":3530.925,"dur":0.309,"note":41,"inst":"organ_v0_additive_1","vel":0.709,"bend":0.0,"ch":9,"track":17},{"t":3530.925,"dur":0.155,"note":48,"inst":"piano_v0_additive_0","vel":0.709,"bend":0.0,"ch":0,"track":17},{"t":3530.925,"dur":0.155,"note":53,"inst":"organ_v0_additive_1","vel":0.709,"bend":0.0,"ch":5,"track":17},{"t":3530.925,"dur":0.155,"note":46,"inst":"harpsichord_v0_additive_2","vel":0.709,"bend":0.0,"ch":14,"track":17},{"t":3530.925,"dur":0.232,"note":65,"inst":"organ_v0_additive_1","vel":0.756,"bend":0.0,"ch":1,"track":17},{"t":3531.079,"dur":0.155,"note":48,"inst":"piano_v0_additive_0","vel":0.709,"bend":0.0,"ch":0,"track":17},{"t":3531.079,"dur":0.155,"note":53,"inst":"organ_v0_additive_1","vel":0.709,"bend":0.0,"ch":5,"track":17},{"t":3531.079,"dur":0.155,"note":46,"inst":"harpsichord_v0_additive_2","vel":0.709,"bend":0.0,"ch":14,"track":17},{"t":3531.157,"dur":0.077,"note":65,"inst":"organ_v0_additive_1","vel":0.756,"bend":0.0,"ch":1,"track":17},{"t":3531.234,"dur":0.309,"note":34,"inst":"harpsichord_v0_additive_2","vel":0.709,"bend":0.0,"ch":2,"track":17},{"t":3531.234,"dur":0.155,"note":53,"inst":"organ_v0_additive_1","vel":0.709,"bend":0.0,"ch":5,"track":17},{"t":3531.234,"dur":0.155,"note":60,"inst":"piano_v0_additive_0","vel":0.709,"bend":0.0,"ch":12,"track":17},{"t":3531.234,"dur":0.773,"note":75,"inst":"celesta_v0_additive_3","vel":0.709,"bend":0.0,"ch":11,"track":17},{"t":3531.389,"dur":0.155,"note":53,"inst":"organ_v0_additive_1","vel":0.709,"bend":0.0,"ch":5,"track":17},{"t":3531.389,"dur":0.155,"note":60,"inst":"piano_v0_additive_0","vel":0.709,"bend":0.0,"ch":12,"track":17},{"t":3531.543,"dur":0.309,"note":48,"inst":"piano_v0_additive_0","vel":0.709,"bend":0.0,"ch":0,"track":17},{"t":3531.543,"dur":0.155,"note":46,"inst":"harpsichord_v0_additive_2","vel":0.709,"bend":0.0,"ch":14,"track":17},{"t":3531.543,"dur":0.155,"note":60,"inst":"piano_v0_additive_0","vel":0.709,"bend":0.0,"ch":12,"track":17},{"t":3531.698,"dur":0.155,"note":46,"inst":"harpsichord_v0_additive_2","vel":0.709,"bend":0.0,"ch":14,"track":17},{"t":3531.698,"dur":0.155,"note":60,"inst":"piano_v0_additive_0","vel":0.709,"bend":0.0,"ch":12,"track":17},{"t":3531.852,"dur":0.309,"note":53,"inst":"organ_v0_additive_1","vel":0.709,"bend":0.0,"ch":5,"track":17},{"t":3531.852,"dur":0.155,"note":46,"inst":"harpsichord_v0_additive_2","vel":0.709,"bend":0.0,"ch":14,"track":17},{"t":3531.852,"dur":0.155,"note":60,"inst":"piano_v0_additive_0","vel":0.709,"bend":0.0,"ch":12,"track":17},{"t":3532.007,"dur":0.155,"note":46,"inst":"harpsichord_v0_additive_2","vel":0.709,"bend":0.0,"ch":14,"track":17},{"t":3532.007,"dur":0.155,"note":60,"inst":"piano_v0_additive_0","vel":0.709,"bend":0.0,"ch":12,"track":17},{"t":3532.007,"dur":0.077,"note":75,"inst":"celesta_v0_additive_3","vel":0.709,"bend":0.0,"ch":11,"track":17},{"t":3532.084,"dur":0.077,"note":75,"inst":"celesta_v0_additive_3","vel":0.709,"bend":0.0,"ch":11,"track":17},{"t":3532.161,"dur":0.155,"note":46,"inst":"harpsichord_v0_additive_2","vel":0.709,"bend":0.0,"ch":14,"track":17},{"t":3532.161,"dur":0.309,"note":46,"inst":"harpsichord_v0_additive_2","vel":0.709,"bend":0.0,"ch":14,"track":17},{"t":3532.161,"dur":0.155,"note":60,"inst":"piano_v0_additive_0","vel":0.709,"bend":0.0,"ch":12,"track":17},{"t":3532.161,"dur":0.077,"note":75,"inst":"celesta_v0_additive_3","vel":0.709,"bend":0.0,"ch":11,"track":17},{"t":3532.239,"dur":0.077,"note":75,"inst":"celesta_v0_additive_3","vel":0.709,"bend":0.0,"ch":11,"track":17},{"t":3532.316,"dur":0.155,"note":46,"inst":"harpsichord_v0_additive_2","vel":0.709,"bend":0.0,"ch":14,"track":17},{"t":3532.316,"dur":0.155,"note":60,"inst":"piano_v0_additive_0","vel":0.709,"bend":0.0,"ch":12,"track":17},{"t":3532.316,"dur":0.077,"note":77,"inst":"organ_v0_additive_1","vel":0.709,"bend":0.0,"ch":13,"track":17},{"t":3532.393,"dur":0.077,"note":75,"inst":"celesta_v0_additive_3","vel":0.709,"bend":0.0,"ch":11,"track":17},{"t":3532.471,"dur":0.309,"note":29,"inst":"organ_v0_additive_1","vel":0.709,"bend":0.0,"ch":13,"track":17},{"t":3532.471,"dur":0.155,"note":58,"inst":"harpsichord_v0_additive_2","vel":0.709,"bend":0.0,"ch":10,"track":17},{"t":3532.471,"dur":0.155,"note":63,"inst":"celesta_v0_additive_3","vel":0.709,"bend":0.0,"ch":15,"track":17},{"t":3532.471,"dur":0.309,"note":75,"inst":"celesta_v0_additive_3","vel":0.709,"bend":0.0,"ch":11,"track":17},{"t":3532.625,"dur":0.155,"note":58,"inst":"harpsichord_v0_additive_2","vel":0.709,"bend":0.0,"ch":10,"track":17},{"t":3532.625,"dur":0.155,"note":63,"inst":"celesta_v0_additive_3","vel":0.709,"bend":0.0,"ch":15,"track":17},{"t":3532.78,"dur":0.309,"note":34,"inst":"harpsichord_v0_additive_2","vel":0.709,"bend":0.0,"ch":2,"track":17},{"t":3532.78,"dur":0.155,"note":58,"inst":"harpsichord_v0_additive_2","vel":0.709,"bend":0.0,"ch":10,"track":17},{"t":3532.78,"dur":0.155,"note":63,"inst":"celesta_v0_additive_3","vel":0.709,"bend":0.0,"ch":15,"track":17},{"t":3532.934,"dur":0.155,"note":58,"inst":"harpsichord_v0_additive_2","vel":0.709,"bend":0.0,"ch":10,"track":17},{"t":3532.934,"dur":0.155,"note":63,"inst":"celesta_v0_additive_3","vel":0.709,"bend":0.0,"ch":15,"track":17},{"t":3533.089,"dur":0.309,"note":39,"inst":"celesta_v0_additive_3","vel":0.709,"bend":0.0,"ch":7,"track":17},{"t":3533.089,"dur":0.155,"note":58,"inst":"harpsichord_v0_additive_2","vel":0.709,"bend":0.0,"ch":10,"track":17},{"t":3533.089,"dur":0.155,"note":63,"inst":"celesta_v0_additive_3","vel":0.709,"bend":0.0,"ch":15,"track":17},{"t":3533.243,"dur":0.155,"note":58,"inst":"harpsichord_v0_additive_2","vel":0.709,"bend":0.0,"ch":10,"track":17},{"t":3533.243,"dur":0.155,"note":63,"inst":"celesta_v0_additive_3","vel":0.709,"bend":0.0,"ch":15,"track":17},{"t":3533.398,"dur":0.309,"note":41,"inst":"organ_v0_additive_1","vel":0.709,"bend":0.0,"ch":9,"track":17},{"t":3533.398,"dur":0.155,"note":58,"inst":"harpsichord_v0_additive_2","vel":0.709,"bend":0.0,"ch":10,"track":17},{"t":3533.398,"dur":0.155,"note":63,"inst":"celesta_v0_additive_3","vel":0.709,"bend":0.0,"ch":15,"track":17},{"t":3533.398,"dur":0.232,"note":75,"inst":"celesta_v0_additive_3","vel":0.756,"bend":0.0,"ch":11,"track":17},{"t":3533.553,"dur":0.155,"note":58,"inst":"harpsichord_v0_additive_2","vel":0.709,"bend":0.0,"ch":10,"track":17},{"t":3533.553,"dur":0.155,"note":63,"inst":"celesta_v0_additive_3","vel":0.709,"bend":0.0,"ch":15,"track":17},{"t":3533.63,"dur":0.077,"note":75,"inst":"celesta_v0_additive_3","vel":0.756,"bend":0.0,"ch":11,"track":17},{"t":3533.707,"dur":0.309,"note":29,"inst":"organ_v0_additive_1","vel":0.709,"bend":0.0,"ch":13,"track":17},{"t":3533.707,"dur":0.155,"note":55,"inst":"celesta_v0_additive_3","vel":0.709,"bend":0.0,"ch":7,"track":17},{"t":3533.707,"dur":0.155,"note":58,"inst":"harpsichord_v0_additive_2","vel":0.709,"bend":0.0,"ch":10,"track":17},{"t":3533.707,"dur":0.155,"note":63,"inst":"celesta_v0_additive_3","vel":0.709,"bend":0.0,"ch":15,"track":17},{"t":3533.707,"dur":0.309,"note":72,"inst":"piano_v0_additive_0","vel":0.709,"bend":0.0,"ch":8,"track":17},{"t":3533.862,"dur":0.155,"note":55,"inst":"celesta_v0_additive_3","vel":0.709,"bend":0.0,"ch":7,"track":17},{"t":3533.862,"dur":0.155,"note":58,"inst":"harpsichord_v0_additive_2","vel":0.709,"bend":0.0,"ch":10,"track":17},{"t":3533.862,"dur":0.155,"note":63,"inst":"celesta_v0_additive_3","vel":0.709,"bend":0.0,"ch":15,"track":17},{"t":3534.016,"dur":0.309,"note":51,"inst":"celesta_v0_additive_3","vel":0.709,"bend":0.0,"ch":3,"track":17},{"t":3534.016,"dur":0.155,"note":55,"inst":"celesta_v0_additive_3","vel":0.709,"bend":0.0,"ch":7,"track":17},{"t":3534.016,"dur":0.155,"note":58,"inst":"harpsichord_v0_additive_2","vel":0.709,"bend":0.0,"ch":10,"track":17},{"t":3534.016,"dur":0.155,"note":63,"inst":"celesta_v0_additive_3","vel":0.709,"bend":0.0,"ch":15,"track":17},{"t":3534.016,"dur":0.309,"note":70,"inst":"harpsichord_v0_additive_2","vel":0.709,"bend":0.0,"ch":6,"track":17},{"t":3534.171,"dur":0.155,"note":55,"inst":"celesta_v0_additive_3","vel":0.709,"bend":0.0,"ch":7,"track":17},{"t":3534.171,"dur":0.155,"note":58,"inst":"harpsichord_v0_additive_2","vel":0.709,"bend":0.0,"ch":10,"track":17},{"t":3534.171,"dur":0.155,"note":63,"inst":"celesta_v0_additive_3","vel":0.709,"bend":0.0,"ch":15,"track":17},{"t":3650.557,"dur":0.512,"note":75,"inst":"celesta_v0_additive_3","vel":0.63,"bend":0.0,"ch":11,"track":17},{"t":3651.097,"dur":1.025,"note":63,"inst":"celesta_v0_additive_3","vel":0.63,"bend":0.0,"ch":15,"track":17},{"t":3651.097,"dur":2.051,"note":73,"inst":"organ_v0_additive_1","vel":0.63,"bend":0.0,"ch":9,"track":17},{"t":3652.177,"dur":2.051,"note":63,"inst":"celesta_v0_additive_3","vel":0.63,"bend":0.0,"ch":15,"track":17},{"t":3653.257,"dur":1.025,"note":71,"inst":"celesta_v0_additive_3","vel":0.63,"bend":0.0,"ch":7,"track":17},{"t":3654.337,"dur":4.103,"note":61,"inst":"organ_v0_additive_1","vel":0.63,"bend":0.0,"ch":13,"track":17},{"t":3654.337,"dur":12.312,"note":68,"inst":"piano_v0_additive_0","vel":0.63,"bend":0.0,"ch":4,"track":17},{"t":3654.337,"dur":3.077,"note":73,"inst":"organ_v0_additive_1","vel":0.63,"bend":0.0,"ch":9,"track":17},{"t":3656.498,"dur":2.051,"note":49,"inst":"organ_v0_additive_1","vel":0.63,"bend":0.0,"ch":1,"track":17},{"t":3657.578,"dur":0.512,"note":71,"inst":"celesta_v0_additive_3","vel":0.63,"bend":0.0,"ch":7,"track":17},{"t":3658.118,"dur":0.512,"note":70,"inst":"harpsichord_v0_additive_2","vel":0.63,"bend":0.0,"ch":6,"track":17},{"t":3658.658,"dur":3.077,"note":56,"inst":"piano_v0_additive_0","vel":0.63,"bend":0.0,"ch":8,"track":17},{"t":3658.658,"dur":1.025,"note":71,"inst":"celesta_v0_additive_3","vel":0.63,"bend":0.0,"ch":7,"track":17},{"t":3659.738,"dur":1.538,"note":68,"inst":"piano_v0_additive_0","vel":0.63,"bend":0.0,"ch":4,"track":17},{"t":3660.818,"dur":2.051,"note":71,"inst":"celesta_v0_additive_3","vel":0.63,"bend":0.0,"ch":7,"track":17},{"t":3661.358,"dur":0.512,"note":66,"inst":"harpsichord_v0_additive_2","vel":0.63,"bend":0.0,"ch":2,"track":17},{"t":3661.898,"dur":1.025,"note":54,"inst":"harpsichord_v0_additive_2","vel":0.63,"bend":0.0,"ch":6,"track":17},{"t":3661.898,"dur":1.025,"note":63,"inst":"celesta_v0_additive_3","vel":0.63,"bend":0.0,"ch":15,"track":17},{"t":3662.978,"dur":1.025,"note":51,"inst":"celesta_v0_additive_3","vel":0.63,"bend":0.0,"ch":3,"track":17},{"t":3662.978,"dur":2.051,"note":63,"inst":"celesta_v0_additive_3","vel":0.63,"bend":0.0,"ch":15,"track":17},{"t":3662.978,"dur":2.051,"note":73,"inst":"organ_v0_additive_1","vel":0.63,"bend":0.0,"ch":9,"track":17}]}