{"events": [{"t": 0.131, "dur": 0.505, "note": 31, "inst": "celesta_v0_additive_3", "vel": 1.0, "bend": 0.0, "ch": 15}, {"t": 0.131, "dur": 0.252, "note": 63, "inst": "celesta_v0_additive_3", "vel": 1.0, "bend": 0.0, "ch": 15}, {"t": 0.384, "dur": 0.252, "note": 55, "inst": "celesta_v0_additive_3", "vel": 1.0, "bend": 0.0, "ch": 7}, {"t": 0.636, "dur": 0.505, "note": 36, "inst": "piano_v0_additive_0", "vel": 1.0, "bend": 0.0, "ch": 4}, {"t": 0.636, "dur": 0.505, "note": 60, "inst": "piano_v0_additive_0", "vel": 1.0, "bend": 0.0, "ch": 12}, {"t": 1.141, "dur": 0.252, "note": 72, "inst": "piano_v0_additive_0", "vel": 1.0, "bend": 0.0, "ch": 8}, {"t": 1.393, "dur": 0.084, "note": 72, "inst": "piano_v0_additive_0", "vel": 1.0, "bend": 0.0, "ch": 8}, {"t": 1.477, "dur": 0.084, "note": 75, "inst": "celesta_v0_additive_3", "vel": 1.0, "bend": 0.0, "ch": 11}, {"t": 1.561, "dur": 0.084, "note": 72, "inst": "piano_v0_additive_0", "vel": 1.0, "bend": 0.0, "ch": 8}, {"t": 1.645, "dur": 0.505, "note": 31, "inst": "celesta_v0_additive_3", "vel": 1.0, "bend": 0.0, "ch": 15}, {"t": 1.645, "dur": 0.252, "note": 72, "inst": "piano_v0_additive_0", "vel": 1.0, "bend": 0.0, "ch": 8}, {"t": 1.897, "dur": 0.252, "note": 77, "inst": "organ_v0_additive_1", "vel": 1.0, "bend": 0.0, "ch": 13}, {"t": 2.15, "dur": 0.505, "note": 27, "inst": "celesta_v0_additive_3", "vel": 1.0, "bend": 0.0, "ch": 11}, {"t": 2.15, "dur": 0.252, "note": 75, "inst": "celesta_v0_additive_3", "vel": 1.0, "bend": 0.0, "ch": 11}, {"t": 2.402, "dur": 0.084, "note": 70, "inst": "harpsichord_v0_additive_2", "vel": 1.0, "bend": 0.0, "ch": 6}, {"t": 2.486, "dur": 0.084, "note": 72, "inst": "piano_v0_additive_0", "vel": 1.0, "bend": 0.0, "ch": 8}, {"t": 2.57, "dur": 0.084, "note": 70, "inst": "harpsichord_v0_additive_2", "vel": 1.0, "bend": 0.0, "ch": 6}, {"t": 2.654, "dur": 0.505, "note": 31, "inst": "celesta_v0_additive_3", "vel": 1.0, "bend": 0.0, "ch": 15}, {"t": 2.654, "dur": 0.252, "note": 67, "inst": "celesta_v0_additive_3", "vel": 1.0, "bend": 0.0, "ch": 3}, {"t": 2.906, "dur": 0.252, "note": 72, "inst": "piano_v0_additive_0", "vel": 1.0, "bend": 0.0, "ch": 8}, {"t": 3.159, "dur": 0.505, "note": 27, "inst": "celesta_v0_additive_3", "vel": 1.0, "bend": 0.0, "ch": 11}, {"t": 3.159, "dur": 0.252, "note": 72, "inst": "piano_v0_additive_0", "vel": 1.0, "bend": 0.0, "ch": 8}, {"t": 3.411, "dur": 0.252, "note": 67, "inst": "celesta_v0_additive_3", "vel": 1.0, "bend": 0.0, "ch": 3}, {"t": 3.663, "dur": 0.505, "note": 31, "inst": "celesta_v0_additive_3", "vel": 1.0, "bend": 0.0, "ch": 15}, {"t": 3.663, "dur": 0.126, "note": 63, "inst": "celesta_v0_additive_3", "vel": 1.0, "bend": 0.0, "ch": 15}, {"t": 3.789, "dur": 0.126, "note": 60, "inst": "piano_v0_additive_0", "vel": 1.0, "bend": 0.0, "ch": 12}, {"t": 3.916, "dur": 0.126, "note": 63, "inst": "celesta_v0_additive_3", "vel": 1.0, "bend": 0.0, "ch": 15}, {"t": 84.072, "dur": 1.485, "note": 41, "inst": "organ_v0_additive_1", "vel": 0.717, "bend": 0.0, "ch": 9}, {"t": 84.072, "dur": 1.485, "note": 53, "inst": "organ_v0_additive_1", "vel": 0.717, "bend": 0.0, "ch": 5}, {"t": 84.072, "dur": 0.495, "note": 68, "inst": "piano_v0_additive_0", "vel": 0.638, "bend": 0.0, "ch": 4}, {"t": 84.072, "dur": 0.495, "note": 80, "inst": "piano_v0_additive_0", "vel": 0.638, "bend": 0.0, "ch": 0}, {"t": 84.567, "dur": 0.495, "note": 70, "inst": "harpsichord_v0_additive_2", "vel": 0.583, "bend": 0.0, "ch": 6}, {"t": 84.567, "dur": 0.495, "note": 82, "inst": "harpsichord_v0_additive_2", "vel": 0.583, "bend": 0.0, "ch": 2}, {"t": 85.062, "dur": 2.475, "note": 71, "inst": "celesta_v0_additive_3", "vel": 0.63, "bend": 0.0, "ch": 7}, {"t": 85.062, "dur": 2.475, "note": 83, "inst": "celesta_v0_additive_3", "vel": 0.63, "bend": 0.0, "ch": 3}, {"t": 85.557, "dur": 0.495, "note": 56, "inst": "piano_v0_additive_0", "vel": 0.811, "bend": 0.0, "ch": 8}, {"t": 85.557, "dur": 0.495, "note": 68, "inst": "piano_v0_additive_0", "vel": 0.811, "bend": 0.0, "ch": 4}, {"t": 86.052, "dur": 0.495, "note": 53, "inst": "organ_v0_additive_1", "vel": 0.567, "bend": 0.0, "ch": 5}, {"t": 86.052, "dur": 0.495, "note": 65, "inst": "organ_v0_additive_1", "vel": 0.567, "bend": 0.0, "ch": 1}, {"t": 86.547, "dur": 0.495, "note": 47, "inst": "celesta_v0_additive_3", "vel": 0.488, "bend": 0.0, "ch": 15}, {"t": 86.547, "dur": 0.495, "note": 59, "inst": "celesta_v0_additive_3", "vel": 0.488, "bend": 0.0, "ch": 11}, {"t": 87.041, "dur": 0.495, "note": 44, "inst": "piano_v0_additive_0", "vel": 0.52, "bend": 0.0, "ch": 12}, {"t": 87.041, "dur": 0.495, "note": 56, "inst": "piano_v0_additive_0", "vel": 0.52, "bend": 0.0, "ch": 8}, {"t": 87.536, "dur": 0.495, "note": 41, "inst": "organ_v0_additive_1", "vel": 0.551, "bend": 0.0, "ch": 9}, {"t": 87.536, "dur": 0.495, "note": 53, "inst": "organ_v0_additive_1", "vel": 0.551, "bend": 0.0, "ch": 5}, {"t": 87.536, "dur": 0.247, "note": 68, "inst": "piano_v0_additive_0", "vel": 0.528, "bend": 0.0, "ch": 4}, {"t": 87.536, "dur": 0.247, "note": 80, "inst": "piano_v0_additive_0", "vel": 0.528, "bend": 0.0, "ch": 0}, {"t": 87.784, "dur": 0.247, "note": 70, "inst": "harpsichord_v0_additive_2", "vel": 0.646, "bend": 0.0, "ch": 6}, {"t": 87.784, "dur": 0.247, "note": 82, "inst": "harpsichord_v0_additive_2", "vel": 0.646, "bend": 0.0, "ch": 2}, {"t": 88.031, "dur": 0.124, "note": 41, "inst": "organ_v0_additive_1", "vel": 0.528, "bend": 0.0, "ch": 9}, {"t": 88.031, "dur": 1.98, "note": 71, "inst": "celesta_v0_additive_3", "vel": 0.654, "bend": 0.0, "ch": 7}, {"t": 88.031, "dur": 1.98, "note": 77, "inst": "organ_v0_additive_1", "vel": 0.654, "bend": 0.0, "ch": 13}, {"t": 88.031, "dur": 1.98, "note": 80, "inst": "piano_v0_additive_0", "vel": 0.654, "bend": 0.0, "ch": 0}, {"t": 88.031, "dur": 1.98, "note": 83, "inst": "celesta_v0_additive_3", "vel": 0.654, "bend": 0.0, "ch": 3}, {"t": 88.155, "dur": 0.124, "note": 53, "inst": "organ_v0_additive_1", "vel": 0.724, "bend": 0.0, "ch": 5}, {"t": 88.279, "dur": 0.124, "note": 41, "inst": "organ_v0_additive_1", "vel": 0.551, "bend": 0.0, "ch": 9}, {"t": 88.403, "dur": 0.124, "note": 53, "inst": "organ_v0_additive_1", "vel": 0.78, "bend": 0.0, "ch": 5}, {"t": 88.526, "dur": 0.124, "note": 41, "inst": "organ_v0_additive_1", "vel": 0.551, "bend": 0.0, "ch": 9}, {"t": 88.65, "dur": 0.124, "note": 53, "inst": "organ_v0_additive_1", "vel": 0.78, "bend": 0.0, "ch": 5}, {"t": 88.774, "dur": 0.124, "note": 41, "inst": "organ_v0_additive_1", "vel": 0.551, "bend": 0.0, "ch": 9}, {"t": 88.898, "dur": 0.124, "note": 53, "inst": "organ_v0_additive_1", "vel": 0.772, "bend": 0.0, "ch": 5}, {"t": 89.021, "dur": 0.124, "note": 41, "inst": "organ_v0_additive_1", "vel": 0.551, "bend": 0.0, "ch": 9}, {"t": 89.145, "dur": 0.124, "note": 53, "inst": "organ_v0_additive_1", "vel": 0.795, "bend": 0.0, "ch": 5}, {"t": 89.269, "dur": 0.124, "note": 41, "inst": "organ_v0_additive_1", "vel": 0.551, "bend": 0.0, "ch": 9}, {"t": 89.393, "dur": 0.124, "note": 53, "inst": "organ_v0_additive_1", "vel": 0.78, "bend": 0.0, "ch": 5}, {"t": 89.516, "dur": 0.124, "note": 41, "inst": "organ_v0_additive_1", "vel": 0.575, "bend": 0.0, "ch": 9}, {"t": 89.64, "dur": 0.124, "note": 53, "inst": "organ_v0_additive_1", "vel": 0.756, "bend": 0.0, "ch": 5}, {"t": 89.764, "dur": 0.124, "note": 41, "inst": "organ_v0_additive_1", "vel": 0.543, "bend": 0.0, "ch": 9}, {"t": 89.888, "dur": 0.124, "note": 53, "inst": "organ_v0_additive_1", "vel": 0.764, "bend": 0.0, "ch": 5}, {"t": 168.261, "dur": 0.166, "note": 49, "inst": "organ_v0_additive_1", "vel": 0.709, "bend": 0.0, "ch": 1}, {"t": 168.261, "dur": 0.166, "note": 49, "inst": "organ_v0_additive_1", "vel": 0.709, "bend": 0.0, "ch": 1}, {"t": 168.427, "dur": 0.166, "note": 48, "inst": "piano_v0_additive_0", "vel": 0.709, "bend": 0.0, "ch": 0}, {"t": 168.427, "dur": 0.166, "note": 48, "inst": "piano_v0_additive_0", "vel": 0.709, "bend": 0.0, "ch": 0}, {"t": 168.593, "dur": 0.332, "note": 46, "inst": "harpsichord_v0_additive_2", "vel": 0.709, "bend": 0.0, "ch": 14}, {"t": 168.593, "dur": 0.332, "note": 46, "inst": "harpsichord_v0_additive_2", "vel": 0.709, "bend": 0.0, "ch": 14}, {"t": 168.593, "dur": 0.332, "note": 73, "inst": "organ_v0_additive_1", "vel": 0.709, "bend": 0.0, "ch": 9}, {"t": 168.925, "dur": 0.332, "note": 48, "inst": "piano_v0_additive_0", "vel": 0.709, "bend": 0.0, "ch": 0}, {"t": 168.925, "dur": 0.332, "note": 48, "inst": "piano_v0_additive_0", "vel": 0.709, "bend": 0.0, "ch": 0}, {"t": 168.925, "dur": 0.664, "note": 66, "inst": "harpsichord_v0_additive_2", "vel": 0.709, "bend": 0.0, "ch": 2}, {"t": 169.257, "dur": 0.332, "note": 36, "inst": "piano_v0_additive_0", "vel": 0.709, "bend": 0.0, "ch": 4}, {"t": 169.257, "dur": 0.332, "note": 42, "inst": "harpsichord_v0_additive_2", "vel": 0.709, "bend": 0.0, "ch": 10}, {"t": 169.257, "dur": 0.997, "note": 64, "inst": "piano_v0_additive_0", "vel": 0.709, "bend": 0.0, "ch": 0}, {"t": 169.59, "dur": 0.332, "note": 48, "inst": "piano_v0_additive_0", "vel": 0.709, "bend": 0.0, "ch": 0}, {"t": 169.59, "dur": 0.332, "note": 48, "inst": "piano_v0_additive_0", "vel": 0.709, "bend": 0.0, "ch": 0}, {"t": 169.59, "dur": 0.332, "note": 64, "inst": "piano_v0_additive_0", "vel": 0.709, "bend": 0.0, "ch": 0}, {"t": 169.922, "dur": 0.332, "note": 41, "inst": "organ_v0_additive_1", "vel": 0.709, "bend": 0.0, "ch": 9}, {"t": 169.922, "dur": 0.332, "note": 41, "inst": "organ_v0_additive_1", "vel": 0.709, "bend": 0.0, "ch": 9}, {"t": 169.922, "dur": 0.997, "note": 69, "inst": "organ_v0_additive_1", "vel": 0.709, "bend": 0.0, "ch": 5}, {"t": 170.254, "dur": 0.332, "note": 46, "inst": "harpsichord_v0_additive_2", "vel": 0.709, "bend": 0.0, "ch": 14}, {"t": 170.254, "dur": 0.332, "note": 46, "inst": "harpsichord_v0_additive_2", "vel": 0.709, "bend": 0.0, "ch": 14}, {"t": 170.254, "dur": 0.997, "note": 61, "inst": "organ_v0_additive_1", "vel": 0.709, "bend": 0.0, "ch": 13}, {"t": 170.586, "dur": 0.332, "note": 34, "inst": "harpsichord_v0_additive_2", "vel": 0.709, "bend": 0.0, "ch": 2}, {"t": 170.586, "dur": 0.332, "note": 34, "inst": "harpsichord_v0_additive_2", "vel": 0.709, "bend": 0.0, "ch": 2}, {"t": 170.919, "dur": 0.664, "note": 40, "inst": "piano_v0_additive_0", "vel": 0.709, "bend": 0.0, "ch": 8}, {"t": 170.919, "dur": 0.664, "note": 40, "inst": "piano_v0_additive_0", "vel": 0.709, "bend": 0.0, "ch": 8}, {"t": 170.919, "dur": 0.997, "note": 66, "inst": "harpsichord_v0_additive_2", "vel": 0.709, "bend": 0.0, "ch": 2}, {"t": 171.251, "dur": 0.332, "note": 54, "inst": "harpsichord_v0_additive_2", "vel": 0.709, "bend": 0.0, "ch": 6}, {"t": 171.583, "dur": 0.332, "note": 45, "inst": "organ_v0_additive_1", "vel": 0.709, "bend": 0.0, "ch": 13}, {"t": 171.583, "dur": 0.332, "note": 45, "inst": "organ_v0_additive_1", "vel": 0.709, "bend": 0.0, "ch": 13}, {"t": 171.583, "dur": 0.664, "note": 60, "inst": "piano_v0_additive_0", "vel": 0.709, "bend": 0.0, "ch": 12}, {"t": 171.915, "dur": 0.664, "note": 37, "inst": "organ_v0_additive_1", "vel": 0.709, "bend": 0.0, "ch": 5}, {"t": 171.915, "dur": 0.664, "note": 37, "inst": "organ_v0_additive_1", "vel": 0.709, "bend": 0.0, "ch": 5}, {"t": 171.915, "dur": 0.997, "note": 65, "inst": "organ_v0_additive_1", "vel": 0.709, "bend": 0.0, "ch": 1}, {"t": 172.247, "dur": 0.332, "note": 53, "inst": "organ_v0_additive_1", "vel": 0.709, "bend": 0.0, "ch": 5}, {"t": 172.58, "dur": 0.332, "note": 42, "inst": "harpsichord_v0_additive_2", "vel": 0.709, "bend": 0.0, "ch": 10}, {"t": 172.58, "dur": 0.332, "note": 42, "inst": "harpsichord_v0_additive_2", "vel": 0.709, "bend": 0.0, "ch": 10}, {"t": 172.58, "dur": 0.664, "note": 58, "inst": "harpsichord_v0_additive_2", "vel": 0.709, "bend": 0.0, "ch": 10}, {"t": 172.912, "dur": 0.664, "note": 36, "inst": "piano_v0_additive_0", "vel": 0.709, "bend": 0.0, "ch": 4}, {"t": 172.912, "dur": 0.664, "note": 36, "inst": "piano_v0_additive_0", "vel": 0.709, "bend": 0.0, "ch": 4}, {"t": 172.912, "dur": 0.997, "note": 64, "inst": "piano_v0_additive_0", "vel": 0.709, "bend": 0.0, "ch": 0}, {"t": 173.244, "dur": 0.332, "note": 52, "inst": "piano_v0_additive_0", "vel": 0.709, "bend": 0.0, "ch": 4}, {"t": 173.576, "dur": 0.332, "note": 41, "inst": "organ_v0_additive_1", "vel": 0.709, "bend": 0.0, "ch": 9}, {"t": 173.576, "dur": 0.332, "note": 41, "inst": "organ_v0_additive_1", "vel": 0.709, "bend": 0.0, "ch": 9}, {"t": 173.576, "dur": 0.997, "note": 57, "inst": "organ_v0_additive_1", "vel": 0.709, "bend": 0.0, "ch": 9}, {"t": 173.908, "dur": 0.664, "note": 34, "inst": "harpsichord_v0_additive_2", "vel": 0.709, "bend": 0.0, "ch": 2}, {"t": 173.908, "dur": 0.664, "note": 34, "inst": "harpsichord_v0_additive_2", "vel": 0.709, "bend": 0.0, "ch": 2}, {"t": 173.908, "dur": 0.332, "note": 61, "inst": "organ_v0_additive_1", "vel": 0.709, "bend": 0.0, "ch": 13}, {"t": 174.241, "dur": 0.332, "note": 58, "inst": "harpsichord_v0_additive_2", "vel": 0.709, "bend": 0.0, "ch": 10}, {"t": 174.573, "dur": 0.332, "note": 36, "inst": "piano_v0_additive_0", "vel": 0.709, "bend": 0.0, "ch": 4}, {"t": 174.573, "dur": 0.332, "note": 36, "inst": "piano_v0_additive_0", "vel": 0.709, "bend": 0.0, "ch": 4}, {"t": 174.573, "dur": 0.664, "note": 54, "inst": "harpsichord_v0_additive_2", "vel": 0.709, "bend": 0.0, "ch": 6}, {"t": 174.573, "dur": 0.332, "note": 64, "inst": "piano_v0_additive_0", "vel": 0.709, "bend": 0.0, "ch": 0}, {"t": 174.905, "dur": 0.332, "note": 33, "inst": "organ_v0_additive_1", "vel": 0.709, "bend": 0.0, "ch": 1}, {"t": 174.905, "dur": 0.332, "note": 33, "inst": "organ_v0_additive_1", "vel": 0.709, "bend": 0.0, "ch": 1}, {"t": 174.905, "dur": 0.332, "note": 52, "inst": "piano_v0_additive_0", "vel": 0.709, "bend": 0.0, "ch": 4}, {"t": 175.237, "dur": 0.664, "note": 34, "inst": "harpsichord_v0_additive_2", "vel": 0.709, "bend": 0.0, "ch": 2}, {"t": 175.237, "dur": 0.664, "note": 34, "inst": "harpsichord_v0_additive_2", "vel": 0.709, "bend": 0.0, "ch": 2}, {"t": 175.237, "dur": 0.498, "note": 52, "inst": "piano_v0_additive_0", "vel": 0.709, "bend": 0.0, "ch": 4}, {"t": 175.237, "dur": 0.664, "note": 53, "inst": "organ_v0_additive_1", "vel": 0.709, "bend": 0.0, "ch": 5}, {"t": 175.736, "dur": 0.166, "note": 49, "inst": "organ_v0_additive_1", "vel": 0.709, "bend": 0.0, "ch": 1}, {"t": 175.902, "dur": 0.332, "note": 40, "inst": "piano_v0_additive_0", "vel": 0.709, "bend": 0.0, "ch": 8}, {"t": 175.902, "dur": 0.332, "note": 40, "inst": "piano_v0_additive_0", "vel": 0.709, "bend": 0.0, "ch": 8}, {"t": 175.902, "dur": 0.332, "note": 52, "inst": "piano_v0_additive_0", "vel": 0.709, "bend": 0.0, "ch": 4}, {"t": 175.902, "dur": 0.664, "note": 52, "inst": "piano_v0_additive_0", "vel": 0.709, "bend": 0.0, "ch": 4}, {"t": 176.234, "dur": 0.664, "note": 52, "inst": "piano_v0_additive_0", "vel": 0.709, "bend": 0.0, "ch": 4}, {"t": 176.234, "dur": 0.664, "note": 52, "inst": "piano_v0_additive_0", "vel": 0.709, "bend": 0.0, "ch": 4}, {"t": 176.234, "dur": 0.498, "note": 66, "inst": "harpsichord_v0_additive_2", "vel": 0.709, "bend": 0.0, "ch": 2}, {"t": 176.732, "dur": 0.166, "note": 69, "inst": "organ_v0_additive_1", "vel": 0.709, "bend": 0.0, "ch": 5}, {"t": 176.898, "dur": 0.332, "note": 49, "inst": "organ_v0_additive_1", "vel": 0.709, "bend": 0.0, "ch": 1}, {"t": 176.898, "dur": 0.332, "note": 49, "inst": "organ_v0_additive_1", "vel": 0.709, "bend": 0.0, "ch": 1}, {"t": 176.898, "dur": 0.332, "note": 70, "inst": "harpsichord_v0_additive_2", "vel": 0.709, "bend": 0.0, "ch": 6}, {"t": 177.23, "dur": 0.664, "note": 52, "inst": "piano_v0_additive_0", "vel": 0.709, "bend": 0.0, "ch": 4}, {"t": 177.23, "dur": 0.664, "note": 52, "inst": "piano_v0_additive_0", "vel": 0.709, "bend": 0.0, "ch": 4}, {"t": 177.23, "dur": 0.498, "note": 66, "inst": "harpsichord_v0_additive_2", "vel": 0.709, "bend": 0.0, "ch": 2}, {"t": 177.23, "dur": 0.166, "note": 72, "inst": "piano_v0_additive_0", "vel": 0.709, "bend": 0.0, "ch": 8}, {"t": 177.397, "dur": 0.166, "note": 70, "inst": "harpsichord_v0_additive_2", "vel": 0.709, "bend": 0.0, "ch": 6}, {"t": 177.563, "dur": 0.166, "note": 69, "inst": "organ_v0_additive_1", "vel": 0.709, "bend": 0.0, "ch": 5}, {"t": 177.729, "dur": 0.166, "note": 66, "inst": "harpsichord_v0_additive_2", "vel": 0.709, "bend": 0.0, "ch": 2}, {"t": 177.729, "dur": 0.166, "note": 66, "inst": "harpsichord_v0_additive_2", "vel": 0.709, "bend": 0.0, "ch": 2}, {"t": 177.895, "dur": 0.498, "note": 53, "inst": "organ_v0_additive_1", "vel": 0.709, "bend": 0.0, "ch": 5}, {"t": 177.895, "dur": 0.498, "note": 53, "inst": "organ_v0_additive_1", "vel": 0.709, "bend": 0.0, "ch": 5}, {"t": 177.895, "dur": 0.498, "note": 60, "inst": "piano_v0_additive_0", "vel": 0.709, "bend": 0.0, "ch": 12}, {"t": 177.895, "dur": 0.498, "note": 69, "inst": "organ_v0_additive_1", "vel": 0.709, "bend": 0.0, "ch": 5}, {"t": 178.393, "dur": 0.166, "note": 45, "inst": "organ_v0_additive_1", "vel": 0.709, "bend": 0.0, "ch": 13}, {"t": 178.393, "dur": 0.166, "note": 45, "inst": "organ_v0_additive_1", "vel": 0.709, "bend": 0.0, "ch": 13}, {"t": 178.393, "dur": 0.166, "note": 65, "inst": "organ_v0_additive_1", "vel": 0.709, "bend": 0.0, "ch": 1}, {"t": 178.393, "dur": 0.166, "note": 72, "inst": "piano_v0_additive_0", "vel": 0.709, "bend": 0.0, "ch": 8}, {"t": 178.559, "dur": 0.664, "note": 46, "inst": "harpsichord_v0_additive_2", "vel": 0.709, "bend": 0.0, "ch": 14}, {"t": 178.559, "dur": 0.664, "note": 46, "inst": "harpsichord_v0_additive_2", "vel": 0.709, "bend": 0.0, "ch": 14}, {"t": 178.559, "dur": 0.332, "note": 64, "inst": "piano_v0_additive_0", "vel": 0.709, "bend": 0.0, "ch": 0}, {"t": 178.559, "dur": 0.332, "note": 66, "inst": "harpsichord_v0_additive_2", "vel": 0.709, "bend": 0.0, "ch": 2}, {"t": 178.892, "dur": 0.332, "note": 65, "inst": "organ_v0_additive_1", "vel": 0.709, "bend": 0.0, "ch": 1}, {"t": 178.892, "dur": 0.332, "note": 69, "inst": "organ_v0_additive_1", "vel": 0.709, "bend": 0.0, "ch": 5}, {"t": 179.224, "dur": 0.664, "note": 48, "inst": "piano_v0_additive_0", "vel": 0.709, "bend": 0.0, "ch": 0}, {"t": 179.224, "dur": 0.664, "note": 48, "inst": "piano_v0_additive_0", "vel": 0.709, "bend": 0.0, "ch": 0}, {"t": 179.224, "dur": 0.498, "note": 65, "inst": "organ_v0_additive_1", "vel": 0.709, "bend": 0.0, "ch": 1}, {"t": 179.224, "dur": 0.664, "note": 66, "inst": "harpsichord_v0_additive_2", "vel": 0.709, "bend": 0.0, "ch": 2}, {"t": 179.722, "dur": 0.166, "note": 64, "inst": "piano_v0_additive_0", "vel": 0.709, "bend": 0.0, "ch": 0}, {"t": 179.888, "dur": 0.332, "note": 41, "inst": "organ_v0_additive_1", "vel": 0.709, "bend": 0.0, "ch": 9}, {"t": 179.888, "dur": 0.332, "note": 41, "inst": "organ_v0_additive_1", "vel": 0.709, "bend": 0.0, "ch": 9}, {"t": 179.888, "dur": 0.332, "note": 65, "inst": "organ_v0_additive_1", "vel": 0.709, "bend": 0.0, "ch": 1}, {"t": 179.888, "dur": 0.664, "note": 65, "inst": "organ_v0_additive_1", "vel": 0.709, "bend": 0.0, "ch": 1}, {"t": 180.22, "dur": 0.664, "note": 40, "inst": "piano_v0_additive_0", "vel": 0.709, "bend": 0.0, "ch": 8}, {"t": 180.22, "dur": 0.664, "note": 40, "inst": "piano_v0_additive_0", "vel": 0.709, "bend": 0.0, "ch": 8}, {"t": 180.22, "dur": 0.166, "note": 72, "inst": "piano_v0_additive_0", "vel": 0.709, "bend": 0.0, "ch": 8}, {"t": 180.386, "dur": 0.166, "note": 70, "inst": "harpsichord_v0_additive_2", "vel": 0.709, "bend": 0.0, "ch": 6}, {"t": 180.553, "dur": 0.166, "note": 69, "inst": "organ_v0_additive_1", "vel": 0.709, "bend": 0.0, "ch": 5}, {"t": 180.719, "dur": 0.166, "note": 66, "inst": "harpsichord_v0_additive_2", "vel": 0.709, "bend": 0.0, "ch": 2}, {"t": 180.885, "dur": 0.332, "note": 41, "inst": "organ_v0_additive_1", "vel": 0.709, "bend": 0.0, "ch": 9}, {"t": 180.885, "dur": 0.332, "note": 41, "inst": "organ_v0_additive_1", "vel": 0.709, "bend": 0.0, "ch": 9}, {"t": 180.885, "dur": 0.332, "note": 69, "inst": "organ_v0_additive_1", "vel": 0.709, "bend": 0.0, "ch": 5}, {"t": 181.217, "dur": 0.664, "note": 36, "inst": "piano_v0_additive_0", "vel": 0.709, "bend": 0.0, "ch": 4}, {"t": 181.217, "dur": 0.664, "note": 36, "inst": "piano_v0_additive_0", "vel": 0.709, "bend": 0.0, "ch": 4}, {"t": 181.217, "dur": 0.664, "note": 66, "inst": "harpsichord_v0_additive_2", "vel": 0.709, "bend": 0.0, "ch": 2}, {"t": 181.217, "dur": 0.166, "note": 72, "inst": "piano_v0_additive_0", "vel": 0.709, "bend": 0.0, "ch": 8}, {"t": 181.383, "dur": 0.166, "note": 70, "inst": "harpsichord_v0_additive_2", "vel": 0.709, "bend": 0.0, "ch": 6}, {"t": 181.549, "dur": 0.166, "note": 69, "inst": "organ_v0_additive_1", "vel": 0.709, "bend": 0.0, "ch": 5}, {"t": 181.715, "dur": 0.166, "note": 66, "inst": "harpsichord_v0_additive_2", "vel": 0.709, "bend": 0.0, "ch": 2}, {"t": 181.881, "dur": 0.332, "note": 41, "inst": "organ_v0_additive_1", "vel": 0.709, "bend": 0.0, "ch": 9}, {"t": 181.881, "dur": 0.332, "note": 41, "inst": "organ_v0_additive_1", "vel": 0.709, "bend": 0.0, "ch": 9}, {"t": 181.881, "dur": 0.332, "note": 69, "inst": "organ_v0_additive_1", "vel": 0.709, "bend": 0.0, "ch": 5}, {"t": 182.214, "dur": 0.664, "note": 40, "inst": "piano_v0_additive_0", "vel": 0.709, "bend": 0.0, "ch": 8}, {"t": 182.214, "dur": 0.664, "note": 40, "inst": "piano_v0_additive_0", "vel": 0.709, "bend": 0.0, "ch": 8}, {"t": 182.214, "dur": 0.997, "note": 66, "inst": "harpsichord_v0_additive_2", "vel": 0.709, "bend": 0.0, "ch": 2}, {"t": 182.214, "dur": 0.166, "note": 72, "inst": "piano_v0_additive_0", "vel": 0.709, "bend": 0.0, "ch": 8}, {"t": 182.38, "dur": 0.166, "note": 70, "inst": "harpsichord_v0_additive_2", "vel": 0.709, "bend": 0.0, "ch": 6}, {"t": 182.546, "dur": 0.166, "note": 69, "inst": "organ_v0_additive_1", "vel": 0.709, "bend": 0.0, "ch": 5}, {"t": 182.712, "dur": 0.166, "note": 66, "inst": "harpsichord_v0_additive_2", "vel": 0.709, "bend": 0.0, "ch": 2}, {"t": 182.878, "dur": 0.664, "note": 41, "inst": "organ_v0_additive_1", "vel": 0.709, "bend": 0.0, "ch": 9}, {"t": 182.878, "dur": 0.664, "note": 41, "inst": "organ_v0_additive_1", "vel": 0.709, "bend": 0.0, "ch": 9}, {"t": 182.878, "dur": 1.329, "note": 69, "inst": "organ_v0_additive_1", "vel": 0.709, "bend": 0.0, "ch": 5}, {"t": 183.21, "dur": 0.166, "note": 65, "inst": "organ_v0_additive_1", "vel": 0.709, "bend": 0.0, "ch": 1}, {"t": 183.376, "dur": 0.166, "note": 64, "inst": "piano_v0_additive_0", "vel": 0.709, "bend": 0.0, "ch": 0}, {"t": 183.542, "dur": 0.332, "note": 41, "inst": "organ_v0_additive_1", "vel": 0.709, "bend": 0.0, "ch": 9}, {"t": 183.542, "dur": 0.332, "note": 41, "inst": "organ_v0_additive_1", "vel": 0.709, "bend": 0.0, "ch": 9}, {"t": 183.542, "dur": 0.166, "note": 61, "inst": "organ_v0_additive_1", "vel": 0.709, "bend": 0.0, "ch": 13}, {"t": 183.709, "dur": 0.166, "note": 60, "inst": "piano_v0_additive_0", "vel": 0.709, "bend": 0.0, "ch": 12}, {"t": 183.875, "dur": 0.664, "note": 42, "inst": "harpsichord_v0_additive_2", "vel": 0.709, "bend": 0.0, "ch": 10}, {"t": 183.875, "dur": 0.664, "note": 42, "inst": "harpsichord_v0_additive_2", "vel": 0.709, "bend": 0.0, "ch": 10}, {"t": 183.875, "dur": 0.332, "note": 58, "inst": "harpsichord_v0_additive_2", "vel": 0.709, "bend": 0.0, "ch": 10}, {"t": 184.207, "dur": 0.997, "note": 61, "inst": "organ_v0_additive_1", "vel": 0.709, "bend": 0.0, "ch": 13}, {"t": 184.207, "dur": 0.166, "note": 66, "inst": "harpsichord_v0_additive_2", "vel": 0.709, "bend": 0.0, "ch": 2}, {"t": 184.373, "dur": 0.166, "note": 65, "inst": "organ_v0_additive_1", "vel": 0.709, "bend": 0.0, "ch": 1}, {"t": 184.539, "dur": 0.332, "note": 30, "inst": "harpsichord_v0_additive_2", "vel": 0.709, "bend": 0.0, "ch": 14}, {"t": 184.539, "dur": 0.332, "note": 30, "inst": "harpsichord_v0_additive_2", "vel": 0.709, "bend": 0.0, "ch": 14}, {"t": 184.539, "dur": 0.166, "note": 64, "inst": "piano_v0_additive_0", "vel": 0.709, "bend": 0.0, "ch": 0}, {"t": 184.705, "dur": 0.166, "note": 61, "inst": "organ_v0_additive_1", "vel": 0.709, "bend": 0.0, "ch": 13}, {"t": 184.871, "dur": 0.664, "note": 36, "inst": "piano_v0_additive_0", "vel": 0.709, "bend": 0.0, "ch": 4}, {"t": 184.871, "dur": 0.664, "note": 36, "inst": "piano_v0_additive_0", "vel": 0.709, "bend": 0.0, "ch": 4}, {"t": 184.871, "dur": 0.664, "note": 64, "inst": "piano_v0_additive_0", "vel": 0.709, "bend": 0.0, "ch": 0}, {"t": 185.203, "dur": 0.332, "note": 54, "inst": "harpsichord_v0_additive_2", "vel": 0.709, "bend": 0.0, "ch": 6}, {"t": 185.536, "dur": 0.332, "note": 36, "inst": "piano_v0_additive_0", "vel": 0.709, "bend": 0.0, "ch": 4}, {"t": 185.536, "dur": 0.332, "note": 36, "inst": "piano_v0_additive_0", "vel": 0.709, "bend": 0.0, "ch": 4}, {"t": 185.536, "dur": 0.664, "note": 60, "inst": "piano_v0_additive_0", "vel": 0.709, "bend": 0.0, "ch": 12}, {"t": 185.536, "dur": 0.332, "note": 64, "inst": "piano_v0_additive_0", "vel": 0.709, "bend": 0.0, "ch": 0}, {"t": 185.868, "dur": 0.664, "note": 37, "inst": "organ_v0_additive_1", "vel": 0.709, "bend": 0.0, "ch": 5}, {"t": 185.868, "dur": 0.664, "note": 37, "inst": "organ_v0_additive_1", "vel": 0.709, "bend": 0.0, "ch": 5}, {"t": 185.868, "dur": 0.664, "note": 54, "inst": "harpsichord_v0_additive_2", "vel": 0.709, "bend": 0.0, "ch": 6}, {"t": 186.2, "dur": 0.664, "note": 58, "inst": "harpsichord_v0_additive_2", "vel": 0.709, "bend": 0.0, "ch": 10}, {"t": 186.532, "dur": 0.664, "note": 36, "inst": "piano_v0_additive_0", "vel": 0.709, "bend": 0.0, "ch": 4}, {"t": 186.532, "dur": 0.664, "note": 36, "inst": "piano_v0_additive_0", "vel": 0.709, "bend": 0.0, "ch": 4}, {"t": 186.532, "dur": 0.664, "note": 54, "inst": "harpsichord_v0_additive_2", "vel": 0.709, "bend": 0.0, "ch": 6}], "instruments": ["celesta_v0_additive_3", "harpsichord_v0_additive_2", "organ_v0_additive_1", "piano_v0_additive_0"], "duration": 187.196, "n_events": 232}