{"events": [{"t": 0.303, "dur": 0.114, "note": 40, "inst": "piano_v0_additive_0", "vel": 1.0, "bend": 0.0, "ch": 8}, {"t": 0.417, "dur": 0.114, "note": 52, "inst": "piano_v0_additive_0", "vel": 1.0, "bend": 0.0, "ch": 4}, {"t": 0.531, "dur": 0.114, "note": 40, "inst": "piano_v0_additive_0", "vel": 1.0, "bend": 0.0, "ch": 8}, {"t": 0.646, "dur": 0.685, "note": 24, "inst": "piano_v0_additive_0", "vel": 1.0, "bend": 0.0, "ch": 8}, {"t": 0.646, "dur": 0.342, "note": 48, "inst": "piano_v0_additive_0", "vel": 1.0, "bend": 0.0, "ch": 0}, {"t": 0.988, "dur": 0.342, "note": 58, "inst": "harpsichord_v0_additive_2", "vel": 1.0, "bend": 0.0, "ch": 10}, {"t": 1.33, "dur": 0.685, "note": 24, "inst": "piano_v0_additive_0", "vel": 1.0, "bend": 0.0, "ch": 8}, {"t": 1.33, "dur": 0.342, "note": 56, "inst": "piano_v0_additive_0", "vel": 1.0, "bend": 0.0, "ch": 8}, {"t": 1.673, "dur": 0.342, "note": 48, "inst": "piano_v0_additive_0", "vel": 1.0, "bend": 0.0, "ch": 0}, {"t": 2.015, "dur": 0.685, "note": 30, "inst": "harpsichord_v0_additive_2", "vel": 1.0, "bend": 0.0, "ch": 14}, {"t": 2.015, "dur": 0.685, "note": 54, "inst": "harpsichord_v0_additive_2", "vel": 1.0, "bend": 0.0, "ch": 6}, {"t": 2.7, "dur": 0.342, "note": 66, "inst": "harpsichord_v0_additive_2", "vel": 1.0, "bend": 0.0, "ch": 2}, {"t": 3.042, "dur": 0.114, "note": 66, "inst": "harpsichord_v0_additive_2", "vel": 1.0, "bend": 0.0, "ch": 2}, {"t": 3.156, "dur": 0.114, "note": 68, "inst": "piano_v0_additive_0", "vel": 1.0, "bend": 0.0, "ch": 4}, {"t": 3.27, "dur": 0.114, "note": 66, "inst": "harpsichord_v0_additive_2", "vel": 1.0, "bend": 0.0, "ch": 2}, {"t": 3.385, "dur": 0.685, "note": 24, "inst": "piano_v0_additive_0", "vel": 1.0, "bend": 0.0, "ch": 8}, {"t": 3.385, "dur": 0.342, "note": 64, "inst": "piano_v0_additive_0", "vel": 1.0, "bend": 0.0, "ch": 0}, {"t": 3.727, "dur": 0.342, "note": 70, "inst": "harpsichord_v0_additive_2", "vel": 1.0, "bend": 0.0, "ch": 6}, {"t": 4.069, "dur": 0.685, "note": 24, "inst": "piano_v0_additive_0", "vel": 1.0, "bend": 0.0, "ch": 8}, {"t": 4.069, "dur": 0.342, "note": 68, "inst": "piano_v0_additive_0", "vel": 1.0, "bend": 0.0, "ch": 4}, {"t": 4.412, "dur": 0.114, "note": 52, "inst": "piano_v0_additive_0", "vel": 1.0, "bend": 0.0, "ch": 4}, {"t": 4.526, "dur": 0.114, "note": 64, "inst": "piano_v0_additive_0", "vel": 1.0, "bend": 0.0, "ch": 0}, {"t": 4.64, "dur": 0.114, "note": 52, "inst": "piano_v0_additive_0", "vel": 1.0, "bend": 0.0, "ch": 4}, {"t": 4.754, "dur": 0.685, "note": 24, "inst": "piano_v0_additive_0", "vel": 1.0, "bend": 0.0, "ch": 8}, {"t": 4.754, "dur": 0.342, "note": 60, "inst": "piano_v0_additive_0", "vel": 1.0, "bend": 0.0, "ch": 12}, {"t": 5.096, "dur": 0.342, "note": 66, "inst": "harpsichord_v0_additive_2", "vel": 1.0, "bend": 0.0, "ch": 2}, {"t": 5.439, "dur": 0.685, "note": 24, "inst": "piano_v0_additive_0", "vel": 1.0, "bend": 0.0, "ch": 8}, {"t": 5.439, "dur": 0.342, "note": 64, "inst": "piano_v0_additive_0", "vel": 1.0, "bend": 0.0, "ch": 0}, {"t": 5.781, "dur": 0.342, "note": 60, "inst": "piano_v0_additive_0", "vel": 1.0, "bend": 0.0, "ch": 12}, {"t": 6.124, "dur": 0.685, "note": 24, "inst": "piano_v0_additive_0", "vel": 1.0, "bend": 0.0, "ch": 8}, {"t": 6.124, "dur": 0.171, "note": 56, "inst": "piano_v0_additive_0", "vel": 1.0, "bend": 0.0, "ch": 8}, {"t": 6.295, "dur": 0.171, "note": 54, "inst": "harpsichord_v0_additive_2", "vel": 1.0, "bend": 0.0, "ch": 6}, {"t": 6.466, "dur": 0.171, "note": 56, "inst": "piano_v0_additive_0", "vel": 1.0, "bend": 0.0, "ch": 8}, {"t": 6.637, "dur": 0.171, "note": 58, "inst": "harpsichord_v0_additive_2", "vel": 1.0, "bend": 0.0, "ch": 10}, {"t": 6.808, "dur": 0.685, "note": 24, "inst": "piano_v0_additive_0", "vel": 1.0, "bend": 0.0, "ch": 8}, {"t": 6.808, "dur": 0.171, "note": 60, "inst": "piano_v0_additive_0", "vel": 1.0, "bend": 0.0, "ch": 12}, {"t": 6.98, "dur": 0.171, "note": 60, "inst": "piano_v0_additive_0", "vel": 1.0, "bend": 0.0, "ch": 12}, {"t": 7.151, "dur": 0.171, "note": 52, "inst": "piano_v0_additive_0", "vel": 1.0, "bend": 0.0, "ch": 4}, {"t": 7.322, "dur": 0.171, "note": 64, "inst": "piano_v0_additive_0", "vel": 1.0, "bend": 0.0, "ch": 0}, {"t": 7.493, "dur": 0.685, "note": 24, "inst": "piano_v0_additive_0", "vel": 1.0, "bend": 0.0, "ch": 8}, {"t": 7.493, "dur": 0.685, "note": 66, "inst": "harpsichord_v0_additive_2", "vel": 1.0, "bend": 0.0, "ch": 2}, {"t": 8.178, "dur": 0.685, "note": 24, "inst": "piano_v0_additive_0", "vel": 1.0, "bend": 0.0, "ch": 8}, {"t": 8.52, "dur": 0.114, "note": 66, "inst": "harpsichord_v0_additive_2", "vel": 1.0, "bend": 0.0, "ch": 2}, {"t": 8.634, "dur": 0.114, "note": 68, "inst": "piano_v0_additive_0", "vel": 1.0, "bend": 0.0, "ch": 4}, {"t": 8.749, "dur": 0.114, "note": 66, "inst": "harpsichord_v0_additive_2", "vel": 1.0, "bend": 0.0, "ch": 2}, {"t": 8.863, "dur": 0.685, "note": 24, "inst": "piano_v0_additive_0", "vel": 1.0, "bend": 0.0, "ch": 8}, {"t": 8.863, "dur": 0.342, "note": 52, "inst": "piano_v0_additive_0", "vel": 1.0, "bend": 0.0, "ch": 4}, {"t": 9.205, "dur": 0.342, "note": 70, "inst": "harpsichord_v0_additive_2", "vel": 1.0, "bend": 0.0, "ch": 6}, {"t": 9.547, "dur": 0.685, "note": 24, "inst": "piano_v0_additive_0", "vel": 1.0, "bend": 0.0, "ch": 8}, {"t": 9.547, "dur": 0.342, "note": 68, "inst": "piano_v0_additive_0", "vel": 1.0, "bend": 0.0, "ch": 4}, {"t": 9.89, "dur": 0.114, "note": 52, "inst": "piano_v0_additive_0", "vel": 1.0, "bend": 0.0, "ch": 4}, {"t": 10.004, "dur": 0.114, "note": 64, "inst": "piano_v0_additive_0", "vel": 1.0, "bend": 0.0, "ch": 0}, {"t": 10.118, "dur": 0.114, "note": 52, "inst": "piano_v0_additive_0", "vel": 1.0, "bend": 0.0, "ch": 4}, {"t": 10.232, "dur": 0.685, "note": 24, "inst": "piano_v0_additive_0", "vel": 1.0, "bend": 0.0, "ch": 8}, {"t": 10.232, "dur": 0.342, "note": 60, "inst": "piano_v0_additive_0", "vel": 1.0, "bend": 0.0, "ch": 12}, {"t": 10.575, "dur": 0.342, "note": 64, "inst": "piano_v0_additive_0", "vel": 1.0, "bend": 0.0, "ch": 0}, {"t": 10.917, "dur": 0.685, "note": 24, "inst": "piano_v0_additive_0", "vel": 1.0, "bend": 0.0, "ch": 8}, {"t": 10.917, "dur": 0.342, "note": 52, "inst": "piano_v0_additive_0", "vel": 1.0, "bend": 0.0, "ch": 4}, {"t": 11.259, "dur": 0.342, "note": 60, "inst": "piano_v0_additive_0", "vel": 1.0, "bend": 0.0, "ch": 12}, {"t": 11.602, "dur": 0.685, "note": 24, "inst": "piano_v0_additive_0", "vel": 1.0, "bend": 0.0, "ch": 8}, {"t": 11.602, "dur": 0.171, "note": 56, "inst": "piano_v0_additive_0", "vel": 1.0, "bend": 0.0, "ch": 8}, {"t": 11.773, "dur": 0.171, "note": 54, "inst": "harpsichord_v0_additive_2", "vel": 1.0, "bend": 0.0, "ch": 6}, {"t": 11.944, "dur": 0.171, "note": 56, "inst": "piano_v0_additive_0", "vel": 1.0, "bend": 0.0, "ch": 8}, {"t": 12.115, "dur": 0.171, "note": 58, "inst": "harpsichord_v0_additive_2", "vel": 1.0, "bend": 0.0, "ch": 10}, {"t": 12.286, "dur": 0.685, "note": 24, "inst": "piano_v0_additive_0", "vel": 1.0, "bend": 0.0, "ch": 8}, {"t": 12.286, "dur": 0.171, "note": 60, "inst": "piano_v0_additive_0", "vel": 1.0, "bend": 0.0, "ch": 12}, {"t": 12.458, "dur": 0.171, "note": 60, "inst": "piano_v0_additive_0", "vel": 1.0, "bend": 0.0, "ch": 12}, {"t": 12.629, "dur": 0.171, "note": 52, "inst": "piano_v0_additive_0", "vel": 1.0, "bend": 0.0, "ch": 4}, {"t": 12.8, "dur": 0.171, "note": 64, "inst": "piano_v0_additive_0", "vel": 1.0, "bend": 0.0, "ch": 0}, {"t": 12.971, "dur": 0.685, "note": 24, "inst": "piano_v0_additive_0", "vel": 1.0, "bend": 0.0, "ch": 8}, {"t": 12.971, "dur": 0.685, "note": 64, "inst": "piano_v0_additive_0", "vel": 1.0, "bend": 0.0, "ch": 0}, {"t": 13.656, "dur": 0.685, "note": 24, "inst": "piano_v0_additive_0", "vel": 1.0, "bend": 0.0, "ch": 8}, {"t": 14.341, "dur": 0.685, "note": 24, "inst": "piano_v0_additive_0", "vel": 1.0, "bend": 0.0, "ch": 8}, {"t": 14.341, "dur": 0.342, "note": 64, "inst": "piano_v0_additive_0", "vel": 1.0, "bend": 0.0, "ch": 0}, {"t": 14.683, "dur": 0.342, "note": 70, "inst": "harpsichord_v0_additive_2", "vel": 1.0, "bend": 0.0, "ch": 6}, {"t": 15.026, "dur": 0.685, "note": 24, "inst": "piano_v0_additive_0", "vel": 1.0, "bend": 0.0, "ch": 8}, {"t": 15.026, "dur": 0.342, "note": 68, "inst": "piano_v0_additive_0", "vel": 1.0, "bend": 0.0, "ch": 4}, {"t": 15.368, "dur": 0.114, "note": 52, "inst": "piano_v0_additive_0", "vel": 1.0, "bend": 0.0, "ch": 4}, {"t": 15.482, "dur": 0.114, "note": 64, "inst": "piano_v0_additive_0", "vel": 1.0, "bend": 0.0, "ch": 0}, {"t": 15.596, "dur": 0.114, "note": 52, "inst": "piano_v0_additive_0", "vel": 1.0, "bend": 0.0, "ch": 4}, {"t": 15.71, "dur": 0.685, "note": 24, "inst": "piano_v0_additive_0", "vel": 1.0, "bend": 0.0, "ch": 8}, {"t": 15.71, "dur": 0.342, "note": 60, "inst": "piano_v0_additive_0", "vel": 1.0, "bend": 0.0, "ch": 12}, {"t": 16.053, "dur": 0.342, "note": 66, "inst": "harpsichord_v0_additive_2", "vel": 1.0, "bend": 0.0, "ch": 2}, {"t": 16.395, "dur": 0.685, "note": 24, "inst": "piano_v0_additive_0", "vel": 1.0, "bend": 0.0, "ch": 8}, {"t": 16.395, "dur": 0.342, "note": 64, "inst": "piano_v0_additive_0", "vel": 1.0, "bend": 0.0, "ch": 0}, {"t": 16.737, "dur": 0.342, "note": 60, "inst": "piano_v0_additive_0", "vel": 1.0, "bend": 0.0, "ch": 12}, {"t": 17.08, "dur": 0.685, "note": 24, "inst": "piano_v0_additive_0", "vel": 1.0, "bend": 0.0, "ch": 8}, {"t": 17.08, "dur": 0.171, "note": 56, "inst": "piano_v0_additive_0", "vel": 1.0, "bend": 0.0, "ch": 8}, {"t": 17.251, "dur": 0.171, "note": 58, "inst": "harpsichord_v0_additive_2", "vel": 1.0, "bend": 0.0, "ch": 10}, {"t": 17.422, "dur": 0.171, "note": 60, "inst": "piano_v0_additive_0", "vel": 1.0, "bend": 0.0, "ch": 12}, {"t": 17.593, "dur": 0.171, "note": 60, "inst": "piano_v0_additive_0", "vel": 1.0, "bend": 0.0, "ch": 12}, {"t": 17.765, "dur": 0.685, "note": 24, "inst": "piano_v0_additive_0", "vel": 1.0, "bend": 0.0, "ch": 8}, {"t": 17.765, "dur": 0.171, "note": 52, "inst": "piano_v0_additive_0", "vel": 1.0, "bend": 0.0, "ch": 4}, {"t": 17.936, "dur": 0.171, "note": 64, "inst": "piano_v0_additive_0", "vel": 1.0, "bend": 0.0, "ch": 0}, {"t": 18.107, "dur": 0.171, "note": 66, "inst": "harpsichord_v0_additive_2", "vel": 1.0, "bend": 0.0, "ch": 2}, {"t": 18.278, "dur": 0.171, "note": 68, "inst": "piano_v0_additive_0", "vel": 1.0, "bend": 0.0, "ch": 4}, {"t": 18.449, "dur": 0.685, "note": 30, "inst": "harpsichord_v0_additive_2", "vel": 1.0, "bend": 0.0, "ch": 14}, {"t": 18.449, "dur": 0.685, "note": 70, "inst": "harpsichord_v0_additive_2", "vel": 1.0, "bend": 0.0, "ch": 6}, {"t": 84.346, "dur": 2.848, "note": 31, "inst": "celesta_v0_additive_3", "vel": 0.63, "bend": 0.0, "ch": 15}, {"t": 84.346, "dur": 2.135, "note": 43, "inst": "celesta_v0_additive_3", "vel": 0.63, "bend": 0.0, "ch": 11}, {"t": 85.77, "dur": 2.705, "note": 46, "inst": "harpsichord_v0_additive_2", "vel": 0.63, "bend": 0.0, "ch": 14}, {"t": 86.483, "dur": 0.711, "note": 46, "inst": "harpsichord_v0_additive_2", "vel": 0.63, "bend": 0.0, "ch": 14}, {"t": 87.195, "dur": 0.711, "note": 46, "inst": "harpsichord_v0_additive_2", "vel": 0.63, "bend": 0.0, "ch": 14}, {"t": 87.907, "dur": 0.711, "note": 46, "inst": "harpsichord_v0_additive_2", "vel": 0.63, "bend": 0.0, "ch": 14}, {"t": 88.62, "dur": 1.352, "note": 43, "inst": "celesta_v0_additive_3", "vel": 0.63, "bend": 0.0, "ch": 11}, {"t": 88.62, "dur": 2.848, "note": 43, "inst": "celesta_v0_additive_3", "vel": 0.63, "bend": 0.0, "ch": 11}, {"t": 88.62, "dur": 2.848, "note": 46, "inst": "harpsichord_v0_additive_2", "vel": 0.63, "bend": 0.0, "ch": 14}, {"t": 90.044, "dur": 1.352, "note": 46, "inst": "harpsichord_v0_additive_2", "vel": 0.63, "bend": 0.0, "ch": 14}, {"t": 91.469, "dur": 0.711, "note": 40, "inst": "piano_v0_additive_0", "vel": 0.63, "bend": 0.0, "ch": 8}, {"t": 91.469, "dur": 0.711, "note": 46, "inst": "harpsichord_v0_additive_2", "vel": 0.63, "bend": 0.0, "ch": 14}, {"t": 91.469, "dur": 1.352, "note": 48, "inst": "piano_v0_additive_0", "vel": 0.63, "bend": 0.0, "ch": 0}, {"t": 91.469, "dur": 2.848, "note": 55, "inst": "celesta_v0_additive_3", "vel": 0.63, "bend": 0.0, "ch": 7}, {"t": 92.181, "dur": 0.711, "note": 39, "inst": "celesta_v0_additive_3", "vel": 0.63, "bend": 0.0, "ch": 7}, {"t": 92.181, "dur": 0.711, "note": 43, "inst": "celesta_v0_additive_3", "vel": 0.63, "bend": 0.0, "ch": 11}, {"t": 92.893, "dur": 2.848, "note": 39, "inst": "celesta_v0_additive_3", "vel": 0.63, "bend": 0.0, "ch": 7}, {"t": 92.893, "dur": 2.848, "note": 46, "inst": "harpsichord_v0_additive_2", "vel": 0.63, "bend": 0.0, "ch": 14}, {"t": 92.893, "dur": 2.705, "note": 51, "inst": "celesta_v0_additive_3", "vel": 0.63, "bend": 0.0, "ch": 3}, {"t": 94.318, "dur": 1.423, "note": 52, "inst": "piano_v0_additive_0", "vel": 0.63, "bend": 0.0, "ch": 4}, {"t": 95.743, "dur": 5.697, "note": 31, "inst": "celesta_v0_additive_3", "vel": 0.63, "bend": 0.0, "ch": 15}, {"t": 95.743, "dur": 5.697, "note": 43, "inst": "celesta_v0_additive_3", "vel": 0.63, "bend": 0.0, "ch": 11}, {"t": 95.743, "dur": 1.352, "note": 46, "inst": "harpsichord_v0_additive_2", "vel": 0.63, "bend": 0.0, "ch": 14}, {"t": 95.743, "dur": 2.135, "note": 55, "inst": "celesta_v0_additive_3", "vel": 0.63, "bend": 0.0, "ch": 7}, {"t": 97.167, "dur": 2.029, "note": 51, "inst": "celesta_v0_additive_3", "vel": 0.63, "bend": 0.0, "ch": 3}, {"t": 97.88, "dur": 0.711, "note": 58, "inst": "harpsichord_v0_additive_2", "vel": 0.63, "bend": 0.0, "ch": 10}, {"t": 98.592, "dur": 0.711, "note": 58, "inst": "harpsichord_v0_additive_2", "vel": 0.63, "bend": 0.0, "ch": 10}, {"t": 99.304, "dur": 0.675, "note": 48, "inst": "piano_v0_additive_0", "vel": 0.63, "bend": 0.0, "ch": 0}, {"t": 99.304, "dur": 0.711, "note": 58, "inst": "harpsichord_v0_additive_2", "vel": 0.63, "bend": 0.0, "ch": 10}, {"t": 100.017, "dur": 0.675, "note": 46, "inst": "harpsichord_v0_additive_2", "vel": 0.63, "bend": 0.0, "ch": 14}, {"t": 100.017, "dur": 2.848, "note": 58, "inst": "harpsichord_v0_additive_2", "vel": 0.63, "bend": 0.0, "ch": 10}, {"t": 100.729, "dur": 0.675, "note": 46, "inst": "harpsichord_v0_additive_2", "vel": 0.63, "bend": 0.0, "ch": 14}, {"t": 101.441, "dur": 2.705, "note": 43, "inst": "celesta_v0_additive_3", "vel": 0.63, "bend": 0.0, "ch": 11}, {"t": 102.866, "dur": 2.848, "note": 43, "inst": "celesta_v0_additive_3", "vel": 0.63, "bend": 0.0, "ch": 11}, {"t": 102.866, "dur": 0.711, "note": 58, "inst": "harpsichord_v0_additive_2", "vel": 0.63, "bend": 0.0, "ch": 10}, {"t": 103.578, "dur": 0.711, "note": 55, "inst": "celesta_v0_additive_3", "vel": 0.63, "bend": 0.0, "ch": 7}, {"t": 104.29, "dur": 2.848, "note": 51, "inst": "celesta_v0_additive_3", "vel": 0.63, "bend": 0.0, "ch": 3}, {"t": 104.29, "dur": 2.848, "note": 58, "inst": "harpsichord_v0_additive_2", "vel": 0.63, "bend": 0.0, "ch": 10}, {"t": 105.715, "dur": 1.423, "note": 40, "inst": "piano_v0_additive_0", "vel": 0.63, "bend": 0.0, "ch": 8}, {"t": 107.14, "dur": 2.135, "note": 43, "inst": "celesta_v0_additive_3", "vel": 0.63, "bend": 0.0, "ch": 11}, {"t": 107.14, "dur": 2.848, "note": 51, "inst": "celesta_v0_additive_3", "vel": 0.63, "bend": 0.0, "ch": 3}, {"t": 108.564, "dur": 1.423, "note": 55, "inst": "celesta_v0_additive_3", "vel": 0.63, "bend": 0.0, "ch": 7}, {"t": 109.276, "dur": 0.711, "note": 46, "inst": "harpsichord_v0_additive_2", "vel": 0.63, "bend": 0.0, "ch": 14}, {"t": 109.989, "dur": 0.711, "note": 46, "inst": "harpsichord_v0_additive_2", "vel": 0.63, "bend": 0.0, "ch": 14}, {"t": 109.989, "dur": 2.848, "note": 51, "inst": "celesta_v0_additive_3", "vel": 0.63, "bend": 0.0, "ch": 3}, {"t": 109.989, "dur": 1.423, "note": 55, "inst": "celesta_v0_additive_3", "vel": 0.63, "bend": 0.0, "ch": 7}, {"t": 110.701, "dur": 0.711, "note": 46, "inst": "harpsichord_v0_additive_2", "vel": 0.63, "bend": 0.0, "ch": 14}, {"t": 111.413, "dur": 2.848, "note": 46, "inst": "harpsichord_v0_additive_2", "vel": 0.63, "bend": 0.0, "ch": 14}, {"t": 111.413, "dur": 0.711, "note": 52, "inst": "piano_v0_additive_0", "vel": 0.63, "bend": 0.0, "ch": 4}, {"t": 112.126, "dur": 0.711, "note": 51, "inst": "celesta_v0_additive_3", "vel": 0.63, "bend": 0.0, "ch": 3}, {"t": 112.838, "dur": 1.423, "note": 51, "inst": "celesta_v0_additive_3", "vel": 0.63, "bend": 0.0, "ch": 3}, {"t": 112.838, "dur": 2.848, "note": 51, "inst": "celesta_v0_additive_3", "vel": 0.63, "bend": 0.0, "ch": 3}, {"t": 114.263, "dur": 0.711, "note": 46, "inst": "harpsichord_v0_additive_2", "vel": 0.63, "bend": 0.0, "ch": 14}, {"t": 114.263, "dur": 2.848, "note": 55, "inst": "celesta_v0_additive_3", "vel": 0.63, "bend": 0.0, "ch": 7}, {"t": 114.975, "dur": 0.711, "note": 43, "inst": "celesta_v0_additive_3", "vel": 0.63, "bend": 0.0, "ch": 11}, {"t": 115.687, "dur": 2.848, "note": 46, "inst": "harpsichord_v0_additive_2", "vel": 0.63, "bend": 0.0, "ch": 14}, {"t": 115.687, "dur": 2.848, "note": 48, "inst": "piano_v0_additive_0", "vel": 0.63, "bend": 0.0, "ch": 0}, {"t": 117.112, "dur": 1.423, "note": 52, "inst": "piano_v0_additive_0", "vel": 0.63, "bend": 0.0, "ch": 4}, {"t": 118.536, "dur": 1.423, "note": 43, "inst": "celesta_v0_additive_3", "vel": 0.63, "bend": 0.0, "ch": 11}, {"t": 118.536, "dur": 5.697, "note": 51, "inst": "celesta_v0_additive_3", "vel": 0.63, "bend": 0.0, "ch": 3}, {"t": 118.536, "dur": 1.423, "note": 55, "inst": "celesta_v0_additive_3", "vel": 0.63, "bend": 0.0, "ch": 7}, {"t": 119.961, "dur": 1.423, "note": 31, "inst": "celesta_v0_additive_3", "vel": 0.63, "bend": 0.0, "ch": 15}, {"t": 119.961, "dur": 1.423, "note": 58, "inst": "harpsichord_v0_additive_2", "vel": 0.63, "bend": 0.0, "ch": 10}, {"t": 121.386, "dur": 2.848, "note": 39, "inst": "celesta_v0_additive_3", "vel": 0.63, "bend": 0.0, "ch": 7}, {"t": 121.386, "dur": 2.848, "note": 58, "inst": "harpsichord_v0_additive_2", "vel": 0.63, "bend": 0.0, "ch": 10}, {"t": 124.235, "dur": 2.848, "note": 31, "inst": "celesta_v0_additive_3", "vel": 0.63, "bend": 0.0, "ch": 15}, {"t": 124.235, "dur": 2.705, "note": 43, "inst": "celesta_v0_additive_3", "vel": 0.63, "bend": 0.0, "ch": 11}, {"t": 124.235, "dur": 2.848, "note": 55, "inst": "celesta_v0_additive_3", "vel": 0.63, "bend": 0.0, "ch": 7}, {"t": 127.084, "dur": 1.423, "note": 34, "inst": "harpsichord_v0_additive_2", "vel": 0.63, "bend": 0.0, "ch": 2}, {"t": 127.084, "dur": 2.705, "note": 36, "inst": "piano_v0_additive_0", "vel": 0.63, "bend": 0.0, "ch": 4}, {"t": 128.509, "dur": 2.848, "note": 36, "inst": "piano_v0_additive_0", "vel": 0.63, "bend": 0.0, "ch": 4}, {"t": 168.199, "dur": 0.263, "note": 59, "inst": "celesta_v0_additive_3", "vel": 1.0, "bend": 0.0, "ch": 11}, {"t": 168.462, "dur": 0.263, "note": 50, "inst": "harpsichord_v0_additive_2", "vel": 1.0, "bend": 0.0, "ch": 2}, {"t": 168.726, "dur": 0.263, "note": 50, "inst": "harpsichord_v0_additive_2", "vel": 1.0, "bend": 0.0, "ch": 2}, {"t": 168.726, "dur": 0.263, "note": 59, "inst": "celesta_v0_additive_3", "vel": 1.0, "bend": 0.0, "ch": 11}, {"t": 168.989, "dur": 0.263, "note": 50, "inst": "harpsichord_v0_additive_2", "vel": 1.0, "bend": 0.0, "ch": 2}, {"t": 169.252, "dur": 0.263, "note": 57, "inst": "organ_v0_additive_1", "vel": 1.0, "bend": 0.0, "ch": 9}, {"t": 169.516, "dur": 0.263, "note": 57, "inst": "organ_v0_additive_1", "vel": 1.0, "bend": 0.0, "ch": 9}, {"t": 169.779, "dur": 0.263, "note": 50, "inst": "harpsichord_v0_additive_2", "vel": 1.0, "bend": 0.0, "ch": 2}, {"t": 170.043, "dur": 0.263, "note": 38, "inst": "harpsichord_v0_additive_2", "vel": 1.0, "bend": 0.0, "ch": 6}, {"t": 170.306, "dur": 0.263, "note": 47, "inst": "celesta_v0_additive_3", "vel": 1.0, "bend": 0.0, "ch": 15}, {"t": 170.306, "dur": 0.79, "note": 64, "inst": "piano_v0_additive_0", "vel": 1.0, "bend": 0.0, "ch": 0}, {"t": 170.569, "dur": 0.263, "note": 45, "inst": "organ_v0_additive_1", "vel": 1.0, "bend": 0.0, "ch": 13}, {"t": 170.833, "dur": 0.263, "note": 45, "inst": "organ_v0_additive_1", "vel": 1.0, "bend": 0.0, "ch": 13}, {"t": 171.096, "dur": 0.263, "note": 45, "inst": "organ_v0_additive_1", "vel": 1.0, "bend": 0.0, "ch": 13}, {"t": 171.096, "dur": 0.263, "note": 54, "inst": "harpsichord_v0_additive_2", "vel": 1.0, "bend": 0.0, "ch": 6}, {"t": 171.096, "dur": 0.79, "note": 62, "inst": "harpsichord_v0_additive_2", "vel": 1.0, "bend": 0.0, "ch": 14}, {"t": 171.359, "dur": 0.263, "note": 45, "inst": "organ_v0_additive_1", "vel": 1.0, "bend": 0.0, "ch": 13}, {"t": 171.623, "dur": 0.263, "note": 47, "inst": "celesta_v0_additive_3", "vel": 1.0, "bend": 0.0, "ch": 15}, {"t": 171.886, "dur": 0.263, "note": 35, "inst": "celesta_v0_additive_3", "vel": 1.0, "bend": 0.0, "ch": 3}, {"t": 172.15, "dur": 0.263, "note": 50, "inst": "harpsichord_v0_additive_2", "vel": 1.0, "bend": 0.0, "ch": 2}, {"t": 172.413, "dur": 0.263, "note": 52, "inst": "piano_v0_additive_0", "vel": 1.0, "bend": 0.0, "ch": 4}, {"t": 172.676, "dur": 0.263, "note": 54, "inst": "harpsichord_v0_additive_2", "vel": 1.0, "bend": 0.0, "ch": 6}, {"t": 172.94, "dur": 0.263, "note": 57, "inst": "organ_v0_additive_1", "vel": 1.0, "bend": 0.0, "ch": 9}, {"t": 173.203, "dur": 0.263, "note": 57, "inst": "organ_v0_additive_1", "vel": 1.0, "bend": 0.0, "ch": 9}, {"t": 173.466, "dur": 0.263, "note": 57, "inst": "organ_v0_additive_1", "vel": 1.0, "bend": 0.0, "ch": 9}, {"t": 173.73, "dur": 0.263, "note": 57, "inst": "organ_v0_additive_1", "vel": 1.0, "bend": 0.0, "ch": 9}, {"t": 173.993, "dur": 0.263, "note": 54, "inst": "harpsichord_v0_additive_2", "vel": 1.0, "bend": 0.0, "ch": 6}, {"t": 174.257, "dur": 0.79, "note": 26, "inst": "harpsichord_v0_additive_2", "vel": 1.0, "bend": 0.0, "ch": 10}, {"t": 174.257, "dur": 0.79, "note": 52, "inst": "piano_v0_additive_0", "vel": 1.0, "bend": 0.0, "ch": 4}, {"t": 174.52, "dur": 0.263, "note": 50, "inst": "harpsichord_v0_additive_2", "vel": 1.0, "bend": 0.0, "ch": 2}, {"t": 174.783, "dur": 0.263, "note": 62, "inst": "harpsichord_v0_additive_2", "vel": 1.0, "bend": 0.0, "ch": 14}, {"t": 175.047, "dur": 1.58, "note": 50, "inst": "harpsichord_v0_additive_2", "vel": 1.0, "bend": 0.0, "ch": 2}, {"t": 175.047, "dur": 0.263, "note": 64, "inst": "piano_v0_additive_0", "vel": 1.0, "bend": 0.0, "ch": 0}, {"t": 175.31, "dur": 0.263, "note": 66, "inst": "harpsichord_v0_additive_2", "vel": 1.0, "bend": 0.0, "ch": 2}, {"t": 175.573, "dur": 0.263, "note": 69, "inst": "organ_v0_additive_1", "vel": 1.0, "bend": 0.0, "ch": 5}, {"t": 175.837, "dur": 0.263, "note": 66, "inst": "harpsichord_v0_additive_2", "vel": 1.0, "bend": 0.0, "ch": 2}, {"t": 176.1, "dur": 0.263, "note": 69, "inst": "organ_v0_additive_1", "vel": 1.0, "bend": 0.0, "ch": 5}, {"t": 176.364, "dur": 0.263, "note": 64, "inst": "piano_v0_additive_0", "vel": 1.0, "bend": 0.0, "ch": 0}, {"t": 176.627, "dur": 0.263, "note": 42, "inst": "harpsichord_v0_additive_2", "vel": 1.0, "bend": 0.0, "ch": 10}, {"t": 176.627, "dur": 1.054, "note": 69, "inst": "organ_v0_additive_1", "vel": 1.0, "bend": 0.0, "ch": 5}, {"t": 176.89, "dur": 0.263, "note": 57, "inst": "organ_v0_additive_1", "vel": 1.0, "bend": 0.0, "ch": 9}, {"t": 177.154, "dur": 0.263, "note": 59, "inst": "celesta_v0_additive_3", "vel": 1.0, "bend": 0.0, "ch": 11}, {"t": 177.417, "dur": 0.79, "note": 50, "inst": "harpsichord_v0_additive_2", "vel": 1.0, "bend": 0.0, "ch": 2}, {"t": 177.68, "dur": 0.263, "note": 62, "inst": "harpsichord_v0_additive_2", "vel": 1.0, "bend": 0.0, "ch": 14}, {"t": 177.944, "dur": 0.263, "note": 64, "inst": "piano_v0_additive_0", "vel": 1.0, "bend": 0.0, "ch": 0}, {"t": 178.207, "dur": 0.263, "note": 62, "inst": "harpsichord_v0_additive_2", "vel": 1.0, "bend": 0.0, "ch": 14}, {"t": 178.471, "dur": 0.263, "note": 64, "inst": "piano_v0_additive_0", "vel": 1.0, "bend": 0.0, "ch": 0}, {"t": 178.734, "dur": 0.263, "note": 50, "inst": "harpsichord_v0_additive_2", "vel": 1.0, "bend": 0.0, "ch": 2}, {"t": 178.997, "dur": 0.79, "note": 38, "inst": "harpsichord_v0_additive_2", "vel": 1.0, "bend": 0.0, "ch": 6}, {"t": 178.997, "dur": 0.263, "note": 59, "inst": "celesta_v0_additive_3", "vel": 1.0, "bend": 0.0, "ch": 11}, {"t": 179.261, "dur": 0.263, "note": 66, "inst": "harpsichord_v0_additive_2", "vel": 1.0, "bend": 0.0, "ch": 2}, {"t": 179.524, "dur": 0.263, "note": 69, "inst": "organ_v0_additive_1", "vel": 1.0, "bend": 0.0, "ch": 5}, {"t": 179.787, "dur": 0.263, "note": 69, "inst": "organ_v0_additive_1", "vel": 1.0, "bend": 0.0, "ch": 5}, {"t": 180.051, "dur": 0.263, "note": 71, "inst": "celesta_v0_additive_3", "vel": 1.0, "bend": 0.0, "ch": 7}, {"t": 180.314, "dur": 0.263, "note": 62, "inst": "harpsichord_v0_additive_2", "vel": 1.0, "bend": 0.0, "ch": 14}, {"t": 180.578, "dur": 0.263, "note": 71, "inst": "celesta_v0_additive_3", "vel": 1.0, "bend": 0.0, "ch": 7}, {"t": 180.841, "dur": 0.263, "note": 62, "inst": "harpsichord_v0_additive_2", "vel": 1.0, "bend": 0.0, "ch": 14}, {"t": 181.104, "dur": 0.263, "note": 69, "inst": "organ_v0_additive_1", "vel": 1.0, "bend": 0.0, "ch": 5}, {"t": 181.368, "dur": 0.79, "note": 45, "inst": "organ_v0_additive_1", "vel": 1.0, "bend": 0.0, "ch": 13}, {"t": 181.368, "dur": 0.79, "note": 74, "inst": "harpsichord_v0_additive_2", "vel": 1.0, "bend": 0.0, "ch": 10}, {"t": 183.738, "dur": 0.263, "note": 45, "inst": "organ_v0_additive_1", "vel": 1.0, "bend": 0.0, "ch": 13}, {"t": 183.738, "dur": 0.263, "note": 52, "inst": "piano_v0_additive_0", "vel": 1.0, "bend": 0.0, "ch": 4}, {"t": 183.738, "dur": 0.263, "note": 76, "inst": "piano_v0_additive_0", "vel": 1.0, "bend": 0.0, "ch": 12}, {"t": 184.001, "dur": 0.263, "note": 54, "inst": "harpsichord_v0_additive_2", "vel": 1.0, "bend": 0.0, "ch": 6}, {"t": 184.001, "dur": 0.263, "note": 74, "inst": "harpsichord_v0_additive_2", "vel": 1.0, "bend": 0.0, "ch": 10}, {"t": 184.265, "dur": 0.263, "note": 57, "inst": "organ_v0_additive_1", "vel": 1.0, "bend": 0.0, "ch": 9}, {"t": 184.265, "dur": 0.263, "note": 62, "inst": "harpsichord_v0_additive_2", "vel": 1.0, "bend": 0.0, "ch": 14}, {"t": 184.528, "dur": 0.263, "note": 57, "inst": "organ_v0_additive_1", "vel": 1.0, "bend": 0.0, "ch": 9}, {"t": 184.528, "dur": 0.263, "note": 71, "inst": "celesta_v0_additive_3", "vel": 1.0, "bend": 0.0, "ch": 7}, {"t": 184.792, "dur": 0.263, "note": 59, "inst": "celesta_v0_additive_3", "vel": 1.0, "bend": 0.0, "ch": 11}, {"t": 184.792, "dur": 0.263, "note": 69, "inst": "organ_v0_additive_1", "vel": 1.0, "bend": 0.0, "ch": 5}, {"t": 185.055, "dur": 0.263, "note": 50, "inst": "harpsichord_v0_additive_2", "vel": 1.0, "bend": 0.0, "ch": 2}, {"t": 185.055, "dur": 0.263, "note": 69, "inst": "organ_v0_additive_1", "vel": 1.0, "bend": 0.0, "ch": 5}, {"t": 185.318, "dur": 0.263, "note": 59, "inst": "celesta_v0_additive_3", "vel": 1.0, "bend": 0.0, "ch": 11}, {"t": 185.318, "dur": 0.263, "note": 69, "inst": "organ_v0_additive_1", "vel": 1.0, "bend": 0.0, "ch": 5}, {"t": 185.582, "dur": 0.263, "note": 50, "inst": "harpsichord_v0_additive_2", "vel": 1.0, "bend": 0.0, "ch": 2}, {"t": 185.582, "dur": 0.263, "note": 69, "inst": "organ_v0_additive_1", "vel": 1.0, "bend": 0.0, "ch": 5}, {"t": 185.845, "dur": 0.263, "note": 57, "inst": "organ_v0_additive_1", "vel": 1.0, "bend": 0.0, "ch": 9}, {"t": 185.845, "dur": 0.263, "note": 71, "inst": "celesta_v0_additive_3", "vel": 1.0, "bend": 0.0, "ch": 7}, {"t": 186.108, "dur": 0.263, "note": 45, "inst": "organ_v0_additive_1", "vel": 1.0, "bend": 0.0, "ch": 13}, {"t": 186.108, "dur": 0.263, "note": 54, "inst": "harpsichord_v0_additive_2", "vel": 1.0, "bend": 0.0, "ch": 6}, {"t": 186.108, "dur": 0.79, "note": 62, "inst": "harpsichord_v0_additive_2", "vel": 1.0, "bend": 0.0, "ch": 14}, {"t": 186.372, "dur": 0.263, "note": 38, "inst": "harpsichord_v0_additive_2", "vel": 1.0, "bend": 0.0, "ch": 6}, {"t": 186.635, "dur": 0.263, "note": 50, "inst": "harpsichord_v0_additive_2", "vel": 1.0, "bend": 0.0, "ch": 2}, {"t": 186.899, "dur": 0.263, "note": 52, "inst": "piano_v0_additive_0", "vel": 1.0, "bend": 0.0, "ch": 4}, {"t": 187.162, "dur": 0.263, "note": 54, "inst": "harpsichord_v0_additive_2", "vel": 1.0, "bend": 0.0, "ch": 6}, {"t": 187.425, "dur": 0.263, "note": 54, "inst": "harpsichord_v0_additive_2", "vel": 1.0, "bend": 0.0, "ch": 6}, {"t": 187.689, "dur": 0.263, "note": 54, "inst": "harpsichord_v0_additive_2", "vel": 1.0, "bend": 0.0, "ch": 6}, {"t": 187.952, "dur": 0.263, "note": 54, "inst": "harpsichord_v0_additive_2", "vel": 1.0, "bend": 0.0, "ch": 6}, {"t": 188.215, "dur": 0.263, "note": 52, "inst": "piano_v0_additive_0", "vel": 1.0, "bend": 0.0, "ch": 4}, {"t": 188.479, "dur": 0.263, "note": 50, "inst": "harpsichord_v0_additive_2", "vel": 1.0, "bend": 0.0, "ch": 2}, {"t": 188.479, "dur": 0.263, "note": 83, "inst": "celesta_v0_additive_3", "vel": 1.0, "bend": 0.0, "ch": 3}, {"t": 188.742, "dur": 0.263, "note": 54, "inst": "harpsichord_v0_additive_2", "vel": 1.0, "bend": 0.0, "ch": 6}, {"t": 188.742, "dur": 0.263, "note": 81, "inst": "organ_v0_additive_1", "vel": 1.0, "bend": 0.0, "ch": 1}, {"t": 189.006, "dur": 0.263, "note": 57, "inst": "organ_v0_additive_1", "vel": 1.0, "bend": 0.0, "ch": 9}, {"t": 189.006, "dur": 0.263, "note": 81, "inst": "organ_v0_additive_1", "vel": 1.0, "bend": 0.0, "ch": 1}, {"t": 189.269, "dur": 0.263, "note": 57, "inst": "organ_v0_additive_1", "vel": 1.0, "bend": 0.0, "ch": 9}, {"t": 189.269, "dur": 0.263, "note": 78, "inst": "harpsichord_v0_additive_2", "vel": 1.0, "bend": 0.0, "ch": 14}, {"t": 189.532, "dur": 0.263, "note": 59, "inst": "celesta_v0_additive_3", "vel": 1.0, "bend": 0.0, "ch": 11}, {"t": 189.532, "dur": 0.263, "note": 76, "inst": "piano_v0_additive_0", "vel": 1.0, "bend": 0.0, "ch": 12}, {"t": 189.796, "dur": 0.263, "note": 50, "inst": "harpsichord_v0_additive_2", "vel": 1.0, "bend": 0.0, "ch": 2}, {"t": 189.796, "dur": 0.263, "note": 74, "inst": "harpsichord_v0_additive_2", "vel": 1.0, "bend": 0.0, "ch": 10}, {"t": 190.059, "dur": 0.263, "note": 59, "inst": "celesta_v0_additive_3", "vel": 1.0, "bend": 0.0, "ch": 11}, {"t": 190.059, "dur": 0.263, "note": 76, "inst": "piano_v0_additive_0", "vel": 1.0, "bend": 0.0, "ch": 12}, {"t": 190.322, "dur": 0.263, "note": 50, "inst": "harpsichord_v0_additive_2", "vel": 1.0, "bend": 0.0, "ch": 2}, {"t": 190.322, "dur": 0.263, "note": 74, "inst": "harpsichord_v0_additive_2", "vel": 1.0, "bend": 0.0, "ch": 10}, {"t": 190.586, "dur": 0.263, "note": 57, "inst": "organ_v0_additive_1", "vel": 1.0, "bend": 0.0, "ch": 9}, {"t": 190.586, "dur": 0.263, "note": 78, "inst": "harpsichord_v0_additive_2", "vel": 1.0, "bend": 0.0, "ch": 14}, {"t": 190.849, "dur": 0.79, "note": 52, "inst": "piano_v0_additive_0", "vel": 1.0, "bend": 0.0, "ch": 4}, {"t": 190.849, "dur": 0.79, "note": 57, "inst": "organ_v0_additive_1", "vel": 1.0, "bend": 0.0, "ch": 9}, {"t": 190.981, "dur": 0.132, "note": 76, "inst": "piano_v0_additive_0", "vel": 1.0, "bend": 0.0, "ch": 12}, {"t": 191.113, "dur": 0.132, "note": 74, "inst": "harpsichord_v0_additive_2", "vel": 1.0, "bend": 0.0, "ch": 10}, {"t": 191.244, "dur": 0.132, "note": 62, "inst": "harpsichord_v0_additive_2", "vel": 1.0, "bend": 0.0, "ch": 14}, {"t": 191.376, "dur": 0.395, "note": 81, "inst": "organ_v0_additive_1", "vel": 1.0, "bend": 0.0, "ch": 1}, {"t": 191.639, "dur": 0.79, "note": 54, "inst": "harpsichord_v0_additive_2", "vel": 1.0, "bend": 0.0, "ch": 6}, {"t": 191.639, "dur": 0.79, "note": 57, "inst": "organ_v0_additive_1", "vel": 1.0, "bend": 0.0, "ch": 9}, {"t": 191.771, "dur": 0.132, "note": 78, "inst": "harpsichord_v0_additive_2", "vel": 1.0, "bend": 0.0, "ch": 14}, {"t": 191.903, "dur": 0.132, "note": 76, "inst": "piano_v0_additive_0", "vel": 1.0, "bend": 0.0, "ch": 12}, {"t": 192.034, "dur": 0.132, "note": 74, "inst": "harpsichord_v0_additive_2", "vel": 1.0, "bend": 0.0, "ch": 10}, {"t": 192.166, "dur": 0.395, "note": 81, "inst": "organ_v0_additive_1", "vel": 1.0, "bend": 0.0, "ch": 1}, {"t": 192.429, "dur": 0.79, "note": 57, "inst": "organ_v0_additive_1", "vel": 1.0, "bend": 0.0, "ch": 9}, {"t": 192.429, "dur": 0.79, "note": 59, "inst": "celesta_v0_additive_3", "vel": 1.0, "bend": 0.0, "ch": 11}, {"t": 192.561, "dur": 0.132, "note": 81, "inst": "organ_v0_additive_1", "vel": 1.0, "bend": 0.0, "ch": 1}, {"t": 192.693, "dur": 0.132, "note": 78, "inst": "harpsichord_v0_additive_2", "vel": 1.0, "bend": 0.0, "ch": 14}, {"t": 192.824, "dur": 0.132, "note": 76, "inst": "piano_v0_additive_0", "vel": 1.0, "bend": 0.0, "ch": 12}, {"t": 192.956, "dur": 0.263, "note": 83, "inst": "celesta_v0_additive_3", "vel": 1.0, "bend": 0.0, "ch": 3}, {"t": 193.22, "dur": 0.79, "note": 57, "inst": "organ_v0_additive_1", "vel": 1.0, "bend": 0.0, "ch": 9}, {"t": 193.22, "dur": 0.79, "note": 50, "inst": "harpsichord_v0_additive_2", "vel": 1.0, "bend": 0.0, "ch": 2}, {"t": 210.068, "dur": 0.299, "note": 45, "inst": "organ_v0_additive_1", "vel": 1.0, "bend": 0.0, "ch": 13}, {"t": 210.068, "dur": 0.449, "note": 57, "inst": "organ_v0_additive_1", "vel": 1.0, "bend": 0.0, "ch": 9}, {"t": 210.367, "dur": 0.299, "note": 45, "inst": "organ_v0_additive_1", "vel": 1.0, "bend": 0.0, "ch": 13}, {"t": 210.517, "dur": 0.224, "note": 50, "inst": "harpsichord_v0_additive_2", "vel": 1.0, "bend": 0.0, "ch": 2}, {"t": 210.666, "dur": 0.299, "note": 50, "inst": "harpsichord_v0_additive_2", "vel": 1.0, "bend": 0.0, "ch": 2}, {"t": 210.741, "dur": 0.224, "note": 57, "inst": "organ_v0_additive_1", "vel": 1.0, "bend": 0.0, "ch": 9}, {"t": 210.966, "dur": 0.299, "note": 45, "inst": "organ_v0_additive_1", "vel": 1.0, "bend": 0.0, "ch": 13}, {"t": 210.966, "dur": 0.449, "note": 62, "inst": "harpsichord_v0_additive_2", "vel": 1.0, "bend": 0.0, "ch": 14}, {"t": 211.265, "dur": 0.299, "note": 45, "inst": "organ_v0_additive_1", "vel": 1.0, "bend": 0.0, "ch": 13}, {"t": 211.415, "dur": 0.224, "note": 62, "inst": "harpsichord_v0_additive_2", "vel": 1.0, "bend": 0.0, "ch": 14}, {"t": 211.564, "dur": 0.299, "note": 50, "inst": "harpsichord_v0_additive_2", "vel": 1.0, "bend": 0.0, "ch": 2}, {"t": 211.639, "dur": 0.224, "note": 62, "inst": "harpsichord_v0_additive_2", "vel": 1.0, "bend": 0.0, "ch": 14}, {"t": 211.864, "dur": 0.299, "note": 45, "inst": "organ_v0_additive_1", "vel": 1.0, "bend": 0.0, "ch": 13}, {"t": 211.864, "dur": 0.449, "note": 57, "inst": "organ_v0_additive_1", "vel": 1.0, "bend": 0.0, "ch": 9}, {"t": 212.163, "dur": 0.299, "note": 45, "inst": "organ_v0_additive_1", "vel": 1.0, "bend": 0.0, "ch": 13}, {"t": 212.312, "dur": 0.224, "note": 50, "inst": "harpsichord_v0_additive_2", "vel": 1.0, "bend": 0.0, "ch": 2}, {"t": 212.462, "dur": 0.299, "note": 50, "inst": "harpsichord_v0_additive_2", "vel": 1.0, "bend": 0.0, "ch": 2}, {"t": 212.537, "dur": 0.224, "note": 57, "inst": "organ_v0_additive_1", "vel": 1.0, "bend": 0.0, "ch": 9}, {"t": 212.761, "dur": 0.299, "note": 38, "inst": "harpsichord_v0_additive_2", "vel": 1.0, "bend": 0.0, "ch": 6}, {"t": 212.761, "dur": 0.449, "note": 50, "inst": "harpsichord_v0_additive_2", "vel": 1.0, "bend": 0.0, "ch": 2}, {"t": 213.061, "dur": 0.299, "note": 45, "inst": "organ_v0_additive_1", "vel": 1.0, "bend": 0.0, "ch": 13}, {"t": 213.21, "dur": 0.224, "note": 62, "inst": "harpsichord_v0_additive_2", "vel": 1.0, "bend": 0.0, "ch": 14}, {"t": 213.36, "dur": 0.299, "note": 38, "inst": "harpsichord_v0_additive_2", "vel": 1.0, "bend": 0.0, "ch": 6}, {"t": 213.435, "dur": 0.224, "note": 50, "inst": "harpsichord_v0_additive_2", "vel": 1.0, "bend": 0.0, "ch": 2}, {"t": 213.659, "dur": 0.224, "note": 38, "inst": "harpsichord_v0_additive_2", "vel": 1.0, "bend": 0.0, "ch": 6}, {"t": 213.659, "dur": 0.449, "note": 57, "inst": "organ_v0_additive_1", "vel": 1.0, "bend": 0.0, "ch": 9}, {"t": 213.884, "dur": 0.224, "note": 45, "inst": "organ_v0_additive_1", "vel": 1.0, "bend": 0.0, "ch": 13}, {"t": 214.108, "dur": 0.224, "note": 38, "inst": "harpsichord_v0_additive_2", "vel": 1.0, "bend": 0.0, "ch": 6}, {"t": 214.108, "dur": 0.224, "note": 57, "inst": "organ_v0_additive_1", "vel": 1.0, "bend": 0.0, "ch": 9}, {"t": 214.333, "dur": 0.224, "note": 45, "inst": "organ_v0_additive_1", "vel": 1.0, "bend": 0.0, "ch": 13}, {"t": 214.333, "dur": 0.224, "note": 57, "inst": "organ_v0_additive_1", "vel": 1.0, "bend": 0.0, "ch": 9}, {"t": 214.557, "dur": 0.224, "note": 38, "inst": "harpsichord_v0_additive_2", "vel": 1.0, "bend": 0.0, "ch": 6}, {"t": 214.557, "dur": 0.449, "note": 50, "inst": "harpsichord_v0_additive_2", "vel": 1.0, "bend": 0.0, "ch": 2}, {"t": 214.782, "dur": 0.224, "note": 45, "inst": "organ_v0_additive_1", "vel": 1.0, "bend": 0.0, "ch": 13}, {"t": 215.006, "dur": 0.224, "note": 38, "inst": "harpsichord_v0_additive_2", "vel": 1.0, "bend": 0.0, "ch": 6}, {"t": 215.006, "dur": 0.224, "note": 62, "inst": "harpsichord_v0_additive_2", "vel": 1.0, "bend": 0.0, "ch": 14}, {"t": 215.231, "dur": 0.224, "note": 45, "inst": "organ_v0_additive_1", "vel": 1.0, "bend": 0.0, "ch": 13}, {"t": 215.231, "dur": 0.224, "note": 50, "inst": "harpsichord_v0_additive_2", "vel": 1.0, "bend": 0.0, "ch": 2}, {"t": 215.455, "dur": 0.224, "note": 38, "inst": "harpsichord_v0_additive_2", "vel": 1.0, "bend": 0.0, "ch": 6}, {"t": 215.455, "dur": 0.449, "note": 50, "inst": "harpsichord_v0_additive_2", "vel": 1.0, "bend": 0.0, "ch": 2}, {"t": 215.679, "dur": 0.224, "note": 38, "inst": "harpsichord_v0_additive_2", "vel": 1.0, "bend": 0.0, "ch": 6}, {"t": 215.904, "dur": 0.224, "note": 45, "inst": "organ_v0_additive_1", "vel": 1.0, "bend": 0.0, "ch": 13}, {"t": 215.904, "dur": 0.224, "note": 57, "inst": "organ_v0_additive_1", "vel": 1.0, "bend": 0.0, "ch": 9}, {"t": 216.128, "dur": 0.224, "note": 38, "inst": "harpsichord_v0_additive_2", "vel": 1.0, "bend": 0.0, "ch": 6}, {"t": 216.128, "dur": 0.224, "note": 50, "inst": "harpsichord_v0_additive_2", "vel": 1.0, "bend": 0.0, "ch": 2}, {"t": 216.353, "dur": 0.224, "note": 26, "inst": "harpsichord_v0_additive_2", "vel": 1.0, "bend": 0.0, "ch": 10}, {"t": 216.353, "dur": 0.898, "note": 57, "inst": "organ_v0_additive_1", "vel": 1.0, "bend": 0.0, "ch": 9}, {"t": 216.577, "dur": 0.224, "note": 38, "inst": "harpsichord_v0_additive_2", "vel": 1.0, "bend": 0.0, "ch": 6}, {"t": 216.802, "dur": 0.224, "note": 45, "inst": "organ_v0_additive_1", "vel": 1.0, "bend": 0.0, "ch": 13}, {"t": 217.026, "dur": 0.224, "note": 38, "inst": "harpsichord_v0_additive_2", "vel": 1.0, "bend": 0.0, "ch": 6}, {"t": 217.251, "dur": 0.224, "note": 33, "inst": "organ_v0_additive_1", "vel": 1.0, "bend": 0.0, "ch": 1}, {"t": 217.251, "dur": 0.449, "note": 50, "inst": "harpsichord_v0_additive_2", "vel": 1.0, "bend": 0.0, "ch": 2}, {"t": 217.475, "dur": 0.224, "note": 38, "inst": "harpsichord_v0_additive_2", "vel": 1.0, "bend": 0.0, "ch": 6}, {"t": 217.7, "dur": 0.224, "note": 38, "inst": "harpsichord_v0_additive_2", "vel": 1.0, "bend": 0.0, "ch": 6}, {"t": 217.7, "dur": 0.224, "note": 50, "inst": "harpsichord_v0_additive_2", "vel": 1.0, "bend": 0.0, "ch": 2}, {"t": 217.924, "dur": 0.224, "note": 38, "inst": "harpsichord_v0_additive_2", "vel": 1.0, "bend": 0.0, "ch": 6}, {"t": 217.924, "dur": 0.224, "note": 50, "inst": "harpsichord_v0_additive_2", "vel": 1.0, "bend": 0.0, "ch": 2}, {"t": 218.149, "dur": 0.224, "note": 33, "inst": "organ_v0_additive_1", "vel": 1.0, "bend": 0.0, "ch": 1}, {"t": 218.149, "dur": 0.449, "note": 50, "inst": "harpsichord_v0_additive_2", "vel": 1.0, "bend": 0.0, "ch": 2}, {"t": 218.373, "dur": 0.224, "note": 26, "inst": "harpsichord_v0_additive_2", "vel": 1.0, "bend": 0.0, "ch": 10}, {"t": 218.598, "dur": 0.224, "note": 38, "inst": "harpsichord_v0_additive_2", "vel": 1.0, "bend": 0.0, "ch": 6}, {"t": 218.598, "dur": 0.224, "note": 57, "inst": "organ_v0_additive_1", "vel": 1.0, "bend": 0.0, "ch": 9}, {"t": 218.822, "dur": 0.224, "note": 26, "inst": "harpsichord_v0_additive_2", "vel": 1.0, "bend": 0.0, "ch": 10}, {"t": 218.822, "dur": 0.224, "note": 50, "inst": "harpsichord_v0_additive_2", "vel": 1.0, "bend": 0.0, "ch": 2}, {"t": 219.046, "dur": 0.224, "note": 33, "inst": "organ_v0_additive_1", "vel": 1.0, "bend": 0.0, "ch": 1}, {"t": 219.046, "dur": 0.449, "note": 57, "inst": "organ_v0_additive_1", "vel": 1.0, "bend": 0.0, "ch": 9}, {"t": 219.271, "dur": 0.224, "note": 26, "inst": "harpsichord_v0_additive_2", "vel": 1.0, "bend": 0.0, "ch": 10}, {"t": 219.495, "dur": 0.224, "note": 38, "inst": "harpsichord_v0_additive_2", "vel": 1.0, "bend": 0.0, "ch": 6}, {"t": 219.495, "dur": 0.224, "note": 57, "inst": "organ_v0_additive_1", "vel": 1.0, "bend": 0.0, "ch": 9}, {"t": 219.72, "dur": 0.224, "note": 26, "inst": "harpsichord_v0_additive_2", "vel": 1.0, "bend": 0.0, "ch": 10}, {"t": 219.72, "dur": 0.224, "note": 57, "inst": "organ_v0_additive_1", "vel": 1.0, "bend": 0.0, "ch": 9}, {"t": 219.944, "dur": 0.224, "note": 26, "inst": "harpsichord_v0_additive_2", "vel": 1.0, "bend": 0.0, "ch": 10}, {"t": 219.944, "dur": 0.898, "note": 57, "inst": "organ_v0_additive_1", "vel": 1.0, "bend": 0.0, "ch": 9}, {"t": 220.169, "dur": 0.224, "note": 26, "inst": "harpsichord_v0_additive_2", "vel": 1.0, "bend": 0.0, "ch": 10}, {"t": 220.393, "dur": 0.224, "note": 38, "inst": "harpsichord_v0_additive_2", "vel": 1.0, "bend": 0.0, "ch": 6}, {"t": 220.618, "dur": 0.224, "note": 26, "inst": "harpsichord_v0_additive_2", "vel": 1.0, "bend": 0.0, "ch": 10}, {"t": 220.842, "dur": 0.224, "note": 38, "inst": "harpsichord_v0_additive_2", "vel": 1.0, "bend": 0.0, "ch": 6}, {"t": 220.842, "dur": 0.449, "note": 57, "inst": "organ_v0_additive_1", "vel": 1.0, "bend": 0.0, "ch": 9}, {"t": 221.067, "dur": 0.224, "note": 45, "inst": "organ_v0_additive_1", "vel": 1.0, "bend": 0.0, "ch": 13}, {"t": 221.291, "dur": 0.224, "note": 38, "inst": "harpsichord_v0_additive_2", "vel": 1.0, "bend": 0.0, "ch": 6}, {"t": 221.291, "dur": 0.224, "note": 57, "inst": "organ_v0_additive_1", "vel": 1.0, "bend": 0.0, "ch": 9}, {"t": 221.516, "dur": 0.224, "note": 45, "inst": "organ_v0_additive_1", "vel": 1.0, "bend": 0.0, "ch": 13}, {"t": 221.516, "dur": 0.224, "note": 57, "inst": "organ_v0_additive_1", "vel": 1.0, "bend": 0.0, "ch": 9}, {"t": 221.74, "dur": 0.224, "note": 38, "inst": "harpsichord_v0_additive_2", "vel": 1.0, "bend": 0.0, "ch": 6}, {"t": 221.74, "dur": 0.449, "note": 50, "inst": "harpsichord_v0_additive_2", "vel": 1.0, "bend": 0.0, "ch": 2}, {"t": 221.965, "dur": 0.224, "note": 45, "inst": "organ_v0_additive_1", "vel": 1.0, "bend": 0.0, "ch": 13}, {"t": 222.189, "dur": 0.224, "note": 38, "inst": "harpsichord_v0_additive_2", "vel": 1.0, "bend": 0.0, "ch": 6}, {"t": 222.189, "dur": 0.224, "note": 62, "inst": "harpsichord_v0_additive_2", "vel": 1.0, "bend": 0.0, "ch": 14}, {"t": 222.413, "dur": 0.224, "note": 45, "inst": "organ_v0_additive_1", "vel": 1.0, "bend": 0.0, "ch": 13}, {"t": 222.413, "dur": 0.224, "note": 50, "inst": "harpsichord_v0_additive_2", "vel": 1.0, "bend": 0.0, "ch": 2}, {"t": 222.638, "dur": 0.224, "note": 38, "inst": "harpsichord_v0_additive_2", "vel": 1.0, "bend": 0.0, "ch": 6}, {"t": 222.638, "dur": 0.449, "note": 62, "inst": "harpsichord_v0_additive_2", "vel": 1.0, "bend": 0.0, "ch": 14}, {"t": 222.862, "dur": 0.224, "note": 45, "inst": "organ_v0_additive_1", "vel": 1.0, "bend": 0.0, "ch": 13}, {"t": 223.087, "dur": 0.224, "note": 45, "inst": "organ_v0_additive_1", "vel": 1.0, "bend": 0.0, "ch": 13}, {"t": 223.087, "dur": 0.224, "note": 69, "inst": "organ_v0_additive_1", "vel": 1.0, "bend": 0.0, "ch": 5}, {"t": 223.311, "dur": 0.224, "note": 45, "inst": "organ_v0_additive_1", "vel": 1.0, "bend": 0.0, "ch": 13}, {"t": 223.311, "dur": 0.224, "note": 62, "inst": "harpsichord_v0_additive_2", "vel": 1.0, "bend": 0.0, "ch": 14}, {"t": 223.536, "dur": 0.224, "note": 26, "inst": "harpsichord_v0_additive_2", "vel": 1.0, "bend": 0.0, "ch": 10}, {"t": 223.536, "dur": 0.898, "note": 62, "inst": "harpsichord_v0_additive_2", "vel": 1.0, "bend": 0.0, "ch": 14}, {"t": 223.76, "dur": 0.224, "note": 45, "inst": "organ_v0_additive_1", "vel": 1.0, "bend": 0.0, "ch": 13}, {"t": 223.985, "dur": 0.224, "note": 38, "inst": "harpsichord_v0_additive_2", "vel": 1.0, "bend": 0.0, "ch": 6}, {"t": 224.209, "dur": 0.224, "note": 45, "inst": "organ_v0_additive_1", "vel": 1.0, "bend": 0.0, "ch": 13}, {"t": 224.434, "dur": 0.224, "note": 38, "inst": "harpsichord_v0_additive_2", "vel": 1.0, "bend": 0.0, "ch": 6}, {"t": 224.434, "dur": 0.449, "note": 62, "inst": "harpsichord_v0_additive_2", "vel": 1.0, "bend": 0.0, "ch": 14}, {"t": 224.658, "dur": 0.224, "note": 45, "inst": "organ_v0_additive_1", "vel": 1.0, "bend": 0.0, "ch": 13}, {"t": 224.883, "dur": 0.224, "note": 50, "inst": "harpsichord_v0_additive_2", "vel": 1.0, "bend": 0.0, "ch": 2}, {"t": 224.883, "dur": 0.224, "note": 62, "inst": "harpsichord_v0_additive_2", "vel": 1.0, "bend": 0.0, "ch": 14}, {"t": 225.107, "dur": 0.224, "note": 45, "inst": "organ_v0_additive_1", "vel": 1.0, "bend": 0.0, "ch": 13}, {"t": 225.107, "dur": 0.224, "note": 62, "inst": "harpsichord_v0_additive_2", "vel": 1.0, "bend": 0.0, "ch": 14}, {"t": 225.332, "dur": 0.224, "note": 45, "inst": "organ_v0_additive_1", "vel": 1.0, "bend": 0.0, "ch": 13}, {"t": 225.332, "dur": 0.449, "note": 57, "inst": "organ_v0_additive_1", "vel": 1.0, "bend": 0.0, "ch": 9}, {"t": 225.332, "dur": 0.449, "note": 50, "inst": "harpsichord_v0_additive_2", "vel": 1.0, "bend": 0.0, "ch": 2}, {"t": 225.556, "dur": 0.224, "note": 50, "inst": "harpsichord_v0_additive_2", "vel": 1.0, "bend": 0.0, "ch": 2}, {"t": 225.78, "dur": 0.224, "note": 50, "inst": "harpsichord_v0_additive_2", "vel": 1.0, "bend": 0.0, "ch": 2}, {"t": 225.78, "dur": 0.224, "note": 57, "inst": "organ_v0_additive_1", "vel": 1.0, "bend": 0.0, "ch": 9}, {"t": 226.005, "dur": 0.224, "note": 50, "inst": "harpsichord_v0_additive_2", "vel": 1.0, "bend": 0.0, "ch": 2}, {"t": 226.005, "dur": 0.224, "note": 57, "inst": "organ_v0_additive_1", "vel": 1.0, "bend": 0.0, "ch": 9}, {"t": 226.229, "dur": 0.224, "note": 26, "inst": "harpsichord_v0_additive_2", "vel": 1.0, "bend": 0.0, "ch": 10}, {"t": 226.229, "dur": 0.898, "note": 50, "inst": "harpsichord_v0_additive_2", "vel": 1.0, "bend": 0.0, "ch": 2}, {"t": 226.454, "dur": 0.224, "note": 38, "inst": "harpsichord_v0_additive_2", "vel": 1.0, "bend": 0.0, "ch": 6}, {"t": 226.678, "dur": 0.224, "note": 45, "inst": "organ_v0_additive_1", "vel": 1.0, "bend": 0.0, "ch": 13}, {"t": 226.903, "dur": 0.224, "note": 38, "inst": "harpsichord_v0_additive_2", "vel": 1.0, "bend": 0.0, "ch": 6}, {"t": 227.127, "dur": 0.224, "note": 45, "inst": "organ_v0_additive_1", "vel": 1.0, "bend": 0.0, "ch": 13}, {"t": 227.352, "dur": 0.224, "note": 38, "inst": "harpsichord_v0_additive_2", "vel": 1.0, "bend": 0.0, "ch": 6}, {"t": 227.576, "dur": 0.224, "note": 45, "inst": "organ_v0_additive_1", "vel": 1.0, "bend": 0.0, "ch": 13}, {"t": 227.801, "dur": 0.224, "note": 45, "inst": "organ_v0_additive_1", "vel": 1.0, "bend": 0.0, "ch": 13}, {"t": 228.025, "dur": 0.224, "note": 38, "inst": "harpsichord_v0_additive_2", "vel": 1.0, "bend": 0.0, "ch": 6}, {"t": 228.25, "dur": 0.224, "note": 38, "inst": "harpsichord_v0_additive_2", "vel": 1.0, "bend": 0.0, "ch": 6}, {"t": 228.324, "dur": 0.299, "note": 57, "inst": "organ_v0_additive_1", "vel": 1.0, "bend": 0.0, "ch": 9}, {"t": 228.474, "dur": 0.224, "note": 45, "inst": "organ_v0_additive_1", "vel": 1.0, "bend": 0.0, "ch": 13}, {"t": 228.624, "dur": 0.299, "note": 69, "inst": "organ_v0_additive_1", "vel": 1.0, "bend": 0.0, "ch": 5}, {"t": 228.699, "dur": 0.224, "note": 38, "inst": "harpsichord_v0_additive_2", "vel": 1.0, "bend": 0.0, "ch": 6}, {"t": 228.923, "dur": 0.224, "note": 38, "inst": "harpsichord_v0_additive_2", "vel": 1.0, "bend": 0.0, "ch": 6}, {"t": 229.147, "dur": 0.224, "note": 38, "inst": "harpsichord_v0_additive_2", "vel": 1.0, "bend": 0.0, "ch": 6}, {"t": 229.222, "dur": 0.299, "note": 50, "inst": "harpsichord_v0_additive_2", "vel": 1.0, "bend": 0.0, "ch": 2}, {"t": 229.372, "dur": 0.224, "note": 45, "inst": "organ_v0_additive_1", "vel": 1.0, "bend": 0.0, "ch": 13}, {"t": 229.522, "dur": 0.299, "note": 62, "inst": "harpsichord_v0_additive_2", "vel": 1.0, "bend": 0.0, "ch": 14}, {"t": 229.596, "dur": 0.224, "note": 38, "inst": "harpsichord_v0_additive_2", "vel": 1.0, "bend": 0.0, "ch": 6}, {"t": 229.821, "dur": 0.224, "note": 38, "inst": "harpsichord_v0_additive_2", "vel": 1.0, "bend": 0.0, "ch": 6}, {"t": 230.045, "dur": 0.224, "note": 45, "inst": "organ_v0_additive_1", "vel": 1.0, "bend": 0.0, "ch": 13}, {"t": 230.12, "dur": 0.299, "note": 50, "inst": "harpsichord_v0_additive_2", "vel": 1.0, "bend": 0.0, "ch": 2}, {"t": 230.27, "dur": 0.224, "note": 38, "inst": "harpsichord_v0_additive_2", "vel": 1.0, "bend": 0.0, "ch": 6}, {"t": 230.419, "dur": 0.299, "note": 62, "inst": "harpsichord_v0_additive_2", "vel": 1.0, "bend": 0.0, "ch": 14}, {"t": 230.494, "dur": 0.224, "note": 45, "inst": "organ_v0_additive_1", "vel": 1.0, "bend": 0.0, "ch": 13}, {"t": 230.719, "dur": 0.224, "note": 26, "inst": "harpsichord_v0_additive_2", "vel": 1.0, "bend": 0.0, "ch": 10}, {"t": 230.943, "dur": 0.224, "note": 45, "inst": "organ_v0_additive_1", "vel": 1.0, "bend": 0.0, "ch": 13}, {"t": 231.018, "dur": 0.299, "note": 57, "inst": "organ_v0_additive_1", "vel": 1.0, "bend": 0.0, "ch": 9}, {"t": 231.168, "dur": 0.224, "note": 38, "inst": "harpsichord_v0_additive_2", "vel": 1.0, "bend": 0.0, "ch": 6}, {"t": 231.317, "dur": 0.299, "note": 69, "inst": "organ_v0_additive_1", "vel": 1.0, "bend": 0.0, "ch": 5}, {"t": 231.392, "dur": 0.224, "note": 45, "inst": "organ_v0_additive_1", "vel": 1.0, "bend": 0.0, "ch": 13}, {"t": 231.617, "dur": 0.224, "note": 33, "inst": "organ_v0_additive_1", "vel": 1.0, "bend": 0.0, "ch": 1}, {"t": 231.841, "dur": 0.224, "note": 38, "inst": "harpsichord_v0_additive_2", "vel": 1.0, "bend": 0.0, "ch": 6}, {"t": 231.916, "dur": 0.299, "note": 50, "inst": "harpsichord_v0_additive_2", "vel": 1.0, "bend": 0.0, "ch": 2}, {"t": 232.066, "dur": 0.224, "note": 38, "inst": "harpsichord_v0_additive_2", "vel": 1.0, "bend": 0.0, "ch": 6}, {"t": 232.215, "dur": 0.299, "note": 62, "inst": "harpsichord_v0_additive_2", "vel": 1.0, "bend": 0.0, "ch": 14}, {"t": 232.29, "dur": 0.224, "note": 38, "inst": "harpsichord_v0_additive_2", "vel": 1.0, "bend": 0.0, "ch": 6}, {"t": 232.514, "dur": 0.224, "note": 33, "inst": "organ_v0_additive_1", "vel": 1.0, "bend": 0.0, "ch": 1}, {"t": 232.739, "dur": 0.224, "note": 38, "inst": "harpsichord_v0_additive_2", "vel": 1.0, "bend": 0.0, "ch": 6}, {"t": 232.814, "dur": 0.299, "note": 50, "inst": "harpsichord_v0_additive_2", "vel": 1.0, "bend": 0.0, "ch": 2}, {"t": 232.963, "dur": 0.224, "note": 26, "inst": "harpsichord_v0_additive_2", "vel": 1.0, "bend": 0.0, "ch": 10}, {"t": 233.113, "dur": 0.299, "note": 62, "inst": "harpsichord_v0_additive_2", "vel": 1.0, "bend": 0.0, "ch": 14}, {"t": 233.188, "dur": 0.224, "note": 38, "inst": "harpsichord_v0_additive_2", "vel": 1.0, "bend": 0.0, "ch": 6}, {"t": 233.412, "dur": 0.224, "note": 33, "inst": "organ_v0_additive_1", "vel": 1.0, "bend": 0.0, "ch": 1}, {"t": 233.637, "dur": 0.224, "note": 38, "inst": "harpsichord_v0_additive_2", "vel": 1.0, "bend": 0.0, "ch": 6}, {"t": 233.712, "dur": 0.299, "note": 57, "inst": "organ_v0_additive_1", "vel": 1.0, "bend": 0.0, "ch": 9}, {"t": 233.861, "dur": 0.224, "note": 26, "inst": "harpsichord_v0_additive_2", "vel": 1.0, "bend": 0.0, "ch": 10}, {"t": 234.011, "dur": 0.299, "note": 69, "inst": "organ_v0_additive_1", "vel": 1.0, "bend": 0.0, "ch": 5}, {"t": 234.086, "dur": 0.224, "note": 38, "inst": "harpsichord_v0_additive_2", "vel": 1.0, "bend": 0.0, "ch": 6}, {"t": 234.31, "dur": 0.224, "note": 26, "inst": "harpsichord_v0_additive_2", "vel": 1.0, "bend": 0.0, "ch": 10}, {"t": 234.535, "dur": 0.224, "note": 38, "inst": "harpsichord_v0_additive_2", "vel": 1.0, "bend": 0.0, "ch": 6}, {"t": 234.61, "dur": 0.299, "note": 57, "inst": "organ_v0_additive_1", "vel": 1.0, "bend": 0.0, "ch": 9}, {"t": 234.759, "dur": 0.224, "note": 26, "inst": "harpsichord_v0_additive_2", "vel": 1.0, "bend": 0.0, "ch": 10}, {"t": 234.909, "dur": 0.299, "note": 69, "inst": "organ_v0_additive_1", "vel": 1.0, "bend": 0.0, "ch": 5}, {"t": 234.984, "dur": 0.224, "note": 38, "inst": "harpsichord_v0_additive_2", "vel": 1.0, "bend": 0.0, "ch": 6}, {"t": 235.208, "dur": 0.224, "note": 38, "inst": "harpsichord_v0_additive_2", "vel": 1.0, "bend": 0.0, "ch": 6}, {"t": 235.433, "dur": 0.224, "note": 38, "inst": "harpsichord_v0_additive_2", "vel": 1.0, "bend": 0.0, "ch": 6}, {"t": 235.507, "dur": 0.299, "note": 57, "inst": "organ_v0_additive_1", "vel": 1.0, "bend": 0.0, "ch": 9}, {"t": 235.657, "dur": 0.224, "note": 45, "inst": "organ_v0_additive_1", "vel": 1.0, "bend": 0.0, "ch": 13}, {"t": 235.807, "dur": 0.299, "note": 69, "inst": "organ_v0_additive_1", "vel": 1.0, "bend": 0.0, "ch": 5}, {"t": 235.881, "dur": 0.224, "note": 38, "inst": "harpsichord_v0_additive_2", "vel": 1.0, "bend": 0.0, "ch": 6}, {"t": 236.106, "dur": 0.224, "note": 38, "inst": "harpsichord_v0_additive_2", "vel": 1.0, "bend": 0.0, "ch": 6}, {"t": 236.33, "dur": 0.224, "note": 38, "inst": "harpsichord_v0_additive_2", "vel": 1.0, "bend": 0.0, "ch": 6}, {"t": 236.405, "dur": 0.299, "note": 50, "inst": "harpsichord_v0_additive_2", "vel": 1.0, "bend": 0.0, "ch": 2}, {"t": 236.555, "dur": 0.224, "note": 45, "inst": "organ_v0_additive_1", "vel": 1.0, "bend": 0.0, "ch": 13}, {"t": 236.705, "dur": 0.299, "note": 62, "inst": "harpsichord_v0_additive_2", "vel": 1.0, "bend": 0.0, "ch": 14}, {"t": 236.779, "dur": 0.224, "note": 38, "inst": "harpsichord_v0_additive_2", "vel": 1.0, "bend": 0.0, "ch": 6}, {"t": 237.004, "dur": 0.224, "note": 38, "inst": "harpsichord_v0_additive_2", "vel": 1.0, "bend": 0.0, "ch": 6}, {"t": 237.228, "dur": 0.224, "note": 45, "inst": "organ_v0_additive_1", "vel": 1.0, "bend": 0.0, "ch": 13}, {"t": 237.303, "dur": 0.299, "note": 62, "inst": "harpsichord_v0_additive_2", "vel": 1.0, "bend": 0.0, "ch": 14}, {"t": 237.453, "dur": 0.224, "note": 45, "inst": "organ_v0_additive_1", "vel": 1.0, "bend": 0.0, "ch": 13}, {"t": 237.602, "dur": 0.299, "note": 74, "inst": "harpsichord_v0_additive_2", "vel": 1.0, "bend": 0.0, "ch": 10}, {"t": 237.677, "dur": 0.224, "note": 45, "inst": "organ_v0_additive_1", "vel": 1.0, "bend": 0.0, "ch": 13}, {"t": 237.902, "dur": 0.224, "note": 26, "inst": "harpsichord_v0_additive_2", "vel": 1.0, "bend": 0.0, "ch": 10}, {"t": 238.126, "dur": 0.224, "note": 38, "inst": "harpsichord_v0_additive_2", "vel": 1.0, "bend": 0.0, "ch": 6}, {"t": 238.201, "dur": 0.299, "note": 62, "inst": "harpsichord_v0_additive_2", "vel": 1.0, "bend": 0.0, "ch": 14}, {"t": 238.351, "dur": 0.224, "note": 45, "inst": "organ_v0_additive_1", "vel": 1.0, "bend": 0.0, "ch": 13}, {"t": 238.5, "dur": 0.299, "note": 74, "inst": "harpsichord_v0_additive_2", "vel": 1.0, "bend": 0.0, "ch": 10}, {"t": 238.575, "dur": 0.224, "note": 38, "inst": "harpsichord_v0_additive_2", "vel": 1.0, "bend": 0.0, "ch": 6}, {"t": 238.8, "dur": 0.224, "note": 38, "inst": "harpsichord_v0_additive_2", "vel": 1.0, "bend": 0.0, "ch": 6}, {"t": 239.024, "dur": 0.224, "note": 50, "inst": "harpsichord_v0_additive_2", "vel": 1.0, "bend": 0.0, "ch": 2}, {"t": 239.099, "dur": 0.299, "note": 62, "inst": "harpsichord_v0_additive_2", "vel": 1.0, "bend": 0.0, "ch": 14}, {"t": 239.248, "dur": 0.224, "note": 45, "inst": "organ_v0_additive_1", "vel": 1.0, "bend": 0.0, "ch": 13}, {"t": 239.398, "dur": 0.299, "note": 74, "inst": "harpsichord_v0_additive_2", "vel": 1.0, "bend": 0.0, "ch": 10}, {"t": 239.473, "dur": 0.224, "note": 50, "inst": "harpsichord_v0_additive_2", "vel": 1.0, "bend": 0.0, "ch": 2}, {"t": 239.697, "dur": 0.224, "note": 45, "inst": "organ_v0_additive_1", "vel": 1.0, "bend": 0.0, "ch": 13}, {"t": 239.922, "dur": 0.224, "note": 50, "inst": "harpsichord_v0_additive_2", "vel": 1.0, "bend": 0.0, "ch": 2}, {"t": 239.997, "dur": 0.299, "note": 57, "inst": "organ_v0_additive_1", "vel": 1.0, "bend": 0.0, "ch": 9}, {"t": 240.146, "dur": 0.224, "note": 50, "inst": "harpsichord_v0_additive_2", "vel": 1.0, "bend": 0.0, "ch": 2}, {"t": 240.296, "dur": 0.299, "note": 69, "inst": "organ_v0_additive_1", "vel": 1.0, "bend": 0.0, "ch": 5}, {"t": 240.371, "dur": 0.224, "note": 50, "inst": "harpsichord_v0_additive_2", "vel": 1.0, "bend": 0.0, "ch": 2}, {"t": 240.595, "dur": 0.224, "note": 26, "inst": "harpsichord_v0_additive_2", "vel": 1.0, "bend": 0.0, "ch": 10}, {"t": 240.82, "dur": 0.224, "note": 38, "inst": "harpsichord_v0_additive_2", "vel": 1.0, "bend": 0.0, "ch": 6}, {"t": 240.895, "dur": 0.299, "note": 50, "inst": "harpsichord_v0_additive_2", "vel": 1.0, "bend": 0.0, "ch": 2}, {"t": 241.044, "dur": 0.224, "note": 45, "inst": "organ_v0_additive_1", "vel": 1.0, "bend": 0.0, "ch": 13}, {"t": 241.194, "dur": 0.299, "note": 62, "inst": "harpsichord_v0_additive_2", "vel": 1.0, "bend": 0.0, "ch": 14}, {"t": 241.269, "dur": 0.224, "note": 38, "inst": "harpsichord_v0_additive_2", "vel": 1.0, "bend": 0.0, "ch": 6}, {"t": 241.493, "dur": 0.224, "note": 45, "inst": "organ_v0_additive_1", "vel": 1.0, "bend": 0.0, "ch": 13}, {"t": 241.718, "dur": 0.224, "note": 38, "inst": "harpsichord_v0_additive_2", "vel": 1.0, "bend": 0.0, "ch": 6}, {"t": 241.942, "dur": 0.224, "note": 45, "inst": "organ_v0_additive_1", "vel": 1.0, "bend": 0.0, "ch": 13}, {"t": 242.167, "dur": 0.224, "note": 38, "inst": "harpsichord_v0_additive_2", "vel": 1.0, "bend": 0.0, "ch": 6}], "instruments": ["celesta_v0_additive_3", "harpsichord_v0_additive_2", "organ_v0_additive_1", "piano_v0_additive_0"], "duration": 242.391, "n_events": 517}