{"events": [{"t": 0.129, "dur": 0.399, "note": 41, "inst": "celesta_v0_additive_3", "vel": 1.0, "bend": 0.0, "ch": 9}, {"t": 0.129, "dur": 0.2, "note": 70, "inst": "harpsichord_v0_additive_2", "vel": 1.0, "bend": 0.0, "ch": 6}, {"t": 0.329, "dur": 0.2, "note": 68, "inst": "celesta_v0_additive_3", "vel": 1.0, "bend": 0.0, "ch": 4}, {"t": 0.528, "dur": 0.399, "note": 41, "inst": "celesta_v0_additive_3", "vel": 1.0, "bend": 0.0, "ch": 9}, {"t": 0.528, "dur": 0.2, "note": 65, "inst": "celesta_v0_additive_3", "vel": 1.0, "bend": 0.0, "ch": 1}, {"t": 0.728, "dur": 0.2, "note": 80, "inst": "celesta_v0_additive_3", "vel": 1.0, "bend": 0.0, "ch": 0}, {"t": 0.928, "dur": 0.399, "note": 41, "inst": "celesta_v0_additive_3", "vel": 1.0, "bend": 0.0, "ch": 9}, {"t": 0.928, "dur": 0.2, "note": 77, "inst": "celesta_v0_additive_3", "vel": 1.0, "bend": 0.0, "ch": 13}, {"t": 1.128, "dur": 0.067, "note": 68, "inst": "celesta_v0_additive_3", "vel": 1.0, "bend": 0.0, "ch": 4}, {"t": 1.194, "dur": 0.067, "note": 70, "inst": "harpsichord_v0_additive_2", "vel": 1.0, "bend": 0.0, "ch": 6}, {"t": 1.261, "dur": 0.067, "note": 68, "inst": "celesta_v0_additive_3", "vel": 1.0, "bend": 0.0, "ch": 4}, {"t": 1.327, "dur": 0.399, "note": 41, "inst": "celesta_v0_additive_3", "vel": 1.0, "bend": 0.0, "ch": 9}, {"t": 1.327, "dur": 0.2, "note": 65, "inst": "celesta_v0_additive_3", "vel": 1.0, "bend": 0.0, "ch": 1}, {"t": 1.527, "dur": 0.2, "note": 75, "inst": "piano_v0_additive_0", "vel": 1.0, "bend": 0.0, "ch": 11}, {"t": 1.727, "dur": 0.399, "note": 41, "inst": "celesta_v0_additive_3", "vel": 1.0, "bend": 0.0, "ch": 9}, {"t": 1.727, "dur": 0.2, "note": 73, "inst": "harpsichord_v0_additive_2", "vel": 1.0, "bend": 0.0, "ch": 9}, {"t": 1.926, "dur": 0.2, "note": 65, "inst": "celesta_v0_additive_3", "vel": 1.0, "bend": 0.0, "ch": 1}, {"t": 2.126, "dur": 0.399, "note": 46, "inst": "harpsichord_v0_additive_2", "vel": 1.0, "bend": 0.0, "ch": 14}, {"t": 2.126, "dur": 0.399, "note": 70, "inst": "harpsichord_v0_additive_2", "vel": 1.0, "bend": 0.0, "ch": 6}, {"t": 2.526, "dur": 0.2, "note": 82, "inst": "harpsichord_v0_additive_2", "vel": 1.0, "bend": 0.0, "ch": 2}, {"t": 2.725, "dur": 0.067, "note": 82, "inst": "harpsichord_v0_additive_2", "vel": 1.0, "bend": 0.0, "ch": 2}, {"t": 2.792, "dur": 0.067, "note": 85, "inst": "harpsichord_v0_additive_2", "vel": 1.0, "bend": 0.0, "ch": 5}, {"t": 2.859, "dur": 0.067, "note": 82, "inst": "harpsichord_v0_additive_2", "vel": 1.0, "bend": 0.0, "ch": 2}, {"t": 2.925, "dur": 0.399, "note": 41, "inst": "celesta_v0_additive_3", "vel": 1.0, "bend": 0.0, "ch": 9}, {"t": 2.925, "dur": 0.2, "note": 82, "inst": "harpsichord_v0_additive_2", "vel": 1.0, "bend": 0.0, "ch": 2}, {"t": 3.125, "dur": 0.2, "note": 87, "inst": "piano_v0_additive_0", "vel": 1.0, "bend": 0.0, "ch": 7}, {"t": 3.325, "dur": 0.399, "note": 37, "inst": "harpsichord_v0_additive_2", "vel": 1.0, "bend": 0.0, "ch": 5}, {"t": 3.325, "dur": 0.2, "note": 85, "inst": "harpsichord_v0_additive_2", "vel": 1.0, "bend": 0.0, "ch": 5}, {"t": 3.524, "dur": 0.067, "note": 80, "inst": "celesta_v0_additive_3", "vel": 1.0, "bend": 0.0, "ch": 0}, {"t": 3.591, "dur": 0.067, "note": 82, "inst": "harpsichord_v0_additive_2", "vel": 1.0, "bend": 0.0, "ch": 2}, {"t": 3.657, "dur": 0.067, "note": 80, "inst": "celesta_v0_additive_3", "vel": 1.0, "bend": 0.0, "ch": 0}, {"t": 3.724, "dur": 0.399, "note": 41, "inst": "celesta_v0_additive_3", "vel": 1.0, "bend": 0.0, "ch": 9}, {"t": 3.724, "dur": 0.2, "note": 77, "inst": "celesta_v0_additive_3", "vel": 1.0, "bend": 0.0, "ch": 13}, {"t": 3.924, "dur": 0.2, "note": 82, "inst": "harpsichord_v0_additive_2", "vel": 1.0, "bend": 0.0, "ch": 2}, {"t": 4.123, "dur": 0.399, "note": 37, "inst": "harpsichord_v0_additive_2", "vel": 1.0, "bend": 0.0, "ch": 5}, {"t": 4.123, "dur": 0.2, "note": 82, "inst": "harpsichord_v0_additive_2", "vel": 1.0, "bend": 0.0, "ch": 2}, {"t": 4.323, "dur": 0.2, "note": 77, "inst": "celesta_v0_additive_3", "vel": 1.0, "bend": 0.0, "ch": 13}, {"t": 4.523, "dur": 0.399, "note": 41, "inst": "celesta_v0_additive_3", "vel": 1.0, "bend": 0.0, "ch": 9}, {"t": 4.523, "dur": 0.1, "note": 73, "inst": "harpsichord_v0_additive_2", "vel": 1.0, "bend": 0.0, "ch": 9}, {"t": 4.623, "dur": 0.1, "note": 70, "inst": "harpsichord_v0_additive_2", "vel": 1.0, "bend": 0.0, "ch": 6}, {"t": 4.723, "dur": 0.1, "note": 73, "inst": "harpsichord_v0_additive_2", "vel": 1.0, "bend": 0.0, "ch": 9}, {"t": 4.822, "dur": 0.1, "note": 75, "inst": "piano_v0_additive_0", "vel": 1.0, "bend": 0.0, "ch": 11}, {"t": 4.922, "dur": 0.399, "note": 37, "inst": "harpsichord_v0_additive_2", "vel": 1.0, "bend": 0.0, "ch": 5}, {"t": 4.922, "dur": 0.1, "note": 77, "inst": "celesta_v0_additive_3", "vel": 1.0, "bend": 0.0, "ch": 13}, {"t": 5.022, "dur": 0.1, "note": 77, "inst": "celesta_v0_additive_3", "vel": 1.0, "bend": 0.0, "ch": 13}, {"t": 5.122, "dur": 0.1, "note": 80, "inst": "celesta_v0_additive_3", "vel": 1.0, "bend": 0.0, "ch": 0}, {"t": 5.222, "dur": 0.1, "note": 82, "inst": "harpsichord_v0_additive_2", "vel": 1.0, "bend": 0.0, "ch": 2}, {"t": 5.322, "dur": 0.399, "note": 44, "inst": "celesta_v0_additive_3", "vel": 1.0, "bend": 0.0, "ch": 12}, {"t": 5.322, "dur": 0.399, "note": 82, "inst": "harpsichord_v0_additive_2", "vel": 1.0, "bend": 0.0, "ch": 2}, {"t": 5.721, "dur": 0.399, "note": 37, "inst": "harpsichord_v0_additive_2", "vel": 1.0, "bend": 0.0, "ch": 5}, {"t": 5.921, "dur": 0.067, "note": 82, "inst": "harpsichord_v0_additive_2", "vel": 1.0, "bend": 0.0, "ch": 2}, {"t": 5.988, "dur": 0.067, "note": 85, "inst": "harpsichord_v0_additive_2", "vel": 1.0, "bend": 0.0, "ch": 5}, {"t": 6.054, "dur": 0.067, "note": 82, "inst": "harpsichord_v0_additive_2", "vel": 1.0, "bend": 0.0, "ch": 2}, {"t": 6.121, "dur": 0.399, "note": 44, "inst": "celesta_v0_additive_3", "vel": 1.0, "bend": 0.0, "ch": 12}, {"t": 6.121, "dur": 0.2, "note": 80, "inst": "celesta_v0_additive_3", "vel": 1.0, "bend": 0.0, "ch": 0}, {"t": 6.32, "dur": 0.2, "note": 87, "inst": "piano_v0_additive_0", "vel": 1.0, "bend": 0.0, "ch": 7}, {"t": 6.52, "dur": 0.399, "note": 37, "inst": "harpsichord_v0_additive_2", "vel": 1.0, "bend": 0.0, "ch": 5}, {"t": 6.52, "dur": 0.2, "note": 85, "inst": "harpsichord_v0_additive_2", "vel": 1.0, "bend": 0.0, "ch": 5}, {"t": 6.72, "dur": 0.067, "note": 80, "inst": "celesta_v0_additive_3", "vel": 1.0, "bend": 0.0, "ch": 0}, {"t": 6.786, "dur": 0.067, "note": 82, "inst": "harpsichord_v0_additive_2", "vel": 1.0, "bend": 0.0, "ch": 2}, {"t": 6.853, "dur": 0.067, "note": 80, "inst": "celesta_v0_additive_3", "vel": 1.0, "bend": 0.0, "ch": 0}, {"t": 6.92, "dur": 0.399, "note": 44, "inst": "celesta_v0_additive_3", "vel": 1.0, "bend": 0.0, "ch": 12}, {"t": 6.92, "dur": 0.2, "note": 77, "inst": "celesta_v0_additive_3", "vel": 1.0, "bend": 0.0, "ch": 13}, {"t": 7.119, "dur": 0.2, "note": 82, "inst": "harpsichord_v0_additive_2", "vel": 1.0, "bend": 0.0, "ch": 2}, {"t": 7.319, "dur": 0.399, "note": 37, "inst": "harpsichord_v0_additive_2", "vel": 1.0, "bend": 0.0, "ch": 5}, {"t": 7.319, "dur": 0.2, "note": 80, "inst": "celesta_v0_additive_3", "vel": 1.0, "bend": 0.0, "ch": 0}, {"t": 7.519, "dur": 0.2, "note": 77, "inst": "celesta_v0_additive_3", "vel": 1.0, "bend": 0.0, "ch": 13}, {"t": 7.718, "dur": 0.399, "note": 41, "inst": "celesta_v0_additive_3", "vel": 1.0, "bend": 0.0, "ch": 9}, {"t": 7.718, "dur": 0.1, "note": 73, "inst": "harpsichord_v0_additive_2", "vel": 1.0, "bend": 0.0, "ch": 9}, {"t": 7.818, "dur": 0.1, "note": 72, "inst": "piano_v0_additive_0", "vel": 1.0, "bend": 0.0, "ch": 8}, {"t": 7.918, "dur": 0.1, "note": 73, "inst": "harpsichord_v0_additive_2", "vel": 1.0, "bend": 0.0, "ch": 9}, {"t": 8.018, "dur": 0.1, "note": 75, "inst": "piano_v0_additive_0", "vel": 1.0, "bend": 0.0, "ch": 11}, {"t": 8.118, "dur": 0.399, "note": 37, "inst": "harpsichord_v0_additive_2", "vel": 1.0, "bend": 0.0, "ch": 5}, {"t": 8.118, "dur": 0.1, "note": 77, "inst": "celesta_v0_additive_3", "vel": 1.0, "bend": 0.0, "ch": 13}, {"t": 8.218, "dur": 0.1, "note": 77, "inst": "celesta_v0_additive_3", "vel": 1.0, "bend": 0.0, "ch": 13}, {"t": 8.318, "dur": 0.1, "note": 80, "inst": "celesta_v0_additive_3", "vel": 1.0, "bend": 0.0, "ch": 0}, {"t": 8.417, "dur": 0.1, "note": 80, "inst": "celesta_v0_additive_3", "vel": 1.0, "bend": 0.0, "ch": 0}, {"t": 8.517, "dur": 0.399, "note": 41, "inst": "celesta_v0_additive_3", "vel": 1.0, "bend": 0.0, "ch": 9}, {"t": 8.517, "dur": 0.399, "note": 82, "inst": "harpsichord_v0_additive_2", "vel": 1.0, "bend": 0.0, "ch": 2}, {"t": 8.917, "dur": 0.399, "note": 37, "inst": "harpsichord_v0_additive_2", "vel": 1.0, "bend": 0.0, "ch": 5}, {"t": 9.316, "dur": 0.399, "note": 41, "inst": "celesta_v0_additive_3", "vel": 1.0, "bend": 0.0, "ch": 9}, {"t": 9.316, "dur": 0.2, "note": 82, "inst": "harpsichord_v0_additive_2", "vel": 1.0, "bend": 0.0, "ch": 2}, {"t": 9.516, "dur": 0.2, "note": 87, "inst": "piano_v0_additive_0", "vel": 1.0, "bend": 0.0, "ch": 7}, {"t": 9.716, "dur": 0.399, "note": 37, "inst": "harpsichord_v0_additive_2", "vel": 1.0, "bend": 0.0, "ch": 5}, {"t": 9.716, "dur": 0.2, "note": 85, "inst": "harpsichord_v0_additive_2", "vel": 1.0, "bend": 0.0, "ch": 5}, {"t": 9.915, "dur": 0.067, "note": 80, "inst": "celesta_v0_additive_3", "vel": 1.0, "bend": 0.0, "ch": 0}, {"t": 9.982, "dur": 0.067, "note": 82, "inst": "harpsichord_v0_additive_2", "vel": 1.0, "bend": 0.0, "ch": 2}, {"t": 10.049, "dur": 0.067, "note": 80, "inst": "celesta_v0_additive_3", "vel": 1.0, "bend": 0.0, "ch": 0}, {"t": 10.115, "dur": 0.399, "note": 41, "inst": "celesta_v0_additive_3", "vel": 1.0, "bend": 0.0, "ch": 9}, {"t": 10.115, "dur": 0.2, "note": 77, "inst": "celesta_v0_additive_3", "vel": 1.0, "bend": 0.0, "ch": 13}, {"t": 10.315, "dur": 0.2, "note": 82, "inst": "harpsichord_v0_additive_2", "vel": 1.0, "bend": 0.0, "ch": 2}, {"t": 10.515, "dur": 0.399, "note": 37, "inst": "harpsichord_v0_additive_2", "vel": 1.0, "bend": 0.0, "ch": 5}, {"t": 10.515, "dur": 0.2, "note": 82, "inst": "harpsichord_v0_additive_2", "vel": 1.0, "bend": 0.0, "ch": 2}, {"t": 10.714, "dur": 0.2, "note": 77, "inst": "celesta_v0_additive_3", "vel": 1.0, "bend": 0.0, "ch": 13}, {"t": 10.914, "dur": 0.399, "note": 41, "inst": "celesta_v0_additive_3", "vel": 1.0, "bend": 0.0, "ch": 9}, {"t": 10.914, "dur": 0.1, "note": 73, "inst": "harpsichord_v0_additive_2", "vel": 1.0, "bend": 0.0, "ch": 9}, {"t": 11.014, "dur": 0.1, "note": 75, "inst": "piano_v0_additive_0", "vel": 1.0, "bend": 0.0, "ch": 11}, {"t": 11.114, "dur": 0.1, "note": 77, "inst": "celesta_v0_additive_3", "vel": 1.0, "bend": 0.0, "ch": 13}, {"t": 11.214, "dur": 0.1, "note": 77, "inst": "celesta_v0_additive_3", "vel": 1.0, "bend": 0.0, "ch": 13}, {"t": 11.313, "dur": 0.399, "note": 37, "inst": "harpsichord_v0_additive_2", "vel": 1.0, "bend": 0.0, "ch": 5}, {"t": 11.313, "dur": 0.1, "note": 80, "inst": "celesta_v0_additive_3", "vel": 1.0, "bend": 0.0, "ch": 0}, {"t": 11.413, "dur": 0.1, "note": 82, "inst": "harpsichord_v0_additive_2", "vel": 1.0, "bend": 0.0, "ch": 2}, {"t": 11.513, "dur": 0.1, "note": 82, "inst": "harpsichord_v0_additive_2", "vel": 1.0, "bend": 0.0, "ch": 2}, {"t": 11.613, "dur": 0.1, "note": 85, "inst": "harpsichord_v0_additive_2", "vel": 1.0, "bend": 0.0, "ch": 5}, {"t": 11.713, "dur": 0.399, "note": 46, "inst": "harpsichord_v0_additive_2", "vel": 1.0, "bend": 0.0, "ch": 14}, {"t": 11.713, "dur": 0.399, "note": 87, "inst": "piano_v0_additive_0", "vel": 1.0, "bend": 0.0, "ch": 7}, {"t": 12.112, "dur": 0.399, "note": 46, "inst": "harpsichord_v0_additive_2", "vel": 1.0, "bend": 0.0, "ch": 14}, {"t": 12.512, "dur": 0.399, "note": 46, "inst": "harpsichord_v0_additive_2", "vel": 1.0, "bend": 0.0, "ch": 14}, {"t": 12.512, "dur": 0.2, "note": 75, "inst": "piano_v0_additive_0", "vel": 1.0, "bend": 0.0, "ch": 11}, {"t": 12.711, "dur": 0.2, "note": 82, "inst": "harpsichord_v0_additive_2", "vel": 1.0, "bend": 0.0, "ch": 2}, {"t": 12.911, "dur": 0.399, "note": 46, "inst": "harpsichord_v0_additive_2", "vel": 1.0, "bend": 0.0, "ch": 14}, {"t": 12.911, "dur": 0.2, "note": 80, "inst": "celesta_v0_additive_3", "vel": 1.0, "bend": 0.0, "ch": 0}, {"t": 13.111, "dur": 0.2, "note": 75, "inst": "piano_v0_additive_0", "vel": 1.0, "bend": 0.0, "ch": 11}, {"t": 13.311, "dur": 0.399, "note": 49, "inst": "harpsichord_v0_additive_2", "vel": 1.0, "bend": 0.0, "ch": 1}, {"t": 13.311, "dur": 0.2, "note": 73, "inst": "harpsichord_v0_additive_2", "vel": 1.0, "bend": 0.0, "ch": 9}, {"t": 13.51, "dur": 0.2, "note": 80, "inst": "celesta_v0_additive_3", "vel": 1.0, "bend": 0.0, "ch": 0}, {"t": 13.71, "dur": 0.399, "note": 49, "inst": "harpsichord_v0_additive_2", "vel": 1.0, "bend": 0.0, "ch": 1}, {"t": 13.71, "dur": 0.2, "note": 77, "inst": "celesta_v0_additive_3", "vel": 1.0, "bend": 0.0, "ch": 13}, {"t": 13.91, "dur": 0.2, "note": 65, "inst": "celesta_v0_additive_3", "vel": 1.0, "bend": 0.0, "ch": 1}, {"t": 14.11, "dur": 0.399, "note": 49, "inst": "harpsichord_v0_additive_2", "vel": 1.0, "bend": 0.0, "ch": 1}, {"t": 14.11, "dur": 0.2, "note": 65, "inst": "celesta_v0_additive_3", "vel": 1.0, "bend": 0.0, "ch": 1}, {"t": 14.309, "dur": 0.2, "note": 75, "inst": "piano_v0_additive_0", "vel": 1.0, "bend": 0.0, "ch": 11}, {"t": 42.161, "dur": 0.181, "note": 51, "inst": "piano_v0_additive_0", "vel": 0.654, "bend": 0.0, "ch": 3}, {"t": 42.342, "dur": 0.181, "note": 39, "inst": "piano_v0_additive_0", "vel": 0.512, "bend": 0.0, "ch": 7}, {"t": 42.523, "dur": 0.181, "note": 51, "inst": "piano_v0_additive_0", "vel": 0.646, "bend": 0.0, "ch": 3}, {"t": 42.704, "dur": 0.181, "note": 39, "inst": "piano_v0_additive_0", "vel": 0.535, "bend": 0.0, "ch": 7}, {"t": 42.885, "dur": 0.181, "note": 51, "inst": "piano_v0_additive_0", "vel": 0.646, "bend": 0.0, "ch": 3}, {"t": 43.066, "dur": 0.181, "note": 39, "inst": "piano_v0_additive_0", "vel": 0.535, "bend": 0.0, "ch": 7}, {"t": 43.247, "dur": 0.181, "note": 51, "inst": "piano_v0_additive_0", "vel": 0.622, "bend": 0.0, "ch": 3}, {"t": 43.428, "dur": 0.181, "note": 39, "inst": "piano_v0_additive_0", "vel": 0.52, "bend": 0.0, "ch": 7}, {"t": 43.428, "dur": 2.895, "note": 69, "inst": "piano_v0_additive_0", "vel": 0.677, "bend": 0.0, "ch": 5}, {"t": 43.609, "dur": 0.181, "note": 51, "inst": "piano_v0_additive_0", "vel": 0.693, "bend": 0.0, "ch": 3}, {"t": 43.79, "dur": 0.181, "note": 39, "inst": "piano_v0_additive_0", "vel": 0.512, "bend": 0.0, "ch": 7}, {"t": 43.971, "dur": 0.181, "note": 51, "inst": "piano_v0_additive_0", "vel": 0.693, "bend": 0.0, "ch": 3}, {"t": 44.152, "dur": 0.181, "note": 39, "inst": "piano_v0_additive_0", "vel": 0.496, "bend": 0.0, "ch": 7}, {"t": 44.333, "dur": 0.181, "note": 51, "inst": "piano_v0_additive_0", "vel": 0.654, "bend": 0.0, "ch": 3}, {"t": 44.514, "dur": 0.181, "note": 39, "inst": "piano_v0_additive_0", "vel": 0.528, "bend": 0.0, "ch": 7}, {"t": 44.695, "dur": 0.181, "note": 51, "inst": "piano_v0_additive_0", "vel": 0.646, "bend": 0.0, "ch": 3}, {"t": 44.876, "dur": 0.181, "note": 39, "inst": "piano_v0_additive_0", "vel": 0.496, "bend": 0.0, "ch": 7}, {"t": 45.056, "dur": 0.181, "note": 51, "inst": "piano_v0_additive_0", "vel": 0.63, "bend": 0.0, "ch": 3}, {"t": 45.237, "dur": 0.181, "note": 39, "inst": "piano_v0_additive_0", "vel": 0.528, "bend": 0.0, "ch": 7}, {"t": 45.418, "dur": 0.181, "note": 51, "inst": "piano_v0_additive_0", "vel": 0.677, "bend": 0.0, "ch": 3}, {"t": 45.599, "dur": 0.181, "note": 39, "inst": "piano_v0_additive_0", "vel": 0.488, "bend": 0.0, "ch": 7}, {"t": 45.78, "dur": 0.181, "note": 51, "inst": "piano_v0_additive_0", "vel": 0.685, "bend": 0.0, "ch": 3}, {"t": 45.961, "dur": 0.181, "note": 39, "inst": "piano_v0_additive_0", "vel": 0.52, "bend": 0.0, "ch": 7}, {"t": 46.142, "dur": 0.181, "note": 51, "inst": "piano_v0_additive_0", "vel": 0.654, "bend": 0.0, "ch": 3}, {"t": 46.323, "dur": 0.181, "note": 39, "inst": "piano_v0_additive_0", "vel": 0.52, "bend": 0.0, "ch": 7}, {"t": 46.323, "dur": 2.171, "note": 75, "inst": "piano_v0_additive_0", "vel": 0.669, "bend": 0.0, "ch": 11}, {"t": 46.504, "dur": 0.181, "note": 51, "inst": "piano_v0_additive_0", "vel": 0.669, "bend": 0.0, "ch": 3}, {"t": 46.685, "dur": 0.181, "note": 39, "inst": "piano_v0_additive_0", "vel": 0.48, "bend": 0.0, "ch": 7}, {"t": 46.866, "dur": 0.181, "note": 51, "inst": "piano_v0_additive_0", "vel": 0.669, "bend": 0.0, "ch": 3}, {"t": 47.047, "dur": 0.181, "note": 39, "inst": "piano_v0_additive_0", "vel": 0.496, "bend": 0.0, "ch": 7}, {"t": 47.228, "dur": 0.181, "note": 51, "inst": "piano_v0_additive_0", "vel": 0.669, "bend": 0.0, "ch": 3}, {"t": 47.409, "dur": 0.181, "note": 39, "inst": "piano_v0_additive_0", "vel": 0.52, "bend": 0.0, "ch": 7}, {"t": 47.59, "dur": 0.181, "note": 51, "inst": "piano_v0_additive_0", "vel": 0.677, "bend": 0.0, "ch": 3}, {"t": 47.771, "dur": 0.181, "note": 39, "inst": "piano_v0_additive_0", "vel": 0.543, "bend": 0.0, "ch": 7}, {"t": 47.952, "dur": 0.181, "note": 51, "inst": "piano_v0_additive_0", "vel": 0.646, "bend": 0.0, "ch": 3}, {"t": 48.133, "dur": 0.181, "note": 39, "inst": "piano_v0_additive_0", "vel": 0.496, "bend": 0.0, "ch": 7}, {"t": 48.314, "dur": 0.181, "note": 51, "inst": "piano_v0_additive_0", "vel": 0.709, "bend": 0.0, "ch": 3}, {"t": 48.495, "dur": 0.181, "note": 39, "inst": "piano_v0_additive_0", "vel": 0.512, "bend": 0.0, "ch": 7}, {"t": 48.676, "dur": 0.181, "note": 51, "inst": "piano_v0_additive_0", "vel": 0.685, "bend": 0.0, "ch": 3}, {"t": 48.857, "dur": 0.181, "note": 39, "inst": "piano_v0_additive_0", "vel": 0.52, "bend": 0.0, "ch": 7}, {"t": 48.857, "dur": 0.362, "note": 65, "inst": "celesta_v0_additive_3", "vel": 0.567, "bend": 0.0, "ch": 1}, {"t": 48.857, "dur": 0.362, "note": 69, "inst": "piano_v0_additive_0", "vel": 0.567, "bend": 0.0, "ch": 5}, {"t": 48.857, "dur": 0.362, "note": 75, "inst": "piano_v0_additive_0", "vel": 0.567, "bend": 0.0, "ch": 11}, {"t": 49.038, "dur": 0.181, "note": 51, "inst": "piano_v0_additive_0", "vel": 0.677, "bend": 0.0, "ch": 3}, {"t": 49.218, "dur": 0.181, "note": 39, "inst": "piano_v0_additive_0", "vel": 0.488, "bend": 0.0, "ch": 7}, {"t": 49.218, "dur": 5.791, "note": 67, "inst": "harpsichord_v0_additive_2", "vel": 0.614, "bend": 0.0, "ch": 3}, {"t": 49.218, "dur": 5.791, "note": 69, "inst": "piano_v0_additive_0", "vel": 0.614, "bend": 0.0, "ch": 5}, {"t": 49.218, "dur": 5.791, "note": 75, "inst": "piano_v0_additive_0", "vel": 0.614, "bend": 0.0, "ch": 11}, {"t": 49.399, "dur": 0.181, "note": 51, "inst": "piano_v0_additive_0", "vel": 0.669, "bend": 0.0, "ch": 3}, {"t": 49.58, "dur": 0.181, "note": 39, "inst": "piano_v0_additive_0", "vel": 0.551, "bend": 0.0, "ch": 7}, {"t": 49.761, "dur": 0.181, "note": 51, "inst": "piano_v0_additive_0", "vel": 0.685, "bend": 0.0, "ch": 3}, {"t": 49.942, "dur": 0.181, "note": 39, "inst": "piano_v0_additive_0", "vel": 0.551, "bend": 0.0, "ch": 7}, {"t": 50.123, "dur": 0.181, "note": 51, "inst": "piano_v0_additive_0", "vel": 0.701, "bend": 0.0, "ch": 3}, {"t": 50.304, "dur": 0.181, "note": 39, "inst": "piano_v0_additive_0", "vel": 0.504, "bend": 0.0, "ch": 7}, {"t": 50.485, "dur": 0.181, "note": 51, "inst": "piano_v0_additive_0", "vel": 0.693, "bend": 0.0, "ch": 3}, {"t": 50.666, "dur": 0.181, "note": 39, "inst": "piano_v0_additive_0", "vel": 0.535, "bend": 0.0, "ch": 7}, {"t": 50.847, "dur": 0.181, "note": 51, "inst": "piano_v0_additive_0", "vel": 0.654, "bend": 0.0, "ch": 3}, {"t": 51.028, "dur": 0.181, "note": 39, "inst": "piano_v0_additive_0", "vel": 0.535, "bend": 0.0, "ch": 7}, {"t": 51.209, "dur": 0.181, "note": 51, "inst": "piano_v0_additive_0", "vel": 0.654, "bend": 0.0, "ch": 3}, {"t": 51.39, "dur": 0.181, "note": 39, "inst": "piano_v0_additive_0", "vel": 0.496, "bend": 0.0, "ch": 7}, {"t": 51.571, "dur": 0.181, "note": 51, "inst": "piano_v0_additive_0", "vel": 0.685, "bend": 0.0, "ch": 3}, {"t": 51.752, "dur": 0.181, "note": 39, "inst": "piano_v0_additive_0", "vel": 0.535, "bend": 0.0, "ch": 7}, {"t": 51.933, "dur": 0.181, "note": 51, "inst": "piano_v0_additive_0", "vel": 0.638, "bend": 0.0, "ch": 3}, {"t": 52.114, "dur": 0.362, "note": 39, "inst": "piano_v0_additive_0", "vel": 0.583, "bend": 0.0, "ch": 7}, {"t": 52.114, "dur": 0.362, "note": 51, "inst": "piano_v0_additive_0", "vel": 0.583, "bend": 0.0, "ch": 3}, {"t": 52.476, "dur": 0.362, "note": 33, "inst": "piano_v0_additive_0", "vel": 0.575, "bend": 0.0, "ch": 1}, {"t": 52.476, "dur": 0.362, "note": 45, "inst": "piano_v0_additive_0", "vel": 0.575, "bend": 0.0, "ch": 13}, {"t": 52.838, "dur": 0.362, "note": 39, "inst": "piano_v0_additive_0", "vel": 0.669, "bend": 0.0, "ch": 7}, {"t": 52.838, "dur": 0.362, "note": 51, "inst": "piano_v0_additive_0", "vel": 0.669, "bend": 0.0, "ch": 3}, {"t": 53.2, "dur": 0.362, "note": 33, "inst": "piano_v0_additive_0", "vel": 0.567, "bend": 0.0, "ch": 1}, {"t": 53.2, "dur": 0.362, "note": 45, "inst": "piano_v0_additive_0", "vel": 0.567, "bend": 0.0, "ch": 13}, {"t": 53.561, "dur": 0.362, "note": 39, "inst": "piano_v0_additive_0", "vel": 0.661, "bend": 0.0, "ch": 7}, {"t": 53.561, "dur": 0.362, "note": 51, "inst": "piano_v0_additive_0", "vel": 0.661, "bend": 0.0, "ch": 3}, {"t": 53.923, "dur": 0.362, "note": 33, "inst": "piano_v0_additive_0", "vel": 0.528, "bend": 0.0, "ch": 1}, {"t": 53.923, "dur": 0.362, "note": 45, "inst": "piano_v0_additive_0", "vel": 0.528, "bend": 0.0, "ch": 13}, {"t": 54.285, "dur": 0.362, "note": 39, "inst": "piano_v0_additive_0", "vel": 0.638, "bend": 0.0, "ch": 7}, {"t": 54.285, "dur": 0.362, "note": 51, "inst": "piano_v0_additive_0", "vel": 0.638, "bend": 0.0, "ch": 3}, {"t": 54.647, "dur": 0.362, "note": 33, "inst": "piano_v0_additive_0", "vel": 0.583, "bend": 0.0, "ch": 1}, {"t": 54.647, "dur": 0.362, "note": 45, "inst": "piano_v0_additive_0", "vel": 0.583, "bend": 0.0, "ch": 13}, {"t": 55.009, "dur": 0.181, "note": 39, "inst": "piano_v0_additive_0", "vel": 0.496, "bend": 0.0, "ch": 7}, {"t": 55.009, "dur": 2.895, "note": 63, "inst": "piano_v0_additive_0", "vel": 0.409, "bend": 0.0, "ch": 15}, {"t": 55.19, "dur": 0.181, "note": 51, "inst": "piano_v0_additive_0", "vel": 0.677, "bend": 0.0, "ch": 3}, {"t": 55.371, "dur": 0.181, "note": 39, "inst": "piano_v0_additive_0", "vel": 0.528, "bend": 0.0, "ch": 7}, {"t": 55.552, "dur": 0.181, "note": 51, "inst": "piano_v0_additive_0", "vel": 0.661, "bend": 0.0, "ch": 3}, {"t": 55.733, "dur": 0.181, "note": 39, "inst": "piano_v0_additive_0", "vel": 0.551, "bend": 0.0, "ch": 7}, {"t": 55.914, "dur": 0.181, "note": 51, "inst": "piano_v0_additive_0", "vel": 0.646, "bend": 0.0, "ch": 3}, {"t": 56.095, "dur": 0.181, "note": 39, "inst": "piano_v0_additive_0", "vel": 0.528, "bend": 0.0, "ch": 7}, {"t": 56.276, "dur": 0.181, "note": 51, "inst": "piano_v0_additive_0", "vel": 0.677, "bend": 0.0, "ch": 3}, {"t": 56.457, "dur": 0.181, "note": 39, "inst": "piano_v0_additive_0", "vel": 0.504, "bend": 0.0, "ch": 7}, {"t": 56.638, "dur": 0.181, "note": 51, "inst": "piano_v0_additive_0", "vel": 0.661, "bend": 0.0, "ch": 3}, {"t": 56.819, "dur": 0.181, "note": 39, "inst": "piano_v0_additive_0", "vel": 0.52, "bend": 0.0, "ch": 7}, {"t": 57.0, "dur": 0.181, "note": 51, "inst": "piano_v0_additive_0", "vel": 0.717, "bend": 0.0, "ch": 3}, {"t": 57.181, "dur": 0.181, "note": 39, "inst": "piano_v0_additive_0", "vel": 0.52, "bend": 0.0, "ch": 7}, {"t": 57.362, "dur": 0.181, "note": 51, "inst": "piano_v0_additive_0", "vel": 0.677, "bend": 0.0, "ch": 3}, {"t": 57.543, "dur": 0.181, "note": 39, "inst": "piano_v0_additive_0", "vel": 0.512, "bend": 0.0, "ch": 7}, {"t": 57.723, "dur": 0.181, "note": 51, "inst": "piano_v0_additive_0", "vel": 0.685, "bend": 0.0, "ch": 3}, {"t": 57.904, "dur": 0.181, "note": 39, "inst": "piano_v0_additive_0", "vel": 0.535, "bend": 0.0, "ch": 7}, {"t": 57.904, "dur": 2.895, "note": 69, "inst": "piano_v0_additive_0", "vel": 0.661, "bend": 0.0, "ch": 5}, {"t": 58.085, "dur": 0.181, "note": 51, "inst": "piano_v0_additive_0", "vel": 0.654, "bend": 0.0, "ch": 3}, {"t": 58.266, "dur": 0.181, "note": 39, "inst": "piano_v0_additive_0", "vel": 0.528, "bend": 0.0, "ch": 7}, {"t": 58.447, "dur": 0.181, "note": 51, "inst": "piano_v0_additive_0", "vel": 0.685, "bend": 0.0, "ch": 3}, {"t": 58.628, "dur": 0.181, "note": 39, "inst": "piano_v0_additive_0", "vel": 0.496, "bend": 0.0, "ch": 7}, {"t": 58.809, "dur": 0.181, "note": 51, "inst": "piano_v0_additive_0", "vel": 0.661, "bend": 0.0, "ch": 3}, {"t": 58.99, "dur": 0.181, "note": 39, "inst": "piano_v0_additive_0", "vel": 0.543, "bend": 0.0, "ch": 7}, {"t": 59.171, "dur": 0.181, "note": 51, "inst": "piano_v0_additive_0", "vel": 0.654, "bend": 0.0, "ch": 3}, {"t": 59.352, "dur": 0.181, "note": 39, "inst": "piano_v0_additive_0", "vel": 0.583, "bend": 0.0, "ch": 7}, {"t": 59.533, "dur": 0.181, "note": 51, "inst": "piano_v0_additive_0", "vel": 0.646, "bend": 0.0, "ch": 3}, {"t": 59.714, "dur": 0.181, "note": 39, "inst": "piano_v0_additive_0", "vel": 0.528, "bend": 0.0, "ch": 7}, {"t": 59.895, "dur": 0.181, "note": 51, "inst": "piano_v0_additive_0", "vel": 0.677, "bend": 0.0, "ch": 3}, {"t": 60.076, "dur": 0.181, "note": 39, "inst": "piano_v0_additive_0", "vel": 0.583, "bend": 0.0, "ch": 7}, {"t": 60.257, "dur": 0.181, "note": 51, "inst": "piano_v0_additive_0", "vel": 0.646, "bend": 0.0, "ch": 3}, {"t": 60.438, "dur": 0.181, "note": 39, "inst": "piano_v0_additive_0", "vel": 0.496, "bend": 0.0, "ch": 7}, {"t": 60.619, "dur": 0.181, "note": 51, "inst": "piano_v0_additive_0", "vel": 0.677, "bend": 0.0, "ch": 3}, {"t": 60.8, "dur": 0.181, "note": 39, "inst": "piano_v0_additive_0", "vel": 0.504, "bend": 0.0, "ch": 7}, {"t": 60.8, "dur": 2.171, "note": 75, "inst": "piano_v0_additive_0", "vel": 0.701, "bend": 0.0, "ch": 11}, {"t": 60.981, "dur": 0.181, "note": 51, "inst": "piano_v0_additive_0", "vel": 0.685, "bend": 0.0, "ch": 3}, {"t": 61.162, "dur": 0.181, "note": 39, "inst": "piano_v0_additive_0", "vel": 0.52, "bend": 0.0, "ch": 7}, {"t": 61.343, "dur": 0.181, "note": 51, "inst": "piano_v0_additive_0", "vel": 0.709, "bend": 0.0, "ch": 3}, {"t": 61.524, "dur": 0.181, "note": 39, "inst": "piano_v0_additive_0", "vel": 0.535, "bend": 0.0, "ch": 7}, {"t": 61.705, "dur": 0.181, "note": 51, "inst": "piano_v0_additive_0", "vel": 0.693, "bend": 0.0, "ch": 3}, {"t": 61.885, "dur": 0.181, "note": 39, "inst": "piano_v0_additive_0", "vel": 0.535, "bend": 0.0, "ch": 7}, {"t": 62.066, "dur": 0.181, "note": 51, "inst": "piano_v0_additive_0", "vel": 0.661, "bend": 0.0, "ch": 3}, {"t": 62.247, "dur": 0.181, "note": 39, "inst": "piano_v0_additive_0", "vel": 0.496, "bend": 0.0, "ch": 7}, {"t": 62.428, "dur": 0.181, "note": 51, "inst": "piano_v0_additive_0", "vel": 0.669, "bend": 0.0, "ch": 3}, {"t": 62.609, "dur": 0.181, "note": 39, "inst": "piano_v0_additive_0", "vel": 0.504, "bend": 0.0, "ch": 7}, {"t": 62.79, "dur": 0.181, "note": 51, "inst": "piano_v0_additive_0", "vel": 0.693, "bend": 0.0, "ch": 3}, {"t": 62.971, "dur": 0.181, "note": 39, "inst": "piano_v0_additive_0", "vel": 0.535, "bend": 0.0, "ch": 7}, {"t": 63.152, "dur": 0.181, "note": 51, "inst": "piano_v0_additive_0", "vel": 0.654, "bend": 0.0, "ch": 3}, {"t": 63.333, "dur": 0.181, "note": 39, "inst": "piano_v0_additive_0", "vel": 0.512, "bend": 0.0, "ch": 7}, {"t": 63.333, "dur": 0.362, "note": 69, "inst": "piano_v0_additive_0", "vel": 0.661, "bend": 0.0, "ch": 5}, {"t": 63.333, "dur": 0.362, "note": 75, "inst": "piano_v0_additive_0", "vel": 0.661, "bend": 0.0, "ch": 11}, {"t": 63.333, "dur": 0.362, "note": 79, "inst": "harpsichord_v0_additive_2", "vel": 0.661, "bend": 0.0, "ch": 15}, {"t": 63.514, "dur": 0.181, "note": 51, "inst": "piano_v0_additive_0", "vel": 0.654, "bend": 0.0, "ch": 3}, {"t": 63.695, "dur": 0.181, "note": 43, "inst": "harpsichord_v0_additive_2", "vel": 0.52, "bend": 0.0, "ch": 11}, {"t": 63.695, "dur": 2.171, "note": 75, "inst": "piano_v0_additive_0", "vel": 0.701, "bend": 0.0, "ch": 11}, {"t": 63.695, "dur": 2.171, "note": 79, "inst": "harpsichord_v0_additive_2", "vel": 0.701, "bend": 0.0, "ch": 15}, {"t": 63.695, "dur": 2.171, "note": 73, "inst": "harpsichord_v0_additive_2", "vel": 0.701, "bend": 0.0, "ch": 9}, {"t": 210.187, "dur": 0.119, "note": 68, "inst": "celesta_v0_additive_3", "vel": 0.709, "bend": 0.0, "ch": 4}, {"t": 210.187, "dur": 0.119, "note": 68, "inst": "celesta_v0_additive_3", "vel": 0.709, "bend": 0.0, "ch": 4}, {"t": 210.307, "dur": 0.119, "note": 66, "inst": "piano_v0_additive_0", "vel": 0.709, "bend": 0.0, "ch": 2}, {"t": 210.307, "dur": 0.119, "note": 66, "inst": "piano_v0_additive_0", "vel": 0.709, "bend": 0.0, "ch": 2}, {"t": 210.426, "dur": 0.239, "note": 64, "inst": "harpsichord_v0_additive_2", "vel": 0.709, "bend": 0.0, "ch": 0}, {"t": 210.426, "dur": 0.239, "note": 64, "inst": "harpsichord_v0_additive_2", "vel": 0.709, "bend": 0.0, "ch": 0}, {"t": 210.426, "dur": 0.239, "note": 92, "inst": "celesta_v0_additive_3", "vel": 0.709, "bend": 0.0, "ch": 12}, {"t": 210.664, "dur": 0.239, "note": 66, "inst": "piano_v0_additive_0", "vel": 0.709, "bend": 0.0, "ch": 2}, {"t": 210.664, "dur": 0.239, "note": 66, "inst": "piano_v0_additive_0", "vel": 0.709, "bend": 0.0, "ch": 2}, {"t": 210.664, "dur": 0.477, "note": 85, "inst": "harpsichord_v0_additive_2", "vel": 0.709, "bend": 0.0, "ch": 5}, {"t": 210.903, "dur": 0.239, "note": 54, "inst": "piano_v0_additive_0", "vel": 0.709, "bend": 0.0, "ch": 6}, {"t": 210.903, "dur": 0.239, "note": 61, "inst": "harpsichord_v0_additive_2", "vel": 0.709, "bend": 0.0, "ch": 13}, {"t": 210.903, "dur": 0.716, "note": 81, "inst": "piano_v0_additive_0", "vel": 0.709, "bend": 0.0, "ch": 1}, {"t": 211.141, "dur": 0.239, "note": 66, "inst": "piano_v0_additive_0", "vel": 0.709, "bend": 0.0, "ch": 2}, {"t": 211.141, "dur": 0.239, "note": 66, "inst": "piano_v0_additive_0", "vel": 0.709, "bend": 0.0, "ch": 2}, {"t": 211.141, "dur": 0.239, "note": 81, "inst": "piano_v0_additive_0", "vel": 0.709, "bend": 0.0, "ch": 1}, {"t": 211.38, "dur": 0.239, "note": 59, "inst": "celesta_v0_additive_3", "vel": 0.709, "bend": 0.0, "ch": 11}, {"t": 211.38, "dur": 0.239, "note": 59, "inst": "celesta_v0_additive_3", "vel": 0.709, "bend": 0.0, "ch": 11}, {"t": 211.38, "dur": 0.716, "note": 86, "inst": "celesta_v0_additive_3", "vel": 0.709, "bend": 0.0, "ch": 6}, {"t": 211.619, "dur": 0.239, "note": 64, "inst": "harpsichord_v0_additive_2", "vel": 0.709, "bend": 0.0, "ch": 0}, {"t": 211.619, "dur": 0.239, "note": 64, "inst": "harpsichord_v0_additive_2", "vel": 0.709, "bend": 0.0, "ch": 0}, {"t": 211.619, "dur": 0.716, "note": 80, "inst": "celesta_v0_additive_3", "vel": 0.709, "bend": 0.0, "ch": 0}, {"t": 211.857, "dur": 0.239, "note": 52, "inst": "harpsichord_v0_additive_2", "vel": 0.709, "bend": 0.0, "ch": 4}, {"t": 211.857, "dur": 0.239, "note": 52, "inst": "harpsichord_v0_additive_2", "vel": 0.709, "bend": 0.0, "ch": 4}, {"t": 212.096, "dur": 0.477, "note": 57, "inst": "piano_v0_additive_0", "vel": 0.709, "bend": 0.0, "ch": 9}, {"t": 212.096, "dur": 0.477, "note": 57, "inst": "piano_v0_additive_0", "vel": 0.709, "bend": 0.0, "ch": 9}, {"t": 212.096, "dur": 0.716, "note": 85, "inst": "harpsichord_v0_additive_2", "vel": 0.709, "bend": 0.0, "ch": 5}, {"t": 212.334, "dur": 0.239, "note": 73, "inst": "harpsichord_v0_additive_2", "vel": 0.709, "bend": 0.0, "ch": 9}, {"t": 212.573, "dur": 0.239, "note": 62, "inst": "celesta_v0_additive_3", "vel": 0.709, "bend": 0.0, "ch": 14}, {"t": 212.573, "dur": 0.239, "note": 62, "inst": "celesta_v0_additive_3", "vel": 0.709, "bend": 0.0, "ch": 14}, {"t": 212.573, "dur": 0.477, "note": 78, "inst": "piano_v0_additive_0", "vel": 0.709, "bend": 0.0, "ch": 14}, {"t": 212.811, "dur": 0.477, "note": 56, "inst": "celesta_v0_additive_3", "vel": 0.709, "bend": 0.0, "ch": 8}, {"t": 212.811, "dur": 0.477, "note": 56, "inst": "celesta_v0_additive_3", "vel": 0.709, "bend": 0.0, "ch": 8}, {"t": 212.811, "dur": 0.716, "note": 83, "inst": "celesta_v0_additive_3", "vel": 0.709, "bend": 0.0, "ch": 3}, {"t": 213.05, "dur": 0.239, "note": 71, "inst": "celesta_v0_additive_3", "vel": 0.709, "bend": 0.0, "ch": 7}, {"t": 213.288, "dur": 0.239, "note": 61, "inst": "harpsichord_v0_additive_2", "vel": 0.709, "bend": 0.0, "ch": 13}, {"t": 213.288, "dur": 0.239, "note": 61, "inst": "harpsichord_v0_additive_2", "vel": 0.709, "bend": 0.0, "ch": 13}, {"t": 213.288, "dur": 0.477, "note": 76, "inst": "harpsichord_v0_additive_2", "vel": 0.709, "bend": 0.0, "ch": 12}, {"t": 213.527, "dur": 0.477, "note": 54, "inst": "piano_v0_additive_0", "vel": 0.709, "bend": 0.0, "ch": 6}, {"t": 213.527, "dur": 0.477, "note": 54, "inst": "piano_v0_additive_0", "vel": 0.709, "bend": 0.0, "ch": 6}, {"t": 213.527, "dur": 0.716, "note": 81, "inst": "piano_v0_additive_0", "vel": 0.709, "bend": 0.0, "ch": 1}, {"t": 213.765, "dur": 0.239, "note": 69, "inst": "piano_v0_additive_0", "vel": 0.709, "bend": 0.0, "ch": 5}, {"t": 214.004, "dur": 0.239, "note": 59, "inst": "celesta_v0_additive_3", "vel": 0.709, "bend": 0.0, "ch": 11}, {"t": 214.004, "dur": 0.239, "note": 59, "inst": "celesta_v0_additive_3", "vel": 0.709, "bend": 0.0, "ch": 11}, {"t": 214.004, "dur": 0.716, "note": 74, "inst": "celesta_v0_additive_3", "vel": 0.709, "bend": 0.0, "ch": 10}, {"t": 214.242, "dur": 0.477, "note": 52, "inst": "harpsichord_v0_additive_2", "vel": 0.709, "bend": 0.0, "ch": 4}, {"t": 214.242, "dur": 0.477, "note": 52, "inst": "harpsichord_v0_additive_2", "vel": 0.709, "bend": 0.0, "ch": 4}, {"t": 214.242, "dur": 0.239, "note": 80, "inst": "celesta_v0_additive_3", "vel": 0.709, "bend": 0.0, "ch": 0}, {"t": 214.481, "dur": 0.239, "note": 76, "inst": "harpsichord_v0_additive_2", "vel": 0.709, "bend": 0.0, "ch": 12}, {"t": 214.72, "dur": 0.239, "note": 54, "inst": "piano_v0_additive_0", "vel": 0.709, "bend": 0.0, "ch": 6}, {"t": 214.72, "dur": 0.239, "note": 54, "inst": "piano_v0_additive_0", "vel": 0.709, "bend": 0.0, "ch": 6}, {"t": 214.72, "dur": 0.477, "note": 73, "inst": "harpsichord_v0_additive_2", "vel": 0.709, "bend": 0.0, "ch": 9}, {"t": 214.72, "dur": 0.239, "note": 81, "inst": "piano_v0_additive_0", "vel": 0.709, "bend": 0.0, "ch": 1}, {"t": 214.958, "dur": 0.239, "note": 50, "inst": "celesta_v0_additive_3", "vel": 0.709, "bend": 0.0, "ch": 2}, {"t": 214.958, "dur": 0.239, "note": 50, "inst": "celesta_v0_additive_3", "vel": 0.709, "bend": 0.0, "ch": 2}, {"t": 214.958, "dur": 0.239, "note": 69, "inst": "piano_v0_additive_0", "vel": 0.709, "bend": 0.0, "ch": 5}, {"t": 215.197, "dur": 0.477, "note": 52, "inst": "harpsichord_v0_additive_2", "vel": 0.709, "bend": 0.0, "ch": 4}, {"t": 215.197, "dur": 0.477, "note": 52, "inst": "harpsichord_v0_additive_2", "vel": 0.709, "bend": 0.0, "ch": 4}, {"t": 215.197, "dur": 0.358, "note": 69, "inst": "piano_v0_additive_0", "vel": 0.709, "bend": 0.0, "ch": 5}, {"t": 215.197, "dur": 0.477, "note": 71, "inst": "celesta_v0_additive_3", "vel": 0.709, "bend": 0.0, "ch": 7}, {"t": 215.554, "dur": 0.119, "note": 68, "inst": "celesta_v0_additive_3", "vel": 0.709, "bend": 0.0, "ch": 4}, {"t": 215.674, "dur": 0.239, "note": 57, "inst": "piano_v0_additive_0", "vel": 0.709, "bend": 0.0, "ch": 9}, {"t": 215.674, "dur": 0.239, "note": 57, "inst": "piano_v0_additive_0", "vel": 0.709, "bend": 0.0, "ch": 9}, {"t": 215.674, "dur": 0.239, "note": 69, "inst": "piano_v0_additive_0", "vel": 0.709, "bend": 0.0, "ch": 5}, {"t": 215.674, "dur": 0.477, "note": 69, "inst": "piano_v0_additive_0", "vel": 0.709, "bend": 0.0, "ch": 5}, {"t": 215.912, "dur": 0.477, "note": 69, "inst": "piano_v0_additive_0", "vel": 0.709, "bend": 0.0, "ch": 5}, {"t": 215.912, "dur": 0.477, "note": 69, "inst": "piano_v0_additive_0", "vel": 0.709, "bend": 0.0, "ch": 5}, {"t": 215.912, "dur": 0.358, "note": 85, "inst": "harpsichord_v0_additive_2", "vel": 0.709, "bend": 0.0, "ch": 5}, {"t": 216.27, "dur": 0.119, "note": 86, "inst": "celesta_v0_additive_3", "vel": 0.709, "bend": 0.0, "ch": 6}, {"t": 216.389, "dur": 0.239, "note": 68, "inst": "celesta_v0_additive_3", "vel": 0.709, "bend": 0.0, "ch": 4}, {"t": 216.389, "dur": 0.239, "note": 68, "inst": "celesta_v0_additive_3", "vel": 0.709, "bend": 0.0, "ch": 4}, {"t": 216.389, "dur": 0.239, "note": 88, "inst": "harpsichord_v0_additive_2", "vel": 0.709, "bend": 0.0, "ch": 8}, {"t": 216.628, "dur": 0.477, "note": 59, "inst": "celesta_v0_additive_3", "vel": 0.709, "bend": 0.0, "ch": 11}, {"t": 216.628, "dur": 0.477, "note": 59, "inst": "celesta_v0_additive_3", "vel": 0.709, "bend": 0.0, "ch": 11}, {"t": 216.628, "dur": 0.358, "note": 85, "inst": "harpsichord_v0_additive_2", "vel": 0.709, "bend": 0.0, "ch": 5}, {"t": 216.628, "dur": 0.119, "note": 90, "inst": "piano_v0_additive_0", "vel": 0.709, "bend": 0.0, "ch": 10}, {"t": 216.747, "dur": 0.119, "note": 88, "inst": "harpsichord_v0_additive_2", "vel": 0.709, "bend": 0.0, "ch": 8}, {"t": 216.866, "dur": 0.119, "note": 86, "inst": "celesta_v0_additive_3", "vel": 0.709, "bend": 0.0, "ch": 6}, {"t": 216.986, "dur": 0.119, "note": 85, "inst": "harpsichord_v0_additive_2", "vel": 0.709, "bend": 0.0, "ch": 5}, {"t": 216.986, "dur": 0.119, "note": 85, "inst": "harpsichord_v0_additive_2", "vel": 0.709, "bend": 0.0, "ch": 5}, {"t": 217.105, "dur": 0.358, "note": 71, "inst": "celesta_v0_additive_3", "vel": 0.709, "bend": 0.0, "ch": 7}, {"t": 217.105, "dur": 0.358, "note": 71, "inst": "celesta_v0_additive_3", "vel": 0.709, "bend": 0.0, "ch": 7}, {"t": 217.105, "dur": 0.358, "note": 78, "inst": "piano_v0_additive_0", "vel": 0.709, "bend": 0.0, "ch": 14}, {"t": 217.105, "dur": 0.358, "note": 86, "inst": "celesta_v0_additive_3", "vel": 0.709, "bend": 0.0, "ch": 6}, {"t": 217.463, "dur": 0.119, "note": 62, "inst": "celesta_v0_additive_3", "vel": 0.709, "bend": 0.0, "ch": 14}, {"t": 217.463, "dur": 0.119, "note": 62, "inst": "celesta_v0_additive_3", "vel": 0.709, "bend": 0.0, "ch": 14}, {"t": 217.463, "dur": 0.119, "note": 83, "inst": "celesta_v0_additive_3", "vel": 0.709, "bend": 0.0, "ch": 3}, {"t": 217.463, "dur": 0.119, "note": 90, "inst": "piano_v0_additive_0", "vel": 0.709, "bend": 0.0, "ch": 10}, {"t": 217.582, "dur": 0.477, "note": 64, "inst": "harpsichord_v0_additive_2", "vel": 0.709, "bend": 0.0, "ch": 0}, {"t": 217.582, "dur": 0.477, "note": 64, "inst": "harpsichord_v0_additive_2", "vel": 0.709, "bend": 0.0, "ch": 0}, {"t": 217.582, "dur": 0.239, "note": 71, "inst": "celesta_v0_additive_3", "vel": 0.709, "bend": 0.0, "ch": 7}, {"t": 217.582, "dur": 0.239, "note": 85, "inst": "harpsichord_v0_additive_2", "vel": 0.709, "bend": 0.0, "ch": 5}, {"t": 217.821, "dur": 0.239, "note": 83, "inst": "celesta_v0_additive_3", "vel": 0.709, "bend": 0.0, "ch": 3}, {"t": 217.821, "dur": 0.239, "note": 86, "inst": "celesta_v0_additive_3", "vel": 0.709, "bend": 0.0, "ch": 6}, {"t": 218.059, "dur": 0.477, "note": 66, "inst": "piano_v0_additive_0", "vel": 0.709, "bend": 0.0, "ch": 2}, {"t": 218.059, "dur": 0.477, "note": 66, "inst": "piano_v0_additive_0", "vel": 0.709, "bend": 0.0, "ch": 2}, {"t": 218.059, "dur": 0.358, "note": 83, "inst": "celesta_v0_additive_3", "vel": 0.709, "bend": 0.0, "ch": 3}, {"t": 218.059, "dur": 0.477, "note": 85, "inst": "harpsichord_v0_additive_2", "vel": 0.709, "bend": 0.0, "ch": 5}, {"t": 218.417, "dur": 0.119, "note": 71, "inst": "celesta_v0_additive_3", "vel": 0.709, "bend": 0.0, "ch": 7}, {"t": 218.536, "dur": 0.239, "note": 59, "inst": "celesta_v0_additive_3", "vel": 0.709, "bend": 0.0, "ch": 11}, {"t": 218.536, "dur": 0.239, "note": 59, "inst": "celesta_v0_additive_3", "vel": 0.709, "bend": 0.0, "ch": 11}, {"t": 218.536, "dur": 0.239, "note": 83, "inst": "celesta_v0_additive_3", "vel": 0.709, "bend": 0.0, "ch": 3}, {"t": 218.536, "dur": 0.477, "note": 83, "inst": "celesta_v0_additive_3", "vel": 0.709, "bend": 0.0, "ch": 3}, {"t": 218.775, "dur": 0.477, "note": 47, "inst": "celesta_v0_additive_3", "vel": 0.709, "bend": 0.0, "ch": 15}, {"t": 218.775, "dur": 0.477, "note": 47, "inst": "celesta_v0_additive_3", "vel": 0.709, "bend": 0.0, "ch": 15}, {"t": 218.775, "dur": 0.119, "note": 90, "inst": "piano_v0_additive_0", "vel": 0.709, "bend": 0.0, "ch": 10}, {"t": 218.894, "dur": 0.119, "note": 88, "inst": "harpsichord_v0_additive_2", "vel": 0.709, "bend": 0.0, "ch": 8}, {"t": 219.013, "dur": 0.119, "note": 86, "inst": "celesta_v0_additive_3", "vel": 0.709, "bend": 0.0, "ch": 6}, {"t": 219.133, "dur": 0.119, "note": 85, "inst": "harpsichord_v0_additive_2", "vel": 0.709, "bend": 0.0, "ch": 5}, {"t": 219.252, "dur": 0.239, "note": 59, "inst": "celesta_v0_additive_3", "vel": 0.709, "bend": 0.0, "ch": 11}, {"t": 219.252, "dur": 0.239, "note": 59, "inst": "celesta_v0_additive_3", "vel": 0.709, "bend": 0.0, "ch": 11}, {"t": 219.252, "dur": 0.239, "note": 86, "inst": "celesta_v0_additive_3", "vel": 0.709, "bend": 0.0, "ch": 6}, {"t": 219.49, "dur": 0.477, "note": 54, "inst": "piano_v0_additive_0", "vel": 0.709, "bend": 0.0, "ch": 6}, {"t": 219.49, "dur": 0.477, "note": 54, "inst": "piano_v0_additive_0", "vel": 0.709, "bend": 0.0, "ch": 6}, {"t": 219.49, "dur": 0.477, "note": 85, "inst": "harpsichord_v0_additive_2", "vel": 0.709, "bend": 0.0, "ch": 5}, {"t": 219.49, "dur": 0.119, "note": 90, "inst": "piano_v0_additive_0", "vel": 0.709, "bend": 0.0, "ch": 10}, {"t": 219.61, "dur": 0.119, "note": 88, "inst": "harpsichord_v0_additive_2", "vel": 0.709, "bend": 0.0, "ch": 8}, {"t": 219.729, "dur": 0.119, "note": 86, "inst": "celesta_v0_additive_3", "vel": 0.709, "bend": 0.0, "ch": 6}, {"t": 219.848, "dur": 0.119, "note": 85, "inst": "harpsichord_v0_additive_2", "vel": 0.709, "bend": 0.0, "ch": 5}, {"t": 219.967, "dur": 0.239, "note": 59, "inst": "celesta_v0_additive_3", "vel": 0.709, "bend": 0.0, "ch": 11}, {"t": 219.967, "dur": 0.239, "note": 59, "inst": "celesta_v0_additive_3", "vel": 0.709, "bend": 0.0, "ch": 11}, {"t": 219.967, "dur": 0.239, "note": 86, "inst": "celesta_v0_additive_3", "vel": 0.709, "bend": 0.0, "ch": 6}, {"t": 220.206, "dur": 0.477, "note": 47, "inst": "celesta_v0_additive_3", "vel": 0.709, "bend": 0.0, "ch": 15}, {"t": 220.206, "dur": 0.477, "note": 47, "inst": "celesta_v0_additive_3", "vel": 0.709, "bend": 0.0, "ch": 15}, {"t": 220.206, "dur": 0.716, "note": 85, "inst": "harpsichord_v0_additive_2", "vel": 0.709, "bend": 0.0, "ch": 5}, {"t": 220.206, "dur": 0.119, "note": 90, "inst": "piano_v0_additive_0", "vel": 0.709, "bend": 0.0, "ch": 10}, {"t": 220.325, "dur": 0.119, "note": 88, "inst": "harpsichord_v0_additive_2", "vel": 0.709, "bend": 0.0, "ch": 8}, {"t": 220.445, "dur": 0.119, "note": 86, "inst": "celesta_v0_additive_3", "vel": 0.709, "bend": 0.0, "ch": 6}, {"t": 220.564, "dur": 0.119, "note": 85, "inst": "harpsichord_v0_additive_2", "vel": 0.709, "bend": 0.0, "ch": 5}, {"t": 220.683, "dur": 0.477, "note": 59, "inst": "celesta_v0_additive_3", "vel": 0.709, "bend": 0.0, "ch": 11}, {"t": 220.683, "dur": 0.477, "note": 59, "inst": "celesta_v0_additive_3", "vel": 0.709, "bend": 0.0, "ch": 11}, {"t": 220.683, "dur": 0.954, "note": 86, "inst": "celesta_v0_additive_3", "vel": 0.709, "bend": 0.0, "ch": 6}, {"t": 220.922, "dur": 0.119, "note": 83, "inst": "celesta_v0_additive_3", "vel": 0.709, "bend": 0.0, "ch": 3}, {"t": 221.041, "dur": 0.119, "note": 81, "inst": "piano_v0_additive_0", "vel": 0.709, "bend": 0.0, "ch": 1}, {"t": 221.16, "dur": 0.239, "note": 59, "inst": "celesta_v0_additive_3", "vel": 0.709, "bend": 0.0, "ch": 11}, {"t": 221.16, "dur": 0.239, "note": 59, "inst": "celesta_v0_additive_3", "vel": 0.709, "bend": 0.0, "ch": 11}, {"t": 221.16, "dur": 0.119, "note": 80, "inst": "celesta_v0_additive_3", "vel": 0.709, "bend": 0.0, "ch": 0}, {"t": 221.279, "dur": 0.119, "note": 78, "inst": "piano_v0_additive_0", "vel": 0.709, "bend": 0.0, "ch": 14}, {"t": 221.399, "dur": 0.477, "note": 61, "inst": "harpsichord_v0_additive_2", "vel": 0.709, "bend": 0.0, "ch": 13}, {"t": 221.399, "dur": 0.477, "note": 61, "inst": "harpsichord_v0_additive_2", "vel": 0.709, "bend": 0.0, "ch": 13}, {"t": 221.399, "dur": 0.239, "note": 76, "inst": "harpsichord_v0_additive_2", "vel": 0.709, "bend": 0.0, "ch": 12}, {"t": 221.637, "dur": 0.716, "note": 80, "inst": "celesta_v0_additive_3", "vel": 0.709, "bend": 0.0, "ch": 0}, {"t": 221.637, "dur": 0.119, "note": 85, "inst": "harpsichord_v0_additive_2", "vel": 0.709, "bend": 0.0, "ch": 5}, {"t": 221.756, "dur": 0.119, "note": 83, "inst": "celesta_v0_additive_3", "vel": 0.709, "bend": 0.0, "ch": 3}, {"t": 221.876, "dur": 0.239, "note": 49, "inst": "harpsichord_v0_additive_2", "vel": 0.709, "bend": 0.0, "ch": 1}, {"t": 221.876, "dur": 0.239, "note": 49, "inst": "harpsichord_v0_additive_2", "vel": 0.709, "bend": 0.0, "ch": 1}, {"t": 221.876, "dur": 0.119, "note": 81, "inst": "piano_v0_additive_0", "vel": 0.709, "bend": 0.0, "ch": 1}, {"t": 221.995, "dur": 0.119, "note": 80, "inst": "celesta_v0_additive_3", "vel": 0.709, "bend": 0.0, "ch": 0}, {"t": 222.114, "dur": 0.477, "note": 54, "inst": "piano_v0_additive_0", "vel": 0.709, "bend": 0.0, "ch": 6}, {"t": 222.114, "dur": 0.477, "note": 54, "inst": "piano_v0_additive_0", "vel": 0.709, "bend": 0.0, "ch": 6}, {"t": 222.114, "dur": 0.477, "note": 81, "inst": "piano_v0_additive_0", "vel": 0.709, "bend": 0.0, "ch": 1}, {"t": 222.353, "dur": 0.239, "note": 73, "inst": "harpsichord_v0_additive_2", "vel": 0.709, "bend": 0.0, "ch": 9}, {"t": 222.591, "dur": 0.239, "note": 54, "inst": "piano_v0_additive_0", "vel": 0.709, "bend": 0.0, "ch": 6}, {"t": 222.591, "dur": 0.239, "note": 54, "inst": "piano_v0_additive_0", "vel": 0.709, "bend": 0.0, "ch": 6}, {"t": 222.591, "dur": 0.477, "note": 78, "inst": "piano_v0_additive_0", "vel": 0.709, "bend": 0.0, "ch": 14}, {"t": 222.591, "dur": 0.239, "note": 81, "inst": "piano_v0_additive_0", "vel": 0.709, "bend": 0.0, "ch": 1}, {"t": 222.83, "dur": 0.477, "note": 56, "inst": "celesta_v0_additive_3", "vel": 0.709, "bend": 0.0, "ch": 8}, {"t": 222.83, "dur": 0.477, "note": 56, "inst": "celesta_v0_additive_3", "vel": 0.709, "bend": 0.0, "ch": 8}, {"t": 222.83, "dur": 0.477, "note": 71, "inst": "celesta_v0_additive_3", "vel": 0.709, "bend": 0.0, "ch": 7}, {"t": 223.068, "dur": 0.477, "note": 76, "inst": "harpsichord_v0_additive_2", "vel": 0.709, "bend": 0.0, "ch": 12}, {"t": 223.307, "dur": 0.477, "note": 54, "inst": "piano_v0_additive_0", "vel": 0.709, "bend": 0.0, "ch": 6}, {"t": 223.307, "dur": 0.477, "note": 54, "inst": "piano_v0_additive_0", "vel": 0.709, "bend": 0.0, "ch": 6}, {"t": 223.307, "dur": 0.477, "note": 73, "inst": "harpsichord_v0_additive_2", "vel": 0.709, "bend": 0.0, "ch": 9}], "instruments": ["celesta_v0_additive_3", "harpsichord_v0_additive_2", "piano_v0_additive_0"], "duration": 223.784, "n_events": 422}