{"events": [{"t": 0.041, "dur": 0.192, "note": 70, "inst": "harpsichord_v0_additive_2", "vel": 1.0, "bend": 0.0, "ch": 6}, {"t": 0.233, "dur": 0.383, "note": 44, "inst": "piano_v0_additive_0", "vel": 1.0, "bend": 0.0, "ch": 12}, {"t": 0.233, "dur": 0.192, "note": 68, "inst": "piano_v0_additive_0", "vel": 1.0, "bend": 0.0, "ch": 4}, {"t": 0.424, "dur": 0.192, "note": 82, "inst": "harpsichord_v0_additive_2", "vel": 1.0, "bend": 0.0, "ch": 2}, {"t": 0.616, "dur": 0.383, "note": 44, "inst": "piano_v0_additive_0", "vel": 1.0, "bend": 0.0, "ch": 12}, {"t": 0.616, "dur": 0.192, "note": 80, "inst": "piano_v0_additive_0", "vel": 1.0, "bend": 0.0, "ch": 0}, {"t": 0.808, "dur": 0.064, "note": 70, "inst": "harpsichord_v0_additive_2", "vel": 1.0, "bend": 0.0, "ch": 6}, {"t": 0.872, "dur": 0.064, "note": 72, "inst": "piano_v0_additive_0", "vel": 1.0, "bend": 0.0, "ch": 8}, {"t": 0.936, "dur": 0.064, "note": 70, "inst": "harpsichord_v0_additive_2", "vel": 1.0, "bend": 0.0, "ch": 6}, {"t": 1.0, "dur": 0.383, "note": 44, "inst": "piano_v0_additive_0", "vel": 1.0, "bend": 0.0, "ch": 12}, {"t": 1.0, "dur": 0.192, "note": 68, "inst": "piano_v0_additive_0", "vel": 1.0, "bend": 0.0, "ch": 4}, {"t": 1.191, "dur": 0.192, "note": 77, "inst": "organ_v0_additive_1", "vel": 1.0, "bend": 0.0, "ch": 13}, {"t": 1.383, "dur": 0.383, "note": 44, "inst": "piano_v0_additive_0", "vel": 1.0, "bend": 0.0, "ch": 12}, {"t": 1.383, "dur": 0.192, "note": 75, "inst": "celesta_v0_additive_3", "vel": 1.0, "bend": 0.0, "ch": 11}, {"t": 1.575, "dur": 0.192, "note": 68, "inst": "piano_v0_additive_0", "vel": 1.0, "bend": 0.0, "ch": 4}, {"t": 1.767, "dur": 0.383, "note": 49, "inst": "organ_v0_additive_1", "vel": 1.0, "bend": 0.0, "ch": 1}, {"t": 1.767, "dur": 0.383, "note": 73, "inst": "organ_v0_additive_1", "vel": 1.0, "bend": 0.0, "ch": 9}, {"t": 2.15, "dur": 0.192, "note": 85, "inst": "organ_v0_additive_1", "vel": 1.0, "bend": 0.0, "ch": 5}, {"t": 2.342, "dur": 0.064, "note": 85, "inst": "organ_v0_additive_1", "vel": 1.0, "bend": 0.0, "ch": 5}, {"t": 2.406, "dur": 0.064, "note": 87, "inst": "celesta_v0_additive_3", "vel": 1.0, "bend": 0.0, "ch": 7}, {"t": 2.47, "dur": 0.064, "note": 85, "inst": "organ_v0_additive_1", "vel": 1.0, "bend": 0.0, "ch": 5}, {"t": 2.533, "dur": 0.383, "note": 44, "inst": "piano_v0_additive_0", "vel": 1.0, "bend": 0.0, "ch": 12}, {"t": 2.533, "dur": 0.192, "note": 84, "inst": "piano_v0_additive_0", "vel": 1.0, "bend": 0.0, "ch": 4}, {"t": 2.725, "dur": 0.192, "note": 89, "inst": "organ_v0_additive_1", "vel": 1.0, "bend": 0.0, "ch": 9}, {"t": 2.917, "dur": 0.383, "note": 39, "inst": "celesta_v0_additive_3", "vel": 1.0, "bend": 0.0, "ch": 7}, {"t": 2.917, "dur": 0.192, "note": 87, "inst": "celesta_v0_additive_3", "vel": 1.0, "bend": 0.0, "ch": 7}, {"t": 3.109, "dur": 0.064, "note": 82, "inst": "harpsichord_v0_additive_2", "vel": 1.0, "bend": 0.0, "ch": 2}, {"t": 3.173, "dur": 0.064, "note": 84, "inst": "piano_v0_additive_0", "vel": 1.0, "bend": 0.0, "ch": 4}, {"t": 3.236, "dur": 0.064, "note": 82, "inst": "harpsichord_v0_additive_2", "vel": 1.0, "bend": 0.0, "ch": 2}, {"t": 3.3, "dur": 0.383, "note": 44, "inst": "piano_v0_additive_0", "vel": 1.0, "bend": 0.0, "ch": 12}, {"t": 3.3, "dur": 0.192, "note": 80, "inst": "piano_v0_additive_0", "vel": 1.0, "bend": 0.0, "ch": 0}, {"t": 3.492, "dur": 0.192, "note": 85, "inst": "organ_v0_additive_1", "vel": 1.0, "bend": 0.0, "ch": 5}, {"t": 3.684, "dur": 0.383, "note": 39, "inst": "celesta_v0_additive_3", "vel": 1.0, "bend": 0.0, "ch": 7}, {"t": 3.684, "dur": 0.192, "note": 84, "inst": "piano_v0_additive_0", "vel": 1.0, "bend": 0.0, "ch": 4}, {"t": 3.876, "dur": 0.192, "note": 80, "inst": "piano_v0_additive_0", "vel": 1.0, "bend": 0.0, "ch": 0}, {"t": 4.067, "dur": 0.383, "note": 44, "inst": "piano_v0_additive_0", "vel": 1.0, "bend": 0.0, "ch": 12}, {"t": 4.067, "dur": 0.096, "note": 75, "inst": "celesta_v0_additive_3", "vel": 1.0, "bend": 0.0, "ch": 11}, {"t": 4.163, "dur": 0.096, "note": 73, "inst": "organ_v0_additive_1", "vel": 1.0, "bend": 0.0, "ch": 9}, {"t": 4.259, "dur": 0.096, "note": 75, "inst": "celesta_v0_additive_3", "vel": 1.0, "bend": 0.0, "ch": 11}, {"t": 4.355, "dur": 0.096, "note": 77, "inst": "organ_v0_additive_1", "vel": 1.0, "bend": 0.0, "ch": 13}, {"t": 4.451, "dur": 0.383, "note": 39, "inst": "celesta_v0_additive_3", "vel": 1.0, "bend": 0.0, "ch": 7}, {"t": 4.451, "dur": 0.096, "note": 78, "inst": "harpsichord_v0_additive_2", "vel": 1.0, "bend": 0.0, "ch": 14}, {"t": 4.547, "dur": 0.096, "note": 80, "inst": "piano_v0_additive_0", "vel": 1.0, "bend": 0.0, "ch": 0}, {"t": 4.643, "dur": 0.096, "note": 82, "inst": "harpsichord_v0_additive_2", "vel": 1.0, "bend": 0.0, "ch": 2}, {"t": 4.738, "dur": 0.096, "note": 84, "inst": "piano_v0_additive_0", "vel": 1.0, "bend": 0.0, "ch": 4}, {"t": 4.834, "dur": 0.383, "note": 46, "inst": "harpsichord_v0_additive_2", "vel": 1.0, "bend": 0.0, "ch": 14}, {"t": 4.834, "dur": 0.383, "note": 85, "inst": "organ_v0_additive_1", "vel": 1.0, "bend": 0.0, "ch": 5}, {"t": 5.218, "dur": 0.383, "note": 39, "inst": "celesta_v0_additive_3", "vel": 1.0, "bend": 0.0, "ch": 7}, {"t": 5.409, "dur": 0.064, "note": 85, "inst": "organ_v0_additive_1", "vel": 1.0, "bend": 0.0, "ch": 5}, {"t": 5.473, "dur": 0.064, "note": 87, "inst": "celesta_v0_additive_3", "vel": 1.0, "bend": 0.0, "ch": 7}, {"t": 5.537, "dur": 0.064, "note": 85, "inst": "organ_v0_additive_1", "vel": 1.0, "bend": 0.0, "ch": 5}, {"t": 5.601, "dur": 0.383, "note": 46, "inst": "harpsichord_v0_additive_2", "vel": 1.0, "bend": 0.0, "ch": 14}, {"t": 5.601, "dur": 0.192, "note": 82, "inst": "harpsichord_v0_additive_2", "vel": 1.0, "bend": 0.0, "ch": 2}, {"t": 34.0, "type": "tts", "inst": "voice", "text": "- Protein translation via codon table. attrs mutating True"}, {"t": 42.276, "dur": 0.333, "note": 49, "inst": "organ_v0_additive_1", "vel": 0.709, "bend": 0.0, "ch": 1}, {"t": 42.276, "dur": 0.333, "note": 58, "inst": "harpsichord_v0_additive_2", "vel": 0.709, "bend": 0.0, "ch": 10}, {"t": 42.609, "dur": 0.999, "note": 37, "inst": "organ_v0_additive_1", "vel": 0.709, "bend": 0.0, "ch": 5}, {"t": 42.609, "dur": 0.999, "note": 49, "inst": "organ_v0_additive_1", "vel": 0.709, "bend": 0.0, "ch": 1}, {"t": 42.609, "dur": 0.999, "note": 51, "inst": "celesta_v0_additive_3", "vel": 0.709, "bend": 0.0, "ch": 3}, {"t": 42.609, "dur": 0.333, "note": 61, "inst": "organ_v0_additive_1", "vel": 0.709, "bend": 0.0, "ch": 13}, {"t": 42.942, "dur": 0.333, "note": 61, "inst": "organ_v0_additive_1", "vel": 0.709, "bend": 0.0, "ch": 13}, {"t": 43.275, "dur": 0.333, "note": 63, "inst": "celesta_v0_additive_3", "vel": 0.709, "bend": 0.0, "ch": 15}, {"t": 43.608, "dur": 0.999, "note": 30, "inst": "harpsichord_v0_additive_2", "vel": 0.709, "bend": 0.0, "ch": 14}, {"t": 43.608, "dur": 0.333, "note": 49, "inst": "organ_v0_additive_1", "vel": 0.709, "bend": 0.0, "ch": 1}, {"t": 43.608, "dur": 0.999, "note": 49, "inst": "organ_v0_additive_1", "vel": 0.709, "bend": 0.0, "ch": 1}, {"t": 43.608, "dur": 0.333, "note": 56, "inst": "piano_v0_additive_0", "vel": 0.709, "bend": 0.0, "ch": 8}, {"t": 43.941, "dur": 0.333, "note": 49, "inst": "organ_v0_additive_1", "vel": 0.709, "bend": 0.0, "ch": 1}, {"t": 43.941, "dur": 0.333, "note": 58, "inst": "harpsichord_v0_additive_2", "vel": 0.709, "bend": 0.0, "ch": 10}, {"t": 44.274, "dur": 0.333, "note": 51, "inst": "celesta_v0_additive_3", "vel": 0.709, "bend": 0.0, "ch": 3}, {"t": 44.274, "dur": 0.333, "note": 61, "inst": "organ_v0_additive_1", "vel": 0.709, "bend": 0.0, "ch": 13}, {"t": 44.608, "dur": 0.999, "note": 24, "inst": "piano_v0_additive_0", "vel": 0.709, "bend": 0.0, "ch": 8}, {"t": 44.608, "dur": 0.999, "note": 30, "inst": "harpsichord_v0_additive_2", "vel": 0.709, "bend": 0.0, "ch": 14}, {"t": 44.608, "dur": 0.999, "note": 44, "inst": "piano_v0_additive_0", "vel": 0.709, "bend": 0.0, "ch": 12}, {"t": 44.608, "dur": 0.333, "note": 61, "inst": "organ_v0_additive_1", "vel": 0.709, "bend": 0.0, "ch": 13}, {"t": 44.941, "dur": 0.333, "note": 63, "inst": "celesta_v0_additive_3", "vel": 0.709, "bend": 0.0, "ch": 15}, {"t": 45.274, "dur": 0.333, "note": 54, "inst": "harpsichord_v0_additive_2", "vel": 0.709, "bend": 0.0, "ch": 6}, {"t": 45.607, "dur": 0.999, "note": 30, "inst": "harpsichord_v0_additive_2", "vel": 0.709, "bend": 0.0, "ch": 14}, {"t": 45.607, "dur": 0.999, "note": 42, "inst": "harpsichord_v0_additive_2", "vel": 0.709, "bend": 0.0, "ch": 10}, {"t": 45.607, "dur": 0.999, "note": 46, "inst": "harpsichord_v0_additive_2", "vel": 0.709, "bend": 0.0, "ch": 14}, {"t": 45.607, "dur": 0.333, "note": 63, "inst": "celesta_v0_additive_3", "vel": 0.709, "bend": 0.0, "ch": 15}, {"t": 45.94, "dur": 0.333, "note": 54, "inst": "harpsichord_v0_additive_2", "vel": 0.709, "bend": 0.0, "ch": 6}, {"t": 46.273, "dur": 0.333, "note": 61, "inst": "organ_v0_additive_1", "vel": 0.709, "bend": 0.0, "ch": 13}, {"t": 46.606, "dur": 0.999, "note": 32, "inst": "piano_v0_additive_0", "vel": 0.709, "bend": 0.0, "ch": 0}, {"t": 46.606, "dur": 0.999, "note": 44, "inst": "piano_v0_additive_0", "vel": 0.709, "bend": 0.0, "ch": 12}, {"t": 46.606, "dur": 0.999, "note": 49, "inst": "organ_v0_additive_1", "vel": 0.709, "bend": 0.0, "ch": 1}, {"t": 46.606, "dur": 0.333, "note": 61, "inst": "organ_v0_additive_1", "vel": 0.709, "bend": 0.0, "ch": 13}, {"t": 46.939, "dur": 0.333, "note": 58, "inst": "harpsichord_v0_additive_2", "vel": 0.709, "bend": 0.0, "ch": 10}, {"t": 47.272, "dur": 0.333, "note": 56, "inst": "piano_v0_additive_0", "vel": 0.709, "bend": 0.0, "ch": 8}, {"t": 47.605, "dur": 0.999, "note": 24, "inst": "piano_v0_additive_0", "vel": 0.709, "bend": 0.0, "ch": 8}, {"t": 47.605, "dur": 0.666, "note": 49, "inst": "organ_v0_additive_1", "vel": 0.709, "bend": 0.0, "ch": 1}, {"t": 47.605, "dur": 0.999, "note": 56, "inst": "piano_v0_additive_0", "vel": 0.709, "bend": 0.0, "ch": 8}, {"t": 47.605, "dur": 0.333, "note": 68, "inst": "piano_v0_additive_0", "vel": 0.709, "bend": 0.0, "ch": 4}, {"t": 47.938, "dur": 0.333, "note": 54, "inst": "harpsichord_v0_additive_2", "vel": 0.709, "bend": 0.0, "ch": 6}, {"t": 48.272, "dur": 0.333, "note": 42, "inst": "harpsichord_v0_additive_2", "vel": 0.709, "bend": 0.0, "ch": 10}, {"t": 48.272, "dur": 0.333, "note": 61, "inst": "organ_v0_additive_1", "vel": 0.709, "bend": 0.0, "ch": 13}, {"t": 48.605, "dur": 3.997, "note": 27, "inst": "celesta_v0_additive_3", "vel": 0.709, "bend": 0.0, "ch": 11}, {"t": 48.605, "dur": 0.999, "note": 51, "inst": "celesta_v0_additive_3", "vel": 0.709, "bend": 0.0, "ch": 3}, {"t": 48.605, "dur": 0.999, "note": 54, "inst": "harpsichord_v0_additive_2", "vel": 0.709, "bend": 0.0, "ch": 6}, {"t": 48.605, "dur": 0.333, "note": 63, "inst": "celesta_v0_additive_3", "vel": 0.709, "bend": 0.0, "ch": 15}, {"t": 48.938, "dur": 0.333, "note": 66, "inst": "harpsichord_v0_additive_2", "vel": 0.709, "bend": 0.0, "ch": 2}, {"t": 49.271, "dur": 0.333, "note": 63, "inst": "celesta_v0_additive_3", "vel": 0.709, "bend": 0.0, "ch": 15}, {"t": 49.604, "dur": 0.666, "note": 49, "inst": "organ_v0_additive_1", "vel": 0.709, "bend": 0.0, "ch": 1}, {"t": 49.604, "dur": 0.999, "note": 56, "inst": "piano_v0_additive_0", "vel": 0.709, "bend": 0.0, "ch": 8}, {"t": 49.604, "dur": 0.333, "note": 68, "inst": "piano_v0_additive_0", "vel": 0.709, "bend": 0.0, "ch": 4}, {"t": 49.937, "dur": 0.333, "note": 54, "inst": "harpsichord_v0_additive_2", "vel": 0.709, "bend": 0.0, "ch": 6}, {"t": 50.27, "dur": 0.333, "note": 42, "inst": "harpsichord_v0_additive_2", "vel": 0.709, "bend": 0.0, "ch": 10}, {"t": 50.27, "dur": 0.333, "note": 61, "inst": "organ_v0_additive_1", "vel": 0.709, "bend": 0.0, "ch": 13}, {"t": 50.603, "dur": 0.999, "note": 51, "inst": "celesta_v0_additive_3", "vel": 0.709, "bend": 0.0, "ch": 3}, {"t": 50.603, "dur": 0.999, "note": 54, "inst": "harpsichord_v0_additive_2", "vel": 0.709, "bend": 0.0, "ch": 6}, {"t": 50.603, "dur": 0.333, "note": 63, "inst": "celesta_v0_additive_3", "vel": 0.709, "bend": 0.0, "ch": 15}, {"t": 50.936, "dur": 0.333, "note": 66, "inst": "harpsichord_v0_additive_2", "vel": 0.709, "bend": 0.0, "ch": 2}, {"t": 51.269, "dur": 0.333, "note": 63, "inst": "celesta_v0_additive_3", "vel": 0.709, "bend": 0.0, "ch": 15}, {"t": 51.602, "dur": 0.666, "note": 49, "inst": "organ_v0_additive_1", "vel": 0.709, "bend": 0.0, "ch": 1}, {"t": 51.602, "dur": 0.999, "note": 56, "inst": "piano_v0_additive_0", "vel": 0.709, "bend": 0.0, "ch": 8}, {"t": 51.602, "dur": 0.333, "note": 68, "inst": "piano_v0_additive_0", "vel": 0.709, "bend": 0.0, "ch": 4}, {"t": 51.936, "dur": 0.333, "note": 54, "inst": "harpsichord_v0_additive_2", "vel": 0.709, "bend": 0.0, "ch": 6}, {"t": 52.269, "dur": 0.333, "note": 42, "inst": "harpsichord_v0_additive_2", "vel": 0.709, "bend": 0.0, "ch": 10}, {"t": 52.269, "dur": 0.333, "note": 61, "inst": "organ_v0_additive_1", "vel": 0.709, "bend": 0.0, "ch": 13}, {"t": 52.602, "dur": 0.999, "note": 27, "inst": "celesta_v0_additive_3", "vel": 0.709, "bend": 0.0, "ch": 11}, {"t": 52.602, "dur": 0.999, "note": 51, "inst": "celesta_v0_additive_3", "vel": 0.709, "bend": 0.0, "ch": 3}, {"t": 52.602, "dur": 0.999, "note": 54, "inst": "harpsichord_v0_additive_2", "vel": 0.709, "bend": 0.0, "ch": 6}, {"t": 52.602, "dur": 0.333, "note": 63, "inst": "celesta_v0_additive_3", "vel": 0.709, "bend": 0.0, "ch": 15}, {"t": 52.935, "dur": 0.333, "note": 54, "inst": "harpsichord_v0_additive_2", "vel": 0.709, "bend": 0.0, "ch": 6}, {"t": 53.268, "dur": 0.333, "note": 66, "inst": "harpsichord_v0_additive_2", "vel": 0.709, "bend": 0.0, "ch": 2}, {"t": 53.601, "dur": 0.999, "note": 27, "inst": "celesta_v0_additive_3", "vel": 0.709, "bend": 0.0, "ch": 11}, {"t": 53.601, "dur": 0.999, "note": 42, "inst": "harpsichord_v0_additive_2", "vel": 0.709, "bend": 0.0, "ch": 10}, {"t": 53.601, "dur": 0.999, "note": 56, "inst": "piano_v0_additive_0", "vel": 0.709, "bend": 0.0, "ch": 8}, {"t": 53.601, "dur": 0.333, "note": 58, "inst": "harpsichord_v0_additive_2", "vel": 0.709, "bend": 0.0, "ch": 10}, {"t": 53.934, "dur": 0.333, "note": 61, "inst": "organ_v0_additive_1", "vel": 0.709, "bend": 0.0, "ch": 13}, {"t": 84.174, "dur": 0.237, "note": 56, "inst": "piano_v0_additive_0", "vel": 0.709, "bend": 0.0, "ch": 8}, {"t": 84.411, "dur": 0.711, "note": 37, "inst": "organ_v0_additive_1", "vel": 0.709, "bend": 0.0, "ch": 5}, {"t": 84.411, "dur": 0.237, "note": 53, "inst": "organ_v0_additive_1", "vel": 0.709, "bend": 0.0, "ch": 5}, {"t": 84.648, "dur": 0.237, "note": 49, "inst": "organ_v0_additive_1", "vel": 0.709, "bend": 0.0, "ch": 1}, {"t": 84.886, "dur": 0.237, "note": 53, "inst": "organ_v0_additive_1", "vel": 0.709, "bend": 0.0, "ch": 5}, {"t": 85.123, "dur": 0.711, "note": 36, "inst": "piano_v0_additive_0", "vel": 0.709, "bend": 0.0, "ch": 4}, {"t": 85.123, "dur": 0.237, "note": 55, "inst": "celesta_v0_additive_3", "vel": 0.709, "bend": 0.0, "ch": 7}, {"t": 85.359, "dur": 0.237, "note": 48, "inst": "piano_v0_additive_0", "vel": 0.709, "bend": 0.0, "ch": 0}, {"t": 85.597, "dur": 0.237, "note": 55, "inst": "celesta_v0_additive_3", "vel": 0.709, "bend": 0.0, "ch": 7}, {"t": 85.834, "dur": 0.711, "note": 36, "inst": "piano_v0_additive_0", "vel": 0.709, "bend": 0.0, "ch": 4}, {"t": 85.834, "dur": 0.237, "note": 48, "inst": "piano_v0_additive_0", "vel": 0.709, "bend": 0.0, "ch": 0}, {"t": 86.071, "dur": 0.237, "note": 41, "inst": "organ_v0_additive_1", "vel": 0.709, "bend": 0.0, "ch": 9}, {"t": 86.308, "dur": 0.237, "note": 56, "inst": "piano_v0_additive_0", "vel": 0.709, "bend": 0.0, "ch": 8}, {"t": 86.545, "dur": 0.711, "note": 37, "inst": "organ_v0_additive_1", "vel": 0.709, "bend": 0.0, "ch": 5}, {"t": 86.545, "dur": 0.237, "note": 44, "inst": "piano_v0_additive_0", "vel": 0.709, "bend": 0.0, "ch": 12}, {"t": 86.782, "dur": 0.237, "note": 56, "inst": "piano_v0_additive_0", "vel": 0.709, "bend": 0.0, "ch": 8}, {"t": 87.02, "dur": 0.237, "note": 55, "inst": "celesta_v0_additive_3", "vel": 0.709, "bend": 0.0, "ch": 7}, {"t": 87.257, "dur": 0.711, "note": 37, "inst": "organ_v0_additive_1", "vel": 0.709, "bend": 0.0, "ch": 5}, {"t": 87.257, "dur": 0.237, "note": 49, "inst": "organ_v0_additive_1", "vel": 0.709, "bend": 0.0, "ch": 1}, {"t": 87.493, "dur": 0.237, "note": 53, "inst": "organ_v0_additive_1", "vel": 0.709, "bend": 0.0, "ch": 5}, {"t": 87.731, "dur": 0.237, "note": 60, "inst": "piano_v0_additive_0", "vel": 0.709, "bend": 0.0, "ch": 12}, {"t": 87.968, "dur": 0.711, "note": 29, "inst": "organ_v0_additive_1", "vel": 0.709, "bend": 0.0, "ch": 13}, {"t": 87.968, "dur": 0.237, "note": 48, "inst": "piano_v0_additive_0", "vel": 0.709, "bend": 0.0, "ch": 0}, {"t": 88.205, "dur": 0.237, "note": 60, "inst": "piano_v0_additive_0", "vel": 0.709, "bend": 0.0, "ch": 12}, {"t": 88.442, "dur": 0.237, "note": 56, "inst": "piano_v0_additive_0", "vel": 0.709, "bend": 0.0, "ch": 8}, {"t": 88.679, "dur": 0.711, "note": 29, "inst": "organ_v0_additive_1", "vel": 0.709, "bend": 0.0, "ch": 13}, {"t": 88.679, "dur": 0.237, "note": 41, "inst": "organ_v0_additive_1", "vel": 0.709, "bend": 0.0, "ch": 9}, {"t": 88.916, "dur": 0.237, "note": 55, "inst": "celesta_v0_additive_3", "vel": 0.709, "bend": 0.0, "ch": 7}, {"t": 89.154, "dur": 0.237, "note": 60, "inst": "piano_v0_additive_0", "vel": 0.709, "bend": 0.0, "ch": 12}, {"t": 89.39, "dur": 0.237, "note": 41, "inst": "organ_v0_additive_1", "vel": 0.709, "bend": 0.0, "ch": 9}, {"t": 89.627, "dur": 0.237, "note": 60, "inst": "piano_v0_additive_0", "vel": 0.709, "bend": 0.0, "ch": 12}, {"t": 89.865, "dur": 0.237, "note": 60, "inst": "piano_v0_additive_0", "vel": 0.709, "bend": 0.0, "ch": 12}, {"t": 90.102, "dur": 0.711, "note": 41, "inst": "organ_v0_additive_1", "vel": 0.709, "bend": 0.0, "ch": 9}, {"t": 90.102, "dur": 0.237, "note": 53, "inst": "organ_v0_additive_1", "vel": 0.709, "bend": 0.0, "ch": 5}, {"t": 90.339, "dur": 0.237, "note": 56, "inst": "piano_v0_additive_0", "vel": 0.709, "bend": 0.0, "ch": 8}, {"t": 90.576, "dur": 0.237, "note": 61, "inst": "organ_v0_additive_1", "vel": 0.709, "bend": 0.0, "ch": 13}, {"t": 90.813, "dur": 0.237, "note": 53, "inst": "organ_v0_additive_1", "vel": 0.709, "bend": 0.0, "ch": 5}, {"t": 91.05, "dur": 0.237, "note": 61, "inst": "organ_v0_additive_1", "vel": 0.709, "bend": 0.0, "ch": 13}, {"t": 91.288, "dur": 0.237, "note": 60, "inst": "piano_v0_additive_0", "vel": 0.709, "bend": 0.0, "ch": 12}, {"t": 91.524, "dur": 0.711, "note": 43, "inst": "celesta_v0_additive_3", "vel": 0.709, "bend": 0.0, "ch": 11}, {"t": 91.524, "dur": 0.237, "note": 55, "inst": "celesta_v0_additive_3", "vel": 0.709, "bend": 0.0, "ch": 7}, {"t": 91.761, "dur": 0.237, "note": 60, "inst": "piano_v0_additive_0", "vel": 0.709, "bend": 0.0, "ch": 12}, {"t": 91.999, "dur": 0.237, "note": 53, "inst": "organ_v0_additive_1", "vel": 0.709, "bend": 0.0, "ch": 5}, {"t": 92.236, "dur": 0.237, "note": 41, "inst": "organ_v0_additive_1", "vel": 0.709, "bend": 0.0, "ch": 9}, {"t": 92.473, "dur": 0.237, "note": 53, "inst": "organ_v0_additive_1", "vel": 0.709, "bend": 0.0, "ch": 5}, {"t": 92.71, "dur": 0.237, "note": 61, "inst": "organ_v0_additive_1", "vel": 0.709, "bend": 0.0, "ch": 13}, {"t": 92.947, "dur": 0.711, "note": 44, "inst": "piano_v0_additive_0", "vel": 0.709, "bend": 0.0, "ch": 12}, {"t": 92.947, "dur": 0.237, "note": 56, "inst": "piano_v0_additive_0", "vel": 0.709, "bend": 0.0, "ch": 8}, {"t": 93.184, "dur": 0.237, "note": 61, "inst": "organ_v0_additive_1", "vel": 0.709, "bend": 0.0, "ch": 13}, {"t": 93.422, "dur": 0.237, "note": 61, "inst": "organ_v0_additive_1", "vel": 0.709, "bend": 0.0, "ch": 13}, {"t": 93.658, "dur": 0.711, "note": 48, "inst": "piano_v0_additive_0", "vel": 0.709, "bend": 0.0, "ch": 0}, {"t": 93.658, "dur": 0.237, "note": 53, "inst": "organ_v0_additive_1", "vel": 0.709, "bend": 0.0, "ch": 5}, {"t": 93.895, "dur": 0.237, "note": 61, "inst": "organ_v0_additive_1", "vel": 0.709, "bend": 0.0, "ch": 13}, {"t": 210.44, "dur": 0.215, "note": 48, "inst": "piano_v0_additive_0", "vel": 1.0, "bend": 0.0, "ch": 0}, {"t": 210.44, "dur": 0.107, "note": 67, "inst": "celesta_v0_additive_3", "vel": 1.0, "bend": 0.0, "ch": 3}, {"t": 210.547, "dur": 0.107, "note": 72, "inst": "piano_v0_additive_0", "vel": 1.0, "bend": 0.0, "ch": 8}, {"t": 210.547, "dur": 0.107, "note": 74, "inst": "harpsichord_v0_additive_2", "vel": 1.0, "bend": 0.0, "ch": 10}, {"t": 210.654, "dur": 0.215, "note": 60, "inst": "piano_v0_additive_0", "vel": 1.0, "bend": 0.0, "ch": 12}, {"t": 210.654, "dur": 0.322, "note": 74, "inst": "harpsichord_v0_additive_2", "vel": 1.0, "bend": 0.0, "ch": 10}, {"t": 210.869, "dur": 0.215, "note": 52, "inst": "piano_v0_additive_0", "vel": 1.0, "bend": 0.0, "ch": 4}, {"t": 210.976, "dur": 0.107, "note": 72, "inst": "piano_v0_additive_0", "vel": 1.0, "bend": 0.0, "ch": 8}, {"t": 210.976, "dur": 0.107, "note": 74, "inst": "harpsichord_v0_additive_2", "vel": 1.0, "bend": 0.0, "ch": 10}, {"t": 211.084, "dur": 0.215, "note": 55, "inst": "celesta_v0_additive_3", "vel": 1.0, "bend": 0.0, "ch": 7}, {"t": 211.084, "dur": 0.107, "note": 74, "inst": "harpsichord_v0_additive_2", "vel": 1.0, "bend": 0.0, "ch": 10}, {"t": 211.084, "dur": 0.107, "note": 74, "inst": "harpsichord_v0_additive_2", "vel": 1.0, "bend": 0.0, "ch": 10}, {"t": 211.191, "dur": 0.107, "note": 72, "inst": "piano_v0_additive_0", "vel": 1.0, "bend": 0.0, "ch": 8}, {"t": 211.191, "dur": 0.107, "note": 72, "inst": "piano_v0_additive_0", "vel": 1.0, "bend": 0.0, "ch": 8}, {"t": 211.299, "dur": 0.215, "note": 50, "inst": "harpsichord_v0_additive_2", "vel": 1.0, "bend": 0.0, "ch": 2}, {"t": 211.299, "dur": 0.107, "note": 72, "inst": "piano_v0_additive_0", "vel": 1.0, "bend": 0.0, "ch": 8}, {"t": 211.406, "dur": 0.107, "note": 67, "inst": "celesta_v0_additive_3", "vel": 1.0, "bend": 0.0, "ch": 3}, {"t": 211.513, "dur": 0.215, "note": 48, "inst": "piano_v0_additive_0", "vel": 1.0, "bend": 0.0, "ch": 0}, {"t": 211.513, "dur": 0.107, "note": 57, "inst": "organ_v0_additive_1", "vel": 1.0, "bend": 0.0, "ch": 9}, {"t": 211.621, "dur": 0.107, "note": 64, "inst": "piano_v0_additive_0", "vel": 1.0, "bend": 0.0, "ch": 0}, {"t": 211.728, "dur": 0.215, "note": 50, "inst": "harpsichord_v0_additive_2", "vel": 1.0, "bend": 0.0, "ch": 2}, {"t": 211.728, "dur": 0.107, "note": 67, "inst": "celesta_v0_additive_3", "vel": 1.0, "bend": 0.0, "ch": 3}, {"t": 211.835, "dur": 0.107, "note": 72, "inst": "piano_v0_additive_0", "vel": 1.0, "bend": 0.0, "ch": 8}, {"t": 211.943, "dur": 0.215, "note": 55, "inst": "celesta_v0_additive_3", "vel": 1.0, "bend": 0.0, "ch": 7}, {"t": 211.943, "dur": 0.107, "note": 67, "inst": "celesta_v0_additive_3", "vel": 1.0, "bend": 0.0, "ch": 3}, {"t": 212.05, "dur": 0.107, "note": 64, "inst": "piano_v0_additive_0", "vel": 1.0, "bend": 0.0, "ch": 0}, {"t": 212.158, "dur": 0.215, "note": 60, "inst": "piano_v0_additive_0", "vel": 1.0, "bend": 0.0, "ch": 12}, {"t": 212.158, "dur": 0.107, "note": 62, "inst": "harpsichord_v0_additive_2", "vel": 1.0, "bend": 0.0, "ch": 14}, {"t": 212.265, "dur": 0.107, "note": 72, "inst": "piano_v0_additive_0", "vel": 1.0, "bend": 0.0, "ch": 8}, {"t": 212.265, "dur": 0.107, "note": 74, "inst": "harpsichord_v0_additive_2", "vel": 1.0, "bend": 0.0, "ch": 10}, {"t": 212.372, "dur": 0.215, "note": 45, "inst": "organ_v0_additive_1", "vel": 1.0, "bend": 0.0, "ch": 13}, {"t": 212.372, "dur": 0.107, "note": 74, "inst": "harpsichord_v0_additive_2", "vel": 1.0, "bend": 0.0, "ch": 10}, {"t": 212.372, "dur": 0.107, "note": 74, "inst": "harpsichord_v0_additive_2", "vel": 1.0, "bend": 0.0, "ch": 10}, {"t": 212.48, "dur": 0.107, "note": 72, "inst": "piano_v0_additive_0", "vel": 1.0, "bend": 0.0, "ch": 8}, {"t": 212.587, "dur": 0.215, "note": 50, "inst": "harpsichord_v0_additive_2", "vel": 1.0, "bend": 0.0, "ch": 2}, {"t": 212.587, "dur": 0.107, "note": 79, "inst": "celesta_v0_additive_3", "vel": 1.0, "bend": 0.0, "ch": 15}, {"t": 212.694, "dur": 0.107, "note": 72, "inst": "piano_v0_additive_0", "vel": 1.0, "bend": 0.0, "ch": 8}, {"t": 212.802, "dur": 0.215, "note": 52, "inst": "piano_v0_additive_0", "vel": 1.0, "bend": 0.0, "ch": 4}, {"t": 212.802, "dur": 0.107, "note": 69, "inst": "organ_v0_additive_1", "vel": 1.0, "bend": 0.0, "ch": 5}, {"t": 212.909, "dur": 0.107, "note": 72, "inst": "piano_v0_additive_0", "vel": 1.0, "bend": 0.0, "ch": 8}, {"t": 213.017, "dur": 0.215, "note": 55, "inst": "celesta_v0_additive_3", "vel": 1.0, "bend": 0.0, "ch": 7}, {"t": 213.017, "dur": 0.107, "note": 72, "inst": "piano_v0_additive_0", "vel": 1.0, "bend": 0.0, "ch": 8}, {"t": 213.124, "dur": 0.107, "note": 72, "inst": "piano_v0_additive_0", "vel": 1.0, "bend": 0.0, "ch": 8}, {"t": 213.231, "dur": 0.215, "note": 43, "inst": "celesta_v0_additive_3", "vel": 1.0, "bend": 0.0, "ch": 11}, {"t": 213.231, "dur": 0.107, "note": 74, "inst": "harpsichord_v0_additive_2", "vel": 1.0, "bend": 0.0, "ch": 10}, {"t": 213.339, "dur": 0.107, "note": 72, "inst": "piano_v0_additive_0", "vel": 1.0, "bend": 0.0, "ch": 8}, {"t": 213.446, "dur": 0.107, "note": 67, "inst": "celesta_v0_additive_3", "vel": 1.0, "bend": 0.0, "ch": 3}, {"t": 213.553, "dur": 0.107, "note": 64, "inst": "piano_v0_additive_0", "vel": 1.0, "bend": 0.0, "ch": 0}, {"t": 213.661, "dur": 0.107, "note": 62, "inst": "harpsichord_v0_additive_2", "vel": 1.0, "bend": 0.0, "ch": 14}, {"t": 213.768, "dur": 0.107, "note": 62, "inst": "harpsichord_v0_additive_2", "vel": 1.0, "bend": 0.0, "ch": 14}, {"t": 213.876, "dur": 0.107, "note": 79, "inst": "celesta_v0_additive_3", "vel": 1.0, "bend": 0.0, "ch": 15}, {"t": 213.983, "dur": 0.107, "note": 74, "inst": "harpsichord_v0_additive_2", "vel": 1.0, "bend": 0.0, "ch": 10}, {"t": 213.983, "dur": 0.107, "note": 74, "inst": "harpsichord_v0_additive_2", "vel": 1.0, "bend": 0.0, "ch": 10}, {"t": 214.09, "dur": 0.107, "note": 72, "inst": "piano_v0_additive_0", "vel": 1.0, "bend": 0.0, "ch": 8}, {"t": 214.198, "dur": 0.107, "note": 69, "inst": "organ_v0_additive_1", "vel": 1.0, "bend": 0.0, "ch": 5}, {"t": 214.305, "dur": 0.107, "note": 64, "inst": "piano_v0_additive_0", "vel": 1.0, "bend": 0.0, "ch": 0}, {"t": 214.412, "dur": 0.107, "note": 72, "inst": "piano_v0_additive_0", "vel": 1.0, "bend": 0.0, "ch": 8}, {"t": 214.52, "dur": 0.107, "note": 60, "inst": "piano_v0_additive_0", "vel": 1.0, "bend": 0.0, "ch": 12}, {"t": 214.627, "dur": 0.107, "note": 72, "inst": "piano_v0_additive_0", "vel": 1.0, "bend": 0.0, "ch": 8}, {"t": 214.734, "dur": 0.107, "note": 69, "inst": "organ_v0_additive_1", "vel": 1.0, "bend": 0.0, "ch": 5}, {"t": 214.842, "dur": 0.107, "note": 76, "inst": "piano_v0_additive_0", "vel": 1.0, "bend": 0.0, "ch": 12}, {"t": 214.842, "dur": 0.107, "note": 76, "inst": "piano_v0_additive_0", "vel": 1.0, "bend": 0.0, "ch": 12}, {"t": 214.949, "dur": 0.215, "note": 57, "inst": "organ_v0_additive_1", "vel": 1.0, "bend": 0.0, "ch": 9}, {"t": 214.949, "dur": 0.215, "note": 76, "inst": "piano_v0_additive_0", "vel": 1.0, "bend": 0.0, "ch": 12}, {"t": 215.164, "dur": 0.107, "note": 79, "inst": "celesta_v0_additive_3", "vel": 1.0, "bend": 0.0, "ch": 15}, {"t": 215.271, "dur": 0.107, "note": 79, "inst": "celesta_v0_additive_3", "vel": 1.0, "bend": 0.0, "ch": 15}, {"t": 215.271, "dur": 0.107, "note": 69, "inst": "organ_v0_additive_1", "vel": 1.0, "bend": 0.0, "ch": 5}, {"t": 215.379, "dur": 0.107, "note": 74, "inst": "harpsichord_v0_additive_2", "vel": 1.0, "bend": 0.0, "ch": 10}, {"t": 215.379, "dur": 0.107, "note": 76, "inst": "piano_v0_additive_0", "vel": 1.0, "bend": 0.0, "ch": 12}, {"t": 215.486, "dur": 0.107, "note": 74, "inst": "harpsichord_v0_additive_2", "vel": 1.0, "bend": 0.0, "ch": 10}, {"t": 215.486, "dur": 0.107, "note": 74, "inst": "harpsichord_v0_additive_2", "vel": 1.0, "bend": 0.0, "ch": 10}, {"t": 215.593, "dur": 0.107, "note": 76, "inst": "piano_v0_additive_0", "vel": 1.0, "bend": 0.0, "ch": 12}, {"t": 215.701, "dur": 0.107, "note": 72, "inst": "piano_v0_additive_0", "vel": 1.0, "bend": 0.0, "ch": 8}, {"t": 215.701, "dur": 0.107, "note": 74, "inst": "harpsichord_v0_additive_2", "vel": 1.0, "bend": 0.0, "ch": 10}, {"t": 215.808, "dur": 0.107, "note": 69, "inst": "organ_v0_additive_1", "vel": 1.0, "bend": 0.0, "ch": 5}, {"t": 215.916, "dur": 0.107, "note": 57, "inst": "organ_v0_additive_1", "vel": 1.0, "bend": 0.0, "ch": 9}, {"t": 216.023, "dur": 0.107, "note": 62, "inst": "harpsichord_v0_additive_2", "vel": 1.0, "bend": 0.0, "ch": 14}, {"t": 216.13, "dur": 0.107, "note": 72, "inst": "piano_v0_additive_0", "vel": 1.0, "bend": 0.0, "ch": 8}, {"t": 216.238, "dur": 0.107, "note": 57, "inst": "organ_v0_additive_1", "vel": 1.0, "bend": 0.0, "ch": 9}, {"t": 216.345, "dur": 0.107, "note": 69, "inst": "organ_v0_additive_1", "vel": 1.0, "bend": 0.0, "ch": 5}, {"t": 216.452, "dur": 0.107, "note": 79, "inst": "celesta_v0_additive_3", "vel": 1.0, "bend": 0.0, "ch": 15}, {"t": 216.56, "dur": 0.107, "note": 74, "inst": "harpsichord_v0_additive_2", "vel": 1.0, "bend": 0.0, "ch": 10}, {"t": 216.56, "dur": 0.107, "note": 74, "inst": "harpsichord_v0_additive_2", "vel": 1.0, "bend": 0.0, "ch": 10}, {"t": 216.667, "dur": 0.215, "note": 67, "inst": "celesta_v0_additive_3", "vel": 1.0, "bend": 0.0, "ch": 3}, {"t": 216.667, "dur": 0.215, "note": 74, "inst": "harpsichord_v0_additive_2", "vel": 1.0, "bend": 0.0, "ch": 10}, {"t": 252.568, "dur": 0.202, "note": 40, "inst": "piano_v0_additive_0", "vel": 0.756, "bend": 0.0, "ch": 8}, {"t": 252.568, "dur": 0.202, "note": 52, "inst": "piano_v0_additive_0", "vel": 0.756, "bend": 0.0, "ch": 4}, {"t": 252.568, "dur": 0.202, "note": 52, "inst": "piano_v0_additive_0", "vel": 0.756, "bend": 0.0, "ch": 4}, {"t": 252.568, "dur": 0.202, "note": 52, "inst": "piano_v0_additive_0", "vel": 0.756, "bend": 0.0, "ch": 4}, {"t": 252.77, "dur": 0.067, "note": 40, "inst": "piano_v0_additive_0", "vel": 0.756, "bend": 0.0, "ch": 8}, {"t": 252.77, "dur": 0.067, "note": 52, "inst": "piano_v0_additive_0", "vel": 0.756, "bend": 0.0, "ch": 4}, {"t": 252.77, "dur": 0.067, "note": 52, "inst": "piano_v0_additive_0", "vel": 0.756, "bend": 0.0, "ch": 4}, {"t": 252.77, "dur": 0.067, "note": 52, "inst": "piano_v0_additive_0", "vel": 0.756, "bend": 0.0, "ch": 4}, {"t": 252.837, "dur": 0.538, "note": 45, "inst": "organ_v0_additive_1", "vel": 0.709, "bend": 0.0, "ch": 13}, {"t": 252.837, "dur": 0.538, "note": 38, "inst": "harpsichord_v0_additive_2", "vel": 0.709, "bend": 0.0, "ch": 6}, {"t": 252.837, "dur": 0.538, "note": 57, "inst": "organ_v0_additive_1", "vel": 0.709, "bend": 0.0, "ch": 9}, {"t": 252.837, "dur": 0.538, "note": 57, "inst": "organ_v0_additive_1", "vel": 0.709, "bend": 0.0, "ch": 9}, {"t": 252.837, "dur": 0.538, "note": 57, "inst": "organ_v0_additive_1", "vel": 0.709, "bend": 0.0, "ch": 9}, {"t": 253.376, "dur": 0.269, "note": 57, "inst": "organ_v0_additive_1", "vel": 0.709, "bend": 0.0, "ch": 9}, {"t": 253.376, "dur": 0.269, "note": 50, "inst": "harpsichord_v0_additive_2", "vel": 0.709, "bend": 0.0, "ch": 2}, {"t": 253.645, "dur": 0.269, "note": 59, "inst": "celesta_v0_additive_3", "vel": 0.709, "bend": 0.0, "ch": 11}, {"t": 253.645, "dur": 0.269, "note": 62, "inst": "harpsichord_v0_additive_2", "vel": 0.709, "bend": 0.0, "ch": 14}, {"t": 253.914, "dur": 0.404, "note": 50, "inst": "harpsichord_v0_additive_2", "vel": 0.709, "bend": 0.0, "ch": 2}, {"t": 253.914, "dur": 0.404, "note": 64, "inst": "piano_v0_additive_0", "vel": 0.709, "bend": 0.0, "ch": 0}, {"t": 254.318, "dur": 0.067, "note": 62, "inst": "harpsichord_v0_additive_2", "vel": 0.709, "bend": 0.0, "ch": 14}, {"t": 254.318, "dur": 0.067, "note": 66, "inst": "harpsichord_v0_additive_2", "vel": 0.709, "bend": 0.0, "ch": 2}, {"t": 254.385, "dur": 0.067, "note": 50, "inst": "harpsichord_v0_additive_2", "vel": 0.709, "bend": 0.0, "ch": 2}, {"t": 254.385, "dur": 0.067, "note": 64, "inst": "piano_v0_additive_0", "vel": 0.709, "bend": 0.0, "ch": 0}, {"t": 254.453, "dur": 0.269, "note": 59, "inst": "celesta_v0_additive_3", "vel": 0.709, "bend": 0.0, "ch": 11}, {"t": 254.453, "dur": 0.269, "note": 62, "inst": "harpsichord_v0_additive_2", "vel": 0.709, "bend": 0.0, "ch": 14}, {"t": 254.722, "dur": 0.269, "note": 57, "inst": "organ_v0_additive_1", "vel": 0.709, "bend": 0.0, "ch": 9}, {"t": 254.722, "dur": 0.269, "note": 50, "inst": "harpsichord_v0_additive_2", "vel": 0.709, "bend": 0.0, "ch": 2}, {"t": 254.722, "dur": 0.269, "note": 64, "inst": "piano_v0_additive_0", "vel": 0.709, "bend": 0.0, "ch": 0}, {"t": 254.722, "dur": 0.269, "note": 76, "inst": "piano_v0_additive_0", "vel": 0.709, "bend": 0.0, "ch": 12}, {"t": 254.991, "dur": 0.269, "note": 57, "inst": "organ_v0_additive_1", "vel": 0.709, "bend": 0.0, "ch": 9}, {"t": 254.991, "dur": 0.269, "note": 59, "inst": "celesta_v0_additive_3", "vel": 0.709, "bend": 0.0, "ch": 11}, {"t": 254.991, "dur": 0.404, "note": 64, "inst": "piano_v0_additive_0", "vel": 0.709, "bend": 0.0, "ch": 0}, {"t": 254.991, "dur": 0.404, "note": 76, "inst": "piano_v0_additive_0", "vel": 0.709, "bend": 0.0, "ch": 12}, {"t": 255.26, "dur": 0.269, "note": 52, "inst": "piano_v0_additive_0", "vel": 0.709, "bend": 0.0, "ch": 4}, {"t": 255.26, "dur": 0.269, "note": 57, "inst": "organ_v0_additive_1", "vel": 0.709, "bend": 0.0, "ch": 9}, {"t": 255.395, "dur": 0.067, "note": 66, "inst": "harpsichord_v0_additive_2", "vel": 0.709, "bend": 0.0, "ch": 2}, {"t": 255.395, "dur": 0.067, "note": 78, "inst": "harpsichord_v0_additive_2", "vel": 0.709, "bend": 0.0, "ch": 14}, {"t": 255.462, "dur": 0.067, "note": 62, "inst": "harpsichord_v0_additive_2", "vel": 0.709, "bend": 0.0, "ch": 14}, {"t": 255.462, "dur": 0.067, "note": 74, "inst": "harpsichord_v0_additive_2", "vel": 0.709, "bend": 0.0, "ch": 10}, {"t": 255.529, "dur": 0.269, "note": 57, "inst": "organ_v0_additive_1", "vel": 0.756, "bend": 0.0, "ch": 9}, {"t": 255.529, "dur": 0.269, "note": 57, "inst": "organ_v0_additive_1", "vel": 0.756, "bend": 0.0, "ch": 9}, {"t": 255.529, "dur": 0.269, "note": 50, "inst": "harpsichord_v0_additive_2", "vel": 0.709, "bend": 0.0, "ch": 2}, {"t": 255.529, "dur": 0.269, "note": 62, "inst": "harpsichord_v0_additive_2", "vel": 0.709, "bend": 0.0, "ch": 14}, {"t": 255.798, "dur": 0.269, "note": 50, "inst": "harpsichord_v0_additive_2", "vel": 0.756, "bend": 0.0, "ch": 2}, {"t": 255.798, "dur": 0.269, "note": 50, "inst": "harpsichord_v0_additive_2", "vel": 0.756, "bend": 0.0, "ch": 2}, {"t": 255.798, "dur": 0.202, "note": 66, "inst": "harpsichord_v0_additive_2", "vel": 0.709, "bend": 0.0, "ch": 2}, {"t": 255.798, "dur": 0.202, "note": 74, "inst": "harpsichord_v0_additive_2", "vel": 0.709, "bend": 0.0, "ch": 10}, {"t": 256.0, "dur": 0.067, "note": 62, "inst": "harpsichord_v0_additive_2", "vel": 0.709, "bend": 0.0, "ch": 14}, {"t": 256.0, "dur": 0.067, "note": 71, "inst": "celesta_v0_additive_3", "vel": 0.709, "bend": 0.0, "ch": 7}, {"t": 256.068, "dur": 0.269, "note": 52, "inst": "piano_v0_additive_0", "vel": 0.756, "bend": 0.0, "ch": 4}, {"t": 256.068, "dur": 0.269, "note": 52, "inst": "piano_v0_additive_0", "vel": 0.756, "bend": 0.0, "ch": 4}, {"t": 256.068, "dur": 0.538, "note": 50, "inst": "harpsichord_v0_additive_2", "vel": 0.709, "bend": 0.0, "ch": 2}, {"t": 256.068, "dur": 0.538, "note": 69, "inst": "organ_v0_additive_1", "vel": 0.709, "bend": 0.0, "ch": 5}, {"t": 256.337, "dur": 0.269, "note": 40, "inst": "piano_v0_additive_0", "vel": 0.756, "bend": 0.0, "ch": 8}, {"t": 256.337, "dur": 0.269, "note": 64, "inst": "piano_v0_additive_0", "vel": 0.756, "bend": 0.0, "ch": 0}, {"t": 256.606, "dur": 0.269, "note": 40, "inst": "piano_v0_additive_0", "vel": 0.756, "bend": 0.0, "ch": 8}, {"t": 256.606, "dur": 0.269, "note": 52, "inst": "piano_v0_additive_0", "vel": 0.756, "bend": 0.0, "ch": 4}, {"t": 256.606, "dur": 0.269, "note": 59, "inst": "celesta_v0_additive_3", "vel": 0.709, "bend": 0.0, "ch": 11}, {"t": 256.606, "dur": 0.269, "note": 69, "inst": "organ_v0_additive_1", "vel": 0.709, "bend": 0.0, "ch": 5}, {"t": 256.875, "dur": 0.202, "note": 40, "inst": "piano_v0_additive_0", "vel": 0.756, "bend": 0.0, "ch": 8}, {"t": 256.875, "dur": 0.202, "note": 52, "inst": "piano_v0_additive_0", "vel": 0.756, "bend": 0.0, "ch": 4}, {"t": 257.077, "dur": 0.067, "note": 40, "inst": "piano_v0_additive_0", "vel": 0.756, "bend": 0.0, "ch": 8}, {"t": 257.077, "dur": 0.067, "note": 52, "inst": "piano_v0_additive_0", "vel": 0.756, "bend": 0.0, "ch": 4}, {"t": 257.144, "dur": 0.404, "note": 59, "inst": "celesta_v0_additive_3", "vel": 0.709, "bend": 0.0, "ch": 11}, {"t": 257.144, "dur": 0.404, "note": 62, "inst": "harpsichord_v0_additive_2", "vel": 0.709, "bend": 0.0, "ch": 14}, {"t": 257.548, "dur": 0.067, "note": 50, "inst": "harpsichord_v0_additive_2", "vel": 0.709, "bend": 0.0, "ch": 2}, {"t": 257.548, "dur": 0.067, "note": 64, "inst": "piano_v0_additive_0", "vel": 0.709, "bend": 0.0, "ch": 0}, {"t": 257.615, "dur": 0.067, "note": 59, "inst": "celesta_v0_additive_3", "vel": 0.709, "bend": 0.0, "ch": 11}, {"t": 257.615, "dur": 0.067, "note": 62, "inst": "harpsichord_v0_additive_2", "vel": 0.709, "bend": 0.0, "ch": 14}, {"t": 257.683, "dur": 0.269, "note": 57, "inst": "organ_v0_additive_1", "vel": 0.709, "bend": 0.0, "ch": 9}, {"t": 257.683, "dur": 0.269, "note": 50, "inst": "harpsichord_v0_additive_2", "vel": 0.709, "bend": 0.0, "ch": 2}, {"t": 257.952, "dur": 0.269, "note": 59, "inst": "celesta_v0_additive_3", "vel": 0.709, "bend": 0.0, "ch": 11}, {"t": 257.952, "dur": 0.269, "note": 62, "inst": "harpsichord_v0_additive_2", "vel": 0.709, "bend": 0.0, "ch": 14}, {"t": 257.952, "dur": 0.202, "note": 64, "inst": "piano_v0_additive_0", "vel": 0.756, "bend": 0.0, "ch": 0}, {"t": 257.952, "dur": 0.202, "note": 64, "inst": "piano_v0_additive_0", "vel": 0.756, "bend": 0.0, "ch": 0}, {"t": 258.154, "dur": 0.067, "note": 64, "inst": "piano_v0_additive_0", "vel": 0.756, "bend": 0.0, "ch": 0}, {"t": 258.154, "dur": 0.067, "note": 64, "inst": "piano_v0_additive_0", "vel": 0.756, "bend": 0.0, "ch": 0}, {"t": 258.221, "dur": 0.538, "note": 57, "inst": "organ_v0_additive_1", "vel": 0.709, "bend": 0.0, "ch": 9}, {"t": 258.221, "dur": 0.538, "note": 59, "inst": "celesta_v0_additive_3", "vel": 0.709, "bend": 0.0, "ch": 11}, {"t": 258.221, "dur": 0.404, "note": 74, "inst": "harpsichord_v0_additive_2", "vel": 0.709, "bend": 0.0, "ch": 10}, {"t": 258.221, "dur": 0.404, "note": 78, "inst": "harpsichord_v0_additive_2", "vel": 0.709, "bend": 0.0, "ch": 14}, {"t": 258.625, "dur": 0.045, "note": 78, "inst": "harpsichord_v0_additive_2", "vel": 0.709, "bend": 0.0, "ch": 14}, {"t": 258.625, "dur": 0.045, "note": 81, "inst": "organ_v0_additive_1", "vel": 0.709, "bend": 0.0, "ch": 1}, {"t": 258.669, "dur": 0.045, "note": 76, "inst": "piano_v0_additive_0", "vel": 0.709, "bend": 0.0, "ch": 12}, {"t": 258.669, "dur": 0.045, "note": 81, "inst": "organ_v0_additive_1", "vel": 0.709, "bend": 0.0, "ch": 1}, {"t": 258.715, "dur": 0.045, "note": 74, "inst": "harpsichord_v0_additive_2", "vel": 0.709, "bend": 0.0, "ch": 10}, {"t": 258.715, "dur": 0.045, "note": 78, "inst": "harpsichord_v0_additive_2", "vel": 0.709, "bend": 0.0, "ch": 14}, {"t": 258.759, "dur": 0.135, "note": 57, "inst": "organ_v0_additive_1", "vel": 0.709, "bend": 0.0, "ch": 9}, {"t": 258.759, "dur": 0.135, "note": 50, "inst": "harpsichord_v0_additive_2", "vel": 0.709, "bend": 0.0, "ch": 2}, {"t": 258.759, "dur": 0.135, "note": 62, "inst": "harpsichord_v0_additive_2", "vel": 0.756, "bend": 0.0, "ch": 14}, {"t": 258.759, "dur": 0.135, "note": 76, "inst": "piano_v0_additive_0", "vel": 0.756, "bend": 0.0, "ch": 12}, {"t": 258.894, "dur": 0.135, "note": 52, "inst": "piano_v0_additive_0", "vel": 0.756, "bend": 0.0, "ch": 4}, {"t": 258.894, "dur": 0.135, "note": 57, "inst": "organ_v0_additive_1", "vel": 0.756, "bend": 0.0, "ch": 9}, {"t": 258.894, "dur": 0.135, "note": 71, "inst": "celesta_v0_additive_3", "vel": 0.756, "bend": 0.0, "ch": 7}, {"t": 258.894, "dur": 0.135, "note": 74, "inst": "harpsichord_v0_additive_2", "vel": 0.756, "bend": 0.0, "ch": 10}, {"t": 259.029, "dur": 0.135, "note": 54, "inst": "harpsichord_v0_additive_2", "vel": 0.756, "bend": 0.0, "ch": 6}, {"t": 259.029, "dur": 0.135, "note": 57, "inst": "organ_v0_additive_1", "vel": 0.756, "bend": 0.0, "ch": 9}, {"t": 259.029, "dur": 0.135, "note": 69, "inst": "organ_v0_additive_1", "vel": 0.756, "bend": 0.0, "ch": 5}, {"t": 259.029, "dur": 0.135, "note": 62, "inst": "harpsichord_v0_additive_2", "vel": 0.756, "bend": 0.0, "ch": 14}, {"t": 259.163, "dur": 0.135, "note": 50, "inst": "harpsichord_v0_additive_2", "vel": 0.756, "bend": 0.0, "ch": 2}, {"t": 259.163, "dur": 0.135, "note": 50, "inst": "harpsichord_v0_additive_2", "vel": 0.756, "bend": 0.0, "ch": 2}, {"t": 259.163, "dur": 0.135, "note": 66, "inst": "harpsichord_v0_additive_2", "vel": 0.756, "bend": 0.0, "ch": 2}, {"t": 259.163, "dur": 0.135, "note": 71, "inst": "celesta_v0_additive_3", "vel": 0.756, "bend": 0.0, "ch": 7}, {"t": 259.298, "dur": 0.269, "note": 52, "inst": "piano_v0_additive_0", "vel": 0.709, "bend": 0.0, "ch": 4}, {"t": 259.298, "dur": 0.538, "note": 52, "inst": "piano_v0_additive_0", "vel": 0.709, "bend": 0.0, "ch": 4}, {"t": 259.298, "dur": 0.269, "note": 50, "inst": "harpsichord_v0_additive_2", "vel": 0.709, "bend": 0.0, "ch": 2}, {"t": 259.298, "dur": 0.269, "note": 69, "inst": "organ_v0_additive_1", "vel": 0.709, "bend": 0.0, "ch": 5}, {"t": 259.836, "dur": 0.404, "note": 50, "inst": "harpsichord_v0_additive_2", "vel": 0.709, "bend": 0.0, "ch": 2}, {"t": 259.836, "dur": 0.538, "note": 57, "inst": "organ_v0_additive_1", "vel": 0.709, "bend": 0.0, "ch": 9}, {"t": 259.836, "dur": 0.404, "note": 64, "inst": "piano_v0_additive_0", "vel": 0.709, "bend": 0.0, "ch": 0}, {"t": 260.105, "dur": 0.269, "note": 40, "inst": "piano_v0_additive_0", "vel": 0.709, "bend": 0.0, "ch": 8}, {"t": 260.24, "dur": 0.135, "note": 47, "inst": "celesta_v0_additive_3", "vel": 0.709, "bend": 0.0, "ch": 15}, {"t": 260.24, "dur": 0.067, "note": 66, "inst": "harpsichord_v0_additive_2", "vel": 0.709, "bend": 0.0, "ch": 2}, {"t": 260.307, "dur": 0.067, "note": 62, "inst": "harpsichord_v0_additive_2", "vel": 0.709, "bend": 0.0, "ch": 14}, {"t": 260.374, "dur": 0.269, "note": 33, "inst": "organ_v0_additive_1", "vel": 0.709, "bend": 0.0, "ch": 1}, {"t": 260.374, "dur": 0.135, "note": 45, "inst": "organ_v0_additive_1", "vel": 0.756, "bend": 0.0, "ch": 13}, {"t": 260.374, "dur": 0.135, "note": 57, "inst": "organ_v0_additive_1", "vel": 0.709, "bend": 0.0, "ch": 9}, {"t": 260.374, "dur": 0.269, "note": 50, "inst": "harpsichord_v0_additive_2", "vel": 0.709, "bend": 0.0, "ch": 2}, {"t": 260.509, "dur": 0.135, "note": 57, "inst": "organ_v0_additive_1", "vel": 0.756, "bend": 0.0, "ch": 9}, {"t": 260.509, "dur": 0.135, "note": 50, "inst": "harpsichord_v0_additive_2", "vel": 0.756, "bend": 0.0, "ch": 2}, {"t": 260.644, "dur": 0.269, "note": 26, "inst": "harpsichord_v0_additive_2", "vel": 0.709, "bend": 0.0, "ch": 10}, {"t": 260.644, "dur": 0.135, "note": 57, "inst": "organ_v0_additive_1", "vel": 0.756, "bend": 0.0, "ch": 9}, {"t": 260.644, "dur": 0.135, "note": 50, "inst": "harpsichord_v0_additive_2", "vel": 0.756, "bend": 0.0, "ch": 2}, {"t": 260.778, "dur": 0.135, "note": 57, "inst": "organ_v0_additive_1", "vel": 0.756, "bend": 0.0, "ch": 9}, {"t": 260.778, "dur": 0.135, "note": 50, "inst": "harpsichord_v0_additive_2", "vel": 0.756, "bend": 0.0, "ch": 2}, {"t": 260.913, "dur": 0.269, "note": 40, "inst": "piano_v0_additive_0", "vel": 0.709, "bend": 0.0, "ch": 8}, {"t": 260.913, "dur": 0.135, "note": 57, "inst": "organ_v0_additive_1", "vel": 0.756, "bend": 0.0, "ch": 9}, {"t": 260.913, "dur": 0.135, "note": 50, "inst": "harpsichord_v0_additive_2", "vel": 0.756, "bend": 0.0, "ch": 2}, {"t": 261.047, "dur": 0.135, "note": 57, "inst": "organ_v0_additive_1", "vel": 0.756, "bend": 0.0, "ch": 9}, {"t": 261.047, "dur": 0.135, "note": 50, "inst": "harpsichord_v0_additive_2", "vel": 0.756, "bend": 0.0, "ch": 2}, {"t": 261.182, "dur": 0.269, "note": 45, "inst": "organ_v0_additive_1", "vel": 0.709, "bend": 0.0, "ch": 13}, {"t": 261.182, "dur": 0.135, "note": 57, "inst": "organ_v0_additive_1", "vel": 0.756, "bend": 0.0, "ch": 9}, {"t": 261.182, "dur": 0.135, "note": 50, "inst": "harpsichord_v0_additive_2", "vel": 0.756, "bend": 0.0, "ch": 2}, {"t": 261.182, "dur": 0.202, "note": 69, "inst": "organ_v0_additive_1", "vel": 0.756, "bend": 0.0, "ch": 5}, {"t": 261.317, "dur": 0.135, "note": 57, "inst": "organ_v0_additive_1", "vel": 0.756, "bend": 0.0, "ch": 9}, {"t": 261.317, "dur": 0.135, "note": 50, "inst": "harpsichord_v0_additive_2", "vel": 0.756, "bend": 0.0, "ch": 2}, {"t": 261.384, "dur": 0.067, "note": 69, "inst": "organ_v0_additive_1", "vel": 0.756, "bend": 0.0, "ch": 5}, {"t": 261.451, "dur": 0.269, "note": 38, "inst": "harpsichord_v0_additive_2", "vel": 0.709, "bend": 0.0, "ch": 6}, {"t": 261.451, "dur": 0.135, "note": 57, "inst": "organ_v0_additive_1", "vel": 0.709, "bend": 0.0, "ch": 9}, {"t": 261.451, "dur": 0.135, "note": 64, "inst": "piano_v0_additive_0", "vel": 0.709, "bend": 0.0, "ch": 0}, {"t": 261.451, "dur": 0.673, "note": 78, "inst": "harpsichord_v0_additive_2", "vel": 0.709, "bend": 0.0, "ch": 14}, {"t": 261.586, "dur": 0.135, "note": 57, "inst": "organ_v0_additive_1", "vel": 0.709, "bend": 0.0, "ch": 9}, {"t": 261.586, "dur": 0.135, "note": 64, "inst": "piano_v0_additive_0", "vel": 0.709, "bend": 0.0, "ch": 0}, {"t": 261.72, "dur": 0.269, "note": 52, "inst": "piano_v0_additive_0", "vel": 0.709, "bend": 0.0, "ch": 4}, {"t": 261.72, "dur": 0.135, "note": 50, "inst": "harpsichord_v0_additive_2", "vel": 0.709, "bend": 0.0, "ch": 2}, {"t": 261.72, "dur": 0.135, "note": 64, "inst": "piano_v0_additive_0", "vel": 0.709, "bend": 0.0, "ch": 0}, {"t": 261.855, "dur": 0.135, "note": 50, "inst": "harpsichord_v0_additive_2", "vel": 0.709, "bend": 0.0, "ch": 2}, {"t": 261.855, "dur": 0.135, "note": 64, "inst": "piano_v0_additive_0", "vel": 0.709, "bend": 0.0, "ch": 0}, {"t": 261.99, "dur": 0.269, "note": 57, "inst": "organ_v0_additive_1", "vel": 0.709, "bend": 0.0, "ch": 9}, {"t": 261.99, "dur": 0.135, "note": 50, "inst": "harpsichord_v0_additive_2", "vel": 0.709, "bend": 0.0, "ch": 2}, {"t": 261.99, "dur": 0.135, "note": 64, "inst": "piano_v0_additive_0", "vel": 0.709, "bend": 0.0, "ch": 0}, {"t": 262.124, "dur": 0.135, "note": 50, "inst": "harpsichord_v0_additive_2", "vel": 0.709, "bend": 0.0, "ch": 2}, {"t": 262.124, "dur": 0.135, "note": 64, "inst": "piano_v0_additive_0", "vel": 0.709, "bend": 0.0, "ch": 0}, {"t": 262.124, "dur": 0.067, "note": 78, "inst": "harpsichord_v0_additive_2", "vel": 0.709, "bend": 0.0, "ch": 14}, {"t": 262.191, "dur": 0.067, "note": 78, "inst": "harpsichord_v0_additive_2", "vel": 0.709, "bend": 0.0, "ch": 14}, {"t": 262.259, "dur": 0.135, "note": 50, "inst": "harpsichord_v0_additive_2", "vel": 0.709, "bend": 0.0, "ch": 2}, {"t": 262.259, "dur": 0.269, "note": 50, "inst": "harpsichord_v0_additive_2", "vel": 0.709, "bend": 0.0, "ch": 2}, {"t": 262.259, "dur": 0.135, "note": 64, "inst": "piano_v0_additive_0", "vel": 0.709, "bend": 0.0, "ch": 0}, {"t": 262.259, "dur": 0.067, "note": 78, "inst": "harpsichord_v0_additive_2", "vel": 0.709, "bend": 0.0, "ch": 14}, {"t": 262.326, "dur": 0.067, "note": 78, "inst": "harpsichord_v0_additive_2", "vel": 0.709, "bend": 0.0, "ch": 14}, {"t": 262.393, "dur": 0.135, "note": 50, "inst": "harpsichord_v0_additive_2", "vel": 0.709, "bend": 0.0, "ch": 2}, {"t": 262.393, "dur": 0.135, "note": 64, "inst": "piano_v0_additive_0", "vel": 0.709, "bend": 0.0, "ch": 0}, {"t": 262.393, "dur": 0.067, "note": 81, "inst": "organ_v0_additive_1", "vel": 0.709, "bend": 0.0, "ch": 1}, {"t": 262.461, "dur": 0.067, "note": 78, "inst": "harpsichord_v0_additive_2", "vel": 0.709, "bend": 0.0, "ch": 14}, {"t": 262.528, "dur": 0.269, "note": 33, "inst": "organ_v0_additive_1", "vel": 0.709, "bend": 0.0, "ch": 1}, {"t": 262.528, "dur": 0.135, "note": 62, "inst": "harpsichord_v0_additive_2", "vel": 0.709, "bend": 0.0, "ch": 14}, {"t": 262.528, "dur": 0.135, "note": 66, "inst": "harpsichord_v0_additive_2", "vel": 0.709, "bend": 0.0, "ch": 2}, {"t": 262.528, "dur": 0.269, "note": 78, "inst": "harpsichord_v0_additive_2", "vel": 0.709, "bend": 0.0, "ch": 14}, {"t": 262.662, "dur": 0.135, "note": 62, "inst": "harpsichord_v0_additive_2", "vel": 0.709, "bend": 0.0, "ch": 14}, {"t": 262.662, "dur": 0.135, "note": 66, "inst": "harpsichord_v0_additive_2", "vel": 0.709, "bend": 0.0, "ch": 2}, {"t": 262.797, "dur": 0.269, "note": 38, "inst": "harpsichord_v0_additive_2", "vel": 0.709, "bend": 0.0, "ch": 6}, {"t": 262.797, "dur": 0.135, "note": 62, "inst": "harpsichord_v0_additive_2", "vel": 0.709, "bend": 0.0, "ch": 14}, {"t": 262.797, "dur": 0.135, "note": 66, "inst": "harpsichord_v0_additive_2", "vel": 0.709, "bend": 0.0, "ch": 2}, {"t": 262.932, "dur": 0.135, "note": 62, "inst": "harpsichord_v0_additive_2", "vel": 0.709, "bend": 0.0, "ch": 14}, {"t": 262.932, "dur": 0.135, "note": 66, "inst": "harpsichord_v0_additive_2", "vel": 0.709, "bend": 0.0, "ch": 2}, {"t": 263.066, "dur": 0.269, "note": 42, "inst": "harpsichord_v0_additive_2", "vel": 0.709, "bend": 0.0, "ch": 10}, {"t": 263.066, "dur": 0.135, "note": 62, "inst": "harpsichord_v0_additive_2", "vel": 0.709, "bend": 0.0, "ch": 14}, {"t": 263.066, "dur": 0.135, "note": 66, "inst": "harpsichord_v0_additive_2", "vel": 0.709, "bend": 0.0, "ch": 2}, {"t": 263.201, "dur": 0.135, "note": 62, "inst": "harpsichord_v0_additive_2", "vel": 0.709, "bend": 0.0, "ch": 14}, {"t": 263.201, "dur": 0.135, "note": 66, "inst": "harpsichord_v0_additive_2", "vel": 0.709, "bend": 0.0, "ch": 2}, {"t": 263.335, "dur": 0.269, "note": 45, "inst": "organ_v0_additive_1", "vel": 0.709, "bend": 0.0, "ch": 13}, {"t": 263.335, "dur": 0.135, "note": 62, "inst": "harpsichord_v0_additive_2", "vel": 0.709, "bend": 0.0, "ch": 14}, {"t": 263.335, "dur": 0.135, "note": 66, "inst": "harpsichord_v0_additive_2", "vel": 0.709, "bend": 0.0, "ch": 2}, {"t": 263.335, "dur": 0.202, "note": 78, "inst": "harpsichord_v0_additive_2", "vel": 0.756, "bend": 0.0, "ch": 14}, {"t": 263.47, "dur": 0.135, "note": 62, "inst": "harpsichord_v0_additive_2", "vel": 0.709, "bend": 0.0, "ch": 14}, {"t": 263.47, "dur": 0.135, "note": 66, "inst": "harpsichord_v0_additive_2", "vel": 0.709, "bend": 0.0, "ch": 2}, {"t": 263.537, "dur": 0.067, "note": 78, "inst": "harpsichord_v0_additive_2", "vel": 0.756, "bend": 0.0, "ch": 14}, {"t": 263.605, "dur": 0.269, "note": 33, "inst": "organ_v0_additive_1", "vel": 0.709, "bend": 0.0, "ch": 1}, {"t": 263.605, "dur": 0.135, "note": 59, "inst": "celesta_v0_additive_3", "vel": 0.709, "bend": 0.0, "ch": 11}, {"t": 263.605, "dur": 0.135, "note": 62, "inst": "harpsichord_v0_additive_2", "vel": 0.709, "bend": 0.0, "ch": 14}, {"t": 263.605, "dur": 0.135, "note": 69, "inst": "organ_v0_additive_1", "vel": 0.709, "bend": 0.0, "ch": 5}, {"t": 263.605, "dur": 0.673, "note": 86, "inst": "harpsichord_v0_additive_2", "vel": 0.709, "bend": 0.0, "ch": 6}, {"t": 263.739, "dur": 0.135, "note": 59, "inst": "celesta_v0_additive_3", "vel": 0.709, "bend": 0.0, "ch": 11}, {"t": 263.739, "dur": 0.135, "note": 62, "inst": "harpsichord_v0_additive_2", "vel": 0.709, "bend": 0.0, "ch": 14}, {"t": 263.739, "dur": 0.135, "note": 69, "inst": "organ_v0_additive_1", "vel": 0.709, "bend": 0.0, "ch": 5}, {"t": 263.874, "dur": 0.269, "note": 57, "inst": "organ_v0_additive_1", "vel": 0.709, "bend": 0.0, "ch": 9}, {"t": 263.874, "dur": 0.135, "note": 59, "inst": "celesta_v0_additive_3", "vel": 0.709, "bend": 0.0, "ch": 11}, {"t": 263.874, "dur": 0.135, "note": 62, "inst": "harpsichord_v0_additive_2", "vel": 0.709, "bend": 0.0, "ch": 14}, {"t": 263.874, "dur": 0.135, "note": 69, "inst": "organ_v0_additive_1", "vel": 0.709, "bend": 0.0, "ch": 5}, {"t": 264.008, "dur": 0.135, "note": 59, "inst": "celesta_v0_additive_3", "vel": 0.709, "bend": 0.0, "ch": 11}, {"t": 264.008, "dur": 0.135, "note": 62, "inst": "harpsichord_v0_additive_2", "vel": 0.709, "bend": 0.0, "ch": 14}, {"t": 264.008, "dur": 0.135, "note": 69, "inst": "organ_v0_additive_1", "vel": 0.709, "bend": 0.0, "ch": 5}, {"t": 264.143, "dur": 0.135, "note": 59, "inst": "celesta_v0_additive_3", "vel": 0.709, "bend": 0.0, "ch": 11}, {"t": 264.143, "dur": 0.269, "note": 59, "inst": "celesta_v0_additive_3", "vel": 0.709, "bend": 0.0, "ch": 11}, {"t": 264.143, "dur": 0.135, "note": 62, "inst": "harpsichord_v0_additive_2", "vel": 0.709, "bend": 0.0, "ch": 14}, {"t": 264.143, "dur": 0.135, "note": 69, "inst": "organ_v0_additive_1", "vel": 0.709, "bend": 0.0, "ch": 5}, {"t": 264.278, "dur": 0.135, "note": 59, "inst": "celesta_v0_additive_3", "vel": 0.709, "bend": 0.0, "ch": 11}, {"t": 264.278, "dur": 0.135, "note": 62, "inst": "harpsichord_v0_additive_2", "vel": 0.709, "bend": 0.0, "ch": 14}, {"t": 264.278, "dur": 0.135, "note": 69, "inst": "organ_v0_additive_1", "vel": 0.709, "bend": 0.0, "ch": 5}, {"t": 264.278, "dur": 0.067, "note": 74, "inst": "harpsichord_v0_additive_2", "vel": 0.709, "bend": 0.0, "ch": 10}, {"t": 264.345, "dur": 0.067, "note": 83, "inst": "celesta_v0_additive_3", "vel": 0.709, "bend": 0.0, "ch": 3}, {"t": 264.412, "dur": 0.135, "note": 62, "inst": "harpsichord_v0_additive_2", "vel": 0.709, "bend": 0.0, "ch": 14}, {"t": 264.412, "dur": 0.269, "note": 62, "inst": "harpsichord_v0_additive_2", "vel": 0.709, "bend": 0.0, "ch": 14}, {"t": 264.412, "dur": 0.135, "note": 71, "inst": "celesta_v0_additive_3", "vel": 0.709, "bend": 0.0, "ch": 7}, {"t": 264.412, "dur": 0.067, "note": 74, "inst": "harpsichord_v0_additive_2", "vel": 0.709, "bend": 0.0, "ch": 10}, {"t": 264.479, "dur": 0.067, "note": 83, "inst": "celesta_v0_additive_3", "vel": 0.709, "bend": 0.0, "ch": 3}, {"t": 264.547, "dur": 0.135, "note": 62, "inst": "harpsichord_v0_additive_2", "vel": 0.709, "bend": 0.0, "ch": 14}, {"t": 264.547, "dur": 0.135, "note": 71, "inst": "celesta_v0_additive_3", "vel": 0.709, "bend": 0.0, "ch": 7}, {"t": 264.547, "dur": 0.067, "note": 81, "inst": "organ_v0_additive_1", "vel": 0.709, "bend": 0.0, "ch": 1}, {"t": 264.614, "dur": 0.067, "note": 81, "inst": "organ_v0_additive_1", "vel": 0.709, "bend": 0.0, "ch": 1}, {"t": 264.681, "dur": 0.269, "note": 33, "inst": "organ_v0_additive_1", "vel": 0.709, "bend": 0.0, "ch": 1}, {"t": 264.681, "dur": 0.135, "note": 50, "inst": "harpsichord_v0_additive_2", "vel": 0.709, "bend": 0.0, "ch": 2}, {"t": 264.681, "dur": 0.135, "note": 69, "inst": "organ_v0_additive_1", "vel": 0.709, "bend": 0.0, "ch": 5}, {"t": 264.681, "dur": 0.269, "note": 81, "inst": "organ_v0_additive_1", "vel": 0.709, "bend": 0.0, "ch": 1}, {"t": 264.816, "dur": 0.135, "note": 52, "inst": "piano_v0_additive_0", "vel": 0.709, "bend": 0.0, "ch": 4}, {"t": 264.816, "dur": 0.135, "note": 57, "inst": "organ_v0_additive_1", "vel": 0.709, "bend": 0.0, "ch": 9}, {"t": 264.816, "dur": 0.135, "note": 50, "inst": "harpsichord_v0_additive_2", "vel": 0.709, "bend": 0.0, "ch": 2}, {"t": 264.95, "dur": 0.269, "note": 26, "inst": "harpsichord_v0_additive_2", "vel": 0.709, "bend": 0.0, "ch": 10}, {"t": 264.95, "dur": 0.135, "note": 52, "inst": "piano_v0_additive_0", "vel": 0.709, "bend": 0.0, "ch": 4}, {"t": 264.95, "dur": 0.135, "note": 57, "inst": "organ_v0_additive_1", "vel": 0.709, "bend": 0.0, "ch": 9}, {"t": 264.95, "dur": 0.135, "note": 50, "inst": "harpsichord_v0_additive_2", "vel": 0.709, "bend": 0.0, "ch": 2}, {"t": 265.085, "dur": 0.135, "note": 52, "inst": "piano_v0_additive_0", "vel": 0.709, "bend": 0.0, "ch": 4}, {"t": 265.085, "dur": 0.135, "note": 57, "inst": "organ_v0_additive_1", "vel": 0.709, "bend": 0.0, "ch": 9}, {"t": 265.085, "dur": 0.135, "note": 50, "inst": "harpsichord_v0_additive_2", "vel": 0.709, "bend": 0.0, "ch": 2}, {"t": 265.22, "dur": 0.269, "note": 40, "inst": "piano_v0_additive_0", "vel": 0.709, "bend": 0.0, "ch": 8}, {"t": 265.22, "dur": 0.135, "note": 52, "inst": "piano_v0_additive_0", "vel": 0.709, "bend": 0.0, "ch": 4}, {"t": 265.22, "dur": 0.135, "note": 57, "inst": "organ_v0_additive_1", "vel": 0.709, "bend": 0.0, "ch": 9}, {"t": 265.22, "dur": 0.135, "note": 50, "inst": "harpsichord_v0_additive_2", "vel": 0.709, "bend": 0.0, "ch": 2}, {"t": 265.354, "dur": 0.135, "note": 52, "inst": "piano_v0_additive_0", "vel": 0.709, "bend": 0.0, "ch": 4}, {"t": 265.354, "dur": 0.135, "note": 57, "inst": "organ_v0_additive_1", "vel": 0.709, "bend": 0.0, "ch": 9}, {"t": 265.354, "dur": 0.135, "note": 50, "inst": "harpsichord_v0_additive_2", "vel": 0.709, "bend": 0.0, "ch": 2}, {"t": 265.489, "dur": 0.269, "note": 45, "inst": "organ_v0_additive_1", "vel": 0.709, "bend": 0.0, "ch": 13}, {"t": 265.489, "dur": 0.135, "note": 52, "inst": "piano_v0_additive_0", "vel": 0.709, "bend": 0.0, "ch": 4}, {"t": 265.489, "dur": 0.135, "note": 57, "inst": "organ_v0_additive_1", "vel": 0.709, "bend": 0.0, "ch": 9}, {"t": 265.489, "dur": 0.135, "note": 50, "inst": "harpsichord_v0_additive_2", "vel": 0.709, "bend": 0.0, "ch": 2}, {"t": 265.489, "dur": 0.202, "note": 69, "inst": "organ_v0_additive_1", "vel": 0.756, "bend": 0.0, "ch": 5}, {"t": 265.623, "dur": 0.135, "note": 52, "inst": "piano_v0_additive_0", "vel": 0.709, "bend": 0.0, "ch": 4}, {"t": 265.623, "dur": 0.135, "note": 57, "inst": "organ_v0_additive_1", "vel": 0.709, "bend": 0.0, "ch": 9}, {"t": 265.623, "dur": 0.135, "note": 50, "inst": "harpsichord_v0_additive_2", "vel": 0.709, "bend": 0.0, "ch": 2}, {"t": 265.691, "dur": 0.067, "note": 69, "inst": "organ_v0_additive_1", "vel": 0.756, "bend": 0.0, "ch": 5}, {"t": 265.758, "dur": 0.269, "note": 38, "inst": "harpsichord_v0_additive_2", "vel": 0.709, "bend": 0.0, "ch": 6}, {"t": 265.758, "dur": 0.135, "note": 57, "inst": "organ_v0_additive_1", "vel": 0.709, "bend": 0.0, "ch": 9}, {"t": 265.758, "dur": 0.135, "note": 64, "inst": "piano_v0_additive_0", "vel": 0.709, "bend": 0.0, "ch": 0}, {"t": 265.758, "dur": 0.673, "note": 78, "inst": "harpsichord_v0_additive_2", "vel": 0.709, "bend": 0.0, "ch": 14}, {"t": 265.893, "dur": 0.135, "note": 57, "inst": "organ_v0_additive_1", "vel": 0.709, "bend": 0.0, "ch": 9}, {"t": 265.893, "dur": 0.135, "note": 64, "inst": "piano_v0_additive_0", "vel": 0.709, "bend": 0.0, "ch": 0}, {"t": 266.027, "dur": 0.269, "note": 52, "inst": "piano_v0_additive_0", "vel": 0.709, "bend": 0.0, "ch": 4}, {"t": 266.027, "dur": 0.135, "note": 50, "inst": "harpsichord_v0_additive_2", "vel": 0.709, "bend": 0.0, "ch": 2}, {"t": 266.027, "dur": 0.135, "note": 64, "inst": "piano_v0_additive_0", "vel": 0.709, "bend": 0.0, "ch": 0}, {"t": 266.162, "dur": 0.135, "note": 50, "inst": "harpsichord_v0_additive_2", "vel": 0.709, "bend": 0.0, "ch": 2}, {"t": 266.162, "dur": 0.135, "note": 64, "inst": "piano_v0_additive_0", "vel": 0.709, "bend": 0.0, "ch": 0}, {"t": 266.296, "dur": 0.269, "note": 57, "inst": "organ_v0_additive_1", "vel": 0.709, "bend": 0.0, "ch": 9}, {"t": 266.296, "dur": 0.135, "note": 50, "inst": "harpsichord_v0_additive_2", "vel": 0.709, "bend": 0.0, "ch": 2}, {"t": 266.296, "dur": 0.135, "note": 64, "inst": "piano_v0_additive_0", "vel": 0.709, "bend": 0.0, "ch": 0}, {"t": 266.431, "dur": 0.135, "note": 50, "inst": "harpsichord_v0_additive_2", "vel": 0.709, "bend": 0.0, "ch": 2}, {"t": 266.431, "dur": 0.135, "note": 64, "inst": "piano_v0_additive_0", "vel": 0.709, "bend": 0.0, "ch": 0}, {"t": 266.431, "dur": 0.067, "note": 78, "inst": "harpsichord_v0_additive_2", "vel": 0.709, "bend": 0.0, "ch": 14}, {"t": 266.498, "dur": 0.067, "note": 78, "inst": "harpsichord_v0_additive_2", "vel": 0.709, "bend": 0.0, "ch": 14}, {"t": 266.566, "dur": 0.135, "note": 50, "inst": "harpsichord_v0_additive_2", "vel": 0.709, "bend": 0.0, "ch": 2}, {"t": 266.566, "dur": 0.269, "note": 50, "inst": "harpsichord_v0_additive_2", "vel": 0.709, "bend": 0.0, "ch": 2}, {"t": 266.566, "dur": 0.135, "note": 64, "inst": "piano_v0_additive_0", "vel": 0.709, "bend": 0.0, "ch": 0}, {"t": 266.566, "dur": 0.067, "note": 78, "inst": "harpsichord_v0_additive_2", "vel": 0.709, "bend": 0.0, "ch": 14}, {"t": 266.633, "dur": 0.067, "note": 78, "inst": "harpsichord_v0_additive_2", "vel": 0.709, "bend": 0.0, "ch": 14}, {"t": 266.7, "dur": 0.135, "note": 50, "inst": "harpsichord_v0_additive_2", "vel": 0.709, "bend": 0.0, "ch": 2}, {"t": 266.7, "dur": 0.135, "note": 64, "inst": "piano_v0_additive_0", "vel": 0.709, "bend": 0.0, "ch": 0}, {"t": 266.7, "dur": 0.067, "note": 81, "inst": "organ_v0_additive_1", "vel": 0.709, "bend": 0.0, "ch": 1}, {"t": 266.767, "dur": 0.067, "note": 78, "inst": "harpsichord_v0_additive_2", "vel": 0.709, "bend": 0.0, "ch": 14}, {"t": 266.835, "dur": 0.269, "note": 33, "inst": "organ_v0_additive_1", "vel": 0.709, "bend": 0.0, "ch": 1}, {"t": 266.835, "dur": 0.135, "note": 62, "inst": "harpsichord_v0_additive_2", "vel": 0.709, "bend": 0.0, "ch": 14}, {"t": 266.835, "dur": 0.135, "note": 66, "inst": "harpsichord_v0_additive_2", "vel": 0.709, "bend": 0.0, "ch": 2}, {"t": 266.835, "dur": 0.269, "note": 78, "inst": "harpsichord_v0_additive_2", "vel": 0.709, "bend": 0.0, "ch": 14}, {"t": 266.969, "dur": 0.135, "note": 62, "inst": "harpsichord_v0_additive_2", "vel": 0.709, "bend": 0.0, "ch": 14}, {"t": 266.969, "dur": 0.135, "note": 66, "inst": "harpsichord_v0_additive_2", "vel": 0.709, "bend": 0.0, "ch": 2}, {"t": 294.298, "dur": 0.608, "note": 60, "inst": "piano_v0_additive_0", "vel": 0.63, "bend": 0.0, "ch": 12}, {"t": 294.939, "dur": 1.217, "note": 48, "inst": "piano_v0_additive_0", "vel": 0.63, "bend": 0.0, "ch": 0}, {"t": 294.939, "dur": 2.435, "note": 67, "inst": "celesta_v0_additive_3", "vel": 0.63, "bend": 0.0, "ch": 3}, {"t": 296.221, "dur": 2.435, "note": 58, "inst": "harpsichord_v0_additive_2", "vel": 0.63, "bend": 0.0, "ch": 10}, {"t": 297.503, "dur": 1.217, "note": 67, "inst": "celesta_v0_additive_3", "vel": 0.63, "bend": 0.0, "ch": 3}, {"t": 298.785, "dur": 4.871, "note": 55, "inst": "celesta_v0_additive_3", "vel": 0.63, "bend": 0.0, "ch": 7}, {"t": 298.785, "dur": 14.615, "note": 62, "inst": "harpsichord_v0_additive_2", "vel": 0.63, "bend": 0.0, "ch": 14}, {"t": 298.785, "dur": 3.653, "note": 67, "inst": "celesta_v0_additive_3", "vel": 0.63, "bend": 0.0, "ch": 3}, {"t": 301.35, "dur": 2.435, "note": 43, "inst": "celesta_v0_additive_3", "vel": 0.63, "bend": 0.0, "ch": 11}, {"t": 302.632, "dur": 0.608, "note": 65, "inst": "organ_v0_additive_1", "vel": 0.63, "bend": 0.0, "ch": 1}, {"t": 303.273, "dur": 0.608, "note": 65, "inst": "organ_v0_additive_1", "vel": 0.63, "bend": 0.0, "ch": 1}, {"t": 303.914, "dur": 3.653, "note": 50, "inst": "harpsichord_v0_additive_2", "vel": 0.63, "bend": 0.0, "ch": 2}, {"t": 303.914, "dur": 1.217, "note": 65, "inst": "organ_v0_additive_1", "vel": 0.63, "bend": 0.0, "ch": 1}, {"t": 305.196, "dur": 1.826, "note": 62, "inst": "harpsichord_v0_additive_2", "vel": 0.63, "bend": 0.0, "ch": 14}, {"t": 306.478, "dur": 2.435, "note": 65, "inst": "organ_v0_additive_1", "vel": 0.63, "bend": 0.0, "ch": 1}, {"t": 307.119, "dur": 0.608, "note": 60, "inst": "piano_v0_additive_0", "vel": 0.63, "bend": 0.0, "ch": 12}, {"t": 307.761, "dur": 1.217, "note": 48, "inst": "piano_v0_additive_0", "vel": 0.63, "bend": 0.0, "ch": 0}, {"t": 307.761, "dur": 1.217, "note": 58, "inst": "harpsichord_v0_additive_2", "vel": 0.63, "bend": 0.0, "ch": 10}, {"t": 309.043, "dur": 1.217, "note": 36, "inst": "piano_v0_additive_0", "vel": 0.63, "bend": 0.0, "ch": 4}, {"t": 309.043, "dur": 2.435, "note": 48, "inst": "piano_v0_additive_0", "vel": 0.63, "bend": 0.0, "ch": 0}, {"t": 309.043, "dur": 2.435, "note": 67, "inst": "celesta_v0_additive_3", "vel": 0.63, "bend": 0.0, "ch": 3}, {"t": 310.325, "dur": 1.217, "note": 43, "inst": "celesta_v0_additive_3", "vel": 0.63, "bend": 0.0, "ch": 11}, {"t": 311.607, "dur": 2.435, "note": 50, "inst": "harpsichord_v0_additive_2", "vel": 0.63, "bend": 0.0, "ch": 2}, {"t": 311.607, "dur": 1.217, "note": 58, "inst": "harpsichord_v0_additive_2", "vel": 0.63, "bend": 0.0, "ch": 10}, {"t": 311.607, "dur": 2.435, "note": 70, "inst": "harpsichord_v0_additive_2", "vel": 0.63, "bend": 0.0, "ch": 6}, {"t": 312.889, "dur": 1.217, "note": 53, "inst": "organ_v0_additive_1", "vel": 0.63, "bend": 0.0, "ch": 5}, {"t": 314.171, "dur": 2.435, "note": 43, "inst": "celesta_v0_additive_3", "vel": 0.63, "bend": 0.0, "ch": 11}, {"t": 314.171, "dur": 1.217, "note": 55, "inst": "celesta_v0_additive_3", "vel": 0.63, "bend": 0.0, "ch": 7}, {"t": 314.171, "dur": 14.615, "note": 62, "inst": "harpsichord_v0_additive_2", "vel": 0.63, "bend": 0.0, "ch": 14}, {"t": 314.171, "dur": 3.653, "note": 60, "inst": "piano_v0_additive_0", "vel": 0.63, "bend": 0.0, "ch": 12}, {"t": 315.454, "dur": 2.435, "note": 48, "inst": "piano_v0_additive_0", "vel": 0.63, "bend": 0.0, "ch": 0}, {"t": 316.736, "dur": 2.435, "note": 55, "inst": "celesta_v0_additive_3", "vel": 0.63, "bend": 0.0, "ch": 7}, {"t": 318.018, "dur": 1.217, "note": 60, "inst": "piano_v0_additive_0", "vel": 0.63, "bend": 0.0, "ch": 12}, {"t": 318.018, "dur": 1.217, "note": 67, "inst": "celesta_v0_additive_3", "vel": 0.63, "bend": 0.0, "ch": 3}, {"t": 319.3, "dur": 2.435, "note": 53, "inst": "organ_v0_additive_1", "vel": 0.63, "bend": 0.0, "ch": 5}, {"t": 319.3, "dur": 1.217, "note": 58, "inst": "harpsichord_v0_additive_2", "vel": 0.63, "bend": 0.0, "ch": 10}, {"t": 319.3, "dur": 2.435, "note": 70, "inst": "harpsichord_v0_additive_2", "vel": 0.63, "bend": 0.0, "ch": 6}, {"t": 320.582, "dur": 2.435, "note": 62, "inst": "harpsichord_v0_additive_2", "vel": 0.63, "bend": 0.0, "ch": 14}, {"t": 321.864, "dur": 2.435, "note": 55, "inst": "celesta_v0_additive_3", "vel": 0.63, "bend": 0.0, "ch": 7}, {"t": 321.864, "dur": 3.653, "note": 60, "inst": "piano_v0_additive_0", "vel": 0.63, "bend": 0.0, "ch": 12}], "instruments": ["celesta_v0_additive_3", "harpsichord_v0_additive_2", "organ_v0_additive_1", "piano_v0_additive_0", "voice"], "duration": 328.786, "n_events": 590}