{"events": [{"t": 0.082, "dur": 0.184, "note": 77, "inst": "celesta_v0_additive_3", "vel": 1.0, "bend": 0.0, "ch": 13}, {"t": 0.266, "dur": 0.369, "note": 55, "inst": "harpsichord_v0_additive_2", "vel": 1.0, "bend": 0.0, "ch": 7}, {"t": 0.266, "dur": 0.184, "note": 75, "inst": "organ_v0_additive_1", "vel": 1.0, "bend": 0.0, "ch": 11}, {"t": 0.45, "dur": 0.184, "note": 72, "inst": "organ_v0_additive_1", "vel": 1.0, "bend": 0.0, "ch": 8}, {"t": 0.635, "dur": 0.369, "note": 53, "inst": "celesta_v0_additive_3", "vel": 1.0, "bend": 0.0, "ch": 5}, {"t": 0.635, "dur": 0.184, "note": 60, "inst": "organ_v0_additive_1", "vel": 1.0, "bend": 0.0, "ch": 12}, {"t": 0.819, "dur": 0.184, "note": 84, "inst": "organ_v0_additive_1", "vel": 1.0, "bend": 0.0, "ch": 4}, {"t": 1.003, "dur": 0.369, "note": 36, "inst": "organ_v0_additive_1", "vel": 1.0, "bend": 0.0, "ch": 4}, {"t": 1.003, "dur": 0.184, "note": 72, "inst": "organ_v0_additive_1", "vel": 1.0, "bend": 0.0, "ch": 8}, {"t": 1.188, "dur": 0.061, "note": 72, "inst": "organ_v0_additive_1", "vel": 1.0, "bend": 0.0, "ch": 8}, {"t": 1.249, "dur": 0.061, "note": 75, "inst": "organ_v0_additive_1", "vel": 1.0, "bend": 0.0, "ch": 11}, {"t": 1.311, "dur": 0.061, "note": 72, "inst": "organ_v0_additive_1", "vel": 1.0, "bend": 0.0, "ch": 8}, {"t": 1.372, "dur": 0.369, "note": 53, "inst": "celesta_v0_additive_3", "vel": 1.0, "bend": 0.0, "ch": 5}, {"t": 1.372, "dur": 0.184, "note": 60, "inst": "organ_v0_additive_1", "vel": 1.0, "bend": 0.0, "ch": 12}, {"t": 1.556, "dur": 0.184, "note": 72, "inst": "organ_v0_additive_1", "vel": 1.0, "bend": 0.0, "ch": 8}, {"t": 1.741, "dur": 0.369, "note": 36, "inst": "organ_v0_additive_1", "vel": 1.0, "bend": 0.0, "ch": 4}, {"t": 1.741, "dur": 0.184, "note": 82, "inst": "harpsichord_v0_additive_2", "vel": 1.0, "bend": 0.0, "ch": 2}, {"t": 1.925, "dur": 0.061, "note": 70, "inst": "harpsichord_v0_additive_2", "vel": 1.0, "bend": 0.0, "ch": 6}, {"t": 1.987, "dur": 0.061, "note": 60, "inst": "organ_v0_additive_1", "vel": 1.0, "bend": 0.0, "ch": 12}, {"t": 2.048, "dur": 0.061, "note": 70, "inst": "harpsichord_v0_additive_2", "vel": 1.0, "bend": 0.0, "ch": 6}, {"t": 2.11, "dur": 0.369, "note": 51, "inst": "organ_v0_additive_1", "vel": 1.0, "bend": 0.0, "ch": 3}, {"t": 2.11, "dur": 0.184, "note": 67, "inst": "harpsichord_v0_additive_2", "vel": 1.0, "bend": 0.0, "ch": 3}, {"t": 2.294, "dur": 0.184, "note": 82, "inst": "harpsichord_v0_additive_2", "vel": 1.0, "bend": 0.0, "ch": 2}, {"t": 2.478, "dur": 0.369, "note": 51, "inst": "organ_v0_additive_1", "vel": 1.0, "bend": 0.0, "ch": 3}, {"t": 2.478, "dur": 0.184, "note": 79, "inst": "harpsichord_v0_additive_2", "vel": 1.0, "bend": 0.0, "ch": 15}, {"t": 2.663, "dur": 0.061, "note": 79, "inst": "harpsichord_v0_additive_2", "vel": 1.0, "bend": 0.0, "ch": 15}, {"t": 2.724, "dur": 0.061, "note": 82, "inst": "harpsichord_v0_additive_2", "vel": 1.0, "bend": 0.0, "ch": 2}, {"t": 2.786, "dur": 0.061, "note": 79, "inst": "harpsichord_v0_additive_2", "vel": 1.0, "bend": 0.0, "ch": 15}, {"t": 2.847, "dur": 0.369, "note": 51, "inst": "organ_v0_additive_1", "vel": 1.0, "bend": 0.0, "ch": 3}, {"t": 2.847, "dur": 0.184, "note": 79, "inst": "harpsichord_v0_additive_2", "vel": 1.0, "bend": 0.0, "ch": 15}, {"t": 3.031, "dur": 0.184, "note": 79, "inst": "harpsichord_v0_additive_2", "vel": 1.0, "bend": 0.0, "ch": 15}, {"t": 3.216, "dur": 0.369, "note": 36, "inst": "organ_v0_additive_1", "vel": 1.0, "bend": 0.0, "ch": 4}, {"t": 3.216, "dur": 0.184, "note": 72, "inst": "organ_v0_additive_1", "vel": 1.0, "bend": 0.0, "ch": 8}, {"t": 3.4, "dur": 0.184, "note": 82, "inst": "harpsichord_v0_additive_2", "vel": 1.0, "bend": 0.0, "ch": 2}, {"t": 3.584, "dur": 0.369, "note": 53, "inst": "celesta_v0_additive_3", "vel": 1.0, "bend": 0.0, "ch": 5}, {"t": 3.584, "dur": 0.184, "note": 79, "inst": "harpsichord_v0_additive_2", "vel": 1.0, "bend": 0.0, "ch": 15}, {"t": 3.769, "dur": 0.184, "note": 77, "inst": "celesta_v0_additive_3", "vel": 1.0, "bend": 0.0, "ch": 13}, {"t": 3.953, "dur": 0.369, "note": 36, "inst": "organ_v0_additive_1", "vel": 1.0, "bend": 0.0, "ch": 4}, {"t": 3.953, "dur": 0.184, "note": 77, "inst": "celesta_v0_additive_3", "vel": 1.0, "bend": 0.0, "ch": 13}, {"t": 4.138, "dur": 0.061, "note": 77, "inst": "celesta_v0_additive_3", "vel": 1.0, "bend": 0.0, "ch": 13}, {"t": 4.199, "dur": 0.061, "note": 79, "inst": "harpsichord_v0_additive_2", "vel": 1.0, "bend": 0.0, "ch": 15}, {"t": 4.26, "dur": 0.061, "note": 77, "inst": "celesta_v0_additive_3", "vel": 1.0, "bend": 0.0, "ch": 13}, {"t": 4.322, "dur": 0.369, "note": 48, "inst": "organ_v0_additive_1", "vel": 1.0, "bend": 0.0, "ch": 0}, {"t": 4.322, "dur": 0.184, "note": 77, "inst": "celesta_v0_additive_3", "vel": 1.0, "bend": 0.0, "ch": 13}, {"t": 4.506, "dur": 0.184, "note": 77, "inst": "celesta_v0_additive_3", "vel": 1.0, "bend": 0.0, "ch": 13}, {"t": 4.691, "dur": 0.369, "note": 43, "inst": "harpsichord_v0_additive_2", "vel": 1.0, "bend": 0.0, "ch": 11}, {"t": 4.691, "dur": 0.184, "note": 82, "inst": "harpsichord_v0_additive_2", "vel": 1.0, "bend": 0.0, "ch": 2}, {"t": 4.875, "dur": 0.184, "note": 79, "inst": "harpsichord_v0_additive_2", "vel": 1.0, "bend": 0.0, "ch": 15}, {"t": 5.059, "dur": 0.369, "note": 48, "inst": "organ_v0_additive_1", "vel": 1.0, "bend": 0.0, "ch": 0}, {"t": 5.059, "dur": 0.184, "note": 77, "inst": "celesta_v0_additive_3", "vel": 1.0, "bend": 0.0, "ch": 13}, {"t": 5.244, "dur": 0.184, "note": 75, "inst": "organ_v0_additive_1", "vel": 1.0, "bend": 0.0, "ch": 11}, {"t": 5.428, "dur": 0.369, "note": 36, "inst": "organ_v0_additive_1", "vel": 1.0, "bend": 0.0, "ch": 4}, {"t": 5.428, "dur": 0.184, "note": 75, "inst": "organ_v0_additive_1", "vel": 1.0, "bend": 0.0, "ch": 11}, {"t": 5.612, "dur": 0.061, "note": 75, "inst": "organ_v0_additive_1", "vel": 1.0, "bend": 0.0, "ch": 11}, {"t": 5.674, "dur": 0.061, "note": 77, "inst": "celesta_v0_additive_3", "vel": 1.0, "bend": 0.0, "ch": 13}, {"t": 5.735, "dur": 0.061, "note": 75, "inst": "organ_v0_additive_1", "vel": 1.0, "bend": 0.0, "ch": 11}, {"t": 5.797, "dur": 0.369, "note": 46, "inst": "harpsichord_v0_additive_2", "vel": 1.0, "bend": 0.0, "ch": 14}, {"t": 5.797, "dur": 0.184, "note": 75, "inst": "organ_v0_additive_1", "vel": 1.0, "bend": 0.0, "ch": 11}, {"t": 5.981, "dur": 0.184, "note": 77, "inst": "celesta_v0_additive_3", "vel": 1.0, "bend": 0.0, "ch": 13}, {"t": 6.165, "dur": 0.369, "note": 46, "inst": "harpsichord_v0_additive_2", "vel": 1.0, "bend": 0.0, "ch": 14}, {"t": 6.165, "dur": 0.184, "note": 75, "inst": "organ_v0_additive_1", "vel": 1.0, "bend": 0.0, "ch": 11}, {"t": 6.35, "dur": 0.184, "note": 72, "inst": "organ_v0_additive_1", "vel": 1.0, "bend": 0.0, "ch": 8}, {"t": 6.534, "dur": 0.369, "note": 36, "inst": "organ_v0_additive_1", "vel": 1.0, "bend": 0.0, "ch": 4}, {"t": 6.534, "dur": 0.184, "note": 60, "inst": "organ_v0_additive_1", "vel": 1.0, "bend": 0.0, "ch": 12}, {"t": 6.719, "dur": 0.184, "note": 84, "inst": "organ_v0_additive_1", "vel": 1.0, "bend": 0.0, "ch": 4}, {"t": 6.903, "dur": 0.369, "note": 36, "inst": "organ_v0_additive_1", "vel": 1.0, "bend": 0.0, "ch": 4}, {"t": 6.903, "dur": 0.184, "note": 72, "inst": "organ_v0_additive_1", "vel": 1.0, "bend": 0.0, "ch": 8}, {"t": 7.087, "dur": 0.061, "note": 72, "inst": "organ_v0_additive_1", "vel": 1.0, "bend": 0.0, "ch": 8}, {"t": 7.149, "dur": 0.061, "note": 75, "inst": "organ_v0_additive_1", "vel": 1.0, "bend": 0.0, "ch": 11}, {"t": 7.21, "dur": 0.061, "note": 72, "inst": "organ_v0_additive_1", "vel": 1.0, "bend": 0.0, "ch": 8}, {"t": 7.272, "dur": 0.369, "note": 36, "inst": "organ_v0_additive_1", "vel": 1.0, "bend": 0.0, "ch": 4}, {"t": 7.272, "dur": 0.184, "note": 60, "inst": "organ_v0_additive_1", "vel": 1.0, "bend": 0.0, "ch": 12}, {"t": 7.456, "dur": 0.184, "note": 79, "inst": "harpsichord_v0_additive_2", "vel": 1.0, "bend": 0.0, "ch": 15}, {"t": 7.64, "dur": 0.369, "note": 36, "inst": "organ_v0_additive_1", "vel": 1.0, "bend": 0.0, "ch": 4}, {"t": 7.64, "dur": 0.184, "note": 77, "inst": "celesta_v0_additive_3", "vel": 1.0, "bend": 0.0, "ch": 13}, {"t": 7.825, "dur": 0.184, "note": 60, "inst": "organ_v0_additive_1", "vel": 1.0, "bend": 0.0, "ch": 12}, {"t": 8.009, "dur": 0.369, "note": 51, "inst": "organ_v0_additive_1", "vel": 1.0, "bend": 0.0, "ch": 3}, {"t": 8.009, "dur": 0.369, "note": 75, "inst": "organ_v0_additive_1", "vel": 1.0, "bend": 0.0, "ch": 11}, {"t": 8.378, "dur": 0.184, "note": 87, "inst": "organ_v0_additive_1", "vel": 1.0, "bend": 0.0, "ch": 7}, {"t": 8.562, "dur": 0.061, "note": 87, "inst": "organ_v0_additive_1", "vel": 1.0, "bend": 0.0, "ch": 7}, {"t": 8.624, "dur": 0.061, "note": 89, "inst": "celesta_v0_additive_3", "vel": 1.0, "bend": 0.0, "ch": 9}, {"t": 8.685, "dur": 0.061, "note": 87, "inst": "organ_v0_additive_1", "vel": 1.0, "bend": 0.0, "ch": 7}, {"t": 8.746, "dur": 0.369, "note": 36, "inst": "organ_v0_additive_1", "vel": 1.0, "bend": 0.0, "ch": 4}, {"t": 8.746, "dur": 0.184, "note": 87, "inst": "organ_v0_additive_1", "vel": 1.0, "bend": 0.0, "ch": 7}, {"t": 8.931, "dur": 0.184, "note": 91, "inst": "harpsichord_v0_additive_2", "vel": 1.0, "bend": 0.0, "ch": 11}, {"t": 9.115, "dur": 0.369, "note": 41, "inst": "celesta_v0_additive_3", "vel": 1.0, "bend": 0.0, "ch": 9}, {"t": 9.115, "dur": 0.184, "note": 89, "inst": "celesta_v0_additive_3", "vel": 1.0, "bend": 0.0, "ch": 9}, {"t": 9.3, "dur": 0.061, "note": 84, "inst": "organ_v0_additive_1", "vel": 1.0, "bend": 0.0, "ch": 4}, {"t": 9.361, "dur": 0.061, "note": 87, "inst": "organ_v0_additive_1", "vel": 1.0, "bend": 0.0, "ch": 7}, {"t": 9.422, "dur": 0.061, "note": 84, "inst": "organ_v0_additive_1", "vel": 1.0, "bend": 0.0, "ch": 4}, {"t": 9.484, "dur": 0.369, "note": 36, "inst": "organ_v0_additive_1", "vel": 1.0, "bend": 0.0, "ch": 4}, {"t": 9.484, "dur": 0.184, "note": 72, "inst": "organ_v0_additive_1", "vel": 1.0, "bend": 0.0, "ch": 8}, {"t": 9.668, "dur": 0.184, "note": 87, "inst": "organ_v0_additive_1", "vel": 1.0, "bend": 0.0, "ch": 7}, {"t": 9.853, "dur": 0.369, "note": 41, "inst": "celesta_v0_additive_3", "vel": 1.0, "bend": 0.0, "ch": 9}, {"t": 9.853, "dur": 0.184, "note": 87, "inst": "organ_v0_additive_1", "vel": 1.0, "bend": 0.0, "ch": 7}, {"t": 10.037, "dur": 0.184, "note": 72, "inst": "organ_v0_additive_1", "vel": 1.0, "bend": 0.0, "ch": 8}, {"t": 10.221, "dur": 0.369, "note": 36, "inst": "organ_v0_additive_1", "vel": 1.0, "bend": 0.0, "ch": 4}, {"t": 10.221, "dur": 0.092, "note": 77, "inst": "celesta_v0_additive_3", "vel": 1.0, "bend": 0.0, "ch": 13}, {"t": 10.314, "dur": 0.092, "note": 75, "inst": "organ_v0_additive_1", "vel": 1.0, "bend": 0.0, "ch": 11}, {"t": 10.406, "dur": 0.092, "note": 77, "inst": "celesta_v0_additive_3", "vel": 1.0, "bend": 0.0, "ch": 13}, {"t": 10.498, "dur": 0.092, "note": 79, "inst": "harpsichord_v0_additive_2", "vel": 1.0, "bend": 0.0, "ch": 15}, {"t": 10.59, "dur": 0.369, "note": 41, "inst": "celesta_v0_additive_3", "vel": 1.0, "bend": 0.0, "ch": 9}, {"t": 10.59, "dur": 0.092, "note": 82, "inst": "harpsichord_v0_additive_2", "vel": 1.0, "bend": 0.0, "ch": 2}, {"t": 10.682, "dur": 0.092, "note": 72, "inst": "organ_v0_additive_1", "vel": 1.0, "bend": 0.0, "ch": 8}, {"t": 10.774, "dur": 0.092, "note": 84, "inst": "organ_v0_additive_1", "vel": 1.0, "bend": 0.0, "ch": 4}, {"t": 10.867, "dur": 0.092, "note": 87, "inst": "organ_v0_additive_1", "vel": 1.0, "bend": 0.0, "ch": 7}, {"t": 10.959, "dur": 0.369, "note": 48, "inst": "organ_v0_additive_1", "vel": 1.0, "bend": 0.0, "ch": 0}, {"t": 10.959, "dur": 0.369, "note": 87, "inst": "organ_v0_additive_1", "vel": 1.0, "bend": 0.0, "ch": 7}, {"t": 11.328, "dur": 0.369, "note": 41, "inst": "celesta_v0_additive_3", "vel": 1.0, "bend": 0.0, "ch": 9}, {"t": 11.512, "dur": 0.061, "note": 87, "inst": "organ_v0_additive_1", "vel": 1.0, "bend": 0.0, "ch": 7}, {"t": 11.573, "dur": 0.061, "note": 89, "inst": "celesta_v0_additive_3", "vel": 1.0, "bend": 0.0, "ch": 9}, {"t": 11.635, "dur": 0.061, "note": 87, "inst": "organ_v0_additive_1", "vel": 1.0, "bend": 0.0, "ch": 7}, {"t": 11.696, "dur": 0.369, "note": 48, "inst": "organ_v0_additive_1", "vel": 1.0, "bend": 0.0, "ch": 0}, {"t": 11.696, "dur": 0.184, "note": 84, "inst": "organ_v0_additive_1", "vel": 1.0, "bend": 0.0, "ch": 4}, {"t": 11.881, "dur": 0.184, "note": 91, "inst": "harpsichord_v0_additive_2", "vel": 1.0, "bend": 0.0, "ch": 11}, {"t": 12.065, "dur": 0.369, "note": 41, "inst": "celesta_v0_additive_3", "vel": 1.0, "bend": 0.0, "ch": 9}, {"t": 12.065, "dur": 0.184, "note": 89, "inst": "celesta_v0_additive_3", "vel": 1.0, "bend": 0.0, "ch": 9}, {"t": 12.249, "dur": 0.061, "note": 84, "inst": "organ_v0_additive_1", "vel": 1.0, "bend": 0.0, "ch": 4}, {"t": 12.311, "dur": 0.061, "note": 87, "inst": "organ_v0_additive_1", "vel": 1.0, "bend": 0.0, "ch": 7}, {"t": 12.372, "dur": 0.061, "note": 84, "inst": "organ_v0_additive_1", "vel": 1.0, "bend": 0.0, "ch": 4}, {"t": 12.434, "dur": 0.369, "note": 48, "inst": "organ_v0_additive_1", "vel": 1.0, "bend": 0.0, "ch": 0}, {"t": 12.434, "dur": 0.184, "note": 82, "inst": "harpsichord_v0_additive_2", "vel": 1.0, "bend": 0.0, "ch": 2}, {"t": 12.618, "dur": 0.184, "note": 87, "inst": "organ_v0_additive_1", "vel": 1.0, "bend": 0.0, "ch": 7}, {"t": 12.802, "dur": 0.369, "note": 41, "inst": "celesta_v0_additive_3", "vel": 1.0, "bend": 0.0, "ch": 9}, {"t": 12.802, "dur": 0.184, "note": 84, "inst": "organ_v0_additive_1", "vel": 1.0, "bend": 0.0, "ch": 4}, {"t": 12.987, "dur": 0.184, "note": 82, "inst": "harpsichord_v0_additive_2", "vel": 1.0, "bend": 0.0, "ch": 2}, {"t": 13.171, "dur": 0.369, "note": 46, "inst": "harpsichord_v0_additive_2", "vel": 1.0, "bend": 0.0, "ch": 14}, {"t": 13.171, "dur": 0.092, "note": 77, "inst": "celesta_v0_additive_3", "vel": 1.0, "bend": 0.0, "ch": 13}, {"t": 13.263, "dur": 0.092, "note": 77, "inst": "celesta_v0_additive_3", "vel": 1.0, "bend": 0.0, "ch": 13}, {"t": 13.355, "dur": 0.092, "note": 77, "inst": "celesta_v0_additive_3", "vel": 1.0, "bend": 0.0, "ch": 13}, {"t": 13.448, "dur": 0.092, "note": 79, "inst": "harpsichord_v0_additive_2", "vel": 1.0, "bend": 0.0, "ch": 15}, {"t": 13.54, "dur": 0.369, "note": 41, "inst": "celesta_v0_additive_3", "vel": 1.0, "bend": 0.0, "ch": 9}, {"t": 13.54, "dur": 0.092, "note": 82, "inst": "harpsichord_v0_additive_2", "vel": 1.0, "bend": 0.0, "ch": 2}, {"t": 13.632, "dur": 0.092, "note": 72, "inst": "organ_v0_additive_1", "vel": 1.0, "bend": 0.0, "ch": 8}, {"t": 13.724, "dur": 0.092, "note": 84, "inst": "organ_v0_additive_1", "vel": 1.0, "bend": 0.0, "ch": 4}, {"t": 13.816, "dur": 0.092, "note": 87, "inst": "organ_v0_additive_1", "vel": 1.0, "bend": 0.0, "ch": 7}, {"t": 13.909, "dur": 0.369, "note": 36, "inst": "organ_v0_additive_1", "vel": 1.0, "bend": 0.0, "ch": 4}, {"t": 13.909, "dur": 0.369, "note": 87, "inst": "organ_v0_additive_1", "vel": 1.0, "bend": 0.0, "ch": 7}, {"t": 14.277, "dur": 0.369, "note": 41, "inst": "celesta_v0_additive_3", "vel": 1.0, "bend": 0.0, "ch": 9}, {"t": 14.646, "dur": 0.369, "note": 36, "inst": "organ_v0_additive_1", "vel": 1.0, "bend": 0.0, "ch": 4}, {"t": 14.646, "dur": 0.184, "note": 87, "inst": "organ_v0_additive_1", "vel": 1.0, "bend": 0.0, "ch": 7}, {"t": 14.83, "dur": 0.184, "note": 91, "inst": "harpsichord_v0_additive_2", "vel": 1.0, "bend": 0.0, "ch": 11}, {"t": 15.015, "dur": 0.369, "note": 41, "inst": "celesta_v0_additive_3", "vel": 1.0, "bend": 0.0, "ch": 9}, {"t": 15.015, "dur": 0.184, "note": 89, "inst": "celesta_v0_additive_3", "vel": 1.0, "bend": 0.0, "ch": 9}, {"t": 15.199, "dur": 0.061, "note": 84, "inst": "organ_v0_additive_1", "vel": 1.0, "bend": 0.0, "ch": 4}, {"t": 15.261, "dur": 0.061, "note": 87, "inst": "organ_v0_additive_1", "vel": 1.0, "bend": 0.0, "ch": 7}, {"t": 15.322, "dur": 0.061, "note": 84, "inst": "organ_v0_additive_1", "vel": 1.0, "bend": 0.0, "ch": 4}, {"t": 15.383, "dur": 0.369, "note": 36, "inst": "organ_v0_additive_1", "vel": 1.0, "bend": 0.0, "ch": 4}, {"t": 15.383, "dur": 0.184, "note": 72, "inst": "organ_v0_additive_1", "vel": 1.0, "bend": 0.0, "ch": 8}, {"t": 15.568, "dur": 0.184, "note": 87, "inst": "organ_v0_additive_1", "vel": 1.0, "bend": 0.0, "ch": 7}, {"t": 15.752, "dur": 0.369, "note": 41, "inst": "celesta_v0_additive_3", "vel": 1.0, "bend": 0.0, "ch": 9}, {"t": 15.752, "dur": 0.184, "note": 87, "inst": "organ_v0_additive_1", "vel": 1.0, "bend": 0.0, "ch": 7}, {"t": 15.936, "dur": 0.184, "note": 72, "inst": "organ_v0_additive_1", "vel": 1.0, "bend": 0.0, "ch": 8}, {"t": 16.121, "dur": 0.369, "note": 36, "inst": "organ_v0_additive_1", "vel": 1.0, "bend": 0.0, "ch": 4}, {"t": 16.121, "dur": 0.092, "note": 77, "inst": "celesta_v0_additive_3", "vel": 1.0, "bend": 0.0, "ch": 13}, {"t": 16.213, "dur": 0.092, "note": 79, "inst": "harpsichord_v0_additive_2", "vel": 1.0, "bend": 0.0, "ch": 15}, {"t": 16.305, "dur": 0.092, "note": 82, "inst": "harpsichord_v0_additive_2", "vel": 1.0, "bend": 0.0, "ch": 2}, {"t": 16.397, "dur": 0.092, "note": 72, "inst": "organ_v0_additive_1", "vel": 1.0, "bend": 0.0, "ch": 8}, {"t": 16.49, "dur": 0.369, "note": 41, "inst": "celesta_v0_additive_3", "vel": 1.0, "bend": 0.0, "ch": 9}, {"t": 16.49, "dur": 0.092, "note": 84, "inst": "organ_v0_additive_1", "vel": 1.0, "bend": 0.0, "ch": 4}, {"t": 16.582, "dur": 0.092, "note": 87, "inst": "organ_v0_additive_1", "vel": 1.0, "bend": 0.0, "ch": 7}, {"t": 16.674, "dur": 0.092, "note": 87, "inst": "organ_v0_additive_1", "vel": 1.0, "bend": 0.0, "ch": 7}, {"t": 16.766, "dur": 0.092, "note": 89, "inst": "celesta_v0_additive_3", "vel": 1.0, "bend": 0.0, "ch": 9}, {"t": 16.858, "dur": 0.369, "note": 51, "inst": "organ_v0_additive_1", "vel": 1.0, "bend": 0.0, "ch": 3}, {"t": 16.858, "dur": 0.369, "note": 91, "inst": "harpsichord_v0_additive_2", "vel": 1.0, "bend": 0.0, "ch": 11}, {"t": 17.227, "dur": 0.369, "note": 51, "inst": "organ_v0_additive_1", "vel": 1.0, "bend": 0.0, "ch": 3}, {"t": 17.596, "dur": 0.369, "note": 51, "inst": "organ_v0_additive_1", "vel": 1.0, "bend": 0.0, "ch": 3}, {"t": 17.596, "dur": 0.184, "note": 79, "inst": "harpsichord_v0_additive_2", "vel": 1.0, "bend": 0.0, "ch": 15}, {"t": 17.78, "dur": 0.184, "note": 87, "inst": "organ_v0_additive_1", "vel": 1.0, "bend": 0.0, "ch": 7}, {"t": 17.964, "dur": 0.369, "note": 51, "inst": "organ_v0_additive_1", "vel": 1.0, "bend": 0.0, "ch": 3}, {"t": 17.964, "dur": 0.184, "note": 84, "inst": "organ_v0_additive_1", "vel": 1.0, "bend": 0.0, "ch": 4}, {"t": 18.149, "dur": 0.184, "note": 79, "inst": "harpsichord_v0_additive_2", "vel": 1.0, "bend": 0.0, "ch": 15}, {"t": 18.333, "dur": 0.369, "note": 53, "inst": "celesta_v0_additive_3", "vel": 1.0, "bend": 0.0, "ch": 5}, {"t": 18.333, "dur": 0.184, "note": 77, "inst": "celesta_v0_additive_3", "vel": 1.0, "bend": 0.0, "ch": 13}, {"t": 18.518, "dur": 0.184, "note": 84, "inst": "organ_v0_additive_1", "vel": 1.0, "bend": 0.0, "ch": 4}, {"t": 18.702, "dur": 0.369, "note": 53, "inst": "celesta_v0_additive_3", "vel": 1.0, "bend": 0.0, "ch": 5}, {"t": 18.702, "dur": 0.184, "note": 72, "inst": "organ_v0_additive_1", "vel": 1.0, "bend": 0.0, "ch": 8}, {"t": 18.886, "dur": 0.184, "note": 60, "inst": "organ_v0_additive_1", "vel": 1.0, "bend": 0.0, "ch": 12}, {"t": 19.071, "dur": 0.369, "note": 53, "inst": "celesta_v0_additive_3", "vel": 1.0, "bend": 0.0, "ch": 5}, {"t": 19.071, "dur": 0.184, "note": 70, "inst": "harpsichord_v0_additive_2", "vel": 1.0, "bend": 0.0, "ch": 6}, {"t": 19.255, "dur": 0.184, "note": 79, "inst": "harpsichord_v0_additive_2", "vel": 1.0, "bend": 0.0, "ch": 15}, {"t": 19.439, "dur": 0.369, "note": 53, "inst": "celesta_v0_additive_3", "vel": 1.0, "bend": 0.0, "ch": 5}, {"t": 19.439, "dur": 0.184, "note": 77, "inst": "celesta_v0_additive_3", "vel": 1.0, "bend": 0.0, "ch": 13}, {"t": 19.624, "dur": 0.184, "note": 70, "inst": "harpsichord_v0_additive_2", "vel": 1.0, "bend": 0.0, "ch": 6}, {"t": 19.808, "dur": 0.369, "note": 36, "inst": "organ_v0_additive_1", "vel": 1.0, "bend": 0.0, "ch": 4}, {"t": 19.808, "dur": 0.369, "note": 60, "inst": "organ_v0_additive_1", "vel": 1.0, "bend": 0.0, "ch": 12}, {"t": 20.177, "dur": 0.184, "note": 72, "inst": "organ_v0_additive_1", "vel": 1.0, "bend": 0.0, "ch": 8}, {"t": 42.008, "dur": 0.13, "note": 61, "inst": "harpsichord_v0_additive_2", "vel": 0.677, "bend": 0.0, "ch": 13}, {"t": 42.139, "dur": 0.13, "note": 49, "inst": "harpsichord_v0_additive_2", "vel": 0.512, "bend": 0.0, "ch": 1}, {"t": 42.269, "dur": 0.13, "note": 61, "inst": "harpsichord_v0_additive_2", "vel": 0.669, "bend": 0.0, "ch": 13}, {"t": 42.4, "dur": 0.13, "note": 49, "inst": "harpsichord_v0_additive_2", "vel": 0.535, "bend": 0.0, "ch": 1}, {"t": 42.53, "dur": 0.13, "note": 61, "inst": "harpsichord_v0_additive_2", "vel": 0.638, "bend": 0.0, "ch": 13}, {"t": 42.661, "dur": 0.13, "note": 49, "inst": "harpsichord_v0_additive_2", "vel": 0.512, "bend": 0.0, "ch": 1}, {"t": 42.661, "dur": 2.088, "note": 73, "inst": "harpsichord_v0_additive_2", "vel": 0.52, "bend": 0.0, "ch": 9}, {"t": 42.791, "dur": 0.13, "note": 61, "inst": "harpsichord_v0_additive_2", "vel": 0.654, "bend": 0.0, "ch": 13}, {"t": 42.921, "dur": 0.13, "note": 49, "inst": "harpsichord_v0_additive_2", "vel": 0.535, "bend": 0.0, "ch": 1}, {"t": 43.052, "dur": 0.13, "note": 61, "inst": "harpsichord_v0_additive_2", "vel": 0.693, "bend": 0.0, "ch": 13}, {"t": 43.182, "dur": 0.13, "note": 49, "inst": "harpsichord_v0_additive_2", "vel": 0.496, "bend": 0.0, "ch": 1}, {"t": 43.313, "dur": 0.13, "note": 61, "inst": "harpsichord_v0_additive_2", "vel": 0.669, "bend": 0.0, "ch": 13}, {"t": 43.443, "dur": 0.13, "note": 49, "inst": "harpsichord_v0_additive_2", "vel": 0.535, "bend": 0.0, "ch": 1}, {"t": 43.574, "dur": 0.13, "note": 61, "inst": "harpsichord_v0_additive_2", "vel": 0.685, "bend": 0.0, "ch": 13}, {"t": 43.704, "dur": 0.13, "note": 49, "inst": "harpsichord_v0_additive_2", "vel": 0.528, "bend": 0.0, "ch": 1}, {"t": 43.835, "dur": 0.13, "note": 61, "inst": "harpsichord_v0_additive_2", "vel": 0.669, "bend": 0.0, "ch": 13}, {"t": 43.965, "dur": 0.13, "note": 49, "inst": "harpsichord_v0_additive_2", "vel": 0.543, "bend": 0.0, "ch": 1}, {"t": 44.096, "dur": 0.13, "note": 61, "inst": "harpsichord_v0_additive_2", "vel": 0.646, "bend": 0.0, "ch": 13}, {"t": 44.226, "dur": 0.13, "note": 49, "inst": "harpsichord_v0_additive_2", "vel": 0.543, "bend": 0.0, "ch": 1}, {"t": 44.357, "dur": 0.13, "note": 61, "inst": "harpsichord_v0_additive_2", "vel": 0.693, "bend": 0.0, "ch": 13}, {"t": 44.487, "dur": 0.13, "note": 49, "inst": "harpsichord_v0_additive_2", "vel": 0.535, "bend": 0.0, "ch": 1}, {"t": 44.618, "dur": 0.13, "note": 61, "inst": "harpsichord_v0_additive_2", "vel": 0.646, "bend": 0.0, "ch": 13}, {"t": 44.748, "dur": 0.13, "note": 49, "inst": "harpsichord_v0_additive_2", "vel": 0.535, "bend": 0.0, "ch": 1}, {"t": 44.748, "dur": 2.088, "note": 69, "inst": "organ_v0_additive_1", "vel": 0.701, "bend": 0.0, "ch": 5}, {"t": 44.879, "dur": 0.13, "note": 61, "inst": "harpsichord_v0_additive_2", "vel": 0.646, "bend": 0.0, "ch": 13}, {"t": 45.009, "dur": 0.13, "note": 49, "inst": "harpsichord_v0_additive_2", "vel": 0.559, "bend": 0.0, "ch": 1}, {"t": 45.14, "dur": 0.13, "note": 61, "inst": "harpsichord_v0_additive_2", "vel": 0.677, "bend": 0.0, "ch": 13}, {"t": 45.27, "dur": 0.13, "note": 49, "inst": "harpsichord_v0_additive_2", "vel": 0.535, "bend": 0.0, "ch": 1}, {"t": 45.401, "dur": 0.13, "note": 61, "inst": "harpsichord_v0_additive_2", "vel": 0.701, "bend": 0.0, "ch": 13}, {"t": 45.531, "dur": 0.13, "note": 49, "inst": "harpsichord_v0_additive_2", "vel": 0.543, "bend": 0.0, "ch": 1}, {"t": 45.661, "dur": 0.13, "note": 61, "inst": "harpsichord_v0_additive_2", "vel": 0.709, "bend": 0.0, "ch": 13}, {"t": 45.792, "dur": 0.13, "note": 49, "inst": "harpsichord_v0_additive_2", "vel": 0.496, "bend": 0.0, "ch": 1}, {"t": 45.922, "dur": 0.13, "note": 61, "inst": "harpsichord_v0_additive_2", "vel": 0.693, "bend": 0.0, "ch": 13}, {"t": 46.053, "dur": 0.13, "note": 49, "inst": "harpsichord_v0_additive_2", "vel": 0.504, "bend": 0.0, "ch": 1}, {"t": 46.183, "dur": 0.13, "note": 61, "inst": "harpsichord_v0_additive_2", "vel": 0.669, "bend": 0.0, "ch": 13}, {"t": 46.314, "dur": 0.13, "note": 49, "inst": "harpsichord_v0_additive_2", "vel": 0.559, "bend": 0.0, "ch": 1}, {"t": 46.444, "dur": 0.13, "note": 61, "inst": "harpsichord_v0_additive_2", "vel": 0.669, "bend": 0.0, "ch": 13}, {"t": 46.575, "dur": 0.13, "note": 49, "inst": "harpsichord_v0_additive_2", "vel": 0.488, "bend": 0.0, "ch": 1}, {"t": 46.705, "dur": 0.13, "note": 61, "inst": "harpsichord_v0_additive_2", "vel": 0.646, "bend": 0.0, "ch": 13}, {"t": 46.836, "dur": 0.13, "note": 49, "inst": "harpsichord_v0_additive_2", "vel": 0.528, "bend": 0.0, "ch": 1}, {"t": 46.836, "dur": 1.566, "note": 85, "inst": "harpsichord_v0_additive_2", "vel": 0.685, "bend": 0.0, "ch": 5}, {"t": 46.966, "dur": 0.13, "note": 61, "inst": "harpsichord_v0_additive_2", "vel": 0.669, "bend": 0.0, "ch": 13}, {"t": 47.097, "dur": 0.13, "note": 49, "inst": "harpsichord_v0_additive_2", "vel": 0.543, "bend": 0.0, "ch": 1}, {"t": 47.227, "dur": 0.13, "note": 61, "inst": "harpsichord_v0_additive_2", "vel": 0.638, "bend": 0.0, "ch": 13}, {"t": 47.358, "dur": 0.13, "note": 49, "inst": "harpsichord_v0_additive_2", "vel": 0.528, "bend": 0.0, "ch": 1}, {"t": 47.488, "dur": 0.13, "note": 61, "inst": "harpsichord_v0_additive_2", "vel": 0.685, "bend": 0.0, "ch": 13}, {"t": 47.619, "dur": 0.13, "note": 49, "inst": "harpsichord_v0_additive_2", "vel": 0.535, "bend": 0.0, "ch": 1}, {"t": 47.749, "dur": 0.13, "note": 61, "inst": "harpsichord_v0_additive_2", "vel": 0.654, "bend": 0.0, "ch": 13}, {"t": 47.88, "dur": 0.13, "note": 49, "inst": "harpsichord_v0_additive_2", "vel": 0.543, "bend": 0.0, "ch": 1}, {"t": 48.01, "dur": 0.13, "note": 61, "inst": "harpsichord_v0_additive_2", "vel": 0.646, "bend": 0.0, "ch": 13}, {"t": 48.141, "dur": 0.13, "note": 49, "inst": "harpsichord_v0_additive_2", "vel": 0.535, "bend": 0.0, "ch": 1}, {"t": 48.271, "dur": 0.13, "note": 61, "inst": "harpsichord_v0_additive_2", "vel": 0.661, "bend": 0.0, "ch": 13}, {"t": 48.401, "dur": 0.13, "note": 49, "inst": "harpsichord_v0_additive_2", "vel": 0.528, "bend": 0.0, "ch": 1}, {"t": 48.532, "dur": 0.13, "note": 61, "inst": "harpsichord_v0_additive_2", "vel": 0.646, "bend": 0.0, "ch": 13}, {"t": 48.662, "dur": 0.13, "note": 49, "inst": "harpsichord_v0_additive_2", "vel": 0.512, "bend": 0.0, "ch": 1}, {"t": 48.662, "dur": 0.261, "note": 76, "inst": "harpsichord_v0_additive_2", "vel": 0.551, "bend": 0.0, "ch": 12}, {"t": 48.662, "dur": 0.261, "note": 69, "inst": "organ_v0_additive_1", "vel": 0.551, "bend": 0.0, "ch": 5}, {"t": 48.662, "dur": 0.261, "note": 85, "inst": "harpsichord_v0_additive_2", "vel": 0.551, "bend": 0.0, "ch": 5}, {"t": 48.793, "dur": 0.13, "note": 61, "inst": "harpsichord_v0_additive_2", "vel": 0.669, "bend": 0.0, "ch": 13}, {"t": 48.923, "dur": 0.13, "note": 49, "inst": "harpsichord_v0_additive_2", "vel": 0.559, "bend": 0.0, "ch": 1}, {"t": 48.923, "dur": 4.175, "note": 76, "inst": "harpsichord_v0_additive_2", "vel": 0.575, "bend": 0.0, "ch": 12}, {"t": 48.923, "dur": 4.175, "note": 69, "inst": "organ_v0_additive_1", "vel": 0.575, "bend": 0.0, "ch": 5}, {"t": 48.923, "dur": 4.175, "note": 85, "inst": "harpsichord_v0_additive_2", "vel": 0.575, "bend": 0.0, "ch": 5}, {"t": 49.054, "dur": 0.13, "note": 61, "inst": "harpsichord_v0_additive_2", "vel": 0.685, "bend": 0.0, "ch": 13}, {"t": 49.184, "dur": 0.13, "note": 49, "inst": "harpsichord_v0_additive_2", "vel": 0.535, "bend": 0.0, "ch": 1}, {"t": 49.315, "dur": 0.13, "note": 61, "inst": "harpsichord_v0_additive_2", "vel": 0.677, "bend": 0.0, "ch": 13}, {"t": 49.445, "dur": 0.13, "note": 49, "inst": "harpsichord_v0_additive_2", "vel": 0.52, "bend": 0.0, "ch": 1}, {"t": 49.576, "dur": 0.13, "note": 61, "inst": "harpsichord_v0_additive_2", "vel": 0.661, "bend": 0.0, "ch": 13}, {"t": 49.706, "dur": 0.13, "note": 49, "inst": "harpsichord_v0_additive_2", "vel": 0.512, "bend": 0.0, "ch": 1}, {"t": 49.837, "dur": 0.13, "note": 61, "inst": "harpsichord_v0_additive_2", "vel": 0.677, "bend": 0.0, "ch": 13}, {"t": 49.967, "dur": 0.13, "note": 49, "inst": "harpsichord_v0_additive_2", "vel": 0.551, "bend": 0.0, "ch": 1}, {"t": 50.098, "dur": 0.13, "note": 61, "inst": "harpsichord_v0_additive_2", "vel": 0.677, "bend": 0.0, "ch": 13}, {"t": 50.228, "dur": 0.13, "note": 49, "inst": "harpsichord_v0_additive_2", "vel": 0.504, "bend": 0.0, "ch": 1}, {"t": 50.359, "dur": 0.13, "note": 61, "inst": "harpsichord_v0_additive_2", "vel": 0.685, "bend": 0.0, "ch": 13}, {"t": 50.489, "dur": 0.13, "note": 49, "inst": "harpsichord_v0_additive_2", "vel": 0.488, "bend": 0.0, "ch": 1}, {"t": 50.62, "dur": 0.13, "note": 61, "inst": "harpsichord_v0_additive_2", "vel": 0.693, "bend": 0.0, "ch": 13}, {"t": 50.75, "dur": 0.13, "note": 49, "inst": "harpsichord_v0_additive_2", "vel": 0.512, "bend": 0.0, "ch": 1}, {"t": 50.881, "dur": 0.13, "note": 61, "inst": "harpsichord_v0_additive_2", "vel": 0.661, "bend": 0.0, "ch": 13}, {"t": 51.011, "dur": 0.261, "note": 49, "inst": "harpsichord_v0_additive_2", "vel": 0.598, "bend": 0.0, "ch": 1}, {"t": 51.011, "dur": 0.261, "note": 61, "inst": "harpsichord_v0_additive_2", "vel": 0.598, "bend": 0.0, "ch": 13}, {"t": 51.272, "dur": 0.261, "note": 33, "inst": "organ_v0_additive_1", "vel": 0.559, "bend": 0.0, "ch": 1}, {"t": 51.272, "dur": 0.261, "note": 45, "inst": "organ_v0_additive_1", "vel": 0.559, "bend": 0.0, "ch": 13}, {"t": 51.533, "dur": 0.261, "note": 49, "inst": "harpsichord_v0_additive_2", "vel": 0.638, "bend": 0.0, "ch": 1}, {"t": 51.533, "dur": 0.261, "note": 61, "inst": "harpsichord_v0_additive_2", "vel": 0.638, "bend": 0.0, "ch": 13}, {"t": 51.794, "dur": 0.261, "note": 33, "inst": "organ_v0_additive_1", "vel": 0.559, "bend": 0.0, "ch": 1}, {"t": 51.794, "dur": 0.261, "note": 45, "inst": "organ_v0_additive_1", "vel": 0.559, "bend": 0.0, "ch": 13}, {"t": 52.055, "dur": 0.261, "note": 49, "inst": "harpsichord_v0_additive_2", "vel": 0.654, "bend": 0.0, "ch": 1}, {"t": 52.055, "dur": 0.261, "note": 61, "inst": "harpsichord_v0_additive_2", "vel": 0.654, "bend": 0.0, "ch": 13}, {"t": 52.316, "dur": 0.261, "note": 33, "inst": "organ_v0_additive_1", "vel": 0.559, "bend": 0.0, "ch": 1}, {"t": 52.316, "dur": 0.261, "note": 45, "inst": "organ_v0_additive_1", "vel": 0.559, "bend": 0.0, "ch": 13}, {"t": 52.577, "dur": 0.261, "note": 49, "inst": "harpsichord_v0_additive_2", "vel": 0.622, "bend": 0.0, "ch": 1}, {"t": 52.577, "dur": 0.261, "note": 61, "inst": "harpsichord_v0_additive_2", "vel": 0.622, "bend": 0.0, "ch": 13}, {"t": 52.838, "dur": 0.261, "note": 33, "inst": "organ_v0_additive_1", "vel": 0.567, "bend": 0.0, "ch": 1}, {"t": 52.838, "dur": 0.261, "note": 45, "inst": "organ_v0_additive_1", "vel": 0.567, "bend": 0.0, "ch": 13}, {"t": 53.099, "dur": 0.13, "note": 49, "inst": "harpsichord_v0_additive_2", "vel": 0.543, "bend": 0.0, "ch": 1}, {"t": 53.099, "dur": 2.088, "note": 73, "inst": "harpsichord_v0_additive_2", "vel": 0.433, "bend": 0.0, "ch": 9}, {"t": 53.229, "dur": 0.13, "note": 61, "inst": "harpsichord_v0_additive_2", "vel": 0.677, "bend": 0.0, "ch": 13}, {"t": 53.36, "dur": 0.13, "note": 49, "inst": "harpsichord_v0_additive_2", "vel": 0.535, "bend": 0.0, "ch": 1}, {"t": 53.49, "dur": 0.13, "note": 61, "inst": "harpsichord_v0_additive_2", "vel": 0.646, "bend": 0.0, "ch": 13}, {"t": 53.62, "dur": 0.13, "note": 49, "inst": "harpsichord_v0_additive_2", "vel": 0.543, "bend": 0.0, "ch": 1}, {"t": 53.751, "dur": 0.13, "note": 61, "inst": "harpsichord_v0_additive_2", "vel": 0.646, "bend": 0.0, "ch": 13}, {"t": 53.881, "dur": 0.13, "note": 49, "inst": "harpsichord_v0_additive_2", "vel": 0.535, "bend": 0.0, "ch": 1}, {"t": 54.012, "dur": 0.13, "note": 61, "inst": "harpsichord_v0_additive_2", "vel": 0.669, "bend": 0.0, "ch": 13}, {"t": 54.142, "dur": 0.13, "note": 49, "inst": "harpsichord_v0_additive_2", "vel": 0.496, "bend": 0.0, "ch": 1}, {"t": 54.273, "dur": 0.13, "note": 61, "inst": "harpsichord_v0_additive_2", "vel": 0.654, "bend": 0.0, "ch": 13}, {"t": 54.403, "dur": 0.13, "note": 49, "inst": "harpsichord_v0_additive_2", "vel": 0.512, "bend": 0.0, "ch": 1}, {"t": 54.534, "dur": 0.13, "note": 61, "inst": "harpsichord_v0_additive_2", "vel": 0.646, "bend": 0.0, "ch": 13}, {"t": 54.664, "dur": 0.13, "note": 49, "inst": "harpsichord_v0_additive_2", "vel": 0.535, "bend": 0.0, "ch": 1}, {"t": 54.795, "dur": 0.13, "note": 61, "inst": "harpsichord_v0_additive_2", "vel": 0.646, "bend": 0.0, "ch": 13}, {"t": 54.925, "dur": 0.13, "note": 49, "inst": "harpsichord_v0_additive_2", "vel": 0.535, "bend": 0.0, "ch": 1}, {"t": 55.056, "dur": 0.13, "note": 61, "inst": "harpsichord_v0_additive_2", "vel": 0.622, "bend": 0.0, "ch": 13}, {"t": 55.186, "dur": 0.13, "note": 49, "inst": "harpsichord_v0_additive_2", "vel": 0.52, "bend": 0.0, "ch": 1}, {"t": 55.186, "dur": 2.088, "note": 69, "inst": "organ_v0_additive_1", "vel": 0.677, "bend": 0.0, "ch": 5}, {"t": 55.317, "dur": 0.13, "note": 61, "inst": "harpsichord_v0_additive_2", "vel": 0.693, "bend": 0.0, "ch": 13}, {"t": 55.447, "dur": 0.13, "note": 49, "inst": "harpsichord_v0_additive_2", "vel": 0.512, "bend": 0.0, "ch": 1}, {"t": 55.578, "dur": 0.13, "note": 61, "inst": "harpsichord_v0_additive_2", "vel": 0.693, "bend": 0.0, "ch": 13}, {"t": 55.708, "dur": 0.13, "note": 49, "inst": "harpsichord_v0_additive_2", "vel": 0.496, "bend": 0.0, "ch": 1}, {"t": 55.839, "dur": 0.13, "note": 61, "inst": "harpsichord_v0_additive_2", "vel": 0.654, "bend": 0.0, "ch": 13}, {"t": 55.969, "dur": 0.13, "note": 49, "inst": "harpsichord_v0_additive_2", "vel": 0.528, "bend": 0.0, "ch": 1}, {"t": 56.1, "dur": 0.13, "note": 61, "inst": "harpsichord_v0_additive_2", "vel": 0.646, "bend": 0.0, "ch": 13}, {"t": 56.23, "dur": 0.13, "note": 49, "inst": "harpsichord_v0_additive_2", "vel": 0.496, "bend": 0.0, "ch": 1}, {"t": 56.36, "dur": 0.13, "note": 61, "inst": "harpsichord_v0_additive_2", "vel": 0.63, "bend": 0.0, "ch": 13}, {"t": 56.491, "dur": 0.13, "note": 49, "inst": "harpsichord_v0_additive_2", "vel": 0.528, "bend": 0.0, "ch": 1}, {"t": 56.621, "dur": 0.13, "note": 61, "inst": "harpsichord_v0_additive_2", "vel": 0.677, "bend": 0.0, "ch": 13}, {"t": 56.752, "dur": 0.13, "note": 49, "inst": "harpsichord_v0_additive_2", "vel": 0.488, "bend": 0.0, "ch": 1}, {"t": 56.882, "dur": 0.13, "note": 61, "inst": "harpsichord_v0_additive_2", "vel": 0.685, "bend": 0.0, "ch": 13}, {"t": 57.013, "dur": 0.13, "note": 49, "inst": "harpsichord_v0_additive_2", "vel": 0.52, "bend": 0.0, "ch": 1}, {"t": 57.143, "dur": 0.13, "note": 61, "inst": "harpsichord_v0_additive_2", "vel": 0.654, "bend": 0.0, "ch": 13}, {"t": 57.274, "dur": 0.13, "note": 49, "inst": "harpsichord_v0_additive_2", "vel": 0.52, "bend": 0.0, "ch": 1}, {"t": 57.274, "dur": 1.566, "note": 85, "inst": "harpsichord_v0_additive_2", "vel": 0.669, "bend": 0.0, "ch": 5}, {"t": 57.404, "dur": 0.13, "note": 61, "inst": "harpsichord_v0_additive_2", "vel": 0.669, "bend": 0.0, "ch": 13}, {"t": 57.535, "dur": 0.13, "note": 49, "inst": "harpsichord_v0_additive_2", "vel": 0.48, "bend": 0.0, "ch": 1}, {"t": 57.665, "dur": 0.13, "note": 61, "inst": "harpsichord_v0_additive_2", "vel": 0.669, "bend": 0.0, "ch": 13}, {"t": 57.796, "dur": 0.13, "note": 49, "inst": "harpsichord_v0_additive_2", "vel": 0.496, "bend": 0.0, "ch": 1}, {"t": 57.926, "dur": 0.13, "note": 61, "inst": "harpsichord_v0_additive_2", "vel": 0.669, "bend": 0.0, "ch": 13}, {"t": 58.057, "dur": 0.13, "note": 49, "inst": "harpsichord_v0_additive_2", "vel": 0.52, "bend": 0.0, "ch": 1}, {"t": 58.187, "dur": 0.13, "note": 61, "inst": "harpsichord_v0_additive_2", "vel": 0.677, "bend": 0.0, "ch": 13}, {"t": 58.318, "dur": 0.13, "note": 49, "inst": "harpsichord_v0_additive_2", "vel": 0.543, "bend": 0.0, "ch": 1}, {"t": 58.448, "dur": 0.13, "note": 61, "inst": "harpsichord_v0_additive_2", "vel": 0.646, "bend": 0.0, "ch": 13}, {"t": 58.579, "dur": 0.13, "note": 49, "inst": "harpsichord_v0_additive_2", "vel": 0.496, "bend": 0.0, "ch": 1}, {"t": 126.154, "dur": 0.361, "note": 48, "inst": "organ_v0_additive_1", "vel": 0.709, "bend": 0.0, "ch": 0}, {"t": 126.154, "dur": 0.361, "note": 48, "inst": "organ_v0_additive_1", "vel": 0.709, "bend": 0.0, "ch": 0}, {"t": 126.154, "dur": 0.361, "note": 63, "inst": "organ_v0_additive_1", "vel": 0.709, "bend": 0.0, "ch": 15}, {"t": 126.514, "dur": 0.361, "note": 48, "inst": "organ_v0_additive_1", "vel": 0.709, "bend": 0.0, "ch": 0}, {"t": 126.514, "dur": 0.361, "note": 48, "inst": "organ_v0_additive_1", "vel": 0.709, "bend": 0.0, "ch": 0}, {"t": 126.514, "dur": 0.721, "note": 55, "inst": "harpsichord_v0_additive_2", "vel": 0.709, "bend": 0.0, "ch": 7}, {"t": 126.875, "dur": 0.361, "note": 36, "inst": "organ_v0_additive_1", "vel": 0.709, "bend": 0.0, "ch": 4}, {"t": 126.875, "dur": 0.361, "note": 43, "inst": "harpsichord_v0_additive_2", "vel": 0.709, "bend": 0.0, "ch": 11}, {"t": 126.875, "dur": 0.721, "note": 65, "inst": "celesta_v0_additive_3", "vel": 0.709, "bend": 0.0, "ch": 1}, {"t": 127.235, "dur": 0.721, "note": 48, "inst": "organ_v0_additive_1", "vel": 0.709, "bend": 0.0, "ch": 0}, {"t": 127.235, "dur": 0.721, "note": 48, "inst": "organ_v0_additive_1", "vel": 0.709, "bend": 0.0, "ch": 0}, {"t": 127.235, "dur": 0.361, "note": 67, "inst": "harpsichord_v0_additive_2", "vel": 0.709, "bend": 0.0, "ch": 3}, {"t": 127.596, "dur": 1.442, "note": 63, "inst": "organ_v0_additive_1", "vel": 0.709, "bend": 0.0, "ch": 15}, {"t": 127.596, "dur": 0.721, "note": 67, "inst": "harpsichord_v0_additive_2", "vel": 0.709, "bend": 0.0, "ch": 3}, {"t": 127.957, "dur": 0.18, "note": 48, "inst": "organ_v0_additive_1", "vel": 0.709, "bend": 0.0, "ch": 0}, {"t": 127.957, "dur": 0.18, "note": 48, "inst": "organ_v0_additive_1", "vel": 0.709, "bend": 0.0, "ch": 0}, {"t": 128.137, "dur": 0.18, "note": 46, "inst": "harpsichord_v0_additive_2", "vel": 0.709, "bend": 0.0, "ch": 14}, {"t": 128.137, "dur": 0.18, "note": 46, "inst": "harpsichord_v0_additive_2", "vel": 0.709, "bend": 0.0, "ch": 14}, {"t": 128.317, "dur": 0.361, "note": 46, "inst": "harpsichord_v0_additive_2", "vel": 0.709, "bend": 0.0, "ch": 14}, {"t": 128.317, "dur": 0.361, "note": 46, "inst": "harpsichord_v0_additive_2", "vel": 0.709, "bend": 0.0, "ch": 14}, {"t": 128.317, "dur": 0.361, "note": 72, "inst": "organ_v0_additive_1", "vel": 0.709, "bend": 0.0, "ch": 8}, {"t": 128.678, "dur": 0.361, "note": 46, "inst": "harpsichord_v0_additive_2", "vel": 0.709, "bend": 0.0, "ch": 14}, {"t": 128.678, "dur": 0.361, "note": 46, "inst": "harpsichord_v0_additive_2", "vel": 0.709, "bend": 0.0, "ch": 14}, {"t": 128.678, "dur": 0.721, "note": 65, "inst": "celesta_v0_additive_3", "vel": 0.709, "bend": 0.0, "ch": 1}, {"t": 129.039, "dur": 0.361, "note": 34, "inst": "harpsichord_v0_additive_2", "vel": 0.709, "bend": 0.0, "ch": 2}, {"t": 129.039, "dur": 0.361, "note": 41, "inst": "celesta_v0_additive_3", "vel": 0.709, "bend": 0.0, "ch": 9}, {"t": 129.039, "dur": 1.082, "note": 60, "inst": "organ_v0_additive_1", "vel": 0.709, "bend": 0.0, "ch": 12}, {"t": 129.399, "dur": 0.361, "note": 46, "inst": "harpsichord_v0_additive_2", "vel": 0.709, "bend": 0.0, "ch": 14}, {"t": 129.399, "dur": 0.361, "note": 46, "inst": "harpsichord_v0_additive_2", "vel": 0.709, "bend": 0.0, "ch": 14}, {"t": 129.399, "dur": 0.361, "note": 60, "inst": "organ_v0_additive_1", "vel": 0.709, "bend": 0.0, "ch": 12}, {"t": 129.76, "dur": 0.361, "note": 39, "inst": "organ_v0_additive_1", "vel": 0.709, "bend": 0.0, "ch": 7}, {"t": 129.76, "dur": 0.361, "note": 39, "inst": "organ_v0_additive_1", "vel": 0.709, "bend": 0.0, "ch": 7}, {"t": 129.76, "dur": 1.082, "note": 65, "inst": "celesta_v0_additive_3", "vel": 0.709, "bend": 0.0, "ch": 1}, {"t": 130.12, "dur": 0.361, "note": 43, "inst": "harpsichord_v0_additive_2", "vel": 0.709, "bend": 0.0, "ch": 11}, {"t": 130.12, "dur": 0.361, "note": 43, "inst": "harpsichord_v0_additive_2", "vel": 0.709, "bend": 0.0, "ch": 11}, {"t": 130.12, "dur": 1.082, "note": 60, "inst": "organ_v0_additive_1", "vel": 0.709, "bend": 0.0, "ch": 12}, {"t": 130.481, "dur": 0.361, "note": 31, "inst": "harpsichord_v0_additive_2", "vel": 0.709, "bend": 0.0, "ch": 15}, {"t": 130.481, "dur": 0.361, "note": 31, "inst": "harpsichord_v0_additive_2", "vel": 0.709, "bend": 0.0, "ch": 15}, {"t": 130.842, "dur": 0.721, "note": 36, "inst": "organ_v0_additive_1", "vel": 0.709, "bend": 0.0, "ch": 4}, {"t": 130.842, "dur": 0.721, "note": 36, "inst": "organ_v0_additive_1", "vel": 0.709, "bend": 0.0, "ch": 4}, {"t": 130.842, "dur": 1.082, "note": 65, "inst": "celesta_v0_additive_3", "vel": 0.709, "bend": 0.0, "ch": 1}, {"t": 131.202, "dur": 0.361, "note": 53, "inst": "celesta_v0_additive_3", "vel": 0.709, "bend": 0.0, "ch": 5}, {"t": 131.563, "dur": 0.361, "note": 41, "inst": "celesta_v0_additive_3", "vel": 0.709, "bend": 0.0, "ch": 9}, {"t": 131.563, "dur": 0.361, "note": 41, "inst": "celesta_v0_additive_3", "vel": 0.709, "bend": 0.0, "ch": 9}, {"t": 131.563, "dur": 0.721, "note": 58, "inst": "harpsichord_v0_additive_2", "vel": 0.709, "bend": 0.0, "ch": 10}, {"t": 131.923, "dur": 0.721, "note": 36, "inst": "organ_v0_additive_1", "vel": 0.709, "bend": 0.0, "ch": 4}, {"t": 131.923, "dur": 0.721, "note": 36, "inst": "organ_v0_additive_1", "vel": 0.709, "bend": 0.0, "ch": 4}, {"t": 131.923, "dur": 1.082, "note": 63, "inst": "organ_v0_additive_1", "vel": 0.709, "bend": 0.0, "ch": 15}, {"t": 132.284, "dur": 0.361, "note": 51, "inst": "organ_v0_additive_1", "vel": 0.709, "bend": 0.0, "ch": 3}, {"t": 132.645, "dur": 0.361, "note": 41, "inst": "celesta_v0_additive_3", "vel": 0.709, "bend": 0.0, "ch": 9}, {"t": 132.645, "dur": 0.361, "note": 41, "inst": "celesta_v0_additive_3", "vel": 0.709, "bend": 0.0, "ch": 9}, {"t": 132.645, "dur": 0.721, "note": 55, "inst": "harpsichord_v0_additive_2", "vel": 0.709, "bend": 0.0, "ch": 7}, {"t": 133.005, "dur": 0.721, "note": 34, "inst": "harpsichord_v0_additive_2", "vel": 0.709, "bend": 0.0, "ch": 2}, {"t": 133.005, "dur": 0.721, "note": 34, "inst": "harpsichord_v0_additive_2", "vel": 0.709, "bend": 0.0, "ch": 2}, {"t": 133.005, "dur": 1.082, "note": 60, "inst": "organ_v0_additive_1", "vel": 0.709, "bend": 0.0, "ch": 12}, {"t": 133.366, "dur": 0.361, "note": 48, "inst": "organ_v0_additive_1", "vel": 0.709, "bend": 0.0, "ch": 0}, {"t": 133.727, "dur": 0.361, "note": 39, "inst": "organ_v0_additive_1", "vel": 0.709, "bend": 0.0, "ch": 7}, {"t": 133.727, "dur": 0.361, "note": 39, "inst": "organ_v0_additive_1", "vel": 0.709, "bend": 0.0, "ch": 7}, {"t": 133.727, "dur": 1.082, "note": 53, "inst": "celesta_v0_additive_3", "vel": 0.709, "bend": 0.0, "ch": 5}, {"t": 134.087, "dur": 0.721, "note": 31, "inst": "harpsichord_v0_additive_2", "vel": 0.709, "bend": 0.0, "ch": 15}, {"t": 134.087, "dur": 0.721, "note": 31, "inst": "harpsichord_v0_additive_2", "vel": 0.709, "bend": 0.0, "ch": 15}, {"t": 134.087, "dur": 0.361, "note": 60, "inst": "organ_v0_additive_1", "vel": 0.709, "bend": 0.0, "ch": 12}, {"t": 134.448, "dur": 0.361, "note": 55, "inst": "harpsichord_v0_additive_2", "vel": 0.709, "bend": 0.0, "ch": 7}, {"t": 134.808, "dur": 0.361, "note": 34, "inst": "harpsichord_v0_additive_2", "vel": 0.709, "bend": 0.0, "ch": 2}, {"t": 134.808, "dur": 0.361, "note": 34, "inst": "harpsichord_v0_additive_2", "vel": 0.709, "bend": 0.0, "ch": 2}, {"t": 134.808, "dur": 0.721, "note": 53, "inst": "celesta_v0_additive_3", "vel": 0.709, "bend": 0.0, "ch": 5}, {"t": 134.808, "dur": 0.361, "note": 60, "inst": "organ_v0_additive_1", "vel": 0.709, "bend": 0.0, "ch": 12}, {"t": 135.169, "dur": 0.361, "note": 29, "inst": "celesta_v0_additive_3", "vel": 0.709, "bend": 0.0, "ch": 13}, {"t": 135.169, "dur": 0.361, "note": 29, "inst": "celesta_v0_additive_3", "vel": 0.709, "bend": 0.0, "ch": 13}, {"t": 135.169, "dur": 0.361, "note": 48, "inst": "organ_v0_additive_1", "vel": 0.709, "bend": 0.0, "ch": 0}, {"t": 135.53, "dur": 0.721, "note": 31, "inst": "harpsichord_v0_additive_2", "vel": 0.709, "bend": 0.0, "ch": 15}, {"t": 135.53, "dur": 0.721, "note": 31, "inst": "harpsichord_v0_additive_2", "vel": 0.709, "bend": 0.0, "ch": 15}, {"t": 135.53, "dur": 0.541, "note": 48, "inst": "organ_v0_additive_1", "vel": 0.709, "bend": 0.0, "ch": 0}, {"t": 135.53, "dur": 0.721, "note": 51, "inst": "organ_v0_additive_1", "vel": 0.709, "bend": 0.0, "ch": 3}, {"t": 136.071, "dur": 0.18, "note": 48, "inst": "organ_v0_additive_1", "vel": 0.709, "bend": 0.0, "ch": 0}, {"t": 136.251, "dur": 0.361, "note": 36, "inst": "organ_v0_additive_1", "vel": 0.709, "bend": 0.0, "ch": 4}, {"t": 136.251, "dur": 0.361, "note": 36, "inst": "organ_v0_additive_1", "vel": 0.709, "bend": 0.0, "ch": 4}, {"t": 136.251, "dur": 0.361, "note": 48, "inst": "organ_v0_additive_1", "vel": 0.709, "bend": 0.0, "ch": 0}, {"t": 136.251, "dur": 0.721, "note": 48, "inst": "organ_v0_additive_1", "vel": 0.709, "bend": 0.0, "ch": 0}, {"t": 136.612, "dur": 0.721, "note": 48, "inst": "organ_v0_additive_1", "vel": 0.709, "bend": 0.0, "ch": 0}, {"t": 136.612, "dur": 0.721, "note": 48, "inst": "organ_v0_additive_1", "vel": 0.709, "bend": 0.0, "ch": 0}, {"t": 136.612, "dur": 0.541, "note": 65, "inst": "celesta_v0_additive_3", "vel": 0.709, "bend": 0.0, "ch": 1}, {"t": 137.153, "dur": 0.18, "note": 67, "inst": "harpsichord_v0_additive_2", "vel": 0.709, "bend": 0.0, "ch": 3}, {"t": 137.333, "dur": 0.361, "note": 48, "inst": "organ_v0_additive_1", "vel": 0.709, "bend": 0.0, "ch": 0}, {"t": 137.333, "dur": 0.361, "note": 48, "inst": "organ_v0_additive_1", "vel": 0.709, "bend": 0.0, "ch": 0}, {"t": 137.333, "dur": 0.361, "note": 67, "inst": "harpsichord_v0_additive_2", "vel": 0.709, "bend": 0.0, "ch": 3}, {"t": 137.693, "dur": 0.721, "note": 39, "inst": "organ_v0_additive_1", "vel": 0.709, "bend": 0.0, "ch": 7}, {"t": 137.693, "dur": 0.721, "note": 39, "inst": "organ_v0_additive_1", "vel": 0.709, "bend": 0.0, "ch": 7}, {"t": 137.693, "dur": 0.541, "note": 65, "inst": "celesta_v0_additive_3", "vel": 0.709, "bend": 0.0, "ch": 1}, {"t": 137.693, "dur": 0.18, "note": 70, "inst": "harpsichord_v0_additive_2", "vel": 0.709, "bend": 0.0, "ch": 6}, {"t": 137.874, "dur": 0.18, "note": 67, "inst": "harpsichord_v0_additive_2", "vel": 0.709, "bend": 0.0, "ch": 3}, {"t": 138.054, "dur": 0.18, "note": 65, "inst": "celesta_v0_additive_3", "vel": 0.709, "bend": 0.0, "ch": 1}, {"t": 138.234, "dur": 0.18, "note": 65, "inst": "celesta_v0_additive_3", "vel": 0.709, "bend": 0.0, "ch": 1}, {"t": 138.234, "dur": 0.18, "note": 65, "inst": "celesta_v0_additive_3", "vel": 0.709, "bend": 0.0, "ch": 1}, {"t": 138.415, "dur": 0.541, "note": 51, "inst": "organ_v0_additive_1", "vel": 0.709, "bend": 0.0, "ch": 3}, {"t": 138.415, "dur": 0.541, "note": 51, "inst": "organ_v0_additive_1", "vel": 0.709, "bend": 0.0, "ch": 3}, {"t": 138.415, "dur": 0.541, "note": 58, "inst": "harpsichord_v0_additive_2", "vel": 0.709, "bend": 0.0, "ch": 10}, {"t": 138.415, "dur": 0.541, "note": 65, "inst": "celesta_v0_additive_3", "vel": 0.709, "bend": 0.0, "ch": 1}, {"t": 138.956, "dur": 0.18, "note": 41, "inst": "celesta_v0_additive_3", "vel": 0.709, "bend": 0.0, "ch": 9}, {"t": 138.956, "dur": 0.18, "note": 41, "inst": "celesta_v0_additive_3", "vel": 0.709, "bend": 0.0, "ch": 9}, {"t": 138.956, "dur": 0.18, "note": 63, "inst": "organ_v0_additive_1", "vel": 0.709, "bend": 0.0, "ch": 15}, {"t": 138.956, "dur": 0.18, "note": 70, "inst": "harpsichord_v0_additive_2", "vel": 0.709, "bend": 0.0, "ch": 6}, {"t": 139.136, "dur": 0.721, "note": 43, "inst": "harpsichord_v0_additive_2", "vel": 0.709, "bend": 0.0, "ch": 11}, {"t": 139.136, "dur": 0.721, "note": 43, "inst": "harpsichord_v0_additive_2", "vel": 0.709, "bend": 0.0, "ch": 11}, {"t": 139.136, "dur": 0.361, "note": 51, "inst": "organ_v0_additive_1", "vel": 0.709, "bend": 0.0, "ch": 3}, {"t": 139.136, "dur": 0.361, "note": 65, "inst": "celesta_v0_additive_3", "vel": 0.709, "bend": 0.0, "ch": 1}, {"t": 139.497, "dur": 0.361, "note": 63, "inst": "organ_v0_additive_1", "vel": 0.709, "bend": 0.0, "ch": 15}, {"t": 139.497, "dur": 0.361, "note": 65, "inst": "celesta_v0_additive_3", "vel": 0.709, "bend": 0.0, "ch": 1}, {"t": 139.857, "dur": 0.721, "note": 46, "inst": "harpsichord_v0_additive_2", "vel": 0.709, "bend": 0.0, "ch": 14}, {"t": 139.857, "dur": 0.721, "note": 46, "inst": "harpsichord_v0_additive_2", "vel": 0.709, "bend": 0.0, "ch": 14}, {"t": 139.857, "dur": 0.541, "note": 63, "inst": "organ_v0_additive_1", "vel": 0.709, "bend": 0.0, "ch": 15}, {"t": 139.857, "dur": 0.721, "note": 65, "inst": "celesta_v0_additive_3", "vel": 0.709, "bend": 0.0, "ch": 1}, {"t": 140.398, "dur": 0.18, "note": 51, "inst": "organ_v0_additive_1", "vel": 0.709, "bend": 0.0, "ch": 3}, {"t": 140.578, "dur": 0.361, "note": 39, "inst": "organ_v0_additive_1", "vel": 0.709, "bend": 0.0, "ch": 7}, {"t": 140.578, "dur": 0.361, "note": 39, "inst": "organ_v0_additive_1", "vel": 0.709, "bend": 0.0, "ch": 7}, {"t": 140.578, "dur": 0.361, "note": 63, "inst": "organ_v0_additive_1", "vel": 0.709, "bend": 0.0, "ch": 15}, {"t": 140.578, "dur": 0.721, "note": 63, "inst": "organ_v0_additive_1", "vel": 0.709, "bend": 0.0, "ch": 15}, {"t": 140.939, "dur": 0.721, "note": 27, "inst": "organ_v0_additive_1", "vel": 0.709, "bend": 0.0, "ch": 11}, {"t": 140.939, "dur": 0.721, "note": 27, "inst": "organ_v0_additive_1", "vel": 0.709, "bend": 0.0, "ch": 11}, {"t": 140.939, "dur": 0.18, "note": 70, "inst": "harpsichord_v0_additive_2", "vel": 0.709, "bend": 0.0, "ch": 6}, {"t": 141.119, "dur": 0.18, "note": 67, "inst": "harpsichord_v0_additive_2", "vel": 0.709, "bend": 0.0, "ch": 3}, {"t": 141.3, "dur": 0.18, "note": 65, "inst": "celesta_v0_additive_3", "vel": 0.709, "bend": 0.0, "ch": 1}, {"t": 141.48, "dur": 0.18, "note": 65, "inst": "celesta_v0_additive_3", "vel": 0.709, "bend": 0.0, "ch": 1}, {"t": 141.66, "dur": 0.361, "note": 39, "inst": "organ_v0_additive_1", "vel": 0.709, "bend": 0.0, "ch": 7}, {"t": 141.66, "dur": 0.361, "note": 39, "inst": "organ_v0_additive_1", "vel": 0.709, "bend": 0.0, "ch": 7}, {"t": 141.66, "dur": 0.361, "note": 65, "inst": "celesta_v0_additive_3", "vel": 0.709, "bend": 0.0, "ch": 1}, {"t": 142.021, "dur": 0.721, "note": 34, "inst": "harpsichord_v0_additive_2", "vel": 0.709, "bend": 0.0, "ch": 2}, {"t": 142.021, "dur": 0.721, "note": 34, "inst": "harpsichord_v0_additive_2", "vel": 0.709, "bend": 0.0, "ch": 2}, {"t": 142.021, "dur": 0.721, "note": 65, "inst": "celesta_v0_additive_3", "vel": 0.709, "bend": 0.0, "ch": 1}, {"t": 142.021, "dur": 0.18, "note": 70, "inst": "harpsichord_v0_additive_2", "vel": 0.709, "bend": 0.0, "ch": 6}, {"t": 142.201, "dur": 0.18, "note": 67, "inst": "harpsichord_v0_additive_2", "vel": 0.709, "bend": 0.0, "ch": 3}, {"t": 142.382, "dur": 0.18, "note": 65, "inst": "celesta_v0_additive_3", "vel": 0.709, "bend": 0.0, "ch": 1}, {"t": 142.562, "dur": 0.18, "note": 65, "inst": "celesta_v0_additive_3", "vel": 0.709, "bend": 0.0, "ch": 1}, {"t": 142.742, "dur": 0.361, "note": 39, "inst": "organ_v0_additive_1", "vel": 0.709, "bend": 0.0, "ch": 7}, {"t": 142.742, "dur": 0.361, "note": 39, "inst": "organ_v0_additive_1", "vel": 0.709, "bend": 0.0, "ch": 7}, {"t": 142.742, "dur": 0.361, "note": 65, "inst": "celesta_v0_additive_3", "vel": 0.709, "bend": 0.0, "ch": 1}, {"t": 143.103, "dur": 0.721, "note": 27, "inst": "organ_v0_additive_1", "vel": 0.709, "bend": 0.0, "ch": 11}, {"t": 143.103, "dur": 0.721, "note": 27, "inst": "organ_v0_additive_1", "vel": 0.709, "bend": 0.0, "ch": 11}, {"t": 143.103, "dur": 1.082, "note": 65, "inst": "celesta_v0_additive_3", "vel": 0.709, "bend": 0.0, "ch": 1}, {"t": 143.103, "dur": 0.18, "note": 70, "inst": "harpsichord_v0_additive_2", "vel": 0.709, "bend": 0.0, "ch": 6}, {"t": 143.283, "dur": 0.18, "note": 67, "inst": "harpsichord_v0_additive_2", "vel": 0.709, "bend": 0.0, "ch": 3}, {"t": 143.463, "dur": 0.18, "note": 65, "inst": "celesta_v0_additive_3", "vel": 0.709, "bend": 0.0, "ch": 1}, {"t": 143.644, "dur": 0.18, "note": 65, "inst": "celesta_v0_additive_3", "vel": 0.709, "bend": 0.0, "ch": 1}, {"t": 143.824, "dur": 0.721, "note": 39, "inst": "organ_v0_additive_1", "vel": 0.709, "bend": 0.0, "ch": 7}, {"t": 143.824, "dur": 0.721, "note": 39, "inst": "organ_v0_additive_1", "vel": 0.709, "bend": 0.0, "ch": 7}, {"t": 143.824, "dur": 1.442, "note": 65, "inst": "celesta_v0_additive_3", "vel": 0.709, "bend": 0.0, "ch": 1}, {"t": 144.185, "dur": 0.18, "note": 63, "inst": "organ_v0_additive_1", "vel": 0.709, "bend": 0.0, "ch": 15}, {"t": 144.365, "dur": 0.18, "note": 60, "inst": "organ_v0_additive_1", "vel": 0.709, "bend": 0.0, "ch": 12}, {"t": 144.545, "dur": 0.361, "note": 39, "inst": "organ_v0_additive_1", "vel": 0.709, "bend": 0.0, "ch": 7}, {"t": 144.545, "dur": 0.361, "note": 39, "inst": "organ_v0_additive_1", "vel": 0.709, "bend": 0.0, "ch": 7}, {"t": 144.545, "dur": 0.18, "note": 60, "inst": "organ_v0_additive_1", "vel": 0.709, "bend": 0.0, "ch": 12}, {"t": 144.726, "dur": 0.18, "note": 58, "inst": "harpsichord_v0_additive_2", "vel": 0.709, "bend": 0.0, "ch": 10}, {"t": 144.906, "dur": 0.721, "note": 41, "inst": "celesta_v0_additive_3", "vel": 0.709, "bend": 0.0, "ch": 9}, {"t": 144.906, "dur": 0.721, "note": 41, "inst": "celesta_v0_additive_3", "vel": 0.709, "bend": 0.0, "ch": 9}, {"t": 144.906, "dur": 0.361, "note": 58, "inst": "harpsichord_v0_additive_2", "vel": 0.709, "bend": 0.0, "ch": 10}, {"t": 145.267, "dur": 1.082, "note": 60, "inst": "organ_v0_additive_1", "vel": 0.709, "bend": 0.0, "ch": 12}, {"t": 145.267, "dur": 0.18, "note": 65, "inst": "celesta_v0_additive_3", "vel": 0.709, "bend": 0.0, "ch": 1}, {"t": 145.447, "dur": 0.18, "note": 63, "inst": "organ_v0_additive_1", "vel": 0.709, "bend": 0.0, "ch": 15}, {"t": 145.627, "dur": 0.361, "note": 29, "inst": "celesta_v0_additive_3", "vel": 0.709, "bend": 0.0, "ch": 13}, {"t": 145.627, "dur": 0.361, "note": 29, "inst": "celesta_v0_additive_3", "vel": 0.709, "bend": 0.0, "ch": 13}, {"t": 145.627, "dur": 0.18, "note": 60, "inst": "organ_v0_additive_1", "vel": 0.709, "bend": 0.0, "ch": 12}, {"t": 145.807, "dur": 0.18, "note": 60, "inst": "organ_v0_additive_1", "vel": 0.709, "bend": 0.0, "ch": 12}, {"t": 145.988, "dur": 0.721, "note": 34, "inst": "harpsichord_v0_additive_2", "vel": 0.709, "bend": 0.0, "ch": 2}, {"t": 145.988, "dur": 0.721, "note": 34, "inst": "harpsichord_v0_additive_2", "vel": 0.709, "bend": 0.0, "ch": 2}, {"t": 145.988, "dur": 0.721, "note": 60, "inst": "organ_v0_additive_1", "vel": 0.709, "bend": 0.0, "ch": 12}, {"t": 146.348, "dur": 0.361, "note": 53, "inst": "celesta_v0_additive_3", "vel": 0.709, "bend": 0.0, "ch": 5}, {"t": 146.709, "dur": 0.361, "note": 34, "inst": "harpsichord_v0_additive_2", "vel": 0.709, "bend": 0.0, "ch": 2}, {"t": 146.709, "dur": 0.361, "note": 34, "inst": "harpsichord_v0_additive_2", "vel": 0.709, "bend": 0.0, "ch": 2}, {"t": 146.709, "dur": 0.721, "note": 58, "inst": "harpsichord_v0_additive_2", "vel": 0.709, "bend": 0.0, "ch": 10}, {"t": 146.709, "dur": 0.361, "note": 60, "inst": "organ_v0_additive_1", "vel": 0.709, "bend": 0.0, "ch": 12}, {"t": 147.07, "dur": 0.721, "note": 36, "inst": "organ_v0_additive_1", "vel": 0.709, "bend": 0.0, "ch": 4}, {"t": 147.07, "dur": 0.721, "note": 36, "inst": "organ_v0_additive_1", "vel": 0.709, "bend": 0.0, "ch": 4}, {"t": 147.07, "dur": 0.721, "note": 51, "inst": "organ_v0_additive_1", "vel": 0.709, "bend": 0.0, "ch": 3}, {"t": 147.43, "dur": 0.721, "note": 55, "inst": "harpsichord_v0_additive_2", "vel": 0.709, "bend": 0.0, "ch": 7}, {"t": 147.791, "dur": 0.721, "note": 34, "inst": "harpsichord_v0_additive_2", "vel": 0.709, "bend": 0.0, "ch": 2}, {"t": 147.791, "dur": 0.721, "note": 34, "inst": "harpsichord_v0_additive_2", "vel": 0.709, "bend": 0.0, "ch": 2}, {"t": 147.791, "dur": 0.721, "note": 53, "inst": "celesta_v0_additive_3", "vel": 0.709, "bend": 0.0, "ch": 5}, {"t": 148.151, "dur": 0.361, "note": 55, "inst": "harpsichord_v0_additive_2", "vel": 0.709, "bend": 0.0, "ch": 7}, {"t": 148.512, "dur": 0.721, "note": 36, "inst": "organ_v0_additive_1", "vel": 0.709, "bend": 0.0, "ch": 4}, {"t": 148.512, "dur": 0.721, "note": 36, "inst": "organ_v0_additive_1", "vel": 0.709, "bend": 0.0, "ch": 4}, {"t": 148.512, "dur": 0.541, "note": 53, "inst": "celesta_v0_additive_3", "vel": 0.709, "bend": 0.0, "ch": 5}, {"t": 148.512, "dur": 0.721, "note": 55, "inst": "harpsichord_v0_additive_2", "vel": 0.709, "bend": 0.0, "ch": 7}, {"t": 149.053, "dur": 0.18, "note": 51, "inst": "organ_v0_additive_1", "vel": 0.709, "bend": 0.0, "ch": 3}], "instruments": ["celesta_v0_additive_3", "harpsichord_v0_additive_2", "organ_v0_additive_1"], "duration": 149.233, "n_events": 510}