{"events": [{"t": 0.053, "dur": 0.342, "note": 56, "inst": "harpsichord_v0_additive_2", "vel": 1.0, "bend": 0.0, "ch": 8}, {"t": 0.053, "dur": 0.171, "note": 83, "inst": "harpsichord_v0_additive_2", "vel": 1.0, "bend": 0.0, "ch": 3}, {"t": 0.224, "dur": 0.171, "note": 83, "inst": "harpsichord_v0_additive_2", "vel": 1.0, "bend": 0.0, "ch": 3}, {"t": 0.395, "dur": 0.342, "note": 51, "inst": "piano_v0_additive_0", "vel": 1.0, "bend": 0.0, "ch": 3}, {"t": 0.395, "dur": 0.171, "note": 87, "inst": "piano_v0_additive_0", "vel": 1.0, "bend": 0.0, "ch": 7}, {"t": 0.566, "dur": 0.171, "note": 85, "inst": "organ_v0_additive_1", "vel": 1.0, "bend": 0.0, "ch": 5}, {"t": 0.737, "dur": 0.342, "note": 58, "inst": "organ_v0_additive_1", "vel": 1.0, "bend": 0.0, "ch": 10}, {"t": 0.737, "dur": 0.171, "note": 83, "inst": "harpsichord_v0_additive_2", "vel": 1.0, "bend": 0.0, "ch": 3}, {"t": 0.909, "dur": 0.171, "note": 80, "inst": "harpsichord_v0_additive_2", "vel": 1.0, "bend": 0.0, "ch": 0}, {"t": 1.08, "dur": 0.342, "note": 51, "inst": "piano_v0_additive_0", "vel": 1.0, "bend": 0.0, "ch": 3}, {"t": 1.08, "dur": 0.171, "note": 82, "inst": "organ_v0_additive_1", "vel": 1.0, "bend": 0.0, "ch": 2}, {"t": 1.251, "dur": 0.057, "note": 82, "inst": "organ_v0_additive_1", "vel": 1.0, "bend": 0.0, "ch": 2}, {"t": 1.308, "dur": 0.057, "note": 83, "inst": "harpsichord_v0_additive_2", "vel": 1.0, "bend": 0.0, "ch": 3}, {"t": 1.365, "dur": 0.057, "note": 82, "inst": "organ_v0_additive_1", "vel": 1.0, "bend": 0.0, "ch": 2}, {"t": 1.422, "dur": 0.342, "note": 54, "inst": "piano_v0_additive_0", "vel": 1.0, "bend": 0.0, "ch": 6}, {"t": 1.422, "dur": 0.171, "note": 80, "inst": "harpsichord_v0_additive_2", "vel": 1.0, "bend": 0.0, "ch": 0}, {"t": 1.593, "dur": 0.171, "note": 82, "inst": "organ_v0_additive_1", "vel": 1.0, "bend": 0.0, "ch": 2}, {"t": 1.765, "dur": 0.342, "note": 51, "inst": "piano_v0_additive_0", "vel": 1.0, "bend": 0.0, "ch": 3}, {"t": 1.765, "dur": 0.171, "note": 85, "inst": "organ_v0_additive_1", "vel": 1.0, "bend": 0.0, "ch": 5}, {"t": 1.936, "dur": 0.171, "note": 83, "inst": "harpsichord_v0_additive_2", "vel": 1.0, "bend": 0.0, "ch": 3}, {"t": 2.107, "dur": 0.342, "note": 56, "inst": "harpsichord_v0_additive_2", "vel": 1.0, "bend": 0.0, "ch": 8}, {"t": 2.107, "dur": 0.171, "note": 82, "inst": "organ_v0_additive_1", "vel": 1.0, "bend": 0.0, "ch": 2}, {"t": 2.278, "dur": 0.171, "note": 78, "inst": "piano_v0_additive_0", "vel": 1.0, "bend": 0.0, "ch": 14}, {"t": 2.449, "dur": 0.342, "note": 51, "inst": "piano_v0_additive_0", "vel": 1.0, "bend": 0.0, "ch": 3}, {"t": 2.449, "dur": 0.171, "note": 80, "inst": "harpsichord_v0_additive_2", "vel": 1.0, "bend": 0.0, "ch": 0}, {"t": 2.62, "dur": 0.057, "note": 80, "inst": "harpsichord_v0_additive_2", "vel": 1.0, "bend": 0.0, "ch": 0}, {"t": 2.678, "dur": 0.057, "note": 82, "inst": "organ_v0_additive_1", "vel": 1.0, "bend": 0.0, "ch": 2}, {"t": 2.735, "dur": 0.057, "note": 80, "inst": "harpsichord_v0_additive_2", "vel": 1.0, "bend": 0.0, "ch": 0}, {"t": 2.792, "dur": 0.342, "note": 59, "inst": "harpsichord_v0_additive_2", "vel": 1.0, "bend": 0.0, "ch": 11}, {"t": 2.792, "dur": 0.171, "note": 78, "inst": "piano_v0_additive_0", "vel": 1.0, "bend": 0.0, "ch": 14}, {"t": 2.963, "dur": 0.171, "note": 82, "inst": "organ_v0_additive_1", "vel": 1.0, "bend": 0.0, "ch": 2}, {"t": 3.134, "dur": 0.342, "note": 59, "inst": "harpsichord_v0_additive_2", "vel": 1.0, "bend": 0.0, "ch": 11}, {"t": 3.134, "dur": 0.171, "note": 80, "inst": "harpsichord_v0_additive_2", "vel": 1.0, "bend": 0.0, "ch": 0}, {"t": 3.305, "dur": 0.171, "note": 76, "inst": "organ_v0_additive_1", "vel": 1.0, "bend": 0.0, "ch": 12}, {"t": 3.476, "dur": 0.342, "note": 58, "inst": "organ_v0_additive_1", "vel": 1.0, "bend": 0.0, "ch": 10}, {"t": 3.476, "dur": 0.171, "note": 75, "inst": "piano_v0_additive_0", "vel": 1.0, "bend": 0.0, "ch": 11}, {"t": 3.648, "dur": 0.171, "note": 88, "inst": "organ_v0_additive_1", "vel": 1.0, "bend": 0.0, "ch": 8}, {"t": 3.819, "dur": 0.342, "note": 51, "inst": "piano_v0_additive_0", "vel": 1.0, "bend": 0.0, "ch": 3}, {"t": 3.819, "dur": 0.171, "note": 87, "inst": "piano_v0_additive_0", "vel": 1.0, "bend": 0.0, "ch": 7}, {"t": 3.99, "dur": 0.057, "note": 76, "inst": "organ_v0_additive_1", "vel": 1.0, "bend": 0.0, "ch": 12}, {"t": 4.047, "dur": 0.057, "note": 78, "inst": "piano_v0_additive_0", "vel": 1.0, "bend": 0.0, "ch": 14}, {"t": 4.104, "dur": 0.057, "note": 76, "inst": "organ_v0_additive_1", "vel": 1.0, "bend": 0.0, "ch": 12}, {"t": 4.161, "dur": 0.342, "note": 58, "inst": "organ_v0_additive_1", "vel": 1.0, "bend": 0.0, "ch": 10}, {"t": 4.161, "dur": 0.171, "note": 75, "inst": "piano_v0_additive_0", "vel": 1.0, "bend": 0.0, "ch": 11}, {"t": 4.332, "dur": 0.171, "note": 87, "inst": "piano_v0_additive_0", "vel": 1.0, "bend": 0.0, "ch": 7}, {"t": 4.504, "dur": 0.342, "note": 51, "inst": "piano_v0_additive_0", "vel": 1.0, "bend": 0.0, "ch": 3}, {"t": 4.504, "dur": 0.171, "note": 85, "inst": "organ_v0_additive_1", "vel": 1.0, "bend": 0.0, "ch": 5}, {"t": 4.675, "dur": 0.057, "note": 73, "inst": "organ_v0_additive_1", "vel": 1.0, "bend": 0.0, "ch": 9}, {"t": 4.732, "dur": 0.057, "note": 75, "inst": "piano_v0_additive_0", "vel": 1.0, "bend": 0.0, "ch": 11}, {"t": 4.789, "dur": 0.057, "note": 73, "inst": "organ_v0_additive_1", "vel": 1.0, "bend": 0.0, "ch": 9}, {"t": 4.846, "dur": 0.342, "note": 56, "inst": "harpsichord_v0_additive_2", "vel": 1.0, "bend": 0.0, "ch": 8}, {"t": 4.846, "dur": 0.171, "note": 71, "inst": "harpsichord_v0_additive_2", "vel": 1.0, "bend": 0.0, "ch": 7}, {"t": 5.017, "dur": 0.171, "note": 85, "inst": "organ_v0_additive_1", "vel": 1.0, "bend": 0.0, "ch": 5}, {"t": 5.188, "dur": 0.342, "note": 56, "inst": "harpsichord_v0_additive_2", "vel": 1.0, "bend": 0.0, "ch": 8}, {"t": 5.188, "dur": 0.171, "note": 83, "inst": "harpsichord_v0_additive_2", "vel": 1.0, "bend": 0.0, "ch": 3}, {"t": 5.36, "dur": 0.057, "note": 83, "inst": "harpsichord_v0_additive_2", "vel": 1.0, "bend": 0.0, "ch": 3}, {"t": 5.417, "dur": 0.057, "note": 85, "inst": "organ_v0_additive_1", "vel": 1.0, "bend": 0.0, "ch": 5}, {"t": 5.474, "dur": 0.057, "note": 83, "inst": "harpsichord_v0_additive_2", "vel": 1.0, "bend": 0.0, "ch": 3}, {"t": 5.531, "dur": 0.342, "note": 56, "inst": "harpsichord_v0_additive_2", "vel": 1.0, "bend": 0.0, "ch": 8}, {"t": 5.531, "dur": 0.171, "note": 83, "inst": "harpsichord_v0_additive_2", "vel": 1.0, "bend": 0.0, "ch": 3}, {"t": 5.702, "dur": 0.171, "note": 83, "inst": "harpsichord_v0_additive_2", "vel": 1.0, "bend": 0.0, "ch": 3}, {"t": 5.873, "dur": 0.342, "note": 51, "inst": "piano_v0_additive_0", "vel": 1.0, "bend": 0.0, "ch": 3}, {"t": 5.873, "dur": 0.171, "note": 87, "inst": "piano_v0_additive_0", "vel": 1.0, "bend": 0.0, "ch": 7}, {"t": 6.044, "dur": 0.171, "note": 85, "inst": "organ_v0_additive_1", "vel": 1.0, "bend": 0.0, "ch": 5}, {"t": 6.215, "dur": 0.342, "note": 58, "inst": "organ_v0_additive_1", "vel": 1.0, "bend": 0.0, "ch": 10}, {"t": 6.215, "dur": 0.171, "note": 83, "inst": "harpsichord_v0_additive_2", "vel": 1.0, "bend": 0.0, "ch": 3}, {"t": 6.387, "dur": 0.171, "note": 80, "inst": "harpsichord_v0_additive_2", "vel": 1.0, "bend": 0.0, "ch": 0}, {"t": 6.558, "dur": 0.342, "note": 51, "inst": "piano_v0_additive_0", "vel": 1.0, "bend": 0.0, "ch": 3}, {"t": 6.558, "dur": 0.171, "note": 82, "inst": "organ_v0_additive_1", "vel": 1.0, "bend": 0.0, "ch": 2}, {"t": 6.729, "dur": 0.057, "note": 82, "inst": "organ_v0_additive_1", "vel": 1.0, "bend": 0.0, "ch": 2}, {"t": 6.786, "dur": 0.057, "note": 83, "inst": "harpsichord_v0_additive_2", "vel": 1.0, "bend": 0.0, "ch": 3}, {"t": 6.843, "dur": 0.057, "note": 82, "inst": "organ_v0_additive_1", "vel": 1.0, "bend": 0.0, "ch": 2}, {"t": 6.9, "dur": 0.342, "note": 52, "inst": "organ_v0_additive_1", "vel": 1.0, "bend": 0.0, "ch": 4}, {"t": 6.9, "dur": 0.171, "note": 80, "inst": "harpsichord_v0_additive_2", "vel": 1.0, "bend": 0.0, "ch": 0}, {"t": 7.071, "dur": 0.171, "note": 82, "inst": "organ_v0_additive_1", "vel": 1.0, "bend": 0.0, "ch": 2}, {"t": 7.243, "dur": 0.342, "note": 47, "inst": "harpsichord_v0_additive_2", "vel": 1.0, "bend": 0.0, "ch": 15}, {"t": 7.243, "dur": 0.171, "note": 85, "inst": "organ_v0_additive_1", "vel": 1.0, "bend": 0.0, "ch": 5}, {"t": 7.414, "dur": 0.171, "note": 83, "inst": "harpsichord_v0_additive_2", "vel": 1.0, "bend": 0.0, "ch": 3}, {"t": 7.585, "dur": 0.342, "note": 52, "inst": "organ_v0_additive_1", "vel": 1.0, "bend": 0.0, "ch": 4}, {"t": 7.585, "dur": 0.171, "note": 82, "inst": "organ_v0_additive_1", "vel": 1.0, "bend": 0.0, "ch": 2}, {"t": 7.756, "dur": 0.171, "note": 78, "inst": "piano_v0_additive_0", "vel": 1.0, "bend": 0.0, "ch": 14}, {"t": 7.927, "dur": 0.342, "note": 51, "inst": "piano_v0_additive_0", "vel": 1.0, "bend": 0.0, "ch": 3}, {"t": 7.927, "dur": 0.171, "note": 80, "inst": "harpsichord_v0_additive_2", "vel": 1.0, "bend": 0.0, "ch": 0}, {"t": 8.099, "dur": 0.057, "note": 80, "inst": "harpsichord_v0_additive_2", "vel": 1.0, "bend": 0.0, "ch": 0}, {"t": 8.156, "dur": 0.057, "note": 82, "inst": "organ_v0_additive_1", "vel": 1.0, "bend": 0.0, "ch": 2}, {"t": 8.213, "dur": 0.057, "note": 80, "inst": "harpsichord_v0_additive_2", "vel": 1.0, "bend": 0.0, "ch": 0}, {"t": 8.27, "dur": 0.342, "note": 49, "inst": "organ_v0_additive_1", "vel": 1.0, "bend": 0.0, "ch": 1}, {"t": 8.27, "dur": 0.171, "note": 78, "inst": "piano_v0_additive_0", "vel": 1.0, "bend": 0.0, "ch": 14}, {"t": 8.441, "dur": 0.171, "note": 82, "inst": "organ_v0_additive_1", "vel": 1.0, "bend": 0.0, "ch": 2}, {"t": 8.612, "dur": 0.342, "note": 49, "inst": "organ_v0_additive_1", "vel": 1.0, "bend": 0.0, "ch": 1}, {"t": 8.612, "dur": 0.171, "note": 80, "inst": "harpsichord_v0_additive_2", "vel": 1.0, "bend": 0.0, "ch": 0}, {"t": 8.783, "dur": 0.171, "note": 76, "inst": "organ_v0_additive_1", "vel": 1.0, "bend": 0.0, "ch": 12}, {"t": 8.955, "dur": 0.342, "note": 51, "inst": "piano_v0_additive_0", "vel": 1.0, "bend": 0.0, "ch": 3}, {"t": 8.955, "dur": 0.171, "note": 75, "inst": "piano_v0_additive_0", "vel": 1.0, "bend": 0.0, "ch": 11}, {"t": 9.126, "dur": 0.171, "note": 88, "inst": "organ_v0_additive_1", "vel": 1.0, "bend": 0.0, "ch": 8}, {"t": 9.297, "dur": 0.342, "note": 51, "inst": "piano_v0_additive_0", "vel": 1.0, "bend": 0.0, "ch": 3}, {"t": 9.297, "dur": 0.171, "note": 87, "inst": "piano_v0_additive_0", "vel": 1.0, "bend": 0.0, "ch": 7}, {"t": 9.468, "dur": 0.057, "note": 76, "inst": "organ_v0_additive_1", "vel": 1.0, "bend": 0.0, "ch": 12}, {"t": 9.525, "dur": 0.057, "note": 78, "inst": "piano_v0_additive_0", "vel": 1.0, "bend": 0.0, "ch": 14}, {"t": 9.582, "dur": 0.057, "note": 76, "inst": "organ_v0_additive_1", "vel": 1.0, "bend": 0.0, "ch": 12}, {"t": 9.639, "dur": 0.342, "note": 51, "inst": "piano_v0_additive_0", "vel": 1.0, "bend": 0.0, "ch": 3}, {"t": 9.639, "dur": 0.171, "note": 75, "inst": "piano_v0_additive_0", "vel": 1.0, "bend": 0.0, "ch": 11}, {"t": 9.81, "dur": 0.171, "note": 83, "inst": "harpsichord_v0_additive_2", "vel": 1.0, "bend": 0.0, "ch": 3}, {"t": 9.982, "dur": 0.342, "note": 51, "inst": "piano_v0_additive_0", "vel": 1.0, "bend": 0.0, "ch": 3}, {"t": 9.982, "dur": 0.171, "note": 82, "inst": "organ_v0_additive_1", "vel": 1.0, "bend": 0.0, "ch": 2}, {"t": 10.153, "dur": 0.171, "note": 75, "inst": "piano_v0_additive_0", "vel": 1.0, "bend": 0.0, "ch": 11}, {"t": 10.324, "dur": 0.342, "note": 56, "inst": "harpsichord_v0_additive_2", "vel": 1.0, "bend": 0.0, "ch": 8}, {"t": 10.324, "dur": 0.342, "note": 80, "inst": "harpsichord_v0_additive_2", "vel": 1.0, "bend": 0.0, "ch": 0}, {"t": 10.666, "dur": 0.171, "note": 92, "inst": "harpsichord_v0_additive_2", "vel": 1.0, "bend": 0.0, "ch": 12}, {"t": 10.838, "dur": 0.057, "note": 92, "inst": "harpsichord_v0_additive_2", "vel": 1.0, "bend": 0.0, "ch": 12}, {"t": 10.895, "dur": 0.057, "note": 94, "inst": "organ_v0_additive_1", "vel": 1.0, "bend": 0.0, "ch": 14}, {"t": 10.952, "dur": 0.057, "note": 92, "inst": "harpsichord_v0_additive_2", "vel": 1.0, "bend": 0.0, "ch": 12}, {"t": 11.009, "dur": 0.342, "note": 51, "inst": "piano_v0_additive_0", "vel": 1.0, "bend": 0.0, "ch": 3}, {"t": 11.009, "dur": 0.171, "note": 90, "inst": "piano_v0_additive_0", "vel": 1.0, "bend": 0.0, "ch": 10}, {"t": 11.18, "dur": 0.171, "note": 95, "inst": "harpsichord_v0_additive_2", "vel": 1.0, "bend": 0.0, "ch": 15}, {"t": 11.351, "dur": 0.342, "note": 46, "inst": "organ_v0_additive_1", "vel": 1.0, "bend": 0.0, "ch": 14}, {"t": 11.351, "dur": 0.171, "note": 94, "inst": "organ_v0_additive_1", "vel": 1.0, "bend": 0.0, "ch": 14}, {"t": 11.522, "dur": 0.057, "note": 88, "inst": "organ_v0_additive_1", "vel": 1.0, "bend": 0.0, "ch": 8}, {"t": 11.579, "dur": 0.057, "note": 90, "inst": "piano_v0_additive_0", "vel": 1.0, "bend": 0.0, "ch": 10}, {"t": 11.636, "dur": 0.057, "note": 88, "inst": "organ_v0_additive_1", "vel": 1.0, "bend": 0.0, "ch": 8}, {"t": 11.694, "dur": 0.342, "note": 51, "inst": "piano_v0_additive_0", "vel": 1.0, "bend": 0.0, "ch": 3}, {"t": 11.694, "dur": 0.171, "note": 87, "inst": "piano_v0_additive_0", "vel": 1.0, "bend": 0.0, "ch": 7}, {"t": 11.865, "dur": 0.171, "note": 92, "inst": "harpsichord_v0_additive_2", "vel": 1.0, "bend": 0.0, "ch": 12}, {"t": 12.036, "dur": 0.342, "note": 46, "inst": "organ_v0_additive_1", "vel": 1.0, "bend": 0.0, "ch": 14}, {"t": 12.036, "dur": 0.171, "note": 90, "inst": "piano_v0_additive_0", "vel": 1.0, "bend": 0.0, "ch": 10}, {"t": 12.207, "dur": 0.171, "note": 87, "inst": "piano_v0_additive_0", "vel": 1.0, "bend": 0.0, "ch": 7}, {"t": 12.378, "dur": 0.342, "note": 51, "inst": "piano_v0_additive_0", "vel": 1.0, "bend": 0.0, "ch": 3}, {"t": 12.378, "dur": 0.086, "note": 82, "inst": "organ_v0_additive_1", "vel": 1.0, "bend": 0.0, "ch": 2}, {"t": 12.464, "dur": 0.086, "note": 80, "inst": "harpsichord_v0_additive_2", "vel": 1.0, "bend": 0.0, "ch": 0}, {"t": 12.55, "dur": 0.086, "note": 82, "inst": "organ_v0_additive_1", "vel": 1.0, "bend": 0.0, "ch": 2}, {"t": 12.635, "dur": 0.086, "note": 83, "inst": "harpsichord_v0_additive_2", "vel": 1.0, "bend": 0.0, "ch": 3}, {"t": 12.721, "dur": 0.342, "note": 46, "inst": "organ_v0_additive_1", "vel": 1.0, "bend": 0.0, "ch": 14}, {"t": 12.721, "dur": 0.086, "note": 85, "inst": "organ_v0_additive_1", "vel": 1.0, "bend": 0.0, "ch": 5}, {"t": 12.806, "dur": 0.086, "note": 87, "inst": "piano_v0_additive_0", "vel": 1.0, "bend": 0.0, "ch": 7}, {"t": 12.892, "dur": 0.086, "note": 88, "inst": "organ_v0_additive_1", "vel": 1.0, "bend": 0.0, "ch": 8}, {"t": 12.977, "dur": 0.086, "note": 90, "inst": "piano_v0_additive_0", "vel": 1.0, "bend": 0.0, "ch": 10}, {"t": 13.063, "dur": 0.342, "note": 52, "inst": "organ_v0_additive_1", "vel": 1.0, "bend": 0.0, "ch": 4}, {"t": 13.063, "dur": 0.342, "note": 92, "inst": "harpsichord_v0_additive_2", "vel": 1.0, "bend": 0.0, "ch": 12}, {"t": 13.405, "dur": 0.342, "note": 46, "inst": "organ_v0_additive_1", "vel": 1.0, "bend": 0.0, "ch": 14}, {"t": 13.577, "dur": 0.057, "note": 92, "inst": "harpsichord_v0_additive_2", "vel": 1.0, "bend": 0.0, "ch": 12}, {"t": 13.634, "dur": 0.057, "note": 94, "inst": "organ_v0_additive_1", "vel": 1.0, "bend": 0.0, "ch": 14}, {"t": 13.691, "dur": 0.057, "note": 92, "inst": "harpsichord_v0_additive_2", "vel": 1.0, "bend": 0.0, "ch": 12}, {"t": 13.748, "dur": 0.342, "note": 52, "inst": "organ_v0_additive_1", "vel": 1.0, "bend": 0.0, "ch": 4}, {"t": 13.748, "dur": 0.171, "note": 88, "inst": "organ_v0_additive_1", "vel": 1.0, "bend": 0.0, "ch": 8}, {"t": 13.919, "dur": 0.171, "note": 95, "inst": "harpsichord_v0_additive_2", "vel": 1.0, "bend": 0.0, "ch": 15}, {"t": 14.09, "dur": 0.342, "note": 46, "inst": "organ_v0_additive_1", "vel": 1.0, "bend": 0.0, "ch": 14}, {"t": 14.09, "dur": 0.171, "note": 94, "inst": "organ_v0_additive_1", "vel": 1.0, "bend": 0.0, "ch": 14}, {"t": 14.261, "dur": 0.057, "note": 88, "inst": "organ_v0_additive_1", "vel": 1.0, "bend": 0.0, "ch": 8}, {"t": 14.318, "dur": 0.057, "note": 90, "inst": "piano_v0_additive_0", "vel": 1.0, "bend": 0.0, "ch": 10}, {"t": 14.376, "dur": 0.057, "note": 88, "inst": "organ_v0_additive_1", "vel": 1.0, "bend": 0.0, "ch": 8}, {"t": 14.433, "dur": 0.342, "note": 52, "inst": "organ_v0_additive_1", "vel": 1.0, "bend": 0.0, "ch": 4}, {"t": 14.433, "dur": 0.171, "note": 85, "inst": "organ_v0_additive_1", "vel": 1.0, "bend": 0.0, "ch": 5}, {"t": 14.604, "dur": 0.171, "note": 90, "inst": "piano_v0_additive_0", "vel": 1.0, "bend": 0.0, "ch": 10}, {"t": 14.775, "dur": 0.342, "note": 46, "inst": "organ_v0_additive_1", "vel": 1.0, "bend": 0.0, "ch": 14}, {"t": 14.775, "dur": 0.171, "note": 88, "inst": "organ_v0_additive_1", "vel": 1.0, "bend": 0.0, "ch": 8}, {"t": 14.946, "dur": 0.171, "note": 85, "inst": "organ_v0_additive_1", "vel": 1.0, "bend": 0.0, "ch": 5}, {"t": 15.117, "dur": 0.342, "note": 49, "inst": "organ_v0_additive_1", "vel": 1.0, "bend": 0.0, "ch": 1}, {"t": 15.117, "dur": 0.086, "note": 82, "inst": "organ_v0_additive_1", "vel": 1.0, "bend": 0.0, "ch": 2}, {"t": 15.203, "dur": 0.086, "note": 80, "inst": "harpsichord_v0_additive_2", "vel": 1.0, "bend": 0.0, "ch": 0}, {"t": 15.289, "dur": 0.086, "note": 82, "inst": "organ_v0_additive_1", "vel": 1.0, "bend": 0.0, "ch": 2}, {"t": 15.374, "dur": 0.086, "note": 83, "inst": "harpsichord_v0_additive_2", "vel": 1.0, "bend": 0.0, "ch": 3}, {"t": 15.46, "dur": 0.342, "note": 46, "inst": "organ_v0_additive_1", "vel": 1.0, "bend": 0.0, "ch": 14}, {"t": 15.46, "dur": 0.086, "note": 85, "inst": "organ_v0_additive_1", "vel": 1.0, "bend": 0.0, "ch": 5}, {"t": 15.545, "dur": 0.086, "note": 87, "inst": "piano_v0_additive_0", "vel": 1.0, "bend": 0.0, "ch": 7}, {"t": 15.631, "dur": 0.086, "note": 88, "inst": "organ_v0_additive_1", "vel": 1.0, "bend": 0.0, "ch": 8}, {"t": 15.717, "dur": 0.086, "note": 90, "inst": "piano_v0_additive_0", "vel": 1.0, "bend": 0.0, "ch": 10}, {"t": 15.802, "dur": 0.342, "note": 51, "inst": "piano_v0_additive_0", "vel": 1.0, "bend": 0.0, "ch": 3}, {"t": 15.802, "dur": 0.342, "note": 90, "inst": "piano_v0_additive_0", "vel": 1.0, "bend": 0.0, "ch": 10}, {"t": 16.145, "dur": 0.342, "note": 46, "inst": "organ_v0_additive_1", "vel": 1.0, "bend": 0.0, "ch": 14}, {"t": 16.487, "dur": 0.342, "note": 51, "inst": "piano_v0_additive_0", "vel": 1.0, "bend": 0.0, "ch": 3}, {"t": 16.487, "dur": 0.171, "note": 90, "inst": "piano_v0_additive_0", "vel": 1.0, "bend": 0.0, "ch": 10}, {"t": 16.658, "dur": 0.171, "note": 95, "inst": "harpsichord_v0_additive_2", "vel": 1.0, "bend": 0.0, "ch": 15}, {"t": 16.829, "dur": 0.342, "note": 46, "inst": "organ_v0_additive_1", "vel": 1.0, "bend": 0.0, "ch": 14}, {"t": 16.829, "dur": 0.171, "note": 94, "inst": "organ_v0_additive_1", "vel": 1.0, "bend": 0.0, "ch": 14}, {"t": 17.0, "dur": 0.057, "note": 88, "inst": "organ_v0_additive_1", "vel": 1.0, "bend": 0.0, "ch": 8}, {"t": 17.058, "dur": 0.057, "note": 90, "inst": "piano_v0_additive_0", "vel": 1.0, "bend": 0.0, "ch": 10}, {"t": 17.115, "dur": 0.057, "note": 88, "inst": "organ_v0_additive_1", "vel": 1.0, "bend": 0.0, "ch": 8}, {"t": 17.172, "dur": 0.342, "note": 51, "inst": "piano_v0_additive_0", "vel": 1.0, "bend": 0.0, "ch": 3}, {"t": 17.172, "dur": 0.171, "note": 87, "inst": "piano_v0_additive_0", "vel": 1.0, "bend": 0.0, "ch": 7}, {"t": 17.343, "dur": 0.171, "note": 92, "inst": "harpsichord_v0_additive_2", "vel": 1.0, "bend": 0.0, "ch": 12}, {"t": 17.514, "dur": 0.342, "note": 46, "inst": "organ_v0_additive_1", "vel": 1.0, "bend": 0.0, "ch": 14}, {"t": 17.514, "dur": 0.171, "note": 90, "inst": "piano_v0_additive_0", "vel": 1.0, "bend": 0.0, "ch": 10}, {"t": 17.685, "dur": 0.171, "note": 87, "inst": "piano_v0_additive_0", "vel": 1.0, "bend": 0.0, "ch": 7}, {"t": 17.856, "dur": 0.342, "note": 51, "inst": "piano_v0_additive_0", "vel": 1.0, "bend": 0.0, "ch": 3}, {"t": 17.856, "dur": 0.086, "note": 82, "inst": "organ_v0_additive_1", "vel": 1.0, "bend": 0.0, "ch": 2}, {"t": 17.942, "dur": 0.086, "note": 83, "inst": "harpsichord_v0_additive_2", "vel": 1.0, "bend": 0.0, "ch": 3}, {"t": 18.028, "dur": 0.086, "note": 85, "inst": "organ_v0_additive_1", "vel": 1.0, "bend": 0.0, "ch": 5}, {"t": 18.113, "dur": 0.086, "note": 87, "inst": "piano_v0_additive_0", "vel": 1.0, "bend": 0.0, "ch": 7}, {"t": 18.199, "dur": 0.342, "note": 46, "inst": "organ_v0_additive_1", "vel": 1.0, "bend": 0.0, "ch": 14}, {"t": 18.199, "dur": 0.086, "note": 88, "inst": "organ_v0_additive_1", "vel": 1.0, "bend": 0.0, "ch": 8}, {"t": 18.284, "dur": 0.086, "note": 90, "inst": "piano_v0_additive_0", "vel": 1.0, "bend": 0.0, "ch": 10}, {"t": 18.37, "dur": 0.086, "note": 92, "inst": "harpsichord_v0_additive_2", "vel": 1.0, "bend": 0.0, "ch": 12}, {"t": 18.456, "dur": 0.086, "note": 94, "inst": "organ_v0_additive_1", "vel": 1.0, "bend": 0.0, "ch": 14}, {"t": 18.541, "dur": 0.342, "note": 56, "inst": "harpsichord_v0_additive_2", "vel": 1.0, "bend": 0.0, "ch": 8}, {"t": 18.541, "dur": 0.342, "note": 95, "inst": "harpsichord_v0_additive_2", "vel": 1.0, "bend": 0.0, "ch": 15}, {"t": 18.884, "dur": 0.342, "note": 56, "inst": "harpsichord_v0_additive_2", "vel": 1.0, "bend": 0.0, "ch": 8}, {"t": 19.226, "dur": 0.342, "note": 56, "inst": "harpsichord_v0_additive_2", "vel": 1.0, "bend": 0.0, "ch": 8}, {"t": 19.226, "dur": 0.171, "note": 83, "inst": "harpsichord_v0_additive_2", "vel": 1.0, "bend": 0.0, "ch": 3}, {"t": 19.397, "dur": 0.171, "note": 90, "inst": "piano_v0_additive_0", "vel": 1.0, "bend": 0.0, "ch": 10}, {"t": 19.568, "dur": 0.342, "note": 56, "inst": "harpsichord_v0_additive_2", "vel": 1.0, "bend": 0.0, "ch": 8}, {"t": 19.568, "dur": 0.171, "note": 88, "inst": "organ_v0_additive_1", "vel": 1.0, "bend": 0.0, "ch": 8}, {"t": 19.74, "dur": 0.171, "note": 83, "inst": "harpsichord_v0_additive_2", "vel": 1.0, "bend": 0.0, "ch": 3}, {"t": 19.911, "dur": 0.342, "note": 58, "inst": "organ_v0_additive_1", "vel": 1.0, "bend": 0.0, "ch": 10}, {"t": 19.911, "dur": 0.171, "note": 82, "inst": "organ_v0_additive_1", "vel": 1.0, "bend": 0.0, "ch": 2}, {"t": 20.082, "dur": 0.171, "note": 88, "inst": "organ_v0_additive_1", "vel": 1.0, "bend": 0.0, "ch": 8}, {"t": 20.253, "dur": 0.342, "note": 58, "inst": "organ_v0_additive_1", "vel": 1.0, "bend": 0.0, "ch": 10}, {"t": 20.253, "dur": 0.171, "note": 87, "inst": "piano_v0_additive_0", "vel": 1.0, "bend": 0.0, "ch": 7}, {"t": 20.424, "dur": 0.171, "note": 75, "inst": "piano_v0_additive_0", "vel": 1.0, "bend": 0.0, "ch": 11}, {"t": 20.595, "dur": 0.342, "note": 58, "inst": "organ_v0_additive_1", "vel": 1.0, "bend": 0.0, "ch": 10}, {"t": 20.595, "dur": 0.171, "note": 73, "inst": "organ_v0_additive_1", "vel": 1.0, "bend": 0.0, "ch": 9}, {"t": 20.767, "dur": 0.171, "note": 83, "inst": "harpsichord_v0_additive_2", "vel": 1.0, "bend": 0.0, "ch": 3}, {"t": 20.938, "dur": 0.342, "note": 58, "inst": "organ_v0_additive_1", "vel": 1.0, "bend": 0.0, "ch": 10}, {"t": 20.938, "dur": 0.171, "note": 82, "inst": "organ_v0_additive_1", "vel": 1.0, "bend": 0.0, "ch": 2}, {"t": 21.109, "dur": 0.171, "note": 73, "inst": "organ_v0_additive_1", "vel": 1.0, "bend": 0.0, "ch": 9}, {"t": 21.28, "dur": 0.342, "note": 51, "inst": "piano_v0_additive_0", "vel": 1.0, "bend": 0.0, "ch": 3}, {"t": 21.28, "dur": 0.342, "note": 75, "inst": "piano_v0_additive_0", "vel": 1.0, "bend": 0.0, "ch": 11}, {"t": 168.211, "dur": 0.673, "note": 77, "inst": "harpsichord_v0_additive_2", "vel": 0.992, "bend": 0.0, "ch": 13}, {"t": 168.211, "dur": 0.673, "note": 80, "inst": "harpsichord_v0_additive_2", "vel": 0.992, "bend": 0.0, "ch": 0}, {"t": 168.211, "dur": 0.673, "note": 82, "inst": "organ_v0_additive_1", "vel": 0.992, "bend": 0.0, "ch": 2}, {"t": 168.211, "dur": 0.112, "note": 87, "inst": "piano_v0_additive_0", "vel": 0.992, "bend": 0.0, "ch": 7}, {"t": 168.323, "dur": 0.056, "note": 85, "inst": "organ_v0_additive_1", "vel": 0.992, "bend": 0.0, "ch": 5}, {"t": 168.379, "dur": 0.449, "note": 89, "inst": "harpsichord_v0_additive_2", "vel": 0.992, "bend": 0.0, "ch": 9}, {"t": 168.828, "dur": 0.168, "note": 89, "inst": "harpsichord_v0_additive_2", "vel": 0.992, "bend": 0.0, "ch": 9}, {"t": 168.884, "dur": 0.224, "note": 82, "inst": "organ_v0_additive_1", "vel": 0.992, "bend": 0.0, "ch": 2}, {"t": 168.997, "dur": 0.112, "note": 94, "inst": "organ_v0_additive_1", "vel": 0.992, "bend": 0.0, "ch": 14}, {"t": 169.109, "dur": 0.056, "note": 61, "inst": "organ_v0_additive_1", "vel": 0.992, "bend": 0.0, "ch": 13}, {"t": 169.109, "dur": 0.056, "note": 65, "inst": "harpsichord_v0_additive_2", "vel": 0.992, "bend": 0.0, "ch": 1}, {"t": 169.109, "dur": 0.224, "note": 94, "inst": "organ_v0_additive_1", "vel": 0.992, "bend": 0.0, "ch": 14}, {"t": 169.165, "dur": 0.056, "note": 70, "inst": "organ_v0_additive_1", "vel": 0.992, "bend": 0.0, "ch": 6}, {"t": 169.221, "dur": 0.056, "note": 61, "inst": "organ_v0_additive_1", "vel": 0.992, "bend": 0.0, "ch": 13}, {"t": 169.221, "dur": 0.056, "note": 65, "inst": "harpsichord_v0_additive_2", "vel": 0.992, "bend": 0.0, "ch": 1}, {"t": 169.277, "dur": 0.056, "note": 70, "inst": "organ_v0_additive_1", "vel": 0.992, "bend": 0.0, "ch": 6}, {"t": 169.333, "dur": 0.056, "note": 61, "inst": "organ_v0_additive_1", "vel": 0.992, "bend": 0.0, "ch": 13}, {"t": 169.333, "dur": 0.056, "note": 65, "inst": "harpsichord_v0_additive_2", "vel": 0.992, "bend": 0.0, "ch": 1}, {"t": 169.333, "dur": 0.224, "note": 82, "inst": "organ_v0_additive_1", "vel": 0.992, "bend": 0.0, "ch": 2}, {"t": 169.333, "dur": 0.168, "note": 94, "inst": "organ_v0_additive_1", "vel": 0.992, "bend": 0.0, "ch": 14}, {"t": 169.389, "dur": 0.056, "note": 70, "inst": "organ_v0_additive_1", "vel": 0.992, "bend": 0.0, "ch": 6}, {"t": 169.445, "dur": 0.056, "note": 61, "inst": "organ_v0_additive_1", "vel": 0.992, "bend": 0.0, "ch": 13}, {"t": 169.445, "dur": 0.056, "note": 65, "inst": "harpsichord_v0_additive_2", "vel": 0.992, "bend": 0.0, "ch": 1}, {"t": 169.502, "dur": 0.056, "note": 70, "inst": "organ_v0_additive_1", "vel": 0.992, "bend": 0.0, "ch": 6}, {"t": 169.502, "dur": 0.056, "note": 87, "inst": "piano_v0_additive_0", "vel": 0.992, "bend": 0.0, "ch": 7}, {"t": 169.558, "dur": 0.056, "note": 61, "inst": "organ_v0_additive_1", "vel": 0.992, "bend": 0.0, "ch": 13}, {"t": 169.558, "dur": 0.056, "note": 65, "inst": "harpsichord_v0_additive_2", "vel": 0.992, "bend": 0.0, "ch": 1}, {"t": 169.558, "dur": 0.224, "note": 87, "inst": "piano_v0_additive_0", "vel": 0.992, "bend": 0.0, "ch": 7}, {"t": 169.614, "dur": 0.056, "note": 70, "inst": "organ_v0_additive_1", "vel": 0.992, "bend": 0.0, "ch": 6}, {"t": 169.67, "dur": 0.056, "note": 61, "inst": "organ_v0_additive_1", "vel": 0.992, "bend": 0.0, "ch": 13}, {"t": 169.67, "dur": 0.056, "note": 65, "inst": "harpsichord_v0_additive_2", "vel": 0.992, "bend": 0.0, "ch": 1}, {"t": 169.726, "dur": 0.056, "note": 70, "inst": "organ_v0_additive_1", "vel": 0.992, "bend": 0.0, "ch": 6}, {"t": 169.782, "dur": 0.056, "note": 63, "inst": "piano_v0_additive_0", "vel": 0.992, "bend": 0.0, "ch": 15}, {"t": 169.782, "dur": 0.056, "note": 67, "inst": "organ_v0_additive_1", "vel": 0.992, "bend": 0.0, "ch": 3}, {"t": 169.782, "dur": 0.224, "note": 80, "inst": "harpsichord_v0_additive_2", "vel": 0.992, "bend": 0.0, "ch": 0}, {"t": 169.782, "dur": 0.168, "note": 85, "inst": "organ_v0_additive_1", "vel": 0.992, "bend": 0.0, "ch": 5}, {"t": 169.838, "dur": 0.056, "note": 70, "inst": "organ_v0_additive_1", "vel": 0.992, "bend": 0.0, "ch": 6}, {"t": 169.894, "dur": 0.056, "note": 63, "inst": "piano_v0_additive_0", "vel": 0.992, "bend": 0.0, "ch": 15}, {"t": 169.894, "dur": 0.056, "note": 67, "inst": "organ_v0_additive_1", "vel": 0.992, "bend": 0.0, "ch": 3}, {"t": 169.95, "dur": 0.056, "note": 70, "inst": "organ_v0_additive_1", "vel": 0.992, "bend": 0.0, "ch": 6}, {"t": 169.95, "dur": 0.056, "note": 89, "inst": "harpsichord_v0_additive_2", "vel": 0.992, "bend": 0.0, "ch": 9}, {"t": 170.007, "dur": 0.056, "note": 65, "inst": "harpsichord_v0_additive_2", "vel": 0.992, "bend": 0.0, "ch": 1}, {"t": 170.007, "dur": 0.056, "note": 68, "inst": "harpsichord_v0_additive_2", "vel": 0.992, "bend": 0.0, "ch": 4}, {"t": 170.007, "dur": 0.112, "note": 89, "inst": "harpsichord_v0_additive_2", "vel": 0.992, "bend": 0.0, "ch": 9}, {"t": 170.063, "dur": 0.056, "note": 70, "inst": "organ_v0_additive_1", "vel": 0.992, "bend": 0.0, "ch": 6}, {"t": 170.119, "dur": 0.056, "note": 65, "inst": "harpsichord_v0_additive_2", "vel": 0.992, "bend": 0.0, "ch": 1}, {"t": 170.119, "dur": 0.056, "note": 68, "inst": "harpsichord_v0_additive_2", "vel": 0.992, "bend": 0.0, "ch": 4}, {"t": 170.119, "dur": 0.449, "note": 89, "inst": "harpsichord_v0_additive_2", "vel": 0.992, "bend": 0.0, "ch": 9}, {"t": 170.175, "dur": 0.056, "note": 70, "inst": "organ_v0_additive_1", "vel": 0.992, "bend": 0.0, "ch": 6}, {"t": 170.231, "dur": 0.056, "note": 65, "inst": "harpsichord_v0_additive_2", "vel": 0.992, "bend": 0.0, "ch": 1}, {"t": 170.231, "dur": 0.056, "note": 68, "inst": "harpsichord_v0_additive_2", "vel": 0.992, "bend": 0.0, "ch": 4}, {"t": 170.231, "dur": 0.224, "note": 77, "inst": "harpsichord_v0_additive_2", "vel": 0.992, "bend": 0.0, "ch": 13}, {"t": 170.287, "dur": 0.056, "note": 70, "inst": "organ_v0_additive_1", "vel": 0.992, "bend": 0.0, "ch": 6}, {"t": 170.343, "dur": 0.056, "note": 65, "inst": "harpsichord_v0_additive_2", "vel": 0.992, "bend": 0.0, "ch": 1}, {"t": 170.343, "dur": 0.056, "note": 68, "inst": "harpsichord_v0_additive_2", "vel": 0.992, "bend": 0.0, "ch": 4}, {"t": 170.399, "dur": 0.056, "note": 70, "inst": "organ_v0_additive_1", "vel": 0.992, "bend": 0.0, "ch": 6}, {"t": 170.456, "dur": 0.056, "note": 65, "inst": "harpsichord_v0_additive_2", "vel": 0.992, "bend": 0.0, "ch": 1}, {"t": 170.456, "dur": 0.056, "note": 68, "inst": "harpsichord_v0_additive_2", "vel": 0.992, "bend": 0.0, "ch": 4}, {"t": 170.456, "dur": 0.112, "note": 77, "inst": "harpsichord_v0_additive_2", "vel": 0.992, "bend": 0.0, "ch": 13}, {"t": 170.512, "dur": 0.056, "note": 70, "inst": "organ_v0_additive_1", "vel": 0.992, "bend": 0.0, "ch": 6}, {"t": 170.568, "dur": 0.056, "note": 63, "inst": "piano_v0_additive_0", "vel": 0.992, "bend": 0.0, "ch": 15}, {"t": 170.568, "dur": 0.056, "note": 67, "inst": "organ_v0_additive_1", "vel": 0.992, "bend": 0.0, "ch": 3}, {"t": 170.568, "dur": 0.112, "note": 82, "inst": "organ_v0_additive_1", "vel": 0.992, "bend": 0.0, "ch": 2}, {"t": 170.624, "dur": 0.056, "note": 70, "inst": "organ_v0_additive_1", "vel": 0.992, "bend": 0.0, "ch": 6}, {"t": 170.68, "dur": 0.056, "note": 61, "inst": "organ_v0_additive_1", "vel": 0.992, "bend": 0.0, "ch": 13}, {"t": 170.68, "dur": 0.056, "note": 65, "inst": "harpsichord_v0_additive_2", "vel": 0.992, "bend": 0.0, "ch": 1}, {"t": 170.68, "dur": 0.112, "note": 82, "inst": "organ_v0_additive_1", "vel": 0.992, "bend": 0.0, "ch": 2}, {"t": 170.736, "dur": 0.056, "note": 70, "inst": "organ_v0_additive_1", "vel": 0.992, "bend": 0.0, "ch": 6}, {"t": 170.792, "dur": 0.056, "note": 61, "inst": "organ_v0_additive_1", "vel": 0.992, "bend": 0.0, "ch": 13}, {"t": 170.792, "dur": 0.056, "note": 65, "inst": "harpsichord_v0_additive_2", "vel": 0.992, "bend": 0.0, "ch": 1}, {"t": 170.792, "dur": 0.112, "note": 82, "inst": "organ_v0_additive_1", "vel": 0.992, "bend": 0.0, "ch": 2}, {"t": 170.848, "dur": 0.056, "note": 70, "inst": "organ_v0_additive_1", "vel": 0.992, "bend": 0.0, "ch": 6}, {"t": 170.904, "dur": 0.056, "note": 61, "inst": "organ_v0_additive_1", "vel": 0.992, "bend": 0.0, "ch": 13}, {"t": 170.904, "dur": 0.056, "note": 65, "inst": "harpsichord_v0_additive_2", "vel": 0.992, "bend": 0.0, "ch": 1}, {"t": 170.904, "dur": 0.224, "note": 85, "inst": "organ_v0_additive_1", "vel": 0.992, "bend": 0.0, "ch": 5}, {"t": 170.961, "dur": 0.056, "note": 70, "inst": "organ_v0_additive_1", "vel": 0.992, "bend": 0.0, "ch": 6}, {"t": 171.017, "dur": 0.056, "note": 61, "inst": "organ_v0_additive_1", "vel": 0.992, "bend": 0.0, "ch": 13}, {"t": 171.017, "dur": 0.056, "note": 65, "inst": "harpsichord_v0_additive_2", "vel": 0.992, "bend": 0.0, "ch": 1}, {"t": 171.073, "dur": 0.056, "note": 70, "inst": "organ_v0_additive_1", "vel": 0.992, "bend": 0.0, "ch": 6}, {"t": 171.129, "dur": 0.056, "note": 61, "inst": "organ_v0_additive_1", "vel": 0.992, "bend": 0.0, "ch": 13}, {"t": 171.129, "dur": 0.056, "note": 65, "inst": "harpsichord_v0_additive_2", "vel": 0.992, "bend": 0.0, "ch": 1}, {"t": 171.129, "dur": 6.285, "note": 84, "inst": "piano_v0_additive_0", "vel": 0.992, "bend": 0.0, "ch": 4}, {"t": 171.129, "dur": 0.168, "note": 85, "inst": "organ_v0_additive_1", "vel": 0.992, "bend": 0.0, "ch": 5}, {"t": 171.185, "dur": 0.056, "note": 70, "inst": "organ_v0_additive_1", "vel": 0.992, "bend": 0.0, "ch": 6}, {"t": 171.241, "dur": 0.056, "note": 61, "inst": "organ_v0_additive_1", "vel": 0.992, "bend": 0.0, "ch": 13}, {"t": 171.241, "dur": 0.056, "note": 65, "inst": "harpsichord_v0_additive_2", "vel": 0.992, "bend": 0.0, "ch": 1}, {"t": 171.297, "dur": 0.056, "note": 70, "inst": "organ_v0_additive_1", "vel": 0.992, "bend": 0.0, "ch": 6}, {"t": 171.297, "dur": 0.056, "note": 87, "inst": "piano_v0_additive_0", "vel": 0.992, "bend": 0.0, "ch": 7}, {"t": 171.353, "dur": 0.056, "note": 61, "inst": "organ_v0_additive_1", "vel": 0.992, "bend": 0.0, "ch": 13}, {"t": 171.353, "dur": 0.056, "note": 65, "inst": "harpsichord_v0_additive_2", "vel": 0.992, "bend": 0.0, "ch": 1}, {"t": 171.353, "dur": 0.281, "note": 87, "inst": "piano_v0_additive_0", "vel": 0.992, "bend": 0.0, "ch": 7}, {"t": 171.41, "dur": 0.056, "note": 70, "inst": "organ_v0_additive_1", "vel": 0.992, "bend": 0.0, "ch": 6}, {"t": 171.466, "dur": 0.056, "note": 61, "inst": "organ_v0_additive_1", "vel": 0.992, "bend": 0.0, "ch": 13}, {"t": 171.466, "dur": 0.056, "note": 65, "inst": "harpsichord_v0_additive_2", "vel": 0.992, "bend": 0.0, "ch": 1}, {"t": 171.522, "dur": 0.056, "note": 70, "inst": "organ_v0_additive_1", "vel": 0.992, "bend": 0.0, "ch": 6}, {"t": 171.578, "dur": 0.056, "note": 63, "inst": "piano_v0_additive_0", "vel": 0.992, "bend": 0.0, "ch": 15}, {"t": 171.578, "dur": 0.056, "note": 67, "inst": "organ_v0_additive_1", "vel": 0.992, "bend": 0.0, "ch": 3}, {"t": 171.634, "dur": 0.056, "note": 70, "inst": "organ_v0_additive_1", "vel": 0.992, "bend": 0.0, "ch": 6}, {"t": 171.634, "dur": 0.056, "note": 87, "inst": "piano_v0_additive_0", "vel": 0.992, "bend": 0.0, "ch": 7}, {"t": 171.69, "dur": 0.056, "note": 63, "inst": "piano_v0_additive_0", "vel": 0.992, "bend": 0.0, "ch": 15}, {"t": 171.69, "dur": 0.056, "note": 67, "inst": "organ_v0_additive_1", "vel": 0.992, "bend": 0.0, "ch": 3}, {"t": 171.69, "dur": 0.056, "note": 97, "inst": "organ_v0_additive_1", "vel": 0.992, "bend": 0.0, "ch": 1}, {"t": 171.746, "dur": 0.056, "note": 70, "inst": "organ_v0_additive_1", "vel": 0.992, "bend": 0.0, "ch": 6}, {"t": 171.746, "dur": 0.056, "note": 94, "inst": "organ_v0_additive_1", "vel": 0.992, "bend": 0.0, "ch": 14}, {"t": 171.802, "dur": 0.056, "note": 65, "inst": "harpsichord_v0_additive_2", "vel": 0.992, "bend": 0.0, "ch": 1}, {"t": 171.802, "dur": 0.056, "note": 68, "inst": "harpsichord_v0_additive_2", "vel": 0.992, "bend": 0.0, "ch": 4}, {"t": 171.802, "dur": 0.337, "note": 94, "inst": "organ_v0_additive_1", "vel": 0.992, "bend": 0.0, "ch": 14}, {"t": 171.858, "dur": 0.056, "note": 70, "inst": "organ_v0_additive_1", "vel": 0.992, "bend": 0.0, "ch": 6}, {"t": 171.915, "dur": 0.056, "note": 65, "inst": "harpsichord_v0_additive_2", "vel": 0.992, "bend": 0.0, "ch": 1}, {"t": 171.915, "dur": 0.056, "note": 68, "inst": "harpsichord_v0_additive_2", "vel": 0.992, "bend": 0.0, "ch": 4}, {"t": 171.971, "dur": 0.056, "note": 70, "inst": "organ_v0_additive_1", "vel": 0.992, "bend": 0.0, "ch": 6}, {"t": 172.027, "dur": 0.056, "note": 65, "inst": "harpsichord_v0_additive_2", "vel": 0.992, "bend": 0.0, "ch": 1}, {"t": 172.027, "dur": 0.056, "note": 68, "inst": "harpsichord_v0_additive_2", "vel": 0.992, "bend": 0.0, "ch": 4}, {"t": 172.083, "dur": 0.056, "note": 70, "inst": "organ_v0_additive_1", "vel": 0.992, "bend": 0.0, "ch": 6}, {"t": 172.139, "dur": 0.056, "note": 65, "inst": "harpsichord_v0_additive_2", "vel": 0.992, "bend": 0.0, "ch": 1}, {"t": 172.139, "dur": 0.056, "note": 68, "inst": "harpsichord_v0_additive_2", "vel": 0.992, "bend": 0.0, "ch": 4}, {"t": 172.139, "dur": 0.056, "note": 97, "inst": "organ_v0_additive_1", "vel": 0.992, "bend": 0.0, "ch": 1}, {"t": 172.195, "dur": 0.056, "note": 70, "inst": "organ_v0_additive_1", "vel": 0.992, "bend": 0.0, "ch": 6}, {"t": 172.195, "dur": 0.056, "note": 94, "inst": "organ_v0_additive_1", "vel": 0.992, "bend": 0.0, "ch": 14}, {"t": 172.251, "dur": 0.056, "note": 65, "inst": "harpsichord_v0_additive_2", "vel": 0.992, "bend": 0.0, "ch": 1}, {"t": 172.251, "dur": 0.056, "note": 68, "inst": "harpsichord_v0_additive_2", "vel": 0.992, "bend": 0.0, "ch": 4}, {"t": 172.307, "dur": 0.056, "note": 70, "inst": "organ_v0_additive_1", "vel": 0.992, "bend": 0.0, "ch": 6}, {"t": 172.364, "dur": 0.056, "note": 63, "inst": "piano_v0_additive_0", "vel": 0.992, "bend": 0.0, "ch": 15}, {"t": 172.364, "dur": 0.056, "note": 65, "inst": "harpsichord_v0_additive_2", "vel": 0.992, "bend": 0.0, "ch": 1}, {"t": 172.42, "dur": 0.056, "note": 70, "inst": "organ_v0_additive_1", "vel": 0.992, "bend": 0.0, "ch": 6}, {"t": 172.476, "dur": 0.056, "note": 61, "inst": "organ_v0_additive_1", "vel": 0.992, "bend": 0.0, "ch": 13}, {"t": 172.476, "dur": 0.056, "note": 65, "inst": "harpsichord_v0_additive_2", "vel": 0.992, "bend": 0.0, "ch": 1}, {"t": 172.476, "dur": 0.112, "note": 75, "inst": "piano_v0_additive_0", "vel": 0.992, "bend": 0.0, "ch": 11}, {"t": 172.532, "dur": 0.056, "note": 70, "inst": "organ_v0_additive_1", "vel": 0.992, "bend": 0.0, "ch": 6}, {"t": 172.588, "dur": 0.056, "note": 61, "inst": "organ_v0_additive_1", "vel": 0.992, "bend": 0.0, "ch": 13}, {"t": 172.588, "dur": 0.056, "note": 65, "inst": "harpsichord_v0_additive_2", "vel": 0.992, "bend": 0.0, "ch": 1}, {"t": 172.588, "dur": 0.112, "note": 75, "inst": "piano_v0_additive_0", "vel": 0.992, "bend": 0.0, "ch": 11}, {"t": 172.644, "dur": 0.056, "note": 70, "inst": "organ_v0_additive_1", "vel": 0.992, "bend": 0.0, "ch": 6}, {"t": 172.7, "dur": 0.056, "note": 63, "inst": "piano_v0_additive_0", "vel": 0.992, "bend": 0.0, "ch": 15}, {"t": 172.7, "dur": 0.673, "note": 65, "inst": "harpsichord_v0_additive_2", "vel": 0.992, "bend": 0.0, "ch": 1}, {"t": 172.7, "dur": 0.056, "note": 65, "inst": "harpsichord_v0_additive_2", "vel": 0.992, "bend": 0.0, "ch": 1}, {"t": 172.7, "dur": 0.673, "note": 68, "inst": "harpsichord_v0_additive_2", "vel": 0.992, "bend": 0.0, "ch": 4}, {"t": 172.7, "dur": 0.673, "note": 70, "inst": "organ_v0_additive_1", "vel": 0.992, "bend": 0.0, "ch": 6}, {"t": 172.7, "dur": 0.168, "note": 75, "inst": "piano_v0_additive_0", "vel": 0.992, "bend": 0.0, "ch": 11}, {"t": 172.756, "dur": 0.056, "note": 70, "inst": "organ_v0_additive_1", "vel": 1.0, "bend": 0.0, "ch": 6}, {"t": 172.812, "dur": 0.056, "note": 73, "inst": "organ_v0_additive_1", "vel": 1.0, "bend": 0.0, "ch": 9}, {"t": 172.869, "dur": 0.056, "note": 73, "inst": "organ_v0_additive_1", "vel": 0.992, "bend": 0.0, "ch": 9}, {"t": 172.869, "dur": 0.056, "note": 75, "inst": "piano_v0_additive_0", "vel": 1.0, "bend": 0.0, "ch": 11}, {"t": 172.925, "dur": 0.056, "note": 70, "inst": "organ_v0_additive_1", "vel": 1.0, "bend": 0.0, "ch": 6}, {"t": 172.925, "dur": 0.449, "note": 77, "inst": "harpsichord_v0_additive_2", "vel": 0.992, "bend": 0.0, "ch": 13}, {"t": 172.981, "dur": 0.056, "note": 65, "inst": "harpsichord_v0_additive_2", "vel": 1.0, "bend": 0.0, "ch": 1}, {"t": 173.037, "dur": 0.056, "note": 65, "inst": "harpsichord_v0_additive_2", "vel": 0.992, "bend": 0.0, "ch": 1}, {"t": 173.093, "dur": 0.056, "note": 63, "inst": "piano_v0_additive_0", "vel": 1.0, "bend": 0.0, "ch": 15}, {"t": 173.149, "dur": 0.056, "note": 58, "inst": "organ_v0_additive_1", "vel": 0.992, "bend": 0.0, "ch": 10}, {"t": 173.149, "dur": 0.056, "note": 61, "inst": "organ_v0_additive_1", "vel": 0.992, "bend": 0.0, "ch": 13}, {"t": 173.205, "dur": 0.056, "note": 65, "inst": "harpsichord_v0_additive_2", "vel": 1.0, "bend": 0.0, "ch": 1}, {"t": 173.261, "dur": 0.056, "note": 68, "inst": "harpsichord_v0_additive_2", "vel": 1.0, "bend": 0.0, "ch": 4}, {"t": 173.317, "dur": 0.056, "note": 58, "inst": "organ_v0_additive_1", "vel": 1.0, "bend": 0.0, "ch": 10}, {"t": 173.374, "dur": 0.056, "note": 58, "inst": "organ_v0_additive_1", "vel": 1.0, "bend": 0.0, "ch": 10}, {"t": 173.374, "dur": 0.224, "note": 65, "inst": "harpsichord_v0_additive_2", "vel": 0.992, "bend": 0.0, "ch": 1}, {"t": 173.374, "dur": 0.224, "note": 70, "inst": "organ_v0_additive_1", "vel": 0.992, "bend": 0.0, "ch": 6}, {"t": 173.374, "dur": 0.168, "note": 77, "inst": "harpsichord_v0_additive_2", "vel": 0.992, "bend": 0.0, "ch": 13}, {"t": 173.43, "dur": 0.056, "note": 63, "inst": "piano_v0_additive_0", "vel": 1.0, "bend": 0.0, "ch": 15}, {"t": 173.486, "dur": 0.056, "note": 65, "inst": "harpsichord_v0_additive_2", "vel": 1.0, "bend": 0.0, "ch": 1}, {"t": 173.542, "dur": 0.056, "note": 58, "inst": "organ_v0_additive_1", "vel": 1.0, "bend": 0.0, "ch": 10}, {"t": 173.542, "dur": 0.056, "note": 75, "inst": "piano_v0_additive_0", "vel": 0.992, "bend": 0.0, "ch": 11}, {"t": 173.598, "dur": 0.056, "note": 58, "inst": "organ_v0_additive_1", "vel": 0.992, "bend": 0.0, "ch": 10}, {"t": 173.598, "dur": 0.056, "note": 63, "inst": "piano_v0_additive_0", "vel": 0.992, "bend": 0.0, "ch": 15}, {"t": 173.598, "dur": 0.224, "note": 68, "inst": "harpsichord_v0_additive_2", "vel": 0.992, "bend": 0.0, "ch": 4}, {"t": 173.598, "dur": 0.224, "note": 70, "inst": "organ_v0_additive_1", "vel": 0.992, "bend": 0.0, "ch": 6}, {"t": 173.598, "dur": 0.168, "note": 75, "inst": "piano_v0_additive_0", "vel": 0.992, "bend": 0.0, "ch": 11}, {"t": 173.654, "dur": 0.056, "note": 65, "inst": "harpsichord_v0_additive_2", "vel": 0.992, "bend": 0.0, "ch": 1}, {"t": 173.71, "dur": 0.056, "note": 70, "inst": "organ_v0_additive_1", "vel": 0.992, "bend": 0.0, "ch": 6}, {"t": 173.766, "dur": 0.056, "note": 70, "inst": "organ_v0_additive_1", "vel": 0.992, "bend": 0.0, "ch": 6}, {"t": 173.766, "dur": 0.056, "note": 73, "inst": "organ_v0_additive_1", "vel": 0.992, "bend": 0.0, "ch": 9}, {"t": 173.823, "dur": 0.224, "note": 65, "inst": "harpsichord_v0_additive_2", "vel": 0.992, "bend": 0.0, "ch": 1}, {"t": 173.823, "dur": 0.056, "note": 65, "inst": "harpsichord_v0_additive_2", "vel": 0.992, "bend": 0.0, "ch": 1}, {"t": 173.823, "dur": 0.224, "note": 70, "inst": "organ_v0_additive_1", "vel": 0.992, "bend": 0.0, "ch": 6}, {"t": 173.823, "dur": 0.168, "note": 77, "inst": "harpsichord_v0_additive_2", "vel": 0.992, "bend": 0.0, "ch": 13}, {"t": 173.879, "dur": 0.056, "note": 63, "inst": "piano_v0_additive_0", "vel": 0.992, "bend": 0.0, "ch": 15}, {"t": 173.935, "dur": 0.056, "note": 61, "inst": "organ_v0_additive_1", "vel": 0.992, "bend": 0.0, "ch": 13}, {"t": 173.991, "dur": 0.056, "note": 58, "inst": "organ_v0_additive_1", "vel": 0.992, "bend": 0.0, "ch": 10}, {"t": 173.991, "dur": 0.056, "note": 75, "inst": "piano_v0_additive_0", "vel": 0.992, "bend": 0.0, "ch": 11}, {"t": 174.047, "dur": 0.056, "note": 51, "inst": "piano_v0_additive_0", "vel": 0.992, "bend": 0.0, "ch": 3}, {"t": 174.047, "dur": 0.056, "note": 55, "inst": "organ_v0_additive_1", "vel": 0.992, "bend": 0.0, "ch": 7}, {"t": 174.047, "dur": 0.224, "note": 65, "inst": "harpsichord_v0_additive_2", "vel": 0.992, "bend": 0.0, "ch": 1}, {"t": 174.047, "dur": 0.224, "note": 70, "inst": "organ_v0_additive_1", "vel": 0.992, "bend": 0.0, "ch": 6}, {"t": 174.047, "dur": 0.168, "note": 77, "inst": "harpsichord_v0_additive_2", "vel": 0.992, "bend": 0.0, "ch": 13}, {"t": 174.103, "dur": 0.056, "note": 58, "inst": "organ_v0_additive_1", "vel": 0.992, "bend": 0.0, "ch": 10}, {"t": 174.159, "dur": 0.056, "note": 63, "inst": "piano_v0_additive_0", "vel": 0.992, "bend": 0.0, "ch": 15}, {"t": 174.215, "dur": 0.056, "note": 55, "inst": "organ_v0_additive_1", "vel": 0.992, "bend": 0.0, "ch": 7}, {"t": 174.215, "dur": 0.056, "note": 77, "inst": "harpsichord_v0_additive_2", "vel": 0.496, "bend": 0.0, "ch": 13}, {"t": 174.271, "dur": 0.056, "note": 56, "inst": "harpsichord_v0_additive_2", "vel": 0.992, "bend": 0.0, "ch": 8}, {"t": 174.271, "dur": 0.056, "note": 73, "inst": "organ_v0_additive_1", "vel": 0.496, "bend": 0.0, "ch": 9}, {"t": 174.328, "dur": 0.056, "note": 58, "inst": "organ_v0_additive_1", "vel": 0.992, "bend": 0.0, "ch": 10}, {"t": 174.328, "dur": 0.056, "note": 77, "inst": "harpsichord_v0_additive_2", "vel": 0.496, "bend": 0.0, "ch": 13}, {"t": 174.384, "dur": 0.056, "note": 63, "inst": "piano_v0_additive_0", "vel": 0.992, "bend": 0.0, "ch": 15}, {"t": 174.384, "dur": 0.056, "note": 80, "inst": "harpsichord_v0_additive_2", "vel": 0.496, "bend": 0.0, "ch": 0}, {"t": 174.44, "dur": 0.056, "note": 56, "inst": "harpsichord_v0_additive_2", "vel": 0.992, "bend": 0.0, "ch": 8}, {"t": 174.44, "dur": 0.056, "note": 82, "inst": "organ_v0_additive_1", "vel": 0.496, "bend": 0.0, "ch": 2}, {"t": 174.496, "dur": 0.056, "note": 82, "inst": "organ_v0_additive_1", "vel": 0.496, "bend": 0.0, "ch": 2}, {"t": 174.552, "dur": 0.056, "note": 80, "inst": "harpsichord_v0_additive_2", "vel": 0.496, "bend": 0.0, "ch": 0}, {"t": 174.608, "dur": 0.056, "note": 77, "inst": "harpsichord_v0_additive_2", "vel": 0.496, "bend": 0.0, "ch": 13}, {"t": 174.664, "dur": 0.056, "note": 77, "inst": "harpsichord_v0_additive_2", "vel": 0.496, "bend": 0.0, "ch": 13}, {"t": 174.72, "dur": 0.056, "note": 80, "inst": "harpsichord_v0_additive_2", "vel": 0.496, "bend": 0.0, "ch": 0}, {"t": 174.777, "dur": 0.056, "note": 85, "inst": "organ_v0_additive_1", "vel": 0.496, "bend": 0.0, "ch": 5}, {"t": 174.833, "dur": 0.056, "note": 89, "inst": "harpsichord_v0_additive_2", "vel": 0.496, "bend": 0.0, "ch": 9}, {"t": 174.889, "dur": 0.056, "note": 92, "inst": "harpsichord_v0_additive_2", "vel": 0.496, "bend": 0.0, "ch": 12}, {"t": 174.945, "dur": 0.056, "note": 89, "inst": "harpsichord_v0_additive_2", "vel": 0.496, "bend": 0.0, "ch": 9}, {"t": 175.001, "dur": 0.056, "note": 89, "inst": "harpsichord_v0_additive_2", "vel": 0.496, "bend": 0.0, "ch": 9}, {"t": 175.057, "dur": 0.056, "note": 87, "inst": "piano_v0_additive_0", "vel": 0.496, "bend": 0.0, "ch": 7}, {"t": 175.113, "dur": 0.056, "note": 85, "inst": "organ_v0_additive_1", "vel": 0.496, "bend": 0.0, "ch": 5}, {"t": 175.169, "dur": 0.056, "note": 89, "inst": "harpsichord_v0_additive_2", "vel": 0.496, "bend": 0.0, "ch": 9}, {"t": 175.225, "dur": 0.056, "note": 92, "inst": "harpsichord_v0_additive_2", "vel": 0.496, "bend": 0.0, "ch": 12}, {"t": 175.282, "dur": 0.056, "note": 94, "inst": "organ_v0_additive_1", "vel": 0.496, "bend": 0.0, "ch": 14}, {"t": 175.338, "dur": 0.056, "note": 94, "inst": "organ_v0_additive_1", "vel": 0.496, "bend": 0.0, "ch": 14}, {"t": 175.394, "dur": 0.056, "note": 94, "inst": "organ_v0_additive_1", "vel": 0.496, "bend": 0.0, "ch": 14}, {"t": 175.45, "dur": 0.056, "note": 92, "inst": "harpsichord_v0_additive_2", "vel": 0.496, "bend": 0.0, "ch": 12}, {"t": 175.506, "dur": 0.056, "note": 89, "inst": "harpsichord_v0_additive_2", "vel": 0.496, "bend": 0.0, "ch": 9}, {"t": 175.562, "dur": 0.056, "note": 89, "inst": "harpsichord_v0_additive_2", "vel": 0.496, "bend": 0.0, "ch": 9}, {"t": 175.618, "dur": 0.056, "note": 92, "inst": "harpsichord_v0_additive_2", "vel": 0.496, "bend": 0.0, "ch": 12}, {"t": 175.674, "dur": 0.056, "note": 89, "inst": "harpsichord_v0_additive_2", "vel": 0.496, "bend": 0.0, "ch": 9}, {"t": 175.731, "dur": 0.056, "note": 87, "inst": "piano_v0_additive_0", "vel": 0.496, "bend": 0.0, "ch": 7}, {"t": 175.787, "dur": 0.056, "note": 85, "inst": "organ_v0_additive_1", "vel": 0.496, "bend": 0.0, "ch": 5}, {"t": 175.843, "dur": 0.056, "note": 92, "inst": "harpsichord_v0_additive_2", "vel": 0.496, "bend": 0.0, "ch": 12}, {"t": 175.899, "dur": 0.056, "note": 89, "inst": "harpsichord_v0_additive_2", "vel": 0.496, "bend": 0.0, "ch": 9}, {"t": 175.955, "dur": 0.056, "note": 87, "inst": "piano_v0_additive_0", "vel": 0.496, "bend": 0.0, "ch": 7}, {"t": 176.011, "dur": 0.056, "note": 85, "inst": "organ_v0_additive_1", "vel": 0.496, "bend": 0.0, "ch": 5}, {"t": 176.067, "dur": 0.056, "note": 89, "inst": "harpsichord_v0_additive_2", "vel": 0.496, "bend": 0.0, "ch": 9}, {"t": 176.067, "dur": 0.056, "note": 101, "inst": "harpsichord_v0_additive_2", "vel": 0.496, "bend": 0.0, "ch": 5}], "instruments": ["harpsichord_v0_additive_2", "organ_v0_additive_1", "piano_v0_additive_0"], "duration": 177.414, "n_events": 441}