{"events": [{"t": 0.105, "dur": 0.342, "note": 59, "inst": "celesta_v0_additive_3", "vel": 1.0, "bend": 0.0, "ch": 11}, {"t": 0.448, "dur": 0.685, "note": 28, "inst": "piano_v0_additive_0", "vel": 1.0, "bend": 0.0, "ch": 12}, {"t": 0.448, "dur": 0.342, "note": 59, "inst": "celesta_v0_additive_3", "vel": 1.0, "bend": 0.0, "ch": 11}, {"t": 0.79, "dur": 0.114, "note": 59, "inst": "celesta_v0_additive_3", "vel": 1.0, "bend": 0.0, "ch": 11}, {"t": 0.904, "dur": 0.114, "note": 59, "inst": "celesta_v0_additive_3", "vel": 1.0, "bend": 0.0, "ch": 11}, {"t": 1.018, "dur": 0.114, "note": 59, "inst": "celesta_v0_additive_3", "vel": 1.0, "bend": 0.0, "ch": 11}, {"t": 1.132, "dur": 0.685, "note": 35, "inst": "celesta_v0_additive_3", "vel": 1.0, "bend": 0.0, "ch": 3}, {"t": 1.132, "dur": 0.342, "note": 59, "inst": "celesta_v0_additive_3", "vel": 1.0, "bend": 0.0, "ch": 11}, {"t": 1.475, "dur": 0.342, "note": 59, "inst": "celesta_v0_additive_3", "vel": 1.0, "bend": 0.0, "ch": 11}, {"t": 1.817, "dur": 0.685, "note": 28, "inst": "piano_v0_additive_0", "vel": 1.0, "bend": 0.0, "ch": 12}, {"t": 1.817, "dur": 0.342, "note": 52, "inst": "piano_v0_additive_0", "vel": 1.0, "bend": 0.0, "ch": 4}, {"t": 2.159, "dur": 0.342, "note": 59, "inst": "celesta_v0_additive_3", "vel": 1.0, "bend": 0.0, "ch": 11}, {"t": 2.502, "dur": 0.685, "note": 35, "inst": "celesta_v0_additive_3", "vel": 1.0, "bend": 0.0, "ch": 3}, {"t": 2.502, "dur": 0.342, "note": 59, "inst": "celesta_v0_additive_3", "vel": 1.0, "bend": 0.0, "ch": 11}, {"t": 2.844, "dur": 0.342, "note": 59, "inst": "celesta_v0_additive_3", "vel": 1.0, "bend": 0.0, "ch": 11}, {"t": 3.187, "dur": 0.685, "note": 28, "inst": "piano_v0_additive_0", "vel": 1.0, "bend": 0.0, "ch": 12}, {"t": 3.187, "dur": 0.342, "note": 59, "inst": "celesta_v0_additive_3", "vel": 1.0, "bend": 0.0, "ch": 11}, {"t": 3.529, "dur": 0.114, "note": 59, "inst": "celesta_v0_additive_3", "vel": 1.0, "bend": 0.0, "ch": 11}, {"t": 3.643, "dur": 0.114, "note": 59, "inst": "celesta_v0_additive_3", "vel": 1.0, "bend": 0.0, "ch": 11}, {"t": 3.757, "dur": 0.114, "note": 59, "inst": "celesta_v0_additive_3", "vel": 1.0, "bend": 0.0, "ch": 11}, {"t": 3.871, "dur": 0.685, "note": 35, "inst": "celesta_v0_additive_3", "vel": 1.0, "bend": 0.0, "ch": 3}, {"t": 3.871, "dur": 0.342, "note": 59, "inst": "celesta_v0_additive_3", "vel": 1.0, "bend": 0.0, "ch": 11}, {"t": 4.214, "dur": 0.342, "note": 59, "inst": "celesta_v0_additive_3", "vel": 1.0, "bend": 0.0, "ch": 11}, {"t": 4.556, "dur": 0.685, "note": 35, "inst": "celesta_v0_additive_3", "vel": 1.0, "bend": 0.0, "ch": 3}, {"t": 4.556, "dur": 0.342, "note": 59, "inst": "celesta_v0_additive_3", "vel": 1.0, "bend": 0.0, "ch": 11}, {"t": 4.899, "dur": 0.342, "note": 52, "inst": "piano_v0_additive_0", "vel": 1.0, "bend": 0.0, "ch": 4}, {"t": 5.241, "dur": 0.685, "note": 35, "inst": "celesta_v0_additive_3", "vel": 1.0, "bend": 0.0, "ch": 3}, {"t": 5.241, "dur": 0.342, "note": 52, "inst": "piano_v0_additive_0", "vel": 1.0, "bend": 0.0, "ch": 4}, {"t": 5.583, "dur": 0.342, "note": 64, "inst": "piano_v0_additive_0", "vel": 1.0, "bend": 0.0, "ch": 0}, {"t": 5.926, "dur": 0.685, "note": 28, "inst": "piano_v0_additive_0", "vel": 1.0, "bend": 0.0, "ch": 12}, {"t": 5.926, "dur": 0.342, "note": 64, "inst": "piano_v0_additive_0", "vel": 1.0, "bend": 0.0, "ch": 0}, {"t": 6.268, "dur": 0.114, "note": 52, "inst": "piano_v0_additive_0", "vel": 1.0, "bend": 0.0, "ch": 4}, {"t": 6.382, "dur": 0.114, "note": 59, "inst": "celesta_v0_additive_3", "vel": 1.0, "bend": 0.0, "ch": 11}, {"t": 6.496, "dur": 0.114, "note": 52, "inst": "piano_v0_additive_0", "vel": 1.0, "bend": 0.0, "ch": 4}, {"t": 6.61, "dur": 0.685, "note": 35, "inst": "celesta_v0_additive_3", "vel": 1.0, "bend": 0.0, "ch": 3}, {"t": 6.61, "dur": 0.342, "note": 52, "inst": "piano_v0_additive_0", "vel": 1.0, "bend": 0.0, "ch": 4}, {"t": 6.953, "dur": 0.342, "note": 64, "inst": "piano_v0_additive_0", "vel": 1.0, "bend": 0.0, "ch": 0}, {"t": 7.295, "dur": 0.685, "note": 28, "inst": "piano_v0_additive_0", "vel": 1.0, "bend": 0.0, "ch": 12}, {"t": 7.295, "dur": 0.342, "note": 52, "inst": "piano_v0_additive_0", "vel": 1.0, "bend": 0.0, "ch": 4}, {"t": 7.638, "dur": 0.114, "note": 40, "inst": "piano_v0_additive_0", "vel": 1.0, "bend": 0.0, "ch": 8}, {"t": 7.752, "dur": 0.114, "note": 52, "inst": "piano_v0_additive_0", "vel": 1.0, "bend": 0.0, "ch": 4}, {"t": 7.866, "dur": 0.114, "note": 40, "inst": "piano_v0_additive_0", "vel": 1.0, "bend": 0.0, "ch": 8}, {"t": 7.98, "dur": 0.685, "note": 35, "inst": "celesta_v0_additive_3", "vel": 1.0, "bend": 0.0, "ch": 3}, {"t": 7.98, "dur": 0.342, "note": 47, "inst": "celesta_v0_additive_3", "vel": 1.0, "bend": 0.0, "ch": 15}, {"t": 8.322, "dur": 0.342, "note": 52, "inst": "piano_v0_additive_0", "vel": 1.0, "bend": 0.0, "ch": 4}, {"t": 8.665, "dur": 0.685, "note": 35, "inst": "celesta_v0_additive_3", "vel": 1.0, "bend": 0.0, "ch": 3}, {"t": 8.665, "dur": 0.342, "note": 59, "inst": "celesta_v0_additive_3", "vel": 1.0, "bend": 0.0, "ch": 11}, {"t": 9.007, "dur": 0.114, "note": 59, "inst": "celesta_v0_additive_3", "vel": 1.0, "bend": 0.0, "ch": 11}, {"t": 9.121, "dur": 0.114, "note": 52, "inst": "piano_v0_additive_0", "vel": 1.0, "bend": 0.0, "ch": 4}, {"t": 9.235, "dur": 0.114, "note": 59, "inst": "celesta_v0_additive_3", "vel": 1.0, "bend": 0.0, "ch": 11}, {"t": 9.349, "dur": 0.685, "note": 35, "inst": "celesta_v0_additive_3", "vel": 1.0, "bend": 0.0, "ch": 3}, {"t": 9.349, "dur": 0.342, "note": 59, "inst": "celesta_v0_additive_3", "vel": 1.0, "bend": 0.0, "ch": 11}, {"t": 9.692, "dur": 0.342, "note": 59, "inst": "celesta_v0_additive_3", "vel": 1.0, "bend": 0.0, "ch": 11}, {"t": 10.034, "dur": 0.685, "note": 28, "inst": "piano_v0_additive_0", "vel": 1.0, "bend": 0.0, "ch": 12}, {"t": 10.034, "dur": 0.342, "note": 64, "inst": "piano_v0_additive_0", "vel": 1.0, "bend": 0.0, "ch": 0}, {"t": 10.377, "dur": 0.342, "note": 52, "inst": "piano_v0_additive_0", "vel": 1.0, "bend": 0.0, "ch": 4}, {"t": 10.719, "dur": 0.685, "note": 35, "inst": "celesta_v0_additive_3", "vel": 1.0, "bend": 0.0, "ch": 3}, {"t": 10.719, "dur": 0.342, "note": 59, "inst": "celesta_v0_additive_3", "vel": 1.0, "bend": 0.0, "ch": 11}, {"t": 11.061, "dur": 0.342, "note": 59, "inst": "celesta_v0_additive_3", "vel": 1.0, "bend": 0.0, "ch": 11}, {"t": 11.404, "dur": 0.685, "note": 28, "inst": "piano_v0_additive_0", "vel": 1.0, "bend": 0.0, "ch": 12}, {"t": 11.404, "dur": 0.342, "note": 59, "inst": "celesta_v0_additive_3", "vel": 1.0, "bend": 0.0, "ch": 11}, {"t": 11.746, "dur": 0.114, "note": 59, "inst": "celesta_v0_additive_3", "vel": 1.0, "bend": 0.0, "ch": 11}, {"t": 11.86, "dur": 0.114, "note": 59, "inst": "celesta_v0_additive_3", "vel": 1.0, "bend": 0.0, "ch": 11}, {"t": 11.974, "dur": 0.114, "note": 59, "inst": "celesta_v0_additive_3", "vel": 1.0, "bend": 0.0, "ch": 11}, {"t": 12.089, "dur": 0.685, "note": 28, "inst": "piano_v0_additive_0", "vel": 1.0, "bend": 0.0, "ch": 12}, {"t": 12.089, "dur": 0.342, "note": 59, "inst": "celesta_v0_additive_3", "vel": 1.0, "bend": 0.0, "ch": 11}, {"t": 12.431, "dur": 0.342, "note": 59, "inst": "celesta_v0_additive_3", "vel": 1.0, "bend": 0.0, "ch": 11}, {"t": 12.773, "dur": 0.685, "note": 24, "inst": "piano_v0_additive_0", "vel": 1.0, "bend": 0.0, "ch": 8}, {"t": 12.773, "dur": 0.342, "note": 52, "inst": "piano_v0_additive_0", "vel": 1.0, "bend": 0.0, "ch": 4}, {"t": 13.116, "dur": 0.342, "note": 59, "inst": "celesta_v0_additive_3", "vel": 1.0, "bend": 0.0, "ch": 11}, {"t": 13.458, "dur": 0.685, "note": 28, "inst": "piano_v0_additive_0", "vel": 1.0, "bend": 0.0, "ch": 12}, {"t": 13.458, "dur": 0.342, "note": 59, "inst": "celesta_v0_additive_3", "vel": 1.0, "bend": 0.0, "ch": 11}, {"t": 13.8, "dur": 0.342, "note": 59, "inst": "celesta_v0_additive_3", "vel": 1.0, "bend": 0.0, "ch": 11}, {"t": 14.143, "dur": 0.685, "note": 28, "inst": "piano_v0_additive_0", "vel": 1.0, "bend": 0.0, "ch": 12}, {"t": 14.143, "dur": 0.342, "note": 59, "inst": "celesta_v0_additive_3", "vel": 1.0, "bend": 0.0, "ch": 11}, {"t": 14.485, "dur": 0.114, "note": 59, "inst": "celesta_v0_additive_3", "vel": 1.0, "bend": 0.0, "ch": 11}, {"t": 14.599, "dur": 0.114, "note": 59, "inst": "celesta_v0_additive_3", "vel": 1.0, "bend": 0.0, "ch": 11}, {"t": 14.713, "dur": 0.114, "note": 59, "inst": "celesta_v0_additive_3", "vel": 1.0, "bend": 0.0, "ch": 11}, {"t": 14.828, "dur": 0.685, "note": 24, "inst": "piano_v0_additive_0", "vel": 1.0, "bend": 0.0, "ch": 8}, {"t": 14.828, "dur": 0.342, "note": 59, "inst": "celesta_v0_additive_3", "vel": 1.0, "bend": 0.0, "ch": 11}, {"t": 15.17, "dur": 0.342, "note": 59, "inst": "celesta_v0_additive_3", "vel": 1.0, "bend": 0.0, "ch": 11}, {"t": 15.512, "dur": 0.685, "note": 24, "inst": "piano_v0_additive_0", "vel": 1.0, "bend": 0.0, "ch": 8}, {"t": 15.512, "dur": 0.342, "note": 59, "inst": "celesta_v0_additive_3", "vel": 1.0, "bend": 0.0, "ch": 11}, {"t": 15.855, "dur": 0.342, "note": 52, "inst": "piano_v0_additive_0", "vel": 1.0, "bend": 0.0, "ch": 4}, {"t": 16.197, "dur": 0.685, "note": 28, "inst": "piano_v0_additive_0", "vel": 1.0, "bend": 0.0, "ch": 12}, {"t": 16.197, "dur": 0.342, "note": 52, "inst": "piano_v0_additive_0", "vel": 1.0, "bend": 0.0, "ch": 4}, {"t": 16.539, "dur": 0.342, "note": 64, "inst": "piano_v0_additive_0", "vel": 1.0, "bend": 0.0, "ch": 0}, {"t": 16.882, "dur": 0.685, "note": 28, "inst": "piano_v0_additive_0", "vel": 1.0, "bend": 0.0, "ch": 12}, {"t": 16.882, "dur": 0.342, "note": 64, "inst": "piano_v0_additive_0", "vel": 1.0, "bend": 0.0, "ch": 0}, {"t": 17.224, "dur": 0.114, "note": 52, "inst": "piano_v0_additive_0", "vel": 1.0, "bend": 0.0, "ch": 4}, {"t": 17.338, "dur": 0.114, "note": 59, "inst": "celesta_v0_additive_3", "vel": 1.0, "bend": 0.0, "ch": 11}, {"t": 17.453, "dur": 0.114, "note": 52, "inst": "piano_v0_additive_0", "vel": 1.0, "bend": 0.0, "ch": 4}, {"t": 17.567, "dur": 0.685, "note": 28, "inst": "piano_v0_additive_0", "vel": 1.0, "bend": 0.0, "ch": 12}, {"t": 17.567, "dur": 0.342, "note": 52, "inst": "piano_v0_additive_0", "vel": 1.0, "bend": 0.0, "ch": 4}, {"t": 17.909, "dur": 0.342, "note": 59, "inst": "celesta_v0_additive_3", "vel": 1.0, "bend": 0.0, "ch": 11}, {"t": 18.251, "dur": 0.685, "note": 28, "inst": "piano_v0_additive_0", "vel": 1.0, "bend": 0.0, "ch": 12}, {"t": 18.251, "dur": 0.342, "note": 59, "inst": "celesta_v0_additive_3", "vel": 1.0, "bend": 0.0, "ch": 11}, {"t": 18.594, "dur": 0.342, "note": 52, "inst": "piano_v0_additive_0", "vel": 1.0, "bend": 0.0, "ch": 4}, {"t": 18.936, "dur": 0.685, "note": 35, "inst": "celesta_v0_additive_3", "vel": 1.0, "bend": 0.0, "ch": 3}, {"t": 18.936, "dur": 0.685, "note": 59, "inst": "celesta_v0_additive_3", "vel": 1.0, "bend": 0.0, "ch": 11}, {"t": 19.621, "dur": 0.342, "note": 71, "inst": "celesta_v0_additive_3", "vel": 1.0, "bend": 0.0, "ch": 7}, {"t": 19.963, "dur": 0.114, "note": 71, "inst": "celesta_v0_additive_3", "vel": 1.0, "bend": 0.0, "ch": 7}, {"t": 20.077, "dur": 0.114, "note": 71, "inst": "celesta_v0_additive_3", "vel": 1.0, "bend": 0.0, "ch": 7}, {"t": 20.192, "dur": 0.114, "note": 71, "inst": "celesta_v0_additive_3", "vel": 1.0, "bend": 0.0, "ch": 7}, {"t": 20.306, "dur": 0.685, "note": 28, "inst": "piano_v0_additive_0", "vel": 1.0, "bend": 0.0, "ch": 12}, {"t": 20.306, "dur": 0.342, "note": 71, "inst": "celesta_v0_additive_3", "vel": 1.0, "bend": 0.0, "ch": 7}, {"t": 20.648, "dur": 0.342, "note": 71, "inst": "celesta_v0_additive_3", "vel": 1.0, "bend": 0.0, "ch": 7}, {"t": 20.99, "dur": 0.685, "note": 24, "inst": "piano_v0_additive_0", "vel": 1.0, "bend": 0.0, "ch": 8}, {"t": 20.99, "dur": 0.342, "note": 71, "inst": "celesta_v0_additive_3", "vel": 1.0, "bend": 0.0, "ch": 7}, {"t": 21.333, "dur": 0.114, "note": 64, "inst": "piano_v0_additive_0", "vel": 1.0, "bend": 0.0, "ch": 0}, {"t": 21.447, "dur": 0.114, "note": 71, "inst": "celesta_v0_additive_3", "vel": 1.0, "bend": 0.0, "ch": 7}, {"t": 21.561, "dur": 0.114, "note": 64, "inst": "piano_v0_additive_0", "vel": 1.0, "bend": 0.0, "ch": 0}, {"t": 21.675, "dur": 0.685, "note": 28, "inst": "piano_v0_additive_0", "vel": 1.0, "bend": 0.0, "ch": 12}, {"t": 21.675, "dur": 0.342, "note": 64, "inst": "piano_v0_additive_0", "vel": 1.0, "bend": 0.0, "ch": 0}, {"t": 22.018, "dur": 0.342, "note": 71, "inst": "celesta_v0_additive_3", "vel": 1.0, "bend": 0.0, "ch": 7}, {"t": 22.36, "dur": 0.685, "note": 24, "inst": "piano_v0_additive_0", "vel": 1.0, "bend": 0.0, "ch": 8}, {"t": 22.36, "dur": 0.342, "note": 71, "inst": "celesta_v0_additive_3", "vel": 1.0, "bend": 0.0, "ch": 7}, {"t": 22.702, "dur": 0.342, "note": 64, "inst": "piano_v0_additive_0", "vel": 1.0, "bend": 0.0, "ch": 0}, {"t": 23.045, "dur": 0.685, "note": 28, "inst": "piano_v0_additive_0", "vel": 1.0, "bend": 0.0, "ch": 12}, {"t": 23.045, "dur": 0.171, "note": 59, "inst": "celesta_v0_additive_3", "vel": 1.0, "bend": 0.0, "ch": 11}, {"t": 23.216, "dur": 0.171, "note": 59, "inst": "celesta_v0_additive_3", "vel": 1.0, "bend": 0.0, "ch": 11}, {"t": 23.387, "dur": 0.171, "note": 59, "inst": "celesta_v0_additive_3", "vel": 1.0, "bend": 0.0, "ch": 11}, {"t": 23.558, "dur": 0.171, "note": 59, "inst": "celesta_v0_additive_3", "vel": 1.0, "bend": 0.0, "ch": 11}, {"t": 23.729, "dur": 0.685, "note": 24, "inst": "piano_v0_additive_0", "vel": 1.0, "bend": 0.0, "ch": 8}, {"t": 23.729, "dur": 0.171, "note": 52, "inst": "piano_v0_additive_0", "vel": 1.0, "bend": 0.0, "ch": 4}, {"t": 23.901, "dur": 0.171, "note": 64, "inst": "piano_v0_additive_0", "vel": 1.0, "bend": 0.0, "ch": 0}, {"t": 24.072, "dur": 0.171, "note": 64, "inst": "piano_v0_additive_0", "vel": 1.0, "bend": 0.0, "ch": 0}, {"t": 24.243, "dur": 0.171, "note": 71, "inst": "celesta_v0_additive_3", "vel": 1.0, "bend": 0.0, "ch": 7}, {"t": 24.414, "dur": 0.685, "note": 28, "inst": "piano_v0_additive_0", "vel": 1.0, "bend": 0.0, "ch": 12}, {"t": 24.414, "dur": 0.685, "note": 71, "inst": "celesta_v0_additive_3", "vel": 1.0, "bend": 0.0, "ch": 7}, {"t": 42.088, "dur": 0.112, "note": 53, "inst": "organ_v0_additive_1", "vel": 0.543, "bend": 0.0, "ch": 5}, {"t": 42.2, "dur": 0.112, "note": 65, "inst": "organ_v0_additive_1", "vel": 0.646, "bend": 0.0, "ch": 1}, {"t": 42.312, "dur": 0.112, "note": 53, "inst": "organ_v0_additive_1", "vel": 0.535, "bend": 0.0, "ch": 5}, {"t": 42.424, "dur": 0.112, "note": 65, "inst": "organ_v0_additive_1", "vel": 0.661, "bend": 0.0, "ch": 1}, {"t": 42.536, "dur": 0.112, "note": 53, "inst": "organ_v0_additive_1", "vel": 0.528, "bend": 0.0, "ch": 5}, {"t": 42.649, "dur": 0.112, "note": 65, "inst": "organ_v0_additive_1", "vel": 0.646, "bend": 0.0, "ch": 1}, {"t": 42.761, "dur": 0.112, "note": 53, "inst": "organ_v0_additive_1", "vel": 0.512, "bend": 0.0, "ch": 5}, {"t": 42.761, "dur": 0.224, "note": 82, "inst": "harpsichord_v0_additive_2", "vel": 0.551, "bend": 0.0, "ch": 2}, {"t": 42.761, "dur": 0.224, "note": 84, "inst": "piano_v0_additive_0", "vel": 0.551, "bend": 0.0, "ch": 4}, {"t": 42.761, "dur": 0.224, "note": 89, "inst": "organ_v0_additive_1", "vel": 0.551, "bend": 0.0, "ch": 9}, {"t": 42.873, "dur": 0.112, "note": 65, "inst": "organ_v0_additive_1", "vel": 0.669, "bend": 0.0, "ch": 1}, {"t": 42.985, "dur": 0.112, "note": 53, "inst": "organ_v0_additive_1", "vel": 0.559, "bend": 0.0, "ch": 5}, {"t": 42.985, "dur": 3.59, "note": 80, "inst": "piano_v0_additive_0", "vel": 0.575, "bend": 0.0, "ch": 0}, {"t": 42.985, "dur": 3.59, "note": 84, "inst": "piano_v0_additive_0", "vel": 0.575, "bend": 0.0, "ch": 4}, {"t": 42.985, "dur": 3.59, "note": 89, "inst": "organ_v0_additive_1", "vel": 0.575, "bend": 0.0, "ch": 9}, {"t": 43.097, "dur": 0.112, "note": 65, "inst": "organ_v0_additive_1", "vel": 0.685, "bend": 0.0, "ch": 1}, {"t": 43.209, "dur": 0.112, "note": 53, "inst": "organ_v0_additive_1", "vel": 0.535, "bend": 0.0, "ch": 5}, {"t": 43.322, "dur": 0.112, "note": 65, "inst": "organ_v0_additive_1", "vel": 0.677, "bend": 0.0, "ch": 1}, {"t": 43.434, "dur": 0.112, "note": 53, "inst": "organ_v0_additive_1", "vel": 0.52, "bend": 0.0, "ch": 5}, {"t": 43.546, "dur": 0.112, "note": 65, "inst": "organ_v0_additive_1", "vel": 0.661, "bend": 0.0, "ch": 1}, {"t": 43.658, "dur": 0.112, "note": 53, "inst": "organ_v0_additive_1", "vel": 0.512, "bend": 0.0, "ch": 5}, {"t": 43.77, "dur": 0.112, "note": 65, "inst": "organ_v0_additive_1", "vel": 0.677, "bend": 0.0, "ch": 1}, {"t": 43.883, "dur": 0.112, "note": 53, "inst": "organ_v0_additive_1", "vel": 0.551, "bend": 0.0, "ch": 5}, {"t": 43.995, "dur": 0.112, "note": 65, "inst": "organ_v0_additive_1", "vel": 0.677, "bend": 0.0, "ch": 1}, {"t": 44.107, "dur": 0.112, "note": 53, "inst": "organ_v0_additive_1", "vel": 0.504, "bend": 0.0, "ch": 5}, {"t": 44.219, "dur": 0.112, "note": 65, "inst": "organ_v0_additive_1", "vel": 0.685, "bend": 0.0, "ch": 1}, {"t": 44.331, "dur": 0.112, "note": 53, "inst": "organ_v0_additive_1", "vel": 0.488, "bend": 0.0, "ch": 5}, {"t": 44.443, "dur": 0.112, "note": 65, "inst": "organ_v0_additive_1", "vel": 0.693, "bend": 0.0, "ch": 1}, {"t": 44.556, "dur": 0.112, "note": 53, "inst": "organ_v0_additive_1", "vel": 0.512, "bend": 0.0, "ch": 5}, {"t": 44.668, "dur": 0.112, "note": 65, "inst": "organ_v0_additive_1", "vel": 0.661, "bend": 0.0, "ch": 1}, {"t": 44.78, "dur": 0.224, "note": 53, "inst": "organ_v0_additive_1", "vel": 0.598, "bend": 0.0, "ch": 5}, {"t": 44.78, "dur": 0.224, "note": 65, "inst": "organ_v0_additive_1", "vel": 0.598, "bend": 0.0, "ch": 1}, {"t": 45.004, "dur": 0.224, "note": 48, "inst": "piano_v0_additive_0", "vel": 0.559, "bend": 0.0, "ch": 0}, {"t": 45.004, "dur": 0.224, "note": 60, "inst": "piano_v0_additive_0", "vel": 0.559, "bend": 0.0, "ch": 12}, {"t": 45.229, "dur": 0.224, "note": 53, "inst": "organ_v0_additive_1", "vel": 0.638, "bend": 0.0, "ch": 5}, {"t": 45.229, "dur": 0.224, "note": 65, "inst": "organ_v0_additive_1", "vel": 0.638, "bend": 0.0, "ch": 1}, {"t": 45.453, "dur": 0.224, "note": 48, "inst": "piano_v0_additive_0", "vel": 0.559, "bend": 0.0, "ch": 0}, {"t": 45.453, "dur": 0.224, "note": 60, "inst": "piano_v0_additive_0", "vel": 0.559, "bend": 0.0, "ch": 12}, {"t": 45.677, "dur": 0.224, "note": 53, "inst": "organ_v0_additive_1", "vel": 0.654, "bend": 0.0, "ch": 5}, {"t": 45.677, "dur": 0.224, "note": 65, "inst": "organ_v0_additive_1", "vel": 0.654, "bend": 0.0, "ch": 1}, {"t": 45.902, "dur": 0.224, "note": 48, "inst": "piano_v0_additive_0", "vel": 0.559, "bend": 0.0, "ch": 0}, {"t": 45.902, "dur": 0.224, "note": 60, "inst": "piano_v0_additive_0", "vel": 0.559, "bend": 0.0, "ch": 12}, {"t": 46.126, "dur": 0.224, "note": 53, "inst": "organ_v0_additive_1", "vel": 0.622, "bend": 0.0, "ch": 5}, {"t": 46.126, "dur": 0.224, "note": 65, "inst": "organ_v0_additive_1", "vel": 0.622, "bend": 0.0, "ch": 1}, {"t": 46.35, "dur": 0.224, "note": 48, "inst": "piano_v0_additive_0", "vel": 0.567, "bend": 0.0, "ch": 0}, {"t": 46.35, "dur": 0.224, "note": 60, "inst": "piano_v0_additive_0", "vel": 0.567, "bend": 0.0, "ch": 12}, {"t": 46.575, "dur": 0.112, "note": 53, "inst": "organ_v0_additive_1", "vel": 0.543, "bend": 0.0, "ch": 5}, {"t": 46.575, "dur": 1.795, "note": 77, "inst": "organ_v0_additive_1", "vel": 0.433, "bend": 0.0, "ch": 13}, {"t": 46.687, "dur": 0.112, "note": 65, "inst": "organ_v0_additive_1", "vel": 0.677, "bend": 0.0, "ch": 1}, {"t": 46.799, "dur": 0.112, "note": 53, "inst": "organ_v0_additive_1", "vel": 0.535, "bend": 0.0, "ch": 5}, {"t": 46.911, "dur": 0.112, "note": 65, "inst": "organ_v0_additive_1", "vel": 0.646, "bend": 0.0, "ch": 1}, {"t": 47.024, "dur": 0.112, "note": 53, "inst": "organ_v0_additive_1", "vel": 0.543, "bend": 0.0, "ch": 5}, {"t": 47.136, "dur": 0.112, "note": 65, "inst": "organ_v0_additive_1", "vel": 0.646, "bend": 0.0, "ch": 1}, {"t": 47.248, "dur": 0.112, "note": 53, "inst": "organ_v0_additive_1", "vel": 0.535, "bend": 0.0, "ch": 5}, {"t": 47.36, "dur": 0.112, "note": 65, "inst": "organ_v0_additive_1", "vel": 0.669, "bend": 0.0, "ch": 1}, {"t": 47.472, "dur": 0.112, "note": 53, "inst": "organ_v0_additive_1", "vel": 0.496, "bend": 0.0, "ch": 5}, {"t": 47.584, "dur": 0.112, "note": 65, "inst": "organ_v0_additive_1", "vel": 0.654, "bend": 0.0, "ch": 1}, {"t": 47.697, "dur": 0.112, "note": 53, "inst": "organ_v0_additive_1", "vel": 0.512, "bend": 0.0, "ch": 5}, {"t": 47.809, "dur": 0.112, "note": 65, "inst": "organ_v0_additive_1", "vel": 0.646, "bend": 0.0, "ch": 1}, {"t": 47.921, "dur": 0.112, "note": 53, "inst": "organ_v0_additive_1", "vel": 0.535, "bend": 0.0, "ch": 5}, {"t": 48.033, "dur": 0.112, "note": 65, "inst": "organ_v0_additive_1", "vel": 0.646, "bend": 0.0, "ch": 1}, {"t": 48.145, "dur": 0.112, "note": 53, "inst": "organ_v0_additive_1", "vel": 0.535, "bend": 0.0, "ch": 5}, {"t": 48.258, "dur": 0.112, "note": 65, "inst": "organ_v0_additive_1", "vel": 0.622, "bend": 0.0, "ch": 1}, {"t": 48.37, "dur": 0.112, "note": 53, "inst": "organ_v0_additive_1", "vel": 0.52, "bend": 0.0, "ch": 5}, {"t": 48.37, "dur": 1.795, "note": 84, "inst": "piano_v0_additive_0", "vel": 0.677, "bend": 0.0, "ch": 4}, {"t": 48.482, "dur": 0.112, "note": 65, "inst": "organ_v0_additive_1", "vel": 0.693, "bend": 0.0, "ch": 1}, {"t": 48.594, "dur": 0.112, "note": 53, "inst": "organ_v0_additive_1", "vel": 0.512, "bend": 0.0, "ch": 5}, {"t": 48.706, "dur": 0.112, "note": 65, "inst": "organ_v0_additive_1", "vel": 0.693, "bend": 0.0, "ch": 1}, {"t": 48.818, "dur": 0.112, "note": 53, "inst": "organ_v0_additive_1", "vel": 0.496, "bend": 0.0, "ch": 5}, {"t": 48.931, "dur": 0.112, "note": 65, "inst": "organ_v0_additive_1", "vel": 0.654, "bend": 0.0, "ch": 1}, {"t": 49.043, "dur": 0.112, "note": 53, "inst": "organ_v0_additive_1", "vel": 0.528, "bend": 0.0, "ch": 5}, {"t": 49.155, "dur": 0.112, "note": 65, "inst": "organ_v0_additive_1", "vel": 0.646, "bend": 0.0, "ch": 1}, {"t": 49.267, "dur": 0.112, "note": 53, "inst": "organ_v0_additive_1", "vel": 0.496, "bend": 0.0, "ch": 5}, {"t": 49.379, "dur": 0.112, "note": 65, "inst": "organ_v0_additive_1", "vel": 0.63, "bend": 0.0, "ch": 1}, {"t": 49.492, "dur": 0.112, "note": 53, "inst": "organ_v0_additive_1", "vel": 0.528, "bend": 0.0, "ch": 5}, {"t": 49.604, "dur": 0.112, "note": 65, "inst": "organ_v0_additive_1", "vel": 0.677, "bend": 0.0, "ch": 1}, {"t": 49.716, "dur": 0.112, "note": 53, "inst": "organ_v0_additive_1", "vel": 0.488, "bend": 0.0, "ch": 5}, {"t": 49.828, "dur": 0.112, "note": 65, "inst": "organ_v0_additive_1", "vel": 0.685, "bend": 0.0, "ch": 1}, {"t": 49.94, "dur": 0.112, "note": 53, "inst": "organ_v0_additive_1", "vel": 0.52, "bend": 0.0, "ch": 5}, {"t": 50.052, "dur": 0.112, "note": 65, "inst": "organ_v0_additive_1", "vel": 0.654, "bend": 0.0, "ch": 1}, {"t": 50.165, "dur": 0.112, "note": 53, "inst": "organ_v0_additive_1", "vel": 0.52, "bend": 0.0, "ch": 5}, {"t": 50.165, "dur": 1.346, "note": 89, "inst": "organ_v0_additive_1", "vel": 0.669, "bend": 0.0, "ch": 9}, {"t": 50.277, "dur": 0.112, "note": 65, "inst": "organ_v0_additive_1", "vel": 0.669, "bend": 0.0, "ch": 1}, {"t": 50.389, "dur": 0.112, "note": 53, "inst": "organ_v0_additive_1", "vel": 0.48, "bend": 0.0, "ch": 5}, {"t": 50.501, "dur": 0.112, "note": 65, "inst": "organ_v0_additive_1", "vel": 0.669, "bend": 0.0, "ch": 1}, {"t": 50.613, "dur": 0.112, "note": 53, "inst": "organ_v0_additive_1", "vel": 0.496, "bend": 0.0, "ch": 5}, {"t": 50.725, "dur": 0.112, "note": 65, "inst": "organ_v0_additive_1", "vel": 0.669, "bend": 0.0, "ch": 1}, {"t": 50.838, "dur": 0.112, "note": 53, "inst": "organ_v0_additive_1", "vel": 0.52, "bend": 0.0, "ch": 5}, {"t": 50.95, "dur": 0.112, "note": 65, "inst": "organ_v0_additive_1", "vel": 0.677, "bend": 0.0, "ch": 1}, {"t": 51.062, "dur": 0.112, "note": 53, "inst": "organ_v0_additive_1", "vel": 0.543, "bend": 0.0, "ch": 5}, {"t": 51.174, "dur": 0.112, "note": 65, "inst": "organ_v0_additive_1", "vel": 0.646, "bend": 0.0, "ch": 1}, {"t": 51.286, "dur": 0.112, "note": 53, "inst": "organ_v0_additive_1", "vel": 0.496, "bend": 0.0, "ch": 5}, {"t": 51.399, "dur": 0.112, "note": 65, "inst": "organ_v0_additive_1", "vel": 0.709, "bend": 0.0, "ch": 1}, {"t": 51.511, "dur": 0.112, "note": 53, "inst": "organ_v0_additive_1", "vel": 0.512, "bend": 0.0, "ch": 5}, {"t": 51.623, "dur": 0.112, "note": 65, "inst": "organ_v0_additive_1", "vel": 0.685, "bend": 0.0, "ch": 1}, {"t": 51.735, "dur": 0.112, "note": 53, "inst": "organ_v0_additive_1", "vel": 0.52, "bend": 0.0, "ch": 5}, {"t": 51.735, "dur": 0.224, "note": 80, "inst": "piano_v0_additive_0", "vel": 0.567, "bend": 0.0, "ch": 0}, {"t": 51.735, "dur": 0.224, "note": 84, "inst": "piano_v0_additive_0", "vel": 0.567, "bend": 0.0, "ch": 4}, {"t": 51.735, "dur": 0.224, "note": 89, "inst": "organ_v0_additive_1", "vel": 0.567, "bend": 0.0, "ch": 9}, {"t": 51.847, "dur": 0.112, "note": 65, "inst": "organ_v0_additive_1", "vel": 0.677, "bend": 0.0, "ch": 1}, {"t": 51.959, "dur": 0.112, "note": 53, "inst": "organ_v0_additive_1", "vel": 0.488, "bend": 0.0, "ch": 5}, {"t": 51.959, "dur": 3.59, "note": 82, "inst": "harpsichord_v0_additive_2", "vel": 0.614, "bend": 0.0, "ch": 2}, {"t": 51.959, "dur": 3.59, "note": 84, "inst": "piano_v0_additive_0", "vel": 0.614, "bend": 0.0, "ch": 4}, {"t": 51.959, "dur": 3.59, "note": 89, "inst": "organ_v0_additive_1", "vel": 0.614, "bend": 0.0, "ch": 9}, {"t": 52.072, "dur": 0.112, "note": 65, "inst": "organ_v0_additive_1", "vel": 0.669, "bend": 0.0, "ch": 1}, {"t": 52.184, "dur": 0.112, "note": 53, "inst": "organ_v0_additive_1", "vel": 0.551, "bend": 0.0, "ch": 5}, {"t": 52.296, "dur": 0.112, "note": 65, "inst": "organ_v0_additive_1", "vel": 0.685, "bend": 0.0, "ch": 1}, {"t": 52.408, "dur": 0.112, "note": 53, "inst": "organ_v0_additive_1", "vel": 0.551, "bend": 0.0, "ch": 5}, {"t": 52.52, "dur": 0.112, "note": 65, "inst": "organ_v0_additive_1", "vel": 0.701, "bend": 0.0, "ch": 1}, {"t": 52.633, "dur": 0.112, "note": 53, "inst": "organ_v0_additive_1", "vel": 0.504, "bend": 0.0, "ch": 5}, {"t": 52.745, "dur": 0.112, "note": 65, "inst": "organ_v0_additive_1", "vel": 0.693, "bend": 0.0, "ch": 1}, {"t": 52.857, "dur": 0.112, "note": 53, "inst": "organ_v0_additive_1", "vel": 0.535, "bend": 0.0, "ch": 5}, {"t": 52.969, "dur": 0.112, "note": 65, "inst": "organ_v0_additive_1", "vel": 0.654, "bend": 0.0, "ch": 1}, {"t": 53.081, "dur": 0.112, "note": 53, "inst": "organ_v0_additive_1", "vel": 0.535, "bend": 0.0, "ch": 5}, {"t": 53.193, "dur": 0.112, "note": 65, "inst": "organ_v0_additive_1", "vel": 0.654, "bend": 0.0, "ch": 1}, {"t": 53.306, "dur": 0.112, "note": 53, "inst": "organ_v0_additive_1", "vel": 0.496, "bend": 0.0, "ch": 5}, {"t": 53.418, "dur": 0.112, "note": 65, "inst": "organ_v0_additive_1", "vel": 0.685, "bend": 0.0, "ch": 1}, {"t": 53.53, "dur": 0.112, "note": 53, "inst": "organ_v0_additive_1", "vel": 0.535, "bend": 0.0, "ch": 5}, {"t": 53.642, "dur": 0.112, "note": 65, "inst": "organ_v0_additive_1", "vel": 0.638, "bend": 0.0, "ch": 1}, {"t": 53.754, "dur": 0.224, "note": 53, "inst": "organ_v0_additive_1", "vel": 0.583, "bend": 0.0, "ch": 5}, {"t": 53.754, "dur": 0.224, "note": 65, "inst": "organ_v0_additive_1", "vel": 0.583, "bend": 0.0, "ch": 1}, {"t": 53.979, "dur": 0.224, "note": 48, "inst": "piano_v0_additive_0", "vel": 0.575, "bend": 0.0, "ch": 0}, {"t": 53.979, "dur": 0.224, "note": 60, "inst": "piano_v0_additive_0", "vel": 0.575, "bend": 0.0, "ch": 12}, {"t": 54.203, "dur": 0.224, "note": 53, "inst": "organ_v0_additive_1", "vel": 0.669, "bend": 0.0, "ch": 5}, {"t": 54.203, "dur": 0.224, "note": 65, "inst": "organ_v0_additive_1", "vel": 0.669, "bend": 0.0, "ch": 1}, {"t": 54.427, "dur": 0.224, "note": 48, "inst": "piano_v0_additive_0", "vel": 0.567, "bend": 0.0, "ch": 0}, {"t": 54.427, "dur": 0.224, "note": 60, "inst": "piano_v0_additive_0", "vel": 0.567, "bend": 0.0, "ch": 12}, {"t": 126.109, "dur": 0.17, "note": 64, "inst": "piano_v0_additive_0", "vel": 0.709, "bend": 0.0, "ch": 0}, {"t": 126.279, "dur": 0.681, "note": 47, "inst": "celesta_v0_additive_3", "vel": 0.709, "bend": 0.0, "ch": 15}, {"t": 126.279, "dur": 0.681, "note": 47, "inst": "celesta_v0_additive_3", "vel": 0.709, "bend": 0.0, "ch": 15}, {"t": 126.279, "dur": 0.34, "note": 62, "inst": "harpsichord_v0_additive_2", "vel": 0.709, "bend": 0.0, "ch": 14}, {"t": 126.62, "dur": 1.021, "note": 65, "inst": "organ_v0_additive_1", "vel": 0.709, "bend": 0.0, "ch": 1}, {"t": 126.62, "dur": 0.17, "note": 71, "inst": "celesta_v0_additive_3", "vel": 0.709, "bend": 0.0, "ch": 7}, {"t": 126.79, "dur": 0.17, "note": 69, "inst": "organ_v0_additive_1", "vel": 0.709, "bend": 0.0, "ch": 5}, {"t": 126.96, "dur": 0.34, "note": 35, "inst": "celesta_v0_additive_3", "vel": 0.709, "bend": 0.0, "ch": 3}, {"t": 126.96, "dur": 0.34, "note": 35, "inst": "celesta_v0_additive_3", "vel": 0.709, "bend": 0.0, "ch": 3}, {"t": 126.96, "dur": 0.17, "note": 67, "inst": "celesta_v0_additive_3", "vel": 0.709, "bend": 0.0, "ch": 3}, {"t": 127.13, "dur": 0.17, "note": 65, "inst": "organ_v0_additive_1", "vel": 0.709, "bend": 0.0, "ch": 1}, {"t": 127.3, "dur": 0.681, "note": 40, "inst": "piano_v0_additive_0", "vel": 0.709, "bend": 0.0, "ch": 8}, {"t": 127.3, "dur": 0.681, "note": 40, "inst": "piano_v0_additive_0", "vel": 0.709, "bend": 0.0, "ch": 8}, {"t": 127.3, "dur": 0.681, "note": 67, "inst": "celesta_v0_additive_3", "vel": 0.709, "bend": 0.0, "ch": 3}, {"t": 127.641, "dur": 0.34, "note": 59, "inst": "celesta_v0_additive_3", "vel": 0.709, "bend": 0.0, "ch": 11}, {"t": 127.981, "dur": 0.34, "note": 40, "inst": "piano_v0_additive_0", "vel": 0.709, "bend": 0.0, "ch": 8}, {"t": 127.981, "dur": 0.34, "note": 40, "inst": "piano_v0_additive_0", "vel": 0.709, "bend": 0.0, "ch": 8}, {"t": 127.981, "dur": 0.681, "note": 64, "inst": "piano_v0_additive_0", "vel": 0.709, "bend": 0.0, "ch": 0}, {"t": 127.981, "dur": 0.34, "note": 67, "inst": "celesta_v0_additive_3", "vel": 0.709, "bend": 0.0, "ch": 3}, {"t": 128.321, "dur": 0.681, "note": 41, "inst": "organ_v0_additive_1", "vel": 0.709, "bend": 0.0, "ch": 9}, {"t": 128.321, "dur": 0.681, "note": 41, "inst": "organ_v0_additive_1", "vel": 0.709, "bend": 0.0, "ch": 9}, {"t": 128.321, "dur": 0.681, "note": 57, "inst": "organ_v0_additive_1", "vel": 0.709, "bend": 0.0, "ch": 9}, {"t": 128.662, "dur": 0.681, "note": 62, "inst": "harpsichord_v0_additive_2", "vel": 0.709, "bend": 0.0, "ch": 14}, {"t": 129.002, "dur": 0.681, "note": 40, "inst": "piano_v0_additive_0", "vel": 0.709, "bend": 0.0, "ch": 8}, {"t": 129.002, "dur": 0.681, "note": 40, "inst": "piano_v0_additive_0", "vel": 0.709, "bend": 0.0, "ch": 8}, {"t": 129.002, "dur": 0.681, "note": 59, "inst": "celesta_v0_additive_3", "vel": 0.709, "bend": 0.0, "ch": 11}, {"t": 129.343, "dur": 0.34, "note": 60, "inst": "piano_v0_additive_0", "vel": 0.709, "bend": 0.0, "ch": 12}, {"t": 129.683, "dur": 0.681, "note": 41, "inst": "organ_v0_additive_1", "vel": 0.709, "bend": 0.0, "ch": 9}, {"t": 129.683, "dur": 0.681, "note": 41, "inst": "organ_v0_additive_1", "vel": 0.709, "bend": 0.0, "ch": 9}, {"t": 129.683, "dur": 0.511, "note": 59, "inst": "celesta_v0_additive_3", "vel": 0.709, "bend": 0.0, "ch": 11}, {"t": 129.683, "dur": 0.681, "note": 60, "inst": "piano_v0_additive_0", "vel": 0.709, "bend": 0.0, "ch": 12}, {"t": 130.194, "dur": 0.17, "note": 57, "inst": "organ_v0_additive_1", "vel": 0.709, "bend": 0.0, "ch": 9}, {"t": 130.364, "dur": 0.681, "note": 35, "inst": "celesta_v0_additive_3", "vel": 0.709, "bend": 0.0, "ch": 3}, {"t": 130.364, "dur": 0.681, "note": 35, "inst": "celesta_v0_additive_3", "vel": 0.709, "bend": 0.0, "ch": 3}, {"t": 130.364, "dur": 0.34, "note": 59, "inst": "celesta_v0_additive_3", "vel": 0.709, "bend": 0.0, "ch": 11}, {"t": 130.364, "dur": 0.681, "note": 59, "inst": "celesta_v0_additive_3", "vel": 0.709, "bend": 0.0, "ch": 11}, {"t": 130.704, "dur": 0.17, "note": 71, "inst": "celesta_v0_additive_3", "vel": 0.709, "bend": 0.0, "ch": 7}, {"t": 130.874, "dur": 0.17, "note": 72, "inst": "piano_v0_additive_0", "vel": 0.709, "bend": 0.0, "ch": 8}, {"t": 131.044, "dur": 0.34, "note": 59, "inst": "celesta_v0_additive_3", "vel": 0.709, "bend": 0.0, "ch": 11}, {"t": 131.044, "dur": 0.34, "note": 59, "inst": "celesta_v0_additive_3", "vel": 0.709, "bend": 0.0, "ch": 11}, {"t": 131.044, "dur": 0.681, "note": 74, "inst": "harpsichord_v0_additive_2", "vel": 0.709, "bend": 0.0, "ch": 10}, {"t": 131.385, "dur": 0.34, "note": 45, "inst": "organ_v0_additive_1", "vel": 0.709, "bend": 0.0, "ch": 13}, {"t": 131.385, "dur": 0.34, "note": 45, "inst": "organ_v0_additive_1", "vel": 0.709, "bend": 0.0, "ch": 13}, {"t": 131.385, "dur": 1.021, "note": 71, "inst": "celesta_v0_additive_3", "vel": 0.709, "bend": 0.0, "ch": 7}, {"t": 131.725, "dur": 0.34, "note": 52, "inst": "piano_v0_additive_0", "vel": 0.709, "bend": 0.0, "ch": 4}, {"t": 131.725, "dur": 0.34, "note": 52, "inst": "piano_v0_additive_0", "vel": 0.709, "bend": 0.0, "ch": 4}, {"t": 131.725, "dur": 0.17, "note": 76, "inst": "piano_v0_additive_0", "vel": 0.709, "bend": 0.0, "ch": 12}, {"t": 131.895, "dur": 0.17, "note": 74, "inst": "harpsichord_v0_additive_2", "vel": 0.709, "bend": 0.0, "ch": 10}, {"t": 132.066, "dur": 0.17, "note": 72, "inst": "piano_v0_additive_0", "vel": 0.709, "bend": 0.0, "ch": 8}, {"t": 132.236, "dur": 0.17, "note": 71, "inst": "celesta_v0_additive_3", "vel": 0.709, "bend": 0.0, "ch": 7}, {"t": 132.406, "dur": 0.34, "note": 57, "inst": "organ_v0_additive_1", "vel": 0.709, "bend": 0.0, "ch": 9}, {"t": 132.406, "dur": 0.34, "note": 57, "inst": "organ_v0_additive_1", "vel": 0.709, "bend": 0.0, "ch": 9}, {"t": 132.406, "dur": 1.021, "note": 64, "inst": "piano_v0_additive_0", "vel": 0.709, "bend": 0.0, "ch": 0}, {"t": 132.406, "dur": 0.34, "note": 72, "inst": "piano_v0_additive_0", "vel": 0.709, "bend": 0.0, "ch": 8}, {"t": 132.746, "dur": 0.34, "note": 45, "inst": "organ_v0_additive_1", "vel": 0.709, "bend": 0.0, "ch": 13}, {"t": 132.746, "dur": 0.34, "note": 45, "inst": "organ_v0_additive_1", "vel": 0.709, "bend": 0.0, "ch": 13}, {"t": 132.746, "dur": 0.17, "note": 69, "inst": "organ_v0_additive_1", "vel": 0.709, "bend": 0.0, "ch": 5}], "instruments": ["celesta_v0_additive_3", "harpsichord_v0_additive_2", "organ_v0_additive_1", "piano_v0_additive_0"], "duration": 133.427, "n_events": 314}