{"events": [{"t": 0.122, "dur": 0.505, "note": 24, "inst": "piano_v0_additive_0", "vel": 1.0, "bend": 0.0, "ch": 8}, {"t": 0.122, "dur": 0.252, "note": 68, "inst": "piano_v0_additive_0", "vel": 1.0, "bend": 0.0, "ch": 4}, {"t": 0.374, "dur": 0.252, "note": 68, "inst": "piano_v0_additive_0", "vel": 1.0, "bend": 0.0, "ch": 4}, {"t": 0.627, "dur": 0.505, "note": 39, "inst": "celesta_v0_additive_3", "vel": 1.0, "bend": 0.0, "ch": 7}, {"t": 0.627, "dur": 0.252, "note": 65, "inst": "organ_v0_additive_1", "vel": 1.0, "bend": 0.0, "ch": 1}, {"t": 0.879, "dur": 0.252, "note": 63, "inst": "celesta_v0_additive_3", "vel": 1.0, "bend": 0.0, "ch": 15}, {"t": 1.131, "dur": 0.505, "note": 24, "inst": "piano_v0_additive_0", "vel": 1.0, "bend": 0.0, "ch": 8}, {"t": 1.131, "dur": 0.252, "note": 63, "inst": "celesta_v0_additive_3", "vel": 1.0, "bend": 0.0, "ch": 15}, {"t": 1.384, "dur": 0.084, "note": 63, "inst": "celesta_v0_additive_3", "vel": 1.0, "bend": 0.0, "ch": 15}, {"t": 1.468, "dur": 0.084, "note": 65, "inst": "organ_v0_additive_1", "vel": 1.0, "bend": 0.0, "ch": 1}, {"t": 1.552, "dur": 0.084, "note": 63, "inst": "celesta_v0_additive_3", "vel": 1.0, "bend": 0.0, "ch": 15}, {"t": 1.636, "dur": 0.505, "note": 44, "inst": "piano_v0_additive_0", "vel": 1.0, "bend": 0.0, "ch": 12}, {"t": 1.636, "dur": 0.252, "note": 63, "inst": "celesta_v0_additive_3", "vel": 1.0, "bend": 0.0, "ch": 15}, {"t": 1.888, "dur": 0.252, "note": 65, "inst": "organ_v0_additive_1", "vel": 1.0, "bend": 0.0, "ch": 1}, {"t": 2.14, "dur": 0.505, "note": 43, "inst": "celesta_v0_additive_3", "vel": 1.0, "bend": 0.0, "ch": 11}, {"t": 2.14, "dur": 0.252, "note": 63, "inst": "celesta_v0_additive_3", "vel": 1.0, "bend": 0.0, "ch": 15}, {"t": 2.393, "dur": 0.252, "note": 60, "inst": "piano_v0_additive_0", "vel": 1.0, "bend": 0.0, "ch": 12}, {"t": 2.645, "dur": 0.505, "note": 41, "inst": "organ_v0_additive_1", "vel": 1.0, "bend": 0.0, "ch": 9}, {"t": 2.645, "dur": 0.252, "note": 48, "inst": "piano_v0_additive_0", "vel": 1.0, "bend": 0.0, "ch": 0}, {"t": 2.897, "dur": 0.252, "note": 72, "inst": "piano_v0_additive_0", "vel": 1.0, "bend": 0.0, "ch": 8}, {"t": 3.15, "dur": 0.505, "note": 24, "inst": "piano_v0_additive_0", "vel": 1.0, "bend": 0.0, "ch": 8}, {"t": 3.15, "dur": 0.252, "note": 60, "inst": "piano_v0_additive_0", "vel": 1.0, "bend": 0.0, "ch": 12}, {"t": 3.402, "dur": 0.084, "note": 60, "inst": "piano_v0_additive_0", "vel": 1.0, "bend": 0.0, "ch": 12}, {"t": 3.486, "dur": 0.084, "note": 63, "inst": "celesta_v0_additive_3", "vel": 1.0, "bend": 0.0, "ch": 15}, {"t": 3.57, "dur": 0.084, "note": 60, "inst": "piano_v0_additive_0", "vel": 1.0, "bend": 0.0, "ch": 12}, {"t": 3.654, "dur": 0.505, "note": 41, "inst": "organ_v0_additive_1", "vel": 1.0, "bend": 0.0, "ch": 9}, {"t": 3.654, "dur": 0.252, "note": 48, "inst": "piano_v0_additive_0", "vel": 1.0, "bend": 0.0, "ch": 0}, {"t": 3.906, "dur": 0.252, "note": 60, "inst": "piano_v0_additive_0", "vel": 1.0, "bend": 0.0, "ch": 12}, {"t": 4.159, "dur": 0.505, "note": 24, "inst": "piano_v0_additive_0", "vel": 1.0, "bend": 0.0, "ch": 8}, {"t": 4.159, "dur": 0.252, "note": 68, "inst": "piano_v0_additive_0", "vel": 1.0, "bend": 0.0, "ch": 4}, {"t": 4.411, "dur": 0.084, "note": 56, "inst": "piano_v0_additive_0", "vel": 1.0, "bend": 0.0, "ch": 8}, {"t": 4.495, "dur": 0.084, "note": 48, "inst": "piano_v0_additive_0", "vel": 1.0, "bend": 0.0, "ch": 0}, {"t": 4.579, "dur": 0.084, "note": 56, "inst": "piano_v0_additive_0", "vel": 1.0, "bend": 0.0, "ch": 8}, {"t": 4.663, "dur": 0.505, "note": 39, "inst": "celesta_v0_additive_3", "vel": 1.0, "bend": 0.0, "ch": 7}, {"t": 4.663, "dur": 0.252, "note": 56, "inst": "piano_v0_additive_0", "vel": 1.0, "bend": 0.0, "ch": 8}, {"t": 4.916, "dur": 0.252, "note": 68, "inst": "piano_v0_additive_0", "vel": 1.0, "bend": 0.0, "ch": 4}, {"t": 5.168, "dur": 0.505, "note": 39, "inst": "celesta_v0_additive_3", "vel": 1.0, "bend": 0.0, "ch": 7}, {"t": 5.168, "dur": 0.252, "note": 68, "inst": "piano_v0_additive_0", "vel": 1.0, "bend": 0.0, "ch": 4}, {"t": 5.42, "dur": 0.084, "note": 68, "inst": "piano_v0_additive_0", "vel": 1.0, "bend": 0.0, "ch": 4}, {"t": 5.504, "dur": 0.084, "note": 68, "inst": "piano_v0_additive_0", "vel": 1.0, "bend": 0.0, "ch": 4}, {"t": 5.588, "dur": 0.084, "note": 68, "inst": "piano_v0_additive_0", "vel": 1.0, "bend": 0.0, "ch": 4}, {"t": 5.672, "dur": 0.505, "note": 39, "inst": "celesta_v0_additive_3", "vel": 1.0, "bend": 0.0, "ch": 7}, {"t": 5.672, "dur": 0.252, "note": 67, "inst": "celesta_v0_additive_3", "vel": 1.0, "bend": 0.0, "ch": 3}, {"t": 5.925, "dur": 0.252, "note": 68, "inst": "piano_v0_additive_0", "vel": 1.0, "bend": 0.0, "ch": 4}, {"t": 6.177, "dur": 0.505, "note": 24, "inst": "piano_v0_additive_0", "vel": 1.0, "bend": 0.0, "ch": 8}, {"t": 6.177, "dur": 0.252, "note": 60, "inst": "piano_v0_additive_0", "vel": 1.0, "bend": 0.0, "ch": 12}, {"t": 6.429, "dur": 0.252, "note": 68, "inst": "piano_v0_additive_0", "vel": 1.0, "bend": 0.0, "ch": 4}, {"t": 6.681, "dur": 0.505, "note": 41, "inst": "organ_v0_additive_1", "vel": 1.0, "bend": 0.0, "ch": 9}, {"t": 6.681, "dur": 0.252, "note": 68, "inst": "piano_v0_additive_0", "vel": 1.0, "bend": 0.0, "ch": 4}, {"t": 6.934, "dur": 0.252, "note": 65, "inst": "organ_v0_additive_1", "vel": 1.0, "bend": 0.0, "ch": 1}, {"t": 7.186, "dur": 0.505, "note": 24, "inst": "piano_v0_additive_0", "vel": 1.0, "bend": 0.0, "ch": 8}, {"t": 7.186, "dur": 0.252, "note": 65, "inst": "organ_v0_additive_1", "vel": 1.0, "bend": 0.0, "ch": 1}, {"t": 7.438, "dur": 0.084, "note": 65, "inst": "organ_v0_additive_1", "vel": 1.0, "bend": 0.0, "ch": 1}, {"t": 7.522, "dur": 0.084, "note": 68, "inst": "piano_v0_additive_0", "vel": 1.0, "bend": 0.0, "ch": 4}, {"t": 7.607, "dur": 0.084, "note": 65, "inst": "organ_v0_additive_1", "vel": 1.0, "bend": 0.0, "ch": 1}, {"t": 7.691, "dur": 0.505, "note": 36, "inst": "piano_v0_additive_0", "vel": 1.0, "bend": 0.0, "ch": 4}, {"t": 7.691, "dur": 0.252, "note": 65, "inst": "organ_v0_additive_1", "vel": 1.0, "bend": 0.0, "ch": 1}, {"t": 7.943, "dur": 0.252, "note": 65, "inst": "organ_v0_additive_1", "vel": 1.0, "bend": 0.0, "ch": 1}, {"t": 8.195, "dur": 0.505, "note": 32, "inst": "piano_v0_additive_0", "vel": 1.0, "bend": 0.0, "ch": 0}, {"t": 8.195, "dur": 0.252, "note": 68, "inst": "piano_v0_additive_0", "vel": 1.0, "bend": 0.0, "ch": 4}, {"t": 8.447, "dur": 0.252, "note": 68, "inst": "piano_v0_additive_0", "vel": 1.0, "bend": 0.0, "ch": 4}, {"t": 8.7, "dur": 0.505, "note": 36, "inst": "piano_v0_additive_0", "vel": 1.0, "bend": 0.0, "ch": 4}, {"t": 8.7, "dur": 0.252, "note": 65, "inst": "organ_v0_additive_1", "vel": 1.0, "bend": 0.0, "ch": 1}, {"t": 8.952, "dur": 0.252, "note": 63, "inst": "celesta_v0_additive_3", "vel": 1.0, "bend": 0.0, "ch": 15}, {"t": 9.204, "dur": 0.505, "note": 24, "inst": "piano_v0_additive_0", "vel": 1.0, "bend": 0.0, "ch": 8}, {"t": 9.204, "dur": 0.252, "note": 63, "inst": "celesta_v0_additive_3", "vel": 1.0, "bend": 0.0, "ch": 15}, {"t": 9.457, "dur": 0.084, "note": 63, "inst": "celesta_v0_additive_3", "vel": 1.0, "bend": 0.0, "ch": 15}, {"t": 9.541, "dur": 0.084, "note": 65, "inst": "organ_v0_additive_1", "vel": 1.0, "bend": 0.0, "ch": 1}, {"t": 9.625, "dur": 0.084, "note": 63, "inst": "celesta_v0_additive_3", "vel": 1.0, "bend": 0.0, "ch": 15}, {"t": 9.709, "dur": 0.505, "note": 32, "inst": "piano_v0_additive_0", "vel": 1.0, "bend": 0.0, "ch": 0}, {"t": 9.709, "dur": 0.252, "note": 63, "inst": "celesta_v0_additive_3", "vel": 1.0, "bend": 0.0, "ch": 15}, {"t": 9.961, "dur": 0.252, "note": 65, "inst": "organ_v0_additive_1", "vel": 1.0, "bend": 0.0, "ch": 1}, {"t": 10.213, "dur": 0.505, "note": 34, "inst": "harpsichord_v0_additive_2", "vel": 1.0, "bend": 0.0, "ch": 2}, {"t": 10.213, "dur": 0.252, "note": 63, "inst": "celesta_v0_additive_3", "vel": 1.0, "bend": 0.0, "ch": 15}, {"t": 10.466, "dur": 0.252, "note": 60, "inst": "piano_v0_additive_0", "vel": 1.0, "bend": 0.0, "ch": 12}, {"t": 10.718, "dur": 0.505, "note": 24, "inst": "piano_v0_additive_0", "vel": 1.0, "bend": 0.0, "ch": 8}, {"t": 10.718, "dur": 0.252, "note": 48, "inst": "piano_v0_additive_0", "vel": 1.0, "bend": 0.0, "ch": 0}, {"t": 10.97, "dur": 0.252, "note": 72, "inst": "piano_v0_additive_0", "vel": 1.0, "bend": 0.0, "ch": 8}, {"t": 11.223, "dur": 0.505, "note": 24, "inst": "piano_v0_additive_0", "vel": 1.0, "bend": 0.0, "ch": 8}, {"t": 11.223, "dur": 0.252, "note": 60, "inst": "piano_v0_additive_0", "vel": 1.0, "bend": 0.0, "ch": 12}, {"t": 11.475, "dur": 0.084, "note": 60, "inst": "piano_v0_additive_0", "vel": 1.0, "bend": 0.0, "ch": 12}, {"t": 11.559, "dur": 0.084, "note": 63, "inst": "celesta_v0_additive_3", "vel": 1.0, "bend": 0.0, "ch": 15}, {"t": 11.643, "dur": 0.084, "note": 60, "inst": "piano_v0_additive_0", "vel": 1.0, "bend": 0.0, "ch": 12}, {"t": 11.727, "dur": 0.505, "note": 24, "inst": "piano_v0_additive_0", "vel": 1.0, "bend": 0.0, "ch": 8}, {"t": 11.727, "dur": 0.252, "note": 48, "inst": "piano_v0_additive_0", "vel": 1.0, "bend": 0.0, "ch": 0}, {"t": 11.979, "dur": 0.252, "note": 68, "inst": "piano_v0_additive_0", "vel": 1.0, "bend": 0.0, "ch": 4}, {"t": 12.232, "dur": 0.505, "note": 24, "inst": "piano_v0_additive_0", "vel": 1.0, "bend": 0.0, "ch": 8}, {"t": 12.232, "dur": 0.252, "note": 65, "inst": "organ_v0_additive_1", "vel": 1.0, "bend": 0.0, "ch": 1}, {"t": 12.484, "dur": 0.252, "note": 48, "inst": "piano_v0_additive_0", "vel": 1.0, "bend": 0.0, "ch": 0}, {"t": 12.736, "dur": 0.505, "note": 39, "inst": "celesta_v0_additive_3", "vel": 1.0, "bend": 0.0, "ch": 7}, {"t": 12.736, "dur": 0.505, "note": 63, "inst": "celesta_v0_additive_3", "vel": 1.0, "bend": 0.0, "ch": 15}, {"t": 13.241, "dur": 0.252, "note": 75, "inst": "celesta_v0_additive_3", "vel": 1.0, "bend": 0.0, "ch": 11}, {"t": 13.493, "dur": 0.084, "note": 75, "inst": "celesta_v0_additive_3", "vel": 1.0, "bend": 0.0, "ch": 11}, {"t": 13.577, "dur": 0.084, "note": 77, "inst": "organ_v0_additive_1", "vel": 1.0, "bend": 0.0, "ch": 13}, {"t": 13.661, "dur": 0.084, "note": 75, "inst": "celesta_v0_additive_3", "vel": 1.0, "bend": 0.0, "ch": 11}, {"t": 13.745, "dur": 0.505, "note": 24, "inst": "piano_v0_additive_0", "vel": 1.0, "bend": 0.0, "ch": 8}, {"t": 13.745, "dur": 0.252, "note": 75, "inst": "celesta_v0_additive_3", "vel": 1.0, "bend": 0.0, "ch": 11}, {"t": 13.998, "dur": 0.252, "note": 80, "inst": "piano_v0_additive_0", "vel": 1.0, "bend": 0.0, "ch": 0}, {"t": 14.25, "dur": 0.505, "note": 29, "inst": "organ_v0_additive_1", "vel": 1.0, "bend": 0.0, "ch": 13}, {"t": 14.25, "dur": 0.252, "note": 77, "inst": "organ_v0_additive_1", "vel": 1.0, "bend": 0.0, "ch": 13}, {"t": 14.502, "dur": 0.084, "note": 72, "inst": "piano_v0_additive_0", "vel": 1.0, "bend": 0.0, "ch": 8}, {"t": 14.586, "dur": 0.084, "note": 75, "inst": "celesta_v0_additive_3", "vel": 1.0, "bend": 0.0, "ch": 11}, {"t": 14.67, "dur": 0.084, "note": 72, "inst": "piano_v0_additive_0", "vel": 1.0, "bend": 0.0, "ch": 8}, {"t": 14.754, "dur": 0.505, "note": 24, "inst": "piano_v0_additive_0", "vel": 1.0, "bend": 0.0, "ch": 8}, {"t": 14.754, "dur": 0.252, "note": 60, "inst": "piano_v0_additive_0", "vel": 1.0, "bend": 0.0, "ch": 12}, {"t": 15.007, "dur": 0.252, "note": 75, "inst": "celesta_v0_additive_3", "vel": 1.0, "bend": 0.0, "ch": 11}, {"t": 15.259, "dur": 0.505, "note": 29, "inst": "organ_v0_additive_1", "vel": 1.0, "bend": 0.0, "ch": 13}, {"t": 15.259, "dur": 0.252, "note": 75, "inst": "celesta_v0_additive_3", "vel": 1.0, "bend": 0.0, "ch": 11}, {"t": 15.511, "dur": 0.252, "note": 60, "inst": "piano_v0_additive_0", "vel": 1.0, "bend": 0.0, "ch": 12}, {"t": 15.764, "dur": 0.505, "note": 24, "inst": "piano_v0_additive_0", "vel": 1.0, "bend": 0.0, "ch": 8}, {"t": 15.764, "dur": 0.126, "note": 65, "inst": "organ_v0_additive_1", "vel": 1.0, "bend": 0.0, "ch": 1}, {"t": 15.89, "dur": 0.126, "note": 63, "inst": "celesta_v0_additive_3", "vel": 1.0, "bend": 0.0, "ch": 15}, {"t": 16.016, "dur": 0.126, "note": 65, "inst": "organ_v0_additive_1", "vel": 1.0, "bend": 0.0, "ch": 1}, {"t": 16.142, "dur": 0.126, "note": 68, "inst": "piano_v0_additive_0", "vel": 1.0, "bend": 0.0, "ch": 4}, {"t": 16.268, "dur": 0.505, "note": 29, "inst": "organ_v0_additive_1", "vel": 1.0, "bend": 0.0, "ch": 13}, {"t": 16.268, "dur": 0.126, "note": 70, "inst": "harpsichord_v0_additive_2", "vel": 1.0, "bend": 0.0, "ch": 6}, {"t": 16.394, "dur": 0.126, "note": 60, "inst": "piano_v0_additive_0", "vel": 1.0, "bend": 0.0, "ch": 12}, {"t": 16.52, "dur": 0.126, "note": 72, "inst": "piano_v0_additive_0", "vel": 1.0, "bend": 0.0, "ch": 8}, {"t": 16.647, "dur": 0.126, "note": 75, "inst": "celesta_v0_additive_3", "vel": 1.0, "bend": 0.0, "ch": 11}, {"t": 16.773, "dur": 0.505, "note": 36, "inst": "piano_v0_additive_0", "vel": 1.0, "bend": 0.0, "ch": 4}, {"t": 16.773, "dur": 0.505, "note": 75, "inst": "celesta_v0_additive_3", "vel": 1.0, "bend": 0.0, "ch": 11}, {"t": 17.277, "dur": 0.505, "note": 29, "inst": "organ_v0_additive_1", "vel": 1.0, "bend": 0.0, "ch": 13}, {"t": 17.53, "dur": 0.084, "note": 75, "inst": "celesta_v0_additive_3", "vel": 1.0, "bend": 0.0, "ch": 11}, {"t": 17.614, "dur": 0.084, "note": 77, "inst": "organ_v0_additive_1", "vel": 1.0, "bend": 0.0, "ch": 13}, {"t": 17.698, "dur": 0.084, "note": 75, "inst": "celesta_v0_additive_3", "vel": 1.0, "bend": 0.0, "ch": 11}, {"t": 17.782, "dur": 0.505, "note": 36, "inst": "piano_v0_additive_0", "vel": 1.0, "bend": 0.0, "ch": 4}, {"t": 17.782, "dur": 0.252, "note": 72, "inst": "piano_v0_additive_0", "vel": 1.0, "bend": 0.0, "ch": 8}, {"t": 18.034, "dur": 0.252, "note": 80, "inst": "piano_v0_additive_0", "vel": 1.0, "bend": 0.0, "ch": 0}, {"t": 18.286, "dur": 0.505, "note": 29, "inst": "organ_v0_additive_1", "vel": 1.0, "bend": 0.0, "ch": 13}, {"t": 18.286, "dur": 0.252, "note": 77, "inst": "organ_v0_additive_1", "vel": 1.0, "bend": 0.0, "ch": 13}, {"t": 18.539, "dur": 0.084, "note": 72, "inst": "piano_v0_additive_0", "vel": 1.0, "bend": 0.0, "ch": 8}, {"t": 18.623, "dur": 0.084, "note": 75, "inst": "celesta_v0_additive_3", "vel": 1.0, "bend": 0.0, "ch": 11}, {"t": 18.707, "dur": 0.084, "note": 72, "inst": "piano_v0_additive_0", "vel": 1.0, "bend": 0.0, "ch": 8}, {"t": 18.791, "dur": 0.505, "note": 36, "inst": "piano_v0_additive_0", "vel": 1.0, "bend": 0.0, "ch": 4}, {"t": 18.791, "dur": 0.252, "note": 70, "inst": "harpsichord_v0_additive_2", "vel": 1.0, "bend": 0.0, "ch": 6}, {"t": 19.043, "dur": 0.252, "note": 75, "inst": "celesta_v0_additive_3", "vel": 1.0, "bend": 0.0, "ch": 11}, {"t": 19.296, "dur": 0.505, "note": 29, "inst": "organ_v0_additive_1", "vel": 1.0, "bend": 0.0, "ch": 13}, {"t": 19.296, "dur": 0.252, "note": 72, "inst": "piano_v0_additive_0", "vel": 1.0, "bend": 0.0, "ch": 8}, {"t": 19.548, "dur": 0.252, "note": 70, "inst": "harpsichord_v0_additive_2", "vel": 1.0, "bend": 0.0, "ch": 6}, {"t": 19.8, "dur": 0.505, "note": 34, "inst": "harpsichord_v0_additive_2", "vel": 1.0, "bend": 0.0, "ch": 2}, {"t": 19.8, "dur": 0.126, "note": 65, "inst": "organ_v0_additive_1", "vel": 1.0, "bend": 0.0, "ch": 1}, {"t": 19.926, "dur": 0.126, "note": 65, "inst": "organ_v0_additive_1", "vel": 1.0, "bend": 0.0, "ch": 1}, {"t": 20.052, "dur": 0.126, "note": 65, "inst": "organ_v0_additive_1", "vel": 1.0, "bend": 0.0, "ch": 1}, {"t": 20.179, "dur": 0.126, "note": 68, "inst": "piano_v0_additive_0", "vel": 1.0, "bend": 0.0, "ch": 4}, {"t": 20.305, "dur": 0.505, "note": 29, "inst": "organ_v0_additive_1", "vel": 1.0, "bend": 0.0, "ch": 13}, {"t": 20.305, "dur": 0.126, "note": 70, "inst": "harpsichord_v0_additive_2", "vel": 1.0, "bend": 0.0, "ch": 6}, {"t": 20.431, "dur": 0.126, "note": 60, "inst": "piano_v0_additive_0", "vel": 1.0, "bend": 0.0, "ch": 12}, {"t": 20.557, "dur": 0.126, "note": 72, "inst": "piano_v0_additive_0", "vel": 1.0, "bend": 0.0, "ch": 8}, {"t": 20.683, "dur": 0.126, "note": 74, "inst": "harpsichord_v0_additive_2", "vel": 1.0, "bend": 0.0, "ch": 10}, {"t": 20.809, "dur": 0.505, "note": 24, "inst": "piano_v0_additive_0", "vel": 1.0, "bend": 0.0, "ch": 8}, {"t": 20.809, "dur": 0.505, "note": 75, "inst": "celesta_v0_additive_3", "vel": 1.0, "bend": 0.0, "ch": 11}, {"t": 21.314, "dur": 0.505, "note": 29, "inst": "organ_v0_additive_1", "vel": 1.0, "bend": 0.0, "ch": 13}, {"t": 21.818, "dur": 0.505, "note": 24, "inst": "piano_v0_additive_0", "vel": 1.0, "bend": 0.0, "ch": 8}, {"t": 21.818, "dur": 0.252, "note": 75, "inst": "celesta_v0_additive_3", "vel": 1.0, "bend": 0.0, "ch": 11}, {"t": 22.071, "dur": 0.252, "note": 80, "inst": "piano_v0_additive_0", "vel": 1.0, "bend": 0.0, "ch": 0}, {"t": 22.323, "dur": 0.505, "note": 29, "inst": "organ_v0_additive_1", "vel": 1.0, "bend": 0.0, "ch": 13}, {"t": 22.323, "dur": 0.252, "note": 77, "inst": "organ_v0_additive_1", "vel": 1.0, "bend": 0.0, "ch": 13}, {"t": 22.575, "dur": 0.084, "note": 72, "inst": "piano_v0_additive_0", "vel": 1.0, "bend": 0.0, "ch": 8}, {"t": 22.659, "dur": 0.084, "note": 75, "inst": "celesta_v0_additive_3", "vel": 1.0, "bend": 0.0, "ch": 11}, {"t": 22.743, "dur": 0.084, "note": 72, "inst": "piano_v0_additive_0", "vel": 1.0, "bend": 0.0, "ch": 8}, {"t": 22.827, "dur": 0.505, "note": 24, "inst": "piano_v0_additive_0", "vel": 1.0, "bend": 0.0, "ch": 8}, {"t": 22.827, "dur": 0.252, "note": 60, "inst": "piano_v0_additive_0", "vel": 1.0, "bend": 0.0, "ch": 12}, {"t": 23.08, "dur": 0.252, "note": 75, "inst": "celesta_v0_additive_3", "vel": 1.0, "bend": 0.0, "ch": 11}, {"t": 23.332, "dur": 0.505, "note": 29, "inst": "organ_v0_additive_1", "vel": 1.0, "bend": 0.0, "ch": 13}, {"t": 23.332, "dur": 0.252, "note": 75, "inst": "celesta_v0_additive_3", "vel": 1.0, "bend": 0.0, "ch": 11}, {"t": 23.584, "dur": 0.252, "note": 60, "inst": "piano_v0_additive_0", "vel": 1.0, "bend": 0.0, "ch": 12}, {"t": 23.837, "dur": 0.505, "note": 24, "inst": "piano_v0_additive_0", "vel": 1.0, "bend": 0.0, "ch": 8}, {"t": 23.837, "dur": 0.126, "note": 65, "inst": "organ_v0_additive_1", "vel": 1.0, "bend": 0.0, "ch": 1}, {"t": 23.963, "dur": 0.126, "note": 68, "inst": "piano_v0_additive_0", "vel": 1.0, "bend": 0.0, "ch": 4}, {"t": 24.089, "dur": 0.126, "note": 70, "inst": "harpsichord_v0_additive_2", "vel": 1.0, "bend": 0.0, "ch": 6}, {"t": 24.215, "dur": 0.126, "note": 60, "inst": "piano_v0_additive_0", "vel": 1.0, "bend": 0.0, "ch": 12}, {"t": 42.11, "dur": 0.914, "note": 48, "inst": "piano_v0_additive_0", "vel": 0.63, "bend": 0.0, "ch": 0}, {"t": 42.11, "dur": 0.914, "note": 41, "inst": "organ_v0_additive_1", "vel": 0.63, "bend": 0.0, "ch": 9}, {"t": 42.11, "dur": 0.868, "note": 57, "inst": "organ_v0_additive_1", "vel": 0.63, "bend": 0.0, "ch": 9}, {"t": 43.024, "dur": 0.914, "note": 50, "inst": "harpsichord_v0_additive_2", "vel": 0.63, "bend": 0.0, "ch": 2}, {"t": 43.024, "dur": 1.828, "note": 53, "inst": "organ_v0_additive_1", "vel": 0.63, "bend": 0.0, "ch": 5}, {"t": 43.024, "dur": 1.737, "note": 58, "inst": "harpsichord_v0_additive_2", "vel": 0.63, "bend": 0.0, "ch": 10}, {"t": 43.939, "dur": 1.828, "note": 45, "inst": "organ_v0_additive_1", "vel": 0.63, "bend": 0.0, "ch": 13}, {"t": 44.854, "dur": 1.828, "note": 41, "inst": "organ_v0_additive_1", "vel": 0.63, "bend": 0.0, "ch": 9}, {"t": 44.854, "dur": 1.737, "note": 57, "inst": "organ_v0_additive_1", "vel": 0.63, "bend": 0.0, "ch": 9}, {"t": 45.768, "dur": 1.828, "note": 46, "inst": "harpsichord_v0_additive_2", "vel": 0.63, "bend": 0.0, "ch": 14}, {"t": 46.683, "dur": 0.914, "note": 50, "inst": "harpsichord_v0_additive_2", "vel": 0.63, "bend": 0.0, "ch": 2}, {"t": 46.683, "dur": 0.868, "note": 55, "inst": "celesta_v0_additive_3", "vel": 0.63, "bend": 0.0, "ch": 7}, {"t": 47.598, "dur": 1.828, "note": 45, "inst": "organ_v0_additive_1", "vel": 0.63, "bend": 0.0, "ch": 13}, {"t": 47.598, "dur": 0.914, "note": 41, "inst": "organ_v0_additive_1", "vel": 0.63, "bend": 0.0, "ch": 9}, {"t": 47.598, "dur": 1.737, "note": 57, "inst": "organ_v0_additive_1", "vel": 0.63, "bend": 0.0, "ch": 9}, {"t": 48.513, "dur": 1.371, "note": 57, "inst": "organ_v0_additive_1", "vel": 0.63, "bend": 0.0, "ch": 9}, {"t": 49.427, "dur": 1.303, "note": 45, "inst": "organ_v0_additive_1", "vel": 0.63, "bend": 0.0, "ch": 13}, {"t": 49.885, "dur": 0.456, "note": 58, "inst": "harpsichord_v0_additive_2", "vel": 0.63, "bend": 0.0, "ch": 10}, {"t": 50.342, "dur": 1.371, "note": 45, "inst": "organ_v0_additive_1", "vel": 0.63, "bend": 0.0, "ch": 13}, {"t": 50.342, "dur": 0.456, "note": 60, "inst": "piano_v0_additive_0", "vel": 0.63, "bend": 0.0, "ch": 12}, {"t": 50.799, "dur": 0.434, "note": 46, "inst": "harpsichord_v0_additive_2", "vel": 0.63, "bend": 0.0, "ch": 14}, {"t": 50.799, "dur": 0.456, "note": 62, "inst": "harpsichord_v0_additive_2", "vel": 0.63, "bend": 0.0, "ch": 14}, {"t": 168.323, "dur": 0.395, "note": 38, "inst": "harpsichord_v0_additive_2", "vel": 1.0, "bend": 0.0, "ch": 6}, {"t": 168.323, "dur": 0.395, "note": 50, "inst": "harpsichord_v0_additive_2", "vel": 1.0, "bend": 0.0, "ch": 2}, {"t": 168.718, "dur": 0.395, "note": 41, "inst": "organ_v0_additive_1", "vel": 1.0, "bend": 0.0, "ch": 9}, {"t": 168.718, "dur": 0.395, "note": 58, "inst": "harpsichord_v0_additive_2", "vel": 1.0, "bend": 0.0, "ch": 10}, {"t": 169.113, "dur": 0.395, "note": 41, "inst": "organ_v0_additive_1", "vel": 1.0, "bend": 0.0, "ch": 9}, {"t": 169.113, "dur": 0.395, "note": 57, "inst": "organ_v0_additive_1", "vel": 1.0, "bend": 0.0, "ch": 9}, {"t": 169.508, "dur": 0.395, "note": 41, "inst": "organ_v0_additive_1", "vel": 1.0, "bend": 0.0, "ch": 9}, {"t": 169.508, "dur": 0.395, "note": 58, "inst": "harpsichord_v0_additive_2", "vel": 1.0, "bend": 0.0, "ch": 10}, {"t": 169.903, "dur": 0.395, "note": 41, "inst": "organ_v0_additive_1", "vel": 1.0, "bend": 0.0, "ch": 9}, {"t": 169.903, "dur": 0.395, "note": 57, "inst": "organ_v0_additive_1", "vel": 1.0, "bend": 0.0, "ch": 9}, {"t": 170.298, "dur": 0.395, "note": 38, "inst": "harpsichord_v0_additive_2", "vel": 1.0, "bend": 0.0, "ch": 6}, {"t": 170.298, "dur": 0.395, "note": 50, "inst": "harpsichord_v0_additive_2", "vel": 1.0, "bend": 0.0, "ch": 2}, {"t": 170.693, "dur": 1.185, "note": 34, "inst": "harpsichord_v0_additive_2", "vel": 1.0, "bend": 0.0, "ch": 2}, {"t": 170.693, "dur": 1.185, "note": 38, "inst": "harpsichord_v0_additive_2", "vel": 1.0, "bend": 0.0, "ch": 6}, {"t": 170.891, "dur": 0.198, "note": 58, "inst": "harpsichord_v0_additive_2", "vel": 1.0, "bend": 0.0, "ch": 10}, {"t": 171.088, "dur": 0.198, "note": 57, "inst": "organ_v0_additive_1", "vel": 1.0, "bend": 0.0, "ch": 9}, {"t": 171.286, "dur": 0.198, "note": 53, "inst": "organ_v0_additive_1", "vel": 1.0, "bend": 0.0, "ch": 5}, {"t": 171.484, "dur": 0.593, "note": 62, "inst": "harpsichord_v0_additive_2", "vel": 1.0, "bend": 0.0, "ch": 14}, {"t": 171.879, "dur": 1.185, "note": 26, "inst": "harpsichord_v0_additive_2", "vel": 1.0, "bend": 0.0, "ch": 10}, {"t": 171.879, "dur": 1.185, "note": 38, "inst": "harpsichord_v0_additive_2", "vel": 1.0, "bend": 0.0, "ch": 6}, {"t": 172.076, "dur": 0.198, "note": 50, "inst": "harpsichord_v0_additive_2", "vel": 1.0, "bend": 0.0, "ch": 2}, {"t": 172.274, "dur": 0.198, "note": 58, "inst": "harpsichord_v0_additive_2", "vel": 1.0, "bend": 0.0, "ch": 10}, {"t": 172.471, "dur": 0.198, "note": 57, "inst": "organ_v0_additive_1", "vel": 1.0, "bend": 0.0, "ch": 9}, {"t": 172.669, "dur": 0.593, "note": 62, "inst": "harpsichord_v0_additive_2", "vel": 1.0, "bend": 0.0, "ch": 14}, {"t": 173.064, "dur": 1.185, "note": 38, "inst": "harpsichord_v0_additive_2", "vel": 1.0, "bend": 0.0, "ch": 6}, {"t": 173.064, "dur": 1.185, "note": 41, "inst": "organ_v0_additive_1", "vel": 1.0, "bend": 0.0, "ch": 9}, {"t": 173.261, "dur": 0.198, "note": 62, "inst": "harpsichord_v0_additive_2", "vel": 1.0, "bend": 0.0, "ch": 14}, {"t": 173.459, "dur": 0.198, "note": 50, "inst": "harpsichord_v0_additive_2", "vel": 1.0, "bend": 0.0, "ch": 2}, {"t": 173.656, "dur": 0.198, "note": 58, "inst": "harpsichord_v0_additive_2", "vel": 1.0, "bend": 0.0, "ch": 10}, {"t": 173.854, "dur": 0.395, "note": 65, "inst": "organ_v0_additive_1", "vel": 1.0, "bend": 0.0, "ch": 1}, {"t": 174.249, "dur": 1.185, "note": 38, "inst": "harpsichord_v0_additive_2", "vel": 1.0, "bend": 0.0, "ch": 6}, {"t": 174.249, "dur": 1.185, "note": 41, "inst": "organ_v0_additive_1", "vel": 1.0, "bend": 0.0, "ch": 9}, {"t": 174.644, "dur": 0.395, "note": 45, "inst": "organ_v0_additive_1", "vel": 1.0, "bend": 0.0, "ch": 13}, {"t": 174.644, "dur": 0.395, "note": 53, "inst": "organ_v0_additive_1", "vel": 1.0, "bend": 0.0, "ch": 5}, {"t": 175.039, "dur": 0.395, "note": 46, "inst": "harpsichord_v0_additive_2", "vel": 1.0, "bend": 0.0, "ch": 14}, {"t": 175.039, "dur": 0.395, "note": 53, "inst": "organ_v0_additive_1", "vel": 1.0, "bend": 0.0, "ch": 5}, {"t": 175.434, "dur": 0.395, "note": 38, "inst": "harpsichord_v0_additive_2", "vel": 1.0, "bend": 0.0, "ch": 6}, {"t": 175.434, "dur": 0.395, "note": 57, "inst": "organ_v0_additive_1", "vel": 1.0, "bend": 0.0, "ch": 9}, {"t": 175.829, "dur": 0.395, "note": 50, "inst": "harpsichord_v0_additive_2", "vel": 1.0, "bend": 0.0, "ch": 2}, {"t": 175.829, "dur": 0.395, "note": 58, "inst": "harpsichord_v0_additive_2", "vel": 1.0, "bend": 0.0, "ch": 10}, {"t": 176.224, "dur": 0.395, "note": 50, "inst": "harpsichord_v0_additive_2", "vel": 1.0, "bend": 0.0, "ch": 2}, {"t": 176.224, "dur": 0.395, "note": 50, "inst": "harpsichord_v0_additive_2", "vel": 1.0, "bend": 0.0, "ch": 2}, {"t": 176.619, "dur": 0.395, "note": 50, "inst": "harpsichord_v0_additive_2", "vel": 1.0, "bend": 0.0, "ch": 2}, {"t": 176.619, "dur": 0.395, "note": 58, "inst": "harpsichord_v0_additive_2", "vel": 1.0, "bend": 0.0, "ch": 10}, {"t": 177.014, "dur": 0.395, "note": 50, "inst": "harpsichord_v0_additive_2", "vel": 1.0, "bend": 0.0, "ch": 2}, {"t": 177.014, "dur": 0.395, "note": 50, "inst": "harpsichord_v0_additive_2", "vel": 1.0, "bend": 0.0, "ch": 2}, {"t": 177.409, "dur": 0.395, "note": 38, "inst": "harpsichord_v0_additive_2", "vel": 1.0, "bend": 0.0, "ch": 6}, {"t": 177.409, "dur": 0.395, "note": 57, "inst": "organ_v0_additive_1", "vel": 1.0, "bend": 0.0, "ch": 9}, {"t": 177.805, "dur": 1.185, "note": 50, "inst": "harpsichord_v0_additive_2", "vel": 1.0, "bend": 0.0, "ch": 2}, {"t": 177.805, "dur": 1.185, "note": 58, "inst": "harpsichord_v0_additive_2", "vel": 1.0, "bend": 0.0, "ch": 10}, {"t": 178.2, "dur": 0.395, "note": 41, "inst": "organ_v0_additive_1", "vel": 1.0, "bend": 0.0, "ch": 9}, {"t": 178.595, "dur": 0.395, "note": 26, "inst": "harpsichord_v0_additive_2", "vel": 1.0, "bend": 0.0, "ch": 10}, {"t": 178.99, "dur": 0.395, "note": 38, "inst": "harpsichord_v0_additive_2", "vel": 1.0, "bend": 0.0, "ch": 6}, {"t": 179.385, "dur": 0.395, "note": 33, "inst": "organ_v0_additive_1", "vel": 1.0, "bend": 0.0, "ch": 1}, {"t": 179.78, "dur": 0.395, "note": 34, "inst": "harpsichord_v0_additive_2", "vel": 1.0, "bend": 0.0, "ch": 2}, {"t": 180.175, "dur": 0.395, "note": 28, "inst": "piano_v0_additive_0", "vel": 1.0, "bend": 0.0, "ch": 12}, {"t": 180.175, "dur": 0.395, "note": 41, "inst": "organ_v0_additive_1", "vel": 1.0, "bend": 0.0, "ch": 9}, {"t": 180.175, "dur": 0.395, "note": 38, "inst": "harpsichord_v0_additive_2", "vel": 1.0, "bend": 0.0, "ch": 6}, {"t": 180.57, "dur": 0.395, "note": 29, "inst": "organ_v0_additive_1", "vel": 1.0, "bend": 0.0, "ch": 13}, {"t": 180.57, "dur": 0.395, "note": 45, "inst": "organ_v0_additive_1", "vel": 1.0, "bend": 0.0, "ch": 13}, {"t": 210.002, "dur": 0.187, "note": 50, "inst": "harpsichord_v0_additive_2", "vel": 1.0, "bend": 0.0, "ch": 2}, {"t": 210.002, "dur": 0.187, "note": 53, "inst": "organ_v0_additive_1", "vel": 1.0, "bend": 0.0, "ch": 5}, {"t": 210.002, "dur": 0.187, "note": 74, "inst": "harpsichord_v0_additive_2", "vel": 1.0, "bend": 0.0, "ch": 10}, {"t": 210.002, "dur": 0.187, "note": 77, "inst": "organ_v0_additive_1", "vel": 1.0, "bend": 0.0, "ch": 13}, {"t": 210.189, "dur": 0.187, "note": 38, "inst": "harpsichord_v0_additive_2", "vel": 1.0, "bend": 0.0, "ch": 6}, {"t": 210.189, "dur": 0.187, "note": 62, "inst": "harpsichord_v0_additive_2", "vel": 1.0, "bend": 0.0, "ch": 14}, {"t": 210.376, "dur": 0.187, "note": 50, "inst": "harpsichord_v0_additive_2", "vel": 1.0, "bend": 0.0, "ch": 2}, {"t": 210.376, "dur": 0.187, "note": 74, "inst": "harpsichord_v0_additive_2", "vel": 1.0, "bend": 0.0, "ch": 10}, {"t": 210.563, "dur": 0.187, "note": 53, "inst": "organ_v0_additive_1", "vel": 1.0, "bend": 0.0, "ch": 5}, {"t": 210.563, "dur": 0.187, "note": 77, "inst": "organ_v0_additive_1", "vel": 1.0, "bend": 0.0, "ch": 13}, {"t": 210.75, "dur": 0.374, "note": 53, "inst": "organ_v0_additive_1", "vel": 1.0, "bend": 0.0, "ch": 5}, {"t": 210.75, "dur": 0.374, "note": 77, "inst": "organ_v0_additive_1", "vel": 1.0, "bend": 0.0, "ch": 13}, {"t": 211.124, "dur": 0.374, "note": 41, "inst": "organ_v0_additive_1", "vel": 1.0, "bend": 0.0, "ch": 9}, {"t": 211.124, "dur": 0.374, "note": 65, "inst": "organ_v0_additive_1", "vel": 1.0, "bend": 0.0, "ch": 1}, {"t": 211.498, "dur": 0.094, "note": 50, "inst": "harpsichord_v0_additive_2", "vel": 1.0, "bend": 0.0, "ch": 2}, {"t": 211.592, "dur": 0.094, "note": 67, "inst": "celesta_v0_additive_3", "vel": 1.0, "bend": 0.0, "ch": 3}, {"t": 211.623, "dur": 0.125, "note": 74, "inst": "harpsichord_v0_additive_2", "vel": 1.0, "bend": 0.0, "ch": 10}, {"t": 211.685, "dur": 0.094, "note": 65, "inst": "organ_v0_additive_1", "vel": 1.0, "bend": 0.0, "ch": 1}, {"t": 211.748, "dur": 0.125, "note": 86, "inst": "harpsichord_v0_additive_2", "vel": 1.0, "bend": 0.0, "ch": 6}, {"t": 211.779, "dur": 0.094, "note": 67, "inst": "celesta_v0_additive_3", "vel": 1.0, "bend": 0.0, "ch": 3}, {"t": 211.873, "dur": 0.094, "note": 62, "inst": "harpsichord_v0_additive_2", "vel": 1.0, "bend": 0.0, "ch": 14}, {"t": 211.966, "dur": 0.094, "note": 67, "inst": "celesta_v0_additive_3", "vel": 1.0, "bend": 0.0, "ch": 3}, {"t": 211.997, "dur": 0.125, "note": 84, "inst": "piano_v0_additive_0", "vel": 1.0, "bend": 0.0, "ch": 4}, {"t": 212.06, "dur": 0.094, "note": 65, "inst": "organ_v0_additive_1", "vel": 1.0, "bend": 0.0, "ch": 1}, {"t": 212.122, "dur": 0.125, "note": 96, "inst": "piano_v0_additive_0", "vel": 1.0, "bend": 0.0, "ch": 0}, {"t": 212.153, "dur": 0.094, "note": 67, "inst": "celesta_v0_additive_3", "vel": 1.0, "bend": 0.0, "ch": 3}, {"t": 212.247, "dur": 0.094, "note": 50, "inst": "harpsichord_v0_additive_2", "vel": 1.0, "bend": 0.0, "ch": 2}, {"t": 212.34, "dur": 0.094, "note": 67, "inst": "celesta_v0_additive_3", "vel": 1.0, "bend": 0.0, "ch": 3}, {"t": 212.371, "dur": 0.125, "note": 74, "inst": "harpsichord_v0_additive_2", "vel": 1.0, "bend": 0.0, "ch": 10}, {"t": 212.434, "dur": 0.094, "note": 65, "inst": "organ_v0_additive_1", "vel": 1.0, "bend": 0.0, "ch": 1}, {"t": 212.496, "dur": 0.125, "note": 86, "inst": "harpsichord_v0_additive_2", "vel": 1.0, "bend": 0.0, "ch": 6}, {"t": 212.527, "dur": 0.094, "note": 67, "inst": "celesta_v0_additive_3", "vel": 1.0, "bend": 0.0, "ch": 3}, {"t": 212.621, "dur": 0.094, "note": 53, "inst": "organ_v0_additive_1", "vel": 1.0, "bend": 0.0, "ch": 5}, {"t": 212.714, "dur": 0.094, "note": 65, "inst": "organ_v0_additive_1", "vel": 1.0, "bend": 0.0, "ch": 1}, {"t": 212.745, "dur": 0.125, "note": 81, "inst": "organ_v0_additive_1", "vel": 1.0, "bend": 0.0, "ch": 1}, {"t": 212.808, "dur": 0.094, "note": 64, "inst": "piano_v0_additive_0", "vel": 1.0, "bend": 0.0, "ch": 0}, {"t": 212.87, "dur": 0.125, "note": 93, "inst": "organ_v0_additive_1", "vel": 1.0, "bend": 0.0, "ch": 13}, {"t": 212.901, "dur": 0.094, "note": 65, "inst": "organ_v0_additive_1", "vel": 1.0, "bend": 0.0, "ch": 1}, {"t": 212.995, "dur": 0.094, "note": 59, "inst": "celesta_v0_additive_3", "vel": 1.0, "bend": 0.0, "ch": 11}, {"t": 213.088, "dur": 0.094, "note": 67, "inst": "celesta_v0_additive_3", "vel": 1.0, "bend": 0.0, "ch": 3}, {"t": 213.12, "dur": 0.125, "note": 83, "inst": "celesta_v0_additive_3", "vel": 1.0, "bend": 0.0, "ch": 3}, {"t": 213.182, "dur": 0.094, "note": 62, "inst": "harpsichord_v0_additive_2", "vel": 1.0, "bend": 0.0, "ch": 14}, {"t": 213.244, "dur": 0.125, "note": 95, "inst": "celesta_v0_additive_3", "vel": 1.0, "bend": 0.0, "ch": 15}, {"t": 213.275, "dur": 0.094, "note": 67, "inst": "celesta_v0_additive_3", "vel": 1.0, "bend": 0.0, "ch": 3}, {"t": 213.369, "dur": 0.094, "note": 50, "inst": "harpsichord_v0_additive_2", "vel": 1.0, "bend": 0.0, "ch": 2}, {"t": 213.462, "dur": 0.094, "note": 71, "inst": "celesta_v0_additive_3", "vel": 1.0, "bend": 0.0, "ch": 7}, {"t": 213.494, "dur": 0.125, "note": 77, "inst": "organ_v0_additive_1", "vel": 1.0, "bend": 0.0, "ch": 13}, {"t": 213.556, "dur": 0.094, "note": 67, "inst": "celesta_v0_additive_3", "vel": 1.0, "bend": 0.0, "ch": 3}, {"t": 213.618, "dur": 0.125, "note": 89, "inst": "organ_v0_additive_1", "vel": 1.0, "bend": 0.0, "ch": 9}, {"t": 213.65, "dur": 0.094, "note": 71, "inst": "celesta_v0_additive_3", "vel": 1.0, "bend": 0.0, "ch": 7}, {"t": 213.743, "dur": 0.094, "note": 65, "inst": "organ_v0_additive_1", "vel": 1.0, "bend": 0.0, "ch": 1}, {"t": 213.743, "dur": 0.094, "note": 69, "inst": "organ_v0_additive_1", "vel": 1.0, "bend": 0.0, "ch": 5}, {"t": 213.743, "dur": 0.374, "note": 77, "inst": "organ_v0_additive_1", "vel": 1.0, "bend": 0.0, "ch": 13}, {"t": 213.743, "dur": 0.374, "note": 89, "inst": "organ_v0_additive_1", "vel": 1.0, "bend": 0.0, "ch": 9}, {"t": 213.837, "dur": 0.094, "note": 62, "inst": "harpsichord_v0_additive_2", "vel": 1.0, "bend": 0.0, "ch": 14}, {"t": 213.93, "dur": 0.094, "note": 71, "inst": "celesta_v0_additive_3", "vel": 1.0, "bend": 0.0, "ch": 7}, {"t": 214.024, "dur": 0.094, "note": 69, "inst": "organ_v0_additive_1", "vel": 1.0, "bend": 0.0, "ch": 5}, {"t": 214.117, "dur": 0.094, "note": 67, "inst": "celesta_v0_additive_3", "vel": 1.0, "bend": 0.0, "ch": 3}, {"t": 214.211, "dur": 0.094, "note": 65, "inst": "organ_v0_additive_1", "vel": 1.0, "bend": 0.0, "ch": 1}, {"t": 214.304, "dur": 0.094, "note": 65, "inst": "organ_v0_additive_1", "vel": 1.0, "bend": 0.0, "ch": 1}, {"t": 214.398, "dur": 0.094, "note": 62, "inst": "harpsichord_v0_additive_2", "vel": 1.0, "bend": 0.0, "ch": 14}, {"t": 214.491, "dur": 0.187, "note": 50, "inst": "harpsichord_v0_additive_2", "vel": 1.0, "bend": 0.0, "ch": 2}, {"t": 214.491, "dur": 0.187, "note": 74, "inst": "harpsichord_v0_additive_2", "vel": 1.0, "bend": 0.0, "ch": 10}, {"t": 214.678, "dur": 0.094, "note": 62, "inst": "harpsichord_v0_additive_2", "vel": 1.0, "bend": 0.0, "ch": 14}, {"t": 214.678, "dur": 0.094, "note": 86, "inst": "harpsichord_v0_additive_2", "vel": 1.0, "bend": 0.0, "ch": 6}, {"t": 214.772, "dur": 0.094, "note": 50, "inst": "harpsichord_v0_additive_2", "vel": 1.0, "bend": 0.0, "ch": 2}, {"t": 214.772, "dur": 0.094, "note": 74, "inst": "harpsichord_v0_additive_2", "vel": 1.0, "bend": 0.0, "ch": 10}, {"t": 214.865, "dur": 0.187, "note": 57, "inst": "organ_v0_additive_1", "vel": 1.0, "bend": 0.0, "ch": 9}, {"t": 214.865, "dur": 0.187, "note": 81, "inst": "organ_v0_additive_1", "vel": 1.0, "bend": 0.0, "ch": 1}, {"t": 215.052, "dur": 0.187, "note": 60, "inst": "piano_v0_additive_0", "vel": 1.0, "bend": 0.0, "ch": 12}, {"t": 215.052, "dur": 0.187, "note": 84, "inst": "piano_v0_additive_0", "vel": 1.0, "bend": 0.0, "ch": 4}, {"t": 215.24, "dur": 0.374, "note": 50, "inst": "harpsichord_v0_additive_2", "vel": 1.0, "bend": 0.0, "ch": 2}, {"t": 215.24, "dur": 0.374, "note": 74, "inst": "harpsichord_v0_additive_2", "vel": 1.0, "bend": 0.0, "ch": 10}, {"t": 215.614, "dur": 0.374, "note": 38, "inst": "harpsichord_v0_additive_2", "vel": 1.0, "bend": 0.0, "ch": 6}, {"t": 215.614, "dur": 0.374, "note": 62, "inst": "harpsichord_v0_additive_2", "vel": 1.0, "bend": 0.0, "ch": 14}, {"t": 215.988, "dur": 0.094, "note": 74, "inst": "harpsichord_v0_additive_2", "vel": 1.0, "bend": 0.0, "ch": 10}, {"t": 215.988, "dur": 0.187, "note": 86, "inst": "harpsichord_v0_additive_2", "vel": 1.0, "bend": 0.0, "ch": 6}, {"t": 216.081, "dur": 0.094, "note": 89, "inst": "organ_v0_additive_1", "vel": 1.0, "bend": 0.0, "ch": 9}, {"t": 216.175, "dur": 0.094, "note": 74, "inst": "harpsichord_v0_additive_2", "vel": 1.0, "bend": 0.0, "ch": 10}, {"t": 216.175, "dur": 0.094, "note": 98, "inst": "harpsichord_v0_additive_2", "vel": 1.0, "bend": 0.0, "ch": 2}, {"t": 216.268, "dur": 0.094, "note": 89, "inst": "organ_v0_additive_1", "vel": 1.0, "bend": 0.0, "ch": 9}, {"t": 216.268, "dur": 0.094, "note": 86, "inst": "harpsichord_v0_additive_2", "vel": 1.0, "bend": 0.0, "ch": 6}, {"t": 216.362, "dur": 0.094, "note": 86, "inst": "harpsichord_v0_additive_2", "vel": 1.0, "bend": 0.0, "ch": 6}, {"t": 216.362, "dur": 0.187, "note": 93, "inst": "organ_v0_additive_1", "vel": 1.0, "bend": 0.0, "ch": 13}, {"t": 216.455, "dur": 0.094, "note": 89, "inst": "organ_v0_additive_1", "vel": 1.0, "bend": 0.0, "ch": 9}, {"t": 216.549, "dur": 0.094, "note": 86, "inst": "harpsichord_v0_additive_2", "vel": 1.0, "bend": 0.0, "ch": 6}, {"t": 216.549, "dur": 0.187, "note": 96, "inst": "piano_v0_additive_0", "vel": 1.0, "bend": 0.0, "ch": 0}, {"t": 216.642, "dur": 0.094, "note": 89, "inst": "organ_v0_additive_1", "vel": 1.0, "bend": 0.0, "ch": 9}, {"t": 216.736, "dur": 0.374, "note": 74, "inst": "harpsichord_v0_additive_2", "vel": 1.0, "bend": 0.0, "ch": 10}, {"t": 216.736, "dur": 0.374, "note": 89, "inst": "organ_v0_additive_1", "vel": 1.0, "bend": 0.0, "ch": 9}, {"t": 216.736, "dur": 0.374, "note": 86, "inst": "harpsichord_v0_additive_2", "vel": 1.0, "bend": 0.0, "ch": 6}, {"t": 217.484, "dur": 0.187, "note": 50, "inst": "harpsichord_v0_additive_2", "vel": 1.0, "bend": 0.0, "ch": 2}, {"t": 217.484, "dur": 0.187, "note": 53, "inst": "organ_v0_additive_1", "vel": 1.0, "bend": 0.0, "ch": 5}, {"t": 217.484, "dur": 0.187, "note": 74, "inst": "harpsichord_v0_additive_2", "vel": 1.0, "bend": 0.0, "ch": 10}, {"t": 217.484, "dur": 0.187, "note": 77, "inst": "organ_v0_additive_1", "vel": 1.0, "bend": 0.0, "ch": 13}, {"t": 217.671, "dur": 0.187, "note": 38, "inst": "harpsichord_v0_additive_2", "vel": 1.0, "bend": 0.0, "ch": 6}, {"t": 217.671, "dur": 0.187, "note": 62, "inst": "harpsichord_v0_additive_2", "vel": 1.0, "bend": 0.0, "ch": 14}, {"t": 244.0, "type": "tts", "inst": "voice", "text": "r ? s+extends s+ w+ ?. self._transition_total 0"}], "instruments": ["celesta_v0_additive_3", "harpsichord_v0_additive_2", "organ_v0_additive_1", "piano_v0_additive_0", "voice"], "duration": 244.0, "n_events": 351}