{"events": [{"t": 0.095, "dur": 0.363, "note": 35, "inst": "celesta_v0_additive_3", "vel": 1.0, "bend": 0.0, "ch": 3}, {"t": 0.095, "dur": 0.182, "note": 66, "inst": "harpsichord_v0_additive_2", "vel": 1.0, "bend": 0.0, "ch": 2}, {"t": 0.276, "dur": 0.182, "note": 59, "inst": "celesta_v0_additive_3", "vel": 1.0, "bend": 0.0, "ch": 11}, {"t": 0.458, "dur": 0.363, "note": 40, "inst": "piano_v0_additive_0", "vel": 1.0, "bend": 0.0, "ch": 8}, {"t": 0.458, "dur": 0.363, "note": 64, "inst": "piano_v0_additive_0", "vel": 1.0, "bend": 0.0, "ch": 0}, {"t": 0.821, "dur": 0.182, "note": 76, "inst": "piano_v0_additive_0", "vel": 1.0, "bend": 0.0, "ch": 12}, {"t": 1.002, "dur": 0.061, "note": 76, "inst": "piano_v0_additive_0", "vel": 1.0, "bend": 0.0, "ch": 12}, {"t": 1.063, "dur": 0.061, "note": 78, "inst": "harpsichord_v0_additive_2", "vel": 1.0, "bend": 0.0, "ch": 14}, {"t": 1.123, "dur": 0.061, "note": 76, "inst": "piano_v0_additive_0", "vel": 1.0, "bend": 0.0, "ch": 12}, {"t": 1.184, "dur": 0.363, "note": 35, "inst": "celesta_v0_additive_3", "vel": 1.0, "bend": 0.0, "ch": 3}, {"t": 1.184, "dur": 0.182, "note": 76, "inst": "piano_v0_additive_0", "vel": 1.0, "bend": 0.0, "ch": 12}, {"t": 1.366, "dur": 0.182, "note": 80, "inst": "piano_v0_additive_0", "vel": 1.0, "bend": 0.0, "ch": 0}, {"t": 1.547, "dur": 0.363, "note": 30, "inst": "harpsichord_v0_additive_2", "vel": 1.0, "bend": 0.0, "ch": 14}, {"t": 1.547, "dur": 0.182, "note": 78, "inst": "harpsichord_v0_additive_2", "vel": 1.0, "bend": 0.0, "ch": 14}, {"t": 1.729, "dur": 0.061, "note": 73, "inst": "organ_v0_additive_1", "vel": 1.0, "bend": 0.0, "ch": 9}, {"t": 1.789, "dur": 0.061, "note": 76, "inst": "piano_v0_additive_0", "vel": 1.0, "bend": 0.0, "ch": 12}, {"t": 1.85, "dur": 0.061, "note": 73, "inst": "organ_v0_additive_1", "vel": 1.0, "bend": 0.0, "ch": 9}, {"t": 1.91, "dur": 0.363, "note": 35, "inst": "celesta_v0_additive_3", "vel": 1.0, "bend": 0.0, "ch": 3}, {"t": 1.91, "dur": 0.182, "note": 71, "inst": "celesta_v0_additive_3", "vel": 1.0, "bend": 0.0, "ch": 7}, {"t": 2.092, "dur": 0.182, "note": 76, "inst": "piano_v0_additive_0", "vel": 1.0, "bend": 0.0, "ch": 12}, {"t": 2.273, "dur": 0.363, "note": 30, "inst": "harpsichord_v0_additive_2", "vel": 1.0, "bend": 0.0, "ch": 14}, {"t": 2.273, "dur": 0.182, "note": 76, "inst": "piano_v0_additive_0", "vel": 1.0, "bend": 0.0, "ch": 12}, {"t": 2.455, "dur": 0.182, "note": 71, "inst": "celesta_v0_additive_3", "vel": 1.0, "bend": 0.0, "ch": 7}, {"t": 2.636, "dur": 0.363, "note": 35, "inst": "celesta_v0_additive_3", "vel": 1.0, "bend": 0.0, "ch": 3}, {"t": 2.636, "dur": 0.091, "note": 66, "inst": "harpsichord_v0_additive_2", "vel": 1.0, "bend": 0.0, "ch": 2}, {"t": 2.727, "dur": 0.091, "note": 64, "inst": "piano_v0_additive_0", "vel": 1.0, "bend": 0.0, "ch": 0}, {"t": 2.818, "dur": 0.091, "note": 66, "inst": "harpsichord_v0_additive_2", "vel": 1.0, "bend": 0.0, "ch": 2}, {"t": 84.075, "dur": 0.1, "note": 74, "inst": "harpsichord_v0_additive_2", "vel": 0.685, "bend": 0.0, "ch": 10}, {"t": 84.175, "dur": 0.1, "note": 62, "inst": "harpsichord_v0_additive_2", "vel": 0.535, "bend": 0.0, "ch": 14}, {"t": 84.275, "dur": 0.1, "note": 74, "inst": "harpsichord_v0_additive_2", "vel": 0.677, "bend": 0.0, "ch": 10}, {"t": 84.376, "dur": 0.1, "note": 62, "inst": "harpsichord_v0_additive_2", "vel": 0.52, "bend": 0.0, "ch": 14}, {"t": 84.476, "dur": 0.1, "note": 74, "inst": "harpsichord_v0_additive_2", "vel": 0.661, "bend": 0.0, "ch": 10}, {"t": 84.576, "dur": 0.1, "note": 62, "inst": "harpsichord_v0_additive_2", "vel": 0.512, "bend": 0.0, "ch": 14}, {"t": 84.676, "dur": 0.1, "note": 74, "inst": "harpsichord_v0_additive_2", "vel": 0.677, "bend": 0.0, "ch": 10}, {"t": 84.776, "dur": 0.1, "note": 62, "inst": "harpsichord_v0_additive_2", "vel": 0.551, "bend": 0.0, "ch": 14}, {"t": 84.876, "dur": 0.1, "note": 74, "inst": "harpsichord_v0_additive_2", "vel": 0.677, "bend": 0.0, "ch": 10}, {"t": 84.977, "dur": 0.1, "note": 62, "inst": "harpsichord_v0_additive_2", "vel": 0.504, "bend": 0.0, "ch": 14}, {"t": 85.077, "dur": 0.1, "note": 74, "inst": "harpsichord_v0_additive_2", "vel": 0.685, "bend": 0.0, "ch": 10}, {"t": 85.177, "dur": 0.1, "note": 62, "inst": "harpsichord_v0_additive_2", "vel": 0.488, "bend": 0.0, "ch": 14}, {"t": 85.277, "dur": 0.1, "note": 74, "inst": "harpsichord_v0_additive_2", "vel": 0.693, "bend": 0.0, "ch": 10}, {"t": 85.377, "dur": 0.1, "note": 62, "inst": "harpsichord_v0_additive_2", "vel": 0.512, "bend": 0.0, "ch": 14}, {"t": 85.477, "dur": 0.1, "note": 74, "inst": "harpsichord_v0_additive_2", "vel": 0.661, "bend": 0.0, "ch": 10}, {"t": 85.578, "dur": 0.2, "note": 62, "inst": "harpsichord_v0_additive_2", "vel": 0.598, "bend": 0.0, "ch": 14}, {"t": 85.578, "dur": 0.2, "note": 74, "inst": "harpsichord_v0_additive_2", "vel": 0.598, "bend": 0.0, "ch": 10}, {"t": 85.778, "dur": 0.2, "note": 57, "inst": "organ_v0_additive_1", "vel": 0.559, "bend": 0.0, "ch": 9}, {"t": 85.778, "dur": 0.2, "note": 69, "inst": "organ_v0_additive_1", "vel": 0.559, "bend": 0.0, "ch": 5}, {"t": 85.978, "dur": 0.2, "note": 62, "inst": "harpsichord_v0_additive_2", "vel": 0.638, "bend": 0.0, "ch": 14}, {"t": 85.978, "dur": 0.2, "note": 74, "inst": "harpsichord_v0_additive_2", "vel": 0.638, "bend": 0.0, "ch": 10}, {"t": 86.179, "dur": 0.2, "note": 57, "inst": "organ_v0_additive_1", "vel": 0.559, "bend": 0.0, "ch": 9}, {"t": 86.179, "dur": 0.2, "note": 69, "inst": "organ_v0_additive_1", "vel": 0.559, "bend": 0.0, "ch": 5}, {"t": 86.379, "dur": 0.2, "note": 62, "inst": "harpsichord_v0_additive_2", "vel": 0.654, "bend": 0.0, "ch": 14}, {"t": 86.379, "dur": 0.2, "note": 74, "inst": "harpsichord_v0_additive_2", "vel": 0.654, "bend": 0.0, "ch": 10}, {"t": 86.579, "dur": 0.2, "note": 57, "inst": "organ_v0_additive_1", "vel": 0.559, "bend": 0.0, "ch": 9}, {"t": 86.579, "dur": 0.2, "note": 69, "inst": "organ_v0_additive_1", "vel": 0.559, "bend": 0.0, "ch": 5}, {"t": 86.78, "dur": 0.2, "note": 62, "inst": "harpsichord_v0_additive_2", "vel": 0.622, "bend": 0.0, "ch": 14}, {"t": 86.78, "dur": 0.2, "note": 74, "inst": "harpsichord_v0_additive_2", "vel": 0.622, "bend": 0.0, "ch": 10}, {"t": 86.98, "dur": 0.2, "note": 57, "inst": "organ_v0_additive_1", "vel": 0.567, "bend": 0.0, "ch": 9}, {"t": 86.98, "dur": 0.2, "note": 69, "inst": "organ_v0_additive_1", "vel": 0.567, "bend": 0.0, "ch": 5}, {"t": 87.18, "dur": 0.1, "note": 62, "inst": "harpsichord_v0_additive_2", "vel": 0.543, "bend": 0.0, "ch": 14}, {"t": 87.18, "dur": 1.603, "note": 86, "inst": "harpsichord_v0_additive_2", "vel": 0.433, "bend": 0.0, "ch": 6}, {"t": 87.28, "dur": 0.1, "note": 74, "inst": "harpsichord_v0_additive_2", "vel": 0.677, "bend": 0.0, "ch": 10}, {"t": 87.381, "dur": 0.1, "note": 62, "inst": "harpsichord_v0_additive_2", "vel": 0.535, "bend": 0.0, "ch": 14}, {"t": 87.481, "dur": 0.1, "note": 74, "inst": "harpsichord_v0_additive_2", "vel": 0.646, "bend": 0.0, "ch": 10}, {"t": 87.581, "dur": 0.1, "note": 62, "inst": "harpsichord_v0_additive_2", "vel": 0.543, "bend": 0.0, "ch": 14}, {"t": 87.681, "dur": 0.1, "note": 74, "inst": "harpsichord_v0_additive_2", "vel": 0.646, "bend": 0.0, "ch": 10}, {"t": 87.781, "dur": 0.1, "note": 62, "inst": "harpsichord_v0_additive_2", "vel": 0.535, "bend": 0.0, "ch": 14}, {"t": 87.881, "dur": 0.1, "note": 74, "inst": "harpsichord_v0_additive_2", "vel": 0.669, "bend": 0.0, "ch": 10}, {"t": 87.982, "dur": 0.1, "note": 62, "inst": "harpsichord_v0_additive_2", "vel": 0.496, "bend": 0.0, "ch": 14}, {"t": 88.082, "dur": 0.1, "note": 74, "inst": "harpsichord_v0_additive_2", "vel": 0.654, "bend": 0.0, "ch": 10}, {"t": 88.182, "dur": 0.1, "note": 62, "inst": "harpsichord_v0_additive_2", "vel": 0.512, "bend": 0.0, "ch": 14}, {"t": 88.282, "dur": 0.1, "note": 74, "inst": "harpsichord_v0_additive_2", "vel": 0.646, "bend": 0.0, "ch": 10}, {"t": 88.382, "dur": 0.1, "note": 62, "inst": "harpsichord_v0_additive_2", "vel": 0.535, "bend": 0.0, "ch": 14}, {"t": 88.482, "dur": 0.1, "note": 74, "inst": "harpsichord_v0_additive_2", "vel": 0.646, "bend": 0.0, "ch": 10}, {"t": 88.583, "dur": 0.1, "note": 62, "inst": "harpsichord_v0_additive_2", "vel": 0.535, "bend": 0.0, "ch": 14}, {"t": 88.683, "dur": 0.1, "note": 74, "inst": "harpsichord_v0_additive_2", "vel": 0.622, "bend": 0.0, "ch": 10}, {"t": 88.783, "dur": 0.1, "note": 62, "inst": "harpsichord_v0_additive_2", "vel": 0.52, "bend": 0.0, "ch": 14}, {"t": 88.783, "dur": 1.603, "note": 93, "inst": "organ_v0_additive_1", "vel": 0.677, "bend": 0.0, "ch": 13}, {"t": 88.883, "dur": 0.1, "note": 74, "inst": "harpsichord_v0_additive_2", "vel": 0.693, "bend": 0.0, "ch": 10}, {"t": 88.983, "dur": 0.1, "note": 62, "inst": "harpsichord_v0_additive_2", "vel": 0.512, "bend": 0.0, "ch": 14}, {"t": 89.083, "dur": 0.1, "note": 74, "inst": "harpsichord_v0_additive_2", "vel": 0.693, "bend": 0.0, "ch": 10}, {"t": 89.184, "dur": 0.1, "note": 62, "inst": "harpsichord_v0_additive_2", "vel": 0.496, "bend": 0.0, "ch": 14}, {"t": 89.284, "dur": 0.1, "note": 74, "inst": "harpsichord_v0_additive_2", "vel": 0.654, "bend": 0.0, "ch": 10}, {"t": 89.384, "dur": 0.1, "note": 62, "inst": "harpsichord_v0_additive_2", "vel": 0.528, "bend": 0.0, "ch": 14}, {"t": 89.484, "dur": 0.1, "note": 74, "inst": "harpsichord_v0_additive_2", "vel": 0.646, "bend": 0.0, "ch": 10}, {"t": 89.584, "dur": 0.1, "note": 62, "inst": "harpsichord_v0_additive_2", "vel": 0.496, "bend": 0.0, "ch": 14}, {"t": 126.187, "dur": 0.119, "note": 68, "inst": "piano_v0_additive_0", "vel": 0.709, "bend": 0.0, "ch": 4}, {"t": 126.187, "dur": 0.119, "note": 68, "inst": "piano_v0_additive_0", "vel": 0.709, "bend": 0.0, "ch": 4}, {"t": 126.307, "dur": 0.119, "note": 66, "inst": "harpsichord_v0_additive_2", "vel": 0.709, "bend": 0.0, "ch": 2}, {"t": 126.307, "dur": 0.119, "note": 66, "inst": "harpsichord_v0_additive_2", "vel": 0.709, "bend": 0.0, "ch": 2}, {"t": 126.426, "dur": 0.239, "note": 64, "inst": "piano_v0_additive_0", "vel": 0.709, "bend": 0.0, "ch": 0}, {"t": 126.426, "dur": 0.239, "note": 64, "inst": "piano_v0_additive_0", "vel": 0.709, "bend": 0.0, "ch": 0}, {"t": 126.426, "dur": 0.239, "note": 92, "inst": "piano_v0_additive_0", "vel": 0.709, "bend": 0.0, "ch": 12}, {"t": 126.664, "dur": 0.239, "note": 66, "inst": "harpsichord_v0_additive_2", "vel": 0.709, "bend": 0.0, "ch": 2}, {"t": 126.664, "dur": 0.239, "note": 66, "inst": "harpsichord_v0_additive_2", "vel": 0.709, "bend": 0.0, "ch": 2}, {"t": 126.664, "dur": 0.477, "note": 85, "inst": "organ_v0_additive_1", "vel": 0.709, "bend": 0.0, "ch": 5}, {"t": 126.903, "dur": 0.239, "note": 54, "inst": "harpsichord_v0_additive_2", "vel": 0.709, "bend": 0.0, "ch": 6}, {"t": 126.903, "dur": 0.239, "note": 61, "inst": "organ_v0_additive_1", "vel": 0.709, "bend": 0.0, "ch": 13}, {"t": 126.903, "dur": 0.716, "note": 80, "inst": "piano_v0_additive_0", "vel": 0.709, "bend": 0.0, "ch": 0}, {"t": 127.141, "dur": 0.239, "note": 66, "inst": "harpsichord_v0_additive_2", "vel": 0.709, "bend": 0.0, "ch": 2}, {"t": 127.141, "dur": 0.239, "note": 66, "inst": "harpsichord_v0_additive_2", "vel": 0.709, "bend": 0.0, "ch": 2}, {"t": 127.141, "dur": 0.239, "note": 80, "inst": "piano_v0_additive_0", "vel": 0.709, "bend": 0.0, "ch": 0}, {"t": 127.38, "dur": 0.239, "note": 59, "inst": "celesta_v0_additive_3", "vel": 0.709, "bend": 0.0, "ch": 11}, {"t": 127.38, "dur": 0.239, "note": 59, "inst": "celesta_v0_additive_3", "vel": 0.709, "bend": 0.0, "ch": 11}, {"t": 127.38, "dur": 0.716, "note": 86, "inst": "harpsichord_v0_additive_2", "vel": 0.709, "bend": 0.0, "ch": 6}, {"t": 127.619, "dur": 0.239, "note": 64, "inst": "piano_v0_additive_0", "vel": 0.709, "bend": 0.0, "ch": 0}, {"t": 127.619, "dur": 0.239, "note": 64, "inst": "piano_v0_additive_0", "vel": 0.709, "bend": 0.0, "ch": 0}, {"t": 127.619, "dur": 0.716, "note": 80, "inst": "piano_v0_additive_0", "vel": 0.709, "bend": 0.0, "ch": 0}, {"t": 127.857, "dur": 0.239, "note": 52, "inst": "piano_v0_additive_0", "vel": 0.709, "bend": 0.0, "ch": 4}, {"t": 127.857, "dur": 0.239, "note": 52, "inst": "piano_v0_additive_0", "vel": 0.709, "bend": 0.0, "ch": 4}, {"t": 128.096, "dur": 0.477, "note": 56, "inst": "piano_v0_additive_0", "vel": 0.709, "bend": 0.0, "ch": 8}, {"t": 128.096, "dur": 0.477, "note": 56, "inst": "piano_v0_additive_0", "vel": 0.709, "bend": 0.0, "ch": 8}, {"t": 128.096, "dur": 0.716, "note": 85, "inst": "organ_v0_additive_1", "vel": 0.709, "bend": 0.0, "ch": 5}, {"t": 128.334, "dur": 0.239, "note": 73, "inst": "organ_v0_additive_1", "vel": 0.709, "bend": 0.0, "ch": 9}, {"t": 128.573, "dur": 0.239, "note": 62, "inst": "harpsichord_v0_additive_2", "vel": 0.709, "bend": 0.0, "ch": 14}, {"t": 128.573, "dur": 0.239, "note": 62, "inst": "harpsichord_v0_additive_2", "vel": 0.709, "bend": 0.0, "ch": 14}, {"t": 128.573, "dur": 0.477, "note": 78, "inst": "harpsichord_v0_additive_2", "vel": 0.709, "bend": 0.0, "ch": 14}, {"t": 128.811, "dur": 0.477, "note": 56, "inst": "piano_v0_additive_0", "vel": 0.709, "bend": 0.0, "ch": 8}, {"t": 128.811, "dur": 0.477, "note": 56, "inst": "piano_v0_additive_0", "vel": 0.709, "bend": 0.0, "ch": 8}, {"t": 128.811, "dur": 0.716, "note": 83, "inst": "celesta_v0_additive_3", "vel": 0.709, "bend": 0.0, "ch": 3}, {"t": 129.05, "dur": 0.239, "note": 71, "inst": "celesta_v0_additive_3", "vel": 0.709, "bend": 0.0, "ch": 7}, {"t": 129.288, "dur": 0.239, "note": 61, "inst": "organ_v0_additive_1", "vel": 0.709, "bend": 0.0, "ch": 13}, {"t": 129.288, "dur": 0.239, "note": 61, "inst": "organ_v0_additive_1", "vel": 0.709, "bend": 0.0, "ch": 13}, {"t": 129.288, "dur": 0.477, "note": 76, "inst": "piano_v0_additive_0", "vel": 0.709, "bend": 0.0, "ch": 12}, {"t": 129.527, "dur": 0.477, "note": 54, "inst": "harpsichord_v0_additive_2", "vel": 0.709, "bend": 0.0, "ch": 6}, {"t": 129.527, "dur": 0.477, "note": 54, "inst": "harpsichord_v0_additive_2", "vel": 0.709, "bend": 0.0, "ch": 6}, {"t": 129.527, "dur": 0.716, "note": 80, "inst": "piano_v0_additive_0", "vel": 0.709, "bend": 0.0, "ch": 0}, {"t": 129.765, "dur": 0.239, "note": 68, "inst": "piano_v0_additive_0", "vel": 0.709, "bend": 0.0, "ch": 4}, {"t": 130.004, "dur": 0.239, "note": 59, "inst": "celesta_v0_additive_3", "vel": 0.709, "bend": 0.0, "ch": 11}, {"t": 130.004, "dur": 0.239, "note": 59, "inst": "celesta_v0_additive_3", "vel": 0.709, "bend": 0.0, "ch": 11}, {"t": 130.004, "dur": 0.716, "note": 74, "inst": "harpsichord_v0_additive_2", "vel": 0.709, "bend": 0.0, "ch": 10}, {"t": 130.242, "dur": 0.477, "note": 52, "inst": "piano_v0_additive_0", "vel": 0.709, "bend": 0.0, "ch": 4}, {"t": 130.242, "dur": 0.477, "note": 52, "inst": "piano_v0_additive_0", "vel": 0.709, "bend": 0.0, "ch": 4}, {"t": 130.242, "dur": 0.239, "note": 80, "inst": "piano_v0_additive_0", "vel": 0.709, "bend": 0.0, "ch": 0}, {"t": 130.481, "dur": 0.239, "note": 76, "inst": "piano_v0_additive_0", "vel": 0.709, "bend": 0.0, "ch": 12}, {"t": 130.72, "dur": 0.239, "note": 54, "inst": "harpsichord_v0_additive_2", "vel": 0.709, "bend": 0.0, "ch": 6}, {"t": 130.72, "dur": 0.239, "note": 54, "inst": "harpsichord_v0_additive_2", "vel": 0.709, "bend": 0.0, "ch": 6}, {"t": 130.72, "dur": 0.477, "note": 73, "inst": "organ_v0_additive_1", "vel": 0.709, "bend": 0.0, "ch": 9}, {"t": 130.72, "dur": 0.239, "note": 80, "inst": "piano_v0_additive_0", "vel": 0.709, "bend": 0.0, "ch": 0}, {"t": 130.958, "dur": 0.239, "note": 50, "inst": "harpsichord_v0_additive_2", "vel": 0.709, "bend": 0.0, "ch": 2}, {"t": 130.958, "dur": 0.239, "note": 50, "inst": "harpsichord_v0_additive_2", "vel": 0.709, "bend": 0.0, "ch": 2}, {"t": 130.958, "dur": 0.239, "note": 68, "inst": "piano_v0_additive_0", "vel": 0.709, "bend": 0.0, "ch": 4}, {"t": 131.197, "dur": 0.477, "note": 52, "inst": "piano_v0_additive_0", "vel": 0.709, "bend": 0.0, "ch": 4}, {"t": 131.197, "dur": 0.477, "note": 52, "inst": "piano_v0_additive_0", "vel": 0.709, "bend": 0.0, "ch": 4}, {"t": 131.197, "dur": 0.358, "note": 68, "inst": "piano_v0_additive_0", "vel": 0.709, "bend": 0.0, "ch": 4}, {"t": 131.197, "dur": 0.477, "note": 71, "inst": "celesta_v0_additive_3", "vel": 0.709, "bend": 0.0, "ch": 7}, {"t": 131.554, "dur": 0.119, "note": 68, "inst": "piano_v0_additive_0", "vel": 0.709, "bend": 0.0, "ch": 4}, {"t": 131.674, "dur": 0.239, "note": 56, "inst": "piano_v0_additive_0", "vel": 0.709, "bend": 0.0, "ch": 8}, {"t": 131.674, "dur": 0.239, "note": 56, "inst": "piano_v0_additive_0", "vel": 0.709, "bend": 0.0, "ch": 8}, {"t": 131.674, "dur": 0.239, "note": 68, "inst": "piano_v0_additive_0", "vel": 0.709, "bend": 0.0, "ch": 4}, {"t": 131.674, "dur": 0.477, "note": 68, "inst": "piano_v0_additive_0", "vel": 0.709, "bend": 0.0, "ch": 4}, {"t": 131.912, "dur": 0.477, "note": 68, "inst": "piano_v0_additive_0", "vel": 0.709, "bend": 0.0, "ch": 4}, {"t": 131.912, "dur": 0.477, "note": 68, "inst": "piano_v0_additive_0", "vel": 0.709, "bend": 0.0, "ch": 4}, {"t": 131.912, "dur": 0.358, "note": 85, "inst": "organ_v0_additive_1", "vel": 0.709, "bend": 0.0, "ch": 5}, {"t": 132.27, "dur": 0.119, "note": 86, "inst": "harpsichord_v0_additive_2", "vel": 0.709, "bend": 0.0, "ch": 6}, {"t": 132.389, "dur": 0.239, "note": 68, "inst": "piano_v0_additive_0", "vel": 0.709, "bend": 0.0, "ch": 4}, {"t": 132.389, "dur": 0.239, "note": 68, "inst": "piano_v0_additive_0", "vel": 0.709, "bend": 0.0, "ch": 4}, {"t": 132.389, "dur": 0.239, "note": 88, "inst": "piano_v0_additive_0", "vel": 0.709, "bend": 0.0, "ch": 8}, {"t": 132.628, "dur": 0.477, "note": 70, "inst": "harpsichord_v0_additive_2", "vel": 0.709, "bend": 0.0, "ch": 6}, {"t": 132.628, "dur": 0.477, "note": 70, "inst": "harpsichord_v0_additive_2", "vel": 0.709, "bend": 0.0, "ch": 6}, {"t": 132.628, "dur": 0.358, "note": 85, "inst": "organ_v0_additive_1", "vel": 0.709, "bend": 0.0, "ch": 5}, {"t": 132.628, "dur": 0.119, "note": 90, "inst": "harpsichord_v0_additive_2", "vel": 0.709, "bend": 0.0, "ch": 10}, {"t": 132.747, "dur": 0.119, "note": 88, "inst": "piano_v0_additive_0", "vel": 0.709, "bend": 0.0, "ch": 8}, {"t": 132.866, "dur": 0.119, "note": 86, "inst": "harpsichord_v0_additive_2", "vel": 0.709, "bend": 0.0, "ch": 6}, {"t": 132.986, "dur": 0.119, "note": 85, "inst": "organ_v0_additive_1", "vel": 0.709, "bend": 0.0, "ch": 5}, {"t": 132.986, "dur": 0.119, "note": 85, "inst": "organ_v0_additive_1", "vel": 0.709, "bend": 0.0, "ch": 5}, {"t": 133.105, "dur": 0.358, "note": 71, "inst": "celesta_v0_additive_3", "vel": 0.709, "bend": 0.0, "ch": 7}, {"t": 133.105, "dur": 0.358, "note": 71, "inst": "celesta_v0_additive_3", "vel": 0.709, "bend": 0.0, "ch": 7}, {"t": 133.105, "dur": 0.358, "note": 78, "inst": "harpsichord_v0_additive_2", "vel": 0.709, "bend": 0.0, "ch": 14}, {"t": 133.105, "dur": 0.358, "note": 86, "inst": "harpsichord_v0_additive_2", "vel": 0.709, "bend": 0.0, "ch": 6}, {"t": 133.463, "dur": 0.119, "note": 62, "inst": "harpsichord_v0_additive_2", "vel": 0.709, "bend": 0.0, "ch": 14}, {"t": 133.463, "dur": 0.119, "note": 62, "inst": "harpsichord_v0_additive_2", "vel": 0.709, "bend": 0.0, "ch": 14}, {"t": 133.463, "dur": 0.119, "note": 83, "inst": "celesta_v0_additive_3", "vel": 0.709, "bend": 0.0, "ch": 3}, {"t": 133.463, "dur": 0.119, "note": 90, "inst": "harpsichord_v0_additive_2", "vel": 0.709, "bend": 0.0, "ch": 10}, {"t": 133.582, "dur": 0.477, "note": 64, "inst": "piano_v0_additive_0", "vel": 0.709, "bend": 0.0, "ch": 0}, {"t": 133.582, "dur": 0.477, "note": 64, "inst": "piano_v0_additive_0", "vel": 0.709, "bend": 0.0, "ch": 0}, {"t": 133.582, "dur": 0.239, "note": 82, "inst": "harpsichord_v0_additive_2", "vel": 0.709, "bend": 0.0, "ch": 2}, {"t": 133.582, "dur": 0.239, "note": 85, "inst": "organ_v0_additive_1", "vel": 0.709, "bend": 0.0, "ch": 5}, {"t": 133.821, "dur": 0.239, "note": 83, "inst": "celesta_v0_additive_3", "vel": 0.709, "bend": 0.0, "ch": 3}, {"t": 133.821, "dur": 0.239, "note": 86, "inst": "harpsichord_v0_additive_2", "vel": 0.709, "bend": 0.0, "ch": 6}, {"t": 134.059, "dur": 0.477, "note": 66, "inst": "harpsichord_v0_additive_2", "vel": 0.709, "bend": 0.0, "ch": 2}, {"t": 134.059, "dur": 0.477, "note": 66, "inst": "harpsichord_v0_additive_2", "vel": 0.709, "bend": 0.0, "ch": 2}, {"t": 134.059, "dur": 0.358, "note": 83, "inst": "celesta_v0_additive_3", "vel": 0.709, "bend": 0.0, "ch": 3}, {"t": 134.059, "dur": 0.477, "note": 85, "inst": "organ_v0_additive_1", "vel": 0.709, "bend": 0.0, "ch": 5}, {"t": 134.417, "dur": 0.119, "note": 82, "inst": "harpsichord_v0_additive_2", "vel": 0.709, "bend": 0.0, "ch": 2}, {"t": 134.536, "dur": 0.239, "note": 59, "inst": "celesta_v0_additive_3", "vel": 0.709, "bend": 0.0, "ch": 11}, {"t": 134.536, "dur": 0.239, "note": 59, "inst": "celesta_v0_additive_3", "vel": 0.709, "bend": 0.0, "ch": 11}, {"t": 134.536, "dur": 0.239, "note": 83, "inst": "celesta_v0_additive_3", "vel": 0.709, "bend": 0.0, "ch": 3}, {"t": 134.536, "dur": 0.477, "note": 83, "inst": "celesta_v0_additive_3", "vel": 0.709, "bend": 0.0, "ch": 3}, {"t": 134.775, "dur": 0.477, "note": 58, "inst": "harpsichord_v0_additive_2", "vel": 0.709, "bend": 0.0, "ch": 10}, {"t": 134.775, "dur": 0.477, "note": 58, "inst": "harpsichord_v0_additive_2", "vel": 0.709, "bend": 0.0, "ch": 10}, {"t": 134.775, "dur": 0.119, "note": 90, "inst": "harpsichord_v0_additive_2", "vel": 0.709, "bend": 0.0, "ch": 10}, {"t": 134.894, "dur": 0.119, "note": 88, "inst": "piano_v0_additive_0", "vel": 0.709, "bend": 0.0, "ch": 8}, {"t": 135.013, "dur": 0.119, "note": 86, "inst": "harpsichord_v0_additive_2", "vel": 0.709, "bend": 0.0, "ch": 6}, {"t": 135.133, "dur": 0.119, "note": 85, "inst": "organ_v0_additive_1", "vel": 0.709, "bend": 0.0, "ch": 5}, {"t": 135.252, "dur": 0.239, "note": 59, "inst": "celesta_v0_additive_3", "vel": 0.709, "bend": 0.0, "ch": 11}, {"t": 135.252, "dur": 0.239, "note": 59, "inst": "celesta_v0_additive_3", "vel": 0.709, "bend": 0.0, "ch": 11}, {"t": 135.252, "dur": 0.239, "note": 86, "inst": "harpsichord_v0_additive_2", "vel": 0.709, "bend": 0.0, "ch": 6}, {"t": 135.49, "dur": 0.477, "note": 54, "inst": "harpsichord_v0_additive_2", "vel": 0.709, "bend": 0.0, "ch": 6}, {"t": 135.49, "dur": 0.477, "note": 54, "inst": "harpsichord_v0_additive_2", "vel": 0.709, "bend": 0.0, "ch": 6}, {"t": 135.49, "dur": 0.477, "note": 85, "inst": "organ_v0_additive_1", "vel": 0.709, "bend": 0.0, "ch": 5}, {"t": 135.49, "dur": 0.119, "note": 90, "inst": "harpsichord_v0_additive_2", "vel": 0.709, "bend": 0.0, "ch": 10}, {"t": 135.61, "dur": 0.119, "note": 88, "inst": "piano_v0_additive_0", "vel": 0.709, "bend": 0.0, "ch": 8}, {"t": 135.729, "dur": 0.119, "note": 86, "inst": "harpsichord_v0_additive_2", "vel": 0.709, "bend": 0.0, "ch": 6}, {"t": 135.848, "dur": 0.119, "note": 85, "inst": "organ_v0_additive_1", "vel": 0.709, "bend": 0.0, "ch": 5}, {"t": 135.967, "dur": 0.239, "note": 59, "inst": "celesta_v0_additive_3", "vel": 0.709, "bend": 0.0, "ch": 11}, {"t": 135.967, "dur": 0.239, "note": 59, "inst": "celesta_v0_additive_3", "vel": 0.709, "bend": 0.0, "ch": 11}, {"t": 135.967, "dur": 0.239, "note": 86, "inst": "harpsichord_v0_additive_2", "vel": 0.709, "bend": 0.0, "ch": 6}, {"t": 136.206, "dur": 0.477, "note": 58, "inst": "harpsichord_v0_additive_2", "vel": 0.709, "bend": 0.0, "ch": 10}, {"t": 136.206, "dur": 0.477, "note": 58, "inst": "harpsichord_v0_additive_2", "vel": 0.709, "bend": 0.0, "ch": 10}, {"t": 136.206, "dur": 0.716, "note": 85, "inst": "organ_v0_additive_1", "vel": 0.709, "bend": 0.0, "ch": 5}, {"t": 136.206, "dur": 0.119, "note": 90, "inst": "harpsichord_v0_additive_2", "vel": 0.709, "bend": 0.0, "ch": 10}, {"t": 136.325, "dur": 0.119, "note": 88, "inst": "piano_v0_additive_0", "vel": 0.709, "bend": 0.0, "ch": 8}, {"t": 136.445, "dur": 0.119, "note": 86, "inst": "harpsichord_v0_additive_2", "vel": 0.709, "bend": 0.0, "ch": 6}, {"t": 136.564, "dur": 0.119, "note": 85, "inst": "organ_v0_additive_1", "vel": 0.709, "bend": 0.0, "ch": 5}, {"t": 136.683, "dur": 0.477, "note": 59, "inst": "celesta_v0_additive_3", "vel": 0.709, "bend": 0.0, "ch": 11}, {"t": 136.683, "dur": 0.477, "note": 59, "inst": "celesta_v0_additive_3", "vel": 0.709, "bend": 0.0, "ch": 11}, {"t": 136.683, "dur": 0.954, "note": 86, "inst": "harpsichord_v0_additive_2", "vel": 0.709, "bend": 0.0, "ch": 6}, {"t": 136.922, "dur": 0.119, "note": 83, "inst": "celesta_v0_additive_3", "vel": 0.709, "bend": 0.0, "ch": 3}, {"t": 137.041, "dur": 0.119, "note": 80, "inst": "piano_v0_additive_0", "vel": 0.709, "bend": 0.0, "ch": 0}, {"t": 137.16, "dur": 0.239, "note": 59, "inst": "celesta_v0_additive_3", "vel": 0.709, "bend": 0.0, "ch": 11}, {"t": 137.16, "dur": 0.239, "note": 59, "inst": "celesta_v0_additive_3", "vel": 0.709, "bend": 0.0, "ch": 11}, {"t": 137.16, "dur": 0.119, "note": 80, "inst": "piano_v0_additive_0", "vel": 0.709, "bend": 0.0, "ch": 0}, {"t": 137.279, "dur": 0.119, "note": 78, "inst": "harpsichord_v0_additive_2", "vel": 0.709, "bend": 0.0, "ch": 14}, {"t": 137.399, "dur": 0.477, "note": 61, "inst": "organ_v0_additive_1", "vel": 0.709, "bend": 0.0, "ch": 13}, {"t": 137.399, "dur": 0.477, "note": 61, "inst": "organ_v0_additive_1", "vel": 0.709, "bend": 0.0, "ch": 13}, {"t": 137.399, "dur": 0.239, "note": 76, "inst": "piano_v0_additive_0", "vel": 0.709, "bend": 0.0, "ch": 12}], "instruments": ["celesta_v0_additive_3", "harpsichord_v0_additive_2", "organ_v0_additive_1", "piano_v0_additive_0"], "duration": 137.876, "n_events": 226}