{"events": [{"t": 0.111, "dur": 0.2, "note": 80, "inst": "piano_v0_additive_0", "vel": 1.0, "bend": 0.0, "ch": 0}, {"t": 0.311, "dur": 0.399, "note": 43, "inst": "celesta_v0_additive_3", "vel": 1.0, "bend": 0.0, "ch": 11}, {"t": 0.311, "dur": 0.2, "note": 79, "inst": "celesta_v0_additive_3", "vel": 1.0, "bend": 0.0, "ch": 15}, {"t": 0.511, "dur": 0.067, "note": 68, "inst": "piano_v0_additive_0", "vel": 1.0, "bend": 0.0, "ch": 4}, {"t": 0.577, "dur": 0.067, "note": 70, "inst": "harpsichord_v0_additive_2", "vel": 1.0, "bend": 0.0, "ch": 6}, {"t": 0.644, "dur": 0.067, "note": 68, "inst": "piano_v0_additive_0", "vel": 1.0, "bend": 0.0, "ch": 4}, {"t": 0.71, "dur": 0.399, "note": 49, "inst": "organ_v0_additive_1", "vel": 1.0, "bend": 0.0, "ch": 1}, {"t": 0.71, "dur": 0.2, "note": 67, "inst": "celesta_v0_additive_3", "vel": 1.0, "bend": 0.0, "ch": 3}, {"t": 0.91, "dur": 0.2, "note": 79, "inst": "celesta_v0_additive_3", "vel": 1.0, "bend": 0.0, "ch": 15}, {"t": 1.11, "dur": 0.399, "note": 43, "inst": "celesta_v0_additive_3", "vel": 1.0, "bend": 0.0, "ch": 11}, {"t": 1.11, "dur": 0.2, "note": 77, "inst": "organ_v0_additive_1", "vel": 1.0, "bend": 0.0, "ch": 13}, {"t": 1.31, "dur": 0.067, "note": 65, "inst": "organ_v0_additive_1", "vel": 1.0, "bend": 0.0, "ch": 1}, {"t": 1.376, "dur": 0.067, "note": 67, "inst": "celesta_v0_additive_3", "vel": 1.0, "bend": 0.0, "ch": 3}, {"t": 1.443, "dur": 0.067, "note": 65, "inst": "organ_v0_additive_1", "vel": 1.0, "bend": 0.0, "ch": 1}, {"t": 1.509, "dur": 0.399, "note": 48, "inst": "piano_v0_additive_0", "vel": 1.0, "bend": 0.0, "ch": 0}, {"t": 1.509, "dur": 0.2, "note": 63, "inst": "celesta_v0_additive_3", "vel": 1.0, "bend": 0.0, "ch": 15}, {"t": 1.709, "dur": 0.2, "note": 77, "inst": "organ_v0_additive_1", "vel": 1.0, "bend": 0.0, "ch": 13}, {"t": 1.909, "dur": 0.399, "note": 48, "inst": "piano_v0_additive_0", "vel": 1.0, "bend": 0.0, "ch": 0}, {"t": 1.909, "dur": 0.2, "note": 75, "inst": "celesta_v0_additive_3", "vel": 1.0, "bend": 0.0, "ch": 11}, {"t": 2.109, "dur": 0.067, "note": 75, "inst": "celesta_v0_additive_3", "vel": 1.0, "bend": 0.0, "ch": 11}, {"t": 2.175, "dur": 0.067, "note": 77, "inst": "organ_v0_additive_1", "vel": 1.0, "bend": 0.0, "ch": 13}, {"t": 2.242, "dur": 0.067, "note": 75, "inst": "celesta_v0_additive_3", "vel": 1.0, "bend": 0.0, "ch": 11}, {"t": 2.308, "dur": 0.399, "note": 48, "inst": "piano_v0_additive_0", "vel": 1.0, "bend": 0.0, "ch": 0}, {"t": 2.308, "dur": 0.2, "note": 75, "inst": "celesta_v0_additive_3", "vel": 1.0, "bend": 0.0, "ch": 11}, {"t": 2.508, "dur": 0.2, "note": 75, "inst": "celesta_v0_additive_3", "vel": 1.0, "bend": 0.0, "ch": 11}, {"t": 2.708, "dur": 0.399, "note": 43, "inst": "celesta_v0_additive_3", "vel": 1.0, "bend": 0.0, "ch": 11}, {"t": 2.708, "dur": 0.2, "note": 79, "inst": "celesta_v0_additive_3", "vel": 1.0, "bend": 0.0, "ch": 15}, {"t": 2.907, "dur": 0.2, "note": 77, "inst": "organ_v0_additive_1", "vel": 1.0, "bend": 0.0, "ch": 13}, {"t": 3.107, "dur": 0.399, "note": 49, "inst": "organ_v0_additive_1", "vel": 1.0, "bend": 0.0, "ch": 1}, {"t": 3.107, "dur": 0.2, "note": 75, "inst": "celesta_v0_additive_3", "vel": 1.0, "bend": 0.0, "ch": 11}, {"t": 3.307, "dur": 0.2, "note": 73, "inst": "organ_v0_additive_1", "vel": 1.0, "bend": 0.0, "ch": 9}, {"t": 3.507, "dur": 0.399, "note": 43, "inst": "celesta_v0_additive_3", "vel": 1.0, "bend": 0.0, "ch": 11}, {"t": 3.507, "dur": 0.2, "note": 73, "inst": "organ_v0_additive_1", "vel": 1.0, "bend": 0.0, "ch": 9}, {"t": 3.706, "dur": 0.067, "note": 73, "inst": "organ_v0_additive_1", "vel": 1.0, "bend": 0.0, "ch": 9}, {"t": 3.773, "dur": 0.067, "note": 75, "inst": "celesta_v0_additive_3", "vel": 1.0, "bend": 0.0, "ch": 11}, {"t": 3.839, "dur": 0.067, "note": 73, "inst": "organ_v0_additive_1", "vel": 1.0, "bend": 0.0, "ch": 9}, {"t": 3.906, "dur": 0.399, "note": 44, "inst": "piano_v0_additive_0", "vel": 1.0, "bend": 0.0, "ch": 12}, {"t": 3.906, "dur": 0.2, "note": 73, "inst": "organ_v0_additive_1", "vel": 1.0, "bend": 0.0, "ch": 9}, {"t": 4.106, "dur": 0.2, "note": 73, "inst": "organ_v0_additive_1", "vel": 1.0, "bend": 0.0, "ch": 9}, {"t": 4.305, "dur": 0.399, "note": 39, "inst": "celesta_v0_additive_3", "vel": 1.0, "bend": 0.0, "ch": 7}, {"t": 4.305, "dur": 0.2, "note": 77, "inst": "organ_v0_additive_1", "vel": 1.0, "bend": 0.0, "ch": 13}, {"t": 4.505, "dur": 0.2, "note": 75, "inst": "celesta_v0_additive_3", "vel": 1.0, "bend": 0.0, "ch": 11}, {"t": 4.705, "dur": 0.399, "note": 44, "inst": "piano_v0_additive_0", "vel": 1.0, "bend": 0.0, "ch": 12}, {"t": 4.705, "dur": 0.2, "note": 73, "inst": "organ_v0_additive_1", "vel": 1.0, "bend": 0.0, "ch": 9}, {"t": 4.905, "dur": 0.2, "note": 70, "inst": "harpsichord_v0_additive_2", "vel": 1.0, "bend": 0.0, "ch": 6}, {"t": 5.104, "dur": 0.399, "note": 43, "inst": "celesta_v0_additive_3", "vel": 1.0, "bend": 0.0, "ch": 11}, {"t": 5.104, "dur": 0.2, "note": 72, "inst": "piano_v0_additive_0", "vel": 1.0, "bend": 0.0, "ch": 8}, {"t": 5.304, "dur": 0.067, "note": 72, "inst": "piano_v0_additive_0", "vel": 1.0, "bend": 0.0, "ch": 8}, {"t": 5.371, "dur": 0.067, "note": 73, "inst": "organ_v0_additive_1", "vel": 1.0, "bend": 0.0, "ch": 9}, {"t": 5.437, "dur": 0.067, "note": 72, "inst": "piano_v0_additive_0", "vel": 1.0, "bend": 0.0, "ch": 8}, {"t": 5.504, "dur": 0.399, "note": 41, "inst": "organ_v0_additive_1", "vel": 1.0, "bend": 0.0, "ch": 9}, {"t": 5.504, "dur": 0.2, "note": 70, "inst": "harpsichord_v0_additive_2", "vel": 1.0, "bend": 0.0, "ch": 6}, {"t": 5.704, "dur": 0.2, "note": 73, "inst": "organ_v0_additive_1", "vel": 1.0, "bend": 0.0, "ch": 9}, {"t": 5.903, "dur": 0.399, "note": 41, "inst": "organ_v0_additive_1", "vel": 1.0, "bend": 0.0, "ch": 9}, {"t": 5.903, "dur": 0.2, "note": 72, "inst": "piano_v0_additive_0", "vel": 1.0, "bend": 0.0, "ch": 8}, {"t": 6.103, "dur": 0.2, "note": 68, "inst": "piano_v0_additive_0", "vel": 1.0, "bend": 0.0, "ch": 4}, {"t": 6.303, "dur": 0.399, "note": 43, "inst": "celesta_v0_additive_3", "vel": 1.0, "bend": 0.0, "ch": 11}, {"t": 6.303, "dur": 0.2, "note": 67, "inst": "celesta_v0_additive_3", "vel": 1.0, "bend": 0.0, "ch": 3}, {"t": 6.502, "dur": 0.2, "note": 80, "inst": "piano_v0_additive_0", "vel": 1.0, "bend": 0.0, "ch": 0}, {"t": 6.702, "dur": 0.399, "note": 43, "inst": "celesta_v0_additive_3", "vel": 1.0, "bend": 0.0, "ch": 11}, {"t": 6.702, "dur": 0.2, "note": 79, "inst": "celesta_v0_additive_3", "vel": 1.0, "bend": 0.0, "ch": 15}, {"t": 6.902, "dur": 0.067, "note": 68, "inst": "piano_v0_additive_0", "vel": 1.0, "bend": 0.0, "ch": 4}, {"t": 6.968, "dur": 0.067, "note": 70, "inst": "harpsichord_v0_additive_2", "vel": 1.0, "bend": 0.0, "ch": 6}, {"t": 7.035, "dur": 0.067, "note": 68, "inst": "piano_v0_additive_0", "vel": 1.0, "bend": 0.0, "ch": 4}, {"t": 7.102, "dur": 0.399, "note": 43, "inst": "celesta_v0_additive_3", "vel": 1.0, "bend": 0.0, "ch": 11}, {"t": 7.102, "dur": 0.2, "note": 67, "inst": "celesta_v0_additive_3", "vel": 1.0, "bend": 0.0, "ch": 3}, {"t": 7.301, "dur": 0.2, "note": 75, "inst": "celesta_v0_additive_3", "vel": 1.0, "bend": 0.0, "ch": 11}, {"t": 7.501, "dur": 0.399, "note": 43, "inst": "celesta_v0_additive_3", "vel": 1.0, "bend": 0.0, "ch": 11}, {"t": 7.501, "dur": 0.2, "note": 73, "inst": "organ_v0_additive_1", "vel": 1.0, "bend": 0.0, "ch": 9}, {"t": 7.701, "dur": 0.2, "note": 67, "inst": "celesta_v0_additive_3", "vel": 1.0, "bend": 0.0, "ch": 3}, {"t": 7.9, "dur": 0.399, "note": 48, "inst": "piano_v0_additive_0", "vel": 1.0, "bend": 0.0, "ch": 0}, {"t": 7.9, "dur": 0.399, "note": 72, "inst": "piano_v0_additive_0", "vel": 1.0, "bend": 0.0, "ch": 8}, {"t": 8.3, "dur": 0.2, "note": 84, "inst": "piano_v0_additive_0", "vel": 1.0, "bend": 0.0, "ch": 4}, {"t": 8.5, "dur": 0.067, "note": 84, "inst": "piano_v0_additive_0", "vel": 1.0, "bend": 0.0, "ch": 4}, {"t": 8.566, "dur": 0.067, "note": 85, "inst": "organ_v0_additive_1", "vel": 1.0, "bend": 0.0, "ch": 5}, {"t": 8.633, "dur": 0.067, "note": 84, "inst": "piano_v0_additive_0", "vel": 1.0, "bend": 0.0, "ch": 4}, {"t": 8.699, "dur": 0.399, "note": 43, "inst": "celesta_v0_additive_3", "vel": 1.0, "bend": 0.0, "ch": 11}, {"t": 8.699, "dur": 0.2, "note": 82, "inst": "harpsichord_v0_additive_2", "vel": 1.0, "bend": 0.0, "ch": 2}, {"t": 8.899, "dur": 0.2, "note": 87, "inst": "celesta_v0_additive_3", "vel": 1.0, "bend": 0.0, "ch": 7}, {"t": 9.099, "dur": 0.399, "note": 37, "inst": "organ_v0_additive_1", "vel": 1.0, "bend": 0.0, "ch": 5}, {"t": 9.099, "dur": 0.2, "note": 85, "inst": "organ_v0_additive_1", "vel": 1.0, "bend": 0.0, "ch": 5}, {"t": 9.299, "dur": 0.067, "note": 80, "inst": "piano_v0_additive_0", "vel": 1.0, "bend": 0.0, "ch": 0}, {"t": 9.365, "dur": 0.067, "note": 82, "inst": "harpsichord_v0_additive_2", "vel": 1.0, "bend": 0.0, "ch": 2}, {"t": 9.432, "dur": 0.067, "note": 80, "inst": "piano_v0_additive_0", "vel": 1.0, "bend": 0.0, "ch": 0}, {"t": 9.498, "dur": 0.399, "note": 43, "inst": "celesta_v0_additive_3", "vel": 1.0, "bend": 0.0, "ch": 11}, {"t": 9.498, "dur": 0.2, "note": 79, "inst": "celesta_v0_additive_3", "vel": 1.0, "bend": 0.0, "ch": 15}, {"t": 9.698, "dur": 0.2, "note": 84, "inst": "piano_v0_additive_0", "vel": 1.0, "bend": 0.0, "ch": 4}, {"t": 9.898, "dur": 0.399, "note": 37, "inst": "organ_v0_additive_1", "vel": 1.0, "bend": 0.0, "ch": 5}, {"t": 9.898, "dur": 0.2, "note": 82, "inst": "harpsichord_v0_additive_2", "vel": 1.0, "bend": 0.0, "ch": 2}, {"t": 10.097, "dur": 0.2, "note": 79, "inst": "celesta_v0_additive_3", "vel": 1.0, "bend": 0.0, "ch": 15}, {"t": 10.297, "dur": 0.399, "note": 43, "inst": "celesta_v0_additive_3", "vel": 1.0, "bend": 0.0, "ch": 11}, {"t": 10.297, "dur": 0.1, "note": 73, "inst": "organ_v0_additive_1", "vel": 1.0, "bend": 0.0, "ch": 9}, {"t": 10.397, "dur": 0.1, "note": 72, "inst": "piano_v0_additive_0", "vel": 1.0, "bend": 0.0, "ch": 8}, {"t": 10.497, "dur": 0.1, "note": 73, "inst": "organ_v0_additive_1", "vel": 1.0, "bend": 0.0, "ch": 9}, {"t": 10.597, "dur": 0.1, "note": 75, "inst": "celesta_v0_additive_3", "vel": 1.0, "bend": 0.0, "ch": 11}, {"t": 10.697, "dur": 0.399, "note": 37, "inst": "organ_v0_additive_1", "vel": 1.0, "bend": 0.0, "ch": 5}, {"t": 10.697, "dur": 0.1, "note": 77, "inst": "organ_v0_additive_1", "vel": 1.0, "bend": 0.0, "ch": 13}, {"t": 10.796, "dur": 0.1, "note": 79, "inst": "celesta_v0_additive_3", "vel": 1.0, "bend": 0.0, "ch": 15}, {"t": 10.896, "dur": 0.1, "note": 80, "inst": "piano_v0_additive_0", "vel": 1.0, "bend": 0.0, "ch": 0}, {"t": 10.996, "dur": 0.1, "note": 82, "inst": "harpsichord_v0_additive_2", "vel": 1.0, "bend": 0.0, "ch": 2}, {"t": 11.096, "dur": 0.399, "note": 44, "inst": "piano_v0_additive_0", "vel": 1.0, "bend": 0.0, "ch": 12}, {"t": 11.096, "dur": 0.399, "note": 84, "inst": "piano_v0_additive_0", "vel": 1.0, "bend": 0.0, "ch": 4}, {"t": 11.495, "dur": 0.399, "note": 37, "inst": "organ_v0_additive_1", "vel": 1.0, "bend": 0.0, "ch": 5}, {"t": 11.695, "dur": 0.067, "note": 84, "inst": "piano_v0_additive_0", "vel": 1.0, "bend": 0.0, "ch": 4}, {"t": 11.762, "dur": 0.067, "note": 85, "inst": "organ_v0_additive_1", "vel": 1.0, "bend": 0.0, "ch": 5}, {"t": 11.828, "dur": 0.067, "note": 84, "inst": "piano_v0_additive_0", "vel": 1.0, "bend": 0.0, "ch": 4}, {"t": 11.895, "dur": 0.399, "note": 44, "inst": "piano_v0_additive_0", "vel": 1.0, "bend": 0.0, "ch": 12}, {"t": 11.895, "dur": 0.2, "note": 80, "inst": "piano_v0_additive_0", "vel": 1.0, "bend": 0.0, "ch": 0}, {"t": 12.095, "dur": 0.2, "note": 87, "inst": "celesta_v0_additive_3", "vel": 1.0, "bend": 0.0, "ch": 7}, {"t": 12.294, "dur": 0.399, "note": 37, "inst": "organ_v0_additive_1", "vel": 1.0, "bend": 0.0, "ch": 5}, {"t": 12.294, "dur": 0.2, "note": 85, "inst": "organ_v0_additive_1", "vel": 1.0, "bend": 0.0, "ch": 5}, {"t": 12.494, "dur": 0.067, "note": 80, "inst": "piano_v0_additive_0", "vel": 1.0, "bend": 0.0, "ch": 0}, {"t": 12.561, "dur": 0.067, "note": 82, "inst": "harpsichord_v0_additive_2", "vel": 1.0, "bend": 0.0, "ch": 2}, {"t": 12.627, "dur": 0.067, "note": 80, "inst": "piano_v0_additive_0", "vel": 1.0, "bend": 0.0, "ch": 0}, {"t": 12.694, "dur": 0.399, "note": 44, "inst": "piano_v0_additive_0", "vel": 1.0, "bend": 0.0, "ch": 12}, {"t": 12.694, "dur": 0.2, "note": 77, "inst": "organ_v0_additive_1", "vel": 1.0, "bend": 0.0, "ch": 13}, {"t": 12.894, "dur": 0.2, "note": 82, "inst": "harpsichord_v0_additive_2", "vel": 1.0, "bend": 0.0, "ch": 2}, {"t": 13.093, "dur": 0.399, "note": 37, "inst": "organ_v0_additive_1", "vel": 1.0, "bend": 0.0, "ch": 5}, {"t": 13.093, "dur": 0.2, "note": 80, "inst": "piano_v0_additive_0", "vel": 1.0, "bend": 0.0, "ch": 0}, {"t": 13.293, "dur": 0.2, "note": 77, "inst": "organ_v0_additive_1", "vel": 1.0, "bend": 0.0, "ch": 13}, {"t": 13.493, "dur": 0.399, "note": 41, "inst": "organ_v0_additive_1", "vel": 1.0, "bend": 0.0, "ch": 9}, {"t": 13.493, "dur": 0.1, "note": 73, "inst": "organ_v0_additive_1", "vel": 1.0, "bend": 0.0, "ch": 9}, {"t": 13.593, "dur": 0.1, "note": 73, "inst": "organ_v0_additive_1", "vel": 1.0, "bend": 0.0, "ch": 9}, {"t": 13.692, "dur": 0.1, "note": 73, "inst": "organ_v0_additive_1", "vel": 1.0, "bend": 0.0, "ch": 9}, {"t": 13.792, "dur": 0.1, "note": 75, "inst": "celesta_v0_additive_3", "vel": 1.0, "bend": 0.0, "ch": 11}, {"t": 13.892, "dur": 0.399, "note": 37, "inst": "organ_v0_additive_1", "vel": 1.0, "bend": 0.0, "ch": 5}, {"t": 13.892, "dur": 0.1, "note": 77, "inst": "organ_v0_additive_1", "vel": 1.0, "bend": 0.0, "ch": 13}, {"t": 13.992, "dur": 0.1, "note": 79, "inst": "celesta_v0_additive_3", "vel": 1.0, "bend": 0.0, "ch": 15}, {"t": 14.092, "dur": 0.1, "note": 80, "inst": "piano_v0_additive_0", "vel": 1.0, "bend": 0.0, "ch": 0}, {"t": 14.192, "dur": 0.1, "note": 82, "inst": "harpsichord_v0_additive_2", "vel": 1.0, "bend": 0.0, "ch": 2}, {"t": 14.292, "dur": 0.399, "note": 43, "inst": "celesta_v0_additive_3", "vel": 1.0, "bend": 0.0, "ch": 11}, {"t": 14.292, "dur": 0.399, "note": 82, "inst": "harpsichord_v0_additive_2", "vel": 1.0, "bend": 0.0, "ch": 2}, {"t": 14.691, "dur": 0.399, "note": 37, "inst": "organ_v0_additive_1", "vel": 1.0, "bend": 0.0, "ch": 5}, {"t": 15.09, "dur": 0.399, "note": 43, "inst": "celesta_v0_additive_3", "vel": 1.0, "bend": 0.0, "ch": 11}, {"t": 15.09, "dur": 0.2, "note": 82, "inst": "harpsichord_v0_additive_2", "vel": 1.0, "bend": 0.0, "ch": 2}, {"t": 15.29, "dur": 0.2, "note": 87, "inst": "celesta_v0_additive_3", "vel": 1.0, "bend": 0.0, "ch": 7}, {"t": 15.49, "dur": 0.399, "note": 37, "inst": "organ_v0_additive_1", "vel": 1.0, "bend": 0.0, "ch": 5}, {"t": 15.49, "dur": 0.2, "note": 85, "inst": "organ_v0_additive_1", "vel": 1.0, "bend": 0.0, "ch": 5}, {"t": 15.69, "dur": 0.067, "note": 80, "inst": "piano_v0_additive_0", "vel": 1.0, "bend": 0.0, "ch": 0}, {"t": 15.756, "dur": 0.067, "note": 82, "inst": "harpsichord_v0_additive_2", "vel": 1.0, "bend": 0.0, "ch": 2}, {"t": 15.823, "dur": 0.067, "note": 80, "inst": "piano_v0_additive_0", "vel": 1.0, "bend": 0.0, "ch": 0}, {"t": 15.889, "dur": 0.399, "note": 43, "inst": "celesta_v0_additive_3", "vel": 1.0, "bend": 0.0, "ch": 11}, {"t": 15.889, "dur": 0.2, "note": 79, "inst": "celesta_v0_additive_3", "vel": 1.0, "bend": 0.0, "ch": 15}, {"t": 16.089, "dur": 0.2, "note": 84, "inst": "piano_v0_additive_0", "vel": 1.0, "bend": 0.0, "ch": 4}, {"t": 16.289, "dur": 0.399, "note": 37, "inst": "organ_v0_additive_1", "vel": 1.0, "bend": 0.0, "ch": 5}, {"t": 16.289, "dur": 0.2, "note": 82, "inst": "harpsichord_v0_additive_2", "vel": 1.0, "bend": 0.0, "ch": 2}, {"t": 16.489, "dur": 0.2, "note": 79, "inst": "celesta_v0_additive_3", "vel": 1.0, "bend": 0.0, "ch": 15}, {"t": 16.688, "dur": 0.399, "note": 43, "inst": "celesta_v0_additive_3", "vel": 1.0, "bend": 0.0, "ch": 11}, {"t": 16.688, "dur": 0.1, "note": 73, "inst": "organ_v0_additive_1", "vel": 1.0, "bend": 0.0, "ch": 9}, {"t": 16.788, "dur": 0.1, "note": 75, "inst": "celesta_v0_additive_3", "vel": 1.0, "bend": 0.0, "ch": 11}, {"t": 16.888, "dur": 0.1, "note": 77, "inst": "organ_v0_additive_1", "vel": 1.0, "bend": 0.0, "ch": 13}, {"t": 16.988, "dur": 0.1, "note": 79, "inst": "celesta_v0_additive_3", "vel": 1.0, "bend": 0.0, "ch": 15}, {"t": 17.088, "dur": 0.399, "note": 37, "inst": "organ_v0_additive_1", "vel": 1.0, "bend": 0.0, "ch": 5}, {"t": 17.088, "dur": 0.1, "note": 80, "inst": "piano_v0_additive_0", "vel": 1.0, "bend": 0.0, "ch": 0}, {"t": 17.188, "dur": 0.1, "note": 82, "inst": "harpsichord_v0_additive_2", "vel": 1.0, "bend": 0.0, "ch": 2}, {"t": 17.287, "dur": 0.1, "note": 84, "inst": "piano_v0_additive_0", "vel": 1.0, "bend": 0.0, "ch": 4}, {"t": 17.387, "dur": 0.1, "note": 85, "inst": "organ_v0_additive_1", "vel": 1.0, "bend": 0.0, "ch": 5}, {"t": 17.487, "dur": 0.399, "note": 48, "inst": "piano_v0_additive_0", "vel": 1.0, "bend": 0.0, "ch": 0}, {"t": 17.487, "dur": 0.399, "note": 87, "inst": "celesta_v0_additive_3", "vel": 1.0, "bend": 0.0, "ch": 7}, {"t": 17.887, "dur": 0.399, "note": 48, "inst": "piano_v0_additive_0", "vel": 1.0, "bend": 0.0, "ch": 0}, {"t": 18.286, "dur": 0.399, "note": 48, "inst": "piano_v0_additive_0", "vel": 1.0, "bend": 0.0, "ch": 0}, {"t": 18.286, "dur": 0.2, "note": 75, "inst": "celesta_v0_additive_3", "vel": 1.0, "bend": 0.0, "ch": 11}, {"t": 18.486, "dur": 0.2, "note": 82, "inst": "harpsichord_v0_additive_2", "vel": 1.0, "bend": 0.0, "ch": 2}, {"t": 18.685, "dur": 0.399, "note": 48, "inst": "piano_v0_additive_0", "vel": 1.0, "bend": 0.0, "ch": 0}, {"t": 18.685, "dur": 0.2, "note": 80, "inst": "piano_v0_additive_0", "vel": 1.0, "bend": 0.0, "ch": 0}, {"t": 18.885, "dur": 0.2, "note": 75, "inst": "celesta_v0_additive_3", "vel": 1.0, "bend": 0.0, "ch": 11}, {"t": 19.085, "dur": 0.399, "note": 49, "inst": "organ_v0_additive_1", "vel": 1.0, "bend": 0.0, "ch": 1}, {"t": 19.085, "dur": 0.2, "note": 73, "inst": "organ_v0_additive_1", "vel": 1.0, "bend": 0.0, "ch": 9}, {"t": 42.007, "dur": 0.063, "note": 78, "inst": "harpsichord_v0_additive_2", "vel": 0.575, "bend": 0.0, "ch": 14}, {"t": 42.068, "dur": 0.091, "note": 82, "inst": "harpsichord_v0_additive_2", "vel": 0.535, "bend": 0.0, "ch": 2}, {"t": 42.17, "dur": 0.047, "note": 83, "inst": "celesta_v0_additive_3", "vel": 0.465, "bend": 0.0, "ch": 3}, {"t": 42.171, "dur": 0.201, "note": 71, "inst": "celesta_v0_additive_3", "vel": 0.441, "bend": 0.0, "ch": 7}, {"t": 42.173, "dur": 0.174, "note": 61, "inst": "organ_v0_additive_1", "vel": 0.37, "bend": 0.0, "ch": 13}, {"t": 42.241, "dur": 0.065, "note": 78, "inst": "harpsichord_v0_additive_2", "vel": 0.528, "bend": 0.0, "ch": 14}, {"t": 42.296, "dur": 0.065, "note": 83, "inst": "celesta_v0_additive_3", "vel": 0.638, "bend": 0.0, "ch": 3}, {"t": 42.349, "dur": 0.042, "note": 83, "inst": "celesta_v0_additive_3", "vel": 0.701, "bend": 0.0, "ch": 3}, {"t": 42.402, "dur": 0.07, "note": 78, "inst": "harpsichord_v0_additive_2", "vel": 0.661, "bend": 0.0, "ch": 14}, {"t": 42.467, "dur": 0.079, "note": 88, "inst": "piano_v0_additive_0", "vel": 0.654, "bend": 0.0, "ch": 8}, {"t": 42.518, "dur": 0.052, "note": 90, "inst": "harpsichord_v0_additive_2", "vel": 0.638, "bend": 0.0, "ch": 10}, {"t": 42.522, "dur": 0.225, "note": 71, "inst": "celesta_v0_additive_3", "vel": 0.677, "bend": 0.0, "ch": 7}, {"t": 42.523, "dur": 0.302, "note": 64, "inst": "piano_v0_additive_0", "vel": 0.63, "bend": 0.0, "ch": 0}, {"t": 42.582, "dur": 0.128, "note": 78, "inst": "harpsichord_v0_additive_2", "vel": 0.654, "bend": 0.0, "ch": 14}, {"t": 42.645, "dur": 0.102, "note": 83, "inst": "celesta_v0_additive_3", "vel": 0.654, "bend": 0.0, "ch": 3}, {"t": 42.714, "dur": 0.221, "note": 71, "inst": "celesta_v0_additive_3", "vel": 0.732, "bend": 0.0, "ch": 7}, {"t": 42.727, "dur": 0.143, "note": 83, "inst": "celesta_v0_additive_3", "vel": 0.661, "bend": 0.0, "ch": 3}, {"t": 42.791, "dur": 0.098, "note": 78, "inst": "harpsichord_v0_additive_2", "vel": 0.661, "bend": 0.0, "ch": 14}, {"t": 42.843, "dur": 0.093, "note": 82, "inst": "harpsichord_v0_additive_2", "vel": 0.677, "bend": 0.0, "ch": 2}, {"t": 42.915, "dur": 0.43, "note": 71, "inst": "celesta_v0_additive_3", "vel": 0.551, "bend": 0.0, "ch": 7}, {"t": 42.915, "dur": 0.072, "note": 83, "inst": "celesta_v0_additive_3", "vel": 0.724, "bend": 0.0, "ch": 3}, {"t": 42.925, "dur": 0.105, "note": 61, "inst": "organ_v0_additive_1", "vel": 0.48, "bend": 0.0, "ch": 13}, {"t": 42.977, "dur": 0.275, "note": 78, "inst": "harpsichord_v0_additive_2", "vel": 0.677, "bend": 0.0, "ch": 14}, {"t": 43.048, "dur": 0.328, "note": 83, "inst": "celesta_v0_additive_3", "vel": 0.709, "bend": 0.0, "ch": 3}, {"t": 43.147, "dur": 0.547, "note": 59, "inst": "celesta_v0_additive_3", "vel": 0.504, "bend": 0.0, "ch": 11}, {"t": 43.218, "dur": 0.267, "note": 88, "inst": "piano_v0_additive_0", "vel": 0.669, "bend": 0.0, "ch": 8}, {"t": 43.372, "dur": 0.094, "note": 76, "inst": "piano_v0_additive_0", "vel": 0.622, "bend": 0.0, "ch": 12}, {"t": 43.449, "dur": 0.153, "note": 80, "inst": "piano_v0_additive_0", "vel": 0.654, "bend": 0.0, "ch": 0}, {"t": 43.531, "dur": 0.316, "note": 68, "inst": "piano_v0_additive_0", "vel": 0.693, "bend": 0.0, "ch": 4}, {"t": 43.603, "dur": 0.068, "note": 83, "inst": "celesta_v0_additive_3", "vel": 0.622, "bend": 0.0, "ch": 3}, {"t": 43.672, "dur": 0.089, "note": 76, "inst": "piano_v0_additive_0", "vel": 0.598, "bend": 0.0, "ch": 12}, {"t": 43.736, "dur": 0.065, "note": 80, "inst": "piano_v0_additive_0", "vel": 0.591, "bend": 0.0, "ch": 0}, {"t": 43.783, "dur": 0.333, "note": 59, "inst": "celesta_v0_additive_3", "vel": 0.512, "bend": 0.0, "ch": 11}, {"t": 43.787, "dur": 0.158, "note": 85, "inst": "organ_v0_additive_1", "vel": 0.646, "bend": 0.0, "ch": 5}, {"t": 43.85, "dur": 0.068, "note": 73, "inst": "organ_v0_additive_1", "vel": 0.63, "bend": 0.0, "ch": 9}, {"t": 43.905, "dur": 0.077, "note": 78, "inst": "harpsichord_v0_additive_2", "vel": 0.661, "bend": 0.0, "ch": 14}, {"t": 43.956, "dur": 0.248, "note": 66, "inst": "harpsichord_v0_additive_2", "vel": 0.661, "bend": 0.0, "ch": 2}, {"t": 43.966, "dur": 0.054, "note": 80, "inst": "piano_v0_additive_0", "vel": 0.622, "bend": 0.0, "ch": 0}, {"t": 44.019, "dur": 0.067, "note": 73, "inst": "organ_v0_additive_1", "vel": 0.543, "bend": 0.0, "ch": 9}, {"t": 44.082, "dur": 0.075, "note": 78, "inst": "harpsichord_v0_additive_2", "vel": 0.575, "bend": 0.0, "ch": 14}, {"t": 44.129, "dur": 0.37, "note": 56, "inst": "piano_v0_additive_0", "vel": 0.52, "bend": 0.0, "ch": 8}, {"t": 44.141, "dur": 0.209, "note": 83, "inst": "celesta_v0_additive_3", "vel": 0.575, "bend": 0.0, "ch": 3}, {"t": 44.195, "dur": 0.086, "note": 71, "inst": "celesta_v0_additive_3", "vel": 0.567, "bend": 0.0, "ch": 7}, {"t": 44.245, "dur": 0.097, "note": 78, "inst": "harpsichord_v0_additive_2", "vel": 0.567, "bend": 0.0, "ch": 14}, {"t": 44.316, "dur": 0.224, "note": 66, "inst": "harpsichord_v0_additive_2", "vel": 0.598, "bend": 0.0, "ch": 2}, {"t": 44.317, "dur": 0.073, "note": 78, "inst": "harpsichord_v0_additive_2", "vel": 0.598, "bend": 0.0, "ch": 14}, {"t": 44.378, "dur": 0.05, "note": 71, "inst": "celesta_v0_additive_3", "vel": 0.48, "bend": 0.0, "ch": 7}, {"t": 44.444, "dur": 0.046, "note": 78, "inst": "harpsichord_v0_additive_2", "vel": 0.496, "bend": 0.0, "ch": 14}, {"t": 44.495, "dur": 0.148, "note": 83, "inst": "celesta_v0_additive_3", "vel": 0.551, "bend": 0.0, "ch": 3}, {"t": 44.5, "dur": 0.299, "note": 54, "inst": "harpsichord_v0_additive_2", "vel": 0.441, "bend": 0.0, "ch": 6}, {"t": 44.56, "dur": 0.065, "note": 71, "inst": "celesta_v0_additive_3", "vel": 0.425, "bend": 0.0, "ch": 7}, {"t": 44.611, "dur": 0.062, "note": 76, "inst": "piano_v0_additive_0", "vel": 0.535, "bend": 0.0, "ch": 12}, {"t": 44.666, "dur": 0.151, "note": 64, "inst": "piano_v0_additive_0", "vel": 0.472, "bend": 0.0, "ch": 0}, {"t": 44.667, "dur": 0.091, "note": 78, "inst": "harpsichord_v0_additive_2", "vel": 0.528, "bend": 0.0, "ch": 14}, {"t": 44.724, "dur": 0.067, "note": 71, "inst": "celesta_v0_additive_3", "vel": 0.449, "bend": 0.0, "ch": 7}, {"t": 44.787, "dur": 0.087, "note": 76, "inst": "piano_v0_additive_0", "vel": 0.559, "bend": 0.0, "ch": 12}, {"t": 44.859, "dur": 0.061, "note": 76, "inst": "piano_v0_additive_0", "vel": 0.614, "bend": 0.0, "ch": 12}, {"t": 44.928, "dur": 0.058, "note": 71, "inst": "celesta_v0_additive_3", "vel": 0.48, "bend": 0.0, "ch": 7}, {"t": 44.98, "dur": 0.078, "note": 80, "inst": "piano_v0_additive_0", "vel": 0.504, "bend": 0.0, "ch": 0}, {"t": 45.009, "dur": 0.043, "note": 56, "inst": "piano_v0_additive_0", "vel": 0.472, "bend": 0.0, "ch": 8}, {"t": 45.015, "dur": 0.07, "note": 64, "inst": "piano_v0_additive_0", "vel": 0.52, "bend": 0.0, "ch": 0}, {"t": 45.017, "dur": 0.102, "note": 59, "inst": "celesta_v0_additive_3", "vel": 0.457, "bend": 0.0, "ch": 11}, {"t": 126.075, "dur": 0.091, "note": 68, "inst": "piano_v0_additive_0", "vel": 0.677, "bend": 0.0, "ch": 4}, {"t": 126.077, "dur": 0.21, "note": 80, "inst": "piano_v0_additive_0", "vel": 0.701, "bend": 0.0, "ch": 0}, {"t": 126.226, "dur": 0.153, "note": 66, "inst": "harpsichord_v0_additive_2", "vel": 0.528, "bend": 0.0, "ch": 2}, {"t": 126.227, "dur": 0.287, "note": 60, "inst": "piano_v0_additive_0", "vel": 0.441, "bend": 0.0, "ch": 12}, {"t": 126.228, "dur": 0.164, "note": 56, "inst": "piano_v0_additive_0", "vel": 0.457, "bend": 0.0, "ch": 8}, {"t": 126.238, "dur": 0.21, "note": 83, "inst": "celesta_v0_additive_3", "vel": 0.701, "bend": 0.0, "ch": 3}, {"t": 126.243, "dur": 0.054, "note": 71, "inst": "celesta_v0_additive_3", "vel": 0.669, "bend": 0.0, "ch": 7}, {"t": 126.245, "dur": 0.078, "note": 78, "inst": "harpsichord_v0_additive_2", "vel": 0.63, "bend": 0.0, "ch": 14}, {"t": 126.256, "dur": 0.119, "note": 62, "inst": "harpsichord_v0_additive_2", "vel": 0.417, "bend": 0.0, "ch": 14}, {"t": 126.395, "dur": 0.078, "note": 72, "inst": "piano_v0_additive_0", "vel": 0.74, "bend": 0.0, "ch": 8}, {"t": 126.395, "dur": 0.109, "note": 84, "inst": "piano_v0_additive_0", "vel": 0.732, "bend": 0.0, "ch": 4}, {"t": 126.439, "dur": 0.022, "note": 71, "inst": "celesta_v0_additive_3", "vel": 0.402, "bend": 0.0, "ch": 7}, {"t": 126.56, "dur": 0.076, "note": 67, "inst": "celesta_v0_additive_3", "vel": 0.748, "bend": 0.0, "ch": 3}, {"t": 126.561, "dur": 0.105, "note": 62, "inst": "harpsichord_v0_additive_2", "vel": 0.669, "bend": 0.0, "ch": 14}, {"t": 126.564, "dur": 0.07, "note": 55, "inst": "celesta_v0_additive_3", "vel": 0.622, "bend": 0.0, "ch": 7}, {"t": 126.566, "dur": 0.069, "note": 71, "inst": "celesta_v0_additive_3", "vel": 0.748, "bend": 0.0, "ch": 7}, {"t": 126.569, "dur": 0.074, "note": 83, "inst": "celesta_v0_additive_3", "vel": 0.803, "bend": 0.0, "ch": 3}, {"t": 126.576, "dur": 0.11, "note": 79, "inst": "celesta_v0_additive_3", "vel": 0.748, "bend": 0.0, "ch": 15}, {"t": 126.973, "dur": 0.093, "note": 79, "inst": "celesta_v0_additive_3", "vel": 0.732, "bend": 0.0, "ch": 15}, {"t": 126.976, "dur": 0.076, "note": 59, "inst": "celesta_v0_additive_3", "vel": 0.685, "bend": 0.0, "ch": 11}, {"t": 126.976, "dur": 0.064, "note": 87, "inst": "celesta_v0_additive_3", "vel": 0.843, "bend": 0.0, "ch": 7}, {"t": 126.977, "dur": 0.063, "note": 75, "inst": "celesta_v0_additive_3", "vel": 0.874, "bend": 0.0, "ch": 11}, {"t": 126.978, "dur": 0.072, "note": 71, "inst": "celesta_v0_additive_3", "vel": 0.756, "bend": 0.0, "ch": 7}, {"t": 126.979, "dur": 0.101, "note": 67, "inst": "celesta_v0_additive_3", "vel": 0.732, "bend": 0.0, "ch": 3}, {"t": 126.986, "dur": 0.075, "note": 60, "inst": "piano_v0_additive_0", "vel": 0.551, "bend": 0.0, "ch": 12}, {"t": 127.008, "dur": 0.025, "note": 84, "inst": "piano_v0_additive_0", "vel": 0.472, "bend": 0.0, "ch": 4}, {"t": 127.264, "dur": 0.056, "note": 67, "inst": "celesta_v0_additive_3", "vel": 0.685, "bend": 0.0, "ch": 3}, {"t": 127.274, "dur": 0.02, "note": 71, "inst": "celesta_v0_additive_3", "vel": 0.575, "bend": 0.0, "ch": 7}, {"t": 127.276, "dur": 0.032, "note": 62, "inst": "harpsichord_v0_additive_2", "vel": 0.512, "bend": 0.0, "ch": 14}, {"t": 127.283, "dur": 0.021, "note": 74, "inst": "harpsichord_v0_additive_2", "vel": 0.717, "bend": 0.0, "ch": 10}, {"t": 127.283, "dur": 0.02, "note": 79, "inst": "celesta_v0_additive_3", "vel": 0.717, "bend": 0.0, "ch": 15}, {"t": 127.287, "dur": 0.021, "note": 86, "inst": "harpsichord_v0_additive_2", "vel": 0.677, "bend": 0.0, "ch": 6}, {"t": 127.358, "dur": 0.065, "note": 86, "inst": "harpsichord_v0_additive_2", "vel": 0.756, "bend": 0.0, "ch": 6}, {"t": 127.361, "dur": 0.055, "note": 71, "inst": "celesta_v0_additive_3", "vel": 0.748, "bend": 0.0, "ch": 7}, {"t": 127.362, "dur": 0.086, "note": 59, "inst": "celesta_v0_additive_3", "vel": 0.425, "bend": 0.0, "ch": 11}, {"t": 127.362, "dur": 0.076, "note": 67, "inst": "celesta_v0_additive_3", "vel": 0.622, "bend": 0.0, "ch": 3}, {"t": 127.362, "dur": 0.053, "note": 74, "inst": "harpsichord_v0_additive_2", "vel": 0.827, "bend": 0.0, "ch": 10}, {"t": 127.363, "dur": 0.056, "note": 79, "inst": "celesta_v0_additive_3", "vel": 0.795, "bend": 0.0, "ch": 15}, {"t": 127.373, "dur": 0.061, "note": 62, "inst": "harpsichord_v0_additive_2", "vel": 0.677, "bend": 0.0, "ch": 14}, {"t": 127.586, "dur": 0.06, "note": 51, "inst": "celesta_v0_additive_3", "vel": 0.614, "bend": 0.0, "ch": 3}, {"t": 127.601, "dur": 0.045, "note": 86, "inst": "harpsichord_v0_additive_2", "vel": 0.535, "bend": 0.0, "ch": 6}, {"t": 127.661, "dur": 0.107, "note": 62, "inst": "harpsichord_v0_additive_2", "vel": 0.606, "bend": 0.0, "ch": 14}, {"t": 127.688, "dur": 0.13, "note": 72, "inst": "piano_v0_additive_0", "vel": 0.74, "bend": 0.0, "ch": 8}, {"t": 127.688, "dur": 0.108, "note": 80, "inst": "piano_v0_additive_0", "vel": 0.638, "bend": 0.0, "ch": 0}, {"t": 127.69, "dur": 0.167, "note": 84, "inst": "piano_v0_additive_0", "vel": 0.677, "bend": 0.0, "ch": 4}, {"t": 127.704, "dur": 0.042, "note": 68, "inst": "piano_v0_additive_0", "vel": 0.764, "bend": 0.0, "ch": 4}, {"t": 127.938, "dur": 0.05, "note": 83, "inst": "celesta_v0_additive_3", "vel": 0.63, "bend": 0.0, "ch": 3}, {"t": 127.939, "dur": 0.091, "note": 44, "inst": "piano_v0_additive_0", "vel": 0.441, "bend": 0.0, "ch": 12}, {"t": 127.942, "dur": 0.036, "note": 71, "inst": "celesta_v0_additive_3", "vel": 0.567, "bend": 0.0, "ch": 7}, {"t": 127.997, "dur": 0.066, "note": 51, "inst": "celesta_v0_additive_3", "vel": 0.622, "bend": 0.0, "ch": 3}, {"t": 128.047, "dur": 0.058, "note": 80, "inst": "piano_v0_additive_0", "vel": 0.717, "bend": 0.0, "ch": 0}, {"t": 128.052, "dur": 0.053, "note": 60, "inst": "piano_v0_additive_0", "vel": 0.701, "bend": 0.0, "ch": 12}, {"t": 128.053, "dur": 0.037, "note": 68, "inst": "piano_v0_additive_0", "vel": 0.669, "bend": 0.0, "ch": 4}, {"t": 128.278, "dur": 0.063, "note": 50, "inst": "harpsichord_v0_additive_2", "vel": 0.496, "bend": 0.0, "ch": 2}, {"t": 128.338, "dur": 0.143, "note": 56, "inst": "piano_v0_additive_0", "vel": 0.591, "bend": 0.0, "ch": 8}, {"t": 128.384, "dur": 0.051, "note": 66, "inst": "harpsichord_v0_additive_2", "vel": 0.677, "bend": 0.0, "ch": 2}, {"t": 128.392, "dur": 0.094, "note": 68, "inst": "piano_v0_additive_0", "vel": 0.756, "bend": 0.0, "ch": 4}, {"t": 128.392, "dur": 0.173, "note": 80, "inst": "piano_v0_additive_0", "vel": 0.772, "bend": 0.0, "ch": 0}, {"t": 128.4, "dur": 0.121, "note": 78, "inst": "harpsichord_v0_additive_2", "vel": 0.646, "bend": 0.0, "ch": 14}, {"t": 128.626, "dur": 0.082, "note": 44, "inst": "piano_v0_additive_0", "vel": 0.496, "bend": 0.0, "ch": 12}, {"t": 128.644, "dur": 0.036, "note": 83, "inst": "celesta_v0_additive_3", "vel": 0.677, "bend": 0.0, "ch": 3}, {"t": 128.648, "dur": 0.027, "note": 71, "inst": "celesta_v0_additive_3", "vel": 0.661, "bend": 0.0, "ch": 7}, {"t": 128.675, "dur": 0.031, "note": 75, "inst": "celesta_v0_additive_3", "vel": 0.598, "bend": 0.0, "ch": 11}, {"t": 128.68, "dur": 0.105, "note": 51, "inst": "celesta_v0_additive_3", "vel": 0.669, "bend": 0.0, "ch": 3}, {"t": 128.726, "dur": 0.05, "note": 60, "inst": "piano_v0_additive_0", "vel": 0.78, "bend": 0.0, "ch": 12}, {"t": 128.741, "dur": 0.08, "note": 84, "inst": "piano_v0_additive_0", "vel": 0.795, "bend": 0.0, "ch": 4}, {"t": 128.745, "dur": 0.067, "note": 72, "inst": "piano_v0_additive_0", "vel": 0.819, "bend": 0.0, "ch": 8}, {"t": 128.748, "dur": 0.064, "note": 75, "inst": "celesta_v0_additive_3", "vel": 0.772, "bend": 0.0, "ch": 11}, {"t": 128.958, "dur": 0.077, "note": 38, "inst": "harpsichord_v0_additive_2", "vel": 0.433, "bend": 0.0, "ch": 6}, {"t": 129.029, "dur": 0.134, "note": 44, "inst": "piano_v0_additive_0", "vel": 0.535, "bend": 0.0, "ch": 12}, {"t": 129.071, "dur": 0.226, "note": 78, "inst": "harpsichord_v0_additive_2", "vel": 0.669, "bend": 0.0, "ch": 14}, {"t": 129.072, "dur": 0.05, "note": 54, "inst": "harpsichord_v0_additive_2", "vel": 0.819, "bend": 0.0, "ch": 6}, {"t": 129.072, "dur": 0.134, "note": 72, "inst": "piano_v0_additive_0", "vel": 0.669, "bend": 0.0, "ch": 8}, {"t": 129.072, "dur": 0.174, "note": 74, "inst": "harpsichord_v0_additive_2", "vel": 0.764, "bend": 0.0, "ch": 10}, {"t": 129.073, "dur": 0.126, "note": 84, "inst": "piano_v0_additive_0", "vel": 0.74, "bend": 0.0, "ch": 4}, {"t": 129.104, "dur": 0.053, "note": 43, "inst": "celesta_v0_additive_3", "vel": 0.276, "bend": 0.0, "ch": 11}, {"t": 129.115, "dur": 0.031, "note": 80, "inst": "piano_v0_additive_0", "vel": 0.433, "bend": 0.0, "ch": 0}, {"t": 129.312, "dur": 0.103, "note": 32, "inst": "piano_v0_additive_0", "vel": 0.535, "bend": 0.0, "ch": 0}, {"t": 129.324, "dur": 0.037, "note": 71, "inst": "celesta_v0_additive_3", "vel": 0.543, "bend": 0.0, "ch": 7}, {"t": 129.326, "dur": 0.123, "note": 83, "inst": "celesta_v0_additive_3", "vel": 0.606, "bend": 0.0, "ch": 3}, {"t": 129.381, "dur": 0.088, "note": 39, "inst": "celesta_v0_additive_3", "vel": 0.598, "bend": 0.0, "ch": 7}, {"t": 129.42, "dur": 0.085, "note": 75, "inst": "celesta_v0_additive_3", "vel": 0.48, "bend": 0.0, "ch": 11}, {"t": 129.431, "dur": 0.07, "note": 68, "inst": "piano_v0_additive_0", "vel": 0.709, "bend": 0.0, "ch": 4}, {"t": 129.432, "dur": 0.078, "note": 80, "inst": "piano_v0_additive_0", "vel": 0.709, "bend": 0.0, "ch": 0}, {"t": 129.438, "dur": 0.059, "note": 48, "inst": "piano_v0_additive_0", "vel": 0.803, "bend": 0.0, "ch": 0}, {"t": 129.674, "dur": 0.098, "note": 38, "inst": "harpsichord_v0_additive_2", "vel": 0.472, "bend": 0.0, "ch": 6}, {"t": 129.756, "dur": 0.115, "note": 44, "inst": "piano_v0_additive_0", "vel": 0.614, "bend": 0.0, "ch": 12}, {"t": 129.81, "dur": 0.099, "note": 79, "inst": "celesta_v0_additive_3", "vel": 0.685, "bend": 0.0, "ch": 15}, {"t": 129.811, "dur": 0.132, "note": 67, "inst": "celesta_v0_additive_3", "vel": 0.748, "bend": 0.0, "ch": 3}, {"t": 129.811, "dur": 0.332, "note": 68, "inst": "piano_v0_additive_0", "vel": 0.709, "bend": 0.0, "ch": 4}, {"t": 129.811, "dur": 0.282, "note": 74, "inst": "harpsichord_v0_additive_2", "vel": 0.701, "bend": 0.0, "ch": 10}, {"t": 129.812, "dur": 0.101, "note": 54, "inst": "harpsichord_v0_additive_2", "vel": 0.819, "bend": 0.0, "ch": 6}, {"t": 130.132, "dur": 0.123, "note": 44, "inst": "piano_v0_additive_0", "vel": 0.591, "bend": 0.0, "ch": 12}, {"t": 130.14, "dur": 0.153, "note": 78, "inst": "harpsichord_v0_additive_2", "vel": 0.638, "bend": 0.0, "ch": 14}, {"t": 130.143, "dur": 0.146, "note": 66, "inst": "harpsichord_v0_additive_2", "vel": 0.551, "bend": 0.0, "ch": 2}, {"t": 130.211, "dur": 0.246, "note": 51, "inst": "celesta_v0_additive_3", "vel": 0.575, "bend": 0.0, "ch": 3}, {"t": 130.33, "dur": 0.105, "note": 60, "inst": "piano_v0_additive_0", "vel": 0.74, "bend": 0.0, "ch": 12}, {"t": 130.36, "dur": 0.05, "note": 75, "inst": "celesta_v0_additive_3", "vel": 0.795, "bend": 0.0, "ch": 11}, {"t": 130.362, "dur": 0.055, "note": 63, "inst": "celesta_v0_additive_3", "vel": 0.764, "bend": 0.0, "ch": 15}, {"t": 130.364, "dur": 0.067, "note": 72, "inst": "piano_v0_additive_0", "vel": 0.701, "bend": 0.0, "ch": 8}, {"t": 130.854, "dur": 0.101, "note": 32, "inst": "piano_v0_additive_0", "vel": 0.457, "bend": 0.0, "ch": 0}, {"t": 130.876, "dur": 0.093, "note": 44, "inst": "piano_v0_additive_0", "vel": 0.48, "bend": 0.0, "ch": 12}, {"t": 130.954, "dur": 0.049, "note": 32, "inst": "piano_v0_additive_0", "vel": 0.512, "bend": 0.0, "ch": 0}, {"t": 130.973, "dur": 0.039, "note": 44, "inst": "piano_v0_additive_0", "vel": 0.512, "bend": 0.0, "ch": 12}, {"t": 131.027, "dur": 0.069, "note": 35, "inst": "celesta_v0_additive_3", "vel": 0.465, "bend": 0.0, "ch": 3}, {"t": 131.048, "dur": 0.045, "note": 47, "inst": "celesta_v0_additive_3", "vel": 0.567, "bend": 0.0, "ch": 15}, {"t": 131.102, "dur": 0.085, "note": 36, "inst": "piano_v0_additive_0", "vel": 0.543, "bend": 0.0, "ch": 4}, {"t": 131.115, "dur": 0.039, "note": 48, "inst": "piano_v0_additive_0", "vel": 0.551, "bend": 0.0, "ch": 0}, {"t": 131.164, "dur": 0.066, "note": 38, "inst": "harpsichord_v0_additive_2", "vel": 0.465, "bend": 0.0, "ch": 6}, {"t": 131.178, "dur": 0.039, "note": 50, "inst": "harpsichord_v0_additive_2", "vel": 0.606, "bend": 0.0, "ch": 2}, {"t": 131.227, "dur": 0.05, "note": 39, "inst": "celesta_v0_additive_3", "vel": 0.559, "bend": 0.0, "ch": 7}, {"t": 131.261, "dur": 0.047, "note": 51, "inst": "celesta_v0_additive_3", "vel": 0.535, "bend": 0.0, "ch": 3}, {"t": 131.302, "dur": 0.05, "note": 42, "inst": "harpsichord_v0_additive_2", "vel": 0.543, "bend": 0.0, "ch": 10}, {"t": 131.33, "dur": 0.066, "note": 54, "inst": "harpsichord_v0_additive_2", "vel": 0.606, "bend": 0.0, "ch": 6}, {"t": 131.381, "dur": 0.049, "note": 44, "inst": "piano_v0_additive_0", "vel": 0.591, "bend": 0.0, "ch": 12}, {"t": 131.396, "dur": 0.061, "note": 56, "inst": "piano_v0_additive_0", "vel": 0.591, "bend": 0.0, "ch": 8}, {"t": 131.45, "dur": 0.037, "note": 56, "inst": "piano_v0_additive_0", "vel": 0.575, "bend": 0.0, "ch": 8}, {"t": 131.454, "dur": 0.047, "note": 44, "inst": "piano_v0_additive_0", "vel": 0.535, "bend": 0.0, "ch": 12}, {"t": 131.521, "dur": 0.06, "note": 47, "inst": "celesta_v0_additive_3", "vel": 0.535, "bend": 0.0, "ch": 15}, {"t": 131.529, "dur": 0.04, "note": 59, "inst": "celesta_v0_additive_3", "vel": 0.598, "bend": 0.0, "ch": 11}, {"t": 131.592, "dur": 0.099, "note": 48, "inst": "piano_v0_additive_0", "vel": 0.528, "bend": 0.0, "ch": 0}, {"t": 131.6, "dur": 0.048, "note": 60, "inst": "piano_v0_additive_0", "vel": 0.591, "bend": 0.0, "ch": 12}, {"t": 131.651, "dur": 0.077, "note": 50, "inst": "harpsichord_v0_additive_2", "vel": 0.575, "bend": 0.0, "ch": 2}, {"t": 131.667, "dur": 0.032, "note": 62, "inst": "harpsichord_v0_additive_2", "vel": 0.528, "bend": 0.0, "ch": 14}, {"t": 131.723, "dur": 0.042, "note": 51, "inst": "celesta_v0_additive_3", "vel": 0.528, "bend": 0.0, "ch": 3}, {"t": 131.742, "dur": 0.036, "note": 63, "inst": "celesta_v0_additive_3", "vel": 0.543, "bend": 0.0, "ch": 15}, {"t": 131.783, "dur": 0.05, "note": 54, "inst": "harpsichord_v0_additive_2", "vel": 0.559, "bend": 0.0, "ch": 6}, {"t": 131.802, "dur": 0.06, "note": 66, "inst": "harpsichord_v0_additive_2", "vel": 0.567, "bend": 0.0, "ch": 2}, {"t": 131.862, "dur": 0.056, "note": 56, "inst": "piano_v0_additive_0", "vel": 0.567, "bend": 0.0, "ch": 8}, {"t": 131.862, "dur": 0.075, "note": 68, "inst": "piano_v0_additive_0", "vel": 0.575, "bend": 0.0, "ch": 4}, {"t": 131.909, "dur": 0.044, "note": 68, "inst": "piano_v0_additive_0", "vel": 0.614, "bend": 0.0, "ch": 4}, {"t": 131.929, "dur": 0.038, "note": 56, "inst": "piano_v0_additive_0", "vel": 0.591, "bend": 0.0, "ch": 8}, {"t": 131.982, "dur": 0.071, "note": 59, "inst": "celesta_v0_additive_3", "vel": 0.614, "bend": 0.0, "ch": 11}, {"t": 131.993, "dur": 0.059, "note": 71, "inst": "celesta_v0_additive_3", "vel": 0.591, "bend": 0.0, "ch": 7}, {"t": 132.061, "dur": 0.065, "note": 72, "inst": "piano_v0_additive_0", "vel": 0.646, "bend": 0.0, "ch": 8}, {"t": 132.068, "dur": 0.113, "note": 60, "inst": "piano_v0_additive_0", "vel": 0.598, "bend": 0.0, "ch": 12}, {"t": 132.123, "dur": 0.075, "note": 62, "inst": "harpsichord_v0_additive_2", "vel": 0.543, "bend": 0.0, "ch": 14}, {"t": 132.124, "dur": 0.051, "note": 74, "inst": "harpsichord_v0_additive_2", "vel": 0.606, "bend": 0.0, "ch": 10}, {"t": 132.178, "dur": 0.071, "note": 63, "inst": "celesta_v0_additive_3", "vel": 0.63, "bend": 0.0, "ch": 15}, {"t": 132.194, "dur": 0.072, "note": 75, "inst": "celesta_v0_additive_3", "vel": 0.669, "bend": 0.0, "ch": 11}, {"t": 132.262, "dur": 0.067, "note": 66, "inst": "harpsichord_v0_additive_2", "vel": 0.559, "bend": 0.0, "ch": 2}, {"t": 132.275, "dur": 0.078, "note": 78, "inst": "harpsichord_v0_additive_2", "vel": 0.614, "bend": 0.0, "ch": 14}, {"t": 132.327, "dur": 0.082, "note": 80, "inst": "piano_v0_additive_0", "vel": 0.677, "bend": 0.0, "ch": 0}, {"t": 132.334, "dur": 0.08, "note": 68, "inst": "piano_v0_additive_0", "vel": 0.63, "bend": 0.0, "ch": 4}, {"t": 132.383, "dur": 0.044, "note": 80, "inst": "piano_v0_additive_0", "vel": 0.654, "bend": 0.0, "ch": 0}, {"t": 132.389, "dur": 0.072, "note": 68, "inst": "piano_v0_additive_0", "vel": 0.709, "bend": 0.0, "ch": 4}, {"t": 132.46, "dur": 0.072, "note": 83, "inst": "celesta_v0_additive_3", "vel": 0.677, "bend": 0.0, "ch": 3}, {"t": 132.479, "dur": 0.097, "note": 71, "inst": "celesta_v0_additive_3", "vel": 0.638, "bend": 0.0, "ch": 7}, {"t": 132.531, "dur": 0.076, "note": 84, "inst": "piano_v0_additive_0", "vel": 0.677, "bend": 0.0, "ch": 4}, {"t": 132.566, "dur": 0.141, "note": 72, "inst": "piano_v0_additive_0", "vel": 0.693, "bend": 0.0, "ch": 8}, {"t": 132.578, "dur": 0.13, "note": 74, "inst": "harpsichord_v0_additive_2", "vel": 0.575, "bend": 0.0, "ch": 10}, {"t": 132.59, "dur": 0.043, "note": 86, "inst": "harpsichord_v0_additive_2", "vel": 0.693, "bend": 0.0, "ch": 6}, {"t": 132.656, "dur": 0.07, "note": 87, "inst": "celesta_v0_additive_3", "vel": 0.701, "bend": 0.0, "ch": 7}, {"t": 132.659, "dur": 0.075, "note": 75, "inst": "celesta_v0_additive_3", "vel": 0.63, "bend": 0.0, "ch": 11}, {"t": 132.72, "dur": 0.097, "note": 90, "inst": "harpsichord_v0_additive_2", "vel": 0.693, "bend": 0.0, "ch": 10}, {"t": 132.73, "dur": 0.059, "note": 78, "inst": "harpsichord_v0_additive_2", "vel": 0.693, "bend": 0.0, "ch": 14}, {"t": 132.794, "dur": 0.043, "note": 92, "inst": "piano_v0_additive_0", "vel": 0.543, "bend": 0.0, "ch": 12}, {"t": 132.81, "dur": 0.063, "note": 92, "inst": "piano_v0_additive_0", "vel": 0.866, "bend": 0.0, "ch": 12}, {"t": 132.814, "dur": 0.048, "note": 80, "inst": "piano_v0_additive_0", "vel": 0.89, "bend": 0.0, "ch": 0}, {"t": 133.112, "dur": 0.092, "note": 95, "inst": "celesta_v0_additive_3", "vel": 0.433, "bend": 0.0, "ch": 15}, {"t": 133.144, "dur": 0.08, "note": 84, "inst": "piano_v0_additive_0", "vel": 0.795, "bend": 0.0, "ch": 4}, {"t": 133.145, "dur": 0.109, "note": 92, "inst": "piano_v0_additive_0", "vel": 0.819, "bend": 0.0, "ch": 12}, {"t": 133.148, "dur": 0.067, "note": 90, "inst": "harpsichord_v0_additive_2", "vel": 0.661, "bend": 0.0, "ch": 10}, {"t": 133.154, "dur": 0.042, "note": 38, "inst": "harpsichord_v0_additive_2", "vel": 0.795, "bend": 0.0, "ch": 6}, {"t": 133.158, "dur": 0.039, "note": 26, "inst": "harpsichord_v0_additive_2", "vel": 0.709, "bend": 0.0, "ch": 10}, {"t": 133.187, "dur": 0.026, "note": 95, "inst": "celesta_v0_additive_3", "vel": 0.551, "bend": 0.0, "ch": 15}, {"t": 133.296, "dur": 0.107, "note": 92, "inst": "piano_v0_additive_0", "vel": 0.693, "bend": 0.0, "ch": 12}, {"t": 133.297, "dur": 0.179, "note": 90, "inst": "harpsichord_v0_additive_2", "vel": 0.74, "bend": 0.0, "ch": 10}, {"t": 133.3, "dur": 0.059, "note": 83, "inst": "celesta_v0_additive_3", "vel": 0.717, "bend": 0.0, "ch": 3}, {"t": 133.465, "dur": 0.02, "note": 62, "inst": "harpsichord_v0_additive_2", "vel": 0.78, "bend": 0.0, "ch": 14}, {"t": 133.468, "dur": 0.322, "note": 92, "inst": "piano_v0_additive_0", "vel": 0.78, "bend": 0.0, "ch": 12}, {"t": 133.474, "dur": 0.022, "note": 50, "inst": "harpsichord_v0_additive_2", "vel": 0.638, "bend": 0.0, "ch": 2}, {"t": 133.474, "dur": 0.268, "note": 84, "inst": "piano_v0_additive_0", "vel": 0.811, "bend": 0.0, "ch": 4}, {"t": 133.485, "dur": 0.183, "note": 90, "inst": "harpsichord_v0_additive_2", "vel": 0.646, "bend": 0.0, "ch": 10}, {"t": 210.066, "dur": 0.396, "note": 32, "inst": "piano_v0_additive_0", "vel": 1.0, "bend": 0.0, "ch": 0}, {"t": 210.461, "dur": 0.396, "note": 44, "inst": "piano_v0_additive_0", "vel": 1.0, "bend": 0.0, "ch": 12}, {"t": 210.461, "dur": 0.396, "note": 44, "inst": "piano_v0_additive_0", "vel": 1.0, "bend": 0.0, "ch": 12}, {"t": 210.461, "dur": 0.396, "note": 49, "inst": "organ_v0_additive_1", "vel": 1.0, "bend": 0.0, "ch": 1}, {"t": 210.857, "dur": 0.396, "note": 37, "inst": "organ_v0_additive_1", "vel": 1.0, "bend": 0.0, "ch": 5}, {"t": 210.857, "dur": 0.396, "note": 44, "inst": "piano_v0_additive_0", "vel": 1.0, "bend": 0.0, "ch": 12}, {"t": 211.252, "dur": 0.396, "note": 44, "inst": "piano_v0_additive_0", "vel": 1.0, "bend": 0.0, "ch": 12}, {"t": 211.252, "dur": 0.791, "note": 44, "inst": "piano_v0_additive_0", "vel": 1.0, "bend": 0.0, "ch": 12}, {"t": 211.252, "dur": 0.791, "note": 49, "inst": "organ_v0_additive_1", "vel": 1.0, "bend": 0.0, "ch": 1}, {"t": 211.648, "dur": 0.396, "note": 32, "inst": "piano_v0_additive_0", "vel": 1.0, "bend": 0.0, "ch": 0}, {"t": 212.044, "dur": 0.396, "note": 37, "inst": "organ_v0_additive_1", "vel": 1.0, "bend": 0.0, "ch": 5}, {"t": 212.044, "dur": 0.396, "note": 44, "inst": "piano_v0_additive_0", "vel": 1.0, "bend": 0.0, "ch": 12}, {"t": 212.044, "dur": 0.396, "note": 37, "inst": "organ_v0_additive_1", "vel": 1.0, "bend": 0.0, "ch": 5}, {"t": 212.439, "dur": 0.396, "note": 32, "inst": "piano_v0_additive_0", "vel": 1.0, "bend": 0.0, "ch": 0}, {"t": 212.835, "dur": 0.396, "note": 37, "inst": "organ_v0_additive_1", "vel": 1.0, "bend": 0.0, "ch": 5}, {"t": 212.835, "dur": 0.396, "note": 44, "inst": "piano_v0_additive_0", "vel": 1.0, "bend": 0.0, "ch": 12}, {"t": 212.835, "dur": 0.396, "note": 37, "inst": "organ_v0_additive_1", "vel": 1.0, "bend": 0.0, "ch": 5}, {"t": 213.23, "dur": 0.396, "note": 37, "inst": "organ_v0_additive_1", "vel": 1.0, "bend": 0.0, "ch": 5}, {"t": 213.23, "dur": 0.396, "note": 44, "inst": "piano_v0_additive_0", "vel": 1.0, "bend": 0.0, "ch": 12}, {"t": 213.626, "dur": 0.396, "note": 37, "inst": "organ_v0_additive_1", "vel": 1.0, "bend": 0.0, "ch": 5}, {"t": 213.626, "dur": 0.791, "note": 44, "inst": "piano_v0_additive_0", "vel": 1.0, "bend": 0.0, "ch": 12}, {"t": 213.626, "dur": 0.791, "note": 37, "inst": "organ_v0_additive_1", "vel": 1.0, "bend": 0.0, "ch": 5}, {"t": 214.021, "dur": 0.396, "note": 32, "inst": "piano_v0_additive_0", "vel": 1.0, "bend": 0.0, "ch": 0}, {"t": 214.417, "dur": 0.396, "note": 37, "inst": "organ_v0_additive_1", "vel": 1.0, "bend": 0.0, "ch": 5}, {"t": 214.417, "dur": 0.396, "note": 44, "inst": "piano_v0_additive_0", "vel": 1.0, "bend": 0.0, "ch": 12}, {"t": 214.417, "dur": 0.396, "note": 44, "inst": "piano_v0_additive_0", "vel": 1.0, "bend": 0.0, "ch": 12}, {"t": 214.812, "dur": 0.396, "note": 32, "inst": "piano_v0_additive_0", "vel": 1.0, "bend": 0.0, "ch": 0}, {"t": 215.208, "dur": 0.396, "note": 37, "inst": "organ_v0_additive_1", "vel": 1.0, "bend": 0.0, "ch": 5}, {"t": 215.208, "dur": 0.396, "note": 37, "inst": "organ_v0_additive_1", "vel": 1.0, "bend": 0.0, "ch": 5}, {"t": 215.208, "dur": 0.396, "note": 44, "inst": "piano_v0_additive_0", "vel": 1.0, "bend": 0.0, "ch": 12}, {"t": 215.603, "dur": 0.396, "note": 32, "inst": "piano_v0_additive_0", "vel": 1.0, "bend": 0.0, "ch": 0}, {"t": 215.999, "dur": 0.396, "note": 25, "inst": "organ_v0_additive_1", "vel": 1.0, "bend": 0.0, "ch": 9}, {"t": 215.999, "dur": 0.791, "note": 37, "inst": "organ_v0_additive_1", "vel": 1.0, "bend": 0.0, "ch": 5}, {"t": 215.999, "dur": 0.791, "note": 44, "inst": "piano_v0_additive_0", "vel": 1.0, "bend": 0.0, "ch": 12}, {"t": 216.394, "dur": 0.396, "note": 32, "inst": "piano_v0_additive_0", "vel": 1.0, "bend": 0.0, "ch": 0}, {"t": 216.79, "dur": 0.396, "note": 32, "inst": "piano_v0_additive_0", "vel": 1.0, "bend": 0.0, "ch": 0}, {"t": 216.79, "dur": 0.396, "note": 37, "inst": "organ_v0_additive_1", "vel": 1.0, "bend": 0.0, "ch": 5}, {"t": 216.79, "dur": 0.396, "note": 44, "inst": "piano_v0_additive_0", "vel": 1.0, "bend": 0.0, "ch": 12}, {"t": 217.185, "dur": 0.396, "note": 32, "inst": "piano_v0_additive_0", "vel": 1.0, "bend": 0.0, "ch": 0}, {"t": 217.185, "dur": 0.396, "note": 32, "inst": "piano_v0_additive_0", "vel": 1.0, "bend": 0.0, "ch": 0}, {"t": 217.185, "dur": 1.187, "note": 44, "inst": "piano_v0_additive_0", "vel": 1.0, "bend": 0.0, "ch": 12}, {"t": 217.581, "dur": 0.396, "note": 25, "inst": "organ_v0_additive_1", "vel": 1.0, "bend": 0.0, "ch": 9}, {"t": 217.976, "dur": 0.396, "note": 25, "inst": "organ_v0_additive_1", "vel": 1.0, "bend": 0.0, "ch": 9}, {"t": 218.372, "dur": 1.187, "note": 37, "inst": "organ_v0_additive_1", "vel": 1.0, "bend": 0.0, "ch": 5}, {"t": 218.767, "dur": 0.396, "note": 44, "inst": "piano_v0_additive_0", "vel": 1.0, "bend": 0.0, "ch": 12}, {"t": 218.767, "dur": 0.396, "note": 56, "inst": "piano_v0_additive_0", "vel": 1.0, "bend": 0.0, "ch": 8}, {"t": 218.767, "dur": 0.396, "note": 56, "inst": "piano_v0_additive_0", "vel": 1.0, "bend": 0.0, "ch": 8}, {"t": 219.163, "dur": 0.396, "note": 44, "inst": "piano_v0_additive_0", "vel": 1.0, "bend": 0.0, "ch": 12}, {"t": 219.163, "dur": 0.396, "note": 56, "inst": "piano_v0_additive_0", "vel": 1.0, "bend": 0.0, "ch": 8}, {"t": 219.163, "dur": 0.396, "note": 56, "inst": "piano_v0_additive_0", "vel": 1.0, "bend": 0.0, "ch": 8}, {"t": 219.558, "dur": 0.396, "note": 25, "inst": "organ_v0_additive_1", "vel": 1.0, "bend": 0.0, "ch": 9}, {"t": 219.558, "dur": 1.187, "note": 37, "inst": "organ_v0_additive_1", "vel": 1.0, "bend": 0.0, "ch": 5}, {"t": 219.558, "dur": 1.187, "note": 56, "inst": "piano_v0_additive_0", "vel": 1.0, "bend": 0.0, "ch": 8}, {"t": 219.558, "dur": 1.187, "note": 56, "inst": "piano_v0_additive_0", "vel": 1.0, "bend": 0.0, "ch": 8}, {"t": 219.954, "dur": 0.396, "note": 25, "inst": "organ_v0_additive_1", "vel": 1.0, "bend": 0.0, "ch": 9}, {"t": 220.35, "dur": 0.396, "note": 25, "inst": "organ_v0_additive_1", "vel": 1.0, "bend": 0.0, "ch": 9}, {"t": 220.745, "dur": 1.187, "note": 24, "inst": "piano_v0_additive_0", "vel": 1.0, "bend": 0.0, "ch": 8}, {"t": 221.141, "dur": 0.396, "note": 37, "inst": "organ_v0_additive_1", "vel": 1.0, "bend": 0.0, "ch": 5}, {"t": 221.141, "dur": 0.396, "note": 44, "inst": "piano_v0_additive_0", "vel": 1.0, "bend": 0.0, "ch": 12}, {"t": 221.141, "dur": 0.396, "note": 37, "inst": "organ_v0_additive_1", "vel": 1.0, "bend": 0.0, "ch": 5}, {"t": 221.536, "dur": 0.396, "note": 37, "inst": "organ_v0_additive_1", "vel": 1.0, "bend": 0.0, "ch": 5}, {"t": 221.536, "dur": 0.396, "note": 44, "inst": "piano_v0_additive_0", "vel": 1.0, "bend": 0.0, "ch": 12}, {"t": 221.536, "dur": 0.396, "note": 44, "inst": "piano_v0_additive_0", "vel": 1.0, "bend": 0.0, "ch": 12}, {"t": 221.932, "dur": 0.396, "note": 32, "inst": "piano_v0_additive_0", "vel": 1.0, "bend": 0.0, "ch": 0}, {"t": 221.932, "dur": 1.187, "note": 44, "inst": "piano_v0_additive_0", "vel": 1.0, "bend": 0.0, "ch": 12}, {"t": 221.932, "dur": 1.187, "note": 44, "inst": "piano_v0_additive_0", "vel": 1.0, "bend": 0.0, "ch": 12}, {"t": 222.327, "dur": 0.396, "note": 25, "inst": "organ_v0_additive_1", "vel": 1.0, "bend": 0.0, "ch": 9}, {"t": 222.723, "dur": 0.396, "note": 25, "inst": "organ_v0_additive_1", "vel": 1.0, "bend": 0.0, "ch": 9}, {"t": 223.118, "dur": 1.187, "note": 37, "inst": "organ_v0_additive_1", "vel": 1.0, "bend": 0.0, "ch": 5}, {"t": 223.514, "dur": 0.396, "note": 44, "inst": "piano_v0_additive_0", "vel": 1.0, "bend": 0.0, "ch": 12}, {"t": 223.514, "dur": 0.396, "note": 56, "inst": "piano_v0_additive_0", "vel": 1.0, "bend": 0.0, "ch": 8}, {"t": 223.514, "dur": 0.396, "note": 56, "inst": "piano_v0_additive_0", "vel": 1.0, "bend": 0.0, "ch": 8}, {"t": 223.909, "dur": 0.396, "note": 44, "inst": "piano_v0_additive_0", "vel": 1.0, "bend": 0.0, "ch": 12}, {"t": 223.909, "dur": 0.396, "note": 56, "inst": "piano_v0_additive_0", "vel": 1.0, "bend": 0.0, "ch": 8}, {"t": 223.909, "dur": 0.396, "note": 56, "inst": "piano_v0_additive_0", "vel": 1.0, "bend": 0.0, "ch": 8}, {"t": 224.305, "dur": 0.396, "note": 37, "inst": "organ_v0_additive_1", "vel": 1.0, "bend": 0.0, "ch": 5}, {"t": 224.305, "dur": 0.791, "note": 37, "inst": "organ_v0_additive_1", "vel": 1.0, "bend": 0.0, "ch": 5}, {"t": 224.305, "dur": 0.791, "note": 56, "inst": "piano_v0_additive_0", "vel": 1.0, "bend": 0.0, "ch": 8}, {"t": 224.305, "dur": 0.791, "note": 56, "inst": "piano_v0_additive_0", "vel": 1.0, "bend": 0.0, "ch": 8}, {"t": 224.7, "dur": 0.791, "note": 37, "inst": "organ_v0_additive_1", "vel": 1.0, "bend": 0.0, "ch": 5}, {"t": 225.096, "dur": 0.791, "note": 37, "inst": "organ_v0_additive_1", "vel": 1.0, "bend": 0.0, "ch": 5}, {"t": 225.096, "dur": 0.791, "note": 56, "inst": "piano_v0_additive_0", "vel": 1.0, "bend": 0.0, "ch": 8}, {"t": 225.096, "dur": 0.791, "note": 56, "inst": "piano_v0_additive_0", "vel": 1.0, "bend": 0.0, "ch": 8}, {"t": 225.491, "dur": 0.791, "note": 44, "inst": "piano_v0_additive_0", "vel": 1.0, "bend": 0.0, "ch": 12}, {"t": 225.887, "dur": 0.791, "note": 56, "inst": "piano_v0_additive_0", "vel": 1.0, "bend": 0.0, "ch": 8}, {"t": 225.887, "dur": 0.791, "note": 56, "inst": "piano_v0_additive_0", "vel": 1.0, "bend": 0.0, "ch": 8}, {"t": 225.887, "dur": 0.791, "note": 49, "inst": "organ_v0_additive_1", "vel": 1.0, "bend": 0.0, "ch": 1}, {"t": 226.282, "dur": 0.396, "note": 49, "inst": "organ_v0_additive_1", "vel": 1.0, "bend": 0.0, "ch": 1}, {"t": 226.678, "dur": 0.396, "note": 37, "inst": "organ_v0_additive_1", "vel": 1.0, "bend": 0.0, "ch": 5}, {"t": 226.678, "dur": 0.396, "note": 49, "inst": "organ_v0_additive_1", "vel": 1.0, "bend": 0.0, "ch": 1}, {"t": 226.678, "dur": 0.396, "note": 56, "inst": "piano_v0_additive_0", "vel": 1.0, "bend": 0.0, "ch": 8}, {"t": 226.678, "dur": 0.396, "note": 49, "inst": "organ_v0_additive_1", "vel": 1.0, "bend": 0.0, "ch": 1}, {"t": 227.073, "dur": 0.396, "note": 56, "inst": "piano_v0_additive_0", "vel": 1.0, "bend": 0.0, "ch": 8}, {"t": 227.073, "dur": 0.396, "note": 49, "inst": "organ_v0_additive_1", "vel": 1.0, "bend": 0.0, "ch": 1}, {"t": 227.073, "dur": 0.396, "note": 68, "inst": "piano_v0_additive_0", "vel": 1.0, "bend": 0.0, "ch": 4}, {"t": 227.469, "dur": 0.396, "note": 56, "inst": "piano_v0_additive_0", "vel": 1.0, "bend": 0.0, "ch": 8}, {"t": 227.469, "dur": 0.396, "note": 49, "inst": "organ_v0_additive_1", "vel": 1.0, "bend": 0.0, "ch": 1}, {"t": 227.864, "dur": 0.396, "note": 56, "inst": "piano_v0_additive_0", "vel": 1.0, "bend": 0.0, "ch": 8}, {"t": 227.864, "dur": 0.791, "note": 49, "inst": "organ_v0_additive_1", "vel": 1.0, "bend": 0.0, "ch": 1}, {"t": 227.864, "dur": 0.791, "note": 68, "inst": "piano_v0_additive_0", "vel": 1.0, "bend": 0.0, "ch": 4}, {"t": 228.26, "dur": 0.396, "note": 37, "inst": "organ_v0_additive_1", "vel": 1.0, "bend": 0.0, "ch": 5}, {"t": 228.656, "dur": 0.396, "note": 56, "inst": "piano_v0_additive_0", "vel": 1.0, "bend": 0.0, "ch": 8}, {"t": 228.656, "dur": 0.396, "note": 56, "inst": "piano_v0_additive_0", "vel": 1.0, "bend": 0.0, "ch": 8}, {"t": 228.656, "dur": 0.396, "note": 61, "inst": "organ_v0_additive_1", "vel": 1.0, "bend": 0.0, "ch": 13}, {"t": 229.051, "dur": 0.396, "note": 37, "inst": "organ_v0_additive_1", "vel": 1.0, "bend": 0.0, "ch": 5}, {"t": 229.447, "dur": 0.396, "note": 56, "inst": "piano_v0_additive_0", "vel": 1.0, "bend": 0.0, "ch": 8}, {"t": 229.447, "dur": 0.396, "note": 56, "inst": "piano_v0_additive_0", "vel": 1.0, "bend": 0.0, "ch": 8}, {"t": 229.447, "dur": 0.396, "note": 61, "inst": "organ_v0_additive_1", "vel": 1.0, "bend": 0.0, "ch": 13}, {"t": 229.842, "dur": 0.396, "note": 49, "inst": "organ_v0_additive_1", "vel": 1.0, "bend": 0.0, "ch": 1}, {"t": 229.842, "dur": 0.396, "note": 56, "inst": "piano_v0_additive_0", "vel": 1.0, "bend": 0.0, "ch": 8}, {"t": 230.238, "dur": 0.396, "note": 56, "inst": "piano_v0_additive_0", "vel": 1.0, "bend": 0.0, "ch": 8}, {"t": 230.238, "dur": 0.791, "note": 56, "inst": "piano_v0_additive_0", "vel": 1.0, "bend": 0.0, "ch": 8}, {"t": 230.238, "dur": 0.791, "note": 61, "inst": "organ_v0_additive_1", "vel": 1.0, "bend": 0.0, "ch": 13}, {"t": 230.633, "dur": 0.396, "note": 37, "inst": "organ_v0_additive_1", "vel": 1.0, "bend": 0.0, "ch": 5}, {"t": 231.029, "dur": 0.396, "note": 49, "inst": "organ_v0_additive_1", "vel": 1.0, "bend": 0.0, "ch": 1}, {"t": 231.029, "dur": 0.396, "note": 56, "inst": "piano_v0_additive_0", "vel": 1.0, "bend": 0.0, "ch": 8}, {"t": 231.029, "dur": 0.396, "note": 49, "inst": "organ_v0_additive_1", "vel": 1.0, "bend": 0.0, "ch": 1}, {"t": 231.424, "dur": 0.396, "note": 37, "inst": "organ_v0_additive_1", "vel": 1.0, "bend": 0.0, "ch": 5}, {"t": 231.82, "dur": 1.187, "note": 44, "inst": "piano_v0_additive_0", "vel": 1.0, "bend": 0.0, "ch": 12}, {"t": 231.82, "dur": 1.187, "note": 49, "inst": "organ_v0_additive_1", "vel": 1.0, "bend": 0.0, "ch": 1}, {"t": 231.82, "dur": 0.396, "note": 56, "inst": "piano_v0_additive_0", "vel": 1.0, "bend": 0.0, "ch": 8}, {"t": 231.82, "dur": 0.396, "note": 49, "inst": "organ_v0_additive_1", "vel": 1.0, "bend": 0.0, "ch": 1}, {"t": 232.215, "dur": 0.396, "note": 56, "inst": "piano_v0_additive_0", "vel": 1.0, "bend": 0.0, "ch": 8}, {"t": 232.611, "dur": 0.396, "note": 56, "inst": "piano_v0_additive_0", "vel": 1.0, "bend": 0.0, "ch": 8}, {"t": 232.611, "dur": 0.396, "note": 49, "inst": "organ_v0_additive_1", "vel": 1.0, "bend": 0.0, "ch": 1}, {"t": 233.006, "dur": 0.791, "note": 37, "inst": "organ_v0_additive_1", "vel": 1.0, "bend": 0.0, "ch": 5}, {"t": 233.006, "dur": 0.791, "note": 44, "inst": "piano_v0_additive_0", "vel": 1.0, "bend": 0.0, "ch": 12}, {"t": 233.006, "dur": 0.396, "note": 37, "inst": "organ_v0_additive_1", "vel": 1.0, "bend": 0.0, "ch": 5}, {"t": 233.006, "dur": 0.396, "note": 56, "inst": "piano_v0_additive_0", "vel": 1.0, "bend": 0.0, "ch": 8}, {"t": 233.402, "dur": 0.396, "note": 37, "inst": "organ_v0_additive_1", "vel": 1.0, "bend": 0.0, "ch": 5}, {"t": 233.797, "dur": 0.396, "note": 37, "inst": "organ_v0_additive_1", "vel": 1.0, "bend": 0.0, "ch": 5}, {"t": 233.797, "dur": 0.396, "note": 56, "inst": "piano_v0_additive_0", "vel": 1.0, "bend": 0.0, "ch": 8}, {"t": 234.193, "dur": 1.187, "note": 25, "inst": "organ_v0_additive_1", "vel": 1.0, "bend": 0.0, "ch": 9}, {"t": 234.193, "dur": 1.187, "note": 37, "inst": "organ_v0_additive_1", "vel": 1.0, "bend": 0.0, "ch": 5}, {"t": 234.193, "dur": 0.396, "note": 44, "inst": "piano_v0_additive_0", "vel": 1.0, "bend": 0.0, "ch": 12}, {"t": 234.193, "dur": 0.396, "note": 44, "inst": "piano_v0_additive_0", "vel": 1.0, "bend": 0.0, "ch": 12}, {"t": 234.588, "dur": 0.396, "note": 44, "inst": "piano_v0_additive_0", "vel": 1.0, "bend": 0.0, "ch": 12}, {"t": 234.984, "dur": 0.791, "note": 44, "inst": "piano_v0_additive_0", "vel": 1.0, "bend": 0.0, "ch": 12}, {"t": 234.984, "dur": 0.791, "note": 44, "inst": "piano_v0_additive_0", "vel": 1.0, "bend": 0.0, "ch": 12}, {"t": 235.379, "dur": 0.396, "note": 32, "inst": "piano_v0_additive_0", "vel": 1.0, "bend": 0.0, "ch": 0}, {"t": 235.775, "dur": 0.396, "note": 32, "inst": "piano_v0_additive_0", "vel": 1.0, "bend": 0.0, "ch": 0}, {"t": 235.775, "dur": 0.396, "note": 25, "inst": "organ_v0_additive_1", "vel": 1.0, "bend": 0.0, "ch": 9}, {"t": 235.775, "dur": 0.396, "note": 37, "inst": "organ_v0_additive_1", "vel": 1.0, "bend": 0.0, "ch": 5}, {"t": 235.775, "dur": 0.396, "note": 44, "inst": "piano_v0_additive_0", "vel": 1.0, "bend": 0.0, "ch": 12}, {"t": 236.17, "dur": 0.396, "note": 32, "inst": "piano_v0_additive_0", "vel": 1.0, "bend": 0.0, "ch": 0}, {"t": 236.17, "dur": 0.396, "note": 37, "inst": "organ_v0_additive_1", "vel": 1.0, "bend": 0.0, "ch": 5}, {"t": 236.17, "dur": 0.396, "note": 44, "inst": "piano_v0_additive_0", "vel": 1.0, "bend": 0.0, "ch": 12}, {"t": 236.17, "dur": 0.396, "note": 44, "inst": "piano_v0_additive_0", "vel": 1.0, "bend": 0.0, "ch": 12}, {"t": 236.566, "dur": 0.396, "note": 61, "inst": "organ_v0_additive_1", "vel": 1.0, "bend": 0.0, "ch": 13}, {"t": 236.566, "dur": 0.396, "note": 68, "inst": "piano_v0_additive_0", "vel": 1.0, "bend": 0.0, "ch": 4}, {"t": 236.566, "dur": 0.396, "note": 68, "inst": "piano_v0_additive_0", "vel": 1.0, "bend": 0.0, "ch": 4}, {"t": 236.961, "dur": 0.396, "note": 49, "inst": "organ_v0_additive_1", "vel": 1.0, "bend": 0.0, "ch": 1}, {"t": 236.961, "dur": 0.396, "note": 61, "inst": "organ_v0_additive_1", "vel": 1.0, "bend": 0.0, "ch": 13}, {"t": 237.357, "dur": 0.396, "note": 61, "inst": "organ_v0_additive_1", "vel": 1.0, "bend": 0.0, "ch": 13}, {"t": 237.357, "dur": 0.791, "note": 68, "inst": "piano_v0_additive_0", "vel": 1.0, "bend": 0.0, "ch": 4}, {"t": 237.357, "dur": 0.791, "note": 68, "inst": "piano_v0_additive_0", "vel": 1.0, "bend": 0.0, "ch": 4}, {"t": 237.753, "dur": 0.396, "note": 56, "inst": "piano_v0_additive_0", "vel": 1.0, "bend": 0.0, "ch": 8}, {"t": 238.148, "dur": 0.396, "note": 49, "inst": "organ_v0_additive_1", "vel": 1.0, "bend": 0.0, "ch": 1}, {"t": 238.148, "dur": 0.396, "note": 61, "inst": "organ_v0_additive_1", "vel": 1.0, "bend": 0.0, "ch": 13}, {"t": 238.148, "dur": 0.396, "note": 68, "inst": "piano_v0_additive_0", "vel": 1.0, "bend": 0.0, "ch": 4}, {"t": 238.544, "dur": 0.396, "note": 56, "inst": "piano_v0_additive_0", "vel": 1.0, "bend": 0.0, "ch": 8}, {"t": 238.939, "dur": 0.396, "note": 56, "inst": "piano_v0_additive_0", "vel": 1.0, "bend": 0.0, "ch": 8}, {"t": 238.939, "dur": 0.396, "note": 61, "inst": "organ_v0_additive_1", "vel": 1.0, "bend": 0.0, "ch": 13}, {"t": 238.939, "dur": 0.396, "note": 68, "inst": "piano_v0_additive_0", "vel": 1.0, "bend": 0.0, "ch": 4}, {"t": 239.335, "dur": 0.396, "note": 56, "inst": "piano_v0_additive_0", "vel": 1.0, "bend": 0.0, "ch": 8}, {"t": 239.335, "dur": 0.396, "note": 49, "inst": "organ_v0_additive_1", "vel": 1.0, "bend": 0.0, "ch": 1}, {"t": 239.73, "dur": 0.396, "note": 56, "inst": "piano_v0_additive_0", "vel": 1.0, "bend": 0.0, "ch": 8}, {"t": 239.73, "dur": 0.791, "note": 61, "inst": "organ_v0_additive_1", "vel": 1.0, "bend": 0.0, "ch": 13}, {"t": 239.73, "dur": 0.791, "note": 68, "inst": "piano_v0_additive_0", "vel": 1.0, "bend": 0.0, "ch": 4}, {"t": 240.126, "dur": 0.396, "note": 56, "inst": "piano_v0_additive_0", "vel": 1.0, "bend": 0.0, "ch": 8}, {"t": 240.521, "dur": 0.396, "note": 56, "inst": "piano_v0_additive_0", "vel": 1.0, "bend": 0.0, "ch": 8}, {"t": 240.521, "dur": 0.396, "note": 49, "inst": "organ_v0_additive_1", "vel": 1.0, "bend": 0.0, "ch": 1}, {"t": 240.521, "dur": 0.396, "note": 68, "inst": "piano_v0_additive_0", "vel": 1.0, "bend": 0.0, "ch": 4}, {"t": 240.917, "dur": 0.396, "note": 56, "inst": "piano_v0_additive_0", "vel": 1.0, "bend": 0.0, "ch": 8}, {"t": 241.312, "dur": 1.187, "note": 49, "inst": "organ_v0_additive_1", "vel": 1.0, "bend": 0.0, "ch": 1}, {"t": 241.312, "dur": 1.187, "note": 56, "inst": "piano_v0_additive_0", "vel": 1.0, "bend": 0.0, "ch": 8}, {"t": 241.312, "dur": 0.396, "note": 49, "inst": "organ_v0_additive_1", "vel": 1.0, "bend": 0.0, "ch": 1}, {"t": 241.312, "dur": 0.396, "note": 68, "inst": "piano_v0_additive_0", "vel": 1.0, "bend": 0.0, "ch": 4}, {"t": 252.08, "dur": 0.253, "note": 71, "inst": "celesta_v0_additive_3", "vel": 0.535, "bend": 0.0, "ch": 7}, {"t": 252.25, "dur": 0.275, "note": 66, "inst": "harpsichord_v0_additive_2", "vel": 0.512, "bend": 0.0, "ch": 2}, {"t": 252.256, "dur": 0.218, "note": 42, "inst": "harpsichord_v0_additive_2", "vel": 0.291, "bend": 0.0, "ch": 10}, {"t": 252.428, "dur": 0.044, "note": 54, "inst": "harpsichord_v0_additive_2", "vel": 0.354, "bend": 0.0, "ch": 6}, {"t": 252.557, "dur": 0.107, "note": 69, "inst": "organ_v0_additive_1", "vel": 0.433, "bend": 0.0, "ch": 5}, {"t": 252.648, "dur": 0.211, "note": 66, "inst": "harpsichord_v0_additive_2", "vel": 0.543, "bend": 0.0, "ch": 2}, {"t": 252.79, "dur": 0.212, "note": 71, "inst": "celesta_v0_additive_3", "vel": 0.535, "bend": 0.0, "ch": 7}, {"t": 252.841, "dur": 1.14, "note": 42, "inst": "harpsichord_v0_additive_2", "vel": 0.26, "bend": 0.0, "ch": 10}, {"t": 252.844, "dur": 0.17, "note": 45, "inst": "organ_v0_additive_1", "vel": 0.283, "bend": 0.0, "ch": 13}, {"t": 252.977, "dur": 0.053, "note": 59, "inst": "celesta_v0_additive_3", "vel": 0.307, "bend": 0.0, "ch": 11}, {"t": 253.053, "dur": 0.146, "note": 54, "inst": "harpsichord_v0_additive_2", "vel": 0.48, "bend": 0.0, "ch": 6}, {"t": 253.142, "dur": 0.179, "note": 71, "inst": "celesta_v0_additive_3", "vel": 0.583, "bend": 0.0, "ch": 7}, {"t": 253.266, "dur": 0.207, "note": 74, "inst": "harpsichord_v0_additive_2", "vel": 0.591, "bend": 0.0, "ch": 10}, {"t": 253.29, "dur": 0.142, "note": 45, "inst": "organ_v0_additive_1", "vel": 0.378, "bend": 0.0, "ch": 13}, {"t": 253.423, "dur": 0.043, "note": 62, "inst": "harpsichord_v0_additive_2", "vel": 0.402, "bend": 0.0, "ch": 14}, {"t": 253.521, "dur": 0.159, "note": 54, "inst": "harpsichord_v0_additive_2", "vel": 0.52, "bend": 0.0, "ch": 6}, {"t": 253.611, "dur": 0.202, "note": 74, "inst": "harpsichord_v0_additive_2", "vel": 0.622, "bend": 0.0, "ch": 10}, {"t": 253.743, "dur": 0.192, "note": 69, "inst": "organ_v0_additive_1", "vel": 0.598, "bend": 0.0, "ch": 5}, {"t": 253.763, "dur": 0.172, "note": 43, "inst": "celesta_v0_additive_3", "vel": 0.37, "bend": 0.0, "ch": 11}, {"t": 253.91, "dur": 0.054, "note": 57, "inst": "organ_v0_additive_1", "vel": 0.299, "bend": 0.0, "ch": 9}, {"t": 254.003, "dur": 0.168, "note": 54, "inst": "harpsichord_v0_additive_2", "vel": 0.457, "bend": 0.0, "ch": 6}, {"t": 254.107, "dur": 0.187, "note": 69, "inst": "organ_v0_additive_1", "vel": 0.559, "bend": 0.0, "ch": 5}, {"t": 254.244, "dur": 0.236, "note": 67, "inst": "celesta_v0_additive_3", "vel": 0.551, "bend": 0.0, "ch": 3}, {"t": 254.258, "dur": 0.227, "note": 42, "inst": "harpsichord_v0_additive_2", "vel": 0.276, "bend": 0.0, "ch": 10}, {"t": 254.269, "dur": 0.209, "note": 47, "inst": "celesta_v0_additive_3", "vel": 0.323, "bend": 0.0, "ch": 15}, {"t": 254.407, "dur": 0.068, "note": 57, "inst": "organ_v0_additive_1", "vel": 0.339, "bend": 0.0, "ch": 9}, {"t": 254.522, "dur": 0.167, "note": 54, "inst": "harpsichord_v0_additive_2", "vel": 0.449, "bend": 0.0, "ch": 6}, {"t": 254.624, "dur": 0.242, "note": 67, "inst": "celesta_v0_additive_3", "vel": 0.535, "bend": 0.0, "ch": 3}, {"t": 254.794, "dur": 0.281, "note": 71, "inst": "celesta_v0_additive_3", "vel": 0.496, "bend": 0.0, "ch": 7}, {"t": 254.809, "dur": 0.193, "note": 52, "inst": "piano_v0_additive_0", "vel": 0.299, "bend": 0.0, "ch": 4}, {"t": 254.812, "dur": 0.217, "note": 47, "inst": "celesta_v0_additive_3", "vel": 0.291, "bend": 0.0, "ch": 15}, {"t": 254.982, "dur": 0.118, "note": 57, "inst": "organ_v0_additive_1", "vel": 0.315, "bend": 0.0, "ch": 9}, {"t": 255.109, "dur": 0.123, "note": 64, "inst": "piano_v0_additive_0", "vel": 0.409, "bend": 0.0, "ch": 0}, {"t": 255.205, "dur": 0.261, "note": 71, "inst": "celesta_v0_additive_3", "vel": 0.472, "bend": 0.0, "ch": 7}, {"t": 255.4, "dur": 0.256, "note": 69, "inst": "organ_v0_additive_1", "vel": 0.441, "bend": 0.0, "ch": 5}, {"t": 255.456, "dur": 0.178, "note": 30, "inst": "harpsichord_v0_additive_2", "vel": 0.283, "bend": 0.0, "ch": 14}, {"t": 255.461, "dur": 0.184, "note": 47, "inst": "celesta_v0_additive_3", "vel": 0.236, "bend": 0.0, "ch": 15}, {"t": 255.638, "dur": 0.09, "note": 57, "inst": "organ_v0_additive_1", "vel": 0.26, "bend": 0.0, "ch": 9}, {"t": 255.715, "dur": 0.106, "note": 54, "inst": "harpsichord_v0_additive_2", "vel": 0.425, "bend": 0.0, "ch": 6}, {"t": 255.814, "dur": 0.299, "note": 71, "inst": "celesta_v0_additive_3", "vel": 0.567, "bend": 0.0, "ch": 7}, {"t": 255.98, "dur": 0.117, "note": 76, "inst": "piano_v0_additive_0", "vel": 0.52, "bend": 0.0, "ch": 12}, {"t": 256.029, "dur": 0.577, "note": 74, "inst": "harpsichord_v0_additive_2", "vel": 0.528, "bend": 0.0, "ch": 10}, {"t": 256.047, "dur": 0.795, "note": 59, "inst": "celesta_v0_additive_3", "vel": 0.299, "bend": 0.0, "ch": 11}, {"t": 256.054, "dur": 0.161, "note": 55, "inst": "celesta_v0_additive_3", "vel": 0.299, "bend": 0.0, "ch": 7}, {"t": 256.205, "dur": 0.051, "note": 64, "inst": "piano_v0_additive_0", "vel": 0.386, "bend": 0.0, "ch": 0}, {"t": 256.313, "dur": 0.155, "note": 69, "inst": "organ_v0_additive_1", "vel": 0.425, "bend": 0.0, "ch": 5}, {"t": 256.42, "dur": 0.25, "note": 71, "inst": "celesta_v0_additive_3", "vel": 0.512, "bend": 0.0, "ch": 7}, {"t": 256.599, "dur": 0.28, "note": 66, "inst": "harpsichord_v0_additive_2", "vel": 0.512, "bend": 0.0, "ch": 2}, {"t": 256.619, "dur": 0.214, "note": 42, "inst": "harpsichord_v0_additive_2", "vel": 0.268, "bend": 0.0, "ch": 10}, {"t": 256.8, "dur": 0.045, "note": 54, "inst": "harpsichord_v0_additive_2", "vel": 0.315, "bend": 0.0, "ch": 6}, {"t": 256.938, "dur": 0.123, "note": 69, "inst": "organ_v0_additive_1", "vel": 0.354, "bend": 0.0, "ch": 5}, {"t": 257.046, "dur": 0.211, "note": 66, "inst": "harpsichord_v0_additive_2", "vel": 0.48, "bend": 0.0, "ch": 2}, {"t": 257.198, "dur": 0.238, "note": 71, "inst": "celesta_v0_additive_3", "vel": 0.457, "bend": 0.0, "ch": 7}, {"t": 257.236, "dur": 0.209, "note": 45, "inst": "organ_v0_additive_1", "vel": 0.315, "bend": 0.0, "ch": 13}, {"t": 257.253, "dur": 1.137, "note": 42, "inst": "harpsichord_v0_additive_2", "vel": 0.299, "bend": 0.0, "ch": 10}, {"t": 257.398, "dur": 0.06, "note": 59, "inst": "celesta_v0_additive_3", "vel": 0.323, "bend": 0.0, "ch": 11}, {"t": 257.478, "dur": 0.179, "note": 54, "inst": "harpsichord_v0_additive_2", "vel": 0.496, "bend": 0.0, "ch": 6}, {"t": 257.565, "dur": 0.174, "note": 71, "inst": "celesta_v0_additive_3", "vel": 0.583, "bend": 0.0, "ch": 7}, {"t": 257.685, "dur": 0.201, "note": 74, "inst": "harpsichord_v0_additive_2", "vel": 0.567, "bend": 0.0, "ch": 10}, {"t": 257.706, "dur": 0.185, "note": 45, "inst": "organ_v0_additive_1", "vel": 0.315, "bend": 0.0, "ch": 13}, {"t": 257.841, "dur": 0.036, "note": 62, "inst": "harpsichord_v0_additive_2", "vel": 0.37, "bend": 0.0, "ch": 14}, {"t": 257.935, "dur": 0.179, "note": 54, "inst": "harpsichord_v0_additive_2", "vel": 0.512, "bend": 0.0, "ch": 6}, {"t": 258.03, "dur": 0.205, "note": 74, "inst": "harpsichord_v0_additive_2", "vel": 0.606, "bend": 0.0, "ch": 10}, {"t": 258.166, "dur": 0.23, "note": 69, "inst": "organ_v0_additive_1", "vel": 0.583, "bend": 0.0, "ch": 5}, {"t": 258.173, "dur": 0.165, "note": 43, "inst": "celesta_v0_additive_3", "vel": 0.378, "bend": 0.0, "ch": 11}, {"t": 258.315, "dur": 0.126, "note": 57, "inst": "organ_v0_additive_1", "vel": 0.354, "bend": 0.0, "ch": 9}, {"t": 258.429, "dur": 0.162, "note": 54, "inst": "harpsichord_v0_additive_2", "vel": 0.449, "bend": 0.0, "ch": 6}, {"t": 258.514, "dur": 0.187, "note": 69, "inst": "organ_v0_additive_1", "vel": 0.52, "bend": 0.0, "ch": 5}, {"t": 258.664, "dur": 0.275, "note": 67, "inst": "celesta_v0_additive_3", "vel": 0.496, "bend": 0.0, "ch": 3}, {"t": 258.683, "dur": 0.2, "note": 42, "inst": "harpsichord_v0_additive_2", "vel": 0.291, "bend": 0.0, "ch": 10}, {"t": 258.684, "dur": 0.224, "note": 47, "inst": "celesta_v0_additive_3", "vel": 0.315, "bend": 0.0, "ch": 15}, {"t": 258.833, "dur": 0.102, "note": 57, "inst": "organ_v0_additive_1", "vel": 0.315, "bend": 0.0, "ch": 9}, {"t": 258.96, "dur": 0.152, "note": 54, "inst": "harpsichord_v0_additive_2", "vel": 0.425, "bend": 0.0, "ch": 6}, {"t": 259.058, "dur": 0.216, "note": 67, "inst": "celesta_v0_additive_3", "vel": 0.465, "bend": 0.0, "ch": 3}, {"t": 259.239, "dur": 0.288, "note": 71, "inst": "celesta_v0_additive_3", "vel": 0.465, "bend": 0.0, "ch": 7}, {"t": 259.252, "dur": 0.229, "note": 52, "inst": "piano_v0_additive_0", "vel": 0.299, "bend": 0.0, "ch": 4}, {"t": 259.254, "dur": 0.226, "note": 47, "inst": "celesta_v0_additive_3", "vel": 0.26, "bend": 0.0, "ch": 15}, {"t": 259.426, "dur": 0.073, "note": 57, "inst": "organ_v0_additive_1", "vel": 0.268, "bend": 0.0, "ch": 9}, {"t": 259.565, "dur": 0.201, "note": 64, "inst": "piano_v0_additive_0", "vel": 0.37, "bend": 0.0, "ch": 0}, {"t": 259.705, "dur": 0.656, "note": 71, "inst": "celesta_v0_additive_3", "vel": 0.402, "bend": 0.0, "ch": 7}, {"t": 260.049, "dur": 0.257, "note": 54, "inst": "harpsichord_v0_additive_2", "vel": 0.331, "bend": 0.0, "ch": 6}, {"t": 260.081, "dur": 0.367, "note": 57, "inst": "organ_v0_additive_1", "vel": 0.228, "bend": 0.0, "ch": 9}, {"t": 260.084, "dur": 0.304, "note": 47, "inst": "celesta_v0_additive_3", "vel": 0.228, "bend": 0.0, "ch": 15}, {"t": 260.09, "dur": 0.247, "note": 30, "inst": "harpsichord_v0_additive_2", "vel": 0.283, "bend": 0.0, "ch": 14}, {"t": 260.618, "dur": 0.361, "note": 76, "inst": "piano_v0_additive_0", "vel": 0.559, "bend": 0.0, "ch": 12}, {"t": 260.853, "dur": 0.117, "note": 79, "inst": "celesta_v0_additive_3", "vel": 0.543, "bend": 0.0, "ch": 15}, {"t": 260.894, "dur": 0.417, "note": 66, "inst": "harpsichord_v0_additive_2", "vel": 0.575, "bend": 0.0, "ch": 2}, {"t": 260.959, "dur": 0.949, "note": 64, "inst": "piano_v0_additive_0", "vel": 0.276, "bend": 0.0, "ch": 0}, {"t": 260.964, "dur": 0.208, "note": 57, "inst": "organ_v0_additive_1", "vel": 0.276, "bend": 0.0, "ch": 9}, {"t": 261.177, "dur": 0.041, "note": 69, "inst": "organ_v0_additive_1", "vel": 0.386, "bend": 0.0, "ch": 5}, {"t": 261.289, "dur": 0.16, "note": 71, "inst": "celesta_v0_additive_3", "vel": 0.504, "bend": 0.0, "ch": 7}, {"t": 261.393, "dur": 0.281, "note": 76, "inst": "piano_v0_additive_0", "vel": 0.606, "bend": 0.0, "ch": 12}, {"t": 261.591, "dur": 0.309, "note": 83, "inst": "celesta_v0_additive_3", "vel": 0.606, "bend": 0.0, "ch": 3}, {"t": 261.63, "dur": 0.306, "note": 55, "inst": "celesta_v0_additive_3", "vel": 0.283, "bend": 0.0, "ch": 7}, {"t": 261.821, "dur": 0.062, "note": 71, "inst": "celesta_v0_additive_3", "vel": 0.457, "bend": 0.0, "ch": 7}, {"t": 261.906, "dur": 0.123, "note": 74, "inst": "harpsichord_v0_additive_2", "vel": 0.528, "bend": 0.0, "ch": 10}, {"t": 261.989, "dur": 0.222, "note": 76, "inst": "piano_v0_additive_0", "vel": 0.677, "bend": 0.0, "ch": 12}, {"t": 262.13, "dur": 0.092, "note": 79, "inst": "celesta_v0_additive_3", "vel": 0.622, "bend": 0.0, "ch": 15}, {"t": 262.159, "dur": 0.584, "note": 66, "inst": "harpsichord_v0_additive_2", "vel": 0.614, "bend": 0.0, "ch": 2}, {"t": 262.175, "dur": 0.23, "note": 64, "inst": "piano_v0_additive_0", "vel": 0.339, "bend": 0.0, "ch": 0}, {"t": 262.182, "dur": 0.175, "note": 57, "inst": "organ_v0_additive_1", "vel": 0.37, "bend": 0.0, "ch": 9}, {"t": 262.314, "dur": 0.08, "note": 69, "inst": "organ_v0_additive_1", "vel": 0.441, "bend": 0.0, "ch": 5}, {"t": 262.409, "dur": 0.122, "note": 71, "inst": "celesta_v0_additive_3", "vel": 0.551, "bend": 0.0, "ch": 7}, {"t": 262.516, "dur": 0.245, "note": 76, "inst": "piano_v0_additive_0", "vel": 0.622, "bend": 0.0, "ch": 12}, {"t": 262.7, "dur": 0.298, "note": 81, "inst": "organ_v0_additive_1", "vel": 0.567, "bend": 0.0, "ch": 1}, {"t": 262.734, "dur": 0.264, "note": 55, "inst": "celesta_v0_additive_3", "vel": 0.307, "bend": 0.0, "ch": 7}, {"t": 262.74, "dur": 0.246, "note": 59, "inst": "celesta_v0_additive_3", "vel": 0.276, "bend": 0.0, "ch": 11}, {"t": 262.912, "dur": 0.088, "note": 64, "inst": "piano_v0_additive_0", "vel": 0.362, "bend": 0.0, "ch": 0}, {"t": 263.025, "dur": 0.195, "note": 69, "inst": "organ_v0_additive_1", "vel": 0.417, "bend": 0.0, "ch": 5}, {"t": 263.143, "dur": 0.313, "note": 71, "inst": "celesta_v0_additive_3", "vel": 0.449, "bend": 0.0, "ch": 7}, {"t": 263.318, "dur": 0.1, "note": 76, "inst": "piano_v0_additive_0", "vel": 0.409, "bend": 0.0, "ch": 12}, {"t": 263.373, "dur": 0.489, "note": 74, "inst": "harpsichord_v0_additive_2", "vel": 0.402, "bend": 0.0, "ch": 10}, {"t": 263.415, "dur": 0.269, "note": 54, "inst": "harpsichord_v0_additive_2", "vel": 0.26, "bend": 0.0, "ch": 6}, {"t": 263.42, "dur": 0.809, "note": 59, "inst": "celesta_v0_additive_3", "vel": 0.236, "bend": 0.0, "ch": 11}, {"t": 263.57, "dur": 0.072, "note": 62, "inst": "harpsichord_v0_additive_2", "vel": 0.315, "bend": 0.0, "ch": 14}, {"t": 263.684, "dur": 0.199, "note": 69, "inst": "organ_v0_additive_1", "vel": 0.37, "bend": 0.0, "ch": 5}, {"t": 263.777, "dur": 0.198, "note": 71, "inst": "celesta_v0_additive_3", "vel": 0.433, "bend": 0.0, "ch": 7}, {"t": 263.919, "dur": 0.252, "note": 76, "inst": "piano_v0_additive_0", "vel": 0.386, "bend": 0.0, "ch": 12}, {"t": 263.953, "dur": 0.257, "note": 55, "inst": "celesta_v0_additive_3", "vel": 0.26, "bend": 0.0, "ch": 7}, {"t": 264.11, "dur": 0.132, "note": 54, "inst": "harpsichord_v0_additive_2", "vel": 0.26, "bend": 0.0, "ch": 6}, {"t": 264.229, "dur": 0.129, "note": 67, "inst": "celesta_v0_additive_3", "vel": 0.409, "bend": 0.0, "ch": 3}, {"t": 264.305, "dur": 0.197, "note": 76, "inst": "piano_v0_additive_0", "vel": 0.433, "bend": 0.0, "ch": 12}, {"t": 264.441, "dur": 0.256, "note": 74, "inst": "harpsichord_v0_additive_2", "vel": 0.417, "bend": 0.0, "ch": 10}, {"t": 264.456, "dur": 0.198, "note": 59, "inst": "celesta_v0_additive_3", "vel": 0.315, "bend": 0.0, "ch": 11}, {"t": 264.461, "dur": 0.163, "note": 55, "inst": "celesta_v0_additive_3", "vel": 0.244, "bend": 0.0, "ch": 7}, {"t": 264.613, "dur": 0.172, "note": 54, "inst": "harpsichord_v0_additive_2", "vel": 0.291, "bend": 0.0, "ch": 6}, {"t": 264.738, "dur": 0.115, "note": 67, "inst": "celesta_v0_additive_3", "vel": 0.402, "bend": 0.0, "ch": 3}, {"t": 264.846, "dur": 0.294, "note": 74, "inst": "harpsichord_v0_additive_2", "vel": 0.378, "bend": 0.0, "ch": 10}, {"t": 265.047, "dur": 0.251, "note": 71, "inst": "celesta_v0_additive_3", "vel": 0.378, "bend": 0.0, "ch": 7}, {"t": 265.074, "dur": 0.159, "note": 47, "inst": "celesta_v0_additive_3", "vel": 0.291, "bend": 0.0, "ch": 15}, {"t": 265.088, "dur": 0.208, "note": 55, "inst": "celesta_v0_additive_3", "vel": 0.236, "bend": 0.0, "ch": 7}, {"t": 265.269, "dur": 0.143, "note": 64, "inst": "piano_v0_additive_0", "vel": 0.244, "bend": 0.0, "ch": 0}, {"t": 265.357, "dur": 0.065, "note": 67, "inst": "celesta_v0_additive_3", "vel": 0.425, "bend": 0.0, "ch": 3}, {"t": 265.457, "dur": 0.358, "note": 76, "inst": "piano_v0_additive_0", "vel": 0.528, "bend": 0.0, "ch": 12}, {"t": 265.672, "dur": 0.12, "note": 79, "inst": "celesta_v0_additive_3", "vel": 0.465, "bend": 0.0, "ch": 15}, {"t": 265.718, "dur": 0.456, "note": 66, "inst": "harpsichord_v0_additive_2", "vel": 0.465, "bend": 0.0, "ch": 2}, {"t": 265.771, "dur": 1.025, "note": 64, "inst": "piano_v0_additive_0", "vel": 0.252, "bend": 0.0, "ch": 0}, {"t": 265.772, "dur": 0.243, "note": 57, "inst": "organ_v0_additive_1", "vel": 0.244, "bend": 0.0, "ch": 9}, {"t": 265.952, "dur": 0.057, "note": 69, "inst": "organ_v0_additive_1", "vel": 0.339, "bend": 0.0, "ch": 5}, {"t": 266.087, "dur": 0.158, "note": 71, "inst": "celesta_v0_additive_3", "vel": 0.354, "bend": 0.0, "ch": 7}, {"t": 266.198, "dur": 0.293, "note": 76, "inst": "piano_v0_additive_0", "vel": 0.449, "bend": 0.0, "ch": 12}, {"t": 266.423, "dur": 0.343, "note": 83, "inst": "celesta_v0_additive_3", "vel": 0.48, "bend": 0.0, "ch": 3}, {"t": 266.45, "dur": 0.405, "note": 55, "inst": "celesta_v0_additive_3", "vel": 0.307, "bend": 0.0, "ch": 7}, {"t": 266.7, "dur": 0.058, "note": 71, "inst": "celesta_v0_additive_3", "vel": 0.346, "bend": 0.0, "ch": 7}, {"t": 266.793, "dur": 0.104, "note": 74, "inst": "harpsichord_v0_additive_2", "vel": 0.457, "bend": 0.0, "ch": 10}, {"t": 266.874, "dur": 0.25, "note": 76, "inst": "piano_v0_additive_0", "vel": 0.567, "bend": 0.0, "ch": 12}, {"t": 267.02, "dur": 0.096, "note": 79, "inst": "celesta_v0_additive_3", "vel": 0.543, "bend": 0.0, "ch": 15}, {"t": 267.055, "dur": 0.523, "note": 66, "inst": "harpsichord_v0_additive_2", "vel": 0.551, "bend": 0.0, "ch": 2}, {"t": 267.085, "dur": 0.135, "note": 57, "inst": "organ_v0_additive_1", "vel": 0.307, "bend": 0.0, "ch": 9}, {"t": 267.086, "dur": 0.226, "note": 64, "inst": "piano_v0_additive_0", "vel": 0.307, "bend": 0.0, "ch": 0}, {"t": 267.206, "dur": 0.067, "note": 69, "inst": "organ_v0_additive_1", "vel": 0.409, "bend": 0.0, "ch": 5}, {"t": 267.309, "dur": 0.141, "note": 71, "inst": "celesta_v0_additive_3", "vel": 0.504, "bend": 0.0, "ch": 7}, {"t": 267.409, "dur": 0.199, "note": 76, "inst": "piano_v0_additive_0", "vel": 0.622, "bend": 0.0, "ch": 12}, {"t": 267.542, "dur": 0.233, "note": 81, "inst": "organ_v0_additive_1", "vel": 0.598, "bend": 0.0, "ch": 1}, {"t": 267.571, "dur": 0.166, "note": 55, "inst": "celesta_v0_additive_3", "vel": 0.315, "bend": 0.0, "ch": 7}, {"t": 267.571, "dur": 0.163, "note": 59, "inst": "celesta_v0_additive_3", "vel": 0.331, "bend": 0.0, "ch": 11}, {"t": 267.7, "dur": 0.046, "note": 64, "inst": "piano_v0_additive_0", "vel": 0.441, "bend": 0.0, "ch": 0}, {"t": 267.787, "dur": 0.148, "note": 69, "inst": "organ_v0_additive_1", "vel": 0.512, "bend": 0.0, "ch": 5}, {"t": 267.862, "dur": 0.253, "note": 71, "inst": "celesta_v0_additive_3", "vel": 0.591, "bend": 0.0, "ch": 7}, {"t": 267.986, "dur": 0.102, "note": 76, "inst": "piano_v0_additive_0", "vel": 0.528, "bend": 0.0, "ch": 12}, {"t": 268.022, "dur": 0.394, "note": 74, "inst": "harpsichord_v0_additive_2", "vel": 0.535, "bend": 0.0, "ch": 10}, {"t": 268.081, "dur": 0.205, "note": 54, "inst": "harpsichord_v0_additive_2", "vel": 0.283, "bend": 0.0, "ch": 6}, {"t": 268.088, "dur": 0.821, "note": 59, "inst": "celesta_v0_additive_3", "vel": 0.299, "bend": 0.0, "ch": 11}, {"t": 268.216, "dur": 0.052, "note": 62, "inst": "harpsichord_v0_additive_2", "vel": 0.394, "bend": 0.0, "ch": 14}, {"t": 268.302, "dur": 0.201, "note": 69, "inst": "organ_v0_additive_1", "vel": 0.48, "bend": 0.0, "ch": 5}, {"t": 268.397, "dur": 0.276, "note": 71, "inst": "celesta_v0_additive_3", "vel": 0.591, "bend": 0.0, "ch": 7}, {"t": 268.567, "dur": 0.296, "note": 76, "inst": "piano_v0_additive_0", "vel": 0.535, "bend": 0.0, "ch": 12}, {"t": 268.616, "dur": 0.245, "note": 55, "inst": "celesta_v0_additive_3", "vel": 0.291, "bend": 0.0, "ch": 7}, {"t": 268.797, "dur": 0.126, "note": 54, "inst": "harpsichord_v0_additive_2", "vel": 0.299, "bend": 0.0, "ch": 6}, {"t": 268.909, "dur": 0.139, "note": 67, "inst": "celesta_v0_additive_3", "vel": 0.472, "bend": 0.0, "ch": 3}, {"t": 268.986, "dur": 0.209, "note": 76, "inst": "piano_v0_additive_0", "vel": 0.496, "bend": 0.0, "ch": 12}, {"t": 269.117, "dur": 0.288, "note": 74, "inst": "harpsichord_v0_additive_2", "vel": 0.457, "bend": 0.0, "ch": 10}, {"t": 269.154, "dur": 0.184, "note": 59, "inst": "celesta_v0_additive_3", "vel": 0.291, "bend": 0.0, "ch": 11}, {"t": 269.165, "dur": 0.143, "note": 55, "inst": "celesta_v0_additive_3", "vel": 0.244, "bend": 0.0, "ch": 7}, {"t": 269.313, "dur": 0.166, "note": 54, "inst": "harpsichord_v0_additive_2", "vel": 0.307, "bend": 0.0, "ch": 6}, {"t": 269.451, "dur": 0.128, "note": 67, "inst": "celesta_v0_additive_3", "vel": 0.402, "bend": 0.0, "ch": 3}, {"t": 269.563, "dur": 0.289, "note": 74, "inst": "harpsichord_v0_additive_2", "vel": 0.378, "bend": 0.0, "ch": 10}, {"t": 269.771, "dur": 0.373, "note": 71, "inst": "celesta_v0_additive_3", "vel": 0.394, "bend": 0.0, "ch": 7}, {"t": 269.836, "dur": 0.207, "note": 47, "inst": "celesta_v0_additive_3", "vel": 0.181, "bend": 0.0, "ch": 15}, {"t": 269.842, "dur": 0.251, "note": 55, "inst": "celesta_v0_additive_3", "vel": 0.236, "bend": 0.0, "ch": 7}, {"t": 270.049, "dur": 0.189, "note": 64, "inst": "piano_v0_additive_0", "vel": 0.252, "bend": 0.0, "ch": 0}, {"t": 270.186, "dur": 0.124, "note": 67, "inst": "celesta_v0_additive_3", "vel": 0.362, "bend": 0.0, "ch": 3}, {"t": 270.285, "dur": 0.331, "note": 71, "inst": "celesta_v0_additive_3", "vel": 0.409, "bend": 0.0, "ch": 7}, {"t": 270.48, "dur": 0.135, "note": 76, "inst": "piano_v0_additive_0", "vel": 0.37, "bend": 0.0, "ch": 12}, {"t": 270.551, "dur": 0.698, "note": 74, "inst": "harpsichord_v0_additive_2", "vel": 0.37, "bend": 0.0, "ch": 10}, {"t": 270.564, "dur": 0.942, "note": 59, "inst": "celesta_v0_additive_3", "vel": 0.213, "bend": 0.0, "ch": 11}, {"t": 270.59, "dur": 0.274, "note": 55, "inst": "celesta_v0_additive_3", "vel": 0.189, "bend": 0.0, "ch": 7}, {"t": 270.774, "dur": 0.075, "note": 64, "inst": "piano_v0_additive_0", "vel": 0.236, "bend": 0.0, "ch": 0}, {"t": 270.897, "dur": 0.153, "note": 69, "inst": "organ_v0_additive_1", "vel": 0.331, "bend": 0.0, "ch": 5}, {"t": 271.0, "dur": 0.255, "note": 71, "inst": "celesta_v0_additive_3", "vel": 0.433, "bend": 0.0, "ch": 7}, {"t": 271.202, "dur": 0.316, "note": 66, "inst": "harpsichord_v0_additive_2", "vel": 0.425, "bend": 0.0, "ch": 2}, {"t": 271.23, "dur": 0.261, "note": 42, "inst": "harpsichord_v0_additive_2", "vel": 0.268, "bend": 0.0, "ch": 10}, {"t": 271.405, "dur": 0.059, "note": 54, "inst": "harpsichord_v0_additive_2", "vel": 0.315, "bend": 0.0, "ch": 6}, {"t": 271.507, "dur": 0.161, "note": 69, "inst": "organ_v0_additive_1", "vel": 0.417, "bend": 0.0, "ch": 5}, {"t": 271.589, "dur": 0.248, "note": 71, "inst": "celesta_v0_additive_3", "vel": 0.543, "bend": 0.0, "ch": 7}, {"t": 271.736, "dur": 0.088, "note": 76, "inst": "piano_v0_additive_0", "vel": 0.457, "bend": 0.0, "ch": 12}, {"t": 271.772, "dur": 0.545, "note": 74, "inst": "harpsichord_v0_additive_2", "vel": 0.496, "bend": 0.0, "ch": 10}, {"t": 271.803, "dur": 0.57, "note": 59, "inst": "celesta_v0_additive_3", "vel": 0.268, "bend": 0.0, "ch": 11}, {"t": 271.806, "dur": 0.151, "note": 55, "inst": "celesta_v0_additive_3", "vel": 0.268, "bend": 0.0, "ch": 7}, {"t": 271.935, "dur": 0.073, "note": 64, "inst": "piano_v0_additive_0", "vel": 0.37, "bend": 0.0, "ch": 0}, {"t": 272.041, "dur": 0.147, "note": 69, "inst": "organ_v0_additive_1", "vel": 0.504, "bend": 0.0, "ch": 5}, {"t": 272.129, "dur": 0.227, "note": 71, "inst": "celesta_v0_additive_3", "vel": 0.583, "bend": 0.0, "ch": 7}, {"t": 272.255, "dur": 0.198, "note": 66, "inst": "harpsichord_v0_additive_2", "vel": 0.591, "bend": 0.0, "ch": 2}, {"t": 272.265, "dur": 0.12, "note": 42, "inst": "harpsichord_v0_additive_2", "vel": 0.37, "bend": 0.0, "ch": 10}, {"t": 272.402, "dur": 0.039, "note": 54, "inst": "harpsichord_v0_additive_2", "vel": 0.409, "bend": 0.0, "ch": 6}, {"t": 272.502, "dur": 0.203, "note": 69, "inst": "organ_v0_additive_1", "vel": 0.465, "bend": 0.0, "ch": 5}, {"t": 272.581, "dur": 0.198, "note": 66, "inst": "harpsichord_v0_additive_2", "vel": 0.598, "bend": 0.0, "ch": 2}, {"t": 272.705, "dur": 0.224, "note": 78, "inst": "harpsichord_v0_additive_2", "vel": 0.567, "bend": 0.0, "ch": 14}, {"t": 272.754, "dur": 0.099, "note": 59, "inst": "celesta_v0_additive_3", "vel": 0.299, "bend": 0.0, "ch": 11}, {"t": 272.759, "dur": 0.656, "note": 62, "inst": "harpsichord_v0_additive_2", "vel": 0.236, "bend": 0.0, "ch": 14}, {"t": 272.876, "dur": 0.093, "note": 66, "inst": "harpsichord_v0_additive_2", "vel": 0.362, "bend": 0.0, "ch": 2}, {"t": 272.962, "dur": 0.196, "note": 69, "inst": "organ_v0_additive_1", "vel": 0.496, "bend": 0.0, "ch": 5}, {"t": 273.044, "dur": 0.165, "note": 78, "inst": "harpsichord_v0_additive_2", "vel": 0.583, "bend": 0.0, "ch": 14}, {"t": 273.172, "dur": 0.191, "note": 79, "inst": "celesta_v0_additive_3", "vel": 0.638, "bend": 0.0, "ch": 15}, {"t": 273.184, "dur": 0.144, "note": 57, "inst": "organ_v0_additive_1", "vel": 0.378, "bend": 0.0, "ch": 9}, {"t": 273.313, "dur": 0.079, "note": 67, "inst": "celesta_v0_additive_3", "vel": 0.449, "bend": 0.0, "ch": 3}, {"t": 273.405, "dur": 0.185, "note": 69, "inst": "organ_v0_additive_1", "vel": 0.496, "bend": 0.0, "ch": 5}, {"t": 273.497, "dur": 0.184, "note": 79, "inst": "celesta_v0_additive_3", "vel": 0.583, "bend": 0.0, "ch": 15}, {"t": 273.644, "dur": 0.222, "note": 81, "inst": "organ_v0_additive_1", "vel": 0.591, "bend": 0.0, "ch": 1}, {"t": 273.67, "dur": 0.109, "note": 57, "inst": "organ_v0_additive_1", "vel": 0.315, "bend": 0.0, "ch": 9}, {"t": 273.678, "dur": 0.846, "note": 62, "inst": "harpsichord_v0_additive_2", "vel": 0.283, "bend": 0.0, "ch": 14}, {"t": 273.81, "dur": 0.059, "note": 66, "inst": "harpsichord_v0_additive_2", "vel": 0.378, "bend": 0.0, "ch": 2}, {"t": 273.919, "dur": 0.143, "note": 71, "inst": "celesta_v0_additive_3", "vel": 0.465, "bend": 0.0, "ch": 7}, {"t": 274.014, "dur": 0.223, "note": 81, "inst": "organ_v0_additive_1", "vel": 0.575, "bend": 0.0, "ch": 1}, {"t": 274.205, "dur": 0.273, "note": 81, "inst": "organ_v0_additive_1", "vel": 0.583, "bend": 0.0, "ch": 1}, {"t": 274.235, "dur": 0.261, "note": 55, "inst": "celesta_v0_additive_3", "vel": 0.299, "bend": 0.0, "ch": 7}, {"t": 274.419, "dur": 0.187, "note": 67, "inst": "celesta_v0_additive_3", "vel": 0.37, "bend": 0.0, "ch": 3}, {"t": 274.523, "dur": 0.17, "note": 69, "inst": "organ_v0_additive_1", "vel": 0.441, "bend": 0.0, "ch": 5}, {"t": 274.61, "dur": 0.354, "note": 74, "inst": "harpsichord_v0_additive_2", "vel": 0.567, "bend": 0.0, "ch": 10}, {"t": 274.806, "dur": 0.127, "note": 66, "inst": "harpsichord_v0_additive_2", "vel": 0.512, "bend": 0.0, "ch": 2}, {"t": 274.849, "dur": 0.523, "note": 74, "inst": "harpsichord_v0_additive_2", "vel": 0.535, "bend": 0.0, "ch": 10}, {"t": 274.899, "dur": 0.251, "note": 59, "inst": "celesta_v0_additive_3", "vel": 0.291, "bend": 0.0, "ch": 11}, {"t": 274.92, "dur": 0.814, "note": 62, "inst": "harpsichord_v0_additive_2", "vel": 0.22, "bend": 0.0, "ch": 14}, {"t": 275.099, "dur": 0.171, "note": 66, "inst": "harpsichord_v0_additive_2", "vel": 0.323, "bend": 0.0, "ch": 2}, {"t": 275.2, "dur": 0.189, "note": 69, "inst": "organ_v0_additive_1", "vel": 0.409, "bend": 0.0, "ch": 5}, {"t": 275.29, "dur": 0.24, "note": 74, "inst": "harpsichord_v0_additive_2", "vel": 0.535, "bend": 0.0, "ch": 10}, {"t": 275.458, "dur": 0.275, "note": 79, "inst": "celesta_v0_additive_3", "vel": 0.575, "bend": 0.0, "ch": 15}, {"t": 275.493, "dur": 0.224, "note": 57, "inst": "organ_v0_additive_1", "vel": 0.268, "bend": 0.0, "ch": 9}, {"t": 275.642, "dur": 0.09, "note": 67, "inst": "celesta_v0_additive_3", "vel": 0.37, "bend": 0.0, "ch": 3}, {"t": 275.71, "dur": 0.129, "note": 69, "inst": "organ_v0_additive_1", "vel": 0.496, "bend": 0.0, "ch": 5}, {"t": 275.78, "dur": 0.234, "note": 74, "inst": "harpsichord_v0_additive_2", "vel": 0.575, "bend": 0.0, "ch": 10}, {"t": 275.903, "dur": 0.093, "note": 66, "inst": "harpsichord_v0_additive_2", "vel": 0.551, "bend": 0.0, "ch": 2}, {"t": 275.94, "dur": 0.49, "note": 74, "inst": "harpsichord_v0_additive_2", "vel": 0.583, "bend": 0.0, "ch": 10}, {"t": 275.97, "dur": 0.632, "note": 62, "inst": "harpsichord_v0_additive_2", "vel": 0.307, "bend": 0.0, "ch": 14}, {"t": 275.973, "dur": 0.141, "note": 59, "inst": "celesta_v0_additive_3", "vel": 0.323, "bend": 0.0, "ch": 11}, {"t": 276.104, "dur": 0.149, "note": 66, "inst": "harpsichord_v0_additive_2", "vel": 0.386, "bend": 0.0, "ch": 2}, {"t": 276.183, "dur": 0.148, "note": 69, "inst": "organ_v0_additive_1", "vel": 0.52, "bend": 0.0, "ch": 5}, {"t": 276.268, "dur": 0.201, "note": 74, "inst": "harpsichord_v0_additive_2", "vel": 0.606, "bend": 0.0, "ch": 10}, {"t": 276.388, "dur": 0.205, "note": 79, "inst": "celesta_v0_additive_3", "vel": 0.63, "bend": 0.0, "ch": 15}, {"t": 276.406, "dur": 0.145, "note": 57, "inst": "organ_v0_additive_1", "vel": 0.402, "bend": 0.0, "ch": 9}, {"t": 276.532, "dur": 0.104, "note": 67, "inst": "celesta_v0_additive_3", "vel": 0.496, "bend": 0.0, "ch": 3}, {"t": 276.615, "dur": 0.178, "note": 69, "inst": "organ_v0_additive_1", "vel": 0.528, "bend": 0.0, "ch": 5}, {"t": 276.706, "dur": 0.18, "note": 79, "inst": "celesta_v0_additive_3", "vel": 0.654, "bend": 0.0, "ch": 15}, {"t": 276.84, "dur": 0.221, "note": 81, "inst": "organ_v0_additive_1", "vel": 0.622, "bend": 0.0, "ch": 1}, {"t": 276.865, "dur": 0.641, "note": 62, "inst": "harpsichord_v0_additive_2", "vel": 0.26, "bend": 0.0, "ch": 14}, {"t": 276.866, "dur": 0.101, "note": 57, "inst": "organ_v0_additive_1", "vel": 0.346, "bend": 0.0, "ch": 9}, {"t": 276.996, "dur": 0.069, "note": 66, "inst": "harpsichord_v0_additive_2", "vel": 0.433, "bend": 0.0, "ch": 2}, {"t": 277.089, "dur": 0.138, "note": 71, "inst": "celesta_v0_additive_3", "vel": 0.535, "bend": 0.0, "ch": 7}, {"t": 277.164, "dur": 0.164, "note": 81, "inst": "organ_v0_additive_1", "vel": 0.654, "bend": 0.0, "ch": 1}, {"t": 277.298, "dur": 0.244, "note": 81, "inst": "organ_v0_additive_1", "vel": 0.614, "bend": 0.0, "ch": 1}, {"t": 277.318, "dur": 0.189, "note": 55, "inst": "celesta_v0_additive_3", "vel": 0.37, "bend": 0.0, "ch": 7}, {"t": 277.478, "dur": 0.137, "note": 67, "inst": "celesta_v0_additive_3", "vel": 0.362, "bend": 0.0, "ch": 3}, {"t": 277.572, "dur": 0.095, "note": 69, "inst": "organ_v0_additive_1", "vel": 0.496, "bend": 0.0, "ch": 5}, {"t": 277.654, "dur": 0.182, "note": 81, "inst": "organ_v0_additive_1", "vel": 0.591, "bend": 0.0, "ch": 1}, {"t": 277.799, "dur": 0.271, "note": 83, "inst": "celesta_v0_additive_3", "vel": 0.63, "bend": 0.0, "ch": 3}, {"t": 277.827, "dur": 0.177, "note": 42, "inst": "harpsichord_v0_additive_2", "vel": 0.315, "bend": 0.0, "ch": 10}, {"t": 277.833, "dur": 0.191, "note": 62, "inst": "harpsichord_v0_additive_2", "vel": 0.299, "bend": 0.0, "ch": 14}, {"t": 277.982, "dur": 0.161, "note": 67, "inst": "celesta_v0_additive_3", "vel": 0.409, "bend": 0.0, "ch": 3}, {"t": 278.092, "dur": 0.167, "note": 71, "inst": "celesta_v0_additive_3", "vel": 0.52, "bend": 0.0, "ch": 7}, {"t": 278.189, "dur": 0.207, "note": 83, "inst": "celesta_v0_additive_3", "vel": 0.606, "bend": 0.0, "ch": 3}, {"t": 278.361, "dur": 0.215, "note": 83, "inst": "celesta_v0_additive_3", "vel": 0.606, "bend": 0.0, "ch": 3}, {"t": 278.398, "dur": 0.238, "note": 52, "inst": "piano_v0_additive_0", "vel": 0.315, "bend": 0.0, "ch": 4}, {"t": 278.428, "dur": 0.291, "note": 59, "inst": "celesta_v0_additive_3", "vel": 0.26, "bend": 0.0, "ch": 11}, {"t": 278.547, "dur": 0.114, "note": 67, "inst": "celesta_v0_additive_3", "vel": 0.394, "bend": 0.0, "ch": 3}, {"t": 278.641, "dur": 0.116, "note": 69, "inst": "organ_v0_additive_1", "vel": 0.48, "bend": 0.0, "ch": 5}, {"t": 278.736, "dur": 0.281, "note": 71, "inst": "celesta_v0_additive_3", "vel": 0.598, "bend": 0.0, "ch": 7}, {"t": 278.898, "dur": 0.1, "note": 76, "inst": "piano_v0_additive_0", "vel": 0.535, "bend": 0.0, "ch": 12}, {"t": 278.939, "dur": 0.487, "note": 74, "inst": "harpsichord_v0_additive_2", "vel": 0.543, "bend": 0.0, "ch": 10}, {"t": 278.957, "dur": 0.212, "note": 55, "inst": "celesta_v0_additive_3", "vel": 0.299, "bend": 0.0, "ch": 7}, {"t": 278.973, "dur": 0.637, "note": 59, "inst": "celesta_v0_additive_3", "vel": 0.26, "bend": 0.0, "ch": 11}, {"t": 279.109, "dur": 0.081, "note": 64, "inst": "piano_v0_additive_0", "vel": 0.425, "bend": 0.0, "ch": 0}, {"t": 279.202, "dur": 0.125, "note": 69, "inst": "organ_v0_additive_1", "vel": 0.504, "bend": 0.0, "ch": 5}, {"t": 279.293, "dur": 0.211, "note": 71, "inst": "celesta_v0_additive_3", "vel": 0.583, "bend": 0.0, "ch": 7}, {"t": 279.441, "dur": 0.221, "note": 66, "inst": "harpsichord_v0_additive_2", "vel": 0.567, "bend": 0.0, "ch": 2}, {"t": 279.447, "dur": 0.164, "note": 42, "inst": "harpsichord_v0_additive_2", "vel": 0.346, "bend": 0.0, "ch": 10}, {"t": 279.562, "dur": 0.047, "note": 54, "inst": "harpsichord_v0_additive_2", "vel": 0.37, "bend": 0.0, "ch": 6}, {"t": 279.688, "dur": 0.131, "note": 69, "inst": "organ_v0_additive_1", "vel": 0.449, "bend": 0.0, "ch": 5}, {"t": 279.794, "dur": 0.229, "note": 66, "inst": "harpsichord_v0_additive_2", "vel": 0.48, "bend": 0.0, "ch": 2}, {"t": 279.956, "dur": 0.288, "note": 71, "inst": "celesta_v0_additive_3", "vel": 0.512, "bend": 0.0, "ch": 7}, {"t": 280.009, "dur": 0.298, "note": 45, "inst": "organ_v0_additive_1", "vel": 0.394, "bend": 0.0, "ch": 13}, {"t": 280.052, "dur": 1.259, "note": 42, "inst": "harpsichord_v0_additive_2", "vel": 0.354, "bend": 0.0, "ch": 10}, {"t": 280.21, "dur": 0.093, "note": 59, "inst": "celesta_v0_additive_3", "vel": 0.386, "bend": 0.0, "ch": 11}, {"t": 280.318, "dur": 0.174, "note": 54, "inst": "harpsichord_v0_additive_2", "vel": 0.457, "bend": 0.0, "ch": 6}, {"t": 280.4, "dur": 0.216, "note": 71, "inst": "celesta_v0_additive_3", "vel": 0.496, "bend": 0.0, "ch": 7}, {"t": 280.547, "dur": 0.256, "note": 74, "inst": "harpsichord_v0_additive_2", "vel": 0.512, "bend": 0.0, "ch": 10}, {"t": 280.594, "dur": 0.219, "note": 45, "inst": "organ_v0_additive_1", "vel": 0.488, "bend": 0.0, "ch": 13}, {"t": 280.751, "dur": 0.068, "note": 62, "inst": "harpsichord_v0_additive_2", "vel": 0.394, "bend": 0.0, "ch": 14}, {"t": 280.86, "dur": 0.154, "note": 54, "inst": "harpsichord_v0_additive_2", "vel": 0.441, "bend": 0.0, "ch": 6}, {"t": 280.939, "dur": 0.179, "note": 74, "inst": "harpsichord_v0_additive_2", "vel": 0.512, "bend": 0.0, "ch": 10}, {"t": 281.058, "dur": 0.187, "note": 69, "inst": "organ_v0_additive_1", "vel": 0.528, "bend": 0.0, "ch": 5}, {"t": 281.068, "dur": 0.165, "note": 43, "inst": "celesta_v0_additive_3", "vel": 0.488, "bend": 0.0, "ch": 11}, {"t": 281.215, "dur": 0.125, "note": 57, "inst": "organ_v0_additive_1", "vel": 0.37, "bend": 0.0, "ch": 9}, {"t": 281.31, "dur": 0.172, "note": 54, "inst": "harpsichord_v0_additive_2", "vel": 0.488, "bend": 0.0, "ch": 6}, {"t": 281.397, "dur": 0.205, "note": 69, "inst": "organ_v0_additive_1", "vel": 0.528, "bend": 0.0, "ch": 5}, {"t": 281.528, "dur": 0.222, "note": 67, "inst": "celesta_v0_additive_3", "vel": 0.543, "bend": 0.0, "ch": 3}, {"t": 281.555, "dur": 0.193, "note": 42, "inst": "harpsichord_v0_additive_2", "vel": 0.346, "bend": 0.0, "ch": 10}, {"t": 281.561, "dur": 0.214, "note": 47, "inst": "celesta_v0_additive_3", "vel": 0.362, "bend": 0.0, "ch": 15}, {"t": 281.692, "dur": 0.117, "note": 57, "inst": "organ_v0_additive_1", "vel": 0.378, "bend": 0.0, "ch": 9}, {"t": 281.806, "dur": 0.153, "note": 54, "inst": "harpsichord_v0_additive_2", "vel": 0.449, "bend": 0.0, "ch": 6}, {"t": 281.898, "dur": 0.231, "note": 67, "inst": "celesta_v0_additive_3", "vel": 0.551, "bend": 0.0, "ch": 3}, {"t": 282.054, "dur": 0.29, "note": 71, "inst": "celesta_v0_additive_3", "vel": 0.52, "bend": 0.0, "ch": 7}, {"t": 282.08, "dur": 0.186, "note": 52, "inst": "piano_v0_additive_0", "vel": 0.323, "bend": 0.0, "ch": 4}, {"t": 282.088, "dur": 0.174, "note": 47, "inst": "celesta_v0_additive_3", "vel": 0.323, "bend": 0.0, "ch": 15}, {"t": 282.242, "dur": 0.157, "note": 57, "inst": "organ_v0_additive_1", "vel": 0.362, "bend": 0.0, "ch": 9}, {"t": 282.381, "dur": 0.114, "note": 64, "inst": "piano_v0_additive_0", "vel": 0.402, "bend": 0.0, "ch": 0}, {"t": 282.468, "dur": 0.245, "note": 71, "inst": "celesta_v0_additive_3", "vel": 0.465, "bend": 0.0, "ch": 7}, {"t": 282.651, "dur": 0.239, "note": 69, "inst": "organ_v0_additive_1", "vel": 0.449, "bend": 0.0, "ch": 5}, {"t": 282.703, "dur": 0.185, "note": 30, "inst": "harpsichord_v0_additive_2", "vel": 0.354, "bend": 0.0, "ch": 14}, {"t": 282.731, "dur": 0.186, "note": 47, "inst": "celesta_v0_additive_3", "vel": 0.283, "bend": 0.0, "ch": 15}, {"t": 282.906, "dur": 0.104, "note": 57, "inst": "organ_v0_additive_1", "vel": 0.307, "bend": 0.0, "ch": 9}, {"t": 283.01, "dur": 0.105, "note": 54, "inst": "harpsichord_v0_additive_2", "vel": 0.362, "bend": 0.0, "ch": 6}, {"t": 283.092, "dur": 0.348, "note": 71, "inst": "celesta_v0_additive_3", "vel": 0.543, "bend": 0.0, "ch": 7}, {"t": 283.293, "dur": 0.124, "note": 76, "inst": "piano_v0_additive_0", "vel": 0.52, "bend": 0.0, "ch": 12}, {"t": 283.333, "dur": 0.593, "note": 74, "inst": "harpsichord_v0_additive_2", "vel": 0.543, "bend": 0.0, "ch": 10}, {"t": 283.425, "dur": 0.179, "note": 55, "inst": "celesta_v0_additive_3", "vel": 0.244, "bend": 0.0, "ch": 7}, {"t": 283.432, "dur": 0.63, "note": 59, "inst": "celesta_v0_additive_3", "vel": 0.244, "bend": 0.0, "ch": 11}, {"t": 283.575, "dur": 0.07, "note": 64, "inst": "piano_v0_additive_0", "vel": 0.354, "bend": 0.0, "ch": 0}, {"t": 283.653, "dur": 0.145, "note": 69, "inst": "organ_v0_additive_1", "vel": 0.472, "bend": 0.0, "ch": 5}, {"t": 283.743, "dur": 0.238, "note": 71, "inst": "celesta_v0_additive_3", "vel": 0.63, "bend": 0.0, "ch": 7}, {"t": 283.886, "dur": 0.239, "note": 66, "inst": "harpsichord_v0_additive_2", "vel": 0.638, "bend": 0.0, "ch": 2}, {"t": 283.917, "dur": 0.131, "note": 42, "inst": "harpsichord_v0_additive_2", "vel": 0.283, "bend": 0.0, "ch": 10}, {"t": 284.051, "dur": 0.03, "note": 54, "inst": "harpsichord_v0_additive_2", "vel": 0.394, "bend": 0.0, "ch": 6}, {"t": 284.143, "dur": 0.135, "note": 69, "inst": "organ_v0_additive_1", "vel": 0.551, "bend": 0.0, "ch": 5}, {"t": 284.234, "dur": 0.203, "note": 66, "inst": "harpsichord_v0_additive_2", "vel": 0.654, "bend": 0.0, "ch": 2}, {"t": 284.372, "dur": 0.285, "note": 71, "inst": "celesta_v0_additive_3", "vel": 0.622, "bend": 0.0, "ch": 7}, {"t": 284.44, "dur": 0.213, "note": 45, "inst": "organ_v0_additive_1", "vel": 0.283, "bend": 0.0, "ch": 13}, {"t": 284.442, "dur": 1.434, "note": 42, "inst": "harpsichord_v0_additive_2", "vel": 0.299, "bend": 0.0, "ch": 10}, {"t": 284.585, "dur": 0.068, "note": 59, "inst": "celesta_v0_additive_3", "vel": 0.339, "bend": 0.0, "ch": 11}], "instruments": ["celesta_v0_additive_3", "harpsichord_v0_additive_2", "organ_v0_additive_1", "piano_v0_additive_0"], "duration": 285.87600000000003, "n_events": 920}