{"events": [{"t": 0.145, "dur": 0.178, "note": 74, "inst": "celesta_v0_additive_3", "vel": 1.0, "bend": 0.0, "ch": 10}, {"t": 0.323, "dur": 0.355, "note": 55, "inst": "harpsichord_v0_additive_2", "vel": 1.0, "bend": 0.0, "ch": 7}, {"t": 0.323, "dur": 0.178, "note": 62, "inst": "celesta_v0_additive_3", "vel": 1.0, "bend": 0.0, "ch": 14}, {"t": 0.5, "dur": 0.178, "note": 86, "inst": "celesta_v0_additive_3", "vel": 1.0, "bend": 0.0, "ch": 6}, {"t": 0.678, "dur": 0.355, "note": 38, "inst": "celesta_v0_additive_3", "vel": 1.0, "bend": 0.0, "ch": 6}, {"t": 0.678, "dur": 0.178, "note": 74, "inst": "celesta_v0_additive_3", "vel": 1.0, "bend": 0.0, "ch": 10}, {"t": 0.855, "dur": 0.059, "note": 74, "inst": "celesta_v0_additive_3", "vel": 1.0, "bend": 0.0, "ch": 10}, {"t": 0.914, "dur": 0.059, "note": 77, "inst": "celesta_v0_additive_3", "vel": 1.0, "bend": 0.0, "ch": 13}, {"t": 0.974, "dur": 0.059, "note": 74, "inst": "celesta_v0_additive_3", "vel": 1.0, "bend": 0.0, "ch": 10}, {"t": 1.033, "dur": 0.355, "note": 55, "inst": "harpsichord_v0_additive_2", "vel": 1.0, "bend": 0.0, "ch": 7}, {"t": 1.033, "dur": 0.178, "note": 62, "inst": "celesta_v0_additive_3", "vel": 1.0, "bend": 0.0, "ch": 14}, {"t": 1.21, "dur": 0.178, "note": 74, "inst": "celesta_v0_additive_3", "vel": 1.0, "bend": 0.0, "ch": 10}, {"t": 1.388, "dur": 0.355, "note": 38, "inst": "celesta_v0_additive_3", "vel": 1.0, "bend": 0.0, "ch": 6}, {"t": 1.388, "dur": 0.178, "note": 83, "inst": "celesta_v0_additive_3", "vel": 1.0, "bend": 0.0, "ch": 3}, {"t": 1.565, "dur": 0.059, "note": 71, "inst": "celesta_v0_additive_3", "vel": 1.0, "bend": 0.0, "ch": 7}, {"t": 1.625, "dur": 0.059, "note": 62, "inst": "celesta_v0_additive_3", "vel": 1.0, "bend": 0.0, "ch": 14}, {"t": 1.684, "dur": 0.059, "note": 71, "inst": "celesta_v0_additive_3", "vel": 1.0, "bend": 0.0, "ch": 7}, {"t": 1.743, "dur": 0.355, "note": 53, "inst": "celesta_v0_additive_3", "vel": 1.0, "bend": 0.0, "ch": 5}, {"t": 1.743, "dur": 0.178, "note": 69, "inst": "piano_v0_additive_0", "vel": 1.0, "bend": 0.0, "ch": 5}, {"t": 1.92, "dur": 0.178, "note": 83, "inst": "celesta_v0_additive_3", "vel": 1.0, "bend": 0.0, "ch": 3}, {"t": 2.098, "dur": 0.355, "note": 53, "inst": "celesta_v0_additive_3", "vel": 1.0, "bend": 0.0, "ch": 5}, {"t": 2.098, "dur": 0.178, "note": 81, "inst": "piano_v0_additive_0", "vel": 1.0, "bend": 0.0, "ch": 1}, {"t": 2.276, "dur": 0.059, "note": 81, "inst": "piano_v0_additive_0", "vel": 1.0, "bend": 0.0, "ch": 1}, {"t": 2.335, "dur": 0.059, "note": 83, "inst": "celesta_v0_additive_3", "vel": 1.0, "bend": 0.0, "ch": 3}, {"t": 2.394, "dur": 0.059, "note": 81, "inst": "piano_v0_additive_0", "vel": 1.0, "bend": 0.0, "ch": 1}, {"t": 2.453, "dur": 0.355, "note": 53, "inst": "celesta_v0_additive_3", "vel": 1.0, "bend": 0.0, "ch": 5}, {"t": 2.453, "dur": 0.178, "note": 81, "inst": "piano_v0_additive_0", "vel": 1.0, "bend": 0.0, "ch": 1}, {"t": 2.631, "dur": 0.178, "note": 81, "inst": "piano_v0_additive_0", "vel": 1.0, "bend": 0.0, "ch": 1}, {"t": 2.808, "dur": 0.355, "note": 38, "inst": "celesta_v0_additive_3", "vel": 1.0, "bend": 0.0, "ch": 6}, {"t": 2.808, "dur": 0.178, "note": 74, "inst": "celesta_v0_additive_3", "vel": 1.0, "bend": 0.0, "ch": 10}, {"t": 2.986, "dur": 0.178, "note": 83, "inst": "celesta_v0_additive_3", "vel": 1.0, "bend": 0.0, "ch": 3}, {"t": 3.163, "dur": 0.355, "note": 55, "inst": "harpsichord_v0_additive_2", "vel": 1.0, "bend": 0.0, "ch": 7}, {"t": 3.163, "dur": 0.178, "note": 81, "inst": "piano_v0_additive_0", "vel": 1.0, "bend": 0.0, "ch": 1}, {"t": 3.341, "dur": 0.178, "note": 79, "inst": "harpsichord_v0_additive_2", "vel": 1.0, "bend": 0.0, "ch": 15}, {"t": 3.518, "dur": 0.355, "note": 38, "inst": "celesta_v0_additive_3", "vel": 1.0, "bend": 0.0, "ch": 6}, {"t": 3.518, "dur": 0.178, "note": 79, "inst": "harpsichord_v0_additive_2", "vel": 1.0, "bend": 0.0, "ch": 15}, {"t": 3.696, "dur": 0.059, "note": 79, "inst": "harpsichord_v0_additive_2", "vel": 1.0, "bend": 0.0, "ch": 15}, {"t": 3.755, "dur": 0.059, "note": 81, "inst": "piano_v0_additive_0", "vel": 1.0, "bend": 0.0, "ch": 1}, {"t": 3.814, "dur": 0.059, "note": 79, "inst": "harpsichord_v0_additive_2", "vel": 1.0, "bend": 0.0, "ch": 15}, {"t": 3.873, "dur": 0.355, "note": 50, "inst": "celesta_v0_additive_3", "vel": 1.0, "bend": 0.0, "ch": 2}, {"t": 3.873, "dur": 0.178, "note": 79, "inst": "harpsichord_v0_additive_2", "vel": 1.0, "bend": 0.0, "ch": 15}, {"t": 4.051, "dur": 0.178, "note": 79, "inst": "harpsichord_v0_additive_2", "vel": 1.0, "bend": 0.0, "ch": 15}, {"t": 4.228, "dur": 0.355, "note": 45, "inst": "piano_v0_additive_0", "vel": 1.0, "bend": 0.0, "ch": 13}, {"t": 4.228, "dur": 0.178, "note": 83, "inst": "celesta_v0_additive_3", "vel": 1.0, "bend": 0.0, "ch": 3}, {"t": 4.406, "dur": 0.178, "note": 81, "inst": "piano_v0_additive_0", "vel": 1.0, "bend": 0.0, "ch": 1}, {"t": 4.583, "dur": 0.355, "note": 50, "inst": "celesta_v0_additive_3", "vel": 1.0, "bend": 0.0, "ch": 2}, {"t": 4.583, "dur": 0.178, "note": 79, "inst": "harpsichord_v0_additive_2", "vel": 1.0, "bend": 0.0, "ch": 15}, {"t": 4.761, "dur": 0.178, "note": 77, "inst": "celesta_v0_additive_3", "vel": 1.0, "bend": 0.0, "ch": 13}, {"t": 4.939, "dur": 0.355, "note": 38, "inst": "celesta_v0_additive_3", "vel": 1.0, "bend": 0.0, "ch": 6}, {"t": 4.939, "dur": 0.178, "note": 77, "inst": "celesta_v0_additive_3", "vel": 1.0, "bend": 0.0, "ch": 13}, {"t": 5.116, "dur": 0.059, "note": 77, "inst": "celesta_v0_additive_3", "vel": 1.0, "bend": 0.0, "ch": 13}, {"t": 5.175, "dur": 0.059, "note": 79, "inst": "harpsichord_v0_additive_2", "vel": 1.0, "bend": 0.0, "ch": 15}, {"t": 5.234, "dur": 0.059, "note": 77, "inst": "celesta_v0_additive_3", "vel": 1.0, "bend": 0.0, "ch": 13}, {"t": 5.294, "dur": 0.355, "note": 47, "inst": "celesta_v0_additive_3", "vel": 1.0, "bend": 0.0, "ch": 15}, {"t": 5.294, "dur": 0.178, "note": 77, "inst": "celesta_v0_additive_3", "vel": 1.0, "bend": 0.0, "ch": 13}, {"t": 5.471, "dur": 0.178, "note": 79, "inst": "harpsichord_v0_additive_2", "vel": 1.0, "bend": 0.0, "ch": 15}, {"t": 5.649, "dur": 0.355, "note": 48, "inst": "piano_v0_additive_0", "vel": 1.0, "bend": 0.0, "ch": 0}, {"t": 5.649, "dur": 0.178, "note": 77, "inst": "celesta_v0_additive_3", "vel": 1.0, "bend": 0.0, "ch": 13}, {"t": 5.826, "dur": 0.178, "note": 74, "inst": "celesta_v0_additive_3", "vel": 1.0, "bend": 0.0, "ch": 10}, {"t": 6.004, "dur": 0.355, "note": 38, "inst": "celesta_v0_additive_3", "vel": 1.0, "bend": 0.0, "ch": 6}, {"t": 6.004, "dur": 0.178, "note": 62, "inst": "celesta_v0_additive_3", "vel": 1.0, "bend": 0.0, "ch": 14}, {"t": 6.181, "dur": 0.178, "note": 86, "inst": "celesta_v0_additive_3", "vel": 1.0, "bend": 0.0, "ch": 6}, {"t": 6.359, "dur": 0.355, "note": 38, "inst": "celesta_v0_additive_3", "vel": 1.0, "bend": 0.0, "ch": 6}, {"t": 6.359, "dur": 0.178, "note": 74, "inst": "celesta_v0_additive_3", "vel": 1.0, "bend": 0.0, "ch": 10}, {"t": 6.536, "dur": 0.059, "note": 74, "inst": "celesta_v0_additive_3", "vel": 1.0, "bend": 0.0, "ch": 10}, {"t": 6.595, "dur": 0.059, "note": 77, "inst": "celesta_v0_additive_3", "vel": 1.0, "bend": 0.0, "ch": 13}, {"t": 6.655, "dur": 0.059, "note": 74, "inst": "celesta_v0_additive_3", "vel": 1.0, "bend": 0.0, "ch": 10}, {"t": 6.714, "dur": 0.355, "note": 38, "inst": "celesta_v0_additive_3", "vel": 1.0, "bend": 0.0, "ch": 6}, {"t": 6.714, "dur": 0.178, "note": 62, "inst": "celesta_v0_additive_3", "vel": 1.0, "bend": 0.0, "ch": 14}, {"t": 6.891, "dur": 0.178, "note": 81, "inst": "piano_v0_additive_0", "vel": 1.0, "bend": 0.0, "ch": 1}, {"t": 7.069, "dur": 0.355, "note": 38, "inst": "celesta_v0_additive_3", "vel": 1.0, "bend": 0.0, "ch": 6}, {"t": 7.069, "dur": 0.178, "note": 79, "inst": "harpsichord_v0_additive_2", "vel": 1.0, "bend": 0.0, "ch": 15}, {"t": 7.246, "dur": 0.178, "note": 62, "inst": "celesta_v0_additive_3", "vel": 1.0, "bend": 0.0, "ch": 14}, {"t": 7.424, "dur": 0.355, "note": 53, "inst": "celesta_v0_additive_3", "vel": 1.0, "bend": 0.0, "ch": 5}, {"t": 7.424, "dur": 0.355, "note": 77, "inst": "celesta_v0_additive_3", "vel": 1.0, "bend": 0.0, "ch": 13}, {"t": 7.779, "dur": 0.178, "note": 89, "inst": "celesta_v0_additive_3", "vel": 1.0, "bend": 0.0, "ch": 9}, {"t": 7.957, "dur": 0.059, "note": 89, "inst": "celesta_v0_additive_3", "vel": 1.0, "bend": 0.0, "ch": 9}, {"t": 8.016, "dur": 0.059, "note": 91, "inst": "harpsichord_v0_additive_2", "vel": 1.0, "bend": 0.0, "ch": 11}, {"t": 8.075, "dur": 0.059, "note": 89, "inst": "celesta_v0_additive_3", "vel": 1.0, "bend": 0.0, "ch": 9}, {"t": 8.134, "dur": 0.355, "note": 38, "inst": "celesta_v0_additive_3", "vel": 1.0, "bend": 0.0, "ch": 6}, {"t": 8.134, "dur": 0.178, "note": 89, "inst": "celesta_v0_additive_3", "vel": 1.0, "bend": 0.0, "ch": 9}, {"t": 8.312, "dur": 0.178, "note": 93, "inst": "piano_v0_additive_0", "vel": 1.0, "bend": 0.0, "ch": 13}, {"t": 8.489, "dur": 0.355, "note": 43, "inst": "harpsichord_v0_additive_2", "vel": 1.0, "bend": 0.0, "ch": 11}, {"t": 8.489, "dur": 0.178, "note": 91, "inst": "harpsichord_v0_additive_2", "vel": 1.0, "bend": 0.0, "ch": 11}, {"t": 8.667, "dur": 0.059, "note": 86, "inst": "celesta_v0_additive_3", "vel": 1.0, "bend": 0.0, "ch": 6}, {"t": 8.726, "dur": 0.059, "note": 89, "inst": "celesta_v0_additive_3", "vel": 1.0, "bend": 0.0, "ch": 9}, {"t": 8.785, "dur": 0.059, "note": 86, "inst": "celesta_v0_additive_3", "vel": 1.0, "bend": 0.0, "ch": 6}, {"t": 8.844, "dur": 0.355, "note": 38, "inst": "celesta_v0_additive_3", "vel": 1.0, "bend": 0.0, "ch": 6}, {"t": 8.844, "dur": 0.178, "note": 74, "inst": "celesta_v0_additive_3", "vel": 1.0, "bend": 0.0, "ch": 10}, {"t": 9.022, "dur": 0.178, "note": 89, "inst": "celesta_v0_additive_3", "vel": 1.0, "bend": 0.0, "ch": 9}, {"t": 9.199, "dur": 0.355, "note": 43, "inst": "harpsichord_v0_additive_2", "vel": 1.0, "bend": 0.0, "ch": 11}, {"t": 9.199, "dur": 0.178, "note": 89, "inst": "celesta_v0_additive_3", "vel": 1.0, "bend": 0.0, "ch": 9}, {"t": 9.377, "dur": 0.178, "note": 74, "inst": "celesta_v0_additive_3", "vel": 1.0, "bend": 0.0, "ch": 10}, {"t": 9.554, "dur": 0.355, "note": 38, "inst": "celesta_v0_additive_3", "vel": 1.0, "bend": 0.0, "ch": 6}, {"t": 9.554, "dur": 0.089, "note": 79, "inst": "harpsichord_v0_additive_2", "vel": 1.0, "bend": 0.0, "ch": 15}, {"t": 9.643, "dur": 0.089, "note": 77, "inst": "celesta_v0_additive_3", "vel": 1.0, "bend": 0.0, "ch": 13}, {"t": 9.732, "dur": 0.089, "note": 79, "inst": "harpsichord_v0_additive_2", "vel": 1.0, "bend": 0.0, "ch": 15}, {"t": 9.821, "dur": 0.089, "note": 81, "inst": "piano_v0_additive_0", "vel": 1.0, "bend": 0.0, "ch": 1}, {"t": 9.909, "dur": 0.355, "note": 43, "inst": "harpsichord_v0_additive_2", "vel": 1.0, "bend": 0.0, "ch": 11}, {"t": 9.909, "dur": 0.089, "note": 84, "inst": "piano_v0_additive_0", "vel": 1.0, "bend": 0.0, "ch": 4}, {"t": 9.998, "dur": 0.089, "note": 74, "inst": "celesta_v0_additive_3", "vel": 1.0, "bend": 0.0, "ch": 10}, {"t": 10.087, "dur": 0.089, "note": 86, "inst": "celesta_v0_additive_3", "vel": 1.0, "bend": 0.0, "ch": 6}, {"t": 10.176, "dur": 0.089, "note": 89, "inst": "celesta_v0_additive_3", "vel": 1.0, "bend": 0.0, "ch": 9}, {"t": 10.264, "dur": 0.355, "note": 50, "inst": "celesta_v0_additive_3", "vel": 1.0, "bend": 0.0, "ch": 2}, {"t": 10.264, "dur": 0.355, "note": 89, "inst": "celesta_v0_additive_3", "vel": 1.0, "bend": 0.0, "ch": 9}, {"t": 10.619, "dur": 0.355, "note": 43, "inst": "harpsichord_v0_additive_2", "vel": 1.0, "bend": 0.0, "ch": 11}, {"t": 10.797, "dur": 0.059, "note": 89, "inst": "celesta_v0_additive_3", "vel": 1.0, "bend": 0.0, "ch": 9}, {"t": 10.856, "dur": 0.059, "note": 91, "inst": "harpsichord_v0_additive_2", "vel": 1.0, "bend": 0.0, "ch": 11}, {"t": 10.915, "dur": 0.059, "note": 89, "inst": "celesta_v0_additive_3", "vel": 1.0, "bend": 0.0, "ch": 9}, {"t": 10.975, "dur": 0.355, "note": 50, "inst": "celesta_v0_additive_3", "vel": 1.0, "bend": 0.0, "ch": 2}, {"t": 10.975, "dur": 0.178, "note": 86, "inst": "celesta_v0_additive_3", "vel": 1.0, "bend": 0.0, "ch": 6}, {"t": 11.152, "dur": 0.178, "note": 93, "inst": "piano_v0_additive_0", "vel": 1.0, "bend": 0.0, "ch": 13}, {"t": 11.33, "dur": 0.355, "note": 43, "inst": "harpsichord_v0_additive_2", "vel": 1.0, "bend": 0.0, "ch": 11}, {"t": 11.33, "dur": 0.178, "note": 91, "inst": "harpsichord_v0_additive_2", "vel": 1.0, "bend": 0.0, "ch": 11}, {"t": 11.507, "dur": 0.059, "note": 86, "inst": "celesta_v0_additive_3", "vel": 1.0, "bend": 0.0, "ch": 6}, {"t": 11.566, "dur": 0.059, "note": 89, "inst": "celesta_v0_additive_3", "vel": 1.0, "bend": 0.0, "ch": 9}, {"t": 11.625, "dur": 0.059, "note": 86, "inst": "celesta_v0_additive_3", "vel": 1.0, "bend": 0.0, "ch": 6}, {"t": 11.685, "dur": 0.355, "note": 50, "inst": "celesta_v0_additive_3", "vel": 1.0, "bend": 0.0, "ch": 2}, {"t": 11.685, "dur": 0.178, "note": 84, "inst": "piano_v0_additive_0", "vel": 1.0, "bend": 0.0, "ch": 4}, {"t": 42.178, "dur": 0.181, "note": 41, "inst": "celesta_v0_additive_3", "vel": 0.528, "bend": 0.0, "ch": 9}, {"t": 42.359, "dur": 0.181, "note": 53, "inst": "celesta_v0_additive_3", "vel": 0.677, "bend": 0.0, "ch": 5}, {"t": 42.54, "dur": 0.181, "note": 41, "inst": "celesta_v0_additive_3", "vel": 0.512, "bend": 0.0, "ch": 9}, {"t": 42.721, "dur": 0.181, "note": 53, "inst": "celesta_v0_additive_3", "vel": 0.669, "bend": 0.0, "ch": 5}, {"t": 42.902, "dur": 0.181, "note": 41, "inst": "celesta_v0_additive_3", "vel": 0.535, "bend": 0.0, "ch": 9}, {"t": 43.083, "dur": 0.181, "note": 53, "inst": "celesta_v0_additive_3", "vel": 0.638, "bend": 0.0, "ch": 5}, {"t": 43.264, "dur": 0.181, "note": 41, "inst": "celesta_v0_additive_3", "vel": 0.512, "bend": 0.0, "ch": 9}, {"t": 43.264, "dur": 2.895, "note": 65, "inst": "celesta_v0_additive_3", "vel": 0.52, "bend": 0.0, "ch": 1}, {"t": 43.445, "dur": 0.181, "note": 53, "inst": "celesta_v0_additive_3", "vel": 0.654, "bend": 0.0, "ch": 5}, {"t": 43.626, "dur": 0.181, "note": 41, "inst": "celesta_v0_additive_3", "vel": 0.535, "bend": 0.0, "ch": 9}, {"t": 43.807, "dur": 0.181, "note": 53, "inst": "celesta_v0_additive_3", "vel": 0.693, "bend": 0.0, "ch": 5}, {"t": 43.988, "dur": 0.181, "note": 41, "inst": "celesta_v0_additive_3", "vel": 0.496, "bend": 0.0, "ch": 9}, {"t": 44.169, "dur": 0.181, "note": 53, "inst": "celesta_v0_additive_3", "vel": 0.669, "bend": 0.0, "ch": 5}, {"t": 44.35, "dur": 0.181, "note": 41, "inst": "celesta_v0_additive_3", "vel": 0.535, "bend": 0.0, "ch": 9}, {"t": 44.531, "dur": 0.181, "note": 53, "inst": "celesta_v0_additive_3", "vel": 0.685, "bend": 0.0, "ch": 5}, {"t": 44.712, "dur": 0.181, "note": 41, "inst": "celesta_v0_additive_3", "vel": 0.528, "bend": 0.0, "ch": 9}, {"t": 44.892, "dur": 0.181, "note": 53, "inst": "celesta_v0_additive_3", "vel": 0.669, "bend": 0.0, "ch": 5}, {"t": 45.073, "dur": 0.181, "note": 41, "inst": "celesta_v0_additive_3", "vel": 0.543, "bend": 0.0, "ch": 9}, {"t": 45.254, "dur": 0.181, "note": 53, "inst": "celesta_v0_additive_3", "vel": 0.646, "bend": 0.0, "ch": 5}, {"t": 45.435, "dur": 0.181, "note": 41, "inst": "celesta_v0_additive_3", "vel": 0.543, "bend": 0.0, "ch": 9}, {"t": 45.616, "dur": 0.181, "note": 53, "inst": "celesta_v0_additive_3", "vel": 0.693, "bend": 0.0, "ch": 5}, {"t": 45.797, "dur": 0.181, "note": 41, "inst": "celesta_v0_additive_3", "vel": 0.535, "bend": 0.0, "ch": 9}, {"t": 45.978, "dur": 0.181, "note": 53, "inst": "celesta_v0_additive_3", "vel": 0.646, "bend": 0.0, "ch": 5}, {"t": 46.159, "dur": 0.181, "note": 41, "inst": "celesta_v0_additive_3", "vel": 0.535, "bend": 0.0, "ch": 9}, {"t": 46.159, "dur": 2.895, "note": 61, "inst": "harpsichord_v0_additive_2", "vel": 0.701, "bend": 0.0, "ch": 13}, {"t": 46.34, "dur": 0.181, "note": 53, "inst": "celesta_v0_additive_3", "vel": 0.646, "bend": 0.0, "ch": 5}, {"t": 46.521, "dur": 0.181, "note": 41, "inst": "celesta_v0_additive_3", "vel": 0.559, "bend": 0.0, "ch": 9}, {"t": 46.702, "dur": 0.181, "note": 53, "inst": "celesta_v0_additive_3", "vel": 0.677, "bend": 0.0, "ch": 5}, {"t": 46.883, "dur": 0.181, "note": 41, "inst": "celesta_v0_additive_3", "vel": 0.535, "bend": 0.0, "ch": 9}, {"t": 47.064, "dur": 0.181, "note": 53, "inst": "celesta_v0_additive_3", "vel": 0.701, "bend": 0.0, "ch": 5}, {"t": 47.245, "dur": 0.181, "note": 41, "inst": "celesta_v0_additive_3", "vel": 0.543, "bend": 0.0, "ch": 9}, {"t": 47.426, "dur": 0.181, "note": 53, "inst": "celesta_v0_additive_3", "vel": 0.709, "bend": 0.0, "ch": 5}, {"t": 47.607, "dur": 0.181, "note": 41, "inst": "celesta_v0_additive_3", "vel": 0.496, "bend": 0.0, "ch": 9}, {"t": 47.788, "dur": 0.181, "note": 53, "inst": "celesta_v0_additive_3", "vel": 0.693, "bend": 0.0, "ch": 5}, {"t": 47.969, "dur": 0.181, "note": 41, "inst": "celesta_v0_additive_3", "vel": 0.504, "bend": 0.0, "ch": 9}, {"t": 48.15, "dur": 0.181, "note": 53, "inst": "celesta_v0_additive_3", "vel": 0.669, "bend": 0.0, "ch": 5}, {"t": 48.331, "dur": 0.181, "note": 41, "inst": "celesta_v0_additive_3", "vel": 0.559, "bend": 0.0, "ch": 9}, {"t": 48.512, "dur": 0.181, "note": 53, "inst": "celesta_v0_additive_3", "vel": 0.669, "bend": 0.0, "ch": 5}, {"t": 48.693, "dur": 0.181, "note": 41, "inst": "celesta_v0_additive_3", "vel": 0.488, "bend": 0.0, "ch": 9}, {"t": 48.874, "dur": 0.181, "note": 53, "inst": "celesta_v0_additive_3", "vel": 0.646, "bend": 0.0, "ch": 5}, {"t": 49.054, "dur": 0.181, "note": 41, "inst": "celesta_v0_additive_3", "vel": 0.528, "bend": 0.0, "ch": 9}, {"t": 49.054, "dur": 2.171, "note": 77, "inst": "celesta_v0_additive_3", "vel": 0.685, "bend": 0.0, "ch": 13}, {"t": 49.235, "dur": 0.181, "note": 53, "inst": "celesta_v0_additive_3", "vel": 0.669, "bend": 0.0, "ch": 5}, {"t": 49.416, "dur": 0.181, "note": 41, "inst": "celesta_v0_additive_3", "vel": 0.543, "bend": 0.0, "ch": 9}, {"t": 49.597, "dur": 0.181, "note": 53, "inst": "celesta_v0_additive_3", "vel": 0.638, "bend": 0.0, "ch": 5}, {"t": 49.778, "dur": 0.181, "note": 41, "inst": "celesta_v0_additive_3", "vel": 0.528, "bend": 0.0, "ch": 9}, {"t": 49.959, "dur": 0.181, "note": 53, "inst": "celesta_v0_additive_3", "vel": 0.685, "bend": 0.0, "ch": 5}, {"t": 50.14, "dur": 0.181, "note": 41, "inst": "celesta_v0_additive_3", "vel": 0.535, "bend": 0.0, "ch": 9}, {"t": 50.321, "dur": 0.181, "note": 53, "inst": "celesta_v0_additive_3", "vel": 0.654, "bend": 0.0, "ch": 5}, {"t": 50.502, "dur": 0.181, "note": 41, "inst": "celesta_v0_additive_3", "vel": 0.543, "bend": 0.0, "ch": 9}, {"t": 50.683, "dur": 0.181, "note": 53, "inst": "celesta_v0_additive_3", "vel": 0.646, "bend": 0.0, "ch": 5}, {"t": 50.864, "dur": 0.181, "note": 41, "inst": "celesta_v0_additive_3", "vel": 0.535, "bend": 0.0, "ch": 9}, {"t": 51.045, "dur": 0.181, "note": 53, "inst": "celesta_v0_additive_3", "vel": 0.661, "bend": 0.0, "ch": 5}, {"t": 51.226, "dur": 0.181, "note": 41, "inst": "celesta_v0_additive_3", "vel": 0.528, "bend": 0.0, "ch": 9}, {"t": 51.407, "dur": 0.181, "note": 53, "inst": "celesta_v0_additive_3", "vel": 0.646, "bend": 0.0, "ch": 5}, {"t": 51.588, "dur": 0.181, "note": 41, "inst": "celesta_v0_additive_3", "vel": 0.512, "bend": 0.0, "ch": 9}, {"t": 51.588, "dur": 0.362, "note": 69, "inst": "piano_v0_additive_0", "vel": 0.551, "bend": 0.0, "ch": 5}, {"t": 51.588, "dur": 0.362, "note": 61, "inst": "harpsichord_v0_additive_2", "vel": 0.551, "bend": 0.0, "ch": 13}, {"t": 51.588, "dur": 0.362, "note": 77, "inst": "celesta_v0_additive_3", "vel": 0.551, "bend": 0.0, "ch": 13}, {"t": 51.769, "dur": 0.181, "note": 53, "inst": "celesta_v0_additive_3", "vel": 0.669, "bend": 0.0, "ch": 5}, {"t": 51.95, "dur": 0.181, "note": 41, "inst": "celesta_v0_additive_3", "vel": 0.559, "bend": 0.0, "ch": 9}, {"t": 51.95, "dur": 5.791, "note": 67, "inst": "harpsichord_v0_additive_2", "vel": 0.575, "bend": 0.0, "ch": 3}, {"t": 51.95, "dur": 5.791, "note": 61, "inst": "harpsichord_v0_additive_2", "vel": 0.575, "bend": 0.0, "ch": 13}, {"t": 51.95, "dur": 5.791, "note": 77, "inst": "celesta_v0_additive_3", "vel": 0.575, "bend": 0.0, "ch": 13}, {"t": 52.131, "dur": 0.181, "note": 53, "inst": "celesta_v0_additive_3", "vel": 0.685, "bend": 0.0, "ch": 5}, {"t": 52.312, "dur": 0.181, "note": 41, "inst": "celesta_v0_additive_3", "vel": 0.535, "bend": 0.0, "ch": 9}, {"t": 52.493, "dur": 0.181, "note": 53, "inst": "celesta_v0_additive_3", "vel": 0.677, "bend": 0.0, "ch": 5}, {"t": 52.674, "dur": 0.181, "note": 41, "inst": "celesta_v0_additive_3", "vel": 0.52, "bend": 0.0, "ch": 9}, {"t": 52.855, "dur": 0.181, "note": 53, "inst": "celesta_v0_additive_3", "vel": 0.661, "bend": 0.0, "ch": 5}, {"t": 53.036, "dur": 0.181, "note": 41, "inst": "celesta_v0_additive_3", "vel": 0.512, "bend": 0.0, "ch": 9}, {"t": 53.217, "dur": 0.181, "note": 53, "inst": "celesta_v0_additive_3", "vel": 0.677, "bend": 0.0, "ch": 5}, {"t": 53.397, "dur": 0.181, "note": 41, "inst": "celesta_v0_additive_3", "vel": 0.551, "bend": 0.0, "ch": 9}, {"t": 53.578, "dur": 0.181, "note": 53, "inst": "celesta_v0_additive_3", "vel": 0.677, "bend": 0.0, "ch": 5}, {"t": 53.759, "dur": 0.181, "note": 41, "inst": "celesta_v0_additive_3", "vel": 0.504, "bend": 0.0, "ch": 9}, {"t": 53.94, "dur": 0.181, "note": 53, "inst": "celesta_v0_additive_3", "vel": 0.685, "bend": 0.0, "ch": 5}, {"t": 54.121, "dur": 0.181, "note": 41, "inst": "celesta_v0_additive_3", "vel": 0.488, "bend": 0.0, "ch": 9}, {"t": 54.302, "dur": 0.181, "note": 53, "inst": "celesta_v0_additive_3", "vel": 0.693, "bend": 0.0, "ch": 5}, {"t": 54.483, "dur": 0.181, "note": 41, "inst": "celesta_v0_additive_3", "vel": 0.512, "bend": 0.0, "ch": 9}, {"t": 54.664, "dur": 0.181, "note": 53, "inst": "celesta_v0_additive_3", "vel": 0.661, "bend": 0.0, "ch": 5}, {"t": 54.845, "dur": 0.362, "note": 41, "inst": "celesta_v0_additive_3", "vel": 0.598, "bend": 0.0, "ch": 9}, {"t": 54.845, "dur": 0.362, "note": 53, "inst": "celesta_v0_additive_3", "vel": 0.598, "bend": 0.0, "ch": 5}, {"t": 55.207, "dur": 0.362, "note": 25, "inst": "harpsichord_v0_additive_2", "vel": 0.559, "bend": 0.0, "ch": 9}, {"t": 55.207, "dur": 0.362, "note": 37, "inst": "harpsichord_v0_additive_2", "vel": 0.559, "bend": 0.0, "ch": 5}, {"t": 55.569, "dur": 0.362, "note": 41, "inst": "celesta_v0_additive_3", "vel": 0.638, "bend": 0.0, "ch": 9}, {"t": 55.569, "dur": 0.362, "note": 53, "inst": "celesta_v0_additive_3", "vel": 0.638, "bend": 0.0, "ch": 5}, {"t": 55.931, "dur": 0.362, "note": 25, "inst": "harpsichord_v0_additive_2", "vel": 0.559, "bend": 0.0, "ch": 9}, {"t": 55.931, "dur": 0.362, "note": 37, "inst": "harpsichord_v0_additive_2", "vel": 0.559, "bend": 0.0, "ch": 5}, {"t": 56.293, "dur": 0.362, "note": 41, "inst": "celesta_v0_additive_3", "vel": 0.654, "bend": 0.0, "ch": 9}, {"t": 56.293, "dur": 0.362, "note": 53, "inst": "celesta_v0_additive_3", "vel": 0.654, "bend": 0.0, "ch": 5}, {"t": 56.655, "dur": 0.362, "note": 25, "inst": "harpsichord_v0_additive_2", "vel": 0.559, "bend": 0.0, "ch": 9}, {"t": 56.655, "dur": 0.362, "note": 37, "inst": "harpsichord_v0_additive_2", "vel": 0.559, "bend": 0.0, "ch": 5}, {"t": 57.017, "dur": 0.362, "note": 41, "inst": "celesta_v0_additive_3", "vel": 0.622, "bend": 0.0, "ch": 9}, {"t": 57.017, "dur": 0.362, "note": 53, "inst": "celesta_v0_additive_3", "vel": 0.622, "bend": 0.0, "ch": 5}, {"t": 57.379, "dur": 0.362, "note": 25, "inst": "harpsichord_v0_additive_2", "vel": 0.567, "bend": 0.0, "ch": 9}, {"t": 57.379, "dur": 0.362, "note": 37, "inst": "harpsichord_v0_additive_2", "vel": 0.567, "bend": 0.0, "ch": 5}, {"t": 57.74, "dur": 0.181, "note": 41, "inst": "celesta_v0_additive_3", "vel": 0.543, "bend": 0.0, "ch": 9}, {"t": 57.74, "dur": 2.895, "note": 65, "inst": "celesta_v0_additive_3", "vel": 0.433, "bend": 0.0, "ch": 1}, {"t": 57.921, "dur": 0.181, "note": 53, "inst": "celesta_v0_additive_3", "vel": 0.677, "bend": 0.0, "ch": 5}, {"t": 58.102, "dur": 0.181, "note": 41, "inst": "celesta_v0_additive_3", "vel": 0.535, "bend": 0.0, "ch": 9}, {"t": 58.283, "dur": 0.181, "note": 53, "inst": "celesta_v0_additive_3", "vel": 0.646, "bend": 0.0, "ch": 5}, {"t": 58.464, "dur": 0.181, "note": 41, "inst": "celesta_v0_additive_3", "vel": 0.543, "bend": 0.0, "ch": 9}, {"t": 58.645, "dur": 0.181, "note": 53, "inst": "celesta_v0_additive_3", "vel": 0.646, "bend": 0.0, "ch": 5}, {"t": 58.826, "dur": 0.181, "note": 41, "inst": "celesta_v0_additive_3", "vel": 0.535, "bend": 0.0, "ch": 9}, {"t": 59.007, "dur": 0.181, "note": 53, "inst": "celesta_v0_additive_3", "vel": 0.669, "bend": 0.0, "ch": 5}, {"t": 59.188, "dur": 0.181, "note": 41, "inst": "celesta_v0_additive_3", "vel": 0.496, "bend": 0.0, "ch": 9}, {"t": 59.369, "dur": 0.181, "note": 53, "inst": "celesta_v0_additive_3", "vel": 0.654, "bend": 0.0, "ch": 5}, {"t": 59.55, "dur": 0.181, "note": 41, "inst": "celesta_v0_additive_3", "vel": 0.512, "bend": 0.0, "ch": 9}, {"t": 59.731, "dur": 0.181, "note": 53, "inst": "celesta_v0_additive_3", "vel": 0.646, "bend": 0.0, "ch": 5}, {"t": 59.912, "dur": 0.181, "note": 41, "inst": "celesta_v0_additive_3", "vel": 0.535, "bend": 0.0, "ch": 9}, {"t": 60.093, "dur": 0.181, "note": 53, "inst": "celesta_v0_additive_3", "vel": 0.646, "bend": 0.0, "ch": 5}, {"t": 60.274, "dur": 0.181, "note": 41, "inst": "celesta_v0_additive_3", "vel": 0.535, "bend": 0.0, "ch": 9}, {"t": 60.455, "dur": 0.181, "note": 53, "inst": "celesta_v0_additive_3", "vel": 0.622, "bend": 0.0, "ch": 5}, {"t": 60.636, "dur": 0.181, "note": 41, "inst": "celesta_v0_additive_3", "vel": 0.52, "bend": 0.0, "ch": 9}, {"t": 60.636, "dur": 2.895, "note": 61, "inst": "harpsichord_v0_additive_2", "vel": 0.677, "bend": 0.0, "ch": 13}, {"t": 60.817, "dur": 0.181, "note": 53, "inst": "celesta_v0_additive_3", "vel": 0.693, "bend": 0.0, "ch": 5}, {"t": 60.998, "dur": 0.181, "note": 41, "inst": "celesta_v0_additive_3", "vel": 0.512, "bend": 0.0, "ch": 9}, {"t": 61.179, "dur": 0.181, "note": 53, "inst": "celesta_v0_additive_3", "vel": 0.693, "bend": 0.0, "ch": 5}, {"t": 61.36, "dur": 0.181, "note": 41, "inst": "celesta_v0_additive_3", "vel": 0.496, "bend": 0.0, "ch": 9}, {"t": 61.541, "dur": 0.181, "note": 53, "inst": "celesta_v0_additive_3", "vel": 0.654, "bend": 0.0, "ch": 5}, {"t": 61.721, "dur": 0.181, "note": 41, "inst": "celesta_v0_additive_3", "vel": 0.528, "bend": 0.0, "ch": 9}, {"t": 61.902, "dur": 0.181, "note": 53, "inst": "celesta_v0_additive_3", "vel": 0.646, "bend": 0.0, "ch": 5}, {"t": 62.083, "dur": 0.181, "note": 41, "inst": "celesta_v0_additive_3", "vel": 0.496, "bend": 0.0, "ch": 9}, {"t": 62.264, "dur": 0.181, "note": 53, "inst": "celesta_v0_additive_3", "vel": 0.63, "bend": 0.0, "ch": 5}, {"t": 62.445, "dur": 0.181, "note": 41, "inst": "celesta_v0_additive_3", "vel": 0.528, "bend": 0.0, "ch": 9}, {"t": 62.626, "dur": 0.181, "note": 53, "inst": "celesta_v0_additive_3", "vel": 0.677, "bend": 0.0, "ch": 5}, {"t": 62.807, "dur": 0.181, "note": 41, "inst": "celesta_v0_additive_3", "vel": 0.488, "bend": 0.0, "ch": 9}, {"t": 62.988, "dur": 0.181, "note": 53, "inst": "celesta_v0_additive_3", "vel": 0.685, "bend": 0.0, "ch": 5}, {"t": 63.169, "dur": 0.181, "note": 41, "inst": "celesta_v0_additive_3", "vel": 0.52, "bend": 0.0, "ch": 9}, {"t": 63.35, "dur": 0.181, "note": 53, "inst": "celesta_v0_additive_3", "vel": 0.654, "bend": 0.0, "ch": 5}, {"t": 63.531, "dur": 0.181, "note": 41, "inst": "celesta_v0_additive_3", "vel": 0.52, "bend": 0.0, "ch": 9}, {"t": 63.531, "dur": 2.171, "note": 77, "inst": "celesta_v0_additive_3", "vel": 0.669, "bend": 0.0, "ch": 13}, {"t": 63.712, "dur": 0.181, "note": 53, "inst": "celesta_v0_additive_3", "vel": 0.669, "bend": 0.0, "ch": 5}, {"t": 63.893, "dur": 0.181, "note": 41, "inst": "celesta_v0_additive_3", "vel": 0.48, "bend": 0.0, "ch": 9}, {"t": 64.074, "dur": 0.181, "note": 53, "inst": "celesta_v0_additive_3", "vel": 0.669, "bend": 0.0, "ch": 5}, {"t": 64.255, "dur": 0.181, "note": 41, "inst": "celesta_v0_additive_3", "vel": 0.496, "bend": 0.0, "ch": 9}, {"t": 64.436, "dur": 0.181, "note": 53, "inst": "celesta_v0_additive_3", "vel": 0.669, "bend": 0.0, "ch": 5}, {"t": 64.617, "dur": 0.181, "note": 41, "inst": "celesta_v0_additive_3", "vel": 0.52, "bend": 0.0, "ch": 9}, {"t": 64.798, "dur": 0.181, "note": 53, "inst": "celesta_v0_additive_3", "vel": 0.677, "bend": 0.0, "ch": 5}, {"t": 64.979, "dur": 0.181, "note": 41, "inst": "celesta_v0_additive_3", "vel": 0.543, "bend": 0.0, "ch": 9}, {"t": 65.16, "dur": 0.181, "note": 53, "inst": "celesta_v0_additive_3", "vel": 0.646, "bend": 0.0, "ch": 5}, {"t": 210.185, "dur": 0.433, "note": 47, "inst": "celesta_v0_additive_3", "vel": 0.709, "bend": 0.0, "ch": 15}, {"t": 210.618, "dur": 0.433, "note": 27, "inst": "piano_v0_additive_0", "vel": 0.709, "bend": 0.0, "ch": 11}, {"t": 210.618, "dur": 0.433, "note": 27, "inst": "piano_v0_additive_0", "vel": 0.709, "bend": 0.0, "ch": 11}, {"t": 210.618, "dur": 1.298, "note": 53, "inst": "celesta_v0_additive_3", "vel": 0.709, "bend": 0.0, "ch": 5}, {"t": 211.051, "dur": 0.865, "note": 31, "inst": "harpsichord_v0_additive_2", "vel": 0.709, "bend": 0.0, "ch": 15}, {"t": 211.051, "dur": 0.865, "note": 31, "inst": "harpsichord_v0_additive_2", "vel": 0.709, "bend": 0.0, "ch": 15}, {"t": 211.051, "dur": 0.433, "note": 59, "inst": "celesta_v0_additive_3", "vel": 0.709, "bend": 0.0, "ch": 11}, {"t": 211.483, "dur": 0.433, "note": 55, "inst": "harpsichord_v0_additive_2", "vel": 0.709, "bend": 0.0, "ch": 7}, {"t": 211.916, "dur": 0.433, "note": 33, "inst": "piano_v0_additive_0", "vel": 0.709, "bend": 0.0, "ch": 1}, {"t": 211.916, "dur": 0.433, "note": 33, "inst": "piano_v0_additive_0", "vel": 0.709, "bend": 0.0, "ch": 1}, {"t": 211.916, "dur": 0.865, "note": 51, "inst": "piano_v0_additive_0", "vel": 0.709, "bend": 0.0, "ch": 3}, {"t": 211.916, "dur": 0.433, "note": 59, "inst": "celesta_v0_additive_3", "vel": 0.709, "bend": 0.0, "ch": 11}, {"t": 212.349, "dur": 0.433, "note": 29, "inst": "celesta_v0_additive_3", "vel": 0.709, "bend": 0.0, "ch": 13}, {"t": 212.349, "dur": 0.433, "note": 29, "inst": "celesta_v0_additive_3", "vel": 0.709, "bend": 0.0, "ch": 13}, {"t": 212.349, "dur": 0.433, "note": 47, "inst": "celesta_v0_additive_3", "vel": 0.709, "bend": 0.0, "ch": 15}, {"t": 212.782, "dur": 0.865, "note": 31, "inst": "harpsichord_v0_additive_2", "vel": 0.709, "bend": 0.0, "ch": 15}, {"t": 212.782, "dur": 0.865, "note": 31, "inst": "harpsichord_v0_additive_2", "vel": 0.709, "bend": 0.0, "ch": 15}, {"t": 212.782, "dur": 0.649, "note": 47, "inst": "celesta_v0_additive_3", "vel": 0.709, "bend": 0.0, "ch": 15}, {"t": 212.782, "dur": 0.865, "note": 39, "inst": "piano_v0_additive_0", "vel": 0.709, "bend": 0.0, "ch": 7}, {"t": 213.431, "dur": 0.216, "note": 47, "inst": "celesta_v0_additive_3", "vel": 0.709, "bend": 0.0, "ch": 15}, {"t": 213.647, "dur": 0.433, "note": 35, "inst": "celesta_v0_additive_3", "vel": 0.709, "bend": 0.0, "ch": 3}, {"t": 213.647, "dur": 0.433, "note": 35, "inst": "celesta_v0_additive_3", "vel": 0.709, "bend": 0.0, "ch": 3}, {"t": 213.647, "dur": 0.433, "note": 47, "inst": "celesta_v0_additive_3", "vel": 0.709, "bend": 0.0, "ch": 15}, {"t": 213.647, "dur": 0.865, "note": 47, "inst": "celesta_v0_additive_3", "vel": 0.709, "bend": 0.0, "ch": 15}, {"t": 214.08, "dur": 0.865, "note": 47, "inst": "celesta_v0_additive_3", "vel": 0.709, "bend": 0.0, "ch": 15}, {"t": 214.08, "dur": 0.865, "note": 47, "inst": "celesta_v0_additive_3", "vel": 0.709, "bend": 0.0, "ch": 15}, {"t": 214.08, "dur": 0.649, "note": 63, "inst": "piano_v0_additive_0", "vel": 0.709, "bend": 0.0, "ch": 15}, {"t": 214.729, "dur": 0.216, "note": 65, "inst": "celesta_v0_additive_3", "vel": 0.709, "bend": 0.0, "ch": 1}, {"t": 214.945, "dur": 0.433, "note": 47, "inst": "celesta_v0_additive_3", "vel": 0.709, "bend": 0.0, "ch": 15}, {"t": 214.945, "dur": 0.433, "note": 47, "inst": "celesta_v0_additive_3", "vel": 0.709, "bend": 0.0, "ch": 15}, {"t": 214.945, "dur": 0.433, "note": 67, "inst": "harpsichord_v0_additive_2", "vel": 0.709, "bend": 0.0, "ch": 3}, {"t": 215.378, "dur": 0.865, "note": 49, "inst": "harpsichord_v0_additive_2", "vel": 0.709, "bend": 0.0, "ch": 1}, {"t": 215.378, "dur": 0.865, "note": 49, "inst": "harpsichord_v0_additive_2", "vel": 0.709, "bend": 0.0, "ch": 1}, {"t": 215.378, "dur": 0.649, "note": 63, "inst": "piano_v0_additive_0", "vel": 0.709, "bend": 0.0, "ch": 15}, {"t": 215.378, "dur": 0.216, "note": 69, "inst": "piano_v0_additive_0", "vel": 0.709, "bend": 0.0, "ch": 5}, {"t": 215.594, "dur": 0.216, "note": 67, "inst": "harpsichord_v0_additive_2", "vel": 0.709, "bend": 0.0, "ch": 3}, {"t": 215.811, "dur": 0.216, "note": 65, "inst": "celesta_v0_additive_3", "vel": 0.709, "bend": 0.0, "ch": 1}, {"t": 216.027, "dur": 0.216, "note": 63, "inst": "piano_v0_additive_0", "vel": 0.709, "bend": 0.0, "ch": 15}, {"t": 216.027, "dur": 0.216, "note": 63, "inst": "piano_v0_additive_0", "vel": 0.709, "bend": 0.0, "ch": 15}, {"t": 216.244, "dur": 0.649, "note": 39, "inst": "piano_v0_additive_0", "vel": 0.709, "bend": 0.0, "ch": 7}, {"t": 216.244, "dur": 0.649, "note": 39, "inst": "piano_v0_additive_0", "vel": 0.709, "bend": 0.0, "ch": 7}, {"t": 216.244, "dur": 0.649, "note": 57, "inst": "piano_v0_additive_0", "vel": 0.709, "bend": 0.0, "ch": 9}, {"t": 216.244, "dur": 0.649, "note": 65, "inst": "celesta_v0_additive_3", "vel": 0.709, "bend": 0.0, "ch": 1}, {"t": 216.893, "dur": 0.216, "note": 41, "inst": "celesta_v0_additive_3", "vel": 0.709, "bend": 0.0, "ch": 9}, {"t": 216.893, "dur": 0.216, "note": 41, "inst": "celesta_v0_additive_3", "vel": 0.709, "bend": 0.0, "ch": 9}, {"t": 216.893, "dur": 0.216, "note": 51, "inst": "piano_v0_additive_0", "vel": 0.709, "bend": 0.0, "ch": 3}, {"t": 216.893, "dur": 0.216, "note": 69, "inst": "piano_v0_additive_0", "vel": 0.709, "bend": 0.0, "ch": 5}, {"t": 217.109, "dur": 0.865, "note": 43, "inst": "harpsichord_v0_additive_2", "vel": 0.709, "bend": 0.0, "ch": 11}, {"t": 217.109, "dur": 0.865, "note": 43, "inst": "harpsichord_v0_additive_2", "vel": 0.709, "bend": 0.0, "ch": 11}, {"t": 217.109, "dur": 0.433, "note": 61, "inst": "harpsichord_v0_additive_2", "vel": 0.709, "bend": 0.0, "ch": 13}, {"t": 217.109, "dur": 0.433, "note": 63, "inst": "piano_v0_additive_0", "vel": 0.709, "bend": 0.0, "ch": 15}, {"t": 217.542, "dur": 0.433, "note": 51, "inst": "piano_v0_additive_0", "vel": 0.709, "bend": 0.0, "ch": 3}, {"t": 217.542, "dur": 0.433, "note": 65, "inst": "celesta_v0_additive_3", "vel": 0.709, "bend": 0.0, "ch": 1}, {"t": 217.975, "dur": 0.865, "note": 45, "inst": "piano_v0_additive_0", "vel": 0.709, "bend": 0.0, "ch": 13}, {"t": 217.975, "dur": 0.865, "note": 45, "inst": "piano_v0_additive_0", "vel": 0.709, "bend": 0.0, "ch": 13}, {"t": 217.975, "dur": 0.649, "note": 51, "inst": "piano_v0_additive_0", "vel": 0.709, "bend": 0.0, "ch": 3}, {"t": 217.975, "dur": 0.865, "note": 63, "inst": "piano_v0_additive_0", "vel": 0.709, "bend": 0.0, "ch": 15}, {"t": 218.624, "dur": 0.216, "note": 61, "inst": "harpsichord_v0_additive_2", "vel": 0.709, "bend": 0.0, "ch": 13}, {"t": 218.84, "dur": 0.433, "note": 27, "inst": "piano_v0_additive_0", "vel": 0.709, "bend": 0.0, "ch": 11}, {"t": 218.84, "dur": 0.433, "note": 27, "inst": "piano_v0_additive_0", "vel": 0.709, "bend": 0.0, "ch": 11}, {"t": 218.84, "dur": 0.433, "note": 51, "inst": "piano_v0_additive_0", "vel": 0.709, "bend": 0.0, "ch": 3}, {"t": 218.84, "dur": 0.865, "note": 51, "inst": "piano_v0_additive_0", "vel": 0.709, "bend": 0.0, "ch": 3}, {"t": 219.273, "dur": 0.865, "note": 37, "inst": "harpsichord_v0_additive_2", "vel": 0.709, "bend": 0.0, "ch": 5}, {"t": 219.273, "dur": 0.865, "note": 37, "inst": "harpsichord_v0_additive_2", "vel": 0.709, "bend": 0.0, "ch": 5}, {"t": 219.273, "dur": 0.216, "note": 69, "inst": "piano_v0_additive_0", "vel": 0.709, "bend": 0.0, "ch": 5}, {"t": 219.489, "dur": 0.216, "note": 67, "inst": "harpsichord_v0_additive_2", "vel": 0.709, "bend": 0.0, "ch": 3}, {"t": 219.706, "dur": 0.216, "note": 65, "inst": "celesta_v0_additive_3", "vel": 0.709, "bend": 0.0, "ch": 1}, {"t": 219.922, "dur": 0.216, "note": 63, "inst": "piano_v0_additive_0", "vel": 0.709, "bend": 0.0, "ch": 15}, {"t": 220.138, "dur": 0.433, "note": 27, "inst": "piano_v0_additive_0", "vel": 0.709, "bend": 0.0, "ch": 11}, {"t": 220.138, "dur": 0.433, "note": 27, "inst": "piano_v0_additive_0", "vel": 0.709, "bend": 0.0, "ch": 11}, {"t": 220.138, "dur": 0.433, "note": 65, "inst": "celesta_v0_additive_3", "vel": 0.709, "bend": 0.0, "ch": 1}], "instruments": ["celesta_v0_additive_3", "harpsichord_v0_additive_2", "piano_v0_additive_0"], "duration": 220.571, "n_events": 330}