{"events": [{"t": 0.048, "dur": 0.109, "note": 64, "inst": "piano_v0_additive_0", "vel": 1.0, "bend": 0.0, "ch": 0}, {"t": 0.157, "dur": 0.109, "note": 76, "inst": "piano_v0_additive_0", "vel": 1.0, "bend": 0.0, "ch": 12}, {"t": 0.266, "dur": 0.436, "note": 28, "inst": "piano_v0_additive_0", "vel": 1.0, "bend": 0.0, "ch": 12}, {"t": 0.266, "dur": 0.436, "note": 78, "inst": "harpsichord_v0_additive_2", "vel": 1.0, "bend": 0.0, "ch": 14}, {"t": 0.701, "dur": 0.436, "note": 32, "inst": "piano_v0_additive_0", "vel": 1.0, "bend": 0.0, "ch": 0}, {"t": 0.919, "dur": 0.073, "note": 78, "inst": "harpsichord_v0_additive_2", "vel": 1.0, "bend": 0.0, "ch": 14}, {"t": 0.992, "dur": 0.073, "note": 80, "inst": "piano_v0_additive_0", "vel": 1.0, "bend": 0.0, "ch": 0}, {"t": 1.064, "dur": 0.073, "note": 78, "inst": "harpsichord_v0_additive_2", "vel": 1.0, "bend": 0.0, "ch": 14}, {"t": 1.137, "dur": 0.436, "note": 28, "inst": "piano_v0_additive_0", "vel": 1.0, "bend": 0.0, "ch": 12}, {"t": 1.137, "dur": 0.218, "note": 64, "inst": "piano_v0_additive_0", "vel": 1.0, "bend": 0.0, "ch": 0}, {"t": 1.355, "dur": 0.218, "note": 83, "inst": "celesta_v0_additive_3", "vel": 1.0, "bend": 0.0, "ch": 3}, {"t": 1.573, "dur": 0.436, "note": 32, "inst": "piano_v0_additive_0", "vel": 1.0, "bend": 0.0, "ch": 0}, {"t": 1.573, "dur": 0.218, "note": 80, "inst": "piano_v0_additive_0", "vel": 1.0, "bend": 0.0, "ch": 0}, {"t": 1.791, "dur": 0.073, "note": 64, "inst": "piano_v0_additive_0", "vel": 1.0, "bend": 0.0, "ch": 0}, {"t": 1.863, "dur": 0.073, "note": 76, "inst": "piano_v0_additive_0", "vel": 1.0, "bend": 0.0, "ch": 12}, {"t": 1.936, "dur": 0.073, "note": 64, "inst": "piano_v0_additive_0", "vel": 1.0, "bend": 0.0, "ch": 0}, {"t": 2.009, "dur": 0.436, "note": 28, "inst": "piano_v0_additive_0", "vel": 1.0, "bend": 0.0, "ch": 12}, {"t": 2.009, "dur": 0.218, "note": 71, "inst": "celesta_v0_additive_3", "vel": 1.0, "bend": 0.0, "ch": 7}, {"t": 2.226, "dur": 0.218, "note": 76, "inst": "piano_v0_additive_0", "vel": 1.0, "bend": 0.0, "ch": 12}, {"t": 2.444, "dur": 0.436, "note": 32, "inst": "piano_v0_additive_0", "vel": 1.0, "bend": 0.0, "ch": 0}, {"t": 2.444, "dur": 0.218, "note": 64, "inst": "piano_v0_additive_0", "vel": 1.0, "bend": 0.0, "ch": 0}, {"t": 2.662, "dur": 0.218, "note": 71, "inst": "celesta_v0_additive_3", "vel": 1.0, "bend": 0.0, "ch": 7}, {"t": 2.88, "dur": 0.436, "note": 35, "inst": "celesta_v0_additive_3", "vel": 1.0, "bend": 0.0, "ch": 3}, {"t": 2.88, "dur": 0.109, "note": 68, "inst": "piano_v0_additive_0", "vel": 1.0, "bend": 0.0, "ch": 4}, {"t": 2.989, "dur": 0.109, "note": 66, "inst": "harpsichord_v0_additive_2", "vel": 1.0, "bend": 0.0, "ch": 2}, {"t": 3.098, "dur": 0.109, "note": 68, "inst": "piano_v0_additive_0", "vel": 1.0, "bend": 0.0, "ch": 4}, {"t": 3.207, "dur": 0.109, "note": 71, "inst": "celesta_v0_additive_3", "vel": 1.0, "bend": 0.0, "ch": 7}, {"t": 3.316, "dur": 0.436, "note": 32, "inst": "piano_v0_additive_0", "vel": 1.0, "bend": 0.0, "ch": 0}, {"t": 3.316, "dur": 0.109, "note": 71, "inst": "celesta_v0_additive_3", "vel": 1.0, "bend": 0.0, "ch": 7}, {"t": 3.425, "dur": 0.109, "note": 73, "inst": "organ_v0_additive_1", "vel": 1.0, "bend": 0.0, "ch": 9}, {"t": 3.534, "dur": 0.109, "note": 64, "inst": "piano_v0_additive_0", "vel": 1.0, "bend": 0.0, "ch": 0}, {"t": 3.643, "dur": 0.109, "note": 76, "inst": "piano_v0_additive_0", "vel": 1.0, "bend": 0.0, "ch": 12}, {"t": 3.752, "dur": 0.436, "note": 37, "inst": "organ_v0_additive_1", "vel": 1.0, "bend": 0.0, "ch": 5}, {"t": 3.752, "dur": 0.436, "note": 76, "inst": "piano_v0_additive_0", "vel": 1.0, "bend": 0.0, "ch": 12}, {"t": 4.187, "dur": 0.436, "note": 32, "inst": "piano_v0_additive_0", "vel": 1.0, "bend": 0.0, "ch": 0}, {"t": 4.623, "dur": 0.436, "note": 37, "inst": "organ_v0_additive_1", "vel": 1.0, "bend": 0.0, "ch": 5}, {"t": 4.623, "dur": 0.218, "note": 76, "inst": "piano_v0_additive_0", "vel": 1.0, "bend": 0.0, "ch": 12}, {"t": 4.841, "dur": 0.218, "note": 83, "inst": "celesta_v0_additive_3", "vel": 1.0, "bend": 0.0, "ch": 3}, {"t": 5.059, "dur": 0.436, "note": 32, "inst": "piano_v0_additive_0", "vel": 1.0, "bend": 0.0, "ch": 0}, {"t": 5.059, "dur": 0.218, "note": 80, "inst": "piano_v0_additive_0", "vel": 1.0, "bend": 0.0, "ch": 0}, {"t": 5.277, "dur": 0.073, "note": 64, "inst": "piano_v0_additive_0", "vel": 1.0, "bend": 0.0, "ch": 0}, {"t": 5.349, "dur": 0.073, "note": 76, "inst": "piano_v0_additive_0", "vel": 1.0, "bend": 0.0, "ch": 12}, {"t": 5.422, "dur": 0.073, "note": 64, "inst": "piano_v0_additive_0", "vel": 1.0, "bend": 0.0, "ch": 0}, {"t": 5.495, "dur": 0.436, "note": 37, "inst": "organ_v0_additive_1", "vel": 1.0, "bend": 0.0, "ch": 5}, {"t": 5.495, "dur": 0.218, "note": 73, "inst": "organ_v0_additive_1", "vel": 1.0, "bend": 0.0, "ch": 9}, {"t": 5.713, "dur": 0.218, "note": 78, "inst": "harpsichord_v0_additive_2", "vel": 1.0, "bend": 0.0, "ch": 14}, {"t": 5.93, "dur": 0.436, "note": 32, "inst": "piano_v0_additive_0", "vel": 1.0, "bend": 0.0, "ch": 0}, {"t": 5.93, "dur": 0.218, "note": 76, "inst": "piano_v0_additive_0", "vel": 1.0, "bend": 0.0, "ch": 12}, {"t": 126.034, "dur": 0.21, "note": 49, "inst": "organ_v0_additive_1", "vel": 0.709, "bend": 0.0, "ch": 1}, {"t": 126.034, "dur": 0.21, "note": 60, "inst": "piano_v0_additive_0", "vel": 0.709, "bend": 0.0, "ch": 12}, {"t": 126.034, "dur": 0.21, "note": 61, "inst": "organ_v0_additive_1", "vel": 0.709, "bend": 0.0, "ch": 13}, {"t": 126.034, "dur": 0.21, "note": 64, "inst": "piano_v0_additive_0", "vel": 0.709, "bend": 0.0, "ch": 0}, {"t": 126.245, "dur": 0.105, "note": 49, "inst": "organ_v0_additive_1", "vel": 0.709, "bend": 0.0, "ch": 1}, {"t": 126.245, "dur": 0.105, "note": 61, "inst": "organ_v0_additive_1", "vel": 0.709, "bend": 0.0, "ch": 13}, {"t": 126.245, "dur": 0.21, "note": 64, "inst": "piano_v0_additive_0", "vel": 0.709, "bend": 0.0, "ch": 0}, {"t": 126.35, "dur": 0.105, "note": 61, "inst": "organ_v0_additive_1", "vel": 0.709, "bend": 0.0, "ch": 13}, {"t": 126.35, "dur": 0.105, "note": 64, "inst": "piano_v0_additive_0", "vel": 0.709, "bend": 0.0, "ch": 0}, {"t": 126.455, "dur": 0.105, "note": 58, "inst": "harpsichord_v0_additive_2", "vel": 0.709, "bend": 0.0, "ch": 10}, {"t": 126.455, "dur": 0.105, "note": 61, "inst": "organ_v0_additive_1", "vel": 0.709, "bend": 0.0, "ch": 13}, {"t": 126.455, "dur": 0.105, "note": 64, "inst": "piano_v0_additive_0", "vel": 0.709, "bend": 0.0, "ch": 0}, {"t": 126.455, "dur": 3.782, "note": 70, "inst": "harpsichord_v0_additive_2", "vel": 0.709, "bend": 0.0, "ch": 6}, {"t": 126.455, "dur": 0.105, "note": 72, "inst": "piano_v0_additive_0", "vel": 0.709, "bend": 0.0, "ch": 8}, {"t": 126.56, "dur": 0.105, "note": 56, "inst": "piano_v0_additive_0", "vel": 0.709, "bend": 0.0, "ch": 8}, {"t": 126.56, "dur": 0.105, "note": 61, "inst": "organ_v0_additive_1", "vel": 0.709, "bend": 0.0, "ch": 13}, {"t": 126.56, "dur": 0.105, "note": 64, "inst": "piano_v0_additive_0", "vel": 0.709, "bend": 0.0, "ch": 0}, {"t": 126.56, "dur": 0.105, "note": 73, "inst": "organ_v0_additive_1", "vel": 0.709, "bend": 0.0, "ch": 9}, {"t": 126.665, "dur": 0.21, "note": 56, "inst": "piano_v0_additive_0", "vel": 0.709, "bend": 0.0, "ch": 8}, {"t": 126.665, "dur": 0.21, "note": 58, "inst": "harpsichord_v0_additive_2", "vel": 0.709, "bend": 0.0, "ch": 10}, {"t": 126.665, "dur": 0.21, "note": 64, "inst": "piano_v0_additive_0", "vel": 0.709, "bend": 0.0, "ch": 0}, {"t": 126.665, "dur": 0.84, "note": 68, "inst": "piano_v0_additive_0", "vel": 0.709, "bend": 0.0, "ch": 4}, {"t": 126.665, "dur": 0.158, "note": 76, "inst": "piano_v0_additive_0", "vel": 0.709, "bend": 0.0, "ch": 12}, {"t": 126.822, "dur": 0.053, "note": 76, "inst": "piano_v0_additive_0", "vel": 0.709, "bend": 0.0, "ch": 12}, {"t": 126.875, "dur": 0.21, "note": 56, "inst": "piano_v0_additive_0", "vel": 0.709, "bend": 0.0, "ch": 8}, {"t": 126.875, "dur": 0.21, "note": 58, "inst": "harpsichord_v0_additive_2", "vel": 0.709, "bend": 0.0, "ch": 10}, {"t": 126.875, "dur": 0.21, "note": 65, "inst": "organ_v0_additive_1", "vel": 0.709, "bend": 0.0, "ch": 1}, {"t": 126.875, "dur": 0.63, "note": 77, "inst": "organ_v0_additive_1", "vel": 0.709, "bend": 0.0, "ch": 13}, {"t": 127.085, "dur": 0.105, "note": 56, "inst": "piano_v0_additive_0", "vel": 0.709, "bend": 0.0, "ch": 8}, {"t": 127.085, "dur": 0.105, "note": 58, "inst": "harpsichord_v0_additive_2", "vel": 0.709, "bend": 0.0, "ch": 10}, {"t": 127.085, "dur": 0.105, "note": 65, "inst": "organ_v0_additive_1", "vel": 0.709, "bend": 0.0, "ch": 1}, {"t": 127.19, "dur": 0.105, "note": 53, "inst": "organ_v0_additive_1", "vel": 0.709, "bend": 0.0, "ch": 5}, {"t": 127.19, "dur": 0.105, "note": 56, "inst": "piano_v0_additive_0", "vel": 0.709, "bend": 0.0, "ch": 8}, {"t": 127.19, "dur": 0.105, "note": 61, "inst": "organ_v0_additive_1", "vel": 0.709, "bend": 0.0, "ch": 13}, {"t": 127.295, "dur": 0.105, "note": 53, "inst": "organ_v0_additive_1", "vel": 0.709, "bend": 0.0, "ch": 5}, {"t": 127.295, "dur": 0.105, "note": 56, "inst": "piano_v0_additive_0", "vel": 0.709, "bend": 0.0, "ch": 8}, {"t": 127.295, "dur": 0.105, "note": 61, "inst": "organ_v0_additive_1", "vel": 0.709, "bend": 0.0, "ch": 13}, {"t": 127.4, "dur": 0.105, "note": 53, "inst": "organ_v0_additive_1", "vel": 0.709, "bend": 0.0, "ch": 5}, {"t": 127.4, "dur": 0.105, "note": 56, "inst": "piano_v0_additive_0", "vel": 0.709, "bend": 0.0, "ch": 8}, {"t": 127.4, "dur": 0.105, "note": 61, "inst": "organ_v0_additive_1", "vel": 0.709, "bend": 0.0, "ch": 13}, {"t": 127.505, "dur": 0.21, "note": 53, "inst": "organ_v0_additive_1", "vel": 0.709, "bend": 0.0, "ch": 5}, {"t": 127.505, "dur": 0.21, "note": 56, "inst": "piano_v0_additive_0", "vel": 0.709, "bend": 0.0, "ch": 8}, {"t": 127.505, "dur": 0.21, "note": 61, "inst": "organ_v0_additive_1", "vel": 0.709, "bend": 0.0, "ch": 13}, {"t": 127.505, "dur": 0.84, "note": 68, "inst": "piano_v0_additive_0", "vel": 0.709, "bend": 0.0, "ch": 4}, {"t": 127.505, "dur": 0.158, "note": 76, "inst": "piano_v0_additive_0", "vel": 0.709, "bend": 0.0, "ch": 12}, {"t": 127.663, "dur": 0.053, "note": 76, "inst": "piano_v0_additive_0", "vel": 0.709, "bend": 0.0, "ch": 12}, {"t": 127.715, "dur": 0.21, "note": 53, "inst": "organ_v0_additive_1", "vel": 0.709, "bend": 0.0, "ch": 5}, {"t": 127.715, "dur": 0.21, "note": 56, "inst": "piano_v0_additive_0", "vel": 0.709, "bend": 0.0, "ch": 8}, {"t": 127.715, "dur": 0.21, "note": 61, "inst": "organ_v0_additive_1", "vel": 0.709, "bend": 0.0, "ch": 13}, {"t": 127.715, "dur": 0.42, "note": 77, "inst": "organ_v0_additive_1", "vel": 0.709, "bend": 0.0, "ch": 13}, {"t": 128.136, "dur": 0.158, "note": 76, "inst": "piano_v0_additive_0", "vel": 0.709, "bend": 0.0, "ch": 12}, {"t": 128.293, "dur": 0.053, "note": 80, "inst": "piano_v0_additive_0", "vel": 0.709, "bend": 0.0, "ch": 0}, {"t": 128.346, "dur": 0.21, "note": 46, "inst": "harpsichord_v0_additive_2", "vel": 1.0, "bend": 0.0, "ch": 14}, {"t": 128.346, "dur": 0.21, "note": 52, "inst": "piano_v0_additive_0", "vel": 1.0, "bend": 0.0, "ch": 4}, {"t": 128.346, "dur": 0.21, "note": 58, "inst": "harpsichord_v0_additive_2", "vel": 1.0, "bend": 0.0, "ch": 10}, {"t": 128.346, "dur": 0.21, "note": 80, "inst": "piano_v0_additive_0", "vel": 0.709, "bend": 0.0, "ch": 0}, {"t": 128.556, "dur": 0.21, "note": 44, "inst": "piano_v0_additive_0", "vel": 1.0, "bend": 0.0, "ch": 12}, {"t": 128.556, "dur": 0.21, "note": 52, "inst": "piano_v0_additive_0", "vel": 1.0, "bend": 0.0, "ch": 4}, {"t": 128.556, "dur": 0.21, "note": 56, "inst": "piano_v0_additive_0", "vel": 1.0, "bend": 0.0, "ch": 8}, {"t": 128.556, "dur": 0.21, "note": 68, "inst": "piano_v0_additive_0", "vel": 0.709, "bend": 0.0, "ch": 4}, {"t": 128.556, "dur": 0.158, "note": 80, "inst": "piano_v0_additive_0", "vel": 0.709, "bend": 0.0, "ch": 0}, {"t": 128.713, "dur": 0.053, "note": 73, "inst": "organ_v0_additive_1", "vel": 0.709, "bend": 0.0, "ch": 9}, {"t": 128.766, "dur": 0.21, "note": 43, "inst": "celesta_v0_additive_3", "vel": 1.0, "bend": 0.0, "ch": 11}, {"t": 128.766, "dur": 0.21, "note": 52, "inst": "piano_v0_additive_0", "vel": 1.0, "bend": 0.0, "ch": 4}, {"t": 128.766, "dur": 0.21, "note": 55, "inst": "celesta_v0_additive_3", "vel": 1.0, "bend": 0.0, "ch": 7}, {"t": 128.766, "dur": 0.21, "note": 73, "inst": "organ_v0_additive_1", "vel": 0.709, "bend": 0.0, "ch": 9}, {"t": 128.976, "dur": 0.21, "note": 65, "inst": "organ_v0_additive_1", "vel": 0.709, "bend": 0.0, "ch": 1}, {"t": 128.976, "dur": 0.158, "note": 72, "inst": "piano_v0_additive_0", "vel": 0.709, "bend": 0.0, "ch": 8}, {"t": 129.134, "dur": 0.053, "note": 76, "inst": "piano_v0_additive_0", "vel": 0.709, "bend": 0.0, "ch": 12}, {"t": 129.186, "dur": 0.105, "note": 76, "inst": "piano_v0_additive_0", "vel": 0.709, "bend": 0.0, "ch": 12}, {"t": 129.291, "dur": 0.42, "note": 76, "inst": "piano_v0_additive_0", "vel": 0.709, "bend": 0.0, "ch": 12}, {"t": 129.396, "dur": 0.21, "note": 64, "inst": "piano_v0_additive_0", "vel": 0.709, "bend": 0.0, "ch": 0}, {"t": 129.606, "dur": 0.105, "note": 64, "inst": "piano_v0_additive_0", "vel": 0.709, "bend": 0.0, "ch": 0}, {"t": 129.711, "dur": 0.105, "note": 68, "inst": "piano_v0_additive_0", "vel": 0.709, "bend": 0.0, "ch": 4}, {"t": 129.816, "dur": 0.105, "note": 68, "inst": "piano_v0_additive_0", "vel": 0.709, "bend": 0.0, "ch": 4}, {"t": 129.921, "dur": 0.105, "note": 68, "inst": "piano_v0_additive_0", "vel": 0.709, "bend": 0.0, "ch": 4}, {"t": 130.026, "dur": 0.21, "note": 73, "inst": "organ_v0_additive_1", "vel": 0.709, "bend": 0.0, "ch": 9}, {"t": 130.237, "dur": 0.158, "note": 70, "inst": "harpsichord_v0_additive_2", "vel": 0.709, "bend": 0.0, "ch": 6}, {"t": 130.394, "dur": 0.053, "note": 73, "inst": "organ_v0_additive_1", "vel": 0.709, "bend": 0.0, "ch": 9}, {"t": 130.447, "dur": 0.263, "note": 73, "inst": "organ_v0_additive_1", "vel": 0.709, "bend": 0.0, "ch": 9}, {"t": 130.709, "dur": 0.053, "note": 73, "inst": "organ_v0_additive_1", "vel": 0.709, "bend": 0.0, "ch": 9}, {"t": 130.762, "dur": 0.053, "note": 82, "inst": "harpsichord_v0_additive_2", "vel": 0.709, "bend": 0.0, "ch": 2}, {"t": 130.814, "dur": 0.053, "note": 80, "inst": "piano_v0_additive_0", "vel": 0.709, "bend": 0.0, "ch": 0}, {"t": 130.867, "dur": 0.053, "note": 55, "inst": "celesta_v0_additive_3", "vel": 0.496, "bend": 0.0, "ch": 7}, {"t": 130.867, "dur": 0.053, "note": 58, "inst": "harpsichord_v0_additive_2", "vel": 0.496, "bend": 0.0, "ch": 10}, {"t": 130.867, "dur": 0.315, "note": 80, "inst": "piano_v0_additive_0", "vel": 0.709, "bend": 0.0, "ch": 0}, {"t": 130.919, "dur": 0.053, "note": 64, "inst": "piano_v0_additive_0", "vel": 0.709, "bend": 0.0, "ch": 0}, {"t": 130.972, "dur": 0.053, "note": 55, "inst": "celesta_v0_additive_3", "vel": 0.709, "bend": 0.0, "ch": 7}, {"t": 130.972, "dur": 0.053, "note": 58, "inst": "harpsichord_v0_additive_2", "vel": 0.709, "bend": 0.0, "ch": 10}, {"t": 131.024, "dur": 0.053, "note": 64, "inst": "piano_v0_additive_0", "vel": 0.709, "bend": 0.0, "ch": 0}, {"t": 131.077, "dur": 0.053, "note": 55, "inst": "celesta_v0_additive_3", "vel": 0.709, "bend": 0.0, "ch": 7}, {"t": 131.077, "dur": 0.053, "note": 58, "inst": "harpsichord_v0_additive_2", "vel": 0.709, "bend": 0.0, "ch": 10}, {"t": 131.13, "dur": 0.053, "note": 64, "inst": "piano_v0_additive_0", "vel": 0.709, "bend": 0.0, "ch": 0}, {"t": 131.182, "dur": 0.053, "note": 55, "inst": "celesta_v0_additive_3", "vel": 0.709, "bend": 0.0, "ch": 7}, {"t": 131.182, "dur": 0.053, "note": 58, "inst": "harpsichord_v0_additive_2", "vel": 0.709, "bend": 0.0, "ch": 10}, {"t": 131.182, "dur": 0.053, "note": 82, "inst": "harpsichord_v0_additive_2", "vel": 0.709, "bend": 0.0, "ch": 2}, {"t": 131.235, "dur": 0.053, "note": 64, "inst": "piano_v0_additive_0", "vel": 0.709, "bend": 0.0, "ch": 0}, {"t": 131.235, "dur": 0.053, "note": 80, "inst": "piano_v0_additive_0", "vel": 0.709, "bend": 0.0, "ch": 0}, {"t": 131.287, "dur": 0.053, "note": 55, "inst": "celesta_v0_additive_3", "vel": 0.709, "bend": 0.0, "ch": 7}, {"t": 131.287, "dur": 0.053, "note": 58, "inst": "harpsichord_v0_additive_2", "vel": 0.709, "bend": 0.0, "ch": 10}, {"t": 131.34, "dur": 0.053, "note": 64, "inst": "piano_v0_additive_0", "vel": 0.709, "bend": 0.0, "ch": 0}, {"t": 131.392, "dur": 0.053, "note": 55, "inst": "celesta_v0_additive_3", "vel": 0.709, "bend": 0.0, "ch": 7}, {"t": 131.392, "dur": 0.053, "note": 58, "inst": "harpsichord_v0_additive_2", "vel": 0.709, "bend": 0.0, "ch": 10}, {"t": 131.445, "dur": 0.053, "note": 64, "inst": "piano_v0_additive_0", "vel": 0.709, "bend": 0.0, "ch": 0}, {"t": 131.497, "dur": 0.053, "note": 56, "inst": "piano_v0_additive_0", "vel": 0.709, "bend": 0.0, "ch": 8}, {"t": 131.497, "dur": 0.053, "note": 60, "inst": "piano_v0_additive_0", "vel": 0.709, "bend": 0.0, "ch": 12}, {"t": 131.497, "dur": 0.105, "note": 68, "inst": "piano_v0_additive_0", "vel": 0.709, "bend": 0.0, "ch": 4}, {"t": 131.55, "dur": 0.053, "note": 64, "inst": "piano_v0_additive_0", "vel": 0.709, "bend": 0.0, "ch": 0}, {"t": 131.602, "dur": 0.053, "note": 56, "inst": "piano_v0_additive_0", "vel": 0.709, "bend": 0.0, "ch": 8}, {"t": 131.602, "dur": 0.053, "note": 60, "inst": "piano_v0_additive_0", "vel": 0.709, "bend": 0.0, "ch": 12}, {"t": 131.602, "dur": 0.105, "note": 68, "inst": "piano_v0_additive_0", "vel": 0.709, "bend": 0.0, "ch": 4}, {"t": 131.655, "dur": 0.053, "note": 64, "inst": "piano_v0_additive_0", "vel": 0.709, "bend": 0.0, "ch": 0}, {"t": 131.707, "dur": 0.63, "note": 58, "inst": "harpsichord_v0_additive_2", "vel": 0.709, "bend": 0.0, "ch": 10}, {"t": 131.707, "dur": 0.053, "note": 58, "inst": "harpsichord_v0_additive_2", "vel": 0.709, "bend": 0.0, "ch": 10}, {"t": 131.707, "dur": 0.63, "note": 61, "inst": "organ_v0_additive_1", "vel": 0.709, "bend": 0.0, "ch": 13}, {"t": 131.707, "dur": 0.053, "note": 61, "inst": "organ_v0_additive_1", "vel": 0.709, "bend": 0.0, "ch": 13}, {"t": 131.707, "dur": 0.158, "note": 68, "inst": "piano_v0_additive_0", "vel": 0.709, "bend": 0.0, "ch": 4}, {"t": 131.76, "dur": 0.053, "note": 64, "inst": "piano_v0_additive_0", "vel": 0.709, "bend": 0.0, "ch": 0}, {"t": 131.812, "dur": 0.053, "note": 58, "inst": "harpsichord_v0_additive_2", "vel": 0.709, "bend": 0.0, "ch": 10}, {"t": 131.812, "dur": 0.053, "note": 61, "inst": "organ_v0_additive_1", "vel": 0.709, "bend": 0.0, "ch": 13}, {"t": 131.865, "dur": 0.053, "note": 64, "inst": "piano_v0_additive_0", "vel": 0.709, "bend": 0.0, "ch": 0}, {"t": 131.865, "dur": 0.053, "note": 67, "inst": "celesta_v0_additive_3", "vel": 0.709, "bend": 0.0, "ch": 3}, {"t": 131.917, "dur": 0.053, "note": 58, "inst": "harpsichord_v0_additive_2", "vel": 0.709, "bend": 0.0, "ch": 10}, {"t": 131.917, "dur": 0.053, "note": 61, "inst": "organ_v0_additive_1", "vel": 0.709, "bend": 0.0, "ch": 13}, {"t": 131.917, "dur": 0.42, "note": 70, "inst": "harpsichord_v0_additive_2", "vel": 0.709, "bend": 0.0, "ch": 6}, {"t": 131.97, "dur": 0.053, "note": 64, "inst": "piano_v0_additive_0", "vel": 0.709, "bend": 0.0, "ch": 0}, {"t": 132.022, "dur": 0.053, "note": 58, "inst": "harpsichord_v0_additive_2", "vel": 0.709, "bend": 0.0, "ch": 10}, {"t": 132.022, "dur": 0.053, "note": 61, "inst": "organ_v0_additive_1", "vel": 0.709, "bend": 0.0, "ch": 13}, {"t": 132.075, "dur": 0.053, "note": 64, "inst": "piano_v0_additive_0", "vel": 0.709, "bend": 0.0, "ch": 0}, {"t": 132.128, "dur": 0.053, "note": 58, "inst": "harpsichord_v0_additive_2", "vel": 0.709, "bend": 0.0, "ch": 10}, {"t": 132.128, "dur": 0.053, "note": 61, "inst": "organ_v0_additive_1", "vel": 0.709, "bend": 0.0, "ch": 13}, {"t": 132.18, "dur": 0.053, "note": 64, "inst": "piano_v0_additive_0", "vel": 0.709, "bend": 0.0, "ch": 0}, {"t": 132.233, "dur": 0.053, "note": 56, "inst": "piano_v0_additive_0", "vel": 0.709, "bend": 0.0, "ch": 8}, {"t": 132.233, "dur": 0.053, "note": 60, "inst": "piano_v0_additive_0", "vel": 0.709, "bend": 0.0, "ch": 12}, {"t": 132.285, "dur": 0.053, "note": 64, "inst": "piano_v0_additive_0", "vel": 0.709, "bend": 0.0, "ch": 0}, {"t": 132.338, "dur": 0.053, "note": 55, "inst": "celesta_v0_additive_3", "vel": 0.709, "bend": 0.0, "ch": 7}, {"t": 132.338, "dur": 0.053, "note": 58, "inst": "harpsichord_v0_additive_2", "vel": 0.709, "bend": 0.0, "ch": 10}, {"t": 132.338, "dur": 0.21, "note": 64, "inst": "piano_v0_additive_0", "vel": 1.0, "bend": 0.0, "ch": 0}, {"t": 132.338, "dur": 0.158, "note": 70, "inst": "harpsichord_v0_additive_2", "vel": 1.0, "bend": 0.0, "ch": 6}, {"t": 132.39, "dur": 0.053, "note": 64, "inst": "piano_v0_additive_0", "vel": 0.709, "bend": 0.0, "ch": 0}, {"t": 132.443, "dur": 0.053, "note": 55, "inst": "celesta_v0_additive_3", "vel": 0.709, "bend": 0.0, "ch": 7}, {"t": 132.443, "dur": 0.053, "note": 58, "inst": "harpsichord_v0_additive_2", "vel": 0.709, "bend": 0.0, "ch": 10}, {"t": 132.495, "dur": 0.053, "note": 64, "inst": "piano_v0_additive_0", "vel": 0.709, "bend": 0.0, "ch": 0}, {"t": 132.495, "dur": 0.053, "note": 68, "inst": "piano_v0_additive_0", "vel": 1.0, "bend": 0.0, "ch": 4}, {"t": 132.548, "dur": 0.053, "note": 55, "inst": "celesta_v0_additive_3", "vel": 0.496, "bend": 0.0, "ch": 7}, {"t": 132.548, "dur": 0.053, "note": 58, "inst": "harpsichord_v0_additive_2", "vel": 0.496, "bend": 0.0, "ch": 10}, {"t": 132.548, "dur": 0.21, "note": 61, "inst": "organ_v0_additive_1", "vel": 1.0, "bend": 0.0, "ch": 13}, {"t": 132.548, "dur": 0.21, "note": 64, "inst": "piano_v0_additive_0", "vel": 1.0, "bend": 0.0, "ch": 0}, {"t": 132.548, "dur": 0.158, "note": 68, "inst": "piano_v0_additive_0", "vel": 1.0, "bend": 0.0, "ch": 4}, {"t": 132.6, "dur": 0.053, "note": 64, "inst": "piano_v0_additive_0", "vel": 0.496, "bend": 0.0, "ch": 0}, {"t": 132.653, "dur": 0.053, "note": 55, "inst": "celesta_v0_additive_3", "vel": 0.709, "bend": 0.0, "ch": 7}, {"t": 132.653, "dur": 0.053, "note": 58, "inst": "harpsichord_v0_additive_2", "vel": 0.709, "bend": 0.0, "ch": 10}, {"t": 132.705, "dur": 0.053, "note": 64, "inst": "piano_v0_additive_0", "vel": 0.709, "bend": 0.0, "ch": 0}, {"t": 132.705, "dur": 0.053, "note": 67, "inst": "celesta_v0_additive_3", "vel": 1.0, "bend": 0.0, "ch": 3}, {"t": 132.758, "dur": 0.053, "note": 55, "inst": "celesta_v0_additive_3", "vel": 0.709, "bend": 0.0, "ch": 7}, {"t": 132.758, "dur": 0.053, "note": 58, "inst": "harpsichord_v0_additive_2", "vel": 0.709, "bend": 0.0, "ch": 10}, {"t": 132.758, "dur": 0.21, "note": 58, "inst": "harpsichord_v0_additive_2", "vel": 1.0, "bend": 0.0, "ch": 10}, {"t": 132.758, "dur": 0.21, "note": 64, "inst": "piano_v0_additive_0", "vel": 1.0, "bend": 0.0, "ch": 0}, {"t": 132.758, "dur": 0.158, "note": 70, "inst": "harpsichord_v0_additive_2", "vel": 1.0, "bend": 0.0, "ch": 6}, {"t": 132.81, "dur": 0.053, "note": 64, "inst": "piano_v0_additive_0", "vel": 0.709, "bend": 0.0, "ch": 0}, {"t": 132.863, "dur": 0.053, "note": 55, "inst": "celesta_v0_additive_3", "vel": 0.709, "bend": 0.0, "ch": 7}, {"t": 132.863, "dur": 0.053, "note": 58, "inst": "harpsichord_v0_additive_2", "vel": 0.709, "bend": 0.0, "ch": 10}, {"t": 132.915, "dur": 0.053, "note": 64, "inst": "piano_v0_additive_0", "vel": 0.709, "bend": 0.0, "ch": 0}, {"t": 132.915, "dur": 0.053, "note": 68, "inst": "piano_v0_additive_0", "vel": 1.0, "bend": 0.0, "ch": 4}, {"t": 132.968, "dur": 0.053, "note": 55, "inst": "celesta_v0_additive_3", "vel": 0.709, "bend": 0.0, "ch": 7}, {"t": 132.968, "dur": 0.21, "note": 58, "inst": "harpsichord_v0_additive_2", "vel": 1.0, "bend": 0.0, "ch": 10}, {"t": 132.968, "dur": 0.053, "note": 58, "inst": "harpsichord_v0_additive_2", "vel": 0.709, "bend": 0.0, "ch": 10}, {"t": 132.968, "dur": 0.21, "note": 64, "inst": "piano_v0_additive_0", "vel": 1.0, "bend": 0.0, "ch": 0}, {"t": 132.968, "dur": 0.158, "note": 70, "inst": "harpsichord_v0_additive_2", "vel": 1.0, "bend": 0.0, "ch": 6}, {"t": 133.02, "dur": 0.053, "note": 64, "inst": "piano_v0_additive_0", "vel": 0.709, "bend": 0.0, "ch": 0}, {"t": 133.073, "dur": 0.053, "note": 55, "inst": "celesta_v0_additive_3", "vel": 0.709, "bend": 0.0, "ch": 7}, {"t": 133.073, "dur": 0.053, "note": 58, "inst": "harpsichord_v0_additive_2", "vel": 0.709, "bend": 0.0, "ch": 10}, {"t": 133.126, "dur": 0.053, "note": 64, "inst": "piano_v0_additive_0", "vel": 0.709, "bend": 0.0, "ch": 0}, {"t": 133.126, "dur": 0.053, "note": 70, "inst": "harpsichord_v0_additive_2", "vel": 0.709, "bend": 0.0, "ch": 6}, {"t": 133.178, "dur": 0.053, "note": 56, "inst": "piano_v0_additive_0", "vel": 0.709, "bend": 0.0, "ch": 8}, {"t": 133.178, "dur": 0.053, "note": 60, "inst": "piano_v0_additive_0", "vel": 0.709, "bend": 0.0, "ch": 12}, {"t": 133.178, "dur": 0.053, "note": 67, "inst": "celesta_v0_additive_3", "vel": 0.496, "bend": 0.0, "ch": 3}, {"t": 133.231, "dur": 0.053, "note": 64, "inst": "piano_v0_additive_0", "vel": 0.709, "bend": 0.0, "ch": 0}, {"t": 133.231, "dur": 0.053, "note": 70, "inst": "harpsichord_v0_additive_2", "vel": 0.496, "bend": 0.0, "ch": 6}, {"t": 133.283, "dur": 0.053, "note": 56, "inst": "piano_v0_additive_0", "vel": 0.709, "bend": 0.0, "ch": 8}, {"t": 133.283, "dur": 0.053, "note": 58, "inst": "harpsichord_v0_additive_2", "vel": 0.709, "bend": 0.0, "ch": 10}, {"t": 133.283, "dur": 0.053, "note": 73, "inst": "organ_v0_additive_1", "vel": 0.709, "bend": 0.0, "ch": 9}, {"t": 133.336, "dur": 0.053, "note": 64, "inst": "piano_v0_additive_0", "vel": 0.709, "bend": 0.0, "ch": 0}, {"t": 133.336, "dur": 0.053, "note": 76, "inst": "piano_v0_additive_0", "vel": 0.709, "bend": 0.0, "ch": 12}, {"t": 133.388, "dur": 0.053, "note": 58, "inst": "harpsichord_v0_additive_2", "vel": 0.709, "bend": 0.0, "ch": 10}, {"t": 133.388, "dur": 0.053, "note": 61, "inst": "organ_v0_additive_1", "vel": 0.709, "bend": 0.0, "ch": 13}, {"t": 133.388, "dur": 0.053, "note": 76, "inst": "piano_v0_additive_0", "vel": 0.709, "bend": 0.0, "ch": 12}, {"t": 133.441, "dur": 0.053, "note": 64, "inst": "piano_v0_additive_0", "vel": 0.709, "bend": 0.0, "ch": 0}, {"t": 133.441, "dur": 0.053, "note": 73, "inst": "organ_v0_additive_1", "vel": 0.709, "bend": 0.0, "ch": 9}, {"t": 133.493, "dur": 0.053, "note": 58, "inst": "harpsichord_v0_additive_2", "vel": 0.709, "bend": 0.0, "ch": 10}, {"t": 133.493, "dur": 0.053, "note": 61, "inst": "organ_v0_additive_1", "vel": 0.709, "bend": 0.0, "ch": 13}, {"t": 133.493, "dur": 0.053, "note": 70, "inst": "harpsichord_v0_additive_2", "vel": 0.709, "bend": 0.0, "ch": 6}, {"t": 133.546, "dur": 0.053, "note": 64, "inst": "piano_v0_additive_0", "vel": 0.709, "bend": 0.0, "ch": 0}, {"t": 133.546, "dur": 0.053, "note": 70, "inst": "harpsichord_v0_additive_2", "vel": 0.709, "bend": 0.0, "ch": 6}, {"t": 133.598, "dur": 0.053, "note": 58, "inst": "harpsichord_v0_additive_2", "vel": 0.709, "bend": 0.0, "ch": 10}, {"t": 133.598, "dur": 0.053, "note": 61, "inst": "organ_v0_additive_1", "vel": 0.709, "bend": 0.0, "ch": 13}, {"t": 133.598, "dur": 0.053, "note": 73, "inst": "organ_v0_additive_1", "vel": 0.709, "bend": 0.0, "ch": 9}, {"t": 133.651, "dur": 0.053, "note": 64, "inst": "piano_v0_additive_0", "vel": 0.709, "bend": 0.0, "ch": 0}, {"t": 133.651, "dur": 0.053, "note": 79, "inst": "celesta_v0_additive_3", "vel": 0.709, "bend": 0.0, "ch": 15}, {"t": 133.703, "dur": 0.053, "note": 58, "inst": "harpsichord_v0_additive_2", "vel": 0.709, "bend": 0.0, "ch": 10}, {"t": 133.703, "dur": 0.053, "note": 61, "inst": "organ_v0_additive_1", "vel": 0.709, "bend": 0.0, "ch": 13}, {"t": 133.703, "dur": 0.053, "note": 82, "inst": "harpsichord_v0_additive_2", "vel": 0.709, "bend": 0.0, "ch": 2}, {"t": 133.756, "dur": 0.053, "note": 64, "inst": "piano_v0_additive_0", "vel": 0.709, "bend": 0.0, "ch": 0}, {"t": 133.756, "dur": 0.053, "note": 85, "inst": "organ_v0_additive_1", "vel": 0.709, "bend": 0.0, "ch": 5}, {"t": 133.808, "dur": 0.053, "note": 58, "inst": "harpsichord_v0_additive_2", "vel": 0.709, "bend": 0.0, "ch": 10}, {"t": 133.808, "dur": 0.053, "note": 61, "inst": "organ_v0_additive_1", "vel": 0.709, "bend": 0.0, "ch": 13}, {"t": 133.808, "dur": 0.053, "note": 82, "inst": "harpsichord_v0_additive_2", "vel": 0.709, "bend": 0.0, "ch": 2}, {"t": 133.861, "dur": 0.053, "note": 64, "inst": "piano_v0_additive_0", "vel": 0.709, "bend": 0.0, "ch": 0}, {"t": 133.861, "dur": 0.053, "note": 82, "inst": "harpsichord_v0_additive_2", "vel": 0.709, "bend": 0.0, "ch": 2}, {"t": 133.913, "dur": 0.053, "note": 56, "inst": "piano_v0_additive_0", "vel": 0.709, "bend": 0.0, "ch": 8}, {"t": 133.913, "dur": 0.053, "note": 58, "inst": "harpsichord_v0_additive_2", "vel": 0.709, "bend": 0.0, "ch": 10}, {"t": 133.913, "dur": 0.053, "note": 80, "inst": "piano_v0_additive_0", "vel": 0.709, "bend": 0.0, "ch": 0}, {"t": 133.966, "dur": 0.053, "note": 64, "inst": "piano_v0_additive_0", "vel": 0.709, "bend": 0.0, "ch": 0}, {"t": 133.966, "dur": 0.053, "note": 79, "inst": "celesta_v0_additive_3", "vel": 0.709, "bend": 0.0, "ch": 15}, {"t": 134.018, "dur": 0.053, "note": 55, "inst": "celesta_v0_additive_3", "vel": 0.709, "bend": 0.0, "ch": 7}, {"t": 134.018, "dur": 0.053, "note": 58, "inst": "harpsichord_v0_additive_2", "vel": 0.709, "bend": 0.0, "ch": 10}, {"t": 134.018, "dur": 0.053, "note": 82, "inst": "harpsichord_v0_additive_2", "vel": 0.709, "bend": 0.0, "ch": 2}, {"t": 134.071, "dur": 0.053, "note": 64, "inst": "piano_v0_additive_0", "vel": 0.709, "bend": 0.0, "ch": 0}, {"t": 134.071, "dur": 0.053, "note": 85, "inst": "organ_v0_additive_1", "vel": 0.709, "bend": 0.0, "ch": 5}, {"t": 134.124, "dur": 0.053, "note": 55, "inst": "celesta_v0_additive_3", "vel": 0.709, "bend": 0.0, "ch": 7}, {"t": 134.124, "dur": 0.053, "note": 58, "inst": "harpsichord_v0_additive_2", "vel": 0.709, "bend": 0.0, "ch": 10}, {"t": 134.124, "dur": 0.053, "note": 88, "inst": "piano_v0_additive_0", "vel": 0.709, "bend": 0.0, "ch": 8}, {"t": 134.176, "dur": 0.053, "note": 64, "inst": "piano_v0_additive_0", "vel": 0.709, "bend": 0.0, "ch": 0}, {"t": 134.176, "dur": 0.053, "note": 88, "inst": "piano_v0_additive_0", "vel": 0.709, "bend": 0.0, "ch": 8}, {"t": 134.229, "dur": 0.053, "note": 56, "inst": "piano_v0_additive_0", "vel": 0.992, "bend": 0.0, "ch": 8}, {"t": 134.229, "dur": 0.053, "note": 58, "inst": "harpsichord_v0_additive_2", "vel": 0.992, "bend": 0.0, "ch": 10}, {"t": 134.229, "dur": 0.053, "note": 88, "inst": "piano_v0_additive_0", "vel": 0.709, "bend": 0.0, "ch": 8}, {"t": 134.281, "dur": 0.053, "note": 64, "inst": "piano_v0_additive_0", "vel": 1.0, "bend": 0.0, "ch": 0}, {"t": 134.281, "dur": 0.053, "note": 85, "inst": "organ_v0_additive_1", "vel": 0.709, "bend": 0.0, "ch": 5}, {"t": 134.334, "dur": 0.053, "note": 67, "inst": "celesta_v0_additive_3", "vel": 1.0, "bend": 0.0, "ch": 3}, {"t": 134.334, "dur": 0.053, "note": 82, "inst": "harpsichord_v0_additive_2", "vel": 0.709, "bend": 0.0, "ch": 2}, {"t": 134.386, "dur": 0.053, "note": 68, "inst": "piano_v0_additive_0", "vel": 1.0, "bend": 0.0, "ch": 4}, {"t": 134.386, "dur": 0.053, "note": 82, "inst": "harpsichord_v0_additive_2", "vel": 0.709, "bend": 0.0, "ch": 2}, {"t": 134.439, "dur": 0.053, "note": 64, "inst": "piano_v0_additive_0", "vel": 1.0, "bend": 0.0, "ch": 0}, {"t": 134.439, "dur": 0.053, "note": 82, "inst": "harpsichord_v0_additive_2", "vel": 0.709, "bend": 0.0, "ch": 2}, {"t": 134.491, "dur": 0.053, "note": 58, "inst": "harpsichord_v0_additive_2", "vel": 1.0, "bend": 0.0, "ch": 10}, {"t": 134.491, "dur": 0.053, "note": 82, "inst": "harpsichord_v0_additive_2", "vel": 0.709, "bend": 0.0, "ch": 2}, {"t": 134.544, "dur": 0.053, "note": 58, "inst": "harpsichord_v0_additive_2", "vel": 1.0, "bend": 0.0, "ch": 10}, {"t": 134.544, "dur": 0.053, "note": 80, "inst": "piano_v0_additive_0", "vel": 0.709, "bend": 0.0, "ch": 0}, {"t": 134.596, "dur": 0.053, "note": 56, "inst": "piano_v0_additive_0", "vel": 1.0, "bend": 0.0, "ch": 8}, {"t": 134.596, "dur": 0.053, "note": 79, "inst": "celesta_v0_additive_3", "vel": 0.709, "bend": 0.0, "ch": 15}, {"t": 134.649, "dur": 0.053, "note": 52, "inst": "piano_v0_additive_0", "vel": 0.992, "bend": 0.0, "ch": 4}, {"t": 134.649, "dur": 0.053, "note": 55, "inst": "celesta_v0_additive_3", "vel": 0.992, "bend": 0.0, "ch": 7}, {"t": 134.649, "dur": 0.053, "note": 85, "inst": "organ_v0_additive_1", "vel": 0.709, "bend": 0.0, "ch": 5}, {"t": 134.701, "dur": 0.053, "note": 58, "inst": "harpsichord_v0_additive_2", "vel": 1.0, "bend": 0.0, "ch": 10}, {"t": 134.701, "dur": 0.053, "note": 82, "inst": "harpsichord_v0_additive_2", "vel": 0.709, "bend": 0.0, "ch": 2}, {"t": 134.754, "dur": 0.053, "note": 61, "inst": "organ_v0_additive_1", "vel": 1.0, "bend": 0.0, "ch": 13}, {"t": 134.754, "dur": 0.053, "note": 80, "inst": "piano_v0_additive_0", "vel": 0.709, "bend": 0.0, "ch": 0}, {"t": 134.806, "dur": 0.053, "note": 52, "inst": "piano_v0_additive_0", "vel": 1.0, "bend": 0.0, "ch": 4}, {"t": 134.806, "dur": 0.053, "note": 79, "inst": "celesta_v0_additive_3", "vel": 0.709, "bend": 0.0, "ch": 15}, {"t": 134.859, "dur": 0.053, "note": 52, "inst": "piano_v0_additive_0", "vel": 1.0, "bend": 0.0, "ch": 4}, {"t": 134.859, "dur": 0.053, "note": 82, "inst": "harpsichord_v0_additive_2", "vel": 0.756, "bend": 0.0, "ch": 2}, {"t": 134.911, "dur": 0.053, "note": 56, "inst": "piano_v0_additive_0", "vel": 1.0, "bend": 0.0, "ch": 8}, {"t": 134.911, "dur": 0.053, "note": 79, "inst": "celesta_v0_additive_3", "vel": 0.756, "bend": 0.0, "ch": 15}, {"t": 134.964, "dur": 0.053, "note": 58, "inst": "harpsichord_v0_additive_2", "vel": 1.0, "bend": 0.0, "ch": 10}, {"t": 134.964, "dur": 0.053, "note": 76, "inst": "piano_v0_additive_0", "vel": 0.756, "bend": 0.0, "ch": 12}, {"t": 135.017, "dur": 0.053, "note": 52, "inst": "piano_v0_additive_0", "vel": 1.0, "bend": 0.0, "ch": 4}, {"t": 135.017, "dur": 0.053, "note": 76, "inst": "piano_v0_additive_0", "vel": 0.756, "bend": 0.0, "ch": 12}, {"t": 135.069, "dur": 0.053, "note": 52, "inst": "piano_v0_additive_0", "vel": 0.992, "bend": 0.0, "ch": 4}, {"t": 135.069, "dur": 0.053, "note": 56, "inst": "piano_v0_additive_0", "vel": 0.992, "bend": 0.0, "ch": 8}, {"t": 135.069, "dur": 0.21, "note": 76, "inst": "piano_v0_additive_0", "vel": 0.709, "bend": 0.0, "ch": 12}, {"t": 135.122, "dur": 0.053, "note": 58, "inst": "harpsichord_v0_additive_2", "vel": 0.992, "bend": 0.0, "ch": 10}, {"t": 135.174, "dur": 0.053, "note": 64, "inst": "piano_v0_additive_0", "vel": 0.992, "bend": 0.0, "ch": 0}, {"t": 135.227, "dur": 0.053, "note": 64, "inst": "piano_v0_additive_0", "vel": 0.992, "bend": 0.0, "ch": 0}, {"t": 135.279, "dur": 0.053, "note": 58, "inst": "harpsichord_v0_additive_2", "vel": 0.992, "bend": 0.0, "ch": 10}, {"t": 135.279, "dur": 0.42, "note": 70, "inst": "harpsichord_v0_additive_2", "vel": 0.709, "bend": 0.0, "ch": 6}, {"t": 135.332, "dur": 0.053, "note": 56, "inst": "piano_v0_additive_0", "vel": 0.992, "bend": 0.0, "ch": 8}, {"t": 135.384, "dur": 0.053, "note": 53, "inst": "organ_v0_additive_1", "vel": 0.992, "bend": 0.0, "ch": 5}, {"t": 135.437, "dur": 0.053, "note": 52, "inst": "piano_v0_additive_0", "vel": 0.992, "bend": 0.0, "ch": 4}, {"t": 135.489, "dur": 0.053, "note": 44, "inst": "piano_v0_additive_0", "vel": 0.992, "bend": 0.0, "ch": 12}, {"t": 135.489, "dur": 0.053, "note": 48, "inst": "piano_v0_additive_0", "vel": 0.992, "bend": 0.0, "ch": 0}, {"t": 135.542, "dur": 0.053, "note": 52, "inst": "piano_v0_additive_0", "vel": 0.992, "bend": 0.0, "ch": 4}, {"t": 135.594, "dur": 0.053, "note": 56, "inst": "piano_v0_additive_0", "vel": 0.992, "bend": 0.0, "ch": 8}, {"t": 135.647, "dur": 0.053, "note": 48, "inst": "piano_v0_additive_0", "vel": 0.992, "bend": 0.0, "ch": 0}, {"t": 135.699, "dur": 0.053, "note": 49, "inst": "organ_v0_additive_1", "vel": 0.992, "bend": 0.0, "ch": 1}, {"t": 135.699, "dur": 0.105, "note": 72, "inst": "piano_v0_additive_0", "vel": 0.709, "bend": 0.0, "ch": 8}, {"t": 135.752, "dur": 0.053, "note": 52, "inst": "piano_v0_additive_0", "vel": 0.992, "bend": 0.0, "ch": 4}, {"t": 135.804, "dur": 0.053, "note": 56, "inst": "piano_v0_additive_0", "vel": 0.992, "bend": 0.0, "ch": 8}, {"t": 135.804, "dur": 0.105, "note": 68, "inst": "piano_v0_additive_0", "vel": 0.709, "bend": 0.0, "ch": 4}, {"t": 135.857, "dur": 0.053, "note": 49, "inst": "organ_v0_additive_1", "vel": 0.992, "bend": 0.0, "ch": 1}, {"t": 135.909, "dur": 0.21, "note": 68, "inst": "piano_v0_additive_0", "vel": 0.709, "bend": 0.0, "ch": 4}, {"t": 136.12, "dur": 0.21, "note": 44, "inst": "piano_v0_additive_0", "vel": 0.992, "bend": 0.0, "ch": 12}, {"t": 136.12, "dur": 0.21, "note": 49, "inst": "organ_v0_additive_1", "vel": 0.992, "bend": 0.0, "ch": 1}, {"t": 136.12, "dur": 0.21, "note": 53, "inst": "organ_v0_additive_1", "vel": 0.992, "bend": 0.0, "ch": 5}, {"t": 136.12, "dur": 0.105, "note": 67, "inst": "celesta_v0_additive_3", "vel": 0.709, "bend": 0.0, "ch": 3}, {"t": 136.225, "dur": 0.105, "note": 68, "inst": "piano_v0_additive_0", "vel": 0.709, "bend": 0.0, "ch": 4}, {"t": 136.33, "dur": 0.105, "note": 68, "inst": "piano_v0_additive_0", "vel": 0.756, "bend": 0.0, "ch": 4}, {"t": 136.435, "dur": 0.105, "note": 72, "inst": "piano_v0_additive_0", "vel": 0.756, "bend": 0.0, "ch": 8}, {"t": 136.54, "dur": 0.21, "note": 49, "inst": "organ_v0_additive_1", "vel": 0.992, "bend": 0.0, "ch": 1}, {"t": 136.54, "dur": 0.21, "note": 56, "inst": "piano_v0_additive_0", "vel": 0.992, "bend": 0.0, "ch": 8}, {"t": 136.54, "dur": 0.21, "note": 65, "inst": "organ_v0_additive_1", "vel": 0.992, "bend": 0.0, "ch": 1}, {"t": 136.54, "dur": 0.053, "note": 73, "inst": "organ_v0_additive_1", "vel": 0.709, "bend": 0.0, "ch": 9}, {"t": 136.592, "dur": 0.053, "note": 73, "inst": "organ_v0_additive_1", "vel": 0.709, "bend": 0.0, "ch": 9}, {"t": 136.645, "dur": 0.053, "note": 73, "inst": "organ_v0_additive_1", "vel": 0.709, "bend": 0.0, "ch": 9}, {"t": 136.697, "dur": 0.053, "note": 76, "inst": "piano_v0_additive_0", "vel": 0.709, "bend": 0.0, "ch": 12}, {"t": 136.75, "dur": 0.053, "note": 73, "inst": "organ_v0_additive_1", "vel": 0.496, "bend": 0.0, "ch": 9}, {"t": 136.802, "dur": 0.053, "note": 76, "inst": "piano_v0_additive_0", "vel": 0.496, "bend": 0.0, "ch": 12}, {"t": 136.855, "dur": 0.053, "note": 77, "inst": "organ_v0_additive_1", "vel": 0.709, "bend": 0.0, "ch": 13}, {"t": 136.907, "dur": 0.053, "note": 76, "inst": "piano_v0_additive_0", "vel": 0.756, "bend": 0.0, "ch": 12}, {"t": 136.96, "dur": 0.21, "note": 53, "inst": "organ_v0_additive_1", "vel": 0.992, "bend": 0.0, "ch": 5}, {"t": 136.96, "dur": 0.21, "note": 65, "inst": "organ_v0_additive_1", "vel": 0.992, "bend": 0.0, "ch": 1}, {"t": 136.96, "dur": 0.263, "note": 70, "inst": "harpsichord_v0_additive_2", "vel": 0.709, "bend": 0.0, "ch": 6}, {"t": 137.17, "dur": 0.105, "note": 53, "inst": "organ_v0_additive_1", "vel": 0.992, "bend": 0.0, "ch": 5}, {"t": 137.17, "dur": 0.105, "note": 65, "inst": "organ_v0_additive_1", "vel": 0.992, "bend": 0.0, "ch": 1}, {"t": 137.223, "dur": 0.026, "note": 72, "inst": "piano_v0_additive_0", "vel": 0.709, "bend": 0.0, "ch": 8}, {"t": 137.249, "dur": 0.026, "note": 70, "inst": "harpsichord_v0_additive_2", "vel": 0.709, "bend": 0.0, "ch": 6}, {"t": 137.275, "dur": 0.105, "note": 65, "inst": "organ_v0_additive_1", "vel": 0.992, "bend": 0.0, "ch": 1}, {"t": 137.275, "dur": 0.105, "note": 68, "inst": "piano_v0_additive_0", "vel": 0.992, "bend": 0.0, "ch": 4}, {"t": 137.275, "dur": 0.026, "note": 72, "inst": "piano_v0_additive_0", "vel": 0.709, "bend": 0.0, "ch": 8}, {"t": 137.301, "dur": 0.026, "note": 70, "inst": "harpsichord_v0_additive_2", "vel": 0.709, "bend": 0.0, "ch": 6}, {"t": 137.328, "dur": 0.026, "note": 73, "inst": "organ_v0_additive_1", "vel": 0.709, "bend": 0.0, "ch": 9}], "instruments": ["celesta_v0_additive_3", "harpsichord_v0_additive_2", "organ_v0_additive_1", "piano_v0_additive_0"], "duration": 137.38, "n_events": 359}