{"events": [{"t": 0.105, "dur": 0.599, "note": 27, "inst": "piano_v0_additive_0", "vel": 1.0, "bend": 0.0, "ch": 11}, {"t": 0.105, "dur": 0.3, "note": 64, "inst": "organ_v0_additive_1", "vel": 1.0, "bend": 0.0, "ch": 0}, {"t": 0.404, "dur": 0.3, "note": 63, "inst": "piano_v0_additive_0", "vel": 1.0, "bend": 0.0, "ch": 15}, {"t": 0.704, "dur": 0.599, "note": 32, "inst": "celesta_v0_additive_3", "vel": 1.0, "bend": 0.0, "ch": 0}, {"t": 0.704, "dur": 0.3, "note": 61, "inst": "organ_v0_additive_1", "vel": 1.0, "bend": 0.0, "ch": 13}, {"t": 1.003, "dur": 0.3, "note": 57, "inst": "piano_v0_additive_0", "vel": 1.0, "bend": 0.0, "ch": 9}, {"t": 1.303, "dur": 0.599, "note": 31, "inst": "organ_v0_additive_1", "vel": 1.0, "bend": 0.0, "ch": 15}, {"t": 1.303, "dur": 0.3, "note": 60, "inst": "piano_v0_additive_0", "vel": 1.0, "bend": 0.0, "ch": 12}, {"t": 1.602, "dur": 0.1, "note": 60, "inst": "piano_v0_additive_0", "vel": 1.0, "bend": 0.0, "ch": 12}, {"t": 1.702, "dur": 0.1, "note": 61, "inst": "organ_v0_additive_1", "vel": 1.0, "bend": 0.0, "ch": 13}, {"t": 1.802, "dur": 0.1, "note": 60, "inst": "piano_v0_additive_0", "vel": 1.0, "bend": 0.0, "ch": 12}, {"t": 1.902, "dur": 0.599, "note": 28, "inst": "organ_v0_additive_1", "vel": 1.0, "bend": 0.0, "ch": 12}, {"t": 1.902, "dur": 0.3, "note": 57, "inst": "piano_v0_additive_0", "vel": 1.0, "bend": 0.0, "ch": 9}, {"t": 2.202, "dur": 0.3, "note": 61, "inst": "organ_v0_additive_1", "vel": 1.0, "bend": 0.0, "ch": 13}, {"t": 2.501, "dur": 0.599, "note": 28, "inst": "organ_v0_additive_1", "vel": 1.0, "bend": 0.0, "ch": 12}, {"t": 2.501, "dur": 0.3, "note": 60, "inst": "piano_v0_additive_0", "vel": 1.0, "bend": 0.0, "ch": 12}, {"t": 2.801, "dur": 0.3, "note": 56, "inst": "celesta_v0_additive_3", "vel": 1.0, "bend": 0.0, "ch": 8}, {"t": 3.1, "dur": 0.599, "note": 31, "inst": "organ_v0_additive_1", "vel": 1.0, "bend": 0.0, "ch": 15}, {"t": 3.1, "dur": 0.3, "note": 55, "inst": "organ_v0_additive_1", "vel": 1.0, "bend": 0.0, "ch": 7}, {"t": 3.4, "dur": 0.3, "note": 68, "inst": "celesta_v0_additive_3", "vel": 1.0, "bend": 0.0, "ch": 4}, {"t": 3.7, "dur": 0.599, "note": 31, "inst": "organ_v0_additive_1", "vel": 1.0, "bend": 0.0, "ch": 15}, {"t": 3.7, "dur": 0.3, "note": 67, "inst": "organ_v0_additive_1", "vel": 1.0, "bend": 0.0, "ch": 3}, {"t": 3.999, "dur": 0.1, "note": 56, "inst": "celesta_v0_additive_3", "vel": 1.0, "bend": 0.0, "ch": 8}, {"t": 4.099, "dur": 0.1, "note": 57, "inst": "piano_v0_additive_0", "vel": 1.0, "bend": 0.0, "ch": 9}, {"t": 4.199, "dur": 0.1, "note": 56, "inst": "celesta_v0_additive_3", "vel": 1.0, "bend": 0.0, "ch": 8}, {"t": 4.299, "dur": 0.599, "note": 31, "inst": "organ_v0_additive_1", "vel": 1.0, "bend": 0.0, "ch": 15}, {"t": 4.299, "dur": 0.3, "note": 55, "inst": "organ_v0_additive_1", "vel": 1.0, "bend": 0.0, "ch": 7}, {"t": 4.598, "dur": 0.3, "note": 63, "inst": "piano_v0_additive_0", "vel": 1.0, "bend": 0.0, "ch": 15}, {"t": 4.898, "dur": 0.599, "note": 31, "inst": "organ_v0_additive_1", "vel": 1.0, "bend": 0.0, "ch": 15}, {"t": 4.898, "dur": 0.3, "note": 61, "inst": "organ_v0_additive_1", "vel": 1.0, "bend": 0.0, "ch": 13}, {"t": 5.197, "dur": 0.3, "note": 55, "inst": "organ_v0_additive_1", "vel": 1.0, "bend": 0.0, "ch": 7}, {"t": 5.497, "dur": 0.599, "note": 36, "inst": "piano_v0_additive_0", "vel": 1.0, "bend": 0.0, "ch": 4}, {"t": 5.497, "dur": 0.599, "note": 60, "inst": "piano_v0_additive_0", "vel": 1.0, "bend": 0.0, "ch": 12}, {"t": 6.096, "dur": 0.3, "note": 72, "inst": "piano_v0_additive_0", "vel": 1.0, "bend": 0.0, "ch": 8}, {"t": 6.396, "dur": 0.1, "note": 72, "inst": "piano_v0_additive_0", "vel": 1.0, "bend": 0.0, "ch": 8}, {"t": 6.496, "dur": 0.1, "note": 73, "inst": "organ_v0_additive_1", "vel": 1.0, "bend": 0.0, "ch": 9}, {"t": 6.596, "dur": 0.1, "note": 72, "inst": "piano_v0_additive_0", "vel": 1.0, "bend": 0.0, "ch": 8}, {"t": 6.695, "dur": 0.599, "note": 31, "inst": "organ_v0_additive_1", "vel": 1.0, "bend": 0.0, "ch": 15}, {"t": 6.695, "dur": 0.3, "note": 69, "inst": "piano_v0_additive_0", "vel": 1.0, "bend": 0.0, "ch": 5}, {"t": 6.995, "dur": 0.3, "note": 75, "inst": "piano_v0_additive_0", "vel": 1.0, "bend": 0.0, "ch": 11}, {"t": 7.295, "dur": 0.599, "note": 25, "inst": "organ_v0_additive_1", "vel": 1.0, "bend": 0.0, "ch": 9}, {"t": 7.295, "dur": 0.3, "note": 73, "inst": "organ_v0_additive_1", "vel": 1.0, "bend": 0.0, "ch": 9}, {"t": 7.594, "dur": 0.1, "note": 68, "inst": "celesta_v0_additive_3", "vel": 1.0, "bend": 0.0, "ch": 4}, {"t": 7.694, "dur": 0.1, "note": 69, "inst": "piano_v0_additive_0", "vel": 1.0, "bend": 0.0, "ch": 5}, {"t": 7.794, "dur": 0.1, "note": 68, "inst": "celesta_v0_additive_3", "vel": 1.0, "bend": 0.0, "ch": 4}, {"t": 7.894, "dur": 0.599, "note": 31, "inst": "organ_v0_additive_1", "vel": 1.0, "bend": 0.0, "ch": 15}, {"t": 7.894, "dur": 0.3, "note": 67, "inst": "organ_v0_additive_1", "vel": 1.0, "bend": 0.0, "ch": 3}, {"t": 8.193, "dur": 0.3, "note": 72, "inst": "piano_v0_additive_0", "vel": 1.0, "bend": 0.0, "ch": 8}, {"t": 8.493, "dur": 0.599, "note": 25, "inst": "organ_v0_additive_1", "vel": 1.0, "bend": 0.0, "ch": 9}, {"t": 8.493, "dur": 0.3, "note": 69, "inst": "piano_v0_additive_0", "vel": 1.0, "bend": 0.0, "ch": 5}, {"t": 8.792, "dur": 0.3, "note": 67, "inst": "organ_v0_additive_1", "vel": 1.0, "bend": 0.0, "ch": 3}, {"t": 9.092, "dur": 0.599, "note": 31, "inst": "organ_v0_additive_1", "vel": 1.0, "bend": 0.0, "ch": 15}, {"t": 9.092, "dur": 0.15, "note": 61, "inst": "organ_v0_additive_1", "vel": 1.0, "bend": 0.0, "ch": 13}, {"t": 9.242, "dur": 0.15, "note": 60, "inst": "piano_v0_additive_0", "vel": 1.0, "bend": 0.0, "ch": 12}, {"t": 9.392, "dur": 0.15, "note": 61, "inst": "organ_v0_additive_1", "vel": 1.0, "bend": 0.0, "ch": 13}, {"t": 9.541, "dur": 0.15, "note": 63, "inst": "piano_v0_additive_0", "vel": 1.0, "bend": 0.0, "ch": 15}, {"t": 9.691, "dur": 0.599, "note": 25, "inst": "organ_v0_additive_1", "vel": 1.0, "bend": 0.0, "ch": 9}, {"t": 9.691, "dur": 0.15, "note": 64, "inst": "organ_v0_additive_1", "vel": 1.0, "bend": 0.0, "ch": 0}, {"t": 9.841, "dur": 0.15, "note": 67, "inst": "organ_v0_additive_1", "vel": 1.0, "bend": 0.0, "ch": 3}, {"t": 9.991, "dur": 0.15, "note": 68, "inst": "celesta_v0_additive_3", "vel": 1.0, "bend": 0.0, "ch": 4}, {"t": 10.141, "dur": 0.15, "note": 69, "inst": "piano_v0_additive_0", "vel": 1.0, "bend": 0.0, "ch": 5}, {"t": 10.29, "dur": 0.599, "note": 32, "inst": "celesta_v0_additive_3", "vel": 1.0, "bend": 0.0, "ch": 0}, {"t": 10.29, "dur": 0.599, "note": 72, "inst": "piano_v0_additive_0", "vel": 1.0, "bend": 0.0, "ch": 8}, {"t": 10.89, "dur": 0.599, "note": 25, "inst": "organ_v0_additive_1", "vel": 1.0, "bend": 0.0, "ch": 9}, {"t": 11.189, "dur": 0.1, "note": 72, "inst": "piano_v0_additive_0", "vel": 1.0, "bend": 0.0, "ch": 8}, {"t": 11.289, "dur": 0.1, "note": 73, "inst": "organ_v0_additive_1", "vel": 1.0, "bend": 0.0, "ch": 9}, {"t": 11.389, "dur": 0.1, "note": 72, "inst": "piano_v0_additive_0", "vel": 1.0, "bend": 0.0, "ch": 8}, {"t": 11.489, "dur": 0.599, "note": 32, "inst": "celesta_v0_additive_3", "vel": 1.0, "bend": 0.0, "ch": 0}, {"t": 11.489, "dur": 0.3, "note": 68, "inst": "celesta_v0_additive_3", "vel": 1.0, "bend": 0.0, "ch": 4}, {"t": 11.788, "dur": 0.3, "note": 75, "inst": "piano_v0_additive_0", "vel": 1.0, "bend": 0.0, "ch": 11}, {"t": 12.088, "dur": 0.599, "note": 25, "inst": "organ_v0_additive_1", "vel": 1.0, "bend": 0.0, "ch": 9}, {"t": 12.088, "dur": 0.3, "note": 73, "inst": "organ_v0_additive_1", "vel": 1.0, "bend": 0.0, "ch": 9}, {"t": 12.387, "dur": 0.1, "note": 68, "inst": "celesta_v0_additive_3", "vel": 1.0, "bend": 0.0, "ch": 4}, {"t": 12.487, "dur": 0.1, "note": 69, "inst": "piano_v0_additive_0", "vel": 1.0, "bend": 0.0, "ch": 5}, {"t": 12.587, "dur": 0.1, "note": 68, "inst": "celesta_v0_additive_3", "vel": 1.0, "bend": 0.0, "ch": 4}, {"t": 12.687, "dur": 0.599, "note": 32, "inst": "celesta_v0_additive_3", "vel": 1.0, "bend": 0.0, "ch": 0}, {"t": 12.687, "dur": 0.3, "note": 64, "inst": "organ_v0_additive_1", "vel": 1.0, "bend": 0.0, "ch": 0}, {"t": 12.987, "dur": 0.3, "note": 69, "inst": "piano_v0_additive_0", "vel": 1.0, "bend": 0.0, "ch": 5}, {"t": 13.286, "dur": 0.599, "note": 25, "inst": "organ_v0_additive_1", "vel": 1.0, "bend": 0.0, "ch": 9}, {"t": 13.286, "dur": 0.3, "note": 68, "inst": "celesta_v0_additive_3", "vel": 1.0, "bend": 0.0, "ch": 4}, {"t": 13.586, "dur": 0.3, "note": 64, "inst": "organ_v0_additive_1", "vel": 1.0, "bend": 0.0, "ch": 0}, {"t": 13.885, "dur": 0.599, "note": 28, "inst": "organ_v0_additive_1", "vel": 1.0, "bend": 0.0, "ch": 12}, {"t": 13.885, "dur": 0.15, "note": 61, "inst": "organ_v0_additive_1", "vel": 1.0, "bend": 0.0, "ch": 13}, {"t": 14.035, "dur": 0.15, "note": 60, "inst": "piano_v0_additive_0", "vel": 1.0, "bend": 0.0, "ch": 12}, {"t": 14.185, "dur": 0.15, "note": 61, "inst": "organ_v0_additive_1", "vel": 1.0, "bend": 0.0, "ch": 13}, {"t": 14.335, "dur": 0.15, "note": 63, "inst": "piano_v0_additive_0", "vel": 1.0, "bend": 0.0, "ch": 15}, {"t": 14.485, "dur": 0.599, "note": 25, "inst": "organ_v0_additive_1", "vel": 1.0, "bend": 0.0, "ch": 9}, {"t": 14.485, "dur": 0.15, "note": 64, "inst": "organ_v0_additive_1", "vel": 1.0, "bend": 0.0, "ch": 0}, {"t": 14.634, "dur": 0.15, "note": 67, "inst": "organ_v0_additive_1", "vel": 1.0, "bend": 0.0, "ch": 3}, {"t": 14.784, "dur": 0.15, "note": 68, "inst": "celesta_v0_additive_3", "vel": 1.0, "bend": 0.0, "ch": 4}, {"t": 14.934, "dur": 0.15, "note": 69, "inst": "piano_v0_additive_0", "vel": 1.0, "bend": 0.0, "ch": 5}, {"t": 15.084, "dur": 0.599, "note": 31, "inst": "organ_v0_additive_1", "vel": 1.0, "bend": 0.0, "ch": 15}, {"t": 15.084, "dur": 0.599, "note": 69, "inst": "piano_v0_additive_0", "vel": 1.0, "bend": 0.0, "ch": 5}, {"t": 15.683, "dur": 0.599, "note": 25, "inst": "organ_v0_additive_1", "vel": 1.0, "bend": 0.0, "ch": 9}, {"t": 16.282, "dur": 0.599, "note": 31, "inst": "organ_v0_additive_1", "vel": 1.0, "bend": 0.0, "ch": 15}, {"t": 16.282, "dur": 0.3, "note": 69, "inst": "piano_v0_additive_0", "vel": 1.0, "bend": 0.0, "ch": 5}, {"t": 16.582, "dur": 0.3, "note": 75, "inst": "piano_v0_additive_0", "vel": 1.0, "bend": 0.0, "ch": 11}, {"t": 126.038, "dur": 0.217, "note": 44, "inst": "celesta_v0_additive_3", "vel": 0.709, "bend": 0.0, "ch": 12}, {"t": 126.038, "dur": 0.217, "note": 62, "inst": "celesta_v0_additive_3", "vel": 0.709, "bend": 0.0, "ch": 14}, {"t": 126.038, "dur": 0.217, "note": 71, "inst": "celesta_v0_additive_3", "vel": 0.709, "bend": 0.0, "ch": 7}, {"t": 126.255, "dur": 0.217, "note": 44, "inst": "celesta_v0_additive_3", "vel": 0.709, "bend": 0.0, "ch": 12}, {"t": 126.472, "dur": 0.434, "note": 44, "inst": "celesta_v0_additive_3", "vel": 0.709, "bend": 0.0, "ch": 12}, {"t": 126.906, "dur": 0.217, "note": 68, "inst": "celesta_v0_additive_3", "vel": 0.709, "bend": 0.0, "ch": 4}, {"t": 126.906, "dur": 0.217, "note": 71, "inst": "celesta_v0_additive_3", "vel": 0.709, "bend": 0.0, "ch": 7}, {"t": 127.123, "dur": 0.434, "note": 44, "inst": "celesta_v0_additive_3", "vel": 0.709, "bend": 0.0, "ch": 12}, {"t": 127.123, "dur": 0.217, "note": 68, "inst": "celesta_v0_additive_3", "vel": 0.709, "bend": 0.0, "ch": 4}, {"t": 127.123, "dur": 0.217, "note": 71, "inst": "celesta_v0_additive_3", "vel": 0.709, "bend": 0.0, "ch": 7}, {"t": 127.34, "dur": 0.217, "note": 69, "inst": "piano_v0_additive_0", "vel": 0.709, "bend": 0.0, "ch": 5}, {"t": 127.34, "dur": 0.217, "note": 73, "inst": "organ_v0_additive_1", "vel": 0.709, "bend": 0.0, "ch": 9}, {"t": 127.557, "dur": 0.217, "note": 69, "inst": "piano_v0_additive_0", "vel": 0.709, "bend": 0.0, "ch": 5}, {"t": 127.557, "dur": 0.217, "note": 73, "inst": "organ_v0_additive_1", "vel": 0.709, "bend": 0.0, "ch": 9}, {"t": 127.774, "dur": 0.434, "note": 44, "inst": "celesta_v0_additive_3", "vel": 0.709, "bend": 0.0, "ch": 12}, {"t": 127.774, "dur": 0.217, "note": 69, "inst": "piano_v0_additive_0", "vel": 0.709, "bend": 0.0, "ch": 5}, {"t": 127.774, "dur": 0.217, "note": 73, "inst": "organ_v0_additive_1", "vel": 0.709, "bend": 0.0, "ch": 9}, {"t": 127.991, "dur": 0.217, "note": 71, "inst": "celesta_v0_additive_3", "vel": 0.709, "bend": 0.0, "ch": 7}, {"t": 127.991, "dur": 0.217, "note": 74, "inst": "celesta_v0_additive_3", "vel": 0.709, "bend": 0.0, "ch": 10}, {"t": 128.208, "dur": 0.217, "note": 71, "inst": "celesta_v0_additive_3", "vel": 0.709, "bend": 0.0, "ch": 7}, {"t": 128.208, "dur": 0.217, "note": 74, "inst": "celesta_v0_additive_3", "vel": 0.709, "bend": 0.0, "ch": 10}, {"t": 128.425, "dur": 0.434, "note": 44, "inst": "celesta_v0_additive_3", "vel": 0.709, "bend": 0.0, "ch": 12}, {"t": 128.425, "dur": 0.217, "note": 71, "inst": "celesta_v0_additive_3", "vel": 0.709, "bend": 0.0, "ch": 7}, {"t": 128.425, "dur": 0.217, "note": 74, "inst": "celesta_v0_additive_3", "vel": 0.709, "bend": 0.0, "ch": 10}, {"t": 128.642, "dur": 0.217, "note": 71, "inst": "celesta_v0_additive_3", "vel": 0.709, "bend": 0.0, "ch": 7}, {"t": 128.642, "dur": 0.217, "note": 74, "inst": "celesta_v0_additive_3", "vel": 0.709, "bend": 0.0, "ch": 10}, {"t": 128.859, "dur": 0.217, "note": 71, "inst": "celesta_v0_additive_3", "vel": 0.709, "bend": 0.0, "ch": 7}, {"t": 128.859, "dur": 0.217, "note": 74, "inst": "celesta_v0_additive_3", "vel": 0.709, "bend": 0.0, "ch": 10}, {"t": 129.076, "dur": 0.434, "note": 44, "inst": "celesta_v0_additive_3", "vel": 0.709, "bend": 0.0, "ch": 12}, {"t": 129.076, "dur": 0.217, "note": 71, "inst": "celesta_v0_additive_3", "vel": 0.709, "bend": 0.0, "ch": 7}, {"t": 129.076, "dur": 0.217, "note": 74, "inst": "celesta_v0_additive_3", "vel": 0.709, "bend": 0.0, "ch": 10}, {"t": 129.293, "dur": 0.217, "note": 73, "inst": "organ_v0_additive_1", "vel": 0.709, "bend": 0.0, "ch": 9}, {"t": 129.293, "dur": 0.217, "note": 77, "inst": "celesta_v0_additive_3", "vel": 0.709, "bend": 0.0, "ch": 13}, {"t": 129.51, "dur": 0.217, "note": 73, "inst": "organ_v0_additive_1", "vel": 0.709, "bend": 0.0, "ch": 9}, {"t": 129.51, "dur": 0.217, "note": 77, "inst": "celesta_v0_additive_3", "vel": 0.709, "bend": 0.0, "ch": 13}, {"t": 129.727, "dur": 1.736, "note": 44, "inst": "celesta_v0_additive_3", "vel": 0.709, "bend": 0.0, "ch": 12}, {"t": 129.727, "dur": 1.302, "note": 74, "inst": "celesta_v0_additive_3", "vel": 0.709, "bend": 0.0, "ch": 10}, {"t": 129.727, "dur": 1.302, "note": 77, "inst": "celesta_v0_additive_3", "vel": 0.709, "bend": 0.0, "ch": 13}, {"t": 131.029, "dur": 0.434, "note": 74, "inst": "celesta_v0_additive_3", "vel": 0.709, "bend": 0.0, "ch": 10}, {"t": 131.029, "dur": 0.434, "note": 78, "inst": "piano_v0_additive_0", "vel": 0.709, "bend": 0.0, "ch": 14}, {"t": 132.114, "dur": 0.217, "note": 77, "inst": "celesta_v0_additive_3", "vel": 0.709, "bend": 0.0, "ch": 13}, {"t": 132.331, "dur": 0.434, "note": 49, "inst": "organ_v0_additive_1", "vel": 0.709, "bend": 0.0, "ch": 1}, {"t": 132.331, "dur": 0.434, "note": 65, "inst": "celesta_v0_additive_3", "vel": 0.709, "bend": 0.0, "ch": 1}, {"t": 132.331, "dur": 0.434, "note": 68, "inst": "celesta_v0_additive_3", "vel": 0.709, "bend": 0.0, "ch": 4}, {"t": 132.331, "dur": 0.434, "note": 77, "inst": "celesta_v0_additive_3", "vel": 0.709, "bend": 0.0, "ch": 13}, {"t": 132.765, "dur": 0.217, "note": 78, "inst": "piano_v0_additive_0", "vel": 0.709, "bend": 0.0, "ch": 14}, {"t": 132.982, "dur": 0.434, "note": 44, "inst": "celesta_v0_additive_3", "vel": 0.709, "bend": 0.0, "ch": 12}, {"t": 132.982, "dur": 0.434, "note": 62, "inst": "celesta_v0_additive_3", "vel": 0.709, "bend": 0.0, "ch": 14}, {"t": 132.982, "dur": 0.434, "note": 66, "inst": "piano_v0_additive_0", "vel": 0.709, "bend": 0.0, "ch": 2}, {"t": 132.982, "dur": 0.217, "note": 74, "inst": "celesta_v0_additive_3", "vel": 0.709, "bend": 0.0, "ch": 10}, {"t": 133.199, "dur": 0.217, "note": 77, "inst": "celesta_v0_additive_3", "vel": 0.709, "bend": 0.0, "ch": 13}, {"t": 133.416, "dur": 0.217, "note": 78, "inst": "piano_v0_additive_0", "vel": 0.709, "bend": 0.0, "ch": 14}, {"t": 133.633, "dur": 0.434, "note": 37, "inst": "organ_v0_additive_1", "vel": 0.709, "bend": 0.0, "ch": 5}, {"t": 133.633, "dur": 0.434, "note": 61, "inst": "organ_v0_additive_1", "vel": 0.709, "bend": 0.0, "ch": 13}, {"t": 133.633, "dur": 0.434, "note": 65, "inst": "celesta_v0_additive_3", "vel": 0.709, "bend": 0.0, "ch": 1}, {"t": 133.633, "dur": 0.217, "note": 80, "inst": "celesta_v0_additive_3", "vel": 0.709, "bend": 0.0, "ch": 0}, {"t": 133.85, "dur": 0.217, "note": 77, "inst": "celesta_v0_additive_3", "vel": 0.709, "bend": 0.0, "ch": 13}, {"t": 134.067, "dur": 0.217, "note": 73, "inst": "organ_v0_additive_1", "vel": 0.709, "bend": 0.0, "ch": 9}, {"t": 134.284, "dur": 0.217, "note": 73, "inst": "organ_v0_additive_1", "vel": 0.709, "bend": 0.0, "ch": 9}, {"t": 134.718, "dur": 0.217, "note": 74, "inst": "celesta_v0_additive_3", "vel": 0.709, "bend": 0.0, "ch": 10}, {"t": 134.935, "dur": 0.434, "note": 68, "inst": "celesta_v0_additive_3", "vel": 0.709, "bend": 0.0, "ch": 4}, {"t": 134.935, "dur": 0.434, "note": 71, "inst": "celesta_v0_additive_3", "vel": 0.709, "bend": 0.0, "ch": 7}, {"t": 134.935, "dur": 0.434, "note": 74, "inst": "celesta_v0_additive_3", "vel": 0.709, "bend": 0.0, "ch": 10}, {"t": 135.369, "dur": 0.217, "note": 77, "inst": "celesta_v0_additive_3", "vel": 0.709, "bend": 0.0, "ch": 13}, {"t": 135.586, "dur": 0.434, "note": 62, "inst": "celesta_v0_additive_3", "vel": 0.709, "bend": 0.0, "ch": 14}, {"t": 135.586, "dur": 0.434, "note": 66, "inst": "piano_v0_additive_0", "vel": 0.709, "bend": 0.0, "ch": 2}, {"t": 135.586, "dur": 0.217, "note": 73, "inst": "organ_v0_additive_1", "vel": 0.709, "bend": 0.0, "ch": 9}, {"t": 135.803, "dur": 0.217, "note": 71, "inst": "celesta_v0_additive_3", "vel": 0.709, "bend": 0.0, "ch": 7}, {"t": 136.02, "dur": 0.217, "note": 69, "inst": "piano_v0_additive_0", "vel": 0.709, "bend": 0.0, "ch": 5}, {"t": 136.237, "dur": 0.434, "note": 59, "inst": "celesta_v0_additive_3", "vel": 0.709, "bend": 0.0, "ch": 11}, {"t": 136.237, "dur": 0.434, "note": 62, "inst": "celesta_v0_additive_3", "vel": 0.709, "bend": 0.0, "ch": 14}, {"t": 136.237, "dur": 0.217, "note": 68, "inst": "celesta_v0_additive_3", "vel": 0.709, "bend": 0.0, "ch": 4}, {"t": 136.454, "dur": 0.217, "note": 66, "inst": "piano_v0_additive_0", "vel": 0.709, "bend": 0.0, "ch": 2}, {"t": 136.671, "dur": 0.217, "note": 68, "inst": "celesta_v0_additive_3", "vel": 0.709, "bend": 0.0, "ch": 4}, {"t": 136.888, "dur": 0.217, "note": 68, "inst": "celesta_v0_additive_3", "vel": 0.709, "bend": 0.0, "ch": 4}, {"t": 137.322, "dur": 0.217, "note": 69, "inst": "piano_v0_additive_0", "vel": 0.709, "bend": 0.0, "ch": 5}, {"t": 137.539, "dur": 0.651, "note": 54, "inst": "piano_v0_additive_0", "vel": 0.709, "bend": 0.0, "ch": 6}, {"t": 137.539, "dur": 1.302, "note": 54, "inst": "piano_v0_additive_0", "vel": 0.709, "bend": 0.0, "ch": 6}, {"t": 137.539, "dur": 0.651, "note": 61, "inst": "organ_v0_additive_1", "vel": 0.709, "bend": 0.0, "ch": 13}, {"t": 137.539, "dur": 0.434, "note": 69, "inst": "piano_v0_additive_0", "vel": 0.709, "bend": 0.0, "ch": 5}, {"t": 137.973, "dur": 0.217, "note": 69, "inst": "piano_v0_additive_0", "vel": 0.709, "bend": 0.0, "ch": 5}, {"t": 138.19, "dur": 0.651, "note": 56, "inst": "celesta_v0_additive_3", "vel": 0.709, "bend": 0.0, "ch": 8}, {"t": 138.19, "dur": 0.651, "note": 59, "inst": "celesta_v0_additive_3", "vel": 0.709, "bend": 0.0, "ch": 11}, {"t": 138.19, "dur": 0.217, "note": 66, "inst": "piano_v0_additive_0", "vel": 0.709, "bend": 0.0, "ch": 2}, {"t": 138.407, "dur": 0.217, "note": 65, "inst": "celesta_v0_additive_3", "vel": 0.709, "bend": 0.0, "ch": 1}, {"t": 138.624, "dur": 0.217, "note": 62, "inst": "celesta_v0_additive_3", "vel": 0.709, "bend": 0.0, "ch": 14}, {"t": 138.841, "dur": 0.434, "note": 53, "inst": "celesta_v0_additive_3", "vel": 0.709, "bend": 0.0, "ch": 5}, {"t": 138.841, "dur": 0.434, "note": 56, "inst": "celesta_v0_additive_3", "vel": 0.709, "bend": 0.0, "ch": 8}, {"t": 138.841, "dur": 0.434, "note": 61, "inst": "organ_v0_additive_1", "vel": 0.709, "bend": 0.0, "ch": 13}, {"t": 138.841, "dur": 0.217, "note": 68, "inst": "celesta_v0_additive_3", "vel": 0.709, "bend": 0.0, "ch": 4}, {"t": 139.058, "dur": 0.217, "note": 69, "inst": "piano_v0_additive_0", "vel": 0.709, "bend": 0.0, "ch": 5}, {"t": 139.275, "dur": 0.217, "note": 71, "inst": "celesta_v0_additive_3", "vel": 0.709, "bend": 0.0, "ch": 7}, {"t": 139.492, "dur": 0.217, "note": 73, "inst": "organ_v0_additive_1", "vel": 0.709, "bend": 0.0, "ch": 9}, {"t": 139.709, "dur": 0.217, "note": 74, "inst": "celesta_v0_additive_3", "vel": 0.709, "bend": 0.0, "ch": 10}, {"t": 139.926, "dur": 0.217, "note": 77, "inst": "celesta_v0_additive_3", "vel": 0.709, "bend": 0.0, "ch": 13}, {"t": 140.143, "dur": 0.434, "note": 54, "inst": "piano_v0_additive_0", "vel": 0.709, "bend": 0.0, "ch": 6}, {"t": 140.143, "dur": 0.434, "note": 54, "inst": "piano_v0_additive_0", "vel": 0.709, "bend": 0.0, "ch": 6}, {"t": 140.143, "dur": 0.434, "note": 69, "inst": "piano_v0_additive_0", "vel": 0.709, "bend": 0.0, "ch": 5}, {"t": 140.143, "dur": 0.434, "note": 78, "inst": "piano_v0_additive_0", "vel": 0.709, "bend": 0.0, "ch": 14}, {"t": 140.794, "dur": 0.434, "note": 56, "inst": "celesta_v0_additive_3", "vel": 0.709, "bend": 0.0, "ch": 8}, {"t": 140.794, "dur": 0.434, "note": 56, "inst": "celesta_v0_additive_3", "vel": 0.709, "bend": 0.0, "ch": 8}, {"t": 140.794, "dur": 0.217, "note": 66, "inst": "piano_v0_additive_0", "vel": 0.709, "bend": 0.0, "ch": 2}, {"t": 140.794, "dur": 0.217, "note": 74, "inst": "celesta_v0_additive_3", "vel": 0.709, "bend": 0.0, "ch": 10}, {"t": 141.011, "dur": 0.217, "note": 65, "inst": "celesta_v0_additive_3", "vel": 0.709, "bend": 0.0, "ch": 1}, {"t": 141.011, "dur": 0.217, "note": 73, "inst": "organ_v0_additive_1", "vel": 0.709, "bend": 0.0, "ch": 9}, {"t": 141.228, "dur": 0.217, "note": 62, "inst": "celesta_v0_additive_3", "vel": 0.709, "bend": 0.0, "ch": 14}, {"t": 141.228, "dur": 0.217, "note": 71, "inst": "celesta_v0_additive_3", "vel": 0.709, "bend": 0.0, "ch": 7}, {"t": 141.445, "dur": 0.434, "note": 49, "inst": "organ_v0_additive_1", "vel": 0.709, "bend": 0.0, "ch": 1}, {"t": 141.445, "dur": 0.434, "note": 49, "inst": "organ_v0_additive_1", "vel": 0.709, "bend": 0.0, "ch": 1}, {"t": 141.445, "dur": 0.434, "note": 61, "inst": "organ_v0_additive_1", "vel": 0.709, "bend": 0.0, "ch": 13}, {"t": 141.445, "dur": 0.434, "note": 73, "inst": "organ_v0_additive_1", "vel": 0.709, "bend": 0.0, "ch": 9}, {"t": 142.747, "dur": 0.434, "note": 49, "inst": "organ_v0_additive_1", "vel": 0.709, "bend": 0.0, "ch": 1}, {"t": 142.747, "dur": 6.51, "note": 49, "inst": "organ_v0_additive_1", "vel": 0.709, "bend": 0.0, "ch": 1}, {"t": 142.747, "dur": 0.651, "note": 61, "inst": "organ_v0_additive_1", "vel": 0.709, "bend": 0.0, "ch": 13}, {"t": 142.747, "dur": 0.434, "note": 73, "inst": "organ_v0_additive_1", "vel": 0.709, "bend": 0.0, "ch": 9}, {"t": 143.398, "dur": 0.651, "note": 69, "inst": "piano_v0_additive_0", "vel": 0.709, "bend": 0.0, "ch": 5}, {"t": 143.832, "dur": 0.217, "note": 73, "inst": "organ_v0_additive_1", "vel": 0.709, "bend": 0.0, "ch": 9}, {"t": 144.049, "dur": 0.434, "note": 68, "inst": "celesta_v0_additive_3", "vel": 0.709, "bend": 0.0, "ch": 4}, {"t": 144.049, "dur": 0.217, "note": 71, "inst": "celesta_v0_additive_3", "vel": 0.709, "bend": 0.0, "ch": 7}, {"t": 144.266, "dur": 0.217, "note": 73, "inst": "organ_v0_additive_1", "vel": 0.709, "bend": 0.0, "ch": 9}, {"t": 144.483, "dur": 0.217, "note": 66, "inst": "piano_v0_additive_0", "vel": 0.709, "bend": 0.0, "ch": 2}, {"t": 144.483, "dur": 0.217, "note": 69, "inst": "piano_v0_additive_0", "vel": 0.709, "bend": 0.0, "ch": 5}, {"t": 144.7, "dur": 0.434, "note": 65, "inst": "celesta_v0_additive_3", "vel": 0.709, "bend": 0.0, "ch": 1}, {"t": 144.7, "dur": 0.217, "note": 68, "inst": "celesta_v0_additive_3", "vel": 0.709, "bend": 0.0, "ch": 4}, {"t": 144.917, "dur": 0.217, "note": 69, "inst": "piano_v0_additive_0", "vel": 0.709, "bend": 0.0, "ch": 5}, {"t": 145.134, "dur": 0.217, "note": 62, "inst": "celesta_v0_additive_3", "vel": 0.709, "bend": 0.0, "ch": 14}, {"t": 145.134, "dur": 0.217, "note": 66, "inst": "piano_v0_additive_0", "vel": 0.709, "bend": 0.0, "ch": 2}, {"t": 145.351, "dur": 0.434, "note": 49, "inst": "organ_v0_additive_1", "vel": 0.709, "bend": 0.0, "ch": 1}, {"t": 145.351, "dur": 0.217, "note": 61, "inst": "organ_v0_additive_1", "vel": 0.709, "bend": 0.0, "ch": 13}, {"t": 145.351, "dur": 0.217, "note": 65, "inst": "celesta_v0_additive_3", "vel": 0.709, "bend": 0.0, "ch": 1}, {"t": 145.568, "dur": 0.217, "note": 62, "inst": "celesta_v0_additive_3", "vel": 0.709, "bend": 0.0, "ch": 14}, {"t": 145.568, "dur": 0.217, "note": 66, "inst": "piano_v0_additive_0", "vel": 0.709, "bend": 0.0, "ch": 2}, {"t": 145.785, "dur": 0.217, "note": 65, "inst": "celesta_v0_additive_3", "vel": 0.709, "bend": 0.0, "ch": 1}, {"t": 145.785, "dur": 0.217, "note": 68, "inst": "celesta_v0_additive_3", "vel": 0.709, "bend": 0.0, "ch": 4}, {"t": 146.002, "dur": 0.434, "note": 65, "inst": "celesta_v0_additive_3", "vel": 0.709, "bend": 0.0, "ch": 1}, {"t": 146.002, "dur": 0.434, "note": 68, "inst": "celesta_v0_additive_3", "vel": 0.709, "bend": 0.0, "ch": 4}, {"t": 146.436, "dur": 0.217, "note": 69, "inst": "piano_v0_additive_0", "vel": 0.709, "bend": 0.0, "ch": 5}, {"t": 146.436, "dur": 0.217, "note": 73, "inst": "organ_v0_additive_1", "vel": 0.709, "bend": 0.0, "ch": 9}, {"t": 146.653, "dur": 0.434, "note": 68, "inst": "celesta_v0_additive_3", "vel": 0.709, "bend": 0.0, "ch": 4}, {"t": 146.653, "dur": 0.217, "note": 71, "inst": "celesta_v0_additive_3", "vel": 0.709, "bend": 0.0, "ch": 7}, {"t": 146.87, "dur": 0.217, "note": 73, "inst": "organ_v0_additive_1", "vel": 0.709, "bend": 0.0, "ch": 9}, {"t": 147.087, "dur": 0.217, "note": 66, "inst": "piano_v0_additive_0", "vel": 0.709, "bend": 0.0, "ch": 2}, {"t": 147.087, "dur": 0.217, "note": 69, "inst": "piano_v0_additive_0", "vel": 0.709, "bend": 0.0, "ch": 5}, {"t": 147.304, "dur": 0.434, "note": 65, "inst": "celesta_v0_additive_3", "vel": 0.709, "bend": 0.0, "ch": 1}, {"t": 147.304, "dur": 0.217, "note": 68, "inst": "celesta_v0_additive_3", "vel": 0.709, "bend": 0.0, "ch": 4}, {"t": 147.521, "dur": 0.217, "note": 69, "inst": "piano_v0_additive_0", "vel": 0.709, "bend": 0.0, "ch": 5}, {"t": 147.738, "dur": 0.217, "note": 62, "inst": "celesta_v0_additive_3", "vel": 0.709, "bend": 0.0, "ch": 14}, {"t": 147.738, "dur": 0.217, "note": 66, "inst": "piano_v0_additive_0", "vel": 0.709, "bend": 0.0, "ch": 2}, {"t": 147.955, "dur": 1.302, "note": 56, "inst": "celesta_v0_additive_3", "vel": 0.709, "bend": 0.0, "ch": 8}, {"t": 147.955, "dur": 0.651, "note": 61, "inst": "organ_v0_additive_1", "vel": 0.709, "bend": 0.0, "ch": 13}, {"t": 147.955, "dur": 0.217, "note": 65, "inst": "celesta_v0_additive_3", "vel": 0.709, "bend": 0.0, "ch": 1}, {"t": 148.172, "dur": 0.217, "note": 66, "inst": "piano_v0_additive_0", "vel": 0.709, "bend": 0.0, "ch": 2}, {"t": 148.389, "dur": 0.217, "note": 68, "inst": "celesta_v0_additive_3", "vel": 0.709, "bend": 0.0, "ch": 4}, {"t": 148.606, "dur": 0.651, "note": 59, "inst": "celesta_v0_additive_3", "vel": 0.709, "bend": 0.0, "ch": 11}, {"t": 148.606, "dur": 0.217, "note": 61, "inst": "organ_v0_additive_1", "vel": 0.709, "bend": 0.0, "ch": 13}, {"t": 148.823, "dur": 0.217, "note": 62, "inst": "celesta_v0_additive_3", "vel": 0.709, "bend": 0.0, "ch": 14}, {"t": 149.04, "dur": 0.217, "note": 65, "inst": "celesta_v0_additive_3", "vel": 0.709, "bend": 0.0, "ch": 1}, {"t": 149.257, "dur": 0.651, "note": 49, "inst": "organ_v0_additive_1", "vel": 0.709, "bend": 0.0, "ch": 1}, {"t": 149.257, "dur": 0.651, "note": 54, "inst": "piano_v0_additive_0", "vel": 0.709, "bend": 0.0, "ch": 6}, {"t": 149.257, "dur": 0.651, "note": 57, "inst": "piano_v0_additive_0", "vel": 0.709, "bend": 0.0, "ch": 9}, {"t": 149.257, "dur": 0.868, "note": 66, "inst": "piano_v0_additive_0", "vel": 0.709, "bend": 0.0, "ch": 2}, {"t": 149.908, "dur": 0.651, "note": 49, "inst": "organ_v0_additive_1", "vel": 0.709, "bend": 0.0, "ch": 1}, {"t": 149.908, "dur": 0.651, "note": 54, "inst": "piano_v0_additive_0", "vel": 0.709, "bend": 0.0, "ch": 6}, {"t": 149.908, "dur": 0.651, "note": 57, "inst": "piano_v0_additive_0", "vel": 0.709, "bend": 0.0, "ch": 9}, {"t": 150.125, "dur": 0.217, "note": 54, "inst": "piano_v0_additive_0", "vel": 0.709, "bend": 0.0, "ch": 6}, {"t": 150.125, "dur": 0.217, "note": 66, "inst": "piano_v0_additive_0", "vel": 0.709, "bend": 0.0, "ch": 2}, {"t": 168.045, "dur": 0.117, "note": 76, "inst": "organ_v0_additive_1", "vel": 0.709, "bend": 0.0, "ch": 12}, {"t": 168.163, "dur": 0.117, "note": 71, "inst": "celesta_v0_additive_3", "vel": 0.709, "bend": 0.0, "ch": 7}, {"t": 168.28, "dur": 0.117, "note": 68, "inst": "celesta_v0_additive_3", "vel": 0.709, "bend": 0.0, "ch": 4}, {"t": 168.398, "dur": 0.117, "note": 80, "inst": "celesta_v0_additive_3", "vel": 0.709, "bend": 0.0, "ch": 0}, {"t": 168.515, "dur": 0.117, "note": 78, "inst": "piano_v0_additive_0", "vel": 0.709, "bend": 0.0, "ch": 14}, {"t": 168.633, "dur": 0.353, "note": 62, "inst": "celesta_v0_additive_3", "vel": 0.709, "bend": 0.0, "ch": 14}, {"t": 168.633, "dur": 0.117, "note": 76, "inst": "organ_v0_additive_1", "vel": 0.709, "bend": 0.0, "ch": 12}, {"t": 168.75, "dur": 0.117, "note": 76, "inst": "organ_v0_additive_1", "vel": 0.709, "bend": 0.0, "ch": 12}, {"t": 168.868, "dur": 0.117, "note": 74, "inst": "celesta_v0_additive_3", "vel": 0.709, "bend": 0.0, "ch": 10}, {"t": 168.985, "dur": 0.353, "note": 50, "inst": "celesta_v0_additive_3", "vel": 0.709, "bend": 0.0, "ch": 2}, {"t": 168.985, "dur": 0.117, "note": 71, "inst": "celesta_v0_additive_3", "vel": 0.709, "bend": 0.0, "ch": 7}, {"t": 169.103, "dur": 0.117, "note": 71, "inst": "celesta_v0_additive_3", "vel": 0.709, "bend": 0.0, "ch": 7}, {"t": 169.22, "dur": 0.117, "note": 68, "inst": "celesta_v0_additive_3", "vel": 0.709, "bend": 0.0, "ch": 4}, {"t": 169.338, "dur": 0.353, "note": 52, "inst": "organ_v0_additive_1", "vel": 0.709, "bend": 0.0, "ch": 4}, {"t": 169.338, "dur": 0.117, "note": 68, "inst": "celesta_v0_additive_3", "vel": 0.709, "bend": 0.0, "ch": 4}, {"t": 169.455, "dur": 0.117, "note": 68, "inst": "celesta_v0_additive_3", "vel": 0.709, "bend": 0.0, "ch": 4}, {"t": 169.573, "dur": 0.117, "note": 71, "inst": "celesta_v0_additive_3", "vel": 0.709, "bend": 0.0, "ch": 7}, {"t": 169.69, "dur": 0.176, "note": 47, "inst": "celesta_v0_additive_3", "vel": 0.709, "bend": 0.0, "ch": 15}, {"t": 169.69, "dur": 0.117, "note": 64, "inst": "organ_v0_additive_1", "vel": 0.709, "bend": 0.0, "ch": 0}, {"t": 169.808, "dur": 0.117, "note": 64, "inst": "organ_v0_additive_1", "vel": 0.709, "bend": 0.0, "ch": 0}, {"t": 169.867, "dur": 0.176, "note": 50, "inst": "celesta_v0_additive_3", "vel": 0.709, "bend": 0.0, "ch": 2}, {"t": 169.925, "dur": 0.117, "note": 62, "inst": "celesta_v0_additive_3", "vel": 0.709, "bend": 0.0, "ch": 14}, {"t": 170.043, "dur": 0.353, "note": 52, "inst": "organ_v0_additive_1", "vel": 0.709, "bend": 0.0, "ch": 4}, {"t": 170.043, "dur": 0.117, "note": 59, "inst": "celesta_v0_additive_3", "vel": 0.709, "bend": 0.0, "ch": 11}, {"t": 170.16, "dur": 0.117, "note": 64, "inst": "organ_v0_additive_1", "vel": 0.709, "bend": 0.0, "ch": 0}, {"t": 170.278, "dur": 0.117, "note": 68, "inst": "celesta_v0_additive_3", "vel": 0.709, "bend": 0.0, "ch": 4}, {"t": 170.395, "dur": 0.353, "note": 40, "inst": "organ_v0_additive_1", "vel": 0.709, "bend": 0.0, "ch": 8}, {"t": 170.395, "dur": 0.117, "note": 59, "inst": "celesta_v0_additive_3", "vel": 0.709, "bend": 0.0, "ch": 11}, {"t": 170.513, "dur": 0.117, "note": 68, "inst": "celesta_v0_additive_3", "vel": 0.709, "bend": 0.0, "ch": 4}, {"t": 170.63, "dur": 0.117, "note": 68, "inst": "celesta_v0_additive_3", "vel": 0.709, "bend": 0.0, "ch": 4}, {"t": 170.748, "dur": 0.705, "note": 44, "inst": "celesta_v0_additive_3", "vel": 0.709, "bend": 0.0, "ch": 12}, {"t": 170.748, "dur": 0.353, "note": 56, "inst": "celesta_v0_additive_3", "vel": 0.709, "bend": 0.0, "ch": 8}, {"t": 171.218, "dur": 0.117, "note": 83, "inst": "celesta_v0_additive_3", "vel": 0.709, "bend": 0.0, "ch": 3}, {"t": 171.335, "dur": 0.117, "note": 83, "inst": "celesta_v0_additive_3", "vel": 0.709, "bend": 0.0, "ch": 3}, {"t": 171.453, "dur": 0.353, "note": 56, "inst": "celesta_v0_additive_3", "vel": 0.709, "bend": 0.0, "ch": 8}, {"t": 171.453, "dur": 0.117, "note": 76, "inst": "organ_v0_additive_1", "vel": 0.709, "bend": 0.0, "ch": 12}, {"t": 171.57, "dur": 0.117, "note": 83, "inst": "celesta_v0_additive_3", "vel": 0.709, "bend": 0.0, "ch": 3}, {"t": 171.688, "dur": 0.117, "note": 83, "inst": "celesta_v0_additive_3", "vel": 0.709, "bend": 0.0, "ch": 3}, {"t": 171.805, "dur": 0.353, "note": 44, "inst": "celesta_v0_additive_3", "vel": 0.709, "bend": 0.0, "ch": 12}, {"t": 171.805, "dur": 0.117, "note": 76, "inst": "organ_v0_additive_1", "vel": 0.709, "bend": 0.0, "ch": 12}, {"t": 171.923, "dur": 0.117, "note": 83, "inst": "celesta_v0_additive_3", "vel": 0.709, "bend": 0.0, "ch": 3}, {"t": 172.04, "dur": 0.117, "note": 83, "inst": "celesta_v0_additive_3", "vel": 0.709, "bend": 0.0, "ch": 3}, {"t": 172.158, "dur": 0.353, "note": 50, "inst": "celesta_v0_additive_3", "vel": 0.709, "bend": 0.0, "ch": 2}, {"t": 172.158, "dur": 0.117, "note": 78, "inst": "piano_v0_additive_0", "vel": 0.709, "bend": 0.0, "ch": 14}, {"t": 172.275, "dur": 0.117, "note": 83, "inst": "celesta_v0_additive_3", "vel": 0.709, "bend": 0.0, "ch": 3}, {"t": 172.393, "dur": 0.117, "note": 83, "inst": "celesta_v0_additive_3", "vel": 0.709, "bend": 0.0, "ch": 3}, {"t": 172.51, "dur": 0.117, "note": 78, "inst": "piano_v0_additive_0", "vel": 0.709, "bend": 0.0, "ch": 14}, {"t": 172.628, "dur": 0.117, "note": 83, "inst": "celesta_v0_additive_3", "vel": 0.709, "bend": 0.0, "ch": 3}, {"t": 172.745, "dur": 0.117, "note": 83, "inst": "celesta_v0_additive_3", "vel": 0.709, "bend": 0.0, "ch": 3}, {"t": 172.863, "dur": 0.353, "note": 54, "inst": "piano_v0_additive_0", "vel": 0.709, "bend": 0.0, "ch": 6}, {"t": 172.863, "dur": 0.117, "note": 78, "inst": "piano_v0_additive_0", "vel": 0.709, "bend": 0.0, "ch": 14}, {"t": 172.98, "dur": 0.117, "note": 83, "inst": "celesta_v0_additive_3", "vel": 0.709, "bend": 0.0, "ch": 3}, {"t": 173.098, "dur": 0.117, "note": 83, "inst": "celesta_v0_additive_3", "vel": 0.709, "bend": 0.0, "ch": 3}, {"t": 173.215, "dur": 0.353, "note": 42, "inst": "piano_v0_additive_0", "vel": 0.709, "bend": 0.0, "ch": 10}, {"t": 173.215, "dur": 0.117, "note": 78, "inst": "piano_v0_additive_0", "vel": 0.709, "bend": 0.0, "ch": 14}, {"t": 173.333, "dur": 0.117, "note": 83, "inst": "celesta_v0_additive_3", "vel": 0.709, "bend": 0.0, "ch": 3}, {"t": 173.451, "dur": 0.117, "note": 83, "inst": "celesta_v0_additive_3", "vel": 0.709, "bend": 0.0, "ch": 3}, {"t": 173.568, "dur": 0.353, "note": 47, "inst": "celesta_v0_additive_3", "vel": 0.709, "bend": 0.0, "ch": 15}, {"t": 173.568, "dur": 0.117, "note": 76, "inst": "organ_v0_additive_1", "vel": 0.709, "bend": 0.0, "ch": 12}, {"t": 173.685, "dur": 0.117, "note": 83, "inst": "celesta_v0_additive_3", "vel": 0.709, "bend": 0.0, "ch": 3}, {"t": 173.803, "dur": 0.117, "note": 83, "inst": "celesta_v0_additive_3", "vel": 0.709, "bend": 0.0, "ch": 3}, {"t": 173.92, "dur": 0.117, "note": 76, "inst": "organ_v0_additive_1", "vel": 0.709, "bend": 0.0, "ch": 12}, {"t": 174.038, "dur": 0.117, "note": 83, "inst": "celesta_v0_additive_3", "vel": 0.709, "bend": 0.0, "ch": 3}, {"t": 174.156, "dur": 0.117, "note": 83, "inst": "celesta_v0_additive_3", "vel": 0.709, "bend": 0.0, "ch": 3}, {"t": 174.273, "dur": 0.353, "note": 54, "inst": "piano_v0_additive_0", "vel": 0.709, "bend": 0.0, "ch": 6}, {"t": 174.273, "dur": 0.117, "note": 78, "inst": "piano_v0_additive_0", "vel": 0.709, "bend": 0.0, "ch": 14}, {"t": 174.39, "dur": 0.117, "note": 80, "inst": "celesta_v0_additive_3", "vel": 0.709, "bend": 0.0, "ch": 0}, {"t": 174.508, "dur": 0.117, "note": 80, "inst": "celesta_v0_additive_3", "vel": 0.709, "bend": 0.0, "ch": 0}, {"t": 174.625, "dur": 0.353, "note": 42, "inst": "piano_v0_additive_0", "vel": 0.709, "bend": 0.0, "ch": 10}, {"t": 174.625, "dur": 0.117, "note": 78, "inst": "piano_v0_additive_0", "vel": 0.709, "bend": 0.0, "ch": 14}, {"t": 174.743, "dur": 0.117, "note": 80, "inst": "celesta_v0_additive_3", "vel": 0.709, "bend": 0.0, "ch": 0}, {"t": 174.861, "dur": 0.117, "note": 80, "inst": "celesta_v0_additive_3", "vel": 0.709, "bend": 0.0, "ch": 0}, {"t": 174.978, "dur": 0.353, "note": 47, "inst": "celesta_v0_additive_3", "vel": 0.709, "bend": 0.0, "ch": 15}, {"t": 174.978, "dur": 0.117, "note": 74, "inst": "celesta_v0_additive_3", "vel": 0.709, "bend": 0.0, "ch": 10}, {"t": 175.095, "dur": 0.117, "note": 80, "inst": "celesta_v0_additive_3", "vel": 0.709, "bend": 0.0, "ch": 0}, {"t": 175.213, "dur": 0.117, "note": 80, "inst": "celesta_v0_additive_3", "vel": 0.709, "bend": 0.0, "ch": 0}, {"t": 175.33, "dur": 0.117, "note": 74, "inst": "celesta_v0_additive_3", "vel": 0.709, "bend": 0.0, "ch": 10}, {"t": 175.448, "dur": 0.117, "note": 80, "inst": "celesta_v0_additive_3", "vel": 0.709, "bend": 0.0, "ch": 0}, {"t": 175.566, "dur": 0.117, "note": 80, "inst": "celesta_v0_additive_3", "vel": 0.709, "bend": 0.0, "ch": 0}, {"t": 175.683, "dur": 0.353, "note": 52, "inst": "organ_v0_additive_1", "vel": 0.709, "bend": 0.0, "ch": 4}, {"t": 175.683, "dur": 0.117, "note": 76, "inst": "organ_v0_additive_1", "vel": 0.709, "bend": 0.0, "ch": 12}, {"t": 175.8, "dur": 0.117, "note": 78, "inst": "piano_v0_additive_0", "vel": 0.709, "bend": 0.0, "ch": 14}, {"t": 175.918, "dur": 0.117, "note": 78, "inst": "piano_v0_additive_0", "vel": 0.709, "bend": 0.0, "ch": 14}, {"t": 176.035, "dur": 0.353, "note": 40, "inst": "organ_v0_additive_1", "vel": 0.709, "bend": 0.0, "ch": 8}, {"t": 176.035, "dur": 0.117, "note": 76, "inst": "organ_v0_additive_1", "vel": 0.709, "bend": 0.0, "ch": 12}, {"t": 176.153, "dur": 0.117, "note": 78, "inst": "piano_v0_additive_0", "vel": 0.709, "bend": 0.0, "ch": 14}, {"t": 176.271, "dur": 0.117, "note": 78, "inst": "piano_v0_additive_0", "vel": 0.709, "bend": 0.0, "ch": 14}, {"t": 176.388, "dur": 0.353, "note": 44, "inst": "celesta_v0_additive_3", "vel": 0.709, "bend": 0.0, "ch": 12}, {"t": 176.388, "dur": 0.117, "note": 71, "inst": "celesta_v0_additive_3", "vel": 0.709, "bend": 0.0, "ch": 7}, {"t": 176.505, "dur": 0.117, "note": 76, "inst": "organ_v0_additive_1", "vel": 0.709, "bend": 0.0, "ch": 12}, {"t": 176.623, "dur": 0.117, "note": 76, "inst": "organ_v0_additive_1", "vel": 0.709, "bend": 0.0, "ch": 12}, {"t": 176.741, "dur": 0.117, "note": 71, "inst": "celesta_v0_additive_3", "vel": 0.709, "bend": 0.0, "ch": 7}, {"t": 176.858, "dur": 0.117, "note": 80, "inst": "celesta_v0_additive_3", "vel": 0.709, "bend": 0.0, "ch": 0}, {"t": 176.976, "dur": 0.117, "note": 80, "inst": "celesta_v0_additive_3", "vel": 0.709, "bend": 0.0, "ch": 0}, {"t": 177.093, "dur": 0.353, "note": 47, "inst": "celesta_v0_additive_3", "vel": 0.709, "bend": 0.0, "ch": 15}, {"t": 177.093, "dur": 0.117, "note": 74, "inst": "celesta_v0_additive_3", "vel": 0.709, "bend": 0.0, "ch": 10}, {"t": 177.21, "dur": 0.117, "note": 80, "inst": "celesta_v0_additive_3", "vel": 0.709, "bend": 0.0, "ch": 0}, {"t": 177.328, "dur": 0.117, "note": 80, "inst": "celesta_v0_additive_3", "vel": 0.709, "bend": 0.0, "ch": 0}, {"t": 177.446, "dur": 0.353, "note": 47, "inst": "celesta_v0_additive_3", "vel": 0.709, "bend": 0.0, "ch": 15}, {"t": 177.446, "dur": 0.117, "note": 76, "inst": "organ_v0_additive_1", "vel": 0.709, "bend": 0.0, "ch": 12}, {"t": 177.563, "dur": 0.117, "note": 78, "inst": "piano_v0_additive_0", "vel": 0.709, "bend": 0.0, "ch": 14}, {"t": 177.681, "dur": 0.117, "note": 78, "inst": "piano_v0_additive_0", "vel": 0.709, "bend": 0.0, "ch": 14}, {"t": 177.798, "dur": 0.353, "note": 44, "inst": "celesta_v0_additive_3", "vel": 0.709, "bend": 0.0, "ch": 12}, {"t": 177.798, "dur": 0.117, "note": 68, "inst": "celesta_v0_additive_3", "vel": 0.709, "bend": 0.0, "ch": 4}, {"t": 177.915, "dur": 0.117, "note": 76, "inst": "organ_v0_additive_1", "vel": 0.709, "bend": 0.0, "ch": 12}, {"t": 178.033, "dur": 0.117, "note": 76, "inst": "organ_v0_additive_1", "vel": 0.709, "bend": 0.0, "ch": 12}, {"t": 178.151, "dur": 0.353, "note": 47, "inst": "celesta_v0_additive_3", "vel": 0.709, "bend": 0.0, "ch": 15}, {"t": 178.151, "dur": 0.117, "note": 71, "inst": "celesta_v0_additive_3", "vel": 0.709, "bend": 0.0, "ch": 7}, {"t": 178.268, "dur": 0.117, "note": 76, "inst": "organ_v0_additive_1", "vel": 0.709, "bend": 0.0, "ch": 12}, {"t": 178.386, "dur": 0.117, "note": 74, "inst": "celesta_v0_additive_3", "vel": 0.709, "bend": 0.0, "ch": 10}, {"t": 178.503, "dur": 0.705, "note": 52, "inst": "organ_v0_additive_1", "vel": 0.709, "bend": 0.0, "ch": 4}, {"t": 178.503, "dur": 0.117, "note": 76, "inst": "organ_v0_additive_1", "vel": 0.709, "bend": 0.0, "ch": 12}, {"t": 178.62, "dur": 0.117, "note": 78, "inst": "piano_v0_additive_0", "vel": 0.709, "bend": 0.0, "ch": 14}, {"t": 178.738, "dur": 0.117, "note": 78, "inst": "piano_v0_additive_0", "vel": 0.709, "bend": 0.0, "ch": 14}, {"t": 178.856, "dur": 0.117, "note": 76, "inst": "organ_v0_additive_1", "vel": 0.709, "bend": 0.0, "ch": 12}, {"t": 178.973, "dur": 0.117, "note": 78, "inst": "piano_v0_additive_0", "vel": 0.709, "bend": 0.0, "ch": 14}, {"t": 179.091, "dur": 0.117, "note": 78, "inst": "piano_v0_additive_0", "vel": 0.709, "bend": 0.0, "ch": 14}, {"t": 179.208, "dur": 0.353, "note": 56, "inst": "celesta_v0_additive_3", "vel": 0.709, "bend": 0.0, "ch": 8}, {"t": 179.208, "dur": 0.117, "note": 73, "inst": "organ_v0_additive_1", "vel": 0.709, "bend": 0.0, "ch": 9}, {"t": 179.325, "dur": 0.117, "note": 78, "inst": "piano_v0_additive_0", "vel": 0.709, "bend": 0.0, "ch": 14}, {"t": 179.443, "dur": 0.117, "note": 78, "inst": "piano_v0_additive_0", "vel": 0.709, "bend": 0.0, "ch": 14}, {"t": 179.561, "dur": 0.353, "note": 44, "inst": "celesta_v0_additive_3", "vel": 0.709, "bend": 0.0, "ch": 12}, {"t": 179.561, "dur": 0.117, "note": 68, "inst": "celesta_v0_additive_3", "vel": 0.709, "bend": 0.0, "ch": 4}, {"t": 179.678, "dur": 0.117, "note": 78, "inst": "piano_v0_additive_0", "vel": 0.709, "bend": 0.0, "ch": 14}, {"t": 179.796, "dur": 0.117, "note": 78, "inst": "piano_v0_additive_0", "vel": 0.709, "bend": 0.0, "ch": 14}, {"t": 179.913, "dur": 0.353, "note": 50, "inst": "celesta_v0_additive_3", "vel": 0.709, "bend": 0.0, "ch": 2}, {"t": 179.913, "dur": 0.117, "note": 74, "inst": "celesta_v0_additive_3", "vel": 0.709, "bend": 0.0, "ch": 10}, {"t": 180.031, "dur": 0.117, "note": 76, "inst": "organ_v0_additive_1", "vel": 0.709, "bend": 0.0, "ch": 12}, {"t": 180.148, "dur": 0.117, "note": 76, "inst": "organ_v0_additive_1", "vel": 0.709, "bend": 0.0, "ch": 12}, {"t": 180.266, "dur": 0.117, "note": 74, "inst": "celesta_v0_additive_3", "vel": 0.709, "bend": 0.0, "ch": 10}, {"t": 180.383, "dur": 0.117, "note": 76, "inst": "organ_v0_additive_1", "vel": 0.709, "bend": 0.0, "ch": 12}, {"t": 180.501, "dur": 0.117, "note": 76, "inst": "organ_v0_additive_1", "vel": 0.709, "bend": 0.0, "ch": 12}, {"t": 180.618, "dur": 0.353, "note": 54, "inst": "piano_v0_additive_0", "vel": 0.709, "bend": 0.0, "ch": 6}, {"t": 180.618, "dur": 0.117, "note": 71, "inst": "celesta_v0_additive_3", "vel": 0.709, "bend": 0.0, "ch": 7}, {"t": 180.736, "dur": 0.117, "note": 76, "inst": "organ_v0_additive_1", "vel": 0.709, "bend": 0.0, "ch": 12}, {"t": 180.853, "dur": 0.117, "note": 76, "inst": "organ_v0_additive_1", "vel": 0.709, "bend": 0.0, "ch": 12}, {"t": 180.971, "dur": 0.353, "note": 42, "inst": "piano_v0_additive_0", "vel": 0.709, "bend": 0.0, "ch": 10}, {"t": 180.971, "dur": 0.117, "note": 66, "inst": "piano_v0_additive_0", "vel": 0.709, "bend": 0.0, "ch": 2}, {"t": 181.088, "dur": 0.117, "note": 76, "inst": "organ_v0_additive_1", "vel": 0.709, "bend": 0.0, "ch": 12}, {"t": 181.206, "dur": 0.117, "note": 76, "inst": "organ_v0_additive_1", "vel": 0.709, "bend": 0.0, "ch": 12}, {"t": 181.323, "dur": 0.705, "note": 47, "inst": "celesta_v0_additive_3", "vel": 0.709, "bend": 0.0, "ch": 15}, {"t": 181.323, "dur": 0.117, "note": 71, "inst": "celesta_v0_additive_3", "vel": 0.709, "bend": 0.0, "ch": 7}, {"t": 181.441, "dur": 0.117, "note": 74, "inst": "celesta_v0_additive_3", "vel": 0.709, "bend": 0.0, "ch": 10}, {"t": 181.558, "dur": 0.117, "note": 76, "inst": "organ_v0_additive_1", "vel": 0.709, "bend": 0.0, "ch": 12}, {"t": 181.676, "dur": 0.117, "note": 71, "inst": "celesta_v0_additive_3", "vel": 0.709, "bend": 0.0, "ch": 7}, {"t": 181.793, "dur": 0.117, "note": 74, "inst": "celesta_v0_additive_3", "vel": 0.709, "bend": 0.0, "ch": 10}, {"t": 181.911, "dur": 0.117, "note": 76, "inst": "organ_v0_additive_1", "vel": 0.709, "bend": 0.0, "ch": 12}, {"t": 182.028, "dur": 0.705, "note": 52, "inst": "organ_v0_additive_1", "vel": 0.709, "bend": 0.0, "ch": 4}, {"t": 182.028, "dur": 0.117, "note": 68, "inst": "celesta_v0_additive_3", "vel": 0.709, "bend": 0.0, "ch": 4}, {"t": 210.042, "dur": 0.383, "note": 44, "inst": "celesta_v0_additive_3", "vel": 1.0, "bend": 0.0, "ch": 12}, {"t": 210.042, "dur": 0.383, "note": 48, "inst": "piano_v0_additive_0", "vel": 1.0, "bend": 0.0, "ch": 0}, {"t": 210.042, "dur": 0.383, "note": 53, "inst": "celesta_v0_additive_3", "vel": 1.0, "bend": 0.0, "ch": 5}, {"t": 210.042, "dur": 0.096, "note": 65, "inst": "celesta_v0_additive_3", "vel": 1.0, "bend": 0.0, "ch": 1}, {"t": 210.138, "dur": 0.096, "note": 72, "inst": "piano_v0_additive_0", "vel": 1.0, "bend": 0.0, "ch": 8}, {"t": 210.234, "dur": 0.096, "note": 77, "inst": "celesta_v0_additive_3", "vel": 1.0, "bend": 0.0, "ch": 13}, {"t": 210.329, "dur": 0.096, "note": 73, "inst": "organ_v0_additive_1", "vel": 1.0, "bend": 0.0, "ch": 9}, {"t": 210.425, "dur": 0.096, "note": 70, "inst": "organ_v0_additive_1", "vel": 1.0, "bend": 0.0, "ch": 6}, {"t": 210.521, "dur": 0.096, "note": 44, "inst": "celesta_v0_additive_3", "vel": 1.0, "bend": 0.0, "ch": 12}, {"t": 210.521, "dur": 0.096, "note": 46, "inst": "organ_v0_additive_1", "vel": 1.0, "bend": 0.0, "ch": 14}, {"t": 210.521, "dur": 0.096, "note": 53, "inst": "celesta_v0_additive_3", "vel": 1.0, "bend": 0.0, "ch": 5}, {"t": 210.521, "dur": 0.096, "note": 61, "inst": "organ_v0_additive_1", "vel": 1.0, "bend": 0.0, "ch": 13}, {"t": 210.617, "dur": 0.096, "note": 46, "inst": "organ_v0_additive_1", "vel": 1.0, "bend": 0.0, "ch": 14}, {"t": 210.617, "dur": 0.096, "note": 53, "inst": "celesta_v0_additive_3", "vel": 1.0, "bend": 0.0, "ch": 5}, {"t": 210.617, "dur": 0.096, "note": 61, "inst": "organ_v0_additive_1", "vel": 1.0, "bend": 0.0, "ch": 13}, {"t": 210.713, "dur": 0.096, "note": 41, "inst": "celesta_v0_additive_3", "vel": 1.0, "bend": 0.0, "ch": 9}, {"t": 210.713, "dur": 0.096, "note": 46, "inst": "organ_v0_additive_1", "vel": 1.0, "bend": 0.0, "ch": 14}, {"t": 210.713, "dur": 0.096, "note": 52, "inst": "organ_v0_additive_1", "vel": 1.0, "bend": 0.0, "ch": 4}, {"t": 210.713, "dur": 0.096, "note": 64, "inst": "organ_v0_additive_1", "vel": 1.0, "bend": 0.0, "ch": 0}, {"t": 210.808, "dur": 0.383, "note": 52, "inst": "organ_v0_additive_1", "vel": 1.0, "bend": 0.0, "ch": 4}, {"t": 210.808, "dur": 0.096, "note": 73, "inst": "organ_v0_additive_1", "vel": 1.0, "bend": 0.0, "ch": 9}, {"t": 210.904, "dur": 0.096, "note": 70, "inst": "organ_v0_additive_1", "vel": 1.0, "bend": 0.0, "ch": 6}, {"t": 210.904, "dur": 0.096, "note": 70, "inst": "organ_v0_additive_1", "vel": 1.0, "bend": 0.0, "ch": 6}, {"t": 211.0, "dur": 0.096, "note": 70, "inst": "organ_v0_additive_1", "vel": 1.0, "bend": 0.0, "ch": 6}, {"t": 211.096, "dur": 0.096, "note": 76, "inst": "organ_v0_additive_1", "vel": 1.0, "bend": 0.0, "ch": 12}, {"t": 211.192, "dur": 0.383, "note": 41, "inst": "celesta_v0_additive_3", "vel": 1.0, "bend": 0.0, "ch": 9}, {"t": 211.192, "dur": 0.383, "note": 48, "inst": "piano_v0_additive_0", "vel": 1.0, "bend": 0.0, "ch": 0}, {"t": 211.192, "dur": 0.096, "note": 68, "inst": "celesta_v0_additive_3", "vel": 1.0, "bend": 0.0, "ch": 4}, {"t": 211.288, "dur": 0.096, "note": 67, "inst": "organ_v0_additive_1", "vel": 1.0, "bend": 0.0, "ch": 3}, {"t": 211.288, "dur": 0.096, "note": 70, "inst": "organ_v0_additive_1", "vel": 1.0, "bend": 0.0, "ch": 6}, {"t": 211.383, "dur": 0.096, "note": 68, "inst": "celesta_v0_additive_3", "vel": 1.0, "bend": 0.0, "ch": 4}, {"t": 211.479, "dur": 0.096, "note": 67, "inst": "organ_v0_additive_1", "vel": 1.0, "bend": 0.0, "ch": 3}, {"t": 211.479, "dur": 0.096, "note": 70, "inst": "organ_v0_additive_1", "vel": 1.0, "bend": 0.0, "ch": 6}, {"t": 211.575, "dur": 0.383, "note": 72, "inst": "piano_v0_additive_0", "vel": 1.0, "bend": 0.0, "ch": 8}, {"t": 211.671, "dur": 0.096, "note": 48, "inst": "piano_v0_additive_0", "vel": 1.0, "bend": 0.0, "ch": 0}, {"t": 211.671, "dur": 0.096, "note": 52, "inst": "organ_v0_additive_1", "vel": 1.0, "bend": 0.0, "ch": 4}, {"t": 211.767, "dur": 0.096, "note": 52, "inst": "organ_v0_additive_1", "vel": 1.0, "bend": 0.0, "ch": 4}, {"t": 211.862, "dur": 0.096, "note": 49, "inst": "organ_v0_additive_1", "vel": 1.0, "bend": 0.0, "ch": 1}, {"t": 211.862, "dur": 0.096, "note": 53, "inst": "celesta_v0_additive_3", "vel": 1.0, "bend": 0.0, "ch": 5}, {"t": 211.958, "dur": 0.287, "note": 52, "inst": "organ_v0_additive_1", "vel": 1.0, "bend": 0.0, "ch": 4}, {"t": 211.958, "dur": 0.287, "note": 53, "inst": "celesta_v0_additive_3", "vel": 1.0, "bend": 0.0, "ch": 5}, {"t": 212.246, "dur": 0.096, "note": 53, "inst": "celesta_v0_additive_3", "vel": 1.0, "bend": 0.0, "ch": 5}, {"t": 212.246, "dur": 0.096, "note": 60, "inst": "piano_v0_additive_0", "vel": 1.0, "bend": 0.0, "ch": 12}, {"t": 212.342, "dur": 0.096, "note": 44, "inst": "celesta_v0_additive_3", "vel": 1.0, "bend": 0.0, "ch": 12}, {"t": 212.342, "dur": 0.287, "note": 64, "inst": "organ_v0_additive_1", "vel": 1.0, "bend": 0.0, "ch": 0}, {"t": 212.437, "dur": 0.096, "note": 52, "inst": "organ_v0_additive_1", "vel": 1.0, "bend": 0.0, "ch": 4}, {"t": 212.437, "dur": 0.096, "note": 53, "inst": "celesta_v0_additive_3", "vel": 1.0, "bend": 0.0, "ch": 5}, {"t": 212.533, "dur": 0.096, "note": 53, "inst": "celesta_v0_additive_3", "vel": 1.0, "bend": 0.0, "ch": 5}, {"t": 212.629, "dur": 0.096, "note": 48, "inst": "piano_v0_additive_0", "vel": 1.0, "bend": 0.0, "ch": 0}, {"t": 212.629, "dur": 0.096, "note": 65, "inst": "celesta_v0_additive_3", "vel": 1.0, "bend": 0.0, "ch": 1}, {"t": 212.725, "dur": 0.383, "note": 41, "inst": "celesta_v0_additive_3", "vel": 1.0, "bend": 0.0, "ch": 9}, {"t": 212.725, "dur": 0.383, "note": 46, "inst": "organ_v0_additive_1", "vel": 1.0, "bend": 0.0, "ch": 14}, {"t": 212.725, "dur": 0.383, "note": 49, "inst": "organ_v0_additive_1", "vel": 1.0, "bend": 0.0, "ch": 1}, {"t": 212.725, "dur": 0.096, "note": 65, "inst": "celesta_v0_additive_3", "vel": 1.0, "bend": 0.0, "ch": 1}, {"t": 212.821, "dur": 0.096, "note": 64, "inst": "organ_v0_additive_1", "vel": 1.0, "bend": 0.0, "ch": 0}, {"t": 212.821, "dur": 0.096, "note": 65, "inst": "celesta_v0_additive_3", "vel": 1.0, "bend": 0.0, "ch": 1}, {"t": 212.916, "dur": 0.096, "note": 67, "inst": "organ_v0_additive_1", "vel": 1.0, "bend": 0.0, "ch": 3}, {"t": 213.012, "dur": 0.096, "note": 60, "inst": "piano_v0_additive_0", "vel": 1.0, "bend": 0.0, "ch": 12}, {"t": 213.012, "dur": 0.096, "note": 68, "inst": "celesta_v0_additive_3", "vel": 1.0, "bend": 0.0, "ch": 4}, {"t": 213.108, "dur": 0.096, "note": 70, "inst": "organ_v0_additive_1", "vel": 1.0, "bend": 0.0, "ch": 6}, {"t": 213.204, "dur": 0.096, "note": 60, "inst": "piano_v0_additive_0", "vel": 1.0, "bend": 0.0, "ch": 12}, {"t": 213.204, "dur": 0.096, "note": 65, "inst": "celesta_v0_additive_3", "vel": 1.0, "bend": 0.0, "ch": 1}, {"t": 213.204, "dur": 0.096, "note": 68, "inst": "celesta_v0_additive_3", "vel": 1.0, "bend": 0.0, "ch": 4}, {"t": 213.3, "dur": 0.096, "note": 70, "inst": "organ_v0_additive_1", "vel": 1.0, "bend": 0.0, "ch": 6}, {"t": 213.396, "dur": 0.096, "note": 64, "inst": "organ_v0_additive_1", "vel": 1.0, "bend": 0.0, "ch": 0}, {"t": 213.396, "dur": 0.096, "note": 68, "inst": "celesta_v0_additive_3", "vel": 1.0, "bend": 0.0, "ch": 4}, {"t": 213.396, "dur": 0.096, "note": 72, "inst": "piano_v0_additive_0", "vel": 1.0, "bend": 0.0, "ch": 8}, {"t": 213.491, "dur": 0.287, "note": 70, "inst": "organ_v0_additive_1", "vel": 1.0, "bend": 0.0, "ch": 6}, {"t": 213.491, "dur": 0.287, "note": 73, "inst": "organ_v0_additive_1", "vel": 1.0, "bend": 0.0, "ch": 9}, {"t": 213.779, "dur": 0.096, "note": 70, "inst": "organ_v0_additive_1", "vel": 1.0, "bend": 0.0, "ch": 6}, {"t": 213.779, "dur": 0.096, "note": 73, "inst": "organ_v0_additive_1", "vel": 1.0, "bend": 0.0, "ch": 9}, {"t": 213.875, "dur": 0.383, "note": 41, "inst": "celesta_v0_additive_3", "vel": 1.0, "bend": 0.0, "ch": 9}, {"t": 213.875, "dur": 0.383, "note": 46, "inst": "organ_v0_additive_1", "vel": 1.0, "bend": 0.0, "ch": 14}, {"t": 213.875, "dur": 0.383, "note": 49, "inst": "organ_v0_additive_1", "vel": 1.0, "bend": 0.0, "ch": 1}, {"t": 213.875, "dur": 0.383, "note": 55, "inst": "organ_v0_additive_1", "vel": 1.0, "bend": 0.0, "ch": 7}, {"t": 213.875, "dur": 0.096, "note": 76, "inst": "organ_v0_additive_1", "vel": 1.0, "bend": 0.0, "ch": 12}, {"t": 213.97, "dur": 0.096, "note": 72, "inst": "piano_v0_additive_0", "vel": 1.0, "bend": 0.0, "ch": 8}, {"t": 214.066, "dur": 0.192, "note": 72, "inst": "piano_v0_additive_0", "vel": 1.0, "bend": 0.0, "ch": 8}, {"t": 214.258, "dur": 0.767, "note": 41, "inst": "celesta_v0_additive_3", "vel": 1.0, "bend": 0.0, "ch": 9}, {"t": 214.258, "dur": 0.767, "note": 48, "inst": "piano_v0_additive_0", "vel": 1.0, "bend": 0.0, "ch": 0}, {"t": 214.258, "dur": 0.767, "note": 53, "inst": "celesta_v0_additive_3", "vel": 1.0, "bend": 0.0, "ch": 5}, {"t": 214.258, "dur": 0.767, "note": 68, "inst": "celesta_v0_additive_3", "vel": 1.0, "bend": 0.0, "ch": 4}, {"t": 214.258, "dur": 0.767, "note": 72, "inst": "piano_v0_additive_0", "vel": 1.0, "bend": 0.0, "ch": 8}, {"t": 214.258, "dur": 0.767, "note": 77, "inst": "celesta_v0_additive_3", "vel": 1.0, "bend": 0.0, "ch": 13}, {"t": 215.024, "dur": 0.192, "note": 46, "inst": "organ_v0_additive_1", "vel": 1.0, "bend": 0.0, "ch": 14}, {"t": 215.024, "dur": 0.096, "note": 65, "inst": "celesta_v0_additive_3", "vel": 1.0, "bend": 0.0, "ch": 1}, {"t": 215.12, "dur": 0.096, "note": 70, "inst": "organ_v0_additive_1", "vel": 1.0, "bend": 0.0, "ch": 6}, {"t": 215.12, "dur": 0.096, "note": 72, "inst": "piano_v0_additive_0", "vel": 1.0, "bend": 0.0, "ch": 8}, {"t": 215.216, "dur": 0.192, "note": 58, "inst": "organ_v0_additive_1", "vel": 1.0, "bend": 0.0, "ch": 10}, {"t": 215.216, "dur": 0.287, "note": 73, "inst": "organ_v0_additive_1", "vel": 1.0, "bend": 0.0, "ch": 9}, {"t": 215.408, "dur": 0.192, "note": 52, "inst": "organ_v0_additive_1", "vel": 1.0, "bend": 0.0, "ch": 4}, {"t": 215.503, "dur": 0.096, "note": 70, "inst": "organ_v0_additive_1", "vel": 1.0, "bend": 0.0, "ch": 6}, {"t": 215.503, "dur": 0.096, "note": 72, "inst": "piano_v0_additive_0", "vel": 1.0, "bend": 0.0, "ch": 8}, {"t": 215.599, "dur": 0.192, "note": 53, "inst": "celesta_v0_additive_3", "vel": 1.0, "bend": 0.0, "ch": 5}, {"t": 215.599, "dur": 0.096, "note": 72, "inst": "piano_v0_additive_0", "vel": 1.0, "bend": 0.0, "ch": 8}, {"t": 215.599, "dur": 0.096, "note": 73, "inst": "organ_v0_additive_1", "vel": 1.0, "bend": 0.0, "ch": 9}, {"t": 215.695, "dur": 0.096, "note": 68, "inst": "celesta_v0_additive_3", "vel": 1.0, "bend": 0.0, "ch": 4}, {"t": 215.695, "dur": 0.096, "note": 70, "inst": "organ_v0_additive_1", "vel": 1.0, "bend": 0.0, "ch": 6}, {"t": 215.791, "dur": 0.192, "note": 49, "inst": "organ_v0_additive_1", "vel": 1.0, "bend": 0.0, "ch": 1}, {"t": 215.791, "dur": 0.096, "note": 70, "inst": "organ_v0_additive_1", "vel": 1.0, "bend": 0.0, "ch": 6}, {"t": 215.887, "dur": 0.096, "note": 65, "inst": "celesta_v0_additive_3", "vel": 1.0, "bend": 0.0, "ch": 1}, {"t": 215.983, "dur": 0.192, "note": 46, "inst": "organ_v0_additive_1", "vel": 1.0, "bend": 0.0, "ch": 14}, {"t": 215.983, "dur": 0.096, "note": 65, "inst": "celesta_v0_additive_3", "vel": 1.0, "bend": 0.0, "ch": 1}, {"t": 216.078, "dur": 0.096, "note": 64, "inst": "organ_v0_additive_1", "vel": 1.0, "bend": 0.0, "ch": 0}, {"t": 216.174, "dur": 0.192, "note": 49, "inst": "organ_v0_additive_1", "vel": 1.0, "bend": 0.0, "ch": 1}, {"t": 216.174, "dur": 0.096, "note": 65, "inst": "celesta_v0_additive_3", "vel": 1.0, "bend": 0.0, "ch": 1}, {"t": 216.27, "dur": 0.096, "note": 70, "inst": "organ_v0_additive_1", "vel": 1.0, "bend": 0.0, "ch": 6}, {"t": 216.366, "dur": 0.192, "note": 53, "inst": "celesta_v0_additive_3", "vel": 1.0, "bend": 0.0, "ch": 5}, {"t": 216.366, "dur": 0.096, "note": 65, "inst": "celesta_v0_additive_3", "vel": 1.0, "bend": 0.0, "ch": 1}, {"t": 216.462, "dur": 0.096, "note": 64, "inst": "organ_v0_additive_1", "vel": 1.0, "bend": 0.0, "ch": 0}, {"t": 216.557, "dur": 0.192, "note": 58, "inst": "organ_v0_additive_1", "vel": 1.0, "bend": 0.0, "ch": 10}, {"t": 216.557, "dur": 0.096, "note": 61, "inst": "organ_v0_additive_1", "vel": 1.0, "bend": 0.0, "ch": 13}, {"t": 216.653, "dur": 0.096, "note": 70, "inst": "organ_v0_additive_1", "vel": 1.0, "bend": 0.0, "ch": 6}, {"t": 216.653, "dur": 0.096, "note": 72, "inst": "piano_v0_additive_0", "vel": 1.0, "bend": 0.0, "ch": 8}, {"t": 216.749, "dur": 0.192, "note": 53, "inst": "celesta_v0_additive_3", "vel": 1.0, "bend": 0.0, "ch": 5}, {"t": 216.749, "dur": 0.096, "note": 72, "inst": "piano_v0_additive_0", "vel": 1.0, "bend": 0.0, "ch": 8}, {"t": 216.749, "dur": 0.096, "note": 73, "inst": "organ_v0_additive_1", "vel": 1.0, "bend": 0.0, "ch": 9}, {"t": 216.845, "dur": 0.096, "note": 70, "inst": "organ_v0_additive_1", "vel": 1.0, "bend": 0.0, "ch": 6}, {"t": 216.941, "dur": 0.192, "note": 49, "inst": "organ_v0_additive_1", "vel": 1.0, "bend": 0.0, "ch": 1}, {"t": 216.941, "dur": 0.096, "note": 77, "inst": "celesta_v0_additive_3", "vel": 1.0, "bend": 0.0, "ch": 13}, {"t": 217.037, "dur": 0.096, "note": 70, "inst": "organ_v0_additive_1", "vel": 1.0, "bend": 0.0, "ch": 6}, {"t": 217.132, "dur": 0.192, "note": 52, "inst": "organ_v0_additive_1", "vel": 1.0, "bend": 0.0, "ch": 4}, {"t": 217.132, "dur": 0.096, "note": 77, "inst": "celesta_v0_additive_3", "vel": 1.0, "bend": 0.0, "ch": 13}, {"t": 217.228, "dur": 0.096, "note": 70, "inst": "organ_v0_additive_1", "vel": 1.0, "bend": 0.0, "ch": 6}, {"t": 217.324, "dur": 0.192, "note": 53, "inst": "celesta_v0_additive_3", "vel": 1.0, "bend": 0.0, "ch": 5}, {"t": 217.324, "dur": 0.096, "note": 68, "inst": "celesta_v0_additive_3", "vel": 1.0, "bend": 0.0, "ch": 4}, {"t": 217.42, "dur": 0.096, "note": 70, "inst": "organ_v0_additive_1", "vel": 1.0, "bend": 0.0, "ch": 6}, {"t": 217.516, "dur": 0.192, "note": 41, "inst": "celesta_v0_additive_3", "vel": 1.0, "bend": 0.0, "ch": 9}, {"t": 217.516, "dur": 0.096, "note": 72, "inst": "piano_v0_additive_0", "vel": 1.0, "bend": 0.0, "ch": 8}, {"t": 217.611, "dur": 0.096, "note": 68, "inst": "celesta_v0_additive_3", "vel": 1.0, "bend": 0.0, "ch": 4}, {"t": 217.707, "dur": 0.096, "note": 65, "inst": "celesta_v0_additive_3", "vel": 1.0, "bend": 0.0, "ch": 1}, {"t": 217.803, "dur": 0.096, "note": 64, "inst": "organ_v0_additive_1", "vel": 1.0, "bend": 0.0, "ch": 0}, {"t": 217.899, "dur": 0.096, "note": 61, "inst": "organ_v0_additive_1", "vel": 1.0, "bend": 0.0, "ch": 13}, {"t": 217.995, "dur": 0.096, "note": 60, "inst": "piano_v0_additive_0", "vel": 1.0, "bend": 0.0, "ch": 12}, {"t": 218.091, "dur": 0.096, "note": 77, "inst": "celesta_v0_additive_3", "vel": 1.0, "bend": 0.0, "ch": 13}, {"t": 218.186, "dur": 0.096, "note": 72, "inst": "piano_v0_additive_0", "vel": 1.0, "bend": 0.0, "ch": 8}, {"t": 218.186, "dur": 0.096, "note": 73, "inst": "organ_v0_additive_1", "vel": 1.0, "bend": 0.0, "ch": 9}, {"t": 218.282, "dur": 0.096, "note": 70, "inst": "organ_v0_additive_1", "vel": 1.0, "bend": 0.0, "ch": 6}, {"t": 218.378, "dur": 0.096, "note": 68, "inst": "celesta_v0_additive_3", "vel": 1.0, "bend": 0.0, "ch": 4}, {"t": 218.474, "dur": 0.096, "note": 61, "inst": "organ_v0_additive_1", "vel": 1.0, "bend": 0.0, "ch": 13}, {"t": 218.57, "dur": 0.096, "note": 70, "inst": "organ_v0_additive_1", "vel": 1.0, "bend": 0.0, "ch": 6}, {"t": 218.665, "dur": 0.096, "note": 58, "inst": "organ_v0_additive_1", "vel": 1.0, "bend": 0.0, "ch": 10}, {"t": 218.761, "dur": 0.096, "note": 70, "inst": "organ_v0_additive_1", "vel": 1.0, "bend": 0.0, "ch": 6}, {"t": 218.857, "dur": 0.096, "note": 77, "inst": "celesta_v0_additive_3", "vel": 1.0, "bend": 0.0, "ch": 13}, {"t": 218.953, "dur": 0.096, "note": 73, "inst": "organ_v0_additive_1", "vel": 1.0, "bend": 0.0, "ch": 9}, {"t": 218.953, "dur": 0.096, "note": 76, "inst": "organ_v0_additive_1", "vel": 1.0, "bend": 0.0, "ch": 12}, {"t": 219.049, "dur": 0.192, "note": 65, "inst": "celesta_v0_additive_3", "vel": 1.0, "bend": 0.0, "ch": 1}, {"t": 219.049, "dur": 0.192, "note": 76, "inst": "organ_v0_additive_1", "vel": 1.0, "bend": 0.0, "ch": 12}, {"t": 219.24, "dur": 0.096, "note": 77, "inst": "celesta_v0_additive_3", "vel": 1.0, "bend": 0.0, "ch": 13}, {"t": 219.336, "dur": 0.096, "note": 77, "inst": "celesta_v0_additive_3", "vel": 1.0, "bend": 0.0, "ch": 13}, {"t": 219.336, "dur": 0.096, "note": 77, "inst": "celesta_v0_additive_3", "vel": 1.0, "bend": 0.0, "ch": 13}, {"t": 219.432, "dur": 0.096, "note": 73, "inst": "organ_v0_additive_1", "vel": 1.0, "bend": 0.0, "ch": 9}, {"t": 219.432, "dur": 0.096, "note": 76, "inst": "organ_v0_additive_1", "vel": 1.0, "bend": 0.0, "ch": 12}, {"t": 219.528, "dur": 0.096, "note": 72, "inst": "piano_v0_additive_0", "vel": 1.0, "bend": 0.0, "ch": 8}, {"t": 219.528, "dur": 0.096, "note": 73, "inst": "organ_v0_additive_1", "vel": 1.0, "bend": 0.0, "ch": 9}, {"t": 219.624, "dur": 0.096, "note": 76, "inst": "organ_v0_additive_1", "vel": 1.0, "bend": 0.0, "ch": 12}, {"t": 219.719, "dur": 0.096, "note": 70, "inst": "organ_v0_additive_1", "vel": 1.0, "bend": 0.0, "ch": 6}, {"t": 219.719, "dur": 0.096, "note": 72, "inst": "piano_v0_additive_0", "vel": 1.0, "bend": 0.0, "ch": 8}, {"t": 219.815, "dur": 0.096, "note": 68, "inst": "celesta_v0_additive_3", "vel": 1.0, "bend": 0.0, "ch": 4}, {"t": 219.911, "dur": 0.096, "note": 65, "inst": "celesta_v0_additive_3", "vel": 1.0, "bend": 0.0, "ch": 1}, {"t": 220.007, "dur": 0.096, "note": 60, "inst": "piano_v0_additive_0", "vel": 1.0, "bend": 0.0, "ch": 12}, {"t": 220.103, "dur": 0.096, "note": 70, "inst": "organ_v0_additive_1", "vel": 1.0, "bend": 0.0, "ch": 6}, {"t": 220.199, "dur": 0.096, "note": 56, "inst": "celesta_v0_additive_3", "vel": 1.0, "bend": 0.0, "ch": 8}, {"t": 220.294, "dur": 0.096, "note": 68, "inst": "celesta_v0_additive_3", "vel": 1.0, "bend": 0.0, "ch": 4}, {"t": 220.39, "dur": 0.096, "note": 77, "inst": "celesta_v0_additive_3", "vel": 1.0, "bend": 0.0, "ch": 13}, {"t": 220.486, "dur": 0.096, "note": 72, "inst": "piano_v0_additive_0", "vel": 1.0, "bend": 0.0, "ch": 8}, {"t": 220.486, "dur": 0.096, "note": 73, "inst": "organ_v0_additive_1", "vel": 1.0, "bend": 0.0, "ch": 9}, {"t": 220.582, "dur": 0.192, "note": 65, "inst": "celesta_v0_additive_3", "vel": 1.0, "bend": 0.0, "ch": 1}, {"t": 220.582, "dur": 0.192, "note": 73, "inst": "organ_v0_additive_1", "vel": 1.0, "bend": 0.0, "ch": 9}, {"t": 220.773, "dur": 0.096, "note": 76, "inst": "organ_v0_additive_1", "vel": 1.0, "bend": 0.0, "ch": 12}, {"t": 220.869, "dur": 0.096, "note": 76, "inst": "organ_v0_additive_1", "vel": 1.0, "bend": 0.0, "ch": 12}, {"t": 220.869, "dur": 0.096, "note": 77, "inst": "celesta_v0_additive_3", "vel": 1.0, "bend": 0.0, "ch": 13}, {"t": 220.965, "dur": 0.096, "note": 73, "inst": "organ_v0_additive_1", "vel": 1.0, "bend": 0.0, "ch": 9}, {"t": 221.061, "dur": 0.096, "note": 68, "inst": "celesta_v0_additive_3", "vel": 1.0, "bend": 0.0, "ch": 4}, {"t": 221.061, "dur": 0.096, "note": 70, "inst": "organ_v0_additive_1", "vel": 1.0, "bend": 0.0, "ch": 6}, {"t": 221.157, "dur": 0.192, "note": 53, "inst": "celesta_v0_additive_3", "vel": 1.0, "bend": 0.0, "ch": 5}, {"t": 221.157, "dur": 0.096, "note": 68, "inst": "celesta_v0_additive_3", "vel": 1.0, "bend": 0.0, "ch": 4}, {"t": 221.157, "dur": 0.096, "note": 70, "inst": "organ_v0_additive_1", "vel": 1.0, "bend": 0.0, "ch": 6}, {"t": 221.253, "dur": 0.096, "note": 65, "inst": "celesta_v0_additive_3", "vel": 1.0, "bend": 0.0, "ch": 1}, {"t": 221.253, "dur": 0.096, "note": 65, "inst": "celesta_v0_additive_3", "vel": 1.0, "bend": 0.0, "ch": 1}, {"t": 221.348, "dur": 0.192, "note": 58, "inst": "organ_v0_additive_1", "vel": 1.0, "bend": 0.0, "ch": 10}, {"t": 221.348, "dur": 0.096, "note": 64, "inst": "organ_v0_additive_1", "vel": 1.0, "bend": 0.0, "ch": 0}, {"t": 221.444, "dur": 0.192, "note": 73, "inst": "organ_v0_additive_1", "vel": 1.0, "bend": 0.0, "ch": 9}, {"t": 221.54, "dur": 0.192, "note": 64, "inst": "organ_v0_additive_1", "vel": 1.0, "bend": 0.0, "ch": 0}, {"t": 221.636, "dur": 0.096, "note": 70, "inst": "organ_v0_additive_1", "vel": 1.0, "bend": 0.0, "ch": 6}, {"t": 221.636, "dur": 0.096, "note": 72, "inst": "piano_v0_additive_0", "vel": 1.0, "bend": 0.0, "ch": 8}, {"t": 221.732, "dur": 0.192, "note": 53, "inst": "celesta_v0_additive_3", "vel": 1.0, "bend": 0.0, "ch": 5}, {"t": 221.732, "dur": 0.096, "note": 72, "inst": "piano_v0_additive_0", "vel": 1.0, "bend": 0.0, "ch": 8}, {"t": 221.732, "dur": 0.096, "note": 73, "inst": "organ_v0_additive_1", "vel": 1.0, "bend": 0.0, "ch": 9}, {"t": 221.827, "dur": 0.096, "note": 68, "inst": "celesta_v0_additive_3", "vel": 1.0, "bend": 0.0, "ch": 4}, {"t": 221.827, "dur": 0.096, "note": 70, "inst": "organ_v0_additive_1", "vel": 1.0, "bend": 0.0, "ch": 6}, {"t": 221.923, "dur": 0.192, "note": 53, "inst": "celesta_v0_additive_3", "vel": 1.0, "bend": 0.0, "ch": 5}, {"t": 221.923, "dur": 0.096, "note": 70, "inst": "organ_v0_additive_1", "vel": 1.0, "bend": 0.0, "ch": 6}, {"t": 221.923, "dur": 0.096, "note": 72, "inst": "piano_v0_additive_0", "vel": 1.0, "bend": 0.0, "ch": 8}, {"t": 222.019, "dur": 0.096, "note": 73, "inst": "organ_v0_additive_1", "vel": 1.0, "bend": 0.0, "ch": 9}, {"t": 222.019, "dur": 0.096, "note": 76, "inst": "organ_v0_additive_1", "vel": 1.0, "bend": 0.0, "ch": 12}, {"t": 222.115, "dur": 0.192, "note": 58, "inst": "organ_v0_additive_1", "vel": 1.0, "bend": 0.0, "ch": 10}, {"t": 222.115, "dur": 0.096, "note": 77, "inst": "celesta_v0_additive_3", "vel": 1.0, "bend": 0.0, "ch": 13}, {"t": 222.211, "dur": 0.192, "note": 70, "inst": "organ_v0_additive_1", "vel": 1.0, "bend": 0.0, "ch": 6}, {"t": 222.307, "dur": 0.192, "note": 61, "inst": "organ_v0_additive_1", "vel": 1.0, "bend": 0.0, "ch": 13}, {"t": 222.402, "dur": 0.096, "note": 68, "inst": "celesta_v0_additive_3", "vel": 1.0, "bend": 0.0, "ch": 4}, {"t": 222.402, "dur": 0.096, "note": 70, "inst": "organ_v0_additive_1", "vel": 1.0, "bend": 0.0, "ch": 6}, {"t": 222.498, "dur": 0.192, "note": 53, "inst": "celesta_v0_additive_3", "vel": 1.0, "bend": 0.0, "ch": 5}, {"t": 222.498, "dur": 0.096, "note": 70, "inst": "organ_v0_additive_1", "vel": 1.0, "bend": 0.0, "ch": 6}, {"t": 222.498, "dur": 0.096, "note": 72, "inst": "piano_v0_additive_0", "vel": 1.0, "bend": 0.0, "ch": 8}, {"t": 222.594, "dur": 0.096, "note": 68, "inst": "celesta_v0_additive_3", "vel": 1.0, "bend": 0.0, "ch": 4}, {"t": 222.594, "dur": 0.096, "note": 70, "inst": "organ_v0_additive_1", "vel": 1.0, "bend": 0.0, "ch": 6}, {"t": 222.69, "dur": 0.192, "note": 52, "inst": "organ_v0_additive_1", "vel": 1.0, "bend": 0.0, "ch": 4}, {"t": 222.69, "dur": 0.096, "note": 77, "inst": "celesta_v0_additive_3", "vel": 1.0, "bend": 0.0, "ch": 13}, {"t": 222.69, "dur": 0.096, "note": 77, "inst": "celesta_v0_additive_3", "vel": 1.0, "bend": 0.0, "ch": 13}, {"t": 222.786, "dur": 0.096, "note": 73, "inst": "organ_v0_additive_1", "vel": 1.0, "bend": 0.0, "ch": 9}, {"t": 222.786, "dur": 0.096, "note": 76, "inst": "organ_v0_additive_1", "vel": 1.0, "bend": 0.0, "ch": 12}, {"t": 222.881, "dur": 0.192, "note": 53, "inst": "celesta_v0_additive_3", "vel": 1.0, "bend": 0.0, "ch": 5}, {"t": 222.881, "dur": 0.096, "note": 76, "inst": "organ_v0_additive_1", "vel": 1.0, "bend": 0.0, "ch": 12}, {"t": 222.977, "dur": 0.192, "note": 70, "inst": "organ_v0_additive_1", "vel": 1.0, "bend": 0.0, "ch": 6}, {"t": 223.073, "dur": 0.192, "note": 53, "inst": "celesta_v0_additive_3", "vel": 1.0, "bend": 0.0, "ch": 5}, {"t": 223.169, "dur": 0.096, "note": 70, "inst": "organ_v0_additive_1", "vel": 1.0, "bend": 0.0, "ch": 6}, {"t": 223.169, "dur": 0.096, "note": 70, "inst": "organ_v0_additive_1", "vel": 1.0, "bend": 0.0, "ch": 6}, {"t": 223.265, "dur": 0.192, "note": 52, "inst": "organ_v0_additive_1", "vel": 1.0, "bend": 0.0, "ch": 4}, {"t": 223.265, "dur": 0.096, "note": 70, "inst": "organ_v0_additive_1", "vel": 1.0, "bend": 0.0, "ch": 6}, {"t": 223.265, "dur": 0.096, "note": 73, "inst": "organ_v0_additive_1", "vel": 1.0, "bend": 0.0, "ch": 9}, {"t": 223.361, "dur": 0.096, "note": 70, "inst": "organ_v0_additive_1", "vel": 1.0, "bend": 0.0, "ch": 6}, {"t": 223.361, "dur": 0.096, "note": 70, "inst": "organ_v0_additive_1", "vel": 1.0, "bend": 0.0, "ch": 6}, {"t": 223.456, "dur": 0.192, "note": 49, "inst": "organ_v0_additive_1", "vel": 1.0, "bend": 0.0, "ch": 1}, {"t": 223.456, "dur": 0.096, "note": 76, "inst": "organ_v0_additive_1", "vel": 1.0, "bend": 0.0, "ch": 12}, {"t": 223.456, "dur": 0.096, "note": 77, "inst": "celesta_v0_additive_3", "vel": 1.0, "bend": 0.0, "ch": 13}, {"t": 223.552, "dur": 0.096, "note": 72, "inst": "piano_v0_additive_0", "vel": 1.0, "bend": 0.0, "ch": 8}, {"t": 223.552, "dur": 0.096, "note": 73, "inst": "organ_v0_additive_1", "vel": 1.0, "bend": 0.0, "ch": 9}, {"t": 223.648, "dur": 0.192, "note": 53, "inst": "celesta_v0_additive_3", "vel": 1.0, "bend": 0.0, "ch": 5}, {"t": 223.648, "dur": 0.096, "note": 73, "inst": "organ_v0_additive_1", "vel": 1.0, "bend": 0.0, "ch": 9}, {"t": 223.744, "dur": 0.192, "note": 70, "inst": "organ_v0_additive_1", "vel": 1.0, "bend": 0.0, "ch": 6}, {"t": 223.84, "dur": 0.192, "note": 52, "inst": "organ_v0_additive_1", "vel": 1.0, "bend": 0.0, "ch": 4}, {"t": 223.935, "dur": 0.096, "note": 68, "inst": "celesta_v0_additive_3", "vel": 1.0, "bend": 0.0, "ch": 4}, {"t": 223.935, "dur": 0.096, "note": 70, "inst": "organ_v0_additive_1", "vel": 1.0, "bend": 0.0, "ch": 6}, {"t": 224.031, "dur": 0.192, "note": 49, "inst": "organ_v0_additive_1", "vel": 1.0, "bend": 0.0, "ch": 1}, {"t": 224.031, "dur": 0.096, "note": 70, "inst": "organ_v0_additive_1", "vel": 1.0, "bend": 0.0, "ch": 6}, {"t": 224.031, "dur": 0.096, "note": 72, "inst": "piano_v0_additive_0", "vel": 1.0, "bend": 0.0, "ch": 8}, {"t": 224.127, "dur": 0.096, "note": 68, "inst": "celesta_v0_additive_3", "vel": 1.0, "bend": 0.0, "ch": 4}, {"t": 224.127, "dur": 0.096, "note": 70, "inst": "organ_v0_additive_1", "vel": 1.0, "bend": 0.0, "ch": 6}, {"t": 224.223, "dur": 0.192, "note": 48, "inst": "piano_v0_additive_0", "vel": 1.0, "bend": 0.0, "ch": 0}, {"t": 224.223, "dur": 0.096, "note": 70, "inst": "organ_v0_additive_1", "vel": 1.0, "bend": 0.0, "ch": 6}, {"t": 224.223, "dur": 0.096, "note": 76, "inst": "organ_v0_additive_1", "vel": 1.0, "bend": 0.0, "ch": 12}, {"t": 224.319, "dur": 0.096, "note": 67, "inst": "organ_v0_additive_1", "vel": 1.0, "bend": 0.0, "ch": 3}, {"t": 224.319, "dur": 0.096, "note": 68, "inst": "celesta_v0_additive_3", "vel": 1.0, "bend": 0.0, "ch": 4}, {"t": 224.414, "dur": 0.192, "note": 52, "inst": "organ_v0_additive_1", "vel": 1.0, "bend": 0.0, "ch": 4}, {"t": 224.414, "dur": 0.096, "note": 68, "inst": "celesta_v0_additive_3", "vel": 1.0, "bend": 0.0, "ch": 4}, {"t": 224.51, "dur": 0.096, "note": 72, "inst": "piano_v0_additive_0", "vel": 1.0, "bend": 0.0, "ch": 8}, {"t": 224.606, "dur": 0.192, "note": 53, "inst": "celesta_v0_additive_3", "vel": 1.0, "bend": 0.0, "ch": 5}, {"t": 224.606, "dur": 0.096, "note": 68, "inst": "celesta_v0_additive_3", "vel": 1.0, "bend": 0.0, "ch": 4}, {"t": 224.606, "dur": 0.096, "note": 76, "inst": "organ_v0_additive_1", "vel": 1.0, "bend": 0.0, "ch": 12}, {"t": 224.702, "dur": 0.096, "note": 65, "inst": "celesta_v0_additive_3", "vel": 1.0, "bend": 0.0, "ch": 1}, {"t": 224.702, "dur": 0.096, "note": 65, "inst": "celesta_v0_additive_3", "vel": 1.0, "bend": 0.0, "ch": 1}, {"t": 224.798, "dur": 0.192, "note": 46, "inst": "organ_v0_additive_1", "vel": 1.0, "bend": 0.0, "ch": 14}, {"t": 224.798, "dur": 0.096, "note": 65, "inst": "celesta_v0_additive_3", "vel": 1.0, "bend": 0.0, "ch": 1}, {"t": 224.894, "dur": 0.096, "note": 70, "inst": "organ_v0_additive_1", "vel": 1.0, "bend": 0.0, "ch": 6}, {"t": 224.989, "dur": 0.192, "note": 44, "inst": "celesta_v0_additive_3", "vel": 1.0, "bend": 0.0, "ch": 12}, {"t": 224.989, "dur": 0.096, "note": 65, "inst": "celesta_v0_additive_3", "vel": 1.0, "bend": 0.0, "ch": 1}, {"t": 224.989, "dur": 0.096, "note": 76, "inst": "organ_v0_additive_1", "vel": 1.0, "bend": 0.0, "ch": 12}, {"t": 225.085, "dur": 0.096, "note": 64, "inst": "organ_v0_additive_1", "vel": 1.0, "bend": 0.0, "ch": 0}, {"t": 225.085, "dur": 0.096, "note": 65, "inst": "celesta_v0_additive_3", "vel": 1.0, "bend": 0.0, "ch": 1}, {"t": 225.181, "dur": 0.192, "note": 48, "inst": "piano_v0_additive_0", "vel": 1.0, "bend": 0.0, "ch": 0}, {"t": 225.181, "dur": 0.192, "note": 65, "inst": "celesta_v0_additive_3", "vel": 1.0, "bend": 0.0, "ch": 1}, {"t": 252.079, "dur": 0.038, "note": 87, "inst": "piano_v0_additive_0", "vel": 0.709, "bend": 0.0, "ch": 7}, {"t": 252.079, "dur": 0.038, "note": 90, "inst": "piano_v0_additive_0", "vel": 0.709, "bend": 0.0, "ch": 10}, {"t": 252.117, "dur": 0.038, "note": 85, "inst": "organ_v0_additive_1", "vel": 0.709, "bend": 0.0, "ch": 5}, {"t": 252.117, "dur": 0.038, "note": 90, "inst": "piano_v0_additive_0", "vel": 0.709, "bend": 0.0, "ch": 10}, {"t": 252.155, "dur": 0.038, "note": 85, "inst": "organ_v0_additive_1", "vel": 0.709, "bend": 0.0, "ch": 5}, {"t": 252.155, "dur": 0.038, "note": 87, "inst": "piano_v0_additive_0", "vel": 0.709, "bend": 0.0, "ch": 7}, {"t": 252.193, "dur": 0.114, "note": 66, "inst": "piano_v0_additive_0", "vel": 0.709, "bend": 0.0, "ch": 2}, {"t": 252.193, "dur": 0.114, "note": 70, "inst": "organ_v0_additive_1", "vel": 0.709, "bend": 0.0, "ch": 6}, {"t": 252.193, "dur": 0.114, "note": 82, "inst": "organ_v0_additive_1", "vel": 0.756, "bend": 0.0, "ch": 2}, {"t": 252.193, "dur": 0.114, "note": 85, "inst": "organ_v0_additive_1", "vel": 0.756, "bend": 0.0, "ch": 5}, {"t": 252.306, "dur": 0.114, "note": 61, "inst": "organ_v0_additive_1", "vel": 0.756, "bend": 0.0, "ch": 13}, {"t": 252.306, "dur": 0.114, "note": 66, "inst": "piano_v0_additive_0", "vel": 0.756, "bend": 0.0, "ch": 2}, {"t": 252.306, "dur": 0.114, "note": 70, "inst": "organ_v0_additive_1", "vel": 0.756, "bend": 0.0, "ch": 6}, {"t": 252.306, "dur": 0.114, "note": 85, "inst": "organ_v0_additive_1", "vel": 0.756, "bend": 0.0, "ch": 5}, {"t": 252.42, "dur": 0.114, "note": 63, "inst": "piano_v0_additive_0", "vel": 0.756, "bend": 0.0, "ch": 15}, {"t": 252.42, "dur": 0.114, "note": 66, "inst": "piano_v0_additive_0", "vel": 0.756, "bend": 0.0, "ch": 2}, {"t": 252.42, "dur": 0.114, "note": 78, "inst": "piano_v0_additive_0", "vel": 0.756, "bend": 0.0, "ch": 14}, {"t": 252.42, "dur": 0.114, "note": 82, "inst": "organ_v0_additive_1", "vel": 0.756, "bend": 0.0, "ch": 2}, {"t": 252.534, "dur": 0.114, "note": 61, "inst": "organ_v0_additive_1", "vel": 0.756, "bend": 0.0, "ch": 13}, {"t": 252.534, "dur": 0.114, "note": 61, "inst": "organ_v0_additive_1", "vel": 0.756, "bend": 0.0, "ch": 13}, {"t": 252.534, "dur": 0.114, "note": 75, "inst": "piano_v0_additive_0", "vel": 0.756, "bend": 0.0, "ch": 11}, {"t": 252.534, "dur": 0.114, "note": 70, "inst": "organ_v0_additive_1", "vel": 0.756, "bend": 0.0, "ch": 6}, {"t": 252.647, "dur": 0.227, "note": 61, "inst": "organ_v0_additive_1", "vel": 0.709, "bend": 0.0, "ch": 13}, {"t": 252.647, "dur": 0.454, "note": 61, "inst": "organ_v0_additive_1", "vel": 0.709, "bend": 0.0, "ch": 13}, {"t": 252.647, "dur": 0.227, "note": 70, "inst": "organ_v0_additive_1", "vel": 0.709, "bend": 0.0, "ch": 6}, {"t": 252.647, "dur": 0.227, "note": 78, "inst": "piano_v0_additive_0", "vel": 0.709, "bend": 0.0, "ch": 14}, {"t": 253.101, "dur": 0.341, "note": 61, "inst": "organ_v0_additive_1", "vel": 0.709, "bend": 0.0, "ch": 13}, {"t": 253.101, "dur": 0.454, "note": 66, "inst": "piano_v0_additive_0", "vel": 0.709, "bend": 0.0, "ch": 2}, {"t": 253.101, "dur": 0.341, "note": 73, "inst": "organ_v0_additive_1", "vel": 0.709, "bend": 0.0, "ch": 9}, {"t": 253.328, "dur": 0.227, "note": 49, "inst": "organ_v0_additive_1", "vel": 0.709, "bend": 0.0, "ch": 1}, {"t": 253.442, "dur": 0.114, "note": 46, "inst": "organ_v0_additive_1", "vel": 0.709, "bend": 0.0, "ch": 14}, {"t": 253.442, "dur": 0.057, "note": 75, "inst": "piano_v0_additive_0", "vel": 0.709, "bend": 0.0, "ch": 11}, {"t": 253.499, "dur": 0.057, "note": 73, "inst": "organ_v0_additive_1", "vel": 0.709, "bend": 0.0, "ch": 9}, {"t": 253.555, "dur": 0.227, "note": 54, "inst": "piano_v0_additive_0", "vel": 0.709, "bend": 0.0, "ch": 6}, {"t": 253.555, "dur": 0.227, "note": 54, "inst": "piano_v0_additive_0", "vel": 0.709, "bend": 0.0, "ch": 6}, {"t": 253.555, "dur": 0.227, "note": 66, "inst": "piano_v0_additive_0", "vel": 0.709, "bend": 0.0, "ch": 2}, {"t": 253.555, "dur": 0.227, "note": 70, "inst": "organ_v0_additive_1", "vel": 0.709, "bend": 0.0, "ch": 6}, {"t": 254.237, "dur": 0.227, "note": 42, "inst": "piano_v0_additive_0", "vel": 0.709, "bend": 0.0, "ch": 10}, {"t": 254.237, "dur": 0.114, "note": 54, "inst": "piano_v0_additive_0", "vel": 0.709, "bend": 0.0, "ch": 6}, {"t": 254.237, "dur": 0.114, "note": 66, "inst": "piano_v0_additive_0", "vel": 0.709, "bend": 0.0, "ch": 2}, {"t": 254.237, "dur": 0.227, "note": 70, "inst": "organ_v0_additive_1", "vel": 0.709, "bend": 0.0, "ch": 6}, {"t": 254.35, "dur": 0.114, "note": 66, "inst": "piano_v0_additive_0", "vel": 0.756, "bend": 0.0, "ch": 2}, {"t": 254.35, "dur": 0.114, "note": 70, "inst": "organ_v0_additive_1", "vel": 0.709, "bend": 0.0, "ch": 6}, {"t": 254.464, "dur": 0.227, "note": 46, "inst": "organ_v0_additive_1", "vel": 0.709, "bend": 0.0, "ch": 14}, {"t": 254.464, "dur": 0.114, "note": 66, "inst": "piano_v0_additive_0", "vel": 0.756, "bend": 0.0, "ch": 2}, {"t": 254.464, "dur": 0.114, "note": 70, "inst": "organ_v0_additive_1", "vel": 0.756, "bend": 0.0, "ch": 6}, {"t": 254.577, "dur": 0.114, "note": 66, "inst": "piano_v0_additive_0", "vel": 0.756, "bend": 0.0, "ch": 2}, {"t": 254.577, "dur": 0.114, "note": 70, "inst": "organ_v0_additive_1", "vel": 0.756, "bend": 0.0, "ch": 6}, {"t": 254.691, "dur": 0.227, "note": 49, "inst": "organ_v0_additive_1", "vel": 0.709, "bend": 0.0, "ch": 1}, {"t": 254.691, "dur": 0.114, "note": 66, "inst": "piano_v0_additive_0", "vel": 0.756, "bend": 0.0, "ch": 2}, {"t": 254.691, "dur": 0.114, "note": 70, "inst": "organ_v0_additive_1", "vel": 0.756, "bend": 0.0, "ch": 6}, {"t": 254.804, "dur": 0.114, "note": 66, "inst": "piano_v0_additive_0", "vel": 0.756, "bend": 0.0, "ch": 2}, {"t": 254.804, "dur": 0.114, "note": 70, "inst": "organ_v0_additive_1", "vel": 0.756, "bend": 0.0, "ch": 6}, {"t": 254.918, "dur": 0.227, "note": 54, "inst": "piano_v0_additive_0", "vel": 0.709, "bend": 0.0, "ch": 6}, {"t": 254.918, "dur": 0.114, "note": 66, "inst": "piano_v0_additive_0", "vel": 0.756, "bend": 0.0, "ch": 2}, {"t": 254.918, "dur": 0.114, "note": 70, "inst": "organ_v0_additive_1", "vel": 0.756, "bend": 0.0, "ch": 6}, {"t": 254.918, "dur": 0.17, "note": 73, "inst": "organ_v0_additive_1", "vel": 0.756, "bend": 0.0, "ch": 9}, {"t": 255.031, "dur": 0.114, "note": 66, "inst": "piano_v0_additive_0", "vel": 0.756, "bend": 0.0, "ch": 2}, {"t": 255.031, "dur": 0.114, "note": 70, "inst": "organ_v0_additive_1", "vel": 0.756, "bend": 0.0, "ch": 6}, {"t": 255.088, "dur": 0.057, "note": 73, "inst": "organ_v0_additive_1", "vel": 0.756, "bend": 0.0, "ch": 9}, {"t": 255.145, "dur": 0.227, "note": 58, "inst": "organ_v0_additive_1", "vel": 0.709, "bend": 0.0, "ch": 10}, {"t": 255.145, "dur": 0.114, "note": 66, "inst": "piano_v0_additive_0", "vel": 0.756, "bend": 0.0, "ch": 2}, {"t": 255.145, "dur": 0.114, "note": 70, "inst": "organ_v0_additive_1", "vel": 0.756, "bend": 0.0, "ch": 6}, {"t": 255.145, "dur": 0.568, "note": 78, "inst": "piano_v0_additive_0", "vel": 0.709, "bend": 0.0, "ch": 14}, {"t": 255.259, "dur": 0.114, "note": 66, "inst": "piano_v0_additive_0", "vel": 0.756, "bend": 0.0, "ch": 2}, {"t": 255.259, "dur": 0.114, "note": 70, "inst": "organ_v0_additive_1", "vel": 0.756, "bend": 0.0, "ch": 6}, {"t": 255.372, "dur": 0.227, "note": 61, "inst": "organ_v0_additive_1", "vel": 0.709, "bend": 0.0, "ch": 13}, {"t": 255.372, "dur": 0.114, "note": 66, "inst": "piano_v0_additive_0", "vel": 0.756, "bend": 0.0, "ch": 2}, {"t": 255.372, "dur": 0.114, "note": 70, "inst": "organ_v0_additive_1", "vel": 0.756, "bend": 0.0, "ch": 6}, {"t": 255.486, "dur": 0.114, "note": 66, "inst": "piano_v0_additive_0", "vel": 0.756, "bend": 0.0, "ch": 2}, {"t": 255.486, "dur": 0.114, "note": 70, "inst": "organ_v0_additive_1", "vel": 0.756, "bend": 0.0, "ch": 6}, {"t": 255.599, "dur": 0.114, "note": 66, "inst": "piano_v0_additive_0", "vel": 0.756, "bend": 0.0, "ch": 2}, {"t": 255.599, "dur": 0.227, "note": 66, "inst": "piano_v0_additive_0", "vel": 0.709, "bend": 0.0, "ch": 2}, {"t": 255.599, "dur": 0.114, "note": 70, "inst": "organ_v0_additive_1", "vel": 0.756, "bend": 0.0, "ch": 6}, {"t": 255.713, "dur": 0.114, "note": 66, "inst": "piano_v0_additive_0", "vel": 0.756, "bend": 0.0, "ch": 2}, {"t": 255.713, "dur": 0.114, "note": 70, "inst": "organ_v0_additive_1", "vel": 0.756, "bend": 0.0, "ch": 6}, {"t": 255.713, "dur": 0.057, "note": 78, "inst": "piano_v0_additive_0", "vel": 0.709, "bend": 0.0, "ch": 14}, {"t": 255.77, "dur": 0.057, "note": 78, "inst": "piano_v0_additive_0", "vel": 0.709, "bend": 0.0, "ch": 14}, {"t": 255.826, "dur": 0.114, "note": 66, "inst": "piano_v0_additive_0", "vel": 0.756, "bend": 0.0, "ch": 2}, {"t": 255.826, "dur": 0.114, "note": 70, "inst": "organ_v0_additive_1", "vel": 0.756, "bend": 0.0, "ch": 6}, {"t": 255.826, "dur": 0.227, "note": 70, "inst": "organ_v0_additive_1", "vel": 0.709, "bend": 0.0, "ch": 6}, {"t": 255.826, "dur": 0.057, "note": 78, "inst": "piano_v0_additive_0", "vel": 0.709, "bend": 0.0, "ch": 14}, {"t": 255.883, "dur": 0.057, "note": 78, "inst": "piano_v0_additive_0", "vel": 0.709, "bend": 0.0, "ch": 14}, {"t": 255.94, "dur": 0.114, "note": 66, "inst": "piano_v0_additive_0", "vel": 0.756, "bend": 0.0, "ch": 2}, {"t": 255.94, "dur": 0.114, "note": 70, "inst": "organ_v0_additive_1", "vel": 0.756, "bend": 0.0, "ch": 6}, {"t": 255.94, "dur": 0.057, "note": 82, "inst": "organ_v0_additive_1", "vel": 0.709, "bend": 0.0, "ch": 2}, {"t": 255.997, "dur": 0.057, "note": 78, "inst": "piano_v0_additive_0", "vel": 0.709, "bend": 0.0, "ch": 14}, {"t": 256.053, "dur": 0.114, "note": 66, "inst": "piano_v0_additive_0", "vel": 0.709, "bend": 0.0, "ch": 2}, {"t": 256.053, "dur": 0.114, "note": 70, "inst": "organ_v0_additive_1", "vel": 0.709, "bend": 0.0, "ch": 6}, {"t": 256.053, "dur": 0.227, "note": 73, "inst": "organ_v0_additive_1", "vel": 0.709, "bend": 0.0, "ch": 9}, {"t": 256.053, "dur": 0.227, "note": 73, "inst": "organ_v0_additive_1", "vel": 0.709, "bend": 0.0, "ch": 9}, {"t": 256.167, "dur": 0.114, "note": 66, "inst": "piano_v0_additive_0", "vel": 0.709, "bend": 0.0, "ch": 2}, {"t": 256.167, "dur": 0.114, "note": 70, "inst": "organ_v0_additive_1", "vel": 0.709, "bend": 0.0, "ch": 6}, {"t": 256.28, "dur": 0.114, "note": 66, "inst": "piano_v0_additive_0", "vel": 0.709, "bend": 0.0, "ch": 2}, {"t": 256.28, "dur": 0.114, "note": 70, "inst": "organ_v0_additive_1", "vel": 0.709, "bend": 0.0, "ch": 6}, {"t": 256.28, "dur": 0.227, "note": 78, "inst": "piano_v0_additive_0", "vel": 0.709, "bend": 0.0, "ch": 14}, {"t": 256.394, "dur": 0.114, "note": 66, "inst": "piano_v0_additive_0", "vel": 0.709, "bend": 0.0, "ch": 2}, {"t": 256.394, "dur": 0.114, "note": 70, "inst": "organ_v0_additive_1", "vel": 0.709, "bend": 0.0, "ch": 6}, {"t": 256.508, "dur": 0.114, "note": 66, "inst": "piano_v0_additive_0", "vel": 0.709, "bend": 0.0, "ch": 2}, {"t": 256.508, "dur": 0.114, "note": 70, "inst": "organ_v0_additive_1", "vel": 0.709, "bend": 0.0, "ch": 6}, {"t": 256.508, "dur": 0.227, "note": 82, "inst": "organ_v0_additive_1", "vel": 0.709, "bend": 0.0, "ch": 2}, {"t": 256.621, "dur": 0.114, "note": 66, "inst": "piano_v0_additive_0", "vel": 0.709, "bend": 0.0, "ch": 2}, {"t": 256.621, "dur": 0.114, "note": 70, "inst": "organ_v0_additive_1", "vel": 0.709, "bend": 0.0, "ch": 6}, {"t": 256.735, "dur": 0.114, "note": 66, "inst": "piano_v0_additive_0", "vel": 0.709, "bend": 0.0, "ch": 2}, {"t": 256.735, "dur": 0.114, "note": 70, "inst": "organ_v0_additive_1", "vel": 0.709, "bend": 0.0, "ch": 6}, {"t": 256.735, "dur": 0.17, "note": 73, "inst": "organ_v0_additive_1", "vel": 0.756, "bend": 0.0, "ch": 9}, {"t": 256.735, "dur": 0.227, "note": 78, "inst": "piano_v0_additive_0", "vel": 0.709, "bend": 0.0, "ch": 14}, {"t": 256.848, "dur": 0.114, "note": 66, "inst": "piano_v0_additive_0", "vel": 0.709, "bend": 0.0, "ch": 2}, {"t": 256.848, "dur": 0.114, "note": 70, "inst": "organ_v0_additive_1", "vel": 0.709, "bend": 0.0, "ch": 6}, {"t": 256.905, "dur": 0.057, "note": 73, "inst": "organ_v0_additive_1", "vel": 0.756, "bend": 0.0, "ch": 9}, {"t": 256.962, "dur": 0.227, "note": 49, "inst": "organ_v0_additive_1", "vel": 0.709, "bend": 0.0, "ch": 1}, {"t": 256.962, "dur": 0.114, "note": 61, "inst": "organ_v0_additive_1", "vel": 0.709, "bend": 0.0, "ch": 13}, {"t": 256.962, "dur": 0.114, "note": 66, "inst": "piano_v0_additive_0", "vel": 0.709, "bend": 0.0, "ch": 2}, {"t": 256.962, "dur": 0.114, "note": 58, "inst": "organ_v0_additive_1", "vel": 0.709, "bend": 0.0, "ch": 10}, {"t": 256.962, "dur": 0.114, "note": 73, "inst": "organ_v0_additive_1", "vel": 0.709, "bend": 0.0, "ch": 9}, {"t": 256.962, "dur": 0.568, "note": 70, "inst": "organ_v0_additive_1", "vel": 0.709, "bend": 0.0, "ch": 6}, {"t": 257.075, "dur": 0.114, "note": 61, "inst": "organ_v0_additive_1", "vel": 0.709, "bend": 0.0, "ch": 13}, {"t": 257.075, "dur": 0.114, "note": 66, "inst": "piano_v0_additive_0", "vel": 0.709, "bend": 0.0, "ch": 2}, {"t": 257.075, "dur": 0.114, "note": 58, "inst": "organ_v0_additive_1", "vel": 0.709, "bend": 0.0, "ch": 10}, {"t": 257.075, "dur": 0.114, "note": 73, "inst": "organ_v0_additive_1", "vel": 0.709, "bend": 0.0, "ch": 9}, {"t": 257.189, "dur": 0.114, "note": 61, "inst": "organ_v0_additive_1", "vel": 0.709, "bend": 0.0, "ch": 13}, {"t": 257.189, "dur": 0.227, "note": 61, "inst": "organ_v0_additive_1", "vel": 0.709, "bend": 0.0, "ch": 13}, {"t": 257.189, "dur": 0.114, "note": 66, "inst": "piano_v0_additive_0", "vel": 0.709, "bend": 0.0, "ch": 2}, {"t": 257.189, "dur": 0.114, "note": 58, "inst": "organ_v0_additive_1", "vel": 0.709, "bend": 0.0, "ch": 10}, {"t": 257.189, "dur": 0.114, "note": 73, "inst": "organ_v0_additive_1", "vel": 0.709, "bend": 0.0, "ch": 9}, {"t": 257.302, "dur": 0.114, "note": 61, "inst": "organ_v0_additive_1", "vel": 0.709, "bend": 0.0, "ch": 13}, {"t": 257.302, "dur": 0.114, "note": 66, "inst": "piano_v0_additive_0", "vel": 0.709, "bend": 0.0, "ch": 2}, {"t": 257.302, "dur": 0.114, "note": 58, "inst": "organ_v0_additive_1", "vel": 0.709, "bend": 0.0, "ch": 10}, {"t": 257.302, "dur": 0.114, "note": 73, "inst": "organ_v0_additive_1", "vel": 0.709, "bend": 0.0, "ch": 9}, {"t": 257.416, "dur": 0.114, "note": 61, "inst": "organ_v0_additive_1", "vel": 0.709, "bend": 0.0, "ch": 13}, {"t": 257.416, "dur": 0.114, "note": 66, "inst": "piano_v0_additive_0", "vel": 0.709, "bend": 0.0, "ch": 2}, {"t": 257.416, "dur": 0.227, "note": 66, "inst": "piano_v0_additive_0", "vel": 0.709, "bend": 0.0, "ch": 2}, {"t": 257.416, "dur": 0.114, "note": 58, "inst": "organ_v0_additive_1", "vel": 0.709, "bend": 0.0, "ch": 10}, {"t": 257.416, "dur": 0.114, "note": 73, "inst": "organ_v0_additive_1", "vel": 0.709, "bend": 0.0, "ch": 9}, {"t": 257.529, "dur": 0.114, "note": 61, "inst": "organ_v0_additive_1", "vel": 0.709, "bend": 0.0, "ch": 13}, {"t": 257.529, "dur": 0.114, "note": 66, "inst": "piano_v0_additive_0", "vel": 0.709, "bend": 0.0, "ch": 2}, {"t": 257.529, "dur": 0.114, "note": 58, "inst": "organ_v0_additive_1", "vel": 0.709, "bend": 0.0, "ch": 10}, {"t": 257.529, "dur": 0.114, "note": 73, "inst": "organ_v0_additive_1", "vel": 0.709, "bend": 0.0, "ch": 9}, {"t": 257.529, "dur": 0.057, "note": 80, "inst": "celesta_v0_additive_3", "vel": 0.709, "bend": 0.0, "ch": 0}, {"t": 257.586, "dur": 0.057, "note": 70, "inst": "organ_v0_additive_1", "vel": 0.709, "bend": 0.0, "ch": 6}, {"t": 257.643, "dur": 0.114, "note": 61, "inst": "organ_v0_additive_1", "vel": 0.709, "bend": 0.0, "ch": 13}, {"t": 257.643, "dur": 0.114, "note": 66, "inst": "piano_v0_additive_0", "vel": 0.709, "bend": 0.0, "ch": 2}, {"t": 257.643, "dur": 0.114, "note": 58, "inst": "organ_v0_additive_1", "vel": 0.709, "bend": 0.0, "ch": 10}, {"t": 257.643, "dur": 0.227, "note": 58, "inst": "organ_v0_additive_1", "vel": 0.709, "bend": 0.0, "ch": 10}, {"t": 257.643, "dur": 0.114, "note": 73, "inst": "organ_v0_additive_1", "vel": 0.709, "bend": 0.0, "ch": 9}, {"t": 257.643, "dur": 0.057, "note": 80, "inst": "celesta_v0_additive_3", "vel": 0.709, "bend": 0.0, "ch": 0}, {"t": 257.7, "dur": 0.057, "note": 70, "inst": "organ_v0_additive_1", "vel": 0.709, "bend": 0.0, "ch": 6}, {"t": 257.757, "dur": 0.114, "note": 61, "inst": "organ_v0_additive_1", "vel": 0.709, "bend": 0.0, "ch": 13}, {"t": 257.757, "dur": 0.114, "note": 66, "inst": "piano_v0_additive_0", "vel": 0.709, "bend": 0.0, "ch": 2}, {"t": 257.757, "dur": 0.114, "note": 58, "inst": "organ_v0_additive_1", "vel": 0.709, "bend": 0.0, "ch": 10}, {"t": 257.757, "dur": 0.114, "note": 73, "inst": "organ_v0_additive_1", "vel": 0.709, "bend": 0.0, "ch": 9}, {"t": 257.757, "dur": 0.057, "note": 85, "inst": "organ_v0_additive_1", "vel": 0.709, "bend": 0.0, "ch": 5}, {"t": 257.813, "dur": 0.057, "note": 70, "inst": "organ_v0_additive_1", "vel": 0.709, "bend": 0.0, "ch": 6}, {"t": 257.87, "dur": 0.114, "note": 61, "inst": "organ_v0_additive_1", "vel": 0.709, "bend": 0.0, "ch": 13}, {"t": 257.87, "dur": 0.114, "note": 66, "inst": "piano_v0_additive_0", "vel": 0.709, "bend": 0.0, "ch": 2}, {"t": 257.87, "dur": 0.114, "note": 58, "inst": "organ_v0_additive_1", "vel": 0.709, "bend": 0.0, "ch": 10}, {"t": 257.87, "dur": 0.114, "note": 73, "inst": "organ_v0_additive_1", "vel": 0.709, "bend": 0.0, "ch": 9}, {"t": 257.87, "dur": 0.227, "note": 73, "inst": "organ_v0_additive_1", "vel": 0.709, "bend": 0.0, "ch": 9}, {"t": 257.87, "dur": 0.227, "note": 73, "inst": "organ_v0_additive_1", "vel": 0.709, "bend": 0.0, "ch": 9}, {"t": 257.984, "dur": 0.114, "note": 61, "inst": "organ_v0_additive_1", "vel": 0.709, "bend": 0.0, "ch": 13}, {"t": 257.984, "dur": 0.114, "note": 66, "inst": "piano_v0_additive_0", "vel": 0.709, "bend": 0.0, "ch": 2}, {"t": 257.984, "dur": 0.114, "note": 58, "inst": "organ_v0_additive_1", "vel": 0.709, "bend": 0.0, "ch": 10}, {"t": 257.984, "dur": 0.114, "note": 73, "inst": "organ_v0_additive_1", "vel": 0.709, "bend": 0.0, "ch": 9}, {"t": 258.097, "dur": 0.114, "note": 61, "inst": "organ_v0_additive_1", "vel": 0.709, "bend": 0.0, "ch": 13}, {"t": 258.097, "dur": 0.114, "note": 66, "inst": "piano_v0_additive_0", "vel": 0.709, "bend": 0.0, "ch": 2}, {"t": 258.097, "dur": 0.114, "note": 58, "inst": "organ_v0_additive_1", "vel": 0.709, "bend": 0.0, "ch": 10}, {"t": 258.097, "dur": 0.114, "note": 73, "inst": "organ_v0_additive_1", "vel": 0.709, "bend": 0.0, "ch": 9}, {"t": 258.097, "dur": 0.227, "note": 78, "inst": "piano_v0_additive_0", "vel": 0.709, "bend": 0.0, "ch": 14}, {"t": 258.211, "dur": 0.114, "note": 61, "inst": "organ_v0_additive_1", "vel": 0.709, "bend": 0.0, "ch": 13}, {"t": 258.211, "dur": 0.114, "note": 66, "inst": "piano_v0_additive_0", "vel": 0.709, "bend": 0.0, "ch": 2}, {"t": 258.211, "dur": 0.114, "note": 58, "inst": "organ_v0_additive_1", "vel": 0.709, "bend": 0.0, "ch": 10}, {"t": 258.211, "dur": 0.114, "note": 73, "inst": "organ_v0_additive_1", "vel": 0.709, "bend": 0.0, "ch": 9}, {"t": 258.324, "dur": 0.114, "note": 61, "inst": "organ_v0_additive_1", "vel": 0.709, "bend": 0.0, "ch": 13}, {"t": 258.324, "dur": 0.114, "note": 66, "inst": "piano_v0_additive_0", "vel": 0.709, "bend": 0.0, "ch": 2}, {"t": 258.324, "dur": 0.114, "note": 58, "inst": "organ_v0_additive_1", "vel": 0.709, "bend": 0.0, "ch": 10}, {"t": 258.324, "dur": 0.114, "note": 73, "inst": "organ_v0_additive_1", "vel": 0.709, "bend": 0.0, "ch": 9}, {"t": 258.324, "dur": 0.227, "note": 70, "inst": "organ_v0_additive_1", "vel": 0.709, "bend": 0.0, "ch": 6}, {"t": 258.438, "dur": 0.114, "note": 61, "inst": "organ_v0_additive_1", "vel": 0.709, "bend": 0.0, "ch": 13}, {"t": 258.438, "dur": 0.114, "note": 66, "inst": "piano_v0_additive_0", "vel": 0.709, "bend": 0.0, "ch": 2}, {"t": 258.438, "dur": 0.114, "note": 58, "inst": "organ_v0_additive_1", "vel": 0.709, "bend": 0.0, "ch": 10}, {"t": 258.438, "dur": 0.114, "note": 73, "inst": "organ_v0_additive_1", "vel": 0.709, "bend": 0.0, "ch": 9}, {"t": 258.551, "dur": 0.114, "note": 61, "inst": "organ_v0_additive_1", "vel": 0.709, "bend": 0.0, "ch": 13}, {"t": 258.551, "dur": 0.114, "note": 66, "inst": "piano_v0_additive_0", "vel": 0.709, "bend": 0.0, "ch": 2}, {"t": 258.551, "dur": 0.114, "note": 58, "inst": "organ_v0_additive_1", "vel": 0.709, "bend": 0.0, "ch": 10}, {"t": 258.551, "dur": 0.114, "note": 73, "inst": "organ_v0_additive_1", "vel": 0.709, "bend": 0.0, "ch": 9}, {"t": 258.551, "dur": 0.17, "note": 73, "inst": "organ_v0_additive_1", "vel": 0.756, "bend": 0.0, "ch": 9}, {"t": 258.551, "dur": 0.227, "note": 85, "inst": "organ_v0_additive_1", "vel": 0.709, "bend": 0.0, "ch": 5}, {"t": 258.665, "dur": 0.114, "note": 61, "inst": "organ_v0_additive_1", "vel": 0.709, "bend": 0.0, "ch": 13}, {"t": 258.665, "dur": 0.114, "note": 66, "inst": "piano_v0_additive_0", "vel": 0.709, "bend": 0.0, "ch": 2}, {"t": 258.665, "dur": 0.114, "note": 58, "inst": "organ_v0_additive_1", "vel": 0.709, "bend": 0.0, "ch": 10}, {"t": 258.665, "dur": 0.114, "note": 73, "inst": "organ_v0_additive_1", "vel": 0.709, "bend": 0.0, "ch": 9}, {"t": 258.722, "dur": 0.057, "note": 73, "inst": "organ_v0_additive_1", "vel": 0.756, "bend": 0.0, "ch": 9}, {"t": 258.778, "dur": 0.227, "note": 42, "inst": "piano_v0_additive_0", "vel": 0.709, "bend": 0.0, "ch": 10}, {"t": 258.778, "dur": 0.114, "note": 61, "inst": "organ_v0_additive_1", "vel": 0.709, "bend": 0.0, "ch": 13}, {"t": 258.778, "dur": 0.114, "note": 66, "inst": "piano_v0_additive_0", "vel": 0.709, "bend": 0.0, "ch": 2}, {"t": 258.778, "dur": 0.114, "note": 70, "inst": "organ_v0_additive_1", "vel": 0.709, "bend": 0.0, "ch": 6}, {"t": 258.778, "dur": 0.568, "note": 82, "inst": "organ_v0_additive_1", "vel": 0.709, "bend": 0.0, "ch": 2}, {"t": 258.892, "dur": 0.114, "note": 61, "inst": "organ_v0_additive_1", "vel": 0.709, "bend": 0.0, "ch": 13}, {"t": 258.892, "dur": 0.114, "note": 66, "inst": "piano_v0_additive_0", "vel": 0.709, "bend": 0.0, "ch": 2}, {"t": 258.892, "dur": 0.114, "note": 70, "inst": "organ_v0_additive_1", "vel": 0.709, "bend": 0.0, "ch": 6}, {"t": 259.005, "dur": 0.227, "note": 54, "inst": "piano_v0_additive_0", "vel": 0.709, "bend": 0.0, "ch": 6}, {"t": 259.005, "dur": 0.114, "note": 61, "inst": "organ_v0_additive_1", "vel": 0.709, "bend": 0.0, "ch": 13}, {"t": 259.005, "dur": 0.114, "note": 66, "inst": "piano_v0_additive_0", "vel": 0.709, "bend": 0.0, "ch": 2}, {"t": 259.005, "dur": 0.114, "note": 70, "inst": "organ_v0_additive_1", "vel": 0.709, "bend": 0.0, "ch": 6}, {"t": 259.119, "dur": 0.114, "note": 61, "inst": "organ_v0_additive_1", "vel": 0.709, "bend": 0.0, "ch": 13}, {"t": 259.119, "dur": 0.114, "note": 66, "inst": "piano_v0_additive_0", "vel": 0.709, "bend": 0.0, "ch": 2}, {"t": 259.119, "dur": 0.114, "note": 70, "inst": "organ_v0_additive_1", "vel": 0.709, "bend": 0.0, "ch": 6}, {"t": 259.233, "dur": 0.227, "note": 51, "inst": "piano_v0_additive_0", "vel": 0.709, "bend": 0.0, "ch": 3}, {"t": 259.233, "dur": 0.114, "note": 66, "inst": "piano_v0_additive_0", "vel": 0.709, "bend": 0.0, "ch": 2}, {"t": 259.233, "dur": 0.114, "note": 58, "inst": "organ_v0_additive_1", "vel": 0.709, "bend": 0.0, "ch": 10}, {"t": 259.233, "dur": 0.114, "note": 70, "inst": "organ_v0_additive_1", "vel": 0.709, "bend": 0.0, "ch": 6}, {"t": 259.346, "dur": 0.114, "note": 66, "inst": "piano_v0_additive_0", "vel": 0.709, "bend": 0.0, "ch": 2}, {"t": 259.346, "dur": 0.114, "note": 58, "inst": "organ_v0_additive_1", "vel": 0.709, "bend": 0.0, "ch": 10}, {"t": 259.346, "dur": 0.114, "note": 70, "inst": "organ_v0_additive_1", "vel": 0.709, "bend": 0.0, "ch": 6}, {"t": 259.346, "dur": 0.057, "note": 82, "inst": "organ_v0_additive_1", "vel": 0.709, "bend": 0.0, "ch": 2}, {"t": 259.403, "dur": 0.057, "note": 82, "inst": "organ_v0_additive_1", "vel": 0.709, "bend": 0.0, "ch": 2}, {"t": 259.46, "dur": 0.227, "note": 63, "inst": "piano_v0_additive_0", "vel": 0.709, "bend": 0.0, "ch": 15}, {"t": 259.46, "dur": 0.114, "note": 66, "inst": "piano_v0_additive_0", "vel": 0.709, "bend": 0.0, "ch": 2}, {"t": 259.46, "dur": 0.114, "note": 58, "inst": "organ_v0_additive_1", "vel": 0.709, "bend": 0.0, "ch": 10}, {"t": 259.46, "dur": 0.114, "note": 70, "inst": "organ_v0_additive_1", "vel": 0.709, "bend": 0.0, "ch": 6}, {"t": 259.46, "dur": 0.057, "note": 82, "inst": "organ_v0_additive_1", "vel": 0.709, "bend": 0.0, "ch": 2}, {"t": 259.516, "dur": 0.057, "note": 82, "inst": "organ_v0_additive_1", "vel": 0.709, "bend": 0.0, "ch": 2}, {"t": 259.573, "dur": 0.114, "note": 66, "inst": "piano_v0_additive_0", "vel": 0.709, "bend": 0.0, "ch": 2}, {"t": 259.573, "dur": 0.114, "note": 58, "inst": "organ_v0_additive_1", "vel": 0.709, "bend": 0.0, "ch": 10}, {"t": 259.573, "dur": 0.114, "note": 70, "inst": "organ_v0_additive_1", "vel": 0.709, "bend": 0.0, "ch": 6}, {"t": 259.573, "dur": 0.057, "note": 85, "inst": "organ_v0_additive_1", "vel": 0.709, "bend": 0.0, "ch": 5}, {"t": 259.63, "dur": 0.057, "note": 70, "inst": "organ_v0_additive_1", "vel": 0.709, "bend": 0.0, "ch": 6}, {"t": 259.687, "dur": 0.227, "note": 63, "inst": "piano_v0_additive_0", "vel": 0.709, "bend": 0.0, "ch": 15}, {"t": 259.687, "dur": 0.114, "note": 66, "inst": "piano_v0_additive_0", "vel": 0.709, "bend": 0.0, "ch": 2}, {"t": 259.687, "dur": 0.114, "note": 66, "inst": "piano_v0_additive_0", "vel": 0.709, "bend": 0.0, "ch": 2}, {"t": 259.687, "dur": 0.114, "note": 70, "inst": "organ_v0_additive_1", "vel": 0.709, "bend": 0.0, "ch": 6}, {"t": 259.687, "dur": 0.057, "note": 70, "inst": "organ_v0_additive_1", "vel": 0.709, "bend": 0.0, "ch": 6}, {"t": 259.743, "dur": 0.057, "note": 78, "inst": "piano_v0_additive_0", "vel": 0.709, "bend": 0.0, "ch": 14}, {"t": 259.8, "dur": 0.114, "note": 66, "inst": "piano_v0_additive_0", "vel": 0.709, "bend": 0.0, "ch": 2}, {"t": 259.8, "dur": 0.114, "note": 66, "inst": "piano_v0_additive_0", "vel": 0.709, "bend": 0.0, "ch": 2}, {"t": 259.8, "dur": 0.114, "note": 70, "inst": "organ_v0_additive_1", "vel": 0.709, "bend": 0.0, "ch": 6}, {"t": 259.8, "dur": 0.057, "note": 78, "inst": "piano_v0_additive_0", "vel": 0.709, "bend": 0.0, "ch": 14}, {"t": 259.857, "dur": 0.057, "note": 78, "inst": "piano_v0_additive_0", "vel": 0.709, "bend": 0.0, "ch": 14}, {"t": 259.914, "dur": 0.227, "note": 61, "inst": "organ_v0_additive_1", "vel": 0.709, "bend": 0.0, "ch": 13}, {"t": 259.914, "dur": 0.114, "note": 63, "inst": "piano_v0_additive_0", "vel": 0.709, "bend": 0.0, "ch": 15}, {"t": 259.914, "dur": 0.114, "note": 66, "inst": "piano_v0_additive_0", "vel": 0.709, "bend": 0.0, "ch": 2}, {"t": 259.914, "dur": 0.114, "note": 58, "inst": "organ_v0_additive_1", "vel": 0.709, "bend": 0.0, "ch": 10}, {"t": 259.914, "dur": 0.057, "note": 78, "inst": "piano_v0_additive_0", "vel": 0.709, "bend": 0.0, "ch": 14}, {"t": 259.971, "dur": 0.057, "note": 78, "inst": "piano_v0_additive_0", "vel": 0.709, "bend": 0.0, "ch": 14}, {"t": 260.027, "dur": 0.114, "note": 63, "inst": "piano_v0_additive_0", "vel": 0.709, "bend": 0.0, "ch": 15}, {"t": 260.027, "dur": 0.114, "note": 66, "inst": "piano_v0_additive_0", "vel": 0.709, "bend": 0.0, "ch": 2}, {"t": 260.027, "dur": 0.114, "note": 58, "inst": "organ_v0_additive_1", "vel": 0.709, "bend": 0.0, "ch": 10}, {"t": 260.027, "dur": 0.057, "note": 82, "inst": "organ_v0_additive_1", "vel": 0.709, "bend": 0.0, "ch": 2}, {"t": 260.084, "dur": 0.057, "note": 78, "inst": "piano_v0_additive_0", "vel": 0.709, "bend": 0.0, "ch": 14}, {"t": 260.141, "dur": 0.114, "note": 61, "inst": "organ_v0_additive_1", "vel": 0.709, "bend": 0.0, "ch": 13}, {"t": 260.141, "dur": 0.227, "note": 61, "inst": "organ_v0_additive_1", "vel": 0.709, "bend": 0.0, "ch": 13}, {"t": 260.141, "dur": 0.114, "note": 66, "inst": "piano_v0_additive_0", "vel": 0.709, "bend": 0.0, "ch": 2}, {"t": 260.141, "dur": 0.114, "note": 58, "inst": "organ_v0_additive_1", "vel": 0.709, "bend": 0.0, "ch": 10}, {"t": 260.141, "dur": 0.057, "note": 78, "inst": "piano_v0_additive_0", "vel": 0.709, "bend": 0.0, "ch": 14}, {"t": 260.198, "dur": 0.057, "note": 78, "inst": "piano_v0_additive_0", "vel": 0.709, "bend": 0.0, "ch": 14}, {"t": 260.254, "dur": 0.114, "note": 61, "inst": "organ_v0_additive_1", "vel": 0.709, "bend": 0.0, "ch": 13}, {"t": 260.254, "dur": 0.114, "note": 66, "inst": "piano_v0_additive_0", "vel": 0.709, "bend": 0.0, "ch": 2}, {"t": 260.254, "dur": 0.114, "note": 58, "inst": "organ_v0_additive_1", "vel": 0.709, "bend": 0.0, "ch": 10}, {"t": 260.254, "dur": 0.057, "note": 70, "inst": "organ_v0_additive_1", "vel": 0.709, "bend": 0.0, "ch": 6}, {"t": 260.311, "dur": 0.057, "note": 78, "inst": "piano_v0_additive_0", "vel": 0.709, "bend": 0.0, "ch": 14}, {"t": 260.368, "dur": 0.227, "note": 54, "inst": "piano_v0_additive_0", "vel": 0.709, "bend": 0.0, "ch": 6}, {"t": 260.368, "dur": 0.114, "note": 58, "inst": "organ_v0_additive_1", "vel": 0.709, "bend": 0.0, "ch": 10}, {"t": 260.368, "dur": 0.114, "note": 73, "inst": "organ_v0_additive_1", "vel": 0.709, "bend": 0.0, "ch": 9}, {"t": 260.368, "dur": 0.057, "note": 82, "inst": "organ_v0_additive_1", "vel": 0.709, "bend": 0.0, "ch": 2}, {"t": 260.425, "dur": 0.057, "note": 70, "inst": "organ_v0_additive_1", "vel": 0.709, "bend": 0.0, "ch": 6}, {"t": 260.482, "dur": 0.114, "note": 58, "inst": "organ_v0_additive_1", "vel": 0.709, "bend": 0.0, "ch": 10}, {"t": 260.482, "dur": 0.114, "note": 73, "inst": "organ_v0_additive_1", "vel": 0.709, "bend": 0.0, "ch": 9}, {"t": 260.482, "dur": 0.057, "note": 85, "inst": "organ_v0_additive_1", "vel": 0.709, "bend": 0.0, "ch": 5}, {"t": 260.538, "dur": 0.057, "note": 85, "inst": "organ_v0_additive_1", "vel": 0.709, "bend": 0.0, "ch": 5}, {"t": 260.595, "dur": 0.227, "note": 54, "inst": "piano_v0_additive_0", "vel": 0.709, "bend": 0.0, "ch": 6}, {"t": 260.595, "dur": 0.114, "note": 70, "inst": "organ_v0_additive_1", "vel": 0.709, "bend": 0.0, "ch": 6}, {"t": 260.595, "dur": 0.114, "note": 73, "inst": "organ_v0_additive_1", "vel": 0.709, "bend": 0.0, "ch": 9}, {"t": 260.595, "dur": 0.057, "note": 85, "inst": "organ_v0_additive_1", "vel": 0.709, "bend": 0.0, "ch": 5}, {"t": 260.652, "dur": 0.057, "note": 82, "inst": "organ_v0_additive_1", "vel": 0.709, "bend": 0.0, "ch": 2}, {"t": 260.709, "dur": 0.114, "note": 70, "inst": "organ_v0_additive_1", "vel": 0.709, "bend": 0.0, "ch": 6}, {"t": 260.709, "dur": 0.114, "note": 73, "inst": "organ_v0_additive_1", "vel": 0.709, "bend": 0.0, "ch": 9}, {"t": 260.709, "dur": 0.057, "note": 82, "inst": "organ_v0_additive_1", "vel": 0.709, "bend": 0.0, "ch": 2}, {"t": 260.765, "dur": 0.057, "note": 82, "inst": "organ_v0_additive_1", "vel": 0.709, "bend": 0.0, "ch": 2}, {"t": 260.822, "dur": 0.227, "note": 54, "inst": "piano_v0_additive_0", "vel": 0.709, "bend": 0.0, "ch": 6}, {"t": 260.822, "dur": 0.114, "note": 63, "inst": "piano_v0_additive_0", "vel": 0.709, "bend": 0.0, "ch": 15}, {"t": 260.822, "dur": 0.114, "note": 73, "inst": "organ_v0_additive_1", "vel": 0.709, "bend": 0.0, "ch": 9}, {"t": 260.822, "dur": 0.057, "note": 82, "inst": "organ_v0_additive_1", "vel": 0.709, "bend": 0.0, "ch": 2}, {"t": 260.879, "dur": 0.057, "note": 78, "inst": "piano_v0_additive_0", "vel": 0.709, "bend": 0.0, "ch": 14}, {"t": 260.936, "dur": 0.114, "note": 63, "inst": "piano_v0_additive_0", "vel": 0.709, "bend": 0.0, "ch": 15}, {"t": 260.936, "dur": 0.114, "note": 73, "inst": "organ_v0_additive_1", "vel": 0.709, "bend": 0.0, "ch": 9}, {"t": 260.936, "dur": 0.057, "note": 78, "inst": "piano_v0_additive_0", "vel": 0.709, "bend": 0.0, "ch": 14}, {"t": 260.992, "dur": 0.057, "note": 75, "inst": "piano_v0_additive_0", "vel": 0.709, "bend": 0.0, "ch": 11}, {"t": 261.049, "dur": 0.227, "note": 46, "inst": "organ_v0_additive_1", "vel": 0.709, "bend": 0.0, "ch": 14}, {"t": 261.049, "dur": 0.114, "note": 66, "inst": "piano_v0_additive_0", "vel": 0.709, "bend": 0.0, "ch": 2}, {"t": 261.049, "dur": 0.114, "note": 58, "inst": "organ_v0_additive_1", "vel": 0.709, "bend": 0.0, "ch": 10}, {"t": 261.049, "dur": 0.227, "note": 73, "inst": "organ_v0_additive_1", "vel": 0.709, "bend": 0.0, "ch": 9}, {"t": 261.049, "dur": 0.114, "note": 73, "inst": "organ_v0_additive_1", "vel": 0.709, "bend": 0.0, "ch": 9}, {"t": 261.163, "dur": 0.114, "note": 66, "inst": "piano_v0_additive_0", "vel": 0.709, "bend": 0.0, "ch": 2}, {"t": 261.163, "dur": 0.114, "note": 58, "inst": "organ_v0_additive_1", "vel": 0.709, "bend": 0.0, "ch": 10}, {"t": 261.163, "dur": 0.114, "note": 73, "inst": "organ_v0_additive_1", "vel": 0.709, "bend": 0.0, "ch": 9}, {"t": 261.276, "dur": 0.227, "note": 46, "inst": "organ_v0_additive_1", "vel": 0.709, "bend": 0.0, "ch": 14}, {"t": 261.276, "dur": 0.114, "note": 63, "inst": "piano_v0_additive_0", "vel": 0.709, "bend": 0.0, "ch": 15}, {"t": 261.276, "dur": 0.114, "note": 66, "inst": "piano_v0_additive_0", "vel": 0.709, "bend": 0.0, "ch": 2}, {"t": 261.276, "dur": 0.114, "note": 73, "inst": "organ_v0_additive_1", "vel": 0.709, "bend": 0.0, "ch": 9}, {"t": 261.276, "dur": 0.17, "note": 75, "inst": "piano_v0_additive_0", "vel": 0.709, "bend": 0.0, "ch": 11}, {"t": 261.39, "dur": 0.114, "note": 63, "inst": "piano_v0_additive_0", "vel": 0.709, "bend": 0.0, "ch": 15}, {"t": 261.39, "dur": 0.114, "note": 66, "inst": "piano_v0_additive_0", "vel": 0.709, "bend": 0.0, "ch": 2}, {"t": 261.39, "dur": 0.114, "note": 73, "inst": "organ_v0_additive_1", "vel": 0.709, "bend": 0.0, "ch": 9}, {"t": 261.447, "dur": 0.057, "note": 73, "inst": "organ_v0_additive_1", "vel": 0.709, "bend": 0.0, "ch": 9}, {"t": 261.503, "dur": 0.227, "note": 49, "inst": "organ_v0_additive_1", "vel": 0.709, "bend": 0.0, "ch": 1}, {"t": 261.503, "dur": 0.114, "note": 61, "inst": "organ_v0_additive_1", "vel": 0.709, "bend": 0.0, "ch": 13}, {"t": 261.503, "dur": 0.114, "note": 66, "inst": "piano_v0_additive_0", "vel": 0.709, "bend": 0.0, "ch": 2}, {"t": 261.503, "dur": 0.227, "note": 73, "inst": "organ_v0_additive_1", "vel": 0.709, "bend": 0.0, "ch": 9}, {"t": 261.503, "dur": 0.114, "note": 73, "inst": "organ_v0_additive_1", "vel": 0.709, "bend": 0.0, "ch": 9}, {"t": 261.617, "dur": 0.114, "note": 61, "inst": "organ_v0_additive_1", "vel": 0.709, "bend": 0.0, "ch": 13}, {"t": 261.617, "dur": 0.114, "note": 66, "inst": "piano_v0_additive_0", "vel": 0.709, "bend": 0.0, "ch": 2}, {"t": 261.617, "dur": 0.114, "note": 73, "inst": "organ_v0_additive_1", "vel": 0.709, "bend": 0.0, "ch": 9}, {"t": 261.73, "dur": 0.114, "note": 61, "inst": "organ_v0_additive_1", "vel": 0.709, "bend": 0.0, "ch": 13}, {"t": 261.73, "dur": 0.227, "note": 61, "inst": "organ_v0_additive_1", "vel": 0.709, "bend": 0.0, "ch": 13}, {"t": 261.73, "dur": 0.114, "note": 66, "inst": "piano_v0_additive_0", "vel": 0.709, "bend": 0.0, "ch": 2}, {"t": 261.73, "dur": 0.114, "note": 73, "inst": "organ_v0_additive_1", "vel": 0.709, "bend": 0.0, "ch": 9}, {"t": 261.844, "dur": 0.114, "note": 61, "inst": "organ_v0_additive_1", "vel": 0.709, "bend": 0.0, "ch": 13}, {"t": 261.844, "dur": 0.114, "note": 66, "inst": "piano_v0_additive_0", "vel": 0.709, "bend": 0.0, "ch": 2}, {"t": 261.844, "dur": 0.114, "note": 73, "inst": "organ_v0_additive_1", "vel": 0.709, "bend": 0.0, "ch": 9}, {"t": 261.958, "dur": 0.114, "note": 63, "inst": "piano_v0_additive_0", "vel": 0.709, "bend": 0.0, "ch": 15}, {"t": 261.958, "dur": 0.114, "note": 66, "inst": "piano_v0_additive_0", "vel": 0.709, "bend": 0.0, "ch": 2}, {"t": 261.958, "dur": 0.114, "note": 73, "inst": "organ_v0_additive_1", "vel": 0.709, "bend": 0.0, "ch": 9}, {"t": 262.071, "dur": 0.114, "note": 63, "inst": "piano_v0_additive_0", "vel": 0.709, "bend": 0.0, "ch": 15}, {"t": 262.071, "dur": 0.114, "note": 66, "inst": "piano_v0_additive_0", "vel": 0.709, "bend": 0.0, "ch": 2}, {"t": 262.071, "dur": 0.114, "note": 73, "inst": "organ_v0_additive_1", "vel": 0.709, "bend": 0.0, "ch": 9}, {"t": 262.185, "dur": 0.114, "note": 66, "inst": "piano_v0_additive_0", "vel": 0.709, "bend": 0.0, "ch": 2}, {"t": 262.185, "dur": 0.114, "note": 58, "inst": "organ_v0_additive_1", "vel": 0.709, "bend": 0.0, "ch": 10}, {"t": 262.185, "dur": 0.114, "note": 73, "inst": "organ_v0_additive_1", "vel": 0.709, "bend": 0.0, "ch": 9}, {"t": 262.185, "dur": 0.17, "note": 73, "inst": "organ_v0_additive_1", "vel": 0.756, "bend": 0.0, "ch": 9}, {"t": 262.298, "dur": 0.114, "note": 66, "inst": "piano_v0_additive_0", "vel": 0.709, "bend": 0.0, "ch": 2}, {"t": 262.298, "dur": 0.114, "note": 58, "inst": "organ_v0_additive_1", "vel": 0.709, "bend": 0.0, "ch": 10}, {"t": 262.298, "dur": 0.114, "note": 73, "inst": "organ_v0_additive_1", "vel": 0.709, "bend": 0.0, "ch": 9}, {"t": 262.355, "dur": 0.057, "note": 73, "inst": "organ_v0_additive_1", "vel": 0.756, "bend": 0.0, "ch": 9}, {"t": 262.412, "dur": 0.227, "note": 42, "inst": "piano_v0_additive_0", "vel": 0.709, "bend": 0.0, "ch": 10}, {"t": 262.412, "dur": 0.114, "note": 66, "inst": "piano_v0_additive_0", "vel": 0.709, "bend": 0.0, "ch": 2}, {"t": 262.412, "dur": 0.114, "note": 70, "inst": "organ_v0_additive_1", "vel": 0.709, "bend": 0.0, "ch": 6}, {"t": 262.412, "dur": 0.568, "note": 78, "inst": "piano_v0_additive_0", "vel": 0.709, "bend": 0.0, "ch": 14}, {"t": 262.525, "dur": 0.114, "note": 66, "inst": "piano_v0_additive_0", "vel": 0.709, "bend": 0.0, "ch": 2}, {"t": 262.525, "dur": 0.114, "note": 70, "inst": "organ_v0_additive_1", "vel": 0.709, "bend": 0.0, "ch": 6}, {"t": 262.639, "dur": 0.227, "note": 46, "inst": "organ_v0_additive_1", "vel": 0.709, "bend": 0.0, "ch": 14}, {"t": 262.639, "dur": 0.114, "note": 66, "inst": "piano_v0_additive_0", "vel": 0.709, "bend": 0.0, "ch": 2}, {"t": 262.639, "dur": 0.114, "note": 70, "inst": "organ_v0_additive_1", "vel": 0.709, "bend": 0.0, "ch": 6}, {"t": 262.752, "dur": 0.114, "note": 66, "inst": "piano_v0_additive_0", "vel": 0.709, "bend": 0.0, "ch": 2}, {"t": 262.752, "dur": 0.114, "note": 70, "inst": "organ_v0_additive_1", "vel": 0.709, "bend": 0.0, "ch": 6}, {"t": 262.866, "dur": 0.227, "note": 49, "inst": "organ_v0_additive_1", "vel": 0.709, "bend": 0.0, "ch": 1}, {"t": 262.866, "dur": 0.114, "note": 66, "inst": "piano_v0_additive_0", "vel": 0.709, "bend": 0.0, "ch": 2}, {"t": 262.866, "dur": 0.114, "note": 70, "inst": "organ_v0_additive_1", "vel": 0.709, "bend": 0.0, "ch": 6}, {"t": 295.096, "dur": 0.512, "note": 59, "inst": "celesta_v0_additive_3", "vel": 0.63, "bend": 0.0, "ch": 11}, {"t": 295.636, "dur": 1.025, "note": 59, "inst": "celesta_v0_additive_3", "vel": 0.63, "bend": 0.0, "ch": 11}, {"t": 296.716, "dur": 1.025, "note": 57, "inst": "piano_v0_additive_0", "vel": 0.63, "bend": 0.0, "ch": 9}, {"t": 296.716, "dur": 2.051, "note": 65, "inst": "celesta_v0_additive_3", "vel": 0.63, "bend": 0.0, "ch": 1}, {"t": 297.796, "dur": 1.025, "note": 62, "inst": "celesta_v0_additive_3", "vel": 0.63, "bend": 0.0, "ch": 14}, {"t": 297.796, "dur": 2.051, "note": 74, "inst": "celesta_v0_additive_3", "vel": 0.63, "bend": 0.0, "ch": 10}, {"t": 298.876, "dur": 1.025, "note": 62, "inst": "celesta_v0_additive_3", "vel": 0.63, "bend": 0.0, "ch": 14}, {"t": 298.876, "dur": 1.025, "note": 65, "inst": "celesta_v0_additive_3", "vel": 0.63, "bend": 0.0, "ch": 1}, {"t": 299.956, "dur": 3.077, "note": 59, "inst": "celesta_v0_additive_3", "vel": 0.63, "bend": 0.0, "ch": 11}, {"t": 299.956, "dur": 1.025, "note": 65, "inst": "celesta_v0_additive_3", "vel": 0.63, "bend": 0.0, "ch": 1}, {"t": 299.956, "dur": 3.077, "note": 77, "inst": "celesta_v0_additive_3", "vel": 0.63, "bend": 0.0, "ch": 13}, {"t": 301.037, "dur": 2.051, "note": 57, "inst": "piano_v0_additive_0", "vel": 0.63, "bend": 0.0, "ch": 9}, {"t": 303.197, "dur": 1.025, "note": 59, "inst": "celesta_v0_additive_3", "vel": 0.63, "bend": 0.0, "ch": 11}, {"t": 303.197, "dur": 1.025, "note": 62, "inst": "celesta_v0_additive_3", "vel": 0.63, "bend": 0.0, "ch": 14}, {"t": 303.197, "dur": 1.025, "note": 74, "inst": "celesta_v0_additive_3", "vel": 0.63, "bend": 0.0, "ch": 10}, {"t": 304.277, "dur": 1.538, "note": 59, "inst": "celesta_v0_additive_3", "vel": 0.63, "bend": 0.0, "ch": 11}, {"t": 304.277, "dur": 1.025, "note": 65, "inst": "celesta_v0_additive_3", "vel": 0.63, "bend": 0.0, "ch": 1}, {"t": 304.277, "dur": 2.051, "note": 71, "inst": "celesta_v0_additive_3", "vel": 0.63, "bend": 0.0, "ch": 7}, {"t": 305.357, "dur": 1.025, "note": 65, "inst": "celesta_v0_additive_3", "vel": 0.63, "bend": 0.0, "ch": 1}, {"t": 305.897, "dur": 0.512, "note": 62, "inst": "celesta_v0_additive_3", "vel": 0.63, "bend": 0.0, "ch": 14}, {"t": 306.437, "dur": 2.051, "note": 65, "inst": "celesta_v0_additive_3", "vel": 0.63, "bend": 0.0, "ch": 1}, {"t": 306.437, "dur": 2.051, "note": 66, "inst": "piano_v0_additive_0", "vel": 0.63, "bend": 0.0, "ch": 2}, {"t": 306.437, "dur": 1.025, "note": 71, "inst": "celesta_v0_additive_3", "vel": 0.63, "bend": 0.0, "ch": 7}, {"t": 307.517, "dur": 1.538, "note": 77, "inst": "celesta_v0_additive_3", "vel": 0.63, "bend": 0.0, "ch": 13}, {"t": 308.597, "dur": 2.051, "note": 65, "inst": "celesta_v0_additive_3", "vel": 0.63, "bend": 0.0, "ch": 1}, {"t": 309.137, "dur": 0.512, "note": 74, "inst": "celesta_v0_additive_3", "vel": 0.63, "bend": 0.0, "ch": 10}, {"t": 309.678, "dur": 1.025, "note": 71, "inst": "celesta_v0_additive_3", "vel": 0.63, "bend": 0.0, "ch": 7}, {"t": 310.758, "dur": 2.051, "note": 65, "inst": "celesta_v0_additive_3", "vel": 0.63, "bend": 0.0, "ch": 1}, {"t": 310.758, "dur": 2.051, "note": 71, "inst": "celesta_v0_additive_3", "vel": 0.63, "bend": 0.0, "ch": 7}], "instruments": ["celesta_v0_additive_3", "organ_v0_additive_1", "piano_v0_additive_0"], "duration": 312.80899999999997, "n_events": 1050}