{"events": [{"t": 0.017, "dur": 0.342, "note": 56, "inst": "celesta_v0_additive_3", "vel": 1.0, "bend": 0.0, "ch": 8}, {"t": 0.017, "dur": 0.171, "note": 83, "inst": "celesta_v0_additive_3", "vel": 1.0, "bend": 0.0, "ch": 3}, {"t": 0.188, "dur": 0.171, "note": 80, "inst": "celesta_v0_additive_3", "vel": 1.0, "bend": 0.0, "ch": 0}, {"t": 0.359, "dur": 0.342, "note": 52, "inst": "organ_v0_additive_1", "vel": 1.0, "bend": 0.0, "ch": 4}, {"t": 0.359, "dur": 0.171, "note": 80, "inst": "celesta_v0_additive_3", "vel": 1.0, "bend": 0.0, "ch": 0}, {"t": 0.531, "dur": 0.057, "note": 80, "inst": "celesta_v0_additive_3", "vel": 1.0, "bend": 0.0, "ch": 0}, {"t": 0.588, "dur": 0.057, "note": 83, "inst": "celesta_v0_additive_3", "vel": 1.0, "bend": 0.0, "ch": 3}, {"t": 0.645, "dur": 0.057, "note": 80, "inst": "celesta_v0_additive_3", "vel": 1.0, "bend": 0.0, "ch": 0}, {"t": 0.702, "dur": 0.342, "note": 61, "inst": "organ_v0_additive_1", "vel": 1.0, "bend": 0.0, "ch": 13}, {"t": 0.702, "dur": 0.171, "note": 80, "inst": "celesta_v0_additive_3", "vel": 1.0, "bend": 0.0, "ch": 0}, {"t": 0.873, "dur": 0.171, "note": 83, "inst": "celesta_v0_additive_3", "vel": 1.0, "bend": 0.0, "ch": 3}, {"t": 1.044, "dur": 0.342, "note": 59, "inst": "celesta_v0_additive_3", "vel": 1.0, "bend": 0.0, "ch": 11}, {"t": 1.044, "dur": 0.171, "note": 80, "inst": "celesta_v0_additive_3", "vel": 1.0, "bend": 0.0, "ch": 0}, {"t": 1.215, "dur": 0.171, "note": 78, "inst": "piano_v0_additive_0", "vel": 1.0, "bend": 0.0, "ch": 14}, {"t": 1.386, "dur": 0.342, "note": 59, "inst": "celesta_v0_additive_3", "vel": 1.0, "bend": 0.0, "ch": 11}, {"t": 1.386, "dur": 0.171, "note": 76, "inst": "organ_v0_additive_1", "vel": 1.0, "bend": 0.0, "ch": 12}, {"t": 1.558, "dur": 0.171, "note": 90, "inst": "piano_v0_additive_0", "vel": 1.0, "bend": 0.0, "ch": 10}, {"t": 1.729, "dur": 0.342, "note": 52, "inst": "organ_v0_additive_1", "vel": 1.0, "bend": 0.0, "ch": 4}, {"t": 1.729, "dur": 0.171, "note": 88, "inst": "organ_v0_additive_1", "vel": 1.0, "bend": 0.0, "ch": 8}, {"t": 1.9, "dur": 0.057, "note": 78, "inst": "piano_v0_additive_0", "vel": 1.0, "bend": 0.0, "ch": 14}, {"t": 1.957, "dur": 0.057, "note": 80, "inst": "celesta_v0_additive_3", "vel": 1.0, "bend": 0.0, "ch": 0}, {"t": 2.014, "dur": 0.057, "note": 78, "inst": "piano_v0_additive_0", "vel": 1.0, "bend": 0.0, "ch": 14}, {"t": 2.071, "dur": 0.342, "note": 59, "inst": "celesta_v0_additive_3", "vel": 1.0, "bend": 0.0, "ch": 11}, {"t": 2.071, "dur": 0.171, "note": 76, "inst": "organ_v0_additive_1", "vel": 1.0, "bend": 0.0, "ch": 12}, {"t": 2.242, "dur": 0.171, "note": 88, "inst": "organ_v0_additive_1", "vel": 1.0, "bend": 0.0, "ch": 8}, {"t": 2.414, "dur": 0.342, "note": 52, "inst": "organ_v0_additive_1", "vel": 1.0, "bend": 0.0, "ch": 4}, {"t": 2.414, "dur": 0.171, "note": 85, "inst": "organ_v0_additive_1", "vel": 1.0, "bend": 0.0, "ch": 5}, {"t": 2.585, "dur": 0.057, "note": 73, "inst": "organ_v0_additive_1", "vel": 1.0, "bend": 0.0, "ch": 9}, {"t": 2.642, "dur": 0.057, "note": 76, "inst": "organ_v0_additive_1", "vel": 1.0, "bend": 0.0, "ch": 12}, {"t": 2.699, "dur": 0.057, "note": 73, "inst": "organ_v0_additive_1", "vel": 1.0, "bend": 0.0, "ch": 9}, {"t": 2.756, "dur": 0.342, "note": 56, "inst": "celesta_v0_additive_3", "vel": 1.0, "bend": 0.0, "ch": 8}, {"t": 2.756, "dur": 0.171, "note": 73, "inst": "organ_v0_additive_1", "vel": 1.0, "bend": 0.0, "ch": 9}, {"t": 2.927, "dur": 0.171, "note": 85, "inst": "organ_v0_additive_1", "vel": 1.0, "bend": 0.0, "ch": 5}, {"t": 3.098, "dur": 0.342, "note": 56, "inst": "celesta_v0_additive_3", "vel": 1.0, "bend": 0.0, "ch": 8}, {"t": 3.098, "dur": 0.171, "note": 85, "inst": "organ_v0_additive_1", "vel": 1.0, "bend": 0.0, "ch": 5}, {"t": 3.27, "dur": 0.057, "note": 85, "inst": "organ_v0_additive_1", "vel": 1.0, "bend": 0.0, "ch": 5}, {"t": 3.327, "dur": 0.057, "note": 85, "inst": "organ_v0_additive_1", "vel": 1.0, "bend": 0.0, "ch": 5}, {"t": 3.384, "dur": 0.057, "note": 85, "inst": "organ_v0_additive_1", "vel": 1.0, "bend": 0.0, "ch": 5}, {"t": 3.441, "dur": 0.342, "note": 56, "inst": "celesta_v0_additive_3", "vel": 1.0, "bend": 0.0, "ch": 8}, {"t": 3.441, "dur": 0.171, "note": 83, "inst": "celesta_v0_additive_3", "vel": 1.0, "bend": 0.0, "ch": 3}, {"t": 3.612, "dur": 0.171, "note": 85, "inst": "organ_v0_additive_1", "vel": 1.0, "bend": 0.0, "ch": 5}, {"t": 3.783, "dur": 0.342, "note": 52, "inst": "organ_v0_additive_1", "vel": 1.0, "bend": 0.0, "ch": 4}, {"t": 3.783, "dur": 0.171, "note": 88, "inst": "organ_v0_additive_1", "vel": 1.0, "bend": 0.0, "ch": 8}, {"t": 3.954, "dur": 0.171, "note": 85, "inst": "organ_v0_additive_1", "vel": 1.0, "bend": 0.0, "ch": 5}, {"t": 4.126, "dur": 0.342, "note": 59, "inst": "celesta_v0_additive_3", "vel": 1.0, "bend": 0.0, "ch": 11}, {"t": 4.126, "dur": 0.171, "note": 85, "inst": "organ_v0_additive_1", "vel": 1.0, "bend": 0.0, "ch": 5}, {"t": 4.297, "dur": 0.171, "note": 83, "inst": "celesta_v0_additive_3", "vel": 1.0, "bend": 0.0, "ch": 3}, {"t": 4.468, "dur": 0.342, "note": 52, "inst": "organ_v0_additive_1", "vel": 1.0, "bend": 0.0, "ch": 4}, {"t": 4.468, "dur": 0.171, "note": 83, "inst": "celesta_v0_additive_3", "vel": 1.0, "bend": 0.0, "ch": 3}, {"t": 4.639, "dur": 0.057, "note": 83, "inst": "celesta_v0_additive_3", "vel": 1.0, "bend": 0.0, "ch": 3}, {"t": 4.696, "dur": 0.057, "note": 85, "inst": "organ_v0_additive_1", "vel": 1.0, "bend": 0.0, "ch": 5}, {"t": 4.753, "dur": 0.057, "note": 83, "inst": "celesta_v0_additive_3", "vel": 1.0, "bend": 0.0, "ch": 3}, {"t": 4.81, "dur": 0.342, "note": 52, "inst": "organ_v0_additive_1", "vel": 1.0, "bend": 0.0, "ch": 4}, {"t": 4.81, "dur": 0.171, "note": 83, "inst": "celesta_v0_additive_3", "vel": 1.0, "bend": 0.0, "ch": 3}, {"t": 4.981, "dur": 0.171, "note": 83, "inst": "celesta_v0_additive_3", "vel": 1.0, "bend": 0.0, "ch": 3}, {"t": 5.153, "dur": 0.342, "note": 49, "inst": "organ_v0_additive_1", "vel": 1.0, "bend": 0.0, "ch": 1}, {"t": 5.153, "dur": 0.171, "note": 85, "inst": "organ_v0_additive_1", "vel": 1.0, "bend": 0.0, "ch": 5}, {"t": 5.324, "dur": 0.171, "note": 85, "inst": "organ_v0_additive_1", "vel": 1.0, "bend": 0.0, "ch": 5}, {"t": 5.495, "dur": 0.342, "note": 54, "inst": "piano_v0_additive_0", "vel": 1.0, "bend": 0.0, "ch": 6}, {"t": 5.495, "dur": 0.171, "note": 83, "inst": "celesta_v0_additive_3", "vel": 1.0, "bend": 0.0, "ch": 3}, {"t": 5.666, "dur": 0.171, "note": 80, "inst": "celesta_v0_additive_3", "vel": 1.0, "bend": 0.0, "ch": 0}, {"t": 5.837, "dur": 0.342, "note": 52, "inst": "organ_v0_additive_1", "vel": 1.0, "bend": 0.0, "ch": 4}, {"t": 5.837, "dur": 0.171, "note": 80, "inst": "celesta_v0_additive_3", "vel": 1.0, "bend": 0.0, "ch": 0}, {"t": 6.009, "dur": 0.057, "note": 80, "inst": "celesta_v0_additive_3", "vel": 1.0, "bend": 0.0, "ch": 0}, {"t": 6.066, "dur": 0.057, "note": 83, "inst": "celesta_v0_additive_3", "vel": 1.0, "bend": 0.0, "ch": 3}, {"t": 6.123, "dur": 0.057, "note": 80, "inst": "celesta_v0_additive_3", "vel": 1.0, "bend": 0.0, "ch": 0}, {"t": 6.18, "dur": 0.342, "note": 49, "inst": "organ_v0_additive_1", "vel": 1.0, "bend": 0.0, "ch": 1}, {"t": 6.18, "dur": 0.171, "note": 80, "inst": "celesta_v0_additive_3", "vel": 1.0, "bend": 0.0, "ch": 0}, {"t": 6.351, "dur": 0.171, "note": 83, "inst": "celesta_v0_additive_3", "vel": 1.0, "bend": 0.0, "ch": 3}, {"t": 6.522, "dur": 0.342, "note": 40, "inst": "organ_v0_additive_1", "vel": 1.0, "bend": 0.0, "ch": 8}, {"t": 6.522, "dur": 0.171, "note": 80, "inst": "celesta_v0_additive_3", "vel": 1.0, "bend": 0.0, "ch": 0}, {"t": 6.693, "dur": 0.171, "note": 78, "inst": "piano_v0_additive_0", "vel": 1.0, "bend": 0.0, "ch": 14}, {"t": 6.865, "dur": 0.342, "note": 52, "inst": "organ_v0_additive_1", "vel": 1.0, "bend": 0.0, "ch": 4}, {"t": 6.865, "dur": 0.171, "note": 76, "inst": "organ_v0_additive_1", "vel": 1.0, "bend": 0.0, "ch": 12}, {"t": 7.036, "dur": 0.171, "note": 90, "inst": "piano_v0_additive_0", "vel": 1.0, "bend": 0.0, "ch": 10}, {"t": 7.207, "dur": 0.342, "note": 52, "inst": "organ_v0_additive_1", "vel": 1.0, "bend": 0.0, "ch": 4}, {"t": 7.207, "dur": 0.171, "note": 88, "inst": "organ_v0_additive_1", "vel": 1.0, "bend": 0.0, "ch": 8}, {"t": 7.378, "dur": 0.057, "note": 78, "inst": "piano_v0_additive_0", "vel": 1.0, "bend": 0.0, "ch": 14}, {"t": 7.435, "dur": 0.057, "note": 80, "inst": "celesta_v0_additive_3", "vel": 1.0, "bend": 0.0, "ch": 0}, {"t": 7.492, "dur": 0.057, "note": 78, "inst": "piano_v0_additive_0", "vel": 1.0, "bend": 0.0, "ch": 14}, {"t": 7.549, "dur": 0.342, "note": 52, "inst": "organ_v0_additive_1", "vel": 1.0, "bend": 0.0, "ch": 4}, {"t": 7.549, "dur": 0.171, "note": 76, "inst": "organ_v0_additive_1", "vel": 1.0, "bend": 0.0, "ch": 12}, {"t": 7.721, "dur": 0.171, "note": 85, "inst": "organ_v0_additive_1", "vel": 1.0, "bend": 0.0, "ch": 5}, {"t": 7.892, "dur": 0.342, "note": 52, "inst": "organ_v0_additive_1", "vel": 1.0, "bend": 0.0, "ch": 4}, {"t": 7.892, "dur": 0.171, "note": 83, "inst": "celesta_v0_additive_3", "vel": 1.0, "bend": 0.0, "ch": 3}, {"t": 8.063, "dur": 0.171, "note": 76, "inst": "organ_v0_additive_1", "vel": 1.0, "bend": 0.0, "ch": 12}, {"t": 8.234, "dur": 0.342, "note": 56, "inst": "celesta_v0_additive_3", "vel": 1.0, "bend": 0.0, "ch": 8}, {"t": 8.234, "dur": 0.342, "note": 80, "inst": "celesta_v0_additive_3", "vel": 1.0, "bend": 0.0, "ch": 0}, {"t": 8.576, "dur": 0.171, "note": 92, "inst": "celesta_v0_additive_3", "vel": 1.0, "bend": 0.0, "ch": 12}, {"t": 8.748, "dur": 0.057, "note": 92, "inst": "celesta_v0_additive_3", "vel": 1.0, "bend": 0.0, "ch": 12}, {"t": 8.805, "dur": 0.057, "note": 95, "inst": "celesta_v0_additive_3", "vel": 1.0, "bend": 0.0, "ch": 15}, {"t": 8.862, "dur": 0.057, "note": 92, "inst": "celesta_v0_additive_3", "vel": 1.0, "bend": 0.0, "ch": 12}, {"t": 8.919, "dur": 0.342, "note": 52, "inst": "organ_v0_additive_1", "vel": 1.0, "bend": 0.0, "ch": 4}, {"t": 8.919, "dur": 0.171, "note": 92, "inst": "celesta_v0_additive_3", "vel": 1.0, "bend": 0.0, "ch": 12}, {"t": 9.09, "dur": 0.171, "note": 97, "inst": "organ_v0_additive_1", "vel": 1.0, "bend": 0.0, "ch": 1}, {"t": 9.261, "dur": 0.342, "note": 47, "inst": "celesta_v0_additive_3", "vel": 1.0, "bend": 0.0, "ch": 15}, {"t": 9.261, "dur": 0.171, "note": 95, "inst": "celesta_v0_additive_3", "vel": 1.0, "bend": 0.0, "ch": 15}, {"t": 9.432, "dur": 0.057, "note": 90, "inst": "piano_v0_additive_0", "vel": 1.0, "bend": 0.0, "ch": 10}, {"t": 9.489, "dur": 0.057, "note": 92, "inst": "celesta_v0_additive_3", "vel": 1.0, "bend": 0.0, "ch": 12}, {"t": 9.547, "dur": 0.057, "note": 90, "inst": "piano_v0_additive_0", "vel": 1.0, "bend": 0.0, "ch": 10}, {"t": 9.604, "dur": 0.342, "note": 52, "inst": "organ_v0_additive_1", "vel": 1.0, "bend": 0.0, "ch": 4}, {"t": 9.604, "dur": 0.171, "note": 88, "inst": "organ_v0_additive_1", "vel": 1.0, "bend": 0.0, "ch": 8}, {"t": 9.775, "dur": 0.171, "note": 92, "inst": "celesta_v0_additive_3", "vel": 1.0, "bend": 0.0, "ch": 12}, {"t": 9.946, "dur": 0.342, "note": 47, "inst": "celesta_v0_additive_3", "vel": 1.0, "bend": 0.0, "ch": 15}, {"t": 9.946, "dur": 0.171, "note": 92, "inst": "celesta_v0_additive_3", "vel": 1.0, "bend": 0.0, "ch": 12}, {"t": 10.117, "dur": 0.171, "note": 88, "inst": "organ_v0_additive_1", "vel": 1.0, "bend": 0.0, "ch": 8}, {"t": 10.288, "dur": 0.342, "note": 52, "inst": "organ_v0_additive_1", "vel": 1.0, "bend": 0.0, "ch": 4}, {"t": 10.288, "dur": 0.086, "note": 83, "inst": "celesta_v0_additive_3", "vel": 1.0, "bend": 0.0, "ch": 3}, {"t": 10.374, "dur": 0.086, "note": 80, "inst": "celesta_v0_additive_3", "vel": 1.0, "bend": 0.0, "ch": 0}, {"t": 10.46, "dur": 0.086, "note": 83, "inst": "celesta_v0_additive_3", "vel": 1.0, "bend": 0.0, "ch": 3}, {"t": 10.545, "dur": 0.086, "note": 85, "inst": "organ_v0_additive_1", "vel": 1.0, "bend": 0.0, "ch": 5}, {"t": 10.631, "dur": 0.342, "note": 47, "inst": "celesta_v0_additive_3", "vel": 1.0, "bend": 0.0, "ch": 15}, {"t": 10.631, "dur": 0.086, "note": 76, "inst": "organ_v0_additive_1", "vel": 1.0, "bend": 0.0, "ch": 12}, {"t": 10.716, "dur": 0.086, "note": 88, "inst": "organ_v0_additive_1", "vel": 1.0, "bend": 0.0, "ch": 8}, {"t": 10.802, "dur": 0.086, "note": 90, "inst": "piano_v0_additive_0", "vel": 1.0, "bend": 0.0, "ch": 10}, {"t": 10.888, "dur": 0.086, "note": 92, "inst": "celesta_v0_additive_3", "vel": 1.0, "bend": 0.0, "ch": 12}, {"t": 42.29, "dur": 3.053, "note": 39, "inst": "piano_v0_additive_0", "vel": 0.63, "bend": 0.0, "ch": 7}, {"t": 42.29, "dur": 2.29, "note": 43, "inst": "organ_v0_additive_1", "vel": 0.63, "bend": 0.0, "ch": 11}, {"t": 44.581, "dur": 0.762, "note": 41, "inst": "celesta_v0_additive_3", "vel": 0.63, "bend": 0.0, "ch": 9}, {"t": 45.345, "dur": 3.053, "note": 41, "inst": "celesta_v0_additive_3", "vel": 0.63, "bend": 0.0, "ch": 9}, {"t": 45.345, "dur": 1.526, "note": 41, "inst": "celesta_v0_additive_3", "vel": 0.63, "bend": 0.0, "ch": 9}, {"t": 46.872, "dur": 3.053, "note": 43, "inst": "organ_v0_additive_1", "vel": 0.63, "bend": 0.0, "ch": 11}, {"t": 46.872, "dur": 3.053, "note": 59, "inst": "celesta_v0_additive_3", "vel": 0.63, "bend": 0.0, "ch": 11}, {"t": 48.4, "dur": 1.526, "note": 39, "inst": "piano_v0_additive_0", "vel": 0.63, "bend": 0.0, "ch": 7}, {"t": 49.927, "dur": 4.581, "note": 41, "inst": "celesta_v0_additive_3", "vel": 0.63, "bend": 0.0, "ch": 9}, {"t": 49.927, "dur": 3.053, "note": 41, "inst": "celesta_v0_additive_3", "vel": 0.63, "bend": 0.0, "ch": 9}, {"t": 49.927, "dur": 3.053, "note": 57, "inst": "piano_v0_additive_0", "vel": 0.63, "bend": 0.0, "ch": 9}, {"t": 52.982, "dur": 3.053, "note": 35, "inst": "celesta_v0_additive_3", "vel": 0.63, "bend": 0.0, "ch": 3}, {"t": 52.982, "dur": 2.901, "note": 47, "inst": "celesta_v0_additive_3", "vel": 0.63, "bend": 0.0, "ch": 15}, {"t": 52.982, "dur": 3.053, "note": 59, "inst": "celesta_v0_additive_3", "vel": 0.63, "bend": 0.0, "ch": 11}, {"t": 54.51, "dur": 0.762, "note": 39, "inst": "piano_v0_additive_0", "vel": 0.63, "bend": 0.0, "ch": 7}, {"t": 55.274, "dur": 0.762, "note": 37, "inst": "organ_v0_additive_1", "vel": 0.63, "bend": 0.0, "ch": 5}, {"t": 84.037, "dur": 0.395, "note": 38, "inst": "celesta_v0_additive_3", "vel": 1.0, "bend": 0.0, "ch": 6}, {"t": 84.037, "dur": 1.185, "note": 58, "inst": "organ_v0_additive_1", "vel": 1.0, "bend": 0.0, "ch": 10}, {"t": 84.432, "dur": 0.395, "note": 50, "inst": "celesta_v0_additive_3", "vel": 1.0, "bend": 0.0, "ch": 2}, {"t": 84.827, "dur": 0.395, "note": 53, "inst": "celesta_v0_additive_3", "vel": 1.0, "bend": 0.0, "ch": 5}, {"t": 85.222, "dur": 0.395, "note": 50, "inst": "celesta_v0_additive_3", "vel": 1.0, "bend": 0.0, "ch": 2}, {"t": 85.222, "dur": 1.185, "note": 53, "inst": "celesta_v0_additive_3", "vel": 1.0, "bend": 0.0, "ch": 5}, {"t": 85.617, "dur": 0.395, "note": 53, "inst": "celesta_v0_additive_3", "vel": 1.0, "bend": 0.0, "ch": 5}, {"t": 86.012, "dur": 0.395, "note": 38, "inst": "celesta_v0_additive_3", "vel": 1.0, "bend": 0.0, "ch": 6}, {"t": 86.407, "dur": 0.395, "note": 38, "inst": "celesta_v0_additive_3", "vel": 1.0, "bend": 0.0, "ch": 6}, {"t": 86.407, "dur": 1.185, "note": 57, "inst": "piano_v0_additive_0", "vel": 1.0, "bend": 0.0, "ch": 9}, {"t": 86.802, "dur": 0.395, "note": 38, "inst": "celesta_v0_additive_3", "vel": 1.0, "bend": 0.0, "ch": 6}, {"t": 87.198, "dur": 0.395, "note": 50, "inst": "celesta_v0_additive_3", "vel": 1.0, "bend": 0.0, "ch": 2}, {"t": 87.593, "dur": 0.395, "note": 38, "inst": "celesta_v0_additive_3", "vel": 1.0, "bend": 0.0, "ch": 6}, {"t": 87.593, "dur": 1.185, "note": 53, "inst": "celesta_v0_additive_3", "vel": 1.0, "bend": 0.0, "ch": 5}, {"t": 87.988, "dur": 0.395, "note": 50, "inst": "celesta_v0_additive_3", "vel": 1.0, "bend": 0.0, "ch": 2}, {"t": 88.383, "dur": 0.395, "note": 38, "inst": "celesta_v0_additive_3", "vel": 1.0, "bend": 0.0, "ch": 6}, {"t": 88.778, "dur": 0.395, "note": 46, "inst": "organ_v0_additive_1", "vel": 1.0, "bend": 0.0, "ch": 14}, {"t": 88.778, "dur": 1.185, "note": 53, "inst": "celesta_v0_additive_3", "vel": 1.0, "bend": 0.0, "ch": 5}, {"t": 89.173, "dur": 0.395, "note": 38, "inst": "celesta_v0_additive_3", "vel": 1.0, "bend": 0.0, "ch": 6}, {"t": 89.568, "dur": 0.395, "note": 38, "inst": "celesta_v0_additive_3", "vel": 1.0, "bend": 0.0, "ch": 6}, {"t": 89.963, "dur": 0.395, "note": 38, "inst": "celesta_v0_additive_3", "vel": 1.0, "bend": 0.0, "ch": 6}, {"t": 89.963, "dur": 1.185, "note": 50, "inst": "celesta_v0_additive_3", "vel": 1.0, "bend": 0.0, "ch": 2}, {"t": 90.358, "dur": 0.395, "note": 38, "inst": "celesta_v0_additive_3", "vel": 1.0, "bend": 0.0, "ch": 6}, {"t": 90.753, "dur": 0.395, "note": 46, "inst": "organ_v0_additive_1", "vel": 1.0, "bend": 0.0, "ch": 14}, {"t": 91.148, "dur": 0.395, "note": 45, "inst": "piano_v0_additive_0", "vel": 1.0, "bend": 0.0, "ch": 13}, {"t": 91.148, "dur": 1.185, "note": 53, "inst": "celesta_v0_additive_3", "vel": 1.0, "bend": 0.0, "ch": 5}, {"t": 91.543, "dur": 0.395, "note": 46, "inst": "organ_v0_additive_1", "vel": 1.0, "bend": 0.0, "ch": 14}, {"t": 91.938, "dur": 0.395, "note": 38, "inst": "celesta_v0_additive_3", "vel": 1.0, "bend": 0.0, "ch": 6}, {"t": 92.333, "dur": 0.395, "note": 46, "inst": "organ_v0_additive_1", "vel": 1.0, "bend": 0.0, "ch": 14}, {"t": 92.333, "dur": 1.185, "note": 38, "inst": "celesta_v0_additive_3", "vel": 1.0, "bend": 0.0, "ch": 6}, {"t": 92.728, "dur": 0.395, "note": 38, "inst": "celesta_v0_additive_3", "vel": 1.0, "bend": 0.0, "ch": 6}, {"t": 93.123, "dur": 0.395, "note": 45, "inst": "piano_v0_additive_0", "vel": 1.0, "bend": 0.0, "ch": 13}, {"t": 93.519, "dur": 1.185, "note": 41, "inst": "celesta_v0_additive_3", "vel": 1.0, "bend": 0.0, "ch": 9}, {"t": 93.519, "dur": 0.395, "note": 58, "inst": "organ_v0_additive_1", "vel": 1.0, "bend": 0.0, "ch": 10}, {"t": 93.914, "dur": 0.395, "note": 50, "inst": "celesta_v0_additive_3", "vel": 1.0, "bend": 0.0, "ch": 2}, {"t": 94.309, "dur": 0.395, "note": 53, "inst": "celesta_v0_additive_3", "vel": 1.0, "bend": 0.0, "ch": 5}, {"t": 94.704, "dur": 1.185, "note": 38, "inst": "celesta_v0_additive_3", "vel": 1.0, "bend": 0.0, "ch": 6}, {"t": 94.704, "dur": 0.395, "note": 53, "inst": "celesta_v0_additive_3", "vel": 1.0, "bend": 0.0, "ch": 5}, {"t": 95.099, "dur": 0.79, "note": 57, "inst": "piano_v0_additive_0", "vel": 1.0, "bend": 0.0, "ch": 9}, {"t": 95.889, "dur": 1.185, "note": 45, "inst": "piano_v0_additive_0", "vel": 1.0, "bend": 0.0, "ch": 13}, {"t": 95.889, "dur": 0.395, "note": 57, "inst": "piano_v0_additive_0", "vel": 1.0, "bend": 0.0, "ch": 9}, {"t": 95.889, "dur": 0.395, "note": 50, "inst": "celesta_v0_additive_3", "vel": 1.0, "bend": 0.0, "ch": 2}, {"t": 96.284, "dur": 0.395, "note": 58, "inst": "organ_v0_additive_1", "vel": 1.0, "bend": 0.0, "ch": 10}, {"t": 96.679, "dur": 0.395, "note": 53, "inst": "celesta_v0_additive_3", "vel": 1.0, "bend": 0.0, "ch": 5}, {"t": 97.074, "dur": 0.395, "note": 26, "inst": "celesta_v0_additive_3", "vel": 1.0, "bend": 0.0, "ch": 10}, {"t": 97.074, "dur": 1.185, "note": 50, "inst": "celesta_v0_additive_3", "vel": 1.0, "bend": 0.0, "ch": 2}, {"t": 97.469, "dur": 0.395, "note": 38, "inst": "celesta_v0_additive_3", "vel": 1.0, "bend": 0.0, "ch": 6}, {"t": 97.864, "dur": 0.395, "note": 41, "inst": "celesta_v0_additive_3", "vel": 1.0, "bend": 0.0, "ch": 9}, {"t": 98.259, "dur": 0.395, "note": 41, "inst": "celesta_v0_additive_3", "vel": 1.0, "bend": 0.0, "ch": 9}, {"t": 98.259, "dur": 1.185, "note": 50, "inst": "celesta_v0_additive_3", "vel": 1.0, "bend": 0.0, "ch": 2}, {"t": 98.654, "dur": 0.395, "note": 45, "inst": "piano_v0_additive_0", "vel": 1.0, "bend": 0.0, "ch": 13}, {"t": 99.049, "dur": 0.395, "note": 46, "inst": "organ_v0_additive_1", "vel": 1.0, "bend": 0.0, "ch": 14}, {"t": 99.444, "dur": 0.395, "note": 45, "inst": "piano_v0_additive_0", "vel": 1.0, "bend": 0.0, "ch": 13}, {"t": 99.444, "dur": 1.185, "note": 50, "inst": "celesta_v0_additive_3", "vel": 1.0, "bend": 0.0, "ch": 2}, {"t": 99.84, "dur": 0.395, "note": 46, "inst": "organ_v0_additive_1", "vel": 1.0, "bend": 0.0, "ch": 14}, {"t": 100.235, "dur": 0.395, "note": 41, "inst": "celesta_v0_additive_3", "vel": 1.0, "bend": 0.0, "ch": 9}, {"t": 100.63, "dur": 0.395, "note": 41, "inst": "celesta_v0_additive_3", "vel": 1.0, "bend": 0.0, "ch": 9}, {"t": 100.63, "dur": 1.185, "note": 38, "inst": "celesta_v0_additive_3", "vel": 1.0, "bend": 0.0, "ch": 6}, {"t": 101.025, "dur": 0.395, "note": 41, "inst": "celesta_v0_additive_3", "vel": 1.0, "bend": 0.0, "ch": 9}, {"t": 101.42, "dur": 0.395, "note": 45, "inst": "piano_v0_additive_0", "vel": 1.0, "bend": 0.0, "ch": 13}, {"t": 101.815, "dur": 0.395, "note": 41, "inst": "celesta_v0_additive_3", "vel": 1.0, "bend": 0.0, "ch": 9}, {"t": 101.815, "dur": 1.185, "note": 58, "inst": "organ_v0_additive_1", "vel": 1.0, "bend": 0.0, "ch": 10}, {"t": 102.21, "dur": 0.395, "note": 45, "inst": "piano_v0_additive_0", "vel": 1.0, "bend": 0.0, "ch": 13}, {"t": 102.605, "dur": 0.395, "note": 41, "inst": "celesta_v0_additive_3", "vel": 1.0, "bend": 0.0, "ch": 9}, {"t": 103.0, "dur": 0.395, "note": 38, "inst": "celesta_v0_additive_3", "vel": 1.0, "bend": 0.0, "ch": 6}, {"t": 103.0, "dur": 1.185, "note": 38, "inst": "celesta_v0_additive_3", "vel": 1.0, "bend": 0.0, "ch": 6}, {"t": 103.395, "dur": 0.395, "note": 41, "inst": "celesta_v0_additive_3", "vel": 1.0, "bend": 0.0, "ch": 9}, {"t": 103.79, "dur": 0.395, "note": 41, "inst": "celesta_v0_additive_3", "vel": 1.0, "bend": 0.0, "ch": 9}, {"t": 104.185, "dur": 1.185, "note": 41, "inst": "celesta_v0_additive_3", "vel": 1.0, "bend": 0.0, "ch": 9}, {"t": 104.185, "dur": 0.395, "note": 57, "inst": "piano_v0_additive_0", "vel": 1.0, "bend": 0.0, "ch": 9}, {"t": 104.58, "dur": 0.395, "note": 38, "inst": "celesta_v0_additive_3", "vel": 1.0, "bend": 0.0, "ch": 6}, {"t": 104.975, "dur": 0.395, "note": 50, "inst": "celesta_v0_additive_3", "vel": 1.0, "bend": 0.0, "ch": 2}, {"t": 105.37, "dur": 1.185, "note": 26, "inst": "celesta_v0_additive_3", "vel": 1.0, "bend": 0.0, "ch": 10}, {"t": 105.37, "dur": 0.395, "note": 58, "inst": "organ_v0_additive_1", "vel": 1.0, "bend": 0.0, "ch": 10}, {"t": 105.765, "dur": 0.395, "note": 53, "inst": "celesta_v0_additive_3", "vel": 1.0, "bend": 0.0, "ch": 5}, {"t": 106.161, "dur": 0.395, "note": 57, "inst": "piano_v0_additive_0", "vel": 1.0, "bend": 0.0, "ch": 9}, {"t": 106.556, "dur": 1.185, "note": 38, "inst": "celesta_v0_additive_3", "vel": 1.0, "bend": 0.0, "ch": 6}, {"t": 106.556, "dur": 0.395, "note": 53, "inst": "celesta_v0_additive_3", "vel": 1.0, "bend": 0.0, "ch": 5}, {"t": 106.951, "dur": 0.395, "note": 57, "inst": "piano_v0_additive_0", "vel": 1.0, "bend": 0.0, "ch": 9}, {"t": 107.346, "dur": 0.395, "note": 53, "inst": "celesta_v0_additive_3", "vel": 1.0, "bend": 0.0, "ch": 5}, {"t": 107.741, "dur": 2.37, "note": 26, "inst": "celesta_v0_additive_3", "vel": 1.0, "bend": 0.0, "ch": 10}, {"t": 107.741, "dur": 0.395, "note": 50, "inst": "celesta_v0_additive_3", "vel": 1.0, "bend": 0.0, "ch": 2}, {"t": 108.136, "dur": 0.395, "note": 50, "inst": "celesta_v0_additive_3", "vel": 1.0, "bend": 0.0, "ch": 2}, {"t": 108.531, "dur": 0.395, "note": 50, "inst": "celesta_v0_additive_3", "vel": 1.0, "bend": 0.0, "ch": 2}, {"t": 108.926, "dur": 0.395, "note": 62, "inst": "celesta_v0_additive_3", "vel": 1.0, "bend": 0.0, "ch": 14}, {"t": 109.321, "dur": 0.395, "note": 65, "inst": "celesta_v0_additive_3", "vel": 1.0, "bend": 0.0, "ch": 1}, {"t": 109.716, "dur": 0.395, "note": 65, "inst": "celesta_v0_additive_3", "vel": 1.0, "bend": 0.0, "ch": 1}, {"t": 110.111, "dur": 1.185, "note": 41, "inst": "celesta_v0_additive_3", "vel": 1.0, "bend": 0.0, "ch": 9}, {"t": 110.111, "dur": 0.395, "note": 65, "inst": "celesta_v0_additive_3", "vel": 1.0, "bend": 0.0, "ch": 1}, {"t": 110.506, "dur": 0.395, "note": 65, "inst": "celesta_v0_additive_3", "vel": 1.0, "bend": 0.0, "ch": 1}, {"t": 110.901, "dur": 0.395, "note": 62, "inst": "celesta_v0_additive_3", "vel": 1.0, "bend": 0.0, "ch": 14}, {"t": 111.296, "dur": 1.185, "note": 34, "inst": "organ_v0_additive_1", "vel": 1.0, "bend": 0.0, "ch": 2}, {"t": 111.296, "dur": 0.395, "note": 46, "inst": "organ_v0_additive_1", "vel": 1.0, "bend": 0.0, "ch": 14}, {"t": 111.296, "dur": 0.395, "note": 50, "inst": "celesta_v0_additive_3", "vel": 1.0, "bend": 0.0, "ch": 2}, {"t": 111.691, "dur": 0.395, "note": 65, "inst": "celesta_v0_additive_3", "vel": 1.0, "bend": 0.0, "ch": 1}, {"t": 112.086, "dur": 0.395, "note": 50, "inst": "celesta_v0_additive_3", "vel": 1.0, "bend": 0.0, "ch": 2}, {"t": 112.482, "dur": 0.395, "note": 50, "inst": "celesta_v0_additive_3", "vel": 1.0, "bend": 0.0, "ch": 2}, {"t": 112.877, "dur": 0.395, "note": 65, "inst": "celesta_v0_additive_3", "vel": 1.0, "bend": 0.0, "ch": 1}, {"t": 113.272, "dur": 0.395, "note": 57, "inst": "piano_v0_additive_0", "vel": 1.0, "bend": 0.0, "ch": 9}, {"t": 113.667, "dur": 1.185, "note": 26, "inst": "celesta_v0_additive_3", "vel": 1.0, "bend": 0.0, "ch": 10}, {"t": 113.667, "dur": 0.395, "note": 58, "inst": "organ_v0_additive_1", "vel": 1.0, "bend": 0.0, "ch": 10}, {"t": 114.062, "dur": 0.395, "note": 50, "inst": "celesta_v0_additive_3", "vel": 1.0, "bend": 0.0, "ch": 2}, {"t": 114.457, "dur": 0.395, "note": 53, "inst": "celesta_v0_additive_3", "vel": 1.0, "bend": 0.0, "ch": 5}, {"t": 114.852, "dur": 1.185, "note": 38, "inst": "celesta_v0_additive_3", "vel": 1.0, "bend": 0.0, "ch": 6}, {"t": 114.852, "dur": 0.395, "note": 53, "inst": "celesta_v0_additive_3", "vel": 1.0, "bend": 0.0, "ch": 5}, {"t": 115.247, "dur": 0.395, "note": 58, "inst": "organ_v0_additive_1", "vel": 1.0, "bend": 0.0, "ch": 10}, {"t": 115.642, "dur": 0.395, "note": 53, "inst": "celesta_v0_additive_3", "vel": 1.0, "bend": 0.0, "ch": 5}, {"t": 116.037, "dur": 0.395, "note": 53, "inst": "celesta_v0_additive_3", "vel": 1.0, "bend": 0.0, "ch": 5}, {"t": 116.432, "dur": 0.395, "note": 58, "inst": "organ_v0_additive_1", "vel": 1.0, "bend": 0.0, "ch": 10}, {"t": 116.827, "dur": 0.395, "note": 50, "inst": "celesta_v0_additive_3", "vel": 1.0, "bend": 0.0, "ch": 2}, {"t": 117.222, "dur": 0.395, "note": 50, "inst": "celesta_v0_additive_3", "vel": 1.0, "bend": 0.0, "ch": 2}, {"t": 117.617, "dur": 0.79, "note": 53, "inst": "celesta_v0_additive_3", "vel": 1.0, "bend": 0.0, "ch": 5}, {"t": 118.012, "dur": 0.395, "note": 46, "inst": "organ_v0_additive_1", "vel": 1.0, "bend": 0.0, "ch": 14}, {"t": 118.407, "dur": 0.395, "note": 38, "inst": "celesta_v0_additive_3", "vel": 1.0, "bend": 0.0, "ch": 6}, {"t": 118.803, "dur": 0.395, "note": 50, "inst": "celesta_v0_additive_3", "vel": 1.0, "bend": 0.0, "ch": 2}, {"t": 119.198, "dur": 0.395, "note": 46, "inst": "organ_v0_additive_1", "vel": 1.0, "bend": 0.0, "ch": 14}, {"t": 119.593, "dur": 0.395, "note": 38, "inst": "celesta_v0_additive_3", "vel": 1.0, "bend": 0.0, "ch": 6}, {"t": 119.593, "dur": 1.185, "note": 50, "inst": "celesta_v0_additive_3", "vel": 1.0, "bend": 0.0, "ch": 2}, {"t": 119.988, "dur": 0.395, "note": 50, "inst": "celesta_v0_additive_3", "vel": 1.0, "bend": 0.0, "ch": 2}, {"t": 120.383, "dur": 0.395, "note": 41, "inst": "celesta_v0_additive_3", "vel": 1.0, "bend": 0.0, "ch": 9}, {"t": 120.778, "dur": 0.395, "note": 45, "inst": "piano_v0_additive_0", "vel": 1.0, "bend": 0.0, "ch": 13}, {"t": 120.778, "dur": 1.185, "note": 50, "inst": "celesta_v0_additive_3", "vel": 1.0, "bend": 0.0, "ch": 2}, {"t": 121.173, "dur": 0.395, "note": 38, "inst": "celesta_v0_additive_3", "vel": 1.0, "bend": 0.0, "ch": 6}, {"t": 121.568, "dur": 0.395, "note": 38, "inst": "celesta_v0_additive_3", "vel": 1.0, "bend": 0.0, "ch": 6}, {"t": 121.963, "dur": 0.395, "note": 41, "inst": "celesta_v0_additive_3", "vel": 1.0, "bend": 0.0, "ch": 9}, {"t": 121.963, "dur": 1.185, "note": 38, "inst": "celesta_v0_additive_3", "vel": 1.0, "bend": 0.0, "ch": 6}, {"t": 122.358, "dur": 0.395, "note": 45, "inst": "piano_v0_additive_0", "vel": 1.0, "bend": 0.0, "ch": 13}, {"t": 122.753, "dur": 0.395, "note": 38, "inst": "celesta_v0_additive_3", "vel": 1.0, "bend": 0.0, "ch": 6}, {"t": 123.148, "dur": 0.395, "note": 41, "inst": "celesta_v0_additive_3", "vel": 1.0, "bend": 0.0, "ch": 9}, {"t": 123.148, "dur": 1.185, "note": 58, "inst": "organ_v0_additive_1", "vel": 1.0, "bend": 0.0, "ch": 10}, {"t": 123.543, "dur": 0.395, "note": 45, "inst": "piano_v0_additive_0", "vel": 1.0, "bend": 0.0, "ch": 13}, {"t": 123.938, "dur": 0.395, "note": 26, "inst": "celesta_v0_additive_3", "vel": 1.0, "bend": 0.0, "ch": 10}, {"t": 124.333, "dur": 0.395, "note": 26, "inst": "celesta_v0_additive_3", "vel": 1.0, "bend": 0.0, "ch": 10}, {"t": 124.333, "dur": 1.185, "note": 57, "inst": "piano_v0_additive_0", "vel": 1.0, "bend": 0.0, "ch": 9}, {"t": 124.728, "dur": 0.395, "note": 41, "inst": "celesta_v0_additive_3", "vel": 1.0, "bend": 0.0, "ch": 9}, {"t": 125.124, "dur": 0.395, "note": 33, "inst": "piano_v0_additive_0", "vel": 1.0, "bend": 0.0, "ch": 1}, {"t": 125.519, "dur": 0.395, "note": 34, "inst": "organ_v0_additive_1", "vel": 1.0, "bend": 0.0, "ch": 2}, {"t": 125.519, "dur": 1.185, "note": 38, "inst": "celesta_v0_additive_3", "vel": 1.0, "bend": 0.0, "ch": 6}, {"t": 125.914, "dur": 0.395, "note": 26, "inst": "celesta_v0_additive_3", "vel": 1.0, "bend": 0.0, "ch": 10}, {"t": 126.309, "dur": 0.395, "note": 33, "inst": "piano_v0_additive_0", "vel": 1.0, "bend": 0.0, "ch": 1}, {"t": 126.704, "dur": 0.395, "note": 34, "inst": "organ_v0_additive_1", "vel": 1.0, "bend": 0.0, "ch": 2}, {"t": 126.704, "dur": 1.185, "note": 53, "inst": "celesta_v0_additive_3", "vel": 1.0, "bend": 0.0, "ch": 5}, {"t": 127.099, "dur": 0.395, "note": 26, "inst": "celesta_v0_additive_3", "vel": 1.0, "bend": 0.0, "ch": 10}, {"t": 127.494, "dur": 0.395, "note": 29, "inst": "celesta_v0_additive_3", "vel": 1.0, "bend": 0.0, "ch": 13}, {"t": 127.889, "dur": 0.395, "note": 29, "inst": "celesta_v0_additive_3", "vel": 1.0, "bend": 0.0, "ch": 13}, {"t": 127.889, "dur": 1.185, "note": 58, "inst": "organ_v0_additive_1", "vel": 1.0, "bend": 0.0, "ch": 10}, {"t": 128.284, "dur": 0.395, "note": 34, "inst": "organ_v0_additive_1", "vel": 1.0, "bend": 0.0, "ch": 2}, {"t": 128.679, "dur": 0.395, "note": 24, "inst": "piano_v0_additive_0", "vel": 1.0, "bend": 0.0, "ch": 8}, {"t": 129.074, "dur": 1.185, "note": 26, "inst": "celesta_v0_additive_3", "vel": 1.0, "bend": 0.0, "ch": 10}, {"t": 129.469, "dur": 0.395, "note": 50, "inst": "celesta_v0_additive_3", "vel": 1.0, "bend": 0.0, "ch": 2}, {"t": 129.864, "dur": 0.395, "note": 53, "inst": "celesta_v0_additive_3", "vel": 1.0, "bend": 0.0, "ch": 5}, {"t": 130.259, "dur": 1.185, "note": 26, "inst": "celesta_v0_additive_3", "vel": 1.0, "bend": 0.0, "ch": 10}, {"t": 130.259, "dur": 0.395, "note": 53, "inst": "celesta_v0_additive_3", "vel": 1.0, "bend": 0.0, "ch": 5}, {"t": 130.654, "dur": 0.79, "note": 57, "inst": "piano_v0_additive_0", "vel": 1.0, "bend": 0.0, "ch": 9}, {"t": 131.445, "dur": 0.395, "note": 57, "inst": "piano_v0_additive_0", "vel": 1.0, "bend": 0.0, "ch": 9}, {"t": 131.84, "dur": 0.395, "note": 58, "inst": "organ_v0_additive_1", "vel": 1.0, "bend": 0.0, "ch": 10}, {"t": 132.235, "dur": 0.395, "note": 53, "inst": "celesta_v0_additive_3", "vel": 1.0, "bend": 0.0, "ch": 5}, {"t": 132.63, "dur": 1.185, "note": 26, "inst": "celesta_v0_additive_3", "vel": 1.0, "bend": 0.0, "ch": 10}, {"t": 132.63, "dur": 0.395, "note": 69, "inst": "piano_v0_additive_0", "vel": 1.0, "bend": 0.0, "ch": 5}, {"t": 133.025, "dur": 0.395, "note": 65, "inst": "celesta_v0_additive_3", "vel": 1.0, "bend": 0.0, "ch": 1}, {"t": 133.42, "dur": 0.395, "note": 65, "inst": "celesta_v0_additive_3", "vel": 1.0, "bend": 0.0, "ch": 1}, {"t": 133.815, "dur": 1.185, "note": 26, "inst": "celesta_v0_additive_3", "vel": 1.0, "bend": 0.0, "ch": 10}, {"t": 133.815, "dur": 0.395, "note": 62, "inst": "celesta_v0_additive_3", "vel": 1.0, "bend": 0.0, "ch": 14}, {"t": 134.21, "dur": 0.395, "note": 50, "inst": "celesta_v0_additive_3", "vel": 1.0, "bend": 0.0, "ch": 2}, {"t": 134.605, "dur": 0.395, "note": 50, "inst": "celesta_v0_additive_3", "vel": 1.0, "bend": 0.0, "ch": 2}, {"t": 135.0, "dur": 1.185, "note": 38, "inst": "celesta_v0_additive_3", "vel": 1.0, "bend": 0.0, "ch": 6}, {"t": 135.0, "dur": 0.395, "note": 53, "inst": "celesta_v0_additive_3", "vel": 1.0, "bend": 0.0, "ch": 5}, {"t": 135.0, "dur": 0.395, "note": 50, "inst": "celesta_v0_additive_3", "vel": 1.0, "bend": 0.0, "ch": 2}, {"t": 135.395, "dur": 0.395, "note": 58, "inst": "organ_v0_additive_1", "vel": 1.0, "bend": 0.0, "ch": 10}, {"t": 135.79, "dur": 0.395, "note": 50, "inst": "celesta_v0_additive_3", "vel": 1.0, "bend": 0.0, "ch": 2}, {"t": 136.185, "dur": 0.395, "note": 33, "inst": "piano_v0_additive_0", "vel": 1.0, "bend": 0.0, "ch": 1}, {"t": 136.185, "dur": 1.185, "note": 57, "inst": "piano_v0_additive_0", "vel": 1.0, "bend": 0.0, "ch": 9}, {"t": 136.58, "dur": 0.395, "note": 34, "inst": "organ_v0_additive_1", "vel": 1.0, "bend": 0.0, "ch": 2}, {"t": 136.975, "dur": 0.395, "note": 26, "inst": "celesta_v0_additive_3", "vel": 1.0, "bend": 0.0, "ch": 10}, {"t": 137.37, "dur": 0.395, "note": 26, "inst": "celesta_v0_additive_3", "vel": 1.0, "bend": 0.0, "ch": 10}, {"t": 137.766, "dur": 0.395, "note": 38, "inst": "celesta_v0_additive_3", "vel": 1.0, "bend": 0.0, "ch": 6}, {"t": 138.161, "dur": 0.395, "note": 41, "inst": "celesta_v0_additive_3", "vel": 1.0, "bend": 0.0, "ch": 9}, {"t": 138.556, "dur": 0.395, "note": 38, "inst": "celesta_v0_additive_3", "vel": 1.0, "bend": 0.0, "ch": 6}, {"t": 138.951, "dur": 0.395, "note": 41, "inst": "celesta_v0_additive_3", "vel": 1.0, "bend": 0.0, "ch": 9}, {"t": 139.346, "dur": 0.395, "note": 26, "inst": "celesta_v0_additive_3", "vel": 1.0, "bend": 0.0, "ch": 10}, {"t": 139.741, "dur": 0.395, "note": 26, "inst": "celesta_v0_additive_3", "vel": 1.0, "bend": 0.0, "ch": 10}, {"t": 139.741, "dur": 0.395, "note": 45, "inst": "piano_v0_additive_0", "vel": 1.0, "bend": 0.0, "ch": 13}, {"t": 140.136, "dur": 0.395, "note": 26, "inst": "celesta_v0_additive_3", "vel": 1.0, "bend": 0.0, "ch": 10}, {"t": 140.136, "dur": 0.395, "note": 46, "inst": "organ_v0_additive_1", "vel": 1.0, "bend": 0.0, "ch": 14}, {"t": 140.531, "dur": 0.395, "note": 38, "inst": "celesta_v0_additive_3", "vel": 1.0, "bend": 0.0, "ch": 6}, {"t": 140.531, "dur": 0.395, "note": 38, "inst": "celesta_v0_additive_3", "vel": 1.0, "bend": 0.0, "ch": 6}, {"t": 140.926, "dur": 0.395, "note": 41, "inst": "celesta_v0_additive_3", "vel": 1.0, "bend": 0.0, "ch": 9}, {"t": 140.926, "dur": 0.395, "note": 38, "inst": "celesta_v0_additive_3", "vel": 1.0, "bend": 0.0, "ch": 6}, {"t": 141.321, "dur": 0.395, "note": 38, "inst": "celesta_v0_additive_3", "vel": 1.0, "bend": 0.0, "ch": 6}, {"t": 141.321, "dur": 0.395, "note": 50, "inst": "celesta_v0_additive_3", "vel": 1.0, "bend": 0.0, "ch": 2}, {"t": 141.716, "dur": 0.395, "note": 26, "inst": "celesta_v0_additive_3", "vel": 1.0, "bend": 0.0, "ch": 10}, {"t": 141.716, "dur": 0.395, "note": 53, "inst": "celesta_v0_additive_3", "vel": 1.0, "bend": 0.0, "ch": 5}, {"t": 142.111, "dur": 1.185, "note": 41, "inst": "celesta_v0_additive_3", "vel": 1.0, "bend": 0.0, "ch": 9}, {"t": 142.111, "dur": 0.395, "note": 50, "inst": "celesta_v0_additive_3", "vel": 1.0, "bend": 0.0, "ch": 2}, {"t": 142.506, "dur": 0.395, "note": 53, "inst": "celesta_v0_additive_3", "vel": 1.0, "bend": 0.0, "ch": 5}, {"t": 142.901, "dur": 0.395, "note": 38, "inst": "celesta_v0_additive_3", "vel": 1.0, "bend": 0.0, "ch": 6}, {"t": 143.296, "dur": 0.395, "note": 38, "inst": "celesta_v0_additive_3", "vel": 1.0, "bend": 0.0, "ch": 6}, {"t": 143.296, "dur": 0.395, "note": 50, "inst": "celesta_v0_additive_3", "vel": 1.0, "bend": 0.0, "ch": 2}, {"t": 143.691, "dur": 0.395, "note": 53, "inst": "celesta_v0_additive_3", "vel": 1.0, "bend": 0.0, "ch": 5}, {"t": 144.087, "dur": 0.395, "note": 53, "inst": "celesta_v0_additive_3", "vel": 1.0, "bend": 0.0, "ch": 5}, {"t": 144.482, "dur": 1.185, "note": 41, "inst": "celesta_v0_additive_3", "vel": 1.0, "bend": 0.0, "ch": 9}, {"t": 144.482, "dur": 0.395, "note": 57, "inst": "piano_v0_additive_0", "vel": 1.0, "bend": 0.0, "ch": 9}, {"t": 144.877, "dur": 0.395, "note": 58, "inst": "organ_v0_additive_1", "vel": 1.0, "bend": 0.0, "ch": 10}, {"t": 145.272, "dur": 0.395, "note": 58, "inst": "organ_v0_additive_1", "vel": 1.0, "bend": 0.0, "ch": 10}, {"t": 145.667, "dur": 1.185, "note": 46, "inst": "organ_v0_additive_1", "vel": 1.0, "bend": 0.0, "ch": 14}, {"t": 145.667, "dur": 0.395, "note": 58, "inst": "organ_v0_additive_1", "vel": 1.0, "bend": 0.0, "ch": 10}, {"t": 146.062, "dur": 0.395, "note": 58, "inst": "organ_v0_additive_1", "vel": 1.0, "bend": 0.0, "ch": 10}, {"t": 146.457, "dur": 0.395, "note": 57, "inst": "piano_v0_additive_0", "vel": 1.0, "bend": 0.0, "ch": 9}, {"t": 146.852, "dur": 1.185, "note": 38, "inst": "celesta_v0_additive_3", "vel": 1.0, "bend": 0.0, "ch": 6}, {"t": 146.852, "dur": 0.395, "note": 53, "inst": "celesta_v0_additive_3", "vel": 1.0, "bend": 0.0, "ch": 5}, {"t": 147.247, "dur": 0.395, "note": 57, "inst": "piano_v0_additive_0", "vel": 1.0, "bend": 0.0, "ch": 9}, {"t": 147.642, "dur": 0.395, "note": 58, "inst": "organ_v0_additive_1", "vel": 1.0, "bend": 0.0, "ch": 10}, {"t": 148.037, "dur": 2.37, "note": 45, "inst": "piano_v0_additive_0", "vel": 1.0, "bend": 0.0, "ch": 13}, {"t": 148.037, "dur": 0.395, "note": 58, "inst": "organ_v0_additive_1", "vel": 1.0, "bend": 0.0, "ch": 10}, {"t": 148.432, "dur": 0.395, "note": 50, "inst": "celesta_v0_additive_3", "vel": 1.0, "bend": 0.0, "ch": 2}, {"t": 148.827, "dur": 0.395, "note": 62, "inst": "celesta_v0_additive_3", "vel": 1.0, "bend": 0.0, "ch": 14}, {"t": 149.222, "dur": 0.395, "note": 53, "inst": "celesta_v0_additive_3", "vel": 1.0, "bend": 0.0, "ch": 5}, {"t": 149.222, "dur": 0.395, "note": 50, "inst": "celesta_v0_additive_3", "vel": 1.0, "bend": 0.0, "ch": 2}, {"t": 149.617, "dur": 0.395, "note": 62, "inst": "celesta_v0_additive_3", "vel": 1.0, "bend": 0.0, "ch": 14}, {"t": 150.012, "dur": 0.395, "note": 58, "inst": "organ_v0_additive_1", "vel": 1.0, "bend": 0.0, "ch": 10}, {"t": 168.297, "dur": 0.15, "note": 62, "inst": "celesta_v0_additive_3", "vel": 1.0, "bend": 0.0, "ch": 14}, {"t": 168.297, "dur": 0.224, "note": 86, "inst": "celesta_v0_additive_3", "vel": 1.0, "bend": 0.0, "ch": 6}, {"t": 168.447, "dur": 0.15, "note": 65, "inst": "celesta_v0_additive_3", "vel": 1.0, "bend": 0.0, "ch": 1}, {"t": 168.521, "dur": 0.112, "note": 88, "inst": "organ_v0_additive_1", "vel": 1.0, "bend": 0.0, "ch": 8}, {"t": 168.596, "dur": 0.15, "note": 69, "inst": "piano_v0_additive_0", "vel": 1.0, "bend": 0.0, "ch": 5}, {"t": 168.634, "dur": 0.112, "note": 86, "inst": "celesta_v0_additive_3", "vel": 1.0, "bend": 0.0, "ch": 6}, {"t": 168.746, "dur": 0.15, "note": 64, "inst": "organ_v0_additive_1", "vel": 1.0, "bend": 0.0, "ch": 0}, {"t": 168.746, "dur": 0.224, "note": 83, "inst": "celesta_v0_additive_3", "vel": 1.0, "bend": 0.0, "ch": 3}, {"t": 168.896, "dur": 0.15, "note": 67, "inst": "organ_v0_additive_1", "vel": 1.0, "bend": 0.0, "ch": 3}, {"t": 168.97, "dur": 0.224, "note": 74, "inst": "celesta_v0_additive_3", "vel": 1.0, "bend": 0.0, "ch": 10}, {"t": 169.045, "dur": 0.15, "note": 69, "inst": "piano_v0_additive_0", "vel": 1.0, "bend": 0.0, "ch": 5}, {"t": 169.195, "dur": 0.15, "note": 62, "inst": "celesta_v0_additive_3", "vel": 1.0, "bend": 0.0, "ch": 14}, {"t": 169.195, "dur": 0.449, "note": 86, "inst": "celesta_v0_additive_3", "vel": 1.0, "bend": 0.0, "ch": 6}, {"t": 169.344, "dur": 0.15, "note": 65, "inst": "celesta_v0_additive_3", "vel": 1.0, "bend": 0.0, "ch": 1}, {"t": 169.494, "dur": 0.15, "note": 69, "inst": "piano_v0_additive_0", "vel": 1.0, "bend": 0.0, "ch": 5}, {"t": 169.644, "dur": 0.15, "note": 55, "inst": "organ_v0_additive_1", "vel": 1.0, "bend": 0.0, "ch": 7}, {"t": 169.644, "dur": 0.449, "note": 83, "inst": "celesta_v0_additive_3", "vel": 1.0, "bend": 0.0, "ch": 3}, {"t": 169.793, "dur": 0.15, "note": 65, "inst": "celesta_v0_additive_3", "vel": 1.0, "bend": 0.0, "ch": 1}, {"t": 169.943, "dur": 0.15, "note": 67, "inst": "organ_v0_additive_1", "vel": 1.0, "bend": 0.0, "ch": 3}, {"t": 170.093, "dur": 0.15, "note": 60, "inst": "piano_v0_additive_0", "vel": 1.0, "bend": 0.0, "ch": 12}, {"t": 170.093, "dur": 0.224, "note": 86, "inst": "celesta_v0_additive_3", "vel": 1.0, "bend": 0.0, "ch": 6}, {"t": 170.242, "dur": 0.15, "note": 64, "inst": "organ_v0_additive_1", "vel": 1.0, "bend": 0.0, "ch": 0}, {"t": 170.317, "dur": 0.224, "note": 84, "inst": "piano_v0_additive_0", "vel": 1.0, "bend": 0.0, "ch": 4}, {"t": 170.392, "dur": 0.15, "note": 69, "inst": "piano_v0_additive_0", "vel": 1.0, "bend": 0.0, "ch": 5}, {"t": 170.542, "dur": 0.15, "note": 62, "inst": "celesta_v0_additive_3", "vel": 1.0, "bend": 0.0, "ch": 14}, {"t": 170.542, "dur": 0.224, "note": 81, "inst": "piano_v0_additive_0", "vel": 1.0, "bend": 0.0, "ch": 1}, {"t": 170.691, "dur": 0.15, "note": 65, "inst": "celesta_v0_additive_3", "vel": 1.0, "bend": 0.0, "ch": 1}, {"t": 170.766, "dur": 0.224, "note": 77, "inst": "celesta_v0_additive_3", "vel": 1.0, "bend": 0.0, "ch": 13}, {"t": 170.841, "dur": 0.15, "note": 69, "inst": "piano_v0_additive_0", "vel": 1.0, "bend": 0.0, "ch": 5}, {"t": 170.991, "dur": 0.15, "note": 55, "inst": "organ_v0_additive_1", "vel": 1.0, "bend": 0.0, "ch": 7}, {"t": 170.991, "dur": 0.449, "note": 79, "inst": "organ_v0_additive_1", "vel": 1.0, "bend": 0.0, "ch": 15}, {"t": 171.14, "dur": 0.15, "note": 62, "inst": "celesta_v0_additive_3", "vel": 1.0, "bend": 0.0, "ch": 14}, {"t": 171.29, "dur": 0.15, "note": 67, "inst": "organ_v0_additive_1", "vel": 1.0, "bend": 0.0, "ch": 3}, {"t": 171.552, "dur": 0.112, "note": 55, "inst": "organ_v0_additive_1", "vel": 1.0, "bend": 0.0, "ch": 7}, {"t": 171.552, "dur": 0.112, "note": 67, "inst": "organ_v0_additive_1", "vel": 1.0, "bend": 0.0, "ch": 3}, {"t": 171.664, "dur": 0.112, "note": 57, "inst": "piano_v0_additive_0", "vel": 1.0, "bend": 0.0, "ch": 9}, {"t": 171.664, "dur": 0.112, "note": 69, "inst": "piano_v0_additive_0", "vel": 1.0, "bend": 0.0, "ch": 5}, {"t": 171.776, "dur": 0.112, "note": 59, "inst": "celesta_v0_additive_3", "vel": 1.0, "bend": 0.0, "ch": 11}, {"t": 171.776, "dur": 0.112, "note": 71, "inst": "celesta_v0_additive_3", "vel": 1.0, "bend": 0.0, "ch": 7}, {"t": 171.888, "dur": 0.112, "note": 60, "inst": "piano_v0_additive_0", "vel": 1.0, "bend": 0.0, "ch": 12}, {"t": 171.888, "dur": 0.112, "note": 72, "inst": "piano_v0_additive_0", "vel": 1.0, "bend": 0.0, "ch": 8}, {"t": 172.001, "dur": 0.112, "note": 55, "inst": "organ_v0_additive_1", "vel": 1.0, "bend": 0.0, "ch": 7}, {"t": 172.001, "dur": 0.112, "note": 67, "inst": "organ_v0_additive_1", "vel": 1.0, "bend": 0.0, "ch": 3}, {"t": 172.113, "dur": 0.112, "note": 57, "inst": "piano_v0_additive_0", "vel": 1.0, "bend": 0.0, "ch": 9}, {"t": 172.113, "dur": 0.112, "note": 69, "inst": "piano_v0_additive_0", "vel": 1.0, "bend": 0.0, "ch": 5}, {"t": 172.225, "dur": 0.112, "note": 59, "inst": "celesta_v0_additive_3", "vel": 1.0, "bend": 0.0, "ch": 11}, {"t": 172.225, "dur": 0.112, "note": 71, "inst": "celesta_v0_additive_3", "vel": 1.0, "bend": 0.0, "ch": 7}, {"t": 172.337, "dur": 0.112, "note": 60, "inst": "piano_v0_additive_0", "vel": 1.0, "bend": 0.0, "ch": 12}, {"t": 172.337, "dur": 0.112, "note": 72, "inst": "piano_v0_additive_0", "vel": 1.0, "bend": 0.0, "ch": 8}, {"t": 172.45, "dur": 0.112, "note": 62, "inst": "celesta_v0_additive_3", "vel": 1.0, "bend": 0.0, "ch": 14}, {"t": 172.45, "dur": 0.112, "note": 74, "inst": "celesta_v0_additive_3", "vel": 1.0, "bend": 0.0, "ch": 10}, {"t": 172.562, "dur": 0.112, "note": 64, "inst": "organ_v0_additive_1", "vel": 1.0, "bend": 0.0, "ch": 0}, {"t": 172.562, "dur": 0.112, "note": 76, "inst": "organ_v0_additive_1", "vel": 1.0, "bend": 0.0, "ch": 12}, {"t": 172.674, "dur": 0.112, "note": 65, "inst": "celesta_v0_additive_3", "vel": 1.0, "bend": 0.0, "ch": 1}, {"t": 172.674, "dur": 0.112, "note": 77, "inst": "celesta_v0_additive_3", "vel": 1.0, "bend": 0.0, "ch": 13}, {"t": 172.786, "dur": 0.224, "note": 60, "inst": "piano_v0_additive_0", "vel": 1.0, "bend": 0.0, "ch": 12}, {"t": 172.786, "dur": 0.224, "note": 64, "inst": "organ_v0_additive_1", "vel": 1.0, "bend": 0.0, "ch": 0}, {"t": 172.786, "dur": 0.224, "note": 67, "inst": "organ_v0_additive_1", "vel": 1.0, "bend": 0.0, "ch": 3}, {"t": 172.786, "dur": 0.224, "note": 79, "inst": "organ_v0_additive_1", "vel": 1.0, "bend": 0.0, "ch": 15}, {"t": 173.011, "dur": 0.224, "note": 60, "inst": "piano_v0_additive_0", "vel": 1.0, "bend": 0.0, "ch": 12}, {"t": 173.011, "dur": 0.224, "note": 64, "inst": "organ_v0_additive_1", "vel": 1.0, "bend": 0.0, "ch": 0}, {"t": 173.011, "dur": 0.224, "note": 67, "inst": "organ_v0_additive_1", "vel": 1.0, "bend": 0.0, "ch": 3}, {"t": 173.011, "dur": 0.224, "note": 76, "inst": "organ_v0_additive_1", "vel": 1.0, "bend": 0.0, "ch": 12}, {"t": 173.235, "dur": 0.224, "note": 60, "inst": "piano_v0_additive_0", "vel": 1.0, "bend": 0.0, "ch": 12}, {"t": 173.235, "dur": 0.224, "note": 64, "inst": "organ_v0_additive_1", "vel": 1.0, "bend": 0.0, "ch": 0}, {"t": 173.235, "dur": 0.224, "note": 67, "inst": "organ_v0_additive_1", "vel": 1.0, "bend": 0.0, "ch": 3}, {"t": 173.235, "dur": 0.224, "note": 84, "inst": "piano_v0_additive_0", "vel": 1.0, "bend": 0.0, "ch": 4}, {"t": 173.46, "dur": 0.224, "note": 60, "inst": "piano_v0_additive_0", "vel": 1.0, "bend": 0.0, "ch": 12}, {"t": 173.46, "dur": 0.224, "note": 64, "inst": "organ_v0_additive_1", "vel": 1.0, "bend": 0.0, "ch": 0}, {"t": 173.46, "dur": 0.224, "note": 67, "inst": "organ_v0_additive_1", "vel": 1.0, "bend": 0.0, "ch": 3}, {"t": 173.46, "dur": 0.224, "note": 79, "inst": "organ_v0_additive_1", "vel": 1.0, "bend": 0.0, "ch": 15}, {"t": 173.684, "dur": 0.224, "note": 60, "inst": "piano_v0_additive_0", "vel": 1.0, "bend": 0.0, "ch": 12}, {"t": 173.684, "dur": 0.224, "note": 64, "inst": "organ_v0_additive_1", "vel": 1.0, "bend": 0.0, "ch": 0}, {"t": 173.684, "dur": 0.224, "note": 67, "inst": "organ_v0_additive_1", "vel": 1.0, "bend": 0.0, "ch": 3}, {"t": 173.684, "dur": 0.224, "note": 72, "inst": "piano_v0_additive_0", "vel": 1.0, "bend": 0.0, "ch": 8}, {"t": 173.684, "dur": 0.224, "note": 88, "inst": "organ_v0_additive_1", "vel": 1.0, "bend": 0.0, "ch": 8}, {"t": 173.909, "dur": 0.224, "note": 60, "inst": "piano_v0_additive_0", "vel": 1.0, "bend": 0.0, "ch": 12}, {"t": 173.909, "dur": 0.224, "note": 64, "inst": "organ_v0_additive_1", "vel": 1.0, "bend": 0.0, "ch": 0}, {"t": 173.909, "dur": 0.224, "note": 67, "inst": "organ_v0_additive_1", "vel": 1.0, "bend": 0.0, "ch": 3}, {"t": 173.909, "dur": 0.224, "note": 72, "inst": "piano_v0_additive_0", "vel": 1.0, "bend": 0.0, "ch": 8}, {"t": 173.909, "dur": 0.224, "note": 84, "inst": "piano_v0_additive_0", "vel": 1.0, "bend": 0.0, "ch": 4}, {"t": 174.133, "dur": 0.224, "note": 60, "inst": "piano_v0_additive_0", "vel": 1.0, "bend": 0.0, "ch": 12}, {"t": 174.133, "dur": 0.224, "note": 64, "inst": "organ_v0_additive_1", "vel": 1.0, "bend": 0.0, "ch": 0}, {"t": 174.133, "dur": 0.224, "note": 67, "inst": "organ_v0_additive_1", "vel": 1.0, "bend": 0.0, "ch": 3}, {"t": 174.133, "dur": 0.224, "note": 72, "inst": "piano_v0_additive_0", "vel": 1.0, "bend": 0.0, "ch": 8}, {"t": 174.133, "dur": 0.224, "note": 91, "inst": "organ_v0_additive_1", "vel": 1.0, "bend": 0.0, "ch": 11}, {"t": 174.358, "dur": 0.224, "note": 60, "inst": "piano_v0_additive_0", "vel": 1.0, "bend": 0.0, "ch": 12}, {"t": 174.358, "dur": 0.224, "note": 64, "inst": "organ_v0_additive_1", "vel": 1.0, "bend": 0.0, "ch": 0}, {"t": 174.358, "dur": 0.224, "note": 67, "inst": "organ_v0_additive_1", "vel": 1.0, "bend": 0.0, "ch": 3}, {"t": 174.358, "dur": 0.224, "note": 72, "inst": "piano_v0_additive_0", "vel": 1.0, "bend": 0.0, "ch": 8}, {"t": 174.358, "dur": 0.224, "note": 88, "inst": "organ_v0_additive_1", "vel": 1.0, "bend": 0.0, "ch": 8}, {"t": 174.582, "dur": 0.449, "note": 65, "inst": "celesta_v0_additive_3", "vel": 1.0, "bend": 0.0, "ch": 1}, {"t": 174.582, "dur": 0.449, "note": 69, "inst": "piano_v0_additive_0", "vel": 1.0, "bend": 0.0, "ch": 5}, {"t": 174.582, "dur": 0.449, "note": 72, "inst": "piano_v0_additive_0", "vel": 1.0, "bend": 0.0, "ch": 8}, {"t": 174.582, "dur": 0.449, "note": 81, "inst": "piano_v0_additive_0", "vel": 1.0, "bend": 0.0, "ch": 1}, {"t": 174.582, "dur": 0.449, "note": 93, "inst": "piano_v0_additive_0", "vel": 1.0, "bend": 0.0, "ch": 13}, {"t": 175.143, "dur": 0.112, "note": 60, "inst": "piano_v0_additive_0", "vel": 1.0, "bend": 0.0, "ch": 12}, {"t": 175.143, "dur": 0.112, "note": 72, "inst": "piano_v0_additive_0", "vel": 1.0, "bend": 0.0, "ch": 8}, {"t": 175.255, "dur": 0.112, "note": 62, "inst": "celesta_v0_additive_3", "vel": 1.0, "bend": 0.0, "ch": 14}, {"t": 175.255, "dur": 0.112, "note": 74, "inst": "celesta_v0_additive_3", "vel": 1.0, "bend": 0.0, "ch": 10}, {"t": 175.368, "dur": 0.112, "note": 64, "inst": "organ_v0_additive_1", "vel": 1.0, "bend": 0.0, "ch": 0}, {"t": 175.368, "dur": 0.112, "note": 76, "inst": "organ_v0_additive_1", "vel": 1.0, "bend": 0.0, "ch": 12}, {"t": 175.48, "dur": 0.112, "note": 65, "inst": "celesta_v0_additive_3", "vel": 1.0, "bend": 0.0, "ch": 1}, {"t": 175.48, "dur": 0.112, "note": 77, "inst": "celesta_v0_additive_3", "vel": 1.0, "bend": 0.0, "ch": 13}, {"t": 175.592, "dur": 0.112, "note": 60, "inst": "piano_v0_additive_0", "vel": 1.0, "bend": 0.0, "ch": 12}, {"t": 175.592, "dur": 0.112, "note": 72, "inst": "piano_v0_additive_0", "vel": 1.0, "bend": 0.0, "ch": 8}, {"t": 175.704, "dur": 0.112, "note": 62, "inst": "celesta_v0_additive_3", "vel": 1.0, "bend": 0.0, "ch": 14}, {"t": 175.704, "dur": 0.112, "note": 74, "inst": "celesta_v0_additive_3", "vel": 1.0, "bend": 0.0, "ch": 10}, {"t": 175.817, "dur": 0.112, "note": 64, "inst": "organ_v0_additive_1", "vel": 1.0, "bend": 0.0, "ch": 0}, {"t": 175.817, "dur": 0.112, "note": 76, "inst": "organ_v0_additive_1", "vel": 1.0, "bend": 0.0, "ch": 12}, {"t": 175.929, "dur": 0.112, "note": 65, "inst": "celesta_v0_additive_3", "vel": 1.0, "bend": 0.0, "ch": 1}, {"t": 175.929, "dur": 0.112, "note": 77, "inst": "celesta_v0_additive_3", "vel": 1.0, "bend": 0.0, "ch": 13}, {"t": 176.041, "dur": 0.112, "note": 67, "inst": "organ_v0_additive_1", "vel": 1.0, "bend": 0.0, "ch": 3}, {"t": 176.041, "dur": 0.112, "note": 79, "inst": "organ_v0_additive_1", "vel": 1.0, "bend": 0.0, "ch": 15}, {"t": 176.153, "dur": 0.112, "note": 69, "inst": "piano_v0_additive_0", "vel": 1.0, "bend": 0.0, "ch": 5}, {"t": 176.153, "dur": 0.112, "note": 81, "inst": "piano_v0_additive_0", "vel": 1.0, "bend": 0.0, "ch": 1}, {"t": 176.266, "dur": 0.112, "note": 69, "inst": "piano_v0_additive_0", "vel": 1.0, "bend": 0.0, "ch": 5}, {"t": 176.266, "dur": 0.112, "note": 81, "inst": "piano_v0_additive_0", "vel": 1.0, "bend": 0.0, "ch": 1}, {"t": 176.378, "dur": 0.224, "note": 65, "inst": "celesta_v0_additive_3", "vel": 1.0, "bend": 0.0, "ch": 1}, {"t": 176.378, "dur": 0.224, "note": 69, "inst": "piano_v0_additive_0", "vel": 1.0, "bend": 0.0, "ch": 5}, {"t": 176.378, "dur": 0.224, "note": 72, "inst": "piano_v0_additive_0", "vel": 1.0, "bend": 0.0, "ch": 8}, {"t": 176.378, "dur": 0.224, "note": 84, "inst": "piano_v0_additive_0", "vel": 1.0, "bend": 0.0, "ch": 4}, {"t": 176.602, "dur": 0.224, "note": 65, "inst": "celesta_v0_additive_3", "vel": 1.0, "bend": 0.0, "ch": 1}, {"t": 176.602, "dur": 0.224, "note": 69, "inst": "piano_v0_additive_0", "vel": 1.0, "bend": 0.0, "ch": 5}, {"t": 176.602, "dur": 0.224, "note": 72, "inst": "piano_v0_additive_0", "vel": 1.0, "bend": 0.0, "ch": 8}, {"t": 176.602, "dur": 0.224, "note": 77, "inst": "celesta_v0_additive_3", "vel": 1.0, "bend": 0.0, "ch": 13}, {"t": 176.602, "dur": 0.224, "note": 81, "inst": "piano_v0_additive_0", "vel": 1.0, "bend": 0.0, "ch": 1}, {"t": 176.827, "dur": 0.224, "note": 65, "inst": "celesta_v0_additive_3", "vel": 1.0, "bend": 0.0, "ch": 1}, {"t": 176.827, "dur": 0.224, "note": 69, "inst": "piano_v0_additive_0", "vel": 1.0, "bend": 0.0, "ch": 5}, {"t": 176.827, "dur": 0.224, "note": 72, "inst": "piano_v0_additive_0", "vel": 1.0, "bend": 0.0, "ch": 8}, {"t": 176.827, "dur": 0.224, "note": 77, "inst": "celesta_v0_additive_3", "vel": 1.0, "bend": 0.0, "ch": 13}, {"t": 176.827, "dur": 0.224, "note": 89, "inst": "celesta_v0_additive_3", "vel": 1.0, "bend": 0.0, "ch": 9}, {"t": 177.051, "dur": 0.224, "note": 65, "inst": "celesta_v0_additive_3", "vel": 1.0, "bend": 0.0, "ch": 1}, {"t": 177.051, "dur": 0.224, "note": 69, "inst": "piano_v0_additive_0", "vel": 1.0, "bend": 0.0, "ch": 5}, {"t": 177.051, "dur": 0.224, "note": 72, "inst": "piano_v0_additive_0", "vel": 1.0, "bend": 0.0, "ch": 8}, {"t": 177.051, "dur": 0.224, "note": 77, "inst": "celesta_v0_additive_3", "vel": 1.0, "bend": 0.0, "ch": 13}, {"t": 177.051, "dur": 0.224, "note": 84, "inst": "piano_v0_additive_0", "vel": 1.0, "bend": 0.0, "ch": 4}, {"t": 177.276, "dur": 0.224, "note": 65, "inst": "celesta_v0_additive_3", "vel": 1.0, "bend": 0.0, "ch": 1}, {"t": 177.276, "dur": 0.224, "note": 69, "inst": "piano_v0_additive_0", "vel": 1.0, "bend": 0.0, "ch": 5}, {"t": 177.276, "dur": 0.224, "note": 72, "inst": "piano_v0_additive_0", "vel": 1.0, "bend": 0.0, "ch": 8}, {"t": 177.276, "dur": 0.224, "note": 77, "inst": "celesta_v0_additive_3", "vel": 1.0, "bend": 0.0, "ch": 13}, {"t": 177.276, "dur": 0.224, "note": 93, "inst": "piano_v0_additive_0", "vel": 1.0, "bend": 0.0, "ch": 13}, {"t": 177.5, "dur": 0.224, "note": 65, "inst": "celesta_v0_additive_3", "vel": 1.0, "bend": 0.0, "ch": 1}, {"t": 177.5, "dur": 0.224, "note": 69, "inst": "piano_v0_additive_0", "vel": 1.0, "bend": 0.0, "ch": 5}, {"t": 177.5, "dur": 0.224, "note": 72, "inst": "piano_v0_additive_0", "vel": 1.0, "bend": 0.0, "ch": 8}, {"t": 177.5, "dur": 0.224, "note": 77, "inst": "celesta_v0_additive_3", "vel": 1.0, "bend": 0.0, "ch": 13}, {"t": 177.5, "dur": 0.224, "note": 89, "inst": "celesta_v0_additive_3", "vel": 1.0, "bend": 0.0, "ch": 9}, {"t": 177.725, "dur": 0.224, "note": 67, "inst": "organ_v0_additive_1", "vel": 1.0, "bend": 0.0, "ch": 3}, {"t": 177.725, "dur": 0.224, "note": 71, "inst": "celesta_v0_additive_3", "vel": 1.0, "bend": 0.0, "ch": 7}, {"t": 177.725, "dur": 0.224, "note": 74, "inst": "celesta_v0_additive_3", "vel": 1.0, "bend": 0.0, "ch": 10}, {"t": 177.725, "dur": 0.224, "note": 101, "inst": "celesta_v0_additive_3", "vel": 1.0, "bend": 0.0, "ch": 5}, {"t": 177.949, "dur": 0.224, "note": 67, "inst": "organ_v0_additive_1", "vel": 1.0, "bend": 0.0, "ch": 3}, {"t": 177.949, "dur": 0.224, "note": 71, "inst": "celesta_v0_additive_3", "vel": 1.0, "bend": 0.0, "ch": 7}, {"t": 177.949, "dur": 0.224, "note": 74, "inst": "celesta_v0_additive_3", "vel": 1.0, "bend": 0.0, "ch": 10}, {"t": 177.949, "dur": 0.224, "note": 95, "inst": "celesta_v0_additive_3", "vel": 1.0, "bend": 0.0, "ch": 15}, {"t": 178.173, "dur": 0.449, "note": 60, "inst": "piano_v0_additive_0", "vel": 1.0, "bend": 0.0, "ch": 12}, {"t": 178.173, "dur": 0.449, "note": 72, "inst": "piano_v0_additive_0", "vel": 1.0, "bend": 0.0, "ch": 8}, {"t": 178.173, "dur": 0.449, "note": 84, "inst": "piano_v0_additive_0", "vel": 1.0, "bend": 0.0, "ch": 4}, {"t": 178.173, "dur": 0.449, "note": 96, "inst": "piano_v0_additive_0", "vel": 1.0, "bend": 0.0, "ch": 0}, {"t": 178.735, "dur": 0.112, "note": 55, "inst": "organ_v0_additive_1", "vel": 1.0, "bend": 0.0, "ch": 7}, {"t": 178.735, "dur": 0.112, "note": 67, "inst": "organ_v0_additive_1", "vel": 1.0, "bend": 0.0, "ch": 3}, {"t": 178.847, "dur": 0.112, "note": 57, "inst": "piano_v0_additive_0", "vel": 1.0, "bend": 0.0, "ch": 9}, {"t": 178.847, "dur": 0.112, "note": 69, "inst": "piano_v0_additive_0", "vel": 1.0, "bend": 0.0, "ch": 5}, {"t": 178.959, "dur": 0.112, "note": 59, "inst": "celesta_v0_additive_3", "vel": 1.0, "bend": 0.0, "ch": 11}, {"t": 178.959, "dur": 0.112, "note": 71, "inst": "celesta_v0_additive_3", "vel": 1.0, "bend": 0.0, "ch": 7}, {"t": 179.071, "dur": 0.112, "note": 60, "inst": "piano_v0_additive_0", "vel": 1.0, "bend": 0.0, "ch": 12}, {"t": 179.071, "dur": 0.112, "note": 72, "inst": "piano_v0_additive_0", "vel": 1.0, "bend": 0.0, "ch": 8}, {"t": 179.184, "dur": 0.112, "note": 55, "inst": "organ_v0_additive_1", "vel": 1.0, "bend": 0.0, "ch": 7}, {"t": 179.184, "dur": 0.112, "note": 67, "inst": "organ_v0_additive_1", "vel": 1.0, "bend": 0.0, "ch": 3}, {"t": 179.296, "dur": 0.112, "note": 57, "inst": "piano_v0_additive_0", "vel": 1.0, "bend": 0.0, "ch": 9}, {"t": 179.296, "dur": 0.112, "note": 69, "inst": "piano_v0_additive_0", "vel": 1.0, "bend": 0.0, "ch": 5}, {"t": 179.408, "dur": 0.112, "note": 59, "inst": "celesta_v0_additive_3", "vel": 1.0, "bend": 0.0, "ch": 11}, {"t": 179.408, "dur": 0.112, "note": 71, "inst": "celesta_v0_additive_3", "vel": 1.0, "bend": 0.0, "ch": 7}, {"t": 179.52, "dur": 0.112, "note": 60, "inst": "piano_v0_additive_0", "vel": 1.0, "bend": 0.0, "ch": 12}, {"t": 179.52, "dur": 0.112, "note": 72, "inst": "piano_v0_additive_0", "vel": 1.0, "bend": 0.0, "ch": 8}, {"t": 179.633, "dur": 0.112, "note": 62, "inst": "celesta_v0_additive_3", "vel": 1.0, "bend": 0.0, "ch": 14}, {"t": 179.633, "dur": 0.112, "note": 74, "inst": "celesta_v0_additive_3", "vel": 1.0, "bend": 0.0, "ch": 10}, {"t": 179.745, "dur": 0.112, "note": 64, "inst": "organ_v0_additive_1", "vel": 1.0, "bend": 0.0, "ch": 0}, {"t": 179.745, "dur": 0.112, "note": 76, "inst": "organ_v0_additive_1", "vel": 1.0, "bend": 0.0, "ch": 12}, {"t": 179.857, "dur": 0.112, "note": 65, "inst": "celesta_v0_additive_3", "vel": 1.0, "bend": 0.0, "ch": 1}, {"t": 179.857, "dur": 0.112, "note": 77, "inst": "celesta_v0_additive_3", "vel": 1.0, "bend": 0.0, "ch": 13}, {"t": 179.969, "dur": 0.224, "note": 60, "inst": "piano_v0_additive_0", "vel": 1.0, "bend": 0.0, "ch": 12}, {"t": 179.969, "dur": 0.224, "note": 64, "inst": "organ_v0_additive_1", "vel": 1.0, "bend": 0.0, "ch": 0}, {"t": 179.969, "dur": 0.224, "note": 67, "inst": "organ_v0_additive_1", "vel": 1.0, "bend": 0.0, "ch": 3}, {"t": 179.969, "dur": 0.112, "note": 79, "inst": "organ_v0_additive_1", "vel": 1.0, "bend": 0.0, "ch": 15}, {"t": 180.081, "dur": 0.112, "note": 76, "inst": "organ_v0_additive_1", "vel": 1.0, "bend": 0.0, "ch": 12}, {"t": 180.194, "dur": 0.224, "note": 60, "inst": "piano_v0_additive_0", "vel": 1.0, "bend": 0.0, "ch": 12}, {"t": 180.194, "dur": 0.224, "note": 64, "inst": "organ_v0_additive_1", "vel": 1.0, "bend": 0.0, "ch": 0}, {"t": 180.194, "dur": 0.224, "note": 67, "inst": "organ_v0_additive_1", "vel": 1.0, "bend": 0.0, "ch": 3}, {"t": 180.194, "dur": 0.112, "note": 72, "inst": "piano_v0_additive_0", "vel": 1.0, "bend": 0.0, "ch": 8}, {"t": 180.306, "dur": 0.112, "note": 79, "inst": "organ_v0_additive_1", "vel": 1.0, "bend": 0.0, "ch": 15}, {"t": 180.418, "dur": 0.224, "note": 60, "inst": "piano_v0_additive_0", "vel": 1.0, "bend": 0.0, "ch": 12}, {"t": 180.418, "dur": 0.224, "note": 64, "inst": "organ_v0_additive_1", "vel": 1.0, "bend": 0.0, "ch": 0}, {"t": 180.418, "dur": 0.224, "note": 67, "inst": "organ_v0_additive_1", "vel": 1.0, "bend": 0.0, "ch": 3}, {"t": 180.418, "dur": 0.112, "note": 84, "inst": "piano_v0_additive_0", "vel": 1.0, "bend": 0.0, "ch": 4}, {"t": 180.53, "dur": 0.112, "note": 79, "inst": "organ_v0_additive_1", "vel": 1.0, "bend": 0.0, "ch": 15}, {"t": 180.643, "dur": 0.224, "note": 60, "inst": "piano_v0_additive_0", "vel": 1.0, "bend": 0.0, "ch": 12}, {"t": 180.643, "dur": 0.224, "note": 64, "inst": "organ_v0_additive_1", "vel": 1.0, "bend": 0.0, "ch": 0}, {"t": 180.643, "dur": 0.224, "note": 67, "inst": "organ_v0_additive_1", "vel": 1.0, "bend": 0.0, "ch": 3}, {"t": 180.643, "dur": 0.112, "note": 76, "inst": "organ_v0_additive_1", "vel": 1.0, "bend": 0.0, "ch": 12}, {"t": 180.755, "dur": 0.112, "note": 84, "inst": "piano_v0_additive_0", "vel": 1.0, "bend": 0.0, "ch": 4}, {"t": 180.867, "dur": 0.224, "note": 60, "inst": "piano_v0_additive_0", "vel": 1.0, "bend": 0.0, "ch": 12}, {"t": 180.867, "dur": 0.224, "note": 64, "inst": "organ_v0_additive_1", "vel": 1.0, "bend": 0.0, "ch": 0}, {"t": 180.867, "dur": 0.224, "note": 67, "inst": "organ_v0_additive_1", "vel": 1.0, "bend": 0.0, "ch": 3}, {"t": 180.867, "dur": 0.224, "note": 72, "inst": "piano_v0_additive_0", "vel": 1.0, "bend": 0.0, "ch": 8}, {"t": 180.867, "dur": 0.112, "note": 88, "inst": "organ_v0_additive_1", "vel": 1.0, "bend": 0.0, "ch": 8}, {"t": 180.979, "dur": 0.112, "note": 84, "inst": "piano_v0_additive_0", "vel": 1.0, "bend": 0.0, "ch": 4}, {"t": 181.092, "dur": 0.224, "note": 60, "inst": "piano_v0_additive_0", "vel": 1.0, "bend": 0.0, "ch": 12}, {"t": 181.092, "dur": 0.224, "note": 64, "inst": "organ_v0_additive_1", "vel": 1.0, "bend": 0.0, "ch": 0}, {"t": 181.092, "dur": 0.224, "note": 67, "inst": "organ_v0_additive_1", "vel": 1.0, "bend": 0.0, "ch": 3}, {"t": 181.092, "dur": 0.224, "note": 72, "inst": "piano_v0_additive_0", "vel": 1.0, "bend": 0.0, "ch": 8}, {"t": 181.092, "dur": 0.112, "note": 79, "inst": "organ_v0_additive_1", "vel": 1.0, "bend": 0.0, "ch": 15}, {"t": 181.204, "dur": 0.112, "note": 88, "inst": "organ_v0_additive_1", "vel": 1.0, "bend": 0.0, "ch": 8}, {"t": 181.316, "dur": 0.224, "note": 60, "inst": "piano_v0_additive_0", "vel": 1.0, "bend": 0.0, "ch": 12}, {"t": 181.316, "dur": 0.224, "note": 64, "inst": "organ_v0_additive_1", "vel": 1.0, "bend": 0.0, "ch": 0}, {"t": 181.316, "dur": 0.224, "note": 67, "inst": "organ_v0_additive_1", "vel": 1.0, "bend": 0.0, "ch": 3}, {"t": 181.316, "dur": 0.224, "note": 72, "inst": "piano_v0_additive_0", "vel": 1.0, "bend": 0.0, "ch": 8}, {"t": 181.316, "dur": 0.112, "note": 91, "inst": "organ_v0_additive_1", "vel": 1.0, "bend": 0.0, "ch": 11}, {"t": 181.428, "dur": 0.112, "note": 88, "inst": "organ_v0_additive_1", "vel": 1.0, "bend": 0.0, "ch": 8}, {"t": 181.54, "dur": 0.224, "note": 60, "inst": "piano_v0_additive_0", "vel": 1.0, "bend": 0.0, "ch": 12}, {"t": 181.54, "dur": 0.224, "note": 64, "inst": "organ_v0_additive_1", "vel": 1.0, "bend": 0.0, "ch": 0}, {"t": 181.54, "dur": 0.224, "note": 67, "inst": "organ_v0_additive_1", "vel": 1.0, "bend": 0.0, "ch": 3}, {"t": 181.54, "dur": 0.224, "note": 72, "inst": "piano_v0_additive_0", "vel": 1.0, "bend": 0.0, "ch": 8}, {"t": 181.54, "dur": 0.112, "note": 84, "inst": "piano_v0_additive_0", "vel": 1.0, "bend": 0.0, "ch": 4}, {"t": 181.653, "dur": 0.112, "note": 91, "inst": "organ_v0_additive_1", "vel": 1.0, "bend": 0.0, "ch": 11}, {"t": 181.765, "dur": 0.449, "note": 65, "inst": "celesta_v0_additive_3", "vel": 1.0, "bend": 0.0, "ch": 1}, {"t": 181.765, "dur": 0.449, "note": 69, "inst": "piano_v0_additive_0", "vel": 1.0, "bend": 0.0, "ch": 5}, {"t": 181.765, "dur": 0.449, "note": 72, "inst": "piano_v0_additive_0", "vel": 1.0, "bend": 0.0, "ch": 8}, {"t": 181.765, "dur": 0.449, "note": 81, "inst": "piano_v0_additive_0", "vel": 1.0, "bend": 0.0, "ch": 1}, {"t": 181.765, "dur": 0.449, "note": 84, "inst": "piano_v0_additive_0", "vel": 1.0, "bend": 0.0, "ch": 4}, {"t": 181.765, "dur": 0.449, "note": 89, "inst": "celesta_v0_additive_3", "vel": 1.0, "bend": 0.0, "ch": 9}, {"t": 181.765, "dur": 0.449, "note": 93, "inst": "piano_v0_additive_0", "vel": 1.0, "bend": 0.0, "ch": 13}, {"t": 182.326, "dur": 0.112, "note": 60, "inst": "piano_v0_additive_0", "vel": 1.0, "bend": 0.0, "ch": 12}, {"t": 182.326, "dur": 0.112, "note": 72, "inst": "piano_v0_additive_0", "vel": 1.0, "bend": 0.0, "ch": 8}, {"t": 182.438, "dur": 0.112, "note": 62, "inst": "celesta_v0_additive_3", "vel": 1.0, "bend": 0.0, "ch": 14}, {"t": 182.438, "dur": 0.112, "note": 74, "inst": "celesta_v0_additive_3", "vel": 1.0, "bend": 0.0, "ch": 10}, {"t": 182.551, "dur": 0.112, "note": 64, "inst": "organ_v0_additive_1", "vel": 1.0, "bend": 0.0, "ch": 0}, {"t": 182.551, "dur": 0.112, "note": 76, "inst": "organ_v0_additive_1", "vel": 1.0, "bend": 0.0, "ch": 12}, {"t": 182.663, "dur": 0.112, "note": 65, "inst": "celesta_v0_additive_3", "vel": 1.0, "bend": 0.0, "ch": 1}, {"t": 182.663, "dur": 0.112, "note": 77, "inst": "celesta_v0_additive_3", "vel": 1.0, "bend": 0.0, "ch": 13}, {"t": 182.775, "dur": 0.112, "note": 60, "inst": "piano_v0_additive_0", "vel": 1.0, "bend": 0.0, "ch": 12}, {"t": 182.775, "dur": 0.112, "note": 72, "inst": "piano_v0_additive_0", "vel": 1.0, "bend": 0.0, "ch": 8}, {"t": 182.887, "dur": 0.112, "note": 62, "inst": "celesta_v0_additive_3", "vel": 1.0, "bend": 0.0, "ch": 14}, {"t": 182.887, "dur": 0.112, "note": 74, "inst": "celesta_v0_additive_3", "vel": 1.0, "bend": 0.0, "ch": 10}, {"t": 183.0, "dur": 0.112, "note": 64, "inst": "organ_v0_additive_1", "vel": 1.0, "bend": 0.0, "ch": 0}, {"t": 183.0, "dur": 0.112, "note": 76, "inst": "organ_v0_additive_1", "vel": 1.0, "bend": 0.0, "ch": 12}, {"t": 183.112, "dur": 0.112, "note": 65, "inst": "celesta_v0_additive_3", "vel": 1.0, "bend": 0.0, "ch": 1}, {"t": 183.112, "dur": 0.112, "note": 77, "inst": "celesta_v0_additive_3", "vel": 1.0, "bend": 0.0, "ch": 13}, {"t": 183.224, "dur": 0.112, "note": 67, "inst": "organ_v0_additive_1", "vel": 1.0, "bend": 0.0, "ch": 3}, {"t": 183.224, "dur": 0.112, "note": 79, "inst": "organ_v0_additive_1", "vel": 1.0, "bend": 0.0, "ch": 15}, {"t": 183.336, "dur": 0.112, "note": 69, "inst": "piano_v0_additive_0", "vel": 1.0, "bend": 0.0, "ch": 5}, {"t": 183.336, "dur": 0.112, "note": 81, "inst": "piano_v0_additive_0", "vel": 1.0, "bend": 0.0, "ch": 1}, {"t": 183.448, "dur": 0.112, "note": 69, "inst": "piano_v0_additive_0", "vel": 1.0, "bend": 0.0, "ch": 5}, {"t": 183.448, "dur": 0.112, "note": 81, "inst": "piano_v0_additive_0", "vel": 1.0, "bend": 0.0, "ch": 1}, {"t": 183.561, "dur": 0.224, "note": 65, "inst": "celesta_v0_additive_3", "vel": 1.0, "bend": 0.0, "ch": 1}, {"t": 183.561, "dur": 0.224, "note": 69, "inst": "piano_v0_additive_0", "vel": 1.0, "bend": 0.0, "ch": 5}, {"t": 183.561, "dur": 0.224, "note": 72, "inst": "piano_v0_additive_0", "vel": 1.0, "bend": 0.0, "ch": 8}, {"t": 183.561, "dur": 0.112, "note": 84, "inst": "piano_v0_additive_0", "vel": 1.0, "bend": 0.0, "ch": 4}, {"t": 183.673, "dur": 0.112, "note": 81, "inst": "piano_v0_additive_0", "vel": 1.0, "bend": 0.0, "ch": 1}, {"t": 183.785, "dur": 0.224, "note": 65, "inst": "celesta_v0_additive_3", "vel": 1.0, "bend": 0.0, "ch": 1}, {"t": 183.785, "dur": 0.224, "note": 69, "inst": "piano_v0_additive_0", "vel": 1.0, "bend": 0.0, "ch": 5}, {"t": 183.785, "dur": 0.224, "note": 72, "inst": "piano_v0_additive_0", "vel": 1.0, "bend": 0.0, "ch": 8}, {"t": 183.785, "dur": 0.112, "note": 77, "inst": "celesta_v0_additive_3", "vel": 1.0, "bend": 0.0, "ch": 13}, {"t": 183.897, "dur": 0.112, "note": 84, "inst": "piano_v0_additive_0", "vel": 1.0, "bend": 0.0, "ch": 4}, {"t": 184.01, "dur": 0.224, "note": 65, "inst": "celesta_v0_additive_3", "vel": 1.0, "bend": 0.0, "ch": 1}, {"t": 184.01, "dur": 0.224, "note": 69, "inst": "piano_v0_additive_0", "vel": 1.0, "bend": 0.0, "ch": 5}, {"t": 184.01, "dur": 0.224, "note": 72, "inst": "piano_v0_additive_0", "vel": 1.0, "bend": 0.0, "ch": 8}, {"t": 184.01, "dur": 0.112, "note": 89, "inst": "celesta_v0_additive_3", "vel": 1.0, "bend": 0.0, "ch": 9}, {"t": 184.122, "dur": 0.112, "note": 84, "inst": "piano_v0_additive_0", "vel": 1.0, "bend": 0.0, "ch": 4}, {"t": 184.234, "dur": 0.224, "note": 65, "inst": "celesta_v0_additive_3", "vel": 1.0, "bend": 0.0, "ch": 1}, {"t": 184.234, "dur": 0.224, "note": 69, "inst": "piano_v0_additive_0", "vel": 1.0, "bend": 0.0, "ch": 5}, {"t": 184.234, "dur": 0.224, "note": 72, "inst": "piano_v0_additive_0", "vel": 1.0, "bend": 0.0, "ch": 8}, {"t": 184.234, "dur": 0.112, "note": 81, "inst": "piano_v0_additive_0", "vel": 1.0, "bend": 0.0, "ch": 1}, {"t": 184.346, "dur": 0.112, "note": 89, "inst": "celesta_v0_additive_3", "vel": 1.0, "bend": 0.0, "ch": 9}, {"t": 184.459, "dur": 0.224, "note": 65, "inst": "celesta_v0_additive_3", "vel": 1.0, "bend": 0.0, "ch": 1}, {"t": 184.459, "dur": 0.224, "note": 69, "inst": "piano_v0_additive_0", "vel": 1.0, "bend": 0.0, "ch": 5}, {"t": 184.459, "dur": 0.224, "note": 72, "inst": "piano_v0_additive_0", "vel": 1.0, "bend": 0.0, "ch": 8}, {"t": 184.459, "dur": 0.224, "note": 77, "inst": "celesta_v0_additive_3", "vel": 1.0, "bend": 0.0, "ch": 13}, {"t": 184.459, "dur": 0.112, "note": 93, "inst": "piano_v0_additive_0", "vel": 1.0, "bend": 0.0, "ch": 13}, {"t": 184.571, "dur": 0.112, "note": 89, "inst": "celesta_v0_additive_3", "vel": 1.0, "bend": 0.0, "ch": 9}, {"t": 184.683, "dur": 0.224, "note": 65, "inst": "celesta_v0_additive_3", "vel": 1.0, "bend": 0.0, "ch": 1}, {"t": 184.683, "dur": 0.224, "note": 69, "inst": "piano_v0_additive_0", "vel": 1.0, "bend": 0.0, "ch": 5}, {"t": 184.683, "dur": 0.224, "note": 72, "inst": "piano_v0_additive_0", "vel": 1.0, "bend": 0.0, "ch": 8}, {"t": 184.683, "dur": 0.224, "note": 77, "inst": "celesta_v0_additive_3", "vel": 1.0, "bend": 0.0, "ch": 13}, {"t": 184.683, "dur": 0.112, "note": 84, "inst": "piano_v0_additive_0", "vel": 1.0, "bend": 0.0, "ch": 4}, {"t": 184.795, "dur": 0.112, "note": 93, "inst": "piano_v0_additive_0", "vel": 1.0, "bend": 0.0, "ch": 13}, {"t": 184.907, "dur": 0.224, "note": 67, "inst": "organ_v0_additive_1", "vel": 1.0, "bend": 0.0, "ch": 3}, {"t": 184.907, "dur": 0.224, "note": 71, "inst": "celesta_v0_additive_3", "vel": 1.0, "bend": 0.0, "ch": 7}, {"t": 184.907, "dur": 0.224, "note": 74, "inst": "celesta_v0_additive_3", "vel": 1.0, "bend": 0.0, "ch": 10}, {"t": 184.907, "dur": 0.112, "note": 89, "inst": "celesta_v0_additive_3", "vel": 1.0, "bend": 0.0, "ch": 9}, {"t": 185.02, "dur": 0.112, "note": 101, "inst": "celesta_v0_additive_3", "vel": 1.0, "bend": 0.0, "ch": 5}, {"t": 185.132, "dur": 0.224, "note": 67, "inst": "organ_v0_additive_1", "vel": 1.0, "bend": 0.0, "ch": 3}, {"t": 185.132, "dur": 0.224, "note": 71, "inst": "celesta_v0_additive_3", "vel": 1.0, "bend": 0.0, "ch": 7}, {"t": 185.132, "dur": 0.224, "note": 74, "inst": "celesta_v0_additive_3", "vel": 1.0, "bend": 0.0, "ch": 10}, {"t": 185.132, "dur": 0.112, "note": 98, "inst": "celesta_v0_additive_3", "vel": 1.0, "bend": 0.0, "ch": 2}, {"t": 185.244, "dur": 0.112, "note": 95, "inst": "celesta_v0_additive_3", "vel": 1.0, "bend": 0.0, "ch": 15}, {"t": 185.356, "dur": 0.449, "note": 60, "inst": "piano_v0_additive_0", "vel": 1.0, "bend": 0.0, "ch": 12}, {"t": 185.356, "dur": 0.449, "note": 72, "inst": "piano_v0_additive_0", "vel": 1.0, "bend": 0.0, "ch": 8}, {"t": 185.356, "dur": 0.449, "note": 96, "inst": "piano_v0_additive_0", "vel": 1.0, "bend": 0.0, "ch": 0}, {"t": 186.254, "dur": 0.15, "note": 72, "inst": "piano_v0_additive_0", "vel": 1.0, "bend": 0.0, "ch": 8}, {"t": 186.254, "dur": 0.224, "note": 88, "inst": "organ_v0_additive_1", "vel": 1.0, "bend": 0.0, "ch": 8}, {"t": 186.404, "dur": 0.15, "note": 76, "inst": "organ_v0_additive_1", "vel": 1.0, "bend": 0.0, "ch": 12}, {"t": 186.479, "dur": 0.112, "note": 89, "inst": "celesta_v0_additive_3", "vel": 1.0, "bend": 0.0, "ch": 9}, {"t": 186.554, "dur": 0.15, "note": 79, "inst": "organ_v0_additive_1", "vel": 1.0, "bend": 0.0, "ch": 15}, {"t": 186.591, "dur": 0.112, "note": 88, "inst": "organ_v0_additive_1", "vel": 1.0, "bend": 0.0, "ch": 8}, {"t": 186.703, "dur": 0.15, "note": 71, "inst": "celesta_v0_additive_3", "vel": 1.0, "bend": 0.0, "ch": 7}, {"t": 186.703, "dur": 0.224, "note": 91, "inst": "organ_v0_additive_1", "vel": 1.0, "bend": 0.0, "ch": 11}, {"t": 186.853, "dur": 0.15, "note": 74, "inst": "celesta_v0_additive_3", "vel": 1.0, "bend": 0.0, "ch": 10}, {"t": 186.928, "dur": 0.112, "note": 93, "inst": "piano_v0_additive_0", "vel": 1.0, "bend": 0.0, "ch": 13}, {"t": 187.003, "dur": 0.15, "note": 79, "inst": "organ_v0_additive_1", "vel": 1.0, "bend": 0.0, "ch": 15}, {"t": 187.04, "dur": 0.112, "note": 91, "inst": "organ_v0_additive_1", "vel": 1.0, "bend": 0.0, "ch": 11}, {"t": 187.152, "dur": 0.15, "note": 72, "inst": "piano_v0_additive_0", "vel": 1.0, "bend": 0.0, "ch": 8}, {"t": 187.152, "dur": 0.224, "note": 88, "inst": "organ_v0_additive_1", "vel": 1.0, "bend": 0.0, "ch": 8}, {"t": 187.302, "dur": 0.15, "note": 76, "inst": "organ_v0_additive_1", "vel": 1.0, "bend": 0.0, "ch": 12}, {"t": 187.377, "dur": 0.112, "note": 89, "inst": "celesta_v0_additive_3", "vel": 1.0, "bend": 0.0, "ch": 9}, {"t": 187.451, "dur": 0.15, "note": 79, "inst": "organ_v0_additive_1", "vel": 1.0, "bend": 0.0, "ch": 15}, {"t": 187.489, "dur": 0.112, "note": 88, "inst": "organ_v0_additive_1", "vel": 1.0, "bend": 0.0, "ch": 8}, {"t": 187.601, "dur": 0.15, "note": 71, "inst": "celesta_v0_additive_3", "vel": 1.0, "bend": 0.0, "ch": 7}, {"t": 187.601, "dur": 0.224, "note": 91, "inst": "organ_v0_additive_1", "vel": 1.0, "bend": 0.0, "ch": 11}, {"t": 187.751, "dur": 0.15, "note": 74, "inst": "celesta_v0_additive_3", "vel": 1.0, "bend": 0.0, "ch": 10}, {"t": 187.826, "dur": 0.112, "note": 93, "inst": "piano_v0_additive_0", "vel": 1.0, "bend": 0.0, "ch": 13}, {"t": 187.9, "dur": 0.15, "note": 79, "inst": "organ_v0_additive_1", "vel": 1.0, "bend": 0.0, "ch": 15}, {"t": 187.938, "dur": 0.112, "note": 91, "inst": "organ_v0_additive_1", "vel": 1.0, "bend": 0.0, "ch": 11}, {"t": 188.05, "dur": 0.15, "note": 69, "inst": "piano_v0_additive_0", "vel": 1.0, "bend": 0.0, "ch": 5}, {"t": 188.05, "dur": 0.224, "note": 84, "inst": "piano_v0_additive_0", "vel": 1.0, "bend": 0.0, "ch": 4}, {"t": 188.2, "dur": 0.15, "note": 72, "inst": "piano_v0_additive_0", "vel": 1.0, "bend": 0.0, "ch": 8}, {"t": 188.274, "dur": 0.112, "note": 86, "inst": "celesta_v0_additive_3", "vel": 1.0, "bend": 0.0, "ch": 6}, {"t": 188.349, "dur": 0.15, "note": 76, "inst": "organ_v0_additive_1", "vel": 1.0, "bend": 0.0, "ch": 12}, {"t": 188.387, "dur": 0.112, "note": 84, "inst": "piano_v0_additive_0", "vel": 1.0, "bend": 0.0, "ch": 4}, {"t": 188.499, "dur": 0.15, "note": 67, "inst": "organ_v0_additive_1", "vel": 1.0, "bend": 0.0, "ch": 3}, {"t": 188.499, "dur": 0.224, "note": 88, "inst": "organ_v0_additive_1", "vel": 1.0, "bend": 0.0, "ch": 8}, {"t": 188.649, "dur": 0.15, "note": 71, "inst": "celesta_v0_additive_3", "vel": 1.0, "bend": 0.0, "ch": 7}, {"t": 188.723, "dur": 0.112, "note": 89, "inst": "celesta_v0_additive_3", "vel": 1.0, "bend": 0.0, "ch": 9}, {"t": 188.798, "dur": 0.15, "note": 76, "inst": "organ_v0_additive_1", "vel": 1.0, "bend": 0.0, "ch": 12}, {"t": 188.836, "dur": 0.112, "note": 88, "inst": "organ_v0_additive_1", "vel": 1.0, "bend": 0.0, "ch": 8}, {"t": 188.948, "dur": 0.15, "note": 69, "inst": "piano_v0_additive_0", "vel": 1.0, "bend": 0.0, "ch": 5}, {"t": 188.948, "dur": 0.224, "note": 84, "inst": "piano_v0_additive_0", "vel": 1.0, "bend": 0.0, "ch": 4}, {"t": 189.098, "dur": 0.15, "note": 72, "inst": "piano_v0_additive_0", "vel": 1.0, "bend": 0.0, "ch": 8}, {"t": 189.172, "dur": 0.112, "note": 86, "inst": "celesta_v0_additive_3", "vel": 1.0, "bend": 0.0, "ch": 6}, {"t": 189.247, "dur": 0.15, "note": 76, "inst": "organ_v0_additive_1", "vel": 1.0, "bend": 0.0, "ch": 12}, {"t": 189.285, "dur": 0.112, "note": 84, "inst": "piano_v0_additive_0", "vel": 1.0, "bend": 0.0, "ch": 4}, {"t": 189.397, "dur": 0.15, "note": 67, "inst": "organ_v0_additive_1", "vel": 1.0, "bend": 0.0, "ch": 3}, {"t": 189.397, "dur": 0.224, "note": 88, "inst": "organ_v0_additive_1", "vel": 1.0, "bend": 0.0, "ch": 8}, {"t": 189.546, "dur": 0.15, "note": 71, "inst": "celesta_v0_additive_3", "vel": 1.0, "bend": 0.0, "ch": 7}, {"t": 189.621, "dur": 0.112, "note": 89, "inst": "celesta_v0_additive_3", "vel": 1.0, "bend": 0.0, "ch": 9}, {"t": 189.696, "dur": 0.15, "note": 76, "inst": "organ_v0_additive_1", "vel": 1.0, "bend": 0.0, "ch": 12}, {"t": 189.734, "dur": 0.112, "note": 88, "inst": "organ_v0_additive_1", "vel": 1.0, "bend": 0.0, "ch": 8}, {"t": 189.846, "dur": 0.15, "note": 69, "inst": "piano_v0_additive_0", "vel": 1.0, "bend": 0.0, "ch": 5}, {"t": 189.846, "dur": 0.224, "note": 84, "inst": "piano_v0_additive_0", "vel": 1.0, "bend": 0.0, "ch": 4}, {"t": 189.995, "dur": 0.15, "note": 72, "inst": "piano_v0_additive_0", "vel": 1.0, "bend": 0.0, "ch": 8}, {"t": 190.07, "dur": 0.112, "note": 86, "inst": "celesta_v0_additive_3", "vel": 1.0, "bend": 0.0, "ch": 6}, {"t": 190.145, "dur": 0.15, "note": 76, "inst": "organ_v0_additive_1", "vel": 1.0, "bend": 0.0, "ch": 12}, {"t": 190.182, "dur": 0.112, "note": 84, "inst": "piano_v0_additive_0", "vel": 1.0, "bend": 0.0, "ch": 4}, {"t": 190.295, "dur": 0.15, "note": 65, "inst": "celesta_v0_additive_3", "vel": 1.0, "bend": 0.0, "ch": 1}, {"t": 190.295, "dur": 0.224, "note": 86, "inst": "celesta_v0_additive_3", "vel": 1.0, "bend": 0.0, "ch": 6}, {"t": 190.444, "dur": 0.15, "note": 69, "inst": "piano_v0_additive_0", "vel": 1.0, "bend": 0.0, "ch": 5}, {"t": 190.519, "dur": 0.112, "note": 88, "inst": "organ_v0_additive_1", "vel": 1.0, "bend": 0.0, "ch": 8}, {"t": 190.594, "dur": 0.15, "note": 74, "inst": "celesta_v0_additive_3", "vel": 1.0, "bend": 0.0, "ch": 10}, {"t": 190.631, "dur": 0.112, "note": 86, "inst": "celesta_v0_additive_3", "vel": 1.0, "bend": 0.0, "ch": 6}, {"t": 190.744, "dur": 0.112, "note": 67, "inst": "organ_v0_additive_1", "vel": 1.0, "bend": 0.0, "ch": 3}, {"t": 190.744, "dur": 0.224, "note": 83, "inst": "celesta_v0_additive_3", "vel": 1.0, "bend": 0.0, "ch": 3}, {"t": 190.856, "dur": 0.112, "note": 71, "inst": "celesta_v0_additive_3", "vel": 1.0, "bend": 0.0, "ch": 7}, {"t": 190.968, "dur": 0.112, "note": 74, "inst": "celesta_v0_additive_3", "vel": 1.0, "bend": 0.0, "ch": 10}, {"t": 190.968, "dur": 0.112, "note": 84, "inst": "piano_v0_additive_0", "vel": 1.0, "bend": 0.0, "ch": 4}, {"t": 191.08, "dur": 0.112, "note": 71, "inst": "celesta_v0_additive_3", "vel": 1.0, "bend": 0.0, "ch": 7}, {"t": 191.08, "dur": 0.112, "note": 83, "inst": "celesta_v0_additive_3", "vel": 1.0, "bend": 0.0, "ch": 3}, {"t": 191.193, "dur": 0.112, "note": 65, "inst": "celesta_v0_additive_3", "vel": 1.0, "bend": 0.0, "ch": 1}, {"t": 191.193, "dur": 0.224, "note": 86, "inst": "celesta_v0_additive_3", "vel": 1.0, "bend": 0.0, "ch": 6}, {"t": 191.305, "dur": 0.112, "note": 69, "inst": "piano_v0_additive_0", "vel": 1.0, "bend": 0.0, "ch": 5}, {"t": 191.417, "dur": 0.112, "note": 74, "inst": "celesta_v0_additive_3", "vel": 1.0, "bend": 0.0, "ch": 10}, {"t": 191.417, "dur": 0.112, "note": 88, "inst": "organ_v0_additive_1", "vel": 1.0, "bend": 0.0, "ch": 8}, {"t": 191.529, "dur": 0.112, "note": 69, "inst": "piano_v0_additive_0", "vel": 1.0, "bend": 0.0, "ch": 5}, {"t": 191.529, "dur": 0.112, "note": 86, "inst": "celesta_v0_additive_3", "vel": 1.0, "bend": 0.0, "ch": 6}, {"t": 191.641, "dur": 0.112, "note": 64, "inst": "organ_v0_additive_1", "vel": 1.0, "bend": 0.0, "ch": 0}, {"t": 191.641, "dur": 0.224, "note": 79, "inst": "organ_v0_additive_1", "vel": 1.0, "bend": 0.0, "ch": 15}, {"t": 191.754, "dur": 0.112, "note": 67, "inst": "organ_v0_additive_1", "vel": 1.0, "bend": 0.0, "ch": 3}, {"t": 191.866, "dur": 0.112, "note": 71, "inst": "celesta_v0_additive_3", "vel": 1.0, "bend": 0.0, "ch": 7}, {"t": 191.866, "dur": 0.112, "note": 81, "inst": "piano_v0_additive_0", "vel": 1.0, "bend": 0.0, "ch": 1}, {"t": 191.978, "dur": 0.112, "note": 67, "inst": "organ_v0_additive_1", "vel": 1.0, "bend": 0.0, "ch": 3}, {"t": 191.978, "dur": 0.112, "note": 79, "inst": "organ_v0_additive_1", "vel": 1.0, "bend": 0.0, "ch": 15}, {"t": 192.09, "dur": 0.112, "note": 62, "inst": "celesta_v0_additive_3", "vel": 1.0, "bend": 0.0, "ch": 14}, {"t": 192.09, "dur": 0.449, "note": 83, "inst": "celesta_v0_additive_3", "vel": 1.0, "bend": 0.0, "ch": 3}, {"t": 192.203, "dur": 0.112, "note": 65, "inst": "celesta_v0_additive_3", "vel": 1.0, "bend": 0.0, "ch": 1}, {"t": 192.315, "dur": 0.112, "note": 71, "inst": "celesta_v0_additive_3", "vel": 1.0, "bend": 0.0, "ch": 7}, {"t": 192.427, "dur": 0.112, "note": 65, "inst": "celesta_v0_additive_3", "vel": 1.0, "bend": 0.0, "ch": 1}, {"t": 192.539, "dur": 0.112, "note": 60, "inst": "piano_v0_additive_0", "vel": 1.0, "bend": 0.0, "ch": 12}, {"t": 192.539, "dur": 0.224, "note": 76, "inst": "organ_v0_additive_1", "vel": 1.0, "bend": 0.0, "ch": 12}, {"t": 192.652, "dur": 0.112, "note": 64, "inst": "organ_v0_additive_1", "vel": 1.0, "bend": 0.0, "ch": 0}, {"t": 192.764, "dur": 0.112, "note": 67, "inst": "organ_v0_additive_1", "vel": 1.0, "bend": 0.0, "ch": 3}, {"t": 192.764, "dur": 0.112, "note": 77, "inst": "celesta_v0_additive_3", "vel": 1.0, "bend": 0.0, "ch": 13}, {"t": 192.876, "dur": 0.112, "note": 64, "inst": "organ_v0_additive_1", "vel": 1.0, "bend": 0.0, "ch": 0}, {"t": 192.876, "dur": 0.112, "note": 76, "inst": "organ_v0_additive_1", "vel": 1.0, "bend": 0.0, "ch": 12}, {"t": 192.988, "dur": 0.112, "note": 59, "inst": "celesta_v0_additive_3", "vel": 1.0, "bend": 0.0, "ch": 11}, {"t": 192.988, "dur": 0.224, "note": 79, "inst": "organ_v0_additive_1", "vel": 1.0, "bend": 0.0, "ch": 15}, {"t": 193.101, "dur": 0.112, "note": 62, "inst": "celesta_v0_additive_3", "vel": 1.0, "bend": 0.0, "ch": 14}, {"t": 193.213, "dur": 0.112, "note": 67, "inst": "organ_v0_additive_1", "vel": 1.0, "bend": 0.0, "ch": 3}, {"t": 193.213, "dur": 0.112, "note": 81, "inst": "piano_v0_additive_0", "vel": 1.0, "bend": 0.0, "ch": 1}, {"t": 193.325, "dur": 0.112, "note": 62, "inst": "celesta_v0_additive_3", "vel": 1.0, "bend": 0.0, "ch": 14}, {"t": 193.325, "dur": 0.112, "note": 79, "inst": "organ_v0_additive_1", "vel": 1.0, "bend": 0.0, "ch": 15}, {"t": 193.437, "dur": 0.112, "note": 57, "inst": "piano_v0_additive_0", "vel": 1.0, "bend": 0.0, "ch": 9}, {"t": 193.437, "dur": 0.224, "note": 81, "inst": "piano_v0_additive_0", "vel": 1.0, "bend": 0.0, "ch": 1}, {"t": 193.549, "dur": 0.112, "note": 62, "inst": "celesta_v0_additive_3", "vel": 1.0, "bend": 0.0, "ch": 14}, {"t": 193.662, "dur": 0.112, "note": 65, "inst": "celesta_v0_additive_3", "vel": 1.0, "bend": 0.0, "ch": 1}, {"t": 193.662, "dur": 0.112, "note": 83, "inst": "celesta_v0_additive_3", "vel": 1.0, "bend": 0.0, "ch": 3}, {"t": 193.774, "dur": 0.112, "note": 62, "inst": "celesta_v0_additive_3", "vel": 1.0, "bend": 0.0, "ch": 14}, {"t": 193.774, "dur": 0.112, "note": 81, "inst": "piano_v0_additive_0", "vel": 1.0, "bend": 0.0, "ch": 1}, {"t": 193.886, "dur": 0.112, "note": 55, "inst": "organ_v0_additive_1", "vel": 1.0, "bend": 0.0, "ch": 7}, {"t": 193.886, "dur": 0.449, "note": 83, "inst": "celesta_v0_additive_3", "vel": 1.0, "bend": 0.0, "ch": 3}, {"t": 193.998, "dur": 0.112, "note": 62, "inst": "celesta_v0_additive_3", "vel": 1.0, "bend": 0.0, "ch": 14}, {"t": 194.111, "dur": 0.112, "note": 67, "inst": "organ_v0_additive_1", "vel": 1.0, "bend": 0.0, "ch": 3}, {"t": 194.223, "dur": 0.112, "note": 62, "inst": "celesta_v0_additive_3", "vel": 1.0, "bend": 0.0, "ch": 14}, {"t": 194.335, "dur": 0.112, "note": 67, "inst": "organ_v0_additive_1", "vel": 1.0, "bend": 0.0, "ch": 3}, {"t": 194.335, "dur": 0.224, "note": 83, "inst": "celesta_v0_additive_3", "vel": 1.0, "bend": 0.0, "ch": 3}, {"t": 194.447, "dur": 0.112, "note": 71, "inst": "celesta_v0_additive_3", "vel": 1.0, "bend": 0.0, "ch": 7}, {"t": 194.56, "dur": 0.112, "note": 74, "inst": "celesta_v0_additive_3", "vel": 1.0, "bend": 0.0, "ch": 10}, {"t": 194.56, "dur": 0.112, "note": 84, "inst": "piano_v0_additive_0", "vel": 1.0, "bend": 0.0, "ch": 4}, {"t": 194.672, "dur": 0.112, "note": 71, "inst": "celesta_v0_additive_3", "vel": 1.0, "bend": 0.0, "ch": 7}, {"t": 194.672, "dur": 0.112, "note": 83, "inst": "celesta_v0_additive_3", "vel": 1.0, "bend": 0.0, "ch": 3}, {"t": 194.784, "dur": 0.112, "note": 65, "inst": "celesta_v0_additive_3", "vel": 1.0, "bend": 0.0, "ch": 1}, {"t": 194.784, "dur": 0.224, "note": 86, "inst": "celesta_v0_additive_3", "vel": 1.0, "bend": 0.0, "ch": 6}, {"t": 194.896, "dur": 0.112, "note": 69, "inst": "piano_v0_additive_0", "vel": 1.0, "bend": 0.0, "ch": 5}, {"t": 195.008, "dur": 0.112, "note": 74, "inst": "celesta_v0_additive_3", "vel": 1.0, "bend": 0.0, "ch": 10}, {"t": 195.008, "dur": 0.112, "note": 88, "inst": "organ_v0_additive_1", "vel": 1.0, "bend": 0.0, "ch": 8}, {"t": 195.121, "dur": 0.112, "note": 69, "inst": "piano_v0_additive_0", "vel": 1.0, "bend": 0.0, "ch": 5}, {"t": 195.121, "dur": 0.112, "note": 86, "inst": "celesta_v0_additive_3", "vel": 1.0, "bend": 0.0, "ch": 6}, {"t": 195.233, "dur": 0.112, "note": 64, "inst": "organ_v0_additive_1", "vel": 1.0, "bend": 0.0, "ch": 0}, {"t": 195.233, "dur": 0.224, "note": 91, "inst": "organ_v0_additive_1", "vel": 1.0, "bend": 0.0, "ch": 11}, {"t": 195.345, "dur": 0.112, "note": 69, "inst": "piano_v0_additive_0", "vel": 1.0, "bend": 0.0, "ch": 5}, {"t": 195.457, "dur": 0.112, "note": 62, "inst": "celesta_v0_additive_3", "vel": 1.0, "bend": 0.0, "ch": 14}, {"t": 195.457, "dur": 0.112, "note": 93, "inst": "piano_v0_additive_0", "vel": 1.0, "bend": 0.0, "ch": 13}, {"t": 195.57, "dur": 0.112, "note": 69, "inst": "piano_v0_additive_0", "vel": 1.0, "bend": 0.0, "ch": 5}, {"t": 195.57, "dur": 0.112, "note": 91, "inst": "organ_v0_additive_1", "vel": 1.0, "bend": 0.0, "ch": 11}, {"t": 195.682, "dur": 0.112, "note": 62, "inst": "celesta_v0_additive_3", "vel": 1.0, "bend": 0.0, "ch": 14}, {"t": 195.682, "dur": 0.449, "note": 89, "inst": "celesta_v0_additive_3", "vel": 1.0, "bend": 0.0, "ch": 9}, {"t": 195.794, "dur": 0.112, "note": 69, "inst": "piano_v0_additive_0", "vel": 1.0, "bend": 0.0, "ch": 5}, {"t": 195.906, "dur": 0.112, "note": 74, "inst": "celesta_v0_additive_3", "vel": 1.0, "bend": 0.0, "ch": 10}, {"t": 196.019, "dur": 0.112, "note": 69, "inst": "piano_v0_additive_0", "vel": 1.0, "bend": 0.0, "ch": 5}, {"t": 196.131, "dur": 0.112, "note": 67, "inst": "organ_v0_additive_1", "vel": 1.0, "bend": 0.0, "ch": 3}, {"t": 196.131, "dur": 0.224, "note": 88, "inst": "organ_v0_additive_1", "vel": 1.0, "bend": 0.0, "ch": 8}, {"t": 196.243, "dur": 0.112, "note": 71, "inst": "celesta_v0_additive_3", "vel": 1.0, "bend": 0.0, "ch": 7}, {"t": 196.355, "dur": 0.112, "note": 76, "inst": "organ_v0_additive_1", "vel": 1.0, "bend": 0.0, "ch": 12}, {"t": 196.355, "dur": 0.112, "note": 89, "inst": "celesta_v0_additive_3", "vel": 1.0, "bend": 0.0, "ch": 9}, {"t": 196.468, "dur": 0.112, "note": 71, "inst": "celesta_v0_additive_3", "vel": 1.0, "bend": 0.0, "ch": 7}, {"t": 196.468, "dur": 0.112, "note": 88, "inst": "organ_v0_additive_1", "vel": 1.0, "bend": 0.0, "ch": 8}, {"t": 196.58, "dur": 0.112, "note": 69, "inst": "piano_v0_additive_0", "vel": 1.0, "bend": 0.0, "ch": 5}, {"t": 196.58, "dur": 0.224, "note": 74, "inst": "celesta_v0_additive_3", "vel": 1.0, "bend": 0.0, "ch": 10}, {"t": 196.58, "dur": 0.224, "note": 86, "inst": "celesta_v0_additive_3", "vel": 1.0, "bend": 0.0, "ch": 6}, {"t": 196.692, "dur": 0.112, "note": 76, "inst": "organ_v0_additive_1", "vel": 1.0, "bend": 0.0, "ch": 12}], "instruments": ["celesta_v0_additive_3", "organ_v0_additive_1", "piano_v0_additive_0"], "duration": 196.804, "n_events": 800}