{"track_num":7,"title":"Bloom","duration":252.0,"start_time":1799.75,"n_events":122,"events":[{"t":0.424,"dur":0.222,"note":61,"inst":"organ_v0_additive_1","vel":1.0,"bend":0.0,"ch":13},{"t":0.646,"dur":0.443,"note":28,"inst":"piano_v0_additive_0","vel":1.0,"bend":0.0,"ch":12},{"t":0.646,"dur":0.222,"note":64,"inst":"piano_v0_additive_0","vel":1.0,"bend":0.0,"ch":0},{"t":0.868,"dur":0.222,"note":62,"inst":"harpsichord_v0_additive_2","vel":1.0,"bend":0.0,"ch":14},{"t":1.089,"dur":0.443,"note":35,"inst":"celesta_v0_additive_3","vel":1.0,"bend":0.0,"ch":3},{"t":1.089,"dur":0.222,"note":61,"inst":"organ_v0_additive_1","vel":1.0,"bend":0.0,"ch":13},{"t":1.311,"dur":0.222,"note":58,"inst":"harpsichord_v0_additive_2","vel":1.0,"bend":0.0,"ch":10},{"t":1.533,"dur":0.443,"note":28,"inst":"piano_v0_additive_0","vel":1.0,"bend":0.0,"ch":12},{"t":1.533,"dur":0.222,"note":59,"inst":"celesta_v0_additive_3","vel":1.0,"bend":0.0,"ch":11},{"t":1.754,"dur":0.074,"note":59,"inst":"celesta_v0_additive_3","vel":1.0,"bend":0.0,"ch":11},{"t":1.828,"dur":0.074,"note":61,"inst":"organ_v0_additive_1","vel":1.0,"bend":0.0,"ch":13},{"t":1.902,"dur":0.074,"note":59,"inst":"celesta_v0_additive_3","vel":1.0,"bend":0.0,"ch":11},{"t":1.976,"dur":0.443,"note":32,"inst":"piano_v0_additive_0","vel":1.0,"bend":0.0,"ch":0},{"t":1.976,"dur":0.222,"note":58,"inst":"harpsichord_v0_additive_2","vel":1.0,"bend":0.0,"ch":10},{"t":2.198,"dur":0.222,"note":59,"inst":"celesta_v0_additive_3","vel":1.0,"bend":0.0,"ch":11},{"t":2.419,"dur":0.443,"note":28,"inst":"piano_v0_additive_0","vel":1.0,"bend":0.0,"ch":12},{"t":2.419,"dur":0.222,"note":62,"inst":"harpsichord_v0_additive_2","vel":1.0,"bend":0.0,"ch":14},{"t":2.641,"dur":0.222,"note":61,"inst":"organ_v0_additive_1","vel":1.0,"bend":0.0,"ch":13},{"t":2.862,"dur":0.443,"note":33,"inst":"organ_v0_additive_1","vel":1.0,"bend":0.0,"ch":1},{"t":2.862,"dur":0.222,"note":59,"inst":"celesta_v0_additive_3","vel":1.0,"bend":0.0,"ch":11},{"t":3.084,"dur":0.222,"note":56,"inst":"piano_v0_additive_0","vel":1.0,"bend":0.0,"ch":8},{"t":3.306,"dur":0.443,"note":28,"inst":"piano_v0_additive_0","vel":1.0,"bend":0.0,"ch":12},{"t":3.306,"dur":0.222,"note":57,"inst":"organ_v0_additive_1","vel":1.0,"bend":0.0,"ch":9},{"t":3.527,"dur":0.074,"note":57,"inst":"organ_v0_additive_1","vel":1.0,"bend":0.0,"ch":9},{"t":3.601,"dur":0.074,"note":59,"inst":"celesta_v0_additive_3","vel":1.0,"bend":0.0,"ch":11},{"t":3.675,"dur":0.074,"note":57,"inst":"organ_v0_additive_1","vel":1.0,"bend":0.0,"ch":9},{"t":3.749,"dur":0.443,"note":37,"inst":"organ_v0_additive_1","vel":1.0,"bend":0.0,"ch":5},{"t":3.749,"dur":0.222,"note":56,"inst":"piano_v0_additive_0","vel":1.0,"bend":0.0,"ch":8},{"t":3.971,"dur":0.222,"note":59,"inst":"celesta_v0_additive_3","vel":1.0,"bend":0.0,"ch":11},{"t":4.192,"dur":0.443,"note":36,"inst":"piano_v0_additive_0","vel":1.0,"bend":0.0,"ch":4},{"t":4.192,"dur":0.222,"note":57,"inst":"organ_v0_additive_1","vel":1.0,"bend":0.0,"ch":9},{"t":4.414,"dur":0.222,"note":54,"inst":"harpsichord_v0_additive_2","vel":1.0,"bend":0.0,"ch":6},{"t":4.636,"dur":0.443,"note":35,"inst":"celesta_v0_additive_3","vel":1.0,"bend":0.0,"ch":3},{"t":4.636,"dur":0.222,"note":52,"inst":"piano_v0_additive_0","vel":1.0,"bend":0.0,"ch":4},{"t":4.857,"dur":0.222,"note":66,"inst":"harpsichord_v0_additive_2","vel":1.0,"bend":0.0,"ch":2},{"t":5.079,"dur":0.443,"note":28,"inst":"piano_v0_additive_0","vel":1.0,"bend":0.0,"ch":12},{"t":5.079,"dur":0.222,"note":64,"inst":"piano_v0_additive_0","vel":1.0,"bend":0.0,"ch":0},{"t":5.301,"dur":0.074,"note":54,"inst":"harpsichord_v0_additive_2","vel":1.0,"bend":0.0,"ch":6},{"t":5.375,"dur":0.074,"note":56,"inst":"piano_v0_additive_0","vel":1.0,"bend":0.0,"ch":8},{"t":5.448,"dur":0.074,"note":54,"inst":"harpsichord_v0_additive_2","vel":1.0,"bend":0.0,"ch":6},{"t":5.522,"dur":0.443,"note":35,"inst":"celesta_v0_additive_3","vel":1.0,"bend":0.0,"ch":3},{"t":5.522,"dur":0.222,"note":52,"inst":"piano_v0_additive_0","vel":1.0,"bend":0.0,"ch":4},{"t":5.744,"dur":0.222,"note":64,"inst":"piano_v0_additive_0","vel":1.0,"bend":0.0,"ch":0},{"t":5.966,"dur":0.443,"note":28,"inst":"piano_v0_additive_0","vel":1.0,"bend":0.0,"ch":12},{"t":5.966,"dur":0.222,"note":62,"inst":"harpsichord_v0_additive_2","vel":1.0,"bend":0.0,"ch":14},{"t":6.187,"dur":0.074,"note":50,"inst":"harpsichord_v0_additive_2","vel":1.0,"bend":0.0,"ch":2},{"t":6.261,"dur":0.074,"note":52,"inst":"piano_v0_additive_0","vel":1.0,"bend":0.0,"ch":4},{"t":6.335,"dur":0.074,"note":50,"inst":"harpsichord_v0_additive_2","vel":1.0,"bend":0.0,"ch":2},{"t":6.409,"dur":0.443,"note":33,"inst":"organ_v0_additive_1","vel":1.0,"bend":0.0,"ch":1},{"t":6.409,"dur":0.222,"note":49,"inst":"organ_v0_additive_1","vel":1.0,"bend":0.0,"ch":1},{"t":6.631,"dur":0.222,"note":62,"inst":"harpsichord_v0_additive_2","vel":1.0,"bend":0.0,"ch":14},{"t":6.852,"dur":0.443,"note":33,"inst":"organ_v0_additive_1","vel":1.0,"bend":0.0,"ch":1},{"t":6.852,"dur":0.222,"note":61,"inst":"organ_v0_additive_1","vel":1.0,"bend":0.0,"ch":13},{"t":7.074,"dur":0.074,"note":61,"inst":"organ_v0_additive_1","vel":1.0,"bend":0.0,"ch":13},{"t":7.148,"dur":0.074,"note":62,"inst":"harpsichord_v0_additive_2","vel":1.0,"bend":0.0,"ch":14},{"t":7.222,"dur":0.074,"note":61,"inst":"organ_v0_additive_1","vel":1.0,"bend":0.0,"ch":13},{"t":7.296,"dur":0.443,"note":33,"inst":"organ_v0_additive_1","vel":1.0,"bend":0.0,"ch":1},{"t":7.296,"dur":0.222,"note":60,"inst":"piano_v0_additive_0","vel":1.0,"bend":0.0,"ch":12},{"t":7.517,"dur":0.222,"note":61,"inst":"organ_v0_additive_1","vel":1.0,"bend":0.0,"ch":13},{"t":7.739,"dur":0.443,"note":28,"inst":"piano_v0_additive_0","vel":1.0,"bend":0.0,"ch":12},{"t":7.739,"dur":0.222,"note":64,"inst":"piano_v0_additive_0","vel":1.0,"bend":0.0,"ch":0},{"t":7.96,"dur":0.222,"note":62,"inst":"harpsichord_v0_additive_2","vel":1.0,"bend":0.0,"ch":14},{"t":8.182,"dur":0.443,"note":35,"inst":"celesta_v0_additive_3","vel":1.0,"bend":0.0,"ch":3},{"t":8.182,"dur":0.222,"note":61,"inst":"organ_v0_additive_1","vel":1.0,"bend":0.0,"ch":13},{"t":8.404,"dur":0.222,"note":58,"inst":"harpsichord_v0_additive_2","vel":1.0,"bend":0.0,"ch":10},{"t":8.625,"dur":0.443,"note":28,"inst":"piano_v0_additive_0","vel":1.0,"bend":0.0,"ch":12},{"t":8.625,"dur":0.222,"note":59,"inst":"celesta_v0_additive_3","vel":1.0,"bend":0.0,"ch":11},{"t":8.847,"dur":0.074,"note":59,"inst":"celesta_v0_additive_3","vel":1.0,"bend":0.0,"ch":11},{"t":8.921,"dur":0.074,"note":61,"inst":"organ_v0_additive_1","vel":1.0,"bend":0.0,"ch":13},{"t":8.995,"dur":0.074,"note":59,"inst":"celesta_v0_additive_3","vel":1.0,"bend":0.0,"ch":11},{"t":9.069,"dur":0.443,"note":29,"inst":"organ_v0_additive_1","vel":1.0,"bend":0.0,"ch":13},{"t":9.069,"dur":0.222,"note":58,"inst":"harpsichord_v0_additive_2","vel":1.0,"bend":0.0,"ch":10},{"t":168.369,"dur":0.586,"note":33,"inst":"organ_v0_additive_1","vel":1.0,"bend":0.0,"ch":1},{"t":168.369,"dur":0.586,"note":45,"inst":"organ_v0_additive_1","vel":1.0,"bend":0.0,"ch":13},{"t":168.516,"dur":0.147,"note":38,"inst":"harpsichord_v0_additive_2","vel":1.0,"bend":0.0,"ch":6},{"t":168.662,"dur":0.147,"note":52,"inst":"piano_v0_additive_0","vel":1.0,"bend":0.0,"ch":4},{"t":168.809,"dur":0.147,"note":57,"inst":"organ_v0_additive_1","vel":1.0,"bend":0.0,"ch":9},{"t":168.955,"dur":0.147,"note":50,"inst":"harpsichord_v0_additive_2","vel":1.0,"bend":0.0,"ch":2},{"t":169.102,"dur":0.147,"note":57,"inst":"organ_v0_additive_1","vel":1.0,"bend":0.0,"ch":9},{"t":169.248,"dur":0.147,"note":52,"inst":"piano_v0_additive_0","vel":1.0,"bend":0.0,"ch":4},{"t":169.395,"dur":0.147,"note":38,"inst":"harpsichord_v0_additive_2","vel":1.0,"bend":0.0,"ch":6},{"t":169.541,"dur":0.879,"note":26,"inst":"harpsichord_v0_additive_2","vel":1.0,"bend":0.0,"ch":10},{"t":169.541,"dur":0.879,"note":38,"inst":"harpsichord_v0_additive_2","vel":1.0,"bend":0.0,"ch":6},{"t":169.688,"dur":0.147,"note":47,"inst":"celesta_v0_additive_3","vel":1.0,"bend":0.0,"ch":15},{"t":169.834,"dur":0.147,"note":50,"inst":"harpsichord_v0_additive_2","vel":1.0,"bend":0.0,"ch":2},{"t":169.981,"dur":0.147,"note":54,"inst":"harpsichord_v0_additive_2","vel":1.0,"bend":0.0,"ch":6},{"t":170.128,"dur":0.147,"note":59,"inst":"celesta_v0_additive_3","vel":1.0,"bend":0.0,"ch":11},{"t":170.274,"dur":0.147,"note":54,"inst":"harpsichord_v0_additive_2","vel":1.0,"bend":0.0,"ch":6},{"t":170.421,"dur":0.293,"note":24,"inst":"piano_v0_additive_0","vel":1.0,"bend":0.0,"ch":8},{"t":170.421,"dur":0.293,"note":26,"inst":"harpsichord_v0_additive_2","vel":1.0,"bend":0.0,"ch":10},{"t":170.421,"dur":0.147,"note":52,"inst":"piano_v0_additive_0","vel":1.0,"bend":0.0,"ch":4},{"t":170.567,"dur":0.147,"note":57,"inst":"organ_v0_additive_1","vel":1.0,"bend":0.0,"ch":9},{"t":170.714,"dur":1.172,"note":24,"inst":"piano_v0_additive_0","vel":1.0,"bend":0.0,"ch":8},{"t":170.714,"dur":1.172,"note":35,"inst":"celesta_v0_additive_3","vel":1.0,"bend":0.0,"ch":3},{"t":170.86,"dur":0.147,"note":50,"inst":"harpsichord_v0_additive_2","vel":1.0,"bend":0.0,"ch":2},{"t":171.007,"dur":0.147,"note":54,"inst":"harpsichord_v0_additive_2","vel":1.0,"bend":0.0,"ch":6},{"t":171.153,"dur":0.147,"note":59,"inst":"celesta_v0_additive_3","vel":1.0,"bend":0.0,"ch":11},{"t":171.3,"dur":0.147,"note":62,"inst":"harpsichord_v0_additive_2","vel":1.0,"bend":0.0,"ch":14},{"t":171.446,"dur":0.147,"note":59,"inst":"celesta_v0_additive_3","vel":1.0,"bend":0.0,"ch":11},{"t":171.593,"dur":0.147,"note":54,"inst":"harpsichord_v0_additive_2","vel":1.0,"bend":0.0,"ch":6},{"t":171.739,"dur":0.147,"note":50,"inst":"harpsichord_v0_additive_2","vel":1.0,"bend":0.0,"ch":2},{"t":171.886,"dur":1.172,"note":28,"inst":"piano_v0_additive_0","vel":1.0,"bend":0.0,"ch":12},{"t":171.886,"dur":1.172,"note":40,"inst":"piano_v0_additive_0","vel":1.0,"bend":0.0,"ch":8},{"t":172.033,"dur":0.147,"note":47,"inst":"celesta_v0_additive_3","vel":1.0,"bend":0.0,"ch":15},{"t":172.179,"dur":0.147,"note":50,"inst":"harpsichord_v0_additive_2","vel":1.0,"bend":0.0,"ch":2},{"t":172.326,"dur":0.147,"note":52,"inst":"piano_v0_additive_0","vel":1.0,"bend":0.0,"ch":4},{"t":172.472,"dur":0.147,"note":57,"inst":"organ_v0_additive_1","vel":1.0,"bend":0.0,"ch":9},{"t":172.619,"dur":0.147,"note":52,"inst":"piano_v0_additive_0","vel":1.0,"bend":0.0,"ch":4},{"t":172.765,"dur":0.147,"note":50,"inst":"harpsichord_v0_additive_2","vel":1.0,"bend":0.0,"ch":2},{"t":172.912,"dur":0.147,"note":52,"inst":"piano_v0_additive_0","vel":1.0,"bend":0.0,"ch":4},{"t":173.058,"dur":0.293,"note":33,"inst":"organ_v0_additive_1","vel":1.0,"bend":0.0,"ch":1},{"t":173.058,"dur":0.293,"note":45,"inst":"organ_v0_additive_1","vel":1.0,"bend":0.0,"ch":13},{"t":173.058,"dur":0.147,"note":38,"inst":"harpsichord_v0_additive_2","vel":1.0,"bend":0.0,"ch":6},{"t":173.205,"dur":0.147,"note":52,"inst":"piano_v0_additive_0","vel":1.0,"bend":0.0,"ch":4},{"t":173.351,"dur":0.147,"note":57,"inst":"organ_v0_additive_1","vel":1.0,"bend":0.0,"ch":9},{"t":173.498,"dur":0.147,"note":50,"inst":"harpsichord_v0_additive_2","vel":1.0,"bend":0.0,"ch":2},{"t":173.645,"dur":0.147,"note":64,"inst":"piano_v0_additive_0","vel":1.0,"bend":0.0,"ch":0},{"t":173.791,"dur":0.147,"note":50,"inst":"harpsichord_v0_additive_2","vel":1.0,"bend":0.0,"ch":2},{"t":173.938,"dur":0.293,"note":38,"inst":"harpsichord_v0_additive_2","vel":1.0,"bend":0.0,"ch":6},{"t":173.938,"dur":0.293,"note":47,"inst":"celesta_v0_additive_3","vel":1.0,"bend":0.0,"ch":15},{"t":173.938,"dur":0.147,"note":59,"inst":"celesta_v0_additive_3","vel":1.0,"bend":0.0,"ch":11},{"t":174.084,"dur":0.147,"note":66,"inst":"harpsichord_v0_additive_2","vel":1.0,"bend":0.0,"ch":2}]}