{"track_num":1,"title":"Ember","duration":251.75,"start_time":0.0,"n_events":122,"events":[{"t":0.174,"dur":0.222,"note":61,"inst":"organ_v0_additive_1","vel":1.0,"bend":0.0,"ch":13},{"t":0.396,"dur":0.443,"note":28,"inst":"piano_v0_additive_0","vel":1.0,"bend":0.0,"ch":12},{"t":0.396,"dur":0.222,"note":64,"inst":"piano_v0_additive_0","vel":1.0,"bend":0.0,"ch":0},{"t":0.618,"dur":0.222,"note":62,"inst":"harpsichord_v0_additive_2","vel":1.0,"bend":0.0,"ch":14},{"t":0.839,"dur":0.443,"note":35,"inst":"celesta_v0_additive_3","vel":1.0,"bend":0.0,"ch":3},{"t":0.839,"dur":0.222,"note":61,"inst":"organ_v0_additive_1","vel":1.0,"bend":0.0,"ch":13},{"t":1.061,"dur":0.222,"note":58,"inst":"harpsichord_v0_additive_2","vel":1.0,"bend":0.0,"ch":10},{"t":1.283,"dur":0.443,"note":28,"inst":"piano_v0_additive_0","vel":1.0,"bend":0.0,"ch":12},{"t":1.283,"dur":0.222,"note":59,"inst":"celesta_v0_additive_3","vel":1.0,"bend":0.0,"ch":11},{"t":1.504,"dur":0.074,"note":59,"inst":"celesta_v0_additive_3","vel":1.0,"bend":0.0,"ch":11},{"t":1.578,"dur":0.074,"note":61,"inst":"organ_v0_additive_1","vel":1.0,"bend":0.0,"ch":13},{"t":1.652,"dur":0.074,"note":59,"inst":"celesta_v0_additive_3","vel":1.0,"bend":0.0,"ch":11},{"t":1.726,"dur":0.443,"note":32,"inst":"piano_v0_additive_0","vel":1.0,"bend":0.0,"ch":0},{"t":1.726,"dur":0.222,"note":58,"inst":"harpsichord_v0_additive_2","vel":1.0,"bend":0.0,"ch":10},{"t":1.948,"dur":0.222,"note":59,"inst":"celesta_v0_additive_3","vel":1.0,"bend":0.0,"ch":11},{"t":2.169,"dur":0.443,"note":28,"inst":"piano_v0_additive_0","vel":1.0,"bend":0.0,"ch":12},{"t":2.169,"dur":0.222,"note":62,"inst":"harpsichord_v0_additive_2","vel":1.0,"bend":0.0,"ch":14},{"t":2.391,"dur":0.222,"note":61,"inst":"organ_v0_additive_1","vel":1.0,"bend":0.0,"ch":13},{"t":2.612,"dur":0.443,"note":33,"inst":"organ_v0_additive_1","vel":1.0,"bend":0.0,"ch":1},{"t":2.612,"dur":0.222,"note":59,"inst":"celesta_v0_additive_3","vel":1.0,"bend":0.0,"ch":11},{"t":2.834,"dur":0.222,"note":56,"inst":"piano_v0_additive_0","vel":1.0,"bend":0.0,"ch":8},{"t":3.056,"dur":0.443,"note":28,"inst":"piano_v0_additive_0","vel":1.0,"bend":0.0,"ch":12},{"t":3.056,"dur":0.222,"note":57,"inst":"organ_v0_additive_1","vel":1.0,"bend":0.0,"ch":9},{"t":3.277,"dur":0.074,"note":57,"inst":"organ_v0_additive_1","vel":1.0,"bend":0.0,"ch":9},{"t":3.351,"dur":0.074,"note":59,"inst":"celesta_v0_additive_3","vel":1.0,"bend":0.0,"ch":11},{"t":3.425,"dur":0.074,"note":57,"inst":"organ_v0_additive_1","vel":1.0,"bend":0.0,"ch":9},{"t":3.499,"dur":0.443,"note":37,"inst":"organ_v0_additive_1","vel":1.0,"bend":0.0,"ch":5},{"t":3.499,"dur":0.222,"note":56,"inst":"piano_v0_additive_0","vel":1.0,"bend":0.0,"ch":8},{"t":3.721,"dur":0.222,"note":59,"inst":"celesta_v0_additive_3","vel":1.0,"bend":0.0,"ch":11},{"t":3.942,"dur":0.443,"note":36,"inst":"piano_v0_additive_0","vel":1.0,"bend":0.0,"ch":4},{"t":3.942,"dur":0.222,"note":57,"inst":"organ_v0_additive_1","vel":1.0,"bend":0.0,"ch":9},{"t":4.164,"dur":0.222,"note":54,"inst":"harpsichord_v0_additive_2","vel":1.0,"bend":0.0,"ch":6},{"t":4.386,"dur":0.443,"note":35,"inst":"celesta_v0_additive_3","vel":1.0,"bend":0.0,"ch":3},{"t":4.386,"dur":0.222,"note":52,"inst":"piano_v0_additive_0","vel":1.0,"bend":0.0,"ch":4},{"t":4.607,"dur":0.222,"note":66,"inst":"harpsichord_v0_additive_2","vel":1.0,"bend":0.0,"ch":2},{"t":4.829,"dur":0.443,"note":28,"inst":"piano_v0_additive_0","vel":1.0,"bend":0.0,"ch":12},{"t":4.829,"dur":0.222,"note":64,"inst":"piano_v0_additive_0","vel":1.0,"bend":0.0,"ch":0},{"t":5.051,"dur":0.074,"note":54,"inst":"harpsichord_v0_additive_2","vel":1.0,"bend":0.0,"ch":6},{"t":5.125,"dur":0.074,"note":56,"inst":"piano_v0_additive_0","vel":1.0,"bend":0.0,"ch":8},{"t":5.198,"dur":0.074,"note":54,"inst":"harpsichord_v0_additive_2","vel":1.0,"bend":0.0,"ch":6},{"t":5.272,"dur":0.443,"note":35,"inst":"celesta_v0_additive_3","vel":1.0,"bend":0.0,"ch":3},{"t":5.272,"dur":0.222,"note":52,"inst":"piano_v0_additive_0","vel":1.0,"bend":0.0,"ch":4},{"t":5.494,"dur":0.222,"note":64,"inst":"piano_v0_additive_0","vel":1.0,"bend":0.0,"ch":0},{"t":5.716,"dur":0.443,"note":28,"inst":"piano_v0_additive_0","vel":1.0,"bend":0.0,"ch":12},{"t":5.716,"dur":0.222,"note":62,"inst":"harpsichord_v0_additive_2","vel":1.0,"bend":0.0,"ch":14},{"t":5.937,"dur":0.074,"note":50,"inst":"harpsichord_v0_additive_2","vel":1.0,"bend":0.0,"ch":2},{"t":6.011,"dur":0.074,"note":52,"inst":"piano_v0_additive_0","vel":1.0,"bend":0.0,"ch":4},{"t":6.085,"dur":0.074,"note":50,"inst":"harpsichord_v0_additive_2","vel":1.0,"bend":0.0,"ch":2},{"t":6.159,"dur":0.443,"note":33,"inst":"organ_v0_additive_1","vel":1.0,"bend":0.0,"ch":1},{"t":6.159,"dur":0.222,"note":49,"inst":"organ_v0_additive_1","vel":1.0,"bend":0.0,"ch":1},{"t":6.381,"dur":0.222,"note":62,"inst":"harpsichord_v0_additive_2","vel":1.0,"bend":0.0,"ch":14},{"t":6.602,"dur":0.443,"note":33,"inst":"organ_v0_additive_1","vel":1.0,"bend":0.0,"ch":1},{"t":6.602,"dur":0.222,"note":61,"inst":"organ_v0_additive_1","vel":1.0,"bend":0.0,"ch":13},{"t":6.824,"dur":0.074,"note":61,"inst":"organ_v0_additive_1","vel":1.0,"bend":0.0,"ch":13},{"t":6.898,"dur":0.074,"note":62,"inst":"harpsichord_v0_additive_2","vel":1.0,"bend":0.0,"ch":14},{"t":6.972,"dur":0.074,"note":61,"inst":"organ_v0_additive_1","vel":1.0,"bend":0.0,"ch":13},{"t":7.046,"dur":0.443,"note":33,"inst":"organ_v0_additive_1","vel":1.0,"bend":0.0,"ch":1},{"t":7.046,"dur":0.222,"note":60,"inst":"piano_v0_additive_0","vel":1.0,"bend":0.0,"ch":12},{"t":7.267,"dur":0.222,"note":61,"inst":"organ_v0_additive_1","vel":1.0,"bend":0.0,"ch":13},{"t":7.489,"dur":0.443,"note":28,"inst":"piano_v0_additive_0","vel":1.0,"bend":0.0,"ch":12},{"t":7.489,"dur":0.222,"note":64,"inst":"piano_v0_additive_0","vel":1.0,"bend":0.0,"ch":0},{"t":7.71,"dur":0.222,"note":62,"inst":"harpsichord_v0_additive_2","vel":1.0,"bend":0.0,"ch":14},{"t":7.932,"dur":0.443,"note":35,"inst":"celesta_v0_additive_3","vel":1.0,"bend":0.0,"ch":3},{"t":7.932,"dur":0.222,"note":61,"inst":"organ_v0_additive_1","vel":1.0,"bend":0.0,"ch":13},{"t":8.154,"dur":0.222,"note":58,"inst":"harpsichord_v0_additive_2","vel":1.0,"bend":0.0,"ch":10},{"t":8.375,"dur":0.443,"note":28,"inst":"piano_v0_additive_0","vel":1.0,"bend":0.0,"ch":12},{"t":8.375,"dur":0.222,"note":59,"inst":"celesta_v0_additive_3","vel":1.0,"bend":0.0,"ch":11},{"t":8.597,"dur":0.074,"note":59,"inst":"celesta_v0_additive_3","vel":1.0,"bend":0.0,"ch":11},{"t":8.671,"dur":0.074,"note":61,"inst":"organ_v0_additive_1","vel":1.0,"bend":0.0,"ch":13},{"t":8.745,"dur":0.074,"note":59,"inst":"celesta_v0_additive_3","vel":1.0,"bend":0.0,"ch":11},{"t":8.819,"dur":0.443,"note":29,"inst":"organ_v0_additive_1","vel":1.0,"bend":0.0,"ch":13},{"t":8.819,"dur":0.222,"note":58,"inst":"harpsichord_v0_additive_2","vel":1.0,"bend":0.0,"ch":10},{"t":168.119,"dur":0.586,"note":33,"inst":"organ_v0_additive_1","vel":1.0,"bend":0.0,"ch":1},{"t":168.119,"dur":0.586,"note":45,"inst":"organ_v0_additive_1","vel":1.0,"bend":0.0,"ch":13},{"t":168.266,"dur":0.147,"note":38,"inst":"harpsichord_v0_additive_2","vel":1.0,"bend":0.0,"ch":6},{"t":168.412,"dur":0.147,"note":52,"inst":"piano_v0_additive_0","vel":1.0,"bend":0.0,"ch":4},{"t":168.559,"dur":0.147,"note":57,"inst":"organ_v0_additive_1","vel":1.0,"bend":0.0,"ch":9},{"t":168.705,"dur":0.147,"note":50,"inst":"harpsichord_v0_additive_2","vel":1.0,"bend":0.0,"ch":2},{"t":168.852,"dur":0.147,"note":57,"inst":"organ_v0_additive_1","vel":1.0,"bend":0.0,"ch":9},{"t":168.998,"dur":0.147,"note":52,"inst":"piano_v0_additive_0","vel":1.0,"bend":0.0,"ch":4},{"t":169.145,"dur":0.147,"note":38,"inst":"harpsichord_v0_additive_2","vel":1.0,"bend":0.0,"ch":6},{"t":169.291,"dur":0.879,"note":26,"inst":"harpsichord_v0_additive_2","vel":1.0,"bend":0.0,"ch":10},{"t":169.291,"dur":0.879,"note":38,"inst":"harpsichord_v0_additive_2","vel":1.0,"bend":0.0,"ch":6},{"t":169.438,"dur":0.147,"note":47,"inst":"celesta_v0_additive_3","vel":1.0,"bend":0.0,"ch":15},{"t":169.584,"dur":0.147,"note":50,"inst":"harpsichord_v0_additive_2","vel":1.0,"bend":0.0,"ch":2},{"t":169.731,"dur":0.147,"note":54,"inst":"harpsichord_v0_additive_2","vel":1.0,"bend":0.0,"ch":6},{"t":169.878,"dur":0.147,"note":59,"inst":"celesta_v0_additive_3","vel":1.0,"bend":0.0,"ch":11},{"t":170.024,"dur":0.147,"note":54,"inst":"harpsichord_v0_additive_2","vel":1.0,"bend":0.0,"ch":6},{"t":170.171,"dur":0.293,"note":24,"inst":"piano_v0_additive_0","vel":1.0,"bend":0.0,"ch":8},{"t":170.171,"dur":0.293,"note":26,"inst":"harpsichord_v0_additive_2","vel":1.0,"bend":0.0,"ch":10},{"t":170.171,"dur":0.147,"note":52,"inst":"piano_v0_additive_0","vel":1.0,"bend":0.0,"ch":4},{"t":170.317,"dur":0.147,"note":57,"inst":"organ_v0_additive_1","vel":1.0,"bend":0.0,"ch":9},{"t":170.464,"dur":1.172,"note":24,"inst":"piano_v0_additive_0","vel":1.0,"bend":0.0,"ch":8},{"t":170.464,"dur":1.172,"note":35,"inst":"celesta_v0_additive_3","vel":1.0,"bend":0.0,"ch":3},{"t":170.61,"dur":0.147,"note":50,"inst":"harpsichord_v0_additive_2","vel":1.0,"bend":0.0,"ch":2},{"t":170.757,"dur":0.147,"note":54,"inst":"harpsichord_v0_additive_2","vel":1.0,"bend":0.0,"ch":6},{"t":170.903,"dur":0.147,"note":59,"inst":"celesta_v0_additive_3","vel":1.0,"bend":0.0,"ch":11},{"t":171.05,"dur":0.147,"note":62,"inst":"harpsichord_v0_additive_2","vel":1.0,"bend":0.0,"ch":14},{"t":171.196,"dur":0.147,"note":59,"inst":"celesta_v0_additive_3","vel":1.0,"bend":0.0,"ch":11},{"t":171.343,"dur":0.147,"note":54,"inst":"harpsichord_v0_additive_2","vel":1.0,"bend":0.0,"ch":6},{"t":171.489,"dur":0.147,"note":50,"inst":"harpsichord_v0_additive_2","vel":1.0,"bend":0.0,"ch":2},{"t":171.636,"dur":1.172,"note":28,"inst":"piano_v0_additive_0","vel":1.0,"bend":0.0,"ch":12},{"t":171.636,"dur":1.172,"note":40,"inst":"piano_v0_additive_0","vel":1.0,"bend":0.0,"ch":8},{"t":171.783,"dur":0.147,"note":47,"inst":"celesta_v0_additive_3","vel":1.0,"bend":0.0,"ch":15},{"t":171.929,"dur":0.147,"note":50,"inst":"harpsichord_v0_additive_2","vel":1.0,"bend":0.0,"ch":2},{"t":172.076,"dur":0.147,"note":52,"inst":"piano_v0_additive_0","vel":1.0,"bend":0.0,"ch":4},{"t":172.222,"dur":0.147,"note":57,"inst":"organ_v0_additive_1","vel":1.0,"bend":0.0,"ch":9},{"t":172.369,"dur":0.147,"note":52,"inst":"piano_v0_additive_0","vel":1.0,"bend":0.0,"ch":4},{"t":172.515,"dur":0.147,"note":50,"inst":"harpsichord_v0_additive_2","vel":1.0,"bend":0.0,"ch":2},{"t":172.662,"dur":0.147,"note":52,"inst":"piano_v0_additive_0","vel":1.0,"bend":0.0,"ch":4},{"t":172.808,"dur":0.293,"note":33,"inst":"organ_v0_additive_1","vel":1.0,"bend":0.0,"ch":1},{"t":172.808,"dur":0.293,"note":45,"inst":"organ_v0_additive_1","vel":1.0,"bend":0.0,"ch":13},{"t":172.808,"dur":0.147,"note":38,"inst":"harpsichord_v0_additive_2","vel":1.0,"bend":0.0,"ch":6},{"t":172.955,"dur":0.147,"note":52,"inst":"piano_v0_additive_0","vel":1.0,"bend":0.0,"ch":4},{"t":173.101,"dur":0.147,"note":57,"inst":"organ_v0_additive_1","vel":1.0,"bend":0.0,"ch":9},{"t":173.248,"dur":0.147,"note":50,"inst":"harpsichord_v0_additive_2","vel":1.0,"bend":0.0,"ch":2},{"t":173.395,"dur":0.147,"note":64,"inst":"piano_v0_additive_0","vel":1.0,"bend":0.0,"ch":0},{"t":173.541,"dur":0.147,"note":50,"inst":"harpsichord_v0_additive_2","vel":1.0,"bend":0.0,"ch":2},{"t":173.688,"dur":0.293,"note":38,"inst":"harpsichord_v0_additive_2","vel":1.0,"bend":0.0,"ch":6},{"t":173.688,"dur":0.293,"note":47,"inst":"celesta_v0_additive_3","vel":1.0,"bend":0.0,"ch":15},{"t":173.688,"dur":0.147,"note":59,"inst":"celesta_v0_additive_3","vel":1.0,"bend":0.0,"ch":11},{"t":173.834,"dur":0.147,"note":66,"inst":"harpsichord_v0_additive_2","vel":1.0,"bend":0.0,"ch":2}]}