{"track_num":9,"title":"Coral","duration":378.0,"start_time":2345.75,"n_events":112,"events":[{"t":0.365,"dur":0.148,"note":38,"inst":"harpsichord_v0_additive_2","vel":1.0,"bend":0.0,"ch":6},{"t":0.513,"dur":0.148,"note":32,"inst":"piano_v0_additive_0","vel":1.0,"bend":0.0,"ch":0},{"t":0.661,"dur":0.148,"note":36,"inst":"piano_v0_additive_0","vel":1.0,"bend":0.0,"ch":4},{"t":0.81,"dur":0.148,"note":41,"inst":"organ_v0_additive_1","vel":1.0,"bend":0.0,"ch":9},{"t":0.81,"dur":0.148,"note":61,"inst":"organ_v0_additive_1","vel":1.0,"bend":0.0,"ch":13},{"t":0.81,"dur":0.148,"note":73,"inst":"organ_v0_additive_1","vel":1.0,"bend":0.0,"ch":9},{"t":0.958,"dur":0.148,"note":48,"inst":"piano_v0_additive_0","vel":1.0,"bend":0.0,"ch":0},{"t":0.958,"dur":0.148,"note":60,"inst":"piano_v0_additive_0","vel":1.0,"bend":0.0,"ch":12},{"t":0.958,"dur":0.148,"note":72,"inst":"piano_v0_additive_0","vel":1.0,"bend":0.0,"ch":8},{"t":1.106,"dur":0.148,"note":41,"inst":"organ_v0_additive_1","vel":1.0,"bend":0.0,"ch":9},{"t":1.106,"dur":0.148,"note":57,"inst":"organ_v0_additive_1","vel":1.0,"bend":0.0,"ch":9},{"t":1.106,"dur":0.148,"note":69,"inst":"organ_v0_additive_1","vel":1.0,"bend":0.0,"ch":5},{"t":1.254,"dur":0.148,"note":36,"inst":"piano_v0_additive_0","vel":1.0,"bend":0.0,"ch":4},{"t":1.254,"dur":0.148,"note":56,"inst":"piano_v0_additive_0","vel":1.0,"bend":0.0,"ch":8},{"t":1.254,"dur":0.148,"note":68,"inst":"piano_v0_additive_0","vel":1.0,"bend":0.0,"ch":4},{"t":1.402,"dur":0.148,"note":29,"inst":"organ_v0_additive_1","vel":1.0,"bend":0.0,"ch":13},{"t":1.402,"dur":0.296,"note":56,"inst":"piano_v0_additive_0","vel":1.0,"bend":0.0,"ch":8},{"t":1.402,"dur":0.296,"note":68,"inst":"piano_v0_additive_0","vel":1.0,"bend":0.0,"ch":4},{"t":1.551,"dur":0.148,"note":36,"inst":"piano_v0_additive_0","vel":1.0,"bend":0.0,"ch":4},{"t":1.699,"dur":0.148,"note":41,"inst":"organ_v0_additive_1","vel":1.0,"bend":0.0,"ch":9},{"t":1.699,"dur":0.148,"note":57,"inst":"organ_v0_additive_1","vel":1.0,"bend":0.0,"ch":9},{"t":1.699,"dur":0.148,"note":69,"inst":"organ_v0_additive_1","vel":1.0,"bend":0.0,"ch":5},{"t":1.847,"dur":0.148,"note":48,"inst":"piano_v0_additive_0","vel":1.0,"bend":0.0,"ch":0},{"t":1.847,"dur":0.148,"note":56,"inst":"piano_v0_additive_0","vel":1.0,"bend":0.0,"ch":8},{"t":1.847,"dur":0.148,"note":68,"inst":"piano_v0_additive_0","vel":1.0,"bend":0.0,"ch":4},{"t":1.995,"dur":0.148,"note":41,"inst":"organ_v0_additive_1","vel":1.0,"bend":0.0,"ch":9},{"t":1.995,"dur":0.148,"note":54,"inst":"harpsichord_v0_additive_2","vel":1.0,"bend":0.0,"ch":6},{"t":1.995,"dur":0.148,"note":66,"inst":"harpsichord_v0_additive_2","vel":1.0,"bend":0.0,"ch":2},{"t":2.144,"dur":0.148,"note":36,"inst":"piano_v0_additive_0","vel":1.0,"bend":0.0,"ch":4},{"t":2.144,"dur":0.148,"note":53,"inst":"organ_v0_additive_1","vel":1.0,"bend":0.0,"ch":5},{"t":2.144,"dur":0.148,"note":65,"inst":"organ_v0_additive_1","vel":1.0,"bend":0.0,"ch":1},{"t":2.292,"dur":0.148,"note":29,"inst":"organ_v0_additive_1","vel":1.0,"bend":0.0,"ch":13},{"t":2.292,"dur":0.889,"note":54,"inst":"harpsichord_v0_additive_2","vel":1.0,"bend":0.0,"ch":6},{"t":2.292,"dur":0.889,"note":66,"inst":"harpsichord_v0_additive_2","vel":1.0,"bend":0.0,"ch":2},{"t":2.44,"dur":0.148,"note":37,"inst":"organ_v0_additive_1","vel":1.0,"bend":0.0,"ch":5},{"t":2.588,"dur":0.148,"note":42,"inst":"harpsichord_v0_additive_2","vel":1.0,"bend":0.0,"ch":10},{"t":2.736,"dur":0.148,"note":45,"inst":"organ_v0_additive_1","vel":1.0,"bend":0.0,"ch":13},{"t":2.885,"dur":0.148,"note":42,"inst":"harpsichord_v0_additive_2","vel":1.0,"bend":0.0,"ch":10},{"t":3.033,"dur":0.148,"note":37,"inst":"organ_v0_additive_1","vel":1.0,"bend":0.0,"ch":5},{"t":3.181,"dur":0.148,"note":29,"inst":"organ_v0_additive_1","vel":1.0,"bend":0.0,"ch":13},{"t":3.329,"dur":0.148,"note":36,"inst":"piano_v0_additive_0","vel":1.0,"bend":0.0,"ch":4},{"t":3.477,"dur":0.148,"note":38,"inst":"harpsichord_v0_additive_2","vel":1.0,"bend":0.0,"ch":6},{"t":3.626,"dur":0.148,"note":45,"inst":"organ_v0_additive_1","vel":1.0,"bend":0.0,"ch":13},{"t":3.774,"dur":0.148,"note":38,"inst":"harpsichord_v0_additive_2","vel":1.0,"bend":0.0,"ch":6},{"t":3.774,"dur":0.296,"note":54,"inst":"harpsichord_v0_additive_2","vel":1.0,"bend":0.0,"ch":6},{"t":3.774,"dur":0.296,"note":66,"inst":"harpsichord_v0_additive_2","vel":1.0,"bend":0.0,"ch":2},{"t":3.922,"dur":0.148,"note":36,"inst":"piano_v0_additive_0","vel":1.0,"bend":0.0,"ch":4},{"t":4.07,"dur":0.148,"note":29,"inst":"organ_v0_additive_1","vel":1.0,"bend":0.0,"ch":13},{"t":4.07,"dur":0.889,"note":56,"inst":"piano_v0_additive_0","vel":1.0,"bend":0.0,"ch":8},{"t":4.07,"dur":0.889,"note":68,"inst":"piano_v0_additive_0","vel":1.0,"bend":0.0,"ch":4},{"t":4.218,"dur":0.148,"note":36,"inst":"piano_v0_additive_0","vel":1.0,"bend":0.0,"ch":4},{"t":4.367,"dur":0.148,"note":41,"inst":"organ_v0_additive_1","vel":1.0,"bend":0.0,"ch":9},{"t":168.372,"dur":0.325,"note":45,"inst":"organ_v0_additive_1","vel":0.591,"bend":0.0,"ch":13},{"t":168.372,"dur":0.162,"note":60,"inst":"piano_v0_additive_0","vel":0.606,"bend":0.0,"ch":12},{"t":168.535,"dur":0.162,"note":53,"inst":"organ_v0_additive_1","vel":0.504,"bend":0.0,"ch":5},{"t":168.697,"dur":0.325,"note":48,"inst":"piano_v0_additive_0","vel":0.575,"bend":0.0,"ch":0},{"t":168.697,"dur":0.162,"note":50,"inst":"harpsichord_v0_additive_2","vel":0.543,"bend":0.0,"ch":2},{"t":168.86,"dur":0.162,"note":67,"inst":"celesta_v0_additive_3","vel":0.394,"bend":0.0,"ch":3},{"t":169.022,"dur":0.325,"note":38,"inst":"harpsichord_v0_additive_2","vel":0.598,"bend":0.0,"ch":6},{"t":169.022,"dur":0.162,"note":50,"inst":"harpsichord_v0_additive_2","vel":0.425,"bend":0.0,"ch":2},{"t":169.184,"dur":0.162,"note":67,"inst":"celesta_v0_additive_3","vel":0.472,"bend":0.0,"ch":3},{"t":169.347,"dur":0.325,"note":43,"inst":"celesta_v0_additive_3","vel":0.512,"bend":0.0,"ch":11},{"t":169.347,"dur":0.162,"note":55,"inst":"celesta_v0_additive_3","vel":0.48,"bend":0.0,"ch":7},{"t":169.509,"dur":0.162,"note":50,"inst":"harpsichord_v0_additive_2","vel":0.417,"bend":0.0,"ch":2},{"t":169.672,"dur":0.325,"note":48,"inst":"piano_v0_additive_0","vel":0.528,"bend":0.0,"ch":0},{"t":169.672,"dur":0.162,"note":55,"inst":"celesta_v0_additive_3","vel":0.606,"bend":0.0,"ch":7},{"t":169.834,"dur":0.162,"note":55,"inst":"celesta_v0_additive_3","vel":0.535,"bend":0.0,"ch":7},{"t":169.996,"dur":0.325,"note":45,"inst":"organ_v0_additive_1","vel":0.488,"bend":0.0,"ch":13},{"t":169.996,"dur":0.162,"note":67,"inst":"celesta_v0_additive_3","vel":0.583,"bend":0.0,"ch":3},{"t":170.159,"dur":0.162,"note":50,"inst":"harpsichord_v0_additive_2","vel":0.575,"bend":0.0,"ch":2},{"t":170.321,"dur":0.325,"note":45,"inst":"organ_v0_additive_1","vel":0.472,"bend":0.0,"ch":13},{"t":170.321,"dur":0.162,"note":55,"inst":"celesta_v0_additive_3","vel":0.402,"bend":0.0,"ch":7},{"t":170.484,"dur":0.162,"note":55,"inst":"celesta_v0_additive_3","vel":0.504,"bend":0.0,"ch":7},{"t":170.646,"dur":0.325,"note":43,"inst":"celesta_v0_additive_3","vel":0.559,"bend":0.0,"ch":11},{"t":170.646,"dur":0.162,"note":55,"inst":"celesta_v0_additive_3","vel":0.559,"bend":0.0,"ch":7},{"t":170.808,"dur":0.162,"note":69,"inst":"organ_v0_additive_1","vel":0.504,"bend":0.0,"ch":5},{"t":170.971,"dur":0.325,"note":43,"inst":"celesta_v0_additive_3","vel":0.567,"bend":0.0,"ch":11},{"t":170.971,"dur":0.162,"note":55,"inst":"celesta_v0_additive_3","vel":0.52,"bend":0.0,"ch":7},{"t":171.133,"dur":0.162,"note":53,"inst":"organ_v0_additive_1","vel":0.567,"bend":0.0,"ch":5},{"t":171.296,"dur":0.325,"note":45,"inst":"organ_v0_additive_1","vel":0.488,"bend":0.0,"ch":13},{"t":171.296,"dur":0.162,"note":67,"inst":"celesta_v0_additive_3","vel":0.48,"bend":0.0,"ch":3},{"t":171.458,"dur":0.162,"note":60,"inst":"piano_v0_additive_0","vel":0.528,"bend":0.0,"ch":12},{"t":171.62,"dur":0.325,"note":45,"inst":"organ_v0_additive_1","vel":0.646,"bend":0.0,"ch":13},{"t":171.62,"dur":0.162,"note":72,"inst":"piano_v0_additive_0","vel":0.63,"bend":0.0,"ch":8},{"t":171.783,"dur":0.162,"note":55,"inst":"celesta_v0_additive_3","vel":0.512,"bend":0.0,"ch":7},{"t":171.945,"dur":0.325,"note":48,"inst":"piano_v0_additive_0","vel":0.598,"bend":0.0,"ch":0},{"t":171.945,"dur":0.162,"note":57,"inst":"organ_v0_additive_1","vel":0.614,"bend":0.0,"ch":9},{"t":172.108,"dur":0.162,"note":55,"inst":"celesta_v0_additive_3","vel":0.433,"bend":0.0,"ch":7},{"t":172.27,"dur":0.325,"note":43,"inst":"celesta_v0_additive_3","vel":0.709,"bend":0.0,"ch":11},{"t":172.27,"dur":0.162,"note":53,"inst":"organ_v0_additive_1","vel":0.425,"bend":0.0,"ch":5},{"t":172.432,"dur":0.162,"note":53,"inst":"organ_v0_additive_1","vel":0.52,"bend":0.0,"ch":5},{"t":172.595,"dur":0.325,"note":38,"inst":"harpsichord_v0_additive_2","vel":0.646,"bend":0.0,"ch":6},{"t":172.595,"dur":0.162,"note":50,"inst":"harpsichord_v0_additive_2","vel":0.598,"bend":0.0,"ch":2},{"t":172.757,"dur":0.162,"note":62,"inst":"harpsichord_v0_additive_2","vel":0.425,"bend":0.0,"ch":14},{"t":172.92,"dur":0.325,"note":38,"inst":"harpsichord_v0_additive_2","vel":0.575,"bend":0.0,"ch":6},{"t":172.92,"dur":0.162,"note":62,"inst":"harpsichord_v0_additive_2","vel":0.575,"bend":0.0,"ch":14},{"t":173.082,"dur":0.162,"note":69,"inst":"organ_v0_additive_1","vel":0.402,"bend":0.0,"ch":5},{"t":173.244,"dur":0.325,"note":45,"inst":"organ_v0_additive_1","vel":0.488,"bend":0.0,"ch":13},{"t":173.244,"dur":0.162,"note":55,"inst":"celesta_v0_additive_3","vel":0.449,"bend":0.0,"ch":7},{"t":173.407,"dur":0.162,"note":60,"inst":"piano_v0_additive_0","vel":0.441,"bend":0.0,"ch":12},{"t":173.569,"dur":0.325,"note":43,"inst":"celesta_v0_additive_3","vel":0.709,"bend":0.0,"ch":11},{"t":173.569,"dur":0.162,"note":57,"inst":"organ_v0_additive_1","vel":0.402,"bend":0.0,"ch":9},{"t":173.731,"dur":0.162,"note":62,"inst":"harpsichord_v0_additive_2","vel":0.441,"bend":0.0,"ch":14},{"t":173.894,"dur":0.325,"note":38,"inst":"harpsichord_v0_additive_2","vel":0.622,"bend":0.0,"ch":6},{"t":173.894,"dur":0.162,"note":74,"inst":"harpsichord_v0_additive_2","vel":0.606,"bend":0.0,"ch":10},{"t":174.056,"dur":0.162,"note":57,"inst":"organ_v0_additive_1","vel":0.528,"bend":0.0,"ch":9},{"t":174.219,"dur":0.325,"note":43,"inst":"celesta_v0_additive_3","vel":0.638,"bend":0.0,"ch":11},{"t":174.219,"dur":0.162,"note":57,"inst":"organ_v0_additive_1","vel":0.551,"bend":0.0,"ch":9},{"t":174.381,"dur":0.162,"note":53,"inst":"organ_v0_additive_1","vel":0.567,"bend":0.0,"ch":5},{"t":174.543,"dur":0.325,"note":48,"inst":"piano_v0_additive_0","vel":0.669,"bend":0.0,"ch":0},{"t":174.543,"dur":0.162,"note":62,"inst":"harpsichord_v0_additive_2","vel":0.425,"bend":0.0,"ch":14},{"t":174.706,"dur":0.162,"note":69,"inst":"organ_v0_additive_1","vel":0.575,"bend":0.0,"ch":5}]}