{"track_num":11,"title":"Thunder","duration":289.75,"start_time":3022.0,"n_events":490,"events":[{"t":0,"dur":0.059,"note":66,"inst":"harpsichord_v0_additive_2","vel":0.512,"bend":0.0,"ch":2},{"t":0,"dur":0.059,"note":73,"inst":"organ_v0_additive_1","vel":0.488,"bend":0.0,"ch":9},{"t":0.059,"dur":0.136,"note":64,"inst":"piano_v0_additive_0","vel":0.37,"bend":0.0,"ch":0},{"t":0.195,"dur":0.136,"note":57,"inst":"organ_v0_additive_1","vel":0.409,"bend":0.0,"ch":9},{"t":0.195,"dur":0.272,"note":69,"inst":"organ_v0_additive_1","vel":0.543,"bend":0.0,"ch":5},{"t":0.331,"dur":0.136,"note":61,"inst":"organ_v0_additive_1","vel":0.512,"bend":0.0,"ch":13},{"t":0.467,"dur":0.136,"note":64,"inst":"piano_v0_additive_0","vel":0.402,"bend":0.0,"ch":0},{"t":0.467,"dur":0.136,"note":71,"inst":"celesta_v0_additive_3","vel":0.646,"bend":0.0,"ch":7},{"t":0.603,"dur":0.136,"note":61,"inst":"organ_v0_additive_1","vel":0.465,"bend":0.0,"ch":13},{"t":0.738,"dur":0.136,"note":57,"inst":"organ_v0_additive_1","vel":0.346,"bend":0.0,"ch":9},{"t":0.738,"dur":0.136,"note":73,"inst":"organ_v0_additive_1","vel":0.614,"bend":0.0,"ch":9},{"t":0.874,"dur":0.136,"note":61,"inst":"organ_v0_additive_1","vel":0.394,"bend":0.0,"ch":13},{"t":38.027,"dur":0.137,"note":63,"inst":"celesta_v0_additive_3","vel":0.709,"bend":0.0,"ch":15},{"t":38.027,"dur":0.137,"note":78,"inst":"harpsichord_v0_additive_2","vel":0.709,"bend":0.0,"ch":14},{"t":38.164,"dur":0.137,"note":61,"inst":"organ_v0_additive_1","vel":0.709,"bend":0.0,"ch":13},{"t":38.164,"dur":0.137,"note":77,"inst":"organ_v0_additive_1","vel":0.709,"bend":0.0,"ch":13},{"t":38.301,"dur":0.137,"note":60,"inst":"piano_v0_additive_0","vel":0.756,"bend":0.0,"ch":12},{"t":38.301,"dur":0.137,"note":75,"inst":"celesta_v0_additive_3","vel":0.756,"bend":0.0,"ch":11},{"t":38.438,"dur":0.137,"note":61,"inst":"organ_v0_additive_1","vel":0.756,"bend":0.0,"ch":13},{"t":38.438,"dur":0.137,"note":77,"inst":"organ_v0_additive_1","vel":0.756,"bend":0.0,"ch":13},{"t":38.575,"dur":0.137,"note":63,"inst":"celesta_v0_additive_3","vel":0.756,"bend":0.0,"ch":15},{"t":38.575,"dur":0.137,"note":78,"inst":"harpsichord_v0_additive_2","vel":0.756,"bend":0.0,"ch":14},{"t":38.712,"dur":0.137,"note":61,"inst":"organ_v0_additive_1","vel":0.756,"bend":0.0,"ch":13},{"t":38.712,"dur":0.137,"note":77,"inst":"organ_v0_additive_1","vel":0.756,"bend":0.0,"ch":13},{"t":38.849,"dur":0.137,"note":60,"inst":"piano_v0_additive_0","vel":0.756,"bend":0.0,"ch":12},{"t":38.849,"dur":0.137,"note":75,"inst":"celesta_v0_additive_3","vel":0.756,"bend":0.0,"ch":11},{"t":38.986,"dur":0.137,"note":61,"inst":"organ_v0_additive_1","vel":0.756,"bend":0.0,"ch":13},{"t":38.986,"dur":0.137,"note":77,"inst":"organ_v0_additive_1","vel":0.756,"bend":0.0,"ch":13},{"t":39.123,"dur":0.137,"note":63,"inst":"celesta_v0_additive_3","vel":0.756,"bend":0.0,"ch":15},{"t":39.123,"dur":0.137,"note":78,"inst":"harpsichord_v0_additive_2","vel":0.756,"bend":0.0,"ch":14},{"t":39.26,"dur":0.137,"note":61,"inst":"organ_v0_additive_1","vel":0.756,"bend":0.0,"ch":13},{"t":39.26,"dur":0.137,"note":77,"inst":"organ_v0_additive_1","vel":0.756,"bend":0.0,"ch":13},{"t":39.397,"dur":1.096,"note":44,"inst":"piano_v0_additive_0","vel":0.709,"bend":0.0,"ch":12},{"t":39.397,"dur":1.37,"note":56,"inst":"piano_v0_additive_0","vel":0.709,"bend":0.0,"ch":8},{"t":39.397,"dur":0.137,"note":60,"inst":"piano_v0_additive_0","vel":0.756,"bend":0.0,"ch":12},{"t":39.397,"dur":0.137,"note":75,"inst":"celesta_v0_additive_3","vel":0.756,"bend":0.0,"ch":11},{"t":39.534,"dur":0.137,"note":68,"inst":"piano_v0_additive_0","vel":0.709,"bend":0.0,"ch":4},{"t":39.534,"dur":0.137,"note":84,"inst":"piano_v0_additive_0","vel":0.709,"bend":0.0,"ch":4},{"t":39.671,"dur":0.137,"note":72,"inst":"piano_v0_additive_0","vel":0.709,"bend":0.0,"ch":8},{"t":39.671,"dur":0.137,"note":87,"inst":"celesta_v0_additive_3","vel":0.709,"bend":0.0,"ch":7},{"t":39.808,"dur":0.137,"note":70,"inst":"harpsichord_v0_additive_2","vel":0.709,"bend":0.0,"ch":6},{"t":39.808,"dur":0.137,"note":85,"inst":"organ_v0_additive_1","vel":0.709,"bend":0.0,"ch":5},{"t":39.945,"dur":0.137,"note":68,"inst":"piano_v0_additive_0","vel":0.709,"bend":0.0,"ch":4},{"t":39.945,"dur":0.137,"note":84,"inst":"piano_v0_additive_0","vel":0.709,"bend":0.0,"ch":4},{"t":40.082,"dur":0.137,"note":66,"inst":"harpsichord_v0_additive_2","vel":0.709,"bend":0.0,"ch":2},{"t":40.082,"dur":0.137,"note":82,"inst":"harpsichord_v0_additive_2","vel":0.709,"bend":0.0,"ch":2},{"t":40.219,"dur":0.137,"note":65,"inst":"organ_v0_additive_1","vel":0.709,"bend":0.0,"ch":1},{"t":40.219,"dur":0.137,"note":80,"inst":"piano_v0_additive_0","vel":0.709,"bend":0.0,"ch":0},{"t":40.356,"dur":0.137,"note":63,"inst":"celesta_v0_additive_3","vel":0.709,"bend":0.0,"ch":15},{"t":40.356,"dur":0.137,"note":78,"inst":"harpsichord_v0_additive_2","vel":0.709,"bend":0.0,"ch":14},{"t":40.493,"dur":0.274,"note":49,"inst":"organ_v0_additive_1","vel":0.709,"bend":0.0,"ch":1},{"t":40.493,"dur":0.274,"note":61,"inst":"organ_v0_additive_1","vel":0.709,"bend":0.0,"ch":13},{"t":40.493,"dur":0.274,"note":77,"inst":"organ_v0_additive_1","vel":0.709,"bend":0.0,"ch":13},{"t":40.767,"dur":0.274,"note":53,"inst":"organ_v0_additive_1","vel":0.709,"bend":0.0,"ch":5},{"t":40.767,"dur":0.274,"note":65,"inst":"organ_v0_additive_1","vel":0.709,"bend":0.0,"ch":1},{"t":40.767,"dur":0.548,"note":73,"inst":"organ_v0_additive_1","vel":0.709,"bend":0.0,"ch":9},{"t":40.767,"dur":0.091,"note":80,"inst":"piano_v0_additive_0","vel":0.756,"bend":0.0,"ch":0},{"t":40.858,"dur":0.091,"note":77,"inst":"organ_v0_additive_1","vel":0.756,"bend":0.0,"ch":13},{"t":40.95,"dur":0.091,"note":73,"inst":"organ_v0_additive_1","vel":0.756,"bend":0.0,"ch":9},{"t":41.041,"dur":0.274,"note":54,"inst":"harpsichord_v0_additive_2","vel":0.709,"bend":0.0,"ch":6},{"t":41.041,"dur":0.274,"note":66,"inst":"harpsichord_v0_additive_2","vel":0.709,"bend":0.0,"ch":2},{"t":41.041,"dur":0.091,"note":82,"inst":"harpsichord_v0_additive_2","vel":0.709,"bend":0.0,"ch":2},{"t":41.132,"dur":0.091,"note":70,"inst":"harpsichord_v0_additive_2","vel":0.709,"bend":0.0,"ch":6},{"t":41.224,"dur":0.091,"note":82,"inst":"harpsichord_v0_additive_2","vel":0.709,"bend":0.0,"ch":2},{"t":41.315,"dur":0.274,"note":42,"inst":"harpsichord_v0_additive_2","vel":0.709,"bend":0.0,"ch":10},{"t":41.315,"dur":0.274,"note":61,"inst":"organ_v0_additive_1","vel":0.709,"bend":0.0,"ch":13},{"t":41.315,"dur":0.091,"note":70,"inst":"harpsichord_v0_additive_2","vel":0.756,"bend":0.0,"ch":6},{"t":41.315,"dur":0.091,"note":85,"inst":"organ_v0_additive_1","vel":0.756,"bend":0.0,"ch":5},{"t":41.406,"dur":0.091,"note":68,"inst":"piano_v0_additive_0","vel":0.756,"bend":0.0,"ch":4},{"t":41.406,"dur":0.091,"note":84,"inst":"piano_v0_additive_0","vel":0.756,"bend":0.0,"ch":4},{"t":41.498,"dur":0.091,"note":66,"inst":"harpsichord_v0_additive_2","vel":0.756,"bend":0.0,"ch":2},{"t":41.498,"dur":0.091,"note":82,"inst":"harpsichord_v0_additive_2","vel":0.756,"bend":0.0,"ch":2},{"t":41.589,"dur":0.274,"note":49,"inst":"organ_v0_additive_1","vel":0.709,"bend":0.0,"ch":1},{"t":41.589,"dur":0.274,"note":61,"inst":"organ_v0_additive_1","vel":0.709,"bend":0.0,"ch":13},{"t":41.589,"dur":0.274,"note":65,"inst":"organ_v0_additive_1","vel":0.709,"bend":0.0,"ch":1},{"t":41.589,"dur":0.274,"note":80,"inst":"piano_v0_additive_0","vel":0.709,"bend":0.0,"ch":0},{"t":41.863,"dur":0.274,"note":53,"inst":"organ_v0_additive_1","vel":0.709,"bend":0.0,"ch":5},{"t":41.863,"dur":0.274,"note":65,"inst":"organ_v0_additive_1","vel":0.709,"bend":0.0,"ch":1},{"t":41.863,"dur":0.548,"note":73,"inst":"organ_v0_additive_1","vel":0.709,"bend":0.0,"ch":9},{"t":41.863,"dur":0.091,"note":80,"inst":"piano_v0_additive_0","vel":0.709,"bend":0.0,"ch":0},{"t":41.954,"dur":0.091,"note":77,"inst":"organ_v0_additive_1","vel":0.709,"bend":0.0,"ch":13},{"t":42.046,"dur":0.091,"note":73,"inst":"organ_v0_additive_1","vel":0.709,"bend":0.0,"ch":9},{"t":42.137,"dur":0.274,"note":54,"inst":"harpsichord_v0_additive_2","vel":0.709,"bend":0.0,"ch":6},{"t":42.137,"dur":0.274,"note":66,"inst":"harpsichord_v0_additive_2","vel":0.709,"bend":0.0,"ch":2},{"t":42.137,"dur":0.091,"note":82,"inst":"harpsichord_v0_additive_2","vel":0.709,"bend":0.0,"ch":2},{"t":42.228,"dur":0.091,"note":70,"inst":"harpsichord_v0_additive_2","vel":0.709,"bend":0.0,"ch":6},{"t":42.32,"dur":0.091,"note":82,"inst":"harpsichord_v0_additive_2","vel":0.709,"bend":0.0,"ch":2},{"t":42.411,"dur":0.274,"note":42,"inst":"harpsichord_v0_additive_2","vel":0.709,"bend":0.0,"ch":10},{"t":42.411,"dur":0.274,"note":61,"inst":"organ_v0_additive_1","vel":0.709,"bend":0.0,"ch":13},{"t":42.411,"dur":0.091,"note":70,"inst":"harpsichord_v0_additive_2","vel":0.756,"bend":0.0,"ch":6},{"t":42.411,"dur":0.091,"note":85,"inst":"organ_v0_additive_1","vel":0.756,"bend":0.0,"ch":5},{"t":42.502,"dur":0.091,"note":68,"inst":"piano_v0_additive_0","vel":0.756,"bend":0.0,"ch":4},{"t":42.502,"dur":0.091,"note":84,"inst":"piano_v0_additive_0","vel":0.756,"bend":0.0,"ch":4},{"t":42.594,"dur":0.091,"note":66,"inst":"harpsichord_v0_additive_2","vel":0.756,"bend":0.0,"ch":2},{"t":42.594,"dur":0.091,"note":82,"inst":"harpsichord_v0_additive_2","vel":0.756,"bend":0.0,"ch":2},{"t":42.685,"dur":0.274,"note":49,"inst":"organ_v0_additive_1","vel":0.709,"bend":0.0,"ch":1},{"t":42.685,"dur":0.274,"note":61,"inst":"organ_v0_additive_1","vel":0.709,"bend":0.0,"ch":13},{"t":42.685,"dur":0.206,"note":65,"inst":"organ_v0_additive_1","vel":0.709,"bend":0.0,"ch":1},{"t":42.685,"dur":0.206,"note":80,"inst":"piano_v0_additive_0","vel":0.709,"bend":0.0,"ch":0},{"t":42.89,"dur":0.034,"note":66,"inst":"harpsichord_v0_additive_2","vel":0.709,"bend":0.0,"ch":2},{"t":42.89,"dur":0.034,"note":82,"inst":"harpsichord_v0_additive_2","vel":0.709,"bend":0.0,"ch":2},{"t":42.925,"dur":0.034,"note":68,"inst":"piano_v0_additive_0","vel":0.709,"bend":0.0,"ch":4},{"t":42.925,"dur":0.034,"note":84,"inst":"piano_v0_additive_0","vel":0.709,"bend":0.0,"ch":4},{"t":42.959,"dur":0.137,"note":70,"inst":"harpsichord_v0_additive_2","vel":0.756,"bend":0.0,"ch":6},{"t":42.959,"dur":0.137,"note":85,"inst":"organ_v0_additive_1","vel":0.756,"bend":0.0,"ch":5},{"t":43.096,"dur":0.137,"note":72,"inst":"piano_v0_additive_0","vel":0.756,"bend":0.0,"ch":8},{"t":43.096,"dur":0.137,"note":87,"inst":"celesta_v0_additive_3","vel":0.756,"bend":0.0,"ch":7},{"t":43.233,"dur":0.137,"note":73,"inst":"organ_v0_additive_1","vel":0.756,"bend":0.0,"ch":9},{"t":43.233,"dur":0.137,"note":89,"inst":"organ_v0_additive_1","vel":0.756,"bend":0.0,"ch":9},{"t":43.37,"dur":0.137,"note":72,"inst":"piano_v0_additive_0","vel":0.756,"bend":0.0,"ch":8},{"t":43.37,"dur":0.137,"note":87,"inst":"celesta_v0_additive_3","vel":0.756,"bend":0.0,"ch":7},{"t":43.507,"dur":0.137,"note":70,"inst":"harpsichord_v0_additive_2","vel":0.756,"bend":0.0,"ch":6},{"t":43.507,"dur":0.137,"note":85,"inst":"organ_v0_additive_1","vel":0.756,"bend":0.0,"ch":5},{"t":43.644,"dur":0.137,"note":68,"inst":"piano_v0_additive_0","vel":0.756,"bend":0.0,"ch":4},{"t":43.644,"dur":0.137,"note":84,"inst":"piano_v0_additive_0","vel":0.756,"bend":0.0,"ch":4},{"t":43.781,"dur":0.274,"note":66,"inst":"harpsichord_v0_additive_2","vel":0.709,"bend":0.0,"ch":2},{"t":43.781,"dur":0.274,"note":82,"inst":"harpsichord_v0_additive_2","vel":0.709,"bend":0.0,"ch":2},{"t":44.055,"dur":0.274,"note":54,"inst":"harpsichord_v0_additive_2","vel":0.709,"bend":0.0,"ch":6},{"t":44.055,"dur":0.274,"note":66,"inst":"harpsichord_v0_additive_2","vel":0.709,"bend":0.0,"ch":2},{"t":44.055,"dur":0.274,"note":66,"inst":"harpsichord_v0_additive_2","vel":0.709,"bend":0.0,"ch":2},{"t":44.055,"dur":0.274,"note":66,"inst":"harpsichord_v0_additive_2","vel":0.709,"bend":0.0,"ch":2},{"t":44.055,"dur":0.274,"note":73,"inst":"organ_v0_additive_1","vel":0.709,"bend":0.0,"ch":9},{"t":44.055,"dur":0.274,"note":73,"inst":"organ_v0_additive_1","vel":0.709,"bend":0.0,"ch":9},{"t":44.055,"dur":0.274,"note":82,"inst":"harpsichord_v0_additive_2","vel":0.709,"bend":0.0,"ch":2},{"t":44.055,"dur":0.274,"note":82,"inst":"harpsichord_v0_additive_2","vel":0.709,"bend":0.0,"ch":2},{"t":44.329,"dur":0.274,"note":56,"inst":"piano_v0_additive_0","vel":0.709,"bend":0.0,"ch":8},{"t":44.329,"dur":0.274,"note":65,"inst":"organ_v0_additive_1","vel":0.709,"bend":0.0,"ch":1},{"t":44.329,"dur":0.274,"note":65,"inst":"organ_v0_additive_1","vel":0.709,"bend":0.0,"ch":1},{"t":44.329,"dur":0.274,"note":68,"inst":"piano_v0_additive_0","vel":0.709,"bend":0.0,"ch":4},{"t":44.329,"dur":0.274,"note":73,"inst":"organ_v0_additive_1","vel":0.709,"bend":0.0,"ch":9},{"t":44.329,"dur":0.274,"note":73,"inst":"organ_v0_additive_1","vel":0.709,"bend":0.0,"ch":9},{"t":44.329,"dur":0.274,"note":80,"inst":"piano_v0_additive_0","vel":0.709,"bend":0.0,"ch":0},{"t":44.329,"dur":0.274,"note":80,"inst":"piano_v0_additive_0","vel":0.709,"bend":0.0,"ch":0},{"t":44.603,"dur":0.274,"note":44,"inst":"piano_v0_additive_0","vel":0.709,"bend":0.0,"ch":12},{"t":44.603,"dur":0.274,"note":56,"inst":"piano_v0_additive_0","vel":0.709,"bend":0.0,"ch":8},{"t":44.603,"dur":0.274,"note":63,"inst":"celesta_v0_additive_3","vel":0.709,"bend":0.0,"ch":15},{"t":44.603,"dur":0.274,"note":63,"inst":"celesta_v0_additive_3","vel":0.709,"bend":0.0,"ch":15},{"t":44.603,"dur":0.274,"note":66,"inst":"harpsichord_v0_additive_2","vel":0.709,"bend":0.0,"ch":2},{"t":44.603,"dur":0.274,"note":66,"inst":"harpsichord_v0_additive_2","vel":0.709,"bend":0.0,"ch":2},{"t":44.603,"dur":0.274,"note":72,"inst":"piano_v0_additive_0","vel":0.709,"bend":0.0,"ch":8},{"t":44.603,"dur":0.274,"note":72,"inst":"piano_v0_additive_0","vel":0.709,"bend":0.0,"ch":8},{"t":44.877,"dur":0.274,"note":49,"inst":"organ_v0_additive_1","vel":0.709,"bend":0.0,"ch":1},{"t":44.877,"dur":0.274,"note":61,"inst":"organ_v0_additive_1","vel":0.709,"bend":0.0,"ch":13},{"t":44.877,"dur":0.274,"note":61,"inst":"organ_v0_additive_1","vel":0.709,"bend":0.0,"ch":13},{"t":44.877,"dur":0.274,"note":61,"inst":"organ_v0_additive_1","vel":0.709,"bend":0.0,"ch":13},{"t":44.877,"dur":0.274,"note":65,"inst":"organ_v0_additive_1","vel":0.709,"bend":0.0,"ch":1},{"t":44.877,"dur":0.274,"note":65,"inst":"organ_v0_additive_1","vel":0.709,"bend":0.0,"ch":1},{"t":44.877,"dur":0.274,"note":73,"inst":"organ_v0_additive_1","vel":0.709,"bend":0.0,"ch":9},{"t":44.877,"dur":0.274,"note":73,"inst":"organ_v0_additive_1","vel":0.709,"bend":0.0,"ch":9},{"t":45.151,"dur":0.274,"note":53,"inst":"organ_v0_additive_1","vel":0.709,"bend":0.0,"ch":5},{"t":45.151,"dur":0.274,"note":65,"inst":"organ_v0_additive_1","vel":0.709,"bend":0.0,"ch":1},{"t":45.151,"dur":0.548,"note":73,"inst":"organ_v0_additive_1","vel":0.709,"bend":0.0,"ch":9},{"t":45.151,"dur":0.091,"note":80,"inst":"piano_v0_additive_0","vel":0.756,"bend":0.0,"ch":0},{"t":45.242,"dur":0.091,"note":77,"inst":"organ_v0_additive_1","vel":0.756,"bend":0.0,"ch":13},{"t":45.334,"dur":0.091,"note":73,"inst":"organ_v0_additive_1","vel":0.756,"bend":0.0,"ch":9},{"t":45.425,"dur":0.274,"note":54,"inst":"harpsichord_v0_additive_2","vel":0.709,"bend":0.0,"ch":6},{"t":45.425,"dur":0.274,"note":66,"inst":"harpsichord_v0_additive_2","vel":0.709,"bend":0.0,"ch":2},{"t":45.425,"dur":0.091,"note":82,"inst":"harpsichord_v0_additive_2","vel":0.709,"bend":0.0,"ch":2},{"t":45.516,"dur":0.091,"note":70,"inst":"harpsichord_v0_additive_2","vel":0.709,"bend":0.0,"ch":6},{"t":45.608,"dur":0.091,"note":82,"inst":"harpsichord_v0_additive_2","vel":0.709,"bend":0.0,"ch":2},{"t":45.699,"dur":0.274,"note":42,"inst":"harpsichord_v0_additive_2","vel":0.709,"bend":0.0,"ch":10},{"t":45.699,"dur":0.274,"note":61,"inst":"organ_v0_additive_1","vel":0.709,"bend":0.0,"ch":13},{"t":45.699,"dur":0.091,"note":70,"inst":"harpsichord_v0_additive_2","vel":0.756,"bend":0.0,"ch":6},{"t":45.699,"dur":0.091,"note":85,"inst":"organ_v0_additive_1","vel":0.756,"bend":0.0,"ch":5},{"t":45.79,"dur":0.091,"note":68,"inst":"piano_v0_additive_0","vel":0.756,"bend":0.0,"ch":4},{"t":45.79,"dur":0.091,"note":84,"inst":"piano_v0_additive_0","vel":0.756,"bend":0.0,"ch":4},{"t":45.882,"dur":0.091,"note":66,"inst":"harpsichord_v0_additive_2","vel":0.756,"bend":0.0,"ch":2},{"t":45.882,"dur":0.091,"note":82,"inst":"harpsichord_v0_additive_2","vel":0.756,"bend":0.0,"ch":2},{"t":45.973,"dur":0.274,"note":49,"inst":"organ_v0_additive_1","vel":0.709,"bend":0.0,"ch":1},{"t":45.973,"dur":0.274,"note":61,"inst":"organ_v0_additive_1","vel":0.709,"bend":0.0,"ch":13},{"t":45.973,"dur":0.274,"note":65,"inst":"organ_v0_additive_1","vel":0.709,"bend":0.0,"ch":1},{"t":45.973,"dur":0.274,"note":80,"inst":"piano_v0_additive_0","vel":0.709,"bend":0.0,"ch":0},{"t":46.247,"dur":0.274,"note":53,"inst":"organ_v0_additive_1","vel":0.709,"bend":0.0,"ch":5},{"t":46.247,"dur":0.274,"note":65,"inst":"organ_v0_additive_1","vel":0.709,"bend":0.0,"ch":1},{"t":46.247,"dur":0.548,"note":73,"inst":"organ_v0_additive_1","vel":0.709,"bend":0.0,"ch":9},{"t":46.247,"dur":0.091,"note":80,"inst":"piano_v0_additive_0","vel":0.709,"bend":0.0,"ch":0},{"t":46.338,"dur":0.091,"note":77,"inst":"organ_v0_additive_1","vel":0.709,"bend":0.0,"ch":13},{"t":46.43,"dur":0.091,"note":73,"inst":"organ_v0_additive_1","vel":0.709,"bend":0.0,"ch":9},{"t":46.521,"dur":0.274,"note":54,"inst":"harpsichord_v0_additive_2","vel":0.709,"bend":0.0,"ch":6},{"t":46.521,"dur":0.274,"note":66,"inst":"harpsichord_v0_additive_2","vel":0.709,"bend":0.0,"ch":2},{"t":46.521,"dur":0.091,"note":82,"inst":"harpsichord_v0_additive_2","vel":0.709,"bend":0.0,"ch":2},{"t":46.612,"dur":0.091,"note":70,"inst":"harpsichord_v0_additive_2","vel":0.709,"bend":0.0,"ch":6},{"t":46.704,"dur":0.091,"note":82,"inst":"harpsichord_v0_additive_2","vel":0.709,"bend":0.0,"ch":2},{"t":46.795,"dur":0.274,"note":42,"inst":"harpsichord_v0_additive_2","vel":0.709,"bend":0.0,"ch":10},{"t":46.795,"dur":0.274,"note":61,"inst":"organ_v0_additive_1","vel":0.709,"bend":0.0,"ch":13},{"t":46.795,"dur":0.091,"note":70,"inst":"harpsichord_v0_additive_2","vel":0.756,"bend":0.0,"ch":6},{"t":46.795,"dur":0.091,"note":85,"inst":"organ_v0_additive_1","vel":0.756,"bend":0.0,"ch":5},{"t":46.886,"dur":0.091,"note":68,"inst":"piano_v0_additive_0","vel":0.756,"bend":0.0,"ch":4},{"t":46.886,"dur":0.091,"note":84,"inst":"piano_v0_additive_0","vel":0.756,"bend":0.0,"ch":4},{"t":46.978,"dur":0.091,"note":66,"inst":"harpsichord_v0_additive_2","vel":0.756,"bend":0.0,"ch":2},{"t":46.978,"dur":0.091,"note":82,"inst":"harpsichord_v0_additive_2","vel":0.756,"bend":0.0,"ch":2},{"t":47.069,"dur":0.274,"note":49,"inst":"organ_v0_additive_1","vel":0.709,"bend":0.0,"ch":1},{"t":47.069,"dur":0.274,"note":61,"inst":"organ_v0_additive_1","vel":0.709,"bend":0.0,"ch":13},{"t":47.069,"dur":0.206,"note":65,"inst":"organ_v0_additive_1","vel":0.709,"bend":0.0,"ch":1},{"t":47.069,"dur":0.206,"note":80,"inst":"piano_v0_additive_0","vel":0.709,"bend":0.0,"ch":0},{"t":47.275,"dur":0.034,"note":66,"inst":"harpsichord_v0_additive_2","vel":0.709,"bend":0.0,"ch":2},{"t":47.275,"dur":0.034,"note":82,"inst":"harpsichord_v0_additive_2","vel":0.709,"bend":0.0,"ch":2},{"t":47.309,"dur":0.034,"note":68,"inst":"piano_v0_additive_0","vel":0.709,"bend":0.0,"ch":4},{"t":47.309,"dur":0.034,"note":84,"inst":"piano_v0_additive_0","vel":0.709,"bend":0.0,"ch":4},{"t":47.343,"dur":0.137,"note":70,"inst":"harpsichord_v0_additive_2","vel":0.756,"bend":0.0,"ch":6},{"t":47.343,"dur":0.137,"note":85,"inst":"organ_v0_additive_1","vel":0.756,"bend":0.0,"ch":5},{"t":47.48,"dur":0.137,"note":72,"inst":"piano_v0_additive_0","vel":0.756,"bend":0.0,"ch":8},{"t":47.48,"dur":0.137,"note":87,"inst":"celesta_v0_additive_3","vel":0.756,"bend":0.0,"ch":7},{"t":47.617,"dur":0.137,"note":73,"inst":"organ_v0_additive_1","vel":0.756,"bend":0.0,"ch":9},{"t":47.617,"dur":0.137,"note":89,"inst":"organ_v0_additive_1","vel":0.756,"bend":0.0,"ch":9},{"t":47.754,"dur":0.137,"note":72,"inst":"piano_v0_additive_0","vel":0.756,"bend":0.0,"ch":8},{"t":47.754,"dur":0.137,"note":87,"inst":"celesta_v0_additive_3","vel":0.756,"bend":0.0,"ch":7},{"t":47.891,"dur":0.137,"note":70,"inst":"harpsichord_v0_additive_2","vel":0.756,"bend":0.0,"ch":6},{"t":47.891,"dur":0.137,"note":85,"inst":"organ_v0_additive_1","vel":0.756,"bend":0.0,"ch":5},{"t":48.028,"dur":0.137,"note":68,"inst":"piano_v0_additive_0","vel":0.756,"bend":0.0,"ch":4},{"t":48.028,"dur":0.137,"note":84,"inst":"piano_v0_additive_0","vel":0.756,"bend":0.0,"ch":4},{"t":48.165,"dur":0.274,"note":66,"inst":"harpsichord_v0_additive_2","vel":0.709,"bend":0.0,"ch":2},{"t":48.165,"dur":0.274,"note":82,"inst":"harpsichord_v0_additive_2","vel":0.709,"bend":0.0,"ch":2},{"t":48.439,"dur":0.274,"note":54,"inst":"harpsichord_v0_additive_2","vel":0.709,"bend":0.0,"ch":6},{"t":48.439,"dur":0.274,"note":66,"inst":"harpsichord_v0_additive_2","vel":0.709,"bend":0.0,"ch":2},{"t":48.439,"dur":0.274,"note":66,"inst":"harpsichord_v0_additive_2","vel":0.709,"bend":0.0,"ch":2},{"t":48.439,"dur":0.274,"note":66,"inst":"harpsichord_v0_additive_2","vel":0.709,"bend":0.0,"ch":2},{"t":48.439,"dur":0.274,"note":73,"inst":"organ_v0_additive_1","vel":0.709,"bend":0.0,"ch":9},{"t":48.439,"dur":0.274,"note":73,"inst":"organ_v0_additive_1","vel":0.709,"bend":0.0,"ch":9},{"t":48.439,"dur":0.274,"note":82,"inst":"harpsichord_v0_additive_2","vel":0.709,"bend":0.0,"ch":2},{"t":48.439,"dur":0.274,"note":82,"inst":"harpsichord_v0_additive_2","vel":0.709,"bend":0.0,"ch":2},{"t":48.713,"dur":0.274,"note":56,"inst":"piano_v0_additive_0","vel":0.709,"bend":0.0,"ch":8},{"t":48.713,"dur":0.274,"note":65,"inst":"organ_v0_additive_1","vel":0.709,"bend":0.0,"ch":1},{"t":48.713,"dur":0.274,"note":65,"inst":"organ_v0_additive_1","vel":0.709,"bend":0.0,"ch":1},{"t":48.713,"dur":0.274,"note":68,"inst":"piano_v0_additive_0","vel":0.709,"bend":0.0,"ch":4},{"t":48.713,"dur":0.274,"note":73,"inst":"organ_v0_additive_1","vel":0.709,"bend":0.0,"ch":9},{"t":48.713,"dur":0.274,"note":73,"inst":"organ_v0_additive_1","vel":0.709,"bend":0.0,"ch":9},{"t":48.713,"dur":0.274,"note":80,"inst":"piano_v0_additive_0","vel":0.709,"bend":0.0,"ch":0},{"t":48.713,"dur":0.274,"note":80,"inst":"piano_v0_additive_0","vel":0.709,"bend":0.0,"ch":0},{"t":48.987,"dur":0.274,"note":44,"inst":"piano_v0_additive_0","vel":0.709,"bend":0.0,"ch":12},{"t":48.987,"dur":0.274,"note":56,"inst":"piano_v0_additive_0","vel":0.709,"bend":0.0,"ch":8},{"t":48.987,"dur":0.274,"note":63,"inst":"celesta_v0_additive_3","vel":0.709,"bend":0.0,"ch":15},{"t":48.987,"dur":0.274,"note":63,"inst":"celesta_v0_additive_3","vel":0.709,"bend":0.0,"ch":15},{"t":48.987,"dur":0.274,"note":66,"inst":"harpsichord_v0_additive_2","vel":0.709,"bend":0.0,"ch":2},{"t":48.987,"dur":0.274,"note":66,"inst":"harpsichord_v0_additive_2","vel":0.709,"bend":0.0,"ch":2},{"t":48.987,"dur":0.274,"note":72,"inst":"piano_v0_additive_0","vel":0.709,"bend":0.0,"ch":8},{"t":48.987,"dur":0.274,"note":72,"inst":"piano_v0_additive_0","vel":0.709,"bend":0.0,"ch":8},{"t":49.261,"dur":0.274,"note":49,"inst":"organ_v0_additive_1","vel":0.709,"bend":0.0,"ch":1},{"t":49.261,"dur":0.274,"note":61,"inst":"organ_v0_additive_1","vel":0.709,"bend":0.0,"ch":13},{"t":49.261,"dur":0.274,"note":61,"inst":"organ_v0_additive_1","vel":0.709,"bend":0.0,"ch":13},{"t":49.261,"dur":0.274,"note":61,"inst":"organ_v0_additive_1","vel":0.709,"bend":0.0,"ch":13},{"t":49.261,"dur":0.274,"note":65,"inst":"organ_v0_additive_1","vel":0.709,"bend":0.0,"ch":1},{"t":49.261,"dur":0.274,"note":65,"inst":"organ_v0_additive_1","vel":0.709,"bend":0.0,"ch":1},{"t":49.261,"dur":0.274,"note":73,"inst":"organ_v0_additive_1","vel":0.709,"bend":0.0,"ch":9},{"t":49.261,"dur":0.274,"note":73,"inst":"organ_v0_additive_1","vel":0.709,"bend":0.0,"ch":9},{"t":49.535,"dur":0.091,"note":65,"inst":"organ_v0_additive_1","vel":0.709,"bend":0.0,"ch":1},{"t":49.535,"dur":0.091,"note":68,"inst":"piano_v0_additive_0","vel":0.709,"bend":0.0,"ch":4},{"t":49.626,"dur":0.091,"note":66,"inst":"harpsichord_v0_additive_2","vel":0.709,"bend":0.0,"ch":2},{"t":49.626,"dur":0.091,"note":70,"inst":"harpsichord_v0_additive_2","vel":0.709,"bend":0.0,"ch":6},{"t":49.718,"dur":0.091,"note":65,"inst":"organ_v0_additive_1","vel":0.709,"bend":0.0,"ch":1},{"t":49.718,"dur":0.091,"note":68,"inst":"piano_v0_additive_0","vel":0.709,"bend":0.0,"ch":4},{"t":49.809,"dur":0.091,"note":63,"inst":"celesta_v0_additive_3","vel":0.709,"bend":0.0,"ch":15},{"t":49.809,"dur":0.091,"note":66,"inst":"harpsichord_v0_additive_2","vel":0.709,"bend":0.0,"ch":2},{"t":49.9,"dur":0.091,"note":65,"inst":"organ_v0_additive_1","vel":0.709,"bend":0.0,"ch":1},{"t":49.9,"dur":0.091,"note":68,"inst":"piano_v0_additive_0","vel":0.709,"bend":0.0,"ch":4},{"t":49.992,"dur":0.091,"note":63,"inst":"celesta_v0_additive_3","vel":0.709,"bend":0.0,"ch":15},{"t":49.992,"dur":0.091,"note":66,"inst":"harpsichord_v0_additive_2","vel":0.709,"bend":0.0,"ch":2},{"t":50.083,"dur":0.091,"note":61,"inst":"organ_v0_additive_1","vel":0.709,"bend":0.0,"ch":13},{"t":50.083,"dur":0.091,"note":65,"inst":"organ_v0_additive_1","vel":0.709,"bend":0.0,"ch":1},{"t":50.174,"dur":0.091,"note":63,"inst":"celesta_v0_additive_3","vel":0.709,"bend":0.0,"ch":15},{"t":50.174,"dur":0.091,"note":66,"inst":"harpsichord_v0_additive_2","vel":0.709,"bend":0.0,"ch":2},{"t":50.266,"dur":0.091,"note":61,"inst":"organ_v0_additive_1","vel":0.709,"bend":0.0,"ch":13},{"t":50.266,"dur":0.091,"note":65,"inst":"organ_v0_additive_1","vel":0.709,"bend":0.0,"ch":1},{"t":50.357,"dur":1.096,"note":56,"inst":"piano_v0_additive_0","vel":0.709,"bend":0.0,"ch":8},{"t":50.357,"dur":0.548,"note":60,"inst":"piano_v0_additive_0","vel":0.709,"bend":0.0,"ch":12},{"t":50.357,"dur":0.548,"note":63,"inst":"celesta_v0_additive_3","vel":0.709,"bend":0.0,"ch":15},{"t":50.357,"dur":0.091,"note":80,"inst":"piano_v0_additive_0","vel":0.709,"bend":0.0,"ch":0},{"t":50.449,"dur":0.091,"note":82,"inst":"harpsichord_v0_additive_2","vel":0.709,"bend":0.0,"ch":2},{"t":50.54,"dur":0.091,"note":80,"inst":"piano_v0_additive_0","vel":0.709,"bend":0.0,"ch":0},{"t":50.631,"dur":0.091,"note":78,"inst":"harpsichord_v0_additive_2","vel":0.709,"bend":0.0,"ch":14},{"t":50.723,"dur":0.091,"note":80,"inst":"piano_v0_additive_0","vel":0.709,"bend":0.0,"ch":0},{"t":50.814,"dur":0.091,"note":78,"inst":"harpsichord_v0_additive_2","vel":0.709,"bend":0.0,"ch":14},{"t":50.905,"dur":0.274,"note":61,"inst":"organ_v0_additive_1","vel":0.709,"bend":0.0,"ch":13},{"t":50.905,"dur":0.274,"note":65,"inst":"organ_v0_additive_1","vel":0.709,"bend":0.0,"ch":1},{"t":50.905,"dur":0.091,"note":77,"inst":"organ_v0_additive_1","vel":0.709,"bend":0.0,"ch":13},{"t":50.997,"dur":0.091,"note":78,"inst":"harpsichord_v0_additive_2","vel":0.709,"bend":0.0,"ch":14},{"t":51.088,"dur":0.091,"note":77,"inst":"organ_v0_additive_1","vel":0.709,"bend":0.0,"ch":13},{"t":51.179,"dur":0.274,"note":60,"inst":"piano_v0_additive_0","vel":0.709,"bend":0.0,"ch":12},{"t":51.179,"dur":0.274,"note":66,"inst":"harpsichord_v0_additive_2","vel":0.709,"bend":0.0,"ch":2},{"t":51.179,"dur":0.091,"note":75,"inst":"celesta_v0_additive_3","vel":0.709,"bend":0.0,"ch":11},{"t":51.271,"dur":0.091,"note":77,"inst":"organ_v0_additive_1","vel":0.709,"bend":0.0,"ch":13},{"t":51.362,"dur":0.091,"note":75,"inst":"celesta_v0_additive_3","vel":0.709,"bend":0.0,"ch":11},{"t":51.453,"dur":0.274,"note":49,"inst":"organ_v0_additive_1","vel":0.709,"bend":0.0,"ch":1},{"t":51.453,"dur":0.274,"note":61,"inst":"organ_v0_additive_1","vel":0.709,"bend":0.0,"ch":13},{"t":51.453,"dur":0.274,"note":65,"inst":"organ_v0_additive_1","vel":0.709,"bend":0.0,"ch":1},{"t":51.453,"dur":0.274,"note":73,"inst":"organ_v0_additive_1","vel":0.709,"bend":0.0,"ch":9},{"t":51.727,"dur":0.091,"note":65,"inst":"organ_v0_additive_1","vel":0.709,"bend":0.0,"ch":1},{"t":51.727,"dur":0.091,"note":68,"inst":"piano_v0_additive_0","vel":0.709,"bend":0.0,"ch":4},{"t":51.819,"dur":0.091,"note":66,"inst":"harpsichord_v0_additive_2","vel":0.709,"bend":0.0,"ch":2},{"t":51.819,"dur":0.091,"note":70,"inst":"harpsichord_v0_additive_2","vel":0.709,"bend":0.0,"ch":6},{"t":51.91,"dur":0.091,"note":65,"inst":"organ_v0_additive_1","vel":0.709,"bend":0.0,"ch":1},{"t":51.91,"dur":0.091,"note":68,"inst":"piano_v0_additive_0","vel":0.709,"bend":0.0,"ch":4},{"t":52.001,"dur":0.091,"note":63,"inst":"celesta_v0_additive_3","vel":0.709,"bend":0.0,"ch":15},{"t":52.001,"dur":0.091,"note":66,"inst":"harpsichord_v0_additive_2","vel":0.709,"bend":0.0,"ch":2},{"t":52.093,"dur":0.091,"note":65,"inst":"organ_v0_additive_1","vel":0.709,"bend":0.0,"ch":1},{"t":52.093,"dur":0.091,"note":68,"inst":"piano_v0_additive_0","vel":0.709,"bend":0.0,"ch":4},{"t":52.184,"dur":0.091,"note":63,"inst":"celesta_v0_additive_3","vel":0.709,"bend":0.0,"ch":15},{"t":52.184,"dur":0.091,"note":66,"inst":"harpsichord_v0_additive_2","vel":0.709,"bend":0.0,"ch":2},{"t":52.275,"dur":0.091,"note":61,"inst":"organ_v0_additive_1","vel":0.709,"bend":0.0,"ch":13},{"t":52.275,"dur":0.091,"note":65,"inst":"organ_v0_additive_1","vel":0.709,"bend":0.0,"ch":1},{"t":52.367,"dur":0.091,"note":63,"inst":"celesta_v0_additive_3","vel":0.709,"bend":0.0,"ch":15},{"t":52.367,"dur":0.091,"note":66,"inst":"harpsichord_v0_additive_2","vel":0.709,"bend":0.0,"ch":2},{"t":52.458,"dur":0.091,"note":61,"inst":"organ_v0_additive_1","vel":0.709,"bend":0.0,"ch":13},{"t":52.458,"dur":0.091,"note":65,"inst":"organ_v0_additive_1","vel":0.709,"bend":0.0,"ch":1},{"t":52.549,"dur":1.096,"note":56,"inst":"piano_v0_additive_0","vel":0.709,"bend":0.0,"ch":8},{"t":52.549,"dur":0.548,"note":60,"inst":"piano_v0_additive_0","vel":0.709,"bend":0.0,"ch":12},{"t":52.549,"dur":0.548,"note":63,"inst":"celesta_v0_additive_3","vel":0.709,"bend":0.0,"ch":15},{"t":52.549,"dur":0.091,"note":80,"inst":"piano_v0_additive_0","vel":0.709,"bend":0.0,"ch":0},{"t":52.641,"dur":0.091,"note":82,"inst":"harpsichord_v0_additive_2","vel":0.709,"bend":0.0,"ch":2},{"t":52.732,"dur":0.091,"note":80,"inst":"piano_v0_additive_0","vel":0.709,"bend":0.0,"ch":0},{"t":52.823,"dur":0.091,"note":78,"inst":"harpsichord_v0_additive_2","vel":0.709,"bend":0.0,"ch":14},{"t":52.915,"dur":0.091,"note":80,"inst":"piano_v0_additive_0","vel":0.709,"bend":0.0,"ch":0},{"t":53.006,"dur":0.091,"note":78,"inst":"harpsichord_v0_additive_2","vel":0.709,"bend":0.0,"ch":14},{"t":53.097,"dur":0.274,"note":61,"inst":"organ_v0_additive_1","vel":0.709,"bend":0.0,"ch":13},{"t":53.097,"dur":0.274,"note":65,"inst":"organ_v0_additive_1","vel":0.709,"bend":0.0,"ch":1},{"t":53.097,"dur":0.091,"note":77,"inst":"organ_v0_additive_1","vel":0.709,"bend":0.0,"ch":13},{"t":53.189,"dur":0.091,"note":78,"inst":"harpsichord_v0_additive_2","vel":0.709,"bend":0.0,"ch":14},{"t":53.28,"dur":0.091,"note":77,"inst":"organ_v0_additive_1","vel":0.709,"bend":0.0,"ch":13},{"t":53.371,"dur":0.274,"note":60,"inst":"piano_v0_additive_0","vel":0.709,"bend":0.0,"ch":12},{"t":53.371,"dur":0.274,"note":66,"inst":"harpsichord_v0_additive_2","vel":0.709,"bend":0.0,"ch":2},{"t":53.371,"dur":0.091,"note":75,"inst":"celesta_v0_additive_3","vel":0.709,"bend":0.0,"ch":11},{"t":53.463,"dur":0.091,"note":77,"inst":"organ_v0_additive_1","vel":0.709,"bend":0.0,"ch":13},{"t":53.554,"dur":0.091,"note":75,"inst":"celesta_v0_additive_3","vel":0.709,"bend":0.0,"ch":11},{"t":53.645,"dur":0.274,"note":49,"inst":"organ_v0_additive_1","vel":0.709,"bend":0.0,"ch":1},{"t":53.645,"dur":0.274,"note":61,"inst":"organ_v0_additive_1","vel":0.709,"bend":0.0,"ch":13},{"t":53.645,"dur":0.274,"note":65,"inst":"organ_v0_additive_1","vel":0.709,"bend":0.0,"ch":1},{"t":53.645,"dur":0.274,"note":73,"inst":"organ_v0_additive_1","vel":0.709,"bend":0.0,"ch":9},{"t":53.919,"dur":0.274,"note":49,"inst":"organ_v0_additive_1","vel":0.709,"bend":0.0,"ch":1},{"t":53.919,"dur":0.274,"note":61,"inst":"organ_v0_additive_1","vel":0.709,"bend":0.0,"ch":13},{"t":53.919,"dur":0.274,"note":61,"inst":"organ_v0_additive_1","vel":0.709,"bend":0.0,"ch":13},{"t":53.919,"dur":0.274,"note":65,"inst":"organ_v0_additive_1","vel":0.709,"bend":0.0,"ch":1},{"t":53.919,"dur":0.274,"note":65,"inst":"organ_v0_additive_1","vel":0.709,"bend":0.0,"ch":1},{"t":53.919,"dur":0.274,"note":68,"inst":"piano_v0_additive_0","vel":0.709,"bend":0.0,"ch":4},{"t":53.919,"dur":0.274,"note":73,"inst":"organ_v0_additive_1","vel":0.709,"bend":0.0,"ch":9},{"t":53.919,"dur":0.274,"note":77,"inst":"organ_v0_additive_1","vel":0.709,"bend":0.0,"ch":13},{"t":53.919,"dur":0.274,"note":85,"inst":"organ_v0_additive_1","vel":0.709,"bend":0.0,"ch":5},{"t":54.193,"dur":0.274,"note":49,"inst":"organ_v0_additive_1","vel":0.709,"bend":0.0,"ch":1},{"t":54.193,"dur":0.274,"note":61,"inst":"organ_v0_additive_1","vel":0.709,"bend":0.0,"ch":13},{"t":54.193,"dur":0.274,"note":61,"inst":"organ_v0_additive_1","vel":0.709,"bend":0.0,"ch":13},{"t":54.193,"dur":0.274,"note":61,"inst":"organ_v0_additive_1","vel":0.709,"bend":0.0,"ch":13},{"t":54.741,"dur":0.274,"note":49,"inst":"organ_v0_additive_1","vel":0.709,"bend":0.0,"ch":1},{"t":54.741,"dur":0.274,"note":65,"inst":"organ_v0_additive_1","vel":0.709,"bend":0.0,"ch":1},{"t":54.878,"dur":0.137,"note":68,"inst":"piano_v0_additive_0","vel":0.709,"bend":0.0,"ch":4},{"t":54.878,"dur":0.137,"note":80,"inst":"piano_v0_additive_0","vel":0.709,"bend":0.0,"ch":0},{"t":55.015,"dur":0.137,"note":65,"inst":"organ_v0_additive_1","vel":0.709,"bend":0.0,"ch":1},{"t":55.015,"dur":0.137,"note":77,"inst":"organ_v0_additive_1","vel":0.709,"bend":0.0,"ch":13},{"t":55.152,"dur":0.137,"note":61,"inst":"organ_v0_additive_1","vel":0.709,"bend":0.0,"ch":13},{"t":55.152,"dur":0.137,"note":73,"inst":"organ_v0_additive_1","vel":0.709,"bend":0.0,"ch":9},{"t":55.289,"dur":0.274,"note":53,"inst":"organ_v0_additive_1","vel":0.709,"bend":0.0,"ch":5},{"t":55.289,"dur":0.274,"note":56,"inst":"piano_v0_additive_0","vel":0.709,"bend":0.0,"ch":8},{"t":55.426,"dur":0.137,"note":68,"inst":"piano_v0_additive_0","vel":0.709,"bend":0.0,"ch":4},{"t":55.426,"dur":0.137,"note":80,"inst":"piano_v0_additive_0","vel":0.709,"bend":0.0,"ch":0},{"t":206.039,"dur":0.076,"note":79,"inst":"celesta_v0_additive_3","vel":0.512,"bend":0.0,"ch":15},{"t":206.04,"dur":0.143,"note":48,"inst":"piano_v0_additive_0","vel":0.323,"bend":0.0,"ch":0},{"t":206.057,"dur":0.027,"note":67,"inst":"celesta_v0_additive_3","vel":0.339,"bend":0.0,"ch":3},{"t":206.171,"dur":0.072,"note":51,"inst":"celesta_v0_additive_3","vel":0.268,"bend":0.0,"ch":3},{"t":206.29,"dur":0.193,"note":58,"inst":"harpsichord_v0_additive_2","vel":0.165,"bend":0.0,"ch":10},{"t":206.296,"dur":0.113,"note":79,"inst":"celesta_v0_additive_3","vel":0.512,"bend":0.0,"ch":15},{"t":206.315,"dur":0.035,"note":67,"inst":"celesta_v0_additive_3","vel":0.299,"bend":0.0,"ch":3},{"t":206.399,"dur":0.032,"note":51,"inst":"celesta_v0_additive_3","vel":0.323,"bend":0.0,"ch":3},{"t":206.669,"dur":0.423,"note":51,"inst":"celesta_v0_additive_3","vel":0.268,"bend":0.0,"ch":3},{"t":206.669,"dur":0.485,"note":79,"inst":"celesta_v0_additive_3","vel":0.449,"bend":0.0,"ch":15},{"t":206.682,"dur":0.357,"note":67,"inst":"celesta_v0_additive_3","vel":0.22,"bend":0.0,"ch":3},{"t":206.876,"dur":0.105,"note":43,"inst":"celesta_v0_additive_3","vel":0.236,"bend":0.0,"ch":11},{"t":207.027,"dur":0.066,"note":58,"inst":"harpsichord_v0_additive_2","vel":0.197,"bend":0.0,"ch":10},{"t":207.121,"dur":0.109,"note":43,"inst":"celesta_v0_additive_3","vel":0.244,"bend":0.0,"ch":11},{"t":207.257,"dur":0.115,"note":51,"inst":"celesta_v0_additive_3","vel":0.213,"bend":0.0,"ch":3},{"t":207.357,"dur":0.058,"note":43,"inst":"celesta_v0_additive_3","vel":0.283,"bend":0.0,"ch":11},{"t":207.473,"dur":0.109,"note":87,"inst":"celesta_v0_additive_3","vel":0.535,"bend":0.0,"ch":7},{"t":207.494,"dur":0.035,"note":75,"inst":"celesta_v0_additive_3","vel":0.173,"bend":0.0,"ch":11},{"t":207.5,"dur":0.045,"note":58,"inst":"harpsichord_v0_additive_2","vel":0.142,"bend":0.0,"ch":10},{"t":207.558,"dur":0.097,"note":43,"inst":"celesta_v0_additive_3","vel":0.26,"bend":0.0,"ch":11},{"t":207.573,"dur":0.147,"note":79,"inst":"celesta_v0_additive_3","vel":0.606,"bend":0.0,"ch":15},{"t":207.692,"dur":0.327,"note":51,"inst":"celesta_v0_additive_3","vel":0.252,"bend":0.0,"ch":3},{"t":207.701,"dur":0.15,"note":91,"inst":"celesta_v0_additive_3","vel":0.63,"bend":0.0,"ch":11},{"t":207.713,"dur":0.064,"note":79,"inst":"celesta_v0_additive_3","vel":0.417,"bend":0.0,"ch":15},{"t":207.816,"dur":0.055,"note":55,"inst":"celesta_v0_additive_3","vel":0.323,"bend":0.0,"ch":7},{"t":207.917,"dur":0.032,"note":79,"inst":"celesta_v0_additive_3","vel":0.583,"bend":0.0,"ch":15},{"t":207.931,"dur":0.057,"note":60,"inst":"piano_v0_additive_0","vel":0.118,"bend":0.0,"ch":12},{"t":207.992,"dur":0.023,"note":55,"inst":"celesta_v0_additive_3","vel":0.378,"bend":0.0,"ch":7},{"t":208.035,"dur":0.027,"note":87,"inst":"celesta_v0_additive_3","vel":0.583,"bend":0.0,"ch":7},{"t":208.054,"dur":0.028,"note":75,"inst":"celesta_v0_additive_3","vel":0.268,"bend":0.0,"ch":11},{"t":208.201,"dur":0.471,"note":87,"inst":"celesta_v0_additive_3","vel":0.504,"bend":0.0,"ch":7},{"t":208.205,"dur":0.231,"note":43,"inst":"celesta_v0_additive_3","vel":0.346,"bend":0.0,"ch":11},{"t":208.225,"dur":0.524,"note":75,"inst":"celesta_v0_additive_3","vel":0.165,"bend":0.0,"ch":11},{"t":208.343,"dur":0.052,"note":58,"inst":"harpsichord_v0_additive_2","vel":0.315,"bend":0.0,"ch":10},{"t":208.464,"dur":0.185,"note":63,"inst":"celesta_v0_additive_3","vel":0.299,"bend":0.0,"ch":15},{"t":208.567,"dur":0.102,"note":58,"inst":"harpsichord_v0_additive_2","vel":0.323,"bend":0.0,"ch":10},{"t":208.684,"dur":0.258,"note":43,"inst":"celesta_v0_additive_3","vel":0.331,"bend":0.0,"ch":11},{"t":208.793,"dur":0.079,"note":58,"inst":"harpsichord_v0_additive_2","vel":0.315,"bend":0.0,"ch":10},{"t":208.91,"dur":0.191,"note":63,"inst":"celesta_v0_additive_3","vel":0.252,"bend":0.0,"ch":15},{"t":208.995,"dur":0.172,"note":58,"inst":"harpsichord_v0_additive_2","vel":0.283,"bend":0.0,"ch":10},{"t":209.116,"dur":0.186,"note":43,"inst":"celesta_v0_additive_3","vel":0.283,"bend":0.0,"ch":11},{"t":209.117,"dur":0.258,"note":84,"inst":"piano_v0_additive_0","vel":0.449,"bend":0.0,"ch":4},{"t":209.13,"dur":0.354,"note":72,"inst":"piano_v0_additive_0","vel":0.276,"bend":0.0,"ch":8},{"t":209.267,"dur":0.072,"note":58,"inst":"harpsichord_v0_additive_2","vel":0.118,"bend":0.0,"ch":10},{"t":209.391,"dur":0.087,"note":60,"inst":"piano_v0_additive_0","vel":0.276,"bend":0.0,"ch":12},{"t":209.506,"dur":0.061,"note":58,"inst":"harpsichord_v0_additive_2","vel":0.22,"bend":0.0,"ch":10},{"t":209.817,"dur":0.321,"note":51,"inst":"celesta_v0_additive_3","vel":0.323,"bend":0.0,"ch":3},{"t":209.888,"dur":0.552,"note":67,"inst":"celesta_v0_additive_3","vel":0.52,"bend":0.0,"ch":3},{"t":209.918,"dur":1.35,"note":70,"inst":"harpsichord_v0_additive_2","vel":0.236,"bend":0.0,"ch":6},{"t":210.048,"dur":0.129,"note":43,"inst":"celesta_v0_additive_3","vel":0.315,"bend":0.0,"ch":11},{"t":210.208,"dur":0.205,"note":58,"inst":"harpsichord_v0_additive_2","vel":0.197,"bend":0.0,"ch":10},{"t":210.323,"dur":0.102,"note":43,"inst":"celesta_v0_additive_3","vel":0.276,"bend":0.0,"ch":11},{"t":210.444,"dur":0.172,"note":51,"inst":"celesta_v0_additive_3","vel":0.276,"bend":0.0,"ch":3},{"t":210.563,"dur":0.072,"note":43,"inst":"celesta_v0_additive_3","vel":0.315,"bend":0.0,"ch":11},{"t":210.66,"dur":0.051,"note":77,"inst":"organ_v0_additive_1","vel":0.48,"bend":0.0,"ch":13},{"t":210.688,"dur":0.277,"note":58,"inst":"harpsichord_v0_additive_2","vel":0.236,"bend":0.0,"ch":10},{"t":210.764,"dur":0.139,"note":43,"inst":"celesta_v0_additive_3","vel":0.291,"bend":0.0,"ch":11},{"t":210.778,"dur":0.399,"note":67,"inst":"celesta_v0_additive_3","vel":0.528,"bend":0.0,"ch":3},{"t":210.881,"dur":0.288,"note":79,"inst":"celesta_v0_additive_3","vel":0.575,"bend":0.0,"ch":15},{"t":210.894,"dur":0.279,"note":51,"inst":"celesta_v0_additive_3","vel":0.315,"bend":0.0,"ch":3},{"t":211.013,"dur":0.047,"note":55,"inst":"celesta_v0_additive_3","vel":0.291,"bend":0.0,"ch":7},{"t":211.103,"dur":0.136,"note":82,"inst":"harpsichord_v0_additive_2","vel":0.535,"bend":0.0,"ch":2},{"t":211.122,"dur":0.048,"note":58,"inst":"harpsichord_v0_additive_2","vel":0.26,"bend":0.0,"ch":10},{"t":211.179,"dur":0.03,"note":55,"inst":"celesta_v0_additive_3","vel":0.244,"bend":0.0,"ch":7},{"t":211.212,"dur":0.047,"note":82,"inst":"harpsichord_v0_additive_2","vel":0.575,"bend":0.0,"ch":2},{"t":211.378,"dur":0.843,"note":75,"inst":"celesta_v0_additive_3","vel":0.575,"bend":0.0,"ch":11},{"t":211.39,"dur":0.233,"note":43,"inst":"celesta_v0_additive_3","vel":0.386,"bend":0.0,"ch":11},{"t":211.42,"dur":0.76,"note":70,"inst":"harpsichord_v0_additive_2","vel":0.11,"bend":0.0,"ch":6},{"t":211.424,"dur":0.784,"note":55,"inst":"celesta_v0_additive_3","vel":0.1,"bend":0.0,"ch":7},{"t":211.523,"dur":0.087,"note":58,"inst":"harpsichord_v0_additive_2","vel":0.362,"bend":0.0,"ch":10},{"t":211.638,"dur":0.19,"note":63,"inst":"celesta_v0_additive_3","vel":0.425,"bend":0.0,"ch":15},{"t":211.74,"dur":0.113,"note":58,"inst":"harpsichord_v0_additive_2","vel":0.346,"bend":0.0,"ch":10},{"t":211.86,"dur":0.151,"note":43,"inst":"celesta_v0_additive_3","vel":0.402,"bend":0.0,"ch":11},{"t":211.973,"dur":0.068,"note":58,"inst":"harpsichord_v0_additive_2","vel":0.354,"bend":0.0,"ch":10},{"t":212.086,"dur":0.143,"note":75,"inst":"celesta_v0_additive_3","vel":0.567,"bend":0.0,"ch":11},{"t":212.088,"dur":0.081,"note":63,"inst":"celesta_v0_additive_3","vel":0.315,"bend":0.0,"ch":15},{"t":212.154,"dur":0.187,"note":58,"inst":"harpsichord_v0_additive_2","vel":0.402,"bend":0.0,"ch":10},{"t":212.188,"dur":0.472,"note":67,"inst":"celesta_v0_additive_3","vel":0.551,"bend":0.0,"ch":3},{"t":212.302,"dur":0.498,"note":43,"inst":"celesta_v0_additive_3","vel":0.378,"bend":0.0,"ch":11},{"t":212.32,"dur":0.333,"note":75,"inst":"celesta_v0_additive_3","vel":0.567,"bend":0.0,"ch":11},{"t":212.411,"dur":0.11,"note":60,"inst":"piano_v0_additive_0","vel":0.15,"bend":0.0,"ch":12},{"t":212.55,"dur":0.081,"note":63,"inst":"celesta_v0_additive_3","vel":0.331,"bend":0.0,"ch":15},{"t":212.553,"dur":0.218,"note":75,"inst":"celesta_v0_additive_3","vel":0.512,"bend":0.0,"ch":11},{"t":212.669,"dur":0.136,"note":63,"inst":"celesta_v0_additive_3","vel":0.386,"bend":0.0,"ch":15},{"t":212.67,"dur":0.174,"note":72,"inst":"piano_v0_additive_0","vel":0.441,"bend":0.0,"ch":8},{"t":212.829,"dur":0.123,"note":70,"inst":"harpsichord_v0_additive_2","vel":0.409,"bend":0.0,"ch":6},{"t":212.832,"dur":0.045,"note":63,"inst":"celesta_v0_additive_3","vel":0.252,"bend":0.0,"ch":15},{"t":212.833,"dur":0.243,"note":58,"inst":"harpsichord_v0_additive_2","vel":0.276,"bend":0.0,"ch":10},{"t":213.097,"dur":0.065,"note":43,"inst":"celesta_v0_additive_3","vel":0.276,"bend":0.0,"ch":11},{"t":213.098,"dur":0.264,"note":67,"inst":"celesta_v0_additive_3","vel":0.441,"bend":0.0,"ch":3},{"t":213.1,"dur":0.243,"note":63,"inst":"celesta_v0_additive_3","vel":0.339,"bend":0.0,"ch":15},{"t":213.105,"dur":0.072,"note":70,"inst":"harpsichord_v0_additive_2","vel":0.315,"bend":0.0,"ch":6},{"t":213.333,"dur":0.232,"note":63,"inst":"celesta_v0_additive_3","vel":0.37,"bend":0.0,"ch":15},{"t":213.333,"dur":0.219,"note":79,"inst":"celesta_v0_additive_3","vel":0.472,"bend":0.0,"ch":15},{"t":213.34,"dur":0.093,"note":43,"inst":"celesta_v0_additive_3","vel":0.291,"bend":0.0,"ch":11},{"t":213.347,"dur":0.133,"note":70,"inst":"harpsichord_v0_additive_2","vel":0.402,"bend":0.0,"ch":6},{"t":213.565,"dur":0.049,"note":43,"inst":"celesta_v0_additive_3","vel":0.299,"bend":0.0,"ch":11},{"t":213.568,"dur":0.063,"note":67,"inst":"celesta_v0_additive_3","vel":0.457,"bend":0.0,"ch":3},{"t":213.583,"dur":0.075,"note":63,"inst":"celesta_v0_additive_3","vel":0.354,"bend":0.0,"ch":15},{"t":213.597,"dur":0.04,"note":70,"inst":"harpsichord_v0_additive_2","vel":0.276,"bend":0.0,"ch":6},{"t":213.808,"dur":0.099,"note":67,"inst":"celesta_v0_additive_3","vel":0.441,"bend":0.0,"ch":3},{"t":213.816,"dur":0.243,"note":70,"inst":"harpsichord_v0_additive_2","vel":0.425,"bend":0.0,"ch":6},{"t":213.82,"dur":0.087,"note":43,"inst":"celesta_v0_additive_3","vel":0.102,"bend":0.0,"ch":11},{"t":213.823,"dur":0.236,"note":60,"inst":"piano_v0_additive_0","vel":0.323,"bend":0.0,"ch":12},{"t":214.024,"dur":0.259,"note":43,"inst":"celesta_v0_additive_3","vel":0.323,"bend":0.0,"ch":11},{"t":214.03,"dur":0.098,"note":67,"inst":"celesta_v0_additive_3","vel":0.402,"bend":0.0,"ch":3},{"t":214.038,"dur":0.225,"note":63,"inst":"celesta_v0_additive_3","vel":0.331,"bend":0.0,"ch":15},{"t":214.041,"dur":0.28,"note":70,"inst":"harpsichord_v0_additive_2","vel":0.394,"bend":0.0,"ch":6},{"t":214.27,"dur":0.103,"note":67,"inst":"celesta_v0_additive_3","vel":0.417,"bend":0.0,"ch":3},{"t":214.281,"dur":0.085,"note":70,"inst":"harpsichord_v0_additive_2","vel":0.394,"bend":0.0,"ch":6},{"t":214.282,"dur":0.05,"note":63,"inst":"celesta_v0_additive_3","vel":0.291,"bend":0.0,"ch":15},{"t":214.296,"dur":0.224,"note":58,"inst":"harpsichord_v0_additive_2","vel":0.252,"bend":0.0,"ch":10},{"t":214.504,"dur":0.293,"note":67,"inst":"celesta_v0_additive_3","vel":0.472,"bend":0.0,"ch":3},{"t":214.513,"dur":0.058,"note":43,"inst":"celesta_v0_additive_3","vel":0.181,"bend":0.0,"ch":11},{"t":214.516,"dur":0.063,"note":70,"inst":"harpsichord_v0_additive_2","vel":0.378,"bend":0.0,"ch":6},{"t":214.518,"dur":0.23,"note":63,"inst":"celesta_v0_additive_3","vel":0.323,"bend":0.0,"ch":15},{"t":214.739,"dur":0.262,"note":82,"inst":"harpsichord_v0_additive_2","vel":0.449,"bend":0.0,"ch":2},{"t":214.744,"dur":0.07,"note":43,"inst":"celesta_v0_additive_3","vel":0.236,"bend":0.0,"ch":11},{"t":214.745,"dur":0.123,"note":70,"inst":"harpsichord_v0_additive_2","vel":0.362,"bend":0.0,"ch":6},{"t":214.748,"dur":0.232,"note":63,"inst":"celesta_v0_additive_3","vel":0.283,"bend":0.0,"ch":15},{"t":214.75,"dur":0.111,"note":79,"inst":"celesta_v0_additive_3","vel":0.323,"bend":0.0,"ch":15},{"t":214.97,"dur":0.059,"note":67,"inst":"celesta_v0_additive_3","vel":0.457,"bend":0.0,"ch":3},{"t":214.972,"dur":0.059,"note":43,"inst":"celesta_v0_additive_3","vel":0.26,"bend":0.0,"ch":11},{"t":214.974,"dur":0.07,"note":63,"inst":"celesta_v0_additive_3","vel":0.339,"bend":0.0,"ch":15},{"t":214.979,"dur":0.089,"note":70,"inst":"harpsichord_v0_additive_2","vel":0.307,"bend":0.0,"ch":6},{"t":215.204,"dur":0.107,"note":70,"inst":"harpsichord_v0_additive_2","vel":0.409,"bend":0.0,"ch":6},{"t":215.21,"dur":0.075,"note":43,"inst":"celesta_v0_additive_3","vel":0.236,"bend":0.0,"ch":11},{"t":215.21,"dur":0.1,"note":67,"inst":"celesta_v0_additive_3","vel":0.394,"bend":0.0,"ch":3},{"t":215.218,"dur":0.227,"note":60,"inst":"piano_v0_additive_0","vel":0.276,"bend":0.0,"ch":12},{"t":215.323,"dur":0.115,"note":70,"inst":"harpsichord_v0_additive_2","vel":0.441,"bend":0.0,"ch":6},{"t":215.431,"dur":0.117,"note":70,"inst":"harpsichord_v0_additive_2","vel":0.433,"bend":0.0,"ch":6},{"t":215.434,"dur":0.101,"note":67,"inst":"celesta_v0_additive_3","vel":0.378,"bend":0.0,"ch":3},{"t":215.436,"dur":0.219,"note":63,"inst":"celesta_v0_additive_3","vel":0.291,"bend":0.0,"ch":15},{"t":215.55,"dur":0.135,"note":72,"inst":"piano_v0_additive_0","vel":0.378,"bend":0.0,"ch":8},{"t":215.683,"dur":0.071,"note":67,"inst":"celesta_v0_additive_3","vel":0.378,"bend":0.0,"ch":3},{"t":215.686,"dur":0.128,"note":70,"inst":"harpsichord_v0_additive_2","vel":0.417,"bend":0.0,"ch":6},{"t":215.696,"dur":0.093,"note":63,"inst":"celesta_v0_additive_3","vel":0.228,"bend":0.0,"ch":15},{"t":215.701,"dur":0.209,"note":58,"inst":"harpsichord_v0_additive_2","vel":0.228,"bend":0.0,"ch":10}]}