{"track_num":2,"title":"Torrent","duration":294.0,"start_time":251.75,"n_events":161,"events":[{"t":0.281,"dur":0.155,"note":52,"inst":"piano_v0_additive_0","vel":0.992,"bend":0.0,"ch":4},{"t":0.436,"dur":0.155,"note":52,"inst":"piano_v0_additive_0","vel":0.992,"bend":0.0,"ch":4},{"t":0.591,"dur":0.465,"note":47,"inst":"celesta_v0_additive_3","vel":0.756,"bend":0.0,"ch":15},{"t":0.591,"dur":0.465,"note":61,"inst":"organ_v0_additive_1","vel":1.0,"bend":0.0,"ch":13},{"t":1.055,"dur":0.465,"note":44,"inst":"piano_v0_additive_0","vel":0.709,"bend":0.0,"ch":12},{"t":1.055,"dur":0.465,"note":47,"inst":"celesta_v0_additive_3","vel":0.709,"bend":0.0,"ch":15},{"t":1.055,"dur":0.465,"note":59,"inst":"celesta_v0_additive_3","vel":0.543,"bend":0.0,"ch":11},{"t":1.52,"dur":0.155,"note":52,"inst":"piano_v0_additive_0","vel":0.496,"bend":0.0,"ch":4},{"t":1.675,"dur":0.155,"note":52,"inst":"piano_v0_additive_0","vel":0.496,"bend":0.0,"ch":4},{"t":1.83,"dur":0.155,"note":54,"inst":"harpsichord_v0_additive_2","vel":0.496,"bend":0.0,"ch":6},{"t":1.985,"dur":0.465,"note":42,"inst":"harpsichord_v0_additive_2","vel":0.709,"bend":0.0,"ch":10},{"t":1.985,"dur":0.465,"note":47,"inst":"celesta_v0_additive_3","vel":0.709,"bend":0.0,"ch":15},{"t":1.985,"dur":0.465,"note":59,"inst":"celesta_v0_additive_3","vel":0.543,"bend":0.0,"ch":11},{"t":2.449,"dur":0.465,"note":40,"inst":"piano_v0_additive_0","vel":0.709,"bend":0.0,"ch":8},{"t":2.449,"dur":0.465,"note":44,"inst":"piano_v0_additive_0","vel":0.709,"bend":0.0,"ch":12},{"t":2.449,"dur":0.465,"note":56,"inst":"piano_v0_additive_0","vel":0.543,"bend":0.0,"ch":8},{"t":2.914,"dur":0.155,"note":64,"inst":"piano_v0_additive_0","vel":0.992,"bend":0.0,"ch":0},{"t":3.069,"dur":0.155,"note":66,"inst":"harpsichord_v0_additive_2","vel":0.992,"bend":0.0,"ch":2},{"t":3.224,"dur":0.155,"note":68,"inst":"piano_v0_additive_0","vel":0.992,"bend":0.0,"ch":4},{"t":3.379,"dur":0.465,"note":37,"inst":"organ_v0_additive_1","vel":0.709,"bend":0.0,"ch":5},{"t":3.379,"dur":0.465,"note":40,"inst":"piano_v0_additive_0","vel":0.709,"bend":0.0,"ch":8},{"t":3.379,"dur":0.465,"note":47,"inst":"celesta_v0_additive_3","vel":0.709,"bend":0.0,"ch":15},{"t":3.379,"dur":0.465,"note":59,"inst":"celesta_v0_additive_3","vel":1.0,"bend":0.0,"ch":11},{"t":3.843,"dur":0.465,"note":40,"inst":"piano_v0_additive_0","vel":0.709,"bend":0.0,"ch":8},{"t":3.843,"dur":0.465,"note":42,"inst":"harpsichord_v0_additive_2","vel":0.709,"bend":0.0,"ch":10},{"t":3.843,"dur":0.465,"note":47,"inst":"celesta_v0_additive_3","vel":0.709,"bend":0.0,"ch":15},{"t":3.843,"dur":0.465,"note":59,"inst":"celesta_v0_additive_3","vel":1.0,"bend":0.0,"ch":11},{"t":4.308,"dur":0.155,"note":52,"inst":"piano_v0_additive_0","vel":0.992,"bend":0.0,"ch":4},{"t":4.463,"dur":0.155,"note":54,"inst":"harpsichord_v0_additive_2","vel":0.992,"bend":0.0,"ch":6},{"t":4.618,"dur":0.155,"note":56,"inst":"piano_v0_additive_0","vel":0.992,"bend":0.0,"ch":8},{"t":4.773,"dur":0.465,"note":40,"inst":"piano_v0_additive_0","vel":0.709,"bend":0.0,"ch":8},{"t":4.773,"dur":0.465,"note":42,"inst":"harpsichord_v0_additive_2","vel":0.709,"bend":0.0,"ch":10},{"t":4.773,"dur":0.465,"note":47,"inst":"celesta_v0_additive_3","vel":1.0,"bend":0.0,"ch":15},{"t":5.237,"dur":0.465,"note":40,"inst":"piano_v0_additive_0","vel":0.709,"bend":0.0,"ch":8},{"t":5.237,"dur":0.465,"note":42,"inst":"harpsichord_v0_additive_2","vel":0.709,"bend":0.0,"ch":10},{"t":5.237,"dur":0.465,"note":47,"inst":"celesta_v0_additive_3","vel":0.992,"bend":0.0,"ch":15},{"t":5.702,"dur":0.929,"note":37,"inst":"organ_v0_additive_1","vel":0.709,"bend":0.0,"ch":5},{"t":5.702,"dur":0.929,"note":40,"inst":"piano_v0_additive_0","vel":0.709,"bend":0.0,"ch":8},{"t":5.702,"dur":0.155,"note":47,"inst":"celesta_v0_additive_3","vel":0.496,"bend":0.0,"ch":15},{"t":5.857,"dur":0.155,"note":47,"inst":"celesta_v0_additive_3","vel":0.496,"bend":0.0,"ch":15},{"t":6.012,"dur":0.155,"note":49,"inst":"organ_v0_additive_1","vel":0.496,"bend":0.0,"ch":1},{"t":6.166,"dur":0.155,"note":52,"inst":"piano_v0_additive_0","vel":0.496,"bend":0.0,"ch":4},{"t":6.321,"dur":0.155,"note":52,"inst":"piano_v0_additive_0","vel":0.709,"bend":0.0,"ch":4},{"t":6.476,"dur":0.155,"note":54,"inst":"harpsichord_v0_additive_2","vel":0.709,"bend":0.0,"ch":6},{"t":6.631,"dur":0.465,"note":37,"inst":"organ_v0_additive_1","vel":0.709,"bend":0.0,"ch":5},{"t":6.631,"dur":0.465,"note":40,"inst":"piano_v0_additive_0","vel":0.709,"bend":0.0,"ch":8},{"t":6.631,"dur":0.465,"note":47,"inst":"celesta_v0_additive_3","vel":0.709,"bend":0.0,"ch":15},{"t":6.631,"dur":0.155,"note":54,"inst":"harpsichord_v0_additive_2","vel":0.709,"bend":0.0,"ch":6},{"t":6.786,"dur":0.155,"note":56,"inst":"piano_v0_additive_0","vel":0.709,"bend":0.0,"ch":8},{"t":6.941,"dur":0.155,"note":59,"inst":"celesta_v0_additive_3","vel":0.709,"bend":0.0,"ch":11},{"t":7.096,"dur":0.465,"note":35,"inst":"celesta_v0_additive_3","vel":0.709,"bend":0.0,"ch":3},{"t":7.096,"dur":0.465,"note":40,"inst":"piano_v0_additive_0","vel":0.709,"bend":0.0,"ch":8},{"t":7.096,"dur":0.465,"note":42,"inst":"harpsichord_v0_additive_2","vel":0.709,"bend":0.0,"ch":10},{"t":7.096,"dur":0.465,"note":47,"inst":"celesta_v0_additive_3","vel":0.709,"bend":0.0,"ch":15},{"t":7.096,"dur":0.155,"note":59,"inst":"celesta_v0_additive_3","vel":0.709,"bend":0.0,"ch":11},{"t":7.251,"dur":0.155,"note":59,"inst":"celesta_v0_additive_3","vel":0.709,"bend":0.0,"ch":11},{"t":7.406,"dur":0.155,"note":61,"inst":"organ_v0_additive_1","vel":0.709,"bend":0.0,"ch":13},{"t":7.56,"dur":0.155,"note":64,"inst":"piano_v0_additive_0","vel":0.709,"bend":0.0,"ch":0},{"t":7.715,"dur":0.155,"note":64,"inst":"piano_v0_additive_0","vel":0.709,"bend":0.0,"ch":0},{"t":7.87,"dur":0.155,"note":66,"inst":"harpsichord_v0_additive_2","vel":0.709,"bend":0.0,"ch":2},{"t":8.025,"dur":0.155,"note":66,"inst":"harpsichord_v0_additive_2","vel":0.709,"bend":0.0,"ch":2},{"t":8.18,"dur":0.155,"note":68,"inst":"piano_v0_additive_0","vel":0.709,"bend":0.0,"ch":4},{"t":8.335,"dur":0.155,"note":71,"inst":"celesta_v0_additive_3","vel":0.709,"bend":0.0,"ch":7},{"t":8.49,"dur":0.465,"note":35,"inst":"celesta_v0_additive_3","vel":0.709,"bend":0.0,"ch":3},{"t":8.49,"dur":0.465,"note":40,"inst":"piano_v0_additive_0","vel":0.709,"bend":0.0,"ch":8},{"t":8.49,"dur":0.465,"note":42,"inst":"harpsichord_v0_additive_2","vel":0.709,"bend":0.0,"ch":10},{"t":8.49,"dur":0.465,"note":47,"inst":"celesta_v0_additive_3","vel":0.709,"bend":0.0,"ch":15},{"t":8.49,"dur":0.697,"note":71,"inst":"celesta_v0_additive_3","vel":0.992,"bend":0.0,"ch":7},{"t":126.476,"dur":0.708,"note":33,"inst":"organ_v0_additive_1","vel":0.567,"bend":0.0,"ch":1},{"t":126.476,"dur":0.236,"note":61,"inst":"organ_v0_additive_1","vel":0.756,"bend":0.0,"ch":13},{"t":126.712,"dur":0.236,"note":62,"inst":"harpsichord_v0_additive_2","vel":0.756,"bend":0.0,"ch":14},{"t":126.948,"dur":0.236,"note":54,"inst":"harpsichord_v0_additive_2","vel":0.756,"bend":0.0,"ch":6},{"t":127.184,"dur":0.708,"note":35,"inst":"celesta_v0_additive_3","vel":0.567,"bend":0.0,"ch":3},{"t":127.184,"dur":0.236,"note":62,"inst":"harpsichord_v0_additive_2","vel":0.756,"bend":0.0,"ch":14},{"t":127.42,"dur":0.236,"note":61,"inst":"organ_v0_additive_1","vel":0.756,"bend":0.0,"ch":13},{"t":127.656,"dur":0.236,"note":59,"inst":"celesta_v0_additive_3","vel":0.756,"bend":0.0,"ch":11},{"t":127.892,"dur":0.708,"note":37,"inst":"organ_v0_additive_1","vel":0.567,"bend":0.0,"ch":5},{"t":127.892,"dur":0.236,"note":57,"inst":"organ_v0_additive_1","vel":0.756,"bend":0.0,"ch":9},{"t":128.128,"dur":0.236,"note":59,"inst":"celesta_v0_additive_3","vel":0.756,"bend":0.0,"ch":11},{"t":128.364,"dur":0.236,"note":55,"inst":"celesta_v0_additive_3","vel":0.756,"bend":0.0,"ch":7},{"t":128.6,"dur":0.708,"note":38,"inst":"harpsichord_v0_additive_2","vel":0.567,"bend":0.0,"ch":6},{"t":128.6,"dur":0.236,"note":55,"inst":"celesta_v0_additive_3","vel":0.756,"bend":0.0,"ch":7},{"t":128.836,"dur":0.236,"note":55,"inst":"celesta_v0_additive_3","vel":0.756,"bend":0.0,"ch":7},{"t":129.072,"dur":0.236,"note":57,"inst":"organ_v0_additive_1","vel":0.756,"bend":0.0,"ch":9},{"t":129.308,"dur":0.708,"note":43,"inst":"celesta_v0_additive_3","vel":0.567,"bend":0.0,"ch":11},{"t":129.308,"dur":0.236,"note":50,"inst":"harpsichord_v0_additive_2","vel":0.756,"bend":0.0,"ch":2},{"t":129.544,"dur":0.236,"note":55,"inst":"celesta_v0_additive_3","vel":0.756,"bend":0.0,"ch":7},{"t":129.78,"dur":0.236,"note":57,"inst":"organ_v0_additive_1","vel":0.756,"bend":0.0,"ch":9},{"t":130.016,"dur":0.708,"note":38,"inst":"harpsichord_v0_additive_2","vel":0.567,"bend":0.0,"ch":6},{"t":130.016,"dur":0.236,"note":61,"inst":"organ_v0_additive_1","vel":0.756,"bend":0.0,"ch":13},{"t":130.252,"dur":0.236,"note":59,"inst":"celesta_v0_additive_3","vel":0.756,"bend":0.0,"ch":11},{"t":130.488,"dur":0.236,"note":57,"inst":"organ_v0_additive_1","vel":0.756,"bend":0.0,"ch":9},{"t":130.724,"dur":0.708,"note":31,"inst":"celesta_v0_additive_3","vel":0.567,"bend":0.0,"ch":15},{"t":130.724,"dur":0.236,"note":59,"inst":"celesta_v0_additive_3","vel":0.756,"bend":0.0,"ch":11},{"t":130.96,"dur":0.236,"note":55,"inst":"celesta_v0_additive_3","vel":0.756,"bend":0.0,"ch":7},{"t":131.196,"dur":0.236,"note":57,"inst":"organ_v0_additive_1","vel":0.756,"bend":0.0,"ch":9},{"t":131.432,"dur":0.708,"note":43,"inst":"celesta_v0_additive_3","vel":0.567,"bend":0.0,"ch":11},{"t":131.432,"dur":0.236,"note":59,"inst":"celesta_v0_additive_3","vel":0.756,"bend":0.0,"ch":11},{"t":131.667,"dur":0.236,"note":62,"inst":"harpsichord_v0_additive_2","vel":0.756,"bend":0.0,"ch":14},{"t":131.903,"dur":0.236,"note":61,"inst":"organ_v0_additive_1","vel":0.756,"bend":0.0,"ch":13},{"t":210.393,"dur":0.441,"note":41,"inst":"organ_v0_additive_1","vel":0.709,"bend":0.0,"ch":9},{"t":210.393,"dur":0.441,"note":43,"inst":"celesta_v0_additive_3","vel":0.709,"bend":0.0,"ch":11},{"t":210.393,"dur":0.441,"note":48,"inst":"piano_v0_additive_0","vel":0.709,"bend":0.0,"ch":0},{"t":210.614,"dur":0.22,"note":49,"inst":"organ_v0_additive_1","vel":0.709,"bend":0.0,"ch":1},{"t":210.834,"dur":1.322,"note":34,"inst":"harpsichord_v0_additive_2","vel":0.709,"bend":0.0,"ch":2},{"t":210.834,"dur":1.322,"note":41,"inst":"organ_v0_additive_1","vel":0.709,"bend":0.0,"ch":9},{"t":210.834,"dur":1.322,"note":48,"inst":"piano_v0_additive_0","vel":0.709,"bend":0.0,"ch":0},{"t":210.834,"dur":1.322,"note":58,"inst":"harpsichord_v0_additive_2","vel":0.709,"bend":0.0,"ch":10},{"t":212.156,"dur":0.22,"note":46,"inst":"harpsichord_v0_additive_2","vel":0.709,"bend":0.0,"ch":14},{"t":212.156,"dur":0.441,"note":46,"inst":"harpsichord_v0_additive_2","vel":0.709,"bend":0.0,"ch":14},{"t":212.156,"dur":0.441,"note":53,"inst":"organ_v0_additive_1","vel":0.709,"bend":0.0,"ch":5},{"t":212.156,"dur":0.441,"note":60,"inst":"piano_v0_additive_0","vel":0.709,"bend":0.0,"ch":12},{"t":212.376,"dur":0.22,"note":43,"inst":"celesta_v0_additive_3","vel":0.709,"bend":0.0,"ch":11},{"t":212.596,"dur":0.441,"note":37,"inst":"organ_v0_additive_1","vel":0.709,"bend":0.0,"ch":5},{"t":212.596,"dur":0.441,"note":41,"inst":"organ_v0_additive_1","vel":0.709,"bend":0.0,"ch":9},{"t":212.596,"dur":0.441,"note":49,"inst":"organ_v0_additive_1","vel":0.709,"bend":0.0,"ch":1},{"t":212.596,"dur":0.22,"note":48,"inst":"piano_v0_additive_0","vel":0.709,"bend":0.0,"ch":0},{"t":212.817,"dur":0.22,"note":58,"inst":"harpsichord_v0_additive_2","vel":0.709,"bend":0.0,"ch":10},{"t":213.037,"dur":0.441,"note":41,"inst":"organ_v0_additive_1","vel":0.709,"bend":0.0,"ch":9},{"t":213.037,"dur":0.441,"note":43,"inst":"celesta_v0_additive_3","vel":0.709,"bend":0.0,"ch":11},{"t":213.037,"dur":0.22,"note":49,"inst":"organ_v0_additive_1","vel":0.709,"bend":0.0,"ch":1},{"t":213.037,"dur":0.441,"note":55,"inst":"celesta_v0_additive_3","vel":0.709,"bend":0.0,"ch":7},{"t":213.257,"dur":0.22,"note":48,"inst":"piano_v0_additive_0","vel":0.709,"bend":0.0,"ch":0},{"t":213.478,"dur":0.22,"note":41,"inst":"organ_v0_additive_1","vel":0.709,"bend":0.0,"ch":9},{"t":213.478,"dur":0.441,"note":41,"inst":"organ_v0_additive_1","vel":0.709,"bend":0.0,"ch":9},{"t":213.478,"dur":0.441,"note":48,"inst":"piano_v0_additive_0","vel":0.709,"bend":0.0,"ch":0},{"t":213.478,"dur":0.441,"note":58,"inst":"harpsichord_v0_additive_2","vel":0.709,"bend":0.0,"ch":10},{"t":213.698,"dur":0.22,"note":46,"inst":"harpsichord_v0_additive_2","vel":0.709,"bend":0.0,"ch":14},{"t":213.918,"dur":0.22,"note":41,"inst":"organ_v0_additive_1","vel":0.709,"bend":0.0,"ch":9},{"t":213.918,"dur":0.441,"note":49,"inst":"organ_v0_additive_1","vel":0.709,"bend":0.0,"ch":1},{"t":213.918,"dur":0.441,"note":53,"inst":"organ_v0_additive_1","vel":0.709,"bend":0.0,"ch":5},{"t":213.918,"dur":0.441,"note":48,"inst":"piano_v0_additive_0","vel":0.709,"bend":0.0,"ch":0},{"t":214.139,"dur":0.22,"note":37,"inst":"organ_v0_additive_1","vel":0.709,"bend":0.0,"ch":5},{"t":214.359,"dur":0.441,"note":41,"inst":"organ_v0_additive_1","vel":0.709,"bend":0.0,"ch":9},{"t":214.359,"dur":0.22,"note":48,"inst":"piano_v0_additive_0","vel":0.709,"bend":0.0,"ch":0},{"t":214.359,"dur":0.441,"note":55,"inst":"celesta_v0_additive_3","vel":0.709,"bend":0.0,"ch":7},{"t":214.359,"dur":0.881,"note":60,"inst":"piano_v0_additive_0","vel":0.709,"bend":0.0,"ch":12},{"t":214.579,"dur":0.22,"note":46,"inst":"harpsichord_v0_additive_2","vel":0.709,"bend":0.0,"ch":14},{"t":214.8,"dur":0.441,"note":41,"inst":"organ_v0_additive_1","vel":0.709,"bend":0.0,"ch":9},{"t":214.8,"dur":0.441,"note":46,"inst":"harpsichord_v0_additive_2","vel":0.709,"bend":0.0,"ch":14},{"t":214.8,"dur":0.441,"note":53,"inst":"organ_v0_additive_1","vel":0.709,"bend":0.0,"ch":5},{"t":215.24,"dur":0.441,"note":36,"inst":"piano_v0_additive_0","vel":0.709,"bend":0.0,"ch":4},{"t":215.24,"dur":0.441,"note":43,"inst":"celesta_v0_additive_3","vel":0.709,"bend":0.0,"ch":11},{"t":215.24,"dur":0.441,"note":53,"inst":"organ_v0_additive_1","vel":0.709,"bend":0.0,"ch":5},{"t":215.24,"dur":0.441,"note":60,"inst":"piano_v0_additive_0","vel":0.709,"bend":0.0,"ch":12},{"t":215.681,"dur":0.441,"note":36,"inst":"piano_v0_additive_0","vel":0.709,"bend":0.0,"ch":4},{"t":215.681,"dur":0.22,"note":48,"inst":"piano_v0_additive_0","vel":0.709,"bend":0.0,"ch":0},{"t":215.681,"dur":0.441,"note":53,"inst":"organ_v0_additive_1","vel":0.709,"bend":0.0,"ch":5},{"t":215.681,"dur":0.441,"note":55,"inst":"celesta_v0_additive_3","vel":0.709,"bend":0.0,"ch":7},{"t":215.901,"dur":0.22,"note":46,"inst":"harpsichord_v0_additive_2","vel":0.709,"bend":0.0,"ch":14},{"t":216.122,"dur":0.441,"note":41,"inst":"organ_v0_additive_1","vel":0.709,"bend":0.0,"ch":9},{"t":216.122,"dur":0.441,"note":46,"inst":"harpsichord_v0_additive_2","vel":0.709,"bend":0.0,"ch":14},{"t":216.122,"dur":0.22,"note":53,"inst":"organ_v0_additive_1","vel":0.709,"bend":0.0,"ch":5},{"t":216.122,"dur":0.441,"note":58,"inst":"harpsichord_v0_additive_2","vel":0.709,"bend":0.0,"ch":10},{"t":216.342,"dur":0.22,"note":49,"inst":"organ_v0_additive_1","vel":0.709,"bend":0.0,"ch":1},{"t":216.562,"dur":0.441,"note":41,"inst":"organ_v0_additive_1","vel":0.709,"bend":0.0,"ch":9},{"t":216.562,"dur":0.22,"note":46,"inst":"harpsichord_v0_additive_2","vel":0.709,"bend":0.0,"ch":14},{"t":216.562,"dur":0.22,"note":49,"inst":"organ_v0_additive_1","vel":0.709,"bend":0.0,"ch":1},{"t":216.562,"dur":0.441,"note":55,"inst":"celesta_v0_additive_3","vel":0.709,"bend":0.0,"ch":7},{"t":216.782,"dur":0.22,"note":46,"inst":"harpsichord_v0_additive_2","vel":0.709,"bend":0.0,"ch":14},{"t":216.782,"dur":0.22,"note":49,"inst":"organ_v0_additive_1","vel":0.709,"bend":0.0,"ch":1}]}