{"track_num":12,"title":"Horizon","duration":288.25,"start_time":3311.75,"n_events":304,"events":[{"t":0.359,"dur":0.268,"note":55,"inst":"celesta_v0_additive_3","vel":0.709,"bend":0.0,"ch":7},{"t":0.359,"dur":0.268,"note":70,"inst":"harpsichord_v0_additive_2","vel":0.709,"bend":0.0,"ch":6},{"t":0.359,"dur":0.268,"note":74,"inst":"harpsichord_v0_additive_2","vel":0.709,"bend":0.0,"ch":10},{"t":0.359,"dur":0.268,"note":77,"inst":"organ_v0_additive_1","vel":0.709,"bend":0.0,"ch":13},{"t":0.627,"dur":0.268,"note":58,"inst":"harpsichord_v0_additive_2","vel":0.709,"bend":0.0,"ch":10},{"t":0.627,"dur":0.134,"note":70,"inst":"harpsichord_v0_additive_2","vel":0.709,"bend":0.0,"ch":6},{"t":0.627,"dur":0.268,"note":73,"inst":"organ_v0_additive_1","vel":0.709,"bend":0.0,"ch":9},{"t":0.627,"dur":0.268,"note":77,"inst":"organ_v0_additive_1","vel":0.709,"bend":0.0,"ch":13},{"t":0.762,"dur":0.134,"note":67,"inst":"celesta_v0_additive_3","vel":0.709,"bend":0.0,"ch":3},{"t":0.896,"dur":0.268,"note":58,"inst":"harpsichord_v0_additive_2","vel":0.709,"bend":0.0,"ch":10},{"t":0.896,"dur":0.268,"note":55,"inst":"celesta_v0_additive_3","vel":0.709,"bend":0.0,"ch":7},{"t":0.896,"dur":0.268,"note":73,"inst":"organ_v0_additive_1","vel":0.709,"bend":0.0,"ch":9},{"t":0.896,"dur":0.268,"note":67,"inst":"celesta_v0_additive_3","vel":0.709,"bend":0.0,"ch":3},{"t":1.164,"dur":0.268,"note":58,"inst":"harpsichord_v0_additive_2","vel":0.709,"bend":0.0,"ch":10},{"t":1.164,"dur":0.268,"note":55,"inst":"celesta_v0_additive_3","vel":0.709,"bend":0.0,"ch":7},{"t":1.164,"dur":0.134,"note":73,"inst":"organ_v0_additive_1","vel":0.709,"bend":0.0,"ch":9},{"t":1.164,"dur":0.268,"note":74,"inst":"harpsichord_v0_additive_2","vel":0.709,"bend":0.0,"ch":10},{"t":1.298,"dur":0.268,"note":70,"inst":"harpsichord_v0_additive_2","vel":0.709,"bend":0.0,"ch":6},{"t":1.433,"dur":0.268,"note":43,"inst":"celesta_v0_additive_3","vel":0.709,"bend":0.0,"ch":11},{"t":1.433,"dur":0.268,"note":65,"inst":"organ_v0_additive_1","vel":0.709,"bend":0.0,"ch":1},{"t":1.433,"dur":0.268,"note":73,"inst":"organ_v0_additive_1","vel":0.709,"bend":0.0,"ch":9},{"t":1.567,"dur":0.134,"note":70,"inst":"harpsichord_v0_additive_2","vel":0.709,"bend":0.0,"ch":6},{"t":1.701,"dur":0.268,"note":46,"inst":"harpsichord_v0_additive_2","vel":0.709,"bend":0.0,"ch":14},{"t":1.701,"dur":0.268,"note":62,"inst":"harpsichord_v0_additive_2","vel":0.709,"bend":0.0,"ch":14},{"t":1.701,"dur":0.268,"note":70,"inst":"harpsichord_v0_additive_2","vel":0.709,"bend":0.0,"ch":6},{"t":1.701,"dur":0.268,"note":70,"inst":"harpsichord_v0_additive_2","vel":0.709,"bend":0.0,"ch":6},{"t":1.969,"dur":0.268,"note":50,"inst":"harpsichord_v0_additive_2","vel":0.709,"bend":0.0,"ch":2},{"t":1.969,"dur":0.268,"note":55,"inst":"celesta_v0_additive_3","vel":0.709,"bend":0.0,"ch":7},{"t":1.969,"dur":0.268,"note":70,"inst":"harpsichord_v0_additive_2","vel":0.709,"bend":0.0,"ch":6},{"t":1.969,"dur":0.268,"note":67,"inst":"celesta_v0_additive_3","vel":0.709,"bend":0.0,"ch":3},{"t":2.238,"dur":0.268,"note":53,"inst":"organ_v0_additive_1","vel":0.709,"bend":0.0,"ch":5},{"t":2.238,"dur":0.134,"note":65,"inst":"organ_v0_additive_1","vel":0.709,"bend":0.0,"ch":1},{"t":2.238,"dur":0.268,"note":70,"inst":"harpsichord_v0_additive_2","vel":0.709,"bend":0.0,"ch":6},{"t":2.238,"dur":0.268,"note":79,"inst":"celesta_v0_additive_3","vel":0.709,"bend":0.0,"ch":15},{"t":2.372,"dur":0.134,"note":62,"inst":"harpsichord_v0_additive_2","vel":0.709,"bend":0.0,"ch":14},{"t":2.506,"dur":0.268,"note":43,"inst":"celesta_v0_additive_3","vel":0.709,"bend":0.0,"ch":11},{"t":2.506,"dur":0.268,"note":61,"inst":"organ_v0_additive_1","vel":0.709,"bend":0.0,"ch":13},{"t":2.506,"dur":0.268,"note":70,"inst":"harpsichord_v0_additive_2","vel":0.709,"bend":0.0,"ch":6},{"t":2.506,"dur":0.268,"note":67,"inst":"celesta_v0_additive_3","vel":0.709,"bend":0.0,"ch":3},{"t":2.775,"dur":0.268,"note":55,"inst":"celesta_v0_additive_3","vel":0.709,"bend":0.0,"ch":7},{"t":2.775,"dur":0.268,"note":58,"inst":"harpsichord_v0_additive_2","vel":0.709,"bend":0.0,"ch":10},{"t":2.775,"dur":0.268,"note":70,"inst":"harpsichord_v0_additive_2","vel":0.709,"bend":0.0,"ch":6},{"t":2.775,"dur":0.268,"note":77,"inst":"organ_v0_additive_1","vel":0.709,"bend":0.0,"ch":13},{"t":3.043,"dur":0.268,"note":58,"inst":"harpsichord_v0_additive_2","vel":0.709,"bend":0.0,"ch":10},{"t":3.043,"dur":0.403,"note":55,"inst":"celesta_v0_additive_3","vel":0.709,"bend":0.0,"ch":7},{"t":3.043,"dur":0.268,"note":55,"inst":"celesta_v0_additive_3","vel":0.709,"bend":0.0,"ch":7},{"t":3.043,"dur":0.134,"note":74,"inst":"harpsichord_v0_additive_2","vel":0.709,"bend":0.0,"ch":10},{"t":3.177,"dur":0.134,"note":73,"inst":"organ_v0_additive_1","vel":0.709,"bend":0.0,"ch":9},{"t":3.312,"dur":0.268,"note":58,"inst":"harpsichord_v0_additive_2","vel":0.709,"bend":0.0,"ch":10},{"t":3.312,"dur":0.268,"note":55,"inst":"celesta_v0_additive_3","vel":0.709,"bend":0.0,"ch":7},{"t":3.312,"dur":0.268,"note":74,"inst":"harpsichord_v0_additive_2","vel":0.709,"bend":0.0,"ch":10},{"t":3.446,"dur":0.268,"note":70,"inst":"harpsichord_v0_additive_2","vel":0.709,"bend":0.0,"ch":6},{"t":3.58,"dur":0.268,"note":43,"inst":"celesta_v0_additive_3","vel":0.709,"bend":0.0,"ch":11},{"t":3.58,"dur":0.268,"note":65,"inst":"organ_v0_additive_1","vel":0.709,"bend":0.0,"ch":1},{"t":3.58,"dur":0.268,"note":73,"inst":"organ_v0_additive_1","vel":0.709,"bend":0.0,"ch":9},{"t":3.714,"dur":0.134,"note":70,"inst":"harpsichord_v0_additive_2","vel":0.709,"bend":0.0,"ch":6},{"t":3.848,"dur":0.268,"note":46,"inst":"harpsichord_v0_additive_2","vel":0.709,"bend":0.0,"ch":14},{"t":3.848,"dur":0.268,"note":62,"inst":"harpsichord_v0_additive_2","vel":0.709,"bend":0.0,"ch":14},{"t":3.848,"dur":0.268,"note":55,"inst":"celesta_v0_additive_3","vel":0.709,"bend":0.0,"ch":7},{"t":3.848,"dur":0.268,"note":70,"inst":"harpsichord_v0_additive_2","vel":0.709,"bend":0.0,"ch":6},{"t":4.117,"dur":0.268,"note":55,"inst":"celesta_v0_additive_3","vel":0.709,"bend":0.0,"ch":7},{"t":4.117,"dur":0.268,"note":65,"inst":"organ_v0_additive_1","vel":0.709,"bend":0.0,"ch":1},{"t":4.117,"dur":0.268,"note":70,"inst":"harpsichord_v0_additive_2","vel":0.709,"bend":0.0,"ch":6},{"t":4.117,"dur":0.268,"note":77,"inst":"organ_v0_additive_1","vel":0.709,"bend":0.0,"ch":13},{"t":4.385,"dur":0.268,"note":58,"inst":"harpsichord_v0_additive_2","vel":0.709,"bend":0.0,"ch":10},{"t":4.385,"dur":0.134,"note":65,"inst":"organ_v0_additive_1","vel":0.709,"bend":0.0,"ch":1},{"t":4.385,"dur":0.268,"note":73,"inst":"organ_v0_additive_1","vel":0.709,"bend":0.0,"ch":9},{"t":4.385,"dur":0.268,"note":77,"inst":"organ_v0_additive_1","vel":0.709,"bend":0.0,"ch":13},{"t":4.519,"dur":0.134,"note":55,"inst":"celesta_v0_additive_3","vel":0.709,"bend":0.0,"ch":7},{"t":4.654,"dur":0.268,"note":53,"inst":"organ_v0_additive_1","vel":0.709,"bend":0.0,"ch":5},{"t":4.654,"dur":0.268,"note":67,"inst":"celesta_v0_additive_3","vel":0.709,"bend":0.0,"ch":3},{"t":4.654,"dur":0.268,"note":70,"inst":"harpsichord_v0_additive_2","vel":0.709,"bend":0.0,"ch":6},{"t":4.654,"dur":0.268,"note":77,"inst":"organ_v0_additive_1","vel":0.709,"bend":0.0,"ch":13},{"t":4.922,"dur":0.268,"note":58,"inst":"harpsichord_v0_additive_2","vel":0.709,"bend":0.0,"ch":10},{"t":4.922,"dur":0.134,"note":70,"inst":"harpsichord_v0_additive_2","vel":0.709,"bend":0.0,"ch":6},{"t":4.922,"dur":0.268,"note":73,"inst":"organ_v0_additive_1","vel":0.709,"bend":0.0,"ch":9},{"t":4.922,"dur":0.268,"note":77,"inst":"organ_v0_additive_1","vel":0.709,"bend":0.0,"ch":13},{"t":5.056,"dur":0.134,"note":67,"inst":"celesta_v0_additive_3","vel":0.709,"bend":0.0,"ch":3},{"t":5.19,"dur":0.268,"note":58,"inst":"harpsichord_v0_additive_2","vel":0.709,"bend":0.0,"ch":10},{"t":5.19,"dur":0.268,"note":55,"inst":"celesta_v0_additive_3","vel":0.709,"bend":0.0,"ch":7},{"t":5.19,"dur":0.268,"note":73,"inst":"organ_v0_additive_1","vel":0.709,"bend":0.0,"ch":9},{"t":5.19,"dur":0.268,"note":67,"inst":"celesta_v0_additive_3","vel":0.709,"bend":0.0,"ch":3},{"t":5.459,"dur":0.268,"note":58,"inst":"harpsichord_v0_additive_2","vel":0.709,"bend":0.0,"ch":10},{"t":5.459,"dur":0.268,"note":55,"inst":"celesta_v0_additive_3","vel":0.709,"bend":0.0,"ch":7},{"t":5.459,"dur":0.134,"note":73,"inst":"organ_v0_additive_1","vel":0.709,"bend":0.0,"ch":9},{"t":5.459,"dur":0.268,"note":74,"inst":"harpsichord_v0_additive_2","vel":0.709,"bend":0.0,"ch":10},{"t":5.593,"dur":0.268,"note":70,"inst":"harpsichord_v0_additive_2","vel":0.709,"bend":0.0,"ch":6},{"t":5.727,"dur":0.268,"note":43,"inst":"celesta_v0_additive_3","vel":0.709,"bend":0.0,"ch":11},{"t":5.727,"dur":0.268,"note":65,"inst":"organ_v0_additive_1","vel":0.709,"bend":0.0,"ch":1},{"t":5.727,"dur":0.268,"note":73,"inst":"organ_v0_additive_1","vel":0.709,"bend":0.0,"ch":9},{"t":5.861,"dur":0.134,"note":70,"inst":"harpsichord_v0_additive_2","vel":0.709,"bend":0.0,"ch":6},{"t":5.996,"dur":0.268,"note":46,"inst":"harpsichord_v0_additive_2","vel":0.709,"bend":0.0,"ch":14},{"t":5.996,"dur":0.268,"note":62,"inst":"harpsichord_v0_additive_2","vel":0.709,"bend":0.0,"ch":14},{"t":5.996,"dur":0.268,"note":70,"inst":"harpsichord_v0_additive_2","vel":0.709,"bend":0.0,"ch":6},{"t":5.996,"dur":0.268,"note":70,"inst":"harpsichord_v0_additive_2","vel":0.709,"bend":0.0,"ch":6},{"t":6.264,"dur":0.268,"note":50,"inst":"harpsichord_v0_additive_2","vel":0.709,"bend":0.0,"ch":2},{"t":6.264,"dur":0.268,"note":55,"inst":"celesta_v0_additive_3","vel":0.709,"bend":0.0,"ch":7},{"t":6.264,"dur":0.268,"note":70,"inst":"harpsichord_v0_additive_2","vel":0.709,"bend":0.0,"ch":6},{"t":6.264,"dur":0.268,"note":67,"inst":"celesta_v0_additive_3","vel":0.709,"bend":0.0,"ch":3},{"t":6.532,"dur":0.268,"note":53,"inst":"organ_v0_additive_1","vel":0.709,"bend":0.0,"ch":5},{"t":6.532,"dur":0.134,"note":65,"inst":"organ_v0_additive_1","vel":0.709,"bend":0.0,"ch":1},{"t":6.532,"dur":0.268,"note":70,"inst":"harpsichord_v0_additive_2","vel":0.709,"bend":0.0,"ch":6},{"t":6.532,"dur":0.268,"note":79,"inst":"celesta_v0_additive_3","vel":0.709,"bend":0.0,"ch":15},{"t":6.667,"dur":0.134,"note":62,"inst":"harpsichord_v0_additive_2","vel":0.709,"bend":0.0,"ch":14},{"t":6.801,"dur":0.268,"note":43,"inst":"celesta_v0_additive_3","vel":0.709,"bend":0.0,"ch":11},{"t":6.801,"dur":0.268,"note":61,"inst":"organ_v0_additive_1","vel":0.709,"bend":0.0,"ch":13},{"t":6.801,"dur":0.268,"note":70,"inst":"harpsichord_v0_additive_2","vel":0.709,"bend":0.0,"ch":6},{"t":6.801,"dur":0.268,"note":67,"inst":"celesta_v0_additive_3","vel":0.709,"bend":0.0,"ch":3},{"t":7.069,"dur":0.268,"note":55,"inst":"celesta_v0_additive_3","vel":0.709,"bend":0.0,"ch":7},{"t":7.069,"dur":0.268,"note":58,"inst":"harpsichord_v0_additive_2","vel":0.709,"bend":0.0,"ch":10},{"t":7.069,"dur":0.268,"note":70,"inst":"harpsichord_v0_additive_2","vel":0.709,"bend":0.0,"ch":6},{"t":7.069,"dur":0.268,"note":77,"inst":"organ_v0_additive_1","vel":0.709,"bend":0.0,"ch":13},{"t":7.338,"dur":0.268,"note":58,"inst":"harpsichord_v0_additive_2","vel":0.709,"bend":0.0,"ch":10},{"t":7.338,"dur":0.403,"note":55,"inst":"celesta_v0_additive_3","vel":0.709,"bend":0.0,"ch":7},{"t":7.338,"dur":0.268,"note":55,"inst":"celesta_v0_additive_3","vel":0.709,"bend":0.0,"ch":7},{"t":7.338,"dur":0.134,"note":74,"inst":"harpsichord_v0_additive_2","vel":0.709,"bend":0.0,"ch":10},{"t":7.472,"dur":0.134,"note":73,"inst":"organ_v0_additive_1","vel":0.709,"bend":0.0,"ch":9},{"t":7.606,"dur":0.268,"note":58,"inst":"harpsichord_v0_additive_2","vel":0.709,"bend":0.0,"ch":10},{"t":7.606,"dur":0.268,"note":55,"inst":"celesta_v0_additive_3","vel":0.709,"bend":0.0,"ch":7},{"t":7.606,"dur":0.268,"note":74,"inst":"harpsichord_v0_additive_2","vel":0.709,"bend":0.0,"ch":10},{"t":7.74,"dur":0.268,"note":70,"inst":"harpsichord_v0_additive_2","vel":0.709,"bend":0.0,"ch":6},{"t":7.875,"dur":0.268,"note":43,"inst":"celesta_v0_additive_3","vel":0.709,"bend":0.0,"ch":11},{"t":7.875,"dur":0.268,"note":65,"inst":"organ_v0_additive_1","vel":0.709,"bend":0.0,"ch":1},{"t":7.875,"dur":0.268,"note":73,"inst":"organ_v0_additive_1","vel":0.709,"bend":0.0,"ch":9},{"t":8.009,"dur":0.134,"note":70,"inst":"harpsichord_v0_additive_2","vel":0.709,"bend":0.0,"ch":6},{"t":8.143,"dur":0.268,"note":46,"inst":"harpsichord_v0_additive_2","vel":0.709,"bend":0.0,"ch":14},{"t":8.143,"dur":0.268,"note":62,"inst":"harpsichord_v0_additive_2","vel":0.709,"bend":0.0,"ch":14},{"t":8.143,"dur":0.268,"note":55,"inst":"celesta_v0_additive_3","vel":0.709,"bend":0.0,"ch":7},{"t":8.143,"dur":0.268,"note":70,"inst":"harpsichord_v0_additive_2","vel":0.709,"bend":0.0,"ch":6},{"t":8.411,"dur":0.268,"note":55,"inst":"celesta_v0_additive_3","vel":0.709,"bend":0.0,"ch":7},{"t":8.411,"dur":0.134,"note":67,"inst":"celesta_v0_additive_3","vel":0.709,"bend":0.0,"ch":3},{"t":8.411,"dur":0.134,"note":77,"inst":"organ_v0_additive_1","vel":0.709,"bend":0.0,"ch":13},{"t":8.411,"dur":0.268,"note":82,"inst":"harpsichord_v0_additive_2","vel":0.709,"bend":0.0,"ch":2},{"t":8.546,"dur":0.134,"note":55,"inst":"celesta_v0_additive_3","vel":0.709,"bend":0.0,"ch":7},{"t":8.546,"dur":0.134,"note":74,"inst":"harpsichord_v0_additive_2","vel":0.709,"bend":0.0,"ch":10},{"t":8.68,"dur":0.134,"note":61,"inst":"organ_v0_additive_1","vel":0.709,"bend":0.0,"ch":13},{"t":8.68,"dur":0.134,"note":65,"inst":"organ_v0_additive_1","vel":0.709,"bend":0.0,"ch":1},{"t":8.68,"dur":0.268,"note":73,"inst":"organ_v0_additive_1","vel":0.709,"bend":0.0,"ch":9},{"t":8.68,"dur":0.268,"note":82,"inst":"harpsichord_v0_additive_2","vel":0.709,"bend":0.0,"ch":2},{"t":8.814,"dur":0.134,"note":62,"inst":"harpsichord_v0_additive_2","vel":0.709,"bend":0.0,"ch":14},{"t":8.814,"dur":0.134,"note":55,"inst":"celesta_v0_additive_3","vel":0.709,"bend":0.0,"ch":7},{"t":8.948,"dur":0.268,"note":65,"inst":"organ_v0_additive_1","vel":0.709,"bend":0.0,"ch":1},{"t":8.948,"dur":0.134,"note":67,"inst":"celesta_v0_additive_3","vel":0.709,"bend":0.0,"ch":3},{"t":8.948,"dur":0.134,"note":70,"inst":"harpsichord_v0_additive_2","vel":0.709,"bend":0.0,"ch":6},{"t":8.948,"dur":0.268,"note":79,"inst":"celesta_v0_additive_3","vel":0.709,"bend":0.0,"ch":15},{"t":9.082,"dur":0.134,"note":70,"inst":"harpsichord_v0_additive_2","vel":0.709,"bend":0.0,"ch":6},{"t":9.082,"dur":0.134,"note":73,"inst":"organ_v0_additive_1","vel":0.709,"bend":0.0,"ch":9},{"t":126.25,"dur":0.797,"note":67,"inst":"celesta_v0_additive_3","vel":0.63,"bend":0.0,"ch":3},{"t":126.25,"dur":0.797,"note":83,"inst":"celesta_v0_additive_3","vel":0.63,"bend":0.0,"ch":3},{"t":127.09,"dur":0.797,"note":69,"inst":"organ_v0_additive_1","vel":0.63,"bend":0.0,"ch":5},{"t":127.09,"dur":1.595,"note":76,"inst":"piano_v0_additive_0","vel":0.63,"bend":0.0,"ch":12},{"t":127.93,"dur":0.797,"note":72,"inst":"piano_v0_additive_0","vel":0.63,"bend":0.0,"ch":8},{"t":128.77,"dur":0.797,"note":71,"inst":"celesta_v0_additive_3","vel":0.63,"bend":0.0,"ch":7},{"t":128.77,"dur":0.797,"note":79,"inst":"celesta_v0_additive_3","vel":0.63,"bend":0.0,"ch":15},{"t":210.276,"dur":0.07,"note":77,"inst":"organ_v0_additive_1","vel":1.0,"bend":0.0,"ch":13},{"t":210.346,"dur":0.14,"note":65,"inst":"organ_v0_additive_1","vel":1.0,"bend":0.0,"ch":1},{"t":210.346,"dur":0.14,"note":75,"inst":"celesta_v0_additive_3","vel":1.0,"bend":0.0,"ch":11},{"t":210.486,"dur":0.14,"note":70,"inst":"harpsichord_v0_additive_2","vel":1.0,"bend":0.0,"ch":6},{"t":210.626,"dur":0.14,"note":63,"inst":"celesta_v0_additive_3","vel":1.0,"bend":0.0,"ch":15},{"t":210.626,"dur":0.14,"note":82,"inst":"harpsichord_v0_additive_2","vel":1.0,"bend":0.0,"ch":2},{"t":210.765,"dur":0.14,"note":65,"inst":"organ_v0_additive_1","vel":1.0,"bend":0.0,"ch":1},{"t":210.765,"dur":0.07,"note":80,"inst":"piano_v0_additive_0","vel":1.0,"bend":0.0,"ch":0},{"t":210.835,"dur":0.07,"note":77,"inst":"organ_v0_additive_1","vel":1.0,"bend":0.0,"ch":13},{"t":210.905,"dur":0.14,"note":68,"inst":"piano_v0_additive_0","vel":1.0,"bend":0.0,"ch":4},{"t":210.905,"dur":0.14,"note":77,"inst":"organ_v0_additive_1","vel":1.0,"bend":0.0,"ch":13},{"t":211.045,"dur":0.14,"note":72,"inst":"piano_v0_additive_0","vel":1.0,"bend":0.0,"ch":8},{"t":211.185,"dur":0.14,"note":65,"inst":"organ_v0_additive_1","vel":1.0,"bend":0.0,"ch":1},{"t":211.185,"dur":0.14,"note":84,"inst":"piano_v0_additive_0","vel":1.0,"bend":0.0,"ch":4},{"t":211.325,"dur":0.14,"note":65,"inst":"organ_v0_additive_1","vel":1.0,"bend":0.0,"ch":1},{"t":211.325,"dur":0.07,"note":82,"inst":"harpsichord_v0_additive_2","vel":1.0,"bend":0.0,"ch":2},{"t":211.394,"dur":0.07,"note":80,"inst":"piano_v0_additive_0","vel":1.0,"bend":0.0,"ch":0},{"t":211.464,"dur":0.14,"note":70,"inst":"harpsichord_v0_additive_2","vel":1.0,"bend":0.0,"ch":6},{"t":211.464,"dur":0.14,"note":77,"inst":"organ_v0_additive_1","vel":1.0,"bend":0.0,"ch":13},{"t":211.604,"dur":0.14,"note":75,"inst":"celesta_v0_additive_3","vel":1.0,"bend":0.0,"ch":11},{"t":211.744,"dur":0.14,"note":67,"inst":"celesta_v0_additive_3","vel":1.0,"bend":0.0,"ch":3},{"t":211.744,"dur":0.14,"note":87,"inst":"celesta_v0_additive_3","vel":1.0,"bend":0.0,"ch":7},{"t":211.884,"dur":0.28,"note":68,"inst":"piano_v0_additive_0","vel":1.0,"bend":0.0,"ch":4},{"t":211.884,"dur":0.07,"note":82,"inst":"harpsichord_v0_additive_2","vel":1.0,"bend":0.0,"ch":2},{"t":211.954,"dur":0.07,"note":87,"inst":"celesta_v0_additive_3","vel":1.0,"bend":0.0,"ch":7},{"t":212.023,"dur":0.07,"note":84,"inst":"piano_v0_additive_0","vel":1.0,"bend":0.0,"ch":4},{"t":212.093,"dur":0.07,"note":87,"inst":"celesta_v0_additive_3","vel":1.0,"bend":0.0,"ch":7},{"t":212.163,"dur":0.28,"note":67,"inst":"celesta_v0_additive_3","vel":1.0,"bend":0.0,"ch":3},{"t":212.163,"dur":0.07,"note":82,"inst":"harpsichord_v0_additive_2","vel":1.0,"bend":0.0,"ch":2},{"t":212.233,"dur":0.07,"note":87,"inst":"celesta_v0_additive_3","vel":1.0,"bend":0.0,"ch":7},{"t":212.303,"dur":0.07,"note":84,"inst":"piano_v0_additive_0","vel":1.0,"bend":0.0,"ch":4},{"t":212.373,"dur":0.07,"note":87,"inst":"celesta_v0_additive_3","vel":1.0,"bend":0.0,"ch":7},{"t":212.443,"dur":0.14,"note":68,"inst":"piano_v0_additive_0","vel":1.0,"bend":0.0,"ch":4},{"t":212.443,"dur":0.14,"note":82,"inst":"harpsichord_v0_additive_2","vel":1.0,"bend":0.0,"ch":2},{"t":212.583,"dur":0.14,"note":56,"inst":"piano_v0_additive_0","vel":1.0,"bend":0.0,"ch":8},{"t":212.583,"dur":0.14,"note":75,"inst":"celesta_v0_additive_3","vel":1.0,"bend":0.0,"ch":11},{"t":212.722,"dur":0.28,"note":58,"inst":"harpsichord_v0_additive_2","vel":1.0,"bend":0.0,"ch":10},{"t":212.722,"dur":0.14,"note":74,"inst":"harpsichord_v0_additive_2","vel":1.0,"bend":0.0,"ch":10},{"t":212.862,"dur":0.14,"note":82,"inst":"harpsichord_v0_additive_2","vel":1.0,"bend":0.0,"ch":2},{"t":213.002,"dur":0.14,"note":58,"inst":"harpsichord_v0_additive_2","vel":1.0,"bend":0.0,"ch":10},{"t":213.002,"dur":0.14,"note":75,"inst":"celesta_v0_additive_3","vel":1.0,"bend":0.0,"ch":11},{"t":213.142,"dur":0.14,"note":63,"inst":"celesta_v0_additive_3","vel":1.0,"bend":0.0,"ch":15},{"t":213.142,"dur":0.07,"note":82,"inst":"harpsichord_v0_additive_2","vel":1.0,"bend":0.0,"ch":2},{"t":213.212,"dur":0.07,"note":82,"inst":"harpsichord_v0_additive_2","vel":1.0,"bend":0.0,"ch":2},{"t":213.281,"dur":0.14,"note":65,"inst":"organ_v0_additive_1","vel":1.0,"bend":0.0,"ch":1},{"t":213.281,"dur":0.07,"note":80,"inst":"piano_v0_additive_0","vel":1.0,"bend":0.0,"ch":0},{"t":213.351,"dur":0.07,"note":77,"inst":"organ_v0_additive_1","vel":1.0,"bend":0.0,"ch":13},{"t":213.421,"dur":0.14,"note":56,"inst":"piano_v0_additive_0","vel":1.0,"bend":0.0,"ch":8},{"t":213.421,"dur":0.07,"note":77,"inst":"organ_v0_additive_1","vel":1.0,"bend":0.0,"ch":13},{"t":213.491,"dur":0.07,"note":75,"inst":"celesta_v0_additive_3","vel":1.0,"bend":0.0,"ch":11},{"t":213.561,"dur":0.14,"note":58,"inst":"harpsichord_v0_additive_2","vel":1.0,"bend":0.0,"ch":10},{"t":213.561,"dur":0.28,"note":74,"inst":"harpsichord_v0_additive_2","vel":1.0,"bend":0.0,"ch":10},{"t":213.701,"dur":0.14,"note":60,"inst":"piano_v0_additive_0","vel":1.0,"bend":0.0,"ch":12},{"t":213.841,"dur":0.14,"note":62,"inst":"harpsichord_v0_additive_2","vel":1.0,"bend":0.0,"ch":14},{"t":213.98,"dur":0.14,"note":58,"inst":"harpsichord_v0_additive_2","vel":1.0,"bend":0.0,"ch":10},{"t":213.98,"dur":0.14,"note":77,"inst":"organ_v0_additive_1","vel":1.0,"bend":0.0,"ch":13},{"t":214.12,"dur":0.14,"note":63,"inst":"celesta_v0_additive_3","vel":1.0,"bend":0.0,"ch":15},{"t":214.12,"dur":0.07,"note":77,"inst":"organ_v0_additive_1","vel":1.0,"bend":0.0,"ch":13},{"t":214.19,"dur":0.07,"note":80,"inst":"piano_v0_additive_0","vel":1.0,"bend":0.0,"ch":0},{"t":214.26,"dur":0.14,"note":65,"inst":"organ_v0_additive_1","vel":1.0,"bend":0.0,"ch":1},{"t":214.26,"dur":0.07,"note":82,"inst":"harpsichord_v0_additive_2","vel":1.0,"bend":0.0,"ch":2},{"t":214.33,"dur":0.07,"note":77,"inst":"organ_v0_additive_1","vel":1.0,"bend":0.0,"ch":13},{"t":214.4,"dur":0.14,"note":65,"inst":"organ_v0_additive_1","vel":1.0,"bend":0.0,"ch":1},{"t":214.4,"dur":0.07,"note":80,"inst":"piano_v0_additive_0","vel":1.0,"bend":0.0,"ch":0},{"t":214.47,"dur":0.07,"note":82,"inst":"harpsichord_v0_additive_2","vel":1.0,"bend":0.0,"ch":2},{"t":214.539,"dur":0.14,"note":68,"inst":"piano_v0_additive_0","vel":1.0,"bend":0.0,"ch":4},{"t":214.539,"dur":0.07,"note":82,"inst":"harpsichord_v0_additive_2","vel":1.0,"bend":0.0,"ch":2},{"t":214.609,"dur":0.07,"note":80,"inst":"piano_v0_additive_0","vel":1.0,"bend":0.0,"ch":0},{"t":214.679,"dur":0.14,"note":65,"inst":"organ_v0_additive_1","vel":1.0,"bend":0.0,"ch":1},{"t":214.679,"dur":0.07,"note":82,"inst":"harpsichord_v0_additive_2","vel":1.0,"bend":0.0,"ch":2},{"t":214.749,"dur":0.07,"note":82,"inst":"harpsichord_v0_additive_2","vel":1.0,"bend":0.0,"ch":2},{"t":214.819,"dur":0.14,"note":70,"inst":"harpsichord_v0_additive_2","vel":1.0,"bend":0.0,"ch":6},{"t":214.819,"dur":0.07,"note":84,"inst":"piano_v0_additive_0","vel":1.0,"bend":0.0,"ch":4},{"t":214.889,"dur":0.07,"note":82,"inst":"harpsichord_v0_additive_2","vel":1.0,"bend":0.0,"ch":2},{"t":214.959,"dur":0.14,"note":68,"inst":"piano_v0_additive_0","vel":1.0,"bend":0.0,"ch":4},{"t":214.959,"dur":0.07,"note":82,"inst":"harpsichord_v0_additive_2","vel":1.0,"bend":0.0,"ch":2},{"t":215.029,"dur":0.07,"note":84,"inst":"piano_v0_additive_0","vel":1.0,"bend":0.0,"ch":4},{"t":215.099,"dur":0.14,"note":56,"inst":"piano_v0_additive_0","vel":1.0,"bend":0.0,"ch":8},{"t":215.099,"dur":0.07,"note":87,"inst":"celesta_v0_additive_3","vel":1.0,"bend":0.0,"ch":7},{"t":215.168,"dur":0.07,"note":82,"inst":"harpsichord_v0_additive_2","vel":1.0,"bend":0.0,"ch":2},{"t":215.238,"dur":0.14,"note":58,"inst":"harpsichord_v0_additive_2","vel":1.0,"bend":0.0,"ch":10},{"t":215.238,"dur":0.14,"note":84,"inst":"piano_v0_additive_0","vel":1.0,"bend":0.0,"ch":4},{"t":215.378,"dur":0.14,"note":65,"inst":"organ_v0_additive_1","vel":1.0,"bend":0.0,"ch":1},{"t":215.378,"dur":0.07,"note":87,"inst":"celesta_v0_additive_3","vel":1.0,"bend":0.0,"ch":7},{"t":215.448,"dur":0.07,"note":84,"inst":"piano_v0_additive_0","vel":1.0,"bend":0.0,"ch":4},{"t":215.518,"dur":0.14,"note":63,"inst":"celesta_v0_additive_3","vel":1.0,"bend":0.0,"ch":15},{"t":215.518,"dur":0.07,"note":82,"inst":"harpsichord_v0_additive_2","vel":1.0,"bend":0.0,"ch":2},{"t":215.588,"dur":0.07,"note":82,"inst":"harpsichord_v0_additive_2","vel":1.0,"bend":0.0,"ch":2},{"t":215.658,"dur":0.14,"note":58,"inst":"harpsichord_v0_additive_2","vel":1.0,"bend":0.0,"ch":10},{"t":215.658,"dur":0.07,"note":80,"inst":"piano_v0_additive_0","vel":1.0,"bend":0.0,"ch":0},{"t":215.728,"dur":0.07,"note":77,"inst":"organ_v0_additive_1","vel":1.0,"bend":0.0,"ch":13},{"t":215.797,"dur":0.14,"note":60,"inst":"piano_v0_additive_0","vel":1.0,"bend":0.0,"ch":12},{"t":215.797,"dur":0.28,"note":77,"inst":"organ_v0_additive_1","vel":1.0,"bend":0.0,"ch":13},{"t":215.937,"dur":0.14,"note":63,"inst":"celesta_v0_additive_3","vel":1.0,"bend":0.0,"ch":15},{"t":216.077,"dur":0.14,"note":65,"inst":"organ_v0_additive_1","vel":1.0,"bend":0.0,"ch":1},{"t":216.217,"dur":0.14,"note":60,"inst":"piano_v0_additive_0","vel":1.0,"bend":0.0,"ch":12},{"t":216.217,"dur":0.07,"note":84,"inst":"piano_v0_additive_0","vel":1.0,"bend":0.0,"ch":4},{"t":216.287,"dur":0.07,"note":77,"inst":"organ_v0_additive_1","vel":1.0,"bend":0.0,"ch":13},{"t":216.357,"dur":0.28,"note":63,"inst":"celesta_v0_additive_3","vel":1.0,"bend":0.0,"ch":15},{"t":216.357,"dur":0.14,"note":77,"inst":"organ_v0_additive_1","vel":1.0,"bend":0.0,"ch":13},{"t":216.496,"dur":0.07,"note":82,"inst":"harpsichord_v0_additive_2","vel":1.0,"bend":0.0,"ch":2},{"t":216.566,"dur":0.07,"note":82,"inst":"harpsichord_v0_additive_2","vel":1.0,"bend":0.0,"ch":2},{"t":216.636,"dur":0.28,"note":65,"inst":"organ_v0_additive_1","vel":1.0,"bend":0.0,"ch":1},{"t":216.636,"dur":0.14,"note":80,"inst":"piano_v0_additive_0","vel":1.0,"bend":0.0,"ch":0},{"t":216.776,"dur":0.07,"note":84,"inst":"piano_v0_additive_0","vel":1.0,"bend":0.0,"ch":4},{"t":216.846,"dur":0.07,"note":82,"inst":"harpsichord_v0_additive_2","vel":1.0,"bend":0.0,"ch":2},{"t":216.916,"dur":0.14,"note":65,"inst":"organ_v0_additive_1","vel":1.0,"bend":0.0,"ch":1},{"t":216.916,"dur":0.28,"note":82,"inst":"harpsichord_v0_additive_2","vel":1.0,"bend":0.0,"ch":2},{"t":217.055,"dur":0.07,"note":65,"inst":"organ_v0_additive_1","vel":1.0,"bend":0.0,"ch":1},{"t":217.125,"dur":0.07,"note":68,"inst":"piano_v0_additive_0","vel":1.0,"bend":0.0,"ch":4},{"t":217.195,"dur":0.14,"note":70,"inst":"harpsichord_v0_additive_2","vel":1.0,"bend":0.0,"ch":6},{"t":217.335,"dur":0.14,"note":58,"inst":"harpsichord_v0_additive_2","vel":1.0,"bend":0.0,"ch":10},{"t":217.335,"dur":0.07,"note":89,"inst":"organ_v0_additive_1","vel":1.0,"bend":0.0,"ch":9},{"t":217.405,"dur":0.07,"note":82,"inst":"harpsichord_v0_additive_2","vel":1.0,"bend":0.0,"ch":2},{"t":217.475,"dur":0.14,"note":60,"inst":"piano_v0_additive_0","vel":1.0,"bend":0.0,"ch":12},{"t":217.475,"dur":0.07,"note":82,"inst":"harpsichord_v0_additive_2","vel":1.0,"bend":0.0,"ch":2},{"t":217.545,"dur":0.07,"note":80,"inst":"piano_v0_additive_0","vel":1.0,"bend":0.0,"ch":0},{"t":217.614,"dur":0.14,"note":62,"inst":"harpsichord_v0_additive_2","vel":1.0,"bend":0.0,"ch":14},{"t":217.614,"dur":0.07,"note":89,"inst":"organ_v0_additive_1","vel":1.0,"bend":0.0,"ch":9},{"t":217.684,"dur":0.07,"note":80,"inst":"piano_v0_additive_0","vel":1.0,"bend":0.0,"ch":0},{"t":217.754,"dur":0.14,"note":63,"inst":"celesta_v0_additive_3","vel":1.0,"bend":0.0,"ch":15},{"t":217.754,"dur":0.07,"note":80,"inst":"piano_v0_additive_0","vel":1.0,"bend":0.0,"ch":0},{"t":217.824,"dur":0.07,"note":77,"inst":"organ_v0_additive_1","vel":1.0,"bend":0.0,"ch":13},{"t":217.894,"dur":0.14,"note":65,"inst":"organ_v0_additive_1","vel":1.0,"bend":0.0,"ch":1},{"t":217.894,"dur":0.07,"note":87,"inst":"celesta_v0_additive_3","vel":1.0,"bend":0.0,"ch":7},{"t":217.964,"dur":0.07,"note":77,"inst":"organ_v0_additive_1","vel":1.0,"bend":0.0,"ch":13},{"t":218.034,"dur":0.14,"note":68,"inst":"piano_v0_additive_0","vel":1.0,"bend":0.0,"ch":4},{"t":218.034,"dur":0.07,"note":77,"inst":"organ_v0_additive_1","vel":1.0,"bend":0.0,"ch":13},{"t":218.104,"dur":0.07,"note":77,"inst":"organ_v0_additive_1","vel":1.0,"bend":0.0,"ch":13},{"t":218.174,"dur":0.14,"note":70,"inst":"harpsichord_v0_additive_2","vel":1.0,"bend":0.0,"ch":6},{"t":218.174,"dur":0.07,"note":84,"inst":"piano_v0_additive_0","vel":1.0,"bend":0.0,"ch":4},{"t":218.243,"dur":0.07,"note":77,"inst":"organ_v0_additive_1","vel":1.0,"bend":0.0,"ch":13},{"t":218.313,"dur":0.14,"note":65,"inst":"organ_v0_additive_1","vel":1.0,"bend":0.0,"ch":1},{"t":218.313,"dur":0.07,"note":77,"inst":"organ_v0_additive_1","vel":1.0,"bend":0.0,"ch":13},{"t":218.383,"dur":0.07,"note":75,"inst":"celesta_v0_additive_3","vel":1.0,"bend":0.0,"ch":11},{"t":218.453,"dur":0.14,"note":68,"inst":"piano_v0_additive_0","vel":1.0,"bend":0.0,"ch":4},{"t":218.453,"dur":0.07,"note":82,"inst":"harpsichord_v0_additive_2","vel":1.0,"bend":0.0,"ch":2},{"t":218.523,"dur":0.07,"note":75,"inst":"celesta_v0_additive_3","vel":1.0,"bend":0.0,"ch":11},{"t":218.593,"dur":0.14,"note":65,"inst":"organ_v0_additive_1","vel":1.0,"bend":0.0,"ch":1},{"t":218.593,"dur":0.07,"note":72,"inst":"piano_v0_additive_0","vel":1.0,"bend":0.0,"ch":8},{"t":218.663,"dur":0.07,"note":80,"inst":"piano_v0_additive_0","vel":1.0,"bend":0.0,"ch":0},{"t":218.733,"dur":0.14,"note":65,"inst":"organ_v0_additive_1","vel":1.0,"bend":0.0,"ch":1},{"t":218.733,"dur":0.07,"note":82,"inst":"harpsichord_v0_additive_2","vel":1.0,"bend":0.0,"ch":2},{"t":218.803,"dur":0.07,"note":77,"inst":"organ_v0_additive_1","vel":1.0,"bend":0.0,"ch":13},{"t":218.872,"dur":0.14,"note":60,"inst":"piano_v0_additive_0","vel":1.0,"bend":0.0,"ch":12},{"t":218.872,"dur":0.21,"note":77,"inst":"organ_v0_additive_1","vel":1.0,"bend":0.0,"ch":13},{"t":219.012,"dur":0.14,"note":48,"inst":"piano_v0_additive_0","vel":1.0,"bend":0.0,"ch":0},{"t":219.082,"dur":0.07,"note":77,"inst":"organ_v0_additive_1","vel":1.0,"bend":0.0,"ch":13},{"t":219.152,"dur":0.14,"note":53,"inst":"organ_v0_additive_1","vel":1.0,"bend":0.0,"ch":5},{"t":219.152,"dur":0.28,"note":77,"inst":"organ_v0_additive_1","vel":1.0,"bend":0.0,"ch":13}]}