{"track_num":10,"title":"Moss","duration":298.25,"start_time":2723.75,"n_events":253,"events":[{"t":0.348,"dur":0.327,"note":72,"inst":"piano_v0_additive_0","vel":0.787,"bend":0.0,"ch":8},{"t":0.675,"dur":0.245,"note":74,"inst":"harpsichord_v0_additive_2","vel":0.787,"bend":0.0,"ch":10},{"t":0.92,"dur":0.082,"note":72,"inst":"piano_v0_additive_0","vel":0.787,"bend":0.0,"ch":8},{"t":1.002,"dur":0.327,"note":52,"inst":"piano_v0_additive_0","vel":0.787,"bend":0.0,"ch":4},{"t":1.002,"dur":0.327,"note":57,"inst":"organ_v0_additive_1","vel":0.787,"bend":0.0,"ch":9},{"t":1.002,"dur":0.327,"note":60,"inst":"piano_v0_additive_0","vel":0.787,"bend":0.0,"ch":12},{"t":1.002,"dur":0.327,"note":69,"inst":"organ_v0_additive_1","vel":0.787,"bend":0.0,"ch":5},{"t":1.329,"dur":0.327,"note":52,"inst":"piano_v0_additive_0","vel":0.787,"bend":0.0,"ch":4},{"t":1.329,"dur":0.327,"note":57,"inst":"organ_v0_additive_1","vel":0.787,"bend":0.0,"ch":9},{"t":1.329,"dur":0.327,"note":60,"inst":"piano_v0_additive_0","vel":0.787,"bend":0.0,"ch":12},{"t":1.329,"dur":0.327,"note":72,"inst":"piano_v0_additive_0","vel":0.787,"bend":0.0,"ch":8},{"t":1.656,"dur":0.654,"note":72,"inst":"piano_v0_additive_0","vel":0.787,"bend":0.0,"ch":8},{"t":1.983,"dur":0.327,"note":52,"inst":"piano_v0_additive_0","vel":0.787,"bend":0.0,"ch":4},{"t":1.983,"dur":0.327,"note":55,"inst":"celesta_v0_additive_3","vel":0.787,"bend":0.0,"ch":7},{"t":1.983,"dur":0.327,"note":60,"inst":"piano_v0_additive_0","vel":0.787,"bend":0.0,"ch":12},{"t":2.31,"dur":0.327,"note":52,"inst":"piano_v0_additive_0","vel":0.787,"bend":0.0,"ch":4},{"t":2.31,"dur":0.327,"note":55,"inst":"celesta_v0_additive_3","vel":0.787,"bend":0.0,"ch":7},{"t":2.31,"dur":0.327,"note":60,"inst":"piano_v0_additive_0","vel":0.787,"bend":0.0,"ch":12},{"t":2.31,"dur":0.327,"note":72,"inst":"piano_v0_additive_0","vel":0.787,"bend":0.0,"ch":8},{"t":2.636,"dur":0.054,"note":69,"inst":"organ_v0_additive_1","vel":0.787,"bend":0.0,"ch":5},{"t":2.691,"dur":0.054,"note":72,"inst":"piano_v0_additive_0","vel":0.787,"bend":0.0,"ch":8},{"t":2.745,"dur":0.054,"note":69,"inst":"organ_v0_additive_1","vel":0.787,"bend":0.0,"ch":5},{"t":2.8,"dur":0.163,"note":69,"inst":"organ_v0_additive_1","vel":0.787,"bend":0.0,"ch":5},{"t":2.963,"dur":0.327,"note":48,"inst":"piano_v0_additive_0","vel":0.787,"bend":0.0,"ch":0},{"t":2.963,"dur":0.327,"note":52,"inst":"piano_v0_additive_0","vel":0.787,"bend":0.0,"ch":4},{"t":2.963,"dur":0.327,"note":57,"inst":"organ_v0_additive_1","vel":0.787,"bend":0.0,"ch":9},{"t":2.963,"dur":0.163,"note":69,"inst":"organ_v0_additive_1","vel":0.787,"bend":0.0,"ch":5},{"t":3.127,"dur":0.163,"note":71,"inst":"celesta_v0_additive_3","vel":0.787,"bend":0.0,"ch":7},{"t":3.29,"dur":0.327,"note":48,"inst":"piano_v0_additive_0","vel":0.787,"bend":0.0,"ch":0},{"t":3.29,"dur":0.327,"note":52,"inst":"piano_v0_additive_0","vel":0.787,"bend":0.0,"ch":4},{"t":3.29,"dur":0.327,"note":57,"inst":"organ_v0_additive_1","vel":0.787,"bend":0.0,"ch":9},{"t":3.29,"dur":0.163,"note":72,"inst":"piano_v0_additive_0","vel":0.787,"bend":0.0,"ch":8},{"t":3.454,"dur":0.163,"note":67,"inst":"celesta_v0_additive_3","vel":0.787,"bend":0.0,"ch":3},{"t":3.617,"dur":0.654,"note":69,"inst":"organ_v0_additive_1","vel":0.787,"bend":0.0,"ch":5},{"t":3.944,"dur":0.327,"note":40,"inst":"piano_v0_additive_0","vel":0.787,"bend":0.0,"ch":8},{"t":4.271,"dur":0.327,"note":48,"inst":"piano_v0_additive_0","vel":0.787,"bend":0.0,"ch":0},{"t":4.271,"dur":0.327,"note":55,"inst":"celesta_v0_additive_3","vel":0.787,"bend":0.0,"ch":7},{"t":4.271,"dur":0.327,"note":67,"inst":"celesta_v0_additive_3","vel":0.787,"bend":0.0,"ch":3},{"t":4.598,"dur":0.109,"note":64,"inst":"piano_v0_additive_0","vel":0.787,"bend":0.0,"ch":0},{"t":4.707,"dur":0.109,"note":67,"inst":"celesta_v0_additive_3","vel":0.787,"bend":0.0,"ch":3},{"t":4.816,"dur":0.109,"note":64,"inst":"piano_v0_additive_0","vel":0.787,"bend":0.0,"ch":0},{"t":4.925,"dur":0.327,"note":48,"inst":"piano_v0_additive_0","vel":0.787,"bend":0.0,"ch":0},{"t":4.925,"dur":0.327,"note":55,"inst":"celesta_v0_additive_3","vel":0.787,"bend":0.0,"ch":7},{"t":4.925,"dur":0.327,"note":64,"inst":"piano_v0_additive_0","vel":0.787,"bend":0.0,"ch":0},{"t":5.252,"dur":0.327,"note":40,"inst":"piano_v0_additive_0","vel":0.787,"bend":0.0,"ch":8},{"t":5.252,"dur":0.327,"note":64,"inst":"piano_v0_additive_0","vel":0.787,"bend":0.0,"ch":0},{"t":5.579,"dur":0.327,"note":67,"inst":"celesta_v0_additive_3","vel":0.787,"bend":0.0,"ch":3},{"t":5.906,"dur":0.327,"note":48,"inst":"piano_v0_additive_0","vel":0.787,"bend":0.0,"ch":0},{"t":5.906,"dur":0.327,"note":50,"inst":"harpsichord_v0_additive_2","vel":0.787,"bend":0.0,"ch":2},{"t":5.906,"dur":0.327,"note":55,"inst":"celesta_v0_additive_3","vel":0.787,"bend":0.0,"ch":7},{"t":5.906,"dur":0.654,"note":72,"inst":"piano_v0_additive_0","vel":1.0,"bend":0.0,"ch":8},{"t":6.233,"dur":0.327,"note":43,"inst":"celesta_v0_additive_3","vel":0.787,"bend":0.0,"ch":11},{"t":6.559,"dur":0.163,"note":67,"inst":"celesta_v0_additive_3","vel":0.787,"bend":0.0,"ch":3},{"t":6.723,"dur":0.163,"note":62,"inst":"harpsichord_v0_additive_2","vel":0.787,"bend":0.0,"ch":14},{"t":6.886,"dur":0.327,"note":43,"inst":"celesta_v0_additive_3","vel":0.787,"bend":0.0,"ch":11},{"t":6.886,"dur":0.327,"note":50,"inst":"harpsichord_v0_additive_2","vel":0.787,"bend":0.0,"ch":2},{"t":6.886,"dur":0.327,"note":55,"inst":"celesta_v0_additive_3","vel":0.787,"bend":0.0,"ch":7},{"t":6.886,"dur":0.163,"note":60,"inst":"piano_v0_additive_0","vel":0.787,"bend":0.0,"ch":12},{"t":7.05,"dur":0.163,"note":67,"inst":"celesta_v0_additive_3","vel":0.787,"bend":0.0,"ch":3},{"t":7.213,"dur":0.327,"note":43,"inst":"celesta_v0_additive_3","vel":0.787,"bend":0.0,"ch":11},{"t":7.213,"dur":0.327,"note":50,"inst":"harpsichord_v0_additive_2","vel":0.787,"bend":0.0,"ch":2},{"t":7.213,"dur":0.327,"note":55,"inst":"celesta_v0_additive_3","vel":0.787,"bend":0.0,"ch":7},{"t":7.213,"dur":0.327,"note":59,"inst":"celesta_v0_additive_3","vel":0.787,"bend":0.0,"ch":11},{"t":7.54,"dur":0.327,"note":48,"inst":"piano_v0_additive_0","vel":0.787,"bend":0.0,"ch":0},{"t":7.54,"dur":0.327,"note":52,"inst":"piano_v0_additive_0","vel":0.787,"bend":0.0,"ch":4},{"t":7.54,"dur":0.327,"note":55,"inst":"celesta_v0_additive_3","vel":0.787,"bend":0.0,"ch":7},{"t":7.54,"dur":0.654,"note":60,"inst":"piano_v0_additive_0","vel":0.787,"bend":0.0,"ch":12},{"t":7.867,"dur":0.327,"note":36,"inst":"piano_v0_additive_0","vel":0.787,"bend":0.0,"ch":4},{"t":8.194,"dur":0.327,"note":72,"inst":"piano_v0_additive_0","vel":0.787,"bend":0.0,"ch":8},{"t":8.521,"dur":0.245,"note":72,"inst":"piano_v0_additive_0","vel":0.787,"bend":0.0,"ch":8},{"t":8.766,"dur":0.082,"note":72,"inst":"piano_v0_additive_0","vel":0.787,"bend":0.0,"ch":8},{"t":8.848,"dur":0.327,"note":52,"inst":"piano_v0_additive_0","vel":0.787,"bend":0.0,"ch":4},{"t":8.848,"dur":0.327,"note":57,"inst":"organ_v0_additive_1","vel":0.787,"bend":0.0,"ch":9},{"t":8.848,"dur":0.327,"note":60,"inst":"piano_v0_additive_0","vel":0.787,"bend":0.0,"ch":12},{"t":8.848,"dur":0.327,"note":69,"inst":"organ_v0_additive_1","vel":0.787,"bend":0.0,"ch":5},{"t":126.34,"dur":0.256,"note":57,"inst":"organ_v0_additive_1","vel":0.315,"bend":0.0,"ch":9},{"t":126.58,"dur":0.291,"note":69,"inst":"organ_v0_additive_1","vel":0.386,"bend":0.0,"ch":5},{"t":126.598,"dur":0.24,"note":54,"inst":"harpsichord_v0_additive_2","vel":0.315,"bend":0.0,"ch":6},{"t":126.843,"dur":0.274,"note":48,"inst":"piano_v0_additive_0","vel":0.307,"bend":0.0,"ch":0},{"t":127.084,"dur":0.253,"note":52,"inst":"piano_v0_additive_0","vel":0.315,"bend":0.0,"ch":4},{"t":127.086,"dur":0.213,"note":45,"inst":"organ_v0_additive_1","vel":0.315,"bend":0.0,"ch":13},{"t":127.146,"dur":0.523,"note":69,"inst":"organ_v0_additive_1","vel":0.441,"bend":0.0,"ch":5},{"t":127.176,"dur":0.148,"note":67,"inst":"celesta_v0_additive_3","vel":0.307,"bend":0.0,"ch":3},{"t":127.185,"dur":0.131,"note":60,"inst":"piano_v0_additive_0","vel":0.189,"bend":0.0,"ch":12},{"t":127.367,"dur":0.299,"note":57,"inst":"organ_v0_additive_1","vel":0.354,"bend":0.0,"ch":9},{"t":127.612,"dur":0.756,"note":76,"inst":"piano_v0_additive_0","vel":0.457,"bend":0.0,"ch":12},{"t":127.646,"dur":0.336,"note":60,"inst":"piano_v0_additive_0","vel":0.323,"bend":0.0,"ch":12},{"t":127.874,"dur":0.408,"note":57,"inst":"organ_v0_additive_1","vel":0.362,"bend":0.0,"ch":9},{"t":128.151,"dur":0.428,"note":63,"inst":"celesta_v0_additive_3","vel":0.37,"bend":0.0,"ch":15},{"t":128.232,"dur":0.479,"note":75,"inst":"celesta_v0_additive_3","vel":0.441,"bend":0.0,"ch":11},{"t":128.254,"dur":0.232,"note":69,"inst":"organ_v0_additive_1","vel":0.268,"bend":0.0,"ch":5},{"t":128.272,"dur":0.18,"note":67,"inst":"celesta_v0_additive_3","vel":0.276,"bend":0.0,"ch":3},{"t":128.478,"dur":0.317,"note":57,"inst":"organ_v0_additive_1","vel":0.299,"bend":0.0,"ch":9},{"t":128.713,"dur":1.374,"note":72,"inst":"piano_v0_additive_0","vel":0.433,"bend":0.0,"ch":8},{"t":128.731,"dur":0.279,"note":64,"inst":"piano_v0_additive_0","vel":0.354,"bend":0.0,"ch":0},{"t":128.747,"dur":0.64,"note":69,"inst":"organ_v0_additive_1","vel":0.189,"bend":0.0,"ch":5},{"t":128.756,"dur":0.125,"note":67,"inst":"celesta_v0_additive_3","vel":0.22,"bend":0.0,"ch":3},{"t":128.994,"dur":0.088,"note":57,"inst":"organ_v0_additive_1","vel":0.339,"bend":0.0,"ch":9},{"t":129.374,"dur":0.624,"note":76,"inst":"piano_v0_additive_0","vel":0.362,"bend":0.0,"ch":12},{"t":129.375,"dur":0.805,"note":67,"inst":"celesta_v0_additive_3","vel":0.346,"bend":0.0,"ch":3},{"t":129.409,"dur":0.988,"note":51,"inst":"celesta_v0_additive_3","vel":0.283,"bend":0.0,"ch":3},{"t":129.742,"dur":0.367,"note":57,"inst":"organ_v0_additive_1","vel":0.307,"bend":0.0,"ch":9},{"t":130.024,"dur":0.273,"note":69,"inst":"organ_v0_additive_1","vel":0.315,"bend":0.0,"ch":5},{"t":130.035,"dur":0.374,"note":60,"inst":"piano_v0_additive_0","vel":0.276,"bend":0.0,"ch":12},{"t":130.336,"dur":0.595,"note":57,"inst":"organ_v0_additive_1","vel":0.252,"bend":0.0,"ch":9},{"t":130.724,"dur":0.823,"note":75,"inst":"celesta_v0_additive_3","vel":0.362,"bend":0.0,"ch":11},{"t":130.736,"dur":1.465,"note":69,"inst":"organ_v0_additive_1","vel":0.283,"bend":0.0,"ch":5},{"t":130.748,"dur":1.454,"note":64,"inst":"piano_v0_additive_0","vel":0.252,"bend":0.0,"ch":0},{"t":130.79,"dur":1.254,"note":51,"inst":"celesta_v0_additive_3","vel":0.26,"bend":0.0,"ch":3},{"t":131.073,"dur":0.435,"note":52,"inst":"piano_v0_additive_0","vel":0.26,"bend":0.0,"ch":4},{"t":131.408,"dur":0.71,"note":76,"inst":"piano_v0_additive_0","vel":0.417,"bend":0.0,"ch":12},{"t":131.447,"dur":0.271,"note":57,"inst":"organ_v0_additive_1","vel":0.197,"bend":0.0,"ch":9},{"t":131.68,"dur":0.242,"note":63,"inst":"celesta_v0_additive_3","vel":0.362,"bend":0.0,"ch":15},{"t":131.927,"dur":0.308,"note":75,"inst":"celesta_v0_additive_3","vel":0.52,"bend":0.0,"ch":11},{"t":131.933,"dur":0.245,"note":57,"inst":"organ_v0_additive_1","vel":0.37,"bend":0.0,"ch":9},{"t":132.18,"dur":0.054,"note":52,"inst":"piano_v0_additive_0","vel":0.402,"bend":0.0,"ch":4},{"t":132.463,"dur":0.682,"note":75,"inst":"celesta_v0_additive_3","vel":0.535,"bend":0.0,"ch":11},{"t":132.475,"dur":1.178,"note":64,"inst":"piano_v0_additive_0","vel":0.433,"bend":0.0,"ch":0},{"t":132.478,"dur":1.184,"note":67,"inst":"celesta_v0_additive_3","vel":0.488,"bend":0.0,"ch":3},{"t":132.503,"dur":0.245,"note":45,"inst":"organ_v0_additive_1","vel":0.449,"bend":0.0,"ch":13},{"t":132.716,"dur":0.308,"note":52,"inst":"piano_v0_additive_0","vel":0.48,"bend":0.0,"ch":4},{"t":132.959,"dur":0.246,"note":55,"inst":"celesta_v0_additive_3","vel":0.504,"bend":0.0,"ch":7},{"t":133.025,"dur":0.483,"note":76,"inst":"piano_v0_additive_0","vel":0.622,"bend":0.0,"ch":12},{"t":133.204,"dur":0.241,"note":63,"inst":"celesta_v0_additive_3","vel":0.504,"bend":0.0,"ch":15},{"t":133.45,"dur":0.267,"note":75,"inst":"celesta_v0_additive_3","vel":0.63,"bend":0.0,"ch":11},{"t":133.46,"dur":0.19,"note":55,"inst":"celesta_v0_additive_3","vel":0.488,"bend":0.0,"ch":7},{"t":133.67,"dur":0.044,"note":52,"inst":"piano_v0_additive_0","vel":0.48,"bend":0.0,"ch":4},{"t":133.917,"dur":0.226,"note":43,"inst":"celesta_v0_additive_3","vel":0.551,"bend":0.0,"ch":11},{"t":133.922,"dur":0.248,"note":75,"inst":"celesta_v0_additive_3","vel":0.646,"bend":0.0,"ch":11},{"t":133.941,"dur":0.114,"note":64,"inst":"piano_v0_additive_0","vel":0.465,"bend":0.0,"ch":0},{"t":133.942,"dur":0.167,"note":71,"inst":"celesta_v0_additive_3","vel":0.457,"bend":0.0,"ch":7},{"t":134.183,"dur":0.258,"note":52,"inst":"piano_v0_additive_0","vel":0.535,"bend":0.0,"ch":4},{"t":134.413,"dur":0.827,"note":83,"inst":"celesta_v0_additive_3","vel":0.677,"bend":0.0,"ch":3},{"t":134.475,"dur":0.262,"note":63,"inst":"celesta_v0_additive_3","vel":0.331,"bend":0.0,"ch":15},{"t":134.695,"dur":0.353,"note":55,"inst":"celesta_v0_additive_3","vel":0.52,"bend":0.0,"ch":7},{"t":134.969,"dur":0.49,"note":63,"inst":"celesta_v0_additive_3","vel":0.512,"bend":0.0,"ch":15},{"t":135.046,"dur":0.886,"note":76,"inst":"piano_v0_additive_0","vel":0.63,"bend":0.0,"ch":12},{"t":135.309,"dur":0.423,"note":64,"inst":"piano_v0_additive_0","vel":0.591,"bend":0.0,"ch":0},{"t":135.657,"dur":0.306,"note":71,"inst":"celesta_v0_additive_3","vel":0.591,"bend":0.0,"ch":7},{"t":135.895,"dur":0.406,"note":75,"inst":"celesta_v0_additive_3","vel":0.622,"bend":0.0,"ch":11},{"t":135.917,"dur":0.349,"note":64,"inst":"piano_v0_additive_0","vel":0.441,"bend":0.0,"ch":0},{"t":136.161,"dur":0.41,"note":63,"inst":"celesta_v0_additive_3","vel":0.504,"bend":0.0,"ch":15},{"t":136.243,"dur":1.295,"note":72,"inst":"piano_v0_additive_0","vel":0.63,"bend":0.0,"ch":8},{"t":136.506,"dur":0.291,"note":64,"inst":"piano_v0_additive_0","vel":0.512,"bend":0.0,"ch":0},{"t":136.794,"dur":0.079,"note":63,"inst":"celesta_v0_additive_3","vel":0.465,"bend":0.0,"ch":15},{"t":137.077,"dur":0.526,"note":57,"inst":"organ_v0_additive_1","vel":0.465,"bend":0.0,"ch":9},{"t":137.381,"dur":0.458,"note":71,"inst":"celesta_v0_additive_3","vel":0.543,"bend":0.0,"ch":7},{"t":137.405,"dur":0.535,"note":52,"inst":"piano_v0_additive_0","vel":0.425,"bend":0.0,"ch":4},{"t":137.775,"dur":0.525,"note":69,"inst":"organ_v0_additive_1","vel":0.52,"bend":0.0,"ch":5},{"t":137.798,"dur":0.628,"note":51,"inst":"celesta_v0_additive_3","vel":0.409,"bend":0.0,"ch":3},{"t":138.252,"dur":1.281,"note":72,"inst":"piano_v0_additive_0","vel":0.496,"bend":0.0,"ch":8},{"t":138.349,"dur":0.275,"note":45,"inst":"organ_v0_additive_1","vel":0.331,"bend":0.0,"ch":13},{"t":138.648,"dur":0.257,"note":64,"inst":"piano_v0_additive_0","vel":0.331,"bend":0.0,"ch":0},{"t":138.932,"dur":0.212,"note":60,"inst":"piano_v0_additive_0","vel":0.378,"bend":0.0,"ch":12},{"t":139.2,"dur":0.601,"note":57,"inst":"organ_v0_additive_1","vel":0.331,"bend":0.0,"ch":9},{"t":139.44,"dur":0.605,"note":75,"inst":"celesta_v0_additive_3","vel":0.551,"bend":0.0,"ch":11},{"t":139.468,"dur":0.257,"note":64,"inst":"piano_v0_additive_0","vel":0.331,"bend":0.0,"ch":0},{"t":139.729,"dur":0.048,"note":63,"inst":"celesta_v0_additive_3","vel":0.378,"bend":0.0,"ch":15},{"t":140.015,"dur":1.145,"note":75,"inst":"celesta_v0_additive_3","vel":0.496,"bend":0.0,"ch":11},{"t":140.105,"dur":0.19,"note":45,"inst":"organ_v0_additive_1","vel":0.425,"bend":0.0,"ch":13},{"t":140.324,"dur":0.306,"note":66,"inst":"harpsichord_v0_additive_2","vel":0.354,"bend":0.0,"ch":2},{"t":140.587,"dur":0.213,"note":63,"inst":"celesta_v0_additive_3","vel":0.331,"bend":0.0,"ch":15},{"t":140.835,"dur":0.58,"note":57,"inst":"organ_v0_additive_1","vel":0.378,"bend":0.0,"ch":9},{"t":141.061,"dur":0.326,"note":72,"inst":"piano_v0_additive_0","vel":0.535,"bend":0.0,"ch":8},{"t":141.077,"dur":0.272,"note":69,"inst":"organ_v0_additive_1","vel":0.394,"bend":0.0,"ch":5},{"t":141.341,"dur":0.368,"note":71,"inst":"celesta_v0_additive_3","vel":0.606,"bend":0.0,"ch":7},{"t":141.358,"dur":0.038,"note":66,"inst":"harpsichord_v0_additive_2","vel":0.417,"bend":0.0,"ch":2},{"t":141.635,"dur":1.087,"note":76,"inst":"piano_v0_additive_0","vel":0.583,"bend":0.0,"ch":12},{"t":141.727,"dur":0.168,"note":45,"inst":"organ_v0_additive_1","vel":0.472,"bend":0.0,"ch":13},{"t":141.946,"dur":0.257,"note":67,"inst":"celesta_v0_additive_3","vel":0.441,"bend":0.0,"ch":3},{"t":142.196,"dur":0.184,"note":64,"inst":"piano_v0_additive_0","vel":0.48,"bend":0.0,"ch":0},{"t":142.427,"dur":0.575,"note":57,"inst":"organ_v0_additive_1","vel":0.504,"bend":0.0,"ch":9},{"t":142.657,"dur":0.554,"note":76,"inst":"piano_v0_additive_0","vel":0.622,"bend":0.0,"ch":12},{"t":142.69,"dur":0.209,"note":67,"inst":"celesta_v0_additive_3","vel":0.52,"bend":0.0,"ch":3},{"t":142.921,"dur":0.024,"note":64,"inst":"piano_v0_additive_0","vel":0.52,"bend":0.0,"ch":0},{"t":143.174,"dur":1.086,"note":78,"inst":"harpsichord_v0_additive_2","vel":0.583,"bend":0.0,"ch":14},{"t":143.234,"dur":0.158,"note":45,"inst":"organ_v0_additive_1","vel":0.583,"bend":0.0,"ch":13},{"t":143.476,"dur":0.237,"note":69,"inst":"organ_v0_additive_1","vel":0.48,"bend":0.0,"ch":5},{"t":143.732,"dur":0.223,"note":66,"inst":"harpsichord_v0_additive_2","vel":0.528,"bend":0.0,"ch":2},{"t":143.961,"dur":0.047,"note":57,"inst":"organ_v0_additive_1","vel":0.512,"bend":0.0,"ch":9},{"t":144.178,"dur":0.311,"note":76,"inst":"piano_v0_additive_0","vel":0.598,"bend":0.0,"ch":12},{"t":144.192,"dur":0.2,"note":72,"inst":"piano_v0_additive_0","vel":0.472,"bend":0.0,"ch":8},{"t":144.446,"dur":0.779,"note":75,"inst":"celesta_v0_additive_3","vel":0.646,"bend":0.0,"ch":11},{"t":144.458,"dur":0.026,"note":66,"inst":"harpsichord_v0_additive_2","vel":0.465,"bend":0.0,"ch":2},{"t":144.779,"dur":0.94,"note":79,"inst":"celesta_v0_additive_3","vel":0.638,"bend":0.0,"ch":15},{"t":144.843,"dur":0.146,"note":47,"inst":"celesta_v0_additive_3","vel":0.543,"bend":0.0,"ch":15},{"t":145.082,"dur":0.117,"note":67,"inst":"celesta_v0_additive_3","vel":0.504,"bend":0.0,"ch":3},{"t":145.346,"dur":0.033,"note":63,"inst":"celesta_v0_additive_3","vel":0.512,"bend":0.0,"ch":15},{"t":145.638,"dur":0.703,"note":78,"inst":"harpsichord_v0_additive_2","vel":0.614,"bend":0.0,"ch":14},{"t":145.649,"dur":0.686,"note":72,"inst":"piano_v0_additive_0","vel":0.559,"bend":0.0,"ch":8},{"t":145.674,"dur":0.348,"note":45,"inst":"organ_v0_additive_1","vel":0.551,"bend":0.0,"ch":13},{"t":145.973,"dur":0.277,"note":57,"inst":"organ_v0_additive_1","vel":0.567,"bend":0.0,"ch":9},{"t":146.237,"dur":0.462,"note":76,"inst":"piano_v0_additive_0","vel":0.622,"bend":0.0,"ch":12},{"t":146.26,"dur":0.025,"note":60,"inst":"piano_v0_additive_0","vel":0.472,"bend":0.0,"ch":12},{"t":146.549,"dur":0.134,"note":43,"inst":"celesta_v0_additive_3","vel":0.535,"bend":0.0,"ch":11},{"t":146.692,"dur":0.107,"note":71,"inst":"celesta_v0_additive_3","vel":0.606,"bend":0.0,"ch":7},{"t":146.906,"dur":0.466,"note":87,"inst":"celesta_v0_additive_3","vel":0.661,"bend":0.0,"ch":7},{"t":147.104,"dur":0.115,"note":59,"inst":"celesta_v0_additive_3","vel":0.551,"bend":0.0,"ch":11},{"t":147.43,"dur":0.158,"note":63,"inst":"celesta_v0_additive_3","vel":0.52,"bend":0.0,"ch":15},{"t":147.432,"dur":0.121,"note":55,"inst":"celesta_v0_additive_3","vel":0.488,"bend":0.0,"ch":7},{"t":147.734,"dur":0.032,"note":67,"inst":"celesta_v0_additive_3","vel":0.543,"bend":0.0,"ch":3},{"t":147.744,"dur":0.06,"note":59,"inst":"celesta_v0_additive_3","vel":0.504,"bend":0.0,"ch":11},{"t":148.119,"dur":0.622,"note":75,"inst":"celesta_v0_additive_3","vel":0.622,"bend":0.0,"ch":11},{"t":148.126,"dur":0.824,"note":69,"inst":"organ_v0_additive_1","vel":0.512,"bend":0.0,"ch":5},{"t":148.132,"dur":0.324,"note":63,"inst":"celesta_v0_additive_3","vel":0.496,"bend":0.0,"ch":15},{"t":148.153,"dur":0.669,"note":51,"inst":"celesta_v0_additive_3","vel":0.543,"bend":0.0,"ch":3},{"t":148.159,"dur":0.3,"note":42,"inst":"harpsichord_v0_additive_2","vel":0.559,"bend":0.0,"ch":10},{"t":148.457,"dur":0.257,"note":40,"inst":"piano_v0_additive_0","vel":0.583,"bend":0.0,"ch":8},{"t":148.719,"dur":1.15,"note":43,"inst":"celesta_v0_additive_3","vel":0.535,"bend":0.0,"ch":11},{"t":148.763,"dur":0.694,"note":72,"inst":"piano_v0_additive_0","vel":0.614,"bend":0.0,"ch":8},{"t":148.776,"dur":0.723,"note":64,"inst":"piano_v0_additive_0","vel":0.472,"bend":0.0,"ch":0},{"t":148.777,"dur":0.723,"note":63,"inst":"celesta_v0_additive_3","vel":0.528,"bend":0.0,"ch":15},{"t":149.076,"dur":0.349,"note":51,"inst":"celesta_v0_additive_3","vel":0.52,"bend":0.0,"ch":3},{"t":294.37,"dur":0.136,"note":59,"inst":"celesta_v0_additive_3","vel":0.323,"bend":0.0,"ch":11},{"t":294.37,"dur":0.136,"note":69,"inst":"organ_v0_additive_1","vel":0.48,"bend":0.0,"ch":5},{"t":294.506,"dur":0.136,"note":57,"inst":"organ_v0_additive_1","vel":0.394,"bend":0.0,"ch":9},{"t":294.642,"dur":0.136,"note":52,"inst":"piano_v0_additive_0","vel":0.354,"bend":0.0,"ch":4},{"t":294.777,"dur":0.136,"note":57,"inst":"organ_v0_additive_1","vel":0.323,"bend":0.0,"ch":9},{"t":294.913,"dur":0.136,"note":59,"inst":"celesta_v0_additive_3","vel":0.315,"bend":0.0,"ch":11},{"t":294.913,"dur":0.272,"note":73,"inst":"organ_v0_additive_1","vel":0.543,"bend":0.0,"ch":9},{"t":295.049,"dur":0.136,"note":57,"inst":"organ_v0_additive_1","vel":0.425,"bend":0.0,"ch":9},{"t":295.185,"dur":0.136,"note":59,"inst":"celesta_v0_additive_3","vel":0.402,"bend":0.0,"ch":11},{"t":295.185,"dur":0.272,"note":69,"inst":"organ_v0_additive_1","vel":0.472,"bend":0.0,"ch":5},{"t":295.321,"dur":0.136,"note":64,"inst":"piano_v0_additive_0","vel":0.315,"bend":0.0,"ch":0},{"t":295.457,"dur":0.136,"note":66,"inst":"harpsichord_v0_additive_2","vel":0.37,"bend":0.0,"ch":2},{"t":295.457,"dur":0.272,"note":71,"inst":"celesta_v0_additive_3","vel":0.465,"bend":0.0,"ch":7},{"t":295.593,"dur":0.136,"note":64,"inst":"piano_v0_additive_0","vel":0.409,"bend":0.0,"ch":0},{"t":295.728,"dur":0.136,"note":59,"inst":"celesta_v0_additive_3","vel":0.323,"bend":0.0,"ch":11},{"t":295.728,"dur":0.272,"note":73,"inst":"organ_v0_additive_1","vel":0.48,"bend":0.0,"ch":9},{"t":295.864,"dur":0.136,"note":64,"inst":"piano_v0_additive_0","vel":0.457,"bend":0.0,"ch":0},{"t":296.0,"dur":0.136,"note":66,"inst":"harpsichord_v0_additive_2","vel":0.37,"bend":0.0,"ch":2},{"t":296.0,"dur":0.136,"note":76,"inst":"piano_v0_additive_0","vel":0.575,"bend":0.0,"ch":12},{"t":296.136,"dur":0.136,"note":64,"inst":"piano_v0_additive_0","vel":0.512,"bend":0.0,"ch":0},{"t":296.272,"dur":0.136,"note":52,"inst":"piano_v0_additive_0","vel":0.457,"bend":0.0,"ch":4},{"t":296.272,"dur":0.272,"note":66,"inst":"harpsichord_v0_additive_2","vel":0.559,"bend":0.0,"ch":2},{"t":296.408,"dur":0.136,"note":57,"inst":"organ_v0_additive_1","vel":0.394,"bend":0.0,"ch":9},{"t":296.543,"dur":0.136,"note":59,"inst":"celesta_v0_additive_3","vel":0.323,"bend":0.0,"ch":11},{"t":296.679,"dur":0.136,"note":57,"inst":"organ_v0_additive_1","vel":0.472,"bend":0.0,"ch":9},{"t":296.815,"dur":0.136,"note":52,"inst":"piano_v0_additive_0","vel":0.433,"bend":0.0,"ch":4},{"t":296.951,"dur":0.136,"note":57,"inst":"organ_v0_additive_1","vel":0.488,"bend":0.0,"ch":9},{"t":297.087,"dur":0.136,"note":59,"inst":"celesta_v0_additive_3","vel":0.441,"bend":0.0,"ch":11},{"t":297.087,"dur":0.272,"note":71,"inst":"celesta_v0_additive_3","vel":0.551,"bend":0.0,"ch":7},{"t":297.223,"dur":0.136,"note":57,"inst":"organ_v0_additive_1","vel":0.346,"bend":0.0,"ch":9},{"t":297.358,"dur":0.136,"note":59,"inst":"celesta_v0_additive_3","vel":0.37,"bend":0.0,"ch":11},{"t":297.358,"dur":0.272,"note":69,"inst":"organ_v0_additive_1","vel":0.457,"bend":0.0,"ch":5},{"t":297.494,"dur":0.136,"note":64,"inst":"piano_v0_additive_0","vel":0.315,"bend":0.0,"ch":0},{"t":297.63,"dur":0.136,"note":66,"inst":"harpsichord_v0_additive_2","vel":0.465,"bend":0.0,"ch":2},{"t":297.766,"dur":0.136,"note":64,"inst":"piano_v0_additive_0","vel":0.339,"bend":0.0,"ch":0},{"t":297.902,"dur":0.136,"note":59,"inst":"celesta_v0_additive_3","vel":0.512,"bend":0.0,"ch":11},{"t":297.902,"dur":0.272,"note":71,"inst":"celesta_v0_additive_3","vel":0.472,"bend":0.0,"ch":7},{"t":298.038,"dur":0.136,"note":64,"inst":"piano_v0_additive_0","vel":0.362,"bend":0.0,"ch":0},{"t":298.173,"dur":0.077,"note":66,"inst":"harpsichord_v0_additive_2","vel":0.512,"bend":0.0,"ch":2},{"t":298.173,"dur":0.077,"note":73,"inst":"organ_v0_additive_1","vel":0.488,"bend":0.0,"ch":9}]}