{"track_num":12,"title":"Horizon","duration":288.25,"midi_sources":["Beethoven/quartet10-2.mid","Mozart/k421-01.mid","Verdi/adl_La_Traviata_-_N15_Scena_ed_Aria.mid"],"events":[{"t":0.073,"note":51,"dur":0.165,"vel":1.0,"inst":"pad_glass_v0_struck_307","midi_source":""},{"t":0.073,"note":55,"dur":0.165,"vel":1.0,"inst":"xylophone_v0_bowed_182","midi_source":""},{"t":0.073,"note":75,"dur":0.165,"vel":1.0,"inst":"pad_glass_v0_struck_307","midi_source":""},{"t":0.237,"note":58,"dur":0.013,"vel":1.0,"inst":"xylophone_v0_bowed_182","midi_source":""},{"t":0.237,"note":79,"dur":0.013,"vel":1.0,"inst":"xylophone_v0_bowed_182","midi_source":""},{"t":0.272,"note":58,"dur":0.045,"vel":0.496,"inst":"xylophone_v0_plucked_129","midi_source":""},{"t":0.272,"note":67,"dur":0.168,"vel":0.496,"inst":"xylophone_v0_plucked_129","midi_source":""},{"t":0.317,"note":60,"dur":0.045,"vel":0.496,"inst":"pad_string_v0_bass_416","midi_source":""},{"t":0.361,"note":62,"dur":0.045,"vel":0.496,"inst":"banjo_v0_plucked_142","midi_source":""},{"t":0.406,"note":49,"dur":0.134,"vel":0.496,"inst":"xylophone_v0_plucked_129","midi_source":""},{"t":0.406,"note":65,"dur":0.134,"vel":0.496,"inst":"banjo_v0_plucked_142","midi_source":""},{"t":0.406,"note":70,"dur":0.045,"vel":0.496,"inst":"xylophone_v0_plucked_129","midi_source":""},{"t":0.44,"note":79,"dur":0.034,"vel":0.496,"inst":"xylophone_v0_plucked_129","midi_source":""},{"t":0.451,"note":73,"dur":0.045,"vel":0.496,"inst":"xylophone_v0_plucked_129","midi_source":""},{"t":0.473,"note":79,"dur":0.034,"vel":0.496,"inst":"xylophone_v0_plucked_129","midi_source":""},{"t":0.496,"note":77,"dur":0.045,"vel":0.496,"inst":"banjo_v0_plucked_142","midi_source":""},{"t":0.507,"note":82,"dur":0.034,"vel":0.496,"inst":"xylophone_v0_plucked_129","midi_source":""},{"t":0.54,"note":48,"dur":0.045,"vel":0.496,"inst":"pad_string_v0_bass_416","midi_source":""},{"t":0.54,"note":62,"dur":0.045,"vel":0.496,"inst":"banjo_v0_plucked_142","midi_source":""},{"t":0.54,"note":74,"dur":0.045,"vel":0.496,"inst":"banjo_v0_plucked_142","midi_source":""},{"t":0.54,"note":79,"dur":0.179,"vel":0.496,"inst":"xylophone_v0_plucked_129","midi_source":""},{"t":0.585,"note":50,"dur":0.045,"vel":0.496,"inst":"banjo_v0_plucked_142","midi_source":""},{"t":0.63,"note":55,"dur":0.045,"vel":0.496,"inst":"xylophone_v0_plucked_129","midi_source":""},{"t":0.63,"note":55,"dur":0.02,"vel":0.496,"inst":"xylophone_v0_plucked_129","midi_source":""},{"t":0.63,"note":67,"dur":0.02,"vel":0.496,"inst":"xylophone_v0_plucked_129","midi_source":""},{"t":0.675,"note":49,"dur":0.045,"vel":0.496,"inst":"xylophone_v0_plucked_129","midi_source":""},{"t":0.675,"note":65,"dur":0.045,"vel":0.496,"inst":"banjo_v0_plucked_142","midi_source":""},{"t":0.675,"note":67,"dur":0.045,"vel":0.496,"inst":"xylophone_v0_plucked_129","midi_source":""},{"t":0.719,"note":50,"dur":0.045,"vel":0.496,"inst":"banjo_v0_plucked_142","midi_source":""},{"t":0.719,"note":55,"dur":0.045,"vel":0.496,"inst":"xylophone_v0_plucked_129","midi_source":""},{"t":0.719,"note":72,"dur":0.045,"vel":0.496,"inst":"pad_string_v0_bass_416","midi_source":""},{"t":0.719,"note":67,"dur":0.045,"vel":0.496,"inst":"xylophone_v0_plucked_129","midi_source":""},{"t":0.764,"note":53,"dur":0.045,"vel":0.496,"inst":"banjo_v0_plucked_142","midi_source":""},{"t":0.764,"note":67,"dur":0.045,"vel":0.496,"inst":"xylophone_v0_plucked_129","midi_source":""},{"t":0.764,"note":73,"dur":0.045,"vel":0.496,"inst":"xylophone_v0_plucked_129","midi_source":""},{"t":0.764,"note":77,"dur":0.045,"vel":0.496,"inst":"banjo_v0_plucked_142","midi_source":""},{"t":0.809,"note":43,"dur":0.045,"vel":0.496,"inst":"xylophone_v0_plucked_129","midi_source":""},{"t":0.809,"note":55,"dur":0.045,"vel":0.496,"inst":"xylophone_v0_plucked_129","midi_source":""},{"t":0.809,"note":70,"dur":0.045,"vel":0.496,"inst":"xylophone_v0_plucked_129","midi_source":""},{"t":0.809,"note":74,"dur":0.045,"vel":0.496,"inst":"banjo_v0_plucked_142","midi_source":""},{"t":0.854,"note":61,"dur":0.045,"vel":0.496,"inst":"xylophone_v0_plucked_129","midi_source":""},{"t":0.854,"note":77,"dur":0.045,"vel":0.496,"inst":"banjo_v0_plucked_142","midi_source":""},{"t":0.898,"note":43,"dur":0.02,"vel":0.496,"inst":"xylophone_v0_plucked_129","midi_source":""},{"t":0.898,"note":65,"dur":0.045,"vel":0.496,"inst":"banjo_v0_plucked_142","midi_source":""},{"t":0.898,"note":70,"dur":0.02,"vel":0.496,"inst":"xylophone_v0_plucked_129","midi_source":""},{"t":0.898,"note":73,"dur":0.045,"vel":0.496,"inst":"xylophone_v0_plucked_129","midi_source":""},{"t":0.943,"note":46,"dur":0.045,"vel":0.496,"inst":"xylophone_v0_plucked_129","midi_source":""},{"t":0.943,"note":65,"dur":0.045,"vel":0.496,"inst":"banjo_v0_plucked_142","midi_source":""},{"t":0.943,"note":70,"dur":0.045,"vel":0.496,"inst":"xylophone_v0_plucked_129","midi_source":""},{"t":0.943,"note":73,"dur":0.134,"vel":0.496,"inst":"xylophone_v0_plucked_129","midi_source":""},{"t":0.988,"note":43,"dur":0.045,"vel":0.496,"inst":"xylophone_v0_plucked_129","midi_source":""},{"t":0.988,"note":65,"dur":0.045,"vel":0.496,"inst":"banjo_v0_plucked_142","midi_source":""},{"t":0.988,"note":55,"dur":0.045,"vel":0.496,"inst":"xylophone_v0_plucked_129","midi_source":""},{"t":1.032,"note":58,"dur":0.045,"vel":0.496,"inst":"xylophone_v0_plucked_129","midi_source":""},{"t":1.032,"note":65,"dur":0.045,"vel":0.496,"inst":"banjo_v0_plucked_142","midi_source":""},{"t":1.032,"note":55,"dur":0.045,"vel":0.496,"inst":"xylophone_v0_plucked_129","midi_source":""},{"t":1.077,"note":58,"dur":0.268,"vel":0.496,"inst":"xylophone_v0_plucked_129","midi_source":""},{"t":1.077,"note":62,"dur":0.045,"vel":0.496,"inst":"banjo_v0_plucked_142","midi_source":""},{"t":1.077,"note":55,"dur":0.179,"vel":0.496,"inst":"xylophone_v0_plucked_129","midi_source":""},{"t":1.077,"note":70,"dur":0.134,"vel":0.496,"inst":"xylophone_v0_plucked_129","midi_source":""},{"t":1.122,"note":55,"dur":0.045,"vel":0.496,"inst":"xylophone_v0_plucked_129","midi_source":""},{"t":1.167,"note":70,"dur":0.045,"vel":0.496,"inst":"xylophone_v0_plucked_129","midi_source":""},{"t":1.211,"note":70,"dur":0.045,"vel":0.496,"inst":"xylophone_v0_plucked_129","midi_source":""},{"t":1.256,"note":62,"dur":0.045,"vel":0.496,"inst":"banjo_v0_plucked_142","midi_source":""},{"t":1.256,"note":55,"dur":0.045,"vel":0.496,"inst":"xylophone_v0_plucked_129","midi_source":""},{"t":1.301,"note":61,"dur":0.045,"vel":0.496,"inst":"xylophone_v0_plucked_129","midi_source":""},{"t":1.301,"note":65,"dur":0.045,"vel":0.496,"inst":"banjo_v0_plucked_142","midi_source":""},{"t":1.346,"note":58,"dur":0.045,"vel":0.496,"inst":"xylophone_v0_plucked_129","midi_source":""},{"t":1.346,"note":58,"dur":0.134,"vel":0.496,"inst":"xylophone_v0_plucked_129","midi_source":""},{"t":1.346,"note":62,"dur":0.134,"vel":0.496,"inst":"banjo_v0_plucked_142","midi_source":""},{"t":1.39,"note":62,"dur":0.045,"vel":0.496,"inst":"banjo_v0_plucked_142","midi_source":""},{"t":1.435,"note":55,"dur":0.045,"vel":0.496,"inst":"xylophone_v0_plucked_129","midi_source":""},{"t":1.48,"note":55,"dur":0.134,"vel":0.496,"inst":"xylophone_v0_plucked_129","midi_source":""},{"t":1.48,"note":58,"dur":0.045,"vel":0.496,"inst":"xylophone_v0_plucked_129","midi_source":""},{"t":1.48,"note":65,"dur":0.134,"vel":0.496,"inst":"banjo_v0_plucked_142","midi_source":""},{"t":1.48,"note":70,"dur":0.313,"vel":0.496,"inst":"xylophone_v0_plucked_129","midi_source":""},{"t":1.525,"note":62,"dur":0.045,"vel":0.496,"inst":"banjo_v0_plucked_142","midi_source":""},{"t":1.569,"note":67,"dur":0.045,"vel":0.496,"inst":"xylophone_v0_plucked_129","midi_source":""},{"t":1.614,"note":43,"dur":0.134,"vel":0.496,"inst":"xylophone_v0_plucked_129","midi_source":""},{"t":1.614,"note":55,"dur":0.045,"vel":0.496,"inst":"xylophone_v0_plucked_129","midi_source":""},{"t":1.614,"note":70,"dur":0.134,"vel":0.496,"inst":"xylophone_v0_plucked_129","midi_source":""},{"t":1.659,"note":70,"dur":0.045,"vel":0.496,"inst":"xylophone_v0_plucked_129","midi_source":""},{"t":1.703,"note":74,"dur":0.045,"vel":0.496,"inst":"banjo_v0_plucked_142","midi_source":""},{"t":1.748,"note":53,"dur":0.313,"vel":0.496,"inst":"banjo_v0_plucked_142","midi_source":""},{"t":1.748,"note":67,"dur":0.313,"vel":0.496,"inst":"xylophone_v0_plucked_129","midi_source":""},{"t":1.748,"note":77,"dur":0.313,"vel":0.496,"inst":"banjo_v0_plucked_142","midi_source":""},{"t":1.793,"note":65,"dur":0.045,"vel":0.496,"inst":"banjo_v0_plucked_142","midi_source":""},{"t":1.838,"note":55,"dur":0.045,"vel":0.496,"inst":"xylophone_v0_plucked_129","midi_source":""},{"t":1.882,"note":67,"dur":0.045,"vel":0.496,"inst":"xylophone_v0_plucked_129","midi_source":""},{"t":1.927,"note":70,"dur":0.045,"vel":0.496,"inst":"xylophone_v0_plucked_129","midi_source":""},{"t":1.972,"note":77,"dur":0.045,"vel":0.496,"inst":"banjo_v0_plucked_142","midi_source":""},{"t":2.017,"note":79,"dur":0.045,"vel":0.496,"inst":"xylophone_v0_plucked_129","midi_source":""},{"t":2.062,"note":46,"dur":0.045,"vel":0.496,"inst":"xylophone_v0_plucked_129","midi_source":""},{"t":2.062,"note":67,"dur":0.045,"vel":0.496,"inst":"xylophone_v0_plucked_129","midi_source":""},{"t":2.062,"note":70,"dur":0.045,"vel":0.496,"inst":"xylophone_v0_plucked_129","midi_source":""},{"t":2.062,"note":82,"dur":0.045,"vel":0.496,"inst":"xylophone_v0_plucked_129","midi_source":""},{"t":2.106,"note":49,"dur":0.045,"vel":0.496,"inst":"xylophone_v0_plucked_129","midi_source":""},{"t":2.106,"note":55,"dur":0.045,"vel":0.496,"inst":"xylophone_v0_plucked_129","midi_source":""},{"t":2.106,"note":70,"dur":0.045,"vel":0.496,"inst":"xylophone_v0_plucked_129","midi_source":""},{"t":2.106,"note":82,"dur":0.045,"vel":0.496,"inst":"xylophone_v0_plucked_129","midi_source":""},{"t":2.151,"note":50,"dur":0.067,"vel":0.496,"inst":"banjo_v0_plucked_142","midi_source":""},{"t":2.151,"note":65,"dur":0.134,"vel":0.496,"inst":"banjo_v0_plucked_142","midi_source":""},{"t":2.151,"note":67,"dur":0.134,"vel":0.496,"inst":"xylophone_v0_plucked_129","midi_source":""},{"t":2.151,"note":79,"dur":0.134,"vel":0.496,"inst":"xylophone_v0_plucked_129","midi_source":""},{"t":2.218,"note":58,"dur":0.067,"vel":0.496,"inst":"xylophone_v0_plucked_129","midi_source":""},{"t":2.285,"note":49,"dur":0.134,"vel":0.496,"inst":"xylophone_v0_plucked_129","midi_source":""},{"t":2.285,"note":58,"dur":0.045,"vel":0.496,"inst":"xylophone_v0_plucked_129","midi_source":""},{"t":2.285,"note":65,"dur":0.134,"vel":0.496,"inst":"banjo_v0_plucked_142","midi_source":""},{"t":2.285,"note":82,"dur":0.134,"vel":0.496,"inst":"xylophone_v0_plucked_129","midi_source":""},{"t":2.33,"note":61,"dur":0.045,"vel":0.496,"inst":"xylophone_v0_plucked_129","midi_source":""},{"t":2.374,"note":65,"dur":0.045,"vel":0.496,"inst":"banjo_v0_plucked_142","midi_source":""},{"t":2.419,"note":46,"dur":0.134,"vel":0.496,"inst":"xylophone_v0_plucked_129","midi_source":""},{"t":2.419,"note":62,"dur":0.134,"vel":0.496,"inst":"banjo_v0_plucked_142","midi_source":""},{"t":2.419,"note":67,"dur":0.045,"vel":0.496,"inst":"xylophone_v0_plucked_129","midi_source":""},{"t":2.419,"note":82,"dur":0.134,"vel":0.496,"inst":"xylophone_v0_plucked_129","midi_source":""},{"t":2.464,"note":70,"dur":0.045,"vel":0.496,"inst":"xylophone_v0_plucked_129","midi_source":""},{"t":2.509,"note":77,"dur":0.045,"vel":0.496,"inst":"banjo_v0_plucked_142","midi_source":""},{"t":2.553,"note":46,"dur":0.045,"vel":0.496,"inst":"xylophone_v0_plucked_129","midi_source":""},{"t":2.553,"note":61,"dur":0.134,"vel":0.496,"inst":"xylophone_v0_plucked_129","midi_source":""},{"t":2.553,"note":77,"dur":0.067,"vel":0.496,"inst":"banjo_v0_plucked_142","midi_source":""},{"t":2.553,"note":85,"dur":0.313,"vel":0.496,"inst":"xylophone_v0_plucked_129","midi_source":""},{"t":2.598,"note":49,"dur":0.045,"vel":0.496,"inst":"xylophone_v0_plucked_129","midi_source":""},{"t":2.621,"note":82,"dur":0.246,"vel":0.496,"inst":"xylophone_v0_plucked_129","midi_source":""},{"t":2.643,"note":53,"dur":0.045,"vel":0.496,"inst":"banjo_v0_plucked_142","midi_source":""},{"t":2.688,"note":55,"dur":0.045,"vel":0.496,"inst":"xylophone_v0_plucked_129","midi_source":""},{"t":2.688,"note":65,"dur":0.134,"vel":0.496,"inst":"banjo_v0_plucked_142","midi_source":""},{"t":2.733,"note":58,"dur":0.045,"vel":0.496,"inst":"xylophone_v0_plucked_129","midi_source":""},{"t":2.777,"note":61,"dur":0.045,"vel":0.496,"inst":"xylophone_v0_plucked_129","midi_source":""},{"t":2.822,"note":65,"dur":0.045,"vel":0.496,"inst":"banjo_v0_plucked_142","midi_source":""},{"t":2.822,"note":73,"dur":0.045,"vel":0.496,"inst":"xylophone_v0_plucked_129","midi_source":""},{"t":2.867,"note":67,"dur":0.045,"vel":0.496,"inst":"xylophone_v0_plucked_129","midi_source":""},{"t":2.867,"note":70,"dur":0.045,"vel":0.496,"inst":"xylophone_v0_plucked_129","midi_source":""},{"t":2.867,"note":82,"dur":0.045,"vel":0.496,"inst":"xylophone_v0_plucked_129","midi_source":""},{"t":2.867,"note":86,"dur":0.045,"vel":0.496,"inst":"banjo_v0_plucked_142","midi_source":""},{"t":2.911,"note":70,"dur":0.045,"vel":0.496,"inst":"xylophone_v0_plucked_129","midi_source":""},{"t":2.911,"note":73,"dur":0.045,"vel":0.496,"inst":"xylophone_v0_plucked_129","midi_source":""},{"t":2.911,"note":82,"dur":0.045,"vel":0.496,"inst":"xylophone_v0_plucked_129","midi_source":""},{"t":2.911,"note":85,"dur":0.045,"vel":0.496,"inst":"xylophone_v0_plucked_129","midi_source":""},{"t":2.956,"note":49,"dur":0.045,"vel":0.496,"inst":"xylophone_v0_plucked_129","midi_source":""},{"t":2.956,"note":73,"dur":0.067,"vel":0.496,"inst":"xylophone_v0_plucked_129","midi_source":""},{"t":2.956,"note":82,"dur":0.067,"vel":0.496,"inst":"xylophone_v0_plucked_129","midi_source":""},{"t":2.956,"note":85,"dur":0.067,"vel":0.496,"inst":"xylophone_v0_plucked_129","midi_source":""},{"t":3.001,"note":53,"dur":0.045,"vel":0.496,"inst":"banjo_v0_plucked_142","midi_source":""},{"t":3.023,"note":65,"dur":0.246,"vel":0.496,"inst":"banjo_v0_plucked_142","midi_source":""},{"t":3.023,"note":79,"dur":0.246,"vel":0.496,"inst":"xylophone_v0_plucked_129","midi_source":""},{"t":3.023,"note":82,"dur":0.246,"vel":0.496,"inst":"xylophone_v0_plucked_129","midi_source":""},{"t":3.045,"note":55,"dur":0.045,"vel":0.496,"inst":"xylophone_v0_plucked_129","midi_source":""},{"t":3.09,"note":58,"dur":0.045,"vel":0.496,"inst":"xylophone_v0_plucked_129","midi_source":""},{"t":3.135,"note":61,"dur":0.045,"vel":0.496,"inst":"xylophone_v0_plucked_129","midi_source":""},{"t":3.18,"note":65,"dur":0.045,"vel":0.496,"inst":"banjo_v0_plucked_142","midi_source":""},{"t":3.225,"note":67,"dur":0.045,"vel":0.496,"inst":"xylophone_v0_plucked_129","midi_source":""},{"t":3.269,"note":49,"dur":0.045,"vel":0.496,"inst":"xylophone_v0_plucked_129","midi_source":""},{"t":3.269,"note":82,"dur":0.045,"vel":0.496,"inst":"xylophone_v0_plucked_129","midi_source":""},{"t":3.269,"note":85,"dur":0.045,"vel":0.496,"inst":"xylophone_v0_plucked_129","midi_source":""},{"t":3.314,"note":53,"dur":0.045,"vel":0.496,"inst":"banjo_v0_plucked_142","midi_source":""},{"t":3.314,"note":73,"dur":0.02,"vel":0.496,"inst":"xylophone_v0_plucked_129","midi_source":""},{"t":3.314,"note":79,"dur":0.045,"vel":0.496,"inst":"xylophone_v0_plucked_129","midi_source":""},{"t":3.314,"note":82,"dur":0.045,"vel":0.496,"inst":"xylophone_v0_plucked_129","midi_source":""},{"t":3.359,"note":43,"dur":0.045,"vel":0.496,"inst":"xylophone_v0_plucked_129","midi_source":""},{"t":3.359,"note":73,"dur":0.067,"vel":0.496,"inst":"xylophone_v0_plucked_129","midi_source":""},{"t":3.359,"note":79,"dur":0.067,"vel":0.496,"inst":"xylophone_v0_plucked_129","midi_source":""},{"t":3.359,"note":82,"dur":0.067,"vel":0.496,"inst":"xylophone_v0_plucked_129","midi_source":""},{"t":3.404,"note":58,"dur":0.045,"vel":0.496,"inst":"xylophone_v0_plucked_129","midi_source":""},{"t":3.426,"note":61,"dur":0.246,"vel":0.496,"inst":"xylophone_v0_plucked_129","midi_source":""},{"t":3.426,"note":67,"dur":0.201,"vel":0.496,"inst":"xylophone_v0_plucked_129","midi_source":""},{"t":3.426,"note":82,"dur":0.246,"vel":0.496,"inst":"xylophone_v0_plucked_129","midi_source":""},{"t":3.448,"note":61,"dur":0.045,"vel":0.496,"inst":"xylophone_v0_plucked_129","midi_source":""},{"t":3.493,"note":65,"dur":0.045,"vel":0.496,"inst":"banjo_v0_plucked_142","midi_source":""},{"t":3.538,"note":55,"dur":0.045,"vel":0.496,"inst":"xylophone_v0_plucked_129","midi_source":""},{"t":3.582,"note":70,"dur":0.045,"vel":0.496,"inst":"xylophone_v0_plucked_129","midi_source":""},{"t":3.627,"note":73,"dur":0.045,"vel":0.496,"inst":"xylophone_v0_plucked_129","midi_source":""},{"t":3.627,"note":67,"dur":0.045,"vel":0.496,"inst":"xylophone_v0_plucked_129","midi_source":""},{"t":3.672,"note":43,"dur":0.045,"vel":0.496,"inst":"xylophone_v0_plucked_129","midi_source":""},{"t":3.672,"note":70,"dur":0.045,"vel":0.496,"inst":"xylophone_v0_plucked_129","midi_source":""},{"t":3.672,"note":85,"dur":0.045,"vel":0.496,"inst":"xylophone_v0_plucked_129","midi_source":""},{"t":3.717,"note":55,"dur":0.045,"vel":0.496,"inst":"xylophone_v0_plucked_129","midi_source":""},{"t":3.717,"note":65,"dur":0.045,"vel":0.496,"inst":"banjo_v0_plucked_142","midi_source":""},{"t":3.717,"note":73,"dur":0.02,"vel":0.496,"inst":"xylophone_v0_plucked_129","midi_source":""},{"t":3.717,"note":82,"dur":0.045,"vel":0.496,"inst":"xylophone_v0_plucked_129","midi_source":""},{"t":3.761,"note":46,"dur":0.045,"vel":0.496,"inst":"xylophone_v0_plucked_129","midi_source":""},{"t":3.761,"note":55,"dur":0.313,"vel":0.496,"inst":"xylophone_v0_plucked_129","midi_source":""},{"t":3.761,"note":73,"dur":0.313,"vel":0.496,"inst":"xylophone_v0_plucked_129","midi_source":""},{"t":3.761,"note":82,"dur":0.067,"vel":0.496,"inst":"xylophone_v0_plucked_129","midi_source":""},{"t":3.806,"note":49,"dur":0.045,"vel":0.496,"inst":"xylophone_v0_plucked_129","midi_source":""},{"t":3.828,"note":82,"dur":0.067,"vel":0.496,"inst":"xylophone_v0_plucked_129","midi_source":""},{"t":3.851,"note":43,"dur":0.045,"vel":0.496,"inst":"xylophone_v0_plucked_129","midi_source":""},{"t":3.896,"note":58,"dur":0.045,"vel":0.496,"inst":"xylophone_v0_plucked_129","midi_source":""},{"t":3.896,"note":79,"dur":0.067,"vel":0.496,"inst":"xylophone_v0_plucked_129","midi_source":""},{"t":3.94,"note":61,"dur":0.045,"vel":0.496,"inst":"xylophone_v0_plucked_129","midi_source":""},{"t":3.963,"note":67,"dur":0.067,"vel":0.496,"inst":"xylophone_v0_plucked_129","midi_source":""},{"t":3.985,"note":55,"dur":0.045,"vel":0.496,"inst":"xylophone_v0_plucked_129","midi_source":""},{"t":4.03,"note":70,"dur":0.045,"vel":0.496,"inst":"xylophone_v0_plucked_129","midi_source":""},{"t":4.03,"note":86,"dur":0.045,"vel":0.496,"inst":"banjo_v0_plucked_142","midi_source":""},{"t":4.075,"note":58,"dur":0.045,"vel":0.496,"inst":"xylophone_v0_plucked_129","midi_source":""},{"t":4.075,"note":55,"dur":0.045,"vel":0.496,"inst":"xylophone_v0_plucked_129","midi_source":""},{"t":4.075,"note":73,"dur":0.045,"vel":0.496,"inst":"xylophone_v0_plucked_129","midi_source":""},{"t":4.075,"note":85,"dur":0.045,"vel":0.496,"inst":"xylophone_v0_plucked_129","midi_source":""},{"t":4.119,"note":46,"dur":0.045,"vel":0.496,"inst":"xylophone_v0_plucked_129","midi_source":""},{"t":4.119,"note":55,"dur":0.045,"vel":0.496,"inst":"xylophone_v0_plucked_129","midi_source":""},{"t":4.119,"note":70,"dur":0.045,"vel":0.496,"inst":"xylophone_v0_plucked_129","midi_source":""},{"t":4.119,"note":74,"dur":0.045,"vel":0.496,"inst":"banjo_v0_plucked_142","midi_source":""},{"t":4.164,"note":43,"dur":0.045,"vel":0.496,"inst":"xylophone_v0_plucked_129","midi_source":""},{"t":4.164,"note":65,"dur":0.045,"vel":0.496,"inst":"banjo_v0_plucked_142","midi_source":""},{"t":4.164,"note":70,"dur":0.045,"vel":0.496,"inst":"xylophone_v0_plucked_129","midi_source":""},{"t":4.164,"note":67,"dur":0.034,"vel":0.496,"inst":"xylophone_v0_plucked_129","midi_source":""},{"t":4.198,"note":77,"dur":0.034,"vel":0.496,"inst":"banjo_v0_plucked_142","midi_source":""},{"t":4.209,"note":49,"dur":0.045,"vel":0.496,"inst":"xylophone_v0_plucked_129","midi_source":""},{"t":4.209,"note":65,"dur":0.045,"vel":0.496,"inst":"banjo_v0_plucked_142","midi_source":""},{"t":4.209,"note":70,"dur":0.045,"vel":0.496,"inst":"xylophone_v0_plucked_129","midi_source":""},{"t":4.231,"note":82,"dur":0.034,"vel":0.496,"inst":"xylophone_v0_plucked_129","midi_source":""},{"t":4.253,"note":46,"dur":0.045,"vel":0.496,"inst":"xylophone_v0_plucked_129","midi_source":""},{"t":4.253,"note":73,"dur":0.045,"vel":0.496,"inst":"xylophone_v0_plucked_129","midi_source":""},{"t":4.253,"note":77,"dur":0.045,"vel":0.496,"inst":"banjo_v0_plucked_142","midi_source":""},{"t":4.265,"note":82,"dur":0.034,"vel":0.496,"inst":"xylophone_v0_plucked_129","midi_source":""},{"t":4.298,"note":46,"dur":0.045,"vel":0.992,"inst":"xylophone_v0_plucked_129","midi_source":""},{"t":4.298,"note":70,"dur":0.045,"vel":0.992,"inst":"xylophone_v0_plucked_129","midi_source":""},{"t":4.298,"note":77,"dur":0.045,"vel":0.992,"inst":"banjo_v0_plucked_142","midi_source":""},{"t":4.298,"note":79,"dur":0.134,"vel":0.992,"inst":"xylophone_v0_plucked_129","midi_source":""},{"t":4.343,"note":58,"dur":0.045,"vel":0.992,"inst":"xylophone_v0_plucked_129","midi_source":""},{"t":4.343,"note":67,"dur":0.045,"vel":0.992,"inst":"xylophone_v0_plucked_129","midi_source":""},{"t":4.343,"note":70,"dur":0.045,"vel":0.992,"inst":"xylophone_v0_plucked_129","midi_source":""},{"t":4.388,"note":46,"dur":0.045,"vel":0.992,"inst":"xylophone_v0_plucked_129","midi_source":""},{"t":4.388,"note":65,"dur":0.045,"vel":0.992,"inst":"banjo_v0_plucked_142","midi_source":""},{"t":4.388,"note":67,"dur":0.045,"vel":0.992,"inst":"xylophone_v0_plucked_129","midi_source":""},{"t":4.432,"note":46,"dur":0.045,"vel":0.992,"inst":"xylophone_v0_plucked_129","midi_source":""},{"t":4.432,"note":62,"dur":0.045,"vel":0.992,"inst":"banjo_v0_plucked_142","midi_source":""},{"t":4.432,"note":70,"dur":0.045,"vel":0.992,"inst":"xylophone_v0_plucked_129","midi_source":""},{"t":4.432,"note":67,"dur":0.045,"vel":0.992,"inst":"xylophone_v0_plucked_129","midi_source":""},{"t":4.477,"note":85,"dur":0.045,"vel":0.992,"inst":"xylophone_v0_plucked_129","midi_source":""},{"t":4.522,"note":46,"dur":0.02,"vel":0.992,"inst":"xylophone_v0_plucked_129","midi_source":""},{"t":4.522,"note":62,"dur":0.02,"vel":0.992,"inst":"banjo_v0_plucked_142","midi_source":""},{"t":4.522,"note":70,"dur":0.02,"vel":0.992,"inst":"xylophone_v0_plucked_129","midi_source":""},{"t":4.522,"note":82,"dur":0.045,"vel":0.992,"inst":"xylophone_v0_plucked_129","midi_source":""},{"t":4.567,"note":53,"dur":0.045,"vel":0.496,"inst":"banjo_v0_plucked_142","midi_source":""},{"t":4.567,"note":65,"dur":0.067,"vel":0.496,"inst":"banjo_v0_plucked_142","midi_source":""},{"t":4.567,"note":67,"dur":0.134,"vel":0.496,"inst":"xylophone_v0_plucked_129","midi_source":""},{"t":4.567,"note":77,"dur":0.134,"vel":0.496,"inst":"banjo_v0_plucked_142","midi_source":""},{"t":4.611,"note":43,"dur":0.045,"vel":0.496,"inst":"xylophone_v0_plucked_129","midi_source":""},{"t":4.656,"note":55,"dur":0.045,"vel":0.496,"inst":"xylophone_v0_plucked_129","midi_source":""},{"t":4.701,"note":53,"dur":0.268,"vel":0.496,"inst":"banjo_v0_plucked_142","midi_source":""},{"t":4.701,"note":58,"dur":0.268,"vel":0.496,"inst":"xylophone_v0_plucked_129","midi_source":""},{"t":4.701,"note":61,"dur":0.045,"vel":0.496,"inst":"xylophone_v0_plucked_129","midi_source":""},{"t":4.701,"note":73,"dur":0.201,"vel":0.496,"inst":"xylophone_v0_plucked_129","midi_source":""},{"t":4.746,"note":62,"dur":0.045,"vel":0.496,"inst":"banjo_v0_plucked_142","midi_source":""},{"t":4.79,"note":65,"dur":0.045,"vel":0.496,"inst":"banjo_v0_plucked_142","midi_source":""},{"t":4.835,"note":55,"dur":0.045,"vel":0.496,"inst":"xylophone_v0_plucked_129","midi_source":""},{"t":4.835,"note":55,"dur":0.134,"vel":0.496,"inst":"xylophone_v0_plucked_129","midi_source":""},{"t":4.88,"note":67,"dur":0.045,"vel":0.496,"inst":"xylophone_v0_plucked_129","midi_source":""},{"t":4.902,"note":67,"dur":0.067,"vel":0.496,"inst":"xylophone_v0_plucked_129","midi_source":""},{"t":4.924,"note":70,"dur":0.045,"vel":0.496,"inst":"xylophone_v0_plucked_129","midi_source":""},{"t":4.969,"note":53,"dur":0.045,"vel":0.496,"inst":"banjo_v0_plucked_142","midi_source":""},{"t":4.969,"note":58,"dur":0.045,"vel":0.496,"inst":"xylophone_v0_plucked_129","midi_source":""},{"t":4.969,"note":55,"dur":0.403,"vel":0.496,"inst":"xylophone_v0_plucked_129","midi_source":""},{"t":4.969,"note":70,"dur":0.403,"vel":0.496,"inst":"xylophone_v0_plucked_129","midi_source":""},{"t":4.969,"note":77,"dur":0.134,"vel":0.496,"inst":"banjo_v0_plucked_142","midi_source":""},{"t":5.059,"note":53,"dur":0.02,"vel":0.496,"inst":"banjo_v0_plucked_142","midi_source":""},{"t":5.059,"note":58,"dur":0.02,"vel":0.496,"inst":"xylophone_v0_plucked_129","midi_source":""},{"t":5.103,"note":58,"dur":0.045,"vel":0.496,"inst":"xylophone_v0_plucked_129","midi_source":""},{"t":5.103,"note":67,"dur":0.168,"vel":0.496,"inst":"xylophone_v0_plucked_129","midi_source":""},{"t":5.148,"note":60,"dur":0.045,"vel":0.496,"inst":"pad_string_v0_bass_416","midi_source":""},{"t":5.193,"note":62,"dur":0.045,"vel":0.496,"inst":"banjo_v0_plucked_142","midi_source":""},{"t":5.238,"note":49,"dur":0.134,"vel":0.496,"inst":"xylophone_v0_plucked_129","midi_source":""},{"t":5.238,"note":65,"dur":0.134,"vel":0.496,"inst":"banjo_v0_plucked_142","midi_source":""},{"t":5.238,"note":70,"dur":0.045,"vel":0.496,"inst":"xylophone_v0_plucked_129","midi_source":""},{"t":5.271,"note":79,"dur":0.034,"vel":0.496,"inst":"xylophone_v0_plucked_129","midi_source":""},{"t":5.282,"note":73,"dur":0.045,"vel":0.496,"inst":"xylophone_v0_plucked_129","midi_source":""},{"t":5.305,"note":79,"dur":0.034,"vel":0.496,"inst":"xylophone_v0_plucked_129","midi_source":""},{"t":5.327,"note":77,"dur":0.045,"vel":0.496,"inst":"banjo_v0_plucked_142","midi_source":""},{"t":5.338,"note":82,"dur":0.034,"vel":0.496,"inst":"xylophone_v0_plucked_129","midi_source":""},{"t":5.372,"note":48,"dur":0.045,"vel":0.496,"inst":"pad_string_v0_bass_416","midi_source":""},{"t":5.372,"note":62,"dur":0.045,"vel":0.496,"inst":"banjo_v0_plucked_142","midi_source":""},{"t":5.372,"note":74,"dur":0.045,"vel":0.496,"inst":"banjo_v0_plucked_142","midi_source":""},{"t":5.372,"note":79,"dur":0.179,"vel":0.496,"inst":"xylophone_v0_plucked_129","midi_source":""},{"t":5.417,"note":50,"dur":0.045,"vel":0.496,"inst":"banjo_v0_plucked_142","midi_source":""},{"t":5.461,"note":55,"dur":0.045,"vel":0.496,"inst":"xylophone_v0_plucked_129","midi_source":""},{"t":5.461,"note":55,"dur":0.02,"vel":0.496,"inst":"xylophone_v0_plucked_129","midi_source":""},{"t":5.461,"note":67,"dur":0.02,"vel":0.496,"inst":"xylophone_v0_plucked_129","midi_source":""},{"t":5.506,"note":49,"dur":0.045,"vel":0.496,"inst":"xylophone_v0_plucked_129","midi_source":""},{"t":5.506,"note":65,"dur":0.045,"vel":0.496,"inst":"banjo_v0_plucked_142","midi_source":""},{"t":5.506,"note":67,"dur":0.045,"vel":0.496,"inst":"xylophone_v0_plucked_129","midi_source":""},{"t":5.551,"note":50,"dur":0.045,"vel":0.496,"inst":"banjo_v0_plucked_142","midi_source":""},{"t":5.551,"note":55,"dur":0.045,"vel":0.496,"inst":"xylophone_v0_plucked_129","midi_source":""},{"t":5.551,"note":72,"dur":0.045,"vel":0.496,"inst":"pad_string_v0_bass_416","midi_source":""},{"t":5.551,"note":67,"dur":0.045,"vel":0.496,"inst":"xylophone_v0_plucked_129","midi_source":""},{"t":5.595,"note":53,"dur":0.045,"vel":0.496,"inst":"banjo_v0_plucked_142","midi_source":""},{"t":5.595,"note":67,"dur":0.045,"vel":0.496,"inst":"xylophone_v0_plucked_129","midi_source":""},{"t":5.595,"note":73,"dur":0.045,"vel":0.496,"inst":"xylophone_v0_plucked_129","midi_source":""},{"t":5.595,"note":77,"dur":0.045,"vel":0.496,"inst":"banjo_v0_plucked_142","midi_source":""},{"t":5.64,"note":43,"dur":0.045,"vel":0.496,"inst":"xylophone_v0_plucked_129","midi_source":""},{"t":5.64,"note":55,"dur":0.045,"vel":0.496,"inst":"xylophone_v0_plucked_129","midi_source":""},{"t":5.64,"note":70,"dur":0.045,"vel":0.496,"inst":"xylophone_v0_plucked_129","midi_source":""},{"t":5.64,"note":74,"dur":0.045,"vel":0.496,"inst":"banjo_v0_plucked_142","midi_source":""},{"t":5.685,"note":61,"dur":0.045,"vel":0.496,"inst":"xylophone_v0_plucked_129","midi_source":""},{"t":5.685,"note":77,"dur":0.045,"vel":0.496,"inst":"banjo_v0_plucked_142","midi_source":""},{"t":5.73,"note":43,"dur":0.02,"vel":0.496,"inst":"xylophone_v0_plucked_129","midi_source":""},{"t":5.73,"note":65,"dur":0.045,"vel":0.496,"inst":"banjo_v0_plucked_142","midi_source":""},{"t":5.73,"note":70,"dur":0.02,"vel":0.496,"inst":"xylophone_v0_plucked_129","midi_source":""},{"t":5.73,"note":73,"dur":0.045,"vel":0.496,"inst":"xylophone_v0_plucked_129","midi_source":""},{"t":5.774,"note":46,"dur":0.045,"vel":0.496,"inst":"xylophone_v0_plucked_129","midi_source":""},{"t":5.774,"note":65,"dur":0.045,"vel":0.496,"inst":"banjo_v0_plucked_142","midi_source":""},{"t":5.774,"note":70,"dur":0.045,"vel":0.496,"inst":"xylophone_v0_plucked_129","midi_source":""},{"t":5.774,"note":73,"dur":0.134,"vel":0.496,"inst":"xylophone_v0_plucked_129","midi_source":""},{"t":5.819,"note":43,"dur":0.045,"vel":0.496,"inst":"xylophone_v0_plucked_129","midi_source":""},{"t":5.819,"note":65,"dur":0.045,"vel":0.496,"inst":"banjo_v0_plucked_142","midi_source":""},{"t":5.819,"note":55,"dur":0.045,"vel":0.496,"inst":"xylophone_v0_plucked_129","midi_source":""},{"t":5.864,"note":58,"dur":0.045,"vel":0.496,"inst":"xylophone_v0_plucked_129","midi_source":""},{"t":5.864,"note":65,"dur":0.045,"vel":0.496,"inst":"banjo_v0_plucked_142","midi_source":""},{"t":5.864,"note":55,"dur":0.045,"vel":0.496,"inst":"xylophone_v0_plucked_129","midi_source":""},{"t":5.909,"note":58,"dur":0.268,"vel":0.496,"inst":"xylophone_v0_plucked_129","midi_source":""},{"t":5.909,"note":62,"dur":0.045,"vel":0.496,"inst":"banjo_v0_plucked_142","midi_source":""},{"t":5.909,"note":55,"dur":0.179,"vel":0.496,"inst":"xylophone_v0_plucked_129","midi_source":""},{"t":5.909,"note":70,"dur":0.134,"vel":0.496,"inst":"xylophone_v0_plucked_129","midi_source":""},{"t":5.953,"note":55,"dur":0.045,"vel":0.496,"inst":"xylophone_v0_plucked_129","midi_source":""},{"t":5.998,"note":70,"dur":0.045,"vel":0.496,"inst":"xylophone_v0_plucked_129","midi_source":""},{"t":6.043,"note":70,"dur":0.045,"vel":0.496,"inst":"xylophone_v0_plucked_129","midi_source":""},{"t":6.088,"note":62,"dur":0.045,"vel":0.496,"inst":"banjo_v0_plucked_142","midi_source":""},{"t":6.088,"note":55,"dur":0.045,"vel":0.496,"inst":"xylophone_v0_plucked_129","midi_source":""},{"t":6.132,"note":61,"dur":0.045,"vel":0.496,"inst":"xylophone_v0_plucked_129","midi_source":""},{"t":6.132,"note":65,"dur":0.045,"vel":0.496,"inst":"banjo_v0_plucked_142","midi_source":""},{"t":6.177,"note":58,"dur":0.045,"vel":0.496,"inst":"xylophone_v0_plucked_129","midi_source":""},{"t":6.177,"note":58,"dur":0.134,"vel":0.496,"inst":"xylophone_v0_plucked_129","midi_source":""},{"t":6.177,"note":62,"dur":0.134,"vel":0.496,"inst":"banjo_v0_plucked_142","midi_source":""},{"t":6.222,"note":62,"dur":0.045,"vel":0.496,"inst":"banjo_v0_plucked_142","midi_source":""},{"t":6.266,"note":55,"dur":0.045,"vel":0.496,"inst":"xylophone_v0_plucked_129","midi_source":""},{"t":6.311,"note":55,"dur":0.134,"vel":0.496,"inst":"xylophone_v0_plucked_129","midi_source":""},{"t":6.311,"note":58,"dur":0.045,"vel":0.496,"inst":"xylophone_v0_plucked_129","midi_source":""},{"t":6.311,"note":65,"dur":0.134,"vel":0.496,"inst":"banjo_v0_plucked_142","midi_source":""},{"t":6.311,"note":70,"dur":0.313,"vel":0.496,"inst":"xylophone_v0_plucked_129","midi_source":""},{"t":6.356,"note":62,"dur":0.045,"vel":0.496,"inst":"banjo_v0_plucked_142","midi_source":""},{"t":6.401,"note":67,"dur":0.045,"vel":0.496,"inst":"xylophone_v0_plucked_129","midi_source":""},{"t":6.445,"note":43,"dur":0.134,"vel":0.496,"inst":"xylophone_v0_plucked_129","midi_source":""},{"t":6.445,"note":55,"dur":0.045,"vel":0.496,"inst":"xylophone_v0_plucked_129","midi_source":""},{"t":6.445,"note":70,"dur":0.134,"vel":0.496,"inst":"xylophone_v0_plucked_129","midi_source":""},{"t":6.49,"note":70,"dur":0.045,"vel":0.496,"inst":"xylophone_v0_plucked_129","midi_source":""},{"t":6.535,"note":74,"dur":0.045,"vel":0.496,"inst":"banjo_v0_plucked_142","midi_source":""},{"t":6.58,"note":53,"dur":0.313,"vel":0.496,"inst":"banjo_v0_plucked_142","midi_source":""},{"t":6.58,"note":67,"dur":0.313,"vel":0.496,"inst":"xylophone_v0_plucked_129","midi_source":""},{"t":6.58,"note":77,"dur":0.313,"vel":0.496,"inst":"banjo_v0_plucked_142","midi_source":""},{"t":6.624,"note":65,"dur":0.045,"vel":0.496,"inst":"banjo_v0_plucked_142","midi_source":""},{"t":6.669,"note":55,"dur":0.045,"vel":0.496,"inst":"xylophone_v0_plucked_129","midi_source":""},{"t":6.714,"note":67,"dur":0.045,"vel":0.496,"inst":"xylophone_v0_plucked_129","midi_source":""},{"t":6.759,"note":70,"dur":0.045,"vel":0.496,"inst":"xylophone_v0_plucked_129","midi_source":""},{"t":6.803,"note":77,"dur":0.045,"vel":0.496,"inst":"banjo_v0_plucked_142","midi_source":""},{"t":6.848,"note":79,"dur":0.045,"vel":0.496,"inst":"xylophone_v0_plucked_129","midi_source":""},{"t":6.893,"note":46,"dur":0.045,"vel":0.496,"inst":"xylophone_v0_plucked_129","midi_source":""},{"t":6.893,"note":67,"dur":0.045,"vel":0.496,"inst":"xylophone_v0_plucked_129","midi_source":""},{"t":6.893,"note":70,"dur":0.045,"vel":0.496,"inst":"xylophone_v0_plucked_129","midi_source":""},{"t":6.893,"note":82,"dur":0.045,"vel":0.496,"inst":"xylophone_v0_plucked_129","midi_source":""},{"t":6.937,"note":49,"dur":0.045,"vel":0.496,"inst":"xylophone_v0_plucked_129","midi_source":""},{"t":6.937,"note":55,"dur":0.045,"vel":0.496,"inst":"xylophone_v0_plucked_129","midi_source":""},{"t":6.937,"note":70,"dur":0.045,"vel":0.496,"inst":"xylophone_v0_plucked_129","midi_source":""},{"t":6.937,"note":82,"dur":0.045,"vel":0.496,"inst":"xylophone_v0_plucked_129","midi_source":""},{"t":6.982,"note":50,"dur":0.067,"vel":0.496,"inst":"banjo_v0_plucked_142","midi_source":""},{"t":6.982,"note":65,"dur":0.134,"vel":0.496,"inst":"banjo_v0_plucked_142","midi_source":""},{"t":6.982,"note":67,"dur":0.134,"vel":0.496,"inst":"xylophone_v0_plucked_129","midi_source":""},{"t":6.982,"note":79,"dur":0.134,"vel":0.496,"inst":"xylophone_v0_plucked_129","midi_source":""},{"t":7.049,"note":58,"dur":0.067,"vel":0.496,"inst":"xylophone_v0_plucked_129","midi_source":""},{"t":7.116,"note":49,"dur":0.134,"vel":0.496,"inst":"xylophone_v0_plucked_129","midi_source":""},{"t":7.116,"note":58,"dur":0.045,"vel":0.496,"inst":"xylophone_v0_plucked_129","midi_source":""},{"t":7.116,"note":65,"dur":0.134,"vel":0.496,"inst":"banjo_v0_plucked_142","midi_source":""},{"t":7.116,"note":82,"dur":0.134,"vel":0.496,"inst":"xylophone_v0_plucked_129","midi_source":""},{"t":7.161,"note":61,"dur":0.045,"vel":0.496,"inst":"xylophone_v0_plucked_129","midi_source":""},{"t":7.206,"note":65,"dur":0.045,"vel":0.496,"inst":"banjo_v0_plucked_142","midi_source":""},{"t":7.251,"note":46,"dur":0.134,"vel":0.496,"inst":"xylophone_v0_plucked_129","midi_source":""},{"t":7.251,"note":62,"dur":0.134,"vel":0.496,"inst":"banjo_v0_plucked_142","midi_source":""},{"t":7.251,"note":67,"dur":0.045,"vel":0.496,"inst":"xylophone_v0_plucked_129","midi_source":""},{"t":7.251,"note":82,"dur":0.134,"vel":0.496,"inst":"xylophone_v0_plucked_129","midi_source":""},{"t":7.295,"note":70,"dur":0.045,"vel":0.496,"inst":"xylophone_v0_plucked_129","midi_source":""},{"t":7.34,"note":77,"dur":0.045,"vel":0.496,"inst":"banjo_v0_plucked_142","midi_source":""},{"t":7.385,"note":46,"dur":0.045,"vel":0.496,"inst":"xylophone_v0_plucked_129","midi_source":""},{"t":7.385,"note":61,"dur":0.134,"vel":0.496,"inst":"xylophone_v0_plucked_129","midi_source":""},{"t":7.385,"note":77,"dur":0.067,"vel":0.496,"inst":"banjo_v0_plucked_142","midi_source":""},{"t":7.385,"note":85,"dur":0.313,"vel":0.496,"inst":"xylophone_v0_plucked_129","midi_source":""},{"t":7.43,"note":49,"dur":0.045,"vel":0.496,"inst":"xylophone_v0_plucked_129","midi_source":""},{"t":7.452,"note":82,"dur":0.246,"vel":0.496,"inst":"xylophone_v0_plucked_129","midi_source":""},{"t":7.474,"note":53,"dur":0.045,"vel":0.496,"inst":"banjo_v0_plucked_142","midi_source":""},{"t":7.519,"note":55,"dur":0.045,"vel":0.496,"inst":"xylophone_v0_plucked_129","midi_source":""},{"t":7.519,"note":65,"dur":0.134,"vel":0.496,"inst":"banjo_v0_plucked_142","midi_source":""},{"t":7.564,"note":58,"dur":0.045,"vel":0.496,"inst":"xylophone_v0_plucked_129","midi_source":""},{"t":7.608,"note":61,"dur":0.045,"vel":0.496,"inst":"xylophone_v0_plucked_129","midi_source":""},{"t":7.653,"note":65,"dur":0.045,"vel":0.496,"inst":"banjo_v0_plucked_142","midi_source":""},{"t":7.653,"note":73,"dur":0.045,"vel":0.496,"inst":"xylophone_v0_plucked_129","midi_source":""},{"t":7.698,"note":67,"dur":0.045,"vel":0.496,"inst":"xylophone_v0_plucked_129","midi_source":""},{"t":7.698,"note":70,"dur":0.045,"vel":0.496,"inst":"xylophone_v0_plucked_129","midi_source":""},{"t":7.698,"note":82,"dur":0.045,"vel":0.496,"inst":"xylophone_v0_plucked_129","midi_source":""},{"t":7.698,"note":86,"dur":0.045,"vel":0.496,"inst":"banjo_v0_plucked_142","midi_source":""},{"t":7.743,"note":70,"dur":0.045,"vel":0.496,"inst":"xylophone_v0_plucked_129","midi_source":""},{"t":7.743,"note":73,"dur":0.045,"vel":0.496,"inst":"xylophone_v0_plucked_129","midi_source":""},{"t":7.743,"note":82,"dur":0.045,"vel":0.496,"inst":"xylophone_v0_plucked_129","midi_source":""},{"t":7.743,"note":85,"dur":0.045,"vel":0.496,"inst":"xylophone_v0_plucked_129","midi_source":""},{"t":7.787,"note":49,"dur":0.045,"vel":0.496,"inst":"xylophone_v0_plucked_129","midi_source":""},{"t":7.787,"note":73,"dur":0.067,"vel":0.496,"inst":"xylophone_v0_plucked_129","midi_source":""},{"t":7.787,"note":82,"dur":0.067,"vel":0.496,"inst":"xylophone_v0_plucked_129","midi_source":""},{"t":7.787,"note":85,"dur":0.067,"vel":0.496,"inst":"xylophone_v0_plucked_129","midi_source":""},{"t":7.832,"note":53,"dur":0.045,"vel":0.496,"inst":"banjo_v0_plucked_142","midi_source":""},{"t":7.855,"note":65,"dur":0.246,"vel":0.496,"inst":"banjo_v0_plucked_142","midi_source":""},{"t":7.855,"note":79,"dur":0.246,"vel":0.496,"inst":"xylophone_v0_plucked_129","midi_source":""},{"t":7.855,"note":82,"dur":0.246,"vel":0.496,"inst":"xylophone_v0_plucked_129","midi_source":""},{"t":7.877,"note":55,"dur":0.045,"vel":0.496,"inst":"xylophone_v0_plucked_129","midi_source":""},{"t":7.922,"note":58,"dur":0.045,"vel":0.496,"inst":"xylophone_v0_plucked_129","midi_source":""},{"t":7.967,"note":61,"dur":0.045,"vel":0.496,"inst":"xylophone_v0_plucked_129","midi_source":""},{"t":8.011,"note":65,"dur":0.045,"vel":0.496,"inst":"banjo_v0_plucked_142","midi_source":""},{"t":8.056,"note":67,"dur":0.045,"vel":0.496,"inst":"xylophone_v0_plucked_129","midi_source":""},{"t":8.101,"note":49,"dur":0.045,"vel":0.496,"inst":"xylophone_v0_plucked_129","midi_source":""},{"t":8.101,"note":82,"dur":0.045,"vel":0.496,"inst":"xylophone_v0_plucked_129","midi_source":""},{"t":8.101,"note":85,"dur":0.045,"vel":0.496,"inst":"xylophone_v0_plucked_129","midi_source":""},{"t":8.145,"note":53,"dur":0.045,"vel":0.496,"inst":"banjo_v0_plucked_142","midi_source":""},{"t":8.145,"note":73,"dur":0.02,"vel":0.496,"inst":"xylophone_v0_plucked_129","midi_source":""},{"t":8.145,"note":79,"dur":0.045,"vel":0.496,"inst":"xylophone_v0_plucked_129","midi_source":""},{"t":8.145,"note":82,"dur":0.045,"vel":0.496,"inst":"xylophone_v0_plucked_129","midi_source":""},{"t":8.19,"note":43,"dur":0.045,"vel":0.496,"inst":"xylophone_v0_plucked_129","midi_source":""},{"t":8.19,"note":73,"dur":0.067,"vel":0.496,"inst":"xylophone_v0_plucked_129","midi_source":""},{"t":8.19,"note":79,"dur":0.067,"vel":0.496,"inst":"xylophone_v0_plucked_129","midi_source":""},{"t":8.19,"note":82,"dur":0.067,"vel":0.496,"inst":"xylophone_v0_plucked_129","midi_source":""},{"t":8.235,"note":58,"dur":0.045,"vel":0.496,"inst":"xylophone_v0_plucked_129","midi_source":""},{"t":8.257,"note":61,"dur":0.246,"vel":0.496,"inst":"xylophone_v0_plucked_129","midi_source":""},{"t":8.257,"note":67,"dur":0.201,"vel":0.496,"inst":"xylophone_v0_plucked_129","midi_source":""},{"t":8.257,"note":82,"dur":0.246,"vel":0.496,"inst":"xylophone_v0_plucked_129","midi_source":""},{"t":8.279,"note":61,"dur":0.045,"vel":0.496,"inst":"xylophone_v0_plucked_129","midi_source":""},{"t":8.324,"note":65,"dur":0.045,"vel":0.496,"inst":"banjo_v0_plucked_142","midi_source":""},{"t":8.369,"note":55,"dur":0.045,"vel":0.496,"inst":"xylophone_v0_plucked_129","midi_source":""},{"t":8.414,"note":70,"dur":0.045,"vel":0.496,"inst":"xylophone_v0_plucked_129","midi_source":""},{"t":8.459,"note":73,"dur":0.045,"vel":0.496,"inst":"xylophone_v0_plucked_129","midi_source":""},{"t":8.459,"note":67,"dur":0.045,"vel":0.496,"inst":"xylophone_v0_plucked_129","midi_source":""},{"t":8.503,"note":43,"dur":0.045,"vel":0.496,"inst":"xylophone_v0_plucked_129","midi_source":""},{"t":8.503,"note":70,"dur":0.045,"vel":0.496,"inst":"xylophone_v0_plucked_129","midi_source":""},{"t":8.503,"note":85,"dur":0.045,"vel":0.496,"inst":"xylophone_v0_plucked_129","midi_source":""},{"t":8.548,"note":55,"dur":0.045,"vel":0.496,"inst":"xylophone_v0_plucked_129","midi_source":""},{"t":8.548,"note":65,"dur":0.045,"vel":0.496,"inst":"banjo_v0_plucked_142","midi_source":""},{"t":8.548,"note":73,"dur":0.02,"vel":0.496,"inst":"xylophone_v0_plucked_129","midi_source":""},{"t":8.548,"note":82,"dur":0.045,"vel":0.496,"inst":"xylophone_v0_plucked_129","midi_source":""},{"t":8.593,"note":46,"dur":0.045,"vel":0.496,"inst":"xylophone_v0_plucked_129","midi_source":""},{"t":8.593,"note":55,"dur":0.313,"vel":0.496,"inst":"xylophone_v0_plucked_129","midi_source":""},{"t":8.593,"note":73,"dur":0.313,"vel":0.496,"inst":"xylophone_v0_plucked_129","midi_source":""},{"t":8.593,"note":82,"dur":0.067,"vel":0.496,"inst":"xylophone_v0_plucked_129","midi_source":""},{"t":8.638,"note":49,"dur":0.045,"vel":0.496,"inst":"xylophone_v0_plucked_129","midi_source":""},{"t":8.66,"note":82,"dur":0.067,"vel":0.496,"inst":"xylophone_v0_plucked_129","midi_source":""},{"t":8.682,"note":43,"dur":0.045,"vel":0.496,"inst":"xylophone_v0_plucked_129","midi_source":""},{"t":8.727,"note":58,"dur":0.045,"vel":0.496,"inst":"xylophone_v0_plucked_129","midi_source":""},{"t":8.727,"note":79,"dur":0.067,"vel":0.496,"inst":"xylophone_v0_plucked_129","midi_source":""},{"t":8.772,"note":61,"dur":0.045,"vel":0.496,"inst":"xylophone_v0_plucked_129","midi_source":""},{"t":8.794,"note":67,"dur":0.067,"vel":0.496,"inst":"xylophone_v0_plucked_129","midi_source":""},{"t":8.816,"note":55,"dur":0.045,"vel":0.496,"inst":"xylophone_v0_plucked_129","midi_source":""},{"t":8.861,"note":70,"dur":0.045,"vel":0.496,"inst":"xylophone_v0_plucked_129","midi_source":""},{"t":8.861,"note":86,"dur":0.045,"vel":0.496,"inst":"banjo_v0_plucked_142","midi_source":""},{"t":8.906,"note":58,"dur":0.045,"vel":0.496,"inst":"xylophone_v0_plucked_129","midi_source":""},{"t":8.906,"note":55,"dur":0.045,"vel":0.496,"inst":"xylophone_v0_plucked_129","midi_source":""},{"t":8.906,"note":73,"dur":0.045,"vel":0.496,"inst":"xylophone_v0_plucked_129","midi_source":""},{"t":8.906,"note":85,"dur":0.045,"vel":0.496,"inst":"xylophone_v0_plucked_129","midi_source":""},{"t":8.951,"note":46,"dur":0.045,"vel":0.496,"inst":"xylophone_v0_plucked_129","midi_source":""},{"t":8.951,"note":55,"dur":0.045,"vel":0.496,"inst":"xylophone_v0_plucked_129","midi_source":""},{"t":8.951,"note":70,"dur":0.045,"vel":0.496,"inst":"xylophone_v0_plucked_129","midi_source":""},{"t":8.951,"note":74,"dur":0.045,"vel":0.496,"inst":"banjo_v0_plucked_142","midi_source":""},{"t":8.995,"note":43,"dur":0.045,"vel":0.496,"inst":"xylophone_v0_plucked_129","midi_source":""},{"t":8.995,"note":65,"dur":0.045,"vel":0.496,"inst":"banjo_v0_plucked_142","midi_source":""},{"t":8.995,"note":70,"dur":0.045,"vel":0.496,"inst":"xylophone_v0_plucked_129","midi_source":""},{"t":8.995,"note":67,"dur":0.034,"vel":0.496,"inst":"xylophone_v0_plucked_129","midi_source":""},{"t":9.029,"note":77,"dur":0.034,"vel":0.496,"inst":"banjo_v0_plucked_142","midi_source":""},{"t":9.04,"note":49,"dur":0.045,"vel":0.496,"inst":"xylophone_v0_plucked_129","midi_source":""},{"t":9.04,"note":65,"dur":0.045,"vel":0.496,"inst":"banjo_v0_plucked_142","midi_source":""},{"t":9.04,"note":70,"dur":0.045,"vel":0.496,"inst":"xylophone_v0_plucked_129","midi_source":""},{"t":9.062,"note":82,"dur":0.034,"vel":0.496,"inst":"xylophone_v0_plucked_129","midi_source":""},{"t":9.085,"note":46,"dur":0.045,"vel":0.496,"inst":"xylophone_v0_plucked_129","midi_source":""},{"t":9.085,"note":73,"dur":0.045,"vel":0.496,"inst":"xylophone_v0_plucked_129","midi_source":""},{"t":9.085,"note":77,"dur":0.045,"vel":0.496,"inst":"banjo_v0_plucked_142","midi_source":""},{"t":9.096,"note":82,"dur":0.034,"vel":0.496,"inst":"xylophone_v0_plucked_129","midi_source":""},{"t":9.13,"note":46,"dur":0.045,"vel":0.992,"inst":"xylophone_v0_plucked_129","midi_source":""},{"t":9.13,"note":70,"dur":0.045,"vel":0.992,"inst":"xylophone_v0_plucked_129","midi_source":""},{"t":9.13,"note":77,"dur":0.045,"vel":0.992,"inst":"banjo_v0_plucked_142","midi_source":""},{"t":9.13,"note":79,"dur":0.134,"vel":0.992,"inst":"xylophone_v0_plucked_129","midi_source":""},{"t":9.174,"note":58,"dur":0.045,"vel":0.992,"inst":"xylophone_v0_plucked_129","midi_source":""},{"t":9.174,"note":67,"dur":0.045,"vel":0.992,"inst":"xylophone_v0_plucked_129","midi_source":""},{"t":9.174,"note":70,"dur":0.045,"vel":0.992,"inst":"xylophone_v0_plucked_129","midi_source":""},{"t":9.219,"note":46,"dur":0.045,"vel":0.992,"inst":"xylophone_v0_plucked_129","midi_source":""},{"t":9.219,"note":65,"dur":0.045,"vel":0.992,"inst":"banjo_v0_plucked_142","midi_source":""},{"t":9.219,"note":67,"dur":0.045,"vel":0.992,"inst":"xylophone_v0_plucked_129","midi_source":""},{"t":9.264,"note":46,"dur":0.045,"vel":0.992,"inst":"xylophone_v0_plucked_129","midi_source":""},{"t":9.264,"note":62,"dur":0.045,"vel":0.992,"inst":"banjo_v0_plucked_142","midi_source":""},{"t":9.264,"note":70,"dur":0.045,"vel":0.992,"inst":"xylophone_v0_plucked_129","midi_source":""},{"t":9.264,"note":67,"dur":0.045,"vel":0.992,"inst":"xylophone_v0_plucked_129","midi_source":""},{"t":9.309,"note":85,"dur":0.045,"vel":0.992,"inst":"xylophone_v0_plucked_129","midi_source":""},{"t":9.353,"note":46,"dur":0.02,"vel":0.992,"inst":"xylophone_v0_plucked_129","midi_source":""},{"t":9.353,"note":62,"dur":0.02,"vel":0.992,"inst":"banjo_v0_plucked_142","midi_source":""},{"t":9.353,"note":70,"dur":0.02,"vel":0.992,"inst":"xylophone_v0_plucked_129","midi_source":""},{"t":9.353,"note":82,"dur":0.045,"vel":0.992,"inst":"xylophone_v0_plucked_129","midi_source":""},{"t":9.398,"note":53,"dur":0.045,"vel":0.496,"inst":"banjo_v0_plucked_142","midi_source":""},{"t":9.398,"note":65,"dur":0.067,"vel":0.496,"inst":"banjo_v0_plucked_142","midi_source":""},{"t":9.398,"note":67,"dur":0.134,"vel":0.496,"inst":"xylophone_v0_plucked_129","midi_source":""},{"t":9.398,"note":77,"dur":0.134,"vel":0.496,"inst":"banjo_v0_plucked_142","midi_source":""},{"t":9.443,"note":43,"dur":0.045,"vel":0.496,"inst":"xylophone_v0_plucked_129","midi_source":""},{"t":9.487,"note":55,"dur":0.045,"vel":0.496,"inst":"xylophone_v0_plucked_129","midi_source":""},{"t":9.532,"note":53,"dur":0.268,"vel":0.496,"inst":"banjo_v0_plucked_142","midi_source":""},{"t":9.532,"note":58,"dur":0.268,"vel":0.496,"inst":"xylophone_v0_plucked_129","midi_source":""},{"t":9.532,"note":61,"dur":0.045,"vel":0.496,"inst":"xylophone_v0_plucked_129","midi_source":""},{"t":9.532,"note":73,"dur":0.201,"vel":0.496,"inst":"xylophone_v0_plucked_129","midi_source":""},{"t":9.577,"note":62,"dur":0.045,"vel":0.496,"inst":"banjo_v0_plucked_142","midi_source":""},{"t":9.622,"note":65,"dur":0.045,"vel":0.496,"inst":"banjo_v0_plucked_142","midi_source":""},{"t":9.666,"note":55,"dur":0.045,"vel":0.496,"inst":"xylophone_v0_plucked_129","midi_source":""},{"t":9.666,"note":55,"dur":0.134,"vel":0.496,"inst":"xylophone_v0_plucked_129","midi_source":""},{"t":9.711,"note":67,"dur":0.045,"vel":0.496,"inst":"xylophone_v0_plucked_129","midi_source":""},{"t":9.733,"note":67,"dur":0.067,"vel":0.496,"inst":"xylophone_v0_plucked_129","midi_source":""},{"t":9.756,"note":70,"dur":0.045,"vel":0.496,"inst":"xylophone_v0_plucked_129","midi_source":""},{"t":9.801,"note":53,"dur":0.045,"vel":0.496,"inst":"banjo_v0_plucked_142","midi_source":""},{"t":9.801,"note":58,"dur":0.045,"vel":0.496,"inst":"xylophone_v0_plucked_129","midi_source":""},{"t":9.801,"note":55,"dur":0.403,"vel":0.496,"inst":"xylophone_v0_plucked_129","midi_source":""},{"t":9.801,"note":70,"dur":0.403,"vel":0.496,"inst":"xylophone_v0_plucked_129","midi_source":""},{"t":9.801,"note":77,"dur":0.134,"vel":0.496,"inst":"banjo_v0_plucked_142","midi_source":""},{"t":9.89,"note":53,"dur":0.02,"vel":0.496,"inst":"banjo_v0_plucked_142","midi_source":""},{"t":9.89,"note":58,"dur":0.02,"vel":0.496,"inst":"xylophone_v0_plucked_129","midi_source":""},{"t":9.935,"note":58,"dur":0.045,"vel":0.496,"inst":"xylophone_v0_plucked_129","midi_source":""},{"t":9.935,"note":67,"dur":0.168,"vel":0.496,"inst":"xylophone_v0_plucked_129","midi_source":""},{"t":9.98,"note":60,"dur":0.045,"vel":0.496,"inst":"pad_string_v0_bass_416","midi_source":""},{"t":10.024,"note":62,"dur":0.045,"vel":0.496,"inst":"banjo_v0_plucked_142","midi_source":""},{"t":10.069,"note":49,"dur":0.134,"vel":0.496,"inst":"xylophone_v0_plucked_129","midi_source":""},{"t":10.069,"note":65,"dur":0.134,"vel":0.496,"inst":"banjo_v0_plucked_142","midi_source":""},{"t":10.069,"note":70,"dur":0.045,"vel":0.496,"inst":"xylophone_v0_plucked_129","midi_source":""},{"t":10.103,"note":79,"dur":0.034,"vel":0.496,"inst":"xylophone_v0_plucked_129","midi_source":""},{"t":10.114,"note":73,"dur":0.045,"vel":0.496,"inst":"xylophone_v0_plucked_129","midi_source":""},{"t":10.136,"note":79,"dur":0.034,"vel":0.496,"inst":"xylophone_v0_plucked_129","midi_source":""},{"t":10.158,"note":77,"dur":0.045,"vel":0.496,"inst":"banjo_v0_plucked_142","midi_source":""},{"t":10.17,"note":82,"dur":0.034,"vel":0.496,"inst":"xylophone_v0_plucked_129","midi_source":""},{"t":10.203,"note":48,"dur":0.045,"vel":0.496,"inst":"pad_string_v0_bass_416","midi_source":""},{"t":10.203,"note":62,"dur":0.045,"vel":0.496,"inst":"banjo_v0_plucked_142","midi_source":""},{"t":10.203,"note":74,"dur":0.045,"vel":0.496,"inst":"banjo_v0_plucked_142","midi_source":""},{"t":10.203,"note":79,"dur":0.179,"vel":0.496,"inst":"xylophone_v0_plucked_129","midi_source":""},{"t":10.248,"note":50,"dur":0.045,"vel":0.496,"inst":"banjo_v0_plucked_142","midi_source":""},{"t":10.293,"note":55,"dur":0.045,"vel":0.496,"inst":"xylophone_v0_plucked_129","midi_source":""},{"t":10.293,"note":55,"dur":0.02,"vel":0.496,"inst":"xylophone_v0_plucked_129","midi_source":""},{"t":10.293,"note":67,"dur":0.02,"vel":0.496,"inst":"xylophone_v0_plucked_129","midi_source":""},{"t":10.337,"note":49,"dur":0.045,"vel":0.496,"inst":"xylophone_v0_plucked_129","midi_source":""},{"t":10.337,"note":65,"dur":0.045,"vel":0.496,"inst":"banjo_v0_plucked_142","midi_source":""},{"t":10.337,"note":67,"dur":0.045,"vel":0.496,"inst":"xylophone_v0_plucked_129","midi_source":""},{"t":10.382,"note":50,"dur":0.045,"vel":0.496,"inst":"banjo_v0_plucked_142","midi_source":""},{"t":10.382,"note":55,"dur":0.045,"vel":0.496,"inst":"xylophone_v0_plucked_129","midi_source":""},{"t":10.382,"note":72,"dur":0.045,"vel":0.496,"inst":"pad_string_v0_bass_416","midi_source":""},{"t":10.382,"note":67,"dur":0.045,"vel":0.496,"inst":"xylophone_v0_plucked_129","midi_source":""},{"t":10.427,"note":53,"dur":0.045,"vel":0.496,"inst":"banjo_v0_plucked_142","midi_source":""},{"t":10.427,"note":67,"dur":0.045,"vel":0.496,"inst":"xylophone_v0_plucked_129","midi_source":""},{"t":10.427,"note":73,"dur":0.045,"vel":0.496,"inst":"xylophone_v0_plucked_129","midi_source":""},{"t":10.427,"note":77,"dur":0.045,"vel":0.496,"inst":"banjo_v0_plucked_142","midi_source":""},{"t":10.472,"note":43,"dur":0.045,"vel":0.496,"inst":"xylophone_v0_plucked_129","midi_source":""},{"t":10.472,"note":55,"dur":0.045,"vel":0.496,"inst":"xylophone_v0_plucked_129","midi_source":""},{"t":10.472,"note":70,"dur":0.045,"vel":0.496,"inst":"xylophone_v0_plucked_129","midi_source":""},{"t":10.472,"note":74,"dur":0.045,"vel":0.496,"inst":"banjo_v0_plucked_142","midi_source":""},{"t":10.516,"note":61,"dur":0.045,"vel":0.496,"inst":"xylophone_v0_plucked_129","midi_source":""},{"t":10.516,"note":77,"dur":0.045,"vel":0.496,"inst":"banjo_v0_plucked_142","midi_source":""},{"t":10.561,"note":43,"dur":0.02,"vel":0.496,"inst":"xylophone_v0_plucked_129","midi_source":""},{"t":10.561,"note":65,"dur":0.045,"vel":0.496,"inst":"banjo_v0_plucked_142","midi_source":""},{"t":10.561,"note":70,"dur":0.02,"vel":0.496,"inst":"xylophone_v0_plucked_129","midi_source":""},{"t":10.561,"note":73,"dur":0.045,"vel":0.496,"inst":"xylophone_v0_plucked_129","midi_source":""},{"t":10.606,"note":46,"dur":0.045,"vel":0.496,"inst":"xylophone_v0_plucked_129","midi_source":""},{"t":10.606,"note":65,"dur":0.045,"vel":0.496,"inst":"banjo_v0_plucked_142","midi_source":""},{"t":10.606,"note":70,"dur":0.045,"vel":0.496,"inst":"xylophone_v0_plucked_129","midi_source":""},{"t":10.606,"note":73,"dur":0.134,"vel":0.496,"inst":"xylophone_v0_plucked_129","midi_source":""},{"t":10.651,"note":43,"dur":0.045,"vel":0.496,"inst":"xylophone_v0_plucked_129","midi_source":""},{"t":10.651,"note":65,"dur":0.045,"vel":0.496,"inst":"banjo_v0_plucked_142","midi_source":""},{"t":10.651,"note":55,"dur":0.045,"vel":0.496,"inst":"xylophone_v0_plucked_129","midi_source":""},{"t":10.695,"note":58,"dur":0.045,"vel":0.496,"inst":"xylophone_v0_plucked_129","midi_source":""},{"t":10.695,"note":65,"dur":0.045,"vel":0.496,"inst":"banjo_v0_plucked_142","midi_source":""},{"t":10.695,"note":55,"dur":0.045,"vel":0.496,"inst":"xylophone_v0_plucked_129","midi_source":""},{"t":10.74,"note":58,"dur":0.268,"vel":0.496,"inst":"xylophone_v0_plucked_129","midi_source":""},{"t":10.74,"note":62,"dur":0.045,"vel":0.496,"inst":"banjo_v0_plucked_142","midi_source":""},{"t":10.74,"note":55,"dur":0.179,"vel":0.496,"inst":"xylophone_v0_plucked_129","midi_source":""},{"t":10.74,"note":70,"dur":0.134,"vel":0.496,"inst":"xylophone_v0_plucked_129","midi_source":""},{"t":10.785,"note":55,"dur":0.045,"vel":0.496,"inst":"xylophone_v0_plucked_129","midi_source":""},{"t":10.829,"note":70,"dur":0.045,"vel":0.496,"inst":"xylophone_v0_plucked_129","midi_source":""},{"t":10.874,"note":70,"dur":0.045,"vel":0.496,"inst":"xylophone_v0_plucked_129","midi_source":""},{"t":10.919,"note":62,"dur":0.045,"vel":0.496,"inst":"banjo_v0_plucked_142","midi_source":""},{"t":10.919,"note":55,"dur":0.045,"vel":0.496,"inst":"xylophone_v0_plucked_129","midi_source":""},{"t":10.964,"note":61,"dur":0.045,"vel":0.496,"inst":"xylophone_v0_plucked_129","midi_source":""},{"t":10.964,"note":65,"dur":0.045,"vel":0.496,"inst":"banjo_v0_plucked_142","midi_source":""},{"t":11.008,"note":58,"dur":0.045,"vel":0.496,"inst":"xylophone_v0_plucked_129","midi_source":""},{"t":11.008,"note":58,"dur":0.134,"vel":0.496,"inst":"xylophone_v0_plucked_129","midi_source":""},{"t":11.008,"note":62,"dur":0.134,"vel":0.496,"inst":"banjo_v0_plucked_142","midi_source":""},{"t":11.053,"note":62,"dur":0.045,"vel":0.496,"inst":"banjo_v0_plucked_142","midi_source":""},{"t":11.098,"note":55,"dur":0.045,"vel":0.496,"inst":"xylophone_v0_plucked_129","midi_source":""},{"t":11.143,"note":55,"dur":0.134,"vel":0.496,"inst":"xylophone_v0_plucked_129","midi_source":""},{"t":11.143,"note":58,"dur":0.045,"vel":0.496,"inst":"xylophone_v0_plucked_129","midi_source":""},{"t":11.143,"note":65,"dur":0.134,"vel":0.496,"inst":"banjo_v0_plucked_142","midi_source":""},{"t":11.143,"note":70,"dur":0.313,"vel":0.496,"inst":"xylophone_v0_plucked_129","midi_source":""},{"t":11.187,"note":62,"dur":0.045,"vel":0.496,"inst":"banjo_v0_plucked_142","midi_source":""},{"t":11.232,"note":67,"dur":0.045,"vel":0.496,"inst":"xylophone_v0_plucked_129","midi_source":""},{"t":11.277,"note":43,"dur":0.134,"vel":0.496,"inst":"xylophone_v0_plucked_129","midi_source":""},{"t":11.277,"note":55,"dur":0.045,"vel":0.496,"inst":"xylophone_v0_plucked_129","midi_source":""},{"t":11.277,"note":70,"dur":0.134,"vel":0.496,"inst":"xylophone_v0_plucked_129","midi_source":""},{"t":11.322,"note":70,"dur":0.045,"vel":0.496,"inst":"xylophone_v0_plucked_129","midi_source":""},{"t":11.366,"note":74,"dur":0.045,"vel":0.496,"inst":"banjo_v0_plucked_142","midi_source":""},{"t":11.411,"note":53,"dur":0.313,"vel":0.496,"inst":"banjo_v0_plucked_142","midi_source":""},{"t":11.411,"note":67,"dur":0.313,"vel":0.496,"inst":"xylophone_v0_plucked_129","midi_source":""},{"t":11.411,"note":77,"dur":0.313,"vel":0.496,"inst":"banjo_v0_plucked_142","midi_source":""},{"t":11.456,"note":65,"dur":0.045,"vel":0.496,"inst":"banjo_v0_plucked_142","midi_source":""},{"t":11.5,"note":55,"dur":0.045,"vel":0.496,"inst":"xylophone_v0_plucked_129","midi_source":""},{"t":11.545,"note":67,"dur":0.045,"vel":0.496,"inst":"xylophone_v0_plucked_129","midi_source":""},{"t":11.59,"note":70,"dur":0.045,"vel":0.496,"inst":"xylophone_v0_plucked_129","midi_source":""},{"t":11.635,"note":77,"dur":0.045,"vel":0.496,"inst":"banjo_v0_plucked_142","midi_source":""},{"t":11.679,"note":79,"dur":0.045,"vel":0.496,"inst":"xylophone_v0_plucked_129","midi_source":""},{"t":11.724,"note":46,"dur":0.045,"vel":0.496,"inst":"xylophone_v0_plucked_129","midi_source":""},{"t":11.724,"note":67,"dur":0.045,"vel":0.496,"inst":"xylophone_v0_plucked_129","midi_source":""},{"t":11.724,"note":70,"dur":0.045,"vel":0.496,"inst":"xylophone_v0_plucked_129","midi_source":""},{"t":11.724,"note":82,"dur":0.045,"vel":0.496,"inst":"xylophone_v0_plucked_129","midi_source":""},{"t":11.769,"note":49,"dur":0.045,"vel":0.496,"inst":"xylophone_v0_plucked_129","midi_source":""},{"t":11.769,"note":55,"dur":0.045,"vel":0.496,"inst":"xylophone_v0_plucked_129","midi_source":""},{"t":11.769,"note":70,"dur":0.045,"vel":0.496,"inst":"xylophone_v0_plucked_129","midi_source":""},{"t":11.769,"note":82,"dur":0.045,"vel":0.496,"inst":"xylophone_v0_plucked_129","midi_source":""},{"t":11.814,"note":50,"dur":0.067,"vel":0.496,"inst":"banjo_v0_plucked_142","midi_source":""},{"t":11.814,"note":65,"dur":0.134,"vel":0.496,"inst":"banjo_v0_plucked_142","midi_source":""},{"t":11.814,"note":67,"dur":0.134,"vel":0.496,"inst":"xylophone_v0_plucked_129","midi_source":""},{"t":11.814,"note":79,"dur":0.134,"vel":0.496,"inst":"xylophone_v0_plucked_129","midi_source":""},{"t":11.881,"note":58,"dur":0.067,"vel":0.496,"inst":"xylophone_v0_plucked_129","midi_source":""},{"t":11.948,"note":49,"dur":0.134,"vel":0.496,"inst":"xylophone_v0_plucked_129","midi_source":""},{"t":11.948,"note":58,"dur":0.045,"vel":0.496,"inst":"xylophone_v0_plucked_129","midi_source":""},{"t":11.948,"note":65,"dur":0.134,"vel":0.496,"inst":"banjo_v0_plucked_142","midi_source":""},{"t":11.948,"note":82,"dur":0.134,"vel":0.496,"inst":"xylophone_v0_plucked_129","midi_source":""},{"t":11.993,"note":61,"dur":0.045,"vel":0.496,"inst":"xylophone_v0_plucked_129","midi_source":""},{"t":12.037,"note":65,"dur":0.045,"vel":0.496,"inst":"banjo_v0_plucked_142","midi_source":""},{"t":12.082,"note":46,"dur":0.134,"vel":0.496,"inst":"xylophone_v0_plucked_129","midi_source":""},{"t":12.082,"note":62,"dur":0.134,"vel":0.496,"inst":"banjo_v0_plucked_142","midi_source":""},{"t":12.082,"note":67,"dur":0.045,"vel":0.496,"inst":"xylophone_v0_plucked_129","midi_source":""},{"t":12.082,"note":82,"dur":0.134,"vel":0.496,"inst":"xylophone_v0_plucked_129","midi_source":""},{"t":12.127,"note":70,"dur":0.045,"vel":0.496,"inst":"xylophone_v0_plucked_129","midi_source":""},{"t":12.171,"note":77,"dur":0.045,"vel":0.496,"inst":"banjo_v0_plucked_142","midi_source":""},{"t":12.216,"note":46,"dur":0.045,"vel":0.496,"inst":"xylophone_v0_plucked_129","midi_source":""},{"t":12.216,"note":61,"dur":0.134,"vel":0.496,"inst":"xylophone_v0_plucked_129","midi_source":""},{"t":12.216,"note":77,"dur":0.067,"vel":0.496,"inst":"banjo_v0_plucked_142","midi_source":""},{"t":12.216,"note":85,"dur":0.313,"vel":0.496,"inst":"xylophone_v0_plucked_129","midi_source":""},{"t":12.261,"note":49,"dur":0.045,"vel":0.496,"inst":"xylophone_v0_plucked_129","midi_source":""},{"t":12.283,"note":82,"dur":0.246,"vel":0.496,"inst":"xylophone_v0_plucked_129","midi_source":""},{"t":12.306,"note":53,"dur":0.045,"vel":0.496,"inst":"banjo_v0_plucked_142","midi_source":""},{"t":12.35,"note":55,"dur":0.045,"vel":0.496,"inst":"xylophone_v0_plucked_129","midi_source":""},{"t":12.35,"note":65,"dur":0.134,"vel":0.496,"inst":"banjo_v0_plucked_142","midi_source":""},{"t":12.395,"note":58,"dur":0.045,"vel":0.496,"inst":"xylophone_v0_plucked_129","midi_source":""},{"t":12.44,"note":61,"dur":0.045,"vel":0.496,"inst":"xylophone_v0_plucked_129","midi_source":""},{"t":12.485,"note":65,"dur":0.045,"vel":0.496,"inst":"banjo_v0_plucked_142","midi_source":""},{"t":12.485,"note":73,"dur":0.045,"vel":0.496,"inst":"xylophone_v0_plucked_129","midi_source":""},{"t":12.529,"note":67,"dur":0.045,"vel":0.496,"inst":"xylophone_v0_plucked_129","midi_source":""},{"t":12.529,"note":70,"dur":0.045,"vel":0.496,"inst":"xylophone_v0_plucked_129","midi_source":""},{"t":12.529,"note":82,"dur":0.045,"vel":0.496,"inst":"xylophone_v0_plucked_129","midi_source":""},{"t":12.529,"note":86,"dur":0.045,"vel":0.496,"inst":"banjo_v0_plucked_142","midi_source":""},{"t":12.574,"note":70,"dur":0.045,"vel":0.496,"inst":"xylophone_v0_plucked_129","midi_source":""},{"t":12.574,"note":73,"dur":0.045,"vel":0.496,"inst":"xylophone_v0_plucked_129","midi_source":""},{"t":12.574,"note":82,"dur":0.045,"vel":0.496,"inst":"xylophone_v0_plucked_129","midi_source":""},{"t":12.574,"note":85,"dur":0.045,"vel":0.496,"inst":"xylophone_v0_plucked_129","midi_source":""},{"t":12.619,"note":49,"dur":0.045,"vel":0.496,"inst":"xylophone_v0_plucked_129","midi_source":""},{"t":12.619,"note":73,"dur":0.067,"vel":0.496,"inst":"xylophone_v0_plucked_129","midi_source":""},{"t":12.619,"note":82,"dur":0.067,"vel":0.496,"inst":"xylophone_v0_plucked_129","midi_source":""},{"t":12.619,"note":85,"dur":0.067,"vel":0.496,"inst":"xylophone_v0_plucked_129","midi_source":""},{"t":12.664,"note":53,"dur":0.045,"vel":0.496,"inst":"banjo_v0_plucked_142","midi_source":""},{"t":12.686,"note":65,"dur":0.246,"vel":0.496,"inst":"banjo_v0_plucked_142","midi_source":""},{"t":12.686,"note":79,"dur":0.246,"vel":0.496,"inst":"xylophone_v0_plucked_129","midi_source":""},{"t":12.686,"note":82,"dur":0.246,"vel":0.496,"inst":"xylophone_v0_plucked_129","midi_source":""},{"t":12.708,"note":55,"dur":0.045,"vel":0.496,"inst":"xylophone_v0_plucked_129","midi_source":""},{"t":12.753,"note":58,"dur":0.045,"vel":0.496,"inst":"xylophone_v0_plucked_129","midi_source":""},{"t":12.798,"note":61,"dur":0.045,"vel":0.496,"inst":"xylophone_v0_plucked_129","midi_source":""},{"t":12.842,"note":65,"dur":0.045,"vel":0.496,"inst":"banjo_v0_plucked_142","midi_source":""},{"t":12.887,"note":67,"dur":0.045,"vel":0.496,"inst":"xylophone_v0_plucked_129","midi_source":""},{"t":12.932,"note":49,"dur":0.045,"vel":0.496,"inst":"xylophone_v0_plucked_129","midi_source":""},{"t":12.932,"note":82,"dur":0.045,"vel":0.496,"inst":"xylophone_v0_plucked_129","midi_source":""},{"t":12.932,"note":85,"dur":0.045,"vel":0.496,"inst":"xylophone_v0_plucked_129","midi_source":""},{"t":12.977,"note":53,"dur":0.045,"vel":0.496,"inst":"banjo_v0_plucked_142","midi_source":""},{"t":12.977,"note":73,"dur":0.02,"vel":0.496,"inst":"xylophone_v0_plucked_129","midi_source":""},{"t":12.977,"note":79,"dur":0.045,"vel":0.496,"inst":"xylophone_v0_plucked_129","midi_source":""},{"t":12.977,"note":82,"dur":0.045,"vel":0.496,"inst":"xylophone_v0_plucked_129","midi_source":""},{"t":13.021,"note":43,"dur":0.045,"vel":0.496,"inst":"xylophone_v0_plucked_129","midi_source":""},{"t":13.021,"note":73,"dur":0.067,"vel":0.496,"inst":"xylophone_v0_plucked_129","midi_source":""},{"t":13.021,"note":79,"dur":0.067,"vel":0.496,"inst":"xylophone_v0_plucked_129","midi_source":""},{"t":13.021,"note":82,"dur":0.067,"vel":0.496,"inst":"xylophone_v0_plucked_129","midi_source":""},{"t":13.066,"note":58,"dur":0.045,"vel":0.496,"inst":"xylophone_v0_plucked_129","midi_source":""},{"t":13.089,"note":61,"dur":0.246,"vel":0.496,"inst":"xylophone_v0_plucked_129","midi_source":""},{"t":13.089,"note":67,"dur":0.201,"vel":0.496,"inst":"xylophone_v0_plucked_129","midi_source":""},{"t":13.089,"note":82,"dur":0.246,"vel":0.496,"inst":"xylophone_v0_plucked_129","midi_source":""},{"t":13.111,"note":61,"dur":0.045,"vel":0.496,"inst":"xylophone_v0_plucked_129","midi_source":""},{"t":13.156,"note":65,"dur":0.045,"vel":0.496,"inst":"banjo_v0_plucked_142","midi_source":""},{"t":13.2,"note":55,"dur":0.045,"vel":0.496,"inst":"xylophone_v0_plucked_129","midi_source":""},{"t":13.245,"note":70,"dur":0.045,"vel":0.496,"inst":"xylophone_v0_plucked_129","midi_source":""},{"t":13.29,"note":73,"dur":0.045,"vel":0.496,"inst":"xylophone_v0_plucked_129","midi_source":""},{"t":13.29,"note":67,"dur":0.045,"vel":0.496,"inst":"xylophone_v0_plucked_129","midi_source":""},{"t":13.335,"note":43,"dur":0.045,"vel":0.496,"inst":"xylophone_v0_plucked_129","midi_source":""},{"t":13.335,"note":70,"dur":0.045,"vel":0.496,"inst":"xylophone_v0_plucked_129","midi_source":""},{"t":13.335,"note":85,"dur":0.045,"vel":0.496,"inst":"xylophone_v0_plucked_129","midi_source":""},{"t":13.379,"note":55,"dur":0.045,"vel":0.496,"inst":"xylophone_v0_plucked_129","midi_source":""},{"t":13.379,"note":65,"dur":0.045,"vel":0.496,"inst":"banjo_v0_plucked_142","midi_source":""},{"t":13.379,"note":73,"dur":0.02,"vel":0.496,"inst":"xylophone_v0_plucked_129","midi_source":""},{"t":13.379,"note":82,"dur":0.045,"vel":0.496,"inst":"xylophone_v0_plucked_129","midi_source":""},{"t":13.424,"note":46,"dur":0.045,"vel":0.496,"inst":"xylophone_v0_plucked_129","midi_source":""},{"t":13.424,"note":55,"dur":0.313,"vel":0.496,"inst":"xylophone_v0_plucked_129","midi_source":""},{"t":13.424,"note":73,"dur":0.313,"vel":0.496,"inst":"xylophone_v0_plucked_129","midi_source":""},{"t":13.424,"note":82,"dur":0.067,"vel":0.496,"inst":"xylophone_v0_plucked_129","midi_source":""},{"t":13.469,"note":49,"dur":0.045,"vel":0.496,"inst":"xylophone_v0_plucked_129","midi_source":""},{"t":13.491,"note":82,"dur":0.067,"vel":0.496,"inst":"xylophone_v0_plucked_129","midi_source":""},{"t":13.513,"note":43,"dur":0.045,"vel":0.496,"inst":"xylophone_v0_plucked_129","midi_source":""},{"t":13.558,"note":58,"dur":0.045,"vel":0.496,"inst":"xylophone_v0_plucked_129","midi_source":""},{"t":13.558,"note":79,"dur":0.067,"vel":0.496,"inst":"xylophone_v0_plucked_129","midi_source":""},{"t":13.603,"note":61,"dur":0.045,"vel":0.496,"inst":"xylophone_v0_plucked_129","midi_source":""},{"t":13.625,"note":67,"dur":0.067,"vel":0.496,"inst":"xylophone_v0_plucked_129","midi_source":""},{"t":13.648,"note":55,"dur":0.045,"vel":0.496,"inst":"xylophone_v0_plucked_129","midi_source":""},{"t":13.692,"note":70,"dur":0.045,"vel":0.496,"inst":"xylophone_v0_plucked_129","midi_source":""},{"t":13.692,"note":86,"dur":0.045,"vel":0.496,"inst":"banjo_v0_plucked_142","midi_source":""},{"t":13.737,"note":58,"dur":0.045,"vel":0.496,"inst":"xylophone_v0_plucked_129","midi_source":""},{"t":13.737,"note":55,"dur":0.045,"vel":0.496,"inst":"xylophone_v0_plucked_129","midi_source":""},{"t":13.737,"note":73,"dur":0.045,"vel":0.496,"inst":"xylophone_v0_plucked_129","midi_source":""},{"t":13.737,"note":85,"dur":0.045,"vel":0.496,"inst":"xylophone_v0_plucked_129","midi_source":""},{"t":13.782,"note":46,"dur":0.045,"vel":0.496,"inst":"xylophone_v0_plucked_129","midi_source":""},{"t":13.782,"note":55,"dur":0.045,"vel":0.496,"inst":"xylophone_v0_plucked_129","midi_source":""},{"t":13.782,"note":70,"dur":0.045,"vel":0.496,"inst":"xylophone_v0_plucked_129","midi_source":""},{"t":13.782,"note":74,"dur":0.045,"vel":0.496,"inst":"banjo_v0_plucked_142","midi_source":""},{"t":13.827,"note":43,"dur":0.045,"vel":0.496,"inst":"xylophone_v0_plucked_129","midi_source":""},{"t":13.827,"note":65,"dur":0.045,"vel":0.496,"inst":"banjo_v0_plucked_142","midi_source":""},{"t":13.827,"note":70,"dur":0.045,"vel":0.496,"inst":"xylophone_v0_plucked_129","midi_source":""},{"t":13.827,"note":67,"dur":0.034,"vel":0.496,"inst":"xylophone_v0_plucked_129","midi_source":""},{"t":13.86,"note":77,"dur":0.034,"vel":0.496,"inst":"banjo_v0_plucked_142","midi_source":""},{"t":13.872,"note":49,"dur":0.045,"vel":0.496,"inst":"xylophone_v0_plucked_129","midi_source":""},{"t":13.872,"note":65,"dur":0.045,"vel":0.496,"inst":"banjo_v0_plucked_142","midi_source":""},{"t":13.872,"note":70,"dur":0.045,"vel":0.496,"inst":"xylophone_v0_plucked_129","midi_source":""},{"t":13.894,"note":82,"dur":0.034,"vel":0.496,"inst":"xylophone_v0_plucked_129","midi_source":""},{"t":13.916,"note":46,"dur":0.045,"vel":0.496,"inst":"xylophone_v0_plucked_129","midi_source":""},{"t":13.916,"note":73,"dur":0.045,"vel":0.496,"inst":"xylophone_v0_plucked_129","midi_source":""},{"t":13.916,"note":77,"dur":0.045,"vel":0.496,"inst":"banjo_v0_plucked_142","midi_source":""},{"t":13.927,"note":82,"dur":0.034,"vel":0.496,"inst":"xylophone_v0_plucked_129","midi_source":""},{"t":13.961,"note":46,"dur":0.045,"vel":0.992,"inst":"xylophone_v0_plucked_129","midi_source":""},{"t":13.961,"note":70,"dur":0.045,"vel":0.992,"inst":"xylophone_v0_plucked_129","midi_source":""},{"t":13.961,"note":77,"dur":0.045,"vel":0.992,"inst":"banjo_v0_plucked_142","midi_source":""},{"t":13.961,"note":79,"dur":0.134,"vel":0.992,"inst":"xylophone_v0_plucked_129","midi_source":""},{"t":14.006,"note":58,"dur":0.045,"vel":0.992,"inst":"xylophone_v0_plucked_129","midi_source":""},{"t":14.006,"note":67,"dur":0.045,"vel":0.992,"inst":"xylophone_v0_plucked_129","midi_source":""},{"t":14.006,"note":70,"dur":0.045,"vel":0.992,"inst":"xylophone_v0_plucked_129","midi_source":""},{"t":14.05,"note":46,"dur":0.045,"vel":0.992,"inst":"xylophone_v0_plucked_129","midi_source":""},{"t":14.05,"note":65,"dur":0.045,"vel":0.992,"inst":"banjo_v0_plucked_142","midi_source":""},{"t":14.05,"note":67,"dur":0.045,"vel":0.992,"inst":"xylophone_v0_plucked_129","midi_source":""},{"t":14.095,"note":46,"dur":0.045,"vel":0.992,"inst":"xylophone_v0_plucked_129","midi_source":""},{"t":14.095,"note":62,"dur":0.045,"vel":0.992,"inst":"banjo_v0_plucked_142","midi_source":""},{"t":14.095,"note":70,"dur":0.045,"vel":0.992,"inst":"xylophone_v0_plucked_129","midi_source":""},{"t":14.095,"note":67,"dur":0.045,"vel":0.992,"inst":"xylophone_v0_plucked_129","midi_source":""},{"t":14.14,"note":85,"dur":0.045,"vel":0.992,"inst":"xylophone_v0_plucked_129","midi_source":""},{"t":14.184,"note":46,"dur":0.02,"vel":0.992,"inst":"xylophone_v0_plucked_129","midi_source":""},{"t":14.184,"note":62,"dur":0.02,"vel":0.992,"inst":"banjo_v0_plucked_142","midi_source":""},{"t":14.184,"note":70,"dur":0.02,"vel":0.992,"inst":"xylophone_v0_plucked_129","midi_source":""},{"t":14.184,"note":82,"dur":0.045,"vel":0.992,"inst":"xylophone_v0_plucked_129","midi_source":""},{"t":14.229,"note":53,"dur":0.045,"vel":0.496,"inst":"banjo_v0_plucked_142","midi_source":""},{"t":14.229,"note":65,"dur":0.067,"vel":0.496,"inst":"banjo_v0_plucked_142","midi_source":""},{"t":14.229,"note":67,"dur":0.134,"vel":0.496,"inst":"xylophone_v0_plucked_129","midi_source":""},{"t":14.229,"note":77,"dur":0.134,"vel":0.496,"inst":"banjo_v0_plucked_142","midi_source":""},{"t":14.274,"note":43,"dur":0.045,"vel":0.496,"inst":"xylophone_v0_plucked_129","midi_source":""},{"t":14.319,"note":55,"dur":0.045,"vel":0.496,"inst":"xylophone_v0_plucked_129","midi_source":""},{"t":14.364,"note":53,"dur":0.268,"vel":0.496,"inst":"banjo_v0_plucked_142","midi_source":""},{"t":14.364,"note":58,"dur":0.268,"vel":0.496,"inst":"xylophone_v0_plucked_129","midi_source":""},{"t":14.364,"note":61,"dur":0.045,"vel":0.496,"inst":"xylophone_v0_plucked_129","midi_source":""},{"t":14.364,"note":73,"dur":0.201,"vel":0.496,"inst":"xylophone_v0_plucked_129","midi_source":""},{"t":14.408,"note":62,"dur":0.045,"vel":0.496,"inst":"banjo_v0_plucked_142","midi_source":""},{"t":14.453,"note":65,"dur":0.045,"vel":0.496,"inst":"banjo_v0_plucked_142","midi_source":""},{"t":14.498,"note":55,"dur":0.045,"vel":0.496,"inst":"xylophone_v0_plucked_129","midi_source":""},{"t":14.498,"note":55,"dur":0.134,"vel":0.496,"inst":"xylophone_v0_plucked_129","midi_source":""},{"t":14.543,"note":67,"dur":0.045,"vel":0.496,"inst":"xylophone_v0_plucked_129","midi_source":""},{"t":14.565,"note":67,"dur":0.067,"vel":0.496,"inst":"xylophone_v0_plucked_129","midi_source":""},{"t":14.587,"note":70,"dur":0.045,"vel":0.496,"inst":"xylophone_v0_plucked_129","midi_source":""},{"t":14.632,"note":53,"dur":0.045,"vel":0.496,"inst":"banjo_v0_plucked_142","midi_source":""},{"t":14.632,"note":58,"dur":0.045,"vel":0.496,"inst":"xylophone_v0_plucked_129","midi_source":""},{"t":14.632,"note":55,"dur":0.403,"vel":0.496,"inst":"xylophone_v0_plucked_129","midi_source":""},{"t":14.632,"note":70,"dur":0.403,"vel":0.496,"inst":"xylophone_v0_plucked_129","midi_source":""},{"t":14.632,"note":77,"dur":0.134,"vel":0.496,"inst":"banjo_v0_plucked_142","midi_source":""},{"t":14.721,"note":53,"dur":0.02,"vel":0.496,"inst":"banjo_v0_plucked_142","midi_source":""},{"t":14.721,"note":58,"dur":0.02,"vel":0.496,"inst":"xylophone_v0_plucked_129","midi_source":""},{"t":14.766,"note":58,"dur":0.045,"vel":0.496,"inst":"xylophone_v0_plucked_129","midi_source":""},{"t":14.766,"note":67,"dur":0.168,"vel":0.496,"inst":"xylophone_v0_plucked_129","midi_source":""},{"t":14.811,"note":60,"dur":0.045,"vel":0.496,"inst":"pad_string_v0_bass_416","midi_source":""},{"t":14.856,"note":62,"dur":0.045,"vel":0.496,"inst":"banjo_v0_plucked_142","midi_source":""},{"t":14.9,"note":49,"dur":0.134,"vel":0.496,"inst":"xylophone_v0_plucked_129","midi_source":""},{"t":14.9,"note":65,"dur":0.134,"vel":0.496,"inst":"banjo_v0_plucked_142","midi_source":""},{"t":14.9,"note":70,"dur":0.045,"vel":0.496,"inst":"xylophone_v0_plucked_129","midi_source":""},{"t":14.934,"note":79,"dur":0.034,"vel":0.496,"inst":"xylophone_v0_plucked_129","midi_source":""},{"t":14.945,"note":73,"dur":0.045,"vel":0.496,"inst":"xylophone_v0_plucked_129","midi_source":""},{"t":14.967,"note":79,"dur":0.034,"vel":0.496,"inst":"xylophone_v0_plucked_129","midi_source":""},{"t":14.99,"note":77,"dur":0.045,"vel":0.496,"inst":"banjo_v0_plucked_142","midi_source":""},{"t":15.001,"note":82,"dur":0.034,"vel":0.496,"inst":"xylophone_v0_plucked_129","midi_source":""},{"t":15.035,"note":48,"dur":0.045,"vel":0.496,"inst":"pad_string_v0_bass_416","midi_source":""},{"t":15.035,"note":62,"dur":0.045,"vel":0.496,"inst":"banjo_v0_plucked_142","midi_source":""},{"t":15.035,"note":74,"dur":0.045,"vel":0.496,"inst":"banjo_v0_plucked_142","midi_source":""},{"t":15.035,"note":79,"dur":0.179,"vel":0.496,"inst":"xylophone_v0_plucked_129","midi_source":""},{"t":15.079,"note":50,"dur":0.045,"vel":0.496,"inst":"banjo_v0_plucked_142","midi_source":""},{"t":15.124,"note":55,"dur":0.045,"vel":0.496,"inst":"xylophone_v0_plucked_129","midi_source":""},{"t":15.124,"note":55,"dur":0.02,"vel":0.496,"inst":"xylophone_v0_plucked_129","midi_source":""},{"t":15.124,"note":67,"dur":0.02,"vel":0.496,"inst":"xylophone_v0_plucked_129","midi_source":""},{"t":15.169,"note":49,"dur":0.045,"vel":0.496,"inst":"xylophone_v0_plucked_129","midi_source":""},{"t":15.169,"note":65,"dur":0.045,"vel":0.496,"inst":"banjo_v0_plucked_142","midi_source":""},{"t":15.169,"note":67,"dur":0.045,"vel":0.496,"inst":"xylophone_v0_plucked_129","midi_source":""},{"t":15.214,"note":50,"dur":0.045,"vel":0.496,"inst":"banjo_v0_plucked_142","midi_source":""},{"t":15.214,"note":55,"dur":0.045,"vel":0.496,"inst":"xylophone_v0_plucked_129","midi_source":""},{"t":15.214,"note":72,"dur":0.045,"vel":0.496,"inst":"pad_string_v0_bass_416","midi_source":""},{"t":15.214,"note":67,"dur":0.045,"vel":0.496,"inst":"xylophone_v0_plucked_129","midi_source":""},{"t":15.258,"note":53,"dur":0.045,"vel":0.496,"inst":"banjo_v0_plucked_142","midi_source":""},{"t":15.258,"note":67,"dur":0.045,"vel":0.496,"inst":"xylophone_v0_plucked_129","midi_source":""},{"t":15.258,"note":73,"dur":0.045,"vel":0.496,"inst":"xylophone_v0_plucked_129","midi_source":""},{"t":15.258,"note":77,"dur":0.045,"vel":0.496,"inst":"banjo_v0_plucked_142","midi_source":""},{"t":15.303,"note":43,"dur":0.045,"vel":0.496,"inst":"xylophone_v0_plucked_129","midi_source":""},{"t":15.303,"note":55,"dur":0.045,"vel":0.496,"inst":"xylophone_v0_plucked_129","midi_source":""},{"t":15.303,"note":70,"dur":0.045,"vel":0.496,"inst":"xylophone_v0_plucked_129","midi_source":""},{"t":15.303,"note":74,"dur":0.045,"vel":0.496,"inst":"banjo_v0_plucked_142","midi_source":""},{"t":15.348,"note":61,"dur":0.045,"vel":0.496,"inst":"xylophone_v0_plucked_129","midi_source":""},{"t":15.348,"note":77,"dur":0.045,"vel":0.496,"inst":"banjo_v0_plucked_142","midi_source":""},{"t":15.392,"note":43,"dur":0.02,"vel":0.496,"inst":"xylophone_v0_plucked_129","midi_source":""},{"t":15.392,"note":65,"dur":0.045,"vel":0.496,"inst":"banjo_v0_plucked_142","midi_source":""},{"t":15.392,"note":70,"dur":0.02,"vel":0.496,"inst":"xylophone_v0_plucked_129","midi_source":""},{"t":15.392,"note":73,"dur":0.045,"vel":0.496,"inst":"xylophone_v0_plucked_129","midi_source":""},{"t":15.437,"note":46,"dur":0.045,"vel":0.496,"inst":"xylophone_v0_plucked_129","midi_source":""},{"t":15.437,"note":65,"dur":0.045,"vel":0.496,"inst":"banjo_v0_plucked_142","midi_source":""},{"t":15.437,"note":70,"dur":0.045,"vel":0.496,"inst":"xylophone_v0_plucked_129","midi_source":""},{"t":15.437,"note":73,"dur":0.134,"vel":0.496,"inst":"xylophone_v0_plucked_129","midi_source":""},{"t":15.482,"note":43,"dur":0.045,"vel":0.496,"inst":"xylophone_v0_plucked_129","midi_source":""},{"t":15.482,"note":65,"dur":0.045,"vel":0.496,"inst":"banjo_v0_plucked_142","midi_source":""},{"t":15.482,"note":55,"dur":0.045,"vel":0.496,"inst":"xylophone_v0_plucked_129","midi_source":""},{"t":15.527,"note":58,"dur":0.045,"vel":0.496,"inst":"xylophone_v0_plucked_129","midi_source":""},{"t":15.527,"note":65,"dur":0.045,"vel":0.496,"inst":"banjo_v0_plucked_142","midi_source":""},{"t":15.527,"note":55,"dur":0.045,"vel":0.496,"inst":"xylophone_v0_plucked_129","midi_source":""},{"t":15.571,"note":58,"dur":0.268,"vel":0.496,"inst":"xylophone_v0_plucked_129","midi_source":""},{"t":15.571,"note":62,"dur":0.045,"vel":0.496,"inst":"banjo_v0_plucked_142","midi_source":""},{"t":15.571,"note":55,"dur":0.179,"vel":0.496,"inst":"xylophone_v0_plucked_129","midi_source":""},{"t":15.571,"note":70,"dur":0.134,"vel":0.496,"inst":"xylophone_v0_plucked_129","midi_source":""},{"t":15.616,"note":55,"dur":0.045,"vel":0.496,"inst":"xylophone_v0_plucked_129","midi_source":""},{"t":15.661,"note":70,"dur":0.045,"vel":0.496,"inst":"xylophone_v0_plucked_129","midi_source":""},{"t":15.706,"note":70,"dur":0.045,"vel":0.496,"inst":"xylophone_v0_plucked_129","midi_source":""},{"t":15.75,"note":62,"dur":0.045,"vel":0.496,"inst":"banjo_v0_plucked_142","midi_source":""},{"t":15.75,"note":55,"dur":0.045,"vel":0.496,"inst":"xylophone_v0_plucked_129","midi_source":""},{"t":15.795,"note":61,"dur":0.045,"vel":0.496,"inst":"xylophone_v0_plucked_129","midi_source":""},{"t":15.795,"note":65,"dur":0.045,"vel":0.496,"inst":"banjo_v0_plucked_142","midi_source":""},{"t":15.84,"note":58,"dur":0.045,"vel":0.496,"inst":"xylophone_v0_plucked_129","midi_source":""},{"t":15.84,"note":58,"dur":0.134,"vel":0.496,"inst":"xylophone_v0_plucked_129","midi_source":""},{"t":15.84,"note":62,"dur":0.134,"vel":0.496,"inst":"banjo_v0_plucked_142","midi_source":""},{"t":15.885,"note":62,"dur":0.045,"vel":0.496,"inst":"banjo_v0_plucked_142","midi_source":""},{"t":15.929,"note":55,"dur":0.045,"vel":0.496,"inst":"xylophone_v0_plucked_129","midi_source":""},{"t":15.974,"note":55,"dur":0.134,"vel":0.496,"inst":"xylophone_v0_plucked_129","midi_source":""},{"t":15.974,"note":58,"dur":0.045,"vel":0.496,"inst":"xylophone_v0_plucked_129","midi_source":""},{"t":15.974,"note":65,"dur":0.134,"vel":0.496,"inst":"banjo_v0_plucked_142","midi_source":""},{"t":15.974,"note":70,"dur":0.313,"vel":0.496,"inst":"xylophone_v0_plucked_129","midi_source":""},{"t":16.019,"note":62,"dur":0.045,"vel":0.496,"inst":"banjo_v0_plucked_142","midi_source":""},{"t":16.063,"note":67,"dur":0.045,"vel":0.496,"inst":"xylophone_v0_plucked_129","midi_source":""},{"t":16.108,"note":43,"dur":0.134,"vel":0.496,"inst":"xylophone_v0_plucked_129","midi_source":""},{"t":16.108,"note":55,"dur":0.045,"vel":0.496,"inst":"xylophone_v0_plucked_129","midi_source":""},{"t":16.108,"note":70,"dur":0.134,"vel":0.496,"inst":"xylophone_v0_plucked_129","midi_source":""},{"t":16.153,"note":70,"dur":0.045,"vel":0.496,"inst":"xylophone_v0_plucked_129","midi_source":""},{"t":16.198,"note":74,"dur":0.045,"vel":0.496,"inst":"banjo_v0_plucked_142","midi_source":""},{"t":16.242,"note":53,"dur":0.313,"vel":0.496,"inst":"banjo_v0_plucked_142","midi_source":""},{"t":16.242,"note":67,"dur":0.313,"vel":0.496,"inst":"xylophone_v0_plucked_129","midi_source":""},{"t":16.242,"note":77,"dur":0.313,"vel":0.496,"inst":"banjo_v0_plucked_142","midi_source":""},{"t":16.287,"note":65,"dur":0.045,"vel":0.496,"inst":"banjo_v0_plucked_142","midi_source":""},{"t":16.332,"note":55,"dur":0.045,"vel":0.496,"inst":"xylophone_v0_plucked_129","midi_source":""},{"t":16.377,"note":67,"dur":0.045,"vel":0.496,"inst":"xylophone_v0_plucked_129","midi_source":""},{"t":16.421,"note":70,"dur":0.045,"vel":0.496,"inst":"xylophone_v0_plucked_129","midi_source":""},{"t":16.466,"note":77,"dur":0.045,"vel":0.496,"inst":"banjo_v0_plucked_142","midi_source":""},{"t":16.511,"note":79,"dur":0.045,"vel":0.496,"inst":"xylophone_v0_plucked_129","midi_source":""},{"t":16.556,"note":46,"dur":0.045,"vel":0.496,"inst":"xylophone_v0_plucked_129","midi_source":""},{"t":16.556,"note":67,"dur":0.045,"vel":0.496,"inst":"xylophone_v0_plucked_129","midi_source":""},{"t":16.556,"note":70,"dur":0.045,"vel":0.496,"inst":"xylophone_v0_plucked_129","midi_source":""},{"t":16.556,"note":82,"dur":0.045,"vel":0.496,"inst":"xylophone_v0_plucked_129","midi_source":""},{"t":16.6,"note":49,"dur":0.045,"vel":0.496,"inst":"xylophone_v0_plucked_129","midi_source":""},{"t":16.6,"note":55,"dur":0.045,"vel":0.496,"inst":"xylophone_v0_plucked_129","midi_source":""},{"t":16.6,"note":70,"dur":0.045,"vel":0.496,"inst":"xylophone_v0_plucked_129","midi_source":""},{"t":16.6,"note":82,"dur":0.045,"vel":0.496,"inst":"xylophone_v0_plucked_129","midi_source":""},{"t":16.645,"note":50,"dur":0.067,"vel":0.496,"inst":"banjo_v0_plucked_142","midi_source":""},{"t":16.645,"note":65,"dur":0.134,"vel":0.496,"inst":"banjo_v0_plucked_142","midi_source":""},{"t":16.645,"note":67,"dur":0.134,"vel":0.496,"inst":"xylophone_v0_plucked_129","midi_source":""},{"t":16.645,"note":79,"dur":0.134,"vel":0.496,"inst":"xylophone_v0_plucked_129","midi_source":""},{"t":16.712,"note":58,"dur":0.067,"vel":0.496,"inst":"xylophone_v0_plucked_129","midi_source":""},{"t":16.779,"note":49,"dur":0.134,"vel":0.496,"inst":"xylophone_v0_plucked_129","midi_source":""},{"t":16.779,"note":58,"dur":0.045,"vel":0.496,"inst":"xylophone_v0_plucked_129","midi_source":""},{"t":16.779,"note":65,"dur":0.134,"vel":0.496,"inst":"banjo_v0_plucked_142","midi_source":""},{"t":16.779,"note":82,"dur":0.134,"vel":0.496,"inst":"xylophone_v0_plucked_129","midi_source":""},{"t":16.824,"note":61,"dur":0.045,"vel":0.496,"inst":"xylophone_v0_plucked_129","midi_source":""},{"t":16.869,"note":65,"dur":0.045,"vel":0.496,"inst":"banjo_v0_plucked_142","midi_source":""},{"t":16.913,"note":46,"dur":0.134,"vel":0.496,"inst":"xylophone_v0_plucked_129","midi_source":""},{"t":16.913,"note":62,"dur":0.134,"vel":0.496,"inst":"banjo_v0_plucked_142","midi_source":""},{"t":16.913,"note":67,"dur":0.045,"vel":0.496,"inst":"xylophone_v0_plucked_129","midi_source":""},{"t":16.913,"note":82,"dur":0.134,"vel":0.496,"inst":"xylophone_v0_plucked_129","midi_source":""},{"t":16.958,"note":70,"dur":0.045,"vel":0.496,"inst":"xylophone_v0_plucked_129","midi_source":""},{"t":17.003,"note":77,"dur":0.045,"vel":0.496,"inst":"banjo_v0_plucked_142","midi_source":""},{"t":17.048,"note":46,"dur":0.045,"vel":0.496,"inst":"xylophone_v0_plucked_129","midi_source":""},{"t":17.048,"note":61,"dur":0.134,"vel":0.496,"inst":"xylophone_v0_plucked_129","midi_source":""},{"t":17.048,"note":77,"dur":0.067,"vel":0.496,"inst":"banjo_v0_plucked_142","midi_source":""},{"t":17.048,"note":85,"dur":0.313,"vel":0.496,"inst":"xylophone_v0_plucked_129","midi_source":""},{"t":17.092,"note":49,"dur":0.045,"vel":0.496,"inst":"xylophone_v0_plucked_129","midi_source":""},{"t":17.115,"note":82,"dur":0.246,"vel":0.496,"inst":"xylophone_v0_plucked_129","midi_source":""},{"t":17.137,"note":53,"dur":0.045,"vel":0.496,"inst":"banjo_v0_plucked_142","midi_source":""},{"t":17.182,"note":55,"dur":0.045,"vel":0.496,"inst":"xylophone_v0_plucked_129","midi_source":""},{"t":17.182,"note":65,"dur":0.134,"vel":0.496,"inst":"banjo_v0_plucked_142","midi_source":""},{"t":17.227,"note":58,"dur":0.045,"vel":0.496,"inst":"xylophone_v0_plucked_129","midi_source":""},{"t":17.271,"note":61,"dur":0.045,"vel":0.496,"inst":"xylophone_v0_plucked_129","midi_source":""},{"t":17.316,"note":65,"dur":0.045,"vel":0.496,"inst":"banjo_v0_plucked_142","midi_source":""},{"t":17.316,"note":73,"dur":0.045,"vel":0.496,"inst":"xylophone_v0_plucked_129","midi_source":""},{"t":17.361,"note":67,"dur":0.045,"vel":0.496,"inst":"xylophone_v0_plucked_129","midi_source":""},{"t":17.361,"note":70,"dur":0.045,"vel":0.496,"inst":"xylophone_v0_plucked_129","midi_source":""},{"t":17.361,"note":82,"dur":0.045,"vel":0.496,"inst":"xylophone_v0_plucked_129","midi_source":""},{"t":17.361,"note":86,"dur":0.045,"vel":0.496,"inst":"banjo_v0_plucked_142","midi_source":""},{"t":17.405,"note":70,"dur":0.045,"vel":0.496,"inst":"xylophone_v0_plucked_129","midi_source":""},{"t":17.405,"note":73,"dur":0.045,"vel":0.496,"inst":"xylophone_v0_plucked_129","midi_source":""},{"t":17.405,"note":82,"dur":0.045,"vel":0.496,"inst":"xylophone_v0_plucked_129","midi_source":""},{"t":17.405,"note":85,"dur":0.045,"vel":0.496,"inst":"xylophone_v0_plucked_129","midi_source":""},{"t":17.45,"note":49,"dur":0.045,"vel":0.496,"inst":"xylophone_v0_plucked_129","midi_source":""},{"t":17.45,"note":73,"dur":0.067,"vel":0.496,"inst":"xylophone_v0_plucked_129","midi_source":""},{"t":17.45,"note":82,"dur":0.067,"vel":0.496,"inst":"xylophone_v0_plucked_129","midi_source":""},{"t":17.45,"note":85,"dur":0.067,"vel":0.496,"inst":"xylophone_v0_plucked_129","midi_source":""},{"t":17.495,"note":53,"dur":0.045,"vel":0.496,"inst":"banjo_v0_plucked_142","midi_source":""},{"t":17.517,"note":65,"dur":0.246,"vel":0.496,"inst":"banjo_v0_plucked_142","midi_source":""},{"t":17.517,"note":79,"dur":0.246,"vel":0.496,"inst":"xylophone_v0_plucked_129","midi_source":""},{"t":17.517,"note":82,"dur":0.246,"vel":0.496,"inst":"xylophone_v0_plucked_129","midi_source":""},{"t":17.54,"note":55,"dur":0.045,"vel":0.496,"inst":"xylophone_v0_plucked_129","midi_source":""},{"t":17.584,"note":58,"dur":0.045,"vel":0.496,"inst":"xylophone_v0_plucked_129","midi_source":""},{"t":17.629,"note":61,"dur":0.045,"vel":0.496,"inst":"xylophone_v0_plucked_129","midi_source":""},{"t":17.674,"note":65,"dur":0.045,"vel":0.496,"inst":"banjo_v0_plucked_142","midi_source":""},{"t":17.719,"note":67,"dur":0.045,"vel":0.496,"inst":"xylophone_v0_plucked_129","midi_source":""},{"t":17.763,"note":49,"dur":0.045,"vel":0.496,"inst":"xylophone_v0_plucked_129","midi_source":""},{"t":17.763,"note":82,"dur":0.045,"vel":0.496,"inst":"xylophone_v0_plucked_129","midi_source":""},{"t":17.763,"note":85,"dur":0.045,"vel":0.496,"inst":"xylophone_v0_plucked_129","midi_source":""},{"t":17.808,"note":53,"dur":0.045,"vel":0.496,"inst":"banjo_v0_plucked_142","midi_source":""},{"t":17.808,"note":73,"dur":0.02,"vel":0.496,"inst":"xylophone_v0_plucked_129","midi_source":""},{"t":17.808,"note":79,"dur":0.045,"vel":0.496,"inst":"xylophone_v0_plucked_129","midi_source":""},{"t":17.808,"note":82,"dur":0.045,"vel":0.496,"inst":"xylophone_v0_plucked_129","midi_source":""},{"t":17.853,"note":43,"dur":0.045,"vel":0.496,"inst":"xylophone_v0_plucked_129","midi_source":""},{"t":17.853,"note":73,"dur":0.067,"vel":0.496,"inst":"xylophone_v0_plucked_129","midi_source":""},{"t":17.853,"note":79,"dur":0.067,"vel":0.496,"inst":"xylophone_v0_plucked_129","midi_source":""},{"t":17.853,"note":82,"dur":0.067,"vel":0.496,"inst":"xylophone_v0_plucked_129","midi_source":""},{"t":17.898,"note":58,"dur":0.045,"vel":0.496,"inst":"xylophone_v0_plucked_129","midi_source":""},{"t":17.92,"note":61,"dur":0.246,"vel":0.496,"inst":"xylophone_v0_plucked_129","midi_source":""},{"t":17.92,"note":67,"dur":0.201,"vel":0.496,"inst":"xylophone_v0_plucked_129","midi_source":""},{"t":17.92,"note":82,"dur":0.246,"vel":0.496,"inst":"xylophone_v0_plucked_129","midi_source":""},{"t":17.942,"note":61,"dur":0.045,"vel":0.496,"inst":"xylophone_v0_plucked_129","midi_source":""},{"t":17.987,"note":65,"dur":0.045,"vel":0.496,"inst":"banjo_v0_plucked_142","midi_source":""},{"t":18.032,"note":55,"dur":0.045,"vel":0.496,"inst":"xylophone_v0_plucked_129","midi_source":""},{"t":18.076,"note":70,"dur":0.045,"vel":0.496,"inst":"xylophone_v0_plucked_129","midi_source":""},{"t":18.121,"note":73,"dur":0.045,"vel":0.496,"inst":"xylophone_v0_plucked_129","midi_source":""},{"t":18.121,"note":67,"dur":0.045,"vel":0.496,"inst":"xylophone_v0_plucked_129","midi_source":""},{"t":18.166,"note":43,"dur":0.045,"vel":0.496,"inst":"xylophone_v0_plucked_129","midi_source":""},{"t":18.166,"note":70,"dur":0.045,"vel":0.496,"inst":"xylophone_v0_plucked_129","midi_source":""},{"t":18.166,"note":85,"dur":0.045,"vel":0.496,"inst":"xylophone_v0_plucked_129","midi_source":""},{"t":18.211,"note":55,"dur":0.045,"vel":0.496,"inst":"xylophone_v0_plucked_129","midi_source":""},{"t":18.211,"note":65,"dur":0.045,"vel":0.496,"inst":"banjo_v0_plucked_142","midi_source":""},{"t":18.211,"note":73,"dur":0.02,"vel":0.496,"inst":"xylophone_v0_plucked_129","midi_source":""},{"t":18.211,"note":82,"dur":0.045,"vel":0.496,"inst":"xylophone_v0_plucked_129","midi_source":""},{"t":18.255,"note":46,"dur":0.045,"vel":0.496,"inst":"xylophone_v0_plucked_129","midi_source":""},{"t":18.255,"note":55,"dur":0.313,"vel":0.496,"inst":"xylophone_v0_plucked_129","midi_source":""},{"t":18.255,"note":73,"dur":0.313,"vel":0.496,"inst":"xylophone_v0_plucked_129","midi_source":""},{"t":18.255,"note":82,"dur":0.067,"vel":0.496,"inst":"xylophone_v0_plucked_129","midi_source":""},{"t":18.3,"note":49,"dur":0.045,"vel":0.496,"inst":"xylophone_v0_plucked_129","midi_source":""},{"t":18.323,"note":82,"dur":0.067,"vel":0.496,"inst":"xylophone_v0_plucked_129","midi_source":""},{"t":18.345,"note":43,"dur":0.045,"vel":0.496,"inst":"xylophone_v0_plucked_129","midi_source":""},{"t":18.39,"note":58,"dur":0.045,"vel":0.496,"inst":"xylophone_v0_plucked_129","midi_source":""},{"t":18.39,"note":79,"dur":0.067,"vel":0.496,"inst":"xylophone_v0_plucked_129","midi_source":""},{"t":18.434,"note":61,"dur":0.045,"vel":0.496,"inst":"xylophone_v0_plucked_129","midi_source":""},{"t":18.457,"note":67,"dur":0.067,"vel":0.496,"inst":"xylophone_v0_plucked_129","midi_source":""},{"t":18.479,"note":55,"dur":0.045,"vel":0.496,"inst":"xylophone_v0_plucked_129","midi_source":""},{"t":18.524,"note":70,"dur":0.045,"vel":0.496,"inst":"xylophone_v0_plucked_129","midi_source":""},{"t":18.524,"note":86,"dur":0.045,"vel":0.496,"inst":"banjo_v0_plucked_142","midi_source":""},{"t":18.569,"note":58,"dur":0.045,"vel":0.496,"inst":"xylophone_v0_plucked_129","midi_source":""},{"t":18.569,"note":55,"dur":0.045,"vel":0.496,"inst":"xylophone_v0_plucked_129","midi_source":""},{"t":18.569,"note":73,"dur":0.045,"vel":0.496,"inst":"xylophone_v0_plucked_129","midi_source":""},{"t":18.569,"note":85,"dur":0.045,"vel":0.496,"inst":"xylophone_v0_plucked_129","midi_source":""},{"t":18.613,"note":46,"dur":0.045,"vel":0.496,"inst":"xylophone_v0_plucked_129","midi_source":""},{"t":18.613,"note":55,"dur":0.045,"vel":0.496,"inst":"xylophone_v0_plucked_129","midi_source":""},{"t":18.613,"note":70,"dur":0.045,"vel":0.496,"inst":"xylophone_v0_plucked_129","midi_source":""},{"t":18.613,"note":74,"dur":0.045,"vel":0.496,"inst":"banjo_v0_plucked_142","midi_source":""},{"t":18.658,"note":43,"dur":0.045,"vel":0.496,"inst":"xylophone_v0_plucked_129","midi_source":""},{"t":18.658,"note":65,"dur":0.045,"vel":0.496,"inst":"banjo_v0_plucked_142","midi_source":""},{"t":18.658,"note":70,"dur":0.045,"vel":0.496,"inst":"xylophone_v0_plucked_129","midi_source":""},{"t":18.658,"note":67,"dur":0.034,"vel":0.496,"inst":"xylophone_v0_plucked_129","midi_source":""},{"t":18.692,"note":77,"dur":0.034,"vel":0.496,"inst":"banjo_v0_plucked_142","midi_source":""},{"t":18.703,"note":49,"dur":0.045,"vel":0.496,"inst":"xylophone_v0_plucked_129","midi_source":""},{"t":18.703,"note":65,"dur":0.045,"vel":0.496,"inst":"banjo_v0_plucked_142","midi_source":""},{"t":18.703,"note":70,"dur":0.045,"vel":0.496,"inst":"xylophone_v0_plucked_129","midi_source":""},{"t":18.725,"note":82,"dur":0.034,"vel":0.496,"inst":"xylophone_v0_plucked_129","midi_source":""},{"t":18.747,"note":46,"dur":0.045,"vel":0.496,"inst":"xylophone_v0_plucked_129","midi_source":""},{"t":18.747,"note":73,"dur":0.045,"vel":0.496,"inst":"xylophone_v0_plucked_129","midi_source":""},{"t":18.747,"note":77,"dur":0.045,"vel":0.496,"inst":"banjo_v0_plucked_142","midi_source":""},{"t":18.759,"note":82,"dur":0.034,"vel":0.496,"inst":"xylophone_v0_plucked_129","midi_source":""},{"t":18.792,"note":46,"dur":0.045,"vel":0.992,"inst":"xylophone_v0_plucked_129","midi_source":""},{"t":18.792,"note":70,"dur":0.045,"vel":0.992,"inst":"xylophone_v0_plucked_129","midi_source":""},{"t":18.792,"note":77,"dur":0.045,"vel":0.992,"inst":"banjo_v0_plucked_142","midi_source":""},{"t":18.792,"note":79,"dur":0.134,"vel":0.992,"inst":"xylophone_v0_plucked_129","midi_source":""},{"t":18.837,"note":58,"dur":0.045,"vel":0.992,"inst":"xylophone_v0_plucked_129","midi_source":""},{"t":18.837,"note":67,"dur":0.045,"vel":0.992,"inst":"xylophone_v0_plucked_129","midi_source":""},{"t":18.837,"note":70,"dur":0.045,"vel":0.992,"inst":"xylophone_v0_plucked_129","midi_source":""},{"t":18.882,"note":46,"dur":0.045,"vel":0.992,"inst":"xylophone_v0_plucked_129","midi_source":""},{"t":18.882,"note":65,"dur":0.045,"vel":0.992,"inst":"banjo_v0_plucked_142","midi_source":""},{"t":18.882,"note":67,"dur":0.045,"vel":0.992,"inst":"xylophone_v0_plucked_129","midi_source":""},{"t":18.926,"note":46,"dur":0.045,"vel":0.992,"inst":"xylophone_v0_plucked_129","midi_source":""},{"t":18.926,"note":62,"dur":0.045,"vel":0.992,"inst":"banjo_v0_plucked_142","midi_source":""},{"t":18.926,"note":70,"dur":0.045,"vel":0.992,"inst":"xylophone_v0_plucked_129","midi_source":""},{"t":18.926,"note":67,"dur":0.045,"vel":0.992,"inst":"xylophone_v0_plucked_129","midi_source":""},{"t":18.971,"note":85,"dur":0.045,"vel":0.992,"inst":"xylophone_v0_plucked_129","midi_source":""},{"t":19.016,"note":46,"dur":0.02,"vel":0.992,"inst":"xylophone_v0_plucked_129","midi_source":""},{"t":19.016,"note":62,"dur":0.02,"vel":0.992,"inst":"banjo_v0_plucked_142","midi_source":""},{"t":19.016,"note":70,"dur":0.02,"vel":0.992,"inst":"xylophone_v0_plucked_129","midi_source":""},{"t":19.016,"note":82,"dur":0.045,"vel":0.992,"inst":"xylophone_v0_plucked_129","midi_source":""},{"t":19.061,"note":53,"dur":0.045,"vel":0.496,"inst":"banjo_v0_plucked_142","midi_source":""},{"t":19.061,"note":65,"dur":0.067,"vel":0.496,"inst":"banjo_v0_plucked_142","midi_source":""},{"t":19.061,"note":67,"dur":0.134,"vel":0.496,"inst":"xylophone_v0_plucked_129","midi_source":""},{"t":19.061,"note":77,"dur":0.134,"vel":0.496,"inst":"banjo_v0_plucked_142","midi_source":""},{"t":19.106,"note":43,"dur":0.045,"vel":0.496,"inst":"xylophone_v0_plucked_129","midi_source":""},{"t":19.15,"note":55,"dur":0.045,"vel":0.496,"inst":"xylophone_v0_plucked_129","midi_source":""},{"t":19.195,"note":53,"dur":0.268,"vel":0.496,"inst":"banjo_v0_plucked_142","midi_source":""},{"t":19.195,"note":58,"dur":0.268,"vel":0.496,"inst":"xylophone_v0_plucked_129","midi_source":""},{"t":19.195,"note":61,"dur":0.045,"vel":0.496,"inst":"xylophone_v0_plucked_129","midi_source":""},{"t":19.195,"note":73,"dur":0.201,"vel":0.496,"inst":"xylophone_v0_plucked_129","midi_source":""},{"t":19.24,"note":62,"dur":0.045,"vel":0.496,"inst":"banjo_v0_plucked_142","midi_source":""},{"t":19.284,"note":65,"dur":0.045,"vel":0.496,"inst":"banjo_v0_plucked_142","midi_source":""},{"t":19.329,"note":55,"dur":0.045,"vel":0.496,"inst":"xylophone_v0_plucked_129","midi_source":""},{"t":19.329,"note":55,"dur":0.134,"vel":0.496,"inst":"xylophone_v0_plucked_129","midi_source":""},{"t":19.374,"note":67,"dur":0.045,"vel":0.496,"inst":"xylophone_v0_plucked_129","midi_source":""},{"t":19.396,"note":67,"dur":0.067,"vel":0.496,"inst":"xylophone_v0_plucked_129","midi_source":""},{"t":19.418,"note":70,"dur":0.045,"vel":0.496,"inst":"xylophone_v0_plucked_129","midi_source":""},{"t":19.463,"note":53,"dur":0.045,"vel":0.496,"inst":"banjo_v0_plucked_142","midi_source":""},{"t":19.463,"note":58,"dur":0.045,"vel":0.496,"inst":"xylophone_v0_plucked_129","midi_source":""},{"t":19.463,"note":55,"dur":0.403,"vel":0.496,"inst":"xylophone_v0_plucked_129","midi_source":""},{"t":19.463,"note":70,"dur":0.403,"vel":0.496,"inst":"xylophone_v0_plucked_129","midi_source":""},{"t":19.463,"note":77,"dur":0.134,"vel":0.496,"inst":"banjo_v0_plucked_142","midi_source":""},{"t":19.553,"note":53,"dur":0.02,"vel":0.496,"inst":"banjo_v0_plucked_142","midi_source":""},{"t":19.553,"note":58,"dur":0.02,"vel":0.496,"inst":"xylophone_v0_plucked_129","midi_source":""},{"t":19.598,"note":58,"dur":0.045,"vel":0.496,"inst":"xylophone_v0_plucked_129","midi_source":""},{"t":19.598,"note":67,"dur":0.168,"vel":0.496,"inst":"xylophone_v0_plucked_129","midi_source":""},{"t":19.642,"note":60,"dur":0.045,"vel":0.496,"inst":"pad_string_v0_bass_416","midi_source":""},{"t":19.687,"note":62,"dur":0.045,"vel":0.496,"inst":"banjo_v0_plucked_142","midi_source":""},{"t":19.732,"note":49,"dur":0.134,"vel":0.496,"inst":"xylophone_v0_plucked_129","midi_source":""},{"t":19.732,"note":65,"dur":0.134,"vel":0.496,"inst":"banjo_v0_plucked_142","midi_source":""},{"t":19.732,"note":70,"dur":0.045,"vel":0.496,"inst":"xylophone_v0_plucked_129","midi_source":""},{"t":19.765,"note":79,"dur":0.034,"vel":0.496,"inst":"xylophone_v0_plucked_129","midi_source":""},{"t":19.777,"note":73,"dur":0.045,"vel":0.496,"inst":"xylophone_v0_plucked_129","midi_source":""},{"t":19.799,"note":79,"dur":0.034,"vel":0.496,"inst":"xylophone_v0_plucked_129","midi_source":""},{"t":19.821,"note":77,"dur":0.045,"vel":0.496,"inst":"banjo_v0_plucked_142","midi_source":""},{"t":19.832,"note":82,"dur":0.034,"vel":0.496,"inst":"xylophone_v0_plucked_129","midi_source":""},{"t":19.866,"note":48,"dur":0.045,"vel":0.496,"inst":"pad_string_v0_bass_416","midi_source":""},{"t":19.866,"note":62,"dur":0.045,"vel":0.496,"inst":"banjo_v0_plucked_142","midi_source":""},{"t":19.866,"note":74,"dur":0.045,"vel":0.496,"inst":"banjo_v0_plucked_142","midi_source":""},{"t":19.866,"note":79,"dur":0.179,"vel":0.496,"inst":"xylophone_v0_plucked_129","midi_source":""},{"t":19.911,"note":50,"dur":0.045,"vel":0.496,"inst":"banjo_v0_plucked_142","midi_source":""},{"t":19.955,"note":55,"dur":0.045,"vel":0.496,"inst":"xylophone_v0_plucked_129","midi_source":""},{"t":19.955,"note":55,"dur":0.02,"vel":0.496,"inst":"xylophone_v0_plucked_129","midi_source":""},{"t":19.955,"note":67,"dur":0.02,"vel":0.496,"inst":"xylophone_v0_plucked_129","midi_source":""},{"t":20.0,"note":49,"dur":0.045,"vel":0.496,"inst":"xylophone_v0_plucked_129","midi_source":""},{"t":20.0,"note":65,"dur":0.045,"vel":0.496,"inst":"banjo_v0_plucked_142","midi_source":""},{"t":20.0,"note":67,"dur":0.045,"vel":0.496,"inst":"xylophone_v0_plucked_129","midi_source":""},{"t":20.045,"note":50,"dur":0.045,"vel":0.496,"inst":"banjo_v0_plucked_142","midi_source":""},{"t":20.045,"note":55,"dur":0.045,"vel":0.496,"inst":"xylophone_v0_plucked_129","midi_source":""},{"t":20.045,"note":72,"dur":0.045,"vel":0.496,"inst":"pad_string_v0_bass_416","midi_source":""},{"t":20.045,"note":67,"dur":0.045,"vel":0.496,"inst":"xylophone_v0_plucked_129","midi_source":""},{"t":20.089,"note":53,"dur":0.045,"vel":0.496,"inst":"banjo_v0_plucked_142","midi_source":""},{"t":20.089,"note":67,"dur":0.045,"vel":0.496,"inst":"xylophone_v0_plucked_129","midi_source":""},{"t":20.089,"note":73,"dur":0.045,"vel":0.496,"inst":"xylophone_v0_plucked_129","midi_source":""},{"t":20.089,"note":77,"dur":0.045,"vel":0.496,"inst":"banjo_v0_plucked_142","midi_source":""},{"t":20.134,"note":43,"dur":0.045,"vel":0.496,"inst":"xylophone_v0_plucked_129","midi_source":""},{"t":20.134,"note":55,"dur":0.045,"vel":0.496,"inst":"xylophone_v0_plucked_129","midi_source":""},{"t":20.134,"note":70,"dur":0.045,"vel":0.496,"inst":"xylophone_v0_plucked_129","midi_source":""},{"t":20.134,"note":74,"dur":0.045,"vel":0.496,"inst":"banjo_v0_plucked_142","midi_source":""},{"t":20.179,"note":61,"dur":0.045,"vel":0.496,"inst":"xylophone_v0_plucked_129","midi_source":""},{"t":20.179,"note":77,"dur":0.045,"vel":0.496,"inst":"banjo_v0_plucked_142","midi_source":""},{"t":20.224,"note":43,"dur":0.02,"vel":0.496,"inst":"xylophone_v0_plucked_129","midi_source":""},{"t":20.224,"note":65,"dur":0.045,"vel":0.496,"inst":"banjo_v0_plucked_142","midi_source":""},{"t":20.224,"note":70,"dur":0.02,"vel":0.496,"inst":"xylophone_v0_plucked_129","midi_source":""},{"t":20.224,"note":73,"dur":0.045,"vel":0.496,"inst":"xylophone_v0_plucked_129","midi_source":""},{"t":20.269,"note":46,"dur":0.045,"vel":0.496,"inst":"xylophone_v0_plucked_129","midi_source":""},{"t":20.269,"note":65,"dur":0.045,"vel":0.496,"inst":"banjo_v0_plucked_142","midi_source":""},{"t":20.269,"note":70,"dur":0.045,"vel":0.496,"inst":"xylophone_v0_plucked_129","midi_source":""},{"t":20.269,"note":73,"dur":0.134,"vel":0.496,"inst":"xylophone_v0_plucked_129","midi_source":""},{"t":20.313,"note":43,"dur":0.045,"vel":0.496,"inst":"xylophone_v0_plucked_129","midi_source":""},{"t":20.313,"note":65,"dur":0.045,"vel":0.496,"inst":"banjo_v0_plucked_142","midi_source":""},{"t":20.313,"note":55,"dur":0.045,"vel":0.496,"inst":"xylophone_v0_plucked_129","midi_source":""},{"t":20.358,"note":58,"dur":0.045,"vel":0.496,"inst":"xylophone_v0_plucked_129","midi_source":""},{"t":20.358,"note":65,"dur":0.045,"vel":0.496,"inst":"banjo_v0_plucked_142","midi_source":""},{"t":20.358,"note":55,"dur":0.045,"vel":0.496,"inst":"xylophone_v0_plucked_129","midi_source":""},{"t":20.403,"note":58,"dur":0.268,"vel":0.496,"inst":"xylophone_v0_plucked_129","midi_source":""},{"t":20.403,"note":62,"dur":0.045,"vel":0.496,"inst":"banjo_v0_plucked_142","midi_source":""},{"t":20.403,"note":55,"dur":0.179,"vel":0.496,"inst":"xylophone_v0_plucked_129","midi_source":""},{"t":20.403,"note":70,"dur":0.134,"vel":0.496,"inst":"xylophone_v0_plucked_129","midi_source":""},{"t":20.448,"note":55,"dur":0.045,"vel":0.496,"inst":"xylophone_v0_plucked_129","midi_source":""},{"t":20.492,"note":70,"dur":0.045,"vel":0.496,"inst":"xylophone_v0_plucked_129","midi_source":""},{"t":20.537,"note":70,"dur":0.045,"vel":0.496,"inst":"xylophone_v0_plucked_129","midi_source":""},{"t":20.582,"note":62,"dur":0.045,"vel":0.496,"inst":"banjo_v0_plucked_142","midi_source":""},{"t":20.582,"note":55,"dur":0.045,"vel":0.496,"inst":"xylophone_v0_plucked_129","midi_source":""},{"t":20.626,"note":61,"dur":0.045,"vel":0.496,"inst":"xylophone_v0_plucked_129","midi_source":""},{"t":20.626,"note":65,"dur":0.045,"vel":0.496,"inst":"banjo_v0_plucked_142","midi_source":""},{"t":20.671,"note":58,"dur":0.045,"vel":0.496,"inst":"xylophone_v0_plucked_129","midi_source":""},{"t":20.671,"note":58,"dur":0.134,"vel":0.496,"inst":"xylophone_v0_plucked_129","midi_source":""},{"t":20.671,"note":62,"dur":0.134,"vel":0.496,"inst":"banjo_v0_plucked_142","midi_source":""},{"t":20.716,"note":62,"dur":0.045,"vel":0.496,"inst":"banjo_v0_plucked_142","midi_source":""},{"t":20.761,"note":55,"dur":0.045,"vel":0.496,"inst":"xylophone_v0_plucked_129","midi_source":""},{"t":20.805,"note":55,"dur":0.134,"vel":0.496,"inst":"xylophone_v0_plucked_129","midi_source":""},{"t":20.805,"note":58,"dur":0.045,"vel":0.496,"inst":"xylophone_v0_plucked_129","midi_source":""},{"t":20.805,"note":65,"dur":0.134,"vel":0.496,"inst":"banjo_v0_plucked_142","midi_source":""},{"t":20.805,"note":70,"dur":0.313,"vel":0.496,"inst":"xylophone_v0_plucked_129","midi_source":""},{"t":20.85,"note":62,"dur":0.045,"vel":0.496,"inst":"banjo_v0_plucked_142","midi_source":""},{"t":20.895,"note":67,"dur":0.045,"vel":0.496,"inst":"xylophone_v0_plucked_129","midi_source":""},{"t":20.94,"note":43,"dur":0.134,"vel":0.496,"inst":"xylophone_v0_plucked_129","midi_source":""},{"t":20.94,"note":55,"dur":0.045,"vel":0.496,"inst":"xylophone_v0_plucked_129","midi_source":""},{"t":20.94,"note":70,"dur":0.134,"vel":0.496,"inst":"xylophone_v0_plucked_129","midi_source":""},{"t":20.984,"note":70,"dur":0.045,"vel":0.496,"inst":"xylophone_v0_plucked_129","midi_source":""},{"t":21.029,"note":74,"dur":0.045,"vel":0.496,"inst":"banjo_v0_plucked_142","midi_source":""},{"t":21.074,"note":53,"dur":0.313,"vel":0.496,"inst":"banjo_v0_plucked_142","midi_source":""},{"t":21.074,"note":67,"dur":0.313,"vel":0.496,"inst":"xylophone_v0_plucked_129","midi_source":""},{"t":21.074,"note":77,"dur":0.313,"vel":0.496,"inst":"banjo_v0_plucked_142","midi_source":""},{"t":21.119,"note":65,"dur":0.045,"vel":0.496,"inst":"banjo_v0_plucked_142","midi_source":""},{"t":21.163,"note":55,"dur":0.045,"vel":0.496,"inst":"xylophone_v0_plucked_129","midi_source":""},{"t":21.208,"note":67,"dur":0.045,"vel":0.496,"inst":"xylophone_v0_plucked_129","midi_source":""},{"t":21.253,"note":70,"dur":0.045,"vel":0.496,"inst":"xylophone_v0_plucked_129","midi_source":""},{"t":21.297,"note":77,"dur":0.045,"vel":0.496,"inst":"banjo_v0_plucked_142","midi_source":""},{"t":21.342,"note":79,"dur":0.045,"vel":0.496,"inst":"xylophone_v0_plucked_129","midi_source":""},{"t":21.387,"note":46,"dur":0.045,"vel":0.496,"inst":"xylophone_v0_plucked_129","midi_source":""},{"t":21.387,"note":67,"dur":0.045,"vel":0.496,"inst":"xylophone_v0_plucked_129","midi_source":""},{"t":21.387,"note":70,"dur":0.045,"vel":0.496,"inst":"xylophone_v0_plucked_129","midi_source":""},{"t":21.387,"note":82,"dur":0.045,"vel":0.496,"inst":"xylophone_v0_plucked_129","midi_source":""},{"t":21.432,"note":49,"dur":0.045,"vel":0.496,"inst":"xylophone_v0_plucked_129","midi_source":""},{"t":21.432,"note":55,"dur":0.045,"vel":0.496,"inst":"xylophone_v0_plucked_129","midi_source":""},{"t":21.432,"note":70,"dur":0.045,"vel":0.496,"inst":"xylophone_v0_plucked_129","midi_source":""},{"t":21.432,"note":82,"dur":0.045,"vel":0.496,"inst":"xylophone_v0_plucked_129","midi_source":""},{"t":21.476,"note":50,"dur":0.067,"vel":0.496,"inst":"banjo_v0_plucked_142","midi_source":""},{"t":21.476,"note":65,"dur":0.134,"vel":0.496,"inst":"banjo_v0_plucked_142","midi_source":""},{"t":21.476,"note":67,"dur":0.134,"vel":0.496,"inst":"xylophone_v0_plucked_129","midi_source":""},{"t":21.476,"note":79,"dur":0.134,"vel":0.496,"inst":"xylophone_v0_plucked_129","midi_source":""},{"t":21.543,"note":58,"dur":0.067,"vel":0.496,"inst":"xylophone_v0_plucked_129","midi_source":""},{"t":21.611,"note":49,"dur":0.134,"vel":0.496,"inst":"xylophone_v0_plucked_129","midi_source":""},{"t":21.611,"note":58,"dur":0.045,"vel":0.496,"inst":"xylophone_v0_plucked_129","midi_source":""},{"t":21.611,"note":65,"dur":0.134,"vel":0.496,"inst":"banjo_v0_plucked_142","midi_source":""},{"t":21.611,"note":82,"dur":0.134,"vel":0.496,"inst":"xylophone_v0_plucked_129","midi_source":""},{"t":21.655,"note":61,"dur":0.045,"vel":0.496,"inst":"xylophone_v0_plucked_129","midi_source":""},{"t":21.7,"note":65,"dur":0.045,"vel":0.496,"inst":"banjo_v0_plucked_142","midi_source":""},{"t":21.745,"note":46,"dur":0.134,"vel":0.496,"inst":"xylophone_v0_plucked_129","midi_source":""},{"t":21.745,"note":62,"dur":0.134,"vel":0.496,"inst":"banjo_v0_plucked_142","midi_source":""},{"t":21.745,"note":67,"dur":0.045,"vel":0.496,"inst":"xylophone_v0_plucked_129","midi_source":""},{"t":21.745,"note":82,"dur":0.134,"vel":0.496,"inst":"xylophone_v0_plucked_129","midi_source":""},{"t":21.79,"note":70,"dur":0.045,"vel":0.496,"inst":"xylophone_v0_plucked_129","midi_source":""},{"t":21.834,"note":77,"dur":0.045,"vel":0.496,"inst":"banjo_v0_plucked_142","midi_source":""},{"t":21.879,"note":46,"dur":0.045,"vel":0.496,"inst":"xylophone_v0_plucked_129","midi_source":""},{"t":21.879,"note":61,"dur":0.134,"vel":0.496,"inst":"xylophone_v0_plucked_129","midi_source":""},{"t":21.879,"note":77,"dur":0.067,"vel":0.496,"inst":"banjo_v0_plucked_142","midi_source":""},{"t":21.879,"note":85,"dur":0.313,"vel":0.496,"inst":"xylophone_v0_plucked_129","midi_source":""},{"t":21.924,"note":49,"dur":0.045,"vel":0.496,"inst":"xylophone_v0_plucked_129","midi_source":""},{"t":21.946,"note":82,"dur":0.246,"vel":0.496,"inst":"xylophone_v0_plucked_129","midi_source":""},{"t":21.968,"note":53,"dur":0.045,"vel":0.496,"inst":"banjo_v0_plucked_142","midi_source":""},{"t":22.013,"note":55,"dur":0.045,"vel":0.496,"inst":"xylophone_v0_plucked_129","midi_source":""},{"t":22.013,"note":65,"dur":0.134,"vel":0.496,"inst":"banjo_v0_plucked_142","midi_source":""},{"t":22.058,"note":58,"dur":0.045,"vel":0.496,"inst":"xylophone_v0_plucked_129","midi_source":""},{"t":22.103,"note":61,"dur":0.045,"vel":0.496,"inst":"xylophone_v0_plucked_129","midi_source":""},{"t":22.147,"note":65,"dur":0.045,"vel":0.496,"inst":"banjo_v0_plucked_142","midi_source":""},{"t":22.147,"note":73,"dur":0.045,"vel":0.496,"inst":"xylophone_v0_plucked_129","midi_source":""},{"t":22.192,"note":67,"dur":0.045,"vel":0.496,"inst":"xylophone_v0_plucked_129","midi_source":""},{"t":22.192,"note":70,"dur":0.045,"vel":0.496,"inst":"xylophone_v0_plucked_129","midi_source":""},{"t":22.192,"note":82,"dur":0.045,"vel":0.496,"inst":"xylophone_v0_plucked_129","midi_source":""},{"t":22.192,"note":86,"dur":0.045,"vel":0.496,"inst":"banjo_v0_plucked_142","midi_source":""},{"t":22.237,"note":70,"dur":0.045,"vel":0.496,"inst":"xylophone_v0_plucked_129","midi_source":""},{"t":22.237,"note":73,"dur":0.045,"vel":0.496,"inst":"xylophone_v0_plucked_129","midi_source":""},{"t":22.237,"note":82,"dur":0.045,"vel":0.496,"inst":"xylophone_v0_plucked_129","midi_source":""},{"t":22.237,"note":85,"dur":0.045,"vel":0.496,"inst":"xylophone_v0_plucked_129","midi_source":""},{"t":22.282,"note":49,"dur":0.045,"vel":0.496,"inst":"xylophone_v0_plucked_129","midi_source":""},{"t":22.282,"note":73,"dur":0.067,"vel":0.496,"inst":"xylophone_v0_plucked_129","midi_source":""},{"t":22.282,"note":82,"dur":0.067,"vel":0.496,"inst":"xylophone_v0_plucked_129","midi_source":""},{"t":22.282,"note":85,"dur":0.067,"vel":0.496,"inst":"xylophone_v0_plucked_129","midi_source":""},{"t":22.326,"note":53,"dur":0.045,"vel":0.496,"inst":"banjo_v0_plucked_142","midi_source":""},{"t":22.349,"note":65,"dur":0.246,"vel":0.496,"inst":"banjo_v0_plucked_142","midi_source":""},{"t":22.349,"note":79,"dur":0.246,"vel":0.496,"inst":"xylophone_v0_plucked_129","midi_source":""},{"t":22.349,"note":82,"dur":0.246,"vel":0.496,"inst":"xylophone_v0_plucked_129","midi_source":""},{"t":22.371,"note":55,"dur":0.045,"vel":0.496,"inst":"xylophone_v0_plucked_129","midi_source":""},{"t":22.416,"note":58,"dur":0.045,"vel":0.496,"inst":"xylophone_v0_plucked_129","midi_source":""},{"t":22.461,"note":61,"dur":0.045,"vel":0.496,"inst":"xylophone_v0_plucked_129","midi_source":""},{"t":22.505,"note":65,"dur":0.045,"vel":0.496,"inst":"banjo_v0_plucked_142","midi_source":""},{"t":22.55,"note":67,"dur":0.045,"vel":0.496,"inst":"xylophone_v0_plucked_129","midi_source":""},{"t":22.595,"note":49,"dur":0.045,"vel":0.496,"inst":"xylophone_v0_plucked_129","midi_source":""},{"t":22.595,"note":82,"dur":0.045,"vel":0.496,"inst":"xylophone_v0_plucked_129","midi_source":""},{"t":22.595,"note":85,"dur":0.045,"vel":0.496,"inst":"xylophone_v0_plucked_129","midi_source":""},{"t":22.639,"note":53,"dur":0.045,"vel":0.496,"inst":"banjo_v0_plucked_142","midi_source":""},{"t":22.639,"note":73,"dur":0.02,"vel":0.496,"inst":"xylophone_v0_plucked_129","midi_source":""},{"t":22.639,"note":79,"dur":0.045,"vel":0.496,"inst":"xylophone_v0_plucked_129","midi_source":""},{"t":22.639,"note":82,"dur":0.045,"vel":0.496,"inst":"xylophone_v0_plucked_129","midi_source":""},{"t":22.684,"note":43,"dur":0.045,"vel":0.496,"inst":"xylophone_v0_plucked_129","midi_source":""},{"t":22.684,"note":73,"dur":0.067,"vel":0.496,"inst":"xylophone_v0_plucked_129","midi_source":""},{"t":22.684,"note":79,"dur":0.067,"vel":0.496,"inst":"xylophone_v0_plucked_129","midi_source":""},{"t":22.684,"note":82,"dur":0.067,"vel":0.496,"inst":"xylophone_v0_plucked_129","midi_source":""},{"t":22.729,"note":58,"dur":0.045,"vel":0.496,"inst":"xylophone_v0_plucked_129","midi_source":""},{"t":22.751,"note":61,"dur":0.246,"vel":0.496,"inst":"xylophone_v0_plucked_129","midi_source":""},{"t":22.751,"note":67,"dur":0.201,"vel":0.496,"inst":"xylophone_v0_plucked_129","midi_source":""},{"t":22.751,"note":82,"dur":0.246,"vel":0.496,"inst":"xylophone_v0_plucked_129","midi_source":""},{"t":22.774,"note":61,"dur":0.045,"vel":0.496,"inst":"xylophone_v0_plucked_129","midi_source":""},{"t":22.818,"note":65,"dur":0.045,"vel":0.496,"inst":"banjo_v0_plucked_142","midi_source":""},{"t":22.863,"note":55,"dur":0.045,"vel":0.496,"inst":"xylophone_v0_plucked_129","midi_source":""},{"t":22.908,"note":70,"dur":0.045,"vel":0.496,"inst":"xylophone_v0_plucked_129","midi_source":""},{"t":22.953,"note":73,"dur":0.045,"vel":0.496,"inst":"xylophone_v0_plucked_129","midi_source":""},{"t":22.953,"note":67,"dur":0.045,"vel":0.496,"inst":"xylophone_v0_plucked_129","midi_source":""},{"t":22.997,"note":43,"dur":0.045,"vel":0.496,"inst":"xylophone_v0_plucked_129","midi_source":""},{"t":22.997,"note":70,"dur":0.045,"vel":0.496,"inst":"xylophone_v0_plucked_129","midi_source":""},{"t":22.997,"note":85,"dur":0.045,"vel":0.496,"inst":"xylophone_v0_plucked_129","midi_source":""},{"t":23.042,"note":55,"dur":0.045,"vel":0.496,"inst":"xylophone_v0_plucked_129","midi_source":""},{"t":23.042,"note":65,"dur":0.045,"vel":0.496,"inst":"banjo_v0_plucked_142","midi_source":""},{"t":23.042,"note":73,"dur":0.02,"vel":0.496,"inst":"xylophone_v0_plucked_129","midi_source":""},{"t":23.042,"note":82,"dur":0.045,"vel":0.496,"inst":"xylophone_v0_plucked_129","midi_source":""},{"t":23.087,"note":46,"dur":0.045,"vel":0.496,"inst":"xylophone_v0_plucked_129","midi_source":""},{"t":23.087,"note":55,"dur":0.313,"vel":0.496,"inst":"xylophone_v0_plucked_129","midi_source":""},{"t":23.087,"note":73,"dur":0.313,"vel":0.496,"inst":"xylophone_v0_plucked_129","midi_source":""},{"t":23.087,"note":82,"dur":0.067,"vel":0.496,"inst":"xylophone_v0_plucked_129","midi_source":""},{"t":23.132,"note":49,"dur":0.045,"vel":0.496,"inst":"xylophone_v0_plucked_129","midi_source":""},{"t":23.154,"note":82,"dur":0.067,"vel":0.496,"inst":"xylophone_v0_plucked_129","midi_source":""},{"t":23.176,"note":43,"dur":0.045,"vel":0.496,"inst":"xylophone_v0_plucked_129","midi_source":""},{"t":23.221,"note":58,"dur":0.045,"vel":0.496,"inst":"xylophone_v0_plucked_129","midi_source":""},{"t":23.221,"note":79,"dur":0.067,"vel":0.496,"inst":"xylophone_v0_plucked_129","midi_source":""},{"t":23.266,"note":61,"dur":0.045,"vel":0.496,"inst":"xylophone_v0_plucked_129","midi_source":""},{"t":23.288,"note":67,"dur":0.067,"vel":0.496,"inst":"xylophone_v0_plucked_129","midi_source":""},{"t":23.31,"note":55,"dur":0.045,"vel":0.496,"inst":"xylophone_v0_plucked_129","midi_source":""},{"t":23.355,"note":70,"dur":0.045,"vel":0.496,"inst":"xylophone_v0_plucked_129","midi_source":""},{"t":23.355,"note":86,"dur":0.045,"vel":0.496,"inst":"banjo_v0_plucked_142","midi_source":""},{"t":23.4,"note":58,"dur":0.045,"vel":0.496,"inst":"xylophone_v0_plucked_129","midi_source":""},{"t":23.4,"note":55,"dur":0.045,"vel":0.496,"inst":"xylophone_v0_plucked_129","midi_source":""},{"t":23.4,"note":73,"dur":0.045,"vel":0.496,"inst":"xylophone_v0_plucked_129","midi_source":""},{"t":23.4,"note":85,"dur":0.045,"vel":0.496,"inst":"xylophone_v0_plucked_129","midi_source":""},{"t":23.445,"note":46,"dur":0.045,"vel":0.496,"inst":"xylophone_v0_plucked_129","midi_source":""},{"t":23.445,"note":55,"dur":0.045,"vel":0.496,"inst":"xylophone_v0_plucked_129","midi_source":""},{"t":23.445,"note":70,"dur":0.045,"vel":0.496,"inst":"xylophone_v0_plucked_129","midi_source":""},{"t":23.445,"note":74,"dur":0.045,"vel":0.496,"inst":"banjo_v0_plucked_142","midi_source":""},{"t":23.489,"note":43,"dur":0.045,"vel":0.496,"inst":"xylophone_v0_plucked_129","midi_source":""},{"t":23.489,"note":65,"dur":0.045,"vel":0.496,"inst":"banjo_v0_plucked_142","midi_source":""},{"t":23.489,"note":70,"dur":0.045,"vel":0.496,"inst":"xylophone_v0_plucked_129","midi_source":""},{"t":23.489,"note":67,"dur":0.034,"vel":0.496,"inst":"xylophone_v0_plucked_129","midi_source":""},{"t":23.523,"note":77,"dur":0.034,"vel":0.496,"inst":"banjo_v0_plucked_142","midi_source":""},{"t":23.534,"note":49,"dur":0.045,"vel":0.496,"inst":"xylophone_v0_plucked_129","midi_source":""},{"t":23.534,"note":65,"dur":0.045,"vel":0.496,"inst":"banjo_v0_plucked_142","midi_source":""},{"t":23.534,"note":70,"dur":0.045,"vel":0.496,"inst":"xylophone_v0_plucked_129","midi_source":""},{"t":23.557,"note":82,"dur":0.034,"vel":0.496,"inst":"xylophone_v0_plucked_129","midi_source":""},{"t":23.579,"note":46,"dur":0.045,"vel":0.496,"inst":"xylophone_v0_plucked_129","midi_source":""},{"t":23.579,"note":73,"dur":0.045,"vel":0.496,"inst":"xylophone_v0_plucked_129","midi_source":""},{"t":23.579,"note":77,"dur":0.045,"vel":0.496,"inst":"banjo_v0_plucked_142","midi_source":""},{"t":23.59,"note":82,"dur":0.034,"vel":0.496,"inst":"xylophone_v0_plucked_129","midi_source":""},{"t":23.624,"note":46,"dur":0.045,"vel":0.992,"inst":"xylophone_v0_plucked_129","midi_source":""},{"t":23.624,"note":70,"dur":0.045,"vel":0.992,"inst":"xylophone_v0_plucked_129","midi_source":""},{"t":23.624,"note":77,"dur":0.045,"vel":0.992,"inst":"banjo_v0_plucked_142","midi_source":""},{"t":23.624,"note":79,"dur":0.134,"vel":0.992,"inst":"xylophone_v0_plucked_129","midi_source":""},{"t":23.668,"note":58,"dur":0.045,"vel":0.992,"inst":"xylophone_v0_plucked_129","midi_source":""},{"t":23.668,"note":67,"dur":0.045,"vel":0.992,"inst":"xylophone_v0_plucked_129","midi_source":""},{"t":23.668,"note":70,"dur":0.045,"vel":0.992,"inst":"xylophone_v0_plucked_129","midi_source":""},{"t":23.713,"note":46,"dur":0.045,"vel":0.992,"inst":"xylophone_v0_plucked_129","midi_source":""},{"t":23.713,"note":65,"dur":0.045,"vel":0.992,"inst":"banjo_v0_plucked_142","midi_source":""},{"t":23.713,"note":67,"dur":0.045,"vel":0.992,"inst":"xylophone_v0_plucked_129","midi_source":""},{"t":23.758,"note":46,"dur":0.045,"vel":0.992,"inst":"xylophone_v0_plucked_129","midi_source":""},{"t":23.758,"note":62,"dur":0.045,"vel":0.992,"inst":"banjo_v0_plucked_142","midi_source":""},{"t":23.758,"note":70,"dur":0.045,"vel":0.992,"inst":"xylophone_v0_plucked_129","midi_source":""},{"t":23.758,"note":67,"dur":0.045,"vel":0.992,"inst":"xylophone_v0_plucked_129","midi_source":""},{"t":23.803,"note":85,"dur":0.045,"vel":0.992,"inst":"xylophone_v0_plucked_129","midi_source":""},{"t":23.847,"note":46,"dur":0.02,"vel":0.992,"inst":"xylophone_v0_plucked_129","midi_source":""},{"t":23.847,"note":62,"dur":0.02,"vel":0.992,"inst":"banjo_v0_plucked_142","midi_source":""},{"t":23.847,"note":70,"dur":0.02,"vel":0.992,"inst":"xylophone_v0_plucked_129","midi_source":""},{"t":23.847,"note":82,"dur":0.045,"vel":0.992,"inst":"xylophone_v0_plucked_129","midi_source":""},{"t":23.892,"note":53,"dur":0.045,"vel":0.496,"inst":"banjo_v0_plucked_142","midi_source":""},{"t":23.892,"note":65,"dur":0.067,"vel":0.496,"inst":"banjo_v0_plucked_142","midi_source":""},{"t":23.892,"note":67,"dur":0.134,"vel":0.496,"inst":"xylophone_v0_plucked_129","midi_source":""},{"t":23.892,"note":77,"dur":0.134,"vel":0.496,"inst":"banjo_v0_plucked_142","midi_source":""},{"t":23.937,"note":43,"dur":0.045,"vel":0.496,"inst":"xylophone_v0_plucked_129","midi_source":""},{"t":23.981,"note":55,"dur":0.045,"vel":0.496,"inst":"xylophone_v0_plucked_129","midi_source":""},{"t":24.026,"note":53,"dur":0.268,"vel":0.496,"inst":"banjo_v0_plucked_142","midi_source":""},{"t":24.026,"note":58,"dur":0.268,"vel":0.496,"inst":"xylophone_v0_plucked_129","midi_source":""},{"t":24.026,"note":61,"dur":0.045,"vel":0.496,"inst":"xylophone_v0_plucked_129","midi_source":""},{"t":24.026,"note":73,"dur":0.201,"vel":0.496,"inst":"xylophone_v0_plucked_129","midi_source":""},{"t":24.071,"note":62,"dur":0.045,"vel":0.496,"inst":"banjo_v0_plucked_142","midi_source":""},{"t":24.116,"note":65,"dur":0.045,"vel":0.496,"inst":"banjo_v0_plucked_142","midi_source":""},{"t":24.16,"note":55,"dur":0.045,"vel":0.496,"inst":"xylophone_v0_plucked_129","midi_source":""},{"t":24.16,"note":55,"dur":0.134,"vel":0.496,"inst":"xylophone_v0_plucked_129","midi_source":""},{"t":24.205,"note":67,"dur":0.045,"vel":0.496,"inst":"xylophone_v0_plucked_129","midi_source":""},{"t":24.228,"note":67,"dur":0.067,"vel":0.496,"inst":"xylophone_v0_plucked_129","midi_source":""},{"t":24.25,"note":70,"dur":0.045,"vel":0.496,"inst":"xylophone_v0_plucked_129","midi_source":""},{"t":24.295,"note":53,"dur":0.045,"vel":0.496,"inst":"banjo_v0_plucked_142","midi_source":""},{"t":24.295,"note":58,"dur":0.045,"vel":0.496,"inst":"xylophone_v0_plucked_129","midi_source":""},{"t":24.295,"note":55,"dur":0.403,"vel":0.496,"inst":"xylophone_v0_plucked_129","midi_source":""},{"t":24.295,"note":70,"dur":0.403,"vel":0.496,"inst":"xylophone_v0_plucked_129","midi_source":""},{"t":24.295,"note":77,"dur":0.134,"vel":0.496,"inst":"banjo_v0_plucked_142","midi_source":""},{"t":24.384,"note":53,"dur":0.02,"vel":0.496,"inst":"banjo_v0_plucked_142","midi_source":""},{"t":24.384,"note":58,"dur":0.02,"vel":0.496,"inst":"xylophone_v0_plucked_129","midi_source":""},{"t":24.429,"note":58,"dur":0.045,"vel":0.496,"inst":"xylophone_v0_plucked_129","midi_source":""},{"t":24.429,"note":67,"dur":0.168,"vel":0.496,"inst":"xylophone_v0_plucked_129","midi_source":""},{"t":24.474,"note":60,"dur":0.045,"vel":0.496,"inst":"pad_string_v0_bass_416","midi_source":""},{"t":24.518,"note":62,"dur":0.045,"vel":0.496,"inst":"banjo_v0_plucked_142","midi_source":""},{"t":24.563,"note":49,"dur":0.134,"vel":0.496,"inst":"xylophone_v0_plucked_129","midi_source":""},{"t":24.563,"note":65,"dur":0.134,"vel":0.496,"inst":"banjo_v0_plucked_142","midi_source":""},{"t":24.563,"note":70,"dur":0.045,"vel":0.496,"inst":"xylophone_v0_plucked_129","midi_source":""},{"t":24.597,"note":79,"dur":0.034,"vel":0.496,"inst":"xylophone_v0_plucked_129","midi_source":""},{"t":24.608,"note":73,"dur":0.045,"vel":0.496,"inst":"xylophone_v0_plucked_129","midi_source":""},{"t":24.63,"note":79,"dur":0.034,"vel":0.496,"inst":"xylophone_v0_plucked_129","midi_source":""},{"t":24.652,"note":77,"dur":0.045,"vel":0.496,"inst":"banjo_v0_plucked_142","midi_source":""},{"t":24.664,"note":82,"dur":0.034,"vel":0.496,"inst":"xylophone_v0_plucked_129","midi_source":""},{"t":24.697,"note":48,"dur":0.045,"vel":0.496,"inst":"pad_string_v0_bass_416","midi_source":""},{"t":24.697,"note":62,"dur":0.045,"vel":0.496,"inst":"banjo_v0_plucked_142","midi_source":""},{"t":24.697,"note":74,"dur":0.045,"vel":0.496,"inst":"banjo_v0_plucked_142","midi_source":""},{"t":24.697,"note":79,"dur":0.179,"vel":0.496,"inst":"xylophone_v0_plucked_129","midi_source":""},{"t":24.742,"note":50,"dur":0.045,"vel":0.496,"inst":"banjo_v0_plucked_142","midi_source":""},{"t":24.787,"note":55,"dur":0.045,"vel":0.496,"inst":"xylophone_v0_plucked_129","midi_source":""},{"t":24.787,"note":55,"dur":0.02,"vel":0.496,"inst":"xylophone_v0_plucked_129","midi_source":""},{"t":24.787,"note":67,"dur":0.02,"vel":0.496,"inst":"xylophone_v0_plucked_129","midi_source":""},{"t":24.831,"note":49,"dur":0.045,"vel":0.496,"inst":"xylophone_v0_plucked_129","midi_source":""},{"t":24.831,"note":65,"dur":0.045,"vel":0.496,"inst":"banjo_v0_plucked_142","midi_source":""},{"t":24.831,"note":67,"dur":0.045,"vel":0.496,"inst":"xylophone_v0_plucked_129","midi_source":""},{"t":24.876,"note":50,"dur":0.045,"vel":0.496,"inst":"banjo_v0_plucked_142","midi_source":""},{"t":24.876,"note":55,"dur":0.045,"vel":0.496,"inst":"xylophone_v0_plucked_129","midi_source":""},{"t":24.876,"note":72,"dur":0.045,"vel":0.496,"inst":"pad_string_v0_bass_416","midi_source":""},{"t":24.876,"note":67,"dur":0.045,"vel":0.496,"inst":"xylophone_v0_plucked_129","midi_source":""},{"t":24.921,"note":53,"dur":0.045,"vel":0.496,"inst":"banjo_v0_plucked_142","midi_source":""},{"t":24.921,"note":67,"dur":0.045,"vel":0.496,"inst":"xylophone_v0_plucked_129","midi_source":""},{"t":24.921,"note":73,"dur":0.045,"vel":0.496,"inst":"xylophone_v0_plucked_129","midi_source":""},{"t":24.921,"note":77,"dur":0.045,"vel":0.496,"inst":"banjo_v0_plucked_142","midi_source":""},{"t":24.966,"note":43,"dur":0.045,"vel":0.496,"inst":"xylophone_v0_plucked_129","midi_source":""},{"t":24.966,"note":55,"dur":0.045,"vel":0.496,"inst":"xylophone_v0_plucked_129","midi_source":""},{"t":24.966,"note":70,"dur":0.045,"vel":0.496,"inst":"xylophone_v0_plucked_129","midi_source":""},{"t":24.966,"note":74,"dur":0.045,"vel":0.496,"inst":"banjo_v0_plucked_142","midi_source":""},{"t":25.011,"note":61,"dur":0.045,"vel":0.496,"inst":"xylophone_v0_plucked_129","midi_source":""},{"t":25.011,"note":77,"dur":0.045,"vel":0.496,"inst":"banjo_v0_plucked_142","midi_source":""},{"t":25.055,"note":43,"dur":0.02,"vel":0.496,"inst":"xylophone_v0_plucked_129","midi_source":""},{"t":25.055,"note":65,"dur":0.045,"vel":0.496,"inst":"banjo_v0_plucked_142","midi_source":""},{"t":25.055,"note":70,"dur":0.02,"vel":0.496,"inst":"xylophone_v0_plucked_129","midi_source":""},{"t":25.055,"note":73,"dur":0.045,"vel":0.496,"inst":"xylophone_v0_plucked_129","midi_source":""},{"t":25.1,"note":46,"dur":0.045,"vel":0.496,"inst":"xylophone_v0_plucked_129","midi_source":""},{"t":25.1,"note":65,"dur":0.045,"vel":0.496,"inst":"banjo_v0_plucked_142","midi_source":""},{"t":25.1,"note":70,"dur":0.045,"vel":0.496,"inst":"xylophone_v0_plucked_129","midi_source":""},{"t":25.1,"note":73,"dur":0.134,"vel":0.496,"inst":"xylophone_v0_plucked_129","midi_source":""},{"t":25.145,"note":43,"dur":0.045,"vel":0.496,"inst":"xylophone_v0_plucked_129","midi_source":""},{"t":25.145,"note":65,"dur":0.045,"vel":0.496,"inst":"banjo_v0_plucked_142","midi_source":""},{"t":25.145,"note":55,"dur":0.045,"vel":0.496,"inst":"xylophone_v0_plucked_129","midi_source":""},{"t":25.189,"note":58,"dur":0.045,"vel":0.496,"inst":"xylophone_v0_plucked_129","midi_source":""},{"t":25.189,"note":65,"dur":0.045,"vel":0.496,"inst":"banjo_v0_plucked_142","midi_source":""},{"t":25.189,"note":55,"dur":0.045,"vel":0.496,"inst":"xylophone_v0_plucked_129","midi_source":""},{"t":25.234,"note":58,"dur":0.268,"vel":0.496,"inst":"xylophone_v0_plucked_129","midi_source":""},{"t":25.234,"note":62,"dur":0.045,"vel":0.496,"inst":"banjo_v0_plucked_142","midi_source":""},{"t":25.234,"note":55,"dur":0.179,"vel":0.496,"inst":"xylophone_v0_plucked_129","midi_source":""},{"t":25.234,"note":70,"dur":0.134,"vel":0.496,"inst":"xylophone_v0_plucked_129","midi_source":""},{"t":25.279,"note":55,"dur":0.045,"vel":0.496,"inst":"xylophone_v0_plucked_129","midi_source":""},{"t":25.323,"note":70,"dur":0.045,"vel":0.496,"inst":"xylophone_v0_plucked_129","midi_source":""},{"t":25.368,"note":70,"dur":0.045,"vel":0.496,"inst":"xylophone_v0_plucked_129","midi_source":""},{"t":25.413,"note":62,"dur":0.045,"vel":0.496,"inst":"banjo_v0_plucked_142","midi_source":""},{"t":25.413,"note":55,"dur":0.045,"vel":0.496,"inst":"xylophone_v0_plucked_129","midi_source":""},{"t":25.458,"note":61,"dur":0.045,"vel":0.496,"inst":"xylophone_v0_plucked_129","midi_source":""},{"t":25.458,"note":65,"dur":0.045,"vel":0.496,"inst":"banjo_v0_plucked_142","midi_source":""},{"t":25.503,"note":58,"dur":0.045,"vel":0.496,"inst":"xylophone_v0_plucked_129","midi_source":""},{"t":25.503,"note":58,"dur":0.134,"vel":0.496,"inst":"xylophone_v0_plucked_129","midi_source":""},{"t":25.503,"note":62,"dur":0.134,"vel":0.496,"inst":"banjo_v0_plucked_142","midi_source":""},{"t":25.547,"note":62,"dur":0.045,"vel":0.496,"inst":"banjo_v0_plucked_142","midi_source":""},{"t":25.592,"note":55,"dur":0.045,"vel":0.496,"inst":"xylophone_v0_plucked_129","midi_source":""},{"t":25.637,"note":55,"dur":0.134,"vel":0.496,"inst":"xylophone_v0_plucked_129","midi_source":""},{"t":25.637,"note":58,"dur":0.045,"vel":0.496,"inst":"xylophone_v0_plucked_129","midi_source":""},{"t":25.637,"note":65,"dur":0.134,"vel":0.496,"inst":"banjo_v0_plucked_142","midi_source":""},{"t":25.637,"note":70,"dur":0.313,"vel":0.496,"inst":"xylophone_v0_plucked_129","midi_source":""},{"t":25.682,"note":62,"dur":0.045,"vel":0.496,"inst":"banjo_v0_plucked_142","midi_source":""},{"t":25.726,"note":67,"dur":0.045,"vel":0.496,"inst":"xylophone_v0_plucked_129","midi_source":""},{"t":25.771,"note":43,"dur":0.134,"vel":0.496,"inst":"xylophone_v0_plucked_129","midi_source":""},{"t":25.771,"note":55,"dur":0.045,"vel":0.496,"inst":"xylophone_v0_plucked_129","midi_source":""},{"t":25.771,"note":70,"dur":0.134,"vel":0.496,"inst":"xylophone_v0_plucked_129","midi_source":""},{"t":25.816,"note":70,"dur":0.045,"vel":0.496,"inst":"xylophone_v0_plucked_129","midi_source":""},{"t":25.86,"note":74,"dur":0.045,"vel":0.496,"inst":"banjo_v0_plucked_142","midi_source":""},{"t":25.905,"note":53,"dur":0.313,"vel":0.496,"inst":"banjo_v0_plucked_142","midi_source":""},{"t":25.905,"note":67,"dur":0.313,"vel":0.496,"inst":"xylophone_v0_plucked_129","midi_source":""},{"t":25.905,"note":77,"dur":0.313,"vel":0.496,"inst":"banjo_v0_plucked_142","midi_source":""},{"t":25.95,"note":65,"dur":0.045,"vel":0.496,"inst":"banjo_v0_plucked_142","midi_source":""},{"t":25.995,"note":55,"dur":0.045,"vel":0.496,"inst":"xylophone_v0_plucked_129","midi_source":""},{"t":26.039,"note":67,"dur":0.045,"vel":0.496,"inst":"xylophone_v0_plucked_129","midi_source":""},{"t":26.084,"note":70,"dur":0.045,"vel":0.496,"inst":"xylophone_v0_plucked_129","midi_source":""},{"t":26.129,"note":77,"dur":0.045,"vel":0.496,"inst":"banjo_v0_plucked_142","midi_source":""},{"t":26.174,"note":79,"dur":0.045,"vel":0.496,"inst":"xylophone_v0_plucked_129","midi_source":""},{"t":26.218,"note":46,"dur":0.045,"vel":0.496,"inst":"xylophone_v0_plucked_129","midi_source":""},{"t":26.218,"note":67,"dur":0.045,"vel":0.496,"inst":"xylophone_v0_plucked_129","midi_source":""},{"t":26.218,"note":70,"dur":0.045,"vel":0.496,"inst":"xylophone_v0_plucked_129","midi_source":""},{"t":26.218,"note":82,"dur":0.045,"vel":0.496,"inst":"xylophone_v0_plucked_129","midi_source":""},{"t":26.263,"note":49,"dur":0.045,"vel":0.496,"inst":"xylophone_v0_plucked_129","midi_source":""},{"t":26.263,"note":55,"dur":0.045,"vel":0.496,"inst":"xylophone_v0_plucked_129","midi_source":""},{"t":26.263,"note":70,"dur":0.045,"vel":0.496,"inst":"xylophone_v0_plucked_129","midi_source":""},{"t":26.263,"note":82,"dur":0.045,"vel":0.496,"inst":"xylophone_v0_plucked_129","midi_source":""},{"t":26.308,"note":50,"dur":0.067,"vel":0.496,"inst":"banjo_v0_plucked_142","midi_source":""},{"t":26.308,"note":65,"dur":0.134,"vel":0.496,"inst":"banjo_v0_plucked_142","midi_source":""},{"t":26.308,"note":67,"dur":0.134,"vel":0.496,"inst":"xylophone_v0_plucked_129","midi_source":""},{"t":26.308,"note":79,"dur":0.134,"vel":0.496,"inst":"xylophone_v0_plucked_129","midi_source":""},{"t":26.375,"note":58,"dur":0.067,"vel":0.496,"inst":"xylophone_v0_plucked_129","midi_source":""},{"t":26.442,"note":49,"dur":0.134,"vel":0.496,"inst":"xylophone_v0_plucked_129","midi_source":""},{"t":26.442,"note":58,"dur":0.045,"vel":0.496,"inst":"xylophone_v0_plucked_129","midi_source":""},{"t":26.442,"note":65,"dur":0.134,"vel":0.496,"inst":"banjo_v0_plucked_142","midi_source":""},{"t":26.442,"note":82,"dur":0.134,"vel":0.496,"inst":"xylophone_v0_plucked_129","midi_source":""},{"t":26.487,"note":61,"dur":0.045,"vel":0.496,"inst":"xylophone_v0_plucked_129","midi_source":""},{"t":26.531,"note":65,"dur":0.045,"vel":0.496,"inst":"banjo_v0_plucked_142","midi_source":""},{"t":26.576,"note":46,"dur":0.134,"vel":0.496,"inst":"xylophone_v0_plucked_129","midi_source":""},{"t":26.576,"note":62,"dur":0.134,"vel":0.496,"inst":"banjo_v0_plucked_142","midi_source":""},{"t":26.576,"note":67,"dur":0.045,"vel":0.496,"inst":"xylophone_v0_plucked_129","midi_source":""},{"t":26.576,"note":82,"dur":0.134,"vel":0.496,"inst":"xylophone_v0_plucked_129","midi_source":""},{"t":26.621,"note":70,"dur":0.045,"vel":0.496,"inst":"xylophone_v0_plucked_129","midi_source":""},{"t":26.666,"note":77,"dur":0.045,"vel":0.496,"inst":"banjo_v0_plucked_142","midi_source":""},{"t":26.71,"note":46,"dur":0.045,"vel":0.496,"inst":"xylophone_v0_plucked_129","midi_source":""},{"t":26.71,"note":61,"dur":0.134,"vel":0.496,"inst":"xylophone_v0_plucked_129","midi_source":""},{"t":26.71,"note":77,"dur":0.067,"vel":0.496,"inst":"banjo_v0_plucked_142","midi_source":""},{"t":26.71,"note":85,"dur":0.313,"vel":0.496,"inst":"xylophone_v0_plucked_129","midi_source":""},{"t":26.755,"note":49,"dur":0.045,"vel":0.496,"inst":"xylophone_v0_plucked_129","midi_source":""},{"t":26.777,"note":82,"dur":0.246,"vel":0.496,"inst":"xylophone_v0_plucked_129","midi_source":""},{"t":26.8,"note":53,"dur":0.045,"vel":0.496,"inst":"banjo_v0_plucked_142","midi_source":""},{"t":26.845,"note":55,"dur":0.045,"vel":0.496,"inst":"xylophone_v0_plucked_129","midi_source":""},{"t":26.845,"note":65,"dur":0.134,"vel":0.496,"inst":"banjo_v0_plucked_142","midi_source":""},{"t":26.889,"note":58,"dur":0.045,"vel":0.496,"inst":"xylophone_v0_plucked_129","midi_source":""},{"t":26.934,"note":61,"dur":0.045,"vel":0.496,"inst":"xylophone_v0_plucked_129","midi_source":""},{"t":26.979,"note":65,"dur":0.045,"vel":0.496,"inst":"banjo_v0_plucked_142","midi_source":""},{"t":26.979,"note":73,"dur":0.045,"vel":0.496,"inst":"xylophone_v0_plucked_129","midi_source":""},{"t":27.024,"note":67,"dur":0.045,"vel":0.496,"inst":"xylophone_v0_plucked_129","midi_source":""},{"t":27.024,"note":70,"dur":0.045,"vel":0.496,"inst":"xylophone_v0_plucked_129","midi_source":""},{"t":27.024,"note":82,"dur":0.045,"vel":0.496,"inst":"xylophone_v0_plucked_129","midi_source":""},{"t":27.024,"note":86,"dur":0.045,"vel":0.496,"inst":"banjo_v0_plucked_142","midi_source":""},{"t":27.068,"note":70,"dur":0.045,"vel":0.496,"inst":"xylophone_v0_plucked_129","midi_source":""},{"t":27.068,"note":73,"dur":0.045,"vel":0.496,"inst":"xylophone_v0_plucked_129","midi_source":""},{"t":27.068,"note":82,"dur":0.045,"vel":0.496,"inst":"xylophone_v0_plucked_129","midi_source":""},{"t":27.068,"note":85,"dur":0.045,"vel":0.496,"inst":"xylophone_v0_plucked_129","midi_source":""},{"t":27.113,"note":49,"dur":0.045,"vel":0.496,"inst":"xylophone_v0_plucked_129","midi_source":""},{"t":27.113,"note":73,"dur":0.067,"vel":0.496,"inst":"xylophone_v0_plucked_129","midi_source":""},{"t":27.113,"note":82,"dur":0.067,"vel":0.496,"inst":"xylophone_v0_plucked_129","midi_source":""},{"t":27.113,"note":85,"dur":0.067,"vel":0.496,"inst":"xylophone_v0_plucked_129","midi_source":""},{"t":27.158,"note":53,"dur":0.045,"vel":0.496,"inst":"banjo_v0_plucked_142","midi_source":""},{"t":27.18,"note":65,"dur":0.246,"vel":0.496,"inst":"banjo_v0_plucked_142","midi_source":""},{"t":27.18,"note":79,"dur":0.246,"vel":0.496,"inst":"xylophone_v0_plucked_129","midi_source":""},{"t":27.18,"note":82,"dur":0.246,"vel":0.496,"inst":"xylophone_v0_plucked_129","midi_source":""},{"t":27.202,"note":55,"dur":0.045,"vel":0.496,"inst":"xylophone_v0_plucked_129","midi_source":""},{"t":27.247,"note":58,"dur":0.045,"vel":0.496,"inst":"xylophone_v0_plucked_129","midi_source":""},{"t":27.292,"note":61,"dur":0.045,"vel":0.496,"inst":"xylophone_v0_plucked_129","midi_source":""},{"t":27.337,"note":65,"dur":0.045,"vel":0.496,"inst":"banjo_v0_plucked_142","midi_source":""},{"t":27.381,"note":67,"dur":0.045,"vel":0.496,"inst":"xylophone_v0_plucked_129","midi_source":""},{"t":27.426,"note":49,"dur":0.045,"vel":0.496,"inst":"xylophone_v0_plucked_129","midi_source":""},{"t":27.426,"note":82,"dur":0.045,"vel":0.496,"inst":"xylophone_v0_plucked_129","midi_source":""},{"t":27.426,"note":85,"dur":0.045,"vel":0.496,"inst":"xylophone_v0_plucked_129","midi_source":""},{"t":27.471,"note":53,"dur":0.045,"vel":0.496,"inst":"banjo_v0_plucked_142","midi_source":""},{"t":27.471,"note":73,"dur":0.02,"vel":0.496,"inst":"xylophone_v0_plucked_129","midi_source":""},{"t":27.471,"note":79,"dur":0.045,"vel":0.496,"inst":"xylophone_v0_plucked_129","midi_source":""},{"t":27.471,"note":82,"dur":0.045,"vel":0.496,"inst":"xylophone_v0_plucked_129","midi_source":""},{"t":27.516,"note":43,"dur":0.045,"vel":0.496,"inst":"xylophone_v0_plucked_129","midi_source":""},{"t":27.516,"note":73,"dur":0.067,"vel":0.496,"inst":"xylophone_v0_plucked_129","midi_source":""},{"t":27.516,"note":79,"dur":0.067,"vel":0.496,"inst":"xylophone_v0_plucked_129","midi_source":""},{"t":27.516,"note":82,"dur":0.067,"vel":0.496,"inst":"xylophone_v0_plucked_129","midi_source":""},{"t":27.56,"note":58,"dur":0.045,"vel":0.496,"inst":"xylophone_v0_plucked_129","midi_source":""},{"t":27.583,"note":61,"dur":0.246,"vel":0.496,"inst":"xylophone_v0_plucked_129","midi_source":""},{"t":27.583,"note":67,"dur":0.201,"vel":0.496,"inst":"xylophone_v0_plucked_129","midi_source":""},{"t":27.583,"note":82,"dur":0.246,"vel":0.496,"inst":"xylophone_v0_plucked_129","midi_source":""},{"t":27.605,"note":61,"dur":0.045,"vel":0.496,"inst":"xylophone_v0_plucked_129","midi_source":""},{"t":27.65,"note":65,"dur":0.045,"vel":0.496,"inst":"banjo_v0_plucked_142","midi_source":""},{"t":27.695,"note":55,"dur":0.045,"vel":0.496,"inst":"xylophone_v0_plucked_129","midi_source":""},{"t":27.739,"note":70,"dur":0.045,"vel":0.496,"inst":"xylophone_v0_plucked_129","midi_source":""},{"t":27.784,"note":73,"dur":0.045,"vel":0.496,"inst":"xylophone_v0_plucked_129","midi_source":""},{"t":27.784,"note":67,"dur":0.045,"vel":0.496,"inst":"xylophone_v0_plucked_129","midi_source":""},{"t":27.829,"note":43,"dur":0.045,"vel":0.496,"inst":"xylophone_v0_plucked_129","midi_source":""},{"t":27.829,"note":70,"dur":0.045,"vel":0.496,"inst":"xylophone_v0_plucked_129","midi_source":""},{"t":27.829,"note":85,"dur":0.045,"vel":0.496,"inst":"xylophone_v0_plucked_129","midi_source":""},{"t":27.873,"note":55,"dur":0.045,"vel":0.496,"inst":"xylophone_v0_plucked_129","midi_source":""},{"t":27.873,"note":65,"dur":0.045,"vel":0.496,"inst":"banjo_v0_plucked_142","midi_source":""},{"t":27.873,"note":73,"dur":0.02,"vel":0.496,"inst":"xylophone_v0_plucked_129","midi_source":""},{"t":27.873,"note":82,"dur":0.045,"vel":0.496,"inst":"xylophone_v0_plucked_129","midi_source":""},{"t":27.918,"note":46,"dur":0.045,"vel":0.496,"inst":"xylophone_v0_plucked_129","midi_source":""},{"t":27.918,"note":55,"dur":0.313,"vel":0.496,"inst":"xylophone_v0_plucked_129","midi_source":""},{"t":27.918,"note":73,"dur":0.313,"vel":0.496,"inst":"xylophone_v0_plucked_129","midi_source":""},{"t":27.918,"note":82,"dur":0.067,"vel":0.496,"inst":"xylophone_v0_plucked_129","midi_source":""},{"t":27.963,"note":49,"dur":0.045,"vel":0.496,"inst":"xylophone_v0_plucked_129","midi_source":""},{"t":27.985,"note":82,"dur":0.067,"vel":0.496,"inst":"xylophone_v0_plucked_129","midi_source":""},{"t":28.008,"note":43,"dur":0.045,"vel":0.496,"inst":"xylophone_v0_plucked_129","midi_source":""},{"t":28.052,"note":58,"dur":0.045,"vel":0.496,"inst":"xylophone_v0_plucked_129","midi_source":""},{"t":28.052,"note":79,"dur":0.067,"vel":0.496,"inst":"xylophone_v0_plucked_129","midi_source":""},{"t":28.097,"note":61,"dur":0.045,"vel":0.496,"inst":"xylophone_v0_plucked_129","midi_source":""},{"t":28.12,"note":67,"dur":0.067,"vel":0.496,"inst":"xylophone_v0_plucked_129","midi_source":""},{"t":28.142,"note":55,"dur":0.045,"vel":0.496,"inst":"xylophone_v0_plucked_129","midi_source":""},{"t":28.187,"note":70,"dur":0.045,"vel":0.496,"inst":"xylophone_v0_plucked_129","midi_source":""},{"t":28.187,"note":86,"dur":0.045,"vel":0.496,"inst":"banjo_v0_plucked_142","midi_source":""},{"t":28.231,"note":58,"dur":0.045,"vel":0.496,"inst":"xylophone_v0_plucked_129","midi_source":""},{"t":28.231,"note":55,"dur":0.045,"vel":0.496,"inst":"xylophone_v0_plucked_129","midi_source":""},{"t":28.231,"note":73,"dur":0.045,"vel":0.496,"inst":"xylophone_v0_plucked_129","midi_source":""},{"t":28.231,"note":85,"dur":0.045,"vel":0.496,"inst":"xylophone_v0_plucked_129","midi_source":""},{"t":28.276,"note":46,"dur":0.045,"vel":0.496,"inst":"xylophone_v0_plucked_129","midi_source":""},{"t":28.276,"note":55,"dur":0.045,"vel":0.496,"inst":"xylophone_v0_plucked_129","midi_source":""},{"t":28.276,"note":70,"dur":0.045,"vel":0.496,"inst":"xylophone_v0_plucked_129","midi_source":""},{"t":28.276,"note":74,"dur":0.045,"vel":0.496,"inst":"banjo_v0_plucked_142","midi_source":""},{"t":28.321,"note":43,"dur":0.045,"vel":0.496,"inst":"xylophone_v0_plucked_129","midi_source":""},{"t":28.321,"note":65,"dur":0.045,"vel":0.496,"inst":"banjo_v0_plucked_142","midi_source":""},{"t":28.321,"note":70,"dur":0.045,"vel":0.496,"inst":"xylophone_v0_plucked_129","midi_source":""},{"t":28.321,"note":67,"dur":0.034,"vel":0.496,"inst":"xylophone_v0_plucked_129","midi_source":""},{"t":28.354,"note":77,"dur":0.034,"vel":0.496,"inst":"banjo_v0_plucked_142","midi_source":""},{"t":28.366,"note":49,"dur":0.045,"vel":0.496,"inst":"xylophone_v0_plucked_129","midi_source":""},{"t":28.366,"note":65,"dur":0.045,"vel":0.496,"inst":"banjo_v0_plucked_142","midi_source":""},{"t":28.366,"note":70,"dur":0.045,"vel":0.496,"inst":"xylophone_v0_plucked_129","midi_source":""},{"t":28.388,"note":82,"dur":0.034,"vel":0.496,"inst":"xylophone_v0_plucked_129","midi_source":""},{"t":28.41,"note":46,"dur":0.045,"vel":0.496,"inst":"xylophone_v0_plucked_129","midi_source":""},{"t":28.41,"note":73,"dur":0.045,"vel":0.496,"inst":"xylophone_v0_plucked_129","midi_source":""},{"t":28.41,"note":77,"dur":0.045,"vel":0.496,"inst":"banjo_v0_plucked_142","midi_source":""},{"t":28.421,"note":82,"dur":0.034,"vel":0.496,"inst":"xylophone_v0_plucked_129","midi_source":""},{"t":28.455,"note":46,"dur":0.045,"vel":0.992,"inst":"xylophone_v0_plucked_129","midi_source":""},{"t":28.455,"note":70,"dur":0.045,"vel":0.992,"inst":"xylophone_v0_plucked_129","midi_source":""},{"t":28.455,"note":77,"dur":0.045,"vel":0.992,"inst":"banjo_v0_plucked_142","midi_source":""},{"t":28.455,"note":79,"dur":0.134,"vel":0.992,"inst":"xylophone_v0_plucked_129","midi_source":""},{"t":28.5,"note":58,"dur":0.045,"vel":0.992,"inst":"xylophone_v0_plucked_129","midi_source":""},{"t":28.5,"note":67,"dur":0.045,"vel":0.992,"inst":"xylophone_v0_plucked_129","midi_source":""},{"t":28.5,"note":70,"dur":0.045,"vel":0.992,"inst":"xylophone_v0_plucked_129","midi_source":""},{"t":28.544,"note":46,"dur":0.045,"vel":0.992,"inst":"xylophone_v0_plucked_129","midi_source":""},{"t":28.544,"note":65,"dur":0.045,"vel":0.992,"inst":"banjo_v0_plucked_142","midi_source":""},{"t":28.544,"note":67,"dur":0.045,"vel":0.992,"inst":"xylophone_v0_plucked_129","midi_source":""},{"t":28.589,"note":46,"dur":0.045,"vel":0.992,"inst":"xylophone_v0_plucked_129","midi_source":""},{"t":28.589,"note":62,"dur":0.045,"vel":0.992,"inst":"banjo_v0_plucked_142","midi_source":""},{"t":28.589,"note":70,"dur":0.045,"vel":0.992,"inst":"xylophone_v0_plucked_129","midi_source":""},{"t":28.589,"note":67,"dur":0.045,"vel":0.992,"inst":"xylophone_v0_plucked_129","midi_source":""},{"t":28.634,"note":85,"dur":0.045,"vel":0.992,"inst":"xylophone_v0_plucked_129","midi_source":""},{"t":28.679,"note":46,"dur":0.02,"vel":0.992,"inst":"xylophone_v0_plucked_129","midi_source":""},{"t":28.679,"note":62,"dur":0.02,"vel":0.992,"inst":"banjo_v0_plucked_142","midi_source":""},{"t":28.679,"note":70,"dur":0.02,"vel":0.992,"inst":"xylophone_v0_plucked_129","midi_source":""},{"t":28.679,"note":82,"dur":0.045,"vel":0.992,"inst":"xylophone_v0_plucked_129","midi_source":""},{"t":28.723,"note":53,"dur":0.045,"vel":0.496,"inst":"banjo_v0_plucked_142","midi_source":""},{"t":28.723,"note":65,"dur":0.067,"vel":0.496,"inst":"banjo_v0_plucked_142","midi_source":""},{"t":28.723,"note":67,"dur":0.134,"vel":0.496,"inst":"xylophone_v0_plucked_129","midi_source":""},{"t":28.723,"note":77,"dur":0.134,"vel":0.496,"inst":"banjo_v0_plucked_142","midi_source":""},{"t":28.768,"note":43,"dur":0.045,"vel":0.496,"inst":"xylophone_v0_plucked_129","midi_source":""},{"t":28.813,"note":55,"dur":0.045,"vel":0.496,"inst":"xylophone_v0_plucked_129","midi_source":""},{"t":28.858,"note":53,"dur":0.268,"vel":0.496,"inst":"banjo_v0_plucked_142","midi_source":""},{"t":28.858,"note":58,"dur":0.268,"vel":0.496,"inst":"xylophone_v0_plucked_129","midi_source":""},{"t":28.858,"note":61,"dur":0.045,"vel":0.496,"inst":"xylophone_v0_plucked_129","midi_source":""},{"t":28.858,"note":73,"dur":0.201,"vel":0.496,"inst":"xylophone_v0_plucked_129","midi_source":""},{"t":28.902,"note":62,"dur":0.045,"vel":0.496,"inst":"banjo_v0_plucked_142","midi_source":""},{"t":28.947,"note":65,"dur":0.045,"vel":0.496,"inst":"banjo_v0_plucked_142","midi_source":""},{"t":28.992,"note":55,"dur":0.045,"vel":0.496,"inst":"xylophone_v0_plucked_129","midi_source":""},{"t":28.992,"note":55,"dur":0.134,"vel":0.496,"inst":"xylophone_v0_plucked_129","midi_source":""},{"t":29.037,"note":67,"dur":0.045,"vel":0.496,"inst":"xylophone_v0_plucked_129","midi_source":""},{"t":29.059,"note":67,"dur":0.067,"vel":0.496,"inst":"xylophone_v0_plucked_129","midi_source":""},{"t":29.081,"note":70,"dur":0.045,"vel":0.496,"inst":"xylophone_v0_plucked_129","midi_source":""},{"t":29.126,"note":53,"dur":0.045,"vel":0.496,"inst":"banjo_v0_plucked_142","midi_source":""},{"t":29.126,"note":58,"dur":0.045,"vel":0.496,"inst":"xylophone_v0_plucked_129","midi_source":""},{"t":29.126,"note":55,"dur":0.403,"vel":0.496,"inst":"xylophone_v0_plucked_129","midi_source":""},{"t":29.126,"note":70,"dur":0.403,"vel":0.496,"inst":"xylophone_v0_plucked_129","midi_source":""},{"t":29.126,"note":77,"dur":0.134,"vel":0.496,"inst":"banjo_v0_plucked_142","midi_source":""},{"t":29.215,"note":53,"dur":0.02,"vel":0.496,"inst":"banjo_v0_plucked_142","midi_source":""},{"t":29.215,"note":58,"dur":0.02,"vel":0.496,"inst":"xylophone_v0_plucked_129","midi_source":""},{"t":29.26,"note":58,"dur":0.045,"vel":0.496,"inst":"xylophone_v0_plucked_129","midi_source":""},{"t":29.26,"note":67,"dur":0.168,"vel":0.496,"inst":"xylophone_v0_plucked_129","midi_source":""},{"t":29.305,"note":60,"dur":0.045,"vel":0.496,"inst":"pad_string_v0_bass_416","midi_source":""},{"t":29.35,"note":62,"dur":0.045,"vel":0.496,"inst":"banjo_v0_plucked_142","midi_source":""},{"t":29.394,"note":49,"dur":0.134,"vel":0.496,"inst":"xylophone_v0_plucked_129","midi_source":""},{"t":29.394,"note":65,"dur":0.134,"vel":0.496,"inst":"banjo_v0_plucked_142","midi_source":""},{"t":29.394,"note":70,"dur":0.045,"vel":0.496,"inst":"xylophone_v0_plucked_129","midi_source":""},{"t":29.428,"note":79,"dur":0.034,"vel":0.496,"inst":"xylophone_v0_plucked_129","midi_source":""},{"t":29.439,"note":73,"dur":0.045,"vel":0.496,"inst":"xylophone_v0_plucked_129","midi_source":""},{"t":29.462,"note":79,"dur":0.034,"vel":0.496,"inst":"xylophone_v0_plucked_129","midi_source":""},{"t":29.484,"note":77,"dur":0.045,"vel":0.496,"inst":"banjo_v0_plucked_142","midi_source":""},{"t":29.495,"note":82,"dur":0.034,"vel":0.496,"inst":"xylophone_v0_plucked_129","midi_source":""},{"t":29.529,"note":48,"dur":0.045,"vel":0.496,"inst":"pad_string_v0_bass_416","midi_source":""},{"t":29.529,"note":62,"dur":0.045,"vel":0.496,"inst":"banjo_v0_plucked_142","midi_source":""},{"t":29.529,"note":74,"dur":0.045,"vel":0.496,"inst":"banjo_v0_plucked_142","midi_source":""},{"t":29.529,"note":79,"dur":0.179,"vel":0.496,"inst":"xylophone_v0_plucked_129","midi_source":""},{"t":29.573,"note":50,"dur":0.045,"vel":0.496,"inst":"banjo_v0_plucked_142","midi_source":""},{"t":29.618,"note":55,"dur":0.045,"vel":0.496,"inst":"xylophone_v0_plucked_129","midi_source":""},{"t":29.618,"note":55,"dur":0.02,"vel":0.496,"inst":"xylophone_v0_plucked_129","midi_source":""},{"t":29.618,"note":67,"dur":0.02,"vel":0.496,"inst":"xylophone_v0_plucked_129","midi_source":""},{"t":29.663,"note":49,"dur":0.045,"vel":0.496,"inst":"xylophone_v0_plucked_129","midi_source":""},{"t":29.663,"note":65,"dur":0.045,"vel":0.496,"inst":"banjo_v0_plucked_142","midi_source":""},{"t":29.663,"note":67,"dur":0.045,"vel":0.496,"inst":"xylophone_v0_plucked_129","midi_source":""},{"t":29.708,"note":50,"dur":0.045,"vel":0.496,"inst":"banjo_v0_plucked_142","midi_source":""},{"t":29.708,"note":55,"dur":0.045,"vel":0.496,"inst":"xylophone_v0_plucked_129","midi_source":""},{"t":29.708,"note":72,"dur":0.045,"vel":0.496,"inst":"pad_string_v0_bass_416","midi_source":""},{"t":29.708,"note":67,"dur":0.045,"vel":0.496,"inst":"xylophone_v0_plucked_129","midi_source":""},{"t":29.752,"note":53,"dur":0.045,"vel":0.496,"inst":"banjo_v0_plucked_142","midi_source":""},{"t":29.752,"note":67,"dur":0.045,"vel":0.496,"inst":"xylophone_v0_plucked_129","midi_source":""},{"t":29.752,"note":73,"dur":0.045,"vel":0.496,"inst":"xylophone_v0_plucked_129","midi_source":""},{"t":29.752,"note":77,"dur":0.045,"vel":0.496,"inst":"banjo_v0_plucked_142","midi_source":""},{"t":29.797,"note":43,"dur":0.045,"vel":0.496,"inst":"xylophone_v0_plucked_129","midi_source":""},{"t":29.797,"note":55,"dur":0.045,"vel":0.496,"inst":"xylophone_v0_plucked_129","midi_source":""},{"t":29.797,"note":70,"dur":0.045,"vel":0.496,"inst":"xylophone_v0_plucked_129","midi_source":""},{"t":29.797,"note":74,"dur":0.045,"vel":0.496,"inst":"banjo_v0_plucked_142","midi_source":""},{"t":29.842,"note":61,"dur":0.045,"vel":0.496,"inst":"xylophone_v0_plucked_129","midi_source":""},{"t":29.842,"note":77,"dur":0.045,"vel":0.496,"inst":"banjo_v0_plucked_142","midi_source":""},{"t":29.886,"note":43,"dur":0.02,"vel":0.496,"inst":"xylophone_v0_plucked_129","midi_source":""},{"t":29.886,"note":65,"dur":0.045,"vel":0.496,"inst":"banjo_v0_plucked_142","midi_source":""},{"t":29.886,"note":70,"dur":0.02,"vel":0.496,"inst":"xylophone_v0_plucked_129","midi_source":""},{"t":29.886,"note":73,"dur":0.045,"vel":0.496,"inst":"xylophone_v0_plucked_129","midi_source":""},{"t":29.931,"note":46,"dur":0.045,"vel":0.496,"inst":"xylophone_v0_plucked_129","midi_source":""},{"t":29.931,"note":65,"dur":0.045,"vel":0.496,"inst":"banjo_v0_plucked_142","midi_source":""},{"t":29.931,"note":70,"dur":0.045,"vel":0.496,"inst":"xylophone_v0_plucked_129","midi_source":""},{"t":29.931,"note":73,"dur":0.134,"vel":0.496,"inst":"xylophone_v0_plucked_129","midi_source":""},{"t":29.976,"note":43,"dur":0.045,"vel":0.496,"inst":"xylophone_v0_plucked_129","midi_source":""},{"t":29.976,"note":65,"dur":0.045,"vel":0.496,"inst":"banjo_v0_plucked_142","midi_source":""},{"t":29.976,"note":55,"dur":0.045,"vel":0.496,"inst":"xylophone_v0_plucked_129","midi_source":""},{"t":30.021,"note":58,"dur":0.045,"vel":0.496,"inst":"xylophone_v0_plucked_129","midi_source":""},{"t":30.021,"note":65,"dur":0.045,"vel":0.496,"inst":"banjo_v0_plucked_142","midi_source":""},{"t":30.021,"note":55,"dur":0.045,"vel":0.496,"inst":"xylophone_v0_plucked_129","midi_source":""},{"t":30.065,"note":58,"dur":0.268,"vel":0.496,"inst":"xylophone_v0_plucked_129","midi_source":""},{"t":30.065,"note":62,"dur":0.045,"vel":0.496,"inst":"banjo_v0_plucked_142","midi_source":""},{"t":30.065,"note":55,"dur":0.179,"vel":0.496,"inst":"xylophone_v0_plucked_129","midi_source":""},{"t":30.065,"note":70,"dur":0.134,"vel":0.496,"inst":"xylophone_v0_plucked_129","midi_source":""},{"t":30.11,"note":55,"dur":0.045,"vel":0.496,"inst":"xylophone_v0_plucked_129","midi_source":""},{"t":30.155,"note":70,"dur":0.045,"vel":0.496,"inst":"xylophone_v0_plucked_129","midi_source":""},{"t":30.2,"note":70,"dur":0.045,"vel":0.496,"inst":"xylophone_v0_plucked_129","midi_source":""},{"t":30.244,"note":62,"dur":0.045,"vel":0.496,"inst":"banjo_v0_plucked_142","midi_source":""},{"t":30.244,"note":55,"dur":0.045,"vel":0.496,"inst":"xylophone_v0_plucked_129","midi_source":""},{"t":30.289,"note":61,"dur":0.045,"vel":0.496,"inst":"xylophone_v0_plucked_129","midi_source":""},{"t":30.289,"note":65,"dur":0.045,"vel":0.496,"inst":"banjo_v0_plucked_142","midi_source":""},{"t":30.334,"note":58,"dur":0.045,"vel":0.496,"inst":"xylophone_v0_plucked_129","midi_source":""},{"t":30.334,"note":58,"dur":0.134,"vel":0.496,"inst":"xylophone_v0_plucked_129","midi_source":""},{"t":30.334,"note":62,"dur":0.134,"vel":0.496,"inst":"banjo_v0_plucked_142","midi_source":""},{"t":30.379,"note":62,"dur":0.045,"vel":0.496,"inst":"banjo_v0_plucked_142","midi_source":""},{"t":30.423,"note":55,"dur":0.045,"vel":0.496,"inst":"xylophone_v0_plucked_129","midi_source":""},{"t":30.468,"note":55,"dur":0.134,"vel":0.496,"inst":"xylophone_v0_plucked_129","midi_source":""},{"t":30.468,"note":58,"dur":0.045,"vel":0.496,"inst":"xylophone_v0_plucked_129","midi_source":""},{"t":30.468,"note":65,"dur":0.134,"vel":0.496,"inst":"banjo_v0_plucked_142","midi_source":""},{"t":30.468,"note":70,"dur":0.313,"vel":0.496,"inst":"xylophone_v0_plucked_129","midi_source":""},{"t":30.513,"note":62,"dur":0.045,"vel":0.496,"inst":"banjo_v0_plucked_142","midi_source":""},{"t":30.557,"note":67,"dur":0.045,"vel":0.496,"inst":"xylophone_v0_plucked_129","midi_source":""},{"t":30.602,"note":43,"dur":0.134,"vel":0.496,"inst":"xylophone_v0_plucked_129","midi_source":""},{"t":30.602,"note":55,"dur":0.045,"vel":0.496,"inst":"xylophone_v0_plucked_129","midi_source":""},{"t":30.602,"note":70,"dur":0.134,"vel":0.496,"inst":"xylophone_v0_plucked_129","midi_source":""},{"t":30.647,"note":70,"dur":0.045,"vel":0.496,"inst":"xylophone_v0_plucked_129","midi_source":""},{"t":30.692,"note":74,"dur":0.045,"vel":0.496,"inst":"banjo_v0_plucked_142","midi_source":""},{"t":30.736,"note":53,"dur":0.313,"vel":0.496,"inst":"banjo_v0_plucked_142","midi_source":""},{"t":30.736,"note":67,"dur":0.313,"vel":0.496,"inst":"xylophone_v0_plucked_129","midi_source":""},{"t":30.736,"note":77,"dur":0.313,"vel":0.496,"inst":"banjo_v0_plucked_142","midi_source":""},{"t":30.781,"note":65,"dur":0.045,"vel":0.496,"inst":"banjo_v0_plucked_142","midi_source":""},{"t":30.826,"note":55,"dur":0.045,"vel":0.496,"inst":"xylophone_v0_plucked_129","midi_source":""},{"t":30.871,"note":67,"dur":0.045,"vel":0.496,"inst":"xylophone_v0_plucked_129","midi_source":""},{"t":30.916,"note":70,"dur":0.045,"vel":0.496,"inst":"xylophone_v0_plucked_129","midi_source":""},{"t":30.96,"note":77,"dur":0.045,"vel":0.496,"inst":"banjo_v0_plucked_142","midi_source":""},{"t":31.005,"note":79,"dur":0.045,"vel":0.496,"inst":"xylophone_v0_plucked_129","midi_source":""},{"t":31.05,"note":46,"dur":0.045,"vel":0.496,"inst":"xylophone_v0_plucked_129","midi_source":""},{"t":31.05,"note":67,"dur":0.045,"vel":0.496,"inst":"xylophone_v0_plucked_129","midi_source":""},{"t":31.05,"note":70,"dur":0.045,"vel":0.496,"inst":"xylophone_v0_plucked_129","midi_source":""},{"t":31.05,"note":82,"dur":0.045,"vel":0.496,"inst":"xylophone_v0_plucked_129","midi_source":""},{"t":31.094,"note":49,"dur":0.045,"vel":0.496,"inst":"xylophone_v0_plucked_129","midi_source":""},{"t":31.094,"note":55,"dur":0.045,"vel":0.496,"inst":"xylophone_v0_plucked_129","midi_source":""},{"t":31.094,"note":70,"dur":0.045,"vel":0.496,"inst":"xylophone_v0_plucked_129","midi_source":""},{"t":31.094,"note":82,"dur":0.045,"vel":0.496,"inst":"xylophone_v0_plucked_129","midi_source":""},{"t":31.139,"note":50,"dur":0.067,"vel":0.496,"inst":"banjo_v0_plucked_142","midi_source":""},{"t":31.139,"note":65,"dur":0.134,"vel":0.496,"inst":"banjo_v0_plucked_142","midi_source":""},{"t":31.139,"note":67,"dur":0.134,"vel":0.496,"inst":"xylophone_v0_plucked_129","midi_source":""},{"t":31.139,"note":79,"dur":0.134,"vel":0.496,"inst":"xylophone_v0_plucked_129","midi_source":""},{"t":31.206,"note":58,"dur":0.067,"vel":0.496,"inst":"xylophone_v0_plucked_129","midi_source":""},{"t":31.273,"note":49,"dur":0.134,"vel":0.496,"inst":"xylophone_v0_plucked_129","midi_source":""},{"t":31.273,"note":58,"dur":0.045,"vel":0.496,"inst":"xylophone_v0_plucked_129","midi_source":""},{"t":31.273,"note":65,"dur":0.134,"vel":0.496,"inst":"banjo_v0_plucked_142","midi_source":""},{"t":31.273,"note":82,"dur":0.134,"vel":0.496,"inst":"xylophone_v0_plucked_129","midi_source":""},{"t":31.318,"note":61,"dur":0.045,"vel":0.496,"inst":"xylophone_v0_plucked_129","midi_source":""},{"t":31.363,"note":65,"dur":0.045,"vel":0.496,"inst":"banjo_v0_plucked_142","midi_source":""},{"t":31.408,"note":46,"dur":0.134,"vel":0.496,"inst":"xylophone_v0_plucked_129","midi_source":""},{"t":31.408,"note":62,"dur":0.134,"vel":0.496,"inst":"banjo_v0_plucked_142","midi_source":""},{"t":31.408,"note":67,"dur":0.045,"vel":0.496,"inst":"xylophone_v0_plucked_129","midi_source":""},{"t":31.408,"note":82,"dur":0.134,"vel":0.496,"inst":"xylophone_v0_plucked_129","midi_source":""},{"t":31.452,"note":70,"dur":0.045,"vel":0.496,"inst":"xylophone_v0_plucked_129","midi_source":""},{"t":31.497,"note":77,"dur":0.045,"vel":0.496,"inst":"banjo_v0_plucked_142","midi_source":""},{"t":31.542,"note":46,"dur":0.045,"vel":0.496,"inst":"xylophone_v0_plucked_129","midi_source":""},{"t":31.542,"note":61,"dur":0.134,"vel":0.496,"inst":"xylophone_v0_plucked_129","midi_source":""},{"t":31.542,"note":77,"dur":0.067,"vel":0.496,"inst":"banjo_v0_plucked_142","midi_source":""},{"t":31.542,"note":85,"dur":0.313,"vel":0.496,"inst":"xylophone_v0_plucked_129","midi_source":""},{"t":31.587,"note":49,"dur":0.045,"vel":0.496,"inst":"xylophone_v0_plucked_129","midi_source":""},{"t":31.609,"note":82,"dur":0.246,"vel":0.496,"inst":"xylophone_v0_plucked_129","midi_source":""},{"t":31.631,"note":53,"dur":0.045,"vel":0.496,"inst":"banjo_v0_plucked_142","midi_source":""},{"t":31.676,"note":55,"dur":0.045,"vel":0.496,"inst":"xylophone_v0_plucked_129","midi_source":""},{"t":31.676,"note":65,"dur":0.134,"vel":0.496,"inst":"banjo_v0_plucked_142","midi_source":""},{"t":31.721,"note":58,"dur":0.045,"vel":0.496,"inst":"xylophone_v0_plucked_129","midi_source":""},{"t":31.765,"note":61,"dur":0.045,"vel":0.496,"inst":"xylophone_v0_plucked_129","midi_source":""},{"t":31.81,"note":65,"dur":0.045,"vel":0.496,"inst":"banjo_v0_plucked_142","midi_source":""},{"t":31.81,"note":73,"dur":0.045,"vel":0.496,"inst":"xylophone_v0_plucked_129","midi_source":""},{"t":31.855,"note":67,"dur":0.045,"vel":0.496,"inst":"xylophone_v0_plucked_129","midi_source":""},{"t":31.855,"note":70,"dur":0.045,"vel":0.496,"inst":"xylophone_v0_plucked_129","midi_source":""},{"t":31.855,"note":82,"dur":0.045,"vel":0.496,"inst":"xylophone_v0_plucked_129","midi_source":""},{"t":31.855,"note":86,"dur":0.045,"vel":0.496,"inst":"banjo_v0_plucked_142","midi_source":""},{"t":31.9,"note":70,"dur":0.045,"vel":0.496,"inst":"xylophone_v0_plucked_129","midi_source":""},{"t":31.9,"note":73,"dur":0.045,"vel":0.496,"inst":"xylophone_v0_plucked_129","midi_source":""},{"t":31.9,"note":82,"dur":0.045,"vel":0.496,"inst":"xylophone_v0_plucked_129","midi_source":""},{"t":31.9,"note":85,"dur":0.045,"vel":0.496,"inst":"xylophone_v0_plucked_129","midi_source":""},{"t":31.944,"note":49,"dur":0.045,"vel":0.496,"inst":"xylophone_v0_plucked_129","midi_source":""},{"t":31.944,"note":73,"dur":0.067,"vel":0.496,"inst":"xylophone_v0_plucked_129","midi_source":""},{"t":31.944,"note":82,"dur":0.067,"vel":0.496,"inst":"xylophone_v0_plucked_129","midi_source":""},{"t":31.944,"note":85,"dur":0.067,"vel":0.496,"inst":"xylophone_v0_plucked_129","midi_source":""},{"t":31.989,"note":53,"dur":0.045,"vel":0.496,"inst":"banjo_v0_plucked_142","midi_source":""},{"t":32.011,"note":65,"dur":0.246,"vel":0.496,"inst":"banjo_v0_plucked_142","midi_source":""},{"t":32.011,"note":79,"dur":0.246,"vel":0.496,"inst":"xylophone_v0_plucked_129","midi_source":""},{"t":32.011,"note":82,"dur":0.246,"vel":0.496,"inst":"xylophone_v0_plucked_129","midi_source":""},{"t":32.034,"note":55,"dur":0.045,"vel":0.496,"inst":"xylophone_v0_plucked_129","midi_source":""},{"t":32.079,"note":58,"dur":0.045,"vel":0.496,"inst":"xylophone_v0_plucked_129","midi_source":""},{"t":32.123,"note":61,"dur":0.045,"vel":0.496,"inst":"xylophone_v0_plucked_129","midi_source":""},{"t":32.168,"note":65,"dur":0.045,"vel":0.496,"inst":"banjo_v0_plucked_142","midi_source":""},{"t":32.213,"note":67,"dur":0.045,"vel":0.496,"inst":"xylophone_v0_plucked_129","midi_source":""},{"t":32.258,"note":49,"dur":0.045,"vel":0.496,"inst":"xylophone_v0_plucked_129","midi_source":""},{"t":32.258,"note":82,"dur":0.045,"vel":0.496,"inst":"xylophone_v0_plucked_129","midi_source":""},{"t":32.258,"note":85,"dur":0.045,"vel":0.496,"inst":"xylophone_v0_plucked_129","midi_source":""},{"t":32.302,"note":53,"dur":0.045,"vel":0.496,"inst":"banjo_v0_plucked_142","midi_source":""},{"t":32.302,"note":73,"dur":0.02,"vel":0.496,"inst":"xylophone_v0_plucked_129","midi_source":""},{"t":32.302,"note":79,"dur":0.045,"vel":0.496,"inst":"xylophone_v0_plucked_129","midi_source":""},{"t":32.302,"note":82,"dur":0.045,"vel":0.496,"inst":"xylophone_v0_plucked_129","midi_source":""},{"t":32.347,"note":43,"dur":0.045,"vel":0.496,"inst":"xylophone_v0_plucked_129","midi_source":""},{"t":32.347,"note":73,"dur":0.067,"vel":0.496,"inst":"xylophone_v0_plucked_129","midi_source":""},{"t":32.347,"note":79,"dur":0.067,"vel":0.496,"inst":"xylophone_v0_plucked_129","midi_source":""},{"t":32.347,"note":82,"dur":0.067,"vel":0.496,"inst":"xylophone_v0_plucked_129","midi_source":""},{"t":32.392,"note":58,"dur":0.045,"vel":0.496,"inst":"xylophone_v0_plucked_129","midi_source":""},{"t":32.414,"note":61,"dur":0.246,"vel":0.496,"inst":"xylophone_v0_plucked_129","midi_source":""},{"t":32.414,"note":67,"dur":0.201,"vel":0.496,"inst":"xylophone_v0_plucked_129","midi_source":""},{"t":32.414,"note":82,"dur":0.246,"vel":0.496,"inst":"xylophone_v0_plucked_129","midi_source":""},{"t":32.436,"note":61,"dur":0.045,"vel":0.496,"inst":"xylophone_v0_plucked_129","midi_source":""},{"t":32.481,"note":65,"dur":0.045,"vel":0.496,"inst":"banjo_v0_plucked_142","midi_source":""},{"t":32.526,"note":55,"dur":0.045,"vel":0.496,"inst":"xylophone_v0_plucked_129","midi_source":""},{"t":32.571,"note":70,"dur":0.045,"vel":0.496,"inst":"xylophone_v0_plucked_129","midi_source":""},{"t":32.615,"note":73,"dur":0.045,"vel":0.496,"inst":"xylophone_v0_plucked_129","midi_source":""},{"t":32.615,"note":67,"dur":0.045,"vel":0.496,"inst":"xylophone_v0_plucked_129","midi_source":""},{"t":32.66,"note":43,"dur":0.045,"vel":0.496,"inst":"xylophone_v0_plucked_129","midi_source":""},{"t":32.66,"note":70,"dur":0.045,"vel":0.496,"inst":"xylophone_v0_plucked_129","midi_source":""},{"t":32.66,"note":85,"dur":0.045,"vel":0.496,"inst":"xylophone_v0_plucked_129","midi_source":""},{"t":32.705,"note":55,"dur":0.045,"vel":0.496,"inst":"xylophone_v0_plucked_129","midi_source":""},{"t":32.705,"note":65,"dur":0.045,"vel":0.496,"inst":"banjo_v0_plucked_142","midi_source":""},{"t":32.705,"note":73,"dur":0.02,"vel":0.496,"inst":"xylophone_v0_plucked_129","midi_source":""},{"t":32.705,"note":82,"dur":0.045,"vel":0.496,"inst":"xylophone_v0_plucked_129","midi_source":""},{"t":32.75,"note":46,"dur":0.045,"vel":0.496,"inst":"xylophone_v0_plucked_129","midi_source":""},{"t":32.75,"note":55,"dur":0.313,"vel":0.496,"inst":"xylophone_v0_plucked_129","midi_source":""},{"t":32.75,"note":73,"dur":0.313,"vel":0.496,"inst":"xylophone_v0_plucked_129","midi_source":""},{"t":32.75,"note":82,"dur":0.067,"vel":0.496,"inst":"xylophone_v0_plucked_129","midi_source":""},{"t":32.794,"note":49,"dur":0.045,"vel":0.496,"inst":"xylophone_v0_plucked_129","midi_source":""},{"t":32.817,"note":82,"dur":0.067,"vel":0.496,"inst":"xylophone_v0_plucked_129","midi_source":""},{"t":32.839,"note":43,"dur":0.045,"vel":0.496,"inst":"xylophone_v0_plucked_129","midi_source":""},{"t":32.884,"note":58,"dur":0.045,"vel":0.496,"inst":"xylophone_v0_plucked_129","midi_source":""},{"t":32.884,"note":79,"dur":0.067,"vel":0.496,"inst":"xylophone_v0_plucked_129","midi_source":""},{"t":32.929,"note":61,"dur":0.045,"vel":0.496,"inst":"xylophone_v0_plucked_129","midi_source":""},{"t":32.951,"note":67,"dur":0.067,"vel":0.496,"inst":"xylophone_v0_plucked_129","midi_source":""},{"t":32.973,"note":55,"dur":0.045,"vel":0.496,"inst":"xylophone_v0_plucked_129","midi_source":""},{"t":33.018,"note":70,"dur":0.045,"vel":0.496,"inst":"xylophone_v0_plucked_129","midi_source":""},{"t":33.018,"note":86,"dur":0.045,"vel":0.496,"inst":"banjo_v0_plucked_142","midi_source":""},{"t":33.063,"note":58,"dur":0.045,"vel":0.496,"inst":"xylophone_v0_plucked_129","midi_source":""},{"t":33.063,"note":55,"dur":0.045,"vel":0.496,"inst":"xylophone_v0_plucked_129","midi_source":""},{"t":33.063,"note":73,"dur":0.045,"vel":0.496,"inst":"xylophone_v0_plucked_129","midi_source":""},{"t":33.063,"note":85,"dur":0.045,"vel":0.496,"inst":"xylophone_v0_plucked_129","midi_source":""},{"t":33.107,"note":46,"dur":0.045,"vel":0.496,"inst":"xylophone_v0_plucked_129","midi_source":""},{"t":33.107,"note":55,"dur":0.045,"vel":0.496,"inst":"xylophone_v0_plucked_129","midi_source":""},{"t":33.107,"note":70,"dur":0.045,"vel":0.496,"inst":"xylophone_v0_plucked_129","midi_source":""},{"t":33.107,"note":74,"dur":0.045,"vel":0.496,"inst":"banjo_v0_plucked_142","midi_source":""},{"t":33.152,"note":43,"dur":0.045,"vel":0.496,"inst":"xylophone_v0_plucked_129","midi_source":""},{"t":33.152,"note":65,"dur":0.045,"vel":0.496,"inst":"banjo_v0_plucked_142","midi_source":""},{"t":33.152,"note":70,"dur":0.045,"vel":0.496,"inst":"xylophone_v0_plucked_129","midi_source":""},{"t":33.152,"note":67,"dur":0.034,"vel":0.496,"inst":"xylophone_v0_plucked_129","midi_source":""},{"t":33.186,"note":77,"dur":0.034,"vel":0.496,"inst":"banjo_v0_plucked_142","midi_source":""},{"t":33.197,"note":49,"dur":0.045,"vel":0.496,"inst":"xylophone_v0_plucked_129","midi_source":""},{"t":33.197,"note":65,"dur":0.045,"vel":0.496,"inst":"banjo_v0_plucked_142","midi_source":""},{"t":33.197,"note":70,"dur":0.045,"vel":0.496,"inst":"xylophone_v0_plucked_129","midi_source":""},{"t":33.219,"note":82,"dur":0.034,"vel":0.496,"inst":"xylophone_v0_plucked_129","midi_source":""},{"t":33.242,"note":46,"dur":0.045,"vel":0.496,"inst":"xylophone_v0_plucked_129","midi_source":""},{"t":33.242,"note":73,"dur":0.045,"vel":0.496,"inst":"xylophone_v0_plucked_129","midi_source":""},{"t":33.242,"note":77,"dur":0.045,"vel":0.496,"inst":"banjo_v0_plucked_142","midi_source":""},{"t":33.253,"note":82,"dur":0.034,"vel":0.496,"inst":"xylophone_v0_plucked_129","midi_source":""},{"t":33.286,"note":46,"dur":0.045,"vel":0.992,"inst":"xylophone_v0_plucked_129","midi_source":""},{"t":33.286,"note":70,"dur":0.045,"vel":0.992,"inst":"xylophone_v0_plucked_129","midi_source":""},{"t":33.286,"note":77,"dur":0.045,"vel":0.992,"inst":"banjo_v0_plucked_142","midi_source":""},{"t":33.286,"note":79,"dur":0.134,"vel":0.992,"inst":"xylophone_v0_plucked_129","midi_source":""},{"t":33.331,"note":58,"dur":0.045,"vel":0.992,"inst":"xylophone_v0_plucked_129","midi_source":""},{"t":33.331,"note":67,"dur":0.045,"vel":0.992,"inst":"xylophone_v0_plucked_129","midi_source":""},{"t":33.331,"note":70,"dur":0.045,"vel":0.992,"inst":"xylophone_v0_plucked_129","midi_source":""},{"t":33.376,"note":46,"dur":0.045,"vel":0.992,"inst":"xylophone_v0_plucked_129","midi_source":""},{"t":33.376,"note":65,"dur":0.045,"vel":0.992,"inst":"banjo_v0_plucked_142","midi_source":""},{"t":33.376,"note":67,"dur":0.045,"vel":0.992,"inst":"xylophone_v0_plucked_129","midi_source":""},{"t":33.421,"note":46,"dur":0.045,"vel":0.992,"inst":"xylophone_v0_plucked_129","midi_source":""},{"t":33.421,"note":62,"dur":0.045,"vel":0.992,"inst":"banjo_v0_plucked_142","midi_source":""},{"t":33.421,"note":70,"dur":0.045,"vel":0.992,"inst":"xylophone_v0_plucked_129","midi_source":""},{"t":33.421,"note":67,"dur":0.045,"vel":0.992,"inst":"xylophone_v0_plucked_129","midi_source":""},{"t":33.465,"note":85,"dur":0.045,"vel":0.992,"inst":"xylophone_v0_plucked_129","midi_source":""},{"t":33.51,"note":46,"dur":0.02,"vel":0.992,"inst":"xylophone_v0_plucked_129","midi_source":""},{"t":33.51,"note":62,"dur":0.02,"vel":0.992,"inst":"banjo_v0_plucked_142","midi_source":""},{"t":33.51,"note":70,"dur":0.02,"vel":0.992,"inst":"xylophone_v0_plucked_129","midi_source":""},{"t":33.51,"note":82,"dur":0.045,"vel":0.992,"inst":"xylophone_v0_plucked_129","midi_source":""},{"t":33.555,"note":53,"dur":0.045,"vel":0.496,"inst":"banjo_v0_plucked_142","midi_source":""},{"t":33.555,"note":65,"dur":0.067,"vel":0.496,"inst":"banjo_v0_plucked_142","midi_source":""},{"t":33.555,"note":67,"dur":0.134,"vel":0.496,"inst":"xylophone_v0_plucked_129","midi_source":""},{"t":33.555,"note":77,"dur":0.134,"vel":0.496,"inst":"banjo_v0_plucked_142","midi_source":""},{"t":33.6,"note":43,"dur":0.045,"vel":0.496,"inst":"xylophone_v0_plucked_129","midi_source":""},{"t":33.644,"note":55,"dur":0.045,"vel":0.496,"inst":"xylophone_v0_plucked_129","midi_source":""},{"t":33.689,"note":53,"dur":0.268,"vel":0.496,"inst":"banjo_v0_plucked_142","midi_source":""},{"t":33.689,"note":58,"dur":0.268,"vel":0.496,"inst":"xylophone_v0_plucked_129","midi_source":""},{"t":33.689,"note":61,"dur":0.045,"vel":0.496,"inst":"xylophone_v0_plucked_129","midi_source":""},{"t":33.689,"note":73,"dur":0.201,"vel":0.496,"inst":"xylophone_v0_plucked_129","midi_source":""},{"t":33.734,"note":62,"dur":0.045,"vel":0.496,"inst":"banjo_v0_plucked_142","midi_source":""},{"t":33.778,"note":65,"dur":0.045,"vel":0.496,"inst":"banjo_v0_plucked_142","midi_source":""},{"t":33.823,"note":55,"dur":0.045,"vel":0.496,"inst":"xylophone_v0_plucked_129","midi_source":""},{"t":33.823,"note":55,"dur":0.134,"vel":0.496,"inst":"xylophone_v0_plucked_129","midi_source":""},{"t":33.868,"note":67,"dur":0.045,"vel":0.496,"inst":"xylophone_v0_plucked_129","midi_source":""},{"t":33.89,"note":67,"dur":0.067,"vel":0.496,"inst":"xylophone_v0_plucked_129","midi_source":""},{"t":33.913,"note":70,"dur":0.045,"vel":0.496,"inst":"xylophone_v0_plucked_129","midi_source":""},{"t":33.957,"note":53,"dur":0.045,"vel":0.496,"inst":"banjo_v0_plucked_142","midi_source":""},{"t":33.957,"note":58,"dur":0.045,"vel":0.496,"inst":"xylophone_v0_plucked_129","midi_source":""},{"t":33.957,"note":55,"dur":0.403,"vel":0.496,"inst":"xylophone_v0_plucked_129","midi_source":""},{"t":33.957,"note":70,"dur":0.403,"vel":0.496,"inst":"xylophone_v0_plucked_129","midi_source":""},{"t":33.957,"note":77,"dur":0.134,"vel":0.496,"inst":"banjo_v0_plucked_142","midi_source":""},{"t":34.047,"note":53,"dur":0.02,"vel":0.496,"inst":"banjo_v0_plucked_142","midi_source":""},{"t":34.047,"note":58,"dur":0.02,"vel":0.496,"inst":"xylophone_v0_plucked_129","midi_source":""},{"t":34.092,"note":58,"dur":0.045,"vel":0.496,"inst":"xylophone_v0_plucked_129","midi_source":""},{"t":34.092,"note":67,"dur":0.168,"vel":0.496,"inst":"xylophone_v0_plucked_129","midi_source":""},{"t":34.136,"note":60,"dur":0.045,"vel":0.496,"inst":"pad_string_v0_bass_416","midi_source":""},{"t":34.181,"note":62,"dur":0.045,"vel":0.496,"inst":"banjo_v0_plucked_142","midi_source":""},{"t":34.226,"note":49,"dur":0.134,"vel":0.496,"inst":"xylophone_v0_plucked_129","midi_source":""},{"t":34.226,"note":65,"dur":0.134,"vel":0.496,"inst":"banjo_v0_plucked_142","midi_source":""},{"t":34.226,"note":70,"dur":0.045,"vel":0.496,"inst":"xylophone_v0_plucked_129","midi_source":""},{"t":34.259,"note":79,"dur":0.034,"vel":0.496,"inst":"xylophone_v0_plucked_129","midi_source":""},{"t":34.271,"note":73,"dur":0.045,"vel":0.496,"inst":"xylophone_v0_plucked_129","midi_source":""},{"t":34.293,"note":79,"dur":0.034,"vel":0.496,"inst":"xylophone_v0_plucked_129","midi_source":""},{"t":34.315,"note":77,"dur":0.045,"vel":0.496,"inst":"banjo_v0_plucked_142","midi_source":""},{"t":34.326,"note":82,"dur":0.034,"vel":0.496,"inst":"xylophone_v0_plucked_129","midi_source":""},{"t":34.36,"note":48,"dur":0.045,"vel":0.496,"inst":"pad_string_v0_bass_416","midi_source":""},{"t":34.36,"note":62,"dur":0.045,"vel":0.496,"inst":"banjo_v0_plucked_142","midi_source":""},{"t":34.36,"note":74,"dur":0.045,"vel":0.496,"inst":"banjo_v0_plucked_142","midi_source":""},{"t":34.36,"note":79,"dur":0.179,"vel":0.496,"inst":"xylophone_v0_plucked_129","midi_source":""},{"t":34.405,"note":50,"dur":0.045,"vel":0.496,"inst":"banjo_v0_plucked_142","midi_source":""},{"t":34.449,"note":55,"dur":0.045,"vel":0.496,"inst":"xylophone_v0_plucked_129","midi_source":""},{"t":34.449,"note":55,"dur":0.02,"vel":0.496,"inst":"xylophone_v0_plucked_129","midi_source":""},{"t":34.449,"note":67,"dur":0.02,"vel":0.496,"inst":"xylophone_v0_plucked_129","midi_source":""},{"t":34.494,"note":49,"dur":0.045,"vel":0.496,"inst":"xylophone_v0_plucked_129","midi_source":""},{"t":34.494,"note":65,"dur":0.045,"vel":0.496,"inst":"banjo_v0_plucked_142","midi_source":""},{"t":34.494,"note":67,"dur":0.045,"vel":0.496,"inst":"xylophone_v0_plucked_129","midi_source":""},{"t":34.539,"note":50,"dur":0.045,"vel":0.496,"inst":"banjo_v0_plucked_142","midi_source":""},{"t":34.539,"note":55,"dur":0.045,"vel":0.496,"inst":"xylophone_v0_plucked_129","midi_source":""},{"t":34.539,"note":72,"dur":0.045,"vel":0.496,"inst":"pad_string_v0_bass_416","midi_source":""},{"t":34.539,"note":67,"dur":0.045,"vel":0.496,"inst":"xylophone_v0_plucked_129","midi_source":""},{"t":34.584,"note":53,"dur":0.045,"vel":0.496,"inst":"banjo_v0_plucked_142","midi_source":""},{"t":34.584,"note":67,"dur":0.045,"vel":0.496,"inst":"xylophone_v0_plucked_129","midi_source":""},{"t":34.584,"note":73,"dur":0.045,"vel":0.496,"inst":"xylophone_v0_plucked_129","midi_source":""},{"t":34.584,"note":77,"dur":0.045,"vel":0.496,"inst":"banjo_v0_plucked_142","midi_source":""},{"t":34.628,"note":43,"dur":0.045,"vel":0.496,"inst":"xylophone_v0_plucked_129","midi_source":""},{"t":34.628,"note":55,"dur":0.045,"vel":0.496,"inst":"xylophone_v0_plucked_129","midi_source":""},{"t":34.628,"note":70,"dur":0.045,"vel":0.496,"inst":"xylophone_v0_plucked_129","midi_source":""},{"t":34.628,"note":74,"dur":0.045,"vel":0.496,"inst":"banjo_v0_plucked_142","midi_source":""},{"t":34.673,"note":61,"dur":0.045,"vel":0.496,"inst":"xylophone_v0_plucked_129","midi_source":""},{"t":34.673,"note":77,"dur":0.045,"vel":0.496,"inst":"banjo_v0_plucked_142","midi_source":""},{"t":34.718,"note":43,"dur":0.02,"vel":0.496,"inst":"xylophone_v0_plucked_129","midi_source":""},{"t":34.718,"note":65,"dur":0.045,"vel":0.496,"inst":"banjo_v0_plucked_142","midi_source":""},{"t":34.718,"note":70,"dur":0.02,"vel":0.496,"inst":"xylophone_v0_plucked_129","midi_source":""},{"t":34.718,"note":73,"dur":0.045,"vel":0.496,"inst":"xylophone_v0_plucked_129","midi_source":""},{"t":34.763,"note":46,"dur":0.045,"vel":0.496,"inst":"xylophone_v0_plucked_129","midi_source":""},{"t":34.763,"note":65,"dur":0.045,"vel":0.496,"inst":"banjo_v0_plucked_142","midi_source":""},{"t":34.763,"note":70,"dur":0.045,"vel":0.496,"inst":"xylophone_v0_plucked_129","midi_source":""},{"t":34.763,"note":73,"dur":0.134,"vel":0.496,"inst":"xylophone_v0_plucked_129","midi_source":""},{"t":34.807,"note":43,"dur":0.045,"vel":0.496,"inst":"xylophone_v0_plucked_129","midi_source":""},{"t":34.807,"note":65,"dur":0.045,"vel":0.496,"inst":"banjo_v0_plucked_142","midi_source":""},{"t":34.807,"note":55,"dur":0.045,"vel":0.496,"inst":"xylophone_v0_plucked_129","midi_source":""},{"t":34.852,"note":58,"dur":0.045,"vel":0.496,"inst":"xylophone_v0_plucked_129","midi_source":""},{"t":34.852,"note":65,"dur":0.045,"vel":0.496,"inst":"banjo_v0_plucked_142","midi_source":""},{"t":34.852,"note":55,"dur":0.045,"vel":0.496,"inst":"xylophone_v0_plucked_129","midi_source":""},{"t":34.897,"note":58,"dur":0.268,"vel":0.496,"inst":"xylophone_v0_plucked_129","midi_source":""},{"t":34.897,"note":62,"dur":0.045,"vel":0.496,"inst":"banjo_v0_plucked_142","midi_source":""},{"t":34.897,"note":55,"dur":0.179,"vel":0.496,"inst":"xylophone_v0_plucked_129","midi_source":""},{"t":34.897,"note":70,"dur":0.134,"vel":0.496,"inst":"xylophone_v0_plucked_129","midi_source":""},{"t":34.942,"note":55,"dur":0.045,"vel":0.496,"inst":"xylophone_v0_plucked_129","midi_source":""},{"t":34.986,"note":70,"dur":0.045,"vel":0.496,"inst":"xylophone_v0_plucked_129","midi_source":""},{"t":35.031,"note":70,"dur":0.045,"vel":0.496,"inst":"xylophone_v0_plucked_129","midi_source":""},{"t":35.076,"note":62,"dur":0.045,"vel":0.496,"inst":"banjo_v0_plucked_142","midi_source":""},{"t":35.076,"note":55,"dur":0.045,"vel":0.496,"inst":"xylophone_v0_plucked_129","midi_source":""},{"t":35.12,"note":61,"dur":0.045,"vel":0.496,"inst":"xylophone_v0_plucked_129","midi_source":""},{"t":35.12,"note":65,"dur":0.045,"vel":0.496,"inst":"banjo_v0_plucked_142","midi_source":""},{"t":35.165,"note":58,"dur":0.045,"vel":0.496,"inst":"xylophone_v0_plucked_129","midi_source":""},{"t":35.165,"note":58,"dur":0.134,"vel":0.496,"inst":"xylophone_v0_plucked_129","midi_source":""},{"t":35.165,"note":62,"dur":0.134,"vel":0.496,"inst":"banjo_v0_plucked_142","midi_source":""},{"t":35.21,"note":62,"dur":0.045,"vel":0.496,"inst":"banjo_v0_plucked_142","midi_source":""},{"t":35.255,"note":55,"dur":0.045,"vel":0.496,"inst":"xylophone_v0_plucked_129","midi_source":""},{"t":35.299,"note":55,"dur":0.134,"vel":0.496,"inst":"xylophone_v0_plucked_129","midi_source":""},{"t":35.299,"note":58,"dur":0.045,"vel":0.496,"inst":"xylophone_v0_plucked_129","midi_source":""},{"t":35.299,"note":65,"dur":0.134,"vel":0.496,"inst":"banjo_v0_plucked_142","midi_source":""},{"t":35.299,"note":70,"dur":0.313,"vel":0.496,"inst":"xylophone_v0_plucked_129","midi_source":""},{"t":35.344,"note":62,"dur":0.045,"vel":0.496,"inst":"banjo_v0_plucked_142","midi_source":""},{"t":35.389,"note":67,"dur":0.045,"vel":0.496,"inst":"xylophone_v0_plucked_129","midi_source":""},{"t":35.434,"note":43,"dur":0.134,"vel":0.496,"inst":"xylophone_v0_plucked_129","midi_source":""},{"t":35.434,"note":55,"dur":0.045,"vel":0.496,"inst":"xylophone_v0_plucked_129","midi_source":""},{"t":35.434,"note":70,"dur":0.134,"vel":0.496,"inst":"xylophone_v0_plucked_129","midi_source":""},{"t":35.478,"note":70,"dur":0.045,"vel":0.496,"inst":"xylophone_v0_plucked_129","midi_source":""},{"t":35.523,"note":74,"dur":0.045,"vel":0.496,"inst":"banjo_v0_plucked_142","midi_source":""},{"t":35.568,"note":53,"dur":0.313,"vel":0.496,"inst":"banjo_v0_plucked_142","midi_source":""},{"t":35.568,"note":67,"dur":0.313,"vel":0.496,"inst":"xylophone_v0_plucked_129","midi_source":""},{"t":35.568,"note":77,"dur":0.313,"vel":0.496,"inst":"banjo_v0_plucked_142","midi_source":""},{"t":35.613,"note":65,"dur":0.045,"vel":0.496,"inst":"banjo_v0_plucked_142","midi_source":""},{"t":35.657,"note":55,"dur":0.045,"vel":0.496,"inst":"xylophone_v0_plucked_129","midi_source":""},{"t":35.702,"note":67,"dur":0.045,"vel":0.496,"inst":"xylophone_v0_plucked_129","midi_source":""},{"t":35.747,"note":70,"dur":0.045,"vel":0.496,"inst":"xylophone_v0_plucked_129","midi_source":""},{"t":35.791,"note":77,"dur":0.045,"vel":0.496,"inst":"banjo_v0_plucked_142","midi_source":""},{"t":35.836,"note":79,"dur":0.045,"vel":0.496,"inst":"xylophone_v0_plucked_129","midi_source":""},{"t":35.881,"note":46,"dur":0.045,"vel":0.496,"inst":"xylophone_v0_plucked_129","midi_source":""},{"t":35.881,"note":67,"dur":0.045,"vel":0.496,"inst":"xylophone_v0_plucked_129","midi_source":""},{"t":35.881,"note":70,"dur":0.045,"vel":0.496,"inst":"xylophone_v0_plucked_129","midi_source":""},{"t":35.881,"note":82,"dur":0.045,"vel":0.496,"inst":"xylophone_v0_plucked_129","midi_source":""},{"t":35.926,"note":49,"dur":0.045,"vel":0.496,"inst":"xylophone_v0_plucked_129","midi_source":""},{"t":35.926,"note":55,"dur":0.045,"vel":0.496,"inst":"xylophone_v0_plucked_129","midi_source":""},{"t":35.926,"note":70,"dur":0.045,"vel":0.496,"inst":"xylophone_v0_plucked_129","midi_source":""},{"t":35.926,"note":82,"dur":0.045,"vel":0.496,"inst":"xylophone_v0_plucked_129","midi_source":""},{"t":35.97,"note":50,"dur":0.067,"vel":0.496,"inst":"banjo_v0_plucked_142","midi_source":""},{"t":35.97,"note":65,"dur":0.134,"vel":0.496,"inst":"banjo_v0_plucked_142","midi_source":""},{"t":35.97,"note":67,"dur":0.134,"vel":0.496,"inst":"xylophone_v0_plucked_129","midi_source":""},{"t":35.97,"note":79,"dur":0.134,"vel":0.496,"inst":"xylophone_v0_plucked_129","midi_source":""},{"t":36.038,"note":58,"dur":0.067,"vel":0.496,"inst":"xylophone_v0_plucked_129","midi_source":""},{"t":36.105,"note":49,"dur":0.134,"vel":0.496,"inst":"xylophone_v0_plucked_129","midi_source":""},{"t":36.105,"note":58,"dur":0.045,"vel":0.496,"inst":"xylophone_v0_plucked_129","midi_source":""},{"t":36.105,"note":65,"dur":0.134,"vel":0.496,"inst":"banjo_v0_plucked_142","midi_source":""},{"t":36.105,"note":82,"dur":0.134,"vel":0.496,"inst":"xylophone_v0_plucked_129","midi_source":""},{"t":36.15,"note":61,"dur":0.045,"vel":0.496,"inst":"xylophone_v0_plucked_129","midi_source":""},{"t":36.194,"note":65,"dur":0.045,"vel":0.496,"inst":"banjo_v0_plucked_142","midi_source":""},{"t":36.239,"note":46,"dur":0.134,"vel":0.496,"inst":"xylophone_v0_plucked_129","midi_source":""},{"t":36.239,"note":62,"dur":0.134,"vel":0.496,"inst":"banjo_v0_plucked_142","midi_source":""},{"t":36.239,"note":67,"dur":0.045,"vel":0.496,"inst":"xylophone_v0_plucked_129","midi_source":""},{"t":36.239,"note":82,"dur":0.134,"vel":0.496,"inst":"xylophone_v0_plucked_129","midi_source":""},{"t":36.284,"note":70,"dur":0.045,"vel":0.496,"inst":"xylophone_v0_plucked_129","midi_source":""},{"t":36.328,"note":77,"dur":0.045,"vel":0.496,"inst":"banjo_v0_plucked_142","midi_source":""},{"t":36.373,"note":46,"dur":0.045,"vel":0.496,"inst":"xylophone_v0_plucked_129","midi_source":""},{"t":36.373,"note":61,"dur":0.134,"vel":0.496,"inst":"xylophone_v0_plucked_129","midi_source":""},{"t":36.373,"note":77,"dur":0.067,"vel":0.496,"inst":"banjo_v0_plucked_142","midi_source":""},{"t":36.373,"note":85,"dur":0.313,"vel":0.496,"inst":"xylophone_v0_plucked_129","midi_source":""},{"t":36.418,"note":49,"dur":0.045,"vel":0.496,"inst":"xylophone_v0_plucked_129","midi_source":""},{"t":36.44,"note":82,"dur":0.246,"vel":0.496,"inst":"xylophone_v0_plucked_129","midi_source":""},{"t":36.462,"note":53,"dur":0.045,"vel":0.496,"inst":"banjo_v0_plucked_142","midi_source":""},{"t":36.507,"note":55,"dur":0.045,"vel":0.496,"inst":"xylophone_v0_plucked_129","midi_source":""},{"t":36.507,"note":65,"dur":0.134,"vel":0.496,"inst":"banjo_v0_plucked_142","midi_source":""},{"t":36.552,"note":58,"dur":0.045,"vel":0.496,"inst":"xylophone_v0_plucked_129","midi_source":""},{"t":36.597,"note":61,"dur":0.045,"vel":0.496,"inst":"xylophone_v0_plucked_129","midi_source":""},{"t":36.642,"note":65,"dur":0.045,"vel":0.496,"inst":"banjo_v0_plucked_142","midi_source":""},{"t":36.642,"note":73,"dur":0.045,"vel":0.496,"inst":"xylophone_v0_plucked_129","midi_source":""},{"t":36.686,"note":67,"dur":0.045,"vel":0.496,"inst":"xylophone_v0_plucked_129","midi_source":""},{"t":36.686,"note":70,"dur":0.045,"vel":0.496,"inst":"xylophone_v0_plucked_129","midi_source":""},{"t":36.686,"note":82,"dur":0.045,"vel":0.496,"inst":"xylophone_v0_plucked_129","midi_source":""},{"t":36.686,"note":86,"dur":0.045,"vel":0.496,"inst":"banjo_v0_plucked_142","midi_source":""},{"t":36.731,"note":70,"dur":0.045,"vel":0.496,"inst":"xylophone_v0_plucked_129","midi_source":""},{"t":36.731,"note":73,"dur":0.045,"vel":0.496,"inst":"xylophone_v0_plucked_129","midi_source":""},{"t":36.731,"note":82,"dur":0.045,"vel":0.496,"inst":"xylophone_v0_plucked_129","midi_source":""},{"t":36.731,"note":85,"dur":0.045,"vel":0.496,"inst":"xylophone_v0_plucked_129","midi_source":""},{"t":36.776,"note":49,"dur":0.045,"vel":0.496,"inst":"xylophone_v0_plucked_129","midi_source":""},{"t":36.776,"note":73,"dur":0.067,"vel":0.496,"inst":"xylophone_v0_plucked_129","midi_source":""},{"t":36.776,"note":82,"dur":0.067,"vel":0.496,"inst":"xylophone_v0_plucked_129","midi_source":""},{"t":36.776,"note":85,"dur":0.067,"vel":0.496,"inst":"xylophone_v0_plucked_129","midi_source":""},{"t":36.821,"note":53,"dur":0.045,"vel":0.496,"inst":"banjo_v0_plucked_142","midi_source":""},{"t":36.843,"note":65,"dur":0.246,"vel":0.496,"inst":"banjo_v0_plucked_142","midi_source":""},{"t":36.843,"note":79,"dur":0.246,"vel":0.496,"inst":"xylophone_v0_plucked_129","midi_source":""},{"t":36.843,"note":82,"dur":0.246,"vel":0.496,"inst":"xylophone_v0_plucked_129","midi_source":""},{"t":36.865,"note":55,"dur":0.045,"vel":0.496,"inst":"xylophone_v0_plucked_129","midi_source":""},{"t":36.91,"note":58,"dur":0.045,"vel":0.496,"inst":"xylophone_v0_plucked_129","midi_source":""},{"t":36.955,"note":61,"dur":0.045,"vel":0.496,"inst":"xylophone_v0_plucked_129","midi_source":""},{"t":36.999,"note":65,"dur":0.045,"vel":0.496,"inst":"banjo_v0_plucked_142","midi_source":""},{"t":37.044,"note":67,"dur":0.045,"vel":0.496,"inst":"xylophone_v0_plucked_129","midi_source":""},{"t":37.089,"note":49,"dur":0.045,"vel":0.496,"inst":"xylophone_v0_plucked_129","midi_source":""},{"t":37.089,"note":82,"dur":0.045,"vel":0.496,"inst":"xylophone_v0_plucked_129","midi_source":""},{"t":37.089,"note":85,"dur":0.045,"vel":0.496,"inst":"xylophone_v0_plucked_129","midi_source":""},{"t":37.134,"note":53,"dur":0.045,"vel":0.496,"inst":"banjo_v0_plucked_142","midi_source":""},{"t":37.134,"note":73,"dur":0.02,"vel":0.496,"inst":"xylophone_v0_plucked_129","midi_source":""},{"t":37.134,"note":79,"dur":0.045,"vel":0.496,"inst":"xylophone_v0_plucked_129","midi_source":""},{"t":37.134,"note":82,"dur":0.045,"vel":0.496,"inst":"xylophone_v0_plucked_129","midi_source":""},{"t":37.178,"note":43,"dur":0.045,"vel":0.496,"inst":"xylophone_v0_plucked_129","midi_source":""},{"t":37.178,"note":73,"dur":0.067,"vel":0.496,"inst":"xylophone_v0_plucked_129","midi_source":""},{"t":37.178,"note":79,"dur":0.067,"vel":0.496,"inst":"xylophone_v0_plucked_129","midi_source":""},{"t":37.178,"note":82,"dur":0.067,"vel":0.496,"inst":"xylophone_v0_plucked_129","midi_source":""},{"t":37.223,"note":58,"dur":0.045,"vel":0.496,"inst":"xylophone_v0_plucked_129","midi_source":""},{"t":37.245,"note":61,"dur":0.246,"vel":0.496,"inst":"xylophone_v0_plucked_129","midi_source":""},{"t":37.245,"note":67,"dur":0.201,"vel":0.496,"inst":"xylophone_v0_plucked_129","midi_source":""},{"t":37.245,"note":82,"dur":0.246,"vel":0.496,"inst":"xylophone_v0_plucked_129","midi_source":""},{"t":37.268,"note":61,"dur":0.045,"vel":0.496,"inst":"xylophone_v0_plucked_129","midi_source":""},{"t":37.313,"note":65,"dur":0.045,"vel":0.496,"inst":"banjo_v0_plucked_142","midi_source":""},{"t":37.357,"note":55,"dur":0.045,"vel":0.496,"inst":"xylophone_v0_plucked_129","midi_source":""},{"t":37.402,"note":70,"dur":0.045,"vel":0.496,"inst":"xylophone_v0_plucked_129","midi_source":""},{"t":37.447,"note":73,"dur":0.045,"vel":0.496,"inst":"xylophone_v0_plucked_129","midi_source":""},{"t":37.447,"note":67,"dur":0.045,"vel":0.496,"inst":"xylophone_v0_plucked_129","midi_source":""},{"t":37.492,"note":43,"dur":0.045,"vel":0.496,"inst":"xylophone_v0_plucked_129","midi_source":""},{"t":37.492,"note":70,"dur":0.045,"vel":0.496,"inst":"xylophone_v0_plucked_129","midi_source":""},{"t":37.492,"note":85,"dur":0.045,"vel":0.496,"inst":"xylophone_v0_plucked_129","midi_source":""},{"t":37.536,"note":55,"dur":0.045,"vel":0.496,"inst":"xylophone_v0_plucked_129","midi_source":""},{"t":37.536,"note":65,"dur":0.045,"vel":0.496,"inst":"banjo_v0_plucked_142","midi_source":""},{"t":37.536,"note":73,"dur":0.02,"vel":0.496,"inst":"xylophone_v0_plucked_129","midi_source":""},{"t":37.536,"note":82,"dur":0.045,"vel":0.496,"inst":"xylophone_v0_plucked_129","midi_source":""},{"t":37.581,"note":46,"dur":0.045,"vel":0.496,"inst":"xylophone_v0_plucked_129","midi_source":""},{"t":37.581,"note":55,"dur":0.313,"vel":0.496,"inst":"xylophone_v0_plucked_129","midi_source":""},{"t":37.581,"note":73,"dur":0.313,"vel":0.496,"inst":"xylophone_v0_plucked_129","midi_source":""},{"t":37.581,"note":82,"dur":0.067,"vel":0.496,"inst":"xylophone_v0_plucked_129","midi_source":""},{"t":37.626,"note":49,"dur":0.045,"vel":0.496,"inst":"xylophone_v0_plucked_129","midi_source":""},{"t":37.648,"note":82,"dur":0.067,"vel":0.496,"inst":"xylophone_v0_plucked_129","midi_source":""},{"t":37.67,"note":43,"dur":0.045,"vel":0.496,"inst":"xylophone_v0_plucked_129","midi_source":""},{"t":37.715,"note":58,"dur":0.045,"vel":0.496,"inst":"xylophone_v0_plucked_129","midi_source":""},{"t":37.715,"note":79,"dur":0.067,"vel":0.496,"inst":"xylophone_v0_plucked_129","midi_source":""},{"t":37.76,"note":61,"dur":0.045,"vel":0.496,"inst":"xylophone_v0_plucked_129","midi_source":""},{"t":37.782,"note":67,"dur":0.067,"vel":0.496,"inst":"xylophone_v0_plucked_129","midi_source":""},{"t":37.805,"note":55,"dur":0.045,"vel":0.496,"inst":"xylophone_v0_plucked_129","midi_source":""},{"t":37.849,"note":70,"dur":0.045,"vel":0.496,"inst":"xylophone_v0_plucked_129","midi_source":""},{"t":37.849,"note":86,"dur":0.045,"vel":0.496,"inst":"banjo_v0_plucked_142","midi_source":""},{"t":37.894,"note":58,"dur":0.045,"vel":0.496,"inst":"xylophone_v0_plucked_129","midi_source":""},{"t":37.894,"note":55,"dur":0.045,"vel":0.496,"inst":"xylophone_v0_plucked_129","midi_source":""},{"t":37.894,"note":73,"dur":0.045,"vel":0.496,"inst":"xylophone_v0_plucked_129","midi_source":""},{"t":37.894,"note":85,"dur":0.045,"vel":0.496,"inst":"xylophone_v0_plucked_129","midi_source":""},{"t":37.939,"note":46,"dur":0.045,"vel":0.496,"inst":"xylophone_v0_plucked_129","midi_source":""},{"t":37.939,"note":55,"dur":0.045,"vel":0.496,"inst":"xylophone_v0_plucked_129","midi_source":""},{"t":37.939,"note":70,"dur":0.045,"vel":0.496,"inst":"xylophone_v0_plucked_129","midi_source":""},{"t":37.939,"note":74,"dur":0.045,"vel":0.496,"inst":"banjo_v0_plucked_142","midi_source":""},{"t":37.984,"note":43,"dur":0.045,"vel":0.496,"inst":"xylophone_v0_plucked_129","midi_source":""},{"t":37.984,"note":65,"dur":0.045,"vel":0.496,"inst":"banjo_v0_plucked_142","midi_source":""},{"t":37.984,"note":70,"dur":0.045,"vel":0.496,"inst":"xylophone_v0_plucked_129","midi_source":""},{"t":37.984,"note":67,"dur":0.034,"vel":0.496,"inst":"xylophone_v0_plucked_129","midi_source":""},{"t":38.017,"note":77,"dur":0.034,"vel":0.496,"inst":"banjo_v0_plucked_142","midi_source":""},{"t":38.028,"note":49,"dur":0.045,"vel":0.496,"inst":"xylophone_v0_plucked_129","midi_source":""},{"t":38.028,"note":65,"dur":0.045,"vel":0.496,"inst":"banjo_v0_plucked_142","midi_source":""},{"t":38.028,"note":70,"dur":0.045,"vel":0.496,"inst":"xylophone_v0_plucked_129","midi_source":""},{"t":38.051,"note":82,"dur":0.034,"vel":0.496,"inst":"xylophone_v0_plucked_129","midi_source":""},{"t":38.073,"note":46,"dur":0.045,"vel":0.496,"inst":"xylophone_v0_plucked_129","midi_source":""},{"t":38.073,"note":73,"dur":0.045,"vel":0.496,"inst":"xylophone_v0_plucked_129","midi_source":""},{"t":38.073,"note":77,"dur":0.045,"vel":0.496,"inst":"banjo_v0_plucked_142","midi_source":""},{"t":38.084,"note":82,"dur":0.034,"vel":0.496,"inst":"xylophone_v0_plucked_129","midi_source":""},{"t":38.118,"note":46,"dur":0.045,"vel":0.992,"inst":"xylophone_v0_plucked_129","midi_source":""},{"t":38.118,"note":70,"dur":0.045,"vel":0.992,"inst":"xylophone_v0_plucked_129","midi_source":""},{"t":38.118,"note":77,"dur":0.045,"vel":0.992,"inst":"banjo_v0_plucked_142","midi_source":""},{"t":38.118,"note":79,"dur":0.134,"vel":0.992,"inst":"xylophone_v0_plucked_129","midi_source":""},{"t":38.163,"note":58,"dur":0.045,"vel":0.992,"inst":"xylophone_v0_plucked_129","midi_source":""},{"t":38.163,"note":67,"dur":0.045,"vel":0.992,"inst":"xylophone_v0_plucked_129","midi_source":""},{"t":38.163,"note":70,"dur":0.045,"vel":0.992,"inst":"xylophone_v0_plucked_129","midi_source":""},{"t":38.207,"note":46,"dur":0.045,"vel":0.992,"inst":"xylophone_v0_plucked_129","midi_source":""},{"t":38.207,"note":65,"dur":0.045,"vel":0.992,"inst":"banjo_v0_plucked_142","midi_source":""},{"t":38.207,"note":67,"dur":0.045,"vel":0.992,"inst":"xylophone_v0_plucked_129","midi_source":""},{"t":38.252,"note":46,"dur":0.045,"vel":0.992,"inst":"xylophone_v0_plucked_129","midi_source":""},{"t":38.252,"note":62,"dur":0.045,"vel":0.992,"inst":"banjo_v0_plucked_142","midi_source":""},{"t":38.252,"note":70,"dur":0.045,"vel":0.992,"inst":"xylophone_v0_plucked_129","midi_source":""},{"t":38.252,"note":67,"dur":0.045,"vel":0.992,"inst":"xylophone_v0_plucked_129","midi_source":""},{"t":38.297,"note":85,"dur":0.045,"vel":0.992,"inst":"xylophone_v0_plucked_129","midi_source":""},{"t":38.341,"note":46,"dur":0.02,"vel":0.992,"inst":"xylophone_v0_plucked_129","midi_source":""},{"t":38.341,"note":62,"dur":0.02,"vel":0.992,"inst":"banjo_v0_plucked_142","midi_source":""},{"t":38.341,"note":70,"dur":0.02,"vel":0.992,"inst":"xylophone_v0_plucked_129","midi_source":""},{"t":38.341,"note":82,"dur":0.045,"vel":0.992,"inst":"xylophone_v0_plucked_129","midi_source":""},{"t":38.386,"note":53,"dur":0.045,"vel":0.496,"inst":"banjo_v0_plucked_142","midi_source":""},{"t":38.386,"note":65,"dur":0.067,"vel":0.496,"inst":"banjo_v0_plucked_142","midi_source":""},{"t":38.386,"note":67,"dur":0.134,"vel":0.496,"inst":"xylophone_v0_plucked_129","midi_source":""},{"t":38.386,"note":77,"dur":0.134,"vel":0.496,"inst":"banjo_v0_plucked_142","midi_source":""},{"t":38.431,"note":43,"dur":0.045,"vel":0.496,"inst":"xylophone_v0_plucked_129","midi_source":""},{"t":38.476,"note":55,"dur":0.045,"vel":0.496,"inst":"xylophone_v0_plucked_129","midi_source":""},{"t":38.52,"note":53,"dur":0.268,"vel":0.496,"inst":"banjo_v0_plucked_142","midi_source":""},{"t":38.52,"note":58,"dur":0.268,"vel":0.496,"inst":"xylophone_v0_plucked_129","midi_source":""},{"t":38.52,"note":61,"dur":0.045,"vel":0.496,"inst":"xylophone_v0_plucked_129","midi_source":""},{"t":38.52,"note":73,"dur":0.201,"vel":0.496,"inst":"xylophone_v0_plucked_129","midi_source":""},{"t":38.565,"note":62,"dur":0.045,"vel":0.496,"inst":"banjo_v0_plucked_142","midi_source":""},{"t":38.61,"note":65,"dur":0.045,"vel":0.496,"inst":"banjo_v0_plucked_142","midi_source":""},{"t":38.655,"note":55,"dur":0.045,"vel":0.496,"inst":"xylophone_v0_plucked_129","midi_source":""},{"t":38.655,"note":55,"dur":0.134,"vel":0.496,"inst":"xylophone_v0_plucked_129","midi_source":""},{"t":38.699,"note":67,"dur":0.045,"vel":0.496,"inst":"xylophone_v0_plucked_129","midi_source":""},{"t":38.722,"note":67,"dur":0.067,"vel":0.496,"inst":"xylophone_v0_plucked_129","midi_source":""},{"t":38.744,"note":70,"dur":0.045,"vel":0.496,"inst":"xylophone_v0_plucked_129","midi_source":""},{"t":38.789,"note":53,"dur":0.045,"vel":0.496,"inst":"banjo_v0_plucked_142","midi_source":""},{"t":38.789,"note":58,"dur":0.045,"vel":0.496,"inst":"xylophone_v0_plucked_129","midi_source":""},{"t":38.789,"note":55,"dur":0.403,"vel":0.496,"inst":"xylophone_v0_plucked_129","midi_source":""},{"t":38.789,"note":70,"dur":0.403,"vel":0.496,"inst":"xylophone_v0_plucked_129","midi_source":""},{"t":38.789,"note":77,"dur":0.134,"vel":0.496,"inst":"banjo_v0_plucked_142","midi_source":""},{"t":38.878,"note":53,"dur":0.02,"vel":0.496,"inst":"banjo_v0_plucked_142","midi_source":""},{"t":38.878,"note":58,"dur":0.02,"vel":0.496,"inst":"xylophone_v0_plucked_129","midi_source":""},{"t":38.923,"note":58,"dur":0.045,"vel":0.496,"inst":"xylophone_v0_plucked_129","midi_source":""},{"t":38.923,"note":67,"dur":0.168,"vel":0.496,"inst":"xylophone_v0_plucked_129","midi_source":""},{"t":38.968,"note":60,"dur":0.045,"vel":0.496,"inst":"pad_string_v0_bass_416","midi_source":""},{"t":39.012,"note":62,"dur":0.045,"vel":0.496,"inst":"banjo_v0_plucked_142","midi_source":""},{"t":39.057,"note":49,"dur":0.134,"vel":0.496,"inst":"xylophone_v0_plucked_129","midi_source":""},{"t":39.057,"note":65,"dur":0.134,"vel":0.496,"inst":"banjo_v0_plucked_142","midi_source":""},{"t":39.057,"note":70,"dur":0.045,"vel":0.496,"inst":"xylophone_v0_plucked_129","midi_source":""},{"t":39.091,"note":79,"dur":0.034,"vel":0.496,"inst":"xylophone_v0_plucked_129","midi_source":""},{"t":39.102,"note":73,"dur":0.045,"vel":0.496,"inst":"xylophone_v0_plucked_129","midi_source":""},{"t":39.124,"note":79,"dur":0.034,"vel":0.496,"inst":"xylophone_v0_plucked_129","midi_source":""},{"t":39.147,"note":77,"dur":0.045,"vel":0.496,"inst":"banjo_v0_plucked_142","midi_source":""},{"t":39.158,"note":82,"dur":0.034,"vel":0.496,"inst":"xylophone_v0_plucked_129","midi_source":""},{"t":39.191,"note":48,"dur":0.045,"vel":0.496,"inst":"pad_string_v0_bass_416","midi_source":""},{"t":39.191,"note":62,"dur":0.045,"vel":0.496,"inst":"banjo_v0_plucked_142","midi_source":""},{"t":39.191,"note":74,"dur":0.045,"vel":0.496,"inst":"banjo_v0_plucked_142","midi_source":""},{"t":39.191,"note":79,"dur":0.179,"vel":0.496,"inst":"xylophone_v0_plucked_129","midi_source":""},{"t":39.236,"note":50,"dur":0.045,"vel":0.496,"inst":"banjo_v0_plucked_142","midi_source":""},{"t":39.281,"note":55,"dur":0.045,"vel":0.496,"inst":"xylophone_v0_plucked_129","midi_source":""},{"t":39.281,"note":55,"dur":0.02,"vel":0.496,"inst":"xylophone_v0_plucked_129","midi_source":""},{"t":39.281,"note":67,"dur":0.02,"vel":0.496,"inst":"xylophone_v0_plucked_129","midi_source":""},{"t":39.326,"note":49,"dur":0.045,"vel":0.496,"inst":"xylophone_v0_plucked_129","midi_source":""},{"t":39.326,"note":65,"dur":0.045,"vel":0.496,"inst":"banjo_v0_plucked_142","midi_source":""},{"t":39.326,"note":67,"dur":0.045,"vel":0.496,"inst":"xylophone_v0_plucked_129","midi_source":""},{"t":39.37,"note":50,"dur":0.045,"vel":0.496,"inst":"banjo_v0_plucked_142","midi_source":""},{"t":39.37,"note":55,"dur":0.045,"vel":0.496,"inst":"xylophone_v0_plucked_129","midi_source":""},{"t":39.37,"note":72,"dur":0.045,"vel":0.496,"inst":"pad_string_v0_bass_416","midi_source":""},{"t":39.37,"note":67,"dur":0.045,"vel":0.496,"inst":"xylophone_v0_plucked_129","midi_source":""},{"t":39.415,"note":53,"dur":0.045,"vel":0.496,"inst":"banjo_v0_plucked_142","midi_source":""},{"t":39.415,"note":67,"dur":0.045,"vel":0.496,"inst":"xylophone_v0_plucked_129","midi_source":""},{"t":39.415,"note":73,"dur":0.045,"vel":0.496,"inst":"xylophone_v0_plucked_129","midi_source":""},{"t":39.415,"note":77,"dur":0.045,"vel":0.496,"inst":"banjo_v0_plucked_142","midi_source":""},{"t":39.46,"note":43,"dur":0.045,"vel":0.496,"inst":"xylophone_v0_plucked_129","midi_source":""},{"t":39.46,"note":55,"dur":0.045,"vel":0.496,"inst":"xylophone_v0_plucked_129","midi_source":""},{"t":39.46,"note":70,"dur":0.045,"vel":0.496,"inst":"xylophone_v0_plucked_129","midi_source":""},{"t":39.46,"note":74,"dur":0.045,"vel":0.496,"inst":"banjo_v0_plucked_142","midi_source":""},{"t":39.505,"note":61,"dur":0.045,"vel":0.496,"inst":"xylophone_v0_plucked_129","midi_source":""},{"t":39.505,"note":77,"dur":0.045,"vel":0.496,"inst":"banjo_v0_plucked_142","midi_source":""},{"t":39.549,"note":43,"dur":0.02,"vel":0.496,"inst":"xylophone_v0_plucked_129","midi_source":""},{"t":39.549,"note":65,"dur":0.045,"vel":0.496,"inst":"banjo_v0_plucked_142","midi_source":""},{"t":39.549,"note":70,"dur":0.02,"vel":0.496,"inst":"xylophone_v0_plucked_129","midi_source":""},{"t":39.549,"note":73,"dur":0.045,"vel":0.496,"inst":"xylophone_v0_plucked_129","midi_source":""},{"t":39.594,"note":46,"dur":0.045,"vel":0.496,"inst":"xylophone_v0_plucked_129","midi_source":""},{"t":39.594,"note":65,"dur":0.045,"vel":0.496,"inst":"banjo_v0_plucked_142","midi_source":""},{"t":39.594,"note":70,"dur":0.045,"vel":0.496,"inst":"xylophone_v0_plucked_129","midi_source":""},{"t":39.594,"note":73,"dur":0.134,"vel":0.496,"inst":"xylophone_v0_plucked_129","midi_source":""},{"t":39.639,"note":43,"dur":0.045,"vel":0.496,"inst":"xylophone_v0_plucked_129","midi_source":""},{"t":39.639,"note":65,"dur":0.045,"vel":0.496,"inst":"banjo_v0_plucked_142","midi_source":""},{"t":39.639,"note":55,"dur":0.045,"vel":0.496,"inst":"xylophone_v0_plucked_129","midi_source":""},{"t":39.683,"note":58,"dur":0.045,"vel":0.496,"inst":"xylophone_v0_plucked_129","midi_source":""},{"t":39.683,"note":65,"dur":0.045,"vel":0.496,"inst":"banjo_v0_plucked_142","midi_source":""},{"t":39.683,"note":55,"dur":0.045,"vel":0.496,"inst":"xylophone_v0_plucked_129","midi_source":""},{"t":39.728,"note":58,"dur":0.268,"vel":0.496,"inst":"xylophone_v0_plucked_129","midi_source":""},{"t":39.728,"note":62,"dur":0.045,"vel":0.496,"inst":"banjo_v0_plucked_142","midi_source":""},{"t":39.728,"note":55,"dur":0.179,"vel":0.496,"inst":"xylophone_v0_plucked_129","midi_source":""},{"t":39.728,"note":70,"dur":0.134,"vel":0.496,"inst":"xylophone_v0_plucked_129","midi_source":""},{"t":39.773,"note":55,"dur":0.045,"vel":0.496,"inst":"xylophone_v0_plucked_129","midi_source":""},{"t":39.818,"note":70,"dur":0.045,"vel":0.496,"inst":"xylophone_v0_plucked_129","midi_source":""},{"t":39.862,"note":70,"dur":0.045,"vel":0.496,"inst":"xylophone_v0_plucked_129","midi_source":""},{"t":39.907,"note":62,"dur":0.045,"vel":0.496,"inst":"banjo_v0_plucked_142","midi_source":""},{"t":39.907,"note":55,"dur":0.045,"vel":0.496,"inst":"xylophone_v0_plucked_129","midi_source":""},{"t":39.952,"note":61,"dur":0.045,"vel":0.496,"inst":"xylophone_v0_plucked_129","midi_source":""},{"t":39.952,"note":65,"dur":0.045,"vel":0.496,"inst":"banjo_v0_plucked_142","midi_source":""},{"t":39.997,"note":58,"dur":0.045,"vel":0.496,"inst":"xylophone_v0_plucked_129","midi_source":""},{"t":39.997,"note":58,"dur":0.134,"vel":0.496,"inst":"xylophone_v0_plucked_129","midi_source":""},{"t":39.997,"note":62,"dur":0.134,"vel":0.496,"inst":"banjo_v0_plucked_142","midi_source":""},{"t":40.041,"note":62,"dur":0.045,"vel":0.496,"inst":"banjo_v0_plucked_142","midi_source":""},{"t":40.086,"note":55,"dur":0.045,"vel":0.496,"inst":"xylophone_v0_plucked_129","midi_source":""},{"t":40.131,"note":55,"dur":0.134,"vel":0.496,"inst":"xylophone_v0_plucked_129","midi_source":""},{"t":40.131,"note":58,"dur":0.045,"vel":0.496,"inst":"xylophone_v0_plucked_129","midi_source":""},{"t":40.131,"note":65,"dur":0.134,"vel":0.496,"inst":"banjo_v0_plucked_142","midi_source":""},{"t":40.131,"note":70,"dur":0.313,"vel":0.496,"inst":"xylophone_v0_plucked_129","midi_source":""},{"t":40.176,"note":62,"dur":0.045,"vel":0.496,"inst":"banjo_v0_plucked_142","midi_source":""},{"t":40.22,"note":67,"dur":0.045,"vel":0.496,"inst":"xylophone_v0_plucked_129","midi_source":""},{"t":40.265,"note":43,"dur":0.134,"vel":0.496,"inst":"xylophone_v0_plucked_129","midi_source":""},{"t":40.265,"note":55,"dur":0.045,"vel":0.496,"inst":"xylophone_v0_plucked_129","midi_source":""},{"t":40.265,"note":70,"dur":0.134,"vel":0.496,"inst":"xylophone_v0_plucked_129","midi_source":""},{"t":40.31,"note":70,"dur":0.045,"vel":0.496,"inst":"xylophone_v0_plucked_129","midi_source":""},{"t":40.354,"note":74,"dur":0.045,"vel":0.496,"inst":"banjo_v0_plucked_142","midi_source":""},{"t":40.399,"note":53,"dur":0.313,"vel":0.496,"inst":"banjo_v0_plucked_142","midi_source":""},{"t":40.399,"note":67,"dur":0.313,"vel":0.496,"inst":"xylophone_v0_plucked_129","midi_source":""},{"t":40.399,"note":77,"dur":0.313,"vel":0.496,"inst":"banjo_v0_plucked_142","midi_source":""},{"t":40.444,"note":65,"dur":0.045,"vel":0.496,"inst":"banjo_v0_plucked_142","midi_source":""},{"t":40.489,"note":55,"dur":0.045,"vel":0.496,"inst":"xylophone_v0_plucked_129","midi_source":""},{"t":40.533,"note":67,"dur":0.045,"vel":0.496,"inst":"xylophone_v0_plucked_129","midi_source":""},{"t":40.578,"note":70,"dur":0.045,"vel":0.496,"inst":"xylophone_v0_plucked_129","midi_source":""},{"t":40.623,"note":77,"dur":0.045,"vel":0.496,"inst":"banjo_v0_plucked_142","midi_source":""},{"t":40.668,"note":79,"dur":0.045,"vel":0.496,"inst":"xylophone_v0_plucked_129","midi_source":""},{"t":40.712,"note":46,"dur":0.045,"vel":0.496,"inst":"xylophone_v0_plucked_129","midi_source":""},{"t":40.712,"note":67,"dur":0.045,"vel":0.496,"inst":"xylophone_v0_plucked_129","midi_source":""},{"t":40.712,"note":70,"dur":0.045,"vel":0.496,"inst":"xylophone_v0_plucked_129","midi_source":""},{"t":40.712,"note":82,"dur":0.045,"vel":0.496,"inst":"xylophone_v0_plucked_129","midi_source":""},{"t":40.757,"note":49,"dur":0.045,"vel":0.496,"inst":"xylophone_v0_plucked_129","midi_source":""},{"t":40.757,"note":55,"dur":0.045,"vel":0.496,"inst":"xylophone_v0_plucked_129","midi_source":""},{"t":40.757,"note":70,"dur":0.045,"vel":0.496,"inst":"xylophone_v0_plucked_129","midi_source":""},{"t":40.757,"note":82,"dur":0.045,"vel":0.496,"inst":"xylophone_v0_plucked_129","midi_source":""},{"t":40.802,"note":50,"dur":0.067,"vel":0.496,"inst":"banjo_v0_plucked_142","midi_source":""},{"t":40.802,"note":65,"dur":0.134,"vel":0.496,"inst":"banjo_v0_plucked_142","midi_source":""},{"t":40.802,"note":67,"dur":0.134,"vel":0.496,"inst":"xylophone_v0_plucked_129","midi_source":""},{"t":40.802,"note":79,"dur":0.134,"vel":0.496,"inst":"xylophone_v0_plucked_129","midi_source":""},{"t":40.869,"note":58,"dur":0.067,"vel":0.496,"inst":"xylophone_v0_plucked_129","midi_source":""},{"t":40.936,"note":49,"dur":0.134,"vel":0.496,"inst":"xylophone_v0_plucked_129","midi_source":""},{"t":40.936,"note":58,"dur":0.045,"vel":0.496,"inst":"xylophone_v0_plucked_129","midi_source":""},{"t":40.936,"note":65,"dur":0.134,"vel":0.496,"inst":"banjo_v0_plucked_142","midi_source":""},{"t":40.936,"note":82,"dur":0.134,"vel":0.496,"inst":"xylophone_v0_plucked_129","midi_source":""},{"t":40.981,"note":61,"dur":0.045,"vel":0.496,"inst":"xylophone_v0_plucked_129","midi_source":""},{"t":41.025,"note":65,"dur":0.045,"vel":0.496,"inst":"banjo_v0_plucked_142","midi_source":""},{"t":41.07,"note":46,"dur":0.134,"vel":0.496,"inst":"xylophone_v0_plucked_129","midi_source":""},{"t":41.07,"note":62,"dur":0.134,"vel":0.496,"inst":"banjo_v0_plucked_142","midi_source":""},{"t":41.07,"note":67,"dur":0.045,"vel":0.496,"inst":"xylophone_v0_plucked_129","midi_source":""},{"t":41.07,"note":82,"dur":0.134,"vel":0.496,"inst":"xylophone_v0_plucked_129","midi_source":""},{"t":41.115,"note":70,"dur":0.045,"vel":0.496,"inst":"xylophone_v0_plucked_129","midi_source":""},{"t":41.16,"note":77,"dur":0.045,"vel":0.496,"inst":"banjo_v0_plucked_142","midi_source":""},{"t":41.204,"note":46,"dur":0.045,"vel":0.496,"inst":"xylophone_v0_plucked_129","midi_source":""},{"t":41.204,"note":61,"dur":0.134,"vel":0.496,"inst":"xylophone_v0_plucked_129","midi_source":""},{"t":41.204,"note":77,"dur":0.067,"vel":0.496,"inst":"banjo_v0_plucked_142","midi_source":""},{"t":41.204,"note":85,"dur":0.313,"vel":0.496,"inst":"xylophone_v0_plucked_129","midi_source":""},{"t":41.249,"note":49,"dur":0.045,"vel":0.496,"inst":"xylophone_v0_plucked_129","midi_source":""},{"t":41.272,"note":82,"dur":0.246,"vel":0.496,"inst":"xylophone_v0_plucked_129","midi_source":""},{"t":41.294,"note":53,"dur":0.045,"vel":0.496,"inst":"banjo_v0_plucked_142","midi_source":""},{"t":41.339,"note":55,"dur":0.045,"vel":0.496,"inst":"xylophone_v0_plucked_129","midi_source":""},{"t":41.339,"note":65,"dur":0.134,"vel":0.496,"inst":"banjo_v0_plucked_142","midi_source":""},{"t":41.383,"note":58,"dur":0.045,"vel":0.496,"inst":"xylophone_v0_plucked_129","midi_source":""},{"t":41.428,"note":61,"dur":0.045,"vel":0.496,"inst":"xylophone_v0_plucked_129","midi_source":""},{"t":41.473,"note":65,"dur":0.045,"vel":0.496,"inst":"banjo_v0_plucked_142","midi_source":""},{"t":41.473,"note":73,"dur":0.045,"vel":0.496,"inst":"xylophone_v0_plucked_129","midi_source":""},{"t":41.518,"note":67,"dur":0.045,"vel":0.496,"inst":"xylophone_v0_plucked_129","midi_source":""},{"t":41.518,"note":70,"dur":0.045,"vel":0.496,"inst":"xylophone_v0_plucked_129","midi_source":""},{"t":41.518,"note":82,"dur":0.045,"vel":0.496,"inst":"xylophone_v0_plucked_129","midi_source":""},{"t":41.518,"note":86,"dur":0.045,"vel":0.496,"inst":"banjo_v0_plucked_142","midi_source":""},{"t":41.562,"note":70,"dur":0.045,"vel":0.496,"inst":"xylophone_v0_plucked_129","midi_source":""},{"t":41.562,"note":73,"dur":0.045,"vel":0.496,"inst":"xylophone_v0_plucked_129","midi_source":""},{"t":41.562,"note":82,"dur":0.045,"vel":0.496,"inst":"xylophone_v0_plucked_129","midi_source":""},{"t":41.562,"note":85,"dur":0.045,"vel":0.496,"inst":"xylophone_v0_plucked_129","midi_source":""},{"t":41.607,"note":49,"dur":0.045,"vel":0.496,"inst":"xylophone_v0_plucked_129","midi_source":""},{"t":41.607,"note":73,"dur":0.067,"vel":0.496,"inst":"xylophone_v0_plucked_129","midi_source":""},{"t":41.607,"note":82,"dur":0.067,"vel":0.496,"inst":"xylophone_v0_plucked_129","midi_source":""},{"t":41.607,"note":85,"dur":0.067,"vel":0.496,"inst":"xylophone_v0_plucked_129","midi_source":""},{"t":41.652,"note":53,"dur":0.045,"vel":0.496,"inst":"banjo_v0_plucked_142","midi_source":""},{"t":41.674,"note":65,"dur":0.246,"vel":0.496,"inst":"banjo_v0_plucked_142","midi_source":""},{"t":41.674,"note":79,"dur":0.246,"vel":0.496,"inst":"xylophone_v0_plucked_129","midi_source":""},{"t":41.674,"note":82,"dur":0.246,"vel":0.496,"inst":"xylophone_v0_plucked_129","midi_source":""},{"t":41.696,"note":55,"dur":0.045,"vel":0.496,"inst":"xylophone_v0_plucked_129","midi_source":""},{"t":41.741,"note":58,"dur":0.045,"vel":0.496,"inst":"xylophone_v0_plucked_129","midi_source":""},{"t":41.786,"note":61,"dur":0.045,"vel":0.496,"inst":"xylophone_v0_plucked_129","midi_source":""},{"t":41.831,"note":65,"dur":0.045,"vel":0.496,"inst":"banjo_v0_plucked_142","midi_source":""},{"t":41.875,"note":67,"dur":0.045,"vel":0.496,"inst":"xylophone_v0_plucked_129","midi_source":""},{"t":41.92,"note":49,"dur":0.045,"vel":0.496,"inst":"xylophone_v0_plucked_129","midi_source":""},{"t":41.92,"note":82,"dur":0.045,"vel":0.496,"inst":"xylophone_v0_plucked_129","midi_source":""},{"t":41.92,"note":85,"dur":0.045,"vel":0.496,"inst":"xylophone_v0_plucked_129","midi_source":""},{"t":41.965,"note":53,"dur":0.045,"vel":0.496,"inst":"banjo_v0_plucked_142","midi_source":""},{"t":41.965,"note":73,"dur":0.02,"vel":0.496,"inst":"xylophone_v0_plucked_129","midi_source":""},{"t":41.965,"note":79,"dur":0.045,"vel":0.496,"inst":"xylophone_v0_plucked_129","midi_source":""},{"t":41.965,"note":82,"dur":0.045,"vel":0.496,"inst":"xylophone_v0_plucked_129","midi_source":""},{"t":42.01,"note":43,"dur":0.045,"vel":0.496,"inst":"xylophone_v0_plucked_129","midi_source":""},{"t":42.01,"note":73,"dur":0.067,"vel":0.496,"inst":"xylophone_v0_plucked_129","midi_source":""},{"t":42.01,"note":79,"dur":0.067,"vel":0.496,"inst":"xylophone_v0_plucked_129","midi_source":""},{"t":42.01,"note":82,"dur":0.067,"vel":0.496,"inst":"xylophone_v0_plucked_129","midi_source":""},{"t":42.055,"note":58,"dur":0.045,"vel":0.496,"inst":"xylophone_v0_plucked_129","midi_source":""},{"t":42.077,"note":61,"dur":0.246,"vel":0.496,"inst":"xylophone_v0_plucked_129","midi_source":""},{"t":42.077,"note":67,"dur":0.201,"vel":0.496,"inst":"xylophone_v0_plucked_129","midi_source":""},{"t":42.077,"note":82,"dur":0.246,"vel":0.496,"inst":"xylophone_v0_plucked_129","midi_source":""},{"t":42.099,"note":61,"dur":0.045,"vel":0.496,"inst":"xylophone_v0_plucked_129","midi_source":""},{"t":42.144,"note":65,"dur":0.045,"vel":0.496,"inst":"banjo_v0_plucked_142","midi_source":""},{"t":42.189,"note":55,"dur":0.045,"vel":0.496,"inst":"xylophone_v0_plucked_129","midi_source":""},{"t":42.233,"note":70,"dur":0.045,"vel":0.496,"inst":"xylophone_v0_plucked_129","midi_source":""},{"t":42.278,"note":73,"dur":0.045,"vel":0.496,"inst":"xylophone_v0_plucked_129","midi_source":""},{"t":42.278,"note":67,"dur":0.045,"vel":0.496,"inst":"xylophone_v0_plucked_129","midi_source":""},{"t":42.323,"note":43,"dur":0.045,"vel":0.496,"inst":"xylophone_v0_plucked_129","midi_source":""},{"t":42.323,"note":70,"dur":0.045,"vel":0.496,"inst":"xylophone_v0_plucked_129","midi_source":""},{"t":42.323,"note":85,"dur":0.045,"vel":0.496,"inst":"xylophone_v0_plucked_129","midi_source":""},{"t":42.367,"note":55,"dur":0.045,"vel":0.496,"inst":"xylophone_v0_plucked_129","midi_source":""},{"t":42.367,"note":65,"dur":0.045,"vel":0.496,"inst":"banjo_v0_plucked_142","midi_source":""},{"t":42.367,"note":73,"dur":0.02,"vel":0.496,"inst":"xylophone_v0_plucked_129","midi_source":""},{"t":42.367,"note":82,"dur":0.045,"vel":0.496,"inst":"xylophone_v0_plucked_129","midi_source":""},{"t":42.412,"note":46,"dur":0.045,"vel":0.496,"inst":"xylophone_v0_plucked_129","midi_source":""},{"t":42.412,"note":55,"dur":0.313,"vel":0.496,"inst":"xylophone_v0_plucked_129","midi_source":""},{"t":42.412,"note":73,"dur":0.313,"vel":0.496,"inst":"xylophone_v0_plucked_129","midi_source":""},{"t":42.412,"note":82,"dur":0.067,"vel":0.496,"inst":"xylophone_v0_plucked_129","midi_source":""},{"t":42.457,"note":49,"dur":0.045,"vel":0.496,"inst":"xylophone_v0_plucked_129","midi_source":""},{"t":42.479,"note":82,"dur":0.067,"vel":0.496,"inst":"xylophone_v0_plucked_129","midi_source":""},{"t":42.502,"note":43,"dur":0.045,"vel":0.496,"inst":"xylophone_v0_plucked_129","midi_source":""},{"t":42.547,"note":58,"dur":0.045,"vel":0.496,"inst":"xylophone_v0_plucked_129","midi_source":""},{"t":42.547,"note":79,"dur":0.067,"vel":0.496,"inst":"xylophone_v0_plucked_129","midi_source":""},{"t":42.591,"note":61,"dur":0.045,"vel":0.496,"inst":"xylophone_v0_plucked_129","midi_source":""},{"t":42.614,"note":67,"dur":0.067,"vel":0.496,"inst":"xylophone_v0_plucked_129","midi_source":""},{"t":42.636,"note":55,"dur":0.045,"vel":0.496,"inst":"xylophone_v0_plucked_129","midi_source":""},{"t":42.681,"note":70,"dur":0.045,"vel":0.496,"inst":"xylophone_v0_plucked_129","midi_source":""},{"t":42.681,"note":86,"dur":0.045,"vel":0.496,"inst":"banjo_v0_plucked_142","midi_source":""},{"t":42.726,"note":58,"dur":0.045,"vel":0.496,"inst":"xylophone_v0_plucked_129","midi_source":""},{"t":42.726,"note":55,"dur":0.045,"vel":0.496,"inst":"xylophone_v0_plucked_129","midi_source":""},{"t":42.726,"note":73,"dur":0.045,"vel":0.496,"inst":"xylophone_v0_plucked_129","midi_source":""},{"t":42.726,"note":85,"dur":0.045,"vel":0.496,"inst":"xylophone_v0_plucked_129","midi_source":""},{"t":42.77,"note":46,"dur":0.045,"vel":0.496,"inst":"xylophone_v0_plucked_129","midi_source":""},{"t":42.77,"note":55,"dur":0.045,"vel":0.496,"inst":"xylophone_v0_plucked_129","midi_source":""},{"t":42.77,"note":70,"dur":0.045,"vel":0.496,"inst":"xylophone_v0_plucked_129","midi_source":""},{"t":42.77,"note":74,"dur":0.045,"vel":0.496,"inst":"banjo_v0_plucked_142","midi_source":""},{"t":42.815,"note":43,"dur":0.045,"vel":0.496,"inst":"xylophone_v0_plucked_129","midi_source":""},{"t":42.815,"note":65,"dur":0.045,"vel":0.496,"inst":"banjo_v0_plucked_142","midi_source":""},{"t":42.815,"note":70,"dur":0.045,"vel":0.496,"inst":"xylophone_v0_plucked_129","midi_source":""},{"t":42.815,"note":67,"dur":0.034,"vel":0.496,"inst":"xylophone_v0_plucked_129","midi_source":""},{"t":42.848,"note":77,"dur":0.034,"vel":0.496,"inst":"banjo_v0_plucked_142","midi_source":""},{"t":42.86,"note":49,"dur":0.045,"vel":0.496,"inst":"xylophone_v0_plucked_129","midi_source":""},{"t":42.86,"note":65,"dur":0.045,"vel":0.496,"inst":"banjo_v0_plucked_142","midi_source":""},{"t":42.86,"note":70,"dur":0.045,"vel":0.496,"inst":"xylophone_v0_plucked_129","midi_source":""},{"t":42.882,"note":82,"dur":0.034,"vel":0.496,"inst":"xylophone_v0_plucked_129","midi_source":""},{"t":42.904,"note":46,"dur":0.045,"vel":0.496,"inst":"xylophone_v0_plucked_129","midi_source":""},{"t":42.904,"note":73,"dur":0.045,"vel":0.496,"inst":"xylophone_v0_plucked_129","midi_source":""},{"t":42.904,"note":77,"dur":0.045,"vel":0.496,"inst":"banjo_v0_plucked_142","midi_source":""},{"t":42.916,"note":82,"dur":0.034,"vel":0.496,"inst":"xylophone_v0_plucked_129","midi_source":""},{"t":42.949,"note":46,"dur":0.045,"vel":0.992,"inst":"xylophone_v0_plucked_129","midi_source":""},{"t":42.949,"note":70,"dur":0.045,"vel":0.992,"inst":"xylophone_v0_plucked_129","midi_source":""},{"t":42.949,"note":77,"dur":0.045,"vel":0.992,"inst":"banjo_v0_plucked_142","midi_source":""},{"t":42.949,"note":79,"dur":0.134,"vel":0.992,"inst":"xylophone_v0_plucked_129","midi_source":""},{"t":42.994,"note":58,"dur":0.045,"vel":0.992,"inst":"xylophone_v0_plucked_129","midi_source":""},{"t":42.994,"note":67,"dur":0.045,"vel":0.992,"inst":"xylophone_v0_plucked_129","midi_source":""},{"t":42.994,"note":70,"dur":0.045,"vel":0.992,"inst":"xylophone_v0_plucked_129","midi_source":""},{"t":43.039,"note":46,"dur":0.045,"vel":0.992,"inst":"xylophone_v0_plucked_129","midi_source":""},{"t":43.039,"note":65,"dur":0.045,"vel":0.992,"inst":"banjo_v0_plucked_142","midi_source":""},{"t":43.039,"note":67,"dur":0.045,"vel":0.992,"inst":"xylophone_v0_plucked_129","midi_source":""},{"t":43.083,"note":46,"dur":0.045,"vel":0.992,"inst":"xylophone_v0_plucked_129","midi_source":""},{"t":43.083,"note":62,"dur":0.045,"vel":0.992,"inst":"banjo_v0_plucked_142","midi_source":""},{"t":43.083,"note":70,"dur":0.045,"vel":0.992,"inst":"xylophone_v0_plucked_129","midi_source":""},{"t":43.083,"note":67,"dur":0.045,"vel":0.992,"inst":"xylophone_v0_plucked_129","midi_source":""},{"t":43.128,"note":85,"dur":0.045,"vel":0.992,"inst":"xylophone_v0_plucked_129","midi_source":""},{"t":43.173,"note":46,"dur":0.02,"vel":0.992,"inst":"xylophone_v0_plucked_129","midi_source":""},{"t":43.173,"note":62,"dur":0.02,"vel":0.992,"inst":"banjo_v0_plucked_142","midi_source":""},{"t":43.173,"note":70,"dur":0.02,"vel":0.992,"inst":"xylophone_v0_plucked_129","midi_source":""},{"t":43.173,"note":82,"dur":0.045,"vel":0.992,"inst":"xylophone_v0_plucked_129","midi_source":""},{"t":43.218,"note":53,"dur":0.045,"vel":0.496,"inst":"banjo_v0_plucked_142","midi_source":""},{"t":43.218,"note":65,"dur":0.067,"vel":0.496,"inst":"banjo_v0_plucked_142","midi_source":""},{"t":43.218,"note":67,"dur":0.134,"vel":0.496,"inst":"xylophone_v0_plucked_129","midi_source":""},{"t":43.218,"note":77,"dur":0.134,"vel":0.496,"inst":"banjo_v0_plucked_142","midi_source":""},{"t":43.262,"note":43,"dur":0.045,"vel":0.496,"inst":"xylophone_v0_plucked_129","midi_source":""},{"t":43.307,"note":55,"dur":0.045,"vel":0.496,"inst":"xylophone_v0_plucked_129","midi_source":""},{"t":43.352,"note":53,"dur":0.268,"vel":0.496,"inst":"banjo_v0_plucked_142","midi_source":""},{"t":43.352,"note":58,"dur":0.268,"vel":0.496,"inst":"xylophone_v0_plucked_129","midi_source":""},{"t":43.352,"note":61,"dur":0.045,"vel":0.496,"inst":"xylophone_v0_plucked_129","midi_source":""},{"t":43.352,"note":73,"dur":0.201,"vel":0.496,"inst":"xylophone_v0_plucked_129","midi_source":""},{"t":43.397,"note":62,"dur":0.045,"vel":0.496,"inst":"banjo_v0_plucked_142","midi_source":""},{"t":43.441,"note":65,"dur":0.045,"vel":0.496,"inst":"banjo_v0_plucked_142","midi_source":""},{"t":43.486,"note":55,"dur":0.045,"vel":0.496,"inst":"xylophone_v0_plucked_129","midi_source":""},{"t":43.486,"note":55,"dur":0.134,"vel":0.496,"inst":"xylophone_v0_plucked_129","midi_source":""},{"t":43.531,"note":67,"dur":0.045,"vel":0.496,"inst":"xylophone_v0_plucked_129","midi_source":""},{"t":43.553,"note":67,"dur":0.067,"vel":0.496,"inst":"xylophone_v0_plucked_129","midi_source":""},{"t":43.575,"note":70,"dur":0.045,"vel":0.496,"inst":"xylophone_v0_plucked_129","midi_source":""},{"t":43.62,"note":53,"dur":0.045,"vel":0.496,"inst":"banjo_v0_plucked_142","midi_source":""},{"t":43.62,"note":58,"dur":0.045,"vel":0.496,"inst":"xylophone_v0_plucked_129","midi_source":""},{"t":43.62,"note":55,"dur":0.403,"vel":0.496,"inst":"xylophone_v0_plucked_129","midi_source":""},{"t":43.62,"note":70,"dur":0.403,"vel":0.496,"inst":"xylophone_v0_plucked_129","midi_source":""},{"t":43.62,"note":77,"dur":0.134,"vel":0.496,"inst":"banjo_v0_plucked_142","midi_source":""},{"t":43.71,"note":53,"dur":0.02,"vel":0.496,"inst":"banjo_v0_plucked_142","midi_source":""},{"t":43.71,"note":58,"dur":0.02,"vel":0.496,"inst":"xylophone_v0_plucked_129","midi_source":""},{"t":43.754,"note":58,"dur":0.045,"vel":0.496,"inst":"xylophone_v0_plucked_129","midi_source":""},{"t":43.754,"note":67,"dur":0.168,"vel":0.496,"inst":"xylophone_v0_plucked_129","midi_source":""},{"t":43.799,"note":60,"dur":0.045,"vel":0.496,"inst":"pad_string_v0_bass_416","midi_source":""},{"t":43.844,"note":62,"dur":0.045,"vel":0.496,"inst":"banjo_v0_plucked_142","midi_source":""},{"t":43.889,"note":49,"dur":0.134,"vel":0.496,"inst":"xylophone_v0_plucked_129","midi_source":""},{"t":43.889,"note":65,"dur":0.134,"vel":0.496,"inst":"banjo_v0_plucked_142","midi_source":""},{"t":43.889,"note":70,"dur":0.045,"vel":0.496,"inst":"xylophone_v0_plucked_129","midi_source":""},{"t":43.922,"note":79,"dur":0.034,"vel":0.496,"inst":"xylophone_v0_plucked_129","midi_source":""},{"t":43.933,"note":73,"dur":0.045,"vel":0.496,"inst":"xylophone_v0_plucked_129","midi_source":""},{"t":43.956,"note":79,"dur":0.034,"vel":0.496,"inst":"xylophone_v0_plucked_129","midi_source":""},{"t":43.978,"note":77,"dur":0.045,"vel":0.496,"inst":"banjo_v0_plucked_142","midi_source":""},{"t":43.989,"note":82,"dur":0.034,"vel":0.496,"inst":"xylophone_v0_plucked_129","midi_source":""},{"t":44.023,"note":48,"dur":0.045,"vel":0.496,"inst":"pad_string_v0_bass_416","midi_source":""},{"t":44.023,"note":62,"dur":0.045,"vel":0.496,"inst":"banjo_v0_plucked_142","midi_source":""},{"t":44.023,"note":74,"dur":0.045,"vel":0.496,"inst":"banjo_v0_plucked_142","midi_source":""},{"t":44.023,"note":79,"dur":0.179,"vel":0.496,"inst":"xylophone_v0_plucked_129","midi_source":""},{"t":44.068,"note":50,"dur":0.045,"vel":0.496,"inst":"banjo_v0_plucked_142","midi_source":""},{"t":44.112,"note":55,"dur":0.045,"vel":0.496,"inst":"xylophone_v0_plucked_129","midi_source":""},{"t":44.112,"note":55,"dur":0.02,"vel":0.496,"inst":"xylophone_v0_plucked_129","midi_source":""},{"t":44.112,"note":67,"dur":0.02,"vel":0.496,"inst":"xylophone_v0_plucked_129","midi_source":""},{"t":44.157,"note":49,"dur":0.045,"vel":0.496,"inst":"xylophone_v0_plucked_129","midi_source":""},{"t":44.157,"note":65,"dur":0.045,"vel":0.496,"inst":"banjo_v0_plucked_142","midi_source":""},{"t":44.157,"note":67,"dur":0.045,"vel":0.496,"inst":"xylophone_v0_plucked_129","midi_source":""},{"t":44.202,"note":50,"dur":0.045,"vel":0.496,"inst":"banjo_v0_plucked_142","midi_source":""},{"t":44.202,"note":55,"dur":0.045,"vel":0.496,"inst":"xylophone_v0_plucked_129","midi_source":""},{"t":44.202,"note":72,"dur":0.045,"vel":0.496,"inst":"pad_string_v0_bass_416","midi_source":""},{"t":44.202,"note":67,"dur":0.045,"vel":0.496,"inst":"xylophone_v0_plucked_129","midi_source":""},{"t":44.246,"note":53,"dur":0.045,"vel":0.496,"inst":"banjo_v0_plucked_142","midi_source":""},{"t":44.246,"note":67,"dur":0.045,"vel":0.496,"inst":"xylophone_v0_plucked_129","midi_source":""},{"t":44.246,"note":73,"dur":0.045,"vel":0.496,"inst":"xylophone_v0_plucked_129","midi_source":""},{"t":44.246,"note":77,"dur":0.045,"vel":0.496,"inst":"banjo_v0_plucked_142","midi_source":""},{"t":44.291,"note":43,"dur":0.045,"vel":0.496,"inst":"xylophone_v0_plucked_129","midi_source":""},{"t":44.291,"note":55,"dur":0.045,"vel":0.496,"inst":"xylophone_v0_plucked_129","midi_source":""},{"t":44.291,"note":70,"dur":0.045,"vel":0.496,"inst":"xylophone_v0_plucked_129","midi_source":""},{"t":44.291,"note":74,"dur":0.045,"vel":0.496,"inst":"banjo_v0_plucked_142","midi_source":""},{"t":44.336,"note":61,"dur":0.045,"vel":0.496,"inst":"xylophone_v0_plucked_129","midi_source":""},{"t":44.336,"note":77,"dur":0.045,"vel":0.496,"inst":"banjo_v0_plucked_142","midi_source":""},{"t":44.381,"note":43,"dur":0.02,"vel":0.496,"inst":"xylophone_v0_plucked_129","midi_source":""},{"t":44.381,"note":65,"dur":0.045,"vel":0.496,"inst":"banjo_v0_plucked_142","midi_source":""},{"t":44.381,"note":70,"dur":0.02,"vel":0.496,"inst":"xylophone_v0_plucked_129","midi_source":""},{"t":44.381,"note":73,"dur":0.045,"vel":0.496,"inst":"xylophone_v0_plucked_129","midi_source":""},{"t":44.425,"note":46,"dur":0.045,"vel":0.496,"inst":"xylophone_v0_plucked_129","midi_source":""},{"t":44.425,"note":65,"dur":0.045,"vel":0.496,"inst":"banjo_v0_plucked_142","midi_source":""},{"t":44.425,"note":70,"dur":0.045,"vel":0.496,"inst":"xylophone_v0_plucked_129","midi_source":""},{"t":44.425,"note":73,"dur":0.134,"vel":0.496,"inst":"xylophone_v0_plucked_129","midi_source":""},{"t":44.47,"note":43,"dur":0.045,"vel":0.496,"inst":"xylophone_v0_plucked_129","midi_source":""},{"t":44.47,"note":65,"dur":0.045,"vel":0.496,"inst":"banjo_v0_plucked_142","midi_source":""},{"t":44.47,"note":55,"dur":0.045,"vel":0.496,"inst":"xylophone_v0_plucked_129","midi_source":""},{"t":44.515,"note":58,"dur":0.045,"vel":0.496,"inst":"xylophone_v0_plucked_129","midi_source":""},{"t":44.515,"note":65,"dur":0.045,"vel":0.496,"inst":"banjo_v0_plucked_142","midi_source":""},{"t":44.515,"note":55,"dur":0.045,"vel":0.496,"inst":"xylophone_v0_plucked_129","midi_source":""},{"t":44.56,"note":58,"dur":0.268,"vel":0.496,"inst":"xylophone_v0_plucked_129","midi_source":""},{"t":44.56,"note":62,"dur":0.045,"vel":0.496,"inst":"banjo_v0_plucked_142","midi_source":""},{"t":44.56,"note":55,"dur":0.179,"vel":0.496,"inst":"xylophone_v0_plucked_129","midi_source":""},{"t":44.56,"note":70,"dur":0.134,"vel":0.496,"inst":"xylophone_v0_plucked_129","midi_source":""},{"t":44.604,"note":55,"dur":0.045,"vel":0.496,"inst":"xylophone_v0_plucked_129","midi_source":""},{"t":44.649,"note":70,"dur":0.045,"vel":0.496,"inst":"xylophone_v0_plucked_129","midi_source":""},{"t":44.694,"note":70,"dur":0.045,"vel":0.496,"inst":"xylophone_v0_plucked_129","midi_source":""},{"t":44.739,"note":62,"dur":0.045,"vel":0.496,"inst":"banjo_v0_plucked_142","midi_source":""},{"t":44.739,"note":55,"dur":0.045,"vel":0.496,"inst":"xylophone_v0_plucked_129","midi_source":""},{"t":44.783,"note":61,"dur":0.045,"vel":0.496,"inst":"xylophone_v0_plucked_129","midi_source":""},{"t":44.783,"note":65,"dur":0.045,"vel":0.496,"inst":"banjo_v0_plucked_142","midi_source":""},{"t":44.828,"note":58,"dur":0.045,"vel":0.496,"inst":"xylophone_v0_plucked_129","midi_source":""},{"t":44.828,"note":58,"dur":0.134,"vel":0.496,"inst":"xylophone_v0_plucked_129","midi_source":""},{"t":44.828,"note":62,"dur":0.134,"vel":0.496,"inst":"banjo_v0_plucked_142","midi_source":""},{"t":44.873,"note":62,"dur":0.045,"vel":0.496,"inst":"banjo_v0_plucked_142","midi_source":""},{"t":44.917,"note":55,"dur":0.045,"vel":0.496,"inst":"xylophone_v0_plucked_129","midi_source":""},{"t":44.962,"note":55,"dur":0.134,"vel":0.496,"inst":"xylophone_v0_plucked_129","midi_source":""},{"t":44.962,"note":58,"dur":0.045,"vel":0.496,"inst":"xylophone_v0_plucked_129","midi_source":""},{"t":44.962,"note":65,"dur":0.134,"vel":0.496,"inst":"banjo_v0_plucked_142","midi_source":""},{"t":44.962,"note":70,"dur":0.313,"vel":0.496,"inst":"xylophone_v0_plucked_129","midi_source":""},{"t":45.007,"note":62,"dur":0.045,"vel":0.496,"inst":"banjo_v0_plucked_142","midi_source":""},{"t":45.052,"note":67,"dur":0.045,"vel":0.496,"inst":"xylophone_v0_plucked_129","midi_source":""},{"t":45.096,"note":43,"dur":0.134,"vel":0.496,"inst":"xylophone_v0_plucked_129","midi_source":""},{"t":45.096,"note":55,"dur":0.045,"vel":0.496,"inst":"xylophone_v0_plucked_129","midi_source":""},{"t":45.096,"note":70,"dur":0.134,"vel":0.496,"inst":"xylophone_v0_plucked_129","midi_source":""},{"t":45.141,"note":70,"dur":0.045,"vel":0.496,"inst":"xylophone_v0_plucked_129","midi_source":""},{"t":45.186,"note":74,"dur":0.045,"vel":0.496,"inst":"banjo_v0_plucked_142","midi_source":""},{"t":45.231,"note":53,"dur":0.313,"vel":0.496,"inst":"banjo_v0_plucked_142","midi_source":""},{"t":45.231,"note":67,"dur":0.313,"vel":0.496,"inst":"xylophone_v0_plucked_129","midi_source":""},{"t":45.231,"note":77,"dur":0.313,"vel":0.496,"inst":"banjo_v0_plucked_142","midi_source":""},{"t":45.275,"note":65,"dur":0.045,"vel":0.496,"inst":"banjo_v0_plucked_142","midi_source":""},{"t":45.32,"note":55,"dur":0.045,"vel":0.496,"inst":"xylophone_v0_plucked_129","midi_source":""},{"t":45.365,"note":67,"dur":0.045,"vel":0.496,"inst":"xylophone_v0_plucked_129","midi_source":""},{"t":45.41,"note":70,"dur":0.045,"vel":0.496,"inst":"xylophone_v0_plucked_129","midi_source":""},{"t":45.454,"note":77,"dur":0.045,"vel":0.496,"inst":"banjo_v0_plucked_142","midi_source":""},{"t":45.499,"note":79,"dur":0.045,"vel":0.496,"inst":"xylophone_v0_plucked_129","midi_source":""},{"t":45.544,"note":46,"dur":0.045,"vel":0.496,"inst":"xylophone_v0_plucked_129","midi_source":""},{"t":45.544,"note":67,"dur":0.045,"vel":0.496,"inst":"xylophone_v0_plucked_129","midi_source":""},{"t":45.544,"note":70,"dur":0.045,"vel":0.496,"inst":"xylophone_v0_plucked_129","midi_source":""},{"t":45.544,"note":82,"dur":0.045,"vel":0.496,"inst":"xylophone_v0_plucked_129","midi_source":""},{"t":45.588,"note":49,"dur":0.045,"vel":0.496,"inst":"xylophone_v0_plucked_129","midi_source":""},{"t":45.588,"note":55,"dur":0.045,"vel":0.496,"inst":"xylophone_v0_plucked_129","midi_source":""},{"t":45.588,"note":70,"dur":0.045,"vel":0.496,"inst":"xylophone_v0_plucked_129","midi_source":""},{"t":45.588,"note":82,"dur":0.045,"vel":0.496,"inst":"xylophone_v0_plucked_129","midi_source":""},{"t":45.633,"note":50,"dur":0.067,"vel":0.496,"inst":"banjo_v0_plucked_142","midi_source":""},{"t":45.633,"note":65,"dur":0.134,"vel":0.496,"inst":"banjo_v0_plucked_142","midi_source":""},{"t":45.633,"note":67,"dur":0.134,"vel":0.496,"inst":"xylophone_v0_plucked_129","midi_source":""},{"t":45.633,"note":79,"dur":0.134,"vel":0.496,"inst":"xylophone_v0_plucked_129","midi_source":""},{"t":45.7,"note":58,"dur":0.067,"vel":0.496,"inst":"xylophone_v0_plucked_129","midi_source":""},{"t":45.767,"note":49,"dur":0.134,"vel":0.496,"inst":"xylophone_v0_plucked_129","midi_source":""},{"t":45.767,"note":58,"dur":0.045,"vel":0.496,"inst":"xylophone_v0_plucked_129","midi_source":""},{"t":45.767,"note":65,"dur":0.134,"vel":0.496,"inst":"banjo_v0_plucked_142","midi_source":""},{"t":45.767,"note":82,"dur":0.134,"vel":0.496,"inst":"xylophone_v0_plucked_129","midi_source":""},{"t":45.812,"note":61,"dur":0.045,"vel":0.496,"inst":"xylophone_v0_plucked_129","midi_source":""},{"t":45.857,"note":65,"dur":0.045,"vel":0.496,"inst":"banjo_v0_plucked_142","midi_source":""},{"t":45.902,"note":46,"dur":0.134,"vel":0.496,"inst":"xylophone_v0_plucked_129","midi_source":""},{"t":45.902,"note":62,"dur":0.134,"vel":0.496,"inst":"banjo_v0_plucked_142","midi_source":""},{"t":45.902,"note":67,"dur":0.045,"vel":0.496,"inst":"xylophone_v0_plucked_129","midi_source":""},{"t":45.902,"note":82,"dur":0.134,"vel":0.496,"inst":"xylophone_v0_plucked_129","midi_source":""},{"t":45.946,"note":70,"dur":0.045,"vel":0.496,"inst":"xylophone_v0_plucked_129","midi_source":""},{"t":45.991,"note":77,"dur":0.045,"vel":0.496,"inst":"banjo_v0_plucked_142","midi_source":""},{"t":46.036,"note":46,"dur":0.045,"vel":0.496,"inst":"xylophone_v0_plucked_129","midi_source":""},{"t":46.036,"note":61,"dur":0.134,"vel":0.496,"inst":"xylophone_v0_plucked_129","midi_source":""},{"t":46.036,"note":77,"dur":0.067,"vel":0.496,"inst":"banjo_v0_plucked_142","midi_source":""},{"t":46.036,"note":85,"dur":0.313,"vel":0.496,"inst":"xylophone_v0_plucked_129","midi_source":""},{"t":46.081,"note":49,"dur":0.045,"vel":0.496,"inst":"xylophone_v0_plucked_129","midi_source":""},{"t":46.103,"note":82,"dur":0.246,"vel":0.496,"inst":"xylophone_v0_plucked_129","midi_source":""},{"t":46.125,"note":53,"dur":0.045,"vel":0.496,"inst":"banjo_v0_plucked_142","midi_source":""},{"t":46.17,"note":55,"dur":0.045,"vel":0.496,"inst":"xylophone_v0_plucked_129","midi_source":""},{"t":46.17,"note":65,"dur":0.134,"vel":0.496,"inst":"banjo_v0_plucked_142","midi_source":""},{"t":46.215,"note":58,"dur":0.045,"vel":0.496,"inst":"xylophone_v0_plucked_129","midi_source":""},{"t":46.259,"note":61,"dur":0.045,"vel":0.496,"inst":"xylophone_v0_plucked_129","midi_source":""},{"t":46.304,"note":65,"dur":0.045,"vel":0.496,"inst":"banjo_v0_plucked_142","midi_source":""},{"t":46.304,"note":73,"dur":0.045,"vel":0.496,"inst":"xylophone_v0_plucked_129","midi_source":""},{"t":46.349,"note":67,"dur":0.045,"vel":0.496,"inst":"xylophone_v0_plucked_129","midi_source":""},{"t":46.349,"note":70,"dur":0.045,"vel":0.496,"inst":"xylophone_v0_plucked_129","midi_source":""},{"t":46.349,"note":82,"dur":0.045,"vel":0.496,"inst":"xylophone_v0_plucked_129","midi_source":""},{"t":46.349,"note":86,"dur":0.045,"vel":0.496,"inst":"banjo_v0_plucked_142","midi_source":""},{"t":46.394,"note":70,"dur":0.045,"vel":0.496,"inst":"xylophone_v0_plucked_129","midi_source":""},{"t":46.394,"note":73,"dur":0.045,"vel":0.496,"inst":"xylophone_v0_plucked_129","midi_source":""},{"t":46.394,"note":82,"dur":0.045,"vel":0.496,"inst":"xylophone_v0_plucked_129","midi_source":""},{"t":46.394,"note":85,"dur":0.045,"vel":0.496,"inst":"xylophone_v0_plucked_129","midi_source":""},{"t":46.438,"note":49,"dur":0.045,"vel":0.496,"inst":"xylophone_v0_plucked_129","midi_source":""},{"t":46.438,"note":73,"dur":0.067,"vel":0.496,"inst":"xylophone_v0_plucked_129","midi_source":""},{"t":46.438,"note":82,"dur":0.067,"vel":0.496,"inst":"xylophone_v0_plucked_129","midi_source":""},{"t":46.438,"note":85,"dur":0.067,"vel":0.496,"inst":"xylophone_v0_plucked_129","midi_source":""},{"t":46.483,"note":53,"dur":0.045,"vel":0.496,"inst":"banjo_v0_plucked_142","midi_source":""},{"t":46.506,"note":65,"dur":0.246,"vel":0.496,"inst":"banjo_v0_plucked_142","midi_source":""},{"t":46.506,"note":79,"dur":0.246,"vel":0.496,"inst":"xylophone_v0_plucked_129","midi_source":""},{"t":46.506,"note":82,"dur":0.246,"vel":0.496,"inst":"xylophone_v0_plucked_129","midi_source":""},{"t":46.528,"note":55,"dur":0.045,"vel":0.496,"inst":"xylophone_v0_plucked_129","midi_source":""},{"t":46.573,"note":58,"dur":0.045,"vel":0.496,"inst":"xylophone_v0_plucked_129","midi_source":""},{"t":46.617,"note":61,"dur":0.045,"vel":0.496,"inst":"xylophone_v0_plucked_129","midi_source":""},{"t":46.662,"note":65,"dur":0.045,"vel":0.496,"inst":"banjo_v0_plucked_142","midi_source":""},{"t":46.707,"note":67,"dur":0.045,"vel":0.496,"inst":"xylophone_v0_plucked_129","midi_source":""},{"t":46.752,"note":49,"dur":0.045,"vel":0.496,"inst":"xylophone_v0_plucked_129","midi_source":""},{"t":46.752,"note":82,"dur":0.045,"vel":0.496,"inst":"xylophone_v0_plucked_129","midi_source":""},{"t":46.752,"note":85,"dur":0.045,"vel":0.496,"inst":"xylophone_v0_plucked_129","midi_source":""},{"t":46.796,"note":53,"dur":0.045,"vel":0.496,"inst":"banjo_v0_plucked_142","midi_source":""},{"t":46.796,"note":73,"dur":0.02,"vel":0.496,"inst":"xylophone_v0_plucked_129","midi_source":""},{"t":46.796,"note":79,"dur":0.045,"vel":0.496,"inst":"xylophone_v0_plucked_129","midi_source":""},{"t":46.796,"note":82,"dur":0.045,"vel":0.496,"inst":"xylophone_v0_plucked_129","midi_source":""},{"t":46.841,"note":43,"dur":0.045,"vel":0.496,"inst":"xylophone_v0_plucked_129","midi_source":""},{"t":46.841,"note":73,"dur":0.067,"vel":0.496,"inst":"xylophone_v0_plucked_129","midi_source":""},{"t":46.841,"note":79,"dur":0.067,"vel":0.496,"inst":"xylophone_v0_plucked_129","midi_source":""},{"t":46.841,"note":82,"dur":0.067,"vel":0.496,"inst":"xylophone_v0_plucked_129","midi_source":""},{"t":46.886,"note":58,"dur":0.045,"vel":0.496,"inst":"xylophone_v0_plucked_129","midi_source":""},{"t":46.908,"note":61,"dur":0.246,"vel":0.496,"inst":"xylophone_v0_plucked_129","midi_source":""},{"t":46.908,"note":67,"dur":0.201,"vel":0.496,"inst":"xylophone_v0_plucked_129","midi_source":""},{"t":46.908,"note":82,"dur":0.246,"vel":0.496,"inst":"xylophone_v0_plucked_129","midi_source":""},{"t":46.93,"note":61,"dur":0.045,"vel":0.496,"inst":"xylophone_v0_plucked_129","midi_source":""},{"t":46.975,"note":65,"dur":0.045,"vel":0.496,"inst":"banjo_v0_plucked_142","midi_source":""},{"t":47.02,"note":55,"dur":0.045,"vel":0.496,"inst":"xylophone_v0_plucked_129","midi_source":""},{"t":47.065,"note":70,"dur":0.045,"vel":0.496,"inst":"xylophone_v0_plucked_129","midi_source":""},{"t":47.109,"note":73,"dur":0.045,"vel":0.496,"inst":"xylophone_v0_plucked_129","midi_source":""},{"t":47.109,"note":67,"dur":0.045,"vel":0.496,"inst":"xylophone_v0_plucked_129","midi_source":""},{"t":47.154,"note":43,"dur":0.045,"vel":0.496,"inst":"xylophone_v0_plucked_129","midi_source":""},{"t":47.154,"note":70,"dur":0.045,"vel":0.496,"inst":"xylophone_v0_plucked_129","midi_source":""},{"t":47.154,"note":85,"dur":0.045,"vel":0.496,"inst":"xylophone_v0_plucked_129","midi_source":""},{"t":47.199,"note":55,"dur":0.045,"vel":0.496,"inst":"xylophone_v0_plucked_129","midi_source":""},{"t":47.199,"note":65,"dur":0.045,"vel":0.496,"inst":"banjo_v0_plucked_142","midi_source":""},{"t":47.199,"note":73,"dur":0.02,"vel":0.496,"inst":"xylophone_v0_plucked_129","midi_source":""},{"t":47.199,"note":82,"dur":0.045,"vel":0.496,"inst":"xylophone_v0_plucked_129","midi_source":""},{"t":47.244,"note":46,"dur":0.045,"vel":0.496,"inst":"xylophone_v0_plucked_129","midi_source":""},{"t":47.244,"note":55,"dur":0.313,"vel":0.496,"inst":"xylophone_v0_plucked_129","midi_source":""},{"t":47.244,"note":73,"dur":0.313,"vel":0.496,"inst":"xylophone_v0_plucked_129","midi_source":""},{"t":47.244,"note":82,"dur":0.067,"vel":0.496,"inst":"xylophone_v0_plucked_129","midi_source":""},{"t":47.289,"note":49,"dur":0.045,"vel":0.496,"inst":"xylophone_v0_plucked_129","midi_source":""},{"t":47.311,"note":82,"dur":0.067,"vel":0.496,"inst":"xylophone_v0_plucked_129","midi_source":""},{"t":47.333,"note":43,"dur":0.045,"vel":0.496,"inst":"xylophone_v0_plucked_129","midi_source":""},{"t":47.378,"note":58,"dur":0.045,"vel":0.496,"inst":"xylophone_v0_plucked_129","midi_source":""},{"t":47.378,"note":79,"dur":0.067,"vel":0.496,"inst":"xylophone_v0_plucked_129","midi_source":""},{"t":47.423,"note":61,"dur":0.045,"vel":0.496,"inst":"xylophone_v0_plucked_129","midi_source":""},{"t":47.445,"note":67,"dur":0.067,"vel":0.496,"inst":"xylophone_v0_plucked_129","midi_source":""},{"t":47.467,"note":55,"dur":0.045,"vel":0.496,"inst":"xylophone_v0_plucked_129","midi_source":""},{"t":47.512,"note":70,"dur":0.045,"vel":0.496,"inst":"xylophone_v0_plucked_129","midi_source":""},{"t":47.512,"note":86,"dur":0.045,"vel":0.496,"inst":"banjo_v0_plucked_142","midi_source":""},{"t":47.557,"note":58,"dur":0.045,"vel":0.496,"inst":"xylophone_v0_plucked_129","midi_source":""},{"t":47.557,"note":55,"dur":0.045,"vel":0.496,"inst":"xylophone_v0_plucked_129","midi_source":""},{"t":47.557,"note":73,"dur":0.045,"vel":0.496,"inst":"xylophone_v0_plucked_129","midi_source":""},{"t":47.557,"note":85,"dur":0.045,"vel":0.496,"inst":"xylophone_v0_plucked_129","midi_source":""},{"t":47.601,"note":46,"dur":0.045,"vel":0.496,"inst":"xylophone_v0_plucked_129","midi_source":""},{"t":47.601,"note":55,"dur":0.045,"vel":0.496,"inst":"xylophone_v0_plucked_129","midi_source":""},{"t":47.601,"note":70,"dur":0.045,"vel":0.496,"inst":"xylophone_v0_plucked_129","midi_source":""},{"t":47.601,"note":74,"dur":0.045,"vel":0.496,"inst":"banjo_v0_plucked_142","midi_source":""},{"t":47.646,"note":43,"dur":0.045,"vel":0.496,"inst":"xylophone_v0_plucked_129","midi_source":""},{"t":47.646,"note":65,"dur":0.045,"vel":0.496,"inst":"banjo_v0_plucked_142","midi_source":""},{"t":47.646,"note":70,"dur":0.045,"vel":0.496,"inst":"xylophone_v0_plucked_129","midi_source":""},{"t":47.646,"note":67,"dur":0.034,"vel":0.496,"inst":"xylophone_v0_plucked_129","midi_source":""},{"t":47.68,"note":77,"dur":0.034,"vel":0.496,"inst":"banjo_v0_plucked_142","midi_source":""},{"t":47.691,"note":49,"dur":0.045,"vel":0.496,"inst":"xylophone_v0_plucked_129","midi_source":""},{"t":47.691,"note":65,"dur":0.045,"vel":0.496,"inst":"banjo_v0_plucked_142","midi_source":""},{"t":47.691,"note":70,"dur":0.045,"vel":0.496,"inst":"xylophone_v0_plucked_129","midi_source":""},{"t":47.713,"note":82,"dur":0.034,"vel":0.496,"inst":"xylophone_v0_plucked_129","midi_source":""},{"t":47.736,"note":46,"dur":0.045,"vel":0.496,"inst":"xylophone_v0_plucked_129","midi_source":""},{"t":47.736,"note":73,"dur":0.045,"vel":0.496,"inst":"xylophone_v0_plucked_129","midi_source":""},{"t":47.736,"note":77,"dur":0.045,"vel":0.496,"inst":"banjo_v0_plucked_142","midi_source":""},{"t":47.747,"note":82,"dur":0.034,"vel":0.496,"inst":"xylophone_v0_plucked_129","midi_source":""},{"t":47.78,"note":46,"dur":0.045,"vel":0.992,"inst":"xylophone_v0_plucked_129","midi_source":""},{"t":47.78,"note":70,"dur":0.045,"vel":0.992,"inst":"xylophone_v0_plucked_129","midi_source":""},{"t":47.78,"note":77,"dur":0.045,"vel":0.992,"inst":"banjo_v0_plucked_142","midi_source":""},{"t":47.78,"note":79,"dur":0.134,"vel":0.992,"inst":"xylophone_v0_plucked_129","midi_source":""},{"t":47.825,"note":58,"dur":0.045,"vel":0.992,"inst":"xylophone_v0_plucked_129","midi_source":""},{"t":47.825,"note":67,"dur":0.045,"vel":0.992,"inst":"xylophone_v0_plucked_129","midi_source":""},{"t":47.825,"note":70,"dur":0.045,"vel":0.992,"inst":"xylophone_v0_plucked_129","midi_source":""},{"t":47.87,"note":46,"dur":0.045,"vel":0.992,"inst":"xylophone_v0_plucked_129","midi_source":""},{"t":47.87,"note":65,"dur":0.045,"vel":0.992,"inst":"banjo_v0_plucked_142","midi_source":""},{"t":47.87,"note":67,"dur":0.045,"vel":0.992,"inst":"xylophone_v0_plucked_129","midi_source":""},{"t":47.915,"note":46,"dur":0.045,"vel":0.992,"inst":"xylophone_v0_plucked_129","midi_source":""},{"t":47.915,"note":62,"dur":0.045,"vel":0.992,"inst":"banjo_v0_plucked_142","midi_source":""},{"t":47.915,"note":70,"dur":0.045,"vel":0.992,"inst":"xylophone_v0_plucked_129","midi_source":""},{"t":47.915,"note":67,"dur":0.045,"vel":0.992,"inst":"xylophone_v0_plucked_129","midi_source":""},{"t":47.96,"note":85,"dur":0.045,"vel":0.992,"inst":"xylophone_v0_plucked_129","midi_source":""},{"t":48.004,"note":46,"dur":0.02,"vel":0.992,"inst":"xylophone_v0_plucked_129","midi_source":""},{"t":48.004,"note":62,"dur":0.02,"vel":0.992,"inst":"banjo_v0_plucked_142","midi_source":""},{"t":48.004,"note":70,"dur":0.02,"vel":0.992,"inst":"xylophone_v0_plucked_129","midi_source":""},{"t":48.004,"note":82,"dur":0.045,"vel":0.992,"inst":"xylophone_v0_plucked_129","midi_source":""},{"t":48.049,"note":53,"dur":0.045,"vel":0.496,"inst":"banjo_v0_plucked_142","midi_source":""},{"t":48.049,"note":65,"dur":0.067,"vel":0.496,"inst":"banjo_v0_plucked_142","midi_source":""},{"t":48.049,"note":67,"dur":0.134,"vel":0.496,"inst":"xylophone_v0_plucked_129","midi_source":""},{"t":48.049,"note":77,"dur":0.134,"vel":0.496,"inst":"banjo_v0_plucked_142","midi_source":""},{"t":48.094,"note":43,"dur":0.045,"vel":0.496,"inst":"xylophone_v0_plucked_129","midi_source":""},{"t":48.138,"note":55,"dur":0.045,"vel":0.496,"inst":"xylophone_v0_plucked_129","midi_source":""},{"t":48.183,"note":53,"dur":0.268,"vel":0.496,"inst":"banjo_v0_plucked_142","midi_source":""},{"t":48.183,"note":58,"dur":0.268,"vel":0.496,"inst":"xylophone_v0_plucked_129","midi_source":""},{"t":48.183,"note":61,"dur":0.045,"vel":0.496,"inst":"xylophone_v0_plucked_129","midi_source":""},{"t":48.183,"note":73,"dur":0.201,"vel":0.496,"inst":"xylophone_v0_plucked_129","midi_source":""},{"t":48.228,"note":62,"dur":0.045,"vel":0.496,"inst":"banjo_v0_plucked_142","midi_source":""},{"t":48.272,"note":65,"dur":0.045,"vel":0.496,"inst":"banjo_v0_plucked_142","midi_source":""},{"t":48.317,"note":55,"dur":0.045,"vel":0.496,"inst":"xylophone_v0_plucked_129","midi_source":""},{"t":48.317,"note":55,"dur":0.134,"vel":0.496,"inst":"xylophone_v0_plucked_129","midi_source":""},{"t":48.362,"note":67,"dur":0.045,"vel":0.496,"inst":"xylophone_v0_plucked_129","midi_source":""},{"t":48.384,"note":67,"dur":0.067,"vel":0.496,"inst":"xylophone_v0_plucked_129","midi_source":""},{"t":48.407,"note":70,"dur":0.045,"vel":0.496,"inst":"xylophone_v0_plucked_129","midi_source":""},{"t":48.452,"note":53,"dur":0.045,"vel":0.496,"inst":"banjo_v0_plucked_142","midi_source":""},{"t":48.452,"note":58,"dur":0.045,"vel":0.496,"inst":"xylophone_v0_plucked_129","midi_source":""},{"t":48.452,"note":55,"dur":0.403,"vel":0.496,"inst":"xylophone_v0_plucked_129","midi_source":""},{"t":48.452,"note":70,"dur":0.403,"vel":0.496,"inst":"xylophone_v0_plucked_129","midi_source":""},{"t":48.452,"note":77,"dur":0.134,"vel":0.496,"inst":"banjo_v0_plucked_142","midi_source":""},{"t":48.541,"note":53,"dur":0.02,"vel":0.496,"inst":"banjo_v0_plucked_142","midi_source":""},{"t":48.541,"note":58,"dur":0.02,"vel":0.496,"inst":"xylophone_v0_plucked_129","midi_source":""},{"t":48.586,"note":58,"dur":0.045,"vel":0.496,"inst":"xylophone_v0_plucked_129","midi_source":""},{"t":48.586,"note":67,"dur":0.168,"vel":0.496,"inst":"xylophone_v0_plucked_129","midi_source":""},{"t":48.631,"note":60,"dur":0.045,"vel":0.496,"inst":"pad_string_v0_bass_416","midi_source":""},{"t":48.675,"note":62,"dur":0.045,"vel":0.496,"inst":"banjo_v0_plucked_142","midi_source":""},{"t":48.72,"note":49,"dur":0.134,"vel":0.496,"inst":"xylophone_v0_plucked_129","midi_source":""},{"t":48.72,"note":65,"dur":0.134,"vel":0.496,"inst":"banjo_v0_plucked_142","midi_source":""},{"t":48.72,"note":70,"dur":0.045,"vel":0.496,"inst":"xylophone_v0_plucked_129","midi_source":""},{"t":48.753,"note":79,"dur":0.034,"vel":0.496,"inst":"xylophone_v0_plucked_129","midi_source":""},{"t":48.765,"note":73,"dur":0.045,"vel":0.496,"inst":"xylophone_v0_plucked_129","midi_source":""},{"t":48.787,"note":79,"dur":0.034,"vel":0.496,"inst":"xylophone_v0_plucked_129","midi_source":""},{"t":48.809,"note":77,"dur":0.045,"vel":0.496,"inst":"banjo_v0_plucked_142","midi_source":""},{"t":48.821,"note":82,"dur":0.034,"vel":0.496,"inst":"xylophone_v0_plucked_129","midi_source":""},{"t":48.854,"note":48,"dur":0.045,"vel":0.496,"inst":"pad_string_v0_bass_416","midi_source":""},{"t":48.854,"note":62,"dur":0.045,"vel":0.496,"inst":"banjo_v0_plucked_142","midi_source":""},{"t":48.854,"note":74,"dur":0.045,"vel":0.496,"inst":"banjo_v0_plucked_142","midi_source":""},{"t":48.854,"note":79,"dur":0.179,"vel":0.496,"inst":"xylophone_v0_plucked_129","midi_source":""},{"t":48.899,"note":50,"dur":0.045,"vel":0.496,"inst":"banjo_v0_plucked_142","midi_source":""},{"t":48.944,"note":55,"dur":0.045,"vel":0.496,"inst":"xylophone_v0_plucked_129","midi_source":""},{"t":48.944,"note":55,"dur":0.02,"vel":0.496,"inst":"xylophone_v0_plucked_129","midi_source":""},{"t":48.944,"note":67,"dur":0.02,"vel":0.496,"inst":"xylophone_v0_plucked_129","midi_source":""},{"t":48.988,"note":49,"dur":0.045,"vel":0.496,"inst":"xylophone_v0_plucked_129","midi_source":""},{"t":48.988,"note":65,"dur":0.045,"vel":0.496,"inst":"banjo_v0_plucked_142","midi_source":""},{"t":48.988,"note":67,"dur":0.045,"vel":0.496,"inst":"xylophone_v0_plucked_129","midi_source":""},{"t":49.033,"note":50,"dur":0.045,"vel":0.496,"inst":"banjo_v0_plucked_142","midi_source":""},{"t":49.033,"note":55,"dur":0.045,"vel":0.496,"inst":"xylophone_v0_plucked_129","midi_source":""},{"t":49.033,"note":72,"dur":0.045,"vel":0.496,"inst":"pad_string_v0_bass_416","midi_source":""},{"t":49.033,"note":67,"dur":0.045,"vel":0.496,"inst":"xylophone_v0_plucked_129","midi_source":""},{"t":49.078,"note":53,"dur":0.045,"vel":0.496,"inst":"banjo_v0_plucked_142","midi_source":""},{"t":49.078,"note":67,"dur":0.045,"vel":0.496,"inst":"xylophone_v0_plucked_129","midi_source":""},{"t":49.078,"note":73,"dur":0.045,"vel":0.496,"inst":"xylophone_v0_plucked_129","midi_source":""},{"t":49.078,"note":77,"dur":0.045,"vel":0.496,"inst":"banjo_v0_plucked_142","midi_source":""},{"t":49.123,"note":43,"dur":0.045,"vel":0.496,"inst":"xylophone_v0_plucked_129","midi_source":""},{"t":49.123,"note":55,"dur":0.045,"vel":0.496,"inst":"xylophone_v0_plucked_129","midi_source":""},{"t":49.123,"note":70,"dur":0.045,"vel":0.496,"inst":"xylophone_v0_plucked_129","midi_source":""},{"t":49.123,"note":74,"dur":0.045,"vel":0.496,"inst":"banjo_v0_plucked_142","midi_source":""},{"t":49.167,"note":61,"dur":0.045,"vel":0.496,"inst":"xylophone_v0_plucked_129","midi_source":""},{"t":49.167,"note":77,"dur":0.045,"vel":0.496,"inst":"banjo_v0_plucked_142","midi_source":""},{"t":49.212,"note":43,"dur":0.02,"vel":0.496,"inst":"xylophone_v0_plucked_129","midi_source":""},{"t":49.212,"note":65,"dur":0.045,"vel":0.496,"inst":"banjo_v0_plucked_142","midi_source":""},{"t":49.212,"note":70,"dur":0.02,"vel":0.496,"inst":"xylophone_v0_plucked_129","midi_source":""},{"t":49.212,"note":73,"dur":0.045,"vel":0.496,"inst":"xylophone_v0_plucked_129","midi_source":""},{"t":49.257,"note":46,"dur":0.045,"vel":0.496,"inst":"xylophone_v0_plucked_129","midi_source":""},{"t":49.257,"note":65,"dur":0.045,"vel":0.496,"inst":"banjo_v0_plucked_142","midi_source":""},{"t":49.257,"note":70,"dur":0.045,"vel":0.496,"inst":"xylophone_v0_plucked_129","midi_source":""},{"t":49.257,"note":73,"dur":0.134,"vel":0.496,"inst":"xylophone_v0_plucked_129","midi_source":""},{"t":49.302,"note":43,"dur":0.045,"vel":0.496,"inst":"xylophone_v0_plucked_129","midi_source":""},{"t":49.302,"note":65,"dur":0.045,"vel":0.496,"inst":"banjo_v0_plucked_142","midi_source":""},{"t":49.302,"note":55,"dur":0.045,"vel":0.496,"inst":"xylophone_v0_plucked_129","midi_source":""},{"t":49.346,"note":58,"dur":0.045,"vel":0.496,"inst":"xylophone_v0_plucked_129","midi_source":""},{"t":49.346,"note":65,"dur":0.045,"vel":0.496,"inst":"banjo_v0_plucked_142","midi_source":""},{"t":49.346,"note":55,"dur":0.045,"vel":0.496,"inst":"xylophone_v0_plucked_129","midi_source":""},{"t":49.391,"note":58,"dur":0.268,"vel":0.496,"inst":"xylophone_v0_plucked_129","midi_source":""},{"t":49.391,"note":62,"dur":0.045,"vel":0.496,"inst":"banjo_v0_plucked_142","midi_source":""},{"t":49.391,"note":55,"dur":0.179,"vel":0.496,"inst":"xylophone_v0_plucked_129","midi_source":""},{"t":49.391,"note":70,"dur":0.134,"vel":0.496,"inst":"xylophone_v0_plucked_129","midi_source":""},{"t":49.436,"note":55,"dur":0.045,"vel":0.496,"inst":"xylophone_v0_plucked_129","midi_source":""},{"t":49.48,"note":70,"dur":0.045,"vel":0.496,"inst":"xylophone_v0_plucked_129","midi_source":""},{"t":49.525,"note":70,"dur":0.045,"vel":0.496,"inst":"xylophone_v0_plucked_129","midi_source":""},{"t":49.57,"note":62,"dur":0.045,"vel":0.496,"inst":"banjo_v0_plucked_142","midi_source":""},{"t":49.57,"note":55,"dur":0.045,"vel":0.496,"inst":"xylophone_v0_plucked_129","midi_source":""},{"t":49.615,"note":61,"dur":0.045,"vel":0.496,"inst":"xylophone_v0_plucked_129","midi_source":""},{"t":49.615,"note":65,"dur":0.045,"vel":0.496,"inst":"banjo_v0_plucked_142","midi_source":""},{"t":49.659,"note":58,"dur":0.045,"vel":0.496,"inst":"xylophone_v0_plucked_129","midi_source":""},{"t":49.659,"note":58,"dur":0.134,"vel":0.496,"inst":"xylophone_v0_plucked_129","midi_source":""},{"t":49.659,"note":62,"dur":0.134,"vel":0.496,"inst":"banjo_v0_plucked_142","midi_source":""},{"t":49.704,"note":62,"dur":0.045,"vel":0.496,"inst":"banjo_v0_plucked_142","midi_source":""},{"t":49.749,"note":55,"dur":0.045,"vel":0.496,"inst":"xylophone_v0_plucked_129","midi_source":""},{"t":49.794,"note":55,"dur":0.134,"vel":0.496,"inst":"xylophone_v0_plucked_129","midi_source":""},{"t":49.794,"note":58,"dur":0.045,"vel":0.496,"inst":"xylophone_v0_plucked_129","midi_source":""},{"t":49.794,"note":65,"dur":0.134,"vel":0.496,"inst":"banjo_v0_plucked_142","midi_source":""},{"t":49.794,"note":70,"dur":0.313,"vel":0.496,"inst":"xylophone_v0_plucked_129","midi_source":""},{"t":49.838,"note":62,"dur":0.045,"vel":0.496,"inst":"banjo_v0_plucked_142","midi_source":""},{"t":49.883,"note":67,"dur":0.045,"vel":0.496,"inst":"xylophone_v0_plucked_129","midi_source":""},{"t":49.928,"note":43,"dur":0.134,"vel":0.496,"inst":"xylophone_v0_plucked_129","midi_source":""},{"t":49.928,"note":55,"dur":0.045,"vel":0.496,"inst":"xylophone_v0_plucked_129","midi_source":""},{"t":49.928,"note":70,"dur":0.134,"vel":0.496,"inst":"xylophone_v0_plucked_129","midi_source":""},{"t":49.973,"note":70,"dur":0.045,"vel":0.496,"inst":"xylophone_v0_plucked_129","midi_source":""},{"t":50.017,"note":74,"dur":0.045,"vel":0.496,"inst":"banjo_v0_plucked_142","midi_source":""},{"t":50.062,"note":53,"dur":0.313,"vel":0.496,"inst":"banjo_v0_plucked_142","midi_source":""},{"t":50.062,"note":67,"dur":0.313,"vel":0.496,"inst":"xylophone_v0_plucked_129","midi_source":""},{"t":50.062,"note":77,"dur":0.313,"vel":0.496,"inst":"banjo_v0_plucked_142","midi_source":""},{"t":50.107,"note":65,"dur":0.045,"vel":0.496,"inst":"banjo_v0_plucked_142","midi_source":""},{"t":50.151,"note":55,"dur":0.045,"vel":0.496,"inst":"xylophone_v0_plucked_129","midi_source":""},{"t":50.196,"note":67,"dur":0.045,"vel":0.496,"inst":"xylophone_v0_plucked_129","midi_source":""},{"t":50.241,"note":70,"dur":0.045,"vel":0.496,"inst":"xylophone_v0_plucked_129","midi_source":""},{"t":50.286,"note":77,"dur":0.045,"vel":0.496,"inst":"banjo_v0_plucked_142","midi_source":""},{"t":50.33,"note":79,"dur":0.045,"vel":0.496,"inst":"xylophone_v0_plucked_129","midi_source":""},{"t":50.375,"note":46,"dur":0.045,"vel":0.496,"inst":"xylophone_v0_plucked_129","midi_source":""},{"t":50.375,"note":67,"dur":0.045,"vel":0.496,"inst":"xylophone_v0_plucked_129","midi_source":""},{"t":50.375,"note":70,"dur":0.045,"vel":0.496,"inst":"xylophone_v0_plucked_129","midi_source":""},{"t":50.375,"note":82,"dur":0.045,"vel":0.496,"inst":"xylophone_v0_plucked_129","midi_source":""},{"t":50.42,"note":49,"dur":0.045,"vel":0.496,"inst":"xylophone_v0_plucked_129","midi_source":""},{"t":50.42,"note":55,"dur":0.045,"vel":0.496,"inst":"xylophone_v0_plucked_129","midi_source":""},{"t":50.42,"note":70,"dur":0.045,"vel":0.496,"inst":"xylophone_v0_plucked_129","midi_source":""},{"t":50.42,"note":82,"dur":0.045,"vel":0.496,"inst":"xylophone_v0_plucked_129","midi_source":""},{"t":50.465,"note":50,"dur":0.067,"vel":0.496,"inst":"banjo_v0_plucked_142","midi_source":""},{"t":50.465,"note":65,"dur":0.134,"vel":0.496,"inst":"banjo_v0_plucked_142","midi_source":""},{"t":50.465,"note":67,"dur":0.134,"vel":0.496,"inst":"xylophone_v0_plucked_129","midi_source":""},{"t":50.465,"note":79,"dur":0.134,"vel":0.496,"inst":"xylophone_v0_plucked_129","midi_source":""},{"t":50.532,"note":58,"dur":0.067,"vel":0.496,"inst":"xylophone_v0_plucked_129","midi_source":""},{"t":50.599,"note":49,"dur":0.134,"vel":0.496,"inst":"xylophone_v0_plucked_129","midi_source":""},{"t":50.599,"note":58,"dur":0.045,"vel":0.496,"inst":"xylophone_v0_plucked_129","midi_source":""},{"t":50.599,"note":65,"dur":0.134,"vel":0.496,"inst":"banjo_v0_plucked_142","midi_source":""},{"t":50.599,"note":82,"dur":0.134,"vel":0.496,"inst":"xylophone_v0_plucked_129","midi_source":""},{"t":50.644,"note":61,"dur":0.045,"vel":0.496,"inst":"xylophone_v0_plucked_129","midi_source":""},{"t":50.688,"note":65,"dur":0.045,"vel":0.496,"inst":"banjo_v0_plucked_142","midi_source":""},{"t":50.733,"note":46,"dur":0.134,"vel":0.496,"inst":"xylophone_v0_plucked_129","midi_source":""},{"t":50.733,"note":62,"dur":0.134,"vel":0.496,"inst":"banjo_v0_plucked_142","midi_source":""},{"t":50.733,"note":67,"dur":0.045,"vel":0.496,"inst":"xylophone_v0_plucked_129","midi_source":""},{"t":50.733,"note":82,"dur":0.134,"vel":0.496,"inst":"xylophone_v0_plucked_129","midi_source":""},{"t":50.778,"note":70,"dur":0.045,"vel":0.496,"inst":"xylophone_v0_plucked_129","midi_source":""},{"t":50.822,"note":77,"dur":0.045,"vel":0.496,"inst":"banjo_v0_plucked_142","midi_source":""},{"t":50.867,"note":46,"dur":0.045,"vel":0.496,"inst":"xylophone_v0_plucked_129","midi_source":""},{"t":50.867,"note":61,"dur":0.134,"vel":0.496,"inst":"xylophone_v0_plucked_129","midi_source":""},{"t":50.867,"note":77,"dur":0.067,"vel":0.496,"inst":"banjo_v0_plucked_142","midi_source":""},{"t":50.867,"note":85,"dur":0.313,"vel":0.496,"inst":"xylophone_v0_plucked_129","midi_source":""},{"t":50.912,"note":49,"dur":0.045,"vel":0.496,"inst":"xylophone_v0_plucked_129","midi_source":""},{"t":50.934,"note":82,"dur":0.246,"vel":0.496,"inst":"xylophone_v0_plucked_129","midi_source":""},{"t":50.957,"note":53,"dur":0.045,"vel":0.496,"inst":"banjo_v0_plucked_142","midi_source":""},{"t":51.001,"note":55,"dur":0.045,"vel":0.496,"inst":"xylophone_v0_plucked_129","midi_source":""},{"t":51.001,"note":65,"dur":0.134,"vel":0.496,"inst":"banjo_v0_plucked_142","midi_source":""},{"t":51.046,"note":58,"dur":0.045,"vel":0.496,"inst":"xylophone_v0_plucked_129","midi_source":""},{"t":51.091,"note":61,"dur":0.045,"vel":0.496,"inst":"xylophone_v0_plucked_129","midi_source":""},{"t":51.136,"note":65,"dur":0.045,"vel":0.496,"inst":"banjo_v0_plucked_142","midi_source":""},{"t":51.136,"note":73,"dur":0.045,"vel":0.496,"inst":"xylophone_v0_plucked_129","midi_source":""},{"t":51.18,"note":67,"dur":0.045,"vel":0.496,"inst":"xylophone_v0_plucked_129","midi_source":""},{"t":51.18,"note":70,"dur":0.045,"vel":0.496,"inst":"xylophone_v0_plucked_129","midi_source":""},{"t":51.18,"note":82,"dur":0.045,"vel":0.496,"inst":"xylophone_v0_plucked_129","midi_source":""},{"t":51.18,"note":86,"dur":0.045,"vel":0.496,"inst":"banjo_v0_plucked_142","midi_source":""},{"t":51.225,"note":70,"dur":0.045,"vel":0.496,"inst":"xylophone_v0_plucked_129","midi_source":""},{"t":51.225,"note":73,"dur":0.045,"vel":0.496,"inst":"xylophone_v0_plucked_129","midi_source":""},{"t":51.225,"note":82,"dur":0.045,"vel":0.496,"inst":"xylophone_v0_plucked_129","midi_source":""},{"t":51.225,"note":85,"dur":0.045,"vel":0.496,"inst":"xylophone_v0_plucked_129","midi_source":""},{"t":51.27,"note":49,"dur":0.045,"vel":0.496,"inst":"xylophone_v0_plucked_129","midi_source":""},{"t":51.27,"note":73,"dur":0.067,"vel":0.496,"inst":"xylophone_v0_plucked_129","midi_source":""},{"t":51.27,"note":82,"dur":0.067,"vel":0.496,"inst":"xylophone_v0_plucked_129","midi_source":""},{"t":51.27,"note":85,"dur":0.067,"vel":0.496,"inst":"xylophone_v0_plucked_129","midi_source":""},{"t":51.315,"note":53,"dur":0.045,"vel":0.496,"inst":"banjo_v0_plucked_142","midi_source":""},{"t":51.337,"note":65,"dur":0.246,"vel":0.496,"inst":"banjo_v0_plucked_142","midi_source":""},{"t":51.337,"note":79,"dur":0.246,"vel":0.496,"inst":"xylophone_v0_plucked_129","midi_source":""},{"t":51.337,"note":82,"dur":0.246,"vel":0.496,"inst":"xylophone_v0_plucked_129","midi_source":""},{"t":51.359,"note":55,"dur":0.045,"vel":0.496,"inst":"xylophone_v0_plucked_129","midi_source":""},{"t":51.404,"note":58,"dur":0.045,"vel":0.496,"inst":"xylophone_v0_plucked_129","midi_source":""},{"t":51.449,"note":61,"dur":0.045,"vel":0.496,"inst":"xylophone_v0_plucked_129","midi_source":""},{"t":51.493,"note":65,"dur":0.045,"vel":0.496,"inst":"banjo_v0_plucked_142","midi_source":""},{"t":51.538,"note":67,"dur":0.045,"vel":0.496,"inst":"xylophone_v0_plucked_129","midi_source":""},{"t":51.583,"note":49,"dur":0.045,"vel":0.496,"inst":"xylophone_v0_plucked_129","midi_source":""},{"t":51.583,"note":82,"dur":0.045,"vel":0.496,"inst":"xylophone_v0_plucked_129","midi_source":""},{"t":51.583,"note":85,"dur":0.045,"vel":0.496,"inst":"xylophone_v0_plucked_129","midi_source":""},{"t":51.628,"note":53,"dur":0.045,"vel":0.496,"inst":"banjo_v0_plucked_142","midi_source":""},{"t":51.628,"note":73,"dur":0.02,"vel":0.496,"inst":"xylophone_v0_plucked_129","midi_source":""},{"t":51.628,"note":79,"dur":0.045,"vel":0.496,"inst":"xylophone_v0_plucked_129","midi_source":""},{"t":51.628,"note":82,"dur":0.045,"vel":0.496,"inst":"xylophone_v0_plucked_129","midi_source":""},{"t":51.672,"note":43,"dur":0.045,"vel":0.496,"inst":"xylophone_v0_plucked_129","midi_source":""},{"t":51.672,"note":73,"dur":0.067,"vel":0.496,"inst":"xylophone_v0_plucked_129","midi_source":""},{"t":51.672,"note":79,"dur":0.067,"vel":0.496,"inst":"xylophone_v0_plucked_129","midi_source":""},{"t":51.672,"note":82,"dur":0.067,"vel":0.496,"inst":"xylophone_v0_plucked_129","midi_source":""},{"t":51.717,"note":58,"dur":0.045,"vel":0.496,"inst":"xylophone_v0_plucked_129","midi_source":""},{"t":51.74,"note":61,"dur":0.246,"vel":0.496,"inst":"xylophone_v0_plucked_129","midi_source":""},{"t":51.74,"note":67,"dur":0.201,"vel":0.496,"inst":"xylophone_v0_plucked_129","midi_source":""},{"t":51.74,"note":82,"dur":0.246,"vel":0.496,"inst":"xylophone_v0_plucked_129","midi_source":""},{"t":51.762,"note":61,"dur":0.045,"vel":0.496,"inst":"xylophone_v0_plucked_129","midi_source":""},{"t":51.807,"note":65,"dur":0.045,"vel":0.496,"inst":"banjo_v0_plucked_142","midi_source":""},{"t":51.851,"note":55,"dur":0.045,"vel":0.496,"inst":"xylophone_v0_plucked_129","midi_source":""},{"t":51.896,"note":70,"dur":0.045,"vel":0.496,"inst":"xylophone_v0_plucked_129","midi_source":""},{"t":51.941,"note":73,"dur":0.045,"vel":0.496,"inst":"xylophone_v0_plucked_129","midi_source":""},{"t":51.941,"note":67,"dur":0.045,"vel":0.496,"inst":"xylophone_v0_plucked_129","midi_source":""},{"t":51.986,"note":43,"dur":0.045,"vel":0.496,"inst":"xylophone_v0_plucked_129","midi_source":""},{"t":51.986,"note":70,"dur":0.045,"vel":0.496,"inst":"xylophone_v0_plucked_129","midi_source":""},{"t":51.986,"note":85,"dur":0.045,"vel":0.496,"inst":"xylophone_v0_plucked_129","midi_source":""},{"t":52.03,"note":55,"dur":0.045,"vel":0.496,"inst":"xylophone_v0_plucked_129","midi_source":""},{"t":52.03,"note":65,"dur":0.045,"vel":0.496,"inst":"banjo_v0_plucked_142","midi_source":""},{"t":52.03,"note":73,"dur":0.02,"vel":0.496,"inst":"xylophone_v0_plucked_129","midi_source":""},{"t":52.03,"note":82,"dur":0.045,"vel":0.496,"inst":"xylophone_v0_plucked_129","midi_source":""},{"t":52.075,"note":46,"dur":0.045,"vel":0.496,"inst":"xylophone_v0_plucked_129","midi_source":""},{"t":52.075,"note":55,"dur":0.313,"vel":0.496,"inst":"xylophone_v0_plucked_129","midi_source":""},{"t":52.075,"note":73,"dur":0.313,"vel":0.496,"inst":"xylophone_v0_plucked_129","midi_source":""},{"t":52.075,"note":82,"dur":0.067,"vel":0.496,"inst":"xylophone_v0_plucked_129","midi_source":""},{"t":52.12,"note":49,"dur":0.045,"vel":0.496,"inst":"xylophone_v0_plucked_129","midi_source":""},{"t":52.142,"note":82,"dur":0.067,"vel":0.496,"inst":"xylophone_v0_plucked_129","midi_source":""},{"t":52.164,"note":43,"dur":0.045,"vel":0.496,"inst":"xylophone_v0_plucked_129","midi_source":""},{"t":52.209,"note":58,"dur":0.045,"vel":0.496,"inst":"xylophone_v0_plucked_129","midi_source":""},{"t":52.209,"note":79,"dur":0.067,"vel":0.496,"inst":"xylophone_v0_plucked_129","midi_source":""},{"t":52.254,"note":61,"dur":0.045,"vel":0.496,"inst":"xylophone_v0_plucked_129","midi_source":""},{"t":52.276,"note":67,"dur":0.067,"vel":0.496,"inst":"xylophone_v0_plucked_129","midi_source":""},{"t":52.299,"note":55,"dur":0.045,"vel":0.496,"inst":"xylophone_v0_plucked_129","midi_source":""},{"t":52.343,"note":70,"dur":0.045,"vel":0.496,"inst":"xylophone_v0_plucked_129","midi_source":""},{"t":52.343,"note":86,"dur":0.045,"vel":0.496,"inst":"banjo_v0_plucked_142","midi_source":""},{"t":52.388,"note":58,"dur":0.045,"vel":0.496,"inst":"xylophone_v0_plucked_129","midi_source":""},{"t":52.388,"note":55,"dur":0.045,"vel":0.496,"inst":"xylophone_v0_plucked_129","midi_source":""},{"t":52.388,"note":73,"dur":0.045,"vel":0.496,"inst":"xylophone_v0_plucked_129","midi_source":""},{"t":52.388,"note":85,"dur":0.045,"vel":0.496,"inst":"xylophone_v0_plucked_129","midi_source":""},{"t":52.433,"note":46,"dur":0.045,"vel":0.496,"inst":"xylophone_v0_plucked_129","midi_source":""},{"t":52.433,"note":55,"dur":0.045,"vel":0.496,"inst":"xylophone_v0_plucked_129","midi_source":""},{"t":52.433,"note":70,"dur":0.045,"vel":0.496,"inst":"xylophone_v0_plucked_129","midi_source":""},{"t":52.433,"note":74,"dur":0.045,"vel":0.496,"inst":"banjo_v0_plucked_142","midi_source":""},{"t":52.478,"note":43,"dur":0.045,"vel":0.496,"inst":"xylophone_v0_plucked_129","midi_source":""},{"t":52.478,"note":65,"dur":0.045,"vel":0.496,"inst":"banjo_v0_plucked_142","midi_source":""},{"t":52.478,"note":70,"dur":0.045,"vel":0.496,"inst":"xylophone_v0_plucked_129","midi_source":""},{"t":52.478,"note":67,"dur":0.034,"vel":0.496,"inst":"xylophone_v0_plucked_129","midi_source":""},{"t":52.511,"note":77,"dur":0.034,"vel":0.496,"inst":"banjo_v0_plucked_142","midi_source":""},{"t":52.522,"note":49,"dur":0.045,"vel":0.496,"inst":"xylophone_v0_plucked_129","midi_source":""},{"t":52.522,"note":65,"dur":0.045,"vel":0.496,"inst":"banjo_v0_plucked_142","midi_source":""},{"t":52.522,"note":70,"dur":0.045,"vel":0.496,"inst":"xylophone_v0_plucked_129","midi_source":""},{"t":52.545,"note":82,"dur":0.034,"vel":0.496,"inst":"xylophone_v0_plucked_129","midi_source":""},{"t":52.567,"note":46,"dur":0.045,"vel":0.496,"inst":"xylophone_v0_plucked_129","midi_source":""},{"t":52.567,"note":73,"dur":0.045,"vel":0.496,"inst":"xylophone_v0_plucked_129","midi_source":""},{"t":52.567,"note":77,"dur":0.045,"vel":0.496,"inst":"banjo_v0_plucked_142","midi_source":""},{"t":52.578,"note":82,"dur":0.034,"vel":0.496,"inst":"xylophone_v0_plucked_129","midi_source":""},{"t":52.612,"note":46,"dur":0.045,"vel":0.992,"inst":"xylophone_v0_plucked_129","midi_source":""},{"t":52.612,"note":70,"dur":0.045,"vel":0.992,"inst":"xylophone_v0_plucked_129","midi_source":""},{"t":52.612,"note":77,"dur":0.045,"vel":0.992,"inst":"banjo_v0_plucked_142","midi_source":""},{"t":52.612,"note":79,"dur":0.134,"vel":0.992,"inst":"xylophone_v0_plucked_129","midi_source":""},{"t":52.657,"note":58,"dur":0.045,"vel":0.992,"inst":"xylophone_v0_plucked_129","midi_source":""},{"t":52.657,"note":67,"dur":0.045,"vel":0.992,"inst":"xylophone_v0_plucked_129","midi_source":""},{"t":52.657,"note":70,"dur":0.045,"vel":0.992,"inst":"xylophone_v0_plucked_129","midi_source":""},{"t":52.701,"note":46,"dur":0.045,"vel":0.992,"inst":"xylophone_v0_plucked_129","midi_source":""},{"t":52.701,"note":65,"dur":0.045,"vel":0.992,"inst":"banjo_v0_plucked_142","midi_source":""},{"t":52.701,"note":67,"dur":0.045,"vel":0.992,"inst":"xylophone_v0_plucked_129","midi_source":""},{"t":52.746,"note":46,"dur":0.045,"vel":0.992,"inst":"xylophone_v0_plucked_129","midi_source":""},{"t":52.746,"note":62,"dur":0.045,"vel":0.992,"inst":"banjo_v0_plucked_142","midi_source":""},{"t":52.746,"note":70,"dur":0.045,"vel":0.992,"inst":"xylophone_v0_plucked_129","midi_source":""},{"t":52.746,"note":67,"dur":0.045,"vel":0.992,"inst":"xylophone_v0_plucked_129","midi_source":""},{"t":52.791,"note":85,"dur":0.045,"vel":0.992,"inst":"xylophone_v0_plucked_129","midi_source":""},{"t":52.835,"note":46,"dur":0.02,"vel":0.992,"inst":"xylophone_v0_plucked_129","midi_source":""},{"t":52.835,"note":62,"dur":0.02,"vel":0.992,"inst":"banjo_v0_plucked_142","midi_source":""},{"t":52.835,"note":70,"dur":0.02,"vel":0.992,"inst":"xylophone_v0_plucked_129","midi_source":""},{"t":52.835,"note":82,"dur":0.045,"vel":0.992,"inst":"xylophone_v0_plucked_129","midi_source":""},{"t":52.88,"note":53,"dur":0.045,"vel":0.496,"inst":"banjo_v0_plucked_142","midi_source":""},{"t":52.88,"note":65,"dur":0.067,"vel":0.496,"inst":"banjo_v0_plucked_142","midi_source":""},{"t":52.88,"note":67,"dur":0.134,"vel":0.496,"inst":"xylophone_v0_plucked_129","midi_source":""},{"t":52.88,"note":77,"dur":0.134,"vel":0.496,"inst":"banjo_v0_plucked_142","midi_source":""},{"t":52.925,"note":43,"dur":0.045,"vel":0.496,"inst":"xylophone_v0_plucked_129","midi_source":""},{"t":52.97,"note":55,"dur":0.045,"vel":0.496,"inst":"xylophone_v0_plucked_129","midi_source":""},{"t":53.014,"note":53,"dur":0.268,"vel":0.496,"inst":"banjo_v0_plucked_142","midi_source":""},{"t":53.014,"note":58,"dur":0.268,"vel":0.496,"inst":"xylophone_v0_plucked_129","midi_source":""},{"t":53.014,"note":61,"dur":0.045,"vel":0.496,"inst":"xylophone_v0_plucked_129","midi_source":""},{"t":53.014,"note":73,"dur":0.201,"vel":0.496,"inst":"xylophone_v0_plucked_129","midi_source":""},{"t":53.059,"note":62,"dur":0.045,"vel":0.496,"inst":"banjo_v0_plucked_142","midi_source":""},{"t":53.104,"note":65,"dur":0.045,"vel":0.496,"inst":"banjo_v0_plucked_142","midi_source":""},{"t":53.149,"note":55,"dur":0.045,"vel":0.496,"inst":"xylophone_v0_plucked_129","midi_source":""},{"t":53.149,"note":55,"dur":0.134,"vel":0.496,"inst":"xylophone_v0_plucked_129","midi_source":""},{"t":53.194,"note":67,"dur":0.045,"vel":0.496,"inst":"xylophone_v0_plucked_129","midi_source":""},{"t":53.216,"note":67,"dur":0.067,"vel":0.496,"inst":"xylophone_v0_plucked_129","midi_source":""},{"t":53.238,"note":70,"dur":0.045,"vel":0.496,"inst":"xylophone_v0_plucked_129","midi_source":""},{"t":53.283,"note":53,"dur":0.045,"vel":0.496,"inst":"banjo_v0_plucked_142","midi_source":""},{"t":53.283,"note":58,"dur":0.045,"vel":0.496,"inst":"xylophone_v0_plucked_129","midi_source":""},{"t":53.283,"note":55,"dur":0.403,"vel":0.496,"inst":"xylophone_v0_plucked_129","midi_source":""},{"t":53.283,"note":70,"dur":0.403,"vel":0.496,"inst":"xylophone_v0_plucked_129","midi_source":""},{"t":53.283,"note":77,"dur":0.134,"vel":0.496,"inst":"banjo_v0_plucked_142","midi_source":""},{"t":53.372,"note":53,"dur":0.02,"vel":0.496,"inst":"banjo_v0_plucked_142","midi_source":""},{"t":53.372,"note":58,"dur":0.02,"vel":0.496,"inst":"xylophone_v0_plucked_129","midi_source":""},{"t":53.417,"note":58,"dur":0.045,"vel":0.496,"inst":"xylophone_v0_plucked_129","midi_source":""},{"t":53.417,"note":67,"dur":0.168,"vel":0.496,"inst":"xylophone_v0_plucked_129","midi_source":""},{"t":53.462,"note":60,"dur":0.045,"vel":0.496,"inst":"pad_string_v0_bass_416","midi_source":""},{"t":53.506,"note":62,"dur":0.045,"vel":0.496,"inst":"banjo_v0_plucked_142","midi_source":""},{"t":53.551,"note":49,"dur":0.134,"vel":0.496,"inst":"xylophone_v0_plucked_129","midi_source":""},{"t":53.551,"note":65,"dur":0.134,"vel":0.496,"inst":"banjo_v0_plucked_142","midi_source":""},{"t":53.551,"note":70,"dur":0.045,"vel":0.496,"inst":"xylophone_v0_plucked_129","midi_source":""},{"t":53.585,"note":79,"dur":0.034,"vel":0.496,"inst":"xylophone_v0_plucked_129","midi_source":""},{"t":53.596,"note":73,"dur":0.045,"vel":0.496,"inst":"xylophone_v0_plucked_129","midi_source":""},{"t":53.618,"note":79,"dur":0.034,"vel":0.496,"inst":"xylophone_v0_plucked_129","midi_source":""},{"t":53.641,"note":77,"dur":0.045,"vel":0.496,"inst":"banjo_v0_plucked_142","midi_source":""},{"t":53.652,"note":82,"dur":0.034,"vel":0.496,"inst":"xylophone_v0_plucked_129","midi_source":""},{"t":53.686,"note":48,"dur":0.045,"vel":0.496,"inst":"pad_string_v0_bass_416","midi_source":""},{"t":53.686,"note":62,"dur":0.045,"vel":0.496,"inst":"banjo_v0_plucked_142","midi_source":""},{"t":53.686,"note":74,"dur":0.045,"vel":0.496,"inst":"banjo_v0_plucked_142","midi_source":""},{"t":53.686,"note":79,"dur":0.179,"vel":0.496,"inst":"xylophone_v0_plucked_129","midi_source":""},{"t":53.73,"note":50,"dur":0.045,"vel":0.496,"inst":"banjo_v0_plucked_142","midi_source":""},{"t":53.775,"note":55,"dur":0.045,"vel":0.496,"inst":"xylophone_v0_plucked_129","midi_source":""},{"t":53.775,"note":55,"dur":0.02,"vel":0.496,"inst":"xylophone_v0_plucked_129","midi_source":""},{"t":53.775,"note":67,"dur":0.02,"vel":0.496,"inst":"xylophone_v0_plucked_129","midi_source":""},{"t":53.82,"note":49,"dur":0.045,"vel":0.496,"inst":"xylophone_v0_plucked_129","midi_source":""},{"t":53.82,"note":65,"dur":0.045,"vel":0.496,"inst":"banjo_v0_plucked_142","midi_source":""},{"t":53.82,"note":67,"dur":0.045,"vel":0.496,"inst":"xylophone_v0_plucked_129","midi_source":""},{"t":53.865,"note":50,"dur":0.045,"vel":0.496,"inst":"banjo_v0_plucked_142","midi_source":""},{"t":53.865,"note":55,"dur":0.045,"vel":0.496,"inst":"xylophone_v0_plucked_129","midi_source":""},{"t":53.865,"note":72,"dur":0.045,"vel":0.496,"inst":"pad_string_v0_bass_416","midi_source":""},{"t":53.865,"note":67,"dur":0.045,"vel":0.496,"inst":"xylophone_v0_plucked_129","midi_source":""},{"t":53.909,"note":53,"dur":0.045,"vel":0.496,"inst":"banjo_v0_plucked_142","midi_source":""},{"t":53.909,"note":67,"dur":0.045,"vel":0.496,"inst":"xylophone_v0_plucked_129","midi_source":""},{"t":53.909,"note":73,"dur":0.045,"vel":0.496,"inst":"xylophone_v0_plucked_129","midi_source":""},{"t":53.909,"note":77,"dur":0.045,"vel":0.496,"inst":"banjo_v0_plucked_142","midi_source":""},{"t":53.954,"note":43,"dur":0.045,"vel":0.496,"inst":"xylophone_v0_plucked_129","midi_source":""},{"t":53.954,"note":55,"dur":0.045,"vel":0.496,"inst":"xylophone_v0_plucked_129","midi_source":""},{"t":53.954,"note":70,"dur":0.045,"vel":0.496,"inst":"xylophone_v0_plucked_129","midi_source":""},{"t":53.954,"note":74,"dur":0.045,"vel":0.496,"inst":"banjo_v0_plucked_142","midi_source":""},{"t":53.999,"note":61,"dur":0.045,"vel":0.496,"inst":"xylophone_v0_plucked_129","midi_source":""},{"t":53.999,"note":77,"dur":0.045,"vel":0.496,"inst":"banjo_v0_plucked_142","midi_source":""},{"t":54.043,"note":43,"dur":0.02,"vel":0.496,"inst":"xylophone_v0_plucked_129","midi_source":""},{"t":54.043,"note":65,"dur":0.045,"vel":0.496,"inst":"banjo_v0_plucked_142","midi_source":""},{"t":54.043,"note":70,"dur":0.02,"vel":0.496,"inst":"xylophone_v0_plucked_129","midi_source":""},{"t":54.043,"note":73,"dur":0.045,"vel":0.496,"inst":"xylophone_v0_plucked_129","midi_source":""},{"t":54.088,"note":46,"dur":0.045,"vel":0.496,"inst":"xylophone_v0_plucked_129","midi_source":""},{"t":54.088,"note":65,"dur":0.045,"vel":0.496,"inst":"banjo_v0_plucked_142","midi_source":""},{"t":54.088,"note":70,"dur":0.045,"vel":0.496,"inst":"xylophone_v0_plucked_129","midi_source":""},{"t":54.088,"note":73,"dur":0.134,"vel":0.496,"inst":"xylophone_v0_plucked_129","midi_source":""},{"t":54.133,"note":43,"dur":0.045,"vel":0.496,"inst":"xylophone_v0_plucked_129","midi_source":""},{"t":54.133,"note":65,"dur":0.045,"vel":0.496,"inst":"banjo_v0_plucked_142","midi_source":""},{"t":54.133,"note":55,"dur":0.045,"vel":0.496,"inst":"xylophone_v0_plucked_129","midi_source":""},{"t":54.178,"note":58,"dur":0.045,"vel":0.496,"inst":"xylophone_v0_plucked_129","midi_source":""},{"t":54.178,"note":65,"dur":0.045,"vel":0.496,"inst":"banjo_v0_plucked_142","midi_source":""},{"t":54.178,"note":55,"dur":0.045,"vel":0.496,"inst":"xylophone_v0_plucked_129","midi_source":""},{"t":54.222,"note":58,"dur":0.268,"vel":0.496,"inst":"xylophone_v0_plucked_129","midi_source":""},{"t":54.222,"note":62,"dur":0.045,"vel":0.496,"inst":"banjo_v0_plucked_142","midi_source":""},{"t":54.222,"note":55,"dur":0.179,"vel":0.496,"inst":"xylophone_v0_plucked_129","midi_source":""},{"t":54.222,"note":70,"dur":0.134,"vel":0.496,"inst":"xylophone_v0_plucked_129","midi_source":""},{"t":54.267,"note":55,"dur":0.045,"vel":0.496,"inst":"xylophone_v0_plucked_129","midi_source":""},{"t":54.312,"note":70,"dur":0.045,"vel":0.496,"inst":"xylophone_v0_plucked_129","midi_source":""},{"t":54.357,"note":70,"dur":0.045,"vel":0.496,"inst":"xylophone_v0_plucked_129","midi_source":""},{"t":54.401,"note":62,"dur":0.045,"vel":0.496,"inst":"banjo_v0_plucked_142","midi_source":""},{"t":54.401,"note":55,"dur":0.045,"vel":0.496,"inst":"xylophone_v0_plucked_129","midi_source":""},{"t":54.446,"note":61,"dur":0.045,"vel":0.496,"inst":"xylophone_v0_plucked_129","midi_source":""},{"t":54.446,"note":65,"dur":0.045,"vel":0.496,"inst":"banjo_v0_plucked_142","midi_source":""},{"t":54.491,"note":58,"dur":0.045,"vel":0.496,"inst":"xylophone_v0_plucked_129","midi_source":""},{"t":54.491,"note":58,"dur":0.134,"vel":0.496,"inst":"xylophone_v0_plucked_129","midi_source":""},{"t":54.491,"note":62,"dur":0.134,"vel":0.496,"inst":"banjo_v0_plucked_142","midi_source":""},{"t":54.536,"note":62,"dur":0.045,"vel":0.496,"inst":"banjo_v0_plucked_142","midi_source":""},{"t":54.58,"note":55,"dur":0.045,"vel":0.496,"inst":"xylophone_v0_plucked_129","midi_source":""},{"t":54.625,"note":55,"dur":0.134,"vel":0.496,"inst":"xylophone_v0_plucked_129","midi_source":""},{"t":54.625,"note":58,"dur":0.045,"vel":0.496,"inst":"xylophone_v0_plucked_129","midi_source":""},{"t":54.625,"note":65,"dur":0.134,"vel":0.496,"inst":"banjo_v0_plucked_142","midi_source":""},{"t":54.625,"note":70,"dur":0.313,"vel":0.496,"inst":"xylophone_v0_plucked_129","midi_source":""},{"t":54.67,"note":62,"dur":0.045,"vel":0.496,"inst":"banjo_v0_plucked_142","midi_source":""},{"t":54.714,"note":67,"dur":0.045,"vel":0.496,"inst":"xylophone_v0_plucked_129","midi_source":""},{"t":54.759,"note":43,"dur":0.134,"vel":0.496,"inst":"xylophone_v0_plucked_129","midi_source":""},{"t":54.759,"note":55,"dur":0.045,"vel":0.496,"inst":"xylophone_v0_plucked_129","midi_source":""},{"t":54.759,"note":70,"dur":0.134,"vel":0.496,"inst":"xylophone_v0_plucked_129","midi_source":""},{"t":54.804,"note":70,"dur":0.045,"vel":0.496,"inst":"xylophone_v0_plucked_129","midi_source":""},{"t":54.849,"note":74,"dur":0.045,"vel":0.496,"inst":"banjo_v0_plucked_142","midi_source":""},{"t":54.893,"note":53,"dur":0.313,"vel":0.496,"inst":"banjo_v0_plucked_142","midi_source":""},{"t":54.893,"note":67,"dur":0.313,"vel":0.496,"inst":"xylophone_v0_plucked_129","midi_source":""},{"t":54.893,"note":77,"dur":0.313,"vel":0.496,"inst":"banjo_v0_plucked_142","midi_source":""},{"t":54.938,"note":65,"dur":0.045,"vel":0.496,"inst":"banjo_v0_plucked_142","midi_source":""},{"t":54.983,"note":55,"dur":0.045,"vel":0.496,"inst":"xylophone_v0_plucked_129","midi_source":""},{"t":55.028,"note":67,"dur":0.045,"vel":0.496,"inst":"xylophone_v0_plucked_129","midi_source":""},{"t":55.072,"note":70,"dur":0.045,"vel":0.496,"inst":"xylophone_v0_plucked_129","midi_source":""},{"t":55.117,"note":77,"dur":0.045,"vel":0.496,"inst":"banjo_v0_plucked_142","midi_source":""},{"t":55.162,"note":79,"dur":0.045,"vel":0.496,"inst":"xylophone_v0_plucked_129","midi_source":""},{"t":55.207,"note":46,"dur":0.045,"vel":0.496,"inst":"xylophone_v0_plucked_129","midi_source":""},{"t":55.207,"note":67,"dur":0.045,"vel":0.496,"inst":"xylophone_v0_plucked_129","midi_source":""},{"t":55.207,"note":70,"dur":0.045,"vel":0.496,"inst":"xylophone_v0_plucked_129","midi_source":""},{"t":55.207,"note":82,"dur":0.045,"vel":0.496,"inst":"xylophone_v0_plucked_129","midi_source":""},{"t":55.251,"note":49,"dur":0.045,"vel":0.496,"inst":"xylophone_v0_plucked_129","midi_source":""},{"t":55.251,"note":55,"dur":0.045,"vel":0.496,"inst":"xylophone_v0_plucked_129","midi_source":""},{"t":55.251,"note":70,"dur":0.045,"vel":0.496,"inst":"xylophone_v0_plucked_129","midi_source":""},{"t":55.251,"note":82,"dur":0.045,"vel":0.496,"inst":"xylophone_v0_plucked_129","midi_source":""},{"t":55.296,"note":50,"dur":0.067,"vel":0.496,"inst":"banjo_v0_plucked_142","midi_source":""},{"t":55.296,"note":65,"dur":0.134,"vel":0.496,"inst":"banjo_v0_plucked_142","midi_source":""},{"t":55.296,"note":67,"dur":0.134,"vel":0.496,"inst":"xylophone_v0_plucked_129","midi_source":""},{"t":55.296,"note":79,"dur":0.134,"vel":0.496,"inst":"xylophone_v0_plucked_129","midi_source":""},{"t":55.363,"note":58,"dur":0.067,"vel":0.496,"inst":"xylophone_v0_plucked_129","midi_source":""},{"t":55.43,"note":49,"dur":0.134,"vel":0.496,"inst":"xylophone_v0_plucked_129","midi_source":""},{"t":55.43,"note":58,"dur":0.045,"vel":0.496,"inst":"xylophone_v0_plucked_129","midi_source":""},{"t":55.43,"note":65,"dur":0.134,"vel":0.496,"inst":"banjo_v0_plucked_142","midi_source":""},{"t":55.43,"note":82,"dur":0.134,"vel":0.496,"inst":"xylophone_v0_plucked_129","midi_source":""},{"t":55.475,"note":61,"dur":0.045,"vel":0.496,"inst":"xylophone_v0_plucked_129","midi_source":""},{"t":55.52,"note":65,"dur":0.045,"vel":0.496,"inst":"banjo_v0_plucked_142","midi_source":""},{"t":55.564,"note":46,"dur":0.134,"vel":0.496,"inst":"xylophone_v0_plucked_129","midi_source":""},{"t":55.564,"note":62,"dur":0.134,"vel":0.496,"inst":"banjo_v0_plucked_142","midi_source":""},{"t":55.564,"note":67,"dur":0.045,"vel":0.496,"inst":"xylophone_v0_plucked_129","midi_source":""},{"t":55.564,"note":82,"dur":0.134,"vel":0.496,"inst":"xylophone_v0_plucked_129","midi_source":""},{"t":55.609,"note":70,"dur":0.045,"vel":0.496,"inst":"xylophone_v0_plucked_129","midi_source":""},{"t":55.654,"note":77,"dur":0.045,"vel":0.496,"inst":"banjo_v0_plucked_142","midi_source":""},{"t":55.699,"note":46,"dur":0.045,"vel":0.496,"inst":"xylophone_v0_plucked_129","midi_source":""},{"t":55.699,"note":61,"dur":0.134,"vel":0.496,"inst":"xylophone_v0_plucked_129","midi_source":""},{"t":55.699,"note":77,"dur":0.067,"vel":0.496,"inst":"banjo_v0_plucked_142","midi_source":""},{"t":55.699,"note":85,"dur":0.313,"vel":0.496,"inst":"xylophone_v0_plucked_129","midi_source":""},{"t":55.743,"note":49,"dur":0.045,"vel":0.496,"inst":"xylophone_v0_plucked_129","midi_source":""},{"t":55.766,"note":82,"dur":0.246,"vel":0.496,"inst":"xylophone_v0_plucked_129","midi_source":""},{"t":55.788,"note":53,"dur":0.045,"vel":0.496,"inst":"banjo_v0_plucked_142","midi_source":""},{"t":55.833,"note":55,"dur":0.045,"vel":0.496,"inst":"xylophone_v0_plucked_129","midi_source":""},{"t":55.833,"note":65,"dur":0.134,"vel":0.496,"inst":"banjo_v0_plucked_142","midi_source":""},{"t":55.878,"note":58,"dur":0.045,"vel":0.496,"inst":"xylophone_v0_plucked_129","midi_source":""},{"t":55.922,"note":61,"dur":0.045,"vel":0.496,"inst":"xylophone_v0_plucked_129","midi_source":""},{"t":55.967,"note":65,"dur":0.045,"vel":0.496,"inst":"banjo_v0_plucked_142","midi_source":""},{"t":55.967,"note":73,"dur":0.045,"vel":0.496,"inst":"xylophone_v0_plucked_129","midi_source":""},{"t":56.012,"note":67,"dur":0.045,"vel":0.496,"inst":"xylophone_v0_plucked_129","midi_source":""},{"t":56.012,"note":70,"dur":0.045,"vel":0.496,"inst":"xylophone_v0_plucked_129","midi_source":""},{"t":56.012,"note":82,"dur":0.045,"vel":0.496,"inst":"xylophone_v0_plucked_129","midi_source":""},{"t":56.012,"note":86,"dur":0.045,"vel":0.496,"inst":"banjo_v0_plucked_142","midi_source":""},{"t":56.056,"note":70,"dur":0.045,"vel":0.496,"inst":"xylophone_v0_plucked_129","midi_source":""},{"t":56.056,"note":73,"dur":0.045,"vel":0.496,"inst":"xylophone_v0_plucked_129","midi_source":""},{"t":56.056,"note":82,"dur":0.045,"vel":0.496,"inst":"xylophone_v0_plucked_129","midi_source":""},{"t":56.056,"note":85,"dur":0.045,"vel":0.496,"inst":"xylophone_v0_plucked_129","midi_source":""},{"t":56.101,"note":49,"dur":0.045,"vel":0.496,"inst":"xylophone_v0_plucked_129","midi_source":""},{"t":56.101,"note":73,"dur":0.067,"vel":0.496,"inst":"xylophone_v0_plucked_129","midi_source":""},{"t":56.101,"note":82,"dur":0.067,"vel":0.496,"inst":"xylophone_v0_plucked_129","midi_source":""},{"t":56.101,"note":85,"dur":0.067,"vel":0.496,"inst":"xylophone_v0_plucked_129","midi_source":""},{"t":56.146,"note":53,"dur":0.045,"vel":0.496,"inst":"banjo_v0_plucked_142","midi_source":""},{"t":56.168,"note":65,"dur":0.246,"vel":0.496,"inst":"banjo_v0_plucked_142","midi_source":""},{"t":56.168,"note":79,"dur":0.246,"vel":0.496,"inst":"xylophone_v0_plucked_129","midi_source":""},{"t":56.168,"note":82,"dur":0.246,"vel":0.496,"inst":"xylophone_v0_plucked_129","midi_source":""},{"t":56.191,"note":55,"dur":0.045,"vel":0.496,"inst":"xylophone_v0_plucked_129","midi_source":""},{"t":56.235,"note":58,"dur":0.045,"vel":0.496,"inst":"xylophone_v0_plucked_129","midi_source":""},{"t":56.28,"note":61,"dur":0.045,"vel":0.496,"inst":"xylophone_v0_plucked_129","midi_source":""},{"t":56.325,"note":65,"dur":0.045,"vel":0.496,"inst":"banjo_v0_plucked_142","midi_source":""},{"t":56.37,"note":67,"dur":0.045,"vel":0.496,"inst":"xylophone_v0_plucked_129","midi_source":""},{"t":56.414,"note":49,"dur":0.045,"vel":0.496,"inst":"xylophone_v0_plucked_129","midi_source":""},{"t":56.414,"note":82,"dur":0.045,"vel":0.496,"inst":"xylophone_v0_plucked_129","midi_source":""},{"t":56.414,"note":85,"dur":0.045,"vel":0.496,"inst":"xylophone_v0_plucked_129","midi_source":""},{"t":56.459,"note":53,"dur":0.045,"vel":0.496,"inst":"banjo_v0_plucked_142","midi_source":""},{"t":56.459,"note":73,"dur":0.02,"vel":0.496,"inst":"xylophone_v0_plucked_129","midi_source":""},{"t":56.459,"note":79,"dur":0.045,"vel":0.496,"inst":"xylophone_v0_plucked_129","midi_source":""},{"t":56.459,"note":82,"dur":0.045,"vel":0.496,"inst":"xylophone_v0_plucked_129","midi_source":""},{"t":56.504,"note":43,"dur":0.045,"vel":0.496,"inst":"xylophone_v0_plucked_129","midi_source":""},{"t":56.504,"note":73,"dur":0.067,"vel":0.496,"inst":"xylophone_v0_plucked_129","midi_source":""},{"t":56.504,"note":79,"dur":0.067,"vel":0.496,"inst":"xylophone_v0_plucked_129","midi_source":""},{"t":56.504,"note":82,"dur":0.067,"vel":0.496,"inst":"xylophone_v0_plucked_129","midi_source":""},{"t":56.549,"note":58,"dur":0.045,"vel":0.496,"inst":"xylophone_v0_plucked_129","midi_source":""},{"t":56.571,"note":61,"dur":0.246,"vel":0.496,"inst":"xylophone_v0_plucked_129","midi_source":""},{"t":56.571,"note":67,"dur":0.201,"vel":0.496,"inst":"xylophone_v0_plucked_129","midi_source":""},{"t":56.571,"note":82,"dur":0.246,"vel":0.496,"inst":"xylophone_v0_plucked_129","midi_source":""},{"t":56.593,"note":61,"dur":0.045,"vel":0.496,"inst":"xylophone_v0_plucked_129","midi_source":""},{"t":56.638,"note":65,"dur":0.045,"vel":0.496,"inst":"banjo_v0_plucked_142","midi_source":""},{"t":56.683,"note":55,"dur":0.045,"vel":0.496,"inst":"xylophone_v0_plucked_129","midi_source":""},{"t":56.727,"note":70,"dur":0.045,"vel":0.496,"inst":"xylophone_v0_plucked_129","midi_source":""},{"t":56.772,"note":73,"dur":0.045,"vel":0.496,"inst":"xylophone_v0_plucked_129","midi_source":""},{"t":56.772,"note":67,"dur":0.045,"vel":0.496,"inst":"xylophone_v0_plucked_129","midi_source":""},{"t":56.817,"note":43,"dur":0.045,"vel":0.496,"inst":"xylophone_v0_plucked_129","midi_source":""},{"t":56.817,"note":70,"dur":0.045,"vel":0.496,"inst":"xylophone_v0_plucked_129","midi_source":""},{"t":56.817,"note":85,"dur":0.045,"vel":0.496,"inst":"xylophone_v0_plucked_129","midi_source":""},{"t":56.862,"note":55,"dur":0.045,"vel":0.496,"inst":"xylophone_v0_plucked_129","midi_source":""},{"t":56.862,"note":65,"dur":0.045,"vel":0.496,"inst":"banjo_v0_plucked_142","midi_source":""},{"t":56.862,"note":73,"dur":0.02,"vel":0.496,"inst":"xylophone_v0_plucked_129","midi_source":""},{"t":56.862,"note":82,"dur":0.045,"vel":0.496,"inst":"xylophone_v0_plucked_129","midi_source":""},{"t":56.906,"note":46,"dur":0.045,"vel":0.496,"inst":"xylophone_v0_plucked_129","midi_source":""},{"t":56.906,"note":55,"dur":0.313,"vel":0.496,"inst":"xylophone_v0_plucked_129","midi_source":""},{"t":56.906,"note":73,"dur":0.313,"vel":0.496,"inst":"xylophone_v0_plucked_129","midi_source":""},{"t":56.906,"note":82,"dur":0.067,"vel":0.496,"inst":"xylophone_v0_plucked_129","midi_source":""},{"t":56.951,"note":49,"dur":0.045,"vel":0.496,"inst":"xylophone_v0_plucked_129","midi_source":""},{"t":56.974,"note":82,"dur":0.067,"vel":0.496,"inst":"xylophone_v0_plucked_129","midi_source":""},{"t":56.996,"note":43,"dur":0.045,"vel":0.496,"inst":"xylophone_v0_plucked_129","midi_source":""},{"t":57.041,"note":58,"dur":0.045,"vel":0.496,"inst":"xylophone_v0_plucked_129","midi_source":""},{"t":57.041,"note":79,"dur":0.067,"vel":0.496,"inst":"xylophone_v0_plucked_129","midi_source":""},{"t":57.085,"note":61,"dur":0.045,"vel":0.496,"inst":"xylophone_v0_plucked_129","midi_source":""},{"t":57.108,"note":67,"dur":0.067,"vel":0.496,"inst":"xylophone_v0_plucked_129","midi_source":""},{"t":57.13,"note":55,"dur":0.045,"vel":0.496,"inst":"xylophone_v0_plucked_129","midi_source":""},{"t":57.175,"note":70,"dur":0.045,"vel":0.496,"inst":"xylophone_v0_plucked_129","midi_source":""},{"t":57.175,"note":86,"dur":0.045,"vel":0.496,"inst":"banjo_v0_plucked_142","midi_source":""},{"t":57.22,"note":58,"dur":0.045,"vel":0.496,"inst":"xylophone_v0_plucked_129","midi_source":""},{"t":57.22,"note":55,"dur":0.045,"vel":0.496,"inst":"xylophone_v0_plucked_129","midi_source":""},{"t":57.22,"note":73,"dur":0.045,"vel":0.496,"inst":"xylophone_v0_plucked_129","midi_source":""},{"t":57.22,"note":85,"dur":0.045,"vel":0.496,"inst":"xylophone_v0_plucked_129","midi_source":""},{"t":57.264,"note":46,"dur":0.045,"vel":0.496,"inst":"xylophone_v0_plucked_129","midi_source":""},{"t":57.264,"note":55,"dur":0.045,"vel":0.496,"inst":"xylophone_v0_plucked_129","midi_source":""},{"t":57.264,"note":70,"dur":0.045,"vel":0.496,"inst":"xylophone_v0_plucked_129","midi_source":""},{"t":57.264,"note":74,"dur":0.045,"vel":0.496,"inst":"banjo_v0_plucked_142","midi_source":""},{"t":57.309,"note":43,"dur":0.045,"vel":0.496,"inst":"xylophone_v0_plucked_129","midi_source":""},{"t":57.309,"note":65,"dur":0.045,"vel":0.496,"inst":"banjo_v0_plucked_142","midi_source":""},{"t":57.309,"note":70,"dur":0.045,"vel":0.496,"inst":"xylophone_v0_plucked_129","midi_source":""},{"t":57.309,"note":67,"dur":0.034,"vel":0.496,"inst":"xylophone_v0_plucked_129","midi_source":""},{"t":57.343,"note":77,"dur":0.034,"vel":0.496,"inst":"banjo_v0_plucked_142","midi_source":""},{"t":57.354,"note":49,"dur":0.045,"vel":0.496,"inst":"xylophone_v0_plucked_129","midi_source":""},{"t":57.354,"note":65,"dur":0.045,"vel":0.496,"inst":"banjo_v0_plucked_142","midi_source":""},{"t":57.354,"note":70,"dur":0.045,"vel":0.496,"inst":"xylophone_v0_plucked_129","midi_source":""},{"t":57.376,"note":82,"dur":0.034,"vel":0.496,"inst":"xylophone_v0_plucked_129","midi_source":""},{"t":57.398,"note":46,"dur":0.045,"vel":0.496,"inst":"xylophone_v0_plucked_129","midi_source":""},{"t":57.398,"note":73,"dur":0.045,"vel":0.496,"inst":"xylophone_v0_plucked_129","midi_source":""},{"t":57.398,"note":77,"dur":0.045,"vel":0.496,"inst":"banjo_v0_plucked_142","midi_source":""},{"t":57.41,"note":82,"dur":0.034,"vel":0.496,"inst":"xylophone_v0_plucked_129","midi_source":""},{"t":57.443,"note":46,"dur":0.045,"vel":0.992,"inst":"xylophone_v0_plucked_129","midi_source":""},{"t":57.443,"note":70,"dur":0.045,"vel":0.992,"inst":"xylophone_v0_plucked_129","midi_source":""},{"t":57.443,"note":77,"dur":0.045,"vel":0.992,"inst":"banjo_v0_plucked_142","midi_source":""},{"t":57.443,"note":79,"dur":0.134,"vel":0.992,"inst":"xylophone_v0_plucked_129","midi_source":""},{"t":57.488,"note":58,"dur":0.045,"vel":0.992,"inst":"xylophone_v0_plucked_129","midi_source":""},{"t":57.488,"note":67,"dur":0.045,"vel":0.992,"inst":"xylophone_v0_plucked_129","midi_source":""},{"t":57.488,"note":70,"dur":0.045,"vel":0.992,"inst":"xylophone_v0_plucked_129","midi_source":""},{"t":57.533,"note":46,"dur":0.045,"vel":0.992,"inst":"xylophone_v0_plucked_129","midi_source":""},{"t":57.533,"note":65,"dur":0.045,"vel":0.992,"inst":"banjo_v0_plucked_142","midi_source":""},{"t":57.533,"note":67,"dur":0.045,"vel":0.992,"inst":"xylophone_v0_plucked_129","midi_source":""},{"t":57.577,"note":46,"dur":0.045,"vel":0.992,"inst":"xylophone_v0_plucked_129","midi_source":""},{"t":57.577,"note":62,"dur":0.045,"vel":0.992,"inst":"banjo_v0_plucked_142","midi_source":""},{"t":57.577,"note":70,"dur":0.045,"vel":0.992,"inst":"xylophone_v0_plucked_129","midi_source":""},{"t":57.577,"note":67,"dur":0.045,"vel":0.992,"inst":"xylophone_v0_plucked_129","midi_source":""},{"t":57.622,"note":85,"dur":0.045,"vel":0.992,"inst":"xylophone_v0_plucked_129","midi_source":""},{"t":57.667,"note":46,"dur":0.02,"vel":0.992,"inst":"xylophone_v0_plucked_129","midi_source":""},{"t":57.667,"note":62,"dur":0.02,"vel":0.992,"inst":"banjo_v0_plucked_142","midi_source":""},{"t":57.667,"note":70,"dur":0.02,"vel":0.992,"inst":"xylophone_v0_plucked_129","midi_source":""},{"t":57.667,"note":82,"dur":0.045,"vel":0.992,"inst":"xylophone_v0_plucked_129","midi_source":""},{"t":57.712,"note":53,"dur":0.045,"vel":0.496,"inst":"banjo_v0_plucked_142","midi_source":""},{"t":57.712,"note":65,"dur":0.067,"vel":0.496,"inst":"banjo_v0_plucked_142","midi_source":""},{"t":57.712,"note":67,"dur":0.134,"vel":0.496,"inst":"xylophone_v0_plucked_129","midi_source":""},{"t":57.712,"note":77,"dur":0.134,"vel":0.496,"inst":"banjo_v0_plucked_142","midi_source":""},{"t":57.756,"note":43,"dur":0.045,"vel":0.496,"inst":"xylophone_v0_plucked_129","midi_source":""},{"t":57.801,"note":55,"dur":0.045,"vel":0.496,"inst":"xylophone_v0_plucked_129","midi_source":""},{"t":57.846,"note":53,"dur":0.268,"vel":0.496,"inst":"banjo_v0_plucked_142","midi_source":""},{"t":57.846,"note":58,"dur":0.268,"vel":0.496,"inst":"xylophone_v0_plucked_129","midi_source":""},{"t":57.846,"note":61,"dur":0.045,"vel":0.496,"inst":"xylophone_v0_plucked_129","midi_source":""},{"t":57.846,"note":73,"dur":0.201,"vel":0.496,"inst":"xylophone_v0_plucked_129","midi_source":""},{"t":57.891,"note":62,"dur":0.045,"vel":0.496,"inst":"banjo_v0_plucked_142","midi_source":""},{"t":57.935,"note":65,"dur":0.045,"vel":0.496,"inst":"banjo_v0_plucked_142","midi_source":""},{"t":57.98,"note":55,"dur":0.045,"vel":0.496,"inst":"xylophone_v0_plucked_129","midi_source":""},{"t":57.98,"note":55,"dur":0.134,"vel":0.496,"inst":"xylophone_v0_plucked_129","midi_source":""},{"t":58.025,"note":67,"dur":0.045,"vel":0.496,"inst":"xylophone_v0_plucked_129","midi_source":""},{"t":58.047,"note":67,"dur":0.067,"vel":0.496,"inst":"xylophone_v0_plucked_129","midi_source":""},{"t":58.069,"note":70,"dur":0.045,"vel":0.496,"inst":"xylophone_v0_plucked_129","midi_source":""},{"t":58.114,"note":53,"dur":0.045,"vel":0.496,"inst":"banjo_v0_plucked_142","midi_source":""},{"t":58.114,"note":58,"dur":0.045,"vel":0.496,"inst":"xylophone_v0_plucked_129","midi_source":""},{"t":58.114,"note":55,"dur":0.403,"vel":0.496,"inst":"xylophone_v0_plucked_129","midi_source":""},{"t":58.114,"note":70,"dur":0.403,"vel":0.496,"inst":"xylophone_v0_plucked_129","midi_source":""},{"t":58.114,"note":77,"dur":0.134,"vel":0.496,"inst":"banjo_v0_plucked_142","midi_source":""},{"t":58.204,"note":53,"dur":0.02,"vel":0.496,"inst":"banjo_v0_plucked_142","midi_source":""},{"t":58.204,"note":58,"dur":0.02,"vel":0.496,"inst":"xylophone_v0_plucked_129","midi_source":""},{"t":58.248,"note":58,"dur":0.045,"vel":0.496,"inst":"xylophone_v0_plucked_129","midi_source":""},{"t":58.248,"note":67,"dur":0.168,"vel":0.496,"inst":"xylophone_v0_plucked_129","midi_source":""},{"t":58.293,"note":60,"dur":0.045,"vel":0.496,"inst":"pad_string_v0_bass_416","midi_source":""},{"t":58.338,"note":62,"dur":0.045,"vel":0.496,"inst":"banjo_v0_plucked_142","midi_source":""},{"t":58.383,"note":49,"dur":0.134,"vel":0.496,"inst":"xylophone_v0_plucked_129","midi_source":""},{"t":58.383,"note":65,"dur":0.134,"vel":0.496,"inst":"banjo_v0_plucked_142","midi_source":""},{"t":58.383,"note":70,"dur":0.045,"vel":0.496,"inst":"xylophone_v0_plucked_129","midi_source":""},{"t":58.416,"note":79,"dur":0.034,"vel":0.496,"inst":"xylophone_v0_plucked_129","midi_source":""},{"t":58.427,"note":73,"dur":0.045,"vel":0.496,"inst":"xylophone_v0_plucked_129","midi_source":""},{"t":58.45,"note":79,"dur":0.034,"vel":0.496,"inst":"xylophone_v0_plucked_129","midi_source":""},{"t":58.472,"note":77,"dur":0.045,"vel":0.496,"inst":"banjo_v0_plucked_142","midi_source":""},{"t":58.483,"note":82,"dur":0.034,"vel":0.496,"inst":"xylophone_v0_plucked_129","midi_source":""},{"t":58.517,"note":48,"dur":0.045,"vel":0.496,"inst":"pad_string_v0_bass_416","midi_source":""},{"t":58.517,"note":62,"dur":0.045,"vel":0.496,"inst":"banjo_v0_plucked_142","midi_source":""},{"t":58.517,"note":74,"dur":0.045,"vel":0.496,"inst":"banjo_v0_plucked_142","midi_source":""},{"t":58.517,"note":79,"dur":0.179,"vel":0.496,"inst":"xylophone_v0_plucked_129","midi_source":""},{"t":58.562,"note":50,"dur":0.045,"vel":0.496,"inst":"banjo_v0_plucked_142","midi_source":""},{"t":58.606,"note":55,"dur":0.045,"vel":0.496,"inst":"xylophone_v0_plucked_129","midi_source":""},{"t":58.606,"note":55,"dur":0.02,"vel":0.496,"inst":"xylophone_v0_plucked_129","midi_source":""},{"t":58.606,"note":67,"dur":0.02,"vel":0.496,"inst":"xylophone_v0_plucked_129","midi_source":""},{"t":58.651,"note":49,"dur":0.045,"vel":0.496,"inst":"xylophone_v0_plucked_129","midi_source":""},{"t":58.651,"note":65,"dur":0.045,"vel":0.496,"inst":"banjo_v0_plucked_142","midi_source":""},{"t":58.651,"note":67,"dur":0.045,"vel":0.496,"inst":"xylophone_v0_plucked_129","midi_source":""},{"t":58.696,"note":50,"dur":0.045,"vel":0.496,"inst":"banjo_v0_plucked_142","midi_source":""},{"t":58.696,"note":55,"dur":0.045,"vel":0.496,"inst":"xylophone_v0_plucked_129","midi_source":""},{"t":58.696,"note":72,"dur":0.045,"vel":0.496,"inst":"pad_string_v0_bass_416","midi_source":""},{"t":58.696,"note":67,"dur":0.045,"vel":0.496,"inst":"xylophone_v0_plucked_129","midi_source":""},{"t":58.74,"note":53,"dur":0.045,"vel":0.496,"inst":"banjo_v0_plucked_142","midi_source":""},{"t":58.74,"note":67,"dur":0.045,"vel":0.496,"inst":"xylophone_v0_plucked_129","midi_source":""},{"t":58.74,"note":73,"dur":0.045,"vel":0.496,"inst":"xylophone_v0_plucked_129","midi_source":""},{"t":58.74,"note":77,"dur":0.045,"vel":0.496,"inst":"banjo_v0_plucked_142","midi_source":""},{"t":58.785,"note":43,"dur":0.045,"vel":0.496,"inst":"xylophone_v0_plucked_129","midi_source":""},{"t":58.785,"note":55,"dur":0.045,"vel":0.496,"inst":"xylophone_v0_plucked_129","midi_source":""},{"t":58.785,"note":70,"dur":0.045,"vel":0.496,"inst":"xylophone_v0_plucked_129","midi_source":""},{"t":58.785,"note":74,"dur":0.045,"vel":0.496,"inst":"banjo_v0_plucked_142","midi_source":""},{"t":58.83,"note":61,"dur":0.045,"vel":0.496,"inst":"xylophone_v0_plucked_129","midi_source":""},{"t":58.83,"note":77,"dur":0.045,"vel":0.496,"inst":"banjo_v0_plucked_142","midi_source":""},{"t":58.875,"note":43,"dur":0.02,"vel":0.496,"inst":"xylophone_v0_plucked_129","midi_source":""},{"t":58.875,"note":65,"dur":0.045,"vel":0.496,"inst":"banjo_v0_plucked_142","midi_source":""},{"t":58.875,"note":70,"dur":0.02,"vel":0.496,"inst":"xylophone_v0_plucked_129","midi_source":""},{"t":58.875,"note":73,"dur":0.045,"vel":0.496,"inst":"xylophone_v0_plucked_129","midi_source":""},{"t":58.919,"note":46,"dur":0.045,"vel":0.496,"inst":"xylophone_v0_plucked_129","midi_source":""},{"t":58.919,"note":65,"dur":0.045,"vel":0.496,"inst":"banjo_v0_plucked_142","midi_source":""},{"t":58.919,"note":70,"dur":0.045,"vel":0.496,"inst":"xylophone_v0_plucked_129","midi_source":""},{"t":58.919,"note":73,"dur":0.134,"vel":0.496,"inst":"xylophone_v0_plucked_129","midi_source":""},{"t":58.964,"note":43,"dur":0.045,"vel":0.496,"inst":"xylophone_v0_plucked_129","midi_source":""},{"t":58.964,"note":65,"dur":0.045,"vel":0.496,"inst":"banjo_v0_plucked_142","midi_source":""},{"t":58.964,"note":55,"dur":0.045,"vel":0.496,"inst":"xylophone_v0_plucked_129","midi_source":""},{"t":59.009,"note":58,"dur":0.045,"vel":0.496,"inst":"xylophone_v0_plucked_129","midi_source":""},{"t":59.009,"note":65,"dur":0.045,"vel":0.496,"inst":"banjo_v0_plucked_142","midi_source":""},{"t":59.009,"note":55,"dur":0.045,"vel":0.496,"inst":"xylophone_v0_plucked_129","midi_source":""},{"t":59.054,"note":58,"dur":0.268,"vel":0.496,"inst":"xylophone_v0_plucked_129","midi_source":""},{"t":59.054,"note":62,"dur":0.045,"vel":0.496,"inst":"banjo_v0_plucked_142","midi_source":""},{"t":59.054,"note":55,"dur":0.179,"vel":0.496,"inst":"xylophone_v0_plucked_129","midi_source":""},{"t":59.054,"note":70,"dur":0.134,"vel":0.496,"inst":"xylophone_v0_plucked_129","midi_source":""},{"t":59.099,"note":55,"dur":0.045,"vel":0.496,"inst":"xylophone_v0_plucked_129","midi_source":""},{"t":59.143,"note":70,"dur":0.045,"vel":0.496,"inst":"xylophone_v0_plucked_129","midi_source":""},{"t":59.188,"note":70,"dur":0.045,"vel":0.496,"inst":"xylophone_v0_plucked_129","midi_source":""},{"t":59.233,"note":62,"dur":0.045,"vel":0.496,"inst":"banjo_v0_plucked_142","midi_source":""},{"t":59.233,"note":55,"dur":0.045,"vel":0.496,"inst":"xylophone_v0_plucked_129","midi_source":""},{"t":59.277,"note":61,"dur":0.045,"vel":0.496,"inst":"xylophone_v0_plucked_129","midi_source":""},{"t":59.277,"note":65,"dur":0.045,"vel":0.496,"inst":"banjo_v0_plucked_142","midi_source":""},{"t":59.322,"note":58,"dur":0.045,"vel":0.496,"inst":"xylophone_v0_plucked_129","midi_source":""},{"t":59.322,"note":58,"dur":0.134,"vel":0.496,"inst":"xylophone_v0_plucked_129","midi_source":""},{"t":59.322,"note":62,"dur":0.134,"vel":0.496,"inst":"banjo_v0_plucked_142","midi_source":""},{"t":59.367,"note":62,"dur":0.045,"vel":0.496,"inst":"banjo_v0_plucked_142","midi_source":""},{"t":59.411,"note":55,"dur":0.045,"vel":0.496,"inst":"xylophone_v0_plucked_129","midi_source":""},{"t":59.456,"note":55,"dur":0.134,"vel":0.496,"inst":"xylophone_v0_plucked_129","midi_source":""},{"t":59.456,"note":58,"dur":0.045,"vel":0.496,"inst":"xylophone_v0_plucked_129","midi_source":""},{"t":59.456,"note":65,"dur":0.134,"vel":0.496,"inst":"banjo_v0_plucked_142","midi_source":""},{"t":59.456,"note":70,"dur":0.313,"vel":0.496,"inst":"xylophone_v0_plucked_129","midi_source":""},{"t":59.501,"note":62,"dur":0.045,"vel":0.496,"inst":"banjo_v0_plucked_142","midi_source":""},{"t":59.546,"note":67,"dur":0.045,"vel":0.496,"inst":"xylophone_v0_plucked_129","midi_source":""},{"t":59.591,"note":43,"dur":0.134,"vel":0.496,"inst":"xylophone_v0_plucked_129","midi_source":""},{"t":59.591,"note":55,"dur":0.045,"vel":0.496,"inst":"xylophone_v0_plucked_129","midi_source":""},{"t":59.591,"note":70,"dur":0.134,"vel":0.496,"inst":"xylophone_v0_plucked_129","midi_source":""},{"t":59.635,"note":70,"dur":0.045,"vel":0.496,"inst":"xylophone_v0_plucked_129","midi_source":""},{"t":59.68,"note":74,"dur":0.045,"vel":0.496,"inst":"banjo_v0_plucked_142","midi_source":""},{"t":59.725,"note":53,"dur":0.313,"vel":0.496,"inst":"banjo_v0_plucked_142","midi_source":""},{"t":59.725,"note":67,"dur":0.313,"vel":0.496,"inst":"xylophone_v0_plucked_129","midi_source":""},{"t":59.725,"note":77,"dur":0.313,"vel":0.496,"inst":"banjo_v0_plucked_142","midi_source":""},{"t":59.77,"note":65,"dur":0.045,"vel":0.496,"inst":"banjo_v0_plucked_142","midi_source":""},{"t":59.814,"note":55,"dur":0.045,"vel":0.496,"inst":"xylophone_v0_plucked_129","midi_source":""},{"t":59.859,"note":67,"dur":0.045,"vel":0.496,"inst":"xylophone_v0_plucked_129","midi_source":""},{"t":59.904,"note":70,"dur":0.045,"vel":0.496,"inst":"xylophone_v0_plucked_129","midi_source":""},{"t":59.948,"note":77,"dur":0.045,"vel":0.496,"inst":"banjo_v0_plucked_142","midi_source":""},{"t":59.993,"note":79,"dur":0.045,"vel":0.496,"inst":"xylophone_v0_plucked_129","midi_source":""},{"t":60.038,"note":46,"dur":0.045,"vel":0.496,"inst":"xylophone_v0_plucked_129","midi_source":""},{"t":60.038,"note":67,"dur":0.045,"vel":0.496,"inst":"xylophone_v0_plucked_129","midi_source":""},{"t":60.038,"note":70,"dur":0.045,"vel":0.496,"inst":"xylophone_v0_plucked_129","midi_source":""},{"t":60.038,"note":82,"dur":0.045,"vel":0.496,"inst":"xylophone_v0_plucked_129","midi_source":""},{"t":60.083,"note":49,"dur":0.045,"vel":0.496,"inst":"xylophone_v0_plucked_129","midi_source":""},{"t":60.083,"note":55,"dur":0.045,"vel":0.496,"inst":"xylophone_v0_plucked_129","midi_source":""},{"t":60.083,"note":70,"dur":0.045,"vel":0.496,"inst":"xylophone_v0_plucked_129","midi_source":""},{"t":60.083,"note":82,"dur":0.045,"vel":0.496,"inst":"xylophone_v0_plucked_129","midi_source":""},{"t":60.127,"note":50,"dur":0.067,"vel":0.496,"inst":"banjo_v0_plucked_142","midi_source":""},{"t":60.127,"note":65,"dur":0.134,"vel":0.496,"inst":"banjo_v0_plucked_142","midi_source":""},{"t":60.127,"note":67,"dur":0.134,"vel":0.496,"inst":"xylophone_v0_plucked_129","midi_source":""},{"t":60.127,"note":79,"dur":0.134,"vel":0.496,"inst":"xylophone_v0_plucked_129","midi_source":""},{"t":60.194,"note":58,"dur":0.067,"vel":0.496,"inst":"xylophone_v0_plucked_129","midi_source":""},{"t":60.262,"note":49,"dur":0.134,"vel":0.496,"inst":"xylophone_v0_plucked_129","midi_source":""},{"t":60.262,"note":58,"dur":0.045,"vel":0.496,"inst":"xylophone_v0_plucked_129","midi_source":""},{"t":60.262,"note":65,"dur":0.134,"vel":0.496,"inst":"banjo_v0_plucked_142","midi_source":""},{"t":60.262,"note":82,"dur":0.134,"vel":0.496,"inst":"xylophone_v0_plucked_129","midi_source":""},{"t":60.306,"note":61,"dur":0.045,"vel":0.496,"inst":"xylophone_v0_plucked_129","midi_source":""},{"t":60.351,"note":65,"dur":0.045,"vel":0.496,"inst":"banjo_v0_plucked_142","midi_source":""},{"t":60.396,"note":46,"dur":0.134,"vel":0.496,"inst":"xylophone_v0_plucked_129","midi_source":""},{"t":60.396,"note":62,"dur":0.134,"vel":0.496,"inst":"banjo_v0_plucked_142","midi_source":""},{"t":60.396,"note":67,"dur":0.045,"vel":0.496,"inst":"xylophone_v0_plucked_129","midi_source":""},{"t":60.396,"note":82,"dur":0.134,"vel":0.496,"inst":"xylophone_v0_plucked_129","midi_source":""},{"t":60.441,"note":70,"dur":0.045,"vel":0.496,"inst":"xylophone_v0_plucked_129","midi_source":""},{"t":60.485,"note":77,"dur":0.045,"vel":0.496,"inst":"banjo_v0_plucked_142","midi_source":""},{"t":60.53,"note":46,"dur":0.045,"vel":0.496,"inst":"xylophone_v0_plucked_129","midi_source":""},{"t":60.53,"note":61,"dur":0.134,"vel":0.496,"inst":"xylophone_v0_plucked_129","midi_source":""},{"t":60.53,"note":77,"dur":0.067,"vel":0.496,"inst":"banjo_v0_plucked_142","midi_source":""},{"t":60.53,"note":85,"dur":0.313,"vel":0.496,"inst":"xylophone_v0_plucked_129","midi_source":""},{"t":60.575,"note":49,"dur":0.045,"vel":0.496,"inst":"xylophone_v0_plucked_129","midi_source":""},{"t":60.597,"note":82,"dur":0.246,"vel":0.496,"inst":"xylophone_v0_plucked_129","midi_source":""},{"t":60.619,"note":53,"dur":0.045,"vel":0.496,"inst":"banjo_v0_plucked_142","midi_source":""},{"t":60.664,"note":55,"dur":0.045,"vel":0.496,"inst":"xylophone_v0_plucked_129","midi_source":""},{"t":60.664,"note":65,"dur":0.134,"vel":0.496,"inst":"banjo_v0_plucked_142","midi_source":""},{"t":60.709,"note":58,"dur":0.045,"vel":0.496,"inst":"xylophone_v0_plucked_129","midi_source":""},{"t":60.754,"note":61,"dur":0.045,"vel":0.496,"inst":"xylophone_v0_plucked_129","midi_source":""},{"t":60.798,"note":65,"dur":0.045,"vel":0.496,"inst":"banjo_v0_plucked_142","midi_source":""},{"t":60.798,"note":73,"dur":0.045,"vel":0.496,"inst":"xylophone_v0_plucked_129","midi_source":""},{"t":60.843,"note":67,"dur":0.045,"vel":0.496,"inst":"xylophone_v0_plucked_129","midi_source":""},{"t":60.843,"note":70,"dur":0.045,"vel":0.496,"inst":"xylophone_v0_plucked_129","midi_source":""},{"t":60.843,"note":82,"dur":0.045,"vel":0.496,"inst":"xylophone_v0_plucked_129","midi_source":""},{"t":60.843,"note":86,"dur":0.045,"vel":0.496,"inst":"banjo_v0_plucked_142","midi_source":""},{"t":60.888,"note":70,"dur":0.045,"vel":0.496,"inst":"xylophone_v0_plucked_129","midi_source":""},{"t":60.888,"note":73,"dur":0.045,"vel":0.496,"inst":"xylophone_v0_plucked_129","midi_source":""},{"t":60.888,"note":82,"dur":0.045,"vel":0.496,"inst":"xylophone_v0_plucked_129","midi_source":""},{"t":60.888,"note":85,"dur":0.045,"vel":0.496,"inst":"xylophone_v0_plucked_129","midi_source":""},{"t":60.933,"note":49,"dur":0.045,"vel":0.496,"inst":"xylophone_v0_plucked_129","midi_source":""},{"t":60.933,"note":73,"dur":0.067,"vel":0.496,"inst":"xylophone_v0_plucked_129","midi_source":""},{"t":60.933,"note":82,"dur":0.067,"vel":0.496,"inst":"xylophone_v0_plucked_129","midi_source":""},{"t":60.933,"note":85,"dur":0.067,"vel":0.496,"inst":"xylophone_v0_plucked_129","midi_source":""},{"t":60.977,"note":53,"dur":0.045,"vel":0.496,"inst":"banjo_v0_plucked_142","midi_source":""},{"t":61.0,"note":65,"dur":0.246,"vel":0.496,"inst":"banjo_v0_plucked_142","midi_source":""},{"t":61.0,"note":79,"dur":0.246,"vel":0.496,"inst":"xylophone_v0_plucked_129","midi_source":""},{"t":61.0,"note":82,"dur":0.246,"vel":0.496,"inst":"xylophone_v0_plucked_129","midi_source":""},{"t":61.022,"note":55,"dur":0.045,"vel":0.496,"inst":"xylophone_v0_plucked_129","midi_source":""},{"t":61.067,"note":58,"dur":0.045,"vel":0.496,"inst":"xylophone_v0_plucked_129","midi_source":""},{"t":61.112,"note":61,"dur":0.045,"vel":0.496,"inst":"xylophone_v0_plucked_129","midi_source":""},{"t":61.156,"note":65,"dur":0.045,"vel":0.496,"inst":"banjo_v0_plucked_142","midi_source":""},{"t":61.201,"note":67,"dur":0.045,"vel":0.496,"inst":"xylophone_v0_plucked_129","midi_source":""},{"t":61.246,"note":49,"dur":0.045,"vel":0.496,"inst":"xylophone_v0_plucked_129","midi_source":""},{"t":61.246,"note":82,"dur":0.045,"vel":0.496,"inst":"xylophone_v0_plucked_129","midi_source":""},{"t":61.246,"note":85,"dur":0.045,"vel":0.496,"inst":"xylophone_v0_plucked_129","midi_source":""},{"t":61.29,"note":53,"dur":0.045,"vel":0.496,"inst":"banjo_v0_plucked_142","midi_source":""},{"t":61.29,"note":73,"dur":0.02,"vel":0.496,"inst":"xylophone_v0_plucked_129","midi_source":""},{"t":61.29,"note":79,"dur":0.045,"vel":0.496,"inst":"xylophone_v0_plucked_129","midi_source":""},{"t":61.29,"note":82,"dur":0.045,"vel":0.496,"inst":"xylophone_v0_plucked_129","midi_source":""},{"t":61.335,"note":43,"dur":0.045,"vel":0.496,"inst":"xylophone_v0_plucked_129","midi_source":""},{"t":61.335,"note":73,"dur":0.067,"vel":0.496,"inst":"xylophone_v0_plucked_129","midi_source":""},{"t":61.335,"note":79,"dur":0.067,"vel":0.496,"inst":"xylophone_v0_plucked_129","midi_source":""},{"t":61.335,"note":82,"dur":0.067,"vel":0.496,"inst":"xylophone_v0_plucked_129","midi_source":""},{"t":61.38,"note":58,"dur":0.045,"vel":0.496,"inst":"xylophone_v0_plucked_129","midi_source":""},{"t":61.402,"note":61,"dur":0.246,"vel":0.496,"inst":"xylophone_v0_plucked_129","midi_source":""},{"t":61.402,"note":67,"dur":0.201,"vel":0.496,"inst":"xylophone_v0_plucked_129","midi_source":""},{"t":61.402,"note":82,"dur":0.246,"vel":0.496,"inst":"xylophone_v0_plucked_129","midi_source":""},{"t":61.425,"note":61,"dur":0.045,"vel":0.496,"inst":"xylophone_v0_plucked_129","midi_source":""},{"t":61.469,"note":65,"dur":0.045,"vel":0.496,"inst":"banjo_v0_plucked_142","midi_source":""},{"t":61.514,"note":55,"dur":0.045,"vel":0.496,"inst":"xylophone_v0_plucked_129","midi_source":""},{"t":61.559,"note":70,"dur":0.045,"vel":0.496,"inst":"xylophone_v0_plucked_129","midi_source":""},{"t":61.604,"note":73,"dur":0.045,"vel":0.496,"inst":"xylophone_v0_plucked_129","midi_source":""},{"t":61.604,"note":67,"dur":0.045,"vel":0.496,"inst":"xylophone_v0_plucked_129","midi_source":""},{"t":61.648,"note":43,"dur":0.045,"vel":0.496,"inst":"xylophone_v0_plucked_129","midi_source":""},{"t":61.648,"note":70,"dur":0.045,"vel":0.496,"inst":"xylophone_v0_plucked_129","midi_source":""},{"t":61.648,"note":85,"dur":0.045,"vel":0.496,"inst":"xylophone_v0_plucked_129","midi_source":""},{"t":61.693,"note":55,"dur":0.045,"vel":0.496,"inst":"xylophone_v0_plucked_129","midi_source":""},{"t":61.693,"note":65,"dur":0.045,"vel":0.496,"inst":"banjo_v0_plucked_142","midi_source":""},{"t":61.693,"note":73,"dur":0.02,"vel":0.496,"inst":"xylophone_v0_plucked_129","midi_source":""},{"t":61.693,"note":82,"dur":0.045,"vel":0.496,"inst":"xylophone_v0_plucked_129","midi_source":""},{"t":61.738,"note":46,"dur":0.045,"vel":0.496,"inst":"xylophone_v0_plucked_129","midi_source":""},{"t":61.738,"note":55,"dur":0.313,"vel":0.496,"inst":"xylophone_v0_plucked_129","midi_source":""},{"t":61.738,"note":73,"dur":0.313,"vel":0.496,"inst":"xylophone_v0_plucked_129","midi_source":""},{"t":61.738,"note":82,"dur":0.067,"vel":0.496,"inst":"xylophone_v0_plucked_129","midi_source":""},{"t":61.783,"note":49,"dur":0.045,"vel":0.496,"inst":"xylophone_v0_plucked_129","midi_source":""},{"t":61.805,"note":82,"dur":0.067,"vel":0.496,"inst":"xylophone_v0_plucked_129","midi_source":""},{"t":61.827,"note":43,"dur":0.045,"vel":0.496,"inst":"xylophone_v0_plucked_129","midi_source":""},{"t":61.872,"note":58,"dur":0.045,"vel":0.496,"inst":"xylophone_v0_plucked_129","midi_source":""},{"t":61.872,"note":79,"dur":0.067,"vel":0.496,"inst":"xylophone_v0_plucked_129","midi_source":""},{"t":61.917,"note":61,"dur":0.045,"vel":0.496,"inst":"xylophone_v0_plucked_129","midi_source":""},{"t":61.939,"note":67,"dur":0.067,"vel":0.496,"inst":"xylophone_v0_plucked_129","midi_source":""},{"t":61.961,"note":55,"dur":0.045,"vel":0.496,"inst":"xylophone_v0_plucked_129","midi_source":""},{"t":62.006,"note":70,"dur":0.045,"vel":0.496,"inst":"xylophone_v0_plucked_129","midi_source":""},{"t":62.006,"note":86,"dur":0.045,"vel":0.496,"inst":"banjo_v0_plucked_142","midi_source":""},{"t":62.051,"note":58,"dur":0.045,"vel":0.496,"inst":"xylophone_v0_plucked_129","midi_source":""},{"t":62.051,"note":55,"dur":0.045,"vel":0.496,"inst":"xylophone_v0_plucked_129","midi_source":""},{"t":62.051,"note":73,"dur":0.045,"vel":0.496,"inst":"xylophone_v0_plucked_129","midi_source":""},{"t":62.051,"note":85,"dur":0.045,"vel":0.496,"inst":"xylophone_v0_plucked_129","midi_source":""},{"t":62.096,"note":46,"dur":0.045,"vel":0.496,"inst":"xylophone_v0_plucked_129","midi_source":""},{"t":62.096,"note":55,"dur":0.045,"vel":0.496,"inst":"xylophone_v0_plucked_129","midi_source":""},{"t":62.096,"note":70,"dur":0.045,"vel":0.496,"inst":"xylophone_v0_plucked_129","midi_source":""},{"t":62.096,"note":74,"dur":0.045,"vel":0.496,"inst":"banjo_v0_plucked_142","midi_source":""},{"t":62.14,"note":43,"dur":0.045,"vel":0.496,"inst":"xylophone_v0_plucked_129","midi_source":""},{"t":62.14,"note":65,"dur":0.045,"vel":0.496,"inst":"banjo_v0_plucked_142","midi_source":""},{"t":62.14,"note":70,"dur":0.045,"vel":0.496,"inst":"xylophone_v0_plucked_129","midi_source":""},{"t":62.14,"note":67,"dur":0.034,"vel":0.496,"inst":"xylophone_v0_plucked_129","midi_source":""},{"t":62.174,"note":77,"dur":0.034,"vel":0.496,"inst":"banjo_v0_plucked_142","midi_source":""},{"t":62.185,"note":49,"dur":0.045,"vel":0.496,"inst":"xylophone_v0_plucked_129","midi_source":""},{"t":62.185,"note":65,"dur":0.045,"vel":0.496,"inst":"banjo_v0_plucked_142","midi_source":""},{"t":62.185,"note":70,"dur":0.045,"vel":0.496,"inst":"xylophone_v0_plucked_129","midi_source":""},{"t":62.208,"note":82,"dur":0.034,"vel":0.496,"inst":"xylophone_v0_plucked_129","midi_source":""},{"t":62.23,"note":46,"dur":0.045,"vel":0.496,"inst":"xylophone_v0_plucked_129","midi_source":""},{"t":62.23,"note":73,"dur":0.045,"vel":0.496,"inst":"xylophone_v0_plucked_129","midi_source":""},{"t":62.23,"note":77,"dur":0.045,"vel":0.496,"inst":"banjo_v0_plucked_142","midi_source":""},{"t":62.241,"note":82,"dur":0.034,"vel":0.496,"inst":"xylophone_v0_plucked_129","midi_source":""},{"t":62.275,"note":46,"dur":0.045,"vel":0.992,"inst":"xylophone_v0_plucked_129","midi_source":""},{"t":62.275,"note":70,"dur":0.045,"vel":0.992,"inst":"xylophone_v0_plucked_129","midi_source":""},{"t":62.275,"note":77,"dur":0.045,"vel":0.992,"inst":"banjo_v0_plucked_142","midi_source":""},{"t":62.275,"note":79,"dur":0.134,"vel":0.992,"inst":"xylophone_v0_plucked_129","midi_source":""},{"t":62.319,"note":58,"dur":0.045,"vel":0.992,"inst":"xylophone_v0_plucked_129","midi_source":""},{"t":62.319,"note":67,"dur":0.045,"vel":0.992,"inst":"xylophone_v0_plucked_129","midi_source":""},{"t":62.319,"note":70,"dur":0.045,"vel":0.992,"inst":"xylophone_v0_plucked_129","midi_source":""},{"t":62.364,"note":46,"dur":0.045,"vel":0.992,"inst":"xylophone_v0_plucked_129","midi_source":""},{"t":62.364,"note":65,"dur":0.045,"vel":0.992,"inst":"banjo_v0_plucked_142","midi_source":""},{"t":62.364,"note":67,"dur":0.045,"vel":0.992,"inst":"xylophone_v0_plucked_129","midi_source":""},{"t":62.409,"note":46,"dur":0.045,"vel":0.992,"inst":"xylophone_v0_plucked_129","midi_source":""},{"t":62.409,"note":62,"dur":0.045,"vel":0.992,"inst":"banjo_v0_plucked_142","midi_source":""},{"t":62.409,"note":70,"dur":0.045,"vel":0.992,"inst":"xylophone_v0_plucked_129","midi_source":""},{"t":62.409,"note":67,"dur":0.045,"vel":0.992,"inst":"xylophone_v0_plucked_129","midi_source":""},{"t":62.454,"note":85,"dur":0.045,"vel":0.992,"inst":"xylophone_v0_plucked_129","midi_source":""},{"t":62.498,"note":46,"dur":0.02,"vel":0.992,"inst":"xylophone_v0_plucked_129","midi_source":""},{"t":62.498,"note":62,"dur":0.02,"vel":0.992,"inst":"banjo_v0_plucked_142","midi_source":""},{"t":62.498,"note":70,"dur":0.02,"vel":0.992,"inst":"xylophone_v0_plucked_129","midi_source":""},{"t":62.498,"note":82,"dur":0.045,"vel":0.992,"inst":"xylophone_v0_plucked_129","midi_source":""},{"t":62.543,"note":53,"dur":0.045,"vel":0.496,"inst":"banjo_v0_plucked_142","midi_source":""},{"t":62.543,"note":65,"dur":0.067,"vel":0.496,"inst":"banjo_v0_plucked_142","midi_source":""},{"t":62.543,"note":67,"dur":0.134,"vel":0.496,"inst":"xylophone_v0_plucked_129","midi_source":""},{"t":62.543,"note":77,"dur":0.134,"vel":0.496,"inst":"banjo_v0_plucked_142","midi_source":""},{"t":62.588,"note":43,"dur":0.045,"vel":0.496,"inst":"xylophone_v0_plucked_129","midi_source":""},{"t":62.632,"note":55,"dur":0.045,"vel":0.496,"inst":"xylophone_v0_plucked_129","midi_source":""},{"t":62.677,"note":53,"dur":0.268,"vel":0.496,"inst":"banjo_v0_plucked_142","midi_source":""},{"t":62.677,"note":58,"dur":0.268,"vel":0.496,"inst":"xylophone_v0_plucked_129","midi_source":""},{"t":62.677,"note":61,"dur":0.045,"vel":0.496,"inst":"xylophone_v0_plucked_129","midi_source":""},{"t":62.677,"note":73,"dur":0.201,"vel":0.496,"inst":"xylophone_v0_plucked_129","midi_source":""},{"t":62.722,"note":62,"dur":0.045,"vel":0.496,"inst":"banjo_v0_plucked_142","midi_source":""},{"t":62.767,"note":65,"dur":0.045,"vel":0.496,"inst":"banjo_v0_plucked_142","midi_source":""},{"t":62.811,"note":55,"dur":0.045,"vel":0.496,"inst":"xylophone_v0_plucked_129","midi_source":""},{"t":62.811,"note":55,"dur":0.134,"vel":0.496,"inst":"xylophone_v0_plucked_129","midi_source":""},{"t":62.856,"note":67,"dur":0.045,"vel":0.496,"inst":"xylophone_v0_plucked_129","midi_source":""},{"t":62.879,"note":67,"dur":0.067,"vel":0.496,"inst":"xylophone_v0_plucked_129","midi_source":""},{"t":62.901,"note":70,"dur":0.045,"vel":0.496,"inst":"xylophone_v0_plucked_129","midi_source":""},{"t":62.946,"note":53,"dur":0.045,"vel":0.496,"inst":"banjo_v0_plucked_142","midi_source":""},{"t":62.946,"note":58,"dur":0.045,"vel":0.496,"inst":"xylophone_v0_plucked_129","midi_source":""},{"t":62.946,"note":55,"dur":0.403,"vel":0.496,"inst":"xylophone_v0_plucked_129","midi_source":""},{"t":62.946,"note":70,"dur":0.403,"vel":0.496,"inst":"xylophone_v0_plucked_129","midi_source":""},{"t":62.946,"note":77,"dur":0.134,"vel":0.496,"inst":"banjo_v0_plucked_142","midi_source":""},{"t":63.035,"note":53,"dur":0.02,"vel":0.496,"inst":"banjo_v0_plucked_142","midi_source":""},{"t":63.035,"note":58,"dur":0.02,"vel":0.496,"inst":"xylophone_v0_plucked_129","midi_source":""},{"t":63.08,"note":58,"dur":0.045,"vel":0.496,"inst":"xylophone_v0_plucked_129","midi_source":""},{"t":63.08,"note":67,"dur":0.168,"vel":0.496,"inst":"xylophone_v0_plucked_129","midi_source":""},{"t":63.125,"note":60,"dur":0.045,"vel":0.496,"inst":"pad_string_v0_bass_416","midi_source":""},{"t":63.169,"note":62,"dur":0.045,"vel":0.496,"inst":"banjo_v0_plucked_142","midi_source":""},{"t":63.214,"note":49,"dur":0.134,"vel":0.496,"inst":"xylophone_v0_plucked_129","midi_source":""},{"t":63.214,"note":65,"dur":0.134,"vel":0.496,"inst":"banjo_v0_plucked_142","midi_source":""},{"t":63.214,"note":70,"dur":0.045,"vel":0.496,"inst":"xylophone_v0_plucked_129","midi_source":""},{"t":63.248,"note":79,"dur":0.034,"vel":0.496,"inst":"xylophone_v0_plucked_129","midi_source":""},{"t":63.259,"note":73,"dur":0.045,"vel":0.496,"inst":"xylophone_v0_plucked_129","midi_source":""},{"t":63.281,"note":79,"dur":0.034,"vel":0.496,"inst":"xylophone_v0_plucked_129","midi_source":""},{"t":63.303,"note":77,"dur":0.045,"vel":0.496,"inst":"banjo_v0_plucked_142","midi_source":""},{"t":63.315,"note":82,"dur":0.034,"vel":0.496,"inst":"xylophone_v0_plucked_129","midi_source":""},{"t":63.348,"note":48,"dur":0.045,"vel":0.496,"inst":"pad_string_v0_bass_416","midi_source":""},{"t":63.348,"note":62,"dur":0.045,"vel":0.496,"inst":"banjo_v0_plucked_142","midi_source":""},{"t":63.348,"note":74,"dur":0.045,"vel":0.496,"inst":"banjo_v0_plucked_142","midi_source":""},{"t":63.348,"note":79,"dur":0.179,"vel":0.496,"inst":"xylophone_v0_plucked_129","midi_source":""},{"t":63.393,"note":50,"dur":0.045,"vel":0.496,"inst":"banjo_v0_plucked_142","midi_source":""},{"t":63.438,"note":55,"dur":0.045,"vel":0.496,"inst":"xylophone_v0_plucked_129","midi_source":""},{"t":63.438,"note":55,"dur":0.02,"vel":0.496,"inst":"xylophone_v0_plucked_129","midi_source":""},{"t":63.438,"note":67,"dur":0.02,"vel":0.496,"inst":"xylophone_v0_plucked_129","midi_source":""},{"t":63.482,"note":49,"dur":0.045,"vel":0.496,"inst":"xylophone_v0_plucked_129","midi_source":""},{"t":63.482,"note":65,"dur":0.045,"vel":0.496,"inst":"banjo_v0_plucked_142","midi_source":""},{"t":63.482,"note":67,"dur":0.045,"vel":0.496,"inst":"xylophone_v0_plucked_129","midi_source":""},{"t":63.527,"note":50,"dur":0.045,"vel":0.496,"inst":"banjo_v0_plucked_142","midi_source":""},{"t":63.527,"note":55,"dur":0.045,"vel":0.496,"inst":"xylophone_v0_plucked_129","midi_source":""},{"t":63.527,"note":72,"dur":0.045,"vel":0.496,"inst":"pad_string_v0_bass_416","midi_source":""},{"t":63.527,"note":67,"dur":0.045,"vel":0.496,"inst":"xylophone_v0_plucked_129","midi_source":""},{"t":63.572,"note":53,"dur":0.045,"vel":0.496,"inst":"banjo_v0_plucked_142","midi_source":""},{"t":63.572,"note":67,"dur":0.045,"vel":0.496,"inst":"xylophone_v0_plucked_129","midi_source":""},{"t":63.572,"note":73,"dur":0.045,"vel":0.496,"inst":"xylophone_v0_plucked_129","midi_source":""},{"t":63.572,"note":77,"dur":0.045,"vel":0.496,"inst":"banjo_v0_plucked_142","midi_source":""},{"t":63.617,"note":43,"dur":0.045,"vel":0.496,"inst":"xylophone_v0_plucked_129","midi_source":""},{"t":63.617,"note":55,"dur":0.045,"vel":0.496,"inst":"xylophone_v0_plucked_129","midi_source":""},{"t":63.617,"note":70,"dur":0.045,"vel":0.496,"inst":"xylophone_v0_plucked_129","midi_source":""},{"t":63.617,"note":74,"dur":0.045,"vel":0.496,"inst":"banjo_v0_plucked_142","midi_source":""},{"t":63.661,"note":61,"dur":0.045,"vel":0.496,"inst":"xylophone_v0_plucked_129","midi_source":""},{"t":63.661,"note":77,"dur":0.045,"vel":0.496,"inst":"banjo_v0_plucked_142","midi_source":""},{"t":63.706,"note":43,"dur":0.02,"vel":0.496,"inst":"xylophone_v0_plucked_129","midi_source":""},{"t":63.706,"note":65,"dur":0.045,"vel":0.496,"inst":"banjo_v0_plucked_142","midi_source":""},{"t":63.706,"note":70,"dur":0.02,"vel":0.496,"inst":"xylophone_v0_plucked_129","midi_source":""},{"t":63.706,"note":73,"dur":0.045,"vel":0.496,"inst":"xylophone_v0_plucked_129","midi_source":""},{"t":63.751,"note":46,"dur":0.045,"vel":0.496,"inst":"xylophone_v0_plucked_129","midi_source":""},{"t":63.751,"note":65,"dur":0.045,"vel":0.496,"inst":"banjo_v0_plucked_142","midi_source":""},{"t":63.751,"note":70,"dur":0.045,"vel":0.496,"inst":"xylophone_v0_plucked_129","midi_source":""},{"t":63.751,"note":73,"dur":0.134,"vel":0.496,"inst":"xylophone_v0_plucked_129","midi_source":""},{"t":63.796,"note":43,"dur":0.045,"vel":0.496,"inst":"xylophone_v0_plucked_129","midi_source":""},{"t":63.796,"note":65,"dur":0.045,"vel":0.496,"inst":"banjo_v0_plucked_142","midi_source":""},{"t":63.796,"note":55,"dur":0.045,"vel":0.496,"inst":"xylophone_v0_plucked_129","midi_source":""},{"t":63.84,"note":58,"dur":0.045,"vel":0.496,"inst":"xylophone_v0_plucked_129","midi_source":""},{"t":63.84,"note":65,"dur":0.045,"vel":0.496,"inst":"banjo_v0_plucked_142","midi_source":""},{"t":63.84,"note":55,"dur":0.045,"vel":0.496,"inst":"xylophone_v0_plucked_129","midi_source":""},{"t":63.885,"note":58,"dur":0.268,"vel":0.496,"inst":"xylophone_v0_plucked_129","midi_source":""},{"t":63.885,"note":62,"dur":0.045,"vel":0.496,"inst":"banjo_v0_plucked_142","midi_source":""},{"t":63.885,"note":55,"dur":0.179,"vel":0.496,"inst":"xylophone_v0_plucked_129","midi_source":""},{"t":63.885,"note":70,"dur":0.134,"vel":0.496,"inst":"xylophone_v0_plucked_129","midi_source":""},{"t":63.93,"note":55,"dur":0.045,"vel":0.496,"inst":"xylophone_v0_plucked_129","midi_source":""},{"t":63.974,"note":70,"dur":0.045,"vel":0.496,"inst":"xylophone_v0_plucked_129","midi_source":""},{"t":64.019,"note":70,"dur":0.045,"vel":0.496,"inst":"xylophone_v0_plucked_129","midi_source":""},{"t":64.064,"note":62,"dur":0.045,"vel":0.496,"inst":"banjo_v0_plucked_142","midi_source":""},{"t":64.064,"note":55,"dur":0.045,"vel":0.496,"inst":"xylophone_v0_plucked_129","midi_source":""},{"t":64.109,"note":61,"dur":0.045,"vel":0.496,"inst":"xylophone_v0_plucked_129","midi_source":""},{"t":64.109,"note":65,"dur":0.045,"vel":0.496,"inst":"banjo_v0_plucked_142","midi_source":""},{"t":64.153,"note":58,"dur":0.045,"vel":0.496,"inst":"xylophone_v0_plucked_129","midi_source":""},{"t":64.153,"note":58,"dur":0.134,"vel":0.496,"inst":"xylophone_v0_plucked_129","midi_source":""},{"t":64.153,"note":62,"dur":0.134,"vel":0.496,"inst":"banjo_v0_plucked_142","midi_source":""},{"t":64.198,"note":62,"dur":0.045,"vel":0.496,"inst":"banjo_v0_plucked_142","midi_source":""},{"t":64.243,"note":55,"dur":0.045,"vel":0.496,"inst":"xylophone_v0_plucked_129","midi_source":""},{"t":64.288,"note":55,"dur":0.134,"vel":0.496,"inst":"xylophone_v0_plucked_129","midi_source":""},{"t":64.288,"note":58,"dur":0.045,"vel":0.496,"inst":"xylophone_v0_plucked_129","midi_source":""},{"t":64.288,"note":65,"dur":0.134,"vel":0.496,"inst":"banjo_v0_plucked_142","midi_source":""},{"t":64.288,"note":70,"dur":0.313,"vel":0.496,"inst":"xylophone_v0_plucked_129","midi_source":""},{"t":64.333,"note":62,"dur":0.045,"vel":0.496,"inst":"banjo_v0_plucked_142","midi_source":""},{"t":64.377,"note":67,"dur":0.045,"vel":0.496,"inst":"xylophone_v0_plucked_129","midi_source":""},{"t":64.422,"note":43,"dur":0.134,"vel":0.496,"inst":"xylophone_v0_plucked_129","midi_source":""},{"t":64.422,"note":55,"dur":0.045,"vel":0.496,"inst":"xylophone_v0_plucked_129","midi_source":""},{"t":64.422,"note":70,"dur":0.134,"vel":0.496,"inst":"xylophone_v0_plucked_129","midi_source":""},{"t":64.467,"note":70,"dur":0.045,"vel":0.496,"inst":"xylophone_v0_plucked_129","midi_source":""},{"t":64.511,"note":74,"dur":0.045,"vel":0.496,"inst":"banjo_v0_plucked_142","midi_source":""},{"t":64.556,"note":53,"dur":0.313,"vel":0.496,"inst":"banjo_v0_plucked_142","midi_source":""},{"t":64.556,"note":67,"dur":0.313,"vel":0.496,"inst":"xylophone_v0_plucked_129","midi_source":""},{"t":64.556,"note":77,"dur":0.313,"vel":0.496,"inst":"banjo_v0_plucked_142","midi_source":""},{"t":64.601,"note":65,"dur":0.045,"vel":0.496,"inst":"banjo_v0_plucked_142","midi_source":""},{"t":64.645,"note":55,"dur":0.045,"vel":0.496,"inst":"xylophone_v0_plucked_129","midi_source":""},{"t":64.69,"note":67,"dur":0.045,"vel":0.496,"inst":"xylophone_v0_plucked_129","midi_source":""},{"t":64.735,"note":70,"dur":0.045,"vel":0.496,"inst":"xylophone_v0_plucked_129","midi_source":""},{"t":64.78,"note":77,"dur":0.045,"vel":0.496,"inst":"banjo_v0_plucked_142","midi_source":""},{"t":64.825,"note":79,"dur":0.045,"vel":0.496,"inst":"xylophone_v0_plucked_129","midi_source":""},{"t":64.869,"note":46,"dur":0.045,"vel":0.496,"inst":"xylophone_v0_plucked_129","midi_source":""},{"t":64.869,"note":67,"dur":0.045,"vel":0.496,"inst":"xylophone_v0_plucked_129","midi_source":""},{"t":64.869,"note":70,"dur":0.045,"vel":0.496,"inst":"xylophone_v0_plucked_129","midi_source":""},{"t":64.869,"note":82,"dur":0.045,"vel":0.496,"inst":"xylophone_v0_plucked_129","midi_source":""},{"t":64.914,"note":49,"dur":0.045,"vel":0.496,"inst":"xylophone_v0_plucked_129","midi_source":""},{"t":64.914,"note":55,"dur":0.045,"vel":0.496,"inst":"xylophone_v0_plucked_129","midi_source":""},{"t":64.914,"note":70,"dur":0.045,"vel":0.496,"inst":"xylophone_v0_plucked_129","midi_source":""},{"t":64.914,"note":82,"dur":0.045,"vel":0.496,"inst":"xylophone_v0_plucked_129","midi_source":""},{"t":64.959,"note":50,"dur":0.067,"vel":0.496,"inst":"banjo_v0_plucked_142","midi_source":""},{"t":64.959,"note":65,"dur":0.134,"vel":0.496,"inst":"banjo_v0_plucked_142","midi_source":""},{"t":64.959,"note":67,"dur":0.134,"vel":0.496,"inst":"xylophone_v0_plucked_129","midi_source":""},{"t":64.959,"note":79,"dur":0.134,"vel":0.496,"inst":"xylophone_v0_plucked_129","midi_source":""},{"t":65.026,"note":58,"dur":0.067,"vel":0.496,"inst":"xylophone_v0_plucked_129","midi_source":""},{"t":65.093,"note":49,"dur":0.134,"vel":0.496,"inst":"xylophone_v0_plucked_129","midi_source":""},{"t":65.093,"note":58,"dur":0.045,"vel":0.496,"inst":"xylophone_v0_plucked_129","midi_source":""},{"t":65.093,"note":65,"dur":0.134,"vel":0.496,"inst":"banjo_v0_plucked_142","midi_source":""},{"t":65.093,"note":82,"dur":0.134,"vel":0.496,"inst":"xylophone_v0_plucked_129","midi_source":""},{"t":65.138,"note":61,"dur":0.045,"vel":0.496,"inst":"xylophone_v0_plucked_129","midi_source":""},{"t":65.182,"note":65,"dur":0.045,"vel":0.496,"inst":"banjo_v0_plucked_142","midi_source":""},{"t":65.227,"note":46,"dur":0.134,"vel":0.496,"inst":"xylophone_v0_plucked_129","midi_source":""},{"t":65.227,"note":62,"dur":0.134,"vel":0.496,"inst":"banjo_v0_plucked_142","midi_source":""},{"t":65.227,"note":67,"dur":0.045,"vel":0.496,"inst":"xylophone_v0_plucked_129","midi_source":""},{"t":65.227,"note":82,"dur":0.134,"vel":0.496,"inst":"xylophone_v0_plucked_129","midi_source":""},{"t":65.272,"note":70,"dur":0.045,"vel":0.496,"inst":"xylophone_v0_plucked_129","midi_source":""},{"t":65.316,"note":77,"dur":0.045,"vel":0.496,"inst":"banjo_v0_plucked_142","midi_source":""},{"t":65.361,"note":46,"dur":0.045,"vel":0.496,"inst":"xylophone_v0_plucked_129","midi_source":""},{"t":65.361,"note":61,"dur":0.134,"vel":0.496,"inst":"xylophone_v0_plucked_129","midi_source":""},{"t":65.361,"note":77,"dur":0.067,"vel":0.496,"inst":"banjo_v0_plucked_142","midi_source":""},{"t":65.361,"note":85,"dur":0.313,"vel":0.496,"inst":"xylophone_v0_plucked_129","midi_source":""},{"t":65.406,"note":49,"dur":0.045,"vel":0.496,"inst":"xylophone_v0_plucked_129","midi_source":""},{"t":65.428,"note":82,"dur":0.246,"vel":0.496,"inst":"xylophone_v0_plucked_129","midi_source":""},{"t":65.451,"note":53,"dur":0.045,"vel":0.496,"inst":"banjo_v0_plucked_142","midi_source":""},{"t":65.496,"note":55,"dur":0.045,"vel":0.496,"inst":"xylophone_v0_plucked_129","midi_source":""},{"t":65.496,"note":65,"dur":0.134,"vel":0.496,"inst":"banjo_v0_plucked_142","midi_source":""},{"t":65.54,"note":58,"dur":0.045,"vel":0.496,"inst":"xylophone_v0_plucked_129","midi_source":""},{"t":65.585,"note":61,"dur":0.045,"vel":0.496,"inst":"xylophone_v0_plucked_129","midi_source":""},{"t":65.63,"note":65,"dur":0.045,"vel":0.496,"inst":"banjo_v0_plucked_142","midi_source":""},{"t":65.63,"note":73,"dur":0.045,"vel":0.496,"inst":"xylophone_v0_plucked_129","midi_source":""},{"t":65.675,"note":67,"dur":0.045,"vel":0.496,"inst":"xylophone_v0_plucked_129","midi_source":""},{"t":65.675,"note":70,"dur":0.045,"vel":0.496,"inst":"xylophone_v0_plucked_129","midi_source":""},{"t":65.675,"note":82,"dur":0.045,"vel":0.496,"inst":"xylophone_v0_plucked_129","midi_source":""},{"t":65.675,"note":86,"dur":0.045,"vel":0.496,"inst":"banjo_v0_plucked_142","midi_source":""},{"t":65.719,"note":70,"dur":0.045,"vel":0.496,"inst":"xylophone_v0_plucked_129","midi_source":""},{"t":65.719,"note":73,"dur":0.045,"vel":0.496,"inst":"xylophone_v0_plucked_129","midi_source":""},{"t":65.719,"note":82,"dur":0.045,"vel":0.496,"inst":"xylophone_v0_plucked_129","midi_source":""},{"t":65.719,"note":85,"dur":0.045,"vel":0.496,"inst":"xylophone_v0_plucked_129","midi_source":""},{"t":65.764,"note":49,"dur":0.045,"vel":0.496,"inst":"xylophone_v0_plucked_129","midi_source":""},{"t":65.764,"note":73,"dur":0.067,"vel":0.496,"inst":"xylophone_v0_plucked_129","midi_source":""},{"t":65.764,"note":82,"dur":0.067,"vel":0.496,"inst":"xylophone_v0_plucked_129","midi_source":""},{"t":65.764,"note":85,"dur":0.067,"vel":0.496,"inst":"xylophone_v0_plucked_129","midi_source":""},{"t":65.809,"note":53,"dur":0.045,"vel":0.496,"inst":"banjo_v0_plucked_142","midi_source":""},{"t":65.831,"note":65,"dur":0.246,"vel":0.496,"inst":"banjo_v0_plucked_142","midi_source":""},{"t":65.831,"note":79,"dur":0.246,"vel":0.496,"inst":"xylophone_v0_plucked_129","midi_source":""},{"t":65.831,"note":82,"dur":0.246,"vel":0.496,"inst":"xylophone_v0_plucked_129","midi_source":""},{"t":65.853,"note":55,"dur":0.045,"vel":0.496,"inst":"xylophone_v0_plucked_129","midi_source":""},{"t":65.898,"note":58,"dur":0.045,"vel":0.496,"inst":"xylophone_v0_plucked_129","midi_source":""},{"t":65.943,"note":61,"dur":0.045,"vel":0.496,"inst":"xylophone_v0_plucked_129","midi_source":""},{"t":65.988,"note":65,"dur":0.045,"vel":0.496,"inst":"banjo_v0_plucked_142","midi_source":""},{"t":66.032,"note":67,"dur":0.045,"vel":0.496,"inst":"xylophone_v0_plucked_129","midi_source":""},{"t":66.077,"note":49,"dur":0.045,"vel":0.496,"inst":"xylophone_v0_plucked_129","midi_source":""},{"t":66.077,"note":82,"dur":0.045,"vel":0.496,"inst":"xylophone_v0_plucked_129","midi_source":""},{"t":66.077,"note":85,"dur":0.045,"vel":0.496,"inst":"xylophone_v0_plucked_129","midi_source":""},{"t":66.122,"note":53,"dur":0.045,"vel":0.496,"inst":"banjo_v0_plucked_142","midi_source":""},{"t":66.122,"note":73,"dur":0.02,"vel":0.496,"inst":"xylophone_v0_plucked_129","midi_source":""},{"t":66.122,"note":79,"dur":0.045,"vel":0.496,"inst":"xylophone_v0_plucked_129","midi_source":""},{"t":66.122,"note":82,"dur":0.045,"vel":0.496,"inst":"xylophone_v0_plucked_129","midi_source":""},{"t":66.167,"note":43,"dur":0.045,"vel":0.496,"inst":"xylophone_v0_plucked_129","midi_source":""},{"t":66.167,"note":73,"dur":0.067,"vel":0.496,"inst":"xylophone_v0_plucked_129","midi_source":""},{"t":66.167,"note":79,"dur":0.067,"vel":0.496,"inst":"xylophone_v0_plucked_129","midi_source":""},{"t":66.167,"note":82,"dur":0.067,"vel":0.496,"inst":"xylophone_v0_plucked_129","midi_source":""},{"t":66.211,"note":58,"dur":0.045,"vel":0.496,"inst":"xylophone_v0_plucked_129","midi_source":""},{"t":66.234,"note":61,"dur":0.246,"vel":0.496,"inst":"xylophone_v0_plucked_129","midi_source":""},{"t":66.234,"note":67,"dur":0.201,"vel":0.496,"inst":"xylophone_v0_plucked_129","midi_source":""},{"t":66.234,"note":82,"dur":0.246,"vel":0.496,"inst":"xylophone_v0_plucked_129","midi_source":""},{"t":66.256,"note":61,"dur":0.045,"vel":0.496,"inst":"xylophone_v0_plucked_129","midi_source":""},{"t":66.301,"note":65,"dur":0.045,"vel":0.496,"inst":"banjo_v0_plucked_142","midi_source":""},{"t":66.346,"note":55,"dur":0.045,"vel":0.496,"inst":"xylophone_v0_plucked_129","midi_source":""},{"t":66.39,"note":70,"dur":0.045,"vel":0.496,"inst":"xylophone_v0_plucked_129","midi_source":""},{"t":66.435,"note":73,"dur":0.045,"vel":0.496,"inst":"xylophone_v0_plucked_129","midi_source":""},{"t":66.435,"note":67,"dur":0.045,"vel":0.496,"inst":"xylophone_v0_plucked_129","midi_source":""},{"t":66.48,"note":43,"dur":0.045,"vel":0.496,"inst":"xylophone_v0_plucked_129","midi_source":""},{"t":66.48,"note":70,"dur":0.045,"vel":0.496,"inst":"xylophone_v0_plucked_129","midi_source":""},{"t":66.48,"note":85,"dur":0.045,"vel":0.496,"inst":"xylophone_v0_plucked_129","midi_source":""},{"t":66.524,"note":55,"dur":0.045,"vel":0.496,"inst":"xylophone_v0_plucked_129","midi_source":""},{"t":66.524,"note":65,"dur":0.045,"vel":0.496,"inst":"banjo_v0_plucked_142","midi_source":""},{"t":66.524,"note":73,"dur":0.02,"vel":0.496,"inst":"xylophone_v0_plucked_129","midi_source":""},{"t":66.524,"note":82,"dur":0.045,"vel":0.496,"inst":"xylophone_v0_plucked_129","midi_source":""},{"t":66.569,"note":46,"dur":0.045,"vel":0.496,"inst":"xylophone_v0_plucked_129","midi_source":""},{"t":66.569,"note":55,"dur":0.313,"vel":0.496,"inst":"xylophone_v0_plucked_129","midi_source":""},{"t":66.569,"note":73,"dur":0.313,"vel":0.496,"inst":"xylophone_v0_plucked_129","midi_source":""},{"t":66.569,"note":82,"dur":0.067,"vel":0.496,"inst":"xylophone_v0_plucked_129","midi_source":""},{"t":66.614,"note":49,"dur":0.045,"vel":0.496,"inst":"xylophone_v0_plucked_129","midi_source":""},{"t":66.636,"note":82,"dur":0.067,"vel":0.496,"inst":"xylophone_v0_plucked_129","midi_source":""},{"t":66.659,"note":43,"dur":0.045,"vel":0.496,"inst":"xylophone_v0_plucked_129","midi_source":""},{"t":66.703,"note":58,"dur":0.045,"vel":0.496,"inst":"xylophone_v0_plucked_129","midi_source":""},{"t":66.703,"note":79,"dur":0.067,"vel":0.496,"inst":"xylophone_v0_plucked_129","midi_source":""},{"t":66.748,"note":61,"dur":0.045,"vel":0.496,"inst":"xylophone_v0_plucked_129","midi_source":""},{"t":66.77,"note":67,"dur":0.067,"vel":0.496,"inst":"xylophone_v0_plucked_129","midi_source":""},{"t":66.793,"note":55,"dur":0.045,"vel":0.496,"inst":"xylophone_v0_plucked_129","midi_source":""},{"t":66.838,"note":70,"dur":0.045,"vel":0.496,"inst":"xylophone_v0_plucked_129","midi_source":""},{"t":66.838,"note":86,"dur":0.045,"vel":0.496,"inst":"banjo_v0_plucked_142","midi_source":""},{"t":66.882,"note":58,"dur":0.045,"vel":0.496,"inst":"xylophone_v0_plucked_129","midi_source":""},{"t":66.882,"note":55,"dur":0.045,"vel":0.496,"inst":"xylophone_v0_plucked_129","midi_source":""},{"t":66.882,"note":73,"dur":0.045,"vel":0.496,"inst":"xylophone_v0_plucked_129","midi_source":""},{"t":66.882,"note":85,"dur":0.045,"vel":0.496,"inst":"xylophone_v0_plucked_129","midi_source":""},{"t":66.927,"note":46,"dur":0.045,"vel":0.496,"inst":"xylophone_v0_plucked_129","midi_source":""},{"t":66.927,"note":55,"dur":0.045,"vel":0.496,"inst":"xylophone_v0_plucked_129","midi_source":""},{"t":66.927,"note":70,"dur":0.045,"vel":0.496,"inst":"xylophone_v0_plucked_129","midi_source":""},{"t":66.927,"note":74,"dur":0.045,"vel":0.496,"inst":"banjo_v0_plucked_142","midi_source":""},{"t":66.972,"note":43,"dur":0.045,"vel":0.496,"inst":"xylophone_v0_plucked_129","midi_source":""},{"t":66.972,"note":65,"dur":0.045,"vel":0.496,"inst":"banjo_v0_plucked_142","midi_source":""},{"t":66.972,"note":70,"dur":0.045,"vel":0.496,"inst":"xylophone_v0_plucked_129","midi_source":""},{"t":66.972,"note":67,"dur":0.034,"vel":0.496,"inst":"xylophone_v0_plucked_129","midi_source":""},{"t":67.005,"note":77,"dur":0.034,"vel":0.496,"inst":"banjo_v0_plucked_142","midi_source":""},{"t":67.017,"note":49,"dur":0.045,"vel":0.496,"inst":"xylophone_v0_plucked_129","midi_source":""},{"t":67.017,"note":65,"dur":0.045,"vel":0.496,"inst":"banjo_v0_plucked_142","midi_source":""},{"t":67.017,"note":70,"dur":0.045,"vel":0.496,"inst":"xylophone_v0_plucked_129","midi_source":""},{"t":67.039,"note":82,"dur":0.034,"vel":0.496,"inst":"xylophone_v0_plucked_129","midi_source":""},{"t":67.061,"note":46,"dur":0.045,"vel":0.496,"inst":"xylophone_v0_plucked_129","midi_source":""},{"t":67.061,"note":73,"dur":0.045,"vel":0.496,"inst":"xylophone_v0_plucked_129","midi_source":""},{"t":67.061,"note":77,"dur":0.045,"vel":0.496,"inst":"banjo_v0_plucked_142","midi_source":""},{"t":67.072,"note":82,"dur":0.034,"vel":0.496,"inst":"xylophone_v0_plucked_129","midi_source":""},{"t":67.106,"note":46,"dur":0.045,"vel":0.992,"inst":"xylophone_v0_plucked_129","midi_source":""},{"t":67.106,"note":70,"dur":0.045,"vel":0.992,"inst":"xylophone_v0_plucked_129","midi_source":""},{"t":67.106,"note":77,"dur":0.045,"vel":0.992,"inst":"banjo_v0_plucked_142","midi_source":""},{"t":67.106,"note":79,"dur":0.134,"vel":0.992,"inst":"xylophone_v0_plucked_129","midi_source":""},{"t":67.151,"note":58,"dur":0.045,"vel":0.992,"inst":"xylophone_v0_plucked_129","midi_source":""},{"t":67.151,"note":67,"dur":0.045,"vel":0.992,"inst":"xylophone_v0_plucked_129","midi_source":""},{"t":67.151,"note":70,"dur":0.045,"vel":0.992,"inst":"xylophone_v0_plucked_129","midi_source":""},{"t":67.195,"note":46,"dur":0.045,"vel":0.992,"inst":"xylophone_v0_plucked_129","midi_source":""},{"t":67.195,"note":65,"dur":0.045,"vel":0.992,"inst":"banjo_v0_plucked_142","midi_source":""},{"t":67.195,"note":67,"dur":0.045,"vel":0.992,"inst":"xylophone_v0_plucked_129","midi_source":""},{"t":67.24,"note":46,"dur":0.045,"vel":0.992,"inst":"xylophone_v0_plucked_129","midi_source":""},{"t":67.24,"note":62,"dur":0.045,"vel":0.992,"inst":"banjo_v0_plucked_142","midi_source":""},{"t":67.24,"note":70,"dur":0.045,"vel":0.992,"inst":"xylophone_v0_plucked_129","midi_source":""},{"t":67.24,"note":67,"dur":0.045,"vel":0.992,"inst":"xylophone_v0_plucked_129","midi_source":""},{"t":67.285,"note":85,"dur":0.045,"vel":0.992,"inst":"xylophone_v0_plucked_129","midi_source":""},{"t":67.33,"note":46,"dur":0.02,"vel":0.992,"inst":"xylophone_v0_plucked_129","midi_source":""},{"t":67.33,"note":62,"dur":0.02,"vel":0.992,"inst":"banjo_v0_plucked_142","midi_source":""},{"t":67.33,"note":70,"dur":0.02,"vel":0.992,"inst":"xylophone_v0_plucked_129","midi_source":""},{"t":67.33,"note":82,"dur":0.045,"vel":0.992,"inst":"xylophone_v0_plucked_129","midi_source":""},{"t":67.374,"note":53,"dur":0.045,"vel":0.496,"inst":"banjo_v0_plucked_142","midi_source":""},{"t":67.374,"note":65,"dur":0.067,"vel":0.496,"inst":"banjo_v0_plucked_142","midi_source":""},{"t":67.374,"note":67,"dur":0.134,"vel":0.496,"inst":"xylophone_v0_plucked_129","midi_source":""},{"t":67.374,"note":77,"dur":0.134,"vel":0.496,"inst":"banjo_v0_plucked_142","midi_source":""},{"t":67.419,"note":43,"dur":0.045,"vel":0.496,"inst":"xylophone_v0_plucked_129","midi_source":""},{"t":67.464,"note":55,"dur":0.045,"vel":0.496,"inst":"xylophone_v0_plucked_129","midi_source":""},{"t":67.509,"note":53,"dur":0.268,"vel":0.496,"inst":"banjo_v0_plucked_142","midi_source":""},{"t":67.509,"note":58,"dur":0.268,"vel":0.496,"inst":"xylophone_v0_plucked_129","midi_source":""},{"t":67.509,"note":61,"dur":0.045,"vel":0.496,"inst":"xylophone_v0_plucked_129","midi_source":""},{"t":67.509,"note":73,"dur":0.201,"vel":0.496,"inst":"xylophone_v0_plucked_129","midi_source":""},{"t":67.553,"note":62,"dur":0.045,"vel":0.496,"inst":"banjo_v0_plucked_142","midi_source":""},{"t":67.598,"note":65,"dur":0.045,"vel":0.496,"inst":"banjo_v0_plucked_142","midi_source":""},{"t":67.643,"note":55,"dur":0.045,"vel":0.496,"inst":"xylophone_v0_plucked_129","midi_source":""},{"t":67.643,"note":55,"dur":0.134,"vel":0.496,"inst":"xylophone_v0_plucked_129","midi_source":""},{"t":67.688,"note":67,"dur":0.045,"vel":0.496,"inst":"xylophone_v0_plucked_129","midi_source":""},{"t":67.71,"note":67,"dur":0.067,"vel":0.496,"inst":"xylophone_v0_plucked_129","midi_source":""},{"t":67.732,"note":70,"dur":0.045,"vel":0.496,"inst":"xylophone_v0_plucked_129","midi_source":""},{"t":67.777,"note":53,"dur":0.045,"vel":0.496,"inst":"banjo_v0_plucked_142","midi_source":""},{"t":67.777,"note":58,"dur":0.045,"vel":0.496,"inst":"xylophone_v0_plucked_129","midi_source":""},{"t":67.777,"note":55,"dur":0.403,"vel":0.496,"inst":"xylophone_v0_plucked_129","midi_source":""},{"t":67.777,"note":70,"dur":0.403,"vel":0.496,"inst":"xylophone_v0_plucked_129","midi_source":""},{"t":67.777,"note":77,"dur":0.134,"vel":0.496,"inst":"banjo_v0_plucked_142","midi_source":""},{"t":67.866,"note":53,"dur":0.02,"vel":0.496,"inst":"banjo_v0_plucked_142","midi_source":""},{"t":67.866,"note":58,"dur":0.02,"vel":0.496,"inst":"xylophone_v0_plucked_129","midi_source":""},{"t":67.911,"note":58,"dur":0.045,"vel":0.496,"inst":"xylophone_v0_plucked_129","midi_source":""},{"t":67.911,"note":67,"dur":0.168,"vel":0.496,"inst":"xylophone_v0_plucked_129","midi_source":""},{"t":67.956,"note":60,"dur":0.045,"vel":0.496,"inst":"pad_string_v0_bass_416","midi_source":""},{"t":68.001,"note":62,"dur":0.045,"vel":0.496,"inst":"banjo_v0_plucked_142","midi_source":""},{"t":68.045,"note":49,"dur":0.134,"vel":0.496,"inst":"xylophone_v0_plucked_129","midi_source":""},{"t":68.045,"note":65,"dur":0.134,"vel":0.496,"inst":"banjo_v0_plucked_142","midi_source":""},{"t":68.045,"note":70,"dur":0.045,"vel":0.496,"inst":"xylophone_v0_plucked_129","midi_source":""},{"t":68.079,"note":79,"dur":0.034,"vel":0.496,"inst":"xylophone_v0_plucked_129","midi_source":""},{"t":68.09,"note":73,"dur":0.045,"vel":0.496,"inst":"xylophone_v0_plucked_129","midi_source":""},{"t":68.113,"note":79,"dur":0.034,"vel":0.496,"inst":"xylophone_v0_plucked_129","midi_source":""},{"t":68.135,"note":77,"dur":0.045,"vel":0.496,"inst":"banjo_v0_plucked_142","midi_source":""},{"t":68.146,"note":82,"dur":0.034,"vel":0.496,"inst":"xylophone_v0_plucked_129","midi_source":""},{"t":68.18,"note":48,"dur":0.045,"vel":0.496,"inst":"pad_string_v0_bass_416","midi_source":""},{"t":68.18,"note":62,"dur":0.045,"vel":0.496,"inst":"banjo_v0_plucked_142","midi_source":""},{"t":68.18,"note":74,"dur":0.045,"vel":0.496,"inst":"banjo_v0_plucked_142","midi_source":""},{"t":68.18,"note":79,"dur":0.179,"vel":0.496,"inst":"xylophone_v0_plucked_129","midi_source":""},{"t":68.224,"note":50,"dur":0.045,"vel":0.496,"inst":"banjo_v0_plucked_142","midi_source":""},{"t":68.269,"note":55,"dur":0.045,"vel":0.496,"inst":"xylophone_v0_plucked_129","midi_source":""},{"t":68.269,"note":55,"dur":0.02,"vel":0.496,"inst":"xylophone_v0_plucked_129","midi_source":""},{"t":68.269,"note":67,"dur":0.02,"vel":0.496,"inst":"xylophone_v0_plucked_129","midi_source":""},{"t":68.314,"note":49,"dur":0.045,"vel":0.496,"inst":"xylophone_v0_plucked_129","midi_source":""},{"t":68.314,"note":65,"dur":0.045,"vel":0.496,"inst":"banjo_v0_plucked_142","midi_source":""},{"t":68.314,"note":67,"dur":0.045,"vel":0.496,"inst":"xylophone_v0_plucked_129","midi_source":""},{"t":68.359,"note":50,"dur":0.045,"vel":0.496,"inst":"banjo_v0_plucked_142","midi_source":""},{"t":68.359,"note":55,"dur":0.045,"vel":0.496,"inst":"xylophone_v0_plucked_129","midi_source":""},{"t":68.359,"note":72,"dur":0.045,"vel":0.496,"inst":"pad_string_v0_bass_416","midi_source":""},{"t":68.359,"note":67,"dur":0.045,"vel":0.496,"inst":"xylophone_v0_plucked_129","midi_source":""},{"t":68.403,"note":53,"dur":0.045,"vel":0.496,"inst":"banjo_v0_plucked_142","midi_source":""},{"t":68.403,"note":67,"dur":0.045,"vel":0.496,"inst":"xylophone_v0_plucked_129","midi_source":""},{"t":68.403,"note":73,"dur":0.045,"vel":0.496,"inst":"xylophone_v0_plucked_129","midi_source":""},{"t":68.403,"note":77,"dur":0.045,"vel":0.496,"inst":"banjo_v0_plucked_142","midi_source":""},{"t":68.448,"note":43,"dur":0.045,"vel":0.496,"inst":"xylophone_v0_plucked_129","midi_source":""},{"t":68.448,"note":55,"dur":0.045,"vel":0.496,"inst":"xylophone_v0_plucked_129","midi_source":""},{"t":68.448,"note":70,"dur":0.045,"vel":0.496,"inst":"xylophone_v0_plucked_129","midi_source":""},{"t":68.448,"note":74,"dur":0.045,"vel":0.496,"inst":"banjo_v0_plucked_142","midi_source":""},{"t":68.493,"note":61,"dur":0.045,"vel":0.496,"inst":"xylophone_v0_plucked_129","midi_source":""},{"t":68.493,"note":77,"dur":0.045,"vel":0.496,"inst":"banjo_v0_plucked_142","midi_source":""},{"t":68.537,"note":43,"dur":0.02,"vel":0.496,"inst":"xylophone_v0_plucked_129","midi_source":""},{"t":68.537,"note":65,"dur":0.045,"vel":0.496,"inst":"banjo_v0_plucked_142","midi_source":""},{"t":68.537,"note":70,"dur":0.02,"vel":0.496,"inst":"xylophone_v0_plucked_129","midi_source":""},{"t":68.537,"note":73,"dur":0.045,"vel":0.496,"inst":"xylophone_v0_plucked_129","midi_source":""},{"t":68.582,"note":46,"dur":0.045,"vel":0.496,"inst":"xylophone_v0_plucked_129","midi_source":""},{"t":68.582,"note":65,"dur":0.045,"vel":0.496,"inst":"banjo_v0_plucked_142","midi_source":""},{"t":68.582,"note":70,"dur":0.045,"vel":0.496,"inst":"xylophone_v0_plucked_129","midi_source":""},{"t":68.582,"note":73,"dur":0.134,"vel":0.496,"inst":"xylophone_v0_plucked_129","midi_source":""},{"t":68.627,"note":43,"dur":0.045,"vel":0.496,"inst":"xylophone_v0_plucked_129","midi_source":""},{"t":68.627,"note":65,"dur":0.045,"vel":0.496,"inst":"banjo_v0_plucked_142","midi_source":""},{"t":68.627,"note":55,"dur":0.045,"vel":0.496,"inst":"xylophone_v0_plucked_129","midi_source":""},{"t":68.672,"note":58,"dur":0.045,"vel":0.496,"inst":"xylophone_v0_plucked_129","midi_source":""},{"t":68.672,"note":65,"dur":0.045,"vel":0.496,"inst":"banjo_v0_plucked_142","midi_source":""},{"t":68.672,"note":55,"dur":0.045,"vel":0.496,"inst":"xylophone_v0_plucked_129","midi_source":""},{"t":68.716,"note":58,"dur":0.268,"vel":0.496,"inst":"xylophone_v0_plucked_129","midi_source":""},{"t":68.716,"note":62,"dur":0.045,"vel":0.496,"inst":"banjo_v0_plucked_142","midi_source":""},{"t":68.716,"note":55,"dur":0.179,"vel":0.496,"inst":"xylophone_v0_plucked_129","midi_source":""},{"t":68.716,"note":70,"dur":0.134,"vel":0.496,"inst":"xylophone_v0_plucked_129","midi_source":""},{"t":68.761,"note":55,"dur":0.045,"vel":0.496,"inst":"xylophone_v0_plucked_129","midi_source":""},{"t":68.806,"note":70,"dur":0.045,"vel":0.496,"inst":"xylophone_v0_plucked_129","midi_source":""},{"t":68.851,"note":70,"dur":0.045,"vel":0.496,"inst":"xylophone_v0_plucked_129","midi_source":""},{"t":68.895,"note":62,"dur":0.045,"vel":0.496,"inst":"banjo_v0_plucked_142","midi_source":""},{"t":68.895,"note":55,"dur":0.045,"vel":0.496,"inst":"xylophone_v0_plucked_129","midi_source":""},{"t":68.94,"note":61,"dur":0.045,"vel":0.496,"inst":"xylophone_v0_plucked_129","midi_source":""},{"t":68.94,"note":65,"dur":0.045,"vel":0.496,"inst":"banjo_v0_plucked_142","midi_source":""},{"t":68.985,"note":58,"dur":0.045,"vel":0.496,"inst":"xylophone_v0_plucked_129","midi_source":""},{"t":68.985,"note":58,"dur":0.134,"vel":0.496,"inst":"xylophone_v0_plucked_129","midi_source":""},{"t":68.985,"note":62,"dur":0.134,"vel":0.496,"inst":"banjo_v0_plucked_142","midi_source":""},{"t":69.03,"note":62,"dur":0.045,"vel":0.496,"inst":"banjo_v0_plucked_142","midi_source":""},{"t":69.074,"note":55,"dur":0.045,"vel":0.496,"inst":"xylophone_v0_plucked_129","midi_source":""},{"t":69.119,"note":55,"dur":0.134,"vel":0.496,"inst":"xylophone_v0_plucked_129","midi_source":""},{"t":69.119,"note":58,"dur":0.045,"vel":0.496,"inst":"xylophone_v0_plucked_129","midi_source":""},{"t":69.119,"note":65,"dur":0.134,"vel":0.496,"inst":"banjo_v0_plucked_142","midi_source":""},{"t":69.119,"note":70,"dur":0.313,"vel":0.496,"inst":"xylophone_v0_plucked_129","midi_source":""},{"t":69.164,"note":62,"dur":0.045,"vel":0.496,"inst":"banjo_v0_plucked_142","midi_source":""},{"t":69.208,"note":67,"dur":0.045,"vel":0.496,"inst":"xylophone_v0_plucked_129","midi_source":""},{"t":69.253,"note":43,"dur":0.134,"vel":0.496,"inst":"xylophone_v0_plucked_129","midi_source":""},{"t":69.253,"note":55,"dur":0.045,"vel":0.496,"inst":"xylophone_v0_plucked_129","midi_source":""},{"t":69.253,"note":70,"dur":0.134,"vel":0.496,"inst":"xylophone_v0_plucked_129","midi_source":""},{"t":69.298,"note":70,"dur":0.045,"vel":0.496,"inst":"xylophone_v0_plucked_129","midi_source":""},{"t":69.343,"note":74,"dur":0.045,"vel":0.496,"inst":"banjo_v0_plucked_142","midi_source":""},{"t":69.387,"note":53,"dur":0.313,"vel":0.496,"inst":"banjo_v0_plucked_142","midi_source":""},{"t":69.387,"note":67,"dur":0.313,"vel":0.496,"inst":"xylophone_v0_plucked_129","midi_source":""},{"t":69.387,"note":77,"dur":0.313,"vel":0.496,"inst":"banjo_v0_plucked_142","midi_source":""},{"t":69.432,"note":65,"dur":0.045,"vel":0.496,"inst":"banjo_v0_plucked_142","midi_source":""},{"t":69.477,"note":55,"dur":0.045,"vel":0.496,"inst":"xylophone_v0_plucked_129","midi_source":""},{"t":69.522,"note":67,"dur":0.045,"vel":0.496,"inst":"xylophone_v0_plucked_129","midi_source":""},{"t":69.566,"note":70,"dur":0.045,"vel":0.496,"inst":"xylophone_v0_plucked_129","midi_source":""},{"t":69.611,"note":77,"dur":0.045,"vel":0.496,"inst":"banjo_v0_plucked_142","midi_source":""},{"t":69.656,"note":79,"dur":0.045,"vel":0.496,"inst":"xylophone_v0_plucked_129","midi_source":""},{"t":69.701,"note":46,"dur":0.045,"vel":0.496,"inst":"xylophone_v0_plucked_129","midi_source":""},{"t":69.701,"note":67,"dur":0.045,"vel":0.496,"inst":"xylophone_v0_plucked_129","midi_source":""},{"t":69.701,"note":70,"dur":0.045,"vel":0.496,"inst":"xylophone_v0_plucked_129","midi_source":""},{"t":69.701,"note":82,"dur":0.045,"vel":0.496,"inst":"xylophone_v0_plucked_129","midi_source":""},{"t":69.745,"note":49,"dur":0.045,"vel":0.496,"inst":"xylophone_v0_plucked_129","midi_source":""},{"t":69.745,"note":55,"dur":0.045,"vel":0.496,"inst":"xylophone_v0_plucked_129","midi_source":""},{"t":69.745,"note":70,"dur":0.045,"vel":0.496,"inst":"xylophone_v0_plucked_129","midi_source":""},{"t":69.745,"note":82,"dur":0.045,"vel":0.496,"inst":"xylophone_v0_plucked_129","midi_source":""},{"t":69.79,"note":50,"dur":0.067,"vel":0.496,"inst":"banjo_v0_plucked_142","midi_source":""},{"t":69.79,"note":65,"dur":0.134,"vel":0.496,"inst":"banjo_v0_plucked_142","midi_source":""},{"t":69.79,"note":67,"dur":0.134,"vel":0.496,"inst":"xylophone_v0_plucked_129","midi_source":""},{"t":69.79,"note":79,"dur":0.134,"vel":0.496,"inst":"xylophone_v0_plucked_129","midi_source":""},{"t":69.857,"note":58,"dur":0.067,"vel":0.496,"inst":"xylophone_v0_plucked_129","midi_source":""},{"t":69.924,"note":49,"dur":0.134,"vel":0.496,"inst":"xylophone_v0_plucked_129","midi_source":""},{"t":69.924,"note":58,"dur":0.045,"vel":0.496,"inst":"xylophone_v0_plucked_129","midi_source":""},{"t":69.924,"note":65,"dur":0.134,"vel":0.496,"inst":"banjo_v0_plucked_142","midi_source":""},{"t":69.924,"note":82,"dur":0.134,"vel":0.496,"inst":"xylophone_v0_plucked_129","midi_source":""},{"t":69.969,"note":61,"dur":0.045,"vel":0.496,"inst":"xylophone_v0_plucked_129","midi_source":""},{"t":70.014,"note":65,"dur":0.045,"vel":0.496,"inst":"banjo_v0_plucked_142","midi_source":""},{"t":70.058,"note":46,"dur":0.134,"vel":0.496,"inst":"xylophone_v0_plucked_129","midi_source":""},{"t":70.058,"note":62,"dur":0.134,"vel":0.496,"inst":"banjo_v0_plucked_142","midi_source":""},{"t":70.058,"note":67,"dur":0.045,"vel":0.496,"inst":"xylophone_v0_plucked_129","midi_source":""},{"t":70.058,"note":82,"dur":0.134,"vel":0.496,"inst":"xylophone_v0_plucked_129","midi_source":""},{"t":70.103,"note":70,"dur":0.045,"vel":0.496,"inst":"xylophone_v0_plucked_129","midi_source":""},{"t":70.148,"note":77,"dur":0.045,"vel":0.496,"inst":"banjo_v0_plucked_142","midi_source":""},{"t":70.193,"note":46,"dur":0.045,"vel":0.496,"inst":"xylophone_v0_plucked_129","midi_source":""},{"t":70.193,"note":61,"dur":0.134,"vel":0.496,"inst":"xylophone_v0_plucked_129","midi_source":""},{"t":70.193,"note":77,"dur":0.067,"vel":0.496,"inst":"banjo_v0_plucked_142","midi_source":""},{"t":70.193,"note":85,"dur":0.313,"vel":0.496,"inst":"xylophone_v0_plucked_129","midi_source":""},{"t":70.238,"note":49,"dur":0.045,"vel":0.496,"inst":"xylophone_v0_plucked_129","midi_source":""},{"t":70.26,"note":82,"dur":0.246,"vel":0.496,"inst":"xylophone_v0_plucked_129","midi_source":""},{"t":70.282,"note":53,"dur":0.045,"vel":0.496,"inst":"banjo_v0_plucked_142","midi_source":""},{"t":70.327,"note":55,"dur":0.045,"vel":0.496,"inst":"xylophone_v0_plucked_129","midi_source":""},{"t":70.327,"note":65,"dur":0.134,"vel":0.496,"inst":"banjo_v0_plucked_142","midi_source":""},{"t":70.372,"note":58,"dur":0.045,"vel":0.496,"inst":"xylophone_v0_plucked_129","midi_source":""},{"t":70.416,"note":61,"dur":0.045,"vel":0.496,"inst":"xylophone_v0_plucked_129","midi_source":""},{"t":70.461,"note":65,"dur":0.045,"vel":0.496,"inst":"banjo_v0_plucked_142","midi_source":""},{"t":70.461,"note":73,"dur":0.045,"vel":0.496,"inst":"xylophone_v0_plucked_129","midi_source":""},{"t":70.506,"note":67,"dur":0.045,"vel":0.496,"inst":"xylophone_v0_plucked_129","midi_source":""},{"t":70.506,"note":70,"dur":0.045,"vel":0.496,"inst":"xylophone_v0_plucked_129","midi_source":""},{"t":70.506,"note":82,"dur":0.045,"vel":0.496,"inst":"xylophone_v0_plucked_129","midi_source":""},{"t":70.506,"note":86,"dur":0.045,"vel":0.496,"inst":"banjo_v0_plucked_142","midi_source":""},{"t":70.55,"note":70,"dur":0.045,"vel":0.496,"inst":"xylophone_v0_plucked_129","midi_source":""},{"t":70.55,"note":73,"dur":0.045,"vel":0.496,"inst":"xylophone_v0_plucked_129","midi_source":""},{"t":70.55,"note":82,"dur":0.045,"vel":0.496,"inst":"xylophone_v0_plucked_129","midi_source":""},{"t":70.55,"note":85,"dur":0.045,"vel":0.496,"inst":"xylophone_v0_plucked_129","midi_source":""},{"t":70.595,"note":49,"dur":0.045,"vel":0.496,"inst":"xylophone_v0_plucked_129","midi_source":""},{"t":70.595,"note":73,"dur":0.067,"vel":0.496,"inst":"xylophone_v0_plucked_129","midi_source":""},{"t":70.595,"note":82,"dur":0.067,"vel":0.496,"inst":"xylophone_v0_plucked_129","midi_source":""},{"t":70.595,"note":85,"dur":0.067,"vel":0.496,"inst":"xylophone_v0_plucked_129","midi_source":""},{"t":70.64,"note":53,"dur":0.045,"vel":0.496,"inst":"banjo_v0_plucked_142","midi_source":""},{"t":70.662,"note":65,"dur":0.246,"vel":0.496,"inst":"banjo_v0_plucked_142","midi_source":""},{"t":70.662,"note":79,"dur":0.246,"vel":0.496,"inst":"xylophone_v0_plucked_129","midi_source":""},{"t":70.662,"note":82,"dur":0.246,"vel":0.496,"inst":"xylophone_v0_plucked_129","midi_source":""},{"t":70.685,"note":55,"dur":0.045,"vel":0.496,"inst":"xylophone_v0_plucked_129","midi_source":""},{"t":70.73,"note":58,"dur":0.045,"vel":0.496,"inst":"xylophone_v0_plucked_129","midi_source":""},{"t":70.774,"note":61,"dur":0.045,"vel":0.496,"inst":"xylophone_v0_plucked_129","midi_source":""},{"t":70.819,"note":65,"dur":0.045,"vel":0.496,"inst":"banjo_v0_plucked_142","midi_source":""},{"t":70.864,"note":67,"dur":0.045,"vel":0.496,"inst":"xylophone_v0_plucked_129","midi_source":""},{"t":70.909,"note":49,"dur":0.045,"vel":0.496,"inst":"xylophone_v0_plucked_129","midi_source":""},{"t":70.909,"note":82,"dur":0.045,"vel":0.496,"inst":"xylophone_v0_plucked_129","midi_source":""},{"t":70.909,"note":85,"dur":0.045,"vel":0.496,"inst":"xylophone_v0_plucked_129","midi_source":""},{"t":70.953,"note":53,"dur":0.045,"vel":0.496,"inst":"banjo_v0_plucked_142","midi_source":""},{"t":70.953,"note":73,"dur":0.02,"vel":0.496,"inst":"xylophone_v0_plucked_129","midi_source":""},{"t":70.953,"note":79,"dur":0.045,"vel":0.496,"inst":"xylophone_v0_plucked_129","midi_source":""},{"t":70.953,"note":82,"dur":0.045,"vel":0.496,"inst":"xylophone_v0_plucked_129","midi_source":""},{"t":70.998,"note":43,"dur":0.045,"vel":0.496,"inst":"xylophone_v0_plucked_129","midi_source":""},{"t":70.998,"note":73,"dur":0.067,"vel":0.496,"inst":"xylophone_v0_plucked_129","midi_source":""},{"t":70.998,"note":79,"dur":0.067,"vel":0.496,"inst":"xylophone_v0_plucked_129","midi_source":""},{"t":70.998,"note":82,"dur":0.067,"vel":0.496,"inst":"xylophone_v0_plucked_129","midi_source":""},{"t":71.043,"note":58,"dur":0.045,"vel":0.496,"inst":"xylophone_v0_plucked_129","midi_source":""},{"t":71.065,"note":61,"dur":0.246,"vel":0.496,"inst":"xylophone_v0_plucked_129","midi_source":""},{"t":71.065,"note":67,"dur":0.201,"vel":0.496,"inst":"xylophone_v0_plucked_129","midi_source":""},{"t":71.065,"note":82,"dur":0.246,"vel":0.496,"inst":"xylophone_v0_plucked_129","midi_source":""},{"t":71.087,"note":61,"dur":0.045,"vel":0.496,"inst":"xylophone_v0_plucked_129","midi_source":""},{"t":71.132,"note":65,"dur":0.045,"vel":0.496,"inst":"banjo_v0_plucked_142","midi_source":""},{"t":71.177,"note":55,"dur":0.045,"vel":0.496,"inst":"xylophone_v0_plucked_129","midi_source":""},{"t":71.222,"note":70,"dur":0.045,"vel":0.496,"inst":"xylophone_v0_plucked_129","midi_source":""},{"t":71.266,"note":73,"dur":0.045,"vel":0.496,"inst":"xylophone_v0_plucked_129","midi_source":""},{"t":71.266,"note":67,"dur":0.045,"vel":0.496,"inst":"xylophone_v0_plucked_129","midi_source":""},{"t":71.311,"note":43,"dur":0.045,"vel":0.496,"inst":"xylophone_v0_plucked_129","midi_source":""},{"t":71.311,"note":70,"dur":0.045,"vel":0.496,"inst":"xylophone_v0_plucked_129","midi_source":""},{"t":71.311,"note":85,"dur":0.045,"vel":0.496,"inst":"xylophone_v0_plucked_129","midi_source":""},{"t":71.356,"note":55,"dur":0.045,"vel":0.496,"inst":"xylophone_v0_plucked_129","midi_source":""},{"t":71.356,"note":65,"dur":0.045,"vel":0.496,"inst":"banjo_v0_plucked_142","midi_source":""},{"t":71.356,"note":73,"dur":0.02,"vel":0.496,"inst":"xylophone_v0_plucked_129","midi_source":""},{"t":71.356,"note":82,"dur":0.045,"vel":0.496,"inst":"xylophone_v0_plucked_129","midi_source":""},{"t":71.401,"note":46,"dur":0.045,"vel":0.496,"inst":"xylophone_v0_plucked_129","midi_source":""},{"t":71.401,"note":55,"dur":0.313,"vel":0.496,"inst":"xylophone_v0_plucked_129","midi_source":""},{"t":71.401,"note":73,"dur":0.313,"vel":0.496,"inst":"xylophone_v0_plucked_129","midi_source":""},{"t":71.401,"note":82,"dur":0.067,"vel":0.496,"inst":"xylophone_v0_plucked_129","midi_source":""},{"t":71.445,"note":49,"dur":0.045,"vel":0.496,"inst":"xylophone_v0_plucked_129","midi_source":""},{"t":71.468,"note":82,"dur":0.067,"vel":0.496,"inst":"xylophone_v0_plucked_129","midi_source":""},{"t":71.49,"note":43,"dur":0.045,"vel":0.496,"inst":"xylophone_v0_plucked_129","midi_source":""},{"t":71.535,"note":58,"dur":0.045,"vel":0.496,"inst":"xylophone_v0_plucked_129","midi_source":""},{"t":71.535,"note":79,"dur":0.067,"vel":0.496,"inst":"xylophone_v0_plucked_129","midi_source":""},{"t":71.58,"note":61,"dur":0.045,"vel":0.496,"inst":"xylophone_v0_plucked_129","midi_source":""},{"t":71.602,"note":67,"dur":0.067,"vel":0.496,"inst":"xylophone_v0_plucked_129","midi_source":""},{"t":71.624,"note":55,"dur":0.045,"vel":0.496,"inst":"xylophone_v0_plucked_129","midi_source":""},{"t":71.669,"note":70,"dur":0.045,"vel":0.496,"inst":"xylophone_v0_plucked_129","midi_source":""},{"t":71.669,"note":86,"dur":0.045,"vel":0.496,"inst":"banjo_v0_plucked_142","midi_source":""},{"t":71.714,"note":58,"dur":0.045,"vel":0.496,"inst":"xylophone_v0_plucked_129","midi_source":""},{"t":71.714,"note":55,"dur":0.045,"vel":0.496,"inst":"xylophone_v0_plucked_129","midi_source":""},{"t":71.714,"note":73,"dur":0.045,"vel":0.496,"inst":"xylophone_v0_plucked_129","midi_source":""},{"t":71.714,"note":85,"dur":0.045,"vel":0.496,"inst":"xylophone_v0_plucked_129","midi_source":""},{"t":71.758,"note":46,"dur":0.045,"vel":0.496,"inst":"xylophone_v0_plucked_129","midi_source":""},{"t":71.758,"note":55,"dur":0.045,"vel":0.496,"inst":"xylophone_v0_plucked_129","midi_source":""},{"t":71.758,"note":70,"dur":0.045,"vel":0.496,"inst":"xylophone_v0_plucked_129","midi_source":""},{"t":71.758,"note":74,"dur":0.045,"vel":0.496,"inst":"banjo_v0_plucked_142","midi_source":""},{"t":71.803,"note":43,"dur":0.045,"vel":0.496,"inst":"xylophone_v0_plucked_129","midi_source":""},{"t":71.803,"note":65,"dur":0.045,"vel":0.496,"inst":"banjo_v0_plucked_142","midi_source":""},{"t":71.803,"note":70,"dur":0.045,"vel":0.496,"inst":"xylophone_v0_plucked_129","midi_source":""},{"t":71.803,"note":67,"dur":0.034,"vel":0.496,"inst":"xylophone_v0_plucked_129","midi_source":""},{"t":71.837,"note":77,"dur":0.034,"vel":0.496,"inst":"banjo_v0_plucked_142","midi_source":""},{"t":71.848,"note":49,"dur":0.045,"vel":0.496,"inst":"xylophone_v0_plucked_129","midi_source":""},{"t":71.848,"note":65,"dur":0.045,"vel":0.496,"inst":"banjo_v0_plucked_142","midi_source":""},{"t":71.848,"note":70,"dur":0.045,"vel":0.496,"inst":"xylophone_v0_plucked_129","midi_source":""},{"t":71.87,"note":82,"dur":0.034,"vel":0.496,"inst":"xylophone_v0_plucked_129","midi_source":""},{"t":71.893,"note":46,"dur":0.045,"vel":0.496,"inst":"xylophone_v0_plucked_129","midi_source":""},{"t":71.893,"note":73,"dur":0.045,"vel":0.496,"inst":"xylophone_v0_plucked_129","midi_source":""},{"t":71.893,"note":77,"dur":0.045,"vel":0.496,"inst":"banjo_v0_plucked_142","midi_source":""},{"t":71.904,"note":82,"dur":0.034,"vel":0.496,"inst":"xylophone_v0_plucked_129","midi_source":""},{"t":71.937,"note":46,"dur":0.045,"vel":0.992,"inst":"xylophone_v0_plucked_129","midi_source":""},{"t":71.937,"note":70,"dur":0.045,"vel":0.992,"inst":"xylophone_v0_plucked_129","midi_source":""},{"t":71.937,"note":77,"dur":0.045,"vel":0.992,"inst":"banjo_v0_plucked_142","midi_source":""},{"t":71.937,"note":79,"dur":0.134,"vel":0.992,"inst":"xylophone_v0_plucked_129","midi_source":""},{"t":71.982,"note":58,"dur":0.045,"vel":0.992,"inst":"xylophone_v0_plucked_129","midi_source":""},{"t":71.982,"note":67,"dur":0.045,"vel":0.992,"inst":"xylophone_v0_plucked_129","midi_source":""},{"t":71.982,"note":70,"dur":0.045,"vel":0.992,"inst":"xylophone_v0_plucked_129","midi_source":""},{"t":72.027,"note":46,"dur":0.045,"vel":0.992,"inst":"xylophone_v0_plucked_129","midi_source":""},{"t":72.027,"note":65,"dur":0.045,"vel":0.992,"inst":"banjo_v0_plucked_142","midi_source":""},{"t":72.027,"note":67,"dur":0.045,"vel":0.992,"inst":"xylophone_v0_plucked_129","midi_source":""},{"t":72.072,"note":46,"dur":0.045,"vel":0.992,"inst":"xylophone_v0_plucked_129","midi_source":""},{"t":72.072,"note":62,"dur":0.045,"vel":0.992,"inst":"banjo_v0_plucked_142","midi_source":""},{"t":72.072,"note":70,"dur":0.045,"vel":0.992,"inst":"xylophone_v0_plucked_129","midi_source":""},{"t":72.072,"note":67,"dur":0.045,"vel":0.992,"inst":"xylophone_v0_plucked_129","midi_source":""},{"t":72.116,"note":85,"dur":0.045,"vel":0.992,"inst":"xylophone_v0_plucked_129","midi_source":""},{"t":72.161,"note":46,"dur":0.02,"vel":0.992,"inst":"xylophone_v0_plucked_129","midi_source":""},{"t":72.161,"note":62,"dur":0.02,"vel":0.992,"inst":"banjo_v0_plucked_142","midi_source":""},{"t":72.161,"note":70,"dur":0.02,"vel":0.992,"inst":"xylophone_v0_plucked_129","midi_source":""},{"t":72.161,"note":82,"dur":0.045,"vel":0.992,"inst":"xylophone_v0_plucked_129","midi_source":""},{"t":72.206,"note":53,"dur":0.045,"vel":0.496,"inst":"banjo_v0_plucked_142","midi_source":""},{"t":72.206,"note":65,"dur":0.067,"vel":0.496,"inst":"banjo_v0_plucked_142","midi_source":""},{"t":72.206,"note":67,"dur":0.134,"vel":0.496,"inst":"xylophone_v0_plucked_129","midi_source":""},{"t":72.206,"note":77,"dur":0.134,"vel":0.496,"inst":"banjo_v0_plucked_142","midi_source":""},{"t":72.251,"note":43,"dur":0.045,"vel":0.496,"inst":"xylophone_v0_plucked_129","midi_source":""},{"t":72.295,"note":55,"dur":0.045,"vel":0.496,"inst":"xylophone_v0_plucked_129","midi_source":""},{"t":72.34,"note":53,"dur":0.268,"vel":0.496,"inst":"banjo_v0_plucked_142","midi_source":""},{"t":72.34,"note":58,"dur":0.268,"vel":0.496,"inst":"xylophone_v0_plucked_129","midi_source":""},{"t":72.34,"note":61,"dur":0.045,"vel":0.496,"inst":"xylophone_v0_plucked_129","midi_source":""},{"t":72.34,"note":73,"dur":0.201,"vel":0.496,"inst":"xylophone_v0_plucked_129","midi_source":""},{"t":72.385,"note":62,"dur":0.045,"vel":0.496,"inst":"banjo_v0_plucked_142","midi_source":""},{"t":72.429,"note":65,"dur":0.045,"vel":0.496,"inst":"banjo_v0_plucked_142","midi_source":""},{"t":72.474,"note":55,"dur":0.045,"vel":0.496,"inst":"xylophone_v0_plucked_129","midi_source":""},{"t":72.474,"note":55,"dur":0.134,"vel":0.496,"inst":"xylophone_v0_plucked_129","midi_source":""},{"t":72.519,"note":67,"dur":0.045,"vel":0.496,"inst":"xylophone_v0_plucked_129","midi_source":""},{"t":72.541,"note":67,"dur":0.067,"vel":0.496,"inst":"xylophone_v0_plucked_129","midi_source":""},{"t":72.564,"note":70,"dur":0.045,"vel":0.496,"inst":"xylophone_v0_plucked_129","midi_source":""},{"t":72.608,"note":53,"dur":0.045,"vel":0.496,"inst":"banjo_v0_plucked_142","midi_source":""},{"t":72.608,"note":58,"dur":0.045,"vel":0.496,"inst":"xylophone_v0_plucked_129","midi_source":""},{"t":72.608,"note":55,"dur":0.403,"vel":0.496,"inst":"xylophone_v0_plucked_129","midi_source":""},{"t":72.608,"note":70,"dur":0.403,"vel":0.496,"inst":"xylophone_v0_plucked_129","midi_source":""},{"t":72.608,"note":77,"dur":0.134,"vel":0.496,"inst":"banjo_v0_plucked_142","midi_source":""},{"t":72.698,"note":53,"dur":0.02,"vel":0.496,"inst":"banjo_v0_plucked_142","midi_source":""},{"t":72.698,"note":58,"dur":0.02,"vel":0.496,"inst":"xylophone_v0_plucked_129","midi_source":""},{"t":72.743,"note":58,"dur":0.045,"vel":0.496,"inst":"xylophone_v0_plucked_129","midi_source":""},{"t":72.743,"note":67,"dur":0.168,"vel":0.496,"inst":"xylophone_v0_plucked_129","midi_source":""},{"t":72.787,"note":60,"dur":0.045,"vel":0.496,"inst":"pad_string_v0_bass_416","midi_source":""},{"t":72.832,"note":62,"dur":0.045,"vel":0.496,"inst":"banjo_v0_plucked_142","midi_source":""},{"t":72.877,"note":49,"dur":0.134,"vel":0.496,"inst":"xylophone_v0_plucked_129","midi_source":""},{"t":72.877,"note":65,"dur":0.134,"vel":0.496,"inst":"banjo_v0_plucked_142","midi_source":""},{"t":72.877,"note":70,"dur":0.045,"vel":0.496,"inst":"xylophone_v0_plucked_129","midi_source":""},{"t":72.91,"note":79,"dur":0.034,"vel":0.496,"inst":"xylophone_v0_plucked_129","midi_source":""},{"t":72.922,"note":73,"dur":0.045,"vel":0.496,"inst":"xylophone_v0_plucked_129","midi_source":""},{"t":72.944,"note":79,"dur":0.034,"vel":0.496,"inst":"xylophone_v0_plucked_129","midi_source":""},{"t":72.966,"note":77,"dur":0.045,"vel":0.496,"inst":"banjo_v0_plucked_142","midi_source":""},{"t":72.977,"note":82,"dur":0.034,"vel":0.496,"inst":"xylophone_v0_plucked_129","midi_source":""},{"t":73.011,"note":48,"dur":0.045,"vel":0.496,"inst":"pad_string_v0_bass_416","midi_source":""},{"t":73.011,"note":62,"dur":0.045,"vel":0.496,"inst":"banjo_v0_plucked_142","midi_source":""},{"t":73.011,"note":74,"dur":0.045,"vel":0.496,"inst":"banjo_v0_plucked_142","midi_source":""},{"t":73.011,"note":79,"dur":0.179,"vel":0.496,"inst":"xylophone_v0_plucked_129","midi_source":""},{"t":73.056,"note":50,"dur":0.045,"vel":0.496,"inst":"banjo_v0_plucked_142","midi_source":""},{"t":73.1,"note":55,"dur":0.045,"vel":0.496,"inst":"xylophone_v0_plucked_129","midi_source":""},{"t":73.1,"note":55,"dur":0.02,"vel":0.496,"inst":"xylophone_v0_plucked_129","midi_source":""},{"t":73.1,"note":67,"dur":0.02,"vel":0.496,"inst":"xylophone_v0_plucked_129","midi_source":""},{"t":73.145,"note":49,"dur":0.045,"vel":0.496,"inst":"xylophone_v0_plucked_129","midi_source":""},{"t":73.145,"note":65,"dur":0.045,"vel":0.496,"inst":"banjo_v0_plucked_142","midi_source":""},{"t":73.145,"note":67,"dur":0.045,"vel":0.496,"inst":"xylophone_v0_plucked_129","midi_source":""},{"t":73.19,"note":50,"dur":0.045,"vel":0.496,"inst":"banjo_v0_plucked_142","midi_source":""},{"t":73.19,"note":55,"dur":0.045,"vel":0.496,"inst":"xylophone_v0_plucked_129","midi_source":""},{"t":73.19,"note":72,"dur":0.045,"vel":0.496,"inst":"pad_string_v0_bass_416","midi_source":""},{"t":73.19,"note":67,"dur":0.045,"vel":0.496,"inst":"xylophone_v0_plucked_129","midi_source":""},{"t":73.235,"note":53,"dur":0.045,"vel":0.496,"inst":"banjo_v0_plucked_142","midi_source":""},{"t":73.235,"note":67,"dur":0.045,"vel":0.496,"inst":"xylophone_v0_plucked_129","midi_source":""},{"t":73.235,"note":73,"dur":0.045,"vel":0.496,"inst":"xylophone_v0_plucked_129","midi_source":""},{"t":73.235,"note":77,"dur":0.045,"vel":0.496,"inst":"banjo_v0_plucked_142","midi_source":""},{"t":73.279,"note":43,"dur":0.045,"vel":0.496,"inst":"xylophone_v0_plucked_129","midi_source":""},{"t":73.279,"note":55,"dur":0.045,"vel":0.496,"inst":"xylophone_v0_plucked_129","midi_source":""},{"t":73.279,"note":70,"dur":0.045,"vel":0.496,"inst":"xylophone_v0_plucked_129","midi_source":""},{"t":73.279,"note":74,"dur":0.045,"vel":0.496,"inst":"banjo_v0_plucked_142","midi_source":""},{"t":73.324,"note":61,"dur":0.045,"vel":0.496,"inst":"xylophone_v0_plucked_129","midi_source":""},{"t":73.324,"note":77,"dur":0.045,"vel":0.496,"inst":"banjo_v0_plucked_142","midi_source":""},{"t":73.369,"note":43,"dur":0.02,"vel":0.496,"inst":"xylophone_v0_plucked_129","midi_source":""},{"t":73.369,"note":65,"dur":0.045,"vel":0.496,"inst":"banjo_v0_plucked_142","midi_source":""},{"t":73.369,"note":70,"dur":0.02,"vel":0.496,"inst":"xylophone_v0_plucked_129","midi_source":""},{"t":73.369,"note":73,"dur":0.045,"vel":0.496,"inst":"xylophone_v0_plucked_129","midi_source":""},{"t":73.414,"note":46,"dur":0.045,"vel":0.496,"inst":"xylophone_v0_plucked_129","midi_source":""},{"t":73.414,"note":65,"dur":0.045,"vel":0.496,"inst":"banjo_v0_plucked_142","midi_source":""},{"t":73.414,"note":70,"dur":0.045,"vel":0.496,"inst":"xylophone_v0_plucked_129","midi_source":""},{"t":73.414,"note":73,"dur":0.134,"vel":0.496,"inst":"xylophone_v0_plucked_129","midi_source":""},{"t":73.458,"note":43,"dur":0.045,"vel":0.496,"inst":"xylophone_v0_plucked_129","midi_source":""},{"t":73.458,"note":65,"dur":0.045,"vel":0.496,"inst":"banjo_v0_plucked_142","midi_source":""},{"t":73.458,"note":55,"dur":0.045,"vel":0.496,"inst":"xylophone_v0_plucked_129","midi_source":""},{"t":73.503,"note":58,"dur":0.045,"vel":0.496,"inst":"xylophone_v0_plucked_129","midi_source":""},{"t":73.503,"note":65,"dur":0.045,"vel":0.496,"inst":"banjo_v0_plucked_142","midi_source":""},{"t":73.503,"note":55,"dur":0.045,"vel":0.496,"inst":"xylophone_v0_plucked_129","midi_source":""},{"t":73.548,"note":58,"dur":0.268,"vel":0.496,"inst":"xylophone_v0_plucked_129","midi_source":""},{"t":73.548,"note":62,"dur":0.045,"vel":0.496,"inst":"banjo_v0_plucked_142","midi_source":""},{"t":73.548,"note":55,"dur":0.179,"vel":0.496,"inst":"xylophone_v0_plucked_129","midi_source":""},{"t":73.548,"note":70,"dur":0.134,"vel":0.496,"inst":"xylophone_v0_plucked_129","midi_source":""},{"t":73.593,"note":55,"dur":0.045,"vel":0.496,"inst":"xylophone_v0_plucked_129","midi_source":""},{"t":73.637,"note":70,"dur":0.045,"vel":0.496,"inst":"xylophone_v0_plucked_129","midi_source":""},{"t":73.682,"note":70,"dur":0.045,"vel":0.496,"inst":"xylophone_v0_plucked_129","midi_source":""},{"t":73.727,"note":62,"dur":0.045,"vel":0.496,"inst":"banjo_v0_plucked_142","midi_source":""},{"t":73.727,"note":55,"dur":0.045,"vel":0.496,"inst":"xylophone_v0_plucked_129","midi_source":""},{"t":73.771,"note":61,"dur":0.045,"vel":0.496,"inst":"xylophone_v0_plucked_129","midi_source":""},{"t":73.771,"note":65,"dur":0.045,"vel":0.496,"inst":"banjo_v0_plucked_142","midi_source":""},{"t":73.816,"note":58,"dur":0.045,"vel":0.496,"inst":"xylophone_v0_plucked_129","midi_source":""},{"t":73.816,"note":58,"dur":0.134,"vel":0.496,"inst":"xylophone_v0_plucked_129","midi_source":""},{"t":73.816,"note":62,"dur":0.134,"vel":0.496,"inst":"banjo_v0_plucked_142","midi_source":""},{"t":73.861,"note":62,"dur":0.045,"vel":0.496,"inst":"banjo_v0_plucked_142","midi_source":""},{"t":73.906,"note":55,"dur":0.045,"vel":0.496,"inst":"xylophone_v0_plucked_129","midi_source":""},{"t":73.95,"note":55,"dur":0.134,"vel":0.496,"inst":"xylophone_v0_plucked_129","midi_source":""},{"t":73.95,"note":58,"dur":0.045,"vel":0.496,"inst":"xylophone_v0_plucked_129","midi_source":""},{"t":73.95,"note":65,"dur":0.134,"vel":0.496,"inst":"banjo_v0_plucked_142","midi_source":""},{"t":73.95,"note":70,"dur":0.313,"vel":0.496,"inst":"xylophone_v0_plucked_129","midi_source":""},{"t":73.995,"note":62,"dur":0.045,"vel":0.496,"inst":"banjo_v0_plucked_142","midi_source":""},{"t":74.04,"note":67,"dur":0.045,"vel":0.496,"inst":"xylophone_v0_plucked_129","midi_source":""},{"t":74.085,"note":43,"dur":0.134,"vel":0.496,"inst":"xylophone_v0_plucked_129","midi_source":""},{"t":74.085,"note":55,"dur":0.045,"vel":0.496,"inst":"xylophone_v0_plucked_129","midi_source":""},{"t":74.085,"note":70,"dur":0.134,"vel":0.496,"inst":"xylophone_v0_plucked_129","midi_source":""},{"t":74.129,"note":70,"dur":0.045,"vel":0.496,"inst":"xylophone_v0_plucked_129","midi_source":""},{"t":74.174,"note":74,"dur":0.045,"vel":0.496,"inst":"banjo_v0_plucked_142","midi_source":""},{"t":74.219,"note":53,"dur":0.313,"vel":0.496,"inst":"banjo_v0_plucked_142","midi_source":""},{"t":74.219,"note":67,"dur":0.313,"vel":0.496,"inst":"xylophone_v0_plucked_129","midi_source":""},{"t":74.219,"note":77,"dur":0.313,"vel":0.496,"inst":"banjo_v0_plucked_142","midi_source":""},{"t":74.264,"note":65,"dur":0.045,"vel":0.496,"inst":"banjo_v0_plucked_142","midi_source":""},{"t":74.308,"note":55,"dur":0.045,"vel":0.496,"inst":"xylophone_v0_plucked_129","midi_source":""},{"t":74.353,"note":67,"dur":0.045,"vel":0.496,"inst":"xylophone_v0_plucked_129","midi_source":""},{"t":74.398,"note":70,"dur":0.045,"vel":0.496,"inst":"xylophone_v0_plucked_129","midi_source":""},{"t":74.442,"note":77,"dur":0.045,"vel":0.496,"inst":"banjo_v0_plucked_142","midi_source":""},{"t":74.487,"note":79,"dur":0.045,"vel":0.496,"inst":"xylophone_v0_plucked_129","midi_source":""},{"t":74.532,"note":46,"dur":0.045,"vel":0.496,"inst":"xylophone_v0_plucked_129","midi_source":""},{"t":74.532,"note":67,"dur":0.045,"vel":0.496,"inst":"xylophone_v0_plucked_129","midi_source":""},{"t":74.532,"note":70,"dur":0.045,"vel":0.496,"inst":"xylophone_v0_plucked_129","midi_source":""},{"t":74.532,"note":82,"dur":0.045,"vel":0.496,"inst":"xylophone_v0_plucked_129","midi_source":""},{"t":74.577,"note":49,"dur":0.045,"vel":0.496,"inst":"xylophone_v0_plucked_129","midi_source":""},{"t":74.577,"note":55,"dur":0.045,"vel":0.496,"inst":"xylophone_v0_plucked_129","midi_source":""},{"t":74.577,"note":70,"dur":0.045,"vel":0.496,"inst":"xylophone_v0_plucked_129","midi_source":""},{"t":74.577,"note":82,"dur":0.045,"vel":0.496,"inst":"xylophone_v0_plucked_129","midi_source":""},{"t":74.621,"note":50,"dur":0.067,"vel":0.496,"inst":"banjo_v0_plucked_142","midi_source":""},{"t":74.621,"note":65,"dur":0.134,"vel":0.496,"inst":"banjo_v0_plucked_142","midi_source":""},{"t":74.621,"note":67,"dur":0.134,"vel":0.496,"inst":"xylophone_v0_plucked_129","midi_source":""},{"t":74.621,"note":79,"dur":0.134,"vel":0.496,"inst":"xylophone_v0_plucked_129","midi_source":""},{"t":74.689,"note":58,"dur":0.067,"vel":0.496,"inst":"xylophone_v0_plucked_129","midi_source":""},{"t":74.756,"note":49,"dur":0.134,"vel":0.496,"inst":"xylophone_v0_plucked_129","midi_source":""},{"t":74.756,"note":58,"dur":0.045,"vel":0.496,"inst":"xylophone_v0_plucked_129","midi_source":""},{"t":74.756,"note":65,"dur":0.134,"vel":0.496,"inst":"banjo_v0_plucked_142","midi_source":""},{"t":74.756,"note":82,"dur":0.134,"vel":0.496,"inst":"xylophone_v0_plucked_129","midi_source":""},{"t":74.8,"note":61,"dur":0.045,"vel":0.496,"inst":"xylophone_v0_plucked_129","midi_source":""},{"t":74.845,"note":65,"dur":0.045,"vel":0.496,"inst":"banjo_v0_plucked_142","midi_source":""},{"t":74.89,"note":46,"dur":0.134,"vel":0.496,"inst":"xylophone_v0_plucked_129","midi_source":""},{"t":74.89,"note":62,"dur":0.134,"vel":0.496,"inst":"banjo_v0_plucked_142","midi_source":""},{"t":74.89,"note":67,"dur":0.045,"vel":0.496,"inst":"xylophone_v0_plucked_129","midi_source":""},{"t":74.89,"note":82,"dur":0.134,"vel":0.496,"inst":"xylophone_v0_plucked_129","midi_source":""},{"t":74.935,"note":70,"dur":0.045,"vel":0.496,"inst":"xylophone_v0_plucked_129","midi_source":""},{"t":74.979,"note":77,"dur":0.045,"vel":0.496,"inst":"banjo_v0_plucked_142","midi_source":""},{"t":75.024,"note":46,"dur":0.045,"vel":0.496,"inst":"xylophone_v0_plucked_129","midi_source":""},{"t":75.024,"note":61,"dur":0.134,"vel":0.496,"inst":"xylophone_v0_plucked_129","midi_source":""},{"t":75.024,"note":77,"dur":0.067,"vel":0.496,"inst":"banjo_v0_plucked_142","midi_source":""},{"t":75.024,"note":85,"dur":0.313,"vel":0.496,"inst":"xylophone_v0_plucked_129","midi_source":""},{"t":75.069,"note":49,"dur":0.045,"vel":0.496,"inst":"xylophone_v0_plucked_129","midi_source":""},{"t":75.091,"note":82,"dur":0.246,"vel":0.496,"inst":"xylophone_v0_plucked_129","midi_source":""},{"t":75.113,"note":53,"dur":0.045,"vel":0.496,"inst":"banjo_v0_plucked_142","midi_source":""},{"t":75.158,"note":55,"dur":0.045,"vel":0.496,"inst":"xylophone_v0_plucked_129","midi_source":""},{"t":75.158,"note":65,"dur":0.134,"vel":0.496,"inst":"banjo_v0_plucked_142","midi_source":""},{"t":75.203,"note":58,"dur":0.045,"vel":0.496,"inst":"xylophone_v0_plucked_129","midi_source":""},{"t":75.248,"note":61,"dur":0.045,"vel":0.496,"inst":"xylophone_v0_plucked_129","midi_source":""},{"t":75.292,"note":65,"dur":0.045,"vel":0.496,"inst":"banjo_v0_plucked_142","midi_source":""},{"t":75.292,"note":73,"dur":0.045,"vel":0.496,"inst":"xylophone_v0_plucked_129","midi_source":""},{"t":75.337,"note":67,"dur":0.045,"vel":0.496,"inst":"xylophone_v0_plucked_129","midi_source":""},{"t":75.337,"note":70,"dur":0.045,"vel":0.496,"inst":"xylophone_v0_plucked_129","midi_source":""},{"t":75.337,"note":82,"dur":0.045,"vel":0.496,"inst":"xylophone_v0_plucked_129","midi_source":""},{"t":75.337,"note":86,"dur":0.045,"vel":0.496,"inst":"banjo_v0_plucked_142","midi_source":""},{"t":75.382,"note":70,"dur":0.045,"vel":0.496,"inst":"xylophone_v0_plucked_129","midi_source":""},{"t":75.382,"note":73,"dur":0.045,"vel":0.496,"inst":"xylophone_v0_plucked_129","midi_source":""},{"t":75.382,"note":82,"dur":0.045,"vel":0.496,"inst":"xylophone_v0_plucked_129","midi_source":""},{"t":75.382,"note":85,"dur":0.045,"vel":0.496,"inst":"xylophone_v0_plucked_129","midi_source":""},{"t":75.427,"note":49,"dur":0.045,"vel":0.496,"inst":"xylophone_v0_plucked_129","midi_source":""},{"t":75.427,"note":73,"dur":0.067,"vel":0.496,"inst":"xylophone_v0_plucked_129","midi_source":""},{"t":75.427,"note":82,"dur":0.067,"vel":0.496,"inst":"xylophone_v0_plucked_129","midi_source":""},{"t":75.427,"note":85,"dur":0.067,"vel":0.496,"inst":"xylophone_v0_plucked_129","midi_source":""},{"t":75.472,"note":53,"dur":0.045,"vel":0.496,"inst":"banjo_v0_plucked_142","midi_source":""},{"t":75.494,"note":65,"dur":0.246,"vel":0.496,"inst":"banjo_v0_plucked_142","midi_source":""},{"t":75.494,"note":79,"dur":0.246,"vel":0.496,"inst":"xylophone_v0_plucked_129","midi_source":""},{"t":75.494,"note":82,"dur":0.246,"vel":0.496,"inst":"xylophone_v0_plucked_129","midi_source":""},{"t":75.516,"note":55,"dur":0.045,"vel":0.496,"inst":"xylophone_v0_plucked_129","midi_source":""},{"t":75.561,"note":58,"dur":0.045,"vel":0.496,"inst":"xylophone_v0_plucked_129","midi_source":""},{"t":75.606,"note":61,"dur":0.045,"vel":0.496,"inst":"xylophone_v0_plucked_129","midi_source":""},{"t":75.65,"note":65,"dur":0.045,"vel":0.496,"inst":"banjo_v0_plucked_142","midi_source":""},{"t":75.695,"note":67,"dur":0.045,"vel":0.496,"inst":"xylophone_v0_plucked_129","midi_source":""},{"t":75.74,"note":49,"dur":0.045,"vel":0.496,"inst":"xylophone_v0_plucked_129","midi_source":""},{"t":75.74,"note":82,"dur":0.045,"vel":0.496,"inst":"xylophone_v0_plucked_129","midi_source":""},{"t":75.74,"note":85,"dur":0.045,"vel":0.496,"inst":"xylophone_v0_plucked_129","midi_source":""},{"t":75.784,"note":53,"dur":0.045,"vel":0.496,"inst":"banjo_v0_plucked_142","midi_source":""},{"t":75.784,"note":73,"dur":0.02,"vel":0.496,"inst":"xylophone_v0_plucked_129","midi_source":""},{"t":75.784,"note":79,"dur":0.045,"vel":0.496,"inst":"xylophone_v0_plucked_129","midi_source":""},{"t":75.784,"note":82,"dur":0.045,"vel":0.496,"inst":"xylophone_v0_plucked_129","midi_source":""},{"t":75.829,"note":43,"dur":0.045,"vel":0.496,"inst":"xylophone_v0_plucked_129","midi_source":""},{"t":75.829,"note":73,"dur":0.067,"vel":0.496,"inst":"xylophone_v0_plucked_129","midi_source":""},{"t":75.829,"note":79,"dur":0.067,"vel":0.496,"inst":"xylophone_v0_plucked_129","midi_source":""},{"t":75.829,"note":82,"dur":0.067,"vel":0.496,"inst":"xylophone_v0_plucked_129","midi_source":""},{"t":75.874,"note":58,"dur":0.045,"vel":0.496,"inst":"xylophone_v0_plucked_129","midi_source":""},{"t":75.896,"note":61,"dur":0.246,"vel":0.496,"inst":"xylophone_v0_plucked_129","midi_source":""},{"t":75.896,"note":67,"dur":0.201,"vel":0.496,"inst":"xylophone_v0_plucked_129","midi_source":""},{"t":75.896,"note":82,"dur":0.246,"vel":0.496,"inst":"xylophone_v0_plucked_129","midi_source":""},{"t":75.919,"note":61,"dur":0.045,"vel":0.496,"inst":"xylophone_v0_plucked_129","midi_source":""},{"t":75.963,"note":65,"dur":0.045,"vel":0.496,"inst":"banjo_v0_plucked_142","midi_source":""},{"t":76.008,"note":55,"dur":0.045,"vel":0.496,"inst":"xylophone_v0_plucked_129","midi_source":""},{"t":76.053,"note":70,"dur":0.045,"vel":0.496,"inst":"xylophone_v0_plucked_129","midi_source":""},{"t":76.098,"note":73,"dur":0.045,"vel":0.496,"inst":"xylophone_v0_plucked_129","midi_source":""},{"t":76.098,"note":67,"dur":0.045,"vel":0.496,"inst":"xylophone_v0_plucked_129","midi_source":""},{"t":76.143,"note":43,"dur":0.045,"vel":0.496,"inst":"xylophone_v0_plucked_129","midi_source":""},{"t":76.143,"note":70,"dur":0.045,"vel":0.496,"inst":"xylophone_v0_plucked_129","midi_source":""},{"t":76.143,"note":85,"dur":0.045,"vel":0.496,"inst":"xylophone_v0_plucked_129","midi_source":""},{"t":76.187,"note":55,"dur":0.045,"vel":0.496,"inst":"xylophone_v0_plucked_129","midi_source":""},{"t":76.187,"note":65,"dur":0.045,"vel":0.496,"inst":"banjo_v0_plucked_142","midi_source":""},{"t":76.187,"note":73,"dur":0.02,"vel":0.496,"inst":"xylophone_v0_plucked_129","midi_source":""},{"t":76.187,"note":82,"dur":0.045,"vel":0.496,"inst":"xylophone_v0_plucked_129","midi_source":""},{"t":76.232,"note":46,"dur":0.045,"vel":0.496,"inst":"xylophone_v0_plucked_129","midi_source":""},{"t":76.232,"note":55,"dur":0.313,"vel":0.496,"inst":"xylophone_v0_plucked_129","midi_source":""},{"t":76.232,"note":73,"dur":0.313,"vel":0.496,"inst":"xylophone_v0_plucked_129","midi_source":""},{"t":76.232,"note":82,"dur":0.067,"vel":0.496,"inst":"xylophone_v0_plucked_129","midi_source":""},{"t":76.277,"note":49,"dur":0.045,"vel":0.496,"inst":"xylophone_v0_plucked_129","midi_source":""},{"t":76.299,"note":82,"dur":0.067,"vel":0.496,"inst":"xylophone_v0_plucked_129","midi_source":""},{"t":76.321,"note":43,"dur":0.045,"vel":0.496,"inst":"xylophone_v0_plucked_129","midi_source":""},{"t":76.366,"note":58,"dur":0.045,"vel":0.496,"inst":"xylophone_v0_plucked_129","midi_source":""},{"t":76.366,"note":79,"dur":0.067,"vel":0.496,"inst":"xylophone_v0_plucked_129","midi_source":""},{"t":76.411,"note":61,"dur":0.045,"vel":0.496,"inst":"xylophone_v0_plucked_129","midi_source":""},{"t":76.433,"note":67,"dur":0.067,"vel":0.496,"inst":"xylophone_v0_plucked_129","midi_source":""},{"t":76.455,"note":55,"dur":0.045,"vel":0.496,"inst":"xylophone_v0_plucked_129","midi_source":""},{"t":76.5,"note":70,"dur":0.045,"vel":0.496,"inst":"xylophone_v0_plucked_129","midi_source":""},{"t":76.5,"note":86,"dur":0.045,"vel":0.496,"inst":"banjo_v0_plucked_142","midi_source":""},{"t":76.545,"note":58,"dur":0.045,"vel":0.496,"inst":"xylophone_v0_plucked_129","midi_source":""},{"t":76.545,"note":55,"dur":0.045,"vel":0.496,"inst":"xylophone_v0_plucked_129","midi_source":""},{"t":76.545,"note":73,"dur":0.045,"vel":0.496,"inst":"xylophone_v0_plucked_129","midi_source":""},{"t":76.545,"note":85,"dur":0.045,"vel":0.496,"inst":"xylophone_v0_plucked_129","midi_source":""},{"t":76.59,"note":46,"dur":0.045,"vel":0.496,"inst":"xylophone_v0_plucked_129","midi_source":""},{"t":76.59,"note":55,"dur":0.045,"vel":0.496,"inst":"xylophone_v0_plucked_129","midi_source":""},{"t":76.59,"note":70,"dur":0.045,"vel":0.496,"inst":"xylophone_v0_plucked_129","midi_source":""},{"t":76.59,"note":74,"dur":0.045,"vel":0.496,"inst":"banjo_v0_plucked_142","midi_source":""},{"t":76.635,"note":43,"dur":0.045,"vel":0.496,"inst":"xylophone_v0_plucked_129","midi_source":""},{"t":76.635,"note":65,"dur":0.045,"vel":0.496,"inst":"banjo_v0_plucked_142","midi_source":""},{"t":76.635,"note":70,"dur":0.045,"vel":0.496,"inst":"xylophone_v0_plucked_129","midi_source":""},{"t":76.635,"note":67,"dur":0.034,"vel":0.496,"inst":"xylophone_v0_plucked_129","midi_source":""},{"t":76.668,"note":77,"dur":0.034,"vel":0.496,"inst":"banjo_v0_plucked_142","midi_source":""},{"t":76.679,"note":49,"dur":0.045,"vel":0.496,"inst":"xylophone_v0_plucked_129","midi_source":""},{"t":76.679,"note":65,"dur":0.045,"vel":0.496,"inst":"banjo_v0_plucked_142","midi_source":""},{"t":76.679,"note":70,"dur":0.045,"vel":0.496,"inst":"xylophone_v0_plucked_129","midi_source":""},{"t":76.702,"note":82,"dur":0.034,"vel":0.496,"inst":"xylophone_v0_plucked_129","midi_source":""},{"t":76.724,"note":46,"dur":0.045,"vel":0.496,"inst":"xylophone_v0_plucked_129","midi_source":""},{"t":76.724,"note":73,"dur":0.045,"vel":0.496,"inst":"xylophone_v0_plucked_129","midi_source":""},{"t":76.724,"note":77,"dur":0.045,"vel":0.496,"inst":"banjo_v0_plucked_142","midi_source":""},{"t":76.735,"note":82,"dur":0.034,"vel":0.496,"inst":"xylophone_v0_plucked_129","midi_source":""},{"t":76.769,"note":46,"dur":0.045,"vel":0.992,"inst":"xylophone_v0_plucked_129","midi_source":""},{"t":76.769,"note":70,"dur":0.045,"vel":0.992,"inst":"xylophone_v0_plucked_129","midi_source":""},{"t":76.769,"note":77,"dur":0.045,"vel":0.992,"inst":"banjo_v0_plucked_142","midi_source":""},{"t":76.769,"note":79,"dur":0.134,"vel":0.992,"inst":"xylophone_v0_plucked_129","midi_source":""},{"t":76.814,"note":58,"dur":0.045,"vel":0.992,"inst":"xylophone_v0_plucked_129","midi_source":""},{"t":76.814,"note":67,"dur":0.045,"vel":0.992,"inst":"xylophone_v0_plucked_129","midi_source":""},{"t":76.814,"note":70,"dur":0.045,"vel":0.992,"inst":"xylophone_v0_plucked_129","midi_source":""},{"t":76.858,"note":46,"dur":0.045,"vel":0.992,"inst":"xylophone_v0_plucked_129","midi_source":""},{"t":76.858,"note":65,"dur":0.045,"vel":0.992,"inst":"banjo_v0_plucked_142","midi_source":""},{"t":76.858,"note":67,"dur":0.045,"vel":0.992,"inst":"xylophone_v0_plucked_129","midi_source":""},{"t":76.903,"note":46,"dur":0.045,"vel":0.992,"inst":"xylophone_v0_plucked_129","midi_source":""},{"t":76.903,"note":62,"dur":0.045,"vel":0.992,"inst":"banjo_v0_plucked_142","midi_source":""},{"t":76.903,"note":70,"dur":0.045,"vel":0.992,"inst":"xylophone_v0_plucked_129","midi_source":""},{"t":76.903,"note":67,"dur":0.045,"vel":0.992,"inst":"xylophone_v0_plucked_129","midi_source":""},{"t":76.948,"note":85,"dur":0.045,"vel":0.992,"inst":"xylophone_v0_plucked_129","midi_source":""},{"t":76.992,"note":46,"dur":0.02,"vel":0.992,"inst":"xylophone_v0_plucked_129","midi_source":""},{"t":76.992,"note":62,"dur":0.02,"vel":0.992,"inst":"banjo_v0_plucked_142","midi_source":""},{"t":76.992,"note":70,"dur":0.02,"vel":0.992,"inst":"xylophone_v0_plucked_129","midi_source":""},{"t":76.992,"note":82,"dur":0.045,"vel":0.992,"inst":"xylophone_v0_plucked_129","midi_source":""},{"t":77.037,"note":53,"dur":0.045,"vel":0.496,"inst":"banjo_v0_plucked_142","midi_source":""},{"t":77.037,"note":65,"dur":0.067,"vel":0.496,"inst":"banjo_v0_plucked_142","midi_source":""},{"t":77.037,"note":67,"dur":0.134,"vel":0.496,"inst":"xylophone_v0_plucked_129","midi_source":""},{"t":77.037,"note":77,"dur":0.134,"vel":0.496,"inst":"banjo_v0_plucked_142","midi_source":""},{"t":77.082,"note":43,"dur":0.045,"vel":0.496,"inst":"xylophone_v0_plucked_129","midi_source":""},{"t":77.127,"note":55,"dur":0.045,"vel":0.496,"inst":"xylophone_v0_plucked_129","midi_source":""},{"t":77.171,"note":53,"dur":0.268,"vel":0.496,"inst":"banjo_v0_plucked_142","midi_source":""},{"t":77.171,"note":58,"dur":0.268,"vel":0.496,"inst":"xylophone_v0_plucked_129","midi_source":""},{"t":77.171,"note":61,"dur":0.045,"vel":0.496,"inst":"xylophone_v0_plucked_129","midi_source":""},{"t":77.171,"note":73,"dur":0.201,"vel":0.496,"inst":"xylophone_v0_plucked_129","midi_source":""},{"t":77.216,"note":62,"dur":0.045,"vel":0.496,"inst":"banjo_v0_plucked_142","midi_source":""},{"t":77.261,"note":65,"dur":0.045,"vel":0.496,"inst":"banjo_v0_plucked_142","midi_source":""},{"t":77.306,"note":55,"dur":0.045,"vel":0.496,"inst":"xylophone_v0_plucked_129","midi_source":""},{"t":77.306,"note":55,"dur":0.134,"vel":0.496,"inst":"xylophone_v0_plucked_129","midi_source":""},{"t":77.35,"note":67,"dur":0.045,"vel":0.496,"inst":"xylophone_v0_plucked_129","midi_source":""},{"t":77.373,"note":67,"dur":0.067,"vel":0.496,"inst":"xylophone_v0_plucked_129","midi_source":""},{"t":77.395,"note":70,"dur":0.045,"vel":0.496,"inst":"xylophone_v0_plucked_129","midi_source":""},{"t":77.44,"note":53,"dur":0.045,"vel":0.496,"inst":"banjo_v0_plucked_142","midi_source":""},{"t":77.44,"note":58,"dur":0.045,"vel":0.496,"inst":"xylophone_v0_plucked_129","midi_source":""},{"t":77.44,"note":55,"dur":0.403,"vel":0.496,"inst":"xylophone_v0_plucked_129","midi_source":""},{"t":77.44,"note":70,"dur":0.403,"vel":0.496,"inst":"xylophone_v0_plucked_129","midi_source":""},{"t":77.44,"note":77,"dur":0.134,"vel":0.496,"inst":"banjo_v0_plucked_142","midi_source":""},{"t":77.529,"note":53,"dur":0.02,"vel":0.496,"inst":"banjo_v0_plucked_142","midi_source":""},{"t":77.529,"note":58,"dur":0.02,"vel":0.496,"inst":"xylophone_v0_plucked_129","midi_source":""},{"t":77.574,"note":58,"dur":0.045,"vel":0.496,"inst":"xylophone_v0_plucked_129","midi_source":""},{"t":77.574,"note":67,"dur":0.168,"vel":0.496,"inst":"xylophone_v0_plucked_129","midi_source":""},{"t":77.619,"note":60,"dur":0.045,"vel":0.496,"inst":"pad_string_v0_bass_416","midi_source":""},{"t":77.663,"note":62,"dur":0.045,"vel":0.496,"inst":"banjo_v0_plucked_142","midi_source":""},{"t":77.708,"note":49,"dur":0.134,"vel":0.496,"inst":"xylophone_v0_plucked_129","midi_source":""},{"t":77.708,"note":65,"dur":0.134,"vel":0.496,"inst":"banjo_v0_plucked_142","midi_source":""},{"t":77.708,"note":70,"dur":0.045,"vel":0.496,"inst":"xylophone_v0_plucked_129","midi_source":""},{"t":77.742,"note":79,"dur":0.034,"vel":0.496,"inst":"xylophone_v0_plucked_129","midi_source":""},{"t":77.753,"note":73,"dur":0.045,"vel":0.496,"inst":"xylophone_v0_plucked_129","midi_source":""},{"t":77.775,"note":79,"dur":0.034,"vel":0.496,"inst":"xylophone_v0_plucked_129","midi_source":""},{"t":77.798,"note":77,"dur":0.045,"vel":0.496,"inst":"banjo_v0_plucked_142","midi_source":""},{"t":77.809,"note":82,"dur":0.034,"vel":0.496,"inst":"xylophone_v0_plucked_129","midi_source":""},{"t":77.842,"note":48,"dur":0.045,"vel":0.496,"inst":"pad_string_v0_bass_416","midi_source":""},{"t":77.842,"note":62,"dur":0.045,"vel":0.496,"inst":"banjo_v0_plucked_142","midi_source":""},{"t":77.842,"note":74,"dur":0.045,"vel":0.496,"inst":"banjo_v0_plucked_142","midi_source":""},{"t":77.842,"note":79,"dur":0.179,"vel":0.496,"inst":"xylophone_v0_plucked_129","midi_source":""},{"t":77.887,"note":50,"dur":0.045,"vel":0.496,"inst":"banjo_v0_plucked_142","midi_source":""},{"t":77.932,"note":55,"dur":0.045,"vel":0.496,"inst":"xylophone_v0_plucked_129","midi_source":""},{"t":77.932,"note":55,"dur":0.02,"vel":0.496,"inst":"xylophone_v0_plucked_129","midi_source":""},{"t":77.932,"note":67,"dur":0.02,"vel":0.496,"inst":"xylophone_v0_plucked_129","midi_source":""},{"t":77.977,"note":49,"dur":0.045,"vel":0.496,"inst":"xylophone_v0_plucked_129","midi_source":""},{"t":77.977,"note":65,"dur":0.045,"vel":0.496,"inst":"banjo_v0_plucked_142","midi_source":""},{"t":77.977,"note":67,"dur":0.045,"vel":0.496,"inst":"xylophone_v0_plucked_129","midi_source":""},{"t":78.021,"note":50,"dur":0.045,"vel":0.496,"inst":"banjo_v0_plucked_142","midi_source":""},{"t":78.021,"note":55,"dur":0.045,"vel":0.496,"inst":"xylophone_v0_plucked_129","midi_source":""},{"t":78.021,"note":72,"dur":0.045,"vel":0.496,"inst":"pad_string_v0_bass_416","midi_source":""},{"t":78.021,"note":67,"dur":0.045,"vel":0.496,"inst":"xylophone_v0_plucked_129","midi_source":""},{"t":78.066,"note":53,"dur":0.045,"vel":0.496,"inst":"banjo_v0_plucked_142","midi_source":""},{"t":78.066,"note":67,"dur":0.045,"vel":0.496,"inst":"xylophone_v0_plucked_129","midi_source":""},{"t":78.066,"note":73,"dur":0.045,"vel":0.496,"inst":"xylophone_v0_plucked_129","midi_source":""},{"t":78.066,"note":77,"dur":0.045,"vel":0.496,"inst":"banjo_v0_plucked_142","midi_source":""},{"t":78.111,"note":43,"dur":0.045,"vel":0.496,"inst":"xylophone_v0_plucked_129","midi_source":""},{"t":78.111,"note":55,"dur":0.045,"vel":0.496,"inst":"xylophone_v0_plucked_129","midi_source":""},{"t":78.111,"note":70,"dur":0.045,"vel":0.496,"inst":"xylophone_v0_plucked_129","midi_source":""},{"t":78.111,"note":74,"dur":0.045,"vel":0.496,"inst":"banjo_v0_plucked_142","midi_source":""},{"t":78.156,"note":61,"dur":0.045,"vel":0.496,"inst":"xylophone_v0_plucked_129","midi_source":""},{"t":78.156,"note":77,"dur":0.045,"vel":0.496,"inst":"banjo_v0_plucked_142","midi_source":""},{"t":78.2,"note":43,"dur":0.02,"vel":0.496,"inst":"xylophone_v0_plucked_129","midi_source":""},{"t":78.2,"note":65,"dur":0.045,"vel":0.496,"inst":"banjo_v0_plucked_142","midi_source":""},{"t":78.2,"note":70,"dur":0.02,"vel":0.496,"inst":"xylophone_v0_plucked_129","midi_source":""},{"t":78.2,"note":73,"dur":0.045,"vel":0.496,"inst":"xylophone_v0_plucked_129","midi_source":""},{"t":78.245,"note":46,"dur":0.045,"vel":0.496,"inst":"xylophone_v0_plucked_129","midi_source":""},{"t":78.245,"note":65,"dur":0.045,"vel":0.496,"inst":"banjo_v0_plucked_142","midi_source":""},{"t":78.245,"note":70,"dur":0.045,"vel":0.496,"inst":"xylophone_v0_plucked_129","midi_source":""},{"t":78.245,"note":73,"dur":0.134,"vel":0.496,"inst":"xylophone_v0_plucked_129","midi_source":""},{"t":78.29,"note":43,"dur":0.045,"vel":0.496,"inst":"xylophone_v0_plucked_129","midi_source":""},{"t":78.29,"note":65,"dur":0.045,"vel":0.496,"inst":"banjo_v0_plucked_142","midi_source":""},{"t":78.29,"note":55,"dur":0.045,"vel":0.496,"inst":"xylophone_v0_plucked_129","midi_source":""},{"t":78.334,"note":58,"dur":0.045,"vel":0.496,"inst":"xylophone_v0_plucked_129","midi_source":""},{"t":78.334,"note":65,"dur":0.045,"vel":0.496,"inst":"banjo_v0_plucked_142","midi_source":""},{"t":78.334,"note":55,"dur":0.045,"vel":0.496,"inst":"xylophone_v0_plucked_129","midi_source":""},{"t":78.379,"note":58,"dur":0.268,"vel":0.496,"inst":"xylophone_v0_plucked_129","midi_source":""},{"t":78.379,"note":62,"dur":0.045,"vel":0.496,"inst":"banjo_v0_plucked_142","midi_source":""},{"t":78.379,"note":55,"dur":0.179,"vel":0.496,"inst":"xylophone_v0_plucked_129","midi_source":""},{"t":78.379,"note":70,"dur":0.134,"vel":0.496,"inst":"xylophone_v0_plucked_129","midi_source":""},{"t":78.424,"note":55,"dur":0.045,"vel":0.496,"inst":"xylophone_v0_plucked_129","midi_source":""},{"t":78.469,"note":70,"dur":0.045,"vel":0.496,"inst":"xylophone_v0_plucked_129","midi_source":""},{"t":78.513,"note":70,"dur":0.045,"vel":0.496,"inst":"xylophone_v0_plucked_129","midi_source":""},{"t":78.558,"note":62,"dur":0.045,"vel":0.496,"inst":"banjo_v0_plucked_142","midi_source":""},{"t":78.558,"note":55,"dur":0.045,"vel":0.496,"inst":"xylophone_v0_plucked_129","midi_source":""},{"t":78.603,"note":61,"dur":0.045,"vel":0.496,"inst":"xylophone_v0_plucked_129","midi_source":""},{"t":78.603,"note":65,"dur":0.045,"vel":0.496,"inst":"banjo_v0_plucked_142","midi_source":""},{"t":78.648,"note":58,"dur":0.045,"vel":0.496,"inst":"xylophone_v0_plucked_129","midi_source":""},{"t":78.648,"note":58,"dur":0.134,"vel":0.496,"inst":"xylophone_v0_plucked_129","midi_source":""},{"t":78.648,"note":62,"dur":0.134,"vel":0.496,"inst":"banjo_v0_plucked_142","midi_source":""},{"t":78.692,"note":62,"dur":0.045,"vel":0.496,"inst":"banjo_v0_plucked_142","midi_source":""},{"t":78.737,"note":55,"dur":0.045,"vel":0.496,"inst":"xylophone_v0_plucked_129","midi_source":""},{"t":78.782,"note":55,"dur":0.134,"vel":0.496,"inst":"xylophone_v0_plucked_129","midi_source":""},{"t":78.782,"note":58,"dur":0.045,"vel":0.496,"inst":"xylophone_v0_plucked_129","midi_source":""},{"t":78.782,"note":65,"dur":0.134,"vel":0.496,"inst":"banjo_v0_plucked_142","midi_source":""},{"t":78.782,"note":70,"dur":0.313,"vel":0.496,"inst":"xylophone_v0_plucked_129","midi_source":""},{"t":78.827,"note":62,"dur":0.045,"vel":0.496,"inst":"banjo_v0_plucked_142","midi_source":""},{"t":78.871,"note":67,"dur":0.045,"vel":0.496,"inst":"xylophone_v0_plucked_129","midi_source":""},{"t":78.916,"note":43,"dur":0.134,"vel":0.496,"inst":"xylophone_v0_plucked_129","midi_source":""},{"t":78.916,"note":55,"dur":0.045,"vel":0.496,"inst":"xylophone_v0_plucked_129","midi_source":""},{"t":78.916,"note":70,"dur":0.134,"vel":0.496,"inst":"xylophone_v0_plucked_129","midi_source":""},{"t":78.961,"note":70,"dur":0.045,"vel":0.496,"inst":"xylophone_v0_plucked_129","midi_source":""},{"t":79.005,"note":74,"dur":0.045,"vel":0.496,"inst":"banjo_v0_plucked_142","midi_source":""},{"t":79.05,"note":53,"dur":0.313,"vel":0.496,"inst":"banjo_v0_plucked_142","midi_source":""},{"t":79.05,"note":67,"dur":0.313,"vel":0.496,"inst":"xylophone_v0_plucked_129","midi_source":""},{"t":79.05,"note":77,"dur":0.313,"vel":0.496,"inst":"banjo_v0_plucked_142","midi_source":""},{"t":79.095,"note":65,"dur":0.045,"vel":0.496,"inst":"banjo_v0_plucked_142","midi_source":""},{"t":79.14,"note":55,"dur":0.045,"vel":0.496,"inst":"xylophone_v0_plucked_129","midi_source":""},{"t":79.184,"note":67,"dur":0.045,"vel":0.496,"inst":"xylophone_v0_plucked_129","midi_source":""},{"t":79.229,"note":70,"dur":0.045,"vel":0.496,"inst":"xylophone_v0_plucked_129","midi_source":""},{"t":79.274,"note":77,"dur":0.045,"vel":0.496,"inst":"banjo_v0_plucked_142","midi_source":""},{"t":79.319,"note":79,"dur":0.045,"vel":0.496,"inst":"xylophone_v0_plucked_129","midi_source":""},{"t":79.363,"note":46,"dur":0.045,"vel":0.496,"inst":"xylophone_v0_plucked_129","midi_source":""},{"t":79.363,"note":67,"dur":0.045,"vel":0.496,"inst":"xylophone_v0_plucked_129","midi_source":""},{"t":79.363,"note":70,"dur":0.045,"vel":0.496,"inst":"xylophone_v0_plucked_129","midi_source":""},{"t":79.363,"note":82,"dur":0.045,"vel":0.496,"inst":"xylophone_v0_plucked_129","midi_source":""},{"t":79.408,"note":49,"dur":0.045,"vel":0.496,"inst":"xylophone_v0_plucked_129","midi_source":""},{"t":79.408,"note":55,"dur":0.045,"vel":0.496,"inst":"xylophone_v0_plucked_129","midi_source":""},{"t":79.408,"note":70,"dur":0.045,"vel":0.496,"inst":"xylophone_v0_plucked_129","midi_source":""},{"t":79.408,"note":82,"dur":0.045,"vel":0.496,"inst":"xylophone_v0_plucked_129","midi_source":""},{"t":79.453,"note":50,"dur":0.067,"vel":0.496,"inst":"banjo_v0_plucked_142","midi_source":""},{"t":79.453,"note":65,"dur":0.134,"vel":0.496,"inst":"banjo_v0_plucked_142","midi_source":""},{"t":79.453,"note":67,"dur":0.134,"vel":0.496,"inst":"xylophone_v0_plucked_129","midi_source":""},{"t":79.453,"note":79,"dur":0.134,"vel":0.496,"inst":"xylophone_v0_plucked_129","midi_source":""},{"t":79.52,"note":58,"dur":0.067,"vel":0.496,"inst":"xylophone_v0_plucked_129","midi_source":""},{"t":79.587,"note":49,"dur":0.134,"vel":0.496,"inst":"xylophone_v0_plucked_129","midi_source":""},{"t":79.587,"note":58,"dur":0.045,"vel":0.496,"inst":"xylophone_v0_plucked_129","midi_source":""},{"t":79.587,"note":65,"dur":0.134,"vel":0.496,"inst":"banjo_v0_plucked_142","midi_source":""},{"t":79.587,"note":82,"dur":0.134,"vel":0.496,"inst":"xylophone_v0_plucked_129","midi_source":""},{"t":79.632,"note":61,"dur":0.045,"vel":0.496,"inst":"xylophone_v0_plucked_129","midi_source":""},{"t":79.676,"note":65,"dur":0.045,"vel":0.496,"inst":"banjo_v0_plucked_142","midi_source":""},{"t":79.721,"note":46,"dur":0.134,"vel":0.496,"inst":"xylophone_v0_plucked_129","midi_source":""},{"t":79.721,"note":62,"dur":0.134,"vel":0.496,"inst":"banjo_v0_plucked_142","midi_source":""},{"t":79.721,"note":67,"dur":0.045,"vel":0.496,"inst":"xylophone_v0_plucked_129","midi_source":""},{"t":79.721,"note":82,"dur":0.134,"vel":0.496,"inst":"xylophone_v0_plucked_129","midi_source":""},{"t":79.766,"note":70,"dur":0.045,"vel":0.496,"inst":"xylophone_v0_plucked_129","midi_source":""},{"t":79.811,"note":77,"dur":0.045,"vel":0.496,"inst":"banjo_v0_plucked_142","midi_source":""},{"t":79.855,"note":46,"dur":0.045,"vel":0.496,"inst":"xylophone_v0_plucked_129","midi_source":""},{"t":79.855,"note":61,"dur":0.134,"vel":0.496,"inst":"xylophone_v0_plucked_129","midi_source":""},{"t":79.855,"note":77,"dur":0.067,"vel":0.496,"inst":"banjo_v0_plucked_142","midi_source":""},{"t":79.855,"note":85,"dur":0.313,"vel":0.496,"inst":"xylophone_v0_plucked_129","midi_source":""},{"t":79.9,"note":49,"dur":0.045,"vel":0.496,"inst":"xylophone_v0_plucked_129","midi_source":""},{"t":79.923,"note":82,"dur":0.246,"vel":0.496,"inst":"xylophone_v0_plucked_129","midi_source":""},{"t":79.945,"note":53,"dur":0.045,"vel":0.496,"inst":"banjo_v0_plucked_142","midi_source":""},{"t":79.99,"note":55,"dur":0.045,"vel":0.496,"inst":"xylophone_v0_plucked_129","midi_source":""},{"t":79.99,"note":65,"dur":0.134,"vel":0.496,"inst":"banjo_v0_plucked_142","midi_source":""},{"t":80.034,"note":58,"dur":0.045,"vel":0.496,"inst":"xylophone_v0_plucked_129","midi_source":""},{"t":80.079,"note":61,"dur":0.045,"vel":0.496,"inst":"xylophone_v0_plucked_129","midi_source":""},{"t":80.124,"note":65,"dur":0.045,"vel":0.496,"inst":"banjo_v0_plucked_142","midi_source":""},{"t":80.124,"note":73,"dur":0.045,"vel":0.496,"inst":"xylophone_v0_plucked_129","midi_source":""},{"t":80.169,"note":67,"dur":0.045,"vel":0.496,"inst":"xylophone_v0_plucked_129","midi_source":""},{"t":80.169,"note":70,"dur":0.045,"vel":0.496,"inst":"xylophone_v0_plucked_129","midi_source":""},{"t":80.169,"note":82,"dur":0.045,"vel":0.496,"inst":"xylophone_v0_plucked_129","midi_source":""},{"t":80.169,"note":86,"dur":0.045,"vel":0.496,"inst":"banjo_v0_plucked_142","midi_source":""},{"t":80.213,"note":70,"dur":0.045,"vel":0.496,"inst":"xylophone_v0_plucked_129","midi_source":""},{"t":80.213,"note":73,"dur":0.045,"vel":0.496,"inst":"xylophone_v0_plucked_129","midi_source":""},{"t":80.213,"note":82,"dur":0.045,"vel":0.496,"inst":"xylophone_v0_plucked_129","midi_source":""},{"t":80.213,"note":85,"dur":0.045,"vel":0.496,"inst":"xylophone_v0_plucked_129","midi_source":""},{"t":80.258,"note":49,"dur":0.045,"vel":0.496,"inst":"xylophone_v0_plucked_129","midi_source":""},{"t":80.258,"note":73,"dur":0.067,"vel":0.496,"inst":"xylophone_v0_plucked_129","midi_source":""},{"t":80.258,"note":82,"dur":0.067,"vel":0.496,"inst":"xylophone_v0_plucked_129","midi_source":""},{"t":80.258,"note":85,"dur":0.067,"vel":0.496,"inst":"xylophone_v0_plucked_129","midi_source":""},{"t":80.303,"note":53,"dur":0.045,"vel":0.496,"inst":"banjo_v0_plucked_142","midi_source":""},{"t":80.325,"note":65,"dur":0.246,"vel":0.496,"inst":"banjo_v0_plucked_142","midi_source":""},{"t":80.325,"note":79,"dur":0.246,"vel":0.496,"inst":"xylophone_v0_plucked_129","midi_source":""},{"t":80.325,"note":82,"dur":0.246,"vel":0.496,"inst":"xylophone_v0_plucked_129","midi_source":""},{"t":80.347,"note":55,"dur":0.045,"vel":0.496,"inst":"xylophone_v0_plucked_129","midi_source":""},{"t":80.392,"note":58,"dur":0.045,"vel":0.496,"inst":"xylophone_v0_plucked_129","midi_source":""},{"t":80.437,"note":61,"dur":0.045,"vel":0.496,"inst":"xylophone_v0_plucked_129","midi_source":""},{"t":80.482,"note":65,"dur":0.045,"vel":0.496,"inst":"banjo_v0_plucked_142","midi_source":""},{"t":80.526,"note":67,"dur":0.045,"vel":0.496,"inst":"xylophone_v0_plucked_129","midi_source":""},{"t":80.571,"note":49,"dur":0.045,"vel":0.496,"inst":"xylophone_v0_plucked_129","midi_source":""},{"t":80.571,"note":82,"dur":0.045,"vel":0.496,"inst":"xylophone_v0_plucked_129","midi_source":""},{"t":80.571,"note":85,"dur":0.045,"vel":0.496,"inst":"xylophone_v0_plucked_129","midi_source":""},{"t":80.616,"note":53,"dur":0.045,"vel":0.496,"inst":"banjo_v0_plucked_142","midi_source":""},{"t":80.616,"note":73,"dur":0.02,"vel":0.496,"inst":"xylophone_v0_plucked_129","midi_source":""},{"t":80.616,"note":79,"dur":0.045,"vel":0.496,"inst":"xylophone_v0_plucked_129","midi_source":""},{"t":80.616,"note":82,"dur":0.045,"vel":0.496,"inst":"xylophone_v0_plucked_129","midi_source":""},{"t":80.661,"note":43,"dur":0.045,"vel":0.496,"inst":"xylophone_v0_plucked_129","midi_source":""},{"t":80.661,"note":73,"dur":0.067,"vel":0.496,"inst":"xylophone_v0_plucked_129","midi_source":""},{"t":80.661,"note":79,"dur":0.067,"vel":0.496,"inst":"xylophone_v0_plucked_129","midi_source":""},{"t":80.661,"note":82,"dur":0.067,"vel":0.496,"inst":"xylophone_v0_plucked_129","midi_source":""},{"t":80.705,"note":58,"dur":0.045,"vel":0.496,"inst":"xylophone_v0_plucked_129","midi_source":""},{"t":80.728,"note":61,"dur":0.246,"vel":0.496,"inst":"xylophone_v0_plucked_129","midi_source":""},{"t":80.728,"note":67,"dur":0.201,"vel":0.496,"inst":"xylophone_v0_plucked_129","midi_source":""},{"t":80.728,"note":82,"dur":0.246,"vel":0.496,"inst":"xylophone_v0_plucked_129","midi_source":""},{"t":80.75,"note":61,"dur":0.045,"vel":0.496,"inst":"xylophone_v0_plucked_129","midi_source":""},{"t":80.795,"note":65,"dur":0.045,"vel":0.496,"inst":"banjo_v0_plucked_142","midi_source":""},{"t":80.84,"note":55,"dur":0.045,"vel":0.496,"inst":"xylophone_v0_plucked_129","midi_source":""},{"t":80.884,"note":70,"dur":0.045,"vel":0.496,"inst":"xylophone_v0_plucked_129","midi_source":""},{"t":80.929,"note":73,"dur":0.045,"vel":0.496,"inst":"xylophone_v0_plucked_129","midi_source":""},{"t":80.929,"note":67,"dur":0.045,"vel":0.496,"inst":"xylophone_v0_plucked_129","midi_source":""},{"t":80.974,"note":43,"dur":0.045,"vel":0.496,"inst":"xylophone_v0_plucked_129","midi_source":""},{"t":80.974,"note":70,"dur":0.045,"vel":0.496,"inst":"xylophone_v0_plucked_129","midi_source":""},{"t":80.974,"note":85,"dur":0.045,"vel":0.496,"inst":"xylophone_v0_plucked_129","midi_source":""},{"t":81.018,"note":55,"dur":0.045,"vel":0.496,"inst":"xylophone_v0_plucked_129","midi_source":""},{"t":81.018,"note":65,"dur":0.045,"vel":0.496,"inst":"banjo_v0_plucked_142","midi_source":""},{"t":81.018,"note":73,"dur":0.02,"vel":0.496,"inst":"xylophone_v0_plucked_129","midi_source":""},{"t":81.018,"note":82,"dur":0.045,"vel":0.496,"inst":"xylophone_v0_plucked_129","midi_source":""},{"t":81.063,"note":46,"dur":0.045,"vel":0.496,"inst":"xylophone_v0_plucked_129","midi_source":""},{"t":81.063,"note":55,"dur":0.313,"vel":0.496,"inst":"xylophone_v0_plucked_129","midi_source":""},{"t":81.063,"note":73,"dur":0.313,"vel":0.496,"inst":"xylophone_v0_plucked_129","midi_source":""},{"t":81.063,"note":82,"dur":0.067,"vel":0.496,"inst":"xylophone_v0_plucked_129","midi_source":""},{"t":81.108,"note":49,"dur":0.045,"vel":0.496,"inst":"xylophone_v0_plucked_129","midi_source":""},{"t":81.13,"note":82,"dur":0.067,"vel":0.496,"inst":"xylophone_v0_plucked_129","midi_source":""},{"t":81.153,"note":43,"dur":0.045,"vel":0.496,"inst":"xylophone_v0_plucked_129","midi_source":""},{"t":81.197,"note":58,"dur":0.045,"vel":0.496,"inst":"xylophone_v0_plucked_129","midi_source":""},{"t":81.197,"note":79,"dur":0.067,"vel":0.496,"inst":"xylophone_v0_plucked_129","midi_source":""},{"t":81.242,"note":61,"dur":0.045,"vel":0.496,"inst":"xylophone_v0_plucked_129","midi_source":""},{"t":81.265,"note":67,"dur":0.067,"vel":0.496,"inst":"xylophone_v0_plucked_129","midi_source":""},{"t":81.287,"note":55,"dur":0.045,"vel":0.496,"inst":"xylophone_v0_plucked_129","midi_source":""},{"t":81.332,"note":70,"dur":0.045,"vel":0.496,"inst":"xylophone_v0_plucked_129","midi_source":""},{"t":81.332,"note":86,"dur":0.045,"vel":0.496,"inst":"banjo_v0_plucked_142","midi_source":""},{"t":81.377,"note":58,"dur":0.045,"vel":0.496,"inst":"xylophone_v0_plucked_129","midi_source":""},{"t":81.377,"note":55,"dur":0.045,"vel":0.496,"inst":"xylophone_v0_plucked_129","midi_source":""},{"t":81.377,"note":73,"dur":0.045,"vel":0.496,"inst":"xylophone_v0_plucked_129","midi_source":""},{"t":81.377,"note":85,"dur":0.045,"vel":0.496,"inst":"xylophone_v0_plucked_129","midi_source":""},{"t":81.421,"note":46,"dur":0.045,"vel":0.496,"inst":"xylophone_v0_plucked_129","midi_source":""},{"t":81.421,"note":55,"dur":0.045,"vel":0.496,"inst":"xylophone_v0_plucked_129","midi_source":""},{"t":81.421,"note":70,"dur":0.045,"vel":0.496,"inst":"xylophone_v0_plucked_129","midi_source":""},{"t":81.421,"note":74,"dur":0.045,"vel":0.496,"inst":"banjo_v0_plucked_142","midi_source":""},{"t":81.466,"note":43,"dur":0.045,"vel":0.496,"inst":"xylophone_v0_plucked_129","midi_source":""},{"t":81.466,"note":65,"dur":0.045,"vel":0.496,"inst":"banjo_v0_plucked_142","midi_source":""},{"t":81.466,"note":70,"dur":0.045,"vel":0.496,"inst":"xylophone_v0_plucked_129","midi_source":""},{"t":81.466,"note":67,"dur":0.034,"vel":0.496,"inst":"xylophone_v0_plucked_129","midi_source":""},{"t":81.499,"note":77,"dur":0.034,"vel":0.496,"inst":"banjo_v0_plucked_142","midi_source":""},{"t":81.511,"note":49,"dur":0.045,"vel":0.496,"inst":"xylophone_v0_plucked_129","midi_source":""},{"t":81.511,"note":65,"dur":0.045,"vel":0.496,"inst":"banjo_v0_plucked_142","midi_source":""},{"t":81.511,"note":70,"dur":0.045,"vel":0.496,"inst":"xylophone_v0_plucked_129","midi_source":""},{"t":81.533,"note":82,"dur":0.034,"vel":0.496,"inst":"xylophone_v0_plucked_129","midi_source":""},{"t":81.555,"note":46,"dur":0.045,"vel":0.496,"inst":"xylophone_v0_plucked_129","midi_source":""},{"t":81.555,"note":73,"dur":0.045,"vel":0.496,"inst":"xylophone_v0_plucked_129","midi_source":""},{"t":81.555,"note":77,"dur":0.045,"vel":0.496,"inst":"banjo_v0_plucked_142","midi_source":""},{"t":81.567,"note":82,"dur":0.034,"vel":0.496,"inst":"xylophone_v0_plucked_129","midi_source":""},{"t":81.6,"note":46,"dur":0.045,"vel":0.992,"inst":"xylophone_v0_plucked_129","midi_source":""},{"t":81.6,"note":70,"dur":0.045,"vel":0.992,"inst":"xylophone_v0_plucked_129","midi_source":""},{"t":81.6,"note":77,"dur":0.045,"vel":0.992,"inst":"banjo_v0_plucked_142","midi_source":""},{"t":81.6,"note":79,"dur":0.134,"vel":0.992,"inst":"xylophone_v0_plucked_129","midi_source":""},{"t":81.645,"note":58,"dur":0.045,"vel":0.992,"inst":"xylophone_v0_plucked_129","midi_source":""},{"t":81.645,"note":67,"dur":0.045,"vel":0.992,"inst":"xylophone_v0_plucked_129","midi_source":""},{"t":81.645,"note":70,"dur":0.045,"vel":0.992,"inst":"xylophone_v0_plucked_129","midi_source":""},{"t":81.689,"note":46,"dur":0.045,"vel":0.992,"inst":"xylophone_v0_plucked_129","midi_source":""},{"t":81.689,"note":65,"dur":0.045,"vel":0.992,"inst":"banjo_v0_plucked_142","midi_source":""},{"t":81.689,"note":67,"dur":0.045,"vel":0.992,"inst":"xylophone_v0_plucked_129","midi_source":""},{"t":81.734,"note":46,"dur":0.045,"vel":0.992,"inst":"xylophone_v0_plucked_129","midi_source":""},{"t":81.734,"note":62,"dur":0.045,"vel":0.992,"inst":"banjo_v0_plucked_142","midi_source":""},{"t":81.734,"note":70,"dur":0.045,"vel":0.992,"inst":"xylophone_v0_plucked_129","midi_source":""},{"t":81.734,"note":67,"dur":0.045,"vel":0.992,"inst":"xylophone_v0_plucked_129","midi_source":""},{"t":81.779,"note":85,"dur":0.045,"vel":0.992,"inst":"xylophone_v0_plucked_129","midi_source":""},{"t":81.824,"note":46,"dur":0.02,"vel":0.992,"inst":"xylophone_v0_plucked_129","midi_source":""},{"t":81.824,"note":62,"dur":0.02,"vel":0.992,"inst":"banjo_v0_plucked_142","midi_source":""},{"t":81.824,"note":70,"dur":0.02,"vel":0.992,"inst":"xylophone_v0_plucked_129","midi_source":""},{"t":81.824,"note":82,"dur":0.045,"vel":0.992,"inst":"xylophone_v0_plucked_129","midi_source":""},{"t":81.869,"note":53,"dur":0.045,"vel":0.496,"inst":"banjo_v0_plucked_142","midi_source":""},{"t":81.869,"note":65,"dur":0.067,"vel":0.496,"inst":"banjo_v0_plucked_142","midi_source":""},{"t":81.869,"note":67,"dur":0.134,"vel":0.496,"inst":"xylophone_v0_plucked_129","midi_source":""},{"t":81.869,"note":77,"dur":0.134,"vel":0.496,"inst":"banjo_v0_plucked_142","midi_source":""},{"t":81.913,"note":43,"dur":0.045,"vel":0.496,"inst":"xylophone_v0_plucked_129","midi_source":""},{"t":81.958,"note":55,"dur":0.045,"vel":0.496,"inst":"xylophone_v0_plucked_129","midi_source":""},{"t":82.003,"note":53,"dur":0.268,"vel":0.496,"inst":"banjo_v0_plucked_142","midi_source":""},{"t":82.003,"note":58,"dur":0.268,"vel":0.496,"inst":"xylophone_v0_plucked_129","midi_source":""},{"t":82.003,"note":61,"dur":0.045,"vel":0.496,"inst":"xylophone_v0_plucked_129","midi_source":""},{"t":82.003,"note":73,"dur":0.201,"vel":0.496,"inst":"xylophone_v0_plucked_129","midi_source":""},{"t":82.048,"note":62,"dur":0.045,"vel":0.496,"inst":"banjo_v0_plucked_142","midi_source":""},{"t":82.092,"note":65,"dur":0.045,"vel":0.496,"inst":"banjo_v0_plucked_142","midi_source":""},{"t":82.137,"note":55,"dur":0.045,"vel":0.496,"inst":"xylophone_v0_plucked_129","midi_source":""},{"t":82.137,"note":55,"dur":0.134,"vel":0.496,"inst":"xylophone_v0_plucked_129","midi_source":""},{"t":82.182,"note":67,"dur":0.045,"vel":0.496,"inst":"xylophone_v0_plucked_129","midi_source":""},{"t":82.204,"note":67,"dur":0.067,"vel":0.496,"inst":"xylophone_v0_plucked_129","midi_source":""},{"t":82.226,"note":70,"dur":0.045,"vel":0.496,"inst":"xylophone_v0_plucked_129","midi_source":""},{"t":82.271,"note":53,"dur":0.045,"vel":0.496,"inst":"banjo_v0_plucked_142","midi_source":""},{"t":82.271,"note":58,"dur":0.045,"vel":0.496,"inst":"xylophone_v0_plucked_129","midi_source":""},{"t":82.271,"note":55,"dur":0.403,"vel":0.496,"inst":"xylophone_v0_plucked_129","midi_source":""},{"t":82.271,"note":70,"dur":0.403,"vel":0.496,"inst":"xylophone_v0_plucked_129","midi_source":""},{"t":82.271,"note":77,"dur":0.134,"vel":0.496,"inst":"banjo_v0_plucked_142","midi_source":""},{"t":82.361,"note":53,"dur":0.02,"vel":0.496,"inst":"banjo_v0_plucked_142","midi_source":""},{"t":82.361,"note":58,"dur":0.02,"vel":0.496,"inst":"xylophone_v0_plucked_129","midi_source":""},{"t":82.405,"note":58,"dur":0.045,"vel":0.496,"inst":"xylophone_v0_plucked_129","midi_source":""},{"t":82.405,"note":67,"dur":0.168,"vel":0.496,"inst":"xylophone_v0_plucked_129","midi_source":""},{"t":82.45,"note":60,"dur":0.045,"vel":0.496,"inst":"pad_string_v0_bass_416","midi_source":""},{"t":82.495,"note":62,"dur":0.045,"vel":0.496,"inst":"banjo_v0_plucked_142","midi_source":""},{"t":82.54,"note":49,"dur":0.134,"vel":0.496,"inst":"xylophone_v0_plucked_129","midi_source":""},{"t":82.54,"note":65,"dur":0.134,"vel":0.496,"inst":"banjo_v0_plucked_142","midi_source":""},{"t":82.54,"note":70,"dur":0.045,"vel":0.496,"inst":"xylophone_v0_plucked_129","midi_source":""},{"t":82.573,"note":79,"dur":0.034,"vel":0.496,"inst":"xylophone_v0_plucked_129","midi_source":""},{"t":82.584,"note":73,"dur":0.045,"vel":0.496,"inst":"xylophone_v0_plucked_129","midi_source":""},{"t":82.607,"note":79,"dur":0.034,"vel":0.496,"inst":"xylophone_v0_plucked_129","midi_source":""},{"t":82.629,"note":77,"dur":0.045,"vel":0.496,"inst":"banjo_v0_plucked_142","midi_source":""},{"t":82.64,"note":82,"dur":0.034,"vel":0.496,"inst":"xylophone_v0_plucked_129","midi_source":""},{"t":82.674,"note":48,"dur":0.045,"vel":0.496,"inst":"pad_string_v0_bass_416","midi_source":""},{"t":82.674,"note":62,"dur":0.045,"vel":0.496,"inst":"banjo_v0_plucked_142","midi_source":""},{"t":82.674,"note":74,"dur":0.045,"vel":0.496,"inst":"banjo_v0_plucked_142","midi_source":""},{"t":82.674,"note":79,"dur":0.179,"vel":0.496,"inst":"xylophone_v0_plucked_129","midi_source":""},{"t":82.719,"note":50,"dur":0.045,"vel":0.496,"inst":"banjo_v0_plucked_142","midi_source":""},{"t":82.763,"note":55,"dur":0.045,"vel":0.496,"inst":"xylophone_v0_plucked_129","midi_source":""},{"t":82.763,"note":55,"dur":0.02,"vel":0.496,"inst":"xylophone_v0_plucked_129","midi_source":""},{"t":82.763,"note":67,"dur":0.02,"vel":0.496,"inst":"xylophone_v0_plucked_129","midi_source":""},{"t":82.808,"note":49,"dur":0.045,"vel":0.496,"inst":"xylophone_v0_plucked_129","midi_source":""},{"t":82.808,"note":65,"dur":0.045,"vel":0.496,"inst":"banjo_v0_plucked_142","midi_source":""},{"t":82.808,"note":67,"dur":0.045,"vel":0.496,"inst":"xylophone_v0_plucked_129","midi_source":""},{"t":82.853,"note":50,"dur":0.045,"vel":0.496,"inst":"banjo_v0_plucked_142","midi_source":""},{"t":82.853,"note":55,"dur":0.045,"vel":0.496,"inst":"xylophone_v0_plucked_129","midi_source":""},{"t":82.853,"note":72,"dur":0.045,"vel":0.496,"inst":"pad_string_v0_bass_416","midi_source":""},{"t":82.853,"note":67,"dur":0.045,"vel":0.496,"inst":"xylophone_v0_plucked_129","midi_source":""},{"t":82.897,"note":53,"dur":0.045,"vel":0.496,"inst":"banjo_v0_plucked_142","midi_source":""},{"t":82.897,"note":67,"dur":0.045,"vel":0.496,"inst":"xylophone_v0_plucked_129","midi_source":""},{"t":82.897,"note":73,"dur":0.045,"vel":0.496,"inst":"xylophone_v0_plucked_129","midi_source":""},{"t":82.897,"note":77,"dur":0.045,"vel":0.496,"inst":"banjo_v0_plucked_142","midi_source":""},{"t":82.942,"note":43,"dur":0.045,"vel":0.496,"inst":"xylophone_v0_plucked_129","midi_source":""},{"t":82.942,"note":55,"dur":0.045,"vel":0.496,"inst":"xylophone_v0_plucked_129","midi_source":""},{"t":82.942,"note":70,"dur":0.045,"vel":0.496,"inst":"xylophone_v0_plucked_129","midi_source":""},{"t":82.942,"note":74,"dur":0.045,"vel":0.496,"inst":"banjo_v0_plucked_142","midi_source":""},{"t":82.987,"note":61,"dur":0.045,"vel":0.496,"inst":"xylophone_v0_plucked_129","midi_source":""},{"t":82.987,"note":77,"dur":0.045,"vel":0.496,"inst":"banjo_v0_plucked_142","midi_source":""},{"t":83.032,"note":43,"dur":0.02,"vel":0.496,"inst":"xylophone_v0_plucked_129","midi_source":""},{"t":83.032,"note":65,"dur":0.045,"vel":0.496,"inst":"banjo_v0_plucked_142","midi_source":""},{"t":83.032,"note":70,"dur":0.02,"vel":0.496,"inst":"xylophone_v0_plucked_129","midi_source":""},{"t":83.032,"note":73,"dur":0.045,"vel":0.496,"inst":"xylophone_v0_plucked_129","midi_source":""},{"t":83.076,"note":46,"dur":0.045,"vel":0.496,"inst":"xylophone_v0_plucked_129","midi_source":""},{"t":83.076,"note":65,"dur":0.045,"vel":0.496,"inst":"banjo_v0_plucked_142","midi_source":""},{"t":83.076,"note":70,"dur":0.045,"vel":0.496,"inst":"xylophone_v0_plucked_129","midi_source":""},{"t":83.076,"note":73,"dur":0.134,"vel":0.496,"inst":"xylophone_v0_plucked_129","midi_source":""},{"t":83.121,"note":43,"dur":0.045,"vel":0.496,"inst":"xylophone_v0_plucked_129","midi_source":""},{"t":83.121,"note":65,"dur":0.045,"vel":0.496,"inst":"banjo_v0_plucked_142","midi_source":""},{"t":83.121,"note":55,"dur":0.045,"vel":0.496,"inst":"xylophone_v0_plucked_129","midi_source":""},{"t":83.166,"note":58,"dur":0.045,"vel":0.496,"inst":"xylophone_v0_plucked_129","midi_source":""},{"t":83.166,"note":65,"dur":0.045,"vel":0.496,"inst":"banjo_v0_plucked_142","midi_source":""},{"t":83.166,"note":55,"dur":0.045,"vel":0.496,"inst":"xylophone_v0_plucked_129","midi_source":""},{"t":83.211,"note":58,"dur":0.268,"vel":0.496,"inst":"xylophone_v0_plucked_129","midi_source":""},{"t":83.211,"note":62,"dur":0.045,"vel":0.496,"inst":"banjo_v0_plucked_142","midi_source":""},{"t":83.211,"note":55,"dur":0.179,"vel":0.496,"inst":"xylophone_v0_plucked_129","midi_source":""},{"t":83.211,"note":70,"dur":0.134,"vel":0.496,"inst":"xylophone_v0_plucked_129","midi_source":""},{"t":83.255,"note":55,"dur":0.045,"vel":0.496,"inst":"xylophone_v0_plucked_129","midi_source":""},{"t":83.3,"note":70,"dur":0.045,"vel":0.496,"inst":"xylophone_v0_plucked_129","midi_source":""},{"t":83.345,"note":70,"dur":0.045,"vel":0.496,"inst":"xylophone_v0_plucked_129","midi_source":""},{"t":83.39,"note":62,"dur":0.045,"vel":0.496,"inst":"banjo_v0_plucked_142","midi_source":""},{"t":83.39,"note":55,"dur":0.045,"vel":0.496,"inst":"xylophone_v0_plucked_129","midi_source":""},{"t":83.434,"note":61,"dur":0.045,"vel":0.496,"inst":"xylophone_v0_plucked_129","midi_source":""},{"t":83.434,"note":65,"dur":0.045,"vel":0.496,"inst":"banjo_v0_plucked_142","midi_source":""},{"t":83.479,"note":58,"dur":0.045,"vel":0.496,"inst":"xylophone_v0_plucked_129","midi_source":""},{"t":83.479,"note":58,"dur":0.134,"vel":0.496,"inst":"xylophone_v0_plucked_129","midi_source":""},{"t":83.479,"note":62,"dur":0.134,"vel":0.496,"inst":"banjo_v0_plucked_142","midi_source":""},{"t":83.524,"note":62,"dur":0.045,"vel":0.496,"inst":"banjo_v0_plucked_142","midi_source":""},{"t":83.568,"note":55,"dur":0.045,"vel":0.496,"inst":"xylophone_v0_plucked_129","midi_source":""},{"t":83.613,"note":55,"dur":0.134,"vel":0.496,"inst":"xylophone_v0_plucked_129","midi_source":""},{"t":83.613,"note":58,"dur":0.045,"vel":0.496,"inst":"xylophone_v0_plucked_129","midi_source":""},{"t":83.613,"note":65,"dur":0.134,"vel":0.496,"inst":"banjo_v0_plucked_142","midi_source":""},{"t":83.613,"note":70,"dur":0.313,"vel":0.496,"inst":"xylophone_v0_plucked_129","midi_source":""},{"t":83.658,"note":62,"dur":0.045,"vel":0.496,"inst":"banjo_v0_plucked_142","midi_source":""},{"t":83.703,"note":67,"dur":0.045,"vel":0.496,"inst":"xylophone_v0_plucked_129","midi_source":""},{"t":83.747,"note":43,"dur":0.134,"vel":0.496,"inst":"xylophone_v0_plucked_129","midi_source":""},{"t":83.747,"note":55,"dur":0.045,"vel":0.496,"inst":"xylophone_v0_plucked_129","midi_source":""},{"t":83.747,"note":70,"dur":0.134,"vel":0.496,"inst":"xylophone_v0_plucked_129","midi_source":""},{"t":83.792,"note":70,"dur":0.045,"vel":0.496,"inst":"xylophone_v0_plucked_129","midi_source":""},{"t":83.837,"note":74,"dur":0.045,"vel":0.496,"inst":"banjo_v0_plucked_142","midi_source":""},{"t":83.882,"note":53,"dur":0.313,"vel":0.496,"inst":"banjo_v0_plucked_142","midi_source":""},{"t":83.882,"note":67,"dur":0.313,"vel":0.496,"inst":"xylophone_v0_plucked_129","midi_source":""},{"t":83.882,"note":77,"dur":0.313,"vel":0.496,"inst":"banjo_v0_plucked_142","midi_source":""},{"t":83.926,"note":65,"dur":0.045,"vel":0.496,"inst":"banjo_v0_plucked_142","midi_source":""},{"t":83.971,"note":55,"dur":0.045,"vel":0.496,"inst":"xylophone_v0_plucked_129","midi_source":""},{"t":84.016,"note":67,"dur":0.045,"vel":0.496,"inst":"xylophone_v0_plucked_129","midi_source":""},{"t":84.061,"note":70,"dur":0.045,"vel":0.496,"inst":"xylophone_v0_plucked_129","midi_source":""},{"t":84.105,"note":77,"dur":0.045,"vel":0.496,"inst":"banjo_v0_plucked_142","midi_source":""},{"t":84.15,"note":79,"dur":0.045,"vel":0.496,"inst":"xylophone_v0_plucked_129","midi_source":""},{"t":84.195,"note":46,"dur":0.045,"vel":0.496,"inst":"xylophone_v0_plucked_129","midi_source":""},{"t":84.195,"note":67,"dur":0.045,"vel":0.496,"inst":"xylophone_v0_plucked_129","midi_source":""},{"t":84.195,"note":70,"dur":0.045,"vel":0.496,"inst":"xylophone_v0_plucked_129","midi_source":""},{"t":84.195,"note":82,"dur":0.045,"vel":0.496,"inst":"xylophone_v0_plucked_129","midi_source":""},{"t":84.239,"note":49,"dur":0.045,"vel":0.496,"inst":"xylophone_v0_plucked_129","midi_source":""},{"t":84.239,"note":55,"dur":0.045,"vel":0.496,"inst":"xylophone_v0_plucked_129","midi_source":""},{"t":84.239,"note":70,"dur":0.045,"vel":0.496,"inst":"xylophone_v0_plucked_129","midi_source":""},{"t":84.239,"note":82,"dur":0.045,"vel":0.496,"inst":"xylophone_v0_plucked_129","midi_source":""},{"t":84.284,"note":50,"dur":0.067,"vel":0.496,"inst":"banjo_v0_plucked_142","midi_source":""},{"t":84.284,"note":65,"dur":0.134,"vel":0.496,"inst":"banjo_v0_plucked_142","midi_source":""},{"t":84.284,"note":67,"dur":0.134,"vel":0.496,"inst":"xylophone_v0_plucked_129","midi_source":""},{"t":84.284,"note":79,"dur":0.134,"vel":0.496,"inst":"xylophone_v0_plucked_129","midi_source":""},{"t":84.351,"note":58,"dur":0.067,"vel":0.496,"inst":"xylophone_v0_plucked_129","midi_source":""},{"t":84.418,"note":49,"dur":0.134,"vel":0.496,"inst":"xylophone_v0_plucked_129","midi_source":""},{"t":84.418,"note":58,"dur":0.045,"vel":0.496,"inst":"xylophone_v0_plucked_129","midi_source":""},{"t":84.418,"note":65,"dur":0.134,"vel":0.496,"inst":"banjo_v0_plucked_142","midi_source":""},{"t":84.418,"note":82,"dur":0.134,"vel":0.496,"inst":"xylophone_v0_plucked_129","midi_source":""},{"t":84.463,"note":61,"dur":0.045,"vel":0.496,"inst":"xylophone_v0_plucked_129","midi_source":""},{"t":84.508,"note":65,"dur":0.045,"vel":0.496,"inst":"banjo_v0_plucked_142","midi_source":""},{"t":84.553,"note":46,"dur":0.134,"vel":0.496,"inst":"xylophone_v0_plucked_129","midi_source":""},{"t":84.553,"note":62,"dur":0.134,"vel":0.496,"inst":"banjo_v0_plucked_142","midi_source":""},{"t":84.553,"note":67,"dur":0.045,"vel":0.496,"inst":"xylophone_v0_plucked_129","midi_source":""},{"t":84.553,"note":82,"dur":0.134,"vel":0.496,"inst":"xylophone_v0_plucked_129","midi_source":""},{"t":84.597,"note":70,"dur":0.045,"vel":0.496,"inst":"xylophone_v0_plucked_129","midi_source":""},{"t":84.642,"note":77,"dur":0.045,"vel":0.496,"inst":"banjo_v0_plucked_142","midi_source":""},{"t":84.687,"note":46,"dur":0.045,"vel":0.496,"inst":"xylophone_v0_plucked_129","midi_source":""},{"t":84.687,"note":61,"dur":0.134,"vel":0.496,"inst":"xylophone_v0_plucked_129","midi_source":""},{"t":84.687,"note":77,"dur":0.067,"vel":0.496,"inst":"banjo_v0_plucked_142","midi_source":""},{"t":84.687,"note":85,"dur":0.313,"vel":0.496,"inst":"xylophone_v0_plucked_129","midi_source":""},{"t":84.732,"note":49,"dur":0.045,"vel":0.496,"inst":"xylophone_v0_plucked_129","midi_source":""},{"t":84.754,"note":82,"dur":0.246,"vel":0.496,"inst":"xylophone_v0_plucked_129","midi_source":""},{"t":84.776,"note":53,"dur":0.045,"vel":0.496,"inst":"banjo_v0_plucked_142","midi_source":""},{"t":84.821,"note":55,"dur":0.045,"vel":0.496,"inst":"xylophone_v0_plucked_129","midi_source":""},{"t":84.821,"note":65,"dur":0.134,"vel":0.496,"inst":"banjo_v0_plucked_142","midi_source":""},{"t":84.866,"note":58,"dur":0.045,"vel":0.496,"inst":"xylophone_v0_plucked_129","midi_source":""},{"t":84.91,"note":61,"dur":0.045,"vel":0.496,"inst":"xylophone_v0_plucked_129","midi_source":""},{"t":84.955,"note":65,"dur":0.045,"vel":0.496,"inst":"banjo_v0_plucked_142","midi_source":""},{"t":84.955,"note":73,"dur":0.045,"vel":0.496,"inst":"xylophone_v0_plucked_129","midi_source":""},{"t":85.0,"note":67,"dur":0.045,"vel":0.496,"inst":"xylophone_v0_plucked_129","midi_source":""},{"t":85.0,"note":70,"dur":0.045,"vel":0.496,"inst":"xylophone_v0_plucked_129","midi_source":""},{"t":85.0,"note":82,"dur":0.045,"vel":0.496,"inst":"xylophone_v0_plucked_129","midi_source":""},{"t":85.0,"note":86,"dur":0.045,"vel":0.496,"inst":"banjo_v0_plucked_142","midi_source":""},{"t":85.045,"note":70,"dur":0.045,"vel":0.496,"inst":"xylophone_v0_plucked_129","midi_source":""},{"t":85.045,"note":73,"dur":0.045,"vel":0.496,"inst":"xylophone_v0_plucked_129","midi_source":""},{"t":85.045,"note":82,"dur":0.045,"vel":0.496,"inst":"xylophone_v0_plucked_129","midi_source":""},{"t":85.045,"note":85,"dur":0.045,"vel":0.496,"inst":"xylophone_v0_plucked_129","midi_source":""},{"t":85.089,"note":49,"dur":0.045,"vel":0.496,"inst":"xylophone_v0_plucked_129","midi_source":""},{"t":85.089,"note":73,"dur":0.067,"vel":0.496,"inst":"xylophone_v0_plucked_129","midi_source":""},{"t":85.089,"note":82,"dur":0.067,"vel":0.496,"inst":"xylophone_v0_plucked_129","midi_source":""},{"t":85.089,"note":85,"dur":0.067,"vel":0.496,"inst":"xylophone_v0_plucked_129","midi_source":""},{"t":85.134,"note":53,"dur":0.045,"vel":0.496,"inst":"banjo_v0_plucked_142","midi_source":""},{"t":85.157,"note":65,"dur":0.246,"vel":0.496,"inst":"banjo_v0_plucked_142","midi_source":""},{"t":85.157,"note":79,"dur":0.246,"vel":0.496,"inst":"xylophone_v0_plucked_129","midi_source":""},{"t":85.157,"note":82,"dur":0.246,"vel":0.496,"inst":"xylophone_v0_plucked_129","midi_source":""},{"t":85.179,"note":55,"dur":0.045,"vel":0.496,"inst":"xylophone_v0_plucked_129","midi_source":""},{"t":85.224,"note":58,"dur":0.045,"vel":0.496,"inst":"xylophone_v0_plucked_129","midi_source":""},{"t":85.268,"note":61,"dur":0.045,"vel":0.496,"inst":"xylophone_v0_plucked_129","midi_source":""},{"t":85.313,"note":65,"dur":0.045,"vel":0.496,"inst":"banjo_v0_plucked_142","midi_source":""},{"t":85.358,"note":67,"dur":0.045,"vel":0.496,"inst":"xylophone_v0_plucked_129","midi_source":""},{"t":85.403,"note":49,"dur":0.045,"vel":0.496,"inst":"xylophone_v0_plucked_129","midi_source":""},{"t":85.403,"note":82,"dur":0.045,"vel":0.496,"inst":"xylophone_v0_plucked_129","midi_source":""},{"t":85.403,"note":85,"dur":0.045,"vel":0.496,"inst":"xylophone_v0_plucked_129","midi_source":""},{"t":85.447,"note":53,"dur":0.045,"vel":0.496,"inst":"banjo_v0_plucked_142","midi_source":""},{"t":85.447,"note":73,"dur":0.02,"vel":0.496,"inst":"xylophone_v0_plucked_129","midi_source":""},{"t":85.447,"note":79,"dur":0.045,"vel":0.496,"inst":"xylophone_v0_plucked_129","midi_source":""},{"t":85.447,"note":82,"dur":0.045,"vel":0.496,"inst":"xylophone_v0_plucked_129","midi_source":""},{"t":85.492,"note":43,"dur":0.045,"vel":0.496,"inst":"xylophone_v0_plucked_129","midi_source":""},{"t":85.492,"note":73,"dur":0.067,"vel":0.496,"inst":"xylophone_v0_plucked_129","midi_source":""},{"t":85.492,"note":79,"dur":0.067,"vel":0.496,"inst":"xylophone_v0_plucked_129","midi_source":""},{"t":85.492,"note":82,"dur":0.067,"vel":0.496,"inst":"xylophone_v0_plucked_129","midi_source":""},{"t":85.537,"note":58,"dur":0.045,"vel":0.496,"inst":"xylophone_v0_plucked_129","midi_source":""},{"t":85.559,"note":61,"dur":0.246,"vel":0.496,"inst":"xylophone_v0_plucked_129","midi_source":""},{"t":85.559,"note":67,"dur":0.201,"vel":0.496,"inst":"xylophone_v0_plucked_129","midi_source":""},{"t":85.559,"note":82,"dur":0.246,"vel":0.496,"inst":"xylophone_v0_plucked_129","midi_source":""},{"t":85.581,"note":61,"dur":0.045,"vel":0.496,"inst":"xylophone_v0_plucked_129","midi_source":""},{"t":85.626,"note":65,"dur":0.045,"vel":0.496,"inst":"banjo_v0_plucked_142","midi_source":""},{"t":85.671,"note":55,"dur":0.045,"vel":0.496,"inst":"xylophone_v0_plucked_129","midi_source":""},{"t":85.716,"note":70,"dur":0.045,"vel":0.496,"inst":"xylophone_v0_plucked_129","midi_source":""},{"t":85.76,"note":73,"dur":0.045,"vel":0.496,"inst":"xylophone_v0_plucked_129","midi_source":""},{"t":85.76,"note":67,"dur":0.045,"vel":0.496,"inst":"xylophone_v0_plucked_129","midi_source":""},{"t":85.805,"note":43,"dur":0.045,"vel":0.496,"inst":"xylophone_v0_plucked_129","midi_source":""},{"t":85.805,"note":70,"dur":0.045,"vel":0.496,"inst":"xylophone_v0_plucked_129","midi_source":""},{"t":85.805,"note":85,"dur":0.045,"vel":0.496,"inst":"xylophone_v0_plucked_129","midi_source":""},{"t":85.85,"note":55,"dur":0.045,"vel":0.496,"inst":"xylophone_v0_plucked_129","midi_source":""},{"t":85.85,"note":65,"dur":0.045,"vel":0.496,"inst":"banjo_v0_plucked_142","midi_source":""},{"t":85.85,"note":73,"dur":0.02,"vel":0.496,"inst":"xylophone_v0_plucked_129","midi_source":""},{"t":85.85,"note":82,"dur":0.045,"vel":0.496,"inst":"xylophone_v0_plucked_129","midi_source":""},{"t":85.895,"note":46,"dur":0.045,"vel":0.496,"inst":"xylophone_v0_plucked_129","midi_source":""},{"t":85.895,"note":55,"dur":0.313,"vel":0.496,"inst":"xylophone_v0_plucked_129","midi_source":""},{"t":85.895,"note":73,"dur":0.313,"vel":0.496,"inst":"xylophone_v0_plucked_129","midi_source":""},{"t":85.895,"note":82,"dur":0.067,"vel":0.496,"inst":"xylophone_v0_plucked_129","midi_source":""},{"t":85.939,"note":49,"dur":0.045,"vel":0.496,"inst":"xylophone_v0_plucked_129","midi_source":""},{"t":85.962,"note":82,"dur":0.067,"vel":0.496,"inst":"xylophone_v0_plucked_129","midi_source":""},{"t":85.984,"note":43,"dur":0.045,"vel":0.496,"inst":"xylophone_v0_plucked_129","midi_source":""},{"t":86.029,"note":58,"dur":0.045,"vel":0.496,"inst":"xylophone_v0_plucked_129","midi_source":""},{"t":86.029,"note":79,"dur":0.067,"vel":0.496,"inst":"xylophone_v0_plucked_129","midi_source":""},{"t":86.074,"note":61,"dur":0.045,"vel":0.496,"inst":"xylophone_v0_plucked_129","midi_source":""},{"t":86.096,"note":67,"dur":0.067,"vel":0.496,"inst":"xylophone_v0_plucked_129","midi_source":""},{"t":86.118,"note":55,"dur":0.045,"vel":0.496,"inst":"xylophone_v0_plucked_129","midi_source":""},{"t":86.163,"note":70,"dur":0.045,"vel":0.496,"inst":"xylophone_v0_plucked_129","midi_source":""},{"t":86.163,"note":86,"dur":0.045,"vel":0.496,"inst":"banjo_v0_plucked_142","midi_source":""},{"t":86.208,"note":58,"dur":0.045,"vel":0.496,"inst":"xylophone_v0_plucked_129","midi_source":""},{"t":86.208,"note":55,"dur":0.045,"vel":0.496,"inst":"xylophone_v0_plucked_129","midi_source":""},{"t":86.208,"note":73,"dur":0.045,"vel":0.496,"inst":"xylophone_v0_plucked_129","midi_source":""},{"t":86.208,"note":85,"dur":0.045,"vel":0.496,"inst":"xylophone_v0_plucked_129","midi_source":""},{"t":86.252,"note":46,"dur":0.045,"vel":0.496,"inst":"xylophone_v0_plucked_129","midi_source":""},{"t":86.252,"note":55,"dur":0.045,"vel":0.496,"inst":"xylophone_v0_plucked_129","midi_source":""},{"t":86.252,"note":70,"dur":0.045,"vel":0.496,"inst":"xylophone_v0_plucked_129","midi_source":""},{"t":86.252,"note":74,"dur":0.045,"vel":0.496,"inst":"banjo_v0_plucked_142","midi_source":""},{"t":86.297,"note":43,"dur":0.045,"vel":0.496,"inst":"xylophone_v0_plucked_129","midi_source":""},{"t":86.297,"note":65,"dur":0.045,"vel":0.496,"inst":"banjo_v0_plucked_142","midi_source":""},{"t":86.297,"note":70,"dur":0.045,"vel":0.496,"inst":"xylophone_v0_plucked_129","midi_source":""},{"t":86.297,"note":67,"dur":0.034,"vel":0.496,"inst":"xylophone_v0_plucked_129","midi_source":""},{"t":86.331,"note":77,"dur":0.034,"vel":0.496,"inst":"banjo_v0_plucked_142","midi_source":""},{"t":86.342,"note":49,"dur":0.045,"vel":0.496,"inst":"xylophone_v0_plucked_129","midi_source":""},{"t":86.342,"note":65,"dur":0.045,"vel":0.496,"inst":"banjo_v0_plucked_142","midi_source":""},{"t":86.342,"note":70,"dur":0.045,"vel":0.496,"inst":"xylophone_v0_plucked_129","midi_source":""},{"t":86.364,"note":82,"dur":0.034,"vel":0.496,"inst":"xylophone_v0_plucked_129","midi_source":""},{"t":86.387,"note":46,"dur":0.045,"vel":0.496,"inst":"xylophone_v0_plucked_129","midi_source":""},{"t":86.387,"note":73,"dur":0.045,"vel":0.496,"inst":"xylophone_v0_plucked_129","midi_source":""},{"t":86.387,"note":77,"dur":0.045,"vel":0.496,"inst":"banjo_v0_plucked_142","midi_source":""},{"t":86.398,"note":82,"dur":0.034,"vel":0.496,"inst":"xylophone_v0_plucked_129","midi_source":""},{"t":86.431,"note":46,"dur":0.045,"vel":0.992,"inst":"xylophone_v0_plucked_129","midi_source":""},{"t":86.431,"note":70,"dur":0.045,"vel":0.992,"inst":"xylophone_v0_plucked_129","midi_source":""},{"t":86.431,"note":77,"dur":0.045,"vel":0.992,"inst":"banjo_v0_plucked_142","midi_source":""},{"t":86.431,"note":79,"dur":0.134,"vel":0.992,"inst":"xylophone_v0_plucked_129","midi_source":""},{"t":86.476,"note":58,"dur":0.045,"vel":0.992,"inst":"xylophone_v0_plucked_129","midi_source":""},{"t":86.476,"note":67,"dur":0.045,"vel":0.992,"inst":"xylophone_v0_plucked_129","midi_source":""},{"t":86.476,"note":70,"dur":0.045,"vel":0.992,"inst":"xylophone_v0_plucked_129","midi_source":""},{"t":86.521,"note":46,"dur":0.045,"vel":0.992,"inst":"xylophone_v0_plucked_129","midi_source":""},{"t":86.521,"note":65,"dur":0.045,"vel":0.992,"inst":"banjo_v0_plucked_142","midi_source":""},{"t":86.521,"note":67,"dur":0.045,"vel":0.992,"inst":"xylophone_v0_plucked_129","midi_source":""},{"t":86.566,"note":46,"dur":0.045,"vel":0.992,"inst":"xylophone_v0_plucked_129","midi_source":""},{"t":86.566,"note":62,"dur":0.045,"vel":0.992,"inst":"banjo_v0_plucked_142","midi_source":""},{"t":86.566,"note":70,"dur":0.045,"vel":0.992,"inst":"xylophone_v0_plucked_129","midi_source":""},{"t":86.566,"note":67,"dur":0.045,"vel":0.992,"inst":"xylophone_v0_plucked_129","midi_source":""},{"t":86.61,"note":85,"dur":0.045,"vel":0.992,"inst":"xylophone_v0_plucked_129","midi_source":""},{"t":86.655,"note":46,"dur":0.02,"vel":0.992,"inst":"xylophone_v0_plucked_129","midi_source":""},{"t":86.655,"note":62,"dur":0.02,"vel":0.992,"inst":"banjo_v0_plucked_142","midi_source":""},{"t":86.655,"note":70,"dur":0.02,"vel":0.992,"inst":"xylophone_v0_plucked_129","midi_source":""},{"t":86.655,"note":82,"dur":0.045,"vel":0.992,"inst":"xylophone_v0_plucked_129","midi_source":""},{"t":86.7,"note":53,"dur":0.045,"vel":0.496,"inst":"banjo_v0_plucked_142","midi_source":""},{"t":86.7,"note":65,"dur":0.067,"vel":0.496,"inst":"banjo_v0_plucked_142","midi_source":""},{"t":86.7,"note":67,"dur":0.134,"vel":0.496,"inst":"xylophone_v0_plucked_129","midi_source":""},{"t":86.7,"note":77,"dur":0.134,"vel":0.496,"inst":"banjo_v0_plucked_142","midi_source":""},{"t":86.745,"note":43,"dur":0.045,"vel":0.496,"inst":"xylophone_v0_plucked_129","midi_source":""},{"t":86.789,"note":55,"dur":0.045,"vel":0.496,"inst":"xylophone_v0_plucked_129","midi_source":""},{"t":86.834,"note":53,"dur":0.268,"vel":0.496,"inst":"banjo_v0_plucked_142","midi_source":""},{"t":86.834,"note":58,"dur":0.268,"vel":0.496,"inst":"xylophone_v0_plucked_129","midi_source":""},{"t":86.834,"note":61,"dur":0.045,"vel":0.496,"inst":"xylophone_v0_plucked_129","midi_source":""},{"t":86.834,"note":73,"dur":0.201,"vel":0.496,"inst":"xylophone_v0_plucked_129","midi_source":""},{"t":86.879,"note":62,"dur":0.045,"vel":0.496,"inst":"banjo_v0_plucked_142","midi_source":""},{"t":86.923,"note":65,"dur":0.045,"vel":0.496,"inst":"banjo_v0_plucked_142","midi_source":""},{"t":86.968,"note":55,"dur":0.045,"vel":0.496,"inst":"xylophone_v0_plucked_129","midi_source":""},{"t":86.968,"note":55,"dur":0.134,"vel":0.496,"inst":"xylophone_v0_plucked_129","midi_source":""},{"t":87.013,"note":67,"dur":0.045,"vel":0.496,"inst":"xylophone_v0_plucked_129","midi_source":""},{"t":87.035,"note":67,"dur":0.067,"vel":0.496,"inst":"xylophone_v0_plucked_129","midi_source":""},{"t":87.058,"note":70,"dur":0.045,"vel":0.496,"inst":"xylophone_v0_plucked_129","midi_source":""},{"t":87.102,"note":53,"dur":0.045,"vel":0.496,"inst":"banjo_v0_plucked_142","midi_source":""},{"t":87.102,"note":58,"dur":0.045,"vel":0.496,"inst":"xylophone_v0_plucked_129","midi_source":""},{"t":87.102,"note":55,"dur":0.403,"vel":0.496,"inst":"xylophone_v0_plucked_129","midi_source":""},{"t":87.102,"note":70,"dur":0.403,"vel":0.496,"inst":"xylophone_v0_plucked_129","midi_source":""},{"t":87.102,"note":77,"dur":0.134,"vel":0.496,"inst":"banjo_v0_plucked_142","midi_source":""},{"t":87.192,"note":53,"dur":0.02,"vel":0.496,"inst":"banjo_v0_plucked_142","midi_source":""},{"t":87.192,"note":58,"dur":0.02,"vel":0.496,"inst":"xylophone_v0_plucked_129","midi_source":""},{"t":87.237,"note":58,"dur":0.045,"vel":0.496,"inst":"xylophone_v0_plucked_129","midi_source":""},{"t":87.237,"note":67,"dur":0.168,"vel":0.496,"inst":"xylophone_v0_plucked_129","midi_source":""},{"t":87.282,"note":60,"dur":0.045,"vel":0.496,"inst":"pad_string_v0_bass_416","midi_source":""},{"t":87.326,"note":62,"dur":0.045,"vel":0.496,"inst":"banjo_v0_plucked_142","midi_source":""},{"t":87.371,"note":49,"dur":0.134,"vel":0.496,"inst":"xylophone_v0_plucked_129","midi_source":""},{"t":87.371,"note":65,"dur":0.134,"vel":0.496,"inst":"banjo_v0_plucked_142","midi_source":""},{"t":87.371,"note":70,"dur":0.045,"vel":0.496,"inst":"xylophone_v0_plucked_129","midi_source":""},{"t":87.404,"note":79,"dur":0.034,"vel":0.496,"inst":"xylophone_v0_plucked_129","midi_source":""},{"t":87.416,"note":73,"dur":0.045,"vel":0.496,"inst":"xylophone_v0_plucked_129","midi_source":""},{"t":87.438,"note":79,"dur":0.034,"vel":0.496,"inst":"xylophone_v0_plucked_129","midi_source":""},{"t":87.46,"note":77,"dur":0.045,"vel":0.496,"inst":"banjo_v0_plucked_142","midi_source":""},{"t":87.472,"note":82,"dur":0.034,"vel":0.496,"inst":"xylophone_v0_plucked_129","midi_source":""},{"t":87.505,"note":48,"dur":0.045,"vel":0.496,"inst":"pad_string_v0_bass_416","midi_source":""},{"t":87.505,"note":62,"dur":0.045,"vel":0.496,"inst":"banjo_v0_plucked_142","midi_source":""},{"t":87.505,"note":74,"dur":0.045,"vel":0.496,"inst":"banjo_v0_plucked_142","midi_source":""},{"t":87.505,"note":79,"dur":0.179,"vel":0.496,"inst":"xylophone_v0_plucked_129","midi_source":""},{"t":87.55,"note":50,"dur":0.045,"vel":0.496,"inst":"banjo_v0_plucked_142","midi_source":""},{"t":87.594,"note":55,"dur":0.045,"vel":0.496,"inst":"xylophone_v0_plucked_129","midi_source":""},{"t":87.594,"note":55,"dur":0.02,"vel":0.496,"inst":"xylophone_v0_plucked_129","midi_source":""},{"t":87.594,"note":67,"dur":0.02,"vel":0.496,"inst":"xylophone_v0_plucked_129","midi_source":""},{"t":87.639,"note":49,"dur":0.045,"vel":0.496,"inst":"xylophone_v0_plucked_129","midi_source":""},{"t":87.639,"note":65,"dur":0.045,"vel":0.496,"inst":"banjo_v0_plucked_142","midi_source":""},{"t":87.639,"note":67,"dur":0.045,"vel":0.496,"inst":"xylophone_v0_plucked_129","midi_source":""},{"t":87.684,"note":50,"dur":0.045,"vel":0.496,"inst":"banjo_v0_plucked_142","midi_source":""},{"t":87.684,"note":55,"dur":0.045,"vel":0.496,"inst":"xylophone_v0_plucked_129","midi_source":""},{"t":87.684,"note":72,"dur":0.045,"vel":0.496,"inst":"pad_string_v0_bass_416","midi_source":""},{"t":87.684,"note":67,"dur":0.045,"vel":0.496,"inst":"xylophone_v0_plucked_129","midi_source":""},{"t":87.729,"note":53,"dur":0.045,"vel":0.496,"inst":"banjo_v0_plucked_142","midi_source":""},{"t":87.729,"note":67,"dur":0.045,"vel":0.496,"inst":"xylophone_v0_plucked_129","midi_source":""},{"t":87.729,"note":73,"dur":0.045,"vel":0.496,"inst":"xylophone_v0_plucked_129","midi_source":""},{"t":87.729,"note":77,"dur":0.045,"vel":0.496,"inst":"banjo_v0_plucked_142","midi_source":""},{"t":87.774,"note":43,"dur":0.045,"vel":0.496,"inst":"xylophone_v0_plucked_129","midi_source":""},{"t":87.774,"note":55,"dur":0.045,"vel":0.496,"inst":"xylophone_v0_plucked_129","midi_source":""},{"t":87.774,"note":70,"dur":0.045,"vel":0.496,"inst":"xylophone_v0_plucked_129","midi_source":""},{"t":87.774,"note":74,"dur":0.045,"vel":0.496,"inst":"banjo_v0_plucked_142","midi_source":""},{"t":87.818,"note":61,"dur":0.045,"vel":0.496,"inst":"xylophone_v0_plucked_129","midi_source":""},{"t":87.818,"note":77,"dur":0.045,"vel":0.496,"inst":"banjo_v0_plucked_142","midi_source":""},{"t":87.863,"note":43,"dur":0.02,"vel":0.496,"inst":"xylophone_v0_plucked_129","midi_source":""},{"t":87.863,"note":65,"dur":0.045,"vel":0.496,"inst":"banjo_v0_plucked_142","midi_source":""},{"t":87.863,"note":70,"dur":0.02,"vel":0.496,"inst":"xylophone_v0_plucked_129","midi_source":""},{"t":87.863,"note":73,"dur":0.045,"vel":0.496,"inst":"xylophone_v0_plucked_129","midi_source":""},{"t":87.908,"note":46,"dur":0.045,"vel":0.496,"inst":"xylophone_v0_plucked_129","midi_source":""},{"t":87.908,"note":65,"dur":0.045,"vel":0.496,"inst":"banjo_v0_plucked_142","midi_source":""},{"t":87.908,"note":70,"dur":0.045,"vel":0.496,"inst":"xylophone_v0_plucked_129","midi_source":""},{"t":87.908,"note":73,"dur":0.134,"vel":0.496,"inst":"xylophone_v0_plucked_129","midi_source":""},{"t":87.953,"note":43,"dur":0.045,"vel":0.496,"inst":"xylophone_v0_plucked_129","midi_source":""},{"t":87.953,"note":65,"dur":0.045,"vel":0.496,"inst":"banjo_v0_plucked_142","midi_source":""},{"t":87.953,"note":55,"dur":0.045,"vel":0.496,"inst":"xylophone_v0_plucked_129","midi_source":""},{"t":87.997,"note":58,"dur":0.045,"vel":0.496,"inst":"xylophone_v0_plucked_129","midi_source":""},{"t":87.997,"note":65,"dur":0.045,"vel":0.496,"inst":"banjo_v0_plucked_142","midi_source":""},{"t":87.997,"note":55,"dur":0.045,"vel":0.496,"inst":"xylophone_v0_plucked_129","midi_source":""},{"t":88.042,"note":58,"dur":0.268,"vel":0.496,"inst":"xylophone_v0_plucked_129","midi_source":""},{"t":88.042,"note":62,"dur":0.045,"vel":0.496,"inst":"banjo_v0_plucked_142","midi_source":""},{"t":88.042,"note":55,"dur":0.179,"vel":0.496,"inst":"xylophone_v0_plucked_129","midi_source":""},{"t":88.042,"note":70,"dur":0.134,"vel":0.496,"inst":"xylophone_v0_plucked_129","midi_source":""},{"t":88.087,"note":55,"dur":0.045,"vel":0.496,"inst":"xylophone_v0_plucked_129","midi_source":""},{"t":88.131,"note":70,"dur":0.045,"vel":0.496,"inst":"xylophone_v0_plucked_129","midi_source":""},{"t":88.176,"note":70,"dur":0.045,"vel":0.496,"inst":"xylophone_v0_plucked_129","midi_source":""},{"t":88.221,"note":62,"dur":0.045,"vel":0.496,"inst":"banjo_v0_plucked_142","midi_source":""},{"t":88.221,"note":55,"dur":0.045,"vel":0.496,"inst":"xylophone_v0_plucked_129","midi_source":""},{"t":88.266,"note":61,"dur":0.045,"vel":0.496,"inst":"xylophone_v0_plucked_129","midi_source":""},{"t":88.266,"note":65,"dur":0.045,"vel":0.496,"inst":"banjo_v0_plucked_142","midi_source":""},{"t":88.31,"note":58,"dur":0.045,"vel":0.496,"inst":"xylophone_v0_plucked_129","midi_source":""},{"t":88.31,"note":58,"dur":0.134,"vel":0.496,"inst":"xylophone_v0_plucked_129","midi_source":""},{"t":88.31,"note":62,"dur":0.134,"vel":0.496,"inst":"banjo_v0_plucked_142","midi_source":""},{"t":88.355,"note":62,"dur":0.045,"vel":0.496,"inst":"banjo_v0_plucked_142","midi_source":""},{"t":88.4,"note":55,"dur":0.045,"vel":0.496,"inst":"xylophone_v0_plucked_129","midi_source":""},{"t":88.445,"note":55,"dur":0.134,"vel":0.496,"inst":"xylophone_v0_plucked_129","midi_source":""},{"t":88.445,"note":58,"dur":0.045,"vel":0.496,"inst":"xylophone_v0_plucked_129","midi_source":""},{"t":88.445,"note":65,"dur":0.134,"vel":0.496,"inst":"banjo_v0_plucked_142","midi_source":""},{"t":88.445,"note":70,"dur":0.313,"vel":0.496,"inst":"xylophone_v0_plucked_129","midi_source":""},{"t":88.489,"note":62,"dur":0.045,"vel":0.496,"inst":"banjo_v0_plucked_142","midi_source":""},{"t":88.534,"note":67,"dur":0.045,"vel":0.496,"inst":"xylophone_v0_plucked_129","midi_source":""},{"t":88.579,"note":43,"dur":0.134,"vel":0.496,"inst":"xylophone_v0_plucked_129","midi_source":""},{"t":88.579,"note":55,"dur":0.045,"vel":0.496,"inst":"xylophone_v0_plucked_129","midi_source":""},{"t":88.579,"note":70,"dur":0.134,"vel":0.496,"inst":"xylophone_v0_plucked_129","midi_source":""},{"t":88.624,"note":70,"dur":0.045,"vel":0.496,"inst":"xylophone_v0_plucked_129","midi_source":""},{"t":88.668,"note":74,"dur":0.045,"vel":0.496,"inst":"banjo_v0_plucked_142","midi_source":""},{"t":88.713,"note":53,"dur":0.313,"vel":0.496,"inst":"banjo_v0_plucked_142","midi_source":""},{"t":88.713,"note":67,"dur":0.313,"vel":0.496,"inst":"xylophone_v0_plucked_129","midi_source":""},{"t":88.713,"note":77,"dur":0.313,"vel":0.496,"inst":"banjo_v0_plucked_142","midi_source":""},{"t":88.758,"note":65,"dur":0.045,"vel":0.496,"inst":"banjo_v0_plucked_142","midi_source":""},{"t":88.802,"note":55,"dur":0.045,"vel":0.496,"inst":"xylophone_v0_plucked_129","midi_source":""},{"t":88.847,"note":67,"dur":0.045,"vel":0.496,"inst":"xylophone_v0_plucked_129","midi_source":""},{"t":88.892,"note":70,"dur":0.045,"vel":0.496,"inst":"xylophone_v0_plucked_129","midi_source":""},{"t":88.937,"note":77,"dur":0.045,"vel":0.496,"inst":"banjo_v0_plucked_142","midi_source":""},{"t":88.981,"note":79,"dur":0.045,"vel":0.496,"inst":"xylophone_v0_plucked_129","midi_source":""},{"t":89.026,"note":46,"dur":0.045,"vel":0.496,"inst":"xylophone_v0_plucked_129","midi_source":""},{"t":89.026,"note":67,"dur":0.045,"vel":0.496,"inst":"xylophone_v0_plucked_129","midi_source":""},{"t":89.026,"note":70,"dur":0.045,"vel":0.496,"inst":"xylophone_v0_plucked_129","midi_source":""},{"t":89.026,"note":82,"dur":0.045,"vel":0.496,"inst":"xylophone_v0_plucked_129","midi_source":""},{"t":89.071,"note":49,"dur":0.045,"vel":0.496,"inst":"xylophone_v0_plucked_129","midi_source":""},{"t":89.071,"note":55,"dur":0.045,"vel":0.496,"inst":"xylophone_v0_plucked_129","midi_source":""},{"t":89.071,"note":70,"dur":0.045,"vel":0.496,"inst":"xylophone_v0_plucked_129","midi_source":""},{"t":89.071,"note":82,"dur":0.045,"vel":0.496,"inst":"xylophone_v0_plucked_129","midi_source":""},{"t":89.116,"note":50,"dur":0.067,"vel":0.496,"inst":"banjo_v0_plucked_142","midi_source":""},{"t":89.116,"note":65,"dur":0.134,"vel":0.496,"inst":"banjo_v0_plucked_142","midi_source":""},{"t":89.116,"note":67,"dur":0.134,"vel":0.496,"inst":"xylophone_v0_plucked_129","midi_source":""},{"t":89.116,"note":79,"dur":0.134,"vel":0.496,"inst":"xylophone_v0_plucked_129","midi_source":""},{"t":89.183,"note":58,"dur":0.067,"vel":0.496,"inst":"xylophone_v0_plucked_129","midi_source":""},{"t":89.25,"note":49,"dur":0.134,"vel":0.496,"inst":"xylophone_v0_plucked_129","midi_source":""},{"t":89.25,"note":58,"dur":0.045,"vel":0.496,"inst":"xylophone_v0_plucked_129","midi_source":""},{"t":89.25,"note":65,"dur":0.134,"vel":0.496,"inst":"banjo_v0_plucked_142","midi_source":""},{"t":89.25,"note":82,"dur":0.134,"vel":0.496,"inst":"xylophone_v0_plucked_129","midi_source":""},{"t":89.295,"note":61,"dur":0.045,"vel":0.496,"inst":"xylophone_v0_plucked_129","midi_source":""},{"t":89.339,"note":65,"dur":0.045,"vel":0.496,"inst":"banjo_v0_plucked_142","midi_source":""},{"t":89.384,"note":46,"dur":0.134,"vel":0.496,"inst":"xylophone_v0_plucked_129","midi_source":""},{"t":89.384,"note":62,"dur":0.134,"vel":0.496,"inst":"banjo_v0_plucked_142","midi_source":""},{"t":89.384,"note":67,"dur":0.045,"vel":0.496,"inst":"xylophone_v0_plucked_129","midi_source":""},{"t":89.384,"note":82,"dur":0.134,"vel":0.496,"inst":"xylophone_v0_plucked_129","midi_source":""},{"t":89.429,"note":70,"dur":0.045,"vel":0.496,"inst":"xylophone_v0_plucked_129","midi_source":""},{"t":89.473,"note":77,"dur":0.045,"vel":0.496,"inst":"banjo_v0_plucked_142","midi_source":""},{"t":89.518,"note":46,"dur":0.045,"vel":0.496,"inst":"xylophone_v0_plucked_129","midi_source":""},{"t":89.518,"note":61,"dur":0.134,"vel":0.496,"inst":"xylophone_v0_plucked_129","midi_source":""},{"t":89.518,"note":77,"dur":0.067,"vel":0.496,"inst":"banjo_v0_plucked_142","midi_source":""},{"t":89.518,"note":85,"dur":0.313,"vel":0.496,"inst":"xylophone_v0_plucked_129","midi_source":""},{"t":89.563,"note":49,"dur":0.045,"vel":0.496,"inst":"xylophone_v0_plucked_129","midi_source":""},{"t":89.585,"note":82,"dur":0.246,"vel":0.496,"inst":"xylophone_v0_plucked_129","midi_source":""},{"t":89.608,"note":53,"dur":0.045,"vel":0.496,"inst":"banjo_v0_plucked_142","midi_source":""},{"t":89.652,"note":55,"dur":0.045,"vel":0.496,"inst":"xylophone_v0_plucked_129","midi_source":""},{"t":89.652,"note":65,"dur":0.134,"vel":0.496,"inst":"banjo_v0_plucked_142","midi_source":""},{"t":89.697,"note":58,"dur":0.045,"vel":0.496,"inst":"xylophone_v0_plucked_129","midi_source":""},{"t":89.742,"note":61,"dur":0.045,"vel":0.496,"inst":"xylophone_v0_plucked_129","midi_source":""},{"t":89.787,"note":65,"dur":0.045,"vel":0.496,"inst":"banjo_v0_plucked_142","midi_source":""},{"t":89.787,"note":73,"dur":0.045,"vel":0.496,"inst":"xylophone_v0_plucked_129","midi_source":""},{"t":89.831,"note":67,"dur":0.045,"vel":0.496,"inst":"xylophone_v0_plucked_129","midi_source":""},{"t":89.831,"note":70,"dur":0.045,"vel":0.496,"inst":"xylophone_v0_plucked_129","midi_source":""},{"t":89.831,"note":82,"dur":0.045,"vel":0.496,"inst":"xylophone_v0_plucked_129","midi_source":""},{"t":89.831,"note":86,"dur":0.045,"vel":0.496,"inst":"banjo_v0_plucked_142","midi_source":""},{"t":89.876,"note":70,"dur":0.045,"vel":0.496,"inst":"xylophone_v0_plucked_129","midi_source":""},{"t":89.876,"note":73,"dur":0.045,"vel":0.496,"inst":"xylophone_v0_plucked_129","midi_source":""},{"t":89.876,"note":82,"dur":0.045,"vel":0.496,"inst":"xylophone_v0_plucked_129","midi_source":""},{"t":89.876,"note":85,"dur":0.045,"vel":0.496,"inst":"xylophone_v0_plucked_129","midi_source":""},{"t":89.921,"note":49,"dur":0.045,"vel":0.496,"inst":"xylophone_v0_plucked_129","midi_source":""},{"t":89.921,"note":73,"dur":0.067,"vel":0.496,"inst":"xylophone_v0_plucked_129","midi_source":""},{"t":89.921,"note":82,"dur":0.067,"vel":0.496,"inst":"xylophone_v0_plucked_129","midi_source":""},{"t":89.921,"note":85,"dur":0.067,"vel":0.496,"inst":"xylophone_v0_plucked_129","midi_source":""},{"t":89.966,"note":53,"dur":0.045,"vel":0.496,"inst":"banjo_v0_plucked_142","midi_source":""},{"t":89.988,"note":65,"dur":0.246,"vel":0.496,"inst":"banjo_v0_plucked_142","midi_source":""},{"t":89.988,"note":79,"dur":0.246,"vel":0.496,"inst":"xylophone_v0_plucked_129","midi_source":""},{"t":89.988,"note":82,"dur":0.246,"vel":0.496,"inst":"xylophone_v0_plucked_129","midi_source":""},{"t":90.01,"note":55,"dur":0.045,"vel":0.496,"inst":"xylophone_v0_plucked_129","midi_source":""},{"t":90.055,"note":58,"dur":0.045,"vel":0.496,"inst":"xylophone_v0_plucked_129","midi_source":""},{"t":90.1,"note":61,"dur":0.045,"vel":0.496,"inst":"xylophone_v0_plucked_129","midi_source":""},{"t":90.144,"note":65,"dur":0.045,"vel":0.496,"inst":"banjo_v0_plucked_142","midi_source":""},{"t":90.189,"note":67,"dur":0.045,"vel":0.496,"inst":"xylophone_v0_plucked_129","midi_source":""},{"t":90.234,"note":49,"dur":0.045,"vel":0.496,"inst":"xylophone_v0_plucked_129","midi_source":""},{"t":90.234,"note":82,"dur":0.045,"vel":0.496,"inst":"xylophone_v0_plucked_129","midi_source":""},{"t":90.234,"note":85,"dur":0.045,"vel":0.496,"inst":"xylophone_v0_plucked_129","midi_source":""},{"t":90.279,"note":53,"dur":0.045,"vel":0.496,"inst":"banjo_v0_plucked_142","midi_source":""},{"t":90.279,"note":73,"dur":0.02,"vel":0.496,"inst":"xylophone_v0_plucked_129","midi_source":""},{"t":90.279,"note":79,"dur":0.045,"vel":0.496,"inst":"xylophone_v0_plucked_129","midi_source":""},{"t":90.279,"note":82,"dur":0.045,"vel":0.496,"inst":"xylophone_v0_plucked_129","midi_source":""},{"t":90.323,"note":43,"dur":0.045,"vel":0.496,"inst":"xylophone_v0_plucked_129","midi_source":""},{"t":90.323,"note":73,"dur":0.067,"vel":0.496,"inst":"xylophone_v0_plucked_129","midi_source":""},{"t":90.323,"note":79,"dur":0.067,"vel":0.496,"inst":"xylophone_v0_plucked_129","midi_source":""},{"t":90.323,"note":82,"dur":0.067,"vel":0.496,"inst":"xylophone_v0_plucked_129","midi_source":""},{"t":90.368,"note":58,"dur":0.045,"vel":0.496,"inst":"xylophone_v0_plucked_129","midi_source":""},{"t":90.391,"note":61,"dur":0.246,"vel":0.496,"inst":"xylophone_v0_plucked_129","midi_source":""},{"t":90.391,"note":67,"dur":0.201,"vel":0.496,"inst":"xylophone_v0_plucked_129","midi_source":""},{"t":90.391,"note":82,"dur":0.246,"vel":0.496,"inst":"xylophone_v0_plucked_129","midi_source":""},{"t":90.413,"note":61,"dur":0.045,"vel":0.496,"inst":"xylophone_v0_plucked_129","midi_source":""},{"t":90.458,"note":65,"dur":0.045,"vel":0.496,"inst":"banjo_v0_plucked_142","midi_source":""},{"t":90.502,"note":55,"dur":0.045,"vel":0.496,"inst":"xylophone_v0_plucked_129","midi_source":""},{"t":90.547,"note":70,"dur":0.045,"vel":0.496,"inst":"xylophone_v0_plucked_129","midi_source":""},{"t":90.592,"note":73,"dur":0.045,"vel":0.496,"inst":"xylophone_v0_plucked_129","midi_source":""},{"t":90.592,"note":67,"dur":0.045,"vel":0.496,"inst":"xylophone_v0_plucked_129","midi_source":""},{"t":90.637,"note":43,"dur":0.045,"vel":0.496,"inst":"xylophone_v0_plucked_129","midi_source":""},{"t":90.637,"note":70,"dur":0.045,"vel":0.496,"inst":"xylophone_v0_plucked_129","midi_source":""},{"t":90.637,"note":85,"dur":0.045,"vel":0.496,"inst":"xylophone_v0_plucked_129","midi_source":""},{"t":90.681,"note":55,"dur":0.045,"vel":0.496,"inst":"xylophone_v0_plucked_129","midi_source":""},{"t":90.681,"note":65,"dur":0.045,"vel":0.496,"inst":"banjo_v0_plucked_142","midi_source":""},{"t":90.681,"note":73,"dur":0.02,"vel":0.496,"inst":"xylophone_v0_plucked_129","midi_source":""},{"t":90.681,"note":82,"dur":0.045,"vel":0.496,"inst":"xylophone_v0_plucked_129","midi_source":""},{"t":90.726,"note":46,"dur":0.045,"vel":0.496,"inst":"xylophone_v0_plucked_129","midi_source":""},{"t":90.726,"note":55,"dur":0.313,"vel":0.496,"inst":"xylophone_v0_plucked_129","midi_source":""},{"t":90.726,"note":73,"dur":0.313,"vel":0.496,"inst":"xylophone_v0_plucked_129","midi_source":""},{"t":90.726,"note":82,"dur":0.067,"vel":0.496,"inst":"xylophone_v0_plucked_129","midi_source":""},{"t":90.771,"note":49,"dur":0.045,"vel":0.496,"inst":"xylophone_v0_plucked_129","midi_source":""},{"t":90.793,"note":82,"dur":0.067,"vel":0.496,"inst":"xylophone_v0_plucked_129","midi_source":""},{"t":90.815,"note":43,"dur":0.045,"vel":0.496,"inst":"xylophone_v0_plucked_129","midi_source":""},{"t":90.86,"note":58,"dur":0.045,"vel":0.496,"inst":"xylophone_v0_plucked_129","midi_source":""},{"t":90.86,"note":79,"dur":0.067,"vel":0.496,"inst":"xylophone_v0_plucked_129","midi_source":""},{"t":90.905,"note":61,"dur":0.045,"vel":0.496,"inst":"xylophone_v0_plucked_129","midi_source":""},{"t":90.927,"note":67,"dur":0.067,"vel":0.496,"inst":"xylophone_v0_plucked_129","midi_source":""},{"t":90.95,"note":55,"dur":0.045,"vel":0.496,"inst":"xylophone_v0_plucked_129","midi_source":""},{"t":90.994,"note":70,"dur":0.045,"vel":0.496,"inst":"xylophone_v0_plucked_129","midi_source":""},{"t":90.994,"note":86,"dur":0.045,"vel":0.496,"inst":"banjo_v0_plucked_142","midi_source":""},{"t":91.039,"note":58,"dur":0.045,"vel":0.496,"inst":"xylophone_v0_plucked_129","midi_source":""},{"t":91.039,"note":55,"dur":0.045,"vel":0.496,"inst":"xylophone_v0_plucked_129","midi_source":""},{"t":91.039,"note":73,"dur":0.045,"vel":0.496,"inst":"xylophone_v0_plucked_129","midi_source":""},{"t":91.039,"note":85,"dur":0.045,"vel":0.496,"inst":"xylophone_v0_plucked_129","midi_source":""},{"t":91.084,"note":46,"dur":0.045,"vel":0.496,"inst":"xylophone_v0_plucked_129","midi_source":""},{"t":91.084,"note":55,"dur":0.045,"vel":0.496,"inst":"xylophone_v0_plucked_129","midi_source":""},{"t":91.084,"note":70,"dur":0.045,"vel":0.496,"inst":"xylophone_v0_plucked_129","midi_source":""},{"t":91.084,"note":74,"dur":0.045,"vel":0.496,"inst":"banjo_v0_plucked_142","midi_source":""},{"t":91.129,"note":43,"dur":0.045,"vel":0.496,"inst":"xylophone_v0_plucked_129","midi_source":""},{"t":91.129,"note":65,"dur":0.045,"vel":0.496,"inst":"banjo_v0_plucked_142","midi_source":""},{"t":91.129,"note":70,"dur":0.045,"vel":0.496,"inst":"xylophone_v0_plucked_129","midi_source":""},{"t":91.129,"note":67,"dur":0.034,"vel":0.496,"inst":"xylophone_v0_plucked_129","midi_source":""},{"t":91.162,"note":77,"dur":0.034,"vel":0.496,"inst":"banjo_v0_plucked_142","midi_source":""},{"t":91.173,"note":49,"dur":0.045,"vel":0.496,"inst":"xylophone_v0_plucked_129","midi_source":""},{"t":91.173,"note":65,"dur":0.045,"vel":0.496,"inst":"banjo_v0_plucked_142","midi_source":""},{"t":91.173,"note":70,"dur":0.045,"vel":0.496,"inst":"xylophone_v0_plucked_129","midi_source":""},{"t":91.196,"note":82,"dur":0.034,"vel":0.496,"inst":"xylophone_v0_plucked_129","midi_source":""},{"t":91.218,"note":46,"dur":0.045,"vel":0.496,"inst":"xylophone_v0_plucked_129","midi_source":""},{"t":91.218,"note":73,"dur":0.045,"vel":0.496,"inst":"xylophone_v0_plucked_129","midi_source":""},{"t":91.218,"note":77,"dur":0.045,"vel":0.496,"inst":"banjo_v0_plucked_142","midi_source":""},{"t":91.229,"note":82,"dur":0.034,"vel":0.496,"inst":"xylophone_v0_plucked_129","midi_source":""},{"t":91.263,"note":46,"dur":0.045,"vel":0.992,"inst":"xylophone_v0_plucked_129","midi_source":""},{"t":91.263,"note":70,"dur":0.045,"vel":0.992,"inst":"xylophone_v0_plucked_129","midi_source":""},{"t":91.263,"note":77,"dur":0.045,"vel":0.992,"inst":"banjo_v0_plucked_142","midi_source":""},{"t":91.263,"note":79,"dur":0.134,"vel":0.992,"inst":"xylophone_v0_plucked_129","midi_source":""},{"t":91.308,"note":58,"dur":0.045,"vel":0.992,"inst":"xylophone_v0_plucked_129","midi_source":""},{"t":91.308,"note":67,"dur":0.045,"vel":0.992,"inst":"xylophone_v0_plucked_129","midi_source":""},{"t":91.308,"note":70,"dur":0.045,"vel":0.992,"inst":"xylophone_v0_plucked_129","midi_source":""},{"t":91.352,"note":46,"dur":0.045,"vel":0.992,"inst":"xylophone_v0_plucked_129","midi_source":""},{"t":91.352,"note":65,"dur":0.045,"vel":0.992,"inst":"banjo_v0_plucked_142","midi_source":""},{"t":91.352,"note":67,"dur":0.045,"vel":0.992,"inst":"xylophone_v0_plucked_129","midi_source":""},{"t":91.397,"note":46,"dur":0.045,"vel":0.992,"inst":"xylophone_v0_plucked_129","midi_source":""},{"t":91.397,"note":62,"dur":0.045,"vel":0.992,"inst":"banjo_v0_plucked_142","midi_source":""},{"t":91.397,"note":70,"dur":0.045,"vel":0.992,"inst":"xylophone_v0_plucked_129","midi_source":""},{"t":91.397,"note":67,"dur":0.045,"vel":0.992,"inst":"xylophone_v0_plucked_129","midi_source":""},{"t":91.442,"note":85,"dur":0.045,"vel":0.992,"inst":"xylophone_v0_plucked_129","midi_source":""},{"t":91.486,"note":46,"dur":0.02,"vel":0.992,"inst":"xylophone_v0_plucked_129","midi_source":""},{"t":91.486,"note":62,"dur":0.02,"vel":0.992,"inst":"banjo_v0_plucked_142","midi_source":""},{"t":91.486,"note":70,"dur":0.02,"vel":0.992,"inst":"xylophone_v0_plucked_129","midi_source":""},{"t":91.486,"note":82,"dur":0.045,"vel":0.992,"inst":"xylophone_v0_plucked_129","midi_source":""},{"t":91.531,"note":53,"dur":0.045,"vel":0.496,"inst":"banjo_v0_plucked_142","midi_source":""},{"t":91.531,"note":65,"dur":0.067,"vel":0.496,"inst":"banjo_v0_plucked_142","midi_source":""},{"t":91.531,"note":67,"dur":0.134,"vel":0.496,"inst":"xylophone_v0_plucked_129","midi_source":""},{"t":91.531,"note":77,"dur":0.134,"vel":0.496,"inst":"banjo_v0_plucked_142","midi_source":""},{"t":91.576,"note":43,"dur":0.045,"vel":0.496,"inst":"xylophone_v0_plucked_129","midi_source":""},{"t":91.621,"note":55,"dur":0.045,"vel":0.496,"inst":"xylophone_v0_plucked_129","midi_source":""},{"t":91.665,"note":53,"dur":0.268,"vel":0.496,"inst":"banjo_v0_plucked_142","midi_source":""},{"t":91.665,"note":58,"dur":0.268,"vel":0.496,"inst":"xylophone_v0_plucked_129","midi_source":""},{"t":91.665,"note":61,"dur":0.045,"vel":0.496,"inst":"xylophone_v0_plucked_129","midi_source":""},{"t":91.665,"note":73,"dur":0.201,"vel":0.496,"inst":"xylophone_v0_plucked_129","midi_source":""},{"t":91.71,"note":62,"dur":0.045,"vel":0.496,"inst":"banjo_v0_plucked_142","midi_source":""},{"t":91.755,"note":65,"dur":0.045,"vel":0.496,"inst":"banjo_v0_plucked_142","midi_source":""},{"t":91.8,"note":55,"dur":0.045,"vel":0.496,"inst":"xylophone_v0_plucked_129","midi_source":""},{"t":91.8,"note":55,"dur":0.134,"vel":0.496,"inst":"xylophone_v0_plucked_129","midi_source":""},{"t":91.844,"note":67,"dur":0.045,"vel":0.496,"inst":"xylophone_v0_plucked_129","midi_source":""},{"t":91.867,"note":67,"dur":0.067,"vel":0.496,"inst":"xylophone_v0_plucked_129","midi_source":""},{"t":91.889,"note":70,"dur":0.045,"vel":0.496,"inst":"xylophone_v0_plucked_129","midi_source":""},{"t":91.934,"note":53,"dur":0.045,"vel":0.496,"inst":"banjo_v0_plucked_142","midi_source":""},{"t":91.934,"note":58,"dur":0.045,"vel":0.496,"inst":"xylophone_v0_plucked_129","midi_source":""},{"t":91.934,"note":55,"dur":0.403,"vel":0.496,"inst":"xylophone_v0_plucked_129","midi_source":""},{"t":91.934,"note":70,"dur":0.403,"vel":0.496,"inst":"xylophone_v0_plucked_129","midi_source":""},{"t":91.934,"note":77,"dur":0.134,"vel":0.496,"inst":"banjo_v0_plucked_142","midi_source":""},{"t":92.023,"note":53,"dur":0.02,"vel":0.496,"inst":"banjo_v0_plucked_142","midi_source":""},{"t":92.023,"note":58,"dur":0.02,"vel":0.496,"inst":"xylophone_v0_plucked_129","midi_source":""},{"t":92.068,"note":58,"dur":0.045,"vel":0.496,"inst":"xylophone_v0_plucked_129","midi_source":""},{"t":92.068,"note":67,"dur":0.168,"vel":0.496,"inst":"xylophone_v0_plucked_129","midi_source":""},{"t":92.113,"note":60,"dur":0.045,"vel":0.496,"inst":"pad_string_v0_bass_416","midi_source":""},{"t":92.157,"note":62,"dur":0.045,"vel":0.496,"inst":"banjo_v0_plucked_142","midi_source":""},{"t":92.202,"note":49,"dur":0.134,"vel":0.496,"inst":"xylophone_v0_plucked_129","midi_source":""},{"t":92.202,"note":65,"dur":0.134,"vel":0.496,"inst":"banjo_v0_plucked_142","midi_source":""},{"t":92.202,"note":70,"dur":0.045,"vel":0.496,"inst":"xylophone_v0_plucked_129","midi_source":""},{"t":92.236,"note":79,"dur":0.034,"vel":0.496,"inst":"xylophone_v0_plucked_129","midi_source":""},{"t":92.247,"note":73,"dur":0.045,"vel":0.496,"inst":"xylophone_v0_plucked_129","midi_source":""},{"t":92.269,"note":79,"dur":0.034,"vel":0.496,"inst":"xylophone_v0_plucked_129","midi_source":""},{"t":92.292,"note":77,"dur":0.045,"vel":0.496,"inst":"banjo_v0_plucked_142","midi_source":""},{"t":92.303,"note":82,"dur":0.034,"vel":0.496,"inst":"xylophone_v0_plucked_129","midi_source":""},{"t":92.336,"note":48,"dur":0.045,"vel":0.496,"inst":"pad_string_v0_bass_416","midi_source":""},{"t":92.336,"note":62,"dur":0.045,"vel":0.496,"inst":"banjo_v0_plucked_142","midi_source":""},{"t":92.336,"note":74,"dur":0.045,"vel":0.496,"inst":"banjo_v0_plucked_142","midi_source":""},{"t":92.336,"note":79,"dur":0.179,"vel":0.496,"inst":"xylophone_v0_plucked_129","midi_source":""},{"t":92.381,"note":50,"dur":0.045,"vel":0.496,"inst":"banjo_v0_plucked_142","midi_source":""},{"t":92.426,"note":55,"dur":0.045,"vel":0.496,"inst":"xylophone_v0_plucked_129","midi_source":""},{"t":92.426,"note":55,"dur":0.02,"vel":0.496,"inst":"xylophone_v0_plucked_129","midi_source":""},{"t":92.426,"note":67,"dur":0.02,"vel":0.496,"inst":"xylophone_v0_plucked_129","midi_source":""},{"t":92.471,"note":49,"dur":0.045,"vel":0.496,"inst":"xylophone_v0_plucked_129","midi_source":""},{"t":92.471,"note":65,"dur":0.045,"vel":0.496,"inst":"banjo_v0_plucked_142","midi_source":""},{"t":92.471,"note":67,"dur":0.045,"vel":0.496,"inst":"xylophone_v0_plucked_129","midi_source":""},{"t":92.516,"note":50,"dur":0.045,"vel":0.496,"inst":"banjo_v0_plucked_142","midi_source":""},{"t":92.516,"note":55,"dur":0.045,"vel":0.496,"inst":"xylophone_v0_plucked_129","midi_source":""},{"t":92.516,"note":72,"dur":0.045,"vel":0.496,"inst":"pad_string_v0_bass_416","midi_source":""},{"t":92.516,"note":67,"dur":0.045,"vel":0.496,"inst":"xylophone_v0_plucked_129","midi_source":""},{"t":92.56,"note":53,"dur":0.045,"vel":0.496,"inst":"banjo_v0_plucked_142","midi_source":""},{"t":92.56,"note":67,"dur":0.045,"vel":0.496,"inst":"xylophone_v0_plucked_129","midi_source":""},{"t":92.56,"note":73,"dur":0.045,"vel":0.496,"inst":"xylophone_v0_plucked_129","midi_source":""},{"t":92.56,"note":77,"dur":0.045,"vel":0.496,"inst":"banjo_v0_plucked_142","midi_source":""},{"t":92.605,"note":43,"dur":0.045,"vel":0.496,"inst":"xylophone_v0_plucked_129","midi_source":""},{"t":92.605,"note":55,"dur":0.045,"vel":0.496,"inst":"xylophone_v0_plucked_129","midi_source":""},{"t":92.605,"note":70,"dur":0.045,"vel":0.496,"inst":"xylophone_v0_plucked_129","midi_source":""},{"t":92.605,"note":74,"dur":0.045,"vel":0.496,"inst":"banjo_v0_plucked_142","midi_source":""},{"t":92.65,"note":61,"dur":0.045,"vel":0.496,"inst":"xylophone_v0_plucked_129","midi_source":""},{"t":92.65,"note":77,"dur":0.045,"vel":0.496,"inst":"banjo_v0_plucked_142","midi_source":""},{"t":92.694,"note":43,"dur":0.02,"vel":0.496,"inst":"xylophone_v0_plucked_129","midi_source":""},{"t":92.694,"note":65,"dur":0.045,"vel":0.496,"inst":"banjo_v0_plucked_142","midi_source":""},{"t":92.694,"note":70,"dur":0.02,"vel":0.496,"inst":"xylophone_v0_plucked_129","midi_source":""},{"t":92.694,"note":73,"dur":0.045,"vel":0.496,"inst":"xylophone_v0_plucked_129","midi_source":""},{"t":92.739,"note":46,"dur":0.045,"vel":0.496,"inst":"xylophone_v0_plucked_129","midi_source":""},{"t":92.739,"note":65,"dur":0.045,"vel":0.496,"inst":"banjo_v0_plucked_142","midi_source":""},{"t":92.739,"note":70,"dur":0.045,"vel":0.496,"inst":"xylophone_v0_plucked_129","midi_source":""},{"t":92.739,"note":73,"dur":0.134,"vel":0.496,"inst":"xylophone_v0_plucked_129","midi_source":""},{"t":92.784,"note":43,"dur":0.045,"vel":0.496,"inst":"xylophone_v0_plucked_129","midi_source":""},{"t":92.784,"note":65,"dur":0.045,"vel":0.496,"inst":"banjo_v0_plucked_142","midi_source":""},{"t":92.784,"note":55,"dur":0.045,"vel":0.496,"inst":"xylophone_v0_plucked_129","midi_source":""},{"t":92.828,"note":58,"dur":0.045,"vel":0.496,"inst":"xylophone_v0_plucked_129","midi_source":""},{"t":92.828,"note":65,"dur":0.045,"vel":0.496,"inst":"banjo_v0_plucked_142","midi_source":""},{"t":92.828,"note":55,"dur":0.045,"vel":0.496,"inst":"xylophone_v0_plucked_129","midi_source":""},{"t":92.873,"note":58,"dur":0.268,"vel":0.496,"inst":"xylophone_v0_plucked_129","midi_source":""},{"t":92.873,"note":62,"dur":0.045,"vel":0.496,"inst":"banjo_v0_plucked_142","midi_source":""},{"t":92.873,"note":55,"dur":0.179,"vel":0.496,"inst":"xylophone_v0_plucked_129","midi_source":""},{"t":92.873,"note":70,"dur":0.134,"vel":0.496,"inst":"xylophone_v0_plucked_129","midi_source":""},{"t":92.918,"note":55,"dur":0.045,"vel":0.496,"inst":"xylophone_v0_plucked_129","midi_source":""},{"t":92.963,"note":70,"dur":0.045,"vel":0.496,"inst":"xylophone_v0_plucked_129","midi_source":""},{"t":93.007,"note":70,"dur":0.045,"vel":0.496,"inst":"xylophone_v0_plucked_129","midi_source":""},{"t":93.052,"note":62,"dur":0.045,"vel":0.496,"inst":"banjo_v0_plucked_142","midi_source":""},{"t":93.052,"note":55,"dur":0.045,"vel":0.496,"inst":"xylophone_v0_plucked_129","midi_source":""},{"t":93.097,"note":61,"dur":0.045,"vel":0.496,"inst":"xylophone_v0_plucked_129","midi_source":""},{"t":93.097,"note":65,"dur":0.045,"vel":0.496,"inst":"banjo_v0_plucked_142","midi_source":""},{"t":93.142,"note":58,"dur":0.045,"vel":0.496,"inst":"xylophone_v0_plucked_129","midi_source":""},{"t":93.142,"note":58,"dur":0.134,"vel":0.496,"inst":"xylophone_v0_plucked_129","midi_source":""},{"t":93.142,"note":62,"dur":0.134,"vel":0.496,"inst":"banjo_v0_plucked_142","midi_source":""},{"t":93.187,"note":62,"dur":0.045,"vel":0.496,"inst":"banjo_v0_plucked_142","midi_source":""},{"t":93.231,"note":55,"dur":0.045,"vel":0.496,"inst":"xylophone_v0_plucked_129","midi_source":""},{"t":93.276,"note":55,"dur":0.134,"vel":0.496,"inst":"xylophone_v0_plucked_129","midi_source":""},{"t":93.276,"note":58,"dur":0.045,"vel":0.496,"inst":"xylophone_v0_plucked_129","midi_source":""},{"t":93.276,"note":65,"dur":0.134,"vel":0.496,"inst":"banjo_v0_plucked_142","midi_source":""},{"t":93.276,"note":70,"dur":0.313,"vel":0.496,"inst":"xylophone_v0_plucked_129","midi_source":""},{"t":93.321,"note":62,"dur":0.045,"vel":0.496,"inst":"banjo_v0_plucked_142","midi_source":""},{"t":93.365,"note":67,"dur":0.045,"vel":0.496,"inst":"xylophone_v0_plucked_129","midi_source":""},{"t":93.41,"note":43,"dur":0.134,"vel":0.496,"inst":"xylophone_v0_plucked_129","midi_source":""},{"t":93.41,"note":55,"dur":0.045,"vel":0.496,"inst":"xylophone_v0_plucked_129","midi_source":""},{"t":93.41,"note":70,"dur":0.134,"vel":0.496,"inst":"xylophone_v0_plucked_129","midi_source":""},{"t":93.455,"note":70,"dur":0.045,"vel":0.496,"inst":"xylophone_v0_plucked_129","midi_source":""},{"t":93.499,"note":74,"dur":0.045,"vel":0.496,"inst":"banjo_v0_plucked_142","midi_source":""},{"t":93.544,"note":53,"dur":0.313,"vel":0.496,"inst":"banjo_v0_plucked_142","midi_source":""},{"t":93.544,"note":67,"dur":0.313,"vel":0.496,"inst":"xylophone_v0_plucked_129","midi_source":""},{"t":93.544,"note":77,"dur":0.313,"vel":0.496,"inst":"banjo_v0_plucked_142","midi_source":""},{"t":93.589,"note":65,"dur":0.045,"vel":0.496,"inst":"banjo_v0_plucked_142","midi_source":""},{"t":93.634,"note":55,"dur":0.045,"vel":0.496,"inst":"xylophone_v0_plucked_129","midi_source":""},{"t":93.679,"note":67,"dur":0.045,"vel":0.496,"inst":"xylophone_v0_plucked_129","midi_source":""},{"t":93.723,"note":70,"dur":0.045,"vel":0.496,"inst":"xylophone_v0_plucked_129","midi_source":""},{"t":93.768,"note":77,"dur":0.045,"vel":0.496,"inst":"banjo_v0_plucked_142","midi_source":""},{"t":93.813,"note":79,"dur":0.045,"vel":0.496,"inst":"xylophone_v0_plucked_129","midi_source":""},{"t":93.858,"note":46,"dur":0.045,"vel":0.496,"inst":"xylophone_v0_plucked_129","midi_source":""},{"t":93.858,"note":67,"dur":0.045,"vel":0.496,"inst":"xylophone_v0_plucked_129","midi_source":""},{"t":93.858,"note":70,"dur":0.045,"vel":0.496,"inst":"xylophone_v0_plucked_129","midi_source":""},{"t":93.858,"note":82,"dur":0.045,"vel":0.496,"inst":"xylophone_v0_plucked_129","midi_source":""},{"t":93.902,"note":49,"dur":0.045,"vel":0.496,"inst":"xylophone_v0_plucked_129","midi_source":""},{"t":93.902,"note":55,"dur":0.045,"vel":0.496,"inst":"xylophone_v0_plucked_129","midi_source":""},{"t":93.902,"note":70,"dur":0.045,"vel":0.496,"inst":"xylophone_v0_plucked_129","midi_source":""},{"t":93.902,"note":82,"dur":0.045,"vel":0.496,"inst":"xylophone_v0_plucked_129","midi_source":""},{"t":93.947,"note":50,"dur":0.067,"vel":0.496,"inst":"banjo_v0_plucked_142","midi_source":""},{"t":93.947,"note":65,"dur":0.134,"vel":0.496,"inst":"banjo_v0_plucked_142","midi_source":""},{"t":93.947,"note":67,"dur":0.134,"vel":0.496,"inst":"xylophone_v0_plucked_129","midi_source":""},{"t":93.947,"note":79,"dur":0.134,"vel":0.496,"inst":"xylophone_v0_plucked_129","midi_source":""},{"t":94.014,"note":58,"dur":0.067,"vel":0.496,"inst":"xylophone_v0_plucked_129","midi_source":""},{"t":94.081,"note":49,"dur":0.134,"vel":0.496,"inst":"xylophone_v0_plucked_129","midi_source":""},{"t":94.081,"note":58,"dur":0.045,"vel":0.496,"inst":"xylophone_v0_plucked_129","midi_source":""},{"t":94.081,"note":65,"dur":0.134,"vel":0.496,"inst":"banjo_v0_plucked_142","midi_source":""},{"t":94.081,"note":82,"dur":0.134,"vel":0.496,"inst":"xylophone_v0_plucked_129","midi_source":""},{"t":94.126,"note":61,"dur":0.045,"vel":0.496,"inst":"xylophone_v0_plucked_129","midi_source":""},{"t":94.171,"note":65,"dur":0.045,"vel":0.496,"inst":"banjo_v0_plucked_142","midi_source":""},{"t":94.215,"note":46,"dur":0.134,"vel":0.496,"inst":"xylophone_v0_plucked_129","midi_source":""},{"t":94.215,"note":62,"dur":0.134,"vel":0.496,"inst":"banjo_v0_plucked_142","midi_source":""},{"t":94.215,"note":67,"dur":0.045,"vel":0.496,"inst":"xylophone_v0_plucked_129","midi_source":""},{"t":94.215,"note":82,"dur":0.134,"vel":0.496,"inst":"xylophone_v0_plucked_129","midi_source":""},{"t":94.26,"note":70,"dur":0.045,"vel":0.496,"inst":"xylophone_v0_plucked_129","midi_source":""},{"t":94.305,"note":77,"dur":0.045,"vel":0.496,"inst":"banjo_v0_plucked_142","midi_source":""},{"t":94.35,"note":46,"dur":0.045,"vel":0.496,"inst":"xylophone_v0_plucked_129","midi_source":""},{"t":94.35,"note":61,"dur":0.134,"vel":0.496,"inst":"xylophone_v0_plucked_129","midi_source":""},{"t":94.35,"note":77,"dur":0.067,"vel":0.496,"inst":"banjo_v0_plucked_142","midi_source":""},{"t":94.35,"note":85,"dur":0.313,"vel":0.496,"inst":"xylophone_v0_plucked_129","midi_source":""},{"t":94.394,"note":49,"dur":0.045,"vel":0.496,"inst":"xylophone_v0_plucked_129","midi_source":""},{"t":94.417,"note":82,"dur":0.246,"vel":0.496,"inst":"xylophone_v0_plucked_129","midi_source":""},{"t":94.439,"note":53,"dur":0.045,"vel":0.496,"inst":"banjo_v0_plucked_142","midi_source":""},{"t":94.484,"note":55,"dur":0.045,"vel":0.496,"inst":"xylophone_v0_plucked_129","midi_source":""},{"t":94.484,"note":65,"dur":0.134,"vel":0.496,"inst":"banjo_v0_plucked_142","midi_source":""},{"t":94.529,"note":58,"dur":0.045,"vel":0.496,"inst":"xylophone_v0_plucked_129","midi_source":""},{"t":94.573,"note":61,"dur":0.045,"vel":0.496,"inst":"xylophone_v0_plucked_129","midi_source":""},{"t":94.618,"note":65,"dur":0.045,"vel":0.496,"inst":"banjo_v0_plucked_142","midi_source":""},{"t":94.618,"note":73,"dur":0.045,"vel":0.496,"inst":"xylophone_v0_plucked_129","midi_source":""},{"t":94.663,"note":67,"dur":0.045,"vel":0.496,"inst":"xylophone_v0_plucked_129","midi_source":""},{"t":94.663,"note":70,"dur":0.045,"vel":0.496,"inst":"xylophone_v0_plucked_129","midi_source":""},{"t":94.663,"note":82,"dur":0.045,"vel":0.496,"inst":"xylophone_v0_plucked_129","midi_source":""},{"t":94.663,"note":86,"dur":0.045,"vel":0.496,"inst":"banjo_v0_plucked_142","midi_source":""},{"t":94.707,"note":70,"dur":0.045,"vel":0.496,"inst":"xylophone_v0_plucked_129","midi_source":""},{"t":94.707,"note":73,"dur":0.045,"vel":0.496,"inst":"xylophone_v0_plucked_129","midi_source":""},{"t":94.707,"note":82,"dur":0.045,"vel":0.496,"inst":"xylophone_v0_plucked_129","midi_source":""},{"t":94.707,"note":85,"dur":0.045,"vel":0.496,"inst":"xylophone_v0_plucked_129","midi_source":""},{"t":94.752,"note":49,"dur":0.045,"vel":0.496,"inst":"xylophone_v0_plucked_129","midi_source":""},{"t":94.752,"note":73,"dur":0.067,"vel":0.496,"inst":"xylophone_v0_plucked_129","midi_source":""},{"t":94.752,"note":82,"dur":0.067,"vel":0.496,"inst":"xylophone_v0_plucked_129","midi_source":""},{"t":94.752,"note":85,"dur":0.067,"vel":0.496,"inst":"xylophone_v0_plucked_129","midi_source":""},{"t":94.797,"note":53,"dur":0.045,"vel":0.496,"inst":"banjo_v0_plucked_142","midi_source":""},{"t":94.819,"note":65,"dur":0.246,"vel":0.496,"inst":"banjo_v0_plucked_142","midi_source":""},{"t":94.819,"note":79,"dur":0.246,"vel":0.496,"inst":"xylophone_v0_plucked_129","midi_source":""},{"t":94.819,"note":82,"dur":0.246,"vel":0.496,"inst":"xylophone_v0_plucked_129","midi_source":""},{"t":94.842,"note":55,"dur":0.045,"vel":0.496,"inst":"xylophone_v0_plucked_129","midi_source":""},{"t":94.886,"note":58,"dur":0.045,"vel":0.496,"inst":"xylophone_v0_plucked_129","midi_source":""},{"t":94.931,"note":61,"dur":0.045,"vel":0.496,"inst":"xylophone_v0_plucked_129","midi_source":""},{"t":94.976,"note":65,"dur":0.045,"vel":0.496,"inst":"banjo_v0_plucked_142","midi_source":""},{"t":95.021,"note":67,"dur":0.045,"vel":0.496,"inst":"xylophone_v0_plucked_129","midi_source":""},{"t":95.065,"note":49,"dur":0.045,"vel":0.496,"inst":"xylophone_v0_plucked_129","midi_source":""},{"t":95.065,"note":82,"dur":0.045,"vel":0.496,"inst":"xylophone_v0_plucked_129","midi_source":""},{"t":95.065,"note":85,"dur":0.045,"vel":0.496,"inst":"xylophone_v0_plucked_129","midi_source":""},{"t":95.11,"note":53,"dur":0.045,"vel":0.496,"inst":"banjo_v0_plucked_142","midi_source":""},{"t":95.11,"note":73,"dur":0.02,"vel":0.496,"inst":"xylophone_v0_plucked_129","midi_source":""},{"t":95.11,"note":79,"dur":0.045,"vel":0.496,"inst":"xylophone_v0_plucked_129","midi_source":""},{"t":95.11,"note":82,"dur":0.045,"vel":0.496,"inst":"xylophone_v0_plucked_129","midi_source":""},{"t":95.155,"note":43,"dur":0.045,"vel":0.496,"inst":"xylophone_v0_plucked_129","midi_source":""},{"t":95.155,"note":73,"dur":0.067,"vel":0.496,"inst":"xylophone_v0_plucked_129","midi_source":""},{"t":95.155,"note":79,"dur":0.067,"vel":0.496,"inst":"xylophone_v0_plucked_129","midi_source":""},{"t":95.155,"note":82,"dur":0.067,"vel":0.496,"inst":"xylophone_v0_plucked_129","midi_source":""},{"t":95.2,"note":58,"dur":0.045,"vel":0.496,"inst":"xylophone_v0_plucked_129","midi_source":""},{"t":95.222,"note":61,"dur":0.246,"vel":0.496,"inst":"xylophone_v0_plucked_129","midi_source":""},{"t":95.222,"note":67,"dur":0.201,"vel":0.496,"inst":"xylophone_v0_plucked_129","midi_source":""},{"t":95.222,"note":82,"dur":0.246,"vel":0.496,"inst":"xylophone_v0_plucked_129","midi_source":""},{"t":95.244,"note":61,"dur":0.045,"vel":0.496,"inst":"xylophone_v0_plucked_129","midi_source":""},{"t":95.289,"note":65,"dur":0.045,"vel":0.496,"inst":"banjo_v0_plucked_142","midi_source":""},{"t":95.334,"note":55,"dur":0.045,"vel":0.496,"inst":"xylophone_v0_plucked_129","midi_source":""},{"t":95.378,"note":70,"dur":0.045,"vel":0.496,"inst":"xylophone_v0_plucked_129","midi_source":""},{"t":95.423,"note":73,"dur":0.045,"vel":0.496,"inst":"xylophone_v0_plucked_129","midi_source":""},{"t":95.423,"note":67,"dur":0.045,"vel":0.496,"inst":"xylophone_v0_plucked_129","midi_source":""},{"t":95.468,"note":43,"dur":0.045,"vel":0.496,"inst":"xylophone_v0_plucked_129","midi_source":""},{"t":95.468,"note":70,"dur":0.045,"vel":0.496,"inst":"xylophone_v0_plucked_129","midi_source":""},{"t":95.468,"note":85,"dur":0.045,"vel":0.496,"inst":"xylophone_v0_plucked_129","midi_source":""},{"t":95.513,"note":55,"dur":0.045,"vel":0.496,"inst":"xylophone_v0_plucked_129","midi_source":""},{"t":95.513,"note":65,"dur":0.045,"vel":0.496,"inst":"banjo_v0_plucked_142","midi_source":""},{"t":95.513,"note":73,"dur":0.02,"vel":0.496,"inst":"xylophone_v0_plucked_129","midi_source":""},{"t":95.513,"note":82,"dur":0.045,"vel":0.496,"inst":"xylophone_v0_plucked_129","midi_source":""},{"t":95.557,"note":46,"dur":0.045,"vel":0.496,"inst":"xylophone_v0_plucked_129","midi_source":""},{"t":95.557,"note":55,"dur":0.313,"vel":0.496,"inst":"xylophone_v0_plucked_129","midi_source":""},{"t":95.557,"note":73,"dur":0.313,"vel":0.496,"inst":"xylophone_v0_plucked_129","midi_source":""},{"t":95.557,"note":82,"dur":0.067,"vel":0.496,"inst":"xylophone_v0_plucked_129","midi_source":""},{"t":95.602,"note":49,"dur":0.045,"vel":0.496,"inst":"xylophone_v0_plucked_129","midi_source":""},{"t":95.624,"note":82,"dur":0.067,"vel":0.496,"inst":"xylophone_v0_plucked_129","midi_source":""},{"t":95.647,"note":43,"dur":0.045,"vel":0.496,"inst":"xylophone_v0_plucked_129","midi_source":""},{"t":95.692,"note":58,"dur":0.045,"vel":0.496,"inst":"xylophone_v0_plucked_129","midi_source":""},{"t":95.692,"note":79,"dur":0.067,"vel":0.496,"inst":"xylophone_v0_plucked_129","midi_source":""},{"t":95.736,"note":61,"dur":0.045,"vel":0.496,"inst":"xylophone_v0_plucked_129","midi_source":""},{"t":95.759,"note":67,"dur":0.067,"vel":0.496,"inst":"xylophone_v0_plucked_129","midi_source":""},{"t":95.781,"note":55,"dur":0.045,"vel":0.496,"inst":"xylophone_v0_plucked_129","midi_source":""},{"t":95.826,"note":70,"dur":0.045,"vel":0.496,"inst":"xylophone_v0_plucked_129","midi_source":""},{"t":95.826,"note":86,"dur":0.045,"vel":0.496,"inst":"banjo_v0_plucked_142","midi_source":""},{"t":95.871,"note":58,"dur":0.045,"vel":0.496,"inst":"xylophone_v0_plucked_129","midi_source":""},{"t":95.871,"note":55,"dur":0.045,"vel":0.496,"inst":"xylophone_v0_plucked_129","midi_source":""},{"t":95.871,"note":73,"dur":0.045,"vel":0.496,"inst":"xylophone_v0_plucked_129","midi_source":""},{"t":95.871,"note":85,"dur":0.045,"vel":0.496,"inst":"xylophone_v0_plucked_129","midi_source":""},{"t":95.915,"note":46,"dur":0.045,"vel":0.496,"inst":"xylophone_v0_plucked_129","midi_source":""},{"t":95.915,"note":55,"dur":0.045,"vel":0.496,"inst":"xylophone_v0_plucked_129","midi_source":""},{"t":95.915,"note":70,"dur":0.045,"vel":0.496,"inst":"xylophone_v0_plucked_129","midi_source":""},{"t":95.915,"note":74,"dur":0.045,"vel":0.496,"inst":"banjo_v0_plucked_142","midi_source":""},{"t":95.96,"note":43,"dur":0.045,"vel":0.496,"inst":"xylophone_v0_plucked_129","midi_source":""},{"t":95.96,"note":65,"dur":0.045,"vel":0.496,"inst":"banjo_v0_plucked_142","midi_source":""},{"t":95.96,"note":70,"dur":0.045,"vel":0.496,"inst":"xylophone_v0_plucked_129","midi_source":""},{"t":95.96,"note":67,"dur":0.034,"vel":0.496,"inst":"xylophone_v0_plucked_129","midi_source":""},{"t":95.994,"note":77,"dur":0.034,"vel":0.496,"inst":"banjo_v0_plucked_142","midi_source":""},{"t":96.005,"note":49,"dur":0.045,"vel":0.496,"inst":"xylophone_v0_plucked_129","midi_source":""},{"t":96.005,"note":65,"dur":0.045,"vel":0.496,"inst":"banjo_v0_plucked_142","midi_source":""},{"t":96.005,"note":70,"dur":0.045,"vel":0.496,"inst":"xylophone_v0_plucked_129","midi_source":""},{"t":96.027,"note":82,"dur":0.034,"vel":0.496,"inst":"xylophone_v0_plucked_129","midi_source":""},{"t":96.049,"note":46,"dur":0.045,"vel":0.496,"inst":"xylophone_v0_plucked_129","midi_source":""},{"t":96.049,"note":73,"dur":0.045,"vel":0.496,"inst":"xylophone_v0_plucked_129","midi_source":""},{"t":96.049,"note":77,"dur":0.045,"vel":0.496,"inst":"banjo_v0_plucked_142","midi_source":""},{"t":96.061,"note":82,"dur":0.034,"vel":0.496,"inst":"xylophone_v0_plucked_129","midi_source":""},{"t":96.094,"note":46,"dur":0.045,"vel":0.992,"inst":"xylophone_v0_plucked_129","midi_source":""},{"t":96.094,"note":70,"dur":0.045,"vel":0.992,"inst":"xylophone_v0_plucked_129","midi_source":""},{"t":96.094,"note":77,"dur":0.045,"vel":0.992,"inst":"banjo_v0_plucked_142","midi_source":""},{"t":96.094,"note":79,"dur":0.134,"vel":0.992,"inst":"xylophone_v0_plucked_129","midi_source":""},{"t":96.139,"note":58,"dur":0.045,"vel":0.992,"inst":"xylophone_v0_plucked_129","midi_source":""},{"t":96.139,"note":67,"dur":0.045,"vel":0.992,"inst":"xylophone_v0_plucked_129","midi_source":""},{"t":96.139,"note":70,"dur":0.045,"vel":0.992,"inst":"xylophone_v0_plucked_129","midi_source":""},{"t":96.184,"note":46,"dur":0.045,"vel":0.992,"inst":"xylophone_v0_plucked_129","midi_source":""},{"t":96.184,"note":65,"dur":0.045,"vel":0.992,"inst":"banjo_v0_plucked_142","midi_source":""},{"t":96.184,"note":67,"dur":0.045,"vel":0.992,"inst":"xylophone_v0_plucked_129","midi_source":""},{"t":96.228,"note":46,"dur":0.045,"vel":0.992,"inst":"xylophone_v0_plucked_129","midi_source":""},{"t":96.228,"note":62,"dur":0.045,"vel":0.992,"inst":"banjo_v0_plucked_142","midi_source":""},{"t":96.228,"note":70,"dur":0.045,"vel":0.992,"inst":"xylophone_v0_plucked_129","midi_source":""},{"t":96.228,"note":67,"dur":0.045,"vel":0.992,"inst":"xylophone_v0_plucked_129","midi_source":""},{"t":96.273,"note":85,"dur":0.045,"vel":0.992,"inst":"xylophone_v0_plucked_129","midi_source":""},{"t":96.318,"note":46,"dur":0.02,"vel":0.992,"inst":"xylophone_v0_plucked_129","midi_source":""},{"t":96.318,"note":62,"dur":0.02,"vel":0.992,"inst":"banjo_v0_plucked_142","midi_source":""},{"t":96.318,"note":70,"dur":0.02,"vel":0.992,"inst":"xylophone_v0_plucked_129","midi_source":""},{"t":96.318,"note":82,"dur":0.045,"vel":0.992,"inst":"xylophone_v0_plucked_129","midi_source":""},{"t":96.363,"note":53,"dur":0.045,"vel":0.496,"inst":"banjo_v0_plucked_142","midi_source":""},{"t":96.363,"note":65,"dur":0.067,"vel":0.496,"inst":"banjo_v0_plucked_142","midi_source":""},{"t":96.363,"note":67,"dur":0.134,"vel":0.496,"inst":"xylophone_v0_plucked_129","midi_source":""},{"t":96.363,"note":77,"dur":0.134,"vel":0.496,"inst":"banjo_v0_plucked_142","midi_source":""},{"t":96.407,"note":43,"dur":0.045,"vel":0.496,"inst":"xylophone_v0_plucked_129","midi_source":""},{"t":96.452,"note":55,"dur":0.045,"vel":0.496,"inst":"xylophone_v0_plucked_129","midi_source":""},{"t":96.497,"note":53,"dur":0.268,"vel":0.496,"inst":"banjo_v0_plucked_142","midi_source":""},{"t":96.497,"note":58,"dur":0.268,"vel":0.496,"inst":"xylophone_v0_plucked_129","midi_source":""},{"t":96.497,"note":61,"dur":0.045,"vel":0.496,"inst":"xylophone_v0_plucked_129","midi_source":""},{"t":96.497,"note":73,"dur":0.201,"vel":0.496,"inst":"xylophone_v0_plucked_129","midi_source":""},{"t":96.542,"note":62,"dur":0.045,"vel":0.496,"inst":"banjo_v0_plucked_142","midi_source":""},{"t":96.586,"note":65,"dur":0.045,"vel":0.496,"inst":"banjo_v0_plucked_142","midi_source":""},{"t":96.631,"note":55,"dur":0.045,"vel":0.496,"inst":"xylophone_v0_plucked_129","midi_source":""},{"t":96.631,"note":55,"dur":0.134,"vel":0.496,"inst":"xylophone_v0_plucked_129","midi_source":""},{"t":96.676,"note":67,"dur":0.045,"vel":0.496,"inst":"xylophone_v0_plucked_129","midi_source":""},{"t":96.698,"note":67,"dur":0.067,"vel":0.496,"inst":"xylophone_v0_plucked_129","midi_source":""},{"t":96.72,"note":70,"dur":0.045,"vel":0.496,"inst":"xylophone_v0_plucked_129","midi_source":""},{"t":96.765,"note":53,"dur":0.045,"vel":0.496,"inst":"banjo_v0_plucked_142","midi_source":""},{"t":96.765,"note":58,"dur":0.045,"vel":0.496,"inst":"xylophone_v0_plucked_129","midi_source":""},{"t":96.765,"note":55,"dur":0.403,"vel":0.496,"inst":"xylophone_v0_plucked_129","midi_source":""},{"t":96.765,"note":70,"dur":0.403,"vel":0.496,"inst":"xylophone_v0_plucked_129","midi_source":""},{"t":96.765,"note":77,"dur":0.134,"vel":0.496,"inst":"banjo_v0_plucked_142","midi_source":""},{"t":96.855,"note":53,"dur":0.02,"vel":0.496,"inst":"banjo_v0_plucked_142","midi_source":""},{"t":96.855,"note":58,"dur":0.02,"vel":0.496,"inst":"xylophone_v0_plucked_129","midi_source":""},{"t":96.899,"note":58,"dur":0.045,"vel":0.496,"inst":"xylophone_v0_plucked_129","midi_source":""},{"t":96.899,"note":67,"dur":0.168,"vel":0.496,"inst":"xylophone_v0_plucked_129","midi_source":""},{"t":96.944,"note":60,"dur":0.045,"vel":0.496,"inst":"pad_string_v0_bass_416","midi_source":""},{"t":96.989,"note":62,"dur":0.045,"vel":0.496,"inst":"banjo_v0_plucked_142","midi_source":""},{"t":97.034,"note":49,"dur":0.134,"vel":0.496,"inst":"xylophone_v0_plucked_129","midi_source":""},{"t":97.034,"note":65,"dur":0.134,"vel":0.496,"inst":"banjo_v0_plucked_142","midi_source":""},{"t":97.034,"note":70,"dur":0.045,"vel":0.496,"inst":"xylophone_v0_plucked_129","midi_source":""},{"t":97.067,"note":79,"dur":0.034,"vel":0.496,"inst":"xylophone_v0_plucked_129","midi_source":""},{"t":97.078,"note":73,"dur":0.045,"vel":0.496,"inst":"xylophone_v0_plucked_129","midi_source":""},{"t":97.101,"note":79,"dur":0.034,"vel":0.496,"inst":"xylophone_v0_plucked_129","midi_source":""},{"t":97.123,"note":77,"dur":0.045,"vel":0.496,"inst":"banjo_v0_plucked_142","midi_source":""},{"t":97.134,"note":82,"dur":0.034,"vel":0.496,"inst":"xylophone_v0_plucked_129","midi_source":""},{"t":97.168,"note":48,"dur":0.045,"vel":0.496,"inst":"pad_string_v0_bass_416","midi_source":""},{"t":97.168,"note":62,"dur":0.045,"vel":0.496,"inst":"banjo_v0_plucked_142","midi_source":""},{"t":97.168,"note":74,"dur":0.045,"vel":0.496,"inst":"banjo_v0_plucked_142","midi_source":""},{"t":97.168,"note":79,"dur":0.179,"vel":0.496,"inst":"xylophone_v0_plucked_129","midi_source":""},{"t":97.213,"note":50,"dur":0.045,"vel":0.496,"inst":"banjo_v0_plucked_142","midi_source":""},{"t":97.257,"note":55,"dur":0.045,"vel":0.496,"inst":"xylophone_v0_plucked_129","midi_source":""},{"t":97.257,"note":55,"dur":0.02,"vel":0.496,"inst":"xylophone_v0_plucked_129","midi_source":""},{"t":97.257,"note":67,"dur":0.02,"vel":0.496,"inst":"xylophone_v0_plucked_129","midi_source":""},{"t":97.302,"note":49,"dur":0.045,"vel":0.496,"inst":"xylophone_v0_plucked_129","midi_source":""},{"t":97.302,"note":65,"dur":0.045,"vel":0.496,"inst":"banjo_v0_plucked_142","midi_source":""},{"t":97.302,"note":67,"dur":0.045,"vel":0.496,"inst":"xylophone_v0_plucked_129","midi_source":""},{"t":97.347,"note":50,"dur":0.045,"vel":0.496,"inst":"banjo_v0_plucked_142","midi_source":""},{"t":97.347,"note":55,"dur":0.045,"vel":0.496,"inst":"xylophone_v0_plucked_129","midi_source":""},{"t":97.347,"note":72,"dur":0.045,"vel":0.496,"inst":"pad_string_v0_bass_416","midi_source":""},{"t":97.347,"note":67,"dur":0.045,"vel":0.496,"inst":"xylophone_v0_plucked_129","midi_source":""},{"t":97.391,"note":53,"dur":0.045,"vel":0.496,"inst":"banjo_v0_plucked_142","midi_source":""},{"t":97.391,"note":67,"dur":0.045,"vel":0.496,"inst":"xylophone_v0_plucked_129","midi_source":""},{"t":97.391,"note":73,"dur":0.045,"vel":0.496,"inst":"xylophone_v0_plucked_129","midi_source":""},{"t":97.391,"note":77,"dur":0.045,"vel":0.496,"inst":"banjo_v0_plucked_142","midi_source":""},{"t":97.436,"note":43,"dur":0.045,"vel":0.496,"inst":"xylophone_v0_plucked_129","midi_source":""},{"t":97.436,"note":55,"dur":0.045,"vel":0.496,"inst":"xylophone_v0_plucked_129","midi_source":""},{"t":97.436,"note":70,"dur":0.045,"vel":0.496,"inst":"xylophone_v0_plucked_129","midi_source":""},{"t":97.436,"note":74,"dur":0.045,"vel":0.496,"inst":"banjo_v0_plucked_142","midi_source":""},{"t":97.481,"note":61,"dur":0.045,"vel":0.496,"inst":"xylophone_v0_plucked_129","midi_source":""},{"t":97.481,"note":77,"dur":0.045,"vel":0.496,"inst":"banjo_v0_plucked_142","midi_source":""},{"t":97.526,"note":43,"dur":0.02,"vel":0.496,"inst":"xylophone_v0_plucked_129","midi_source":""},{"t":97.526,"note":65,"dur":0.045,"vel":0.496,"inst":"banjo_v0_plucked_142","midi_source":""},{"t":97.526,"note":70,"dur":0.02,"vel":0.496,"inst":"xylophone_v0_plucked_129","midi_source":""},{"t":97.526,"note":73,"dur":0.045,"vel":0.496,"inst":"xylophone_v0_plucked_129","midi_source":""},{"t":97.57,"note":46,"dur":0.045,"vel":0.496,"inst":"xylophone_v0_plucked_129","midi_source":""},{"t":97.57,"note":65,"dur":0.045,"vel":0.496,"inst":"banjo_v0_plucked_142","midi_source":""},{"t":97.57,"note":70,"dur":0.045,"vel":0.496,"inst":"xylophone_v0_plucked_129","midi_source":""},{"t":97.57,"note":73,"dur":0.134,"vel":0.496,"inst":"xylophone_v0_plucked_129","midi_source":""},{"t":97.615,"note":43,"dur":0.045,"vel":0.496,"inst":"xylophone_v0_plucked_129","midi_source":""},{"t":97.615,"note":65,"dur":0.045,"vel":0.496,"inst":"banjo_v0_plucked_142","midi_source":""},{"t":97.615,"note":55,"dur":0.045,"vel":0.496,"inst":"xylophone_v0_plucked_129","midi_source":""},{"t":97.66,"note":58,"dur":0.045,"vel":0.496,"inst":"xylophone_v0_plucked_129","midi_source":""},{"t":97.66,"note":65,"dur":0.045,"vel":0.496,"inst":"banjo_v0_plucked_142","midi_source":""},{"t":97.66,"note":55,"dur":0.045,"vel":0.496,"inst":"xylophone_v0_plucked_129","midi_source":""},{"t":97.705,"note":58,"dur":0.268,"vel":0.496,"inst":"xylophone_v0_plucked_129","midi_source":""},{"t":97.705,"note":62,"dur":0.045,"vel":0.496,"inst":"banjo_v0_plucked_142","midi_source":""},{"t":97.705,"note":55,"dur":0.179,"vel":0.496,"inst":"xylophone_v0_plucked_129","midi_source":""},{"t":97.705,"note":70,"dur":0.134,"vel":0.496,"inst":"xylophone_v0_plucked_129","midi_source":""},{"t":97.749,"note":55,"dur":0.045,"vel":0.496,"inst":"xylophone_v0_plucked_129","midi_source":""},{"t":97.794,"note":70,"dur":0.045,"vel":0.496,"inst":"xylophone_v0_plucked_129","midi_source":""},{"t":97.839,"note":70,"dur":0.045,"vel":0.496,"inst":"xylophone_v0_plucked_129","midi_source":""},{"t":97.884,"note":62,"dur":0.045,"vel":0.496,"inst":"banjo_v0_plucked_142","midi_source":""},{"t":97.884,"note":55,"dur":0.045,"vel":0.496,"inst":"xylophone_v0_plucked_129","midi_source":""},{"t":97.928,"note":61,"dur":0.045,"vel":0.496,"inst":"xylophone_v0_plucked_129","midi_source":""},{"t":97.928,"note":65,"dur":0.045,"vel":0.496,"inst":"banjo_v0_plucked_142","midi_source":""},{"t":97.973,"note":58,"dur":0.045,"vel":0.496,"inst":"xylophone_v0_plucked_129","midi_source":""},{"t":97.973,"note":58,"dur":0.134,"vel":0.496,"inst":"xylophone_v0_plucked_129","midi_source":""},{"t":97.973,"note":62,"dur":0.134,"vel":0.496,"inst":"banjo_v0_plucked_142","midi_source":""},{"t":98.018,"note":62,"dur":0.045,"vel":0.496,"inst":"banjo_v0_plucked_142","midi_source":""},{"t":98.062,"note":55,"dur":0.045,"vel":0.496,"inst":"xylophone_v0_plucked_129","midi_source":""},{"t":98.107,"note":55,"dur":0.134,"vel":0.496,"inst":"xylophone_v0_plucked_129","midi_source":""},{"t":98.107,"note":58,"dur":0.045,"vel":0.496,"inst":"xylophone_v0_plucked_129","midi_source":""},{"t":98.107,"note":65,"dur":0.134,"vel":0.496,"inst":"banjo_v0_plucked_142","midi_source":""},{"t":98.107,"note":70,"dur":0.313,"vel":0.496,"inst":"xylophone_v0_plucked_129","midi_source":""},{"t":98.152,"note":62,"dur":0.045,"vel":0.496,"inst":"banjo_v0_plucked_142","midi_source":""},{"t":98.197,"note":67,"dur":0.045,"vel":0.496,"inst":"xylophone_v0_plucked_129","midi_source":""},{"t":98.241,"note":43,"dur":0.134,"vel":0.496,"inst":"xylophone_v0_plucked_129","midi_source":""},{"t":98.241,"note":55,"dur":0.045,"vel":0.496,"inst":"xylophone_v0_plucked_129","midi_source":""},{"t":98.241,"note":70,"dur":0.134,"vel":0.496,"inst":"xylophone_v0_plucked_129","midi_source":""},{"t":98.286,"note":70,"dur":0.045,"vel":0.496,"inst":"xylophone_v0_plucked_129","midi_source":""},{"t":98.331,"note":74,"dur":0.045,"vel":0.496,"inst":"banjo_v0_plucked_142","midi_source":""},{"t":98.376,"note":53,"dur":0.313,"vel":0.496,"inst":"banjo_v0_plucked_142","midi_source":""},{"t":98.376,"note":67,"dur":0.313,"vel":0.496,"inst":"xylophone_v0_plucked_129","midi_source":""},{"t":98.376,"note":77,"dur":0.313,"vel":0.496,"inst":"banjo_v0_plucked_142","midi_source":""},{"t":98.421,"note":65,"dur":0.045,"vel":0.496,"inst":"banjo_v0_plucked_142","midi_source":""},{"t":98.465,"note":55,"dur":0.045,"vel":0.496,"inst":"xylophone_v0_plucked_129","midi_source":""},{"t":98.51,"note":67,"dur":0.045,"vel":0.496,"inst":"xylophone_v0_plucked_129","midi_source":""},{"t":98.555,"note":70,"dur":0.045,"vel":0.496,"inst":"xylophone_v0_plucked_129","midi_source":""},{"t":98.599,"note":77,"dur":0.045,"vel":0.496,"inst":"banjo_v0_plucked_142","midi_source":""},{"t":98.644,"note":79,"dur":0.045,"vel":0.496,"inst":"xylophone_v0_plucked_129","midi_source":""},{"t":98.689,"note":46,"dur":0.045,"vel":0.496,"inst":"xylophone_v0_plucked_129","midi_source":""},{"t":98.689,"note":67,"dur":0.045,"vel":0.496,"inst":"xylophone_v0_plucked_129","midi_source":""},{"t":98.689,"note":70,"dur":0.045,"vel":0.496,"inst":"xylophone_v0_plucked_129","midi_source":""},{"t":98.689,"note":82,"dur":0.045,"vel":0.496,"inst":"xylophone_v0_plucked_129","midi_source":""},{"t":98.733,"note":49,"dur":0.045,"vel":0.496,"inst":"xylophone_v0_plucked_129","midi_source":""},{"t":98.733,"note":55,"dur":0.045,"vel":0.496,"inst":"xylophone_v0_plucked_129","midi_source":""},{"t":98.733,"note":70,"dur":0.045,"vel":0.496,"inst":"xylophone_v0_plucked_129","midi_source":""},{"t":98.733,"note":82,"dur":0.045,"vel":0.496,"inst":"xylophone_v0_plucked_129","midi_source":""},{"t":98.778,"note":50,"dur":0.067,"vel":0.496,"inst":"banjo_v0_plucked_142","midi_source":""},{"t":98.778,"note":65,"dur":0.134,"vel":0.496,"inst":"banjo_v0_plucked_142","midi_source":""},{"t":98.778,"note":67,"dur":0.134,"vel":0.496,"inst":"xylophone_v0_plucked_129","midi_source":""},{"t":98.778,"note":79,"dur":0.134,"vel":0.496,"inst":"xylophone_v0_plucked_129","midi_source":""},{"t":98.845,"note":58,"dur":0.067,"vel":0.496,"inst":"xylophone_v0_plucked_129","midi_source":""},{"t":98.913,"note":49,"dur":0.134,"vel":0.496,"inst":"xylophone_v0_plucked_129","midi_source":""},{"t":98.913,"note":58,"dur":0.045,"vel":0.496,"inst":"xylophone_v0_plucked_129","midi_source":""},{"t":98.913,"note":65,"dur":0.134,"vel":0.496,"inst":"banjo_v0_plucked_142","midi_source":""},{"t":98.913,"note":82,"dur":0.134,"vel":0.496,"inst":"xylophone_v0_plucked_129","midi_source":""},{"t":98.957,"note":61,"dur":0.045,"vel":0.496,"inst":"xylophone_v0_plucked_129","midi_source":""},{"t":99.002,"note":65,"dur":0.045,"vel":0.496,"inst":"banjo_v0_plucked_142","midi_source":""},{"t":99.047,"note":46,"dur":0.134,"vel":0.496,"inst":"xylophone_v0_plucked_129","midi_source":""},{"t":99.047,"note":62,"dur":0.134,"vel":0.496,"inst":"banjo_v0_plucked_142","midi_source":""},{"t":99.047,"note":67,"dur":0.045,"vel":0.496,"inst":"xylophone_v0_plucked_129","midi_source":""},{"t":99.047,"note":82,"dur":0.134,"vel":0.496,"inst":"xylophone_v0_plucked_129","midi_source":""},{"t":99.092,"note":70,"dur":0.045,"vel":0.496,"inst":"xylophone_v0_plucked_129","midi_source":""},{"t":99.136,"note":77,"dur":0.045,"vel":0.496,"inst":"banjo_v0_plucked_142","midi_source":""},{"t":99.181,"note":46,"dur":0.045,"vel":0.496,"inst":"xylophone_v0_plucked_129","midi_source":""},{"t":99.181,"note":61,"dur":0.134,"vel":0.496,"inst":"xylophone_v0_plucked_129","midi_source":""},{"t":99.181,"note":77,"dur":0.067,"vel":0.496,"inst":"banjo_v0_plucked_142","midi_source":""},{"t":99.181,"note":85,"dur":0.313,"vel":0.496,"inst":"xylophone_v0_plucked_129","midi_source":""},{"t":99.226,"note":49,"dur":0.045,"vel":0.496,"inst":"xylophone_v0_plucked_129","midi_source":""},{"t":99.248,"note":82,"dur":0.246,"vel":0.496,"inst":"xylophone_v0_plucked_129","midi_source":""},{"t":99.27,"note":53,"dur":0.045,"vel":0.496,"inst":"banjo_v0_plucked_142","midi_source":""},{"t":99.315,"note":55,"dur":0.045,"vel":0.496,"inst":"xylophone_v0_plucked_129","midi_source":""},{"t":99.315,"note":65,"dur":0.134,"vel":0.496,"inst":"banjo_v0_plucked_142","midi_source":""},{"t":99.36,"note":58,"dur":0.045,"vel":0.496,"inst":"xylophone_v0_plucked_129","midi_source":""},{"t":99.405,"note":61,"dur":0.045,"vel":0.496,"inst":"xylophone_v0_plucked_129","midi_source":""},{"t":99.449,"note":65,"dur":0.045,"vel":0.496,"inst":"banjo_v0_plucked_142","midi_source":""},{"t":99.449,"note":73,"dur":0.045,"vel":0.496,"inst":"xylophone_v0_plucked_129","midi_source":""},{"t":99.494,"note":67,"dur":0.045,"vel":0.496,"inst":"xylophone_v0_plucked_129","midi_source":""},{"t":99.494,"note":70,"dur":0.045,"vel":0.496,"inst":"xylophone_v0_plucked_129","midi_source":""},{"t":99.494,"note":82,"dur":0.045,"vel":0.496,"inst":"xylophone_v0_plucked_129","midi_source":""},{"t":99.494,"note":86,"dur":0.045,"vel":0.496,"inst":"banjo_v0_plucked_142","midi_source":""},{"t":99.539,"note":70,"dur":0.045,"vel":0.496,"inst":"xylophone_v0_plucked_129","midi_source":""},{"t":99.539,"note":73,"dur":0.045,"vel":0.496,"inst":"xylophone_v0_plucked_129","midi_source":""},{"t":99.539,"note":82,"dur":0.045,"vel":0.496,"inst":"xylophone_v0_plucked_129","midi_source":""},{"t":99.539,"note":85,"dur":0.045,"vel":0.496,"inst":"xylophone_v0_plucked_129","midi_source":""},{"t":99.584,"note":49,"dur":0.045,"vel":0.496,"inst":"xylophone_v0_plucked_129","midi_source":""},{"t":99.584,"note":73,"dur":0.067,"vel":0.496,"inst":"xylophone_v0_plucked_129","midi_source":""},{"t":99.584,"note":82,"dur":0.067,"vel":0.496,"inst":"xylophone_v0_plucked_129","midi_source":""},{"t":99.584,"note":85,"dur":0.067,"vel":0.496,"inst":"xylophone_v0_plucked_129","midi_source":""},{"t":99.628,"note":53,"dur":0.045,"vel":0.496,"inst":"banjo_v0_plucked_142","midi_source":""},{"t":99.651,"note":65,"dur":0.246,"vel":0.496,"inst":"banjo_v0_plucked_142","midi_source":""},{"t":99.651,"note":79,"dur":0.246,"vel":0.496,"inst":"xylophone_v0_plucked_129","midi_source":""},{"t":99.651,"note":82,"dur":0.246,"vel":0.496,"inst":"xylophone_v0_plucked_129","midi_source":""},{"t":99.673,"note":55,"dur":0.045,"vel":0.496,"inst":"xylophone_v0_plucked_129","midi_source":""},{"t":99.718,"note":58,"dur":0.045,"vel":0.496,"inst":"xylophone_v0_plucked_129","midi_source":""},{"t":99.763,"note":61,"dur":0.045,"vel":0.496,"inst":"xylophone_v0_plucked_129","midi_source":""},{"t":99.807,"note":65,"dur":0.045,"vel":0.496,"inst":"banjo_v0_plucked_142","midi_source":""},{"t":99.852,"note":67,"dur":0.045,"vel":0.496,"inst":"xylophone_v0_plucked_129","midi_source":""},{"t":99.897,"note":49,"dur":0.045,"vel":0.496,"inst":"xylophone_v0_plucked_129","midi_source":""},{"t":99.897,"note":82,"dur":0.045,"vel":0.496,"inst":"xylophone_v0_plucked_129","midi_source":""},{"t":99.897,"note":85,"dur":0.045,"vel":0.496,"inst":"xylophone_v0_plucked_129","midi_source":""},{"t":99.941,"note":53,"dur":0.045,"vel":0.496,"inst":"banjo_v0_plucked_142","midi_source":""},{"t":99.941,"note":73,"dur":0.02,"vel":0.496,"inst":"xylophone_v0_plucked_129","midi_source":""},{"t":99.941,"note":79,"dur":0.045,"vel":0.496,"inst":"xylophone_v0_plucked_129","midi_source":""},{"t":99.941,"note":82,"dur":0.045,"vel":0.496,"inst":"xylophone_v0_plucked_129","midi_source":""},{"t":99.986,"note":43,"dur":0.045,"vel":0.496,"inst":"xylophone_v0_plucked_129","midi_source":""},{"t":99.986,"note":73,"dur":0.067,"vel":0.496,"inst":"xylophone_v0_plucked_129","midi_source":""},{"t":99.986,"note":79,"dur":0.067,"vel":0.496,"inst":"xylophone_v0_plucked_129","midi_source":""},{"t":99.986,"note":82,"dur":0.067,"vel":0.496,"inst":"xylophone_v0_plucked_129","midi_source":""},{"t":100.031,"note":58,"dur":0.045,"vel":0.496,"inst":"xylophone_v0_plucked_129","midi_source":""},{"t":100.053,"note":61,"dur":0.246,"vel":0.496,"inst":"xylophone_v0_plucked_129","midi_source":""},{"t":100.053,"note":67,"dur":0.201,"vel":0.496,"inst":"xylophone_v0_plucked_129","midi_source":""},{"t":100.053,"note":82,"dur":0.246,"vel":0.496,"inst":"xylophone_v0_plucked_129","midi_source":""},{"t":100.076,"note":61,"dur":0.045,"vel":0.496,"inst":"xylophone_v0_plucked_129","midi_source":""},{"t":100.12,"note":65,"dur":0.045,"vel":0.496,"inst":"banjo_v0_plucked_142","midi_source":""},{"t":100.165,"note":55,"dur":0.045,"vel":0.496,"inst":"xylophone_v0_plucked_129","midi_source":""},{"t":100.21,"note":70,"dur":0.045,"vel":0.496,"inst":"xylophone_v0_plucked_129","midi_source":""},{"t":100.255,"note":73,"dur":0.045,"vel":0.496,"inst":"xylophone_v0_plucked_129","midi_source":""},{"t":100.255,"note":67,"dur":0.045,"vel":0.496,"inst":"xylophone_v0_plucked_129","midi_source":""},{"t":100.299,"note":43,"dur":0.045,"vel":0.496,"inst":"xylophone_v0_plucked_129","midi_source":""},{"t":100.299,"note":70,"dur":0.045,"vel":0.496,"inst":"xylophone_v0_plucked_129","midi_source":""},{"t":100.299,"note":85,"dur":0.045,"vel":0.496,"inst":"xylophone_v0_plucked_129","midi_source":""},{"t":100.344,"note":55,"dur":0.045,"vel":0.496,"inst":"xylophone_v0_plucked_129","midi_source":""},{"t":100.344,"note":65,"dur":0.045,"vel":0.496,"inst":"banjo_v0_plucked_142","midi_source":""},{"t":100.344,"note":73,"dur":0.02,"vel":0.496,"inst":"xylophone_v0_plucked_129","midi_source":""},{"t":100.344,"note":82,"dur":0.045,"vel":0.496,"inst":"xylophone_v0_plucked_129","midi_source":""},{"t":100.389,"note":46,"dur":0.045,"vel":0.496,"inst":"xylophone_v0_plucked_129","midi_source":""},{"t":100.389,"note":55,"dur":0.313,"vel":0.496,"inst":"xylophone_v0_plucked_129","midi_source":""},{"t":100.389,"note":73,"dur":0.313,"vel":0.496,"inst":"xylophone_v0_plucked_129","midi_source":""},{"t":100.389,"note":82,"dur":0.067,"vel":0.496,"inst":"xylophone_v0_plucked_129","midi_source":""},{"t":100.434,"note":49,"dur":0.045,"vel":0.496,"inst":"xylophone_v0_plucked_129","midi_source":""},{"t":100.456,"note":82,"dur":0.067,"vel":0.496,"inst":"xylophone_v0_plucked_129","midi_source":""},{"t":100.478,"note":43,"dur":0.045,"vel":0.496,"inst":"xylophone_v0_plucked_129","midi_source":""},{"t":100.523,"note":58,"dur":0.045,"vel":0.496,"inst":"xylophone_v0_plucked_129","midi_source":""},{"t":100.523,"note":79,"dur":0.067,"vel":0.496,"inst":"xylophone_v0_plucked_129","midi_source":""},{"t":100.568,"note":61,"dur":0.045,"vel":0.496,"inst":"xylophone_v0_plucked_129","midi_source":""},{"t":100.59,"note":67,"dur":0.067,"vel":0.496,"inst":"xylophone_v0_plucked_129","midi_source":""},{"t":100.612,"note":55,"dur":0.045,"vel":0.496,"inst":"xylophone_v0_plucked_129","midi_source":""},{"t":100.657,"note":70,"dur":0.045,"vel":0.496,"inst":"xylophone_v0_plucked_129","midi_source":""},{"t":100.657,"note":86,"dur":0.045,"vel":0.496,"inst":"banjo_v0_plucked_142","midi_source":""},{"t":100.702,"note":58,"dur":0.045,"vel":0.496,"inst":"xylophone_v0_plucked_129","midi_source":""},{"t":100.702,"note":55,"dur":0.045,"vel":0.496,"inst":"xylophone_v0_plucked_129","midi_source":""},{"t":100.702,"note":73,"dur":0.045,"vel":0.496,"inst":"xylophone_v0_plucked_129","midi_source":""},{"t":100.702,"note":85,"dur":0.045,"vel":0.496,"inst":"xylophone_v0_plucked_129","midi_source":""},{"t":100.747,"note":46,"dur":0.045,"vel":0.496,"inst":"xylophone_v0_plucked_129","midi_source":""},{"t":100.747,"note":55,"dur":0.045,"vel":0.496,"inst":"xylophone_v0_plucked_129","midi_source":""},{"t":100.747,"note":70,"dur":0.045,"vel":0.496,"inst":"xylophone_v0_plucked_129","midi_source":""},{"t":100.747,"note":74,"dur":0.045,"vel":0.496,"inst":"banjo_v0_plucked_142","midi_source":""},{"t":100.791,"note":43,"dur":0.045,"vel":0.496,"inst":"xylophone_v0_plucked_129","midi_source":""},{"t":100.791,"note":65,"dur":0.045,"vel":0.496,"inst":"banjo_v0_plucked_142","midi_source":""},{"t":100.791,"note":70,"dur":0.045,"vel":0.496,"inst":"xylophone_v0_plucked_129","midi_source":""},{"t":100.791,"note":67,"dur":0.034,"vel":0.496,"inst":"xylophone_v0_plucked_129","midi_source":""},{"t":100.825,"note":77,"dur":0.034,"vel":0.496,"inst":"banjo_v0_plucked_142","midi_source":""},{"t":100.836,"note":49,"dur":0.045,"vel":0.496,"inst":"xylophone_v0_plucked_129","midi_source":""},{"t":100.836,"note":65,"dur":0.045,"vel":0.496,"inst":"banjo_v0_plucked_142","midi_source":""},{"t":100.836,"note":70,"dur":0.045,"vel":0.496,"inst":"xylophone_v0_plucked_129","midi_source":""},{"t":100.858,"note":82,"dur":0.034,"vel":0.496,"inst":"xylophone_v0_plucked_129","midi_source":""},{"t":100.881,"note":46,"dur":0.045,"vel":0.496,"inst":"xylophone_v0_plucked_129","midi_source":""},{"t":100.881,"note":73,"dur":0.045,"vel":0.496,"inst":"xylophone_v0_plucked_129","midi_source":""},{"t":100.881,"note":77,"dur":0.045,"vel":0.496,"inst":"banjo_v0_plucked_142","midi_source":""},{"t":100.892,"note":82,"dur":0.034,"vel":0.496,"inst":"xylophone_v0_plucked_129","midi_source":""},{"t":100.926,"note":46,"dur":0.045,"vel":0.992,"inst":"xylophone_v0_plucked_129","midi_source":""},{"t":100.926,"note":70,"dur":0.045,"vel":0.992,"inst":"xylophone_v0_plucked_129","midi_source":""},{"t":100.926,"note":77,"dur":0.045,"vel":0.992,"inst":"banjo_v0_plucked_142","midi_source":""},{"t":100.926,"note":79,"dur":0.134,"vel":0.992,"inst":"xylophone_v0_plucked_129","midi_source":""},{"t":100.97,"note":58,"dur":0.045,"vel":0.992,"inst":"xylophone_v0_plucked_129","midi_source":""},{"t":100.97,"note":67,"dur":0.045,"vel":0.992,"inst":"xylophone_v0_plucked_129","midi_source":""},{"t":100.97,"note":70,"dur":0.045,"vel":0.992,"inst":"xylophone_v0_plucked_129","midi_source":""},{"t":101.015,"note":46,"dur":0.045,"vel":0.992,"inst":"xylophone_v0_plucked_129","midi_source":""},{"t":101.015,"note":65,"dur":0.045,"vel":0.992,"inst":"banjo_v0_plucked_142","midi_source":""},{"t":101.015,"note":67,"dur":0.045,"vel":0.992,"inst":"xylophone_v0_plucked_129","midi_source":""},{"t":101.06,"note":46,"dur":0.045,"vel":0.992,"inst":"xylophone_v0_plucked_129","midi_source":""},{"t":101.06,"note":62,"dur":0.045,"vel":0.992,"inst":"banjo_v0_plucked_142","midi_source":""},{"t":101.06,"note":70,"dur":0.045,"vel":0.992,"inst":"xylophone_v0_plucked_129","midi_source":""},{"t":101.06,"note":67,"dur":0.045,"vel":0.992,"inst":"xylophone_v0_plucked_129","midi_source":""},{"t":101.105,"note":85,"dur":0.045,"vel":0.992,"inst":"xylophone_v0_plucked_129","midi_source":""},{"t":101.149,"note":46,"dur":0.02,"vel":0.992,"inst":"xylophone_v0_plucked_129","midi_source":""},{"t":101.149,"note":62,"dur":0.02,"vel":0.992,"inst":"banjo_v0_plucked_142","midi_source":""},{"t":101.149,"note":70,"dur":0.02,"vel":0.992,"inst":"xylophone_v0_plucked_129","midi_source":""},{"t":101.149,"note":82,"dur":0.045,"vel":0.992,"inst":"xylophone_v0_plucked_129","midi_source":""},{"t":101.194,"note":53,"dur":0.045,"vel":0.496,"inst":"banjo_v0_plucked_142","midi_source":""},{"t":101.194,"note":65,"dur":0.067,"vel":0.496,"inst":"banjo_v0_plucked_142","midi_source":""},{"t":101.194,"note":67,"dur":0.134,"vel":0.496,"inst":"xylophone_v0_plucked_129","midi_source":""},{"t":101.194,"note":77,"dur":0.134,"vel":0.496,"inst":"banjo_v0_plucked_142","midi_source":""},{"t":101.239,"note":43,"dur":0.045,"vel":0.496,"inst":"xylophone_v0_plucked_129","midi_source":""},{"t":101.283,"note":55,"dur":0.045,"vel":0.496,"inst":"xylophone_v0_plucked_129","midi_source":""},{"t":101.328,"note":53,"dur":0.268,"vel":0.496,"inst":"banjo_v0_plucked_142","midi_source":""},{"t":101.328,"note":58,"dur":0.268,"vel":0.496,"inst":"xylophone_v0_plucked_129","midi_source":""},{"t":101.328,"note":61,"dur":0.045,"vel":0.496,"inst":"xylophone_v0_plucked_129","midi_source":""},{"t":101.328,"note":73,"dur":0.201,"vel":0.496,"inst":"xylophone_v0_plucked_129","midi_source":""},{"t":101.373,"note":62,"dur":0.045,"vel":0.496,"inst":"banjo_v0_plucked_142","midi_source":""},{"t":101.418,"note":65,"dur":0.045,"vel":0.496,"inst":"banjo_v0_plucked_142","midi_source":""},{"t":101.462,"note":55,"dur":0.045,"vel":0.496,"inst":"xylophone_v0_plucked_129","midi_source":""},{"t":101.462,"note":55,"dur":0.134,"vel":0.496,"inst":"xylophone_v0_plucked_129","midi_source":""},{"t":101.507,"note":67,"dur":0.045,"vel":0.496,"inst":"xylophone_v0_plucked_129","midi_source":""},{"t":101.53,"note":67,"dur":0.067,"vel":0.496,"inst":"xylophone_v0_plucked_129","midi_source":""},{"t":101.552,"note":70,"dur":0.045,"vel":0.496,"inst":"xylophone_v0_plucked_129","midi_source":""},{"t":101.597,"note":53,"dur":0.045,"vel":0.496,"inst":"banjo_v0_plucked_142","midi_source":""},{"t":101.597,"note":58,"dur":0.045,"vel":0.496,"inst":"xylophone_v0_plucked_129","midi_source":""},{"t":101.597,"note":55,"dur":0.403,"vel":0.496,"inst":"xylophone_v0_plucked_129","midi_source":""},{"t":101.597,"note":70,"dur":0.403,"vel":0.496,"inst":"xylophone_v0_plucked_129","midi_source":""},{"t":101.597,"note":77,"dur":0.134,"vel":0.496,"inst":"banjo_v0_plucked_142","midi_source":""},{"t":101.686,"note":53,"dur":0.02,"vel":0.496,"inst":"banjo_v0_plucked_142","midi_source":""},{"t":101.686,"note":58,"dur":0.02,"vel":0.496,"inst":"xylophone_v0_plucked_129","midi_source":""},{"t":101.731,"note":58,"dur":0.045,"vel":0.496,"inst":"xylophone_v0_plucked_129","midi_source":""},{"t":101.731,"note":67,"dur":0.168,"vel":0.496,"inst":"xylophone_v0_plucked_129","midi_source":""},{"t":101.776,"note":60,"dur":0.045,"vel":0.496,"inst":"pad_string_v0_bass_416","midi_source":""},{"t":101.82,"note":62,"dur":0.045,"vel":0.496,"inst":"banjo_v0_plucked_142","midi_source":""},{"t":101.865,"note":49,"dur":0.134,"vel":0.496,"inst":"xylophone_v0_plucked_129","midi_source":""},{"t":101.865,"note":65,"dur":0.134,"vel":0.496,"inst":"banjo_v0_plucked_142","midi_source":""},{"t":101.865,"note":70,"dur":0.045,"vel":0.496,"inst":"xylophone_v0_plucked_129","midi_source":""},{"t":101.899,"note":79,"dur":0.034,"vel":0.496,"inst":"xylophone_v0_plucked_129","midi_source":""},{"t":101.91,"note":73,"dur":0.045,"vel":0.496,"inst":"xylophone_v0_plucked_129","midi_source":""},{"t":101.932,"note":79,"dur":0.034,"vel":0.496,"inst":"xylophone_v0_plucked_129","midi_source":""},{"t":101.954,"note":77,"dur":0.045,"vel":0.496,"inst":"banjo_v0_plucked_142","midi_source":""},{"t":101.966,"note":82,"dur":0.034,"vel":0.496,"inst":"xylophone_v0_plucked_129","midi_source":""},{"t":101.999,"note":48,"dur":0.045,"vel":0.496,"inst":"pad_string_v0_bass_416","midi_source":""},{"t":101.999,"note":62,"dur":0.045,"vel":0.496,"inst":"banjo_v0_plucked_142","midi_source":""},{"t":101.999,"note":74,"dur":0.045,"vel":0.496,"inst":"banjo_v0_plucked_142","midi_source":""},{"t":101.999,"note":79,"dur":0.179,"vel":0.496,"inst":"xylophone_v0_plucked_129","midi_source":""},{"t":102.044,"note":50,"dur":0.045,"vel":0.496,"inst":"banjo_v0_plucked_142","midi_source":""},{"t":102.089,"note":55,"dur":0.045,"vel":0.496,"inst":"xylophone_v0_plucked_129","midi_source":""},{"t":102.089,"note":55,"dur":0.02,"vel":0.496,"inst":"xylophone_v0_plucked_129","midi_source":""},{"t":102.089,"note":67,"dur":0.02,"vel":0.496,"inst":"xylophone_v0_plucked_129","midi_source":""},{"t":102.133,"note":49,"dur":0.045,"vel":0.496,"inst":"xylophone_v0_plucked_129","midi_source":""},{"t":102.133,"note":65,"dur":0.045,"vel":0.496,"inst":"banjo_v0_plucked_142","midi_source":""},{"t":102.133,"note":67,"dur":0.045,"vel":0.496,"inst":"xylophone_v0_plucked_129","midi_source":""},{"t":102.178,"note":50,"dur":0.045,"vel":0.496,"inst":"banjo_v0_plucked_142","midi_source":""},{"t":102.178,"note":55,"dur":0.045,"vel":0.496,"inst":"xylophone_v0_plucked_129","midi_source":""},{"t":102.178,"note":72,"dur":0.045,"vel":0.496,"inst":"pad_string_v0_bass_416","midi_source":""},{"t":102.178,"note":67,"dur":0.045,"vel":0.496,"inst":"xylophone_v0_plucked_129","midi_source":""},{"t":102.223,"note":53,"dur":0.045,"vel":0.496,"inst":"banjo_v0_plucked_142","midi_source":""},{"t":102.223,"note":67,"dur":0.045,"vel":0.496,"inst":"xylophone_v0_plucked_129","midi_source":""},{"t":102.223,"note":73,"dur":0.045,"vel":0.496,"inst":"xylophone_v0_plucked_129","midi_source":""},{"t":102.223,"note":77,"dur":0.045,"vel":0.496,"inst":"banjo_v0_plucked_142","midi_source":""},{"t":102.268,"note":43,"dur":0.045,"vel":0.496,"inst":"xylophone_v0_plucked_129","midi_source":""},{"t":102.268,"note":55,"dur":0.045,"vel":0.496,"inst":"xylophone_v0_plucked_129","midi_source":""},{"t":102.268,"note":70,"dur":0.045,"vel":0.496,"inst":"xylophone_v0_plucked_129","midi_source":""},{"t":102.268,"note":74,"dur":0.045,"vel":0.496,"inst":"banjo_v0_plucked_142","midi_source":""},{"t":102.312,"note":61,"dur":0.045,"vel":0.496,"inst":"xylophone_v0_plucked_129","midi_source":""},{"t":102.312,"note":77,"dur":0.045,"vel":0.496,"inst":"banjo_v0_plucked_142","midi_source":""},{"t":102.357,"note":43,"dur":0.02,"vel":0.496,"inst":"xylophone_v0_plucked_129","midi_source":""},{"t":102.357,"note":65,"dur":0.045,"vel":0.496,"inst":"banjo_v0_plucked_142","midi_source":""},{"t":102.357,"note":70,"dur":0.02,"vel":0.496,"inst":"xylophone_v0_plucked_129","midi_source":""},{"t":102.357,"note":73,"dur":0.045,"vel":0.496,"inst":"xylophone_v0_plucked_129","midi_source":""},{"t":102.402,"note":46,"dur":0.045,"vel":0.496,"inst":"xylophone_v0_plucked_129","midi_source":""},{"t":102.402,"note":65,"dur":0.045,"vel":0.496,"inst":"banjo_v0_plucked_142","midi_source":""},{"t":102.402,"note":70,"dur":0.045,"vel":0.496,"inst":"xylophone_v0_plucked_129","midi_source":""},{"t":102.402,"note":73,"dur":0.134,"vel":0.496,"inst":"xylophone_v0_plucked_129","midi_source":""},{"t":102.447,"note":43,"dur":0.045,"vel":0.496,"inst":"xylophone_v0_plucked_129","midi_source":""},{"t":102.447,"note":65,"dur":0.045,"vel":0.496,"inst":"banjo_v0_plucked_142","midi_source":""},{"t":102.447,"note":55,"dur":0.045,"vel":0.496,"inst":"xylophone_v0_plucked_129","midi_source":""},{"t":102.491,"note":58,"dur":0.045,"vel":0.496,"inst":"xylophone_v0_plucked_129","midi_source":""},{"t":102.491,"note":65,"dur":0.045,"vel":0.496,"inst":"banjo_v0_plucked_142","midi_source":""},{"t":102.491,"note":55,"dur":0.045,"vel":0.496,"inst":"xylophone_v0_plucked_129","midi_source":""},{"t":102.536,"note":58,"dur":0.268,"vel":0.496,"inst":"xylophone_v0_plucked_129","midi_source":""},{"t":102.536,"note":62,"dur":0.045,"vel":0.496,"inst":"banjo_v0_plucked_142","midi_source":""},{"t":102.536,"note":55,"dur":0.179,"vel":0.496,"inst":"xylophone_v0_plucked_129","midi_source":""},{"t":102.536,"note":70,"dur":0.134,"vel":0.496,"inst":"xylophone_v0_plucked_129","midi_source":""},{"t":102.581,"note":55,"dur":0.045,"vel":0.496,"inst":"xylophone_v0_plucked_129","midi_source":""},{"t":102.625,"note":70,"dur":0.045,"vel":0.496,"inst":"xylophone_v0_plucked_129","midi_source":""},{"t":102.67,"note":70,"dur":0.045,"vel":0.496,"inst":"xylophone_v0_plucked_129","midi_source":""},{"t":102.715,"note":62,"dur":0.045,"vel":0.496,"inst":"banjo_v0_plucked_142","midi_source":""},{"t":102.715,"note":55,"dur":0.045,"vel":0.496,"inst":"xylophone_v0_plucked_129","midi_source":""},{"t":102.76,"note":61,"dur":0.045,"vel":0.496,"inst":"xylophone_v0_plucked_129","midi_source":""},{"t":102.76,"note":65,"dur":0.045,"vel":0.496,"inst":"banjo_v0_plucked_142","midi_source":""},{"t":102.804,"note":58,"dur":0.045,"vel":0.496,"inst":"xylophone_v0_plucked_129","midi_source":""},{"t":102.804,"note":58,"dur":0.134,"vel":0.496,"inst":"xylophone_v0_plucked_129","midi_source":""},{"t":102.804,"note":62,"dur":0.134,"vel":0.496,"inst":"banjo_v0_plucked_142","midi_source":""},{"t":102.849,"note":62,"dur":0.045,"vel":0.496,"inst":"banjo_v0_plucked_142","midi_source":""},{"t":102.894,"note":55,"dur":0.045,"vel":0.496,"inst":"xylophone_v0_plucked_129","midi_source":""},{"t":102.939,"note":55,"dur":0.134,"vel":0.496,"inst":"xylophone_v0_plucked_129","midi_source":""},{"t":102.939,"note":58,"dur":0.045,"vel":0.496,"inst":"xylophone_v0_plucked_129","midi_source":""},{"t":102.939,"note":65,"dur":0.134,"vel":0.496,"inst":"banjo_v0_plucked_142","midi_source":""},{"t":102.939,"note":70,"dur":0.313,"vel":0.496,"inst":"xylophone_v0_plucked_129","midi_source":""},{"t":102.983,"note":62,"dur":0.045,"vel":0.496,"inst":"banjo_v0_plucked_142","midi_source":""},{"t":103.028,"note":67,"dur":0.045,"vel":0.496,"inst":"xylophone_v0_plucked_129","midi_source":""},{"t":103.073,"note":43,"dur":0.134,"vel":0.496,"inst":"xylophone_v0_plucked_129","midi_source":""},{"t":103.073,"note":55,"dur":0.045,"vel":0.496,"inst":"xylophone_v0_plucked_129","midi_source":""},{"t":103.073,"note":70,"dur":0.134,"vel":0.496,"inst":"xylophone_v0_plucked_129","midi_source":""},{"t":103.118,"note":70,"dur":0.045,"vel":0.496,"inst":"xylophone_v0_plucked_129","midi_source":""},{"t":103.162,"note":74,"dur":0.045,"vel":0.496,"inst":"banjo_v0_plucked_142","midi_source":""},{"t":103.207,"note":53,"dur":0.313,"vel":0.496,"inst":"banjo_v0_plucked_142","midi_source":""},{"t":103.207,"note":67,"dur":0.313,"vel":0.496,"inst":"xylophone_v0_plucked_129","midi_source":""},{"t":103.207,"note":77,"dur":0.313,"vel":0.496,"inst":"banjo_v0_plucked_142","midi_source":""},{"t":103.252,"note":65,"dur":0.045,"vel":0.496,"inst":"banjo_v0_plucked_142","midi_source":""},{"t":103.296,"note":55,"dur":0.045,"vel":0.496,"inst":"xylophone_v0_plucked_129","midi_source":""},{"t":103.341,"note":67,"dur":0.045,"vel":0.496,"inst":"xylophone_v0_plucked_129","midi_source":""},{"t":103.386,"note":70,"dur":0.045,"vel":0.496,"inst":"xylophone_v0_plucked_129","midi_source":""},{"t":103.431,"note":77,"dur":0.045,"vel":0.496,"inst":"banjo_v0_plucked_142","midi_source":""},{"t":103.475,"note":79,"dur":0.045,"vel":0.496,"inst":"xylophone_v0_plucked_129","midi_source":""},{"t":103.52,"note":46,"dur":0.045,"vel":0.496,"inst":"xylophone_v0_plucked_129","midi_source":""},{"t":103.52,"note":67,"dur":0.045,"vel":0.496,"inst":"xylophone_v0_plucked_129","midi_source":""},{"t":103.52,"note":70,"dur":0.045,"vel":0.496,"inst":"xylophone_v0_plucked_129","midi_source":""},{"t":103.52,"note":82,"dur":0.045,"vel":0.496,"inst":"xylophone_v0_plucked_129","midi_source":""},{"t":103.565,"note":49,"dur":0.045,"vel":0.496,"inst":"xylophone_v0_plucked_129","midi_source":""},{"t":103.565,"note":55,"dur":0.045,"vel":0.496,"inst":"xylophone_v0_plucked_129","midi_source":""},{"t":103.565,"note":70,"dur":0.045,"vel":0.496,"inst":"xylophone_v0_plucked_129","midi_source":""},{"t":103.565,"note":82,"dur":0.045,"vel":0.496,"inst":"xylophone_v0_plucked_129","midi_source":""},{"t":103.61,"note":50,"dur":0.067,"vel":0.496,"inst":"banjo_v0_plucked_142","midi_source":""},{"t":103.61,"note":65,"dur":0.134,"vel":0.496,"inst":"banjo_v0_plucked_142","midi_source":""},{"t":103.61,"note":67,"dur":0.134,"vel":0.496,"inst":"xylophone_v0_plucked_129","midi_source":""},{"t":103.61,"note":79,"dur":0.134,"vel":0.496,"inst":"xylophone_v0_plucked_129","midi_source":""},{"t":103.677,"note":58,"dur":0.067,"vel":0.496,"inst":"xylophone_v0_plucked_129","midi_source":""},{"t":103.744,"note":49,"dur":0.134,"vel":0.496,"inst":"xylophone_v0_plucked_129","midi_source":""},{"t":103.744,"note":58,"dur":0.045,"vel":0.496,"inst":"xylophone_v0_plucked_129","midi_source":""},{"t":103.744,"note":65,"dur":0.134,"vel":0.496,"inst":"banjo_v0_plucked_142","midi_source":""},{"t":103.744,"note":82,"dur":0.134,"vel":0.496,"inst":"xylophone_v0_plucked_129","midi_source":""},{"t":103.789,"note":61,"dur":0.045,"vel":0.496,"inst":"xylophone_v0_plucked_129","midi_source":""},{"t":103.833,"note":65,"dur":0.045,"vel":0.496,"inst":"banjo_v0_plucked_142","midi_source":""},{"t":103.878,"note":46,"dur":0.134,"vel":0.496,"inst":"xylophone_v0_plucked_129","midi_source":""},{"t":103.878,"note":62,"dur":0.134,"vel":0.496,"inst":"banjo_v0_plucked_142","midi_source":""},{"t":103.878,"note":67,"dur":0.045,"vel":0.496,"inst":"xylophone_v0_plucked_129","midi_source":""},{"t":103.878,"note":82,"dur":0.134,"vel":0.496,"inst":"xylophone_v0_plucked_129","midi_source":""},{"t":103.923,"note":70,"dur":0.045,"vel":0.496,"inst":"xylophone_v0_plucked_129","midi_source":""},{"t":103.967,"note":77,"dur":0.045,"vel":0.496,"inst":"banjo_v0_plucked_142","midi_source":""},{"t":104.012,"note":46,"dur":0.045,"vel":0.496,"inst":"xylophone_v0_plucked_129","midi_source":""},{"t":104.012,"note":61,"dur":0.134,"vel":0.496,"inst":"xylophone_v0_plucked_129","midi_source":""},{"t":104.012,"note":77,"dur":0.067,"vel":0.496,"inst":"banjo_v0_plucked_142","midi_source":""},{"t":104.012,"note":85,"dur":0.313,"vel":0.496,"inst":"xylophone_v0_plucked_129","midi_source":""},{"t":104.057,"note":49,"dur":0.045,"vel":0.496,"inst":"xylophone_v0_plucked_129","midi_source":""},{"t":104.079,"note":82,"dur":0.246,"vel":0.496,"inst":"xylophone_v0_plucked_129","midi_source":""},{"t":104.102,"note":53,"dur":0.045,"vel":0.496,"inst":"banjo_v0_plucked_142","midi_source":""},{"t":104.146,"note":55,"dur":0.045,"vel":0.496,"inst":"xylophone_v0_plucked_129","midi_source":""},{"t":104.146,"note":65,"dur":0.134,"vel":0.496,"inst":"banjo_v0_plucked_142","midi_source":""},{"t":104.191,"note":58,"dur":0.045,"vel":0.496,"inst":"xylophone_v0_plucked_129","midi_source":""},{"t":104.236,"note":61,"dur":0.045,"vel":0.496,"inst":"xylophone_v0_plucked_129","midi_source":""},{"t":104.281,"note":65,"dur":0.045,"vel":0.496,"inst":"banjo_v0_plucked_142","midi_source":""},{"t":104.281,"note":73,"dur":0.045,"vel":0.496,"inst":"xylophone_v0_plucked_129","midi_source":""},{"t":104.326,"note":67,"dur":0.045,"vel":0.496,"inst":"xylophone_v0_plucked_129","midi_source":""},{"t":104.326,"note":70,"dur":0.045,"vel":0.496,"inst":"xylophone_v0_plucked_129","midi_source":""},{"t":104.326,"note":82,"dur":0.045,"vel":0.496,"inst":"xylophone_v0_plucked_129","midi_source":""},{"t":104.326,"note":86,"dur":0.045,"vel":0.496,"inst":"banjo_v0_plucked_142","midi_source":""},{"t":104.37,"note":70,"dur":0.045,"vel":0.496,"inst":"xylophone_v0_plucked_129","midi_source":""},{"t":104.37,"note":73,"dur":0.045,"vel":0.496,"inst":"xylophone_v0_plucked_129","midi_source":""},{"t":104.37,"note":82,"dur":0.045,"vel":0.496,"inst":"xylophone_v0_plucked_129","midi_source":""},{"t":104.37,"note":85,"dur":0.045,"vel":0.496,"inst":"xylophone_v0_plucked_129","midi_source":""},{"t":104.415,"note":49,"dur":0.045,"vel":0.496,"inst":"xylophone_v0_plucked_129","midi_source":""},{"t":104.415,"note":73,"dur":0.067,"vel":0.496,"inst":"xylophone_v0_plucked_129","midi_source":""},{"t":104.415,"note":82,"dur":0.067,"vel":0.496,"inst":"xylophone_v0_plucked_129","midi_source":""},{"t":104.415,"note":85,"dur":0.067,"vel":0.496,"inst":"xylophone_v0_plucked_129","midi_source":""},{"t":104.46,"note":53,"dur":0.045,"vel":0.496,"inst":"banjo_v0_plucked_142","midi_source":""},{"t":104.482,"note":65,"dur":0.246,"vel":0.496,"inst":"banjo_v0_plucked_142","midi_source":""},{"t":104.482,"note":79,"dur":0.246,"vel":0.496,"inst":"xylophone_v0_plucked_129","midi_source":""},{"t":104.482,"note":82,"dur":0.246,"vel":0.496,"inst":"xylophone_v0_plucked_129","midi_source":""},{"t":104.504,"note":55,"dur":0.045,"vel":0.496,"inst":"xylophone_v0_plucked_129","midi_source":""},{"t":104.549,"note":58,"dur":0.045,"vel":0.496,"inst":"xylophone_v0_plucked_129","midi_source":""},{"t":104.594,"note":61,"dur":0.045,"vel":0.496,"inst":"xylophone_v0_plucked_129","midi_source":""},{"t":104.638,"note":65,"dur":0.045,"vel":0.496,"inst":"banjo_v0_plucked_142","midi_source":""},{"t":104.683,"note":67,"dur":0.045,"vel":0.496,"inst":"xylophone_v0_plucked_129","midi_source":""},{"t":104.728,"note":49,"dur":0.045,"vel":0.496,"inst":"xylophone_v0_plucked_129","midi_source":""},{"t":104.728,"note":82,"dur":0.045,"vel":0.496,"inst":"xylophone_v0_plucked_129","midi_source":""},{"t":104.728,"note":85,"dur":0.045,"vel":0.496,"inst":"xylophone_v0_plucked_129","midi_source":""},{"t":104.773,"note":53,"dur":0.045,"vel":0.496,"inst":"banjo_v0_plucked_142","midi_source":""},{"t":104.773,"note":73,"dur":0.02,"vel":0.496,"inst":"xylophone_v0_plucked_129","midi_source":""},{"t":104.773,"note":79,"dur":0.045,"vel":0.496,"inst":"xylophone_v0_plucked_129","midi_source":""},{"t":104.773,"note":82,"dur":0.045,"vel":0.496,"inst":"xylophone_v0_plucked_129","midi_source":""},{"t":104.818,"note":43,"dur":0.045,"vel":0.496,"inst":"xylophone_v0_plucked_129","midi_source":""},{"t":104.818,"note":73,"dur":0.067,"vel":0.496,"inst":"xylophone_v0_plucked_129","midi_source":""},{"t":104.818,"note":79,"dur":0.067,"vel":0.496,"inst":"xylophone_v0_plucked_129","midi_source":""},{"t":104.818,"note":82,"dur":0.067,"vel":0.496,"inst":"xylophone_v0_plucked_129","midi_source":""},{"t":104.862,"note":58,"dur":0.045,"vel":0.496,"inst":"xylophone_v0_plucked_129","midi_source":""},{"t":104.885,"note":61,"dur":0.246,"vel":0.496,"inst":"xylophone_v0_plucked_129","midi_source":""},{"t":104.885,"note":67,"dur":0.201,"vel":0.496,"inst":"xylophone_v0_plucked_129","midi_source":""},{"t":104.885,"note":82,"dur":0.246,"vel":0.496,"inst":"xylophone_v0_plucked_129","midi_source":""},{"t":104.907,"note":61,"dur":0.045,"vel":0.496,"inst":"xylophone_v0_plucked_129","midi_source":""},{"t":104.952,"note":65,"dur":0.045,"vel":0.496,"inst":"banjo_v0_plucked_142","midi_source":""},{"t":104.997,"note":55,"dur":0.045,"vel":0.496,"inst":"xylophone_v0_plucked_129","midi_source":""},{"t":105.041,"note":70,"dur":0.045,"vel":0.496,"inst":"xylophone_v0_plucked_129","midi_source":""},{"t":105.086,"note":73,"dur":0.045,"vel":0.496,"inst":"xylophone_v0_plucked_129","midi_source":""},{"t":105.086,"note":67,"dur":0.045,"vel":0.496,"inst":"xylophone_v0_plucked_129","midi_source":""},{"t":105.131,"note":43,"dur":0.045,"vel":0.496,"inst":"xylophone_v0_plucked_129","midi_source":""},{"t":105.131,"note":70,"dur":0.045,"vel":0.496,"inst":"xylophone_v0_plucked_129","midi_source":""},{"t":105.131,"note":85,"dur":0.045,"vel":0.496,"inst":"xylophone_v0_plucked_129","midi_source":""},{"t":105.175,"note":55,"dur":0.045,"vel":0.496,"inst":"xylophone_v0_plucked_129","midi_source":""},{"t":105.175,"note":65,"dur":0.045,"vel":0.496,"inst":"banjo_v0_plucked_142","midi_source":""},{"t":105.175,"note":73,"dur":0.02,"vel":0.496,"inst":"xylophone_v0_plucked_129","midi_source":""},{"t":105.175,"note":82,"dur":0.045,"vel":0.496,"inst":"xylophone_v0_plucked_129","midi_source":""},{"t":105.22,"note":46,"dur":0.045,"vel":0.496,"inst":"xylophone_v0_plucked_129","midi_source":""},{"t":105.22,"note":55,"dur":0.313,"vel":0.496,"inst":"xylophone_v0_plucked_129","midi_source":""},{"t":105.22,"note":73,"dur":0.313,"vel":0.496,"inst":"xylophone_v0_plucked_129","midi_source":""},{"t":105.22,"note":82,"dur":0.067,"vel":0.496,"inst":"xylophone_v0_plucked_129","midi_source":""},{"t":105.265,"note":49,"dur":0.045,"vel":0.496,"inst":"xylophone_v0_plucked_129","midi_source":""},{"t":105.287,"note":82,"dur":0.067,"vel":0.496,"inst":"xylophone_v0_plucked_129","midi_source":""},{"t":105.31,"note":43,"dur":0.045,"vel":0.496,"inst":"xylophone_v0_plucked_129","midi_source":""},{"t":105.354,"note":58,"dur":0.045,"vel":0.496,"inst":"xylophone_v0_plucked_129","midi_source":""},{"t":105.354,"note":79,"dur":0.067,"vel":0.496,"inst":"xylophone_v0_plucked_129","midi_source":""},{"t":105.399,"note":61,"dur":0.045,"vel":0.496,"inst":"xylophone_v0_plucked_129","midi_source":""},{"t":105.421,"note":67,"dur":0.067,"vel":0.496,"inst":"xylophone_v0_plucked_129","midi_source":""},{"t":105.444,"note":55,"dur":0.045,"vel":0.496,"inst":"xylophone_v0_plucked_129","midi_source":""},{"t":105.489,"note":70,"dur":0.045,"vel":0.496,"inst":"xylophone_v0_plucked_129","midi_source":""},{"t":105.489,"note":86,"dur":0.045,"vel":0.496,"inst":"banjo_v0_plucked_142","midi_source":""},{"t":105.533,"note":58,"dur":0.045,"vel":0.496,"inst":"xylophone_v0_plucked_129","midi_source":""},{"t":105.533,"note":55,"dur":0.045,"vel":0.496,"inst":"xylophone_v0_plucked_129","midi_source":""},{"t":105.533,"note":73,"dur":0.045,"vel":0.496,"inst":"xylophone_v0_plucked_129","midi_source":""},{"t":105.533,"note":85,"dur":0.045,"vel":0.496,"inst":"xylophone_v0_plucked_129","midi_source":""},{"t":105.578,"note":46,"dur":0.045,"vel":0.496,"inst":"xylophone_v0_plucked_129","midi_source":""},{"t":105.578,"note":55,"dur":0.045,"vel":0.496,"inst":"xylophone_v0_plucked_129","midi_source":""},{"t":105.578,"note":70,"dur":0.045,"vel":0.496,"inst":"xylophone_v0_plucked_129","midi_source":""},{"t":105.578,"note":74,"dur":0.045,"vel":0.496,"inst":"banjo_v0_plucked_142","midi_source":""},{"t":105.623,"note":43,"dur":0.045,"vel":0.496,"inst":"xylophone_v0_plucked_129","midi_source":""},{"t":105.623,"note":65,"dur":0.045,"vel":0.496,"inst":"banjo_v0_plucked_142","midi_source":""},{"t":105.623,"note":70,"dur":0.045,"vel":0.496,"inst":"xylophone_v0_plucked_129","midi_source":""},{"t":105.623,"note":67,"dur":0.034,"vel":0.496,"inst":"xylophone_v0_plucked_129","midi_source":""},{"t":105.656,"note":77,"dur":0.034,"vel":0.496,"inst":"banjo_v0_plucked_142","midi_source":""},{"t":105.668,"note":49,"dur":0.045,"vel":0.496,"inst":"xylophone_v0_plucked_129","midi_source":""},{"t":105.668,"note":65,"dur":0.045,"vel":0.496,"inst":"banjo_v0_plucked_142","midi_source":""},{"t":105.668,"note":70,"dur":0.045,"vel":0.496,"inst":"xylophone_v0_plucked_129","midi_source":""},{"t":105.69,"note":82,"dur":0.034,"vel":0.496,"inst":"xylophone_v0_plucked_129","midi_source":""},{"t":105.712,"note":46,"dur":0.045,"vel":0.496,"inst":"xylophone_v0_plucked_129","midi_source":""},{"t":105.712,"note":73,"dur":0.045,"vel":0.496,"inst":"xylophone_v0_plucked_129","midi_source":""},{"t":105.712,"note":77,"dur":0.045,"vel":0.496,"inst":"banjo_v0_plucked_142","midi_source":""},{"t":105.723,"note":82,"dur":0.034,"vel":0.496,"inst":"xylophone_v0_plucked_129","midi_source":""},{"t":105.757,"note":46,"dur":0.045,"vel":0.992,"inst":"xylophone_v0_plucked_129","midi_source":""},{"t":105.757,"note":70,"dur":0.045,"vel":0.992,"inst":"xylophone_v0_plucked_129","midi_source":""},{"t":105.757,"note":77,"dur":0.045,"vel":0.992,"inst":"banjo_v0_plucked_142","midi_source":""},{"t":105.757,"note":79,"dur":0.134,"vel":0.992,"inst":"xylophone_v0_plucked_129","midi_source":""},{"t":105.802,"note":58,"dur":0.045,"vel":0.992,"inst":"xylophone_v0_plucked_129","midi_source":""},{"t":105.802,"note":67,"dur":0.045,"vel":0.992,"inst":"xylophone_v0_plucked_129","midi_source":""},{"t":105.802,"note":70,"dur":0.045,"vel":0.992,"inst":"xylophone_v0_plucked_129","midi_source":""},{"t":105.846,"note":46,"dur":0.045,"vel":0.992,"inst":"xylophone_v0_plucked_129","midi_source":""},{"t":105.846,"note":65,"dur":0.045,"vel":0.992,"inst":"banjo_v0_plucked_142","midi_source":""},{"t":105.846,"note":67,"dur":0.045,"vel":0.992,"inst":"xylophone_v0_plucked_129","midi_source":""},{"t":105.891,"note":46,"dur":0.045,"vel":0.992,"inst":"xylophone_v0_plucked_129","midi_source":""},{"t":105.891,"note":62,"dur":0.045,"vel":0.992,"inst":"banjo_v0_plucked_142","midi_source":""},{"t":105.891,"note":70,"dur":0.045,"vel":0.992,"inst":"xylophone_v0_plucked_129","midi_source":""},{"t":105.891,"note":67,"dur":0.045,"vel":0.992,"inst":"xylophone_v0_plucked_129","midi_source":""},{"t":105.936,"note":85,"dur":0.045,"vel":0.992,"inst":"xylophone_v0_plucked_129","midi_source":""},{"t":105.981,"note":46,"dur":0.02,"vel":0.992,"inst":"xylophone_v0_plucked_129","midi_source":""},{"t":105.981,"note":62,"dur":0.02,"vel":0.992,"inst":"banjo_v0_plucked_142","midi_source":""},{"t":105.981,"note":70,"dur":0.02,"vel":0.992,"inst":"xylophone_v0_plucked_129","midi_source":""},{"t":105.981,"note":82,"dur":0.045,"vel":0.992,"inst":"xylophone_v0_plucked_129","midi_source":""},{"t":106.025,"note":53,"dur":0.045,"vel":0.496,"inst":"banjo_v0_plucked_142","midi_source":""},{"t":106.025,"note":65,"dur":0.067,"vel":0.496,"inst":"banjo_v0_plucked_142","midi_source":""},{"t":106.025,"note":67,"dur":0.134,"vel":0.496,"inst":"xylophone_v0_plucked_129","midi_source":""},{"t":106.025,"note":77,"dur":0.134,"vel":0.496,"inst":"banjo_v0_plucked_142","midi_source":""},{"t":106.07,"note":43,"dur":0.045,"vel":0.496,"inst":"xylophone_v0_plucked_129","midi_source":""},{"t":106.115,"note":55,"dur":0.045,"vel":0.496,"inst":"xylophone_v0_plucked_129","midi_source":""},{"t":106.16,"note":53,"dur":0.268,"vel":0.496,"inst":"banjo_v0_plucked_142","midi_source":""},{"t":106.16,"note":58,"dur":0.268,"vel":0.496,"inst":"xylophone_v0_plucked_129","midi_source":""},{"t":106.16,"note":61,"dur":0.045,"vel":0.496,"inst":"xylophone_v0_plucked_129","midi_source":""},{"t":106.16,"note":73,"dur":0.201,"vel":0.496,"inst":"xylophone_v0_plucked_129","midi_source":""},{"t":106.204,"note":62,"dur":0.045,"vel":0.496,"inst":"banjo_v0_plucked_142","midi_source":""},{"t":106.249,"note":65,"dur":0.045,"vel":0.496,"inst":"banjo_v0_plucked_142","midi_source":""},{"t":106.294,"note":55,"dur":0.045,"vel":0.496,"inst":"xylophone_v0_plucked_129","midi_source":""},{"t":106.294,"note":55,"dur":0.134,"vel":0.496,"inst":"xylophone_v0_plucked_129","midi_source":""},{"t":106.339,"note":67,"dur":0.045,"vel":0.496,"inst":"xylophone_v0_plucked_129","midi_source":""},{"t":106.361,"note":67,"dur":0.067,"vel":0.496,"inst":"xylophone_v0_plucked_129","midi_source":""},{"t":106.383,"note":70,"dur":0.045,"vel":0.496,"inst":"xylophone_v0_plucked_129","midi_source":""},{"t":106.428,"note":53,"dur":0.045,"vel":0.496,"inst":"banjo_v0_plucked_142","midi_source":""},{"t":106.428,"note":58,"dur":0.045,"vel":0.496,"inst":"xylophone_v0_plucked_129","midi_source":""},{"t":106.428,"note":55,"dur":0.403,"vel":0.496,"inst":"xylophone_v0_plucked_129","midi_source":""},{"t":106.428,"note":70,"dur":0.403,"vel":0.496,"inst":"xylophone_v0_plucked_129","midi_source":""},{"t":106.428,"note":77,"dur":0.134,"vel":0.496,"inst":"banjo_v0_plucked_142","midi_source":""},{"t":106.517,"note":53,"dur":0.02,"vel":0.496,"inst":"banjo_v0_plucked_142","midi_source":""},{"t":106.517,"note":58,"dur":0.02,"vel":0.496,"inst":"xylophone_v0_plucked_129","midi_source":""},{"t":106.562,"note":58,"dur":0.045,"vel":0.496,"inst":"xylophone_v0_plucked_129","midi_source":""},{"t":106.562,"note":67,"dur":0.168,"vel":0.496,"inst":"xylophone_v0_plucked_129","midi_source":""},{"t":106.607,"note":60,"dur":0.045,"vel":0.496,"inst":"pad_string_v0_bass_416","midi_source":""},{"t":106.652,"note":62,"dur":0.045,"vel":0.496,"inst":"banjo_v0_plucked_142","midi_source":""},{"t":106.696,"note":49,"dur":0.134,"vel":0.496,"inst":"xylophone_v0_plucked_129","midi_source":""},{"t":106.696,"note":65,"dur":0.134,"vel":0.496,"inst":"banjo_v0_plucked_142","midi_source":""},{"t":106.696,"note":70,"dur":0.045,"vel":0.496,"inst":"xylophone_v0_plucked_129","midi_source":""},{"t":106.73,"note":79,"dur":0.034,"vel":0.496,"inst":"xylophone_v0_plucked_129","midi_source":""},{"t":106.741,"note":73,"dur":0.045,"vel":0.496,"inst":"xylophone_v0_plucked_129","midi_source":""},{"t":106.763,"note":79,"dur":0.034,"vel":0.496,"inst":"xylophone_v0_plucked_129","midi_source":""},{"t":106.786,"note":77,"dur":0.045,"vel":0.496,"inst":"banjo_v0_plucked_142","midi_source":""},{"t":106.797,"note":82,"dur":0.034,"vel":0.496,"inst":"xylophone_v0_plucked_129","midi_source":""},{"t":106.831,"note":48,"dur":0.045,"vel":0.496,"inst":"pad_string_v0_bass_416","midi_source":""},{"t":106.831,"note":62,"dur":0.045,"vel":0.496,"inst":"banjo_v0_plucked_142","midi_source":""},{"t":106.831,"note":74,"dur":0.045,"vel":0.496,"inst":"banjo_v0_plucked_142","midi_source":""},{"t":106.831,"note":79,"dur":0.179,"vel":0.496,"inst":"xylophone_v0_plucked_129","midi_source":""},{"t":106.875,"note":50,"dur":0.045,"vel":0.496,"inst":"banjo_v0_plucked_142","midi_source":""},{"t":106.92,"note":55,"dur":0.045,"vel":0.496,"inst":"xylophone_v0_plucked_129","midi_source":""},{"t":106.92,"note":55,"dur":0.02,"vel":0.496,"inst":"xylophone_v0_plucked_129","midi_source":""},{"t":106.92,"note":67,"dur":0.02,"vel":0.496,"inst":"xylophone_v0_plucked_129","midi_source":""},{"t":106.965,"note":49,"dur":0.045,"vel":0.496,"inst":"xylophone_v0_plucked_129","midi_source":""},{"t":106.965,"note":65,"dur":0.045,"vel":0.496,"inst":"banjo_v0_plucked_142","midi_source":""},{"t":106.965,"note":67,"dur":0.045,"vel":0.496,"inst":"xylophone_v0_plucked_129","midi_source":""},{"t":107.01,"note":50,"dur":0.045,"vel":0.496,"inst":"banjo_v0_plucked_142","midi_source":""},{"t":107.01,"note":55,"dur":0.045,"vel":0.496,"inst":"xylophone_v0_plucked_129","midi_source":""},{"t":107.01,"note":72,"dur":0.045,"vel":0.496,"inst":"pad_string_v0_bass_416","midi_source":""},{"t":107.01,"note":67,"dur":0.045,"vel":0.496,"inst":"xylophone_v0_plucked_129","midi_source":""},{"t":107.054,"note":53,"dur":0.045,"vel":0.496,"inst":"banjo_v0_plucked_142","midi_source":""},{"t":107.054,"note":67,"dur":0.045,"vel":0.496,"inst":"xylophone_v0_plucked_129","midi_source":""},{"t":107.054,"note":73,"dur":0.045,"vel":0.496,"inst":"xylophone_v0_plucked_129","midi_source":""},{"t":107.054,"note":77,"dur":0.045,"vel":0.496,"inst":"banjo_v0_plucked_142","midi_source":""},{"t":107.099,"note":43,"dur":0.045,"vel":0.496,"inst":"xylophone_v0_plucked_129","midi_source":""},{"t":107.099,"note":55,"dur":0.045,"vel":0.496,"inst":"xylophone_v0_plucked_129","midi_source":""},{"t":107.099,"note":70,"dur":0.045,"vel":0.496,"inst":"xylophone_v0_plucked_129","midi_source":""},{"t":107.099,"note":74,"dur":0.045,"vel":0.496,"inst":"banjo_v0_plucked_142","midi_source":""},{"t":107.144,"note":61,"dur":0.045,"vel":0.496,"inst":"xylophone_v0_plucked_129","midi_source":""},{"t":107.144,"note":77,"dur":0.045,"vel":0.496,"inst":"banjo_v0_plucked_142","midi_source":""},{"t":107.188,"note":43,"dur":0.02,"vel":0.496,"inst":"xylophone_v0_plucked_129","midi_source":""},{"t":107.188,"note":65,"dur":0.045,"vel":0.496,"inst":"banjo_v0_plucked_142","midi_source":""},{"t":107.188,"note":70,"dur":0.02,"vel":0.496,"inst":"xylophone_v0_plucked_129","midi_source":""},{"t":107.188,"note":73,"dur":0.045,"vel":0.496,"inst":"xylophone_v0_plucked_129","midi_source":""},{"t":107.233,"note":46,"dur":0.045,"vel":0.496,"inst":"xylophone_v0_plucked_129","midi_source":""},{"t":107.233,"note":65,"dur":0.045,"vel":0.496,"inst":"banjo_v0_plucked_142","midi_source":""},{"t":107.233,"note":70,"dur":0.045,"vel":0.496,"inst":"xylophone_v0_plucked_129","midi_source":""},{"t":107.233,"note":73,"dur":0.134,"vel":0.496,"inst":"xylophone_v0_plucked_129","midi_source":""},{"t":107.278,"note":43,"dur":0.045,"vel":0.496,"inst":"xylophone_v0_plucked_129","midi_source":""},{"t":107.278,"note":65,"dur":0.045,"vel":0.496,"inst":"banjo_v0_plucked_142","midi_source":""},{"t":107.278,"note":55,"dur":0.045,"vel":0.496,"inst":"xylophone_v0_plucked_129","midi_source":""},{"t":107.323,"note":58,"dur":0.045,"vel":0.496,"inst":"xylophone_v0_plucked_129","midi_source":""},{"t":107.323,"note":65,"dur":0.045,"vel":0.496,"inst":"banjo_v0_plucked_142","midi_source":""},{"t":107.323,"note":55,"dur":0.045,"vel":0.496,"inst":"xylophone_v0_plucked_129","midi_source":""},{"t":107.367,"note":58,"dur":0.268,"vel":0.496,"inst":"xylophone_v0_plucked_129","midi_source":""},{"t":107.367,"note":62,"dur":0.045,"vel":0.496,"inst":"banjo_v0_plucked_142","midi_source":""},{"t":107.367,"note":55,"dur":0.179,"vel":0.496,"inst":"xylophone_v0_plucked_129","midi_source":""},{"t":107.367,"note":70,"dur":0.134,"vel":0.496,"inst":"xylophone_v0_plucked_129","midi_source":""},{"t":107.412,"note":55,"dur":0.045,"vel":0.496,"inst":"xylophone_v0_plucked_129","midi_source":""},{"t":107.457,"note":70,"dur":0.045,"vel":0.496,"inst":"xylophone_v0_plucked_129","midi_source":""},{"t":107.502,"note":70,"dur":0.045,"vel":0.496,"inst":"xylophone_v0_plucked_129","midi_source":""},{"t":107.546,"note":62,"dur":0.045,"vel":0.496,"inst":"banjo_v0_plucked_142","midi_source":""},{"t":107.546,"note":55,"dur":0.045,"vel":0.496,"inst":"xylophone_v0_plucked_129","midi_source":""},{"t":107.591,"note":61,"dur":0.045,"vel":0.496,"inst":"xylophone_v0_plucked_129","midi_source":""},{"t":107.591,"note":65,"dur":0.045,"vel":0.496,"inst":"banjo_v0_plucked_142","midi_source":""},{"t":107.636,"note":58,"dur":0.045,"vel":0.496,"inst":"xylophone_v0_plucked_129","midi_source":""},{"t":107.636,"note":58,"dur":0.134,"vel":0.496,"inst":"xylophone_v0_plucked_129","midi_source":""},{"t":107.636,"note":62,"dur":0.134,"vel":0.496,"inst":"banjo_v0_plucked_142","midi_source":""},{"t":107.681,"note":62,"dur":0.045,"vel":0.496,"inst":"banjo_v0_plucked_142","midi_source":""},{"t":107.725,"note":55,"dur":0.045,"vel":0.496,"inst":"xylophone_v0_plucked_129","midi_source":""},{"t":107.77,"note":55,"dur":0.134,"vel":0.496,"inst":"xylophone_v0_plucked_129","midi_source":""},{"t":107.77,"note":58,"dur":0.045,"vel":0.496,"inst":"xylophone_v0_plucked_129","midi_source":""},{"t":107.77,"note":65,"dur":0.134,"vel":0.496,"inst":"banjo_v0_plucked_142","midi_source":""},{"t":107.77,"note":70,"dur":0.313,"vel":0.496,"inst":"xylophone_v0_plucked_129","midi_source":""},{"t":107.815,"note":62,"dur":0.045,"vel":0.496,"inst":"banjo_v0_plucked_142","midi_source":""},{"t":107.859,"note":67,"dur":0.045,"vel":0.496,"inst":"xylophone_v0_plucked_129","midi_source":""},{"t":107.904,"note":43,"dur":0.134,"vel":0.496,"inst":"xylophone_v0_plucked_129","midi_source":""},{"t":107.904,"note":55,"dur":0.045,"vel":0.496,"inst":"xylophone_v0_plucked_129","midi_source":""},{"t":107.904,"note":70,"dur":0.134,"vel":0.496,"inst":"xylophone_v0_plucked_129","midi_source":""},{"t":107.949,"note":70,"dur":0.045,"vel":0.496,"inst":"xylophone_v0_plucked_129","midi_source":""},{"t":107.994,"note":74,"dur":0.045,"vel":0.496,"inst":"banjo_v0_plucked_142","midi_source":""},{"t":108.038,"note":53,"dur":0.313,"vel":0.496,"inst":"banjo_v0_plucked_142","midi_source":""},{"t":108.038,"note":67,"dur":0.313,"vel":0.496,"inst":"xylophone_v0_plucked_129","midi_source":""},{"t":108.038,"note":77,"dur":0.313,"vel":0.496,"inst":"banjo_v0_plucked_142","midi_source":""},{"t":108.083,"note":65,"dur":0.045,"vel":0.496,"inst":"banjo_v0_plucked_142","midi_source":""},{"t":108.128,"note":55,"dur":0.045,"vel":0.496,"inst":"xylophone_v0_plucked_129","midi_source":""},{"t":108.173,"note":67,"dur":0.045,"vel":0.496,"inst":"xylophone_v0_plucked_129","midi_source":""},{"t":108.217,"note":70,"dur":0.045,"vel":0.496,"inst":"xylophone_v0_plucked_129","midi_source":""},{"t":108.262,"note":77,"dur":0.045,"vel":0.496,"inst":"banjo_v0_plucked_142","midi_source":""},{"t":108.307,"note":79,"dur":0.045,"vel":0.496,"inst":"xylophone_v0_plucked_129","midi_source":""},{"t":108.352,"note":46,"dur":0.045,"vel":0.496,"inst":"xylophone_v0_plucked_129","midi_source":""},{"t":108.352,"note":67,"dur":0.045,"vel":0.496,"inst":"xylophone_v0_plucked_129","midi_source":""},{"t":108.352,"note":70,"dur":0.045,"vel":0.496,"inst":"xylophone_v0_plucked_129","midi_source":""},{"t":108.352,"note":82,"dur":0.045,"vel":0.496,"inst":"xylophone_v0_plucked_129","midi_source":""},{"t":108.396,"note":49,"dur":0.045,"vel":0.496,"inst":"xylophone_v0_plucked_129","midi_source":""},{"t":108.396,"note":55,"dur":0.045,"vel":0.496,"inst":"xylophone_v0_plucked_129","midi_source":""},{"t":108.396,"note":70,"dur":0.045,"vel":0.496,"inst":"xylophone_v0_plucked_129","midi_source":""},{"t":108.396,"note":82,"dur":0.045,"vel":0.496,"inst":"xylophone_v0_plucked_129","midi_source":""},{"t":108.441,"note":50,"dur":0.067,"vel":0.496,"inst":"banjo_v0_plucked_142","midi_source":""},{"t":108.441,"note":65,"dur":0.134,"vel":0.496,"inst":"banjo_v0_plucked_142","midi_source":""},{"t":108.441,"note":67,"dur":0.134,"vel":0.496,"inst":"xylophone_v0_plucked_129","midi_source":""},{"t":108.441,"note":79,"dur":0.134,"vel":0.496,"inst":"xylophone_v0_plucked_129","midi_source":""},{"t":108.508,"note":58,"dur":0.067,"vel":0.496,"inst":"xylophone_v0_plucked_129","midi_source":""},{"t":108.575,"note":49,"dur":0.134,"vel":0.496,"inst":"xylophone_v0_plucked_129","midi_source":""},{"t":108.575,"note":58,"dur":0.045,"vel":0.496,"inst":"xylophone_v0_plucked_129","midi_source":""},{"t":108.575,"note":65,"dur":0.134,"vel":0.496,"inst":"banjo_v0_plucked_142","midi_source":""},{"t":108.575,"note":82,"dur":0.134,"vel":0.496,"inst":"xylophone_v0_plucked_129","midi_source":""},{"t":108.62,"note":61,"dur":0.045,"vel":0.496,"inst":"xylophone_v0_plucked_129","midi_source":""},{"t":108.665,"note":65,"dur":0.045,"vel":0.496,"inst":"banjo_v0_plucked_142","midi_source":""},{"t":108.709,"note":46,"dur":0.134,"vel":0.496,"inst":"xylophone_v0_plucked_129","midi_source":""},{"t":108.709,"note":62,"dur":0.134,"vel":0.496,"inst":"banjo_v0_plucked_142","midi_source":""},{"t":108.709,"note":67,"dur":0.045,"vel":0.496,"inst":"xylophone_v0_plucked_129","midi_source":""},{"t":108.709,"note":82,"dur":0.134,"vel":0.496,"inst":"xylophone_v0_plucked_129","midi_source":""},{"t":108.754,"note":70,"dur":0.045,"vel":0.496,"inst":"xylophone_v0_plucked_129","midi_source":""},{"t":108.799,"note":77,"dur":0.045,"vel":0.496,"inst":"banjo_v0_plucked_142","midi_source":""},{"t":108.844,"note":46,"dur":0.045,"vel":0.496,"inst":"xylophone_v0_plucked_129","midi_source":""},{"t":108.844,"note":61,"dur":0.134,"vel":0.496,"inst":"xylophone_v0_plucked_129","midi_source":""},{"t":108.844,"note":77,"dur":0.067,"vel":0.496,"inst":"banjo_v0_plucked_142","midi_source":""},{"t":108.844,"note":85,"dur":0.313,"vel":0.496,"inst":"xylophone_v0_plucked_129","midi_source":""},{"t":108.888,"note":49,"dur":0.045,"vel":0.496,"inst":"xylophone_v0_plucked_129","midi_source":""},{"t":108.911,"note":82,"dur":0.246,"vel":0.496,"inst":"xylophone_v0_plucked_129","midi_source":""},{"t":108.933,"note":53,"dur":0.045,"vel":0.496,"inst":"banjo_v0_plucked_142","midi_source":""},{"t":108.978,"note":55,"dur":0.045,"vel":0.496,"inst":"xylophone_v0_plucked_129","midi_source":""},{"t":108.978,"note":65,"dur":0.134,"vel":0.496,"inst":"banjo_v0_plucked_142","midi_source":""},{"t":109.023,"note":58,"dur":0.045,"vel":0.496,"inst":"xylophone_v0_plucked_129","midi_source":""},{"t":109.067,"note":61,"dur":0.045,"vel":0.496,"inst":"xylophone_v0_plucked_129","midi_source":""},{"t":109.112,"note":65,"dur":0.045,"vel":0.496,"inst":"banjo_v0_plucked_142","midi_source":""},{"t":109.112,"note":73,"dur":0.045,"vel":0.496,"inst":"xylophone_v0_plucked_129","midi_source":""},{"t":109.157,"note":67,"dur":0.045,"vel":0.496,"inst":"xylophone_v0_plucked_129","midi_source":""},{"t":109.157,"note":70,"dur":0.045,"vel":0.496,"inst":"xylophone_v0_plucked_129","midi_source":""},{"t":109.157,"note":82,"dur":0.045,"vel":0.496,"inst":"xylophone_v0_plucked_129","midi_source":""},{"t":109.157,"note":86,"dur":0.045,"vel":0.496,"inst":"banjo_v0_plucked_142","midi_source":""},{"t":109.201,"note":70,"dur":0.045,"vel":0.496,"inst":"xylophone_v0_plucked_129","midi_source":""},{"t":109.201,"note":73,"dur":0.045,"vel":0.496,"inst":"xylophone_v0_plucked_129","midi_source":""},{"t":109.201,"note":82,"dur":0.045,"vel":0.496,"inst":"xylophone_v0_plucked_129","midi_source":""},{"t":109.201,"note":85,"dur":0.045,"vel":0.496,"inst":"xylophone_v0_plucked_129","midi_source":""},{"t":109.246,"note":49,"dur":0.045,"vel":0.496,"inst":"xylophone_v0_plucked_129","midi_source":""},{"t":109.246,"note":73,"dur":0.067,"vel":0.496,"inst":"xylophone_v0_plucked_129","midi_source":""},{"t":109.246,"note":82,"dur":0.067,"vel":0.496,"inst":"xylophone_v0_plucked_129","midi_source":""},{"t":109.246,"note":85,"dur":0.067,"vel":0.496,"inst":"xylophone_v0_plucked_129","midi_source":""},{"t":109.291,"note":53,"dur":0.045,"vel":0.496,"inst":"banjo_v0_plucked_142","midi_source":""},{"t":109.313,"note":65,"dur":0.246,"vel":0.496,"inst":"banjo_v0_plucked_142","midi_source":""},{"t":109.313,"note":79,"dur":0.246,"vel":0.496,"inst":"xylophone_v0_plucked_129","midi_source":""},{"t":109.313,"note":82,"dur":0.246,"vel":0.496,"inst":"xylophone_v0_plucked_129","midi_source":""},{"t":109.336,"note":55,"dur":0.045,"vel":0.496,"inst":"xylophone_v0_plucked_129","midi_source":""},{"t":109.38,"note":58,"dur":0.045,"vel":0.496,"inst":"xylophone_v0_plucked_129","midi_source":""},{"t":109.425,"note":61,"dur":0.045,"vel":0.496,"inst":"xylophone_v0_plucked_129","midi_source":""},{"t":109.47,"note":65,"dur":0.045,"vel":0.496,"inst":"banjo_v0_plucked_142","midi_source":""},{"t":109.515,"note":67,"dur":0.045,"vel":0.496,"inst":"xylophone_v0_plucked_129","midi_source":""},{"t":109.56,"note":49,"dur":0.045,"vel":0.496,"inst":"xylophone_v0_plucked_129","midi_source":""},{"t":109.56,"note":82,"dur":0.045,"vel":0.496,"inst":"xylophone_v0_plucked_129","midi_source":""},{"t":109.56,"note":85,"dur":0.045,"vel":0.496,"inst":"xylophone_v0_plucked_129","midi_source":""},{"t":109.604,"note":53,"dur":0.045,"vel":0.496,"inst":"banjo_v0_plucked_142","midi_source":""},{"t":109.604,"note":73,"dur":0.02,"vel":0.496,"inst":"xylophone_v0_plucked_129","midi_source":""},{"t":109.604,"note":79,"dur":0.045,"vel":0.496,"inst":"xylophone_v0_plucked_129","midi_source":""},{"t":109.604,"note":82,"dur":0.045,"vel":0.496,"inst":"xylophone_v0_plucked_129","midi_source":""},{"t":109.649,"note":43,"dur":0.045,"vel":0.496,"inst":"xylophone_v0_plucked_129","midi_source":""},{"t":109.649,"note":73,"dur":0.067,"vel":0.496,"inst":"xylophone_v0_plucked_129","midi_source":""},{"t":109.649,"note":79,"dur":0.067,"vel":0.496,"inst":"xylophone_v0_plucked_129","midi_source":""},{"t":109.649,"note":82,"dur":0.067,"vel":0.496,"inst":"xylophone_v0_plucked_129","midi_source":""},{"t":109.694,"note":58,"dur":0.045,"vel":0.496,"inst":"xylophone_v0_plucked_129","midi_source":""},{"t":109.716,"note":61,"dur":0.246,"vel":0.496,"inst":"xylophone_v0_plucked_129","midi_source":""},{"t":109.716,"note":67,"dur":0.201,"vel":0.496,"inst":"xylophone_v0_plucked_129","midi_source":""},{"t":109.716,"note":82,"dur":0.246,"vel":0.496,"inst":"xylophone_v0_plucked_129","midi_source":""},{"t":109.738,"note":61,"dur":0.045,"vel":0.496,"inst":"xylophone_v0_plucked_129","midi_source":""},{"t":109.783,"note":65,"dur":0.045,"vel":0.496,"inst":"banjo_v0_plucked_142","midi_source":""},{"t":109.828,"note":55,"dur":0.045,"vel":0.496,"inst":"xylophone_v0_plucked_129","midi_source":""},{"t":109.872,"note":70,"dur":0.045,"vel":0.496,"inst":"xylophone_v0_plucked_129","midi_source":""},{"t":109.917,"note":73,"dur":0.045,"vel":0.496,"inst":"xylophone_v0_plucked_129","midi_source":""},{"t":109.917,"note":67,"dur":0.045,"vel":0.496,"inst":"xylophone_v0_plucked_129","midi_source":""},{"t":109.962,"note":43,"dur":0.045,"vel":0.496,"inst":"xylophone_v0_plucked_129","midi_source":""},{"t":109.962,"note":70,"dur":0.045,"vel":0.496,"inst":"xylophone_v0_plucked_129","midi_source":""},{"t":109.962,"note":85,"dur":0.045,"vel":0.496,"inst":"xylophone_v0_plucked_129","midi_source":""},{"t":110.007,"note":55,"dur":0.045,"vel":0.496,"inst":"xylophone_v0_plucked_129","midi_source":""},{"t":110.007,"note":65,"dur":0.045,"vel":0.496,"inst":"banjo_v0_plucked_142","midi_source":""},{"t":110.007,"note":73,"dur":0.02,"vel":0.496,"inst":"xylophone_v0_plucked_129","midi_source":""},{"t":110.007,"note":82,"dur":0.045,"vel":0.496,"inst":"xylophone_v0_plucked_129","midi_source":""},{"t":110.052,"note":46,"dur":0.045,"vel":0.496,"inst":"xylophone_v0_plucked_129","midi_source":""},{"t":110.052,"note":55,"dur":0.313,"vel":0.496,"inst":"xylophone_v0_plucked_129","midi_source":""},{"t":110.052,"note":73,"dur":0.313,"vel":0.496,"inst":"xylophone_v0_plucked_129","midi_source":""},{"t":110.052,"note":82,"dur":0.067,"vel":0.496,"inst":"xylophone_v0_plucked_129","midi_source":""},{"t":110.096,"note":49,"dur":0.045,"vel":0.496,"inst":"xylophone_v0_plucked_129","midi_source":""},{"t":110.119,"note":82,"dur":0.067,"vel":0.496,"inst":"xylophone_v0_plucked_129","midi_source":""},{"t":110.141,"note":43,"dur":0.045,"vel":0.496,"inst":"xylophone_v0_plucked_129","midi_source":""},{"t":110.186,"note":58,"dur":0.045,"vel":0.496,"inst":"xylophone_v0_plucked_129","midi_source":""},{"t":110.186,"note":79,"dur":0.067,"vel":0.496,"inst":"xylophone_v0_plucked_129","midi_source":""},{"t":110.231,"note":61,"dur":0.045,"vel":0.496,"inst":"xylophone_v0_plucked_129","midi_source":""},{"t":110.253,"note":67,"dur":0.067,"vel":0.496,"inst":"xylophone_v0_plucked_129","midi_source":""},{"t":110.275,"note":55,"dur":0.045,"vel":0.496,"inst":"xylophone_v0_plucked_129","midi_source":""},{"t":110.32,"note":70,"dur":0.045,"vel":0.496,"inst":"xylophone_v0_plucked_129","midi_source":""},{"t":110.32,"note":86,"dur":0.045,"vel":0.496,"inst":"banjo_v0_plucked_142","midi_source":""},{"t":110.365,"note":58,"dur":0.045,"vel":0.496,"inst":"xylophone_v0_plucked_129","midi_source":""},{"t":110.365,"note":55,"dur":0.045,"vel":0.496,"inst":"xylophone_v0_plucked_129","midi_source":""},{"t":110.365,"note":73,"dur":0.045,"vel":0.496,"inst":"xylophone_v0_plucked_129","midi_source":""},{"t":110.365,"note":85,"dur":0.045,"vel":0.496,"inst":"xylophone_v0_plucked_129","midi_source":""},{"t":110.409,"note":46,"dur":0.045,"vel":0.496,"inst":"xylophone_v0_plucked_129","midi_source":""},{"t":110.409,"note":55,"dur":0.045,"vel":0.496,"inst":"xylophone_v0_plucked_129","midi_source":""},{"t":110.409,"note":70,"dur":0.045,"vel":0.496,"inst":"xylophone_v0_plucked_129","midi_source":""},{"t":110.409,"note":74,"dur":0.045,"vel":0.496,"inst":"banjo_v0_plucked_142","midi_source":""},{"t":110.454,"note":43,"dur":0.045,"vel":0.496,"inst":"xylophone_v0_plucked_129","midi_source":""},{"t":110.454,"note":65,"dur":0.045,"vel":0.496,"inst":"banjo_v0_plucked_142","midi_source":""},{"t":110.454,"note":70,"dur":0.045,"vel":0.496,"inst":"xylophone_v0_plucked_129","midi_source":""},{"t":110.454,"note":67,"dur":0.034,"vel":0.496,"inst":"xylophone_v0_plucked_129","midi_source":""},{"t":110.488,"note":77,"dur":0.034,"vel":0.496,"inst":"banjo_v0_plucked_142","midi_source":""},{"t":110.499,"note":49,"dur":0.045,"vel":0.496,"inst":"xylophone_v0_plucked_129","midi_source":""},{"t":110.499,"note":65,"dur":0.045,"vel":0.496,"inst":"banjo_v0_plucked_142","midi_source":""},{"t":110.499,"note":70,"dur":0.045,"vel":0.496,"inst":"xylophone_v0_plucked_129","midi_source":""},{"t":110.521,"note":82,"dur":0.034,"vel":0.496,"inst":"xylophone_v0_plucked_129","midi_source":""},{"t":110.543,"note":46,"dur":0.045,"vel":0.496,"inst":"xylophone_v0_plucked_129","midi_source":""},{"t":110.543,"note":73,"dur":0.045,"vel":0.496,"inst":"xylophone_v0_plucked_129","midi_source":""},{"t":110.543,"note":77,"dur":0.045,"vel":0.496,"inst":"banjo_v0_plucked_142","midi_source":""},{"t":110.555,"note":82,"dur":0.034,"vel":0.496,"inst":"xylophone_v0_plucked_129","midi_source":""},{"t":110.588,"note":46,"dur":0.045,"vel":0.992,"inst":"xylophone_v0_plucked_129","midi_source":""},{"t":110.588,"note":70,"dur":0.045,"vel":0.992,"inst":"xylophone_v0_plucked_129","midi_source":""},{"t":110.588,"note":77,"dur":0.045,"vel":0.992,"inst":"banjo_v0_plucked_142","midi_source":""},{"t":110.588,"note":79,"dur":0.134,"vel":0.992,"inst":"xylophone_v0_plucked_129","midi_source":""},{"t":110.633,"note":58,"dur":0.045,"vel":0.992,"inst":"xylophone_v0_plucked_129","midi_source":""},{"t":110.633,"note":67,"dur":0.045,"vel":0.992,"inst":"xylophone_v0_plucked_129","midi_source":""},{"t":110.633,"note":70,"dur":0.045,"vel":0.992,"inst":"xylophone_v0_plucked_129","midi_source":""},{"t":110.678,"note":46,"dur":0.045,"vel":0.992,"inst":"xylophone_v0_plucked_129","midi_source":""},{"t":110.678,"note":65,"dur":0.045,"vel":0.992,"inst":"banjo_v0_plucked_142","midi_source":""},{"t":110.678,"note":67,"dur":0.045,"vel":0.992,"inst":"xylophone_v0_plucked_129","midi_source":""},{"t":110.723,"note":46,"dur":0.045,"vel":0.992,"inst":"xylophone_v0_plucked_129","midi_source":""},{"t":110.723,"note":62,"dur":0.045,"vel":0.992,"inst":"banjo_v0_plucked_142","midi_source":""},{"t":110.723,"note":70,"dur":0.045,"vel":0.992,"inst":"xylophone_v0_plucked_129","midi_source":""},{"t":110.723,"note":67,"dur":0.045,"vel":0.992,"inst":"xylophone_v0_plucked_129","midi_source":""},{"t":110.767,"note":85,"dur":0.045,"vel":0.992,"inst":"xylophone_v0_plucked_129","midi_source":""},{"t":110.812,"note":46,"dur":0.02,"vel":0.992,"inst":"xylophone_v0_plucked_129","midi_source":""},{"t":110.812,"note":62,"dur":0.02,"vel":0.992,"inst":"banjo_v0_plucked_142","midi_source":""},{"t":110.812,"note":70,"dur":0.02,"vel":0.992,"inst":"xylophone_v0_plucked_129","midi_source":""},{"t":110.812,"note":82,"dur":0.045,"vel":0.992,"inst":"xylophone_v0_plucked_129","midi_source":""},{"t":110.857,"note":53,"dur":0.045,"vel":0.496,"inst":"banjo_v0_plucked_142","midi_source":""},{"t":110.857,"note":65,"dur":0.067,"vel":0.496,"inst":"banjo_v0_plucked_142","midi_source":""},{"t":110.857,"note":67,"dur":0.134,"vel":0.496,"inst":"xylophone_v0_plucked_129","midi_source":""},{"t":110.857,"note":77,"dur":0.134,"vel":0.496,"inst":"banjo_v0_plucked_142","midi_source":""},{"t":110.902,"note":43,"dur":0.045,"vel":0.496,"inst":"xylophone_v0_plucked_129","midi_source":""},{"t":110.946,"note":55,"dur":0.045,"vel":0.496,"inst":"xylophone_v0_plucked_129","midi_source":""},{"t":110.991,"note":53,"dur":0.268,"vel":0.496,"inst":"banjo_v0_plucked_142","midi_source":""},{"t":110.991,"note":58,"dur":0.268,"vel":0.496,"inst":"xylophone_v0_plucked_129","midi_source":""},{"t":110.991,"note":61,"dur":0.045,"vel":0.496,"inst":"xylophone_v0_plucked_129","midi_source":""},{"t":110.991,"note":73,"dur":0.201,"vel":0.496,"inst":"xylophone_v0_plucked_129","midi_source":""},{"t":111.036,"note":62,"dur":0.045,"vel":0.496,"inst":"banjo_v0_plucked_142","midi_source":""},{"t":111.08,"note":65,"dur":0.045,"vel":0.496,"inst":"banjo_v0_plucked_142","midi_source":""},{"t":111.125,"note":55,"dur":0.045,"vel":0.496,"inst":"xylophone_v0_plucked_129","midi_source":""},{"t":111.125,"note":55,"dur":0.134,"vel":0.496,"inst":"xylophone_v0_plucked_129","midi_source":""},{"t":111.17,"note":67,"dur":0.045,"vel":0.496,"inst":"xylophone_v0_plucked_129","midi_source":""},{"t":111.192,"note":67,"dur":0.067,"vel":0.496,"inst":"xylophone_v0_plucked_129","midi_source":""},{"t":111.215,"note":70,"dur":0.045,"vel":0.496,"inst":"xylophone_v0_plucked_129","midi_source":""},{"t":111.259,"note":53,"dur":0.045,"vel":0.496,"inst":"banjo_v0_plucked_142","midi_source":""},{"t":111.259,"note":58,"dur":0.045,"vel":0.496,"inst":"xylophone_v0_plucked_129","midi_source":""},{"t":111.259,"note":55,"dur":0.403,"vel":0.496,"inst":"xylophone_v0_plucked_129","midi_source":""},{"t":111.259,"note":70,"dur":0.403,"vel":0.496,"inst":"xylophone_v0_plucked_129","midi_source":""},{"t":111.259,"note":77,"dur":0.134,"vel":0.496,"inst":"banjo_v0_plucked_142","midi_source":""},{"t":111.349,"note":53,"dur":0.02,"vel":0.496,"inst":"banjo_v0_plucked_142","midi_source":""},{"t":111.349,"note":58,"dur":0.02,"vel":0.496,"inst":"xylophone_v0_plucked_129","midi_source":""},{"t":111.394,"note":58,"dur":0.045,"vel":0.496,"inst":"xylophone_v0_plucked_129","midi_source":""},{"t":111.394,"note":67,"dur":0.168,"vel":0.496,"inst":"xylophone_v0_plucked_129","midi_source":""},{"t":111.438,"note":60,"dur":0.045,"vel":0.496,"inst":"pad_string_v0_bass_416","midi_source":""},{"t":111.483,"note":62,"dur":0.045,"vel":0.496,"inst":"banjo_v0_plucked_142","midi_source":""},{"t":111.528,"note":49,"dur":0.134,"vel":0.496,"inst":"xylophone_v0_plucked_129","midi_source":""},{"t":111.528,"note":65,"dur":0.134,"vel":0.496,"inst":"banjo_v0_plucked_142","midi_source":""},{"t":111.528,"note":70,"dur":0.045,"vel":0.496,"inst":"xylophone_v0_plucked_129","midi_source":""},{"t":111.561,"note":79,"dur":0.034,"vel":0.496,"inst":"xylophone_v0_plucked_129","midi_source":""},{"t":111.573,"note":73,"dur":0.045,"vel":0.496,"inst":"xylophone_v0_plucked_129","midi_source":""},{"t":111.595,"note":79,"dur":0.034,"vel":0.496,"inst":"xylophone_v0_plucked_129","midi_source":""},{"t":111.617,"note":77,"dur":0.045,"vel":0.496,"inst":"banjo_v0_plucked_142","midi_source":""},{"t":111.628,"note":82,"dur":0.034,"vel":0.496,"inst":"xylophone_v0_plucked_129","midi_source":""},{"t":111.662,"note":48,"dur":0.045,"vel":0.496,"inst":"pad_string_v0_bass_416","midi_source":""},{"t":111.662,"note":62,"dur":0.045,"vel":0.496,"inst":"banjo_v0_plucked_142","midi_source":""},{"t":111.662,"note":74,"dur":0.045,"vel":0.496,"inst":"banjo_v0_plucked_142","midi_source":""},{"t":111.662,"note":79,"dur":0.179,"vel":0.496,"inst":"xylophone_v0_plucked_129","midi_source":""},{"t":111.707,"note":50,"dur":0.045,"vel":0.496,"inst":"banjo_v0_plucked_142","midi_source":""},{"t":111.751,"note":55,"dur":0.045,"vel":0.496,"inst":"xylophone_v0_plucked_129","midi_source":""},{"t":111.751,"note":55,"dur":0.02,"vel":0.496,"inst":"xylophone_v0_plucked_129","midi_source":""},{"t":111.751,"note":67,"dur":0.02,"vel":0.496,"inst":"xylophone_v0_plucked_129","midi_source":""},{"t":111.796,"note":49,"dur":0.045,"vel":0.496,"inst":"xylophone_v0_plucked_129","midi_source":""},{"t":111.796,"note":65,"dur":0.045,"vel":0.496,"inst":"banjo_v0_plucked_142","midi_source":""},{"t":111.796,"note":67,"dur":0.045,"vel":0.496,"inst":"xylophone_v0_plucked_129","midi_source":""},{"t":111.841,"note":50,"dur":0.045,"vel":0.496,"inst":"banjo_v0_plucked_142","midi_source":""},{"t":111.841,"note":55,"dur":0.045,"vel":0.496,"inst":"xylophone_v0_plucked_129","midi_source":""},{"t":111.841,"note":72,"dur":0.045,"vel":0.496,"inst":"pad_string_v0_bass_416","midi_source":""},{"t":111.841,"note":67,"dur":0.045,"vel":0.496,"inst":"xylophone_v0_plucked_129","midi_source":""},{"t":111.886,"note":53,"dur":0.045,"vel":0.496,"inst":"banjo_v0_plucked_142","midi_source":""},{"t":111.886,"note":67,"dur":0.045,"vel":0.496,"inst":"xylophone_v0_plucked_129","midi_source":""},{"t":111.886,"note":73,"dur":0.045,"vel":0.496,"inst":"xylophone_v0_plucked_129","midi_source":""},{"t":111.886,"note":77,"dur":0.045,"vel":0.496,"inst":"banjo_v0_plucked_142","midi_source":""},{"t":111.93,"note":43,"dur":0.045,"vel":0.496,"inst":"xylophone_v0_plucked_129","midi_source":""},{"t":111.93,"note":55,"dur":0.045,"vel":0.496,"inst":"xylophone_v0_plucked_129","midi_source":""},{"t":111.93,"note":70,"dur":0.045,"vel":0.496,"inst":"xylophone_v0_plucked_129","midi_source":""},{"t":111.93,"note":74,"dur":0.045,"vel":0.496,"inst":"banjo_v0_plucked_142","midi_source":""},{"t":111.975,"note":61,"dur":0.045,"vel":0.496,"inst":"xylophone_v0_plucked_129","midi_source":""},{"t":111.975,"note":77,"dur":0.045,"vel":0.496,"inst":"banjo_v0_plucked_142","midi_source":""},{"t":112.02,"note":43,"dur":0.02,"vel":0.496,"inst":"xylophone_v0_plucked_129","midi_source":""},{"t":112.02,"note":65,"dur":0.045,"vel":0.496,"inst":"banjo_v0_plucked_142","midi_source":""},{"t":112.02,"note":70,"dur":0.02,"vel":0.496,"inst":"xylophone_v0_plucked_129","midi_source":""},{"t":112.02,"note":73,"dur":0.045,"vel":0.496,"inst":"xylophone_v0_plucked_129","midi_source":""},{"t":112.065,"note":46,"dur":0.045,"vel":0.496,"inst":"xylophone_v0_plucked_129","midi_source":""},{"t":112.065,"note":65,"dur":0.045,"vel":0.496,"inst":"banjo_v0_plucked_142","midi_source":""},{"t":112.065,"note":70,"dur":0.045,"vel":0.496,"inst":"xylophone_v0_plucked_129","midi_source":""},{"t":112.065,"note":73,"dur":0.134,"vel":0.496,"inst":"xylophone_v0_plucked_129","midi_source":""},{"t":112.109,"note":43,"dur":0.045,"vel":0.496,"inst":"xylophone_v0_plucked_129","midi_source":""},{"t":112.109,"note":65,"dur":0.045,"vel":0.496,"inst":"banjo_v0_plucked_142","midi_source":""},{"t":112.109,"note":55,"dur":0.045,"vel":0.496,"inst":"xylophone_v0_plucked_129","midi_source":""},{"t":112.154,"note":58,"dur":0.045,"vel":0.496,"inst":"xylophone_v0_plucked_129","midi_source":""},{"t":112.154,"note":65,"dur":0.045,"vel":0.496,"inst":"banjo_v0_plucked_142","midi_source":""},{"t":112.154,"note":55,"dur":0.045,"vel":0.496,"inst":"xylophone_v0_plucked_129","midi_source":""},{"t":112.199,"note":58,"dur":0.268,"vel":0.496,"inst":"xylophone_v0_plucked_129","midi_source":""},{"t":112.199,"note":62,"dur":0.045,"vel":0.496,"inst":"banjo_v0_plucked_142","midi_source":""},{"t":112.199,"note":55,"dur":0.179,"vel":0.496,"inst":"xylophone_v0_plucked_129","midi_source":""},{"t":112.199,"note":70,"dur":0.134,"vel":0.496,"inst":"xylophone_v0_plucked_129","midi_source":""},{"t":112.244,"note":55,"dur":0.045,"vel":0.496,"inst":"xylophone_v0_plucked_129","midi_source":""},{"t":112.288,"note":70,"dur":0.045,"vel":0.496,"inst":"xylophone_v0_plucked_129","midi_source":""},{"t":112.333,"note":70,"dur":0.045,"vel":0.496,"inst":"xylophone_v0_plucked_129","midi_source":""},{"t":112.378,"note":62,"dur":0.045,"vel":0.496,"inst":"banjo_v0_plucked_142","midi_source":""},{"t":112.378,"note":55,"dur":0.045,"vel":0.496,"inst":"xylophone_v0_plucked_129","midi_source":""},{"t":112.422,"note":61,"dur":0.045,"vel":0.496,"inst":"xylophone_v0_plucked_129","midi_source":""},{"t":112.422,"note":65,"dur":0.045,"vel":0.496,"inst":"banjo_v0_plucked_142","midi_source":""},{"t":112.467,"note":58,"dur":0.045,"vel":0.496,"inst":"xylophone_v0_plucked_129","midi_source":""},{"t":112.467,"note":58,"dur":0.134,"vel":0.496,"inst":"xylophone_v0_plucked_129","midi_source":""},{"t":112.467,"note":62,"dur":0.134,"vel":0.496,"inst":"banjo_v0_plucked_142","midi_source":""},{"t":112.512,"note":62,"dur":0.045,"vel":0.496,"inst":"banjo_v0_plucked_142","midi_source":""},{"t":112.557,"note":55,"dur":0.045,"vel":0.496,"inst":"xylophone_v0_plucked_129","midi_source":""},{"t":112.601,"note":55,"dur":0.134,"vel":0.496,"inst":"xylophone_v0_plucked_129","midi_source":""},{"t":112.601,"note":58,"dur":0.045,"vel":0.496,"inst":"xylophone_v0_plucked_129","midi_source":""},{"t":112.601,"note":65,"dur":0.134,"vel":0.496,"inst":"banjo_v0_plucked_142","midi_source":""},{"t":112.601,"note":70,"dur":0.313,"vel":0.496,"inst":"xylophone_v0_plucked_129","midi_source":""},{"t":112.646,"note":62,"dur":0.045,"vel":0.496,"inst":"banjo_v0_plucked_142","midi_source":""},{"t":112.691,"note":67,"dur":0.045,"vel":0.496,"inst":"xylophone_v0_plucked_129","midi_source":""},{"t":112.736,"note":43,"dur":0.134,"vel":0.496,"inst":"xylophone_v0_plucked_129","midi_source":""},{"t":112.736,"note":55,"dur":0.045,"vel":0.496,"inst":"xylophone_v0_plucked_129","midi_source":""},{"t":112.736,"note":70,"dur":0.134,"vel":0.496,"inst":"xylophone_v0_plucked_129","midi_source":""},{"t":112.78,"note":70,"dur":0.045,"vel":0.496,"inst":"xylophone_v0_plucked_129","midi_source":""},{"t":112.825,"note":74,"dur":0.045,"vel":0.496,"inst":"banjo_v0_plucked_142","midi_source":""},{"t":112.87,"note":53,"dur":0.313,"vel":0.496,"inst":"banjo_v0_plucked_142","midi_source":""},{"t":112.87,"note":67,"dur":0.313,"vel":0.496,"inst":"xylophone_v0_plucked_129","midi_source":""},{"t":112.87,"note":77,"dur":0.313,"vel":0.496,"inst":"banjo_v0_plucked_142","midi_source":""},{"t":112.915,"note":65,"dur":0.045,"vel":0.496,"inst":"banjo_v0_plucked_142","midi_source":""},{"t":112.959,"note":55,"dur":0.045,"vel":0.496,"inst":"xylophone_v0_plucked_129","midi_source":""},{"t":113.004,"note":67,"dur":0.045,"vel":0.496,"inst":"xylophone_v0_plucked_129","midi_source":""},{"t":113.049,"note":70,"dur":0.045,"vel":0.496,"inst":"xylophone_v0_plucked_129","midi_source":""},{"t":113.093,"note":77,"dur":0.045,"vel":0.496,"inst":"banjo_v0_plucked_142","midi_source":""},{"t":113.138,"note":79,"dur":0.045,"vel":0.496,"inst":"xylophone_v0_plucked_129","midi_source":""},{"t":113.183,"note":46,"dur":0.045,"vel":0.496,"inst":"xylophone_v0_plucked_129","midi_source":""},{"t":113.183,"note":67,"dur":0.045,"vel":0.496,"inst":"xylophone_v0_plucked_129","midi_source":""},{"t":113.183,"note":70,"dur":0.045,"vel":0.496,"inst":"xylophone_v0_plucked_129","midi_source":""},{"t":113.183,"note":82,"dur":0.045,"vel":0.496,"inst":"xylophone_v0_plucked_129","midi_source":""},{"t":113.228,"note":49,"dur":0.045,"vel":0.496,"inst":"xylophone_v0_plucked_129","midi_source":""},{"t":113.228,"note":55,"dur":0.045,"vel":0.496,"inst":"xylophone_v0_plucked_129","midi_source":""},{"t":113.228,"note":70,"dur":0.045,"vel":0.496,"inst":"xylophone_v0_plucked_129","midi_source":""},{"t":113.228,"note":82,"dur":0.045,"vel":0.496,"inst":"xylophone_v0_plucked_129","midi_source":""},{"t":113.272,"note":50,"dur":0.067,"vel":0.496,"inst":"banjo_v0_plucked_142","midi_source":""},{"t":113.272,"note":65,"dur":0.134,"vel":0.496,"inst":"banjo_v0_plucked_142","midi_source":""},{"t":113.272,"note":67,"dur":0.134,"vel":0.496,"inst":"xylophone_v0_plucked_129","midi_source":""},{"t":113.272,"note":79,"dur":0.134,"vel":0.496,"inst":"xylophone_v0_plucked_129","midi_source":""},{"t":113.34,"note":58,"dur":0.067,"vel":0.496,"inst":"xylophone_v0_plucked_129","midi_source":""},{"t":113.407,"note":49,"dur":0.134,"vel":0.496,"inst":"xylophone_v0_plucked_129","midi_source":""},{"t":113.407,"note":58,"dur":0.045,"vel":0.496,"inst":"xylophone_v0_plucked_129","midi_source":""},{"t":113.407,"note":65,"dur":0.134,"vel":0.496,"inst":"banjo_v0_plucked_142","midi_source":""},{"t":113.407,"note":82,"dur":0.134,"vel":0.496,"inst":"xylophone_v0_plucked_129","midi_source":""},{"t":113.451,"note":61,"dur":0.045,"vel":0.496,"inst":"xylophone_v0_plucked_129","midi_source":""},{"t":113.496,"note":65,"dur":0.045,"vel":0.496,"inst":"banjo_v0_plucked_142","midi_source":""},{"t":113.541,"note":46,"dur":0.134,"vel":0.496,"inst":"xylophone_v0_plucked_129","midi_source":""},{"t":113.541,"note":62,"dur":0.134,"vel":0.496,"inst":"banjo_v0_plucked_142","midi_source":""},{"t":113.541,"note":67,"dur":0.045,"vel":0.496,"inst":"xylophone_v0_plucked_129","midi_source":""},{"t":113.541,"note":82,"dur":0.134,"vel":0.496,"inst":"xylophone_v0_plucked_129","midi_source":""},{"t":113.586,"note":70,"dur":0.045,"vel":0.496,"inst":"xylophone_v0_plucked_129","midi_source":""},{"t":113.63,"note":77,"dur":0.045,"vel":0.496,"inst":"banjo_v0_plucked_142","midi_source":""},{"t":113.675,"note":46,"dur":0.045,"vel":0.496,"inst":"xylophone_v0_plucked_129","midi_source":""},{"t":113.675,"note":61,"dur":0.134,"vel":0.496,"inst":"xylophone_v0_plucked_129","midi_source":""},{"t":113.675,"note":77,"dur":0.067,"vel":0.496,"inst":"banjo_v0_plucked_142","midi_source":""},{"t":113.675,"note":85,"dur":0.313,"vel":0.496,"inst":"xylophone_v0_plucked_129","midi_source":""},{"t":113.72,"note":49,"dur":0.045,"vel":0.496,"inst":"xylophone_v0_plucked_129","midi_source":""},{"t":113.742,"note":82,"dur":0.246,"vel":0.496,"inst":"xylophone_v0_plucked_129","midi_source":""},{"t":113.764,"note":53,"dur":0.045,"vel":0.496,"inst":"banjo_v0_plucked_142","midi_source":""},{"t":113.809,"note":55,"dur":0.045,"vel":0.496,"inst":"xylophone_v0_plucked_129","midi_source":""},{"t":113.809,"note":65,"dur":0.134,"vel":0.496,"inst":"banjo_v0_plucked_142","midi_source":""},{"t":113.854,"note":58,"dur":0.045,"vel":0.496,"inst":"xylophone_v0_plucked_129","midi_source":""},{"t":113.899,"note":61,"dur":0.045,"vel":0.496,"inst":"xylophone_v0_plucked_129","midi_source":""},{"t":113.943,"note":65,"dur":0.045,"vel":0.496,"inst":"banjo_v0_plucked_142","midi_source":""},{"t":113.943,"note":73,"dur":0.045,"vel":0.496,"inst":"xylophone_v0_plucked_129","midi_source":""},{"t":113.988,"note":67,"dur":0.045,"vel":0.496,"inst":"xylophone_v0_plucked_129","midi_source":""},{"t":113.988,"note":70,"dur":0.045,"vel":0.496,"inst":"xylophone_v0_plucked_129","midi_source":""},{"t":113.988,"note":82,"dur":0.045,"vel":0.496,"inst":"xylophone_v0_plucked_129","midi_source":""},{"t":113.988,"note":86,"dur":0.045,"vel":0.496,"inst":"banjo_v0_plucked_142","midi_source":""},{"t":114.033,"note":70,"dur":0.045,"vel":0.496,"inst":"xylophone_v0_plucked_129","midi_source":""},{"t":114.033,"note":73,"dur":0.045,"vel":0.496,"inst":"xylophone_v0_plucked_129","midi_source":""},{"t":114.033,"note":82,"dur":0.045,"vel":0.496,"inst":"xylophone_v0_plucked_129","midi_source":""},{"t":114.033,"note":85,"dur":0.045,"vel":0.496,"inst":"xylophone_v0_plucked_129","midi_source":""},{"t":114.078,"note":49,"dur":0.045,"vel":0.496,"inst":"xylophone_v0_plucked_129","midi_source":""},{"t":114.078,"note":73,"dur":0.067,"vel":0.496,"inst":"xylophone_v0_plucked_129","midi_source":""},{"t":114.078,"note":82,"dur":0.067,"vel":0.496,"inst":"xylophone_v0_plucked_129","midi_source":""},{"t":114.078,"note":85,"dur":0.067,"vel":0.496,"inst":"xylophone_v0_plucked_129","midi_source":""},{"t":114.122,"note":53,"dur":0.045,"vel":0.496,"inst":"banjo_v0_plucked_142","midi_source":""},{"t":114.145,"note":65,"dur":0.246,"vel":0.496,"inst":"banjo_v0_plucked_142","midi_source":""},{"t":114.145,"note":79,"dur":0.246,"vel":0.496,"inst":"xylophone_v0_plucked_129","midi_source":""},{"t":114.145,"note":82,"dur":0.246,"vel":0.496,"inst":"xylophone_v0_plucked_129","midi_source":""},{"t":114.167,"note":55,"dur":0.045,"vel":0.496,"inst":"xylophone_v0_plucked_129","midi_source":""},{"t":114.212,"note":58,"dur":0.045,"vel":0.496,"inst":"xylophone_v0_plucked_129","midi_source":""},{"t":114.257,"note":61,"dur":0.045,"vel":0.496,"inst":"xylophone_v0_plucked_129","midi_source":""},{"t":114.301,"note":65,"dur":0.045,"vel":0.496,"inst":"banjo_v0_plucked_142","midi_source":""},{"t":114.346,"note":67,"dur":0.045,"vel":0.496,"inst":"xylophone_v0_plucked_129","midi_source":""},{"t":114.391,"note":49,"dur":0.045,"vel":0.496,"inst":"xylophone_v0_plucked_129","midi_source":""},{"t":114.391,"note":82,"dur":0.045,"vel":0.496,"inst":"xylophone_v0_plucked_129","midi_source":""},{"t":114.391,"note":85,"dur":0.045,"vel":0.496,"inst":"xylophone_v0_plucked_129","midi_source":""},{"t":114.435,"note":53,"dur":0.045,"vel":0.496,"inst":"banjo_v0_plucked_142","midi_source":""},{"t":114.435,"note":73,"dur":0.02,"vel":0.496,"inst":"xylophone_v0_plucked_129","midi_source":""},{"t":114.435,"note":79,"dur":0.045,"vel":0.496,"inst":"xylophone_v0_plucked_129","midi_source":""},{"t":114.435,"note":82,"dur":0.045,"vel":0.496,"inst":"xylophone_v0_plucked_129","midi_source":""},{"t":114.48,"note":43,"dur":0.045,"vel":0.496,"inst":"xylophone_v0_plucked_129","midi_source":""},{"t":114.48,"note":73,"dur":0.067,"vel":0.496,"inst":"xylophone_v0_plucked_129","midi_source":""},{"t":114.48,"note":79,"dur":0.067,"vel":0.496,"inst":"xylophone_v0_plucked_129","midi_source":""},{"t":114.48,"note":82,"dur":0.067,"vel":0.496,"inst":"xylophone_v0_plucked_129","midi_source":""},{"t":114.525,"note":58,"dur":0.045,"vel":0.496,"inst":"xylophone_v0_plucked_129","midi_source":""},{"t":114.547,"note":61,"dur":0.246,"vel":0.496,"inst":"xylophone_v0_plucked_129","midi_source":""},{"t":114.547,"note":67,"dur":0.201,"vel":0.496,"inst":"xylophone_v0_plucked_129","midi_source":""},{"t":114.547,"note":82,"dur":0.246,"vel":0.496,"inst":"xylophone_v0_plucked_129","midi_source":""},{"t":114.57,"note":61,"dur":0.045,"vel":0.496,"inst":"xylophone_v0_plucked_129","midi_source":""},{"t":114.614,"note":65,"dur":0.045,"vel":0.496,"inst":"banjo_v0_plucked_142","midi_source":""},{"t":114.659,"note":55,"dur":0.045,"vel":0.496,"inst":"xylophone_v0_plucked_129","midi_source":""},{"t":114.704,"note":70,"dur":0.045,"vel":0.496,"inst":"xylophone_v0_plucked_129","midi_source":""},{"t":114.749,"note":73,"dur":0.045,"vel":0.496,"inst":"xylophone_v0_plucked_129","midi_source":""},{"t":114.749,"note":67,"dur":0.045,"vel":0.496,"inst":"xylophone_v0_plucked_129","midi_source":""},{"t":114.793,"note":43,"dur":0.045,"vel":0.496,"inst":"xylophone_v0_plucked_129","midi_source":""},{"t":114.793,"note":70,"dur":0.045,"vel":0.496,"inst":"xylophone_v0_plucked_129","midi_source":""},{"t":114.793,"note":85,"dur":0.045,"vel":0.496,"inst":"xylophone_v0_plucked_129","midi_source":""},{"t":114.838,"note":55,"dur":0.045,"vel":0.496,"inst":"xylophone_v0_plucked_129","midi_source":""},{"t":114.838,"note":65,"dur":0.045,"vel":0.496,"inst":"banjo_v0_plucked_142","midi_source":""},{"t":114.838,"note":73,"dur":0.02,"vel":0.496,"inst":"xylophone_v0_plucked_129","midi_source":""},{"t":114.838,"note":82,"dur":0.045,"vel":0.496,"inst":"xylophone_v0_plucked_129","midi_source":""},{"t":114.883,"note":46,"dur":0.045,"vel":0.496,"inst":"xylophone_v0_plucked_129","midi_source":""},{"t":114.883,"note":55,"dur":0.313,"vel":0.496,"inst":"xylophone_v0_plucked_129","midi_source":""},{"t":114.883,"note":73,"dur":0.313,"vel":0.496,"inst":"xylophone_v0_plucked_129","midi_source":""},{"t":114.883,"note":82,"dur":0.067,"vel":0.496,"inst":"xylophone_v0_plucked_129","midi_source":""},{"t":114.928,"note":49,"dur":0.045,"vel":0.496,"inst":"xylophone_v0_plucked_129","midi_source":""},{"t":114.95,"note":82,"dur":0.067,"vel":0.496,"inst":"xylophone_v0_plucked_129","midi_source":""},{"t":114.972,"note":43,"dur":0.045,"vel":0.496,"inst":"xylophone_v0_plucked_129","midi_source":""},{"t":115.017,"note":58,"dur":0.045,"vel":0.496,"inst":"xylophone_v0_plucked_129","midi_source":""},{"t":115.017,"note":79,"dur":0.067,"vel":0.496,"inst":"xylophone_v0_plucked_129","midi_source":""},{"t":115.062,"note":61,"dur":0.045,"vel":0.496,"inst":"xylophone_v0_plucked_129","midi_source":""},{"t":115.084,"note":67,"dur":0.067,"vel":0.496,"inst":"xylophone_v0_plucked_129","midi_source":""},{"t":115.106,"note":55,"dur":0.045,"vel":0.496,"inst":"xylophone_v0_plucked_129","midi_source":""},{"t":115.151,"note":70,"dur":0.045,"vel":0.496,"inst":"xylophone_v0_plucked_129","midi_source":""},{"t":115.151,"note":86,"dur":0.045,"vel":0.496,"inst":"banjo_v0_plucked_142","midi_source":""},{"t":115.196,"note":58,"dur":0.045,"vel":0.496,"inst":"xylophone_v0_plucked_129","midi_source":""},{"t":115.196,"note":55,"dur":0.045,"vel":0.496,"inst":"xylophone_v0_plucked_129","midi_source":""},{"t":115.196,"note":73,"dur":0.045,"vel":0.496,"inst":"xylophone_v0_plucked_129","midi_source":""},{"t":115.196,"note":85,"dur":0.045,"vel":0.496,"inst":"xylophone_v0_plucked_129","midi_source":""},{"t":115.241,"note":46,"dur":0.045,"vel":0.496,"inst":"xylophone_v0_plucked_129","midi_source":""},{"t":115.241,"note":55,"dur":0.045,"vel":0.496,"inst":"xylophone_v0_plucked_129","midi_source":""},{"t":115.241,"note":70,"dur":0.045,"vel":0.496,"inst":"xylophone_v0_plucked_129","midi_source":""},{"t":115.241,"note":74,"dur":0.045,"vel":0.496,"inst":"banjo_v0_plucked_142","midi_source":""},{"t":115.285,"note":43,"dur":0.045,"vel":0.496,"inst":"xylophone_v0_plucked_129","midi_source":""},{"t":115.285,"note":65,"dur":0.045,"vel":0.496,"inst":"banjo_v0_plucked_142","midi_source":""},{"t":115.285,"note":70,"dur":0.045,"vel":0.496,"inst":"xylophone_v0_plucked_129","midi_source":""},{"t":115.285,"note":67,"dur":0.034,"vel":0.496,"inst":"xylophone_v0_plucked_129","midi_source":""},{"t":115.319,"note":77,"dur":0.034,"vel":0.496,"inst":"banjo_v0_plucked_142","midi_source":""},{"t":115.33,"note":49,"dur":0.045,"vel":0.496,"inst":"xylophone_v0_plucked_129","midi_source":""},{"t":115.33,"note":65,"dur":0.045,"vel":0.496,"inst":"banjo_v0_plucked_142","midi_source":""},{"t":115.33,"note":70,"dur":0.045,"vel":0.496,"inst":"xylophone_v0_plucked_129","midi_source":""},{"t":115.353,"note":82,"dur":0.034,"vel":0.496,"inst":"xylophone_v0_plucked_129","midi_source":""},{"t":115.375,"note":46,"dur":0.045,"vel":0.496,"inst":"xylophone_v0_plucked_129","midi_source":""},{"t":115.375,"note":73,"dur":0.045,"vel":0.496,"inst":"xylophone_v0_plucked_129","midi_source":""},{"t":115.375,"note":77,"dur":0.045,"vel":0.496,"inst":"banjo_v0_plucked_142","midi_source":""},{"t":115.386,"note":82,"dur":0.034,"vel":0.496,"inst":"xylophone_v0_plucked_129","midi_source":""},{"t":115.42,"note":46,"dur":0.045,"vel":0.992,"inst":"xylophone_v0_plucked_129","midi_source":""},{"t":115.42,"note":70,"dur":0.045,"vel":0.992,"inst":"xylophone_v0_plucked_129","midi_source":""},{"t":115.42,"note":77,"dur":0.045,"vel":0.992,"inst":"banjo_v0_plucked_142","midi_source":""},{"t":115.42,"note":79,"dur":0.134,"vel":0.992,"inst":"xylophone_v0_plucked_129","midi_source":""},{"t":115.465,"note":58,"dur":0.045,"vel":0.992,"inst":"xylophone_v0_plucked_129","midi_source":""},{"t":115.465,"note":67,"dur":0.045,"vel":0.992,"inst":"xylophone_v0_plucked_129","midi_source":""},{"t":115.465,"note":70,"dur":0.045,"vel":0.992,"inst":"xylophone_v0_plucked_129","midi_source":""},{"t":115.509,"note":46,"dur":0.045,"vel":0.992,"inst":"xylophone_v0_plucked_129","midi_source":""},{"t":115.509,"note":65,"dur":0.045,"vel":0.992,"inst":"banjo_v0_plucked_142","midi_source":""},{"t":115.509,"note":67,"dur":0.045,"vel":0.992,"inst":"xylophone_v0_plucked_129","midi_source":""},{"t":115.554,"note":46,"dur":0.045,"vel":0.992,"inst":"xylophone_v0_plucked_129","midi_source":""},{"t":115.554,"note":62,"dur":0.045,"vel":0.992,"inst":"banjo_v0_plucked_142","midi_source":""},{"t":115.554,"note":70,"dur":0.045,"vel":0.992,"inst":"xylophone_v0_plucked_129","midi_source":""},{"t":115.554,"note":67,"dur":0.045,"vel":0.992,"inst":"xylophone_v0_plucked_129","midi_source":""},{"t":115.599,"note":85,"dur":0.045,"vel":0.992,"inst":"xylophone_v0_plucked_129","midi_source":""},{"t":115.643,"note":46,"dur":0.02,"vel":0.992,"inst":"xylophone_v0_plucked_129","midi_source":""},{"t":115.643,"note":62,"dur":0.02,"vel":0.992,"inst":"banjo_v0_plucked_142","midi_source":""},{"t":115.643,"note":70,"dur":0.02,"vel":0.992,"inst":"xylophone_v0_plucked_129","midi_source":""},{"t":115.643,"note":82,"dur":0.045,"vel":0.992,"inst":"xylophone_v0_plucked_129","midi_source":""},{"t":115.688,"note":53,"dur":0.045,"vel":0.496,"inst":"banjo_v0_plucked_142","midi_source":""},{"t":115.688,"note":65,"dur":0.067,"vel":0.496,"inst":"banjo_v0_plucked_142","midi_source":""},{"t":115.688,"note":67,"dur":0.134,"vel":0.496,"inst":"xylophone_v0_plucked_129","midi_source":""},{"t":115.688,"note":77,"dur":0.134,"vel":0.496,"inst":"banjo_v0_plucked_142","midi_source":""},{"t":115.733,"note":43,"dur":0.045,"vel":0.496,"inst":"xylophone_v0_plucked_129","midi_source":""},{"t":115.777,"note":55,"dur":0.045,"vel":0.496,"inst":"xylophone_v0_plucked_129","midi_source":""},{"t":115.822,"note":53,"dur":0.268,"vel":0.496,"inst":"banjo_v0_plucked_142","midi_source":""},{"t":115.822,"note":58,"dur":0.268,"vel":0.496,"inst":"xylophone_v0_plucked_129","midi_source":""},{"t":115.822,"note":61,"dur":0.045,"vel":0.496,"inst":"xylophone_v0_plucked_129","midi_source":""},{"t":115.822,"note":73,"dur":0.201,"vel":0.496,"inst":"xylophone_v0_plucked_129","midi_source":""},{"t":115.867,"note":62,"dur":0.045,"vel":0.496,"inst":"banjo_v0_plucked_142","midi_source":""},{"t":115.912,"note":65,"dur":0.045,"vel":0.496,"inst":"banjo_v0_plucked_142","midi_source":""},{"t":115.957,"note":55,"dur":0.045,"vel":0.496,"inst":"xylophone_v0_plucked_129","midi_source":""},{"t":115.957,"note":55,"dur":0.134,"vel":0.496,"inst":"xylophone_v0_plucked_129","midi_source":""},{"t":116.001,"note":67,"dur":0.045,"vel":0.496,"inst":"xylophone_v0_plucked_129","midi_source":""},{"t":116.024,"note":67,"dur":0.067,"vel":0.496,"inst":"xylophone_v0_plucked_129","midi_source":""},{"t":116.046,"note":70,"dur":0.045,"vel":0.496,"inst":"xylophone_v0_plucked_129","midi_source":""},{"t":116.091,"note":53,"dur":0.045,"vel":0.496,"inst":"banjo_v0_plucked_142","midi_source":""},{"t":116.091,"note":58,"dur":0.045,"vel":0.496,"inst":"xylophone_v0_plucked_129","midi_source":""},{"t":116.091,"note":55,"dur":0.403,"vel":0.496,"inst":"xylophone_v0_plucked_129","midi_source":""},{"t":116.091,"note":70,"dur":0.403,"vel":0.496,"inst":"xylophone_v0_plucked_129","midi_source":""},{"t":116.091,"note":77,"dur":0.134,"vel":0.496,"inst":"banjo_v0_plucked_142","midi_source":""},{"t":116.18,"note":53,"dur":0.02,"vel":0.496,"inst":"banjo_v0_plucked_142","midi_source":""},{"t":116.18,"note":58,"dur":0.02,"vel":0.496,"inst":"xylophone_v0_plucked_129","midi_source":""},{"t":116.225,"note":58,"dur":0.045,"vel":0.496,"inst":"xylophone_v0_plucked_129","midi_source":""},{"t":116.225,"note":67,"dur":0.168,"vel":0.496,"inst":"xylophone_v0_plucked_129","midi_source":""},{"t":116.27,"note":60,"dur":0.045,"vel":0.496,"inst":"pad_string_v0_bass_416","midi_source":""},{"t":116.314,"note":62,"dur":0.045,"vel":0.496,"inst":"banjo_v0_plucked_142","midi_source":""},{"t":116.359,"note":49,"dur":0.134,"vel":0.496,"inst":"xylophone_v0_plucked_129","midi_source":""},{"t":116.359,"note":65,"dur":0.134,"vel":0.496,"inst":"banjo_v0_plucked_142","midi_source":""},{"t":116.359,"note":70,"dur":0.045,"vel":0.496,"inst":"xylophone_v0_plucked_129","midi_source":""},{"t":116.393,"note":79,"dur":0.034,"vel":0.496,"inst":"xylophone_v0_plucked_129","midi_source":""},{"t":116.404,"note":73,"dur":0.045,"vel":0.496,"inst":"xylophone_v0_plucked_129","midi_source":""},{"t":116.426,"note":79,"dur":0.034,"vel":0.496,"inst":"xylophone_v0_plucked_129","midi_source":""},{"t":116.449,"note":77,"dur":0.045,"vel":0.496,"inst":"banjo_v0_plucked_142","midi_source":""},{"t":116.46,"note":82,"dur":0.034,"vel":0.496,"inst":"xylophone_v0_plucked_129","midi_source":""},{"t":116.493,"note":48,"dur":0.045,"vel":0.496,"inst":"pad_string_v0_bass_416","midi_source":""},{"t":116.493,"note":62,"dur":0.045,"vel":0.496,"inst":"banjo_v0_plucked_142","midi_source":""},{"t":116.493,"note":74,"dur":0.045,"vel":0.496,"inst":"banjo_v0_plucked_142","midi_source":""},{"t":116.493,"note":79,"dur":0.179,"vel":0.496,"inst":"xylophone_v0_plucked_129","midi_source":""},{"t":116.538,"note":50,"dur":0.045,"vel":0.496,"inst":"banjo_v0_plucked_142","midi_source":""},{"t":116.583,"note":55,"dur":0.045,"vel":0.496,"inst":"xylophone_v0_plucked_129","midi_source":""},{"t":116.583,"note":55,"dur":0.02,"vel":0.496,"inst":"xylophone_v0_plucked_129","midi_source":""},{"t":116.583,"note":67,"dur":0.02,"vel":0.496,"inst":"xylophone_v0_plucked_129","midi_source":""},{"t":116.628,"note":49,"dur":0.045,"vel":0.496,"inst":"xylophone_v0_plucked_129","midi_source":""},{"t":116.628,"note":65,"dur":0.045,"vel":0.496,"inst":"banjo_v0_plucked_142","midi_source":""},{"t":116.628,"note":67,"dur":0.045,"vel":0.496,"inst":"xylophone_v0_plucked_129","midi_source":""},{"t":116.672,"note":50,"dur":0.045,"vel":0.496,"inst":"banjo_v0_plucked_142","midi_source":""},{"t":116.672,"note":55,"dur":0.045,"vel":0.496,"inst":"xylophone_v0_plucked_129","midi_source":""},{"t":116.672,"note":72,"dur":0.045,"vel":0.496,"inst":"pad_string_v0_bass_416","midi_source":""},{"t":116.672,"note":67,"dur":0.045,"vel":0.496,"inst":"xylophone_v0_plucked_129","midi_source":""},{"t":116.717,"note":53,"dur":0.045,"vel":0.496,"inst":"banjo_v0_plucked_142","midi_source":""},{"t":116.717,"note":67,"dur":0.045,"vel":0.496,"inst":"xylophone_v0_plucked_129","midi_source":""},{"t":116.717,"note":73,"dur":0.045,"vel":0.496,"inst":"xylophone_v0_plucked_129","midi_source":""},{"t":116.717,"note":77,"dur":0.045,"vel":0.496,"inst":"banjo_v0_plucked_142","midi_source":""},{"t":116.762,"note":43,"dur":0.045,"vel":0.496,"inst":"xylophone_v0_plucked_129","midi_source":""},{"t":116.762,"note":55,"dur":0.045,"vel":0.496,"inst":"xylophone_v0_plucked_129","midi_source":""},{"t":116.762,"note":70,"dur":0.045,"vel":0.496,"inst":"xylophone_v0_plucked_129","midi_source":""},{"t":116.762,"note":74,"dur":0.045,"vel":0.496,"inst":"banjo_v0_plucked_142","midi_source":""},{"t":116.807,"note":61,"dur":0.045,"vel":0.496,"inst":"xylophone_v0_plucked_129","midi_source":""},{"t":116.807,"note":77,"dur":0.045,"vel":0.496,"inst":"banjo_v0_plucked_142","midi_source":""},{"t":116.851,"note":43,"dur":0.02,"vel":0.496,"inst":"xylophone_v0_plucked_129","midi_source":""},{"t":116.851,"note":65,"dur":0.045,"vel":0.496,"inst":"banjo_v0_plucked_142","midi_source":""},{"t":116.851,"note":70,"dur":0.02,"vel":0.496,"inst":"xylophone_v0_plucked_129","midi_source":""},{"t":116.851,"note":73,"dur":0.045,"vel":0.496,"inst":"xylophone_v0_plucked_129","midi_source":""},{"t":116.896,"note":46,"dur":0.045,"vel":0.496,"inst":"xylophone_v0_plucked_129","midi_source":""},{"t":116.896,"note":65,"dur":0.045,"vel":0.496,"inst":"banjo_v0_plucked_142","midi_source":""},{"t":116.896,"note":70,"dur":0.045,"vel":0.496,"inst":"xylophone_v0_plucked_129","midi_source":""},{"t":116.896,"note":73,"dur":0.134,"vel":0.496,"inst":"xylophone_v0_plucked_129","midi_source":""},{"t":116.941,"note":43,"dur":0.045,"vel":0.496,"inst":"xylophone_v0_plucked_129","midi_source":""},{"t":116.941,"note":65,"dur":0.045,"vel":0.496,"inst":"banjo_v0_plucked_142","midi_source":""},{"t":116.941,"note":55,"dur":0.045,"vel":0.496,"inst":"xylophone_v0_plucked_129","midi_source":""},{"t":116.985,"note":58,"dur":0.045,"vel":0.496,"inst":"xylophone_v0_plucked_129","midi_source":""},{"t":116.985,"note":65,"dur":0.045,"vel":0.496,"inst":"banjo_v0_plucked_142","midi_source":""},{"t":116.985,"note":55,"dur":0.045,"vel":0.496,"inst":"xylophone_v0_plucked_129","midi_source":""},{"t":117.03,"note":58,"dur":0.268,"vel":0.496,"inst":"xylophone_v0_plucked_129","midi_source":""},{"t":117.03,"note":62,"dur":0.045,"vel":0.496,"inst":"banjo_v0_plucked_142","midi_source":""},{"t":117.03,"note":55,"dur":0.179,"vel":0.496,"inst":"xylophone_v0_plucked_129","midi_source":""},{"t":117.03,"note":70,"dur":0.134,"vel":0.496,"inst":"xylophone_v0_plucked_129","midi_source":""},{"t":117.075,"note":55,"dur":0.045,"vel":0.496,"inst":"xylophone_v0_plucked_129","midi_source":""},{"t":117.12,"note":70,"dur":0.045,"vel":0.496,"inst":"xylophone_v0_plucked_129","midi_source":""},{"t":117.164,"note":70,"dur":0.045,"vel":0.496,"inst":"xylophone_v0_plucked_129","midi_source":""},{"t":117.209,"note":62,"dur":0.045,"vel":0.496,"inst":"banjo_v0_plucked_142","midi_source":""},{"t":117.209,"note":55,"dur":0.045,"vel":0.496,"inst":"xylophone_v0_plucked_129","midi_source":""},{"t":117.254,"note":61,"dur":0.045,"vel":0.496,"inst":"xylophone_v0_plucked_129","midi_source":""},{"t":117.254,"note":65,"dur":0.045,"vel":0.496,"inst":"banjo_v0_plucked_142","midi_source":""},{"t":117.299,"note":58,"dur":0.045,"vel":0.496,"inst":"xylophone_v0_plucked_129","midi_source":""},{"t":117.299,"note":58,"dur":0.134,"vel":0.496,"inst":"xylophone_v0_plucked_129","midi_source":""},{"t":117.299,"note":62,"dur":0.134,"vel":0.496,"inst":"banjo_v0_plucked_142","midi_source":""},{"t":117.343,"note":62,"dur":0.045,"vel":0.496,"inst":"banjo_v0_plucked_142","midi_source":""},{"t":117.388,"note":55,"dur":0.045,"vel":0.496,"inst":"xylophone_v0_plucked_129","midi_source":""},{"t":117.433,"note":55,"dur":0.134,"vel":0.496,"inst":"xylophone_v0_plucked_129","midi_source":""},{"t":117.433,"note":58,"dur":0.045,"vel":0.496,"inst":"xylophone_v0_plucked_129","midi_source":""},{"t":117.433,"note":65,"dur":0.134,"vel":0.496,"inst":"banjo_v0_plucked_142","midi_source":""},{"t":117.433,"note":70,"dur":0.313,"vel":0.496,"inst":"xylophone_v0_plucked_129","midi_source":""},{"t":117.478,"note":62,"dur":0.045,"vel":0.496,"inst":"banjo_v0_plucked_142","midi_source":""},{"t":117.522,"note":67,"dur":0.045,"vel":0.496,"inst":"xylophone_v0_plucked_129","midi_source":""},{"t":117.567,"note":43,"dur":0.134,"vel":0.496,"inst":"xylophone_v0_plucked_129","midi_source":""},{"t":117.567,"note":55,"dur":0.045,"vel":0.496,"inst":"xylophone_v0_plucked_129","midi_source":""},{"t":117.567,"note":70,"dur":0.134,"vel":0.496,"inst":"xylophone_v0_plucked_129","midi_source":""},{"t":117.612,"note":70,"dur":0.045,"vel":0.496,"inst":"xylophone_v0_plucked_129","midi_source":""},{"t":117.656,"note":74,"dur":0.045,"vel":0.496,"inst":"banjo_v0_plucked_142","midi_source":""},{"t":117.701,"note":53,"dur":0.313,"vel":0.496,"inst":"banjo_v0_plucked_142","midi_source":""},{"t":117.701,"note":67,"dur":0.313,"vel":0.496,"inst":"xylophone_v0_plucked_129","midi_source":""},{"t":117.701,"note":77,"dur":0.313,"vel":0.496,"inst":"banjo_v0_plucked_142","midi_source":""},{"t":117.746,"note":65,"dur":0.045,"vel":0.496,"inst":"banjo_v0_plucked_142","midi_source":""},{"t":117.791,"note":55,"dur":0.045,"vel":0.496,"inst":"xylophone_v0_plucked_129","midi_source":""},{"t":117.835,"note":67,"dur":0.045,"vel":0.496,"inst":"xylophone_v0_plucked_129","midi_source":""},{"t":117.88,"note":70,"dur":0.045,"vel":0.496,"inst":"xylophone_v0_plucked_129","midi_source":""},{"t":117.925,"note":77,"dur":0.045,"vel":0.496,"inst":"banjo_v0_plucked_142","midi_source":""},{"t":117.97,"note":79,"dur":0.045,"vel":0.496,"inst":"xylophone_v0_plucked_129","midi_source":""},{"t":118.014,"note":46,"dur":0.045,"vel":0.496,"inst":"xylophone_v0_plucked_129","midi_source":""},{"t":118.014,"note":67,"dur":0.045,"vel":0.496,"inst":"xylophone_v0_plucked_129","midi_source":""},{"t":118.014,"note":70,"dur":0.045,"vel":0.496,"inst":"xylophone_v0_plucked_129","midi_source":""},{"t":118.014,"note":82,"dur":0.045,"vel":0.496,"inst":"xylophone_v0_plucked_129","midi_source":""},{"t":118.059,"note":49,"dur":0.045,"vel":0.496,"inst":"xylophone_v0_plucked_129","midi_source":""},{"t":118.059,"note":55,"dur":0.045,"vel":0.496,"inst":"xylophone_v0_plucked_129","midi_source":""},{"t":118.059,"note":70,"dur":0.045,"vel":0.496,"inst":"xylophone_v0_plucked_129","midi_source":""},{"t":118.059,"note":82,"dur":0.045,"vel":0.496,"inst":"xylophone_v0_plucked_129","midi_source":""},{"t":118.104,"note":50,"dur":0.067,"vel":0.496,"inst":"banjo_v0_plucked_142","midi_source":""},{"t":118.104,"note":65,"dur":0.134,"vel":0.496,"inst":"banjo_v0_plucked_142","midi_source":""},{"t":118.104,"note":67,"dur":0.134,"vel":0.496,"inst":"xylophone_v0_plucked_129","midi_source":""},{"t":118.104,"note":79,"dur":0.134,"vel":0.496,"inst":"xylophone_v0_plucked_129","midi_source":""},{"t":118.171,"note":58,"dur":0.067,"vel":0.496,"inst":"xylophone_v0_plucked_129","midi_source":""},{"t":118.238,"note":49,"dur":0.134,"vel":0.496,"inst":"xylophone_v0_plucked_129","midi_source":""},{"t":118.238,"note":58,"dur":0.045,"vel":0.496,"inst":"xylophone_v0_plucked_129","midi_source":""},{"t":118.238,"note":65,"dur":0.134,"vel":0.496,"inst":"banjo_v0_plucked_142","midi_source":""},{"t":118.238,"note":82,"dur":0.134,"vel":0.496,"inst":"xylophone_v0_plucked_129","midi_source":""},{"t":118.283,"note":61,"dur":0.045,"vel":0.496,"inst":"xylophone_v0_plucked_129","midi_source":""},{"t":118.327,"note":65,"dur":0.045,"vel":0.496,"inst":"banjo_v0_plucked_142","midi_source":""},{"t":118.372,"note":46,"dur":0.134,"vel":0.496,"inst":"xylophone_v0_plucked_129","midi_source":""},{"t":118.372,"note":62,"dur":0.134,"vel":0.496,"inst":"banjo_v0_plucked_142","midi_source":""},{"t":118.372,"note":67,"dur":0.045,"vel":0.496,"inst":"xylophone_v0_plucked_129","midi_source":""},{"t":118.372,"note":82,"dur":0.134,"vel":0.496,"inst":"xylophone_v0_plucked_129","midi_source":""},{"t":118.417,"note":70,"dur":0.045,"vel":0.496,"inst":"xylophone_v0_plucked_129","midi_source":""},{"t":118.462,"note":77,"dur":0.045,"vel":0.496,"inst":"banjo_v0_plucked_142","midi_source":""},{"t":118.506,"note":46,"dur":0.045,"vel":0.496,"inst":"xylophone_v0_plucked_129","midi_source":""},{"t":118.506,"note":61,"dur":0.134,"vel":0.496,"inst":"xylophone_v0_plucked_129","midi_source":""},{"t":118.506,"note":77,"dur":0.067,"vel":0.496,"inst":"banjo_v0_plucked_142","midi_source":""},{"t":118.506,"note":85,"dur":0.313,"vel":0.496,"inst":"xylophone_v0_plucked_129","midi_source":""},{"t":118.551,"note":49,"dur":0.045,"vel":0.496,"inst":"xylophone_v0_plucked_129","midi_source":""},{"t":118.574,"note":82,"dur":0.246,"vel":0.496,"inst":"xylophone_v0_plucked_129","midi_source":""},{"t":118.596,"note":53,"dur":0.045,"vel":0.496,"inst":"banjo_v0_plucked_142","midi_source":""},{"t":118.641,"note":55,"dur":0.045,"vel":0.496,"inst":"xylophone_v0_plucked_129","midi_source":""},{"t":118.641,"note":65,"dur":0.134,"vel":0.496,"inst":"banjo_v0_plucked_142","midi_source":""},{"t":118.685,"note":58,"dur":0.045,"vel":0.496,"inst":"xylophone_v0_plucked_129","midi_source":""},{"t":118.73,"note":61,"dur":0.045,"vel":0.496,"inst":"xylophone_v0_plucked_129","midi_source":""},{"t":118.775,"note":65,"dur":0.045,"vel":0.496,"inst":"banjo_v0_plucked_142","midi_source":""},{"t":118.775,"note":73,"dur":0.045,"vel":0.496,"inst":"xylophone_v0_plucked_129","midi_source":""},{"t":118.82,"note":67,"dur":0.045,"vel":0.496,"inst":"xylophone_v0_plucked_129","midi_source":""},{"t":118.82,"note":70,"dur":0.045,"vel":0.496,"inst":"xylophone_v0_plucked_129","midi_source":""},{"t":118.82,"note":82,"dur":0.045,"vel":0.496,"inst":"xylophone_v0_plucked_129","midi_source":""},{"t":118.82,"note":86,"dur":0.045,"vel":0.496,"inst":"banjo_v0_plucked_142","midi_source":""},{"t":118.864,"note":70,"dur":0.045,"vel":0.496,"inst":"xylophone_v0_plucked_129","midi_source":""},{"t":118.864,"note":73,"dur":0.045,"vel":0.496,"inst":"xylophone_v0_plucked_129","midi_source":""},{"t":118.864,"note":82,"dur":0.045,"vel":0.496,"inst":"xylophone_v0_plucked_129","midi_source":""},{"t":118.864,"note":85,"dur":0.045,"vel":0.496,"inst":"xylophone_v0_plucked_129","midi_source":""},{"t":118.909,"note":49,"dur":0.045,"vel":0.496,"inst":"xylophone_v0_plucked_129","midi_source":""},{"t":118.909,"note":73,"dur":0.067,"vel":0.496,"inst":"xylophone_v0_plucked_129","midi_source":""},{"t":118.909,"note":82,"dur":0.067,"vel":0.496,"inst":"xylophone_v0_plucked_129","midi_source":""},{"t":118.909,"note":85,"dur":0.067,"vel":0.496,"inst":"xylophone_v0_plucked_129","midi_source":""},{"t":118.954,"note":53,"dur":0.045,"vel":0.496,"inst":"banjo_v0_plucked_142","midi_source":""},{"t":118.976,"note":65,"dur":0.246,"vel":0.496,"inst":"banjo_v0_plucked_142","midi_source":""},{"t":118.976,"note":79,"dur":0.246,"vel":0.496,"inst":"xylophone_v0_plucked_129","midi_source":""},{"t":118.976,"note":82,"dur":0.246,"vel":0.496,"inst":"xylophone_v0_plucked_129","midi_source":""},{"t":118.998,"note":55,"dur":0.045,"vel":0.496,"inst":"xylophone_v0_plucked_129","midi_source":""},{"t":119.043,"note":58,"dur":0.045,"vel":0.496,"inst":"xylophone_v0_plucked_129","midi_source":""},{"t":119.088,"note":61,"dur":0.045,"vel":0.496,"inst":"xylophone_v0_plucked_129","midi_source":""},{"t":119.133,"note":65,"dur":0.045,"vel":0.496,"inst":"banjo_v0_plucked_142","midi_source":""},{"t":119.177,"note":67,"dur":0.045,"vel":0.496,"inst":"xylophone_v0_plucked_129","midi_source":""},{"t":119.222,"note":49,"dur":0.045,"vel":0.496,"inst":"xylophone_v0_plucked_129","midi_source":""},{"t":119.222,"note":82,"dur":0.045,"vel":0.496,"inst":"xylophone_v0_plucked_129","midi_source":""},{"t":119.222,"note":85,"dur":0.045,"vel":0.496,"inst":"xylophone_v0_plucked_129","midi_source":""},{"t":119.267,"note":53,"dur":0.045,"vel":0.496,"inst":"banjo_v0_plucked_142","midi_source":""},{"t":119.267,"note":73,"dur":0.02,"vel":0.496,"inst":"xylophone_v0_plucked_129","midi_source":""},{"t":119.267,"note":79,"dur":0.045,"vel":0.496,"inst":"xylophone_v0_plucked_129","midi_source":""},{"t":119.267,"note":82,"dur":0.045,"vel":0.496,"inst":"xylophone_v0_plucked_129","midi_source":""},{"t":119.312,"note":43,"dur":0.045,"vel":0.496,"inst":"xylophone_v0_plucked_129","midi_source":""},{"t":119.312,"note":73,"dur":0.067,"vel":0.496,"inst":"xylophone_v0_plucked_129","midi_source":""},{"t":119.312,"note":79,"dur":0.067,"vel":0.496,"inst":"xylophone_v0_plucked_129","midi_source":""},{"t":119.312,"note":82,"dur":0.067,"vel":0.496,"inst":"xylophone_v0_plucked_129","midi_source":""},{"t":119.356,"note":58,"dur":0.045,"vel":0.496,"inst":"xylophone_v0_plucked_129","midi_source":""},{"t":119.379,"note":61,"dur":0.246,"vel":0.496,"inst":"xylophone_v0_plucked_129","midi_source":""},{"t":119.379,"note":67,"dur":0.201,"vel":0.496,"inst":"xylophone_v0_plucked_129","midi_source":""},{"t":119.379,"note":82,"dur":0.246,"vel":0.496,"inst":"xylophone_v0_plucked_129","midi_source":""},{"t":119.401,"note":61,"dur":0.045,"vel":0.496,"inst":"xylophone_v0_plucked_129","midi_source":""},{"t":119.446,"note":65,"dur":0.045,"vel":0.496,"inst":"banjo_v0_plucked_142","midi_source":""},{"t":119.491,"note":55,"dur":0.045,"vel":0.496,"inst":"xylophone_v0_plucked_129","midi_source":""},{"t":119.535,"note":70,"dur":0.045,"vel":0.496,"inst":"xylophone_v0_plucked_129","midi_source":""},{"t":119.58,"note":73,"dur":0.045,"vel":0.496,"inst":"xylophone_v0_plucked_129","midi_source":""},{"t":119.58,"note":67,"dur":0.045,"vel":0.496,"inst":"xylophone_v0_plucked_129","midi_source":""},{"t":119.625,"note":43,"dur":0.045,"vel":0.496,"inst":"xylophone_v0_plucked_129","midi_source":""},{"t":119.625,"note":70,"dur":0.045,"vel":0.496,"inst":"xylophone_v0_plucked_129","midi_source":""},{"t":119.625,"note":85,"dur":0.045,"vel":0.496,"inst":"xylophone_v0_plucked_129","midi_source":""},{"t":119.669,"note":55,"dur":0.045,"vel":0.496,"inst":"xylophone_v0_plucked_129","midi_source":""},{"t":119.669,"note":65,"dur":0.045,"vel":0.496,"inst":"banjo_v0_plucked_142","midi_source":""},{"t":119.669,"note":73,"dur":0.02,"vel":0.496,"inst":"xylophone_v0_plucked_129","midi_source":""},{"t":119.669,"note":82,"dur":0.045,"vel":0.496,"inst":"xylophone_v0_plucked_129","midi_source":""},{"t":119.714,"note":46,"dur":0.045,"vel":0.496,"inst":"xylophone_v0_plucked_129","midi_source":""},{"t":119.714,"note":55,"dur":0.313,"vel":0.496,"inst":"xylophone_v0_plucked_129","midi_source":""},{"t":119.714,"note":73,"dur":0.313,"vel":0.496,"inst":"xylophone_v0_plucked_129","midi_source":""},{"t":119.714,"note":82,"dur":0.067,"vel":0.496,"inst":"xylophone_v0_plucked_129","midi_source":""},{"t":119.759,"note":49,"dur":0.045,"vel":0.496,"inst":"xylophone_v0_plucked_129","midi_source":""},{"t":119.781,"note":82,"dur":0.067,"vel":0.496,"inst":"xylophone_v0_plucked_129","midi_source":""},{"t":119.804,"note":43,"dur":0.045,"vel":0.496,"inst":"xylophone_v0_plucked_129","midi_source":""},{"t":119.848,"note":58,"dur":0.045,"vel":0.496,"inst":"xylophone_v0_plucked_129","midi_source":""},{"t":119.848,"note":79,"dur":0.067,"vel":0.496,"inst":"xylophone_v0_plucked_129","midi_source":""},{"t":119.893,"note":61,"dur":0.045,"vel":0.496,"inst":"xylophone_v0_plucked_129","midi_source":""},{"t":119.916,"note":67,"dur":0.067,"vel":0.496,"inst":"xylophone_v0_plucked_129","midi_source":""},{"t":119.938,"note":55,"dur":0.045,"vel":0.496,"inst":"xylophone_v0_plucked_129","midi_source":""},{"t":119.983,"note":70,"dur":0.045,"vel":0.496,"inst":"xylophone_v0_plucked_129","midi_source":""},{"t":119.983,"note":86,"dur":0.045,"vel":0.496,"inst":"banjo_v0_plucked_142","midi_source":""},{"t":120.027,"note":58,"dur":0.045,"vel":0.496,"inst":"xylophone_v0_plucked_129","midi_source":""},{"t":120.027,"note":55,"dur":0.045,"vel":0.496,"inst":"xylophone_v0_plucked_129","midi_source":""},{"t":120.027,"note":73,"dur":0.045,"vel":0.496,"inst":"xylophone_v0_plucked_129","midi_source":""},{"t":120.027,"note":85,"dur":0.045,"vel":0.496,"inst":"xylophone_v0_plucked_129","midi_source":""},{"t":120.072,"note":46,"dur":0.045,"vel":0.496,"inst":"xylophone_v0_plucked_129","midi_source":""},{"t":120.072,"note":55,"dur":0.045,"vel":0.496,"inst":"xylophone_v0_plucked_129","midi_source":""},{"t":120.072,"note":70,"dur":0.045,"vel":0.496,"inst":"xylophone_v0_plucked_129","midi_source":""},{"t":120.072,"note":74,"dur":0.045,"vel":0.496,"inst":"banjo_v0_plucked_142","midi_source":""},{"t":120.117,"note":43,"dur":0.045,"vel":0.496,"inst":"xylophone_v0_plucked_129","midi_source":""},{"t":120.117,"note":65,"dur":0.045,"vel":0.496,"inst":"banjo_v0_plucked_142","midi_source":""},{"t":120.117,"note":70,"dur":0.045,"vel":0.496,"inst":"xylophone_v0_plucked_129","midi_source":""},{"t":120.117,"note":67,"dur":0.034,"vel":0.496,"inst":"xylophone_v0_plucked_129","midi_source":""},{"t":120.15,"note":77,"dur":0.034,"vel":0.496,"inst":"banjo_v0_plucked_142","midi_source":""},{"t":120.162,"note":49,"dur":0.045,"vel":0.496,"inst":"xylophone_v0_plucked_129","midi_source":""},{"t":120.162,"note":65,"dur":0.045,"vel":0.496,"inst":"banjo_v0_plucked_142","midi_source":""},{"t":120.162,"note":70,"dur":0.045,"vel":0.496,"inst":"xylophone_v0_plucked_129","midi_source":""},{"t":120.184,"note":82,"dur":0.034,"vel":0.496,"inst":"xylophone_v0_plucked_129","midi_source":""},{"t":120.206,"note":46,"dur":0.045,"vel":0.496,"inst":"xylophone_v0_plucked_129","midi_source":""},{"t":120.206,"note":73,"dur":0.045,"vel":0.496,"inst":"xylophone_v0_plucked_129","midi_source":""},{"t":120.206,"note":77,"dur":0.045,"vel":0.496,"inst":"banjo_v0_plucked_142","midi_source":""},{"t":120.218,"note":82,"dur":0.034,"vel":0.496,"inst":"xylophone_v0_plucked_129","midi_source":""},{"t":120.251,"note":46,"dur":0.045,"vel":0.992,"inst":"xylophone_v0_plucked_129","midi_source":""},{"t":120.251,"note":70,"dur":0.045,"vel":0.992,"inst":"xylophone_v0_plucked_129","midi_source":""},{"t":120.251,"note":77,"dur":0.045,"vel":0.992,"inst":"banjo_v0_plucked_142","midi_source":""},{"t":120.251,"note":79,"dur":0.134,"vel":0.992,"inst":"xylophone_v0_plucked_129","midi_source":""},{"t":120.296,"note":58,"dur":0.045,"vel":0.992,"inst":"xylophone_v0_plucked_129","midi_source":""},{"t":120.296,"note":67,"dur":0.045,"vel":0.992,"inst":"xylophone_v0_plucked_129","midi_source":""},{"t":120.296,"note":70,"dur":0.045,"vel":0.992,"inst":"xylophone_v0_plucked_129","midi_source":""},{"t":120.34,"note":46,"dur":0.045,"vel":0.992,"inst":"xylophone_v0_plucked_129","midi_source":""},{"t":120.34,"note":65,"dur":0.045,"vel":0.992,"inst":"banjo_v0_plucked_142","midi_source":""},{"t":120.34,"note":67,"dur":0.045,"vel":0.992,"inst":"xylophone_v0_plucked_129","midi_source":""},{"t":120.385,"note":46,"dur":0.045,"vel":0.992,"inst":"xylophone_v0_plucked_129","midi_source":""},{"t":120.385,"note":62,"dur":0.045,"vel":0.992,"inst":"banjo_v0_plucked_142","midi_source":""},{"t":120.385,"note":70,"dur":0.045,"vel":0.992,"inst":"xylophone_v0_plucked_129","midi_source":""},{"t":120.385,"note":67,"dur":0.045,"vel":0.992,"inst":"xylophone_v0_plucked_129","midi_source":""},{"t":120.43,"note":85,"dur":0.045,"vel":0.992,"inst":"xylophone_v0_plucked_129","midi_source":""},{"t":120.475,"note":46,"dur":0.02,"vel":0.992,"inst":"xylophone_v0_plucked_129","midi_source":""},{"t":120.475,"note":62,"dur":0.02,"vel":0.992,"inst":"banjo_v0_plucked_142","midi_source":""},{"t":120.475,"note":70,"dur":0.02,"vel":0.992,"inst":"xylophone_v0_plucked_129","midi_source":""},{"t":120.475,"note":82,"dur":0.045,"vel":0.992,"inst":"xylophone_v0_plucked_129","midi_source":""},{"t":120.519,"note":53,"dur":0.045,"vel":0.496,"inst":"banjo_v0_plucked_142","midi_source":""},{"t":120.519,"note":65,"dur":0.067,"vel":0.496,"inst":"banjo_v0_plucked_142","midi_source":""},{"t":120.519,"note":67,"dur":0.134,"vel":0.496,"inst":"xylophone_v0_plucked_129","midi_source":""},{"t":120.519,"note":77,"dur":0.134,"vel":0.496,"inst":"banjo_v0_plucked_142","midi_source":""},{"t":120.564,"note":43,"dur":0.045,"vel":0.496,"inst":"xylophone_v0_plucked_129","midi_source":""},{"t":120.609,"note":55,"dur":0.045,"vel":0.496,"inst":"xylophone_v0_plucked_129","midi_source":""},{"t":120.654,"note":53,"dur":0.268,"vel":0.496,"inst":"banjo_v0_plucked_142","midi_source":""},{"t":120.654,"note":58,"dur":0.268,"vel":0.496,"inst":"xylophone_v0_plucked_129","midi_source":""},{"t":120.654,"note":61,"dur":0.045,"vel":0.496,"inst":"xylophone_v0_plucked_129","midi_source":""},{"t":120.654,"note":73,"dur":0.201,"vel":0.496,"inst":"xylophone_v0_plucked_129","midi_source":""},{"t":120.699,"note":62,"dur":0.045,"vel":0.496,"inst":"banjo_v0_plucked_142","midi_source":""},{"t":120.743,"note":65,"dur":0.045,"vel":0.496,"inst":"banjo_v0_plucked_142","midi_source":""},{"t":120.788,"note":55,"dur":0.045,"vel":0.496,"inst":"xylophone_v0_plucked_129","midi_source":""},{"t":120.788,"note":55,"dur":0.134,"vel":0.496,"inst":"xylophone_v0_plucked_129","midi_source":""},{"t":120.833,"note":67,"dur":0.045,"vel":0.496,"inst":"xylophone_v0_plucked_129","midi_source":""},{"t":120.855,"note":67,"dur":0.067,"vel":0.496,"inst":"xylophone_v0_plucked_129","midi_source":""},{"t":120.877,"note":70,"dur":0.045,"vel":0.496,"inst":"xylophone_v0_plucked_129","midi_source":""},{"t":120.922,"note":53,"dur":0.045,"vel":0.496,"inst":"banjo_v0_plucked_142","midi_source":""},{"t":120.922,"note":58,"dur":0.045,"vel":0.496,"inst":"xylophone_v0_plucked_129","midi_source":""},{"t":120.922,"note":55,"dur":0.403,"vel":0.496,"inst":"xylophone_v0_plucked_129","midi_source":""},{"t":120.922,"note":70,"dur":0.403,"vel":0.496,"inst":"xylophone_v0_plucked_129","midi_source":""},{"t":120.922,"note":77,"dur":0.134,"vel":0.496,"inst":"banjo_v0_plucked_142","midi_source":""},{"t":121.011,"note":53,"dur":0.02,"vel":0.496,"inst":"banjo_v0_plucked_142","midi_source":""},{"t":121.011,"note":58,"dur":0.02,"vel":0.496,"inst":"xylophone_v0_plucked_129","midi_source":""},{"t":121.056,"note":58,"dur":0.045,"vel":0.496,"inst":"xylophone_v0_plucked_129","midi_source":""},{"t":121.056,"note":67,"dur":0.168,"vel":0.496,"inst":"xylophone_v0_plucked_129","midi_source":""},{"t":121.101,"note":60,"dur":0.045,"vel":0.496,"inst":"pad_string_v0_bass_416","midi_source":""},{"t":121.146,"note":62,"dur":0.045,"vel":0.496,"inst":"banjo_v0_plucked_142","midi_source":""},{"t":121.19,"note":49,"dur":0.134,"vel":0.496,"inst":"xylophone_v0_plucked_129","midi_source":""},{"t":121.19,"note":65,"dur":0.134,"vel":0.496,"inst":"banjo_v0_plucked_142","midi_source":""},{"t":121.19,"note":70,"dur":0.045,"vel":0.496,"inst":"xylophone_v0_plucked_129","midi_source":""},{"t":121.224,"note":79,"dur":0.034,"vel":0.496,"inst":"xylophone_v0_plucked_129","midi_source":""},{"t":121.235,"note":73,"dur":0.045,"vel":0.496,"inst":"xylophone_v0_plucked_129","midi_source":""},{"t":121.258,"note":79,"dur":0.034,"vel":0.496,"inst":"xylophone_v0_plucked_129","midi_source":""},{"t":121.28,"note":77,"dur":0.045,"vel":0.496,"inst":"banjo_v0_plucked_142","midi_source":""},{"t":121.291,"note":82,"dur":0.034,"vel":0.496,"inst":"xylophone_v0_plucked_129","midi_source":""},{"t":121.325,"note":48,"dur":0.045,"vel":0.496,"inst":"pad_string_v0_bass_416","midi_source":""},{"t":121.325,"note":62,"dur":0.045,"vel":0.496,"inst":"banjo_v0_plucked_142","midi_source":""},{"t":121.325,"note":74,"dur":0.045,"vel":0.496,"inst":"banjo_v0_plucked_142","midi_source":""},{"t":121.325,"note":79,"dur":0.179,"vel":0.496,"inst":"xylophone_v0_plucked_129","midi_source":""},{"t":121.37,"note":50,"dur":0.045,"vel":0.496,"inst":"banjo_v0_plucked_142","midi_source":""},{"t":121.414,"note":55,"dur":0.045,"vel":0.496,"inst":"xylophone_v0_plucked_129","midi_source":""},{"t":121.414,"note":55,"dur":0.02,"vel":0.496,"inst":"xylophone_v0_plucked_129","midi_source":""},{"t":121.414,"note":67,"dur":0.02,"vel":0.496,"inst":"xylophone_v0_plucked_129","midi_source":""},{"t":121.459,"note":49,"dur":0.045,"vel":0.496,"inst":"xylophone_v0_plucked_129","midi_source":""},{"t":121.459,"note":65,"dur":0.045,"vel":0.496,"inst":"banjo_v0_plucked_142","midi_source":""},{"t":121.459,"note":67,"dur":0.045,"vel":0.496,"inst":"xylophone_v0_plucked_129","midi_source":""},{"t":121.504,"note":50,"dur":0.045,"vel":0.496,"inst":"banjo_v0_plucked_142","midi_source":""},{"t":121.504,"note":55,"dur":0.045,"vel":0.496,"inst":"xylophone_v0_plucked_129","midi_source":""},{"t":121.504,"note":72,"dur":0.045,"vel":0.496,"inst":"pad_string_v0_bass_416","midi_source":""},{"t":121.504,"note":67,"dur":0.045,"vel":0.496,"inst":"xylophone_v0_plucked_129","midi_source":""},{"t":121.548,"note":53,"dur":0.045,"vel":0.496,"inst":"banjo_v0_plucked_142","midi_source":""},{"t":121.548,"note":67,"dur":0.045,"vel":0.496,"inst":"xylophone_v0_plucked_129","midi_source":""},{"t":121.548,"note":73,"dur":0.045,"vel":0.496,"inst":"xylophone_v0_plucked_129","midi_source":""},{"t":121.548,"note":77,"dur":0.045,"vel":0.496,"inst":"banjo_v0_plucked_142","midi_source":""},{"t":121.593,"note":43,"dur":0.045,"vel":0.496,"inst":"xylophone_v0_plucked_129","midi_source":""},{"t":121.593,"note":55,"dur":0.045,"vel":0.496,"inst":"xylophone_v0_plucked_129","midi_source":""},{"t":121.593,"note":70,"dur":0.045,"vel":0.496,"inst":"xylophone_v0_plucked_129","midi_source":""},{"t":121.593,"note":74,"dur":0.045,"vel":0.496,"inst":"banjo_v0_plucked_142","midi_source":""},{"t":121.638,"note":61,"dur":0.045,"vel":0.496,"inst":"xylophone_v0_plucked_129","midi_source":""},{"t":121.638,"note":77,"dur":0.045,"vel":0.496,"inst":"banjo_v0_plucked_142","midi_source":""},{"t":121.682,"note":43,"dur":0.02,"vel":0.496,"inst":"xylophone_v0_plucked_129","midi_source":""},{"t":121.682,"note":65,"dur":0.045,"vel":0.496,"inst":"banjo_v0_plucked_142","midi_source":""},{"t":121.682,"note":70,"dur":0.02,"vel":0.496,"inst":"xylophone_v0_plucked_129","midi_source":""},{"t":121.682,"note":73,"dur":0.045,"vel":0.496,"inst":"xylophone_v0_plucked_129","midi_source":""},{"t":121.727,"note":46,"dur":0.045,"vel":0.496,"inst":"xylophone_v0_plucked_129","midi_source":""},{"t":121.727,"note":65,"dur":0.045,"vel":0.496,"inst":"banjo_v0_plucked_142","midi_source":""},{"t":121.727,"note":70,"dur":0.045,"vel":0.496,"inst":"xylophone_v0_plucked_129","midi_source":""},{"t":121.727,"note":73,"dur":0.134,"vel":0.496,"inst":"xylophone_v0_plucked_129","midi_source":""},{"t":121.772,"note":43,"dur":0.045,"vel":0.496,"inst":"xylophone_v0_plucked_129","midi_source":""},{"t":121.772,"note":65,"dur":0.045,"vel":0.496,"inst":"banjo_v0_plucked_142","midi_source":""},{"t":121.772,"note":55,"dur":0.045,"vel":0.496,"inst":"xylophone_v0_plucked_129","midi_source":""},{"t":121.817,"note":58,"dur":0.045,"vel":0.496,"inst":"xylophone_v0_plucked_129","midi_source":""},{"t":121.817,"note":65,"dur":0.045,"vel":0.496,"inst":"banjo_v0_plucked_142","midi_source":""},{"t":121.817,"note":55,"dur":0.045,"vel":0.496,"inst":"xylophone_v0_plucked_129","midi_source":""},{"t":121.862,"note":58,"dur":0.268,"vel":0.496,"inst":"xylophone_v0_plucked_129","midi_source":""},{"t":121.862,"note":62,"dur":0.045,"vel":0.496,"inst":"banjo_v0_plucked_142","midi_source":""},{"t":121.862,"note":55,"dur":0.179,"vel":0.496,"inst":"xylophone_v0_plucked_129","midi_source":""},{"t":121.862,"note":70,"dur":0.134,"vel":0.496,"inst":"xylophone_v0_plucked_129","midi_source":""},{"t":121.906,"note":55,"dur":0.045,"vel":0.496,"inst":"xylophone_v0_plucked_129","midi_source":""},{"t":121.951,"note":70,"dur":0.045,"vel":0.496,"inst":"xylophone_v0_plucked_129","midi_source":""},{"t":121.996,"note":70,"dur":0.045,"vel":0.496,"inst":"xylophone_v0_plucked_129","midi_source":""},{"t":122.041,"note":62,"dur":0.045,"vel":0.496,"inst":"banjo_v0_plucked_142","midi_source":""},{"t":122.041,"note":55,"dur":0.045,"vel":0.496,"inst":"xylophone_v0_plucked_129","midi_source":""},{"t":122.085,"note":61,"dur":0.045,"vel":0.496,"inst":"xylophone_v0_plucked_129","midi_source":""},{"t":122.085,"note":65,"dur":0.045,"vel":0.496,"inst":"banjo_v0_plucked_142","midi_source":""},{"t":122.13,"note":58,"dur":0.045,"vel":0.496,"inst":"xylophone_v0_plucked_129","midi_source":""},{"t":122.13,"note":58,"dur":0.134,"vel":0.496,"inst":"xylophone_v0_plucked_129","midi_source":""},{"t":122.13,"note":62,"dur":0.134,"vel":0.496,"inst":"banjo_v0_plucked_142","midi_source":""},{"t":122.175,"note":62,"dur":0.045,"vel":0.496,"inst":"banjo_v0_plucked_142","midi_source":""},{"t":122.219,"note":55,"dur":0.045,"vel":0.496,"inst":"xylophone_v0_plucked_129","midi_source":""},{"t":122.264,"note":55,"dur":0.134,"vel":0.496,"inst":"xylophone_v0_plucked_129","midi_source":""},{"t":122.264,"note":58,"dur":0.045,"vel":0.496,"inst":"xylophone_v0_plucked_129","midi_source":""},{"t":122.264,"note":65,"dur":0.134,"vel":0.496,"inst":"banjo_v0_plucked_142","midi_source":""},{"t":122.264,"note":70,"dur":0.313,"vel":0.496,"inst":"xylophone_v0_plucked_129","midi_source":""},{"t":122.309,"note":62,"dur":0.045,"vel":0.496,"inst":"banjo_v0_plucked_142","midi_source":""},{"t":122.354,"note":67,"dur":0.045,"vel":0.496,"inst":"xylophone_v0_plucked_129","midi_source":""},{"t":122.398,"note":43,"dur":0.134,"vel":0.496,"inst":"xylophone_v0_plucked_129","midi_source":""},{"t":122.398,"note":55,"dur":0.045,"vel":0.496,"inst":"xylophone_v0_plucked_129","midi_source":""},{"t":122.398,"note":70,"dur":0.134,"vel":0.496,"inst":"xylophone_v0_plucked_129","midi_source":""},{"t":122.443,"note":70,"dur":0.045,"vel":0.496,"inst":"xylophone_v0_plucked_129","midi_source":""},{"t":122.488,"note":74,"dur":0.045,"vel":0.496,"inst":"banjo_v0_plucked_142","midi_source":""},{"t":122.533,"note":53,"dur":0.313,"vel":0.496,"inst":"banjo_v0_plucked_142","midi_source":""},{"t":122.533,"note":67,"dur":0.313,"vel":0.496,"inst":"xylophone_v0_plucked_129","midi_source":""},{"t":122.533,"note":77,"dur":0.313,"vel":0.496,"inst":"banjo_v0_plucked_142","midi_source":""},{"t":122.577,"note":65,"dur":0.045,"vel":0.496,"inst":"banjo_v0_plucked_142","midi_source":""},{"t":122.622,"note":55,"dur":0.045,"vel":0.496,"inst":"xylophone_v0_plucked_129","midi_source":""},{"t":122.667,"note":67,"dur":0.045,"vel":0.496,"inst":"xylophone_v0_plucked_129","midi_source":""},{"t":122.712,"note":70,"dur":0.045,"vel":0.496,"inst":"xylophone_v0_plucked_129","midi_source":""},{"t":122.756,"note":77,"dur":0.045,"vel":0.496,"inst":"banjo_v0_plucked_142","midi_source":""},{"t":122.801,"note":79,"dur":0.045,"vel":0.496,"inst":"xylophone_v0_plucked_129","midi_source":""},{"t":122.846,"note":46,"dur":0.045,"vel":0.496,"inst":"xylophone_v0_plucked_129","midi_source":""},{"t":122.846,"note":67,"dur":0.045,"vel":0.496,"inst":"xylophone_v0_plucked_129","midi_source":""},{"t":122.846,"note":70,"dur":0.045,"vel":0.496,"inst":"xylophone_v0_plucked_129","midi_source":""},{"t":122.846,"note":82,"dur":0.045,"vel":0.496,"inst":"xylophone_v0_plucked_129","midi_source":""},{"t":122.89,"note":49,"dur":0.045,"vel":0.496,"inst":"xylophone_v0_plucked_129","midi_source":""},{"t":122.89,"note":55,"dur":0.045,"vel":0.496,"inst":"xylophone_v0_plucked_129","midi_source":""},{"t":122.89,"note":70,"dur":0.045,"vel":0.496,"inst":"xylophone_v0_plucked_129","midi_source":""},{"t":122.89,"note":82,"dur":0.045,"vel":0.496,"inst":"xylophone_v0_plucked_129","midi_source":""},{"t":122.935,"note":50,"dur":0.067,"vel":0.496,"inst":"banjo_v0_plucked_142","midi_source":""},{"t":122.935,"note":65,"dur":0.134,"vel":0.496,"inst":"banjo_v0_plucked_142","midi_source":""},{"t":122.935,"note":67,"dur":0.134,"vel":0.496,"inst":"xylophone_v0_plucked_129","midi_source":""},{"t":122.935,"note":79,"dur":0.134,"vel":0.496,"inst":"xylophone_v0_plucked_129","midi_source":""},{"t":123.002,"note":58,"dur":0.067,"vel":0.496,"inst":"xylophone_v0_plucked_129","midi_source":""},{"t":123.069,"note":49,"dur":0.134,"vel":0.496,"inst":"xylophone_v0_plucked_129","midi_source":""},{"t":123.069,"note":58,"dur":0.045,"vel":0.496,"inst":"xylophone_v0_plucked_129","midi_source":""},{"t":123.069,"note":65,"dur":0.134,"vel":0.496,"inst":"banjo_v0_plucked_142","midi_source":""},{"t":123.069,"note":82,"dur":0.134,"vel":0.496,"inst":"xylophone_v0_plucked_129","midi_source":""},{"t":123.114,"note":61,"dur":0.045,"vel":0.496,"inst":"xylophone_v0_plucked_129","midi_source":""},{"t":123.159,"note":65,"dur":0.045,"vel":0.496,"inst":"banjo_v0_plucked_142","midi_source":""},{"t":123.204,"note":46,"dur":0.134,"vel":0.496,"inst":"xylophone_v0_plucked_129","midi_source":""},{"t":123.204,"note":62,"dur":0.134,"vel":0.496,"inst":"banjo_v0_plucked_142","midi_source":""},{"t":123.204,"note":67,"dur":0.045,"vel":0.496,"inst":"xylophone_v0_plucked_129","midi_source":""},{"t":123.204,"note":82,"dur":0.134,"vel":0.496,"inst":"xylophone_v0_plucked_129","midi_source":""},{"t":123.248,"note":70,"dur":0.045,"vel":0.496,"inst":"xylophone_v0_plucked_129","midi_source":""},{"t":123.293,"note":77,"dur":0.045,"vel":0.496,"inst":"banjo_v0_plucked_142","midi_source":""},{"t":123.338,"note":46,"dur":0.045,"vel":0.496,"inst":"xylophone_v0_plucked_129","midi_source":""},{"t":123.338,"note":61,"dur":0.134,"vel":0.496,"inst":"xylophone_v0_plucked_129","midi_source":""},{"t":123.338,"note":77,"dur":0.067,"vel":0.496,"inst":"banjo_v0_plucked_142","midi_source":""},{"t":123.338,"note":85,"dur":0.313,"vel":0.496,"inst":"xylophone_v0_plucked_129","midi_source":""},{"t":123.383,"note":49,"dur":0.045,"vel":0.496,"inst":"xylophone_v0_plucked_129","midi_source":""},{"t":123.405,"note":82,"dur":0.246,"vel":0.496,"inst":"xylophone_v0_plucked_129","midi_source":""},{"t":123.427,"note":53,"dur":0.045,"vel":0.496,"inst":"banjo_v0_plucked_142","midi_source":""},{"t":123.472,"note":55,"dur":0.045,"vel":0.496,"inst":"xylophone_v0_plucked_129","midi_source":""},{"t":123.472,"note":65,"dur":0.134,"vel":0.496,"inst":"banjo_v0_plucked_142","midi_source":""},{"t":123.517,"note":58,"dur":0.045,"vel":0.496,"inst":"xylophone_v0_plucked_129","midi_source":""},{"t":123.561,"note":61,"dur":0.045,"vel":0.496,"inst":"xylophone_v0_plucked_129","midi_source":""},{"t":123.606,"note":65,"dur":0.045,"vel":0.496,"inst":"banjo_v0_plucked_142","midi_source":""},{"t":123.606,"note":73,"dur":0.045,"vel":0.496,"inst":"xylophone_v0_plucked_129","midi_source":""},{"t":123.651,"note":67,"dur":0.045,"vel":0.496,"inst":"xylophone_v0_plucked_129","midi_source":""},{"t":123.651,"note":70,"dur":0.045,"vel":0.496,"inst":"xylophone_v0_plucked_129","midi_source":""},{"t":123.651,"note":82,"dur":0.045,"vel":0.496,"inst":"xylophone_v0_plucked_129","midi_source":""},{"t":123.651,"note":86,"dur":0.045,"vel":0.496,"inst":"banjo_v0_plucked_142","midi_source":""},{"t":123.696,"note":70,"dur":0.045,"vel":0.496,"inst":"xylophone_v0_plucked_129","midi_source":""},{"t":123.696,"note":73,"dur":0.045,"vel":0.496,"inst":"xylophone_v0_plucked_129","midi_source":""},{"t":123.696,"note":82,"dur":0.045,"vel":0.496,"inst":"xylophone_v0_plucked_129","midi_source":""},{"t":123.696,"note":85,"dur":0.045,"vel":0.496,"inst":"xylophone_v0_plucked_129","midi_source":""},{"t":123.74,"note":49,"dur":0.045,"vel":0.496,"inst":"xylophone_v0_plucked_129","midi_source":""},{"t":123.74,"note":73,"dur":0.067,"vel":0.496,"inst":"xylophone_v0_plucked_129","midi_source":""},{"t":123.74,"note":82,"dur":0.067,"vel":0.496,"inst":"xylophone_v0_plucked_129","midi_source":""},{"t":123.74,"note":85,"dur":0.067,"vel":0.496,"inst":"xylophone_v0_plucked_129","midi_source":""},{"t":123.785,"note":53,"dur":0.045,"vel":0.496,"inst":"banjo_v0_plucked_142","midi_source":""},{"t":123.807,"note":65,"dur":0.246,"vel":0.496,"inst":"banjo_v0_plucked_142","midi_source":""},{"t":123.807,"note":79,"dur":0.246,"vel":0.496,"inst":"xylophone_v0_plucked_129","midi_source":""},{"t":123.807,"note":82,"dur":0.246,"vel":0.496,"inst":"xylophone_v0_plucked_129","midi_source":""},{"t":123.83,"note":55,"dur":0.045,"vel":0.496,"inst":"xylophone_v0_plucked_129","midi_source":""},{"t":123.875,"note":58,"dur":0.045,"vel":0.496,"inst":"xylophone_v0_plucked_129","midi_source":""},{"t":123.919,"note":61,"dur":0.045,"vel":0.496,"inst":"xylophone_v0_plucked_129","midi_source":""},{"t":123.964,"note":65,"dur":0.045,"vel":0.496,"inst":"banjo_v0_plucked_142","midi_source":""},{"t":124.009,"note":67,"dur":0.045,"vel":0.496,"inst":"xylophone_v0_plucked_129","midi_source":""},{"t":124.054,"note":49,"dur":0.045,"vel":0.496,"inst":"xylophone_v0_plucked_129","midi_source":""},{"t":124.054,"note":82,"dur":0.045,"vel":0.496,"inst":"xylophone_v0_plucked_129","midi_source":""},{"t":124.054,"note":85,"dur":0.045,"vel":0.496,"inst":"xylophone_v0_plucked_129","midi_source":""},{"t":124.098,"note":53,"dur":0.045,"vel":0.496,"inst":"banjo_v0_plucked_142","midi_source":""},{"t":124.098,"note":73,"dur":0.02,"vel":0.496,"inst":"xylophone_v0_plucked_129","midi_source":""},{"t":124.098,"note":79,"dur":0.045,"vel":0.496,"inst":"xylophone_v0_plucked_129","midi_source":""},{"t":124.098,"note":82,"dur":0.045,"vel":0.496,"inst":"xylophone_v0_plucked_129","midi_source":""},{"t":124.143,"note":43,"dur":0.045,"vel":0.496,"inst":"xylophone_v0_plucked_129","midi_source":""},{"t":124.143,"note":73,"dur":0.067,"vel":0.496,"inst":"xylophone_v0_plucked_129","midi_source":""},{"t":124.143,"note":79,"dur":0.067,"vel":0.496,"inst":"xylophone_v0_plucked_129","midi_source":""},{"t":124.143,"note":82,"dur":0.067,"vel":0.496,"inst":"xylophone_v0_plucked_129","midi_source":""},{"t":124.188,"note":58,"dur":0.045,"vel":0.496,"inst":"xylophone_v0_plucked_129","midi_source":""},{"t":124.21,"note":61,"dur":0.246,"vel":0.496,"inst":"xylophone_v0_plucked_129","midi_source":""},{"t":124.21,"note":67,"dur":0.201,"vel":0.496,"inst":"xylophone_v0_plucked_129","midi_source":""},{"t":124.21,"note":82,"dur":0.246,"vel":0.496,"inst":"xylophone_v0_plucked_129","midi_source":""},{"t":124.232,"note":61,"dur":0.045,"vel":0.496,"inst":"xylophone_v0_plucked_129","midi_source":""},{"t":124.277,"note":65,"dur":0.045,"vel":0.496,"inst":"banjo_v0_plucked_142","midi_source":""},{"t":124.322,"note":55,"dur":0.045,"vel":0.496,"inst":"xylophone_v0_plucked_129","midi_source":""},{"t":124.367,"note":70,"dur":0.045,"vel":0.496,"inst":"xylophone_v0_plucked_129","midi_source":""},{"t":124.411,"note":73,"dur":0.045,"vel":0.496,"inst":"xylophone_v0_plucked_129","midi_source":""},{"t":124.411,"note":67,"dur":0.045,"vel":0.496,"inst":"xylophone_v0_plucked_129","midi_source":""},{"t":124.456,"note":43,"dur":0.045,"vel":0.496,"inst":"xylophone_v0_plucked_129","midi_source":""},{"t":124.456,"note":70,"dur":0.045,"vel":0.496,"inst":"xylophone_v0_plucked_129","midi_source":""},{"t":124.456,"note":85,"dur":0.045,"vel":0.496,"inst":"xylophone_v0_plucked_129","midi_source":""},{"t":124.501,"note":55,"dur":0.045,"vel":0.496,"inst":"xylophone_v0_plucked_129","midi_source":""},{"t":124.501,"note":65,"dur":0.045,"vel":0.496,"inst":"banjo_v0_plucked_142","midi_source":""},{"t":124.501,"note":73,"dur":0.02,"vel":0.496,"inst":"xylophone_v0_plucked_129","midi_source":""},{"t":124.501,"note":82,"dur":0.045,"vel":0.496,"inst":"xylophone_v0_plucked_129","midi_source":""},{"t":124.546,"note":46,"dur":0.045,"vel":0.496,"inst":"xylophone_v0_plucked_129","midi_source":""},{"t":124.546,"note":55,"dur":0.313,"vel":0.496,"inst":"xylophone_v0_plucked_129","midi_source":""},{"t":124.546,"note":73,"dur":0.313,"vel":0.496,"inst":"xylophone_v0_plucked_129","midi_source":""},{"t":124.546,"note":82,"dur":0.067,"vel":0.496,"inst":"xylophone_v0_plucked_129","midi_source":""},{"t":124.59,"note":49,"dur":0.045,"vel":0.496,"inst":"xylophone_v0_plucked_129","midi_source":""},{"t":124.613,"note":82,"dur":0.067,"vel":0.496,"inst":"xylophone_v0_plucked_129","midi_source":""},{"t":124.635,"note":43,"dur":0.045,"vel":0.496,"inst":"xylophone_v0_plucked_129","midi_source":""},{"t":124.68,"note":58,"dur":0.045,"vel":0.496,"inst":"xylophone_v0_plucked_129","midi_source":""},{"t":124.68,"note":79,"dur":0.067,"vel":0.496,"inst":"xylophone_v0_plucked_129","midi_source":""},{"t":124.725,"note":61,"dur":0.045,"vel":0.496,"inst":"xylophone_v0_plucked_129","midi_source":""},{"t":124.747,"note":67,"dur":0.067,"vel":0.496,"inst":"xylophone_v0_plucked_129","midi_source":""},{"t":124.769,"note":55,"dur":0.045,"vel":0.496,"inst":"xylophone_v0_plucked_129","midi_source":""},{"t":124.814,"note":70,"dur":0.045,"vel":0.496,"inst":"xylophone_v0_plucked_129","midi_source":""},{"t":124.814,"note":86,"dur":0.045,"vel":0.496,"inst":"banjo_v0_plucked_142","midi_source":""},{"t":124.859,"note":58,"dur":0.045,"vel":0.496,"inst":"xylophone_v0_plucked_129","midi_source":""},{"t":124.859,"note":55,"dur":0.045,"vel":0.496,"inst":"xylophone_v0_plucked_129","midi_source":""},{"t":124.859,"note":73,"dur":0.045,"vel":0.496,"inst":"xylophone_v0_plucked_129","midi_source":""},{"t":124.859,"note":85,"dur":0.045,"vel":0.496,"inst":"xylophone_v0_plucked_129","midi_source":""},{"t":124.903,"note":46,"dur":0.045,"vel":0.496,"inst":"xylophone_v0_plucked_129","midi_source":""},{"t":124.903,"note":55,"dur":0.045,"vel":0.496,"inst":"xylophone_v0_plucked_129","midi_source":""},{"t":124.903,"note":70,"dur":0.045,"vel":0.496,"inst":"xylophone_v0_plucked_129","midi_source":""},{"t":124.903,"note":74,"dur":0.045,"vel":0.496,"inst":"banjo_v0_plucked_142","midi_source":""},{"t":124.948,"note":43,"dur":0.045,"vel":0.496,"inst":"xylophone_v0_plucked_129","midi_source":""},{"t":124.948,"note":65,"dur":0.045,"vel":0.496,"inst":"banjo_v0_plucked_142","midi_source":""},{"t":124.948,"note":70,"dur":0.045,"vel":0.496,"inst":"xylophone_v0_plucked_129","midi_source":""},{"t":124.948,"note":67,"dur":0.034,"vel":0.496,"inst":"xylophone_v0_plucked_129","midi_source":""},{"t":124.982,"note":77,"dur":0.034,"vel":0.496,"inst":"banjo_v0_plucked_142","midi_source":""},{"t":124.993,"note":49,"dur":0.045,"vel":0.496,"inst":"xylophone_v0_plucked_129","midi_source":""},{"t":124.993,"note":65,"dur":0.045,"vel":0.496,"inst":"banjo_v0_plucked_142","midi_source":""},{"t":124.993,"note":70,"dur":0.045,"vel":0.496,"inst":"xylophone_v0_plucked_129","midi_source":""},{"t":125.015,"note":82,"dur":0.034,"vel":0.496,"inst":"xylophone_v0_plucked_129","midi_source":""},{"t":125.038,"note":46,"dur":0.045,"vel":0.496,"inst":"xylophone_v0_plucked_129","midi_source":""},{"t":125.038,"note":73,"dur":0.045,"vel":0.496,"inst":"xylophone_v0_plucked_129","midi_source":""},{"t":125.038,"note":77,"dur":0.045,"vel":0.496,"inst":"banjo_v0_plucked_142","midi_source":""},{"t":125.049,"note":82,"dur":0.034,"vel":0.496,"inst":"xylophone_v0_plucked_129","midi_source":""},{"t":125.082,"note":46,"dur":0.045,"vel":0.992,"inst":"xylophone_v0_plucked_129","midi_source":""},{"t":125.082,"note":70,"dur":0.045,"vel":0.992,"inst":"xylophone_v0_plucked_129","midi_source":""},{"t":125.082,"note":77,"dur":0.045,"vel":0.992,"inst":"banjo_v0_plucked_142","midi_source":""},{"t":125.082,"note":79,"dur":0.134,"vel":0.992,"inst":"xylophone_v0_plucked_129","midi_source":""},{"t":125.127,"note":58,"dur":0.045,"vel":0.992,"inst":"xylophone_v0_plucked_129","midi_source":""},{"t":125.127,"note":67,"dur":0.045,"vel":0.992,"inst":"xylophone_v0_plucked_129","midi_source":""},{"t":125.127,"note":70,"dur":0.045,"vel":0.992,"inst":"xylophone_v0_plucked_129","midi_source":""},{"t":125.172,"note":46,"dur":0.045,"vel":0.992,"inst":"xylophone_v0_plucked_129","midi_source":""},{"t":125.172,"note":65,"dur":0.045,"vel":0.992,"inst":"banjo_v0_plucked_142","midi_source":""},{"t":125.172,"note":67,"dur":0.045,"vel":0.992,"inst":"xylophone_v0_plucked_129","midi_source":""},{"t":125.217,"note":46,"dur":0.045,"vel":0.992,"inst":"xylophone_v0_plucked_129","midi_source":""},{"t":125.217,"note":62,"dur":0.045,"vel":0.992,"inst":"banjo_v0_plucked_142","midi_source":""},{"t":125.217,"note":70,"dur":0.045,"vel":0.992,"inst":"xylophone_v0_plucked_129","midi_source":""},{"t":125.217,"note":67,"dur":0.045,"vel":0.992,"inst":"xylophone_v0_plucked_129","midi_source":""},{"t":125.261,"note":85,"dur":0.045,"vel":0.992,"inst":"xylophone_v0_plucked_129","midi_source":""},{"t":125.306,"note":46,"dur":0.02,"vel":0.992,"inst":"xylophone_v0_plucked_129","midi_source":""},{"t":125.306,"note":62,"dur":0.02,"vel":0.992,"inst":"banjo_v0_plucked_142","midi_source":""},{"t":125.306,"note":70,"dur":0.02,"vel":0.992,"inst":"xylophone_v0_plucked_129","midi_source":""},{"t":125.306,"note":82,"dur":0.045,"vel":0.992,"inst":"xylophone_v0_plucked_129","midi_source":""},{"t":125.351,"note":53,"dur":0.045,"vel":0.496,"inst":"banjo_v0_plucked_142","midi_source":""},{"t":125.351,"note":65,"dur":0.067,"vel":0.496,"inst":"banjo_v0_plucked_142","midi_source":""},{"t":125.351,"note":67,"dur":0.134,"vel":0.496,"inst":"xylophone_v0_plucked_129","midi_source":""},{"t":125.351,"note":77,"dur":0.134,"vel":0.496,"inst":"banjo_v0_plucked_142","midi_source":""},{"t":125.396,"note":43,"dur":0.045,"vel":0.496,"inst":"xylophone_v0_plucked_129","midi_source":""},{"t":125.44,"note":55,"dur":0.045,"vel":0.496,"inst":"xylophone_v0_plucked_129","midi_source":""},{"t":125.485,"note":53,"dur":0.268,"vel":0.496,"inst":"banjo_v0_plucked_142","midi_source":""},{"t":125.485,"note":58,"dur":0.268,"vel":0.496,"inst":"xylophone_v0_plucked_129","midi_source":""},{"t":125.485,"note":61,"dur":0.045,"vel":0.496,"inst":"xylophone_v0_plucked_129","midi_source":""},{"t":125.485,"note":73,"dur":0.201,"vel":0.496,"inst":"xylophone_v0_plucked_129","midi_source":""},{"t":125.53,"note":62,"dur":0.045,"vel":0.496,"inst":"banjo_v0_plucked_142","midi_source":""},{"t":125.574,"note":65,"dur":0.045,"vel":0.496,"inst":"banjo_v0_plucked_142","midi_source":""},{"t":125.619,"note":55,"dur":0.045,"vel":0.496,"inst":"xylophone_v0_plucked_129","midi_source":""},{"t":125.619,"note":55,"dur":0.134,"vel":0.496,"inst":"xylophone_v0_plucked_129","midi_source":""},{"t":125.664,"note":67,"dur":0.045,"vel":0.496,"inst":"xylophone_v0_plucked_129","midi_source":""},{"t":125.686,"note":67,"dur":0.067,"vel":0.496,"inst":"xylophone_v0_plucked_129","midi_source":""},{"t":125.709,"note":70,"dur":0.045,"vel":0.496,"inst":"xylophone_v0_plucked_129","midi_source":""},{"t":125.753,"note":53,"dur":0.045,"vel":0.496,"inst":"banjo_v0_plucked_142","midi_source":""},{"t":125.753,"note":58,"dur":0.045,"vel":0.496,"inst":"xylophone_v0_plucked_129","midi_source":""},{"t":125.753,"note":55,"dur":0.403,"vel":0.496,"inst":"xylophone_v0_plucked_129","midi_source":""},{"t":125.753,"note":70,"dur":0.403,"vel":0.496,"inst":"xylophone_v0_plucked_129","midi_source":""},{"t":125.753,"note":77,"dur":0.134,"vel":0.496,"inst":"banjo_v0_plucked_142","midi_source":""},{"t":125.843,"note":53,"dur":0.02,"vel":0.496,"inst":"banjo_v0_plucked_142","midi_source":""},{"t":125.843,"note":58,"dur":0.02,"vel":0.496,"inst":"xylophone_v0_plucked_129","midi_source":""},{"t":125.888,"note":58,"dur":0.045,"vel":0.496,"inst":"xylophone_v0_plucked_129","midi_source":""},{"t":125.888,"note":67,"dur":0.168,"vel":0.496,"inst":"xylophone_v0_plucked_129","midi_source":""},{"t":125.932,"note":60,"dur":0.045,"vel":0.496,"inst":"pad_string_v0_bass_416","midi_source":""},{"t":125.977,"note":62,"dur":0.045,"vel":0.496,"inst":"banjo_v0_plucked_142","midi_source":""},{"t":126.022,"note":49,"dur":0.134,"vel":0.496,"inst":"xylophone_v0_plucked_129","midi_source":""},{"t":126.022,"note":65,"dur":0.134,"vel":0.496,"inst":"banjo_v0_plucked_142","midi_source":""},{"t":126.022,"note":70,"dur":0.045,"vel":0.496,"inst":"xylophone_v0_plucked_129","midi_source":""},{"t":126.055,"note":79,"dur":0.034,"vel":0.496,"inst":"xylophone_v0_plucked_129","midi_source":""},{"t":126.067,"note":73,"dur":0.045,"vel":0.496,"inst":"xylophone_v0_plucked_129","midi_source":""},{"t":126.089,"note":79,"dur":0.034,"vel":0.496,"inst":"xylophone_v0_plucked_129","midi_source":""},{"t":126.111,"note":77,"dur":0.045,"vel":0.496,"inst":"banjo_v0_plucked_142","midi_source":""},{"t":126.123,"note":82,"dur":0.034,"vel":0.496,"inst":"xylophone_v0_plucked_129","midi_source":""},{"t":126.156,"note":48,"dur":0.045,"vel":0.496,"inst":"pad_string_v0_bass_416","midi_source":""},{"t":126.156,"note":62,"dur":0.045,"vel":0.496,"inst":"banjo_v0_plucked_142","midi_source":""},{"t":126.156,"note":74,"dur":0.045,"vel":0.496,"inst":"banjo_v0_plucked_142","midi_source":""},{"t":126.156,"note":79,"dur":0.094,"vel":0.496,"inst":"xylophone_v0_plucked_129","midi_source":""},{"t":126.201,"note":50,"dur":0.045,"vel":0.496,"inst":"banjo_v0_plucked_142","midi_source":""},{"t":126.245,"note":55,"dur":0.005,"vel":0.496,"inst":"xylophone_v0_plucked_129","midi_source":""},{"t":126.245,"note":55,"dur":0.005,"vel":0.496,"inst":"xylophone_v0_plucked_129","midi_source":""},{"t":126.245,"note":67,"dur":0.005,"vel":0.496,"inst":"xylophone_v0_plucked_129","midi_source":""},{"t":126.281,"note":67,"dur":0.105,"vel":0.709,"inst":"tom_v0_noise_perc_505","midi_source":""},{"t":126.281,"note":74,"dur":0.105,"vel":0.709,"inst":"tom_v0_bowed_187","midi_source":""},{"t":126.281,"note":91,"dur":0.105,"vel":0.709,"inst":"tom_v0_noise_perc_505","midi_source":""},{"t":126.281,"note":96,"dur":0.105,"vel":0.709,"inst":"tom_v0_bowed_187","midi_source":""},{"t":126.386,"note":67,"dur":0.105,"vel":0.709,"inst":"tom_v0_noise_perc_505","midi_source":""},{"t":126.386,"note":74,"dur":0.157,"vel":0.709,"inst":"tom_v0_bowed_187","midi_source":""},{"t":126.386,"note":89,"dur":0.157,"vel":0.709,"inst":"tom_v0_noise_perc_505","midi_source":""},{"t":126.386,"note":96,"dur":0.21,"vel":0.709,"inst":"tom_v0_bowed_187","midi_source":""},{"t":126.491,"note":67,"dur":0.105,"vel":0.709,"inst":"tom_v0_noise_perc_505","midi_source":""},{"t":126.543,"note":74,"dur":0.052,"vel":0.709,"inst":"tom_v0_bowed_187","midi_source":""},{"t":126.543,"note":91,"dur":0.052,"vel":0.709,"inst":"tom_v0_noise_perc_505","midi_source":""},{"t":126.595,"note":67,"dur":0.105,"vel":0.709,"inst":"tom_v0_noise_perc_505","midi_source":""},{"t":126.595,"note":77,"dur":0.105,"vel":0.709,"inst":"tom_v0_noise_perc_505","midi_source":""},{"t":126.595,"note":91,"dur":0.105,"vel":0.709,"inst":"tom_v0_noise_perc_505","midi_source":""},{"t":126.595,"note":95,"dur":0.105,"vel":0.709,"inst":"tom_v0_noise_perc_505","midi_source":""},{"t":126.7,"note":67,"dur":0.105,"vel":0.709,"inst":"tom_v0_noise_perc_505","midi_source":""},{"t":126.7,"note":77,"dur":0.105,"vel":0.709,"inst":"tom_v0_noise_perc_505","midi_source":""},{"t":126.7,"note":83,"dur":0.105,"vel":0.709,"inst":"tom_v0_noise_perc_505","midi_source":""},{"t":126.7,"note":91,"dur":0.105,"vel":0.709,"inst":"tom_v0_noise_perc_505","midi_source":""},{"t":126.805,"note":67,"dur":0.105,"vel":0.709,"inst":"tom_v0_noise_perc_505","midi_source":""},{"t":126.805,"note":74,"dur":0.105,"vel":0.709,"inst":"tom_v0_bowed_187","midi_source":""},{"t":126.805,"note":84,"dur":0.105,"vel":0.709,"inst":"tom_v0_bowed_187","midi_source":""},{"t":126.805,"note":91,"dur":0.105,"vel":0.709,"inst":"tom_v0_noise_perc_505","midi_source":""},{"t":126.91,"note":71,"dur":0.105,"vel":0.709,"inst":"tom_v0_noise_perc_505","midi_source":""},{"t":126.91,"note":79,"dur":0.21,"vel":0.709,"inst":"tom_v0_noise_perc_505","midi_source":""},{"t":126.91,"note":86,"dur":0.105,"vel":0.709,"inst":"tom_v0_bowed_187","midi_source":""},{"t":126.91,"note":89,"dur":0.105,"vel":0.709,"inst":"tom_v0_noise_perc_505","midi_source":""},{"t":127.015,"note":72,"dur":0.105,"vel":0.709,"inst":"tom_v0_bowed_187","midi_source":""},{"t":127.015,"note":86,"dur":0.105,"vel":0.709,"inst":"tom_v0_bowed_187","midi_source":""},{"t":127.015,"note":89,"dur":0.105,"vel":0.709,"inst":"tom_v0_noise_perc_505","midi_source":""},{"t":127.12,"note":65,"dur":0.105,"vel":0.709,"inst":"tom_v0_noise_perc_505","midi_source":""},{"t":127.12,"note":81,"dur":0.105,"vel":0.709,"inst":"tom_v0_noise_perc_505","midi_source":""},{"t":127.12,"note":84,"dur":0.105,"vel":0.709,"inst":"tom_v0_bowed_187","midi_source":""},{"t":127.12,"note":86,"dur":0.105,"vel":0.709,"inst":"tom_v0_bowed_187","midi_source":""},{"t":127.225,"note":67,"dur":0.21,"vel":0.709,"inst":"tom_v0_noise_perc_505","midi_source":""},{"t":127.225,"note":74,"dur":0.21,"vel":0.709,"inst":"tom_v0_bowed_187","midi_source":""},{"t":127.225,"note":83,"dur":0.21,"vel":0.709,"inst":"tom_v0_noise_perc_505","midi_source":""},{"t":127.225,"note":86,"dur":0.052,"vel":0.709,"inst":"tom_v0_bowed_187","midi_source":""},{"t":127.278,"note":89,"dur":0.052,"vel":0.709,"inst":"tom_v0_noise_perc_505","midi_source":""},{"t":127.33,"note":91,"dur":0.052,"vel":0.709,"inst":"tom_v0_noise_perc_505","midi_source":""},{"t":127.383,"note":89,"dur":0.052,"vel":0.709,"inst":"tom_v0_noise_perc_505","midi_source":""},{"t":127.435,"note":91,"dur":0.052,"vel":0.709,"inst":"tom_v0_noise_perc_505","midi_source":""},{"t":127.488,"note":89,"dur":0.052,"vel":0.709,"inst":"tom_v0_noise_perc_505","midi_source":""},{"t":127.54,"note":86,"dur":0.052,"vel":0.709,"inst":"tom_v0_bowed_187","midi_source":""},{"t":127.54,"note":91,"dur":0.052,"vel":0.709,"inst":"tom_v0_noise_perc_505","midi_source":""},{"t":127.593,"note":84,"dur":0.052,"vel":0.709,"inst":"tom_v0_bowed_187","midi_source":""},{"t":127.593,"note":86,"dur":0.052,"vel":0.709,"inst":"tom_v0_bowed_187","midi_source":""},{"t":127.645,"note":83,"dur":0.052,"vel":0.709,"inst":"tom_v0_noise_perc_505","midi_source":""},{"t":127.645,"note":86,"dur":0.105,"vel":0.709,"inst":"tom_v0_bowed_187","midi_source":""},{"t":127.698,"note":77,"dur":0.052,"vel":0.709,"inst":"tom_v0_noise_perc_505","midi_source":""},{"t":127.75,"note":79,"dur":0.052,"vel":0.709,"inst":"tom_v0_noise_perc_505","midi_source":""},{"t":127.803,"note":77,"dur":0.052,"vel":0.709,"inst":"tom_v0_noise_perc_505","midi_source":""},{"t":127.855,"note":79,"dur":0.052,"vel":0.709,"inst":"tom_v0_noise_perc_505","midi_source":""},{"t":127.908,"note":77,"dur":0.052,"vel":0.709,"inst":"tom_v0_noise_perc_505","midi_source":""},{"t":127.96,"note":74,"dur":0.052,"vel":0.709,"inst":"tom_v0_bowed_187","midi_source":""},{"t":127.96,"note":79,"dur":0.052,"vel":0.709,"inst":"tom_v0_noise_perc_505","midi_source":""},{"t":128.013,"note":72,"dur":0.052,"vel":0.709,"inst":"tom_v0_bowed_187","midi_source":""},{"t":128.013,"note":74,"dur":0.052,"vel":0.709,"inst":"tom_v0_bowed_187","midi_source":""},{"t":128.065,"note":71,"dur":0.052,"vel":0.709,"inst":"tom_v0_noise_perc_505","midi_source":""},{"t":128.065,"note":74,"dur":0.105,"vel":0.709,"inst":"tom_v0_bowed_187","midi_source":""},{"t":128.118,"note":65,"dur":0.052,"vel":0.709,"inst":"tom_v0_noise_perc_505","midi_source":""},{"t":128.17,"note":67,"dur":0.052,"vel":0.709,"inst":"tom_v0_noise_perc_505","midi_source":""},{"t":128.223,"note":65,"dur":0.052,"vel":0.709,"inst":"tom_v0_noise_perc_505","midi_source":""},{"t":128.275,"note":67,"dur":0.052,"vel":0.709,"inst":"tom_v0_noise_perc_505","midi_source":""},{"t":128.328,"note":65,"dur":0.052,"vel":0.709,"inst":"tom_v0_noise_perc_505","midi_source":""},{"t":128.38,"note":62,"dur":0.052,"vel":0.709,"inst":"tom_v0_bowed_187","midi_source":""},{"t":128.38,"note":67,"dur":0.052,"vel":0.709,"inst":"tom_v0_noise_perc_505","midi_source":""},{"t":128.433,"note":60,"dur":0.052,"vel":0.709,"inst":"tom_v0_bowed_187","midi_source":""},{"t":128.433,"note":62,"dur":0.052,"vel":0.709,"inst":"tom_v0_bowed_187","midi_source":""},{"t":128.485,"note":59,"dur":0.052,"vel":0.709,"inst":"tom_v0_noise_perc_505","midi_source":""},{"t":128.485,"note":62,"dur":0.105,"vel":0.709,"inst":"tom_v0_bowed_187","midi_source":""},{"t":128.538,"note":53,"dur":0.052,"vel":0.709,"inst":"tom_v0_noise_perc_505","midi_source":""},{"t":128.59,"note":55,"dur":0.052,"vel":0.709,"inst":"tom_v0_noise_perc_505","midi_source":""},{"t":128.643,"note":53,"dur":0.052,"vel":0.709,"inst":"tom_v0_noise_perc_505","midi_source":""},{"t":128.695,"note":55,"dur":0.052,"vel":0.709,"inst":"tom_v0_noise_perc_505","midi_source":""},{"t":128.748,"note":53,"dur":0.052,"vel":0.709,"inst":"tom_v0_noise_perc_505","midi_source":""},{"t":128.8,"note":55,"dur":0.052,"vel":0.709,"inst":"tom_v0_noise_perc_505","midi_source":""},{"t":128.853,"note":50,"dur":0.052,"vel":0.709,"inst":"tom_v0_bowed_187","midi_source":""},{"t":128.905,"note":50,"dur":0.315,"vel":0.709,"inst":"tom_v0_bowed_187","midi_source":""},{"t":128.905,"note":57,"dur":0.315,"vel":0.709,"inst":"tom_v0_noise_perc_505","midi_source":""},{"t":128.905,"note":69,"dur":0.315,"vel":0.709,"inst":"tom_v0_noise_perc_505","midi_source":""},{"t":128.905,"note":74,"dur":0.315,"vel":0.709,"inst":"tom_v0_bowed_187","midi_source":""},{"t":128.905,"note":74,"dur":0.315,"vel":0.709,"inst":"tom_v0_bowed_187","midi_source":""},{"t":128.905,"note":81,"dur":0.315,"vel":0.709,"inst":"tom_v0_noise_perc_505","midi_source":""},{"t":128.905,"note":81,"dur":0.315,"vel":0.709,"inst":"tom_v0_noise_perc_505","midi_source":""},{"t":128.905,"note":89,"dur":0.315,"vel":0.709,"inst":"tom_v0_noise_perc_505","midi_source":""},{"t":128.905,"note":91,"dur":0.315,"vel":0.709,"inst":"tom_v0_noise_perc_505","midi_source":""},{"t":129.22,"note":62,"dur":0.105,"vel":0.709,"inst":"tom_v0_bowed_187","midi_source":""},{"t":129.22,"note":65,"dur":0.105,"vel":0.709,"inst":"tom_v0_noise_perc_505","midi_source":""},{"t":129.22,"note":67,"dur":0.105,"vel":0.709,"inst":"tom_v0_noise_perc_505","midi_source":""},{"t":129.22,"note":69,"dur":0.105,"vel":0.709,"inst":"tom_v0_noise_perc_505","midi_source":""},{"t":129.325,"note":50,"dur":0.105,"vel":0.709,"inst":"tom_v0_bowed_187","midi_source":""},{"t":129.325,"note":62,"dur":0.105,"vel":0.709,"inst":"tom_v0_bowed_187","midi_source":""},{"t":129.325,"note":67,"dur":0.105,"vel":0.709,"inst":"tom_v0_noise_perc_505","midi_source":""},{"t":129.325,"note":69,"dur":0.105,"vel":0.709,"inst":"tom_v0_noise_perc_505","midi_source":""},{"t":129.43,"note":50,"dur":0.105,"vel":0.709,"inst":"tom_v0_bowed_187","midi_source":""},{"t":129.43,"note":62,"dur":0.105,"vel":0.709,"inst":"tom_v0_bowed_187","midi_source":""},{"t":129.43,"note":67,"dur":0.105,"vel":0.709,"inst":"tom_v0_noise_perc_505","midi_source":""},{"t":129.43,"note":69,"dur":0.105,"vel":0.709,"inst":"tom_v0_noise_perc_505","midi_source":""},{"t":129.64,"note":60,"dur":0.105,"vel":0.709,"inst":"tom_v0_bowed_187","midi_source":""},{"t":129.64,"note":62,"dur":0.105,"vel":0.709,"inst":"tom_v0_bowed_187","midi_source":""},{"t":129.64,"note":67,"dur":0.105,"vel":0.709,"inst":"tom_v0_noise_perc_505","midi_source":""},{"t":129.64,"note":72,"dur":0.105,"vel":0.709,"inst":"tom_v0_bowed_187","midi_source":""},{"t":129.745,"note":55,"dur":0.21,"vel":0.709,"inst":"tom_v0_noise_perc_505","midi_source":""},{"t":129.745,"note":62,"dur":0.21,"vel":0.709,"inst":"tom_v0_bowed_187","midi_source":""},{"t":129.745,"note":69,"dur":0.105,"vel":0.709,"inst":"tom_v0_noise_perc_505","midi_source":""},{"t":129.745,"note":72,"dur":0.105,"vel":0.709,"inst":"tom_v0_bowed_187","midi_source":""},{"t":129.85,"note":69,"dur":0.105,"vel":0.709,"inst":"tom_v0_noise_perc_505","midi_source":""},{"t":129.85,"note":62,"dur":0.105,"vel":0.709,"inst":"tom_v0_bowed_187","midi_source":""},{"t":130.06,"note":67,"dur":0.105,"vel":0.709,"inst":"tom_v0_noise_perc_505","midi_source":""},{"t":130.06,"note":69,"dur":0.105,"vel":0.709,"inst":"tom_v0_noise_perc_505","midi_source":""},{"t":130.06,"note":62,"dur":0.105,"vel":0.709,"inst":"tom_v0_bowed_187","midi_source":""},{"t":130.06,"note":74,"dur":0.21,"vel":0.709,"inst":"tom_v0_bowed_187","midi_source":""},{"t":130.165,"note":67,"dur":0.105,"vel":0.709,"inst":"tom_v0_noise_perc_505","midi_source":""},{"t":130.165,"note":67,"dur":0.105,"vel":0.709,"inst":"tom_v0_noise_perc_505","midi_source":""},{"t":130.165,"note":72,"dur":0.21,"vel":0.709,"inst":"tom_v0_bowed_187","midi_source":""},{"t":130.27,"note":67,"dur":0.105,"vel":0.709,"inst":"tom_v0_noise_perc_505","midi_source":""},{"t":130.27,"note":69,"dur":0.105,"vel":0.709,"inst":"tom_v0_noise_perc_505","midi_source":""},{"t":130.27,"note":76,"dur":0.105,"vel":0.709,"inst":"tom_v0_bowed_187","midi_source":""},{"t":130.375,"note":65,"dur":0.105,"vel":0.709,"inst":"tom_v0_noise_perc_505","midi_source":""},{"t":130.375,"note":67,"dur":0.105,"vel":0.709,"inst":"tom_v0_noise_perc_505","midi_source":""},{"t":130.375,"note":74,"dur":0.105,"vel":0.709,"inst":"tom_v0_bowed_187","midi_source":""},{"t":130.375,"note":77,"dur":0.105,"vel":0.709,"inst":"tom_v0_noise_perc_505","midi_source":""},{"t":130.48,"note":62,"dur":0.105,"vel":0.709,"inst":"tom_v0_bowed_187","midi_source":""},{"t":130.48,"note":67,"dur":0.105,"vel":0.709,"inst":"tom_v0_noise_perc_505","midi_source":""},{"t":130.48,"note":74,"dur":0.105,"vel":0.709,"inst":"tom_v0_bowed_187","midi_source":""},{"t":130.48,"note":79,"dur":0.105,"vel":0.709,"inst":"tom_v0_noise_perc_505","midi_source":""},{"t":130.585,"note":62,"dur":0.21,"vel":0.709,"inst":"tom_v0_bowed_187","midi_source":""},{"t":130.585,"note":65,"dur":0.21,"vel":0.709,"inst":"tom_v0_noise_perc_505","midi_source":""},{"t":130.585,"note":69,"dur":0.21,"vel":0.709,"inst":"tom_v0_noise_perc_505","midi_source":""},{"t":130.585,"note":81,"dur":0.105,"vel":0.709,"inst":"tom_v0_noise_perc_505","midi_source":""},{"t":130.69,"note":79,"dur":0.105,"vel":0.709,"inst":"tom_v0_noise_perc_505","midi_source":""},{"t":130.9,"note":62,"dur":0.105,"vel":0.709,"inst":"tom_v0_bowed_187","midi_source":""},{"t":130.9,"note":69,"dur":0.105,"vel":0.709,"inst":"tom_v0_noise_perc_505","midi_source":""},{"t":130.9,"note":77,"dur":0.105,"vel":0.709,"inst":"tom_v0_noise_perc_505","midi_source":""},{"t":130.9,"note":79,"dur":0.105,"vel":0.709,"inst":"tom_v0_noise_perc_505","midi_source":""},{"t":131.005,"note":62,"dur":0.21,"vel":0.709,"inst":"tom_v0_bowed_187","midi_source":""},{"t":131.005,"note":74,"dur":0.105,"vel":0.709,"inst":"tom_v0_bowed_187","midi_source":""},{"t":131.005,"note":74,"dur":0.525,"vel":0.709,"inst":"tom_v0_bowed_187","midi_source":""},{"t":131.005,"note":79,"dur":0.105,"vel":0.709,"inst":"tom_v0_noise_perc_505","midi_source":""},{"t":131.11,"note":77,"dur":0.21,"vel":0.709,"inst":"tom_v0_noise_perc_505","midi_source":""},{"t":131.11,"note":79,"dur":0.21,"vel":0.709,"inst":"tom_v0_noise_perc_505","midi_source":""},{"t":131.215,"note":62,"dur":0.21,"vel":0.709,"inst":"tom_v0_bowed_187","midi_source":""},{"t":131.32,"note":67,"dur":0.105,"vel":0.709,"inst":"tom_v0_noise_perc_505","midi_source":""},{"t":131.32,"note":74,"dur":0.105,"vel":0.709,"inst":"tom_v0_bowed_187","midi_source":""},{"t":131.32,"note":91,"dur":0.105,"vel":0.709,"inst":"tom_v0_noise_perc_505","midi_source":""},{"t":131.32,"note":96,"dur":0.105,"vel":0.709,"inst":"tom_v0_bowed_187","midi_source":""},{"t":131.424,"note":67,"dur":0.105,"vel":0.709,"inst":"tom_v0_noise_perc_505","midi_source":""},{"t":131.424,"note":74,"dur":0.157,"vel":0.709,"inst":"tom_v0_bowed_187","midi_source":""},{"t":131.424,"note":89,"dur":0.157,"vel":0.709,"inst":"tom_v0_noise_perc_505","midi_source":""},{"t":131.424,"note":96,"dur":0.21,"vel":0.709,"inst":"tom_v0_bowed_187","midi_source":""},{"t":131.529,"note":67,"dur":0.105,"vel":0.709,"inst":"tom_v0_noise_perc_505","midi_source":""},{"t":131.582,"note":74,"dur":0.052,"vel":0.709,"inst":"tom_v0_bowed_187","midi_source":""},{"t":131.582,"note":91,"dur":0.052,"vel":0.709,"inst":"tom_v0_noise_perc_505","midi_source":""},{"t":131.634,"note":67,"dur":0.105,"vel":0.709,"inst":"tom_v0_noise_perc_505","midi_source":""},{"t":131.634,"note":77,"dur":0.105,"vel":0.709,"inst":"tom_v0_noise_perc_505","midi_source":""},{"t":131.634,"note":91,"dur":0.105,"vel":0.709,"inst":"tom_v0_noise_perc_505","midi_source":""},{"t":131.634,"note":95,"dur":0.105,"vel":0.709,"inst":"tom_v0_noise_perc_505","midi_source":""},{"t":131.739,"note":67,"dur":0.105,"vel":0.709,"inst":"tom_v0_noise_perc_505","midi_source":""},{"t":131.739,"note":77,"dur":0.105,"vel":0.709,"inst":"tom_v0_noise_perc_505","midi_source":""},{"t":131.739,"note":83,"dur":0.105,"vel":0.709,"inst":"tom_v0_noise_perc_505","midi_source":""},{"t":131.739,"note":91,"dur":0.105,"vel":0.709,"inst":"tom_v0_noise_perc_505","midi_source":""},{"t":131.844,"note":67,"dur":0.105,"vel":0.709,"inst":"tom_v0_noise_perc_505","midi_source":""},{"t":131.844,"note":74,"dur":0.105,"vel":0.709,"inst":"tom_v0_bowed_187","midi_source":""},{"t":131.844,"note":84,"dur":0.105,"vel":0.709,"inst":"tom_v0_bowed_187","midi_source":""},{"t":131.844,"note":91,"dur":0.105,"vel":0.709,"inst":"tom_v0_noise_perc_505","midi_source":""},{"t":131.949,"note":71,"dur":0.105,"vel":0.709,"inst":"tom_v0_noise_perc_505","midi_source":""},{"t":131.949,"note":79,"dur":0.21,"vel":0.709,"inst":"tom_v0_noise_perc_505","midi_source":""},{"t":131.949,"note":86,"dur":0.105,"vel":0.709,"inst":"tom_v0_bowed_187","midi_source":""},{"t":131.949,"note":89,"dur":0.105,"vel":0.709,"inst":"tom_v0_noise_perc_505","midi_source":""},{"t":132.054,"note":72,"dur":0.105,"vel":0.709,"inst":"tom_v0_bowed_187","midi_source":""},{"t":132.054,"note":86,"dur":0.105,"vel":0.709,"inst":"tom_v0_bowed_187","midi_source":""},{"t":132.054,"note":89,"dur":0.105,"vel":0.709,"inst":"tom_v0_noise_perc_505","midi_source":""},{"t":132.159,"note":65,"dur":0.105,"vel":0.709,"inst":"tom_v0_noise_perc_505","midi_source":""},{"t":132.159,"note":81,"dur":0.105,"vel":0.709,"inst":"tom_v0_noise_perc_505","midi_source":""},{"t":132.159,"note":84,"dur":0.105,"vel":0.709,"inst":"tom_v0_bowed_187","midi_source":""},{"t":132.159,"note":86,"dur":0.105,"vel":0.709,"inst":"tom_v0_bowed_187","midi_source":""},{"t":132.264,"note":67,"dur":0.21,"vel":0.709,"inst":"tom_v0_noise_perc_505","midi_source":""},{"t":132.264,"note":74,"dur":0.21,"vel":0.709,"inst":"tom_v0_bowed_187","midi_source":""},{"t":132.264,"note":83,"dur":0.21,"vel":0.709,"inst":"tom_v0_noise_perc_505","midi_source":""},{"t":132.264,"note":86,"dur":0.052,"vel":0.709,"inst":"tom_v0_bowed_187","midi_source":""},{"t":132.317,"note":89,"dur":0.052,"vel":0.709,"inst":"tom_v0_noise_perc_505","midi_source":""},{"t":132.369,"note":91,"dur":0.052,"vel":0.709,"inst":"tom_v0_noise_perc_505","midi_source":""},{"t":132.422,"note":89,"dur":0.052,"vel":0.709,"inst":"tom_v0_noise_perc_505","midi_source":""},{"t":132.474,"note":91,"dur":0.052,"vel":0.709,"inst":"tom_v0_noise_perc_505","midi_source":""},{"t":132.527,"note":89,"dur":0.052,"vel":0.709,"inst":"tom_v0_noise_perc_505","midi_source":""},{"t":132.579,"note":86,"dur":0.052,"vel":0.709,"inst":"tom_v0_bowed_187","midi_source":""},{"t":132.579,"note":91,"dur":0.052,"vel":0.709,"inst":"tom_v0_noise_perc_505","midi_source":""},{"t":132.632,"note":84,"dur":0.052,"vel":0.709,"inst":"tom_v0_bowed_187","midi_source":""},{"t":132.632,"note":86,"dur":0.052,"vel":0.709,"inst":"tom_v0_bowed_187","midi_source":""},{"t":132.684,"note":83,"dur":0.052,"vel":0.709,"inst":"tom_v0_noise_perc_505","midi_source":""},{"t":132.684,"note":86,"dur":0.105,"vel":0.709,"inst":"tom_v0_bowed_187","midi_source":""},{"t":132.737,"note":77,"dur":0.052,"vel":0.709,"inst":"tom_v0_noise_perc_505","midi_source":""},{"t":132.789,"note":79,"dur":0.052,"vel":0.709,"inst":"tom_v0_noise_perc_505","midi_source":""},{"t":132.842,"note":77,"dur":0.052,"vel":0.709,"inst":"tom_v0_noise_perc_505","midi_source":""},{"t":132.894,"note":79,"dur":0.052,"vel":0.709,"inst":"tom_v0_noise_perc_505","midi_source":""},{"t":132.947,"note":77,"dur":0.052,"vel":0.709,"inst":"tom_v0_noise_perc_505","midi_source":""},{"t":132.999,"note":74,"dur":0.052,"vel":0.709,"inst":"tom_v0_bowed_187","midi_source":""},{"t":132.999,"note":79,"dur":0.052,"vel":0.709,"inst":"tom_v0_noise_perc_505","midi_source":""},{"t":133.052,"note":72,"dur":0.052,"vel":0.709,"inst":"tom_v0_bowed_187","midi_source":""},{"t":133.052,"note":74,"dur":0.052,"vel":0.709,"inst":"tom_v0_bowed_187","midi_source":""},{"t":133.104,"note":71,"dur":0.052,"vel":0.709,"inst":"tom_v0_noise_perc_505","midi_source":""},{"t":133.104,"note":74,"dur":0.105,"vel":0.709,"inst":"tom_v0_bowed_187","midi_source":""},{"t":133.157,"note":65,"dur":0.052,"vel":0.709,"inst":"tom_v0_noise_perc_505","midi_source":""},{"t":133.209,"note":67,"dur":0.052,"vel":0.709,"inst":"tom_v0_noise_perc_505","midi_source":""},{"t":133.262,"note":65,"dur":0.052,"vel":0.709,"inst":"tom_v0_noise_perc_505","midi_source":""},{"t":133.314,"note":67,"dur":0.052,"vel":0.709,"inst":"tom_v0_noise_perc_505","midi_source":""},{"t":133.367,"note":65,"dur":0.052,"vel":0.709,"inst":"tom_v0_noise_perc_505","midi_source":""},{"t":133.419,"note":62,"dur":0.052,"vel":0.709,"inst":"tom_v0_bowed_187","midi_source":""},{"t":133.419,"note":67,"dur":0.052,"vel":0.709,"inst":"tom_v0_noise_perc_505","midi_source":""},{"t":133.472,"note":60,"dur":0.052,"vel":0.709,"inst":"tom_v0_bowed_187","midi_source":""},{"t":133.472,"note":62,"dur":0.052,"vel":0.709,"inst":"tom_v0_bowed_187","midi_source":""},{"t":133.524,"note":59,"dur":0.052,"vel":0.709,"inst":"tom_v0_noise_perc_505","midi_source":""},{"t":133.524,"note":62,"dur":0.105,"vel":0.709,"inst":"tom_v0_bowed_187","midi_source":""},{"t":133.577,"note":53,"dur":0.052,"vel":0.709,"inst":"tom_v0_noise_perc_505","midi_source":""},{"t":133.629,"note":55,"dur":0.052,"vel":0.709,"inst":"tom_v0_noise_perc_505","midi_source":""},{"t":133.682,"note":53,"dur":0.052,"vel":0.709,"inst":"tom_v0_noise_perc_505","midi_source":""},{"t":133.734,"note":55,"dur":0.052,"vel":0.709,"inst":"tom_v0_noise_perc_505","midi_source":""},{"t":133.787,"note":53,"dur":0.052,"vel":0.709,"inst":"tom_v0_noise_perc_505","midi_source":""},{"t":133.839,"note":55,"dur":0.052,"vel":0.709,"inst":"tom_v0_noise_perc_505","midi_source":""},{"t":133.891,"note":50,"dur":0.052,"vel":0.709,"inst":"tom_v0_bowed_187","midi_source":""},{"t":133.944,"note":50,"dur":0.315,"vel":0.709,"inst":"tom_v0_bowed_187","midi_source":""},{"t":133.944,"note":57,"dur":0.315,"vel":0.709,"inst":"tom_v0_noise_perc_505","midi_source":""},{"t":133.944,"note":69,"dur":0.315,"vel":0.709,"inst":"tom_v0_noise_perc_505","midi_source":""},{"t":133.944,"note":74,"dur":0.315,"vel":0.709,"inst":"tom_v0_bowed_187","midi_source":""},{"t":133.944,"note":74,"dur":0.315,"vel":0.709,"inst":"tom_v0_bowed_187","midi_source":""},{"t":133.944,"note":81,"dur":0.315,"vel":0.709,"inst":"tom_v0_noise_perc_505","midi_source":""},{"t":133.944,"note":81,"dur":0.315,"vel":0.709,"inst":"tom_v0_noise_perc_505","midi_source":""},{"t":133.944,"note":89,"dur":0.315,"vel":0.709,"inst":"tom_v0_noise_perc_505","midi_source":""},{"t":133.944,"note":91,"dur":0.315,"vel":0.709,"inst":"tom_v0_noise_perc_505","midi_source":""},{"t":134.259,"note":62,"dur":0.105,"vel":0.709,"inst":"tom_v0_bowed_187","midi_source":""},{"t":134.259,"note":65,"dur":0.105,"vel":0.709,"inst":"tom_v0_noise_perc_505","midi_source":""},{"t":134.259,"note":67,"dur":0.105,"vel":0.709,"inst":"tom_v0_noise_perc_505","midi_source":""},{"t":134.259,"note":69,"dur":0.105,"vel":0.709,"inst":"tom_v0_noise_perc_505","midi_source":""},{"t":134.364,"note":50,"dur":0.105,"vel":0.709,"inst":"tom_v0_bowed_187","midi_source":""},{"t":134.364,"note":62,"dur":0.105,"vel":0.709,"inst":"tom_v0_bowed_187","midi_source":""},{"t":134.364,"note":67,"dur":0.105,"vel":0.709,"inst":"tom_v0_noise_perc_505","midi_source":""},{"t":134.364,"note":69,"dur":0.105,"vel":0.709,"inst":"tom_v0_noise_perc_505","midi_source":""},{"t":134.469,"note":50,"dur":0.105,"vel":0.709,"inst":"tom_v0_bowed_187","midi_source":""},{"t":134.469,"note":62,"dur":0.105,"vel":0.709,"inst":"tom_v0_bowed_187","midi_source":""},{"t":134.469,"note":67,"dur":0.105,"vel":0.709,"inst":"tom_v0_noise_perc_505","midi_source":""},{"t":134.469,"note":69,"dur":0.105,"vel":0.709,"inst":"tom_v0_noise_perc_505","midi_source":""},{"t":134.679,"note":60,"dur":0.105,"vel":0.709,"inst":"tom_v0_bowed_187","midi_source":""},{"t":134.679,"note":62,"dur":0.105,"vel":0.709,"inst":"tom_v0_bowed_187","midi_source":""},{"t":134.679,"note":67,"dur":0.105,"vel":0.709,"inst":"tom_v0_noise_perc_505","midi_source":""},{"t":134.679,"note":72,"dur":0.105,"vel":0.709,"inst":"tom_v0_bowed_187","midi_source":""},{"t":134.784,"note":55,"dur":0.21,"vel":0.709,"inst":"tom_v0_noise_perc_505","midi_source":""},{"t":134.784,"note":62,"dur":0.21,"vel":0.709,"inst":"tom_v0_bowed_187","midi_source":""},{"t":134.784,"note":69,"dur":0.105,"vel":0.709,"inst":"tom_v0_noise_perc_505","midi_source":""},{"t":134.784,"note":72,"dur":0.105,"vel":0.709,"inst":"tom_v0_bowed_187","midi_source":""},{"t":134.889,"note":69,"dur":0.105,"vel":0.709,"inst":"tom_v0_noise_perc_505","midi_source":""},{"t":134.889,"note":62,"dur":0.105,"vel":0.709,"inst":"tom_v0_bowed_187","midi_source":""},{"t":135.099,"note":67,"dur":0.105,"vel":0.709,"inst":"tom_v0_noise_perc_505","midi_source":""},{"t":135.099,"note":69,"dur":0.105,"vel":0.709,"inst":"tom_v0_noise_perc_505","midi_source":""},{"t":135.099,"note":62,"dur":0.105,"vel":0.709,"inst":"tom_v0_bowed_187","midi_source":""},{"t":135.099,"note":74,"dur":0.21,"vel":0.709,"inst":"tom_v0_bowed_187","midi_source":""},{"t":135.204,"note":67,"dur":0.105,"vel":0.709,"inst":"tom_v0_noise_perc_505","midi_source":""},{"t":135.204,"note":67,"dur":0.105,"vel":0.709,"inst":"tom_v0_noise_perc_505","midi_source":""},{"t":135.204,"note":72,"dur":0.21,"vel":0.709,"inst":"tom_v0_bowed_187","midi_source":""},{"t":135.309,"note":67,"dur":0.105,"vel":0.709,"inst":"tom_v0_noise_perc_505","midi_source":""},{"t":135.309,"note":69,"dur":0.105,"vel":0.709,"inst":"tom_v0_noise_perc_505","midi_source":""},{"t":135.309,"note":76,"dur":0.105,"vel":0.709,"inst":"tom_v0_bowed_187","midi_source":""},{"t":135.414,"note":65,"dur":0.105,"vel":0.709,"inst":"tom_v0_noise_perc_505","midi_source":""},{"t":135.414,"note":67,"dur":0.105,"vel":0.709,"inst":"tom_v0_noise_perc_505","midi_source":""},{"t":135.414,"note":74,"dur":0.105,"vel":0.709,"inst":"tom_v0_bowed_187","midi_source":""},{"t":135.414,"note":77,"dur":0.105,"vel":0.709,"inst":"tom_v0_noise_perc_505","midi_source":""},{"t":135.519,"note":62,"dur":0.105,"vel":0.709,"inst":"tom_v0_bowed_187","midi_source":""},{"t":135.519,"note":67,"dur":0.105,"vel":0.709,"inst":"tom_v0_noise_perc_505","midi_source":""},{"t":135.519,"note":74,"dur":0.105,"vel":0.709,"inst":"tom_v0_bowed_187","midi_source":""},{"t":135.519,"note":79,"dur":0.105,"vel":0.709,"inst":"tom_v0_noise_perc_505","midi_source":""},{"t":135.624,"note":62,"dur":0.21,"vel":0.709,"inst":"tom_v0_bowed_187","midi_source":""},{"t":135.624,"note":65,"dur":0.21,"vel":0.709,"inst":"tom_v0_noise_perc_505","midi_source":""},{"t":135.624,"note":69,"dur":0.21,"vel":0.709,"inst":"tom_v0_noise_perc_505","midi_source":""},{"t":135.624,"note":81,"dur":0.105,"vel":0.709,"inst":"tom_v0_noise_perc_505","midi_source":""},{"t":135.729,"note":79,"dur":0.105,"vel":0.709,"inst":"tom_v0_noise_perc_505","midi_source":""},{"t":135.939,"note":62,"dur":0.105,"vel":0.709,"inst":"tom_v0_bowed_187","midi_source":""},{"t":135.939,"note":69,"dur":0.105,"vel":0.709,"inst":"tom_v0_noise_perc_505","midi_source":""},{"t":135.939,"note":77,"dur":0.105,"vel":0.709,"inst":"tom_v0_noise_perc_505","midi_source":""},{"t":135.939,"note":79,"dur":0.105,"vel":0.709,"inst":"tom_v0_noise_perc_505","midi_source":""},{"t":136.044,"note":62,"dur":0.21,"vel":0.709,"inst":"tom_v0_bowed_187","midi_source":""},{"t":136.044,"note":74,"dur":0.105,"vel":0.709,"inst":"tom_v0_bowed_187","midi_source":""},{"t":136.044,"note":74,"dur":0.525,"vel":0.709,"inst":"tom_v0_bowed_187","midi_source":""},{"t":136.044,"note":79,"dur":0.105,"vel":0.709,"inst":"tom_v0_noise_perc_505","midi_source":""},{"t":136.149,"note":77,"dur":0.21,"vel":0.709,"inst":"tom_v0_noise_perc_505","midi_source":""},{"t":136.149,"note":79,"dur":0.21,"vel":0.709,"inst":"tom_v0_noise_perc_505","midi_source":""},{"t":136.253,"note":62,"dur":0.21,"vel":0.709,"inst":"tom_v0_bowed_187","midi_source":""},{"t":136.358,"note":67,"dur":0.105,"vel":0.709,"inst":"tom_v0_noise_perc_505","midi_source":""},{"t":136.358,"note":74,"dur":0.105,"vel":0.709,"inst":"tom_v0_bowed_187","midi_source":""},{"t":136.358,"note":91,"dur":0.105,"vel":0.709,"inst":"tom_v0_noise_perc_505","midi_source":""},{"t":136.358,"note":96,"dur":0.105,"vel":0.709,"inst":"tom_v0_bowed_187","midi_source":""},{"t":136.463,"note":67,"dur":0.105,"vel":0.709,"inst":"tom_v0_noise_perc_505","midi_source":""},{"t":136.463,"note":74,"dur":0.157,"vel":0.709,"inst":"tom_v0_bowed_187","midi_source":""},{"t":136.463,"note":89,"dur":0.157,"vel":0.709,"inst":"tom_v0_noise_perc_505","midi_source":""},{"t":136.463,"note":96,"dur":0.21,"vel":0.709,"inst":"tom_v0_bowed_187","midi_source":""},{"t":136.568,"note":67,"dur":0.105,"vel":0.709,"inst":"tom_v0_noise_perc_505","midi_source":""},{"t":136.621,"note":74,"dur":0.052,"vel":0.709,"inst":"tom_v0_bowed_187","midi_source":""},{"t":136.621,"note":91,"dur":0.052,"vel":0.709,"inst":"tom_v0_noise_perc_505","midi_source":""},{"t":136.673,"note":67,"dur":0.105,"vel":0.709,"inst":"tom_v0_noise_perc_505","midi_source":""},{"t":136.673,"note":77,"dur":0.105,"vel":0.709,"inst":"tom_v0_noise_perc_505","midi_source":""},{"t":136.673,"note":91,"dur":0.105,"vel":0.709,"inst":"tom_v0_noise_perc_505","midi_source":""},{"t":136.673,"note":95,"dur":0.105,"vel":0.709,"inst":"tom_v0_noise_perc_505","midi_source":""},{"t":136.778,"note":67,"dur":0.105,"vel":0.709,"inst":"tom_v0_noise_perc_505","midi_source":""},{"t":136.778,"note":77,"dur":0.105,"vel":0.709,"inst":"tom_v0_noise_perc_505","midi_source":""},{"t":136.778,"note":83,"dur":0.105,"vel":0.709,"inst":"tom_v0_noise_perc_505","midi_source":""},{"t":136.778,"note":91,"dur":0.105,"vel":0.709,"inst":"tom_v0_noise_perc_505","midi_source":""},{"t":136.883,"note":67,"dur":0.105,"vel":0.709,"inst":"tom_v0_noise_perc_505","midi_source":""},{"t":136.883,"note":74,"dur":0.105,"vel":0.709,"inst":"tom_v0_bowed_187","midi_source":""},{"t":136.883,"note":84,"dur":0.105,"vel":0.709,"inst":"tom_v0_bowed_187","midi_source":""},{"t":136.883,"note":91,"dur":0.105,"vel":0.709,"inst":"tom_v0_noise_perc_505","midi_source":""},{"t":136.988,"note":71,"dur":0.105,"vel":0.709,"inst":"tom_v0_noise_perc_505","midi_source":""},{"t":136.988,"note":79,"dur":0.21,"vel":0.709,"inst":"tom_v0_noise_perc_505","midi_source":""},{"t":136.988,"note":86,"dur":0.105,"vel":0.709,"inst":"tom_v0_bowed_187","midi_source":""},{"t":136.988,"note":89,"dur":0.105,"vel":0.709,"inst":"tom_v0_noise_perc_505","midi_source":""},{"t":137.093,"note":72,"dur":0.105,"vel":0.709,"inst":"tom_v0_bowed_187","midi_source":""},{"t":137.093,"note":86,"dur":0.105,"vel":0.709,"inst":"tom_v0_bowed_187","midi_source":""},{"t":137.093,"note":89,"dur":0.105,"vel":0.709,"inst":"tom_v0_noise_perc_505","midi_source":""},{"t":137.198,"note":65,"dur":0.105,"vel":0.709,"inst":"tom_v0_noise_perc_505","midi_source":""},{"t":137.198,"note":81,"dur":0.105,"vel":0.709,"inst":"tom_v0_noise_perc_505","midi_source":""},{"t":137.198,"note":84,"dur":0.105,"vel":0.709,"inst":"tom_v0_bowed_187","midi_source":""},{"t":137.198,"note":86,"dur":0.105,"vel":0.709,"inst":"tom_v0_bowed_187","midi_source":""},{"t":137.303,"note":67,"dur":0.21,"vel":0.709,"inst":"tom_v0_noise_perc_505","midi_source":""},{"t":137.303,"note":74,"dur":0.21,"vel":0.709,"inst":"tom_v0_bowed_187","midi_source":""},{"t":137.303,"note":83,"dur":0.21,"vel":0.709,"inst":"tom_v0_noise_perc_505","midi_source":""},{"t":137.303,"note":86,"dur":0.052,"vel":0.709,"inst":"tom_v0_bowed_187","midi_source":""},{"t":137.356,"note":89,"dur":0.052,"vel":0.709,"inst":"tom_v0_noise_perc_505","midi_source":""},{"t":137.408,"note":91,"dur":0.052,"vel":0.709,"inst":"tom_v0_noise_perc_505","midi_source":""},{"t":137.461,"note":89,"dur":0.052,"vel":0.709,"inst":"tom_v0_noise_perc_505","midi_source":""},{"t":137.513,"note":91,"dur":0.052,"vel":0.709,"inst":"tom_v0_noise_perc_505","midi_source":""},{"t":137.566,"note":89,"dur":0.052,"vel":0.709,"inst":"tom_v0_noise_perc_505","midi_source":""},{"t":137.618,"note":86,"dur":0.052,"vel":0.709,"inst":"tom_v0_bowed_187","midi_source":""},{"t":137.618,"note":91,"dur":0.052,"vel":0.709,"inst":"tom_v0_noise_perc_505","midi_source":""},{"t":137.671,"note":84,"dur":0.052,"vel":0.709,"inst":"tom_v0_bowed_187","midi_source":""},{"t":137.671,"note":86,"dur":0.052,"vel":0.709,"inst":"tom_v0_bowed_187","midi_source":""},{"t":137.723,"note":83,"dur":0.052,"vel":0.709,"inst":"tom_v0_noise_perc_505","midi_source":""},{"t":137.723,"note":86,"dur":0.105,"vel":0.709,"inst":"tom_v0_bowed_187","midi_source":""},{"t":137.776,"note":77,"dur":0.052,"vel":0.709,"inst":"tom_v0_noise_perc_505","midi_source":""},{"t":137.828,"note":79,"dur":0.052,"vel":0.709,"inst":"tom_v0_noise_perc_505","midi_source":""},{"t":137.881,"note":77,"dur":0.052,"vel":0.709,"inst":"tom_v0_noise_perc_505","midi_source":""},{"t":137.933,"note":79,"dur":0.052,"vel":0.709,"inst":"tom_v0_noise_perc_505","midi_source":""},{"t":137.986,"note":77,"dur":0.052,"vel":0.709,"inst":"tom_v0_noise_perc_505","midi_source":""},{"t":138.038,"note":74,"dur":0.052,"vel":0.709,"inst":"tom_v0_bowed_187","midi_source":""},{"t":138.038,"note":79,"dur":0.052,"vel":0.709,"inst":"tom_v0_noise_perc_505","midi_source":""},{"t":138.091,"note":72,"dur":0.052,"vel":0.709,"inst":"tom_v0_bowed_187","midi_source":""},{"t":138.091,"note":74,"dur":0.052,"vel":0.709,"inst":"tom_v0_bowed_187","midi_source":""},{"t":138.143,"note":71,"dur":0.052,"vel":0.709,"inst":"tom_v0_noise_perc_505","midi_source":""},{"t":138.143,"note":74,"dur":0.105,"vel":0.709,"inst":"tom_v0_bowed_187","midi_source":""},{"t":138.196,"note":65,"dur":0.052,"vel":0.709,"inst":"tom_v0_noise_perc_505","midi_source":""},{"t":138.248,"note":67,"dur":0.052,"vel":0.709,"inst":"tom_v0_noise_perc_505","midi_source":""},{"t":138.301,"note":65,"dur":0.052,"vel":0.709,"inst":"tom_v0_noise_perc_505","midi_source":""},{"t":138.353,"note":67,"dur":0.052,"vel":0.709,"inst":"tom_v0_noise_perc_505","midi_source":""},{"t":138.406,"note":65,"dur":0.052,"vel":0.709,"inst":"tom_v0_noise_perc_505","midi_source":""},{"t":138.458,"note":62,"dur":0.052,"vel":0.709,"inst":"tom_v0_bowed_187","midi_source":""},{"t":138.458,"note":67,"dur":0.052,"vel":0.709,"inst":"tom_v0_noise_perc_505","midi_source":""},{"t":138.511,"note":60,"dur":0.052,"vel":0.709,"inst":"tom_v0_bowed_187","midi_source":""},{"t":138.511,"note":62,"dur":0.052,"vel":0.709,"inst":"tom_v0_bowed_187","midi_source":""},{"t":138.563,"note":59,"dur":0.052,"vel":0.709,"inst":"tom_v0_noise_perc_505","midi_source":""},{"t":138.563,"note":62,"dur":0.105,"vel":0.709,"inst":"tom_v0_bowed_187","midi_source":""},{"t":138.616,"note":53,"dur":0.052,"vel":0.709,"inst":"tom_v0_noise_perc_505","midi_source":""},{"t":138.668,"note":55,"dur":0.052,"vel":0.709,"inst":"tom_v0_noise_perc_505","midi_source":""},{"t":138.72,"note":53,"dur":0.052,"vel":0.709,"inst":"tom_v0_noise_perc_505","midi_source":""},{"t":138.773,"note":55,"dur":0.052,"vel":0.709,"inst":"tom_v0_noise_perc_505","midi_source":""},{"t":138.825,"note":53,"dur":0.052,"vel":0.709,"inst":"tom_v0_noise_perc_505","midi_source":""},{"t":138.878,"note":55,"dur":0.052,"vel":0.709,"inst":"tom_v0_noise_perc_505","midi_source":""},{"t":138.93,"note":50,"dur":0.052,"vel":0.709,"inst":"tom_v0_bowed_187","midi_source":""},{"t":138.983,"note":50,"dur":0.315,"vel":0.709,"inst":"tom_v0_bowed_187","midi_source":""},{"t":138.983,"note":57,"dur":0.315,"vel":0.709,"inst":"tom_v0_noise_perc_505","midi_source":""},{"t":138.983,"note":69,"dur":0.315,"vel":0.709,"inst":"tom_v0_noise_perc_505","midi_source":""},{"t":138.983,"note":74,"dur":0.315,"vel":0.709,"inst":"tom_v0_bowed_187","midi_source":""},{"t":138.983,"note":74,"dur":0.315,"vel":0.709,"inst":"tom_v0_bowed_187","midi_source":""},{"t":138.983,"note":81,"dur":0.315,"vel":0.709,"inst":"tom_v0_noise_perc_505","midi_source":""},{"t":138.983,"note":81,"dur":0.315,"vel":0.709,"inst":"tom_v0_noise_perc_505","midi_source":""},{"t":138.983,"note":89,"dur":0.315,"vel":0.709,"inst":"tom_v0_noise_perc_505","midi_source":""},{"t":138.983,"note":91,"dur":0.315,"vel":0.709,"inst":"tom_v0_noise_perc_505","midi_source":""},{"t":139.298,"note":62,"dur":0.105,"vel":0.709,"inst":"tom_v0_bowed_187","midi_source":""},{"t":139.298,"note":65,"dur":0.105,"vel":0.709,"inst":"tom_v0_noise_perc_505","midi_source":""},{"t":139.298,"note":67,"dur":0.105,"vel":0.709,"inst":"tom_v0_noise_perc_505","midi_source":""},{"t":139.298,"note":69,"dur":0.105,"vel":0.709,"inst":"tom_v0_noise_perc_505","midi_source":""},{"t":139.403,"note":50,"dur":0.105,"vel":0.709,"inst":"tom_v0_bowed_187","midi_source":""},{"t":139.403,"note":62,"dur":0.105,"vel":0.709,"inst":"tom_v0_bowed_187","midi_source":""},{"t":139.403,"note":67,"dur":0.105,"vel":0.709,"inst":"tom_v0_noise_perc_505","midi_source":""},{"t":139.403,"note":69,"dur":0.105,"vel":0.709,"inst":"tom_v0_noise_perc_505","midi_source":""},{"t":139.508,"note":50,"dur":0.105,"vel":0.709,"inst":"tom_v0_bowed_187","midi_source":""},{"t":139.508,"note":62,"dur":0.105,"vel":0.709,"inst":"tom_v0_bowed_187","midi_source":""},{"t":139.508,"note":67,"dur":0.105,"vel":0.709,"inst":"tom_v0_noise_perc_505","midi_source":""},{"t":139.508,"note":69,"dur":0.105,"vel":0.709,"inst":"tom_v0_noise_perc_505","midi_source":""},{"t":139.718,"note":60,"dur":0.105,"vel":0.709,"inst":"tom_v0_bowed_187","midi_source":""},{"t":139.718,"note":62,"dur":0.105,"vel":0.709,"inst":"tom_v0_bowed_187","midi_source":""},{"t":139.718,"note":67,"dur":0.105,"vel":0.709,"inst":"tom_v0_noise_perc_505","midi_source":""},{"t":139.718,"note":72,"dur":0.105,"vel":0.709,"inst":"tom_v0_bowed_187","midi_source":""},{"t":139.823,"note":55,"dur":0.21,"vel":0.709,"inst":"tom_v0_noise_perc_505","midi_source":""},{"t":139.823,"note":62,"dur":0.21,"vel":0.709,"inst":"tom_v0_bowed_187","midi_source":""},{"t":139.823,"note":69,"dur":0.105,"vel":0.709,"inst":"tom_v0_noise_perc_505","midi_source":""},{"t":139.823,"note":72,"dur":0.105,"vel":0.709,"inst":"tom_v0_bowed_187","midi_source":""},{"t":139.928,"note":69,"dur":0.105,"vel":0.709,"inst":"tom_v0_noise_perc_505","midi_source":""},{"t":139.928,"note":62,"dur":0.105,"vel":0.709,"inst":"tom_v0_bowed_187","midi_source":""},{"t":140.138,"note":67,"dur":0.105,"vel":0.709,"inst":"tom_v0_noise_perc_505","midi_source":""},{"t":140.138,"note":69,"dur":0.105,"vel":0.709,"inst":"tom_v0_noise_perc_505","midi_source":""},{"t":140.138,"note":62,"dur":0.105,"vel":0.709,"inst":"tom_v0_bowed_187","midi_source":""},{"t":140.138,"note":74,"dur":0.21,"vel":0.709,"inst":"tom_v0_bowed_187","midi_source":""},{"t":140.243,"note":67,"dur":0.105,"vel":0.709,"inst":"tom_v0_noise_perc_505","midi_source":""},{"t":140.243,"note":67,"dur":0.105,"vel":0.709,"inst":"tom_v0_noise_perc_505","midi_source":""},{"t":140.243,"note":72,"dur":0.21,"vel":0.709,"inst":"tom_v0_bowed_187","midi_source":""},{"t":140.348,"note":67,"dur":0.105,"vel":0.709,"inst":"tom_v0_noise_perc_505","midi_source":""},{"t":140.348,"note":69,"dur":0.105,"vel":0.709,"inst":"tom_v0_noise_perc_505","midi_source":""},{"t":140.348,"note":76,"dur":0.105,"vel":0.709,"inst":"tom_v0_bowed_187","midi_source":""},{"t":140.453,"note":65,"dur":0.105,"vel":0.709,"inst":"tom_v0_noise_perc_505","midi_source":""},{"t":140.453,"note":67,"dur":0.105,"vel":0.709,"inst":"tom_v0_noise_perc_505","midi_source":""},{"t":140.453,"note":74,"dur":0.105,"vel":0.709,"inst":"tom_v0_bowed_187","midi_source":""},{"t":140.453,"note":77,"dur":0.105,"vel":0.709,"inst":"tom_v0_noise_perc_505","midi_source":""},{"t":140.558,"note":62,"dur":0.105,"vel":0.709,"inst":"tom_v0_bowed_187","midi_source":""},{"t":140.558,"note":67,"dur":0.105,"vel":0.709,"inst":"tom_v0_noise_perc_505","midi_source":""},{"t":140.558,"note":74,"dur":0.105,"vel":0.709,"inst":"tom_v0_bowed_187","midi_source":""},{"t":140.558,"note":79,"dur":0.105,"vel":0.709,"inst":"tom_v0_noise_perc_505","midi_source":""},{"t":140.663,"note":62,"dur":0.21,"vel":0.709,"inst":"tom_v0_bowed_187","midi_source":""},{"t":140.663,"note":65,"dur":0.21,"vel":0.709,"inst":"tom_v0_noise_perc_505","midi_source":""},{"t":140.663,"note":69,"dur":0.21,"vel":0.709,"inst":"tom_v0_noise_perc_505","midi_source":""},{"t":140.663,"note":81,"dur":0.105,"vel":0.709,"inst":"tom_v0_noise_perc_505","midi_source":""},{"t":140.768,"note":79,"dur":0.105,"vel":0.709,"inst":"tom_v0_noise_perc_505","midi_source":""},{"t":140.978,"note":62,"dur":0.105,"vel":0.709,"inst":"tom_v0_bowed_187","midi_source":""},{"t":140.978,"note":69,"dur":0.105,"vel":0.709,"inst":"tom_v0_noise_perc_505","midi_source":""},{"t":140.978,"note":77,"dur":0.105,"vel":0.709,"inst":"tom_v0_noise_perc_505","midi_source":""},{"t":140.978,"note":79,"dur":0.105,"vel":0.709,"inst":"tom_v0_noise_perc_505","midi_source":""},{"t":141.082,"note":62,"dur":0.21,"vel":0.709,"inst":"tom_v0_bowed_187","midi_source":""},{"t":141.082,"note":74,"dur":0.105,"vel":0.709,"inst":"tom_v0_bowed_187","midi_source":""},{"t":141.082,"note":74,"dur":0.525,"vel":0.709,"inst":"tom_v0_bowed_187","midi_source":""},{"t":141.082,"note":79,"dur":0.105,"vel":0.709,"inst":"tom_v0_noise_perc_505","midi_source":""},{"t":141.187,"note":77,"dur":0.21,"vel":0.709,"inst":"tom_v0_noise_perc_505","midi_source":""},{"t":141.187,"note":79,"dur":0.21,"vel":0.709,"inst":"tom_v0_noise_perc_505","midi_source":""},{"t":141.292,"note":62,"dur":0.21,"vel":0.709,"inst":"tom_v0_bowed_187","midi_source":""},{"t":141.397,"note":67,"dur":0.105,"vel":0.709,"inst":"tom_v0_noise_perc_505","midi_source":""},{"t":141.397,"note":74,"dur":0.105,"vel":0.709,"inst":"tom_v0_bowed_187","midi_source":""},{"t":141.397,"note":91,"dur":0.105,"vel":0.709,"inst":"tom_v0_noise_perc_505","midi_source":""},{"t":141.397,"note":96,"dur":0.105,"vel":0.709,"inst":"tom_v0_bowed_187","midi_source":""},{"t":141.502,"note":67,"dur":0.105,"vel":0.709,"inst":"tom_v0_noise_perc_505","midi_source":""},{"t":141.502,"note":74,"dur":0.157,"vel":0.709,"inst":"tom_v0_bowed_187","midi_source":""},{"t":141.502,"note":89,"dur":0.157,"vel":0.709,"inst":"tom_v0_noise_perc_505","midi_source":""},{"t":141.502,"note":96,"dur":0.21,"vel":0.709,"inst":"tom_v0_bowed_187","midi_source":""},{"t":141.607,"note":67,"dur":0.105,"vel":0.709,"inst":"tom_v0_noise_perc_505","midi_source":""},{"t":141.66,"note":74,"dur":0.052,"vel":0.709,"inst":"tom_v0_bowed_187","midi_source":""},{"t":141.66,"note":91,"dur":0.052,"vel":0.709,"inst":"tom_v0_noise_perc_505","midi_source":""},{"t":141.712,"note":67,"dur":0.105,"vel":0.709,"inst":"tom_v0_noise_perc_505","midi_source":""},{"t":141.712,"note":77,"dur":0.105,"vel":0.709,"inst":"tom_v0_noise_perc_505","midi_source":""},{"t":141.712,"note":91,"dur":0.105,"vel":0.709,"inst":"tom_v0_noise_perc_505","midi_source":""},{"t":141.712,"note":95,"dur":0.105,"vel":0.709,"inst":"tom_v0_noise_perc_505","midi_source":""},{"t":141.817,"note":67,"dur":0.105,"vel":0.709,"inst":"tom_v0_noise_perc_505","midi_source":""},{"t":141.817,"note":77,"dur":0.105,"vel":0.709,"inst":"tom_v0_noise_perc_505","midi_source":""},{"t":141.817,"note":83,"dur":0.105,"vel":0.709,"inst":"tom_v0_noise_perc_505","midi_source":""},{"t":141.817,"note":91,"dur":0.105,"vel":0.709,"inst":"tom_v0_noise_perc_505","midi_source":""},{"t":141.922,"note":67,"dur":0.105,"vel":0.709,"inst":"tom_v0_noise_perc_505","midi_source":""},{"t":141.922,"note":74,"dur":0.105,"vel":0.709,"inst":"tom_v0_bowed_187","midi_source":""},{"t":141.922,"note":84,"dur":0.105,"vel":0.709,"inst":"tom_v0_bowed_187","midi_source":""},{"t":141.922,"note":91,"dur":0.105,"vel":0.709,"inst":"tom_v0_noise_perc_505","midi_source":""},{"t":142.027,"note":71,"dur":0.105,"vel":0.709,"inst":"tom_v0_noise_perc_505","midi_source":""},{"t":142.027,"note":79,"dur":0.21,"vel":0.709,"inst":"tom_v0_noise_perc_505","midi_source":""},{"t":142.027,"note":86,"dur":0.105,"vel":0.709,"inst":"tom_v0_bowed_187","midi_source":""},{"t":142.027,"note":89,"dur":0.105,"vel":0.709,"inst":"tom_v0_noise_perc_505","midi_source":""},{"t":142.132,"note":72,"dur":0.105,"vel":0.709,"inst":"tom_v0_bowed_187","midi_source":""},{"t":142.132,"note":86,"dur":0.105,"vel":0.709,"inst":"tom_v0_bowed_187","midi_source":""},{"t":142.132,"note":89,"dur":0.105,"vel":0.709,"inst":"tom_v0_noise_perc_505","midi_source":""},{"t":142.237,"note":65,"dur":0.105,"vel":0.709,"inst":"tom_v0_noise_perc_505","midi_source":""},{"t":142.237,"note":81,"dur":0.105,"vel":0.709,"inst":"tom_v0_noise_perc_505","midi_source":""},{"t":142.237,"note":84,"dur":0.105,"vel":0.709,"inst":"tom_v0_bowed_187","midi_source":""},{"t":142.237,"note":86,"dur":0.105,"vel":0.709,"inst":"tom_v0_bowed_187","midi_source":""},{"t":142.342,"note":67,"dur":0.21,"vel":0.709,"inst":"tom_v0_noise_perc_505","midi_source":""},{"t":142.342,"note":74,"dur":0.21,"vel":0.709,"inst":"tom_v0_bowed_187","midi_source":""},{"t":142.342,"note":83,"dur":0.21,"vel":0.709,"inst":"tom_v0_noise_perc_505","midi_source":""},{"t":142.342,"note":86,"dur":0.052,"vel":0.709,"inst":"tom_v0_bowed_187","midi_source":""},{"t":142.395,"note":89,"dur":0.052,"vel":0.709,"inst":"tom_v0_noise_perc_505","midi_source":""},{"t":142.447,"note":91,"dur":0.052,"vel":0.709,"inst":"tom_v0_noise_perc_505","midi_source":""},{"t":142.5,"note":89,"dur":0.052,"vel":0.709,"inst":"tom_v0_noise_perc_505","midi_source":""},{"t":142.552,"note":91,"dur":0.052,"vel":0.709,"inst":"tom_v0_noise_perc_505","midi_source":""},{"t":142.605,"note":89,"dur":0.052,"vel":0.709,"inst":"tom_v0_noise_perc_505","midi_source":""},{"t":142.657,"note":86,"dur":0.052,"vel":0.709,"inst":"tom_v0_bowed_187","midi_source":""},{"t":142.657,"note":91,"dur":0.052,"vel":0.709,"inst":"tom_v0_noise_perc_505","midi_source":""},{"t":142.71,"note":84,"dur":0.052,"vel":0.709,"inst":"tom_v0_bowed_187","midi_source":""},{"t":142.71,"note":86,"dur":0.052,"vel":0.709,"inst":"tom_v0_bowed_187","midi_source":""},{"t":142.762,"note":83,"dur":0.052,"vel":0.709,"inst":"tom_v0_noise_perc_505","midi_source":""},{"t":142.762,"note":86,"dur":0.105,"vel":0.709,"inst":"tom_v0_bowed_187","midi_source":""},{"t":142.815,"note":77,"dur":0.052,"vel":0.709,"inst":"tom_v0_noise_perc_505","midi_source":""},{"t":142.867,"note":79,"dur":0.052,"vel":0.709,"inst":"tom_v0_noise_perc_505","midi_source":""},{"t":142.92,"note":77,"dur":0.052,"vel":0.709,"inst":"tom_v0_noise_perc_505","midi_source":""},{"t":142.972,"note":79,"dur":0.052,"vel":0.709,"inst":"tom_v0_noise_perc_505","midi_source":""},{"t":143.025,"note":77,"dur":0.052,"vel":0.709,"inst":"tom_v0_noise_perc_505","midi_source":""},{"t":143.077,"note":74,"dur":0.052,"vel":0.709,"inst":"tom_v0_bowed_187","midi_source":""},{"t":143.077,"note":79,"dur":0.052,"vel":0.709,"inst":"tom_v0_noise_perc_505","midi_source":""},{"t":143.13,"note":72,"dur":0.052,"vel":0.709,"inst":"tom_v0_bowed_187","midi_source":""},{"t":143.13,"note":74,"dur":0.052,"vel":0.709,"inst":"tom_v0_bowed_187","midi_source":""},{"t":143.182,"note":71,"dur":0.052,"vel":0.709,"inst":"tom_v0_noise_perc_505","midi_source":""},{"t":143.182,"note":74,"dur":0.105,"vel":0.709,"inst":"tom_v0_bowed_187","midi_source":""},{"t":143.235,"note":65,"dur":0.052,"vel":0.709,"inst":"tom_v0_noise_perc_505","midi_source":""},{"t":143.287,"note":67,"dur":0.052,"vel":0.709,"inst":"tom_v0_noise_perc_505","midi_source":""},{"t":143.34,"note":65,"dur":0.052,"vel":0.709,"inst":"tom_v0_noise_perc_505","midi_source":""},{"t":143.392,"note":67,"dur":0.052,"vel":0.709,"inst":"tom_v0_noise_perc_505","midi_source":""},{"t":143.445,"note":65,"dur":0.052,"vel":0.709,"inst":"tom_v0_noise_perc_505","midi_source":""},{"t":143.497,"note":62,"dur":0.052,"vel":0.709,"inst":"tom_v0_bowed_187","midi_source":""},{"t":143.497,"note":67,"dur":0.052,"vel":0.709,"inst":"tom_v0_noise_perc_505","midi_source":""},{"t":143.549,"note":60,"dur":0.052,"vel":0.709,"inst":"tom_v0_bowed_187","midi_source":""},{"t":143.549,"note":62,"dur":0.052,"vel":0.709,"inst":"tom_v0_bowed_187","midi_source":""},{"t":143.602,"note":59,"dur":0.052,"vel":0.709,"inst":"tom_v0_noise_perc_505","midi_source":""},{"t":143.602,"note":62,"dur":0.105,"vel":0.709,"inst":"tom_v0_bowed_187","midi_source":""},{"t":143.654,"note":53,"dur":0.052,"vel":0.709,"inst":"tom_v0_noise_perc_505","midi_source":""},{"t":143.707,"note":55,"dur":0.052,"vel":0.709,"inst":"tom_v0_noise_perc_505","midi_source":""},{"t":143.759,"note":53,"dur":0.052,"vel":0.709,"inst":"tom_v0_noise_perc_505","midi_source":""},{"t":143.812,"note":55,"dur":0.052,"vel":0.709,"inst":"tom_v0_noise_perc_505","midi_source":""},{"t":143.864,"note":53,"dur":0.052,"vel":0.709,"inst":"tom_v0_noise_perc_505","midi_source":""},{"t":143.917,"note":55,"dur":0.052,"vel":0.709,"inst":"tom_v0_noise_perc_505","midi_source":""},{"t":143.969,"note":50,"dur":0.052,"vel":0.709,"inst":"tom_v0_bowed_187","midi_source":""},{"t":144.022,"note":50,"dur":0.315,"vel":0.709,"inst":"tom_v0_bowed_187","midi_source":""},{"t":144.022,"note":57,"dur":0.315,"vel":0.709,"inst":"tom_v0_noise_perc_505","midi_source":""},{"t":144.022,"note":69,"dur":0.315,"vel":0.709,"inst":"tom_v0_noise_perc_505","midi_source":""},{"t":144.022,"note":74,"dur":0.315,"vel":0.709,"inst":"tom_v0_bowed_187","midi_source":""},{"t":144.022,"note":74,"dur":0.315,"vel":0.709,"inst":"tom_v0_bowed_187","midi_source":""},{"t":144.022,"note":81,"dur":0.315,"vel":0.709,"inst":"tom_v0_noise_perc_505","midi_source":""},{"t":144.022,"note":81,"dur":0.315,"vel":0.709,"inst":"tom_v0_noise_perc_505","midi_source":""},{"t":144.022,"note":89,"dur":0.315,"vel":0.709,"inst":"tom_v0_noise_perc_505","midi_source":""},{"t":144.022,"note":91,"dur":0.315,"vel":0.709,"inst":"tom_v0_noise_perc_505","midi_source":""},{"t":144.337,"note":62,"dur":0.105,"vel":0.709,"inst":"tom_v0_bowed_187","midi_source":""},{"t":144.337,"note":65,"dur":0.105,"vel":0.709,"inst":"tom_v0_noise_perc_505","midi_source":""},{"t":144.337,"note":67,"dur":0.105,"vel":0.709,"inst":"tom_v0_noise_perc_505","midi_source":""},{"t":144.337,"note":69,"dur":0.105,"vel":0.709,"inst":"tom_v0_noise_perc_505","midi_source":""},{"t":144.442,"note":50,"dur":0.105,"vel":0.709,"inst":"tom_v0_bowed_187","midi_source":""},{"t":144.442,"note":62,"dur":0.105,"vel":0.709,"inst":"tom_v0_bowed_187","midi_source":""},{"t":144.442,"note":67,"dur":0.105,"vel":0.709,"inst":"tom_v0_noise_perc_505","midi_source":""},{"t":144.442,"note":69,"dur":0.105,"vel":0.709,"inst":"tom_v0_noise_perc_505","midi_source":""},{"t":144.547,"note":50,"dur":0.105,"vel":0.709,"inst":"tom_v0_bowed_187","midi_source":""},{"t":144.547,"note":62,"dur":0.105,"vel":0.709,"inst":"tom_v0_bowed_187","midi_source":""},{"t":144.547,"note":67,"dur":0.105,"vel":0.709,"inst":"tom_v0_noise_perc_505","midi_source":""},{"t":144.547,"note":69,"dur":0.105,"vel":0.709,"inst":"tom_v0_noise_perc_505","midi_source":""},{"t":144.757,"note":60,"dur":0.105,"vel":0.709,"inst":"tom_v0_bowed_187","midi_source":""},{"t":144.757,"note":62,"dur":0.105,"vel":0.709,"inst":"tom_v0_bowed_187","midi_source":""},{"t":144.757,"note":67,"dur":0.105,"vel":0.709,"inst":"tom_v0_noise_perc_505","midi_source":""},{"t":144.757,"note":72,"dur":0.105,"vel":0.709,"inst":"tom_v0_bowed_187","midi_source":""},{"t":144.862,"note":55,"dur":0.21,"vel":0.709,"inst":"tom_v0_noise_perc_505","midi_source":""},{"t":144.862,"note":62,"dur":0.21,"vel":0.709,"inst":"tom_v0_bowed_187","midi_source":""},{"t":144.862,"note":69,"dur":0.105,"vel":0.709,"inst":"tom_v0_noise_perc_505","midi_source":""},{"t":144.862,"note":72,"dur":0.105,"vel":0.709,"inst":"tom_v0_bowed_187","midi_source":""},{"t":144.967,"note":69,"dur":0.105,"vel":0.709,"inst":"tom_v0_noise_perc_505","midi_source":""},{"t":144.967,"note":62,"dur":0.105,"vel":0.709,"inst":"tom_v0_bowed_187","midi_source":""},{"t":145.177,"note":67,"dur":0.105,"vel":0.709,"inst":"tom_v0_noise_perc_505","midi_source":""},{"t":145.177,"note":69,"dur":0.105,"vel":0.709,"inst":"tom_v0_noise_perc_505","midi_source":""},{"t":145.177,"note":62,"dur":0.105,"vel":0.709,"inst":"tom_v0_bowed_187","midi_source":""},{"t":145.177,"note":74,"dur":0.21,"vel":0.709,"inst":"tom_v0_bowed_187","midi_source":""},{"t":145.282,"note":67,"dur":0.105,"vel":0.709,"inst":"tom_v0_noise_perc_505","midi_source":""},{"t":145.282,"note":67,"dur":0.105,"vel":0.709,"inst":"tom_v0_noise_perc_505","midi_source":""},{"t":145.282,"note":72,"dur":0.21,"vel":0.709,"inst":"tom_v0_bowed_187","midi_source":""},{"t":145.387,"note":67,"dur":0.105,"vel":0.709,"inst":"tom_v0_noise_perc_505","midi_source":""},{"t":145.387,"note":69,"dur":0.105,"vel":0.709,"inst":"tom_v0_noise_perc_505","midi_source":""},{"t":145.387,"note":76,"dur":0.105,"vel":0.709,"inst":"tom_v0_bowed_187","midi_source":""},{"t":145.492,"note":65,"dur":0.105,"vel":0.709,"inst":"tom_v0_noise_perc_505","midi_source":""},{"t":145.492,"note":67,"dur":0.105,"vel":0.709,"inst":"tom_v0_noise_perc_505","midi_source":""},{"t":145.492,"note":74,"dur":0.105,"vel":0.709,"inst":"tom_v0_bowed_187","midi_source":""},{"t":145.492,"note":77,"dur":0.105,"vel":0.709,"inst":"tom_v0_noise_perc_505","midi_source":""},{"t":145.597,"note":62,"dur":0.105,"vel":0.709,"inst":"tom_v0_bowed_187","midi_source":""},{"t":145.597,"note":67,"dur":0.105,"vel":0.709,"inst":"tom_v0_noise_perc_505","midi_source":""},{"t":145.597,"note":74,"dur":0.105,"vel":0.709,"inst":"tom_v0_bowed_187","midi_source":""},{"t":145.597,"note":79,"dur":0.105,"vel":0.709,"inst":"tom_v0_noise_perc_505","midi_source":""},{"t":145.702,"note":62,"dur":0.21,"vel":0.709,"inst":"tom_v0_bowed_187","midi_source":""},{"t":145.702,"note":65,"dur":0.21,"vel":0.709,"inst":"tom_v0_noise_perc_505","midi_source":""},{"t":145.702,"note":69,"dur":0.21,"vel":0.709,"inst":"tom_v0_noise_perc_505","midi_source":""},{"t":145.702,"note":81,"dur":0.105,"vel":0.709,"inst":"tom_v0_noise_perc_505","midi_source":""},{"t":145.807,"note":79,"dur":0.105,"vel":0.709,"inst":"tom_v0_noise_perc_505","midi_source":""},{"t":146.016,"note":62,"dur":0.105,"vel":0.709,"inst":"tom_v0_bowed_187","midi_source":""},{"t":146.016,"note":69,"dur":0.105,"vel":0.709,"inst":"tom_v0_noise_perc_505","midi_source":""},{"t":146.016,"note":77,"dur":0.105,"vel":0.709,"inst":"tom_v0_noise_perc_505","midi_source":""},{"t":146.016,"note":79,"dur":0.105,"vel":0.709,"inst":"tom_v0_noise_perc_505","midi_source":""},{"t":146.121,"note":62,"dur":0.21,"vel":0.709,"inst":"tom_v0_bowed_187","midi_source":""},{"t":146.121,"note":74,"dur":0.105,"vel":0.709,"inst":"tom_v0_bowed_187","midi_source":""},{"t":146.121,"note":74,"dur":0.525,"vel":0.709,"inst":"tom_v0_bowed_187","midi_source":""},{"t":146.121,"note":79,"dur":0.105,"vel":0.709,"inst":"tom_v0_noise_perc_505","midi_source":""},{"t":146.226,"note":77,"dur":0.21,"vel":0.709,"inst":"tom_v0_noise_perc_505","midi_source":""},{"t":146.226,"note":79,"dur":0.21,"vel":0.709,"inst":"tom_v0_noise_perc_505","midi_source":""},{"t":146.331,"note":62,"dur":0.21,"vel":0.709,"inst":"tom_v0_bowed_187","midi_source":""},{"t":146.436,"note":67,"dur":0.105,"vel":0.709,"inst":"tom_v0_noise_perc_505","midi_source":""},{"t":146.436,"note":74,"dur":0.105,"vel":0.709,"inst":"tom_v0_bowed_187","midi_source":""},{"t":146.436,"note":91,"dur":0.105,"vel":0.709,"inst":"tom_v0_noise_perc_505","midi_source":""},{"t":146.436,"note":96,"dur":0.105,"vel":0.709,"inst":"tom_v0_bowed_187","midi_source":""},{"t":146.541,"note":67,"dur":0.105,"vel":0.709,"inst":"tom_v0_noise_perc_505","midi_source":""},{"t":146.541,"note":74,"dur":0.157,"vel":0.709,"inst":"tom_v0_bowed_187","midi_source":""},{"t":146.541,"note":89,"dur":0.157,"vel":0.709,"inst":"tom_v0_noise_perc_505","midi_source":""},{"t":146.541,"note":96,"dur":0.21,"vel":0.709,"inst":"tom_v0_bowed_187","midi_source":""},{"t":146.646,"note":67,"dur":0.105,"vel":0.709,"inst":"tom_v0_noise_perc_505","midi_source":""},{"t":146.699,"note":74,"dur":0.052,"vel":0.709,"inst":"tom_v0_bowed_187","midi_source":""},{"t":146.699,"note":91,"dur":0.052,"vel":0.709,"inst":"tom_v0_noise_perc_505","midi_source":""},{"t":146.751,"note":67,"dur":0.105,"vel":0.709,"inst":"tom_v0_noise_perc_505","midi_source":""},{"t":146.751,"note":77,"dur":0.105,"vel":0.709,"inst":"tom_v0_noise_perc_505","midi_source":""},{"t":146.751,"note":91,"dur":0.105,"vel":0.709,"inst":"tom_v0_noise_perc_505","midi_source":""},{"t":146.751,"note":95,"dur":0.105,"vel":0.709,"inst":"tom_v0_noise_perc_505","midi_source":""},{"t":146.856,"note":67,"dur":0.105,"vel":0.709,"inst":"tom_v0_noise_perc_505","midi_source":""},{"t":146.856,"note":77,"dur":0.105,"vel":0.709,"inst":"tom_v0_noise_perc_505","midi_source":""},{"t":146.856,"note":83,"dur":0.105,"vel":0.709,"inst":"tom_v0_noise_perc_505","midi_source":""},{"t":146.856,"note":91,"dur":0.105,"vel":0.709,"inst":"tom_v0_noise_perc_505","midi_source":""},{"t":146.961,"note":67,"dur":0.105,"vel":0.709,"inst":"tom_v0_noise_perc_505","midi_source":""},{"t":146.961,"note":74,"dur":0.105,"vel":0.709,"inst":"tom_v0_bowed_187","midi_source":""},{"t":146.961,"note":84,"dur":0.105,"vel":0.709,"inst":"tom_v0_bowed_187","midi_source":""},{"t":146.961,"note":91,"dur":0.105,"vel":0.709,"inst":"tom_v0_noise_perc_505","midi_source":""},{"t":147.066,"note":71,"dur":0.105,"vel":0.709,"inst":"tom_v0_noise_perc_505","midi_source":""},{"t":147.066,"note":79,"dur":0.21,"vel":0.709,"inst":"tom_v0_noise_perc_505","midi_source":""},{"t":147.066,"note":86,"dur":0.105,"vel":0.709,"inst":"tom_v0_bowed_187","midi_source":""},{"t":147.066,"note":89,"dur":0.105,"vel":0.709,"inst":"tom_v0_noise_perc_505","midi_source":""},{"t":147.171,"note":72,"dur":0.105,"vel":0.709,"inst":"tom_v0_bowed_187","midi_source":""},{"t":147.171,"note":86,"dur":0.105,"vel":0.709,"inst":"tom_v0_bowed_187","midi_source":""},{"t":147.171,"note":89,"dur":0.105,"vel":0.709,"inst":"tom_v0_noise_perc_505","midi_source":""},{"t":147.276,"note":65,"dur":0.105,"vel":0.709,"inst":"tom_v0_noise_perc_505","midi_source":""},{"t":147.276,"note":81,"dur":0.105,"vel":0.709,"inst":"tom_v0_noise_perc_505","midi_source":""},{"t":147.276,"note":84,"dur":0.105,"vel":0.709,"inst":"tom_v0_bowed_187","midi_source":""},{"t":147.276,"note":86,"dur":0.105,"vel":0.709,"inst":"tom_v0_bowed_187","midi_source":""},{"t":147.381,"note":67,"dur":0.21,"vel":0.709,"inst":"tom_v0_noise_perc_505","midi_source":""},{"t":147.381,"note":74,"dur":0.21,"vel":0.709,"inst":"tom_v0_bowed_187","midi_source":""},{"t":147.381,"note":83,"dur":0.21,"vel":0.709,"inst":"tom_v0_noise_perc_505","midi_source":""},{"t":147.381,"note":86,"dur":0.052,"vel":0.709,"inst":"tom_v0_bowed_187","midi_source":""},{"t":147.434,"note":89,"dur":0.052,"vel":0.709,"inst":"tom_v0_noise_perc_505","midi_source":""},{"t":147.486,"note":91,"dur":0.052,"vel":0.709,"inst":"tom_v0_noise_perc_505","midi_source":""},{"t":147.539,"note":89,"dur":0.052,"vel":0.709,"inst":"tom_v0_noise_perc_505","midi_source":""},{"t":147.591,"note":91,"dur":0.052,"vel":0.709,"inst":"tom_v0_noise_perc_505","midi_source":""},{"t":147.644,"note":89,"dur":0.052,"vel":0.709,"inst":"tom_v0_noise_perc_505","midi_source":""},{"t":147.696,"note":86,"dur":0.052,"vel":0.709,"inst":"tom_v0_bowed_187","midi_source":""},{"t":147.696,"note":91,"dur":0.052,"vel":0.709,"inst":"tom_v0_noise_perc_505","midi_source":""},{"t":147.749,"note":84,"dur":0.052,"vel":0.709,"inst":"tom_v0_bowed_187","midi_source":""},{"t":147.749,"note":86,"dur":0.052,"vel":0.709,"inst":"tom_v0_bowed_187","midi_source":""},{"t":147.801,"note":83,"dur":0.052,"vel":0.709,"inst":"tom_v0_noise_perc_505","midi_source":""},{"t":147.801,"note":86,"dur":0.105,"vel":0.709,"inst":"tom_v0_bowed_187","midi_source":""},{"t":147.854,"note":77,"dur":0.052,"vel":0.709,"inst":"tom_v0_noise_perc_505","midi_source":""},{"t":147.906,"note":79,"dur":0.052,"vel":0.709,"inst":"tom_v0_noise_perc_505","midi_source":""},{"t":147.959,"note":77,"dur":0.052,"vel":0.709,"inst":"tom_v0_noise_perc_505","midi_source":""},{"t":148.011,"note":79,"dur":0.052,"vel":0.709,"inst":"tom_v0_noise_perc_505","midi_source":""},{"t":148.064,"note":77,"dur":0.052,"vel":0.709,"inst":"tom_v0_noise_perc_505","midi_source":""},{"t":148.116,"note":74,"dur":0.052,"vel":0.709,"inst":"tom_v0_bowed_187","midi_source":""},{"t":148.116,"note":79,"dur":0.052,"vel":0.709,"inst":"tom_v0_noise_perc_505","midi_source":""},{"t":148.169,"note":72,"dur":0.052,"vel":0.709,"inst":"tom_v0_bowed_187","midi_source":""},{"t":148.169,"note":74,"dur":0.052,"vel":0.709,"inst":"tom_v0_bowed_187","midi_source":""},{"t":148.221,"note":71,"dur":0.052,"vel":0.709,"inst":"tom_v0_noise_perc_505","midi_source":""},{"t":148.221,"note":74,"dur":0.105,"vel":0.709,"inst":"tom_v0_bowed_187","midi_source":""},{"t":148.274,"note":65,"dur":0.052,"vel":0.709,"inst":"tom_v0_noise_perc_505","midi_source":""},{"t":148.326,"note":67,"dur":0.052,"vel":0.709,"inst":"tom_v0_noise_perc_505","midi_source":""},{"t":148.378,"note":65,"dur":0.052,"vel":0.709,"inst":"tom_v0_noise_perc_505","midi_source":""},{"t":148.431,"note":67,"dur":0.052,"vel":0.709,"inst":"tom_v0_noise_perc_505","midi_source":""},{"t":148.483,"note":65,"dur":0.052,"vel":0.709,"inst":"tom_v0_noise_perc_505","midi_source":""},{"t":148.536,"note":62,"dur":0.052,"vel":0.709,"inst":"tom_v0_bowed_187","midi_source":""},{"t":148.536,"note":67,"dur":0.052,"vel":0.709,"inst":"tom_v0_noise_perc_505","midi_source":""},{"t":148.588,"note":60,"dur":0.052,"vel":0.709,"inst":"tom_v0_bowed_187","midi_source":""},{"t":148.588,"note":62,"dur":0.052,"vel":0.709,"inst":"tom_v0_bowed_187","midi_source":""},{"t":148.641,"note":59,"dur":0.052,"vel":0.709,"inst":"tom_v0_noise_perc_505","midi_source":""},{"t":148.641,"note":62,"dur":0.105,"vel":0.709,"inst":"tom_v0_bowed_187","midi_source":""},{"t":148.693,"note":53,"dur":0.052,"vel":0.709,"inst":"tom_v0_noise_perc_505","midi_source":""},{"t":148.746,"note":55,"dur":0.052,"vel":0.709,"inst":"tom_v0_noise_perc_505","midi_source":""},{"t":148.798,"note":53,"dur":0.052,"vel":0.709,"inst":"tom_v0_noise_perc_505","midi_source":""},{"t":148.851,"note":55,"dur":0.052,"vel":0.709,"inst":"tom_v0_noise_perc_505","midi_source":""},{"t":148.903,"note":53,"dur":0.052,"vel":0.709,"inst":"tom_v0_noise_perc_505","midi_source":""},{"t":148.956,"note":55,"dur":0.052,"vel":0.709,"inst":"tom_v0_noise_perc_505","midi_source":""},{"t":149.008,"note":50,"dur":0.052,"vel":0.709,"inst":"tom_v0_bowed_187","midi_source":""},{"t":149.061,"note":50,"dur":0.315,"vel":0.709,"inst":"tom_v0_bowed_187","midi_source":""},{"t":149.061,"note":57,"dur":0.315,"vel":0.709,"inst":"tom_v0_noise_perc_505","midi_source":""},{"t":149.061,"note":69,"dur":0.315,"vel":0.709,"inst":"tom_v0_noise_perc_505","midi_source":""},{"t":149.061,"note":74,"dur":0.315,"vel":0.709,"inst":"tom_v0_bowed_187","midi_source":""},{"t":149.061,"note":74,"dur":0.315,"vel":0.709,"inst":"tom_v0_bowed_187","midi_source":""},{"t":149.061,"note":81,"dur":0.315,"vel":0.709,"inst":"tom_v0_noise_perc_505","midi_source":""},{"t":149.061,"note":81,"dur":0.315,"vel":0.709,"inst":"tom_v0_noise_perc_505","midi_source":""},{"t":149.061,"note":89,"dur":0.315,"vel":0.709,"inst":"tom_v0_noise_perc_505","midi_source":""},{"t":149.061,"note":91,"dur":0.315,"vel":0.709,"inst":"tom_v0_noise_perc_505","midi_source":""},{"t":149.376,"note":62,"dur":0.105,"vel":0.709,"inst":"tom_v0_bowed_187","midi_source":""},{"t":149.376,"note":65,"dur":0.105,"vel":0.709,"inst":"tom_v0_noise_perc_505","midi_source":""},{"t":149.376,"note":67,"dur":0.105,"vel":0.709,"inst":"tom_v0_noise_perc_505","midi_source":""},{"t":149.376,"note":69,"dur":0.105,"vel":0.709,"inst":"tom_v0_noise_perc_505","midi_source":""},{"t":149.481,"note":50,"dur":0.105,"vel":0.709,"inst":"tom_v0_bowed_187","midi_source":""},{"t":149.481,"note":62,"dur":0.105,"vel":0.709,"inst":"tom_v0_bowed_187","midi_source":""},{"t":149.481,"note":67,"dur":0.105,"vel":0.709,"inst":"tom_v0_noise_perc_505","midi_source":""},{"t":149.481,"note":69,"dur":0.105,"vel":0.709,"inst":"tom_v0_noise_perc_505","midi_source":""},{"t":149.586,"note":50,"dur":0.105,"vel":0.709,"inst":"tom_v0_bowed_187","midi_source":""},{"t":149.586,"note":62,"dur":0.105,"vel":0.709,"inst":"tom_v0_bowed_187","midi_source":""},{"t":149.586,"note":67,"dur":0.105,"vel":0.709,"inst":"tom_v0_noise_perc_505","midi_source":""},{"t":149.586,"note":69,"dur":0.105,"vel":0.709,"inst":"tom_v0_noise_perc_505","midi_source":""},{"t":149.796,"note":60,"dur":0.105,"vel":0.709,"inst":"tom_v0_bowed_187","midi_source":""},{"t":149.796,"note":62,"dur":0.105,"vel":0.709,"inst":"tom_v0_bowed_187","midi_source":""},{"t":149.796,"note":67,"dur":0.105,"vel":0.709,"inst":"tom_v0_noise_perc_505","midi_source":""},{"t":149.796,"note":72,"dur":0.105,"vel":0.709,"inst":"tom_v0_bowed_187","midi_source":""},{"t":149.901,"note":55,"dur":0.21,"vel":0.709,"inst":"tom_v0_noise_perc_505","midi_source":""},{"t":149.901,"note":62,"dur":0.21,"vel":0.709,"inst":"tom_v0_bowed_187","midi_source":""},{"t":149.901,"note":69,"dur":0.105,"vel":0.709,"inst":"tom_v0_noise_perc_505","midi_source":""},{"t":149.901,"note":72,"dur":0.105,"vel":0.709,"inst":"tom_v0_bowed_187","midi_source":""},{"t":150.006,"note":69,"dur":0.105,"vel":0.709,"inst":"tom_v0_noise_perc_505","midi_source":""},{"t":150.006,"note":62,"dur":0.105,"vel":0.709,"inst":"tom_v0_bowed_187","midi_source":""},{"t":150.216,"note":67,"dur":0.105,"vel":0.709,"inst":"tom_v0_noise_perc_505","midi_source":""},{"t":150.216,"note":69,"dur":0.105,"vel":0.709,"inst":"tom_v0_noise_perc_505","midi_source":""},{"t":150.216,"note":62,"dur":0.105,"vel":0.709,"inst":"tom_v0_bowed_187","midi_source":""},{"t":150.216,"note":74,"dur":0.21,"vel":0.709,"inst":"tom_v0_bowed_187","midi_source":""},{"t":150.321,"note":67,"dur":0.105,"vel":0.709,"inst":"tom_v0_noise_perc_505","midi_source":""},{"t":150.321,"note":67,"dur":0.105,"vel":0.709,"inst":"tom_v0_noise_perc_505","midi_source":""},{"t":150.321,"note":72,"dur":0.21,"vel":0.709,"inst":"tom_v0_bowed_187","midi_source":""},{"t":150.426,"note":67,"dur":0.105,"vel":0.709,"inst":"tom_v0_noise_perc_505","midi_source":""},{"t":150.426,"note":69,"dur":0.105,"vel":0.709,"inst":"tom_v0_noise_perc_505","midi_source":""},{"t":150.426,"note":76,"dur":0.105,"vel":0.709,"inst":"tom_v0_bowed_187","midi_source":""},{"t":150.531,"note":65,"dur":0.105,"vel":0.709,"inst":"tom_v0_noise_perc_505","midi_source":""},{"t":150.531,"note":67,"dur":0.105,"vel":0.709,"inst":"tom_v0_noise_perc_505","midi_source":""},{"t":150.531,"note":74,"dur":0.105,"vel":0.709,"inst":"tom_v0_bowed_187","midi_source":""},{"t":150.531,"note":77,"dur":0.105,"vel":0.709,"inst":"tom_v0_noise_perc_505","midi_source":""},{"t":150.636,"note":62,"dur":0.105,"vel":0.709,"inst":"tom_v0_bowed_187","midi_source":""},{"t":150.636,"note":67,"dur":0.105,"vel":0.709,"inst":"tom_v0_noise_perc_505","midi_source":""},{"t":150.636,"note":74,"dur":0.105,"vel":0.709,"inst":"tom_v0_bowed_187","midi_source":""},{"t":150.636,"note":79,"dur":0.105,"vel":0.709,"inst":"tom_v0_noise_perc_505","midi_source":""},{"t":150.74,"note":62,"dur":0.21,"vel":0.709,"inst":"tom_v0_bowed_187","midi_source":""},{"t":150.74,"note":65,"dur":0.21,"vel":0.709,"inst":"tom_v0_noise_perc_505","midi_source":""},{"t":150.74,"note":69,"dur":0.21,"vel":0.709,"inst":"tom_v0_noise_perc_505","midi_source":""},{"t":150.74,"note":81,"dur":0.105,"vel":0.709,"inst":"tom_v0_noise_perc_505","midi_source":""},{"t":150.845,"note":79,"dur":0.105,"vel":0.709,"inst":"tom_v0_noise_perc_505","midi_source":""},{"t":151.055,"note":62,"dur":0.105,"vel":0.709,"inst":"tom_v0_bowed_187","midi_source":""},{"t":151.055,"note":69,"dur":0.105,"vel":0.709,"inst":"tom_v0_noise_perc_505","midi_source":""},{"t":151.055,"note":77,"dur":0.105,"vel":0.709,"inst":"tom_v0_noise_perc_505","midi_source":""},{"t":151.055,"note":79,"dur":0.105,"vel":0.709,"inst":"tom_v0_noise_perc_505","midi_source":""},{"t":151.16,"note":62,"dur":0.21,"vel":0.709,"inst":"tom_v0_bowed_187","midi_source":""},{"t":151.16,"note":74,"dur":0.105,"vel":0.709,"inst":"tom_v0_bowed_187","midi_source":""},{"t":151.16,"note":74,"dur":0.525,"vel":0.709,"inst":"tom_v0_bowed_187","midi_source":""},{"t":151.16,"note":79,"dur":0.105,"vel":0.709,"inst":"tom_v0_noise_perc_505","midi_source":""},{"t":151.265,"note":77,"dur":0.21,"vel":0.709,"inst":"tom_v0_noise_perc_505","midi_source":""},{"t":151.265,"note":79,"dur":0.21,"vel":0.709,"inst":"tom_v0_noise_perc_505","midi_source":""},{"t":151.37,"note":62,"dur":0.21,"vel":0.709,"inst":"tom_v0_bowed_187","midi_source":""},{"t":151.475,"note":67,"dur":0.105,"vel":0.709,"inst":"tom_v0_noise_perc_505","midi_source":""},{"t":151.475,"note":74,"dur":0.105,"vel":0.709,"inst":"tom_v0_bowed_187","midi_source":""},{"t":151.475,"note":91,"dur":0.105,"vel":0.709,"inst":"tom_v0_noise_perc_505","midi_source":""},{"t":151.475,"note":96,"dur":0.105,"vel":0.709,"inst":"tom_v0_bowed_187","midi_source":""},{"t":151.58,"note":67,"dur":0.105,"vel":0.709,"inst":"tom_v0_noise_perc_505","midi_source":""},{"t":151.58,"note":74,"dur":0.157,"vel":0.709,"inst":"tom_v0_bowed_187","midi_source":""},{"t":151.58,"note":89,"dur":0.157,"vel":0.709,"inst":"tom_v0_noise_perc_505","midi_source":""},{"t":151.58,"note":96,"dur":0.21,"vel":0.709,"inst":"tom_v0_bowed_187","midi_source":""},{"t":151.685,"note":67,"dur":0.105,"vel":0.709,"inst":"tom_v0_noise_perc_505","midi_source":""},{"t":151.738,"note":74,"dur":0.052,"vel":0.709,"inst":"tom_v0_bowed_187","midi_source":""},{"t":151.738,"note":91,"dur":0.052,"vel":0.709,"inst":"tom_v0_noise_perc_505","midi_source":""},{"t":151.79,"note":67,"dur":0.105,"vel":0.709,"inst":"tom_v0_noise_perc_505","midi_source":""},{"t":151.79,"note":77,"dur":0.105,"vel":0.709,"inst":"tom_v0_noise_perc_505","midi_source":""},{"t":151.79,"note":91,"dur":0.105,"vel":0.709,"inst":"tom_v0_noise_perc_505","midi_source":""},{"t":151.79,"note":95,"dur":0.105,"vel":0.709,"inst":"tom_v0_noise_perc_505","midi_source":""},{"t":151.895,"note":67,"dur":0.105,"vel":0.709,"inst":"tom_v0_noise_perc_505","midi_source":""},{"t":151.895,"note":77,"dur":0.105,"vel":0.709,"inst":"tom_v0_noise_perc_505","midi_source":""},{"t":151.895,"note":83,"dur":0.105,"vel":0.709,"inst":"tom_v0_noise_perc_505","midi_source":""},{"t":151.895,"note":91,"dur":0.105,"vel":0.709,"inst":"tom_v0_noise_perc_505","midi_source":""},{"t":152.0,"note":67,"dur":0.105,"vel":0.709,"inst":"tom_v0_noise_perc_505","midi_source":""},{"t":152.0,"note":74,"dur":0.105,"vel":0.709,"inst":"tom_v0_bowed_187","midi_source":""},{"t":152.0,"note":84,"dur":0.105,"vel":0.709,"inst":"tom_v0_bowed_187","midi_source":""},{"t":152.0,"note":91,"dur":0.105,"vel":0.709,"inst":"tom_v0_noise_perc_505","midi_source":""},{"t":152.105,"note":71,"dur":0.105,"vel":0.709,"inst":"tom_v0_noise_perc_505","midi_source":""},{"t":152.105,"note":79,"dur":0.21,"vel":0.709,"inst":"tom_v0_noise_perc_505","midi_source":""},{"t":152.105,"note":86,"dur":0.105,"vel":0.709,"inst":"tom_v0_bowed_187","midi_source":""},{"t":152.105,"note":89,"dur":0.105,"vel":0.709,"inst":"tom_v0_noise_perc_505","midi_source":""},{"t":152.21,"note":72,"dur":0.105,"vel":0.709,"inst":"tom_v0_bowed_187","midi_source":""},{"t":152.21,"note":86,"dur":0.105,"vel":0.709,"inst":"tom_v0_bowed_187","midi_source":""},{"t":152.21,"note":89,"dur":0.105,"vel":0.709,"inst":"tom_v0_noise_perc_505","midi_source":""},{"t":152.315,"note":65,"dur":0.105,"vel":0.709,"inst":"tom_v0_noise_perc_505","midi_source":""},{"t":152.315,"note":81,"dur":0.105,"vel":0.709,"inst":"tom_v0_noise_perc_505","midi_source":""},{"t":152.315,"note":84,"dur":0.105,"vel":0.709,"inst":"tom_v0_bowed_187","midi_source":""},{"t":152.315,"note":86,"dur":0.105,"vel":0.709,"inst":"tom_v0_bowed_187","midi_source":""},{"t":152.42,"note":67,"dur":0.21,"vel":0.709,"inst":"tom_v0_noise_perc_505","midi_source":""},{"t":152.42,"note":74,"dur":0.21,"vel":0.709,"inst":"tom_v0_bowed_187","midi_source":""},{"t":152.42,"note":83,"dur":0.21,"vel":0.709,"inst":"tom_v0_noise_perc_505","midi_source":""},{"t":152.42,"note":86,"dur":0.052,"vel":0.709,"inst":"tom_v0_bowed_187","midi_source":""},{"t":152.473,"note":89,"dur":0.052,"vel":0.709,"inst":"tom_v0_noise_perc_505","midi_source":""},{"t":152.525,"note":91,"dur":0.052,"vel":0.709,"inst":"tom_v0_noise_perc_505","midi_source":""},{"t":152.578,"note":89,"dur":0.052,"vel":0.709,"inst":"tom_v0_noise_perc_505","midi_source":""},{"t":152.63,"note":91,"dur":0.052,"vel":0.709,"inst":"tom_v0_noise_perc_505","midi_source":""},{"t":152.683,"note":89,"dur":0.052,"vel":0.709,"inst":"tom_v0_noise_perc_505","midi_source":""},{"t":152.735,"note":86,"dur":0.052,"vel":0.709,"inst":"tom_v0_bowed_187","midi_source":""},{"t":152.735,"note":91,"dur":0.052,"vel":0.709,"inst":"tom_v0_noise_perc_505","midi_source":""},{"t":152.788,"note":84,"dur":0.052,"vel":0.709,"inst":"tom_v0_bowed_187","midi_source":""},{"t":152.788,"note":86,"dur":0.052,"vel":0.709,"inst":"tom_v0_bowed_187","midi_source":""},{"t":152.84,"note":83,"dur":0.052,"vel":0.709,"inst":"tom_v0_noise_perc_505","midi_source":""},{"t":152.84,"note":86,"dur":0.105,"vel":0.709,"inst":"tom_v0_bowed_187","midi_source":""},{"t":152.893,"note":77,"dur":0.052,"vel":0.709,"inst":"tom_v0_noise_perc_505","midi_source":""},{"t":152.945,"note":79,"dur":0.052,"vel":0.709,"inst":"tom_v0_noise_perc_505","midi_source":""},{"t":152.998,"note":77,"dur":0.052,"vel":0.709,"inst":"tom_v0_noise_perc_505","midi_source":""},{"t":153.05,"note":79,"dur":0.052,"vel":0.709,"inst":"tom_v0_noise_perc_505","midi_source":""},{"t":153.103,"note":77,"dur":0.052,"vel":0.709,"inst":"tom_v0_noise_perc_505","midi_source":""},{"t":153.155,"note":74,"dur":0.052,"vel":0.709,"inst":"tom_v0_bowed_187","midi_source":""},{"t":153.155,"note":79,"dur":0.052,"vel":0.709,"inst":"tom_v0_noise_perc_505","midi_source":""},{"t":153.207,"note":72,"dur":0.052,"vel":0.709,"inst":"tom_v0_bowed_187","midi_source":""},{"t":153.207,"note":74,"dur":0.052,"vel":0.709,"inst":"tom_v0_bowed_187","midi_source":""},{"t":153.26,"note":71,"dur":0.052,"vel":0.709,"inst":"tom_v0_noise_perc_505","midi_source":""},{"t":153.26,"note":74,"dur":0.105,"vel":0.709,"inst":"tom_v0_bowed_187","midi_source":""},{"t":153.312,"note":65,"dur":0.052,"vel":0.709,"inst":"tom_v0_noise_perc_505","midi_source":""},{"t":153.365,"note":67,"dur":0.052,"vel":0.709,"inst":"tom_v0_noise_perc_505","midi_source":""},{"t":153.417,"note":65,"dur":0.052,"vel":0.709,"inst":"tom_v0_noise_perc_505","midi_source":""},{"t":153.47,"note":67,"dur":0.052,"vel":0.709,"inst":"tom_v0_noise_perc_505","midi_source":""},{"t":153.522,"note":65,"dur":0.052,"vel":0.709,"inst":"tom_v0_noise_perc_505","midi_source":""},{"t":153.575,"note":62,"dur":0.052,"vel":0.709,"inst":"tom_v0_bowed_187","midi_source":""},{"t":153.575,"note":67,"dur":0.052,"vel":0.709,"inst":"tom_v0_noise_perc_505","midi_source":""},{"t":153.627,"note":60,"dur":0.052,"vel":0.709,"inst":"tom_v0_bowed_187","midi_source":""},{"t":153.627,"note":62,"dur":0.052,"vel":0.709,"inst":"tom_v0_bowed_187","midi_source":""},{"t":153.68,"note":59,"dur":0.052,"vel":0.709,"inst":"tom_v0_noise_perc_505","midi_source":""},{"t":153.68,"note":62,"dur":0.105,"vel":0.709,"inst":"tom_v0_bowed_187","midi_source":""},{"t":153.732,"note":53,"dur":0.052,"vel":0.709,"inst":"tom_v0_noise_perc_505","midi_source":""},{"t":153.785,"note":55,"dur":0.052,"vel":0.709,"inst":"tom_v0_noise_perc_505","midi_source":""},{"t":153.837,"note":53,"dur":0.052,"vel":0.709,"inst":"tom_v0_noise_perc_505","midi_source":""},{"t":153.89,"note":55,"dur":0.052,"vel":0.709,"inst":"tom_v0_noise_perc_505","midi_source":""},{"t":153.942,"note":53,"dur":0.052,"vel":0.709,"inst":"tom_v0_noise_perc_505","midi_source":""},{"t":153.995,"note":55,"dur":0.052,"vel":0.709,"inst":"tom_v0_noise_perc_505","midi_source":""},{"t":154.047,"note":50,"dur":0.052,"vel":0.709,"inst":"tom_v0_bowed_187","midi_source":""},{"t":154.1,"note":50,"dur":0.315,"vel":0.709,"inst":"tom_v0_bowed_187","midi_source":""},{"t":154.1,"note":57,"dur":0.315,"vel":0.709,"inst":"tom_v0_noise_perc_505","midi_source":""},{"t":154.1,"note":69,"dur":0.315,"vel":0.709,"inst":"tom_v0_noise_perc_505","midi_source":""},{"t":154.1,"note":74,"dur":0.315,"vel":0.709,"inst":"tom_v0_bowed_187","midi_source":""},{"t":154.1,"note":74,"dur":0.315,"vel":0.709,"inst":"tom_v0_bowed_187","midi_source":""},{"t":154.1,"note":81,"dur":0.315,"vel":0.709,"inst":"tom_v0_noise_perc_505","midi_source":""},{"t":154.1,"note":81,"dur":0.315,"vel":0.709,"inst":"tom_v0_noise_perc_505","midi_source":""},{"t":154.1,"note":89,"dur":0.315,"vel":0.709,"inst":"tom_v0_noise_perc_505","midi_source":""},{"t":154.1,"note":91,"dur":0.315,"vel":0.709,"inst":"tom_v0_noise_perc_505","midi_source":""},{"t":154.415,"note":62,"dur":0.105,"vel":0.709,"inst":"tom_v0_bowed_187","midi_source":""},{"t":154.415,"note":65,"dur":0.105,"vel":0.709,"inst":"tom_v0_noise_perc_505","midi_source":""},{"t":154.415,"note":67,"dur":0.105,"vel":0.709,"inst":"tom_v0_noise_perc_505","midi_source":""},{"t":154.415,"note":69,"dur":0.105,"vel":0.709,"inst":"tom_v0_noise_perc_505","midi_source":""},{"t":154.52,"note":50,"dur":0.105,"vel":0.709,"inst":"tom_v0_bowed_187","midi_source":""},{"t":154.52,"note":62,"dur":0.105,"vel":0.709,"inst":"tom_v0_bowed_187","midi_source":""},{"t":154.52,"note":67,"dur":0.105,"vel":0.709,"inst":"tom_v0_noise_perc_505","midi_source":""},{"t":154.52,"note":69,"dur":0.105,"vel":0.709,"inst":"tom_v0_noise_perc_505","midi_source":""},{"t":154.625,"note":50,"dur":0.105,"vel":0.709,"inst":"tom_v0_bowed_187","midi_source":""},{"t":154.625,"note":62,"dur":0.105,"vel":0.709,"inst":"tom_v0_bowed_187","midi_source":""},{"t":154.625,"note":67,"dur":0.105,"vel":0.709,"inst":"tom_v0_noise_perc_505","midi_source":""},{"t":154.625,"note":69,"dur":0.105,"vel":0.709,"inst":"tom_v0_noise_perc_505","midi_source":""},{"t":154.835,"note":60,"dur":0.105,"vel":0.709,"inst":"tom_v0_bowed_187","midi_source":""},{"t":154.835,"note":62,"dur":0.105,"vel":0.709,"inst":"tom_v0_bowed_187","midi_source":""},{"t":154.835,"note":67,"dur":0.105,"vel":0.709,"inst":"tom_v0_noise_perc_505","midi_source":""},{"t":154.835,"note":72,"dur":0.105,"vel":0.709,"inst":"tom_v0_bowed_187","midi_source":""},{"t":154.94,"note":55,"dur":0.21,"vel":0.709,"inst":"tom_v0_noise_perc_505","midi_source":""},{"t":154.94,"note":62,"dur":0.21,"vel":0.709,"inst":"tom_v0_bowed_187","midi_source":""},{"t":154.94,"note":69,"dur":0.105,"vel":0.709,"inst":"tom_v0_noise_perc_505","midi_source":""},{"t":154.94,"note":72,"dur":0.105,"vel":0.709,"inst":"tom_v0_bowed_187","midi_source":""},{"t":155.045,"note":69,"dur":0.105,"vel":0.709,"inst":"tom_v0_noise_perc_505","midi_source":""},{"t":155.045,"note":62,"dur":0.105,"vel":0.709,"inst":"tom_v0_bowed_187","midi_source":""},{"t":155.255,"note":67,"dur":0.105,"vel":0.709,"inst":"tom_v0_noise_perc_505","midi_source":""},{"t":155.255,"note":69,"dur":0.105,"vel":0.709,"inst":"tom_v0_noise_perc_505","midi_source":""},{"t":155.255,"note":62,"dur":0.105,"vel":0.709,"inst":"tom_v0_bowed_187","midi_source":""},{"t":155.255,"note":74,"dur":0.21,"vel":0.709,"inst":"tom_v0_bowed_187","midi_source":""},{"t":155.36,"note":67,"dur":0.105,"vel":0.709,"inst":"tom_v0_noise_perc_505","midi_source":""},{"t":155.36,"note":67,"dur":0.105,"vel":0.709,"inst":"tom_v0_noise_perc_505","midi_source":""},{"t":155.36,"note":72,"dur":0.21,"vel":0.709,"inst":"tom_v0_bowed_187","midi_source":""},{"t":155.465,"note":67,"dur":0.105,"vel":0.709,"inst":"tom_v0_noise_perc_505","midi_source":""},{"t":155.465,"note":69,"dur":0.105,"vel":0.709,"inst":"tom_v0_noise_perc_505","midi_source":""},{"t":155.465,"note":76,"dur":0.105,"vel":0.709,"inst":"tom_v0_bowed_187","midi_source":""},{"t":155.57,"note":65,"dur":0.105,"vel":0.709,"inst":"tom_v0_noise_perc_505","midi_source":""},{"t":155.57,"note":67,"dur":0.105,"vel":0.709,"inst":"tom_v0_noise_perc_505","midi_source":""},{"t":155.57,"note":74,"dur":0.105,"vel":0.709,"inst":"tom_v0_bowed_187","midi_source":""},{"t":155.57,"note":77,"dur":0.105,"vel":0.709,"inst":"tom_v0_noise_perc_505","midi_source":""},{"t":155.674,"note":62,"dur":0.105,"vel":0.709,"inst":"tom_v0_bowed_187","midi_source":""},{"t":155.674,"note":67,"dur":0.105,"vel":0.709,"inst":"tom_v0_noise_perc_505","midi_source":""},{"t":155.674,"note":74,"dur":0.105,"vel":0.709,"inst":"tom_v0_bowed_187","midi_source":""},{"t":155.674,"note":79,"dur":0.105,"vel":0.709,"inst":"tom_v0_noise_perc_505","midi_source":""},{"t":155.779,"note":62,"dur":0.21,"vel":0.709,"inst":"tom_v0_bowed_187","midi_source":""},{"t":155.779,"note":65,"dur":0.21,"vel":0.709,"inst":"tom_v0_noise_perc_505","midi_source":""},{"t":155.779,"note":69,"dur":0.21,"vel":0.709,"inst":"tom_v0_noise_perc_505","midi_source":""},{"t":155.779,"note":81,"dur":0.105,"vel":0.709,"inst":"tom_v0_noise_perc_505","midi_source":""},{"t":155.884,"note":79,"dur":0.105,"vel":0.709,"inst":"tom_v0_noise_perc_505","midi_source":""},{"t":156.094,"note":62,"dur":0.105,"vel":0.709,"inst":"tom_v0_bowed_187","midi_source":""},{"t":156.094,"note":69,"dur":0.105,"vel":0.709,"inst":"tom_v0_noise_perc_505","midi_source":""},{"t":156.094,"note":77,"dur":0.105,"vel":0.709,"inst":"tom_v0_noise_perc_505","midi_source":""},{"t":156.094,"note":79,"dur":0.105,"vel":0.709,"inst":"tom_v0_noise_perc_505","midi_source":""},{"t":156.199,"note":62,"dur":0.21,"vel":0.709,"inst":"tom_v0_bowed_187","midi_source":""},{"t":156.199,"note":74,"dur":0.105,"vel":0.709,"inst":"tom_v0_bowed_187","midi_source":""},{"t":156.199,"note":74,"dur":0.525,"vel":0.709,"inst":"tom_v0_bowed_187","midi_source":""},{"t":156.199,"note":79,"dur":0.105,"vel":0.709,"inst":"tom_v0_noise_perc_505","midi_source":""},{"t":156.304,"note":77,"dur":0.21,"vel":0.709,"inst":"tom_v0_noise_perc_505","midi_source":""},{"t":156.304,"note":79,"dur":0.21,"vel":0.709,"inst":"tom_v0_noise_perc_505","midi_source":""},{"t":156.409,"note":62,"dur":0.21,"vel":0.709,"inst":"tom_v0_bowed_187","midi_source":""},{"t":156.514,"note":67,"dur":0.105,"vel":0.709,"inst":"tom_v0_noise_perc_505","midi_source":""},{"t":156.514,"note":74,"dur":0.105,"vel":0.709,"inst":"tom_v0_bowed_187","midi_source":""},{"t":156.514,"note":91,"dur":0.105,"vel":0.709,"inst":"tom_v0_noise_perc_505","midi_source":""},{"t":156.514,"note":96,"dur":0.105,"vel":0.709,"inst":"tom_v0_bowed_187","midi_source":""},{"t":156.619,"note":67,"dur":0.105,"vel":0.709,"inst":"tom_v0_noise_perc_505","midi_source":""},{"t":156.619,"note":74,"dur":0.157,"vel":0.709,"inst":"tom_v0_bowed_187","midi_source":""},{"t":156.619,"note":89,"dur":0.157,"vel":0.709,"inst":"tom_v0_noise_perc_505","midi_source":""},{"t":156.619,"note":96,"dur":0.21,"vel":0.709,"inst":"tom_v0_bowed_187","midi_source":""},{"t":156.724,"note":67,"dur":0.105,"vel":0.709,"inst":"tom_v0_noise_perc_505","midi_source":""},{"t":156.777,"note":74,"dur":0.052,"vel":0.709,"inst":"tom_v0_bowed_187","midi_source":""},{"t":156.777,"note":91,"dur":0.052,"vel":0.709,"inst":"tom_v0_noise_perc_505","midi_source":""},{"t":156.829,"note":67,"dur":0.105,"vel":0.709,"inst":"tom_v0_noise_perc_505","midi_source":""},{"t":156.829,"note":77,"dur":0.105,"vel":0.709,"inst":"tom_v0_noise_perc_505","midi_source":""},{"t":156.829,"note":91,"dur":0.105,"vel":0.709,"inst":"tom_v0_noise_perc_505","midi_source":""},{"t":156.829,"note":95,"dur":0.105,"vel":0.709,"inst":"tom_v0_noise_perc_505","midi_source":""},{"t":156.934,"note":67,"dur":0.105,"vel":0.709,"inst":"tom_v0_noise_perc_505","midi_source":""},{"t":156.934,"note":77,"dur":0.105,"vel":0.709,"inst":"tom_v0_noise_perc_505","midi_source":""},{"t":156.934,"note":83,"dur":0.105,"vel":0.709,"inst":"tom_v0_noise_perc_505","midi_source":""},{"t":156.934,"note":91,"dur":0.105,"vel":0.709,"inst":"tom_v0_noise_perc_505","midi_source":""},{"t":157.039,"note":67,"dur":0.105,"vel":0.709,"inst":"tom_v0_noise_perc_505","midi_source":""},{"t":157.039,"note":74,"dur":0.105,"vel":0.709,"inst":"tom_v0_bowed_187","midi_source":""},{"t":157.039,"note":84,"dur":0.105,"vel":0.709,"inst":"tom_v0_bowed_187","midi_source":""},{"t":157.039,"note":91,"dur":0.105,"vel":0.709,"inst":"tom_v0_noise_perc_505","midi_source":""},{"t":157.144,"note":71,"dur":0.105,"vel":0.709,"inst":"tom_v0_noise_perc_505","midi_source":""},{"t":157.144,"note":79,"dur":0.21,"vel":0.709,"inst":"tom_v0_noise_perc_505","midi_source":""},{"t":157.144,"note":86,"dur":0.105,"vel":0.709,"inst":"tom_v0_bowed_187","midi_source":""},{"t":157.144,"note":89,"dur":0.105,"vel":0.709,"inst":"tom_v0_noise_perc_505","midi_source":""},{"t":157.249,"note":72,"dur":0.105,"vel":0.709,"inst":"tom_v0_bowed_187","midi_source":""},{"t":157.249,"note":86,"dur":0.105,"vel":0.709,"inst":"tom_v0_bowed_187","midi_source":""},{"t":157.249,"note":89,"dur":0.105,"vel":0.709,"inst":"tom_v0_noise_perc_505","midi_source":""},{"t":157.354,"note":65,"dur":0.105,"vel":0.709,"inst":"tom_v0_noise_perc_505","midi_source":""},{"t":157.354,"note":81,"dur":0.105,"vel":0.709,"inst":"tom_v0_noise_perc_505","midi_source":""},{"t":157.354,"note":84,"dur":0.105,"vel":0.709,"inst":"tom_v0_bowed_187","midi_source":""},{"t":157.354,"note":86,"dur":0.105,"vel":0.709,"inst":"tom_v0_bowed_187","midi_source":""},{"t":157.459,"note":67,"dur":0.21,"vel":0.709,"inst":"tom_v0_noise_perc_505","midi_source":""},{"t":157.459,"note":74,"dur":0.21,"vel":0.709,"inst":"tom_v0_bowed_187","midi_source":""},{"t":157.459,"note":83,"dur":0.21,"vel":0.709,"inst":"tom_v0_noise_perc_505","midi_source":""},{"t":157.459,"note":86,"dur":0.052,"vel":0.709,"inst":"tom_v0_bowed_187","midi_source":""},{"t":157.512,"note":89,"dur":0.052,"vel":0.709,"inst":"tom_v0_noise_perc_505","midi_source":""},{"t":157.564,"note":91,"dur":0.052,"vel":0.709,"inst":"tom_v0_noise_perc_505","midi_source":""},{"t":157.617,"note":89,"dur":0.052,"vel":0.709,"inst":"tom_v0_noise_perc_505","midi_source":""},{"t":157.669,"note":91,"dur":0.052,"vel":0.709,"inst":"tom_v0_noise_perc_505","midi_source":""},{"t":157.722,"note":89,"dur":0.052,"vel":0.709,"inst":"tom_v0_noise_perc_505","midi_source":""},{"t":157.774,"note":86,"dur":0.052,"vel":0.709,"inst":"tom_v0_bowed_187","midi_source":""},{"t":157.774,"note":91,"dur":0.052,"vel":0.709,"inst":"tom_v0_noise_perc_505","midi_source":""},{"t":157.827,"note":84,"dur":0.052,"vel":0.709,"inst":"tom_v0_bowed_187","midi_source":""},{"t":157.827,"note":86,"dur":0.052,"vel":0.709,"inst":"tom_v0_bowed_187","midi_source":""},{"t":157.879,"note":83,"dur":0.052,"vel":0.709,"inst":"tom_v0_noise_perc_505","midi_source":""},{"t":157.879,"note":86,"dur":0.105,"vel":0.709,"inst":"tom_v0_bowed_187","midi_source":""},{"t":157.932,"note":77,"dur":0.052,"vel":0.709,"inst":"tom_v0_noise_perc_505","midi_source":""},{"t":157.984,"note":79,"dur":0.052,"vel":0.709,"inst":"tom_v0_noise_perc_505","midi_source":""},{"t":158.036,"note":77,"dur":0.052,"vel":0.709,"inst":"tom_v0_noise_perc_505","midi_source":""},{"t":158.089,"note":79,"dur":0.052,"vel":0.709,"inst":"tom_v0_noise_perc_505","midi_source":""},{"t":158.141,"note":77,"dur":0.052,"vel":0.709,"inst":"tom_v0_noise_perc_505","midi_source":""},{"t":158.194,"note":74,"dur":0.052,"vel":0.709,"inst":"tom_v0_bowed_187","midi_source":""},{"t":158.194,"note":79,"dur":0.052,"vel":0.709,"inst":"tom_v0_noise_perc_505","midi_source":""},{"t":158.246,"note":72,"dur":0.052,"vel":0.709,"inst":"tom_v0_bowed_187","midi_source":""},{"t":158.246,"note":74,"dur":0.052,"vel":0.709,"inst":"tom_v0_bowed_187","midi_source":""},{"t":158.299,"note":71,"dur":0.052,"vel":0.709,"inst":"tom_v0_noise_perc_505","midi_source":""},{"t":158.299,"note":74,"dur":0.105,"vel":0.709,"inst":"tom_v0_bowed_187","midi_source":""},{"t":158.351,"note":65,"dur":0.052,"vel":0.709,"inst":"tom_v0_noise_perc_505","midi_source":""},{"t":158.404,"note":67,"dur":0.052,"vel":0.709,"inst":"tom_v0_noise_perc_505","midi_source":""},{"t":158.456,"note":65,"dur":0.052,"vel":0.709,"inst":"tom_v0_noise_perc_505","midi_source":""},{"t":158.509,"note":67,"dur":0.052,"vel":0.709,"inst":"tom_v0_noise_perc_505","midi_source":""},{"t":158.561,"note":65,"dur":0.052,"vel":0.709,"inst":"tom_v0_noise_perc_505","midi_source":""},{"t":158.614,"note":62,"dur":0.052,"vel":0.709,"inst":"tom_v0_bowed_187","midi_source":""},{"t":158.614,"note":67,"dur":0.052,"vel":0.709,"inst":"tom_v0_noise_perc_505","midi_source":""},{"t":158.666,"note":60,"dur":0.052,"vel":0.709,"inst":"tom_v0_bowed_187","midi_source":""},{"t":158.666,"note":62,"dur":0.052,"vel":0.709,"inst":"tom_v0_bowed_187","midi_source":""},{"t":158.719,"note":59,"dur":0.052,"vel":0.709,"inst":"tom_v0_noise_perc_505","midi_source":""},{"t":158.719,"note":62,"dur":0.105,"vel":0.709,"inst":"tom_v0_bowed_187","midi_source":""},{"t":158.771,"note":53,"dur":0.052,"vel":0.709,"inst":"tom_v0_noise_perc_505","midi_source":""},{"t":158.824,"note":55,"dur":0.052,"vel":0.709,"inst":"tom_v0_noise_perc_505","midi_source":""},{"t":158.876,"note":53,"dur":0.052,"vel":0.709,"inst":"tom_v0_noise_perc_505","midi_source":""},{"t":158.929,"note":55,"dur":0.052,"vel":0.709,"inst":"tom_v0_noise_perc_505","midi_source":""},{"t":158.981,"note":53,"dur":0.052,"vel":0.709,"inst":"tom_v0_noise_perc_505","midi_source":""},{"t":159.034,"note":55,"dur":0.052,"vel":0.709,"inst":"tom_v0_noise_perc_505","midi_source":""},{"t":159.086,"note":50,"dur":0.052,"vel":0.709,"inst":"tom_v0_bowed_187","midi_source":""},{"t":159.139,"note":50,"dur":0.315,"vel":0.709,"inst":"tom_v0_bowed_187","midi_source":""},{"t":159.139,"note":57,"dur":0.315,"vel":0.709,"inst":"tom_v0_noise_perc_505","midi_source":""},{"t":159.139,"note":69,"dur":0.315,"vel":0.709,"inst":"tom_v0_noise_perc_505","midi_source":""},{"t":159.139,"note":74,"dur":0.315,"vel":0.709,"inst":"tom_v0_bowed_187","midi_source":""},{"t":159.139,"note":74,"dur":0.315,"vel":0.709,"inst":"tom_v0_bowed_187","midi_source":""},{"t":159.139,"note":81,"dur":0.315,"vel":0.709,"inst":"tom_v0_noise_perc_505","midi_source":""},{"t":159.139,"note":81,"dur":0.315,"vel":0.709,"inst":"tom_v0_noise_perc_505","midi_source":""},{"t":159.139,"note":89,"dur":0.315,"vel":0.709,"inst":"tom_v0_noise_perc_505","midi_source":""},{"t":159.139,"note":91,"dur":0.315,"vel":0.709,"inst":"tom_v0_noise_perc_505","midi_source":""},{"t":159.454,"note":62,"dur":0.105,"vel":0.709,"inst":"tom_v0_bowed_187","midi_source":""},{"t":159.454,"note":65,"dur":0.105,"vel":0.709,"inst":"tom_v0_noise_perc_505","midi_source":""},{"t":159.454,"note":67,"dur":0.105,"vel":0.709,"inst":"tom_v0_noise_perc_505","midi_source":""},{"t":159.454,"note":69,"dur":0.105,"vel":0.709,"inst":"tom_v0_noise_perc_505","midi_source":""},{"t":159.559,"note":50,"dur":0.105,"vel":0.709,"inst":"tom_v0_bowed_187","midi_source":""},{"t":159.559,"note":62,"dur":0.105,"vel":0.709,"inst":"tom_v0_bowed_187","midi_source":""},{"t":159.559,"note":67,"dur":0.105,"vel":0.709,"inst":"tom_v0_noise_perc_505","midi_source":""},{"t":159.559,"note":69,"dur":0.105,"vel":0.709,"inst":"tom_v0_noise_perc_505","midi_source":""},{"t":159.664,"note":50,"dur":0.105,"vel":0.709,"inst":"tom_v0_bowed_187","midi_source":""},{"t":159.664,"note":62,"dur":0.105,"vel":0.709,"inst":"tom_v0_bowed_187","midi_source":""},{"t":159.664,"note":67,"dur":0.105,"vel":0.709,"inst":"tom_v0_noise_perc_505","midi_source":""},{"t":159.664,"note":69,"dur":0.105,"vel":0.709,"inst":"tom_v0_noise_perc_505","midi_source":""},{"t":159.874,"note":60,"dur":0.105,"vel":0.709,"inst":"tom_v0_bowed_187","midi_source":""},{"t":159.874,"note":62,"dur":0.105,"vel":0.709,"inst":"tom_v0_bowed_187","midi_source":""},{"t":159.874,"note":67,"dur":0.105,"vel":0.709,"inst":"tom_v0_noise_perc_505","midi_source":""},{"t":159.874,"note":72,"dur":0.105,"vel":0.709,"inst":"tom_v0_bowed_187","midi_source":""},{"t":159.979,"note":55,"dur":0.21,"vel":0.709,"inst":"tom_v0_noise_perc_505","midi_source":""},{"t":159.979,"note":62,"dur":0.21,"vel":0.709,"inst":"tom_v0_bowed_187","midi_source":""},{"t":159.979,"note":69,"dur":0.105,"vel":0.709,"inst":"tom_v0_noise_perc_505","midi_source":""},{"t":159.979,"note":72,"dur":0.105,"vel":0.709,"inst":"tom_v0_bowed_187","midi_source":""},{"t":160.084,"note":69,"dur":0.105,"vel":0.709,"inst":"tom_v0_noise_perc_505","midi_source":""},{"t":160.084,"note":62,"dur":0.105,"vel":0.709,"inst":"tom_v0_bowed_187","midi_source":""},{"t":160.294,"note":67,"dur":0.105,"vel":0.709,"inst":"tom_v0_noise_perc_505","midi_source":""},{"t":160.294,"note":69,"dur":0.105,"vel":0.709,"inst":"tom_v0_noise_perc_505","midi_source":""},{"t":160.294,"note":62,"dur":0.105,"vel":0.709,"inst":"tom_v0_bowed_187","midi_source":""},{"t":160.294,"note":74,"dur":0.21,"vel":0.709,"inst":"tom_v0_bowed_187","midi_source":""},{"t":160.399,"note":67,"dur":0.105,"vel":0.709,"inst":"tom_v0_noise_perc_505","midi_source":""},{"t":160.399,"note":67,"dur":0.105,"vel":0.709,"inst":"tom_v0_noise_perc_505","midi_source":""},{"t":160.399,"note":72,"dur":0.21,"vel":0.709,"inst":"tom_v0_bowed_187","midi_source":""},{"t":160.503,"note":67,"dur":0.105,"vel":0.709,"inst":"tom_v0_noise_perc_505","midi_source":""},{"t":160.503,"note":69,"dur":0.105,"vel":0.709,"inst":"tom_v0_noise_perc_505","midi_source":""},{"t":160.503,"note":76,"dur":0.105,"vel":0.709,"inst":"tom_v0_bowed_187","midi_source":""},{"t":160.608,"note":65,"dur":0.105,"vel":0.709,"inst":"tom_v0_noise_perc_505","midi_source":""},{"t":160.608,"note":67,"dur":0.105,"vel":0.709,"inst":"tom_v0_noise_perc_505","midi_source":""},{"t":160.608,"note":74,"dur":0.105,"vel":0.709,"inst":"tom_v0_bowed_187","midi_source":""},{"t":160.608,"note":77,"dur":0.105,"vel":0.709,"inst":"tom_v0_noise_perc_505","midi_source":""},{"t":160.713,"note":62,"dur":0.105,"vel":0.709,"inst":"tom_v0_bowed_187","midi_source":""},{"t":160.713,"note":67,"dur":0.105,"vel":0.709,"inst":"tom_v0_noise_perc_505","midi_source":""},{"t":160.713,"note":74,"dur":0.105,"vel":0.709,"inst":"tom_v0_bowed_187","midi_source":""},{"t":160.713,"note":79,"dur":0.105,"vel":0.709,"inst":"tom_v0_noise_perc_505","midi_source":""},{"t":160.818,"note":62,"dur":0.21,"vel":0.709,"inst":"tom_v0_bowed_187","midi_source":""},{"t":160.818,"note":65,"dur":0.21,"vel":0.709,"inst":"tom_v0_noise_perc_505","midi_source":""},{"t":160.818,"note":69,"dur":0.21,"vel":0.709,"inst":"tom_v0_noise_perc_505","midi_source":""},{"t":160.818,"note":81,"dur":0.105,"vel":0.709,"inst":"tom_v0_noise_perc_505","midi_source":""},{"t":160.923,"note":79,"dur":0.105,"vel":0.709,"inst":"tom_v0_noise_perc_505","midi_source":""},{"t":161.133,"note":62,"dur":0.105,"vel":0.709,"inst":"tom_v0_bowed_187","midi_source":""},{"t":161.133,"note":69,"dur":0.105,"vel":0.709,"inst":"tom_v0_noise_perc_505","midi_source":""},{"t":161.133,"note":77,"dur":0.105,"vel":0.709,"inst":"tom_v0_noise_perc_505","midi_source":""},{"t":161.133,"note":79,"dur":0.105,"vel":0.709,"inst":"tom_v0_noise_perc_505","midi_source":""},{"t":161.238,"note":62,"dur":0.21,"vel":0.709,"inst":"tom_v0_bowed_187","midi_source":""},{"t":161.238,"note":74,"dur":0.105,"vel":0.709,"inst":"tom_v0_bowed_187","midi_source":""},{"t":161.238,"note":74,"dur":0.525,"vel":0.709,"inst":"tom_v0_bowed_187","midi_source":""},{"t":161.238,"note":79,"dur":0.105,"vel":0.709,"inst":"tom_v0_noise_perc_505","midi_source":""},{"t":161.343,"note":77,"dur":0.21,"vel":0.709,"inst":"tom_v0_noise_perc_505","midi_source":""},{"t":161.343,"note":79,"dur":0.21,"vel":0.709,"inst":"tom_v0_noise_perc_505","midi_source":""},{"t":161.448,"note":62,"dur":0.21,"vel":0.709,"inst":"tom_v0_bowed_187","midi_source":""},{"t":161.553,"note":67,"dur":0.105,"vel":0.709,"inst":"tom_v0_noise_perc_505","midi_source":""},{"t":161.553,"note":74,"dur":0.105,"vel":0.709,"inst":"tom_v0_bowed_187","midi_source":""},{"t":161.553,"note":91,"dur":0.105,"vel":0.709,"inst":"tom_v0_noise_perc_505","midi_source":""},{"t":161.553,"note":96,"dur":0.105,"vel":0.709,"inst":"tom_v0_bowed_187","midi_source":""},{"t":161.658,"note":67,"dur":0.105,"vel":0.709,"inst":"tom_v0_noise_perc_505","midi_source":""},{"t":161.658,"note":74,"dur":0.157,"vel":0.709,"inst":"tom_v0_bowed_187","midi_source":""},{"t":161.658,"note":89,"dur":0.157,"vel":0.709,"inst":"tom_v0_noise_perc_505","midi_source":""},{"t":161.658,"note":96,"dur":0.21,"vel":0.709,"inst":"tom_v0_bowed_187","midi_source":""},{"t":161.763,"note":67,"dur":0.105,"vel":0.709,"inst":"tom_v0_noise_perc_505","midi_source":""},{"t":161.816,"note":74,"dur":0.052,"vel":0.709,"inst":"tom_v0_bowed_187","midi_source":""},{"t":161.816,"note":91,"dur":0.052,"vel":0.709,"inst":"tom_v0_noise_perc_505","midi_source":""},{"t":161.868,"note":67,"dur":0.105,"vel":0.709,"inst":"tom_v0_noise_perc_505","midi_source":""},{"t":161.868,"note":77,"dur":0.105,"vel":0.709,"inst":"tom_v0_noise_perc_505","midi_source":""},{"t":161.868,"note":91,"dur":0.105,"vel":0.709,"inst":"tom_v0_noise_perc_505","midi_source":""},{"t":161.868,"note":95,"dur":0.105,"vel":0.709,"inst":"tom_v0_noise_perc_505","midi_source":""},{"t":161.973,"note":67,"dur":0.105,"vel":0.709,"inst":"tom_v0_noise_perc_505","midi_source":""},{"t":161.973,"note":77,"dur":0.105,"vel":0.709,"inst":"tom_v0_noise_perc_505","midi_source":""},{"t":161.973,"note":83,"dur":0.105,"vel":0.709,"inst":"tom_v0_noise_perc_505","midi_source":""},{"t":161.973,"note":91,"dur":0.105,"vel":0.709,"inst":"tom_v0_noise_perc_505","midi_source":""},{"t":162.078,"note":67,"dur":0.105,"vel":0.709,"inst":"tom_v0_noise_perc_505","midi_source":""},{"t":162.078,"note":74,"dur":0.105,"vel":0.709,"inst":"tom_v0_bowed_187","midi_source":""},{"t":162.078,"note":84,"dur":0.105,"vel":0.709,"inst":"tom_v0_bowed_187","midi_source":""},{"t":162.078,"note":91,"dur":0.105,"vel":0.709,"inst":"tom_v0_noise_perc_505","midi_source":""},{"t":162.183,"note":71,"dur":0.105,"vel":0.709,"inst":"tom_v0_noise_perc_505","midi_source":""},{"t":162.183,"note":79,"dur":0.21,"vel":0.709,"inst":"tom_v0_noise_perc_505","midi_source":""},{"t":162.183,"note":86,"dur":0.105,"vel":0.709,"inst":"tom_v0_bowed_187","midi_source":""},{"t":162.183,"note":89,"dur":0.105,"vel":0.709,"inst":"tom_v0_noise_perc_505","midi_source":""},{"t":162.288,"note":72,"dur":0.105,"vel":0.709,"inst":"tom_v0_bowed_187","midi_source":""},{"t":162.288,"note":86,"dur":0.105,"vel":0.709,"inst":"tom_v0_bowed_187","midi_source":""},{"t":162.288,"note":89,"dur":0.105,"vel":0.709,"inst":"tom_v0_noise_perc_505","midi_source":""},{"t":162.393,"note":65,"dur":0.105,"vel":0.709,"inst":"tom_v0_noise_perc_505","midi_source":""},{"t":162.393,"note":81,"dur":0.105,"vel":0.709,"inst":"tom_v0_noise_perc_505","midi_source":""},{"t":162.393,"note":84,"dur":0.105,"vel":0.709,"inst":"tom_v0_bowed_187","midi_source":""},{"t":162.393,"note":86,"dur":0.105,"vel":0.709,"inst":"tom_v0_bowed_187","midi_source":""},{"t":162.498,"note":67,"dur":0.21,"vel":0.709,"inst":"tom_v0_noise_perc_505","midi_source":""},{"t":162.498,"note":74,"dur":0.21,"vel":0.709,"inst":"tom_v0_bowed_187","midi_source":""},{"t":162.498,"note":83,"dur":0.21,"vel":0.709,"inst":"tom_v0_noise_perc_505","midi_source":""},{"t":162.498,"note":86,"dur":0.052,"vel":0.709,"inst":"tom_v0_bowed_187","midi_source":""},{"t":162.551,"note":89,"dur":0.052,"vel":0.709,"inst":"tom_v0_noise_perc_505","midi_source":""},{"t":162.603,"note":91,"dur":0.052,"vel":0.709,"inst":"tom_v0_noise_perc_505","midi_source":""},{"t":162.656,"note":89,"dur":0.052,"vel":0.709,"inst":"tom_v0_noise_perc_505","midi_source":""},{"t":162.708,"note":91,"dur":0.052,"vel":0.709,"inst":"tom_v0_noise_perc_505","midi_source":""},{"t":162.761,"note":89,"dur":0.052,"vel":0.709,"inst":"tom_v0_noise_perc_505","midi_source":""},{"t":162.813,"note":86,"dur":0.052,"vel":0.709,"inst":"tom_v0_bowed_187","midi_source":""},{"t":162.813,"note":91,"dur":0.052,"vel":0.709,"inst":"tom_v0_noise_perc_505","midi_source":""},{"t":162.865,"note":84,"dur":0.052,"vel":0.709,"inst":"tom_v0_bowed_187","midi_source":""},{"t":162.865,"note":86,"dur":0.052,"vel":0.709,"inst":"tom_v0_bowed_187","midi_source":""},{"t":162.918,"note":83,"dur":0.052,"vel":0.709,"inst":"tom_v0_noise_perc_505","midi_source":""},{"t":162.918,"note":86,"dur":0.105,"vel":0.709,"inst":"tom_v0_bowed_187","midi_source":""},{"t":162.97,"note":77,"dur":0.052,"vel":0.709,"inst":"tom_v0_noise_perc_505","midi_source":""},{"t":163.023,"note":79,"dur":0.052,"vel":0.709,"inst":"tom_v0_noise_perc_505","midi_source":""},{"t":163.075,"note":77,"dur":0.052,"vel":0.709,"inst":"tom_v0_noise_perc_505","midi_source":""},{"t":163.128,"note":79,"dur":0.052,"vel":0.709,"inst":"tom_v0_noise_perc_505","midi_source":""},{"t":163.18,"note":77,"dur":0.052,"vel":0.709,"inst":"tom_v0_noise_perc_505","midi_source":""},{"t":163.233,"note":74,"dur":0.052,"vel":0.709,"inst":"tom_v0_bowed_187","midi_source":""},{"t":163.233,"note":79,"dur":0.052,"vel":0.709,"inst":"tom_v0_noise_perc_505","midi_source":""},{"t":163.285,"note":72,"dur":0.052,"vel":0.709,"inst":"tom_v0_bowed_187","midi_source":""},{"t":163.285,"note":74,"dur":0.052,"vel":0.709,"inst":"tom_v0_bowed_187","midi_source":""},{"t":163.338,"note":71,"dur":0.052,"vel":0.709,"inst":"tom_v0_noise_perc_505","midi_source":""},{"t":163.338,"note":74,"dur":0.105,"vel":0.709,"inst":"tom_v0_bowed_187","midi_source":""},{"t":163.39,"note":65,"dur":0.052,"vel":0.709,"inst":"tom_v0_noise_perc_505","midi_source":""},{"t":163.443,"note":67,"dur":0.052,"vel":0.709,"inst":"tom_v0_noise_perc_505","midi_source":""},{"t":163.495,"note":65,"dur":0.052,"vel":0.709,"inst":"tom_v0_noise_perc_505","midi_source":""},{"t":163.548,"note":67,"dur":0.052,"vel":0.709,"inst":"tom_v0_noise_perc_505","midi_source":""},{"t":163.6,"note":65,"dur":0.052,"vel":0.709,"inst":"tom_v0_noise_perc_505","midi_source":""},{"t":163.653,"note":62,"dur":0.052,"vel":0.709,"inst":"tom_v0_bowed_187","midi_source":""},{"t":163.653,"note":67,"dur":0.052,"vel":0.709,"inst":"tom_v0_noise_perc_505","midi_source":""},{"t":163.705,"note":60,"dur":0.052,"vel":0.709,"inst":"tom_v0_bowed_187","midi_source":""},{"t":163.705,"note":62,"dur":0.052,"vel":0.709,"inst":"tom_v0_bowed_187","midi_source":""},{"t":163.758,"note":59,"dur":0.052,"vel":0.709,"inst":"tom_v0_noise_perc_505","midi_source":""},{"t":163.758,"note":62,"dur":0.105,"vel":0.709,"inst":"tom_v0_bowed_187","midi_source":""},{"t":163.81,"note":53,"dur":0.052,"vel":0.709,"inst":"tom_v0_noise_perc_505","midi_source":""},{"t":163.863,"note":55,"dur":0.052,"vel":0.709,"inst":"tom_v0_noise_perc_505","midi_source":""},{"t":163.915,"note":53,"dur":0.052,"vel":0.709,"inst":"tom_v0_noise_perc_505","midi_source":""},{"t":163.968,"note":55,"dur":0.052,"vel":0.709,"inst":"tom_v0_noise_perc_505","midi_source":""},{"t":164.02,"note":53,"dur":0.052,"vel":0.709,"inst":"tom_v0_noise_perc_505","midi_source":""},{"t":164.073,"note":55,"dur":0.052,"vel":0.709,"inst":"tom_v0_noise_perc_505","midi_source":""},{"t":164.125,"note":50,"dur":0.052,"vel":0.709,"inst":"tom_v0_bowed_187","midi_source":""},{"t":164.178,"note":50,"dur":0.315,"vel":0.709,"inst":"tom_v0_bowed_187","midi_source":""},{"t":164.178,"note":57,"dur":0.315,"vel":0.709,"inst":"tom_v0_noise_perc_505","midi_source":""},{"t":164.178,"note":69,"dur":0.315,"vel":0.709,"inst":"tom_v0_noise_perc_505","midi_source":""},{"t":164.178,"note":74,"dur":0.315,"vel":0.709,"inst":"tom_v0_bowed_187","midi_source":""},{"t":164.178,"note":74,"dur":0.315,"vel":0.709,"inst":"tom_v0_bowed_187","midi_source":""},{"t":164.178,"note":81,"dur":0.315,"vel":0.709,"inst":"tom_v0_noise_perc_505","midi_source":""},{"t":164.178,"note":81,"dur":0.315,"vel":0.709,"inst":"tom_v0_noise_perc_505","midi_source":""},{"t":164.178,"note":89,"dur":0.315,"vel":0.709,"inst":"tom_v0_noise_perc_505","midi_source":""},{"t":164.178,"note":91,"dur":0.315,"vel":0.709,"inst":"tom_v0_noise_perc_505","midi_source":""},{"t":164.493,"note":62,"dur":0.105,"vel":0.709,"inst":"tom_v0_bowed_187","midi_source":""},{"t":164.493,"note":65,"dur":0.105,"vel":0.709,"inst":"tom_v0_noise_perc_505","midi_source":""},{"t":164.493,"note":67,"dur":0.105,"vel":0.709,"inst":"tom_v0_noise_perc_505","midi_source":""},{"t":164.493,"note":69,"dur":0.105,"vel":0.709,"inst":"tom_v0_noise_perc_505","midi_source":""},{"t":164.598,"note":50,"dur":0.105,"vel":0.709,"inst":"tom_v0_bowed_187","midi_source":""},{"t":164.598,"note":62,"dur":0.105,"vel":0.709,"inst":"tom_v0_bowed_187","midi_source":""},{"t":164.598,"note":67,"dur":0.105,"vel":0.709,"inst":"tom_v0_noise_perc_505","midi_source":""},{"t":164.598,"note":69,"dur":0.105,"vel":0.709,"inst":"tom_v0_noise_perc_505","midi_source":""},{"t":164.703,"note":50,"dur":0.105,"vel":0.709,"inst":"tom_v0_bowed_187","midi_source":""},{"t":164.703,"note":62,"dur":0.105,"vel":0.709,"inst":"tom_v0_bowed_187","midi_source":""},{"t":164.703,"note":67,"dur":0.105,"vel":0.709,"inst":"tom_v0_noise_perc_505","midi_source":""},{"t":164.703,"note":69,"dur":0.105,"vel":0.709,"inst":"tom_v0_noise_perc_505","midi_source":""},{"t":164.913,"note":60,"dur":0.105,"vel":0.709,"inst":"tom_v0_bowed_187","midi_source":""},{"t":164.913,"note":62,"dur":0.105,"vel":0.709,"inst":"tom_v0_bowed_187","midi_source":""},{"t":164.913,"note":67,"dur":0.105,"vel":0.709,"inst":"tom_v0_noise_perc_505","midi_source":""},{"t":164.913,"note":72,"dur":0.105,"vel":0.709,"inst":"tom_v0_bowed_187","midi_source":""},{"t":165.018,"note":55,"dur":0.21,"vel":0.709,"inst":"tom_v0_noise_perc_505","midi_source":""},{"t":165.018,"note":62,"dur":0.21,"vel":0.709,"inst":"tom_v0_bowed_187","midi_source":""},{"t":165.018,"note":69,"dur":0.105,"vel":0.709,"inst":"tom_v0_noise_perc_505","midi_source":""},{"t":165.018,"note":72,"dur":0.105,"vel":0.709,"inst":"tom_v0_bowed_187","midi_source":""},{"t":165.123,"note":69,"dur":0.105,"vel":0.709,"inst":"tom_v0_noise_perc_505","midi_source":""},{"t":165.123,"note":62,"dur":0.105,"vel":0.709,"inst":"tom_v0_bowed_187","midi_source":""},{"t":165.332,"note":67,"dur":0.105,"vel":0.709,"inst":"tom_v0_noise_perc_505","midi_source":""},{"t":165.332,"note":69,"dur":0.105,"vel":0.709,"inst":"tom_v0_noise_perc_505","midi_source":""},{"t":165.332,"note":62,"dur":0.105,"vel":0.709,"inst":"tom_v0_bowed_187","midi_source":""},{"t":165.332,"note":74,"dur":0.21,"vel":0.709,"inst":"tom_v0_bowed_187","midi_source":""},{"t":165.437,"note":67,"dur":0.105,"vel":0.709,"inst":"tom_v0_noise_perc_505","midi_source":""},{"t":165.437,"note":67,"dur":0.105,"vel":0.709,"inst":"tom_v0_noise_perc_505","midi_source":""},{"t":165.437,"note":72,"dur":0.21,"vel":0.709,"inst":"tom_v0_bowed_187","midi_source":""},{"t":165.542,"note":67,"dur":0.105,"vel":0.709,"inst":"tom_v0_noise_perc_505","midi_source":""},{"t":165.542,"note":69,"dur":0.105,"vel":0.709,"inst":"tom_v0_noise_perc_505","midi_source":""},{"t":165.542,"note":76,"dur":0.105,"vel":0.709,"inst":"tom_v0_bowed_187","midi_source":""},{"t":165.647,"note":65,"dur":0.105,"vel":0.709,"inst":"tom_v0_noise_perc_505","midi_source":""},{"t":165.647,"note":67,"dur":0.105,"vel":0.709,"inst":"tom_v0_noise_perc_505","midi_source":""},{"t":165.647,"note":74,"dur":0.105,"vel":0.709,"inst":"tom_v0_bowed_187","midi_source":""},{"t":165.647,"note":77,"dur":0.105,"vel":0.709,"inst":"tom_v0_noise_perc_505","midi_source":""},{"t":165.752,"note":62,"dur":0.105,"vel":0.709,"inst":"tom_v0_bowed_187","midi_source":""},{"t":165.752,"note":67,"dur":0.105,"vel":0.709,"inst":"tom_v0_noise_perc_505","midi_source":""},{"t":165.752,"note":74,"dur":0.105,"vel":0.709,"inst":"tom_v0_bowed_187","midi_source":""},{"t":165.752,"note":79,"dur":0.105,"vel":0.709,"inst":"tom_v0_noise_perc_505","midi_source":""},{"t":165.857,"note":62,"dur":0.21,"vel":0.709,"inst":"tom_v0_bowed_187","midi_source":""},{"t":165.857,"note":65,"dur":0.21,"vel":0.709,"inst":"tom_v0_noise_perc_505","midi_source":""},{"t":165.857,"note":69,"dur":0.21,"vel":0.709,"inst":"tom_v0_noise_perc_505","midi_source":""},{"t":165.857,"note":81,"dur":0.105,"vel":0.709,"inst":"tom_v0_noise_perc_505","midi_source":""},{"t":165.962,"note":79,"dur":0.105,"vel":0.709,"inst":"tom_v0_noise_perc_505","midi_source":""},{"t":166.172,"note":62,"dur":0.105,"vel":0.709,"inst":"tom_v0_bowed_187","midi_source":""},{"t":166.172,"note":69,"dur":0.105,"vel":0.709,"inst":"tom_v0_noise_perc_505","midi_source":""},{"t":166.172,"note":77,"dur":0.105,"vel":0.709,"inst":"tom_v0_noise_perc_505","midi_source":""},{"t":166.172,"note":79,"dur":0.105,"vel":0.709,"inst":"tom_v0_noise_perc_505","midi_source":""},{"t":166.277,"note":62,"dur":0.21,"vel":0.709,"inst":"tom_v0_bowed_187","midi_source":""},{"t":166.277,"note":74,"dur":0.105,"vel":0.709,"inst":"tom_v0_bowed_187","midi_source":""},{"t":166.277,"note":74,"dur":0.525,"vel":0.709,"inst":"tom_v0_bowed_187","midi_source":""},{"t":166.277,"note":79,"dur":0.105,"vel":0.709,"inst":"tom_v0_noise_perc_505","midi_source":""},{"t":166.382,"note":77,"dur":0.21,"vel":0.709,"inst":"tom_v0_noise_perc_505","midi_source":""},{"t":166.382,"note":79,"dur":0.21,"vel":0.709,"inst":"tom_v0_noise_perc_505","midi_source":""},{"t":166.487,"note":62,"dur":0.21,"vel":0.709,"inst":"tom_v0_bowed_187","midi_source":""},{"t":166.592,"note":67,"dur":0.105,"vel":0.709,"inst":"tom_v0_noise_perc_505","midi_source":""},{"t":166.592,"note":74,"dur":0.105,"vel":0.709,"inst":"tom_v0_bowed_187","midi_source":""},{"t":166.592,"note":91,"dur":0.105,"vel":0.709,"inst":"tom_v0_noise_perc_505","midi_source":""},{"t":166.592,"note":96,"dur":0.105,"vel":0.709,"inst":"tom_v0_bowed_187","midi_source":""},{"t":166.697,"note":67,"dur":0.105,"vel":0.709,"inst":"tom_v0_noise_perc_505","midi_source":""},{"t":166.697,"note":74,"dur":0.157,"vel":0.709,"inst":"tom_v0_bowed_187","midi_source":""},{"t":166.697,"note":89,"dur":0.157,"vel":0.709,"inst":"tom_v0_noise_perc_505","midi_source":""},{"t":166.697,"note":96,"dur":0.21,"vel":0.709,"inst":"tom_v0_bowed_187","midi_source":""},{"t":166.802,"note":67,"dur":0.105,"vel":0.709,"inst":"tom_v0_noise_perc_505","midi_source":""},{"t":166.855,"note":74,"dur":0.052,"vel":0.709,"inst":"tom_v0_bowed_187","midi_source":""},{"t":166.855,"note":91,"dur":0.052,"vel":0.709,"inst":"tom_v0_noise_perc_505","midi_source":""},{"t":166.907,"note":67,"dur":0.105,"vel":0.709,"inst":"tom_v0_noise_perc_505","midi_source":""},{"t":166.907,"note":77,"dur":0.105,"vel":0.709,"inst":"tom_v0_noise_perc_505","midi_source":""},{"t":166.907,"note":91,"dur":0.105,"vel":0.709,"inst":"tom_v0_noise_perc_505","midi_source":""},{"t":166.907,"note":95,"dur":0.105,"vel":0.709,"inst":"tom_v0_noise_perc_505","midi_source":""},{"t":167.012,"note":67,"dur":0.105,"vel":0.709,"inst":"tom_v0_noise_perc_505","midi_source":""},{"t":167.012,"note":77,"dur":0.105,"vel":0.709,"inst":"tom_v0_noise_perc_505","midi_source":""},{"t":167.012,"note":83,"dur":0.105,"vel":0.709,"inst":"tom_v0_noise_perc_505","midi_source":""},{"t":167.012,"note":91,"dur":0.105,"vel":0.709,"inst":"tom_v0_noise_perc_505","midi_source":""},{"t":167.117,"note":67,"dur":0.105,"vel":0.709,"inst":"tom_v0_noise_perc_505","midi_source":""},{"t":167.117,"note":74,"dur":0.105,"vel":0.709,"inst":"tom_v0_bowed_187","midi_source":""},{"t":167.117,"note":84,"dur":0.105,"vel":0.709,"inst":"tom_v0_bowed_187","midi_source":""},{"t":167.117,"note":91,"dur":0.105,"vel":0.709,"inst":"tom_v0_noise_perc_505","midi_source":""},{"t":167.222,"note":71,"dur":0.105,"vel":0.709,"inst":"tom_v0_noise_perc_505","midi_source":""},{"t":167.222,"note":79,"dur":0.21,"vel":0.709,"inst":"tom_v0_noise_perc_505","midi_source":""},{"t":167.222,"note":86,"dur":0.105,"vel":0.709,"inst":"tom_v0_bowed_187","midi_source":""},{"t":167.222,"note":89,"dur":0.105,"vel":0.709,"inst":"tom_v0_noise_perc_505","midi_source":""},{"t":167.327,"note":72,"dur":0.105,"vel":0.709,"inst":"tom_v0_bowed_187","midi_source":""},{"t":167.327,"note":86,"dur":0.105,"vel":0.709,"inst":"tom_v0_bowed_187","midi_source":""},{"t":167.327,"note":89,"dur":0.105,"vel":0.709,"inst":"tom_v0_noise_perc_505","midi_source":""},{"t":167.432,"note":65,"dur":0.105,"vel":0.709,"inst":"tom_v0_noise_perc_505","midi_source":""},{"t":167.432,"note":81,"dur":0.105,"vel":0.709,"inst":"tom_v0_noise_perc_505","midi_source":""},{"t":167.432,"note":84,"dur":0.105,"vel":0.709,"inst":"tom_v0_bowed_187","midi_source":""},{"t":167.432,"note":86,"dur":0.105,"vel":0.709,"inst":"tom_v0_bowed_187","midi_source":""},{"t":167.537,"note":67,"dur":0.21,"vel":0.709,"inst":"tom_v0_noise_perc_505","midi_source":""},{"t":167.537,"note":74,"dur":0.21,"vel":0.709,"inst":"tom_v0_bowed_187","midi_source":""},{"t":167.537,"note":83,"dur":0.21,"vel":0.709,"inst":"tom_v0_noise_perc_505","midi_source":""},{"t":167.537,"note":86,"dur":0.052,"vel":0.709,"inst":"tom_v0_bowed_187","midi_source":""},{"t":167.59,"note":89,"dur":0.052,"vel":0.709,"inst":"tom_v0_noise_perc_505","midi_source":""},{"t":167.642,"note":91,"dur":0.052,"vel":0.709,"inst":"tom_v0_noise_perc_505","midi_source":""},{"t":167.694,"note":89,"dur":0.052,"vel":0.709,"inst":"tom_v0_noise_perc_505","midi_source":""},{"t":167.747,"note":91,"dur":0.052,"vel":0.709,"inst":"tom_v0_noise_perc_505","midi_source":""},{"t":167.799,"note":89,"dur":0.052,"vel":0.709,"inst":"tom_v0_noise_perc_505","midi_source":""},{"t":167.852,"note":86,"dur":0.052,"vel":0.709,"inst":"tom_v0_bowed_187","midi_source":""},{"t":167.852,"note":91,"dur":0.052,"vel":0.709,"inst":"tom_v0_noise_perc_505","midi_source":""},{"t":167.904,"note":84,"dur":0.052,"vel":0.709,"inst":"tom_v0_bowed_187","midi_source":""},{"t":167.904,"note":86,"dur":0.052,"vel":0.709,"inst":"tom_v0_bowed_187","midi_source":""},{"t":167.957,"note":83,"dur":0.052,"vel":0.709,"inst":"tom_v0_noise_perc_505","midi_source":""},{"t":167.957,"note":86,"dur":0.105,"vel":0.709,"inst":"tom_v0_bowed_187","midi_source":""},{"t":168.009,"note":77,"dur":0.052,"vel":0.709,"inst":"tom_v0_noise_perc_505","midi_source":""},{"t":168.062,"note":79,"dur":0.052,"vel":0.709,"inst":"tom_v0_noise_perc_505","midi_source":""},{"t":168.114,"note":77,"dur":0.052,"vel":0.709,"inst":"tom_v0_noise_perc_505","midi_source":""},{"t":168.167,"note":79,"dur":0.052,"vel":0.709,"inst":"tom_v0_noise_perc_505","midi_source":""},{"t":168.219,"note":77,"dur":0.052,"vel":0.709,"inst":"tom_v0_noise_perc_505","midi_source":""},{"t":168.272,"note":74,"dur":0.052,"vel":0.709,"inst":"tom_v0_bowed_187","midi_source":""},{"t":168.272,"note":79,"dur":0.052,"vel":0.709,"inst":"tom_v0_noise_perc_505","midi_source":""},{"t":168.324,"note":72,"dur":0.052,"vel":0.709,"inst":"tom_v0_bowed_187","midi_source":""},{"t":168.324,"note":74,"dur":0.052,"vel":0.709,"inst":"tom_v0_bowed_187","midi_source":""},{"t":168.377,"note":71,"dur":0.052,"vel":0.709,"inst":"tom_v0_noise_perc_505","midi_source":""},{"t":168.377,"note":74,"dur":0.105,"vel":0.709,"inst":"tom_v0_bowed_187","midi_source":""},{"t":168.429,"note":65,"dur":0.052,"vel":0.709,"inst":"tom_v0_noise_perc_505","midi_source":""},{"t":168.482,"note":67,"dur":0.052,"vel":0.709,"inst":"tom_v0_noise_perc_505","midi_source":""},{"t":168.534,"note":65,"dur":0.052,"vel":0.709,"inst":"tom_v0_noise_perc_505","midi_source":""},{"t":168.587,"note":67,"dur":0.052,"vel":0.709,"inst":"tom_v0_noise_perc_505","midi_source":""},{"t":168.639,"note":65,"dur":0.052,"vel":0.709,"inst":"tom_v0_noise_perc_505","midi_source":""},{"t":168.692,"note":62,"dur":0.052,"vel":0.709,"inst":"tom_v0_bowed_187","midi_source":""},{"t":168.692,"note":67,"dur":0.052,"vel":0.709,"inst":"tom_v0_noise_perc_505","midi_source":""},{"t":168.744,"note":60,"dur":0.052,"vel":0.709,"inst":"tom_v0_bowed_187","midi_source":""},{"t":168.744,"note":62,"dur":0.052,"vel":0.709,"inst":"tom_v0_bowed_187","midi_source":""},{"t":168.797,"note":59,"dur":0.052,"vel":0.709,"inst":"tom_v0_noise_perc_505","midi_source":""},{"t":168.797,"note":62,"dur":0.105,"vel":0.709,"inst":"tom_v0_bowed_187","midi_source":""},{"t":168.849,"note":53,"dur":0.052,"vel":0.709,"inst":"tom_v0_noise_perc_505","midi_source":""},{"t":168.902,"note":55,"dur":0.052,"vel":0.709,"inst":"tom_v0_noise_perc_505","midi_source":""},{"t":168.954,"note":53,"dur":0.052,"vel":0.709,"inst":"tom_v0_noise_perc_505","midi_source":""},{"t":169.007,"note":55,"dur":0.052,"vel":0.709,"inst":"tom_v0_noise_perc_505","midi_source":""},{"t":169.059,"note":53,"dur":0.052,"vel":0.709,"inst":"tom_v0_noise_perc_505","midi_source":""},{"t":169.112,"note":55,"dur":0.052,"vel":0.709,"inst":"tom_v0_noise_perc_505","midi_source":""},{"t":169.164,"note":50,"dur":0.052,"vel":0.709,"inst":"tom_v0_bowed_187","midi_source":""},{"t":169.217,"note":50,"dur":0.315,"vel":0.709,"inst":"tom_v0_bowed_187","midi_source":""},{"t":169.217,"note":57,"dur":0.315,"vel":0.709,"inst":"tom_v0_noise_perc_505","midi_source":""},{"t":169.217,"note":69,"dur":0.315,"vel":0.709,"inst":"tom_v0_noise_perc_505","midi_source":""},{"t":169.217,"note":74,"dur":0.315,"vel":0.709,"inst":"tom_v0_bowed_187","midi_source":""},{"t":169.217,"note":74,"dur":0.315,"vel":0.709,"inst":"tom_v0_bowed_187","midi_source":""},{"t":169.217,"note":81,"dur":0.315,"vel":0.709,"inst":"tom_v0_noise_perc_505","midi_source":""},{"t":169.217,"note":81,"dur":0.315,"vel":0.709,"inst":"tom_v0_noise_perc_505","midi_source":""},{"t":169.217,"note":89,"dur":0.315,"vel":0.709,"inst":"tom_v0_noise_perc_505","midi_source":""},{"t":169.217,"note":91,"dur":0.315,"vel":0.709,"inst":"tom_v0_noise_perc_505","midi_source":""},{"t":169.532,"note":62,"dur":0.105,"vel":0.709,"inst":"tom_v0_bowed_187","midi_source":""},{"t":169.532,"note":65,"dur":0.105,"vel":0.709,"inst":"tom_v0_noise_perc_505","midi_source":""},{"t":169.532,"note":67,"dur":0.105,"vel":0.709,"inst":"tom_v0_noise_perc_505","midi_source":""},{"t":169.532,"note":69,"dur":0.105,"vel":0.709,"inst":"tom_v0_noise_perc_505","midi_source":""},{"t":169.637,"note":50,"dur":0.105,"vel":0.709,"inst":"tom_v0_bowed_187","midi_source":""},{"t":169.637,"note":62,"dur":0.105,"vel":0.709,"inst":"tom_v0_bowed_187","midi_source":""},{"t":169.637,"note":67,"dur":0.105,"vel":0.709,"inst":"tom_v0_noise_perc_505","midi_source":""},{"t":169.637,"note":69,"dur":0.105,"vel":0.709,"inst":"tom_v0_noise_perc_505","midi_source":""},{"t":169.742,"note":50,"dur":0.105,"vel":0.709,"inst":"tom_v0_bowed_187","midi_source":""},{"t":169.742,"note":62,"dur":0.105,"vel":0.709,"inst":"tom_v0_bowed_187","midi_source":""},{"t":169.742,"note":67,"dur":0.105,"vel":0.709,"inst":"tom_v0_noise_perc_505","midi_source":""},{"t":169.742,"note":69,"dur":0.105,"vel":0.709,"inst":"tom_v0_noise_perc_505","midi_source":""},{"t":169.952,"note":60,"dur":0.105,"vel":0.709,"inst":"tom_v0_bowed_187","midi_source":""},{"t":169.952,"note":62,"dur":0.105,"vel":0.709,"inst":"tom_v0_bowed_187","midi_source":""},{"t":169.952,"note":67,"dur":0.105,"vel":0.709,"inst":"tom_v0_noise_perc_505","midi_source":""},{"t":169.952,"note":72,"dur":0.105,"vel":0.709,"inst":"tom_v0_bowed_187","midi_source":""},{"t":170.057,"note":55,"dur":0.21,"vel":0.709,"inst":"tom_v0_noise_perc_505","midi_source":""},{"t":170.057,"note":62,"dur":0.21,"vel":0.709,"inst":"tom_v0_bowed_187","midi_source":""},{"t":170.057,"note":69,"dur":0.105,"vel":0.709,"inst":"tom_v0_noise_perc_505","midi_source":""},{"t":170.057,"note":72,"dur":0.105,"vel":0.709,"inst":"tom_v0_bowed_187","midi_source":""},{"t":170.161,"note":69,"dur":0.105,"vel":0.709,"inst":"tom_v0_noise_perc_505","midi_source":""},{"t":170.161,"note":62,"dur":0.105,"vel":0.709,"inst":"tom_v0_bowed_187","midi_source":""},{"t":170.371,"note":67,"dur":0.105,"vel":0.709,"inst":"tom_v0_noise_perc_505","midi_source":""},{"t":170.371,"note":69,"dur":0.105,"vel":0.709,"inst":"tom_v0_noise_perc_505","midi_source":""},{"t":170.371,"note":62,"dur":0.105,"vel":0.709,"inst":"tom_v0_bowed_187","midi_source":""},{"t":170.371,"note":74,"dur":0.21,"vel":0.709,"inst":"tom_v0_bowed_187","midi_source":""},{"t":170.476,"note":67,"dur":0.105,"vel":0.709,"inst":"tom_v0_noise_perc_505","midi_source":""},{"t":170.476,"note":67,"dur":0.105,"vel":0.709,"inst":"tom_v0_noise_perc_505","midi_source":""},{"t":170.476,"note":72,"dur":0.21,"vel":0.709,"inst":"tom_v0_bowed_187","midi_source":""},{"t":170.581,"note":67,"dur":0.105,"vel":0.709,"inst":"tom_v0_noise_perc_505","midi_source":""},{"t":170.581,"note":69,"dur":0.105,"vel":0.709,"inst":"tom_v0_noise_perc_505","midi_source":""},{"t":170.581,"note":76,"dur":0.105,"vel":0.709,"inst":"tom_v0_bowed_187","midi_source":""},{"t":170.686,"note":65,"dur":0.105,"vel":0.709,"inst":"tom_v0_noise_perc_505","midi_source":""},{"t":170.686,"note":67,"dur":0.105,"vel":0.709,"inst":"tom_v0_noise_perc_505","midi_source":""},{"t":170.686,"note":74,"dur":0.105,"vel":0.709,"inst":"tom_v0_bowed_187","midi_source":""},{"t":170.686,"note":77,"dur":0.105,"vel":0.709,"inst":"tom_v0_noise_perc_505","midi_source":""},{"t":170.791,"note":62,"dur":0.105,"vel":0.709,"inst":"tom_v0_bowed_187","midi_source":""},{"t":170.791,"note":67,"dur":0.105,"vel":0.709,"inst":"tom_v0_noise_perc_505","midi_source":""},{"t":170.791,"note":74,"dur":0.105,"vel":0.709,"inst":"tom_v0_bowed_187","midi_source":""},{"t":170.791,"note":79,"dur":0.105,"vel":0.709,"inst":"tom_v0_noise_perc_505","midi_source":""},{"t":170.896,"note":62,"dur":0.21,"vel":0.709,"inst":"tom_v0_bowed_187","midi_source":""},{"t":170.896,"note":65,"dur":0.21,"vel":0.709,"inst":"tom_v0_noise_perc_505","midi_source":""},{"t":170.896,"note":69,"dur":0.21,"vel":0.709,"inst":"tom_v0_noise_perc_505","midi_source":""},{"t":170.896,"note":81,"dur":0.105,"vel":0.709,"inst":"tom_v0_noise_perc_505","midi_source":""},{"t":171.001,"note":79,"dur":0.105,"vel":0.709,"inst":"tom_v0_noise_perc_505","midi_source":""},{"t":171.211,"note":62,"dur":0.105,"vel":0.709,"inst":"tom_v0_bowed_187","midi_source":""},{"t":171.211,"note":69,"dur":0.105,"vel":0.709,"inst":"tom_v0_noise_perc_505","midi_source":""},{"t":171.211,"note":77,"dur":0.105,"vel":0.709,"inst":"tom_v0_noise_perc_505","midi_source":""},{"t":171.211,"note":79,"dur":0.105,"vel":0.709,"inst":"tom_v0_noise_perc_505","midi_source":""},{"t":171.316,"note":62,"dur":0.21,"vel":0.709,"inst":"tom_v0_bowed_187","midi_source":""},{"t":171.316,"note":74,"dur":0.105,"vel":0.709,"inst":"tom_v0_bowed_187","midi_source":""},{"t":171.316,"note":74,"dur":0.525,"vel":0.709,"inst":"tom_v0_bowed_187","midi_source":""},{"t":171.316,"note":79,"dur":0.105,"vel":0.709,"inst":"tom_v0_noise_perc_505","midi_source":""},{"t":171.421,"note":77,"dur":0.21,"vel":0.709,"inst":"tom_v0_noise_perc_505","midi_source":""},{"t":171.421,"note":79,"dur":0.21,"vel":0.709,"inst":"tom_v0_noise_perc_505","midi_source":""},{"t":171.526,"note":62,"dur":0.21,"vel":0.709,"inst":"tom_v0_bowed_187","midi_source":""},{"t":171.631,"note":67,"dur":0.105,"vel":0.709,"inst":"tom_v0_noise_perc_505","midi_source":""},{"t":171.631,"note":74,"dur":0.105,"vel":0.709,"inst":"tom_v0_bowed_187","midi_source":""},{"t":171.631,"note":91,"dur":0.105,"vel":0.709,"inst":"tom_v0_noise_perc_505","midi_source":""},{"t":171.631,"note":96,"dur":0.105,"vel":0.709,"inst":"tom_v0_bowed_187","midi_source":""},{"t":171.736,"note":67,"dur":0.105,"vel":0.709,"inst":"tom_v0_noise_perc_505","midi_source":""},{"t":171.736,"note":74,"dur":0.157,"vel":0.709,"inst":"tom_v0_bowed_187","midi_source":""},{"t":171.736,"note":89,"dur":0.157,"vel":0.709,"inst":"tom_v0_noise_perc_505","midi_source":""},{"t":171.736,"note":96,"dur":0.21,"vel":0.709,"inst":"tom_v0_bowed_187","midi_source":""},{"t":171.841,"note":67,"dur":0.105,"vel":0.709,"inst":"tom_v0_noise_perc_505","midi_source":""},{"t":171.894,"note":74,"dur":0.052,"vel":0.709,"inst":"tom_v0_bowed_187","midi_source":""},{"t":171.894,"note":91,"dur":0.052,"vel":0.709,"inst":"tom_v0_noise_perc_505","midi_source":""},{"t":171.946,"note":67,"dur":0.105,"vel":0.709,"inst":"tom_v0_noise_perc_505","midi_source":""},{"t":171.946,"note":77,"dur":0.105,"vel":0.709,"inst":"tom_v0_noise_perc_505","midi_source":""},{"t":171.946,"note":91,"dur":0.105,"vel":0.709,"inst":"tom_v0_noise_perc_505","midi_source":""},{"t":171.946,"note":95,"dur":0.105,"vel":0.709,"inst":"tom_v0_noise_perc_505","midi_source":""},{"t":172.051,"note":67,"dur":0.105,"vel":0.709,"inst":"tom_v0_noise_perc_505","midi_source":""},{"t":172.051,"note":77,"dur":0.105,"vel":0.709,"inst":"tom_v0_noise_perc_505","midi_source":""},{"t":172.051,"note":83,"dur":0.105,"vel":0.709,"inst":"tom_v0_noise_perc_505","midi_source":""},{"t":172.051,"note":91,"dur":0.105,"vel":0.709,"inst":"tom_v0_noise_perc_505","midi_source":""},{"t":172.156,"note":67,"dur":0.105,"vel":0.709,"inst":"tom_v0_noise_perc_505","midi_source":""},{"t":172.156,"note":74,"dur":0.105,"vel":0.709,"inst":"tom_v0_bowed_187","midi_source":""},{"t":172.156,"note":84,"dur":0.105,"vel":0.709,"inst":"tom_v0_bowed_187","midi_source":""},{"t":172.156,"note":91,"dur":0.105,"vel":0.709,"inst":"tom_v0_noise_perc_505","midi_source":""},{"t":172.261,"note":71,"dur":0.105,"vel":0.709,"inst":"tom_v0_noise_perc_505","midi_source":""},{"t":172.261,"note":79,"dur":0.21,"vel":0.709,"inst":"tom_v0_noise_perc_505","midi_source":""},{"t":172.261,"note":86,"dur":0.105,"vel":0.709,"inst":"tom_v0_bowed_187","midi_source":""},{"t":172.261,"note":89,"dur":0.105,"vel":0.709,"inst":"tom_v0_noise_perc_505","midi_source":""},{"t":172.366,"note":72,"dur":0.105,"vel":0.709,"inst":"tom_v0_bowed_187","midi_source":""},{"t":172.366,"note":86,"dur":0.105,"vel":0.709,"inst":"tom_v0_bowed_187","midi_source":""},{"t":172.366,"note":89,"dur":0.105,"vel":0.709,"inst":"tom_v0_noise_perc_505","midi_source":""},{"t":172.471,"note":65,"dur":0.105,"vel":0.709,"inst":"tom_v0_noise_perc_505","midi_source":""},{"t":172.471,"note":81,"dur":0.105,"vel":0.709,"inst":"tom_v0_noise_perc_505","midi_source":""},{"t":172.471,"note":84,"dur":0.105,"vel":0.709,"inst":"tom_v0_bowed_187","midi_source":""},{"t":172.471,"note":86,"dur":0.105,"vel":0.709,"inst":"tom_v0_bowed_187","midi_source":""},{"t":172.576,"note":67,"dur":0.21,"vel":0.709,"inst":"tom_v0_noise_perc_505","midi_source":""},{"t":172.576,"note":74,"dur":0.21,"vel":0.709,"inst":"tom_v0_bowed_187","midi_source":""},{"t":172.576,"note":83,"dur":0.21,"vel":0.709,"inst":"tom_v0_noise_perc_505","midi_source":""},{"t":172.576,"note":86,"dur":0.052,"vel":0.709,"inst":"tom_v0_bowed_187","midi_source":""},{"t":172.628,"note":89,"dur":0.052,"vel":0.709,"inst":"tom_v0_noise_perc_505","midi_source":""},{"t":172.681,"note":91,"dur":0.052,"vel":0.709,"inst":"tom_v0_noise_perc_505","midi_source":""},{"t":172.733,"note":89,"dur":0.052,"vel":0.709,"inst":"tom_v0_noise_perc_505","midi_source":""},{"t":172.786,"note":91,"dur":0.052,"vel":0.709,"inst":"tom_v0_noise_perc_505","midi_source":""},{"t":172.838,"note":89,"dur":0.052,"vel":0.709,"inst":"tom_v0_noise_perc_505","midi_source":""},{"t":172.891,"note":86,"dur":0.052,"vel":0.709,"inst":"tom_v0_bowed_187","midi_source":""},{"t":172.891,"note":91,"dur":0.052,"vel":0.709,"inst":"tom_v0_noise_perc_505","midi_source":""},{"t":172.943,"note":84,"dur":0.052,"vel":0.709,"inst":"tom_v0_bowed_187","midi_source":""},{"t":172.943,"note":86,"dur":0.052,"vel":0.709,"inst":"tom_v0_bowed_187","midi_source":""},{"t":172.996,"note":83,"dur":0.052,"vel":0.709,"inst":"tom_v0_noise_perc_505","midi_source":""},{"t":172.996,"note":86,"dur":0.105,"vel":0.709,"inst":"tom_v0_bowed_187","midi_source":""},{"t":173.048,"note":77,"dur":0.052,"vel":0.709,"inst":"tom_v0_noise_perc_505","midi_source":""},{"t":173.101,"note":79,"dur":0.052,"vel":0.709,"inst":"tom_v0_noise_perc_505","midi_source":""},{"t":173.153,"note":77,"dur":0.052,"vel":0.709,"inst":"tom_v0_noise_perc_505","midi_source":""},{"t":173.206,"note":79,"dur":0.052,"vel":0.709,"inst":"tom_v0_noise_perc_505","midi_source":""},{"t":173.258,"note":77,"dur":0.052,"vel":0.709,"inst":"tom_v0_noise_perc_505","midi_source":""},{"t":173.311,"note":74,"dur":0.052,"vel":0.709,"inst":"tom_v0_bowed_187","midi_source":""},{"t":173.311,"note":79,"dur":0.052,"vel":0.709,"inst":"tom_v0_noise_perc_505","midi_source":""},{"t":173.363,"note":72,"dur":0.052,"vel":0.709,"inst":"tom_v0_bowed_187","midi_source":""},{"t":173.363,"note":74,"dur":0.052,"vel":0.709,"inst":"tom_v0_bowed_187","midi_source":""},{"t":173.416,"note":71,"dur":0.052,"vel":0.709,"inst":"tom_v0_noise_perc_505","midi_source":""},{"t":173.416,"note":74,"dur":0.105,"vel":0.709,"inst":"tom_v0_bowed_187","midi_source":""},{"t":173.468,"note":65,"dur":0.052,"vel":0.709,"inst":"tom_v0_noise_perc_505","midi_source":""},{"t":173.521,"note":67,"dur":0.052,"vel":0.709,"inst":"tom_v0_noise_perc_505","midi_source":""},{"t":173.573,"note":65,"dur":0.052,"vel":0.709,"inst":"tom_v0_noise_perc_505","midi_source":""},{"t":173.626,"note":67,"dur":0.052,"vel":0.709,"inst":"tom_v0_noise_perc_505","midi_source":""},{"t":173.678,"note":65,"dur":0.052,"vel":0.709,"inst":"tom_v0_noise_perc_505","midi_source":""},{"t":173.731,"note":62,"dur":0.052,"vel":0.709,"inst":"tom_v0_bowed_187","midi_source":""},{"t":173.731,"note":67,"dur":0.052,"vel":0.709,"inst":"tom_v0_noise_perc_505","midi_source":""},{"t":173.783,"note":60,"dur":0.052,"vel":0.709,"inst":"tom_v0_bowed_187","midi_source":""},{"t":173.783,"note":62,"dur":0.052,"vel":0.709,"inst":"tom_v0_bowed_187","midi_source":""},{"t":173.836,"note":59,"dur":0.052,"vel":0.709,"inst":"tom_v0_noise_perc_505","midi_source":""},{"t":173.836,"note":62,"dur":0.105,"vel":0.709,"inst":"tom_v0_bowed_187","midi_source":""},{"t":173.888,"note":53,"dur":0.052,"vel":0.709,"inst":"tom_v0_noise_perc_505","midi_source":""},{"t":173.941,"note":55,"dur":0.052,"vel":0.709,"inst":"tom_v0_noise_perc_505","midi_source":""},{"t":173.993,"note":53,"dur":0.052,"vel":0.709,"inst":"tom_v0_noise_perc_505","midi_source":""},{"t":174.046,"note":55,"dur":0.052,"vel":0.709,"inst":"tom_v0_noise_perc_505","midi_source":""},{"t":174.098,"note":53,"dur":0.052,"vel":0.709,"inst":"tom_v0_noise_perc_505","midi_source":""},{"t":174.151,"note":55,"dur":0.052,"vel":0.709,"inst":"tom_v0_noise_perc_505","midi_source":""},{"t":174.203,"note":50,"dur":0.052,"vel":0.709,"inst":"tom_v0_bowed_187","midi_source":""},{"t":174.256,"note":50,"dur":0.315,"vel":0.709,"inst":"tom_v0_bowed_187","midi_source":""},{"t":174.256,"note":57,"dur":0.315,"vel":0.709,"inst":"tom_v0_noise_perc_505","midi_source":""},{"t":174.256,"note":69,"dur":0.315,"vel":0.709,"inst":"tom_v0_noise_perc_505","midi_source":""},{"t":174.256,"note":74,"dur":0.315,"vel":0.709,"inst":"tom_v0_bowed_187","midi_source":""},{"t":174.256,"note":74,"dur":0.315,"vel":0.709,"inst":"tom_v0_bowed_187","midi_source":""},{"t":174.256,"note":81,"dur":0.315,"vel":0.709,"inst":"tom_v0_noise_perc_505","midi_source":""},{"t":174.256,"note":81,"dur":0.315,"vel":0.709,"inst":"tom_v0_noise_perc_505","midi_source":""},{"t":174.256,"note":89,"dur":0.315,"vel":0.709,"inst":"tom_v0_noise_perc_505","midi_source":""},{"t":174.256,"note":91,"dur":0.315,"vel":0.709,"inst":"tom_v0_noise_perc_505","midi_source":""},{"t":174.571,"note":62,"dur":0.105,"vel":0.709,"inst":"tom_v0_bowed_187","midi_source":""},{"t":174.571,"note":65,"dur":0.105,"vel":0.709,"inst":"tom_v0_noise_perc_505","midi_source":""},{"t":174.571,"note":67,"dur":0.105,"vel":0.709,"inst":"tom_v0_noise_perc_505","midi_source":""},{"t":174.571,"note":69,"dur":0.105,"vel":0.709,"inst":"tom_v0_noise_perc_505","midi_source":""},{"t":174.676,"note":50,"dur":0.105,"vel":0.709,"inst":"tom_v0_bowed_187","midi_source":""},{"t":174.676,"note":62,"dur":0.105,"vel":0.709,"inst":"tom_v0_bowed_187","midi_source":""},{"t":174.676,"note":67,"dur":0.105,"vel":0.709,"inst":"tom_v0_noise_perc_505","midi_source":""},{"t":174.676,"note":69,"dur":0.105,"vel":0.709,"inst":"tom_v0_noise_perc_505","midi_source":""},{"t":174.781,"note":50,"dur":0.105,"vel":0.709,"inst":"tom_v0_bowed_187","midi_source":""},{"t":174.781,"note":62,"dur":0.105,"vel":0.709,"inst":"tom_v0_bowed_187","midi_source":""},{"t":174.781,"note":67,"dur":0.105,"vel":0.709,"inst":"tom_v0_noise_perc_505","midi_source":""},{"t":174.781,"note":69,"dur":0.105,"vel":0.709,"inst":"tom_v0_noise_perc_505","midi_source":""},{"t":174.99,"note":60,"dur":0.105,"vel":0.709,"inst":"tom_v0_bowed_187","midi_source":""},{"t":174.99,"note":62,"dur":0.105,"vel":0.709,"inst":"tom_v0_bowed_187","midi_source":""},{"t":174.99,"note":67,"dur":0.105,"vel":0.709,"inst":"tom_v0_noise_perc_505","midi_source":""},{"t":174.99,"note":72,"dur":0.105,"vel":0.709,"inst":"tom_v0_bowed_187","midi_source":""},{"t":175.095,"note":55,"dur":0.21,"vel":0.709,"inst":"tom_v0_noise_perc_505","midi_source":""},{"t":175.095,"note":62,"dur":0.21,"vel":0.709,"inst":"tom_v0_bowed_187","midi_source":""},{"t":175.095,"note":69,"dur":0.105,"vel":0.709,"inst":"tom_v0_noise_perc_505","midi_source":""},{"t":175.095,"note":72,"dur":0.105,"vel":0.709,"inst":"tom_v0_bowed_187","midi_source":""},{"t":175.2,"note":69,"dur":0.105,"vel":0.709,"inst":"tom_v0_noise_perc_505","midi_source":""},{"t":175.2,"note":62,"dur":0.105,"vel":0.709,"inst":"tom_v0_bowed_187","midi_source":""},{"t":175.41,"note":67,"dur":0.105,"vel":0.709,"inst":"tom_v0_noise_perc_505","midi_source":""},{"t":175.41,"note":69,"dur":0.105,"vel":0.709,"inst":"tom_v0_noise_perc_505","midi_source":""},{"t":175.41,"note":62,"dur":0.105,"vel":0.709,"inst":"tom_v0_bowed_187","midi_source":""},{"t":175.41,"note":74,"dur":0.21,"vel":0.709,"inst":"tom_v0_bowed_187","midi_source":""},{"t":175.515,"note":67,"dur":0.105,"vel":0.709,"inst":"tom_v0_noise_perc_505","midi_source":""},{"t":175.515,"note":67,"dur":0.105,"vel":0.709,"inst":"tom_v0_noise_perc_505","midi_source":""},{"t":175.515,"note":72,"dur":0.21,"vel":0.709,"inst":"tom_v0_bowed_187","midi_source":""},{"t":175.62,"note":67,"dur":0.105,"vel":0.709,"inst":"tom_v0_noise_perc_505","midi_source":""},{"t":175.62,"note":69,"dur":0.105,"vel":0.709,"inst":"tom_v0_noise_perc_505","midi_source":""},{"t":175.62,"note":76,"dur":0.105,"vel":0.709,"inst":"tom_v0_bowed_187","midi_source":""},{"t":175.725,"note":65,"dur":0.105,"vel":0.709,"inst":"tom_v0_noise_perc_505","midi_source":""},{"t":175.725,"note":67,"dur":0.105,"vel":0.709,"inst":"tom_v0_noise_perc_505","midi_source":""},{"t":175.725,"note":74,"dur":0.105,"vel":0.709,"inst":"tom_v0_bowed_187","midi_source":""},{"t":175.725,"note":77,"dur":0.105,"vel":0.709,"inst":"tom_v0_noise_perc_505","midi_source":""},{"t":175.83,"note":62,"dur":0.105,"vel":0.709,"inst":"tom_v0_bowed_187","midi_source":""},{"t":175.83,"note":67,"dur":0.105,"vel":0.709,"inst":"tom_v0_noise_perc_505","midi_source":""},{"t":175.83,"note":74,"dur":0.105,"vel":0.709,"inst":"tom_v0_bowed_187","midi_source":""},{"t":175.83,"note":79,"dur":0.105,"vel":0.709,"inst":"tom_v0_noise_perc_505","midi_source":""},{"t":175.935,"note":62,"dur":0.21,"vel":0.709,"inst":"tom_v0_bowed_187","midi_source":""},{"t":175.935,"note":65,"dur":0.21,"vel":0.709,"inst":"tom_v0_noise_perc_505","midi_source":""},{"t":175.935,"note":69,"dur":0.21,"vel":0.709,"inst":"tom_v0_noise_perc_505","midi_source":""},{"t":175.935,"note":81,"dur":0.105,"vel":0.709,"inst":"tom_v0_noise_perc_505","midi_source":""},{"t":176.04,"note":79,"dur":0.105,"vel":0.709,"inst":"tom_v0_noise_perc_505","midi_source":""},{"t":176.25,"note":62,"dur":0.105,"vel":0.709,"inst":"tom_v0_bowed_187","midi_source":""},{"t":176.25,"note":69,"dur":0.105,"vel":0.709,"inst":"tom_v0_noise_perc_505","midi_source":""},{"t":176.25,"note":77,"dur":0.105,"vel":0.709,"inst":"tom_v0_noise_perc_505","midi_source":""},{"t":176.25,"note":79,"dur":0.105,"vel":0.709,"inst":"tom_v0_noise_perc_505","midi_source":""},{"t":176.355,"note":62,"dur":0.21,"vel":0.709,"inst":"tom_v0_bowed_187","midi_source":""},{"t":176.355,"note":74,"dur":0.105,"vel":0.709,"inst":"tom_v0_bowed_187","midi_source":""},{"t":176.355,"note":74,"dur":0.525,"vel":0.709,"inst":"tom_v0_bowed_187","midi_source":""},{"t":176.355,"note":79,"dur":0.105,"vel":0.709,"inst":"tom_v0_noise_perc_505","midi_source":""},{"t":176.46,"note":77,"dur":0.21,"vel":0.709,"inst":"tom_v0_noise_perc_505","midi_source":""},{"t":176.46,"note":79,"dur":0.21,"vel":0.709,"inst":"tom_v0_noise_perc_505","midi_source":""},{"t":176.565,"note":62,"dur":0.21,"vel":0.709,"inst":"tom_v0_bowed_187","midi_source":""},{"t":176.67,"note":67,"dur":0.105,"vel":0.709,"inst":"tom_v0_noise_perc_505","midi_source":""},{"t":176.67,"note":74,"dur":0.105,"vel":0.709,"inst":"tom_v0_bowed_187","midi_source":""},{"t":176.67,"note":91,"dur":0.105,"vel":0.709,"inst":"tom_v0_noise_perc_505","midi_source":""},{"t":176.67,"note":96,"dur":0.105,"vel":0.709,"inst":"tom_v0_bowed_187","midi_source":""},{"t":176.775,"note":67,"dur":0.105,"vel":0.709,"inst":"tom_v0_noise_perc_505","midi_source":""},{"t":176.775,"note":74,"dur":0.157,"vel":0.709,"inst":"tom_v0_bowed_187","midi_source":""},{"t":176.775,"note":89,"dur":0.157,"vel":0.709,"inst":"tom_v0_noise_perc_505","midi_source":""},{"t":176.775,"note":96,"dur":0.21,"vel":0.709,"inst":"tom_v0_bowed_187","midi_source":""},{"t":176.88,"note":67,"dur":0.105,"vel":0.709,"inst":"tom_v0_noise_perc_505","midi_source":""},{"t":176.933,"note":74,"dur":0.052,"vel":0.709,"inst":"tom_v0_bowed_187","midi_source":""},{"t":176.933,"note":91,"dur":0.052,"vel":0.709,"inst":"tom_v0_noise_perc_505","midi_source":""},{"t":176.985,"note":67,"dur":0.105,"vel":0.709,"inst":"tom_v0_noise_perc_505","midi_source":""},{"t":176.985,"note":77,"dur":0.105,"vel":0.709,"inst":"tom_v0_noise_perc_505","midi_source":""},{"t":176.985,"note":91,"dur":0.105,"vel":0.709,"inst":"tom_v0_noise_perc_505","midi_source":""},{"t":176.985,"note":95,"dur":0.105,"vel":0.709,"inst":"tom_v0_noise_perc_505","midi_source":""},{"t":177.09,"note":67,"dur":0.105,"vel":0.709,"inst":"tom_v0_noise_perc_505","midi_source":""},{"t":177.09,"note":77,"dur":0.105,"vel":0.709,"inst":"tom_v0_noise_perc_505","midi_source":""},{"t":177.09,"note":83,"dur":0.105,"vel":0.709,"inst":"tom_v0_noise_perc_505","midi_source":""},{"t":177.09,"note":91,"dur":0.105,"vel":0.709,"inst":"tom_v0_noise_perc_505","midi_source":""},{"t":177.195,"note":67,"dur":0.105,"vel":0.709,"inst":"tom_v0_noise_perc_505","midi_source":""},{"t":177.195,"note":74,"dur":0.105,"vel":0.709,"inst":"tom_v0_bowed_187","midi_source":""},{"t":177.195,"note":84,"dur":0.105,"vel":0.709,"inst":"tom_v0_bowed_187","midi_source":""},{"t":177.195,"note":91,"dur":0.105,"vel":0.709,"inst":"tom_v0_noise_perc_505","midi_source":""},{"t":177.3,"note":71,"dur":0.105,"vel":0.709,"inst":"tom_v0_noise_perc_505","midi_source":""},{"t":177.3,"note":79,"dur":0.21,"vel":0.709,"inst":"tom_v0_noise_perc_505","midi_source":""},{"t":177.3,"note":86,"dur":0.105,"vel":0.709,"inst":"tom_v0_bowed_187","midi_source":""},{"t":177.3,"note":89,"dur":0.105,"vel":0.709,"inst":"tom_v0_noise_perc_505","midi_source":""},{"t":177.405,"note":72,"dur":0.105,"vel":0.709,"inst":"tom_v0_bowed_187","midi_source":""},{"t":177.405,"note":86,"dur":0.105,"vel":0.709,"inst":"tom_v0_bowed_187","midi_source":""},{"t":177.405,"note":89,"dur":0.105,"vel":0.709,"inst":"tom_v0_noise_perc_505","midi_source":""},{"t":177.51,"note":65,"dur":0.105,"vel":0.709,"inst":"tom_v0_noise_perc_505","midi_source":""},{"t":177.51,"note":81,"dur":0.105,"vel":0.709,"inst":"tom_v0_noise_perc_505","midi_source":""},{"t":177.51,"note":84,"dur":0.105,"vel":0.709,"inst":"tom_v0_bowed_187","midi_source":""},{"t":177.51,"note":86,"dur":0.105,"vel":0.709,"inst":"tom_v0_bowed_187","midi_source":""},{"t":177.615,"note":67,"dur":0.21,"vel":0.709,"inst":"tom_v0_noise_perc_505","midi_source":""},{"t":177.615,"note":74,"dur":0.21,"vel":0.709,"inst":"tom_v0_bowed_187","midi_source":""},{"t":177.615,"note":83,"dur":0.21,"vel":0.709,"inst":"tom_v0_noise_perc_505","midi_source":""},{"t":177.615,"note":86,"dur":0.052,"vel":0.709,"inst":"tom_v0_bowed_187","midi_source":""},{"t":177.667,"note":89,"dur":0.052,"vel":0.709,"inst":"tom_v0_noise_perc_505","midi_source":""},{"t":177.72,"note":91,"dur":0.052,"vel":0.709,"inst":"tom_v0_noise_perc_505","midi_source":""},{"t":177.772,"note":89,"dur":0.052,"vel":0.709,"inst":"tom_v0_noise_perc_505","midi_source":""},{"t":177.825,"note":91,"dur":0.052,"vel":0.709,"inst":"tom_v0_noise_perc_505","midi_source":""},{"t":177.877,"note":89,"dur":0.052,"vel":0.709,"inst":"tom_v0_noise_perc_505","midi_source":""},{"t":177.93,"note":86,"dur":0.052,"vel":0.709,"inst":"tom_v0_bowed_187","midi_source":""},{"t":177.93,"note":91,"dur":0.052,"vel":0.709,"inst":"tom_v0_noise_perc_505","midi_source":""},{"t":177.982,"note":84,"dur":0.052,"vel":0.709,"inst":"tom_v0_bowed_187","midi_source":""},{"t":177.982,"note":86,"dur":0.052,"vel":0.709,"inst":"tom_v0_bowed_187","midi_source":""},{"t":178.035,"note":83,"dur":0.052,"vel":0.709,"inst":"tom_v0_noise_perc_505","midi_source":""},{"t":178.035,"note":86,"dur":0.105,"vel":0.709,"inst":"tom_v0_bowed_187","midi_source":""},{"t":178.087,"note":77,"dur":0.052,"vel":0.709,"inst":"tom_v0_noise_perc_505","midi_source":""},{"t":178.14,"note":79,"dur":0.052,"vel":0.709,"inst":"tom_v0_noise_perc_505","midi_source":""},{"t":178.192,"note":77,"dur":0.052,"vel":0.709,"inst":"tom_v0_noise_perc_505","midi_source":""},{"t":178.245,"note":79,"dur":0.052,"vel":0.709,"inst":"tom_v0_noise_perc_505","midi_source":""},{"t":178.297,"note":77,"dur":0.052,"vel":0.709,"inst":"tom_v0_noise_perc_505","midi_source":""},{"t":178.35,"note":74,"dur":0.052,"vel":0.709,"inst":"tom_v0_bowed_187","midi_source":""},{"t":178.35,"note":79,"dur":0.052,"vel":0.709,"inst":"tom_v0_noise_perc_505","midi_source":""},{"t":178.402,"note":72,"dur":0.052,"vel":0.709,"inst":"tom_v0_bowed_187","midi_source":""},{"t":178.402,"note":74,"dur":0.052,"vel":0.709,"inst":"tom_v0_bowed_187","midi_source":""},{"t":178.455,"note":71,"dur":0.052,"vel":0.709,"inst":"tom_v0_noise_perc_505","midi_source":""},{"t":178.455,"note":74,"dur":0.105,"vel":0.709,"inst":"tom_v0_bowed_187","midi_source":""},{"t":178.507,"note":65,"dur":0.052,"vel":0.709,"inst":"tom_v0_noise_perc_505","midi_source":""},{"t":178.56,"note":67,"dur":0.052,"vel":0.709,"inst":"tom_v0_noise_perc_505","midi_source":""},{"t":178.612,"note":65,"dur":0.052,"vel":0.709,"inst":"tom_v0_noise_perc_505","midi_source":""},{"t":178.665,"note":67,"dur":0.052,"vel":0.709,"inst":"tom_v0_noise_perc_505","midi_source":""},{"t":178.717,"note":65,"dur":0.052,"vel":0.709,"inst":"tom_v0_noise_perc_505","midi_source":""},{"t":178.77,"note":62,"dur":0.052,"vel":0.709,"inst":"tom_v0_bowed_187","midi_source":""},{"t":178.77,"note":67,"dur":0.052,"vel":0.709,"inst":"tom_v0_noise_perc_505","midi_source":""},{"t":178.822,"note":60,"dur":0.052,"vel":0.709,"inst":"tom_v0_bowed_187","midi_source":""},{"t":178.822,"note":62,"dur":0.052,"vel":0.709,"inst":"tom_v0_bowed_187","midi_source":""},{"t":178.875,"note":59,"dur":0.052,"vel":0.709,"inst":"tom_v0_noise_perc_505","midi_source":""},{"t":178.875,"note":62,"dur":0.105,"vel":0.709,"inst":"tom_v0_bowed_187","midi_source":""},{"t":178.927,"note":53,"dur":0.052,"vel":0.709,"inst":"tom_v0_noise_perc_505","midi_source":""},{"t":178.98,"note":55,"dur":0.052,"vel":0.709,"inst":"tom_v0_noise_perc_505","midi_source":""},{"t":179.032,"note":53,"dur":0.052,"vel":0.709,"inst":"tom_v0_noise_perc_505","midi_source":""},{"t":179.085,"note":55,"dur":0.052,"vel":0.709,"inst":"tom_v0_noise_perc_505","midi_source":""},{"t":179.137,"note":53,"dur":0.052,"vel":0.709,"inst":"tom_v0_noise_perc_505","midi_source":""},{"t":179.19,"note":55,"dur":0.052,"vel":0.709,"inst":"tom_v0_noise_perc_505","midi_source":""},{"t":179.242,"note":50,"dur":0.052,"vel":0.709,"inst":"tom_v0_bowed_187","midi_source":""},{"t":179.295,"note":50,"dur":0.315,"vel":0.709,"inst":"tom_v0_bowed_187","midi_source":""},{"t":179.295,"note":57,"dur":0.315,"vel":0.709,"inst":"tom_v0_noise_perc_505","midi_source":""},{"t":179.295,"note":69,"dur":0.315,"vel":0.709,"inst":"tom_v0_noise_perc_505","midi_source":""},{"t":179.295,"note":74,"dur":0.315,"vel":0.709,"inst":"tom_v0_bowed_187","midi_source":""},{"t":179.295,"note":74,"dur":0.315,"vel":0.709,"inst":"tom_v0_bowed_187","midi_source":""},{"t":179.295,"note":81,"dur":0.315,"vel":0.709,"inst":"tom_v0_noise_perc_505","midi_source":""},{"t":179.295,"note":81,"dur":0.315,"vel":0.709,"inst":"tom_v0_noise_perc_505","midi_source":""},{"t":179.295,"note":89,"dur":0.315,"vel":0.709,"inst":"tom_v0_noise_perc_505","midi_source":""},{"t":179.295,"note":91,"dur":0.315,"vel":0.709,"inst":"tom_v0_noise_perc_505","midi_source":""},{"t":179.61,"note":62,"dur":0.105,"vel":0.709,"inst":"tom_v0_bowed_187","midi_source":""},{"t":179.61,"note":65,"dur":0.105,"vel":0.709,"inst":"tom_v0_noise_perc_505","midi_source":""},{"t":179.61,"note":67,"dur":0.105,"vel":0.709,"inst":"tom_v0_noise_perc_505","midi_source":""},{"t":179.61,"note":69,"dur":0.105,"vel":0.709,"inst":"tom_v0_noise_perc_505","midi_source":""},{"t":179.715,"note":50,"dur":0.105,"vel":0.709,"inst":"tom_v0_bowed_187","midi_source":""},{"t":179.715,"note":62,"dur":0.105,"vel":0.709,"inst":"tom_v0_bowed_187","midi_source":""},{"t":179.715,"note":67,"dur":0.105,"vel":0.709,"inst":"tom_v0_noise_perc_505","midi_source":""},{"t":179.715,"note":69,"dur":0.105,"vel":0.709,"inst":"tom_v0_noise_perc_505","midi_source":""},{"t":179.819,"note":50,"dur":0.105,"vel":0.709,"inst":"tom_v0_bowed_187","midi_source":""},{"t":179.819,"note":62,"dur":0.105,"vel":0.709,"inst":"tom_v0_bowed_187","midi_source":""},{"t":179.819,"note":67,"dur":0.105,"vel":0.709,"inst":"tom_v0_noise_perc_505","midi_source":""},{"t":179.819,"note":69,"dur":0.105,"vel":0.709,"inst":"tom_v0_noise_perc_505","midi_source":""},{"t":180.029,"note":60,"dur":0.105,"vel":0.709,"inst":"tom_v0_bowed_187","midi_source":""},{"t":180.029,"note":62,"dur":0.105,"vel":0.709,"inst":"tom_v0_bowed_187","midi_source":""},{"t":180.029,"note":67,"dur":0.105,"vel":0.709,"inst":"tom_v0_noise_perc_505","midi_source":""},{"t":180.029,"note":72,"dur":0.105,"vel":0.709,"inst":"tom_v0_bowed_187","midi_source":""},{"t":180.134,"note":55,"dur":0.21,"vel":0.709,"inst":"tom_v0_noise_perc_505","midi_source":""},{"t":180.134,"note":62,"dur":0.21,"vel":0.709,"inst":"tom_v0_bowed_187","midi_source":""},{"t":180.134,"note":69,"dur":0.105,"vel":0.709,"inst":"tom_v0_noise_perc_505","midi_source":""},{"t":180.134,"note":72,"dur":0.105,"vel":0.709,"inst":"tom_v0_bowed_187","midi_source":""},{"t":180.239,"note":69,"dur":0.105,"vel":0.709,"inst":"tom_v0_noise_perc_505","midi_source":""},{"t":180.239,"note":62,"dur":0.105,"vel":0.709,"inst":"tom_v0_bowed_187","midi_source":""},{"t":180.449,"note":67,"dur":0.105,"vel":0.709,"inst":"tom_v0_noise_perc_505","midi_source":""},{"t":180.449,"note":69,"dur":0.105,"vel":0.709,"inst":"tom_v0_noise_perc_505","midi_source":""},{"t":180.449,"note":62,"dur":0.105,"vel":0.709,"inst":"tom_v0_bowed_187","midi_source":""},{"t":180.449,"note":74,"dur":0.21,"vel":0.709,"inst":"tom_v0_bowed_187","midi_source":""},{"t":180.554,"note":67,"dur":0.105,"vel":0.709,"inst":"tom_v0_noise_perc_505","midi_source":""},{"t":180.554,"note":67,"dur":0.105,"vel":0.709,"inst":"tom_v0_noise_perc_505","midi_source":""},{"t":180.554,"note":72,"dur":0.21,"vel":0.709,"inst":"tom_v0_bowed_187","midi_source":""},{"t":180.659,"note":67,"dur":0.105,"vel":0.709,"inst":"tom_v0_noise_perc_505","midi_source":""},{"t":180.659,"note":69,"dur":0.105,"vel":0.709,"inst":"tom_v0_noise_perc_505","midi_source":""},{"t":180.659,"note":76,"dur":0.105,"vel":0.709,"inst":"tom_v0_bowed_187","midi_source":""},{"t":180.764,"note":65,"dur":0.105,"vel":0.709,"inst":"tom_v0_noise_perc_505","midi_source":""},{"t":180.764,"note":67,"dur":0.105,"vel":0.709,"inst":"tom_v0_noise_perc_505","midi_source":""},{"t":180.764,"note":74,"dur":0.105,"vel":0.709,"inst":"tom_v0_bowed_187","midi_source":""},{"t":180.764,"note":77,"dur":0.105,"vel":0.709,"inst":"tom_v0_noise_perc_505","midi_source":""},{"t":180.869,"note":62,"dur":0.105,"vel":0.709,"inst":"tom_v0_bowed_187","midi_source":""},{"t":180.869,"note":67,"dur":0.105,"vel":0.709,"inst":"tom_v0_noise_perc_505","midi_source":""},{"t":180.869,"note":74,"dur":0.105,"vel":0.709,"inst":"tom_v0_bowed_187","midi_source":""},{"t":180.869,"note":79,"dur":0.105,"vel":0.709,"inst":"tom_v0_noise_perc_505","midi_source":""},{"t":180.974,"note":62,"dur":0.21,"vel":0.709,"inst":"tom_v0_bowed_187","midi_source":""},{"t":180.974,"note":65,"dur":0.21,"vel":0.709,"inst":"tom_v0_noise_perc_505","midi_source":""},{"t":180.974,"note":69,"dur":0.21,"vel":0.709,"inst":"tom_v0_noise_perc_505","midi_source":""},{"t":180.974,"note":81,"dur":0.105,"vel":0.709,"inst":"tom_v0_noise_perc_505","midi_source":""},{"t":181.079,"note":79,"dur":0.105,"vel":0.709,"inst":"tom_v0_noise_perc_505","midi_source":""},{"t":181.289,"note":62,"dur":0.105,"vel":0.709,"inst":"tom_v0_bowed_187","midi_source":""},{"t":181.289,"note":69,"dur":0.105,"vel":0.709,"inst":"tom_v0_noise_perc_505","midi_source":""},{"t":181.289,"note":77,"dur":0.105,"vel":0.709,"inst":"tom_v0_noise_perc_505","midi_source":""},{"t":181.289,"note":79,"dur":0.105,"vel":0.709,"inst":"tom_v0_noise_perc_505","midi_source":""},{"t":181.394,"note":62,"dur":0.21,"vel":0.709,"inst":"tom_v0_bowed_187","midi_source":""},{"t":181.394,"note":74,"dur":0.105,"vel":0.709,"inst":"tom_v0_bowed_187","midi_source":""},{"t":181.394,"note":74,"dur":0.525,"vel":0.709,"inst":"tom_v0_bowed_187","midi_source":""},{"t":181.394,"note":79,"dur":0.105,"vel":0.709,"inst":"tom_v0_noise_perc_505","midi_source":""},{"t":181.499,"note":77,"dur":0.21,"vel":0.709,"inst":"tom_v0_noise_perc_505","midi_source":""},{"t":181.499,"note":79,"dur":0.21,"vel":0.709,"inst":"tom_v0_noise_perc_505","midi_source":""},{"t":181.604,"note":62,"dur":0.21,"vel":0.709,"inst":"tom_v0_bowed_187","midi_source":""},{"t":181.709,"note":67,"dur":0.105,"vel":0.709,"inst":"tom_v0_noise_perc_505","midi_source":""},{"t":181.709,"note":74,"dur":0.105,"vel":0.709,"inst":"tom_v0_bowed_187","midi_source":""},{"t":181.709,"note":91,"dur":0.105,"vel":0.709,"inst":"tom_v0_noise_perc_505","midi_source":""},{"t":181.709,"note":96,"dur":0.105,"vel":0.709,"inst":"tom_v0_bowed_187","midi_source":""},{"t":181.814,"note":67,"dur":0.105,"vel":0.709,"inst":"tom_v0_noise_perc_505","midi_source":""},{"t":181.814,"note":74,"dur":0.157,"vel":0.709,"inst":"tom_v0_bowed_187","midi_source":""},{"t":181.814,"note":89,"dur":0.157,"vel":0.709,"inst":"tom_v0_noise_perc_505","midi_source":""},{"t":181.814,"note":96,"dur":0.21,"vel":0.709,"inst":"tom_v0_bowed_187","midi_source":""},{"t":181.919,"note":67,"dur":0.105,"vel":0.709,"inst":"tom_v0_noise_perc_505","midi_source":""},{"t":181.972,"note":74,"dur":0.052,"vel":0.709,"inst":"tom_v0_bowed_187","midi_source":""},{"t":181.972,"note":91,"dur":0.052,"vel":0.709,"inst":"tom_v0_noise_perc_505","midi_source":""},{"t":182.024,"note":67,"dur":0.105,"vel":0.709,"inst":"tom_v0_noise_perc_505","midi_source":""},{"t":182.024,"note":77,"dur":0.105,"vel":0.709,"inst":"tom_v0_noise_perc_505","midi_source":""},{"t":182.024,"note":91,"dur":0.105,"vel":0.709,"inst":"tom_v0_noise_perc_505","midi_source":""},{"t":182.024,"note":95,"dur":0.105,"vel":0.709,"inst":"tom_v0_noise_perc_505","midi_source":""},{"t":182.129,"note":67,"dur":0.105,"vel":0.709,"inst":"tom_v0_noise_perc_505","midi_source":""},{"t":182.129,"note":77,"dur":0.105,"vel":0.709,"inst":"tom_v0_noise_perc_505","midi_source":""},{"t":182.129,"note":83,"dur":0.105,"vel":0.709,"inst":"tom_v0_noise_perc_505","midi_source":""},{"t":182.129,"note":91,"dur":0.105,"vel":0.709,"inst":"tom_v0_noise_perc_505","midi_source":""},{"t":182.234,"note":67,"dur":0.105,"vel":0.709,"inst":"tom_v0_noise_perc_505","midi_source":""},{"t":182.234,"note":74,"dur":0.105,"vel":0.709,"inst":"tom_v0_bowed_187","midi_source":""},{"t":182.234,"note":84,"dur":0.105,"vel":0.709,"inst":"tom_v0_bowed_187","midi_source":""},{"t":182.234,"note":91,"dur":0.105,"vel":0.709,"inst":"tom_v0_noise_perc_505","midi_source":""},{"t":182.339,"note":71,"dur":0.105,"vel":0.709,"inst":"tom_v0_noise_perc_505","midi_source":""},{"t":182.339,"note":79,"dur":0.21,"vel":0.709,"inst":"tom_v0_noise_perc_505","midi_source":""},{"t":182.339,"note":86,"dur":0.105,"vel":0.709,"inst":"tom_v0_bowed_187","midi_source":""},{"t":182.339,"note":89,"dur":0.105,"vel":0.709,"inst":"tom_v0_noise_perc_505","midi_source":""},{"t":182.444,"note":72,"dur":0.105,"vel":0.709,"inst":"tom_v0_bowed_187","midi_source":""},{"t":182.444,"note":86,"dur":0.105,"vel":0.709,"inst":"tom_v0_bowed_187","midi_source":""},{"t":182.444,"note":89,"dur":0.105,"vel":0.709,"inst":"tom_v0_noise_perc_505","midi_source":""},{"t":182.549,"note":65,"dur":0.105,"vel":0.709,"inst":"tom_v0_noise_perc_505","midi_source":""},{"t":182.549,"note":81,"dur":0.105,"vel":0.709,"inst":"tom_v0_noise_perc_505","midi_source":""},{"t":182.549,"note":84,"dur":0.105,"vel":0.709,"inst":"tom_v0_bowed_187","midi_source":""},{"t":182.549,"note":86,"dur":0.105,"vel":0.709,"inst":"tom_v0_bowed_187","midi_source":""},{"t":182.654,"note":67,"dur":0.21,"vel":0.709,"inst":"tom_v0_noise_perc_505","midi_source":""},{"t":182.654,"note":74,"dur":0.21,"vel":0.709,"inst":"tom_v0_bowed_187","midi_source":""},{"t":182.654,"note":83,"dur":0.21,"vel":0.709,"inst":"tom_v0_noise_perc_505","midi_source":""},{"t":182.654,"note":86,"dur":0.052,"vel":0.709,"inst":"tom_v0_bowed_187","midi_source":""},{"t":182.706,"note":89,"dur":0.052,"vel":0.709,"inst":"tom_v0_noise_perc_505","midi_source":""},{"t":182.759,"note":91,"dur":0.052,"vel":0.709,"inst":"tom_v0_noise_perc_505","midi_source":""},{"t":182.811,"note":89,"dur":0.052,"vel":0.709,"inst":"tom_v0_noise_perc_505","midi_source":""},{"t":182.864,"note":91,"dur":0.052,"vel":0.709,"inst":"tom_v0_noise_perc_505","midi_source":""},{"t":182.916,"note":89,"dur":0.052,"vel":0.709,"inst":"tom_v0_noise_perc_505","midi_source":""},{"t":182.969,"note":86,"dur":0.052,"vel":0.709,"inst":"tom_v0_bowed_187","midi_source":""},{"t":182.969,"note":91,"dur":0.052,"vel":0.709,"inst":"tom_v0_noise_perc_505","midi_source":""},{"t":183.021,"note":84,"dur":0.052,"vel":0.709,"inst":"tom_v0_bowed_187","midi_source":""},{"t":183.021,"note":86,"dur":0.052,"vel":0.709,"inst":"tom_v0_bowed_187","midi_source":""},{"t":183.074,"note":83,"dur":0.052,"vel":0.709,"inst":"tom_v0_noise_perc_505","midi_source":""},{"t":183.074,"note":86,"dur":0.105,"vel":0.709,"inst":"tom_v0_bowed_187","midi_source":""},{"t":183.126,"note":77,"dur":0.052,"vel":0.709,"inst":"tom_v0_noise_perc_505","midi_source":""},{"t":183.179,"note":79,"dur":0.052,"vel":0.709,"inst":"tom_v0_noise_perc_505","midi_source":""},{"t":183.231,"note":77,"dur":0.052,"vel":0.709,"inst":"tom_v0_noise_perc_505","midi_source":""},{"t":183.284,"note":79,"dur":0.052,"vel":0.709,"inst":"tom_v0_noise_perc_505","midi_source":""},{"t":183.336,"note":77,"dur":0.052,"vel":0.709,"inst":"tom_v0_noise_perc_505","midi_source":""},{"t":183.389,"note":74,"dur":0.052,"vel":0.709,"inst":"tom_v0_bowed_187","midi_source":""},{"t":183.389,"note":79,"dur":0.052,"vel":0.709,"inst":"tom_v0_noise_perc_505","midi_source":""},{"t":183.441,"note":72,"dur":0.052,"vel":0.709,"inst":"tom_v0_bowed_187","midi_source":""},{"t":183.441,"note":74,"dur":0.052,"vel":0.709,"inst":"tom_v0_bowed_187","midi_source":""},{"t":183.494,"note":71,"dur":0.052,"vel":0.709,"inst":"tom_v0_noise_perc_505","midi_source":""},{"t":183.494,"note":74,"dur":0.105,"vel":0.709,"inst":"tom_v0_bowed_187","midi_source":""},{"t":183.546,"note":65,"dur":0.052,"vel":0.709,"inst":"tom_v0_noise_perc_505","midi_source":""},{"t":183.599,"note":67,"dur":0.052,"vel":0.709,"inst":"tom_v0_noise_perc_505","midi_source":""},{"t":183.651,"note":65,"dur":0.052,"vel":0.709,"inst":"tom_v0_noise_perc_505","midi_source":""},{"t":183.704,"note":67,"dur":0.052,"vel":0.709,"inst":"tom_v0_noise_perc_505","midi_source":""},{"t":183.756,"note":65,"dur":0.052,"vel":0.709,"inst":"tom_v0_noise_perc_505","midi_source":""},{"t":183.809,"note":62,"dur":0.052,"vel":0.709,"inst":"tom_v0_bowed_187","midi_source":""},{"t":183.809,"note":67,"dur":0.052,"vel":0.709,"inst":"tom_v0_noise_perc_505","midi_source":""},{"t":183.861,"note":60,"dur":0.052,"vel":0.709,"inst":"tom_v0_bowed_187","midi_source":""},{"t":183.861,"note":62,"dur":0.052,"vel":0.709,"inst":"tom_v0_bowed_187","midi_source":""},{"t":183.914,"note":59,"dur":0.052,"vel":0.709,"inst":"tom_v0_noise_perc_505","midi_source":""},{"t":183.914,"note":62,"dur":0.105,"vel":0.709,"inst":"tom_v0_bowed_187","midi_source":""},{"t":183.966,"note":53,"dur":0.052,"vel":0.709,"inst":"tom_v0_noise_perc_505","midi_source":""},{"t":184.019,"note":55,"dur":0.052,"vel":0.709,"inst":"tom_v0_noise_perc_505","midi_source":""},{"t":184.071,"note":53,"dur":0.052,"vel":0.709,"inst":"tom_v0_noise_perc_505","midi_source":""},{"t":184.124,"note":55,"dur":0.052,"vel":0.709,"inst":"tom_v0_noise_perc_505","midi_source":""},{"t":184.176,"note":53,"dur":0.052,"vel":0.709,"inst":"tom_v0_noise_perc_505","midi_source":""},{"t":184.229,"note":55,"dur":0.052,"vel":0.709,"inst":"tom_v0_noise_perc_505","midi_source":""},{"t":184.281,"note":50,"dur":0.052,"vel":0.709,"inst":"tom_v0_bowed_187","midi_source":""},{"t":184.334,"note":50,"dur":0.315,"vel":0.709,"inst":"tom_v0_bowed_187","midi_source":""},{"t":184.334,"note":57,"dur":0.315,"vel":0.709,"inst":"tom_v0_noise_perc_505","midi_source":""},{"t":184.334,"note":69,"dur":0.315,"vel":0.709,"inst":"tom_v0_noise_perc_505","midi_source":""},{"t":184.334,"note":74,"dur":0.315,"vel":0.709,"inst":"tom_v0_bowed_187","midi_source":""},{"t":184.334,"note":74,"dur":0.315,"vel":0.709,"inst":"tom_v0_bowed_187","midi_source":""},{"t":184.334,"note":81,"dur":0.315,"vel":0.709,"inst":"tom_v0_noise_perc_505","midi_source":""},{"t":184.334,"note":81,"dur":0.315,"vel":0.709,"inst":"tom_v0_noise_perc_505","midi_source":""},{"t":184.334,"note":89,"dur":0.315,"vel":0.709,"inst":"tom_v0_noise_perc_505","midi_source":""},{"t":184.334,"note":91,"dur":0.315,"vel":0.709,"inst":"tom_v0_noise_perc_505","midi_source":""},{"t":184.648,"note":62,"dur":0.105,"vel":0.709,"inst":"tom_v0_bowed_187","midi_source":""},{"t":184.648,"note":65,"dur":0.105,"vel":0.709,"inst":"tom_v0_noise_perc_505","midi_source":""},{"t":184.648,"note":67,"dur":0.105,"vel":0.709,"inst":"tom_v0_noise_perc_505","midi_source":""},{"t":184.648,"note":69,"dur":0.105,"vel":0.709,"inst":"tom_v0_noise_perc_505","midi_source":""},{"t":184.753,"note":50,"dur":0.105,"vel":0.709,"inst":"tom_v0_bowed_187","midi_source":""},{"t":184.753,"note":62,"dur":0.105,"vel":0.709,"inst":"tom_v0_bowed_187","midi_source":""},{"t":184.753,"note":67,"dur":0.105,"vel":0.709,"inst":"tom_v0_noise_perc_505","midi_source":""},{"t":184.753,"note":69,"dur":0.105,"vel":0.709,"inst":"tom_v0_noise_perc_505","midi_source":""},{"t":184.858,"note":50,"dur":0.105,"vel":0.709,"inst":"tom_v0_bowed_187","midi_source":""},{"t":184.858,"note":62,"dur":0.105,"vel":0.709,"inst":"tom_v0_bowed_187","midi_source":""},{"t":184.858,"note":67,"dur":0.105,"vel":0.709,"inst":"tom_v0_noise_perc_505","midi_source":""},{"t":184.858,"note":69,"dur":0.105,"vel":0.709,"inst":"tom_v0_noise_perc_505","midi_source":""},{"t":185.068,"note":60,"dur":0.105,"vel":0.709,"inst":"tom_v0_bowed_187","midi_source":""},{"t":185.068,"note":62,"dur":0.105,"vel":0.709,"inst":"tom_v0_bowed_187","midi_source":""},{"t":185.068,"note":67,"dur":0.105,"vel":0.709,"inst":"tom_v0_noise_perc_505","midi_source":""},{"t":185.068,"note":72,"dur":0.105,"vel":0.709,"inst":"tom_v0_bowed_187","midi_source":""},{"t":185.173,"note":55,"dur":0.21,"vel":0.709,"inst":"tom_v0_noise_perc_505","midi_source":""},{"t":185.173,"note":62,"dur":0.21,"vel":0.709,"inst":"tom_v0_bowed_187","midi_source":""},{"t":185.173,"note":69,"dur":0.105,"vel":0.709,"inst":"tom_v0_noise_perc_505","midi_source":""},{"t":185.173,"note":72,"dur":0.105,"vel":0.709,"inst":"tom_v0_bowed_187","midi_source":""},{"t":185.278,"note":69,"dur":0.105,"vel":0.709,"inst":"tom_v0_noise_perc_505","midi_source":""},{"t":185.278,"note":62,"dur":0.105,"vel":0.709,"inst":"tom_v0_bowed_187","midi_source":""},{"t":185.488,"note":67,"dur":0.105,"vel":0.709,"inst":"tom_v0_noise_perc_505","midi_source":""},{"t":185.488,"note":69,"dur":0.105,"vel":0.709,"inst":"tom_v0_noise_perc_505","midi_source":""},{"t":185.488,"note":62,"dur":0.105,"vel":0.709,"inst":"tom_v0_bowed_187","midi_source":""},{"t":185.488,"note":74,"dur":0.21,"vel":0.709,"inst":"tom_v0_bowed_187","midi_source":""},{"t":185.593,"note":67,"dur":0.105,"vel":0.709,"inst":"tom_v0_noise_perc_505","midi_source":""},{"t":185.593,"note":67,"dur":0.105,"vel":0.709,"inst":"tom_v0_noise_perc_505","midi_source":""},{"t":185.593,"note":72,"dur":0.21,"vel":0.709,"inst":"tom_v0_bowed_187","midi_source":""},{"t":185.698,"note":67,"dur":0.105,"vel":0.709,"inst":"tom_v0_noise_perc_505","midi_source":""},{"t":185.698,"note":69,"dur":0.105,"vel":0.709,"inst":"tom_v0_noise_perc_505","midi_source":""},{"t":185.698,"note":76,"dur":0.105,"vel":0.709,"inst":"tom_v0_bowed_187","midi_source":""},{"t":185.803,"note":65,"dur":0.105,"vel":0.709,"inst":"tom_v0_noise_perc_505","midi_source":""},{"t":185.803,"note":67,"dur":0.105,"vel":0.709,"inst":"tom_v0_noise_perc_505","midi_source":""},{"t":185.803,"note":74,"dur":0.105,"vel":0.709,"inst":"tom_v0_bowed_187","midi_source":""},{"t":185.803,"note":77,"dur":0.105,"vel":0.709,"inst":"tom_v0_noise_perc_505","midi_source":""},{"t":185.908,"note":62,"dur":0.105,"vel":0.709,"inst":"tom_v0_bowed_187","midi_source":""},{"t":185.908,"note":67,"dur":0.105,"vel":0.709,"inst":"tom_v0_noise_perc_505","midi_source":""},{"t":185.908,"note":74,"dur":0.105,"vel":0.709,"inst":"tom_v0_bowed_187","midi_source":""},{"t":185.908,"note":79,"dur":0.105,"vel":0.709,"inst":"tom_v0_noise_perc_505","midi_source":""},{"t":186.013,"note":62,"dur":0.21,"vel":0.709,"inst":"tom_v0_bowed_187","midi_source":""},{"t":186.013,"note":65,"dur":0.21,"vel":0.709,"inst":"tom_v0_noise_perc_505","midi_source":""},{"t":186.013,"note":69,"dur":0.21,"vel":0.709,"inst":"tom_v0_noise_perc_505","midi_source":""},{"t":186.013,"note":81,"dur":0.105,"vel":0.709,"inst":"tom_v0_noise_perc_505","midi_source":""},{"t":186.118,"note":79,"dur":0.105,"vel":0.709,"inst":"tom_v0_noise_perc_505","midi_source":""},{"t":186.328,"note":62,"dur":0.105,"vel":0.709,"inst":"tom_v0_bowed_187","midi_source":""},{"t":186.328,"note":69,"dur":0.105,"vel":0.709,"inst":"tom_v0_noise_perc_505","midi_source":""},{"t":186.328,"note":77,"dur":0.105,"vel":0.709,"inst":"tom_v0_noise_perc_505","midi_source":""},{"t":186.328,"note":79,"dur":0.105,"vel":0.709,"inst":"tom_v0_noise_perc_505","midi_source":""},{"t":186.433,"note":62,"dur":0.21,"vel":0.709,"inst":"tom_v0_bowed_187","midi_source":""},{"t":186.433,"note":74,"dur":0.105,"vel":0.709,"inst":"tom_v0_bowed_187","midi_source":""},{"t":186.433,"note":74,"dur":0.525,"vel":0.709,"inst":"tom_v0_bowed_187","midi_source":""},{"t":186.433,"note":79,"dur":0.105,"vel":0.709,"inst":"tom_v0_noise_perc_505","midi_source":""},{"t":186.538,"note":77,"dur":0.21,"vel":0.709,"inst":"tom_v0_noise_perc_505","midi_source":""},{"t":186.538,"note":79,"dur":0.21,"vel":0.709,"inst":"tom_v0_noise_perc_505","midi_source":""},{"t":186.643,"note":62,"dur":0.21,"vel":0.709,"inst":"tom_v0_bowed_187","midi_source":""},{"t":186.748,"note":67,"dur":0.105,"vel":0.709,"inst":"tom_v0_noise_perc_505","midi_source":""},{"t":186.748,"note":74,"dur":0.105,"vel":0.709,"inst":"tom_v0_bowed_187","midi_source":""},{"t":186.748,"note":91,"dur":0.105,"vel":0.709,"inst":"tom_v0_noise_perc_505","midi_source":""},{"t":186.748,"note":96,"dur":0.105,"vel":0.709,"inst":"tom_v0_bowed_187","midi_source":""},{"t":186.853,"note":67,"dur":0.105,"vel":0.709,"inst":"tom_v0_noise_perc_505","midi_source":""},{"t":186.853,"note":74,"dur":0.157,"vel":0.709,"inst":"tom_v0_bowed_187","midi_source":""},{"t":186.853,"note":89,"dur":0.157,"vel":0.709,"inst":"tom_v0_noise_perc_505","midi_source":""},{"t":186.853,"note":96,"dur":0.21,"vel":0.709,"inst":"tom_v0_bowed_187","midi_source":""},{"t":186.958,"note":67,"dur":0.105,"vel":0.709,"inst":"tom_v0_noise_perc_505","midi_source":""},{"t":187.011,"note":74,"dur":0.052,"vel":0.709,"inst":"tom_v0_bowed_187","midi_source":""},{"t":187.011,"note":91,"dur":0.052,"vel":0.709,"inst":"tom_v0_noise_perc_505","midi_source":""},{"t":187.063,"note":67,"dur":0.105,"vel":0.709,"inst":"tom_v0_noise_perc_505","midi_source":""},{"t":187.063,"note":77,"dur":0.105,"vel":0.709,"inst":"tom_v0_noise_perc_505","midi_source":""},{"t":187.063,"note":91,"dur":0.105,"vel":0.709,"inst":"tom_v0_noise_perc_505","midi_source":""},{"t":187.063,"note":95,"dur":0.105,"vel":0.709,"inst":"tom_v0_noise_perc_505","midi_source":""},{"t":187.168,"note":67,"dur":0.105,"vel":0.709,"inst":"tom_v0_noise_perc_505","midi_source":""},{"t":187.168,"note":77,"dur":0.105,"vel":0.709,"inst":"tom_v0_noise_perc_505","midi_source":""},{"t":187.168,"note":83,"dur":0.105,"vel":0.709,"inst":"tom_v0_noise_perc_505","midi_source":""},{"t":187.168,"note":91,"dur":0.105,"vel":0.709,"inst":"tom_v0_noise_perc_505","midi_source":""},{"t":187.273,"note":67,"dur":0.105,"vel":0.709,"inst":"tom_v0_noise_perc_505","midi_source":""},{"t":187.273,"note":74,"dur":0.105,"vel":0.709,"inst":"tom_v0_bowed_187","midi_source":""},{"t":187.273,"note":84,"dur":0.105,"vel":0.709,"inst":"tom_v0_bowed_187","midi_source":""},{"t":187.273,"note":91,"dur":0.105,"vel":0.709,"inst":"tom_v0_noise_perc_505","midi_source":""},{"t":187.378,"note":71,"dur":0.105,"vel":0.709,"inst":"tom_v0_noise_perc_505","midi_source":""},{"t":187.378,"note":79,"dur":0.21,"vel":0.709,"inst":"tom_v0_noise_perc_505","midi_source":""},{"t":187.378,"note":86,"dur":0.105,"vel":0.709,"inst":"tom_v0_bowed_187","midi_source":""},{"t":187.378,"note":89,"dur":0.105,"vel":0.709,"inst":"tom_v0_noise_perc_505","midi_source":""},{"t":187.483,"note":72,"dur":0.105,"vel":0.709,"inst":"tom_v0_bowed_187","midi_source":""},{"t":187.483,"note":86,"dur":0.105,"vel":0.709,"inst":"tom_v0_bowed_187","midi_source":""},{"t":187.483,"note":89,"dur":0.105,"vel":0.709,"inst":"tom_v0_noise_perc_505","midi_source":""},{"t":187.588,"note":65,"dur":0.105,"vel":0.709,"inst":"tom_v0_noise_perc_505","midi_source":""},{"t":187.588,"note":81,"dur":0.105,"vel":0.709,"inst":"tom_v0_noise_perc_505","midi_source":""},{"t":187.588,"note":84,"dur":0.105,"vel":0.709,"inst":"tom_v0_bowed_187","midi_source":""},{"t":187.588,"note":86,"dur":0.105,"vel":0.709,"inst":"tom_v0_bowed_187","midi_source":""},{"t":187.693,"note":67,"dur":0.21,"vel":0.709,"inst":"tom_v0_noise_perc_505","midi_source":""},{"t":187.693,"note":74,"dur":0.21,"vel":0.709,"inst":"tom_v0_bowed_187","midi_source":""},{"t":187.693,"note":83,"dur":0.21,"vel":0.709,"inst":"tom_v0_noise_perc_505","midi_source":""},{"t":187.693,"note":86,"dur":0.052,"vel":0.709,"inst":"tom_v0_bowed_187","midi_source":""},{"t":187.745,"note":89,"dur":0.052,"vel":0.709,"inst":"tom_v0_noise_perc_505","midi_source":""},{"t":187.798,"note":91,"dur":0.052,"vel":0.709,"inst":"tom_v0_noise_perc_505","midi_source":""},{"t":187.85,"note":89,"dur":0.052,"vel":0.709,"inst":"tom_v0_noise_perc_505","midi_source":""},{"t":187.903,"note":91,"dur":0.052,"vel":0.709,"inst":"tom_v0_noise_perc_505","midi_source":""},{"t":187.955,"note":89,"dur":0.052,"vel":0.709,"inst":"tom_v0_noise_perc_505","midi_source":""},{"t":188.008,"note":86,"dur":0.052,"vel":0.709,"inst":"tom_v0_bowed_187","midi_source":""},{"t":188.008,"note":91,"dur":0.052,"vel":0.709,"inst":"tom_v0_noise_perc_505","midi_source":""},{"t":188.06,"note":84,"dur":0.052,"vel":0.709,"inst":"tom_v0_bowed_187","midi_source":""},{"t":188.06,"note":86,"dur":0.052,"vel":0.709,"inst":"tom_v0_bowed_187","midi_source":""},{"t":188.113,"note":83,"dur":0.052,"vel":0.709,"inst":"tom_v0_noise_perc_505","midi_source":""},{"t":188.113,"note":86,"dur":0.105,"vel":0.709,"inst":"tom_v0_bowed_187","midi_source":""},{"t":188.165,"note":77,"dur":0.052,"vel":0.709,"inst":"tom_v0_noise_perc_505","midi_source":""},{"t":188.218,"note":79,"dur":0.052,"vel":0.709,"inst":"tom_v0_noise_perc_505","midi_source":""},{"t":188.27,"note":77,"dur":0.052,"vel":0.709,"inst":"tom_v0_noise_perc_505","midi_source":""},{"t":188.323,"note":79,"dur":0.052,"vel":0.709,"inst":"tom_v0_noise_perc_505","midi_source":""},{"t":188.375,"note":77,"dur":0.052,"vel":0.709,"inst":"tom_v0_noise_perc_505","midi_source":""},{"t":188.428,"note":74,"dur":0.052,"vel":0.709,"inst":"tom_v0_bowed_187","midi_source":""},{"t":188.428,"note":79,"dur":0.052,"vel":0.709,"inst":"tom_v0_noise_perc_505","midi_source":""},{"t":188.48,"note":72,"dur":0.052,"vel":0.709,"inst":"tom_v0_bowed_187","midi_source":""},{"t":188.48,"note":74,"dur":0.052,"vel":0.709,"inst":"tom_v0_bowed_187","midi_source":""},{"t":188.533,"note":71,"dur":0.052,"vel":0.709,"inst":"tom_v0_noise_perc_505","midi_source":""},{"t":188.533,"note":74,"dur":0.105,"vel":0.709,"inst":"tom_v0_bowed_187","midi_source":""},{"t":188.585,"note":65,"dur":0.052,"vel":0.709,"inst":"tom_v0_noise_perc_505","midi_source":""},{"t":188.638,"note":67,"dur":0.052,"vel":0.709,"inst":"tom_v0_noise_perc_505","midi_source":""},{"t":188.69,"note":65,"dur":0.052,"vel":0.709,"inst":"tom_v0_noise_perc_505","midi_source":""},{"t":188.743,"note":67,"dur":0.052,"vel":0.709,"inst":"tom_v0_noise_perc_505","midi_source":""},{"t":188.795,"note":65,"dur":0.052,"vel":0.709,"inst":"tom_v0_noise_perc_505","midi_source":""},{"t":188.848,"note":62,"dur":0.052,"vel":0.709,"inst":"tom_v0_bowed_187","midi_source":""},{"t":188.848,"note":67,"dur":0.052,"vel":0.709,"inst":"tom_v0_noise_perc_505","midi_source":""},{"t":188.9,"note":60,"dur":0.052,"vel":0.709,"inst":"tom_v0_bowed_187","midi_source":""},{"t":188.9,"note":62,"dur":0.052,"vel":0.709,"inst":"tom_v0_bowed_187","midi_source":""},{"t":188.953,"note":59,"dur":0.052,"vel":0.709,"inst":"tom_v0_noise_perc_505","midi_source":""},{"t":188.953,"note":62,"dur":0.105,"vel":0.709,"inst":"tom_v0_bowed_187","midi_source":""},{"t":189.005,"note":53,"dur":0.052,"vel":0.709,"inst":"tom_v0_noise_perc_505","midi_source":""},{"t":189.058,"note":55,"dur":0.052,"vel":0.709,"inst":"tom_v0_noise_perc_505","midi_source":""},{"t":189.11,"note":53,"dur":0.052,"vel":0.709,"inst":"tom_v0_noise_perc_505","midi_source":""},{"t":189.163,"note":55,"dur":0.052,"vel":0.709,"inst":"tom_v0_noise_perc_505","midi_source":""},{"t":189.215,"note":53,"dur":0.052,"vel":0.709,"inst":"tom_v0_noise_perc_505","midi_source":""},{"t":189.268,"note":55,"dur":0.052,"vel":0.709,"inst":"tom_v0_noise_perc_505","midi_source":""},{"t":189.32,"note":50,"dur":0.052,"vel":0.709,"inst":"tom_v0_bowed_187","midi_source":""},{"t":189.373,"note":50,"dur":0.315,"vel":0.709,"inst":"tom_v0_bowed_187","midi_source":""},{"t":189.373,"note":57,"dur":0.315,"vel":0.709,"inst":"tom_v0_noise_perc_505","midi_source":""},{"t":189.373,"note":69,"dur":0.315,"vel":0.709,"inst":"tom_v0_noise_perc_505","midi_source":""},{"t":189.373,"note":74,"dur":0.315,"vel":0.709,"inst":"tom_v0_bowed_187","midi_source":""},{"t":189.373,"note":74,"dur":0.315,"vel":0.709,"inst":"tom_v0_bowed_187","midi_source":""},{"t":189.373,"note":81,"dur":0.315,"vel":0.709,"inst":"tom_v0_noise_perc_505","midi_source":""},{"t":189.373,"note":81,"dur":0.315,"vel":0.709,"inst":"tom_v0_noise_perc_505","midi_source":""},{"t":189.373,"note":89,"dur":0.315,"vel":0.709,"inst":"tom_v0_noise_perc_505","midi_source":""},{"t":189.373,"note":91,"dur":0.315,"vel":0.709,"inst":"tom_v0_noise_perc_505","midi_source":""},{"t":189.687,"note":62,"dur":0.105,"vel":0.709,"inst":"tom_v0_bowed_187","midi_source":""},{"t":189.687,"note":65,"dur":0.105,"vel":0.709,"inst":"tom_v0_noise_perc_505","midi_source":""},{"t":189.687,"note":67,"dur":0.105,"vel":0.709,"inst":"tom_v0_noise_perc_505","midi_source":""},{"t":189.687,"note":69,"dur":0.105,"vel":0.709,"inst":"tom_v0_noise_perc_505","midi_source":""},{"t":189.792,"note":50,"dur":0.105,"vel":0.709,"inst":"tom_v0_bowed_187","midi_source":""},{"t":189.792,"note":62,"dur":0.105,"vel":0.709,"inst":"tom_v0_bowed_187","midi_source":""},{"t":189.792,"note":67,"dur":0.105,"vel":0.709,"inst":"tom_v0_noise_perc_505","midi_source":""},{"t":189.792,"note":69,"dur":0.105,"vel":0.709,"inst":"tom_v0_noise_perc_505","midi_source":""},{"t":189.897,"note":50,"dur":0.105,"vel":0.709,"inst":"tom_v0_bowed_187","midi_source":""},{"t":189.897,"note":62,"dur":0.105,"vel":0.709,"inst":"tom_v0_bowed_187","midi_source":""},{"t":189.897,"note":67,"dur":0.105,"vel":0.709,"inst":"tom_v0_noise_perc_505","midi_source":""},{"t":189.897,"note":69,"dur":0.105,"vel":0.709,"inst":"tom_v0_noise_perc_505","midi_source":""},{"t":190.107,"note":60,"dur":0.105,"vel":0.709,"inst":"tom_v0_bowed_187","midi_source":""},{"t":190.107,"note":62,"dur":0.105,"vel":0.709,"inst":"tom_v0_bowed_187","midi_source":""},{"t":190.107,"note":67,"dur":0.105,"vel":0.709,"inst":"tom_v0_noise_perc_505","midi_source":""},{"t":190.107,"note":72,"dur":0.105,"vel":0.709,"inst":"tom_v0_bowed_187","midi_source":""},{"t":190.212,"note":55,"dur":0.21,"vel":0.709,"inst":"tom_v0_noise_perc_505","midi_source":""},{"t":190.212,"note":62,"dur":0.21,"vel":0.709,"inst":"tom_v0_bowed_187","midi_source":""},{"t":190.212,"note":69,"dur":0.105,"vel":0.709,"inst":"tom_v0_noise_perc_505","midi_source":""},{"t":190.212,"note":72,"dur":0.105,"vel":0.709,"inst":"tom_v0_bowed_187","midi_source":""},{"t":190.317,"note":69,"dur":0.105,"vel":0.709,"inst":"tom_v0_noise_perc_505","midi_source":""},{"t":190.317,"note":62,"dur":0.105,"vel":0.709,"inst":"tom_v0_bowed_187","midi_source":""},{"t":190.527,"note":67,"dur":0.105,"vel":0.709,"inst":"tom_v0_noise_perc_505","midi_source":""},{"t":190.527,"note":69,"dur":0.105,"vel":0.709,"inst":"tom_v0_noise_perc_505","midi_source":""},{"t":190.527,"note":62,"dur":0.105,"vel":0.709,"inst":"tom_v0_bowed_187","midi_source":""},{"t":190.527,"note":74,"dur":0.21,"vel":0.709,"inst":"tom_v0_bowed_187","midi_source":""},{"t":190.632,"note":67,"dur":0.105,"vel":0.709,"inst":"tom_v0_noise_perc_505","midi_source":""},{"t":190.632,"note":67,"dur":0.105,"vel":0.709,"inst":"tom_v0_noise_perc_505","midi_source":""},{"t":190.632,"note":72,"dur":0.21,"vel":0.709,"inst":"tom_v0_bowed_187","midi_source":""},{"t":190.737,"note":67,"dur":0.105,"vel":0.709,"inst":"tom_v0_noise_perc_505","midi_source":""},{"t":190.737,"note":69,"dur":0.105,"vel":0.709,"inst":"tom_v0_noise_perc_505","midi_source":""},{"t":190.737,"note":76,"dur":0.105,"vel":0.709,"inst":"tom_v0_bowed_187","midi_source":""},{"t":190.842,"note":65,"dur":0.105,"vel":0.709,"inst":"tom_v0_noise_perc_505","midi_source":""},{"t":190.842,"note":67,"dur":0.105,"vel":0.709,"inst":"tom_v0_noise_perc_505","midi_source":""},{"t":190.842,"note":74,"dur":0.105,"vel":0.709,"inst":"tom_v0_bowed_187","midi_source":""},{"t":190.842,"note":77,"dur":0.105,"vel":0.709,"inst":"tom_v0_noise_perc_505","midi_source":""},{"t":190.947,"note":62,"dur":0.105,"vel":0.709,"inst":"tom_v0_bowed_187","midi_source":""},{"t":190.947,"note":67,"dur":0.105,"vel":0.709,"inst":"tom_v0_noise_perc_505","midi_source":""},{"t":190.947,"note":74,"dur":0.105,"vel":0.709,"inst":"tom_v0_bowed_187","midi_source":""},{"t":190.947,"note":79,"dur":0.105,"vel":0.709,"inst":"tom_v0_noise_perc_505","midi_source":""},{"t":191.052,"note":62,"dur":0.21,"vel":0.709,"inst":"tom_v0_bowed_187","midi_source":""},{"t":191.052,"note":65,"dur":0.21,"vel":0.709,"inst":"tom_v0_noise_perc_505","midi_source":""},{"t":191.052,"note":69,"dur":0.21,"vel":0.709,"inst":"tom_v0_noise_perc_505","midi_source":""},{"t":191.052,"note":81,"dur":0.105,"vel":0.709,"inst":"tom_v0_noise_perc_505","midi_source":""},{"t":191.157,"note":79,"dur":0.105,"vel":0.709,"inst":"tom_v0_noise_perc_505","midi_source":""},{"t":191.367,"note":62,"dur":0.105,"vel":0.709,"inst":"tom_v0_bowed_187","midi_source":""},{"t":191.367,"note":69,"dur":0.105,"vel":0.709,"inst":"tom_v0_noise_perc_505","midi_source":""},{"t":191.367,"note":77,"dur":0.105,"vel":0.709,"inst":"tom_v0_noise_perc_505","midi_source":""},{"t":191.367,"note":79,"dur":0.105,"vel":0.709,"inst":"tom_v0_noise_perc_505","midi_source":""},{"t":191.472,"note":62,"dur":0.21,"vel":0.709,"inst":"tom_v0_bowed_187","midi_source":""},{"t":191.472,"note":74,"dur":0.105,"vel":0.709,"inst":"tom_v0_bowed_187","midi_source":""},{"t":191.472,"note":74,"dur":0.525,"vel":0.709,"inst":"tom_v0_bowed_187","midi_source":""},{"t":191.472,"note":79,"dur":0.105,"vel":0.709,"inst":"tom_v0_noise_perc_505","midi_source":""},{"t":191.577,"note":77,"dur":0.21,"vel":0.709,"inst":"tom_v0_noise_perc_505","midi_source":""},{"t":191.577,"note":79,"dur":0.21,"vel":0.709,"inst":"tom_v0_noise_perc_505","midi_source":""},{"t":191.682,"note":62,"dur":0.21,"vel":0.709,"inst":"tom_v0_bowed_187","midi_source":""},{"t":191.787,"note":67,"dur":0.105,"vel":0.709,"inst":"tom_v0_noise_perc_505","midi_source":""},{"t":191.787,"note":74,"dur":0.105,"vel":0.709,"inst":"tom_v0_bowed_187","midi_source":""},{"t":191.787,"note":91,"dur":0.105,"vel":0.709,"inst":"tom_v0_noise_perc_505","midi_source":""},{"t":191.787,"note":96,"dur":0.105,"vel":0.709,"inst":"tom_v0_bowed_187","midi_source":""},{"t":191.892,"note":67,"dur":0.105,"vel":0.709,"inst":"tom_v0_noise_perc_505","midi_source":""},{"t":191.892,"note":74,"dur":0.157,"vel":0.709,"inst":"tom_v0_bowed_187","midi_source":""},{"t":191.892,"note":89,"dur":0.157,"vel":0.709,"inst":"tom_v0_noise_perc_505","midi_source":""},{"t":191.892,"note":96,"dur":0.21,"vel":0.709,"inst":"tom_v0_bowed_187","midi_source":""},{"t":191.997,"note":67,"dur":0.105,"vel":0.709,"inst":"tom_v0_noise_perc_505","midi_source":""},{"t":192.049,"note":74,"dur":0.052,"vel":0.709,"inst":"tom_v0_bowed_187","midi_source":""},{"t":192.049,"note":91,"dur":0.052,"vel":0.709,"inst":"tom_v0_noise_perc_505","midi_source":""},{"t":192.102,"note":67,"dur":0.105,"vel":0.709,"inst":"tom_v0_noise_perc_505","midi_source":""},{"t":192.102,"note":77,"dur":0.105,"vel":0.709,"inst":"tom_v0_noise_perc_505","midi_source":""},{"t":192.102,"note":91,"dur":0.105,"vel":0.709,"inst":"tom_v0_noise_perc_505","midi_source":""},{"t":192.102,"note":95,"dur":0.105,"vel":0.709,"inst":"tom_v0_noise_perc_505","midi_source":""},{"t":192.207,"note":67,"dur":0.105,"vel":0.709,"inst":"tom_v0_noise_perc_505","midi_source":""},{"t":192.207,"note":77,"dur":0.105,"vel":0.709,"inst":"tom_v0_noise_perc_505","midi_source":""},{"t":192.207,"note":83,"dur":0.105,"vel":0.709,"inst":"tom_v0_noise_perc_505","midi_source":""},{"t":192.207,"note":91,"dur":0.105,"vel":0.709,"inst":"tom_v0_noise_perc_505","midi_source":""},{"t":192.312,"note":67,"dur":0.105,"vel":0.709,"inst":"tom_v0_noise_perc_505","midi_source":""},{"t":192.312,"note":74,"dur":0.105,"vel":0.709,"inst":"tom_v0_bowed_187","midi_source":""},{"t":192.312,"note":84,"dur":0.105,"vel":0.709,"inst":"tom_v0_bowed_187","midi_source":""},{"t":192.312,"note":91,"dur":0.105,"vel":0.709,"inst":"tom_v0_noise_perc_505","midi_source":""},{"t":192.417,"note":71,"dur":0.105,"vel":0.709,"inst":"tom_v0_noise_perc_505","midi_source":""},{"t":192.417,"note":79,"dur":0.21,"vel":0.709,"inst":"tom_v0_noise_perc_505","midi_source":""},{"t":192.417,"note":86,"dur":0.105,"vel":0.709,"inst":"tom_v0_bowed_187","midi_source":""},{"t":192.417,"note":89,"dur":0.105,"vel":0.709,"inst":"tom_v0_noise_perc_505","midi_source":""},{"t":192.522,"note":72,"dur":0.105,"vel":0.709,"inst":"tom_v0_bowed_187","midi_source":""},{"t":192.522,"note":86,"dur":0.105,"vel":0.709,"inst":"tom_v0_bowed_187","midi_source":""},{"t":192.522,"note":89,"dur":0.105,"vel":0.709,"inst":"tom_v0_noise_perc_505","midi_source":""},{"t":192.627,"note":65,"dur":0.105,"vel":0.709,"inst":"tom_v0_noise_perc_505","midi_source":""},{"t":192.627,"note":81,"dur":0.105,"vel":0.709,"inst":"tom_v0_noise_perc_505","midi_source":""},{"t":192.627,"note":84,"dur":0.105,"vel":0.709,"inst":"tom_v0_bowed_187","midi_source":""},{"t":192.627,"note":86,"dur":0.105,"vel":0.709,"inst":"tom_v0_bowed_187","midi_source":""},{"t":192.732,"note":67,"dur":0.21,"vel":0.709,"inst":"tom_v0_noise_perc_505","midi_source":""},{"t":192.732,"note":74,"dur":0.21,"vel":0.709,"inst":"tom_v0_bowed_187","midi_source":""},{"t":192.732,"note":83,"dur":0.21,"vel":0.709,"inst":"tom_v0_noise_perc_505","midi_source":""},{"t":192.732,"note":86,"dur":0.052,"vel":0.709,"inst":"tom_v0_bowed_187","midi_source":""},{"t":192.784,"note":89,"dur":0.052,"vel":0.709,"inst":"tom_v0_noise_perc_505","midi_source":""},{"t":192.837,"note":91,"dur":0.052,"vel":0.709,"inst":"tom_v0_noise_perc_505","midi_source":""},{"t":192.889,"note":89,"dur":0.052,"vel":0.709,"inst":"tom_v0_noise_perc_505","midi_source":""},{"t":192.942,"note":91,"dur":0.052,"vel":0.709,"inst":"tom_v0_noise_perc_505","midi_source":""},{"t":192.994,"note":89,"dur":0.052,"vel":0.709,"inst":"tom_v0_noise_perc_505","midi_source":""},{"t":193.047,"note":86,"dur":0.052,"vel":0.709,"inst":"tom_v0_bowed_187","midi_source":""},{"t":193.047,"note":91,"dur":0.052,"vel":0.709,"inst":"tom_v0_noise_perc_505","midi_source":""},{"t":193.099,"note":84,"dur":0.052,"vel":0.709,"inst":"tom_v0_bowed_187","midi_source":""},{"t":193.099,"note":86,"dur":0.052,"vel":0.709,"inst":"tom_v0_bowed_187","midi_source":""},{"t":193.152,"note":83,"dur":0.052,"vel":0.709,"inst":"tom_v0_noise_perc_505","midi_source":""},{"t":193.152,"note":86,"dur":0.105,"vel":0.709,"inst":"tom_v0_bowed_187","midi_source":""},{"t":193.204,"note":77,"dur":0.052,"vel":0.709,"inst":"tom_v0_noise_perc_505","midi_source":""},{"t":193.257,"note":79,"dur":0.052,"vel":0.709,"inst":"tom_v0_noise_perc_505","midi_source":""},{"t":193.309,"note":77,"dur":0.052,"vel":0.709,"inst":"tom_v0_noise_perc_505","midi_source":""},{"t":193.362,"note":79,"dur":0.052,"vel":0.709,"inst":"tom_v0_noise_perc_505","midi_source":""},{"t":193.414,"note":77,"dur":0.052,"vel":0.709,"inst":"tom_v0_noise_perc_505","midi_source":""},{"t":193.467,"note":74,"dur":0.052,"vel":0.709,"inst":"tom_v0_bowed_187","midi_source":""},{"t":193.467,"note":79,"dur":0.052,"vel":0.709,"inst":"tom_v0_noise_perc_505","midi_source":""},{"t":193.519,"note":72,"dur":0.052,"vel":0.709,"inst":"tom_v0_bowed_187","midi_source":""},{"t":193.519,"note":74,"dur":0.052,"vel":0.709,"inst":"tom_v0_bowed_187","midi_source":""},{"t":193.572,"note":71,"dur":0.052,"vel":0.709,"inst":"tom_v0_noise_perc_505","midi_source":""},{"t":193.572,"note":74,"dur":0.105,"vel":0.709,"inst":"tom_v0_bowed_187","midi_source":""},{"t":193.624,"note":65,"dur":0.052,"vel":0.709,"inst":"tom_v0_noise_perc_505","midi_source":""},{"t":193.677,"note":67,"dur":0.052,"vel":0.709,"inst":"tom_v0_noise_perc_505","midi_source":""},{"t":193.729,"note":65,"dur":0.052,"vel":0.709,"inst":"tom_v0_noise_perc_505","midi_source":""},{"t":193.782,"note":67,"dur":0.052,"vel":0.709,"inst":"tom_v0_noise_perc_505","midi_source":""},{"t":193.834,"note":65,"dur":0.052,"vel":0.709,"inst":"tom_v0_noise_perc_505","midi_source":""},{"t":193.887,"note":62,"dur":0.052,"vel":0.709,"inst":"tom_v0_bowed_187","midi_source":""},{"t":193.887,"note":67,"dur":0.052,"vel":0.709,"inst":"tom_v0_noise_perc_505","midi_source":""},{"t":193.939,"note":60,"dur":0.052,"vel":0.709,"inst":"tom_v0_bowed_187","midi_source":""},{"t":193.939,"note":62,"dur":0.052,"vel":0.709,"inst":"tom_v0_bowed_187","midi_source":""},{"t":193.992,"note":59,"dur":0.052,"vel":0.709,"inst":"tom_v0_noise_perc_505","midi_source":""},{"t":193.992,"note":62,"dur":0.105,"vel":0.709,"inst":"tom_v0_bowed_187","midi_source":""},{"t":194.044,"note":53,"dur":0.052,"vel":0.709,"inst":"tom_v0_noise_perc_505","midi_source":""},{"t":194.097,"note":55,"dur":0.052,"vel":0.709,"inst":"tom_v0_noise_perc_505","midi_source":""},{"t":194.149,"note":53,"dur":0.052,"vel":0.709,"inst":"tom_v0_noise_perc_505","midi_source":""},{"t":194.202,"note":55,"dur":0.052,"vel":0.709,"inst":"tom_v0_noise_perc_505","midi_source":""},{"t":194.254,"note":53,"dur":0.052,"vel":0.709,"inst":"tom_v0_noise_perc_505","midi_source":""},{"t":194.307,"note":55,"dur":0.052,"vel":0.709,"inst":"tom_v0_noise_perc_505","midi_source":""},{"t":194.359,"note":50,"dur":0.052,"vel":0.709,"inst":"tom_v0_bowed_187","midi_source":""},{"t":194.411,"note":50,"dur":0.315,"vel":0.709,"inst":"tom_v0_bowed_187","midi_source":""},{"t":194.411,"note":57,"dur":0.315,"vel":0.709,"inst":"tom_v0_noise_perc_505","midi_source":""},{"t":194.411,"note":69,"dur":0.315,"vel":0.709,"inst":"tom_v0_noise_perc_505","midi_source":""},{"t":194.411,"note":74,"dur":0.315,"vel":0.709,"inst":"tom_v0_bowed_187","midi_source":""},{"t":194.411,"note":74,"dur":0.315,"vel":0.709,"inst":"tom_v0_bowed_187","midi_source":""},{"t":194.411,"note":81,"dur":0.315,"vel":0.709,"inst":"tom_v0_noise_perc_505","midi_source":""},{"t":194.411,"note":81,"dur":0.315,"vel":0.709,"inst":"tom_v0_noise_perc_505","midi_source":""},{"t":194.411,"note":89,"dur":0.315,"vel":0.709,"inst":"tom_v0_noise_perc_505","midi_source":""},{"t":194.411,"note":91,"dur":0.315,"vel":0.709,"inst":"tom_v0_noise_perc_505","midi_source":""},{"t":194.726,"note":62,"dur":0.105,"vel":0.709,"inst":"tom_v0_bowed_187","midi_source":""},{"t":194.726,"note":65,"dur":0.105,"vel":0.709,"inst":"tom_v0_noise_perc_505","midi_source":""},{"t":194.726,"note":67,"dur":0.105,"vel":0.709,"inst":"tom_v0_noise_perc_505","midi_source":""},{"t":194.726,"note":69,"dur":0.105,"vel":0.709,"inst":"tom_v0_noise_perc_505","midi_source":""},{"t":194.831,"note":50,"dur":0.105,"vel":0.709,"inst":"tom_v0_bowed_187","midi_source":""},{"t":194.831,"note":62,"dur":0.105,"vel":0.709,"inst":"tom_v0_bowed_187","midi_source":""},{"t":194.831,"note":67,"dur":0.105,"vel":0.709,"inst":"tom_v0_noise_perc_505","midi_source":""},{"t":194.831,"note":69,"dur":0.105,"vel":0.709,"inst":"tom_v0_noise_perc_505","midi_source":""},{"t":194.936,"note":50,"dur":0.105,"vel":0.709,"inst":"tom_v0_bowed_187","midi_source":""},{"t":194.936,"note":62,"dur":0.105,"vel":0.709,"inst":"tom_v0_bowed_187","midi_source":""},{"t":194.936,"note":67,"dur":0.105,"vel":0.709,"inst":"tom_v0_noise_perc_505","midi_source":""},{"t":194.936,"note":69,"dur":0.105,"vel":0.709,"inst":"tom_v0_noise_perc_505","midi_source":""},{"t":195.146,"note":60,"dur":0.105,"vel":0.709,"inst":"tom_v0_bowed_187","midi_source":""},{"t":195.146,"note":62,"dur":0.105,"vel":0.709,"inst":"tom_v0_bowed_187","midi_source":""},{"t":195.146,"note":67,"dur":0.105,"vel":0.709,"inst":"tom_v0_noise_perc_505","midi_source":""},{"t":195.146,"note":72,"dur":0.105,"vel":0.709,"inst":"tom_v0_bowed_187","midi_source":""},{"t":195.251,"note":55,"dur":0.21,"vel":0.709,"inst":"tom_v0_noise_perc_505","midi_source":""},{"t":195.251,"note":62,"dur":0.21,"vel":0.709,"inst":"tom_v0_bowed_187","midi_source":""},{"t":195.251,"note":69,"dur":0.105,"vel":0.709,"inst":"tom_v0_noise_perc_505","midi_source":""},{"t":195.251,"note":72,"dur":0.105,"vel":0.709,"inst":"tom_v0_bowed_187","midi_source":""},{"t":195.356,"note":69,"dur":0.105,"vel":0.709,"inst":"tom_v0_noise_perc_505","midi_source":""},{"t":195.356,"note":62,"dur":0.105,"vel":0.709,"inst":"tom_v0_bowed_187","midi_source":""},{"t":195.566,"note":67,"dur":0.105,"vel":0.709,"inst":"tom_v0_noise_perc_505","midi_source":""},{"t":195.566,"note":69,"dur":0.105,"vel":0.709,"inst":"tom_v0_noise_perc_505","midi_source":""},{"t":195.566,"note":62,"dur":0.105,"vel":0.709,"inst":"tom_v0_bowed_187","midi_source":""},{"t":195.566,"note":74,"dur":0.21,"vel":0.709,"inst":"tom_v0_bowed_187","midi_source":""},{"t":195.671,"note":67,"dur":0.105,"vel":0.709,"inst":"tom_v0_noise_perc_505","midi_source":""},{"t":195.671,"note":67,"dur":0.105,"vel":0.709,"inst":"tom_v0_noise_perc_505","midi_source":""},{"t":195.671,"note":72,"dur":0.21,"vel":0.709,"inst":"tom_v0_bowed_187","midi_source":""},{"t":195.776,"note":67,"dur":0.105,"vel":0.709,"inst":"tom_v0_noise_perc_505","midi_source":""},{"t":195.776,"note":69,"dur":0.105,"vel":0.709,"inst":"tom_v0_noise_perc_505","midi_source":""},{"t":195.776,"note":76,"dur":0.105,"vel":0.709,"inst":"tom_v0_bowed_187","midi_source":""},{"t":195.881,"note":65,"dur":0.105,"vel":0.709,"inst":"tom_v0_noise_perc_505","midi_source":""},{"t":195.881,"note":67,"dur":0.105,"vel":0.709,"inst":"tom_v0_noise_perc_505","midi_source":""},{"t":195.881,"note":74,"dur":0.105,"vel":0.709,"inst":"tom_v0_bowed_187","midi_source":""},{"t":195.881,"note":77,"dur":0.105,"vel":0.709,"inst":"tom_v0_noise_perc_505","midi_source":""},{"t":195.986,"note":62,"dur":0.105,"vel":0.709,"inst":"tom_v0_bowed_187","midi_source":""},{"t":195.986,"note":67,"dur":0.105,"vel":0.709,"inst":"tom_v0_noise_perc_505","midi_source":""},{"t":195.986,"note":74,"dur":0.105,"vel":0.709,"inst":"tom_v0_bowed_187","midi_source":""},{"t":195.986,"note":79,"dur":0.105,"vel":0.709,"inst":"tom_v0_noise_perc_505","midi_source":""},{"t":196.091,"note":62,"dur":0.21,"vel":0.709,"inst":"tom_v0_bowed_187","midi_source":""},{"t":196.091,"note":65,"dur":0.21,"vel":0.709,"inst":"tom_v0_noise_perc_505","midi_source":""},{"t":196.091,"note":69,"dur":0.21,"vel":0.709,"inst":"tom_v0_noise_perc_505","midi_source":""},{"t":196.091,"note":81,"dur":0.105,"vel":0.709,"inst":"tom_v0_noise_perc_505","midi_source":""},{"t":196.196,"note":79,"dur":0.105,"vel":0.709,"inst":"tom_v0_noise_perc_505","midi_source":""},{"t":196.406,"note":62,"dur":0.105,"vel":0.709,"inst":"tom_v0_bowed_187","midi_source":""},{"t":196.406,"note":69,"dur":0.105,"vel":0.709,"inst":"tom_v0_noise_perc_505","midi_source":""},{"t":196.406,"note":77,"dur":0.105,"vel":0.709,"inst":"tom_v0_noise_perc_505","midi_source":""},{"t":196.406,"note":79,"dur":0.105,"vel":0.709,"inst":"tom_v0_noise_perc_505","midi_source":""},{"t":196.511,"note":62,"dur":0.21,"vel":0.709,"inst":"tom_v0_bowed_187","midi_source":""},{"t":196.511,"note":74,"dur":0.105,"vel":0.709,"inst":"tom_v0_bowed_187","midi_source":""},{"t":196.511,"note":74,"dur":0.525,"vel":0.709,"inst":"tom_v0_bowed_187","midi_source":""},{"t":196.511,"note":79,"dur":0.105,"vel":0.709,"inst":"tom_v0_noise_perc_505","midi_source":""},{"t":196.616,"note":77,"dur":0.21,"vel":0.709,"inst":"tom_v0_noise_perc_505","midi_source":""},{"t":196.616,"note":79,"dur":0.21,"vel":0.709,"inst":"tom_v0_noise_perc_505","midi_source":""},{"t":196.721,"note":62,"dur":0.21,"vel":0.709,"inst":"tom_v0_bowed_187","midi_source":""},{"t":196.826,"note":67,"dur":0.105,"vel":0.709,"inst":"tom_v0_noise_perc_505","midi_source":""},{"t":196.826,"note":74,"dur":0.105,"vel":0.709,"inst":"tom_v0_bowed_187","midi_source":""},{"t":196.826,"note":91,"dur":0.105,"vel":0.709,"inst":"tom_v0_noise_perc_505","midi_source":""},{"t":196.826,"note":96,"dur":0.105,"vel":0.709,"inst":"tom_v0_bowed_187","midi_source":""},{"t":196.931,"note":67,"dur":0.105,"vel":0.709,"inst":"tom_v0_noise_perc_505","midi_source":""},{"t":196.931,"note":74,"dur":0.157,"vel":0.709,"inst":"tom_v0_bowed_187","midi_source":""},{"t":196.931,"note":89,"dur":0.157,"vel":0.709,"inst":"tom_v0_noise_perc_505","midi_source":""},{"t":196.931,"note":96,"dur":0.21,"vel":0.709,"inst":"tom_v0_bowed_187","midi_source":""},{"t":197.036,"note":67,"dur":0.105,"vel":0.709,"inst":"tom_v0_noise_perc_505","midi_source":""},{"t":197.088,"note":74,"dur":0.052,"vel":0.709,"inst":"tom_v0_bowed_187","midi_source":""},{"t":197.088,"note":91,"dur":0.052,"vel":0.709,"inst":"tom_v0_noise_perc_505","midi_source":""},{"t":197.141,"note":67,"dur":0.105,"vel":0.709,"inst":"tom_v0_noise_perc_505","midi_source":""},{"t":197.141,"note":77,"dur":0.105,"vel":0.709,"inst":"tom_v0_noise_perc_505","midi_source":""},{"t":197.141,"note":91,"dur":0.105,"vel":0.709,"inst":"tom_v0_noise_perc_505","midi_source":""},{"t":197.141,"note":95,"dur":0.105,"vel":0.709,"inst":"tom_v0_noise_perc_505","midi_source":""},{"t":197.246,"note":67,"dur":0.105,"vel":0.709,"inst":"tom_v0_noise_perc_505","midi_source":""},{"t":197.246,"note":77,"dur":0.105,"vel":0.709,"inst":"tom_v0_noise_perc_505","midi_source":""},{"t":197.246,"note":83,"dur":0.105,"vel":0.709,"inst":"tom_v0_noise_perc_505","midi_source":""},{"t":197.246,"note":91,"dur":0.105,"vel":0.709,"inst":"tom_v0_noise_perc_505","midi_source":""},{"t":197.351,"note":67,"dur":0.105,"vel":0.709,"inst":"tom_v0_noise_perc_505","midi_source":""},{"t":197.351,"note":74,"dur":0.105,"vel":0.709,"inst":"tom_v0_bowed_187","midi_source":""},{"t":197.351,"note":84,"dur":0.105,"vel":0.709,"inst":"tom_v0_bowed_187","midi_source":""},{"t":197.351,"note":91,"dur":0.105,"vel":0.709,"inst":"tom_v0_noise_perc_505","midi_source":""},{"t":197.456,"note":71,"dur":0.105,"vel":0.709,"inst":"tom_v0_noise_perc_505","midi_source":""},{"t":197.456,"note":79,"dur":0.21,"vel":0.709,"inst":"tom_v0_noise_perc_505","midi_source":""},{"t":197.456,"note":86,"dur":0.105,"vel":0.709,"inst":"tom_v0_bowed_187","midi_source":""},{"t":197.456,"note":89,"dur":0.105,"vel":0.709,"inst":"tom_v0_noise_perc_505","midi_source":""},{"t":197.561,"note":72,"dur":0.105,"vel":0.709,"inst":"tom_v0_bowed_187","midi_source":""},{"t":197.561,"note":86,"dur":0.105,"vel":0.709,"inst":"tom_v0_bowed_187","midi_source":""},{"t":197.561,"note":89,"dur":0.105,"vel":0.709,"inst":"tom_v0_noise_perc_505","midi_source":""},{"t":197.666,"note":65,"dur":0.105,"vel":0.709,"inst":"tom_v0_noise_perc_505","midi_source":""},{"t":197.666,"note":81,"dur":0.105,"vel":0.709,"inst":"tom_v0_noise_perc_505","midi_source":""},{"t":197.666,"note":84,"dur":0.105,"vel":0.709,"inst":"tom_v0_bowed_187","midi_source":""},{"t":197.666,"note":86,"dur":0.105,"vel":0.709,"inst":"tom_v0_bowed_187","midi_source":""},{"t":197.771,"note":67,"dur":0.21,"vel":0.709,"inst":"tom_v0_noise_perc_505","midi_source":""},{"t":197.771,"note":74,"dur":0.21,"vel":0.709,"inst":"tom_v0_bowed_187","midi_source":""},{"t":197.771,"note":83,"dur":0.21,"vel":0.709,"inst":"tom_v0_noise_perc_505","midi_source":""},{"t":197.771,"note":86,"dur":0.052,"vel":0.709,"inst":"tom_v0_bowed_187","midi_source":""},{"t":197.823,"note":89,"dur":0.052,"vel":0.709,"inst":"tom_v0_noise_perc_505","midi_source":""},{"t":197.876,"note":91,"dur":0.052,"vel":0.709,"inst":"tom_v0_noise_perc_505","midi_source":""},{"t":197.928,"note":89,"dur":0.052,"vel":0.709,"inst":"tom_v0_noise_perc_505","midi_source":""},{"t":197.981,"note":91,"dur":0.052,"vel":0.709,"inst":"tom_v0_noise_perc_505","midi_source":""},{"t":198.033,"note":89,"dur":0.052,"vel":0.709,"inst":"tom_v0_noise_perc_505","midi_source":""},{"t":198.086,"note":86,"dur":0.052,"vel":0.709,"inst":"tom_v0_bowed_187","midi_source":""},{"t":198.086,"note":91,"dur":0.052,"vel":0.709,"inst":"tom_v0_noise_perc_505","midi_source":""},{"t":198.138,"note":84,"dur":0.052,"vel":0.709,"inst":"tom_v0_bowed_187","midi_source":""},{"t":198.138,"note":86,"dur":0.052,"vel":0.709,"inst":"tom_v0_bowed_187","midi_source":""},{"t":198.191,"note":83,"dur":0.052,"vel":0.709,"inst":"tom_v0_noise_perc_505","midi_source":""},{"t":198.191,"note":86,"dur":0.105,"vel":0.709,"inst":"tom_v0_bowed_187","midi_source":""},{"t":198.243,"note":77,"dur":0.052,"vel":0.709,"inst":"tom_v0_noise_perc_505","midi_source":""},{"t":198.296,"note":79,"dur":0.052,"vel":0.709,"inst":"tom_v0_noise_perc_505","midi_source":""},{"t":198.348,"note":77,"dur":0.052,"vel":0.709,"inst":"tom_v0_noise_perc_505","midi_source":""},{"t":198.401,"note":79,"dur":0.052,"vel":0.709,"inst":"tom_v0_noise_perc_505","midi_source":""},{"t":198.453,"note":77,"dur":0.052,"vel":0.709,"inst":"tom_v0_noise_perc_505","midi_source":""},{"t":198.506,"note":74,"dur":0.052,"vel":0.709,"inst":"tom_v0_bowed_187","midi_source":""},{"t":198.506,"note":79,"dur":0.052,"vel":0.709,"inst":"tom_v0_noise_perc_505","midi_source":""},{"t":198.558,"note":72,"dur":0.052,"vel":0.709,"inst":"tom_v0_bowed_187","midi_source":""},{"t":198.558,"note":74,"dur":0.052,"vel":0.709,"inst":"tom_v0_bowed_187","midi_source":""},{"t":198.611,"note":71,"dur":0.052,"vel":0.709,"inst":"tom_v0_noise_perc_505","midi_source":""},{"t":198.611,"note":74,"dur":0.105,"vel":0.709,"inst":"tom_v0_bowed_187","midi_source":""},{"t":198.663,"note":65,"dur":0.052,"vel":0.709,"inst":"tom_v0_noise_perc_505","midi_source":""},{"t":198.716,"note":67,"dur":0.052,"vel":0.709,"inst":"tom_v0_noise_perc_505","midi_source":""},{"t":198.768,"note":65,"dur":0.052,"vel":0.709,"inst":"tom_v0_noise_perc_505","midi_source":""},{"t":198.821,"note":67,"dur":0.052,"vel":0.709,"inst":"tom_v0_noise_perc_505","midi_source":""},{"t":198.873,"note":65,"dur":0.052,"vel":0.709,"inst":"tom_v0_noise_perc_505","midi_source":""},{"t":198.926,"note":62,"dur":0.052,"vel":0.709,"inst":"tom_v0_bowed_187","midi_source":""},{"t":198.926,"note":67,"dur":0.052,"vel":0.709,"inst":"tom_v0_noise_perc_505","midi_source":""},{"t":198.978,"note":60,"dur":0.052,"vel":0.709,"inst":"tom_v0_bowed_187","midi_source":""},{"t":198.978,"note":62,"dur":0.052,"vel":0.709,"inst":"tom_v0_bowed_187","midi_source":""},{"t":199.031,"note":59,"dur":0.052,"vel":0.709,"inst":"tom_v0_noise_perc_505","midi_source":""},{"t":199.031,"note":62,"dur":0.105,"vel":0.709,"inst":"tom_v0_bowed_187","midi_source":""},{"t":199.083,"note":53,"dur":0.052,"vel":0.709,"inst":"tom_v0_noise_perc_505","midi_source":""},{"t":199.136,"note":55,"dur":0.052,"vel":0.709,"inst":"tom_v0_noise_perc_505","midi_source":""},{"t":199.188,"note":53,"dur":0.052,"vel":0.709,"inst":"tom_v0_noise_perc_505","midi_source":""},{"t":199.24,"note":55,"dur":0.052,"vel":0.709,"inst":"tom_v0_noise_perc_505","midi_source":""},{"t":199.293,"note":53,"dur":0.052,"vel":0.709,"inst":"tom_v0_noise_perc_505","midi_source":""},{"t":199.345,"note":55,"dur":0.052,"vel":0.709,"inst":"tom_v0_noise_perc_505","midi_source":""},{"t":199.398,"note":50,"dur":0.052,"vel":0.709,"inst":"tom_v0_bowed_187","midi_source":""},{"t":199.45,"note":50,"dur":0.315,"vel":0.709,"inst":"tom_v0_bowed_187","midi_source":""},{"t":199.45,"note":57,"dur":0.315,"vel":0.709,"inst":"tom_v0_noise_perc_505","midi_source":""},{"t":199.45,"note":69,"dur":0.315,"vel":0.709,"inst":"tom_v0_noise_perc_505","midi_source":""},{"t":199.45,"note":74,"dur":0.315,"vel":0.709,"inst":"tom_v0_bowed_187","midi_source":""},{"t":199.45,"note":74,"dur":0.315,"vel":0.709,"inst":"tom_v0_bowed_187","midi_source":""},{"t":199.45,"note":81,"dur":0.315,"vel":0.709,"inst":"tom_v0_noise_perc_505","midi_source":""},{"t":199.45,"note":81,"dur":0.315,"vel":0.709,"inst":"tom_v0_noise_perc_505","midi_source":""},{"t":199.45,"note":89,"dur":0.315,"vel":0.709,"inst":"tom_v0_noise_perc_505","midi_source":""},{"t":199.45,"note":91,"dur":0.315,"vel":0.709,"inst":"tom_v0_noise_perc_505","midi_source":""},{"t":199.765,"note":62,"dur":0.105,"vel":0.709,"inst":"tom_v0_bowed_187","midi_source":""},{"t":199.765,"note":65,"dur":0.105,"vel":0.709,"inst":"tom_v0_noise_perc_505","midi_source":""},{"t":199.765,"note":67,"dur":0.105,"vel":0.709,"inst":"tom_v0_noise_perc_505","midi_source":""},{"t":199.765,"note":69,"dur":0.105,"vel":0.709,"inst":"tom_v0_noise_perc_505","midi_source":""},{"t":199.87,"note":50,"dur":0.105,"vel":0.709,"inst":"tom_v0_bowed_187","midi_source":""},{"t":199.87,"note":62,"dur":0.105,"vel":0.709,"inst":"tom_v0_bowed_187","midi_source":""},{"t":199.87,"note":67,"dur":0.105,"vel":0.709,"inst":"tom_v0_noise_perc_505","midi_source":""},{"t":199.87,"note":69,"dur":0.105,"vel":0.709,"inst":"tom_v0_noise_perc_505","midi_source":""},{"t":199.975,"note":50,"dur":0.105,"vel":0.709,"inst":"tom_v0_bowed_187","midi_source":""},{"t":199.975,"note":62,"dur":0.105,"vel":0.709,"inst":"tom_v0_bowed_187","midi_source":""},{"t":199.975,"note":67,"dur":0.105,"vel":0.709,"inst":"tom_v0_noise_perc_505","midi_source":""},{"t":199.975,"note":69,"dur":0.105,"vel":0.709,"inst":"tom_v0_noise_perc_505","midi_source":""},{"t":200.185,"note":60,"dur":0.105,"vel":0.709,"inst":"tom_v0_bowed_187","midi_source":""},{"t":200.185,"note":62,"dur":0.105,"vel":0.709,"inst":"tom_v0_bowed_187","midi_source":""},{"t":200.185,"note":67,"dur":0.105,"vel":0.709,"inst":"tom_v0_noise_perc_505","midi_source":""},{"t":200.185,"note":72,"dur":0.105,"vel":0.709,"inst":"tom_v0_bowed_187","midi_source":""},{"t":200.29,"note":55,"dur":0.21,"vel":0.709,"inst":"tom_v0_noise_perc_505","midi_source":""},{"t":200.29,"note":62,"dur":0.21,"vel":0.709,"inst":"tom_v0_bowed_187","midi_source":""},{"t":200.29,"note":69,"dur":0.105,"vel":0.709,"inst":"tom_v0_noise_perc_505","midi_source":""},{"t":200.29,"note":72,"dur":0.105,"vel":0.709,"inst":"tom_v0_bowed_187","midi_source":""},{"t":200.395,"note":69,"dur":0.105,"vel":0.709,"inst":"tom_v0_noise_perc_505","midi_source":""},{"t":200.395,"note":62,"dur":0.105,"vel":0.709,"inst":"tom_v0_bowed_187","midi_source":""},{"t":200.605,"note":67,"dur":0.105,"vel":0.709,"inst":"tom_v0_noise_perc_505","midi_source":""},{"t":200.605,"note":69,"dur":0.105,"vel":0.709,"inst":"tom_v0_noise_perc_505","midi_source":""},{"t":200.605,"note":62,"dur":0.105,"vel":0.709,"inst":"tom_v0_bowed_187","midi_source":""},{"t":200.605,"note":74,"dur":0.21,"vel":0.709,"inst":"tom_v0_bowed_187","midi_source":""},{"t":200.71,"note":67,"dur":0.105,"vel":0.709,"inst":"tom_v0_noise_perc_505","midi_source":""},{"t":200.71,"note":67,"dur":0.105,"vel":0.709,"inst":"tom_v0_noise_perc_505","midi_source":""},{"t":200.71,"note":72,"dur":0.21,"vel":0.709,"inst":"tom_v0_bowed_187","midi_source":""},{"t":200.815,"note":67,"dur":0.105,"vel":0.709,"inst":"tom_v0_noise_perc_505","midi_source":""},{"t":200.815,"note":69,"dur":0.105,"vel":0.709,"inst":"tom_v0_noise_perc_505","midi_source":""},{"t":200.815,"note":76,"dur":0.105,"vel":0.709,"inst":"tom_v0_bowed_187","midi_source":""},{"t":200.92,"note":65,"dur":0.105,"vel":0.709,"inst":"tom_v0_noise_perc_505","midi_source":""},{"t":200.92,"note":67,"dur":0.105,"vel":0.709,"inst":"tom_v0_noise_perc_505","midi_source":""},{"t":200.92,"note":74,"dur":0.105,"vel":0.709,"inst":"tom_v0_bowed_187","midi_source":""},{"t":200.92,"note":77,"dur":0.105,"vel":0.709,"inst":"tom_v0_noise_perc_505","midi_source":""},{"t":201.025,"note":62,"dur":0.105,"vel":0.709,"inst":"tom_v0_bowed_187","midi_source":""},{"t":201.025,"note":67,"dur":0.105,"vel":0.709,"inst":"tom_v0_noise_perc_505","midi_source":""},{"t":201.025,"note":74,"dur":0.105,"vel":0.709,"inst":"tom_v0_bowed_187","midi_source":""},{"t":201.025,"note":79,"dur":0.105,"vel":0.709,"inst":"tom_v0_noise_perc_505","midi_source":""},{"t":201.13,"note":62,"dur":0.21,"vel":0.709,"inst":"tom_v0_bowed_187","midi_source":""},{"t":201.13,"note":65,"dur":0.21,"vel":0.709,"inst":"tom_v0_noise_perc_505","midi_source":""},{"t":201.13,"note":69,"dur":0.21,"vel":0.709,"inst":"tom_v0_noise_perc_505","midi_source":""},{"t":201.13,"note":81,"dur":0.105,"vel":0.709,"inst":"tom_v0_noise_perc_505","midi_source":""},{"t":201.235,"note":79,"dur":0.105,"vel":0.709,"inst":"tom_v0_noise_perc_505","midi_source":""},{"t":201.445,"note":62,"dur":0.105,"vel":0.709,"inst":"tom_v0_bowed_187","midi_source":""},{"t":201.445,"note":69,"dur":0.105,"vel":0.709,"inst":"tom_v0_noise_perc_505","midi_source":""},{"t":201.445,"note":77,"dur":0.105,"vel":0.709,"inst":"tom_v0_noise_perc_505","midi_source":""},{"t":201.445,"note":79,"dur":0.105,"vel":0.709,"inst":"tom_v0_noise_perc_505","midi_source":""},{"t":201.55,"note":62,"dur":0.21,"vel":0.709,"inst":"tom_v0_bowed_187","midi_source":""},{"t":201.55,"note":74,"dur":0.105,"vel":0.709,"inst":"tom_v0_bowed_187","midi_source":""},{"t":201.55,"note":74,"dur":0.525,"vel":0.709,"inst":"tom_v0_bowed_187","midi_source":""},{"t":201.55,"note":79,"dur":0.105,"vel":0.709,"inst":"tom_v0_noise_perc_505","midi_source":""},{"t":201.655,"note":77,"dur":0.21,"vel":0.709,"inst":"tom_v0_noise_perc_505","midi_source":""},{"t":201.655,"note":79,"dur":0.21,"vel":0.709,"inst":"tom_v0_noise_perc_505","midi_source":""},{"t":201.76,"note":62,"dur":0.21,"vel":0.709,"inst":"tom_v0_bowed_187","midi_source":""},{"t":201.865,"note":67,"dur":0.105,"vel":0.709,"inst":"tom_v0_noise_perc_505","midi_source":""},{"t":201.865,"note":74,"dur":0.105,"vel":0.709,"inst":"tom_v0_bowed_187","midi_source":""},{"t":201.865,"note":91,"dur":0.105,"vel":0.709,"inst":"tom_v0_noise_perc_505","midi_source":""},{"t":201.865,"note":96,"dur":0.105,"vel":0.709,"inst":"tom_v0_bowed_187","midi_source":""},{"t":201.97,"note":67,"dur":0.105,"vel":0.709,"inst":"tom_v0_noise_perc_505","midi_source":""},{"t":201.97,"note":74,"dur":0.157,"vel":0.709,"inst":"tom_v0_bowed_187","midi_source":""},{"t":201.97,"note":89,"dur":0.157,"vel":0.709,"inst":"tom_v0_noise_perc_505","midi_source":""},{"t":201.97,"note":96,"dur":0.21,"vel":0.709,"inst":"tom_v0_bowed_187","midi_source":""},{"t":202.075,"note":67,"dur":0.105,"vel":0.709,"inst":"tom_v0_noise_perc_505","midi_source":""},{"t":202.127,"note":74,"dur":0.052,"vel":0.709,"inst":"tom_v0_bowed_187","midi_source":""},{"t":202.127,"note":91,"dur":0.052,"vel":0.709,"inst":"tom_v0_noise_perc_505","midi_source":""},{"t":202.18,"note":67,"dur":0.105,"vel":0.709,"inst":"tom_v0_noise_perc_505","midi_source":""},{"t":202.18,"note":77,"dur":0.105,"vel":0.709,"inst":"tom_v0_noise_perc_505","midi_source":""},{"t":202.18,"note":91,"dur":0.105,"vel":0.709,"inst":"tom_v0_noise_perc_505","midi_source":""},{"t":202.18,"note":95,"dur":0.105,"vel":0.709,"inst":"tom_v0_noise_perc_505","midi_source":""},{"t":202.285,"note":67,"dur":0.105,"vel":0.709,"inst":"tom_v0_noise_perc_505","midi_source":""},{"t":202.285,"note":77,"dur":0.105,"vel":0.709,"inst":"tom_v0_noise_perc_505","midi_source":""},{"t":202.285,"note":83,"dur":0.105,"vel":0.709,"inst":"tom_v0_noise_perc_505","midi_source":""},{"t":202.285,"note":91,"dur":0.105,"vel":0.709,"inst":"tom_v0_noise_perc_505","midi_source":""},{"t":202.39,"note":67,"dur":0.105,"vel":0.709,"inst":"tom_v0_noise_perc_505","midi_source":""},{"t":202.39,"note":74,"dur":0.105,"vel":0.709,"inst":"tom_v0_bowed_187","midi_source":""},{"t":202.39,"note":84,"dur":0.105,"vel":0.709,"inst":"tom_v0_bowed_187","midi_source":""},{"t":202.39,"note":91,"dur":0.105,"vel":0.709,"inst":"tom_v0_noise_perc_505","midi_source":""},{"t":202.495,"note":71,"dur":0.105,"vel":0.709,"inst":"tom_v0_noise_perc_505","midi_source":""},{"t":202.495,"note":79,"dur":0.21,"vel":0.709,"inst":"tom_v0_noise_perc_505","midi_source":""},{"t":202.495,"note":86,"dur":0.105,"vel":0.709,"inst":"tom_v0_bowed_187","midi_source":""},{"t":202.495,"note":89,"dur":0.105,"vel":0.709,"inst":"tom_v0_noise_perc_505","midi_source":""},{"t":202.6,"note":72,"dur":0.105,"vel":0.709,"inst":"tom_v0_bowed_187","midi_source":""},{"t":202.6,"note":86,"dur":0.105,"vel":0.709,"inst":"tom_v0_bowed_187","midi_source":""},{"t":202.6,"note":89,"dur":0.105,"vel":0.709,"inst":"tom_v0_noise_perc_505","midi_source":""},{"t":202.705,"note":65,"dur":0.105,"vel":0.709,"inst":"tom_v0_noise_perc_505","midi_source":""},{"t":202.705,"note":81,"dur":0.105,"vel":0.709,"inst":"tom_v0_noise_perc_505","midi_source":""},{"t":202.705,"note":84,"dur":0.105,"vel":0.709,"inst":"tom_v0_bowed_187","midi_source":""},{"t":202.705,"note":86,"dur":0.105,"vel":0.709,"inst":"tom_v0_bowed_187","midi_source":""},{"t":202.81,"note":67,"dur":0.21,"vel":0.709,"inst":"tom_v0_noise_perc_505","midi_source":""},{"t":202.81,"note":74,"dur":0.21,"vel":0.709,"inst":"tom_v0_bowed_187","midi_source":""},{"t":202.81,"note":83,"dur":0.21,"vel":0.709,"inst":"tom_v0_noise_perc_505","midi_source":""},{"t":202.81,"note":86,"dur":0.052,"vel":0.709,"inst":"tom_v0_bowed_187","midi_source":""},{"t":202.862,"note":89,"dur":0.052,"vel":0.709,"inst":"tom_v0_noise_perc_505","midi_source":""},{"t":202.915,"note":91,"dur":0.052,"vel":0.709,"inst":"tom_v0_noise_perc_505","midi_source":""},{"t":202.967,"note":89,"dur":0.052,"vel":0.709,"inst":"tom_v0_noise_perc_505","midi_source":""},{"t":203.02,"note":91,"dur":0.052,"vel":0.709,"inst":"tom_v0_noise_perc_505","midi_source":""},{"t":203.072,"note":89,"dur":0.052,"vel":0.709,"inst":"tom_v0_noise_perc_505","midi_source":""},{"t":203.125,"note":86,"dur":0.052,"vel":0.709,"inst":"tom_v0_bowed_187","midi_source":""},{"t":203.125,"note":91,"dur":0.052,"vel":0.709,"inst":"tom_v0_noise_perc_505","midi_source":""},{"t":203.177,"note":84,"dur":0.052,"vel":0.709,"inst":"tom_v0_bowed_187","midi_source":""},{"t":203.177,"note":86,"dur":0.052,"vel":0.709,"inst":"tom_v0_bowed_187","midi_source":""},{"t":203.23,"note":83,"dur":0.052,"vel":0.709,"inst":"tom_v0_noise_perc_505","midi_source":""},{"t":203.23,"note":86,"dur":0.105,"vel":0.709,"inst":"tom_v0_bowed_187","midi_source":""},{"t":203.282,"note":77,"dur":0.052,"vel":0.709,"inst":"tom_v0_noise_perc_505","midi_source":""},{"t":203.335,"note":79,"dur":0.052,"vel":0.709,"inst":"tom_v0_noise_perc_505","midi_source":""},{"t":203.387,"note":77,"dur":0.052,"vel":0.709,"inst":"tom_v0_noise_perc_505","midi_source":""},{"t":203.44,"note":79,"dur":0.052,"vel":0.709,"inst":"tom_v0_noise_perc_505","midi_source":""},{"t":203.492,"note":77,"dur":0.052,"vel":0.709,"inst":"tom_v0_noise_perc_505","midi_source":""},{"t":203.545,"note":74,"dur":0.052,"vel":0.709,"inst":"tom_v0_bowed_187","midi_source":""},{"t":203.545,"note":79,"dur":0.052,"vel":0.709,"inst":"tom_v0_noise_perc_505","midi_source":""},{"t":203.597,"note":72,"dur":0.052,"vel":0.709,"inst":"tom_v0_bowed_187","midi_source":""},{"t":203.597,"note":74,"dur":0.052,"vel":0.709,"inst":"tom_v0_bowed_187","midi_source":""},{"t":203.65,"note":71,"dur":0.052,"vel":0.709,"inst":"tom_v0_noise_perc_505","midi_source":""},{"t":203.65,"note":74,"dur":0.105,"vel":0.709,"inst":"tom_v0_bowed_187","midi_source":""},{"t":203.702,"note":65,"dur":0.052,"vel":0.709,"inst":"tom_v0_noise_perc_505","midi_source":""},{"t":203.755,"note":67,"dur":0.052,"vel":0.709,"inst":"tom_v0_noise_perc_505","midi_source":""},{"t":203.807,"note":65,"dur":0.052,"vel":0.709,"inst":"tom_v0_noise_perc_505","midi_source":""},{"t":203.86,"note":67,"dur":0.052,"vel":0.709,"inst":"tom_v0_noise_perc_505","midi_source":""},{"t":203.912,"note":65,"dur":0.052,"vel":0.709,"inst":"tom_v0_noise_perc_505","midi_source":""},{"t":203.965,"note":62,"dur":0.052,"vel":0.709,"inst":"tom_v0_bowed_187","midi_source":""},{"t":203.965,"note":67,"dur":0.052,"vel":0.709,"inst":"tom_v0_noise_perc_505","midi_source":""},{"t":204.017,"note":60,"dur":0.052,"vel":0.709,"inst":"tom_v0_bowed_187","midi_source":""},{"t":204.017,"note":62,"dur":0.052,"vel":0.709,"inst":"tom_v0_bowed_187","midi_source":""},{"t":204.069,"note":59,"dur":0.052,"vel":0.709,"inst":"tom_v0_noise_perc_505","midi_source":""},{"t":204.069,"note":62,"dur":0.105,"vel":0.709,"inst":"tom_v0_bowed_187","midi_source":""},{"t":204.122,"note":53,"dur":0.052,"vel":0.709,"inst":"tom_v0_noise_perc_505","midi_source":""},{"t":204.174,"note":55,"dur":0.052,"vel":0.709,"inst":"tom_v0_noise_perc_505","midi_source":""},{"t":204.227,"note":53,"dur":0.052,"vel":0.709,"inst":"tom_v0_noise_perc_505","midi_source":""},{"t":204.279,"note":55,"dur":0.052,"vel":0.709,"inst":"tom_v0_noise_perc_505","midi_source":""},{"t":204.332,"note":53,"dur":0.052,"vel":0.709,"inst":"tom_v0_noise_perc_505","midi_source":""},{"t":204.384,"note":55,"dur":0.052,"vel":0.709,"inst":"tom_v0_noise_perc_505","midi_source":""},{"t":204.437,"note":50,"dur":0.052,"vel":0.709,"inst":"tom_v0_bowed_187","midi_source":""},{"t":204.489,"note":50,"dur":0.315,"vel":0.709,"inst":"tom_v0_bowed_187","midi_source":""},{"t":204.489,"note":57,"dur":0.315,"vel":0.709,"inst":"tom_v0_noise_perc_505","midi_source":""},{"t":204.489,"note":69,"dur":0.315,"vel":0.709,"inst":"tom_v0_noise_perc_505","midi_source":""},{"t":204.489,"note":74,"dur":0.315,"vel":0.709,"inst":"tom_v0_bowed_187","midi_source":""},{"t":204.489,"note":74,"dur":0.315,"vel":0.709,"inst":"tom_v0_bowed_187","midi_source":""},{"t":204.489,"note":81,"dur":0.315,"vel":0.709,"inst":"tom_v0_noise_perc_505","midi_source":""},{"t":204.489,"note":81,"dur":0.315,"vel":0.709,"inst":"tom_v0_noise_perc_505","midi_source":""},{"t":204.489,"note":89,"dur":0.315,"vel":0.709,"inst":"tom_v0_noise_perc_505","midi_source":""},{"t":204.489,"note":91,"dur":0.315,"vel":0.709,"inst":"tom_v0_noise_perc_505","midi_source":""},{"t":204.804,"note":62,"dur":0.105,"vel":0.709,"inst":"tom_v0_bowed_187","midi_source":""},{"t":204.804,"note":65,"dur":0.105,"vel":0.709,"inst":"tom_v0_noise_perc_505","midi_source":""},{"t":204.804,"note":67,"dur":0.105,"vel":0.709,"inst":"tom_v0_noise_perc_505","midi_source":""},{"t":204.804,"note":69,"dur":0.105,"vel":0.709,"inst":"tom_v0_noise_perc_505","midi_source":""},{"t":204.909,"note":50,"dur":0.105,"vel":0.709,"inst":"tom_v0_bowed_187","midi_source":""},{"t":204.909,"note":62,"dur":0.105,"vel":0.709,"inst":"tom_v0_bowed_187","midi_source":""},{"t":204.909,"note":67,"dur":0.105,"vel":0.709,"inst":"tom_v0_noise_perc_505","midi_source":""},{"t":204.909,"note":69,"dur":0.105,"vel":0.709,"inst":"tom_v0_noise_perc_505","midi_source":""},{"t":205.014,"note":50,"dur":0.105,"vel":0.709,"inst":"tom_v0_bowed_187","midi_source":""},{"t":205.014,"note":62,"dur":0.105,"vel":0.709,"inst":"tom_v0_bowed_187","midi_source":""},{"t":205.014,"note":67,"dur":0.105,"vel":0.709,"inst":"tom_v0_noise_perc_505","midi_source":""},{"t":205.014,"note":69,"dur":0.105,"vel":0.709,"inst":"tom_v0_noise_perc_505","midi_source":""},{"t":205.224,"note":60,"dur":0.105,"vel":0.709,"inst":"tom_v0_bowed_187","midi_source":""},{"t":205.224,"note":62,"dur":0.105,"vel":0.709,"inst":"tom_v0_bowed_187","midi_source":""},{"t":205.224,"note":67,"dur":0.105,"vel":0.709,"inst":"tom_v0_noise_perc_505","midi_source":""},{"t":205.224,"note":72,"dur":0.105,"vel":0.709,"inst":"tom_v0_bowed_187","midi_source":""},{"t":205.329,"note":55,"dur":0.21,"vel":0.709,"inst":"tom_v0_noise_perc_505","midi_source":""},{"t":205.329,"note":62,"dur":0.21,"vel":0.709,"inst":"tom_v0_bowed_187","midi_source":""},{"t":205.329,"note":69,"dur":0.105,"vel":0.709,"inst":"tom_v0_noise_perc_505","midi_source":""},{"t":205.329,"note":72,"dur":0.105,"vel":0.709,"inst":"tom_v0_bowed_187","midi_source":""},{"t":205.434,"note":69,"dur":0.105,"vel":0.709,"inst":"tom_v0_noise_perc_505","midi_source":""},{"t":205.434,"note":62,"dur":0.105,"vel":0.709,"inst":"tom_v0_bowed_187","midi_source":""},{"t":205.644,"note":67,"dur":0.105,"vel":0.709,"inst":"tom_v0_noise_perc_505","midi_source":""},{"t":205.644,"note":69,"dur":0.105,"vel":0.709,"inst":"tom_v0_noise_perc_505","midi_source":""},{"t":205.644,"note":62,"dur":0.105,"vel":0.709,"inst":"tom_v0_bowed_187","midi_source":""},{"t":205.644,"note":74,"dur":0.21,"vel":0.709,"inst":"tom_v0_bowed_187","midi_source":""},{"t":205.749,"note":67,"dur":0.105,"vel":0.709,"inst":"tom_v0_noise_perc_505","midi_source":""},{"t":205.749,"note":67,"dur":0.105,"vel":0.709,"inst":"tom_v0_noise_perc_505","midi_source":""},{"t":205.749,"note":72,"dur":0.21,"vel":0.709,"inst":"tom_v0_bowed_187","midi_source":""},{"t":205.854,"note":67,"dur":0.105,"vel":0.709,"inst":"tom_v0_noise_perc_505","midi_source":""},{"t":205.854,"note":69,"dur":0.105,"vel":0.709,"inst":"tom_v0_noise_perc_505","midi_source":""},{"t":205.854,"note":76,"dur":0.105,"vel":0.709,"inst":"tom_v0_bowed_187","midi_source":""},{"t":205.959,"note":65,"dur":0.105,"vel":0.709,"inst":"tom_v0_noise_perc_505","midi_source":""},{"t":205.959,"note":67,"dur":0.105,"vel":0.709,"inst":"tom_v0_noise_perc_505","midi_source":""},{"t":205.959,"note":74,"dur":0.105,"vel":0.709,"inst":"tom_v0_bowed_187","midi_source":""},{"t":205.959,"note":77,"dur":0.105,"vel":0.709,"inst":"tom_v0_noise_perc_505","midi_source":""},{"t":206.064,"note":62,"dur":0.105,"vel":0.709,"inst":"tom_v0_bowed_187","midi_source":""},{"t":206.064,"note":67,"dur":0.105,"vel":0.709,"inst":"tom_v0_noise_perc_505","midi_source":""},{"t":206.064,"note":74,"dur":0.105,"vel":0.709,"inst":"tom_v0_bowed_187","midi_source":""},{"t":206.064,"note":79,"dur":0.105,"vel":0.709,"inst":"tom_v0_noise_perc_505","midi_source":""},{"t":206.169,"note":62,"dur":0.21,"vel":0.709,"inst":"tom_v0_bowed_187","midi_source":""},{"t":206.169,"note":65,"dur":0.21,"vel":0.709,"inst":"tom_v0_noise_perc_505","midi_source":""},{"t":206.169,"note":69,"dur":0.21,"vel":0.709,"inst":"tom_v0_noise_perc_505","midi_source":""},{"t":206.169,"note":81,"dur":0.105,"vel":0.709,"inst":"tom_v0_noise_perc_505","midi_source":""},{"t":206.274,"note":79,"dur":0.105,"vel":0.709,"inst":"tom_v0_noise_perc_505","midi_source":""},{"t":206.484,"note":62,"dur":0.105,"vel":0.709,"inst":"tom_v0_bowed_187","midi_source":""},{"t":206.484,"note":69,"dur":0.105,"vel":0.709,"inst":"tom_v0_noise_perc_505","midi_source":""},{"t":206.484,"note":77,"dur":0.105,"vel":0.709,"inst":"tom_v0_noise_perc_505","midi_source":""},{"t":206.484,"note":79,"dur":0.105,"vel":0.709,"inst":"tom_v0_noise_perc_505","midi_source":""},{"t":206.589,"note":62,"dur":0.21,"vel":0.709,"inst":"tom_v0_bowed_187","midi_source":""},{"t":206.589,"note":74,"dur":0.105,"vel":0.709,"inst":"tom_v0_bowed_187","midi_source":""},{"t":206.589,"note":74,"dur":0.525,"vel":0.709,"inst":"tom_v0_bowed_187","midi_source":""},{"t":206.589,"note":79,"dur":0.105,"vel":0.709,"inst":"tom_v0_noise_perc_505","midi_source":""},{"t":206.694,"note":77,"dur":0.21,"vel":0.709,"inst":"tom_v0_noise_perc_505","midi_source":""},{"t":206.694,"note":79,"dur":0.21,"vel":0.709,"inst":"tom_v0_noise_perc_505","midi_source":""},{"t":206.799,"note":62,"dur":0.21,"vel":0.709,"inst":"tom_v0_bowed_187","midi_source":""},{"t":206.904,"note":67,"dur":0.105,"vel":0.709,"inst":"tom_v0_noise_perc_505","midi_source":""},{"t":206.904,"note":74,"dur":0.105,"vel":0.709,"inst":"tom_v0_bowed_187","midi_source":""},{"t":206.904,"note":91,"dur":0.105,"vel":0.709,"inst":"tom_v0_noise_perc_505","midi_source":""},{"t":206.904,"note":96,"dur":0.105,"vel":0.709,"inst":"tom_v0_bowed_187","midi_source":""},{"t":207.009,"note":67,"dur":0.105,"vel":0.709,"inst":"tom_v0_noise_perc_505","midi_source":""},{"t":207.009,"note":74,"dur":0.157,"vel":0.709,"inst":"tom_v0_bowed_187","midi_source":""},{"t":207.009,"note":89,"dur":0.157,"vel":0.709,"inst":"tom_v0_noise_perc_505","midi_source":""},{"t":207.009,"note":96,"dur":0.21,"vel":0.709,"inst":"tom_v0_bowed_187","midi_source":""},{"t":207.114,"note":67,"dur":0.105,"vel":0.709,"inst":"tom_v0_noise_perc_505","midi_source":""},{"t":207.166,"note":74,"dur":0.052,"vel":0.709,"inst":"tom_v0_bowed_187","midi_source":""},{"t":207.166,"note":91,"dur":0.052,"vel":0.709,"inst":"tom_v0_noise_perc_505","midi_source":""},{"t":207.219,"note":67,"dur":0.105,"vel":0.709,"inst":"tom_v0_noise_perc_505","midi_source":""},{"t":207.219,"note":77,"dur":0.105,"vel":0.709,"inst":"tom_v0_noise_perc_505","midi_source":""},{"t":207.219,"note":91,"dur":0.105,"vel":0.709,"inst":"tom_v0_noise_perc_505","midi_source":""},{"t":207.219,"note":95,"dur":0.105,"vel":0.709,"inst":"tom_v0_noise_perc_505","midi_source":""},{"t":207.324,"note":67,"dur":0.105,"vel":0.709,"inst":"tom_v0_noise_perc_505","midi_source":""},{"t":207.324,"note":77,"dur":0.105,"vel":0.709,"inst":"tom_v0_noise_perc_505","midi_source":""},{"t":207.324,"note":83,"dur":0.105,"vel":0.709,"inst":"tom_v0_noise_perc_505","midi_source":""},{"t":207.324,"note":91,"dur":0.105,"vel":0.709,"inst":"tom_v0_noise_perc_505","midi_source":""},{"t":207.429,"note":67,"dur":0.105,"vel":0.709,"inst":"tom_v0_noise_perc_505","midi_source":""},{"t":207.429,"note":74,"dur":0.105,"vel":0.709,"inst":"tom_v0_bowed_187","midi_source":""},{"t":207.429,"note":84,"dur":0.105,"vel":0.709,"inst":"tom_v0_bowed_187","midi_source":""},{"t":207.429,"note":91,"dur":0.105,"vel":0.709,"inst":"tom_v0_noise_perc_505","midi_source":""},{"t":207.534,"note":71,"dur":0.105,"vel":0.709,"inst":"tom_v0_noise_perc_505","midi_source":""},{"t":207.534,"note":79,"dur":0.21,"vel":0.709,"inst":"tom_v0_noise_perc_505","midi_source":""},{"t":207.534,"note":86,"dur":0.105,"vel":0.709,"inst":"tom_v0_bowed_187","midi_source":""},{"t":207.534,"note":89,"dur":0.105,"vel":0.709,"inst":"tom_v0_noise_perc_505","midi_source":""},{"t":207.639,"note":72,"dur":0.105,"vel":0.709,"inst":"tom_v0_bowed_187","midi_source":""},{"t":207.639,"note":86,"dur":0.105,"vel":0.709,"inst":"tom_v0_bowed_187","midi_source":""},{"t":207.639,"note":89,"dur":0.105,"vel":0.709,"inst":"tom_v0_noise_perc_505","midi_source":""},{"t":207.744,"note":65,"dur":0.105,"vel":0.709,"inst":"tom_v0_noise_perc_505","midi_source":""},{"t":207.744,"note":81,"dur":0.105,"vel":0.709,"inst":"tom_v0_noise_perc_505","midi_source":""},{"t":207.744,"note":84,"dur":0.105,"vel":0.709,"inst":"tom_v0_bowed_187","midi_source":""},{"t":207.744,"note":86,"dur":0.105,"vel":0.709,"inst":"tom_v0_bowed_187","midi_source":""},{"t":207.849,"note":67,"dur":0.21,"vel":0.709,"inst":"tom_v0_noise_perc_505","midi_source":""},{"t":207.849,"note":74,"dur":0.21,"vel":0.709,"inst":"tom_v0_bowed_187","midi_source":""},{"t":207.849,"note":83,"dur":0.21,"vel":0.709,"inst":"tom_v0_noise_perc_505","midi_source":""},{"t":207.849,"note":86,"dur":0.052,"vel":0.709,"inst":"tom_v0_bowed_187","midi_source":""},{"t":207.901,"note":89,"dur":0.052,"vel":0.709,"inst":"tom_v0_noise_perc_505","midi_source":""},{"t":207.954,"note":91,"dur":0.052,"vel":0.709,"inst":"tom_v0_noise_perc_505","midi_source":""},{"t":208.006,"note":89,"dur":0.052,"vel":0.709,"inst":"tom_v0_noise_perc_505","midi_source":""},{"t":208.059,"note":91,"dur":0.052,"vel":0.709,"inst":"tom_v0_noise_perc_505","midi_source":""},{"t":208.111,"note":89,"dur":0.052,"vel":0.709,"inst":"tom_v0_noise_perc_505","midi_source":""},{"t":208.164,"note":86,"dur":0.052,"vel":0.709,"inst":"tom_v0_bowed_187","midi_source":""},{"t":208.164,"note":91,"dur":0.052,"vel":0.709,"inst":"tom_v0_noise_perc_505","midi_source":""},{"t":208.216,"note":84,"dur":0.052,"vel":0.709,"inst":"tom_v0_bowed_187","midi_source":""},{"t":208.216,"note":86,"dur":0.052,"vel":0.709,"inst":"tom_v0_bowed_187","midi_source":""},{"t":208.269,"note":83,"dur":0.052,"vel":0.709,"inst":"tom_v0_noise_perc_505","midi_source":""},{"t":208.269,"note":86,"dur":0.105,"vel":0.709,"inst":"tom_v0_bowed_187","midi_source":""},{"t":208.321,"note":77,"dur":0.052,"vel":0.709,"inst":"tom_v0_noise_perc_505","midi_source":""},{"t":208.374,"note":79,"dur":0.052,"vel":0.709,"inst":"tom_v0_noise_perc_505","midi_source":""},{"t":208.426,"note":77,"dur":0.052,"vel":0.709,"inst":"tom_v0_noise_perc_505","midi_source":""},{"t":208.479,"note":79,"dur":0.052,"vel":0.709,"inst":"tom_v0_noise_perc_505","midi_source":""},{"t":208.531,"note":77,"dur":0.052,"vel":0.709,"inst":"tom_v0_noise_perc_505","midi_source":""},{"t":208.584,"note":74,"dur":0.052,"vel":0.709,"inst":"tom_v0_bowed_187","midi_source":""},{"t":208.584,"note":79,"dur":0.052,"vel":0.709,"inst":"tom_v0_noise_perc_505","midi_source":""},{"t":208.636,"note":72,"dur":0.052,"vel":0.709,"inst":"tom_v0_bowed_187","midi_source":""},{"t":208.636,"note":74,"dur":0.052,"vel":0.709,"inst":"tom_v0_bowed_187","midi_source":""},{"t":208.689,"note":71,"dur":0.052,"vel":0.709,"inst":"tom_v0_noise_perc_505","midi_source":""},{"t":208.689,"note":74,"dur":0.105,"vel":0.709,"inst":"tom_v0_bowed_187","midi_source":""},{"t":208.741,"note":65,"dur":0.052,"vel":0.709,"inst":"tom_v0_noise_perc_505","midi_source":""},{"t":208.794,"note":67,"dur":0.052,"vel":0.709,"inst":"tom_v0_noise_perc_505","midi_source":""},{"t":208.846,"note":65,"dur":0.052,"vel":0.709,"inst":"tom_v0_noise_perc_505","midi_source":""},{"t":208.898,"note":67,"dur":0.052,"vel":0.709,"inst":"tom_v0_noise_perc_505","midi_source":""},{"t":208.951,"note":65,"dur":0.052,"vel":0.709,"inst":"tom_v0_noise_perc_505","midi_source":""},{"t":209.003,"note":62,"dur":0.052,"vel":0.709,"inst":"tom_v0_bowed_187","midi_source":""},{"t":209.003,"note":67,"dur":0.052,"vel":0.709,"inst":"tom_v0_noise_perc_505","midi_source":""},{"t":209.056,"note":60,"dur":0.052,"vel":0.709,"inst":"tom_v0_bowed_187","midi_source":""},{"t":209.056,"note":62,"dur":0.052,"vel":0.709,"inst":"tom_v0_bowed_187","midi_source":""},{"t":209.108,"note":59,"dur":0.052,"vel":0.709,"inst":"tom_v0_noise_perc_505","midi_source":""},{"t":209.108,"note":62,"dur":0.105,"vel":0.709,"inst":"tom_v0_bowed_187","midi_source":""},{"t":209.161,"note":53,"dur":0.052,"vel":0.709,"inst":"tom_v0_noise_perc_505","midi_source":""},{"t":209.213,"note":55,"dur":0.052,"vel":0.709,"inst":"tom_v0_noise_perc_505","midi_source":""},{"t":209.266,"note":53,"dur":0.052,"vel":0.709,"inst":"tom_v0_noise_perc_505","midi_source":""},{"t":209.318,"note":55,"dur":0.052,"vel":0.709,"inst":"tom_v0_noise_perc_505","midi_source":""},{"t":209.371,"note":53,"dur":0.052,"vel":0.709,"inst":"tom_v0_noise_perc_505","midi_source":""},{"t":209.423,"note":55,"dur":0.052,"vel":0.709,"inst":"tom_v0_noise_perc_505","midi_source":""},{"t":209.476,"note":50,"dur":0.052,"vel":0.709,"inst":"tom_v0_bowed_187","midi_source":""},{"t":209.528,"note":50,"dur":0.315,"vel":0.709,"inst":"tom_v0_bowed_187","midi_source":""},{"t":209.528,"note":57,"dur":0.315,"vel":0.709,"inst":"tom_v0_noise_perc_505","midi_source":""},{"t":209.528,"note":69,"dur":0.315,"vel":0.709,"inst":"tom_v0_noise_perc_505","midi_source":""},{"t":209.528,"note":74,"dur":0.315,"vel":0.709,"inst":"tom_v0_bowed_187","midi_source":""},{"t":209.528,"note":74,"dur":0.315,"vel":0.709,"inst":"tom_v0_bowed_187","midi_source":""},{"t":209.528,"note":81,"dur":0.315,"vel":0.709,"inst":"tom_v0_noise_perc_505","midi_source":""},{"t":209.528,"note":81,"dur":0.315,"vel":0.709,"inst":"tom_v0_noise_perc_505","midi_source":""},{"t":209.528,"note":89,"dur":0.315,"vel":0.709,"inst":"tom_v0_noise_perc_505","midi_source":""},{"t":209.528,"note":91,"dur":0.315,"vel":0.709,"inst":"tom_v0_noise_perc_505","midi_source":""},{"t":209.843,"note":62,"dur":0.105,"vel":0.709,"inst":"tom_v0_bowed_187","midi_source":""},{"t":209.843,"note":65,"dur":0.105,"vel":0.709,"inst":"tom_v0_noise_perc_505","midi_source":""},{"t":209.843,"note":67,"dur":0.105,"vel":0.709,"inst":"tom_v0_noise_perc_505","midi_source":""},{"t":209.843,"note":69,"dur":0.105,"vel":0.709,"inst":"tom_v0_noise_perc_505","midi_source":""},{"t":209.948,"note":50,"dur":0.105,"vel":0.709,"inst":"tom_v0_bowed_187","midi_source":""},{"t":209.948,"note":62,"dur":0.105,"vel":0.709,"inst":"tom_v0_bowed_187","midi_source":""},{"t":209.948,"note":67,"dur":0.105,"vel":0.709,"inst":"tom_v0_noise_perc_505","midi_source":""},{"t":209.948,"note":69,"dur":0.105,"vel":0.709,"inst":"tom_v0_noise_perc_505","midi_source":""},{"t":210.053,"note":50,"dur":0.105,"vel":0.709,"inst":"tom_v0_bowed_187","midi_source":""},{"t":210.053,"note":62,"dur":0.105,"vel":0.709,"inst":"tom_v0_bowed_187","midi_source":""},{"t":210.053,"note":67,"dur":0.105,"vel":0.709,"inst":"tom_v0_noise_perc_505","midi_source":""},{"t":210.053,"note":69,"dur":0.105,"vel":0.709,"inst":"tom_v0_noise_perc_505","midi_source":""},{"t":210.385,"note":68,"dur":0.28,"vel":1.0,"inst":"banjo_v0_plucked_142","midi_source":""},{"t":210.385,"note":72,"dur":0.28,"vel":1.0,"inst":"banjo_v0_plucked_142","midi_source":""},{"t":210.385,"note":74,"dur":0.28,"vel":1.0,"inst":"banjo_v0_plucked_142","midi_source":""},{"t":210.385,"note":77,"dur":0.28,"vel":1.0,"inst":"marimba_v0_bass_375","midi_source":""},{"t":210.525,"note":84,"dur":0.07,"vel":1.0,"inst":"banjo_v0_plucked_142","midi_source":""},{"t":210.595,"note":86,"dur":0.07,"vel":1.0,"inst":"banjo_v0_plucked_142","midi_source":""},{"t":210.665,"note":50,"dur":0.28,"vel":1.0,"inst":"banjo_v0_plucked_142","midi_source":""},{"t":210.665,"note":62,"dur":0.28,"vel":1.0,"inst":"banjo_v0_plucked_142","midi_source":""},{"t":210.665,"note":87,"dur":0.14,"vel":1.0,"inst":"marimba_v0_bass_375","midi_source":""},{"t":210.805,"note":89,"dur":0.14,"vel":1.0,"inst":"marimba_v0_bass_375","midi_source":""},{"t":210.945,"note":68,"dur":0.28,"vel":1.0,"inst":"banjo_v0_plucked_142","midi_source":""},{"t":210.945,"note":72,"dur":0.28,"vel":1.0,"inst":"banjo_v0_plucked_142","midi_source":""},{"t":210.945,"note":74,"dur":0.28,"vel":1.0,"inst":"banjo_v0_plucked_142","midi_source":""},{"t":210.945,"note":77,"dur":0.28,"vel":1.0,"inst":"marimba_v0_bass_375","midi_source":""},{"t":210.945,"note":91,"dur":0.14,"vel":1.0,"inst":"marimba_v0_bass_375","midi_source":""},{"t":211.084,"note":92,"dur":0.14,"vel":1.0,"inst":"banjo_v0_plucked_142","midi_source":""},{"t":211.224,"note":55,"dur":0.28,"vel":1.0,"inst":"marimba_v0_bass_375","midi_source":""},{"t":211.224,"note":67,"dur":0.28,"vel":1.0,"inst":"marimba_v0_bass_375","midi_source":""},{"t":211.224,"note":84,"dur":0.28,"vel":1.0,"inst":"banjo_v0_plucked_142","midi_source":""},{"t":211.224,"note":89,"dur":0.28,"vel":1.0,"inst":"marimba_v0_bass_375","midi_source":""},{"t":211.224,"note":96,"dur":0.28,"vel":1.0,"inst":"banjo_v0_plucked_142","midi_source":""},{"t":211.504,"note":70,"dur":0.28,"vel":1.0,"inst":"banjo_v0_plucked_142","midi_source":""},{"t":211.504,"note":74,"dur":0.28,"vel":1.0,"inst":"banjo_v0_plucked_142","midi_source":""},{"t":211.504,"note":79,"dur":0.28,"vel":1.0,"inst":"marimba_v0_bass_375","midi_source":""},{"t":211.504,"note":82,"dur":0.419,"vel":1.0,"inst":"banjo_v0_plucked_142","midi_source":""},{"t":211.504,"note":91,"dur":0.419,"vel":1.0,"inst":"marimba_v0_bass_375","midi_source":""},{"t":211.504,"note":94,"dur":0.419,"vel":1.0,"inst":"banjo_v0_plucked_142","midi_source":""},{"t":211.783,"note":63,"dur":0.28,"vel":1.0,"inst":"marimba_v0_bass_375","midi_source":""},{"t":211.923,"note":94,"dur":0.14,"vel":1.0,"inst":"banjo_v0_plucked_142","midi_source":""},{"t":212.063,"note":70,"dur":0.28,"vel":1.0,"inst":"banjo_v0_plucked_142","midi_source":""},{"t":212.063,"note":74,"dur":0.28,"vel":1.0,"inst":"banjo_v0_plucked_142","midi_source":""},{"t":212.063,"note":79,"dur":0.28,"vel":1.0,"inst":"marimba_v0_bass_375","midi_source":""},{"t":212.063,"note":94,"dur":0.14,"vel":1.0,"inst":"banjo_v0_plucked_142","midi_source":""},{"t":212.203,"note":94,"dur":0.14,"vel":1.0,"inst":"banjo_v0_plucked_142","midi_source":""},{"t":212.342,"note":65,"dur":0.28,"vel":1.0,"inst":"marimba_v0_bass_375","midi_source":""},{"t":212.342,"note":94,"dur":0.28,"vel":1.0,"inst":"banjo_v0_plucked_142","midi_source":""},{"t":212.622,"note":72,"dur":0.28,"vel":1.0,"inst":"banjo_v0_plucked_142","midi_source":""},{"t":212.622,"note":75,"dur":0.28,"vel":1.0,"inst":"marimba_v0_bass_375","midi_source":""},{"t":212.622,"note":77,"dur":0.28,"vel":1.0,"inst":"marimba_v0_bass_375","midi_source":""},{"t":212.622,"note":94,"dur":0.419,"vel":1.0,"inst":"banjo_v0_plucked_142","midi_source":""},{"t":212.901,"note":58,"dur":0.28,"vel":1.0,"inst":"banjo_v0_plucked_142","midi_source":""},{"t":213.041,"note":92,"dur":0.14,"vel":1.0,"inst":"banjo_v0_plucked_142","midi_source":""},{"t":213.181,"note":70,"dur":0.28,"vel":1.0,"inst":"banjo_v0_plucked_142","midi_source":""},{"t":213.181,"note":75,"dur":0.28,"vel":1.0,"inst":"marimba_v0_bass_375","midi_source":""},{"t":213.181,"note":77,"dur":0.28,"vel":1.0,"inst":"marimba_v0_bass_375","midi_source":""},{"t":213.181,"note":92,"dur":0.14,"vel":1.0,"inst":"banjo_v0_plucked_142","midi_source":""},{"t":213.321,"note":92,"dur":0.14,"vel":1.0,"inst":"banjo_v0_plucked_142","midi_source":""},{"t":213.46,"note":63,"dur":0.28,"vel":1.0,"inst":"marimba_v0_bass_375","midi_source":""},{"t":213.46,"note":92,"dur":0.28,"vel":1.0,"inst":"banjo_v0_plucked_142","midi_source":""},{"t":213.74,"note":70,"dur":0.28,"vel":1.0,"inst":"banjo_v0_plucked_142","midi_source":""},{"t":213.74,"note":75,"dur":0.28,"vel":1.0,"inst":"marimba_v0_bass_375","midi_source":""},{"t":213.74,"note":92,"dur":0.419,"vel":1.0,"inst":"banjo_v0_plucked_142","midi_source":""},{"t":214.02,"note":58,"dur":0.28,"vel":1.0,"inst":"banjo_v0_plucked_142","midi_source":""},{"t":214.159,"note":91,"dur":0.14,"vel":1.0,"inst":"marimba_v0_bass_375","midi_source":""},{"t":214.299,"note":70,"dur":0.28,"vel":1.0,"inst":"banjo_v0_plucked_142","midi_source":""},{"t":214.299,"note":72,"dur":0.28,"vel":1.0,"inst":"banjo_v0_plucked_142","midi_source":""},{"t":214.299,"note":75,"dur":0.28,"vel":1.0,"inst":"marimba_v0_bass_375","midi_source":""},{"t":214.299,"note":91,"dur":0.14,"vel":1.0,"inst":"marimba_v0_bass_375","midi_source":""},{"t":214.439,"note":91,"dur":0.14,"vel":1.0,"inst":"marimba_v0_bass_375","midi_source":""},{"t":214.579,"note":58,"dur":0.28,"vel":1.0,"inst":"banjo_v0_plucked_142","midi_source":""},{"t":214.579,"note":62,"dur":0.28,"vel":1.0,"inst":"banjo_v0_plucked_142","midi_source":""},{"t":214.579,"note":91,"dur":0.14,"vel":1.0,"inst":"marimba_v0_bass_375","midi_source":""},{"t":214.718,"note":89,"dur":0.28,"vel":1.0,"inst":"marimba_v0_bass_375","midi_source":""},{"t":214.858,"note":60,"dur":0.28,"vel":1.0,"inst":"banjo_v0_plucked_142","midi_source":""},{"t":214.858,"note":63,"dur":0.28,"vel":1.0,"inst":"marimba_v0_bass_375","midi_source":""},{"t":214.998,"note":87,"dur":0.28,"vel":1.0,"inst":"marimba_v0_bass_375","midi_source":""},{"t":215.138,"note":62,"dur":0.28,"vel":1.0,"inst":"banjo_v0_plucked_142","midi_source":""},{"t":215.138,"note":65,"dur":0.28,"vel":1.0,"inst":"marimba_v0_bass_375","midi_source":""},{"t":215.278,"note":86,"dur":0.28,"vel":1.0,"inst":"banjo_v0_plucked_142","midi_source":""},{"t":215.417,"note":62,"dur":0.28,"vel":1.0,"inst":"banjo_v0_plucked_142","midi_source":""},{"t":215.417,"note":65,"dur":0.28,"vel":1.0,"inst":"marimba_v0_bass_375","midi_source":""},{"t":215.557,"note":84,"dur":0.14,"vel":1.0,"inst":"banjo_v0_plucked_142","midi_source":""},{"t":215.697,"note":63,"dur":0.14,"vel":1.0,"inst":"marimba_v0_bass_375","midi_source":""},{"t":215.697,"note":67,"dur":0.14,"vel":1.0,"inst":"marimba_v0_bass_375","midi_source":""},{"t":215.697,"note":84,"dur":0.559,"vel":1.0,"inst":"banjo_v0_plucked_142","midi_source":""},{"t":215.837,"note":63,"dur":0.14,"vel":1.0,"inst":"marimba_v0_bass_375","midi_source":""},{"t":215.837,"note":67,"dur":0.14,"vel":1.0,"inst":"marimba_v0_bass_375","midi_source":""},{"t":215.976,"note":63,"dur":0.14,"vel":1.0,"inst":"marimba_v0_bass_375","midi_source":""},{"t":215.976,"note":67,"dur":0.14,"vel":1.0,"inst":"marimba_v0_bass_375","midi_source":""},{"t":216.116,"note":63,"dur":0.14,"vel":1.0,"inst":"marimba_v0_bass_375","midi_source":""},{"t":216.116,"note":67,"dur":0.14,"vel":1.0,"inst":"marimba_v0_bass_375","midi_source":""},{"t":216.256,"note":63,"dur":0.14,"vel":1.0,"inst":"marimba_v0_bass_375","midi_source":""},{"t":216.256,"note":67,"dur":0.14,"vel":1.0,"inst":"marimba_v0_bass_375","midi_source":""},{"t":216.256,"note":91,"dur":0.419,"vel":1.0,"inst":"marimba_v0_bass_375","midi_source":""},{"t":216.396,"note":63,"dur":0.14,"vel":1.0,"inst":"marimba_v0_bass_375","midi_source":""},{"t":216.396,"note":67,"dur":0.14,"vel":1.0,"inst":"marimba_v0_bass_375","midi_source":""},{"t":216.536,"note":63,"dur":0.14,"vel":1.0,"inst":"marimba_v0_bass_375","midi_source":""},{"t":216.536,"note":67,"dur":0.14,"vel":1.0,"inst":"marimba_v0_bass_375","midi_source":""},{"t":216.675,"note":63,"dur":0.14,"vel":1.0,"inst":"marimba_v0_bass_375","midi_source":""},{"t":216.675,"note":67,"dur":0.14,"vel":1.0,"inst":"marimba_v0_bass_375","midi_source":""},{"t":216.675,"note":84,"dur":0.14,"vel":1.0,"inst":"banjo_v0_plucked_142","midi_source":""},{"t":216.815,"note":62,"dur":0.14,"vel":1.0,"inst":"banjo_v0_plucked_142","midi_source":""},{"t":216.815,"note":65,"dur":0.14,"vel":1.0,"inst":"marimba_v0_bass_375","midi_source":""},{"t":216.815,"note":67,"dur":0.14,"vel":1.0,"inst":"marimba_v0_bass_375","midi_source":""},{"t":216.815,"note":70,"dur":0.14,"vel":1.0,"inst":"banjo_v0_plucked_142","midi_source":""},{"t":216.815,"note":82,"dur":0.559,"vel":1.0,"inst":"banjo_v0_plucked_142","midi_source":""},{"t":216.955,"note":62,"dur":0.14,"vel":1.0,"inst":"banjo_v0_plucked_142","midi_source":""},{"t":216.955,"note":65,"dur":0.14,"vel":1.0,"inst":"marimba_v0_bass_375","midi_source":""},{"t":216.955,"note":67,"dur":0.14,"vel":1.0,"inst":"marimba_v0_bass_375","midi_source":""},{"t":216.955,"note":70,"dur":0.14,"vel":1.0,"inst":"banjo_v0_plucked_142","midi_source":""},{"t":217.095,"note":62,"dur":0.14,"vel":1.0,"inst":"banjo_v0_plucked_142","midi_source":""},{"t":217.095,"note":65,"dur":0.14,"vel":1.0,"inst":"marimba_v0_bass_375","midi_source":""},{"t":217.095,"note":67,"dur":0.14,"vel":1.0,"inst":"marimba_v0_bass_375","midi_source":""},{"t":217.095,"note":70,"dur":0.14,"vel":1.0,"inst":"banjo_v0_plucked_142","midi_source":""},{"t":217.234,"note":62,"dur":0.14,"vel":1.0,"inst":"banjo_v0_plucked_142","midi_source":""},{"t":217.234,"note":65,"dur":0.14,"vel":1.0,"inst":"marimba_v0_bass_375","midi_source":""},{"t":217.234,"note":67,"dur":0.14,"vel":1.0,"inst":"marimba_v0_bass_375","midi_source":""},{"t":217.234,"note":70,"dur":0.14,"vel":1.0,"inst":"banjo_v0_plucked_142","midi_source":""},{"t":217.374,"note":62,"dur":0.14,"vel":1.0,"inst":"banjo_v0_plucked_142","midi_source":""},{"t":217.374,"note":65,"dur":0.14,"vel":1.0,"inst":"marimba_v0_bass_375","midi_source":""},{"t":217.374,"note":67,"dur":0.14,"vel":1.0,"inst":"marimba_v0_bass_375","midi_source":""},{"t":217.374,"note":70,"dur":0.14,"vel":1.0,"inst":"banjo_v0_plucked_142","midi_source":""},{"t":217.374,"note":92,"dur":0.419,"vel":1.0,"inst":"banjo_v0_plucked_142","midi_source":""},{"t":217.514,"note":62,"dur":0.14,"vel":1.0,"inst":"banjo_v0_plucked_142","midi_source":""},{"t":217.514,"note":65,"dur":0.14,"vel":1.0,"inst":"marimba_v0_bass_375","midi_source":""},{"t":217.514,"note":67,"dur":0.14,"vel":1.0,"inst":"marimba_v0_bass_375","midi_source":""},{"t":217.514,"note":70,"dur":0.14,"vel":1.0,"inst":"banjo_v0_plucked_142","midi_source":""},{"t":217.654,"note":62,"dur":0.14,"vel":1.0,"inst":"banjo_v0_plucked_142","midi_source":""},{"t":217.654,"note":65,"dur":0.14,"vel":1.0,"inst":"marimba_v0_bass_375","midi_source":""},{"t":217.654,"note":67,"dur":0.14,"vel":1.0,"inst":"marimba_v0_bass_375","midi_source":""},{"t":217.654,"note":70,"dur":0.14,"vel":1.0,"inst":"banjo_v0_plucked_142","midi_source":""},{"t":217.794,"note":62,"dur":0.14,"vel":1.0,"inst":"banjo_v0_plucked_142","midi_source":""},{"t":217.794,"note":65,"dur":0.14,"vel":1.0,"inst":"marimba_v0_bass_375","midi_source":""},{"t":217.794,"note":67,"dur":0.14,"vel":1.0,"inst":"marimba_v0_bass_375","midi_source":""},{"t":217.794,"note":70,"dur":0.14,"vel":1.0,"inst":"banjo_v0_plucked_142","midi_source":""},{"t":217.794,"note":91,"dur":0.14,"vel":1.0,"inst":"marimba_v0_bass_375","midi_source":""},{"t":217.933,"note":48,"dur":0.14,"vel":1.0,"inst":"banjo_v0_plucked_142","midi_source":""},{"t":217.933,"note":60,"dur":0.14,"vel":1.0,"inst":"banjo_v0_plucked_142","midi_source":""},{"t":217.933,"note":87,"dur":0.28,"vel":1.0,"inst":"marimba_v0_bass_375","midi_source":""},{"t":218.073,"note":67,"dur":0.14,"vel":1.0,"inst":"marimba_v0_bass_375","midi_source":""},{"t":218.213,"note":72,"dur":0.14,"vel":1.0,"inst":"banjo_v0_plucked_142","midi_source":""},{"t":218.213,"note":75,"dur":0.14,"vel":1.0,"inst":"marimba_v0_bass_375","midi_source":""},{"t":218.213,"note":91,"dur":0.419,"vel":1.0,"inst":"marimba_v0_bass_375","midi_source":""},{"t":218.353,"note":67,"dur":0.14,"vel":1.0,"inst":"marimba_v0_bass_375","midi_source":""},{"t":218.492,"note":72,"dur":0.14,"vel":1.0,"inst":"banjo_v0_plucked_142","midi_source":""},{"t":218.492,"note":75,"dur":0.14,"vel":1.0,"inst":"marimba_v0_bass_375","midi_source":""},{"t":218.632,"note":67,"dur":0.14,"vel":1.0,"inst":"marimba_v0_bass_375","midi_source":""},{"t":218.632,"note":99,"dur":0.14,"vel":1.0,"inst":"marimba_v0_bass_375","midi_source":""},{"t":218.772,"note":72,"dur":0.14,"vel":1.0,"inst":"banjo_v0_plucked_142","midi_source":""},{"t":218.772,"note":75,"dur":0.14,"vel":1.0,"inst":"marimba_v0_bass_375","midi_source":""},{"t":218.772,"note":98,"dur":0.14,"vel":1.0,"inst":"banjo_v0_plucked_142","midi_source":""},{"t":218.912,"note":67,"dur":0.14,"vel":1.0,"inst":"marimba_v0_bass_375","midi_source":""},{"t":218.912,"note":96,"dur":0.14,"vel":1.0,"inst":"banjo_v0_plucked_142","midi_source":""},{"t":219.052,"note":48,"dur":0.14,"vel":1.0,"inst":"banjo_v0_plucked_142","midi_source":""},{"t":219.052,"note":60,"dur":0.14,"vel":1.0,"inst":"banjo_v0_plucked_142","midi_source":""},{"t":219.052,"note":96,"dur":0.28,"vel":1.0,"inst":"banjo_v0_plucked_142","midi_source":""},{"t":219.191,"note":67,"dur":0.14,"vel":1.0,"inst":"marimba_v0_bass_375","midi_source":""},{"t":219.331,"note":68,"dur":0.28,"vel":1.0,"inst":"banjo_v0_plucked_142","midi_source":""},{"t":219.331,"note":72,"dur":0.28,"vel":1.0,"inst":"banjo_v0_plucked_142","midi_source":""},{"t":219.331,"note":74,"dur":0.28,"vel":1.0,"inst":"banjo_v0_plucked_142","midi_source":""},{"t":219.331,"note":77,"dur":0.28,"vel":1.0,"inst":"marimba_v0_bass_375","midi_source":""},{"t":219.471,"note":84,"dur":0.07,"vel":1.0,"inst":"banjo_v0_plucked_142","midi_source":""},{"t":219.541,"note":86,"dur":0.07,"vel":1.0,"inst":"banjo_v0_plucked_142","midi_source":""},{"t":219.611,"note":50,"dur":0.28,"vel":1.0,"inst":"banjo_v0_plucked_142","midi_source":""},{"t":219.611,"note":62,"dur":0.28,"vel":1.0,"inst":"banjo_v0_plucked_142","midi_source":""},{"t":219.611,"note":87,"dur":0.14,"vel":1.0,"inst":"marimba_v0_bass_375","midi_source":""},{"t":219.75,"note":89,"dur":0.14,"vel":1.0,"inst":"marimba_v0_bass_375","midi_source":""},{"t":219.89,"note":68,"dur":0.28,"vel":1.0,"inst":"banjo_v0_plucked_142","midi_source":""},{"t":219.89,"note":72,"dur":0.28,"vel":1.0,"inst":"banjo_v0_plucked_142","midi_source":""},{"t":219.89,"note":74,"dur":0.28,"vel":1.0,"inst":"banjo_v0_plucked_142","midi_source":""},{"t":219.89,"note":77,"dur":0.28,"vel":1.0,"inst":"marimba_v0_bass_375","midi_source":""},{"t":219.89,"note":91,"dur":0.14,"vel":1.0,"inst":"marimba_v0_bass_375","midi_source":""},{"t":220.03,"note":92,"dur":0.14,"vel":1.0,"inst":"banjo_v0_plucked_142","midi_source":""},{"t":220.17,"note":55,"dur":0.28,"vel":1.0,"inst":"marimba_v0_bass_375","midi_source":""},{"t":220.17,"note":67,"dur":0.28,"vel":1.0,"inst":"marimba_v0_bass_375","midi_source":""},{"t":220.17,"note":84,"dur":0.28,"vel":1.0,"inst":"banjo_v0_plucked_142","midi_source":""},{"t":220.17,"note":89,"dur":0.28,"vel":1.0,"inst":"marimba_v0_bass_375","midi_source":""},{"t":220.17,"note":96,"dur":0.28,"vel":1.0,"inst":"banjo_v0_plucked_142","midi_source":""},{"t":220.449,"note":70,"dur":0.28,"vel":1.0,"inst":"banjo_v0_plucked_142","midi_source":""},{"t":220.449,"note":74,"dur":0.28,"vel":1.0,"inst":"banjo_v0_plucked_142","midi_source":""},{"t":220.449,"note":79,"dur":0.28,"vel":1.0,"inst":"marimba_v0_bass_375","midi_source":""},{"t":220.449,"note":82,"dur":0.419,"vel":1.0,"inst":"banjo_v0_plucked_142","midi_source":""},{"t":220.449,"note":91,"dur":0.419,"vel":1.0,"inst":"marimba_v0_bass_375","midi_source":""},{"t":220.449,"note":94,"dur":0.419,"vel":1.0,"inst":"banjo_v0_plucked_142","midi_source":""},{"t":220.729,"note":63,"dur":0.28,"vel":1.0,"inst":"marimba_v0_bass_375","midi_source":""},{"t":220.869,"note":94,"dur":0.14,"vel":1.0,"inst":"banjo_v0_plucked_142","midi_source":""},{"t":221.008,"note":70,"dur":0.28,"vel":1.0,"inst":"banjo_v0_plucked_142","midi_source":""},{"t":221.008,"note":74,"dur":0.28,"vel":1.0,"inst":"banjo_v0_plucked_142","midi_source":""},{"t":221.008,"note":79,"dur":0.28,"vel":1.0,"inst":"marimba_v0_bass_375","midi_source":""},{"t":221.008,"note":94,"dur":0.14,"vel":1.0,"inst":"banjo_v0_plucked_142","midi_source":""},{"t":221.148,"note":94,"dur":0.14,"vel":1.0,"inst":"banjo_v0_plucked_142","midi_source":""},{"t":221.288,"note":65,"dur":0.28,"vel":1.0,"inst":"marimba_v0_bass_375","midi_source":""},{"t":221.288,"note":94,"dur":0.28,"vel":1.0,"inst":"banjo_v0_plucked_142","midi_source":""},{"t":221.568,"note":72,"dur":0.28,"vel":1.0,"inst":"banjo_v0_plucked_142","midi_source":""},{"t":221.568,"note":75,"dur":0.28,"vel":1.0,"inst":"marimba_v0_bass_375","midi_source":""},{"t":221.568,"note":77,"dur":0.28,"vel":1.0,"inst":"marimba_v0_bass_375","midi_source":""},{"t":221.568,"note":94,"dur":0.419,"vel":1.0,"inst":"banjo_v0_plucked_142","midi_source":""},{"t":221.847,"note":58,"dur":0.28,"vel":1.0,"inst":"banjo_v0_plucked_142","midi_source":""},{"t":221.987,"note":92,"dur":0.14,"vel":1.0,"inst":"banjo_v0_plucked_142","midi_source":""},{"t":222.127,"note":70,"dur":0.28,"vel":1.0,"inst":"banjo_v0_plucked_142","midi_source":""},{"t":222.127,"note":75,"dur":0.28,"vel":1.0,"inst":"marimba_v0_bass_375","midi_source":""},{"t":222.127,"note":77,"dur":0.28,"vel":1.0,"inst":"marimba_v0_bass_375","midi_source":""},{"t":222.127,"note":92,"dur":0.14,"vel":1.0,"inst":"banjo_v0_plucked_142","midi_source":""},{"t":222.266,"note":92,"dur":0.14,"vel":1.0,"inst":"banjo_v0_plucked_142","midi_source":""},{"t":222.406,"note":63,"dur":0.28,"vel":1.0,"inst":"marimba_v0_bass_375","midi_source":""},{"t":222.406,"note":92,"dur":0.28,"vel":1.0,"inst":"banjo_v0_plucked_142","midi_source":""},{"t":222.686,"note":70,"dur":0.28,"vel":1.0,"inst":"banjo_v0_plucked_142","midi_source":""},{"t":222.686,"note":75,"dur":0.28,"vel":1.0,"inst":"marimba_v0_bass_375","midi_source":""},{"t":222.686,"note":92,"dur":0.419,"vel":1.0,"inst":"banjo_v0_plucked_142","midi_source":""},{"t":222.965,"note":58,"dur":0.28,"vel":1.0,"inst":"banjo_v0_plucked_142","midi_source":""},{"t":223.105,"note":91,"dur":0.14,"vel":1.0,"inst":"marimba_v0_bass_375","midi_source":""},{"t":223.245,"note":70,"dur":0.28,"vel":1.0,"inst":"banjo_v0_plucked_142","midi_source":""},{"t":223.245,"note":72,"dur":0.28,"vel":1.0,"inst":"banjo_v0_plucked_142","midi_source":""},{"t":223.245,"note":75,"dur":0.28,"vel":1.0,"inst":"marimba_v0_bass_375","midi_source":""},{"t":223.245,"note":91,"dur":0.14,"vel":1.0,"inst":"marimba_v0_bass_375","midi_source":""},{"t":223.385,"note":91,"dur":0.14,"vel":1.0,"inst":"marimba_v0_bass_375","midi_source":""},{"t":223.524,"note":58,"dur":0.28,"vel":1.0,"inst":"banjo_v0_plucked_142","midi_source":""},{"t":223.524,"note":62,"dur":0.28,"vel":1.0,"inst":"banjo_v0_plucked_142","midi_source":""},{"t":223.524,"note":91,"dur":0.14,"vel":1.0,"inst":"marimba_v0_bass_375","midi_source":""},{"t":223.664,"note":89,"dur":0.28,"vel":1.0,"inst":"marimba_v0_bass_375","midi_source":""},{"t":223.804,"note":60,"dur":0.28,"vel":1.0,"inst":"banjo_v0_plucked_142","midi_source":""},{"t":223.804,"note":63,"dur":0.28,"vel":1.0,"inst":"marimba_v0_bass_375","midi_source":""},{"t":223.944,"note":87,"dur":0.28,"vel":1.0,"inst":"marimba_v0_bass_375","midi_source":""},{"t":224.084,"note":62,"dur":0.28,"vel":1.0,"inst":"banjo_v0_plucked_142","midi_source":""},{"t":224.084,"note":65,"dur":0.28,"vel":1.0,"inst":"marimba_v0_bass_375","midi_source":""},{"t":224.223,"note":86,"dur":0.28,"vel":1.0,"inst":"banjo_v0_plucked_142","midi_source":""},{"t":224.363,"note":62,"dur":0.28,"vel":1.0,"inst":"banjo_v0_plucked_142","midi_source":""},{"t":224.363,"note":65,"dur":0.28,"vel":1.0,"inst":"marimba_v0_bass_375","midi_source":""},{"t":224.503,"note":84,"dur":0.14,"vel":1.0,"inst":"banjo_v0_plucked_142","midi_source":""},{"t":224.643,"note":63,"dur":0.14,"vel":1.0,"inst":"marimba_v0_bass_375","midi_source":""},{"t":224.643,"note":67,"dur":0.14,"vel":1.0,"inst":"marimba_v0_bass_375","midi_source":""},{"t":224.643,"note":84,"dur":0.559,"vel":1.0,"inst":"banjo_v0_plucked_142","midi_source":""},{"t":224.782,"note":63,"dur":0.14,"vel":1.0,"inst":"marimba_v0_bass_375","midi_source":""},{"t":224.782,"note":67,"dur":0.14,"vel":1.0,"inst":"marimba_v0_bass_375","midi_source":""},{"t":224.922,"note":63,"dur":0.14,"vel":1.0,"inst":"marimba_v0_bass_375","midi_source":""},{"t":224.922,"note":67,"dur":0.14,"vel":1.0,"inst":"marimba_v0_bass_375","midi_source":""},{"t":225.062,"note":63,"dur":0.14,"vel":1.0,"inst":"marimba_v0_bass_375","midi_source":""},{"t":225.062,"note":67,"dur":0.14,"vel":1.0,"inst":"marimba_v0_bass_375","midi_source":""},{"t":225.202,"note":63,"dur":0.14,"vel":1.0,"inst":"marimba_v0_bass_375","midi_source":""},{"t":225.202,"note":67,"dur":0.14,"vel":1.0,"inst":"marimba_v0_bass_375","midi_source":""},{"t":225.202,"note":91,"dur":0.419,"vel":1.0,"inst":"marimba_v0_bass_375","midi_source":""},{"t":225.342,"note":63,"dur":0.14,"vel":1.0,"inst":"marimba_v0_bass_375","midi_source":""},{"t":225.342,"note":67,"dur":0.14,"vel":1.0,"inst":"marimba_v0_bass_375","midi_source":""},{"t":225.481,"note":63,"dur":0.14,"vel":1.0,"inst":"marimba_v0_bass_375","midi_source":""},{"t":225.481,"note":67,"dur":0.14,"vel":1.0,"inst":"marimba_v0_bass_375","midi_source":""},{"t":225.621,"note":63,"dur":0.14,"vel":1.0,"inst":"marimba_v0_bass_375","midi_source":""},{"t":225.621,"note":67,"dur":0.14,"vel":1.0,"inst":"marimba_v0_bass_375","midi_source":""},{"t":225.621,"note":84,"dur":0.14,"vel":1.0,"inst":"banjo_v0_plucked_142","midi_source":""},{"t":225.761,"note":62,"dur":0.14,"vel":1.0,"inst":"banjo_v0_plucked_142","midi_source":""},{"t":225.761,"note":65,"dur":0.14,"vel":1.0,"inst":"marimba_v0_bass_375","midi_source":""},{"t":225.761,"note":67,"dur":0.14,"vel":1.0,"inst":"marimba_v0_bass_375","midi_source":""},{"t":225.761,"note":70,"dur":0.14,"vel":1.0,"inst":"banjo_v0_plucked_142","midi_source":""},{"t":225.761,"note":82,"dur":0.559,"vel":1.0,"inst":"banjo_v0_plucked_142","midi_source":""},{"t":225.901,"note":62,"dur":0.14,"vel":1.0,"inst":"banjo_v0_plucked_142","midi_source":""},{"t":225.901,"note":65,"dur":0.14,"vel":1.0,"inst":"marimba_v0_bass_375","midi_source":""},{"t":225.901,"note":67,"dur":0.14,"vel":1.0,"inst":"marimba_v0_bass_375","midi_source":""},{"t":225.901,"note":70,"dur":0.14,"vel":1.0,"inst":"banjo_v0_plucked_142","midi_source":""},{"t":226.04,"note":62,"dur":0.14,"vel":1.0,"inst":"banjo_v0_plucked_142","midi_source":""},{"t":226.04,"note":65,"dur":0.14,"vel":1.0,"inst":"marimba_v0_bass_375","midi_source":""},{"t":226.04,"note":67,"dur":0.14,"vel":1.0,"inst":"marimba_v0_bass_375","midi_source":""},{"t":226.04,"note":70,"dur":0.14,"vel":1.0,"inst":"banjo_v0_plucked_142","midi_source":""},{"t":226.18,"note":62,"dur":0.14,"vel":1.0,"inst":"banjo_v0_plucked_142","midi_source":""},{"t":226.18,"note":65,"dur":0.14,"vel":1.0,"inst":"marimba_v0_bass_375","midi_source":""},{"t":226.18,"note":67,"dur":0.14,"vel":1.0,"inst":"marimba_v0_bass_375","midi_source":""},{"t":226.18,"note":70,"dur":0.14,"vel":1.0,"inst":"banjo_v0_plucked_142","midi_source":""},{"t":226.32,"note":62,"dur":0.14,"vel":1.0,"inst":"banjo_v0_plucked_142","midi_source":""},{"t":226.32,"note":65,"dur":0.14,"vel":1.0,"inst":"marimba_v0_bass_375","midi_source":""},{"t":226.32,"note":67,"dur":0.14,"vel":1.0,"inst":"marimba_v0_bass_375","midi_source":""},{"t":226.32,"note":70,"dur":0.14,"vel":1.0,"inst":"banjo_v0_plucked_142","midi_source":""},{"t":226.32,"note":92,"dur":0.419,"vel":1.0,"inst":"banjo_v0_plucked_142","midi_source":""},{"t":226.46,"note":62,"dur":0.14,"vel":1.0,"inst":"banjo_v0_plucked_142","midi_source":""},{"t":226.46,"note":65,"dur":0.14,"vel":1.0,"inst":"marimba_v0_bass_375","midi_source":""},{"t":226.46,"note":67,"dur":0.14,"vel":1.0,"inst":"marimba_v0_bass_375","midi_source":""},{"t":226.46,"note":70,"dur":0.14,"vel":1.0,"inst":"banjo_v0_plucked_142","midi_source":""},{"t":226.6,"note":62,"dur":0.14,"vel":1.0,"inst":"banjo_v0_plucked_142","midi_source":""},{"t":226.6,"note":65,"dur":0.14,"vel":1.0,"inst":"marimba_v0_bass_375","midi_source":""},{"t":226.6,"note":67,"dur":0.14,"vel":1.0,"inst":"marimba_v0_bass_375","midi_source":""},{"t":226.6,"note":70,"dur":0.14,"vel":1.0,"inst":"banjo_v0_plucked_142","midi_source":""},{"t":226.739,"note":62,"dur":0.14,"vel":1.0,"inst":"banjo_v0_plucked_142","midi_source":""},{"t":226.739,"note":65,"dur":0.14,"vel":1.0,"inst":"marimba_v0_bass_375","midi_source":""},{"t":226.739,"note":67,"dur":0.14,"vel":1.0,"inst":"marimba_v0_bass_375","midi_source":""},{"t":226.739,"note":70,"dur":0.14,"vel":1.0,"inst":"banjo_v0_plucked_142","midi_source":""},{"t":226.739,"note":91,"dur":0.14,"vel":1.0,"inst":"marimba_v0_bass_375","midi_source":""},{"t":226.879,"note":48,"dur":0.14,"vel":1.0,"inst":"banjo_v0_plucked_142","midi_source":""},{"t":226.879,"note":60,"dur":0.14,"vel":1.0,"inst":"banjo_v0_plucked_142","midi_source":""},{"t":226.879,"note":87,"dur":0.28,"vel":1.0,"inst":"marimba_v0_bass_375","midi_source":""},{"t":227.019,"note":67,"dur":0.14,"vel":1.0,"inst":"marimba_v0_bass_375","midi_source":""},{"t":227.159,"note":72,"dur":0.14,"vel":1.0,"inst":"banjo_v0_plucked_142","midi_source":""},{"t":227.159,"note":75,"dur":0.14,"vel":1.0,"inst":"marimba_v0_bass_375","midi_source":""},{"t":227.159,"note":91,"dur":0.419,"vel":1.0,"inst":"marimba_v0_bass_375","midi_source":""},{"t":227.298,"note":67,"dur":0.14,"vel":1.0,"inst":"marimba_v0_bass_375","midi_source":""},{"t":227.438,"note":72,"dur":0.14,"vel":1.0,"inst":"banjo_v0_plucked_142","midi_source":""},{"t":227.438,"note":75,"dur":0.14,"vel":1.0,"inst":"marimba_v0_bass_375","midi_source":""},{"t":227.578,"note":67,"dur":0.14,"vel":1.0,"inst":"marimba_v0_bass_375","midi_source":""},{"t":227.578,"note":99,"dur":0.14,"vel":1.0,"inst":"marimba_v0_bass_375","midi_source":""},{"t":227.718,"note":72,"dur":0.14,"vel":1.0,"inst":"banjo_v0_plucked_142","midi_source":""},{"t":227.718,"note":75,"dur":0.14,"vel":1.0,"inst":"marimba_v0_bass_375","midi_source":""},{"t":227.718,"note":98,"dur":0.14,"vel":1.0,"inst":"banjo_v0_plucked_142","midi_source":""},{"t":227.858,"note":67,"dur":0.14,"vel":1.0,"inst":"marimba_v0_bass_375","midi_source":""},{"t":227.858,"note":96,"dur":0.14,"vel":1.0,"inst":"banjo_v0_plucked_142","midi_source":""},{"t":227.997,"note":48,"dur":0.14,"vel":1.0,"inst":"banjo_v0_plucked_142","midi_source":""},{"t":227.997,"note":60,"dur":0.14,"vel":1.0,"inst":"banjo_v0_plucked_142","midi_source":""},{"t":227.997,"note":96,"dur":0.28,"vel":1.0,"inst":"banjo_v0_plucked_142","midi_source":""},{"t":228.137,"note":67,"dur":0.14,"vel":1.0,"inst":"marimba_v0_bass_375","midi_source":""},{"t":228.277,"note":68,"dur":0.28,"vel":1.0,"inst":"banjo_v0_plucked_142","midi_source":""},{"t":228.277,"note":72,"dur":0.28,"vel":1.0,"inst":"banjo_v0_plucked_142","midi_source":""},{"t":228.277,"note":74,"dur":0.28,"vel":1.0,"inst":"banjo_v0_plucked_142","midi_source":""},{"t":228.277,"note":77,"dur":0.28,"vel":1.0,"inst":"marimba_v0_bass_375","midi_source":""},{"t":228.417,"note":84,"dur":0.07,"vel":1.0,"inst":"banjo_v0_plucked_142","midi_source":""},{"t":228.487,"note":86,"dur":0.07,"vel":1.0,"inst":"banjo_v0_plucked_142","midi_source":""},{"t":228.556,"note":50,"dur":0.28,"vel":1.0,"inst":"banjo_v0_plucked_142","midi_source":""},{"t":228.556,"note":62,"dur":0.28,"vel":1.0,"inst":"banjo_v0_plucked_142","midi_source":""},{"t":228.556,"note":87,"dur":0.14,"vel":1.0,"inst":"marimba_v0_bass_375","midi_source":""},{"t":228.696,"note":89,"dur":0.14,"vel":1.0,"inst":"marimba_v0_bass_375","midi_source":""},{"t":228.836,"note":68,"dur":0.28,"vel":1.0,"inst":"banjo_v0_plucked_142","midi_source":""},{"t":228.836,"note":72,"dur":0.28,"vel":1.0,"inst":"banjo_v0_plucked_142","midi_source":""},{"t":228.836,"note":74,"dur":0.28,"vel":1.0,"inst":"banjo_v0_plucked_142","midi_source":""},{"t":228.836,"note":77,"dur":0.28,"vel":1.0,"inst":"marimba_v0_bass_375","midi_source":""},{"t":228.836,"note":91,"dur":0.14,"vel":1.0,"inst":"marimba_v0_bass_375","midi_source":""},{"t":228.976,"note":92,"dur":0.14,"vel":1.0,"inst":"banjo_v0_plucked_142","midi_source":""},{"t":229.116,"note":55,"dur":0.28,"vel":1.0,"inst":"marimba_v0_bass_375","midi_source":""},{"t":229.116,"note":67,"dur":0.28,"vel":1.0,"inst":"marimba_v0_bass_375","midi_source":""},{"t":229.116,"note":84,"dur":0.28,"vel":1.0,"inst":"banjo_v0_plucked_142","midi_source":""},{"t":229.116,"note":89,"dur":0.28,"vel":1.0,"inst":"marimba_v0_bass_375","midi_source":""},{"t":229.116,"note":96,"dur":0.28,"vel":1.0,"inst":"banjo_v0_plucked_142","midi_source":""},{"t":229.395,"note":70,"dur":0.28,"vel":1.0,"inst":"banjo_v0_plucked_142","midi_source":""},{"t":229.395,"note":74,"dur":0.28,"vel":1.0,"inst":"banjo_v0_plucked_142","midi_source":""},{"t":229.395,"note":79,"dur":0.28,"vel":1.0,"inst":"marimba_v0_bass_375","midi_source":""},{"t":229.395,"note":82,"dur":0.419,"vel":1.0,"inst":"banjo_v0_plucked_142","midi_source":""},{"t":229.395,"note":91,"dur":0.419,"vel":1.0,"inst":"marimba_v0_bass_375","midi_source":""},{"t":229.395,"note":94,"dur":0.419,"vel":1.0,"inst":"banjo_v0_plucked_142","midi_source":""},{"t":229.675,"note":63,"dur":0.28,"vel":1.0,"inst":"marimba_v0_bass_375","midi_source":""},{"t":229.814,"note":94,"dur":0.14,"vel":1.0,"inst":"banjo_v0_plucked_142","midi_source":""},{"t":229.954,"note":70,"dur":0.28,"vel":1.0,"inst":"banjo_v0_plucked_142","midi_source":""},{"t":229.954,"note":74,"dur":0.28,"vel":1.0,"inst":"banjo_v0_plucked_142","midi_source":""},{"t":229.954,"note":79,"dur":0.28,"vel":1.0,"inst":"marimba_v0_bass_375","midi_source":""},{"t":229.954,"note":94,"dur":0.14,"vel":1.0,"inst":"banjo_v0_plucked_142","midi_source":""},{"t":230.094,"note":94,"dur":0.14,"vel":1.0,"inst":"banjo_v0_plucked_142","midi_source":""},{"t":230.234,"note":65,"dur":0.28,"vel":1.0,"inst":"marimba_v0_bass_375","midi_source":""},{"t":230.234,"note":94,"dur":0.28,"vel":1.0,"inst":"banjo_v0_plucked_142","midi_source":""},{"t":230.513,"note":72,"dur":0.28,"vel":1.0,"inst":"banjo_v0_plucked_142","midi_source":""},{"t":230.513,"note":75,"dur":0.28,"vel":1.0,"inst":"marimba_v0_bass_375","midi_source":""},{"t":230.513,"note":77,"dur":0.28,"vel":1.0,"inst":"marimba_v0_bass_375","midi_source":""},{"t":230.513,"note":94,"dur":0.419,"vel":1.0,"inst":"banjo_v0_plucked_142","midi_source":""},{"t":230.793,"note":58,"dur":0.28,"vel":1.0,"inst":"banjo_v0_plucked_142","midi_source":""},{"t":230.933,"note":92,"dur":0.14,"vel":1.0,"inst":"banjo_v0_plucked_142","midi_source":""},{"t":231.072,"note":70,"dur":0.28,"vel":1.0,"inst":"banjo_v0_plucked_142","midi_source":""},{"t":231.072,"note":75,"dur":0.28,"vel":1.0,"inst":"marimba_v0_bass_375","midi_source":""},{"t":231.072,"note":77,"dur":0.28,"vel":1.0,"inst":"marimba_v0_bass_375","midi_source":""},{"t":231.072,"note":92,"dur":0.14,"vel":1.0,"inst":"banjo_v0_plucked_142","midi_source":""},{"t":231.212,"note":92,"dur":0.14,"vel":1.0,"inst":"banjo_v0_plucked_142","midi_source":""},{"t":231.352,"note":63,"dur":0.28,"vel":1.0,"inst":"marimba_v0_bass_375","midi_source":""},{"t":231.352,"note":92,"dur":0.28,"vel":1.0,"inst":"banjo_v0_plucked_142","midi_source":""},{"t":231.631,"note":70,"dur":0.28,"vel":1.0,"inst":"banjo_v0_plucked_142","midi_source":""},{"t":231.631,"note":75,"dur":0.28,"vel":1.0,"inst":"marimba_v0_bass_375","midi_source":""},{"t":231.631,"note":92,"dur":0.419,"vel":1.0,"inst":"banjo_v0_plucked_142","midi_source":""},{"t":231.911,"note":58,"dur":0.28,"vel":1.0,"inst":"banjo_v0_plucked_142","midi_source":""},{"t":232.051,"note":91,"dur":0.14,"vel":1.0,"inst":"marimba_v0_bass_375","midi_source":""},{"t":232.191,"note":70,"dur":0.28,"vel":1.0,"inst":"banjo_v0_plucked_142","midi_source":""},{"t":232.191,"note":72,"dur":0.28,"vel":1.0,"inst":"banjo_v0_plucked_142","midi_source":""},{"t":232.191,"note":75,"dur":0.28,"vel":1.0,"inst":"marimba_v0_bass_375","midi_source":""},{"t":232.191,"note":91,"dur":0.14,"vel":1.0,"inst":"marimba_v0_bass_375","midi_source":""},{"t":232.33,"note":91,"dur":0.14,"vel":1.0,"inst":"marimba_v0_bass_375","midi_source":""},{"t":232.47,"note":58,"dur":0.28,"vel":1.0,"inst":"banjo_v0_plucked_142","midi_source":""},{"t":232.47,"note":62,"dur":0.28,"vel":1.0,"inst":"banjo_v0_plucked_142","midi_source":""},{"t":232.47,"note":91,"dur":0.14,"vel":1.0,"inst":"marimba_v0_bass_375","midi_source":""},{"t":232.61,"note":89,"dur":0.28,"vel":1.0,"inst":"marimba_v0_bass_375","midi_source":""},{"t":232.75,"note":60,"dur":0.28,"vel":1.0,"inst":"banjo_v0_plucked_142","midi_source":""},{"t":232.75,"note":63,"dur":0.28,"vel":1.0,"inst":"marimba_v0_bass_375","midi_source":""},{"t":232.889,"note":87,"dur":0.28,"vel":1.0,"inst":"marimba_v0_bass_375","midi_source":""},{"t":233.029,"note":62,"dur":0.28,"vel":1.0,"inst":"banjo_v0_plucked_142","midi_source":""},{"t":233.029,"note":65,"dur":0.28,"vel":1.0,"inst":"marimba_v0_bass_375","midi_source":""},{"t":233.169,"note":86,"dur":0.28,"vel":1.0,"inst":"banjo_v0_plucked_142","midi_source":""},{"t":233.309,"note":62,"dur":0.28,"vel":1.0,"inst":"banjo_v0_plucked_142","midi_source":""},{"t":233.309,"note":65,"dur":0.28,"vel":1.0,"inst":"marimba_v0_bass_375","midi_source":""},{"t":233.449,"note":84,"dur":0.14,"vel":1.0,"inst":"banjo_v0_plucked_142","midi_source":""},{"t":233.588,"note":63,"dur":0.14,"vel":1.0,"inst":"marimba_v0_bass_375","midi_source":""},{"t":233.588,"note":67,"dur":0.14,"vel":1.0,"inst":"marimba_v0_bass_375","midi_source":""},{"t":233.588,"note":84,"dur":0.559,"vel":1.0,"inst":"banjo_v0_plucked_142","midi_source":""},{"t":233.728,"note":63,"dur":0.14,"vel":1.0,"inst":"marimba_v0_bass_375","midi_source":""},{"t":233.728,"note":67,"dur":0.14,"vel":1.0,"inst":"marimba_v0_bass_375","midi_source":""},{"t":233.868,"note":63,"dur":0.14,"vel":1.0,"inst":"marimba_v0_bass_375","midi_source":""},{"t":233.868,"note":67,"dur":0.14,"vel":1.0,"inst":"marimba_v0_bass_375","midi_source":""},{"t":234.008,"note":63,"dur":0.14,"vel":1.0,"inst":"marimba_v0_bass_375","midi_source":""},{"t":234.008,"note":67,"dur":0.14,"vel":1.0,"inst":"marimba_v0_bass_375","midi_source":""},{"t":234.147,"note":63,"dur":0.14,"vel":1.0,"inst":"marimba_v0_bass_375","midi_source":""},{"t":234.147,"note":67,"dur":0.14,"vel":1.0,"inst":"marimba_v0_bass_375","midi_source":""},{"t":234.147,"note":91,"dur":0.419,"vel":1.0,"inst":"marimba_v0_bass_375","midi_source":""},{"t":234.287,"note":63,"dur":0.14,"vel":1.0,"inst":"marimba_v0_bass_375","midi_source":""},{"t":234.287,"note":67,"dur":0.14,"vel":1.0,"inst":"marimba_v0_bass_375","midi_source":""},{"t":234.427,"note":63,"dur":0.14,"vel":1.0,"inst":"marimba_v0_bass_375","midi_source":""},{"t":234.427,"note":67,"dur":0.14,"vel":1.0,"inst":"marimba_v0_bass_375","midi_source":""},{"t":234.567,"note":63,"dur":0.14,"vel":1.0,"inst":"marimba_v0_bass_375","midi_source":""},{"t":234.567,"note":67,"dur":0.14,"vel":1.0,"inst":"marimba_v0_bass_375","midi_source":""},{"t":234.567,"note":84,"dur":0.14,"vel":1.0,"inst":"banjo_v0_plucked_142","midi_source":""},{"t":234.707,"note":62,"dur":0.14,"vel":1.0,"inst":"banjo_v0_plucked_142","midi_source":""},{"t":234.707,"note":65,"dur":0.14,"vel":1.0,"inst":"marimba_v0_bass_375","midi_source":""},{"t":234.707,"note":67,"dur":0.14,"vel":1.0,"inst":"marimba_v0_bass_375","midi_source":""},{"t":234.707,"note":70,"dur":0.14,"vel":1.0,"inst":"banjo_v0_plucked_142","midi_source":""},{"t":234.707,"note":82,"dur":0.559,"vel":1.0,"inst":"banjo_v0_plucked_142","midi_source":""},{"t":234.846,"note":62,"dur":0.14,"vel":1.0,"inst":"banjo_v0_plucked_142","midi_source":""},{"t":234.846,"note":65,"dur":0.14,"vel":1.0,"inst":"marimba_v0_bass_375","midi_source":""},{"t":234.846,"note":67,"dur":0.14,"vel":1.0,"inst":"marimba_v0_bass_375","midi_source":""},{"t":234.846,"note":70,"dur":0.14,"vel":1.0,"inst":"banjo_v0_plucked_142","midi_source":""},{"t":234.986,"note":62,"dur":0.14,"vel":1.0,"inst":"banjo_v0_plucked_142","midi_source":""},{"t":234.986,"note":65,"dur":0.14,"vel":1.0,"inst":"marimba_v0_bass_375","midi_source":""},{"t":234.986,"note":67,"dur":0.14,"vel":1.0,"inst":"marimba_v0_bass_375","midi_source":""},{"t":234.986,"note":70,"dur":0.14,"vel":1.0,"inst":"banjo_v0_plucked_142","midi_source":""},{"t":235.126,"note":62,"dur":0.14,"vel":1.0,"inst":"banjo_v0_plucked_142","midi_source":""},{"t":235.126,"note":65,"dur":0.14,"vel":1.0,"inst":"marimba_v0_bass_375","midi_source":""},{"t":235.126,"note":67,"dur":0.14,"vel":1.0,"inst":"marimba_v0_bass_375","midi_source":""},{"t":235.126,"note":70,"dur":0.14,"vel":1.0,"inst":"banjo_v0_plucked_142","midi_source":""},{"t":235.266,"note":62,"dur":0.14,"vel":1.0,"inst":"banjo_v0_plucked_142","midi_source":""},{"t":235.266,"note":65,"dur":0.14,"vel":1.0,"inst":"marimba_v0_bass_375","midi_source":""},{"t":235.266,"note":67,"dur":0.14,"vel":1.0,"inst":"marimba_v0_bass_375","midi_source":""},{"t":235.266,"note":70,"dur":0.14,"vel":1.0,"inst":"banjo_v0_plucked_142","midi_source":""},{"t":235.266,"note":92,"dur":0.419,"vel":1.0,"inst":"banjo_v0_plucked_142","midi_source":""},{"t":235.405,"note":62,"dur":0.14,"vel":1.0,"inst":"banjo_v0_plucked_142","midi_source":""},{"t":235.405,"note":65,"dur":0.14,"vel":1.0,"inst":"marimba_v0_bass_375","midi_source":""},{"t":235.405,"note":67,"dur":0.14,"vel":1.0,"inst":"marimba_v0_bass_375","midi_source":""},{"t":235.405,"note":70,"dur":0.14,"vel":1.0,"inst":"banjo_v0_plucked_142","midi_source":""},{"t":235.545,"note":62,"dur":0.14,"vel":1.0,"inst":"banjo_v0_plucked_142","midi_source":""},{"t":235.545,"note":65,"dur":0.14,"vel":1.0,"inst":"marimba_v0_bass_375","midi_source":""},{"t":235.545,"note":67,"dur":0.14,"vel":1.0,"inst":"marimba_v0_bass_375","midi_source":""},{"t":235.545,"note":70,"dur":0.14,"vel":1.0,"inst":"banjo_v0_plucked_142","midi_source":""},{"t":235.685,"note":62,"dur":0.14,"vel":1.0,"inst":"banjo_v0_plucked_142","midi_source":""},{"t":235.685,"note":65,"dur":0.14,"vel":1.0,"inst":"marimba_v0_bass_375","midi_source":""},{"t":235.685,"note":67,"dur":0.14,"vel":1.0,"inst":"marimba_v0_bass_375","midi_source":""},{"t":235.685,"note":70,"dur":0.14,"vel":1.0,"inst":"banjo_v0_plucked_142","midi_source":""},{"t":235.685,"note":91,"dur":0.14,"vel":1.0,"inst":"marimba_v0_bass_375","midi_source":""},{"t":235.825,"note":48,"dur":0.14,"vel":1.0,"inst":"banjo_v0_plucked_142","midi_source":""},{"t":235.825,"note":60,"dur":0.14,"vel":1.0,"inst":"banjo_v0_plucked_142","midi_source":""},{"t":235.825,"note":87,"dur":0.28,"vel":1.0,"inst":"marimba_v0_bass_375","midi_source":""},{"t":235.965,"note":67,"dur":0.14,"vel":1.0,"inst":"marimba_v0_bass_375","midi_source":""},{"t":236.104,"note":72,"dur":0.14,"vel":1.0,"inst":"banjo_v0_plucked_142","midi_source":""},{"t":236.104,"note":75,"dur":0.14,"vel":1.0,"inst":"marimba_v0_bass_375","midi_source":""},{"t":236.104,"note":91,"dur":0.419,"vel":1.0,"inst":"marimba_v0_bass_375","midi_source":""},{"t":236.244,"note":67,"dur":0.14,"vel":1.0,"inst":"marimba_v0_bass_375","midi_source":""},{"t":236.384,"note":72,"dur":0.14,"vel":1.0,"inst":"banjo_v0_plucked_142","midi_source":""},{"t":236.384,"note":75,"dur":0.14,"vel":1.0,"inst":"marimba_v0_bass_375","midi_source":""},{"t":236.524,"note":67,"dur":0.14,"vel":1.0,"inst":"marimba_v0_bass_375","midi_source":""},{"t":236.524,"note":99,"dur":0.14,"vel":1.0,"inst":"marimba_v0_bass_375","midi_source":""},{"t":236.663,"note":72,"dur":0.14,"vel":1.0,"inst":"banjo_v0_plucked_142","midi_source":""},{"t":236.663,"note":75,"dur":0.14,"vel":1.0,"inst":"marimba_v0_bass_375","midi_source":""},{"t":236.663,"note":98,"dur":0.14,"vel":1.0,"inst":"banjo_v0_plucked_142","midi_source":""},{"t":236.803,"note":67,"dur":0.14,"vel":1.0,"inst":"marimba_v0_bass_375","midi_source":""},{"t":236.803,"note":96,"dur":0.14,"vel":1.0,"inst":"banjo_v0_plucked_142","midi_source":""},{"t":236.943,"note":48,"dur":0.14,"vel":1.0,"inst":"banjo_v0_plucked_142","midi_source":""},{"t":236.943,"note":60,"dur":0.14,"vel":1.0,"inst":"banjo_v0_plucked_142","midi_source":""},{"t":236.943,"note":96,"dur":0.28,"vel":1.0,"inst":"banjo_v0_plucked_142","midi_source":""},{"t":237.083,"note":67,"dur":0.14,"vel":1.0,"inst":"marimba_v0_bass_375","midi_source":""},{"t":237.223,"note":68,"dur":0.28,"vel":1.0,"inst":"banjo_v0_plucked_142","midi_source":""},{"t":237.223,"note":72,"dur":0.28,"vel":1.0,"inst":"banjo_v0_plucked_142","midi_source":""},{"t":237.223,"note":74,"dur":0.28,"vel":1.0,"inst":"banjo_v0_plucked_142","midi_source":""},{"t":237.223,"note":77,"dur":0.28,"vel":1.0,"inst":"marimba_v0_bass_375","midi_source":""},{"t":237.362,"note":84,"dur":0.07,"vel":1.0,"inst":"banjo_v0_plucked_142","midi_source":""},{"t":237.432,"note":86,"dur":0.07,"vel":1.0,"inst":"banjo_v0_plucked_142","midi_source":""},{"t":237.502,"note":50,"dur":0.28,"vel":1.0,"inst":"banjo_v0_plucked_142","midi_source":""},{"t":237.502,"note":62,"dur":0.28,"vel":1.0,"inst":"banjo_v0_plucked_142","midi_source":""},{"t":237.502,"note":87,"dur":0.14,"vel":1.0,"inst":"marimba_v0_bass_375","midi_source":""},{"t":237.642,"note":89,"dur":0.14,"vel":1.0,"inst":"marimba_v0_bass_375","midi_source":""},{"t":237.782,"note":68,"dur":0.28,"vel":1.0,"inst":"banjo_v0_plucked_142","midi_source":""},{"t":237.782,"note":72,"dur":0.28,"vel":1.0,"inst":"banjo_v0_plucked_142","midi_source":""},{"t":237.782,"note":74,"dur":0.28,"vel":1.0,"inst":"banjo_v0_plucked_142","midi_source":""},{"t":237.782,"note":77,"dur":0.28,"vel":1.0,"inst":"marimba_v0_bass_375","midi_source":""},{"t":237.782,"note":91,"dur":0.14,"vel":1.0,"inst":"marimba_v0_bass_375","midi_source":""},{"t":237.921,"note":92,"dur":0.14,"vel":1.0,"inst":"banjo_v0_plucked_142","midi_source":""},{"t":238.061,"note":55,"dur":0.28,"vel":1.0,"inst":"marimba_v0_bass_375","midi_source":""},{"t":238.061,"note":67,"dur":0.28,"vel":1.0,"inst":"marimba_v0_bass_375","midi_source":""},{"t":238.061,"note":84,"dur":0.28,"vel":1.0,"inst":"banjo_v0_plucked_142","midi_source":""},{"t":238.061,"note":89,"dur":0.28,"vel":1.0,"inst":"marimba_v0_bass_375","midi_source":""},{"t":238.061,"note":96,"dur":0.28,"vel":1.0,"inst":"banjo_v0_plucked_142","midi_source":""},{"t":238.341,"note":70,"dur":0.28,"vel":1.0,"inst":"banjo_v0_plucked_142","midi_source":""},{"t":238.341,"note":74,"dur":0.28,"vel":1.0,"inst":"banjo_v0_plucked_142","midi_source":""},{"t":238.341,"note":79,"dur":0.28,"vel":1.0,"inst":"marimba_v0_bass_375","midi_source":""},{"t":238.341,"note":82,"dur":0.419,"vel":1.0,"inst":"banjo_v0_plucked_142","midi_source":""},{"t":238.341,"note":91,"dur":0.419,"vel":1.0,"inst":"marimba_v0_bass_375","midi_source":""},{"t":238.341,"note":94,"dur":0.419,"vel":1.0,"inst":"banjo_v0_plucked_142","midi_source":""},{"t":238.62,"note":63,"dur":0.28,"vel":1.0,"inst":"marimba_v0_bass_375","midi_source":""},{"t":238.76,"note":94,"dur":0.14,"vel":1.0,"inst":"banjo_v0_plucked_142","midi_source":""},{"t":238.9,"note":70,"dur":0.28,"vel":1.0,"inst":"banjo_v0_plucked_142","midi_source":""},{"t":238.9,"note":74,"dur":0.28,"vel":1.0,"inst":"banjo_v0_plucked_142","midi_source":""},{"t":238.9,"note":79,"dur":0.28,"vel":1.0,"inst":"marimba_v0_bass_375","midi_source":""},{"t":238.9,"note":94,"dur":0.14,"vel":1.0,"inst":"banjo_v0_plucked_142","midi_source":""},{"t":239.04,"note":94,"dur":0.14,"vel":1.0,"inst":"banjo_v0_plucked_142","midi_source":""},{"t":239.179,"note":65,"dur":0.28,"vel":1.0,"inst":"marimba_v0_bass_375","midi_source":""},{"t":239.179,"note":94,"dur":0.28,"vel":1.0,"inst":"banjo_v0_plucked_142","midi_source":""},{"t":239.459,"note":72,"dur":0.28,"vel":1.0,"inst":"banjo_v0_plucked_142","midi_source":""},{"t":239.459,"note":75,"dur":0.28,"vel":1.0,"inst":"marimba_v0_bass_375","midi_source":""},{"t":239.459,"note":77,"dur":0.28,"vel":1.0,"inst":"marimba_v0_bass_375","midi_source":""},{"t":239.459,"note":94,"dur":0.419,"vel":1.0,"inst":"banjo_v0_plucked_142","midi_source":""},{"t":239.739,"note":58,"dur":0.28,"vel":1.0,"inst":"banjo_v0_plucked_142","midi_source":""},{"t":239.878,"note":92,"dur":0.14,"vel":1.0,"inst":"banjo_v0_plucked_142","midi_source":""},{"t":240.018,"note":70,"dur":0.28,"vel":1.0,"inst":"banjo_v0_plucked_142","midi_source":""},{"t":240.018,"note":75,"dur":0.28,"vel":1.0,"inst":"marimba_v0_bass_375","midi_source":""},{"t":240.018,"note":77,"dur":0.28,"vel":1.0,"inst":"marimba_v0_bass_375","midi_source":""},{"t":240.018,"note":92,"dur":0.14,"vel":1.0,"inst":"banjo_v0_plucked_142","midi_source":""},{"t":240.158,"note":92,"dur":0.14,"vel":1.0,"inst":"banjo_v0_plucked_142","midi_source":""},{"t":240.298,"note":63,"dur":0.28,"vel":1.0,"inst":"marimba_v0_bass_375","midi_source":""},{"t":240.298,"note":92,"dur":0.28,"vel":1.0,"inst":"banjo_v0_plucked_142","midi_source":""},{"t":240.577,"note":70,"dur":0.28,"vel":1.0,"inst":"banjo_v0_plucked_142","midi_source":""},{"t":240.577,"note":75,"dur":0.28,"vel":1.0,"inst":"marimba_v0_bass_375","midi_source":""},{"t":240.577,"note":92,"dur":0.419,"vel":1.0,"inst":"banjo_v0_plucked_142","midi_source":""},{"t":240.857,"note":58,"dur":0.28,"vel":1.0,"inst":"banjo_v0_plucked_142","midi_source":""},{"t":240.997,"note":91,"dur":0.14,"vel":1.0,"inst":"marimba_v0_bass_375","midi_source":""},{"t":241.136,"note":70,"dur":0.28,"vel":1.0,"inst":"banjo_v0_plucked_142","midi_source":""},{"t":241.136,"note":72,"dur":0.28,"vel":1.0,"inst":"banjo_v0_plucked_142","midi_source":""},{"t":241.136,"note":75,"dur":0.28,"vel":1.0,"inst":"marimba_v0_bass_375","midi_source":""},{"t":241.136,"note":91,"dur":0.14,"vel":1.0,"inst":"marimba_v0_bass_375","midi_source":""},{"t":241.276,"note":91,"dur":0.14,"vel":1.0,"inst":"marimba_v0_bass_375","midi_source":""},{"t":241.416,"note":58,"dur":0.28,"vel":1.0,"inst":"banjo_v0_plucked_142","midi_source":""},{"t":241.416,"note":62,"dur":0.28,"vel":1.0,"inst":"banjo_v0_plucked_142","midi_source":""},{"t":241.416,"note":91,"dur":0.14,"vel":1.0,"inst":"marimba_v0_bass_375","midi_source":""},{"t":241.556,"note":89,"dur":0.28,"vel":1.0,"inst":"marimba_v0_bass_375","midi_source":""},{"t":241.695,"note":60,"dur":0.28,"vel":1.0,"inst":"banjo_v0_plucked_142","midi_source":""},{"t":241.695,"note":63,"dur":0.28,"vel":1.0,"inst":"marimba_v0_bass_375","midi_source":""},{"t":241.835,"note":87,"dur":0.28,"vel":1.0,"inst":"marimba_v0_bass_375","midi_source":""},{"t":241.975,"note":62,"dur":0.28,"vel":1.0,"inst":"banjo_v0_plucked_142","midi_source":""},{"t":241.975,"note":65,"dur":0.28,"vel":1.0,"inst":"marimba_v0_bass_375","midi_source":""},{"t":242.115,"note":86,"dur":0.28,"vel":1.0,"inst":"banjo_v0_plucked_142","midi_source":""},{"t":242.255,"note":62,"dur":0.28,"vel":1.0,"inst":"banjo_v0_plucked_142","midi_source":""},{"t":242.255,"note":65,"dur":0.28,"vel":1.0,"inst":"marimba_v0_bass_375","midi_source":""},{"t":242.394,"note":84,"dur":0.14,"vel":1.0,"inst":"banjo_v0_plucked_142","midi_source":""},{"t":242.534,"note":63,"dur":0.14,"vel":1.0,"inst":"marimba_v0_bass_375","midi_source":""},{"t":242.534,"note":67,"dur":0.14,"vel":1.0,"inst":"marimba_v0_bass_375","midi_source":""},{"t":242.534,"note":84,"dur":0.559,"vel":1.0,"inst":"banjo_v0_plucked_142","midi_source":""},{"t":242.674,"note":63,"dur":0.14,"vel":1.0,"inst":"marimba_v0_bass_375","midi_source":""},{"t":242.674,"note":67,"dur":0.14,"vel":1.0,"inst":"marimba_v0_bass_375","midi_source":""},{"t":242.814,"note":63,"dur":0.14,"vel":1.0,"inst":"marimba_v0_bass_375","midi_source":""},{"t":242.814,"note":67,"dur":0.14,"vel":1.0,"inst":"marimba_v0_bass_375","midi_source":""},{"t":242.953,"note":63,"dur":0.14,"vel":1.0,"inst":"marimba_v0_bass_375","midi_source":""},{"t":242.953,"note":67,"dur":0.14,"vel":1.0,"inst":"marimba_v0_bass_375","midi_source":""},{"t":243.093,"note":63,"dur":0.14,"vel":1.0,"inst":"marimba_v0_bass_375","midi_source":""},{"t":243.093,"note":67,"dur":0.14,"vel":1.0,"inst":"marimba_v0_bass_375","midi_source":""},{"t":243.093,"note":91,"dur":0.419,"vel":1.0,"inst":"marimba_v0_bass_375","midi_source":""},{"t":243.233,"note":63,"dur":0.14,"vel":1.0,"inst":"marimba_v0_bass_375","midi_source":""},{"t":243.233,"note":67,"dur":0.14,"vel":1.0,"inst":"marimba_v0_bass_375","midi_source":""},{"t":243.373,"note":63,"dur":0.14,"vel":1.0,"inst":"marimba_v0_bass_375","midi_source":""},{"t":243.373,"note":67,"dur":0.14,"vel":1.0,"inst":"marimba_v0_bass_375","midi_source":""},{"t":243.513,"note":63,"dur":0.14,"vel":1.0,"inst":"marimba_v0_bass_375","midi_source":""},{"t":243.513,"note":67,"dur":0.14,"vel":1.0,"inst":"marimba_v0_bass_375","midi_source":""},{"t":243.513,"note":84,"dur":0.14,"vel":1.0,"inst":"banjo_v0_plucked_142","midi_source":""},{"t":243.652,"note":62,"dur":0.14,"vel":1.0,"inst":"banjo_v0_plucked_142","midi_source":""},{"t":243.652,"note":65,"dur":0.14,"vel":1.0,"inst":"marimba_v0_bass_375","midi_source":""},{"t":243.652,"note":67,"dur":0.14,"vel":1.0,"inst":"marimba_v0_bass_375","midi_source":""},{"t":243.652,"note":70,"dur":0.14,"vel":1.0,"inst":"banjo_v0_plucked_142","midi_source":""},{"t":243.652,"note":82,"dur":0.559,"vel":1.0,"inst":"banjo_v0_plucked_142","midi_source":""},{"t":243.792,"note":62,"dur":0.14,"vel":1.0,"inst":"banjo_v0_plucked_142","midi_source":""},{"t":243.792,"note":65,"dur":0.14,"vel":1.0,"inst":"marimba_v0_bass_375","midi_source":""},{"t":243.792,"note":67,"dur":0.14,"vel":1.0,"inst":"marimba_v0_bass_375","midi_source":""},{"t":243.792,"note":70,"dur":0.14,"vel":1.0,"inst":"banjo_v0_plucked_142","midi_source":""},{"t":243.932,"note":62,"dur":0.14,"vel":1.0,"inst":"banjo_v0_plucked_142","midi_source":""},{"t":243.932,"note":65,"dur":0.14,"vel":1.0,"inst":"marimba_v0_bass_375","midi_source":""},{"t":243.932,"note":67,"dur":0.14,"vel":1.0,"inst":"marimba_v0_bass_375","midi_source":""},{"t":243.932,"note":70,"dur":0.14,"vel":1.0,"inst":"banjo_v0_plucked_142","midi_source":""},{"t":244.072,"note":62,"dur":0.14,"vel":1.0,"inst":"banjo_v0_plucked_142","midi_source":""},{"t":244.072,"note":65,"dur":0.14,"vel":1.0,"inst":"marimba_v0_bass_375","midi_source":""},{"t":244.072,"note":67,"dur":0.14,"vel":1.0,"inst":"marimba_v0_bass_375","midi_source":""},{"t":244.072,"note":70,"dur":0.14,"vel":1.0,"inst":"banjo_v0_plucked_142","midi_source":""},{"t":244.211,"note":62,"dur":0.14,"vel":1.0,"inst":"banjo_v0_plucked_142","midi_source":""},{"t":244.211,"note":65,"dur":0.14,"vel":1.0,"inst":"marimba_v0_bass_375","midi_source":""},{"t":244.211,"note":67,"dur":0.14,"vel":1.0,"inst":"marimba_v0_bass_375","midi_source":""},{"t":244.211,"note":70,"dur":0.14,"vel":1.0,"inst":"banjo_v0_plucked_142","midi_source":""},{"t":244.211,"note":92,"dur":0.419,"vel":1.0,"inst":"banjo_v0_plucked_142","midi_source":""},{"t":244.351,"note":62,"dur":0.14,"vel":1.0,"inst":"banjo_v0_plucked_142","midi_source":""},{"t":244.351,"note":65,"dur":0.14,"vel":1.0,"inst":"marimba_v0_bass_375","midi_source":""},{"t":244.351,"note":67,"dur":0.14,"vel":1.0,"inst":"marimba_v0_bass_375","midi_source":""},{"t":244.351,"note":70,"dur":0.14,"vel":1.0,"inst":"banjo_v0_plucked_142","midi_source":""},{"t":244.491,"note":62,"dur":0.14,"vel":1.0,"inst":"banjo_v0_plucked_142","midi_source":""},{"t":244.491,"note":65,"dur":0.14,"vel":1.0,"inst":"marimba_v0_bass_375","midi_source":""},{"t":244.491,"note":67,"dur":0.14,"vel":1.0,"inst":"marimba_v0_bass_375","midi_source":""},{"t":244.491,"note":70,"dur":0.14,"vel":1.0,"inst":"banjo_v0_plucked_142","midi_source":""},{"t":244.631,"note":62,"dur":0.14,"vel":1.0,"inst":"banjo_v0_plucked_142","midi_source":""},{"t":244.631,"note":65,"dur":0.14,"vel":1.0,"inst":"marimba_v0_bass_375","midi_source":""},{"t":244.631,"note":67,"dur":0.14,"vel":1.0,"inst":"marimba_v0_bass_375","midi_source":""},{"t":244.631,"note":70,"dur":0.14,"vel":1.0,"inst":"banjo_v0_plucked_142","midi_source":""},{"t":244.631,"note":91,"dur":0.14,"vel":1.0,"inst":"marimba_v0_bass_375","midi_source":""},{"t":244.771,"note":48,"dur":0.14,"vel":1.0,"inst":"banjo_v0_plucked_142","midi_source":""},{"t":244.771,"note":60,"dur":0.14,"vel":1.0,"inst":"banjo_v0_plucked_142","midi_source":""},{"t":244.771,"note":87,"dur":0.28,"vel":1.0,"inst":"marimba_v0_bass_375","midi_source":""},{"t":244.91,"note":67,"dur":0.14,"vel":1.0,"inst":"marimba_v0_bass_375","midi_source":""},{"t":245.05,"note":72,"dur":0.14,"vel":1.0,"inst":"banjo_v0_plucked_142","midi_source":""},{"t":245.05,"note":75,"dur":0.14,"vel":1.0,"inst":"marimba_v0_bass_375","midi_source":""},{"t":245.05,"note":91,"dur":0.419,"vel":1.0,"inst":"marimba_v0_bass_375","midi_source":""},{"t":245.19,"note":67,"dur":0.14,"vel":1.0,"inst":"marimba_v0_bass_375","midi_source":""},{"t":245.33,"note":72,"dur":0.14,"vel":1.0,"inst":"banjo_v0_plucked_142","midi_source":""},{"t":245.33,"note":75,"dur":0.14,"vel":1.0,"inst":"marimba_v0_bass_375","midi_source":""},{"t":245.469,"note":67,"dur":0.14,"vel":1.0,"inst":"marimba_v0_bass_375","midi_source":""},{"t":245.469,"note":99,"dur":0.14,"vel":1.0,"inst":"marimba_v0_bass_375","midi_source":""},{"t":245.609,"note":72,"dur":0.14,"vel":1.0,"inst":"banjo_v0_plucked_142","midi_source":""},{"t":245.609,"note":75,"dur":0.14,"vel":1.0,"inst":"marimba_v0_bass_375","midi_source":""},{"t":245.609,"note":98,"dur":0.14,"vel":1.0,"inst":"banjo_v0_plucked_142","midi_source":""},{"t":245.749,"note":67,"dur":0.14,"vel":1.0,"inst":"marimba_v0_bass_375","midi_source":""},{"t":245.749,"note":96,"dur":0.14,"vel":1.0,"inst":"banjo_v0_plucked_142","midi_source":""},{"t":245.889,"note":48,"dur":0.14,"vel":1.0,"inst":"banjo_v0_plucked_142","midi_source":""},{"t":245.889,"note":60,"dur":0.14,"vel":1.0,"inst":"banjo_v0_plucked_142","midi_source":""},{"t":245.889,"note":96,"dur":0.28,"vel":1.0,"inst":"banjo_v0_plucked_142","midi_source":""},{"t":246.029,"note":67,"dur":0.14,"vel":1.0,"inst":"marimba_v0_bass_375","midi_source":""},{"t":246.168,"note":68,"dur":0.28,"vel":1.0,"inst":"banjo_v0_plucked_142","midi_source":""},{"t":246.168,"note":72,"dur":0.28,"vel":1.0,"inst":"banjo_v0_plucked_142","midi_source":""},{"t":246.168,"note":74,"dur":0.28,"vel":1.0,"inst":"banjo_v0_plucked_142","midi_source":""},{"t":246.168,"note":77,"dur":0.28,"vel":1.0,"inst":"marimba_v0_bass_375","midi_source":""},{"t":246.308,"note":84,"dur":0.07,"vel":1.0,"inst":"banjo_v0_plucked_142","midi_source":""},{"t":246.378,"note":86,"dur":0.07,"vel":1.0,"inst":"banjo_v0_plucked_142","midi_source":""},{"t":246.448,"note":50,"dur":0.28,"vel":1.0,"inst":"banjo_v0_plucked_142","midi_source":""},{"t":246.448,"note":62,"dur":0.28,"vel":1.0,"inst":"banjo_v0_plucked_142","midi_source":""},{"t":246.448,"note":87,"dur":0.14,"vel":1.0,"inst":"marimba_v0_bass_375","midi_source":""},{"t":246.588,"note":89,"dur":0.14,"vel":1.0,"inst":"marimba_v0_bass_375","midi_source":""},{"t":246.727,"note":68,"dur":0.28,"vel":1.0,"inst":"banjo_v0_plucked_142","midi_source":""},{"t":246.727,"note":72,"dur":0.28,"vel":1.0,"inst":"banjo_v0_plucked_142","midi_source":""},{"t":246.727,"note":74,"dur":0.28,"vel":1.0,"inst":"banjo_v0_plucked_142","midi_source":""},{"t":246.727,"note":77,"dur":0.28,"vel":1.0,"inst":"marimba_v0_bass_375","midi_source":""},{"t":246.727,"note":91,"dur":0.14,"vel":1.0,"inst":"marimba_v0_bass_375","midi_source":""},{"t":246.867,"note":92,"dur":0.14,"vel":1.0,"inst":"banjo_v0_plucked_142","midi_source":""},{"t":247.007,"note":55,"dur":0.28,"vel":1.0,"inst":"marimba_v0_bass_375","midi_source":""},{"t":247.007,"note":67,"dur":0.28,"vel":1.0,"inst":"marimba_v0_bass_375","midi_source":""},{"t":247.007,"note":84,"dur":0.28,"vel":1.0,"inst":"banjo_v0_plucked_142","midi_source":""},{"t":247.007,"note":89,"dur":0.28,"vel":1.0,"inst":"marimba_v0_bass_375","midi_source":""},{"t":247.007,"note":96,"dur":0.28,"vel":1.0,"inst":"banjo_v0_plucked_142","midi_source":""},{"t":247.287,"note":70,"dur":0.28,"vel":1.0,"inst":"banjo_v0_plucked_142","midi_source":""},{"t":247.287,"note":74,"dur":0.28,"vel":1.0,"inst":"banjo_v0_plucked_142","midi_source":""},{"t":247.287,"note":79,"dur":0.28,"vel":1.0,"inst":"marimba_v0_bass_375","midi_source":""},{"t":247.287,"note":82,"dur":0.419,"vel":1.0,"inst":"banjo_v0_plucked_142","midi_source":""},{"t":247.287,"note":91,"dur":0.419,"vel":1.0,"inst":"marimba_v0_bass_375","midi_source":""},{"t":247.287,"note":94,"dur":0.419,"vel":1.0,"inst":"banjo_v0_plucked_142","midi_source":""},{"t":247.566,"note":63,"dur":0.28,"vel":1.0,"inst":"marimba_v0_bass_375","midi_source":""},{"t":247.706,"note":94,"dur":0.14,"vel":1.0,"inst":"banjo_v0_plucked_142","midi_source":""},{"t":247.846,"note":70,"dur":0.28,"vel":1.0,"inst":"banjo_v0_plucked_142","midi_source":""},{"t":247.846,"note":74,"dur":0.28,"vel":1.0,"inst":"banjo_v0_plucked_142","midi_source":""},{"t":247.846,"note":79,"dur":0.28,"vel":1.0,"inst":"marimba_v0_bass_375","midi_source":""},{"t":247.846,"note":94,"dur":0.14,"vel":1.0,"inst":"banjo_v0_plucked_142","midi_source":""},{"t":247.985,"note":94,"dur":0.14,"vel":1.0,"inst":"banjo_v0_plucked_142","midi_source":""},{"t":248.125,"note":65,"dur":0.28,"vel":1.0,"inst":"marimba_v0_bass_375","midi_source":""},{"t":248.125,"note":94,"dur":0.28,"vel":1.0,"inst":"banjo_v0_plucked_142","midi_source":""},{"t":248.405,"note":72,"dur":0.28,"vel":1.0,"inst":"banjo_v0_plucked_142","midi_source":""},{"t":248.405,"note":75,"dur":0.28,"vel":1.0,"inst":"marimba_v0_bass_375","midi_source":""},{"t":248.405,"note":77,"dur":0.28,"vel":1.0,"inst":"marimba_v0_bass_375","midi_source":""},{"t":248.405,"note":94,"dur":0.419,"vel":1.0,"inst":"banjo_v0_plucked_142","midi_source":""},{"t":248.684,"note":58,"dur":0.28,"vel":1.0,"inst":"banjo_v0_plucked_142","midi_source":""},{"t":248.824,"note":92,"dur":0.14,"vel":1.0,"inst":"banjo_v0_plucked_142","midi_source":""},{"t":248.964,"note":70,"dur":0.28,"vel":1.0,"inst":"banjo_v0_plucked_142","midi_source":""},{"t":248.964,"note":75,"dur":0.28,"vel":1.0,"inst":"marimba_v0_bass_375","midi_source":""},{"t":248.964,"note":77,"dur":0.28,"vel":1.0,"inst":"marimba_v0_bass_375","midi_source":""},{"t":248.964,"note":92,"dur":0.14,"vel":1.0,"inst":"banjo_v0_plucked_142","midi_source":""},{"t":249.104,"note":92,"dur":0.14,"vel":1.0,"inst":"banjo_v0_plucked_142","midi_source":""},{"t":249.243,"note":63,"dur":0.28,"vel":1.0,"inst":"marimba_v0_bass_375","midi_source":""},{"t":249.243,"note":92,"dur":0.28,"vel":1.0,"inst":"banjo_v0_plucked_142","midi_source":""},{"t":249.523,"note":70,"dur":0.28,"vel":1.0,"inst":"banjo_v0_plucked_142","midi_source":""},{"t":249.523,"note":75,"dur":0.28,"vel":1.0,"inst":"marimba_v0_bass_375","midi_source":""},{"t":249.523,"note":92,"dur":0.419,"vel":1.0,"inst":"banjo_v0_plucked_142","midi_source":""},{"t":249.802,"note":58,"dur":0.28,"vel":1.0,"inst":"banjo_v0_plucked_142","midi_source":""},{"t":249.942,"note":91,"dur":0.14,"vel":1.0,"inst":"marimba_v0_bass_375","midi_source":""},{"t":250.082,"note":70,"dur":0.28,"vel":1.0,"inst":"banjo_v0_plucked_142","midi_source":""},{"t":250.082,"note":72,"dur":0.28,"vel":1.0,"inst":"banjo_v0_plucked_142","midi_source":""},{"t":250.082,"note":75,"dur":0.28,"vel":1.0,"inst":"marimba_v0_bass_375","midi_source":""},{"t":250.082,"note":91,"dur":0.14,"vel":1.0,"inst":"marimba_v0_bass_375","midi_source":""},{"t":250.222,"note":91,"dur":0.14,"vel":1.0,"inst":"marimba_v0_bass_375","midi_source":""},{"t":250.362,"note":58,"dur":0.28,"vel":1.0,"inst":"banjo_v0_plucked_142","midi_source":""},{"t":250.362,"note":62,"dur":0.28,"vel":1.0,"inst":"banjo_v0_plucked_142","midi_source":""},{"t":250.362,"note":91,"dur":0.14,"vel":1.0,"inst":"marimba_v0_bass_375","midi_source":""},{"t":250.501,"note":89,"dur":0.28,"vel":1.0,"inst":"marimba_v0_bass_375","midi_source":""},{"t":250.641,"note":60,"dur":0.28,"vel":1.0,"inst":"banjo_v0_plucked_142","midi_source":""},{"t":250.641,"note":63,"dur":0.28,"vel":1.0,"inst":"marimba_v0_bass_375","midi_source":""},{"t":250.781,"note":87,"dur":0.28,"vel":1.0,"inst":"marimba_v0_bass_375","midi_source":""},{"t":250.921,"note":62,"dur":0.28,"vel":1.0,"inst":"banjo_v0_plucked_142","midi_source":""},{"t":250.921,"note":65,"dur":0.28,"vel":1.0,"inst":"marimba_v0_bass_375","midi_source":""},{"t":251.06,"note":86,"dur":0.28,"vel":1.0,"inst":"banjo_v0_plucked_142","midi_source":""},{"t":251.2,"note":62,"dur":0.28,"vel":1.0,"inst":"banjo_v0_plucked_142","midi_source":""},{"t":251.2,"note":65,"dur":0.28,"vel":1.0,"inst":"marimba_v0_bass_375","midi_source":""},{"t":251.34,"note":84,"dur":0.14,"vel":1.0,"inst":"banjo_v0_plucked_142","midi_source":""},{"t":251.48,"note":63,"dur":0.14,"vel":1.0,"inst":"marimba_v0_bass_375","midi_source":""},{"t":251.48,"note":67,"dur":0.14,"vel":1.0,"inst":"marimba_v0_bass_375","midi_source":""},{"t":251.48,"note":84,"dur":0.559,"vel":1.0,"inst":"banjo_v0_plucked_142","midi_source":""},{"t":251.62,"note":63,"dur":0.14,"vel":1.0,"inst":"marimba_v0_bass_375","midi_source":""},{"t":251.62,"note":67,"dur":0.14,"vel":1.0,"inst":"marimba_v0_bass_375","midi_source":""},{"t":251.759,"note":63,"dur":0.14,"vel":1.0,"inst":"marimba_v0_bass_375","midi_source":""},{"t":251.759,"note":67,"dur":0.14,"vel":1.0,"inst":"marimba_v0_bass_375","midi_source":""},{"t":251.899,"note":63,"dur":0.14,"vel":1.0,"inst":"marimba_v0_bass_375","midi_source":""},{"t":251.899,"note":67,"dur":0.14,"vel":1.0,"inst":"marimba_v0_bass_375","midi_source":""},{"t":252.039,"note":63,"dur":0.14,"vel":1.0,"inst":"marimba_v0_bass_375","midi_source":""},{"t":252.039,"note":67,"dur":0.14,"vel":1.0,"inst":"marimba_v0_bass_375","midi_source":""},{"t":252.039,"note":91,"dur":0.419,"vel":1.0,"inst":"marimba_v0_bass_375","midi_source":""},{"t":252.179,"note":63,"dur":0.14,"vel":1.0,"inst":"marimba_v0_bass_375","midi_source":""},{"t":252.179,"note":67,"dur":0.14,"vel":1.0,"inst":"marimba_v0_bass_375","midi_source":""},{"t":252.318,"note":63,"dur":0.14,"vel":1.0,"inst":"marimba_v0_bass_375","midi_source":""},{"t":252.318,"note":67,"dur":0.14,"vel":1.0,"inst":"marimba_v0_bass_375","midi_source":""},{"t":252.458,"note":63,"dur":0.14,"vel":1.0,"inst":"marimba_v0_bass_375","midi_source":""},{"t":252.458,"note":67,"dur":0.14,"vel":1.0,"inst":"marimba_v0_bass_375","midi_source":""},{"t":252.458,"note":84,"dur":0.14,"vel":1.0,"inst":"banjo_v0_plucked_142","midi_source":""},{"t":252.598,"note":62,"dur":0.14,"vel":1.0,"inst":"banjo_v0_plucked_142","midi_source":""},{"t":252.598,"note":65,"dur":0.14,"vel":1.0,"inst":"marimba_v0_bass_375","midi_source":""},{"t":252.598,"note":67,"dur":0.14,"vel":1.0,"inst":"marimba_v0_bass_375","midi_source":""},{"t":252.598,"note":70,"dur":0.14,"vel":1.0,"inst":"banjo_v0_plucked_142","midi_source":""},{"t":252.598,"note":82,"dur":0.559,"vel":1.0,"inst":"banjo_v0_plucked_142","midi_source":""},{"t":252.738,"note":62,"dur":0.14,"vel":1.0,"inst":"banjo_v0_plucked_142","midi_source":""},{"t":252.738,"note":65,"dur":0.14,"vel":1.0,"inst":"marimba_v0_bass_375","midi_source":""},{"t":252.738,"note":67,"dur":0.14,"vel":1.0,"inst":"marimba_v0_bass_375","midi_source":""},{"t":252.738,"note":70,"dur":0.14,"vel":1.0,"inst":"banjo_v0_plucked_142","midi_source":""},{"t":252.878,"note":62,"dur":0.14,"vel":1.0,"inst":"banjo_v0_plucked_142","midi_source":""},{"t":252.878,"note":65,"dur":0.14,"vel":1.0,"inst":"marimba_v0_bass_375","midi_source":""},{"t":252.878,"note":67,"dur":0.14,"vel":1.0,"inst":"marimba_v0_bass_375","midi_source":""},{"t":252.878,"note":70,"dur":0.14,"vel":1.0,"inst":"banjo_v0_plucked_142","midi_source":""},{"t":253.017,"note":62,"dur":0.14,"vel":1.0,"inst":"banjo_v0_plucked_142","midi_source":""},{"t":253.017,"note":65,"dur":0.14,"vel":1.0,"inst":"marimba_v0_bass_375","midi_source":""},{"t":253.017,"note":67,"dur":0.14,"vel":1.0,"inst":"marimba_v0_bass_375","midi_source":""},{"t":253.017,"note":70,"dur":0.14,"vel":1.0,"inst":"banjo_v0_plucked_142","midi_source":""},{"t":253.157,"note":62,"dur":0.14,"vel":1.0,"inst":"banjo_v0_plucked_142","midi_source":""},{"t":253.157,"note":65,"dur":0.14,"vel":1.0,"inst":"marimba_v0_bass_375","midi_source":""},{"t":253.157,"note":67,"dur":0.14,"vel":1.0,"inst":"marimba_v0_bass_375","midi_source":""},{"t":253.157,"note":70,"dur":0.14,"vel":1.0,"inst":"banjo_v0_plucked_142","midi_source":""},{"t":253.157,"note":92,"dur":0.419,"vel":1.0,"inst":"banjo_v0_plucked_142","midi_source":""},{"t":253.297,"note":62,"dur":0.14,"vel":1.0,"inst":"banjo_v0_plucked_142","midi_source":""},{"t":253.297,"note":65,"dur":0.14,"vel":1.0,"inst":"marimba_v0_bass_375","midi_source":""},{"t":253.297,"note":67,"dur":0.14,"vel":1.0,"inst":"marimba_v0_bass_375","midi_source":""},{"t":253.297,"note":70,"dur":0.14,"vel":1.0,"inst":"banjo_v0_plucked_142","midi_source":""},{"t":253.437,"note":62,"dur":0.14,"vel":1.0,"inst":"banjo_v0_plucked_142","midi_source":""},{"t":253.437,"note":65,"dur":0.14,"vel":1.0,"inst":"marimba_v0_bass_375","midi_source":""},{"t":253.437,"note":67,"dur":0.14,"vel":1.0,"inst":"marimba_v0_bass_375","midi_source":""},{"t":253.437,"note":70,"dur":0.14,"vel":1.0,"inst":"banjo_v0_plucked_142","midi_source":""},{"t":253.576,"note":62,"dur":0.14,"vel":1.0,"inst":"banjo_v0_plucked_142","midi_source":""},{"t":253.576,"note":65,"dur":0.14,"vel":1.0,"inst":"marimba_v0_bass_375","midi_source":""},{"t":253.576,"note":67,"dur":0.14,"vel":1.0,"inst":"marimba_v0_bass_375","midi_source":""},{"t":253.576,"note":70,"dur":0.14,"vel":1.0,"inst":"banjo_v0_plucked_142","midi_source":""},{"t":253.576,"note":91,"dur":0.14,"vel":1.0,"inst":"marimba_v0_bass_375","midi_source":""},{"t":253.716,"note":48,"dur":0.14,"vel":1.0,"inst":"banjo_v0_plucked_142","midi_source":""},{"t":253.716,"note":60,"dur":0.14,"vel":1.0,"inst":"banjo_v0_plucked_142","midi_source":""},{"t":253.716,"note":87,"dur":0.28,"vel":1.0,"inst":"marimba_v0_bass_375","midi_source":""},{"t":253.856,"note":67,"dur":0.14,"vel":1.0,"inst":"marimba_v0_bass_375","midi_source":""},{"t":253.996,"note":72,"dur":0.14,"vel":1.0,"inst":"banjo_v0_plucked_142","midi_source":""},{"t":253.996,"note":75,"dur":0.14,"vel":1.0,"inst":"marimba_v0_bass_375","midi_source":""},{"t":253.996,"note":91,"dur":0.419,"vel":1.0,"inst":"marimba_v0_bass_375","midi_source":""},{"t":254.136,"note":67,"dur":0.14,"vel":1.0,"inst":"marimba_v0_bass_375","midi_source":""},{"t":254.275,"note":72,"dur":0.14,"vel":1.0,"inst":"banjo_v0_plucked_142","midi_source":""},{"t":254.275,"note":75,"dur":0.14,"vel":1.0,"inst":"marimba_v0_bass_375","midi_source":""},{"t":254.415,"note":67,"dur":0.14,"vel":1.0,"inst":"marimba_v0_bass_375","midi_source":""},{"t":254.415,"note":99,"dur":0.14,"vel":1.0,"inst":"marimba_v0_bass_375","midi_source":""},{"t":254.555,"note":72,"dur":0.14,"vel":1.0,"inst":"banjo_v0_plucked_142","midi_source":""},{"t":254.555,"note":75,"dur":0.14,"vel":1.0,"inst":"marimba_v0_bass_375","midi_source":""},{"t":254.555,"note":98,"dur":0.14,"vel":1.0,"inst":"banjo_v0_plucked_142","midi_source":""},{"t":254.695,"note":67,"dur":0.14,"vel":1.0,"inst":"marimba_v0_bass_375","midi_source":""},{"t":254.695,"note":96,"dur":0.14,"vel":1.0,"inst":"banjo_v0_plucked_142","midi_source":""},{"t":254.834,"note":48,"dur":0.14,"vel":1.0,"inst":"banjo_v0_plucked_142","midi_source":""},{"t":254.834,"note":60,"dur":0.14,"vel":1.0,"inst":"banjo_v0_plucked_142","midi_source":""},{"t":254.834,"note":96,"dur":0.28,"vel":1.0,"inst":"banjo_v0_plucked_142","midi_source":""},{"t":254.974,"note":67,"dur":0.14,"vel":1.0,"inst":"marimba_v0_bass_375","midi_source":""},{"t":255.114,"note":68,"dur":0.28,"vel":1.0,"inst":"banjo_v0_plucked_142","midi_source":""},{"t":255.114,"note":72,"dur":0.28,"vel":1.0,"inst":"banjo_v0_plucked_142","midi_source":""},{"t":255.114,"note":74,"dur":0.28,"vel":1.0,"inst":"banjo_v0_plucked_142","midi_source":""},{"t":255.114,"note":77,"dur":0.28,"vel":1.0,"inst":"marimba_v0_bass_375","midi_source":""},{"t":255.254,"note":84,"dur":0.07,"vel":1.0,"inst":"banjo_v0_plucked_142","midi_source":""},{"t":255.324,"note":86,"dur":0.07,"vel":1.0,"inst":"banjo_v0_plucked_142","midi_source":""},{"t":255.394,"note":50,"dur":0.28,"vel":1.0,"inst":"banjo_v0_plucked_142","midi_source":""},{"t":255.394,"note":62,"dur":0.28,"vel":1.0,"inst":"banjo_v0_plucked_142","midi_source":""},{"t":255.394,"note":87,"dur":0.14,"vel":1.0,"inst":"marimba_v0_bass_375","midi_source":""},{"t":255.533,"note":89,"dur":0.14,"vel":1.0,"inst":"marimba_v0_bass_375","midi_source":""},{"t":255.673,"note":68,"dur":0.28,"vel":1.0,"inst":"banjo_v0_plucked_142","midi_source":""},{"t":255.673,"note":72,"dur":0.28,"vel":1.0,"inst":"banjo_v0_plucked_142","midi_source":""},{"t":255.673,"note":74,"dur":0.28,"vel":1.0,"inst":"banjo_v0_plucked_142","midi_source":""},{"t":255.673,"note":77,"dur":0.28,"vel":1.0,"inst":"marimba_v0_bass_375","midi_source":""},{"t":255.673,"note":91,"dur":0.14,"vel":1.0,"inst":"marimba_v0_bass_375","midi_source":""},{"t":255.813,"note":92,"dur":0.14,"vel":1.0,"inst":"banjo_v0_plucked_142","midi_source":""},{"t":255.953,"note":55,"dur":0.28,"vel":1.0,"inst":"marimba_v0_bass_375","midi_source":""},{"t":255.953,"note":67,"dur":0.28,"vel":1.0,"inst":"marimba_v0_bass_375","midi_source":""},{"t":255.953,"note":84,"dur":0.28,"vel":1.0,"inst":"banjo_v0_plucked_142","midi_source":""},{"t":255.953,"note":89,"dur":0.28,"vel":1.0,"inst":"marimba_v0_bass_375","midi_source":""},{"t":255.953,"note":96,"dur":0.28,"vel":1.0,"inst":"banjo_v0_plucked_142","midi_source":""},{"t":256.232,"note":70,"dur":0.28,"vel":1.0,"inst":"banjo_v0_plucked_142","midi_source":""},{"t":256.232,"note":74,"dur":0.28,"vel":1.0,"inst":"banjo_v0_plucked_142","midi_source":""},{"t":256.232,"note":79,"dur":0.28,"vel":1.0,"inst":"marimba_v0_bass_375","midi_source":""},{"t":256.232,"note":82,"dur":0.419,"vel":1.0,"inst":"banjo_v0_plucked_142","midi_source":""},{"t":256.232,"note":91,"dur":0.419,"vel":1.0,"inst":"marimba_v0_bass_375","midi_source":""},{"t":256.232,"note":94,"dur":0.419,"vel":1.0,"inst":"banjo_v0_plucked_142","midi_source":""},{"t":256.512,"note":63,"dur":0.28,"vel":1.0,"inst":"marimba_v0_bass_375","midi_source":""},{"t":256.652,"note":94,"dur":0.14,"vel":1.0,"inst":"banjo_v0_plucked_142","midi_source":""},{"t":256.791,"note":70,"dur":0.28,"vel":1.0,"inst":"banjo_v0_plucked_142","midi_source":""},{"t":256.791,"note":74,"dur":0.28,"vel":1.0,"inst":"banjo_v0_plucked_142","midi_source":""},{"t":256.791,"note":79,"dur":0.28,"vel":1.0,"inst":"marimba_v0_bass_375","midi_source":""},{"t":256.791,"note":94,"dur":0.14,"vel":1.0,"inst":"banjo_v0_plucked_142","midi_source":""},{"t":256.931,"note":94,"dur":0.14,"vel":1.0,"inst":"banjo_v0_plucked_142","midi_source":""},{"t":257.071,"note":65,"dur":0.28,"vel":1.0,"inst":"marimba_v0_bass_375","midi_source":""},{"t":257.071,"note":94,"dur":0.28,"vel":1.0,"inst":"banjo_v0_plucked_142","midi_source":""},{"t":257.35,"note":72,"dur":0.28,"vel":1.0,"inst":"banjo_v0_plucked_142","midi_source":""},{"t":257.35,"note":75,"dur":0.28,"vel":1.0,"inst":"marimba_v0_bass_375","midi_source":""},{"t":257.35,"note":77,"dur":0.28,"vel":1.0,"inst":"marimba_v0_bass_375","midi_source":""},{"t":257.35,"note":94,"dur":0.419,"vel":1.0,"inst":"banjo_v0_plucked_142","midi_source":""},{"t":257.63,"note":58,"dur":0.28,"vel":1.0,"inst":"banjo_v0_plucked_142","midi_source":""},{"t":257.77,"note":92,"dur":0.14,"vel":1.0,"inst":"banjo_v0_plucked_142","midi_source":""},{"t":257.91,"note":70,"dur":0.28,"vel":1.0,"inst":"banjo_v0_plucked_142","midi_source":""},{"t":257.91,"note":75,"dur":0.28,"vel":1.0,"inst":"marimba_v0_bass_375","midi_source":""},{"t":257.91,"note":77,"dur":0.28,"vel":1.0,"inst":"marimba_v0_bass_375","midi_source":""},{"t":257.91,"note":92,"dur":0.14,"vel":1.0,"inst":"banjo_v0_plucked_142","midi_source":""},{"t":258.049,"note":92,"dur":0.14,"vel":1.0,"inst":"banjo_v0_plucked_142","midi_source":""},{"t":258.189,"note":63,"dur":0.28,"vel":1.0,"inst":"marimba_v0_bass_375","midi_source":""},{"t":258.189,"note":92,"dur":0.28,"vel":1.0,"inst":"banjo_v0_plucked_142","midi_source":""},{"t":258.469,"note":70,"dur":0.28,"vel":1.0,"inst":"banjo_v0_plucked_142","midi_source":""},{"t":258.469,"note":75,"dur":0.28,"vel":1.0,"inst":"marimba_v0_bass_375","midi_source":""},{"t":258.469,"note":92,"dur":0.419,"vel":1.0,"inst":"banjo_v0_plucked_142","midi_source":""},{"t":258.748,"note":58,"dur":0.28,"vel":1.0,"inst":"banjo_v0_plucked_142","midi_source":""},{"t":258.888,"note":91,"dur":0.14,"vel":1.0,"inst":"marimba_v0_bass_375","midi_source":""},{"t":259.028,"note":70,"dur":0.28,"vel":1.0,"inst":"banjo_v0_plucked_142","midi_source":""},{"t":259.028,"note":72,"dur":0.28,"vel":1.0,"inst":"banjo_v0_plucked_142","midi_source":""},{"t":259.028,"note":75,"dur":0.28,"vel":1.0,"inst":"marimba_v0_bass_375","midi_source":""},{"t":259.028,"note":91,"dur":0.14,"vel":1.0,"inst":"marimba_v0_bass_375","midi_source":""},{"t":259.168,"note":91,"dur":0.14,"vel":1.0,"inst":"marimba_v0_bass_375","midi_source":""},{"t":259.307,"note":58,"dur":0.28,"vel":1.0,"inst":"banjo_v0_plucked_142","midi_source":""},{"t":259.307,"note":62,"dur":0.28,"vel":1.0,"inst":"banjo_v0_plucked_142","midi_source":""},{"t":259.307,"note":91,"dur":0.14,"vel":1.0,"inst":"marimba_v0_bass_375","midi_source":""},{"t":259.447,"note":89,"dur":0.28,"vel":1.0,"inst":"marimba_v0_bass_375","midi_source":""},{"t":259.587,"note":60,"dur":0.28,"vel":1.0,"inst":"banjo_v0_plucked_142","midi_source":""},{"t":259.587,"note":63,"dur":0.28,"vel":1.0,"inst":"marimba_v0_bass_375","midi_source":""},{"t":259.727,"note":87,"dur":0.28,"vel":1.0,"inst":"marimba_v0_bass_375","midi_source":""},{"t":259.866,"note":62,"dur":0.28,"vel":1.0,"inst":"banjo_v0_plucked_142","midi_source":""},{"t":259.866,"note":65,"dur":0.28,"vel":1.0,"inst":"marimba_v0_bass_375","midi_source":""},{"t":260.006,"note":86,"dur":0.28,"vel":1.0,"inst":"banjo_v0_plucked_142","midi_source":""},{"t":260.146,"note":62,"dur":0.28,"vel":1.0,"inst":"banjo_v0_plucked_142","midi_source":""},{"t":260.146,"note":65,"dur":0.28,"vel":1.0,"inst":"marimba_v0_bass_375","midi_source":""},{"t":260.286,"note":84,"dur":0.14,"vel":1.0,"inst":"banjo_v0_plucked_142","midi_source":""},{"t":260.426,"note":63,"dur":0.14,"vel":1.0,"inst":"marimba_v0_bass_375","midi_source":""},{"t":260.426,"note":67,"dur":0.14,"vel":1.0,"inst":"marimba_v0_bass_375","midi_source":""},{"t":260.426,"note":84,"dur":0.559,"vel":1.0,"inst":"banjo_v0_plucked_142","midi_source":""},{"t":260.565,"note":63,"dur":0.14,"vel":1.0,"inst":"marimba_v0_bass_375","midi_source":""},{"t":260.565,"note":67,"dur":0.14,"vel":1.0,"inst":"marimba_v0_bass_375","midi_source":""},{"t":260.705,"note":63,"dur":0.14,"vel":1.0,"inst":"marimba_v0_bass_375","midi_source":""},{"t":260.705,"note":67,"dur":0.14,"vel":1.0,"inst":"marimba_v0_bass_375","midi_source":""},{"t":260.845,"note":63,"dur":0.14,"vel":1.0,"inst":"marimba_v0_bass_375","midi_source":""},{"t":260.845,"note":67,"dur":0.14,"vel":1.0,"inst":"marimba_v0_bass_375","midi_source":""},{"t":260.985,"note":63,"dur":0.14,"vel":1.0,"inst":"marimba_v0_bass_375","midi_source":""},{"t":260.985,"note":67,"dur":0.14,"vel":1.0,"inst":"marimba_v0_bass_375","midi_source":""},{"t":260.985,"note":91,"dur":0.419,"vel":1.0,"inst":"marimba_v0_bass_375","midi_source":""},{"t":261.124,"note":63,"dur":0.14,"vel":1.0,"inst":"marimba_v0_bass_375","midi_source":""},{"t":261.124,"note":67,"dur":0.14,"vel":1.0,"inst":"marimba_v0_bass_375","midi_source":""},{"t":261.264,"note":63,"dur":0.14,"vel":1.0,"inst":"marimba_v0_bass_375","midi_source":""},{"t":261.264,"note":67,"dur":0.14,"vel":1.0,"inst":"marimba_v0_bass_375","midi_source":""},{"t":261.404,"note":63,"dur":0.14,"vel":1.0,"inst":"marimba_v0_bass_375","midi_source":""},{"t":261.404,"note":67,"dur":0.14,"vel":1.0,"inst":"marimba_v0_bass_375","midi_source":""},{"t":261.404,"note":84,"dur":0.14,"vel":1.0,"inst":"banjo_v0_plucked_142","midi_source":""},{"t":261.544,"note":62,"dur":0.14,"vel":1.0,"inst":"banjo_v0_plucked_142","midi_source":""},{"t":261.544,"note":65,"dur":0.14,"vel":1.0,"inst":"marimba_v0_bass_375","midi_source":""},{"t":261.544,"note":67,"dur":0.14,"vel":1.0,"inst":"marimba_v0_bass_375","midi_source":""},{"t":261.544,"note":70,"dur":0.14,"vel":1.0,"inst":"banjo_v0_plucked_142","midi_source":""},{"t":261.544,"note":82,"dur":0.559,"vel":1.0,"inst":"banjo_v0_plucked_142","midi_source":""},{"t":261.684,"note":62,"dur":0.14,"vel":1.0,"inst":"banjo_v0_plucked_142","midi_source":""},{"t":261.684,"note":65,"dur":0.14,"vel":1.0,"inst":"marimba_v0_bass_375","midi_source":""},{"t":261.684,"note":67,"dur":0.14,"vel":1.0,"inst":"marimba_v0_bass_375","midi_source":""},{"t":261.684,"note":70,"dur":0.14,"vel":1.0,"inst":"banjo_v0_plucked_142","midi_source":""},{"t":261.823,"note":62,"dur":0.14,"vel":1.0,"inst":"banjo_v0_plucked_142","midi_source":""},{"t":261.823,"note":65,"dur":0.14,"vel":1.0,"inst":"marimba_v0_bass_375","midi_source":""},{"t":261.823,"note":67,"dur":0.14,"vel":1.0,"inst":"marimba_v0_bass_375","midi_source":""},{"t":261.823,"note":70,"dur":0.14,"vel":1.0,"inst":"banjo_v0_plucked_142","midi_source":""},{"t":261.963,"note":62,"dur":0.14,"vel":1.0,"inst":"banjo_v0_plucked_142","midi_source":""},{"t":261.963,"note":65,"dur":0.14,"vel":1.0,"inst":"marimba_v0_bass_375","midi_source":""},{"t":261.963,"note":67,"dur":0.14,"vel":1.0,"inst":"marimba_v0_bass_375","midi_source":""},{"t":261.963,"note":70,"dur":0.14,"vel":1.0,"inst":"banjo_v0_plucked_142","midi_source":""},{"t":262.103,"note":62,"dur":0.14,"vel":1.0,"inst":"banjo_v0_plucked_142","midi_source":""},{"t":262.103,"note":65,"dur":0.14,"vel":1.0,"inst":"marimba_v0_bass_375","midi_source":""},{"t":262.103,"note":67,"dur":0.14,"vel":1.0,"inst":"marimba_v0_bass_375","midi_source":""},{"t":262.103,"note":70,"dur":0.14,"vel":1.0,"inst":"banjo_v0_plucked_142","midi_source":""},{"t":262.103,"note":92,"dur":0.419,"vel":1.0,"inst":"banjo_v0_plucked_142","midi_source":""},{"t":262.243,"note":62,"dur":0.14,"vel":1.0,"inst":"banjo_v0_plucked_142","midi_source":""},{"t":262.243,"note":65,"dur":0.14,"vel":1.0,"inst":"marimba_v0_bass_375","midi_source":""},{"t":262.243,"note":67,"dur":0.14,"vel":1.0,"inst":"marimba_v0_bass_375","midi_source":""},{"t":262.243,"note":70,"dur":0.14,"vel":1.0,"inst":"banjo_v0_plucked_142","midi_source":""},{"t":262.382,"note":62,"dur":0.14,"vel":1.0,"inst":"banjo_v0_plucked_142","midi_source":""},{"t":262.382,"note":65,"dur":0.14,"vel":1.0,"inst":"marimba_v0_bass_375","midi_source":""},{"t":262.382,"note":67,"dur":0.14,"vel":1.0,"inst":"marimba_v0_bass_375","midi_source":""},{"t":262.382,"note":70,"dur":0.14,"vel":1.0,"inst":"banjo_v0_plucked_142","midi_source":""},{"t":262.522,"note":62,"dur":0.14,"vel":1.0,"inst":"banjo_v0_plucked_142","midi_source":""},{"t":262.522,"note":65,"dur":0.14,"vel":1.0,"inst":"marimba_v0_bass_375","midi_source":""},{"t":262.522,"note":67,"dur":0.14,"vel":1.0,"inst":"marimba_v0_bass_375","midi_source":""},{"t":262.522,"note":70,"dur":0.14,"vel":1.0,"inst":"banjo_v0_plucked_142","midi_source":""},{"t":262.522,"note":91,"dur":0.14,"vel":1.0,"inst":"marimba_v0_bass_375","midi_source":""},{"t":262.662,"note":48,"dur":0.14,"vel":1.0,"inst":"banjo_v0_plucked_142","midi_source":""},{"t":262.662,"note":60,"dur":0.14,"vel":1.0,"inst":"banjo_v0_plucked_142","midi_source":""},{"t":262.662,"note":87,"dur":0.28,"vel":1.0,"inst":"marimba_v0_bass_375","midi_source":""},{"t":262.802,"note":67,"dur":0.14,"vel":1.0,"inst":"marimba_v0_bass_375","midi_source":""},{"t":262.942,"note":72,"dur":0.14,"vel":1.0,"inst":"banjo_v0_plucked_142","midi_source":""},{"t":262.942,"note":75,"dur":0.14,"vel":1.0,"inst":"marimba_v0_bass_375","midi_source":""},{"t":262.942,"note":91,"dur":0.419,"vel":1.0,"inst":"marimba_v0_bass_375","midi_source":""},{"t":263.081,"note":67,"dur":0.14,"vel":1.0,"inst":"marimba_v0_bass_375","midi_source":""},{"t":263.221,"note":72,"dur":0.14,"vel":1.0,"inst":"banjo_v0_plucked_142","midi_source":""},{"t":263.221,"note":75,"dur":0.14,"vel":1.0,"inst":"marimba_v0_bass_375","midi_source":""},{"t":263.361,"note":67,"dur":0.14,"vel":1.0,"inst":"marimba_v0_bass_375","midi_source":""},{"t":263.361,"note":99,"dur":0.14,"vel":1.0,"inst":"marimba_v0_bass_375","midi_source":""},{"t":263.501,"note":72,"dur":0.14,"vel":1.0,"inst":"banjo_v0_plucked_142","midi_source":""},{"t":263.501,"note":75,"dur":0.14,"vel":1.0,"inst":"marimba_v0_bass_375","midi_source":""},{"t":263.501,"note":98,"dur":0.14,"vel":1.0,"inst":"banjo_v0_plucked_142","midi_source":""},{"t":263.64,"note":67,"dur":0.14,"vel":1.0,"inst":"marimba_v0_bass_375","midi_source":""},{"t":263.64,"note":96,"dur":0.14,"vel":1.0,"inst":"banjo_v0_plucked_142","midi_source":""},{"t":263.78,"note":48,"dur":0.14,"vel":1.0,"inst":"banjo_v0_plucked_142","midi_source":""},{"t":263.78,"note":60,"dur":0.14,"vel":1.0,"inst":"banjo_v0_plucked_142","midi_source":""},{"t":263.78,"note":96,"dur":0.28,"vel":1.0,"inst":"banjo_v0_plucked_142","midi_source":""},{"t":263.92,"note":67,"dur":0.14,"vel":1.0,"inst":"marimba_v0_bass_375","midi_source":""},{"t":264.06,"note":68,"dur":0.28,"vel":1.0,"inst":"banjo_v0_plucked_142","midi_source":""},{"t":264.06,"note":72,"dur":0.28,"vel":1.0,"inst":"banjo_v0_plucked_142","midi_source":""},{"t":264.06,"note":74,"dur":0.28,"vel":1.0,"inst":"banjo_v0_plucked_142","midi_source":""},{"t":264.06,"note":77,"dur":0.28,"vel":1.0,"inst":"marimba_v0_bass_375","midi_source":""},{"t":264.2,"note":84,"dur":0.07,"vel":1.0,"inst":"banjo_v0_plucked_142","midi_source":""},{"t":264.269,"note":86,"dur":0.07,"vel":1.0,"inst":"banjo_v0_plucked_142","midi_source":""},{"t":264.339,"note":50,"dur":0.28,"vel":1.0,"inst":"banjo_v0_plucked_142","midi_source":""},{"t":264.339,"note":62,"dur":0.28,"vel":1.0,"inst":"banjo_v0_plucked_142","midi_source":""},{"t":264.339,"note":87,"dur":0.14,"vel":1.0,"inst":"marimba_v0_bass_375","midi_source":""},{"t":264.479,"note":89,"dur":0.14,"vel":1.0,"inst":"marimba_v0_bass_375","midi_source":""},{"t":264.619,"note":68,"dur":0.28,"vel":1.0,"inst":"banjo_v0_plucked_142","midi_source":""},{"t":264.619,"note":72,"dur":0.28,"vel":1.0,"inst":"banjo_v0_plucked_142","midi_source":""},{"t":264.619,"note":74,"dur":0.28,"vel":1.0,"inst":"banjo_v0_plucked_142","midi_source":""},{"t":264.619,"note":77,"dur":0.28,"vel":1.0,"inst":"marimba_v0_bass_375","midi_source":""},{"t":264.619,"note":91,"dur":0.14,"vel":1.0,"inst":"marimba_v0_bass_375","midi_source":""},{"t":264.759,"note":92,"dur":0.14,"vel":1.0,"inst":"banjo_v0_plucked_142","midi_source":""},{"t":264.898,"note":55,"dur":0.28,"vel":1.0,"inst":"marimba_v0_bass_375","midi_source":""},{"t":264.898,"note":67,"dur":0.28,"vel":1.0,"inst":"marimba_v0_bass_375","midi_source":""},{"t":264.898,"note":84,"dur":0.28,"vel":1.0,"inst":"banjo_v0_plucked_142","midi_source":""},{"t":264.898,"note":89,"dur":0.28,"vel":1.0,"inst":"marimba_v0_bass_375","midi_source":""},{"t":264.898,"note":96,"dur":0.28,"vel":1.0,"inst":"banjo_v0_plucked_142","midi_source":""},{"t":265.178,"note":70,"dur":0.28,"vel":1.0,"inst":"banjo_v0_plucked_142","midi_source":""},{"t":265.178,"note":74,"dur":0.28,"vel":1.0,"inst":"banjo_v0_plucked_142","midi_source":""},{"t":265.178,"note":79,"dur":0.28,"vel":1.0,"inst":"marimba_v0_bass_375","midi_source":""},{"t":265.178,"note":82,"dur":0.419,"vel":1.0,"inst":"banjo_v0_plucked_142","midi_source":""},{"t":265.178,"note":91,"dur":0.419,"vel":1.0,"inst":"marimba_v0_bass_375","midi_source":""},{"t":265.178,"note":94,"dur":0.419,"vel":1.0,"inst":"banjo_v0_plucked_142","midi_source":""},{"t":265.457,"note":63,"dur":0.28,"vel":1.0,"inst":"marimba_v0_bass_375","midi_source":""},{"t":265.597,"note":94,"dur":0.14,"vel":1.0,"inst":"banjo_v0_plucked_142","midi_source":""},{"t":265.737,"note":70,"dur":0.28,"vel":1.0,"inst":"banjo_v0_plucked_142","midi_source":""},{"t":265.737,"note":74,"dur":0.28,"vel":1.0,"inst":"banjo_v0_plucked_142","midi_source":""},{"t":265.737,"note":79,"dur":0.28,"vel":1.0,"inst":"marimba_v0_bass_375","midi_source":""},{"t":265.737,"note":94,"dur":0.14,"vel":1.0,"inst":"banjo_v0_plucked_142","midi_source":""},{"t":265.877,"note":94,"dur":0.14,"vel":1.0,"inst":"banjo_v0_plucked_142","midi_source":""},{"t":266.017,"note":65,"dur":0.28,"vel":1.0,"inst":"marimba_v0_bass_375","midi_source":""},{"t":266.017,"note":94,"dur":0.28,"vel":1.0,"inst":"banjo_v0_plucked_142","midi_source":""},{"t":266.296,"note":72,"dur":0.28,"vel":1.0,"inst":"banjo_v0_plucked_142","midi_source":""},{"t":266.296,"note":75,"dur":0.28,"vel":1.0,"inst":"marimba_v0_bass_375","midi_source":""},{"t":266.296,"note":77,"dur":0.28,"vel":1.0,"inst":"marimba_v0_bass_375","midi_source":""},{"t":266.296,"note":94,"dur":0.419,"vel":1.0,"inst":"banjo_v0_plucked_142","midi_source":""},{"t":266.576,"note":58,"dur":0.28,"vel":1.0,"inst":"banjo_v0_plucked_142","midi_source":""},{"t":266.715,"note":92,"dur":0.14,"vel":1.0,"inst":"banjo_v0_plucked_142","midi_source":""},{"t":266.855,"note":70,"dur":0.28,"vel":1.0,"inst":"banjo_v0_plucked_142","midi_source":""},{"t":266.855,"note":75,"dur":0.28,"vel":1.0,"inst":"marimba_v0_bass_375","midi_source":""},{"t":266.855,"note":77,"dur":0.28,"vel":1.0,"inst":"marimba_v0_bass_375","midi_source":""},{"t":266.855,"note":92,"dur":0.14,"vel":1.0,"inst":"banjo_v0_plucked_142","midi_source":""},{"t":266.995,"note":92,"dur":0.14,"vel":1.0,"inst":"banjo_v0_plucked_142","midi_source":""},{"t":267.135,"note":63,"dur":0.28,"vel":1.0,"inst":"marimba_v0_bass_375","midi_source":""},{"t":267.135,"note":92,"dur":0.28,"vel":1.0,"inst":"banjo_v0_plucked_142","midi_source":""},{"t":267.414,"note":70,"dur":0.28,"vel":1.0,"inst":"banjo_v0_plucked_142","midi_source":""},{"t":267.414,"note":75,"dur":0.28,"vel":1.0,"inst":"marimba_v0_bass_375","midi_source":""},{"t":267.414,"note":92,"dur":0.419,"vel":1.0,"inst":"banjo_v0_plucked_142","midi_source":""},{"t":267.694,"note":58,"dur":0.28,"vel":1.0,"inst":"banjo_v0_plucked_142","midi_source":""},{"t":267.834,"note":91,"dur":0.14,"vel":1.0,"inst":"marimba_v0_bass_375","midi_source":""},{"t":267.973,"note":70,"dur":0.28,"vel":1.0,"inst":"banjo_v0_plucked_142","midi_source":""},{"t":267.973,"note":72,"dur":0.28,"vel":1.0,"inst":"banjo_v0_plucked_142","midi_source":""},{"t":267.973,"note":75,"dur":0.28,"vel":1.0,"inst":"marimba_v0_bass_375","midi_source":""},{"t":267.973,"note":91,"dur":0.14,"vel":1.0,"inst":"marimba_v0_bass_375","midi_source":""},{"t":268.113,"note":91,"dur":0.14,"vel":1.0,"inst":"marimba_v0_bass_375","midi_source":""},{"t":268.253,"note":58,"dur":0.28,"vel":1.0,"inst":"banjo_v0_plucked_142","midi_source":""},{"t":268.253,"note":62,"dur":0.28,"vel":1.0,"inst":"banjo_v0_plucked_142","midi_source":""},{"t":268.253,"note":91,"dur":0.14,"vel":1.0,"inst":"marimba_v0_bass_375","midi_source":""},{"t":268.393,"note":89,"dur":0.28,"vel":1.0,"inst":"marimba_v0_bass_375","midi_source":""},{"t":268.533,"note":60,"dur":0.28,"vel":1.0,"inst":"banjo_v0_plucked_142","midi_source":""},{"t":268.533,"note":63,"dur":0.28,"vel":1.0,"inst":"marimba_v0_bass_375","midi_source":""},{"t":268.672,"note":87,"dur":0.28,"vel":1.0,"inst":"marimba_v0_bass_375","midi_source":""},{"t":268.812,"note":62,"dur":0.28,"vel":1.0,"inst":"banjo_v0_plucked_142","midi_source":""},{"t":268.812,"note":65,"dur":0.28,"vel":1.0,"inst":"marimba_v0_bass_375","midi_source":""},{"t":268.952,"note":86,"dur":0.28,"vel":1.0,"inst":"banjo_v0_plucked_142","midi_source":""},{"t":269.092,"note":62,"dur":0.28,"vel":1.0,"inst":"banjo_v0_plucked_142","midi_source":""},{"t":269.092,"note":65,"dur":0.28,"vel":1.0,"inst":"marimba_v0_bass_375","midi_source":""},{"t":269.231,"note":84,"dur":0.14,"vel":1.0,"inst":"banjo_v0_plucked_142","midi_source":""},{"t":269.371,"note":63,"dur":0.14,"vel":1.0,"inst":"marimba_v0_bass_375","midi_source":""},{"t":269.371,"note":67,"dur":0.14,"vel":1.0,"inst":"marimba_v0_bass_375","midi_source":""},{"t":269.371,"note":84,"dur":0.559,"vel":1.0,"inst":"banjo_v0_plucked_142","midi_source":""},{"t":269.511,"note":63,"dur":0.14,"vel":1.0,"inst":"marimba_v0_bass_375","midi_source":""},{"t":269.511,"note":67,"dur":0.14,"vel":1.0,"inst":"marimba_v0_bass_375","midi_source":""},{"t":269.651,"note":63,"dur":0.14,"vel":1.0,"inst":"marimba_v0_bass_375","midi_source":""},{"t":269.651,"note":67,"dur":0.14,"vel":1.0,"inst":"marimba_v0_bass_375","midi_source":""},{"t":269.791,"note":63,"dur":0.14,"vel":1.0,"inst":"marimba_v0_bass_375","midi_source":""},{"t":269.791,"note":67,"dur":0.14,"vel":1.0,"inst":"marimba_v0_bass_375","midi_source":""},{"t":269.93,"note":63,"dur":0.14,"vel":1.0,"inst":"marimba_v0_bass_375","midi_source":""},{"t":269.93,"note":67,"dur":0.14,"vel":1.0,"inst":"marimba_v0_bass_375","midi_source":""},{"t":269.93,"note":91,"dur":0.419,"vel":1.0,"inst":"marimba_v0_bass_375","midi_source":""},{"t":270.07,"note":63,"dur":0.14,"vel":1.0,"inst":"marimba_v0_bass_375","midi_source":""},{"t":270.07,"note":67,"dur":0.14,"vel":1.0,"inst":"marimba_v0_bass_375","midi_source":""},{"t":270.21,"note":63,"dur":0.14,"vel":1.0,"inst":"marimba_v0_bass_375","midi_source":""},{"t":270.21,"note":67,"dur":0.14,"vel":1.0,"inst":"marimba_v0_bass_375","midi_source":""},{"t":270.35,"note":63,"dur":0.14,"vel":1.0,"inst":"marimba_v0_bass_375","midi_source":""},{"t":270.35,"note":67,"dur":0.14,"vel":1.0,"inst":"marimba_v0_bass_375","midi_source":""},{"t":270.35,"note":84,"dur":0.14,"vel":1.0,"inst":"banjo_v0_plucked_142","midi_source":""},{"t":270.489,"note":62,"dur":0.14,"vel":1.0,"inst":"banjo_v0_plucked_142","midi_source":""},{"t":270.489,"note":65,"dur":0.14,"vel":1.0,"inst":"marimba_v0_bass_375","midi_source":""},{"t":270.489,"note":67,"dur":0.14,"vel":1.0,"inst":"marimba_v0_bass_375","midi_source":""},{"t":270.489,"note":70,"dur":0.14,"vel":1.0,"inst":"banjo_v0_plucked_142","midi_source":""},{"t":270.489,"note":82,"dur":0.559,"vel":1.0,"inst":"banjo_v0_plucked_142","midi_source":""},{"t":270.629,"note":62,"dur":0.14,"vel":1.0,"inst":"banjo_v0_plucked_142","midi_source":""},{"t":270.629,"note":65,"dur":0.14,"vel":1.0,"inst":"marimba_v0_bass_375","midi_source":""},{"t":270.629,"note":67,"dur":0.14,"vel":1.0,"inst":"marimba_v0_bass_375","midi_source":""},{"t":270.629,"note":70,"dur":0.14,"vel":1.0,"inst":"banjo_v0_plucked_142","midi_source":""},{"t":270.769,"note":62,"dur":0.14,"vel":1.0,"inst":"banjo_v0_plucked_142","midi_source":""},{"t":270.769,"note":65,"dur":0.14,"vel":1.0,"inst":"marimba_v0_bass_375","midi_source":""},{"t":270.769,"note":67,"dur":0.14,"vel":1.0,"inst":"marimba_v0_bass_375","midi_source":""},{"t":270.769,"note":70,"dur":0.14,"vel":1.0,"inst":"banjo_v0_plucked_142","midi_source":""},{"t":270.909,"note":62,"dur":0.14,"vel":1.0,"inst":"banjo_v0_plucked_142","midi_source":""},{"t":270.909,"note":65,"dur":0.14,"vel":1.0,"inst":"marimba_v0_bass_375","midi_source":""},{"t":270.909,"note":67,"dur":0.14,"vel":1.0,"inst":"marimba_v0_bass_375","midi_source":""},{"t":270.909,"note":70,"dur":0.14,"vel":1.0,"inst":"banjo_v0_plucked_142","midi_source":""},{"t":271.049,"note":62,"dur":0.14,"vel":1.0,"inst":"banjo_v0_plucked_142","midi_source":""},{"t":271.049,"note":65,"dur":0.14,"vel":1.0,"inst":"marimba_v0_bass_375","midi_source":""},{"t":271.049,"note":67,"dur":0.14,"vel":1.0,"inst":"marimba_v0_bass_375","midi_source":""},{"t":271.049,"note":70,"dur":0.14,"vel":1.0,"inst":"banjo_v0_plucked_142","midi_source":""},{"t":271.049,"note":92,"dur":0.419,"vel":1.0,"inst":"banjo_v0_plucked_142","midi_source":""},{"t":271.188,"note":62,"dur":0.14,"vel":1.0,"inst":"banjo_v0_plucked_142","midi_source":""},{"t":271.188,"note":65,"dur":0.14,"vel":1.0,"inst":"marimba_v0_bass_375","midi_source":""},{"t":271.188,"note":67,"dur":0.14,"vel":1.0,"inst":"marimba_v0_bass_375","midi_source":""},{"t":271.188,"note":70,"dur":0.14,"vel":1.0,"inst":"banjo_v0_plucked_142","midi_source":""},{"t":271.328,"note":62,"dur":0.14,"vel":1.0,"inst":"banjo_v0_plucked_142","midi_source":""},{"t":271.328,"note":65,"dur":0.14,"vel":1.0,"inst":"marimba_v0_bass_375","midi_source":""},{"t":271.328,"note":67,"dur":0.14,"vel":1.0,"inst":"marimba_v0_bass_375","midi_source":""},{"t":271.328,"note":70,"dur":0.14,"vel":1.0,"inst":"banjo_v0_plucked_142","midi_source":""},{"t":271.468,"note":62,"dur":0.14,"vel":1.0,"inst":"banjo_v0_plucked_142","midi_source":""},{"t":271.468,"note":65,"dur":0.14,"vel":1.0,"inst":"marimba_v0_bass_375","midi_source":""},{"t":271.468,"note":67,"dur":0.14,"vel":1.0,"inst":"marimba_v0_bass_375","midi_source":""},{"t":271.468,"note":70,"dur":0.14,"vel":1.0,"inst":"banjo_v0_plucked_142","midi_source":""},{"t":271.468,"note":91,"dur":0.14,"vel":1.0,"inst":"marimba_v0_bass_375","midi_source":""},{"t":271.608,"note":48,"dur":0.14,"vel":1.0,"inst":"banjo_v0_plucked_142","midi_source":""},{"t":271.608,"note":60,"dur":0.14,"vel":1.0,"inst":"banjo_v0_plucked_142","midi_source":""},{"t":271.608,"note":87,"dur":0.28,"vel":1.0,"inst":"marimba_v0_bass_375","midi_source":""},{"t":271.747,"note":67,"dur":0.14,"vel":1.0,"inst":"marimba_v0_bass_375","midi_source":""},{"t":271.887,"note":72,"dur":0.14,"vel":1.0,"inst":"banjo_v0_plucked_142","midi_source":""},{"t":271.887,"note":75,"dur":0.14,"vel":1.0,"inst":"marimba_v0_bass_375","midi_source":""},{"t":271.887,"note":91,"dur":0.419,"vel":1.0,"inst":"marimba_v0_bass_375","midi_source":""},{"t":272.027,"note":67,"dur":0.14,"vel":1.0,"inst":"marimba_v0_bass_375","midi_source":""},{"t":272.167,"note":72,"dur":0.14,"vel":1.0,"inst":"banjo_v0_plucked_142","midi_source":""},{"t":272.167,"note":75,"dur":0.14,"vel":1.0,"inst":"marimba_v0_bass_375","midi_source":""},{"t":272.307,"note":67,"dur":0.14,"vel":1.0,"inst":"marimba_v0_bass_375","midi_source":""},{"t":272.307,"note":99,"dur":0.14,"vel":1.0,"inst":"marimba_v0_bass_375","midi_source":""},{"t":272.446,"note":72,"dur":0.14,"vel":1.0,"inst":"banjo_v0_plucked_142","midi_source":""},{"t":272.446,"note":75,"dur":0.14,"vel":1.0,"inst":"marimba_v0_bass_375","midi_source":""},{"t":272.446,"note":98,"dur":0.14,"vel":1.0,"inst":"banjo_v0_plucked_142","midi_source":""},{"t":272.586,"note":67,"dur":0.14,"vel":1.0,"inst":"marimba_v0_bass_375","midi_source":""},{"t":272.586,"note":96,"dur":0.14,"vel":1.0,"inst":"banjo_v0_plucked_142","midi_source":""},{"t":272.726,"note":48,"dur":0.14,"vel":1.0,"inst":"banjo_v0_plucked_142","midi_source":""},{"t":272.726,"note":60,"dur":0.14,"vel":1.0,"inst":"banjo_v0_plucked_142","midi_source":""},{"t":272.726,"note":96,"dur":0.28,"vel":1.0,"inst":"banjo_v0_plucked_142","midi_source":""},{"t":272.866,"note":67,"dur":0.14,"vel":1.0,"inst":"marimba_v0_bass_375","midi_source":""},{"t":273.005,"note":68,"dur":0.28,"vel":1.0,"inst":"banjo_v0_plucked_142","midi_source":""},{"t":273.005,"note":72,"dur":0.28,"vel":1.0,"inst":"banjo_v0_plucked_142","midi_source":""},{"t":273.005,"note":74,"dur":0.28,"vel":1.0,"inst":"banjo_v0_plucked_142","midi_source":""},{"t":273.005,"note":77,"dur":0.28,"vel":1.0,"inst":"marimba_v0_bass_375","midi_source":""},{"t":273.145,"note":84,"dur":0.07,"vel":1.0,"inst":"banjo_v0_plucked_142","midi_source":""},{"t":273.215,"note":86,"dur":0.07,"vel":1.0,"inst":"banjo_v0_plucked_142","midi_source":""},{"t":273.285,"note":50,"dur":0.28,"vel":1.0,"inst":"banjo_v0_plucked_142","midi_source":""},{"t":273.285,"note":62,"dur":0.28,"vel":1.0,"inst":"banjo_v0_plucked_142","midi_source":""},{"t":273.285,"note":87,"dur":0.14,"vel":1.0,"inst":"marimba_v0_bass_375","midi_source":""},{"t":273.425,"note":89,"dur":0.14,"vel":1.0,"inst":"marimba_v0_bass_375","midi_source":""},{"t":273.565,"note":68,"dur":0.28,"vel":1.0,"inst":"banjo_v0_plucked_142","midi_source":""},{"t":273.565,"note":72,"dur":0.28,"vel":1.0,"inst":"banjo_v0_plucked_142","midi_source":""},{"t":273.565,"note":74,"dur":0.28,"vel":1.0,"inst":"banjo_v0_plucked_142","midi_source":""},{"t":273.565,"note":77,"dur":0.28,"vel":1.0,"inst":"marimba_v0_bass_375","midi_source":""},{"t":273.565,"note":91,"dur":0.14,"vel":1.0,"inst":"marimba_v0_bass_375","midi_source":""},{"t":273.704,"note":92,"dur":0.14,"vel":1.0,"inst":"banjo_v0_plucked_142","midi_source":""},{"t":273.844,"note":55,"dur":0.28,"vel":1.0,"inst":"marimba_v0_bass_375","midi_source":""},{"t":273.844,"note":67,"dur":0.28,"vel":1.0,"inst":"marimba_v0_bass_375","midi_source":""},{"t":273.844,"note":84,"dur":0.28,"vel":1.0,"inst":"banjo_v0_plucked_142","midi_source":""},{"t":273.844,"note":89,"dur":0.28,"vel":1.0,"inst":"marimba_v0_bass_375","midi_source":""},{"t":273.844,"note":96,"dur":0.28,"vel":1.0,"inst":"banjo_v0_plucked_142","midi_source":""},{"t":274.124,"note":70,"dur":0.28,"vel":1.0,"inst":"banjo_v0_plucked_142","midi_source":""},{"t":274.124,"note":74,"dur":0.28,"vel":1.0,"inst":"banjo_v0_plucked_142","midi_source":""},{"t":274.124,"note":79,"dur":0.28,"vel":1.0,"inst":"marimba_v0_bass_375","midi_source":""},{"t":274.124,"note":82,"dur":0.419,"vel":1.0,"inst":"banjo_v0_plucked_142","midi_source":""},{"t":274.124,"note":91,"dur":0.419,"vel":1.0,"inst":"marimba_v0_bass_375","midi_source":""},{"t":274.124,"note":94,"dur":0.419,"vel":1.0,"inst":"banjo_v0_plucked_142","midi_source":""},{"t":274.403,"note":63,"dur":0.28,"vel":1.0,"inst":"marimba_v0_bass_375","midi_source":""},{"t":274.543,"note":94,"dur":0.14,"vel":1.0,"inst":"banjo_v0_plucked_142","midi_source":""},{"t":274.683,"note":70,"dur":0.28,"vel":1.0,"inst":"banjo_v0_plucked_142","midi_source":""},{"t":274.683,"note":74,"dur":0.28,"vel":1.0,"inst":"banjo_v0_plucked_142","midi_source":""},{"t":274.683,"note":79,"dur":0.28,"vel":1.0,"inst":"marimba_v0_bass_375","midi_source":""},{"t":274.683,"note":94,"dur":0.14,"vel":1.0,"inst":"banjo_v0_plucked_142","midi_source":""},{"t":274.823,"note":94,"dur":0.14,"vel":1.0,"inst":"banjo_v0_plucked_142","midi_source":""},{"t":274.962,"note":65,"dur":0.28,"vel":1.0,"inst":"marimba_v0_bass_375","midi_source":""},{"t":274.962,"note":94,"dur":0.28,"vel":1.0,"inst":"banjo_v0_plucked_142","midi_source":""},{"t":275.242,"note":72,"dur":0.28,"vel":1.0,"inst":"banjo_v0_plucked_142","midi_source":""},{"t":275.242,"note":75,"dur":0.28,"vel":1.0,"inst":"marimba_v0_bass_375","midi_source":""},{"t":275.242,"note":77,"dur":0.28,"vel":1.0,"inst":"marimba_v0_bass_375","midi_source":""},{"t":275.242,"note":94,"dur":0.419,"vel":1.0,"inst":"banjo_v0_plucked_142","midi_source":""},{"t":275.521,"note":58,"dur":0.28,"vel":1.0,"inst":"banjo_v0_plucked_142","midi_source":""},{"t":275.661,"note":92,"dur":0.14,"vel":1.0,"inst":"banjo_v0_plucked_142","midi_source":""},{"t":275.801,"note":70,"dur":0.28,"vel":1.0,"inst":"banjo_v0_plucked_142","midi_source":""},{"t":275.801,"note":75,"dur":0.28,"vel":1.0,"inst":"marimba_v0_bass_375","midi_source":""},{"t":275.801,"note":77,"dur":0.28,"vel":1.0,"inst":"marimba_v0_bass_375","midi_source":""},{"t":275.801,"note":92,"dur":0.14,"vel":1.0,"inst":"banjo_v0_plucked_142","midi_source":""},{"t":275.941,"note":92,"dur":0.14,"vel":1.0,"inst":"banjo_v0_plucked_142","midi_source":""},{"t":276.081,"note":63,"dur":0.28,"vel":1.0,"inst":"marimba_v0_bass_375","midi_source":""},{"t":276.081,"note":92,"dur":0.28,"vel":1.0,"inst":"banjo_v0_plucked_142","midi_source":""},{"t":276.36,"note":70,"dur":0.28,"vel":1.0,"inst":"banjo_v0_plucked_142","midi_source":""},{"t":276.36,"note":75,"dur":0.28,"vel":1.0,"inst":"marimba_v0_bass_375","midi_source":""},{"t":276.36,"note":92,"dur":0.419,"vel":1.0,"inst":"banjo_v0_plucked_142","midi_source":""},{"t":276.64,"note":58,"dur":0.28,"vel":1.0,"inst":"banjo_v0_plucked_142","midi_source":""},{"t":276.779,"note":91,"dur":0.14,"vel":1.0,"inst":"marimba_v0_bass_375","midi_source":""},{"t":276.919,"note":70,"dur":0.28,"vel":1.0,"inst":"banjo_v0_plucked_142","midi_source":""},{"t":276.919,"note":72,"dur":0.28,"vel":1.0,"inst":"banjo_v0_plucked_142","midi_source":""},{"t":276.919,"note":75,"dur":0.28,"vel":1.0,"inst":"marimba_v0_bass_375","midi_source":""},{"t":276.919,"note":91,"dur":0.14,"vel":1.0,"inst":"marimba_v0_bass_375","midi_source":""},{"t":277.059,"note":91,"dur":0.14,"vel":1.0,"inst":"marimba_v0_bass_375","midi_source":""},{"t":277.199,"note":58,"dur":0.28,"vel":1.0,"inst":"banjo_v0_plucked_142","midi_source":""},{"t":277.199,"note":62,"dur":0.28,"vel":1.0,"inst":"banjo_v0_plucked_142","midi_source":""},{"t":277.199,"note":91,"dur":0.14,"vel":1.0,"inst":"marimba_v0_bass_375","midi_source":""},{"t":277.339,"note":89,"dur":0.28,"vel":1.0,"inst":"marimba_v0_bass_375","midi_source":""},{"t":277.478,"note":60,"dur":0.28,"vel":1.0,"inst":"banjo_v0_plucked_142","midi_source":""},{"t":277.478,"note":63,"dur":0.28,"vel":1.0,"inst":"marimba_v0_bass_375","midi_source":""},{"t":277.618,"note":87,"dur":0.28,"vel":1.0,"inst":"marimba_v0_bass_375","midi_source":""},{"t":277.758,"note":62,"dur":0.28,"vel":1.0,"inst":"banjo_v0_plucked_142","midi_source":""},{"t":277.758,"note":65,"dur":0.28,"vel":1.0,"inst":"marimba_v0_bass_375","midi_source":""},{"t":277.898,"note":86,"dur":0.28,"vel":1.0,"inst":"banjo_v0_plucked_142","midi_source":""},{"t":278.037,"note":62,"dur":0.28,"vel":1.0,"inst":"banjo_v0_plucked_142","midi_source":""},{"t":278.037,"note":65,"dur":0.28,"vel":1.0,"inst":"marimba_v0_bass_375","midi_source":""},{"t":278.177,"note":84,"dur":0.14,"vel":1.0,"inst":"banjo_v0_plucked_142","midi_source":""},{"t":278.317,"note":63,"dur":0.14,"vel":1.0,"inst":"marimba_v0_bass_375","midi_source":""},{"t":278.317,"note":67,"dur":0.14,"vel":1.0,"inst":"marimba_v0_bass_375","midi_source":""},{"t":278.317,"note":84,"dur":0.559,"vel":1.0,"inst":"banjo_v0_plucked_142","midi_source":""},{"t":278.457,"note":63,"dur":0.14,"vel":1.0,"inst":"marimba_v0_bass_375","midi_source":""},{"t":278.457,"note":67,"dur":0.14,"vel":1.0,"inst":"marimba_v0_bass_375","midi_source":""},{"t":278.597,"note":63,"dur":0.14,"vel":1.0,"inst":"marimba_v0_bass_375","midi_source":""},{"t":278.597,"note":67,"dur":0.14,"vel":1.0,"inst":"marimba_v0_bass_375","midi_source":""},{"t":278.736,"note":63,"dur":0.14,"vel":1.0,"inst":"marimba_v0_bass_375","midi_source":""},{"t":278.736,"note":67,"dur":0.14,"vel":1.0,"inst":"marimba_v0_bass_375","midi_source":""},{"t":278.876,"note":63,"dur":0.14,"vel":1.0,"inst":"marimba_v0_bass_375","midi_source":""},{"t":278.876,"note":67,"dur":0.14,"vel":1.0,"inst":"marimba_v0_bass_375","midi_source":""},{"t":278.876,"note":91,"dur":0.419,"vel":1.0,"inst":"marimba_v0_bass_375","midi_source":""},{"t":279.016,"note":63,"dur":0.14,"vel":1.0,"inst":"marimba_v0_bass_375","midi_source":""},{"t":279.016,"note":67,"dur":0.14,"vel":1.0,"inst":"marimba_v0_bass_375","midi_source":""},{"t":279.156,"note":63,"dur":0.14,"vel":1.0,"inst":"marimba_v0_bass_375","midi_source":""},{"t":279.156,"note":67,"dur":0.14,"vel":1.0,"inst":"marimba_v0_bass_375","midi_source":""},{"t":279.295,"note":63,"dur":0.14,"vel":1.0,"inst":"marimba_v0_bass_375","midi_source":""},{"t":279.295,"note":67,"dur":0.14,"vel":1.0,"inst":"marimba_v0_bass_375","midi_source":""},{"t":279.295,"note":84,"dur":0.14,"vel":1.0,"inst":"banjo_v0_plucked_142","midi_source":""},{"t":279.435,"note":62,"dur":0.14,"vel":1.0,"inst":"banjo_v0_plucked_142","midi_source":""},{"t":279.435,"note":65,"dur":0.14,"vel":1.0,"inst":"marimba_v0_bass_375","midi_source":""},{"t":279.435,"note":67,"dur":0.14,"vel":1.0,"inst":"marimba_v0_bass_375","midi_source":""},{"t":279.435,"note":70,"dur":0.14,"vel":1.0,"inst":"banjo_v0_plucked_142","midi_source":""},{"t":279.435,"note":82,"dur":0.559,"vel":1.0,"inst":"banjo_v0_plucked_142","midi_source":""},{"t":279.575,"note":62,"dur":0.14,"vel":1.0,"inst":"banjo_v0_plucked_142","midi_source":""},{"t":279.575,"note":65,"dur":0.14,"vel":1.0,"inst":"marimba_v0_bass_375","midi_source":""},{"t":279.575,"note":67,"dur":0.14,"vel":1.0,"inst":"marimba_v0_bass_375","midi_source":""},{"t":279.575,"note":70,"dur":0.14,"vel":1.0,"inst":"banjo_v0_plucked_142","midi_source":""},{"t":279.715,"note":62,"dur":0.14,"vel":1.0,"inst":"banjo_v0_plucked_142","midi_source":""},{"t":279.715,"note":65,"dur":0.14,"vel":1.0,"inst":"marimba_v0_bass_375","midi_source":""},{"t":279.715,"note":67,"dur":0.14,"vel":1.0,"inst":"marimba_v0_bass_375","midi_source":""},{"t":279.715,"note":70,"dur":0.14,"vel":1.0,"inst":"banjo_v0_plucked_142","midi_source":""},{"t":279.855,"note":62,"dur":0.14,"vel":1.0,"inst":"banjo_v0_plucked_142","midi_source":""},{"t":279.855,"note":65,"dur":0.14,"vel":1.0,"inst":"marimba_v0_bass_375","midi_source":""},{"t":279.855,"note":67,"dur":0.14,"vel":1.0,"inst":"marimba_v0_bass_375","midi_source":""},{"t":279.855,"note":70,"dur":0.14,"vel":1.0,"inst":"banjo_v0_plucked_142","midi_source":""},{"t":279.994,"note":62,"dur":0.14,"vel":1.0,"inst":"banjo_v0_plucked_142","midi_source":""},{"t":279.994,"note":65,"dur":0.14,"vel":1.0,"inst":"marimba_v0_bass_375","midi_source":""},{"t":279.994,"note":67,"dur":0.14,"vel":1.0,"inst":"marimba_v0_bass_375","midi_source":""},{"t":279.994,"note":70,"dur":0.14,"vel":1.0,"inst":"banjo_v0_plucked_142","midi_source":""},{"t":279.994,"note":92,"dur":0.419,"vel":1.0,"inst":"banjo_v0_plucked_142","midi_source":""},{"t":280.134,"note":62,"dur":0.14,"vel":1.0,"inst":"banjo_v0_plucked_142","midi_source":""},{"t":280.134,"note":65,"dur":0.14,"vel":1.0,"inst":"marimba_v0_bass_375","midi_source":""},{"t":280.134,"note":67,"dur":0.14,"vel":1.0,"inst":"marimba_v0_bass_375","midi_source":""},{"t":280.134,"note":70,"dur":0.14,"vel":1.0,"inst":"banjo_v0_plucked_142","midi_source":""},{"t":280.274,"note":62,"dur":0.14,"vel":1.0,"inst":"banjo_v0_plucked_142","midi_source":""},{"t":280.274,"note":65,"dur":0.14,"vel":1.0,"inst":"marimba_v0_bass_375","midi_source":""},{"t":280.274,"note":67,"dur":0.14,"vel":1.0,"inst":"marimba_v0_bass_375","midi_source":""},{"t":280.274,"note":70,"dur":0.14,"vel":1.0,"inst":"banjo_v0_plucked_142","midi_source":""},{"t":280.414,"note":62,"dur":0.14,"vel":1.0,"inst":"banjo_v0_plucked_142","midi_source":""},{"t":280.414,"note":65,"dur":0.14,"vel":1.0,"inst":"marimba_v0_bass_375","midi_source":""},{"t":280.414,"note":67,"dur":0.14,"vel":1.0,"inst":"marimba_v0_bass_375","midi_source":""},{"t":280.414,"note":70,"dur":0.14,"vel":1.0,"inst":"banjo_v0_plucked_142","midi_source":""},{"t":280.414,"note":91,"dur":0.14,"vel":1.0,"inst":"marimba_v0_bass_375","midi_source":""},{"t":280.553,"note":48,"dur":0.14,"vel":1.0,"inst":"banjo_v0_plucked_142","midi_source":""},{"t":280.553,"note":60,"dur":0.14,"vel":1.0,"inst":"banjo_v0_plucked_142","midi_source":""},{"t":280.553,"note":87,"dur":0.28,"vel":1.0,"inst":"marimba_v0_bass_375","midi_source":""},{"t":280.693,"note":67,"dur":0.14,"vel":1.0,"inst":"marimba_v0_bass_375","midi_source":""},{"t":280.833,"note":72,"dur":0.14,"vel":1.0,"inst":"banjo_v0_plucked_142","midi_source":""},{"t":280.833,"note":75,"dur":0.14,"vel":1.0,"inst":"marimba_v0_bass_375","midi_source":""},{"t":280.833,"note":91,"dur":0.419,"vel":1.0,"inst":"marimba_v0_bass_375","midi_source":""},{"t":280.973,"note":67,"dur":0.14,"vel":1.0,"inst":"marimba_v0_bass_375","midi_source":""},{"t":281.113,"note":72,"dur":0.14,"vel":1.0,"inst":"banjo_v0_plucked_142","midi_source":""},{"t":281.113,"note":75,"dur":0.14,"vel":1.0,"inst":"marimba_v0_bass_375","midi_source":""},{"t":281.252,"note":67,"dur":0.14,"vel":1.0,"inst":"marimba_v0_bass_375","midi_source":""},{"t":281.252,"note":99,"dur":0.14,"vel":1.0,"inst":"marimba_v0_bass_375","midi_source":""},{"t":281.392,"note":72,"dur":0.14,"vel":1.0,"inst":"banjo_v0_plucked_142","midi_source":""},{"t":281.392,"note":75,"dur":0.14,"vel":1.0,"inst":"marimba_v0_bass_375","midi_source":""},{"t":281.392,"note":98,"dur":0.14,"vel":1.0,"inst":"banjo_v0_plucked_142","midi_source":""},{"t":281.532,"note":67,"dur":0.14,"vel":1.0,"inst":"marimba_v0_bass_375","midi_source":""},{"t":281.532,"note":96,"dur":0.14,"vel":1.0,"inst":"banjo_v0_plucked_142","midi_source":""},{"t":281.672,"note":48,"dur":0.14,"vel":1.0,"inst":"banjo_v0_plucked_142","midi_source":""},{"t":281.672,"note":60,"dur":0.14,"vel":1.0,"inst":"banjo_v0_plucked_142","midi_source":""},{"t":281.672,"note":96,"dur":0.28,"vel":1.0,"inst":"banjo_v0_plucked_142","midi_source":""},{"t":281.811,"note":67,"dur":0.14,"vel":1.0,"inst":"marimba_v0_bass_375","midi_source":""},{"t":281.951,"note":68,"dur":0.28,"vel":1.0,"inst":"banjo_v0_plucked_142","midi_source":""},{"t":281.951,"note":72,"dur":0.28,"vel":1.0,"inst":"banjo_v0_plucked_142","midi_source":""},{"t":281.951,"note":74,"dur":0.28,"vel":1.0,"inst":"banjo_v0_plucked_142","midi_source":""},{"t":281.951,"note":77,"dur":0.28,"vel":1.0,"inst":"marimba_v0_bass_375","midi_source":""},{"t":282.091,"note":84,"dur":0.07,"vel":1.0,"inst":"banjo_v0_plucked_142","midi_source":""},{"t":282.161,"note":86,"dur":0.07,"vel":1.0,"inst":"banjo_v0_plucked_142","midi_source":""},{"t":282.231,"note":50,"dur":0.28,"vel":1.0,"inst":"banjo_v0_plucked_142","midi_source":""},{"t":282.231,"note":62,"dur":0.28,"vel":1.0,"inst":"banjo_v0_plucked_142","midi_source":""},{"t":282.231,"note":87,"dur":0.14,"vel":1.0,"inst":"marimba_v0_bass_375","midi_source":""},{"t":282.37,"note":89,"dur":0.14,"vel":1.0,"inst":"marimba_v0_bass_375","midi_source":""},{"t":282.51,"note":68,"dur":0.28,"vel":1.0,"inst":"banjo_v0_plucked_142","midi_source":""},{"t":282.51,"note":72,"dur":0.28,"vel":1.0,"inst":"banjo_v0_plucked_142","midi_source":""},{"t":282.51,"note":74,"dur":0.28,"vel":1.0,"inst":"banjo_v0_plucked_142","midi_source":""},{"t":282.51,"note":77,"dur":0.28,"vel":1.0,"inst":"marimba_v0_bass_375","midi_source":""},{"t":282.51,"note":91,"dur":0.14,"vel":1.0,"inst":"marimba_v0_bass_375","midi_source":""},{"t":282.65,"note":92,"dur":0.14,"vel":1.0,"inst":"banjo_v0_plucked_142","midi_source":""},{"t":282.79,"note":55,"dur":0.28,"vel":1.0,"inst":"marimba_v0_bass_375","midi_source":""},{"t":282.79,"note":67,"dur":0.28,"vel":1.0,"inst":"marimba_v0_bass_375","midi_source":""},{"t":282.79,"note":84,"dur":0.28,"vel":1.0,"inst":"banjo_v0_plucked_142","midi_source":""},{"t":282.79,"note":89,"dur":0.28,"vel":1.0,"inst":"marimba_v0_bass_375","midi_source":""},{"t":282.79,"note":96,"dur":0.28,"vel":1.0,"inst":"banjo_v0_plucked_142","midi_source":""},{"t":283.069,"note":70,"dur":0.28,"vel":1.0,"inst":"banjo_v0_plucked_142","midi_source":""},{"t":283.069,"note":74,"dur":0.28,"vel":1.0,"inst":"banjo_v0_plucked_142","midi_source":""},{"t":283.069,"note":79,"dur":0.28,"vel":1.0,"inst":"marimba_v0_bass_375","midi_source":""},{"t":283.069,"note":82,"dur":0.419,"vel":1.0,"inst":"banjo_v0_plucked_142","midi_source":""},{"t":283.069,"note":91,"dur":0.419,"vel":1.0,"inst":"marimba_v0_bass_375","midi_source":""},{"t":283.069,"note":94,"dur":0.419,"vel":1.0,"inst":"banjo_v0_plucked_142","midi_source":""},{"t":283.349,"note":63,"dur":0.28,"vel":1.0,"inst":"marimba_v0_bass_375","midi_source":""},{"t":283.489,"note":94,"dur":0.14,"vel":1.0,"inst":"banjo_v0_plucked_142","midi_source":""},{"t":283.628,"note":70,"dur":0.28,"vel":1.0,"inst":"banjo_v0_plucked_142","midi_source":""},{"t":283.628,"note":74,"dur":0.28,"vel":1.0,"inst":"banjo_v0_plucked_142","midi_source":""},{"t":283.628,"note":79,"dur":0.28,"vel":1.0,"inst":"marimba_v0_bass_375","midi_source":""},{"t":283.628,"note":94,"dur":0.14,"vel":1.0,"inst":"banjo_v0_plucked_142","midi_source":""},{"t":283.768,"note":94,"dur":0.14,"vel":1.0,"inst":"banjo_v0_plucked_142","midi_source":""},{"t":283.908,"note":65,"dur":0.28,"vel":1.0,"inst":"marimba_v0_bass_375","midi_source":""},{"t":283.908,"note":94,"dur":0.28,"vel":1.0,"inst":"banjo_v0_plucked_142","midi_source":""},{"t":284.188,"note":72,"dur":0.28,"vel":1.0,"inst":"banjo_v0_plucked_142","midi_source":""},{"t":284.188,"note":75,"dur":0.28,"vel":1.0,"inst":"marimba_v0_bass_375","midi_source":""},{"t":284.188,"note":77,"dur":0.28,"vel":1.0,"inst":"marimba_v0_bass_375","midi_source":""},{"t":284.188,"note":94,"dur":0.419,"vel":1.0,"inst":"banjo_v0_plucked_142","midi_source":""},{"t":284.467,"note":58,"dur":0.28,"vel":1.0,"inst":"banjo_v0_plucked_142","midi_source":""},{"t":284.607,"note":92,"dur":0.14,"vel":1.0,"inst":"banjo_v0_plucked_142","midi_source":""},{"t":284.747,"note":70,"dur":0.28,"vel":1.0,"inst":"banjo_v0_plucked_142","midi_source":""},{"t":284.747,"note":75,"dur":0.28,"vel":1.0,"inst":"marimba_v0_bass_375","midi_source":""},{"t":284.747,"note":77,"dur":0.28,"vel":1.0,"inst":"marimba_v0_bass_375","midi_source":""},{"t":284.747,"note":92,"dur":0.14,"vel":1.0,"inst":"banjo_v0_plucked_142","midi_source":""},{"t":284.886,"note":92,"dur":0.14,"vel":1.0,"inst":"banjo_v0_plucked_142","midi_source":""},{"t":285.026,"note":63,"dur":0.28,"vel":1.0,"inst":"marimba_v0_bass_375","midi_source":""},{"t":285.026,"note":92,"dur":0.28,"vel":1.0,"inst":"banjo_v0_plucked_142","midi_source":""},{"t":285.306,"note":70,"dur":0.28,"vel":1.0,"inst":"banjo_v0_plucked_142","midi_source":""},{"t":285.306,"note":75,"dur":0.28,"vel":1.0,"inst":"marimba_v0_bass_375","midi_source":""},{"t":285.306,"note":92,"dur":0.419,"vel":1.0,"inst":"banjo_v0_plucked_142","midi_source":""},{"t":285.585,"note":58,"dur":0.28,"vel":1.0,"inst":"banjo_v0_plucked_142","midi_source":""},{"t":285.725,"note":91,"dur":0.14,"vel":1.0,"inst":"marimba_v0_bass_375","midi_source":""},{"t":285.865,"note":70,"dur":0.28,"vel":1.0,"inst":"banjo_v0_plucked_142","midi_source":""},{"t":285.865,"note":72,"dur":0.28,"vel":1.0,"inst":"banjo_v0_plucked_142","midi_source":""},{"t":285.865,"note":75,"dur":0.28,"vel":1.0,"inst":"marimba_v0_bass_375","midi_source":""},{"t":285.865,"note":91,"dur":0.14,"vel":1.0,"inst":"marimba_v0_bass_375","midi_source":""},{"t":286.005,"note":91,"dur":0.14,"vel":1.0,"inst":"marimba_v0_bass_375","midi_source":""},{"t":286.144,"note":58,"dur":0.28,"vel":1.0,"inst":"banjo_v0_plucked_142","midi_source":""},{"t":286.144,"note":62,"dur":0.28,"vel":1.0,"inst":"banjo_v0_plucked_142","midi_source":""},{"t":286.144,"note":91,"dur":0.14,"vel":1.0,"inst":"marimba_v0_bass_375","midi_source":""},{"t":286.284,"note":89,"dur":0.28,"vel":1.0,"inst":"marimba_v0_bass_375","midi_source":""},{"t":286.424,"note":60,"dur":0.28,"vel":1.0,"inst":"banjo_v0_plucked_142","midi_source":""},{"t":286.424,"note":63,"dur":0.28,"vel":1.0,"inst":"marimba_v0_bass_375","midi_source":""},{"t":286.564,"note":87,"dur":0.28,"vel":1.0,"inst":"marimba_v0_bass_375","midi_source":""},{"t":286.704,"note":62,"dur":0.28,"vel":1.0,"inst":"banjo_v0_plucked_142","midi_source":""},{"t":286.704,"note":65,"dur":0.28,"vel":1.0,"inst":"marimba_v0_bass_375","midi_source":""},{"t":286.843,"note":86,"dur":0.28,"vel":1.0,"inst":"banjo_v0_plucked_142","midi_source":""},{"t":286.983,"note":62,"dur":0.28,"vel":1.0,"inst":"banjo_v0_plucked_142","midi_source":""},{"t":286.983,"note":65,"dur":0.28,"vel":1.0,"inst":"marimba_v0_bass_375","midi_source":""},{"t":287.123,"note":84,"dur":0.14,"vel":1.0,"inst":"banjo_v0_plucked_142","midi_source":""},{"t":287.263,"note":63,"dur":0.14,"vel":1.0,"inst":"marimba_v0_bass_375","midi_source":""},{"t":287.263,"note":67,"dur":0.14,"vel":1.0,"inst":"marimba_v0_bass_375","midi_source":""},{"t":287.263,"note":84,"dur":0.559,"vel":1.0,"inst":"banjo_v0_plucked_142","midi_source":""},{"t":287.402,"note":63,"dur":0.14,"vel":1.0,"inst":"marimba_v0_bass_375","midi_source":""},{"t":287.402,"note":67,"dur":0.14,"vel":1.0,"inst":"marimba_v0_bass_375","midi_source":""},{"t":287.542,"note":63,"dur":0.14,"vel":1.0,"inst":"marimba_v0_bass_375","midi_source":""},{"t":287.542,"note":67,"dur":0.14,"vel":1.0,"inst":"marimba_v0_bass_375","midi_source":""},{"t":287.682,"note":63,"dur":0.14,"vel":1.0,"inst":"marimba_v0_bass_375","midi_source":""},{"t":287.682,"note":67,"dur":0.14,"vel":1.0,"inst":"marimba_v0_bass_375","midi_source":""},{"t":287.822,"note":63,"dur":0.14,"vel":1.0,"inst":"marimba_v0_bass_375","midi_source":""},{"t":287.822,"note":67,"dur":0.14,"vel":1.0,"inst":"marimba_v0_bass_375","midi_source":""},{"t":287.822,"note":91,"dur":0.419,"vel":1.0,"inst":"marimba_v0_bass_375","midi_source":""},{"t":287.962,"note":63,"dur":0.14,"vel":1.0,"inst":"marimba_v0_bass_375","midi_source":""},{"t":287.962,"note":67,"dur":0.14,"vel":1.0,"inst":"marimba_v0_bass_375","midi_source":""},{"t":288.101,"note":63,"dur":0.14,"vel":1.0,"inst":"marimba_v0_bass_375","midi_source":""},{"t":288.101,"note":67,"dur":0.14,"vel":1.0,"inst":"marimba_v0_bass_375","midi_source":""},{"t":288.241,"note":63,"dur":0.009,"vel":1.0,"inst":"marimba_v0_bass_375","midi_source":""},{"t":288.241,"note":67,"dur":0.009,"vel":1.0,"inst":"marimba_v0_bass_375","midi_source":""},{"t":288.241,"note":84,"dur":0.009,"vel":1.0,"inst":"banjo_v0_plucked_142","midi_source":""}]}