{"track_num":10,"title":"Moss","duration":298.25,"midi_sources":["Borodin/adl_Borodin.mid","Haydn/haydn_06.mid","Haydn/op33n4-03.mid"],"events":[{"t":0.004,"note":47,"dur":0.162,"vel":1.0,"inst":"tuba_v0_struck_284","midi_source":""},{"t":0.004,"note":50,"dur":0.162,"vel":1.0,"inst":"harp_v0_bowed_168","midi_source":""},{"t":0.004,"note":76,"dur":0.081,"vel":1.0,"inst":"harp_v0_bowed_168","midi_source":""},{"t":0.086,"note":74,"dur":0.081,"vel":1.0,"inst":"harp_v0_bowed_168","midi_source":""},{"t":0.167,"note":43,"dur":0.083,"vel":1.0,"inst":"tuba_v0_struck_284","midi_source":""},{"t":0.167,"note":47,"dur":0.083,"vel":1.0,"inst":"tuba_v0_struck_284","midi_source":""},{"t":0.167,"note":72,"dur":0.081,"vel":1.0,"inst":"harp_v0_bowed_168","midi_source":""},{"t":0.248,"note":71,"dur":0.002,"vel":1.0,"inst":"tuba_v0_struck_284","midi_source":""},{"t":0.271,"note":62,"dur":0.082,"vel":0.709,"inst":"cello_v0_additive_7","midi_source":""},{"t":0.353,"note":57,"dur":0.041,"vel":0.709,"inst":"pad_warm_v0_fm_94","midi_source":""},{"t":0.353,"note":62,"dur":0.082,"vel":0.709,"inst":"cello_v0_additive_7","midi_source":""},{"t":0.353,"note":66,"dur":0.041,"vel":0.709,"inst":"cello_v0_additive_7","midi_source":""},{"t":0.394,"note":59,"dur":0.041,"vel":0.709,"inst":"pad_warm_v0_fm_94","midi_source":""},{"t":0.394,"note":67,"dur":0.041,"vel":0.709,"inst":"pad_warm_v0_fm_94","midi_source":""},{"t":0.435,"note":60,"dur":0.163,"vel":0.709,"inst":"cello_v0_additive_7","midi_source":""},{"t":0.435,"note":62,"dur":0.082,"vel":0.709,"inst":"cello_v0_additive_7","midi_source":""},{"t":0.435,"note":69,"dur":0.163,"vel":0.709,"inst":"pad_warm_v0_fm_94","midi_source":""},{"t":0.516,"note":62,"dur":0.082,"vel":0.709,"inst":"cello_v0_additive_7","midi_source":""},{"t":0.598,"note":62,"dur":0.082,"vel":0.709,"inst":"cello_v0_additive_7","midi_source":""},{"t":0.68,"note":62,"dur":0.082,"vel":0.709,"inst":"cello_v0_additive_7","midi_source":""},{"t":0.761,"note":57,"dur":0.163,"vel":0.709,"inst":"pad_warm_v0_fm_94","midi_source":""},{"t":0.761,"note":62,"dur":0.082,"vel":0.709,"inst":"cello_v0_additive_7","midi_source":""},{"t":0.761,"note":66,"dur":0.163,"vel":0.709,"inst":"cello_v0_additive_7","midi_source":""},{"t":0.843,"note":62,"dur":0.082,"vel":0.709,"inst":"cello_v0_additive_7","midi_source":""},{"t":0.925,"note":62,"dur":0.082,"vel":0.709,"inst":"cello_v0_additive_7","midi_source":""},{"t":1.007,"note":62,"dur":0.082,"vel":0.709,"inst":"cello_v0_additive_7","midi_source":""},{"t":1.088,"note":55,"dur":0.245,"vel":0.709,"inst":"pad_warm_v0_fm_94","midi_source":""},{"t":1.088,"note":62,"dur":0.082,"vel":0.709,"inst":"cello_v0_additive_7","midi_source":""},{"t":1.088,"note":71,"dur":0.245,"vel":0.709,"inst":"pad_warm_v0_fm_94","midi_source":""},{"t":1.17,"note":62,"dur":0.082,"vel":0.709,"inst":"cello_v0_additive_7","midi_source":""},{"t":1.252,"note":62,"dur":0.082,"vel":0.709,"inst":"cello_v0_additive_7","midi_source":""},{"t":1.334,"note":54,"dur":0.041,"vel":0.709,"inst":"cello_v0_additive_7","midi_source":""},{"t":1.334,"note":62,"dur":0.082,"vel":0.709,"inst":"cello_v0_additive_7","midi_source":""},{"t":1.334,"note":69,"dur":0.041,"vel":0.709,"inst":"pad_warm_v0_fm_94","midi_source":""},{"t":1.374,"note":55,"dur":0.041,"vel":0.709,"inst":"pad_warm_v0_fm_94","midi_source":""},{"t":1.374,"note":71,"dur":0.041,"vel":0.709,"inst":"pad_warm_v0_fm_94","midi_source":""},{"t":1.415,"note":57,"dur":0.163,"vel":0.709,"inst":"pad_warm_v0_fm_94","midi_source":""},{"t":1.415,"note":62,"dur":0.082,"vel":0.709,"inst":"cello_v0_additive_7","midi_source":""},{"t":1.415,"note":72,"dur":0.163,"vel":0.709,"inst":"cello_v0_additive_7","midi_source":""},{"t":1.497,"note":62,"dur":0.082,"vel":0.709,"inst":"cello_v0_additive_7","midi_source":""},{"t":1.579,"note":62,"dur":0.082,"vel":0.709,"inst":"cello_v0_additive_7","midi_source":""},{"t":1.66,"note":62,"dur":0.082,"vel":0.709,"inst":"cello_v0_additive_7","midi_source":""},{"t":1.742,"note":54,"dur":0.163,"vel":0.709,"inst":"cello_v0_additive_7","midi_source":""},{"t":1.742,"note":62,"dur":0.082,"vel":0.709,"inst":"cello_v0_additive_7","midi_source":""},{"t":1.742,"note":69,"dur":0.163,"vel":0.709,"inst":"pad_warm_v0_fm_94","midi_source":""},{"t":1.824,"note":62,"dur":0.082,"vel":0.709,"inst":"cello_v0_additive_7","midi_source":""},{"t":1.906,"note":62,"dur":0.082,"vel":0.709,"inst":"cello_v0_additive_7","midi_source":""},{"t":1.987,"note":62,"dur":0.082,"vel":0.709,"inst":"cello_v0_additive_7","midi_source":""},{"t":2.069,"note":47,"dur":0.082,"vel":0.709,"inst":"pad_warm_v0_fm_94","midi_source":""},{"t":2.069,"note":55,"dur":0.082,"vel":0.709,"inst":"pad_warm_v0_fm_94","midi_source":""},{"t":2.069,"note":55,"dur":0.082,"vel":0.709,"inst":"pad_warm_v0_fm_94","midi_source":""},{"t":2.069,"note":74,"dur":0.245,"vel":0.709,"inst":"cello_v0_additive_7","midi_source":""},{"t":2.151,"note":47,"dur":0.082,"vel":0.709,"inst":"pad_warm_v0_fm_94","midi_source":""},{"t":2.151,"note":55,"dur":0.082,"vel":0.709,"inst":"pad_warm_v0_fm_94","midi_source":""},{"t":2.151,"note":55,"dur":0.082,"vel":0.709,"inst":"pad_warm_v0_fm_94","midi_source":""},{"t":2.233,"note":47,"dur":0.082,"vel":0.709,"inst":"pad_warm_v0_fm_94","midi_source":""},{"t":2.233,"note":55,"dur":0.082,"vel":0.709,"inst":"pad_warm_v0_fm_94","midi_source":""},{"t":2.233,"note":55,"dur":0.082,"vel":0.709,"inst":"pad_warm_v0_fm_94","midi_source":""},{"t":2.314,"note":47,"dur":0.082,"vel":0.709,"inst":"pad_warm_v0_fm_94","midi_source":""},{"t":2.314,"note":55,"dur":0.082,"vel":0.709,"inst":"pad_warm_v0_fm_94","midi_source":""},{"t":2.314,"note":55,"dur":0.082,"vel":0.709,"inst":"pad_warm_v0_fm_94","midi_source":""},{"t":2.314,"note":74,"dur":0.041,"vel":0.709,"inst":"cello_v0_additive_7","midi_source":""},{"t":2.355,"note":76,"dur":0.041,"vel":0.709,"inst":"cello_v0_additive_7","midi_source":""},{"t":2.396,"note":47,"dur":0.082,"vel":0.709,"inst":"pad_warm_v0_fm_94","midi_source":""},{"t":2.396,"note":55,"dur":0.082,"vel":0.709,"inst":"pad_warm_v0_fm_94","midi_source":""},{"t":2.396,"note":62,"dur":0.082,"vel":0.709,"inst":"cello_v0_additive_7","midi_source":""},{"t":2.396,"note":76,"dur":0.327,"vel":0.709,"inst":"cello_v0_additive_7","midi_source":""},{"t":2.478,"note":47,"dur":0.082,"vel":0.709,"inst":"pad_warm_v0_fm_94","midi_source":""},{"t":2.478,"note":55,"dur":0.082,"vel":0.709,"inst":"pad_warm_v0_fm_94","midi_source":""},{"t":2.478,"note":62,"dur":0.082,"vel":0.709,"inst":"cello_v0_additive_7","midi_source":""},{"t":2.559,"note":47,"dur":0.082,"vel":0.709,"inst":"pad_warm_v0_fm_94","midi_source":""},{"t":2.559,"note":55,"dur":0.082,"vel":0.709,"inst":"pad_warm_v0_fm_94","midi_source":""},{"t":2.559,"note":62,"dur":0.082,"vel":0.709,"inst":"cello_v0_additive_7","midi_source":""},{"t":2.641,"note":47,"dur":0.082,"vel":0.709,"inst":"pad_warm_v0_fm_94","midi_source":""},{"t":2.641,"note":55,"dur":0.082,"vel":0.709,"inst":"pad_warm_v0_fm_94","midi_source":""},{"t":2.641,"note":62,"dur":0.082,"vel":0.709,"inst":"cello_v0_additive_7","midi_source":""},{"t":2.723,"note":48,"dur":0.082,"vel":0.709,"inst":"cello_v0_additive_7","midi_source":""},{"t":2.723,"note":57,"dur":0.082,"vel":0.709,"inst":"pad_warm_v0_fm_94","midi_source":""},{"t":2.723,"note":60,"dur":0.082,"vel":0.709,"inst":"cello_v0_additive_7","midi_source":""},{"t":2.723,"note":76,"dur":0.041,"vel":0.709,"inst":"cello_v0_additive_7","midi_source":""},{"t":2.764,"note":72,"dur":0.041,"vel":0.709,"inst":"cello_v0_additive_7","midi_source":""},{"t":2.805,"note":48,"dur":0.082,"vel":0.709,"inst":"cello_v0_additive_7","midi_source":""},{"t":2.805,"note":57,"dur":0.082,"vel":0.709,"inst":"pad_warm_v0_fm_94","midi_source":""},{"t":2.805,"note":60,"dur":0.082,"vel":0.709,"inst":"cello_v0_additive_7","midi_source":""},{"t":2.805,"note":71,"dur":0.041,"vel":0.709,"inst":"pad_warm_v0_fm_94","midi_source":""},{"t":2.846,"note":69,"dur":0.041,"vel":0.709,"inst":"pad_warm_v0_fm_94","midi_source":""},{"t":2.886,"note":48,"dur":0.082,"vel":0.709,"inst":"cello_v0_additive_7","midi_source":""},{"t":2.886,"note":57,"dur":0.082,"vel":0.709,"inst":"pad_warm_v0_fm_94","midi_source":""},{"t":2.886,"note":60,"dur":0.082,"vel":0.709,"inst":"cello_v0_additive_7","midi_source":""},{"t":2.886,"note":67,"dur":0.041,"vel":0.709,"inst":"pad_warm_v0_fm_94","midi_source":""},{"t":2.927,"note":69,"dur":0.041,"vel":0.709,"inst":"pad_warm_v0_fm_94","midi_source":""},{"t":2.968,"note":48,"dur":0.082,"vel":0.709,"inst":"cello_v0_additive_7","midi_source":""},{"t":2.968,"note":57,"dur":0.082,"vel":0.709,"inst":"pad_warm_v0_fm_94","midi_source":""},{"t":2.968,"note":60,"dur":0.082,"vel":0.709,"inst":"cello_v0_additive_7","midi_source":""},{"t":2.968,"note":72,"dur":0.041,"vel":0.709,"inst":"cello_v0_additive_7","midi_source":""},{"t":3.009,"note":69,"dur":0.041,"vel":0.709,"inst":"pad_warm_v0_fm_94","midi_source":""},{"t":3.05,"note":50,"dur":0.082,"vel":0.709,"inst":"cello_v0_additive_7","midi_source":""},{"t":3.05,"note":55,"dur":0.082,"vel":0.709,"inst":"pad_warm_v0_fm_94","midi_source":""},{"t":3.05,"note":59,"dur":0.082,"vel":0.709,"inst":"pad_warm_v0_fm_94","midi_source":""},{"t":3.05,"note":67,"dur":0.041,"vel":0.709,"inst":"pad_warm_v0_fm_94","midi_source":""},{"t":3.091,"note":69,"dur":0.041,"vel":0.709,"inst":"pad_warm_v0_fm_94","midi_source":""},{"t":3.132,"note":50,"dur":0.082,"vel":0.709,"inst":"cello_v0_additive_7","midi_source":""},{"t":3.132,"note":55,"dur":0.082,"vel":0.709,"inst":"pad_warm_v0_fm_94","midi_source":""},{"t":3.132,"note":59,"dur":0.082,"vel":0.709,"inst":"pad_warm_v0_fm_94","midi_source":""},{"t":3.132,"note":71,"dur":0.041,"vel":0.709,"inst":"pad_warm_v0_fm_94","midi_source":""},{"t":3.172,"note":72,"dur":0.041,"vel":0.709,"inst":"cello_v0_additive_7","midi_source":""},{"t":3.213,"note":50,"dur":0.082,"vel":0.709,"inst":"cello_v0_additive_7","midi_source":""},{"t":3.213,"note":55,"dur":0.082,"vel":0.709,"inst":"pad_warm_v0_fm_94","midi_source":""},{"t":3.213,"note":59,"dur":0.082,"vel":0.709,"inst":"pad_warm_v0_fm_94","midi_source":""},{"t":3.213,"note":74,"dur":0.041,"vel":0.709,"inst":"cello_v0_additive_7","midi_source":""},{"t":3.254,"note":76,"dur":0.041,"vel":0.709,"inst":"cello_v0_additive_7","midi_source":""},{"t":3.295,"note":50,"dur":0.082,"vel":0.709,"inst":"cello_v0_additive_7","midi_source":""},{"t":3.295,"note":55,"dur":0.082,"vel":0.709,"inst":"pad_warm_v0_fm_94","midi_source":""},{"t":3.295,"note":59,"dur":0.082,"vel":0.709,"inst":"pad_warm_v0_fm_94","midi_source":""},{"t":3.295,"note":74,"dur":0.041,"vel":0.709,"inst":"cello_v0_additive_7","midi_source":""},{"t":3.336,"note":76,"dur":0.041,"vel":0.709,"inst":"cello_v0_additive_7","midi_source":""},{"t":3.377,"note":50,"dur":0.163,"vel":0.709,"inst":"cello_v0_additive_7","midi_source":""},{"t":3.377,"note":55,"dur":0.163,"vel":0.709,"inst":"pad_warm_v0_fm_94","midi_source":""},{"t":3.377,"note":59,"dur":0.163,"vel":0.709,"inst":"pad_warm_v0_fm_94","midi_source":""},{"t":3.377,"note":74,"dur":0.163,"vel":0.709,"inst":"cello_v0_additive_7","midi_source":""},{"t":3.704,"note":50,"dur":0.163,"vel":0.709,"inst":"cello_v0_additive_7","midi_source":""},{"t":3.704,"note":57,"dur":0.163,"vel":0.709,"inst":"pad_warm_v0_fm_94","midi_source":""},{"t":3.704,"note":60,"dur":0.163,"vel":0.709,"inst":"cello_v0_additive_7","midi_source":""},{"t":3.704,"note":66,"dur":0.163,"vel":0.709,"inst":"cello_v0_additive_7","midi_source":""},{"t":4.031,"note":59,"dur":0.245,"vel":0.709,"inst":"pad_warm_v0_fm_94","midi_source":""},{"t":4.031,"note":62,"dur":0.082,"vel":0.709,"inst":"cello_v0_additive_7","midi_source":""},{"t":4.031,"note":67,"dur":0.245,"vel":0.709,"inst":"pad_warm_v0_fm_94","midi_source":""},{"t":4.112,"note":62,"dur":0.082,"vel":0.709,"inst":"cello_v0_additive_7","midi_source":""},{"t":4.194,"note":62,"dur":0.082,"vel":0.709,"inst":"cello_v0_additive_7","midi_source":""},{"t":4.276,"note":57,"dur":0.041,"vel":0.709,"inst":"pad_warm_v0_fm_94","midi_source":""},{"t":4.276,"note":62,"dur":0.082,"vel":0.709,"inst":"cello_v0_additive_7","midi_source":""},{"t":4.276,"note":66,"dur":0.041,"vel":0.709,"inst":"cello_v0_additive_7","midi_source":""},{"t":4.317,"note":59,"dur":0.041,"vel":0.709,"inst":"pad_warm_v0_fm_94","midi_source":""},{"t":4.317,"note":67,"dur":0.041,"vel":0.709,"inst":"pad_warm_v0_fm_94","midi_source":""},{"t":4.357,"note":60,"dur":0.163,"vel":0.709,"inst":"cello_v0_additive_7","midi_source":""},{"t":4.357,"note":62,"dur":0.082,"vel":0.709,"inst":"cello_v0_additive_7","midi_source":""},{"t":4.357,"note":69,"dur":0.163,"vel":0.709,"inst":"pad_warm_v0_fm_94","midi_source":""},{"t":4.439,"note":62,"dur":0.082,"vel":0.709,"inst":"cello_v0_additive_7","midi_source":""},{"t":4.521,"note":62,"dur":0.082,"vel":0.709,"inst":"cello_v0_additive_7","midi_source":""},{"t":4.603,"note":62,"dur":0.082,"vel":0.709,"inst":"cello_v0_additive_7","midi_source":""},{"t":4.684,"note":57,"dur":0.163,"vel":0.709,"inst":"pad_warm_v0_fm_94","midi_source":""},{"t":4.684,"note":62,"dur":0.082,"vel":0.709,"inst":"cello_v0_additive_7","midi_source":""},{"t":4.684,"note":66,"dur":0.163,"vel":0.709,"inst":"cello_v0_additive_7","midi_source":""},{"t":4.766,"note":62,"dur":0.082,"vel":0.709,"inst":"cello_v0_additive_7","midi_source":""},{"t":4.848,"note":62,"dur":0.082,"vel":0.709,"inst":"cello_v0_additive_7","midi_source":""},{"t":4.93,"note":62,"dur":0.082,"vel":0.709,"inst":"cello_v0_additive_7","midi_source":""},{"t":5.011,"note":55,"dur":0.245,"vel":0.709,"inst":"pad_warm_v0_fm_94","midi_source":""},{"t":5.011,"note":62,"dur":0.082,"vel":0.709,"inst":"cello_v0_additive_7","midi_source":""},{"t":5.011,"note":69,"dur":0.245,"vel":0.709,"inst":"pad_warm_v0_fm_94","midi_source":""},{"t":5.093,"note":62,"dur":0.082,"vel":0.709,"inst":"cello_v0_additive_7","midi_source":""},{"t":5.175,"note":62,"dur":0.082,"vel":0.709,"inst":"cello_v0_additive_7","midi_source":""},{"t":5.257,"note":54,"dur":0.041,"vel":0.709,"inst":"cello_v0_additive_7","midi_source":""},{"t":5.257,"note":62,"dur":0.082,"vel":0.709,"inst":"cello_v0_additive_7","midi_source":""},{"t":5.257,"note":69,"dur":0.041,"vel":0.709,"inst":"pad_warm_v0_fm_94","midi_source":""},{"t":5.297,"note":55,"dur":0.041,"vel":0.709,"inst":"pad_warm_v0_fm_94","midi_source":""},{"t":5.297,"note":69,"dur":0.041,"vel":0.709,"inst":"pad_warm_v0_fm_94","midi_source":""},{"t":5.338,"note":57,"dur":0.163,"vel":0.709,"inst":"pad_warm_v0_fm_94","midi_source":""},{"t":5.338,"note":62,"dur":0.082,"vel":0.709,"inst":"cello_v0_additive_7","midi_source":""},{"t":5.338,"note":72,"dur":0.163,"vel":0.709,"inst":"cello_v0_additive_7","midi_source":""},{"t":5.42,"note":62,"dur":0.082,"vel":0.709,"inst":"cello_v0_additive_7","midi_source":""},{"t":5.502,"note":62,"dur":0.082,"vel":0.709,"inst":"cello_v0_additive_7","midi_source":""},{"t":5.583,"note":62,"dur":0.082,"vel":0.709,"inst":"cello_v0_additive_7","midi_source":""},{"t":5.665,"note":54,"dur":0.163,"vel":0.709,"inst":"cello_v0_additive_7","midi_source":""},{"t":5.665,"note":62,"dur":0.082,"vel":0.709,"inst":"cello_v0_additive_7","midi_source":""},{"t":5.665,"note":69,"dur":0.163,"vel":0.709,"inst":"pad_warm_v0_fm_94","midi_source":""},{"t":5.747,"note":62,"dur":0.082,"vel":0.709,"inst":"cello_v0_additive_7","midi_source":""},{"t":5.829,"note":62,"dur":0.082,"vel":0.709,"inst":"cello_v0_additive_7","midi_source":""},{"t":5.91,"note":62,"dur":0.082,"vel":0.709,"inst":"cello_v0_additive_7","midi_source":""},{"t":5.992,"note":55,"dur":0.082,"vel":0.709,"inst":"pad_warm_v0_fm_94","midi_source":""},{"t":5.992,"note":57,"dur":0.082,"vel":0.709,"inst":"pad_warm_v0_fm_94","midi_source":""},{"t":5.992,"note":69,"dur":0.245,"vel":0.709,"inst":"pad_warm_v0_fm_94","midi_source":""},{"t":5.992,"note":74,"dur":0.245,"vel":0.709,"inst":"cello_v0_additive_7","midi_source":""},{"t":6.074,"note":55,"dur":0.082,"vel":0.709,"inst":"pad_warm_v0_fm_94","midi_source":""},{"t":6.074,"note":57,"dur":0.082,"vel":0.709,"inst":"pad_warm_v0_fm_94","midi_source":""},{"t":6.156,"note":55,"dur":0.082,"vel":0.709,"inst":"pad_warm_v0_fm_94","midi_source":""},{"t":6.156,"note":57,"dur":0.082,"vel":0.709,"inst":"pad_warm_v0_fm_94","midi_source":""},{"t":6.237,"note":55,"dur":0.082,"vel":0.709,"inst":"pad_warm_v0_fm_94","midi_source":""},{"t":6.237,"note":57,"dur":0.082,"vel":0.709,"inst":"pad_warm_v0_fm_94","midi_source":""},{"t":6.237,"note":69,"dur":0.041,"vel":0.709,"inst":"pad_warm_v0_fm_94","midi_source":""},{"t":6.237,"note":72,"dur":0.041,"vel":0.709,"inst":"cello_v0_additive_7","midi_source":""},{"t":6.278,"note":69,"dur":0.041,"vel":0.709,"inst":"pad_warm_v0_fm_94","midi_source":""},{"t":6.278,"note":74,"dur":0.041,"vel":0.709,"inst":"cello_v0_additive_7","midi_source":""},{"t":6.319,"note":48,"dur":0.082,"vel":0.709,"inst":"cello_v0_additive_7","midi_source":""},{"t":6.319,"note":55,"dur":0.082,"vel":0.709,"inst":"pad_warm_v0_fm_94","midi_source":""},{"t":6.319,"note":72,"dur":0.327,"vel":0.709,"inst":"cello_v0_additive_7","midi_source":""},{"t":6.319,"note":74,"dur":0.327,"vel":0.709,"inst":"cello_v0_additive_7","midi_source":""},{"t":6.401,"note":48,"dur":0.082,"vel":0.709,"inst":"cello_v0_additive_7","midi_source":""},{"t":6.401,"note":55,"dur":0.082,"vel":0.709,"inst":"pad_warm_v0_fm_94","midi_source":""},{"t":6.482,"note":48,"dur":0.082,"vel":0.709,"inst":"cello_v0_additive_7","midi_source":""},{"t":6.482,"note":55,"dur":0.082,"vel":0.709,"inst":"pad_warm_v0_fm_94","midi_source":""},{"t":6.564,"note":48,"dur":0.082,"vel":0.709,"inst":"cello_v0_additive_7","midi_source":""},{"t":6.564,"note":55,"dur":0.082,"vel":0.709,"inst":"pad_warm_v0_fm_94","midi_source":""},{"t":6.646,"note":52,"dur":0.082,"vel":0.709,"inst":"cello_v0_additive_7","midi_source":""},{"t":6.646,"note":57,"dur":0.082,"vel":0.709,"inst":"pad_warm_v0_fm_94","midi_source":""},{"t":6.646,"note":62,"dur":0.163,"vel":0.709,"inst":"cello_v0_additive_7","midi_source":""},{"t":6.646,"note":72,"dur":0.163,"vel":0.709,"inst":"cello_v0_additive_7","midi_source":""},{"t":6.728,"note":52,"dur":0.082,"vel":0.709,"inst":"cello_v0_additive_7","midi_source":""},{"t":6.728,"note":57,"dur":0.082,"vel":0.709,"inst":"pad_warm_v0_fm_94","midi_source":""},{"t":6.809,"note":52,"dur":0.082,"vel":0.709,"inst":"cello_v0_additive_7","midi_source":""},{"t":6.809,"note":57,"dur":0.082,"vel":0.709,"inst":"pad_warm_v0_fm_94","midi_source":""},{"t":6.809,"note":60,"dur":0.163,"vel":0.709,"inst":"cello_v0_additive_7","midi_source":""},{"t":6.809,"note":69,"dur":0.163,"vel":0.709,"inst":"pad_warm_v0_fm_94","midi_source":""},{"t":6.891,"note":52,"dur":0.082,"vel":0.709,"inst":"cello_v0_additive_7","midi_source":""},{"t":6.891,"note":57,"dur":0.082,"vel":0.709,"inst":"pad_warm_v0_fm_94","midi_source":""},{"t":6.973,"note":50,"dur":0.082,"vel":0.709,"inst":"cello_v0_additive_7","midi_source":""},{"t":6.973,"note":57,"dur":0.49,"vel":0.709,"inst":"pad_warm_v0_fm_94","midi_source":""},{"t":6.973,"note":57,"dur":0.082,"vel":0.709,"inst":"pad_warm_v0_fm_94","midi_source":""},{"t":6.973,"note":76,"dur":0.245,"vel":0.709,"inst":"cello_v0_additive_7","midi_source":""},{"t":7.055,"note":50,"dur":0.082,"vel":0.709,"inst":"cello_v0_additive_7","midi_source":""},{"t":7.055,"note":57,"dur":0.082,"vel":0.709,"inst":"pad_warm_v0_fm_94","midi_source":""},{"t":7.136,"note":50,"dur":0.082,"vel":0.709,"inst":"cello_v0_additive_7","midi_source":""},{"t":7.136,"note":57,"dur":0.082,"vel":0.709,"inst":"pad_warm_v0_fm_94","midi_source":""},{"t":7.218,"note":50,"dur":0.082,"vel":0.709,"inst":"cello_v0_additive_7","midi_source":""},{"t":7.218,"note":57,"dur":0.082,"vel":0.709,"inst":"pad_warm_v0_fm_94","midi_source":""},{"t":7.218,"note":74,"dur":0.041,"vel":0.709,"inst":"cello_v0_additive_7","midi_source":""},{"t":7.259,"note":76,"dur":0.041,"vel":0.709,"inst":"cello_v0_additive_7","midi_source":""},{"t":7.3,"note":50,"dur":0.082,"vel":0.709,"inst":"cello_v0_additive_7","midi_source":""},{"t":7.3,"note":55,"dur":0.082,"vel":0.709,"inst":"pad_warm_v0_fm_94","midi_source":""},{"t":7.3,"note":79,"dur":0.163,"vel":0.709,"inst":"pad_warm_v0_fm_94","midi_source":""},{"t":7.381,"note":50,"dur":0.082,"vel":0.709,"inst":"cello_v0_additive_7","midi_source":""},{"t":7.381,"note":55,"dur":0.082,"vel":0.709,"inst":"pad_warm_v0_fm_94","midi_source":""},{"t":7.463,"note":50,"dur":0.082,"vel":0.709,"inst":"cello_v0_additive_7","midi_source":""},{"t":7.463,"note":55,"dur":0.082,"vel":0.709,"inst":"pad_warm_v0_fm_94","midi_source":""},{"t":7.463,"note":67,"dur":0.163,"vel":0.709,"inst":"pad_warm_v0_fm_94","midi_source":""},{"t":7.463,"note":74,"dur":0.163,"vel":0.709,"inst":"cello_v0_additive_7","midi_source":""},{"t":7.545,"note":50,"dur":0.082,"vel":0.709,"inst":"cello_v0_additive_7","midi_source":""},{"t":7.545,"note":55,"dur":0.082,"vel":0.709,"inst":"pad_warm_v0_fm_94","midi_source":""},{"t":7.627,"note":52,"dur":0.082,"vel":0.709,"inst":"cello_v0_additive_7","midi_source":""},{"t":7.627,"note":57,"dur":0.082,"vel":0.709,"inst":"pad_warm_v0_fm_94","midi_source":""},{"t":7.627,"note":62,"dur":0.163,"vel":0.709,"inst":"cello_v0_additive_7","midi_source":""},{"t":7.627,"note":72,"dur":0.163,"vel":0.709,"inst":"cello_v0_additive_7","midi_source":""},{"t":7.708,"note":52,"dur":0.082,"vel":0.709,"inst":"cello_v0_additive_7","midi_source":""},{"t":7.708,"note":57,"dur":0.082,"vel":0.709,"inst":"pad_warm_v0_fm_94","midi_source":""},{"t":7.79,"note":52,"dur":0.082,"vel":0.709,"inst":"cello_v0_additive_7","midi_source":""},{"t":7.79,"note":60,"dur":0.163,"vel":0.709,"inst":"cello_v0_additive_7","midi_source":""},{"t":7.79,"note":60,"dur":0.082,"vel":0.709,"inst":"cello_v0_additive_7","midi_source":""},{"t":7.79,"note":69,"dur":0.163,"vel":0.709,"inst":"pad_warm_v0_fm_94","midi_source":""},{"t":7.872,"note":52,"dur":0.082,"vel":0.709,"inst":"cello_v0_additive_7","midi_source":""},{"t":7.872,"note":60,"dur":0.082,"vel":0.709,"inst":"cello_v0_additive_7","midi_source":""},{"t":7.954,"note":45,"dur":0.082,"vel":0.709,"inst":"pad_warm_v0_fm_94","midi_source":""},{"t":7.954,"note":57,"dur":0.327,"vel":0.709,"inst":"pad_warm_v0_fm_94","midi_source":""},{"t":7.954,"note":62,"dur":0.654,"vel":0.709,"inst":"cello_v0_additive_7","midi_source":""},{"t":7.954,"note":69,"dur":0.654,"vel":0.709,"inst":"pad_warm_v0_fm_94","midi_source":""},{"t":8.035,"note":48,"dur":0.082,"vel":0.709,"inst":"cello_v0_additive_7","midi_source":""},{"t":8.117,"note":45,"dur":0.082,"vel":0.709,"inst":"pad_warm_v0_fm_94","midi_source":""},{"t":8.199,"note":45,"dur":0.082,"vel":0.709,"inst":"pad_warm_v0_fm_94","midi_source":""},{"t":8.28,"note":45,"dur":0.082,"vel":0.709,"inst":"pad_warm_v0_fm_94","midi_source":""},{"t":8.28,"note":52,"dur":0.327,"vel":0.709,"inst":"cello_v0_additive_7","midi_source":""},{"t":8.362,"note":48,"dur":0.082,"vel":0.709,"inst":"cello_v0_additive_7","midi_source":""},{"t":8.444,"note":45,"dur":0.082,"vel":0.709,"inst":"pad_warm_v0_fm_94","midi_source":""},{"t":8.526,"note":45,"dur":0.082,"vel":0.709,"inst":"pad_warm_v0_fm_94","midi_source":""},{"t":8.607,"note":45,"dur":0.082,"vel":0.709,"inst":"pad_warm_v0_fm_94","midi_source":""},{"t":8.607,"note":52,"dur":0.327,"vel":0.709,"inst":"cello_v0_additive_7","midi_source":""},{"t":8.607,"note":62,"dur":0.327,"vel":0.709,"inst":"cello_v0_additive_7","midi_source":""},{"t":8.607,"note":67,"dur":0.327,"vel":0.709,"inst":"pad_warm_v0_fm_94","midi_source":""},{"t":8.689,"note":45,"dur":0.082,"vel":0.709,"inst":"pad_warm_v0_fm_94","midi_source":""},{"t":8.771,"note":45,"dur":0.082,"vel":0.709,"inst":"pad_warm_v0_fm_94","midi_source":""},{"t":8.853,"note":47,"dur":0.082,"vel":0.709,"inst":"pad_warm_v0_fm_94","midi_source":""},{"t":8.934,"note":48,"dur":0.082,"vel":0.709,"inst":"cello_v0_additive_7","midi_source":""},{"t":8.934,"note":50,"dur":0.654,"vel":0.709,"inst":"cello_v0_additive_7","midi_source":""},{"t":8.934,"note":62,"dur":0.654,"vel":0.709,"inst":"cello_v0_additive_7","midi_source":""},{"t":8.934,"note":67,"dur":0.654,"vel":0.709,"inst":"pad_warm_v0_fm_94","midi_source":""},{"t":9.016,"note":50,"dur":0.082,"vel":0.709,"inst":"cello_v0_additive_7","midi_source":""},{"t":9.098,"note":48,"dur":0.082,"vel":0.709,"inst":"cello_v0_additive_7","midi_source":""},{"t":9.179,"note":47,"dur":0.082,"vel":0.709,"inst":"pad_warm_v0_fm_94","midi_source":""},{"t":9.261,"note":48,"dur":0.082,"vel":0.709,"inst":"cello_v0_additive_7","midi_source":""},{"t":9.343,"note":50,"dur":0.082,"vel":0.709,"inst":"cello_v0_additive_7","midi_source":""},{"t":9.425,"note":48,"dur":0.082,"vel":0.709,"inst":"cello_v0_additive_7","midi_source":""},{"t":9.506,"note":47,"dur":0.082,"vel":0.709,"inst":"pad_warm_v0_fm_94","midi_source":""},{"t":9.588,"note":48,"dur":0.082,"vel":0.709,"inst":"cello_v0_additive_7","midi_source":""},{"t":9.588,"note":55,"dur":0.327,"vel":0.709,"inst":"pad_warm_v0_fm_94","midi_source":""},{"t":9.588,"note":64,"dur":0.327,"vel":0.709,"inst":"cello_v0_additive_7","midi_source":""},{"t":9.588,"note":69,"dur":0.327,"vel":0.709,"inst":"pad_warm_v0_fm_94","midi_source":""},{"t":9.67,"note":47,"dur":0.082,"vel":0.709,"inst":"pad_warm_v0_fm_94","midi_source":""},{"t":9.752,"note":48,"dur":0.082,"vel":0.709,"inst":"cello_v0_additive_7","midi_source":""},{"t":9.833,"note":48,"dur":0.082,"vel":0.709,"inst":"cello_v0_additive_7","midi_source":""},{"t":9.915,"note":50,"dur":0.082,"vel":0.709,"inst":"cello_v0_additive_7","midi_source":""},{"t":9.915,"note":54,"dur":0.327,"vel":0.709,"inst":"cello_v0_additive_7","midi_source":""},{"t":9.915,"note":66,"dur":0.327,"vel":0.709,"inst":"cello_v0_additive_7","midi_source":""},{"t":9.915,"note":69,"dur":0.327,"vel":0.709,"inst":"pad_warm_v0_fm_94","midi_source":""},{"t":9.997,"note":50,"dur":0.082,"vel":0.709,"inst":"cello_v0_additive_7","midi_source":""},{"t":10.078,"note":62,"dur":0.082,"vel":0.709,"inst":"cello_v0_additive_7","midi_source":""},{"t":10.16,"note":57,"dur":0.041,"vel":0.709,"inst":"pad_warm_v0_fm_94","midi_source":""},{"t":10.16,"note":62,"dur":0.082,"vel":0.709,"inst":"cello_v0_additive_7","midi_source":""},{"t":10.16,"note":66,"dur":0.041,"vel":0.709,"inst":"cello_v0_additive_7","midi_source":""},{"t":10.201,"note":59,"dur":0.041,"vel":0.709,"inst":"pad_warm_v0_fm_94","midi_source":""},{"t":10.201,"note":67,"dur":0.041,"vel":0.709,"inst":"pad_warm_v0_fm_94","midi_source":""},{"t":10.242,"note":60,"dur":0.163,"vel":0.709,"inst":"cello_v0_additive_7","midi_source":""},{"t":10.242,"note":62,"dur":0.082,"vel":0.709,"inst":"cello_v0_additive_7","midi_source":""},{"t":10.242,"note":69,"dur":0.163,"vel":0.709,"inst":"pad_warm_v0_fm_94","midi_source":""},{"t":10.324,"note":62,"dur":0.082,"vel":0.709,"inst":"cello_v0_additive_7","midi_source":""},{"t":10.405,"note":62,"dur":0.082,"vel":0.709,"inst":"cello_v0_additive_7","midi_source":""},{"t":10.487,"note":62,"dur":0.082,"vel":0.709,"inst":"cello_v0_additive_7","midi_source":""},{"t":10.569,"note":57,"dur":0.163,"vel":0.709,"inst":"pad_warm_v0_fm_94","midi_source":""},{"t":10.569,"note":62,"dur":0.082,"vel":0.709,"inst":"cello_v0_additive_7","midi_source":""},{"t":10.569,"note":66,"dur":0.163,"vel":0.709,"inst":"cello_v0_additive_7","midi_source":""},{"t":10.651,"note":62,"dur":0.082,"vel":0.709,"inst":"cello_v0_additive_7","midi_source":""},{"t":10.732,"note":62,"dur":0.082,"vel":0.709,"inst":"cello_v0_additive_7","midi_source":""},{"t":10.814,"note":62,"dur":0.082,"vel":0.709,"inst":"cello_v0_additive_7","midi_source":""},{"t":10.896,"note":55,"dur":0.245,"vel":0.709,"inst":"pad_warm_v0_fm_94","midi_source":""},{"t":10.896,"note":62,"dur":0.082,"vel":0.709,"inst":"cello_v0_additive_7","midi_source":""},{"t":10.896,"note":71,"dur":0.245,"vel":0.709,"inst":"pad_warm_v0_fm_94","midi_source":""},{"t":10.978,"note":62,"dur":0.082,"vel":0.709,"inst":"cello_v0_additive_7","midi_source":""},{"t":11.059,"note":62,"dur":0.082,"vel":0.709,"inst":"cello_v0_additive_7","midi_source":""},{"t":11.141,"note":54,"dur":0.041,"vel":0.709,"inst":"cello_v0_additive_7","midi_source":""},{"t":11.141,"note":62,"dur":0.082,"vel":0.709,"inst":"cello_v0_additive_7","midi_source":""},{"t":11.141,"note":69,"dur":0.041,"vel":0.709,"inst":"pad_warm_v0_fm_94","midi_source":""},{"t":11.182,"note":55,"dur":0.041,"vel":0.709,"inst":"pad_warm_v0_fm_94","midi_source":""},{"t":11.182,"note":71,"dur":0.041,"vel":0.709,"inst":"pad_warm_v0_fm_94","midi_source":""},{"t":11.223,"note":57,"dur":0.163,"vel":0.709,"inst":"pad_warm_v0_fm_94","midi_source":""},{"t":11.223,"note":62,"dur":0.082,"vel":0.709,"inst":"cello_v0_additive_7","midi_source":""},{"t":11.223,"note":72,"dur":0.163,"vel":0.709,"inst":"cello_v0_additive_7","midi_source":""},{"t":11.304,"note":62,"dur":0.082,"vel":0.709,"inst":"cello_v0_additive_7","midi_source":""},{"t":11.386,"note":62,"dur":0.082,"vel":0.709,"inst":"cello_v0_additive_7","midi_source":""},{"t":11.468,"note":62,"dur":0.082,"vel":0.709,"inst":"cello_v0_additive_7","midi_source":""},{"t":11.55,"note":54,"dur":0.163,"vel":0.709,"inst":"cello_v0_additive_7","midi_source":""},{"t":11.55,"note":62,"dur":0.082,"vel":0.709,"inst":"cello_v0_additive_7","midi_source":""},{"t":11.55,"note":69,"dur":0.163,"vel":0.709,"inst":"pad_warm_v0_fm_94","midi_source":""},{"t":11.631,"note":62,"dur":0.082,"vel":0.709,"inst":"cello_v0_additive_7","midi_source":""},{"t":11.713,"note":62,"dur":0.082,"vel":0.709,"inst":"cello_v0_additive_7","midi_source":""},{"t":11.795,"note":62,"dur":0.082,"vel":0.709,"inst":"cello_v0_additive_7","midi_source":""},{"t":11.877,"note":47,"dur":0.082,"vel":0.709,"inst":"pad_warm_v0_fm_94","midi_source":""},{"t":11.877,"note":55,"dur":0.082,"vel":0.709,"inst":"pad_warm_v0_fm_94","midi_source":""},{"t":11.877,"note":55,"dur":0.082,"vel":0.709,"inst":"pad_warm_v0_fm_94","midi_source":""},{"t":11.877,"note":74,"dur":0.245,"vel":0.709,"inst":"cello_v0_additive_7","midi_source":""},{"t":11.958,"note":47,"dur":0.082,"vel":0.709,"inst":"pad_warm_v0_fm_94","midi_source":""},{"t":11.958,"note":55,"dur":0.082,"vel":0.709,"inst":"pad_warm_v0_fm_94","midi_source":""},{"t":11.958,"note":55,"dur":0.082,"vel":0.709,"inst":"pad_warm_v0_fm_94","midi_source":""},{"t":12.04,"note":47,"dur":0.082,"vel":0.709,"inst":"pad_warm_v0_fm_94","midi_source":""},{"t":12.04,"note":55,"dur":0.082,"vel":0.709,"inst":"pad_warm_v0_fm_94","midi_source":""},{"t":12.04,"note":55,"dur":0.082,"vel":0.709,"inst":"pad_warm_v0_fm_94","midi_source":""},{"t":12.122,"note":47,"dur":0.082,"vel":0.709,"inst":"pad_warm_v0_fm_94","midi_source":""},{"t":12.122,"note":55,"dur":0.082,"vel":0.709,"inst":"pad_warm_v0_fm_94","midi_source":""},{"t":12.122,"note":55,"dur":0.082,"vel":0.709,"inst":"pad_warm_v0_fm_94","midi_source":""},{"t":12.122,"note":74,"dur":0.041,"vel":0.709,"inst":"cello_v0_additive_7","midi_source":""},{"t":12.163,"note":76,"dur":0.041,"vel":0.709,"inst":"cello_v0_additive_7","midi_source":""},{"t":12.203,"note":47,"dur":0.082,"vel":0.709,"inst":"pad_warm_v0_fm_94","midi_source":""},{"t":12.203,"note":55,"dur":0.082,"vel":0.709,"inst":"pad_warm_v0_fm_94","midi_source":""},{"t":12.203,"note":62,"dur":0.082,"vel":0.709,"inst":"cello_v0_additive_7","midi_source":""},{"t":12.203,"note":76,"dur":0.327,"vel":0.709,"inst":"cello_v0_additive_7","midi_source":""},{"t":12.285,"note":47,"dur":0.082,"vel":0.709,"inst":"pad_warm_v0_fm_94","midi_source":""},{"t":12.285,"note":55,"dur":0.082,"vel":0.709,"inst":"pad_warm_v0_fm_94","midi_source":""},{"t":12.285,"note":62,"dur":0.082,"vel":0.709,"inst":"cello_v0_additive_7","midi_source":""},{"t":12.367,"note":47,"dur":0.082,"vel":0.709,"inst":"pad_warm_v0_fm_94","midi_source":""},{"t":12.367,"note":55,"dur":0.082,"vel":0.709,"inst":"pad_warm_v0_fm_94","midi_source":""},{"t":12.367,"note":62,"dur":0.082,"vel":0.709,"inst":"cello_v0_additive_7","midi_source":""},{"t":12.449,"note":47,"dur":0.082,"vel":0.709,"inst":"pad_warm_v0_fm_94","midi_source":""},{"t":12.449,"note":55,"dur":0.082,"vel":0.709,"inst":"pad_warm_v0_fm_94","midi_source":""},{"t":12.449,"note":62,"dur":0.082,"vel":0.709,"inst":"cello_v0_additive_7","midi_source":""},{"t":12.53,"note":48,"dur":0.082,"vel":0.709,"inst":"cello_v0_additive_7","midi_source":""},{"t":12.53,"note":57,"dur":0.082,"vel":0.709,"inst":"pad_warm_v0_fm_94","midi_source":""},{"t":12.53,"note":60,"dur":0.082,"vel":0.709,"inst":"cello_v0_additive_7","midi_source":""},{"t":12.53,"note":76,"dur":0.041,"vel":0.709,"inst":"cello_v0_additive_7","midi_source":""},{"t":12.571,"note":72,"dur":0.041,"vel":0.709,"inst":"cello_v0_additive_7","midi_source":""},{"t":12.612,"note":48,"dur":0.082,"vel":0.709,"inst":"cello_v0_additive_7","midi_source":""},{"t":12.612,"note":57,"dur":0.082,"vel":0.709,"inst":"pad_warm_v0_fm_94","midi_source":""},{"t":12.612,"note":60,"dur":0.082,"vel":0.709,"inst":"cello_v0_additive_7","midi_source":""},{"t":12.612,"note":71,"dur":0.041,"vel":0.709,"inst":"pad_warm_v0_fm_94","midi_source":""},{"t":12.653,"note":69,"dur":0.041,"vel":0.709,"inst":"pad_warm_v0_fm_94","midi_source":""},{"t":12.694,"note":48,"dur":0.082,"vel":0.709,"inst":"cello_v0_additive_7","midi_source":""},{"t":12.694,"note":57,"dur":0.082,"vel":0.709,"inst":"pad_warm_v0_fm_94","midi_source":""},{"t":12.694,"note":60,"dur":0.082,"vel":0.709,"inst":"cello_v0_additive_7","midi_source":""},{"t":12.694,"note":67,"dur":0.041,"vel":0.709,"inst":"pad_warm_v0_fm_94","midi_source":""},{"t":12.735,"note":69,"dur":0.041,"vel":0.709,"inst":"pad_warm_v0_fm_94","midi_source":""},{"t":12.776,"note":48,"dur":0.082,"vel":0.709,"inst":"cello_v0_additive_7","midi_source":""},{"t":12.776,"note":57,"dur":0.082,"vel":0.709,"inst":"pad_warm_v0_fm_94","midi_source":""},{"t":12.776,"note":60,"dur":0.082,"vel":0.709,"inst":"cello_v0_additive_7","midi_source":""},{"t":12.776,"note":72,"dur":0.041,"vel":0.709,"inst":"cello_v0_additive_7","midi_source":""},{"t":12.816,"note":69,"dur":0.041,"vel":0.709,"inst":"pad_warm_v0_fm_94","midi_source":""},{"t":12.857,"note":50,"dur":0.082,"vel":0.709,"inst":"cello_v0_additive_7","midi_source":""},{"t":12.857,"note":55,"dur":0.082,"vel":0.709,"inst":"pad_warm_v0_fm_94","midi_source":""},{"t":12.857,"note":59,"dur":0.082,"vel":0.709,"inst":"pad_warm_v0_fm_94","midi_source":""},{"t":12.857,"note":67,"dur":0.041,"vel":0.709,"inst":"pad_warm_v0_fm_94","midi_source":""},{"t":12.898,"note":69,"dur":0.041,"vel":0.709,"inst":"pad_warm_v0_fm_94","midi_source":""},{"t":12.939,"note":50,"dur":0.082,"vel":0.709,"inst":"cello_v0_additive_7","midi_source":""},{"t":12.939,"note":55,"dur":0.082,"vel":0.709,"inst":"pad_warm_v0_fm_94","midi_source":""},{"t":12.939,"note":59,"dur":0.082,"vel":0.709,"inst":"pad_warm_v0_fm_94","midi_source":""},{"t":12.939,"note":71,"dur":0.041,"vel":0.709,"inst":"pad_warm_v0_fm_94","midi_source":""},{"t":12.98,"note":72,"dur":0.041,"vel":0.709,"inst":"cello_v0_additive_7","midi_source":""},{"t":13.021,"note":50,"dur":0.082,"vel":0.709,"inst":"cello_v0_additive_7","midi_source":""},{"t":13.021,"note":55,"dur":0.082,"vel":0.709,"inst":"pad_warm_v0_fm_94","midi_source":""},{"t":13.021,"note":59,"dur":0.082,"vel":0.709,"inst":"pad_warm_v0_fm_94","midi_source":""},{"t":13.021,"note":74,"dur":0.041,"vel":0.709,"inst":"cello_v0_additive_7","midi_source":""},{"t":13.062,"note":76,"dur":0.041,"vel":0.709,"inst":"cello_v0_additive_7","midi_source":""},{"t":13.102,"note":50,"dur":0.082,"vel":0.709,"inst":"cello_v0_additive_7","midi_source":""},{"t":13.102,"note":55,"dur":0.082,"vel":0.709,"inst":"pad_warm_v0_fm_94","midi_source":""},{"t":13.102,"note":59,"dur":0.082,"vel":0.709,"inst":"pad_warm_v0_fm_94","midi_source":""},{"t":13.102,"note":74,"dur":0.041,"vel":0.709,"inst":"cello_v0_additive_7","midi_source":""},{"t":13.143,"note":76,"dur":0.041,"vel":0.709,"inst":"cello_v0_additive_7","midi_source":""},{"t":13.184,"note":50,"dur":0.163,"vel":0.709,"inst":"cello_v0_additive_7","midi_source":""},{"t":13.184,"note":55,"dur":0.163,"vel":0.709,"inst":"pad_warm_v0_fm_94","midi_source":""},{"t":13.184,"note":59,"dur":0.163,"vel":0.709,"inst":"pad_warm_v0_fm_94","midi_source":""},{"t":13.184,"note":74,"dur":0.163,"vel":0.709,"inst":"cello_v0_additive_7","midi_source":""},{"t":13.511,"note":50,"dur":0.163,"vel":0.709,"inst":"cello_v0_additive_7","midi_source":""},{"t":13.511,"note":57,"dur":0.163,"vel":0.709,"inst":"pad_warm_v0_fm_94","midi_source":""},{"t":13.511,"note":60,"dur":0.163,"vel":0.709,"inst":"cello_v0_additive_7","midi_source":""},{"t":13.511,"note":66,"dur":0.163,"vel":0.709,"inst":"cello_v0_additive_7","midi_source":""},{"t":13.838,"note":59,"dur":0.245,"vel":0.709,"inst":"pad_warm_v0_fm_94","midi_source":""},{"t":13.838,"note":62,"dur":0.082,"vel":0.709,"inst":"cello_v0_additive_7","midi_source":""},{"t":13.838,"note":67,"dur":0.245,"vel":0.709,"inst":"pad_warm_v0_fm_94","midi_source":""},{"t":13.92,"note":62,"dur":0.082,"vel":0.709,"inst":"cello_v0_additive_7","midi_source":""},{"t":14.001,"note":62,"dur":0.082,"vel":0.709,"inst":"cello_v0_additive_7","midi_source":""},{"t":14.083,"note":57,"dur":0.041,"vel":0.709,"inst":"pad_warm_v0_fm_94","midi_source":""},{"t":14.083,"note":62,"dur":0.082,"vel":0.709,"inst":"cello_v0_additive_7","midi_source":""},{"t":14.083,"note":66,"dur":0.041,"vel":0.709,"inst":"cello_v0_additive_7","midi_source":""},{"t":14.124,"note":59,"dur":0.041,"vel":0.709,"inst":"pad_warm_v0_fm_94","midi_source":""},{"t":14.124,"note":67,"dur":0.041,"vel":0.709,"inst":"pad_warm_v0_fm_94","midi_source":""},{"t":14.165,"note":60,"dur":0.163,"vel":0.709,"inst":"cello_v0_additive_7","midi_source":""},{"t":14.165,"note":62,"dur":0.082,"vel":0.709,"inst":"cello_v0_additive_7","midi_source":""},{"t":14.165,"note":69,"dur":0.163,"vel":0.709,"inst":"pad_warm_v0_fm_94","midi_source":""},{"t":14.247,"note":62,"dur":0.082,"vel":0.709,"inst":"cello_v0_additive_7","midi_source":""},{"t":14.328,"note":62,"dur":0.082,"vel":0.709,"inst":"cello_v0_additive_7","midi_source":""},{"t":14.41,"note":62,"dur":0.082,"vel":0.709,"inst":"cello_v0_additive_7","midi_source":""},{"t":14.492,"note":57,"dur":0.163,"vel":0.709,"inst":"pad_warm_v0_fm_94","midi_source":""},{"t":14.492,"note":62,"dur":0.082,"vel":0.709,"inst":"cello_v0_additive_7","midi_source":""},{"t":14.492,"note":66,"dur":0.163,"vel":0.709,"inst":"cello_v0_additive_7","midi_source":""},{"t":14.574,"note":62,"dur":0.082,"vel":0.709,"inst":"cello_v0_additive_7","midi_source":""},{"t":14.655,"note":62,"dur":0.082,"vel":0.709,"inst":"cello_v0_additive_7","midi_source":""},{"t":14.737,"note":62,"dur":0.082,"vel":0.709,"inst":"cello_v0_additive_7","midi_source":""},{"t":14.819,"note":55,"dur":0.245,"vel":0.709,"inst":"pad_warm_v0_fm_94","midi_source":""},{"t":14.819,"note":62,"dur":0.082,"vel":0.709,"inst":"cello_v0_additive_7","midi_source":""},{"t":14.819,"note":69,"dur":0.245,"vel":0.709,"inst":"pad_warm_v0_fm_94","midi_source":""},{"t":14.9,"note":62,"dur":0.082,"vel":0.709,"inst":"cello_v0_additive_7","midi_source":""},{"t":14.982,"note":62,"dur":0.082,"vel":0.709,"inst":"cello_v0_additive_7","midi_source":""},{"t":15.064,"note":54,"dur":0.041,"vel":0.709,"inst":"cello_v0_additive_7","midi_source":""},{"t":15.064,"note":62,"dur":0.082,"vel":0.709,"inst":"cello_v0_additive_7","midi_source":""},{"t":15.064,"note":69,"dur":0.041,"vel":0.709,"inst":"pad_warm_v0_fm_94","midi_source":""},{"t":15.105,"note":55,"dur":0.041,"vel":0.709,"inst":"pad_warm_v0_fm_94","midi_source":""},{"t":15.105,"note":69,"dur":0.041,"vel":0.709,"inst":"pad_warm_v0_fm_94","midi_source":""},{"t":15.146,"note":57,"dur":0.163,"vel":0.709,"inst":"pad_warm_v0_fm_94","midi_source":""},{"t":15.146,"note":62,"dur":0.082,"vel":0.709,"inst":"cello_v0_additive_7","midi_source":""},{"t":15.146,"note":72,"dur":0.163,"vel":0.709,"inst":"cello_v0_additive_7","midi_source":""},{"t":15.227,"note":62,"dur":0.082,"vel":0.709,"inst":"cello_v0_additive_7","midi_source":""},{"t":15.309,"note":62,"dur":0.082,"vel":0.709,"inst":"cello_v0_additive_7","midi_source":""},{"t":15.391,"note":62,"dur":0.082,"vel":0.709,"inst":"cello_v0_additive_7","midi_source":""},{"t":15.473,"note":54,"dur":0.163,"vel":0.709,"inst":"cello_v0_additive_7","midi_source":""},{"t":15.473,"note":62,"dur":0.082,"vel":0.709,"inst":"cello_v0_additive_7","midi_source":""},{"t":15.473,"note":69,"dur":0.163,"vel":0.709,"inst":"pad_warm_v0_fm_94","midi_source":""},{"t":15.554,"note":62,"dur":0.082,"vel":0.709,"inst":"cello_v0_additive_7","midi_source":""},{"t":15.636,"note":62,"dur":0.082,"vel":0.709,"inst":"cello_v0_additive_7","midi_source":""},{"t":15.718,"note":62,"dur":0.082,"vel":0.709,"inst":"cello_v0_additive_7","midi_source":""},{"t":15.799,"note":55,"dur":0.082,"vel":0.709,"inst":"pad_warm_v0_fm_94","midi_source":""},{"t":15.799,"note":57,"dur":0.082,"vel":0.709,"inst":"pad_warm_v0_fm_94","midi_source":""},{"t":15.799,"note":69,"dur":0.245,"vel":0.709,"inst":"pad_warm_v0_fm_94","midi_source":""},{"t":15.799,"note":74,"dur":0.245,"vel":0.709,"inst":"cello_v0_additive_7","midi_source":""},{"t":15.881,"note":55,"dur":0.082,"vel":0.709,"inst":"pad_warm_v0_fm_94","midi_source":""},{"t":15.881,"note":57,"dur":0.082,"vel":0.709,"inst":"pad_warm_v0_fm_94","midi_source":""},{"t":15.963,"note":55,"dur":0.082,"vel":0.709,"inst":"pad_warm_v0_fm_94","midi_source":""},{"t":15.963,"note":57,"dur":0.082,"vel":0.709,"inst":"pad_warm_v0_fm_94","midi_source":""},{"t":16.045,"note":55,"dur":0.082,"vel":0.709,"inst":"pad_warm_v0_fm_94","midi_source":""},{"t":16.045,"note":57,"dur":0.082,"vel":0.709,"inst":"pad_warm_v0_fm_94","midi_source":""},{"t":16.045,"note":69,"dur":0.041,"vel":0.709,"inst":"pad_warm_v0_fm_94","midi_source":""},{"t":16.045,"note":72,"dur":0.041,"vel":0.709,"inst":"cello_v0_additive_7","midi_source":""},{"t":16.086,"note":69,"dur":0.041,"vel":0.709,"inst":"pad_warm_v0_fm_94","midi_source":""},{"t":16.086,"note":74,"dur":0.041,"vel":0.709,"inst":"cello_v0_additive_7","midi_source":""},{"t":16.126,"note":48,"dur":0.082,"vel":0.709,"inst":"cello_v0_additive_7","midi_source":""},{"t":16.126,"note":55,"dur":0.082,"vel":0.709,"inst":"pad_warm_v0_fm_94","midi_source":""},{"t":16.126,"note":72,"dur":0.327,"vel":0.709,"inst":"cello_v0_additive_7","midi_source":""},{"t":16.126,"note":74,"dur":0.327,"vel":0.709,"inst":"cello_v0_additive_7","midi_source":""},{"t":16.208,"note":48,"dur":0.082,"vel":0.709,"inst":"cello_v0_additive_7","midi_source":""},{"t":16.208,"note":55,"dur":0.082,"vel":0.709,"inst":"pad_warm_v0_fm_94","midi_source":""},{"t":16.29,"note":48,"dur":0.082,"vel":0.709,"inst":"cello_v0_additive_7","midi_source":""},{"t":16.29,"note":55,"dur":0.082,"vel":0.709,"inst":"pad_warm_v0_fm_94","midi_source":""},{"t":16.372,"note":48,"dur":0.082,"vel":0.709,"inst":"cello_v0_additive_7","midi_source":""},{"t":16.372,"note":55,"dur":0.082,"vel":0.709,"inst":"pad_warm_v0_fm_94","midi_source":""},{"t":16.453,"note":52,"dur":0.082,"vel":0.709,"inst":"cello_v0_additive_7","midi_source":""},{"t":16.453,"note":57,"dur":0.082,"vel":0.709,"inst":"pad_warm_v0_fm_94","midi_source":""},{"t":16.453,"note":62,"dur":0.163,"vel":0.709,"inst":"cello_v0_additive_7","midi_source":""},{"t":16.453,"note":72,"dur":0.163,"vel":0.709,"inst":"cello_v0_additive_7","midi_source":""},{"t":16.535,"note":52,"dur":0.082,"vel":0.709,"inst":"cello_v0_additive_7","midi_source":""},{"t":16.535,"note":57,"dur":0.082,"vel":0.709,"inst":"pad_warm_v0_fm_94","midi_source":""},{"t":16.617,"note":52,"dur":0.082,"vel":0.709,"inst":"cello_v0_additive_7","midi_source":""},{"t":16.617,"note":57,"dur":0.082,"vel":0.709,"inst":"pad_warm_v0_fm_94","midi_source":""},{"t":16.617,"note":60,"dur":0.163,"vel":0.709,"inst":"cello_v0_additive_7","midi_source":""},{"t":16.617,"note":69,"dur":0.163,"vel":0.709,"inst":"pad_warm_v0_fm_94","midi_source":""},{"t":16.699,"note":52,"dur":0.082,"vel":0.709,"inst":"cello_v0_additive_7","midi_source":""},{"t":16.699,"note":57,"dur":0.082,"vel":0.709,"inst":"pad_warm_v0_fm_94","midi_source":""},{"t":16.78,"note":50,"dur":0.082,"vel":0.709,"inst":"cello_v0_additive_7","midi_source":""},{"t":16.78,"note":57,"dur":0.49,"vel":0.709,"inst":"pad_warm_v0_fm_94","midi_source":""},{"t":16.78,"note":57,"dur":0.082,"vel":0.709,"inst":"pad_warm_v0_fm_94","midi_source":""},{"t":16.78,"note":76,"dur":0.245,"vel":0.709,"inst":"cello_v0_additive_7","midi_source":""},{"t":16.862,"note":50,"dur":0.082,"vel":0.709,"inst":"cello_v0_additive_7","midi_source":""},{"t":16.862,"note":57,"dur":0.082,"vel":0.709,"inst":"pad_warm_v0_fm_94","midi_source":""},{"t":16.944,"note":50,"dur":0.082,"vel":0.709,"inst":"cello_v0_additive_7","midi_source":""},{"t":16.944,"note":57,"dur":0.082,"vel":0.709,"inst":"pad_warm_v0_fm_94","midi_source":""},{"t":17.025,"note":50,"dur":0.082,"vel":0.709,"inst":"cello_v0_additive_7","midi_source":""},{"t":17.025,"note":57,"dur":0.082,"vel":0.709,"inst":"pad_warm_v0_fm_94","midi_source":""},{"t":17.025,"note":74,"dur":0.041,"vel":0.709,"inst":"cello_v0_additive_7","midi_source":""},{"t":17.066,"note":76,"dur":0.041,"vel":0.709,"inst":"cello_v0_additive_7","midi_source":""},{"t":17.107,"note":50,"dur":0.082,"vel":0.709,"inst":"cello_v0_additive_7","midi_source":""},{"t":17.107,"note":55,"dur":0.082,"vel":0.709,"inst":"pad_warm_v0_fm_94","midi_source":""},{"t":17.107,"note":79,"dur":0.163,"vel":0.709,"inst":"pad_warm_v0_fm_94","midi_source":""},{"t":17.189,"note":50,"dur":0.082,"vel":0.709,"inst":"cello_v0_additive_7","midi_source":""},{"t":17.189,"note":55,"dur":0.082,"vel":0.709,"inst":"pad_warm_v0_fm_94","midi_source":""},{"t":17.271,"note":50,"dur":0.082,"vel":0.709,"inst":"cello_v0_additive_7","midi_source":""},{"t":17.271,"note":55,"dur":0.082,"vel":0.709,"inst":"pad_warm_v0_fm_94","midi_source":""},{"t":17.271,"note":67,"dur":0.163,"vel":0.709,"inst":"pad_warm_v0_fm_94","midi_source":""},{"t":17.271,"note":74,"dur":0.163,"vel":0.709,"inst":"cello_v0_additive_7","midi_source":""},{"t":17.352,"note":50,"dur":0.082,"vel":0.709,"inst":"cello_v0_additive_7","midi_source":""},{"t":17.352,"note":55,"dur":0.082,"vel":0.709,"inst":"pad_warm_v0_fm_94","midi_source":""},{"t":17.434,"note":52,"dur":0.082,"vel":0.709,"inst":"cello_v0_additive_7","midi_source":""},{"t":17.434,"note":57,"dur":0.082,"vel":0.709,"inst":"pad_warm_v0_fm_94","midi_source":""},{"t":17.434,"note":62,"dur":0.163,"vel":0.709,"inst":"cello_v0_additive_7","midi_source":""},{"t":17.434,"note":72,"dur":0.163,"vel":0.709,"inst":"cello_v0_additive_7","midi_source":""},{"t":17.516,"note":52,"dur":0.082,"vel":0.709,"inst":"cello_v0_additive_7","midi_source":""},{"t":17.516,"note":57,"dur":0.082,"vel":0.709,"inst":"pad_warm_v0_fm_94","midi_source":""},{"t":17.598,"note":52,"dur":0.082,"vel":0.709,"inst":"cello_v0_additive_7","midi_source":""},{"t":17.598,"note":60,"dur":0.163,"vel":0.709,"inst":"cello_v0_additive_7","midi_source":""},{"t":17.598,"note":60,"dur":0.082,"vel":0.709,"inst":"cello_v0_additive_7","midi_source":""},{"t":17.598,"note":69,"dur":0.163,"vel":0.709,"inst":"pad_warm_v0_fm_94","midi_source":""},{"t":17.679,"note":52,"dur":0.082,"vel":0.709,"inst":"cello_v0_additive_7","midi_source":""},{"t":17.679,"note":60,"dur":0.082,"vel":0.709,"inst":"cello_v0_additive_7","midi_source":""},{"t":17.761,"note":45,"dur":0.082,"vel":0.709,"inst":"pad_warm_v0_fm_94","midi_source":""},{"t":17.761,"note":57,"dur":0.327,"vel":0.709,"inst":"pad_warm_v0_fm_94","midi_source":""},{"t":17.761,"note":62,"dur":0.654,"vel":0.709,"inst":"cello_v0_additive_7","midi_source":""},{"t":17.761,"note":69,"dur":0.654,"vel":0.709,"inst":"pad_warm_v0_fm_94","midi_source":""},{"t":17.843,"note":48,"dur":0.082,"vel":0.709,"inst":"cello_v0_additive_7","midi_source":""},{"t":17.924,"note":45,"dur":0.082,"vel":0.709,"inst":"pad_warm_v0_fm_94","midi_source":""},{"t":18.006,"note":45,"dur":0.082,"vel":0.709,"inst":"pad_warm_v0_fm_94","midi_source":""},{"t":18.088,"note":45,"dur":0.082,"vel":0.709,"inst":"pad_warm_v0_fm_94","midi_source":""},{"t":18.088,"note":52,"dur":0.327,"vel":0.709,"inst":"cello_v0_additive_7","midi_source":""},{"t":18.17,"note":48,"dur":0.082,"vel":0.709,"inst":"cello_v0_additive_7","midi_source":""},{"t":18.251,"note":45,"dur":0.082,"vel":0.709,"inst":"pad_warm_v0_fm_94","midi_source":""},{"t":18.333,"note":45,"dur":0.082,"vel":0.709,"inst":"pad_warm_v0_fm_94","midi_source":""},{"t":18.415,"note":45,"dur":0.082,"vel":0.709,"inst":"pad_warm_v0_fm_94","midi_source":""},{"t":18.415,"note":52,"dur":0.327,"vel":0.709,"inst":"cello_v0_additive_7","midi_source":""},{"t":18.415,"note":62,"dur":0.327,"vel":0.709,"inst":"cello_v0_additive_7","midi_source":""},{"t":18.415,"note":67,"dur":0.327,"vel":0.709,"inst":"pad_warm_v0_fm_94","midi_source":""},{"t":18.497,"note":45,"dur":0.082,"vel":0.709,"inst":"pad_warm_v0_fm_94","midi_source":""},{"t":18.578,"note":45,"dur":0.082,"vel":0.709,"inst":"pad_warm_v0_fm_94","midi_source":""},{"t":18.66,"note":47,"dur":0.082,"vel":0.709,"inst":"pad_warm_v0_fm_94","midi_source":""},{"t":18.742,"note":48,"dur":0.082,"vel":0.709,"inst":"cello_v0_additive_7","midi_source":""},{"t":18.742,"note":50,"dur":0.654,"vel":0.709,"inst":"cello_v0_additive_7","midi_source":""},{"t":18.742,"note":62,"dur":0.654,"vel":0.709,"inst":"cello_v0_additive_7","midi_source":""},{"t":18.742,"note":67,"dur":0.654,"vel":0.709,"inst":"pad_warm_v0_fm_94","midi_source":""},{"t":18.823,"note":50,"dur":0.082,"vel":0.709,"inst":"cello_v0_additive_7","midi_source":""},{"t":18.905,"note":48,"dur":0.082,"vel":0.709,"inst":"cello_v0_additive_7","midi_source":""},{"t":18.987,"note":47,"dur":0.082,"vel":0.709,"inst":"pad_warm_v0_fm_94","midi_source":""},{"t":19.069,"note":48,"dur":0.082,"vel":0.709,"inst":"cello_v0_additive_7","midi_source":""},{"t":19.15,"note":50,"dur":0.082,"vel":0.709,"inst":"cello_v0_additive_7","midi_source":""},{"t":19.232,"note":48,"dur":0.082,"vel":0.709,"inst":"cello_v0_additive_7","midi_source":""},{"t":19.314,"note":47,"dur":0.082,"vel":0.709,"inst":"pad_warm_v0_fm_94","midi_source":""},{"t":19.396,"note":48,"dur":0.082,"vel":0.709,"inst":"cello_v0_additive_7","midi_source":""},{"t":19.396,"note":55,"dur":0.327,"vel":0.709,"inst":"pad_warm_v0_fm_94","midi_source":""},{"t":19.396,"note":64,"dur":0.327,"vel":0.709,"inst":"cello_v0_additive_7","midi_source":""},{"t":19.396,"note":69,"dur":0.327,"vel":0.709,"inst":"pad_warm_v0_fm_94","midi_source":""},{"t":19.477,"note":47,"dur":0.082,"vel":0.709,"inst":"pad_warm_v0_fm_94","midi_source":""},{"t":19.559,"note":48,"dur":0.082,"vel":0.709,"inst":"cello_v0_additive_7","midi_source":""},{"t":19.641,"note":48,"dur":0.082,"vel":0.709,"inst":"cello_v0_additive_7","midi_source":""},{"t":19.722,"note":50,"dur":0.082,"vel":0.709,"inst":"cello_v0_additive_7","midi_source":""},{"t":19.722,"note":54,"dur":0.327,"vel":0.709,"inst":"cello_v0_additive_7","midi_source":""},{"t":19.722,"note":66,"dur":0.327,"vel":0.709,"inst":"cello_v0_additive_7","midi_source":""},{"t":19.722,"note":69,"dur":0.327,"vel":0.709,"inst":"pad_warm_v0_fm_94","midi_source":""},{"t":19.804,"note":50,"dur":0.082,"vel":0.709,"inst":"cello_v0_additive_7","midi_source":""},{"t":19.886,"note":62,"dur":0.082,"vel":0.709,"inst":"cello_v0_additive_7","midi_source":""},{"t":19.968,"note":57,"dur":0.041,"vel":0.709,"inst":"pad_warm_v0_fm_94","midi_source":""},{"t":19.968,"note":62,"dur":0.082,"vel":0.709,"inst":"cello_v0_additive_7","midi_source":""},{"t":19.968,"note":66,"dur":0.041,"vel":0.709,"inst":"cello_v0_additive_7","midi_source":""},{"t":20.009,"note":59,"dur":0.041,"vel":0.709,"inst":"pad_warm_v0_fm_94","midi_source":""},{"t":20.009,"note":67,"dur":0.041,"vel":0.709,"inst":"pad_warm_v0_fm_94","midi_source":""},{"t":20.049,"note":60,"dur":0.163,"vel":0.709,"inst":"cello_v0_additive_7","midi_source":""},{"t":20.049,"note":62,"dur":0.082,"vel":0.709,"inst":"cello_v0_additive_7","midi_source":""},{"t":20.049,"note":69,"dur":0.163,"vel":0.709,"inst":"pad_warm_v0_fm_94","midi_source":""},{"t":20.131,"note":62,"dur":0.082,"vel":0.709,"inst":"cello_v0_additive_7","midi_source":""},{"t":20.213,"note":62,"dur":0.082,"vel":0.709,"inst":"cello_v0_additive_7","midi_source":""},{"t":20.295,"note":62,"dur":0.082,"vel":0.709,"inst":"cello_v0_additive_7","midi_source":""},{"t":20.376,"note":57,"dur":0.163,"vel":0.709,"inst":"pad_warm_v0_fm_94","midi_source":""},{"t":20.376,"note":62,"dur":0.082,"vel":0.709,"inst":"cello_v0_additive_7","midi_source":""},{"t":20.376,"note":66,"dur":0.163,"vel":0.709,"inst":"cello_v0_additive_7","midi_source":""},{"t":20.458,"note":62,"dur":0.082,"vel":0.709,"inst":"cello_v0_additive_7","midi_source":""},{"t":20.54,"note":62,"dur":0.082,"vel":0.709,"inst":"cello_v0_additive_7","midi_source":""},{"t":20.621,"note":62,"dur":0.082,"vel":0.709,"inst":"cello_v0_additive_7","midi_source":""},{"t":20.703,"note":55,"dur":0.245,"vel":0.709,"inst":"pad_warm_v0_fm_94","midi_source":""},{"t":20.703,"note":62,"dur":0.082,"vel":0.709,"inst":"cello_v0_additive_7","midi_source":""},{"t":20.703,"note":71,"dur":0.245,"vel":0.709,"inst":"pad_warm_v0_fm_94","midi_source":""},{"t":20.785,"note":62,"dur":0.082,"vel":0.709,"inst":"cello_v0_additive_7","midi_source":""},{"t":20.867,"note":62,"dur":0.082,"vel":0.709,"inst":"cello_v0_additive_7","midi_source":""},{"t":20.948,"note":54,"dur":0.041,"vel":0.709,"inst":"cello_v0_additive_7","midi_source":""},{"t":20.948,"note":62,"dur":0.082,"vel":0.709,"inst":"cello_v0_additive_7","midi_source":""},{"t":20.948,"note":69,"dur":0.041,"vel":0.709,"inst":"pad_warm_v0_fm_94","midi_source":""},{"t":20.989,"note":55,"dur":0.041,"vel":0.709,"inst":"pad_warm_v0_fm_94","midi_source":""},{"t":20.989,"note":71,"dur":0.041,"vel":0.709,"inst":"pad_warm_v0_fm_94","midi_source":""},{"t":21.03,"note":57,"dur":0.163,"vel":0.709,"inst":"pad_warm_v0_fm_94","midi_source":""},{"t":21.03,"note":62,"dur":0.082,"vel":0.709,"inst":"cello_v0_additive_7","midi_source":""},{"t":21.03,"note":72,"dur":0.163,"vel":0.709,"inst":"cello_v0_additive_7","midi_source":""},{"t":21.112,"note":62,"dur":0.082,"vel":0.709,"inst":"cello_v0_additive_7","midi_source":""},{"t":21.194,"note":62,"dur":0.082,"vel":0.709,"inst":"cello_v0_additive_7","midi_source":""},{"t":21.275,"note":62,"dur":0.082,"vel":0.709,"inst":"cello_v0_additive_7","midi_source":""},{"t":21.357,"note":54,"dur":0.163,"vel":0.709,"inst":"cello_v0_additive_7","midi_source":""},{"t":21.357,"note":62,"dur":0.082,"vel":0.709,"inst":"cello_v0_additive_7","midi_source":""},{"t":21.357,"note":69,"dur":0.163,"vel":0.709,"inst":"pad_warm_v0_fm_94","midi_source":""},{"t":21.439,"note":62,"dur":0.082,"vel":0.709,"inst":"cello_v0_additive_7","midi_source":""},{"t":21.52,"note":62,"dur":0.082,"vel":0.709,"inst":"cello_v0_additive_7","midi_source":""},{"t":21.602,"note":62,"dur":0.082,"vel":0.709,"inst":"cello_v0_additive_7","midi_source":""},{"t":21.684,"note":47,"dur":0.082,"vel":0.709,"inst":"pad_warm_v0_fm_94","midi_source":""},{"t":21.684,"note":55,"dur":0.082,"vel":0.709,"inst":"pad_warm_v0_fm_94","midi_source":""},{"t":21.684,"note":55,"dur":0.082,"vel":0.709,"inst":"pad_warm_v0_fm_94","midi_source":""},{"t":21.684,"note":74,"dur":0.245,"vel":0.709,"inst":"cello_v0_additive_7","midi_source":""},{"t":21.766,"note":47,"dur":0.082,"vel":0.709,"inst":"pad_warm_v0_fm_94","midi_source":""},{"t":21.766,"note":55,"dur":0.082,"vel":0.709,"inst":"pad_warm_v0_fm_94","midi_source":""},{"t":21.766,"note":55,"dur":0.082,"vel":0.709,"inst":"pad_warm_v0_fm_94","midi_source":""},{"t":21.847,"note":47,"dur":0.082,"vel":0.709,"inst":"pad_warm_v0_fm_94","midi_source":""},{"t":21.847,"note":55,"dur":0.082,"vel":0.709,"inst":"pad_warm_v0_fm_94","midi_source":""},{"t":21.847,"note":55,"dur":0.082,"vel":0.709,"inst":"pad_warm_v0_fm_94","midi_source":""},{"t":21.929,"note":47,"dur":0.082,"vel":0.709,"inst":"pad_warm_v0_fm_94","midi_source":""},{"t":21.929,"note":55,"dur":0.082,"vel":0.709,"inst":"pad_warm_v0_fm_94","midi_source":""},{"t":21.929,"note":55,"dur":0.082,"vel":0.709,"inst":"pad_warm_v0_fm_94","midi_source":""},{"t":21.929,"note":74,"dur":0.041,"vel":0.709,"inst":"cello_v0_additive_7","midi_source":""},{"t":21.97,"note":76,"dur":0.041,"vel":0.709,"inst":"cello_v0_additive_7","midi_source":""},{"t":22.011,"note":47,"dur":0.082,"vel":0.709,"inst":"pad_warm_v0_fm_94","midi_source":""},{"t":22.011,"note":55,"dur":0.082,"vel":0.709,"inst":"pad_warm_v0_fm_94","midi_source":""},{"t":22.011,"note":62,"dur":0.082,"vel":0.709,"inst":"cello_v0_additive_7","midi_source":""},{"t":22.011,"note":76,"dur":0.327,"vel":0.709,"inst":"cello_v0_additive_7","midi_source":""},{"t":22.093,"note":47,"dur":0.082,"vel":0.709,"inst":"pad_warm_v0_fm_94","midi_source":""},{"t":22.093,"note":55,"dur":0.082,"vel":0.709,"inst":"pad_warm_v0_fm_94","midi_source":""},{"t":22.093,"note":62,"dur":0.082,"vel":0.709,"inst":"cello_v0_additive_7","midi_source":""},{"t":22.174,"note":47,"dur":0.082,"vel":0.709,"inst":"pad_warm_v0_fm_94","midi_source":""},{"t":22.174,"note":55,"dur":0.082,"vel":0.709,"inst":"pad_warm_v0_fm_94","midi_source":""},{"t":22.174,"note":62,"dur":0.082,"vel":0.709,"inst":"cello_v0_additive_7","midi_source":""},{"t":22.256,"note":47,"dur":0.082,"vel":0.709,"inst":"pad_warm_v0_fm_94","midi_source":""},{"t":22.256,"note":55,"dur":0.082,"vel":0.709,"inst":"pad_warm_v0_fm_94","midi_source":""},{"t":22.256,"note":62,"dur":0.082,"vel":0.709,"inst":"cello_v0_additive_7","midi_source":""},{"t":22.338,"note":48,"dur":0.082,"vel":0.709,"inst":"cello_v0_additive_7","midi_source":""},{"t":22.338,"note":57,"dur":0.082,"vel":0.709,"inst":"pad_warm_v0_fm_94","midi_source":""},{"t":22.338,"note":60,"dur":0.082,"vel":0.709,"inst":"cello_v0_additive_7","midi_source":""},{"t":22.338,"note":76,"dur":0.041,"vel":0.709,"inst":"cello_v0_additive_7","midi_source":""},{"t":22.379,"note":72,"dur":0.041,"vel":0.709,"inst":"cello_v0_additive_7","midi_source":""},{"t":22.42,"note":48,"dur":0.082,"vel":0.709,"inst":"cello_v0_additive_7","midi_source":""},{"t":22.42,"note":57,"dur":0.082,"vel":0.709,"inst":"pad_warm_v0_fm_94","midi_source":""},{"t":22.42,"note":60,"dur":0.082,"vel":0.709,"inst":"cello_v0_additive_7","midi_source":""},{"t":22.42,"note":71,"dur":0.041,"vel":0.709,"inst":"pad_warm_v0_fm_94","midi_source":""},{"t":22.46,"note":69,"dur":0.041,"vel":0.709,"inst":"pad_warm_v0_fm_94","midi_source":""},{"t":22.501,"note":48,"dur":0.082,"vel":0.709,"inst":"cello_v0_additive_7","midi_source":""},{"t":22.501,"note":57,"dur":0.082,"vel":0.709,"inst":"pad_warm_v0_fm_94","midi_source":""},{"t":22.501,"note":60,"dur":0.082,"vel":0.709,"inst":"cello_v0_additive_7","midi_source":""},{"t":22.501,"note":67,"dur":0.041,"vel":0.709,"inst":"pad_warm_v0_fm_94","midi_source":""},{"t":22.542,"note":69,"dur":0.041,"vel":0.709,"inst":"pad_warm_v0_fm_94","midi_source":""},{"t":22.583,"note":48,"dur":0.082,"vel":0.709,"inst":"cello_v0_additive_7","midi_source":""},{"t":22.583,"note":57,"dur":0.082,"vel":0.709,"inst":"pad_warm_v0_fm_94","midi_source":""},{"t":22.583,"note":60,"dur":0.082,"vel":0.709,"inst":"cello_v0_additive_7","midi_source":""},{"t":22.583,"note":72,"dur":0.041,"vel":0.709,"inst":"cello_v0_additive_7","midi_source":""},{"t":22.624,"note":69,"dur":0.041,"vel":0.709,"inst":"pad_warm_v0_fm_94","midi_source":""},{"t":22.665,"note":50,"dur":0.082,"vel":0.709,"inst":"cello_v0_additive_7","midi_source":""},{"t":22.665,"note":55,"dur":0.082,"vel":0.709,"inst":"pad_warm_v0_fm_94","midi_source":""},{"t":22.665,"note":59,"dur":0.082,"vel":0.709,"inst":"pad_warm_v0_fm_94","midi_source":""},{"t":22.665,"note":67,"dur":0.041,"vel":0.709,"inst":"pad_warm_v0_fm_94","midi_source":""},{"t":22.706,"note":69,"dur":0.041,"vel":0.709,"inst":"pad_warm_v0_fm_94","midi_source":""},{"t":22.746,"note":50,"dur":0.082,"vel":0.709,"inst":"cello_v0_additive_7","midi_source":""},{"t":22.746,"note":55,"dur":0.082,"vel":0.709,"inst":"pad_warm_v0_fm_94","midi_source":""},{"t":22.746,"note":59,"dur":0.082,"vel":0.709,"inst":"pad_warm_v0_fm_94","midi_source":""},{"t":22.746,"note":71,"dur":0.041,"vel":0.709,"inst":"pad_warm_v0_fm_94","midi_source":""},{"t":22.787,"note":72,"dur":0.041,"vel":0.709,"inst":"cello_v0_additive_7","midi_source":""},{"t":22.828,"note":50,"dur":0.082,"vel":0.709,"inst":"cello_v0_additive_7","midi_source":""},{"t":22.828,"note":55,"dur":0.082,"vel":0.709,"inst":"pad_warm_v0_fm_94","midi_source":""},{"t":22.828,"note":59,"dur":0.082,"vel":0.709,"inst":"pad_warm_v0_fm_94","midi_source":""},{"t":22.828,"note":74,"dur":0.041,"vel":0.709,"inst":"cello_v0_additive_7","midi_source":""},{"t":22.869,"note":76,"dur":0.041,"vel":0.709,"inst":"cello_v0_additive_7","midi_source":""},{"t":22.91,"note":50,"dur":0.082,"vel":0.709,"inst":"cello_v0_additive_7","midi_source":""},{"t":22.91,"note":55,"dur":0.082,"vel":0.709,"inst":"pad_warm_v0_fm_94","midi_source":""},{"t":22.91,"note":59,"dur":0.082,"vel":0.709,"inst":"pad_warm_v0_fm_94","midi_source":""},{"t":22.91,"note":74,"dur":0.041,"vel":0.709,"inst":"cello_v0_additive_7","midi_source":""},{"t":22.951,"note":76,"dur":0.041,"vel":0.709,"inst":"cello_v0_additive_7","midi_source":""},{"t":22.992,"note":50,"dur":0.163,"vel":0.709,"inst":"cello_v0_additive_7","midi_source":""},{"t":22.992,"note":55,"dur":0.163,"vel":0.709,"inst":"pad_warm_v0_fm_94","midi_source":""},{"t":22.992,"note":59,"dur":0.163,"vel":0.709,"inst":"pad_warm_v0_fm_94","midi_source":""},{"t":22.992,"note":74,"dur":0.163,"vel":0.709,"inst":"cello_v0_additive_7","midi_source":""},{"t":23.319,"note":50,"dur":0.163,"vel":0.709,"inst":"cello_v0_additive_7","midi_source":""},{"t":23.319,"note":57,"dur":0.163,"vel":0.709,"inst":"pad_warm_v0_fm_94","midi_source":""},{"t":23.319,"note":60,"dur":0.163,"vel":0.709,"inst":"cello_v0_additive_7","midi_source":""},{"t":23.319,"note":66,"dur":0.163,"vel":0.709,"inst":"cello_v0_additive_7","midi_source":""},{"t":23.645,"note":59,"dur":0.245,"vel":0.709,"inst":"pad_warm_v0_fm_94","midi_source":""},{"t":23.645,"note":62,"dur":0.082,"vel":0.709,"inst":"cello_v0_additive_7","midi_source":""},{"t":23.645,"note":67,"dur":0.245,"vel":0.709,"inst":"pad_warm_v0_fm_94","midi_source":""},{"t":23.727,"note":62,"dur":0.082,"vel":0.709,"inst":"cello_v0_additive_7","midi_source":""},{"t":23.809,"note":62,"dur":0.082,"vel":0.709,"inst":"cello_v0_additive_7","midi_source":""},{"t":23.891,"note":57,"dur":0.041,"vel":0.709,"inst":"pad_warm_v0_fm_94","midi_source":""},{"t":23.891,"note":62,"dur":0.082,"vel":0.709,"inst":"cello_v0_additive_7","midi_source":""},{"t":23.891,"note":66,"dur":0.041,"vel":0.709,"inst":"cello_v0_additive_7","midi_source":""},{"t":23.931,"note":59,"dur":0.041,"vel":0.709,"inst":"pad_warm_v0_fm_94","midi_source":""},{"t":23.931,"note":67,"dur":0.041,"vel":0.709,"inst":"pad_warm_v0_fm_94","midi_source":""},{"t":23.972,"note":60,"dur":0.163,"vel":0.709,"inst":"cello_v0_additive_7","midi_source":""},{"t":23.972,"note":62,"dur":0.082,"vel":0.709,"inst":"cello_v0_additive_7","midi_source":""},{"t":23.972,"note":69,"dur":0.163,"vel":0.709,"inst":"pad_warm_v0_fm_94","midi_source":""},{"t":24.054,"note":62,"dur":0.082,"vel":0.709,"inst":"cello_v0_additive_7","midi_source":""},{"t":24.136,"note":62,"dur":0.082,"vel":0.709,"inst":"cello_v0_additive_7","midi_source":""},{"t":24.218,"note":62,"dur":0.082,"vel":0.709,"inst":"cello_v0_additive_7","midi_source":""},{"t":24.299,"note":57,"dur":0.163,"vel":0.709,"inst":"pad_warm_v0_fm_94","midi_source":""},{"t":24.299,"note":62,"dur":0.082,"vel":0.709,"inst":"cello_v0_additive_7","midi_source":""},{"t":24.299,"note":66,"dur":0.163,"vel":0.709,"inst":"cello_v0_additive_7","midi_source":""},{"t":24.381,"note":62,"dur":0.082,"vel":0.709,"inst":"cello_v0_additive_7","midi_source":""},{"t":24.463,"note":62,"dur":0.082,"vel":0.709,"inst":"cello_v0_additive_7","midi_source":""},{"t":24.544,"note":62,"dur":0.082,"vel":0.709,"inst":"cello_v0_additive_7","midi_source":""},{"t":24.626,"note":55,"dur":0.245,"vel":0.709,"inst":"pad_warm_v0_fm_94","midi_source":""},{"t":24.626,"note":62,"dur":0.082,"vel":0.709,"inst":"cello_v0_additive_7","midi_source":""},{"t":24.626,"note":69,"dur":0.245,"vel":0.709,"inst":"pad_warm_v0_fm_94","midi_source":""},{"t":24.708,"note":62,"dur":0.082,"vel":0.709,"inst":"cello_v0_additive_7","midi_source":""},{"t":24.79,"note":62,"dur":0.082,"vel":0.709,"inst":"cello_v0_additive_7","midi_source":""},{"t":24.871,"note":54,"dur":0.041,"vel":0.709,"inst":"cello_v0_additive_7","midi_source":""},{"t":24.871,"note":62,"dur":0.082,"vel":0.709,"inst":"cello_v0_additive_7","midi_source":""},{"t":24.871,"note":69,"dur":0.041,"vel":0.709,"inst":"pad_warm_v0_fm_94","midi_source":""},{"t":24.912,"note":55,"dur":0.041,"vel":0.709,"inst":"pad_warm_v0_fm_94","midi_source":""},{"t":24.912,"note":69,"dur":0.041,"vel":0.709,"inst":"pad_warm_v0_fm_94","midi_source":""},{"t":24.953,"note":57,"dur":0.163,"vel":0.709,"inst":"pad_warm_v0_fm_94","midi_source":""},{"t":24.953,"note":62,"dur":0.082,"vel":0.709,"inst":"cello_v0_additive_7","midi_source":""},{"t":24.953,"note":72,"dur":0.163,"vel":0.709,"inst":"cello_v0_additive_7","midi_source":""},{"t":25.035,"note":62,"dur":0.082,"vel":0.709,"inst":"cello_v0_additive_7","midi_source":""},{"t":25.117,"note":62,"dur":0.082,"vel":0.709,"inst":"cello_v0_additive_7","midi_source":""},{"t":25.198,"note":62,"dur":0.082,"vel":0.709,"inst":"cello_v0_additive_7","midi_source":""},{"t":25.28,"note":54,"dur":0.163,"vel":0.709,"inst":"cello_v0_additive_7","midi_source":""},{"t":25.28,"note":62,"dur":0.082,"vel":0.709,"inst":"cello_v0_additive_7","midi_source":""},{"t":25.28,"note":69,"dur":0.163,"vel":0.709,"inst":"pad_warm_v0_fm_94","midi_source":""},{"t":25.362,"note":62,"dur":0.082,"vel":0.709,"inst":"cello_v0_additive_7","midi_source":""},{"t":25.443,"note":62,"dur":0.082,"vel":0.709,"inst":"cello_v0_additive_7","midi_source":""},{"t":25.525,"note":62,"dur":0.082,"vel":0.709,"inst":"cello_v0_additive_7","midi_source":""},{"t":25.607,"note":55,"dur":0.082,"vel":0.709,"inst":"pad_warm_v0_fm_94","midi_source":""},{"t":25.607,"note":57,"dur":0.082,"vel":0.709,"inst":"pad_warm_v0_fm_94","midi_source":""},{"t":25.607,"note":69,"dur":0.245,"vel":0.709,"inst":"pad_warm_v0_fm_94","midi_source":""},{"t":25.607,"note":74,"dur":0.245,"vel":0.709,"inst":"cello_v0_additive_7","midi_source":""},{"t":25.689,"note":55,"dur":0.082,"vel":0.709,"inst":"pad_warm_v0_fm_94","midi_source":""},{"t":25.689,"note":57,"dur":0.082,"vel":0.709,"inst":"pad_warm_v0_fm_94","midi_source":""},{"t":25.77,"note":55,"dur":0.082,"vel":0.709,"inst":"pad_warm_v0_fm_94","midi_source":""},{"t":25.77,"note":57,"dur":0.082,"vel":0.709,"inst":"pad_warm_v0_fm_94","midi_source":""},{"t":25.852,"note":55,"dur":0.082,"vel":0.709,"inst":"pad_warm_v0_fm_94","midi_source":""},{"t":25.852,"note":57,"dur":0.082,"vel":0.709,"inst":"pad_warm_v0_fm_94","midi_source":""},{"t":25.852,"note":69,"dur":0.041,"vel":0.709,"inst":"pad_warm_v0_fm_94","midi_source":""},{"t":25.852,"note":72,"dur":0.041,"vel":0.709,"inst":"cello_v0_additive_7","midi_source":""},{"t":25.893,"note":69,"dur":0.041,"vel":0.709,"inst":"pad_warm_v0_fm_94","midi_source":""},{"t":25.893,"note":74,"dur":0.041,"vel":0.709,"inst":"cello_v0_additive_7","midi_source":""},{"t":25.934,"note":48,"dur":0.082,"vel":0.709,"inst":"cello_v0_additive_7","midi_source":""},{"t":25.934,"note":55,"dur":0.082,"vel":0.709,"inst":"pad_warm_v0_fm_94","midi_source":""},{"t":25.934,"note":72,"dur":0.327,"vel":0.709,"inst":"cello_v0_additive_7","midi_source":""},{"t":25.934,"note":74,"dur":0.327,"vel":0.709,"inst":"cello_v0_additive_7","midi_source":""},{"t":26.016,"note":48,"dur":0.082,"vel":0.709,"inst":"cello_v0_additive_7","midi_source":""},{"t":26.016,"note":55,"dur":0.082,"vel":0.709,"inst":"pad_warm_v0_fm_94","midi_source":""},{"t":26.097,"note":48,"dur":0.082,"vel":0.709,"inst":"cello_v0_additive_7","midi_source":""},{"t":26.097,"note":55,"dur":0.082,"vel":0.709,"inst":"pad_warm_v0_fm_94","midi_source":""},{"t":26.179,"note":48,"dur":0.082,"vel":0.709,"inst":"cello_v0_additive_7","midi_source":""},{"t":26.179,"note":55,"dur":0.082,"vel":0.709,"inst":"pad_warm_v0_fm_94","midi_source":""},{"t":26.261,"note":52,"dur":0.082,"vel":0.709,"inst":"cello_v0_additive_7","midi_source":""},{"t":26.261,"note":57,"dur":0.082,"vel":0.709,"inst":"pad_warm_v0_fm_94","midi_source":""},{"t":26.261,"note":62,"dur":0.163,"vel":0.709,"inst":"cello_v0_additive_7","midi_source":""},{"t":26.261,"note":72,"dur":0.163,"vel":0.709,"inst":"cello_v0_additive_7","midi_source":""},{"t":26.342,"note":52,"dur":0.082,"vel":0.709,"inst":"cello_v0_additive_7","midi_source":""},{"t":26.342,"note":57,"dur":0.082,"vel":0.709,"inst":"pad_warm_v0_fm_94","midi_source":""},{"t":26.424,"note":52,"dur":0.082,"vel":0.709,"inst":"cello_v0_additive_7","midi_source":""},{"t":26.424,"note":57,"dur":0.082,"vel":0.709,"inst":"pad_warm_v0_fm_94","midi_source":""},{"t":26.424,"note":60,"dur":0.163,"vel":0.709,"inst":"cello_v0_additive_7","midi_source":""},{"t":26.424,"note":69,"dur":0.163,"vel":0.709,"inst":"pad_warm_v0_fm_94","midi_source":""},{"t":26.506,"note":52,"dur":0.082,"vel":0.709,"inst":"cello_v0_additive_7","midi_source":""},{"t":26.506,"note":57,"dur":0.082,"vel":0.709,"inst":"pad_warm_v0_fm_94","midi_source":""},{"t":26.588,"note":50,"dur":0.082,"vel":0.709,"inst":"cello_v0_additive_7","midi_source":""},{"t":26.588,"note":57,"dur":0.49,"vel":0.709,"inst":"pad_warm_v0_fm_94","midi_source":""},{"t":26.588,"note":57,"dur":0.082,"vel":0.709,"inst":"pad_warm_v0_fm_94","midi_source":""},{"t":26.588,"note":76,"dur":0.245,"vel":0.709,"inst":"cello_v0_additive_7","midi_source":""},{"t":26.669,"note":50,"dur":0.082,"vel":0.709,"inst":"cello_v0_additive_7","midi_source":""},{"t":26.669,"note":57,"dur":0.082,"vel":0.709,"inst":"pad_warm_v0_fm_94","midi_source":""},{"t":26.751,"note":50,"dur":0.082,"vel":0.709,"inst":"cello_v0_additive_7","midi_source":""},{"t":26.751,"note":57,"dur":0.082,"vel":0.709,"inst":"pad_warm_v0_fm_94","midi_source":""},{"t":26.833,"note":50,"dur":0.082,"vel":0.709,"inst":"cello_v0_additive_7","midi_source":""},{"t":26.833,"note":57,"dur":0.082,"vel":0.709,"inst":"pad_warm_v0_fm_94","midi_source":""},{"t":26.833,"note":74,"dur":0.041,"vel":0.709,"inst":"cello_v0_additive_7","midi_source":""},{"t":26.874,"note":76,"dur":0.041,"vel":0.709,"inst":"cello_v0_additive_7","midi_source":""},{"t":26.915,"note":50,"dur":0.082,"vel":0.709,"inst":"cello_v0_additive_7","midi_source":""},{"t":26.915,"note":55,"dur":0.082,"vel":0.709,"inst":"pad_warm_v0_fm_94","midi_source":""},{"t":26.915,"note":79,"dur":0.163,"vel":0.709,"inst":"pad_warm_v0_fm_94","midi_source":""},{"t":26.996,"note":50,"dur":0.082,"vel":0.709,"inst":"cello_v0_additive_7","midi_source":""},{"t":26.996,"note":55,"dur":0.082,"vel":0.709,"inst":"pad_warm_v0_fm_94","midi_source":""},{"t":27.078,"note":50,"dur":0.082,"vel":0.709,"inst":"cello_v0_additive_7","midi_source":""},{"t":27.078,"note":55,"dur":0.082,"vel":0.709,"inst":"pad_warm_v0_fm_94","midi_source":""},{"t":27.078,"note":67,"dur":0.163,"vel":0.709,"inst":"pad_warm_v0_fm_94","midi_source":""},{"t":27.078,"note":74,"dur":0.163,"vel":0.709,"inst":"cello_v0_additive_7","midi_source":""},{"t":27.16,"note":50,"dur":0.082,"vel":0.709,"inst":"cello_v0_additive_7","midi_source":""},{"t":27.16,"note":55,"dur":0.082,"vel":0.709,"inst":"pad_warm_v0_fm_94","midi_source":""},{"t":27.241,"note":52,"dur":0.082,"vel":0.709,"inst":"cello_v0_additive_7","midi_source":""},{"t":27.241,"note":57,"dur":0.082,"vel":0.709,"inst":"pad_warm_v0_fm_94","midi_source":""},{"t":27.241,"note":62,"dur":0.163,"vel":0.709,"inst":"cello_v0_additive_7","midi_source":""},{"t":27.241,"note":72,"dur":0.163,"vel":0.709,"inst":"cello_v0_additive_7","midi_source":""},{"t":27.323,"note":52,"dur":0.082,"vel":0.709,"inst":"cello_v0_additive_7","midi_source":""},{"t":27.323,"note":57,"dur":0.082,"vel":0.709,"inst":"pad_warm_v0_fm_94","midi_source":""},{"t":27.405,"note":52,"dur":0.082,"vel":0.709,"inst":"cello_v0_additive_7","midi_source":""},{"t":27.405,"note":60,"dur":0.163,"vel":0.709,"inst":"cello_v0_additive_7","midi_source":""},{"t":27.405,"note":60,"dur":0.082,"vel":0.709,"inst":"cello_v0_additive_7","midi_source":""},{"t":27.405,"note":69,"dur":0.163,"vel":0.709,"inst":"pad_warm_v0_fm_94","midi_source":""},{"t":27.487,"note":52,"dur":0.082,"vel":0.709,"inst":"cello_v0_additive_7","midi_source":""},{"t":27.487,"note":60,"dur":0.082,"vel":0.709,"inst":"cello_v0_additive_7","midi_source":""},{"t":27.568,"note":45,"dur":0.082,"vel":0.709,"inst":"pad_warm_v0_fm_94","midi_source":""},{"t":27.568,"note":57,"dur":0.327,"vel":0.709,"inst":"pad_warm_v0_fm_94","midi_source":""},{"t":27.568,"note":62,"dur":0.654,"vel":0.709,"inst":"cello_v0_additive_7","midi_source":""},{"t":27.568,"note":69,"dur":0.654,"vel":0.709,"inst":"pad_warm_v0_fm_94","midi_source":""},{"t":27.65,"note":48,"dur":0.082,"vel":0.709,"inst":"cello_v0_additive_7","midi_source":""},{"t":27.732,"note":45,"dur":0.082,"vel":0.709,"inst":"pad_warm_v0_fm_94","midi_source":""},{"t":27.814,"note":45,"dur":0.082,"vel":0.709,"inst":"pad_warm_v0_fm_94","midi_source":""},{"t":27.895,"note":45,"dur":0.082,"vel":0.709,"inst":"pad_warm_v0_fm_94","midi_source":""},{"t":27.895,"note":52,"dur":0.327,"vel":0.709,"inst":"cello_v0_additive_7","midi_source":""},{"t":27.977,"note":48,"dur":0.082,"vel":0.709,"inst":"cello_v0_additive_7","midi_source":""},{"t":28.059,"note":45,"dur":0.082,"vel":0.709,"inst":"pad_warm_v0_fm_94","midi_source":""},{"t":28.141,"note":45,"dur":0.082,"vel":0.709,"inst":"pad_warm_v0_fm_94","midi_source":""},{"t":28.222,"note":45,"dur":0.082,"vel":0.709,"inst":"pad_warm_v0_fm_94","midi_source":""},{"t":28.222,"note":52,"dur":0.327,"vel":0.709,"inst":"cello_v0_additive_7","midi_source":""},{"t":28.222,"note":62,"dur":0.327,"vel":0.709,"inst":"cello_v0_additive_7","midi_source":""},{"t":28.222,"note":67,"dur":0.327,"vel":0.709,"inst":"pad_warm_v0_fm_94","midi_source":""},{"t":28.304,"note":45,"dur":0.082,"vel":0.709,"inst":"pad_warm_v0_fm_94","midi_source":""},{"t":28.386,"note":45,"dur":0.082,"vel":0.709,"inst":"pad_warm_v0_fm_94","midi_source":""},{"t":28.467,"note":47,"dur":0.082,"vel":0.709,"inst":"pad_warm_v0_fm_94","midi_source":""},{"t":28.549,"note":48,"dur":0.082,"vel":0.709,"inst":"cello_v0_additive_7","midi_source":""},{"t":28.549,"note":50,"dur":0.654,"vel":0.709,"inst":"cello_v0_additive_7","midi_source":""},{"t":28.549,"note":62,"dur":0.654,"vel":0.709,"inst":"cello_v0_additive_7","midi_source":""},{"t":28.549,"note":67,"dur":0.654,"vel":0.709,"inst":"pad_warm_v0_fm_94","midi_source":""},{"t":28.631,"note":50,"dur":0.082,"vel":0.709,"inst":"cello_v0_additive_7","midi_source":""},{"t":28.713,"note":48,"dur":0.082,"vel":0.709,"inst":"cello_v0_additive_7","midi_source":""},{"t":28.794,"note":47,"dur":0.082,"vel":0.709,"inst":"pad_warm_v0_fm_94","midi_source":""},{"t":28.876,"note":48,"dur":0.082,"vel":0.709,"inst":"cello_v0_additive_7","midi_source":""},{"t":28.958,"note":50,"dur":0.082,"vel":0.709,"inst":"cello_v0_additive_7","midi_source":""},{"t":29.04,"note":48,"dur":0.082,"vel":0.709,"inst":"cello_v0_additive_7","midi_source":""},{"t":29.121,"note":47,"dur":0.082,"vel":0.709,"inst":"pad_warm_v0_fm_94","midi_source":""},{"t":29.203,"note":48,"dur":0.082,"vel":0.709,"inst":"cello_v0_additive_7","midi_source":""},{"t":29.203,"note":55,"dur":0.327,"vel":0.709,"inst":"pad_warm_v0_fm_94","midi_source":""},{"t":29.203,"note":64,"dur":0.327,"vel":0.709,"inst":"cello_v0_additive_7","midi_source":""},{"t":29.203,"note":69,"dur":0.327,"vel":0.709,"inst":"pad_warm_v0_fm_94","midi_source":""},{"t":29.285,"note":47,"dur":0.082,"vel":0.709,"inst":"pad_warm_v0_fm_94","midi_source":""},{"t":29.366,"note":48,"dur":0.082,"vel":0.709,"inst":"cello_v0_additive_7","midi_source":""},{"t":29.448,"note":48,"dur":0.082,"vel":0.709,"inst":"cello_v0_additive_7","midi_source":""},{"t":29.53,"note":50,"dur":0.082,"vel":0.709,"inst":"cello_v0_additive_7","midi_source":""},{"t":29.53,"note":54,"dur":0.327,"vel":0.709,"inst":"cello_v0_additive_7","midi_source":""},{"t":29.53,"note":66,"dur":0.327,"vel":0.709,"inst":"cello_v0_additive_7","midi_source":""},{"t":29.53,"note":69,"dur":0.327,"vel":0.709,"inst":"pad_warm_v0_fm_94","midi_source":""},{"t":29.612,"note":50,"dur":0.082,"vel":0.709,"inst":"cello_v0_additive_7","midi_source":""},{"t":29.693,"note":62,"dur":0.082,"vel":0.709,"inst":"cello_v0_additive_7","midi_source":""},{"t":29.775,"note":57,"dur":0.041,"vel":0.709,"inst":"pad_warm_v0_fm_94","midi_source":""},{"t":29.775,"note":62,"dur":0.082,"vel":0.709,"inst":"cello_v0_additive_7","midi_source":""},{"t":29.775,"note":66,"dur":0.041,"vel":0.709,"inst":"cello_v0_additive_7","midi_source":""},{"t":29.816,"note":59,"dur":0.041,"vel":0.709,"inst":"pad_warm_v0_fm_94","midi_source":""},{"t":29.816,"note":67,"dur":0.041,"vel":0.709,"inst":"pad_warm_v0_fm_94","midi_source":""},{"t":29.857,"note":60,"dur":0.163,"vel":0.709,"inst":"cello_v0_additive_7","midi_source":""},{"t":29.857,"note":62,"dur":0.082,"vel":0.709,"inst":"cello_v0_additive_7","midi_source":""},{"t":29.857,"note":69,"dur":0.163,"vel":0.709,"inst":"pad_warm_v0_fm_94","midi_source":""},{"t":29.939,"note":62,"dur":0.082,"vel":0.709,"inst":"cello_v0_additive_7","midi_source":""},{"t":30.02,"note":62,"dur":0.082,"vel":0.709,"inst":"cello_v0_additive_7","midi_source":""},{"t":30.102,"note":62,"dur":0.082,"vel":0.709,"inst":"cello_v0_additive_7","midi_source":""},{"t":30.184,"note":57,"dur":0.163,"vel":0.709,"inst":"pad_warm_v0_fm_94","midi_source":""},{"t":30.184,"note":62,"dur":0.082,"vel":0.709,"inst":"cello_v0_additive_7","midi_source":""},{"t":30.184,"note":66,"dur":0.163,"vel":0.709,"inst":"cello_v0_additive_7","midi_source":""},{"t":30.265,"note":62,"dur":0.082,"vel":0.709,"inst":"cello_v0_additive_7","midi_source":""},{"t":30.347,"note":62,"dur":0.082,"vel":0.709,"inst":"cello_v0_additive_7","midi_source":""},{"t":30.429,"note":62,"dur":0.082,"vel":0.709,"inst":"cello_v0_additive_7","midi_source":""},{"t":30.511,"note":55,"dur":0.245,"vel":0.709,"inst":"pad_warm_v0_fm_94","midi_source":""},{"t":30.511,"note":62,"dur":0.082,"vel":0.709,"inst":"cello_v0_additive_7","midi_source":""},{"t":30.511,"note":71,"dur":0.245,"vel":0.709,"inst":"pad_warm_v0_fm_94","midi_source":""},{"t":30.592,"note":62,"dur":0.082,"vel":0.709,"inst":"cello_v0_additive_7","midi_source":""},{"t":30.674,"note":62,"dur":0.082,"vel":0.709,"inst":"cello_v0_additive_7","midi_source":""},{"t":30.756,"note":54,"dur":0.041,"vel":0.709,"inst":"cello_v0_additive_7","midi_source":""},{"t":30.756,"note":62,"dur":0.082,"vel":0.709,"inst":"cello_v0_additive_7","midi_source":""},{"t":30.756,"note":69,"dur":0.041,"vel":0.709,"inst":"pad_warm_v0_fm_94","midi_source":""},{"t":30.797,"note":55,"dur":0.041,"vel":0.709,"inst":"pad_warm_v0_fm_94","midi_source":""},{"t":30.797,"note":71,"dur":0.041,"vel":0.709,"inst":"pad_warm_v0_fm_94","midi_source":""},{"t":30.838,"note":57,"dur":0.163,"vel":0.709,"inst":"pad_warm_v0_fm_94","midi_source":""},{"t":30.838,"note":62,"dur":0.082,"vel":0.709,"inst":"cello_v0_additive_7","midi_source":""},{"t":30.838,"note":72,"dur":0.163,"vel":0.709,"inst":"cello_v0_additive_7","midi_source":""},{"t":30.919,"note":62,"dur":0.082,"vel":0.709,"inst":"cello_v0_additive_7","midi_source":""},{"t":31.001,"note":62,"dur":0.082,"vel":0.709,"inst":"cello_v0_additive_7","midi_source":""},{"t":31.083,"note":62,"dur":0.082,"vel":0.709,"inst":"cello_v0_additive_7","midi_source":""},{"t":31.164,"note":54,"dur":0.163,"vel":0.709,"inst":"cello_v0_additive_7","midi_source":""},{"t":31.164,"note":62,"dur":0.082,"vel":0.709,"inst":"cello_v0_additive_7","midi_source":""},{"t":31.164,"note":69,"dur":0.163,"vel":0.709,"inst":"pad_warm_v0_fm_94","midi_source":""},{"t":31.246,"note":62,"dur":0.082,"vel":0.709,"inst":"cello_v0_additive_7","midi_source":""},{"t":31.328,"note":62,"dur":0.082,"vel":0.709,"inst":"cello_v0_additive_7","midi_source":""},{"t":31.41,"note":62,"dur":0.082,"vel":0.709,"inst":"cello_v0_additive_7","midi_source":""},{"t":31.491,"note":47,"dur":0.082,"vel":0.709,"inst":"pad_warm_v0_fm_94","midi_source":""},{"t":31.491,"note":55,"dur":0.082,"vel":0.709,"inst":"pad_warm_v0_fm_94","midi_source":""},{"t":31.491,"note":55,"dur":0.082,"vel":0.709,"inst":"pad_warm_v0_fm_94","midi_source":""},{"t":31.491,"note":74,"dur":0.245,"vel":0.709,"inst":"cello_v0_additive_7","midi_source":""},{"t":31.573,"note":47,"dur":0.082,"vel":0.709,"inst":"pad_warm_v0_fm_94","midi_source":""},{"t":31.573,"note":55,"dur":0.082,"vel":0.709,"inst":"pad_warm_v0_fm_94","midi_source":""},{"t":31.573,"note":55,"dur":0.082,"vel":0.709,"inst":"pad_warm_v0_fm_94","midi_source":""},{"t":31.655,"note":47,"dur":0.082,"vel":0.709,"inst":"pad_warm_v0_fm_94","midi_source":""},{"t":31.655,"note":55,"dur":0.082,"vel":0.709,"inst":"pad_warm_v0_fm_94","midi_source":""},{"t":31.655,"note":55,"dur":0.082,"vel":0.709,"inst":"pad_warm_v0_fm_94","midi_source":""},{"t":31.737,"note":47,"dur":0.082,"vel":0.709,"inst":"pad_warm_v0_fm_94","midi_source":""},{"t":31.737,"note":55,"dur":0.082,"vel":0.709,"inst":"pad_warm_v0_fm_94","midi_source":""},{"t":31.737,"note":55,"dur":0.082,"vel":0.709,"inst":"pad_warm_v0_fm_94","midi_source":""},{"t":31.737,"note":74,"dur":0.041,"vel":0.709,"inst":"cello_v0_additive_7","midi_source":""},{"t":31.777,"note":76,"dur":0.041,"vel":0.709,"inst":"cello_v0_additive_7","midi_source":""},{"t":31.818,"note":47,"dur":0.082,"vel":0.709,"inst":"pad_warm_v0_fm_94","midi_source":""},{"t":31.818,"note":55,"dur":0.082,"vel":0.709,"inst":"pad_warm_v0_fm_94","midi_source":""},{"t":31.818,"note":62,"dur":0.082,"vel":0.709,"inst":"cello_v0_additive_7","midi_source":""},{"t":31.818,"note":76,"dur":0.327,"vel":0.709,"inst":"cello_v0_additive_7","midi_source":""},{"t":31.9,"note":47,"dur":0.082,"vel":0.709,"inst":"pad_warm_v0_fm_94","midi_source":""},{"t":31.9,"note":55,"dur":0.082,"vel":0.709,"inst":"pad_warm_v0_fm_94","midi_source":""},{"t":31.9,"note":62,"dur":0.082,"vel":0.709,"inst":"cello_v0_additive_7","midi_source":""},{"t":31.982,"note":47,"dur":0.082,"vel":0.709,"inst":"pad_warm_v0_fm_94","midi_source":""},{"t":31.982,"note":55,"dur":0.082,"vel":0.709,"inst":"pad_warm_v0_fm_94","midi_source":""},{"t":31.982,"note":62,"dur":0.082,"vel":0.709,"inst":"cello_v0_additive_7","midi_source":""},{"t":32.063,"note":47,"dur":0.082,"vel":0.709,"inst":"pad_warm_v0_fm_94","midi_source":""},{"t":32.063,"note":55,"dur":0.082,"vel":0.709,"inst":"pad_warm_v0_fm_94","midi_source":""},{"t":32.063,"note":62,"dur":0.082,"vel":0.709,"inst":"cello_v0_additive_7","midi_source":""},{"t":32.145,"note":48,"dur":0.082,"vel":0.709,"inst":"cello_v0_additive_7","midi_source":""},{"t":32.145,"note":57,"dur":0.082,"vel":0.709,"inst":"pad_warm_v0_fm_94","midi_source":""},{"t":32.145,"note":60,"dur":0.082,"vel":0.709,"inst":"cello_v0_additive_7","midi_source":""},{"t":32.145,"note":76,"dur":0.041,"vel":0.709,"inst":"cello_v0_additive_7","midi_source":""},{"t":32.186,"note":72,"dur":0.041,"vel":0.709,"inst":"cello_v0_additive_7","midi_source":""},{"t":32.227,"note":48,"dur":0.082,"vel":0.709,"inst":"cello_v0_additive_7","midi_source":""},{"t":32.227,"note":57,"dur":0.082,"vel":0.709,"inst":"pad_warm_v0_fm_94","midi_source":""},{"t":32.227,"note":60,"dur":0.082,"vel":0.709,"inst":"cello_v0_additive_7","midi_source":""},{"t":32.227,"note":71,"dur":0.041,"vel":0.709,"inst":"pad_warm_v0_fm_94","midi_source":""},{"t":32.268,"note":69,"dur":0.041,"vel":0.709,"inst":"pad_warm_v0_fm_94","midi_source":""},{"t":32.309,"note":48,"dur":0.082,"vel":0.709,"inst":"cello_v0_additive_7","midi_source":""},{"t":32.309,"note":57,"dur":0.082,"vel":0.709,"inst":"pad_warm_v0_fm_94","midi_source":""},{"t":32.309,"note":60,"dur":0.082,"vel":0.709,"inst":"cello_v0_additive_7","midi_source":""},{"t":32.309,"note":67,"dur":0.041,"vel":0.709,"inst":"pad_warm_v0_fm_94","midi_source":""},{"t":32.35,"note":69,"dur":0.041,"vel":0.709,"inst":"pad_warm_v0_fm_94","midi_source":""},{"t":32.39,"note":48,"dur":0.082,"vel":0.709,"inst":"cello_v0_additive_7","midi_source":""},{"t":32.39,"note":57,"dur":0.082,"vel":0.709,"inst":"pad_warm_v0_fm_94","midi_source":""},{"t":32.39,"note":60,"dur":0.082,"vel":0.709,"inst":"cello_v0_additive_7","midi_source":""},{"t":32.39,"note":72,"dur":0.041,"vel":0.709,"inst":"cello_v0_additive_7","midi_source":""},{"t":32.431,"note":69,"dur":0.041,"vel":0.709,"inst":"pad_warm_v0_fm_94","midi_source":""},{"t":32.472,"note":50,"dur":0.082,"vel":0.709,"inst":"cello_v0_additive_7","midi_source":""},{"t":32.472,"note":55,"dur":0.082,"vel":0.709,"inst":"pad_warm_v0_fm_94","midi_source":""},{"t":32.472,"note":59,"dur":0.082,"vel":0.709,"inst":"pad_warm_v0_fm_94","midi_source":""},{"t":32.472,"note":67,"dur":0.041,"vel":0.709,"inst":"pad_warm_v0_fm_94","midi_source":""},{"t":32.513,"note":69,"dur":0.041,"vel":0.709,"inst":"pad_warm_v0_fm_94","midi_source":""},{"t":32.554,"note":50,"dur":0.082,"vel":0.709,"inst":"cello_v0_additive_7","midi_source":""},{"t":32.554,"note":55,"dur":0.082,"vel":0.709,"inst":"pad_warm_v0_fm_94","midi_source":""},{"t":32.554,"note":59,"dur":0.082,"vel":0.709,"inst":"pad_warm_v0_fm_94","midi_source":""},{"t":32.554,"note":71,"dur":0.041,"vel":0.709,"inst":"pad_warm_v0_fm_94","midi_source":""},{"t":32.595,"note":72,"dur":0.041,"vel":0.709,"inst":"cello_v0_additive_7","midi_source":""},{"t":32.636,"note":50,"dur":0.082,"vel":0.709,"inst":"cello_v0_additive_7","midi_source":""},{"t":32.636,"note":55,"dur":0.082,"vel":0.709,"inst":"pad_warm_v0_fm_94","midi_source":""},{"t":32.636,"note":59,"dur":0.082,"vel":0.709,"inst":"pad_warm_v0_fm_94","midi_source":""},{"t":32.636,"note":74,"dur":0.041,"vel":0.709,"inst":"cello_v0_additive_7","midi_source":""},{"t":32.676,"note":76,"dur":0.041,"vel":0.709,"inst":"cello_v0_additive_7","midi_source":""},{"t":32.717,"note":50,"dur":0.082,"vel":0.709,"inst":"cello_v0_additive_7","midi_source":""},{"t":32.717,"note":55,"dur":0.082,"vel":0.709,"inst":"pad_warm_v0_fm_94","midi_source":""},{"t":32.717,"note":59,"dur":0.082,"vel":0.709,"inst":"pad_warm_v0_fm_94","midi_source":""},{"t":32.717,"note":74,"dur":0.041,"vel":0.709,"inst":"cello_v0_additive_7","midi_source":""},{"t":32.758,"note":76,"dur":0.041,"vel":0.709,"inst":"cello_v0_additive_7","midi_source":""},{"t":32.799,"note":50,"dur":0.163,"vel":0.709,"inst":"cello_v0_additive_7","midi_source":""},{"t":32.799,"note":55,"dur":0.163,"vel":0.709,"inst":"pad_warm_v0_fm_94","midi_source":""},{"t":32.799,"note":59,"dur":0.163,"vel":0.709,"inst":"pad_warm_v0_fm_94","midi_source":""},{"t":32.799,"note":74,"dur":0.163,"vel":0.709,"inst":"cello_v0_additive_7","midi_source":""},{"t":33.126,"note":50,"dur":0.163,"vel":0.709,"inst":"cello_v0_additive_7","midi_source":""},{"t":33.126,"note":57,"dur":0.163,"vel":0.709,"inst":"pad_warm_v0_fm_94","midi_source":""},{"t":33.126,"note":60,"dur":0.163,"vel":0.709,"inst":"cello_v0_additive_7","midi_source":""},{"t":33.126,"note":66,"dur":0.163,"vel":0.709,"inst":"cello_v0_additive_7","midi_source":""},{"t":33.453,"note":59,"dur":0.245,"vel":0.709,"inst":"pad_warm_v0_fm_94","midi_source":""},{"t":33.453,"note":62,"dur":0.082,"vel":0.709,"inst":"cello_v0_additive_7","midi_source":""},{"t":33.453,"note":67,"dur":0.245,"vel":0.709,"inst":"pad_warm_v0_fm_94","midi_source":""},{"t":33.535,"note":62,"dur":0.082,"vel":0.709,"inst":"cello_v0_additive_7","midi_source":""},{"t":33.616,"note":62,"dur":0.082,"vel":0.709,"inst":"cello_v0_additive_7","midi_source":""},{"t":33.698,"note":57,"dur":0.041,"vel":0.709,"inst":"pad_warm_v0_fm_94","midi_source":""},{"t":33.698,"note":62,"dur":0.082,"vel":0.709,"inst":"cello_v0_additive_7","midi_source":""},{"t":33.698,"note":66,"dur":0.041,"vel":0.709,"inst":"cello_v0_additive_7","midi_source":""},{"t":33.739,"note":59,"dur":0.041,"vel":0.709,"inst":"pad_warm_v0_fm_94","midi_source":""},{"t":33.739,"note":67,"dur":0.041,"vel":0.709,"inst":"pad_warm_v0_fm_94","midi_source":""},{"t":33.78,"note":60,"dur":0.163,"vel":0.709,"inst":"cello_v0_additive_7","midi_source":""},{"t":33.78,"note":62,"dur":0.082,"vel":0.709,"inst":"cello_v0_additive_7","midi_source":""},{"t":33.78,"note":69,"dur":0.163,"vel":0.709,"inst":"pad_warm_v0_fm_94","midi_source":""},{"t":33.862,"note":62,"dur":0.082,"vel":0.709,"inst":"cello_v0_additive_7","midi_source":""},{"t":33.943,"note":62,"dur":0.082,"vel":0.709,"inst":"cello_v0_additive_7","midi_source":""},{"t":34.025,"note":62,"dur":0.082,"vel":0.709,"inst":"cello_v0_additive_7","midi_source":""},{"t":34.107,"note":57,"dur":0.163,"vel":0.709,"inst":"pad_warm_v0_fm_94","midi_source":""},{"t":34.107,"note":62,"dur":0.082,"vel":0.709,"inst":"cello_v0_additive_7","midi_source":""},{"t":34.107,"note":66,"dur":0.163,"vel":0.709,"inst":"cello_v0_additive_7","midi_source":""},{"t":34.188,"note":62,"dur":0.082,"vel":0.709,"inst":"cello_v0_additive_7","midi_source":""},{"t":34.27,"note":62,"dur":0.082,"vel":0.709,"inst":"cello_v0_additive_7","midi_source":""},{"t":34.352,"note":62,"dur":0.082,"vel":0.709,"inst":"cello_v0_additive_7","midi_source":""},{"t":34.434,"note":55,"dur":0.245,"vel":0.709,"inst":"pad_warm_v0_fm_94","midi_source":""},{"t":34.434,"note":62,"dur":0.082,"vel":0.709,"inst":"cello_v0_additive_7","midi_source":""},{"t":34.434,"note":69,"dur":0.245,"vel":0.709,"inst":"pad_warm_v0_fm_94","midi_source":""},{"t":34.515,"note":62,"dur":0.082,"vel":0.709,"inst":"cello_v0_additive_7","midi_source":""},{"t":34.597,"note":62,"dur":0.082,"vel":0.709,"inst":"cello_v0_additive_7","midi_source":""},{"t":34.679,"note":54,"dur":0.041,"vel":0.709,"inst":"cello_v0_additive_7","midi_source":""},{"t":34.679,"note":62,"dur":0.082,"vel":0.709,"inst":"cello_v0_additive_7","midi_source":""},{"t":34.679,"note":69,"dur":0.041,"vel":0.709,"inst":"pad_warm_v0_fm_94","midi_source":""},{"t":34.72,"note":55,"dur":0.041,"vel":0.709,"inst":"pad_warm_v0_fm_94","midi_source":""},{"t":34.72,"note":69,"dur":0.041,"vel":0.709,"inst":"pad_warm_v0_fm_94","midi_source":""},{"t":34.761,"note":57,"dur":0.163,"vel":0.709,"inst":"pad_warm_v0_fm_94","midi_source":""},{"t":34.761,"note":62,"dur":0.082,"vel":0.709,"inst":"cello_v0_additive_7","midi_source":""},{"t":34.761,"note":72,"dur":0.163,"vel":0.709,"inst":"cello_v0_additive_7","midi_source":""},{"t":34.842,"note":62,"dur":0.082,"vel":0.709,"inst":"cello_v0_additive_7","midi_source":""},{"t":34.924,"note":62,"dur":0.082,"vel":0.709,"inst":"cello_v0_additive_7","midi_source":""},{"t":35.006,"note":62,"dur":0.082,"vel":0.709,"inst":"cello_v0_additive_7","midi_source":""},{"t":35.087,"note":54,"dur":0.163,"vel":0.709,"inst":"cello_v0_additive_7","midi_source":""},{"t":35.087,"note":62,"dur":0.082,"vel":0.709,"inst":"cello_v0_additive_7","midi_source":""},{"t":35.087,"note":69,"dur":0.163,"vel":0.709,"inst":"pad_warm_v0_fm_94","midi_source":""},{"t":35.169,"note":62,"dur":0.082,"vel":0.709,"inst":"cello_v0_additive_7","midi_source":""},{"t":35.251,"note":62,"dur":0.082,"vel":0.709,"inst":"cello_v0_additive_7","midi_source":""},{"t":35.333,"note":62,"dur":0.082,"vel":0.709,"inst":"cello_v0_additive_7","midi_source":""},{"t":35.414,"note":55,"dur":0.082,"vel":0.709,"inst":"pad_warm_v0_fm_94","midi_source":""},{"t":35.414,"note":57,"dur":0.082,"vel":0.709,"inst":"pad_warm_v0_fm_94","midi_source":""},{"t":35.414,"note":69,"dur":0.245,"vel":0.709,"inst":"pad_warm_v0_fm_94","midi_source":""},{"t":35.414,"note":74,"dur":0.245,"vel":0.709,"inst":"cello_v0_additive_7","midi_source":""},{"t":35.496,"note":55,"dur":0.082,"vel":0.709,"inst":"pad_warm_v0_fm_94","midi_source":""},{"t":35.496,"note":57,"dur":0.082,"vel":0.709,"inst":"pad_warm_v0_fm_94","midi_source":""},{"t":35.578,"note":55,"dur":0.082,"vel":0.709,"inst":"pad_warm_v0_fm_94","midi_source":""},{"t":35.578,"note":57,"dur":0.082,"vel":0.709,"inst":"pad_warm_v0_fm_94","midi_source":""},{"t":35.66,"note":55,"dur":0.082,"vel":0.709,"inst":"pad_warm_v0_fm_94","midi_source":""},{"t":35.66,"note":57,"dur":0.082,"vel":0.709,"inst":"pad_warm_v0_fm_94","midi_source":""},{"t":35.66,"note":69,"dur":0.041,"vel":0.709,"inst":"pad_warm_v0_fm_94","midi_source":""},{"t":35.66,"note":72,"dur":0.041,"vel":0.709,"inst":"cello_v0_additive_7","midi_source":""},{"t":35.7,"note":69,"dur":0.041,"vel":0.709,"inst":"pad_warm_v0_fm_94","midi_source":""},{"t":35.7,"note":74,"dur":0.041,"vel":0.709,"inst":"cello_v0_additive_7","midi_source":""},{"t":35.741,"note":48,"dur":0.082,"vel":0.709,"inst":"cello_v0_additive_7","midi_source":""},{"t":35.741,"note":55,"dur":0.082,"vel":0.709,"inst":"pad_warm_v0_fm_94","midi_source":""},{"t":35.741,"note":72,"dur":0.327,"vel":0.709,"inst":"cello_v0_additive_7","midi_source":""},{"t":35.741,"note":74,"dur":0.327,"vel":0.709,"inst":"cello_v0_additive_7","midi_source":""},{"t":35.823,"note":48,"dur":0.082,"vel":0.709,"inst":"cello_v0_additive_7","midi_source":""},{"t":35.823,"note":55,"dur":0.082,"vel":0.709,"inst":"pad_warm_v0_fm_94","midi_source":""},{"t":35.905,"note":48,"dur":0.082,"vel":0.709,"inst":"cello_v0_additive_7","midi_source":""},{"t":35.905,"note":55,"dur":0.082,"vel":0.709,"inst":"pad_warm_v0_fm_94","midi_source":""},{"t":35.986,"note":48,"dur":0.082,"vel":0.709,"inst":"cello_v0_additive_7","midi_source":""},{"t":35.986,"note":55,"dur":0.082,"vel":0.709,"inst":"pad_warm_v0_fm_94","midi_source":""},{"t":36.068,"note":52,"dur":0.082,"vel":0.709,"inst":"cello_v0_additive_7","midi_source":""},{"t":36.068,"note":57,"dur":0.082,"vel":0.709,"inst":"pad_warm_v0_fm_94","midi_source":""},{"t":36.068,"note":62,"dur":0.163,"vel":0.709,"inst":"cello_v0_additive_7","midi_source":""},{"t":36.068,"note":72,"dur":0.163,"vel":0.709,"inst":"cello_v0_additive_7","midi_source":""},{"t":36.15,"note":52,"dur":0.082,"vel":0.709,"inst":"cello_v0_additive_7","midi_source":""},{"t":36.15,"note":57,"dur":0.082,"vel":0.709,"inst":"pad_warm_v0_fm_94","midi_source":""},{"t":36.232,"note":52,"dur":0.082,"vel":0.709,"inst":"cello_v0_additive_7","midi_source":""},{"t":36.232,"note":57,"dur":0.082,"vel":0.709,"inst":"pad_warm_v0_fm_94","midi_source":""},{"t":36.232,"note":60,"dur":0.163,"vel":0.709,"inst":"cello_v0_additive_7","midi_source":""},{"t":36.232,"note":69,"dur":0.163,"vel":0.709,"inst":"pad_warm_v0_fm_94","midi_source":""},{"t":36.313,"note":52,"dur":0.082,"vel":0.709,"inst":"cello_v0_additive_7","midi_source":""},{"t":36.313,"note":57,"dur":0.082,"vel":0.709,"inst":"pad_warm_v0_fm_94","midi_source":""},{"t":36.395,"note":50,"dur":0.082,"vel":0.709,"inst":"cello_v0_additive_7","midi_source":""},{"t":36.395,"note":57,"dur":0.49,"vel":0.709,"inst":"pad_warm_v0_fm_94","midi_source":""},{"t":36.395,"note":57,"dur":0.082,"vel":0.709,"inst":"pad_warm_v0_fm_94","midi_source":""},{"t":36.395,"note":76,"dur":0.245,"vel":0.709,"inst":"cello_v0_additive_7","midi_source":""},{"t":36.477,"note":50,"dur":0.082,"vel":0.709,"inst":"cello_v0_additive_7","midi_source":""},{"t":36.477,"note":57,"dur":0.082,"vel":0.709,"inst":"pad_warm_v0_fm_94","midi_source":""},{"t":36.559,"note":50,"dur":0.082,"vel":0.709,"inst":"cello_v0_additive_7","midi_source":""},{"t":36.559,"note":57,"dur":0.082,"vel":0.709,"inst":"pad_warm_v0_fm_94","midi_source":""},{"t":36.64,"note":50,"dur":0.082,"vel":0.709,"inst":"cello_v0_additive_7","midi_source":""},{"t":36.64,"note":57,"dur":0.082,"vel":0.709,"inst":"pad_warm_v0_fm_94","midi_source":""},{"t":36.64,"note":74,"dur":0.041,"vel":0.709,"inst":"cello_v0_additive_7","midi_source":""},{"t":36.681,"note":76,"dur":0.041,"vel":0.709,"inst":"cello_v0_additive_7","midi_source":""},{"t":36.722,"note":50,"dur":0.082,"vel":0.709,"inst":"cello_v0_additive_7","midi_source":""},{"t":36.722,"note":55,"dur":0.082,"vel":0.709,"inst":"pad_warm_v0_fm_94","midi_source":""},{"t":36.722,"note":79,"dur":0.163,"vel":0.709,"inst":"pad_warm_v0_fm_94","midi_source":""},{"t":36.804,"note":50,"dur":0.082,"vel":0.709,"inst":"cello_v0_additive_7","midi_source":""},{"t":36.804,"note":55,"dur":0.082,"vel":0.709,"inst":"pad_warm_v0_fm_94","midi_source":""},{"t":36.885,"note":50,"dur":0.082,"vel":0.709,"inst":"cello_v0_additive_7","midi_source":""},{"t":36.885,"note":55,"dur":0.082,"vel":0.709,"inst":"pad_warm_v0_fm_94","midi_source":""},{"t":36.885,"note":67,"dur":0.163,"vel":0.709,"inst":"pad_warm_v0_fm_94","midi_source":""},{"t":36.885,"note":74,"dur":0.163,"vel":0.709,"inst":"cello_v0_additive_7","midi_source":""},{"t":36.967,"note":50,"dur":0.082,"vel":0.709,"inst":"cello_v0_additive_7","midi_source":""},{"t":36.967,"note":55,"dur":0.082,"vel":0.709,"inst":"pad_warm_v0_fm_94","midi_source":""},{"t":37.049,"note":52,"dur":0.082,"vel":0.709,"inst":"cello_v0_additive_7","midi_source":""},{"t":37.049,"note":57,"dur":0.082,"vel":0.709,"inst":"pad_warm_v0_fm_94","midi_source":""},{"t":37.049,"note":62,"dur":0.163,"vel":0.709,"inst":"cello_v0_additive_7","midi_source":""},{"t":37.049,"note":72,"dur":0.163,"vel":0.709,"inst":"cello_v0_additive_7","midi_source":""},{"t":37.131,"note":52,"dur":0.082,"vel":0.709,"inst":"cello_v0_additive_7","midi_source":""},{"t":37.131,"note":57,"dur":0.082,"vel":0.709,"inst":"pad_warm_v0_fm_94","midi_source":""},{"t":37.212,"note":52,"dur":0.082,"vel":0.709,"inst":"cello_v0_additive_7","midi_source":""},{"t":37.212,"note":60,"dur":0.163,"vel":0.709,"inst":"cello_v0_additive_7","midi_source":""},{"t":37.212,"note":60,"dur":0.082,"vel":0.709,"inst":"cello_v0_additive_7","midi_source":""},{"t":37.212,"note":69,"dur":0.163,"vel":0.709,"inst":"pad_warm_v0_fm_94","midi_source":""},{"t":37.294,"note":52,"dur":0.082,"vel":0.709,"inst":"cello_v0_additive_7","midi_source":""},{"t":37.294,"note":60,"dur":0.082,"vel":0.709,"inst":"cello_v0_additive_7","midi_source":""},{"t":37.376,"note":45,"dur":0.082,"vel":0.709,"inst":"pad_warm_v0_fm_94","midi_source":""},{"t":37.376,"note":57,"dur":0.327,"vel":0.709,"inst":"pad_warm_v0_fm_94","midi_source":""},{"t":37.376,"note":62,"dur":0.654,"vel":0.709,"inst":"cello_v0_additive_7","midi_source":""},{"t":37.376,"note":69,"dur":0.654,"vel":0.709,"inst":"pad_warm_v0_fm_94","midi_source":""},{"t":37.458,"note":48,"dur":0.082,"vel":0.709,"inst":"cello_v0_additive_7","midi_source":""},{"t":37.539,"note":45,"dur":0.082,"vel":0.709,"inst":"pad_warm_v0_fm_94","midi_source":""},{"t":37.621,"note":45,"dur":0.082,"vel":0.709,"inst":"pad_warm_v0_fm_94","midi_source":""},{"t":37.703,"note":45,"dur":0.082,"vel":0.709,"inst":"pad_warm_v0_fm_94","midi_source":""},{"t":37.703,"note":52,"dur":0.327,"vel":0.709,"inst":"cello_v0_additive_7","midi_source":""},{"t":37.784,"note":48,"dur":0.082,"vel":0.709,"inst":"cello_v0_additive_7","midi_source":""},{"t":37.866,"note":45,"dur":0.082,"vel":0.709,"inst":"pad_warm_v0_fm_94","midi_source":""},{"t":37.948,"note":45,"dur":0.082,"vel":0.709,"inst":"pad_warm_v0_fm_94","midi_source":""},{"t":38.03,"note":45,"dur":0.082,"vel":0.709,"inst":"pad_warm_v0_fm_94","midi_source":""},{"t":38.03,"note":52,"dur":0.327,"vel":0.709,"inst":"cello_v0_additive_7","midi_source":""},{"t":38.03,"note":62,"dur":0.327,"vel":0.709,"inst":"cello_v0_additive_7","midi_source":""},{"t":38.03,"note":67,"dur":0.327,"vel":0.709,"inst":"pad_warm_v0_fm_94","midi_source":""},{"t":38.111,"note":45,"dur":0.082,"vel":0.709,"inst":"pad_warm_v0_fm_94","midi_source":""},{"t":38.193,"note":45,"dur":0.082,"vel":0.709,"inst":"pad_warm_v0_fm_94","midi_source":""},{"t":38.275,"note":47,"dur":0.082,"vel":0.709,"inst":"pad_warm_v0_fm_94","midi_source":""},{"t":38.357,"note":48,"dur":0.082,"vel":0.709,"inst":"cello_v0_additive_7","midi_source":""},{"t":38.357,"note":50,"dur":0.654,"vel":0.709,"inst":"cello_v0_additive_7","midi_source":""},{"t":38.357,"note":62,"dur":0.654,"vel":0.709,"inst":"cello_v0_additive_7","midi_source":""},{"t":38.357,"note":67,"dur":0.654,"vel":0.709,"inst":"pad_warm_v0_fm_94","midi_source":""},{"t":38.438,"note":50,"dur":0.082,"vel":0.709,"inst":"cello_v0_additive_7","midi_source":""},{"t":38.52,"note":48,"dur":0.082,"vel":0.709,"inst":"cello_v0_additive_7","midi_source":""},{"t":38.602,"note":47,"dur":0.082,"vel":0.709,"inst":"pad_warm_v0_fm_94","midi_source":""},{"t":38.683,"note":48,"dur":0.082,"vel":0.709,"inst":"cello_v0_additive_7","midi_source":""},{"t":38.765,"note":50,"dur":0.082,"vel":0.709,"inst":"cello_v0_additive_7","midi_source":""},{"t":38.847,"note":48,"dur":0.082,"vel":0.709,"inst":"cello_v0_additive_7","midi_source":""},{"t":38.929,"note":47,"dur":0.082,"vel":0.709,"inst":"pad_warm_v0_fm_94","midi_source":""},{"t":39.01,"note":48,"dur":0.082,"vel":0.709,"inst":"cello_v0_additive_7","midi_source":""},{"t":39.01,"note":55,"dur":0.327,"vel":0.709,"inst":"pad_warm_v0_fm_94","midi_source":""},{"t":39.01,"note":64,"dur":0.327,"vel":0.709,"inst":"cello_v0_additive_7","midi_source":""},{"t":39.01,"note":69,"dur":0.327,"vel":0.709,"inst":"pad_warm_v0_fm_94","midi_source":""},{"t":39.092,"note":47,"dur":0.082,"vel":0.709,"inst":"pad_warm_v0_fm_94","midi_source":""},{"t":39.174,"note":48,"dur":0.082,"vel":0.709,"inst":"cello_v0_additive_7","midi_source":""},{"t":39.256,"note":48,"dur":0.082,"vel":0.709,"inst":"cello_v0_additive_7","midi_source":""},{"t":39.337,"note":50,"dur":0.082,"vel":0.709,"inst":"cello_v0_additive_7","midi_source":""},{"t":39.337,"note":54,"dur":0.327,"vel":0.709,"inst":"cello_v0_additive_7","midi_source":""},{"t":39.337,"note":66,"dur":0.327,"vel":0.709,"inst":"cello_v0_additive_7","midi_source":""},{"t":39.337,"note":69,"dur":0.327,"vel":0.709,"inst":"pad_warm_v0_fm_94","midi_source":""},{"t":39.419,"note":50,"dur":0.082,"vel":0.709,"inst":"cello_v0_additive_7","midi_source":""},{"t":39.501,"note":62,"dur":0.082,"vel":0.709,"inst":"cello_v0_additive_7","midi_source":""},{"t":39.583,"note":57,"dur":0.041,"vel":0.709,"inst":"pad_warm_v0_fm_94","midi_source":""},{"t":39.583,"note":62,"dur":0.082,"vel":0.709,"inst":"cello_v0_additive_7","midi_source":""},{"t":39.583,"note":66,"dur":0.041,"vel":0.709,"inst":"cello_v0_additive_7","midi_source":""},{"t":39.623,"note":59,"dur":0.041,"vel":0.709,"inst":"pad_warm_v0_fm_94","midi_source":""},{"t":39.623,"note":67,"dur":0.041,"vel":0.709,"inst":"pad_warm_v0_fm_94","midi_source":""},{"t":39.664,"note":60,"dur":0.163,"vel":0.709,"inst":"cello_v0_additive_7","midi_source":""},{"t":39.664,"note":62,"dur":0.082,"vel":0.709,"inst":"cello_v0_additive_7","midi_source":""},{"t":39.664,"note":69,"dur":0.163,"vel":0.709,"inst":"pad_warm_v0_fm_94","midi_source":""},{"t":39.746,"note":62,"dur":0.082,"vel":0.709,"inst":"cello_v0_additive_7","midi_source":""},{"t":39.828,"note":62,"dur":0.082,"vel":0.709,"inst":"cello_v0_additive_7","midi_source":""},{"t":39.909,"note":62,"dur":0.082,"vel":0.709,"inst":"cello_v0_additive_7","midi_source":""},{"t":39.991,"note":57,"dur":0.163,"vel":0.709,"inst":"pad_warm_v0_fm_94","midi_source":""},{"t":39.991,"note":62,"dur":0.082,"vel":0.709,"inst":"cello_v0_additive_7","midi_source":""},{"t":39.991,"note":66,"dur":0.163,"vel":0.709,"inst":"cello_v0_additive_7","midi_source":""},{"t":40.073,"note":62,"dur":0.082,"vel":0.709,"inst":"cello_v0_additive_7","midi_source":""},{"t":40.155,"note":62,"dur":0.082,"vel":0.709,"inst":"cello_v0_additive_7","midi_source":""},{"t":40.236,"note":62,"dur":0.082,"vel":0.709,"inst":"cello_v0_additive_7","midi_source":""},{"t":40.318,"note":55,"dur":0.245,"vel":0.709,"inst":"pad_warm_v0_fm_94","midi_source":""},{"t":40.318,"note":62,"dur":0.082,"vel":0.709,"inst":"cello_v0_additive_7","midi_source":""},{"t":40.318,"note":71,"dur":0.245,"vel":0.709,"inst":"pad_warm_v0_fm_94","midi_source":""},{"t":40.4,"note":62,"dur":0.082,"vel":0.709,"inst":"cello_v0_additive_7","midi_source":""},{"t":40.482,"note":62,"dur":0.082,"vel":0.709,"inst":"cello_v0_additive_7","midi_source":""},{"t":40.563,"note":54,"dur":0.041,"vel":0.709,"inst":"cello_v0_additive_7","midi_source":""},{"t":40.563,"note":62,"dur":0.082,"vel":0.709,"inst":"cello_v0_additive_7","midi_source":""},{"t":40.563,"note":69,"dur":0.041,"vel":0.709,"inst":"pad_warm_v0_fm_94","midi_source":""},{"t":40.604,"note":55,"dur":0.041,"vel":0.709,"inst":"pad_warm_v0_fm_94","midi_source":""},{"t":40.604,"note":71,"dur":0.041,"vel":0.709,"inst":"pad_warm_v0_fm_94","midi_source":""},{"t":40.645,"note":57,"dur":0.163,"vel":0.709,"inst":"pad_warm_v0_fm_94","midi_source":""},{"t":40.645,"note":62,"dur":0.082,"vel":0.709,"inst":"cello_v0_additive_7","midi_source":""},{"t":40.645,"note":72,"dur":0.163,"vel":0.709,"inst":"cello_v0_additive_7","midi_source":""},{"t":40.727,"note":62,"dur":0.082,"vel":0.709,"inst":"cello_v0_additive_7","midi_source":""},{"t":40.808,"note":62,"dur":0.082,"vel":0.709,"inst":"cello_v0_additive_7","midi_source":""},{"t":40.89,"note":62,"dur":0.082,"vel":0.709,"inst":"cello_v0_additive_7","midi_source":""},{"t":40.972,"note":54,"dur":0.163,"vel":0.709,"inst":"cello_v0_additive_7","midi_source":""},{"t":40.972,"note":62,"dur":0.082,"vel":0.709,"inst":"cello_v0_additive_7","midi_source":""},{"t":40.972,"note":69,"dur":0.163,"vel":0.709,"inst":"pad_warm_v0_fm_94","midi_source":""},{"t":41.054,"note":62,"dur":0.082,"vel":0.709,"inst":"cello_v0_additive_7","midi_source":""},{"t":41.135,"note":62,"dur":0.082,"vel":0.709,"inst":"cello_v0_additive_7","midi_source":""},{"t":41.217,"note":62,"dur":0.082,"vel":0.709,"inst":"cello_v0_additive_7","midi_source":""},{"t":41.299,"note":47,"dur":0.082,"vel":0.709,"inst":"pad_warm_v0_fm_94","midi_source":""},{"t":41.299,"note":55,"dur":0.082,"vel":0.709,"inst":"pad_warm_v0_fm_94","midi_source":""},{"t":41.299,"note":55,"dur":0.082,"vel":0.709,"inst":"pad_warm_v0_fm_94","midi_source":""},{"t":41.299,"note":74,"dur":0.245,"vel":0.709,"inst":"cello_v0_additive_7","midi_source":""},{"t":41.381,"note":47,"dur":0.082,"vel":0.709,"inst":"pad_warm_v0_fm_94","midi_source":""},{"t":41.381,"note":55,"dur":0.082,"vel":0.709,"inst":"pad_warm_v0_fm_94","midi_source":""},{"t":41.381,"note":55,"dur":0.082,"vel":0.709,"inst":"pad_warm_v0_fm_94","midi_source":""},{"t":41.462,"note":47,"dur":0.082,"vel":0.709,"inst":"pad_warm_v0_fm_94","midi_source":""},{"t":41.462,"note":55,"dur":0.082,"vel":0.709,"inst":"pad_warm_v0_fm_94","midi_source":""},{"t":41.462,"note":55,"dur":0.082,"vel":0.709,"inst":"pad_warm_v0_fm_94","midi_source":""},{"t":41.544,"note":47,"dur":0.082,"vel":0.709,"inst":"pad_warm_v0_fm_94","midi_source":""},{"t":41.544,"note":55,"dur":0.082,"vel":0.709,"inst":"pad_warm_v0_fm_94","midi_source":""},{"t":41.544,"note":55,"dur":0.082,"vel":0.709,"inst":"pad_warm_v0_fm_94","midi_source":""},{"t":41.544,"note":74,"dur":0.041,"vel":0.709,"inst":"cello_v0_additive_7","midi_source":""},{"t":41.585,"note":76,"dur":0.041,"vel":0.709,"inst":"cello_v0_additive_7","midi_source":""},{"t":41.626,"note":47,"dur":0.082,"vel":0.709,"inst":"pad_warm_v0_fm_94","midi_source":""},{"t":41.626,"note":55,"dur":0.082,"vel":0.709,"inst":"pad_warm_v0_fm_94","midi_source":""},{"t":41.626,"note":62,"dur":0.082,"vel":0.709,"inst":"cello_v0_additive_7","midi_source":""},{"t":41.626,"note":76,"dur":0.327,"vel":0.709,"inst":"cello_v0_additive_7","midi_source":""},{"t":41.707,"note":47,"dur":0.082,"vel":0.709,"inst":"pad_warm_v0_fm_94","midi_source":""},{"t":41.707,"note":55,"dur":0.082,"vel":0.709,"inst":"pad_warm_v0_fm_94","midi_source":""},{"t":41.707,"note":62,"dur":0.082,"vel":0.709,"inst":"cello_v0_additive_7","midi_source":""},{"t":41.789,"note":47,"dur":0.082,"vel":0.709,"inst":"pad_warm_v0_fm_94","midi_source":""},{"t":41.789,"note":55,"dur":0.082,"vel":0.709,"inst":"pad_warm_v0_fm_94","midi_source":""},{"t":41.789,"note":62,"dur":0.082,"vel":0.709,"inst":"cello_v0_additive_7","midi_source":""},{"t":41.871,"note":47,"dur":0.082,"vel":0.709,"inst":"pad_warm_v0_fm_94","midi_source":""},{"t":41.871,"note":55,"dur":0.082,"vel":0.709,"inst":"pad_warm_v0_fm_94","midi_source":""},{"t":41.871,"note":62,"dur":0.082,"vel":0.709,"inst":"cello_v0_additive_7","midi_source":""},{"t":41.953,"note":48,"dur":0.082,"vel":0.709,"inst":"cello_v0_additive_7","midi_source":""},{"t":41.953,"note":57,"dur":0.082,"vel":0.709,"inst":"pad_warm_v0_fm_94","midi_source":""},{"t":41.953,"note":60,"dur":0.082,"vel":0.709,"inst":"cello_v0_additive_7","midi_source":""},{"t":41.953,"note":76,"dur":0.041,"vel":0.709,"inst":"cello_v0_additive_7","midi_source":""},{"t":41.994,"note":72,"dur":0.041,"vel":0.709,"inst":"cello_v0_additive_7","midi_source":""},{"t":42.034,"note":48,"dur":0.082,"vel":0.709,"inst":"cello_v0_additive_7","midi_source":""},{"t":42.034,"note":57,"dur":0.082,"vel":0.709,"inst":"pad_warm_v0_fm_94","midi_source":""},{"t":42.034,"note":60,"dur":0.082,"vel":0.709,"inst":"cello_v0_additive_7","midi_source":""},{"t":42.034,"note":71,"dur":0.041,"vel":0.709,"inst":"pad_warm_v0_fm_94","midi_source":""},{"t":42.075,"note":69,"dur":0.041,"vel":0.709,"inst":"pad_warm_v0_fm_94","midi_source":""},{"t":42.116,"note":48,"dur":0.082,"vel":0.709,"inst":"cello_v0_additive_7","midi_source":""},{"t":42.116,"note":57,"dur":0.082,"vel":0.709,"inst":"pad_warm_v0_fm_94","midi_source":""},{"t":42.116,"note":60,"dur":0.082,"vel":0.709,"inst":"cello_v0_additive_7","midi_source":""},{"t":42.116,"note":67,"dur":0.041,"vel":0.709,"inst":"pad_warm_v0_fm_94","midi_source":""},{"t":42.157,"note":69,"dur":0.041,"vel":0.709,"inst":"pad_warm_v0_fm_94","midi_source":""},{"t":42.198,"note":48,"dur":0.082,"vel":0.709,"inst":"cello_v0_additive_7","midi_source":""},{"t":42.198,"note":57,"dur":0.082,"vel":0.709,"inst":"pad_warm_v0_fm_94","midi_source":""},{"t":42.198,"note":60,"dur":0.082,"vel":0.709,"inst":"cello_v0_additive_7","midi_source":""},{"t":42.198,"note":72,"dur":0.041,"vel":0.709,"inst":"cello_v0_additive_7","midi_source":""},{"t":42.239,"note":69,"dur":0.041,"vel":0.709,"inst":"pad_warm_v0_fm_94","midi_source":""},{"t":42.28,"note":50,"dur":0.082,"vel":0.709,"inst":"cello_v0_additive_7","midi_source":""},{"t":42.28,"note":55,"dur":0.082,"vel":0.709,"inst":"pad_warm_v0_fm_94","midi_source":""},{"t":42.28,"note":59,"dur":0.082,"vel":0.709,"inst":"pad_warm_v0_fm_94","midi_source":""},{"t":42.28,"note":67,"dur":0.041,"vel":0.709,"inst":"pad_warm_v0_fm_94","midi_source":""},{"t":42.32,"note":69,"dur":0.041,"vel":0.709,"inst":"pad_warm_v0_fm_94","midi_source":""},{"t":42.361,"note":50,"dur":0.082,"vel":0.709,"inst":"cello_v0_additive_7","midi_source":""},{"t":42.361,"note":55,"dur":0.082,"vel":0.709,"inst":"pad_warm_v0_fm_94","midi_source":""},{"t":42.361,"note":59,"dur":0.082,"vel":0.709,"inst":"pad_warm_v0_fm_94","midi_source":""},{"t":42.361,"note":71,"dur":0.041,"vel":0.709,"inst":"pad_warm_v0_fm_94","midi_source":""},{"t":42.402,"note":72,"dur":0.041,"vel":0.709,"inst":"cello_v0_additive_7","midi_source":""},{"t":42.443,"note":50,"dur":0.082,"vel":0.709,"inst":"cello_v0_additive_7","midi_source":""},{"t":42.443,"note":55,"dur":0.082,"vel":0.709,"inst":"pad_warm_v0_fm_94","midi_source":""},{"t":42.443,"note":59,"dur":0.082,"vel":0.709,"inst":"pad_warm_v0_fm_94","midi_source":""},{"t":42.443,"note":74,"dur":0.041,"vel":0.709,"inst":"cello_v0_additive_7","midi_source":""},{"t":42.484,"note":76,"dur":0.041,"vel":0.709,"inst":"cello_v0_additive_7","midi_source":""},{"t":42.525,"note":50,"dur":0.082,"vel":0.709,"inst":"cello_v0_additive_7","midi_source":""},{"t":42.525,"note":55,"dur":0.082,"vel":0.709,"inst":"pad_warm_v0_fm_94","midi_source":""},{"t":42.525,"note":59,"dur":0.082,"vel":0.709,"inst":"pad_warm_v0_fm_94","midi_source":""},{"t":42.525,"note":74,"dur":0.041,"vel":0.709,"inst":"cello_v0_additive_7","midi_source":""},{"t":42.566,"note":76,"dur":0.041,"vel":0.709,"inst":"cello_v0_additive_7","midi_source":""},{"t":42.606,"note":50,"dur":0.163,"vel":0.709,"inst":"cello_v0_additive_7","midi_source":""},{"t":42.606,"note":55,"dur":0.163,"vel":0.709,"inst":"pad_warm_v0_fm_94","midi_source":""},{"t":42.606,"note":59,"dur":0.163,"vel":0.709,"inst":"pad_warm_v0_fm_94","midi_source":""},{"t":42.606,"note":74,"dur":0.163,"vel":0.709,"inst":"cello_v0_additive_7","midi_source":""},{"t":42.933,"note":50,"dur":0.163,"vel":0.709,"inst":"cello_v0_additive_7","midi_source":""},{"t":42.933,"note":57,"dur":0.163,"vel":0.709,"inst":"pad_warm_v0_fm_94","midi_source":""},{"t":42.933,"note":60,"dur":0.163,"vel":0.709,"inst":"cello_v0_additive_7","midi_source":""},{"t":42.933,"note":66,"dur":0.163,"vel":0.709,"inst":"cello_v0_additive_7","midi_source":""},{"t":43.26,"note":59,"dur":0.245,"vel":0.709,"inst":"pad_warm_v0_fm_94","midi_source":""},{"t":43.26,"note":62,"dur":0.082,"vel":0.709,"inst":"cello_v0_additive_7","midi_source":""},{"t":43.26,"note":67,"dur":0.245,"vel":0.709,"inst":"pad_warm_v0_fm_94","midi_source":""},{"t":43.342,"note":62,"dur":0.082,"vel":0.709,"inst":"cello_v0_additive_7","midi_source":""},{"t":43.424,"note":62,"dur":0.082,"vel":0.709,"inst":"cello_v0_additive_7","midi_source":""},{"t":43.505,"note":57,"dur":0.041,"vel":0.709,"inst":"pad_warm_v0_fm_94","midi_source":""},{"t":43.505,"note":62,"dur":0.082,"vel":0.709,"inst":"cello_v0_additive_7","midi_source":""},{"t":43.505,"note":66,"dur":0.041,"vel":0.709,"inst":"cello_v0_additive_7","midi_source":""},{"t":43.546,"note":59,"dur":0.041,"vel":0.709,"inst":"pad_warm_v0_fm_94","midi_source":""},{"t":43.546,"note":67,"dur":0.041,"vel":0.709,"inst":"pad_warm_v0_fm_94","midi_source":""},{"t":43.587,"note":60,"dur":0.163,"vel":0.709,"inst":"cello_v0_additive_7","midi_source":""},{"t":43.587,"note":62,"dur":0.082,"vel":0.709,"inst":"cello_v0_additive_7","midi_source":""},{"t":43.587,"note":69,"dur":0.163,"vel":0.709,"inst":"pad_warm_v0_fm_94","midi_source":""},{"t":43.669,"note":62,"dur":0.082,"vel":0.709,"inst":"cello_v0_additive_7","midi_source":""},{"t":43.751,"note":62,"dur":0.082,"vel":0.709,"inst":"cello_v0_additive_7","midi_source":""},{"t":43.832,"note":62,"dur":0.082,"vel":0.709,"inst":"cello_v0_additive_7","midi_source":""},{"t":43.914,"note":57,"dur":0.163,"vel":0.709,"inst":"pad_warm_v0_fm_94","midi_source":""},{"t":43.914,"note":62,"dur":0.082,"vel":0.709,"inst":"cello_v0_additive_7","midi_source":""},{"t":43.914,"note":66,"dur":0.163,"vel":0.709,"inst":"cello_v0_additive_7","midi_source":""},{"t":43.996,"note":62,"dur":0.082,"vel":0.709,"inst":"cello_v0_additive_7","midi_source":""},{"t":44.078,"note":62,"dur":0.082,"vel":0.709,"inst":"cello_v0_additive_7","midi_source":""},{"t":44.159,"note":62,"dur":0.082,"vel":0.709,"inst":"cello_v0_additive_7","midi_source":""},{"t":44.241,"note":55,"dur":0.245,"vel":0.709,"inst":"pad_warm_v0_fm_94","midi_source":""},{"t":44.241,"note":62,"dur":0.082,"vel":0.709,"inst":"cello_v0_additive_7","midi_source":""},{"t":44.241,"note":69,"dur":0.245,"vel":0.709,"inst":"pad_warm_v0_fm_94","midi_source":""},{"t":44.323,"note":62,"dur":0.082,"vel":0.709,"inst":"cello_v0_additive_7","midi_source":""},{"t":44.404,"note":62,"dur":0.082,"vel":0.709,"inst":"cello_v0_additive_7","midi_source":""},{"t":44.486,"note":54,"dur":0.041,"vel":0.709,"inst":"cello_v0_additive_7","midi_source":""},{"t":44.486,"note":62,"dur":0.082,"vel":0.709,"inst":"cello_v0_additive_7","midi_source":""},{"t":44.486,"note":69,"dur":0.041,"vel":0.709,"inst":"pad_warm_v0_fm_94","midi_source":""},{"t":44.527,"note":55,"dur":0.041,"vel":0.709,"inst":"pad_warm_v0_fm_94","midi_source":""},{"t":44.527,"note":69,"dur":0.041,"vel":0.709,"inst":"pad_warm_v0_fm_94","midi_source":""},{"t":44.568,"note":57,"dur":0.163,"vel":0.709,"inst":"pad_warm_v0_fm_94","midi_source":""},{"t":44.568,"note":62,"dur":0.082,"vel":0.709,"inst":"cello_v0_additive_7","midi_source":""},{"t":44.568,"note":72,"dur":0.163,"vel":0.709,"inst":"cello_v0_additive_7","midi_source":""},{"t":44.65,"note":62,"dur":0.082,"vel":0.709,"inst":"cello_v0_additive_7","midi_source":""},{"t":44.731,"note":62,"dur":0.082,"vel":0.709,"inst":"cello_v0_additive_7","midi_source":""},{"t":44.813,"note":62,"dur":0.082,"vel":0.709,"inst":"cello_v0_additive_7","midi_source":""},{"t":44.895,"note":54,"dur":0.163,"vel":0.709,"inst":"cello_v0_additive_7","midi_source":""},{"t":44.895,"note":62,"dur":0.082,"vel":0.709,"inst":"cello_v0_additive_7","midi_source":""},{"t":44.895,"note":69,"dur":0.163,"vel":0.709,"inst":"pad_warm_v0_fm_94","midi_source":""},{"t":44.977,"note":62,"dur":0.082,"vel":0.709,"inst":"cello_v0_additive_7","midi_source":""},{"t":45.058,"note":62,"dur":0.082,"vel":0.709,"inst":"cello_v0_additive_7","midi_source":""},{"t":45.14,"note":62,"dur":0.082,"vel":0.709,"inst":"cello_v0_additive_7","midi_source":""},{"t":45.222,"note":55,"dur":0.082,"vel":0.709,"inst":"pad_warm_v0_fm_94","midi_source":""},{"t":45.222,"note":57,"dur":0.082,"vel":0.709,"inst":"pad_warm_v0_fm_94","midi_source":""},{"t":45.222,"note":69,"dur":0.245,"vel":0.709,"inst":"pad_warm_v0_fm_94","midi_source":""},{"t":45.222,"note":74,"dur":0.245,"vel":0.709,"inst":"cello_v0_additive_7","midi_source":""},{"t":45.304,"note":55,"dur":0.082,"vel":0.709,"inst":"pad_warm_v0_fm_94","midi_source":""},{"t":45.304,"note":57,"dur":0.082,"vel":0.709,"inst":"pad_warm_v0_fm_94","midi_source":""},{"t":45.385,"note":55,"dur":0.082,"vel":0.709,"inst":"pad_warm_v0_fm_94","midi_source":""},{"t":45.385,"note":57,"dur":0.082,"vel":0.709,"inst":"pad_warm_v0_fm_94","midi_source":""},{"t":45.467,"note":55,"dur":0.082,"vel":0.709,"inst":"pad_warm_v0_fm_94","midi_source":""},{"t":45.467,"note":57,"dur":0.082,"vel":0.709,"inst":"pad_warm_v0_fm_94","midi_source":""},{"t":45.467,"note":69,"dur":0.041,"vel":0.709,"inst":"pad_warm_v0_fm_94","midi_source":""},{"t":45.467,"note":72,"dur":0.041,"vel":0.709,"inst":"cello_v0_additive_7","midi_source":""},{"t":45.508,"note":69,"dur":0.041,"vel":0.709,"inst":"pad_warm_v0_fm_94","midi_source":""},{"t":45.508,"note":74,"dur":0.041,"vel":0.709,"inst":"cello_v0_additive_7","midi_source":""},{"t":45.549,"note":48,"dur":0.082,"vel":0.709,"inst":"cello_v0_additive_7","midi_source":""},{"t":45.549,"note":55,"dur":0.082,"vel":0.709,"inst":"pad_warm_v0_fm_94","midi_source":""},{"t":45.549,"note":72,"dur":0.327,"vel":0.709,"inst":"cello_v0_additive_7","midi_source":""},{"t":45.549,"note":74,"dur":0.327,"vel":0.709,"inst":"cello_v0_additive_7","midi_source":""},{"t":45.63,"note":48,"dur":0.082,"vel":0.709,"inst":"cello_v0_additive_7","midi_source":""},{"t":45.63,"note":55,"dur":0.082,"vel":0.709,"inst":"pad_warm_v0_fm_94","midi_source":""},{"t":45.712,"note":48,"dur":0.082,"vel":0.709,"inst":"cello_v0_additive_7","midi_source":""},{"t":45.712,"note":55,"dur":0.082,"vel":0.709,"inst":"pad_warm_v0_fm_94","midi_source":""},{"t":45.794,"note":48,"dur":0.082,"vel":0.709,"inst":"cello_v0_additive_7","midi_source":""},{"t":45.794,"note":55,"dur":0.082,"vel":0.709,"inst":"pad_warm_v0_fm_94","midi_source":""},{"t":45.876,"note":52,"dur":0.082,"vel":0.709,"inst":"cello_v0_additive_7","midi_source":""},{"t":45.876,"note":57,"dur":0.082,"vel":0.709,"inst":"pad_warm_v0_fm_94","midi_source":""},{"t":45.876,"note":62,"dur":0.163,"vel":0.709,"inst":"cello_v0_additive_7","midi_source":""},{"t":45.876,"note":72,"dur":0.163,"vel":0.709,"inst":"cello_v0_additive_7","midi_source":""},{"t":45.957,"note":52,"dur":0.082,"vel":0.709,"inst":"cello_v0_additive_7","midi_source":""},{"t":45.957,"note":57,"dur":0.082,"vel":0.709,"inst":"pad_warm_v0_fm_94","midi_source":""},{"t":46.039,"note":52,"dur":0.082,"vel":0.709,"inst":"cello_v0_additive_7","midi_source":""},{"t":46.039,"note":57,"dur":0.082,"vel":0.709,"inst":"pad_warm_v0_fm_94","midi_source":""},{"t":46.039,"note":60,"dur":0.163,"vel":0.709,"inst":"cello_v0_additive_7","midi_source":""},{"t":46.039,"note":69,"dur":0.163,"vel":0.709,"inst":"pad_warm_v0_fm_94","midi_source":""},{"t":46.121,"note":52,"dur":0.082,"vel":0.709,"inst":"cello_v0_additive_7","midi_source":""},{"t":46.121,"note":57,"dur":0.082,"vel":0.709,"inst":"pad_warm_v0_fm_94","midi_source":""},{"t":46.203,"note":50,"dur":0.082,"vel":0.709,"inst":"cello_v0_additive_7","midi_source":""},{"t":46.203,"note":57,"dur":0.49,"vel":0.709,"inst":"pad_warm_v0_fm_94","midi_source":""},{"t":46.203,"note":57,"dur":0.082,"vel":0.709,"inst":"pad_warm_v0_fm_94","midi_source":""},{"t":46.203,"note":76,"dur":0.245,"vel":0.709,"inst":"cello_v0_additive_7","midi_source":""},{"t":46.284,"note":50,"dur":0.082,"vel":0.709,"inst":"cello_v0_additive_7","midi_source":""},{"t":46.284,"note":57,"dur":0.082,"vel":0.709,"inst":"pad_warm_v0_fm_94","midi_source":""},{"t":46.366,"note":50,"dur":0.082,"vel":0.709,"inst":"cello_v0_additive_7","midi_source":""},{"t":46.366,"note":57,"dur":0.082,"vel":0.709,"inst":"pad_warm_v0_fm_94","midi_source":""},{"t":46.448,"note":50,"dur":0.082,"vel":0.709,"inst":"cello_v0_additive_7","midi_source":""},{"t":46.448,"note":57,"dur":0.082,"vel":0.709,"inst":"pad_warm_v0_fm_94","midi_source":""},{"t":46.448,"note":74,"dur":0.041,"vel":0.709,"inst":"cello_v0_additive_7","midi_source":""},{"t":46.489,"note":76,"dur":0.041,"vel":0.709,"inst":"cello_v0_additive_7","midi_source":""},{"t":46.529,"note":50,"dur":0.082,"vel":0.709,"inst":"cello_v0_additive_7","midi_source":""},{"t":46.529,"note":55,"dur":0.082,"vel":0.709,"inst":"pad_warm_v0_fm_94","midi_source":""},{"t":46.529,"note":79,"dur":0.163,"vel":0.709,"inst":"pad_warm_v0_fm_94","midi_source":""},{"t":46.611,"note":50,"dur":0.082,"vel":0.709,"inst":"cello_v0_additive_7","midi_source":""},{"t":46.611,"note":55,"dur":0.082,"vel":0.709,"inst":"pad_warm_v0_fm_94","midi_source":""},{"t":46.693,"note":50,"dur":0.082,"vel":0.709,"inst":"cello_v0_additive_7","midi_source":""},{"t":46.693,"note":55,"dur":0.082,"vel":0.709,"inst":"pad_warm_v0_fm_94","midi_source":""},{"t":46.693,"note":67,"dur":0.163,"vel":0.709,"inst":"pad_warm_v0_fm_94","midi_source":""},{"t":46.693,"note":74,"dur":0.163,"vel":0.709,"inst":"cello_v0_additive_7","midi_source":""},{"t":46.775,"note":50,"dur":0.082,"vel":0.709,"inst":"cello_v0_additive_7","midi_source":""},{"t":46.775,"note":55,"dur":0.082,"vel":0.709,"inst":"pad_warm_v0_fm_94","midi_source":""},{"t":46.856,"note":52,"dur":0.082,"vel":0.709,"inst":"cello_v0_additive_7","midi_source":""},{"t":46.856,"note":57,"dur":0.082,"vel":0.709,"inst":"pad_warm_v0_fm_94","midi_source":""},{"t":46.856,"note":62,"dur":0.163,"vel":0.709,"inst":"cello_v0_additive_7","midi_source":""},{"t":46.856,"note":72,"dur":0.163,"vel":0.709,"inst":"cello_v0_additive_7","midi_source":""},{"t":46.938,"note":52,"dur":0.082,"vel":0.709,"inst":"cello_v0_additive_7","midi_source":""},{"t":46.938,"note":57,"dur":0.082,"vel":0.709,"inst":"pad_warm_v0_fm_94","midi_source":""},{"t":47.02,"note":52,"dur":0.082,"vel":0.709,"inst":"cello_v0_additive_7","midi_source":""},{"t":47.02,"note":60,"dur":0.163,"vel":0.709,"inst":"cello_v0_additive_7","midi_source":""},{"t":47.02,"note":60,"dur":0.082,"vel":0.709,"inst":"cello_v0_additive_7","midi_source":""},{"t":47.02,"note":69,"dur":0.163,"vel":0.709,"inst":"pad_warm_v0_fm_94","midi_source":""},{"t":47.102,"note":52,"dur":0.082,"vel":0.709,"inst":"cello_v0_additive_7","midi_source":""},{"t":47.102,"note":60,"dur":0.082,"vel":0.709,"inst":"cello_v0_additive_7","midi_source":""},{"t":47.183,"note":45,"dur":0.082,"vel":0.709,"inst":"pad_warm_v0_fm_94","midi_source":""},{"t":47.183,"note":57,"dur":0.327,"vel":0.709,"inst":"pad_warm_v0_fm_94","midi_source":""},{"t":47.183,"note":62,"dur":0.654,"vel":0.709,"inst":"cello_v0_additive_7","midi_source":""},{"t":47.183,"note":69,"dur":0.654,"vel":0.709,"inst":"pad_warm_v0_fm_94","midi_source":""},{"t":47.265,"note":48,"dur":0.082,"vel":0.709,"inst":"cello_v0_additive_7","midi_source":""},{"t":47.347,"note":45,"dur":0.082,"vel":0.709,"inst":"pad_warm_v0_fm_94","midi_source":""},{"t":47.428,"note":45,"dur":0.082,"vel":0.709,"inst":"pad_warm_v0_fm_94","midi_source":""},{"t":47.51,"note":45,"dur":0.082,"vel":0.709,"inst":"pad_warm_v0_fm_94","midi_source":""},{"t":47.51,"note":52,"dur":0.327,"vel":0.709,"inst":"cello_v0_additive_7","midi_source":""},{"t":47.592,"note":48,"dur":0.082,"vel":0.709,"inst":"cello_v0_additive_7","midi_source":""},{"t":47.674,"note":45,"dur":0.082,"vel":0.709,"inst":"pad_warm_v0_fm_94","midi_source":""},{"t":47.755,"note":45,"dur":0.082,"vel":0.709,"inst":"pad_warm_v0_fm_94","midi_source":""},{"t":47.837,"note":45,"dur":0.082,"vel":0.709,"inst":"pad_warm_v0_fm_94","midi_source":""},{"t":47.837,"note":52,"dur":0.327,"vel":0.709,"inst":"cello_v0_additive_7","midi_source":""},{"t":47.837,"note":62,"dur":0.327,"vel":0.709,"inst":"cello_v0_additive_7","midi_source":""},{"t":47.837,"note":67,"dur":0.327,"vel":0.709,"inst":"pad_warm_v0_fm_94","midi_source":""},{"t":47.919,"note":45,"dur":0.082,"vel":0.709,"inst":"pad_warm_v0_fm_94","midi_source":""},{"t":48.001,"note":45,"dur":0.082,"vel":0.709,"inst":"pad_warm_v0_fm_94","midi_source":""},{"t":48.082,"note":47,"dur":0.082,"vel":0.709,"inst":"pad_warm_v0_fm_94","midi_source":""},{"t":48.164,"note":48,"dur":0.082,"vel":0.709,"inst":"cello_v0_additive_7","midi_source":""},{"t":48.164,"note":50,"dur":0.654,"vel":0.709,"inst":"cello_v0_additive_7","midi_source":""},{"t":48.164,"note":62,"dur":0.654,"vel":0.709,"inst":"cello_v0_additive_7","midi_source":""},{"t":48.164,"note":67,"dur":0.654,"vel":0.709,"inst":"pad_warm_v0_fm_94","midi_source":""},{"t":48.246,"note":50,"dur":0.082,"vel":0.709,"inst":"cello_v0_additive_7","midi_source":""},{"t":48.327,"note":48,"dur":0.082,"vel":0.709,"inst":"cello_v0_additive_7","midi_source":""},{"t":48.409,"note":47,"dur":0.082,"vel":0.709,"inst":"pad_warm_v0_fm_94","midi_source":""},{"t":48.491,"note":48,"dur":0.082,"vel":0.709,"inst":"cello_v0_additive_7","midi_source":""},{"t":48.573,"note":50,"dur":0.082,"vel":0.709,"inst":"cello_v0_additive_7","midi_source":""},{"t":48.654,"note":48,"dur":0.082,"vel":0.709,"inst":"cello_v0_additive_7","midi_source":""},{"t":48.736,"note":47,"dur":0.082,"vel":0.709,"inst":"pad_warm_v0_fm_94","midi_source":""},{"t":48.818,"note":48,"dur":0.082,"vel":0.709,"inst":"cello_v0_additive_7","midi_source":""},{"t":48.818,"note":55,"dur":0.327,"vel":0.709,"inst":"pad_warm_v0_fm_94","midi_source":""},{"t":48.818,"note":64,"dur":0.327,"vel":0.709,"inst":"cello_v0_additive_7","midi_source":""},{"t":48.818,"note":69,"dur":0.327,"vel":0.709,"inst":"pad_warm_v0_fm_94","midi_source":""},{"t":48.9,"note":47,"dur":0.082,"vel":0.709,"inst":"pad_warm_v0_fm_94","midi_source":""},{"t":48.981,"note":48,"dur":0.082,"vel":0.709,"inst":"cello_v0_additive_7","midi_source":""},{"t":49.063,"note":48,"dur":0.082,"vel":0.709,"inst":"cello_v0_additive_7","midi_source":""},{"t":49.145,"note":50,"dur":0.082,"vel":0.709,"inst":"cello_v0_additive_7","midi_source":""},{"t":49.145,"note":54,"dur":0.327,"vel":0.709,"inst":"cello_v0_additive_7","midi_source":""},{"t":49.145,"note":66,"dur":0.327,"vel":0.709,"inst":"cello_v0_additive_7","midi_source":""},{"t":49.145,"note":69,"dur":0.327,"vel":0.709,"inst":"pad_warm_v0_fm_94","midi_source":""},{"t":49.226,"note":50,"dur":0.082,"vel":0.709,"inst":"cello_v0_additive_7","midi_source":""},{"t":49.308,"note":62,"dur":0.082,"vel":0.709,"inst":"cello_v0_additive_7","midi_source":""},{"t":49.39,"note":57,"dur":0.041,"vel":0.709,"inst":"pad_warm_v0_fm_94","midi_source":""},{"t":49.39,"note":62,"dur":0.082,"vel":0.709,"inst":"cello_v0_additive_7","midi_source":""},{"t":49.39,"note":66,"dur":0.041,"vel":0.709,"inst":"cello_v0_additive_7","midi_source":""},{"t":49.431,"note":59,"dur":0.041,"vel":0.709,"inst":"pad_warm_v0_fm_94","midi_source":""},{"t":49.431,"note":67,"dur":0.041,"vel":0.709,"inst":"pad_warm_v0_fm_94","midi_source":""},{"t":49.472,"note":60,"dur":0.163,"vel":0.709,"inst":"cello_v0_additive_7","midi_source":""},{"t":49.472,"note":62,"dur":0.082,"vel":0.709,"inst":"cello_v0_additive_7","midi_source":""},{"t":49.472,"note":69,"dur":0.163,"vel":0.709,"inst":"pad_warm_v0_fm_94","midi_source":""},{"t":49.553,"note":62,"dur":0.082,"vel":0.709,"inst":"cello_v0_additive_7","midi_source":""},{"t":49.635,"note":62,"dur":0.082,"vel":0.709,"inst":"cello_v0_additive_7","midi_source":""},{"t":49.717,"note":62,"dur":0.082,"vel":0.709,"inst":"cello_v0_additive_7","midi_source":""},{"t":49.799,"note":57,"dur":0.163,"vel":0.709,"inst":"pad_warm_v0_fm_94","midi_source":""},{"t":49.799,"note":62,"dur":0.082,"vel":0.709,"inst":"cello_v0_additive_7","midi_source":""},{"t":49.799,"note":66,"dur":0.163,"vel":0.709,"inst":"cello_v0_additive_7","midi_source":""},{"t":49.88,"note":62,"dur":0.082,"vel":0.709,"inst":"cello_v0_additive_7","midi_source":""},{"t":49.962,"note":62,"dur":0.082,"vel":0.709,"inst":"cello_v0_additive_7","midi_source":""},{"t":50.044,"note":62,"dur":0.082,"vel":0.709,"inst":"cello_v0_additive_7","midi_source":""},{"t":50.125,"note":55,"dur":0.245,"vel":0.709,"inst":"pad_warm_v0_fm_94","midi_source":""},{"t":50.125,"note":62,"dur":0.082,"vel":0.709,"inst":"cello_v0_additive_7","midi_source":""},{"t":50.125,"note":71,"dur":0.245,"vel":0.709,"inst":"pad_warm_v0_fm_94","midi_source":""},{"t":50.207,"note":62,"dur":0.082,"vel":0.709,"inst":"cello_v0_additive_7","midi_source":""},{"t":50.289,"note":62,"dur":0.082,"vel":0.709,"inst":"cello_v0_additive_7","midi_source":""},{"t":50.371,"note":54,"dur":0.041,"vel":0.709,"inst":"cello_v0_additive_7","midi_source":""},{"t":50.371,"note":62,"dur":0.082,"vel":0.709,"inst":"cello_v0_additive_7","midi_source":""},{"t":50.371,"note":69,"dur":0.041,"vel":0.709,"inst":"pad_warm_v0_fm_94","midi_source":""},{"t":50.412,"note":55,"dur":0.041,"vel":0.709,"inst":"pad_warm_v0_fm_94","midi_source":""},{"t":50.412,"note":71,"dur":0.041,"vel":0.709,"inst":"pad_warm_v0_fm_94","midi_source":""},{"t":50.452,"note":57,"dur":0.163,"vel":0.709,"inst":"pad_warm_v0_fm_94","midi_source":""},{"t":50.452,"note":62,"dur":0.082,"vel":0.709,"inst":"cello_v0_additive_7","midi_source":""},{"t":50.452,"note":72,"dur":0.163,"vel":0.709,"inst":"cello_v0_additive_7","midi_source":""},{"t":50.534,"note":62,"dur":0.082,"vel":0.709,"inst":"cello_v0_additive_7","midi_source":""},{"t":50.616,"note":62,"dur":0.082,"vel":0.709,"inst":"cello_v0_additive_7","midi_source":""},{"t":50.698,"note":62,"dur":0.082,"vel":0.709,"inst":"cello_v0_additive_7","midi_source":""},{"t":50.779,"note":54,"dur":0.163,"vel":0.709,"inst":"cello_v0_additive_7","midi_source":""},{"t":50.779,"note":62,"dur":0.082,"vel":0.709,"inst":"cello_v0_additive_7","midi_source":""},{"t":50.779,"note":69,"dur":0.163,"vel":0.709,"inst":"pad_warm_v0_fm_94","midi_source":""},{"t":50.861,"note":62,"dur":0.082,"vel":0.709,"inst":"cello_v0_additive_7","midi_source":""},{"t":50.943,"note":62,"dur":0.082,"vel":0.709,"inst":"cello_v0_additive_7","midi_source":""},{"t":51.025,"note":62,"dur":0.082,"vel":0.709,"inst":"cello_v0_additive_7","midi_source":""},{"t":51.106,"note":47,"dur":0.082,"vel":0.709,"inst":"pad_warm_v0_fm_94","midi_source":""},{"t":51.106,"note":55,"dur":0.082,"vel":0.709,"inst":"pad_warm_v0_fm_94","midi_source":""},{"t":51.106,"note":55,"dur":0.082,"vel":0.709,"inst":"pad_warm_v0_fm_94","midi_source":""},{"t":51.106,"note":74,"dur":0.245,"vel":0.709,"inst":"cello_v0_additive_7","midi_source":""},{"t":51.188,"note":47,"dur":0.082,"vel":0.709,"inst":"pad_warm_v0_fm_94","midi_source":""},{"t":51.188,"note":55,"dur":0.082,"vel":0.709,"inst":"pad_warm_v0_fm_94","midi_source":""},{"t":51.188,"note":55,"dur":0.082,"vel":0.709,"inst":"pad_warm_v0_fm_94","midi_source":""},{"t":51.27,"note":47,"dur":0.082,"vel":0.709,"inst":"pad_warm_v0_fm_94","midi_source":""},{"t":51.27,"note":55,"dur":0.082,"vel":0.709,"inst":"pad_warm_v0_fm_94","midi_source":""},{"t":51.27,"note":55,"dur":0.082,"vel":0.709,"inst":"pad_warm_v0_fm_94","midi_source":""},{"t":51.351,"note":47,"dur":0.082,"vel":0.709,"inst":"pad_warm_v0_fm_94","midi_source":""},{"t":51.351,"note":55,"dur":0.082,"vel":0.709,"inst":"pad_warm_v0_fm_94","midi_source":""},{"t":51.351,"note":55,"dur":0.082,"vel":0.709,"inst":"pad_warm_v0_fm_94","midi_source":""},{"t":51.351,"note":74,"dur":0.041,"vel":0.709,"inst":"cello_v0_additive_7","midi_source":""},{"t":51.392,"note":76,"dur":0.041,"vel":0.709,"inst":"cello_v0_additive_7","midi_source":""},{"t":51.433,"note":47,"dur":0.082,"vel":0.709,"inst":"pad_warm_v0_fm_94","midi_source":""},{"t":51.433,"note":55,"dur":0.082,"vel":0.709,"inst":"pad_warm_v0_fm_94","midi_source":""},{"t":51.433,"note":62,"dur":0.082,"vel":0.709,"inst":"cello_v0_additive_7","midi_source":""},{"t":51.433,"note":76,"dur":0.327,"vel":0.709,"inst":"cello_v0_additive_7","midi_source":""},{"t":51.515,"note":47,"dur":0.082,"vel":0.709,"inst":"pad_warm_v0_fm_94","midi_source":""},{"t":51.515,"note":55,"dur":0.082,"vel":0.709,"inst":"pad_warm_v0_fm_94","midi_source":""},{"t":51.515,"note":62,"dur":0.082,"vel":0.709,"inst":"cello_v0_additive_7","midi_source":""},{"t":51.597,"note":47,"dur":0.082,"vel":0.709,"inst":"pad_warm_v0_fm_94","midi_source":""},{"t":51.597,"note":55,"dur":0.082,"vel":0.709,"inst":"pad_warm_v0_fm_94","midi_source":""},{"t":51.597,"note":62,"dur":0.082,"vel":0.709,"inst":"cello_v0_additive_7","midi_source":""},{"t":51.678,"note":47,"dur":0.082,"vel":0.709,"inst":"pad_warm_v0_fm_94","midi_source":""},{"t":51.678,"note":55,"dur":0.082,"vel":0.709,"inst":"pad_warm_v0_fm_94","midi_source":""},{"t":51.678,"note":62,"dur":0.082,"vel":0.709,"inst":"cello_v0_additive_7","midi_source":""},{"t":51.76,"note":48,"dur":0.082,"vel":0.709,"inst":"cello_v0_additive_7","midi_source":""},{"t":51.76,"note":57,"dur":0.082,"vel":0.709,"inst":"pad_warm_v0_fm_94","midi_source":""},{"t":51.76,"note":60,"dur":0.082,"vel":0.709,"inst":"cello_v0_additive_7","midi_source":""},{"t":51.76,"note":76,"dur":0.041,"vel":0.709,"inst":"cello_v0_additive_7","midi_source":""},{"t":51.801,"note":72,"dur":0.041,"vel":0.709,"inst":"cello_v0_additive_7","midi_source":""},{"t":51.842,"note":48,"dur":0.082,"vel":0.709,"inst":"cello_v0_additive_7","midi_source":""},{"t":51.842,"note":57,"dur":0.082,"vel":0.709,"inst":"pad_warm_v0_fm_94","midi_source":""},{"t":51.842,"note":60,"dur":0.082,"vel":0.709,"inst":"cello_v0_additive_7","midi_source":""},{"t":51.842,"note":71,"dur":0.041,"vel":0.709,"inst":"pad_warm_v0_fm_94","midi_source":""},{"t":51.883,"note":69,"dur":0.041,"vel":0.709,"inst":"pad_warm_v0_fm_94","midi_source":""},{"t":51.924,"note":48,"dur":0.082,"vel":0.709,"inst":"cello_v0_additive_7","midi_source":""},{"t":51.924,"note":57,"dur":0.082,"vel":0.709,"inst":"pad_warm_v0_fm_94","midi_source":""},{"t":51.924,"note":60,"dur":0.082,"vel":0.709,"inst":"cello_v0_additive_7","midi_source":""},{"t":51.924,"note":67,"dur":0.041,"vel":0.709,"inst":"pad_warm_v0_fm_94","midi_source":""},{"t":51.964,"note":69,"dur":0.041,"vel":0.709,"inst":"pad_warm_v0_fm_94","midi_source":""},{"t":52.005,"note":48,"dur":0.082,"vel":0.709,"inst":"cello_v0_additive_7","midi_source":""},{"t":52.005,"note":57,"dur":0.082,"vel":0.709,"inst":"pad_warm_v0_fm_94","midi_source":""},{"t":52.005,"note":60,"dur":0.082,"vel":0.709,"inst":"cello_v0_additive_7","midi_source":""},{"t":52.005,"note":72,"dur":0.041,"vel":0.709,"inst":"cello_v0_additive_7","midi_source":""},{"t":52.046,"note":69,"dur":0.041,"vel":0.709,"inst":"pad_warm_v0_fm_94","midi_source":""},{"t":52.087,"note":50,"dur":0.082,"vel":0.709,"inst":"cello_v0_additive_7","midi_source":""},{"t":52.087,"note":55,"dur":0.082,"vel":0.709,"inst":"pad_warm_v0_fm_94","midi_source":""},{"t":52.087,"note":59,"dur":0.082,"vel":0.709,"inst":"pad_warm_v0_fm_94","midi_source":""},{"t":52.087,"note":67,"dur":0.041,"vel":0.709,"inst":"pad_warm_v0_fm_94","midi_source":""},{"t":52.128,"note":69,"dur":0.041,"vel":0.709,"inst":"pad_warm_v0_fm_94","midi_source":""},{"t":52.169,"note":50,"dur":0.082,"vel":0.709,"inst":"cello_v0_additive_7","midi_source":""},{"t":52.169,"note":55,"dur":0.082,"vel":0.709,"inst":"pad_warm_v0_fm_94","midi_source":""},{"t":52.169,"note":59,"dur":0.082,"vel":0.709,"inst":"pad_warm_v0_fm_94","midi_source":""},{"t":52.169,"note":71,"dur":0.041,"vel":0.709,"inst":"pad_warm_v0_fm_94","midi_source":""},{"t":52.21,"note":72,"dur":0.041,"vel":0.709,"inst":"cello_v0_additive_7","midi_source":""},{"t":52.25,"note":50,"dur":0.082,"vel":0.709,"inst":"cello_v0_additive_7","midi_source":""},{"t":52.25,"note":55,"dur":0.082,"vel":0.709,"inst":"pad_warm_v0_fm_94","midi_source":""},{"t":52.25,"note":59,"dur":0.082,"vel":0.709,"inst":"pad_warm_v0_fm_94","midi_source":""},{"t":52.25,"note":74,"dur":0.041,"vel":0.709,"inst":"cello_v0_additive_7","midi_source":""},{"t":52.291,"note":76,"dur":0.041,"vel":0.709,"inst":"cello_v0_additive_7","midi_source":""},{"t":52.332,"note":50,"dur":0.082,"vel":0.709,"inst":"cello_v0_additive_7","midi_source":""},{"t":52.332,"note":55,"dur":0.082,"vel":0.709,"inst":"pad_warm_v0_fm_94","midi_source":""},{"t":52.332,"note":59,"dur":0.082,"vel":0.709,"inst":"pad_warm_v0_fm_94","midi_source":""},{"t":52.332,"note":74,"dur":0.041,"vel":0.709,"inst":"cello_v0_additive_7","midi_source":""},{"t":52.373,"note":76,"dur":0.041,"vel":0.709,"inst":"cello_v0_additive_7","midi_source":""},{"t":52.414,"note":50,"dur":0.163,"vel":0.709,"inst":"cello_v0_additive_7","midi_source":""},{"t":52.414,"note":55,"dur":0.163,"vel":0.709,"inst":"pad_warm_v0_fm_94","midi_source":""},{"t":52.414,"note":59,"dur":0.163,"vel":0.709,"inst":"pad_warm_v0_fm_94","midi_source":""},{"t":52.414,"note":74,"dur":0.163,"vel":0.709,"inst":"cello_v0_additive_7","midi_source":""},{"t":52.741,"note":50,"dur":0.163,"vel":0.709,"inst":"cello_v0_additive_7","midi_source":""},{"t":52.741,"note":57,"dur":0.163,"vel":0.709,"inst":"pad_warm_v0_fm_94","midi_source":""},{"t":52.741,"note":60,"dur":0.163,"vel":0.709,"inst":"cello_v0_additive_7","midi_source":""},{"t":52.741,"note":66,"dur":0.163,"vel":0.709,"inst":"cello_v0_additive_7","midi_source":""},{"t":53.068,"note":59,"dur":0.245,"vel":0.709,"inst":"pad_warm_v0_fm_94","midi_source":""},{"t":53.068,"note":62,"dur":0.082,"vel":0.709,"inst":"cello_v0_additive_7","midi_source":""},{"t":53.068,"note":67,"dur":0.245,"vel":0.709,"inst":"pad_warm_v0_fm_94","midi_source":""},{"t":53.149,"note":62,"dur":0.082,"vel":0.709,"inst":"cello_v0_additive_7","midi_source":""},{"t":53.231,"note":62,"dur":0.082,"vel":0.709,"inst":"cello_v0_additive_7","midi_source":""},{"t":53.313,"note":57,"dur":0.041,"vel":0.709,"inst":"pad_warm_v0_fm_94","midi_source":""},{"t":53.313,"note":62,"dur":0.082,"vel":0.709,"inst":"cello_v0_additive_7","midi_source":""},{"t":53.313,"note":66,"dur":0.041,"vel":0.709,"inst":"cello_v0_additive_7","midi_source":""},{"t":53.354,"note":59,"dur":0.041,"vel":0.709,"inst":"pad_warm_v0_fm_94","midi_source":""},{"t":53.354,"note":67,"dur":0.041,"vel":0.709,"inst":"pad_warm_v0_fm_94","midi_source":""},{"t":53.395,"note":60,"dur":0.163,"vel":0.709,"inst":"cello_v0_additive_7","midi_source":""},{"t":53.395,"note":62,"dur":0.082,"vel":0.709,"inst":"cello_v0_additive_7","midi_source":""},{"t":53.395,"note":69,"dur":0.163,"vel":0.709,"inst":"pad_warm_v0_fm_94","midi_source":""},{"t":53.476,"note":62,"dur":0.082,"vel":0.709,"inst":"cello_v0_additive_7","midi_source":""},{"t":53.558,"note":62,"dur":0.082,"vel":0.709,"inst":"cello_v0_additive_7","midi_source":""},{"t":53.64,"note":62,"dur":0.082,"vel":0.709,"inst":"cello_v0_additive_7","midi_source":""},{"t":53.722,"note":57,"dur":0.163,"vel":0.709,"inst":"pad_warm_v0_fm_94","midi_source":""},{"t":53.722,"note":62,"dur":0.082,"vel":0.709,"inst":"cello_v0_additive_7","midi_source":""},{"t":53.722,"note":66,"dur":0.163,"vel":0.709,"inst":"cello_v0_additive_7","midi_source":""},{"t":53.803,"note":62,"dur":0.082,"vel":0.709,"inst":"cello_v0_additive_7","midi_source":""},{"t":53.885,"note":62,"dur":0.082,"vel":0.709,"inst":"cello_v0_additive_7","midi_source":""},{"t":53.967,"note":62,"dur":0.082,"vel":0.709,"inst":"cello_v0_additive_7","midi_source":""},{"t":54.048,"note":55,"dur":0.245,"vel":0.709,"inst":"pad_warm_v0_fm_94","midi_source":""},{"t":54.048,"note":62,"dur":0.082,"vel":0.709,"inst":"cello_v0_additive_7","midi_source":""},{"t":54.048,"note":69,"dur":0.245,"vel":0.709,"inst":"pad_warm_v0_fm_94","midi_source":""},{"t":54.13,"note":62,"dur":0.082,"vel":0.709,"inst":"cello_v0_additive_7","midi_source":""},{"t":54.212,"note":62,"dur":0.082,"vel":0.709,"inst":"cello_v0_additive_7","midi_source":""},{"t":54.294,"note":54,"dur":0.041,"vel":0.709,"inst":"cello_v0_additive_7","midi_source":""},{"t":54.294,"note":62,"dur":0.082,"vel":0.709,"inst":"cello_v0_additive_7","midi_source":""},{"t":54.294,"note":69,"dur":0.041,"vel":0.709,"inst":"pad_warm_v0_fm_94","midi_source":""},{"t":54.335,"note":55,"dur":0.041,"vel":0.709,"inst":"pad_warm_v0_fm_94","midi_source":""},{"t":54.335,"note":69,"dur":0.041,"vel":0.709,"inst":"pad_warm_v0_fm_94","midi_source":""},{"t":54.375,"note":57,"dur":0.163,"vel":0.709,"inst":"pad_warm_v0_fm_94","midi_source":""},{"t":54.375,"note":62,"dur":0.082,"vel":0.709,"inst":"cello_v0_additive_7","midi_source":""},{"t":54.375,"note":72,"dur":0.163,"vel":0.709,"inst":"cello_v0_additive_7","midi_source":""},{"t":54.457,"note":62,"dur":0.082,"vel":0.709,"inst":"cello_v0_additive_7","midi_source":""},{"t":54.539,"note":62,"dur":0.082,"vel":0.709,"inst":"cello_v0_additive_7","midi_source":""},{"t":54.621,"note":62,"dur":0.082,"vel":0.709,"inst":"cello_v0_additive_7","midi_source":""},{"t":54.702,"note":54,"dur":0.163,"vel":0.709,"inst":"cello_v0_additive_7","midi_source":""},{"t":54.702,"note":62,"dur":0.082,"vel":0.709,"inst":"cello_v0_additive_7","midi_source":""},{"t":54.702,"note":69,"dur":0.163,"vel":0.709,"inst":"pad_warm_v0_fm_94","midi_source":""},{"t":54.784,"note":62,"dur":0.082,"vel":0.709,"inst":"cello_v0_additive_7","midi_source":""},{"t":54.866,"note":62,"dur":0.082,"vel":0.709,"inst":"cello_v0_additive_7","midi_source":""},{"t":54.947,"note":62,"dur":0.082,"vel":0.709,"inst":"cello_v0_additive_7","midi_source":""},{"t":55.029,"note":55,"dur":0.082,"vel":0.709,"inst":"pad_warm_v0_fm_94","midi_source":""},{"t":55.029,"note":57,"dur":0.082,"vel":0.709,"inst":"pad_warm_v0_fm_94","midi_source":""},{"t":55.029,"note":69,"dur":0.245,"vel":0.709,"inst":"pad_warm_v0_fm_94","midi_source":""},{"t":55.029,"note":74,"dur":0.245,"vel":0.709,"inst":"cello_v0_additive_7","midi_source":""},{"t":55.111,"note":55,"dur":0.082,"vel":0.709,"inst":"pad_warm_v0_fm_94","midi_source":""},{"t":55.111,"note":57,"dur":0.082,"vel":0.709,"inst":"pad_warm_v0_fm_94","midi_source":""},{"t":55.193,"note":55,"dur":0.082,"vel":0.709,"inst":"pad_warm_v0_fm_94","midi_source":""},{"t":55.193,"note":57,"dur":0.082,"vel":0.709,"inst":"pad_warm_v0_fm_94","midi_source":""},{"t":55.274,"note":55,"dur":0.082,"vel":0.709,"inst":"pad_warm_v0_fm_94","midi_source":""},{"t":55.274,"note":57,"dur":0.082,"vel":0.709,"inst":"pad_warm_v0_fm_94","midi_source":""},{"t":55.274,"note":69,"dur":0.041,"vel":0.709,"inst":"pad_warm_v0_fm_94","midi_source":""},{"t":55.274,"note":72,"dur":0.041,"vel":0.709,"inst":"cello_v0_additive_7","midi_source":""},{"t":55.315,"note":69,"dur":0.041,"vel":0.709,"inst":"pad_warm_v0_fm_94","midi_source":""},{"t":55.315,"note":74,"dur":0.041,"vel":0.709,"inst":"cello_v0_additive_7","midi_source":""},{"t":55.356,"note":48,"dur":0.082,"vel":0.709,"inst":"cello_v0_additive_7","midi_source":""},{"t":55.356,"note":55,"dur":0.082,"vel":0.709,"inst":"pad_warm_v0_fm_94","midi_source":""},{"t":55.356,"note":72,"dur":0.327,"vel":0.709,"inst":"cello_v0_additive_7","midi_source":""},{"t":55.356,"note":74,"dur":0.327,"vel":0.709,"inst":"cello_v0_additive_7","midi_source":""},{"t":55.438,"note":48,"dur":0.082,"vel":0.709,"inst":"cello_v0_additive_7","midi_source":""},{"t":55.438,"note":55,"dur":0.082,"vel":0.709,"inst":"pad_warm_v0_fm_94","midi_source":""},{"t":55.52,"note":48,"dur":0.082,"vel":0.709,"inst":"cello_v0_additive_7","midi_source":""},{"t":55.52,"note":55,"dur":0.082,"vel":0.709,"inst":"pad_warm_v0_fm_94","midi_source":""},{"t":55.601,"note":48,"dur":0.082,"vel":0.709,"inst":"cello_v0_additive_7","midi_source":""},{"t":55.601,"note":55,"dur":0.082,"vel":0.709,"inst":"pad_warm_v0_fm_94","midi_source":""},{"t":55.683,"note":52,"dur":0.082,"vel":0.709,"inst":"cello_v0_additive_7","midi_source":""},{"t":55.683,"note":57,"dur":0.082,"vel":0.709,"inst":"pad_warm_v0_fm_94","midi_source":""},{"t":55.683,"note":62,"dur":0.163,"vel":0.709,"inst":"cello_v0_additive_7","midi_source":""},{"t":55.683,"note":72,"dur":0.163,"vel":0.709,"inst":"cello_v0_additive_7","midi_source":""},{"t":55.765,"note":52,"dur":0.082,"vel":0.709,"inst":"cello_v0_additive_7","midi_source":""},{"t":55.765,"note":57,"dur":0.082,"vel":0.709,"inst":"pad_warm_v0_fm_94","midi_source":""},{"t":55.846,"note":52,"dur":0.082,"vel":0.709,"inst":"cello_v0_additive_7","midi_source":""},{"t":55.846,"note":57,"dur":0.082,"vel":0.709,"inst":"pad_warm_v0_fm_94","midi_source":""},{"t":55.846,"note":60,"dur":0.163,"vel":0.709,"inst":"cello_v0_additive_7","midi_source":""},{"t":55.846,"note":69,"dur":0.163,"vel":0.709,"inst":"pad_warm_v0_fm_94","midi_source":""},{"t":55.928,"note":52,"dur":0.082,"vel":0.709,"inst":"cello_v0_additive_7","midi_source":""},{"t":55.928,"note":57,"dur":0.082,"vel":0.709,"inst":"pad_warm_v0_fm_94","midi_source":""},{"t":56.01,"note":50,"dur":0.082,"vel":0.709,"inst":"cello_v0_additive_7","midi_source":""},{"t":56.01,"note":57,"dur":0.49,"vel":0.709,"inst":"pad_warm_v0_fm_94","midi_source":""},{"t":56.01,"note":57,"dur":0.082,"vel":0.709,"inst":"pad_warm_v0_fm_94","midi_source":""},{"t":56.01,"note":76,"dur":0.245,"vel":0.709,"inst":"cello_v0_additive_7","midi_source":""},{"t":56.092,"note":50,"dur":0.082,"vel":0.709,"inst":"cello_v0_additive_7","midi_source":""},{"t":56.092,"note":57,"dur":0.082,"vel":0.709,"inst":"pad_warm_v0_fm_94","midi_source":""},{"t":56.173,"note":50,"dur":0.082,"vel":0.709,"inst":"cello_v0_additive_7","midi_source":""},{"t":56.173,"note":57,"dur":0.082,"vel":0.709,"inst":"pad_warm_v0_fm_94","midi_source":""},{"t":56.255,"note":50,"dur":0.082,"vel":0.709,"inst":"cello_v0_additive_7","midi_source":""},{"t":56.255,"note":57,"dur":0.082,"vel":0.709,"inst":"pad_warm_v0_fm_94","midi_source":""},{"t":56.255,"note":74,"dur":0.041,"vel":0.709,"inst":"cello_v0_additive_7","midi_source":""},{"t":56.296,"note":76,"dur":0.041,"vel":0.709,"inst":"cello_v0_additive_7","midi_source":""},{"t":56.337,"note":50,"dur":0.082,"vel":0.709,"inst":"cello_v0_additive_7","midi_source":""},{"t":56.337,"note":55,"dur":0.082,"vel":0.709,"inst":"pad_warm_v0_fm_94","midi_source":""},{"t":56.337,"note":79,"dur":0.163,"vel":0.709,"inst":"pad_warm_v0_fm_94","midi_source":""},{"t":56.419,"note":50,"dur":0.082,"vel":0.709,"inst":"cello_v0_additive_7","midi_source":""},{"t":56.419,"note":55,"dur":0.082,"vel":0.709,"inst":"pad_warm_v0_fm_94","midi_source":""},{"t":56.5,"note":50,"dur":0.082,"vel":0.709,"inst":"cello_v0_additive_7","midi_source":""},{"t":56.5,"note":55,"dur":0.082,"vel":0.709,"inst":"pad_warm_v0_fm_94","midi_source":""},{"t":56.5,"note":67,"dur":0.163,"vel":0.709,"inst":"pad_warm_v0_fm_94","midi_source":""},{"t":56.5,"note":74,"dur":0.163,"vel":0.709,"inst":"cello_v0_additive_7","midi_source":""},{"t":56.582,"note":50,"dur":0.082,"vel":0.709,"inst":"cello_v0_additive_7","midi_source":""},{"t":56.582,"note":55,"dur":0.082,"vel":0.709,"inst":"pad_warm_v0_fm_94","midi_source":""},{"t":56.664,"note":52,"dur":0.082,"vel":0.709,"inst":"cello_v0_additive_7","midi_source":""},{"t":56.664,"note":57,"dur":0.082,"vel":0.709,"inst":"pad_warm_v0_fm_94","midi_source":""},{"t":56.664,"note":62,"dur":0.163,"vel":0.709,"inst":"cello_v0_additive_7","midi_source":""},{"t":56.664,"note":72,"dur":0.163,"vel":0.709,"inst":"cello_v0_additive_7","midi_source":""},{"t":56.746,"note":52,"dur":0.082,"vel":0.709,"inst":"cello_v0_additive_7","midi_source":""},{"t":56.746,"note":57,"dur":0.082,"vel":0.709,"inst":"pad_warm_v0_fm_94","midi_source":""},{"t":56.827,"note":52,"dur":0.082,"vel":0.709,"inst":"cello_v0_additive_7","midi_source":""},{"t":56.827,"note":60,"dur":0.163,"vel":0.709,"inst":"cello_v0_additive_7","midi_source":""},{"t":56.827,"note":60,"dur":0.082,"vel":0.709,"inst":"cello_v0_additive_7","midi_source":""},{"t":56.827,"note":69,"dur":0.163,"vel":0.709,"inst":"pad_warm_v0_fm_94","midi_source":""},{"t":56.909,"note":52,"dur":0.082,"vel":0.709,"inst":"cello_v0_additive_7","midi_source":""},{"t":56.909,"note":60,"dur":0.082,"vel":0.709,"inst":"cello_v0_additive_7","midi_source":""},{"t":56.991,"note":45,"dur":0.082,"vel":0.709,"inst":"pad_warm_v0_fm_94","midi_source":""},{"t":56.991,"note":57,"dur":0.327,"vel":0.709,"inst":"pad_warm_v0_fm_94","midi_source":""},{"t":56.991,"note":62,"dur":0.654,"vel":0.709,"inst":"cello_v0_additive_7","midi_source":""},{"t":56.991,"note":69,"dur":0.654,"vel":0.709,"inst":"pad_warm_v0_fm_94","midi_source":""},{"t":57.072,"note":48,"dur":0.082,"vel":0.709,"inst":"cello_v0_additive_7","midi_source":""},{"t":57.154,"note":45,"dur":0.082,"vel":0.709,"inst":"pad_warm_v0_fm_94","midi_source":""},{"t":57.236,"note":45,"dur":0.082,"vel":0.709,"inst":"pad_warm_v0_fm_94","midi_source":""},{"t":57.318,"note":45,"dur":0.082,"vel":0.709,"inst":"pad_warm_v0_fm_94","midi_source":""},{"t":57.318,"note":52,"dur":0.327,"vel":0.709,"inst":"cello_v0_additive_7","midi_source":""},{"t":57.399,"note":48,"dur":0.082,"vel":0.709,"inst":"cello_v0_additive_7","midi_source":""},{"t":57.481,"note":45,"dur":0.082,"vel":0.709,"inst":"pad_warm_v0_fm_94","midi_source":""},{"t":57.563,"note":45,"dur":0.082,"vel":0.709,"inst":"pad_warm_v0_fm_94","midi_source":""},{"t":57.645,"note":45,"dur":0.082,"vel":0.709,"inst":"pad_warm_v0_fm_94","midi_source":""},{"t":57.645,"note":52,"dur":0.327,"vel":0.709,"inst":"cello_v0_additive_7","midi_source":""},{"t":57.645,"note":62,"dur":0.327,"vel":0.709,"inst":"cello_v0_additive_7","midi_source":""},{"t":57.645,"note":67,"dur":0.327,"vel":0.709,"inst":"pad_warm_v0_fm_94","midi_source":""},{"t":57.726,"note":45,"dur":0.082,"vel":0.709,"inst":"pad_warm_v0_fm_94","midi_source":""},{"t":57.808,"note":45,"dur":0.082,"vel":0.709,"inst":"pad_warm_v0_fm_94","midi_source":""},{"t":57.89,"note":47,"dur":0.082,"vel":0.709,"inst":"pad_warm_v0_fm_94","midi_source":""},{"t":57.971,"note":48,"dur":0.082,"vel":0.709,"inst":"cello_v0_additive_7","midi_source":""},{"t":57.971,"note":50,"dur":0.654,"vel":0.709,"inst":"cello_v0_additive_7","midi_source":""},{"t":57.971,"note":62,"dur":0.654,"vel":0.709,"inst":"cello_v0_additive_7","midi_source":""},{"t":57.971,"note":67,"dur":0.654,"vel":0.709,"inst":"pad_warm_v0_fm_94","midi_source":""},{"t":58.053,"note":50,"dur":0.082,"vel":0.709,"inst":"cello_v0_additive_7","midi_source":""},{"t":58.135,"note":48,"dur":0.082,"vel":0.709,"inst":"cello_v0_additive_7","midi_source":""},{"t":58.217,"note":47,"dur":0.082,"vel":0.709,"inst":"pad_warm_v0_fm_94","midi_source":""},{"t":58.298,"note":48,"dur":0.082,"vel":0.709,"inst":"cello_v0_additive_7","midi_source":""},{"t":58.38,"note":50,"dur":0.082,"vel":0.709,"inst":"cello_v0_additive_7","midi_source":""},{"t":58.462,"note":48,"dur":0.082,"vel":0.709,"inst":"cello_v0_additive_7","midi_source":""},{"t":58.544,"note":47,"dur":0.082,"vel":0.709,"inst":"pad_warm_v0_fm_94","midi_source":""},{"t":58.625,"note":48,"dur":0.082,"vel":0.709,"inst":"cello_v0_additive_7","midi_source":""},{"t":58.625,"note":55,"dur":0.327,"vel":0.709,"inst":"pad_warm_v0_fm_94","midi_source":""},{"t":58.625,"note":64,"dur":0.327,"vel":0.709,"inst":"cello_v0_additive_7","midi_source":""},{"t":58.625,"note":69,"dur":0.327,"vel":0.709,"inst":"pad_warm_v0_fm_94","midi_source":""},{"t":58.707,"note":47,"dur":0.082,"vel":0.709,"inst":"pad_warm_v0_fm_94","midi_source":""},{"t":58.789,"note":48,"dur":0.082,"vel":0.709,"inst":"cello_v0_additive_7","midi_source":""},{"t":58.87,"note":48,"dur":0.082,"vel":0.709,"inst":"cello_v0_additive_7","midi_source":""},{"t":58.952,"note":50,"dur":0.082,"vel":0.709,"inst":"cello_v0_additive_7","midi_source":""},{"t":58.952,"note":54,"dur":0.327,"vel":0.709,"inst":"cello_v0_additive_7","midi_source":""},{"t":58.952,"note":66,"dur":0.327,"vel":0.709,"inst":"cello_v0_additive_7","midi_source":""},{"t":58.952,"note":69,"dur":0.327,"vel":0.709,"inst":"pad_warm_v0_fm_94","midi_source":""},{"t":59.034,"note":50,"dur":0.082,"vel":0.709,"inst":"cello_v0_additive_7","midi_source":""},{"t":59.116,"note":62,"dur":0.082,"vel":0.709,"inst":"cello_v0_additive_7","midi_source":""},{"t":59.197,"note":57,"dur":0.041,"vel":0.709,"inst":"pad_warm_v0_fm_94","midi_source":""},{"t":59.197,"note":62,"dur":0.082,"vel":0.709,"inst":"cello_v0_additive_7","midi_source":""},{"t":59.197,"note":66,"dur":0.041,"vel":0.709,"inst":"cello_v0_additive_7","midi_source":""},{"t":59.238,"note":59,"dur":0.041,"vel":0.709,"inst":"pad_warm_v0_fm_94","midi_source":""},{"t":59.238,"note":67,"dur":0.041,"vel":0.709,"inst":"pad_warm_v0_fm_94","midi_source":""},{"t":59.279,"note":60,"dur":0.163,"vel":0.709,"inst":"cello_v0_additive_7","midi_source":""},{"t":59.279,"note":62,"dur":0.082,"vel":0.709,"inst":"cello_v0_additive_7","midi_source":""},{"t":59.279,"note":69,"dur":0.163,"vel":0.709,"inst":"pad_warm_v0_fm_94","midi_source":""},{"t":59.361,"note":62,"dur":0.082,"vel":0.709,"inst":"cello_v0_additive_7","midi_source":""},{"t":59.443,"note":62,"dur":0.082,"vel":0.709,"inst":"cello_v0_additive_7","midi_source":""},{"t":59.524,"note":62,"dur":0.082,"vel":0.709,"inst":"cello_v0_additive_7","midi_source":""},{"t":59.606,"note":57,"dur":0.163,"vel":0.709,"inst":"pad_warm_v0_fm_94","midi_source":""},{"t":59.606,"note":62,"dur":0.082,"vel":0.709,"inst":"cello_v0_additive_7","midi_source":""},{"t":59.606,"note":66,"dur":0.163,"vel":0.709,"inst":"cello_v0_additive_7","midi_source":""},{"t":59.688,"note":62,"dur":0.082,"vel":0.709,"inst":"cello_v0_additive_7","midi_source":""},{"t":59.769,"note":62,"dur":0.082,"vel":0.709,"inst":"cello_v0_additive_7","midi_source":""},{"t":59.851,"note":62,"dur":0.082,"vel":0.709,"inst":"cello_v0_additive_7","midi_source":""},{"t":59.933,"note":55,"dur":0.245,"vel":0.709,"inst":"pad_warm_v0_fm_94","midi_source":""},{"t":59.933,"note":62,"dur":0.082,"vel":0.709,"inst":"cello_v0_additive_7","midi_source":""},{"t":59.933,"note":71,"dur":0.245,"vel":0.709,"inst":"pad_warm_v0_fm_94","midi_source":""},{"t":60.015,"note":62,"dur":0.082,"vel":0.709,"inst":"cello_v0_additive_7","midi_source":""},{"t":60.096,"note":62,"dur":0.082,"vel":0.709,"inst":"cello_v0_additive_7","midi_source":""},{"t":60.178,"note":54,"dur":0.041,"vel":0.709,"inst":"cello_v0_additive_7","midi_source":""},{"t":60.178,"note":62,"dur":0.082,"vel":0.709,"inst":"cello_v0_additive_7","midi_source":""},{"t":60.178,"note":69,"dur":0.041,"vel":0.709,"inst":"pad_warm_v0_fm_94","midi_source":""},{"t":60.219,"note":55,"dur":0.041,"vel":0.709,"inst":"pad_warm_v0_fm_94","midi_source":""},{"t":60.219,"note":71,"dur":0.041,"vel":0.709,"inst":"pad_warm_v0_fm_94","midi_source":""},{"t":60.26,"note":57,"dur":0.163,"vel":0.709,"inst":"pad_warm_v0_fm_94","midi_source":""},{"t":60.26,"note":62,"dur":0.082,"vel":0.709,"inst":"cello_v0_additive_7","midi_source":""},{"t":60.26,"note":72,"dur":0.163,"vel":0.709,"inst":"cello_v0_additive_7","midi_source":""},{"t":60.342,"note":62,"dur":0.082,"vel":0.709,"inst":"cello_v0_additive_7","midi_source":""},{"t":60.423,"note":62,"dur":0.082,"vel":0.709,"inst":"cello_v0_additive_7","midi_source":""},{"t":60.505,"note":62,"dur":0.082,"vel":0.709,"inst":"cello_v0_additive_7","midi_source":""},{"t":60.587,"note":54,"dur":0.163,"vel":0.709,"inst":"cello_v0_additive_7","midi_source":""},{"t":60.587,"note":62,"dur":0.082,"vel":0.709,"inst":"cello_v0_additive_7","midi_source":""},{"t":60.587,"note":69,"dur":0.163,"vel":0.709,"inst":"pad_warm_v0_fm_94","midi_source":""},{"t":60.668,"note":62,"dur":0.082,"vel":0.709,"inst":"cello_v0_additive_7","midi_source":""},{"t":60.75,"note":62,"dur":0.082,"vel":0.709,"inst":"cello_v0_additive_7","midi_source":""},{"t":60.832,"note":62,"dur":0.082,"vel":0.709,"inst":"cello_v0_additive_7","midi_source":""},{"t":60.914,"note":47,"dur":0.082,"vel":0.709,"inst":"pad_warm_v0_fm_94","midi_source":""},{"t":60.914,"note":55,"dur":0.082,"vel":0.709,"inst":"pad_warm_v0_fm_94","midi_source":""},{"t":60.914,"note":55,"dur":0.082,"vel":0.709,"inst":"pad_warm_v0_fm_94","midi_source":""},{"t":60.914,"note":74,"dur":0.245,"vel":0.709,"inst":"cello_v0_additive_7","midi_source":""},{"t":60.995,"note":47,"dur":0.082,"vel":0.709,"inst":"pad_warm_v0_fm_94","midi_source":""},{"t":60.995,"note":55,"dur":0.082,"vel":0.709,"inst":"pad_warm_v0_fm_94","midi_source":""},{"t":60.995,"note":55,"dur":0.082,"vel":0.709,"inst":"pad_warm_v0_fm_94","midi_source":""},{"t":61.077,"note":47,"dur":0.082,"vel":0.709,"inst":"pad_warm_v0_fm_94","midi_source":""},{"t":61.077,"note":55,"dur":0.082,"vel":0.709,"inst":"pad_warm_v0_fm_94","midi_source":""},{"t":61.077,"note":55,"dur":0.082,"vel":0.709,"inst":"pad_warm_v0_fm_94","midi_source":""},{"t":61.159,"note":47,"dur":0.082,"vel":0.709,"inst":"pad_warm_v0_fm_94","midi_source":""},{"t":61.159,"note":55,"dur":0.082,"vel":0.709,"inst":"pad_warm_v0_fm_94","midi_source":""},{"t":61.159,"note":55,"dur":0.082,"vel":0.709,"inst":"pad_warm_v0_fm_94","midi_source":""},{"t":61.159,"note":74,"dur":0.041,"vel":0.709,"inst":"cello_v0_additive_7","midi_source":""},{"t":61.2,"note":76,"dur":0.041,"vel":0.709,"inst":"cello_v0_additive_7","midi_source":""},{"t":61.241,"note":47,"dur":0.082,"vel":0.709,"inst":"pad_warm_v0_fm_94","midi_source":""},{"t":61.241,"note":55,"dur":0.082,"vel":0.709,"inst":"pad_warm_v0_fm_94","midi_source":""},{"t":61.241,"note":62,"dur":0.082,"vel":0.709,"inst":"cello_v0_additive_7","midi_source":""},{"t":61.241,"note":76,"dur":0.327,"vel":0.709,"inst":"cello_v0_additive_7","midi_source":""},{"t":61.322,"note":47,"dur":0.082,"vel":0.709,"inst":"pad_warm_v0_fm_94","midi_source":""},{"t":61.322,"note":55,"dur":0.082,"vel":0.709,"inst":"pad_warm_v0_fm_94","midi_source":""},{"t":61.322,"note":62,"dur":0.082,"vel":0.709,"inst":"cello_v0_additive_7","midi_source":""},{"t":61.404,"note":47,"dur":0.082,"vel":0.709,"inst":"pad_warm_v0_fm_94","midi_source":""},{"t":61.404,"note":55,"dur":0.082,"vel":0.709,"inst":"pad_warm_v0_fm_94","midi_source":""},{"t":61.404,"note":62,"dur":0.082,"vel":0.709,"inst":"cello_v0_additive_7","midi_source":""},{"t":61.486,"note":47,"dur":0.082,"vel":0.709,"inst":"pad_warm_v0_fm_94","midi_source":""},{"t":61.486,"note":55,"dur":0.082,"vel":0.709,"inst":"pad_warm_v0_fm_94","midi_source":""},{"t":61.486,"note":62,"dur":0.082,"vel":0.709,"inst":"cello_v0_additive_7","midi_source":""},{"t":61.567,"note":48,"dur":0.082,"vel":0.709,"inst":"cello_v0_additive_7","midi_source":""},{"t":61.567,"note":57,"dur":0.082,"vel":0.709,"inst":"pad_warm_v0_fm_94","midi_source":""},{"t":61.567,"note":60,"dur":0.082,"vel":0.709,"inst":"cello_v0_additive_7","midi_source":""},{"t":61.567,"note":76,"dur":0.041,"vel":0.709,"inst":"cello_v0_additive_7","midi_source":""},{"t":61.608,"note":72,"dur":0.041,"vel":0.709,"inst":"cello_v0_additive_7","midi_source":""},{"t":61.649,"note":48,"dur":0.082,"vel":0.709,"inst":"cello_v0_additive_7","midi_source":""},{"t":61.649,"note":57,"dur":0.082,"vel":0.709,"inst":"pad_warm_v0_fm_94","midi_source":""},{"t":61.649,"note":60,"dur":0.082,"vel":0.709,"inst":"cello_v0_additive_7","midi_source":""},{"t":61.649,"note":71,"dur":0.041,"vel":0.709,"inst":"pad_warm_v0_fm_94","midi_source":""},{"t":61.69,"note":69,"dur":0.041,"vel":0.709,"inst":"pad_warm_v0_fm_94","midi_source":""},{"t":61.731,"note":48,"dur":0.082,"vel":0.709,"inst":"cello_v0_additive_7","midi_source":""},{"t":61.731,"note":57,"dur":0.082,"vel":0.709,"inst":"pad_warm_v0_fm_94","midi_source":""},{"t":61.731,"note":60,"dur":0.082,"vel":0.709,"inst":"cello_v0_additive_7","midi_source":""},{"t":61.731,"note":67,"dur":0.041,"vel":0.709,"inst":"pad_warm_v0_fm_94","midi_source":""},{"t":61.772,"note":69,"dur":0.041,"vel":0.709,"inst":"pad_warm_v0_fm_94","midi_source":""},{"t":61.813,"note":48,"dur":0.082,"vel":0.709,"inst":"cello_v0_additive_7","midi_source":""},{"t":61.813,"note":57,"dur":0.082,"vel":0.709,"inst":"pad_warm_v0_fm_94","midi_source":""},{"t":61.813,"note":60,"dur":0.082,"vel":0.709,"inst":"cello_v0_additive_7","midi_source":""},{"t":61.813,"note":72,"dur":0.041,"vel":0.709,"inst":"cello_v0_additive_7","midi_source":""},{"t":61.854,"note":69,"dur":0.041,"vel":0.709,"inst":"pad_warm_v0_fm_94","midi_source":""},{"t":61.894,"note":50,"dur":0.082,"vel":0.709,"inst":"cello_v0_additive_7","midi_source":""},{"t":61.894,"note":55,"dur":0.082,"vel":0.709,"inst":"pad_warm_v0_fm_94","midi_source":""},{"t":61.894,"note":59,"dur":0.082,"vel":0.709,"inst":"pad_warm_v0_fm_94","midi_source":""},{"t":61.894,"note":67,"dur":0.041,"vel":0.709,"inst":"pad_warm_v0_fm_94","midi_source":""},{"t":61.935,"note":69,"dur":0.041,"vel":0.709,"inst":"pad_warm_v0_fm_94","midi_source":""},{"t":61.976,"note":50,"dur":0.082,"vel":0.709,"inst":"cello_v0_additive_7","midi_source":""},{"t":61.976,"note":55,"dur":0.082,"vel":0.709,"inst":"pad_warm_v0_fm_94","midi_source":""},{"t":61.976,"note":59,"dur":0.082,"vel":0.709,"inst":"pad_warm_v0_fm_94","midi_source":""},{"t":61.976,"note":71,"dur":0.041,"vel":0.709,"inst":"pad_warm_v0_fm_94","midi_source":""},{"t":62.017,"note":72,"dur":0.041,"vel":0.709,"inst":"cello_v0_additive_7","midi_source":""},{"t":62.058,"note":50,"dur":0.082,"vel":0.709,"inst":"cello_v0_additive_7","midi_source":""},{"t":62.058,"note":55,"dur":0.082,"vel":0.709,"inst":"pad_warm_v0_fm_94","midi_source":""},{"t":62.058,"note":59,"dur":0.082,"vel":0.709,"inst":"pad_warm_v0_fm_94","midi_source":""},{"t":62.058,"note":74,"dur":0.041,"vel":0.709,"inst":"cello_v0_additive_7","midi_source":""},{"t":62.099,"note":76,"dur":0.041,"vel":0.709,"inst":"cello_v0_additive_7","midi_source":""},{"t":62.14,"note":50,"dur":0.082,"vel":0.709,"inst":"cello_v0_additive_7","midi_source":""},{"t":62.14,"note":55,"dur":0.082,"vel":0.709,"inst":"pad_warm_v0_fm_94","midi_source":""},{"t":62.14,"note":59,"dur":0.082,"vel":0.709,"inst":"pad_warm_v0_fm_94","midi_source":""},{"t":62.14,"note":74,"dur":0.041,"vel":0.709,"inst":"cello_v0_additive_7","midi_source":""},{"t":62.18,"note":76,"dur":0.041,"vel":0.709,"inst":"cello_v0_additive_7","midi_source":""},{"t":62.221,"note":50,"dur":0.163,"vel":0.709,"inst":"cello_v0_additive_7","midi_source":""},{"t":62.221,"note":55,"dur":0.163,"vel":0.709,"inst":"pad_warm_v0_fm_94","midi_source":""},{"t":62.221,"note":59,"dur":0.163,"vel":0.709,"inst":"pad_warm_v0_fm_94","midi_source":""},{"t":62.221,"note":74,"dur":0.163,"vel":0.709,"inst":"cello_v0_additive_7","midi_source":""},{"t":62.548,"note":50,"dur":0.163,"vel":0.709,"inst":"cello_v0_additive_7","midi_source":""},{"t":62.548,"note":57,"dur":0.163,"vel":0.709,"inst":"pad_warm_v0_fm_94","midi_source":""},{"t":62.548,"note":60,"dur":0.163,"vel":0.709,"inst":"cello_v0_additive_7","midi_source":""},{"t":62.548,"note":66,"dur":0.163,"vel":0.709,"inst":"cello_v0_additive_7","midi_source":""},{"t":62.875,"note":59,"dur":0.245,"vel":0.709,"inst":"pad_warm_v0_fm_94","midi_source":""},{"t":62.875,"note":62,"dur":0.082,"vel":0.709,"inst":"cello_v0_additive_7","midi_source":""},{"t":62.875,"note":67,"dur":0.245,"vel":0.709,"inst":"pad_warm_v0_fm_94","midi_source":""},{"t":62.957,"note":62,"dur":0.082,"vel":0.709,"inst":"cello_v0_additive_7","midi_source":""},{"t":63.039,"note":62,"dur":0.082,"vel":0.709,"inst":"cello_v0_additive_7","midi_source":""},{"t":63.12,"note":57,"dur":0.041,"vel":0.709,"inst":"pad_warm_v0_fm_94","midi_source":""},{"t":63.12,"note":62,"dur":0.082,"vel":0.709,"inst":"cello_v0_additive_7","midi_source":""},{"t":63.12,"note":66,"dur":0.041,"vel":0.709,"inst":"cello_v0_additive_7","midi_source":""},{"t":63.161,"note":59,"dur":0.041,"vel":0.709,"inst":"pad_warm_v0_fm_94","midi_source":""},{"t":63.161,"note":67,"dur":0.041,"vel":0.709,"inst":"pad_warm_v0_fm_94","midi_source":""},{"t":63.202,"note":60,"dur":0.163,"vel":0.709,"inst":"cello_v0_additive_7","midi_source":""},{"t":63.202,"note":62,"dur":0.082,"vel":0.709,"inst":"cello_v0_additive_7","midi_source":""},{"t":63.202,"note":69,"dur":0.163,"vel":0.709,"inst":"pad_warm_v0_fm_94","midi_source":""},{"t":63.284,"note":62,"dur":0.082,"vel":0.709,"inst":"cello_v0_additive_7","midi_source":""},{"t":63.366,"note":62,"dur":0.082,"vel":0.709,"inst":"cello_v0_additive_7","midi_source":""},{"t":63.447,"note":62,"dur":0.082,"vel":0.709,"inst":"cello_v0_additive_7","midi_source":""},{"t":63.529,"note":57,"dur":0.163,"vel":0.709,"inst":"pad_warm_v0_fm_94","midi_source":""},{"t":63.529,"note":62,"dur":0.082,"vel":0.709,"inst":"cello_v0_additive_7","midi_source":""},{"t":63.529,"note":66,"dur":0.163,"vel":0.709,"inst":"cello_v0_additive_7","midi_source":""},{"t":63.611,"note":62,"dur":0.082,"vel":0.709,"inst":"cello_v0_additive_7","midi_source":""},{"t":63.692,"note":62,"dur":0.082,"vel":0.709,"inst":"cello_v0_additive_7","midi_source":""},{"t":63.774,"note":62,"dur":0.082,"vel":0.709,"inst":"cello_v0_additive_7","midi_source":""},{"t":63.856,"note":55,"dur":0.245,"vel":0.709,"inst":"pad_warm_v0_fm_94","midi_source":""},{"t":63.856,"note":62,"dur":0.082,"vel":0.709,"inst":"cello_v0_additive_7","midi_source":""},{"t":63.856,"note":69,"dur":0.245,"vel":0.709,"inst":"pad_warm_v0_fm_94","midi_source":""},{"t":63.938,"note":62,"dur":0.082,"vel":0.709,"inst":"cello_v0_additive_7","midi_source":""},{"t":64.019,"note":62,"dur":0.082,"vel":0.709,"inst":"cello_v0_additive_7","midi_source":""},{"t":64.101,"note":54,"dur":0.041,"vel":0.709,"inst":"cello_v0_additive_7","midi_source":""},{"t":64.101,"note":62,"dur":0.082,"vel":0.709,"inst":"cello_v0_additive_7","midi_source":""},{"t":64.101,"note":69,"dur":0.041,"vel":0.709,"inst":"pad_warm_v0_fm_94","midi_source":""},{"t":64.142,"note":55,"dur":0.041,"vel":0.709,"inst":"pad_warm_v0_fm_94","midi_source":""},{"t":64.142,"note":69,"dur":0.041,"vel":0.709,"inst":"pad_warm_v0_fm_94","midi_source":""},{"t":64.183,"note":57,"dur":0.163,"vel":0.709,"inst":"pad_warm_v0_fm_94","midi_source":""},{"t":64.183,"note":62,"dur":0.082,"vel":0.709,"inst":"cello_v0_additive_7","midi_source":""},{"t":64.183,"note":72,"dur":0.163,"vel":0.709,"inst":"cello_v0_additive_7","midi_source":""},{"t":64.265,"note":62,"dur":0.082,"vel":0.709,"inst":"cello_v0_additive_7","midi_source":""},{"t":64.346,"note":62,"dur":0.082,"vel":0.709,"inst":"cello_v0_additive_7","midi_source":""},{"t":64.428,"note":62,"dur":0.082,"vel":0.709,"inst":"cello_v0_additive_7","midi_source":""},{"t":64.51,"note":54,"dur":0.163,"vel":0.709,"inst":"cello_v0_additive_7","midi_source":""},{"t":64.51,"note":62,"dur":0.082,"vel":0.709,"inst":"cello_v0_additive_7","midi_source":""},{"t":64.51,"note":69,"dur":0.163,"vel":0.709,"inst":"pad_warm_v0_fm_94","midi_source":""},{"t":64.591,"note":62,"dur":0.082,"vel":0.709,"inst":"cello_v0_additive_7","midi_source":""},{"t":64.673,"note":62,"dur":0.082,"vel":0.709,"inst":"cello_v0_additive_7","midi_source":""},{"t":64.755,"note":62,"dur":0.082,"vel":0.709,"inst":"cello_v0_additive_7","midi_source":""},{"t":64.837,"note":55,"dur":0.082,"vel":0.709,"inst":"pad_warm_v0_fm_94","midi_source":""},{"t":64.837,"note":57,"dur":0.082,"vel":0.709,"inst":"pad_warm_v0_fm_94","midi_source":""},{"t":64.837,"note":69,"dur":0.245,"vel":0.709,"inst":"pad_warm_v0_fm_94","midi_source":""},{"t":64.837,"note":74,"dur":0.245,"vel":0.709,"inst":"cello_v0_additive_7","midi_source":""},{"t":64.918,"note":55,"dur":0.082,"vel":0.709,"inst":"pad_warm_v0_fm_94","midi_source":""},{"t":64.918,"note":57,"dur":0.082,"vel":0.709,"inst":"pad_warm_v0_fm_94","midi_source":""},{"t":65.0,"note":55,"dur":0.082,"vel":0.709,"inst":"pad_warm_v0_fm_94","midi_source":""},{"t":65.0,"note":57,"dur":0.082,"vel":0.709,"inst":"pad_warm_v0_fm_94","midi_source":""},{"t":65.082,"note":55,"dur":0.082,"vel":0.709,"inst":"pad_warm_v0_fm_94","midi_source":""},{"t":65.082,"note":57,"dur":0.082,"vel":0.709,"inst":"pad_warm_v0_fm_94","midi_source":""},{"t":65.082,"note":69,"dur":0.041,"vel":0.709,"inst":"pad_warm_v0_fm_94","midi_source":""},{"t":65.082,"note":72,"dur":0.041,"vel":0.709,"inst":"cello_v0_additive_7","midi_source":""},{"t":65.123,"note":69,"dur":0.041,"vel":0.709,"inst":"pad_warm_v0_fm_94","midi_source":""},{"t":65.123,"note":74,"dur":0.041,"vel":0.709,"inst":"cello_v0_additive_7","midi_source":""},{"t":65.164,"note":48,"dur":0.082,"vel":0.709,"inst":"cello_v0_additive_7","midi_source":""},{"t":65.164,"note":55,"dur":0.082,"vel":0.709,"inst":"pad_warm_v0_fm_94","midi_source":""},{"t":65.164,"note":72,"dur":0.327,"vel":0.709,"inst":"cello_v0_additive_7","midi_source":""},{"t":65.164,"note":74,"dur":0.327,"vel":0.709,"inst":"cello_v0_additive_7","midi_source":""},{"t":65.245,"note":48,"dur":0.082,"vel":0.709,"inst":"cello_v0_additive_7","midi_source":""},{"t":65.245,"note":55,"dur":0.082,"vel":0.709,"inst":"pad_warm_v0_fm_94","midi_source":""},{"t":65.327,"note":48,"dur":0.082,"vel":0.709,"inst":"cello_v0_additive_7","midi_source":""},{"t":65.327,"note":55,"dur":0.082,"vel":0.709,"inst":"pad_warm_v0_fm_94","midi_source":""},{"t":65.409,"note":48,"dur":0.082,"vel":0.709,"inst":"cello_v0_additive_7","midi_source":""},{"t":65.409,"note":55,"dur":0.082,"vel":0.709,"inst":"pad_warm_v0_fm_94","midi_source":""},{"t":65.49,"note":52,"dur":0.082,"vel":0.709,"inst":"cello_v0_additive_7","midi_source":""},{"t":65.49,"note":57,"dur":0.082,"vel":0.709,"inst":"pad_warm_v0_fm_94","midi_source":""},{"t":65.49,"note":62,"dur":0.163,"vel":0.709,"inst":"cello_v0_additive_7","midi_source":""},{"t":65.49,"note":72,"dur":0.163,"vel":0.709,"inst":"cello_v0_additive_7","midi_source":""},{"t":65.572,"note":52,"dur":0.082,"vel":0.709,"inst":"cello_v0_additive_7","midi_source":""},{"t":65.572,"note":57,"dur":0.082,"vel":0.709,"inst":"pad_warm_v0_fm_94","midi_source":""},{"t":65.654,"note":52,"dur":0.082,"vel":0.709,"inst":"cello_v0_additive_7","midi_source":""},{"t":65.654,"note":57,"dur":0.082,"vel":0.709,"inst":"pad_warm_v0_fm_94","midi_source":""},{"t":65.654,"note":60,"dur":0.163,"vel":0.709,"inst":"cello_v0_additive_7","midi_source":""},{"t":65.654,"note":69,"dur":0.163,"vel":0.709,"inst":"pad_warm_v0_fm_94","midi_source":""},{"t":65.736,"note":52,"dur":0.082,"vel":0.709,"inst":"cello_v0_additive_7","midi_source":""},{"t":65.736,"note":57,"dur":0.082,"vel":0.709,"inst":"pad_warm_v0_fm_94","midi_source":""},{"t":65.817,"note":50,"dur":0.082,"vel":0.709,"inst":"cello_v0_additive_7","midi_source":""},{"t":65.817,"note":57,"dur":0.49,"vel":0.709,"inst":"pad_warm_v0_fm_94","midi_source":""},{"t":65.817,"note":57,"dur":0.082,"vel":0.709,"inst":"pad_warm_v0_fm_94","midi_source":""},{"t":65.817,"note":76,"dur":0.245,"vel":0.709,"inst":"cello_v0_additive_7","midi_source":""},{"t":65.899,"note":50,"dur":0.082,"vel":0.709,"inst":"cello_v0_additive_7","midi_source":""},{"t":65.899,"note":57,"dur":0.082,"vel":0.709,"inst":"pad_warm_v0_fm_94","midi_source":""},{"t":65.981,"note":50,"dur":0.082,"vel":0.709,"inst":"cello_v0_additive_7","midi_source":""},{"t":65.981,"note":57,"dur":0.082,"vel":0.709,"inst":"pad_warm_v0_fm_94","midi_source":""},{"t":66.063,"note":50,"dur":0.082,"vel":0.709,"inst":"cello_v0_additive_7","midi_source":""},{"t":66.063,"note":57,"dur":0.082,"vel":0.709,"inst":"pad_warm_v0_fm_94","midi_source":""},{"t":66.063,"note":74,"dur":0.041,"vel":0.709,"inst":"cello_v0_additive_7","midi_source":""},{"t":66.103,"note":76,"dur":0.041,"vel":0.709,"inst":"cello_v0_additive_7","midi_source":""},{"t":66.144,"note":50,"dur":0.082,"vel":0.709,"inst":"cello_v0_additive_7","midi_source":""},{"t":66.144,"note":55,"dur":0.082,"vel":0.709,"inst":"pad_warm_v0_fm_94","midi_source":""},{"t":66.144,"note":79,"dur":0.163,"vel":0.709,"inst":"pad_warm_v0_fm_94","midi_source":""},{"t":66.226,"note":50,"dur":0.082,"vel":0.709,"inst":"cello_v0_additive_7","midi_source":""},{"t":66.226,"note":55,"dur":0.082,"vel":0.709,"inst":"pad_warm_v0_fm_94","midi_source":""},{"t":66.308,"note":50,"dur":0.082,"vel":0.709,"inst":"cello_v0_additive_7","midi_source":""},{"t":66.308,"note":55,"dur":0.082,"vel":0.709,"inst":"pad_warm_v0_fm_94","midi_source":""},{"t":66.308,"note":67,"dur":0.163,"vel":0.709,"inst":"pad_warm_v0_fm_94","midi_source":""},{"t":66.308,"note":74,"dur":0.163,"vel":0.709,"inst":"cello_v0_additive_7","midi_source":""},{"t":66.389,"note":50,"dur":0.082,"vel":0.709,"inst":"cello_v0_additive_7","midi_source":""},{"t":66.389,"note":55,"dur":0.082,"vel":0.709,"inst":"pad_warm_v0_fm_94","midi_source":""},{"t":66.471,"note":52,"dur":0.082,"vel":0.709,"inst":"cello_v0_additive_7","midi_source":""},{"t":66.471,"note":57,"dur":0.082,"vel":0.709,"inst":"pad_warm_v0_fm_94","midi_source":""},{"t":66.471,"note":62,"dur":0.163,"vel":0.709,"inst":"cello_v0_additive_7","midi_source":""},{"t":66.471,"note":72,"dur":0.163,"vel":0.709,"inst":"cello_v0_additive_7","midi_source":""},{"t":66.553,"note":52,"dur":0.082,"vel":0.709,"inst":"cello_v0_additive_7","midi_source":""},{"t":66.553,"note":57,"dur":0.082,"vel":0.709,"inst":"pad_warm_v0_fm_94","midi_source":""},{"t":66.635,"note":52,"dur":0.082,"vel":0.709,"inst":"cello_v0_additive_7","midi_source":""},{"t":66.635,"note":60,"dur":0.163,"vel":0.709,"inst":"cello_v0_additive_7","midi_source":""},{"t":66.635,"note":60,"dur":0.082,"vel":0.709,"inst":"cello_v0_additive_7","midi_source":""},{"t":66.635,"note":69,"dur":0.163,"vel":0.709,"inst":"pad_warm_v0_fm_94","midi_source":""},{"t":66.716,"note":52,"dur":0.082,"vel":0.709,"inst":"cello_v0_additive_7","midi_source":""},{"t":66.716,"note":60,"dur":0.082,"vel":0.709,"inst":"cello_v0_additive_7","midi_source":""},{"t":66.798,"note":45,"dur":0.082,"vel":0.709,"inst":"pad_warm_v0_fm_94","midi_source":""},{"t":66.798,"note":57,"dur":0.327,"vel":0.709,"inst":"pad_warm_v0_fm_94","midi_source":""},{"t":66.798,"note":62,"dur":0.654,"vel":0.709,"inst":"cello_v0_additive_7","midi_source":""},{"t":66.798,"note":69,"dur":0.654,"vel":0.709,"inst":"pad_warm_v0_fm_94","midi_source":""},{"t":66.88,"note":48,"dur":0.082,"vel":0.709,"inst":"cello_v0_additive_7","midi_source":""},{"t":66.962,"note":45,"dur":0.082,"vel":0.709,"inst":"pad_warm_v0_fm_94","midi_source":""},{"t":67.043,"note":45,"dur":0.082,"vel":0.709,"inst":"pad_warm_v0_fm_94","midi_source":""},{"t":67.125,"note":45,"dur":0.082,"vel":0.709,"inst":"pad_warm_v0_fm_94","midi_source":""},{"t":67.125,"note":52,"dur":0.327,"vel":0.709,"inst":"cello_v0_additive_7","midi_source":""},{"t":67.207,"note":48,"dur":0.082,"vel":0.709,"inst":"cello_v0_additive_7","midi_source":""},{"t":67.288,"note":45,"dur":0.082,"vel":0.709,"inst":"pad_warm_v0_fm_94","midi_source":""},{"t":67.37,"note":45,"dur":0.082,"vel":0.709,"inst":"pad_warm_v0_fm_94","midi_source":""},{"t":67.452,"note":45,"dur":0.082,"vel":0.709,"inst":"pad_warm_v0_fm_94","midi_source":""},{"t":67.452,"note":52,"dur":0.327,"vel":0.709,"inst":"cello_v0_additive_7","midi_source":""},{"t":67.452,"note":62,"dur":0.327,"vel":0.709,"inst":"cello_v0_additive_7","midi_source":""},{"t":67.452,"note":67,"dur":0.327,"vel":0.709,"inst":"pad_warm_v0_fm_94","midi_source":""},{"t":67.534,"note":45,"dur":0.082,"vel":0.709,"inst":"pad_warm_v0_fm_94","midi_source":""},{"t":67.615,"note":45,"dur":0.082,"vel":0.709,"inst":"pad_warm_v0_fm_94","midi_source":""},{"t":67.697,"note":47,"dur":0.082,"vel":0.709,"inst":"pad_warm_v0_fm_94","midi_source":""},{"t":67.779,"note":48,"dur":0.082,"vel":0.709,"inst":"cello_v0_additive_7","midi_source":""},{"t":67.779,"note":50,"dur":0.654,"vel":0.709,"inst":"cello_v0_additive_7","midi_source":""},{"t":67.779,"note":62,"dur":0.654,"vel":0.709,"inst":"cello_v0_additive_7","midi_source":""},{"t":67.779,"note":67,"dur":0.654,"vel":0.709,"inst":"pad_warm_v0_fm_94","midi_source":""},{"t":67.861,"note":50,"dur":0.082,"vel":0.709,"inst":"cello_v0_additive_7","midi_source":""},{"t":67.942,"note":48,"dur":0.082,"vel":0.709,"inst":"cello_v0_additive_7","midi_source":""},{"t":68.024,"note":47,"dur":0.082,"vel":0.709,"inst":"pad_warm_v0_fm_94","midi_source":""},{"t":68.106,"note":48,"dur":0.082,"vel":0.709,"inst":"cello_v0_additive_7","midi_source":""},{"t":68.188,"note":50,"dur":0.082,"vel":0.709,"inst":"cello_v0_additive_7","midi_source":""},{"t":68.269,"note":48,"dur":0.082,"vel":0.709,"inst":"cello_v0_additive_7","midi_source":""},{"t":68.351,"note":47,"dur":0.082,"vel":0.709,"inst":"pad_warm_v0_fm_94","midi_source":""},{"t":68.433,"note":48,"dur":0.082,"vel":0.709,"inst":"cello_v0_additive_7","midi_source":""},{"t":68.433,"note":55,"dur":0.327,"vel":0.709,"inst":"pad_warm_v0_fm_94","midi_source":""},{"t":68.433,"note":64,"dur":0.327,"vel":0.709,"inst":"cello_v0_additive_7","midi_source":""},{"t":68.433,"note":69,"dur":0.327,"vel":0.709,"inst":"pad_warm_v0_fm_94","midi_source":""},{"t":68.514,"note":47,"dur":0.082,"vel":0.709,"inst":"pad_warm_v0_fm_94","midi_source":""},{"t":68.596,"note":48,"dur":0.082,"vel":0.709,"inst":"cello_v0_additive_7","midi_source":""},{"t":68.678,"note":48,"dur":0.082,"vel":0.709,"inst":"cello_v0_additive_7","midi_source":""},{"t":68.76,"note":50,"dur":0.082,"vel":0.709,"inst":"cello_v0_additive_7","midi_source":""},{"t":68.76,"note":54,"dur":0.327,"vel":0.709,"inst":"cello_v0_additive_7","midi_source":""},{"t":68.76,"note":66,"dur":0.327,"vel":0.709,"inst":"cello_v0_additive_7","midi_source":""},{"t":68.76,"note":69,"dur":0.327,"vel":0.709,"inst":"pad_warm_v0_fm_94","midi_source":""},{"t":68.841,"note":50,"dur":0.082,"vel":0.709,"inst":"cello_v0_additive_7","midi_source":""},{"t":68.923,"note":62,"dur":0.082,"vel":0.709,"inst":"cello_v0_additive_7","midi_source":""},{"t":69.005,"note":57,"dur":0.041,"vel":0.709,"inst":"pad_warm_v0_fm_94","midi_source":""},{"t":69.005,"note":62,"dur":0.082,"vel":0.709,"inst":"cello_v0_additive_7","midi_source":""},{"t":69.005,"note":66,"dur":0.041,"vel":0.709,"inst":"cello_v0_additive_7","midi_source":""},{"t":69.046,"note":59,"dur":0.041,"vel":0.709,"inst":"pad_warm_v0_fm_94","midi_source":""},{"t":69.046,"note":67,"dur":0.041,"vel":0.709,"inst":"pad_warm_v0_fm_94","midi_source":""},{"t":69.087,"note":60,"dur":0.163,"vel":0.709,"inst":"cello_v0_additive_7","midi_source":""},{"t":69.087,"note":62,"dur":0.082,"vel":0.709,"inst":"cello_v0_additive_7","midi_source":""},{"t":69.087,"note":69,"dur":0.163,"vel":0.709,"inst":"pad_warm_v0_fm_94","midi_source":""},{"t":69.168,"note":62,"dur":0.082,"vel":0.709,"inst":"cello_v0_additive_7","midi_source":""},{"t":69.25,"note":62,"dur":0.082,"vel":0.709,"inst":"cello_v0_additive_7","midi_source":""},{"t":69.332,"note":62,"dur":0.082,"vel":0.709,"inst":"cello_v0_additive_7","midi_source":""},{"t":69.413,"note":57,"dur":0.163,"vel":0.709,"inst":"pad_warm_v0_fm_94","midi_source":""},{"t":69.413,"note":62,"dur":0.082,"vel":0.709,"inst":"cello_v0_additive_7","midi_source":""},{"t":69.413,"note":66,"dur":0.163,"vel":0.709,"inst":"cello_v0_additive_7","midi_source":""},{"t":69.495,"note":62,"dur":0.082,"vel":0.709,"inst":"cello_v0_additive_7","midi_source":""},{"t":69.577,"note":62,"dur":0.082,"vel":0.709,"inst":"cello_v0_additive_7","midi_source":""},{"t":69.659,"note":62,"dur":0.082,"vel":0.709,"inst":"cello_v0_additive_7","midi_source":""},{"t":69.74,"note":55,"dur":0.245,"vel":0.709,"inst":"pad_warm_v0_fm_94","midi_source":""},{"t":69.74,"note":62,"dur":0.082,"vel":0.709,"inst":"cello_v0_additive_7","midi_source":""},{"t":69.74,"note":71,"dur":0.245,"vel":0.709,"inst":"pad_warm_v0_fm_94","midi_source":""},{"t":69.822,"note":62,"dur":0.082,"vel":0.709,"inst":"cello_v0_additive_7","midi_source":""},{"t":69.904,"note":62,"dur":0.082,"vel":0.709,"inst":"cello_v0_additive_7","midi_source":""},{"t":69.986,"note":54,"dur":0.041,"vel":0.709,"inst":"cello_v0_additive_7","midi_source":""},{"t":69.986,"note":62,"dur":0.082,"vel":0.709,"inst":"cello_v0_additive_7","midi_source":""},{"t":69.986,"note":69,"dur":0.041,"vel":0.709,"inst":"pad_warm_v0_fm_94","midi_source":""},{"t":70.026,"note":55,"dur":0.041,"vel":0.709,"inst":"pad_warm_v0_fm_94","midi_source":""},{"t":70.026,"note":71,"dur":0.041,"vel":0.709,"inst":"pad_warm_v0_fm_94","midi_source":""},{"t":70.067,"note":57,"dur":0.163,"vel":0.709,"inst":"pad_warm_v0_fm_94","midi_source":""},{"t":70.067,"note":62,"dur":0.082,"vel":0.709,"inst":"cello_v0_additive_7","midi_source":""},{"t":70.067,"note":72,"dur":0.163,"vel":0.709,"inst":"cello_v0_additive_7","midi_source":""},{"t":70.149,"note":62,"dur":0.082,"vel":0.709,"inst":"cello_v0_additive_7","midi_source":""},{"t":70.231,"note":62,"dur":0.082,"vel":0.709,"inst":"cello_v0_additive_7","midi_source":""},{"t":70.312,"note":62,"dur":0.082,"vel":0.709,"inst":"cello_v0_additive_7","midi_source":""},{"t":70.394,"note":54,"dur":0.163,"vel":0.709,"inst":"cello_v0_additive_7","midi_source":""},{"t":70.394,"note":62,"dur":0.082,"vel":0.709,"inst":"cello_v0_additive_7","midi_source":""},{"t":70.394,"note":69,"dur":0.163,"vel":0.709,"inst":"pad_warm_v0_fm_94","midi_source":""},{"t":70.476,"note":62,"dur":0.082,"vel":0.709,"inst":"cello_v0_additive_7","midi_source":""},{"t":70.558,"note":62,"dur":0.082,"vel":0.709,"inst":"cello_v0_additive_7","midi_source":""},{"t":70.639,"note":62,"dur":0.082,"vel":0.709,"inst":"cello_v0_additive_7","midi_source":""},{"t":70.721,"note":47,"dur":0.082,"vel":0.709,"inst":"pad_warm_v0_fm_94","midi_source":""},{"t":70.721,"note":55,"dur":0.082,"vel":0.709,"inst":"pad_warm_v0_fm_94","midi_source":""},{"t":70.721,"note":55,"dur":0.082,"vel":0.709,"inst":"pad_warm_v0_fm_94","midi_source":""},{"t":70.721,"note":74,"dur":0.245,"vel":0.709,"inst":"cello_v0_additive_7","midi_source":""},{"t":70.803,"note":47,"dur":0.082,"vel":0.709,"inst":"pad_warm_v0_fm_94","midi_source":""},{"t":70.803,"note":55,"dur":0.082,"vel":0.709,"inst":"pad_warm_v0_fm_94","midi_source":""},{"t":70.803,"note":55,"dur":0.082,"vel":0.709,"inst":"pad_warm_v0_fm_94","midi_source":""},{"t":70.885,"note":47,"dur":0.082,"vel":0.709,"inst":"pad_warm_v0_fm_94","midi_source":""},{"t":70.885,"note":55,"dur":0.082,"vel":0.709,"inst":"pad_warm_v0_fm_94","midi_source":""},{"t":70.885,"note":55,"dur":0.082,"vel":0.709,"inst":"pad_warm_v0_fm_94","midi_source":""},{"t":70.966,"note":47,"dur":0.082,"vel":0.709,"inst":"pad_warm_v0_fm_94","midi_source":""},{"t":70.966,"note":55,"dur":0.082,"vel":0.709,"inst":"pad_warm_v0_fm_94","midi_source":""},{"t":70.966,"note":55,"dur":0.082,"vel":0.709,"inst":"pad_warm_v0_fm_94","midi_source":""},{"t":70.966,"note":74,"dur":0.041,"vel":0.709,"inst":"cello_v0_additive_7","midi_source":""},{"t":71.007,"note":76,"dur":0.041,"vel":0.709,"inst":"cello_v0_additive_7","midi_source":""},{"t":71.048,"note":47,"dur":0.082,"vel":0.709,"inst":"pad_warm_v0_fm_94","midi_source":""},{"t":71.048,"note":55,"dur":0.082,"vel":0.709,"inst":"pad_warm_v0_fm_94","midi_source":""},{"t":71.048,"note":62,"dur":0.082,"vel":0.709,"inst":"cello_v0_additive_7","midi_source":""},{"t":71.048,"note":76,"dur":0.327,"vel":0.709,"inst":"cello_v0_additive_7","midi_source":""},{"t":71.13,"note":47,"dur":0.082,"vel":0.709,"inst":"pad_warm_v0_fm_94","midi_source":""},{"t":71.13,"note":55,"dur":0.082,"vel":0.709,"inst":"pad_warm_v0_fm_94","midi_source":""},{"t":71.13,"note":62,"dur":0.082,"vel":0.709,"inst":"cello_v0_additive_7","midi_source":""},{"t":71.211,"note":47,"dur":0.082,"vel":0.709,"inst":"pad_warm_v0_fm_94","midi_source":""},{"t":71.211,"note":55,"dur":0.082,"vel":0.709,"inst":"pad_warm_v0_fm_94","midi_source":""},{"t":71.211,"note":62,"dur":0.082,"vel":0.709,"inst":"cello_v0_additive_7","midi_source":""},{"t":71.293,"note":47,"dur":0.082,"vel":0.709,"inst":"pad_warm_v0_fm_94","midi_source":""},{"t":71.293,"note":55,"dur":0.082,"vel":0.709,"inst":"pad_warm_v0_fm_94","midi_source":""},{"t":71.293,"note":62,"dur":0.082,"vel":0.709,"inst":"cello_v0_additive_7","midi_source":""},{"t":71.375,"note":48,"dur":0.082,"vel":0.709,"inst":"cello_v0_additive_7","midi_source":""},{"t":71.375,"note":57,"dur":0.082,"vel":0.709,"inst":"pad_warm_v0_fm_94","midi_source":""},{"t":71.375,"note":60,"dur":0.082,"vel":0.709,"inst":"cello_v0_additive_7","midi_source":""},{"t":71.375,"note":76,"dur":0.041,"vel":0.709,"inst":"cello_v0_additive_7","midi_source":""},{"t":71.416,"note":72,"dur":0.041,"vel":0.709,"inst":"cello_v0_additive_7","midi_source":""},{"t":71.457,"note":48,"dur":0.082,"vel":0.709,"inst":"cello_v0_additive_7","midi_source":""},{"t":71.457,"note":57,"dur":0.082,"vel":0.709,"inst":"pad_warm_v0_fm_94","midi_source":""},{"t":71.457,"note":60,"dur":0.082,"vel":0.709,"inst":"cello_v0_additive_7","midi_source":""},{"t":71.457,"note":71,"dur":0.041,"vel":0.709,"inst":"pad_warm_v0_fm_94","midi_source":""},{"t":71.498,"note":69,"dur":0.041,"vel":0.709,"inst":"pad_warm_v0_fm_94","midi_source":""},{"t":71.538,"note":48,"dur":0.082,"vel":0.709,"inst":"cello_v0_additive_7","midi_source":""},{"t":71.538,"note":57,"dur":0.082,"vel":0.709,"inst":"pad_warm_v0_fm_94","midi_source":""},{"t":71.538,"note":60,"dur":0.082,"vel":0.709,"inst":"cello_v0_additive_7","midi_source":""},{"t":71.538,"note":67,"dur":0.041,"vel":0.709,"inst":"pad_warm_v0_fm_94","midi_source":""},{"t":71.579,"note":69,"dur":0.041,"vel":0.709,"inst":"pad_warm_v0_fm_94","midi_source":""},{"t":71.62,"note":48,"dur":0.082,"vel":0.709,"inst":"cello_v0_additive_7","midi_source":""},{"t":71.62,"note":57,"dur":0.082,"vel":0.709,"inst":"pad_warm_v0_fm_94","midi_source":""},{"t":71.62,"note":60,"dur":0.082,"vel":0.709,"inst":"cello_v0_additive_7","midi_source":""},{"t":71.62,"note":72,"dur":0.041,"vel":0.709,"inst":"cello_v0_additive_7","midi_source":""},{"t":71.661,"note":69,"dur":0.041,"vel":0.709,"inst":"pad_warm_v0_fm_94","midi_source":""},{"t":71.702,"note":50,"dur":0.082,"vel":0.709,"inst":"cello_v0_additive_7","midi_source":""},{"t":71.702,"note":55,"dur":0.082,"vel":0.709,"inst":"pad_warm_v0_fm_94","midi_source":""},{"t":71.702,"note":59,"dur":0.082,"vel":0.709,"inst":"pad_warm_v0_fm_94","midi_source":""},{"t":71.702,"note":67,"dur":0.041,"vel":0.709,"inst":"pad_warm_v0_fm_94","midi_source":""},{"t":71.743,"note":69,"dur":0.041,"vel":0.709,"inst":"pad_warm_v0_fm_94","midi_source":""},{"t":71.784,"note":50,"dur":0.082,"vel":0.709,"inst":"cello_v0_additive_7","midi_source":""},{"t":71.784,"note":55,"dur":0.082,"vel":0.709,"inst":"pad_warm_v0_fm_94","midi_source":""},{"t":71.784,"note":59,"dur":0.082,"vel":0.709,"inst":"pad_warm_v0_fm_94","midi_source":""},{"t":71.784,"note":71,"dur":0.041,"vel":0.709,"inst":"pad_warm_v0_fm_94","midi_source":""},{"t":71.824,"note":72,"dur":0.041,"vel":0.709,"inst":"cello_v0_additive_7","midi_source":""},{"t":71.865,"note":50,"dur":0.082,"vel":0.709,"inst":"cello_v0_additive_7","midi_source":""},{"t":71.865,"note":55,"dur":0.082,"vel":0.709,"inst":"pad_warm_v0_fm_94","midi_source":""},{"t":71.865,"note":59,"dur":0.082,"vel":0.709,"inst":"pad_warm_v0_fm_94","midi_source":""},{"t":71.865,"note":74,"dur":0.041,"vel":0.709,"inst":"cello_v0_additive_7","midi_source":""},{"t":71.906,"note":76,"dur":0.041,"vel":0.709,"inst":"cello_v0_additive_7","midi_source":""},{"t":71.947,"note":50,"dur":0.082,"vel":0.709,"inst":"cello_v0_additive_7","midi_source":""},{"t":71.947,"note":55,"dur":0.082,"vel":0.709,"inst":"pad_warm_v0_fm_94","midi_source":""},{"t":71.947,"note":59,"dur":0.082,"vel":0.709,"inst":"pad_warm_v0_fm_94","midi_source":""},{"t":71.947,"note":74,"dur":0.041,"vel":0.709,"inst":"cello_v0_additive_7","midi_source":""},{"t":71.988,"note":76,"dur":0.041,"vel":0.709,"inst":"cello_v0_additive_7","midi_source":""},{"t":72.029,"note":50,"dur":0.163,"vel":0.709,"inst":"cello_v0_additive_7","midi_source":""},{"t":72.029,"note":55,"dur":0.163,"vel":0.709,"inst":"pad_warm_v0_fm_94","midi_source":""},{"t":72.029,"note":59,"dur":0.163,"vel":0.709,"inst":"pad_warm_v0_fm_94","midi_source":""},{"t":72.029,"note":74,"dur":0.163,"vel":0.709,"inst":"cello_v0_additive_7","midi_source":""},{"t":72.356,"note":50,"dur":0.163,"vel":0.709,"inst":"cello_v0_additive_7","midi_source":""},{"t":72.356,"note":57,"dur":0.163,"vel":0.709,"inst":"pad_warm_v0_fm_94","midi_source":""},{"t":72.356,"note":60,"dur":0.163,"vel":0.709,"inst":"cello_v0_additive_7","midi_source":""},{"t":72.356,"note":66,"dur":0.163,"vel":0.709,"inst":"cello_v0_additive_7","midi_source":""},{"t":72.683,"note":59,"dur":0.245,"vel":0.709,"inst":"pad_warm_v0_fm_94","midi_source":""},{"t":72.683,"note":62,"dur":0.082,"vel":0.709,"inst":"cello_v0_additive_7","midi_source":""},{"t":72.683,"note":67,"dur":0.245,"vel":0.709,"inst":"pad_warm_v0_fm_94","midi_source":""},{"t":72.764,"note":62,"dur":0.082,"vel":0.709,"inst":"cello_v0_additive_7","midi_source":""},{"t":72.846,"note":62,"dur":0.082,"vel":0.709,"inst":"cello_v0_additive_7","midi_source":""},{"t":72.928,"note":57,"dur":0.041,"vel":0.709,"inst":"pad_warm_v0_fm_94","midi_source":""},{"t":72.928,"note":62,"dur":0.082,"vel":0.709,"inst":"cello_v0_additive_7","midi_source":""},{"t":72.928,"note":66,"dur":0.041,"vel":0.709,"inst":"cello_v0_additive_7","midi_source":""},{"t":72.969,"note":59,"dur":0.041,"vel":0.709,"inst":"pad_warm_v0_fm_94","midi_source":""},{"t":72.969,"note":67,"dur":0.041,"vel":0.709,"inst":"pad_warm_v0_fm_94","midi_source":""},{"t":73.009,"note":60,"dur":0.163,"vel":0.709,"inst":"cello_v0_additive_7","midi_source":""},{"t":73.009,"note":62,"dur":0.082,"vel":0.709,"inst":"cello_v0_additive_7","midi_source":""},{"t":73.009,"note":69,"dur":0.163,"vel":0.709,"inst":"pad_warm_v0_fm_94","midi_source":""},{"t":73.091,"note":62,"dur":0.082,"vel":0.709,"inst":"cello_v0_additive_7","midi_source":""},{"t":73.173,"note":62,"dur":0.082,"vel":0.709,"inst":"cello_v0_additive_7","midi_source":""},{"t":73.255,"note":62,"dur":0.082,"vel":0.709,"inst":"cello_v0_additive_7","midi_source":""},{"t":73.336,"note":57,"dur":0.163,"vel":0.709,"inst":"pad_warm_v0_fm_94","midi_source":""},{"t":73.336,"note":62,"dur":0.082,"vel":0.709,"inst":"cello_v0_additive_7","midi_source":""},{"t":73.336,"note":66,"dur":0.163,"vel":0.709,"inst":"cello_v0_additive_7","midi_source":""},{"t":73.418,"note":62,"dur":0.082,"vel":0.709,"inst":"cello_v0_additive_7","midi_source":""},{"t":73.5,"note":62,"dur":0.082,"vel":0.709,"inst":"cello_v0_additive_7","midi_source":""},{"t":73.582,"note":62,"dur":0.082,"vel":0.709,"inst":"cello_v0_additive_7","midi_source":""},{"t":73.663,"note":55,"dur":0.245,"vel":0.709,"inst":"pad_warm_v0_fm_94","midi_source":""},{"t":73.663,"note":62,"dur":0.082,"vel":0.709,"inst":"cello_v0_additive_7","midi_source":""},{"t":73.663,"note":69,"dur":0.245,"vel":0.709,"inst":"pad_warm_v0_fm_94","midi_source":""},{"t":73.745,"note":62,"dur":0.082,"vel":0.709,"inst":"cello_v0_additive_7","midi_source":""},{"t":73.827,"note":62,"dur":0.082,"vel":0.709,"inst":"cello_v0_additive_7","midi_source":""},{"t":73.909,"note":54,"dur":0.041,"vel":0.709,"inst":"cello_v0_additive_7","midi_source":""},{"t":73.909,"note":62,"dur":0.082,"vel":0.709,"inst":"cello_v0_additive_7","midi_source":""},{"t":73.909,"note":69,"dur":0.041,"vel":0.709,"inst":"pad_warm_v0_fm_94","midi_source":""},{"t":73.949,"note":55,"dur":0.041,"vel":0.709,"inst":"pad_warm_v0_fm_94","midi_source":""},{"t":73.949,"note":69,"dur":0.041,"vel":0.709,"inst":"pad_warm_v0_fm_94","midi_source":""},{"t":73.99,"note":57,"dur":0.163,"vel":0.709,"inst":"pad_warm_v0_fm_94","midi_source":""},{"t":73.99,"note":62,"dur":0.082,"vel":0.709,"inst":"cello_v0_additive_7","midi_source":""},{"t":73.99,"note":72,"dur":0.163,"vel":0.709,"inst":"cello_v0_additive_7","midi_source":""},{"t":74.072,"note":62,"dur":0.082,"vel":0.709,"inst":"cello_v0_additive_7","midi_source":""},{"t":74.154,"note":62,"dur":0.082,"vel":0.709,"inst":"cello_v0_additive_7","midi_source":""},{"t":74.235,"note":62,"dur":0.082,"vel":0.709,"inst":"cello_v0_additive_7","midi_source":""},{"t":74.317,"note":54,"dur":0.163,"vel":0.709,"inst":"cello_v0_additive_7","midi_source":""},{"t":74.317,"note":62,"dur":0.082,"vel":0.709,"inst":"cello_v0_additive_7","midi_source":""},{"t":74.317,"note":69,"dur":0.163,"vel":0.709,"inst":"pad_warm_v0_fm_94","midi_source":""},{"t":74.399,"note":62,"dur":0.082,"vel":0.709,"inst":"cello_v0_additive_7","midi_source":""},{"t":74.481,"note":62,"dur":0.082,"vel":0.709,"inst":"cello_v0_additive_7","midi_source":""},{"t":74.562,"note":62,"dur":0.082,"vel":0.709,"inst":"cello_v0_additive_7","midi_source":""},{"t":74.644,"note":55,"dur":0.082,"vel":0.709,"inst":"pad_warm_v0_fm_94","midi_source":""},{"t":74.644,"note":57,"dur":0.082,"vel":0.709,"inst":"pad_warm_v0_fm_94","midi_source":""},{"t":74.644,"note":69,"dur":0.245,"vel":0.709,"inst":"pad_warm_v0_fm_94","midi_source":""},{"t":74.644,"note":74,"dur":0.245,"vel":0.709,"inst":"cello_v0_additive_7","midi_source":""},{"t":74.726,"note":55,"dur":0.082,"vel":0.709,"inst":"pad_warm_v0_fm_94","midi_source":""},{"t":74.726,"note":57,"dur":0.082,"vel":0.709,"inst":"pad_warm_v0_fm_94","midi_source":""},{"t":74.808,"note":55,"dur":0.082,"vel":0.709,"inst":"pad_warm_v0_fm_94","midi_source":""},{"t":74.808,"note":57,"dur":0.082,"vel":0.709,"inst":"pad_warm_v0_fm_94","midi_source":""},{"t":74.889,"note":55,"dur":0.082,"vel":0.709,"inst":"pad_warm_v0_fm_94","midi_source":""},{"t":74.889,"note":57,"dur":0.082,"vel":0.709,"inst":"pad_warm_v0_fm_94","midi_source":""},{"t":74.889,"note":69,"dur":0.041,"vel":0.709,"inst":"pad_warm_v0_fm_94","midi_source":""},{"t":74.889,"note":72,"dur":0.041,"vel":0.709,"inst":"cello_v0_additive_7","midi_source":""},{"t":74.93,"note":69,"dur":0.041,"vel":0.709,"inst":"pad_warm_v0_fm_94","midi_source":""},{"t":74.93,"note":74,"dur":0.041,"vel":0.709,"inst":"cello_v0_additive_7","midi_source":""},{"t":74.971,"note":48,"dur":0.082,"vel":0.709,"inst":"cello_v0_additive_7","midi_source":""},{"t":74.971,"note":55,"dur":0.082,"vel":0.709,"inst":"pad_warm_v0_fm_94","midi_source":""},{"t":74.971,"note":72,"dur":0.327,"vel":0.709,"inst":"cello_v0_additive_7","midi_source":""},{"t":74.971,"note":74,"dur":0.327,"vel":0.709,"inst":"cello_v0_additive_7","midi_source":""},{"t":75.053,"note":48,"dur":0.082,"vel":0.709,"inst":"cello_v0_additive_7","midi_source":""},{"t":75.053,"note":55,"dur":0.082,"vel":0.709,"inst":"pad_warm_v0_fm_94","midi_source":""},{"t":75.134,"note":48,"dur":0.082,"vel":0.709,"inst":"cello_v0_additive_7","midi_source":""},{"t":75.134,"note":55,"dur":0.082,"vel":0.709,"inst":"pad_warm_v0_fm_94","midi_source":""},{"t":75.216,"note":48,"dur":0.082,"vel":0.709,"inst":"cello_v0_additive_7","midi_source":""},{"t":75.216,"note":55,"dur":0.082,"vel":0.709,"inst":"pad_warm_v0_fm_94","midi_source":""},{"t":75.298,"note":52,"dur":0.082,"vel":0.709,"inst":"cello_v0_additive_7","midi_source":""},{"t":75.298,"note":57,"dur":0.082,"vel":0.709,"inst":"pad_warm_v0_fm_94","midi_source":""},{"t":75.298,"note":62,"dur":0.163,"vel":0.709,"inst":"cello_v0_additive_7","midi_source":""},{"t":75.298,"note":72,"dur":0.163,"vel":0.709,"inst":"cello_v0_additive_7","midi_source":""},{"t":75.38,"note":52,"dur":0.082,"vel":0.709,"inst":"cello_v0_additive_7","midi_source":""},{"t":75.38,"note":57,"dur":0.082,"vel":0.709,"inst":"pad_warm_v0_fm_94","midi_source":""},{"t":75.461,"note":52,"dur":0.082,"vel":0.709,"inst":"cello_v0_additive_7","midi_source":""},{"t":75.461,"note":57,"dur":0.082,"vel":0.709,"inst":"pad_warm_v0_fm_94","midi_source":""},{"t":75.461,"note":60,"dur":0.163,"vel":0.709,"inst":"cello_v0_additive_7","midi_source":""},{"t":75.461,"note":69,"dur":0.163,"vel":0.709,"inst":"pad_warm_v0_fm_94","midi_source":""},{"t":75.543,"note":52,"dur":0.082,"vel":0.709,"inst":"cello_v0_additive_7","midi_source":""},{"t":75.543,"note":57,"dur":0.082,"vel":0.709,"inst":"pad_warm_v0_fm_94","midi_source":""},{"t":75.625,"note":50,"dur":0.082,"vel":0.709,"inst":"cello_v0_additive_7","midi_source":""},{"t":75.625,"note":57,"dur":0.49,"vel":0.709,"inst":"pad_warm_v0_fm_94","midi_source":""},{"t":75.625,"note":57,"dur":0.082,"vel":0.709,"inst":"pad_warm_v0_fm_94","midi_source":""},{"t":75.625,"note":76,"dur":0.245,"vel":0.709,"inst":"cello_v0_additive_7","midi_source":""},{"t":75.707,"note":50,"dur":0.082,"vel":0.709,"inst":"cello_v0_additive_7","midi_source":""},{"t":75.707,"note":57,"dur":0.082,"vel":0.709,"inst":"pad_warm_v0_fm_94","midi_source":""},{"t":75.788,"note":50,"dur":0.082,"vel":0.709,"inst":"cello_v0_additive_7","midi_source":""},{"t":75.788,"note":57,"dur":0.082,"vel":0.709,"inst":"pad_warm_v0_fm_94","midi_source":""},{"t":75.87,"note":50,"dur":0.082,"vel":0.709,"inst":"cello_v0_additive_7","midi_source":""},{"t":75.87,"note":57,"dur":0.082,"vel":0.709,"inst":"pad_warm_v0_fm_94","midi_source":""},{"t":75.87,"note":74,"dur":0.041,"vel":0.709,"inst":"cello_v0_additive_7","midi_source":""},{"t":75.911,"note":76,"dur":0.041,"vel":0.709,"inst":"cello_v0_additive_7","midi_source":""},{"t":75.952,"note":50,"dur":0.082,"vel":0.709,"inst":"cello_v0_additive_7","midi_source":""},{"t":75.952,"note":55,"dur":0.082,"vel":0.709,"inst":"pad_warm_v0_fm_94","midi_source":""},{"t":75.952,"note":79,"dur":0.163,"vel":0.709,"inst":"pad_warm_v0_fm_94","midi_source":""},{"t":76.033,"note":50,"dur":0.082,"vel":0.709,"inst":"cello_v0_additive_7","midi_source":""},{"t":76.033,"note":55,"dur":0.082,"vel":0.709,"inst":"pad_warm_v0_fm_94","midi_source":""},{"t":76.115,"note":50,"dur":0.082,"vel":0.709,"inst":"cello_v0_additive_7","midi_source":""},{"t":76.115,"note":55,"dur":0.082,"vel":0.709,"inst":"pad_warm_v0_fm_94","midi_source":""},{"t":76.115,"note":67,"dur":0.163,"vel":0.709,"inst":"pad_warm_v0_fm_94","midi_source":""},{"t":76.115,"note":74,"dur":0.163,"vel":0.709,"inst":"cello_v0_additive_7","midi_source":""},{"t":76.197,"note":50,"dur":0.082,"vel":0.709,"inst":"cello_v0_additive_7","midi_source":""},{"t":76.197,"note":55,"dur":0.082,"vel":0.709,"inst":"pad_warm_v0_fm_94","midi_source":""},{"t":76.279,"note":52,"dur":0.082,"vel":0.709,"inst":"cello_v0_additive_7","midi_source":""},{"t":76.279,"note":57,"dur":0.082,"vel":0.709,"inst":"pad_warm_v0_fm_94","midi_source":""},{"t":76.279,"note":62,"dur":0.163,"vel":0.709,"inst":"cello_v0_additive_7","midi_source":""},{"t":76.279,"note":72,"dur":0.163,"vel":0.709,"inst":"cello_v0_additive_7","midi_source":""},{"t":76.36,"note":52,"dur":0.082,"vel":0.709,"inst":"cello_v0_additive_7","midi_source":""},{"t":76.36,"note":57,"dur":0.082,"vel":0.709,"inst":"pad_warm_v0_fm_94","midi_source":""},{"t":76.442,"note":52,"dur":0.082,"vel":0.709,"inst":"cello_v0_additive_7","midi_source":""},{"t":76.442,"note":60,"dur":0.163,"vel":0.709,"inst":"cello_v0_additive_7","midi_source":""},{"t":76.442,"note":60,"dur":0.082,"vel":0.709,"inst":"cello_v0_additive_7","midi_source":""},{"t":76.442,"note":69,"dur":0.163,"vel":0.709,"inst":"pad_warm_v0_fm_94","midi_source":""},{"t":76.524,"note":52,"dur":0.082,"vel":0.709,"inst":"cello_v0_additive_7","midi_source":""},{"t":76.524,"note":60,"dur":0.082,"vel":0.709,"inst":"cello_v0_additive_7","midi_source":""},{"t":76.606,"note":45,"dur":0.082,"vel":0.709,"inst":"pad_warm_v0_fm_94","midi_source":""},{"t":76.606,"note":57,"dur":0.327,"vel":0.709,"inst":"pad_warm_v0_fm_94","midi_source":""},{"t":76.606,"note":62,"dur":0.654,"vel":0.709,"inst":"cello_v0_additive_7","midi_source":""},{"t":76.606,"note":69,"dur":0.654,"vel":0.709,"inst":"pad_warm_v0_fm_94","midi_source":""},{"t":76.687,"note":48,"dur":0.082,"vel":0.709,"inst":"cello_v0_additive_7","midi_source":""},{"t":76.769,"note":45,"dur":0.082,"vel":0.709,"inst":"pad_warm_v0_fm_94","midi_source":""},{"t":76.851,"note":45,"dur":0.082,"vel":0.709,"inst":"pad_warm_v0_fm_94","midi_source":""},{"t":76.932,"note":45,"dur":0.082,"vel":0.709,"inst":"pad_warm_v0_fm_94","midi_source":""},{"t":76.932,"note":52,"dur":0.327,"vel":0.709,"inst":"cello_v0_additive_7","midi_source":""},{"t":77.014,"note":48,"dur":0.082,"vel":0.709,"inst":"cello_v0_additive_7","midi_source":""},{"t":77.096,"note":45,"dur":0.082,"vel":0.709,"inst":"pad_warm_v0_fm_94","midi_source":""},{"t":77.178,"note":45,"dur":0.082,"vel":0.709,"inst":"pad_warm_v0_fm_94","midi_source":""},{"t":77.259,"note":45,"dur":0.082,"vel":0.709,"inst":"pad_warm_v0_fm_94","midi_source":""},{"t":77.259,"note":52,"dur":0.327,"vel":0.709,"inst":"cello_v0_additive_7","midi_source":""},{"t":77.259,"note":62,"dur":0.327,"vel":0.709,"inst":"cello_v0_additive_7","midi_source":""},{"t":77.259,"note":67,"dur":0.327,"vel":0.709,"inst":"pad_warm_v0_fm_94","midi_source":""},{"t":77.341,"note":45,"dur":0.082,"vel":0.709,"inst":"pad_warm_v0_fm_94","midi_source":""},{"t":77.423,"note":45,"dur":0.082,"vel":0.709,"inst":"pad_warm_v0_fm_94","midi_source":""},{"t":77.505,"note":47,"dur":0.082,"vel":0.709,"inst":"pad_warm_v0_fm_94","midi_source":""},{"t":77.586,"note":48,"dur":0.082,"vel":0.709,"inst":"cello_v0_additive_7","midi_source":""},{"t":77.586,"note":50,"dur":0.654,"vel":0.709,"inst":"cello_v0_additive_7","midi_source":""},{"t":77.586,"note":62,"dur":0.654,"vel":0.709,"inst":"cello_v0_additive_7","midi_source":""},{"t":77.586,"note":67,"dur":0.654,"vel":0.709,"inst":"pad_warm_v0_fm_94","midi_source":""},{"t":77.668,"note":50,"dur":0.082,"vel":0.709,"inst":"cello_v0_additive_7","midi_source":""},{"t":77.75,"note":48,"dur":0.082,"vel":0.709,"inst":"cello_v0_additive_7","midi_source":""},{"t":77.831,"note":47,"dur":0.082,"vel":0.709,"inst":"pad_warm_v0_fm_94","midi_source":""},{"t":77.913,"note":48,"dur":0.082,"vel":0.709,"inst":"cello_v0_additive_7","midi_source":""},{"t":77.995,"note":50,"dur":0.082,"vel":0.709,"inst":"cello_v0_additive_7","midi_source":""},{"t":78.077,"note":48,"dur":0.082,"vel":0.709,"inst":"cello_v0_additive_7","midi_source":""},{"t":78.158,"note":47,"dur":0.082,"vel":0.709,"inst":"pad_warm_v0_fm_94","midi_source":""},{"t":78.24,"note":48,"dur":0.082,"vel":0.709,"inst":"cello_v0_additive_7","midi_source":""},{"t":78.24,"note":55,"dur":0.327,"vel":0.709,"inst":"pad_warm_v0_fm_94","midi_source":""},{"t":78.24,"note":64,"dur":0.327,"vel":0.709,"inst":"cello_v0_additive_7","midi_source":""},{"t":78.24,"note":69,"dur":0.327,"vel":0.709,"inst":"pad_warm_v0_fm_94","midi_source":""},{"t":78.322,"note":47,"dur":0.082,"vel":0.709,"inst":"pad_warm_v0_fm_94","midi_source":""},{"t":78.404,"note":48,"dur":0.082,"vel":0.709,"inst":"cello_v0_additive_7","midi_source":""},{"t":78.485,"note":48,"dur":0.082,"vel":0.709,"inst":"cello_v0_additive_7","midi_source":""},{"t":78.567,"note":50,"dur":0.082,"vel":0.709,"inst":"cello_v0_additive_7","midi_source":""},{"t":78.567,"note":54,"dur":0.327,"vel":0.709,"inst":"cello_v0_additive_7","midi_source":""},{"t":78.567,"note":66,"dur":0.327,"vel":0.709,"inst":"cello_v0_additive_7","midi_source":""},{"t":78.567,"note":69,"dur":0.327,"vel":0.709,"inst":"pad_warm_v0_fm_94","midi_source":""},{"t":78.649,"note":50,"dur":0.082,"vel":0.709,"inst":"cello_v0_additive_7","midi_source":""},{"t":78.731,"note":62,"dur":0.082,"vel":0.709,"inst":"cello_v0_additive_7","midi_source":""},{"t":78.812,"note":57,"dur":0.041,"vel":0.709,"inst":"pad_warm_v0_fm_94","midi_source":""},{"t":78.812,"note":62,"dur":0.082,"vel":0.709,"inst":"cello_v0_additive_7","midi_source":""},{"t":78.812,"note":66,"dur":0.041,"vel":0.709,"inst":"cello_v0_additive_7","midi_source":""},{"t":78.853,"note":59,"dur":0.041,"vel":0.709,"inst":"pad_warm_v0_fm_94","midi_source":""},{"t":78.853,"note":67,"dur":0.041,"vel":0.709,"inst":"pad_warm_v0_fm_94","midi_source":""},{"t":78.894,"note":60,"dur":0.163,"vel":0.709,"inst":"cello_v0_additive_7","midi_source":""},{"t":78.894,"note":62,"dur":0.082,"vel":0.709,"inst":"cello_v0_additive_7","midi_source":""},{"t":78.894,"note":69,"dur":0.163,"vel":0.709,"inst":"pad_warm_v0_fm_94","midi_source":""},{"t":78.976,"note":62,"dur":0.082,"vel":0.709,"inst":"cello_v0_additive_7","midi_source":""},{"t":79.057,"note":62,"dur":0.082,"vel":0.709,"inst":"cello_v0_additive_7","midi_source":""},{"t":79.139,"note":62,"dur":0.082,"vel":0.709,"inst":"cello_v0_additive_7","midi_source":""},{"t":79.221,"note":57,"dur":0.163,"vel":0.709,"inst":"pad_warm_v0_fm_94","midi_source":""},{"t":79.221,"note":62,"dur":0.082,"vel":0.709,"inst":"cello_v0_additive_7","midi_source":""},{"t":79.221,"note":66,"dur":0.163,"vel":0.709,"inst":"cello_v0_additive_7","midi_source":""},{"t":79.303,"note":62,"dur":0.082,"vel":0.709,"inst":"cello_v0_additive_7","midi_source":""},{"t":79.384,"note":62,"dur":0.082,"vel":0.709,"inst":"cello_v0_additive_7","midi_source":""},{"t":79.466,"note":62,"dur":0.082,"vel":0.709,"inst":"cello_v0_additive_7","midi_source":""},{"t":79.548,"note":55,"dur":0.245,"vel":0.709,"inst":"pad_warm_v0_fm_94","midi_source":""},{"t":79.548,"note":62,"dur":0.082,"vel":0.709,"inst":"cello_v0_additive_7","midi_source":""},{"t":79.548,"note":71,"dur":0.245,"vel":0.709,"inst":"pad_warm_v0_fm_94","midi_source":""},{"t":79.63,"note":62,"dur":0.082,"vel":0.709,"inst":"cello_v0_additive_7","midi_source":""},{"t":79.711,"note":62,"dur":0.082,"vel":0.709,"inst":"cello_v0_additive_7","midi_source":""},{"t":79.793,"note":54,"dur":0.041,"vel":0.709,"inst":"cello_v0_additive_7","midi_source":""},{"t":79.793,"note":62,"dur":0.082,"vel":0.709,"inst":"cello_v0_additive_7","midi_source":""},{"t":79.793,"note":69,"dur":0.041,"vel":0.709,"inst":"pad_warm_v0_fm_94","midi_source":""},{"t":79.834,"note":55,"dur":0.041,"vel":0.709,"inst":"pad_warm_v0_fm_94","midi_source":""},{"t":79.834,"note":71,"dur":0.041,"vel":0.709,"inst":"pad_warm_v0_fm_94","midi_source":""},{"t":79.875,"note":57,"dur":0.163,"vel":0.709,"inst":"pad_warm_v0_fm_94","midi_source":""},{"t":79.875,"note":62,"dur":0.082,"vel":0.709,"inst":"cello_v0_additive_7","midi_source":""},{"t":79.875,"note":72,"dur":0.163,"vel":0.709,"inst":"cello_v0_additive_7","midi_source":""},{"t":79.956,"note":62,"dur":0.082,"vel":0.709,"inst":"cello_v0_additive_7","midi_source":""},{"t":80.038,"note":62,"dur":0.082,"vel":0.709,"inst":"cello_v0_additive_7","midi_source":""},{"t":80.12,"note":62,"dur":0.082,"vel":0.709,"inst":"cello_v0_additive_7","midi_source":""},{"t":80.202,"note":54,"dur":0.163,"vel":0.709,"inst":"cello_v0_additive_7","midi_source":""},{"t":80.202,"note":62,"dur":0.082,"vel":0.709,"inst":"cello_v0_additive_7","midi_source":""},{"t":80.202,"note":69,"dur":0.163,"vel":0.709,"inst":"pad_warm_v0_fm_94","midi_source":""},{"t":80.283,"note":62,"dur":0.082,"vel":0.709,"inst":"cello_v0_additive_7","midi_source":""},{"t":80.365,"note":62,"dur":0.082,"vel":0.709,"inst":"cello_v0_additive_7","midi_source":""},{"t":80.447,"note":62,"dur":0.082,"vel":0.709,"inst":"cello_v0_additive_7","midi_source":""},{"t":80.529,"note":47,"dur":0.082,"vel":0.709,"inst":"pad_warm_v0_fm_94","midi_source":""},{"t":80.529,"note":55,"dur":0.082,"vel":0.709,"inst":"pad_warm_v0_fm_94","midi_source":""},{"t":80.529,"note":55,"dur":0.082,"vel":0.709,"inst":"pad_warm_v0_fm_94","midi_source":""},{"t":80.529,"note":74,"dur":0.245,"vel":0.709,"inst":"cello_v0_additive_7","midi_source":""},{"t":80.61,"note":47,"dur":0.082,"vel":0.709,"inst":"pad_warm_v0_fm_94","midi_source":""},{"t":80.61,"note":55,"dur":0.082,"vel":0.709,"inst":"pad_warm_v0_fm_94","midi_source":""},{"t":80.61,"note":55,"dur":0.082,"vel":0.709,"inst":"pad_warm_v0_fm_94","midi_source":""},{"t":80.692,"note":47,"dur":0.082,"vel":0.709,"inst":"pad_warm_v0_fm_94","midi_source":""},{"t":80.692,"note":55,"dur":0.082,"vel":0.709,"inst":"pad_warm_v0_fm_94","midi_source":""},{"t":80.692,"note":55,"dur":0.082,"vel":0.709,"inst":"pad_warm_v0_fm_94","midi_source":""},{"t":80.774,"note":47,"dur":0.082,"vel":0.709,"inst":"pad_warm_v0_fm_94","midi_source":""},{"t":80.774,"note":55,"dur":0.082,"vel":0.709,"inst":"pad_warm_v0_fm_94","midi_source":""},{"t":80.774,"note":55,"dur":0.082,"vel":0.709,"inst":"pad_warm_v0_fm_94","midi_source":""},{"t":80.774,"note":74,"dur":0.041,"vel":0.709,"inst":"cello_v0_additive_7","midi_source":""},{"t":80.815,"note":76,"dur":0.041,"vel":0.709,"inst":"cello_v0_additive_7","midi_source":""},{"t":80.855,"note":47,"dur":0.082,"vel":0.709,"inst":"pad_warm_v0_fm_94","midi_source":""},{"t":80.855,"note":55,"dur":0.082,"vel":0.709,"inst":"pad_warm_v0_fm_94","midi_source":""},{"t":80.855,"note":62,"dur":0.082,"vel":0.709,"inst":"cello_v0_additive_7","midi_source":""},{"t":80.855,"note":76,"dur":0.327,"vel":0.709,"inst":"cello_v0_additive_7","midi_source":""},{"t":80.937,"note":47,"dur":0.082,"vel":0.709,"inst":"pad_warm_v0_fm_94","midi_source":""},{"t":80.937,"note":55,"dur":0.082,"vel":0.709,"inst":"pad_warm_v0_fm_94","midi_source":""},{"t":80.937,"note":62,"dur":0.082,"vel":0.709,"inst":"cello_v0_additive_7","midi_source":""},{"t":81.019,"note":47,"dur":0.082,"vel":0.709,"inst":"pad_warm_v0_fm_94","midi_source":""},{"t":81.019,"note":55,"dur":0.082,"vel":0.709,"inst":"pad_warm_v0_fm_94","midi_source":""},{"t":81.019,"note":62,"dur":0.082,"vel":0.709,"inst":"cello_v0_additive_7","midi_source":""},{"t":81.101,"note":47,"dur":0.082,"vel":0.709,"inst":"pad_warm_v0_fm_94","midi_source":""},{"t":81.101,"note":55,"dur":0.082,"vel":0.709,"inst":"pad_warm_v0_fm_94","midi_source":""},{"t":81.101,"note":62,"dur":0.082,"vel":0.709,"inst":"cello_v0_additive_7","midi_source":""},{"t":81.182,"note":48,"dur":0.082,"vel":0.709,"inst":"cello_v0_additive_7","midi_source":""},{"t":81.182,"note":57,"dur":0.082,"vel":0.709,"inst":"pad_warm_v0_fm_94","midi_source":""},{"t":81.182,"note":60,"dur":0.082,"vel":0.709,"inst":"cello_v0_additive_7","midi_source":""},{"t":81.182,"note":76,"dur":0.041,"vel":0.709,"inst":"cello_v0_additive_7","midi_source":""},{"t":81.223,"note":72,"dur":0.041,"vel":0.709,"inst":"cello_v0_additive_7","midi_source":""},{"t":81.264,"note":48,"dur":0.082,"vel":0.709,"inst":"cello_v0_additive_7","midi_source":""},{"t":81.264,"note":57,"dur":0.082,"vel":0.709,"inst":"pad_warm_v0_fm_94","midi_source":""},{"t":81.264,"note":60,"dur":0.082,"vel":0.709,"inst":"cello_v0_additive_7","midi_source":""},{"t":81.264,"note":71,"dur":0.041,"vel":0.709,"inst":"pad_warm_v0_fm_94","midi_source":""},{"t":81.305,"note":69,"dur":0.041,"vel":0.709,"inst":"pad_warm_v0_fm_94","midi_source":""},{"t":81.346,"note":48,"dur":0.082,"vel":0.709,"inst":"cello_v0_additive_7","midi_source":""},{"t":81.346,"note":57,"dur":0.082,"vel":0.709,"inst":"pad_warm_v0_fm_94","midi_source":""},{"t":81.346,"note":60,"dur":0.082,"vel":0.709,"inst":"cello_v0_additive_7","midi_source":""},{"t":81.346,"note":67,"dur":0.041,"vel":0.709,"inst":"pad_warm_v0_fm_94","midi_source":""},{"t":81.387,"note":69,"dur":0.041,"vel":0.709,"inst":"pad_warm_v0_fm_94","midi_source":""},{"t":81.428,"note":48,"dur":0.082,"vel":0.709,"inst":"cello_v0_additive_7","midi_source":""},{"t":81.428,"note":57,"dur":0.082,"vel":0.709,"inst":"pad_warm_v0_fm_94","midi_source":""},{"t":81.428,"note":60,"dur":0.082,"vel":0.709,"inst":"cello_v0_additive_7","midi_source":""},{"t":81.428,"note":72,"dur":0.041,"vel":0.709,"inst":"cello_v0_additive_7","midi_source":""},{"t":81.468,"note":69,"dur":0.041,"vel":0.709,"inst":"pad_warm_v0_fm_94","midi_source":""},{"t":81.509,"note":50,"dur":0.082,"vel":0.709,"inst":"cello_v0_additive_7","midi_source":""},{"t":81.509,"note":55,"dur":0.082,"vel":0.709,"inst":"pad_warm_v0_fm_94","midi_source":""},{"t":81.509,"note":59,"dur":0.082,"vel":0.709,"inst":"pad_warm_v0_fm_94","midi_source":""},{"t":81.509,"note":67,"dur":0.041,"vel":0.709,"inst":"pad_warm_v0_fm_94","midi_source":""},{"t":81.55,"note":69,"dur":0.041,"vel":0.709,"inst":"pad_warm_v0_fm_94","midi_source":""},{"t":81.591,"note":50,"dur":0.082,"vel":0.709,"inst":"cello_v0_additive_7","midi_source":""},{"t":81.591,"note":55,"dur":0.082,"vel":0.709,"inst":"pad_warm_v0_fm_94","midi_source":""},{"t":81.591,"note":59,"dur":0.082,"vel":0.709,"inst":"pad_warm_v0_fm_94","midi_source":""},{"t":81.591,"note":71,"dur":0.041,"vel":0.709,"inst":"pad_warm_v0_fm_94","midi_source":""},{"t":81.632,"note":72,"dur":0.041,"vel":0.709,"inst":"cello_v0_additive_7","midi_source":""},{"t":81.673,"note":50,"dur":0.082,"vel":0.709,"inst":"cello_v0_additive_7","midi_source":""},{"t":81.673,"note":55,"dur":0.082,"vel":0.709,"inst":"pad_warm_v0_fm_94","midi_source":""},{"t":81.673,"note":59,"dur":0.082,"vel":0.709,"inst":"pad_warm_v0_fm_94","midi_source":""},{"t":81.673,"note":74,"dur":0.041,"vel":0.709,"inst":"cello_v0_additive_7","midi_source":""},{"t":81.714,"note":76,"dur":0.041,"vel":0.709,"inst":"cello_v0_additive_7","midi_source":""},{"t":81.754,"note":50,"dur":0.082,"vel":0.709,"inst":"cello_v0_additive_7","midi_source":""},{"t":81.754,"note":55,"dur":0.082,"vel":0.709,"inst":"pad_warm_v0_fm_94","midi_source":""},{"t":81.754,"note":59,"dur":0.082,"vel":0.709,"inst":"pad_warm_v0_fm_94","midi_source":""},{"t":81.754,"note":74,"dur":0.041,"vel":0.709,"inst":"cello_v0_additive_7","midi_source":""},{"t":81.795,"note":76,"dur":0.041,"vel":0.709,"inst":"cello_v0_additive_7","midi_source":""},{"t":81.836,"note":50,"dur":0.163,"vel":0.709,"inst":"cello_v0_additive_7","midi_source":""},{"t":81.836,"note":55,"dur":0.163,"vel":0.709,"inst":"pad_warm_v0_fm_94","midi_source":""},{"t":81.836,"note":59,"dur":0.163,"vel":0.709,"inst":"pad_warm_v0_fm_94","midi_source":""},{"t":81.836,"note":74,"dur":0.163,"vel":0.709,"inst":"cello_v0_additive_7","midi_source":""},{"t":82.163,"note":50,"dur":0.163,"vel":0.709,"inst":"cello_v0_additive_7","midi_source":""},{"t":82.163,"note":57,"dur":0.163,"vel":0.709,"inst":"pad_warm_v0_fm_94","midi_source":""},{"t":82.163,"note":60,"dur":0.163,"vel":0.709,"inst":"cello_v0_additive_7","midi_source":""},{"t":82.163,"note":66,"dur":0.163,"vel":0.709,"inst":"cello_v0_additive_7","midi_source":""},{"t":82.49,"note":59,"dur":0.245,"vel":0.709,"inst":"pad_warm_v0_fm_94","midi_source":""},{"t":82.49,"note":62,"dur":0.082,"vel":0.709,"inst":"cello_v0_additive_7","midi_source":""},{"t":82.49,"note":67,"dur":0.245,"vel":0.709,"inst":"pad_warm_v0_fm_94","midi_source":""},{"t":82.572,"note":62,"dur":0.082,"vel":0.709,"inst":"cello_v0_additive_7","midi_source":""},{"t":82.653,"note":62,"dur":0.082,"vel":0.709,"inst":"cello_v0_additive_7","midi_source":""},{"t":82.735,"note":57,"dur":0.041,"vel":0.709,"inst":"pad_warm_v0_fm_94","midi_source":""},{"t":82.735,"note":62,"dur":0.082,"vel":0.709,"inst":"cello_v0_additive_7","midi_source":""},{"t":82.735,"note":66,"dur":0.041,"vel":0.709,"inst":"cello_v0_additive_7","midi_source":""},{"t":82.776,"note":59,"dur":0.041,"vel":0.709,"inst":"pad_warm_v0_fm_94","midi_source":""},{"t":82.776,"note":67,"dur":0.041,"vel":0.709,"inst":"pad_warm_v0_fm_94","midi_source":""},{"t":82.817,"note":60,"dur":0.163,"vel":0.709,"inst":"cello_v0_additive_7","midi_source":""},{"t":82.817,"note":62,"dur":0.082,"vel":0.709,"inst":"cello_v0_additive_7","midi_source":""},{"t":82.817,"note":69,"dur":0.163,"vel":0.709,"inst":"pad_warm_v0_fm_94","midi_source":""},{"t":82.899,"note":62,"dur":0.082,"vel":0.709,"inst":"cello_v0_additive_7","midi_source":""},{"t":82.98,"note":62,"dur":0.082,"vel":0.709,"inst":"cello_v0_additive_7","midi_source":""},{"t":83.062,"note":62,"dur":0.082,"vel":0.709,"inst":"cello_v0_additive_7","midi_source":""},{"t":83.144,"note":57,"dur":0.163,"vel":0.709,"inst":"pad_warm_v0_fm_94","midi_source":""},{"t":83.144,"note":62,"dur":0.082,"vel":0.709,"inst":"cello_v0_additive_7","midi_source":""},{"t":83.144,"note":66,"dur":0.163,"vel":0.709,"inst":"cello_v0_additive_7","midi_source":""},{"t":83.226,"note":62,"dur":0.082,"vel":0.709,"inst":"cello_v0_additive_7","midi_source":""},{"t":83.307,"note":62,"dur":0.082,"vel":0.709,"inst":"cello_v0_additive_7","midi_source":""},{"t":83.389,"note":62,"dur":0.082,"vel":0.709,"inst":"cello_v0_additive_7","midi_source":""},{"t":83.471,"note":55,"dur":0.245,"vel":0.709,"inst":"pad_warm_v0_fm_94","midi_source":""},{"t":83.471,"note":62,"dur":0.082,"vel":0.709,"inst":"cello_v0_additive_7","midi_source":""},{"t":83.471,"note":69,"dur":0.245,"vel":0.709,"inst":"pad_warm_v0_fm_94","midi_source":""},{"t":83.552,"note":62,"dur":0.082,"vel":0.709,"inst":"cello_v0_additive_7","midi_source":""},{"t":83.634,"note":62,"dur":0.082,"vel":0.709,"inst":"cello_v0_additive_7","midi_source":""},{"t":83.716,"note":54,"dur":0.041,"vel":0.709,"inst":"cello_v0_additive_7","midi_source":""},{"t":83.716,"note":62,"dur":0.082,"vel":0.709,"inst":"cello_v0_additive_7","midi_source":""},{"t":83.716,"note":69,"dur":0.041,"vel":0.709,"inst":"pad_warm_v0_fm_94","midi_source":""},{"t":83.757,"note":55,"dur":0.041,"vel":0.709,"inst":"pad_warm_v0_fm_94","midi_source":""},{"t":83.757,"note":69,"dur":0.041,"vel":0.709,"inst":"pad_warm_v0_fm_94","midi_source":""},{"t":83.798,"note":57,"dur":0.163,"vel":0.709,"inst":"pad_warm_v0_fm_94","midi_source":""},{"t":83.798,"note":62,"dur":0.082,"vel":0.709,"inst":"cello_v0_additive_7","midi_source":""},{"t":83.798,"note":72,"dur":0.163,"vel":0.709,"inst":"cello_v0_additive_7","midi_source":""},{"t":83.879,"note":62,"dur":0.082,"vel":0.709,"inst":"cello_v0_additive_7","midi_source":""},{"t":83.961,"note":62,"dur":0.082,"vel":0.709,"inst":"cello_v0_additive_7","midi_source":""},{"t":84.043,"note":62,"dur":0.082,"vel":0.709,"inst":"cello_v0_additive_7","midi_source":""},{"t":84.125,"note":54,"dur":0.163,"vel":0.709,"inst":"cello_v0_additive_7","midi_source":""},{"t":84.125,"note":62,"dur":0.082,"vel":0.709,"inst":"cello_v0_additive_7","midi_source":""},{"t":84.125,"note":69,"dur":0.163,"vel":0.709,"inst":"pad_warm_v0_fm_94","midi_source":""},{"t":84.206,"note":62,"dur":0.082,"vel":0.709,"inst":"cello_v0_additive_7","midi_source":""},{"t":84.288,"note":62,"dur":0.082,"vel":0.709,"inst":"cello_v0_additive_7","midi_source":""},{"t":84.37,"note":62,"dur":0.082,"vel":0.709,"inst":"cello_v0_additive_7","midi_source":""},{"t":84.452,"note":55,"dur":0.082,"vel":0.709,"inst":"pad_warm_v0_fm_94","midi_source":""},{"t":84.452,"note":57,"dur":0.082,"vel":0.709,"inst":"pad_warm_v0_fm_94","midi_source":""},{"t":84.452,"note":69,"dur":0.245,"vel":0.709,"inst":"pad_warm_v0_fm_94","midi_source":""},{"t":84.452,"note":74,"dur":0.245,"vel":0.709,"inst":"cello_v0_additive_7","midi_source":""},{"t":84.533,"note":55,"dur":0.082,"vel":0.709,"inst":"pad_warm_v0_fm_94","midi_source":""},{"t":84.533,"note":57,"dur":0.082,"vel":0.709,"inst":"pad_warm_v0_fm_94","midi_source":""},{"t":84.615,"note":55,"dur":0.082,"vel":0.709,"inst":"pad_warm_v0_fm_94","midi_source":""},{"t":84.615,"note":57,"dur":0.082,"vel":0.709,"inst":"pad_warm_v0_fm_94","midi_source":""},{"t":84.697,"note":55,"dur":0.082,"vel":0.709,"inst":"pad_warm_v0_fm_94","midi_source":""},{"t":84.697,"note":57,"dur":0.082,"vel":0.709,"inst":"pad_warm_v0_fm_94","midi_source":""},{"t":84.697,"note":69,"dur":0.041,"vel":0.709,"inst":"pad_warm_v0_fm_94","midi_source":""},{"t":84.697,"note":72,"dur":0.041,"vel":0.709,"inst":"cello_v0_additive_7","midi_source":""},{"t":84.738,"note":69,"dur":0.041,"vel":0.709,"inst":"pad_warm_v0_fm_94","midi_source":""},{"t":84.738,"note":74,"dur":0.041,"vel":0.709,"inst":"cello_v0_additive_7","midi_source":""},{"t":84.778,"note":48,"dur":0.082,"vel":0.709,"inst":"cello_v0_additive_7","midi_source":""},{"t":84.778,"note":55,"dur":0.082,"vel":0.709,"inst":"pad_warm_v0_fm_94","midi_source":""},{"t":84.778,"note":72,"dur":0.327,"vel":0.709,"inst":"cello_v0_additive_7","midi_source":""},{"t":84.778,"note":74,"dur":0.327,"vel":0.709,"inst":"cello_v0_additive_7","midi_source":""},{"t":84.86,"note":48,"dur":0.082,"vel":0.709,"inst":"cello_v0_additive_7","midi_source":""},{"t":84.86,"note":55,"dur":0.082,"vel":0.709,"inst":"pad_warm_v0_fm_94","midi_source":""},{"t":84.942,"note":48,"dur":0.082,"vel":0.709,"inst":"cello_v0_additive_7","midi_source":""},{"t":84.942,"note":55,"dur":0.082,"vel":0.709,"inst":"pad_warm_v0_fm_94","midi_source":""},{"t":85.024,"note":48,"dur":0.082,"vel":0.709,"inst":"cello_v0_additive_7","midi_source":""},{"t":85.024,"note":55,"dur":0.082,"vel":0.709,"inst":"pad_warm_v0_fm_94","midi_source":""},{"t":85.105,"note":52,"dur":0.082,"vel":0.709,"inst":"cello_v0_additive_7","midi_source":""},{"t":85.105,"note":57,"dur":0.082,"vel":0.709,"inst":"pad_warm_v0_fm_94","midi_source":""},{"t":85.105,"note":62,"dur":0.163,"vel":0.709,"inst":"cello_v0_additive_7","midi_source":""},{"t":85.105,"note":72,"dur":0.163,"vel":0.709,"inst":"cello_v0_additive_7","midi_source":""},{"t":85.187,"note":52,"dur":0.082,"vel":0.709,"inst":"cello_v0_additive_7","midi_source":""},{"t":85.187,"note":57,"dur":0.082,"vel":0.709,"inst":"pad_warm_v0_fm_94","midi_source":""},{"t":85.269,"note":52,"dur":0.082,"vel":0.709,"inst":"cello_v0_additive_7","midi_source":""},{"t":85.269,"note":57,"dur":0.082,"vel":0.709,"inst":"pad_warm_v0_fm_94","midi_source":""},{"t":85.269,"note":60,"dur":0.163,"vel":0.709,"inst":"cello_v0_additive_7","midi_source":""},{"t":85.269,"note":69,"dur":0.163,"vel":0.709,"inst":"pad_warm_v0_fm_94","midi_source":""},{"t":85.351,"note":52,"dur":0.082,"vel":0.709,"inst":"cello_v0_additive_7","midi_source":""},{"t":85.351,"note":57,"dur":0.082,"vel":0.709,"inst":"pad_warm_v0_fm_94","midi_source":""},{"t":85.432,"note":50,"dur":0.082,"vel":0.709,"inst":"cello_v0_additive_7","midi_source":""},{"t":85.432,"note":57,"dur":0.49,"vel":0.709,"inst":"pad_warm_v0_fm_94","midi_source":""},{"t":85.432,"note":57,"dur":0.082,"vel":0.709,"inst":"pad_warm_v0_fm_94","midi_source":""},{"t":85.432,"note":76,"dur":0.245,"vel":0.709,"inst":"cello_v0_additive_7","midi_source":""},{"t":85.514,"note":50,"dur":0.082,"vel":0.709,"inst":"cello_v0_additive_7","midi_source":""},{"t":85.514,"note":57,"dur":0.082,"vel":0.709,"inst":"pad_warm_v0_fm_94","midi_source":""},{"t":85.596,"note":50,"dur":0.082,"vel":0.709,"inst":"cello_v0_additive_7","midi_source":""},{"t":85.596,"note":57,"dur":0.082,"vel":0.709,"inst":"pad_warm_v0_fm_94","midi_source":""},{"t":85.677,"note":50,"dur":0.082,"vel":0.709,"inst":"cello_v0_additive_7","midi_source":""},{"t":85.677,"note":57,"dur":0.082,"vel":0.709,"inst":"pad_warm_v0_fm_94","midi_source":""},{"t":85.677,"note":74,"dur":0.041,"vel":0.709,"inst":"cello_v0_additive_7","midi_source":""},{"t":85.718,"note":76,"dur":0.041,"vel":0.709,"inst":"cello_v0_additive_7","midi_source":""},{"t":85.759,"note":50,"dur":0.082,"vel":0.709,"inst":"cello_v0_additive_7","midi_source":""},{"t":85.759,"note":55,"dur":0.082,"vel":0.709,"inst":"pad_warm_v0_fm_94","midi_source":""},{"t":85.759,"note":79,"dur":0.163,"vel":0.709,"inst":"pad_warm_v0_fm_94","midi_source":""},{"t":85.841,"note":50,"dur":0.082,"vel":0.709,"inst":"cello_v0_additive_7","midi_source":""},{"t":85.841,"note":55,"dur":0.082,"vel":0.709,"inst":"pad_warm_v0_fm_94","midi_source":""},{"t":85.923,"note":50,"dur":0.082,"vel":0.709,"inst":"cello_v0_additive_7","midi_source":""},{"t":85.923,"note":55,"dur":0.082,"vel":0.709,"inst":"pad_warm_v0_fm_94","midi_source":""},{"t":85.923,"note":67,"dur":0.163,"vel":0.709,"inst":"pad_warm_v0_fm_94","midi_source":""},{"t":85.923,"note":74,"dur":0.163,"vel":0.709,"inst":"cello_v0_additive_7","midi_source":""},{"t":86.004,"note":50,"dur":0.082,"vel":0.709,"inst":"cello_v0_additive_7","midi_source":""},{"t":86.004,"note":55,"dur":0.082,"vel":0.709,"inst":"pad_warm_v0_fm_94","midi_source":""},{"t":86.086,"note":52,"dur":0.082,"vel":0.709,"inst":"cello_v0_additive_7","midi_source":""},{"t":86.086,"note":57,"dur":0.082,"vel":0.709,"inst":"pad_warm_v0_fm_94","midi_source":""},{"t":86.086,"note":62,"dur":0.163,"vel":0.709,"inst":"cello_v0_additive_7","midi_source":""},{"t":86.086,"note":72,"dur":0.163,"vel":0.709,"inst":"cello_v0_additive_7","midi_source":""},{"t":86.168,"note":52,"dur":0.082,"vel":0.709,"inst":"cello_v0_additive_7","midi_source":""},{"t":86.168,"note":57,"dur":0.082,"vel":0.709,"inst":"pad_warm_v0_fm_94","midi_source":""},{"t":86.25,"note":52,"dur":0.082,"vel":0.709,"inst":"cello_v0_additive_7","midi_source":""},{"t":86.25,"note":60,"dur":0.163,"vel":0.709,"inst":"cello_v0_additive_7","midi_source":""},{"t":86.25,"note":60,"dur":0.082,"vel":0.709,"inst":"cello_v0_additive_7","midi_source":""},{"t":86.25,"note":69,"dur":0.163,"vel":0.709,"inst":"pad_warm_v0_fm_94","midi_source":""},{"t":86.331,"note":52,"dur":0.082,"vel":0.709,"inst":"cello_v0_additive_7","midi_source":""},{"t":86.331,"note":60,"dur":0.082,"vel":0.709,"inst":"cello_v0_additive_7","midi_source":""},{"t":86.413,"note":45,"dur":0.082,"vel":0.709,"inst":"pad_warm_v0_fm_94","midi_source":""},{"t":86.413,"note":57,"dur":0.327,"vel":0.709,"inst":"pad_warm_v0_fm_94","midi_source":""},{"t":86.413,"note":62,"dur":0.654,"vel":0.709,"inst":"cello_v0_additive_7","midi_source":""},{"t":86.413,"note":69,"dur":0.654,"vel":0.709,"inst":"pad_warm_v0_fm_94","midi_source":""},{"t":86.495,"note":48,"dur":0.082,"vel":0.709,"inst":"cello_v0_additive_7","midi_source":""},{"t":86.576,"note":45,"dur":0.082,"vel":0.709,"inst":"pad_warm_v0_fm_94","midi_source":""},{"t":86.658,"note":45,"dur":0.082,"vel":0.709,"inst":"pad_warm_v0_fm_94","midi_source":""},{"t":86.74,"note":45,"dur":0.082,"vel":0.709,"inst":"pad_warm_v0_fm_94","midi_source":""},{"t":86.74,"note":52,"dur":0.327,"vel":0.709,"inst":"cello_v0_additive_7","midi_source":""},{"t":86.822,"note":48,"dur":0.082,"vel":0.709,"inst":"cello_v0_additive_7","midi_source":""},{"t":86.903,"note":45,"dur":0.082,"vel":0.709,"inst":"pad_warm_v0_fm_94","midi_source":""},{"t":86.985,"note":45,"dur":0.082,"vel":0.709,"inst":"pad_warm_v0_fm_94","midi_source":""},{"t":87.067,"note":45,"dur":0.082,"vel":0.709,"inst":"pad_warm_v0_fm_94","midi_source":""},{"t":87.067,"note":52,"dur":0.327,"vel":0.709,"inst":"cello_v0_additive_7","midi_source":""},{"t":87.067,"note":62,"dur":0.327,"vel":0.709,"inst":"cello_v0_additive_7","midi_source":""},{"t":87.067,"note":67,"dur":0.327,"vel":0.709,"inst":"pad_warm_v0_fm_94","midi_source":""},{"t":87.149,"note":45,"dur":0.082,"vel":0.709,"inst":"pad_warm_v0_fm_94","midi_source":""},{"t":87.23,"note":45,"dur":0.082,"vel":0.709,"inst":"pad_warm_v0_fm_94","midi_source":""},{"t":87.312,"note":47,"dur":0.082,"vel":0.709,"inst":"pad_warm_v0_fm_94","midi_source":""},{"t":87.394,"note":48,"dur":0.082,"vel":0.709,"inst":"cello_v0_additive_7","midi_source":""},{"t":87.394,"note":50,"dur":0.654,"vel":0.709,"inst":"cello_v0_additive_7","midi_source":""},{"t":87.394,"note":62,"dur":0.654,"vel":0.709,"inst":"cello_v0_additive_7","midi_source":""},{"t":87.394,"note":67,"dur":0.654,"vel":0.709,"inst":"pad_warm_v0_fm_94","midi_source":""},{"t":87.475,"note":50,"dur":0.082,"vel":0.709,"inst":"cello_v0_additive_7","midi_source":""},{"t":87.557,"note":48,"dur":0.082,"vel":0.709,"inst":"cello_v0_additive_7","midi_source":""},{"t":87.639,"note":47,"dur":0.082,"vel":0.709,"inst":"pad_warm_v0_fm_94","midi_source":""},{"t":87.721,"note":48,"dur":0.082,"vel":0.709,"inst":"cello_v0_additive_7","midi_source":""},{"t":87.802,"note":50,"dur":0.082,"vel":0.709,"inst":"cello_v0_additive_7","midi_source":""},{"t":87.884,"note":48,"dur":0.082,"vel":0.709,"inst":"cello_v0_additive_7","midi_source":""},{"t":87.966,"note":47,"dur":0.082,"vel":0.709,"inst":"pad_warm_v0_fm_94","midi_source":""},{"t":88.048,"note":48,"dur":0.082,"vel":0.709,"inst":"cello_v0_additive_7","midi_source":""},{"t":88.048,"note":55,"dur":0.327,"vel":0.709,"inst":"pad_warm_v0_fm_94","midi_source":""},{"t":88.048,"note":64,"dur":0.327,"vel":0.709,"inst":"cello_v0_additive_7","midi_source":""},{"t":88.048,"note":69,"dur":0.327,"vel":0.709,"inst":"pad_warm_v0_fm_94","midi_source":""},{"t":88.129,"note":47,"dur":0.082,"vel":0.709,"inst":"pad_warm_v0_fm_94","midi_source":""},{"t":88.211,"note":48,"dur":0.082,"vel":0.709,"inst":"cello_v0_additive_7","midi_source":""},{"t":88.293,"note":48,"dur":0.082,"vel":0.709,"inst":"cello_v0_additive_7","midi_source":""},{"t":88.374,"note":50,"dur":0.082,"vel":0.709,"inst":"cello_v0_additive_7","midi_source":""},{"t":88.374,"note":54,"dur":0.327,"vel":0.709,"inst":"cello_v0_additive_7","midi_source":""},{"t":88.374,"note":66,"dur":0.327,"vel":0.709,"inst":"cello_v0_additive_7","midi_source":""},{"t":88.374,"note":69,"dur":0.327,"vel":0.709,"inst":"pad_warm_v0_fm_94","midi_source":""},{"t":88.456,"note":50,"dur":0.082,"vel":0.709,"inst":"cello_v0_additive_7","midi_source":""},{"t":88.538,"note":62,"dur":0.082,"vel":0.709,"inst":"cello_v0_additive_7","midi_source":""},{"t":88.62,"note":57,"dur":0.041,"vel":0.709,"inst":"pad_warm_v0_fm_94","midi_source":""},{"t":88.62,"note":62,"dur":0.082,"vel":0.709,"inst":"cello_v0_additive_7","midi_source":""},{"t":88.62,"note":66,"dur":0.041,"vel":0.709,"inst":"cello_v0_additive_7","midi_source":""},{"t":88.661,"note":59,"dur":0.041,"vel":0.709,"inst":"pad_warm_v0_fm_94","midi_source":""},{"t":88.661,"note":67,"dur":0.041,"vel":0.709,"inst":"pad_warm_v0_fm_94","midi_source":""},{"t":88.701,"note":60,"dur":0.163,"vel":0.709,"inst":"cello_v0_additive_7","midi_source":""},{"t":88.701,"note":62,"dur":0.082,"vel":0.709,"inst":"cello_v0_additive_7","midi_source":""},{"t":88.701,"note":69,"dur":0.163,"vel":0.709,"inst":"pad_warm_v0_fm_94","midi_source":""},{"t":88.783,"note":62,"dur":0.082,"vel":0.709,"inst":"cello_v0_additive_7","midi_source":""},{"t":88.865,"note":62,"dur":0.082,"vel":0.709,"inst":"cello_v0_additive_7","midi_source":""},{"t":88.947,"note":62,"dur":0.082,"vel":0.709,"inst":"cello_v0_additive_7","midi_source":""},{"t":89.028,"note":57,"dur":0.163,"vel":0.709,"inst":"pad_warm_v0_fm_94","midi_source":""},{"t":89.028,"note":62,"dur":0.082,"vel":0.709,"inst":"cello_v0_additive_7","midi_source":""},{"t":89.028,"note":66,"dur":0.163,"vel":0.709,"inst":"cello_v0_additive_7","midi_source":""},{"t":89.11,"note":62,"dur":0.082,"vel":0.709,"inst":"cello_v0_additive_7","midi_source":""},{"t":89.192,"note":62,"dur":0.082,"vel":0.709,"inst":"cello_v0_additive_7","midi_source":""},{"t":89.273,"note":62,"dur":0.082,"vel":0.709,"inst":"cello_v0_additive_7","midi_source":""},{"t":89.355,"note":55,"dur":0.245,"vel":0.709,"inst":"pad_warm_v0_fm_94","midi_source":""},{"t":89.355,"note":62,"dur":0.082,"vel":0.709,"inst":"cello_v0_additive_7","midi_source":""},{"t":89.355,"note":71,"dur":0.245,"vel":0.709,"inst":"pad_warm_v0_fm_94","midi_source":""},{"t":89.437,"note":62,"dur":0.082,"vel":0.709,"inst":"cello_v0_additive_7","midi_source":""},{"t":89.519,"note":62,"dur":0.082,"vel":0.709,"inst":"cello_v0_additive_7","midi_source":""},{"t":89.6,"note":54,"dur":0.041,"vel":0.709,"inst":"cello_v0_additive_7","midi_source":""},{"t":89.6,"note":62,"dur":0.082,"vel":0.709,"inst":"cello_v0_additive_7","midi_source":""},{"t":89.6,"note":69,"dur":0.041,"vel":0.709,"inst":"pad_warm_v0_fm_94","midi_source":""},{"t":89.641,"note":55,"dur":0.041,"vel":0.709,"inst":"pad_warm_v0_fm_94","midi_source":""},{"t":89.641,"note":71,"dur":0.041,"vel":0.709,"inst":"pad_warm_v0_fm_94","midi_source":""},{"t":89.682,"note":57,"dur":0.163,"vel":0.709,"inst":"pad_warm_v0_fm_94","midi_source":""},{"t":89.682,"note":62,"dur":0.082,"vel":0.709,"inst":"cello_v0_additive_7","midi_source":""},{"t":89.682,"note":72,"dur":0.163,"vel":0.709,"inst":"cello_v0_additive_7","midi_source":""},{"t":89.764,"note":62,"dur":0.082,"vel":0.709,"inst":"cello_v0_additive_7","midi_source":""},{"t":89.846,"note":62,"dur":0.082,"vel":0.709,"inst":"cello_v0_additive_7","midi_source":""},{"t":89.927,"note":62,"dur":0.082,"vel":0.709,"inst":"cello_v0_additive_7","midi_source":""},{"t":90.009,"note":54,"dur":0.163,"vel":0.709,"inst":"cello_v0_additive_7","midi_source":""},{"t":90.009,"note":62,"dur":0.082,"vel":0.709,"inst":"cello_v0_additive_7","midi_source":""},{"t":90.009,"note":69,"dur":0.163,"vel":0.709,"inst":"pad_warm_v0_fm_94","midi_source":""},{"t":90.091,"note":62,"dur":0.082,"vel":0.709,"inst":"cello_v0_additive_7","midi_source":""},{"t":90.173,"note":62,"dur":0.082,"vel":0.709,"inst":"cello_v0_additive_7","midi_source":""},{"t":90.254,"note":62,"dur":0.082,"vel":0.709,"inst":"cello_v0_additive_7","midi_source":""},{"t":90.336,"note":47,"dur":0.082,"vel":0.709,"inst":"pad_warm_v0_fm_94","midi_source":""},{"t":90.336,"note":55,"dur":0.082,"vel":0.709,"inst":"pad_warm_v0_fm_94","midi_source":""},{"t":90.336,"note":55,"dur":0.082,"vel":0.709,"inst":"pad_warm_v0_fm_94","midi_source":""},{"t":90.336,"note":74,"dur":0.245,"vel":0.709,"inst":"cello_v0_additive_7","midi_source":""},{"t":90.418,"note":47,"dur":0.082,"vel":0.709,"inst":"pad_warm_v0_fm_94","midi_source":""},{"t":90.418,"note":55,"dur":0.082,"vel":0.709,"inst":"pad_warm_v0_fm_94","midi_source":""},{"t":90.418,"note":55,"dur":0.082,"vel":0.709,"inst":"pad_warm_v0_fm_94","midi_source":""},{"t":90.499,"note":47,"dur":0.082,"vel":0.709,"inst":"pad_warm_v0_fm_94","midi_source":""},{"t":90.499,"note":55,"dur":0.082,"vel":0.709,"inst":"pad_warm_v0_fm_94","midi_source":""},{"t":90.499,"note":55,"dur":0.082,"vel":0.709,"inst":"pad_warm_v0_fm_94","midi_source":""},{"t":90.581,"note":47,"dur":0.082,"vel":0.709,"inst":"pad_warm_v0_fm_94","midi_source":""},{"t":90.581,"note":55,"dur":0.082,"vel":0.709,"inst":"pad_warm_v0_fm_94","midi_source":""},{"t":90.581,"note":55,"dur":0.082,"vel":0.709,"inst":"pad_warm_v0_fm_94","midi_source":""},{"t":90.581,"note":74,"dur":0.041,"vel":0.709,"inst":"cello_v0_additive_7","midi_source":""},{"t":90.622,"note":76,"dur":0.041,"vel":0.709,"inst":"cello_v0_additive_7","midi_source":""},{"t":90.663,"note":47,"dur":0.082,"vel":0.709,"inst":"pad_warm_v0_fm_94","midi_source":""},{"t":90.663,"note":55,"dur":0.082,"vel":0.709,"inst":"pad_warm_v0_fm_94","midi_source":""},{"t":90.663,"note":62,"dur":0.082,"vel":0.709,"inst":"cello_v0_additive_7","midi_source":""},{"t":90.663,"note":76,"dur":0.327,"vel":0.709,"inst":"cello_v0_additive_7","midi_source":""},{"t":90.745,"note":47,"dur":0.082,"vel":0.709,"inst":"pad_warm_v0_fm_94","midi_source":""},{"t":90.745,"note":55,"dur":0.082,"vel":0.709,"inst":"pad_warm_v0_fm_94","midi_source":""},{"t":90.745,"note":62,"dur":0.082,"vel":0.709,"inst":"cello_v0_additive_7","midi_source":""},{"t":90.826,"note":47,"dur":0.082,"vel":0.709,"inst":"pad_warm_v0_fm_94","midi_source":""},{"t":90.826,"note":55,"dur":0.082,"vel":0.709,"inst":"pad_warm_v0_fm_94","midi_source":""},{"t":90.826,"note":62,"dur":0.082,"vel":0.709,"inst":"cello_v0_additive_7","midi_source":""},{"t":90.908,"note":47,"dur":0.082,"vel":0.709,"inst":"pad_warm_v0_fm_94","midi_source":""},{"t":90.908,"note":55,"dur":0.082,"vel":0.709,"inst":"pad_warm_v0_fm_94","midi_source":""},{"t":90.908,"note":62,"dur":0.082,"vel":0.709,"inst":"cello_v0_additive_7","midi_source":""},{"t":90.99,"note":48,"dur":0.082,"vel":0.709,"inst":"cello_v0_additive_7","midi_source":""},{"t":90.99,"note":57,"dur":0.082,"vel":0.709,"inst":"pad_warm_v0_fm_94","midi_source":""},{"t":90.99,"note":60,"dur":0.082,"vel":0.709,"inst":"cello_v0_additive_7","midi_source":""},{"t":90.99,"note":76,"dur":0.041,"vel":0.709,"inst":"cello_v0_additive_7","midi_source":""},{"t":91.031,"note":72,"dur":0.041,"vel":0.709,"inst":"cello_v0_additive_7","midi_source":""},{"t":91.072,"note":48,"dur":0.082,"vel":0.709,"inst":"cello_v0_additive_7","midi_source":""},{"t":91.072,"note":57,"dur":0.082,"vel":0.709,"inst":"pad_warm_v0_fm_94","midi_source":""},{"t":91.072,"note":60,"dur":0.082,"vel":0.709,"inst":"cello_v0_additive_7","midi_source":""},{"t":91.072,"note":71,"dur":0.041,"vel":0.709,"inst":"pad_warm_v0_fm_94","midi_source":""},{"t":91.112,"note":69,"dur":0.041,"vel":0.709,"inst":"pad_warm_v0_fm_94","midi_source":""},{"t":91.153,"note":48,"dur":0.082,"vel":0.709,"inst":"cello_v0_additive_7","midi_source":""},{"t":91.153,"note":57,"dur":0.082,"vel":0.709,"inst":"pad_warm_v0_fm_94","midi_source":""},{"t":91.153,"note":60,"dur":0.082,"vel":0.709,"inst":"cello_v0_additive_7","midi_source":""},{"t":91.153,"note":67,"dur":0.041,"vel":0.709,"inst":"pad_warm_v0_fm_94","midi_source":""},{"t":91.194,"note":69,"dur":0.041,"vel":0.709,"inst":"pad_warm_v0_fm_94","midi_source":""},{"t":91.235,"note":48,"dur":0.082,"vel":0.709,"inst":"cello_v0_additive_7","midi_source":""},{"t":91.235,"note":57,"dur":0.082,"vel":0.709,"inst":"pad_warm_v0_fm_94","midi_source":""},{"t":91.235,"note":60,"dur":0.082,"vel":0.709,"inst":"cello_v0_additive_7","midi_source":""},{"t":91.235,"note":72,"dur":0.041,"vel":0.709,"inst":"cello_v0_additive_7","midi_source":""},{"t":91.276,"note":69,"dur":0.041,"vel":0.709,"inst":"pad_warm_v0_fm_94","midi_source":""},{"t":91.317,"note":50,"dur":0.082,"vel":0.709,"inst":"cello_v0_additive_7","midi_source":""},{"t":91.317,"note":55,"dur":0.082,"vel":0.709,"inst":"pad_warm_v0_fm_94","midi_source":""},{"t":91.317,"note":59,"dur":0.082,"vel":0.709,"inst":"pad_warm_v0_fm_94","midi_source":""},{"t":91.317,"note":67,"dur":0.041,"vel":0.709,"inst":"pad_warm_v0_fm_94","midi_source":""},{"t":91.358,"note":69,"dur":0.041,"vel":0.709,"inst":"pad_warm_v0_fm_94","midi_source":""},{"t":91.398,"note":50,"dur":0.082,"vel":0.709,"inst":"cello_v0_additive_7","midi_source":""},{"t":91.398,"note":55,"dur":0.082,"vel":0.709,"inst":"pad_warm_v0_fm_94","midi_source":""},{"t":91.398,"note":59,"dur":0.082,"vel":0.709,"inst":"pad_warm_v0_fm_94","midi_source":""},{"t":91.398,"note":71,"dur":0.041,"vel":0.709,"inst":"pad_warm_v0_fm_94","midi_source":""},{"t":91.439,"note":72,"dur":0.041,"vel":0.709,"inst":"cello_v0_additive_7","midi_source":""},{"t":91.48,"note":50,"dur":0.082,"vel":0.709,"inst":"cello_v0_additive_7","midi_source":""},{"t":91.48,"note":55,"dur":0.082,"vel":0.709,"inst":"pad_warm_v0_fm_94","midi_source":""},{"t":91.48,"note":59,"dur":0.082,"vel":0.709,"inst":"pad_warm_v0_fm_94","midi_source":""},{"t":91.48,"note":74,"dur":0.041,"vel":0.709,"inst":"cello_v0_additive_7","midi_source":""},{"t":91.521,"note":76,"dur":0.041,"vel":0.709,"inst":"cello_v0_additive_7","midi_source":""},{"t":91.562,"note":50,"dur":0.082,"vel":0.709,"inst":"cello_v0_additive_7","midi_source":""},{"t":91.562,"note":55,"dur":0.082,"vel":0.709,"inst":"pad_warm_v0_fm_94","midi_source":""},{"t":91.562,"note":59,"dur":0.082,"vel":0.709,"inst":"pad_warm_v0_fm_94","midi_source":""},{"t":91.562,"note":74,"dur":0.041,"vel":0.709,"inst":"cello_v0_additive_7","midi_source":""},{"t":91.603,"note":76,"dur":0.041,"vel":0.709,"inst":"cello_v0_additive_7","midi_source":""},{"t":91.644,"note":50,"dur":0.163,"vel":0.709,"inst":"cello_v0_additive_7","midi_source":""},{"t":91.644,"note":55,"dur":0.163,"vel":0.709,"inst":"pad_warm_v0_fm_94","midi_source":""},{"t":91.644,"note":59,"dur":0.163,"vel":0.709,"inst":"pad_warm_v0_fm_94","midi_source":""},{"t":91.644,"note":74,"dur":0.163,"vel":0.709,"inst":"cello_v0_additive_7","midi_source":""},{"t":91.971,"note":50,"dur":0.163,"vel":0.709,"inst":"cello_v0_additive_7","midi_source":""},{"t":91.971,"note":57,"dur":0.163,"vel":0.709,"inst":"pad_warm_v0_fm_94","midi_source":""},{"t":91.971,"note":60,"dur":0.163,"vel":0.709,"inst":"cello_v0_additive_7","midi_source":""},{"t":91.971,"note":66,"dur":0.163,"vel":0.709,"inst":"cello_v0_additive_7","midi_source":""},{"t":92.297,"note":59,"dur":0.245,"vel":0.709,"inst":"pad_warm_v0_fm_94","midi_source":""},{"t":92.297,"note":62,"dur":0.082,"vel":0.709,"inst":"cello_v0_additive_7","midi_source":""},{"t":92.297,"note":67,"dur":0.245,"vel":0.709,"inst":"pad_warm_v0_fm_94","midi_source":""},{"t":92.379,"note":62,"dur":0.082,"vel":0.709,"inst":"cello_v0_additive_7","midi_source":""},{"t":92.461,"note":62,"dur":0.082,"vel":0.709,"inst":"cello_v0_additive_7","midi_source":""},{"t":92.543,"note":57,"dur":0.041,"vel":0.709,"inst":"pad_warm_v0_fm_94","midi_source":""},{"t":92.543,"note":62,"dur":0.082,"vel":0.709,"inst":"cello_v0_additive_7","midi_source":""},{"t":92.543,"note":66,"dur":0.041,"vel":0.709,"inst":"cello_v0_additive_7","midi_source":""},{"t":92.583,"note":59,"dur":0.041,"vel":0.709,"inst":"pad_warm_v0_fm_94","midi_source":""},{"t":92.583,"note":67,"dur":0.041,"vel":0.709,"inst":"pad_warm_v0_fm_94","midi_source":""},{"t":92.624,"note":60,"dur":0.163,"vel":0.709,"inst":"cello_v0_additive_7","midi_source":""},{"t":92.624,"note":62,"dur":0.082,"vel":0.709,"inst":"cello_v0_additive_7","midi_source":""},{"t":92.624,"note":69,"dur":0.163,"vel":0.709,"inst":"pad_warm_v0_fm_94","midi_source":""},{"t":92.706,"note":62,"dur":0.082,"vel":0.709,"inst":"cello_v0_additive_7","midi_source":""},{"t":92.788,"note":62,"dur":0.082,"vel":0.709,"inst":"cello_v0_additive_7","midi_source":""},{"t":92.87,"note":62,"dur":0.082,"vel":0.709,"inst":"cello_v0_additive_7","midi_source":""},{"t":92.951,"note":57,"dur":0.163,"vel":0.709,"inst":"pad_warm_v0_fm_94","midi_source":""},{"t":92.951,"note":62,"dur":0.082,"vel":0.709,"inst":"cello_v0_additive_7","midi_source":""},{"t":92.951,"note":66,"dur":0.163,"vel":0.709,"inst":"cello_v0_additive_7","midi_source":""},{"t":93.033,"note":62,"dur":0.082,"vel":0.709,"inst":"cello_v0_additive_7","midi_source":""},{"t":93.115,"note":62,"dur":0.082,"vel":0.709,"inst":"cello_v0_additive_7","midi_source":""},{"t":93.196,"note":62,"dur":0.082,"vel":0.709,"inst":"cello_v0_additive_7","midi_source":""},{"t":93.278,"note":55,"dur":0.245,"vel":0.709,"inst":"pad_warm_v0_fm_94","midi_source":""},{"t":93.278,"note":62,"dur":0.082,"vel":0.709,"inst":"cello_v0_additive_7","midi_source":""},{"t":93.278,"note":69,"dur":0.245,"vel":0.709,"inst":"pad_warm_v0_fm_94","midi_source":""},{"t":93.36,"note":62,"dur":0.082,"vel":0.709,"inst":"cello_v0_additive_7","midi_source":""},{"t":93.442,"note":62,"dur":0.082,"vel":0.709,"inst":"cello_v0_additive_7","midi_source":""},{"t":93.523,"note":54,"dur":0.041,"vel":0.709,"inst":"cello_v0_additive_7","midi_source":""},{"t":93.523,"note":62,"dur":0.082,"vel":0.709,"inst":"cello_v0_additive_7","midi_source":""},{"t":93.523,"note":69,"dur":0.041,"vel":0.709,"inst":"pad_warm_v0_fm_94","midi_source":""},{"t":93.564,"note":55,"dur":0.041,"vel":0.709,"inst":"pad_warm_v0_fm_94","midi_source":""},{"t":93.564,"note":69,"dur":0.041,"vel":0.709,"inst":"pad_warm_v0_fm_94","midi_source":""},{"t":93.605,"note":57,"dur":0.163,"vel":0.709,"inst":"pad_warm_v0_fm_94","midi_source":""},{"t":93.605,"note":62,"dur":0.082,"vel":0.709,"inst":"cello_v0_additive_7","midi_source":""},{"t":93.605,"note":72,"dur":0.163,"vel":0.709,"inst":"cello_v0_additive_7","midi_source":""},{"t":93.687,"note":62,"dur":0.082,"vel":0.709,"inst":"cello_v0_additive_7","midi_source":""},{"t":93.769,"note":62,"dur":0.082,"vel":0.709,"inst":"cello_v0_additive_7","midi_source":""},{"t":93.85,"note":62,"dur":0.082,"vel":0.709,"inst":"cello_v0_additive_7","midi_source":""},{"t":93.932,"note":54,"dur":0.163,"vel":0.709,"inst":"cello_v0_additive_7","midi_source":""},{"t":93.932,"note":62,"dur":0.082,"vel":0.709,"inst":"cello_v0_additive_7","midi_source":""},{"t":93.932,"note":69,"dur":0.163,"vel":0.709,"inst":"pad_warm_v0_fm_94","midi_source":""},{"t":94.014,"note":62,"dur":0.082,"vel":0.709,"inst":"cello_v0_additive_7","midi_source":""},{"t":94.095,"note":62,"dur":0.082,"vel":0.709,"inst":"cello_v0_additive_7","midi_source":""},{"t":94.177,"note":62,"dur":0.082,"vel":0.709,"inst":"cello_v0_additive_7","midi_source":""},{"t":94.259,"note":55,"dur":0.082,"vel":0.709,"inst":"pad_warm_v0_fm_94","midi_source":""},{"t":94.259,"note":57,"dur":0.082,"vel":0.709,"inst":"pad_warm_v0_fm_94","midi_source":""},{"t":94.259,"note":69,"dur":0.245,"vel":0.709,"inst":"pad_warm_v0_fm_94","midi_source":""},{"t":94.259,"note":74,"dur":0.245,"vel":0.709,"inst":"cello_v0_additive_7","midi_source":""},{"t":94.341,"note":55,"dur":0.082,"vel":0.709,"inst":"pad_warm_v0_fm_94","midi_source":""},{"t":94.341,"note":57,"dur":0.082,"vel":0.709,"inst":"pad_warm_v0_fm_94","midi_source":""},{"t":94.422,"note":55,"dur":0.082,"vel":0.709,"inst":"pad_warm_v0_fm_94","midi_source":""},{"t":94.422,"note":57,"dur":0.082,"vel":0.709,"inst":"pad_warm_v0_fm_94","midi_source":""},{"t":94.504,"note":55,"dur":0.082,"vel":0.709,"inst":"pad_warm_v0_fm_94","midi_source":""},{"t":94.504,"note":57,"dur":0.082,"vel":0.709,"inst":"pad_warm_v0_fm_94","midi_source":""},{"t":94.504,"note":69,"dur":0.041,"vel":0.709,"inst":"pad_warm_v0_fm_94","midi_source":""},{"t":94.504,"note":72,"dur":0.041,"vel":0.709,"inst":"cello_v0_additive_7","midi_source":""},{"t":94.545,"note":69,"dur":0.041,"vel":0.709,"inst":"pad_warm_v0_fm_94","midi_source":""},{"t":94.545,"note":74,"dur":0.041,"vel":0.709,"inst":"cello_v0_additive_7","midi_source":""},{"t":94.586,"note":48,"dur":0.082,"vel":0.709,"inst":"cello_v0_additive_7","midi_source":""},{"t":94.586,"note":55,"dur":0.082,"vel":0.709,"inst":"pad_warm_v0_fm_94","midi_source":""},{"t":94.586,"note":72,"dur":0.327,"vel":0.709,"inst":"cello_v0_additive_7","midi_source":""},{"t":94.586,"note":74,"dur":0.327,"vel":0.709,"inst":"cello_v0_additive_7","midi_source":""},{"t":94.668,"note":48,"dur":0.082,"vel":0.709,"inst":"cello_v0_additive_7","midi_source":""},{"t":94.668,"note":55,"dur":0.082,"vel":0.709,"inst":"pad_warm_v0_fm_94","midi_source":""},{"t":94.749,"note":48,"dur":0.082,"vel":0.709,"inst":"cello_v0_additive_7","midi_source":""},{"t":94.749,"note":55,"dur":0.082,"vel":0.709,"inst":"pad_warm_v0_fm_94","midi_source":""},{"t":94.831,"note":48,"dur":0.082,"vel":0.709,"inst":"cello_v0_additive_7","midi_source":""},{"t":94.831,"note":55,"dur":0.082,"vel":0.709,"inst":"pad_warm_v0_fm_94","midi_source":""},{"t":94.913,"note":52,"dur":0.082,"vel":0.709,"inst":"cello_v0_additive_7","midi_source":""},{"t":94.913,"note":57,"dur":0.082,"vel":0.709,"inst":"pad_warm_v0_fm_94","midi_source":""},{"t":94.913,"note":62,"dur":0.163,"vel":0.709,"inst":"cello_v0_additive_7","midi_source":""},{"t":94.913,"note":72,"dur":0.163,"vel":0.709,"inst":"cello_v0_additive_7","midi_source":""},{"t":94.994,"note":52,"dur":0.082,"vel":0.709,"inst":"cello_v0_additive_7","midi_source":""},{"t":94.994,"note":57,"dur":0.082,"vel":0.709,"inst":"pad_warm_v0_fm_94","midi_source":""},{"t":95.076,"note":52,"dur":0.082,"vel":0.709,"inst":"cello_v0_additive_7","midi_source":""},{"t":95.076,"note":57,"dur":0.082,"vel":0.709,"inst":"pad_warm_v0_fm_94","midi_source":""},{"t":95.076,"note":60,"dur":0.163,"vel":0.709,"inst":"cello_v0_additive_7","midi_source":""},{"t":95.076,"note":69,"dur":0.163,"vel":0.709,"inst":"pad_warm_v0_fm_94","midi_source":""},{"t":95.158,"note":52,"dur":0.082,"vel":0.709,"inst":"cello_v0_additive_7","midi_source":""},{"t":95.158,"note":57,"dur":0.082,"vel":0.709,"inst":"pad_warm_v0_fm_94","midi_source":""},{"t":95.24,"note":50,"dur":0.082,"vel":0.709,"inst":"cello_v0_additive_7","midi_source":""},{"t":95.24,"note":57,"dur":0.49,"vel":0.709,"inst":"pad_warm_v0_fm_94","midi_source":""},{"t":95.24,"note":57,"dur":0.082,"vel":0.709,"inst":"pad_warm_v0_fm_94","midi_source":""},{"t":95.24,"note":76,"dur":0.245,"vel":0.709,"inst":"cello_v0_additive_7","midi_source":""},{"t":95.321,"note":50,"dur":0.082,"vel":0.709,"inst":"cello_v0_additive_7","midi_source":""},{"t":95.321,"note":57,"dur":0.082,"vel":0.709,"inst":"pad_warm_v0_fm_94","midi_source":""},{"t":95.403,"note":50,"dur":0.082,"vel":0.709,"inst":"cello_v0_additive_7","midi_source":""},{"t":95.403,"note":57,"dur":0.082,"vel":0.709,"inst":"pad_warm_v0_fm_94","midi_source":""},{"t":95.485,"note":50,"dur":0.082,"vel":0.709,"inst":"cello_v0_additive_7","midi_source":""},{"t":95.485,"note":57,"dur":0.082,"vel":0.709,"inst":"pad_warm_v0_fm_94","midi_source":""},{"t":95.485,"note":74,"dur":0.041,"vel":0.709,"inst":"cello_v0_additive_7","midi_source":""},{"t":95.526,"note":76,"dur":0.041,"vel":0.709,"inst":"cello_v0_additive_7","midi_source":""},{"t":95.567,"note":50,"dur":0.082,"vel":0.709,"inst":"cello_v0_additive_7","midi_source":""},{"t":95.567,"note":55,"dur":0.082,"vel":0.709,"inst":"pad_warm_v0_fm_94","midi_source":""},{"t":95.567,"note":79,"dur":0.163,"vel":0.709,"inst":"pad_warm_v0_fm_94","midi_source":""},{"t":95.648,"note":50,"dur":0.082,"vel":0.709,"inst":"cello_v0_additive_7","midi_source":""},{"t":95.648,"note":55,"dur":0.082,"vel":0.709,"inst":"pad_warm_v0_fm_94","midi_source":""},{"t":95.73,"note":50,"dur":0.082,"vel":0.709,"inst":"cello_v0_additive_7","midi_source":""},{"t":95.73,"note":55,"dur":0.082,"vel":0.709,"inst":"pad_warm_v0_fm_94","midi_source":""},{"t":95.73,"note":67,"dur":0.163,"vel":0.709,"inst":"pad_warm_v0_fm_94","midi_source":""},{"t":95.73,"note":74,"dur":0.163,"vel":0.709,"inst":"cello_v0_additive_7","midi_source":""},{"t":95.812,"note":50,"dur":0.082,"vel":0.709,"inst":"cello_v0_additive_7","midi_source":""},{"t":95.812,"note":55,"dur":0.082,"vel":0.709,"inst":"pad_warm_v0_fm_94","midi_source":""},{"t":95.894,"note":52,"dur":0.082,"vel":0.709,"inst":"cello_v0_additive_7","midi_source":""},{"t":95.894,"note":57,"dur":0.082,"vel":0.709,"inst":"pad_warm_v0_fm_94","midi_source":""},{"t":95.894,"note":62,"dur":0.163,"vel":0.709,"inst":"cello_v0_additive_7","midi_source":""},{"t":95.894,"note":72,"dur":0.163,"vel":0.709,"inst":"cello_v0_additive_7","midi_source":""},{"t":95.975,"note":52,"dur":0.082,"vel":0.709,"inst":"cello_v0_additive_7","midi_source":""},{"t":95.975,"note":57,"dur":0.082,"vel":0.709,"inst":"pad_warm_v0_fm_94","midi_source":""},{"t":96.057,"note":52,"dur":0.082,"vel":0.709,"inst":"cello_v0_additive_7","midi_source":""},{"t":96.057,"note":60,"dur":0.163,"vel":0.709,"inst":"cello_v0_additive_7","midi_source":""},{"t":96.057,"note":60,"dur":0.082,"vel":0.709,"inst":"cello_v0_additive_7","midi_source":""},{"t":96.057,"note":69,"dur":0.163,"vel":0.709,"inst":"pad_warm_v0_fm_94","midi_source":""},{"t":96.139,"note":52,"dur":0.082,"vel":0.709,"inst":"cello_v0_additive_7","midi_source":""},{"t":96.139,"note":60,"dur":0.082,"vel":0.709,"inst":"cello_v0_additive_7","midi_source":""},{"t":96.22,"note":45,"dur":0.082,"vel":0.709,"inst":"pad_warm_v0_fm_94","midi_source":""},{"t":96.22,"note":57,"dur":0.327,"vel":0.709,"inst":"pad_warm_v0_fm_94","midi_source":""},{"t":96.22,"note":62,"dur":0.654,"vel":0.709,"inst":"cello_v0_additive_7","midi_source":""},{"t":96.22,"note":69,"dur":0.654,"vel":0.709,"inst":"pad_warm_v0_fm_94","midi_source":""},{"t":96.302,"note":48,"dur":0.082,"vel":0.709,"inst":"cello_v0_additive_7","midi_source":""},{"t":96.384,"note":45,"dur":0.082,"vel":0.709,"inst":"pad_warm_v0_fm_94","midi_source":""},{"t":96.466,"note":45,"dur":0.082,"vel":0.709,"inst":"pad_warm_v0_fm_94","midi_source":""},{"t":96.547,"note":45,"dur":0.082,"vel":0.709,"inst":"pad_warm_v0_fm_94","midi_source":""},{"t":96.547,"note":52,"dur":0.327,"vel":0.709,"inst":"cello_v0_additive_7","midi_source":""},{"t":96.629,"note":48,"dur":0.082,"vel":0.709,"inst":"cello_v0_additive_7","midi_source":""},{"t":96.711,"note":45,"dur":0.082,"vel":0.709,"inst":"pad_warm_v0_fm_94","midi_source":""},{"t":96.793,"note":45,"dur":0.082,"vel":0.709,"inst":"pad_warm_v0_fm_94","midi_source":""},{"t":96.874,"note":45,"dur":0.082,"vel":0.709,"inst":"pad_warm_v0_fm_94","midi_source":""},{"t":96.874,"note":52,"dur":0.327,"vel":0.709,"inst":"cello_v0_additive_7","midi_source":""},{"t":96.874,"note":62,"dur":0.327,"vel":0.709,"inst":"cello_v0_additive_7","midi_source":""},{"t":96.874,"note":67,"dur":0.327,"vel":0.709,"inst":"pad_warm_v0_fm_94","midi_source":""},{"t":96.956,"note":45,"dur":0.082,"vel":0.709,"inst":"pad_warm_v0_fm_94","midi_source":""},{"t":97.038,"note":45,"dur":0.082,"vel":0.709,"inst":"pad_warm_v0_fm_94","midi_source":""},{"t":97.119,"note":47,"dur":0.082,"vel":0.709,"inst":"pad_warm_v0_fm_94","midi_source":""},{"t":97.201,"note":48,"dur":0.082,"vel":0.709,"inst":"cello_v0_additive_7","midi_source":""},{"t":97.201,"note":50,"dur":0.654,"vel":0.709,"inst":"cello_v0_additive_7","midi_source":""},{"t":97.201,"note":62,"dur":0.654,"vel":0.709,"inst":"cello_v0_additive_7","midi_source":""},{"t":97.201,"note":67,"dur":0.654,"vel":0.709,"inst":"pad_warm_v0_fm_94","midi_source":""},{"t":97.283,"note":50,"dur":0.082,"vel":0.709,"inst":"cello_v0_additive_7","midi_source":""},{"t":97.365,"note":48,"dur":0.082,"vel":0.709,"inst":"cello_v0_additive_7","midi_source":""},{"t":97.446,"note":47,"dur":0.082,"vel":0.709,"inst":"pad_warm_v0_fm_94","midi_source":""},{"t":97.528,"note":48,"dur":0.082,"vel":0.709,"inst":"cello_v0_additive_7","midi_source":""},{"t":97.61,"note":50,"dur":0.082,"vel":0.709,"inst":"cello_v0_additive_7","midi_source":""},{"t":97.692,"note":48,"dur":0.082,"vel":0.709,"inst":"cello_v0_additive_7","midi_source":""},{"t":97.773,"note":47,"dur":0.082,"vel":0.709,"inst":"pad_warm_v0_fm_94","midi_source":""},{"t":97.855,"note":48,"dur":0.082,"vel":0.709,"inst":"cello_v0_additive_7","midi_source":""},{"t":97.855,"note":55,"dur":0.327,"vel":0.709,"inst":"pad_warm_v0_fm_94","midi_source":""},{"t":97.855,"note":64,"dur":0.327,"vel":0.709,"inst":"cello_v0_additive_7","midi_source":""},{"t":97.855,"note":69,"dur":0.327,"vel":0.709,"inst":"pad_warm_v0_fm_94","midi_source":""},{"t":97.937,"note":47,"dur":0.082,"vel":0.709,"inst":"pad_warm_v0_fm_94","midi_source":""},{"t":98.018,"note":48,"dur":0.082,"vel":0.709,"inst":"cello_v0_additive_7","midi_source":""},{"t":98.1,"note":48,"dur":0.082,"vel":0.709,"inst":"cello_v0_additive_7","midi_source":""},{"t":98.182,"note":50,"dur":0.082,"vel":0.709,"inst":"cello_v0_additive_7","midi_source":""},{"t":98.182,"note":54,"dur":0.327,"vel":0.709,"inst":"cello_v0_additive_7","midi_source":""},{"t":98.182,"note":66,"dur":0.327,"vel":0.709,"inst":"cello_v0_additive_7","midi_source":""},{"t":98.182,"note":69,"dur":0.327,"vel":0.709,"inst":"pad_warm_v0_fm_94","midi_source":""},{"t":98.264,"note":50,"dur":0.082,"vel":0.709,"inst":"cello_v0_additive_7","midi_source":""},{"t":98.345,"note":62,"dur":0.082,"vel":0.709,"inst":"cello_v0_additive_7","midi_source":""},{"t":98.427,"note":57,"dur":0.041,"vel":0.709,"inst":"pad_warm_v0_fm_94","midi_source":""},{"t":98.427,"note":62,"dur":0.082,"vel":0.709,"inst":"cello_v0_additive_7","midi_source":""},{"t":98.427,"note":66,"dur":0.041,"vel":0.709,"inst":"cello_v0_additive_7","midi_source":""},{"t":98.468,"note":59,"dur":0.041,"vel":0.709,"inst":"pad_warm_v0_fm_94","midi_source":""},{"t":98.468,"note":67,"dur":0.041,"vel":0.709,"inst":"pad_warm_v0_fm_94","midi_source":""},{"t":98.509,"note":60,"dur":0.163,"vel":0.709,"inst":"cello_v0_additive_7","midi_source":""},{"t":98.509,"note":62,"dur":0.082,"vel":0.709,"inst":"cello_v0_additive_7","midi_source":""},{"t":98.509,"note":69,"dur":0.163,"vel":0.709,"inst":"pad_warm_v0_fm_94","midi_source":""},{"t":98.591,"note":62,"dur":0.082,"vel":0.709,"inst":"cello_v0_additive_7","midi_source":""},{"t":98.672,"note":62,"dur":0.082,"vel":0.709,"inst":"cello_v0_additive_7","midi_source":""},{"t":98.754,"note":62,"dur":0.082,"vel":0.709,"inst":"cello_v0_additive_7","midi_source":""},{"t":98.836,"note":57,"dur":0.163,"vel":0.709,"inst":"pad_warm_v0_fm_94","midi_source":""},{"t":98.836,"note":62,"dur":0.082,"vel":0.709,"inst":"cello_v0_additive_7","midi_source":""},{"t":98.836,"note":66,"dur":0.163,"vel":0.709,"inst":"cello_v0_additive_7","midi_source":""},{"t":98.917,"note":62,"dur":0.082,"vel":0.709,"inst":"cello_v0_additive_7","midi_source":""},{"t":98.999,"note":62,"dur":0.082,"vel":0.709,"inst":"cello_v0_additive_7","midi_source":""},{"t":99.081,"note":62,"dur":0.082,"vel":0.709,"inst":"cello_v0_additive_7","midi_source":""},{"t":99.163,"note":55,"dur":0.245,"vel":0.709,"inst":"pad_warm_v0_fm_94","midi_source":""},{"t":99.163,"note":62,"dur":0.082,"vel":0.709,"inst":"cello_v0_additive_7","midi_source":""},{"t":99.163,"note":71,"dur":0.245,"vel":0.709,"inst":"pad_warm_v0_fm_94","midi_source":""},{"t":99.244,"note":62,"dur":0.082,"vel":0.709,"inst":"cello_v0_additive_7","midi_source":""},{"t":99.326,"note":62,"dur":0.082,"vel":0.709,"inst":"cello_v0_additive_7","midi_source":""},{"t":99.408,"note":54,"dur":0.041,"vel":0.709,"inst":"cello_v0_additive_7","midi_source":""},{"t":99.408,"note":62,"dur":0.082,"vel":0.709,"inst":"cello_v0_additive_7","midi_source":""},{"t":99.408,"note":69,"dur":0.041,"vel":0.709,"inst":"pad_warm_v0_fm_94","midi_source":""},{"t":99.449,"note":55,"dur":0.041,"vel":0.709,"inst":"pad_warm_v0_fm_94","midi_source":""},{"t":99.449,"note":71,"dur":0.041,"vel":0.709,"inst":"pad_warm_v0_fm_94","midi_source":""},{"t":99.49,"note":57,"dur":0.163,"vel":0.709,"inst":"pad_warm_v0_fm_94","midi_source":""},{"t":99.49,"note":62,"dur":0.082,"vel":0.709,"inst":"cello_v0_additive_7","midi_source":""},{"t":99.49,"note":72,"dur":0.163,"vel":0.709,"inst":"cello_v0_additive_7","midi_source":""},{"t":99.571,"note":62,"dur":0.082,"vel":0.709,"inst":"cello_v0_additive_7","midi_source":""},{"t":99.653,"note":62,"dur":0.082,"vel":0.709,"inst":"cello_v0_additive_7","midi_source":""},{"t":99.735,"note":62,"dur":0.082,"vel":0.709,"inst":"cello_v0_additive_7","midi_source":""},{"t":99.816,"note":54,"dur":0.163,"vel":0.709,"inst":"cello_v0_additive_7","midi_source":""},{"t":99.816,"note":62,"dur":0.082,"vel":0.709,"inst":"cello_v0_additive_7","midi_source":""},{"t":99.816,"note":69,"dur":0.163,"vel":0.709,"inst":"pad_warm_v0_fm_94","midi_source":""},{"t":99.898,"note":62,"dur":0.082,"vel":0.709,"inst":"cello_v0_additive_7","midi_source":""},{"t":99.98,"note":62,"dur":0.082,"vel":0.709,"inst":"cello_v0_additive_7","midi_source":""},{"t":100.062,"note":62,"dur":0.082,"vel":0.709,"inst":"cello_v0_additive_7","midi_source":""},{"t":100.143,"note":47,"dur":0.082,"vel":0.709,"inst":"pad_warm_v0_fm_94","midi_source":""},{"t":100.143,"note":55,"dur":0.082,"vel":0.709,"inst":"pad_warm_v0_fm_94","midi_source":""},{"t":100.143,"note":55,"dur":0.082,"vel":0.709,"inst":"pad_warm_v0_fm_94","midi_source":""},{"t":100.143,"note":74,"dur":0.245,"vel":0.709,"inst":"cello_v0_additive_7","midi_source":""},{"t":100.225,"note":47,"dur":0.082,"vel":0.709,"inst":"pad_warm_v0_fm_94","midi_source":""},{"t":100.225,"note":55,"dur":0.082,"vel":0.709,"inst":"pad_warm_v0_fm_94","midi_source":""},{"t":100.225,"note":55,"dur":0.082,"vel":0.709,"inst":"pad_warm_v0_fm_94","midi_source":""},{"t":100.307,"note":47,"dur":0.082,"vel":0.709,"inst":"pad_warm_v0_fm_94","midi_source":""},{"t":100.307,"note":55,"dur":0.082,"vel":0.709,"inst":"pad_warm_v0_fm_94","midi_source":""},{"t":100.307,"note":55,"dur":0.082,"vel":0.709,"inst":"pad_warm_v0_fm_94","midi_source":""},{"t":100.389,"note":47,"dur":0.082,"vel":0.709,"inst":"pad_warm_v0_fm_94","midi_source":""},{"t":100.389,"note":55,"dur":0.082,"vel":0.709,"inst":"pad_warm_v0_fm_94","midi_source":""},{"t":100.389,"note":55,"dur":0.082,"vel":0.709,"inst":"pad_warm_v0_fm_94","midi_source":""},{"t":100.389,"note":74,"dur":0.041,"vel":0.709,"inst":"cello_v0_additive_7","midi_source":""},{"t":100.429,"note":76,"dur":0.041,"vel":0.709,"inst":"cello_v0_additive_7","midi_source":""},{"t":100.47,"note":47,"dur":0.082,"vel":0.709,"inst":"pad_warm_v0_fm_94","midi_source":""},{"t":100.47,"note":55,"dur":0.082,"vel":0.709,"inst":"pad_warm_v0_fm_94","midi_source":""},{"t":100.47,"note":62,"dur":0.082,"vel":0.709,"inst":"cello_v0_additive_7","midi_source":""},{"t":100.47,"note":76,"dur":0.327,"vel":0.709,"inst":"cello_v0_additive_7","midi_source":""},{"t":100.552,"note":47,"dur":0.082,"vel":0.709,"inst":"pad_warm_v0_fm_94","midi_source":""},{"t":100.552,"note":55,"dur":0.082,"vel":0.709,"inst":"pad_warm_v0_fm_94","midi_source":""},{"t":100.552,"note":62,"dur":0.082,"vel":0.709,"inst":"cello_v0_additive_7","midi_source":""},{"t":100.634,"note":47,"dur":0.082,"vel":0.709,"inst":"pad_warm_v0_fm_94","midi_source":""},{"t":100.634,"note":55,"dur":0.082,"vel":0.709,"inst":"pad_warm_v0_fm_94","midi_source":""},{"t":100.634,"note":62,"dur":0.082,"vel":0.709,"inst":"cello_v0_additive_7","midi_source":""},{"t":100.715,"note":47,"dur":0.082,"vel":0.709,"inst":"pad_warm_v0_fm_94","midi_source":""},{"t":100.715,"note":55,"dur":0.082,"vel":0.709,"inst":"pad_warm_v0_fm_94","midi_source":""},{"t":100.715,"note":62,"dur":0.082,"vel":0.709,"inst":"cello_v0_additive_7","midi_source":""},{"t":100.797,"note":48,"dur":0.082,"vel":0.709,"inst":"cello_v0_additive_7","midi_source":""},{"t":100.797,"note":57,"dur":0.082,"vel":0.709,"inst":"pad_warm_v0_fm_94","midi_source":""},{"t":100.797,"note":60,"dur":0.082,"vel":0.709,"inst":"cello_v0_additive_7","midi_source":""},{"t":100.797,"note":76,"dur":0.041,"vel":0.709,"inst":"cello_v0_additive_7","midi_source":""},{"t":100.838,"note":72,"dur":0.041,"vel":0.709,"inst":"cello_v0_additive_7","midi_source":""},{"t":100.879,"note":48,"dur":0.082,"vel":0.709,"inst":"cello_v0_additive_7","midi_source":""},{"t":100.879,"note":57,"dur":0.082,"vel":0.709,"inst":"pad_warm_v0_fm_94","midi_source":""},{"t":100.879,"note":60,"dur":0.082,"vel":0.709,"inst":"cello_v0_additive_7","midi_source":""},{"t":100.879,"note":71,"dur":0.041,"vel":0.709,"inst":"pad_warm_v0_fm_94","midi_source":""},{"t":100.92,"note":69,"dur":0.041,"vel":0.709,"inst":"pad_warm_v0_fm_94","midi_source":""},{"t":100.961,"note":48,"dur":0.082,"vel":0.709,"inst":"cello_v0_additive_7","midi_source":""},{"t":100.961,"note":57,"dur":0.082,"vel":0.709,"inst":"pad_warm_v0_fm_94","midi_source":""},{"t":100.961,"note":60,"dur":0.082,"vel":0.709,"inst":"cello_v0_additive_7","midi_source":""},{"t":100.961,"note":67,"dur":0.041,"vel":0.709,"inst":"pad_warm_v0_fm_94","midi_source":""},{"t":101.002,"note":69,"dur":0.041,"vel":0.709,"inst":"pad_warm_v0_fm_94","midi_source":""},{"t":101.042,"note":48,"dur":0.082,"vel":0.709,"inst":"cello_v0_additive_7","midi_source":""},{"t":101.042,"note":57,"dur":0.082,"vel":0.709,"inst":"pad_warm_v0_fm_94","midi_source":""},{"t":101.042,"note":60,"dur":0.082,"vel":0.709,"inst":"cello_v0_additive_7","midi_source":""},{"t":101.042,"note":72,"dur":0.041,"vel":0.709,"inst":"cello_v0_additive_7","midi_source":""},{"t":101.083,"note":69,"dur":0.041,"vel":0.709,"inst":"pad_warm_v0_fm_94","midi_source":""},{"t":101.124,"note":50,"dur":0.082,"vel":0.709,"inst":"cello_v0_additive_7","midi_source":""},{"t":101.124,"note":55,"dur":0.082,"vel":0.709,"inst":"pad_warm_v0_fm_94","midi_source":""},{"t":101.124,"note":59,"dur":0.082,"vel":0.709,"inst":"pad_warm_v0_fm_94","midi_source":""},{"t":101.124,"note":67,"dur":0.041,"vel":0.709,"inst":"pad_warm_v0_fm_94","midi_source":""},{"t":101.165,"note":69,"dur":0.041,"vel":0.709,"inst":"pad_warm_v0_fm_94","midi_source":""},{"t":101.206,"note":50,"dur":0.082,"vel":0.709,"inst":"cello_v0_additive_7","midi_source":""},{"t":101.206,"note":55,"dur":0.082,"vel":0.709,"inst":"pad_warm_v0_fm_94","midi_source":""},{"t":101.206,"note":59,"dur":0.082,"vel":0.709,"inst":"pad_warm_v0_fm_94","midi_source":""},{"t":101.206,"note":71,"dur":0.041,"vel":0.709,"inst":"pad_warm_v0_fm_94","midi_source":""},{"t":101.247,"note":72,"dur":0.041,"vel":0.709,"inst":"cello_v0_additive_7","midi_source":""},{"t":101.288,"note":50,"dur":0.082,"vel":0.709,"inst":"cello_v0_additive_7","midi_source":""},{"t":101.288,"note":55,"dur":0.082,"vel":0.709,"inst":"pad_warm_v0_fm_94","midi_source":""},{"t":101.288,"note":59,"dur":0.082,"vel":0.709,"inst":"pad_warm_v0_fm_94","midi_source":""},{"t":101.288,"note":74,"dur":0.041,"vel":0.709,"inst":"cello_v0_additive_7","midi_source":""},{"t":101.328,"note":76,"dur":0.041,"vel":0.709,"inst":"cello_v0_additive_7","midi_source":""},{"t":101.369,"note":50,"dur":0.082,"vel":0.709,"inst":"cello_v0_additive_7","midi_source":""},{"t":101.369,"note":55,"dur":0.082,"vel":0.709,"inst":"pad_warm_v0_fm_94","midi_source":""},{"t":101.369,"note":59,"dur":0.082,"vel":0.709,"inst":"pad_warm_v0_fm_94","midi_source":""},{"t":101.369,"note":74,"dur":0.041,"vel":0.709,"inst":"cello_v0_additive_7","midi_source":""},{"t":101.41,"note":76,"dur":0.041,"vel":0.709,"inst":"cello_v0_additive_7","midi_source":""},{"t":101.451,"note":50,"dur":0.163,"vel":0.709,"inst":"cello_v0_additive_7","midi_source":""},{"t":101.451,"note":55,"dur":0.163,"vel":0.709,"inst":"pad_warm_v0_fm_94","midi_source":""},{"t":101.451,"note":59,"dur":0.163,"vel":0.709,"inst":"pad_warm_v0_fm_94","midi_source":""},{"t":101.451,"note":74,"dur":0.163,"vel":0.709,"inst":"cello_v0_additive_7","midi_source":""},{"t":101.778,"note":50,"dur":0.163,"vel":0.709,"inst":"cello_v0_additive_7","midi_source":""},{"t":101.778,"note":57,"dur":0.163,"vel":0.709,"inst":"pad_warm_v0_fm_94","midi_source":""},{"t":101.778,"note":60,"dur":0.163,"vel":0.709,"inst":"cello_v0_additive_7","midi_source":""},{"t":101.778,"note":66,"dur":0.163,"vel":0.709,"inst":"cello_v0_additive_7","midi_source":""},{"t":102.105,"note":59,"dur":0.245,"vel":0.709,"inst":"pad_warm_v0_fm_94","midi_source":""},{"t":102.105,"note":62,"dur":0.082,"vel":0.709,"inst":"cello_v0_additive_7","midi_source":""},{"t":102.105,"note":67,"dur":0.245,"vel":0.709,"inst":"pad_warm_v0_fm_94","midi_source":""},{"t":102.187,"note":62,"dur":0.082,"vel":0.709,"inst":"cello_v0_additive_7","midi_source":""},{"t":102.268,"note":62,"dur":0.082,"vel":0.709,"inst":"cello_v0_additive_7","midi_source":""},{"t":102.35,"note":57,"dur":0.041,"vel":0.709,"inst":"pad_warm_v0_fm_94","midi_source":""},{"t":102.35,"note":62,"dur":0.082,"vel":0.709,"inst":"cello_v0_additive_7","midi_source":""},{"t":102.35,"note":66,"dur":0.041,"vel":0.709,"inst":"cello_v0_additive_7","midi_source":""},{"t":102.391,"note":59,"dur":0.041,"vel":0.709,"inst":"pad_warm_v0_fm_94","midi_source":""},{"t":102.391,"note":67,"dur":0.041,"vel":0.709,"inst":"pad_warm_v0_fm_94","midi_source":""},{"t":102.432,"note":60,"dur":0.163,"vel":0.709,"inst":"cello_v0_additive_7","midi_source":""},{"t":102.432,"note":62,"dur":0.082,"vel":0.709,"inst":"cello_v0_additive_7","midi_source":""},{"t":102.432,"note":69,"dur":0.163,"vel":0.709,"inst":"pad_warm_v0_fm_94","midi_source":""},{"t":102.514,"note":62,"dur":0.082,"vel":0.709,"inst":"cello_v0_additive_7","midi_source":""},{"t":102.595,"note":62,"dur":0.082,"vel":0.709,"inst":"cello_v0_additive_7","midi_source":""},{"t":102.677,"note":62,"dur":0.082,"vel":0.709,"inst":"cello_v0_additive_7","midi_source":""},{"t":102.759,"note":57,"dur":0.163,"vel":0.709,"inst":"pad_warm_v0_fm_94","midi_source":""},{"t":102.759,"note":62,"dur":0.082,"vel":0.709,"inst":"cello_v0_additive_7","midi_source":""},{"t":102.759,"note":66,"dur":0.163,"vel":0.709,"inst":"cello_v0_additive_7","midi_source":""},{"t":102.84,"note":62,"dur":0.082,"vel":0.709,"inst":"cello_v0_additive_7","midi_source":""},{"t":102.922,"note":62,"dur":0.082,"vel":0.709,"inst":"cello_v0_additive_7","midi_source":""},{"t":103.004,"note":62,"dur":0.082,"vel":0.709,"inst":"cello_v0_additive_7","midi_source":""},{"t":103.086,"note":55,"dur":0.245,"vel":0.709,"inst":"pad_warm_v0_fm_94","midi_source":""},{"t":103.086,"note":62,"dur":0.082,"vel":0.709,"inst":"cello_v0_additive_7","midi_source":""},{"t":103.086,"note":69,"dur":0.245,"vel":0.709,"inst":"pad_warm_v0_fm_94","midi_source":""},{"t":103.167,"note":62,"dur":0.082,"vel":0.709,"inst":"cello_v0_additive_7","midi_source":""},{"t":103.249,"note":62,"dur":0.082,"vel":0.709,"inst":"cello_v0_additive_7","midi_source":""},{"t":103.331,"note":54,"dur":0.041,"vel":0.709,"inst":"cello_v0_additive_7","midi_source":""},{"t":103.331,"note":62,"dur":0.082,"vel":0.709,"inst":"cello_v0_additive_7","midi_source":""},{"t":103.331,"note":69,"dur":0.041,"vel":0.709,"inst":"pad_warm_v0_fm_94","midi_source":""},{"t":103.372,"note":55,"dur":0.041,"vel":0.709,"inst":"pad_warm_v0_fm_94","midi_source":""},{"t":103.372,"note":69,"dur":0.041,"vel":0.709,"inst":"pad_warm_v0_fm_94","midi_source":""},{"t":103.413,"note":57,"dur":0.163,"vel":0.709,"inst":"pad_warm_v0_fm_94","midi_source":""},{"t":103.413,"note":62,"dur":0.082,"vel":0.709,"inst":"cello_v0_additive_7","midi_source":""},{"t":103.413,"note":72,"dur":0.163,"vel":0.709,"inst":"cello_v0_additive_7","midi_source":""},{"t":103.494,"note":62,"dur":0.082,"vel":0.709,"inst":"cello_v0_additive_7","midi_source":""},{"t":103.576,"note":62,"dur":0.082,"vel":0.709,"inst":"cello_v0_additive_7","midi_source":""},{"t":103.658,"note":62,"dur":0.082,"vel":0.709,"inst":"cello_v0_additive_7","midi_source":""},{"t":103.739,"note":54,"dur":0.163,"vel":0.709,"inst":"cello_v0_additive_7","midi_source":""},{"t":103.739,"note":62,"dur":0.082,"vel":0.709,"inst":"cello_v0_additive_7","midi_source":""},{"t":103.739,"note":69,"dur":0.163,"vel":0.709,"inst":"pad_warm_v0_fm_94","midi_source":""},{"t":103.821,"note":62,"dur":0.082,"vel":0.709,"inst":"cello_v0_additive_7","midi_source":""},{"t":103.903,"note":62,"dur":0.082,"vel":0.709,"inst":"cello_v0_additive_7","midi_source":""},{"t":103.985,"note":62,"dur":0.082,"vel":0.709,"inst":"cello_v0_additive_7","midi_source":""},{"t":104.066,"note":55,"dur":0.082,"vel":0.709,"inst":"pad_warm_v0_fm_94","midi_source":""},{"t":104.066,"note":57,"dur":0.082,"vel":0.709,"inst":"pad_warm_v0_fm_94","midi_source":""},{"t":104.066,"note":69,"dur":0.245,"vel":0.709,"inst":"pad_warm_v0_fm_94","midi_source":""},{"t":104.066,"note":74,"dur":0.245,"vel":0.709,"inst":"cello_v0_additive_7","midi_source":""},{"t":104.148,"note":55,"dur":0.082,"vel":0.709,"inst":"pad_warm_v0_fm_94","midi_source":""},{"t":104.148,"note":57,"dur":0.082,"vel":0.709,"inst":"pad_warm_v0_fm_94","midi_source":""},{"t":104.23,"note":55,"dur":0.082,"vel":0.709,"inst":"pad_warm_v0_fm_94","midi_source":""},{"t":104.23,"note":57,"dur":0.082,"vel":0.709,"inst":"pad_warm_v0_fm_94","midi_source":""},{"t":104.312,"note":55,"dur":0.082,"vel":0.709,"inst":"pad_warm_v0_fm_94","midi_source":""},{"t":104.312,"note":57,"dur":0.082,"vel":0.709,"inst":"pad_warm_v0_fm_94","midi_source":""},{"t":104.312,"note":69,"dur":0.041,"vel":0.709,"inst":"pad_warm_v0_fm_94","midi_source":""},{"t":104.312,"note":72,"dur":0.041,"vel":0.709,"inst":"cello_v0_additive_7","midi_source":""},{"t":104.352,"note":69,"dur":0.041,"vel":0.709,"inst":"pad_warm_v0_fm_94","midi_source":""},{"t":104.352,"note":74,"dur":0.041,"vel":0.709,"inst":"cello_v0_additive_7","midi_source":""},{"t":104.393,"note":48,"dur":0.082,"vel":0.709,"inst":"cello_v0_additive_7","midi_source":""},{"t":104.393,"note":55,"dur":0.082,"vel":0.709,"inst":"pad_warm_v0_fm_94","midi_source":""},{"t":104.393,"note":72,"dur":0.327,"vel":0.709,"inst":"cello_v0_additive_7","midi_source":""},{"t":104.393,"note":74,"dur":0.327,"vel":0.709,"inst":"cello_v0_additive_7","midi_source":""},{"t":104.475,"note":48,"dur":0.082,"vel":0.709,"inst":"cello_v0_additive_7","midi_source":""},{"t":104.475,"note":55,"dur":0.082,"vel":0.709,"inst":"pad_warm_v0_fm_94","midi_source":""},{"t":104.557,"note":48,"dur":0.082,"vel":0.709,"inst":"cello_v0_additive_7","midi_source":""},{"t":104.557,"note":55,"dur":0.082,"vel":0.709,"inst":"pad_warm_v0_fm_94","midi_source":""},{"t":104.638,"note":48,"dur":0.082,"vel":0.709,"inst":"cello_v0_additive_7","midi_source":""},{"t":104.638,"note":55,"dur":0.082,"vel":0.709,"inst":"pad_warm_v0_fm_94","midi_source":""},{"t":104.72,"note":52,"dur":0.082,"vel":0.709,"inst":"cello_v0_additive_7","midi_source":""},{"t":104.72,"note":57,"dur":0.082,"vel":0.709,"inst":"pad_warm_v0_fm_94","midi_source":""},{"t":104.72,"note":62,"dur":0.163,"vel":0.709,"inst":"cello_v0_additive_7","midi_source":""},{"t":104.72,"note":72,"dur":0.163,"vel":0.709,"inst":"cello_v0_additive_7","midi_source":""},{"t":104.802,"note":52,"dur":0.082,"vel":0.709,"inst":"cello_v0_additive_7","midi_source":""},{"t":104.802,"note":57,"dur":0.082,"vel":0.709,"inst":"pad_warm_v0_fm_94","midi_source":""},{"t":104.884,"note":52,"dur":0.082,"vel":0.709,"inst":"cello_v0_additive_7","midi_source":""},{"t":104.884,"note":57,"dur":0.082,"vel":0.709,"inst":"pad_warm_v0_fm_94","midi_source":""},{"t":104.884,"note":60,"dur":0.163,"vel":0.709,"inst":"cello_v0_additive_7","midi_source":""},{"t":104.884,"note":69,"dur":0.163,"vel":0.709,"inst":"pad_warm_v0_fm_94","midi_source":""},{"t":104.965,"note":52,"dur":0.082,"vel":0.709,"inst":"cello_v0_additive_7","midi_source":""},{"t":104.965,"note":57,"dur":0.082,"vel":0.709,"inst":"pad_warm_v0_fm_94","midi_source":""},{"t":105.047,"note":50,"dur":0.082,"vel":0.709,"inst":"cello_v0_additive_7","midi_source":""},{"t":105.047,"note":57,"dur":0.49,"vel":0.709,"inst":"pad_warm_v0_fm_94","midi_source":""},{"t":105.047,"note":57,"dur":0.082,"vel":0.709,"inst":"pad_warm_v0_fm_94","midi_source":""},{"t":105.047,"note":76,"dur":0.245,"vel":0.709,"inst":"cello_v0_additive_7","midi_source":""},{"t":105.129,"note":50,"dur":0.082,"vel":0.709,"inst":"cello_v0_additive_7","midi_source":""},{"t":105.129,"note":57,"dur":0.082,"vel":0.709,"inst":"pad_warm_v0_fm_94","midi_source":""},{"t":105.211,"note":50,"dur":0.082,"vel":0.709,"inst":"cello_v0_additive_7","midi_source":""},{"t":105.211,"note":57,"dur":0.082,"vel":0.709,"inst":"pad_warm_v0_fm_94","midi_source":""},{"t":105.292,"note":50,"dur":0.082,"vel":0.709,"inst":"cello_v0_additive_7","midi_source":""},{"t":105.292,"note":57,"dur":0.082,"vel":0.709,"inst":"pad_warm_v0_fm_94","midi_source":""},{"t":105.292,"note":74,"dur":0.041,"vel":0.709,"inst":"cello_v0_additive_7","midi_source":""},{"t":105.333,"note":76,"dur":0.041,"vel":0.709,"inst":"cello_v0_additive_7","midi_source":""},{"t":105.374,"note":50,"dur":0.082,"vel":0.709,"inst":"cello_v0_additive_7","midi_source":""},{"t":105.374,"note":55,"dur":0.082,"vel":0.709,"inst":"pad_warm_v0_fm_94","midi_source":""},{"t":105.374,"note":79,"dur":0.163,"vel":0.709,"inst":"pad_warm_v0_fm_94","midi_source":""},{"t":105.456,"note":50,"dur":0.082,"vel":0.709,"inst":"cello_v0_additive_7","midi_source":""},{"t":105.456,"note":55,"dur":0.082,"vel":0.709,"inst":"pad_warm_v0_fm_94","midi_source":""},{"t":105.537,"note":50,"dur":0.082,"vel":0.709,"inst":"cello_v0_additive_7","midi_source":""},{"t":105.537,"note":55,"dur":0.082,"vel":0.709,"inst":"pad_warm_v0_fm_94","midi_source":""},{"t":105.537,"note":67,"dur":0.163,"vel":0.709,"inst":"pad_warm_v0_fm_94","midi_source":""},{"t":105.537,"note":74,"dur":0.163,"vel":0.709,"inst":"cello_v0_additive_7","midi_source":""},{"t":105.619,"note":50,"dur":0.082,"vel":0.709,"inst":"cello_v0_additive_7","midi_source":""},{"t":105.619,"note":55,"dur":0.082,"vel":0.709,"inst":"pad_warm_v0_fm_94","midi_source":""},{"t":105.701,"note":52,"dur":0.082,"vel":0.709,"inst":"cello_v0_additive_7","midi_source":""},{"t":105.701,"note":57,"dur":0.082,"vel":0.709,"inst":"pad_warm_v0_fm_94","midi_source":""},{"t":105.701,"note":62,"dur":0.163,"vel":0.709,"inst":"cello_v0_additive_7","midi_source":""},{"t":105.701,"note":72,"dur":0.163,"vel":0.709,"inst":"cello_v0_additive_7","midi_source":""},{"t":105.783,"note":52,"dur":0.082,"vel":0.709,"inst":"cello_v0_additive_7","midi_source":""},{"t":105.783,"note":57,"dur":0.082,"vel":0.709,"inst":"pad_warm_v0_fm_94","midi_source":""},{"t":105.864,"note":52,"dur":0.082,"vel":0.709,"inst":"cello_v0_additive_7","midi_source":""},{"t":105.864,"note":60,"dur":0.163,"vel":0.709,"inst":"cello_v0_additive_7","midi_source":""},{"t":105.864,"note":60,"dur":0.082,"vel":0.709,"inst":"cello_v0_additive_7","midi_source":""},{"t":105.864,"note":69,"dur":0.163,"vel":0.709,"inst":"pad_warm_v0_fm_94","midi_source":""},{"t":105.946,"note":52,"dur":0.082,"vel":0.709,"inst":"cello_v0_additive_7","midi_source":""},{"t":105.946,"note":60,"dur":0.082,"vel":0.709,"inst":"cello_v0_additive_7","midi_source":""},{"t":106.028,"note":45,"dur":0.082,"vel":0.709,"inst":"pad_warm_v0_fm_94","midi_source":""},{"t":106.028,"note":57,"dur":0.327,"vel":0.709,"inst":"pad_warm_v0_fm_94","midi_source":""},{"t":106.028,"note":62,"dur":0.654,"vel":0.709,"inst":"cello_v0_additive_7","midi_source":""},{"t":106.028,"note":69,"dur":0.654,"vel":0.709,"inst":"pad_warm_v0_fm_94","midi_source":""},{"t":106.11,"note":48,"dur":0.082,"vel":0.709,"inst":"cello_v0_additive_7","midi_source":""},{"t":106.191,"note":45,"dur":0.082,"vel":0.709,"inst":"pad_warm_v0_fm_94","midi_source":""},{"t":106.273,"note":45,"dur":0.082,"vel":0.709,"inst":"pad_warm_v0_fm_94","midi_source":""},{"t":106.355,"note":45,"dur":0.082,"vel":0.709,"inst":"pad_warm_v0_fm_94","midi_source":""},{"t":106.355,"note":52,"dur":0.327,"vel":0.709,"inst":"cello_v0_additive_7","midi_source":""},{"t":106.436,"note":48,"dur":0.082,"vel":0.709,"inst":"cello_v0_additive_7","midi_source":""},{"t":106.518,"note":45,"dur":0.082,"vel":0.709,"inst":"pad_warm_v0_fm_94","midi_source":""},{"t":106.6,"note":45,"dur":0.082,"vel":0.709,"inst":"pad_warm_v0_fm_94","midi_source":""},{"t":106.682,"note":45,"dur":0.082,"vel":0.709,"inst":"pad_warm_v0_fm_94","midi_source":""},{"t":106.682,"note":52,"dur":0.327,"vel":0.709,"inst":"cello_v0_additive_7","midi_source":""},{"t":106.682,"note":62,"dur":0.327,"vel":0.709,"inst":"cello_v0_additive_7","midi_source":""},{"t":106.682,"note":67,"dur":0.327,"vel":0.709,"inst":"pad_warm_v0_fm_94","midi_source":""},{"t":106.763,"note":45,"dur":0.082,"vel":0.709,"inst":"pad_warm_v0_fm_94","midi_source":""},{"t":106.845,"note":45,"dur":0.082,"vel":0.709,"inst":"pad_warm_v0_fm_94","midi_source":""},{"t":106.927,"note":47,"dur":0.082,"vel":0.709,"inst":"pad_warm_v0_fm_94","midi_source":""},{"t":107.009,"note":48,"dur":0.082,"vel":0.709,"inst":"cello_v0_additive_7","midi_source":""},{"t":107.009,"note":50,"dur":0.654,"vel":0.709,"inst":"cello_v0_additive_7","midi_source":""},{"t":107.009,"note":62,"dur":0.654,"vel":0.709,"inst":"cello_v0_additive_7","midi_source":""},{"t":107.009,"note":67,"dur":0.654,"vel":0.709,"inst":"pad_warm_v0_fm_94","midi_source":""},{"t":107.09,"note":50,"dur":0.082,"vel":0.709,"inst":"cello_v0_additive_7","midi_source":""},{"t":107.172,"note":48,"dur":0.082,"vel":0.709,"inst":"cello_v0_additive_7","midi_source":""},{"t":107.254,"note":47,"dur":0.082,"vel":0.709,"inst":"pad_warm_v0_fm_94","midi_source":""},{"t":107.336,"note":48,"dur":0.082,"vel":0.709,"inst":"cello_v0_additive_7","midi_source":""},{"t":107.417,"note":50,"dur":0.082,"vel":0.709,"inst":"cello_v0_additive_7","midi_source":""},{"t":107.499,"note":48,"dur":0.082,"vel":0.709,"inst":"cello_v0_additive_7","midi_source":""},{"t":107.581,"note":47,"dur":0.082,"vel":0.709,"inst":"pad_warm_v0_fm_94","midi_source":""},{"t":107.662,"note":48,"dur":0.082,"vel":0.709,"inst":"cello_v0_additive_7","midi_source":""},{"t":107.662,"note":55,"dur":0.327,"vel":0.709,"inst":"pad_warm_v0_fm_94","midi_source":""},{"t":107.662,"note":64,"dur":0.327,"vel":0.709,"inst":"cello_v0_additive_7","midi_source":""},{"t":107.662,"note":69,"dur":0.327,"vel":0.709,"inst":"pad_warm_v0_fm_94","midi_source":""},{"t":107.744,"note":47,"dur":0.082,"vel":0.709,"inst":"pad_warm_v0_fm_94","midi_source":""},{"t":107.826,"note":48,"dur":0.082,"vel":0.709,"inst":"cello_v0_additive_7","midi_source":""},{"t":107.908,"note":48,"dur":0.082,"vel":0.709,"inst":"cello_v0_additive_7","midi_source":""},{"t":107.989,"note":50,"dur":0.082,"vel":0.709,"inst":"cello_v0_additive_7","midi_source":""},{"t":107.989,"note":54,"dur":0.327,"vel":0.709,"inst":"cello_v0_additive_7","midi_source":""},{"t":107.989,"note":66,"dur":0.327,"vel":0.709,"inst":"cello_v0_additive_7","midi_source":""},{"t":107.989,"note":69,"dur":0.327,"vel":0.709,"inst":"pad_warm_v0_fm_94","midi_source":""},{"t":108.071,"note":50,"dur":0.082,"vel":0.709,"inst":"cello_v0_additive_7","midi_source":""},{"t":108.153,"note":62,"dur":0.082,"vel":0.709,"inst":"cello_v0_additive_7","midi_source":""},{"t":108.235,"note":57,"dur":0.041,"vel":0.709,"inst":"pad_warm_v0_fm_94","midi_source":""},{"t":108.235,"note":62,"dur":0.082,"vel":0.709,"inst":"cello_v0_additive_7","midi_source":""},{"t":108.235,"note":66,"dur":0.041,"vel":0.709,"inst":"cello_v0_additive_7","midi_source":""},{"t":108.275,"note":59,"dur":0.041,"vel":0.709,"inst":"pad_warm_v0_fm_94","midi_source":""},{"t":108.275,"note":67,"dur":0.041,"vel":0.709,"inst":"pad_warm_v0_fm_94","midi_source":""},{"t":108.316,"note":60,"dur":0.163,"vel":0.709,"inst":"cello_v0_additive_7","midi_source":""},{"t":108.316,"note":62,"dur":0.082,"vel":0.709,"inst":"cello_v0_additive_7","midi_source":""},{"t":108.316,"note":69,"dur":0.163,"vel":0.709,"inst":"pad_warm_v0_fm_94","midi_source":""},{"t":108.398,"note":62,"dur":0.082,"vel":0.709,"inst":"cello_v0_additive_7","midi_source":""},{"t":108.48,"note":62,"dur":0.082,"vel":0.709,"inst":"cello_v0_additive_7","midi_source":""},{"t":108.561,"note":62,"dur":0.082,"vel":0.709,"inst":"cello_v0_additive_7","midi_source":""},{"t":108.643,"note":57,"dur":0.163,"vel":0.709,"inst":"pad_warm_v0_fm_94","midi_source":""},{"t":108.643,"note":62,"dur":0.082,"vel":0.709,"inst":"cello_v0_additive_7","midi_source":""},{"t":108.643,"note":66,"dur":0.163,"vel":0.709,"inst":"cello_v0_additive_7","midi_source":""},{"t":108.725,"note":62,"dur":0.082,"vel":0.709,"inst":"cello_v0_additive_7","midi_source":""},{"t":108.807,"note":62,"dur":0.082,"vel":0.709,"inst":"cello_v0_additive_7","midi_source":""},{"t":108.888,"note":62,"dur":0.082,"vel":0.709,"inst":"cello_v0_additive_7","midi_source":""},{"t":108.97,"note":55,"dur":0.245,"vel":0.709,"inst":"pad_warm_v0_fm_94","midi_source":""},{"t":108.97,"note":62,"dur":0.082,"vel":0.709,"inst":"cello_v0_additive_7","midi_source":""},{"t":108.97,"note":71,"dur":0.245,"vel":0.709,"inst":"pad_warm_v0_fm_94","midi_source":""},{"t":109.052,"note":62,"dur":0.082,"vel":0.709,"inst":"cello_v0_additive_7","midi_source":""},{"t":109.134,"note":62,"dur":0.082,"vel":0.709,"inst":"cello_v0_additive_7","midi_source":""},{"t":109.215,"note":54,"dur":0.041,"vel":0.709,"inst":"cello_v0_additive_7","midi_source":""},{"t":109.215,"note":62,"dur":0.082,"vel":0.709,"inst":"cello_v0_additive_7","midi_source":""},{"t":109.215,"note":69,"dur":0.041,"vel":0.709,"inst":"pad_warm_v0_fm_94","midi_source":""},{"t":109.256,"note":55,"dur":0.041,"vel":0.709,"inst":"pad_warm_v0_fm_94","midi_source":""},{"t":109.256,"note":71,"dur":0.041,"vel":0.709,"inst":"pad_warm_v0_fm_94","midi_source":""},{"t":109.297,"note":57,"dur":0.163,"vel":0.709,"inst":"pad_warm_v0_fm_94","midi_source":""},{"t":109.297,"note":62,"dur":0.082,"vel":0.709,"inst":"cello_v0_additive_7","midi_source":""},{"t":109.297,"note":72,"dur":0.163,"vel":0.709,"inst":"cello_v0_additive_7","midi_source":""},{"t":109.379,"note":62,"dur":0.082,"vel":0.709,"inst":"cello_v0_additive_7","midi_source":""},{"t":109.46,"note":62,"dur":0.082,"vel":0.709,"inst":"cello_v0_additive_7","midi_source":""},{"t":109.542,"note":62,"dur":0.082,"vel":0.709,"inst":"cello_v0_additive_7","midi_source":""},{"t":109.624,"note":54,"dur":0.163,"vel":0.709,"inst":"cello_v0_additive_7","midi_source":""},{"t":109.624,"note":62,"dur":0.082,"vel":0.709,"inst":"cello_v0_additive_7","midi_source":""},{"t":109.624,"note":69,"dur":0.163,"vel":0.709,"inst":"pad_warm_v0_fm_94","midi_source":""},{"t":109.706,"note":62,"dur":0.082,"vel":0.709,"inst":"cello_v0_additive_7","midi_source":""},{"t":109.787,"note":62,"dur":0.082,"vel":0.709,"inst":"cello_v0_additive_7","midi_source":""},{"t":109.869,"note":62,"dur":0.082,"vel":0.709,"inst":"cello_v0_additive_7","midi_source":""},{"t":109.951,"note":47,"dur":0.082,"vel":0.709,"inst":"pad_warm_v0_fm_94","midi_source":""},{"t":109.951,"note":55,"dur":0.082,"vel":0.709,"inst":"pad_warm_v0_fm_94","midi_source":""},{"t":109.951,"note":55,"dur":0.082,"vel":0.709,"inst":"pad_warm_v0_fm_94","midi_source":""},{"t":109.951,"note":74,"dur":0.245,"vel":0.709,"inst":"cello_v0_additive_7","midi_source":""},{"t":110.033,"note":47,"dur":0.082,"vel":0.709,"inst":"pad_warm_v0_fm_94","midi_source":""},{"t":110.033,"note":55,"dur":0.082,"vel":0.709,"inst":"pad_warm_v0_fm_94","midi_source":""},{"t":110.033,"note":55,"dur":0.082,"vel":0.709,"inst":"pad_warm_v0_fm_94","midi_source":""},{"t":110.114,"note":47,"dur":0.082,"vel":0.709,"inst":"pad_warm_v0_fm_94","midi_source":""},{"t":110.114,"note":55,"dur":0.082,"vel":0.709,"inst":"pad_warm_v0_fm_94","midi_source":""},{"t":110.114,"note":55,"dur":0.082,"vel":0.709,"inst":"pad_warm_v0_fm_94","midi_source":""},{"t":110.196,"note":47,"dur":0.082,"vel":0.709,"inst":"pad_warm_v0_fm_94","midi_source":""},{"t":110.196,"note":55,"dur":0.082,"vel":0.709,"inst":"pad_warm_v0_fm_94","midi_source":""},{"t":110.196,"note":55,"dur":0.082,"vel":0.709,"inst":"pad_warm_v0_fm_94","midi_source":""},{"t":110.196,"note":74,"dur":0.041,"vel":0.709,"inst":"cello_v0_additive_7","midi_source":""},{"t":110.237,"note":76,"dur":0.041,"vel":0.709,"inst":"cello_v0_additive_7","midi_source":""},{"t":110.278,"note":47,"dur":0.082,"vel":0.709,"inst":"pad_warm_v0_fm_94","midi_source":""},{"t":110.278,"note":55,"dur":0.082,"vel":0.709,"inst":"pad_warm_v0_fm_94","midi_source":""},{"t":110.278,"note":62,"dur":0.082,"vel":0.709,"inst":"cello_v0_additive_7","midi_source":""},{"t":110.278,"note":76,"dur":0.327,"vel":0.709,"inst":"cello_v0_additive_7","midi_source":""},{"t":110.359,"note":47,"dur":0.082,"vel":0.709,"inst":"pad_warm_v0_fm_94","midi_source":""},{"t":110.359,"note":55,"dur":0.082,"vel":0.709,"inst":"pad_warm_v0_fm_94","midi_source":""},{"t":110.359,"note":62,"dur":0.082,"vel":0.709,"inst":"cello_v0_additive_7","midi_source":""},{"t":110.441,"note":47,"dur":0.082,"vel":0.709,"inst":"pad_warm_v0_fm_94","midi_source":""},{"t":110.441,"note":55,"dur":0.082,"vel":0.709,"inst":"pad_warm_v0_fm_94","midi_source":""},{"t":110.441,"note":62,"dur":0.082,"vel":0.709,"inst":"cello_v0_additive_7","midi_source":""},{"t":110.523,"note":47,"dur":0.082,"vel":0.709,"inst":"pad_warm_v0_fm_94","midi_source":""},{"t":110.523,"note":55,"dur":0.082,"vel":0.709,"inst":"pad_warm_v0_fm_94","midi_source":""},{"t":110.523,"note":62,"dur":0.082,"vel":0.709,"inst":"cello_v0_additive_7","midi_source":""},{"t":110.605,"note":48,"dur":0.082,"vel":0.709,"inst":"cello_v0_additive_7","midi_source":""},{"t":110.605,"note":57,"dur":0.082,"vel":0.709,"inst":"pad_warm_v0_fm_94","midi_source":""},{"t":110.605,"note":60,"dur":0.082,"vel":0.709,"inst":"cello_v0_additive_7","midi_source":""},{"t":110.605,"note":76,"dur":0.041,"vel":0.709,"inst":"cello_v0_additive_7","midi_source":""},{"t":110.646,"note":72,"dur":0.041,"vel":0.709,"inst":"cello_v0_additive_7","midi_source":""},{"t":110.686,"note":48,"dur":0.082,"vel":0.709,"inst":"cello_v0_additive_7","midi_source":""},{"t":110.686,"note":57,"dur":0.082,"vel":0.709,"inst":"pad_warm_v0_fm_94","midi_source":""},{"t":110.686,"note":60,"dur":0.082,"vel":0.709,"inst":"cello_v0_additive_7","midi_source":""},{"t":110.686,"note":71,"dur":0.041,"vel":0.709,"inst":"pad_warm_v0_fm_94","midi_source":""},{"t":110.727,"note":69,"dur":0.041,"vel":0.709,"inst":"pad_warm_v0_fm_94","midi_source":""},{"t":110.768,"note":48,"dur":0.082,"vel":0.709,"inst":"cello_v0_additive_7","midi_source":""},{"t":110.768,"note":57,"dur":0.082,"vel":0.709,"inst":"pad_warm_v0_fm_94","midi_source":""},{"t":110.768,"note":60,"dur":0.082,"vel":0.709,"inst":"cello_v0_additive_7","midi_source":""},{"t":110.768,"note":67,"dur":0.041,"vel":0.709,"inst":"pad_warm_v0_fm_94","midi_source":""},{"t":110.809,"note":69,"dur":0.041,"vel":0.709,"inst":"pad_warm_v0_fm_94","midi_source":""},{"t":110.85,"note":48,"dur":0.082,"vel":0.709,"inst":"cello_v0_additive_7","midi_source":""},{"t":110.85,"note":57,"dur":0.082,"vel":0.709,"inst":"pad_warm_v0_fm_94","midi_source":""},{"t":110.85,"note":60,"dur":0.082,"vel":0.709,"inst":"cello_v0_additive_7","midi_source":""},{"t":110.85,"note":72,"dur":0.041,"vel":0.709,"inst":"cello_v0_additive_7","midi_source":""},{"t":110.891,"note":69,"dur":0.041,"vel":0.709,"inst":"pad_warm_v0_fm_94","midi_source":""},{"t":110.932,"note":50,"dur":0.082,"vel":0.709,"inst":"cello_v0_additive_7","midi_source":""},{"t":110.932,"note":55,"dur":0.082,"vel":0.709,"inst":"pad_warm_v0_fm_94","midi_source":""},{"t":110.932,"note":59,"dur":0.082,"vel":0.709,"inst":"pad_warm_v0_fm_94","midi_source":""},{"t":110.932,"note":67,"dur":0.041,"vel":0.709,"inst":"pad_warm_v0_fm_94","midi_source":""},{"t":110.972,"note":69,"dur":0.041,"vel":0.709,"inst":"pad_warm_v0_fm_94","midi_source":""},{"t":111.013,"note":50,"dur":0.082,"vel":0.709,"inst":"cello_v0_additive_7","midi_source":""},{"t":111.013,"note":55,"dur":0.082,"vel":0.709,"inst":"pad_warm_v0_fm_94","midi_source":""},{"t":111.013,"note":59,"dur":0.082,"vel":0.709,"inst":"pad_warm_v0_fm_94","midi_source":""},{"t":111.013,"note":71,"dur":0.041,"vel":0.709,"inst":"pad_warm_v0_fm_94","midi_source":""},{"t":111.054,"note":72,"dur":0.041,"vel":0.709,"inst":"cello_v0_additive_7","midi_source":""},{"t":111.095,"note":50,"dur":0.082,"vel":0.709,"inst":"cello_v0_additive_7","midi_source":""},{"t":111.095,"note":55,"dur":0.082,"vel":0.709,"inst":"pad_warm_v0_fm_94","midi_source":""},{"t":111.095,"note":59,"dur":0.082,"vel":0.709,"inst":"pad_warm_v0_fm_94","midi_source":""},{"t":111.095,"note":74,"dur":0.041,"vel":0.709,"inst":"cello_v0_additive_7","midi_source":""},{"t":111.136,"note":76,"dur":0.041,"vel":0.709,"inst":"cello_v0_additive_7","midi_source":""},{"t":111.177,"note":50,"dur":0.082,"vel":0.709,"inst":"cello_v0_additive_7","midi_source":""},{"t":111.177,"note":55,"dur":0.082,"vel":0.709,"inst":"pad_warm_v0_fm_94","midi_source":""},{"t":111.177,"note":59,"dur":0.082,"vel":0.709,"inst":"pad_warm_v0_fm_94","midi_source":""},{"t":111.177,"note":74,"dur":0.041,"vel":0.709,"inst":"cello_v0_additive_7","midi_source":""},{"t":111.218,"note":76,"dur":0.041,"vel":0.709,"inst":"cello_v0_additive_7","midi_source":""},{"t":111.258,"note":50,"dur":0.163,"vel":0.709,"inst":"cello_v0_additive_7","midi_source":""},{"t":111.258,"note":55,"dur":0.163,"vel":0.709,"inst":"pad_warm_v0_fm_94","midi_source":""},{"t":111.258,"note":59,"dur":0.163,"vel":0.709,"inst":"pad_warm_v0_fm_94","midi_source":""},{"t":111.258,"note":74,"dur":0.163,"vel":0.709,"inst":"cello_v0_additive_7","midi_source":""},{"t":111.585,"note":50,"dur":0.163,"vel":0.709,"inst":"cello_v0_additive_7","midi_source":""},{"t":111.585,"note":57,"dur":0.163,"vel":0.709,"inst":"pad_warm_v0_fm_94","midi_source":""},{"t":111.585,"note":60,"dur":0.163,"vel":0.709,"inst":"cello_v0_additive_7","midi_source":""},{"t":111.585,"note":66,"dur":0.163,"vel":0.709,"inst":"cello_v0_additive_7","midi_source":""},{"t":111.912,"note":59,"dur":0.245,"vel":0.709,"inst":"pad_warm_v0_fm_94","midi_source":""},{"t":111.912,"note":62,"dur":0.082,"vel":0.709,"inst":"cello_v0_additive_7","midi_source":""},{"t":111.912,"note":67,"dur":0.245,"vel":0.709,"inst":"pad_warm_v0_fm_94","midi_source":""},{"t":111.994,"note":62,"dur":0.082,"vel":0.709,"inst":"cello_v0_additive_7","midi_source":""},{"t":112.076,"note":62,"dur":0.082,"vel":0.709,"inst":"cello_v0_additive_7","midi_source":""},{"t":112.157,"note":57,"dur":0.041,"vel":0.709,"inst":"pad_warm_v0_fm_94","midi_source":""},{"t":112.157,"note":62,"dur":0.082,"vel":0.709,"inst":"cello_v0_additive_7","midi_source":""},{"t":112.157,"note":66,"dur":0.041,"vel":0.709,"inst":"cello_v0_additive_7","midi_source":""},{"t":112.198,"note":59,"dur":0.041,"vel":0.709,"inst":"pad_warm_v0_fm_94","midi_source":""},{"t":112.198,"note":67,"dur":0.041,"vel":0.709,"inst":"pad_warm_v0_fm_94","midi_source":""},{"t":112.239,"note":60,"dur":0.163,"vel":0.709,"inst":"cello_v0_additive_7","midi_source":""},{"t":112.239,"note":62,"dur":0.082,"vel":0.709,"inst":"cello_v0_additive_7","midi_source":""},{"t":112.239,"note":69,"dur":0.163,"vel":0.709,"inst":"pad_warm_v0_fm_94","midi_source":""},{"t":112.321,"note":62,"dur":0.082,"vel":0.709,"inst":"cello_v0_additive_7","midi_source":""},{"t":112.403,"note":62,"dur":0.082,"vel":0.709,"inst":"cello_v0_additive_7","midi_source":""},{"t":112.484,"note":62,"dur":0.082,"vel":0.709,"inst":"cello_v0_additive_7","midi_source":""},{"t":112.566,"note":57,"dur":0.163,"vel":0.709,"inst":"pad_warm_v0_fm_94","midi_source":""},{"t":112.566,"note":62,"dur":0.082,"vel":0.709,"inst":"cello_v0_additive_7","midi_source":""},{"t":112.566,"note":66,"dur":0.163,"vel":0.709,"inst":"cello_v0_additive_7","midi_source":""},{"t":112.648,"note":62,"dur":0.082,"vel":0.709,"inst":"cello_v0_additive_7","midi_source":""},{"t":112.73,"note":62,"dur":0.082,"vel":0.709,"inst":"cello_v0_additive_7","midi_source":""},{"t":112.811,"note":62,"dur":0.082,"vel":0.709,"inst":"cello_v0_additive_7","midi_source":""},{"t":112.893,"note":55,"dur":0.245,"vel":0.709,"inst":"pad_warm_v0_fm_94","midi_source":""},{"t":112.893,"note":62,"dur":0.082,"vel":0.709,"inst":"cello_v0_additive_7","midi_source":""},{"t":112.893,"note":69,"dur":0.245,"vel":0.709,"inst":"pad_warm_v0_fm_94","midi_source":""},{"t":112.975,"note":62,"dur":0.082,"vel":0.709,"inst":"cello_v0_additive_7","midi_source":""},{"t":113.057,"note":62,"dur":0.082,"vel":0.709,"inst":"cello_v0_additive_7","midi_source":""},{"t":113.138,"note":54,"dur":0.041,"vel":0.709,"inst":"cello_v0_additive_7","midi_source":""},{"t":113.138,"note":62,"dur":0.082,"vel":0.709,"inst":"cello_v0_additive_7","midi_source":""},{"t":113.138,"note":69,"dur":0.041,"vel":0.709,"inst":"pad_warm_v0_fm_94","midi_source":""},{"t":113.179,"note":55,"dur":0.041,"vel":0.709,"inst":"pad_warm_v0_fm_94","midi_source":""},{"t":113.179,"note":69,"dur":0.041,"vel":0.709,"inst":"pad_warm_v0_fm_94","midi_source":""},{"t":113.22,"note":57,"dur":0.163,"vel":0.709,"inst":"pad_warm_v0_fm_94","midi_source":""},{"t":113.22,"note":62,"dur":0.082,"vel":0.709,"inst":"cello_v0_additive_7","midi_source":""},{"t":113.22,"note":72,"dur":0.163,"vel":0.709,"inst":"cello_v0_additive_7","midi_source":""},{"t":113.302,"note":62,"dur":0.082,"vel":0.709,"inst":"cello_v0_additive_7","midi_source":""},{"t":113.383,"note":62,"dur":0.082,"vel":0.709,"inst":"cello_v0_additive_7","midi_source":""},{"t":113.465,"note":62,"dur":0.082,"vel":0.709,"inst":"cello_v0_additive_7","midi_source":""},{"t":113.547,"note":54,"dur":0.163,"vel":0.709,"inst":"cello_v0_additive_7","midi_source":""},{"t":113.547,"note":62,"dur":0.082,"vel":0.709,"inst":"cello_v0_additive_7","midi_source":""},{"t":113.547,"note":69,"dur":0.163,"vel":0.709,"inst":"pad_warm_v0_fm_94","midi_source":""},{"t":113.629,"note":62,"dur":0.082,"vel":0.709,"inst":"cello_v0_additive_7","midi_source":""},{"t":113.71,"note":62,"dur":0.082,"vel":0.709,"inst":"cello_v0_additive_7","midi_source":""},{"t":113.792,"note":62,"dur":0.082,"vel":0.709,"inst":"cello_v0_additive_7","midi_source":""},{"t":113.874,"note":55,"dur":0.082,"vel":0.709,"inst":"pad_warm_v0_fm_94","midi_source":""},{"t":113.874,"note":57,"dur":0.082,"vel":0.709,"inst":"pad_warm_v0_fm_94","midi_source":""},{"t":113.874,"note":69,"dur":0.245,"vel":0.709,"inst":"pad_warm_v0_fm_94","midi_source":""},{"t":113.874,"note":74,"dur":0.245,"vel":0.709,"inst":"cello_v0_additive_7","midi_source":""},{"t":113.956,"note":55,"dur":0.082,"vel":0.709,"inst":"pad_warm_v0_fm_94","midi_source":""},{"t":113.956,"note":57,"dur":0.082,"vel":0.709,"inst":"pad_warm_v0_fm_94","midi_source":""},{"t":114.037,"note":55,"dur":0.082,"vel":0.709,"inst":"pad_warm_v0_fm_94","midi_source":""},{"t":114.037,"note":57,"dur":0.082,"vel":0.709,"inst":"pad_warm_v0_fm_94","midi_source":""},{"t":114.119,"note":55,"dur":0.082,"vel":0.709,"inst":"pad_warm_v0_fm_94","midi_source":""},{"t":114.119,"note":57,"dur":0.082,"vel":0.709,"inst":"pad_warm_v0_fm_94","midi_source":""},{"t":114.119,"note":69,"dur":0.041,"vel":0.709,"inst":"pad_warm_v0_fm_94","midi_source":""},{"t":114.119,"note":72,"dur":0.041,"vel":0.709,"inst":"cello_v0_additive_7","midi_source":""},{"t":114.16,"note":69,"dur":0.041,"vel":0.709,"inst":"pad_warm_v0_fm_94","midi_source":""},{"t":114.16,"note":74,"dur":0.041,"vel":0.709,"inst":"cello_v0_additive_7","midi_source":""},{"t":114.201,"note":48,"dur":0.082,"vel":0.709,"inst":"cello_v0_additive_7","midi_source":""},{"t":114.201,"note":55,"dur":0.082,"vel":0.709,"inst":"pad_warm_v0_fm_94","midi_source":""},{"t":114.201,"note":72,"dur":0.327,"vel":0.709,"inst":"cello_v0_additive_7","midi_source":""},{"t":114.201,"note":74,"dur":0.327,"vel":0.709,"inst":"cello_v0_additive_7","midi_source":""},{"t":114.282,"note":48,"dur":0.082,"vel":0.709,"inst":"cello_v0_additive_7","midi_source":""},{"t":114.282,"note":55,"dur":0.082,"vel":0.709,"inst":"pad_warm_v0_fm_94","midi_source":""},{"t":114.364,"note":48,"dur":0.082,"vel":0.709,"inst":"cello_v0_additive_7","midi_source":""},{"t":114.364,"note":55,"dur":0.082,"vel":0.709,"inst":"pad_warm_v0_fm_94","midi_source":""},{"t":114.446,"note":48,"dur":0.082,"vel":0.709,"inst":"cello_v0_additive_7","midi_source":""},{"t":114.446,"note":55,"dur":0.082,"vel":0.709,"inst":"pad_warm_v0_fm_94","midi_source":""},{"t":114.528,"note":52,"dur":0.082,"vel":0.709,"inst":"cello_v0_additive_7","midi_source":""},{"t":114.528,"note":57,"dur":0.082,"vel":0.709,"inst":"pad_warm_v0_fm_94","midi_source":""},{"t":114.528,"note":62,"dur":0.163,"vel":0.709,"inst":"cello_v0_additive_7","midi_source":""},{"t":114.528,"note":72,"dur":0.163,"vel":0.709,"inst":"cello_v0_additive_7","midi_source":""},{"t":114.609,"note":52,"dur":0.082,"vel":0.709,"inst":"cello_v0_additive_7","midi_source":""},{"t":114.609,"note":57,"dur":0.082,"vel":0.709,"inst":"pad_warm_v0_fm_94","midi_source":""},{"t":114.691,"note":52,"dur":0.082,"vel":0.709,"inst":"cello_v0_additive_7","midi_source":""},{"t":114.691,"note":57,"dur":0.082,"vel":0.709,"inst":"pad_warm_v0_fm_94","midi_source":""},{"t":114.691,"note":60,"dur":0.163,"vel":0.709,"inst":"cello_v0_additive_7","midi_source":""},{"t":114.691,"note":69,"dur":0.163,"vel":0.709,"inst":"pad_warm_v0_fm_94","midi_source":""},{"t":114.773,"note":52,"dur":0.082,"vel":0.709,"inst":"cello_v0_additive_7","midi_source":""},{"t":114.773,"note":57,"dur":0.082,"vel":0.709,"inst":"pad_warm_v0_fm_94","midi_source":""},{"t":114.855,"note":50,"dur":0.082,"vel":0.709,"inst":"cello_v0_additive_7","midi_source":""},{"t":114.855,"note":57,"dur":0.49,"vel":0.709,"inst":"pad_warm_v0_fm_94","midi_source":""},{"t":114.855,"note":57,"dur":0.082,"vel":0.709,"inst":"pad_warm_v0_fm_94","midi_source":""},{"t":114.855,"note":76,"dur":0.245,"vel":0.709,"inst":"cello_v0_additive_7","midi_source":""},{"t":114.936,"note":50,"dur":0.082,"vel":0.709,"inst":"cello_v0_additive_7","midi_source":""},{"t":114.936,"note":57,"dur":0.082,"vel":0.709,"inst":"pad_warm_v0_fm_94","midi_source":""},{"t":115.018,"note":50,"dur":0.082,"vel":0.709,"inst":"cello_v0_additive_7","midi_source":""},{"t":115.018,"note":57,"dur":0.082,"vel":0.709,"inst":"pad_warm_v0_fm_94","midi_source":""},{"t":115.1,"note":50,"dur":0.082,"vel":0.709,"inst":"cello_v0_additive_7","midi_source":""},{"t":115.1,"note":57,"dur":0.082,"vel":0.709,"inst":"pad_warm_v0_fm_94","midi_source":""},{"t":115.1,"note":74,"dur":0.041,"vel":0.709,"inst":"cello_v0_additive_7","midi_source":""},{"t":115.141,"note":76,"dur":0.041,"vel":0.709,"inst":"cello_v0_additive_7","midi_source":""},{"t":115.181,"note":50,"dur":0.082,"vel":0.709,"inst":"cello_v0_additive_7","midi_source":""},{"t":115.181,"note":55,"dur":0.082,"vel":0.709,"inst":"pad_warm_v0_fm_94","midi_source":""},{"t":115.181,"note":79,"dur":0.163,"vel":0.709,"inst":"pad_warm_v0_fm_94","midi_source":""},{"t":115.263,"note":50,"dur":0.082,"vel":0.709,"inst":"cello_v0_additive_7","midi_source":""},{"t":115.263,"note":55,"dur":0.082,"vel":0.709,"inst":"pad_warm_v0_fm_94","midi_source":""},{"t":115.345,"note":50,"dur":0.082,"vel":0.709,"inst":"cello_v0_additive_7","midi_source":""},{"t":115.345,"note":55,"dur":0.082,"vel":0.709,"inst":"pad_warm_v0_fm_94","midi_source":""},{"t":115.345,"note":67,"dur":0.163,"vel":0.709,"inst":"pad_warm_v0_fm_94","midi_source":""},{"t":115.345,"note":74,"dur":0.163,"vel":0.709,"inst":"cello_v0_additive_7","midi_source":""},{"t":115.427,"note":50,"dur":0.082,"vel":0.709,"inst":"cello_v0_additive_7","midi_source":""},{"t":115.427,"note":55,"dur":0.082,"vel":0.709,"inst":"pad_warm_v0_fm_94","midi_source":""},{"t":115.508,"note":52,"dur":0.082,"vel":0.709,"inst":"cello_v0_additive_7","midi_source":""},{"t":115.508,"note":57,"dur":0.082,"vel":0.709,"inst":"pad_warm_v0_fm_94","midi_source":""},{"t":115.508,"note":62,"dur":0.163,"vel":0.709,"inst":"cello_v0_additive_7","midi_source":""},{"t":115.508,"note":72,"dur":0.163,"vel":0.709,"inst":"cello_v0_additive_7","midi_source":""},{"t":115.59,"note":52,"dur":0.082,"vel":0.709,"inst":"cello_v0_additive_7","midi_source":""},{"t":115.59,"note":57,"dur":0.082,"vel":0.709,"inst":"pad_warm_v0_fm_94","midi_source":""},{"t":115.672,"note":52,"dur":0.082,"vel":0.709,"inst":"cello_v0_additive_7","midi_source":""},{"t":115.672,"note":60,"dur":0.163,"vel":0.709,"inst":"cello_v0_additive_7","midi_source":""},{"t":115.672,"note":60,"dur":0.082,"vel":0.709,"inst":"cello_v0_additive_7","midi_source":""},{"t":115.672,"note":69,"dur":0.163,"vel":0.709,"inst":"pad_warm_v0_fm_94","midi_source":""},{"t":115.754,"note":52,"dur":0.082,"vel":0.709,"inst":"cello_v0_additive_7","midi_source":""},{"t":115.754,"note":60,"dur":0.082,"vel":0.709,"inst":"cello_v0_additive_7","midi_source":""},{"t":115.835,"note":45,"dur":0.082,"vel":0.709,"inst":"pad_warm_v0_fm_94","midi_source":""},{"t":115.835,"note":57,"dur":0.327,"vel":0.709,"inst":"pad_warm_v0_fm_94","midi_source":""},{"t":115.835,"note":62,"dur":0.654,"vel":0.709,"inst":"cello_v0_additive_7","midi_source":""},{"t":115.835,"note":69,"dur":0.654,"vel":0.709,"inst":"pad_warm_v0_fm_94","midi_source":""},{"t":115.917,"note":48,"dur":0.082,"vel":0.709,"inst":"cello_v0_additive_7","midi_source":""},{"t":115.999,"note":45,"dur":0.082,"vel":0.709,"inst":"pad_warm_v0_fm_94","midi_source":""},{"t":116.08,"note":45,"dur":0.082,"vel":0.709,"inst":"pad_warm_v0_fm_94","midi_source":""},{"t":116.162,"note":45,"dur":0.082,"vel":0.709,"inst":"pad_warm_v0_fm_94","midi_source":""},{"t":116.162,"note":52,"dur":0.327,"vel":0.709,"inst":"cello_v0_additive_7","midi_source":""},{"t":116.244,"note":48,"dur":0.082,"vel":0.709,"inst":"cello_v0_additive_7","midi_source":""},{"t":116.326,"note":45,"dur":0.082,"vel":0.709,"inst":"pad_warm_v0_fm_94","midi_source":""},{"t":116.407,"note":45,"dur":0.082,"vel":0.709,"inst":"pad_warm_v0_fm_94","midi_source":""},{"t":116.489,"note":45,"dur":0.082,"vel":0.709,"inst":"pad_warm_v0_fm_94","midi_source":""},{"t":116.489,"note":52,"dur":0.327,"vel":0.709,"inst":"cello_v0_additive_7","midi_source":""},{"t":116.489,"note":62,"dur":0.327,"vel":0.709,"inst":"cello_v0_additive_7","midi_source":""},{"t":116.489,"note":67,"dur":0.327,"vel":0.709,"inst":"pad_warm_v0_fm_94","midi_source":""},{"t":116.571,"note":45,"dur":0.082,"vel":0.709,"inst":"pad_warm_v0_fm_94","midi_source":""},{"t":116.653,"note":45,"dur":0.082,"vel":0.709,"inst":"pad_warm_v0_fm_94","midi_source":""},{"t":116.734,"note":47,"dur":0.082,"vel":0.709,"inst":"pad_warm_v0_fm_94","midi_source":""},{"t":116.816,"note":48,"dur":0.082,"vel":0.709,"inst":"cello_v0_additive_7","midi_source":""},{"t":116.816,"note":50,"dur":0.654,"vel":0.709,"inst":"cello_v0_additive_7","midi_source":""},{"t":116.816,"note":62,"dur":0.654,"vel":0.709,"inst":"cello_v0_additive_7","midi_source":""},{"t":116.816,"note":67,"dur":0.654,"vel":0.709,"inst":"pad_warm_v0_fm_94","midi_source":""},{"t":116.898,"note":50,"dur":0.082,"vel":0.709,"inst":"cello_v0_additive_7","midi_source":""},{"t":116.979,"note":48,"dur":0.082,"vel":0.709,"inst":"cello_v0_additive_7","midi_source":""},{"t":117.061,"note":47,"dur":0.082,"vel":0.709,"inst":"pad_warm_v0_fm_94","midi_source":""},{"t":117.143,"note":48,"dur":0.082,"vel":0.709,"inst":"cello_v0_additive_7","midi_source":""},{"t":117.225,"note":50,"dur":0.082,"vel":0.709,"inst":"cello_v0_additive_7","midi_source":""},{"t":117.306,"note":48,"dur":0.082,"vel":0.709,"inst":"cello_v0_additive_7","midi_source":""},{"t":117.388,"note":47,"dur":0.082,"vel":0.709,"inst":"pad_warm_v0_fm_94","midi_source":""},{"t":117.47,"note":48,"dur":0.082,"vel":0.709,"inst":"cello_v0_additive_7","midi_source":""},{"t":117.47,"note":55,"dur":0.327,"vel":0.709,"inst":"pad_warm_v0_fm_94","midi_source":""},{"t":117.47,"note":64,"dur":0.327,"vel":0.709,"inst":"cello_v0_additive_7","midi_source":""},{"t":117.47,"note":69,"dur":0.327,"vel":0.709,"inst":"pad_warm_v0_fm_94","midi_source":""},{"t":117.552,"note":47,"dur":0.082,"vel":0.709,"inst":"pad_warm_v0_fm_94","midi_source":""},{"t":117.633,"note":48,"dur":0.082,"vel":0.709,"inst":"cello_v0_additive_7","midi_source":""},{"t":117.715,"note":48,"dur":0.082,"vel":0.709,"inst":"cello_v0_additive_7","midi_source":""},{"t":117.797,"note":50,"dur":0.082,"vel":0.709,"inst":"cello_v0_additive_7","midi_source":""},{"t":117.797,"note":54,"dur":0.327,"vel":0.709,"inst":"cello_v0_additive_7","midi_source":""},{"t":117.797,"note":66,"dur":0.327,"vel":0.709,"inst":"cello_v0_additive_7","midi_source":""},{"t":117.797,"note":69,"dur":0.327,"vel":0.709,"inst":"pad_warm_v0_fm_94","midi_source":""},{"t":117.878,"note":50,"dur":0.082,"vel":0.709,"inst":"cello_v0_additive_7","midi_source":""},{"t":117.96,"note":62,"dur":0.082,"vel":0.709,"inst":"cello_v0_additive_7","midi_source":""},{"t":118.042,"note":57,"dur":0.041,"vel":0.709,"inst":"pad_warm_v0_fm_94","midi_source":""},{"t":118.042,"note":62,"dur":0.082,"vel":0.709,"inst":"cello_v0_additive_7","midi_source":""},{"t":118.042,"note":66,"dur":0.041,"vel":0.709,"inst":"cello_v0_additive_7","midi_source":""},{"t":118.083,"note":59,"dur":0.041,"vel":0.709,"inst":"pad_warm_v0_fm_94","midi_source":""},{"t":118.083,"note":67,"dur":0.041,"vel":0.709,"inst":"pad_warm_v0_fm_94","midi_source":""},{"t":118.124,"note":60,"dur":0.163,"vel":0.709,"inst":"cello_v0_additive_7","midi_source":""},{"t":118.124,"note":62,"dur":0.082,"vel":0.709,"inst":"cello_v0_additive_7","midi_source":""},{"t":118.124,"note":69,"dur":0.163,"vel":0.709,"inst":"pad_warm_v0_fm_94","midi_source":""},{"t":118.205,"note":62,"dur":0.082,"vel":0.709,"inst":"cello_v0_additive_7","midi_source":""},{"t":118.287,"note":62,"dur":0.082,"vel":0.709,"inst":"cello_v0_additive_7","midi_source":""},{"t":118.369,"note":62,"dur":0.082,"vel":0.709,"inst":"cello_v0_additive_7","midi_source":""},{"t":118.451,"note":57,"dur":0.163,"vel":0.709,"inst":"pad_warm_v0_fm_94","midi_source":""},{"t":118.451,"note":62,"dur":0.082,"vel":0.709,"inst":"cello_v0_additive_7","midi_source":""},{"t":118.451,"note":66,"dur":0.163,"vel":0.709,"inst":"cello_v0_additive_7","midi_source":""},{"t":118.532,"note":62,"dur":0.082,"vel":0.709,"inst":"cello_v0_additive_7","midi_source":""},{"t":118.614,"note":62,"dur":0.082,"vel":0.709,"inst":"cello_v0_additive_7","midi_source":""},{"t":118.696,"note":62,"dur":0.082,"vel":0.709,"inst":"cello_v0_additive_7","midi_source":""},{"t":118.778,"note":55,"dur":0.245,"vel":0.709,"inst":"pad_warm_v0_fm_94","midi_source":""},{"t":118.778,"note":62,"dur":0.082,"vel":0.709,"inst":"cello_v0_additive_7","midi_source":""},{"t":118.778,"note":71,"dur":0.245,"vel":0.709,"inst":"pad_warm_v0_fm_94","midi_source":""},{"t":118.859,"note":62,"dur":0.082,"vel":0.709,"inst":"cello_v0_additive_7","midi_source":""},{"t":118.941,"note":62,"dur":0.082,"vel":0.709,"inst":"cello_v0_additive_7","midi_source":""},{"t":119.023,"note":54,"dur":0.041,"vel":0.709,"inst":"cello_v0_additive_7","midi_source":""},{"t":119.023,"note":62,"dur":0.082,"vel":0.709,"inst":"cello_v0_additive_7","midi_source":""},{"t":119.023,"note":69,"dur":0.041,"vel":0.709,"inst":"pad_warm_v0_fm_94","midi_source":""},{"t":119.064,"note":55,"dur":0.041,"vel":0.709,"inst":"pad_warm_v0_fm_94","midi_source":""},{"t":119.064,"note":71,"dur":0.041,"vel":0.709,"inst":"pad_warm_v0_fm_94","midi_source":""},{"t":119.104,"note":57,"dur":0.163,"vel":0.709,"inst":"pad_warm_v0_fm_94","midi_source":""},{"t":119.104,"note":62,"dur":0.082,"vel":0.709,"inst":"cello_v0_additive_7","midi_source":""},{"t":119.104,"note":72,"dur":0.163,"vel":0.709,"inst":"cello_v0_additive_7","midi_source":""},{"t":119.186,"note":62,"dur":0.082,"vel":0.709,"inst":"cello_v0_additive_7","midi_source":""},{"t":119.268,"note":62,"dur":0.082,"vel":0.709,"inst":"cello_v0_additive_7","midi_source":""},{"t":119.35,"note":62,"dur":0.082,"vel":0.709,"inst":"cello_v0_additive_7","midi_source":""},{"t":119.431,"note":54,"dur":0.163,"vel":0.709,"inst":"cello_v0_additive_7","midi_source":""},{"t":119.431,"note":62,"dur":0.082,"vel":0.709,"inst":"cello_v0_additive_7","midi_source":""},{"t":119.431,"note":69,"dur":0.163,"vel":0.709,"inst":"pad_warm_v0_fm_94","midi_source":""},{"t":119.513,"note":62,"dur":0.082,"vel":0.709,"inst":"cello_v0_additive_7","midi_source":""},{"t":119.595,"note":62,"dur":0.082,"vel":0.709,"inst":"cello_v0_additive_7","midi_source":""},{"t":119.677,"note":62,"dur":0.082,"vel":0.709,"inst":"cello_v0_additive_7","midi_source":""},{"t":119.758,"note":47,"dur":0.082,"vel":0.709,"inst":"pad_warm_v0_fm_94","midi_source":""},{"t":119.758,"note":55,"dur":0.082,"vel":0.709,"inst":"pad_warm_v0_fm_94","midi_source":""},{"t":119.758,"note":55,"dur":0.082,"vel":0.709,"inst":"pad_warm_v0_fm_94","midi_source":""},{"t":119.758,"note":74,"dur":0.245,"vel":0.709,"inst":"cello_v0_additive_7","midi_source":""},{"t":119.84,"note":47,"dur":0.082,"vel":0.709,"inst":"pad_warm_v0_fm_94","midi_source":""},{"t":119.84,"note":55,"dur":0.082,"vel":0.709,"inst":"pad_warm_v0_fm_94","midi_source":""},{"t":119.84,"note":55,"dur":0.082,"vel":0.709,"inst":"pad_warm_v0_fm_94","midi_source":""},{"t":119.922,"note":47,"dur":0.082,"vel":0.709,"inst":"pad_warm_v0_fm_94","midi_source":""},{"t":119.922,"note":55,"dur":0.082,"vel":0.709,"inst":"pad_warm_v0_fm_94","midi_source":""},{"t":119.922,"note":55,"dur":0.082,"vel":0.709,"inst":"pad_warm_v0_fm_94","midi_source":""},{"t":120.003,"note":47,"dur":0.082,"vel":0.709,"inst":"pad_warm_v0_fm_94","midi_source":""},{"t":120.003,"note":55,"dur":0.082,"vel":0.709,"inst":"pad_warm_v0_fm_94","midi_source":""},{"t":120.003,"note":55,"dur":0.082,"vel":0.709,"inst":"pad_warm_v0_fm_94","midi_source":""},{"t":120.003,"note":74,"dur":0.041,"vel":0.709,"inst":"cello_v0_additive_7","midi_source":""},{"t":120.044,"note":76,"dur":0.041,"vel":0.709,"inst":"cello_v0_additive_7","midi_source":""},{"t":120.085,"note":47,"dur":0.082,"vel":0.709,"inst":"pad_warm_v0_fm_94","midi_source":""},{"t":120.085,"note":55,"dur":0.082,"vel":0.709,"inst":"pad_warm_v0_fm_94","midi_source":""},{"t":120.085,"note":62,"dur":0.082,"vel":0.709,"inst":"cello_v0_additive_7","midi_source":""},{"t":120.085,"note":76,"dur":0.327,"vel":0.709,"inst":"cello_v0_additive_7","midi_source":""},{"t":120.167,"note":47,"dur":0.082,"vel":0.709,"inst":"pad_warm_v0_fm_94","midi_source":""},{"t":120.167,"note":55,"dur":0.082,"vel":0.709,"inst":"pad_warm_v0_fm_94","midi_source":""},{"t":120.167,"note":62,"dur":0.082,"vel":0.709,"inst":"cello_v0_additive_7","midi_source":""},{"t":120.249,"note":47,"dur":0.082,"vel":0.709,"inst":"pad_warm_v0_fm_94","midi_source":""},{"t":120.249,"note":55,"dur":0.082,"vel":0.709,"inst":"pad_warm_v0_fm_94","midi_source":""},{"t":120.249,"note":62,"dur":0.082,"vel":0.709,"inst":"cello_v0_additive_7","midi_source":""},{"t":120.33,"note":47,"dur":0.082,"vel":0.709,"inst":"pad_warm_v0_fm_94","midi_source":""},{"t":120.33,"note":55,"dur":0.082,"vel":0.709,"inst":"pad_warm_v0_fm_94","midi_source":""},{"t":120.33,"note":62,"dur":0.082,"vel":0.709,"inst":"cello_v0_additive_7","midi_source":""},{"t":120.412,"note":48,"dur":0.082,"vel":0.709,"inst":"cello_v0_additive_7","midi_source":""},{"t":120.412,"note":57,"dur":0.082,"vel":0.709,"inst":"pad_warm_v0_fm_94","midi_source":""},{"t":120.412,"note":60,"dur":0.082,"vel":0.709,"inst":"cello_v0_additive_7","midi_source":""},{"t":120.412,"note":76,"dur":0.041,"vel":0.709,"inst":"cello_v0_additive_7","midi_source":""},{"t":120.453,"note":72,"dur":0.041,"vel":0.709,"inst":"cello_v0_additive_7","midi_source":""},{"t":120.494,"note":48,"dur":0.082,"vel":0.709,"inst":"cello_v0_additive_7","midi_source":""},{"t":120.494,"note":57,"dur":0.082,"vel":0.709,"inst":"pad_warm_v0_fm_94","midi_source":""},{"t":120.494,"note":60,"dur":0.082,"vel":0.709,"inst":"cello_v0_additive_7","midi_source":""},{"t":120.494,"note":71,"dur":0.041,"vel":0.709,"inst":"pad_warm_v0_fm_94","midi_source":""},{"t":120.535,"note":69,"dur":0.041,"vel":0.709,"inst":"pad_warm_v0_fm_94","midi_source":""},{"t":120.576,"note":48,"dur":0.082,"vel":0.709,"inst":"cello_v0_additive_7","midi_source":""},{"t":120.576,"note":57,"dur":0.082,"vel":0.709,"inst":"pad_warm_v0_fm_94","midi_source":""},{"t":120.576,"note":60,"dur":0.082,"vel":0.709,"inst":"cello_v0_additive_7","midi_source":""},{"t":120.576,"note":67,"dur":0.041,"vel":0.709,"inst":"pad_warm_v0_fm_94","midi_source":""},{"t":120.616,"note":69,"dur":0.041,"vel":0.709,"inst":"pad_warm_v0_fm_94","midi_source":""},{"t":120.657,"note":48,"dur":0.082,"vel":0.709,"inst":"cello_v0_additive_7","midi_source":""},{"t":120.657,"note":57,"dur":0.082,"vel":0.709,"inst":"pad_warm_v0_fm_94","midi_source":""},{"t":120.657,"note":60,"dur":0.082,"vel":0.709,"inst":"cello_v0_additive_7","midi_source":""},{"t":120.657,"note":72,"dur":0.041,"vel":0.709,"inst":"cello_v0_additive_7","midi_source":""},{"t":120.698,"note":69,"dur":0.041,"vel":0.709,"inst":"pad_warm_v0_fm_94","midi_source":""},{"t":120.739,"note":50,"dur":0.082,"vel":0.709,"inst":"cello_v0_additive_7","midi_source":""},{"t":120.739,"note":55,"dur":0.082,"vel":0.709,"inst":"pad_warm_v0_fm_94","midi_source":""},{"t":120.739,"note":59,"dur":0.082,"vel":0.709,"inst":"pad_warm_v0_fm_94","midi_source":""},{"t":120.739,"note":67,"dur":0.041,"vel":0.709,"inst":"pad_warm_v0_fm_94","midi_source":""},{"t":120.78,"note":69,"dur":0.041,"vel":0.709,"inst":"pad_warm_v0_fm_94","midi_source":""},{"t":120.821,"note":50,"dur":0.082,"vel":0.709,"inst":"cello_v0_additive_7","midi_source":""},{"t":120.821,"note":55,"dur":0.082,"vel":0.709,"inst":"pad_warm_v0_fm_94","midi_source":""},{"t":120.821,"note":59,"dur":0.082,"vel":0.709,"inst":"pad_warm_v0_fm_94","midi_source":""},{"t":120.821,"note":71,"dur":0.041,"vel":0.709,"inst":"pad_warm_v0_fm_94","midi_source":""},{"t":120.862,"note":72,"dur":0.041,"vel":0.709,"inst":"cello_v0_additive_7","midi_source":""},{"t":120.902,"note":50,"dur":0.082,"vel":0.709,"inst":"cello_v0_additive_7","midi_source":""},{"t":120.902,"note":55,"dur":0.082,"vel":0.709,"inst":"pad_warm_v0_fm_94","midi_source":""},{"t":120.902,"note":59,"dur":0.082,"vel":0.709,"inst":"pad_warm_v0_fm_94","midi_source":""},{"t":120.902,"note":74,"dur":0.041,"vel":0.709,"inst":"cello_v0_additive_7","midi_source":""},{"t":120.943,"note":76,"dur":0.041,"vel":0.709,"inst":"cello_v0_additive_7","midi_source":""},{"t":120.984,"note":50,"dur":0.082,"vel":0.709,"inst":"cello_v0_additive_7","midi_source":""},{"t":120.984,"note":55,"dur":0.082,"vel":0.709,"inst":"pad_warm_v0_fm_94","midi_source":""},{"t":120.984,"note":59,"dur":0.082,"vel":0.709,"inst":"pad_warm_v0_fm_94","midi_source":""},{"t":120.984,"note":74,"dur":0.041,"vel":0.709,"inst":"cello_v0_additive_7","midi_source":""},{"t":121.025,"note":76,"dur":0.041,"vel":0.709,"inst":"cello_v0_additive_7","midi_source":""},{"t":121.066,"note":50,"dur":0.163,"vel":0.709,"inst":"cello_v0_additive_7","midi_source":""},{"t":121.066,"note":55,"dur":0.163,"vel":0.709,"inst":"pad_warm_v0_fm_94","midi_source":""},{"t":121.066,"note":59,"dur":0.163,"vel":0.709,"inst":"pad_warm_v0_fm_94","midi_source":""},{"t":121.066,"note":74,"dur":0.163,"vel":0.709,"inst":"cello_v0_additive_7","midi_source":""},{"t":121.393,"note":50,"dur":0.163,"vel":0.709,"inst":"cello_v0_additive_7","midi_source":""},{"t":121.393,"note":57,"dur":0.163,"vel":0.709,"inst":"pad_warm_v0_fm_94","midi_source":""},{"t":121.393,"note":60,"dur":0.163,"vel":0.709,"inst":"cello_v0_additive_7","midi_source":""},{"t":121.393,"note":66,"dur":0.163,"vel":0.709,"inst":"cello_v0_additive_7","midi_source":""},{"t":121.72,"note":59,"dur":0.245,"vel":0.709,"inst":"pad_warm_v0_fm_94","midi_source":""},{"t":121.72,"note":62,"dur":0.082,"vel":0.709,"inst":"cello_v0_additive_7","midi_source":""},{"t":121.72,"note":67,"dur":0.245,"vel":0.709,"inst":"pad_warm_v0_fm_94","midi_source":""},{"t":121.801,"note":62,"dur":0.082,"vel":0.709,"inst":"cello_v0_additive_7","midi_source":""},{"t":121.883,"note":62,"dur":0.082,"vel":0.709,"inst":"cello_v0_additive_7","midi_source":""},{"t":121.965,"note":57,"dur":0.041,"vel":0.709,"inst":"pad_warm_v0_fm_94","midi_source":""},{"t":121.965,"note":62,"dur":0.082,"vel":0.709,"inst":"cello_v0_additive_7","midi_source":""},{"t":121.965,"note":66,"dur":0.041,"vel":0.709,"inst":"cello_v0_additive_7","midi_source":""},{"t":122.006,"note":59,"dur":0.041,"vel":0.709,"inst":"pad_warm_v0_fm_94","midi_source":""},{"t":122.006,"note":67,"dur":0.041,"vel":0.709,"inst":"pad_warm_v0_fm_94","midi_source":""},{"t":122.047,"note":60,"dur":0.163,"vel":0.709,"inst":"cello_v0_additive_7","midi_source":""},{"t":122.047,"note":62,"dur":0.082,"vel":0.709,"inst":"cello_v0_additive_7","midi_source":""},{"t":122.047,"note":69,"dur":0.163,"vel":0.709,"inst":"pad_warm_v0_fm_94","midi_source":""},{"t":122.128,"note":62,"dur":0.082,"vel":0.709,"inst":"cello_v0_additive_7","midi_source":""},{"t":122.21,"note":62,"dur":0.082,"vel":0.709,"inst":"cello_v0_additive_7","midi_source":""},{"t":122.292,"note":62,"dur":0.082,"vel":0.709,"inst":"cello_v0_additive_7","midi_source":""},{"t":122.374,"note":57,"dur":0.163,"vel":0.709,"inst":"pad_warm_v0_fm_94","midi_source":""},{"t":122.374,"note":62,"dur":0.082,"vel":0.709,"inst":"cello_v0_additive_7","midi_source":""},{"t":122.374,"note":66,"dur":0.163,"vel":0.709,"inst":"cello_v0_additive_7","midi_source":""},{"t":122.455,"note":62,"dur":0.082,"vel":0.709,"inst":"cello_v0_additive_7","midi_source":""},{"t":122.537,"note":62,"dur":0.082,"vel":0.709,"inst":"cello_v0_additive_7","midi_source":""},{"t":122.619,"note":62,"dur":0.082,"vel":0.709,"inst":"cello_v0_additive_7","midi_source":""},{"t":122.7,"note":55,"dur":0.245,"vel":0.709,"inst":"pad_warm_v0_fm_94","midi_source":""},{"t":122.7,"note":62,"dur":0.082,"vel":0.709,"inst":"cello_v0_additive_7","midi_source":""},{"t":122.7,"note":69,"dur":0.245,"vel":0.709,"inst":"pad_warm_v0_fm_94","midi_source":""},{"t":122.782,"note":62,"dur":0.082,"vel":0.709,"inst":"cello_v0_additive_7","midi_source":""},{"t":122.864,"note":62,"dur":0.082,"vel":0.709,"inst":"cello_v0_additive_7","midi_source":""},{"t":122.946,"note":54,"dur":0.041,"vel":0.709,"inst":"cello_v0_additive_7","midi_source":""},{"t":122.946,"note":62,"dur":0.082,"vel":0.709,"inst":"cello_v0_additive_7","midi_source":""},{"t":122.946,"note":69,"dur":0.041,"vel":0.709,"inst":"pad_warm_v0_fm_94","midi_source":""},{"t":122.987,"note":55,"dur":0.041,"vel":0.709,"inst":"pad_warm_v0_fm_94","midi_source":""},{"t":122.987,"note":69,"dur":0.041,"vel":0.709,"inst":"pad_warm_v0_fm_94","midi_source":""},{"t":123.027,"note":57,"dur":0.163,"vel":0.709,"inst":"pad_warm_v0_fm_94","midi_source":""},{"t":123.027,"note":62,"dur":0.082,"vel":0.709,"inst":"cello_v0_additive_7","midi_source":""},{"t":123.027,"note":72,"dur":0.163,"vel":0.709,"inst":"cello_v0_additive_7","midi_source":""},{"t":123.109,"note":62,"dur":0.082,"vel":0.709,"inst":"cello_v0_additive_7","midi_source":""},{"t":123.191,"note":62,"dur":0.082,"vel":0.709,"inst":"cello_v0_additive_7","midi_source":""},{"t":123.273,"note":62,"dur":0.082,"vel":0.709,"inst":"cello_v0_additive_7","midi_source":""},{"t":123.354,"note":54,"dur":0.163,"vel":0.709,"inst":"cello_v0_additive_7","midi_source":""},{"t":123.354,"note":62,"dur":0.082,"vel":0.709,"inst":"cello_v0_additive_7","midi_source":""},{"t":123.354,"note":69,"dur":0.163,"vel":0.709,"inst":"pad_warm_v0_fm_94","midi_source":""},{"t":123.436,"note":62,"dur":0.082,"vel":0.709,"inst":"cello_v0_additive_7","midi_source":""},{"t":123.518,"note":62,"dur":0.082,"vel":0.709,"inst":"cello_v0_additive_7","midi_source":""},{"t":123.599,"note":62,"dur":0.082,"vel":0.709,"inst":"cello_v0_additive_7","midi_source":""},{"t":123.681,"note":55,"dur":0.082,"vel":0.709,"inst":"pad_warm_v0_fm_94","midi_source":""},{"t":123.681,"note":57,"dur":0.082,"vel":0.709,"inst":"pad_warm_v0_fm_94","midi_source":""},{"t":123.681,"note":69,"dur":0.245,"vel":0.709,"inst":"pad_warm_v0_fm_94","midi_source":""},{"t":123.681,"note":74,"dur":0.245,"vel":0.709,"inst":"cello_v0_additive_7","midi_source":""},{"t":123.763,"note":55,"dur":0.082,"vel":0.709,"inst":"pad_warm_v0_fm_94","midi_source":""},{"t":123.763,"note":57,"dur":0.082,"vel":0.709,"inst":"pad_warm_v0_fm_94","midi_source":""},{"t":123.845,"note":55,"dur":0.082,"vel":0.709,"inst":"pad_warm_v0_fm_94","midi_source":""},{"t":123.845,"note":57,"dur":0.082,"vel":0.709,"inst":"pad_warm_v0_fm_94","midi_source":""},{"t":123.926,"note":55,"dur":0.082,"vel":0.709,"inst":"pad_warm_v0_fm_94","midi_source":""},{"t":123.926,"note":57,"dur":0.082,"vel":0.709,"inst":"pad_warm_v0_fm_94","midi_source":""},{"t":123.926,"note":69,"dur":0.041,"vel":0.709,"inst":"pad_warm_v0_fm_94","midi_source":""},{"t":123.926,"note":72,"dur":0.041,"vel":0.709,"inst":"cello_v0_additive_7","midi_source":""},{"t":123.967,"note":69,"dur":0.041,"vel":0.709,"inst":"pad_warm_v0_fm_94","midi_source":""},{"t":123.967,"note":74,"dur":0.041,"vel":0.709,"inst":"cello_v0_additive_7","midi_source":""},{"t":124.008,"note":48,"dur":0.082,"vel":0.709,"inst":"cello_v0_additive_7","midi_source":""},{"t":124.008,"note":55,"dur":0.082,"vel":0.709,"inst":"pad_warm_v0_fm_94","midi_source":""},{"t":124.008,"note":72,"dur":0.327,"vel":0.709,"inst":"cello_v0_additive_7","midi_source":""},{"t":124.008,"note":74,"dur":0.327,"vel":0.709,"inst":"cello_v0_additive_7","midi_source":""},{"t":124.09,"note":48,"dur":0.082,"vel":0.709,"inst":"cello_v0_additive_7","midi_source":""},{"t":124.09,"note":55,"dur":0.082,"vel":0.709,"inst":"pad_warm_v0_fm_94","midi_source":""},{"t":124.172,"note":48,"dur":0.082,"vel":0.709,"inst":"cello_v0_additive_7","midi_source":""},{"t":124.172,"note":55,"dur":0.082,"vel":0.709,"inst":"pad_warm_v0_fm_94","midi_source":""},{"t":124.253,"note":48,"dur":0.082,"vel":0.709,"inst":"cello_v0_additive_7","midi_source":""},{"t":124.253,"note":55,"dur":0.082,"vel":0.709,"inst":"pad_warm_v0_fm_94","midi_source":""},{"t":124.335,"note":52,"dur":0.082,"vel":0.709,"inst":"cello_v0_additive_7","midi_source":""},{"t":124.335,"note":57,"dur":0.082,"vel":0.709,"inst":"pad_warm_v0_fm_94","midi_source":""},{"t":124.335,"note":62,"dur":0.163,"vel":0.709,"inst":"cello_v0_additive_7","midi_source":""},{"t":124.335,"note":72,"dur":0.163,"vel":0.709,"inst":"cello_v0_additive_7","midi_source":""},{"t":124.417,"note":52,"dur":0.082,"vel":0.709,"inst":"cello_v0_additive_7","midi_source":""},{"t":124.417,"note":57,"dur":0.082,"vel":0.709,"inst":"pad_warm_v0_fm_94","midi_source":""},{"t":124.499,"note":52,"dur":0.082,"vel":0.709,"inst":"cello_v0_additive_7","midi_source":""},{"t":124.499,"note":57,"dur":0.082,"vel":0.709,"inst":"pad_warm_v0_fm_94","midi_source":""},{"t":124.499,"note":60,"dur":0.163,"vel":0.709,"inst":"cello_v0_additive_7","midi_source":""},{"t":124.499,"note":69,"dur":0.163,"vel":0.709,"inst":"pad_warm_v0_fm_94","midi_source":""},{"t":124.58,"note":52,"dur":0.082,"vel":0.709,"inst":"cello_v0_additive_7","midi_source":""},{"t":124.58,"note":57,"dur":0.082,"vel":0.709,"inst":"pad_warm_v0_fm_94","midi_source":""},{"t":124.662,"note":50,"dur":0.082,"vel":0.709,"inst":"cello_v0_additive_7","midi_source":""},{"t":124.662,"note":57,"dur":0.49,"vel":0.709,"inst":"pad_warm_v0_fm_94","midi_source":""},{"t":124.662,"note":57,"dur":0.082,"vel":0.709,"inst":"pad_warm_v0_fm_94","midi_source":""},{"t":124.662,"note":76,"dur":0.245,"vel":0.709,"inst":"cello_v0_additive_7","midi_source":""},{"t":124.744,"note":50,"dur":0.082,"vel":0.709,"inst":"cello_v0_additive_7","midi_source":""},{"t":124.744,"note":57,"dur":0.082,"vel":0.709,"inst":"pad_warm_v0_fm_94","midi_source":""},{"t":124.825,"note":50,"dur":0.082,"vel":0.709,"inst":"cello_v0_additive_7","midi_source":""},{"t":124.825,"note":57,"dur":0.082,"vel":0.709,"inst":"pad_warm_v0_fm_94","midi_source":""},{"t":124.907,"note":50,"dur":0.082,"vel":0.709,"inst":"cello_v0_additive_7","midi_source":""},{"t":124.907,"note":57,"dur":0.082,"vel":0.709,"inst":"pad_warm_v0_fm_94","midi_source":""},{"t":124.907,"note":74,"dur":0.041,"vel":0.709,"inst":"cello_v0_additive_7","midi_source":""},{"t":124.948,"note":76,"dur":0.041,"vel":0.709,"inst":"cello_v0_additive_7","midi_source":""},{"t":124.989,"note":50,"dur":0.082,"vel":0.709,"inst":"cello_v0_additive_7","midi_source":""},{"t":124.989,"note":55,"dur":0.082,"vel":0.709,"inst":"pad_warm_v0_fm_94","midi_source":""},{"t":124.989,"note":79,"dur":0.163,"vel":0.709,"inst":"pad_warm_v0_fm_94","midi_source":""},{"t":125.071,"note":50,"dur":0.082,"vel":0.709,"inst":"cello_v0_additive_7","midi_source":""},{"t":125.071,"note":55,"dur":0.082,"vel":0.709,"inst":"pad_warm_v0_fm_94","midi_source":""},{"t":125.152,"note":50,"dur":0.082,"vel":0.709,"inst":"cello_v0_additive_7","midi_source":""},{"t":125.152,"note":55,"dur":0.082,"vel":0.709,"inst":"pad_warm_v0_fm_94","midi_source":""},{"t":125.152,"note":67,"dur":0.163,"vel":0.709,"inst":"pad_warm_v0_fm_94","midi_source":""},{"t":125.152,"note":74,"dur":0.163,"vel":0.709,"inst":"cello_v0_additive_7","midi_source":""},{"t":125.234,"note":50,"dur":0.082,"vel":0.709,"inst":"cello_v0_additive_7","midi_source":""},{"t":125.234,"note":55,"dur":0.082,"vel":0.709,"inst":"pad_warm_v0_fm_94","midi_source":""},{"t":125.316,"note":52,"dur":0.082,"vel":0.709,"inst":"cello_v0_additive_7","midi_source":""},{"t":125.316,"note":57,"dur":0.082,"vel":0.709,"inst":"pad_warm_v0_fm_94","midi_source":""},{"t":125.316,"note":62,"dur":0.163,"vel":0.709,"inst":"cello_v0_additive_7","midi_source":""},{"t":125.316,"note":72,"dur":0.163,"vel":0.709,"inst":"cello_v0_additive_7","midi_source":""},{"t":125.398,"note":52,"dur":0.082,"vel":0.709,"inst":"cello_v0_additive_7","midi_source":""},{"t":125.398,"note":57,"dur":0.082,"vel":0.709,"inst":"pad_warm_v0_fm_94","midi_source":""},{"t":125.479,"note":52,"dur":0.082,"vel":0.709,"inst":"cello_v0_additive_7","midi_source":""},{"t":125.479,"note":60,"dur":0.163,"vel":0.709,"inst":"cello_v0_additive_7","midi_source":""},{"t":125.479,"note":60,"dur":0.082,"vel":0.709,"inst":"cello_v0_additive_7","midi_source":""},{"t":125.479,"note":69,"dur":0.163,"vel":0.709,"inst":"pad_warm_v0_fm_94","midi_source":""},{"t":125.561,"note":52,"dur":0.082,"vel":0.709,"inst":"cello_v0_additive_7","midi_source":""},{"t":125.561,"note":60,"dur":0.082,"vel":0.709,"inst":"cello_v0_additive_7","midi_source":""},{"t":125.643,"note":45,"dur":0.082,"vel":0.709,"inst":"pad_warm_v0_fm_94","midi_source":""},{"t":125.643,"note":57,"dur":0.327,"vel":0.709,"inst":"pad_warm_v0_fm_94","midi_source":""},{"t":125.643,"note":62,"dur":0.607,"vel":0.709,"inst":"cello_v0_additive_7","midi_source":""},{"t":125.643,"note":69,"dur":0.607,"vel":0.709,"inst":"pad_warm_v0_fm_94","midi_source":""},{"t":125.724,"note":48,"dur":0.082,"vel":0.709,"inst":"cello_v0_additive_7","midi_source":""},{"t":125.806,"note":45,"dur":0.082,"vel":0.709,"inst":"pad_warm_v0_fm_94","midi_source":""},{"t":125.888,"note":45,"dur":0.082,"vel":0.709,"inst":"pad_warm_v0_fm_94","midi_source":""},{"t":125.97,"note":45,"dur":0.082,"vel":0.709,"inst":"pad_warm_v0_fm_94","midi_source":""},{"t":125.97,"note":52,"dur":0.28,"vel":0.709,"inst":"cello_v0_additive_7","midi_source":""},{"t":126.051,"note":48,"dur":0.082,"vel":0.709,"inst":"cello_v0_additive_7","midi_source":""},{"t":126.133,"note":45,"dur":0.082,"vel":0.709,"inst":"pad_warm_v0_fm_94","midi_source":""},{"t":126.215,"note":45,"dur":0.035,"vel":0.709,"inst":"pad_warm_v0_fm_94","midi_source":""},{"t":126.25,"note":60,"dur":0.18,"vel":0.331,"inst":"shamisen_v0_bowed_194","midi_source":""},{"t":126.25,"note":64,"dur":0.18,"vel":0.52,"inst":"shamisen_v0_bowed_194","midi_source":""},{"t":126.43,"note":64,"dur":0.18,"vel":0.472,"inst":"shamisen_v0_bowed_194","midi_source":""},{"t":126.609,"note":67,"dur":0.359,"vel":0.449,"inst":"celesta_v0_bass_374","midi_source":""},{"t":126.609,"note":67,"dur":0.18,"vel":0.362,"inst":"celesta_v0_bass_374","midi_source":""},{"t":126.789,"note":64,"dur":0.18,"vel":0.417,"inst":"shamisen_v0_bowed_194","midi_source":""},{"t":126.968,"note":60,"dur":0.18,"vel":0.472,"inst":"shamisen_v0_bowed_194","midi_source":""},{"t":127.148,"note":64,"dur":0.18,"vel":0.425,"inst":"shamisen_v0_bowed_194","midi_source":""},{"t":127.327,"note":67,"dur":0.18,"vel":0.402,"inst":"celesta_v0_bass_374","midi_source":""},{"t":127.327,"note":69,"dur":0.359,"vel":0.528,"inst":"celesta_v0_bass_374","midi_source":""},{"t":127.507,"note":64,"dur":0.18,"vel":0.323,"inst":"shamisen_v0_bowed_194","midi_source":""},{"t":127.686,"note":57,"dur":0.18,"vel":0.441,"inst":"celesta_v0_bass_374","midi_source":""},{"t":127.686,"note":67,"dur":0.359,"vel":0.496,"inst":"celesta_v0_bass_374","midi_source":""},{"t":127.866,"note":63,"dur":0.18,"vel":0.37,"inst":"celesta_v0_bass_374","midi_source":""},{"t":128.045,"note":64,"dur":0.18,"vel":0.425,"inst":"shamisen_v0_bowed_194","midi_source":""},{"t":128.045,"note":69,"dur":0.359,"vel":0.512,"inst":"celesta_v0_bass_374","midi_source":""},{"t":128.225,"note":63,"dur":0.18,"vel":0.323,"inst":"celesta_v0_bass_374","midi_source":""},{"t":128.404,"note":57,"dur":0.18,"vel":0.378,"inst":"celesta_v0_bass_374","midi_source":""},{"t":128.404,"note":69,"dur":0.359,"vel":0.551,"inst":"celesta_v0_bass_374","midi_source":""},{"t":128.584,"note":63,"dur":0.18,"vel":0.504,"inst":"celesta_v0_bass_374","midi_source":""},{"t":128.763,"note":64,"dur":0.18,"vel":0.457,"inst":"shamisen_v0_bowed_194","midi_source":""},{"t":128.943,"note":63,"dur":0.18,"vel":0.48,"inst":"celesta_v0_bass_374","midi_source":""},{"t":129.122,"note":57,"dur":0.18,"vel":0.441,"inst":"celesta_v0_bass_374","midi_source":""},{"t":129.122,"note":69,"dur":0.18,"vel":0.52,"inst":"celesta_v0_bass_374","midi_source":""},{"t":129.302,"note":63,"dur":0.18,"vel":0.433,"inst":"celesta_v0_bass_374","midi_source":""},{"t":129.481,"note":64,"dur":0.18,"vel":0.323,"inst":"shamisen_v0_bowed_194","midi_source":""},{"t":129.481,"note":69,"dur":0.18,"vel":0.622,"inst":"celesta_v0_bass_374","midi_source":""},{"t":129.661,"note":63,"dur":0.18,"vel":0.323,"inst":"celesta_v0_bass_374","midi_source":""},{"t":129.841,"note":57,"dur":0.18,"vel":0.315,"inst":"celesta_v0_bass_374","midi_source":""},{"t":129.841,"note":72,"dur":0.18,"vel":0.465,"inst":"shamisen_v0_bowed_194","midi_source":""},{"t":130.02,"note":63,"dur":0.18,"vel":0.417,"inst":"celesta_v0_bass_374","midi_source":""},{"t":130.2,"note":64,"dur":0.18,"vel":0.402,"inst":"shamisen_v0_bowed_194","midi_source":""},{"t":130.379,"note":63,"dur":0.18,"vel":0.417,"inst":"celesta_v0_bass_374","midi_source":""},{"t":130.559,"note":57,"dur":0.18,"vel":0.339,"inst":"celesta_v0_bass_374","midi_source":""},{"t":130.559,"note":69,"dur":0.359,"vel":0.559,"inst":"celesta_v0_bass_374","midi_source":""},{"t":130.738,"note":63,"dur":0.18,"vel":0.378,"inst":"celesta_v0_bass_374","midi_source":""},{"t":130.918,"note":64,"dur":0.18,"vel":0.425,"inst":"shamisen_v0_bowed_194","midi_source":""},{"t":130.918,"note":72,"dur":0.18,"vel":0.48,"inst":"shamisen_v0_bowed_194","midi_source":""},{"t":131.097,"note":63,"dur":0.18,"vel":0.449,"inst":"celesta_v0_bass_374","midi_source":""},{"t":131.277,"note":57,"dur":0.18,"vel":0.48,"inst":"celesta_v0_bass_374","midi_source":""},{"t":131.277,"note":75,"dur":0.18,"vel":0.646,"inst":"celesta_v0_bass_374","midi_source":""},{"t":131.456,"note":63,"dur":0.18,"vel":0.402,"inst":"celesta_v0_bass_374","midi_source":""},{"t":131.636,"note":64,"dur":0.18,"vel":0.48,"inst":"shamisen_v0_bowed_194","midi_source":""},{"t":131.815,"note":63,"dur":0.18,"vel":0.386,"inst":"celesta_v0_bass_374","midi_source":""},{"t":131.995,"note":52,"dur":0.18,"vel":0.496,"inst":"shamisen_v0_bowed_194","midi_source":""},{"t":131.995,"note":67,"dur":0.18,"vel":0.528,"inst":"celesta_v0_bass_374","midi_source":""},{"t":132.174,"note":57,"dur":0.18,"vel":0.465,"inst":"celesta_v0_bass_374","midi_source":""},{"t":132.354,"note":60,"dur":0.18,"vel":0.433,"inst":"shamisen_v0_bowed_194","midi_source":""},{"t":132.354,"note":69,"dur":0.359,"vel":0.622,"inst":"celesta_v0_bass_374","midi_source":""},{"t":132.533,"note":57,"dur":0.18,"vel":0.37,"inst":"celesta_v0_bass_374","midi_source":""},{"t":132.713,"note":52,"dur":0.18,"vel":0.394,"inst":"shamisen_v0_bowed_194","midi_source":""},{"t":132.713,"note":69,"dur":0.18,"vel":0.433,"inst":"celesta_v0_bass_374","midi_source":""},{"t":132.892,"note":57,"dur":0.18,"vel":0.339,"inst":"celesta_v0_bass_374","midi_source":""},{"t":133.072,"note":60,"dur":0.18,"vel":0.433,"inst":"shamisen_v0_bowed_194","midi_source":""},{"t":133.072,"note":72,"dur":0.18,"vel":0.551,"inst":"shamisen_v0_bowed_194","midi_source":""},{"t":133.251,"note":57,"dur":0.18,"vel":0.331,"inst":"celesta_v0_bass_374","midi_source":""},{"t":133.431,"note":57,"dur":0.18,"vel":0.472,"inst":"celesta_v0_bass_374","midi_source":""},{"t":133.431,"note":69,"dur":0.359,"vel":0.528,"inst":"celesta_v0_bass_374","midi_source":""},{"t":133.611,"note":63,"dur":0.18,"vel":0.331,"inst":"celesta_v0_bass_374","midi_source":""},{"t":133.79,"note":64,"dur":0.18,"vel":0.409,"inst":"shamisen_v0_bowed_194","midi_source":""},{"t":133.79,"note":69,"dur":0.18,"vel":0.48,"inst":"celesta_v0_bass_374","midi_source":""},{"t":133.97,"note":63,"dur":0.18,"vel":0.386,"inst":"celesta_v0_bass_374","midi_source":""},{"t":134.149,"note":57,"dur":0.18,"vel":0.425,"inst":"celesta_v0_bass_374","midi_source":""},{"t":134.149,"note":72,"dur":0.18,"vel":0.457,"inst":"shamisen_v0_bowed_194","midi_source":""},{"t":134.329,"note":63,"dur":0.18,"vel":0.339,"inst":"celesta_v0_bass_374","midi_source":""},{"t":134.508,"note":64,"dur":0.18,"vel":0.378,"inst":"shamisen_v0_bowed_194","midi_source":""},{"t":134.508,"note":75,"dur":0.18,"vel":0.591,"inst":"celesta_v0_bass_374","midi_source":""},{"t":134.688,"note":63,"dur":0.18,"vel":0.386,"inst":"celesta_v0_bass_374","midi_source":""},{"t":134.867,"note":57,"dur":0.18,"vel":0.378,"inst":"celesta_v0_bass_374","midi_source":""},{"t":135.047,"note":63,"dur":0.18,"vel":0.425,"inst":"celesta_v0_bass_374","midi_source":""},{"t":135.226,"note":64,"dur":0.18,"vel":0.331,"inst":"shamisen_v0_bowed_194","midi_source":""},{"t":135.226,"note":72,"dur":0.359,"vel":0.528,"inst":"shamisen_v0_bowed_194","midi_source":""},{"t":135.406,"note":63,"dur":0.18,"vel":0.402,"inst":"celesta_v0_bass_374","midi_source":""},{"t":135.585,"note":57,"dur":0.18,"vel":0.465,"inst":"celesta_v0_bass_374","midi_source":""},{"t":135.765,"note":63,"dur":0.18,"vel":0.354,"inst":"celesta_v0_bass_374","midi_source":""},{"t":135.944,"note":64,"dur":0.18,"vel":0.433,"inst":"shamisen_v0_bowed_194","midi_source":""},{"t":136.124,"note":63,"dur":0.18,"vel":0.48,"inst":"celesta_v0_bass_374","midi_source":""},{"t":136.303,"note":57,"dur":0.18,"vel":0.362,"inst":"celesta_v0_bass_374","midi_source":""},{"t":136.303,"note":72,"dur":0.359,"vel":0.543,"inst":"shamisen_v0_bowed_194","midi_source":""},{"t":136.483,"note":63,"dur":0.18,"vel":0.457,"inst":"celesta_v0_bass_374","midi_source":""},{"t":136.662,"note":64,"dur":0.18,"vel":0.512,"inst":"shamisen_v0_bowed_194","midi_source":""},{"t":136.842,"note":63,"dur":0.18,"vel":0.496,"inst":"celesta_v0_bass_374","midi_source":""},{"t":137.022,"note":57,"dur":0.18,"vel":0.346,"inst":"celesta_v0_bass_374","midi_source":""},{"t":137.022,"note":76,"dur":0.359,"vel":0.543,"inst":"shamisen_v0_bowed_194","midi_source":""},{"t":137.201,"note":63,"dur":0.18,"vel":0.323,"inst":"celesta_v0_bass_374","midi_source":""},{"t":137.381,"note":64,"dur":0.18,"vel":0.654,"inst":"shamisen_v0_bowed_194","midi_source":""},{"t":137.381,"note":64,"dur":0.18,"vel":0.465,"inst":"shamisen_v0_bowed_194","midi_source":""},{"t":137.56,"note":63,"dur":0.18,"vel":0.472,"inst":"celesta_v0_bass_374","midi_source":""},{"t":137.74,"note":57,"dur":0.18,"vel":0.417,"inst":"celesta_v0_bass_374","midi_source":""},{"t":137.74,"note":69,"dur":0.18,"vel":0.52,"inst":"celesta_v0_bass_374","midi_source":""},{"t":137.919,"note":63,"dur":0.18,"vel":0.433,"inst":"celesta_v0_bass_374","midi_source":""},{"t":138.099,"note":64,"dur":0.18,"vel":0.472,"inst":"shamisen_v0_bowed_194","midi_source":""},{"t":138.099,"note":69,"dur":0.18,"vel":0.567,"inst":"celesta_v0_bass_374","midi_source":""},{"t":138.278,"note":63,"dur":0.18,"vel":0.394,"inst":"celesta_v0_bass_374","midi_source":""},{"t":138.458,"note":57,"dur":0.18,"vel":0.315,"inst":"celesta_v0_bass_374","midi_source":""},{"t":138.458,"note":72,"dur":0.18,"vel":0.559,"inst":"shamisen_v0_bowed_194","midi_source":""},{"t":138.637,"note":63,"dur":0.18,"vel":0.512,"inst":"celesta_v0_bass_374","midi_source":""},{"t":138.817,"note":64,"dur":0.18,"vel":0.354,"inst":"shamisen_v0_bowed_194","midi_source":""},{"t":138.817,"note":75,"dur":0.359,"vel":0.614,"inst":"celesta_v0_bass_374","midi_source":""},{"t":138.996,"note":63,"dur":0.18,"vel":0.315,"inst":"celesta_v0_bass_374","midi_source":""},{"t":139.176,"note":52,"dur":0.18,"vel":0.394,"inst":"shamisen_v0_bowed_194","midi_source":""},{"t":139.176,"note":69,"dur":0.359,"vel":0.614,"inst":"celesta_v0_bass_374","midi_source":""},{"t":139.355,"note":57,"dur":0.18,"vel":0.315,"inst":"celesta_v0_bass_374","midi_source":""},{"t":139.535,"note":60,"dur":0.18,"vel":0.37,"inst":"shamisen_v0_bowed_194","midi_source":""},{"t":139.714,"note":57,"dur":0.18,"vel":0.394,"inst":"celesta_v0_bass_374","midi_source":""},{"t":139.894,"note":52,"dur":0.18,"vel":0.465,"inst":"shamisen_v0_bowed_194","midi_source":""},{"t":139.894,"note":75,"dur":0.359,"vel":0.48,"inst":"celesta_v0_bass_374","midi_source":""},{"t":140.073,"note":57,"dur":0.18,"vel":0.323,"inst":"celesta_v0_bass_374","midi_source":""},{"t":140.253,"note":60,"dur":0.18,"vel":0.488,"inst":"shamisen_v0_bowed_194","midi_source":""},{"t":140.253,"note":76,"dur":0.18,"vel":0.63,"inst":"shamisen_v0_bowed_194","midi_source":""},{"t":140.432,"note":57,"dur":0.18,"vel":0.331,"inst":"celesta_v0_bass_374","midi_source":""},{"t":140.612,"note":60,"dur":0.18,"vel":0.339,"inst":"shamisen_v0_bowed_194","midi_source":""},{"t":140.612,"note":72,"dur":0.359,"vel":0.441,"inst":"shamisen_v0_bowed_194","midi_source":""},{"t":140.792,"note":64,"dur":0.18,"vel":0.315,"inst":"shamisen_v0_bowed_194","midi_source":""},{"t":140.971,"note":67,"dur":0.18,"vel":0.465,"inst":"celesta_v0_bass_374","midi_source":""},{"t":140.971,"note":75,"dur":0.359,"vel":0.591,"inst":"celesta_v0_bass_374","midi_source":""},{"t":141.151,"note":64,"dur":0.18,"vel":0.394,"inst":"shamisen_v0_bowed_194","midi_source":""},{"t":141.33,"note":60,"dur":0.18,"vel":0.362,"inst":"shamisen_v0_bowed_194","midi_source":""},{"t":141.51,"note":64,"dur":0.18,"vel":0.409,"inst":"shamisen_v0_bowed_194","midi_source":""},{"t":141.689,"note":64,"dur":0.359,"vel":0.622,"inst":"shamisen_v0_bowed_194","midi_source":""},{"t":141.689,"note":67,"dur":0.18,"vel":0.354,"inst":"celesta_v0_bass_374","midi_source":""},{"t":141.869,"note":64,"dur":0.18,"vel":0.496,"inst":"shamisen_v0_bowed_194","midi_source":""},{"t":142.048,"note":60,"dur":0.18,"vel":0.378,"inst":"shamisen_v0_bowed_194","midi_source":""},{"t":142.048,"note":75,"dur":0.359,"vel":0.661,"inst":"celesta_v0_bass_374","midi_source":""},{"t":142.228,"note":64,"dur":0.18,"vel":0.441,"inst":"shamisen_v0_bowed_194","midi_source":""},{"t":142.407,"note":67,"dur":0.18,"vel":0.496,"inst":"celesta_v0_bass_374","midi_source":""},{"t":142.407,"note":76,"dur":0.359,"vel":0.433,"inst":"shamisen_v0_bowed_194","midi_source":""},{"t":142.587,"note":64,"dur":0.18,"vel":0.449,"inst":"shamisen_v0_bowed_194","midi_source":""},{"t":142.766,"note":60,"dur":0.18,"vel":0.472,"inst":"shamisen_v0_bowed_194","midi_source":""},{"t":142.766,"note":64,"dur":0.359,"vel":0.504,"inst":"shamisen_v0_bowed_194","midi_source":""},{"t":142.946,"note":64,"dur":0.18,"vel":0.441,"inst":"shamisen_v0_bowed_194","midi_source":""},{"t":143.125,"note":67,"dur":0.18,"vel":0.449,"inst":"celesta_v0_bass_374","midi_source":""},{"t":143.125,"note":67,"dur":0.18,"vel":0.378,"inst":"celesta_v0_bass_374","midi_source":""},{"t":143.305,"note":64,"dur":0.18,"vel":0.402,"inst":"shamisen_v0_bowed_194","midi_source":""},{"t":143.484,"note":52,"dur":0.18,"vel":0.465,"inst":"shamisen_v0_bowed_194","midi_source":""},{"t":143.484,"note":69,"dur":0.18,"vel":0.488,"inst":"celesta_v0_bass_374","midi_source":""},{"t":143.664,"note":57,"dur":0.18,"vel":0.402,"inst":"celesta_v0_bass_374","midi_source":""},{"t":143.843,"note":60,"dur":0.18,"vel":0.323,"inst":"shamisen_v0_bowed_194","midi_source":""},{"t":143.843,"note":72,"dur":0.359,"vel":0.559,"inst":"shamisen_v0_bowed_194","midi_source":""},{"t":144.023,"note":57,"dur":0.18,"vel":0.417,"inst":"celesta_v0_bass_374","midi_source":""},{"t":144.203,"note":52,"dur":0.18,"vel":0.378,"inst":"shamisen_v0_bowed_194","midi_source":""},{"t":144.203,"note":75,"dur":0.18,"vel":0.496,"inst":"celesta_v0_bass_374","midi_source":""},{"t":144.382,"note":57,"dur":0.18,"vel":0.394,"inst":"celesta_v0_bass_374","midi_source":""},{"t":144.562,"note":60,"dur":0.18,"vel":0.512,"inst":"shamisen_v0_bowed_194","midi_source":""},{"t":144.741,"note":57,"dur":0.18,"vel":0.37,"inst":"celesta_v0_bass_374","midi_source":""},{"t":144.921,"note":57,"dur":0.18,"vel":0.465,"inst":"celesta_v0_bass_374","midi_source":""},{"t":144.921,"note":72,"dur":0.359,"vel":0.63,"inst":"shamisen_v0_bowed_194","midi_source":""},{"t":145.1,"note":63,"dur":0.18,"vel":0.386,"inst":"celesta_v0_bass_374","midi_source":""},{"t":145.28,"note":64,"dur":0.18,"vel":0.323,"inst":"shamisen_v0_bowed_194","midi_source":""},{"t":145.28,"note":75,"dur":0.18,"vel":0.449,"inst":"celesta_v0_bass_374","midi_source":""},{"t":145.459,"note":63,"dur":0.18,"vel":0.425,"inst":"celesta_v0_bass_374","midi_source":""},{"t":145.639,"note":57,"dur":0.18,"vel":0.441,"inst":"celesta_v0_bass_374","midi_source":""},{"t":145.639,"note":76,"dur":0.359,"vel":0.551,"inst":"shamisen_v0_bowed_194","midi_source":""},{"t":145.818,"note":63,"dur":0.18,"vel":0.354,"inst":"celesta_v0_bass_374","midi_source":""},{"t":145.998,"note":64,"dur":0.359,"vel":0.52,"inst":"shamisen_v0_bowed_194","midi_source":""},{"t":145.998,"note":64,"dur":0.18,"vel":0.496,"inst":"shamisen_v0_bowed_194","midi_source":""},{"t":146.177,"note":63,"dur":0.18,"vel":0.488,"inst":"celesta_v0_bass_374","midi_source":""},{"t":146.357,"note":57,"dur":0.18,"vel":0.449,"inst":"celesta_v0_bass_374","midi_source":""},{"t":146.357,"note":75,"dur":0.18,"vel":0.669,"inst":"celesta_v0_bass_374","midi_source":""},{"t":146.536,"note":63,"dur":0.18,"vel":0.346,"inst":"celesta_v0_bass_374","midi_source":""},{"t":146.716,"note":64,"dur":0.18,"vel":0.488,"inst":"shamisen_v0_bowed_194","midi_source":""},{"t":146.716,"note":76,"dur":0.18,"vel":0.559,"inst":"shamisen_v0_bowed_194","midi_source":""},{"t":146.895,"note":63,"dur":0.18,"vel":0.354,"inst":"celesta_v0_bass_374","midi_source":""},{"t":147.075,"note":57,"dur":0.18,"vel":0.417,"inst":"celesta_v0_bass_374","midi_source":""},{"t":147.075,"note":64,"dur":0.18,"vel":0.543,"inst":"shamisen_v0_bowed_194","midi_source":""},{"t":147.254,"note":63,"dur":0.18,"vel":0.315,"inst":"celesta_v0_bass_374","midi_source":""},{"t":147.434,"note":64,"dur":0.18,"vel":0.496,"inst":"shamisen_v0_bowed_194","midi_source":""},{"t":147.434,"note":67,"dur":0.18,"vel":0.535,"inst":"celesta_v0_bass_374","midi_source":""},{"t":147.614,"note":63,"dur":0.18,"vel":0.354,"inst":"celesta_v0_bass_374","midi_source":""},{"t":147.793,"note":52,"dur":0.18,"vel":0.402,"inst":"shamisen_v0_bowed_194","midi_source":""},{"t":147.793,"note":76,"dur":0.18,"vel":0.646,"inst":"shamisen_v0_bowed_194","midi_source":""},{"t":147.973,"note":57,"dur":0.18,"vel":0.457,"inst":"celesta_v0_bass_374","midi_source":""},{"t":148.152,"note":60,"dur":0.18,"vel":0.331,"inst":"shamisen_v0_bowed_194","midi_source":""},{"t":148.152,"note":64,"dur":0.18,"vel":0.535,"inst":"shamisen_v0_bowed_194","midi_source":""},{"t":148.332,"note":57,"dur":0.18,"vel":0.394,"inst":"celesta_v0_bass_374","midi_source":""},{"t":148.511,"note":52,"dur":0.18,"vel":0.496,"inst":"shamisen_v0_bowed_194","midi_source":""},{"t":148.691,"note":57,"dur":0.18,"vel":0.354,"inst":"celesta_v0_bass_374","midi_source":""},{"t":148.87,"note":60,"dur":0.18,"vel":0.433,"inst":"shamisen_v0_bowed_194","midi_source":""},{"t":148.87,"note":69,"dur":0.18,"vel":0.567,"inst":"celesta_v0_bass_374","midi_source":""},{"t":149.05,"note":57,"dur":0.18,"vel":0.394,"inst":"celesta_v0_bass_374","midi_source":""},{"t":154.974,"note":60,"dur":0.18,"vel":0.331,"inst":"shamisen_v0_bowed_194","midi_source":""},{"t":154.974,"note":64,"dur":0.18,"vel":0.52,"inst":"shamisen_v0_bowed_194","midi_source":""},{"t":155.154,"note":64,"dur":0.18,"vel":0.472,"inst":"shamisen_v0_bowed_194","midi_source":""},{"t":155.333,"note":67,"dur":0.359,"vel":0.449,"inst":"celesta_v0_bass_374","midi_source":""},{"t":155.333,"note":67,"dur":0.18,"vel":0.362,"inst":"celesta_v0_bass_374","midi_source":""},{"t":155.513,"note":64,"dur":0.18,"vel":0.417,"inst":"shamisen_v0_bowed_194","midi_source":""},{"t":155.692,"note":60,"dur":0.18,"vel":0.472,"inst":"shamisen_v0_bowed_194","midi_source":""},{"t":155.872,"note":64,"dur":0.18,"vel":0.425,"inst":"shamisen_v0_bowed_194","midi_source":""},{"t":156.051,"note":67,"dur":0.18,"vel":0.402,"inst":"celesta_v0_bass_374","midi_source":""},{"t":156.051,"note":69,"dur":0.359,"vel":0.528,"inst":"celesta_v0_bass_374","midi_source":""},{"t":156.231,"note":64,"dur":0.18,"vel":0.323,"inst":"shamisen_v0_bowed_194","midi_source":""},{"t":156.41,"note":57,"dur":0.18,"vel":0.441,"inst":"celesta_v0_bass_374","midi_source":""},{"t":156.41,"note":67,"dur":0.359,"vel":0.496,"inst":"celesta_v0_bass_374","midi_source":""},{"t":156.59,"note":63,"dur":0.18,"vel":0.37,"inst":"celesta_v0_bass_374","midi_source":""},{"t":156.769,"note":64,"dur":0.18,"vel":0.425,"inst":"shamisen_v0_bowed_194","midi_source":""},{"t":156.769,"note":69,"dur":0.359,"vel":0.512,"inst":"celesta_v0_bass_374","midi_source":""},{"t":156.949,"note":63,"dur":0.18,"vel":0.323,"inst":"celesta_v0_bass_374","midi_source":""},{"t":157.128,"note":57,"dur":0.18,"vel":0.378,"inst":"celesta_v0_bass_374","midi_source":""},{"t":157.128,"note":69,"dur":0.359,"vel":0.551,"inst":"celesta_v0_bass_374","midi_source":""},{"t":157.308,"note":63,"dur":0.18,"vel":0.504,"inst":"celesta_v0_bass_374","midi_source":""},{"t":157.487,"note":64,"dur":0.18,"vel":0.457,"inst":"shamisen_v0_bowed_194","midi_source":""},{"t":157.667,"note":63,"dur":0.18,"vel":0.48,"inst":"celesta_v0_bass_374","midi_source":""},{"t":157.846,"note":57,"dur":0.18,"vel":0.441,"inst":"celesta_v0_bass_374","midi_source":""},{"t":157.846,"note":69,"dur":0.18,"vel":0.52,"inst":"celesta_v0_bass_374","midi_source":""},{"t":158.026,"note":63,"dur":0.18,"vel":0.433,"inst":"celesta_v0_bass_374","midi_source":""},{"t":158.205,"note":64,"dur":0.18,"vel":0.323,"inst":"shamisen_v0_bowed_194","midi_source":""},{"t":158.205,"note":69,"dur":0.18,"vel":0.622,"inst":"celesta_v0_bass_374","midi_source":""},{"t":158.385,"note":63,"dur":0.18,"vel":0.323,"inst":"celesta_v0_bass_374","midi_source":""},{"t":158.565,"note":57,"dur":0.18,"vel":0.315,"inst":"celesta_v0_bass_374","midi_source":""},{"t":158.565,"note":72,"dur":0.18,"vel":0.465,"inst":"shamisen_v0_bowed_194","midi_source":""},{"t":158.744,"note":63,"dur":0.18,"vel":0.417,"inst":"celesta_v0_bass_374","midi_source":""},{"t":158.924,"note":64,"dur":0.18,"vel":0.402,"inst":"shamisen_v0_bowed_194","midi_source":""},{"t":159.103,"note":63,"dur":0.18,"vel":0.417,"inst":"celesta_v0_bass_374","midi_source":""},{"t":159.283,"note":57,"dur":0.18,"vel":0.339,"inst":"celesta_v0_bass_374","midi_source":""},{"t":159.283,"note":69,"dur":0.359,"vel":0.559,"inst":"celesta_v0_bass_374","midi_source":""},{"t":159.462,"note":63,"dur":0.18,"vel":0.378,"inst":"celesta_v0_bass_374","midi_source":""},{"t":159.642,"note":64,"dur":0.18,"vel":0.425,"inst":"shamisen_v0_bowed_194","midi_source":""},{"t":159.642,"note":72,"dur":0.18,"vel":0.48,"inst":"shamisen_v0_bowed_194","midi_source":""},{"t":159.821,"note":63,"dur":0.18,"vel":0.449,"inst":"celesta_v0_bass_374","midi_source":""},{"t":160.001,"note":57,"dur":0.18,"vel":0.48,"inst":"celesta_v0_bass_374","midi_source":""},{"t":160.001,"note":75,"dur":0.18,"vel":0.646,"inst":"celesta_v0_bass_374","midi_source":""},{"t":160.18,"note":63,"dur":0.18,"vel":0.402,"inst":"celesta_v0_bass_374","midi_source":""},{"t":160.36,"note":64,"dur":0.18,"vel":0.48,"inst":"shamisen_v0_bowed_194","midi_source":""},{"t":160.539,"note":63,"dur":0.18,"vel":0.386,"inst":"celesta_v0_bass_374","midi_source":""},{"t":160.719,"note":52,"dur":0.18,"vel":0.496,"inst":"shamisen_v0_bowed_194","midi_source":""},{"t":160.719,"note":67,"dur":0.18,"vel":0.528,"inst":"celesta_v0_bass_374","midi_source":""},{"t":160.898,"note":57,"dur":0.18,"vel":0.465,"inst":"celesta_v0_bass_374","midi_source":""},{"t":161.078,"note":60,"dur":0.18,"vel":0.433,"inst":"shamisen_v0_bowed_194","midi_source":""},{"t":161.078,"note":69,"dur":0.359,"vel":0.622,"inst":"celesta_v0_bass_374","midi_source":""},{"t":161.257,"note":57,"dur":0.18,"vel":0.37,"inst":"celesta_v0_bass_374","midi_source":""},{"t":161.437,"note":52,"dur":0.18,"vel":0.394,"inst":"shamisen_v0_bowed_194","midi_source":""},{"t":161.437,"note":69,"dur":0.18,"vel":0.433,"inst":"celesta_v0_bass_374","midi_source":""},{"t":161.616,"note":57,"dur":0.18,"vel":0.339,"inst":"celesta_v0_bass_374","midi_source":""},{"t":161.796,"note":60,"dur":0.18,"vel":0.433,"inst":"shamisen_v0_bowed_194","midi_source":""},{"t":161.796,"note":72,"dur":0.18,"vel":0.551,"inst":"shamisen_v0_bowed_194","midi_source":""},{"t":161.976,"note":57,"dur":0.18,"vel":0.331,"inst":"celesta_v0_bass_374","midi_source":""},{"t":162.155,"note":57,"dur":0.18,"vel":0.472,"inst":"celesta_v0_bass_374","midi_source":""},{"t":162.155,"note":69,"dur":0.359,"vel":0.528,"inst":"celesta_v0_bass_374","midi_source":""},{"t":162.335,"note":63,"dur":0.18,"vel":0.331,"inst":"celesta_v0_bass_374","midi_source":""},{"t":162.514,"note":64,"dur":0.18,"vel":0.409,"inst":"shamisen_v0_bowed_194","midi_source":""},{"t":162.514,"note":69,"dur":0.18,"vel":0.48,"inst":"celesta_v0_bass_374","midi_source":""},{"t":162.694,"note":63,"dur":0.18,"vel":0.386,"inst":"celesta_v0_bass_374","midi_source":""},{"t":162.873,"note":57,"dur":0.18,"vel":0.425,"inst":"celesta_v0_bass_374","midi_source":""},{"t":162.873,"note":72,"dur":0.18,"vel":0.457,"inst":"shamisen_v0_bowed_194","midi_source":""},{"t":163.053,"note":63,"dur":0.18,"vel":0.339,"inst":"celesta_v0_bass_374","midi_source":""},{"t":163.232,"note":64,"dur":0.18,"vel":0.378,"inst":"shamisen_v0_bowed_194","midi_source":""},{"t":163.232,"note":75,"dur":0.18,"vel":0.591,"inst":"celesta_v0_bass_374","midi_source":""},{"t":163.412,"note":63,"dur":0.18,"vel":0.386,"inst":"celesta_v0_bass_374","midi_source":""},{"t":163.591,"note":57,"dur":0.18,"vel":0.378,"inst":"celesta_v0_bass_374","midi_source":""},{"t":163.771,"note":63,"dur":0.18,"vel":0.425,"inst":"celesta_v0_bass_374","midi_source":""},{"t":163.95,"note":64,"dur":0.18,"vel":0.331,"inst":"shamisen_v0_bowed_194","midi_source":""},{"t":163.95,"note":72,"dur":0.359,"vel":0.528,"inst":"shamisen_v0_bowed_194","midi_source":""},{"t":164.13,"note":63,"dur":0.18,"vel":0.402,"inst":"celesta_v0_bass_374","midi_source":""},{"t":164.309,"note":57,"dur":0.18,"vel":0.465,"inst":"celesta_v0_bass_374","midi_source":""},{"t":164.489,"note":63,"dur":0.18,"vel":0.354,"inst":"celesta_v0_bass_374","midi_source":""},{"t":164.668,"note":64,"dur":0.18,"vel":0.433,"inst":"shamisen_v0_bowed_194","midi_source":""},{"t":164.848,"note":63,"dur":0.18,"vel":0.48,"inst":"celesta_v0_bass_374","midi_source":""},{"t":165.027,"note":57,"dur":0.18,"vel":0.362,"inst":"celesta_v0_bass_374","midi_source":""},{"t":165.027,"note":72,"dur":0.359,"vel":0.543,"inst":"shamisen_v0_bowed_194","midi_source":""},{"t":165.207,"note":63,"dur":0.18,"vel":0.457,"inst":"celesta_v0_bass_374","midi_source":""},{"t":165.386,"note":64,"dur":0.18,"vel":0.512,"inst":"shamisen_v0_bowed_194","midi_source":""},{"t":165.566,"note":63,"dur":0.18,"vel":0.496,"inst":"celesta_v0_bass_374","midi_source":""},{"t":165.746,"note":57,"dur":0.18,"vel":0.346,"inst":"celesta_v0_bass_374","midi_source":""},{"t":165.746,"note":76,"dur":0.359,"vel":0.543,"inst":"shamisen_v0_bowed_194","midi_source":""},{"t":165.925,"note":63,"dur":0.18,"vel":0.323,"inst":"celesta_v0_bass_374","midi_source":""},{"t":166.105,"note":64,"dur":0.18,"vel":0.654,"inst":"shamisen_v0_bowed_194","midi_source":""},{"t":166.105,"note":64,"dur":0.18,"vel":0.465,"inst":"shamisen_v0_bowed_194","midi_source":""},{"t":166.284,"note":63,"dur":0.18,"vel":0.472,"inst":"celesta_v0_bass_374","midi_source":""},{"t":166.464,"note":57,"dur":0.18,"vel":0.417,"inst":"celesta_v0_bass_374","midi_source":""},{"t":166.464,"note":69,"dur":0.18,"vel":0.52,"inst":"celesta_v0_bass_374","midi_source":""},{"t":166.643,"note":63,"dur":0.18,"vel":0.433,"inst":"celesta_v0_bass_374","midi_source":""},{"t":166.823,"note":64,"dur":0.18,"vel":0.472,"inst":"shamisen_v0_bowed_194","midi_source":""},{"t":166.823,"note":69,"dur":0.18,"vel":0.567,"inst":"celesta_v0_bass_374","midi_source":""},{"t":167.002,"note":63,"dur":0.18,"vel":0.394,"inst":"celesta_v0_bass_374","midi_source":""},{"t":167.182,"note":57,"dur":0.18,"vel":0.315,"inst":"celesta_v0_bass_374","midi_source":""},{"t":167.182,"note":72,"dur":0.18,"vel":0.559,"inst":"shamisen_v0_bowed_194","midi_source":""},{"t":167.361,"note":63,"dur":0.18,"vel":0.512,"inst":"celesta_v0_bass_374","midi_source":""},{"t":167.541,"note":64,"dur":0.18,"vel":0.354,"inst":"shamisen_v0_bowed_194","midi_source":""},{"t":167.541,"note":75,"dur":0.359,"vel":0.614,"inst":"celesta_v0_bass_374","midi_source":""},{"t":167.72,"note":63,"dur":0.18,"vel":0.315,"inst":"celesta_v0_bass_374","midi_source":""},{"t":167.9,"note":52,"dur":0.18,"vel":0.394,"inst":"shamisen_v0_bowed_194","midi_source":""},{"t":167.9,"note":69,"dur":0.359,"vel":0.614,"inst":"celesta_v0_bass_374","midi_source":""},{"t":168.079,"note":57,"dur":0.18,"vel":0.315,"inst":"celesta_v0_bass_374","midi_source":""},{"t":168.259,"note":60,"dur":0.18,"vel":0.37,"inst":"shamisen_v0_bowed_194","midi_source":""},{"t":168.438,"note":57,"dur":0.18,"vel":0.394,"inst":"celesta_v0_bass_374","midi_source":""},{"t":168.618,"note":52,"dur":0.18,"vel":0.465,"inst":"shamisen_v0_bowed_194","midi_source":""},{"t":168.618,"note":75,"dur":0.359,"vel":0.48,"inst":"celesta_v0_bass_374","midi_source":""},{"t":168.797,"note":57,"dur":0.18,"vel":0.323,"inst":"celesta_v0_bass_374","midi_source":""},{"t":168.977,"note":60,"dur":0.18,"vel":0.488,"inst":"shamisen_v0_bowed_194","midi_source":""},{"t":168.977,"note":76,"dur":0.18,"vel":0.63,"inst":"shamisen_v0_bowed_194","midi_source":""},{"t":169.157,"note":57,"dur":0.18,"vel":0.331,"inst":"celesta_v0_bass_374","midi_source":""},{"t":169.336,"note":60,"dur":0.18,"vel":0.339,"inst":"shamisen_v0_bowed_194","midi_source":""},{"t":169.336,"note":72,"dur":0.359,"vel":0.441,"inst":"shamisen_v0_bowed_194","midi_source":""},{"t":169.516,"note":64,"dur":0.18,"vel":0.315,"inst":"shamisen_v0_bowed_194","midi_source":""},{"t":169.695,"note":67,"dur":0.18,"vel":0.465,"inst":"celesta_v0_bass_374","midi_source":""},{"t":169.695,"note":75,"dur":0.359,"vel":0.591,"inst":"celesta_v0_bass_374","midi_source":""},{"t":169.875,"note":64,"dur":0.18,"vel":0.394,"inst":"shamisen_v0_bowed_194","midi_source":""},{"t":170.054,"note":60,"dur":0.18,"vel":0.362,"inst":"shamisen_v0_bowed_194","midi_source":""},{"t":170.234,"note":64,"dur":0.18,"vel":0.409,"inst":"shamisen_v0_bowed_194","midi_source":""},{"t":170.413,"note":64,"dur":0.359,"vel":0.622,"inst":"shamisen_v0_bowed_194","midi_source":""},{"t":170.413,"note":67,"dur":0.18,"vel":0.354,"inst":"celesta_v0_bass_374","midi_source":""},{"t":170.593,"note":64,"dur":0.18,"vel":0.496,"inst":"shamisen_v0_bowed_194","midi_source":""},{"t":170.772,"note":60,"dur":0.18,"vel":0.378,"inst":"shamisen_v0_bowed_194","midi_source":""},{"t":170.772,"note":75,"dur":0.359,"vel":0.661,"inst":"celesta_v0_bass_374","midi_source":""},{"t":170.952,"note":64,"dur":0.18,"vel":0.441,"inst":"shamisen_v0_bowed_194","midi_source":""},{"t":171.131,"note":67,"dur":0.18,"vel":0.496,"inst":"celesta_v0_bass_374","midi_source":""},{"t":171.131,"note":76,"dur":0.359,"vel":0.433,"inst":"shamisen_v0_bowed_194","midi_source":""},{"t":171.311,"note":64,"dur":0.18,"vel":0.449,"inst":"shamisen_v0_bowed_194","midi_source":""},{"t":171.49,"note":60,"dur":0.18,"vel":0.472,"inst":"shamisen_v0_bowed_194","midi_source":""},{"t":171.49,"note":64,"dur":0.359,"vel":0.504,"inst":"shamisen_v0_bowed_194","midi_source":""},{"t":171.67,"note":64,"dur":0.18,"vel":0.441,"inst":"shamisen_v0_bowed_194","midi_source":""},{"t":171.849,"note":67,"dur":0.18,"vel":0.449,"inst":"celesta_v0_bass_374","midi_source":""},{"t":171.849,"note":67,"dur":0.18,"vel":0.378,"inst":"celesta_v0_bass_374","midi_source":""},{"t":172.029,"note":64,"dur":0.18,"vel":0.402,"inst":"shamisen_v0_bowed_194","midi_source":""},{"t":172.208,"note":52,"dur":0.18,"vel":0.465,"inst":"shamisen_v0_bowed_194","midi_source":""},{"t":172.208,"note":69,"dur":0.18,"vel":0.488,"inst":"celesta_v0_bass_374","midi_source":""},{"t":172.388,"note":57,"dur":0.18,"vel":0.402,"inst":"celesta_v0_bass_374","midi_source":""},{"t":172.568,"note":60,"dur":0.18,"vel":0.323,"inst":"shamisen_v0_bowed_194","midi_source":""},{"t":172.568,"note":72,"dur":0.359,"vel":0.559,"inst":"shamisen_v0_bowed_194","midi_source":""},{"t":172.747,"note":57,"dur":0.18,"vel":0.417,"inst":"celesta_v0_bass_374","midi_source":""},{"t":172.927,"note":52,"dur":0.18,"vel":0.378,"inst":"shamisen_v0_bowed_194","midi_source":""},{"t":172.927,"note":75,"dur":0.18,"vel":0.496,"inst":"celesta_v0_bass_374","midi_source":""},{"t":173.106,"note":57,"dur":0.18,"vel":0.394,"inst":"celesta_v0_bass_374","midi_source":""},{"t":173.286,"note":60,"dur":0.18,"vel":0.512,"inst":"shamisen_v0_bowed_194","midi_source":""},{"t":173.465,"note":57,"dur":0.18,"vel":0.37,"inst":"celesta_v0_bass_374","midi_source":""},{"t":173.645,"note":57,"dur":0.18,"vel":0.465,"inst":"celesta_v0_bass_374","midi_source":""},{"t":173.645,"note":72,"dur":0.359,"vel":0.63,"inst":"shamisen_v0_bowed_194","midi_source":""},{"t":173.824,"note":63,"dur":0.18,"vel":0.386,"inst":"celesta_v0_bass_374","midi_source":""},{"t":174.004,"note":64,"dur":0.18,"vel":0.323,"inst":"shamisen_v0_bowed_194","midi_source":""},{"t":174.004,"note":75,"dur":0.18,"vel":0.449,"inst":"celesta_v0_bass_374","midi_source":""},{"t":174.183,"note":63,"dur":0.18,"vel":0.425,"inst":"celesta_v0_bass_374","midi_source":""},{"t":174.363,"note":57,"dur":0.18,"vel":0.441,"inst":"celesta_v0_bass_374","midi_source":""},{"t":174.363,"note":76,"dur":0.359,"vel":0.551,"inst":"shamisen_v0_bowed_194","midi_source":""},{"t":174.542,"note":63,"dur":0.18,"vel":0.354,"inst":"celesta_v0_bass_374","midi_source":""},{"t":174.722,"note":64,"dur":0.359,"vel":0.52,"inst":"shamisen_v0_bowed_194","midi_source":""},{"t":174.722,"note":64,"dur":0.18,"vel":0.496,"inst":"shamisen_v0_bowed_194","midi_source":""},{"t":174.901,"note":63,"dur":0.18,"vel":0.488,"inst":"celesta_v0_bass_374","midi_source":""},{"t":175.081,"note":57,"dur":0.18,"vel":0.449,"inst":"celesta_v0_bass_374","midi_source":""},{"t":175.081,"note":75,"dur":0.18,"vel":0.669,"inst":"celesta_v0_bass_374","midi_source":""},{"t":175.26,"note":63,"dur":0.18,"vel":0.346,"inst":"celesta_v0_bass_374","midi_source":""},{"t":175.44,"note":64,"dur":0.18,"vel":0.488,"inst":"shamisen_v0_bowed_194","midi_source":""},{"t":175.44,"note":76,"dur":0.18,"vel":0.559,"inst":"shamisen_v0_bowed_194","midi_source":""},{"t":175.619,"note":63,"dur":0.18,"vel":0.354,"inst":"celesta_v0_bass_374","midi_source":""},{"t":175.799,"note":57,"dur":0.18,"vel":0.417,"inst":"celesta_v0_bass_374","midi_source":""},{"t":175.799,"note":64,"dur":0.18,"vel":0.543,"inst":"shamisen_v0_bowed_194","midi_source":""},{"t":175.978,"note":63,"dur":0.18,"vel":0.315,"inst":"celesta_v0_bass_374","midi_source":""},{"t":176.158,"note":64,"dur":0.18,"vel":0.496,"inst":"shamisen_v0_bowed_194","midi_source":""},{"t":176.158,"note":67,"dur":0.18,"vel":0.535,"inst":"celesta_v0_bass_374","midi_source":""},{"t":176.338,"note":63,"dur":0.18,"vel":0.354,"inst":"celesta_v0_bass_374","midi_source":""},{"t":176.517,"note":52,"dur":0.18,"vel":0.402,"inst":"shamisen_v0_bowed_194","midi_source":""},{"t":176.517,"note":76,"dur":0.18,"vel":0.646,"inst":"shamisen_v0_bowed_194","midi_source":""},{"t":176.697,"note":57,"dur":0.18,"vel":0.457,"inst":"celesta_v0_bass_374","midi_source":""},{"t":176.876,"note":60,"dur":0.18,"vel":0.331,"inst":"shamisen_v0_bowed_194","midi_source":""},{"t":176.876,"note":64,"dur":0.18,"vel":0.535,"inst":"shamisen_v0_bowed_194","midi_source":""},{"t":177.056,"note":57,"dur":0.18,"vel":0.394,"inst":"celesta_v0_bass_374","midi_source":""},{"t":177.235,"note":52,"dur":0.18,"vel":0.496,"inst":"shamisen_v0_bowed_194","midi_source":""},{"t":177.415,"note":57,"dur":0.18,"vel":0.354,"inst":"celesta_v0_bass_374","midi_source":""},{"t":177.594,"note":60,"dur":0.18,"vel":0.433,"inst":"shamisen_v0_bowed_194","midi_source":""},{"t":177.594,"note":69,"dur":0.18,"vel":0.567,"inst":"celesta_v0_bass_374","midi_source":""},{"t":177.774,"note":57,"dur":0.18,"vel":0.394,"inst":"celesta_v0_bass_374","midi_source":""},{"t":183.698,"note":60,"dur":0.18,"vel":0.331,"inst":"shamisen_v0_bowed_194","midi_source":""},{"t":183.698,"note":64,"dur":0.18,"vel":0.52,"inst":"shamisen_v0_bowed_194","midi_source":""},{"t":183.878,"note":64,"dur":0.18,"vel":0.472,"inst":"shamisen_v0_bowed_194","midi_source":""},{"t":184.057,"note":67,"dur":0.359,"vel":0.449,"inst":"celesta_v0_bass_374","midi_source":""},{"t":184.057,"note":67,"dur":0.18,"vel":0.362,"inst":"celesta_v0_bass_374","midi_source":""},{"t":184.237,"note":64,"dur":0.18,"vel":0.417,"inst":"shamisen_v0_bowed_194","midi_source":""},{"t":184.416,"note":60,"dur":0.18,"vel":0.472,"inst":"shamisen_v0_bowed_194","midi_source":""},{"t":184.596,"note":64,"dur":0.18,"vel":0.425,"inst":"shamisen_v0_bowed_194","midi_source":""},{"t":184.775,"note":67,"dur":0.18,"vel":0.402,"inst":"celesta_v0_bass_374","midi_source":""},{"t":184.775,"note":69,"dur":0.359,"vel":0.528,"inst":"celesta_v0_bass_374","midi_source":""},{"t":184.955,"note":64,"dur":0.18,"vel":0.323,"inst":"shamisen_v0_bowed_194","midi_source":""},{"t":185.134,"note":57,"dur":0.18,"vel":0.441,"inst":"celesta_v0_bass_374","midi_source":""},{"t":185.134,"note":67,"dur":0.359,"vel":0.496,"inst":"celesta_v0_bass_374","midi_source":""},{"t":185.314,"note":63,"dur":0.18,"vel":0.37,"inst":"celesta_v0_bass_374","midi_source":""},{"t":185.493,"note":64,"dur":0.18,"vel":0.425,"inst":"shamisen_v0_bowed_194","midi_source":""},{"t":185.493,"note":69,"dur":0.359,"vel":0.512,"inst":"celesta_v0_bass_374","midi_source":""},{"t":185.673,"note":63,"dur":0.18,"vel":0.323,"inst":"celesta_v0_bass_374","midi_source":""},{"t":185.852,"note":57,"dur":0.18,"vel":0.378,"inst":"celesta_v0_bass_374","midi_source":""},{"t":185.852,"note":69,"dur":0.359,"vel":0.551,"inst":"celesta_v0_bass_374","midi_source":""},{"t":186.032,"note":63,"dur":0.18,"vel":0.504,"inst":"celesta_v0_bass_374","midi_source":""},{"t":186.211,"note":64,"dur":0.18,"vel":0.457,"inst":"shamisen_v0_bowed_194","midi_source":""},{"t":186.391,"note":63,"dur":0.18,"vel":0.48,"inst":"celesta_v0_bass_374","midi_source":""},{"t":186.57,"note":57,"dur":0.18,"vel":0.441,"inst":"celesta_v0_bass_374","midi_source":""},{"t":186.57,"note":69,"dur":0.18,"vel":0.52,"inst":"celesta_v0_bass_374","midi_source":""},{"t":186.75,"note":63,"dur":0.18,"vel":0.433,"inst":"celesta_v0_bass_374","midi_source":""},{"t":186.93,"note":64,"dur":0.18,"vel":0.323,"inst":"shamisen_v0_bowed_194","midi_source":""},{"t":186.93,"note":69,"dur":0.18,"vel":0.622,"inst":"celesta_v0_bass_374","midi_source":""},{"t":187.109,"note":63,"dur":0.18,"vel":0.323,"inst":"celesta_v0_bass_374","midi_source":""},{"t":187.289,"note":57,"dur":0.18,"vel":0.315,"inst":"celesta_v0_bass_374","midi_source":""},{"t":187.289,"note":72,"dur":0.18,"vel":0.465,"inst":"shamisen_v0_bowed_194","midi_source":""},{"t":187.468,"note":63,"dur":0.18,"vel":0.417,"inst":"celesta_v0_bass_374","midi_source":""},{"t":187.648,"note":64,"dur":0.18,"vel":0.402,"inst":"shamisen_v0_bowed_194","midi_source":""},{"t":187.827,"note":63,"dur":0.18,"vel":0.417,"inst":"celesta_v0_bass_374","midi_source":""},{"t":188.007,"note":57,"dur":0.18,"vel":0.339,"inst":"celesta_v0_bass_374","midi_source":""},{"t":188.007,"note":69,"dur":0.359,"vel":0.559,"inst":"celesta_v0_bass_374","midi_source":""},{"t":188.186,"note":63,"dur":0.18,"vel":0.378,"inst":"celesta_v0_bass_374","midi_source":""},{"t":188.366,"note":64,"dur":0.18,"vel":0.425,"inst":"shamisen_v0_bowed_194","midi_source":""},{"t":188.366,"note":72,"dur":0.18,"vel":0.48,"inst":"shamisen_v0_bowed_194","midi_source":""},{"t":188.545,"note":63,"dur":0.18,"vel":0.449,"inst":"celesta_v0_bass_374","midi_source":""},{"t":188.725,"note":57,"dur":0.18,"vel":0.48,"inst":"celesta_v0_bass_374","midi_source":""},{"t":188.725,"note":75,"dur":0.18,"vel":0.646,"inst":"celesta_v0_bass_374","midi_source":""},{"t":188.904,"note":63,"dur":0.18,"vel":0.402,"inst":"celesta_v0_bass_374","midi_source":""},{"t":189.084,"note":64,"dur":0.18,"vel":0.48,"inst":"shamisen_v0_bowed_194","midi_source":""},{"t":189.263,"note":63,"dur":0.18,"vel":0.386,"inst":"celesta_v0_bass_374","midi_source":""},{"t":189.443,"note":52,"dur":0.18,"vel":0.496,"inst":"shamisen_v0_bowed_194","midi_source":""},{"t":189.443,"note":67,"dur":0.18,"vel":0.528,"inst":"celesta_v0_bass_374","midi_source":""},{"t":189.622,"note":57,"dur":0.18,"vel":0.465,"inst":"celesta_v0_bass_374","midi_source":""},{"t":189.802,"note":60,"dur":0.18,"vel":0.433,"inst":"shamisen_v0_bowed_194","midi_source":""},{"t":189.802,"note":69,"dur":0.359,"vel":0.622,"inst":"celesta_v0_bass_374","midi_source":""},{"t":189.981,"note":57,"dur":0.18,"vel":0.37,"inst":"celesta_v0_bass_374","midi_source":""},{"t":190.161,"note":52,"dur":0.18,"vel":0.394,"inst":"shamisen_v0_bowed_194","midi_source":""},{"t":190.161,"note":69,"dur":0.18,"vel":0.433,"inst":"celesta_v0_bass_374","midi_source":""},{"t":190.341,"note":57,"dur":0.18,"vel":0.339,"inst":"celesta_v0_bass_374","midi_source":""},{"t":190.52,"note":60,"dur":0.18,"vel":0.433,"inst":"shamisen_v0_bowed_194","midi_source":""},{"t":190.52,"note":72,"dur":0.18,"vel":0.551,"inst":"shamisen_v0_bowed_194","midi_source":""},{"t":190.7,"note":57,"dur":0.18,"vel":0.331,"inst":"celesta_v0_bass_374","midi_source":""},{"t":190.879,"note":57,"dur":0.18,"vel":0.472,"inst":"celesta_v0_bass_374","midi_source":""},{"t":190.879,"note":69,"dur":0.359,"vel":0.528,"inst":"celesta_v0_bass_374","midi_source":""},{"t":191.059,"note":63,"dur":0.18,"vel":0.331,"inst":"celesta_v0_bass_374","midi_source":""},{"t":191.238,"note":64,"dur":0.18,"vel":0.409,"inst":"shamisen_v0_bowed_194","midi_source":""},{"t":191.238,"note":69,"dur":0.18,"vel":0.48,"inst":"celesta_v0_bass_374","midi_source":""},{"t":191.418,"note":63,"dur":0.18,"vel":0.386,"inst":"celesta_v0_bass_374","midi_source":""},{"t":191.597,"note":57,"dur":0.18,"vel":0.425,"inst":"celesta_v0_bass_374","midi_source":""},{"t":191.597,"note":72,"dur":0.18,"vel":0.457,"inst":"shamisen_v0_bowed_194","midi_source":""},{"t":191.777,"note":63,"dur":0.18,"vel":0.339,"inst":"celesta_v0_bass_374","midi_source":""},{"t":191.956,"note":64,"dur":0.18,"vel":0.378,"inst":"shamisen_v0_bowed_194","midi_source":""},{"t":191.956,"note":75,"dur":0.18,"vel":0.591,"inst":"celesta_v0_bass_374","midi_source":""},{"t":192.136,"note":63,"dur":0.18,"vel":0.386,"inst":"celesta_v0_bass_374","midi_source":""},{"t":192.315,"note":57,"dur":0.18,"vel":0.378,"inst":"celesta_v0_bass_374","midi_source":""},{"t":192.495,"note":63,"dur":0.18,"vel":0.425,"inst":"celesta_v0_bass_374","midi_source":""},{"t":192.674,"note":64,"dur":0.18,"vel":0.331,"inst":"shamisen_v0_bowed_194","midi_source":""},{"t":192.674,"note":72,"dur":0.359,"vel":0.528,"inst":"shamisen_v0_bowed_194","midi_source":""},{"t":192.854,"note":63,"dur":0.18,"vel":0.402,"inst":"celesta_v0_bass_374","midi_source":""},{"t":193.033,"note":57,"dur":0.18,"vel":0.465,"inst":"celesta_v0_bass_374","midi_source":""},{"t":193.213,"note":63,"dur":0.18,"vel":0.354,"inst":"celesta_v0_bass_374","midi_source":""},{"t":193.392,"note":64,"dur":0.18,"vel":0.433,"inst":"shamisen_v0_bowed_194","midi_source":""},{"t":193.572,"note":63,"dur":0.18,"vel":0.48,"inst":"celesta_v0_bass_374","midi_source":""},{"t":193.751,"note":57,"dur":0.18,"vel":0.362,"inst":"celesta_v0_bass_374","midi_source":""},{"t":193.751,"note":72,"dur":0.359,"vel":0.543,"inst":"shamisen_v0_bowed_194","midi_source":""},{"t":193.931,"note":63,"dur":0.18,"vel":0.457,"inst":"celesta_v0_bass_374","midi_source":""},{"t":194.111,"note":64,"dur":0.18,"vel":0.512,"inst":"shamisen_v0_bowed_194","midi_source":""},{"t":194.29,"note":63,"dur":0.18,"vel":0.496,"inst":"celesta_v0_bass_374","midi_source":""},{"t":194.47,"note":57,"dur":0.18,"vel":0.346,"inst":"celesta_v0_bass_374","midi_source":""},{"t":194.47,"note":76,"dur":0.359,"vel":0.543,"inst":"shamisen_v0_bowed_194","midi_source":""},{"t":194.649,"note":63,"dur":0.18,"vel":0.323,"inst":"celesta_v0_bass_374","midi_source":""},{"t":194.829,"note":64,"dur":0.18,"vel":0.654,"inst":"shamisen_v0_bowed_194","midi_source":""},{"t":194.829,"note":64,"dur":0.18,"vel":0.465,"inst":"shamisen_v0_bowed_194","midi_source":""},{"t":195.008,"note":63,"dur":0.18,"vel":0.472,"inst":"celesta_v0_bass_374","midi_source":""},{"t":195.188,"note":57,"dur":0.18,"vel":0.417,"inst":"celesta_v0_bass_374","midi_source":""},{"t":195.188,"note":69,"dur":0.18,"vel":0.52,"inst":"celesta_v0_bass_374","midi_source":""},{"t":195.367,"note":63,"dur":0.18,"vel":0.433,"inst":"celesta_v0_bass_374","midi_source":""},{"t":195.547,"note":64,"dur":0.18,"vel":0.472,"inst":"shamisen_v0_bowed_194","midi_source":""},{"t":195.547,"note":69,"dur":0.18,"vel":0.567,"inst":"celesta_v0_bass_374","midi_source":""},{"t":195.726,"note":63,"dur":0.18,"vel":0.394,"inst":"celesta_v0_bass_374","midi_source":""},{"t":195.906,"note":57,"dur":0.18,"vel":0.315,"inst":"celesta_v0_bass_374","midi_source":""},{"t":195.906,"note":72,"dur":0.18,"vel":0.559,"inst":"shamisen_v0_bowed_194","midi_source":""},{"t":196.085,"note":63,"dur":0.18,"vel":0.512,"inst":"celesta_v0_bass_374","midi_source":""},{"t":196.265,"note":64,"dur":0.18,"vel":0.354,"inst":"shamisen_v0_bowed_194","midi_source":""},{"t":196.265,"note":75,"dur":0.359,"vel":0.614,"inst":"celesta_v0_bass_374","midi_source":""},{"t":196.444,"note":63,"dur":0.18,"vel":0.315,"inst":"celesta_v0_bass_374","midi_source":""},{"t":196.624,"note":52,"dur":0.18,"vel":0.394,"inst":"shamisen_v0_bowed_194","midi_source":""},{"t":196.624,"note":69,"dur":0.359,"vel":0.614,"inst":"celesta_v0_bass_374","midi_source":""},{"t":196.803,"note":57,"dur":0.18,"vel":0.315,"inst":"celesta_v0_bass_374","midi_source":""},{"t":196.983,"note":60,"dur":0.18,"vel":0.37,"inst":"shamisen_v0_bowed_194","midi_source":""},{"t":197.162,"note":57,"dur":0.18,"vel":0.394,"inst":"celesta_v0_bass_374","midi_source":""},{"t":197.342,"note":52,"dur":0.18,"vel":0.465,"inst":"shamisen_v0_bowed_194","midi_source":""},{"t":197.342,"note":75,"dur":0.359,"vel":0.48,"inst":"celesta_v0_bass_374","midi_source":""},{"t":197.522,"note":57,"dur":0.18,"vel":0.323,"inst":"celesta_v0_bass_374","midi_source":""},{"t":197.701,"note":60,"dur":0.18,"vel":0.488,"inst":"shamisen_v0_bowed_194","midi_source":""},{"t":197.701,"note":76,"dur":0.18,"vel":0.63,"inst":"shamisen_v0_bowed_194","midi_source":""},{"t":197.881,"note":57,"dur":0.18,"vel":0.331,"inst":"celesta_v0_bass_374","midi_source":""},{"t":198.06,"note":60,"dur":0.18,"vel":0.339,"inst":"shamisen_v0_bowed_194","midi_source":""},{"t":198.06,"note":72,"dur":0.359,"vel":0.441,"inst":"shamisen_v0_bowed_194","midi_source":""},{"t":198.24,"note":64,"dur":0.18,"vel":0.315,"inst":"shamisen_v0_bowed_194","midi_source":""},{"t":198.419,"note":67,"dur":0.18,"vel":0.465,"inst":"celesta_v0_bass_374","midi_source":""},{"t":198.419,"note":75,"dur":0.359,"vel":0.591,"inst":"celesta_v0_bass_374","midi_source":""},{"t":198.599,"note":64,"dur":0.18,"vel":0.394,"inst":"shamisen_v0_bowed_194","midi_source":""},{"t":198.778,"note":60,"dur":0.18,"vel":0.362,"inst":"shamisen_v0_bowed_194","midi_source":""},{"t":198.958,"note":64,"dur":0.18,"vel":0.409,"inst":"shamisen_v0_bowed_194","midi_source":""},{"t":199.137,"note":64,"dur":0.359,"vel":0.622,"inst":"shamisen_v0_bowed_194","midi_source":""},{"t":199.137,"note":67,"dur":0.18,"vel":0.354,"inst":"celesta_v0_bass_374","midi_source":""},{"t":199.317,"note":64,"dur":0.18,"vel":0.496,"inst":"shamisen_v0_bowed_194","midi_source":""},{"t":199.496,"note":60,"dur":0.18,"vel":0.378,"inst":"shamisen_v0_bowed_194","midi_source":""},{"t":199.496,"note":75,"dur":0.359,"vel":0.661,"inst":"celesta_v0_bass_374","midi_source":""},{"t":199.676,"note":64,"dur":0.18,"vel":0.441,"inst":"shamisen_v0_bowed_194","midi_source":""},{"t":199.855,"note":67,"dur":0.18,"vel":0.496,"inst":"celesta_v0_bass_374","midi_source":""},{"t":199.855,"note":76,"dur":0.359,"vel":0.433,"inst":"shamisen_v0_bowed_194","midi_source":""},{"t":200.035,"note":64,"dur":0.18,"vel":0.449,"inst":"shamisen_v0_bowed_194","midi_source":""},{"t":200.214,"note":60,"dur":0.18,"vel":0.472,"inst":"shamisen_v0_bowed_194","midi_source":""},{"t":200.214,"note":64,"dur":0.359,"vel":0.504,"inst":"shamisen_v0_bowed_194","midi_source":""},{"t":200.394,"note":64,"dur":0.18,"vel":0.441,"inst":"shamisen_v0_bowed_194","midi_source":""},{"t":200.573,"note":67,"dur":0.18,"vel":0.449,"inst":"celesta_v0_bass_374","midi_source":""},{"t":200.573,"note":67,"dur":0.18,"vel":0.378,"inst":"celesta_v0_bass_374","midi_source":""},{"t":200.753,"note":64,"dur":0.18,"vel":0.402,"inst":"shamisen_v0_bowed_194","midi_source":""},{"t":200.932,"note":52,"dur":0.18,"vel":0.465,"inst":"shamisen_v0_bowed_194","midi_source":""},{"t":200.932,"note":69,"dur":0.18,"vel":0.488,"inst":"celesta_v0_bass_374","midi_source":""},{"t":201.112,"note":57,"dur":0.18,"vel":0.402,"inst":"celesta_v0_bass_374","midi_source":""},{"t":201.292,"note":60,"dur":0.18,"vel":0.323,"inst":"shamisen_v0_bowed_194","midi_source":""},{"t":201.292,"note":72,"dur":0.359,"vel":0.559,"inst":"shamisen_v0_bowed_194","midi_source":""},{"t":201.471,"note":57,"dur":0.18,"vel":0.417,"inst":"celesta_v0_bass_374","midi_source":""},{"t":201.651,"note":52,"dur":0.18,"vel":0.378,"inst":"shamisen_v0_bowed_194","midi_source":""},{"t":201.651,"note":75,"dur":0.18,"vel":0.496,"inst":"celesta_v0_bass_374","midi_source":""},{"t":201.83,"note":57,"dur":0.18,"vel":0.394,"inst":"celesta_v0_bass_374","midi_source":""},{"t":202.01,"note":60,"dur":0.18,"vel":0.512,"inst":"shamisen_v0_bowed_194","midi_source":""},{"t":202.189,"note":57,"dur":0.18,"vel":0.37,"inst":"celesta_v0_bass_374","midi_source":""},{"t":202.369,"note":57,"dur":0.18,"vel":0.465,"inst":"celesta_v0_bass_374","midi_source":""},{"t":202.369,"note":72,"dur":0.359,"vel":0.63,"inst":"shamisen_v0_bowed_194","midi_source":""},{"t":202.548,"note":63,"dur":0.18,"vel":0.386,"inst":"celesta_v0_bass_374","midi_source":""},{"t":202.728,"note":64,"dur":0.18,"vel":0.323,"inst":"shamisen_v0_bowed_194","midi_source":""},{"t":202.728,"note":75,"dur":0.18,"vel":0.449,"inst":"celesta_v0_bass_374","midi_source":""},{"t":202.907,"note":63,"dur":0.18,"vel":0.425,"inst":"celesta_v0_bass_374","midi_source":""},{"t":203.087,"note":57,"dur":0.18,"vel":0.441,"inst":"celesta_v0_bass_374","midi_source":""},{"t":203.087,"note":76,"dur":0.359,"vel":0.551,"inst":"shamisen_v0_bowed_194","midi_source":""},{"t":203.266,"note":63,"dur":0.18,"vel":0.354,"inst":"celesta_v0_bass_374","midi_source":""},{"t":203.446,"note":64,"dur":0.359,"vel":0.52,"inst":"shamisen_v0_bowed_194","midi_source":""},{"t":203.446,"note":64,"dur":0.18,"vel":0.496,"inst":"shamisen_v0_bowed_194","midi_source":""},{"t":203.625,"note":63,"dur":0.18,"vel":0.488,"inst":"celesta_v0_bass_374","midi_source":""},{"t":203.805,"note":57,"dur":0.18,"vel":0.449,"inst":"celesta_v0_bass_374","midi_source":""},{"t":203.805,"note":75,"dur":0.18,"vel":0.669,"inst":"celesta_v0_bass_374","midi_source":""},{"t":203.984,"note":63,"dur":0.18,"vel":0.346,"inst":"celesta_v0_bass_374","midi_source":""},{"t":204.164,"note":64,"dur":0.18,"vel":0.488,"inst":"shamisen_v0_bowed_194","midi_source":""},{"t":204.164,"note":76,"dur":0.18,"vel":0.559,"inst":"shamisen_v0_bowed_194","midi_source":""},{"t":204.343,"note":63,"dur":0.18,"vel":0.354,"inst":"celesta_v0_bass_374","midi_source":""},{"t":204.523,"note":57,"dur":0.18,"vel":0.417,"inst":"celesta_v0_bass_374","midi_source":""},{"t":204.523,"note":64,"dur":0.18,"vel":0.543,"inst":"shamisen_v0_bowed_194","midi_source":""},{"t":204.703,"note":63,"dur":0.18,"vel":0.315,"inst":"celesta_v0_bass_374","midi_source":""},{"t":204.882,"note":64,"dur":0.18,"vel":0.496,"inst":"shamisen_v0_bowed_194","midi_source":""},{"t":204.882,"note":67,"dur":0.18,"vel":0.535,"inst":"celesta_v0_bass_374","midi_source":""},{"t":205.062,"note":63,"dur":0.18,"vel":0.354,"inst":"celesta_v0_bass_374","midi_source":""},{"t":205.241,"note":52,"dur":0.18,"vel":0.402,"inst":"shamisen_v0_bowed_194","midi_source":""},{"t":205.241,"note":76,"dur":0.18,"vel":0.646,"inst":"shamisen_v0_bowed_194","midi_source":""},{"t":205.421,"note":57,"dur":0.18,"vel":0.457,"inst":"celesta_v0_bass_374","midi_source":""},{"t":205.6,"note":60,"dur":0.18,"vel":0.331,"inst":"shamisen_v0_bowed_194","midi_source":""},{"t":205.6,"note":64,"dur":0.18,"vel":0.535,"inst":"shamisen_v0_bowed_194","midi_source":""},{"t":205.78,"note":57,"dur":0.18,"vel":0.394,"inst":"celesta_v0_bass_374","midi_source":""},{"t":205.959,"note":52,"dur":0.18,"vel":0.496,"inst":"shamisen_v0_bowed_194","midi_source":""},{"t":206.139,"note":57,"dur":0.18,"vel":0.354,"inst":"celesta_v0_bass_374","midi_source":""},{"t":206.318,"note":60,"dur":0.18,"vel":0.433,"inst":"shamisen_v0_bowed_194","midi_source":""},{"t":206.318,"note":69,"dur":0.18,"vel":0.567,"inst":"celesta_v0_bass_374","midi_source":""},{"t":206.498,"note":57,"dur":0.18,"vel":0.394,"inst":"celesta_v0_bass_374","midi_source":""},{"t":212.422,"note":60,"dur":0.18,"vel":0.331,"inst":"shamisen_v0_bowed_194","midi_source":""},{"t":212.422,"note":64,"dur":0.18,"vel":0.52,"inst":"shamisen_v0_bowed_194","midi_source":""},{"t":212.602,"note":64,"dur":0.18,"vel":0.472,"inst":"shamisen_v0_bowed_194","midi_source":""},{"t":212.781,"note":67,"dur":0.359,"vel":0.449,"inst":"celesta_v0_bass_374","midi_source":""},{"t":212.781,"note":67,"dur":0.18,"vel":0.362,"inst":"celesta_v0_bass_374","midi_source":""},{"t":212.961,"note":64,"dur":0.18,"vel":0.417,"inst":"shamisen_v0_bowed_194","midi_source":""},{"t":213.14,"note":60,"dur":0.18,"vel":0.472,"inst":"shamisen_v0_bowed_194","midi_source":""},{"t":213.32,"note":64,"dur":0.18,"vel":0.425,"inst":"shamisen_v0_bowed_194","midi_source":""},{"t":213.499,"note":67,"dur":0.18,"vel":0.402,"inst":"celesta_v0_bass_374","midi_source":""},{"t":213.499,"note":69,"dur":0.359,"vel":0.528,"inst":"celesta_v0_bass_374","midi_source":""},{"t":213.679,"note":64,"dur":0.18,"vel":0.323,"inst":"shamisen_v0_bowed_194","midi_source":""},{"t":213.858,"note":57,"dur":0.18,"vel":0.441,"inst":"celesta_v0_bass_374","midi_source":""},{"t":213.858,"note":67,"dur":0.359,"vel":0.496,"inst":"celesta_v0_bass_374","midi_source":""},{"t":214.038,"note":63,"dur":0.18,"vel":0.37,"inst":"celesta_v0_bass_374","midi_source":""},{"t":214.217,"note":64,"dur":0.18,"vel":0.425,"inst":"shamisen_v0_bowed_194","midi_source":""},{"t":214.217,"note":69,"dur":0.359,"vel":0.512,"inst":"celesta_v0_bass_374","midi_source":""},{"t":214.397,"note":63,"dur":0.18,"vel":0.323,"inst":"celesta_v0_bass_374","midi_source":""},{"t":214.576,"note":57,"dur":0.18,"vel":0.378,"inst":"celesta_v0_bass_374","midi_source":""},{"t":214.576,"note":69,"dur":0.359,"vel":0.551,"inst":"celesta_v0_bass_374","midi_source":""},{"t":214.756,"note":63,"dur":0.18,"vel":0.504,"inst":"celesta_v0_bass_374","midi_source":""},{"t":214.935,"note":64,"dur":0.18,"vel":0.457,"inst":"shamisen_v0_bowed_194","midi_source":""},{"t":215.115,"note":63,"dur":0.18,"vel":0.48,"inst":"celesta_v0_bass_374","midi_source":""},{"t":215.295,"note":57,"dur":0.18,"vel":0.441,"inst":"celesta_v0_bass_374","midi_source":""},{"t":215.295,"note":69,"dur":0.18,"vel":0.52,"inst":"celesta_v0_bass_374","midi_source":""},{"t":215.474,"note":63,"dur":0.18,"vel":0.433,"inst":"celesta_v0_bass_374","midi_source":""},{"t":215.654,"note":64,"dur":0.18,"vel":0.323,"inst":"shamisen_v0_bowed_194","midi_source":""},{"t":215.654,"note":69,"dur":0.18,"vel":0.622,"inst":"celesta_v0_bass_374","midi_source":""},{"t":215.833,"note":63,"dur":0.18,"vel":0.323,"inst":"celesta_v0_bass_374","midi_source":""},{"t":216.013,"note":57,"dur":0.18,"vel":0.315,"inst":"celesta_v0_bass_374","midi_source":""},{"t":216.013,"note":72,"dur":0.18,"vel":0.465,"inst":"shamisen_v0_bowed_194","midi_source":""},{"t":216.192,"note":63,"dur":0.18,"vel":0.417,"inst":"celesta_v0_bass_374","midi_source":""},{"t":216.372,"note":64,"dur":0.18,"vel":0.402,"inst":"shamisen_v0_bowed_194","midi_source":""},{"t":216.551,"note":63,"dur":0.18,"vel":0.417,"inst":"celesta_v0_bass_374","midi_source":""},{"t":216.731,"note":57,"dur":0.18,"vel":0.339,"inst":"celesta_v0_bass_374","midi_source":""},{"t":216.731,"note":69,"dur":0.359,"vel":0.559,"inst":"celesta_v0_bass_374","midi_source":""},{"t":216.91,"note":63,"dur":0.18,"vel":0.378,"inst":"celesta_v0_bass_374","midi_source":""},{"t":217.09,"note":64,"dur":0.18,"vel":0.425,"inst":"shamisen_v0_bowed_194","midi_source":""},{"t":217.09,"note":72,"dur":0.18,"vel":0.48,"inst":"shamisen_v0_bowed_194","midi_source":""},{"t":217.269,"note":63,"dur":0.18,"vel":0.449,"inst":"celesta_v0_bass_374","midi_source":""},{"t":217.449,"note":57,"dur":0.18,"vel":0.48,"inst":"celesta_v0_bass_374","midi_source":""},{"t":217.449,"note":75,"dur":0.18,"vel":0.646,"inst":"celesta_v0_bass_374","midi_source":""},{"t":217.628,"note":63,"dur":0.18,"vel":0.402,"inst":"celesta_v0_bass_374","midi_source":""},{"t":217.808,"note":64,"dur":0.18,"vel":0.48,"inst":"shamisen_v0_bowed_194","midi_source":""},{"t":217.987,"note":63,"dur":0.18,"vel":0.386,"inst":"celesta_v0_bass_374","midi_source":""},{"t":218.167,"note":52,"dur":0.18,"vel":0.496,"inst":"shamisen_v0_bowed_194","midi_source":""},{"t":218.167,"note":67,"dur":0.18,"vel":0.528,"inst":"celesta_v0_bass_374","midi_source":""},{"t":218.346,"note":57,"dur":0.18,"vel":0.465,"inst":"celesta_v0_bass_374","midi_source":""},{"t":218.526,"note":60,"dur":0.18,"vel":0.433,"inst":"shamisen_v0_bowed_194","midi_source":""},{"t":218.526,"note":69,"dur":0.359,"vel":0.622,"inst":"celesta_v0_bass_374","midi_source":""},{"t":218.705,"note":57,"dur":0.18,"vel":0.37,"inst":"celesta_v0_bass_374","midi_source":""},{"t":218.885,"note":52,"dur":0.18,"vel":0.394,"inst":"shamisen_v0_bowed_194","midi_source":""},{"t":218.885,"note":69,"dur":0.18,"vel":0.433,"inst":"celesta_v0_bass_374","midi_source":""},{"t":219.065,"note":57,"dur":0.18,"vel":0.339,"inst":"celesta_v0_bass_374","midi_source":""},{"t":219.244,"note":60,"dur":0.18,"vel":0.433,"inst":"shamisen_v0_bowed_194","midi_source":""},{"t":219.244,"note":72,"dur":0.18,"vel":0.551,"inst":"shamisen_v0_bowed_194","midi_source":""},{"t":219.424,"note":57,"dur":0.18,"vel":0.331,"inst":"celesta_v0_bass_374","midi_source":""},{"t":219.603,"note":57,"dur":0.18,"vel":0.472,"inst":"celesta_v0_bass_374","midi_source":""},{"t":219.603,"note":69,"dur":0.359,"vel":0.528,"inst":"celesta_v0_bass_374","midi_source":""},{"t":219.783,"note":63,"dur":0.18,"vel":0.331,"inst":"celesta_v0_bass_374","midi_source":""},{"t":219.962,"note":64,"dur":0.18,"vel":0.409,"inst":"shamisen_v0_bowed_194","midi_source":""},{"t":219.962,"note":69,"dur":0.18,"vel":0.48,"inst":"celesta_v0_bass_374","midi_source":""},{"t":220.142,"note":63,"dur":0.18,"vel":0.386,"inst":"celesta_v0_bass_374","midi_source":""},{"t":220.321,"note":57,"dur":0.18,"vel":0.425,"inst":"celesta_v0_bass_374","midi_source":""},{"t":220.321,"note":72,"dur":0.18,"vel":0.457,"inst":"shamisen_v0_bowed_194","midi_source":""},{"t":220.501,"note":63,"dur":0.18,"vel":0.339,"inst":"celesta_v0_bass_374","midi_source":""},{"t":220.68,"note":64,"dur":0.18,"vel":0.378,"inst":"shamisen_v0_bowed_194","midi_source":""},{"t":220.68,"note":75,"dur":0.18,"vel":0.591,"inst":"celesta_v0_bass_374","midi_source":""},{"t":220.86,"note":63,"dur":0.18,"vel":0.386,"inst":"celesta_v0_bass_374","midi_source":""},{"t":221.039,"note":57,"dur":0.18,"vel":0.378,"inst":"celesta_v0_bass_374","midi_source":""},{"t":221.219,"note":63,"dur":0.18,"vel":0.425,"inst":"celesta_v0_bass_374","midi_source":""},{"t":221.398,"note":64,"dur":0.18,"vel":0.331,"inst":"shamisen_v0_bowed_194","midi_source":""},{"t":221.398,"note":72,"dur":0.359,"vel":0.528,"inst":"shamisen_v0_bowed_194","midi_source":""},{"t":221.578,"note":63,"dur":0.18,"vel":0.402,"inst":"celesta_v0_bass_374","midi_source":""},{"t":221.757,"note":57,"dur":0.18,"vel":0.465,"inst":"celesta_v0_bass_374","midi_source":""},{"t":221.937,"note":63,"dur":0.18,"vel":0.354,"inst":"celesta_v0_bass_374","midi_source":""},{"t":222.116,"note":64,"dur":0.18,"vel":0.433,"inst":"shamisen_v0_bowed_194","midi_source":""},{"t":222.296,"note":63,"dur":0.18,"vel":0.48,"inst":"celesta_v0_bass_374","midi_source":""},{"t":222.476,"note":57,"dur":0.18,"vel":0.362,"inst":"celesta_v0_bass_374","midi_source":""},{"t":222.476,"note":72,"dur":0.359,"vel":0.543,"inst":"shamisen_v0_bowed_194","midi_source":""},{"t":222.655,"note":63,"dur":0.18,"vel":0.457,"inst":"celesta_v0_bass_374","midi_source":""},{"t":222.835,"note":64,"dur":0.18,"vel":0.512,"inst":"shamisen_v0_bowed_194","midi_source":""},{"t":223.014,"note":63,"dur":0.18,"vel":0.496,"inst":"celesta_v0_bass_374","midi_source":""},{"t":223.194,"note":57,"dur":0.18,"vel":0.346,"inst":"celesta_v0_bass_374","midi_source":""},{"t":223.194,"note":76,"dur":0.359,"vel":0.543,"inst":"shamisen_v0_bowed_194","midi_source":""},{"t":223.373,"note":63,"dur":0.18,"vel":0.323,"inst":"celesta_v0_bass_374","midi_source":""},{"t":223.553,"note":64,"dur":0.18,"vel":0.654,"inst":"shamisen_v0_bowed_194","midi_source":""},{"t":223.553,"note":64,"dur":0.18,"vel":0.465,"inst":"shamisen_v0_bowed_194","midi_source":""},{"t":223.732,"note":63,"dur":0.18,"vel":0.472,"inst":"celesta_v0_bass_374","midi_source":""},{"t":223.912,"note":57,"dur":0.18,"vel":0.417,"inst":"celesta_v0_bass_374","midi_source":""},{"t":223.912,"note":69,"dur":0.18,"vel":0.52,"inst":"celesta_v0_bass_374","midi_source":""},{"t":224.091,"note":63,"dur":0.18,"vel":0.433,"inst":"celesta_v0_bass_374","midi_source":""},{"t":224.271,"note":64,"dur":0.18,"vel":0.472,"inst":"shamisen_v0_bowed_194","midi_source":""},{"t":224.271,"note":69,"dur":0.18,"vel":0.567,"inst":"celesta_v0_bass_374","midi_source":""},{"t":224.45,"note":63,"dur":0.18,"vel":0.394,"inst":"celesta_v0_bass_374","midi_source":""},{"t":224.63,"note":57,"dur":0.18,"vel":0.315,"inst":"celesta_v0_bass_374","midi_source":""},{"t":224.63,"note":72,"dur":0.18,"vel":0.559,"inst":"shamisen_v0_bowed_194","midi_source":""},{"t":224.809,"note":63,"dur":0.18,"vel":0.512,"inst":"celesta_v0_bass_374","midi_source":""},{"t":224.989,"note":64,"dur":0.18,"vel":0.354,"inst":"shamisen_v0_bowed_194","midi_source":""},{"t":224.989,"note":75,"dur":0.359,"vel":0.614,"inst":"celesta_v0_bass_374","midi_source":""},{"t":225.168,"note":63,"dur":0.18,"vel":0.315,"inst":"celesta_v0_bass_374","midi_source":""},{"t":225.348,"note":52,"dur":0.18,"vel":0.394,"inst":"shamisen_v0_bowed_194","midi_source":""},{"t":225.348,"note":69,"dur":0.359,"vel":0.614,"inst":"celesta_v0_bass_374","midi_source":""},{"t":225.527,"note":57,"dur":0.18,"vel":0.315,"inst":"celesta_v0_bass_374","midi_source":""},{"t":225.707,"note":60,"dur":0.18,"vel":0.37,"inst":"shamisen_v0_bowed_194","midi_source":""},{"t":225.886,"note":57,"dur":0.18,"vel":0.394,"inst":"celesta_v0_bass_374","midi_source":""},{"t":226.066,"note":52,"dur":0.18,"vel":0.465,"inst":"shamisen_v0_bowed_194","midi_source":""},{"t":226.066,"note":75,"dur":0.359,"vel":0.48,"inst":"celesta_v0_bass_374","midi_source":""},{"t":226.246,"note":57,"dur":0.18,"vel":0.323,"inst":"celesta_v0_bass_374","midi_source":""},{"t":226.425,"note":60,"dur":0.18,"vel":0.488,"inst":"shamisen_v0_bowed_194","midi_source":""},{"t":226.425,"note":76,"dur":0.18,"vel":0.63,"inst":"shamisen_v0_bowed_194","midi_source":""},{"t":226.605,"note":57,"dur":0.18,"vel":0.331,"inst":"celesta_v0_bass_374","midi_source":""},{"t":226.784,"note":60,"dur":0.18,"vel":0.339,"inst":"shamisen_v0_bowed_194","midi_source":""},{"t":226.784,"note":72,"dur":0.359,"vel":0.441,"inst":"shamisen_v0_bowed_194","midi_source":""},{"t":226.964,"note":64,"dur":0.18,"vel":0.315,"inst":"shamisen_v0_bowed_194","midi_source":""},{"t":227.143,"note":67,"dur":0.18,"vel":0.465,"inst":"celesta_v0_bass_374","midi_source":""},{"t":227.143,"note":75,"dur":0.359,"vel":0.591,"inst":"celesta_v0_bass_374","midi_source":""},{"t":227.323,"note":64,"dur":0.18,"vel":0.394,"inst":"shamisen_v0_bowed_194","midi_source":""},{"t":227.502,"note":60,"dur":0.18,"vel":0.362,"inst":"shamisen_v0_bowed_194","midi_source":""},{"t":227.682,"note":64,"dur":0.18,"vel":0.409,"inst":"shamisen_v0_bowed_194","midi_source":""},{"t":227.861,"note":64,"dur":0.359,"vel":0.622,"inst":"shamisen_v0_bowed_194","midi_source":""},{"t":227.861,"note":67,"dur":0.18,"vel":0.354,"inst":"celesta_v0_bass_374","midi_source":""},{"t":228.041,"note":64,"dur":0.18,"vel":0.496,"inst":"shamisen_v0_bowed_194","midi_source":""},{"t":228.22,"note":60,"dur":0.18,"vel":0.378,"inst":"shamisen_v0_bowed_194","midi_source":""},{"t":228.22,"note":75,"dur":0.359,"vel":0.661,"inst":"celesta_v0_bass_374","midi_source":""},{"t":228.4,"note":64,"dur":0.18,"vel":0.441,"inst":"shamisen_v0_bowed_194","midi_source":""},{"t":228.579,"note":67,"dur":0.18,"vel":0.496,"inst":"celesta_v0_bass_374","midi_source":""},{"t":228.579,"note":76,"dur":0.359,"vel":0.433,"inst":"shamisen_v0_bowed_194","midi_source":""},{"t":228.759,"note":64,"dur":0.18,"vel":0.449,"inst":"shamisen_v0_bowed_194","midi_source":""},{"t":228.938,"note":60,"dur":0.18,"vel":0.472,"inst":"shamisen_v0_bowed_194","midi_source":""},{"t":228.938,"note":64,"dur":0.359,"vel":0.504,"inst":"shamisen_v0_bowed_194","midi_source":""},{"t":229.118,"note":64,"dur":0.18,"vel":0.441,"inst":"shamisen_v0_bowed_194","midi_source":""},{"t":229.297,"note":67,"dur":0.18,"vel":0.449,"inst":"celesta_v0_bass_374","midi_source":""},{"t":229.297,"note":67,"dur":0.18,"vel":0.378,"inst":"celesta_v0_bass_374","midi_source":""},{"t":229.477,"note":64,"dur":0.18,"vel":0.402,"inst":"shamisen_v0_bowed_194","midi_source":""},{"t":229.657,"note":52,"dur":0.18,"vel":0.465,"inst":"shamisen_v0_bowed_194","midi_source":""},{"t":229.657,"note":69,"dur":0.18,"vel":0.488,"inst":"celesta_v0_bass_374","midi_source":""},{"t":229.836,"note":57,"dur":0.18,"vel":0.402,"inst":"celesta_v0_bass_374","midi_source":""},{"t":230.016,"note":60,"dur":0.18,"vel":0.323,"inst":"shamisen_v0_bowed_194","midi_source":""},{"t":230.016,"note":72,"dur":0.359,"vel":0.559,"inst":"shamisen_v0_bowed_194","midi_source":""},{"t":230.195,"note":57,"dur":0.18,"vel":0.417,"inst":"celesta_v0_bass_374","midi_source":""},{"t":230.375,"note":52,"dur":0.18,"vel":0.378,"inst":"shamisen_v0_bowed_194","midi_source":""},{"t":230.375,"note":75,"dur":0.18,"vel":0.496,"inst":"celesta_v0_bass_374","midi_source":""},{"t":230.554,"note":57,"dur":0.18,"vel":0.394,"inst":"celesta_v0_bass_374","midi_source":""},{"t":230.734,"note":60,"dur":0.18,"vel":0.512,"inst":"shamisen_v0_bowed_194","midi_source":""},{"t":230.913,"note":57,"dur":0.18,"vel":0.37,"inst":"celesta_v0_bass_374","midi_source":""},{"t":231.093,"note":57,"dur":0.18,"vel":0.465,"inst":"celesta_v0_bass_374","midi_source":""},{"t":231.093,"note":72,"dur":0.359,"vel":0.63,"inst":"shamisen_v0_bowed_194","midi_source":""},{"t":231.272,"note":63,"dur":0.18,"vel":0.386,"inst":"celesta_v0_bass_374","midi_source":""},{"t":231.452,"note":64,"dur":0.18,"vel":0.323,"inst":"shamisen_v0_bowed_194","midi_source":""},{"t":231.452,"note":75,"dur":0.18,"vel":0.449,"inst":"celesta_v0_bass_374","midi_source":""},{"t":231.631,"note":63,"dur":0.18,"vel":0.425,"inst":"celesta_v0_bass_374","midi_source":""},{"t":231.811,"note":57,"dur":0.18,"vel":0.441,"inst":"celesta_v0_bass_374","midi_source":""},{"t":231.811,"note":76,"dur":0.359,"vel":0.551,"inst":"shamisen_v0_bowed_194","midi_source":""},{"t":231.99,"note":63,"dur":0.18,"vel":0.354,"inst":"celesta_v0_bass_374","midi_source":""},{"t":232.17,"note":64,"dur":0.359,"vel":0.52,"inst":"shamisen_v0_bowed_194","midi_source":""},{"t":232.17,"note":64,"dur":0.18,"vel":0.496,"inst":"shamisen_v0_bowed_194","midi_source":""},{"t":232.349,"note":63,"dur":0.18,"vel":0.488,"inst":"celesta_v0_bass_374","midi_source":""},{"t":232.529,"note":57,"dur":0.18,"vel":0.449,"inst":"celesta_v0_bass_374","midi_source":""},{"t":232.529,"note":75,"dur":0.18,"vel":0.669,"inst":"celesta_v0_bass_374","midi_source":""},{"t":232.708,"note":63,"dur":0.18,"vel":0.346,"inst":"celesta_v0_bass_374","midi_source":""},{"t":232.888,"note":64,"dur":0.18,"vel":0.488,"inst":"shamisen_v0_bowed_194","midi_source":""},{"t":232.888,"note":76,"dur":0.18,"vel":0.559,"inst":"shamisen_v0_bowed_194","midi_source":""},{"t":233.068,"note":63,"dur":0.18,"vel":0.354,"inst":"celesta_v0_bass_374","midi_source":""},{"t":233.247,"note":57,"dur":0.18,"vel":0.417,"inst":"celesta_v0_bass_374","midi_source":""},{"t":233.247,"note":64,"dur":0.18,"vel":0.543,"inst":"shamisen_v0_bowed_194","midi_source":""},{"t":233.427,"note":63,"dur":0.18,"vel":0.315,"inst":"celesta_v0_bass_374","midi_source":""},{"t":233.606,"note":64,"dur":0.18,"vel":0.496,"inst":"shamisen_v0_bowed_194","midi_source":""},{"t":233.606,"note":67,"dur":0.18,"vel":0.535,"inst":"celesta_v0_bass_374","midi_source":""},{"t":233.786,"note":63,"dur":0.18,"vel":0.354,"inst":"celesta_v0_bass_374","midi_source":""},{"t":233.965,"note":52,"dur":0.18,"vel":0.402,"inst":"shamisen_v0_bowed_194","midi_source":""},{"t":233.965,"note":76,"dur":0.18,"vel":0.646,"inst":"shamisen_v0_bowed_194","midi_source":""},{"t":234.145,"note":57,"dur":0.18,"vel":0.457,"inst":"celesta_v0_bass_374","midi_source":""},{"t":234.324,"note":60,"dur":0.18,"vel":0.331,"inst":"shamisen_v0_bowed_194","midi_source":""},{"t":234.324,"note":64,"dur":0.18,"vel":0.535,"inst":"shamisen_v0_bowed_194","midi_source":""},{"t":234.504,"note":57,"dur":0.18,"vel":0.394,"inst":"celesta_v0_bass_374","midi_source":""},{"t":234.683,"note":52,"dur":0.18,"vel":0.496,"inst":"shamisen_v0_bowed_194","midi_source":""},{"t":234.863,"note":57,"dur":0.18,"vel":0.354,"inst":"celesta_v0_bass_374","midi_source":""},{"t":235.042,"note":60,"dur":0.18,"vel":0.433,"inst":"shamisen_v0_bowed_194","midi_source":""},{"t":235.042,"note":69,"dur":0.18,"vel":0.567,"inst":"celesta_v0_bass_374","midi_source":""},{"t":235.222,"note":57,"dur":0.18,"vel":0.394,"inst":"celesta_v0_bass_374","midi_source":""},{"t":241.146,"note":60,"dur":0.18,"vel":0.331,"inst":"shamisen_v0_bowed_194","midi_source":""},{"t":241.146,"note":64,"dur":0.18,"vel":0.52,"inst":"shamisen_v0_bowed_194","midi_source":""},{"t":241.326,"note":64,"dur":0.18,"vel":0.472,"inst":"shamisen_v0_bowed_194","midi_source":""},{"t":241.505,"note":67,"dur":0.359,"vel":0.449,"inst":"celesta_v0_bass_374","midi_source":""},{"t":241.505,"note":67,"dur":0.18,"vel":0.362,"inst":"celesta_v0_bass_374","midi_source":""},{"t":241.685,"note":64,"dur":0.18,"vel":0.417,"inst":"shamisen_v0_bowed_194","midi_source":""},{"t":241.864,"note":60,"dur":0.18,"vel":0.472,"inst":"shamisen_v0_bowed_194","midi_source":""},{"t":242.044,"note":64,"dur":0.18,"vel":0.425,"inst":"shamisen_v0_bowed_194","midi_source":""},{"t":242.223,"note":67,"dur":0.18,"vel":0.402,"inst":"celesta_v0_bass_374","midi_source":""},{"t":242.223,"note":69,"dur":0.359,"vel":0.528,"inst":"celesta_v0_bass_374","midi_source":""},{"t":242.403,"note":64,"dur":0.18,"vel":0.323,"inst":"shamisen_v0_bowed_194","midi_source":""},{"t":242.582,"note":57,"dur":0.18,"vel":0.441,"inst":"celesta_v0_bass_374","midi_source":""},{"t":242.582,"note":67,"dur":0.359,"vel":0.496,"inst":"celesta_v0_bass_374","midi_source":""},{"t":242.762,"note":63,"dur":0.18,"vel":0.37,"inst":"celesta_v0_bass_374","midi_source":""},{"t":242.941,"note":64,"dur":0.18,"vel":0.425,"inst":"shamisen_v0_bowed_194","midi_source":""},{"t":242.941,"note":69,"dur":0.359,"vel":0.512,"inst":"celesta_v0_bass_374","midi_source":""},{"t":243.121,"note":63,"dur":0.18,"vel":0.323,"inst":"celesta_v0_bass_374","midi_source":""},{"t":243.3,"note":57,"dur":0.18,"vel":0.378,"inst":"celesta_v0_bass_374","midi_source":""},{"t":243.3,"note":69,"dur":0.359,"vel":0.551,"inst":"celesta_v0_bass_374","midi_source":""},{"t":243.48,"note":63,"dur":0.18,"vel":0.504,"inst":"celesta_v0_bass_374","midi_source":""},{"t":243.659,"note":64,"dur":0.18,"vel":0.457,"inst":"shamisen_v0_bowed_194","midi_source":""},{"t":243.839,"note":63,"dur":0.18,"vel":0.48,"inst":"celesta_v0_bass_374","midi_source":""},{"t":244.019,"note":57,"dur":0.18,"vel":0.441,"inst":"celesta_v0_bass_374","midi_source":""},{"t":244.019,"note":69,"dur":0.18,"vel":0.52,"inst":"celesta_v0_bass_374","midi_source":""},{"t":244.198,"note":63,"dur":0.18,"vel":0.433,"inst":"celesta_v0_bass_374","midi_source":""},{"t":244.378,"note":64,"dur":0.18,"vel":0.323,"inst":"shamisen_v0_bowed_194","midi_source":""},{"t":244.378,"note":69,"dur":0.18,"vel":0.622,"inst":"celesta_v0_bass_374","midi_source":""},{"t":244.557,"note":63,"dur":0.18,"vel":0.323,"inst":"celesta_v0_bass_374","midi_source":""},{"t":244.737,"note":57,"dur":0.18,"vel":0.315,"inst":"celesta_v0_bass_374","midi_source":""},{"t":244.737,"note":72,"dur":0.18,"vel":0.465,"inst":"shamisen_v0_bowed_194","midi_source":""},{"t":244.916,"note":63,"dur":0.18,"vel":0.417,"inst":"celesta_v0_bass_374","midi_source":""},{"t":245.096,"note":64,"dur":0.18,"vel":0.402,"inst":"shamisen_v0_bowed_194","midi_source":""},{"t":245.275,"note":63,"dur":0.18,"vel":0.417,"inst":"celesta_v0_bass_374","midi_source":""},{"t":245.455,"note":57,"dur":0.18,"vel":0.339,"inst":"celesta_v0_bass_374","midi_source":""},{"t":245.455,"note":69,"dur":0.359,"vel":0.559,"inst":"celesta_v0_bass_374","midi_source":""},{"t":245.634,"note":63,"dur":0.18,"vel":0.378,"inst":"celesta_v0_bass_374","midi_source":""},{"t":245.814,"note":64,"dur":0.18,"vel":0.425,"inst":"shamisen_v0_bowed_194","midi_source":""},{"t":245.814,"note":72,"dur":0.18,"vel":0.48,"inst":"shamisen_v0_bowed_194","midi_source":""},{"t":245.993,"note":63,"dur":0.18,"vel":0.449,"inst":"celesta_v0_bass_374","midi_source":""},{"t":246.173,"note":57,"dur":0.18,"vel":0.48,"inst":"celesta_v0_bass_374","midi_source":""},{"t":246.173,"note":75,"dur":0.18,"vel":0.646,"inst":"celesta_v0_bass_374","midi_source":""},{"t":246.352,"note":63,"dur":0.18,"vel":0.402,"inst":"celesta_v0_bass_374","midi_source":""},{"t":246.532,"note":64,"dur":0.18,"vel":0.48,"inst":"shamisen_v0_bowed_194","midi_source":""},{"t":246.711,"note":63,"dur":0.18,"vel":0.386,"inst":"celesta_v0_bass_374","midi_source":""},{"t":246.891,"note":52,"dur":0.18,"vel":0.496,"inst":"shamisen_v0_bowed_194","midi_source":""},{"t":246.891,"note":67,"dur":0.18,"vel":0.528,"inst":"celesta_v0_bass_374","midi_source":""},{"t":247.07,"note":57,"dur":0.18,"vel":0.465,"inst":"celesta_v0_bass_374","midi_source":""},{"t":247.25,"note":60,"dur":0.18,"vel":0.433,"inst":"shamisen_v0_bowed_194","midi_source":""},{"t":247.25,"note":69,"dur":0.359,"vel":0.622,"inst":"celesta_v0_bass_374","midi_source":""},{"t":247.43,"note":57,"dur":0.18,"vel":0.37,"inst":"celesta_v0_bass_374","midi_source":""},{"t":247.609,"note":52,"dur":0.18,"vel":0.394,"inst":"shamisen_v0_bowed_194","midi_source":""},{"t":247.609,"note":69,"dur":0.18,"vel":0.433,"inst":"celesta_v0_bass_374","midi_source":""},{"t":247.789,"note":57,"dur":0.18,"vel":0.339,"inst":"celesta_v0_bass_374","midi_source":""},{"t":247.968,"note":60,"dur":0.18,"vel":0.433,"inst":"shamisen_v0_bowed_194","midi_source":""},{"t":247.968,"note":72,"dur":0.18,"vel":0.551,"inst":"shamisen_v0_bowed_194","midi_source":""},{"t":248.148,"note":57,"dur":0.18,"vel":0.331,"inst":"celesta_v0_bass_374","midi_source":""},{"t":248.327,"note":57,"dur":0.18,"vel":0.472,"inst":"celesta_v0_bass_374","midi_source":""},{"t":248.327,"note":69,"dur":0.359,"vel":0.528,"inst":"celesta_v0_bass_374","midi_source":""},{"t":248.507,"note":63,"dur":0.18,"vel":0.331,"inst":"celesta_v0_bass_374","midi_source":""},{"t":248.686,"note":64,"dur":0.18,"vel":0.409,"inst":"shamisen_v0_bowed_194","midi_source":""},{"t":248.686,"note":69,"dur":0.18,"vel":0.48,"inst":"celesta_v0_bass_374","midi_source":""},{"t":248.866,"note":63,"dur":0.18,"vel":0.386,"inst":"celesta_v0_bass_374","midi_source":""},{"t":249.045,"note":57,"dur":0.18,"vel":0.425,"inst":"celesta_v0_bass_374","midi_source":""},{"t":249.045,"note":72,"dur":0.18,"vel":0.457,"inst":"shamisen_v0_bowed_194","midi_source":""},{"t":249.225,"note":63,"dur":0.18,"vel":0.339,"inst":"celesta_v0_bass_374","midi_source":""},{"t":249.404,"note":64,"dur":0.18,"vel":0.378,"inst":"shamisen_v0_bowed_194","midi_source":""},{"t":249.404,"note":75,"dur":0.18,"vel":0.591,"inst":"celesta_v0_bass_374","midi_source":""},{"t":249.584,"note":63,"dur":0.18,"vel":0.386,"inst":"celesta_v0_bass_374","midi_source":""},{"t":249.763,"note":57,"dur":0.18,"vel":0.378,"inst":"celesta_v0_bass_374","midi_source":""},{"t":249.943,"note":63,"dur":0.18,"vel":0.425,"inst":"celesta_v0_bass_374","midi_source":""},{"t":250.122,"note":64,"dur":0.18,"vel":0.331,"inst":"shamisen_v0_bowed_194","midi_source":""},{"t":250.122,"note":72,"dur":0.359,"vel":0.528,"inst":"shamisen_v0_bowed_194","midi_source":""},{"t":250.302,"note":63,"dur":0.18,"vel":0.402,"inst":"celesta_v0_bass_374","midi_source":""},{"t":250.481,"note":57,"dur":0.18,"vel":0.465,"inst":"celesta_v0_bass_374","midi_source":""},{"t":250.661,"note":63,"dur":0.18,"vel":0.354,"inst":"celesta_v0_bass_374","midi_source":""},{"t":250.841,"note":64,"dur":0.18,"vel":0.433,"inst":"shamisen_v0_bowed_194","midi_source":""},{"t":251.02,"note":63,"dur":0.18,"vel":0.48,"inst":"celesta_v0_bass_374","midi_source":""},{"t":251.2,"note":57,"dur":0.18,"vel":0.362,"inst":"celesta_v0_bass_374","midi_source":""},{"t":251.2,"note":72,"dur":0.359,"vel":0.543,"inst":"shamisen_v0_bowed_194","midi_source":""},{"t":251.379,"note":63,"dur":0.18,"vel":0.457,"inst":"celesta_v0_bass_374","midi_source":""},{"t":251.559,"note":64,"dur":0.18,"vel":0.512,"inst":"shamisen_v0_bowed_194","midi_source":""},{"t":251.738,"note":63,"dur":0.18,"vel":0.496,"inst":"celesta_v0_bass_374","midi_source":""},{"t":251.918,"note":57,"dur":0.18,"vel":0.346,"inst":"celesta_v0_bass_374","midi_source":""},{"t":251.918,"note":76,"dur":0.359,"vel":0.543,"inst":"shamisen_v0_bowed_194","midi_source":""},{"t":252.097,"note":63,"dur":0.18,"vel":0.323,"inst":"celesta_v0_bass_374","midi_source":""},{"t":252.277,"note":64,"dur":0.18,"vel":0.654,"inst":"shamisen_v0_bowed_194","midi_source":""},{"t":252.277,"note":64,"dur":0.18,"vel":0.465,"inst":"shamisen_v0_bowed_194","midi_source":""},{"t":252.456,"note":63,"dur":0.18,"vel":0.472,"inst":"celesta_v0_bass_374","midi_source":""},{"t":252.636,"note":57,"dur":0.18,"vel":0.417,"inst":"celesta_v0_bass_374","midi_source":""},{"t":252.636,"note":69,"dur":0.18,"vel":0.52,"inst":"celesta_v0_bass_374","midi_source":""},{"t":252.815,"note":63,"dur":0.18,"vel":0.433,"inst":"celesta_v0_bass_374","midi_source":""},{"t":252.995,"note":64,"dur":0.18,"vel":0.472,"inst":"shamisen_v0_bowed_194","midi_source":""},{"t":252.995,"note":69,"dur":0.18,"vel":0.567,"inst":"celesta_v0_bass_374","midi_source":""},{"t":253.174,"note":63,"dur":0.18,"vel":0.394,"inst":"celesta_v0_bass_374","midi_source":""},{"t":253.354,"note":57,"dur":0.18,"vel":0.315,"inst":"celesta_v0_bass_374","midi_source":""},{"t":253.354,"note":72,"dur":0.18,"vel":0.559,"inst":"shamisen_v0_bowed_194","midi_source":""},{"t":253.533,"note":63,"dur":0.18,"vel":0.512,"inst":"celesta_v0_bass_374","midi_source":""},{"t":253.713,"note":64,"dur":0.18,"vel":0.354,"inst":"shamisen_v0_bowed_194","midi_source":""},{"t":253.713,"note":75,"dur":0.359,"vel":0.614,"inst":"celesta_v0_bass_374","midi_source":""},{"t":253.892,"note":63,"dur":0.18,"vel":0.315,"inst":"celesta_v0_bass_374","midi_source":""},{"t":254.072,"note":52,"dur":0.18,"vel":0.394,"inst":"shamisen_v0_bowed_194","midi_source":""},{"t":254.072,"note":69,"dur":0.359,"vel":0.614,"inst":"celesta_v0_bass_374","midi_source":""},{"t":254.251,"note":57,"dur":0.18,"vel":0.315,"inst":"celesta_v0_bass_374","midi_source":""},{"t":254.431,"note":60,"dur":0.18,"vel":0.37,"inst":"shamisen_v0_bowed_194","midi_source":""},{"t":254.611,"note":57,"dur":0.18,"vel":0.394,"inst":"celesta_v0_bass_374","midi_source":""},{"t":254.79,"note":52,"dur":0.18,"vel":0.465,"inst":"shamisen_v0_bowed_194","midi_source":""},{"t":254.79,"note":75,"dur":0.359,"vel":0.48,"inst":"celesta_v0_bass_374","midi_source":""},{"t":254.97,"note":57,"dur":0.18,"vel":0.323,"inst":"celesta_v0_bass_374","midi_source":""},{"t":255.149,"note":60,"dur":0.18,"vel":0.488,"inst":"shamisen_v0_bowed_194","midi_source":""},{"t":255.149,"note":76,"dur":0.18,"vel":0.63,"inst":"shamisen_v0_bowed_194","midi_source":""},{"t":255.329,"note":57,"dur":0.18,"vel":0.331,"inst":"celesta_v0_bass_374","midi_source":""},{"t":255.508,"note":60,"dur":0.18,"vel":0.339,"inst":"shamisen_v0_bowed_194","midi_source":""},{"t":255.508,"note":72,"dur":0.359,"vel":0.441,"inst":"shamisen_v0_bowed_194","midi_source":""},{"t":255.688,"note":64,"dur":0.18,"vel":0.315,"inst":"shamisen_v0_bowed_194","midi_source":""},{"t":255.867,"note":67,"dur":0.18,"vel":0.465,"inst":"celesta_v0_bass_374","midi_source":""},{"t":255.867,"note":75,"dur":0.359,"vel":0.591,"inst":"celesta_v0_bass_374","midi_source":""},{"t":256.047,"note":64,"dur":0.18,"vel":0.394,"inst":"shamisen_v0_bowed_194","midi_source":""},{"t":256.226,"note":60,"dur":0.18,"vel":0.362,"inst":"shamisen_v0_bowed_194","midi_source":""},{"t":256.406,"note":64,"dur":0.18,"vel":0.409,"inst":"shamisen_v0_bowed_194","midi_source":""},{"t":256.585,"note":64,"dur":0.359,"vel":0.622,"inst":"shamisen_v0_bowed_194","midi_source":""},{"t":256.585,"note":67,"dur":0.18,"vel":0.354,"inst":"celesta_v0_bass_374","midi_source":""},{"t":256.765,"note":64,"dur":0.18,"vel":0.496,"inst":"shamisen_v0_bowed_194","midi_source":""},{"t":256.944,"note":60,"dur":0.18,"vel":0.378,"inst":"shamisen_v0_bowed_194","midi_source":""},{"t":256.944,"note":75,"dur":0.359,"vel":0.661,"inst":"celesta_v0_bass_374","midi_source":""},{"t":257.124,"note":64,"dur":0.18,"vel":0.441,"inst":"shamisen_v0_bowed_194","midi_source":""},{"t":257.303,"note":67,"dur":0.18,"vel":0.496,"inst":"celesta_v0_bass_374","midi_source":""},{"t":257.303,"note":76,"dur":0.359,"vel":0.433,"inst":"shamisen_v0_bowed_194","midi_source":""},{"t":257.483,"note":64,"dur":0.18,"vel":0.449,"inst":"shamisen_v0_bowed_194","midi_source":""},{"t":257.662,"note":60,"dur":0.18,"vel":0.472,"inst":"shamisen_v0_bowed_194","midi_source":""},{"t":257.662,"note":64,"dur":0.359,"vel":0.504,"inst":"shamisen_v0_bowed_194","midi_source":""},{"t":257.842,"note":64,"dur":0.18,"vel":0.441,"inst":"shamisen_v0_bowed_194","midi_source":""},{"t":258.022,"note":67,"dur":0.18,"vel":0.449,"inst":"celesta_v0_bass_374","midi_source":""},{"t":258.022,"note":67,"dur":0.18,"vel":0.378,"inst":"celesta_v0_bass_374","midi_source":""},{"t":258.201,"note":64,"dur":0.18,"vel":0.402,"inst":"shamisen_v0_bowed_194","midi_source":""},{"t":258.381,"note":52,"dur":0.18,"vel":0.465,"inst":"shamisen_v0_bowed_194","midi_source":""},{"t":258.381,"note":69,"dur":0.18,"vel":0.488,"inst":"celesta_v0_bass_374","midi_source":""},{"t":258.56,"note":57,"dur":0.18,"vel":0.402,"inst":"celesta_v0_bass_374","midi_source":""},{"t":258.74,"note":60,"dur":0.18,"vel":0.323,"inst":"shamisen_v0_bowed_194","midi_source":""},{"t":258.74,"note":72,"dur":0.359,"vel":0.559,"inst":"shamisen_v0_bowed_194","midi_source":""},{"t":258.919,"note":57,"dur":0.18,"vel":0.417,"inst":"celesta_v0_bass_374","midi_source":""},{"t":259.099,"note":52,"dur":0.18,"vel":0.378,"inst":"shamisen_v0_bowed_194","midi_source":""},{"t":259.099,"note":75,"dur":0.18,"vel":0.496,"inst":"celesta_v0_bass_374","midi_source":""},{"t":259.278,"note":57,"dur":0.18,"vel":0.394,"inst":"celesta_v0_bass_374","midi_source":""},{"t":259.458,"note":60,"dur":0.18,"vel":0.512,"inst":"shamisen_v0_bowed_194","midi_source":""},{"t":259.637,"note":57,"dur":0.18,"vel":0.37,"inst":"celesta_v0_bass_374","midi_source":""},{"t":259.817,"note":57,"dur":0.18,"vel":0.465,"inst":"celesta_v0_bass_374","midi_source":""},{"t":259.817,"note":72,"dur":0.359,"vel":0.63,"inst":"shamisen_v0_bowed_194","midi_source":""},{"t":259.996,"note":63,"dur":0.18,"vel":0.386,"inst":"celesta_v0_bass_374","midi_source":""},{"t":260.176,"note":64,"dur":0.18,"vel":0.323,"inst":"shamisen_v0_bowed_194","midi_source":""},{"t":260.176,"note":75,"dur":0.18,"vel":0.449,"inst":"celesta_v0_bass_374","midi_source":""},{"t":260.355,"note":63,"dur":0.18,"vel":0.425,"inst":"celesta_v0_bass_374","midi_source":""},{"t":260.535,"note":57,"dur":0.18,"vel":0.441,"inst":"celesta_v0_bass_374","midi_source":""},{"t":260.535,"note":76,"dur":0.359,"vel":0.551,"inst":"shamisen_v0_bowed_194","midi_source":""},{"t":260.714,"note":63,"dur":0.18,"vel":0.354,"inst":"celesta_v0_bass_374","midi_source":""},{"t":260.894,"note":64,"dur":0.359,"vel":0.52,"inst":"shamisen_v0_bowed_194","midi_source":""},{"t":260.894,"note":64,"dur":0.18,"vel":0.496,"inst":"shamisen_v0_bowed_194","midi_source":""},{"t":261.073,"note":63,"dur":0.18,"vel":0.488,"inst":"celesta_v0_bass_374","midi_source":""},{"t":261.253,"note":57,"dur":0.18,"vel":0.449,"inst":"celesta_v0_bass_374","midi_source":""},{"t":261.253,"note":75,"dur":0.18,"vel":0.669,"inst":"celesta_v0_bass_374","midi_source":""},{"t":261.432,"note":63,"dur":0.18,"vel":0.346,"inst":"celesta_v0_bass_374","midi_source":""},{"t":261.612,"note":64,"dur":0.18,"vel":0.488,"inst":"shamisen_v0_bowed_194","midi_source":""},{"t":261.612,"note":76,"dur":0.18,"vel":0.559,"inst":"shamisen_v0_bowed_194","midi_source":""},{"t":261.792,"note":63,"dur":0.18,"vel":0.354,"inst":"celesta_v0_bass_374","midi_source":""},{"t":261.971,"note":57,"dur":0.18,"vel":0.417,"inst":"celesta_v0_bass_374","midi_source":""},{"t":261.971,"note":64,"dur":0.18,"vel":0.543,"inst":"shamisen_v0_bowed_194","midi_source":""},{"t":262.151,"note":63,"dur":0.18,"vel":0.315,"inst":"celesta_v0_bass_374","midi_source":""},{"t":262.33,"note":64,"dur":0.18,"vel":0.496,"inst":"shamisen_v0_bowed_194","midi_source":""},{"t":262.33,"note":67,"dur":0.18,"vel":0.535,"inst":"celesta_v0_bass_374","midi_source":""},{"t":262.51,"note":63,"dur":0.18,"vel":0.354,"inst":"celesta_v0_bass_374","midi_source":""},{"t":262.689,"note":52,"dur":0.18,"vel":0.402,"inst":"shamisen_v0_bowed_194","midi_source":""},{"t":262.689,"note":76,"dur":0.18,"vel":0.646,"inst":"shamisen_v0_bowed_194","midi_source":""},{"t":262.869,"note":57,"dur":0.18,"vel":0.457,"inst":"celesta_v0_bass_374","midi_source":""},{"t":263.048,"note":60,"dur":0.18,"vel":0.331,"inst":"shamisen_v0_bowed_194","midi_source":""},{"t":263.048,"note":64,"dur":0.18,"vel":0.535,"inst":"shamisen_v0_bowed_194","midi_source":""},{"t":263.228,"note":57,"dur":0.18,"vel":0.394,"inst":"celesta_v0_bass_374","midi_source":""},{"t":263.407,"note":52,"dur":0.18,"vel":0.496,"inst":"shamisen_v0_bowed_194","midi_source":""},{"t":263.587,"note":57,"dur":0.18,"vel":0.354,"inst":"celesta_v0_bass_374","midi_source":""},{"t":263.766,"note":60,"dur":0.18,"vel":0.433,"inst":"shamisen_v0_bowed_194","midi_source":""},{"t":263.766,"note":69,"dur":0.18,"vel":0.567,"inst":"celesta_v0_bass_374","midi_source":""},{"t":263.946,"note":57,"dur":0.18,"vel":0.394,"inst":"celesta_v0_bass_374","midi_source":""},{"t":269.87,"note":60,"dur":0.18,"vel":0.331,"inst":"shamisen_v0_bowed_194","midi_source":""},{"t":269.87,"note":64,"dur":0.18,"vel":0.52,"inst":"shamisen_v0_bowed_194","midi_source":""},{"t":270.05,"note":64,"dur":0.18,"vel":0.472,"inst":"shamisen_v0_bowed_194","midi_source":""},{"t":270.229,"note":67,"dur":0.359,"vel":0.449,"inst":"celesta_v0_bass_374","midi_source":""},{"t":270.229,"note":67,"dur":0.18,"vel":0.362,"inst":"celesta_v0_bass_374","midi_source":""},{"t":270.409,"note":64,"dur":0.18,"vel":0.417,"inst":"shamisen_v0_bowed_194","midi_source":""},{"t":270.588,"note":60,"dur":0.18,"vel":0.472,"inst":"shamisen_v0_bowed_194","midi_source":""},{"t":270.768,"note":64,"dur":0.18,"vel":0.425,"inst":"shamisen_v0_bowed_194","midi_source":""},{"t":270.947,"note":67,"dur":0.18,"vel":0.402,"inst":"celesta_v0_bass_374","midi_source":""},{"t":270.947,"note":69,"dur":0.359,"vel":0.528,"inst":"celesta_v0_bass_374","midi_source":""},{"t":271.127,"note":64,"dur":0.18,"vel":0.323,"inst":"shamisen_v0_bowed_194","midi_source":""},{"t":271.306,"note":57,"dur":0.18,"vel":0.441,"inst":"celesta_v0_bass_374","midi_source":""},{"t":271.306,"note":67,"dur":0.359,"vel":0.496,"inst":"celesta_v0_bass_374","midi_source":""},{"t":271.486,"note":63,"dur":0.18,"vel":0.37,"inst":"celesta_v0_bass_374","midi_source":""},{"t":271.665,"note":64,"dur":0.18,"vel":0.425,"inst":"shamisen_v0_bowed_194","midi_source":""},{"t":271.665,"note":69,"dur":0.359,"vel":0.512,"inst":"celesta_v0_bass_374","midi_source":""},{"t":271.845,"note":63,"dur":0.18,"vel":0.323,"inst":"celesta_v0_bass_374","midi_source":""},{"t":272.024,"note":57,"dur":0.18,"vel":0.378,"inst":"celesta_v0_bass_374","midi_source":""},{"t":272.024,"note":69,"dur":0.359,"vel":0.551,"inst":"celesta_v0_bass_374","midi_source":""},{"t":272.204,"note":63,"dur":0.18,"vel":0.504,"inst":"celesta_v0_bass_374","midi_source":""},{"t":272.384,"note":64,"dur":0.18,"vel":0.457,"inst":"shamisen_v0_bowed_194","midi_source":""},{"t":272.563,"note":63,"dur":0.18,"vel":0.48,"inst":"celesta_v0_bass_374","midi_source":""},{"t":272.743,"note":57,"dur":0.18,"vel":0.441,"inst":"celesta_v0_bass_374","midi_source":""},{"t":272.743,"note":69,"dur":0.18,"vel":0.52,"inst":"celesta_v0_bass_374","midi_source":""},{"t":272.922,"note":63,"dur":0.18,"vel":0.433,"inst":"celesta_v0_bass_374","midi_source":""},{"t":273.102,"note":64,"dur":0.18,"vel":0.323,"inst":"shamisen_v0_bowed_194","midi_source":""},{"t":273.102,"note":69,"dur":0.18,"vel":0.622,"inst":"celesta_v0_bass_374","midi_source":""},{"t":273.281,"note":63,"dur":0.18,"vel":0.323,"inst":"celesta_v0_bass_374","midi_source":""},{"t":273.461,"note":57,"dur":0.18,"vel":0.315,"inst":"celesta_v0_bass_374","midi_source":""},{"t":273.461,"note":72,"dur":0.18,"vel":0.465,"inst":"shamisen_v0_bowed_194","midi_source":""},{"t":273.64,"note":63,"dur":0.18,"vel":0.417,"inst":"celesta_v0_bass_374","midi_source":""},{"t":273.82,"note":64,"dur":0.18,"vel":0.402,"inst":"shamisen_v0_bowed_194","midi_source":""},{"t":273.999,"note":63,"dur":0.18,"vel":0.417,"inst":"celesta_v0_bass_374","midi_source":""},{"t":274.179,"note":57,"dur":0.18,"vel":0.339,"inst":"celesta_v0_bass_374","midi_source":""},{"t":274.179,"note":69,"dur":0.359,"vel":0.559,"inst":"celesta_v0_bass_374","midi_source":""},{"t":274.358,"note":63,"dur":0.18,"vel":0.378,"inst":"celesta_v0_bass_374","midi_source":""},{"t":274.538,"note":64,"dur":0.18,"vel":0.425,"inst":"shamisen_v0_bowed_194","midi_source":""},{"t":274.538,"note":72,"dur":0.18,"vel":0.48,"inst":"shamisen_v0_bowed_194","midi_source":""},{"t":274.717,"note":63,"dur":0.18,"vel":0.449,"inst":"celesta_v0_bass_374","midi_source":""},{"t":274.897,"note":57,"dur":0.18,"vel":0.48,"inst":"celesta_v0_bass_374","midi_source":""},{"t":274.897,"note":75,"dur":0.18,"vel":0.646,"inst":"celesta_v0_bass_374","midi_source":""},{"t":275.076,"note":63,"dur":0.18,"vel":0.402,"inst":"celesta_v0_bass_374","midi_source":""},{"t":275.256,"note":64,"dur":0.18,"vel":0.48,"inst":"shamisen_v0_bowed_194","midi_source":""},{"t":275.435,"note":63,"dur":0.18,"vel":0.386,"inst":"celesta_v0_bass_374","midi_source":""},{"t":275.615,"note":52,"dur":0.18,"vel":0.496,"inst":"shamisen_v0_bowed_194","midi_source":""},{"t":275.615,"note":67,"dur":0.18,"vel":0.528,"inst":"celesta_v0_bass_374","midi_source":""},{"t":275.795,"note":57,"dur":0.18,"vel":0.465,"inst":"celesta_v0_bass_374","midi_source":""},{"t":275.974,"note":60,"dur":0.18,"vel":0.433,"inst":"shamisen_v0_bowed_194","midi_source":""},{"t":275.974,"note":69,"dur":0.359,"vel":0.622,"inst":"celesta_v0_bass_374","midi_source":""},{"t":276.154,"note":57,"dur":0.18,"vel":0.37,"inst":"celesta_v0_bass_374","midi_source":""},{"t":276.333,"note":52,"dur":0.18,"vel":0.394,"inst":"shamisen_v0_bowed_194","midi_source":""},{"t":276.333,"note":69,"dur":0.18,"vel":0.433,"inst":"celesta_v0_bass_374","midi_source":""},{"t":276.513,"note":57,"dur":0.18,"vel":0.339,"inst":"celesta_v0_bass_374","midi_source":""},{"t":276.692,"note":60,"dur":0.18,"vel":0.433,"inst":"shamisen_v0_bowed_194","midi_source":""},{"t":276.692,"note":72,"dur":0.18,"vel":0.551,"inst":"shamisen_v0_bowed_194","midi_source":""},{"t":276.872,"note":57,"dur":0.18,"vel":0.331,"inst":"celesta_v0_bass_374","midi_source":""},{"t":277.051,"note":57,"dur":0.18,"vel":0.472,"inst":"celesta_v0_bass_374","midi_source":""},{"t":277.051,"note":69,"dur":0.359,"vel":0.528,"inst":"celesta_v0_bass_374","midi_source":""},{"t":277.231,"note":63,"dur":0.18,"vel":0.331,"inst":"celesta_v0_bass_374","midi_source":""},{"t":277.41,"note":64,"dur":0.18,"vel":0.409,"inst":"shamisen_v0_bowed_194","midi_source":""},{"t":277.41,"note":69,"dur":0.18,"vel":0.48,"inst":"celesta_v0_bass_374","midi_source":""},{"t":277.59,"note":63,"dur":0.18,"vel":0.386,"inst":"celesta_v0_bass_374","midi_source":""},{"t":277.769,"note":57,"dur":0.18,"vel":0.425,"inst":"celesta_v0_bass_374","midi_source":""},{"t":277.769,"note":72,"dur":0.18,"vel":0.457,"inst":"shamisen_v0_bowed_194","midi_source":""},{"t":277.949,"note":63,"dur":0.18,"vel":0.339,"inst":"celesta_v0_bass_374","midi_source":""},{"t":278.128,"note":64,"dur":0.18,"vel":0.378,"inst":"shamisen_v0_bowed_194","midi_source":""},{"t":278.128,"note":75,"dur":0.18,"vel":0.591,"inst":"celesta_v0_bass_374","midi_source":""},{"t":278.308,"note":63,"dur":0.18,"vel":0.386,"inst":"celesta_v0_bass_374","midi_source":""},{"t":278.487,"note":57,"dur":0.18,"vel":0.378,"inst":"celesta_v0_bass_374","midi_source":""},{"t":278.667,"note":63,"dur":0.18,"vel":0.425,"inst":"celesta_v0_bass_374","midi_source":""},{"t":278.846,"note":64,"dur":0.18,"vel":0.331,"inst":"shamisen_v0_bowed_194","midi_source":""},{"t":278.846,"note":72,"dur":0.359,"vel":0.528,"inst":"shamisen_v0_bowed_194","midi_source":""},{"t":279.026,"note":63,"dur":0.18,"vel":0.402,"inst":"celesta_v0_bass_374","midi_source":""},{"t":279.205,"note":57,"dur":0.18,"vel":0.465,"inst":"celesta_v0_bass_374","midi_source":""},{"t":279.385,"note":63,"dur":0.18,"vel":0.354,"inst":"celesta_v0_bass_374","midi_source":""},{"t":279.565,"note":64,"dur":0.18,"vel":0.433,"inst":"shamisen_v0_bowed_194","midi_source":""},{"t":279.744,"note":63,"dur":0.18,"vel":0.48,"inst":"celesta_v0_bass_374","midi_source":""},{"t":279.924,"note":57,"dur":0.18,"vel":0.362,"inst":"celesta_v0_bass_374","midi_source":""},{"t":279.924,"note":72,"dur":0.359,"vel":0.543,"inst":"shamisen_v0_bowed_194","midi_source":""},{"t":280.103,"note":63,"dur":0.18,"vel":0.457,"inst":"celesta_v0_bass_374","midi_source":""},{"t":280.283,"note":64,"dur":0.18,"vel":0.512,"inst":"shamisen_v0_bowed_194","midi_source":""},{"t":280.462,"note":63,"dur":0.18,"vel":0.496,"inst":"celesta_v0_bass_374","midi_source":""},{"t":280.642,"note":57,"dur":0.18,"vel":0.346,"inst":"celesta_v0_bass_374","midi_source":""},{"t":280.642,"note":76,"dur":0.359,"vel":0.543,"inst":"shamisen_v0_bowed_194","midi_source":""},{"t":280.821,"note":63,"dur":0.18,"vel":0.323,"inst":"celesta_v0_bass_374","midi_source":""},{"t":281.001,"note":64,"dur":0.18,"vel":0.654,"inst":"shamisen_v0_bowed_194","midi_source":""},{"t":281.001,"note":64,"dur":0.18,"vel":0.465,"inst":"shamisen_v0_bowed_194","midi_source":""},{"t":281.18,"note":63,"dur":0.18,"vel":0.472,"inst":"celesta_v0_bass_374","midi_source":""},{"t":281.36,"note":57,"dur":0.18,"vel":0.417,"inst":"celesta_v0_bass_374","midi_source":""},{"t":281.36,"note":69,"dur":0.18,"vel":0.52,"inst":"celesta_v0_bass_374","midi_source":""},{"t":281.539,"note":63,"dur":0.18,"vel":0.433,"inst":"celesta_v0_bass_374","midi_source":""},{"t":281.719,"note":64,"dur":0.18,"vel":0.472,"inst":"shamisen_v0_bowed_194","midi_source":""},{"t":281.719,"note":69,"dur":0.18,"vel":0.567,"inst":"celesta_v0_bass_374","midi_source":""},{"t":281.898,"note":63,"dur":0.18,"vel":0.394,"inst":"celesta_v0_bass_374","midi_source":""},{"t":282.078,"note":57,"dur":0.18,"vel":0.315,"inst":"celesta_v0_bass_374","midi_source":""},{"t":282.078,"note":72,"dur":0.18,"vel":0.559,"inst":"shamisen_v0_bowed_194","midi_source":""},{"t":282.257,"note":63,"dur":0.18,"vel":0.512,"inst":"celesta_v0_bass_374","midi_source":""},{"t":282.437,"note":64,"dur":0.18,"vel":0.354,"inst":"shamisen_v0_bowed_194","midi_source":""},{"t":282.437,"note":75,"dur":0.359,"vel":0.614,"inst":"celesta_v0_bass_374","midi_source":""},{"t":282.616,"note":63,"dur":0.18,"vel":0.315,"inst":"celesta_v0_bass_374","midi_source":""},{"t":282.796,"note":52,"dur":0.18,"vel":0.394,"inst":"shamisen_v0_bowed_194","midi_source":""},{"t":282.796,"note":69,"dur":0.359,"vel":0.614,"inst":"celesta_v0_bass_374","midi_source":""},{"t":282.976,"note":57,"dur":0.18,"vel":0.315,"inst":"celesta_v0_bass_374","midi_source":""},{"t":283.155,"note":60,"dur":0.18,"vel":0.37,"inst":"shamisen_v0_bowed_194","midi_source":""},{"t":283.335,"note":57,"dur":0.18,"vel":0.394,"inst":"celesta_v0_bass_374","midi_source":""},{"t":283.514,"note":52,"dur":0.18,"vel":0.465,"inst":"shamisen_v0_bowed_194","midi_source":""},{"t":283.514,"note":75,"dur":0.359,"vel":0.48,"inst":"celesta_v0_bass_374","midi_source":""},{"t":283.694,"note":57,"dur":0.18,"vel":0.323,"inst":"celesta_v0_bass_374","midi_source":""},{"t":283.873,"note":60,"dur":0.18,"vel":0.488,"inst":"shamisen_v0_bowed_194","midi_source":""},{"t":283.873,"note":76,"dur":0.18,"vel":0.63,"inst":"shamisen_v0_bowed_194","midi_source":""},{"t":284.053,"note":57,"dur":0.18,"vel":0.331,"inst":"celesta_v0_bass_374","midi_source":""},{"t":284.232,"note":60,"dur":0.18,"vel":0.339,"inst":"shamisen_v0_bowed_194","midi_source":""},{"t":284.232,"note":72,"dur":0.359,"vel":0.441,"inst":"shamisen_v0_bowed_194","midi_source":""},{"t":284.412,"note":64,"dur":0.18,"vel":0.315,"inst":"shamisen_v0_bowed_194","midi_source":""},{"t":284.591,"note":67,"dur":0.18,"vel":0.465,"inst":"celesta_v0_bass_374","midi_source":""},{"t":284.591,"note":75,"dur":0.359,"vel":0.591,"inst":"celesta_v0_bass_374","midi_source":""},{"t":284.771,"note":64,"dur":0.18,"vel":0.394,"inst":"shamisen_v0_bowed_194","midi_source":""},{"t":284.95,"note":60,"dur":0.18,"vel":0.362,"inst":"shamisen_v0_bowed_194","midi_source":""},{"t":285.13,"note":64,"dur":0.18,"vel":0.409,"inst":"shamisen_v0_bowed_194","midi_source":""},{"t":285.309,"note":64,"dur":0.359,"vel":0.622,"inst":"shamisen_v0_bowed_194","midi_source":""},{"t":285.309,"note":67,"dur":0.18,"vel":0.354,"inst":"celesta_v0_bass_374","midi_source":""},{"t":285.489,"note":64,"dur":0.18,"vel":0.496,"inst":"shamisen_v0_bowed_194","midi_source":""},{"t":285.668,"note":60,"dur":0.18,"vel":0.378,"inst":"shamisen_v0_bowed_194","midi_source":""},{"t":285.668,"note":75,"dur":0.359,"vel":0.661,"inst":"celesta_v0_bass_374","midi_source":""},{"t":285.848,"note":64,"dur":0.18,"vel":0.441,"inst":"shamisen_v0_bowed_194","midi_source":""},{"t":286.027,"note":67,"dur":0.18,"vel":0.496,"inst":"celesta_v0_bass_374","midi_source":""},{"t":286.027,"note":76,"dur":0.359,"vel":0.433,"inst":"shamisen_v0_bowed_194","midi_source":""},{"t":286.207,"note":64,"dur":0.18,"vel":0.449,"inst":"shamisen_v0_bowed_194","midi_source":""},{"t":286.386,"note":60,"dur":0.18,"vel":0.472,"inst":"shamisen_v0_bowed_194","midi_source":""},{"t":286.386,"note":64,"dur":0.359,"vel":0.504,"inst":"shamisen_v0_bowed_194","midi_source":""},{"t":286.566,"note":64,"dur":0.18,"vel":0.441,"inst":"shamisen_v0_bowed_194","midi_source":""},{"t":286.746,"note":67,"dur":0.18,"vel":0.449,"inst":"celesta_v0_bass_374","midi_source":""},{"t":286.746,"note":67,"dur":0.18,"vel":0.378,"inst":"celesta_v0_bass_374","midi_source":""},{"t":286.925,"note":64,"dur":0.18,"vel":0.402,"inst":"shamisen_v0_bowed_194","midi_source":""},{"t":287.105,"note":52,"dur":0.18,"vel":0.465,"inst":"shamisen_v0_bowed_194","midi_source":""},{"t":287.105,"note":69,"dur":0.18,"vel":0.488,"inst":"celesta_v0_bass_374","midi_source":""},{"t":287.284,"note":57,"dur":0.18,"vel":0.402,"inst":"celesta_v0_bass_374","midi_source":""},{"t":287.464,"note":60,"dur":0.18,"vel":0.323,"inst":"shamisen_v0_bowed_194","midi_source":""},{"t":287.464,"note":72,"dur":0.359,"vel":0.559,"inst":"shamisen_v0_bowed_194","midi_source":""},{"t":287.643,"note":57,"dur":0.18,"vel":0.417,"inst":"celesta_v0_bass_374","midi_source":""},{"t":287.823,"note":52,"dur":0.18,"vel":0.378,"inst":"shamisen_v0_bowed_194","midi_source":""},{"t":287.823,"note":75,"dur":0.18,"vel":0.496,"inst":"celesta_v0_bass_374","midi_source":""},{"t":288.002,"note":57,"dur":0.18,"vel":0.394,"inst":"celesta_v0_bass_374","midi_source":""},{"t":288.182,"note":60,"dur":0.18,"vel":0.512,"inst":"shamisen_v0_bowed_194","midi_source":""},{"t":288.361,"note":57,"dur":0.18,"vel":0.37,"inst":"celesta_v0_bass_374","midi_source":""},{"t":288.541,"note":57,"dur":0.18,"vel":0.465,"inst":"celesta_v0_bass_374","midi_source":""},{"t":288.541,"note":72,"dur":0.359,"vel":0.63,"inst":"shamisen_v0_bowed_194","midi_source":""},{"t":288.72,"note":63,"dur":0.18,"vel":0.386,"inst":"celesta_v0_bass_374","midi_source":""},{"t":288.9,"note":64,"dur":0.18,"vel":0.323,"inst":"shamisen_v0_bowed_194","midi_source":""},{"t":288.9,"note":75,"dur":0.18,"vel":0.449,"inst":"celesta_v0_bass_374","midi_source":""},{"t":289.079,"note":63,"dur":0.18,"vel":0.425,"inst":"celesta_v0_bass_374","midi_source":""},{"t":289.259,"note":57,"dur":0.18,"vel":0.441,"inst":"celesta_v0_bass_374","midi_source":""},{"t":289.259,"note":76,"dur":0.359,"vel":0.551,"inst":"shamisen_v0_bowed_194","midi_source":""},{"t":289.438,"note":63,"dur":0.18,"vel":0.354,"inst":"celesta_v0_bass_374","midi_source":""},{"t":289.618,"note":64,"dur":0.359,"vel":0.52,"inst":"shamisen_v0_bowed_194","midi_source":""},{"t":289.618,"note":64,"dur":0.18,"vel":0.496,"inst":"shamisen_v0_bowed_194","midi_source":""},{"t":289.797,"note":63,"dur":0.18,"vel":0.488,"inst":"celesta_v0_bass_374","midi_source":""},{"t":289.977,"note":57,"dur":0.18,"vel":0.449,"inst":"celesta_v0_bass_374","midi_source":""},{"t":289.977,"note":75,"dur":0.18,"vel":0.669,"inst":"celesta_v0_bass_374","midi_source":""},{"t":290.157,"note":63,"dur":0.18,"vel":0.346,"inst":"celesta_v0_bass_374","midi_source":""},{"t":290.336,"note":64,"dur":0.18,"vel":0.488,"inst":"shamisen_v0_bowed_194","midi_source":""},{"t":290.336,"note":76,"dur":0.18,"vel":0.559,"inst":"shamisen_v0_bowed_194","midi_source":""},{"t":290.516,"note":63,"dur":0.18,"vel":0.354,"inst":"celesta_v0_bass_374","midi_source":""},{"t":290.695,"note":57,"dur":0.18,"vel":0.417,"inst":"celesta_v0_bass_374","midi_source":""},{"t":290.695,"note":64,"dur":0.18,"vel":0.543,"inst":"shamisen_v0_bowed_194","midi_source":""},{"t":290.875,"note":63,"dur":0.18,"vel":0.315,"inst":"celesta_v0_bass_374","midi_source":""},{"t":291.054,"note":64,"dur":0.18,"vel":0.496,"inst":"shamisen_v0_bowed_194","midi_source":""},{"t":291.054,"note":67,"dur":0.18,"vel":0.535,"inst":"celesta_v0_bass_374","midi_source":""},{"t":291.234,"note":63,"dur":0.18,"vel":0.354,"inst":"celesta_v0_bass_374","midi_source":""},{"t":291.413,"note":52,"dur":0.18,"vel":0.402,"inst":"shamisen_v0_bowed_194","midi_source":""},{"t":291.413,"note":76,"dur":0.18,"vel":0.646,"inst":"shamisen_v0_bowed_194","midi_source":""},{"t":291.593,"note":57,"dur":0.18,"vel":0.457,"inst":"celesta_v0_bass_374","midi_source":""},{"t":291.772,"note":60,"dur":0.18,"vel":0.331,"inst":"shamisen_v0_bowed_194","midi_source":""},{"t":291.772,"note":64,"dur":0.18,"vel":0.535,"inst":"shamisen_v0_bowed_194","midi_source":""},{"t":291.952,"note":57,"dur":0.18,"vel":0.394,"inst":"celesta_v0_bass_374","midi_source":""},{"t":292.131,"note":52,"dur":0.18,"vel":0.496,"inst":"shamisen_v0_bowed_194","midi_source":""},{"t":292.311,"note":57,"dur":0.18,"vel":0.354,"inst":"celesta_v0_bass_374","midi_source":""},{"t":292.49,"note":60,"dur":0.18,"vel":0.433,"inst":"shamisen_v0_bowed_194","midi_source":""},{"t":292.49,"note":69,"dur":0.18,"vel":0.567,"inst":"celesta_v0_bass_374","midi_source":""},{"t":292.67,"note":57,"dur":0.18,"vel":0.394,"inst":"celesta_v0_bass_374","midi_source":""},{"t":294.499,"note":71,"dur":0.272,"vel":0.756,"inst":"clarinet_v0_bell_437","midi_source":""},{"t":294.771,"note":69,"dur":0.272,"vel":0.756,"inst":"clarinet_v0_bell_437","midi_source":""},{"t":295.042,"note":68,"dur":0.136,"vel":0.756,"inst":"marimba_v0_noise_perc_481","midi_source":""},{"t":295.178,"note":66,"dur":0.136,"vel":0.756,"inst":"marimba_v0_noise_perc_481","midi_source":""},{"t":295.314,"note":52,"dur":1.087,"vel":0.504,"inst":"marimba_v0_noise_perc_481","midi_source":""},{"t":295.314,"note":56,"dur":1.087,"vel":0.504,"inst":"marimba_v0_noise_perc_481","midi_source":""},{"t":295.314,"note":59,"dur":1.087,"vel":0.504,"inst":"clarinet_v0_bell_437","midi_source":""},{"t":295.314,"note":68,"dur":0.136,"vel":0.756,"inst":"marimba_v0_noise_perc_481","midi_source":""},{"t":295.45,"note":69,"dur":0.136,"vel":0.756,"inst":"clarinet_v0_bell_437","midi_source":""},{"t":295.586,"note":71,"dur":1.087,"vel":0.756,"inst":"clarinet_v0_bell_437","midi_source":""},{"t":296.401,"note":52,"dur":1.087,"vel":0.504,"inst":"marimba_v0_noise_perc_481","midi_source":""},{"t":296.401,"note":56,"dur":1.087,"vel":0.504,"inst":"marimba_v0_noise_perc_481","midi_source":""},{"t":296.401,"note":59,"dur":1.087,"vel":0.504,"inst":"clarinet_v0_bell_437","midi_source":""},{"t":296.672,"note":71,"dur":0.272,"vel":0.756,"inst":"clarinet_v0_bell_437","midi_source":""},{"t":296.944,"note":71,"dur":0.272,"vel":0.756,"inst":"clarinet_v0_bell_437","midi_source":""},{"t":297.216,"note":68,"dur":0.272,"vel":0.756,"inst":"marimba_v0_noise_perc_481","midi_source":""},{"t":297.487,"note":45,"dur":1.087,"vel":0.504,"inst":"clarinet_v0_bell_437","midi_source":""},{"t":297.487,"note":52,"dur":1.087,"vel":0.504,"inst":"marimba_v0_noise_perc_481","midi_source":""},{"t":297.487,"note":54,"dur":1.087,"vel":0.504,"inst":"marimba_v0_noise_perc_481","midi_source":""},{"t":297.487,"note":71,"dur":0.272,"vel":0.756,"inst":"clarinet_v0_bell_437","midi_source":""},{"t":297.759,"note":71,"dur":0.272,"vel":0.756,"inst":"clarinet_v0_bell_437","midi_source":""},{"t":298.031,"note":76,"dur":0.815,"vel":0.756,"inst":"marimba_v0_noise_perc_481","midi_source":""}]}