{"track_num":11,"title":"Thunder","duration":289.75,"midi_sources":["Bach/adl_6_Partitas,_Clavierubung_part_I,_no_2.mid","Diabelli/adl_Melodische_U00dcbungsstU00fccke_(No_22).mid"],"events":[{"t":0.324,"note":45,"dur":1.087,"vel":0.504,"inst":"clarinet_v0_bell_437","midi_source":""},{"t":0.324,"note":52,"dur":1.087,"vel":0.504,"inst":"marimba_v0_noise_perc_481","midi_source":""},{"t":0.324,"note":54,"dur":1.087,"vel":0.504,"inst":"marimba_v0_noise_perc_481","midi_source":""},{"t":0.596,"note":78,"dur":0.272,"vel":0.756,"inst":"marimba_v0_noise_perc_481","midi_source":""},{"t":0.867,"note":76,"dur":0.272,"vel":0.756,"inst":"marimba_v0_noise_perc_481","midi_source":""},{"t":1.139,"note":73,"dur":0.136,"vel":0.756,"inst":"clarinet_v0_bell_437","midi_source":""},{"t":1.275,"note":71,"dur":0.136,"vel":0.756,"inst":"clarinet_v0_bell_437","midi_source":""},{"t":1.411,"note":52,"dur":1.087,"vel":0.504,"inst":"marimba_v0_noise_perc_481","midi_source":""},{"t":1.411,"note":56,"dur":1.087,"vel":0.504,"inst":"marimba_v0_noise_perc_481","midi_source":""},{"t":1.411,"note":59,"dur":1.087,"vel":0.504,"inst":"clarinet_v0_bell_437","midi_source":""},{"t":1.411,"note":71,"dur":0.136,"vel":0.756,"inst":"clarinet_v0_bell_437","midi_source":""},{"t":1.547,"note":69,"dur":0.136,"vel":0.756,"inst":"clarinet_v0_bell_437","midi_source":""},{"t":1.682,"note":68,"dur":1.087,"vel":0.756,"inst":"marimba_v0_noise_perc_481","midi_source":""},{"t":2.497,"note":52,"dur":1.087,"vel":0.504,"inst":"marimba_v0_noise_perc_481","midi_source":""},{"t":2.497,"note":56,"dur":1.087,"vel":0.504,"inst":"marimba_v0_noise_perc_481","midi_source":""},{"t":2.497,"note":59,"dur":1.087,"vel":0.504,"inst":"clarinet_v0_bell_437","midi_source":""},{"t":2.769,"note":69,"dur":0.272,"vel":0.756,"inst":"clarinet_v0_bell_437","midi_source":""},{"t":3.041,"note":71,"dur":0.272,"vel":0.756,"inst":"clarinet_v0_bell_437","midi_source":""},{"t":3.312,"note":69,"dur":0.136,"vel":0.756,"inst":"clarinet_v0_bell_437","midi_source":""},{"t":3.584,"note":71,"dur":0.272,"vel":0.756,"inst":"clarinet_v0_bell_437","midi_source":""},{"t":3.856,"note":69,"dur":0.272,"vel":0.756,"inst":"clarinet_v0_bell_437","midi_source":""},{"t":4.127,"note":68,"dur":0.136,"vel":0.756,"inst":"marimba_v0_noise_perc_481","midi_source":""},{"t":4.263,"note":66,"dur":0.136,"vel":0.756,"inst":"marimba_v0_noise_perc_481","midi_source":""},{"t":4.399,"note":52,"dur":1.087,"vel":0.504,"inst":"marimba_v0_noise_perc_481","midi_source":""},{"t":4.399,"note":56,"dur":1.087,"vel":0.504,"inst":"marimba_v0_noise_perc_481","midi_source":""},{"t":4.399,"note":59,"dur":1.087,"vel":0.504,"inst":"clarinet_v0_bell_437","midi_source":""},{"t":4.399,"note":68,"dur":0.136,"vel":0.756,"inst":"marimba_v0_noise_perc_481","midi_source":""},{"t":4.535,"note":69,"dur":0.136,"vel":0.756,"inst":"clarinet_v0_bell_437","midi_source":""},{"t":4.671,"note":71,"dur":1.087,"vel":0.756,"inst":"clarinet_v0_bell_437","midi_source":""},{"t":5.486,"note":52,"dur":1.087,"vel":0.504,"inst":"marimba_v0_noise_perc_481","midi_source":""},{"t":5.486,"note":56,"dur":1.087,"vel":0.504,"inst":"marimba_v0_noise_perc_481","midi_source":""},{"t":5.486,"note":59,"dur":1.087,"vel":0.504,"inst":"clarinet_v0_bell_437","midi_source":""},{"t":5.757,"note":71,"dur":0.272,"vel":0.756,"inst":"clarinet_v0_bell_437","midi_source":""},{"t":6.029,"note":71,"dur":0.272,"vel":0.756,"inst":"clarinet_v0_bell_437","midi_source":""},{"t":6.301,"note":68,"dur":0.272,"vel":0.756,"inst":"marimba_v0_noise_perc_481","midi_source":""},{"t":6.573,"note":45,"dur":1.087,"vel":0.504,"inst":"clarinet_v0_bell_437","midi_source":""},{"t":6.573,"note":52,"dur":1.087,"vel":0.504,"inst":"marimba_v0_noise_perc_481","midi_source":""},{"t":6.573,"note":54,"dur":1.087,"vel":0.504,"inst":"marimba_v0_noise_perc_481","midi_source":""},{"t":6.573,"note":71,"dur":0.272,"vel":0.756,"inst":"clarinet_v0_bell_437","midi_source":""},{"t":6.844,"note":71,"dur":0.272,"vel":0.756,"inst":"clarinet_v0_bell_437","midi_source":""},{"t":7.116,"note":76,"dur":0.815,"vel":0.756,"inst":"marimba_v0_noise_perc_481","midi_source":""},{"t":7.659,"note":45,"dur":1.087,"vel":0.504,"inst":"clarinet_v0_bell_437","midi_source":""},{"t":7.659,"note":52,"dur":1.087,"vel":0.504,"inst":"marimba_v0_noise_perc_481","midi_source":""},{"t":7.659,"note":54,"dur":1.087,"vel":0.504,"inst":"marimba_v0_noise_perc_481","midi_source":""},{"t":7.931,"note":78,"dur":0.272,"vel":0.756,"inst":"marimba_v0_noise_perc_481","midi_source":""},{"t":8.203,"note":76,"dur":0.272,"vel":0.756,"inst":"marimba_v0_noise_perc_481","midi_source":""},{"t":8.474,"note":73,"dur":0.136,"vel":0.756,"inst":"clarinet_v0_bell_437","midi_source":""},{"t":8.61,"note":71,"dur":0.136,"vel":0.756,"inst":"clarinet_v0_bell_437","midi_source":""},{"t":8.746,"note":52,"dur":1.087,"vel":0.504,"inst":"marimba_v0_noise_perc_481","midi_source":""},{"t":8.746,"note":56,"dur":1.087,"vel":0.504,"inst":"marimba_v0_noise_perc_481","midi_source":""},{"t":8.746,"note":59,"dur":1.087,"vel":0.504,"inst":"clarinet_v0_bell_437","midi_source":""},{"t":8.746,"note":71,"dur":0.136,"vel":0.756,"inst":"clarinet_v0_bell_437","midi_source":""},{"t":8.882,"note":69,"dur":0.136,"vel":0.756,"inst":"clarinet_v0_bell_437","midi_source":""},{"t":9.018,"note":68,"dur":1.087,"vel":0.756,"inst":"marimba_v0_noise_perc_481","midi_source":""},{"t":9.833,"note":52,"dur":1.087,"vel":0.504,"inst":"marimba_v0_noise_perc_481","midi_source":""},{"t":9.833,"note":56,"dur":1.087,"vel":0.504,"inst":"marimba_v0_noise_perc_481","midi_source":""},{"t":9.833,"note":59,"dur":1.087,"vel":0.504,"inst":"clarinet_v0_bell_437","midi_source":""},{"t":10.104,"note":69,"dur":0.272,"vel":0.756,"inst":"clarinet_v0_bell_437","midi_source":""},{"t":10.376,"note":71,"dur":0.272,"vel":0.756,"inst":"clarinet_v0_bell_437","midi_source":""},{"t":10.648,"note":69,"dur":0.136,"vel":0.756,"inst":"clarinet_v0_bell_437","midi_source":""},{"t":10.919,"note":71,"dur":0.272,"vel":0.756,"inst":"clarinet_v0_bell_437","midi_source":""},{"t":11.191,"note":69,"dur":0.272,"vel":0.756,"inst":"clarinet_v0_bell_437","midi_source":""},{"t":11.463,"note":68,"dur":0.136,"vel":0.756,"inst":"marimba_v0_noise_perc_481","midi_source":""},{"t":11.598,"note":66,"dur":0.136,"vel":0.756,"inst":"marimba_v0_noise_perc_481","midi_source":""},{"t":11.734,"note":52,"dur":1.087,"vel":0.504,"inst":"marimba_v0_noise_perc_481","midi_source":""},{"t":11.734,"note":56,"dur":1.087,"vel":0.504,"inst":"marimba_v0_noise_perc_481","midi_source":""},{"t":11.734,"note":59,"dur":1.087,"vel":0.504,"inst":"clarinet_v0_bell_437","midi_source":""},{"t":11.734,"note":68,"dur":0.136,"vel":0.756,"inst":"marimba_v0_noise_perc_481","midi_source":""},{"t":11.87,"note":69,"dur":0.136,"vel":0.756,"inst":"clarinet_v0_bell_437","midi_source":""},{"t":12.006,"note":71,"dur":1.087,"vel":0.756,"inst":"clarinet_v0_bell_437","midi_source":""},{"t":12.821,"note":52,"dur":1.087,"vel":0.504,"inst":"marimba_v0_noise_perc_481","midi_source":""},{"t":12.821,"note":56,"dur":1.087,"vel":0.504,"inst":"marimba_v0_noise_perc_481","midi_source":""},{"t":12.821,"note":59,"dur":1.087,"vel":0.504,"inst":"clarinet_v0_bell_437","midi_source":""},{"t":13.093,"note":71,"dur":0.272,"vel":0.756,"inst":"clarinet_v0_bell_437","midi_source":""},{"t":13.364,"note":71,"dur":0.272,"vel":0.756,"inst":"clarinet_v0_bell_437","midi_source":""},{"t":13.636,"note":68,"dur":0.272,"vel":0.756,"inst":"marimba_v0_noise_perc_481","midi_source":""},{"t":13.908,"note":45,"dur":1.087,"vel":0.504,"inst":"clarinet_v0_bell_437","midi_source":""},{"t":13.908,"note":52,"dur":1.087,"vel":0.504,"inst":"marimba_v0_noise_perc_481","midi_source":""},{"t":13.908,"note":54,"dur":1.087,"vel":0.504,"inst":"marimba_v0_noise_perc_481","midi_source":""},{"t":13.908,"note":71,"dur":0.272,"vel":0.756,"inst":"clarinet_v0_bell_437","midi_source":""},{"t":14.179,"note":71,"dur":0.272,"vel":0.756,"inst":"clarinet_v0_bell_437","midi_source":""},{"t":14.451,"note":76,"dur":0.815,"vel":0.756,"inst":"marimba_v0_noise_perc_481","midi_source":""},{"t":14.994,"note":45,"dur":1.087,"vel":0.504,"inst":"clarinet_v0_bell_437","midi_source":""},{"t":14.994,"note":52,"dur":1.087,"vel":0.504,"inst":"marimba_v0_noise_perc_481","midi_source":""},{"t":14.994,"note":54,"dur":1.087,"vel":0.504,"inst":"marimba_v0_noise_perc_481","midi_source":""},{"t":15.266,"note":78,"dur":0.272,"vel":0.756,"inst":"marimba_v0_noise_perc_481","midi_source":""},{"t":15.538,"note":76,"dur":0.272,"vel":0.756,"inst":"marimba_v0_noise_perc_481","midi_source":""},{"t":15.809,"note":73,"dur":0.136,"vel":0.756,"inst":"clarinet_v0_bell_437","midi_source":""},{"t":15.945,"note":71,"dur":0.136,"vel":0.756,"inst":"clarinet_v0_bell_437","midi_source":""},{"t":16.081,"note":52,"dur":1.087,"vel":0.504,"inst":"marimba_v0_noise_perc_481","midi_source":""},{"t":16.081,"note":56,"dur":1.087,"vel":0.504,"inst":"marimba_v0_noise_perc_481","midi_source":""},{"t":16.081,"note":59,"dur":1.087,"vel":0.504,"inst":"clarinet_v0_bell_437","midi_source":""},{"t":16.081,"note":71,"dur":0.136,"vel":0.756,"inst":"clarinet_v0_bell_437","midi_source":""},{"t":16.217,"note":69,"dur":0.136,"vel":0.756,"inst":"clarinet_v0_bell_437","midi_source":""},{"t":16.353,"note":68,"dur":1.087,"vel":0.756,"inst":"marimba_v0_noise_perc_481","midi_source":""},{"t":17.168,"note":52,"dur":1.087,"vel":0.504,"inst":"marimba_v0_noise_perc_481","midi_source":""},{"t":17.168,"note":56,"dur":1.087,"vel":0.504,"inst":"marimba_v0_noise_perc_481","midi_source":""},{"t":17.168,"note":59,"dur":1.087,"vel":0.504,"inst":"clarinet_v0_bell_437","midi_source":""},{"t":17.439,"note":69,"dur":0.272,"vel":0.756,"inst":"clarinet_v0_bell_437","midi_source":""},{"t":17.711,"note":71,"dur":0.272,"vel":0.756,"inst":"clarinet_v0_bell_437","midi_source":""},{"t":17.983,"note":69,"dur":0.136,"vel":0.756,"inst":"clarinet_v0_bell_437","midi_source":""},{"t":18.254,"note":71,"dur":0.272,"vel":0.756,"inst":"clarinet_v0_bell_437","midi_source":""},{"t":18.526,"note":69,"dur":0.272,"vel":0.756,"inst":"clarinet_v0_bell_437","midi_source":""},{"t":18.798,"note":68,"dur":0.136,"vel":0.756,"inst":"marimba_v0_noise_perc_481","midi_source":""},{"t":18.934,"note":66,"dur":0.136,"vel":0.756,"inst":"marimba_v0_noise_perc_481","midi_source":""},{"t":19.069,"note":52,"dur":1.087,"vel":0.504,"inst":"marimba_v0_noise_perc_481","midi_source":""},{"t":19.069,"note":56,"dur":1.087,"vel":0.504,"inst":"marimba_v0_noise_perc_481","midi_source":""},{"t":19.069,"note":59,"dur":1.087,"vel":0.504,"inst":"clarinet_v0_bell_437","midi_source":""},{"t":19.069,"note":68,"dur":0.136,"vel":0.756,"inst":"marimba_v0_noise_perc_481","midi_source":""},{"t":19.205,"note":69,"dur":0.136,"vel":0.756,"inst":"clarinet_v0_bell_437","midi_source":""},{"t":19.341,"note":71,"dur":1.087,"vel":0.756,"inst":"clarinet_v0_bell_437","midi_source":""},{"t":20.156,"note":52,"dur":1.087,"vel":0.504,"inst":"marimba_v0_noise_perc_481","midi_source":""},{"t":20.156,"note":56,"dur":1.087,"vel":0.504,"inst":"marimba_v0_noise_perc_481","midi_source":""},{"t":20.156,"note":59,"dur":1.087,"vel":0.504,"inst":"clarinet_v0_bell_437","midi_source":""},{"t":20.428,"note":71,"dur":0.272,"vel":0.756,"inst":"clarinet_v0_bell_437","midi_source":""},{"t":20.699,"note":71,"dur":0.272,"vel":0.756,"inst":"clarinet_v0_bell_437","midi_source":""},{"t":20.971,"note":68,"dur":0.272,"vel":0.756,"inst":"marimba_v0_noise_perc_481","midi_source":""},{"t":21.243,"note":45,"dur":1.087,"vel":0.504,"inst":"clarinet_v0_bell_437","midi_source":""},{"t":21.243,"note":52,"dur":1.087,"vel":0.504,"inst":"marimba_v0_noise_perc_481","midi_source":""},{"t":21.243,"note":54,"dur":1.087,"vel":0.504,"inst":"marimba_v0_noise_perc_481","midi_source":""},{"t":21.243,"note":71,"dur":0.272,"vel":0.756,"inst":"clarinet_v0_bell_437","midi_source":""},{"t":21.514,"note":71,"dur":0.272,"vel":0.756,"inst":"clarinet_v0_bell_437","midi_source":""},{"t":21.786,"note":76,"dur":0.815,"vel":0.756,"inst":"marimba_v0_noise_perc_481","midi_source":""},{"t":22.329,"note":45,"dur":1.087,"vel":0.504,"inst":"clarinet_v0_bell_437","midi_source":""},{"t":22.329,"note":52,"dur":1.087,"vel":0.504,"inst":"marimba_v0_noise_perc_481","midi_source":""},{"t":22.329,"note":54,"dur":1.087,"vel":0.504,"inst":"marimba_v0_noise_perc_481","midi_source":""},{"t":22.601,"note":78,"dur":0.272,"vel":0.756,"inst":"marimba_v0_noise_perc_481","midi_source":""},{"t":22.873,"note":76,"dur":0.272,"vel":0.756,"inst":"marimba_v0_noise_perc_481","midi_source":""},{"t":23.144,"note":73,"dur":0.136,"vel":0.756,"inst":"clarinet_v0_bell_437","midi_source":""},{"t":23.28,"note":71,"dur":0.136,"vel":0.756,"inst":"clarinet_v0_bell_437","midi_source":""},{"t":23.416,"note":52,"dur":1.087,"vel":0.504,"inst":"marimba_v0_noise_perc_481","midi_source":""},{"t":23.416,"note":56,"dur":1.087,"vel":0.504,"inst":"marimba_v0_noise_perc_481","midi_source":""},{"t":23.416,"note":59,"dur":1.087,"vel":0.504,"inst":"clarinet_v0_bell_437","midi_source":""},{"t":23.416,"note":71,"dur":0.136,"vel":0.756,"inst":"clarinet_v0_bell_437","midi_source":""},{"t":23.552,"note":69,"dur":0.136,"vel":0.756,"inst":"clarinet_v0_bell_437","midi_source":""},{"t":23.688,"note":68,"dur":1.087,"vel":0.756,"inst":"marimba_v0_noise_perc_481","midi_source":""},{"t":24.503,"note":52,"dur":1.087,"vel":0.504,"inst":"marimba_v0_noise_perc_481","midi_source":""},{"t":24.503,"note":56,"dur":1.087,"vel":0.504,"inst":"marimba_v0_noise_perc_481","midi_source":""},{"t":24.503,"note":59,"dur":1.087,"vel":0.504,"inst":"clarinet_v0_bell_437","midi_source":""},{"t":24.774,"note":69,"dur":0.272,"vel":0.756,"inst":"clarinet_v0_bell_437","midi_source":""},{"t":25.046,"note":71,"dur":0.272,"vel":0.756,"inst":"clarinet_v0_bell_437","midi_source":""},{"t":25.318,"note":69,"dur":0.136,"vel":0.756,"inst":"clarinet_v0_bell_437","midi_source":""},{"t":25.589,"note":71,"dur":0.272,"vel":0.756,"inst":"clarinet_v0_bell_437","midi_source":""},{"t":25.861,"note":69,"dur":0.272,"vel":0.756,"inst":"clarinet_v0_bell_437","midi_source":""},{"t":26.133,"note":68,"dur":0.136,"vel":0.756,"inst":"marimba_v0_noise_perc_481","midi_source":""},{"t":26.269,"note":66,"dur":0.136,"vel":0.756,"inst":"marimba_v0_noise_perc_481","midi_source":""},{"t":26.404,"note":52,"dur":1.087,"vel":0.504,"inst":"marimba_v0_noise_perc_481","midi_source":""},{"t":26.404,"note":56,"dur":1.087,"vel":0.504,"inst":"marimba_v0_noise_perc_481","midi_source":""},{"t":26.404,"note":59,"dur":1.087,"vel":0.504,"inst":"clarinet_v0_bell_437","midi_source":""},{"t":26.404,"note":68,"dur":0.136,"vel":0.756,"inst":"marimba_v0_noise_perc_481","midi_source":""},{"t":26.54,"note":69,"dur":0.136,"vel":0.756,"inst":"clarinet_v0_bell_437","midi_source":""},{"t":26.676,"note":71,"dur":1.087,"vel":0.756,"inst":"clarinet_v0_bell_437","midi_source":""},{"t":27.491,"note":52,"dur":1.087,"vel":0.504,"inst":"marimba_v0_noise_perc_481","midi_source":""},{"t":27.491,"note":56,"dur":1.087,"vel":0.504,"inst":"marimba_v0_noise_perc_481","midi_source":""},{"t":27.491,"note":59,"dur":1.087,"vel":0.504,"inst":"clarinet_v0_bell_437","midi_source":""},{"t":27.763,"note":71,"dur":0.272,"vel":0.756,"inst":"clarinet_v0_bell_437","midi_source":""},{"t":28.034,"note":71,"dur":0.272,"vel":0.756,"inst":"clarinet_v0_bell_437","midi_source":""},{"t":28.306,"note":68,"dur":0.272,"vel":0.756,"inst":"marimba_v0_noise_perc_481","midi_source":""},{"t":28.578,"note":45,"dur":1.087,"vel":0.504,"inst":"clarinet_v0_bell_437","midi_source":""},{"t":28.578,"note":52,"dur":1.087,"vel":0.504,"inst":"marimba_v0_noise_perc_481","midi_source":""},{"t":28.578,"note":54,"dur":1.087,"vel":0.504,"inst":"marimba_v0_noise_perc_481","midi_source":""},{"t":28.578,"note":71,"dur":0.272,"vel":0.756,"inst":"clarinet_v0_bell_437","midi_source":""},{"t":28.849,"note":71,"dur":0.272,"vel":0.756,"inst":"clarinet_v0_bell_437","midi_source":""},{"t":29.121,"note":76,"dur":0.815,"vel":0.756,"inst":"marimba_v0_noise_perc_481","midi_source":""},{"t":29.664,"note":45,"dur":1.087,"vel":0.504,"inst":"clarinet_v0_bell_437","midi_source":""},{"t":29.664,"note":52,"dur":1.087,"vel":0.504,"inst":"marimba_v0_noise_perc_481","midi_source":""},{"t":29.664,"note":54,"dur":1.087,"vel":0.504,"inst":"marimba_v0_noise_perc_481","midi_source":""},{"t":29.936,"note":78,"dur":0.272,"vel":0.756,"inst":"marimba_v0_noise_perc_481","midi_source":""},{"t":30.208,"note":76,"dur":0.272,"vel":0.756,"inst":"marimba_v0_noise_perc_481","midi_source":""},{"t":30.48,"note":73,"dur":0.136,"vel":0.756,"inst":"clarinet_v0_bell_437","midi_source":""},{"t":30.615,"note":71,"dur":0.136,"vel":0.756,"inst":"clarinet_v0_bell_437","midi_source":""},{"t":30.751,"note":52,"dur":1.087,"vel":0.504,"inst":"marimba_v0_noise_perc_481","midi_source":""},{"t":30.751,"note":56,"dur":1.087,"vel":0.504,"inst":"marimba_v0_noise_perc_481","midi_source":""},{"t":30.751,"note":59,"dur":1.087,"vel":0.504,"inst":"clarinet_v0_bell_437","midi_source":""},{"t":30.751,"note":71,"dur":0.136,"vel":0.756,"inst":"clarinet_v0_bell_437","midi_source":""},{"t":30.887,"note":69,"dur":0.136,"vel":0.756,"inst":"clarinet_v0_bell_437","midi_source":""},{"t":31.023,"note":68,"dur":1.087,"vel":0.756,"inst":"marimba_v0_noise_perc_481","midi_source":""},{"t":31.838,"note":52,"dur":1.087,"vel":0.504,"inst":"marimba_v0_noise_perc_481","midi_source":""},{"t":31.838,"note":56,"dur":1.087,"vel":0.504,"inst":"marimba_v0_noise_perc_481","midi_source":""},{"t":31.838,"note":59,"dur":1.087,"vel":0.504,"inst":"clarinet_v0_bell_437","midi_source":""},{"t":32.11,"note":69,"dur":0.272,"vel":0.756,"inst":"clarinet_v0_bell_437","midi_source":""},{"t":32.381,"note":71,"dur":0.272,"vel":0.756,"inst":"clarinet_v0_bell_437","midi_source":""},{"t":32.653,"note":69,"dur":0.136,"vel":0.756,"inst":"clarinet_v0_bell_437","midi_source":""},{"t":32.925,"note":71,"dur":0.272,"vel":0.756,"inst":"clarinet_v0_bell_437","midi_source":""},{"t":33.196,"note":69,"dur":0.272,"vel":0.756,"inst":"clarinet_v0_bell_437","midi_source":""},{"t":33.468,"note":68,"dur":0.136,"vel":0.756,"inst":"marimba_v0_noise_perc_481","midi_source":""},{"t":33.604,"note":66,"dur":0.136,"vel":0.756,"inst":"marimba_v0_noise_perc_481","midi_source":""},{"t":33.74,"note":52,"dur":1.087,"vel":0.504,"inst":"marimba_v0_noise_perc_481","midi_source":""},{"t":33.74,"note":56,"dur":1.087,"vel":0.504,"inst":"marimba_v0_noise_perc_481","midi_source":""},{"t":33.74,"note":59,"dur":1.087,"vel":0.504,"inst":"clarinet_v0_bell_437","midi_source":""},{"t":33.74,"note":68,"dur":0.136,"vel":0.756,"inst":"marimba_v0_noise_perc_481","midi_source":""},{"t":33.875,"note":69,"dur":0.136,"vel":0.756,"inst":"clarinet_v0_bell_437","midi_source":""},{"t":34.011,"note":71,"dur":1.087,"vel":0.756,"inst":"clarinet_v0_bell_437","midi_source":""},{"t":34.826,"note":52,"dur":1.087,"vel":0.504,"inst":"marimba_v0_noise_perc_481","midi_source":""},{"t":34.826,"note":56,"dur":1.087,"vel":0.504,"inst":"marimba_v0_noise_perc_481","midi_source":""},{"t":34.826,"note":59,"dur":1.087,"vel":0.504,"inst":"clarinet_v0_bell_437","midi_source":""},{"t":35.098,"note":71,"dur":0.272,"vel":0.756,"inst":"clarinet_v0_bell_437","midi_source":""},{"t":35.37,"note":71,"dur":0.272,"vel":0.756,"inst":"clarinet_v0_bell_437","midi_source":""},{"t":35.641,"note":68,"dur":0.272,"vel":0.756,"inst":"marimba_v0_noise_perc_481","midi_source":""},{"t":35.913,"note":45,"dur":1.087,"vel":0.504,"inst":"clarinet_v0_bell_437","midi_source":""},{"t":35.913,"note":52,"dur":1.087,"vel":0.504,"inst":"marimba_v0_noise_perc_481","midi_source":""},{"t":35.913,"note":54,"dur":1.087,"vel":0.504,"inst":"marimba_v0_noise_perc_481","midi_source":""},{"t":35.913,"note":71,"dur":0.272,"vel":0.756,"inst":"clarinet_v0_bell_437","midi_source":""},{"t":36.185,"note":71,"dur":0.272,"vel":0.756,"inst":"clarinet_v0_bell_437","midi_source":""},{"t":36.456,"note":76,"dur":0.815,"vel":0.756,"inst":"marimba_v0_noise_perc_481","midi_source":""},{"t":37.0,"note":45,"dur":1.0,"vel":0.504,"inst":"clarinet_v0_bell_437","midi_source":""},{"t":37.0,"note":52,"dur":1.0,"vel":0.504,"inst":"marimba_v0_noise_perc_481","midi_source":""},{"t":37.0,"note":54,"dur":1.0,"vel":0.504,"inst":"marimba_v0_noise_perc_481","midi_source":""},{"t":37.271,"note":78,"dur":0.272,"vel":0.756,"inst":"marimba_v0_noise_perc_481","midi_source":""},{"t":37.543,"note":76,"dur":0.272,"vel":0.756,"inst":"marimba_v0_noise_perc_481","midi_source":""},{"t":37.815,"note":73,"dur":0.136,"vel":0.756,"inst":"clarinet_v0_bell_437","midi_source":""},{"t":37.95,"note":71,"dur":0.05,"vel":0.756,"inst":"clarinet_v0_bell_437","midi_source":""},{"t":38.054,"note":61,"dur":0.069,"vel":1.0,"inst":"cello_v0_plucked_113","midi_source":""},{"t":38.054,"note":70,"dur":0.069,"vel":1.0,"inst":"cello_v0_plucked_113","midi_source":""},{"t":38.123,"note":63,"dur":0.137,"vel":1.0,"inst":"synth_pluck_v0_blown_260","midi_source":""},{"t":38.123,"note":72,"dur":0.069,"vel":1.0,"inst":"synth_pluck_v0_blown_260","midi_source":""},{"t":38.191,"note":82,"dur":0.069,"vel":1.0,"inst":"cello_v0_plucked_113","midi_source":""},{"t":38.26,"note":60,"dur":0.137,"vel":1.0,"inst":"synth_pluck_v0_blown_260","midi_source":""},{"t":38.26,"note":70,"dur":0.069,"vel":1.0,"inst":"cello_v0_plucked_113","midi_source":""},{"t":38.328,"note":78,"dur":0.069,"vel":1.0,"inst":"synth_pluck_v0_blown_260","midi_source":""},{"t":38.397,"note":61,"dur":0.137,"vel":1.0,"inst":"cello_v0_plucked_113","midi_source":""},{"t":38.397,"note":78,"dur":0.206,"vel":1.0,"inst":"synth_pluck_v0_blown_260","midi_source":""},{"t":38.534,"note":49,"dur":0.137,"vel":1.0,"inst":"cello_v0_plucked_113","midi_source":""},{"t":38.602,"note":75,"dur":0.069,"vel":1.0,"inst":"synth_pluck_v0_blown_260","midi_source":""},{"t":38.671,"note":73,"dur":0.137,"vel":1.0,"inst":"cello_v0_plucked_113","midi_source":""},{"t":38.739,"note":60,"dur":0.069,"vel":1.0,"inst":"synth_pluck_v0_blown_260","midi_source":""},{"t":38.808,"note":58,"dur":0.069,"vel":1.0,"inst":"cello_v0_plucked_113","midi_source":""},{"t":38.808,"note":78,"dur":0.137,"vel":1.0,"inst":"synth_pluck_v0_blown_260","midi_source":""},{"t":38.876,"note":46,"dur":0.069,"vel":1.0,"inst":"cello_v0_plucked_113","midi_source":""},{"t":38.945,"note":58,"dur":0.069,"vel":1.0,"inst":"cello_v0_plucked_113","midi_source":""},{"t":38.945,"note":78,"dur":0.069,"vel":1.0,"inst":"synth_pluck_v0_blown_260","midi_source":""},{"t":39.013,"note":53,"dur":0.069,"vel":1.0,"inst":"violin_v1_additive_535","midi_source":""},{"t":39.013,"note":70,"dur":0.069,"vel":1.0,"inst":"cello_v0_plucked_113","midi_source":""},{"t":39.082,"note":54,"dur":0.069,"vel":1.0,"inst":"synth_pluck_v0_blown_260","midi_source":""},{"t":39.082,"note":82,"dur":0.137,"vel":1.0,"inst":"cello_v0_plucked_113","midi_source":""},{"t":39.15,"note":49,"dur":0.069,"vel":1.0,"inst":"cello_v0_plucked_113","midi_source":""},{"t":39.219,"note":51,"dur":0.069,"vel":1.0,"inst":"synth_pluck_v0_blown_260","midi_source":""},{"t":39.219,"note":72,"dur":0.069,"vel":1.0,"inst":"synth_pluck_v0_blown_260","midi_source":""},{"t":39.287,"note":61,"dur":0.069,"vel":1.0,"inst":"cello_v0_plucked_113","midi_source":""},{"t":39.287,"note":82,"dur":0.069,"vel":1.0,"inst":"cello_v0_plucked_113","midi_source":""},{"t":39.356,"note":60,"dur":0.069,"vel":1.0,"inst":"synth_pluck_v0_blown_260","midi_source":""},{"t":39.356,"note":70,"dur":0.069,"vel":1.0,"inst":"cello_v0_plucked_113","midi_source":""},{"t":39.424,"note":58,"dur":0.069,"vel":1.0,"inst":"cello_v0_plucked_113","midi_source":""},{"t":39.424,"note":78,"dur":0.069,"vel":1.0,"inst":"synth_pluck_v0_blown_260","midi_source":""},{"t":39.493,"note":60,"dur":0.069,"vel":1.0,"inst":"synth_pluck_v0_blown_260","midi_source":""},{"t":39.493,"note":70,"dur":0.069,"vel":1.0,"inst":"cello_v0_plucked_113","midi_source":""},{"t":39.561,"note":54,"dur":0.069,"vel":1.0,"inst":"synth_pluck_v0_blown_260","midi_source":""},{"t":39.561,"note":82,"dur":0.069,"vel":1.0,"inst":"cello_v0_plucked_113","midi_source":""},{"t":39.63,"note":46,"dur":0.069,"vel":1.0,"inst":"cello_v0_plucked_113","midi_source":""},{"t":39.63,"note":84,"dur":0.137,"vel":1.0,"inst":"synth_pluck_v0_blown_260","midi_source":""},{"t":39.698,"note":51,"dur":0.069,"vel":1.0,"inst":"synth_pluck_v0_blown_260","midi_source":""},{"t":39.767,"note":54,"dur":0.069,"vel":1.0,"inst":"synth_pluck_v0_blown_260","midi_source":""},{"t":39.767,"note":73,"dur":0.069,"vel":1.0,"inst":"cello_v0_plucked_113","midi_source":""},{"t":39.835,"note":63,"dur":0.069,"vel":1.0,"inst":"synth_pluck_v0_blown_260","midi_source":""},{"t":39.835,"note":84,"dur":0.069,"vel":1.0,"inst":"synth_pluck_v0_blown_260","midi_source":""},{"t":39.904,"note":61,"dur":0.069,"vel":1.0,"inst":"cello_v0_plucked_113","midi_source":""},{"t":39.904,"note":82,"dur":0.069,"vel":1.0,"inst":"cello_v0_plucked_113","midi_source":""},{"t":39.972,"note":60,"dur":0.069,"vel":1.0,"inst":"synth_pluck_v0_blown_260","midi_source":""},{"t":39.972,"note":70,"dur":0.069,"vel":1.0,"inst":"cello_v0_plucked_113","midi_source":""},{"t":40.041,"note":61,"dur":0.069,"vel":1.0,"inst":"cello_v0_plucked_113","midi_source":""},{"t":40.041,"note":82,"dur":0.069,"vel":1.0,"inst":"cello_v0_plucked_113","midi_source":""},{"t":40.109,"note":46,"dur":0.069,"vel":1.0,"inst":"cello_v0_plucked_113","midi_source":""},{"t":40.109,"note":84,"dur":0.069,"vel":1.0,"inst":"synth_pluck_v0_blown_260","midi_source":""},{"t":40.178,"note":58,"dur":0.069,"vel":1.0,"inst":"cello_v0_plucked_113","midi_source":""},{"t":40.178,"note":85,"dur":0.137,"vel":1.0,"inst":"cello_v0_plucked_113","midi_source":""},{"t":40.246,"note":54,"dur":0.069,"vel":1.0,"inst":"synth_pluck_v0_blown_260","midi_source":""},{"t":40.315,"note":54,"dur":0.069,"vel":1.0,"inst":"synth_pluck_v0_blown_260","midi_source":""},{"t":40.315,"note":75,"dur":0.069,"vel":1.0,"inst":"synth_pluck_v0_blown_260","midi_source":""},{"t":40.383,"note":65,"dur":0.069,"vel":1.0,"inst":"violin_v1_additive_535","midi_source":""},{"t":40.383,"note":85,"dur":0.069,"vel":1.0,"inst":"cello_v0_plucked_113","midi_source":""},{"t":40.452,"note":63,"dur":0.069,"vel":1.0,"inst":"synth_pluck_v0_blown_260","midi_source":""},{"t":40.452,"note":84,"dur":0.069,"vel":1.0,"inst":"synth_pluck_v0_blown_260","midi_source":""},{"t":40.52,"note":61,"dur":0.069,"vel":1.0,"inst":"cello_v0_plucked_113","midi_source":""},{"t":40.52,"note":82,"dur":0.069,"vel":1.0,"inst":"cello_v0_plucked_113","midi_source":""},{"t":40.589,"note":63,"dur":0.069,"vel":1.0,"inst":"synth_pluck_v0_blown_260","midi_source":""},{"t":40.589,"note":84,"dur":0.069,"vel":1.0,"inst":"synth_pluck_v0_blown_260","midi_source":""},{"t":40.657,"note":58,"dur":0.069,"vel":1.0,"inst":"cello_v0_plucked_113","midi_source":""},{"t":40.657,"note":85,"dur":0.069,"vel":1.0,"inst":"cello_v0_plucked_113","midi_source":""},{"t":40.726,"note":60,"dur":0.069,"vel":1.0,"inst":"synth_pluck_v0_blown_260","midi_source":""},{"t":40.726,"note":87,"dur":0.137,"vel":1.0,"inst":"synth_pluck_v0_blown_260","midi_source":""},{"t":40.794,"note":54,"dur":0.069,"vel":1.0,"inst":"synth_pluck_v0_blown_260","midi_source":""},{"t":40.863,"note":46,"dur":0.137,"vel":1.0,"inst":"cello_v0_plucked_113","midi_source":""},{"t":40.863,"note":78,"dur":0.069,"vel":1.0,"inst":"synth_pluck_v0_blown_260","midi_source":""},{"t":40.931,"note":87,"dur":0.069,"vel":1.0,"inst":"synth_pluck_v0_blown_260","midi_source":""},{"t":41.0,"note":66,"dur":0.137,"vel":1.0,"inst":"synth_pluck_v0_blown_260","midi_source":""},{"t":41.0,"note":85,"dur":0.069,"vel":1.0,"inst":"cello_v0_plucked_113","midi_source":""},{"t":41.068,"note":84,"dur":0.069,"vel":1.0,"inst":"synth_pluck_v0_blown_260","midi_source":""},{"t":41.137,"note":66,"dur":0.137,"vel":1.0,"inst":"synth_pluck_v0_blown_260","midi_source":""},{"t":41.137,"note":82,"dur":0.069,"vel":1.0,"inst":"cello_v0_plucked_113","midi_source":""},{"t":41.205,"note":78,"dur":0.069,"vel":1.0,"inst":"synth_pluck_v0_blown_260","midi_source":""},{"t":41.274,"note":70,"dur":0.137,"vel":1.0,"inst":"cello_v0_plucked_113","midi_source":""},{"t":41.274,"note":78,"dur":0.069,"vel":1.0,"inst":"synth_pluck_v0_blown_260","midi_source":""},{"t":41.342,"note":73,"dur":0.069,"vel":1.0,"inst":"cello_v0_plucked_113","midi_source":""},{"t":41.411,"note":60,"dur":0.137,"vel":1.0,"inst":"synth_pluck_v0_blown_260","midi_source":""},{"t":41.411,"note":75,"dur":0.069,"vel":1.0,"inst":"synth_pluck_v0_blown_260","midi_source":""},{"t":41.479,"note":70,"dur":0.069,"vel":1.0,"inst":"cello_v0_plucked_113","midi_source":""},{"t":41.548,"note":63,"dur":0.137,"vel":1.0,"inst":"synth_pluck_v0_blown_260","midi_source":""},{"t":41.548,"note":72,"dur":0.069,"vel":1.0,"inst":"synth_pluck_v0_blown_260","midi_source":""},{"t":41.616,"note":78,"dur":0.069,"vel":1.0,"inst":"synth_pluck_v0_blown_260","midi_source":""},{"t":41.685,"note":54,"dur":0.137,"vel":1.0,"inst":"synth_pluck_v0_blown_260","midi_source":""},{"t":41.685,"note":70,"dur":0.069,"vel":1.0,"inst":"cello_v0_plucked_113","midi_source":""},{"t":41.753,"note":73,"dur":0.069,"vel":1.0,"inst":"cello_v0_plucked_113","midi_source":""},{"t":41.822,"note":46,"dur":0.137,"vel":1.0,"inst":"cello_v0_plucked_113","midi_source":""},{"t":41.822,"note":75,"dur":0.069,"vel":1.0,"inst":"synth_pluck_v0_blown_260","midi_source":""},{"t":41.89,"note":72,"dur":0.069,"vel":1.0,"inst":"synth_pluck_v0_blown_260","midi_source":""},{"t":41.959,"note":48,"dur":0.137,"vel":1.0,"inst":"synth_pluck_v0_blown_260","midi_source":""},{"t":41.959,"note":73,"dur":0.069,"vel":1.0,"inst":"cello_v0_plucked_113","midi_source":""},{"t":42.027,"note":58,"dur":0.069,"vel":1.0,"inst":"cello_v0_plucked_113","midi_source":""},{"t":42.096,"note":49,"dur":0.137,"vel":1.0,"inst":"cello_v0_plucked_113","midi_source":""},{"t":42.096,"note":70,"dur":0.069,"vel":1.0,"inst":"cello_v0_plucked_113","midi_source":""},{"t":42.164,"note":78,"dur":0.069,"vel":1.0,"inst":"synth_pluck_v0_blown_260","midi_source":""},{"t":42.233,"note":51,"dur":0.137,"vel":1.0,"inst":"synth_pluck_v0_blown_260","midi_source":""},{"t":42.233,"note":78,"dur":0.069,"vel":1.0,"inst":"synth_pluck_v0_blown_260","midi_source":""},{"t":42.301,"note":72,"dur":0.069,"vel":1.0,"inst":"synth_pluck_v0_blown_260","midi_source":""},{"t":42.301,"note":73,"dur":0.069,"vel":1.0,"inst":"cello_v0_plucked_113","midi_source":""},{"t":42.37,"note":48,"dur":0.137,"vel":1.0,"inst":"synth_pluck_v0_blown_260","midi_source":""},{"t":42.37,"note":75,"dur":0.069,"vel":1.0,"inst":"synth_pluck_v0_blown_260","midi_source":""},{"t":42.438,"note":72,"dur":0.069,"vel":1.0,"inst":"synth_pluck_v0_blown_260","midi_source":""},{"t":42.507,"note":49,"dur":0.137,"vel":1.0,"inst":"cello_v0_plucked_113","midi_source":""},{"t":42.507,"note":58,"dur":0.069,"vel":1.0,"inst":"cello_v0_plucked_113","midi_source":""},{"t":42.575,"note":72,"dur":0.069,"vel":1.0,"inst":"synth_pluck_v0_blown_260","midi_source":""},{"t":42.644,"note":61,"dur":0.137,"vel":1.0,"inst":"cello_v0_plucked_113","midi_source":""},{"t":42.644,"note":78,"dur":0.069,"vel":1.0,"inst":"synth_pluck_v0_blown_260","midi_source":""},{"t":42.712,"note":78,"dur":0.069,"vel":1.0,"inst":"synth_pluck_v0_blown_260","midi_source":""},{"t":42.781,"note":54,"dur":0.137,"vel":1.0,"inst":"synth_pluck_v0_blown_260","midi_source":""},{"t":42.781,"note":78,"dur":0.069,"vel":1.0,"inst":"synth_pluck_v0_blown_260","midi_source":""},{"t":42.849,"note":72,"dur":0.069,"vel":1.0,"inst":"synth_pluck_v0_blown_260","midi_source":""},{"t":42.918,"note":61,"dur":0.137,"vel":1.0,"inst":"cello_v0_plucked_113","midi_source":""},{"t":42.918,"note":70,"dur":0.069,"vel":1.0,"inst":"cello_v0_plucked_113","midi_source":""},{"t":42.986,"note":58,"dur":0.069,"vel":1.0,"inst":"cello_v0_plucked_113","midi_source":""},{"t":43.055,"note":66,"dur":0.137,"vel":1.0,"inst":"synth_pluck_v0_blown_260","midi_source":""},{"t":43.055,"note":70,"dur":0.069,"vel":1.0,"inst":"cello_v0_plucked_113","midi_source":""},{"t":43.123,"note":78,"dur":0.069,"vel":1.0,"inst":"synth_pluck_v0_blown_260","midi_source":""},{"t":43.192,"note":58,"dur":0.137,"vel":1.0,"inst":"cello_v0_plucked_113","midi_source":""},{"t":43.192,"note":77,"dur":0.069,"vel":1.0,"inst":"violin_v1_additive_535","midi_source":""},{"t":43.26,"note":75,"dur":0.069,"vel":1.0,"inst":"synth_pluck_v0_blown_260","midi_source":""},{"t":43.329,"note":66,"dur":0.206,"vel":1.0,"inst":"synth_pluck_v0_blown_260","midi_source":""},{"t":43.329,"note":73,"dur":0.069,"vel":1.0,"inst":"cello_v0_plucked_113","midi_source":""},{"t":43.397,"note":78,"dur":0.069,"vel":1.0,"inst":"synth_pluck_v0_blown_260","midi_source":""},{"t":43.397,"note":70,"dur":0.069,"vel":1.0,"inst":"cello_v0_plucked_113","midi_source":""},{"t":43.466,"note":82,"dur":0.069,"vel":1.0,"inst":"cello_v0_plucked_113","midi_source":""},{"t":43.534,"note":60,"dur":0.069,"vel":1.0,"inst":"synth_pluck_v0_blown_260","midi_source":""},{"t":43.534,"note":61,"dur":0.069,"vel":1.0,"inst":"cello_v0_plucked_113","midi_source":""},{"t":43.534,"note":78,"dur":0.069,"vel":1.0,"inst":"synth_pluck_v0_blown_260","midi_source":""},{"t":43.603,"note":58,"dur":0.069,"vel":1.0,"inst":"cello_v0_plucked_113","midi_source":""},{"t":43.603,"note":60,"dur":0.069,"vel":1.0,"inst":"synth_pluck_v0_blown_260","midi_source":""},{"t":43.603,"note":73,"dur":0.137,"vel":1.0,"inst":"cello_v0_plucked_113","midi_source":""},{"t":43.671,"note":61,"dur":0.069,"vel":1.0,"inst":"cello_v0_plucked_113","midi_source":""},{"t":43.74,"note":54,"dur":0.069,"vel":1.0,"inst":"synth_pluck_v0_blown_260","midi_source":""},{"t":43.74,"note":46,"dur":0.069,"vel":1.0,"inst":"cello_v0_plucked_113","midi_source":""},{"t":43.74,"note":75,"dur":0.137,"vel":1.0,"inst":"synth_pluck_v0_blown_260","midi_source":""},{"t":43.808,"note":58,"dur":0.069,"vel":1.0,"inst":"cello_v0_plucked_113","midi_source":""},{"t":43.877,"note":49,"dur":0.206,"vel":1.0,"inst":"cello_v0_plucked_113","midi_source":""},{"t":43.877,"note":77,"dur":0.069,"vel":1.0,"inst":"violin_v1_additive_535","midi_source":""},{"t":43.945,"note":72,"dur":0.069,"vel":1.0,"inst":"synth_pluck_v0_blown_260","midi_source":""},{"t":44.014,"note":73,"dur":0.069,"vel":1.0,"inst":"cello_v0_plucked_113","midi_source":""},{"t":44.082,"note":51,"dur":0.069,"vel":1.0,"inst":"synth_pluck_v0_blown_260","midi_source":""},{"t":44.082,"note":53,"dur":0.069,"vel":1.0,"inst":"violin_v1_additive_535","midi_source":""},{"t":44.082,"note":58,"dur":0.069,"vel":1.0,"inst":"cello_v0_plucked_113","midi_source":""},{"t":44.151,"note":49,"dur":0.069,"vel":1.0,"inst":"cello_v0_plucked_113","midi_source":""},{"t":44.151,"note":51,"dur":0.069,"vel":1.0,"inst":"synth_pluck_v0_blown_260","midi_source":""},{"t":44.151,"note":70,"dur":0.137,"vel":1.0,"inst":"cello_v0_plucked_113","midi_source":""},{"t":44.219,"note":53,"dur":0.069,"vel":1.0,"inst":"violin_v1_additive_535","midi_source":""},{"t":44.288,"note":46,"dur":0.069,"vel":1.0,"inst":"cello_v0_plucked_113","midi_source":""},{"t":44.288,"note":48,"dur":0.069,"vel":1.0,"inst":"synth_pluck_v0_blown_260","midi_source":""},{"t":44.288,"note":85,"dur":0.206,"vel":1.0,"inst":"cello_v0_plucked_113","midi_source":""},{"t":44.356,"note":49,"dur":0.069,"vel":1.0,"inst":"cello_v0_plucked_113","midi_source":""},{"t":44.425,"note":39,"dur":0.137,"vel":1.0,"inst":"synth_pluck_v0_blown_260","midi_source":""},{"t":44.493,"note":78,"dur":0.069,"vel":1.0,"inst":"synth_pluck_v0_blown_260","midi_source":""},{"t":44.493,"note":70,"dur":0.069,"vel":1.0,"inst":"cello_v0_plucked_113","midi_source":""},{"t":44.562,"note":42,"dur":0.137,"vel":1.0,"inst":"synth_pluck_v0_blown_260","midi_source":""},{"t":44.562,"note":82,"dur":0.069,"vel":1.0,"inst":"cello_v0_plucked_113","midi_source":""},{"t":44.63,"note":78,"dur":0.069,"vel":1.0,"inst":"synth_pluck_v0_blown_260","midi_source":""},{"t":44.699,"note":48,"dur":0.137,"vel":1.0,"inst":"synth_pluck_v0_blown_260","midi_source":""},{"t":44.699,"note":75,"dur":0.069,"vel":1.0,"inst":"synth_pluck_v0_blown_260","midi_source":""},{"t":44.768,"note":84,"dur":0.069,"vel":1.0,"inst":"synth_pluck_v0_blown_260","midi_source":""},{"t":44.836,"note":51,"dur":0.137,"vel":1.0,"inst":"synth_pluck_v0_blown_260","midi_source":""},{"t":44.836,"note":78,"dur":0.069,"vel":1.0,"inst":"synth_pluck_v0_blown_260","midi_source":""},{"t":44.836,"note":70,"dur":0.069,"vel":1.0,"inst":"cello_v0_plucked_113","midi_source":""},{"t":44.905,"note":82,"dur":0.069,"vel":1.0,"inst":"cello_v0_plucked_113","midi_source":""},{"t":44.973,"note":53,"dur":0.206,"vel":1.0,"inst":"violin_v1_additive_535","midi_source":""},{"t":44.973,"note":70,"dur":0.069,"vel":1.0,"inst":"cello_v0_plucked_113","midi_source":""},{"t":45.042,"note":75,"dur":0.069,"vel":1.0,"inst":"synth_pluck_v0_blown_260","midi_source":""},{"t":45.11,"note":77,"dur":0.137,"vel":1.0,"inst":"violin_v1_additive_535","midi_source":""},{"t":45.179,"note":70,"dur":0.069,"vel":1.0,"inst":"cello_v0_plucked_113","midi_source":""},{"t":45.179,"note":72,"dur":0.069,"vel":1.0,"inst":"synth_pluck_v0_blown_260","midi_source":""},{"t":45.247,"note":58,"dur":0.069,"vel":1.0,"inst":"cello_v0_plucked_113","midi_source":""},{"t":45.247,"note":70,"dur":0.069,"vel":1.0,"inst":"cello_v0_plucked_113","midi_source":""},{"t":45.316,"note":72,"dur":0.069,"vel":1.0,"inst":"synth_pluck_v0_blown_260","midi_source":""},{"t":45.384,"note":65,"dur":0.069,"vel":1.0,"inst":"violin_v1_additive_535","midi_source":""},{"t":45.384,"note":66,"dur":0.069,"vel":1.0,"inst":"synth_pluck_v0_blown_260","midi_source":""},{"t":45.384,"note":73,"dur":0.137,"vel":1.0,"inst":"cello_v0_plucked_113","midi_source":""},{"t":45.384,"note":70,"dur":0.137,"vel":1.0,"inst":"cello_v0_plucked_113","midi_source":""},{"t":45.453,"note":58,"dur":0.069,"vel":1.0,"inst":"cello_v0_plucked_113","midi_source":""},{"t":45.521,"note":58,"dur":0.069,"vel":1.0,"inst":"cello_v0_plucked_113","midi_source":""},{"t":45.521,"note":70,"dur":0.137,"vel":1.0,"inst":"cello_v0_plucked_113","midi_source":""},{"t":45.59,"note":61,"dur":0.069,"vel":1.0,"inst":"cello_v0_plucked_113","midi_source":""},{"t":45.658,"note":63,"dur":0.069,"vel":1.0,"inst":"synth_pluck_v0_blown_260","midi_source":""},{"t":45.658,"note":78,"dur":0.206,"vel":1.0,"inst":"synth_pluck_v0_blown_260","midi_source":""},{"t":45.727,"note":65,"dur":0.069,"vel":1.0,"inst":"violin_v1_additive_535","midi_source":""},{"t":45.795,"note":66,"dur":0.069,"vel":1.0,"inst":"synth_pluck_v0_blown_260","midi_source":""},{"t":45.864,"note":58,"dur":0.069,"vel":1.0,"inst":"cello_v0_plucked_113","midi_source":""},{"t":45.864,"note":85,"dur":0.069,"vel":1.0,"inst":"cello_v0_plucked_113","midi_source":""},{"t":45.932,"note":70,"dur":0.069,"vel":1.0,"inst":"cello_v0_plucked_113","midi_source":""},{"t":45.932,"note":85,"dur":0.069,"vel":1.0,"inst":"cello_v0_plucked_113","midi_source":""},{"t":46.001,"note":66,"dur":0.069,"vel":1.0,"inst":"synth_pluck_v0_blown_260","midi_source":""},{"t":46.001,"note":87,"dur":0.069,"vel":1.0,"inst":"synth_pluck_v0_blown_260","midi_source":""},{"t":46.069,"note":61,"dur":0.069,"vel":1.0,"inst":"cello_v0_plucked_113","midi_source":""},{"t":46.069,"note":82,"dur":0.137,"vel":1.0,"inst":"cello_v0_plucked_113","midi_source":""},{"t":46.138,"note":63,"dur":0.069,"vel":1.0,"inst":"synth_pluck_v0_blown_260","midi_source":""},{"t":46.206,"note":65,"dur":0.069,"vel":1.0,"inst":"violin_v1_additive_535","midi_source":""},{"t":46.206,"note":70,"dur":0.137,"vel":1.0,"inst":"cello_v0_plucked_113","midi_source":""},{"t":46.275,"note":66,"dur":0.069,"vel":1.0,"inst":"synth_pluck_v0_blown_260","midi_source":""},{"t":46.343,"note":58,"dur":0.069,"vel":1.0,"inst":"cello_v0_plucked_113","midi_source":""},{"t":46.412,"note":70,"dur":0.069,"vel":1.0,"inst":"cello_v0_plucked_113","midi_source":""},{"t":46.412,"note":85,"dur":0.069,"vel":1.0,"inst":"cello_v0_plucked_113","midi_source":""},{"t":46.48,"note":73,"dur":0.069,"vel":1.0,"inst":"cello_v0_plucked_113","midi_source":""},{"t":46.48,"note":87,"dur":0.069,"vel":1.0,"inst":"synth_pluck_v0_blown_260","midi_source":""},{"t":46.549,"note":58,"dur":0.069,"vel":1.0,"inst":"cello_v0_plucked_113","midi_source":""},{"t":46.549,"note":89,"dur":0.069,"vel":1.0,"inst":"violin_v1_additive_535","midi_source":""},{"t":46.617,"note":61,"dur":0.069,"vel":1.0,"inst":"cello_v0_plucked_113","midi_source":""},{"t":46.617,"note":84,"dur":0.137,"vel":1.0,"inst":"synth_pluck_v0_blown_260","midi_source":""},{"t":46.686,"note":65,"dur":0.069,"vel":1.0,"inst":"violin_v1_additive_535","midi_source":""},{"t":46.754,"note":66,"dur":0.069,"vel":1.0,"inst":"synth_pluck_v0_blown_260","midi_source":""},{"t":46.754,"note":82,"dur":0.206,"vel":1.0,"inst":"cello_v0_plucked_113","midi_source":""},{"t":46.823,"note":58,"dur":0.069,"vel":1.0,"inst":"cello_v0_plucked_113","midi_source":""},{"t":46.891,"note":70,"dur":0.069,"vel":1.0,"inst":"cello_v0_plucked_113","midi_source":""},{"t":46.96,"note":73,"dur":0.069,"vel":1.0,"inst":"cello_v0_plucked_113","midi_source":""},{"t":46.96,"note":87,"dur":0.069,"vel":1.0,"inst":"synth_pluck_v0_blown_260","midi_source":""},{"t":47.028,"note":73,"dur":0.069,"vel":1.0,"inst":"cello_v0_plucked_113","midi_source":""},{"t":47.028,"note":89,"dur":0.069,"vel":1.0,"inst":"violin_v1_additive_535","midi_source":""},{"t":47.097,"note":70,"dur":0.069,"vel":1.0,"inst":"cello_v0_plucked_113","midi_source":""},{"t":47.097,"note":90,"dur":0.069,"vel":1.0,"inst":"synth_pluck_v0_blown_260","midi_source":""},{"t":47.165,"note":63,"dur":0.069,"vel":1.0,"inst":"synth_pluck_v0_blown_260","midi_source":""},{"t":47.165,"note":85,"dur":0.137,"vel":1.0,"inst":"cello_v0_plucked_113","midi_source":""},{"t":47.234,"note":66,"dur":0.069,"vel":1.0,"inst":"synth_pluck_v0_blown_260","midi_source":""},{"t":47.302,"note":58,"dur":0.069,"vel":1.0,"inst":"cello_v0_plucked_113","midi_source":""},{"t":47.302,"note":85,"dur":0.137,"vel":1.0,"inst":"cello_v0_plucked_113","midi_source":""},{"t":47.371,"note":70,"dur":0.069,"vel":1.0,"inst":"cello_v0_plucked_113","midi_source":""},{"t":47.439,"note":58,"dur":0.069,"vel":1.0,"inst":"cello_v0_plucked_113","midi_source":""},{"t":47.508,"note":66,"dur":0.069,"vel":1.0,"inst":"synth_pluck_v0_blown_260","midi_source":""},{"t":47.508,"note":82,"dur":0.069,"vel":1.0,"inst":"cello_v0_plucked_113","midi_source":""},{"t":47.576,"note":65,"dur":0.069,"vel":1.0,"inst":"violin_v1_additive_535","midi_source":""},{"t":47.576,"note":70,"dur":0.069,"vel":1.0,"inst":"cello_v0_plucked_113","midi_source":""},{"t":47.645,"note":63,"dur":0.069,"vel":1.0,"inst":"synth_pluck_v0_blown_260","midi_source":""},{"t":47.645,"note":78,"dur":0.069,"vel":1.0,"inst":"synth_pluck_v0_blown_260","midi_source":""},{"t":47.713,"note":65,"dur":0.069,"vel":1.0,"inst":"violin_v1_additive_535","midi_source":""},{"t":47.713,"note":70,"dur":0.069,"vel":1.0,"inst":"cello_v0_plucked_113","midi_source":""},{"t":47.782,"note":66,"dur":0.069,"vel":1.0,"inst":"synth_pluck_v0_blown_260","midi_source":""},{"t":47.782,"note":75,"dur":0.069,"vel":1.0,"inst":"synth_pluck_v0_blown_260","midi_source":""},{"t":47.85,"note":58,"dur":0.069,"vel":1.0,"inst":"cello_v0_plucked_113","midi_source":""},{"t":47.85,"note":77,"dur":0.069,"vel":1.0,"inst":"violin_v1_additive_535","midi_source":""},{"t":47.919,"note":63,"dur":0.069,"vel":1.0,"inst":"synth_pluck_v0_blown_260","midi_source":""},{"t":47.919,"note":73,"dur":0.069,"vel":1.0,"inst":"cello_v0_plucked_113","midi_source":""},{"t":47.987,"note":65,"dur":0.069,"vel":1.0,"inst":"violin_v1_additive_535","midi_source":""},{"t":47.987,"note":73,"dur":0.069,"vel":1.0,"inst":"cello_v0_plucked_113","midi_source":""},{"t":48.056,"note":70,"dur":0.069,"vel":1.0,"inst":"cello_v0_plucked_113","midi_source":""},{"t":48.056,"note":78,"dur":0.069,"vel":1.0,"inst":"synth_pluck_v0_blown_260","midi_source":""},{"t":48.124,"note":58,"dur":0.069,"vel":1.0,"inst":"cello_v0_plucked_113","midi_source":""},{"t":48.124,"note":77,"dur":0.069,"vel":1.0,"inst":"violin_v1_additive_535","midi_source":""},{"t":48.193,"note":66,"dur":0.069,"vel":1.0,"inst":"synth_pluck_v0_blown_260","midi_source":""},{"t":48.193,"note":75,"dur":0.069,"vel":1.0,"inst":"synth_pluck_v0_blown_260","midi_source":""},{"t":48.261,"note":58,"dur":0.069,"vel":1.0,"inst":"cello_v0_plucked_113","midi_source":""},{"t":48.261,"note":77,"dur":0.069,"vel":1.0,"inst":"violin_v1_additive_535","midi_source":""},{"t":48.33,"note":63,"dur":0.069,"vel":1.0,"inst":"synth_pluck_v0_blown_260","midi_source":""},{"t":48.33,"note":73,"dur":0.069,"vel":1.0,"inst":"cello_v0_plucked_113","midi_source":""},{"t":48.398,"note":65,"dur":0.069,"vel":1.0,"inst":"violin_v1_additive_535","midi_source":""},{"t":48.398,"note":73,"dur":0.069,"vel":1.0,"inst":"cello_v0_plucked_113","midi_source":""},{"t":48.467,"note":60,"dur":0.069,"vel":1.0,"inst":"synth_pluck_v0_blown_260","midi_source":""},{"t":48.467,"note":58,"dur":0.069,"vel":1.0,"inst":"cello_v0_plucked_113","midi_source":""},{"t":48.535,"note":61,"dur":0.069,"vel":1.0,"inst":"cello_v0_plucked_113","midi_source":""},{"t":48.535,"note":70,"dur":0.069,"vel":1.0,"inst":"cello_v0_plucked_113","midi_source":""},{"t":48.604,"note":66,"dur":0.069,"vel":1.0,"inst":"synth_pluck_v0_blown_260","midi_source":""},{"t":48.604,"note":75,"dur":0.069,"vel":1.0,"inst":"synth_pluck_v0_blown_260","midi_source":""},{"t":48.672,"note":65,"dur":0.069,"vel":1.0,"inst":"violin_v1_additive_535","midi_source":""},{"t":48.672,"note":73,"dur":0.069,"vel":1.0,"inst":"cello_v0_plucked_113","midi_source":""},{"t":48.741,"note":63,"dur":0.069,"vel":1.0,"inst":"synth_pluck_v0_blown_260","midi_source":""},{"t":48.741,"note":73,"dur":0.069,"vel":1.0,"inst":"cello_v0_plucked_113","midi_source":""},{"t":48.809,"note":65,"dur":0.069,"vel":1.0,"inst":"violin_v1_additive_535","midi_source":""},{"t":48.809,"note":73,"dur":0.069,"vel":1.0,"inst":"cello_v0_plucked_113","midi_source":""},{"t":48.878,"note":61,"dur":0.069,"vel":1.0,"inst":"cello_v0_plucked_113","midi_source":""},{"t":48.878,"note":58,"dur":0.069,"vel":1.0,"inst":"cello_v0_plucked_113","midi_source":""},{"t":48.946,"note":61,"dur":0.069,"vel":1.0,"inst":"cello_v0_plucked_113","midi_source":""},{"t":48.946,"note":70,"dur":0.069,"vel":1.0,"inst":"cello_v0_plucked_113","midi_source":""},{"t":49.015,"note":46,"dur":0.069,"vel":1.0,"inst":"cello_v0_plucked_113","midi_source":""},{"t":49.015,"note":66,"dur":0.069,"vel":1.0,"inst":"synth_pluck_v0_blown_260","midi_source":""},{"t":49.083,"note":58,"dur":0.069,"vel":1.0,"inst":"cello_v0_plucked_113","midi_source":""},{"t":49.083,"note":60,"dur":0.069,"vel":1.0,"inst":"synth_pluck_v0_blown_260","midi_source":""},{"t":49.083,"note":66,"dur":0.069,"vel":1.0,"inst":"synth_pluck_v0_blown_260","midi_source":""},{"t":49.152,"note":61,"dur":0.069,"vel":1.0,"inst":"cello_v0_plucked_113","midi_source":""},{"t":49.152,"note":72,"dur":0.069,"vel":1.0,"inst":"synth_pluck_v0_blown_260","midi_source":""},{"t":49.22,"note":54,"dur":0.069,"vel":1.0,"inst":"synth_pluck_v0_blown_260","midi_source":""},{"t":49.22,"note":46,"dur":0.069,"vel":1.0,"inst":"cello_v0_plucked_113","midi_source":""},{"t":49.22,"note":70,"dur":0.069,"vel":1.0,"inst":"cello_v0_plucked_113","midi_source":""},{"t":49.289,"note":58,"dur":0.069,"vel":1.0,"inst":"cello_v0_plucked_113","midi_source":""},{"t":49.289,"note":58,"dur":0.069,"vel":1.0,"inst":"cello_v0_plucked_113","midi_source":""},{"t":49.357,"note":49,"dur":0.274,"vel":1.0,"inst":"cello_v0_plucked_113","midi_source":""},{"t":49.357,"note":70,"dur":0.069,"vel":1.0,"inst":"cello_v0_plucked_113","midi_source":""},{"t":49.426,"note":66,"dur":0.069,"vel":1.0,"inst":"synth_pluck_v0_blown_260","midi_source":""},{"t":49.494,"note":58,"dur":0.069,"vel":1.0,"inst":"cello_v0_plucked_113","midi_source":""},{"t":49.563,"note":73,"dur":0.069,"vel":1.0,"inst":"cello_v0_plucked_113","midi_source":""},{"t":49.631,"note":75,"dur":0.069,"vel":1.0,"inst":"synth_pluck_v0_blown_260","midi_source":""},{"t":49.7,"note":70,"dur":0.069,"vel":1.0,"inst":"cello_v0_plucked_113","midi_source":""},{"t":49.768,"note":34,"dur":0.137,"vel":1.0,"inst":"cello_v0_plucked_113","midi_source":""},{"t":49.768,"note":58,"dur":0.069,"vel":1.0,"inst":"cello_v0_plucked_113","midi_source":""},{"t":49.837,"note":66,"dur":0.069,"vel":1.0,"inst":"synth_pluck_v0_blown_260","midi_source":""},{"t":49.905,"note":49,"dur":0.137,"vel":1.0,"inst":"cello_v0_plucked_113","midi_source":""},{"t":49.905,"note":65,"dur":0.069,"vel":1.0,"inst":"violin_v1_additive_535","midi_source":""},{"t":49.974,"note":58,"dur":0.069,"vel":1.0,"inst":"cello_v0_plucked_113","midi_source":""},{"t":50.042,"note":65,"dur":0.137,"vel":1.0,"inst":"violin_v1_additive_535","midi_source":""},{"t":50.042,"note":73,"dur":0.069,"vel":1.0,"inst":"cello_v0_plucked_113","midi_source":""},{"t":50.111,"note":77,"dur":0.137,"vel":1.0,"inst":"violin_v1_additive_535","midi_source":""},{"t":50.179,"note":58,"dur":0.137,"vel":1.0,"inst":"cello_v0_plucked_113","midi_source":""},{"t":50.248,"note":73,"dur":0.069,"vel":1.0,"inst":"cello_v0_plucked_113","midi_source":""},{"t":50.316,"note":46,"dur":0.137,"vel":1.0,"inst":"cello_v0_plucked_113","midi_source":""},{"t":50.316,"note":73,"dur":0.069,"vel":1.0,"inst":"cello_v0_plucked_113","midi_source":""},{"t":50.385,"note":65,"dur":0.069,"vel":1.0,"inst":"violin_v1_additive_535","midi_source":""},{"t":50.453,"note":51,"dur":0.137,"vel":1.0,"inst":"synth_pluck_v0_blown_260","midi_source":""},{"t":50.453,"note":66,"dur":0.069,"vel":1.0,"inst":"synth_pluck_v0_blown_260","midi_source":""},{"t":50.522,"note":70,"dur":0.069,"vel":1.0,"inst":"cello_v0_plucked_113","midi_source":""},{"t":50.59,"note":66,"dur":0.137,"vel":1.0,"inst":"synth_pluck_v0_blown_260","midi_source":""},{"t":50.59,"note":73,"dur":0.069,"vel":1.0,"inst":"cello_v0_plucked_113","midi_source":""},{"t":50.659,"note":77,"dur":0.069,"vel":1.0,"inst":"violin_v1_additive_535","midi_source":""},{"t":50.727,"note":58,"dur":0.137,"vel":1.0,"inst":"cello_v0_plucked_113","midi_source":""},{"t":50.796,"note":73,"dur":0.069,"vel":1.0,"inst":"cello_v0_plucked_113","midi_source":""},{"t":50.864,"note":46,"dur":0.137,"vel":1.0,"inst":"cello_v0_plucked_113","midi_source":""},{"t":50.864,"note":73,"dur":0.069,"vel":1.0,"inst":"cello_v0_plucked_113","midi_source":""},{"t":50.933,"note":66,"dur":0.069,"vel":1.0,"inst":"synth_pluck_v0_blown_260","midi_source":""},{"t":51.001,"note":53,"dur":0.137,"vel":1.0,"inst":"violin_v1_additive_535","midi_source":""},{"t":51.001,"note":58,"dur":0.069,"vel":1.0,"inst":"cello_v0_plucked_113","midi_source":""},{"t":51.07,"note":73,"dur":0.069,"vel":1.0,"inst":"cello_v0_plucked_113","midi_source":""},{"t":51.138,"note":58,"dur":0.137,"vel":1.0,"inst":"cello_v0_plucked_113","midi_source":""},{"t":51.138,"note":73,"dur":0.069,"vel":1.0,"inst":"cello_v0_plucked_113","midi_source":""},{"t":51.207,"note":61,"dur":0.069,"vel":1.0,"inst":"cello_v0_plucked_113","midi_source":""},{"t":51.207,"note":70,"dur":0.069,"vel":1.0,"inst":"cello_v0_plucked_113","midi_source":""},{"t":51.275,"note":63,"dur":0.137,"vel":1.0,"inst":"synth_pluck_v0_blown_260","midi_source":""},{"t":51.275,"note":72,"dur":0.069,"vel":1.0,"inst":"synth_pluck_v0_blown_260","midi_source":""},{"t":51.344,"note":82,"dur":0.069,"vel":1.0,"inst":"cello_v0_plucked_113","midi_source":""},{"t":51.412,"note":60,"dur":0.137,"vel":1.0,"inst":"synth_pluck_v0_blown_260","midi_source":""},{"t":51.412,"note":70,"dur":0.069,"vel":1.0,"inst":"cello_v0_plucked_113","midi_source":""},{"t":51.481,"note":78,"dur":0.069,"vel":1.0,"inst":"synth_pluck_v0_blown_260","midi_source":""},{"t":51.549,"note":61,"dur":0.137,"vel":1.0,"inst":"cello_v0_plucked_113","midi_source":""},{"t":51.549,"note":78,"dur":0.206,"vel":1.0,"inst":"synth_pluck_v0_blown_260","midi_source":""},{"t":51.686,"note":49,"dur":0.137,"vel":1.0,"inst":"cello_v0_plucked_113","midi_source":""},{"t":51.755,"note":75,"dur":0.069,"vel":1.0,"inst":"synth_pluck_v0_blown_260","midi_source":""},{"t":51.823,"note":73,"dur":0.137,"vel":1.0,"inst":"cello_v0_plucked_113","midi_source":""},{"t":51.892,"note":60,"dur":0.069,"vel":1.0,"inst":"synth_pluck_v0_blown_260","midi_source":""},{"t":51.96,"note":58,"dur":0.069,"vel":1.0,"inst":"cello_v0_plucked_113","midi_source":""},{"t":51.96,"note":78,"dur":0.137,"vel":1.0,"inst":"synth_pluck_v0_blown_260","midi_source":""},{"t":52.029,"note":46,"dur":0.069,"vel":1.0,"inst":"cello_v0_plucked_113","midi_source":""},{"t":52.097,"note":58,"dur":0.069,"vel":1.0,"inst":"cello_v0_plucked_113","midi_source":""},{"t":52.097,"note":78,"dur":0.069,"vel":1.0,"inst":"synth_pluck_v0_blown_260","midi_source":""},{"t":52.166,"note":53,"dur":0.069,"vel":1.0,"inst":"violin_v1_additive_535","midi_source":""},{"t":52.166,"note":70,"dur":0.069,"vel":1.0,"inst":"cello_v0_plucked_113","midi_source":""},{"t":52.234,"note":54,"dur":0.069,"vel":1.0,"inst":"synth_pluck_v0_blown_260","midi_source":""},{"t":52.234,"note":82,"dur":0.137,"vel":1.0,"inst":"cello_v0_plucked_113","midi_source":""},{"t":52.303,"note":49,"dur":0.069,"vel":1.0,"inst":"cello_v0_plucked_113","midi_source":""},{"t":52.371,"note":51,"dur":0.069,"vel":1.0,"inst":"synth_pluck_v0_blown_260","midi_source":""},{"t":52.371,"note":72,"dur":0.069,"vel":1.0,"inst":"synth_pluck_v0_blown_260","midi_source":""},{"t":52.44,"note":61,"dur":0.069,"vel":1.0,"inst":"cello_v0_plucked_113","midi_source":""},{"t":52.44,"note":82,"dur":0.069,"vel":1.0,"inst":"cello_v0_plucked_113","midi_source":""},{"t":52.508,"note":60,"dur":0.069,"vel":1.0,"inst":"synth_pluck_v0_blown_260","midi_source":""},{"t":52.508,"note":70,"dur":0.069,"vel":1.0,"inst":"cello_v0_plucked_113","midi_source":""},{"t":52.577,"note":58,"dur":0.069,"vel":1.0,"inst":"cello_v0_plucked_113","midi_source":""},{"t":52.577,"note":78,"dur":0.069,"vel":1.0,"inst":"synth_pluck_v0_blown_260","midi_source":""},{"t":52.645,"note":60,"dur":0.069,"vel":1.0,"inst":"synth_pluck_v0_blown_260","midi_source":""},{"t":52.645,"note":70,"dur":0.069,"vel":1.0,"inst":"cello_v0_plucked_113","midi_source":""},{"t":52.714,"note":54,"dur":0.069,"vel":1.0,"inst":"synth_pluck_v0_blown_260","midi_source":""},{"t":52.714,"note":82,"dur":0.069,"vel":1.0,"inst":"cello_v0_plucked_113","midi_source":""},{"t":52.782,"note":46,"dur":0.069,"vel":1.0,"inst":"cello_v0_plucked_113","midi_source":""},{"t":52.782,"note":84,"dur":0.137,"vel":1.0,"inst":"synth_pluck_v0_blown_260","midi_source":""},{"t":52.851,"note":51,"dur":0.069,"vel":1.0,"inst":"synth_pluck_v0_blown_260","midi_source":""},{"t":52.919,"note":54,"dur":0.069,"vel":1.0,"inst":"synth_pluck_v0_blown_260","midi_source":""},{"t":52.919,"note":73,"dur":0.069,"vel":1.0,"inst":"cello_v0_plucked_113","midi_source":""},{"t":52.988,"note":63,"dur":0.069,"vel":1.0,"inst":"synth_pluck_v0_blown_260","midi_source":""},{"t":52.988,"note":84,"dur":0.069,"vel":1.0,"inst":"synth_pluck_v0_blown_260","midi_source":""},{"t":53.056,"note":61,"dur":0.069,"vel":1.0,"inst":"cello_v0_plucked_113","midi_source":""},{"t":53.056,"note":82,"dur":0.069,"vel":1.0,"inst":"cello_v0_plucked_113","midi_source":""},{"t":53.125,"note":60,"dur":0.069,"vel":1.0,"inst":"synth_pluck_v0_blown_260","midi_source":""},{"t":53.125,"note":70,"dur":0.069,"vel":1.0,"inst":"cello_v0_plucked_113","midi_source":""},{"t":53.193,"note":61,"dur":0.069,"vel":1.0,"inst":"cello_v0_plucked_113","midi_source":""},{"t":53.193,"note":82,"dur":0.069,"vel":1.0,"inst":"cello_v0_plucked_113","midi_source":""},{"t":53.262,"note":46,"dur":0.069,"vel":1.0,"inst":"cello_v0_plucked_113","midi_source":""},{"t":53.262,"note":84,"dur":0.069,"vel":1.0,"inst":"synth_pluck_v0_blown_260","midi_source":""},{"t":53.33,"note":58,"dur":0.069,"vel":1.0,"inst":"cello_v0_plucked_113","midi_source":""},{"t":53.33,"note":85,"dur":0.137,"vel":1.0,"inst":"cello_v0_plucked_113","midi_source":""},{"t":53.399,"note":54,"dur":0.069,"vel":1.0,"inst":"synth_pluck_v0_blown_260","midi_source":""},{"t":53.467,"note":54,"dur":0.069,"vel":1.0,"inst":"synth_pluck_v0_blown_260","midi_source":""},{"t":53.467,"note":75,"dur":0.069,"vel":1.0,"inst":"synth_pluck_v0_blown_260","midi_source":""},{"t":53.536,"note":65,"dur":0.069,"vel":1.0,"inst":"violin_v1_additive_535","midi_source":""},{"t":53.536,"note":85,"dur":0.069,"vel":1.0,"inst":"cello_v0_plucked_113","midi_source":""},{"t":53.604,"note":63,"dur":0.069,"vel":1.0,"inst":"synth_pluck_v0_blown_260","midi_source":""},{"t":53.604,"note":84,"dur":0.069,"vel":1.0,"inst":"synth_pluck_v0_blown_260","midi_source":""},{"t":53.673,"note":61,"dur":0.069,"vel":1.0,"inst":"cello_v0_plucked_113","midi_source":""},{"t":53.673,"note":82,"dur":0.069,"vel":1.0,"inst":"cello_v0_plucked_113","midi_source":""},{"t":53.741,"note":63,"dur":0.069,"vel":1.0,"inst":"synth_pluck_v0_blown_260","midi_source":""},{"t":53.741,"note":84,"dur":0.069,"vel":1.0,"inst":"synth_pluck_v0_blown_260","midi_source":""},{"t":53.81,"note":58,"dur":0.069,"vel":1.0,"inst":"cello_v0_plucked_113","midi_source":""},{"t":53.81,"note":85,"dur":0.069,"vel":1.0,"inst":"cello_v0_plucked_113","midi_source":""},{"t":53.878,"note":60,"dur":0.069,"vel":1.0,"inst":"synth_pluck_v0_blown_260","midi_source":""},{"t":53.878,"note":87,"dur":0.137,"vel":1.0,"inst":"synth_pluck_v0_blown_260","midi_source":""},{"t":53.947,"note":54,"dur":0.069,"vel":1.0,"inst":"synth_pluck_v0_blown_260","midi_source":""},{"t":54.015,"note":46,"dur":0.137,"vel":1.0,"inst":"cello_v0_plucked_113","midi_source":""},{"t":54.015,"note":78,"dur":0.069,"vel":1.0,"inst":"synth_pluck_v0_blown_260","midi_source":""},{"t":54.084,"note":87,"dur":0.069,"vel":1.0,"inst":"synth_pluck_v0_blown_260","midi_source":""},{"t":54.152,"note":66,"dur":0.137,"vel":1.0,"inst":"synth_pluck_v0_blown_260","midi_source":""},{"t":54.152,"note":85,"dur":0.069,"vel":1.0,"inst":"cello_v0_plucked_113","midi_source":""},{"t":54.221,"note":84,"dur":0.069,"vel":1.0,"inst":"synth_pluck_v0_blown_260","midi_source":""},{"t":54.289,"note":66,"dur":0.137,"vel":1.0,"inst":"synth_pluck_v0_blown_260","midi_source":""},{"t":54.289,"note":82,"dur":0.069,"vel":1.0,"inst":"cello_v0_plucked_113","midi_source":""},{"t":54.358,"note":78,"dur":0.069,"vel":1.0,"inst":"synth_pluck_v0_blown_260","midi_source":""},{"t":54.426,"note":70,"dur":0.137,"vel":1.0,"inst":"cello_v0_plucked_113","midi_source":""},{"t":54.426,"note":78,"dur":0.069,"vel":1.0,"inst":"synth_pluck_v0_blown_260","midi_source":""},{"t":54.495,"note":73,"dur":0.069,"vel":1.0,"inst":"cello_v0_plucked_113","midi_source":""},{"t":54.563,"note":60,"dur":0.137,"vel":1.0,"inst":"synth_pluck_v0_blown_260","midi_source":""},{"t":54.563,"note":75,"dur":0.069,"vel":1.0,"inst":"synth_pluck_v0_blown_260","midi_source":""},{"t":54.632,"note":70,"dur":0.069,"vel":1.0,"inst":"cello_v0_plucked_113","midi_source":""},{"t":54.7,"note":63,"dur":0.137,"vel":1.0,"inst":"synth_pluck_v0_blown_260","midi_source":""},{"t":54.7,"note":72,"dur":0.069,"vel":1.0,"inst":"synth_pluck_v0_blown_260","midi_source":""},{"t":54.769,"note":78,"dur":0.069,"vel":1.0,"inst":"synth_pluck_v0_blown_260","midi_source":""},{"t":54.837,"note":54,"dur":0.137,"vel":1.0,"inst":"synth_pluck_v0_blown_260","midi_source":""},{"t":54.837,"note":70,"dur":0.069,"vel":1.0,"inst":"cello_v0_plucked_113","midi_source":""},{"t":54.906,"note":73,"dur":0.069,"vel":1.0,"inst":"cello_v0_plucked_113","midi_source":""},{"t":54.974,"note":46,"dur":0.137,"vel":1.0,"inst":"cello_v0_plucked_113","midi_source":""},{"t":54.974,"note":75,"dur":0.069,"vel":1.0,"inst":"synth_pluck_v0_blown_260","midi_source":""},{"t":55.043,"note":72,"dur":0.069,"vel":1.0,"inst":"synth_pluck_v0_blown_260","midi_source":""},{"t":55.111,"note":48,"dur":0.137,"vel":1.0,"inst":"synth_pluck_v0_blown_260","midi_source":""},{"t":55.111,"note":73,"dur":0.069,"vel":1.0,"inst":"cello_v0_plucked_113","midi_source":""},{"t":55.18,"note":58,"dur":0.069,"vel":1.0,"inst":"cello_v0_plucked_113","midi_source":""},{"t":55.248,"note":49,"dur":0.137,"vel":1.0,"inst":"cello_v0_plucked_113","midi_source":""},{"t":55.248,"note":70,"dur":0.069,"vel":1.0,"inst":"cello_v0_plucked_113","midi_source":""},{"t":55.317,"note":78,"dur":0.069,"vel":1.0,"inst":"synth_pluck_v0_blown_260","midi_source":""},{"t":55.385,"note":51,"dur":0.137,"vel":1.0,"inst":"synth_pluck_v0_blown_260","midi_source":""},{"t":55.385,"note":78,"dur":0.069,"vel":1.0,"inst":"synth_pluck_v0_blown_260","midi_source":""},{"t":55.454,"note":72,"dur":0.069,"vel":1.0,"inst":"synth_pluck_v0_blown_260","midi_source":""},{"t":55.454,"note":73,"dur":0.069,"vel":1.0,"inst":"cello_v0_plucked_113","midi_source":""},{"t":55.522,"note":48,"dur":0.137,"vel":1.0,"inst":"synth_pluck_v0_blown_260","midi_source":""},{"t":55.522,"note":75,"dur":0.069,"vel":1.0,"inst":"synth_pluck_v0_blown_260","midi_source":""},{"t":55.591,"note":72,"dur":0.069,"vel":1.0,"inst":"synth_pluck_v0_blown_260","midi_source":""},{"t":55.659,"note":49,"dur":0.137,"vel":1.0,"inst":"cello_v0_plucked_113","midi_source":""},{"t":55.659,"note":58,"dur":0.069,"vel":1.0,"inst":"cello_v0_plucked_113","midi_source":""},{"t":55.728,"note":72,"dur":0.069,"vel":1.0,"inst":"synth_pluck_v0_blown_260","midi_source":""},{"t":55.796,"note":61,"dur":0.137,"vel":1.0,"inst":"cello_v0_plucked_113","midi_source":""},{"t":55.796,"note":78,"dur":0.069,"vel":1.0,"inst":"synth_pluck_v0_blown_260","midi_source":""},{"t":55.865,"note":78,"dur":0.069,"vel":1.0,"inst":"synth_pluck_v0_blown_260","midi_source":""},{"t":55.933,"note":54,"dur":0.137,"vel":1.0,"inst":"synth_pluck_v0_blown_260","midi_source":""},{"t":55.933,"note":78,"dur":0.069,"vel":1.0,"inst":"synth_pluck_v0_blown_260","midi_source":""},{"t":56.002,"note":72,"dur":0.069,"vel":1.0,"inst":"synth_pluck_v0_blown_260","midi_source":""},{"t":56.07,"note":61,"dur":0.137,"vel":1.0,"inst":"cello_v0_plucked_113","midi_source":""},{"t":56.07,"note":70,"dur":0.069,"vel":1.0,"inst":"cello_v0_plucked_113","midi_source":""},{"t":56.139,"note":58,"dur":0.069,"vel":1.0,"inst":"cello_v0_plucked_113","midi_source":""},{"t":56.207,"note":66,"dur":0.137,"vel":1.0,"inst":"synth_pluck_v0_blown_260","midi_source":""},{"t":56.207,"note":70,"dur":0.069,"vel":1.0,"inst":"cello_v0_plucked_113","midi_source":""},{"t":56.276,"note":78,"dur":0.069,"vel":1.0,"inst":"synth_pluck_v0_blown_260","midi_source":""},{"t":56.344,"note":58,"dur":0.137,"vel":1.0,"inst":"cello_v0_plucked_113","midi_source":""},{"t":56.344,"note":77,"dur":0.069,"vel":1.0,"inst":"violin_v1_additive_535","midi_source":""},{"t":56.413,"note":75,"dur":0.069,"vel":1.0,"inst":"synth_pluck_v0_blown_260","midi_source":""},{"t":56.481,"note":66,"dur":0.206,"vel":1.0,"inst":"synth_pluck_v0_blown_260","midi_source":""},{"t":56.481,"note":73,"dur":0.069,"vel":1.0,"inst":"cello_v0_plucked_113","midi_source":""},{"t":56.55,"note":78,"dur":0.069,"vel":1.0,"inst":"synth_pluck_v0_blown_260","midi_source":""},{"t":56.55,"note":70,"dur":0.069,"vel":1.0,"inst":"cello_v0_plucked_113","midi_source":""},{"t":56.618,"note":82,"dur":0.069,"vel":1.0,"inst":"cello_v0_plucked_113","midi_source":""},{"t":56.687,"note":60,"dur":0.069,"vel":1.0,"inst":"synth_pluck_v0_blown_260","midi_source":""},{"t":56.687,"note":61,"dur":0.069,"vel":1.0,"inst":"cello_v0_plucked_113","midi_source":""},{"t":56.687,"note":78,"dur":0.069,"vel":1.0,"inst":"synth_pluck_v0_blown_260","midi_source":""},{"t":56.755,"note":58,"dur":0.069,"vel":1.0,"inst":"cello_v0_plucked_113","midi_source":""},{"t":56.755,"note":60,"dur":0.069,"vel":1.0,"inst":"synth_pluck_v0_blown_260","midi_source":""},{"t":56.755,"note":73,"dur":0.137,"vel":1.0,"inst":"cello_v0_plucked_113","midi_source":""},{"t":56.824,"note":61,"dur":0.069,"vel":1.0,"inst":"cello_v0_plucked_113","midi_source":""},{"t":56.892,"note":54,"dur":0.069,"vel":1.0,"inst":"synth_pluck_v0_blown_260","midi_source":""},{"t":56.892,"note":46,"dur":0.069,"vel":1.0,"inst":"cello_v0_plucked_113","midi_source":""},{"t":56.892,"note":75,"dur":0.137,"vel":1.0,"inst":"synth_pluck_v0_blown_260","midi_source":""},{"t":56.961,"note":58,"dur":0.069,"vel":1.0,"inst":"cello_v0_plucked_113","midi_source":""},{"t":57.029,"note":49,"dur":0.206,"vel":1.0,"inst":"cello_v0_plucked_113","midi_source":""},{"t":57.029,"note":77,"dur":0.069,"vel":1.0,"inst":"violin_v1_additive_535","midi_source":""},{"t":57.098,"note":72,"dur":0.069,"vel":1.0,"inst":"synth_pluck_v0_blown_260","midi_source":""},{"t":57.167,"note":73,"dur":0.069,"vel":1.0,"inst":"cello_v0_plucked_113","midi_source":""},{"t":57.235,"note":51,"dur":0.069,"vel":1.0,"inst":"synth_pluck_v0_blown_260","midi_source":""},{"t":57.235,"note":53,"dur":0.069,"vel":1.0,"inst":"violin_v1_additive_535","midi_source":""},{"t":57.235,"note":58,"dur":0.069,"vel":1.0,"inst":"cello_v0_plucked_113","midi_source":""},{"t":57.304,"note":49,"dur":0.069,"vel":1.0,"inst":"cello_v0_plucked_113","midi_source":""},{"t":57.304,"note":51,"dur":0.069,"vel":1.0,"inst":"synth_pluck_v0_blown_260","midi_source":""},{"t":57.304,"note":70,"dur":0.137,"vel":1.0,"inst":"cello_v0_plucked_113","midi_source":""},{"t":57.372,"note":53,"dur":0.069,"vel":1.0,"inst":"violin_v1_additive_535","midi_source":""},{"t":57.441,"note":46,"dur":0.069,"vel":1.0,"inst":"cello_v0_plucked_113","midi_source":""},{"t":57.441,"note":48,"dur":0.069,"vel":1.0,"inst":"synth_pluck_v0_blown_260","midi_source":""},{"t":57.441,"note":85,"dur":0.206,"vel":1.0,"inst":"cello_v0_plucked_113","midi_source":""},{"t":57.509,"note":49,"dur":0.069,"vel":1.0,"inst":"cello_v0_plucked_113","midi_source":""},{"t":57.578,"note":39,"dur":0.137,"vel":1.0,"inst":"synth_pluck_v0_blown_260","midi_source":""},{"t":57.646,"note":78,"dur":0.069,"vel":1.0,"inst":"synth_pluck_v0_blown_260","midi_source":""},{"t":57.646,"note":70,"dur":0.069,"vel":1.0,"inst":"cello_v0_plucked_113","midi_source":""},{"t":57.715,"note":42,"dur":0.137,"vel":1.0,"inst":"synth_pluck_v0_blown_260","midi_source":""},{"t":57.715,"note":82,"dur":0.069,"vel":1.0,"inst":"cello_v0_plucked_113","midi_source":""},{"t":57.783,"note":78,"dur":0.069,"vel":1.0,"inst":"synth_pluck_v0_blown_260","midi_source":""},{"t":57.852,"note":48,"dur":0.137,"vel":1.0,"inst":"synth_pluck_v0_blown_260","midi_source":""},{"t":57.852,"note":75,"dur":0.069,"vel":1.0,"inst":"synth_pluck_v0_blown_260","midi_source":""},{"t":57.92,"note":84,"dur":0.069,"vel":1.0,"inst":"synth_pluck_v0_blown_260","midi_source":""},{"t":57.989,"note":51,"dur":0.137,"vel":1.0,"inst":"synth_pluck_v0_blown_260","midi_source":""},{"t":57.989,"note":78,"dur":0.069,"vel":1.0,"inst":"synth_pluck_v0_blown_260","midi_source":""},{"t":57.989,"note":70,"dur":0.069,"vel":1.0,"inst":"cello_v0_plucked_113","midi_source":""},{"t":58.057,"note":82,"dur":0.069,"vel":1.0,"inst":"cello_v0_plucked_113","midi_source":""},{"t":58.126,"note":53,"dur":0.206,"vel":1.0,"inst":"violin_v1_additive_535","midi_source":""},{"t":58.126,"note":70,"dur":0.069,"vel":1.0,"inst":"cello_v0_plucked_113","midi_source":""},{"t":58.194,"note":75,"dur":0.069,"vel":1.0,"inst":"synth_pluck_v0_blown_260","midi_source":""},{"t":58.263,"note":77,"dur":0.137,"vel":1.0,"inst":"violin_v1_additive_535","midi_source":""},{"t":58.331,"note":70,"dur":0.069,"vel":1.0,"inst":"cello_v0_plucked_113","midi_source":""},{"t":58.331,"note":72,"dur":0.069,"vel":1.0,"inst":"synth_pluck_v0_blown_260","midi_source":""},{"t":58.4,"note":58,"dur":0.069,"vel":1.0,"inst":"cello_v0_plucked_113","midi_source":""},{"t":58.4,"note":70,"dur":0.069,"vel":1.0,"inst":"cello_v0_plucked_113","midi_source":""},{"t":58.468,"note":72,"dur":0.069,"vel":1.0,"inst":"synth_pluck_v0_blown_260","midi_source":""},{"t":58.537,"note":65,"dur":0.069,"vel":1.0,"inst":"violin_v1_additive_535","midi_source":""},{"t":58.537,"note":66,"dur":0.069,"vel":1.0,"inst":"synth_pluck_v0_blown_260","midi_source":""},{"t":58.537,"note":73,"dur":0.137,"vel":1.0,"inst":"cello_v0_plucked_113","midi_source":""},{"t":58.537,"note":70,"dur":0.137,"vel":1.0,"inst":"cello_v0_plucked_113","midi_source":""},{"t":58.605,"note":58,"dur":0.069,"vel":1.0,"inst":"cello_v0_plucked_113","midi_source":""},{"t":58.674,"note":58,"dur":0.069,"vel":1.0,"inst":"cello_v0_plucked_113","midi_source":""},{"t":58.674,"note":70,"dur":0.137,"vel":1.0,"inst":"cello_v0_plucked_113","midi_source":""},{"t":58.742,"note":61,"dur":0.069,"vel":1.0,"inst":"cello_v0_plucked_113","midi_source":""},{"t":58.811,"note":63,"dur":0.069,"vel":1.0,"inst":"synth_pluck_v0_blown_260","midi_source":""},{"t":58.811,"note":78,"dur":0.206,"vel":1.0,"inst":"synth_pluck_v0_blown_260","midi_source":""},{"t":58.879,"note":65,"dur":0.069,"vel":1.0,"inst":"violin_v1_additive_535","midi_source":""},{"t":58.948,"note":66,"dur":0.069,"vel":1.0,"inst":"synth_pluck_v0_blown_260","midi_source":""},{"t":59.016,"note":58,"dur":0.069,"vel":1.0,"inst":"cello_v0_plucked_113","midi_source":""},{"t":59.016,"note":85,"dur":0.069,"vel":1.0,"inst":"cello_v0_plucked_113","midi_source":""},{"t":59.085,"note":70,"dur":0.069,"vel":1.0,"inst":"cello_v0_plucked_113","midi_source":""},{"t":59.085,"note":85,"dur":0.069,"vel":1.0,"inst":"cello_v0_plucked_113","midi_source":""},{"t":59.153,"note":66,"dur":0.069,"vel":1.0,"inst":"synth_pluck_v0_blown_260","midi_source":""},{"t":59.153,"note":87,"dur":0.069,"vel":1.0,"inst":"synth_pluck_v0_blown_260","midi_source":""},{"t":59.222,"note":61,"dur":0.069,"vel":1.0,"inst":"cello_v0_plucked_113","midi_source":""},{"t":59.222,"note":82,"dur":0.137,"vel":1.0,"inst":"cello_v0_plucked_113","midi_source":""},{"t":59.29,"note":63,"dur":0.069,"vel":1.0,"inst":"synth_pluck_v0_blown_260","midi_source":""},{"t":59.359,"note":65,"dur":0.069,"vel":1.0,"inst":"violin_v1_additive_535","midi_source":""},{"t":59.359,"note":70,"dur":0.137,"vel":1.0,"inst":"cello_v0_plucked_113","midi_source":""},{"t":59.427,"note":66,"dur":0.069,"vel":1.0,"inst":"synth_pluck_v0_blown_260","midi_source":""},{"t":59.496,"note":58,"dur":0.069,"vel":1.0,"inst":"cello_v0_plucked_113","midi_source":""},{"t":59.564,"note":70,"dur":0.069,"vel":1.0,"inst":"cello_v0_plucked_113","midi_source":""},{"t":59.564,"note":85,"dur":0.069,"vel":1.0,"inst":"cello_v0_plucked_113","midi_source":""},{"t":59.633,"note":73,"dur":0.069,"vel":1.0,"inst":"cello_v0_plucked_113","midi_source":""},{"t":59.633,"note":87,"dur":0.069,"vel":1.0,"inst":"synth_pluck_v0_blown_260","midi_source":""},{"t":59.701,"note":58,"dur":0.069,"vel":1.0,"inst":"cello_v0_plucked_113","midi_source":""},{"t":59.701,"note":89,"dur":0.069,"vel":1.0,"inst":"violin_v1_additive_535","midi_source":""},{"t":59.77,"note":61,"dur":0.069,"vel":1.0,"inst":"cello_v0_plucked_113","midi_source":""},{"t":59.77,"note":84,"dur":0.137,"vel":1.0,"inst":"synth_pluck_v0_blown_260","midi_source":""},{"t":59.838,"note":65,"dur":0.069,"vel":1.0,"inst":"violin_v1_additive_535","midi_source":""},{"t":59.907,"note":66,"dur":0.069,"vel":1.0,"inst":"synth_pluck_v0_blown_260","midi_source":""},{"t":59.907,"note":82,"dur":0.206,"vel":1.0,"inst":"cello_v0_plucked_113","midi_source":""},{"t":59.975,"note":58,"dur":0.069,"vel":1.0,"inst":"cello_v0_plucked_113","midi_source":""},{"t":60.044,"note":70,"dur":0.069,"vel":1.0,"inst":"cello_v0_plucked_113","midi_source":""},{"t":60.112,"note":73,"dur":0.069,"vel":1.0,"inst":"cello_v0_plucked_113","midi_source":""},{"t":60.112,"note":87,"dur":0.069,"vel":1.0,"inst":"synth_pluck_v0_blown_260","midi_source":""},{"t":60.181,"note":73,"dur":0.069,"vel":1.0,"inst":"cello_v0_plucked_113","midi_source":""},{"t":60.181,"note":89,"dur":0.069,"vel":1.0,"inst":"violin_v1_additive_535","midi_source":""},{"t":60.249,"note":70,"dur":0.069,"vel":1.0,"inst":"cello_v0_plucked_113","midi_source":""},{"t":60.249,"note":90,"dur":0.069,"vel":1.0,"inst":"synth_pluck_v0_blown_260","midi_source":""},{"t":60.318,"note":63,"dur":0.069,"vel":1.0,"inst":"synth_pluck_v0_blown_260","midi_source":""},{"t":60.318,"note":85,"dur":0.137,"vel":1.0,"inst":"cello_v0_plucked_113","midi_source":""},{"t":60.386,"note":66,"dur":0.069,"vel":1.0,"inst":"synth_pluck_v0_blown_260","midi_source":""},{"t":60.455,"note":58,"dur":0.069,"vel":1.0,"inst":"cello_v0_plucked_113","midi_source":""},{"t":60.455,"note":85,"dur":0.137,"vel":1.0,"inst":"cello_v0_plucked_113","midi_source":""},{"t":60.523,"note":70,"dur":0.069,"vel":1.0,"inst":"cello_v0_plucked_113","midi_source":""},{"t":60.592,"note":58,"dur":0.069,"vel":1.0,"inst":"cello_v0_plucked_113","midi_source":""},{"t":60.66,"note":66,"dur":0.069,"vel":1.0,"inst":"synth_pluck_v0_blown_260","midi_source":""},{"t":60.66,"note":82,"dur":0.069,"vel":1.0,"inst":"cello_v0_plucked_113","midi_source":""},{"t":60.729,"note":65,"dur":0.069,"vel":1.0,"inst":"violin_v1_additive_535","midi_source":""},{"t":60.729,"note":70,"dur":0.069,"vel":1.0,"inst":"cello_v0_plucked_113","midi_source":""},{"t":60.797,"note":63,"dur":0.069,"vel":1.0,"inst":"synth_pluck_v0_blown_260","midi_source":""},{"t":60.797,"note":78,"dur":0.069,"vel":1.0,"inst":"synth_pluck_v0_blown_260","midi_source":""},{"t":60.866,"note":65,"dur":0.069,"vel":1.0,"inst":"violin_v1_additive_535","midi_source":""},{"t":60.866,"note":70,"dur":0.069,"vel":1.0,"inst":"cello_v0_plucked_113","midi_source":""},{"t":60.934,"note":66,"dur":0.069,"vel":1.0,"inst":"synth_pluck_v0_blown_260","midi_source":""},{"t":60.934,"note":75,"dur":0.069,"vel":1.0,"inst":"synth_pluck_v0_blown_260","midi_source":""},{"t":61.003,"note":58,"dur":0.069,"vel":1.0,"inst":"cello_v0_plucked_113","midi_source":""},{"t":61.003,"note":77,"dur":0.069,"vel":1.0,"inst":"violin_v1_additive_535","midi_source":""},{"t":61.071,"note":63,"dur":0.069,"vel":1.0,"inst":"synth_pluck_v0_blown_260","midi_source":""},{"t":61.071,"note":73,"dur":0.069,"vel":1.0,"inst":"cello_v0_plucked_113","midi_source":""},{"t":61.14,"note":65,"dur":0.069,"vel":1.0,"inst":"violin_v1_additive_535","midi_source":""},{"t":61.14,"note":73,"dur":0.069,"vel":1.0,"inst":"cello_v0_plucked_113","midi_source":""},{"t":61.208,"note":70,"dur":0.069,"vel":1.0,"inst":"cello_v0_plucked_113","midi_source":""},{"t":61.208,"note":78,"dur":0.069,"vel":1.0,"inst":"synth_pluck_v0_blown_260","midi_source":""},{"t":61.277,"note":58,"dur":0.069,"vel":1.0,"inst":"cello_v0_plucked_113","midi_source":""},{"t":61.277,"note":77,"dur":0.069,"vel":1.0,"inst":"violin_v1_additive_535","midi_source":""},{"t":61.345,"note":66,"dur":0.069,"vel":1.0,"inst":"synth_pluck_v0_blown_260","midi_source":""},{"t":61.345,"note":75,"dur":0.069,"vel":1.0,"inst":"synth_pluck_v0_blown_260","midi_source":""},{"t":61.414,"note":58,"dur":0.069,"vel":1.0,"inst":"cello_v0_plucked_113","midi_source":""},{"t":61.414,"note":77,"dur":0.069,"vel":1.0,"inst":"violin_v1_additive_535","midi_source":""},{"t":61.482,"note":63,"dur":0.069,"vel":1.0,"inst":"synth_pluck_v0_blown_260","midi_source":""},{"t":61.482,"note":73,"dur":0.069,"vel":1.0,"inst":"cello_v0_plucked_113","midi_source":""},{"t":61.551,"note":65,"dur":0.069,"vel":1.0,"inst":"violin_v1_additive_535","midi_source":""},{"t":61.551,"note":73,"dur":0.069,"vel":1.0,"inst":"cello_v0_plucked_113","midi_source":""},{"t":61.619,"note":60,"dur":0.069,"vel":1.0,"inst":"synth_pluck_v0_blown_260","midi_source":""},{"t":61.619,"note":58,"dur":0.069,"vel":1.0,"inst":"cello_v0_plucked_113","midi_source":""},{"t":61.688,"note":61,"dur":0.069,"vel":1.0,"inst":"cello_v0_plucked_113","midi_source":""},{"t":61.688,"note":70,"dur":0.069,"vel":1.0,"inst":"cello_v0_plucked_113","midi_source":""},{"t":61.756,"note":66,"dur":0.069,"vel":1.0,"inst":"synth_pluck_v0_blown_260","midi_source":""},{"t":61.756,"note":75,"dur":0.069,"vel":1.0,"inst":"synth_pluck_v0_blown_260","midi_source":""},{"t":61.825,"note":65,"dur":0.069,"vel":1.0,"inst":"violin_v1_additive_535","midi_source":""},{"t":61.825,"note":73,"dur":0.069,"vel":1.0,"inst":"cello_v0_plucked_113","midi_source":""},{"t":61.893,"note":63,"dur":0.069,"vel":1.0,"inst":"synth_pluck_v0_blown_260","midi_source":""},{"t":61.893,"note":73,"dur":0.069,"vel":1.0,"inst":"cello_v0_plucked_113","midi_source":""},{"t":61.962,"note":65,"dur":0.069,"vel":1.0,"inst":"violin_v1_additive_535","midi_source":""},{"t":61.962,"note":73,"dur":0.069,"vel":1.0,"inst":"cello_v0_plucked_113","midi_source":""},{"t":62.03,"note":61,"dur":0.069,"vel":1.0,"inst":"cello_v0_plucked_113","midi_source":""},{"t":62.03,"note":58,"dur":0.069,"vel":1.0,"inst":"cello_v0_plucked_113","midi_source":""},{"t":62.099,"note":61,"dur":0.069,"vel":1.0,"inst":"cello_v0_plucked_113","midi_source":""},{"t":62.099,"note":70,"dur":0.069,"vel":1.0,"inst":"cello_v0_plucked_113","midi_source":""},{"t":62.167,"note":46,"dur":0.069,"vel":1.0,"inst":"cello_v0_plucked_113","midi_source":""},{"t":62.167,"note":66,"dur":0.069,"vel":1.0,"inst":"synth_pluck_v0_blown_260","midi_source":""},{"t":62.236,"note":58,"dur":0.069,"vel":1.0,"inst":"cello_v0_plucked_113","midi_source":""},{"t":62.236,"note":60,"dur":0.069,"vel":1.0,"inst":"synth_pluck_v0_blown_260","midi_source":""},{"t":62.236,"note":66,"dur":0.069,"vel":1.0,"inst":"synth_pluck_v0_blown_260","midi_source":""},{"t":62.304,"note":61,"dur":0.069,"vel":1.0,"inst":"cello_v0_plucked_113","midi_source":""},{"t":62.304,"note":72,"dur":0.069,"vel":1.0,"inst":"synth_pluck_v0_blown_260","midi_source":""},{"t":62.373,"note":54,"dur":0.069,"vel":1.0,"inst":"synth_pluck_v0_blown_260","midi_source":""},{"t":62.373,"note":46,"dur":0.069,"vel":1.0,"inst":"cello_v0_plucked_113","midi_source":""},{"t":62.373,"note":70,"dur":0.069,"vel":1.0,"inst":"cello_v0_plucked_113","midi_source":""},{"t":62.441,"note":58,"dur":0.069,"vel":1.0,"inst":"cello_v0_plucked_113","midi_source":""},{"t":62.441,"note":58,"dur":0.069,"vel":1.0,"inst":"cello_v0_plucked_113","midi_source":""},{"t":62.51,"note":49,"dur":0.274,"vel":1.0,"inst":"cello_v0_plucked_113","midi_source":""},{"t":62.51,"note":70,"dur":0.069,"vel":1.0,"inst":"cello_v0_plucked_113","midi_source":""},{"t":62.578,"note":66,"dur":0.069,"vel":1.0,"inst":"synth_pluck_v0_blown_260","midi_source":""},{"t":62.647,"note":58,"dur":0.069,"vel":1.0,"inst":"cello_v0_plucked_113","midi_source":""},{"t":62.715,"note":73,"dur":0.069,"vel":1.0,"inst":"cello_v0_plucked_113","midi_source":""},{"t":62.784,"note":75,"dur":0.069,"vel":1.0,"inst":"synth_pluck_v0_blown_260","midi_source":""},{"t":62.852,"note":70,"dur":0.069,"vel":1.0,"inst":"cello_v0_plucked_113","midi_source":""},{"t":62.921,"note":34,"dur":0.137,"vel":1.0,"inst":"cello_v0_plucked_113","midi_source":""},{"t":62.921,"note":58,"dur":0.069,"vel":1.0,"inst":"cello_v0_plucked_113","midi_source":""},{"t":62.989,"note":66,"dur":0.069,"vel":1.0,"inst":"synth_pluck_v0_blown_260","midi_source":""},{"t":63.058,"note":49,"dur":0.137,"vel":1.0,"inst":"cello_v0_plucked_113","midi_source":""},{"t":63.058,"note":65,"dur":0.069,"vel":1.0,"inst":"violin_v1_additive_535","midi_source":""},{"t":63.126,"note":58,"dur":0.069,"vel":1.0,"inst":"cello_v0_plucked_113","midi_source":""},{"t":63.195,"note":65,"dur":0.137,"vel":1.0,"inst":"violin_v1_additive_535","midi_source":""},{"t":63.195,"note":73,"dur":0.069,"vel":1.0,"inst":"cello_v0_plucked_113","midi_source":""},{"t":63.263,"note":77,"dur":0.137,"vel":1.0,"inst":"violin_v1_additive_535","midi_source":""},{"t":63.332,"note":58,"dur":0.137,"vel":1.0,"inst":"cello_v0_plucked_113","midi_source":""},{"t":63.4,"note":73,"dur":0.069,"vel":1.0,"inst":"cello_v0_plucked_113","midi_source":""},{"t":63.469,"note":46,"dur":0.137,"vel":1.0,"inst":"cello_v0_plucked_113","midi_source":""},{"t":63.469,"note":73,"dur":0.069,"vel":1.0,"inst":"cello_v0_plucked_113","midi_source":""},{"t":63.537,"note":65,"dur":0.069,"vel":1.0,"inst":"violin_v1_additive_535","midi_source":""},{"t":63.606,"note":51,"dur":0.137,"vel":1.0,"inst":"synth_pluck_v0_blown_260","midi_source":""},{"t":63.606,"note":66,"dur":0.069,"vel":1.0,"inst":"synth_pluck_v0_blown_260","midi_source":""},{"t":63.674,"note":70,"dur":0.069,"vel":1.0,"inst":"cello_v0_plucked_113","midi_source":""},{"t":63.743,"note":66,"dur":0.137,"vel":1.0,"inst":"synth_pluck_v0_blown_260","midi_source":""},{"t":63.743,"note":73,"dur":0.069,"vel":1.0,"inst":"cello_v0_plucked_113","midi_source":""},{"t":63.811,"note":77,"dur":0.069,"vel":1.0,"inst":"violin_v1_additive_535","midi_source":""},{"t":63.88,"note":58,"dur":0.137,"vel":1.0,"inst":"cello_v0_plucked_113","midi_source":""},{"t":63.948,"note":73,"dur":0.069,"vel":1.0,"inst":"cello_v0_plucked_113","midi_source":""},{"t":64.017,"note":46,"dur":0.137,"vel":1.0,"inst":"cello_v0_plucked_113","midi_source":""},{"t":64.017,"note":73,"dur":0.069,"vel":1.0,"inst":"cello_v0_plucked_113","midi_source":""},{"t":64.085,"note":66,"dur":0.069,"vel":1.0,"inst":"synth_pluck_v0_blown_260","midi_source":""},{"t":64.154,"note":53,"dur":0.137,"vel":1.0,"inst":"violin_v1_additive_535","midi_source":""},{"t":64.154,"note":58,"dur":0.069,"vel":1.0,"inst":"cello_v0_plucked_113","midi_source":""},{"t":64.222,"note":73,"dur":0.069,"vel":1.0,"inst":"cello_v0_plucked_113","midi_source":""},{"t":64.291,"note":58,"dur":0.137,"vel":1.0,"inst":"cello_v0_plucked_113","midi_source":""},{"t":64.291,"note":73,"dur":0.069,"vel":1.0,"inst":"cello_v0_plucked_113","midi_source":""},{"t":64.359,"note":61,"dur":0.069,"vel":1.0,"inst":"cello_v0_plucked_113","midi_source":""},{"t":64.359,"note":70,"dur":0.069,"vel":1.0,"inst":"cello_v0_plucked_113","midi_source":""},{"t":64.428,"note":63,"dur":0.137,"vel":1.0,"inst":"synth_pluck_v0_blown_260","midi_source":""},{"t":64.428,"note":72,"dur":0.069,"vel":1.0,"inst":"synth_pluck_v0_blown_260","midi_source":""},{"t":64.496,"note":82,"dur":0.069,"vel":1.0,"inst":"cello_v0_plucked_113","midi_source":""},{"t":64.565,"note":60,"dur":0.137,"vel":1.0,"inst":"synth_pluck_v0_blown_260","midi_source":""},{"t":64.565,"note":70,"dur":0.069,"vel":1.0,"inst":"cello_v0_plucked_113","midi_source":""},{"t":64.633,"note":78,"dur":0.069,"vel":1.0,"inst":"synth_pluck_v0_blown_260","midi_source":""},{"t":64.702,"note":61,"dur":0.137,"vel":1.0,"inst":"cello_v0_plucked_113","midi_source":""},{"t":64.702,"note":78,"dur":0.206,"vel":1.0,"inst":"synth_pluck_v0_blown_260","midi_source":""},{"t":64.839,"note":49,"dur":0.137,"vel":1.0,"inst":"cello_v0_plucked_113","midi_source":""},{"t":64.907,"note":75,"dur":0.069,"vel":1.0,"inst":"synth_pluck_v0_blown_260","midi_source":""},{"t":64.976,"note":73,"dur":0.137,"vel":1.0,"inst":"cello_v0_plucked_113","midi_source":""},{"t":65.044,"note":60,"dur":0.069,"vel":1.0,"inst":"synth_pluck_v0_blown_260","midi_source":""},{"t":65.113,"note":58,"dur":0.069,"vel":1.0,"inst":"cello_v0_plucked_113","midi_source":""},{"t":65.113,"note":78,"dur":0.137,"vel":1.0,"inst":"synth_pluck_v0_blown_260","midi_source":""},{"t":65.181,"note":46,"dur":0.069,"vel":1.0,"inst":"cello_v0_plucked_113","midi_source":""},{"t":65.25,"note":58,"dur":0.069,"vel":1.0,"inst":"cello_v0_plucked_113","midi_source":""},{"t":65.25,"note":78,"dur":0.069,"vel":1.0,"inst":"synth_pluck_v0_blown_260","midi_source":""},{"t":65.318,"note":53,"dur":0.069,"vel":1.0,"inst":"violin_v1_additive_535","midi_source":""},{"t":65.318,"note":70,"dur":0.069,"vel":1.0,"inst":"cello_v0_plucked_113","midi_source":""},{"t":65.387,"note":54,"dur":0.069,"vel":1.0,"inst":"synth_pluck_v0_blown_260","midi_source":""},{"t":65.387,"note":82,"dur":0.137,"vel":1.0,"inst":"cello_v0_plucked_113","midi_source":""},{"t":65.455,"note":49,"dur":0.069,"vel":1.0,"inst":"cello_v0_plucked_113","midi_source":""},{"t":65.524,"note":51,"dur":0.069,"vel":1.0,"inst":"synth_pluck_v0_blown_260","midi_source":""},{"t":65.524,"note":72,"dur":0.069,"vel":1.0,"inst":"synth_pluck_v0_blown_260","midi_source":""},{"t":65.592,"note":61,"dur":0.069,"vel":1.0,"inst":"cello_v0_plucked_113","midi_source":""},{"t":65.592,"note":82,"dur":0.069,"vel":1.0,"inst":"cello_v0_plucked_113","midi_source":""},{"t":65.661,"note":60,"dur":0.069,"vel":1.0,"inst":"synth_pluck_v0_blown_260","midi_source":""},{"t":65.661,"note":70,"dur":0.069,"vel":1.0,"inst":"cello_v0_plucked_113","midi_source":""},{"t":65.729,"note":58,"dur":0.069,"vel":1.0,"inst":"cello_v0_plucked_113","midi_source":""},{"t":65.729,"note":78,"dur":0.069,"vel":1.0,"inst":"synth_pluck_v0_blown_260","midi_source":""},{"t":65.798,"note":60,"dur":0.069,"vel":1.0,"inst":"synth_pluck_v0_blown_260","midi_source":""},{"t":65.798,"note":70,"dur":0.069,"vel":1.0,"inst":"cello_v0_plucked_113","midi_source":""},{"t":65.866,"note":54,"dur":0.069,"vel":1.0,"inst":"synth_pluck_v0_blown_260","midi_source":""},{"t":65.866,"note":82,"dur":0.069,"vel":1.0,"inst":"cello_v0_plucked_113","midi_source":""},{"t":65.935,"note":46,"dur":0.069,"vel":1.0,"inst":"cello_v0_plucked_113","midi_source":""},{"t":65.935,"note":84,"dur":0.137,"vel":1.0,"inst":"synth_pluck_v0_blown_260","midi_source":""},{"t":66.003,"note":51,"dur":0.069,"vel":1.0,"inst":"synth_pluck_v0_blown_260","midi_source":""},{"t":66.072,"note":54,"dur":0.069,"vel":1.0,"inst":"synth_pluck_v0_blown_260","midi_source":""},{"t":66.072,"note":73,"dur":0.069,"vel":1.0,"inst":"cello_v0_plucked_113","midi_source":""},{"t":66.14,"note":63,"dur":0.069,"vel":1.0,"inst":"synth_pluck_v0_blown_260","midi_source":""},{"t":66.14,"note":84,"dur":0.069,"vel":1.0,"inst":"synth_pluck_v0_blown_260","midi_source":""},{"t":66.209,"note":61,"dur":0.069,"vel":1.0,"inst":"cello_v0_plucked_113","midi_source":""},{"t":66.209,"note":82,"dur":0.069,"vel":1.0,"inst":"cello_v0_plucked_113","midi_source":""},{"t":66.277,"note":60,"dur":0.069,"vel":1.0,"inst":"synth_pluck_v0_blown_260","midi_source":""},{"t":66.277,"note":70,"dur":0.069,"vel":1.0,"inst":"cello_v0_plucked_113","midi_source":""},{"t":66.346,"note":61,"dur":0.069,"vel":1.0,"inst":"cello_v0_plucked_113","midi_source":""},{"t":66.346,"note":82,"dur":0.069,"vel":1.0,"inst":"cello_v0_plucked_113","midi_source":""},{"t":66.414,"note":46,"dur":0.069,"vel":1.0,"inst":"cello_v0_plucked_113","midi_source":""},{"t":66.414,"note":84,"dur":0.069,"vel":1.0,"inst":"synth_pluck_v0_blown_260","midi_source":""},{"t":66.483,"note":58,"dur":0.069,"vel":1.0,"inst":"cello_v0_plucked_113","midi_source":""},{"t":66.483,"note":85,"dur":0.137,"vel":1.0,"inst":"cello_v0_plucked_113","midi_source":""},{"t":66.551,"note":54,"dur":0.069,"vel":1.0,"inst":"synth_pluck_v0_blown_260","midi_source":""},{"t":66.62,"note":54,"dur":0.069,"vel":1.0,"inst":"synth_pluck_v0_blown_260","midi_source":""},{"t":66.62,"note":75,"dur":0.069,"vel":1.0,"inst":"synth_pluck_v0_blown_260","midi_source":""},{"t":66.688,"note":65,"dur":0.069,"vel":1.0,"inst":"violin_v1_additive_535","midi_source":""},{"t":66.688,"note":85,"dur":0.069,"vel":1.0,"inst":"cello_v0_plucked_113","midi_source":""},{"t":66.757,"note":63,"dur":0.069,"vel":1.0,"inst":"synth_pluck_v0_blown_260","midi_source":""},{"t":66.757,"note":84,"dur":0.069,"vel":1.0,"inst":"synth_pluck_v0_blown_260","midi_source":""},{"t":66.825,"note":61,"dur":0.069,"vel":1.0,"inst":"cello_v0_plucked_113","midi_source":""},{"t":66.825,"note":82,"dur":0.069,"vel":1.0,"inst":"cello_v0_plucked_113","midi_source":""},{"t":66.894,"note":63,"dur":0.069,"vel":1.0,"inst":"synth_pluck_v0_blown_260","midi_source":""},{"t":66.894,"note":84,"dur":0.069,"vel":1.0,"inst":"synth_pluck_v0_blown_260","midi_source":""},{"t":66.962,"note":58,"dur":0.069,"vel":1.0,"inst":"cello_v0_plucked_113","midi_source":""},{"t":66.962,"note":85,"dur":0.069,"vel":1.0,"inst":"cello_v0_plucked_113","midi_source":""},{"t":67.031,"note":60,"dur":0.069,"vel":1.0,"inst":"synth_pluck_v0_blown_260","midi_source":""},{"t":67.031,"note":87,"dur":0.137,"vel":1.0,"inst":"synth_pluck_v0_blown_260","midi_source":""},{"t":67.099,"note":54,"dur":0.069,"vel":1.0,"inst":"synth_pluck_v0_blown_260","midi_source":""},{"t":67.168,"note":46,"dur":0.137,"vel":1.0,"inst":"cello_v0_plucked_113","midi_source":""},{"t":67.168,"note":78,"dur":0.069,"vel":1.0,"inst":"synth_pluck_v0_blown_260","midi_source":""},{"t":67.236,"note":87,"dur":0.069,"vel":1.0,"inst":"synth_pluck_v0_blown_260","midi_source":""},{"t":67.305,"note":66,"dur":0.137,"vel":1.0,"inst":"synth_pluck_v0_blown_260","midi_source":""},{"t":67.305,"note":85,"dur":0.069,"vel":1.0,"inst":"cello_v0_plucked_113","midi_source":""},{"t":67.373,"note":84,"dur":0.069,"vel":1.0,"inst":"synth_pluck_v0_blown_260","midi_source":""},{"t":67.442,"note":66,"dur":0.137,"vel":1.0,"inst":"synth_pluck_v0_blown_260","midi_source":""},{"t":67.442,"note":82,"dur":0.069,"vel":1.0,"inst":"cello_v0_plucked_113","midi_source":""},{"t":67.51,"note":78,"dur":0.069,"vel":1.0,"inst":"synth_pluck_v0_blown_260","midi_source":""},{"t":67.579,"note":70,"dur":0.137,"vel":1.0,"inst":"cello_v0_plucked_113","midi_source":""},{"t":67.579,"note":78,"dur":0.069,"vel":1.0,"inst":"synth_pluck_v0_blown_260","midi_source":""},{"t":67.647,"note":73,"dur":0.069,"vel":1.0,"inst":"cello_v0_plucked_113","midi_source":""},{"t":67.716,"note":60,"dur":0.137,"vel":1.0,"inst":"synth_pluck_v0_blown_260","midi_source":""},{"t":67.716,"note":75,"dur":0.069,"vel":1.0,"inst":"synth_pluck_v0_blown_260","midi_source":""},{"t":67.784,"note":70,"dur":0.069,"vel":1.0,"inst":"cello_v0_plucked_113","midi_source":""},{"t":67.853,"note":63,"dur":0.137,"vel":1.0,"inst":"synth_pluck_v0_blown_260","midi_source":""},{"t":67.853,"note":72,"dur":0.069,"vel":1.0,"inst":"synth_pluck_v0_blown_260","midi_source":""},{"t":67.921,"note":78,"dur":0.069,"vel":1.0,"inst":"synth_pluck_v0_blown_260","midi_source":""},{"t":67.99,"note":54,"dur":0.137,"vel":1.0,"inst":"synth_pluck_v0_blown_260","midi_source":""},{"t":67.99,"note":70,"dur":0.069,"vel":1.0,"inst":"cello_v0_plucked_113","midi_source":""},{"t":68.058,"note":73,"dur":0.069,"vel":1.0,"inst":"cello_v0_plucked_113","midi_source":""},{"t":68.127,"note":46,"dur":0.137,"vel":1.0,"inst":"cello_v0_plucked_113","midi_source":""},{"t":68.127,"note":75,"dur":0.069,"vel":1.0,"inst":"synth_pluck_v0_blown_260","midi_source":""},{"t":68.195,"note":72,"dur":0.069,"vel":1.0,"inst":"synth_pluck_v0_blown_260","midi_source":""},{"t":68.264,"note":48,"dur":0.137,"vel":1.0,"inst":"synth_pluck_v0_blown_260","midi_source":""},{"t":68.264,"note":73,"dur":0.069,"vel":1.0,"inst":"cello_v0_plucked_113","midi_source":""},{"t":68.332,"note":58,"dur":0.069,"vel":1.0,"inst":"cello_v0_plucked_113","midi_source":""},{"t":68.401,"note":49,"dur":0.137,"vel":1.0,"inst":"cello_v0_plucked_113","midi_source":""},{"t":68.401,"note":70,"dur":0.069,"vel":1.0,"inst":"cello_v0_plucked_113","midi_source":""},{"t":68.469,"note":78,"dur":0.069,"vel":1.0,"inst":"synth_pluck_v0_blown_260","midi_source":""},{"t":68.538,"note":51,"dur":0.137,"vel":1.0,"inst":"synth_pluck_v0_blown_260","midi_source":""},{"t":68.538,"note":78,"dur":0.069,"vel":1.0,"inst":"synth_pluck_v0_blown_260","midi_source":""},{"t":68.606,"note":72,"dur":0.069,"vel":1.0,"inst":"synth_pluck_v0_blown_260","midi_source":""},{"t":68.606,"note":73,"dur":0.069,"vel":1.0,"inst":"cello_v0_plucked_113","midi_source":""},{"t":68.675,"note":48,"dur":0.137,"vel":1.0,"inst":"synth_pluck_v0_blown_260","midi_source":""},{"t":68.675,"note":75,"dur":0.069,"vel":1.0,"inst":"synth_pluck_v0_blown_260","midi_source":""},{"t":68.743,"note":72,"dur":0.069,"vel":1.0,"inst":"synth_pluck_v0_blown_260","midi_source":""},{"t":68.812,"note":49,"dur":0.137,"vel":1.0,"inst":"cello_v0_plucked_113","midi_source":""},{"t":68.812,"note":58,"dur":0.069,"vel":1.0,"inst":"cello_v0_plucked_113","midi_source":""},{"t":68.88,"note":72,"dur":0.069,"vel":1.0,"inst":"synth_pluck_v0_blown_260","midi_source":""},{"t":68.949,"note":61,"dur":0.137,"vel":1.0,"inst":"cello_v0_plucked_113","midi_source":""},{"t":68.949,"note":78,"dur":0.069,"vel":1.0,"inst":"synth_pluck_v0_blown_260","midi_source":""},{"t":69.017,"note":78,"dur":0.069,"vel":1.0,"inst":"synth_pluck_v0_blown_260","midi_source":""},{"t":69.086,"note":54,"dur":0.137,"vel":1.0,"inst":"synth_pluck_v0_blown_260","midi_source":""},{"t":69.086,"note":78,"dur":0.069,"vel":1.0,"inst":"synth_pluck_v0_blown_260","midi_source":""},{"t":69.154,"note":72,"dur":0.069,"vel":1.0,"inst":"synth_pluck_v0_blown_260","midi_source":""},{"t":69.223,"note":61,"dur":0.137,"vel":1.0,"inst":"cello_v0_plucked_113","midi_source":""},{"t":69.223,"note":70,"dur":0.069,"vel":1.0,"inst":"cello_v0_plucked_113","midi_source":""},{"t":69.291,"note":58,"dur":0.069,"vel":1.0,"inst":"cello_v0_plucked_113","midi_source":""},{"t":69.36,"note":66,"dur":0.137,"vel":1.0,"inst":"synth_pluck_v0_blown_260","midi_source":""},{"t":69.36,"note":70,"dur":0.069,"vel":1.0,"inst":"cello_v0_plucked_113","midi_source":""},{"t":69.428,"note":78,"dur":0.069,"vel":1.0,"inst":"synth_pluck_v0_blown_260","midi_source":""},{"t":69.497,"note":58,"dur":0.137,"vel":1.0,"inst":"cello_v0_plucked_113","midi_source":""},{"t":69.497,"note":77,"dur":0.069,"vel":1.0,"inst":"violin_v1_additive_535","midi_source":""},{"t":69.566,"note":75,"dur":0.069,"vel":1.0,"inst":"synth_pluck_v0_blown_260","midi_source":""},{"t":69.634,"note":66,"dur":0.206,"vel":1.0,"inst":"synth_pluck_v0_blown_260","midi_source":""},{"t":69.634,"note":73,"dur":0.069,"vel":1.0,"inst":"cello_v0_plucked_113","midi_source":""},{"t":69.703,"note":78,"dur":0.069,"vel":1.0,"inst":"synth_pluck_v0_blown_260","midi_source":""},{"t":69.703,"note":70,"dur":0.069,"vel":1.0,"inst":"cello_v0_plucked_113","midi_source":""},{"t":69.771,"note":82,"dur":0.069,"vel":1.0,"inst":"cello_v0_plucked_113","midi_source":""},{"t":69.84,"note":60,"dur":0.069,"vel":1.0,"inst":"synth_pluck_v0_blown_260","midi_source":""},{"t":69.84,"note":61,"dur":0.069,"vel":1.0,"inst":"cello_v0_plucked_113","midi_source":""},{"t":69.84,"note":78,"dur":0.069,"vel":1.0,"inst":"synth_pluck_v0_blown_260","midi_source":""},{"t":69.908,"note":58,"dur":0.069,"vel":1.0,"inst":"cello_v0_plucked_113","midi_source":""},{"t":69.908,"note":60,"dur":0.069,"vel":1.0,"inst":"synth_pluck_v0_blown_260","midi_source":""},{"t":69.908,"note":73,"dur":0.137,"vel":1.0,"inst":"cello_v0_plucked_113","midi_source":""},{"t":69.977,"note":61,"dur":0.069,"vel":1.0,"inst":"cello_v0_plucked_113","midi_source":""},{"t":70.045,"note":54,"dur":0.069,"vel":1.0,"inst":"synth_pluck_v0_blown_260","midi_source":""},{"t":70.045,"note":46,"dur":0.069,"vel":1.0,"inst":"cello_v0_plucked_113","midi_source":""},{"t":70.045,"note":75,"dur":0.137,"vel":1.0,"inst":"synth_pluck_v0_blown_260","midi_source":""},{"t":70.114,"note":58,"dur":0.069,"vel":1.0,"inst":"cello_v0_plucked_113","midi_source":""},{"t":70.182,"note":49,"dur":0.206,"vel":1.0,"inst":"cello_v0_plucked_113","midi_source":""},{"t":70.182,"note":77,"dur":0.069,"vel":1.0,"inst":"violin_v1_additive_535","midi_source":""},{"t":70.251,"note":72,"dur":0.069,"vel":1.0,"inst":"synth_pluck_v0_blown_260","midi_source":""},{"t":70.319,"note":73,"dur":0.069,"vel":1.0,"inst":"cello_v0_plucked_113","midi_source":""},{"t":70.388,"note":51,"dur":0.069,"vel":1.0,"inst":"synth_pluck_v0_blown_260","midi_source":""},{"t":70.388,"note":53,"dur":0.069,"vel":1.0,"inst":"violin_v1_additive_535","midi_source":""},{"t":70.388,"note":58,"dur":0.069,"vel":1.0,"inst":"cello_v0_plucked_113","midi_source":""},{"t":70.456,"note":49,"dur":0.069,"vel":1.0,"inst":"cello_v0_plucked_113","midi_source":""},{"t":70.456,"note":51,"dur":0.069,"vel":1.0,"inst":"synth_pluck_v0_blown_260","midi_source":""},{"t":70.456,"note":70,"dur":0.137,"vel":1.0,"inst":"cello_v0_plucked_113","midi_source":""},{"t":70.525,"note":53,"dur":0.069,"vel":1.0,"inst":"violin_v1_additive_535","midi_source":""},{"t":70.593,"note":46,"dur":0.069,"vel":1.0,"inst":"cello_v0_plucked_113","midi_source":""},{"t":70.593,"note":48,"dur":0.069,"vel":1.0,"inst":"synth_pluck_v0_blown_260","midi_source":""},{"t":70.593,"note":85,"dur":0.206,"vel":1.0,"inst":"cello_v0_plucked_113","midi_source":""},{"t":70.662,"note":49,"dur":0.069,"vel":1.0,"inst":"cello_v0_plucked_113","midi_source":""},{"t":70.73,"note":39,"dur":0.137,"vel":1.0,"inst":"synth_pluck_v0_blown_260","midi_source":""},{"t":70.799,"note":78,"dur":0.069,"vel":1.0,"inst":"synth_pluck_v0_blown_260","midi_source":""},{"t":70.799,"note":70,"dur":0.069,"vel":1.0,"inst":"cello_v0_plucked_113","midi_source":""},{"t":70.867,"note":42,"dur":0.137,"vel":1.0,"inst":"synth_pluck_v0_blown_260","midi_source":""},{"t":70.867,"note":82,"dur":0.069,"vel":1.0,"inst":"cello_v0_plucked_113","midi_source":""},{"t":70.936,"note":78,"dur":0.069,"vel":1.0,"inst":"synth_pluck_v0_blown_260","midi_source":""},{"t":71.004,"note":48,"dur":0.137,"vel":1.0,"inst":"synth_pluck_v0_blown_260","midi_source":""},{"t":71.004,"note":75,"dur":0.069,"vel":1.0,"inst":"synth_pluck_v0_blown_260","midi_source":""},{"t":71.073,"note":84,"dur":0.069,"vel":1.0,"inst":"synth_pluck_v0_blown_260","midi_source":""},{"t":71.141,"note":51,"dur":0.137,"vel":1.0,"inst":"synth_pluck_v0_blown_260","midi_source":""},{"t":71.141,"note":78,"dur":0.069,"vel":1.0,"inst":"synth_pluck_v0_blown_260","midi_source":""},{"t":71.141,"note":70,"dur":0.069,"vel":1.0,"inst":"cello_v0_plucked_113","midi_source":""},{"t":71.21,"note":82,"dur":0.069,"vel":1.0,"inst":"cello_v0_plucked_113","midi_source":""},{"t":71.278,"note":53,"dur":0.206,"vel":1.0,"inst":"violin_v1_additive_535","midi_source":""},{"t":71.278,"note":70,"dur":0.069,"vel":1.0,"inst":"cello_v0_plucked_113","midi_source":""},{"t":71.347,"note":75,"dur":0.069,"vel":1.0,"inst":"synth_pluck_v0_blown_260","midi_source":""},{"t":71.415,"note":77,"dur":0.137,"vel":1.0,"inst":"violin_v1_additive_535","midi_source":""},{"t":71.484,"note":70,"dur":0.069,"vel":1.0,"inst":"cello_v0_plucked_113","midi_source":""},{"t":71.484,"note":72,"dur":0.069,"vel":1.0,"inst":"synth_pluck_v0_blown_260","midi_source":""},{"t":71.552,"note":58,"dur":0.069,"vel":1.0,"inst":"cello_v0_plucked_113","midi_source":""},{"t":71.552,"note":70,"dur":0.069,"vel":1.0,"inst":"cello_v0_plucked_113","midi_source":""},{"t":71.621,"note":72,"dur":0.069,"vel":1.0,"inst":"synth_pluck_v0_blown_260","midi_source":""},{"t":71.689,"note":65,"dur":0.069,"vel":1.0,"inst":"violin_v1_additive_535","midi_source":""},{"t":71.689,"note":66,"dur":0.069,"vel":1.0,"inst":"synth_pluck_v0_blown_260","midi_source":""},{"t":71.689,"note":73,"dur":0.137,"vel":1.0,"inst":"cello_v0_plucked_113","midi_source":""},{"t":71.689,"note":70,"dur":0.137,"vel":1.0,"inst":"cello_v0_plucked_113","midi_source":""},{"t":71.758,"note":58,"dur":0.069,"vel":1.0,"inst":"cello_v0_plucked_113","midi_source":""},{"t":71.826,"note":58,"dur":0.069,"vel":1.0,"inst":"cello_v0_plucked_113","midi_source":""},{"t":71.826,"note":70,"dur":0.137,"vel":1.0,"inst":"cello_v0_plucked_113","midi_source":""},{"t":71.895,"note":61,"dur":0.069,"vel":1.0,"inst":"cello_v0_plucked_113","midi_source":""},{"t":71.963,"note":63,"dur":0.069,"vel":1.0,"inst":"synth_pluck_v0_blown_260","midi_source":""},{"t":71.963,"note":78,"dur":0.206,"vel":1.0,"inst":"synth_pluck_v0_blown_260","midi_source":""},{"t":72.032,"note":65,"dur":0.069,"vel":1.0,"inst":"violin_v1_additive_535","midi_source":""},{"t":72.1,"note":66,"dur":0.069,"vel":1.0,"inst":"synth_pluck_v0_blown_260","midi_source":""},{"t":72.169,"note":58,"dur":0.069,"vel":1.0,"inst":"cello_v0_plucked_113","midi_source":""},{"t":72.169,"note":85,"dur":0.069,"vel":1.0,"inst":"cello_v0_plucked_113","midi_source":""},{"t":72.237,"note":70,"dur":0.069,"vel":1.0,"inst":"cello_v0_plucked_113","midi_source":""},{"t":72.237,"note":85,"dur":0.069,"vel":1.0,"inst":"cello_v0_plucked_113","midi_source":""},{"t":72.306,"note":66,"dur":0.069,"vel":1.0,"inst":"synth_pluck_v0_blown_260","midi_source":""},{"t":72.306,"note":87,"dur":0.069,"vel":1.0,"inst":"synth_pluck_v0_blown_260","midi_source":""},{"t":72.374,"note":61,"dur":0.069,"vel":1.0,"inst":"cello_v0_plucked_113","midi_source":""},{"t":72.374,"note":82,"dur":0.137,"vel":1.0,"inst":"cello_v0_plucked_113","midi_source":""},{"t":72.443,"note":63,"dur":0.069,"vel":1.0,"inst":"synth_pluck_v0_blown_260","midi_source":""},{"t":72.511,"note":65,"dur":0.069,"vel":1.0,"inst":"violin_v1_additive_535","midi_source":""},{"t":72.511,"note":70,"dur":0.137,"vel":1.0,"inst":"cello_v0_plucked_113","midi_source":""},{"t":72.58,"note":66,"dur":0.069,"vel":1.0,"inst":"synth_pluck_v0_blown_260","midi_source":""},{"t":72.648,"note":58,"dur":0.069,"vel":1.0,"inst":"cello_v0_plucked_113","midi_source":""},{"t":72.717,"note":70,"dur":0.069,"vel":1.0,"inst":"cello_v0_plucked_113","midi_source":""},{"t":72.717,"note":85,"dur":0.069,"vel":1.0,"inst":"cello_v0_plucked_113","midi_source":""},{"t":72.785,"note":73,"dur":0.069,"vel":1.0,"inst":"cello_v0_plucked_113","midi_source":""},{"t":72.785,"note":87,"dur":0.069,"vel":1.0,"inst":"synth_pluck_v0_blown_260","midi_source":""},{"t":72.854,"note":58,"dur":0.069,"vel":1.0,"inst":"cello_v0_plucked_113","midi_source":""},{"t":72.854,"note":89,"dur":0.069,"vel":1.0,"inst":"violin_v1_additive_535","midi_source":""},{"t":72.922,"note":61,"dur":0.069,"vel":1.0,"inst":"cello_v0_plucked_113","midi_source":""},{"t":72.922,"note":84,"dur":0.137,"vel":1.0,"inst":"synth_pluck_v0_blown_260","midi_source":""},{"t":72.991,"note":65,"dur":0.069,"vel":1.0,"inst":"violin_v1_additive_535","midi_source":""},{"t":73.059,"note":66,"dur":0.069,"vel":1.0,"inst":"synth_pluck_v0_blown_260","midi_source":""},{"t":73.059,"note":82,"dur":0.206,"vel":1.0,"inst":"cello_v0_plucked_113","midi_source":""},{"t":73.128,"note":58,"dur":0.069,"vel":1.0,"inst":"cello_v0_plucked_113","midi_source":""},{"t":73.196,"note":70,"dur":0.069,"vel":1.0,"inst":"cello_v0_plucked_113","midi_source":""},{"t":73.265,"note":73,"dur":0.069,"vel":1.0,"inst":"cello_v0_plucked_113","midi_source":""},{"t":73.265,"note":87,"dur":0.069,"vel":1.0,"inst":"synth_pluck_v0_blown_260","midi_source":""},{"t":73.333,"note":73,"dur":0.069,"vel":1.0,"inst":"cello_v0_plucked_113","midi_source":""},{"t":73.333,"note":89,"dur":0.069,"vel":1.0,"inst":"violin_v1_additive_535","midi_source":""},{"t":73.402,"note":70,"dur":0.069,"vel":1.0,"inst":"cello_v0_plucked_113","midi_source":""},{"t":73.402,"note":90,"dur":0.069,"vel":1.0,"inst":"synth_pluck_v0_blown_260","midi_source":""},{"t":73.47,"note":63,"dur":0.069,"vel":1.0,"inst":"synth_pluck_v0_blown_260","midi_source":""},{"t":73.47,"note":85,"dur":0.137,"vel":1.0,"inst":"cello_v0_plucked_113","midi_source":""},{"t":73.539,"note":66,"dur":0.069,"vel":1.0,"inst":"synth_pluck_v0_blown_260","midi_source":""},{"t":73.607,"note":58,"dur":0.069,"vel":1.0,"inst":"cello_v0_plucked_113","midi_source":""},{"t":73.607,"note":85,"dur":0.137,"vel":1.0,"inst":"cello_v0_plucked_113","midi_source":""},{"t":73.676,"note":70,"dur":0.069,"vel":1.0,"inst":"cello_v0_plucked_113","midi_source":""},{"t":73.744,"note":58,"dur":0.069,"vel":1.0,"inst":"cello_v0_plucked_113","midi_source":""},{"t":73.813,"note":66,"dur":0.069,"vel":1.0,"inst":"synth_pluck_v0_blown_260","midi_source":""},{"t":73.813,"note":82,"dur":0.069,"vel":1.0,"inst":"cello_v0_plucked_113","midi_source":""},{"t":73.881,"note":65,"dur":0.069,"vel":1.0,"inst":"violin_v1_additive_535","midi_source":""},{"t":73.881,"note":70,"dur":0.069,"vel":1.0,"inst":"cello_v0_plucked_113","midi_source":""},{"t":73.95,"note":63,"dur":0.069,"vel":1.0,"inst":"synth_pluck_v0_blown_260","midi_source":""},{"t":73.95,"note":78,"dur":0.069,"vel":1.0,"inst":"synth_pluck_v0_blown_260","midi_source":""},{"t":74.018,"note":65,"dur":0.069,"vel":1.0,"inst":"violin_v1_additive_535","midi_source":""},{"t":74.018,"note":70,"dur":0.069,"vel":1.0,"inst":"cello_v0_plucked_113","midi_source":""},{"t":74.087,"note":66,"dur":0.069,"vel":1.0,"inst":"synth_pluck_v0_blown_260","midi_source":""},{"t":74.087,"note":75,"dur":0.069,"vel":1.0,"inst":"synth_pluck_v0_blown_260","midi_source":""},{"t":74.155,"note":58,"dur":0.069,"vel":1.0,"inst":"cello_v0_plucked_113","midi_source":""},{"t":74.155,"note":77,"dur":0.069,"vel":1.0,"inst":"violin_v1_additive_535","midi_source":""},{"t":74.224,"note":63,"dur":0.069,"vel":1.0,"inst":"synth_pluck_v0_blown_260","midi_source":""},{"t":74.224,"note":73,"dur":0.069,"vel":1.0,"inst":"cello_v0_plucked_113","midi_source":""},{"t":74.292,"note":65,"dur":0.069,"vel":1.0,"inst":"violin_v1_additive_535","midi_source":""},{"t":74.292,"note":73,"dur":0.069,"vel":1.0,"inst":"cello_v0_plucked_113","midi_source":""},{"t":74.361,"note":70,"dur":0.069,"vel":1.0,"inst":"cello_v0_plucked_113","midi_source":""},{"t":74.361,"note":78,"dur":0.069,"vel":1.0,"inst":"synth_pluck_v0_blown_260","midi_source":""},{"t":74.429,"note":58,"dur":0.069,"vel":1.0,"inst":"cello_v0_plucked_113","midi_source":""},{"t":74.429,"note":77,"dur":0.069,"vel":1.0,"inst":"violin_v1_additive_535","midi_source":""},{"t":74.498,"note":66,"dur":0.069,"vel":1.0,"inst":"synth_pluck_v0_blown_260","midi_source":""},{"t":74.498,"note":75,"dur":0.069,"vel":1.0,"inst":"synth_pluck_v0_blown_260","midi_source":""},{"t":74.566,"note":58,"dur":0.069,"vel":1.0,"inst":"cello_v0_plucked_113","midi_source":""},{"t":74.566,"note":77,"dur":0.069,"vel":1.0,"inst":"violin_v1_additive_535","midi_source":""},{"t":74.635,"note":63,"dur":0.069,"vel":1.0,"inst":"synth_pluck_v0_blown_260","midi_source":""},{"t":74.635,"note":73,"dur":0.069,"vel":1.0,"inst":"cello_v0_plucked_113","midi_source":""},{"t":74.703,"note":65,"dur":0.069,"vel":1.0,"inst":"violin_v1_additive_535","midi_source":""},{"t":74.703,"note":73,"dur":0.069,"vel":1.0,"inst":"cello_v0_plucked_113","midi_source":""},{"t":74.772,"note":60,"dur":0.069,"vel":1.0,"inst":"synth_pluck_v0_blown_260","midi_source":""},{"t":74.772,"note":58,"dur":0.069,"vel":1.0,"inst":"cello_v0_plucked_113","midi_source":""},{"t":74.84,"note":61,"dur":0.069,"vel":1.0,"inst":"cello_v0_plucked_113","midi_source":""},{"t":74.84,"note":70,"dur":0.069,"vel":1.0,"inst":"cello_v0_plucked_113","midi_source":""},{"t":74.909,"note":66,"dur":0.069,"vel":1.0,"inst":"synth_pluck_v0_blown_260","midi_source":""},{"t":74.909,"note":75,"dur":0.069,"vel":1.0,"inst":"synth_pluck_v0_blown_260","midi_source":""},{"t":74.977,"note":65,"dur":0.069,"vel":1.0,"inst":"violin_v1_additive_535","midi_source":""},{"t":74.977,"note":73,"dur":0.069,"vel":1.0,"inst":"cello_v0_plucked_113","midi_source":""},{"t":75.046,"note":63,"dur":0.069,"vel":1.0,"inst":"synth_pluck_v0_blown_260","midi_source":""},{"t":75.046,"note":73,"dur":0.069,"vel":1.0,"inst":"cello_v0_plucked_113","midi_source":""},{"t":75.114,"note":65,"dur":0.069,"vel":1.0,"inst":"violin_v1_additive_535","midi_source":""},{"t":75.114,"note":73,"dur":0.069,"vel":1.0,"inst":"cello_v0_plucked_113","midi_source":""},{"t":75.183,"note":61,"dur":0.069,"vel":1.0,"inst":"cello_v0_plucked_113","midi_source":""},{"t":75.183,"note":58,"dur":0.069,"vel":1.0,"inst":"cello_v0_plucked_113","midi_source":""},{"t":75.251,"note":61,"dur":0.069,"vel":1.0,"inst":"cello_v0_plucked_113","midi_source":""},{"t":75.251,"note":70,"dur":0.069,"vel":1.0,"inst":"cello_v0_plucked_113","midi_source":""},{"t":75.32,"note":46,"dur":0.069,"vel":1.0,"inst":"cello_v0_plucked_113","midi_source":""},{"t":75.32,"note":66,"dur":0.069,"vel":1.0,"inst":"synth_pluck_v0_blown_260","midi_source":""},{"t":75.388,"note":58,"dur":0.069,"vel":1.0,"inst":"cello_v0_plucked_113","midi_source":""},{"t":75.388,"note":60,"dur":0.069,"vel":1.0,"inst":"synth_pluck_v0_blown_260","midi_source":""},{"t":75.388,"note":66,"dur":0.069,"vel":1.0,"inst":"synth_pluck_v0_blown_260","midi_source":""},{"t":75.457,"note":61,"dur":0.069,"vel":1.0,"inst":"cello_v0_plucked_113","midi_source":""},{"t":75.457,"note":72,"dur":0.069,"vel":1.0,"inst":"synth_pluck_v0_blown_260","midi_source":""},{"t":75.525,"note":54,"dur":0.069,"vel":1.0,"inst":"synth_pluck_v0_blown_260","midi_source":""},{"t":75.525,"note":46,"dur":0.069,"vel":1.0,"inst":"cello_v0_plucked_113","midi_source":""},{"t":75.525,"note":70,"dur":0.069,"vel":1.0,"inst":"cello_v0_plucked_113","midi_source":""},{"t":75.594,"note":58,"dur":0.069,"vel":1.0,"inst":"cello_v0_plucked_113","midi_source":""},{"t":75.594,"note":58,"dur":0.069,"vel":1.0,"inst":"cello_v0_plucked_113","midi_source":""},{"t":75.662,"note":49,"dur":0.274,"vel":1.0,"inst":"cello_v0_plucked_113","midi_source":""},{"t":75.662,"note":70,"dur":0.069,"vel":1.0,"inst":"cello_v0_plucked_113","midi_source":""},{"t":75.731,"note":66,"dur":0.069,"vel":1.0,"inst":"synth_pluck_v0_blown_260","midi_source":""},{"t":75.799,"note":58,"dur":0.069,"vel":1.0,"inst":"cello_v0_plucked_113","midi_source":""},{"t":75.868,"note":73,"dur":0.069,"vel":1.0,"inst":"cello_v0_plucked_113","midi_source":""},{"t":75.936,"note":75,"dur":0.069,"vel":1.0,"inst":"synth_pluck_v0_blown_260","midi_source":""},{"t":76.005,"note":70,"dur":0.069,"vel":1.0,"inst":"cello_v0_plucked_113","midi_source":""},{"t":76.073,"note":34,"dur":0.137,"vel":1.0,"inst":"cello_v0_plucked_113","midi_source":""},{"t":76.073,"note":58,"dur":0.069,"vel":1.0,"inst":"cello_v0_plucked_113","midi_source":""},{"t":76.142,"note":66,"dur":0.069,"vel":1.0,"inst":"synth_pluck_v0_blown_260","midi_source":""},{"t":76.21,"note":49,"dur":0.137,"vel":1.0,"inst":"cello_v0_plucked_113","midi_source":""},{"t":76.21,"note":65,"dur":0.069,"vel":1.0,"inst":"violin_v1_additive_535","midi_source":""},{"t":76.279,"note":58,"dur":0.069,"vel":1.0,"inst":"cello_v0_plucked_113","midi_source":""},{"t":76.347,"note":65,"dur":0.137,"vel":1.0,"inst":"violin_v1_additive_535","midi_source":""},{"t":76.347,"note":73,"dur":0.069,"vel":1.0,"inst":"cello_v0_plucked_113","midi_source":""},{"t":76.416,"note":77,"dur":0.137,"vel":1.0,"inst":"violin_v1_additive_535","midi_source":""},{"t":76.484,"note":58,"dur":0.137,"vel":1.0,"inst":"cello_v0_plucked_113","midi_source":""},{"t":76.553,"note":73,"dur":0.069,"vel":1.0,"inst":"cello_v0_plucked_113","midi_source":""},{"t":76.621,"note":46,"dur":0.137,"vel":1.0,"inst":"cello_v0_plucked_113","midi_source":""},{"t":76.621,"note":73,"dur":0.069,"vel":1.0,"inst":"cello_v0_plucked_113","midi_source":""},{"t":76.69,"note":65,"dur":0.069,"vel":1.0,"inst":"violin_v1_additive_535","midi_source":""},{"t":76.758,"note":51,"dur":0.137,"vel":1.0,"inst":"synth_pluck_v0_blown_260","midi_source":""},{"t":76.758,"note":66,"dur":0.069,"vel":1.0,"inst":"synth_pluck_v0_blown_260","midi_source":""},{"t":76.827,"note":70,"dur":0.069,"vel":1.0,"inst":"cello_v0_plucked_113","midi_source":""},{"t":76.895,"note":66,"dur":0.137,"vel":1.0,"inst":"synth_pluck_v0_blown_260","midi_source":""},{"t":76.895,"note":73,"dur":0.069,"vel":1.0,"inst":"cello_v0_plucked_113","midi_source":""},{"t":76.964,"note":77,"dur":0.069,"vel":1.0,"inst":"violin_v1_additive_535","midi_source":""},{"t":77.032,"note":58,"dur":0.137,"vel":1.0,"inst":"cello_v0_plucked_113","midi_source":""},{"t":77.101,"note":73,"dur":0.069,"vel":1.0,"inst":"cello_v0_plucked_113","midi_source":""},{"t":77.169,"note":46,"dur":0.137,"vel":1.0,"inst":"cello_v0_plucked_113","midi_source":""},{"t":77.169,"note":73,"dur":0.069,"vel":1.0,"inst":"cello_v0_plucked_113","midi_source":""},{"t":77.238,"note":66,"dur":0.069,"vel":1.0,"inst":"synth_pluck_v0_blown_260","midi_source":""},{"t":77.306,"note":53,"dur":0.137,"vel":1.0,"inst":"violin_v1_additive_535","midi_source":""},{"t":77.306,"note":58,"dur":0.069,"vel":1.0,"inst":"cello_v0_plucked_113","midi_source":""},{"t":77.375,"note":73,"dur":0.069,"vel":1.0,"inst":"cello_v0_plucked_113","midi_source":""},{"t":77.443,"note":58,"dur":0.137,"vel":1.0,"inst":"cello_v0_plucked_113","midi_source":""},{"t":77.443,"note":73,"dur":0.069,"vel":1.0,"inst":"cello_v0_plucked_113","midi_source":""},{"t":77.512,"note":61,"dur":0.069,"vel":1.0,"inst":"cello_v0_plucked_113","midi_source":""},{"t":77.512,"note":70,"dur":0.069,"vel":1.0,"inst":"cello_v0_plucked_113","midi_source":""},{"t":77.58,"note":63,"dur":0.137,"vel":1.0,"inst":"synth_pluck_v0_blown_260","midi_source":""},{"t":77.58,"note":72,"dur":0.069,"vel":1.0,"inst":"synth_pluck_v0_blown_260","midi_source":""},{"t":77.649,"note":82,"dur":0.069,"vel":1.0,"inst":"cello_v0_plucked_113","midi_source":""},{"t":77.717,"note":60,"dur":0.137,"vel":1.0,"inst":"synth_pluck_v0_blown_260","midi_source":""},{"t":77.717,"note":70,"dur":0.069,"vel":1.0,"inst":"cello_v0_plucked_113","midi_source":""},{"t":77.786,"note":78,"dur":0.069,"vel":1.0,"inst":"synth_pluck_v0_blown_260","midi_source":""},{"t":77.854,"note":61,"dur":0.137,"vel":1.0,"inst":"cello_v0_plucked_113","midi_source":""},{"t":77.854,"note":78,"dur":0.206,"vel":1.0,"inst":"synth_pluck_v0_blown_260","midi_source":""},{"t":77.991,"note":49,"dur":0.137,"vel":1.0,"inst":"cello_v0_plucked_113","midi_source":""},{"t":78.06,"note":75,"dur":0.069,"vel":1.0,"inst":"synth_pluck_v0_blown_260","midi_source":""},{"t":78.128,"note":73,"dur":0.137,"vel":1.0,"inst":"cello_v0_plucked_113","midi_source":""},{"t":78.197,"note":60,"dur":0.069,"vel":1.0,"inst":"synth_pluck_v0_blown_260","midi_source":""},{"t":78.265,"note":58,"dur":0.069,"vel":1.0,"inst":"cello_v0_plucked_113","midi_source":""},{"t":78.265,"note":78,"dur":0.137,"vel":1.0,"inst":"synth_pluck_v0_blown_260","midi_source":""},{"t":78.334,"note":46,"dur":0.069,"vel":1.0,"inst":"cello_v0_plucked_113","midi_source":""},{"t":78.402,"note":58,"dur":0.069,"vel":1.0,"inst":"cello_v0_plucked_113","midi_source":""},{"t":78.402,"note":78,"dur":0.069,"vel":1.0,"inst":"synth_pluck_v0_blown_260","midi_source":""},{"t":78.471,"note":53,"dur":0.069,"vel":1.0,"inst":"violin_v1_additive_535","midi_source":""},{"t":78.471,"note":70,"dur":0.069,"vel":1.0,"inst":"cello_v0_plucked_113","midi_source":""},{"t":78.539,"note":54,"dur":0.069,"vel":1.0,"inst":"synth_pluck_v0_blown_260","midi_source":""},{"t":78.539,"note":82,"dur":0.137,"vel":1.0,"inst":"cello_v0_plucked_113","midi_source":""},{"t":78.608,"note":49,"dur":0.069,"vel":1.0,"inst":"cello_v0_plucked_113","midi_source":""},{"t":78.676,"note":51,"dur":0.069,"vel":1.0,"inst":"synth_pluck_v0_blown_260","midi_source":""},{"t":78.676,"note":72,"dur":0.069,"vel":1.0,"inst":"synth_pluck_v0_blown_260","midi_source":""},{"t":78.745,"note":61,"dur":0.069,"vel":1.0,"inst":"cello_v0_plucked_113","midi_source":""},{"t":78.745,"note":82,"dur":0.069,"vel":1.0,"inst":"cello_v0_plucked_113","midi_source":""},{"t":78.813,"note":60,"dur":0.069,"vel":1.0,"inst":"synth_pluck_v0_blown_260","midi_source":""},{"t":78.813,"note":70,"dur":0.069,"vel":1.0,"inst":"cello_v0_plucked_113","midi_source":""},{"t":78.882,"note":58,"dur":0.069,"vel":1.0,"inst":"cello_v0_plucked_113","midi_source":""},{"t":78.882,"note":78,"dur":0.069,"vel":1.0,"inst":"synth_pluck_v0_blown_260","midi_source":""},{"t":78.95,"note":60,"dur":0.069,"vel":1.0,"inst":"synth_pluck_v0_blown_260","midi_source":""},{"t":78.95,"note":70,"dur":0.069,"vel":1.0,"inst":"cello_v0_plucked_113","midi_source":""},{"t":79.019,"note":54,"dur":0.069,"vel":1.0,"inst":"synth_pluck_v0_blown_260","midi_source":""},{"t":79.019,"note":82,"dur":0.069,"vel":1.0,"inst":"cello_v0_plucked_113","midi_source":""},{"t":79.087,"note":46,"dur":0.069,"vel":1.0,"inst":"cello_v0_plucked_113","midi_source":""},{"t":79.087,"note":84,"dur":0.137,"vel":1.0,"inst":"synth_pluck_v0_blown_260","midi_source":""},{"t":79.156,"note":51,"dur":0.069,"vel":1.0,"inst":"synth_pluck_v0_blown_260","midi_source":""},{"t":79.224,"note":54,"dur":0.069,"vel":1.0,"inst":"synth_pluck_v0_blown_260","midi_source":""},{"t":79.224,"note":73,"dur":0.069,"vel":1.0,"inst":"cello_v0_plucked_113","midi_source":""},{"t":79.293,"note":63,"dur":0.069,"vel":1.0,"inst":"synth_pluck_v0_blown_260","midi_source":""},{"t":79.293,"note":84,"dur":0.069,"vel":1.0,"inst":"synth_pluck_v0_blown_260","midi_source":""},{"t":79.361,"note":61,"dur":0.069,"vel":1.0,"inst":"cello_v0_plucked_113","midi_source":""},{"t":79.361,"note":82,"dur":0.069,"vel":1.0,"inst":"cello_v0_plucked_113","midi_source":""},{"t":79.43,"note":60,"dur":0.069,"vel":1.0,"inst":"synth_pluck_v0_blown_260","midi_source":""},{"t":79.43,"note":70,"dur":0.069,"vel":1.0,"inst":"cello_v0_plucked_113","midi_source":""},{"t":79.498,"note":61,"dur":0.069,"vel":1.0,"inst":"cello_v0_plucked_113","midi_source":""},{"t":79.498,"note":82,"dur":0.069,"vel":1.0,"inst":"cello_v0_plucked_113","midi_source":""},{"t":79.567,"note":46,"dur":0.069,"vel":1.0,"inst":"cello_v0_plucked_113","midi_source":""},{"t":79.567,"note":84,"dur":0.069,"vel":1.0,"inst":"synth_pluck_v0_blown_260","midi_source":""},{"t":79.635,"note":58,"dur":0.069,"vel":1.0,"inst":"cello_v0_plucked_113","midi_source":""},{"t":79.635,"note":85,"dur":0.137,"vel":1.0,"inst":"cello_v0_plucked_113","midi_source":""},{"t":79.704,"note":54,"dur":0.069,"vel":1.0,"inst":"synth_pluck_v0_blown_260","midi_source":""},{"t":79.772,"note":54,"dur":0.069,"vel":1.0,"inst":"synth_pluck_v0_blown_260","midi_source":""},{"t":79.772,"note":75,"dur":0.069,"vel":1.0,"inst":"synth_pluck_v0_blown_260","midi_source":""},{"t":79.841,"note":65,"dur":0.069,"vel":1.0,"inst":"violin_v1_additive_535","midi_source":""},{"t":79.841,"note":85,"dur":0.069,"vel":1.0,"inst":"cello_v0_plucked_113","midi_source":""},{"t":79.909,"note":63,"dur":0.069,"vel":1.0,"inst":"synth_pluck_v0_blown_260","midi_source":""},{"t":79.909,"note":84,"dur":0.069,"vel":1.0,"inst":"synth_pluck_v0_blown_260","midi_source":""},{"t":79.978,"note":61,"dur":0.069,"vel":1.0,"inst":"cello_v0_plucked_113","midi_source":""},{"t":79.978,"note":82,"dur":0.069,"vel":1.0,"inst":"cello_v0_plucked_113","midi_source":""},{"t":80.046,"note":63,"dur":0.069,"vel":1.0,"inst":"synth_pluck_v0_blown_260","midi_source":""},{"t":80.046,"note":84,"dur":0.069,"vel":1.0,"inst":"synth_pluck_v0_blown_260","midi_source":""},{"t":80.115,"note":58,"dur":0.069,"vel":1.0,"inst":"cello_v0_plucked_113","midi_source":""},{"t":80.115,"note":85,"dur":0.069,"vel":1.0,"inst":"cello_v0_plucked_113","midi_source":""},{"t":80.183,"note":60,"dur":0.069,"vel":1.0,"inst":"synth_pluck_v0_blown_260","midi_source":""},{"t":80.183,"note":87,"dur":0.137,"vel":1.0,"inst":"synth_pluck_v0_blown_260","midi_source":""},{"t":80.252,"note":54,"dur":0.069,"vel":1.0,"inst":"synth_pluck_v0_blown_260","midi_source":""},{"t":80.32,"note":46,"dur":0.137,"vel":1.0,"inst":"cello_v0_plucked_113","midi_source":""},{"t":80.32,"note":78,"dur":0.069,"vel":1.0,"inst":"synth_pluck_v0_blown_260","midi_source":""},{"t":80.389,"note":87,"dur":0.069,"vel":1.0,"inst":"synth_pluck_v0_blown_260","midi_source":""},{"t":80.457,"note":66,"dur":0.137,"vel":1.0,"inst":"synth_pluck_v0_blown_260","midi_source":""},{"t":80.457,"note":85,"dur":0.069,"vel":1.0,"inst":"cello_v0_plucked_113","midi_source":""},{"t":80.526,"note":84,"dur":0.069,"vel":1.0,"inst":"synth_pluck_v0_blown_260","midi_source":""},{"t":80.594,"note":66,"dur":0.137,"vel":1.0,"inst":"synth_pluck_v0_blown_260","midi_source":""},{"t":80.594,"note":82,"dur":0.069,"vel":1.0,"inst":"cello_v0_plucked_113","midi_source":""},{"t":80.663,"note":78,"dur":0.069,"vel":1.0,"inst":"synth_pluck_v0_blown_260","midi_source":""},{"t":80.731,"note":70,"dur":0.137,"vel":1.0,"inst":"cello_v0_plucked_113","midi_source":""},{"t":80.731,"note":78,"dur":0.069,"vel":1.0,"inst":"synth_pluck_v0_blown_260","midi_source":""},{"t":80.8,"note":73,"dur":0.069,"vel":1.0,"inst":"cello_v0_plucked_113","midi_source":""},{"t":80.868,"note":60,"dur":0.137,"vel":1.0,"inst":"synth_pluck_v0_blown_260","midi_source":""},{"t":80.868,"note":75,"dur":0.069,"vel":1.0,"inst":"synth_pluck_v0_blown_260","midi_source":""},{"t":80.937,"note":70,"dur":0.069,"vel":1.0,"inst":"cello_v0_plucked_113","midi_source":""},{"t":81.005,"note":63,"dur":0.137,"vel":1.0,"inst":"synth_pluck_v0_blown_260","midi_source":""},{"t":81.005,"note":72,"dur":0.069,"vel":1.0,"inst":"synth_pluck_v0_blown_260","midi_source":""},{"t":81.074,"note":78,"dur":0.069,"vel":1.0,"inst":"synth_pluck_v0_blown_260","midi_source":""},{"t":81.142,"note":54,"dur":0.137,"vel":1.0,"inst":"synth_pluck_v0_blown_260","midi_source":""},{"t":81.142,"note":70,"dur":0.069,"vel":1.0,"inst":"cello_v0_plucked_113","midi_source":""},{"t":81.211,"note":73,"dur":0.069,"vel":1.0,"inst":"cello_v0_plucked_113","midi_source":""},{"t":81.279,"note":46,"dur":0.137,"vel":1.0,"inst":"cello_v0_plucked_113","midi_source":""},{"t":81.279,"note":75,"dur":0.069,"vel":1.0,"inst":"synth_pluck_v0_blown_260","midi_source":""},{"t":81.348,"note":72,"dur":0.069,"vel":1.0,"inst":"synth_pluck_v0_blown_260","midi_source":""},{"t":81.416,"note":48,"dur":0.137,"vel":1.0,"inst":"synth_pluck_v0_blown_260","midi_source":""},{"t":81.416,"note":73,"dur":0.069,"vel":1.0,"inst":"cello_v0_plucked_113","midi_source":""},{"t":81.485,"note":58,"dur":0.069,"vel":1.0,"inst":"cello_v0_plucked_113","midi_source":""},{"t":81.553,"note":49,"dur":0.137,"vel":1.0,"inst":"cello_v0_plucked_113","midi_source":""},{"t":81.553,"note":70,"dur":0.069,"vel":1.0,"inst":"cello_v0_plucked_113","midi_source":""},{"t":81.622,"note":78,"dur":0.069,"vel":1.0,"inst":"synth_pluck_v0_blown_260","midi_source":""},{"t":81.69,"note":51,"dur":0.137,"vel":1.0,"inst":"synth_pluck_v0_blown_260","midi_source":""},{"t":81.69,"note":78,"dur":0.069,"vel":1.0,"inst":"synth_pluck_v0_blown_260","midi_source":""},{"t":81.759,"note":72,"dur":0.069,"vel":1.0,"inst":"synth_pluck_v0_blown_260","midi_source":""},{"t":81.759,"note":73,"dur":0.069,"vel":1.0,"inst":"cello_v0_plucked_113","midi_source":""},{"t":81.827,"note":48,"dur":0.137,"vel":1.0,"inst":"synth_pluck_v0_blown_260","midi_source":""},{"t":81.827,"note":75,"dur":0.069,"vel":1.0,"inst":"synth_pluck_v0_blown_260","midi_source":""},{"t":81.896,"note":72,"dur":0.069,"vel":1.0,"inst":"synth_pluck_v0_blown_260","midi_source":""},{"t":81.965,"note":49,"dur":0.137,"vel":1.0,"inst":"cello_v0_plucked_113","midi_source":""},{"t":81.965,"note":58,"dur":0.069,"vel":1.0,"inst":"cello_v0_plucked_113","midi_source":""},{"t":82.033,"note":72,"dur":0.069,"vel":1.0,"inst":"synth_pluck_v0_blown_260","midi_source":""},{"t":82.102,"note":61,"dur":0.137,"vel":1.0,"inst":"cello_v0_plucked_113","midi_source":""},{"t":82.102,"note":78,"dur":0.069,"vel":1.0,"inst":"synth_pluck_v0_blown_260","midi_source":""},{"t":82.17,"note":78,"dur":0.069,"vel":1.0,"inst":"synth_pluck_v0_blown_260","midi_source":""},{"t":82.239,"note":54,"dur":0.137,"vel":1.0,"inst":"synth_pluck_v0_blown_260","midi_source":""},{"t":82.239,"note":78,"dur":0.069,"vel":1.0,"inst":"synth_pluck_v0_blown_260","midi_source":""},{"t":82.307,"note":72,"dur":0.069,"vel":1.0,"inst":"synth_pluck_v0_blown_260","midi_source":""},{"t":82.376,"note":61,"dur":0.137,"vel":1.0,"inst":"cello_v0_plucked_113","midi_source":""},{"t":82.376,"note":70,"dur":0.069,"vel":1.0,"inst":"cello_v0_plucked_113","midi_source":""},{"t":82.444,"note":58,"dur":0.069,"vel":1.0,"inst":"cello_v0_plucked_113","midi_source":""},{"t":82.513,"note":66,"dur":0.137,"vel":1.0,"inst":"synth_pluck_v0_blown_260","midi_source":""},{"t":82.513,"note":70,"dur":0.069,"vel":1.0,"inst":"cello_v0_plucked_113","midi_source":""},{"t":82.581,"note":78,"dur":0.069,"vel":1.0,"inst":"synth_pluck_v0_blown_260","midi_source":""},{"t":82.65,"note":58,"dur":0.137,"vel":1.0,"inst":"cello_v0_plucked_113","midi_source":""},{"t":82.65,"note":77,"dur":0.069,"vel":1.0,"inst":"violin_v1_additive_535","midi_source":""},{"t":82.718,"note":75,"dur":0.069,"vel":1.0,"inst":"synth_pluck_v0_blown_260","midi_source":""},{"t":82.787,"note":66,"dur":0.206,"vel":1.0,"inst":"synth_pluck_v0_blown_260","midi_source":""},{"t":82.787,"note":73,"dur":0.069,"vel":1.0,"inst":"cello_v0_plucked_113","midi_source":""},{"t":82.855,"note":78,"dur":0.069,"vel":1.0,"inst":"synth_pluck_v0_blown_260","midi_source":""},{"t":82.855,"note":70,"dur":0.069,"vel":1.0,"inst":"cello_v0_plucked_113","midi_source":""},{"t":82.924,"note":82,"dur":0.069,"vel":1.0,"inst":"cello_v0_plucked_113","midi_source":""},{"t":82.992,"note":60,"dur":0.069,"vel":1.0,"inst":"synth_pluck_v0_blown_260","midi_source":""},{"t":82.992,"note":61,"dur":0.069,"vel":1.0,"inst":"cello_v0_plucked_113","midi_source":""},{"t":82.992,"note":78,"dur":0.069,"vel":1.0,"inst":"synth_pluck_v0_blown_260","midi_source":""},{"t":83.061,"note":58,"dur":0.069,"vel":1.0,"inst":"cello_v0_plucked_113","midi_source":""},{"t":83.061,"note":60,"dur":0.069,"vel":1.0,"inst":"synth_pluck_v0_blown_260","midi_source":""},{"t":83.061,"note":73,"dur":0.137,"vel":1.0,"inst":"cello_v0_plucked_113","midi_source":""},{"t":83.129,"note":61,"dur":0.069,"vel":1.0,"inst":"cello_v0_plucked_113","midi_source":""},{"t":83.198,"note":54,"dur":0.069,"vel":1.0,"inst":"synth_pluck_v0_blown_260","midi_source":""},{"t":83.198,"note":46,"dur":0.069,"vel":1.0,"inst":"cello_v0_plucked_113","midi_source":""},{"t":83.198,"note":75,"dur":0.137,"vel":1.0,"inst":"synth_pluck_v0_blown_260","midi_source":""},{"t":83.266,"note":58,"dur":0.069,"vel":1.0,"inst":"cello_v0_plucked_113","midi_source":""},{"t":83.335,"note":49,"dur":0.206,"vel":1.0,"inst":"cello_v0_plucked_113","midi_source":""},{"t":83.335,"note":77,"dur":0.069,"vel":1.0,"inst":"violin_v1_additive_535","midi_source":""},{"t":83.403,"note":72,"dur":0.069,"vel":1.0,"inst":"synth_pluck_v0_blown_260","midi_source":""},{"t":83.472,"note":73,"dur":0.069,"vel":1.0,"inst":"cello_v0_plucked_113","midi_source":""},{"t":83.54,"note":51,"dur":0.069,"vel":1.0,"inst":"synth_pluck_v0_blown_260","midi_source":""},{"t":83.54,"note":53,"dur":0.069,"vel":1.0,"inst":"violin_v1_additive_535","midi_source":""},{"t":83.54,"note":58,"dur":0.069,"vel":1.0,"inst":"cello_v0_plucked_113","midi_source":""},{"t":83.609,"note":49,"dur":0.069,"vel":1.0,"inst":"cello_v0_plucked_113","midi_source":""},{"t":83.609,"note":51,"dur":0.069,"vel":1.0,"inst":"synth_pluck_v0_blown_260","midi_source":""},{"t":83.609,"note":70,"dur":0.137,"vel":1.0,"inst":"cello_v0_plucked_113","midi_source":""},{"t":83.677,"note":53,"dur":0.069,"vel":1.0,"inst":"violin_v1_additive_535","midi_source":""},{"t":83.746,"note":46,"dur":0.069,"vel":1.0,"inst":"cello_v0_plucked_113","midi_source":""},{"t":83.746,"note":48,"dur":0.069,"vel":1.0,"inst":"synth_pluck_v0_blown_260","midi_source":""},{"t":83.746,"note":85,"dur":0.206,"vel":1.0,"inst":"cello_v0_plucked_113","midi_source":""},{"t":83.814,"note":49,"dur":0.069,"vel":1.0,"inst":"cello_v0_plucked_113","midi_source":""},{"t":83.883,"note":39,"dur":0.137,"vel":1.0,"inst":"synth_pluck_v0_blown_260","midi_source":""},{"t":83.951,"note":78,"dur":0.069,"vel":1.0,"inst":"synth_pluck_v0_blown_260","midi_source":""},{"t":83.951,"note":70,"dur":0.069,"vel":1.0,"inst":"cello_v0_plucked_113","midi_source":""},{"t":84.02,"note":42,"dur":0.137,"vel":1.0,"inst":"synth_pluck_v0_blown_260","midi_source":""},{"t":84.02,"note":82,"dur":0.069,"vel":1.0,"inst":"cello_v0_plucked_113","midi_source":""},{"t":84.088,"note":78,"dur":0.069,"vel":1.0,"inst":"synth_pluck_v0_blown_260","midi_source":""},{"t":84.157,"note":48,"dur":0.137,"vel":1.0,"inst":"synth_pluck_v0_blown_260","midi_source":""},{"t":84.157,"note":75,"dur":0.069,"vel":1.0,"inst":"synth_pluck_v0_blown_260","midi_source":""},{"t":84.225,"note":84,"dur":0.069,"vel":1.0,"inst":"synth_pluck_v0_blown_260","midi_source":""},{"t":84.294,"note":51,"dur":0.137,"vel":1.0,"inst":"synth_pluck_v0_blown_260","midi_source":""},{"t":84.294,"note":78,"dur":0.069,"vel":1.0,"inst":"synth_pluck_v0_blown_260","midi_source":""},{"t":84.294,"note":70,"dur":0.069,"vel":1.0,"inst":"cello_v0_plucked_113","midi_source":""},{"t":84.362,"note":82,"dur":0.069,"vel":1.0,"inst":"cello_v0_plucked_113","midi_source":""},{"t":84.431,"note":53,"dur":0.206,"vel":1.0,"inst":"violin_v1_additive_535","midi_source":""},{"t":84.431,"note":70,"dur":0.069,"vel":1.0,"inst":"cello_v0_plucked_113","midi_source":""},{"t":84.499,"note":75,"dur":0.069,"vel":1.0,"inst":"synth_pluck_v0_blown_260","midi_source":""},{"t":84.568,"note":77,"dur":0.137,"vel":1.0,"inst":"violin_v1_additive_535","midi_source":""},{"t":84.636,"note":70,"dur":0.069,"vel":1.0,"inst":"cello_v0_plucked_113","midi_source":""},{"t":84.636,"note":72,"dur":0.069,"vel":1.0,"inst":"synth_pluck_v0_blown_260","midi_source":""},{"t":84.705,"note":58,"dur":0.069,"vel":1.0,"inst":"cello_v0_plucked_113","midi_source":""},{"t":84.705,"note":70,"dur":0.069,"vel":1.0,"inst":"cello_v0_plucked_113","midi_source":""},{"t":84.773,"note":72,"dur":0.069,"vel":1.0,"inst":"synth_pluck_v0_blown_260","midi_source":""},{"t":84.842,"note":65,"dur":0.069,"vel":1.0,"inst":"violin_v1_additive_535","midi_source":""},{"t":84.842,"note":66,"dur":0.069,"vel":1.0,"inst":"synth_pluck_v0_blown_260","midi_source":""},{"t":84.842,"note":73,"dur":0.137,"vel":1.0,"inst":"cello_v0_plucked_113","midi_source":""},{"t":84.842,"note":70,"dur":0.137,"vel":1.0,"inst":"cello_v0_plucked_113","midi_source":""},{"t":84.91,"note":58,"dur":0.069,"vel":1.0,"inst":"cello_v0_plucked_113","midi_source":""},{"t":84.979,"note":58,"dur":0.069,"vel":1.0,"inst":"cello_v0_plucked_113","midi_source":""},{"t":84.979,"note":70,"dur":0.137,"vel":1.0,"inst":"cello_v0_plucked_113","midi_source":""},{"t":85.047,"note":61,"dur":0.069,"vel":1.0,"inst":"cello_v0_plucked_113","midi_source":""},{"t":85.116,"note":63,"dur":0.069,"vel":1.0,"inst":"synth_pluck_v0_blown_260","midi_source":""},{"t":85.116,"note":78,"dur":0.206,"vel":1.0,"inst":"synth_pluck_v0_blown_260","midi_source":""},{"t":85.184,"note":65,"dur":0.069,"vel":1.0,"inst":"violin_v1_additive_535","midi_source":""},{"t":85.253,"note":66,"dur":0.069,"vel":1.0,"inst":"synth_pluck_v0_blown_260","midi_source":""},{"t":85.321,"note":58,"dur":0.069,"vel":1.0,"inst":"cello_v0_plucked_113","midi_source":""},{"t":85.321,"note":85,"dur":0.069,"vel":1.0,"inst":"cello_v0_plucked_113","midi_source":""},{"t":85.39,"note":70,"dur":0.069,"vel":1.0,"inst":"cello_v0_plucked_113","midi_source":""},{"t":85.39,"note":85,"dur":0.069,"vel":1.0,"inst":"cello_v0_plucked_113","midi_source":""},{"t":85.458,"note":66,"dur":0.069,"vel":1.0,"inst":"synth_pluck_v0_blown_260","midi_source":""},{"t":85.458,"note":87,"dur":0.069,"vel":1.0,"inst":"synth_pluck_v0_blown_260","midi_source":""},{"t":85.527,"note":61,"dur":0.069,"vel":1.0,"inst":"cello_v0_plucked_113","midi_source":""},{"t":85.527,"note":82,"dur":0.137,"vel":1.0,"inst":"cello_v0_plucked_113","midi_source":""},{"t":85.595,"note":63,"dur":0.069,"vel":1.0,"inst":"synth_pluck_v0_blown_260","midi_source":""},{"t":85.664,"note":65,"dur":0.069,"vel":1.0,"inst":"violin_v1_additive_535","midi_source":""},{"t":85.664,"note":70,"dur":0.137,"vel":1.0,"inst":"cello_v0_plucked_113","midi_source":""},{"t":85.732,"note":66,"dur":0.069,"vel":1.0,"inst":"synth_pluck_v0_blown_260","midi_source":""},{"t":85.801,"note":58,"dur":0.069,"vel":1.0,"inst":"cello_v0_plucked_113","midi_source":""},{"t":85.869,"note":70,"dur":0.069,"vel":1.0,"inst":"cello_v0_plucked_113","midi_source":""},{"t":85.869,"note":85,"dur":0.069,"vel":1.0,"inst":"cello_v0_plucked_113","midi_source":""},{"t":85.938,"note":73,"dur":0.069,"vel":1.0,"inst":"cello_v0_plucked_113","midi_source":""},{"t":85.938,"note":87,"dur":0.069,"vel":1.0,"inst":"synth_pluck_v0_blown_260","midi_source":""},{"t":86.006,"note":58,"dur":0.069,"vel":1.0,"inst":"cello_v0_plucked_113","midi_source":""},{"t":86.006,"note":89,"dur":0.069,"vel":1.0,"inst":"violin_v1_additive_535","midi_source":""},{"t":86.075,"note":61,"dur":0.069,"vel":1.0,"inst":"cello_v0_plucked_113","midi_source":""},{"t":86.075,"note":84,"dur":0.137,"vel":1.0,"inst":"synth_pluck_v0_blown_260","midi_source":""},{"t":86.143,"note":65,"dur":0.069,"vel":1.0,"inst":"violin_v1_additive_535","midi_source":""},{"t":86.212,"note":66,"dur":0.069,"vel":1.0,"inst":"synth_pluck_v0_blown_260","midi_source":""},{"t":86.212,"note":82,"dur":0.206,"vel":1.0,"inst":"cello_v0_plucked_113","midi_source":""},{"t":86.28,"note":58,"dur":0.069,"vel":1.0,"inst":"cello_v0_plucked_113","midi_source":""},{"t":86.349,"note":70,"dur":0.069,"vel":1.0,"inst":"cello_v0_plucked_113","midi_source":""},{"t":86.417,"note":73,"dur":0.069,"vel":1.0,"inst":"cello_v0_plucked_113","midi_source":""},{"t":86.417,"note":87,"dur":0.069,"vel":1.0,"inst":"synth_pluck_v0_blown_260","midi_source":""},{"t":86.486,"note":73,"dur":0.069,"vel":1.0,"inst":"cello_v0_plucked_113","midi_source":""},{"t":86.486,"note":89,"dur":0.069,"vel":1.0,"inst":"violin_v1_additive_535","midi_source":""},{"t":86.554,"note":70,"dur":0.069,"vel":1.0,"inst":"cello_v0_plucked_113","midi_source":""},{"t":86.554,"note":90,"dur":0.069,"vel":1.0,"inst":"synth_pluck_v0_blown_260","midi_source":""},{"t":86.623,"note":63,"dur":0.069,"vel":1.0,"inst":"synth_pluck_v0_blown_260","midi_source":""},{"t":86.623,"note":85,"dur":0.137,"vel":1.0,"inst":"cello_v0_plucked_113","midi_source":""},{"t":86.691,"note":66,"dur":0.069,"vel":1.0,"inst":"synth_pluck_v0_blown_260","midi_source":""},{"t":86.76,"note":58,"dur":0.069,"vel":1.0,"inst":"cello_v0_plucked_113","midi_source":""},{"t":86.76,"note":85,"dur":0.137,"vel":1.0,"inst":"cello_v0_plucked_113","midi_source":""},{"t":86.828,"note":70,"dur":0.069,"vel":1.0,"inst":"cello_v0_plucked_113","midi_source":""},{"t":86.897,"note":58,"dur":0.069,"vel":1.0,"inst":"cello_v0_plucked_113","midi_source":""},{"t":86.965,"note":66,"dur":0.069,"vel":1.0,"inst":"synth_pluck_v0_blown_260","midi_source":""},{"t":86.965,"note":82,"dur":0.069,"vel":1.0,"inst":"cello_v0_plucked_113","midi_source":""},{"t":87.034,"note":65,"dur":0.069,"vel":1.0,"inst":"violin_v1_additive_535","midi_source":""},{"t":87.034,"note":70,"dur":0.069,"vel":1.0,"inst":"cello_v0_plucked_113","midi_source":""},{"t":87.102,"note":63,"dur":0.069,"vel":1.0,"inst":"synth_pluck_v0_blown_260","midi_source":""},{"t":87.102,"note":78,"dur":0.069,"vel":1.0,"inst":"synth_pluck_v0_blown_260","midi_source":""},{"t":87.171,"note":65,"dur":0.069,"vel":1.0,"inst":"violin_v1_additive_535","midi_source":""},{"t":87.171,"note":70,"dur":0.069,"vel":1.0,"inst":"cello_v0_plucked_113","midi_source":""},{"t":87.239,"note":66,"dur":0.069,"vel":1.0,"inst":"synth_pluck_v0_blown_260","midi_source":""},{"t":87.239,"note":75,"dur":0.069,"vel":1.0,"inst":"synth_pluck_v0_blown_260","midi_source":""},{"t":87.308,"note":58,"dur":0.069,"vel":1.0,"inst":"cello_v0_plucked_113","midi_source":""},{"t":87.308,"note":77,"dur":0.069,"vel":1.0,"inst":"violin_v1_additive_535","midi_source":""},{"t":87.376,"note":63,"dur":0.069,"vel":1.0,"inst":"synth_pluck_v0_blown_260","midi_source":""},{"t":87.376,"note":73,"dur":0.069,"vel":1.0,"inst":"cello_v0_plucked_113","midi_source":""},{"t":87.445,"note":65,"dur":0.069,"vel":1.0,"inst":"violin_v1_additive_535","midi_source":""},{"t":87.445,"note":73,"dur":0.069,"vel":1.0,"inst":"cello_v0_plucked_113","midi_source":""},{"t":87.513,"note":70,"dur":0.069,"vel":1.0,"inst":"cello_v0_plucked_113","midi_source":""},{"t":87.513,"note":78,"dur":0.069,"vel":1.0,"inst":"synth_pluck_v0_blown_260","midi_source":""},{"t":87.582,"note":58,"dur":0.069,"vel":1.0,"inst":"cello_v0_plucked_113","midi_source":""},{"t":87.582,"note":77,"dur":0.069,"vel":1.0,"inst":"violin_v1_additive_535","midi_source":""},{"t":87.65,"note":66,"dur":0.069,"vel":1.0,"inst":"synth_pluck_v0_blown_260","midi_source":""},{"t":87.65,"note":75,"dur":0.069,"vel":1.0,"inst":"synth_pluck_v0_blown_260","midi_source":""},{"t":87.719,"note":58,"dur":0.069,"vel":1.0,"inst":"cello_v0_plucked_113","midi_source":""},{"t":87.719,"note":77,"dur":0.069,"vel":1.0,"inst":"violin_v1_additive_535","midi_source":""},{"t":87.787,"note":63,"dur":0.069,"vel":1.0,"inst":"synth_pluck_v0_blown_260","midi_source":""},{"t":87.787,"note":73,"dur":0.069,"vel":1.0,"inst":"cello_v0_plucked_113","midi_source":""},{"t":87.856,"note":65,"dur":0.069,"vel":1.0,"inst":"violin_v1_additive_535","midi_source":""},{"t":87.856,"note":73,"dur":0.069,"vel":1.0,"inst":"cello_v0_plucked_113","midi_source":""},{"t":87.924,"note":60,"dur":0.069,"vel":1.0,"inst":"synth_pluck_v0_blown_260","midi_source":""},{"t":87.924,"note":58,"dur":0.069,"vel":1.0,"inst":"cello_v0_plucked_113","midi_source":""},{"t":87.993,"note":61,"dur":0.069,"vel":1.0,"inst":"cello_v0_plucked_113","midi_source":""},{"t":87.993,"note":70,"dur":0.069,"vel":1.0,"inst":"cello_v0_plucked_113","midi_source":""},{"t":88.061,"note":66,"dur":0.069,"vel":1.0,"inst":"synth_pluck_v0_blown_260","midi_source":""},{"t":88.061,"note":75,"dur":0.069,"vel":1.0,"inst":"synth_pluck_v0_blown_260","midi_source":""},{"t":88.13,"note":65,"dur":0.069,"vel":1.0,"inst":"violin_v1_additive_535","midi_source":""},{"t":88.13,"note":73,"dur":0.069,"vel":1.0,"inst":"cello_v0_plucked_113","midi_source":""},{"t":88.198,"note":63,"dur":0.069,"vel":1.0,"inst":"synth_pluck_v0_blown_260","midi_source":""},{"t":88.198,"note":73,"dur":0.069,"vel":1.0,"inst":"cello_v0_plucked_113","midi_source":""},{"t":88.267,"note":65,"dur":0.069,"vel":1.0,"inst":"violin_v1_additive_535","midi_source":""},{"t":88.267,"note":73,"dur":0.069,"vel":1.0,"inst":"cello_v0_plucked_113","midi_source":""},{"t":88.335,"note":61,"dur":0.069,"vel":1.0,"inst":"cello_v0_plucked_113","midi_source":""},{"t":88.335,"note":58,"dur":0.069,"vel":1.0,"inst":"cello_v0_plucked_113","midi_source":""},{"t":88.404,"note":61,"dur":0.069,"vel":1.0,"inst":"cello_v0_plucked_113","midi_source":""},{"t":88.404,"note":70,"dur":0.069,"vel":1.0,"inst":"cello_v0_plucked_113","midi_source":""},{"t":88.472,"note":46,"dur":0.069,"vel":1.0,"inst":"cello_v0_plucked_113","midi_source":""},{"t":88.472,"note":66,"dur":0.069,"vel":1.0,"inst":"synth_pluck_v0_blown_260","midi_source":""},{"t":88.541,"note":58,"dur":0.069,"vel":1.0,"inst":"cello_v0_plucked_113","midi_source":""},{"t":88.541,"note":60,"dur":0.069,"vel":1.0,"inst":"synth_pluck_v0_blown_260","midi_source":""},{"t":88.541,"note":66,"dur":0.069,"vel":1.0,"inst":"synth_pluck_v0_blown_260","midi_source":""},{"t":88.609,"note":61,"dur":0.069,"vel":1.0,"inst":"cello_v0_plucked_113","midi_source":""},{"t":88.609,"note":72,"dur":0.069,"vel":1.0,"inst":"synth_pluck_v0_blown_260","midi_source":""},{"t":88.678,"note":54,"dur":0.069,"vel":1.0,"inst":"synth_pluck_v0_blown_260","midi_source":""},{"t":88.678,"note":46,"dur":0.069,"vel":1.0,"inst":"cello_v0_plucked_113","midi_source":""},{"t":88.678,"note":70,"dur":0.069,"vel":1.0,"inst":"cello_v0_plucked_113","midi_source":""},{"t":88.746,"note":58,"dur":0.069,"vel":1.0,"inst":"cello_v0_plucked_113","midi_source":""},{"t":88.746,"note":58,"dur":0.069,"vel":1.0,"inst":"cello_v0_plucked_113","midi_source":""},{"t":88.815,"note":49,"dur":0.274,"vel":1.0,"inst":"cello_v0_plucked_113","midi_source":""},{"t":88.815,"note":70,"dur":0.069,"vel":1.0,"inst":"cello_v0_plucked_113","midi_source":""},{"t":88.883,"note":66,"dur":0.069,"vel":1.0,"inst":"synth_pluck_v0_blown_260","midi_source":""},{"t":88.952,"note":58,"dur":0.069,"vel":1.0,"inst":"cello_v0_plucked_113","midi_source":""},{"t":89.02,"note":73,"dur":0.069,"vel":1.0,"inst":"cello_v0_plucked_113","midi_source":""},{"t":89.089,"note":75,"dur":0.069,"vel":1.0,"inst":"synth_pluck_v0_blown_260","midi_source":""},{"t":89.157,"note":70,"dur":0.069,"vel":1.0,"inst":"cello_v0_plucked_113","midi_source":""},{"t":89.226,"note":34,"dur":0.137,"vel":1.0,"inst":"cello_v0_plucked_113","midi_source":""},{"t":89.226,"note":58,"dur":0.069,"vel":1.0,"inst":"cello_v0_plucked_113","midi_source":""},{"t":89.294,"note":66,"dur":0.069,"vel":1.0,"inst":"synth_pluck_v0_blown_260","midi_source":""},{"t":89.363,"note":49,"dur":0.137,"vel":1.0,"inst":"cello_v0_plucked_113","midi_source":""},{"t":89.363,"note":65,"dur":0.069,"vel":1.0,"inst":"violin_v1_additive_535","midi_source":""},{"t":89.431,"note":58,"dur":0.069,"vel":1.0,"inst":"cello_v0_plucked_113","midi_source":""},{"t":89.5,"note":65,"dur":0.137,"vel":1.0,"inst":"violin_v1_additive_535","midi_source":""},{"t":89.5,"note":73,"dur":0.069,"vel":1.0,"inst":"cello_v0_plucked_113","midi_source":""},{"t":89.568,"note":77,"dur":0.137,"vel":1.0,"inst":"violin_v1_additive_535","midi_source":""},{"t":89.637,"note":58,"dur":0.137,"vel":1.0,"inst":"cello_v0_plucked_113","midi_source":""},{"t":89.705,"note":73,"dur":0.069,"vel":1.0,"inst":"cello_v0_plucked_113","midi_source":""},{"t":89.774,"note":46,"dur":0.137,"vel":1.0,"inst":"cello_v0_plucked_113","midi_source":""},{"t":89.774,"note":73,"dur":0.069,"vel":1.0,"inst":"cello_v0_plucked_113","midi_source":""},{"t":89.842,"note":65,"dur":0.069,"vel":1.0,"inst":"violin_v1_additive_535","midi_source":""},{"t":89.911,"note":51,"dur":0.137,"vel":1.0,"inst":"synth_pluck_v0_blown_260","midi_source":""},{"t":89.911,"note":66,"dur":0.069,"vel":1.0,"inst":"synth_pluck_v0_blown_260","midi_source":""},{"t":89.979,"note":70,"dur":0.069,"vel":1.0,"inst":"cello_v0_plucked_113","midi_source":""},{"t":90.048,"note":66,"dur":0.137,"vel":1.0,"inst":"synth_pluck_v0_blown_260","midi_source":""},{"t":90.048,"note":73,"dur":0.069,"vel":1.0,"inst":"cello_v0_plucked_113","midi_source":""},{"t":90.116,"note":77,"dur":0.069,"vel":1.0,"inst":"violin_v1_additive_535","midi_source":""},{"t":90.185,"note":58,"dur":0.137,"vel":1.0,"inst":"cello_v0_plucked_113","midi_source":""},{"t":90.253,"note":73,"dur":0.069,"vel":1.0,"inst":"cello_v0_plucked_113","midi_source":""},{"t":90.322,"note":46,"dur":0.137,"vel":1.0,"inst":"cello_v0_plucked_113","midi_source":""},{"t":90.322,"note":73,"dur":0.069,"vel":1.0,"inst":"cello_v0_plucked_113","midi_source":""},{"t":90.39,"note":66,"dur":0.069,"vel":1.0,"inst":"synth_pluck_v0_blown_260","midi_source":""},{"t":90.459,"note":53,"dur":0.137,"vel":1.0,"inst":"violin_v1_additive_535","midi_source":""},{"t":90.459,"note":58,"dur":0.069,"vel":1.0,"inst":"cello_v0_plucked_113","midi_source":""},{"t":90.527,"note":73,"dur":0.069,"vel":1.0,"inst":"cello_v0_plucked_113","midi_source":""},{"t":90.596,"note":58,"dur":0.137,"vel":1.0,"inst":"cello_v0_plucked_113","midi_source":""},{"t":90.596,"note":73,"dur":0.069,"vel":1.0,"inst":"cello_v0_plucked_113","midi_source":""},{"t":90.664,"note":61,"dur":0.069,"vel":1.0,"inst":"cello_v0_plucked_113","midi_source":""},{"t":90.664,"note":70,"dur":0.069,"vel":1.0,"inst":"cello_v0_plucked_113","midi_source":""},{"t":90.733,"note":63,"dur":0.137,"vel":1.0,"inst":"synth_pluck_v0_blown_260","midi_source":""},{"t":90.733,"note":72,"dur":0.069,"vel":1.0,"inst":"synth_pluck_v0_blown_260","midi_source":""},{"t":90.801,"note":82,"dur":0.069,"vel":1.0,"inst":"cello_v0_plucked_113","midi_source":""},{"t":90.87,"note":60,"dur":0.137,"vel":1.0,"inst":"synth_pluck_v0_blown_260","midi_source":""},{"t":90.87,"note":70,"dur":0.069,"vel":1.0,"inst":"cello_v0_plucked_113","midi_source":""},{"t":90.938,"note":78,"dur":0.069,"vel":1.0,"inst":"synth_pluck_v0_blown_260","midi_source":""},{"t":91.007,"note":61,"dur":0.137,"vel":1.0,"inst":"cello_v0_plucked_113","midi_source":""},{"t":91.007,"note":78,"dur":0.206,"vel":1.0,"inst":"synth_pluck_v0_blown_260","midi_source":""},{"t":91.144,"note":49,"dur":0.137,"vel":1.0,"inst":"cello_v0_plucked_113","midi_source":""},{"t":91.212,"note":75,"dur":0.069,"vel":1.0,"inst":"synth_pluck_v0_blown_260","midi_source":""},{"t":91.281,"note":73,"dur":0.137,"vel":1.0,"inst":"cello_v0_plucked_113","midi_source":""},{"t":91.349,"note":60,"dur":0.069,"vel":1.0,"inst":"synth_pluck_v0_blown_260","midi_source":""},{"t":91.418,"note":58,"dur":0.069,"vel":1.0,"inst":"cello_v0_plucked_113","midi_source":""},{"t":91.418,"note":78,"dur":0.137,"vel":1.0,"inst":"synth_pluck_v0_blown_260","midi_source":""},{"t":91.486,"note":46,"dur":0.069,"vel":1.0,"inst":"cello_v0_plucked_113","midi_source":""},{"t":91.555,"note":58,"dur":0.069,"vel":1.0,"inst":"cello_v0_plucked_113","midi_source":""},{"t":91.555,"note":78,"dur":0.069,"vel":1.0,"inst":"synth_pluck_v0_blown_260","midi_source":""},{"t":91.623,"note":53,"dur":0.069,"vel":1.0,"inst":"violin_v1_additive_535","midi_source":""},{"t":91.623,"note":70,"dur":0.069,"vel":1.0,"inst":"cello_v0_plucked_113","midi_source":""},{"t":91.692,"note":54,"dur":0.069,"vel":1.0,"inst":"synth_pluck_v0_blown_260","midi_source":""},{"t":91.692,"note":82,"dur":0.137,"vel":1.0,"inst":"cello_v0_plucked_113","midi_source":""},{"t":91.76,"note":49,"dur":0.069,"vel":1.0,"inst":"cello_v0_plucked_113","midi_source":""},{"t":91.829,"note":51,"dur":0.069,"vel":1.0,"inst":"synth_pluck_v0_blown_260","midi_source":""},{"t":91.829,"note":72,"dur":0.069,"vel":1.0,"inst":"synth_pluck_v0_blown_260","midi_source":""},{"t":91.897,"note":61,"dur":0.069,"vel":1.0,"inst":"cello_v0_plucked_113","midi_source":""},{"t":91.897,"note":82,"dur":0.069,"vel":1.0,"inst":"cello_v0_plucked_113","midi_source":""},{"t":91.966,"note":60,"dur":0.069,"vel":1.0,"inst":"synth_pluck_v0_blown_260","midi_source":""},{"t":91.966,"note":70,"dur":0.069,"vel":1.0,"inst":"cello_v0_plucked_113","midi_source":""},{"t":92.034,"note":58,"dur":0.069,"vel":1.0,"inst":"cello_v0_plucked_113","midi_source":""},{"t":92.034,"note":78,"dur":0.069,"vel":1.0,"inst":"synth_pluck_v0_blown_260","midi_source":""},{"t":92.103,"note":60,"dur":0.069,"vel":1.0,"inst":"synth_pluck_v0_blown_260","midi_source":""},{"t":92.103,"note":70,"dur":0.069,"vel":1.0,"inst":"cello_v0_plucked_113","midi_source":""},{"t":92.171,"note":54,"dur":0.069,"vel":1.0,"inst":"synth_pluck_v0_blown_260","midi_source":""},{"t":92.171,"note":82,"dur":0.069,"vel":1.0,"inst":"cello_v0_plucked_113","midi_source":""},{"t":92.24,"note":46,"dur":0.069,"vel":1.0,"inst":"cello_v0_plucked_113","midi_source":""},{"t":92.24,"note":84,"dur":0.137,"vel":1.0,"inst":"synth_pluck_v0_blown_260","midi_source":""},{"t":92.308,"note":51,"dur":0.069,"vel":1.0,"inst":"synth_pluck_v0_blown_260","midi_source":""},{"t":92.377,"note":54,"dur":0.069,"vel":1.0,"inst":"synth_pluck_v0_blown_260","midi_source":""},{"t":92.377,"note":73,"dur":0.069,"vel":1.0,"inst":"cello_v0_plucked_113","midi_source":""},{"t":92.445,"note":63,"dur":0.069,"vel":1.0,"inst":"synth_pluck_v0_blown_260","midi_source":""},{"t":92.445,"note":84,"dur":0.069,"vel":1.0,"inst":"synth_pluck_v0_blown_260","midi_source":""},{"t":92.514,"note":61,"dur":0.069,"vel":1.0,"inst":"cello_v0_plucked_113","midi_source":""},{"t":92.514,"note":82,"dur":0.069,"vel":1.0,"inst":"cello_v0_plucked_113","midi_source":""},{"t":92.582,"note":60,"dur":0.069,"vel":1.0,"inst":"synth_pluck_v0_blown_260","midi_source":""},{"t":92.582,"note":70,"dur":0.069,"vel":1.0,"inst":"cello_v0_plucked_113","midi_source":""},{"t":92.651,"note":61,"dur":0.069,"vel":1.0,"inst":"cello_v0_plucked_113","midi_source":""},{"t":92.651,"note":82,"dur":0.069,"vel":1.0,"inst":"cello_v0_plucked_113","midi_source":""},{"t":92.719,"note":46,"dur":0.069,"vel":1.0,"inst":"cello_v0_plucked_113","midi_source":""},{"t":92.719,"note":84,"dur":0.069,"vel":1.0,"inst":"synth_pluck_v0_blown_260","midi_source":""},{"t":92.788,"note":58,"dur":0.069,"vel":1.0,"inst":"cello_v0_plucked_113","midi_source":""},{"t":92.788,"note":85,"dur":0.137,"vel":1.0,"inst":"cello_v0_plucked_113","midi_source":""},{"t":92.856,"note":54,"dur":0.069,"vel":1.0,"inst":"synth_pluck_v0_blown_260","midi_source":""},{"t":92.925,"note":54,"dur":0.069,"vel":1.0,"inst":"synth_pluck_v0_blown_260","midi_source":""},{"t":92.925,"note":75,"dur":0.069,"vel":1.0,"inst":"synth_pluck_v0_blown_260","midi_source":""},{"t":92.993,"note":65,"dur":0.069,"vel":1.0,"inst":"violin_v1_additive_535","midi_source":""},{"t":92.993,"note":85,"dur":0.069,"vel":1.0,"inst":"cello_v0_plucked_113","midi_source":""},{"t":93.062,"note":63,"dur":0.069,"vel":1.0,"inst":"synth_pluck_v0_blown_260","midi_source":""},{"t":93.062,"note":84,"dur":0.069,"vel":1.0,"inst":"synth_pluck_v0_blown_260","midi_source":""},{"t":93.13,"note":61,"dur":0.069,"vel":1.0,"inst":"cello_v0_plucked_113","midi_source":""},{"t":93.13,"note":82,"dur":0.069,"vel":1.0,"inst":"cello_v0_plucked_113","midi_source":""},{"t":93.199,"note":63,"dur":0.069,"vel":1.0,"inst":"synth_pluck_v0_blown_260","midi_source":""},{"t":93.199,"note":84,"dur":0.069,"vel":1.0,"inst":"synth_pluck_v0_blown_260","midi_source":""},{"t":93.267,"note":58,"dur":0.069,"vel":1.0,"inst":"cello_v0_plucked_113","midi_source":""},{"t":93.267,"note":85,"dur":0.069,"vel":1.0,"inst":"cello_v0_plucked_113","midi_source":""},{"t":93.336,"note":60,"dur":0.069,"vel":1.0,"inst":"synth_pluck_v0_blown_260","midi_source":""},{"t":93.336,"note":87,"dur":0.137,"vel":1.0,"inst":"synth_pluck_v0_blown_260","midi_source":""},{"t":93.404,"note":54,"dur":0.069,"vel":1.0,"inst":"synth_pluck_v0_blown_260","midi_source":""},{"t":93.473,"note":46,"dur":0.137,"vel":1.0,"inst":"cello_v0_plucked_113","midi_source":""},{"t":93.473,"note":78,"dur":0.069,"vel":1.0,"inst":"synth_pluck_v0_blown_260","midi_source":""},{"t":93.541,"note":87,"dur":0.069,"vel":1.0,"inst":"synth_pluck_v0_blown_260","midi_source":""},{"t":93.61,"note":66,"dur":0.137,"vel":1.0,"inst":"synth_pluck_v0_blown_260","midi_source":""},{"t":93.61,"note":85,"dur":0.069,"vel":1.0,"inst":"cello_v0_plucked_113","midi_source":""},{"t":93.678,"note":84,"dur":0.069,"vel":1.0,"inst":"synth_pluck_v0_blown_260","midi_source":""},{"t":93.747,"note":66,"dur":0.137,"vel":1.0,"inst":"synth_pluck_v0_blown_260","midi_source":""},{"t":93.747,"note":82,"dur":0.069,"vel":1.0,"inst":"cello_v0_plucked_113","midi_source":""},{"t":93.815,"note":78,"dur":0.069,"vel":1.0,"inst":"synth_pluck_v0_blown_260","midi_source":""},{"t":93.884,"note":70,"dur":0.137,"vel":1.0,"inst":"cello_v0_plucked_113","midi_source":""},{"t":93.884,"note":78,"dur":0.069,"vel":1.0,"inst":"synth_pluck_v0_blown_260","midi_source":""},{"t":93.952,"note":73,"dur":0.069,"vel":1.0,"inst":"cello_v0_plucked_113","midi_source":""},{"t":94.021,"note":60,"dur":0.137,"vel":1.0,"inst":"synth_pluck_v0_blown_260","midi_source":""},{"t":94.021,"note":75,"dur":0.069,"vel":1.0,"inst":"synth_pluck_v0_blown_260","midi_source":""},{"t":94.089,"note":70,"dur":0.069,"vel":1.0,"inst":"cello_v0_plucked_113","midi_source":""},{"t":94.158,"note":63,"dur":0.137,"vel":1.0,"inst":"synth_pluck_v0_blown_260","midi_source":""},{"t":94.158,"note":72,"dur":0.069,"vel":1.0,"inst":"synth_pluck_v0_blown_260","midi_source":""},{"t":94.226,"note":78,"dur":0.069,"vel":1.0,"inst":"synth_pluck_v0_blown_260","midi_source":""},{"t":94.295,"note":54,"dur":0.137,"vel":1.0,"inst":"synth_pluck_v0_blown_260","midi_source":""},{"t":94.295,"note":70,"dur":0.069,"vel":1.0,"inst":"cello_v0_plucked_113","midi_source":""},{"t":94.364,"note":73,"dur":0.069,"vel":1.0,"inst":"cello_v0_plucked_113","midi_source":""},{"t":94.432,"note":46,"dur":0.137,"vel":1.0,"inst":"cello_v0_plucked_113","midi_source":""},{"t":94.432,"note":75,"dur":0.069,"vel":1.0,"inst":"synth_pluck_v0_blown_260","midi_source":""},{"t":94.501,"note":72,"dur":0.069,"vel":1.0,"inst":"synth_pluck_v0_blown_260","midi_source":""},{"t":94.569,"note":48,"dur":0.137,"vel":1.0,"inst":"synth_pluck_v0_blown_260","midi_source":""},{"t":94.569,"note":73,"dur":0.069,"vel":1.0,"inst":"cello_v0_plucked_113","midi_source":""},{"t":94.638,"note":58,"dur":0.069,"vel":1.0,"inst":"cello_v0_plucked_113","midi_source":""},{"t":94.706,"note":49,"dur":0.137,"vel":1.0,"inst":"cello_v0_plucked_113","midi_source":""},{"t":94.706,"note":70,"dur":0.069,"vel":1.0,"inst":"cello_v0_plucked_113","midi_source":""},{"t":94.775,"note":78,"dur":0.069,"vel":1.0,"inst":"synth_pluck_v0_blown_260","midi_source":""},{"t":94.843,"note":51,"dur":0.137,"vel":1.0,"inst":"synth_pluck_v0_blown_260","midi_source":""},{"t":94.843,"note":78,"dur":0.069,"vel":1.0,"inst":"synth_pluck_v0_blown_260","midi_source":""},{"t":94.912,"note":72,"dur":0.069,"vel":1.0,"inst":"synth_pluck_v0_blown_260","midi_source":""},{"t":94.912,"note":73,"dur":0.069,"vel":1.0,"inst":"cello_v0_plucked_113","midi_source":""},{"t":94.98,"note":48,"dur":0.137,"vel":1.0,"inst":"synth_pluck_v0_blown_260","midi_source":""},{"t":94.98,"note":75,"dur":0.069,"vel":1.0,"inst":"synth_pluck_v0_blown_260","midi_source":""},{"t":95.049,"note":72,"dur":0.069,"vel":1.0,"inst":"synth_pluck_v0_blown_260","midi_source":""},{"t":95.117,"note":49,"dur":0.137,"vel":1.0,"inst":"cello_v0_plucked_113","midi_source":""},{"t":95.117,"note":58,"dur":0.069,"vel":1.0,"inst":"cello_v0_plucked_113","midi_source":""},{"t":95.186,"note":72,"dur":0.069,"vel":1.0,"inst":"synth_pluck_v0_blown_260","midi_source":""},{"t":95.254,"note":61,"dur":0.137,"vel":1.0,"inst":"cello_v0_plucked_113","midi_source":""},{"t":95.254,"note":78,"dur":0.069,"vel":1.0,"inst":"synth_pluck_v0_blown_260","midi_source":""},{"t":95.323,"note":78,"dur":0.069,"vel":1.0,"inst":"synth_pluck_v0_blown_260","midi_source":""},{"t":95.391,"note":54,"dur":0.137,"vel":1.0,"inst":"synth_pluck_v0_blown_260","midi_source":""},{"t":95.391,"note":78,"dur":0.069,"vel":1.0,"inst":"synth_pluck_v0_blown_260","midi_source":""},{"t":95.46,"note":72,"dur":0.069,"vel":1.0,"inst":"synth_pluck_v0_blown_260","midi_source":""},{"t":95.528,"note":61,"dur":0.137,"vel":1.0,"inst":"cello_v0_plucked_113","midi_source":""},{"t":95.528,"note":70,"dur":0.069,"vel":1.0,"inst":"cello_v0_plucked_113","midi_source":""},{"t":95.597,"note":58,"dur":0.069,"vel":1.0,"inst":"cello_v0_plucked_113","midi_source":""},{"t":95.665,"note":66,"dur":0.137,"vel":1.0,"inst":"synth_pluck_v0_blown_260","midi_source":""},{"t":95.665,"note":70,"dur":0.069,"vel":1.0,"inst":"cello_v0_plucked_113","midi_source":""},{"t":95.734,"note":78,"dur":0.069,"vel":1.0,"inst":"synth_pluck_v0_blown_260","midi_source":""},{"t":95.802,"note":58,"dur":0.137,"vel":1.0,"inst":"cello_v0_plucked_113","midi_source":""},{"t":95.802,"note":77,"dur":0.069,"vel":1.0,"inst":"violin_v1_additive_535","midi_source":""},{"t":95.871,"note":75,"dur":0.069,"vel":1.0,"inst":"synth_pluck_v0_blown_260","midi_source":""},{"t":95.939,"note":66,"dur":0.206,"vel":1.0,"inst":"synth_pluck_v0_blown_260","midi_source":""},{"t":95.939,"note":73,"dur":0.069,"vel":1.0,"inst":"cello_v0_plucked_113","midi_source":""},{"t":96.008,"note":78,"dur":0.069,"vel":1.0,"inst":"synth_pluck_v0_blown_260","midi_source":""},{"t":96.008,"note":70,"dur":0.069,"vel":1.0,"inst":"cello_v0_plucked_113","midi_source":""},{"t":96.076,"note":82,"dur":0.069,"vel":1.0,"inst":"cello_v0_plucked_113","midi_source":""},{"t":96.145,"note":60,"dur":0.069,"vel":1.0,"inst":"synth_pluck_v0_blown_260","midi_source":""},{"t":96.145,"note":61,"dur":0.069,"vel":1.0,"inst":"cello_v0_plucked_113","midi_source":""},{"t":96.145,"note":78,"dur":0.069,"vel":1.0,"inst":"synth_pluck_v0_blown_260","midi_source":""},{"t":96.213,"note":58,"dur":0.069,"vel":1.0,"inst":"cello_v0_plucked_113","midi_source":""},{"t":96.213,"note":60,"dur":0.069,"vel":1.0,"inst":"synth_pluck_v0_blown_260","midi_source":""},{"t":96.213,"note":73,"dur":0.137,"vel":1.0,"inst":"cello_v0_plucked_113","midi_source":""},{"t":96.282,"note":61,"dur":0.069,"vel":1.0,"inst":"cello_v0_plucked_113","midi_source":""},{"t":96.35,"note":54,"dur":0.069,"vel":1.0,"inst":"synth_pluck_v0_blown_260","midi_source":""},{"t":96.35,"note":46,"dur":0.069,"vel":1.0,"inst":"cello_v0_plucked_113","midi_source":""},{"t":96.35,"note":75,"dur":0.137,"vel":1.0,"inst":"synth_pluck_v0_blown_260","midi_source":""},{"t":96.419,"note":58,"dur":0.069,"vel":1.0,"inst":"cello_v0_plucked_113","midi_source":""},{"t":96.487,"note":49,"dur":0.206,"vel":1.0,"inst":"cello_v0_plucked_113","midi_source":""},{"t":96.487,"note":77,"dur":0.069,"vel":1.0,"inst":"violin_v1_additive_535","midi_source":""},{"t":96.556,"note":72,"dur":0.069,"vel":1.0,"inst":"synth_pluck_v0_blown_260","midi_source":""},{"t":96.624,"note":73,"dur":0.069,"vel":1.0,"inst":"cello_v0_plucked_113","midi_source":""},{"t":96.693,"note":51,"dur":0.069,"vel":1.0,"inst":"synth_pluck_v0_blown_260","midi_source":""},{"t":96.693,"note":53,"dur":0.069,"vel":1.0,"inst":"violin_v1_additive_535","midi_source":""},{"t":96.693,"note":58,"dur":0.069,"vel":1.0,"inst":"cello_v0_plucked_113","midi_source":""},{"t":96.761,"note":49,"dur":0.069,"vel":1.0,"inst":"cello_v0_plucked_113","midi_source":""},{"t":96.761,"note":51,"dur":0.069,"vel":1.0,"inst":"synth_pluck_v0_blown_260","midi_source":""},{"t":96.761,"note":70,"dur":0.137,"vel":1.0,"inst":"cello_v0_plucked_113","midi_source":""},{"t":96.83,"note":53,"dur":0.069,"vel":1.0,"inst":"violin_v1_additive_535","midi_source":""},{"t":96.898,"note":46,"dur":0.069,"vel":1.0,"inst":"cello_v0_plucked_113","midi_source":""},{"t":96.898,"note":48,"dur":0.069,"vel":1.0,"inst":"synth_pluck_v0_blown_260","midi_source":""},{"t":96.898,"note":85,"dur":0.206,"vel":1.0,"inst":"cello_v0_plucked_113","midi_source":""},{"t":96.967,"note":49,"dur":0.069,"vel":1.0,"inst":"cello_v0_plucked_113","midi_source":""},{"t":97.035,"note":39,"dur":0.137,"vel":1.0,"inst":"synth_pluck_v0_blown_260","midi_source":""},{"t":97.104,"note":78,"dur":0.069,"vel":1.0,"inst":"synth_pluck_v0_blown_260","midi_source":""},{"t":97.104,"note":70,"dur":0.069,"vel":1.0,"inst":"cello_v0_plucked_113","midi_source":""},{"t":97.172,"note":42,"dur":0.137,"vel":1.0,"inst":"synth_pluck_v0_blown_260","midi_source":""},{"t":97.172,"note":82,"dur":0.069,"vel":1.0,"inst":"cello_v0_plucked_113","midi_source":""},{"t":97.241,"note":78,"dur":0.069,"vel":1.0,"inst":"synth_pluck_v0_blown_260","midi_source":""},{"t":97.309,"note":48,"dur":0.137,"vel":1.0,"inst":"synth_pluck_v0_blown_260","midi_source":""},{"t":97.309,"note":75,"dur":0.069,"vel":1.0,"inst":"synth_pluck_v0_blown_260","midi_source":""},{"t":97.378,"note":84,"dur":0.069,"vel":1.0,"inst":"synth_pluck_v0_blown_260","midi_source":""},{"t":97.446,"note":51,"dur":0.137,"vel":1.0,"inst":"synth_pluck_v0_blown_260","midi_source":""},{"t":97.446,"note":78,"dur":0.069,"vel":1.0,"inst":"synth_pluck_v0_blown_260","midi_source":""},{"t":97.446,"note":70,"dur":0.069,"vel":1.0,"inst":"cello_v0_plucked_113","midi_source":""},{"t":97.515,"note":82,"dur":0.069,"vel":1.0,"inst":"cello_v0_plucked_113","midi_source":""},{"t":97.583,"note":53,"dur":0.206,"vel":1.0,"inst":"violin_v1_additive_535","midi_source":""},{"t":97.583,"note":70,"dur":0.069,"vel":1.0,"inst":"cello_v0_plucked_113","midi_source":""},{"t":97.652,"note":75,"dur":0.069,"vel":1.0,"inst":"synth_pluck_v0_blown_260","midi_source":""},{"t":97.72,"note":77,"dur":0.137,"vel":1.0,"inst":"violin_v1_additive_535","midi_source":""},{"t":97.789,"note":70,"dur":0.069,"vel":1.0,"inst":"cello_v0_plucked_113","midi_source":""},{"t":97.789,"note":72,"dur":0.069,"vel":1.0,"inst":"synth_pluck_v0_blown_260","midi_source":""},{"t":97.857,"note":58,"dur":0.069,"vel":1.0,"inst":"cello_v0_plucked_113","midi_source":""},{"t":97.857,"note":70,"dur":0.069,"vel":1.0,"inst":"cello_v0_plucked_113","midi_source":""},{"t":97.926,"note":72,"dur":0.069,"vel":1.0,"inst":"synth_pluck_v0_blown_260","midi_source":""},{"t":97.994,"note":65,"dur":0.069,"vel":1.0,"inst":"violin_v1_additive_535","midi_source":""},{"t":97.994,"note":66,"dur":0.069,"vel":1.0,"inst":"synth_pluck_v0_blown_260","midi_source":""},{"t":97.994,"note":73,"dur":0.137,"vel":1.0,"inst":"cello_v0_plucked_113","midi_source":""},{"t":97.994,"note":70,"dur":0.137,"vel":1.0,"inst":"cello_v0_plucked_113","midi_source":""},{"t":98.063,"note":58,"dur":0.069,"vel":1.0,"inst":"cello_v0_plucked_113","midi_source":""},{"t":98.131,"note":58,"dur":0.069,"vel":1.0,"inst":"cello_v0_plucked_113","midi_source":""},{"t":98.131,"note":70,"dur":0.137,"vel":1.0,"inst":"cello_v0_plucked_113","midi_source":""},{"t":98.2,"note":61,"dur":0.069,"vel":1.0,"inst":"cello_v0_plucked_113","midi_source":""},{"t":98.268,"note":63,"dur":0.069,"vel":1.0,"inst":"synth_pluck_v0_blown_260","midi_source":""},{"t":98.268,"note":78,"dur":0.206,"vel":1.0,"inst":"synth_pluck_v0_blown_260","midi_source":""},{"t":98.337,"note":65,"dur":0.069,"vel":1.0,"inst":"violin_v1_additive_535","midi_source":""},{"t":98.405,"note":66,"dur":0.069,"vel":1.0,"inst":"synth_pluck_v0_blown_260","midi_source":""},{"t":98.474,"note":58,"dur":0.069,"vel":1.0,"inst":"cello_v0_plucked_113","midi_source":""},{"t":98.474,"note":85,"dur":0.069,"vel":1.0,"inst":"cello_v0_plucked_113","midi_source":""},{"t":98.542,"note":70,"dur":0.069,"vel":1.0,"inst":"cello_v0_plucked_113","midi_source":""},{"t":98.542,"note":85,"dur":0.069,"vel":1.0,"inst":"cello_v0_plucked_113","midi_source":""},{"t":98.611,"note":66,"dur":0.069,"vel":1.0,"inst":"synth_pluck_v0_blown_260","midi_source":""},{"t":98.611,"note":87,"dur":0.069,"vel":1.0,"inst":"synth_pluck_v0_blown_260","midi_source":""},{"t":98.679,"note":61,"dur":0.069,"vel":1.0,"inst":"cello_v0_plucked_113","midi_source":""},{"t":98.679,"note":82,"dur":0.137,"vel":1.0,"inst":"cello_v0_plucked_113","midi_source":""},{"t":98.748,"note":63,"dur":0.069,"vel":1.0,"inst":"synth_pluck_v0_blown_260","midi_source":""},{"t":98.816,"note":65,"dur":0.069,"vel":1.0,"inst":"violin_v1_additive_535","midi_source":""},{"t":98.816,"note":70,"dur":0.137,"vel":1.0,"inst":"cello_v0_plucked_113","midi_source":""},{"t":98.885,"note":66,"dur":0.069,"vel":1.0,"inst":"synth_pluck_v0_blown_260","midi_source":""},{"t":98.953,"note":58,"dur":0.069,"vel":1.0,"inst":"cello_v0_plucked_113","midi_source":""},{"t":99.022,"note":70,"dur":0.069,"vel":1.0,"inst":"cello_v0_plucked_113","midi_source":""},{"t":99.022,"note":85,"dur":0.069,"vel":1.0,"inst":"cello_v0_plucked_113","midi_source":""},{"t":99.09,"note":73,"dur":0.069,"vel":1.0,"inst":"cello_v0_plucked_113","midi_source":""},{"t":99.09,"note":87,"dur":0.069,"vel":1.0,"inst":"synth_pluck_v0_blown_260","midi_source":""},{"t":99.159,"note":58,"dur":0.069,"vel":1.0,"inst":"cello_v0_plucked_113","midi_source":""},{"t":99.159,"note":89,"dur":0.069,"vel":1.0,"inst":"violin_v1_additive_535","midi_source":""},{"t":99.227,"note":61,"dur":0.069,"vel":1.0,"inst":"cello_v0_plucked_113","midi_source":""},{"t":99.227,"note":84,"dur":0.137,"vel":1.0,"inst":"synth_pluck_v0_blown_260","midi_source":""},{"t":99.296,"note":65,"dur":0.069,"vel":1.0,"inst":"violin_v1_additive_535","midi_source":""},{"t":99.364,"note":66,"dur":0.069,"vel":1.0,"inst":"synth_pluck_v0_blown_260","midi_source":""},{"t":99.364,"note":82,"dur":0.206,"vel":1.0,"inst":"cello_v0_plucked_113","midi_source":""},{"t":99.433,"note":58,"dur":0.069,"vel":1.0,"inst":"cello_v0_plucked_113","midi_source":""},{"t":99.501,"note":70,"dur":0.069,"vel":1.0,"inst":"cello_v0_plucked_113","midi_source":""},{"t":99.57,"note":73,"dur":0.069,"vel":1.0,"inst":"cello_v0_plucked_113","midi_source":""},{"t":99.57,"note":87,"dur":0.069,"vel":1.0,"inst":"synth_pluck_v0_blown_260","midi_source":""},{"t":99.638,"note":73,"dur":0.069,"vel":1.0,"inst":"cello_v0_plucked_113","midi_source":""},{"t":99.638,"note":89,"dur":0.069,"vel":1.0,"inst":"violin_v1_additive_535","midi_source":""},{"t":99.707,"note":70,"dur":0.069,"vel":1.0,"inst":"cello_v0_plucked_113","midi_source":""},{"t":99.707,"note":90,"dur":0.069,"vel":1.0,"inst":"synth_pluck_v0_blown_260","midi_source":""},{"t":99.775,"note":63,"dur":0.069,"vel":1.0,"inst":"synth_pluck_v0_blown_260","midi_source":""},{"t":99.775,"note":85,"dur":0.137,"vel":1.0,"inst":"cello_v0_plucked_113","midi_source":""},{"t":99.844,"note":66,"dur":0.069,"vel":1.0,"inst":"synth_pluck_v0_blown_260","midi_source":""},{"t":99.912,"note":58,"dur":0.069,"vel":1.0,"inst":"cello_v0_plucked_113","midi_source":""},{"t":99.912,"note":85,"dur":0.137,"vel":1.0,"inst":"cello_v0_plucked_113","midi_source":""},{"t":99.981,"note":70,"dur":0.069,"vel":1.0,"inst":"cello_v0_plucked_113","midi_source":""},{"t":100.049,"note":58,"dur":0.069,"vel":1.0,"inst":"cello_v0_plucked_113","midi_source":""},{"t":100.118,"note":66,"dur":0.069,"vel":1.0,"inst":"synth_pluck_v0_blown_260","midi_source":""},{"t":100.118,"note":82,"dur":0.069,"vel":1.0,"inst":"cello_v0_plucked_113","midi_source":""},{"t":100.186,"note":65,"dur":0.069,"vel":1.0,"inst":"violin_v1_additive_535","midi_source":""},{"t":100.186,"note":70,"dur":0.069,"vel":1.0,"inst":"cello_v0_plucked_113","midi_source":""},{"t":100.255,"note":63,"dur":0.069,"vel":1.0,"inst":"synth_pluck_v0_blown_260","midi_source":""},{"t":100.255,"note":78,"dur":0.069,"vel":1.0,"inst":"synth_pluck_v0_blown_260","midi_source":""},{"t":100.323,"note":65,"dur":0.069,"vel":1.0,"inst":"violin_v1_additive_535","midi_source":""},{"t":100.323,"note":70,"dur":0.069,"vel":1.0,"inst":"cello_v0_plucked_113","midi_source":""},{"t":100.392,"note":66,"dur":0.069,"vel":1.0,"inst":"synth_pluck_v0_blown_260","midi_source":""},{"t":100.392,"note":75,"dur":0.069,"vel":1.0,"inst":"synth_pluck_v0_blown_260","midi_source":""},{"t":100.46,"note":58,"dur":0.069,"vel":1.0,"inst":"cello_v0_plucked_113","midi_source":""},{"t":100.46,"note":77,"dur":0.069,"vel":1.0,"inst":"violin_v1_additive_535","midi_source":""},{"t":100.529,"note":63,"dur":0.069,"vel":1.0,"inst":"synth_pluck_v0_blown_260","midi_source":""},{"t":100.529,"note":73,"dur":0.069,"vel":1.0,"inst":"cello_v0_plucked_113","midi_source":""},{"t":100.597,"note":65,"dur":0.069,"vel":1.0,"inst":"violin_v1_additive_535","midi_source":""},{"t":100.597,"note":73,"dur":0.069,"vel":1.0,"inst":"cello_v0_plucked_113","midi_source":""},{"t":100.666,"note":70,"dur":0.069,"vel":1.0,"inst":"cello_v0_plucked_113","midi_source":""},{"t":100.666,"note":78,"dur":0.069,"vel":1.0,"inst":"synth_pluck_v0_blown_260","midi_source":""},{"t":100.734,"note":58,"dur":0.069,"vel":1.0,"inst":"cello_v0_plucked_113","midi_source":""},{"t":100.734,"note":77,"dur":0.069,"vel":1.0,"inst":"violin_v1_additive_535","midi_source":""},{"t":100.803,"note":66,"dur":0.069,"vel":1.0,"inst":"synth_pluck_v0_blown_260","midi_source":""},{"t":100.803,"note":75,"dur":0.069,"vel":1.0,"inst":"synth_pluck_v0_blown_260","midi_source":""},{"t":100.871,"note":58,"dur":0.069,"vel":1.0,"inst":"cello_v0_plucked_113","midi_source":""},{"t":100.871,"note":77,"dur":0.069,"vel":1.0,"inst":"violin_v1_additive_535","midi_source":""},{"t":100.94,"note":63,"dur":0.069,"vel":1.0,"inst":"synth_pluck_v0_blown_260","midi_source":""},{"t":100.94,"note":73,"dur":0.069,"vel":1.0,"inst":"cello_v0_plucked_113","midi_source":""},{"t":101.008,"note":65,"dur":0.069,"vel":1.0,"inst":"violin_v1_additive_535","midi_source":""},{"t":101.008,"note":73,"dur":0.069,"vel":1.0,"inst":"cello_v0_plucked_113","midi_source":""},{"t":101.077,"note":60,"dur":0.069,"vel":1.0,"inst":"synth_pluck_v0_blown_260","midi_source":""},{"t":101.077,"note":58,"dur":0.069,"vel":1.0,"inst":"cello_v0_plucked_113","midi_source":""},{"t":101.145,"note":61,"dur":0.069,"vel":1.0,"inst":"cello_v0_plucked_113","midi_source":""},{"t":101.145,"note":70,"dur":0.069,"vel":1.0,"inst":"cello_v0_plucked_113","midi_source":""},{"t":101.214,"note":66,"dur":0.069,"vel":1.0,"inst":"synth_pluck_v0_blown_260","midi_source":""},{"t":101.214,"note":75,"dur":0.069,"vel":1.0,"inst":"synth_pluck_v0_blown_260","midi_source":""},{"t":101.282,"note":65,"dur":0.069,"vel":1.0,"inst":"violin_v1_additive_535","midi_source":""},{"t":101.282,"note":73,"dur":0.069,"vel":1.0,"inst":"cello_v0_plucked_113","midi_source":""},{"t":101.351,"note":63,"dur":0.069,"vel":1.0,"inst":"synth_pluck_v0_blown_260","midi_source":""},{"t":101.351,"note":73,"dur":0.069,"vel":1.0,"inst":"cello_v0_plucked_113","midi_source":""},{"t":101.419,"note":65,"dur":0.069,"vel":1.0,"inst":"violin_v1_additive_535","midi_source":""},{"t":101.419,"note":73,"dur":0.069,"vel":1.0,"inst":"cello_v0_plucked_113","midi_source":""},{"t":101.488,"note":61,"dur":0.069,"vel":1.0,"inst":"cello_v0_plucked_113","midi_source":""},{"t":101.488,"note":58,"dur":0.069,"vel":1.0,"inst":"cello_v0_plucked_113","midi_source":""},{"t":101.556,"note":61,"dur":0.069,"vel":1.0,"inst":"cello_v0_plucked_113","midi_source":""},{"t":101.556,"note":70,"dur":0.069,"vel":1.0,"inst":"cello_v0_plucked_113","midi_source":""},{"t":101.625,"note":46,"dur":0.069,"vel":1.0,"inst":"cello_v0_plucked_113","midi_source":""},{"t":101.625,"note":66,"dur":0.069,"vel":1.0,"inst":"synth_pluck_v0_blown_260","midi_source":""},{"t":101.693,"note":58,"dur":0.069,"vel":1.0,"inst":"cello_v0_plucked_113","midi_source":""},{"t":101.693,"note":60,"dur":0.069,"vel":1.0,"inst":"synth_pluck_v0_blown_260","midi_source":""},{"t":101.693,"note":66,"dur":0.069,"vel":1.0,"inst":"synth_pluck_v0_blown_260","midi_source":""},{"t":101.762,"note":61,"dur":0.069,"vel":1.0,"inst":"cello_v0_plucked_113","midi_source":""},{"t":101.762,"note":72,"dur":0.069,"vel":1.0,"inst":"synth_pluck_v0_blown_260","midi_source":""},{"t":101.83,"note":54,"dur":0.069,"vel":1.0,"inst":"synth_pluck_v0_blown_260","midi_source":""},{"t":101.83,"note":46,"dur":0.069,"vel":1.0,"inst":"cello_v0_plucked_113","midi_source":""},{"t":101.83,"note":70,"dur":0.069,"vel":1.0,"inst":"cello_v0_plucked_113","midi_source":""},{"t":101.899,"note":58,"dur":0.069,"vel":1.0,"inst":"cello_v0_plucked_113","midi_source":""},{"t":101.899,"note":58,"dur":0.069,"vel":1.0,"inst":"cello_v0_plucked_113","midi_source":""},{"t":101.967,"note":49,"dur":0.274,"vel":1.0,"inst":"cello_v0_plucked_113","midi_source":""},{"t":101.967,"note":70,"dur":0.069,"vel":1.0,"inst":"cello_v0_plucked_113","midi_source":""},{"t":102.036,"note":66,"dur":0.069,"vel":1.0,"inst":"synth_pluck_v0_blown_260","midi_source":""},{"t":102.104,"note":58,"dur":0.069,"vel":1.0,"inst":"cello_v0_plucked_113","midi_source":""},{"t":102.173,"note":73,"dur":0.069,"vel":1.0,"inst":"cello_v0_plucked_113","midi_source":""},{"t":102.241,"note":75,"dur":0.069,"vel":1.0,"inst":"synth_pluck_v0_blown_260","midi_source":""},{"t":102.31,"note":70,"dur":0.069,"vel":1.0,"inst":"cello_v0_plucked_113","midi_source":""},{"t":102.378,"note":34,"dur":0.137,"vel":1.0,"inst":"cello_v0_plucked_113","midi_source":""},{"t":102.378,"note":58,"dur":0.069,"vel":1.0,"inst":"cello_v0_plucked_113","midi_source":""},{"t":102.447,"note":66,"dur":0.069,"vel":1.0,"inst":"synth_pluck_v0_blown_260","midi_source":""},{"t":102.515,"note":49,"dur":0.137,"vel":1.0,"inst":"cello_v0_plucked_113","midi_source":""},{"t":102.515,"note":65,"dur":0.069,"vel":1.0,"inst":"violin_v1_additive_535","midi_source":""},{"t":102.584,"note":58,"dur":0.069,"vel":1.0,"inst":"cello_v0_plucked_113","midi_source":""},{"t":102.652,"note":65,"dur":0.137,"vel":1.0,"inst":"violin_v1_additive_535","midi_source":""},{"t":102.652,"note":73,"dur":0.069,"vel":1.0,"inst":"cello_v0_plucked_113","midi_source":""},{"t":102.721,"note":77,"dur":0.137,"vel":1.0,"inst":"violin_v1_additive_535","midi_source":""},{"t":102.789,"note":58,"dur":0.137,"vel":1.0,"inst":"cello_v0_plucked_113","midi_source":""},{"t":102.858,"note":73,"dur":0.069,"vel":1.0,"inst":"cello_v0_plucked_113","midi_source":""},{"t":102.926,"note":46,"dur":0.137,"vel":1.0,"inst":"cello_v0_plucked_113","midi_source":""},{"t":102.926,"note":73,"dur":0.069,"vel":1.0,"inst":"cello_v0_plucked_113","midi_source":""},{"t":102.995,"note":65,"dur":0.069,"vel":1.0,"inst":"violin_v1_additive_535","midi_source":""},{"t":103.063,"note":51,"dur":0.137,"vel":1.0,"inst":"synth_pluck_v0_blown_260","midi_source":""},{"t":103.063,"note":66,"dur":0.069,"vel":1.0,"inst":"synth_pluck_v0_blown_260","midi_source":""},{"t":103.132,"note":70,"dur":0.069,"vel":1.0,"inst":"cello_v0_plucked_113","midi_source":""},{"t":103.2,"note":66,"dur":0.137,"vel":1.0,"inst":"synth_pluck_v0_blown_260","midi_source":""},{"t":103.2,"note":73,"dur":0.069,"vel":1.0,"inst":"cello_v0_plucked_113","midi_source":""},{"t":103.269,"note":77,"dur":0.069,"vel":1.0,"inst":"violin_v1_additive_535","midi_source":""},{"t":103.337,"note":58,"dur":0.137,"vel":1.0,"inst":"cello_v0_plucked_113","midi_source":""},{"t":103.406,"note":73,"dur":0.069,"vel":1.0,"inst":"cello_v0_plucked_113","midi_source":""},{"t":103.474,"note":46,"dur":0.137,"vel":1.0,"inst":"cello_v0_plucked_113","midi_source":""},{"t":103.474,"note":73,"dur":0.069,"vel":1.0,"inst":"cello_v0_plucked_113","midi_source":""},{"t":103.543,"note":66,"dur":0.069,"vel":1.0,"inst":"synth_pluck_v0_blown_260","midi_source":""},{"t":103.611,"note":53,"dur":0.137,"vel":1.0,"inst":"violin_v1_additive_535","midi_source":""},{"t":103.611,"note":58,"dur":0.069,"vel":1.0,"inst":"cello_v0_plucked_113","midi_source":""},{"t":103.68,"note":73,"dur":0.069,"vel":1.0,"inst":"cello_v0_plucked_113","midi_source":""},{"t":103.748,"note":58,"dur":0.137,"vel":1.0,"inst":"cello_v0_plucked_113","midi_source":""},{"t":103.748,"note":73,"dur":0.069,"vel":1.0,"inst":"cello_v0_plucked_113","midi_source":""},{"t":103.817,"note":61,"dur":0.069,"vel":1.0,"inst":"cello_v0_plucked_113","midi_source":""},{"t":103.817,"note":70,"dur":0.069,"vel":1.0,"inst":"cello_v0_plucked_113","midi_source":""},{"t":103.885,"note":63,"dur":0.137,"vel":1.0,"inst":"synth_pluck_v0_blown_260","midi_source":""},{"t":103.885,"note":72,"dur":0.069,"vel":1.0,"inst":"synth_pluck_v0_blown_260","midi_source":""},{"t":103.954,"note":82,"dur":0.069,"vel":1.0,"inst":"cello_v0_plucked_113","midi_source":""},{"t":104.022,"note":60,"dur":0.137,"vel":1.0,"inst":"synth_pluck_v0_blown_260","midi_source":""},{"t":104.022,"note":70,"dur":0.069,"vel":1.0,"inst":"cello_v0_plucked_113","midi_source":""},{"t":104.091,"note":78,"dur":0.069,"vel":1.0,"inst":"synth_pluck_v0_blown_260","midi_source":""},{"t":104.159,"note":61,"dur":0.137,"vel":1.0,"inst":"cello_v0_plucked_113","midi_source":""},{"t":104.159,"note":78,"dur":0.206,"vel":1.0,"inst":"synth_pluck_v0_blown_260","midi_source":""},{"t":104.296,"note":49,"dur":0.137,"vel":1.0,"inst":"cello_v0_plucked_113","midi_source":""},{"t":104.365,"note":75,"dur":0.069,"vel":1.0,"inst":"synth_pluck_v0_blown_260","midi_source":""},{"t":104.433,"note":73,"dur":0.137,"vel":1.0,"inst":"cello_v0_plucked_113","midi_source":""},{"t":104.502,"note":60,"dur":0.069,"vel":1.0,"inst":"synth_pluck_v0_blown_260","midi_source":""},{"t":104.57,"note":58,"dur":0.069,"vel":1.0,"inst":"cello_v0_plucked_113","midi_source":""},{"t":104.57,"note":78,"dur":0.137,"vel":1.0,"inst":"synth_pluck_v0_blown_260","midi_source":""},{"t":104.639,"note":46,"dur":0.069,"vel":1.0,"inst":"cello_v0_plucked_113","midi_source":""},{"t":104.707,"note":58,"dur":0.069,"vel":1.0,"inst":"cello_v0_plucked_113","midi_source":""},{"t":104.707,"note":78,"dur":0.069,"vel":1.0,"inst":"synth_pluck_v0_blown_260","midi_source":""},{"t":104.776,"note":53,"dur":0.069,"vel":1.0,"inst":"violin_v1_additive_535","midi_source":""},{"t":104.776,"note":70,"dur":0.069,"vel":1.0,"inst":"cello_v0_plucked_113","midi_source":""},{"t":104.844,"note":54,"dur":0.069,"vel":1.0,"inst":"synth_pluck_v0_blown_260","midi_source":""},{"t":104.844,"note":82,"dur":0.137,"vel":1.0,"inst":"cello_v0_plucked_113","midi_source":""},{"t":104.913,"note":49,"dur":0.069,"vel":1.0,"inst":"cello_v0_plucked_113","midi_source":""},{"t":104.981,"note":51,"dur":0.069,"vel":1.0,"inst":"synth_pluck_v0_blown_260","midi_source":""},{"t":104.981,"note":72,"dur":0.069,"vel":1.0,"inst":"synth_pluck_v0_blown_260","midi_source":""},{"t":105.05,"note":61,"dur":0.069,"vel":1.0,"inst":"cello_v0_plucked_113","midi_source":""},{"t":105.05,"note":82,"dur":0.069,"vel":1.0,"inst":"cello_v0_plucked_113","midi_source":""},{"t":105.118,"note":60,"dur":0.069,"vel":1.0,"inst":"synth_pluck_v0_blown_260","midi_source":""},{"t":105.118,"note":70,"dur":0.069,"vel":1.0,"inst":"cello_v0_plucked_113","midi_source":""},{"t":105.187,"note":58,"dur":0.069,"vel":1.0,"inst":"cello_v0_plucked_113","midi_source":""},{"t":105.187,"note":78,"dur":0.069,"vel":1.0,"inst":"synth_pluck_v0_blown_260","midi_source":""},{"t":105.255,"note":60,"dur":0.069,"vel":1.0,"inst":"synth_pluck_v0_blown_260","midi_source":""},{"t":105.255,"note":70,"dur":0.069,"vel":1.0,"inst":"cello_v0_plucked_113","midi_source":""},{"t":105.324,"note":54,"dur":0.069,"vel":1.0,"inst":"synth_pluck_v0_blown_260","midi_source":""},{"t":105.324,"note":82,"dur":0.069,"vel":1.0,"inst":"cello_v0_plucked_113","midi_source":""},{"t":105.392,"note":46,"dur":0.069,"vel":1.0,"inst":"cello_v0_plucked_113","midi_source":""},{"t":105.392,"note":84,"dur":0.137,"vel":1.0,"inst":"synth_pluck_v0_blown_260","midi_source":""},{"t":105.461,"note":51,"dur":0.069,"vel":1.0,"inst":"synth_pluck_v0_blown_260","midi_source":""},{"t":105.529,"note":54,"dur":0.069,"vel":1.0,"inst":"synth_pluck_v0_blown_260","midi_source":""},{"t":105.529,"note":73,"dur":0.069,"vel":1.0,"inst":"cello_v0_plucked_113","midi_source":""},{"t":105.598,"note":63,"dur":0.069,"vel":1.0,"inst":"synth_pluck_v0_blown_260","midi_source":""},{"t":105.598,"note":84,"dur":0.069,"vel":1.0,"inst":"synth_pluck_v0_blown_260","midi_source":""},{"t":105.666,"note":61,"dur":0.069,"vel":1.0,"inst":"cello_v0_plucked_113","midi_source":""},{"t":105.666,"note":82,"dur":0.069,"vel":1.0,"inst":"cello_v0_plucked_113","midi_source":""},{"t":105.735,"note":60,"dur":0.069,"vel":1.0,"inst":"synth_pluck_v0_blown_260","midi_source":""},{"t":105.735,"note":70,"dur":0.069,"vel":1.0,"inst":"cello_v0_plucked_113","midi_source":""},{"t":105.803,"note":61,"dur":0.069,"vel":1.0,"inst":"cello_v0_plucked_113","midi_source":""},{"t":105.803,"note":82,"dur":0.069,"vel":1.0,"inst":"cello_v0_plucked_113","midi_source":""},{"t":105.872,"note":46,"dur":0.069,"vel":1.0,"inst":"cello_v0_plucked_113","midi_source":""},{"t":105.872,"note":84,"dur":0.069,"vel":1.0,"inst":"synth_pluck_v0_blown_260","midi_source":""},{"t":105.94,"note":58,"dur":0.069,"vel":1.0,"inst":"cello_v0_plucked_113","midi_source":""},{"t":105.94,"note":85,"dur":0.137,"vel":1.0,"inst":"cello_v0_plucked_113","midi_source":""},{"t":106.009,"note":54,"dur":0.069,"vel":1.0,"inst":"synth_pluck_v0_blown_260","midi_source":""},{"t":106.077,"note":54,"dur":0.069,"vel":1.0,"inst":"synth_pluck_v0_blown_260","midi_source":""},{"t":106.077,"note":75,"dur":0.069,"vel":1.0,"inst":"synth_pluck_v0_blown_260","midi_source":""},{"t":106.146,"note":65,"dur":0.069,"vel":1.0,"inst":"violin_v1_additive_535","midi_source":""},{"t":106.146,"note":85,"dur":0.069,"vel":1.0,"inst":"cello_v0_plucked_113","midi_source":""},{"t":106.214,"note":63,"dur":0.069,"vel":1.0,"inst":"synth_pluck_v0_blown_260","midi_source":""},{"t":106.214,"note":84,"dur":0.069,"vel":1.0,"inst":"synth_pluck_v0_blown_260","midi_source":""},{"t":106.283,"note":61,"dur":0.069,"vel":1.0,"inst":"cello_v0_plucked_113","midi_source":""},{"t":106.283,"note":82,"dur":0.069,"vel":1.0,"inst":"cello_v0_plucked_113","midi_source":""},{"t":106.351,"note":63,"dur":0.069,"vel":1.0,"inst":"synth_pluck_v0_blown_260","midi_source":""},{"t":106.351,"note":84,"dur":0.069,"vel":1.0,"inst":"synth_pluck_v0_blown_260","midi_source":""},{"t":106.42,"note":58,"dur":0.069,"vel":1.0,"inst":"cello_v0_plucked_113","midi_source":""},{"t":106.42,"note":85,"dur":0.069,"vel":1.0,"inst":"cello_v0_plucked_113","midi_source":""},{"t":106.488,"note":60,"dur":0.069,"vel":1.0,"inst":"synth_pluck_v0_blown_260","midi_source":""},{"t":106.488,"note":87,"dur":0.137,"vel":1.0,"inst":"synth_pluck_v0_blown_260","midi_source":""},{"t":106.557,"note":54,"dur":0.069,"vel":1.0,"inst":"synth_pluck_v0_blown_260","midi_source":""},{"t":106.625,"note":46,"dur":0.137,"vel":1.0,"inst":"cello_v0_plucked_113","midi_source":""},{"t":106.625,"note":78,"dur":0.069,"vel":1.0,"inst":"synth_pluck_v0_blown_260","midi_source":""},{"t":106.694,"note":87,"dur":0.069,"vel":1.0,"inst":"synth_pluck_v0_blown_260","midi_source":""},{"t":106.763,"note":66,"dur":0.137,"vel":1.0,"inst":"synth_pluck_v0_blown_260","midi_source":""},{"t":106.763,"note":85,"dur":0.069,"vel":1.0,"inst":"cello_v0_plucked_113","midi_source":""},{"t":106.831,"note":84,"dur":0.069,"vel":1.0,"inst":"synth_pluck_v0_blown_260","midi_source":""},{"t":106.9,"note":66,"dur":0.137,"vel":1.0,"inst":"synth_pluck_v0_blown_260","midi_source":""},{"t":106.9,"note":82,"dur":0.069,"vel":1.0,"inst":"cello_v0_plucked_113","midi_source":""},{"t":106.968,"note":78,"dur":0.069,"vel":1.0,"inst":"synth_pluck_v0_blown_260","midi_source":""},{"t":107.037,"note":70,"dur":0.137,"vel":1.0,"inst":"cello_v0_plucked_113","midi_source":""},{"t":107.037,"note":78,"dur":0.069,"vel":1.0,"inst":"synth_pluck_v0_blown_260","midi_source":""},{"t":107.105,"note":73,"dur":0.069,"vel":1.0,"inst":"cello_v0_plucked_113","midi_source":""},{"t":107.174,"note":60,"dur":0.137,"vel":1.0,"inst":"synth_pluck_v0_blown_260","midi_source":""},{"t":107.174,"note":75,"dur":0.069,"vel":1.0,"inst":"synth_pluck_v0_blown_260","midi_source":""},{"t":107.242,"note":70,"dur":0.069,"vel":1.0,"inst":"cello_v0_plucked_113","midi_source":""},{"t":107.311,"note":63,"dur":0.137,"vel":1.0,"inst":"synth_pluck_v0_blown_260","midi_source":""},{"t":107.311,"note":72,"dur":0.069,"vel":1.0,"inst":"synth_pluck_v0_blown_260","midi_source":""},{"t":107.379,"note":78,"dur":0.069,"vel":1.0,"inst":"synth_pluck_v0_blown_260","midi_source":""},{"t":107.448,"note":54,"dur":0.137,"vel":1.0,"inst":"synth_pluck_v0_blown_260","midi_source":""},{"t":107.448,"note":70,"dur":0.069,"vel":1.0,"inst":"cello_v0_plucked_113","midi_source":""},{"t":107.516,"note":73,"dur":0.069,"vel":1.0,"inst":"cello_v0_plucked_113","midi_source":""},{"t":107.585,"note":46,"dur":0.137,"vel":1.0,"inst":"cello_v0_plucked_113","midi_source":""},{"t":107.585,"note":75,"dur":0.069,"vel":1.0,"inst":"synth_pluck_v0_blown_260","midi_source":""},{"t":107.653,"note":72,"dur":0.069,"vel":1.0,"inst":"synth_pluck_v0_blown_260","midi_source":""},{"t":107.722,"note":48,"dur":0.137,"vel":1.0,"inst":"synth_pluck_v0_blown_260","midi_source":""},{"t":107.722,"note":73,"dur":0.069,"vel":1.0,"inst":"cello_v0_plucked_113","midi_source":""},{"t":107.79,"note":58,"dur":0.069,"vel":1.0,"inst":"cello_v0_plucked_113","midi_source":""},{"t":107.859,"note":49,"dur":0.137,"vel":1.0,"inst":"cello_v0_plucked_113","midi_source":""},{"t":107.859,"note":70,"dur":0.069,"vel":1.0,"inst":"cello_v0_plucked_113","midi_source":""},{"t":107.927,"note":78,"dur":0.069,"vel":1.0,"inst":"synth_pluck_v0_blown_260","midi_source":""},{"t":107.996,"note":51,"dur":0.137,"vel":1.0,"inst":"synth_pluck_v0_blown_260","midi_source":""},{"t":107.996,"note":78,"dur":0.069,"vel":1.0,"inst":"synth_pluck_v0_blown_260","midi_source":""},{"t":108.064,"note":72,"dur":0.069,"vel":1.0,"inst":"synth_pluck_v0_blown_260","midi_source":""},{"t":108.064,"note":73,"dur":0.069,"vel":1.0,"inst":"cello_v0_plucked_113","midi_source":""},{"t":108.133,"note":48,"dur":0.137,"vel":1.0,"inst":"synth_pluck_v0_blown_260","midi_source":""},{"t":108.133,"note":75,"dur":0.069,"vel":1.0,"inst":"synth_pluck_v0_blown_260","midi_source":""},{"t":108.201,"note":72,"dur":0.069,"vel":1.0,"inst":"synth_pluck_v0_blown_260","midi_source":""},{"t":108.27,"note":49,"dur":0.137,"vel":1.0,"inst":"cello_v0_plucked_113","midi_source":""},{"t":108.27,"note":58,"dur":0.069,"vel":1.0,"inst":"cello_v0_plucked_113","midi_source":""},{"t":108.338,"note":72,"dur":0.069,"vel":1.0,"inst":"synth_pluck_v0_blown_260","midi_source":""},{"t":108.407,"note":61,"dur":0.137,"vel":1.0,"inst":"cello_v0_plucked_113","midi_source":""},{"t":108.407,"note":78,"dur":0.069,"vel":1.0,"inst":"synth_pluck_v0_blown_260","midi_source":""},{"t":108.475,"note":78,"dur":0.069,"vel":1.0,"inst":"synth_pluck_v0_blown_260","midi_source":""},{"t":108.544,"note":54,"dur":0.137,"vel":1.0,"inst":"synth_pluck_v0_blown_260","midi_source":""},{"t":108.544,"note":78,"dur":0.069,"vel":1.0,"inst":"synth_pluck_v0_blown_260","midi_source":""},{"t":108.612,"note":72,"dur":0.069,"vel":1.0,"inst":"synth_pluck_v0_blown_260","midi_source":""},{"t":108.681,"note":61,"dur":0.137,"vel":1.0,"inst":"cello_v0_plucked_113","midi_source":""},{"t":108.681,"note":70,"dur":0.069,"vel":1.0,"inst":"cello_v0_plucked_113","midi_source":""},{"t":108.749,"note":58,"dur":0.069,"vel":1.0,"inst":"cello_v0_plucked_113","midi_source":""},{"t":108.818,"note":66,"dur":0.137,"vel":1.0,"inst":"synth_pluck_v0_blown_260","midi_source":""},{"t":108.818,"note":70,"dur":0.069,"vel":1.0,"inst":"cello_v0_plucked_113","midi_source":""},{"t":108.886,"note":78,"dur":0.069,"vel":1.0,"inst":"synth_pluck_v0_blown_260","midi_source":""},{"t":108.955,"note":58,"dur":0.137,"vel":1.0,"inst":"cello_v0_plucked_113","midi_source":""},{"t":108.955,"note":77,"dur":0.069,"vel":1.0,"inst":"violin_v1_additive_535","midi_source":""},{"t":109.023,"note":75,"dur":0.069,"vel":1.0,"inst":"synth_pluck_v0_blown_260","midi_source":""},{"t":109.092,"note":66,"dur":0.206,"vel":1.0,"inst":"synth_pluck_v0_blown_260","midi_source":""},{"t":109.092,"note":73,"dur":0.069,"vel":1.0,"inst":"cello_v0_plucked_113","midi_source":""},{"t":109.16,"note":78,"dur":0.069,"vel":1.0,"inst":"synth_pluck_v0_blown_260","midi_source":""},{"t":109.16,"note":70,"dur":0.069,"vel":1.0,"inst":"cello_v0_plucked_113","midi_source":""},{"t":109.229,"note":82,"dur":0.069,"vel":1.0,"inst":"cello_v0_plucked_113","midi_source":""},{"t":109.297,"note":60,"dur":0.069,"vel":1.0,"inst":"synth_pluck_v0_blown_260","midi_source":""},{"t":109.297,"note":61,"dur":0.069,"vel":1.0,"inst":"cello_v0_plucked_113","midi_source":""},{"t":109.297,"note":78,"dur":0.069,"vel":1.0,"inst":"synth_pluck_v0_blown_260","midi_source":""},{"t":109.366,"note":58,"dur":0.069,"vel":1.0,"inst":"cello_v0_plucked_113","midi_source":""},{"t":109.366,"note":60,"dur":0.069,"vel":1.0,"inst":"synth_pluck_v0_blown_260","midi_source":""},{"t":109.366,"note":73,"dur":0.137,"vel":1.0,"inst":"cello_v0_plucked_113","midi_source":""},{"t":109.434,"note":61,"dur":0.069,"vel":1.0,"inst":"cello_v0_plucked_113","midi_source":""},{"t":109.503,"note":54,"dur":0.069,"vel":1.0,"inst":"synth_pluck_v0_blown_260","midi_source":""},{"t":109.503,"note":46,"dur":0.069,"vel":1.0,"inst":"cello_v0_plucked_113","midi_source":""},{"t":109.503,"note":75,"dur":0.137,"vel":1.0,"inst":"synth_pluck_v0_blown_260","midi_source":""},{"t":109.571,"note":58,"dur":0.069,"vel":1.0,"inst":"cello_v0_plucked_113","midi_source":""},{"t":109.64,"note":49,"dur":0.206,"vel":1.0,"inst":"cello_v0_plucked_113","midi_source":""},{"t":109.64,"note":77,"dur":0.069,"vel":1.0,"inst":"violin_v1_additive_535","midi_source":""},{"t":109.708,"note":72,"dur":0.069,"vel":1.0,"inst":"synth_pluck_v0_blown_260","midi_source":""},{"t":109.777,"note":73,"dur":0.069,"vel":1.0,"inst":"cello_v0_plucked_113","midi_source":""},{"t":109.845,"note":51,"dur":0.069,"vel":1.0,"inst":"synth_pluck_v0_blown_260","midi_source":""},{"t":109.845,"note":53,"dur":0.069,"vel":1.0,"inst":"violin_v1_additive_535","midi_source":""},{"t":109.845,"note":58,"dur":0.069,"vel":1.0,"inst":"cello_v0_plucked_113","midi_source":""},{"t":109.914,"note":49,"dur":0.069,"vel":1.0,"inst":"cello_v0_plucked_113","midi_source":""},{"t":109.914,"note":51,"dur":0.069,"vel":1.0,"inst":"synth_pluck_v0_blown_260","midi_source":""},{"t":109.914,"note":70,"dur":0.137,"vel":1.0,"inst":"cello_v0_plucked_113","midi_source":""},{"t":109.982,"note":53,"dur":0.069,"vel":1.0,"inst":"violin_v1_additive_535","midi_source":""},{"t":110.051,"note":46,"dur":0.069,"vel":1.0,"inst":"cello_v0_plucked_113","midi_source":""},{"t":110.051,"note":48,"dur":0.069,"vel":1.0,"inst":"synth_pluck_v0_blown_260","midi_source":""},{"t":110.051,"note":85,"dur":0.206,"vel":1.0,"inst":"cello_v0_plucked_113","midi_source":""},{"t":110.119,"note":49,"dur":0.069,"vel":1.0,"inst":"cello_v0_plucked_113","midi_source":""},{"t":110.188,"note":39,"dur":0.137,"vel":1.0,"inst":"synth_pluck_v0_blown_260","midi_source":""},{"t":110.256,"note":78,"dur":0.069,"vel":1.0,"inst":"synth_pluck_v0_blown_260","midi_source":""},{"t":110.256,"note":70,"dur":0.069,"vel":1.0,"inst":"cello_v0_plucked_113","midi_source":""},{"t":110.325,"note":42,"dur":0.137,"vel":1.0,"inst":"synth_pluck_v0_blown_260","midi_source":""},{"t":110.325,"note":82,"dur":0.069,"vel":1.0,"inst":"cello_v0_plucked_113","midi_source":""},{"t":110.393,"note":78,"dur":0.069,"vel":1.0,"inst":"synth_pluck_v0_blown_260","midi_source":""},{"t":110.462,"note":48,"dur":0.137,"vel":1.0,"inst":"synth_pluck_v0_blown_260","midi_source":""},{"t":110.462,"note":75,"dur":0.069,"vel":1.0,"inst":"synth_pluck_v0_blown_260","midi_source":""},{"t":110.53,"note":84,"dur":0.069,"vel":1.0,"inst":"synth_pluck_v0_blown_260","midi_source":""},{"t":110.599,"note":51,"dur":0.137,"vel":1.0,"inst":"synth_pluck_v0_blown_260","midi_source":""},{"t":110.599,"note":78,"dur":0.069,"vel":1.0,"inst":"synth_pluck_v0_blown_260","midi_source":""},{"t":110.599,"note":70,"dur":0.069,"vel":1.0,"inst":"cello_v0_plucked_113","midi_source":""},{"t":110.667,"note":82,"dur":0.069,"vel":1.0,"inst":"cello_v0_plucked_113","midi_source":""},{"t":110.736,"note":53,"dur":0.206,"vel":1.0,"inst":"violin_v1_additive_535","midi_source":""},{"t":110.736,"note":70,"dur":0.069,"vel":1.0,"inst":"cello_v0_plucked_113","midi_source":""},{"t":110.804,"note":75,"dur":0.069,"vel":1.0,"inst":"synth_pluck_v0_blown_260","midi_source":""},{"t":110.873,"note":77,"dur":0.137,"vel":1.0,"inst":"violin_v1_additive_535","midi_source":""},{"t":110.941,"note":70,"dur":0.069,"vel":1.0,"inst":"cello_v0_plucked_113","midi_source":""},{"t":110.941,"note":72,"dur":0.069,"vel":1.0,"inst":"synth_pluck_v0_blown_260","midi_source":""},{"t":111.01,"note":58,"dur":0.069,"vel":1.0,"inst":"cello_v0_plucked_113","midi_source":""},{"t":111.01,"note":70,"dur":0.069,"vel":1.0,"inst":"cello_v0_plucked_113","midi_source":""},{"t":111.078,"note":72,"dur":0.069,"vel":1.0,"inst":"synth_pluck_v0_blown_260","midi_source":""},{"t":111.147,"note":65,"dur":0.069,"vel":1.0,"inst":"violin_v1_additive_535","midi_source":""},{"t":111.147,"note":66,"dur":0.069,"vel":1.0,"inst":"synth_pluck_v0_blown_260","midi_source":""},{"t":111.147,"note":73,"dur":0.137,"vel":1.0,"inst":"cello_v0_plucked_113","midi_source":""},{"t":111.147,"note":70,"dur":0.137,"vel":1.0,"inst":"cello_v0_plucked_113","midi_source":""},{"t":111.215,"note":58,"dur":0.069,"vel":1.0,"inst":"cello_v0_plucked_113","midi_source":""},{"t":111.284,"note":58,"dur":0.069,"vel":1.0,"inst":"cello_v0_plucked_113","midi_source":""},{"t":111.284,"note":70,"dur":0.137,"vel":1.0,"inst":"cello_v0_plucked_113","midi_source":""},{"t":111.352,"note":61,"dur":0.069,"vel":1.0,"inst":"cello_v0_plucked_113","midi_source":""},{"t":111.421,"note":63,"dur":0.069,"vel":1.0,"inst":"synth_pluck_v0_blown_260","midi_source":""},{"t":111.421,"note":78,"dur":0.206,"vel":1.0,"inst":"synth_pluck_v0_blown_260","midi_source":""},{"t":111.489,"note":65,"dur":0.069,"vel":1.0,"inst":"violin_v1_additive_535","midi_source":""},{"t":111.558,"note":66,"dur":0.069,"vel":1.0,"inst":"synth_pluck_v0_blown_260","midi_source":""},{"t":111.626,"note":58,"dur":0.069,"vel":1.0,"inst":"cello_v0_plucked_113","midi_source":""},{"t":111.626,"note":85,"dur":0.069,"vel":1.0,"inst":"cello_v0_plucked_113","midi_source":""},{"t":111.695,"note":70,"dur":0.069,"vel":1.0,"inst":"cello_v0_plucked_113","midi_source":""},{"t":111.695,"note":85,"dur":0.069,"vel":1.0,"inst":"cello_v0_plucked_113","midi_source":""},{"t":111.763,"note":66,"dur":0.069,"vel":1.0,"inst":"synth_pluck_v0_blown_260","midi_source":""},{"t":111.763,"note":87,"dur":0.069,"vel":1.0,"inst":"synth_pluck_v0_blown_260","midi_source":""},{"t":111.832,"note":61,"dur":0.069,"vel":1.0,"inst":"cello_v0_plucked_113","midi_source":""},{"t":111.832,"note":82,"dur":0.137,"vel":1.0,"inst":"cello_v0_plucked_113","midi_source":""},{"t":111.9,"note":63,"dur":0.069,"vel":1.0,"inst":"synth_pluck_v0_blown_260","midi_source":""},{"t":111.969,"note":65,"dur":0.069,"vel":1.0,"inst":"violin_v1_additive_535","midi_source":""},{"t":111.969,"note":70,"dur":0.137,"vel":1.0,"inst":"cello_v0_plucked_113","midi_source":""},{"t":112.037,"note":66,"dur":0.069,"vel":1.0,"inst":"synth_pluck_v0_blown_260","midi_source":""},{"t":112.106,"note":58,"dur":0.069,"vel":1.0,"inst":"cello_v0_plucked_113","midi_source":""},{"t":112.174,"note":70,"dur":0.069,"vel":1.0,"inst":"cello_v0_plucked_113","midi_source":""},{"t":112.174,"note":85,"dur":0.069,"vel":1.0,"inst":"cello_v0_plucked_113","midi_source":""},{"t":112.243,"note":73,"dur":0.069,"vel":1.0,"inst":"cello_v0_plucked_113","midi_source":""},{"t":112.243,"note":87,"dur":0.069,"vel":1.0,"inst":"synth_pluck_v0_blown_260","midi_source":""},{"t":112.311,"note":58,"dur":0.069,"vel":1.0,"inst":"cello_v0_plucked_113","midi_source":""},{"t":112.311,"note":89,"dur":0.069,"vel":1.0,"inst":"violin_v1_additive_535","midi_source":""},{"t":112.38,"note":61,"dur":0.069,"vel":1.0,"inst":"cello_v0_plucked_113","midi_source":""},{"t":112.38,"note":84,"dur":0.137,"vel":1.0,"inst":"synth_pluck_v0_blown_260","midi_source":""},{"t":112.448,"note":65,"dur":0.069,"vel":1.0,"inst":"violin_v1_additive_535","midi_source":""},{"t":112.517,"note":66,"dur":0.069,"vel":1.0,"inst":"synth_pluck_v0_blown_260","midi_source":""},{"t":112.517,"note":82,"dur":0.206,"vel":1.0,"inst":"cello_v0_plucked_113","midi_source":""},{"t":112.585,"note":58,"dur":0.069,"vel":1.0,"inst":"cello_v0_plucked_113","midi_source":""},{"t":112.654,"note":70,"dur":0.069,"vel":1.0,"inst":"cello_v0_plucked_113","midi_source":""},{"t":112.722,"note":73,"dur":0.069,"vel":1.0,"inst":"cello_v0_plucked_113","midi_source":""},{"t":112.722,"note":87,"dur":0.069,"vel":1.0,"inst":"synth_pluck_v0_blown_260","midi_source":""},{"t":112.791,"note":73,"dur":0.069,"vel":1.0,"inst":"cello_v0_plucked_113","midi_source":""},{"t":112.791,"note":89,"dur":0.069,"vel":1.0,"inst":"violin_v1_additive_535","midi_source":""},{"t":112.859,"note":70,"dur":0.069,"vel":1.0,"inst":"cello_v0_plucked_113","midi_source":""},{"t":112.859,"note":90,"dur":0.069,"vel":1.0,"inst":"synth_pluck_v0_blown_260","midi_source":""},{"t":112.928,"note":63,"dur":0.069,"vel":1.0,"inst":"synth_pluck_v0_blown_260","midi_source":""},{"t":112.928,"note":85,"dur":0.137,"vel":1.0,"inst":"cello_v0_plucked_113","midi_source":""},{"t":112.996,"note":66,"dur":0.069,"vel":1.0,"inst":"synth_pluck_v0_blown_260","midi_source":""},{"t":113.065,"note":58,"dur":0.069,"vel":1.0,"inst":"cello_v0_plucked_113","midi_source":""},{"t":113.065,"note":85,"dur":0.137,"vel":1.0,"inst":"cello_v0_plucked_113","midi_source":""},{"t":113.133,"note":70,"dur":0.069,"vel":1.0,"inst":"cello_v0_plucked_113","midi_source":""},{"t":113.202,"note":58,"dur":0.069,"vel":1.0,"inst":"cello_v0_plucked_113","midi_source":""},{"t":113.27,"note":66,"dur":0.069,"vel":1.0,"inst":"synth_pluck_v0_blown_260","midi_source":""},{"t":113.27,"note":82,"dur":0.069,"vel":1.0,"inst":"cello_v0_plucked_113","midi_source":""},{"t":113.339,"note":65,"dur":0.069,"vel":1.0,"inst":"violin_v1_additive_535","midi_source":""},{"t":113.339,"note":70,"dur":0.069,"vel":1.0,"inst":"cello_v0_plucked_113","midi_source":""},{"t":113.407,"note":63,"dur":0.069,"vel":1.0,"inst":"synth_pluck_v0_blown_260","midi_source":""},{"t":113.407,"note":78,"dur":0.069,"vel":1.0,"inst":"synth_pluck_v0_blown_260","midi_source":""},{"t":113.476,"note":65,"dur":0.069,"vel":1.0,"inst":"violin_v1_additive_535","midi_source":""},{"t":113.476,"note":70,"dur":0.069,"vel":1.0,"inst":"cello_v0_plucked_113","midi_source":""},{"t":113.544,"note":66,"dur":0.069,"vel":1.0,"inst":"synth_pluck_v0_blown_260","midi_source":""},{"t":113.544,"note":75,"dur":0.069,"vel":1.0,"inst":"synth_pluck_v0_blown_260","midi_source":""},{"t":113.613,"note":58,"dur":0.069,"vel":1.0,"inst":"cello_v0_plucked_113","midi_source":""},{"t":113.613,"note":77,"dur":0.069,"vel":1.0,"inst":"violin_v1_additive_535","midi_source":""},{"t":113.681,"note":63,"dur":0.069,"vel":1.0,"inst":"synth_pluck_v0_blown_260","midi_source":""},{"t":113.681,"note":73,"dur":0.069,"vel":1.0,"inst":"cello_v0_plucked_113","midi_source":""},{"t":113.75,"note":65,"dur":0.069,"vel":1.0,"inst":"violin_v1_additive_535","midi_source":""},{"t":113.75,"note":73,"dur":0.069,"vel":1.0,"inst":"cello_v0_plucked_113","midi_source":""},{"t":113.818,"note":70,"dur":0.069,"vel":1.0,"inst":"cello_v0_plucked_113","midi_source":""},{"t":113.818,"note":78,"dur":0.069,"vel":1.0,"inst":"synth_pluck_v0_blown_260","midi_source":""},{"t":113.887,"note":58,"dur":0.069,"vel":1.0,"inst":"cello_v0_plucked_113","midi_source":""},{"t":113.887,"note":77,"dur":0.069,"vel":1.0,"inst":"violin_v1_additive_535","midi_source":""},{"t":113.955,"note":66,"dur":0.069,"vel":1.0,"inst":"synth_pluck_v0_blown_260","midi_source":""},{"t":113.955,"note":75,"dur":0.069,"vel":1.0,"inst":"synth_pluck_v0_blown_260","midi_source":""},{"t":114.024,"note":58,"dur":0.069,"vel":1.0,"inst":"cello_v0_plucked_113","midi_source":""},{"t":114.024,"note":77,"dur":0.069,"vel":1.0,"inst":"violin_v1_additive_535","midi_source":""},{"t":114.092,"note":63,"dur":0.069,"vel":1.0,"inst":"synth_pluck_v0_blown_260","midi_source":""},{"t":114.092,"note":73,"dur":0.069,"vel":1.0,"inst":"cello_v0_plucked_113","midi_source":""},{"t":114.161,"note":65,"dur":0.069,"vel":1.0,"inst":"violin_v1_additive_535","midi_source":""},{"t":114.161,"note":73,"dur":0.069,"vel":1.0,"inst":"cello_v0_plucked_113","midi_source":""},{"t":114.229,"note":60,"dur":0.069,"vel":1.0,"inst":"synth_pluck_v0_blown_260","midi_source":""},{"t":114.229,"note":58,"dur":0.069,"vel":1.0,"inst":"cello_v0_plucked_113","midi_source":""},{"t":114.298,"note":61,"dur":0.069,"vel":1.0,"inst":"cello_v0_plucked_113","midi_source":""},{"t":114.298,"note":70,"dur":0.069,"vel":1.0,"inst":"cello_v0_plucked_113","midi_source":""},{"t":114.366,"note":66,"dur":0.069,"vel":1.0,"inst":"synth_pluck_v0_blown_260","midi_source":""},{"t":114.366,"note":75,"dur":0.069,"vel":1.0,"inst":"synth_pluck_v0_blown_260","midi_source":""},{"t":114.435,"note":65,"dur":0.069,"vel":1.0,"inst":"violin_v1_additive_535","midi_source":""},{"t":114.435,"note":73,"dur":0.069,"vel":1.0,"inst":"cello_v0_plucked_113","midi_source":""},{"t":114.503,"note":63,"dur":0.069,"vel":1.0,"inst":"synth_pluck_v0_blown_260","midi_source":""},{"t":114.503,"note":73,"dur":0.069,"vel":1.0,"inst":"cello_v0_plucked_113","midi_source":""},{"t":114.572,"note":65,"dur":0.069,"vel":1.0,"inst":"violin_v1_additive_535","midi_source":""},{"t":114.572,"note":73,"dur":0.069,"vel":1.0,"inst":"cello_v0_plucked_113","midi_source":""},{"t":114.64,"note":61,"dur":0.069,"vel":1.0,"inst":"cello_v0_plucked_113","midi_source":""},{"t":114.64,"note":58,"dur":0.069,"vel":1.0,"inst":"cello_v0_plucked_113","midi_source":""},{"t":114.709,"note":61,"dur":0.069,"vel":1.0,"inst":"cello_v0_plucked_113","midi_source":""},{"t":114.709,"note":70,"dur":0.069,"vel":1.0,"inst":"cello_v0_plucked_113","midi_source":""},{"t":114.777,"note":46,"dur":0.069,"vel":1.0,"inst":"cello_v0_plucked_113","midi_source":""},{"t":114.777,"note":66,"dur":0.069,"vel":1.0,"inst":"synth_pluck_v0_blown_260","midi_source":""},{"t":114.846,"note":58,"dur":0.069,"vel":1.0,"inst":"cello_v0_plucked_113","midi_source":""},{"t":114.846,"note":60,"dur":0.069,"vel":1.0,"inst":"synth_pluck_v0_blown_260","midi_source":""},{"t":114.846,"note":66,"dur":0.069,"vel":1.0,"inst":"synth_pluck_v0_blown_260","midi_source":""},{"t":114.914,"note":61,"dur":0.069,"vel":1.0,"inst":"cello_v0_plucked_113","midi_source":""},{"t":114.914,"note":72,"dur":0.069,"vel":1.0,"inst":"synth_pluck_v0_blown_260","midi_source":""},{"t":114.983,"note":54,"dur":0.069,"vel":1.0,"inst":"synth_pluck_v0_blown_260","midi_source":""},{"t":114.983,"note":46,"dur":0.069,"vel":1.0,"inst":"cello_v0_plucked_113","midi_source":""},{"t":114.983,"note":70,"dur":0.069,"vel":1.0,"inst":"cello_v0_plucked_113","midi_source":""},{"t":115.051,"note":58,"dur":0.069,"vel":1.0,"inst":"cello_v0_plucked_113","midi_source":""},{"t":115.051,"note":58,"dur":0.069,"vel":1.0,"inst":"cello_v0_plucked_113","midi_source":""},{"t":115.12,"note":49,"dur":0.274,"vel":1.0,"inst":"cello_v0_plucked_113","midi_source":""},{"t":115.12,"note":70,"dur":0.069,"vel":1.0,"inst":"cello_v0_plucked_113","midi_source":""},{"t":115.188,"note":66,"dur":0.069,"vel":1.0,"inst":"synth_pluck_v0_blown_260","midi_source":""},{"t":115.257,"note":58,"dur":0.069,"vel":1.0,"inst":"cello_v0_plucked_113","midi_source":""},{"t":115.325,"note":73,"dur":0.069,"vel":1.0,"inst":"cello_v0_plucked_113","midi_source":""},{"t":115.394,"note":75,"dur":0.069,"vel":1.0,"inst":"synth_pluck_v0_blown_260","midi_source":""},{"t":115.462,"note":70,"dur":0.069,"vel":1.0,"inst":"cello_v0_plucked_113","midi_source":""},{"t":115.531,"note":34,"dur":0.137,"vel":1.0,"inst":"cello_v0_plucked_113","midi_source":""},{"t":115.531,"note":58,"dur":0.069,"vel":1.0,"inst":"cello_v0_plucked_113","midi_source":""},{"t":115.599,"note":66,"dur":0.069,"vel":1.0,"inst":"synth_pluck_v0_blown_260","midi_source":""},{"t":115.668,"note":49,"dur":0.137,"vel":1.0,"inst":"cello_v0_plucked_113","midi_source":""},{"t":115.668,"note":65,"dur":0.069,"vel":1.0,"inst":"violin_v1_additive_535","midi_source":""},{"t":115.736,"note":58,"dur":0.069,"vel":1.0,"inst":"cello_v0_plucked_113","midi_source":""},{"t":115.805,"note":65,"dur":0.137,"vel":1.0,"inst":"violin_v1_additive_535","midi_source":""},{"t":115.805,"note":73,"dur":0.069,"vel":1.0,"inst":"cello_v0_plucked_113","midi_source":""},{"t":115.873,"note":77,"dur":0.137,"vel":1.0,"inst":"violin_v1_additive_535","midi_source":""},{"t":115.942,"note":58,"dur":0.137,"vel":1.0,"inst":"cello_v0_plucked_113","midi_source":""},{"t":116.01,"note":73,"dur":0.069,"vel":1.0,"inst":"cello_v0_plucked_113","midi_source":""},{"t":116.079,"note":46,"dur":0.137,"vel":1.0,"inst":"cello_v0_plucked_113","midi_source":""},{"t":116.079,"note":73,"dur":0.069,"vel":1.0,"inst":"cello_v0_plucked_113","midi_source":""},{"t":116.147,"note":65,"dur":0.069,"vel":1.0,"inst":"violin_v1_additive_535","midi_source":""},{"t":116.216,"note":51,"dur":0.137,"vel":1.0,"inst":"synth_pluck_v0_blown_260","midi_source":""},{"t":116.216,"note":66,"dur":0.069,"vel":1.0,"inst":"synth_pluck_v0_blown_260","midi_source":""},{"t":116.284,"note":70,"dur":0.069,"vel":1.0,"inst":"cello_v0_plucked_113","midi_source":""},{"t":116.353,"note":66,"dur":0.137,"vel":1.0,"inst":"synth_pluck_v0_blown_260","midi_source":""},{"t":116.353,"note":73,"dur":0.069,"vel":1.0,"inst":"cello_v0_plucked_113","midi_source":""},{"t":116.421,"note":77,"dur":0.069,"vel":1.0,"inst":"violin_v1_additive_535","midi_source":""},{"t":116.49,"note":58,"dur":0.137,"vel":1.0,"inst":"cello_v0_plucked_113","midi_source":""},{"t":116.558,"note":73,"dur":0.069,"vel":1.0,"inst":"cello_v0_plucked_113","midi_source":""},{"t":116.627,"note":46,"dur":0.137,"vel":1.0,"inst":"cello_v0_plucked_113","midi_source":""},{"t":116.627,"note":73,"dur":0.069,"vel":1.0,"inst":"cello_v0_plucked_113","midi_source":""},{"t":116.695,"note":66,"dur":0.069,"vel":1.0,"inst":"synth_pluck_v0_blown_260","midi_source":""},{"t":116.764,"note":53,"dur":0.137,"vel":1.0,"inst":"violin_v1_additive_535","midi_source":""},{"t":116.764,"note":58,"dur":0.069,"vel":1.0,"inst":"cello_v0_plucked_113","midi_source":""},{"t":116.832,"note":73,"dur":0.069,"vel":1.0,"inst":"cello_v0_plucked_113","midi_source":""},{"t":116.901,"note":58,"dur":0.137,"vel":1.0,"inst":"cello_v0_plucked_113","midi_source":""},{"t":116.901,"note":73,"dur":0.069,"vel":1.0,"inst":"cello_v0_plucked_113","midi_source":""},{"t":116.969,"note":61,"dur":0.069,"vel":1.0,"inst":"cello_v0_plucked_113","midi_source":""},{"t":116.969,"note":70,"dur":0.069,"vel":1.0,"inst":"cello_v0_plucked_113","midi_source":""},{"t":117.038,"note":63,"dur":0.137,"vel":1.0,"inst":"synth_pluck_v0_blown_260","midi_source":""},{"t":117.038,"note":72,"dur":0.069,"vel":1.0,"inst":"synth_pluck_v0_blown_260","midi_source":""},{"t":117.106,"note":82,"dur":0.069,"vel":1.0,"inst":"cello_v0_plucked_113","midi_source":""},{"t":117.175,"note":60,"dur":0.137,"vel":1.0,"inst":"synth_pluck_v0_blown_260","midi_source":""},{"t":117.175,"note":70,"dur":0.069,"vel":1.0,"inst":"cello_v0_plucked_113","midi_source":""},{"t":117.243,"note":78,"dur":0.069,"vel":1.0,"inst":"synth_pluck_v0_blown_260","midi_source":""},{"t":117.312,"note":61,"dur":0.137,"vel":1.0,"inst":"cello_v0_plucked_113","midi_source":""},{"t":117.312,"note":78,"dur":0.206,"vel":1.0,"inst":"synth_pluck_v0_blown_260","midi_source":""},{"t":117.449,"note":49,"dur":0.137,"vel":1.0,"inst":"cello_v0_plucked_113","midi_source":""},{"t":117.517,"note":75,"dur":0.069,"vel":1.0,"inst":"synth_pluck_v0_blown_260","midi_source":""},{"t":117.586,"note":73,"dur":0.137,"vel":1.0,"inst":"cello_v0_plucked_113","midi_source":""},{"t":117.654,"note":60,"dur":0.069,"vel":1.0,"inst":"synth_pluck_v0_blown_260","midi_source":""},{"t":117.723,"note":58,"dur":0.069,"vel":1.0,"inst":"cello_v0_plucked_113","midi_source":""},{"t":117.723,"note":78,"dur":0.137,"vel":1.0,"inst":"synth_pluck_v0_blown_260","midi_source":""},{"t":117.791,"note":46,"dur":0.069,"vel":1.0,"inst":"cello_v0_plucked_113","midi_source":""},{"t":117.86,"note":58,"dur":0.069,"vel":1.0,"inst":"cello_v0_plucked_113","midi_source":""},{"t":117.86,"note":78,"dur":0.069,"vel":1.0,"inst":"synth_pluck_v0_blown_260","midi_source":""},{"t":117.928,"note":53,"dur":0.069,"vel":1.0,"inst":"violin_v1_additive_535","midi_source":""},{"t":117.928,"note":70,"dur":0.069,"vel":1.0,"inst":"cello_v0_plucked_113","midi_source":""},{"t":117.997,"note":54,"dur":0.069,"vel":1.0,"inst":"synth_pluck_v0_blown_260","midi_source":""},{"t":117.997,"note":82,"dur":0.137,"vel":1.0,"inst":"cello_v0_plucked_113","midi_source":""},{"t":118.065,"note":49,"dur":0.069,"vel":1.0,"inst":"cello_v0_plucked_113","midi_source":""},{"t":118.134,"note":51,"dur":0.069,"vel":1.0,"inst":"synth_pluck_v0_blown_260","midi_source":""},{"t":118.134,"note":72,"dur":0.069,"vel":1.0,"inst":"synth_pluck_v0_blown_260","midi_source":""},{"t":118.202,"note":61,"dur":0.069,"vel":1.0,"inst":"cello_v0_plucked_113","midi_source":""},{"t":118.202,"note":82,"dur":0.069,"vel":1.0,"inst":"cello_v0_plucked_113","midi_source":""},{"t":118.271,"note":60,"dur":0.069,"vel":1.0,"inst":"synth_pluck_v0_blown_260","midi_source":""},{"t":118.271,"note":70,"dur":0.069,"vel":1.0,"inst":"cello_v0_plucked_113","midi_source":""},{"t":118.339,"note":58,"dur":0.069,"vel":1.0,"inst":"cello_v0_plucked_113","midi_source":""},{"t":118.339,"note":78,"dur":0.069,"vel":1.0,"inst":"synth_pluck_v0_blown_260","midi_source":""},{"t":118.408,"note":60,"dur":0.069,"vel":1.0,"inst":"synth_pluck_v0_blown_260","midi_source":""},{"t":118.408,"note":70,"dur":0.069,"vel":1.0,"inst":"cello_v0_plucked_113","midi_source":""},{"t":118.476,"note":54,"dur":0.069,"vel":1.0,"inst":"synth_pluck_v0_blown_260","midi_source":""},{"t":118.476,"note":82,"dur":0.069,"vel":1.0,"inst":"cello_v0_plucked_113","midi_source":""},{"t":118.545,"note":46,"dur":0.069,"vel":1.0,"inst":"cello_v0_plucked_113","midi_source":""},{"t":118.545,"note":84,"dur":0.137,"vel":1.0,"inst":"synth_pluck_v0_blown_260","midi_source":""},{"t":118.613,"note":51,"dur":0.069,"vel":1.0,"inst":"synth_pluck_v0_blown_260","midi_source":""},{"t":118.682,"note":54,"dur":0.069,"vel":1.0,"inst":"synth_pluck_v0_blown_260","midi_source":""},{"t":118.682,"note":73,"dur":0.069,"vel":1.0,"inst":"cello_v0_plucked_113","midi_source":""},{"t":118.75,"note":63,"dur":0.069,"vel":1.0,"inst":"synth_pluck_v0_blown_260","midi_source":""},{"t":118.75,"note":84,"dur":0.069,"vel":1.0,"inst":"synth_pluck_v0_blown_260","midi_source":""},{"t":118.819,"note":61,"dur":0.069,"vel":1.0,"inst":"cello_v0_plucked_113","midi_source":""},{"t":118.819,"note":82,"dur":0.069,"vel":1.0,"inst":"cello_v0_plucked_113","midi_source":""},{"t":118.887,"note":60,"dur":0.069,"vel":1.0,"inst":"synth_pluck_v0_blown_260","midi_source":""},{"t":118.887,"note":70,"dur":0.069,"vel":1.0,"inst":"cello_v0_plucked_113","midi_source":""},{"t":118.956,"note":61,"dur":0.069,"vel":1.0,"inst":"cello_v0_plucked_113","midi_source":""},{"t":118.956,"note":82,"dur":0.069,"vel":1.0,"inst":"cello_v0_plucked_113","midi_source":""},{"t":119.024,"note":46,"dur":0.069,"vel":1.0,"inst":"cello_v0_plucked_113","midi_source":""},{"t":119.024,"note":84,"dur":0.069,"vel":1.0,"inst":"synth_pluck_v0_blown_260","midi_source":""},{"t":119.093,"note":58,"dur":0.069,"vel":1.0,"inst":"cello_v0_plucked_113","midi_source":""},{"t":119.093,"note":85,"dur":0.137,"vel":1.0,"inst":"cello_v0_plucked_113","midi_source":""},{"t":119.162,"note":54,"dur":0.069,"vel":1.0,"inst":"synth_pluck_v0_blown_260","midi_source":""},{"t":119.23,"note":54,"dur":0.069,"vel":1.0,"inst":"synth_pluck_v0_blown_260","midi_source":""},{"t":119.23,"note":75,"dur":0.069,"vel":1.0,"inst":"synth_pluck_v0_blown_260","midi_source":""},{"t":119.299,"note":65,"dur":0.069,"vel":1.0,"inst":"violin_v1_additive_535","midi_source":""},{"t":119.299,"note":85,"dur":0.069,"vel":1.0,"inst":"cello_v0_plucked_113","midi_source":""},{"t":119.367,"note":63,"dur":0.069,"vel":1.0,"inst":"synth_pluck_v0_blown_260","midi_source":""},{"t":119.367,"note":84,"dur":0.069,"vel":1.0,"inst":"synth_pluck_v0_blown_260","midi_source":""},{"t":119.436,"note":61,"dur":0.069,"vel":1.0,"inst":"cello_v0_plucked_113","midi_source":""},{"t":119.436,"note":82,"dur":0.069,"vel":1.0,"inst":"cello_v0_plucked_113","midi_source":""},{"t":119.504,"note":63,"dur":0.069,"vel":1.0,"inst":"synth_pluck_v0_blown_260","midi_source":""},{"t":119.504,"note":84,"dur":0.069,"vel":1.0,"inst":"synth_pluck_v0_blown_260","midi_source":""},{"t":119.573,"note":58,"dur":0.069,"vel":1.0,"inst":"cello_v0_plucked_113","midi_source":""},{"t":119.573,"note":85,"dur":0.069,"vel":1.0,"inst":"cello_v0_plucked_113","midi_source":""},{"t":119.641,"note":60,"dur":0.069,"vel":1.0,"inst":"synth_pluck_v0_blown_260","midi_source":""},{"t":119.641,"note":87,"dur":0.137,"vel":1.0,"inst":"synth_pluck_v0_blown_260","midi_source":""},{"t":119.71,"note":54,"dur":0.069,"vel":1.0,"inst":"synth_pluck_v0_blown_260","midi_source":""},{"t":119.778,"note":46,"dur":0.137,"vel":1.0,"inst":"cello_v0_plucked_113","midi_source":""},{"t":119.778,"note":78,"dur":0.069,"vel":1.0,"inst":"synth_pluck_v0_blown_260","midi_source":""},{"t":119.847,"note":87,"dur":0.069,"vel":1.0,"inst":"synth_pluck_v0_blown_260","midi_source":""},{"t":119.915,"note":66,"dur":0.137,"vel":1.0,"inst":"synth_pluck_v0_blown_260","midi_source":""},{"t":119.915,"note":85,"dur":0.069,"vel":1.0,"inst":"cello_v0_plucked_113","midi_source":""},{"t":119.984,"note":84,"dur":0.069,"vel":1.0,"inst":"synth_pluck_v0_blown_260","midi_source":""},{"t":120.052,"note":66,"dur":0.137,"vel":1.0,"inst":"synth_pluck_v0_blown_260","midi_source":""},{"t":120.052,"note":82,"dur":0.069,"vel":1.0,"inst":"cello_v0_plucked_113","midi_source":""},{"t":120.121,"note":78,"dur":0.069,"vel":1.0,"inst":"synth_pluck_v0_blown_260","midi_source":""},{"t":120.189,"note":70,"dur":0.137,"vel":1.0,"inst":"cello_v0_plucked_113","midi_source":""},{"t":120.189,"note":78,"dur":0.069,"vel":1.0,"inst":"synth_pluck_v0_blown_260","midi_source":""},{"t":120.258,"note":73,"dur":0.069,"vel":1.0,"inst":"cello_v0_plucked_113","midi_source":""},{"t":120.326,"note":60,"dur":0.137,"vel":1.0,"inst":"synth_pluck_v0_blown_260","midi_source":""},{"t":120.326,"note":75,"dur":0.069,"vel":1.0,"inst":"synth_pluck_v0_blown_260","midi_source":""},{"t":120.395,"note":70,"dur":0.069,"vel":1.0,"inst":"cello_v0_plucked_113","midi_source":""},{"t":120.463,"note":63,"dur":0.137,"vel":1.0,"inst":"synth_pluck_v0_blown_260","midi_source":""},{"t":120.463,"note":72,"dur":0.069,"vel":1.0,"inst":"synth_pluck_v0_blown_260","midi_source":""},{"t":120.532,"note":78,"dur":0.069,"vel":1.0,"inst":"synth_pluck_v0_blown_260","midi_source":""},{"t":120.6,"note":54,"dur":0.137,"vel":1.0,"inst":"synth_pluck_v0_blown_260","midi_source":""},{"t":120.6,"note":70,"dur":0.069,"vel":1.0,"inst":"cello_v0_plucked_113","midi_source":""},{"t":120.669,"note":73,"dur":0.069,"vel":1.0,"inst":"cello_v0_plucked_113","midi_source":""},{"t":120.737,"note":46,"dur":0.137,"vel":1.0,"inst":"cello_v0_plucked_113","midi_source":""},{"t":120.737,"note":75,"dur":0.069,"vel":1.0,"inst":"synth_pluck_v0_blown_260","midi_source":""},{"t":120.806,"note":72,"dur":0.069,"vel":1.0,"inst":"synth_pluck_v0_blown_260","midi_source":""},{"t":120.874,"note":48,"dur":0.137,"vel":1.0,"inst":"synth_pluck_v0_blown_260","midi_source":""},{"t":120.874,"note":73,"dur":0.069,"vel":1.0,"inst":"cello_v0_plucked_113","midi_source":""},{"t":120.943,"note":58,"dur":0.069,"vel":1.0,"inst":"cello_v0_plucked_113","midi_source":""},{"t":121.011,"note":49,"dur":0.137,"vel":1.0,"inst":"cello_v0_plucked_113","midi_source":""},{"t":121.011,"note":70,"dur":0.069,"vel":1.0,"inst":"cello_v0_plucked_113","midi_source":""},{"t":121.08,"note":78,"dur":0.069,"vel":1.0,"inst":"synth_pluck_v0_blown_260","midi_source":""},{"t":121.148,"note":51,"dur":0.137,"vel":1.0,"inst":"synth_pluck_v0_blown_260","midi_source":""},{"t":121.148,"note":78,"dur":0.069,"vel":1.0,"inst":"synth_pluck_v0_blown_260","midi_source":""},{"t":121.217,"note":72,"dur":0.069,"vel":1.0,"inst":"synth_pluck_v0_blown_260","midi_source":""},{"t":121.217,"note":73,"dur":0.069,"vel":1.0,"inst":"cello_v0_plucked_113","midi_source":""},{"t":121.285,"note":48,"dur":0.137,"vel":1.0,"inst":"synth_pluck_v0_blown_260","midi_source":""},{"t":121.285,"note":75,"dur":0.069,"vel":1.0,"inst":"synth_pluck_v0_blown_260","midi_source":""},{"t":121.354,"note":72,"dur":0.069,"vel":1.0,"inst":"synth_pluck_v0_blown_260","midi_source":""},{"t":121.422,"note":49,"dur":0.137,"vel":1.0,"inst":"cello_v0_plucked_113","midi_source":""},{"t":121.422,"note":58,"dur":0.069,"vel":1.0,"inst":"cello_v0_plucked_113","midi_source":""},{"t":121.491,"note":72,"dur":0.069,"vel":1.0,"inst":"synth_pluck_v0_blown_260","midi_source":""},{"t":121.559,"note":61,"dur":0.137,"vel":1.0,"inst":"cello_v0_plucked_113","midi_source":""},{"t":121.559,"note":78,"dur":0.069,"vel":1.0,"inst":"synth_pluck_v0_blown_260","midi_source":""},{"t":121.628,"note":78,"dur":0.069,"vel":1.0,"inst":"synth_pluck_v0_blown_260","midi_source":""},{"t":121.696,"note":54,"dur":0.137,"vel":1.0,"inst":"synth_pluck_v0_blown_260","midi_source":""},{"t":121.696,"note":78,"dur":0.069,"vel":1.0,"inst":"synth_pluck_v0_blown_260","midi_source":""},{"t":121.765,"note":72,"dur":0.069,"vel":1.0,"inst":"synth_pluck_v0_blown_260","midi_source":""},{"t":121.833,"note":61,"dur":0.137,"vel":1.0,"inst":"cello_v0_plucked_113","midi_source":""},{"t":121.833,"note":70,"dur":0.069,"vel":1.0,"inst":"cello_v0_plucked_113","midi_source":""},{"t":121.902,"note":58,"dur":0.069,"vel":1.0,"inst":"cello_v0_plucked_113","midi_source":""},{"t":121.97,"note":66,"dur":0.137,"vel":1.0,"inst":"synth_pluck_v0_blown_260","midi_source":""},{"t":121.97,"note":70,"dur":0.069,"vel":1.0,"inst":"cello_v0_plucked_113","midi_source":""},{"t":122.039,"note":78,"dur":0.069,"vel":1.0,"inst":"synth_pluck_v0_blown_260","midi_source":""},{"t":122.107,"note":58,"dur":0.137,"vel":1.0,"inst":"cello_v0_plucked_113","midi_source":""},{"t":122.107,"note":77,"dur":0.069,"vel":1.0,"inst":"violin_v1_additive_535","midi_source":""},{"t":122.176,"note":75,"dur":0.069,"vel":1.0,"inst":"synth_pluck_v0_blown_260","midi_source":""},{"t":122.244,"note":66,"dur":0.206,"vel":1.0,"inst":"synth_pluck_v0_blown_260","midi_source":""},{"t":122.244,"note":73,"dur":0.069,"vel":1.0,"inst":"cello_v0_plucked_113","midi_source":""},{"t":122.313,"note":78,"dur":0.069,"vel":1.0,"inst":"synth_pluck_v0_blown_260","midi_source":""},{"t":122.313,"note":70,"dur":0.069,"vel":1.0,"inst":"cello_v0_plucked_113","midi_source":""},{"t":122.381,"note":82,"dur":0.069,"vel":1.0,"inst":"cello_v0_plucked_113","midi_source":""},{"t":122.45,"note":60,"dur":0.069,"vel":1.0,"inst":"synth_pluck_v0_blown_260","midi_source":""},{"t":122.45,"note":61,"dur":0.069,"vel":1.0,"inst":"cello_v0_plucked_113","midi_source":""},{"t":122.45,"note":78,"dur":0.069,"vel":1.0,"inst":"synth_pluck_v0_blown_260","midi_source":""},{"t":122.518,"note":58,"dur":0.069,"vel":1.0,"inst":"cello_v0_plucked_113","midi_source":""},{"t":122.518,"note":60,"dur":0.069,"vel":1.0,"inst":"synth_pluck_v0_blown_260","midi_source":""},{"t":122.518,"note":73,"dur":0.137,"vel":1.0,"inst":"cello_v0_plucked_113","midi_source":""},{"t":122.587,"note":61,"dur":0.069,"vel":1.0,"inst":"cello_v0_plucked_113","midi_source":""},{"t":122.655,"note":54,"dur":0.069,"vel":1.0,"inst":"synth_pluck_v0_blown_260","midi_source":""},{"t":122.655,"note":46,"dur":0.069,"vel":1.0,"inst":"cello_v0_plucked_113","midi_source":""},{"t":122.655,"note":75,"dur":0.137,"vel":1.0,"inst":"synth_pluck_v0_blown_260","midi_source":""},{"t":122.724,"note":58,"dur":0.069,"vel":1.0,"inst":"cello_v0_plucked_113","midi_source":""},{"t":122.792,"note":49,"dur":0.206,"vel":1.0,"inst":"cello_v0_plucked_113","midi_source":""},{"t":122.792,"note":77,"dur":0.069,"vel":1.0,"inst":"violin_v1_additive_535","midi_source":""},{"t":122.861,"note":72,"dur":0.069,"vel":1.0,"inst":"synth_pluck_v0_blown_260","midi_source":""},{"t":122.929,"note":73,"dur":0.069,"vel":1.0,"inst":"cello_v0_plucked_113","midi_source":""},{"t":122.998,"note":51,"dur":0.069,"vel":1.0,"inst":"synth_pluck_v0_blown_260","midi_source":""},{"t":122.998,"note":53,"dur":0.069,"vel":1.0,"inst":"violin_v1_additive_535","midi_source":""},{"t":122.998,"note":58,"dur":0.069,"vel":1.0,"inst":"cello_v0_plucked_113","midi_source":""},{"t":123.066,"note":49,"dur":0.069,"vel":1.0,"inst":"cello_v0_plucked_113","midi_source":""},{"t":123.066,"note":51,"dur":0.069,"vel":1.0,"inst":"synth_pluck_v0_blown_260","midi_source":""},{"t":123.066,"note":70,"dur":0.137,"vel":1.0,"inst":"cello_v0_plucked_113","midi_source":""},{"t":123.135,"note":53,"dur":0.069,"vel":1.0,"inst":"violin_v1_additive_535","midi_source":""},{"t":123.203,"note":46,"dur":0.069,"vel":1.0,"inst":"cello_v0_plucked_113","midi_source":""},{"t":123.203,"note":48,"dur":0.069,"vel":1.0,"inst":"synth_pluck_v0_blown_260","midi_source":""},{"t":123.203,"note":85,"dur":0.206,"vel":1.0,"inst":"cello_v0_plucked_113","midi_source":""},{"t":123.272,"note":49,"dur":0.069,"vel":1.0,"inst":"cello_v0_plucked_113","midi_source":""},{"t":123.34,"note":39,"dur":0.137,"vel":1.0,"inst":"synth_pluck_v0_blown_260","midi_source":""},{"t":123.409,"note":78,"dur":0.069,"vel":1.0,"inst":"synth_pluck_v0_blown_260","midi_source":""},{"t":123.409,"note":70,"dur":0.069,"vel":1.0,"inst":"cello_v0_plucked_113","midi_source":""},{"t":123.477,"note":42,"dur":0.137,"vel":1.0,"inst":"synth_pluck_v0_blown_260","midi_source":""},{"t":123.477,"note":82,"dur":0.069,"vel":1.0,"inst":"cello_v0_plucked_113","midi_source":""},{"t":123.546,"note":78,"dur":0.069,"vel":1.0,"inst":"synth_pluck_v0_blown_260","midi_source":""},{"t":123.614,"note":48,"dur":0.137,"vel":1.0,"inst":"synth_pluck_v0_blown_260","midi_source":""},{"t":123.614,"note":75,"dur":0.069,"vel":1.0,"inst":"synth_pluck_v0_blown_260","midi_source":""},{"t":123.683,"note":84,"dur":0.069,"vel":1.0,"inst":"synth_pluck_v0_blown_260","midi_source":""},{"t":123.751,"note":51,"dur":0.137,"vel":1.0,"inst":"synth_pluck_v0_blown_260","midi_source":""},{"t":123.751,"note":78,"dur":0.069,"vel":1.0,"inst":"synth_pluck_v0_blown_260","midi_source":""},{"t":123.751,"note":70,"dur":0.069,"vel":1.0,"inst":"cello_v0_plucked_113","midi_source":""},{"t":123.82,"note":82,"dur":0.069,"vel":1.0,"inst":"cello_v0_plucked_113","midi_source":""},{"t":123.888,"note":53,"dur":0.206,"vel":1.0,"inst":"violin_v1_additive_535","midi_source":""},{"t":123.888,"note":70,"dur":0.069,"vel":1.0,"inst":"cello_v0_plucked_113","midi_source":""},{"t":123.957,"note":75,"dur":0.069,"vel":1.0,"inst":"synth_pluck_v0_blown_260","midi_source":""},{"t":124.025,"note":77,"dur":0.137,"vel":1.0,"inst":"violin_v1_additive_535","midi_source":""},{"t":124.094,"note":70,"dur":0.069,"vel":1.0,"inst":"cello_v0_plucked_113","midi_source":""},{"t":124.094,"note":72,"dur":0.069,"vel":1.0,"inst":"synth_pluck_v0_blown_260","midi_source":""},{"t":124.162,"note":58,"dur":0.069,"vel":1.0,"inst":"cello_v0_plucked_113","midi_source":""},{"t":124.162,"note":70,"dur":0.069,"vel":1.0,"inst":"cello_v0_plucked_113","midi_source":""},{"t":124.231,"note":72,"dur":0.069,"vel":1.0,"inst":"synth_pluck_v0_blown_260","midi_source":""},{"t":124.299,"note":65,"dur":0.069,"vel":1.0,"inst":"violin_v1_additive_535","midi_source":""},{"t":124.299,"note":66,"dur":0.069,"vel":1.0,"inst":"synth_pluck_v0_blown_260","midi_source":""},{"t":124.299,"note":73,"dur":0.137,"vel":1.0,"inst":"cello_v0_plucked_113","midi_source":""},{"t":124.299,"note":70,"dur":0.137,"vel":1.0,"inst":"cello_v0_plucked_113","midi_source":""},{"t":124.368,"note":58,"dur":0.069,"vel":1.0,"inst":"cello_v0_plucked_113","midi_source":""},{"t":124.436,"note":58,"dur":0.069,"vel":1.0,"inst":"cello_v0_plucked_113","midi_source":""},{"t":124.436,"note":70,"dur":0.137,"vel":1.0,"inst":"cello_v0_plucked_113","midi_source":""},{"t":124.505,"note":61,"dur":0.069,"vel":1.0,"inst":"cello_v0_plucked_113","midi_source":""},{"t":124.573,"note":63,"dur":0.069,"vel":1.0,"inst":"synth_pluck_v0_blown_260","midi_source":""},{"t":124.573,"note":78,"dur":0.206,"vel":1.0,"inst":"synth_pluck_v0_blown_260","midi_source":""},{"t":124.642,"note":65,"dur":0.069,"vel":1.0,"inst":"violin_v1_additive_535","midi_source":""},{"t":124.71,"note":66,"dur":0.069,"vel":1.0,"inst":"synth_pluck_v0_blown_260","midi_source":""},{"t":124.779,"note":58,"dur":0.069,"vel":1.0,"inst":"cello_v0_plucked_113","midi_source":""},{"t":124.779,"note":85,"dur":0.069,"vel":1.0,"inst":"cello_v0_plucked_113","midi_source":""},{"t":124.847,"note":70,"dur":0.069,"vel":1.0,"inst":"cello_v0_plucked_113","midi_source":""},{"t":124.847,"note":85,"dur":0.069,"vel":1.0,"inst":"cello_v0_plucked_113","midi_source":""},{"t":124.916,"note":66,"dur":0.069,"vel":1.0,"inst":"synth_pluck_v0_blown_260","midi_source":""},{"t":124.916,"note":87,"dur":0.069,"vel":1.0,"inst":"synth_pluck_v0_blown_260","midi_source":""},{"t":124.984,"note":61,"dur":0.069,"vel":1.0,"inst":"cello_v0_plucked_113","midi_source":""},{"t":124.984,"note":82,"dur":0.137,"vel":1.0,"inst":"cello_v0_plucked_113","midi_source":""},{"t":125.053,"note":63,"dur":0.069,"vel":1.0,"inst":"synth_pluck_v0_blown_260","midi_source":""},{"t":125.121,"note":65,"dur":0.069,"vel":1.0,"inst":"violin_v1_additive_535","midi_source":""},{"t":125.121,"note":70,"dur":0.137,"vel":1.0,"inst":"cello_v0_plucked_113","midi_source":""},{"t":125.19,"note":66,"dur":0.069,"vel":1.0,"inst":"synth_pluck_v0_blown_260","midi_source":""},{"t":125.258,"note":58,"dur":0.069,"vel":1.0,"inst":"cello_v0_plucked_113","midi_source":""},{"t":125.327,"note":70,"dur":0.069,"vel":1.0,"inst":"cello_v0_plucked_113","midi_source":""},{"t":125.327,"note":85,"dur":0.069,"vel":1.0,"inst":"cello_v0_plucked_113","midi_source":""},{"t":125.395,"note":73,"dur":0.069,"vel":1.0,"inst":"cello_v0_plucked_113","midi_source":""},{"t":125.395,"note":87,"dur":0.069,"vel":1.0,"inst":"synth_pluck_v0_blown_260","midi_source":""},{"t":125.464,"note":58,"dur":0.069,"vel":1.0,"inst":"cello_v0_plucked_113","midi_source":""},{"t":125.464,"note":89,"dur":0.069,"vel":1.0,"inst":"violin_v1_additive_535","midi_source":""},{"t":125.532,"note":61,"dur":0.069,"vel":1.0,"inst":"cello_v0_plucked_113","midi_source":""},{"t":125.532,"note":84,"dur":0.137,"vel":1.0,"inst":"synth_pluck_v0_blown_260","midi_source":""},{"t":125.601,"note":65,"dur":0.069,"vel":1.0,"inst":"violin_v1_additive_535","midi_source":""},{"t":125.669,"note":66,"dur":0.069,"vel":1.0,"inst":"synth_pluck_v0_blown_260","midi_source":""},{"t":125.669,"note":82,"dur":0.206,"vel":1.0,"inst":"cello_v0_plucked_113","midi_source":""},{"t":125.738,"note":58,"dur":0.069,"vel":1.0,"inst":"cello_v0_plucked_113","midi_source":""},{"t":125.806,"note":70,"dur":0.069,"vel":1.0,"inst":"cello_v0_plucked_113","midi_source":""},{"t":125.875,"note":73,"dur":0.069,"vel":1.0,"inst":"cello_v0_plucked_113","midi_source":""},{"t":125.875,"note":87,"dur":0.069,"vel":1.0,"inst":"synth_pluck_v0_blown_260","midi_source":""},{"t":125.943,"note":73,"dur":0.069,"vel":1.0,"inst":"cello_v0_plucked_113","midi_source":""},{"t":125.943,"note":89,"dur":0.069,"vel":1.0,"inst":"violin_v1_additive_535","midi_source":""},{"t":126.012,"note":70,"dur":0.069,"vel":1.0,"inst":"cello_v0_plucked_113","midi_source":""},{"t":126.012,"note":90,"dur":0.069,"vel":1.0,"inst":"synth_pluck_v0_blown_260","midi_source":""},{"t":126.08,"note":63,"dur":0.069,"vel":1.0,"inst":"synth_pluck_v0_blown_260","midi_source":""},{"t":126.08,"note":85,"dur":0.137,"vel":1.0,"inst":"cello_v0_plucked_113","midi_source":""},{"t":126.149,"note":66,"dur":0.069,"vel":1.0,"inst":"synth_pluck_v0_blown_260","midi_source":""},{"t":126.217,"note":58,"dur":0.069,"vel":1.0,"inst":"cello_v0_plucked_113","midi_source":""},{"t":126.217,"note":85,"dur":0.137,"vel":1.0,"inst":"cello_v0_plucked_113","midi_source":""},{"t":126.286,"note":70,"dur":0.069,"vel":1.0,"inst":"cello_v0_plucked_113","midi_source":""},{"t":126.354,"note":58,"dur":0.069,"vel":1.0,"inst":"cello_v0_plucked_113","midi_source":""},{"t":126.423,"note":66,"dur":0.069,"vel":1.0,"inst":"synth_pluck_v0_blown_260","midi_source":""},{"t":126.423,"note":82,"dur":0.069,"vel":1.0,"inst":"cello_v0_plucked_113","midi_source":""},{"t":126.491,"note":65,"dur":0.069,"vel":1.0,"inst":"violin_v1_additive_535","midi_source":""},{"t":126.491,"note":70,"dur":0.069,"vel":1.0,"inst":"cello_v0_plucked_113","midi_source":""},{"t":126.56,"note":63,"dur":0.069,"vel":1.0,"inst":"synth_pluck_v0_blown_260","midi_source":""},{"t":126.56,"note":78,"dur":0.069,"vel":1.0,"inst":"synth_pluck_v0_blown_260","midi_source":""},{"t":126.628,"note":65,"dur":0.069,"vel":1.0,"inst":"violin_v1_additive_535","midi_source":""},{"t":126.628,"note":70,"dur":0.069,"vel":1.0,"inst":"cello_v0_plucked_113","midi_source":""},{"t":126.697,"note":66,"dur":0.069,"vel":1.0,"inst":"synth_pluck_v0_blown_260","midi_source":""},{"t":126.697,"note":75,"dur":0.069,"vel":1.0,"inst":"synth_pluck_v0_blown_260","midi_source":""},{"t":126.765,"note":58,"dur":0.069,"vel":1.0,"inst":"cello_v0_plucked_113","midi_source":""},{"t":126.765,"note":77,"dur":0.069,"vel":1.0,"inst":"violin_v1_additive_535","midi_source":""},{"t":126.834,"note":63,"dur":0.069,"vel":1.0,"inst":"synth_pluck_v0_blown_260","midi_source":""},{"t":126.834,"note":73,"dur":0.069,"vel":1.0,"inst":"cello_v0_plucked_113","midi_source":""},{"t":126.902,"note":65,"dur":0.069,"vel":1.0,"inst":"violin_v1_additive_535","midi_source":""},{"t":126.902,"note":73,"dur":0.069,"vel":1.0,"inst":"cello_v0_plucked_113","midi_source":""},{"t":126.971,"note":70,"dur":0.069,"vel":1.0,"inst":"cello_v0_plucked_113","midi_source":""},{"t":126.971,"note":78,"dur":0.069,"vel":1.0,"inst":"synth_pluck_v0_blown_260","midi_source":""},{"t":127.039,"note":58,"dur":0.069,"vel":1.0,"inst":"cello_v0_plucked_113","midi_source":""},{"t":127.039,"note":77,"dur":0.069,"vel":1.0,"inst":"violin_v1_additive_535","midi_source":""},{"t":127.108,"note":66,"dur":0.069,"vel":1.0,"inst":"synth_pluck_v0_blown_260","midi_source":""},{"t":127.108,"note":75,"dur":0.069,"vel":1.0,"inst":"synth_pluck_v0_blown_260","midi_source":""},{"t":127.176,"note":58,"dur":0.069,"vel":1.0,"inst":"cello_v0_plucked_113","midi_source":""},{"t":127.176,"note":77,"dur":0.069,"vel":1.0,"inst":"violin_v1_additive_535","midi_source":""},{"t":127.245,"note":63,"dur":0.069,"vel":1.0,"inst":"synth_pluck_v0_blown_260","midi_source":""},{"t":127.245,"note":73,"dur":0.069,"vel":1.0,"inst":"cello_v0_plucked_113","midi_source":""},{"t":127.313,"note":65,"dur":0.069,"vel":1.0,"inst":"violin_v1_additive_535","midi_source":""},{"t":127.313,"note":73,"dur":0.069,"vel":1.0,"inst":"cello_v0_plucked_113","midi_source":""},{"t":127.382,"note":60,"dur":0.069,"vel":1.0,"inst":"synth_pluck_v0_blown_260","midi_source":""},{"t":127.382,"note":58,"dur":0.069,"vel":1.0,"inst":"cello_v0_plucked_113","midi_source":""},{"t":127.45,"note":61,"dur":0.069,"vel":1.0,"inst":"cello_v0_plucked_113","midi_source":""},{"t":127.45,"note":70,"dur":0.069,"vel":1.0,"inst":"cello_v0_plucked_113","midi_source":""},{"t":127.519,"note":66,"dur":0.069,"vel":1.0,"inst":"synth_pluck_v0_blown_260","midi_source":""},{"t":127.519,"note":75,"dur":0.069,"vel":1.0,"inst":"synth_pluck_v0_blown_260","midi_source":""},{"t":127.587,"note":65,"dur":0.069,"vel":1.0,"inst":"violin_v1_additive_535","midi_source":""},{"t":127.587,"note":73,"dur":0.069,"vel":1.0,"inst":"cello_v0_plucked_113","midi_source":""},{"t":127.656,"note":63,"dur":0.069,"vel":1.0,"inst":"synth_pluck_v0_blown_260","midi_source":""},{"t":127.656,"note":73,"dur":0.069,"vel":1.0,"inst":"cello_v0_plucked_113","midi_source":""},{"t":127.724,"note":65,"dur":0.069,"vel":1.0,"inst":"violin_v1_additive_535","midi_source":""},{"t":127.724,"note":73,"dur":0.069,"vel":1.0,"inst":"cello_v0_plucked_113","midi_source":""},{"t":127.793,"note":61,"dur":0.069,"vel":1.0,"inst":"cello_v0_plucked_113","midi_source":""},{"t":127.793,"note":58,"dur":0.069,"vel":1.0,"inst":"cello_v0_plucked_113","midi_source":""},{"t":127.861,"note":61,"dur":0.069,"vel":1.0,"inst":"cello_v0_plucked_113","midi_source":""},{"t":127.861,"note":70,"dur":0.069,"vel":1.0,"inst":"cello_v0_plucked_113","midi_source":""},{"t":127.93,"note":46,"dur":0.069,"vel":1.0,"inst":"cello_v0_plucked_113","midi_source":""},{"t":127.93,"note":66,"dur":0.069,"vel":1.0,"inst":"synth_pluck_v0_blown_260","midi_source":""},{"t":127.998,"note":58,"dur":0.069,"vel":1.0,"inst":"cello_v0_plucked_113","midi_source":""},{"t":127.998,"note":60,"dur":0.069,"vel":1.0,"inst":"synth_pluck_v0_blown_260","midi_source":""},{"t":127.998,"note":66,"dur":0.069,"vel":1.0,"inst":"synth_pluck_v0_blown_260","midi_source":""},{"t":128.067,"note":61,"dur":0.069,"vel":1.0,"inst":"cello_v0_plucked_113","midi_source":""},{"t":128.067,"note":72,"dur":0.069,"vel":1.0,"inst":"synth_pluck_v0_blown_260","midi_source":""},{"t":128.135,"note":54,"dur":0.069,"vel":1.0,"inst":"synth_pluck_v0_blown_260","midi_source":""},{"t":128.135,"note":46,"dur":0.069,"vel":1.0,"inst":"cello_v0_plucked_113","midi_source":""},{"t":128.135,"note":70,"dur":0.069,"vel":1.0,"inst":"cello_v0_plucked_113","midi_source":""},{"t":128.204,"note":58,"dur":0.069,"vel":1.0,"inst":"cello_v0_plucked_113","midi_source":""},{"t":128.204,"note":58,"dur":0.069,"vel":1.0,"inst":"cello_v0_plucked_113","midi_source":""},{"t":128.272,"note":49,"dur":0.274,"vel":1.0,"inst":"cello_v0_plucked_113","midi_source":""},{"t":128.272,"note":70,"dur":0.069,"vel":1.0,"inst":"cello_v0_plucked_113","midi_source":""},{"t":128.341,"note":66,"dur":0.069,"vel":1.0,"inst":"synth_pluck_v0_blown_260","midi_source":""},{"t":128.409,"note":58,"dur":0.069,"vel":1.0,"inst":"cello_v0_plucked_113","midi_source":""},{"t":128.478,"note":73,"dur":0.069,"vel":1.0,"inst":"cello_v0_plucked_113","midi_source":""},{"t":128.546,"note":75,"dur":0.069,"vel":1.0,"inst":"synth_pluck_v0_blown_260","midi_source":""},{"t":128.615,"note":70,"dur":0.069,"vel":1.0,"inst":"cello_v0_plucked_113","midi_source":""},{"t":128.683,"note":34,"dur":0.137,"vel":1.0,"inst":"cello_v0_plucked_113","midi_source":""},{"t":128.683,"note":58,"dur":0.069,"vel":1.0,"inst":"cello_v0_plucked_113","midi_source":""},{"t":128.752,"note":66,"dur":0.069,"vel":1.0,"inst":"synth_pluck_v0_blown_260","midi_source":""},{"t":128.82,"note":49,"dur":0.137,"vel":1.0,"inst":"cello_v0_plucked_113","midi_source":""},{"t":128.82,"note":65,"dur":0.069,"vel":1.0,"inst":"violin_v1_additive_535","midi_source":""},{"t":128.889,"note":58,"dur":0.069,"vel":1.0,"inst":"cello_v0_plucked_113","midi_source":""},{"t":128.957,"note":65,"dur":0.137,"vel":1.0,"inst":"violin_v1_additive_535","midi_source":""},{"t":128.957,"note":73,"dur":0.069,"vel":1.0,"inst":"cello_v0_plucked_113","midi_source":""},{"t":129.026,"note":77,"dur":0.137,"vel":1.0,"inst":"violin_v1_additive_535","midi_source":""},{"t":129.094,"note":58,"dur":0.137,"vel":1.0,"inst":"cello_v0_plucked_113","midi_source":""},{"t":129.163,"note":73,"dur":0.069,"vel":1.0,"inst":"cello_v0_plucked_113","midi_source":""},{"t":129.231,"note":46,"dur":0.137,"vel":1.0,"inst":"cello_v0_plucked_113","midi_source":""},{"t":129.231,"note":73,"dur":0.069,"vel":1.0,"inst":"cello_v0_plucked_113","midi_source":""},{"t":129.3,"note":65,"dur":0.069,"vel":1.0,"inst":"violin_v1_additive_535","midi_source":""},{"t":129.368,"note":51,"dur":0.137,"vel":1.0,"inst":"synth_pluck_v0_blown_260","midi_source":""},{"t":129.368,"note":66,"dur":0.069,"vel":1.0,"inst":"synth_pluck_v0_blown_260","midi_source":""},{"t":129.437,"note":70,"dur":0.069,"vel":1.0,"inst":"cello_v0_plucked_113","midi_source":""},{"t":129.505,"note":66,"dur":0.137,"vel":1.0,"inst":"synth_pluck_v0_blown_260","midi_source":""},{"t":129.505,"note":73,"dur":0.069,"vel":1.0,"inst":"cello_v0_plucked_113","midi_source":""},{"t":129.574,"note":77,"dur":0.069,"vel":1.0,"inst":"violin_v1_additive_535","midi_source":""},{"t":129.642,"note":58,"dur":0.137,"vel":1.0,"inst":"cello_v0_plucked_113","midi_source":""},{"t":129.711,"note":73,"dur":0.069,"vel":1.0,"inst":"cello_v0_plucked_113","midi_source":""},{"t":129.779,"note":46,"dur":0.137,"vel":1.0,"inst":"cello_v0_plucked_113","midi_source":""},{"t":129.779,"note":73,"dur":0.069,"vel":1.0,"inst":"cello_v0_plucked_113","midi_source":""},{"t":129.848,"note":66,"dur":0.069,"vel":1.0,"inst":"synth_pluck_v0_blown_260","midi_source":""},{"t":129.916,"note":53,"dur":0.137,"vel":1.0,"inst":"violin_v1_additive_535","midi_source":""},{"t":129.916,"note":58,"dur":0.069,"vel":1.0,"inst":"cello_v0_plucked_113","midi_source":""},{"t":129.985,"note":73,"dur":0.069,"vel":1.0,"inst":"cello_v0_plucked_113","midi_source":""},{"t":130.053,"note":58,"dur":0.137,"vel":1.0,"inst":"cello_v0_plucked_113","midi_source":""},{"t":130.053,"note":73,"dur":0.069,"vel":1.0,"inst":"cello_v0_plucked_113","midi_source":""},{"t":130.122,"note":61,"dur":0.069,"vel":1.0,"inst":"cello_v0_plucked_113","midi_source":""},{"t":130.122,"note":70,"dur":0.069,"vel":1.0,"inst":"cello_v0_plucked_113","midi_source":""},{"t":130.19,"note":63,"dur":0.137,"vel":1.0,"inst":"synth_pluck_v0_blown_260","midi_source":""},{"t":130.19,"note":72,"dur":0.069,"vel":1.0,"inst":"synth_pluck_v0_blown_260","midi_source":""},{"t":130.259,"note":82,"dur":0.069,"vel":1.0,"inst":"cello_v0_plucked_113","midi_source":""},{"t":130.327,"note":60,"dur":0.137,"vel":1.0,"inst":"synth_pluck_v0_blown_260","midi_source":""},{"t":130.327,"note":70,"dur":0.069,"vel":1.0,"inst":"cello_v0_plucked_113","midi_source":""},{"t":130.396,"note":78,"dur":0.069,"vel":1.0,"inst":"synth_pluck_v0_blown_260","midi_source":""},{"t":130.464,"note":61,"dur":0.137,"vel":1.0,"inst":"cello_v0_plucked_113","midi_source":""},{"t":130.464,"note":78,"dur":0.206,"vel":1.0,"inst":"synth_pluck_v0_blown_260","midi_source":""},{"t":130.601,"note":49,"dur":0.137,"vel":1.0,"inst":"cello_v0_plucked_113","midi_source":""},{"t":130.67,"note":75,"dur":0.069,"vel":1.0,"inst":"synth_pluck_v0_blown_260","midi_source":""},{"t":130.738,"note":73,"dur":0.137,"vel":1.0,"inst":"cello_v0_plucked_113","midi_source":""},{"t":130.807,"note":60,"dur":0.069,"vel":1.0,"inst":"synth_pluck_v0_blown_260","midi_source":""},{"t":130.875,"note":58,"dur":0.069,"vel":1.0,"inst":"cello_v0_plucked_113","midi_source":""},{"t":130.875,"note":78,"dur":0.137,"vel":1.0,"inst":"synth_pluck_v0_blown_260","midi_source":""},{"t":130.944,"note":46,"dur":0.069,"vel":1.0,"inst":"cello_v0_plucked_113","midi_source":""},{"t":131.012,"note":58,"dur":0.069,"vel":1.0,"inst":"cello_v0_plucked_113","midi_source":""},{"t":131.012,"note":78,"dur":0.069,"vel":1.0,"inst":"synth_pluck_v0_blown_260","midi_source":""},{"t":131.081,"note":53,"dur":0.069,"vel":1.0,"inst":"violin_v1_additive_535","midi_source":""},{"t":131.081,"note":70,"dur":0.069,"vel":1.0,"inst":"cello_v0_plucked_113","midi_source":""},{"t":131.149,"note":54,"dur":0.069,"vel":1.0,"inst":"synth_pluck_v0_blown_260","midi_source":""},{"t":131.149,"note":82,"dur":0.137,"vel":1.0,"inst":"cello_v0_plucked_113","midi_source":""},{"t":131.218,"note":49,"dur":0.069,"vel":1.0,"inst":"cello_v0_plucked_113","midi_source":""},{"t":131.286,"note":51,"dur":0.069,"vel":1.0,"inst":"synth_pluck_v0_blown_260","midi_source":""},{"t":131.286,"note":72,"dur":0.069,"vel":1.0,"inst":"synth_pluck_v0_blown_260","midi_source":""},{"t":131.355,"note":61,"dur":0.069,"vel":1.0,"inst":"cello_v0_plucked_113","midi_source":""},{"t":131.355,"note":82,"dur":0.069,"vel":1.0,"inst":"cello_v0_plucked_113","midi_source":""},{"t":131.423,"note":60,"dur":0.069,"vel":1.0,"inst":"synth_pluck_v0_blown_260","midi_source":""},{"t":131.423,"note":70,"dur":0.069,"vel":1.0,"inst":"cello_v0_plucked_113","midi_source":""},{"t":131.492,"note":58,"dur":0.069,"vel":1.0,"inst":"cello_v0_plucked_113","midi_source":""},{"t":131.492,"note":78,"dur":0.069,"vel":1.0,"inst":"synth_pluck_v0_blown_260","midi_source":""},{"t":131.561,"note":60,"dur":0.069,"vel":1.0,"inst":"synth_pluck_v0_blown_260","midi_source":""},{"t":131.561,"note":70,"dur":0.069,"vel":1.0,"inst":"cello_v0_plucked_113","midi_source":""},{"t":131.629,"note":54,"dur":0.069,"vel":1.0,"inst":"synth_pluck_v0_blown_260","midi_source":""},{"t":131.629,"note":82,"dur":0.069,"vel":1.0,"inst":"cello_v0_plucked_113","midi_source":""},{"t":131.698,"note":46,"dur":0.069,"vel":1.0,"inst":"cello_v0_plucked_113","midi_source":""},{"t":131.698,"note":84,"dur":0.137,"vel":1.0,"inst":"synth_pluck_v0_blown_260","midi_source":""},{"t":131.766,"note":51,"dur":0.069,"vel":1.0,"inst":"synth_pluck_v0_blown_260","midi_source":""},{"t":131.835,"note":54,"dur":0.069,"vel":1.0,"inst":"synth_pluck_v0_blown_260","midi_source":""},{"t":131.835,"note":73,"dur":0.069,"vel":1.0,"inst":"cello_v0_plucked_113","midi_source":""},{"t":131.903,"note":63,"dur":0.069,"vel":1.0,"inst":"synth_pluck_v0_blown_260","midi_source":""},{"t":131.903,"note":84,"dur":0.069,"vel":1.0,"inst":"synth_pluck_v0_blown_260","midi_source":""},{"t":131.972,"note":61,"dur":0.069,"vel":1.0,"inst":"cello_v0_plucked_113","midi_source":""},{"t":131.972,"note":82,"dur":0.069,"vel":1.0,"inst":"cello_v0_plucked_113","midi_source":""},{"t":132.04,"note":60,"dur":0.069,"vel":1.0,"inst":"synth_pluck_v0_blown_260","midi_source":""},{"t":132.04,"note":70,"dur":0.069,"vel":1.0,"inst":"cello_v0_plucked_113","midi_source":""},{"t":132.109,"note":61,"dur":0.069,"vel":1.0,"inst":"cello_v0_plucked_113","midi_source":""},{"t":132.109,"note":82,"dur":0.069,"vel":1.0,"inst":"cello_v0_plucked_113","midi_source":""},{"t":132.177,"note":46,"dur":0.069,"vel":1.0,"inst":"cello_v0_plucked_113","midi_source":""},{"t":132.177,"note":84,"dur":0.069,"vel":1.0,"inst":"synth_pluck_v0_blown_260","midi_source":""},{"t":132.246,"note":58,"dur":0.069,"vel":1.0,"inst":"cello_v0_plucked_113","midi_source":""},{"t":132.246,"note":85,"dur":0.137,"vel":1.0,"inst":"cello_v0_plucked_113","midi_source":""},{"t":132.314,"note":54,"dur":0.069,"vel":1.0,"inst":"synth_pluck_v0_blown_260","midi_source":""},{"t":132.383,"note":54,"dur":0.069,"vel":1.0,"inst":"synth_pluck_v0_blown_260","midi_source":""},{"t":132.383,"note":75,"dur":0.069,"vel":1.0,"inst":"synth_pluck_v0_blown_260","midi_source":""},{"t":132.451,"note":65,"dur":0.069,"vel":1.0,"inst":"violin_v1_additive_535","midi_source":""},{"t":132.451,"note":85,"dur":0.069,"vel":1.0,"inst":"cello_v0_plucked_113","midi_source":""},{"t":132.52,"note":63,"dur":0.069,"vel":1.0,"inst":"synth_pluck_v0_blown_260","midi_source":""},{"t":132.52,"note":84,"dur":0.069,"vel":1.0,"inst":"synth_pluck_v0_blown_260","midi_source":""},{"t":132.588,"note":61,"dur":0.069,"vel":1.0,"inst":"cello_v0_plucked_113","midi_source":""},{"t":132.588,"note":82,"dur":0.069,"vel":1.0,"inst":"cello_v0_plucked_113","midi_source":""},{"t":132.657,"note":63,"dur":0.069,"vel":1.0,"inst":"synth_pluck_v0_blown_260","midi_source":""},{"t":132.657,"note":84,"dur":0.069,"vel":1.0,"inst":"synth_pluck_v0_blown_260","midi_source":""},{"t":132.725,"note":58,"dur":0.069,"vel":1.0,"inst":"cello_v0_plucked_113","midi_source":""},{"t":132.725,"note":85,"dur":0.069,"vel":1.0,"inst":"cello_v0_plucked_113","midi_source":""},{"t":132.794,"note":60,"dur":0.069,"vel":1.0,"inst":"synth_pluck_v0_blown_260","midi_source":""},{"t":132.794,"note":87,"dur":0.137,"vel":1.0,"inst":"synth_pluck_v0_blown_260","midi_source":""},{"t":132.862,"note":54,"dur":0.069,"vel":1.0,"inst":"synth_pluck_v0_blown_260","midi_source":""},{"t":132.931,"note":46,"dur":0.137,"vel":1.0,"inst":"cello_v0_plucked_113","midi_source":""},{"t":132.931,"note":78,"dur":0.069,"vel":1.0,"inst":"synth_pluck_v0_blown_260","midi_source":""},{"t":132.999,"note":87,"dur":0.069,"vel":1.0,"inst":"synth_pluck_v0_blown_260","midi_source":""},{"t":133.068,"note":66,"dur":0.137,"vel":1.0,"inst":"synth_pluck_v0_blown_260","midi_source":""},{"t":133.068,"note":85,"dur":0.069,"vel":1.0,"inst":"cello_v0_plucked_113","midi_source":""},{"t":133.136,"note":84,"dur":0.069,"vel":1.0,"inst":"synth_pluck_v0_blown_260","midi_source":""},{"t":133.205,"note":66,"dur":0.137,"vel":1.0,"inst":"synth_pluck_v0_blown_260","midi_source":""},{"t":133.205,"note":82,"dur":0.069,"vel":1.0,"inst":"cello_v0_plucked_113","midi_source":""},{"t":133.273,"note":78,"dur":0.069,"vel":1.0,"inst":"synth_pluck_v0_blown_260","midi_source":""},{"t":133.342,"note":70,"dur":0.137,"vel":1.0,"inst":"cello_v0_plucked_113","midi_source":""},{"t":133.342,"note":78,"dur":0.069,"vel":1.0,"inst":"synth_pluck_v0_blown_260","midi_source":""},{"t":133.41,"note":73,"dur":0.069,"vel":1.0,"inst":"cello_v0_plucked_113","midi_source":""},{"t":133.479,"note":60,"dur":0.137,"vel":1.0,"inst":"synth_pluck_v0_blown_260","midi_source":""},{"t":133.479,"note":75,"dur":0.069,"vel":1.0,"inst":"synth_pluck_v0_blown_260","midi_source":""},{"t":133.547,"note":70,"dur":0.069,"vel":1.0,"inst":"cello_v0_plucked_113","midi_source":""},{"t":133.616,"note":63,"dur":0.137,"vel":1.0,"inst":"synth_pluck_v0_blown_260","midi_source":""},{"t":133.616,"note":72,"dur":0.069,"vel":1.0,"inst":"synth_pluck_v0_blown_260","midi_source":""},{"t":133.684,"note":78,"dur":0.069,"vel":1.0,"inst":"synth_pluck_v0_blown_260","midi_source":""},{"t":133.753,"note":54,"dur":0.137,"vel":1.0,"inst":"synth_pluck_v0_blown_260","midi_source":""},{"t":133.753,"note":70,"dur":0.069,"vel":1.0,"inst":"cello_v0_plucked_113","midi_source":""},{"t":133.821,"note":73,"dur":0.069,"vel":1.0,"inst":"cello_v0_plucked_113","midi_source":""},{"t":133.89,"note":46,"dur":0.137,"vel":1.0,"inst":"cello_v0_plucked_113","midi_source":""},{"t":133.89,"note":75,"dur":0.069,"vel":1.0,"inst":"synth_pluck_v0_blown_260","midi_source":""},{"t":133.958,"note":72,"dur":0.069,"vel":1.0,"inst":"synth_pluck_v0_blown_260","midi_source":""},{"t":134.027,"note":48,"dur":0.137,"vel":1.0,"inst":"synth_pluck_v0_blown_260","midi_source":""},{"t":134.027,"note":73,"dur":0.069,"vel":1.0,"inst":"cello_v0_plucked_113","midi_source":""},{"t":134.095,"note":58,"dur":0.069,"vel":1.0,"inst":"cello_v0_plucked_113","midi_source":""},{"t":134.164,"note":49,"dur":0.137,"vel":1.0,"inst":"cello_v0_plucked_113","midi_source":""},{"t":134.164,"note":70,"dur":0.069,"vel":1.0,"inst":"cello_v0_plucked_113","midi_source":""},{"t":134.232,"note":78,"dur":0.069,"vel":1.0,"inst":"synth_pluck_v0_blown_260","midi_source":""},{"t":134.301,"note":51,"dur":0.137,"vel":1.0,"inst":"synth_pluck_v0_blown_260","midi_source":""},{"t":134.301,"note":78,"dur":0.069,"vel":1.0,"inst":"synth_pluck_v0_blown_260","midi_source":""},{"t":134.369,"note":72,"dur":0.069,"vel":1.0,"inst":"synth_pluck_v0_blown_260","midi_source":""},{"t":134.369,"note":73,"dur":0.069,"vel":1.0,"inst":"cello_v0_plucked_113","midi_source":""},{"t":134.438,"note":48,"dur":0.137,"vel":1.0,"inst":"synth_pluck_v0_blown_260","midi_source":""},{"t":134.438,"note":75,"dur":0.069,"vel":1.0,"inst":"synth_pluck_v0_blown_260","midi_source":""},{"t":134.506,"note":72,"dur":0.069,"vel":1.0,"inst":"synth_pluck_v0_blown_260","midi_source":""},{"t":134.575,"note":49,"dur":0.137,"vel":1.0,"inst":"cello_v0_plucked_113","midi_source":""},{"t":134.575,"note":58,"dur":0.069,"vel":1.0,"inst":"cello_v0_plucked_113","midi_source":""},{"t":134.643,"note":72,"dur":0.069,"vel":1.0,"inst":"synth_pluck_v0_blown_260","midi_source":""},{"t":134.712,"note":61,"dur":0.137,"vel":1.0,"inst":"cello_v0_plucked_113","midi_source":""},{"t":134.712,"note":78,"dur":0.069,"vel":1.0,"inst":"synth_pluck_v0_blown_260","midi_source":""},{"t":134.78,"note":78,"dur":0.069,"vel":1.0,"inst":"synth_pluck_v0_blown_260","midi_source":""},{"t":134.849,"note":54,"dur":0.137,"vel":1.0,"inst":"synth_pluck_v0_blown_260","midi_source":""},{"t":134.849,"note":78,"dur":0.069,"vel":1.0,"inst":"synth_pluck_v0_blown_260","midi_source":""},{"t":134.917,"note":72,"dur":0.069,"vel":1.0,"inst":"synth_pluck_v0_blown_260","midi_source":""},{"t":134.986,"note":61,"dur":0.137,"vel":1.0,"inst":"cello_v0_plucked_113","midi_source":""},{"t":134.986,"note":70,"dur":0.069,"vel":1.0,"inst":"cello_v0_plucked_113","midi_source":""},{"t":135.054,"note":58,"dur":0.069,"vel":1.0,"inst":"cello_v0_plucked_113","midi_source":""},{"t":135.123,"note":66,"dur":0.137,"vel":1.0,"inst":"synth_pluck_v0_blown_260","midi_source":""},{"t":135.123,"note":70,"dur":0.069,"vel":1.0,"inst":"cello_v0_plucked_113","midi_source":""},{"t":135.191,"note":78,"dur":0.069,"vel":1.0,"inst":"synth_pluck_v0_blown_260","midi_source":""},{"t":135.26,"note":58,"dur":0.137,"vel":1.0,"inst":"cello_v0_plucked_113","midi_source":""},{"t":135.26,"note":77,"dur":0.069,"vel":1.0,"inst":"violin_v1_additive_535","midi_source":""},{"t":135.328,"note":75,"dur":0.069,"vel":1.0,"inst":"synth_pluck_v0_blown_260","midi_source":""},{"t":135.397,"note":66,"dur":0.206,"vel":1.0,"inst":"synth_pluck_v0_blown_260","midi_source":""},{"t":135.397,"note":73,"dur":0.069,"vel":1.0,"inst":"cello_v0_plucked_113","midi_source":""},{"t":135.465,"note":78,"dur":0.069,"vel":1.0,"inst":"synth_pluck_v0_blown_260","midi_source":""},{"t":135.465,"note":70,"dur":0.069,"vel":1.0,"inst":"cello_v0_plucked_113","midi_source":""},{"t":135.534,"note":82,"dur":0.069,"vel":1.0,"inst":"cello_v0_plucked_113","midi_source":""},{"t":135.602,"note":60,"dur":0.069,"vel":1.0,"inst":"synth_pluck_v0_blown_260","midi_source":""},{"t":135.602,"note":61,"dur":0.069,"vel":1.0,"inst":"cello_v0_plucked_113","midi_source":""},{"t":135.602,"note":78,"dur":0.069,"vel":1.0,"inst":"synth_pluck_v0_blown_260","midi_source":""},{"t":135.671,"note":58,"dur":0.069,"vel":1.0,"inst":"cello_v0_plucked_113","midi_source":""},{"t":135.671,"note":60,"dur":0.069,"vel":1.0,"inst":"synth_pluck_v0_blown_260","midi_source":""},{"t":135.671,"note":73,"dur":0.137,"vel":1.0,"inst":"cello_v0_plucked_113","midi_source":""},{"t":135.739,"note":61,"dur":0.069,"vel":1.0,"inst":"cello_v0_plucked_113","midi_source":""},{"t":135.808,"note":54,"dur":0.069,"vel":1.0,"inst":"synth_pluck_v0_blown_260","midi_source":""},{"t":135.808,"note":46,"dur":0.069,"vel":1.0,"inst":"cello_v0_plucked_113","midi_source":""},{"t":135.808,"note":75,"dur":0.137,"vel":1.0,"inst":"synth_pluck_v0_blown_260","midi_source":""},{"t":135.876,"note":58,"dur":0.069,"vel":1.0,"inst":"cello_v0_plucked_113","midi_source":""},{"t":135.945,"note":49,"dur":0.206,"vel":1.0,"inst":"cello_v0_plucked_113","midi_source":""},{"t":135.945,"note":77,"dur":0.069,"vel":1.0,"inst":"violin_v1_additive_535","midi_source":""},{"t":136.013,"note":72,"dur":0.069,"vel":1.0,"inst":"synth_pluck_v0_blown_260","midi_source":""},{"t":136.082,"note":73,"dur":0.069,"vel":1.0,"inst":"cello_v0_plucked_113","midi_source":""},{"t":136.15,"note":51,"dur":0.069,"vel":1.0,"inst":"synth_pluck_v0_blown_260","midi_source":""},{"t":136.15,"note":53,"dur":0.069,"vel":1.0,"inst":"violin_v1_additive_535","midi_source":""},{"t":136.15,"note":58,"dur":0.069,"vel":1.0,"inst":"cello_v0_plucked_113","midi_source":""},{"t":136.219,"note":49,"dur":0.069,"vel":1.0,"inst":"cello_v0_plucked_113","midi_source":""},{"t":136.219,"note":51,"dur":0.069,"vel":1.0,"inst":"synth_pluck_v0_blown_260","midi_source":""},{"t":136.219,"note":70,"dur":0.137,"vel":1.0,"inst":"cello_v0_plucked_113","midi_source":""},{"t":136.287,"note":53,"dur":0.069,"vel":1.0,"inst":"violin_v1_additive_535","midi_source":""},{"t":136.356,"note":46,"dur":0.069,"vel":1.0,"inst":"cello_v0_plucked_113","midi_source":""},{"t":136.356,"note":48,"dur":0.069,"vel":1.0,"inst":"synth_pluck_v0_blown_260","midi_source":""},{"t":136.356,"note":85,"dur":0.206,"vel":1.0,"inst":"cello_v0_plucked_113","midi_source":""},{"t":136.424,"note":49,"dur":0.069,"vel":1.0,"inst":"cello_v0_plucked_113","midi_source":""},{"t":136.493,"note":39,"dur":0.137,"vel":1.0,"inst":"synth_pluck_v0_blown_260","midi_source":""},{"t":136.561,"note":78,"dur":0.069,"vel":1.0,"inst":"synth_pluck_v0_blown_260","midi_source":""},{"t":136.561,"note":70,"dur":0.069,"vel":1.0,"inst":"cello_v0_plucked_113","midi_source":""},{"t":136.63,"note":42,"dur":0.137,"vel":1.0,"inst":"synth_pluck_v0_blown_260","midi_source":""},{"t":136.63,"note":82,"dur":0.069,"vel":1.0,"inst":"cello_v0_plucked_113","midi_source":""},{"t":136.698,"note":78,"dur":0.069,"vel":1.0,"inst":"synth_pluck_v0_blown_260","midi_source":""},{"t":136.767,"note":48,"dur":0.137,"vel":1.0,"inst":"synth_pluck_v0_blown_260","midi_source":""},{"t":136.767,"note":75,"dur":0.069,"vel":1.0,"inst":"synth_pluck_v0_blown_260","midi_source":""},{"t":136.835,"note":84,"dur":0.069,"vel":1.0,"inst":"synth_pluck_v0_blown_260","midi_source":""},{"t":136.904,"note":51,"dur":0.137,"vel":1.0,"inst":"synth_pluck_v0_blown_260","midi_source":""},{"t":136.904,"note":78,"dur":0.069,"vel":1.0,"inst":"synth_pluck_v0_blown_260","midi_source":""},{"t":136.904,"note":70,"dur":0.069,"vel":1.0,"inst":"cello_v0_plucked_113","midi_source":""},{"t":136.972,"note":82,"dur":0.069,"vel":1.0,"inst":"cello_v0_plucked_113","midi_source":""},{"t":137.041,"note":53,"dur":0.206,"vel":1.0,"inst":"violin_v1_additive_535","midi_source":""},{"t":137.041,"note":70,"dur":0.069,"vel":1.0,"inst":"cello_v0_plucked_113","midi_source":""},{"t":137.109,"note":75,"dur":0.069,"vel":1.0,"inst":"synth_pluck_v0_blown_260","midi_source":""},{"t":137.178,"note":77,"dur":0.137,"vel":1.0,"inst":"violin_v1_additive_535","midi_source":""},{"t":137.246,"note":70,"dur":0.069,"vel":1.0,"inst":"cello_v0_plucked_113","midi_source":""},{"t":137.246,"note":72,"dur":0.069,"vel":1.0,"inst":"synth_pluck_v0_blown_260","midi_source":""},{"t":137.315,"note":58,"dur":0.069,"vel":1.0,"inst":"cello_v0_plucked_113","midi_source":""},{"t":137.315,"note":70,"dur":0.069,"vel":1.0,"inst":"cello_v0_plucked_113","midi_source":""},{"t":137.383,"note":72,"dur":0.069,"vel":1.0,"inst":"synth_pluck_v0_blown_260","midi_source":""},{"t":137.452,"note":65,"dur":0.069,"vel":1.0,"inst":"violin_v1_additive_535","midi_source":""},{"t":137.452,"note":66,"dur":0.069,"vel":1.0,"inst":"synth_pluck_v0_blown_260","midi_source":""},{"t":137.452,"note":73,"dur":0.137,"vel":1.0,"inst":"cello_v0_plucked_113","midi_source":""},{"t":137.452,"note":70,"dur":0.137,"vel":1.0,"inst":"cello_v0_plucked_113","midi_source":""},{"t":137.52,"note":58,"dur":0.069,"vel":1.0,"inst":"cello_v0_plucked_113","midi_source":""},{"t":137.589,"note":58,"dur":0.069,"vel":1.0,"inst":"cello_v0_plucked_113","midi_source":""},{"t":137.589,"note":70,"dur":0.137,"vel":1.0,"inst":"cello_v0_plucked_113","midi_source":""},{"t":137.657,"note":61,"dur":0.069,"vel":1.0,"inst":"cello_v0_plucked_113","midi_source":""},{"t":137.726,"note":63,"dur":0.069,"vel":1.0,"inst":"synth_pluck_v0_blown_260","midi_source":""},{"t":137.726,"note":78,"dur":0.206,"vel":1.0,"inst":"synth_pluck_v0_blown_260","midi_source":""},{"t":137.794,"note":65,"dur":0.069,"vel":1.0,"inst":"violin_v1_additive_535","midi_source":""},{"t":137.863,"note":66,"dur":0.069,"vel":1.0,"inst":"synth_pluck_v0_blown_260","midi_source":""},{"t":137.931,"note":58,"dur":0.069,"vel":1.0,"inst":"cello_v0_plucked_113","midi_source":""},{"t":137.931,"note":85,"dur":0.069,"vel":1.0,"inst":"cello_v0_plucked_113","midi_source":""},{"t":138.0,"note":70,"dur":0.069,"vel":1.0,"inst":"cello_v0_plucked_113","midi_source":""},{"t":138.0,"note":85,"dur":0.069,"vel":1.0,"inst":"cello_v0_plucked_113","midi_source":""},{"t":138.068,"note":66,"dur":0.069,"vel":1.0,"inst":"synth_pluck_v0_blown_260","midi_source":""},{"t":138.068,"note":87,"dur":0.069,"vel":1.0,"inst":"synth_pluck_v0_blown_260","midi_source":""},{"t":138.137,"note":61,"dur":0.069,"vel":1.0,"inst":"cello_v0_plucked_113","midi_source":""},{"t":138.137,"note":82,"dur":0.137,"vel":1.0,"inst":"cello_v0_plucked_113","midi_source":""},{"t":138.205,"note":63,"dur":0.069,"vel":1.0,"inst":"synth_pluck_v0_blown_260","midi_source":""},{"t":138.274,"note":65,"dur":0.069,"vel":1.0,"inst":"violin_v1_additive_535","midi_source":""},{"t":138.274,"note":70,"dur":0.137,"vel":1.0,"inst":"cello_v0_plucked_113","midi_source":""},{"t":138.342,"note":66,"dur":0.069,"vel":1.0,"inst":"synth_pluck_v0_blown_260","midi_source":""},{"t":138.411,"note":58,"dur":0.069,"vel":1.0,"inst":"cello_v0_plucked_113","midi_source":""},{"t":138.479,"note":70,"dur":0.069,"vel":1.0,"inst":"cello_v0_plucked_113","midi_source":""},{"t":138.479,"note":85,"dur":0.069,"vel":1.0,"inst":"cello_v0_plucked_113","midi_source":""},{"t":138.548,"note":73,"dur":0.069,"vel":1.0,"inst":"cello_v0_plucked_113","midi_source":""},{"t":138.548,"note":87,"dur":0.069,"vel":1.0,"inst":"synth_pluck_v0_blown_260","midi_source":""},{"t":138.616,"note":58,"dur":0.069,"vel":1.0,"inst":"cello_v0_plucked_113","midi_source":""},{"t":138.616,"note":89,"dur":0.069,"vel":1.0,"inst":"violin_v1_additive_535","midi_source":""},{"t":138.685,"note":61,"dur":0.069,"vel":1.0,"inst":"cello_v0_plucked_113","midi_source":""},{"t":138.685,"note":84,"dur":0.137,"vel":1.0,"inst":"synth_pluck_v0_blown_260","midi_source":""},{"t":138.753,"note":65,"dur":0.069,"vel":1.0,"inst":"violin_v1_additive_535","midi_source":""},{"t":138.822,"note":66,"dur":0.069,"vel":1.0,"inst":"synth_pluck_v0_blown_260","midi_source":""},{"t":138.822,"note":82,"dur":0.206,"vel":1.0,"inst":"cello_v0_plucked_113","midi_source":""},{"t":138.89,"note":58,"dur":0.069,"vel":1.0,"inst":"cello_v0_plucked_113","midi_source":""},{"t":138.959,"note":70,"dur":0.069,"vel":1.0,"inst":"cello_v0_plucked_113","midi_source":""},{"t":139.027,"note":73,"dur":0.069,"vel":1.0,"inst":"cello_v0_plucked_113","midi_source":""},{"t":139.027,"note":87,"dur":0.069,"vel":1.0,"inst":"synth_pluck_v0_blown_260","midi_source":""},{"t":139.096,"note":73,"dur":0.069,"vel":1.0,"inst":"cello_v0_plucked_113","midi_source":""},{"t":139.096,"note":89,"dur":0.069,"vel":1.0,"inst":"violin_v1_additive_535","midi_source":""},{"t":139.164,"note":70,"dur":0.069,"vel":1.0,"inst":"cello_v0_plucked_113","midi_source":""},{"t":139.164,"note":90,"dur":0.069,"vel":1.0,"inst":"synth_pluck_v0_blown_260","midi_source":""},{"t":139.233,"note":63,"dur":0.069,"vel":1.0,"inst":"synth_pluck_v0_blown_260","midi_source":""},{"t":139.233,"note":85,"dur":0.137,"vel":1.0,"inst":"cello_v0_plucked_113","midi_source":""},{"t":139.301,"note":66,"dur":0.069,"vel":1.0,"inst":"synth_pluck_v0_blown_260","midi_source":""},{"t":139.37,"note":58,"dur":0.069,"vel":1.0,"inst":"cello_v0_plucked_113","midi_source":""},{"t":139.37,"note":85,"dur":0.137,"vel":1.0,"inst":"cello_v0_plucked_113","midi_source":""},{"t":139.438,"note":70,"dur":0.069,"vel":1.0,"inst":"cello_v0_plucked_113","midi_source":""},{"t":139.507,"note":58,"dur":0.069,"vel":1.0,"inst":"cello_v0_plucked_113","midi_source":""},{"t":139.575,"note":66,"dur":0.069,"vel":1.0,"inst":"synth_pluck_v0_blown_260","midi_source":""},{"t":139.575,"note":82,"dur":0.069,"vel":1.0,"inst":"cello_v0_plucked_113","midi_source":""},{"t":139.644,"note":65,"dur":0.069,"vel":1.0,"inst":"violin_v1_additive_535","midi_source":""},{"t":139.644,"note":70,"dur":0.069,"vel":1.0,"inst":"cello_v0_plucked_113","midi_source":""},{"t":139.712,"note":63,"dur":0.069,"vel":1.0,"inst":"synth_pluck_v0_blown_260","midi_source":""},{"t":139.712,"note":78,"dur":0.069,"vel":1.0,"inst":"synth_pluck_v0_blown_260","midi_source":""},{"t":139.781,"note":65,"dur":0.069,"vel":1.0,"inst":"violin_v1_additive_535","midi_source":""},{"t":139.781,"note":70,"dur":0.069,"vel":1.0,"inst":"cello_v0_plucked_113","midi_source":""},{"t":139.849,"note":66,"dur":0.069,"vel":1.0,"inst":"synth_pluck_v0_blown_260","midi_source":""},{"t":139.849,"note":75,"dur":0.069,"vel":1.0,"inst":"synth_pluck_v0_blown_260","midi_source":""},{"t":139.918,"note":58,"dur":0.069,"vel":1.0,"inst":"cello_v0_plucked_113","midi_source":""},{"t":139.918,"note":77,"dur":0.069,"vel":1.0,"inst":"violin_v1_additive_535","midi_source":""},{"t":139.986,"note":63,"dur":0.069,"vel":1.0,"inst":"synth_pluck_v0_blown_260","midi_source":""},{"t":139.986,"note":73,"dur":0.069,"vel":1.0,"inst":"cello_v0_plucked_113","midi_source":""},{"t":140.055,"note":65,"dur":0.069,"vel":1.0,"inst":"violin_v1_additive_535","midi_source":""},{"t":140.055,"note":73,"dur":0.069,"vel":1.0,"inst":"cello_v0_plucked_113","midi_source":""},{"t":140.123,"note":70,"dur":0.069,"vel":1.0,"inst":"cello_v0_plucked_113","midi_source":""},{"t":140.123,"note":78,"dur":0.069,"vel":1.0,"inst":"synth_pluck_v0_blown_260","midi_source":""},{"t":140.192,"note":58,"dur":0.069,"vel":1.0,"inst":"cello_v0_plucked_113","midi_source":""},{"t":140.192,"note":77,"dur":0.069,"vel":1.0,"inst":"violin_v1_additive_535","midi_source":""},{"t":140.26,"note":66,"dur":0.069,"vel":1.0,"inst":"synth_pluck_v0_blown_260","midi_source":""},{"t":140.26,"note":75,"dur":0.069,"vel":1.0,"inst":"synth_pluck_v0_blown_260","midi_source":""},{"t":140.329,"note":58,"dur":0.069,"vel":1.0,"inst":"cello_v0_plucked_113","midi_source":""},{"t":140.329,"note":77,"dur":0.069,"vel":1.0,"inst":"violin_v1_additive_535","midi_source":""},{"t":140.397,"note":63,"dur":0.069,"vel":1.0,"inst":"synth_pluck_v0_blown_260","midi_source":""},{"t":140.397,"note":73,"dur":0.069,"vel":1.0,"inst":"cello_v0_plucked_113","midi_source":""},{"t":140.466,"note":65,"dur":0.069,"vel":1.0,"inst":"violin_v1_additive_535","midi_source":""},{"t":140.466,"note":73,"dur":0.069,"vel":1.0,"inst":"cello_v0_plucked_113","midi_source":""},{"t":140.534,"note":60,"dur":0.069,"vel":1.0,"inst":"synth_pluck_v0_blown_260","midi_source":""},{"t":140.534,"note":58,"dur":0.069,"vel":1.0,"inst":"cello_v0_plucked_113","midi_source":""},{"t":140.603,"note":61,"dur":0.069,"vel":1.0,"inst":"cello_v0_plucked_113","midi_source":""},{"t":140.603,"note":70,"dur":0.069,"vel":1.0,"inst":"cello_v0_plucked_113","midi_source":""},{"t":140.671,"note":66,"dur":0.069,"vel":1.0,"inst":"synth_pluck_v0_blown_260","midi_source":""},{"t":140.671,"note":75,"dur":0.069,"vel":1.0,"inst":"synth_pluck_v0_blown_260","midi_source":""},{"t":140.74,"note":65,"dur":0.069,"vel":1.0,"inst":"violin_v1_additive_535","midi_source":""},{"t":140.74,"note":73,"dur":0.069,"vel":1.0,"inst":"cello_v0_plucked_113","midi_source":""},{"t":140.808,"note":63,"dur":0.069,"vel":1.0,"inst":"synth_pluck_v0_blown_260","midi_source":""},{"t":140.808,"note":73,"dur":0.069,"vel":1.0,"inst":"cello_v0_plucked_113","midi_source":""},{"t":140.877,"note":65,"dur":0.069,"vel":1.0,"inst":"violin_v1_additive_535","midi_source":""},{"t":140.877,"note":73,"dur":0.069,"vel":1.0,"inst":"cello_v0_plucked_113","midi_source":""},{"t":140.945,"note":61,"dur":0.069,"vel":1.0,"inst":"cello_v0_plucked_113","midi_source":""},{"t":140.945,"note":58,"dur":0.069,"vel":1.0,"inst":"cello_v0_plucked_113","midi_source":""},{"t":141.014,"note":61,"dur":0.069,"vel":1.0,"inst":"cello_v0_plucked_113","midi_source":""},{"t":141.014,"note":70,"dur":0.069,"vel":1.0,"inst":"cello_v0_plucked_113","midi_source":""},{"t":141.082,"note":46,"dur":0.069,"vel":1.0,"inst":"cello_v0_plucked_113","midi_source":""},{"t":141.082,"note":66,"dur":0.069,"vel":1.0,"inst":"synth_pluck_v0_blown_260","midi_source":""},{"t":141.151,"note":58,"dur":0.069,"vel":1.0,"inst":"cello_v0_plucked_113","midi_source":""},{"t":141.151,"note":60,"dur":0.069,"vel":1.0,"inst":"synth_pluck_v0_blown_260","midi_source":""},{"t":141.151,"note":66,"dur":0.069,"vel":1.0,"inst":"synth_pluck_v0_blown_260","midi_source":""},{"t":141.219,"note":61,"dur":0.069,"vel":1.0,"inst":"cello_v0_plucked_113","midi_source":""},{"t":141.219,"note":72,"dur":0.069,"vel":1.0,"inst":"synth_pluck_v0_blown_260","midi_source":""},{"t":141.288,"note":54,"dur":0.069,"vel":1.0,"inst":"synth_pluck_v0_blown_260","midi_source":""},{"t":141.288,"note":46,"dur":0.069,"vel":1.0,"inst":"cello_v0_plucked_113","midi_source":""},{"t":141.288,"note":70,"dur":0.069,"vel":1.0,"inst":"cello_v0_plucked_113","midi_source":""},{"t":141.356,"note":58,"dur":0.069,"vel":1.0,"inst":"cello_v0_plucked_113","midi_source":""},{"t":141.356,"note":58,"dur":0.069,"vel":1.0,"inst":"cello_v0_plucked_113","midi_source":""},{"t":141.425,"note":49,"dur":0.274,"vel":1.0,"inst":"cello_v0_plucked_113","midi_source":""},{"t":141.425,"note":70,"dur":0.069,"vel":1.0,"inst":"cello_v0_plucked_113","midi_source":""},{"t":141.493,"note":66,"dur":0.069,"vel":1.0,"inst":"synth_pluck_v0_blown_260","midi_source":""},{"t":141.562,"note":58,"dur":0.069,"vel":1.0,"inst":"cello_v0_plucked_113","midi_source":""},{"t":141.63,"note":73,"dur":0.069,"vel":1.0,"inst":"cello_v0_plucked_113","midi_source":""},{"t":141.699,"note":75,"dur":0.069,"vel":1.0,"inst":"synth_pluck_v0_blown_260","midi_source":""},{"t":141.767,"note":70,"dur":0.069,"vel":1.0,"inst":"cello_v0_plucked_113","midi_source":""},{"t":141.836,"note":34,"dur":0.137,"vel":1.0,"inst":"cello_v0_plucked_113","midi_source":""},{"t":141.836,"note":58,"dur":0.069,"vel":1.0,"inst":"cello_v0_plucked_113","midi_source":""},{"t":141.904,"note":66,"dur":0.069,"vel":1.0,"inst":"synth_pluck_v0_blown_260","midi_source":""},{"t":141.973,"note":49,"dur":0.137,"vel":1.0,"inst":"cello_v0_plucked_113","midi_source":""},{"t":141.973,"note":65,"dur":0.069,"vel":1.0,"inst":"violin_v1_additive_535","midi_source":""},{"t":142.041,"note":58,"dur":0.069,"vel":1.0,"inst":"cello_v0_plucked_113","midi_source":""},{"t":142.11,"note":65,"dur":0.137,"vel":1.0,"inst":"violin_v1_additive_535","midi_source":""},{"t":142.11,"note":73,"dur":0.069,"vel":1.0,"inst":"cello_v0_plucked_113","midi_source":""},{"t":142.178,"note":77,"dur":0.137,"vel":1.0,"inst":"violin_v1_additive_535","midi_source":""},{"t":142.247,"note":58,"dur":0.137,"vel":1.0,"inst":"cello_v0_plucked_113","midi_source":""},{"t":142.315,"note":73,"dur":0.069,"vel":1.0,"inst":"cello_v0_plucked_113","midi_source":""},{"t":142.384,"note":46,"dur":0.137,"vel":1.0,"inst":"cello_v0_plucked_113","midi_source":""},{"t":142.384,"note":73,"dur":0.069,"vel":1.0,"inst":"cello_v0_plucked_113","midi_source":""},{"t":142.452,"note":65,"dur":0.069,"vel":1.0,"inst":"violin_v1_additive_535","midi_source":""},{"t":142.521,"note":51,"dur":0.137,"vel":1.0,"inst":"synth_pluck_v0_blown_260","midi_source":""},{"t":142.521,"note":66,"dur":0.069,"vel":1.0,"inst":"synth_pluck_v0_blown_260","midi_source":""},{"t":142.589,"note":70,"dur":0.069,"vel":1.0,"inst":"cello_v0_plucked_113","midi_source":""},{"t":142.658,"note":66,"dur":0.137,"vel":1.0,"inst":"synth_pluck_v0_blown_260","midi_source":""},{"t":142.658,"note":73,"dur":0.069,"vel":1.0,"inst":"cello_v0_plucked_113","midi_source":""},{"t":142.726,"note":77,"dur":0.069,"vel":1.0,"inst":"violin_v1_additive_535","midi_source":""},{"t":142.795,"note":58,"dur":0.137,"vel":1.0,"inst":"cello_v0_plucked_113","midi_source":""},{"t":142.863,"note":73,"dur":0.069,"vel":1.0,"inst":"cello_v0_plucked_113","midi_source":""},{"t":142.932,"note":46,"dur":0.137,"vel":1.0,"inst":"cello_v0_plucked_113","midi_source":""},{"t":142.932,"note":73,"dur":0.069,"vel":1.0,"inst":"cello_v0_plucked_113","midi_source":""},{"t":143.0,"note":66,"dur":0.069,"vel":1.0,"inst":"synth_pluck_v0_blown_260","midi_source":""},{"t":143.069,"note":53,"dur":0.137,"vel":1.0,"inst":"violin_v1_additive_535","midi_source":""},{"t":143.069,"note":58,"dur":0.069,"vel":1.0,"inst":"cello_v0_plucked_113","midi_source":""},{"t":143.137,"note":73,"dur":0.069,"vel":1.0,"inst":"cello_v0_plucked_113","midi_source":""},{"t":143.206,"note":58,"dur":0.137,"vel":1.0,"inst":"cello_v0_plucked_113","midi_source":""},{"t":143.206,"note":73,"dur":0.069,"vel":1.0,"inst":"cello_v0_plucked_113","midi_source":""},{"t":143.274,"note":61,"dur":0.069,"vel":1.0,"inst":"cello_v0_plucked_113","midi_source":""},{"t":143.274,"note":70,"dur":0.069,"vel":1.0,"inst":"cello_v0_plucked_113","midi_source":""},{"t":143.343,"note":63,"dur":0.137,"vel":1.0,"inst":"synth_pluck_v0_blown_260","midi_source":""},{"t":143.343,"note":72,"dur":0.069,"vel":1.0,"inst":"synth_pluck_v0_blown_260","midi_source":""},{"t":143.411,"note":82,"dur":0.069,"vel":1.0,"inst":"cello_v0_plucked_113","midi_source":""},{"t":143.48,"note":60,"dur":0.137,"vel":1.0,"inst":"synth_pluck_v0_blown_260","midi_source":""},{"t":143.48,"note":70,"dur":0.069,"vel":1.0,"inst":"cello_v0_plucked_113","midi_source":""},{"t":143.548,"note":78,"dur":0.069,"vel":1.0,"inst":"synth_pluck_v0_blown_260","midi_source":""},{"t":143.617,"note":61,"dur":0.137,"vel":1.0,"inst":"cello_v0_plucked_113","midi_source":""},{"t":143.617,"note":78,"dur":0.206,"vel":1.0,"inst":"synth_pluck_v0_blown_260","midi_source":""},{"t":143.754,"note":49,"dur":0.137,"vel":1.0,"inst":"cello_v0_plucked_113","midi_source":""},{"t":143.822,"note":75,"dur":0.069,"vel":1.0,"inst":"synth_pluck_v0_blown_260","midi_source":""},{"t":143.891,"note":73,"dur":0.137,"vel":1.0,"inst":"cello_v0_plucked_113","midi_source":""},{"t":143.96,"note":60,"dur":0.069,"vel":1.0,"inst":"synth_pluck_v0_blown_260","midi_source":""},{"t":144.028,"note":58,"dur":0.069,"vel":1.0,"inst":"cello_v0_plucked_113","midi_source":""},{"t":144.028,"note":78,"dur":0.137,"vel":1.0,"inst":"synth_pluck_v0_blown_260","midi_source":""},{"t":144.097,"note":46,"dur":0.069,"vel":1.0,"inst":"cello_v0_plucked_113","midi_source":""},{"t":144.165,"note":58,"dur":0.069,"vel":1.0,"inst":"cello_v0_plucked_113","midi_source":""},{"t":144.165,"note":78,"dur":0.069,"vel":1.0,"inst":"synth_pluck_v0_blown_260","midi_source":""},{"t":144.234,"note":53,"dur":0.069,"vel":1.0,"inst":"violin_v1_additive_535","midi_source":""},{"t":144.234,"note":70,"dur":0.069,"vel":1.0,"inst":"cello_v0_plucked_113","midi_source":""},{"t":144.302,"note":54,"dur":0.069,"vel":1.0,"inst":"synth_pluck_v0_blown_260","midi_source":""},{"t":144.302,"note":82,"dur":0.137,"vel":1.0,"inst":"cello_v0_plucked_113","midi_source":""},{"t":144.371,"note":49,"dur":0.069,"vel":1.0,"inst":"cello_v0_plucked_113","midi_source":""},{"t":144.439,"note":51,"dur":0.069,"vel":1.0,"inst":"synth_pluck_v0_blown_260","midi_source":""},{"t":144.439,"note":72,"dur":0.069,"vel":1.0,"inst":"synth_pluck_v0_blown_260","midi_source":""},{"t":144.508,"note":61,"dur":0.069,"vel":1.0,"inst":"cello_v0_plucked_113","midi_source":""},{"t":144.508,"note":82,"dur":0.069,"vel":1.0,"inst":"cello_v0_plucked_113","midi_source":""},{"t":144.576,"note":60,"dur":0.069,"vel":1.0,"inst":"synth_pluck_v0_blown_260","midi_source":""},{"t":144.576,"note":70,"dur":0.069,"vel":1.0,"inst":"cello_v0_plucked_113","midi_source":""},{"t":144.645,"note":58,"dur":0.069,"vel":1.0,"inst":"cello_v0_plucked_113","midi_source":""},{"t":144.645,"note":78,"dur":0.069,"vel":1.0,"inst":"synth_pluck_v0_blown_260","midi_source":""},{"t":144.713,"note":60,"dur":0.069,"vel":1.0,"inst":"synth_pluck_v0_blown_260","midi_source":""},{"t":144.713,"note":70,"dur":0.069,"vel":1.0,"inst":"cello_v0_plucked_113","midi_source":""},{"t":144.782,"note":54,"dur":0.069,"vel":1.0,"inst":"synth_pluck_v0_blown_260","midi_source":""},{"t":144.782,"note":82,"dur":0.069,"vel":1.0,"inst":"cello_v0_plucked_113","midi_source":""},{"t":144.85,"note":46,"dur":0.069,"vel":1.0,"inst":"cello_v0_plucked_113","midi_source":""},{"t":144.85,"note":84,"dur":0.137,"vel":1.0,"inst":"synth_pluck_v0_blown_260","midi_source":""},{"t":144.919,"note":51,"dur":0.069,"vel":1.0,"inst":"synth_pluck_v0_blown_260","midi_source":""},{"t":144.987,"note":54,"dur":0.069,"vel":1.0,"inst":"synth_pluck_v0_blown_260","midi_source":""},{"t":144.987,"note":73,"dur":0.069,"vel":1.0,"inst":"cello_v0_plucked_113","midi_source":""},{"t":145.056,"note":63,"dur":0.069,"vel":1.0,"inst":"synth_pluck_v0_blown_260","midi_source":""},{"t":145.056,"note":84,"dur":0.069,"vel":1.0,"inst":"synth_pluck_v0_blown_260","midi_source":""},{"t":145.124,"note":61,"dur":0.069,"vel":1.0,"inst":"cello_v0_plucked_113","midi_source":""},{"t":145.124,"note":82,"dur":0.069,"vel":1.0,"inst":"cello_v0_plucked_113","midi_source":""},{"t":145.193,"note":60,"dur":0.069,"vel":1.0,"inst":"synth_pluck_v0_blown_260","midi_source":""},{"t":145.193,"note":70,"dur":0.069,"vel":1.0,"inst":"cello_v0_plucked_113","midi_source":""},{"t":145.261,"note":61,"dur":0.069,"vel":1.0,"inst":"cello_v0_plucked_113","midi_source":""},{"t":145.261,"note":82,"dur":0.069,"vel":1.0,"inst":"cello_v0_plucked_113","midi_source":""},{"t":145.33,"note":46,"dur":0.069,"vel":1.0,"inst":"cello_v0_plucked_113","midi_source":""},{"t":145.33,"note":84,"dur":0.069,"vel":1.0,"inst":"synth_pluck_v0_blown_260","midi_source":""},{"t":145.398,"note":58,"dur":0.069,"vel":1.0,"inst":"cello_v0_plucked_113","midi_source":""},{"t":145.398,"note":85,"dur":0.137,"vel":1.0,"inst":"cello_v0_plucked_113","midi_source":""},{"t":145.467,"note":54,"dur":0.069,"vel":1.0,"inst":"synth_pluck_v0_blown_260","midi_source":""},{"t":145.535,"note":54,"dur":0.069,"vel":1.0,"inst":"synth_pluck_v0_blown_260","midi_source":""},{"t":145.535,"note":75,"dur":0.069,"vel":1.0,"inst":"synth_pluck_v0_blown_260","midi_source":""},{"t":145.604,"note":65,"dur":0.069,"vel":1.0,"inst":"violin_v1_additive_535","midi_source":""},{"t":145.604,"note":85,"dur":0.069,"vel":1.0,"inst":"cello_v0_plucked_113","midi_source":""},{"t":145.672,"note":63,"dur":0.069,"vel":1.0,"inst":"synth_pluck_v0_blown_260","midi_source":""},{"t":145.672,"note":84,"dur":0.069,"vel":1.0,"inst":"synth_pluck_v0_blown_260","midi_source":""},{"t":145.741,"note":61,"dur":0.069,"vel":1.0,"inst":"cello_v0_plucked_113","midi_source":""},{"t":145.741,"note":82,"dur":0.069,"vel":1.0,"inst":"cello_v0_plucked_113","midi_source":""},{"t":145.809,"note":63,"dur":0.069,"vel":1.0,"inst":"synth_pluck_v0_blown_260","midi_source":""},{"t":145.809,"note":84,"dur":0.069,"vel":1.0,"inst":"synth_pluck_v0_blown_260","midi_source":""},{"t":145.878,"note":58,"dur":0.069,"vel":1.0,"inst":"cello_v0_plucked_113","midi_source":""},{"t":145.878,"note":85,"dur":0.069,"vel":1.0,"inst":"cello_v0_plucked_113","midi_source":""},{"t":145.946,"note":60,"dur":0.069,"vel":1.0,"inst":"synth_pluck_v0_blown_260","midi_source":""},{"t":145.946,"note":87,"dur":0.137,"vel":1.0,"inst":"synth_pluck_v0_blown_260","midi_source":""},{"t":146.015,"note":54,"dur":0.069,"vel":1.0,"inst":"synth_pluck_v0_blown_260","midi_source":""},{"t":146.083,"note":46,"dur":0.137,"vel":1.0,"inst":"cello_v0_plucked_113","midi_source":""},{"t":146.083,"note":78,"dur":0.069,"vel":1.0,"inst":"synth_pluck_v0_blown_260","midi_source":""},{"t":146.152,"note":87,"dur":0.069,"vel":1.0,"inst":"synth_pluck_v0_blown_260","midi_source":""},{"t":146.22,"note":66,"dur":0.137,"vel":1.0,"inst":"synth_pluck_v0_blown_260","midi_source":""},{"t":146.22,"note":85,"dur":0.069,"vel":1.0,"inst":"cello_v0_plucked_113","midi_source":""},{"t":146.289,"note":84,"dur":0.069,"vel":1.0,"inst":"synth_pluck_v0_blown_260","midi_source":""},{"t":146.357,"note":66,"dur":0.137,"vel":1.0,"inst":"synth_pluck_v0_blown_260","midi_source":""},{"t":146.357,"note":82,"dur":0.069,"vel":1.0,"inst":"cello_v0_plucked_113","midi_source":""},{"t":146.426,"note":78,"dur":0.069,"vel":1.0,"inst":"synth_pluck_v0_blown_260","midi_source":""},{"t":146.494,"note":70,"dur":0.137,"vel":1.0,"inst":"cello_v0_plucked_113","midi_source":""},{"t":146.494,"note":78,"dur":0.069,"vel":1.0,"inst":"synth_pluck_v0_blown_260","midi_source":""},{"t":146.563,"note":73,"dur":0.069,"vel":1.0,"inst":"cello_v0_plucked_113","midi_source":""},{"t":146.631,"note":60,"dur":0.137,"vel":1.0,"inst":"synth_pluck_v0_blown_260","midi_source":""},{"t":146.631,"note":75,"dur":0.069,"vel":1.0,"inst":"synth_pluck_v0_blown_260","midi_source":""},{"t":146.7,"note":70,"dur":0.069,"vel":1.0,"inst":"cello_v0_plucked_113","midi_source":""},{"t":146.768,"note":63,"dur":0.137,"vel":1.0,"inst":"synth_pluck_v0_blown_260","midi_source":""},{"t":146.768,"note":72,"dur":0.069,"vel":1.0,"inst":"synth_pluck_v0_blown_260","midi_source":""},{"t":146.837,"note":78,"dur":0.069,"vel":1.0,"inst":"synth_pluck_v0_blown_260","midi_source":""},{"t":146.905,"note":54,"dur":0.137,"vel":1.0,"inst":"synth_pluck_v0_blown_260","midi_source":""},{"t":146.905,"note":70,"dur":0.069,"vel":1.0,"inst":"cello_v0_plucked_113","midi_source":""},{"t":146.974,"note":73,"dur":0.069,"vel":1.0,"inst":"cello_v0_plucked_113","midi_source":""},{"t":147.042,"note":46,"dur":0.137,"vel":1.0,"inst":"cello_v0_plucked_113","midi_source":""},{"t":147.042,"note":75,"dur":0.069,"vel":1.0,"inst":"synth_pluck_v0_blown_260","midi_source":""},{"t":147.111,"note":72,"dur":0.069,"vel":1.0,"inst":"synth_pluck_v0_blown_260","midi_source":""},{"t":147.179,"note":48,"dur":0.137,"vel":1.0,"inst":"synth_pluck_v0_blown_260","midi_source":""},{"t":147.179,"note":73,"dur":0.069,"vel":1.0,"inst":"cello_v0_plucked_113","midi_source":""},{"t":147.248,"note":58,"dur":0.069,"vel":1.0,"inst":"cello_v0_plucked_113","midi_source":""},{"t":147.316,"note":49,"dur":0.137,"vel":1.0,"inst":"cello_v0_plucked_113","midi_source":""},{"t":147.316,"note":70,"dur":0.069,"vel":1.0,"inst":"cello_v0_plucked_113","midi_source":""},{"t":147.385,"note":78,"dur":0.069,"vel":1.0,"inst":"synth_pluck_v0_blown_260","midi_source":""},{"t":147.453,"note":51,"dur":0.137,"vel":1.0,"inst":"synth_pluck_v0_blown_260","midi_source":""},{"t":147.453,"note":78,"dur":0.069,"vel":1.0,"inst":"synth_pluck_v0_blown_260","midi_source":""},{"t":147.522,"note":72,"dur":0.069,"vel":1.0,"inst":"synth_pluck_v0_blown_260","midi_source":""},{"t":147.522,"note":73,"dur":0.069,"vel":1.0,"inst":"cello_v0_plucked_113","midi_source":""},{"t":147.59,"note":48,"dur":0.137,"vel":1.0,"inst":"synth_pluck_v0_blown_260","midi_source":""},{"t":147.59,"note":75,"dur":0.069,"vel":1.0,"inst":"synth_pluck_v0_blown_260","midi_source":""},{"t":147.659,"note":72,"dur":0.069,"vel":1.0,"inst":"synth_pluck_v0_blown_260","midi_source":""},{"t":147.727,"note":49,"dur":0.137,"vel":1.0,"inst":"cello_v0_plucked_113","midi_source":""},{"t":147.727,"note":58,"dur":0.069,"vel":1.0,"inst":"cello_v0_plucked_113","midi_source":""},{"t":147.796,"note":72,"dur":0.069,"vel":1.0,"inst":"synth_pluck_v0_blown_260","midi_source":""},{"t":147.864,"note":61,"dur":0.137,"vel":1.0,"inst":"cello_v0_plucked_113","midi_source":""},{"t":147.864,"note":78,"dur":0.069,"vel":1.0,"inst":"synth_pluck_v0_blown_260","midi_source":""},{"t":147.933,"note":78,"dur":0.069,"vel":1.0,"inst":"synth_pluck_v0_blown_260","midi_source":""},{"t":148.001,"note":54,"dur":0.137,"vel":1.0,"inst":"synth_pluck_v0_blown_260","midi_source":""},{"t":148.001,"note":78,"dur":0.069,"vel":1.0,"inst":"synth_pluck_v0_blown_260","midi_source":""},{"t":148.07,"note":72,"dur":0.069,"vel":1.0,"inst":"synth_pluck_v0_blown_260","midi_source":""},{"t":148.138,"note":61,"dur":0.137,"vel":1.0,"inst":"cello_v0_plucked_113","midi_source":""},{"t":148.138,"note":70,"dur":0.069,"vel":1.0,"inst":"cello_v0_plucked_113","midi_source":""},{"t":148.207,"note":58,"dur":0.069,"vel":1.0,"inst":"cello_v0_plucked_113","midi_source":""},{"t":148.275,"note":66,"dur":0.137,"vel":1.0,"inst":"synth_pluck_v0_blown_260","midi_source":""},{"t":148.275,"note":70,"dur":0.069,"vel":1.0,"inst":"cello_v0_plucked_113","midi_source":""},{"t":148.344,"note":78,"dur":0.069,"vel":1.0,"inst":"synth_pluck_v0_blown_260","midi_source":""},{"t":148.412,"note":58,"dur":0.137,"vel":1.0,"inst":"cello_v0_plucked_113","midi_source":""},{"t":148.412,"note":77,"dur":0.069,"vel":1.0,"inst":"violin_v1_additive_535","midi_source":""},{"t":148.481,"note":75,"dur":0.069,"vel":1.0,"inst":"synth_pluck_v0_blown_260","midi_source":""},{"t":148.549,"note":66,"dur":0.206,"vel":1.0,"inst":"synth_pluck_v0_blown_260","midi_source":""},{"t":148.549,"note":73,"dur":0.069,"vel":1.0,"inst":"cello_v0_plucked_113","midi_source":""},{"t":148.618,"note":78,"dur":0.069,"vel":1.0,"inst":"synth_pluck_v0_blown_260","midi_source":""},{"t":148.618,"note":70,"dur":0.069,"vel":1.0,"inst":"cello_v0_plucked_113","midi_source":""},{"t":148.686,"note":82,"dur":0.069,"vel":1.0,"inst":"cello_v0_plucked_113","midi_source":""},{"t":148.755,"note":60,"dur":0.069,"vel":1.0,"inst":"synth_pluck_v0_blown_260","midi_source":""},{"t":148.755,"note":61,"dur":0.069,"vel":1.0,"inst":"cello_v0_plucked_113","midi_source":""},{"t":148.755,"note":78,"dur":0.069,"vel":1.0,"inst":"synth_pluck_v0_blown_260","midi_source":""},{"t":148.823,"note":58,"dur":0.069,"vel":1.0,"inst":"cello_v0_plucked_113","midi_source":""},{"t":148.823,"note":60,"dur":0.069,"vel":1.0,"inst":"synth_pluck_v0_blown_260","midi_source":""},{"t":148.823,"note":73,"dur":0.137,"vel":1.0,"inst":"cello_v0_plucked_113","midi_source":""},{"t":148.892,"note":61,"dur":0.069,"vel":1.0,"inst":"cello_v0_plucked_113","midi_source":""},{"t":148.96,"note":54,"dur":0.069,"vel":1.0,"inst":"synth_pluck_v0_blown_260","midi_source":""},{"t":148.96,"note":46,"dur":0.069,"vel":1.0,"inst":"cello_v0_plucked_113","midi_source":""},{"t":148.96,"note":75,"dur":0.137,"vel":1.0,"inst":"synth_pluck_v0_blown_260","midi_source":""},{"t":149.029,"note":58,"dur":0.069,"vel":1.0,"inst":"cello_v0_plucked_113","midi_source":""},{"t":149.097,"note":49,"dur":0.206,"vel":1.0,"inst":"cello_v0_plucked_113","midi_source":""},{"t":149.097,"note":77,"dur":0.069,"vel":1.0,"inst":"violin_v1_additive_535","midi_source":""},{"t":149.166,"note":72,"dur":0.069,"vel":1.0,"inst":"synth_pluck_v0_blown_260","midi_source":""},{"t":149.234,"note":73,"dur":0.069,"vel":1.0,"inst":"cello_v0_plucked_113","midi_source":""},{"t":149.303,"note":51,"dur":0.069,"vel":1.0,"inst":"synth_pluck_v0_blown_260","midi_source":""},{"t":149.303,"note":53,"dur":0.069,"vel":1.0,"inst":"violin_v1_additive_535","midi_source":""},{"t":149.303,"note":58,"dur":0.069,"vel":1.0,"inst":"cello_v0_plucked_113","midi_source":""},{"t":149.371,"note":49,"dur":0.069,"vel":1.0,"inst":"cello_v0_plucked_113","midi_source":""},{"t":149.371,"note":51,"dur":0.069,"vel":1.0,"inst":"synth_pluck_v0_blown_260","midi_source":""},{"t":149.371,"note":70,"dur":0.137,"vel":1.0,"inst":"cello_v0_plucked_113","midi_source":""},{"t":149.44,"note":53,"dur":0.069,"vel":1.0,"inst":"violin_v1_additive_535","midi_source":""},{"t":149.508,"note":46,"dur":0.069,"vel":1.0,"inst":"cello_v0_plucked_113","midi_source":""},{"t":149.508,"note":48,"dur":0.069,"vel":1.0,"inst":"synth_pluck_v0_blown_260","midi_source":""},{"t":149.508,"note":85,"dur":0.206,"vel":1.0,"inst":"cello_v0_plucked_113","midi_source":""},{"t":149.577,"note":49,"dur":0.069,"vel":1.0,"inst":"cello_v0_plucked_113","midi_source":""},{"t":149.645,"note":39,"dur":0.137,"vel":1.0,"inst":"synth_pluck_v0_blown_260","midi_source":""},{"t":149.714,"note":78,"dur":0.069,"vel":1.0,"inst":"synth_pluck_v0_blown_260","midi_source":""},{"t":149.714,"note":70,"dur":0.069,"vel":1.0,"inst":"cello_v0_plucked_113","midi_source":""},{"t":149.782,"note":42,"dur":0.137,"vel":1.0,"inst":"synth_pluck_v0_blown_260","midi_source":""},{"t":149.782,"note":82,"dur":0.069,"vel":1.0,"inst":"cello_v0_plucked_113","midi_source":""},{"t":149.851,"note":78,"dur":0.069,"vel":1.0,"inst":"synth_pluck_v0_blown_260","midi_source":""},{"t":149.919,"note":48,"dur":0.137,"vel":1.0,"inst":"synth_pluck_v0_blown_260","midi_source":""},{"t":149.919,"note":75,"dur":0.069,"vel":1.0,"inst":"synth_pluck_v0_blown_260","midi_source":""},{"t":149.988,"note":84,"dur":0.069,"vel":1.0,"inst":"synth_pluck_v0_blown_260","midi_source":""},{"t":150.056,"note":51,"dur":0.137,"vel":1.0,"inst":"synth_pluck_v0_blown_260","midi_source":""},{"t":150.056,"note":78,"dur":0.069,"vel":1.0,"inst":"synth_pluck_v0_blown_260","midi_source":""},{"t":150.056,"note":70,"dur":0.069,"vel":1.0,"inst":"cello_v0_plucked_113","midi_source":""},{"t":150.125,"note":82,"dur":0.069,"vel":1.0,"inst":"cello_v0_plucked_113","midi_source":""},{"t":150.193,"note":53,"dur":0.206,"vel":1.0,"inst":"violin_v1_additive_535","midi_source":""},{"t":150.193,"note":70,"dur":0.069,"vel":1.0,"inst":"cello_v0_plucked_113","midi_source":""},{"t":150.262,"note":75,"dur":0.069,"vel":1.0,"inst":"synth_pluck_v0_blown_260","midi_source":""},{"t":150.33,"note":77,"dur":0.137,"vel":1.0,"inst":"violin_v1_additive_535","midi_source":""},{"t":150.399,"note":70,"dur":0.069,"vel":1.0,"inst":"cello_v0_plucked_113","midi_source":""},{"t":150.399,"note":72,"dur":0.069,"vel":1.0,"inst":"synth_pluck_v0_blown_260","midi_source":""},{"t":150.467,"note":58,"dur":0.069,"vel":1.0,"inst":"cello_v0_plucked_113","midi_source":""},{"t":150.467,"note":70,"dur":0.069,"vel":1.0,"inst":"cello_v0_plucked_113","midi_source":""},{"t":150.536,"note":72,"dur":0.069,"vel":1.0,"inst":"synth_pluck_v0_blown_260","midi_source":""},{"t":150.604,"note":65,"dur":0.069,"vel":1.0,"inst":"violin_v1_additive_535","midi_source":""},{"t":150.604,"note":66,"dur":0.069,"vel":1.0,"inst":"synth_pluck_v0_blown_260","midi_source":""},{"t":150.604,"note":73,"dur":0.137,"vel":1.0,"inst":"cello_v0_plucked_113","midi_source":""},{"t":150.604,"note":70,"dur":0.137,"vel":1.0,"inst":"cello_v0_plucked_113","midi_source":""},{"t":150.673,"note":58,"dur":0.069,"vel":1.0,"inst":"cello_v0_plucked_113","midi_source":""},{"t":150.741,"note":58,"dur":0.069,"vel":1.0,"inst":"cello_v0_plucked_113","midi_source":""},{"t":150.741,"note":70,"dur":0.137,"vel":1.0,"inst":"cello_v0_plucked_113","midi_source":""},{"t":150.81,"note":61,"dur":0.069,"vel":1.0,"inst":"cello_v0_plucked_113","midi_source":""},{"t":150.878,"note":63,"dur":0.069,"vel":1.0,"inst":"synth_pluck_v0_blown_260","midi_source":""},{"t":150.878,"note":78,"dur":0.206,"vel":1.0,"inst":"synth_pluck_v0_blown_260","midi_source":""},{"t":150.947,"note":65,"dur":0.069,"vel":1.0,"inst":"violin_v1_additive_535","midi_source":""},{"t":151.015,"note":66,"dur":0.069,"vel":1.0,"inst":"synth_pluck_v0_blown_260","midi_source":""},{"t":151.084,"note":58,"dur":0.069,"vel":1.0,"inst":"cello_v0_plucked_113","midi_source":""},{"t":151.084,"note":85,"dur":0.069,"vel":1.0,"inst":"cello_v0_plucked_113","midi_source":""},{"t":151.152,"note":70,"dur":0.069,"vel":1.0,"inst":"cello_v0_plucked_113","midi_source":""},{"t":151.152,"note":85,"dur":0.069,"vel":1.0,"inst":"cello_v0_plucked_113","midi_source":""},{"t":151.221,"note":66,"dur":0.069,"vel":1.0,"inst":"synth_pluck_v0_blown_260","midi_source":""},{"t":151.221,"note":87,"dur":0.069,"vel":1.0,"inst":"synth_pluck_v0_blown_260","midi_source":""},{"t":151.289,"note":61,"dur":0.069,"vel":1.0,"inst":"cello_v0_plucked_113","midi_source":""},{"t":151.289,"note":82,"dur":0.137,"vel":1.0,"inst":"cello_v0_plucked_113","midi_source":""},{"t":151.358,"note":63,"dur":0.069,"vel":1.0,"inst":"synth_pluck_v0_blown_260","midi_source":""},{"t":151.426,"note":65,"dur":0.069,"vel":1.0,"inst":"violin_v1_additive_535","midi_source":""},{"t":151.426,"note":70,"dur":0.137,"vel":1.0,"inst":"cello_v0_plucked_113","midi_source":""},{"t":151.495,"note":66,"dur":0.069,"vel":1.0,"inst":"synth_pluck_v0_blown_260","midi_source":""},{"t":151.563,"note":58,"dur":0.069,"vel":1.0,"inst":"cello_v0_plucked_113","midi_source":""},{"t":151.632,"note":70,"dur":0.069,"vel":1.0,"inst":"cello_v0_plucked_113","midi_source":""},{"t":151.632,"note":85,"dur":0.069,"vel":1.0,"inst":"cello_v0_plucked_113","midi_source":""},{"t":151.7,"note":73,"dur":0.069,"vel":1.0,"inst":"cello_v0_plucked_113","midi_source":""},{"t":151.7,"note":87,"dur":0.069,"vel":1.0,"inst":"synth_pluck_v0_blown_260","midi_source":""},{"t":151.769,"note":58,"dur":0.069,"vel":1.0,"inst":"cello_v0_plucked_113","midi_source":""},{"t":151.769,"note":89,"dur":0.069,"vel":1.0,"inst":"violin_v1_additive_535","midi_source":""},{"t":151.837,"note":61,"dur":0.069,"vel":1.0,"inst":"cello_v0_plucked_113","midi_source":""},{"t":151.837,"note":84,"dur":0.137,"vel":1.0,"inst":"synth_pluck_v0_blown_260","midi_source":""},{"t":151.906,"note":65,"dur":0.069,"vel":1.0,"inst":"violin_v1_additive_535","midi_source":""},{"t":151.974,"note":66,"dur":0.069,"vel":1.0,"inst":"synth_pluck_v0_blown_260","midi_source":""},{"t":151.974,"note":82,"dur":0.206,"vel":1.0,"inst":"cello_v0_plucked_113","midi_source":""},{"t":152.043,"note":58,"dur":0.069,"vel":1.0,"inst":"cello_v0_plucked_113","midi_source":""},{"t":152.111,"note":70,"dur":0.069,"vel":1.0,"inst":"cello_v0_plucked_113","midi_source":""},{"t":152.18,"note":73,"dur":0.069,"vel":1.0,"inst":"cello_v0_plucked_113","midi_source":""},{"t":152.18,"note":87,"dur":0.069,"vel":1.0,"inst":"synth_pluck_v0_blown_260","midi_source":""},{"t":152.248,"note":73,"dur":0.069,"vel":1.0,"inst":"cello_v0_plucked_113","midi_source":""},{"t":152.248,"note":89,"dur":0.069,"vel":1.0,"inst":"violin_v1_additive_535","midi_source":""},{"t":152.317,"note":70,"dur":0.069,"vel":1.0,"inst":"cello_v0_plucked_113","midi_source":""},{"t":152.317,"note":90,"dur":0.069,"vel":1.0,"inst":"synth_pluck_v0_blown_260","midi_source":""},{"t":152.385,"note":63,"dur":0.069,"vel":1.0,"inst":"synth_pluck_v0_blown_260","midi_source":""},{"t":152.385,"note":85,"dur":0.137,"vel":1.0,"inst":"cello_v0_plucked_113","midi_source":""},{"t":152.454,"note":66,"dur":0.069,"vel":1.0,"inst":"synth_pluck_v0_blown_260","midi_source":""},{"t":152.522,"note":58,"dur":0.069,"vel":1.0,"inst":"cello_v0_plucked_113","midi_source":""},{"t":152.522,"note":85,"dur":0.137,"vel":1.0,"inst":"cello_v0_plucked_113","midi_source":""},{"t":152.591,"note":70,"dur":0.069,"vel":1.0,"inst":"cello_v0_plucked_113","midi_source":""},{"t":152.659,"note":58,"dur":0.069,"vel":1.0,"inst":"cello_v0_plucked_113","midi_source":""},{"t":152.728,"note":66,"dur":0.069,"vel":1.0,"inst":"synth_pluck_v0_blown_260","midi_source":""},{"t":152.728,"note":82,"dur":0.069,"vel":1.0,"inst":"cello_v0_plucked_113","midi_source":""},{"t":152.796,"note":65,"dur":0.069,"vel":1.0,"inst":"violin_v1_additive_535","midi_source":""},{"t":152.796,"note":70,"dur":0.069,"vel":1.0,"inst":"cello_v0_plucked_113","midi_source":""},{"t":152.865,"note":63,"dur":0.069,"vel":1.0,"inst":"synth_pluck_v0_blown_260","midi_source":""},{"t":152.865,"note":78,"dur":0.069,"vel":1.0,"inst":"synth_pluck_v0_blown_260","midi_source":""},{"t":152.933,"note":65,"dur":0.069,"vel":1.0,"inst":"violin_v1_additive_535","midi_source":""},{"t":152.933,"note":70,"dur":0.069,"vel":1.0,"inst":"cello_v0_plucked_113","midi_source":""},{"t":153.002,"note":66,"dur":0.069,"vel":1.0,"inst":"synth_pluck_v0_blown_260","midi_source":""},{"t":153.002,"note":75,"dur":0.069,"vel":1.0,"inst":"synth_pluck_v0_blown_260","midi_source":""},{"t":153.07,"note":58,"dur":0.069,"vel":1.0,"inst":"cello_v0_plucked_113","midi_source":""},{"t":153.07,"note":77,"dur":0.069,"vel":1.0,"inst":"violin_v1_additive_535","midi_source":""},{"t":153.139,"note":63,"dur":0.069,"vel":1.0,"inst":"synth_pluck_v0_blown_260","midi_source":""},{"t":153.139,"note":73,"dur":0.069,"vel":1.0,"inst":"cello_v0_plucked_113","midi_source":""},{"t":153.207,"note":65,"dur":0.069,"vel":1.0,"inst":"violin_v1_additive_535","midi_source":""},{"t":153.207,"note":73,"dur":0.069,"vel":1.0,"inst":"cello_v0_plucked_113","midi_source":""},{"t":153.276,"note":70,"dur":0.069,"vel":1.0,"inst":"cello_v0_plucked_113","midi_source":""},{"t":153.276,"note":78,"dur":0.069,"vel":1.0,"inst":"synth_pluck_v0_blown_260","midi_source":""},{"t":153.344,"note":58,"dur":0.069,"vel":1.0,"inst":"cello_v0_plucked_113","midi_source":""},{"t":153.344,"note":77,"dur":0.069,"vel":1.0,"inst":"violin_v1_additive_535","midi_source":""},{"t":153.413,"note":66,"dur":0.069,"vel":1.0,"inst":"synth_pluck_v0_blown_260","midi_source":""},{"t":153.413,"note":75,"dur":0.069,"vel":1.0,"inst":"synth_pluck_v0_blown_260","midi_source":""},{"t":153.481,"note":58,"dur":0.069,"vel":1.0,"inst":"cello_v0_plucked_113","midi_source":""},{"t":153.481,"note":77,"dur":0.069,"vel":1.0,"inst":"violin_v1_additive_535","midi_source":""},{"t":153.55,"note":63,"dur":0.069,"vel":1.0,"inst":"synth_pluck_v0_blown_260","midi_source":""},{"t":153.55,"note":73,"dur":0.069,"vel":1.0,"inst":"cello_v0_plucked_113","midi_source":""},{"t":153.618,"note":65,"dur":0.069,"vel":1.0,"inst":"violin_v1_additive_535","midi_source":""},{"t":153.618,"note":73,"dur":0.069,"vel":1.0,"inst":"cello_v0_plucked_113","midi_source":""},{"t":153.687,"note":60,"dur":0.069,"vel":1.0,"inst":"synth_pluck_v0_blown_260","midi_source":""},{"t":153.687,"note":58,"dur":0.069,"vel":1.0,"inst":"cello_v0_plucked_113","midi_source":""},{"t":153.755,"note":61,"dur":0.069,"vel":1.0,"inst":"cello_v0_plucked_113","midi_source":""},{"t":153.755,"note":70,"dur":0.069,"vel":1.0,"inst":"cello_v0_plucked_113","midi_source":""},{"t":153.824,"note":66,"dur":0.069,"vel":1.0,"inst":"synth_pluck_v0_blown_260","midi_source":""},{"t":153.824,"note":75,"dur":0.069,"vel":1.0,"inst":"synth_pluck_v0_blown_260","midi_source":""},{"t":153.892,"note":65,"dur":0.069,"vel":1.0,"inst":"violin_v1_additive_535","midi_source":""},{"t":153.892,"note":73,"dur":0.069,"vel":1.0,"inst":"cello_v0_plucked_113","midi_source":""},{"t":153.961,"note":63,"dur":0.069,"vel":1.0,"inst":"synth_pluck_v0_blown_260","midi_source":""},{"t":153.961,"note":73,"dur":0.069,"vel":1.0,"inst":"cello_v0_plucked_113","midi_source":""},{"t":154.029,"note":65,"dur":0.069,"vel":1.0,"inst":"violin_v1_additive_535","midi_source":""},{"t":154.029,"note":73,"dur":0.069,"vel":1.0,"inst":"cello_v0_plucked_113","midi_source":""},{"t":154.098,"note":61,"dur":0.069,"vel":1.0,"inst":"cello_v0_plucked_113","midi_source":""},{"t":154.098,"note":58,"dur":0.069,"vel":1.0,"inst":"cello_v0_plucked_113","midi_source":""},{"t":154.166,"note":61,"dur":0.069,"vel":1.0,"inst":"cello_v0_plucked_113","midi_source":""},{"t":154.166,"note":70,"dur":0.069,"vel":1.0,"inst":"cello_v0_plucked_113","midi_source":""},{"t":154.235,"note":46,"dur":0.069,"vel":1.0,"inst":"cello_v0_plucked_113","midi_source":""},{"t":154.235,"note":66,"dur":0.069,"vel":1.0,"inst":"synth_pluck_v0_blown_260","midi_source":""},{"t":154.303,"note":58,"dur":0.069,"vel":1.0,"inst":"cello_v0_plucked_113","midi_source":""},{"t":154.303,"note":60,"dur":0.069,"vel":1.0,"inst":"synth_pluck_v0_blown_260","midi_source":""},{"t":154.303,"note":66,"dur":0.069,"vel":1.0,"inst":"synth_pluck_v0_blown_260","midi_source":""},{"t":154.372,"note":61,"dur":0.069,"vel":1.0,"inst":"cello_v0_plucked_113","midi_source":""},{"t":154.372,"note":72,"dur":0.069,"vel":1.0,"inst":"synth_pluck_v0_blown_260","midi_source":""},{"t":154.44,"note":54,"dur":0.069,"vel":1.0,"inst":"synth_pluck_v0_blown_260","midi_source":""},{"t":154.44,"note":46,"dur":0.069,"vel":1.0,"inst":"cello_v0_plucked_113","midi_source":""},{"t":154.44,"note":70,"dur":0.069,"vel":1.0,"inst":"cello_v0_plucked_113","midi_source":""},{"t":154.509,"note":58,"dur":0.069,"vel":1.0,"inst":"cello_v0_plucked_113","midi_source":""},{"t":154.509,"note":58,"dur":0.069,"vel":1.0,"inst":"cello_v0_plucked_113","midi_source":""},{"t":154.577,"note":49,"dur":0.274,"vel":1.0,"inst":"cello_v0_plucked_113","midi_source":""},{"t":154.577,"note":70,"dur":0.069,"vel":1.0,"inst":"cello_v0_plucked_113","midi_source":""},{"t":154.646,"note":66,"dur":0.069,"vel":1.0,"inst":"synth_pluck_v0_blown_260","midi_source":""},{"t":154.714,"note":58,"dur":0.069,"vel":1.0,"inst":"cello_v0_plucked_113","midi_source":""},{"t":154.783,"note":73,"dur":0.069,"vel":1.0,"inst":"cello_v0_plucked_113","midi_source":""},{"t":154.851,"note":75,"dur":0.069,"vel":1.0,"inst":"synth_pluck_v0_blown_260","midi_source":""},{"t":154.92,"note":70,"dur":0.069,"vel":1.0,"inst":"cello_v0_plucked_113","midi_source":""},{"t":154.988,"note":34,"dur":0.137,"vel":1.0,"inst":"cello_v0_plucked_113","midi_source":""},{"t":154.988,"note":58,"dur":0.069,"vel":1.0,"inst":"cello_v0_plucked_113","midi_source":""},{"t":155.057,"note":66,"dur":0.069,"vel":1.0,"inst":"synth_pluck_v0_blown_260","midi_source":""},{"t":155.125,"note":49,"dur":0.137,"vel":1.0,"inst":"cello_v0_plucked_113","midi_source":""},{"t":155.125,"note":65,"dur":0.069,"vel":1.0,"inst":"violin_v1_additive_535","midi_source":""},{"t":155.194,"note":58,"dur":0.069,"vel":1.0,"inst":"cello_v0_plucked_113","midi_source":""},{"t":155.262,"note":65,"dur":0.137,"vel":1.0,"inst":"violin_v1_additive_535","midi_source":""},{"t":155.262,"note":73,"dur":0.069,"vel":1.0,"inst":"cello_v0_plucked_113","midi_source":""},{"t":155.331,"note":77,"dur":0.137,"vel":1.0,"inst":"violin_v1_additive_535","midi_source":""},{"t":155.399,"note":58,"dur":0.137,"vel":1.0,"inst":"cello_v0_plucked_113","midi_source":""},{"t":155.468,"note":73,"dur":0.069,"vel":1.0,"inst":"cello_v0_plucked_113","midi_source":""},{"t":155.536,"note":46,"dur":0.137,"vel":1.0,"inst":"cello_v0_plucked_113","midi_source":""},{"t":155.536,"note":73,"dur":0.069,"vel":1.0,"inst":"cello_v0_plucked_113","midi_source":""},{"t":155.605,"note":65,"dur":0.069,"vel":1.0,"inst":"violin_v1_additive_535","midi_source":""},{"t":155.673,"note":51,"dur":0.137,"vel":1.0,"inst":"synth_pluck_v0_blown_260","midi_source":""},{"t":155.673,"note":66,"dur":0.069,"vel":1.0,"inst":"synth_pluck_v0_blown_260","midi_source":""},{"t":155.742,"note":70,"dur":0.069,"vel":1.0,"inst":"cello_v0_plucked_113","midi_source":""},{"t":155.81,"note":66,"dur":0.137,"vel":1.0,"inst":"synth_pluck_v0_blown_260","midi_source":""},{"t":155.81,"note":73,"dur":0.069,"vel":1.0,"inst":"cello_v0_plucked_113","midi_source":""},{"t":155.879,"note":77,"dur":0.069,"vel":1.0,"inst":"violin_v1_additive_535","midi_source":""},{"t":155.947,"note":58,"dur":0.137,"vel":1.0,"inst":"cello_v0_plucked_113","midi_source":""},{"t":156.016,"note":73,"dur":0.069,"vel":1.0,"inst":"cello_v0_plucked_113","midi_source":""},{"t":156.084,"note":46,"dur":0.137,"vel":1.0,"inst":"cello_v0_plucked_113","midi_source":""},{"t":156.084,"note":73,"dur":0.069,"vel":1.0,"inst":"cello_v0_plucked_113","midi_source":""},{"t":156.153,"note":66,"dur":0.069,"vel":1.0,"inst":"synth_pluck_v0_blown_260","midi_source":""},{"t":156.221,"note":53,"dur":0.137,"vel":1.0,"inst":"violin_v1_additive_535","midi_source":""},{"t":156.221,"note":58,"dur":0.069,"vel":1.0,"inst":"cello_v0_plucked_113","midi_source":""},{"t":156.29,"note":73,"dur":0.069,"vel":1.0,"inst":"cello_v0_plucked_113","midi_source":""},{"t":156.359,"note":58,"dur":0.137,"vel":1.0,"inst":"cello_v0_plucked_113","midi_source":""},{"t":156.359,"note":73,"dur":0.069,"vel":1.0,"inst":"cello_v0_plucked_113","midi_source":""},{"t":156.427,"note":61,"dur":0.069,"vel":1.0,"inst":"cello_v0_plucked_113","midi_source":""},{"t":156.427,"note":70,"dur":0.069,"vel":1.0,"inst":"cello_v0_plucked_113","midi_source":""},{"t":156.496,"note":63,"dur":0.137,"vel":1.0,"inst":"synth_pluck_v0_blown_260","midi_source":""},{"t":156.496,"note":72,"dur":0.069,"vel":1.0,"inst":"synth_pluck_v0_blown_260","midi_source":""},{"t":156.564,"note":82,"dur":0.069,"vel":1.0,"inst":"cello_v0_plucked_113","midi_source":""},{"t":156.633,"note":60,"dur":0.137,"vel":1.0,"inst":"synth_pluck_v0_blown_260","midi_source":""},{"t":156.633,"note":70,"dur":0.069,"vel":1.0,"inst":"cello_v0_plucked_113","midi_source":""},{"t":156.701,"note":78,"dur":0.069,"vel":1.0,"inst":"synth_pluck_v0_blown_260","midi_source":""},{"t":156.77,"note":61,"dur":0.137,"vel":1.0,"inst":"cello_v0_plucked_113","midi_source":""},{"t":156.77,"note":78,"dur":0.206,"vel":1.0,"inst":"synth_pluck_v0_blown_260","midi_source":""},{"t":156.907,"note":49,"dur":0.137,"vel":1.0,"inst":"cello_v0_plucked_113","midi_source":""},{"t":156.975,"note":75,"dur":0.069,"vel":1.0,"inst":"synth_pluck_v0_blown_260","midi_source":""},{"t":157.044,"note":73,"dur":0.137,"vel":1.0,"inst":"cello_v0_plucked_113","midi_source":""},{"t":157.112,"note":60,"dur":0.069,"vel":1.0,"inst":"synth_pluck_v0_blown_260","midi_source":""},{"t":157.181,"note":58,"dur":0.069,"vel":1.0,"inst":"cello_v0_plucked_113","midi_source":""},{"t":157.181,"note":78,"dur":0.137,"vel":1.0,"inst":"synth_pluck_v0_blown_260","midi_source":""},{"t":157.249,"note":46,"dur":0.069,"vel":1.0,"inst":"cello_v0_plucked_113","midi_source":""},{"t":157.318,"note":58,"dur":0.069,"vel":1.0,"inst":"cello_v0_plucked_113","midi_source":""},{"t":157.318,"note":78,"dur":0.069,"vel":1.0,"inst":"synth_pluck_v0_blown_260","midi_source":""},{"t":157.386,"note":53,"dur":0.069,"vel":1.0,"inst":"violin_v1_additive_535","midi_source":""},{"t":157.386,"note":70,"dur":0.069,"vel":1.0,"inst":"cello_v0_plucked_113","midi_source":""},{"t":157.455,"note":54,"dur":0.069,"vel":1.0,"inst":"synth_pluck_v0_blown_260","midi_source":""},{"t":157.455,"note":82,"dur":0.137,"vel":1.0,"inst":"cello_v0_plucked_113","midi_source":""},{"t":157.523,"note":49,"dur":0.069,"vel":1.0,"inst":"cello_v0_plucked_113","midi_source":""},{"t":157.592,"note":51,"dur":0.069,"vel":1.0,"inst":"synth_pluck_v0_blown_260","midi_source":""},{"t":157.592,"note":72,"dur":0.069,"vel":1.0,"inst":"synth_pluck_v0_blown_260","midi_source":""},{"t":157.66,"note":61,"dur":0.069,"vel":1.0,"inst":"cello_v0_plucked_113","midi_source":""},{"t":157.66,"note":82,"dur":0.069,"vel":1.0,"inst":"cello_v0_plucked_113","midi_source":""},{"t":157.729,"note":60,"dur":0.069,"vel":1.0,"inst":"synth_pluck_v0_blown_260","midi_source":""},{"t":157.729,"note":70,"dur":0.069,"vel":1.0,"inst":"cello_v0_plucked_113","midi_source":""},{"t":157.797,"note":58,"dur":0.069,"vel":1.0,"inst":"cello_v0_plucked_113","midi_source":""},{"t":157.797,"note":78,"dur":0.069,"vel":1.0,"inst":"synth_pluck_v0_blown_260","midi_source":""},{"t":157.866,"note":60,"dur":0.069,"vel":1.0,"inst":"synth_pluck_v0_blown_260","midi_source":""},{"t":157.866,"note":70,"dur":0.069,"vel":1.0,"inst":"cello_v0_plucked_113","midi_source":""},{"t":157.934,"note":54,"dur":0.069,"vel":1.0,"inst":"synth_pluck_v0_blown_260","midi_source":""},{"t":157.934,"note":82,"dur":0.069,"vel":1.0,"inst":"cello_v0_plucked_113","midi_source":""},{"t":158.003,"note":46,"dur":0.069,"vel":1.0,"inst":"cello_v0_plucked_113","midi_source":""},{"t":158.003,"note":84,"dur":0.137,"vel":1.0,"inst":"synth_pluck_v0_blown_260","midi_source":""},{"t":158.071,"note":51,"dur":0.069,"vel":1.0,"inst":"synth_pluck_v0_blown_260","midi_source":""},{"t":158.14,"note":54,"dur":0.069,"vel":1.0,"inst":"synth_pluck_v0_blown_260","midi_source":""},{"t":158.14,"note":73,"dur":0.069,"vel":1.0,"inst":"cello_v0_plucked_113","midi_source":""},{"t":158.208,"note":63,"dur":0.069,"vel":1.0,"inst":"synth_pluck_v0_blown_260","midi_source":""},{"t":158.208,"note":84,"dur":0.069,"vel":1.0,"inst":"synth_pluck_v0_blown_260","midi_source":""},{"t":158.277,"note":61,"dur":0.069,"vel":1.0,"inst":"cello_v0_plucked_113","midi_source":""},{"t":158.277,"note":82,"dur":0.069,"vel":1.0,"inst":"cello_v0_plucked_113","midi_source":""},{"t":158.345,"note":60,"dur":0.069,"vel":1.0,"inst":"synth_pluck_v0_blown_260","midi_source":""},{"t":158.345,"note":70,"dur":0.069,"vel":1.0,"inst":"cello_v0_plucked_113","midi_source":""},{"t":158.414,"note":61,"dur":0.069,"vel":1.0,"inst":"cello_v0_plucked_113","midi_source":""},{"t":158.414,"note":82,"dur":0.069,"vel":1.0,"inst":"cello_v0_plucked_113","midi_source":""},{"t":158.482,"note":46,"dur":0.069,"vel":1.0,"inst":"cello_v0_plucked_113","midi_source":""},{"t":158.482,"note":84,"dur":0.069,"vel":1.0,"inst":"synth_pluck_v0_blown_260","midi_source":""},{"t":158.551,"note":58,"dur":0.069,"vel":1.0,"inst":"cello_v0_plucked_113","midi_source":""},{"t":158.551,"note":85,"dur":0.137,"vel":1.0,"inst":"cello_v0_plucked_113","midi_source":""},{"t":158.619,"note":54,"dur":0.069,"vel":1.0,"inst":"synth_pluck_v0_blown_260","midi_source":""},{"t":158.688,"note":54,"dur":0.069,"vel":1.0,"inst":"synth_pluck_v0_blown_260","midi_source":""},{"t":158.688,"note":75,"dur":0.069,"vel":1.0,"inst":"synth_pluck_v0_blown_260","midi_source":""},{"t":158.756,"note":65,"dur":0.069,"vel":1.0,"inst":"violin_v1_additive_535","midi_source":""},{"t":158.756,"note":85,"dur":0.069,"vel":1.0,"inst":"cello_v0_plucked_113","midi_source":""},{"t":158.825,"note":63,"dur":0.069,"vel":1.0,"inst":"synth_pluck_v0_blown_260","midi_source":""},{"t":158.825,"note":84,"dur":0.069,"vel":1.0,"inst":"synth_pluck_v0_blown_260","midi_source":""},{"t":158.893,"note":61,"dur":0.069,"vel":1.0,"inst":"cello_v0_plucked_113","midi_source":""},{"t":158.893,"note":82,"dur":0.069,"vel":1.0,"inst":"cello_v0_plucked_113","midi_source":""},{"t":158.962,"note":63,"dur":0.069,"vel":1.0,"inst":"synth_pluck_v0_blown_260","midi_source":""},{"t":158.962,"note":84,"dur":0.069,"vel":1.0,"inst":"synth_pluck_v0_blown_260","midi_source":""},{"t":159.03,"note":58,"dur":0.069,"vel":1.0,"inst":"cello_v0_plucked_113","midi_source":""},{"t":159.03,"note":85,"dur":0.069,"vel":1.0,"inst":"cello_v0_plucked_113","midi_source":""},{"t":159.099,"note":60,"dur":0.069,"vel":1.0,"inst":"synth_pluck_v0_blown_260","midi_source":""},{"t":159.099,"note":87,"dur":0.137,"vel":1.0,"inst":"synth_pluck_v0_blown_260","midi_source":""},{"t":159.167,"note":54,"dur":0.069,"vel":1.0,"inst":"synth_pluck_v0_blown_260","midi_source":""},{"t":159.236,"note":46,"dur":0.137,"vel":1.0,"inst":"cello_v0_plucked_113","midi_source":""},{"t":159.236,"note":78,"dur":0.069,"vel":1.0,"inst":"synth_pluck_v0_blown_260","midi_source":""},{"t":159.304,"note":87,"dur":0.069,"vel":1.0,"inst":"synth_pluck_v0_blown_260","midi_source":""},{"t":159.373,"note":66,"dur":0.137,"vel":1.0,"inst":"synth_pluck_v0_blown_260","midi_source":""},{"t":159.373,"note":85,"dur":0.069,"vel":1.0,"inst":"cello_v0_plucked_113","midi_source":""},{"t":159.441,"note":84,"dur":0.069,"vel":1.0,"inst":"synth_pluck_v0_blown_260","midi_source":""},{"t":159.51,"note":66,"dur":0.137,"vel":1.0,"inst":"synth_pluck_v0_blown_260","midi_source":""},{"t":159.51,"note":82,"dur":0.069,"vel":1.0,"inst":"cello_v0_plucked_113","midi_source":""},{"t":159.578,"note":78,"dur":0.069,"vel":1.0,"inst":"synth_pluck_v0_blown_260","midi_source":""},{"t":159.647,"note":70,"dur":0.137,"vel":1.0,"inst":"cello_v0_plucked_113","midi_source":""},{"t":159.647,"note":78,"dur":0.069,"vel":1.0,"inst":"synth_pluck_v0_blown_260","midi_source":""},{"t":159.715,"note":73,"dur":0.069,"vel":1.0,"inst":"cello_v0_plucked_113","midi_source":""},{"t":159.784,"note":60,"dur":0.137,"vel":1.0,"inst":"synth_pluck_v0_blown_260","midi_source":""},{"t":159.784,"note":75,"dur":0.069,"vel":1.0,"inst":"synth_pluck_v0_blown_260","midi_source":""},{"t":159.852,"note":70,"dur":0.069,"vel":1.0,"inst":"cello_v0_plucked_113","midi_source":""},{"t":159.921,"note":63,"dur":0.137,"vel":1.0,"inst":"synth_pluck_v0_blown_260","midi_source":""},{"t":159.921,"note":72,"dur":0.069,"vel":1.0,"inst":"synth_pluck_v0_blown_260","midi_source":""},{"t":159.989,"note":78,"dur":0.069,"vel":1.0,"inst":"synth_pluck_v0_blown_260","midi_source":""},{"t":160.058,"note":54,"dur":0.137,"vel":1.0,"inst":"synth_pluck_v0_blown_260","midi_source":""},{"t":160.058,"note":70,"dur":0.069,"vel":1.0,"inst":"cello_v0_plucked_113","midi_source":""},{"t":160.126,"note":73,"dur":0.069,"vel":1.0,"inst":"cello_v0_plucked_113","midi_source":""},{"t":160.195,"note":46,"dur":0.137,"vel":1.0,"inst":"cello_v0_plucked_113","midi_source":""},{"t":160.195,"note":75,"dur":0.069,"vel":1.0,"inst":"synth_pluck_v0_blown_260","midi_source":""},{"t":160.263,"note":72,"dur":0.069,"vel":1.0,"inst":"synth_pluck_v0_blown_260","midi_source":""},{"t":160.332,"note":48,"dur":0.137,"vel":1.0,"inst":"synth_pluck_v0_blown_260","midi_source":""},{"t":160.332,"note":73,"dur":0.069,"vel":1.0,"inst":"cello_v0_plucked_113","midi_source":""},{"t":160.4,"note":58,"dur":0.069,"vel":1.0,"inst":"cello_v0_plucked_113","midi_source":""},{"t":160.469,"note":49,"dur":0.137,"vel":1.0,"inst":"cello_v0_plucked_113","midi_source":""},{"t":160.469,"note":70,"dur":0.069,"vel":1.0,"inst":"cello_v0_plucked_113","midi_source":""},{"t":160.537,"note":78,"dur":0.069,"vel":1.0,"inst":"synth_pluck_v0_blown_260","midi_source":""},{"t":160.606,"note":51,"dur":0.137,"vel":1.0,"inst":"synth_pluck_v0_blown_260","midi_source":""},{"t":160.606,"note":78,"dur":0.069,"vel":1.0,"inst":"synth_pluck_v0_blown_260","midi_source":""},{"t":160.674,"note":72,"dur":0.069,"vel":1.0,"inst":"synth_pluck_v0_blown_260","midi_source":""},{"t":160.674,"note":73,"dur":0.069,"vel":1.0,"inst":"cello_v0_plucked_113","midi_source":""},{"t":160.743,"note":48,"dur":0.137,"vel":1.0,"inst":"synth_pluck_v0_blown_260","midi_source":""},{"t":160.743,"note":75,"dur":0.069,"vel":1.0,"inst":"synth_pluck_v0_blown_260","midi_source":""},{"t":160.811,"note":72,"dur":0.069,"vel":1.0,"inst":"synth_pluck_v0_blown_260","midi_source":""},{"t":160.88,"note":49,"dur":0.137,"vel":1.0,"inst":"cello_v0_plucked_113","midi_source":""},{"t":160.88,"note":58,"dur":0.069,"vel":1.0,"inst":"cello_v0_plucked_113","midi_source":""},{"t":160.948,"note":72,"dur":0.069,"vel":1.0,"inst":"synth_pluck_v0_blown_260","midi_source":""},{"t":161.017,"note":61,"dur":0.137,"vel":1.0,"inst":"cello_v0_plucked_113","midi_source":""},{"t":161.017,"note":78,"dur":0.069,"vel":1.0,"inst":"synth_pluck_v0_blown_260","midi_source":""},{"t":161.085,"note":78,"dur":0.069,"vel":1.0,"inst":"synth_pluck_v0_blown_260","midi_source":""},{"t":161.154,"note":54,"dur":0.137,"vel":1.0,"inst":"synth_pluck_v0_blown_260","midi_source":""},{"t":161.154,"note":78,"dur":0.069,"vel":1.0,"inst":"synth_pluck_v0_blown_260","midi_source":""},{"t":161.222,"note":72,"dur":0.069,"vel":1.0,"inst":"synth_pluck_v0_blown_260","midi_source":""},{"t":161.291,"note":61,"dur":0.137,"vel":1.0,"inst":"cello_v0_plucked_113","midi_source":""},{"t":161.291,"note":70,"dur":0.069,"vel":1.0,"inst":"cello_v0_plucked_113","midi_source":""},{"t":161.359,"note":58,"dur":0.069,"vel":1.0,"inst":"cello_v0_plucked_113","midi_source":""},{"t":161.428,"note":66,"dur":0.137,"vel":1.0,"inst":"synth_pluck_v0_blown_260","midi_source":""},{"t":161.428,"note":70,"dur":0.069,"vel":1.0,"inst":"cello_v0_plucked_113","midi_source":""},{"t":161.496,"note":78,"dur":0.069,"vel":1.0,"inst":"synth_pluck_v0_blown_260","midi_source":""},{"t":161.565,"note":58,"dur":0.137,"vel":1.0,"inst":"cello_v0_plucked_113","midi_source":""},{"t":161.565,"note":77,"dur":0.069,"vel":1.0,"inst":"violin_v1_additive_535","midi_source":""},{"t":161.633,"note":75,"dur":0.069,"vel":1.0,"inst":"synth_pluck_v0_blown_260","midi_source":""},{"t":161.702,"note":66,"dur":0.206,"vel":1.0,"inst":"synth_pluck_v0_blown_260","midi_source":""},{"t":161.702,"note":73,"dur":0.069,"vel":1.0,"inst":"cello_v0_plucked_113","midi_source":""},{"t":161.77,"note":78,"dur":0.069,"vel":1.0,"inst":"synth_pluck_v0_blown_260","midi_source":""},{"t":161.77,"note":70,"dur":0.069,"vel":1.0,"inst":"cello_v0_plucked_113","midi_source":""},{"t":161.839,"note":82,"dur":0.069,"vel":1.0,"inst":"cello_v0_plucked_113","midi_source":""},{"t":161.907,"note":60,"dur":0.069,"vel":1.0,"inst":"synth_pluck_v0_blown_260","midi_source":""},{"t":161.907,"note":61,"dur":0.069,"vel":1.0,"inst":"cello_v0_plucked_113","midi_source":""},{"t":161.907,"note":78,"dur":0.069,"vel":1.0,"inst":"synth_pluck_v0_blown_260","midi_source":""},{"t":161.976,"note":58,"dur":0.069,"vel":1.0,"inst":"cello_v0_plucked_113","midi_source":""},{"t":161.976,"note":60,"dur":0.069,"vel":1.0,"inst":"synth_pluck_v0_blown_260","midi_source":""},{"t":161.976,"note":73,"dur":0.137,"vel":1.0,"inst":"cello_v0_plucked_113","midi_source":""},{"t":162.044,"note":61,"dur":0.069,"vel":1.0,"inst":"cello_v0_plucked_113","midi_source":""},{"t":162.113,"note":54,"dur":0.069,"vel":1.0,"inst":"synth_pluck_v0_blown_260","midi_source":""},{"t":162.113,"note":46,"dur":0.069,"vel":1.0,"inst":"cello_v0_plucked_113","midi_source":""},{"t":162.113,"note":75,"dur":0.137,"vel":1.0,"inst":"synth_pluck_v0_blown_260","midi_source":""},{"t":162.181,"note":58,"dur":0.069,"vel":1.0,"inst":"cello_v0_plucked_113","midi_source":""},{"t":162.25,"note":49,"dur":0.206,"vel":1.0,"inst":"cello_v0_plucked_113","midi_source":""},{"t":162.25,"note":77,"dur":0.069,"vel":1.0,"inst":"violin_v1_additive_535","midi_source":""},{"t":162.318,"note":72,"dur":0.069,"vel":1.0,"inst":"synth_pluck_v0_blown_260","midi_source":""},{"t":162.387,"note":73,"dur":0.069,"vel":1.0,"inst":"cello_v0_plucked_113","midi_source":""},{"t":162.455,"note":51,"dur":0.069,"vel":1.0,"inst":"synth_pluck_v0_blown_260","midi_source":""},{"t":162.455,"note":53,"dur":0.069,"vel":1.0,"inst":"violin_v1_additive_535","midi_source":""},{"t":162.455,"note":58,"dur":0.069,"vel":1.0,"inst":"cello_v0_plucked_113","midi_source":""},{"t":162.524,"note":49,"dur":0.069,"vel":1.0,"inst":"cello_v0_plucked_113","midi_source":""},{"t":162.524,"note":51,"dur":0.069,"vel":1.0,"inst":"synth_pluck_v0_blown_260","midi_source":""},{"t":162.524,"note":70,"dur":0.137,"vel":1.0,"inst":"cello_v0_plucked_113","midi_source":""},{"t":162.592,"note":53,"dur":0.069,"vel":1.0,"inst":"violin_v1_additive_535","midi_source":""},{"t":162.661,"note":46,"dur":0.069,"vel":1.0,"inst":"cello_v0_plucked_113","midi_source":""},{"t":162.661,"note":48,"dur":0.069,"vel":1.0,"inst":"synth_pluck_v0_blown_260","midi_source":""},{"t":162.661,"note":85,"dur":0.206,"vel":1.0,"inst":"cello_v0_plucked_113","midi_source":""},{"t":162.729,"note":49,"dur":0.069,"vel":1.0,"inst":"cello_v0_plucked_113","midi_source":""},{"t":162.798,"note":39,"dur":0.137,"vel":1.0,"inst":"synth_pluck_v0_blown_260","midi_source":""},{"t":162.866,"note":78,"dur":0.069,"vel":1.0,"inst":"synth_pluck_v0_blown_260","midi_source":""},{"t":162.866,"note":70,"dur":0.069,"vel":1.0,"inst":"cello_v0_plucked_113","midi_source":""},{"t":162.935,"note":42,"dur":0.137,"vel":1.0,"inst":"synth_pluck_v0_blown_260","midi_source":""},{"t":162.935,"note":82,"dur":0.069,"vel":1.0,"inst":"cello_v0_plucked_113","midi_source":""},{"t":163.003,"note":78,"dur":0.069,"vel":1.0,"inst":"synth_pluck_v0_blown_260","midi_source":""},{"t":163.072,"note":48,"dur":0.137,"vel":1.0,"inst":"synth_pluck_v0_blown_260","midi_source":""},{"t":163.072,"note":75,"dur":0.069,"vel":1.0,"inst":"synth_pluck_v0_blown_260","midi_source":""},{"t":163.14,"note":84,"dur":0.069,"vel":1.0,"inst":"synth_pluck_v0_blown_260","midi_source":""},{"t":163.209,"note":51,"dur":0.137,"vel":1.0,"inst":"synth_pluck_v0_blown_260","midi_source":""},{"t":163.209,"note":78,"dur":0.069,"vel":1.0,"inst":"synth_pluck_v0_blown_260","midi_source":""},{"t":163.209,"note":70,"dur":0.069,"vel":1.0,"inst":"cello_v0_plucked_113","midi_source":""},{"t":163.277,"note":82,"dur":0.069,"vel":1.0,"inst":"cello_v0_plucked_113","midi_source":""},{"t":163.346,"note":53,"dur":0.206,"vel":1.0,"inst":"violin_v1_additive_535","midi_source":""},{"t":163.346,"note":70,"dur":0.069,"vel":1.0,"inst":"cello_v0_plucked_113","midi_source":""},{"t":163.414,"note":75,"dur":0.069,"vel":1.0,"inst":"synth_pluck_v0_blown_260","midi_source":""},{"t":163.483,"note":77,"dur":0.137,"vel":1.0,"inst":"violin_v1_additive_535","midi_source":""},{"t":163.551,"note":70,"dur":0.069,"vel":1.0,"inst":"cello_v0_plucked_113","midi_source":""},{"t":163.551,"note":72,"dur":0.069,"vel":1.0,"inst":"synth_pluck_v0_blown_260","midi_source":""},{"t":163.62,"note":58,"dur":0.069,"vel":1.0,"inst":"cello_v0_plucked_113","midi_source":""},{"t":163.62,"note":70,"dur":0.069,"vel":1.0,"inst":"cello_v0_plucked_113","midi_source":""},{"t":163.688,"note":72,"dur":0.069,"vel":1.0,"inst":"synth_pluck_v0_blown_260","midi_source":""},{"t":163.757,"note":65,"dur":0.069,"vel":1.0,"inst":"violin_v1_additive_535","midi_source":""},{"t":163.757,"note":66,"dur":0.069,"vel":1.0,"inst":"synth_pluck_v0_blown_260","midi_source":""},{"t":163.757,"note":73,"dur":0.137,"vel":1.0,"inst":"cello_v0_plucked_113","midi_source":""},{"t":163.757,"note":70,"dur":0.137,"vel":1.0,"inst":"cello_v0_plucked_113","midi_source":""},{"t":163.825,"note":58,"dur":0.069,"vel":1.0,"inst":"cello_v0_plucked_113","midi_source":""},{"t":163.894,"note":58,"dur":0.069,"vel":1.0,"inst":"cello_v0_plucked_113","midi_source":""},{"t":163.894,"note":70,"dur":0.137,"vel":1.0,"inst":"cello_v0_plucked_113","midi_source":""},{"t":163.962,"note":61,"dur":0.069,"vel":1.0,"inst":"cello_v0_plucked_113","midi_source":""},{"t":164.031,"note":63,"dur":0.069,"vel":1.0,"inst":"synth_pluck_v0_blown_260","midi_source":""},{"t":164.031,"note":78,"dur":0.206,"vel":1.0,"inst":"synth_pluck_v0_blown_260","midi_source":""},{"t":164.099,"note":65,"dur":0.069,"vel":1.0,"inst":"violin_v1_additive_535","midi_source":""},{"t":164.168,"note":66,"dur":0.069,"vel":1.0,"inst":"synth_pluck_v0_blown_260","midi_source":""},{"t":164.236,"note":58,"dur":0.069,"vel":1.0,"inst":"cello_v0_plucked_113","midi_source":""},{"t":164.236,"note":85,"dur":0.069,"vel":1.0,"inst":"cello_v0_plucked_113","midi_source":""},{"t":164.305,"note":70,"dur":0.069,"vel":1.0,"inst":"cello_v0_plucked_113","midi_source":""},{"t":164.305,"note":85,"dur":0.069,"vel":1.0,"inst":"cello_v0_plucked_113","midi_source":""},{"t":164.373,"note":66,"dur":0.069,"vel":1.0,"inst":"synth_pluck_v0_blown_260","midi_source":""},{"t":164.373,"note":87,"dur":0.069,"vel":1.0,"inst":"synth_pluck_v0_blown_260","midi_source":""},{"t":164.442,"note":61,"dur":0.069,"vel":1.0,"inst":"cello_v0_plucked_113","midi_source":""},{"t":164.442,"note":82,"dur":0.137,"vel":1.0,"inst":"cello_v0_plucked_113","midi_source":""},{"t":164.51,"note":63,"dur":0.069,"vel":1.0,"inst":"synth_pluck_v0_blown_260","midi_source":""},{"t":164.579,"note":65,"dur":0.069,"vel":1.0,"inst":"violin_v1_additive_535","midi_source":""},{"t":164.579,"note":70,"dur":0.137,"vel":1.0,"inst":"cello_v0_plucked_113","midi_source":""},{"t":164.647,"note":66,"dur":0.069,"vel":1.0,"inst":"synth_pluck_v0_blown_260","midi_source":""},{"t":164.716,"note":58,"dur":0.069,"vel":1.0,"inst":"cello_v0_plucked_113","midi_source":""},{"t":164.784,"note":70,"dur":0.069,"vel":1.0,"inst":"cello_v0_plucked_113","midi_source":""},{"t":164.784,"note":85,"dur":0.069,"vel":1.0,"inst":"cello_v0_plucked_113","midi_source":""},{"t":164.853,"note":73,"dur":0.069,"vel":1.0,"inst":"cello_v0_plucked_113","midi_source":""},{"t":164.853,"note":87,"dur":0.069,"vel":1.0,"inst":"synth_pluck_v0_blown_260","midi_source":""},{"t":164.921,"note":58,"dur":0.069,"vel":1.0,"inst":"cello_v0_plucked_113","midi_source":""},{"t":164.921,"note":89,"dur":0.069,"vel":1.0,"inst":"violin_v1_additive_535","midi_source":""},{"t":164.99,"note":61,"dur":0.069,"vel":1.0,"inst":"cello_v0_plucked_113","midi_source":""},{"t":164.99,"note":84,"dur":0.137,"vel":1.0,"inst":"synth_pluck_v0_blown_260","midi_source":""},{"t":165.058,"note":65,"dur":0.069,"vel":1.0,"inst":"violin_v1_additive_535","midi_source":""},{"t":165.127,"note":66,"dur":0.069,"vel":1.0,"inst":"synth_pluck_v0_blown_260","midi_source":""},{"t":165.127,"note":82,"dur":0.206,"vel":1.0,"inst":"cello_v0_plucked_113","midi_source":""},{"t":165.195,"note":58,"dur":0.069,"vel":1.0,"inst":"cello_v0_plucked_113","midi_source":""},{"t":165.264,"note":70,"dur":0.069,"vel":1.0,"inst":"cello_v0_plucked_113","midi_source":""},{"t":165.332,"note":73,"dur":0.069,"vel":1.0,"inst":"cello_v0_plucked_113","midi_source":""},{"t":165.332,"note":87,"dur":0.069,"vel":1.0,"inst":"synth_pluck_v0_blown_260","midi_source":""},{"t":165.401,"note":73,"dur":0.069,"vel":1.0,"inst":"cello_v0_plucked_113","midi_source":""},{"t":165.401,"note":89,"dur":0.069,"vel":1.0,"inst":"violin_v1_additive_535","midi_source":""},{"t":165.469,"note":70,"dur":0.069,"vel":1.0,"inst":"cello_v0_plucked_113","midi_source":""},{"t":165.469,"note":90,"dur":0.069,"vel":1.0,"inst":"synth_pluck_v0_blown_260","midi_source":""},{"t":165.538,"note":63,"dur":0.069,"vel":1.0,"inst":"synth_pluck_v0_blown_260","midi_source":""},{"t":165.538,"note":85,"dur":0.137,"vel":1.0,"inst":"cello_v0_plucked_113","midi_source":""},{"t":165.606,"note":66,"dur":0.069,"vel":1.0,"inst":"synth_pluck_v0_blown_260","midi_source":""},{"t":165.675,"note":58,"dur":0.069,"vel":1.0,"inst":"cello_v0_plucked_113","midi_source":""},{"t":165.675,"note":85,"dur":0.137,"vel":1.0,"inst":"cello_v0_plucked_113","midi_source":""},{"t":165.743,"note":70,"dur":0.069,"vel":1.0,"inst":"cello_v0_plucked_113","midi_source":""},{"t":165.812,"note":58,"dur":0.069,"vel":1.0,"inst":"cello_v0_plucked_113","midi_source":""},{"t":165.88,"note":66,"dur":0.069,"vel":1.0,"inst":"synth_pluck_v0_blown_260","midi_source":""},{"t":165.88,"note":82,"dur":0.069,"vel":1.0,"inst":"cello_v0_plucked_113","midi_source":""},{"t":165.949,"note":65,"dur":0.069,"vel":1.0,"inst":"violin_v1_additive_535","midi_source":""},{"t":165.949,"note":70,"dur":0.069,"vel":1.0,"inst":"cello_v0_plucked_113","midi_source":""},{"t":166.017,"note":63,"dur":0.069,"vel":1.0,"inst":"synth_pluck_v0_blown_260","midi_source":""},{"t":166.017,"note":78,"dur":0.069,"vel":1.0,"inst":"synth_pluck_v0_blown_260","midi_source":""},{"t":166.086,"note":65,"dur":0.069,"vel":1.0,"inst":"violin_v1_additive_535","midi_source":""},{"t":166.086,"note":70,"dur":0.069,"vel":1.0,"inst":"cello_v0_plucked_113","midi_source":""},{"t":166.154,"note":66,"dur":0.069,"vel":1.0,"inst":"synth_pluck_v0_blown_260","midi_source":""},{"t":166.154,"note":75,"dur":0.069,"vel":1.0,"inst":"synth_pluck_v0_blown_260","midi_source":""},{"t":166.223,"note":58,"dur":0.069,"vel":1.0,"inst":"cello_v0_plucked_113","midi_source":""},{"t":166.223,"note":77,"dur":0.069,"vel":1.0,"inst":"violin_v1_additive_535","midi_source":""},{"t":166.291,"note":63,"dur":0.069,"vel":1.0,"inst":"synth_pluck_v0_blown_260","midi_source":""},{"t":166.291,"note":73,"dur":0.069,"vel":1.0,"inst":"cello_v0_plucked_113","midi_source":""},{"t":166.36,"note":65,"dur":0.069,"vel":1.0,"inst":"violin_v1_additive_535","midi_source":""},{"t":166.36,"note":73,"dur":0.069,"vel":1.0,"inst":"cello_v0_plucked_113","midi_source":""},{"t":166.428,"note":70,"dur":0.069,"vel":1.0,"inst":"cello_v0_plucked_113","midi_source":""},{"t":166.428,"note":78,"dur":0.069,"vel":1.0,"inst":"synth_pluck_v0_blown_260","midi_source":""},{"t":166.497,"note":58,"dur":0.069,"vel":1.0,"inst":"cello_v0_plucked_113","midi_source":""},{"t":166.497,"note":77,"dur":0.069,"vel":1.0,"inst":"violin_v1_additive_535","midi_source":""},{"t":166.565,"note":66,"dur":0.069,"vel":1.0,"inst":"synth_pluck_v0_blown_260","midi_source":""},{"t":166.565,"note":75,"dur":0.069,"vel":1.0,"inst":"synth_pluck_v0_blown_260","midi_source":""},{"t":166.634,"note":58,"dur":0.069,"vel":1.0,"inst":"cello_v0_plucked_113","midi_source":""},{"t":166.634,"note":77,"dur":0.069,"vel":1.0,"inst":"violin_v1_additive_535","midi_source":""},{"t":166.702,"note":63,"dur":0.069,"vel":1.0,"inst":"synth_pluck_v0_blown_260","midi_source":""},{"t":166.702,"note":73,"dur":0.069,"vel":1.0,"inst":"cello_v0_plucked_113","midi_source":""},{"t":166.771,"note":65,"dur":0.069,"vel":1.0,"inst":"violin_v1_additive_535","midi_source":""},{"t":166.771,"note":73,"dur":0.069,"vel":1.0,"inst":"cello_v0_plucked_113","midi_source":""},{"t":166.839,"note":60,"dur":0.069,"vel":1.0,"inst":"synth_pluck_v0_blown_260","midi_source":""},{"t":166.839,"note":58,"dur":0.069,"vel":1.0,"inst":"cello_v0_plucked_113","midi_source":""},{"t":166.908,"note":61,"dur":0.069,"vel":1.0,"inst":"cello_v0_plucked_113","midi_source":""},{"t":166.908,"note":70,"dur":0.069,"vel":1.0,"inst":"cello_v0_plucked_113","midi_source":""},{"t":166.976,"note":66,"dur":0.069,"vel":1.0,"inst":"synth_pluck_v0_blown_260","midi_source":""},{"t":166.976,"note":75,"dur":0.069,"vel":1.0,"inst":"synth_pluck_v0_blown_260","midi_source":""},{"t":167.045,"note":65,"dur":0.069,"vel":1.0,"inst":"violin_v1_additive_535","midi_source":""},{"t":167.045,"note":73,"dur":0.069,"vel":1.0,"inst":"cello_v0_plucked_113","midi_source":""},{"t":167.113,"note":63,"dur":0.069,"vel":1.0,"inst":"synth_pluck_v0_blown_260","midi_source":""},{"t":167.113,"note":73,"dur":0.069,"vel":1.0,"inst":"cello_v0_plucked_113","midi_source":""},{"t":167.182,"note":65,"dur":0.069,"vel":1.0,"inst":"violin_v1_additive_535","midi_source":""},{"t":167.182,"note":73,"dur":0.069,"vel":1.0,"inst":"cello_v0_plucked_113","midi_source":""},{"t":167.25,"note":61,"dur":0.069,"vel":1.0,"inst":"cello_v0_plucked_113","midi_source":""},{"t":167.25,"note":58,"dur":0.069,"vel":1.0,"inst":"cello_v0_plucked_113","midi_source":""},{"t":167.319,"note":61,"dur":0.069,"vel":1.0,"inst":"cello_v0_plucked_113","midi_source":""},{"t":167.319,"note":70,"dur":0.069,"vel":1.0,"inst":"cello_v0_plucked_113","midi_source":""},{"t":167.387,"note":46,"dur":0.069,"vel":1.0,"inst":"cello_v0_plucked_113","midi_source":""},{"t":167.387,"note":66,"dur":0.069,"vel":1.0,"inst":"synth_pluck_v0_blown_260","midi_source":""},{"t":167.456,"note":58,"dur":0.069,"vel":1.0,"inst":"cello_v0_plucked_113","midi_source":""},{"t":167.456,"note":60,"dur":0.069,"vel":1.0,"inst":"synth_pluck_v0_blown_260","midi_source":""},{"t":167.456,"note":66,"dur":0.069,"vel":1.0,"inst":"synth_pluck_v0_blown_260","midi_source":""},{"t":167.524,"note":61,"dur":0.069,"vel":1.0,"inst":"cello_v0_plucked_113","midi_source":""},{"t":167.524,"note":72,"dur":0.069,"vel":1.0,"inst":"synth_pluck_v0_blown_260","midi_source":""},{"t":167.593,"note":54,"dur":0.069,"vel":1.0,"inst":"synth_pluck_v0_blown_260","midi_source":""},{"t":167.593,"note":46,"dur":0.069,"vel":1.0,"inst":"cello_v0_plucked_113","midi_source":""},{"t":167.593,"note":70,"dur":0.069,"vel":1.0,"inst":"cello_v0_plucked_113","midi_source":""},{"t":167.661,"note":58,"dur":0.069,"vel":1.0,"inst":"cello_v0_plucked_113","midi_source":""},{"t":167.661,"note":58,"dur":0.069,"vel":1.0,"inst":"cello_v0_plucked_113","midi_source":""},{"t":167.73,"note":49,"dur":0.274,"vel":1.0,"inst":"cello_v0_plucked_113","midi_source":""},{"t":167.73,"note":70,"dur":0.069,"vel":1.0,"inst":"cello_v0_plucked_113","midi_source":""},{"t":167.798,"note":66,"dur":0.069,"vel":1.0,"inst":"synth_pluck_v0_blown_260","midi_source":""},{"t":167.867,"note":58,"dur":0.069,"vel":1.0,"inst":"cello_v0_plucked_113","midi_source":""},{"t":167.935,"note":73,"dur":0.069,"vel":1.0,"inst":"cello_v0_plucked_113","midi_source":""},{"t":168.004,"note":75,"dur":0.069,"vel":1.0,"inst":"synth_pluck_v0_blown_260","midi_source":""},{"t":168.072,"note":70,"dur":0.069,"vel":1.0,"inst":"cello_v0_plucked_113","midi_source":""},{"t":168.141,"note":34,"dur":0.137,"vel":1.0,"inst":"cello_v0_plucked_113","midi_source":""},{"t":168.141,"note":58,"dur":0.069,"vel":1.0,"inst":"cello_v0_plucked_113","midi_source":""},{"t":168.209,"note":66,"dur":0.069,"vel":1.0,"inst":"synth_pluck_v0_blown_260","midi_source":""},{"t":168.278,"note":49,"dur":0.137,"vel":1.0,"inst":"cello_v0_plucked_113","midi_source":""},{"t":168.278,"note":65,"dur":0.069,"vel":1.0,"inst":"violin_v1_additive_535","midi_source":""},{"t":168.346,"note":58,"dur":0.069,"vel":1.0,"inst":"cello_v0_plucked_113","midi_source":""},{"t":168.415,"note":65,"dur":0.137,"vel":1.0,"inst":"violin_v1_additive_535","midi_source":""},{"t":168.415,"note":73,"dur":0.069,"vel":1.0,"inst":"cello_v0_plucked_113","midi_source":""},{"t":168.483,"note":77,"dur":0.137,"vel":1.0,"inst":"violin_v1_additive_535","midi_source":""},{"t":168.552,"note":58,"dur":0.137,"vel":1.0,"inst":"cello_v0_plucked_113","midi_source":""},{"t":168.62,"note":73,"dur":0.069,"vel":1.0,"inst":"cello_v0_plucked_113","midi_source":""},{"t":168.689,"note":46,"dur":0.137,"vel":1.0,"inst":"cello_v0_plucked_113","midi_source":""},{"t":168.689,"note":73,"dur":0.069,"vel":1.0,"inst":"cello_v0_plucked_113","midi_source":""},{"t":168.758,"note":65,"dur":0.069,"vel":1.0,"inst":"violin_v1_additive_535","midi_source":""},{"t":168.826,"note":51,"dur":0.137,"vel":1.0,"inst":"synth_pluck_v0_blown_260","midi_source":""},{"t":168.826,"note":66,"dur":0.069,"vel":1.0,"inst":"synth_pluck_v0_blown_260","midi_source":""},{"t":168.895,"note":70,"dur":0.069,"vel":1.0,"inst":"cello_v0_plucked_113","midi_source":""},{"t":168.963,"note":66,"dur":0.137,"vel":1.0,"inst":"synth_pluck_v0_blown_260","midi_source":""},{"t":168.963,"note":73,"dur":0.069,"vel":1.0,"inst":"cello_v0_plucked_113","midi_source":""},{"t":169.032,"note":77,"dur":0.069,"vel":1.0,"inst":"violin_v1_additive_535","midi_source":""},{"t":169.1,"note":58,"dur":0.137,"vel":1.0,"inst":"cello_v0_plucked_113","midi_source":""},{"t":169.169,"note":73,"dur":0.069,"vel":1.0,"inst":"cello_v0_plucked_113","midi_source":""},{"t":169.237,"note":46,"dur":0.137,"vel":1.0,"inst":"cello_v0_plucked_113","midi_source":""},{"t":169.237,"note":73,"dur":0.069,"vel":1.0,"inst":"cello_v0_plucked_113","midi_source":""},{"t":169.306,"note":66,"dur":0.069,"vel":1.0,"inst":"synth_pluck_v0_blown_260","midi_source":""},{"t":169.374,"note":53,"dur":0.137,"vel":1.0,"inst":"violin_v1_additive_535","midi_source":""},{"t":169.374,"note":58,"dur":0.069,"vel":1.0,"inst":"cello_v0_plucked_113","midi_source":""},{"t":169.443,"note":73,"dur":0.069,"vel":1.0,"inst":"cello_v0_plucked_113","midi_source":""},{"t":169.511,"note":58,"dur":0.137,"vel":1.0,"inst":"cello_v0_plucked_113","midi_source":""},{"t":169.511,"note":73,"dur":0.069,"vel":1.0,"inst":"cello_v0_plucked_113","midi_source":""},{"t":169.58,"note":61,"dur":0.069,"vel":1.0,"inst":"cello_v0_plucked_113","midi_source":""},{"t":169.58,"note":70,"dur":0.069,"vel":1.0,"inst":"cello_v0_plucked_113","midi_source":""},{"t":169.648,"note":63,"dur":0.137,"vel":1.0,"inst":"synth_pluck_v0_blown_260","midi_source":""},{"t":169.648,"note":72,"dur":0.069,"vel":1.0,"inst":"synth_pluck_v0_blown_260","midi_source":""},{"t":169.717,"note":82,"dur":0.069,"vel":1.0,"inst":"cello_v0_plucked_113","midi_source":""},{"t":169.785,"note":60,"dur":0.137,"vel":1.0,"inst":"synth_pluck_v0_blown_260","midi_source":""},{"t":169.785,"note":70,"dur":0.069,"vel":1.0,"inst":"cello_v0_plucked_113","midi_source":""},{"t":169.854,"note":78,"dur":0.069,"vel":1.0,"inst":"synth_pluck_v0_blown_260","midi_source":""},{"t":169.922,"note":61,"dur":0.137,"vel":1.0,"inst":"cello_v0_plucked_113","midi_source":""},{"t":169.922,"note":78,"dur":0.206,"vel":1.0,"inst":"synth_pluck_v0_blown_260","midi_source":""},{"t":170.059,"note":49,"dur":0.137,"vel":1.0,"inst":"cello_v0_plucked_113","midi_source":""},{"t":170.128,"note":75,"dur":0.069,"vel":1.0,"inst":"synth_pluck_v0_blown_260","midi_source":""},{"t":170.196,"note":73,"dur":0.137,"vel":1.0,"inst":"cello_v0_plucked_113","midi_source":""},{"t":170.265,"note":60,"dur":0.069,"vel":1.0,"inst":"synth_pluck_v0_blown_260","midi_source":""},{"t":170.333,"note":58,"dur":0.069,"vel":1.0,"inst":"cello_v0_plucked_113","midi_source":""},{"t":170.333,"note":78,"dur":0.137,"vel":1.0,"inst":"synth_pluck_v0_blown_260","midi_source":""},{"t":170.402,"note":46,"dur":0.069,"vel":1.0,"inst":"cello_v0_plucked_113","midi_source":""},{"t":170.47,"note":58,"dur":0.069,"vel":1.0,"inst":"cello_v0_plucked_113","midi_source":""},{"t":170.47,"note":78,"dur":0.069,"vel":1.0,"inst":"synth_pluck_v0_blown_260","midi_source":""},{"t":170.539,"note":53,"dur":0.069,"vel":1.0,"inst":"violin_v1_additive_535","midi_source":""},{"t":170.539,"note":70,"dur":0.069,"vel":1.0,"inst":"cello_v0_plucked_113","midi_source":""},{"t":170.607,"note":54,"dur":0.069,"vel":1.0,"inst":"synth_pluck_v0_blown_260","midi_source":""},{"t":170.607,"note":82,"dur":0.137,"vel":1.0,"inst":"cello_v0_plucked_113","midi_source":""},{"t":170.676,"note":49,"dur":0.069,"vel":1.0,"inst":"cello_v0_plucked_113","midi_source":""},{"t":170.744,"note":51,"dur":0.069,"vel":1.0,"inst":"synth_pluck_v0_blown_260","midi_source":""},{"t":170.744,"note":72,"dur":0.069,"vel":1.0,"inst":"synth_pluck_v0_blown_260","midi_source":""},{"t":170.813,"note":61,"dur":0.069,"vel":1.0,"inst":"cello_v0_plucked_113","midi_source":""},{"t":170.813,"note":82,"dur":0.069,"vel":1.0,"inst":"cello_v0_plucked_113","midi_source":""},{"t":170.881,"note":60,"dur":0.069,"vel":1.0,"inst":"synth_pluck_v0_blown_260","midi_source":""},{"t":170.881,"note":70,"dur":0.069,"vel":1.0,"inst":"cello_v0_plucked_113","midi_source":""},{"t":170.95,"note":58,"dur":0.069,"vel":1.0,"inst":"cello_v0_plucked_113","midi_source":""},{"t":170.95,"note":78,"dur":0.069,"vel":1.0,"inst":"synth_pluck_v0_blown_260","midi_source":""},{"t":171.018,"note":60,"dur":0.069,"vel":1.0,"inst":"synth_pluck_v0_blown_260","midi_source":""},{"t":171.018,"note":70,"dur":0.069,"vel":1.0,"inst":"cello_v0_plucked_113","midi_source":""},{"t":171.087,"note":54,"dur":0.069,"vel":1.0,"inst":"synth_pluck_v0_blown_260","midi_source":""},{"t":171.087,"note":82,"dur":0.069,"vel":1.0,"inst":"cello_v0_plucked_113","midi_source":""},{"t":171.155,"note":46,"dur":0.069,"vel":1.0,"inst":"cello_v0_plucked_113","midi_source":""},{"t":171.155,"note":84,"dur":0.137,"vel":1.0,"inst":"synth_pluck_v0_blown_260","midi_source":""},{"t":171.224,"note":51,"dur":0.069,"vel":1.0,"inst":"synth_pluck_v0_blown_260","midi_source":""},{"t":171.292,"note":54,"dur":0.069,"vel":1.0,"inst":"synth_pluck_v0_blown_260","midi_source":""},{"t":171.292,"note":73,"dur":0.069,"vel":1.0,"inst":"cello_v0_plucked_113","midi_source":""},{"t":171.361,"note":63,"dur":0.069,"vel":1.0,"inst":"synth_pluck_v0_blown_260","midi_source":""},{"t":171.361,"note":84,"dur":0.069,"vel":1.0,"inst":"synth_pluck_v0_blown_260","midi_source":""},{"t":171.429,"note":61,"dur":0.069,"vel":1.0,"inst":"cello_v0_plucked_113","midi_source":""},{"t":171.429,"note":82,"dur":0.069,"vel":1.0,"inst":"cello_v0_plucked_113","midi_source":""},{"t":171.498,"note":60,"dur":0.069,"vel":1.0,"inst":"synth_pluck_v0_blown_260","midi_source":""},{"t":171.498,"note":70,"dur":0.069,"vel":1.0,"inst":"cello_v0_plucked_113","midi_source":""},{"t":171.566,"note":61,"dur":0.069,"vel":1.0,"inst":"cello_v0_plucked_113","midi_source":""},{"t":171.566,"note":82,"dur":0.069,"vel":1.0,"inst":"cello_v0_plucked_113","midi_source":""},{"t":171.635,"note":46,"dur":0.069,"vel":1.0,"inst":"cello_v0_plucked_113","midi_source":""},{"t":171.635,"note":84,"dur":0.069,"vel":1.0,"inst":"synth_pluck_v0_blown_260","midi_source":""},{"t":171.703,"note":58,"dur":0.069,"vel":1.0,"inst":"cello_v0_plucked_113","midi_source":""},{"t":171.703,"note":85,"dur":0.137,"vel":1.0,"inst":"cello_v0_plucked_113","midi_source":""},{"t":171.772,"note":54,"dur":0.069,"vel":1.0,"inst":"synth_pluck_v0_blown_260","midi_source":""},{"t":171.84,"note":54,"dur":0.069,"vel":1.0,"inst":"synth_pluck_v0_blown_260","midi_source":""},{"t":171.84,"note":75,"dur":0.069,"vel":1.0,"inst":"synth_pluck_v0_blown_260","midi_source":""},{"t":171.909,"note":65,"dur":0.069,"vel":1.0,"inst":"violin_v1_additive_535","midi_source":""},{"t":171.909,"note":85,"dur":0.069,"vel":1.0,"inst":"cello_v0_plucked_113","midi_source":""},{"t":171.977,"note":63,"dur":0.069,"vel":1.0,"inst":"synth_pluck_v0_blown_260","midi_source":""},{"t":171.977,"note":84,"dur":0.069,"vel":1.0,"inst":"synth_pluck_v0_blown_260","midi_source":""},{"t":172.046,"note":61,"dur":0.069,"vel":1.0,"inst":"cello_v0_plucked_113","midi_source":""},{"t":172.046,"note":82,"dur":0.069,"vel":1.0,"inst":"cello_v0_plucked_113","midi_source":""},{"t":172.114,"note":63,"dur":0.069,"vel":1.0,"inst":"synth_pluck_v0_blown_260","midi_source":""},{"t":172.114,"note":84,"dur":0.069,"vel":1.0,"inst":"synth_pluck_v0_blown_260","midi_source":""},{"t":172.183,"note":58,"dur":0.069,"vel":1.0,"inst":"cello_v0_plucked_113","midi_source":""},{"t":172.183,"note":85,"dur":0.069,"vel":1.0,"inst":"cello_v0_plucked_113","midi_source":""},{"t":172.251,"note":60,"dur":0.069,"vel":1.0,"inst":"synth_pluck_v0_blown_260","midi_source":""},{"t":172.251,"note":87,"dur":0.137,"vel":1.0,"inst":"synth_pluck_v0_blown_260","midi_source":""},{"t":172.32,"note":54,"dur":0.069,"vel":1.0,"inst":"synth_pluck_v0_blown_260","midi_source":""},{"t":172.388,"note":46,"dur":0.137,"vel":1.0,"inst":"cello_v0_plucked_113","midi_source":""},{"t":172.388,"note":78,"dur":0.069,"vel":1.0,"inst":"synth_pluck_v0_blown_260","midi_source":""},{"t":172.457,"note":87,"dur":0.069,"vel":1.0,"inst":"synth_pluck_v0_blown_260","midi_source":""},{"t":172.525,"note":66,"dur":0.137,"vel":1.0,"inst":"synth_pluck_v0_blown_260","midi_source":""},{"t":172.525,"note":85,"dur":0.069,"vel":1.0,"inst":"cello_v0_plucked_113","midi_source":""},{"t":172.594,"note":84,"dur":0.069,"vel":1.0,"inst":"synth_pluck_v0_blown_260","midi_source":""},{"t":172.662,"note":66,"dur":0.137,"vel":1.0,"inst":"synth_pluck_v0_blown_260","midi_source":""},{"t":172.662,"note":82,"dur":0.069,"vel":1.0,"inst":"cello_v0_plucked_113","midi_source":""},{"t":172.731,"note":78,"dur":0.069,"vel":1.0,"inst":"synth_pluck_v0_blown_260","midi_source":""},{"t":172.799,"note":70,"dur":0.137,"vel":1.0,"inst":"cello_v0_plucked_113","midi_source":""},{"t":172.799,"note":78,"dur":0.069,"vel":1.0,"inst":"synth_pluck_v0_blown_260","midi_source":""},{"t":172.868,"note":73,"dur":0.069,"vel":1.0,"inst":"cello_v0_plucked_113","midi_source":""},{"t":172.936,"note":60,"dur":0.137,"vel":1.0,"inst":"synth_pluck_v0_blown_260","midi_source":""},{"t":172.936,"note":75,"dur":0.069,"vel":1.0,"inst":"synth_pluck_v0_blown_260","midi_source":""},{"t":173.005,"note":70,"dur":0.069,"vel":1.0,"inst":"cello_v0_plucked_113","midi_source":""},{"t":173.073,"note":63,"dur":0.137,"vel":1.0,"inst":"synth_pluck_v0_blown_260","midi_source":""},{"t":173.073,"note":72,"dur":0.069,"vel":1.0,"inst":"synth_pluck_v0_blown_260","midi_source":""},{"t":173.142,"note":78,"dur":0.069,"vel":1.0,"inst":"synth_pluck_v0_blown_260","midi_source":""},{"t":173.21,"note":54,"dur":0.137,"vel":1.0,"inst":"synth_pluck_v0_blown_260","midi_source":""},{"t":173.21,"note":70,"dur":0.069,"vel":1.0,"inst":"cello_v0_plucked_113","midi_source":""},{"t":173.279,"note":73,"dur":0.069,"vel":1.0,"inst":"cello_v0_plucked_113","midi_source":""},{"t":173.347,"note":46,"dur":0.137,"vel":1.0,"inst":"cello_v0_plucked_113","midi_source":""},{"t":173.347,"note":75,"dur":0.069,"vel":1.0,"inst":"synth_pluck_v0_blown_260","midi_source":""},{"t":173.416,"note":72,"dur":0.069,"vel":1.0,"inst":"synth_pluck_v0_blown_260","midi_source":""},{"t":173.484,"note":48,"dur":0.137,"vel":1.0,"inst":"synth_pluck_v0_blown_260","midi_source":""},{"t":173.484,"note":73,"dur":0.069,"vel":1.0,"inst":"cello_v0_plucked_113","midi_source":""},{"t":173.553,"note":58,"dur":0.069,"vel":1.0,"inst":"cello_v0_plucked_113","midi_source":""},{"t":173.621,"note":49,"dur":0.137,"vel":1.0,"inst":"cello_v0_plucked_113","midi_source":""},{"t":173.621,"note":70,"dur":0.069,"vel":1.0,"inst":"cello_v0_plucked_113","midi_source":""},{"t":173.69,"note":78,"dur":0.069,"vel":1.0,"inst":"synth_pluck_v0_blown_260","midi_source":""},{"t":173.758,"note":51,"dur":0.137,"vel":1.0,"inst":"synth_pluck_v0_blown_260","midi_source":""},{"t":173.758,"note":78,"dur":0.069,"vel":1.0,"inst":"synth_pluck_v0_blown_260","midi_source":""},{"t":173.827,"note":72,"dur":0.069,"vel":1.0,"inst":"synth_pluck_v0_blown_260","midi_source":""},{"t":173.827,"note":73,"dur":0.069,"vel":1.0,"inst":"cello_v0_plucked_113","midi_source":""},{"t":173.895,"note":48,"dur":0.137,"vel":1.0,"inst":"synth_pluck_v0_blown_260","midi_source":""},{"t":173.895,"note":75,"dur":0.069,"vel":1.0,"inst":"synth_pluck_v0_blown_260","midi_source":""},{"t":173.964,"note":72,"dur":0.069,"vel":1.0,"inst":"synth_pluck_v0_blown_260","midi_source":""},{"t":174.032,"note":49,"dur":0.137,"vel":1.0,"inst":"cello_v0_plucked_113","midi_source":""},{"t":174.032,"note":58,"dur":0.069,"vel":1.0,"inst":"cello_v0_plucked_113","midi_source":""},{"t":174.101,"note":72,"dur":0.069,"vel":1.0,"inst":"synth_pluck_v0_blown_260","midi_source":""},{"t":174.169,"note":61,"dur":0.137,"vel":1.0,"inst":"cello_v0_plucked_113","midi_source":""},{"t":174.169,"note":78,"dur":0.069,"vel":1.0,"inst":"synth_pluck_v0_blown_260","midi_source":""},{"t":174.238,"note":78,"dur":0.069,"vel":1.0,"inst":"synth_pluck_v0_blown_260","midi_source":""},{"t":174.306,"note":54,"dur":0.137,"vel":1.0,"inst":"synth_pluck_v0_blown_260","midi_source":""},{"t":174.306,"note":78,"dur":0.069,"vel":1.0,"inst":"synth_pluck_v0_blown_260","midi_source":""},{"t":174.375,"note":72,"dur":0.069,"vel":1.0,"inst":"synth_pluck_v0_blown_260","midi_source":""},{"t":174.443,"note":61,"dur":0.137,"vel":1.0,"inst":"cello_v0_plucked_113","midi_source":""},{"t":174.443,"note":70,"dur":0.069,"vel":1.0,"inst":"cello_v0_plucked_113","midi_source":""},{"t":174.512,"note":58,"dur":0.069,"vel":1.0,"inst":"cello_v0_plucked_113","midi_source":""},{"t":174.58,"note":66,"dur":0.137,"vel":1.0,"inst":"synth_pluck_v0_blown_260","midi_source":""},{"t":174.58,"note":70,"dur":0.069,"vel":1.0,"inst":"cello_v0_plucked_113","midi_source":""},{"t":174.649,"note":78,"dur":0.069,"vel":1.0,"inst":"synth_pluck_v0_blown_260","midi_source":""},{"t":174.717,"note":58,"dur":0.137,"vel":1.0,"inst":"cello_v0_plucked_113","midi_source":""},{"t":174.717,"note":77,"dur":0.069,"vel":1.0,"inst":"violin_v1_additive_535","midi_source":""},{"t":174.786,"note":75,"dur":0.069,"vel":1.0,"inst":"synth_pluck_v0_blown_260","midi_source":""},{"t":174.854,"note":66,"dur":0.206,"vel":1.0,"inst":"synth_pluck_v0_blown_260","midi_source":""},{"t":174.854,"note":73,"dur":0.069,"vel":1.0,"inst":"cello_v0_plucked_113","midi_source":""},{"t":174.923,"note":78,"dur":0.069,"vel":1.0,"inst":"synth_pluck_v0_blown_260","midi_source":""},{"t":174.923,"note":70,"dur":0.069,"vel":1.0,"inst":"cello_v0_plucked_113","midi_source":""},{"t":174.991,"note":82,"dur":0.069,"vel":1.0,"inst":"cello_v0_plucked_113","midi_source":""},{"t":175.06,"note":60,"dur":0.069,"vel":1.0,"inst":"synth_pluck_v0_blown_260","midi_source":""},{"t":175.06,"note":61,"dur":0.069,"vel":1.0,"inst":"cello_v0_plucked_113","midi_source":""},{"t":175.06,"note":78,"dur":0.069,"vel":1.0,"inst":"synth_pluck_v0_blown_260","midi_source":""},{"t":175.128,"note":58,"dur":0.069,"vel":1.0,"inst":"cello_v0_plucked_113","midi_source":""},{"t":175.128,"note":60,"dur":0.069,"vel":1.0,"inst":"synth_pluck_v0_blown_260","midi_source":""},{"t":175.128,"note":73,"dur":0.137,"vel":1.0,"inst":"cello_v0_plucked_113","midi_source":""},{"t":175.197,"note":61,"dur":0.069,"vel":1.0,"inst":"cello_v0_plucked_113","midi_source":""},{"t":175.265,"note":54,"dur":0.069,"vel":1.0,"inst":"synth_pluck_v0_blown_260","midi_source":""},{"t":175.265,"note":46,"dur":0.069,"vel":1.0,"inst":"cello_v0_plucked_113","midi_source":""},{"t":175.265,"note":75,"dur":0.137,"vel":1.0,"inst":"synth_pluck_v0_blown_260","midi_source":""},{"t":175.334,"note":58,"dur":0.069,"vel":1.0,"inst":"cello_v0_plucked_113","midi_source":""},{"t":175.402,"note":49,"dur":0.206,"vel":1.0,"inst":"cello_v0_plucked_113","midi_source":""},{"t":175.402,"note":77,"dur":0.069,"vel":1.0,"inst":"violin_v1_additive_535","midi_source":""},{"t":175.471,"note":72,"dur":0.069,"vel":1.0,"inst":"synth_pluck_v0_blown_260","midi_source":""},{"t":175.539,"note":73,"dur":0.069,"vel":1.0,"inst":"cello_v0_plucked_113","midi_source":""},{"t":175.608,"note":51,"dur":0.069,"vel":1.0,"inst":"synth_pluck_v0_blown_260","midi_source":""},{"t":175.608,"note":53,"dur":0.069,"vel":1.0,"inst":"violin_v1_additive_535","midi_source":""},{"t":175.608,"note":58,"dur":0.069,"vel":1.0,"inst":"cello_v0_plucked_113","midi_source":""},{"t":175.676,"note":49,"dur":0.069,"vel":1.0,"inst":"cello_v0_plucked_113","midi_source":""},{"t":175.676,"note":51,"dur":0.069,"vel":1.0,"inst":"synth_pluck_v0_blown_260","midi_source":""},{"t":175.676,"note":70,"dur":0.137,"vel":1.0,"inst":"cello_v0_plucked_113","midi_source":""},{"t":175.745,"note":53,"dur":0.069,"vel":1.0,"inst":"violin_v1_additive_535","midi_source":""},{"t":175.813,"note":46,"dur":0.069,"vel":1.0,"inst":"cello_v0_plucked_113","midi_source":""},{"t":175.813,"note":48,"dur":0.069,"vel":1.0,"inst":"synth_pluck_v0_blown_260","midi_source":""},{"t":175.813,"note":85,"dur":0.206,"vel":1.0,"inst":"cello_v0_plucked_113","midi_source":""},{"t":175.882,"note":49,"dur":0.069,"vel":1.0,"inst":"cello_v0_plucked_113","midi_source":""},{"t":175.95,"note":39,"dur":0.137,"vel":1.0,"inst":"synth_pluck_v0_blown_260","midi_source":""},{"t":176.019,"note":78,"dur":0.069,"vel":1.0,"inst":"synth_pluck_v0_blown_260","midi_source":""},{"t":176.019,"note":70,"dur":0.069,"vel":1.0,"inst":"cello_v0_plucked_113","midi_source":""},{"t":176.087,"note":42,"dur":0.137,"vel":1.0,"inst":"synth_pluck_v0_blown_260","midi_source":""},{"t":176.087,"note":82,"dur":0.069,"vel":1.0,"inst":"cello_v0_plucked_113","midi_source":""},{"t":176.156,"note":78,"dur":0.069,"vel":1.0,"inst":"synth_pluck_v0_blown_260","midi_source":""},{"t":176.224,"note":48,"dur":0.137,"vel":1.0,"inst":"synth_pluck_v0_blown_260","midi_source":""},{"t":176.224,"note":75,"dur":0.069,"vel":1.0,"inst":"synth_pluck_v0_blown_260","midi_source":""},{"t":176.293,"note":84,"dur":0.069,"vel":1.0,"inst":"synth_pluck_v0_blown_260","midi_source":""},{"t":176.361,"note":51,"dur":0.137,"vel":1.0,"inst":"synth_pluck_v0_blown_260","midi_source":""},{"t":176.361,"note":78,"dur":0.069,"vel":1.0,"inst":"synth_pluck_v0_blown_260","midi_source":""},{"t":176.361,"note":70,"dur":0.069,"vel":1.0,"inst":"cello_v0_plucked_113","midi_source":""},{"t":176.43,"note":82,"dur":0.069,"vel":1.0,"inst":"cello_v0_plucked_113","midi_source":""},{"t":176.498,"note":53,"dur":0.206,"vel":1.0,"inst":"violin_v1_additive_535","midi_source":""},{"t":176.498,"note":70,"dur":0.069,"vel":1.0,"inst":"cello_v0_plucked_113","midi_source":""},{"t":176.567,"note":75,"dur":0.069,"vel":1.0,"inst":"synth_pluck_v0_blown_260","midi_source":""},{"t":176.635,"note":77,"dur":0.137,"vel":1.0,"inst":"violin_v1_additive_535","midi_source":""},{"t":176.704,"note":70,"dur":0.069,"vel":1.0,"inst":"cello_v0_plucked_113","midi_source":""},{"t":176.704,"note":72,"dur":0.069,"vel":1.0,"inst":"synth_pluck_v0_blown_260","midi_source":""},{"t":176.772,"note":58,"dur":0.069,"vel":1.0,"inst":"cello_v0_plucked_113","midi_source":""},{"t":176.772,"note":70,"dur":0.069,"vel":1.0,"inst":"cello_v0_plucked_113","midi_source":""},{"t":176.841,"note":72,"dur":0.069,"vel":1.0,"inst":"synth_pluck_v0_blown_260","midi_source":""},{"t":176.909,"note":65,"dur":0.069,"vel":1.0,"inst":"violin_v1_additive_535","midi_source":""},{"t":176.909,"note":66,"dur":0.069,"vel":1.0,"inst":"synth_pluck_v0_blown_260","midi_source":""},{"t":176.909,"note":73,"dur":0.137,"vel":1.0,"inst":"cello_v0_plucked_113","midi_source":""},{"t":176.909,"note":70,"dur":0.137,"vel":1.0,"inst":"cello_v0_plucked_113","midi_source":""},{"t":176.978,"note":58,"dur":0.069,"vel":1.0,"inst":"cello_v0_plucked_113","midi_source":""},{"t":177.046,"note":58,"dur":0.069,"vel":1.0,"inst":"cello_v0_plucked_113","midi_source":""},{"t":177.046,"note":70,"dur":0.137,"vel":1.0,"inst":"cello_v0_plucked_113","midi_source":""},{"t":177.115,"note":61,"dur":0.069,"vel":1.0,"inst":"cello_v0_plucked_113","midi_source":""},{"t":177.183,"note":63,"dur":0.069,"vel":1.0,"inst":"synth_pluck_v0_blown_260","midi_source":""},{"t":177.183,"note":78,"dur":0.206,"vel":1.0,"inst":"synth_pluck_v0_blown_260","midi_source":""},{"t":177.252,"note":65,"dur":0.069,"vel":1.0,"inst":"violin_v1_additive_535","midi_source":""},{"t":177.32,"note":66,"dur":0.069,"vel":1.0,"inst":"synth_pluck_v0_blown_260","midi_source":""},{"t":177.389,"note":58,"dur":0.069,"vel":1.0,"inst":"cello_v0_plucked_113","midi_source":""},{"t":177.389,"note":85,"dur":0.069,"vel":1.0,"inst":"cello_v0_plucked_113","midi_source":""},{"t":177.457,"note":70,"dur":0.069,"vel":1.0,"inst":"cello_v0_plucked_113","midi_source":""},{"t":177.457,"note":85,"dur":0.069,"vel":1.0,"inst":"cello_v0_plucked_113","midi_source":""},{"t":177.526,"note":66,"dur":0.069,"vel":1.0,"inst":"synth_pluck_v0_blown_260","midi_source":""},{"t":177.526,"note":87,"dur":0.069,"vel":1.0,"inst":"synth_pluck_v0_blown_260","midi_source":""},{"t":177.594,"note":61,"dur":0.069,"vel":1.0,"inst":"cello_v0_plucked_113","midi_source":""},{"t":177.594,"note":82,"dur":0.137,"vel":1.0,"inst":"cello_v0_plucked_113","midi_source":""},{"t":177.663,"note":63,"dur":0.069,"vel":1.0,"inst":"synth_pluck_v0_blown_260","midi_source":""},{"t":177.731,"note":65,"dur":0.069,"vel":1.0,"inst":"violin_v1_additive_535","midi_source":""},{"t":177.731,"note":70,"dur":0.137,"vel":1.0,"inst":"cello_v0_plucked_113","midi_source":""},{"t":177.8,"note":66,"dur":0.069,"vel":1.0,"inst":"synth_pluck_v0_blown_260","midi_source":""},{"t":177.868,"note":58,"dur":0.069,"vel":1.0,"inst":"cello_v0_plucked_113","midi_source":""},{"t":177.937,"note":70,"dur":0.069,"vel":1.0,"inst":"cello_v0_plucked_113","midi_source":""},{"t":177.937,"note":85,"dur":0.069,"vel":1.0,"inst":"cello_v0_plucked_113","midi_source":""},{"t":178.005,"note":73,"dur":0.069,"vel":1.0,"inst":"cello_v0_plucked_113","midi_source":""},{"t":178.005,"note":87,"dur":0.069,"vel":1.0,"inst":"synth_pluck_v0_blown_260","midi_source":""},{"t":178.074,"note":58,"dur":0.069,"vel":1.0,"inst":"cello_v0_plucked_113","midi_source":""},{"t":178.074,"note":89,"dur":0.069,"vel":1.0,"inst":"violin_v1_additive_535","midi_source":""},{"t":178.142,"note":61,"dur":0.069,"vel":1.0,"inst":"cello_v0_plucked_113","midi_source":""},{"t":178.142,"note":84,"dur":0.137,"vel":1.0,"inst":"synth_pluck_v0_blown_260","midi_source":""},{"t":178.211,"note":65,"dur":0.069,"vel":1.0,"inst":"violin_v1_additive_535","midi_source":""},{"t":178.279,"note":66,"dur":0.069,"vel":1.0,"inst":"synth_pluck_v0_blown_260","midi_source":""},{"t":178.279,"note":82,"dur":0.206,"vel":1.0,"inst":"cello_v0_plucked_113","midi_source":""},{"t":178.348,"note":58,"dur":0.069,"vel":1.0,"inst":"cello_v0_plucked_113","midi_source":""},{"t":178.416,"note":70,"dur":0.069,"vel":1.0,"inst":"cello_v0_plucked_113","midi_source":""},{"t":178.485,"note":73,"dur":0.069,"vel":1.0,"inst":"cello_v0_plucked_113","midi_source":""},{"t":178.485,"note":87,"dur":0.069,"vel":1.0,"inst":"synth_pluck_v0_blown_260","midi_source":""},{"t":178.553,"note":73,"dur":0.069,"vel":1.0,"inst":"cello_v0_plucked_113","midi_source":""},{"t":178.553,"note":89,"dur":0.069,"vel":1.0,"inst":"violin_v1_additive_535","midi_source":""},{"t":178.622,"note":70,"dur":0.069,"vel":1.0,"inst":"cello_v0_plucked_113","midi_source":""},{"t":178.622,"note":90,"dur":0.069,"vel":1.0,"inst":"synth_pluck_v0_blown_260","midi_source":""},{"t":178.69,"note":63,"dur":0.069,"vel":1.0,"inst":"synth_pluck_v0_blown_260","midi_source":""},{"t":178.69,"note":85,"dur":0.137,"vel":1.0,"inst":"cello_v0_plucked_113","midi_source":""},{"t":178.759,"note":66,"dur":0.069,"vel":1.0,"inst":"synth_pluck_v0_blown_260","midi_source":""},{"t":178.827,"note":58,"dur":0.069,"vel":1.0,"inst":"cello_v0_plucked_113","midi_source":""},{"t":178.827,"note":85,"dur":0.137,"vel":1.0,"inst":"cello_v0_plucked_113","midi_source":""},{"t":178.896,"note":70,"dur":0.069,"vel":1.0,"inst":"cello_v0_plucked_113","midi_source":""},{"t":178.964,"note":58,"dur":0.069,"vel":1.0,"inst":"cello_v0_plucked_113","midi_source":""},{"t":179.033,"note":66,"dur":0.069,"vel":1.0,"inst":"synth_pluck_v0_blown_260","midi_source":""},{"t":179.033,"note":82,"dur":0.069,"vel":1.0,"inst":"cello_v0_plucked_113","midi_source":""},{"t":179.101,"note":65,"dur":0.069,"vel":1.0,"inst":"violin_v1_additive_535","midi_source":""},{"t":179.101,"note":70,"dur":0.069,"vel":1.0,"inst":"cello_v0_plucked_113","midi_source":""},{"t":179.17,"note":63,"dur":0.069,"vel":1.0,"inst":"synth_pluck_v0_blown_260","midi_source":""},{"t":179.17,"note":78,"dur":0.069,"vel":1.0,"inst":"synth_pluck_v0_blown_260","midi_source":""},{"t":179.238,"note":65,"dur":0.069,"vel":1.0,"inst":"violin_v1_additive_535","midi_source":""},{"t":179.238,"note":70,"dur":0.069,"vel":1.0,"inst":"cello_v0_plucked_113","midi_source":""},{"t":179.307,"note":66,"dur":0.069,"vel":1.0,"inst":"synth_pluck_v0_blown_260","midi_source":""},{"t":179.307,"note":75,"dur":0.069,"vel":1.0,"inst":"synth_pluck_v0_blown_260","midi_source":""},{"t":179.375,"note":58,"dur":0.069,"vel":1.0,"inst":"cello_v0_plucked_113","midi_source":""},{"t":179.375,"note":77,"dur":0.069,"vel":1.0,"inst":"violin_v1_additive_535","midi_source":""},{"t":179.444,"note":63,"dur":0.069,"vel":1.0,"inst":"synth_pluck_v0_blown_260","midi_source":""},{"t":179.444,"note":73,"dur":0.069,"vel":1.0,"inst":"cello_v0_plucked_113","midi_source":""},{"t":179.512,"note":65,"dur":0.069,"vel":1.0,"inst":"violin_v1_additive_535","midi_source":""},{"t":179.512,"note":73,"dur":0.069,"vel":1.0,"inst":"cello_v0_plucked_113","midi_source":""},{"t":179.581,"note":70,"dur":0.069,"vel":1.0,"inst":"cello_v0_plucked_113","midi_source":""},{"t":179.581,"note":78,"dur":0.069,"vel":1.0,"inst":"synth_pluck_v0_blown_260","midi_source":""},{"t":179.649,"note":58,"dur":0.069,"vel":1.0,"inst":"cello_v0_plucked_113","midi_source":""},{"t":179.649,"note":77,"dur":0.069,"vel":1.0,"inst":"violin_v1_additive_535","midi_source":""},{"t":179.718,"note":66,"dur":0.069,"vel":1.0,"inst":"synth_pluck_v0_blown_260","midi_source":""},{"t":179.718,"note":75,"dur":0.069,"vel":1.0,"inst":"synth_pluck_v0_blown_260","midi_source":""},{"t":179.786,"note":58,"dur":0.069,"vel":1.0,"inst":"cello_v0_plucked_113","midi_source":""},{"t":179.786,"note":77,"dur":0.069,"vel":1.0,"inst":"violin_v1_additive_535","midi_source":""},{"t":179.855,"note":63,"dur":0.069,"vel":1.0,"inst":"synth_pluck_v0_blown_260","midi_source":""},{"t":179.855,"note":73,"dur":0.069,"vel":1.0,"inst":"cello_v0_plucked_113","midi_source":""},{"t":179.923,"note":65,"dur":0.069,"vel":1.0,"inst":"violin_v1_additive_535","midi_source":""},{"t":179.923,"note":73,"dur":0.069,"vel":1.0,"inst":"cello_v0_plucked_113","midi_source":""},{"t":179.992,"note":60,"dur":0.069,"vel":1.0,"inst":"synth_pluck_v0_blown_260","midi_source":""},{"t":179.992,"note":58,"dur":0.069,"vel":1.0,"inst":"cello_v0_plucked_113","midi_source":""},{"t":180.06,"note":61,"dur":0.069,"vel":1.0,"inst":"cello_v0_plucked_113","midi_source":""},{"t":180.06,"note":70,"dur":0.069,"vel":1.0,"inst":"cello_v0_plucked_113","midi_source":""},{"t":180.129,"note":66,"dur":0.069,"vel":1.0,"inst":"synth_pluck_v0_blown_260","midi_source":""},{"t":180.129,"note":75,"dur":0.069,"vel":1.0,"inst":"synth_pluck_v0_blown_260","midi_source":""},{"t":180.197,"note":65,"dur":0.069,"vel":1.0,"inst":"violin_v1_additive_535","midi_source":""},{"t":180.197,"note":73,"dur":0.069,"vel":1.0,"inst":"cello_v0_plucked_113","midi_source":""},{"t":180.266,"note":63,"dur":0.069,"vel":1.0,"inst":"synth_pluck_v0_blown_260","midi_source":""},{"t":180.266,"note":73,"dur":0.069,"vel":1.0,"inst":"cello_v0_plucked_113","midi_source":""},{"t":180.334,"note":65,"dur":0.069,"vel":1.0,"inst":"violin_v1_additive_535","midi_source":""},{"t":180.334,"note":73,"dur":0.069,"vel":1.0,"inst":"cello_v0_plucked_113","midi_source":""},{"t":180.403,"note":61,"dur":0.069,"vel":1.0,"inst":"cello_v0_plucked_113","midi_source":""},{"t":180.403,"note":58,"dur":0.069,"vel":1.0,"inst":"cello_v0_plucked_113","midi_source":""},{"t":180.471,"note":61,"dur":0.069,"vel":1.0,"inst":"cello_v0_plucked_113","midi_source":""},{"t":180.471,"note":70,"dur":0.069,"vel":1.0,"inst":"cello_v0_plucked_113","midi_source":""},{"t":180.54,"note":46,"dur":0.069,"vel":1.0,"inst":"cello_v0_plucked_113","midi_source":""},{"t":180.54,"note":66,"dur":0.069,"vel":1.0,"inst":"synth_pluck_v0_blown_260","midi_source":""},{"t":180.608,"note":58,"dur":0.069,"vel":1.0,"inst":"cello_v0_plucked_113","midi_source":""},{"t":180.608,"note":60,"dur":0.069,"vel":1.0,"inst":"synth_pluck_v0_blown_260","midi_source":""},{"t":180.608,"note":66,"dur":0.069,"vel":1.0,"inst":"synth_pluck_v0_blown_260","midi_source":""},{"t":180.677,"note":61,"dur":0.069,"vel":1.0,"inst":"cello_v0_plucked_113","midi_source":""},{"t":180.677,"note":72,"dur":0.069,"vel":1.0,"inst":"synth_pluck_v0_blown_260","midi_source":""},{"t":180.745,"note":54,"dur":0.069,"vel":1.0,"inst":"synth_pluck_v0_blown_260","midi_source":""},{"t":180.745,"note":46,"dur":0.069,"vel":1.0,"inst":"cello_v0_plucked_113","midi_source":""},{"t":180.745,"note":70,"dur":0.069,"vel":1.0,"inst":"cello_v0_plucked_113","midi_source":""},{"t":180.814,"note":58,"dur":0.069,"vel":1.0,"inst":"cello_v0_plucked_113","midi_source":""},{"t":180.814,"note":58,"dur":0.069,"vel":1.0,"inst":"cello_v0_plucked_113","midi_source":""},{"t":180.882,"note":49,"dur":0.274,"vel":1.0,"inst":"cello_v0_plucked_113","midi_source":""},{"t":180.882,"note":70,"dur":0.069,"vel":1.0,"inst":"cello_v0_plucked_113","midi_source":""},{"t":180.951,"note":66,"dur":0.069,"vel":1.0,"inst":"synth_pluck_v0_blown_260","midi_source":""},{"t":181.019,"note":58,"dur":0.069,"vel":1.0,"inst":"cello_v0_plucked_113","midi_source":""},{"t":181.088,"note":73,"dur":0.069,"vel":1.0,"inst":"cello_v0_plucked_113","midi_source":""},{"t":181.157,"note":75,"dur":0.069,"vel":1.0,"inst":"synth_pluck_v0_blown_260","midi_source":""},{"t":181.225,"note":70,"dur":0.069,"vel":1.0,"inst":"cello_v0_plucked_113","midi_source":""},{"t":181.294,"note":34,"dur":0.137,"vel":1.0,"inst":"cello_v0_plucked_113","midi_source":""},{"t":181.294,"note":58,"dur":0.069,"vel":1.0,"inst":"cello_v0_plucked_113","midi_source":""},{"t":181.362,"note":66,"dur":0.069,"vel":1.0,"inst":"synth_pluck_v0_blown_260","midi_source":""},{"t":181.431,"note":49,"dur":0.137,"vel":1.0,"inst":"cello_v0_plucked_113","midi_source":""},{"t":181.431,"note":65,"dur":0.069,"vel":1.0,"inst":"violin_v1_additive_535","midi_source":""},{"t":181.499,"note":58,"dur":0.069,"vel":1.0,"inst":"cello_v0_plucked_113","midi_source":""},{"t":181.568,"note":65,"dur":0.137,"vel":1.0,"inst":"violin_v1_additive_535","midi_source":""},{"t":181.568,"note":73,"dur":0.069,"vel":1.0,"inst":"cello_v0_plucked_113","midi_source":""},{"t":181.636,"note":77,"dur":0.137,"vel":1.0,"inst":"violin_v1_additive_535","midi_source":""},{"t":181.705,"note":58,"dur":0.137,"vel":1.0,"inst":"cello_v0_plucked_113","midi_source":""},{"t":181.773,"note":73,"dur":0.069,"vel":1.0,"inst":"cello_v0_plucked_113","midi_source":""},{"t":181.842,"note":46,"dur":0.137,"vel":1.0,"inst":"cello_v0_plucked_113","midi_source":""},{"t":181.842,"note":73,"dur":0.069,"vel":1.0,"inst":"cello_v0_plucked_113","midi_source":""},{"t":181.91,"note":65,"dur":0.069,"vel":1.0,"inst":"violin_v1_additive_535","midi_source":""},{"t":181.979,"note":51,"dur":0.137,"vel":1.0,"inst":"synth_pluck_v0_blown_260","midi_source":""},{"t":181.979,"note":66,"dur":0.069,"vel":1.0,"inst":"synth_pluck_v0_blown_260","midi_source":""},{"t":182.047,"note":70,"dur":0.069,"vel":1.0,"inst":"cello_v0_plucked_113","midi_source":""},{"t":182.116,"note":66,"dur":0.137,"vel":1.0,"inst":"synth_pluck_v0_blown_260","midi_source":""},{"t":182.116,"note":73,"dur":0.069,"vel":1.0,"inst":"cello_v0_plucked_113","midi_source":""},{"t":182.184,"note":77,"dur":0.069,"vel":1.0,"inst":"violin_v1_additive_535","midi_source":""},{"t":182.253,"note":58,"dur":0.137,"vel":1.0,"inst":"cello_v0_plucked_113","midi_source":""},{"t":182.321,"note":73,"dur":0.069,"vel":1.0,"inst":"cello_v0_plucked_113","midi_source":""},{"t":182.39,"note":46,"dur":0.137,"vel":1.0,"inst":"cello_v0_plucked_113","midi_source":""},{"t":182.39,"note":73,"dur":0.069,"vel":1.0,"inst":"cello_v0_plucked_113","midi_source":""},{"t":182.458,"note":66,"dur":0.069,"vel":1.0,"inst":"synth_pluck_v0_blown_260","midi_source":""},{"t":182.527,"note":53,"dur":0.137,"vel":1.0,"inst":"violin_v1_additive_535","midi_source":""},{"t":182.527,"note":58,"dur":0.069,"vel":1.0,"inst":"cello_v0_plucked_113","midi_source":""},{"t":182.595,"note":73,"dur":0.069,"vel":1.0,"inst":"cello_v0_plucked_113","midi_source":""},{"t":182.664,"note":58,"dur":0.137,"vel":1.0,"inst":"cello_v0_plucked_113","midi_source":""},{"t":182.664,"note":73,"dur":0.069,"vel":1.0,"inst":"cello_v0_plucked_113","midi_source":""},{"t":182.732,"note":61,"dur":0.069,"vel":1.0,"inst":"cello_v0_plucked_113","midi_source":""},{"t":182.732,"note":70,"dur":0.069,"vel":1.0,"inst":"cello_v0_plucked_113","midi_source":""},{"t":182.801,"note":63,"dur":0.137,"vel":1.0,"inst":"synth_pluck_v0_blown_260","midi_source":""},{"t":182.801,"note":72,"dur":0.069,"vel":1.0,"inst":"synth_pluck_v0_blown_260","midi_source":""},{"t":182.869,"note":82,"dur":0.069,"vel":1.0,"inst":"cello_v0_plucked_113","midi_source":""},{"t":182.938,"note":60,"dur":0.137,"vel":1.0,"inst":"synth_pluck_v0_blown_260","midi_source":""},{"t":182.938,"note":70,"dur":0.069,"vel":1.0,"inst":"cello_v0_plucked_113","midi_source":""},{"t":183.006,"note":78,"dur":0.069,"vel":1.0,"inst":"synth_pluck_v0_blown_260","midi_source":""},{"t":183.075,"note":61,"dur":0.137,"vel":1.0,"inst":"cello_v0_plucked_113","midi_source":""},{"t":183.075,"note":78,"dur":0.206,"vel":1.0,"inst":"synth_pluck_v0_blown_260","midi_source":""},{"t":183.212,"note":49,"dur":0.137,"vel":1.0,"inst":"cello_v0_plucked_113","midi_source":""},{"t":183.28,"note":75,"dur":0.069,"vel":1.0,"inst":"synth_pluck_v0_blown_260","midi_source":""},{"t":183.349,"note":73,"dur":0.137,"vel":1.0,"inst":"cello_v0_plucked_113","midi_source":""},{"t":183.417,"note":60,"dur":0.069,"vel":1.0,"inst":"synth_pluck_v0_blown_260","midi_source":""},{"t":183.486,"note":58,"dur":0.069,"vel":1.0,"inst":"cello_v0_plucked_113","midi_source":""},{"t":183.486,"note":78,"dur":0.137,"vel":1.0,"inst":"synth_pluck_v0_blown_260","midi_source":""},{"t":183.554,"note":46,"dur":0.069,"vel":1.0,"inst":"cello_v0_plucked_113","midi_source":""},{"t":183.623,"note":58,"dur":0.069,"vel":1.0,"inst":"cello_v0_plucked_113","midi_source":""},{"t":183.623,"note":78,"dur":0.069,"vel":1.0,"inst":"synth_pluck_v0_blown_260","midi_source":""},{"t":183.691,"note":53,"dur":0.069,"vel":1.0,"inst":"violin_v1_additive_535","midi_source":""},{"t":183.691,"note":70,"dur":0.069,"vel":1.0,"inst":"cello_v0_plucked_113","midi_source":""},{"t":183.76,"note":54,"dur":0.069,"vel":1.0,"inst":"synth_pluck_v0_blown_260","midi_source":""},{"t":183.76,"note":82,"dur":0.137,"vel":1.0,"inst":"cello_v0_plucked_113","midi_source":""},{"t":183.828,"note":49,"dur":0.069,"vel":1.0,"inst":"cello_v0_plucked_113","midi_source":""},{"t":183.897,"note":51,"dur":0.069,"vel":1.0,"inst":"synth_pluck_v0_blown_260","midi_source":""},{"t":183.897,"note":72,"dur":0.069,"vel":1.0,"inst":"synth_pluck_v0_blown_260","midi_source":""},{"t":183.965,"note":61,"dur":0.069,"vel":1.0,"inst":"cello_v0_plucked_113","midi_source":""},{"t":183.965,"note":82,"dur":0.069,"vel":1.0,"inst":"cello_v0_plucked_113","midi_source":""},{"t":184.034,"note":60,"dur":0.069,"vel":1.0,"inst":"synth_pluck_v0_blown_260","midi_source":""},{"t":184.034,"note":70,"dur":0.069,"vel":1.0,"inst":"cello_v0_plucked_113","midi_source":""},{"t":184.102,"note":58,"dur":0.069,"vel":1.0,"inst":"cello_v0_plucked_113","midi_source":""},{"t":184.102,"note":78,"dur":0.069,"vel":1.0,"inst":"synth_pluck_v0_blown_260","midi_source":""},{"t":184.171,"note":60,"dur":0.069,"vel":1.0,"inst":"synth_pluck_v0_blown_260","midi_source":""},{"t":184.171,"note":70,"dur":0.069,"vel":1.0,"inst":"cello_v0_plucked_113","midi_source":""},{"t":184.239,"note":54,"dur":0.069,"vel":1.0,"inst":"synth_pluck_v0_blown_260","midi_source":""},{"t":184.239,"note":82,"dur":0.069,"vel":1.0,"inst":"cello_v0_plucked_113","midi_source":""},{"t":184.308,"note":46,"dur":0.069,"vel":1.0,"inst":"cello_v0_plucked_113","midi_source":""},{"t":184.308,"note":84,"dur":0.137,"vel":1.0,"inst":"synth_pluck_v0_blown_260","midi_source":""},{"t":184.376,"note":51,"dur":0.069,"vel":1.0,"inst":"synth_pluck_v0_blown_260","midi_source":""},{"t":184.445,"note":54,"dur":0.069,"vel":1.0,"inst":"synth_pluck_v0_blown_260","midi_source":""},{"t":184.445,"note":73,"dur":0.069,"vel":1.0,"inst":"cello_v0_plucked_113","midi_source":""},{"t":184.513,"note":63,"dur":0.069,"vel":1.0,"inst":"synth_pluck_v0_blown_260","midi_source":""},{"t":184.513,"note":84,"dur":0.069,"vel":1.0,"inst":"synth_pluck_v0_blown_260","midi_source":""},{"t":184.582,"note":61,"dur":0.069,"vel":1.0,"inst":"cello_v0_plucked_113","midi_source":""},{"t":184.582,"note":82,"dur":0.069,"vel":1.0,"inst":"cello_v0_plucked_113","midi_source":""},{"t":184.65,"note":60,"dur":0.069,"vel":1.0,"inst":"synth_pluck_v0_blown_260","midi_source":""},{"t":184.65,"note":70,"dur":0.069,"vel":1.0,"inst":"cello_v0_plucked_113","midi_source":""},{"t":184.719,"note":61,"dur":0.069,"vel":1.0,"inst":"cello_v0_plucked_113","midi_source":""},{"t":184.719,"note":82,"dur":0.069,"vel":1.0,"inst":"cello_v0_plucked_113","midi_source":""},{"t":184.787,"note":46,"dur":0.069,"vel":1.0,"inst":"cello_v0_plucked_113","midi_source":""},{"t":184.787,"note":84,"dur":0.069,"vel":1.0,"inst":"synth_pluck_v0_blown_260","midi_source":""},{"t":184.856,"note":58,"dur":0.069,"vel":1.0,"inst":"cello_v0_plucked_113","midi_source":""},{"t":184.856,"note":85,"dur":0.137,"vel":1.0,"inst":"cello_v0_plucked_113","midi_source":""},{"t":184.924,"note":54,"dur":0.069,"vel":1.0,"inst":"synth_pluck_v0_blown_260","midi_source":""},{"t":184.993,"note":54,"dur":0.069,"vel":1.0,"inst":"synth_pluck_v0_blown_260","midi_source":""},{"t":184.993,"note":75,"dur":0.069,"vel":1.0,"inst":"synth_pluck_v0_blown_260","midi_source":""},{"t":185.061,"note":65,"dur":0.069,"vel":1.0,"inst":"violin_v1_additive_535","midi_source":""},{"t":185.061,"note":85,"dur":0.069,"vel":1.0,"inst":"cello_v0_plucked_113","midi_source":""},{"t":185.13,"note":63,"dur":0.069,"vel":1.0,"inst":"synth_pluck_v0_blown_260","midi_source":""},{"t":185.13,"note":84,"dur":0.069,"vel":1.0,"inst":"synth_pluck_v0_blown_260","midi_source":""},{"t":185.198,"note":61,"dur":0.069,"vel":1.0,"inst":"cello_v0_plucked_113","midi_source":""},{"t":185.198,"note":82,"dur":0.069,"vel":1.0,"inst":"cello_v0_plucked_113","midi_source":""},{"t":185.267,"note":63,"dur":0.069,"vel":1.0,"inst":"synth_pluck_v0_blown_260","midi_source":""},{"t":185.267,"note":84,"dur":0.069,"vel":1.0,"inst":"synth_pluck_v0_blown_260","midi_source":""},{"t":185.335,"note":58,"dur":0.069,"vel":1.0,"inst":"cello_v0_plucked_113","midi_source":""},{"t":185.335,"note":85,"dur":0.069,"vel":1.0,"inst":"cello_v0_plucked_113","midi_source":""},{"t":185.404,"note":60,"dur":0.069,"vel":1.0,"inst":"synth_pluck_v0_blown_260","midi_source":""},{"t":185.404,"note":87,"dur":0.137,"vel":1.0,"inst":"synth_pluck_v0_blown_260","midi_source":""},{"t":185.472,"note":54,"dur":0.069,"vel":1.0,"inst":"synth_pluck_v0_blown_260","midi_source":""},{"t":185.541,"note":46,"dur":0.137,"vel":1.0,"inst":"cello_v0_plucked_113","midi_source":""},{"t":185.541,"note":78,"dur":0.069,"vel":1.0,"inst":"synth_pluck_v0_blown_260","midi_source":""},{"t":185.609,"note":87,"dur":0.069,"vel":1.0,"inst":"synth_pluck_v0_blown_260","midi_source":""},{"t":185.678,"note":66,"dur":0.137,"vel":1.0,"inst":"synth_pluck_v0_blown_260","midi_source":""},{"t":185.678,"note":85,"dur":0.069,"vel":1.0,"inst":"cello_v0_plucked_113","midi_source":""},{"t":185.746,"note":84,"dur":0.069,"vel":1.0,"inst":"synth_pluck_v0_blown_260","midi_source":""},{"t":185.815,"note":66,"dur":0.137,"vel":1.0,"inst":"synth_pluck_v0_blown_260","midi_source":""},{"t":185.815,"note":82,"dur":0.069,"vel":1.0,"inst":"cello_v0_plucked_113","midi_source":""},{"t":185.883,"note":78,"dur":0.069,"vel":1.0,"inst":"synth_pluck_v0_blown_260","midi_source":""},{"t":185.952,"note":70,"dur":0.137,"vel":1.0,"inst":"cello_v0_plucked_113","midi_source":""},{"t":185.952,"note":78,"dur":0.069,"vel":1.0,"inst":"synth_pluck_v0_blown_260","midi_source":""},{"t":186.02,"note":73,"dur":0.069,"vel":1.0,"inst":"cello_v0_plucked_113","midi_source":""},{"t":186.089,"note":60,"dur":0.137,"vel":1.0,"inst":"synth_pluck_v0_blown_260","midi_source":""},{"t":186.089,"note":75,"dur":0.069,"vel":1.0,"inst":"synth_pluck_v0_blown_260","midi_source":""},{"t":186.157,"note":70,"dur":0.069,"vel":1.0,"inst":"cello_v0_plucked_113","midi_source":""},{"t":186.226,"note":63,"dur":0.137,"vel":1.0,"inst":"synth_pluck_v0_blown_260","midi_source":""},{"t":186.226,"note":72,"dur":0.069,"vel":1.0,"inst":"synth_pluck_v0_blown_260","midi_source":""},{"t":186.294,"note":78,"dur":0.069,"vel":1.0,"inst":"synth_pluck_v0_blown_260","midi_source":""},{"t":186.363,"note":54,"dur":0.137,"vel":1.0,"inst":"synth_pluck_v0_blown_260","midi_source":""},{"t":186.363,"note":70,"dur":0.069,"vel":1.0,"inst":"cello_v0_plucked_113","midi_source":""},{"t":186.431,"note":73,"dur":0.069,"vel":1.0,"inst":"cello_v0_plucked_113","midi_source":""},{"t":186.5,"note":46,"dur":0.137,"vel":1.0,"inst":"cello_v0_plucked_113","midi_source":""},{"t":186.5,"note":75,"dur":0.069,"vel":1.0,"inst":"synth_pluck_v0_blown_260","midi_source":""},{"t":186.568,"note":72,"dur":0.069,"vel":1.0,"inst":"synth_pluck_v0_blown_260","midi_source":""},{"t":186.637,"note":48,"dur":0.137,"vel":1.0,"inst":"synth_pluck_v0_blown_260","midi_source":""},{"t":186.637,"note":73,"dur":0.069,"vel":1.0,"inst":"cello_v0_plucked_113","midi_source":""},{"t":186.705,"note":58,"dur":0.069,"vel":1.0,"inst":"cello_v0_plucked_113","midi_source":""},{"t":186.774,"note":49,"dur":0.137,"vel":1.0,"inst":"cello_v0_plucked_113","midi_source":""},{"t":186.774,"note":70,"dur":0.069,"vel":1.0,"inst":"cello_v0_plucked_113","midi_source":""},{"t":186.842,"note":78,"dur":0.069,"vel":1.0,"inst":"synth_pluck_v0_blown_260","midi_source":""},{"t":186.911,"note":51,"dur":0.137,"vel":1.0,"inst":"synth_pluck_v0_blown_260","midi_source":""},{"t":186.911,"note":78,"dur":0.069,"vel":1.0,"inst":"synth_pluck_v0_blown_260","midi_source":""},{"t":186.979,"note":72,"dur":0.069,"vel":1.0,"inst":"synth_pluck_v0_blown_260","midi_source":""},{"t":186.979,"note":73,"dur":0.069,"vel":1.0,"inst":"cello_v0_plucked_113","midi_source":""},{"t":187.048,"note":48,"dur":0.137,"vel":1.0,"inst":"synth_pluck_v0_blown_260","midi_source":""},{"t":187.048,"note":75,"dur":0.069,"vel":1.0,"inst":"synth_pluck_v0_blown_260","midi_source":""},{"t":187.116,"note":72,"dur":0.069,"vel":1.0,"inst":"synth_pluck_v0_blown_260","midi_source":""},{"t":187.185,"note":49,"dur":0.137,"vel":1.0,"inst":"cello_v0_plucked_113","midi_source":""},{"t":187.185,"note":58,"dur":0.069,"vel":1.0,"inst":"cello_v0_plucked_113","midi_source":""},{"t":187.253,"note":72,"dur":0.069,"vel":1.0,"inst":"synth_pluck_v0_blown_260","midi_source":""},{"t":187.322,"note":61,"dur":0.137,"vel":1.0,"inst":"cello_v0_plucked_113","midi_source":""},{"t":187.322,"note":78,"dur":0.069,"vel":1.0,"inst":"synth_pluck_v0_blown_260","midi_source":""},{"t":187.39,"note":78,"dur":0.069,"vel":1.0,"inst":"synth_pluck_v0_blown_260","midi_source":""},{"t":187.459,"note":54,"dur":0.137,"vel":1.0,"inst":"synth_pluck_v0_blown_260","midi_source":""},{"t":187.459,"note":78,"dur":0.069,"vel":1.0,"inst":"synth_pluck_v0_blown_260","midi_source":""},{"t":187.527,"note":72,"dur":0.069,"vel":1.0,"inst":"synth_pluck_v0_blown_260","midi_source":""},{"t":187.596,"note":61,"dur":0.137,"vel":1.0,"inst":"cello_v0_plucked_113","midi_source":""},{"t":187.596,"note":70,"dur":0.069,"vel":1.0,"inst":"cello_v0_plucked_113","midi_source":""},{"t":187.664,"note":58,"dur":0.069,"vel":1.0,"inst":"cello_v0_plucked_113","midi_source":""},{"t":187.733,"note":66,"dur":0.137,"vel":1.0,"inst":"synth_pluck_v0_blown_260","midi_source":""},{"t":187.733,"note":70,"dur":0.069,"vel":1.0,"inst":"cello_v0_plucked_113","midi_source":""},{"t":187.801,"note":78,"dur":0.069,"vel":1.0,"inst":"synth_pluck_v0_blown_260","midi_source":""},{"t":187.87,"note":58,"dur":0.137,"vel":1.0,"inst":"cello_v0_plucked_113","midi_source":""},{"t":187.87,"note":77,"dur":0.069,"vel":1.0,"inst":"violin_v1_additive_535","midi_source":""},{"t":187.938,"note":75,"dur":0.069,"vel":1.0,"inst":"synth_pluck_v0_blown_260","midi_source":""},{"t":188.007,"note":66,"dur":0.206,"vel":1.0,"inst":"synth_pluck_v0_blown_260","midi_source":""},{"t":188.007,"note":73,"dur":0.069,"vel":1.0,"inst":"cello_v0_plucked_113","midi_source":""},{"t":188.075,"note":78,"dur":0.069,"vel":1.0,"inst":"synth_pluck_v0_blown_260","midi_source":""},{"t":188.075,"note":70,"dur":0.069,"vel":1.0,"inst":"cello_v0_plucked_113","midi_source":""},{"t":188.144,"note":82,"dur":0.069,"vel":1.0,"inst":"cello_v0_plucked_113","midi_source":""},{"t":188.212,"note":60,"dur":0.069,"vel":1.0,"inst":"synth_pluck_v0_blown_260","midi_source":""},{"t":188.212,"note":61,"dur":0.069,"vel":1.0,"inst":"cello_v0_plucked_113","midi_source":""},{"t":188.212,"note":78,"dur":0.069,"vel":1.0,"inst":"synth_pluck_v0_blown_260","midi_source":""},{"t":188.281,"note":58,"dur":0.069,"vel":1.0,"inst":"cello_v0_plucked_113","midi_source":""},{"t":188.281,"note":60,"dur":0.069,"vel":1.0,"inst":"synth_pluck_v0_blown_260","midi_source":""},{"t":188.281,"note":73,"dur":0.137,"vel":1.0,"inst":"cello_v0_plucked_113","midi_source":""},{"t":188.349,"note":61,"dur":0.069,"vel":1.0,"inst":"cello_v0_plucked_113","midi_source":""},{"t":188.418,"note":54,"dur":0.069,"vel":1.0,"inst":"synth_pluck_v0_blown_260","midi_source":""},{"t":188.418,"note":46,"dur":0.069,"vel":1.0,"inst":"cello_v0_plucked_113","midi_source":""},{"t":188.418,"note":75,"dur":0.137,"vel":1.0,"inst":"synth_pluck_v0_blown_260","midi_source":""},{"t":188.486,"note":58,"dur":0.069,"vel":1.0,"inst":"cello_v0_plucked_113","midi_source":""},{"t":188.555,"note":49,"dur":0.206,"vel":1.0,"inst":"cello_v0_plucked_113","midi_source":""},{"t":188.555,"note":77,"dur":0.069,"vel":1.0,"inst":"violin_v1_additive_535","midi_source":""},{"t":188.623,"note":72,"dur":0.069,"vel":1.0,"inst":"synth_pluck_v0_blown_260","midi_source":""},{"t":188.692,"note":73,"dur":0.069,"vel":1.0,"inst":"cello_v0_plucked_113","midi_source":""},{"t":188.76,"note":51,"dur":0.069,"vel":1.0,"inst":"synth_pluck_v0_blown_260","midi_source":""},{"t":188.76,"note":53,"dur":0.069,"vel":1.0,"inst":"violin_v1_additive_535","midi_source":""},{"t":188.76,"note":58,"dur":0.069,"vel":1.0,"inst":"cello_v0_plucked_113","midi_source":""},{"t":188.829,"note":49,"dur":0.069,"vel":1.0,"inst":"cello_v0_plucked_113","midi_source":""},{"t":188.829,"note":51,"dur":0.069,"vel":1.0,"inst":"synth_pluck_v0_blown_260","midi_source":""},{"t":188.829,"note":70,"dur":0.137,"vel":1.0,"inst":"cello_v0_plucked_113","midi_source":""},{"t":188.897,"note":53,"dur":0.069,"vel":1.0,"inst":"violin_v1_additive_535","midi_source":""},{"t":188.966,"note":46,"dur":0.069,"vel":1.0,"inst":"cello_v0_plucked_113","midi_source":""},{"t":188.966,"note":48,"dur":0.069,"vel":1.0,"inst":"synth_pluck_v0_blown_260","midi_source":""},{"t":188.966,"note":85,"dur":0.206,"vel":1.0,"inst":"cello_v0_plucked_113","midi_source":""},{"t":189.034,"note":49,"dur":0.069,"vel":1.0,"inst":"cello_v0_plucked_113","midi_source":""},{"t":189.103,"note":39,"dur":0.137,"vel":1.0,"inst":"synth_pluck_v0_blown_260","midi_source":""},{"t":189.171,"note":78,"dur":0.069,"vel":1.0,"inst":"synth_pluck_v0_blown_260","midi_source":""},{"t":189.171,"note":70,"dur":0.069,"vel":1.0,"inst":"cello_v0_plucked_113","midi_source":""},{"t":189.24,"note":42,"dur":0.137,"vel":1.0,"inst":"synth_pluck_v0_blown_260","midi_source":""},{"t":189.24,"note":82,"dur":0.069,"vel":1.0,"inst":"cello_v0_plucked_113","midi_source":""},{"t":189.308,"note":78,"dur":0.069,"vel":1.0,"inst":"synth_pluck_v0_blown_260","midi_source":""},{"t":189.377,"note":48,"dur":0.137,"vel":1.0,"inst":"synth_pluck_v0_blown_260","midi_source":""},{"t":189.377,"note":75,"dur":0.069,"vel":1.0,"inst":"synth_pluck_v0_blown_260","midi_source":""},{"t":189.445,"note":84,"dur":0.069,"vel":1.0,"inst":"synth_pluck_v0_blown_260","midi_source":""},{"t":189.514,"note":51,"dur":0.137,"vel":1.0,"inst":"synth_pluck_v0_blown_260","midi_source":""},{"t":189.514,"note":78,"dur":0.069,"vel":1.0,"inst":"synth_pluck_v0_blown_260","midi_source":""},{"t":189.514,"note":70,"dur":0.069,"vel":1.0,"inst":"cello_v0_plucked_113","midi_source":""},{"t":189.582,"note":82,"dur":0.069,"vel":1.0,"inst":"cello_v0_plucked_113","midi_source":""},{"t":189.651,"note":53,"dur":0.206,"vel":1.0,"inst":"violin_v1_additive_535","midi_source":""},{"t":189.651,"note":70,"dur":0.069,"vel":1.0,"inst":"cello_v0_plucked_113","midi_source":""},{"t":189.719,"note":75,"dur":0.069,"vel":1.0,"inst":"synth_pluck_v0_blown_260","midi_source":""},{"t":189.788,"note":77,"dur":0.137,"vel":1.0,"inst":"violin_v1_additive_535","midi_source":""},{"t":189.856,"note":70,"dur":0.069,"vel":1.0,"inst":"cello_v0_plucked_113","midi_source":""},{"t":189.856,"note":72,"dur":0.069,"vel":1.0,"inst":"synth_pluck_v0_blown_260","midi_source":""},{"t":189.925,"note":58,"dur":0.069,"vel":1.0,"inst":"cello_v0_plucked_113","midi_source":""},{"t":189.925,"note":70,"dur":0.069,"vel":1.0,"inst":"cello_v0_plucked_113","midi_source":""},{"t":189.993,"note":72,"dur":0.069,"vel":1.0,"inst":"synth_pluck_v0_blown_260","midi_source":""},{"t":190.062,"note":65,"dur":0.069,"vel":1.0,"inst":"violin_v1_additive_535","midi_source":""},{"t":190.062,"note":66,"dur":0.069,"vel":1.0,"inst":"synth_pluck_v0_blown_260","midi_source":""},{"t":190.062,"note":73,"dur":0.137,"vel":1.0,"inst":"cello_v0_plucked_113","midi_source":""},{"t":190.062,"note":70,"dur":0.137,"vel":1.0,"inst":"cello_v0_plucked_113","midi_source":""},{"t":190.13,"note":58,"dur":0.069,"vel":1.0,"inst":"cello_v0_plucked_113","midi_source":""},{"t":190.199,"note":58,"dur":0.069,"vel":1.0,"inst":"cello_v0_plucked_113","midi_source":""},{"t":190.199,"note":70,"dur":0.137,"vel":1.0,"inst":"cello_v0_plucked_113","midi_source":""},{"t":190.267,"note":61,"dur":0.069,"vel":1.0,"inst":"cello_v0_plucked_113","midi_source":""},{"t":190.336,"note":63,"dur":0.069,"vel":1.0,"inst":"synth_pluck_v0_blown_260","midi_source":""},{"t":190.336,"note":78,"dur":0.206,"vel":1.0,"inst":"synth_pluck_v0_blown_260","midi_source":""},{"t":190.404,"note":65,"dur":0.069,"vel":1.0,"inst":"violin_v1_additive_535","midi_source":""},{"t":190.473,"note":66,"dur":0.069,"vel":1.0,"inst":"synth_pluck_v0_blown_260","midi_source":""},{"t":190.541,"note":58,"dur":0.069,"vel":1.0,"inst":"cello_v0_plucked_113","midi_source":""},{"t":190.541,"note":85,"dur":0.069,"vel":1.0,"inst":"cello_v0_plucked_113","midi_source":""},{"t":190.61,"note":70,"dur":0.069,"vel":1.0,"inst":"cello_v0_plucked_113","midi_source":""},{"t":190.61,"note":85,"dur":0.069,"vel":1.0,"inst":"cello_v0_plucked_113","midi_source":""},{"t":190.678,"note":66,"dur":0.069,"vel":1.0,"inst":"synth_pluck_v0_blown_260","midi_source":""},{"t":190.678,"note":87,"dur":0.069,"vel":1.0,"inst":"synth_pluck_v0_blown_260","midi_source":""},{"t":190.747,"note":61,"dur":0.069,"vel":1.0,"inst":"cello_v0_plucked_113","midi_source":""},{"t":190.747,"note":82,"dur":0.137,"vel":1.0,"inst":"cello_v0_plucked_113","midi_source":""},{"t":190.815,"note":63,"dur":0.069,"vel":1.0,"inst":"synth_pluck_v0_blown_260","midi_source":""},{"t":190.884,"note":65,"dur":0.069,"vel":1.0,"inst":"violin_v1_additive_535","midi_source":""},{"t":190.884,"note":70,"dur":0.137,"vel":1.0,"inst":"cello_v0_plucked_113","midi_source":""},{"t":190.952,"note":66,"dur":0.069,"vel":1.0,"inst":"synth_pluck_v0_blown_260","midi_source":""},{"t":191.021,"note":58,"dur":0.069,"vel":1.0,"inst":"cello_v0_plucked_113","midi_source":""},{"t":191.089,"note":70,"dur":0.069,"vel":1.0,"inst":"cello_v0_plucked_113","midi_source":""},{"t":191.089,"note":85,"dur":0.069,"vel":1.0,"inst":"cello_v0_plucked_113","midi_source":""},{"t":191.158,"note":73,"dur":0.069,"vel":1.0,"inst":"cello_v0_plucked_113","midi_source":""},{"t":191.158,"note":87,"dur":0.069,"vel":1.0,"inst":"synth_pluck_v0_blown_260","midi_source":""},{"t":191.226,"note":58,"dur":0.069,"vel":1.0,"inst":"cello_v0_plucked_113","midi_source":""},{"t":191.226,"note":89,"dur":0.069,"vel":1.0,"inst":"violin_v1_additive_535","midi_source":""},{"t":191.295,"note":61,"dur":0.069,"vel":1.0,"inst":"cello_v0_plucked_113","midi_source":""},{"t":191.295,"note":84,"dur":0.137,"vel":1.0,"inst":"synth_pluck_v0_blown_260","midi_source":""},{"t":191.363,"note":65,"dur":0.069,"vel":1.0,"inst":"violin_v1_additive_535","midi_source":""},{"t":191.432,"note":66,"dur":0.069,"vel":1.0,"inst":"synth_pluck_v0_blown_260","midi_source":""},{"t":191.432,"note":82,"dur":0.206,"vel":1.0,"inst":"cello_v0_plucked_113","midi_source":""},{"t":191.5,"note":58,"dur":0.069,"vel":1.0,"inst":"cello_v0_plucked_113","midi_source":""},{"t":191.569,"note":70,"dur":0.069,"vel":1.0,"inst":"cello_v0_plucked_113","midi_source":""},{"t":191.637,"note":73,"dur":0.069,"vel":1.0,"inst":"cello_v0_plucked_113","midi_source":""},{"t":191.637,"note":87,"dur":0.069,"vel":1.0,"inst":"synth_pluck_v0_blown_260","midi_source":""},{"t":191.706,"note":73,"dur":0.069,"vel":1.0,"inst":"cello_v0_plucked_113","midi_source":""},{"t":191.706,"note":89,"dur":0.069,"vel":1.0,"inst":"violin_v1_additive_535","midi_source":""},{"t":191.774,"note":70,"dur":0.069,"vel":1.0,"inst":"cello_v0_plucked_113","midi_source":""},{"t":191.774,"note":90,"dur":0.069,"vel":1.0,"inst":"synth_pluck_v0_blown_260","midi_source":""},{"t":191.843,"note":63,"dur":0.069,"vel":1.0,"inst":"synth_pluck_v0_blown_260","midi_source":""},{"t":191.843,"note":85,"dur":0.137,"vel":1.0,"inst":"cello_v0_plucked_113","midi_source":""},{"t":191.911,"note":66,"dur":0.069,"vel":1.0,"inst":"synth_pluck_v0_blown_260","midi_source":""},{"t":191.98,"note":58,"dur":0.069,"vel":1.0,"inst":"cello_v0_plucked_113","midi_source":""},{"t":191.98,"note":85,"dur":0.137,"vel":1.0,"inst":"cello_v0_plucked_113","midi_source":""},{"t":192.048,"note":70,"dur":0.069,"vel":1.0,"inst":"cello_v0_plucked_113","midi_source":""},{"t":192.117,"note":58,"dur":0.069,"vel":1.0,"inst":"cello_v0_plucked_113","midi_source":""},{"t":192.185,"note":66,"dur":0.069,"vel":1.0,"inst":"synth_pluck_v0_blown_260","midi_source":""},{"t":192.185,"note":82,"dur":0.069,"vel":1.0,"inst":"cello_v0_plucked_113","midi_source":""},{"t":192.254,"note":65,"dur":0.069,"vel":1.0,"inst":"violin_v1_additive_535","midi_source":""},{"t":192.254,"note":70,"dur":0.069,"vel":1.0,"inst":"cello_v0_plucked_113","midi_source":""},{"t":192.322,"note":63,"dur":0.069,"vel":1.0,"inst":"synth_pluck_v0_blown_260","midi_source":""},{"t":192.322,"note":78,"dur":0.069,"vel":1.0,"inst":"synth_pluck_v0_blown_260","midi_source":""},{"t":192.391,"note":65,"dur":0.069,"vel":1.0,"inst":"violin_v1_additive_535","midi_source":""},{"t":192.391,"note":70,"dur":0.069,"vel":1.0,"inst":"cello_v0_plucked_113","midi_source":""},{"t":192.459,"note":66,"dur":0.069,"vel":1.0,"inst":"synth_pluck_v0_blown_260","midi_source":""},{"t":192.459,"note":75,"dur":0.069,"vel":1.0,"inst":"synth_pluck_v0_blown_260","midi_source":""},{"t":192.528,"note":58,"dur":0.069,"vel":1.0,"inst":"cello_v0_plucked_113","midi_source":""},{"t":192.528,"note":77,"dur":0.069,"vel":1.0,"inst":"violin_v1_additive_535","midi_source":""},{"t":192.596,"note":63,"dur":0.069,"vel":1.0,"inst":"synth_pluck_v0_blown_260","midi_source":""},{"t":192.596,"note":73,"dur":0.069,"vel":1.0,"inst":"cello_v0_plucked_113","midi_source":""},{"t":192.665,"note":65,"dur":0.069,"vel":1.0,"inst":"violin_v1_additive_535","midi_source":""},{"t":192.665,"note":73,"dur":0.069,"vel":1.0,"inst":"cello_v0_plucked_113","midi_source":""},{"t":192.733,"note":70,"dur":0.069,"vel":1.0,"inst":"cello_v0_plucked_113","midi_source":""},{"t":192.733,"note":78,"dur":0.069,"vel":1.0,"inst":"synth_pluck_v0_blown_260","midi_source":""},{"t":192.802,"note":58,"dur":0.069,"vel":1.0,"inst":"cello_v0_plucked_113","midi_source":""},{"t":192.802,"note":77,"dur":0.069,"vel":1.0,"inst":"violin_v1_additive_535","midi_source":""},{"t":192.87,"note":66,"dur":0.069,"vel":1.0,"inst":"synth_pluck_v0_blown_260","midi_source":""},{"t":192.87,"note":75,"dur":0.069,"vel":1.0,"inst":"synth_pluck_v0_blown_260","midi_source":""},{"t":192.939,"note":58,"dur":0.069,"vel":1.0,"inst":"cello_v0_plucked_113","midi_source":""},{"t":192.939,"note":77,"dur":0.069,"vel":1.0,"inst":"violin_v1_additive_535","midi_source":""},{"t":193.007,"note":63,"dur":0.069,"vel":1.0,"inst":"synth_pluck_v0_blown_260","midi_source":""},{"t":193.007,"note":73,"dur":0.069,"vel":1.0,"inst":"cello_v0_plucked_113","midi_source":""},{"t":193.076,"note":65,"dur":0.069,"vel":1.0,"inst":"violin_v1_additive_535","midi_source":""},{"t":193.076,"note":73,"dur":0.069,"vel":1.0,"inst":"cello_v0_plucked_113","midi_source":""},{"t":193.144,"note":60,"dur":0.069,"vel":1.0,"inst":"synth_pluck_v0_blown_260","midi_source":""},{"t":193.144,"note":58,"dur":0.069,"vel":1.0,"inst":"cello_v0_plucked_113","midi_source":""},{"t":193.213,"note":61,"dur":0.069,"vel":1.0,"inst":"cello_v0_plucked_113","midi_source":""},{"t":193.213,"note":70,"dur":0.069,"vel":1.0,"inst":"cello_v0_plucked_113","midi_source":""},{"t":193.281,"note":66,"dur":0.069,"vel":1.0,"inst":"synth_pluck_v0_blown_260","midi_source":""},{"t":193.281,"note":75,"dur":0.069,"vel":1.0,"inst":"synth_pluck_v0_blown_260","midi_source":""},{"t":193.35,"note":65,"dur":0.069,"vel":1.0,"inst":"violin_v1_additive_535","midi_source":""},{"t":193.35,"note":73,"dur":0.069,"vel":1.0,"inst":"cello_v0_plucked_113","midi_source":""},{"t":193.418,"note":63,"dur":0.069,"vel":1.0,"inst":"synth_pluck_v0_blown_260","midi_source":""},{"t":193.418,"note":73,"dur":0.069,"vel":1.0,"inst":"cello_v0_plucked_113","midi_source":""},{"t":193.487,"note":65,"dur":0.069,"vel":1.0,"inst":"violin_v1_additive_535","midi_source":""},{"t":193.487,"note":73,"dur":0.069,"vel":1.0,"inst":"cello_v0_plucked_113","midi_source":""},{"t":193.556,"note":61,"dur":0.069,"vel":1.0,"inst":"cello_v0_plucked_113","midi_source":""},{"t":193.556,"note":58,"dur":0.069,"vel":1.0,"inst":"cello_v0_plucked_113","midi_source":""},{"t":193.624,"note":61,"dur":0.069,"vel":1.0,"inst":"cello_v0_plucked_113","midi_source":""},{"t":193.624,"note":70,"dur":0.069,"vel":1.0,"inst":"cello_v0_plucked_113","midi_source":""},{"t":193.693,"note":46,"dur":0.069,"vel":1.0,"inst":"cello_v0_plucked_113","midi_source":""},{"t":193.693,"note":66,"dur":0.069,"vel":1.0,"inst":"synth_pluck_v0_blown_260","midi_source":""},{"t":193.761,"note":58,"dur":0.069,"vel":1.0,"inst":"cello_v0_plucked_113","midi_source":""},{"t":193.761,"note":60,"dur":0.069,"vel":1.0,"inst":"synth_pluck_v0_blown_260","midi_source":""},{"t":193.761,"note":66,"dur":0.069,"vel":1.0,"inst":"synth_pluck_v0_blown_260","midi_source":""},{"t":193.83,"note":61,"dur":0.069,"vel":1.0,"inst":"cello_v0_plucked_113","midi_source":""},{"t":193.83,"note":72,"dur":0.069,"vel":1.0,"inst":"synth_pluck_v0_blown_260","midi_source":""},{"t":193.898,"note":54,"dur":0.069,"vel":1.0,"inst":"synth_pluck_v0_blown_260","midi_source":""},{"t":193.898,"note":46,"dur":0.069,"vel":1.0,"inst":"cello_v0_plucked_113","midi_source":""},{"t":193.898,"note":70,"dur":0.069,"vel":1.0,"inst":"cello_v0_plucked_113","midi_source":""},{"t":193.967,"note":58,"dur":0.069,"vel":1.0,"inst":"cello_v0_plucked_113","midi_source":""},{"t":193.967,"note":58,"dur":0.069,"vel":1.0,"inst":"cello_v0_plucked_113","midi_source":""},{"t":194.035,"note":49,"dur":0.274,"vel":1.0,"inst":"cello_v0_plucked_113","midi_source":""},{"t":194.035,"note":70,"dur":0.069,"vel":1.0,"inst":"cello_v0_plucked_113","midi_source":""},{"t":194.104,"note":66,"dur":0.069,"vel":1.0,"inst":"synth_pluck_v0_blown_260","midi_source":""},{"t":194.172,"note":58,"dur":0.069,"vel":1.0,"inst":"cello_v0_plucked_113","midi_source":""},{"t":194.241,"note":73,"dur":0.069,"vel":1.0,"inst":"cello_v0_plucked_113","midi_source":""},{"t":194.309,"note":75,"dur":0.069,"vel":1.0,"inst":"synth_pluck_v0_blown_260","midi_source":""},{"t":194.378,"note":70,"dur":0.069,"vel":1.0,"inst":"cello_v0_plucked_113","midi_source":""},{"t":194.446,"note":34,"dur":0.137,"vel":1.0,"inst":"cello_v0_plucked_113","midi_source":""},{"t":194.446,"note":58,"dur":0.069,"vel":1.0,"inst":"cello_v0_plucked_113","midi_source":""},{"t":194.515,"note":66,"dur":0.069,"vel":1.0,"inst":"synth_pluck_v0_blown_260","midi_source":""},{"t":194.583,"note":49,"dur":0.137,"vel":1.0,"inst":"cello_v0_plucked_113","midi_source":""},{"t":194.583,"note":65,"dur":0.069,"vel":1.0,"inst":"violin_v1_additive_535","midi_source":""},{"t":194.652,"note":58,"dur":0.069,"vel":1.0,"inst":"cello_v0_plucked_113","midi_source":""},{"t":194.72,"note":65,"dur":0.137,"vel":1.0,"inst":"violin_v1_additive_535","midi_source":""},{"t":194.72,"note":73,"dur":0.069,"vel":1.0,"inst":"cello_v0_plucked_113","midi_source":""},{"t":194.789,"note":77,"dur":0.137,"vel":1.0,"inst":"violin_v1_additive_535","midi_source":""},{"t":194.857,"note":58,"dur":0.137,"vel":1.0,"inst":"cello_v0_plucked_113","midi_source":""},{"t":194.926,"note":73,"dur":0.069,"vel":1.0,"inst":"cello_v0_plucked_113","midi_source":""},{"t":194.994,"note":46,"dur":0.137,"vel":1.0,"inst":"cello_v0_plucked_113","midi_source":""},{"t":194.994,"note":73,"dur":0.069,"vel":1.0,"inst":"cello_v0_plucked_113","midi_source":""},{"t":195.063,"note":65,"dur":0.069,"vel":1.0,"inst":"violin_v1_additive_535","midi_source":""},{"t":195.131,"note":51,"dur":0.137,"vel":1.0,"inst":"synth_pluck_v0_blown_260","midi_source":""},{"t":195.131,"note":66,"dur":0.069,"vel":1.0,"inst":"synth_pluck_v0_blown_260","midi_source":""},{"t":195.2,"note":70,"dur":0.069,"vel":1.0,"inst":"cello_v0_plucked_113","midi_source":""},{"t":195.268,"note":66,"dur":0.137,"vel":1.0,"inst":"synth_pluck_v0_blown_260","midi_source":""},{"t":195.268,"note":73,"dur":0.069,"vel":1.0,"inst":"cello_v0_plucked_113","midi_source":""},{"t":195.337,"note":77,"dur":0.069,"vel":1.0,"inst":"violin_v1_additive_535","midi_source":""},{"t":195.405,"note":58,"dur":0.137,"vel":1.0,"inst":"cello_v0_plucked_113","midi_source":""},{"t":195.474,"note":73,"dur":0.069,"vel":1.0,"inst":"cello_v0_plucked_113","midi_source":""},{"t":195.542,"note":46,"dur":0.137,"vel":1.0,"inst":"cello_v0_plucked_113","midi_source":""},{"t":195.542,"note":73,"dur":0.069,"vel":1.0,"inst":"cello_v0_plucked_113","midi_source":""},{"t":195.611,"note":66,"dur":0.069,"vel":1.0,"inst":"synth_pluck_v0_blown_260","midi_source":""},{"t":195.679,"note":53,"dur":0.137,"vel":1.0,"inst":"violin_v1_additive_535","midi_source":""},{"t":195.679,"note":58,"dur":0.069,"vel":1.0,"inst":"cello_v0_plucked_113","midi_source":""},{"t":195.748,"note":73,"dur":0.069,"vel":1.0,"inst":"cello_v0_plucked_113","midi_source":""},{"t":195.816,"note":58,"dur":0.137,"vel":1.0,"inst":"cello_v0_plucked_113","midi_source":""},{"t":195.816,"note":73,"dur":0.069,"vel":1.0,"inst":"cello_v0_plucked_113","midi_source":""},{"t":195.885,"note":61,"dur":0.069,"vel":1.0,"inst":"cello_v0_plucked_113","midi_source":""},{"t":195.885,"note":70,"dur":0.069,"vel":1.0,"inst":"cello_v0_plucked_113","midi_source":""},{"t":195.953,"note":63,"dur":0.137,"vel":1.0,"inst":"synth_pluck_v0_blown_260","midi_source":""},{"t":195.953,"note":72,"dur":0.069,"vel":1.0,"inst":"synth_pluck_v0_blown_260","midi_source":""},{"t":196.022,"note":82,"dur":0.069,"vel":1.0,"inst":"cello_v0_plucked_113","midi_source":""},{"t":196.09,"note":60,"dur":0.137,"vel":1.0,"inst":"synth_pluck_v0_blown_260","midi_source":""},{"t":196.09,"note":70,"dur":0.069,"vel":1.0,"inst":"cello_v0_plucked_113","midi_source":""},{"t":196.159,"note":78,"dur":0.069,"vel":1.0,"inst":"synth_pluck_v0_blown_260","midi_source":""},{"t":196.227,"note":61,"dur":0.137,"vel":1.0,"inst":"cello_v0_plucked_113","midi_source":""},{"t":196.227,"note":78,"dur":0.206,"vel":1.0,"inst":"synth_pluck_v0_blown_260","midi_source":""},{"t":196.364,"note":49,"dur":0.137,"vel":1.0,"inst":"cello_v0_plucked_113","midi_source":""},{"t":196.433,"note":75,"dur":0.069,"vel":1.0,"inst":"synth_pluck_v0_blown_260","midi_source":""},{"t":196.501,"note":73,"dur":0.137,"vel":1.0,"inst":"cello_v0_plucked_113","midi_source":""},{"t":196.57,"note":60,"dur":0.069,"vel":1.0,"inst":"synth_pluck_v0_blown_260","midi_source":""},{"t":196.638,"note":58,"dur":0.069,"vel":1.0,"inst":"cello_v0_plucked_113","midi_source":""},{"t":196.638,"note":78,"dur":0.137,"vel":1.0,"inst":"synth_pluck_v0_blown_260","midi_source":""},{"t":196.707,"note":46,"dur":0.069,"vel":1.0,"inst":"cello_v0_plucked_113","midi_source":""},{"t":196.775,"note":58,"dur":0.069,"vel":1.0,"inst":"cello_v0_plucked_113","midi_source":""},{"t":196.775,"note":78,"dur":0.069,"vel":1.0,"inst":"synth_pluck_v0_blown_260","midi_source":""},{"t":196.844,"note":53,"dur":0.069,"vel":1.0,"inst":"violin_v1_additive_535","midi_source":""},{"t":196.844,"note":70,"dur":0.069,"vel":1.0,"inst":"cello_v0_plucked_113","midi_source":""},{"t":196.912,"note":54,"dur":0.069,"vel":1.0,"inst":"synth_pluck_v0_blown_260","midi_source":""},{"t":196.912,"note":82,"dur":0.137,"vel":1.0,"inst":"cello_v0_plucked_113","midi_source":""},{"t":196.981,"note":49,"dur":0.069,"vel":1.0,"inst":"cello_v0_plucked_113","midi_source":""},{"t":197.049,"note":51,"dur":0.069,"vel":1.0,"inst":"synth_pluck_v0_blown_260","midi_source":""},{"t":197.049,"note":72,"dur":0.069,"vel":1.0,"inst":"synth_pluck_v0_blown_260","midi_source":""},{"t":197.118,"note":61,"dur":0.069,"vel":1.0,"inst":"cello_v0_plucked_113","midi_source":""},{"t":197.118,"note":82,"dur":0.069,"vel":1.0,"inst":"cello_v0_plucked_113","midi_source":""},{"t":197.186,"note":60,"dur":0.069,"vel":1.0,"inst":"synth_pluck_v0_blown_260","midi_source":""},{"t":197.186,"note":70,"dur":0.069,"vel":1.0,"inst":"cello_v0_plucked_113","midi_source":""},{"t":197.255,"note":58,"dur":0.069,"vel":1.0,"inst":"cello_v0_plucked_113","midi_source":""},{"t":197.255,"note":78,"dur":0.069,"vel":1.0,"inst":"synth_pluck_v0_blown_260","midi_source":""},{"t":197.323,"note":60,"dur":0.069,"vel":1.0,"inst":"synth_pluck_v0_blown_260","midi_source":""},{"t":197.323,"note":70,"dur":0.069,"vel":1.0,"inst":"cello_v0_plucked_113","midi_source":""},{"t":197.392,"note":54,"dur":0.069,"vel":1.0,"inst":"synth_pluck_v0_blown_260","midi_source":""},{"t":197.392,"note":82,"dur":0.069,"vel":1.0,"inst":"cello_v0_plucked_113","midi_source":""},{"t":197.46,"note":46,"dur":0.069,"vel":1.0,"inst":"cello_v0_plucked_113","midi_source":""},{"t":197.46,"note":84,"dur":0.137,"vel":1.0,"inst":"synth_pluck_v0_blown_260","midi_source":""},{"t":197.529,"note":51,"dur":0.069,"vel":1.0,"inst":"synth_pluck_v0_blown_260","midi_source":""},{"t":197.597,"note":54,"dur":0.069,"vel":1.0,"inst":"synth_pluck_v0_blown_260","midi_source":""},{"t":197.597,"note":73,"dur":0.069,"vel":1.0,"inst":"cello_v0_plucked_113","midi_source":""},{"t":197.666,"note":63,"dur":0.069,"vel":1.0,"inst":"synth_pluck_v0_blown_260","midi_source":""},{"t":197.666,"note":84,"dur":0.069,"vel":1.0,"inst":"synth_pluck_v0_blown_260","midi_source":""},{"t":197.734,"note":61,"dur":0.069,"vel":1.0,"inst":"cello_v0_plucked_113","midi_source":""},{"t":197.734,"note":82,"dur":0.069,"vel":1.0,"inst":"cello_v0_plucked_113","midi_source":""},{"t":197.803,"note":60,"dur":0.069,"vel":1.0,"inst":"synth_pluck_v0_blown_260","midi_source":""},{"t":197.803,"note":70,"dur":0.069,"vel":1.0,"inst":"cello_v0_plucked_113","midi_source":""},{"t":197.871,"note":61,"dur":0.069,"vel":1.0,"inst":"cello_v0_plucked_113","midi_source":""},{"t":197.871,"note":82,"dur":0.069,"vel":1.0,"inst":"cello_v0_plucked_113","midi_source":""},{"t":197.94,"note":46,"dur":0.069,"vel":1.0,"inst":"cello_v0_plucked_113","midi_source":""},{"t":197.94,"note":84,"dur":0.069,"vel":1.0,"inst":"synth_pluck_v0_blown_260","midi_source":""},{"t":198.008,"note":58,"dur":0.069,"vel":1.0,"inst":"cello_v0_plucked_113","midi_source":""},{"t":198.008,"note":85,"dur":0.137,"vel":1.0,"inst":"cello_v0_plucked_113","midi_source":""},{"t":198.077,"note":54,"dur":0.069,"vel":1.0,"inst":"synth_pluck_v0_blown_260","midi_source":""},{"t":198.145,"note":54,"dur":0.069,"vel":1.0,"inst":"synth_pluck_v0_blown_260","midi_source":""},{"t":198.145,"note":75,"dur":0.069,"vel":1.0,"inst":"synth_pluck_v0_blown_260","midi_source":""},{"t":198.214,"note":65,"dur":0.069,"vel":1.0,"inst":"violin_v1_additive_535","midi_source":""},{"t":198.214,"note":85,"dur":0.069,"vel":1.0,"inst":"cello_v0_plucked_113","midi_source":""},{"t":198.282,"note":63,"dur":0.069,"vel":1.0,"inst":"synth_pluck_v0_blown_260","midi_source":""},{"t":198.282,"note":84,"dur":0.069,"vel":1.0,"inst":"synth_pluck_v0_blown_260","midi_source":""},{"t":198.351,"note":61,"dur":0.069,"vel":1.0,"inst":"cello_v0_plucked_113","midi_source":""},{"t":198.351,"note":82,"dur":0.069,"vel":1.0,"inst":"cello_v0_plucked_113","midi_source":""},{"t":198.419,"note":63,"dur":0.069,"vel":1.0,"inst":"synth_pluck_v0_blown_260","midi_source":""},{"t":198.419,"note":84,"dur":0.069,"vel":1.0,"inst":"synth_pluck_v0_blown_260","midi_source":""},{"t":198.488,"note":58,"dur":0.069,"vel":1.0,"inst":"cello_v0_plucked_113","midi_source":""},{"t":198.488,"note":85,"dur":0.069,"vel":1.0,"inst":"cello_v0_plucked_113","midi_source":""},{"t":198.556,"note":60,"dur":0.069,"vel":1.0,"inst":"synth_pluck_v0_blown_260","midi_source":""},{"t":198.556,"note":87,"dur":0.137,"vel":1.0,"inst":"synth_pluck_v0_blown_260","midi_source":""},{"t":198.625,"note":54,"dur":0.069,"vel":1.0,"inst":"synth_pluck_v0_blown_260","midi_source":""},{"t":198.693,"note":46,"dur":0.137,"vel":1.0,"inst":"cello_v0_plucked_113","midi_source":""},{"t":198.693,"note":78,"dur":0.069,"vel":1.0,"inst":"synth_pluck_v0_blown_260","midi_source":""},{"t":198.762,"note":87,"dur":0.069,"vel":1.0,"inst":"synth_pluck_v0_blown_260","midi_source":""},{"t":198.83,"note":66,"dur":0.137,"vel":1.0,"inst":"synth_pluck_v0_blown_260","midi_source":""},{"t":198.83,"note":85,"dur":0.069,"vel":1.0,"inst":"cello_v0_plucked_113","midi_source":""},{"t":198.899,"note":84,"dur":0.069,"vel":1.0,"inst":"synth_pluck_v0_blown_260","midi_source":""},{"t":198.967,"note":66,"dur":0.137,"vel":1.0,"inst":"synth_pluck_v0_blown_260","midi_source":""},{"t":198.967,"note":82,"dur":0.069,"vel":1.0,"inst":"cello_v0_plucked_113","midi_source":""},{"t":199.036,"note":78,"dur":0.069,"vel":1.0,"inst":"synth_pluck_v0_blown_260","midi_source":""},{"t":199.104,"note":70,"dur":0.137,"vel":1.0,"inst":"cello_v0_plucked_113","midi_source":""},{"t":199.104,"note":78,"dur":0.069,"vel":1.0,"inst":"synth_pluck_v0_blown_260","midi_source":""},{"t":199.173,"note":73,"dur":0.069,"vel":1.0,"inst":"cello_v0_plucked_113","midi_source":""},{"t":199.241,"note":60,"dur":0.137,"vel":1.0,"inst":"synth_pluck_v0_blown_260","midi_source":""},{"t":199.241,"note":75,"dur":0.069,"vel":1.0,"inst":"synth_pluck_v0_blown_260","midi_source":""},{"t":199.31,"note":70,"dur":0.069,"vel":1.0,"inst":"cello_v0_plucked_113","midi_source":""},{"t":199.378,"note":63,"dur":0.137,"vel":1.0,"inst":"synth_pluck_v0_blown_260","midi_source":""},{"t":199.378,"note":72,"dur":0.069,"vel":1.0,"inst":"synth_pluck_v0_blown_260","midi_source":""},{"t":199.447,"note":78,"dur":0.069,"vel":1.0,"inst":"synth_pluck_v0_blown_260","midi_source":""},{"t":199.515,"note":54,"dur":0.137,"vel":1.0,"inst":"synth_pluck_v0_blown_260","midi_source":""},{"t":199.515,"note":70,"dur":0.069,"vel":1.0,"inst":"cello_v0_plucked_113","midi_source":""},{"t":199.584,"note":73,"dur":0.069,"vel":1.0,"inst":"cello_v0_plucked_113","midi_source":""},{"t":199.652,"note":46,"dur":0.137,"vel":1.0,"inst":"cello_v0_plucked_113","midi_source":""},{"t":199.652,"note":75,"dur":0.069,"vel":1.0,"inst":"synth_pluck_v0_blown_260","midi_source":""},{"t":199.721,"note":72,"dur":0.069,"vel":1.0,"inst":"synth_pluck_v0_blown_260","midi_source":""},{"t":199.789,"note":48,"dur":0.137,"vel":1.0,"inst":"synth_pluck_v0_blown_260","midi_source":""},{"t":199.789,"note":73,"dur":0.069,"vel":1.0,"inst":"cello_v0_plucked_113","midi_source":""},{"t":199.858,"note":58,"dur":0.069,"vel":1.0,"inst":"cello_v0_plucked_113","midi_source":""},{"t":199.926,"note":49,"dur":0.137,"vel":1.0,"inst":"cello_v0_plucked_113","midi_source":""},{"t":199.926,"note":70,"dur":0.069,"vel":1.0,"inst":"cello_v0_plucked_113","midi_source":""},{"t":199.995,"note":78,"dur":0.069,"vel":1.0,"inst":"synth_pluck_v0_blown_260","midi_source":""},{"t":200.063,"note":51,"dur":0.137,"vel":1.0,"inst":"synth_pluck_v0_blown_260","midi_source":""},{"t":200.063,"note":78,"dur":0.069,"vel":1.0,"inst":"synth_pluck_v0_blown_260","midi_source":""},{"t":200.132,"note":72,"dur":0.069,"vel":1.0,"inst":"synth_pluck_v0_blown_260","midi_source":""},{"t":200.132,"note":73,"dur":0.069,"vel":1.0,"inst":"cello_v0_plucked_113","midi_source":""},{"t":200.2,"note":48,"dur":0.137,"vel":1.0,"inst":"synth_pluck_v0_blown_260","midi_source":""},{"t":200.2,"note":75,"dur":0.069,"vel":1.0,"inst":"synth_pluck_v0_blown_260","midi_source":""},{"t":200.269,"note":72,"dur":0.069,"vel":1.0,"inst":"synth_pluck_v0_blown_260","midi_source":""},{"t":200.337,"note":49,"dur":0.137,"vel":1.0,"inst":"cello_v0_plucked_113","midi_source":""},{"t":200.337,"note":58,"dur":0.069,"vel":1.0,"inst":"cello_v0_plucked_113","midi_source":""},{"t":200.406,"note":72,"dur":0.069,"vel":1.0,"inst":"synth_pluck_v0_blown_260","midi_source":""},{"t":200.474,"note":61,"dur":0.137,"vel":1.0,"inst":"cello_v0_plucked_113","midi_source":""},{"t":200.474,"note":78,"dur":0.069,"vel":1.0,"inst":"synth_pluck_v0_blown_260","midi_source":""},{"t":200.543,"note":78,"dur":0.069,"vel":1.0,"inst":"synth_pluck_v0_blown_260","midi_source":""},{"t":200.611,"note":54,"dur":0.137,"vel":1.0,"inst":"synth_pluck_v0_blown_260","midi_source":""},{"t":200.611,"note":78,"dur":0.069,"vel":1.0,"inst":"synth_pluck_v0_blown_260","midi_source":""},{"t":200.68,"note":72,"dur":0.069,"vel":1.0,"inst":"synth_pluck_v0_blown_260","midi_source":""},{"t":200.748,"note":61,"dur":0.137,"vel":1.0,"inst":"cello_v0_plucked_113","midi_source":""},{"t":200.748,"note":70,"dur":0.069,"vel":1.0,"inst":"cello_v0_plucked_113","midi_source":""},{"t":200.817,"note":58,"dur":0.069,"vel":1.0,"inst":"cello_v0_plucked_113","midi_source":""},{"t":200.885,"note":66,"dur":0.137,"vel":1.0,"inst":"synth_pluck_v0_blown_260","midi_source":""},{"t":200.885,"note":70,"dur":0.069,"vel":1.0,"inst":"cello_v0_plucked_113","midi_source":""},{"t":200.954,"note":78,"dur":0.069,"vel":1.0,"inst":"synth_pluck_v0_blown_260","midi_source":""},{"t":201.022,"note":58,"dur":0.137,"vel":1.0,"inst":"cello_v0_plucked_113","midi_source":""},{"t":201.022,"note":77,"dur":0.069,"vel":1.0,"inst":"violin_v1_additive_535","midi_source":""},{"t":201.091,"note":75,"dur":0.069,"vel":1.0,"inst":"synth_pluck_v0_blown_260","midi_source":""},{"t":201.159,"note":66,"dur":0.206,"vel":1.0,"inst":"synth_pluck_v0_blown_260","midi_source":""},{"t":201.159,"note":73,"dur":0.069,"vel":1.0,"inst":"cello_v0_plucked_113","midi_source":""},{"t":201.228,"note":78,"dur":0.069,"vel":1.0,"inst":"synth_pluck_v0_blown_260","midi_source":""},{"t":201.228,"note":70,"dur":0.069,"vel":1.0,"inst":"cello_v0_plucked_113","midi_source":""},{"t":201.296,"note":82,"dur":0.069,"vel":1.0,"inst":"cello_v0_plucked_113","midi_source":""},{"t":201.365,"note":60,"dur":0.069,"vel":1.0,"inst":"synth_pluck_v0_blown_260","midi_source":""},{"t":201.365,"note":61,"dur":0.069,"vel":1.0,"inst":"cello_v0_plucked_113","midi_source":""},{"t":201.365,"note":78,"dur":0.069,"vel":1.0,"inst":"synth_pluck_v0_blown_260","midi_source":""},{"t":201.433,"note":58,"dur":0.069,"vel":1.0,"inst":"cello_v0_plucked_113","midi_source":""},{"t":201.433,"note":60,"dur":0.069,"vel":1.0,"inst":"synth_pluck_v0_blown_260","midi_source":""},{"t":201.433,"note":73,"dur":0.137,"vel":1.0,"inst":"cello_v0_plucked_113","midi_source":""},{"t":201.502,"note":61,"dur":0.069,"vel":1.0,"inst":"cello_v0_plucked_113","midi_source":""},{"t":201.57,"note":54,"dur":0.069,"vel":1.0,"inst":"synth_pluck_v0_blown_260","midi_source":""},{"t":201.57,"note":46,"dur":0.069,"vel":1.0,"inst":"cello_v0_plucked_113","midi_source":""},{"t":201.57,"note":75,"dur":0.137,"vel":1.0,"inst":"synth_pluck_v0_blown_260","midi_source":""},{"t":201.639,"note":58,"dur":0.069,"vel":1.0,"inst":"cello_v0_plucked_113","midi_source":""},{"t":201.707,"note":49,"dur":0.206,"vel":1.0,"inst":"cello_v0_plucked_113","midi_source":""},{"t":201.707,"note":77,"dur":0.069,"vel":1.0,"inst":"violin_v1_additive_535","midi_source":""},{"t":201.776,"note":72,"dur":0.069,"vel":1.0,"inst":"synth_pluck_v0_blown_260","midi_source":""},{"t":201.844,"note":73,"dur":0.069,"vel":1.0,"inst":"cello_v0_plucked_113","midi_source":""},{"t":201.913,"note":51,"dur":0.069,"vel":1.0,"inst":"synth_pluck_v0_blown_260","midi_source":""},{"t":201.913,"note":53,"dur":0.069,"vel":1.0,"inst":"violin_v1_additive_535","midi_source":""},{"t":201.913,"note":58,"dur":0.069,"vel":1.0,"inst":"cello_v0_plucked_113","midi_source":""},{"t":201.981,"note":49,"dur":0.069,"vel":1.0,"inst":"cello_v0_plucked_113","midi_source":""},{"t":201.981,"note":51,"dur":0.069,"vel":1.0,"inst":"synth_pluck_v0_blown_260","midi_source":""},{"t":201.981,"note":70,"dur":0.137,"vel":1.0,"inst":"cello_v0_plucked_113","midi_source":""},{"t":202.05,"note":53,"dur":0.069,"vel":1.0,"inst":"violin_v1_additive_535","midi_source":""},{"t":202.118,"note":46,"dur":0.069,"vel":1.0,"inst":"cello_v0_plucked_113","midi_source":""},{"t":202.118,"note":48,"dur":0.069,"vel":1.0,"inst":"synth_pluck_v0_blown_260","midi_source":""},{"t":202.118,"note":85,"dur":0.206,"vel":1.0,"inst":"cello_v0_plucked_113","midi_source":""},{"t":202.187,"note":49,"dur":0.069,"vel":1.0,"inst":"cello_v0_plucked_113","midi_source":""},{"t":202.255,"note":39,"dur":0.137,"vel":1.0,"inst":"synth_pluck_v0_blown_260","midi_source":""},{"t":202.324,"note":78,"dur":0.069,"vel":1.0,"inst":"synth_pluck_v0_blown_260","midi_source":""},{"t":202.324,"note":70,"dur":0.069,"vel":1.0,"inst":"cello_v0_plucked_113","midi_source":""},{"t":202.392,"note":42,"dur":0.137,"vel":1.0,"inst":"synth_pluck_v0_blown_260","midi_source":""},{"t":202.392,"note":82,"dur":0.069,"vel":1.0,"inst":"cello_v0_plucked_113","midi_source":""},{"t":202.461,"note":78,"dur":0.069,"vel":1.0,"inst":"synth_pluck_v0_blown_260","midi_source":""},{"t":202.529,"note":48,"dur":0.137,"vel":1.0,"inst":"synth_pluck_v0_blown_260","midi_source":""},{"t":202.529,"note":75,"dur":0.069,"vel":1.0,"inst":"synth_pluck_v0_blown_260","midi_source":""},{"t":202.598,"note":84,"dur":0.069,"vel":1.0,"inst":"synth_pluck_v0_blown_260","midi_source":""},{"t":202.666,"note":51,"dur":0.137,"vel":1.0,"inst":"synth_pluck_v0_blown_260","midi_source":""},{"t":202.666,"note":78,"dur":0.069,"vel":1.0,"inst":"synth_pluck_v0_blown_260","midi_source":""},{"t":202.666,"note":70,"dur":0.069,"vel":1.0,"inst":"cello_v0_plucked_113","midi_source":""},{"t":202.735,"note":82,"dur":0.069,"vel":1.0,"inst":"cello_v0_plucked_113","midi_source":""},{"t":202.803,"note":53,"dur":0.206,"vel":1.0,"inst":"violin_v1_additive_535","midi_source":""},{"t":202.803,"note":70,"dur":0.069,"vel":1.0,"inst":"cello_v0_plucked_113","midi_source":""},{"t":202.872,"note":75,"dur":0.069,"vel":1.0,"inst":"synth_pluck_v0_blown_260","midi_source":""},{"t":202.94,"note":77,"dur":0.137,"vel":1.0,"inst":"violin_v1_additive_535","midi_source":""},{"t":203.009,"note":70,"dur":0.069,"vel":1.0,"inst":"cello_v0_plucked_113","midi_source":""},{"t":203.009,"note":72,"dur":0.069,"vel":1.0,"inst":"synth_pluck_v0_blown_260","midi_source":""},{"t":203.077,"note":58,"dur":0.069,"vel":1.0,"inst":"cello_v0_plucked_113","midi_source":""},{"t":203.077,"note":70,"dur":0.069,"vel":1.0,"inst":"cello_v0_plucked_113","midi_source":""},{"t":203.146,"note":72,"dur":0.069,"vel":1.0,"inst":"synth_pluck_v0_blown_260","midi_source":""},{"t":203.214,"note":65,"dur":0.069,"vel":1.0,"inst":"violin_v1_additive_535","midi_source":""},{"t":203.214,"note":66,"dur":0.069,"vel":1.0,"inst":"synth_pluck_v0_blown_260","midi_source":""},{"t":203.214,"note":73,"dur":0.137,"vel":1.0,"inst":"cello_v0_plucked_113","midi_source":""},{"t":203.214,"note":70,"dur":0.137,"vel":1.0,"inst":"cello_v0_plucked_113","midi_source":""},{"t":203.283,"note":58,"dur":0.069,"vel":1.0,"inst":"cello_v0_plucked_113","midi_source":""},{"t":203.351,"note":58,"dur":0.069,"vel":1.0,"inst":"cello_v0_plucked_113","midi_source":""},{"t":203.351,"note":70,"dur":0.137,"vel":1.0,"inst":"cello_v0_plucked_113","midi_source":""},{"t":203.42,"note":61,"dur":0.069,"vel":1.0,"inst":"cello_v0_plucked_113","midi_source":""},{"t":203.488,"note":63,"dur":0.069,"vel":1.0,"inst":"synth_pluck_v0_blown_260","midi_source":""},{"t":203.488,"note":78,"dur":0.206,"vel":1.0,"inst":"synth_pluck_v0_blown_260","midi_source":""},{"t":203.557,"note":65,"dur":0.069,"vel":1.0,"inst":"violin_v1_additive_535","midi_source":""},{"t":203.625,"note":66,"dur":0.069,"vel":1.0,"inst":"synth_pluck_v0_blown_260","midi_source":""},{"t":203.694,"note":58,"dur":0.069,"vel":1.0,"inst":"cello_v0_plucked_113","midi_source":""},{"t":203.694,"note":85,"dur":0.069,"vel":1.0,"inst":"cello_v0_plucked_113","midi_source":""},{"t":203.762,"note":70,"dur":0.069,"vel":1.0,"inst":"cello_v0_plucked_113","midi_source":""},{"t":203.762,"note":85,"dur":0.069,"vel":1.0,"inst":"cello_v0_plucked_113","midi_source":""},{"t":203.831,"note":66,"dur":0.069,"vel":1.0,"inst":"synth_pluck_v0_blown_260","midi_source":""},{"t":203.831,"note":87,"dur":0.069,"vel":1.0,"inst":"synth_pluck_v0_blown_260","midi_source":""},{"t":203.899,"note":61,"dur":0.069,"vel":1.0,"inst":"cello_v0_plucked_113","midi_source":""},{"t":203.899,"note":82,"dur":0.137,"vel":1.0,"inst":"cello_v0_plucked_113","midi_source":""},{"t":203.968,"note":63,"dur":0.069,"vel":1.0,"inst":"synth_pluck_v0_blown_260","midi_source":""},{"t":204.036,"note":65,"dur":0.069,"vel":1.0,"inst":"violin_v1_additive_535","midi_source":""},{"t":204.036,"note":70,"dur":0.137,"vel":1.0,"inst":"cello_v0_plucked_113","midi_source":""},{"t":204.105,"note":66,"dur":0.069,"vel":1.0,"inst":"synth_pluck_v0_blown_260","midi_source":""},{"t":204.173,"note":58,"dur":0.069,"vel":1.0,"inst":"cello_v0_plucked_113","midi_source":""},{"t":204.242,"note":70,"dur":0.069,"vel":1.0,"inst":"cello_v0_plucked_113","midi_source":""},{"t":204.242,"note":85,"dur":0.069,"vel":1.0,"inst":"cello_v0_plucked_113","midi_source":""},{"t":204.31,"note":73,"dur":0.069,"vel":1.0,"inst":"cello_v0_plucked_113","midi_source":""},{"t":204.31,"note":87,"dur":0.069,"vel":1.0,"inst":"synth_pluck_v0_blown_260","midi_source":""},{"t":204.379,"note":58,"dur":0.069,"vel":1.0,"inst":"cello_v0_plucked_113","midi_source":""},{"t":204.379,"note":89,"dur":0.069,"vel":1.0,"inst":"violin_v1_additive_535","midi_source":""},{"t":204.447,"note":61,"dur":0.069,"vel":1.0,"inst":"cello_v0_plucked_113","midi_source":""},{"t":204.447,"note":84,"dur":0.137,"vel":1.0,"inst":"synth_pluck_v0_blown_260","midi_source":""},{"t":204.516,"note":65,"dur":0.069,"vel":1.0,"inst":"violin_v1_additive_535","midi_source":""},{"t":204.584,"note":66,"dur":0.069,"vel":1.0,"inst":"synth_pluck_v0_blown_260","midi_source":""},{"t":204.584,"note":82,"dur":0.206,"vel":1.0,"inst":"cello_v0_plucked_113","midi_source":""},{"t":204.653,"note":58,"dur":0.069,"vel":1.0,"inst":"cello_v0_plucked_113","midi_source":""},{"t":204.721,"note":70,"dur":0.069,"vel":1.0,"inst":"cello_v0_plucked_113","midi_source":""},{"t":204.79,"note":73,"dur":0.069,"vel":1.0,"inst":"cello_v0_plucked_113","midi_source":""},{"t":204.79,"note":87,"dur":0.069,"vel":1.0,"inst":"synth_pluck_v0_blown_260","midi_source":""},{"t":204.858,"note":73,"dur":0.069,"vel":1.0,"inst":"cello_v0_plucked_113","midi_source":""},{"t":204.858,"note":89,"dur":0.069,"vel":1.0,"inst":"violin_v1_additive_535","midi_source":""},{"t":204.927,"note":70,"dur":0.069,"vel":1.0,"inst":"cello_v0_plucked_113","midi_source":""},{"t":204.927,"note":90,"dur":0.069,"vel":1.0,"inst":"synth_pluck_v0_blown_260","midi_source":""},{"t":204.995,"note":63,"dur":0.069,"vel":1.0,"inst":"synth_pluck_v0_blown_260","midi_source":""},{"t":204.995,"note":85,"dur":0.137,"vel":1.0,"inst":"cello_v0_plucked_113","midi_source":""},{"t":205.064,"note":66,"dur":0.069,"vel":1.0,"inst":"synth_pluck_v0_blown_260","midi_source":""},{"t":205.132,"note":58,"dur":0.069,"vel":1.0,"inst":"cello_v0_plucked_113","midi_source":""},{"t":205.132,"note":85,"dur":0.137,"vel":1.0,"inst":"cello_v0_plucked_113","midi_source":""},{"t":205.201,"note":70,"dur":0.069,"vel":1.0,"inst":"cello_v0_plucked_113","midi_source":""},{"t":205.269,"note":58,"dur":0.069,"vel":1.0,"inst":"cello_v0_plucked_113","midi_source":""},{"t":205.338,"note":66,"dur":0.069,"vel":1.0,"inst":"synth_pluck_v0_blown_260","midi_source":""},{"t":205.338,"note":82,"dur":0.069,"vel":1.0,"inst":"cello_v0_plucked_113","midi_source":""},{"t":205.406,"note":65,"dur":0.069,"vel":1.0,"inst":"violin_v1_additive_535","midi_source":""},{"t":205.406,"note":70,"dur":0.069,"vel":1.0,"inst":"cello_v0_plucked_113","midi_source":""},{"t":205.475,"note":63,"dur":0.069,"vel":1.0,"inst":"synth_pluck_v0_blown_260","midi_source":""},{"t":205.475,"note":78,"dur":0.069,"vel":1.0,"inst":"synth_pluck_v0_blown_260","midi_source":""},{"t":205.543,"note":65,"dur":0.069,"vel":1.0,"inst":"violin_v1_additive_535","midi_source":""},{"t":205.543,"note":70,"dur":0.069,"vel":1.0,"inst":"cello_v0_plucked_113","midi_source":""},{"t":205.612,"note":66,"dur":0.069,"vel":1.0,"inst":"synth_pluck_v0_blown_260","midi_source":""},{"t":205.612,"note":75,"dur":0.069,"vel":1.0,"inst":"synth_pluck_v0_blown_260","midi_source":""},{"t":205.68,"note":58,"dur":0.069,"vel":1.0,"inst":"cello_v0_plucked_113","midi_source":""},{"t":205.68,"note":77,"dur":0.069,"vel":1.0,"inst":"violin_v1_additive_535","midi_source":""},{"t":205.749,"note":63,"dur":0.069,"vel":1.0,"inst":"synth_pluck_v0_blown_260","midi_source":""},{"t":205.749,"note":73,"dur":0.069,"vel":1.0,"inst":"cello_v0_plucked_113","midi_source":""},{"t":205.817,"note":65,"dur":0.069,"vel":1.0,"inst":"violin_v1_additive_535","midi_source":""},{"t":205.817,"note":73,"dur":0.069,"vel":1.0,"inst":"cello_v0_plucked_113","midi_source":""},{"t":205.886,"note":70,"dur":0.069,"vel":1.0,"inst":"cello_v0_plucked_113","midi_source":""},{"t":205.886,"note":78,"dur":0.069,"vel":1.0,"inst":"synth_pluck_v0_blown_260","midi_source":""},{"t":205.955,"note":58,"dur":0.045,"vel":1.0,"inst":"cello_v0_plucked_113","midi_source":""},{"t":205.955,"note":77,"dur":0.045,"vel":1.0,"inst":"violin_v1_additive_535","midi_source":""},{"t":206.057,"note":58,"dur":0.165,"vel":1.0,"inst":"xylophone_v0_bowed_182","midi_source":""},{"t":206.057,"note":79,"dur":0.165,"vel":1.0,"inst":"xylophone_v0_bowed_182","midi_source":""},{"t":206.221,"note":79,"dur":0.165,"vel":1.0,"inst":"xylophone_v0_bowed_182","midi_source":""},{"t":206.386,"note":58,"dur":0.165,"vel":1.0,"inst":"xylophone_v0_bowed_182","midi_source":""},{"t":206.55,"note":77,"dur":0.165,"vel":1.0,"inst":"cello_v0_bass_378","midi_source":""},{"t":206.715,"note":58,"dur":0.165,"vel":1.0,"inst":"xylophone_v0_bowed_182","midi_source":""},{"t":206.879,"note":51,"dur":0.165,"vel":1.0,"inst":"pad_glass_v0_struck_307","midi_source":""},{"t":206.879,"note":55,"dur":0.165,"vel":1.0,"inst":"xylophone_v0_bowed_182","midi_source":""},{"t":206.879,"note":75,"dur":0.165,"vel":1.0,"inst":"pad_glass_v0_struck_307","midi_source":""},{"t":207.044,"note":58,"dur":0.165,"vel":1.0,"inst":"xylophone_v0_bowed_182","midi_source":""},{"t":207.044,"note":77,"dur":0.165,"vel":1.0,"inst":"cello_v0_bass_378","midi_source":""},{"t":207.209,"note":55,"dur":0.165,"vel":1.0,"inst":"xylophone_v0_bowed_182","midi_source":""},{"t":207.209,"note":79,"dur":0.165,"vel":1.0,"inst":"xylophone_v0_bowed_182","midi_source":""},{"t":207.373,"note":51,"dur":0.165,"vel":1.0,"inst":"pad_glass_v0_struck_307","midi_source":""},{"t":207.373,"note":82,"dur":0.165,"vel":1.0,"inst":"xylophone_v0_bowed_182","midi_source":""},{"t":207.538,"note":77,"dur":0.165,"vel":1.0,"inst":"cello_v0_bass_378","midi_source":""},{"t":207.702,"note":51,"dur":0.165,"vel":1.0,"inst":"pad_glass_v0_struck_307","midi_source":""},{"t":207.702,"note":53,"dur":0.165,"vel":1.0,"inst":"cello_v0_bass_378","midi_source":""},{"t":207.702,"note":58,"dur":0.165,"vel":1.0,"inst":"xylophone_v0_bowed_182","midi_source":""},{"t":207.702,"note":82,"dur":0.165,"vel":1.0,"inst":"xylophone_v0_bowed_182","midi_source":""},{"t":207.867,"note":79,"dur":0.165,"vel":1.0,"inst":"xylophone_v0_bowed_182","midi_source":""},{"t":208.031,"note":51,"dur":0.165,"vel":1.0,"inst":"pad_glass_v0_struck_307","midi_source":""},{"t":208.031,"note":55,"dur":0.165,"vel":1.0,"inst":"xylophone_v0_bowed_182","midi_source":""},{"t":208.031,"note":58,"dur":0.165,"vel":1.0,"inst":"xylophone_v0_bowed_182","midi_source":""},{"t":208.031,"note":82,"dur":0.165,"vel":1.0,"inst":"xylophone_v0_bowed_182","midi_source":""},{"t":208.196,"note":77,"dur":0.165,"vel":1.0,"inst":"cello_v0_bass_378","midi_source":""},{"t":208.361,"note":51,"dur":0.165,"vel":1.0,"inst":"pad_glass_v0_struck_307","midi_source":""},{"t":208.361,"note":53,"dur":0.165,"vel":1.0,"inst":"cello_v0_bass_378","midi_source":""},{"t":208.361,"note":58,"dur":0.165,"vel":1.0,"inst":"xylophone_v0_bowed_182","midi_source":""},{"t":208.361,"note":82,"dur":0.165,"vel":1.0,"inst":"xylophone_v0_bowed_182","midi_source":""},{"t":208.525,"note":79,"dur":0.165,"vel":1.0,"inst":"xylophone_v0_bowed_182","midi_source":""},{"t":208.69,"note":51,"dur":0.165,"vel":1.0,"inst":"pad_glass_v0_struck_307","midi_source":""},{"t":208.69,"note":55,"dur":0.165,"vel":1.0,"inst":"xylophone_v0_bowed_182","midi_source":""},{"t":208.69,"note":58,"dur":0.165,"vel":1.0,"inst":"xylophone_v0_bowed_182","midi_source":""},{"t":208.69,"note":82,"dur":0.165,"vel":1.0,"inst":"xylophone_v0_bowed_182","midi_source":""},{"t":208.854,"note":77,"dur":0.165,"vel":1.0,"inst":"cello_v0_bass_378","midi_source":""},{"t":209.019,"note":82,"dur":0.165,"vel":1.0,"inst":"xylophone_v0_bowed_182","midi_source":""},{"t":209.183,"note":79,"dur":0.165,"vel":1.0,"inst":"xylophone_v0_bowed_182","midi_source":""},{"t":209.348,"note":77,"dur":0.165,"vel":1.0,"inst":"cello_v0_bass_378","midi_source":""},{"t":209.513,"note":51,"dur":0.165,"vel":1.0,"inst":"pad_glass_v0_struck_307","midi_source":""},{"t":209.513,"note":55,"dur":0.165,"vel":1.0,"inst":"xylophone_v0_bowed_182","midi_source":""},{"t":209.513,"note":75,"dur":0.165,"vel":1.0,"inst":"pad_glass_v0_struck_307","midi_source":""},{"t":209.677,"note":58,"dur":0.165,"vel":1.0,"inst":"xylophone_v0_bowed_182","midi_source":""},{"t":209.677,"note":79,"dur":0.165,"vel":1.0,"inst":"xylophone_v0_bowed_182","midi_source":""},{"t":209.842,"note":51,"dur":0.165,"vel":1.0,"inst":"pad_glass_v0_struck_307","midi_source":""},{"t":209.842,"note":53,"dur":0.165,"vel":1.0,"inst":"cello_v0_bass_378","midi_source":""},{"t":209.842,"note":82,"dur":0.165,"vel":1.0,"inst":"xylophone_v0_bowed_182","midi_source":""},{"t":210.006,"note":58,"dur":0.165,"vel":1.0,"inst":"xylophone_v0_bowed_182","midi_source":""},{"t":210.006,"note":79,"dur":0.165,"vel":1.0,"inst":"xylophone_v0_bowed_182","midi_source":""},{"t":210.171,"note":79,"dur":0.165,"vel":1.0,"inst":"xylophone_v0_bowed_182","midi_source":""},{"t":210.335,"note":58,"dur":0.165,"vel":1.0,"inst":"xylophone_v0_bowed_182","midi_source":""},{"t":210.5,"note":77,"dur":0.165,"vel":1.0,"inst":"cello_v0_bass_378","midi_source":""},{"t":210.665,"note":58,"dur":0.165,"vel":1.0,"inst":"xylophone_v0_bowed_182","midi_source":""},{"t":210.829,"note":51,"dur":0.165,"vel":1.0,"inst":"pad_glass_v0_struck_307","midi_source":""},{"t":210.829,"note":55,"dur":0.165,"vel":1.0,"inst":"xylophone_v0_bowed_182","midi_source":""},{"t":210.829,"note":75,"dur":0.165,"vel":1.0,"inst":"pad_glass_v0_struck_307","midi_source":""},{"t":210.994,"note":58,"dur":0.165,"vel":1.0,"inst":"xylophone_v0_bowed_182","midi_source":""},{"t":210.994,"note":79,"dur":0.165,"vel":1.0,"inst":"xylophone_v0_bowed_182","midi_source":""},{"t":211.158,"note":51,"dur":0.165,"vel":1.0,"inst":"pad_glass_v0_struck_307","midi_source":""},{"t":211.158,"note":55,"dur":0.165,"vel":1.0,"inst":"xylophone_v0_bowed_182","midi_source":""},{"t":211.158,"note":82,"dur":0.165,"vel":1.0,"inst":"xylophone_v0_bowed_182","midi_source":""},{"t":211.323,"note":58,"dur":0.165,"vel":1.0,"inst":"xylophone_v0_bowed_182","midi_source":""},{"t":211.323,"note":79,"dur":0.165,"vel":1.0,"inst":"xylophone_v0_bowed_182","midi_source":""},{"t":211.487,"note":79,"dur":0.165,"vel":1.0,"inst":"xylophone_v0_bowed_182","midi_source":""},{"t":211.652,"note":58,"dur":0.165,"vel":1.0,"inst":"xylophone_v0_bowed_182","midi_source":""},{"t":211.817,"note":77,"dur":0.165,"vel":1.0,"inst":"cello_v0_bass_378","midi_source":""},{"t":211.981,"note":58,"dur":0.165,"vel":1.0,"inst":"xylophone_v0_bowed_182","midi_source":""},{"t":212.146,"note":51,"dur":0.165,"vel":1.0,"inst":"pad_glass_v0_struck_307","midi_source":""},{"t":212.146,"note":55,"dur":0.165,"vel":1.0,"inst":"xylophone_v0_bowed_182","midi_source":""},{"t":212.146,"note":75,"dur":0.165,"vel":1.0,"inst":"pad_glass_v0_struck_307","midi_source":""},{"t":212.31,"note":58,"dur":0.165,"vel":1.0,"inst":"xylophone_v0_bowed_182","midi_source":""},{"t":212.31,"note":77,"dur":0.165,"vel":1.0,"inst":"cello_v0_bass_378","midi_source":""},{"t":212.475,"note":55,"dur":0.165,"vel":1.0,"inst":"xylophone_v0_bowed_182","midi_source":""},{"t":212.475,"note":79,"dur":0.165,"vel":1.0,"inst":"xylophone_v0_bowed_182","midi_source":""},{"t":212.639,"note":51,"dur":0.165,"vel":1.0,"inst":"pad_glass_v0_struck_307","midi_source":""},{"t":212.639,"note":82,"dur":0.165,"vel":1.0,"inst":"xylophone_v0_bowed_182","midi_source":""},{"t":212.804,"note":77,"dur":0.165,"vel":1.0,"inst":"cello_v0_bass_378","midi_source":""},{"t":212.969,"note":51,"dur":0.165,"vel":1.0,"inst":"pad_glass_v0_struck_307","midi_source":""},{"t":212.969,"note":53,"dur":0.165,"vel":1.0,"inst":"cello_v0_bass_378","midi_source":""},{"t":212.969,"note":58,"dur":0.165,"vel":1.0,"inst":"xylophone_v0_bowed_182","midi_source":""},{"t":212.969,"note":82,"dur":0.165,"vel":1.0,"inst":"xylophone_v0_bowed_182","midi_source":""},{"t":213.133,"note":79,"dur":0.165,"vel":1.0,"inst":"xylophone_v0_bowed_182","midi_source":""},{"t":213.298,"note":51,"dur":0.165,"vel":1.0,"inst":"pad_glass_v0_struck_307","midi_source":""},{"t":213.298,"note":55,"dur":0.165,"vel":1.0,"inst":"xylophone_v0_bowed_182","midi_source":""},{"t":213.298,"note":58,"dur":0.165,"vel":1.0,"inst":"xylophone_v0_bowed_182","midi_source":""},{"t":213.298,"note":82,"dur":0.165,"vel":1.0,"inst":"xylophone_v0_bowed_182","midi_source":""},{"t":213.462,"note":77,"dur":0.165,"vel":1.0,"inst":"cello_v0_bass_378","midi_source":""},{"t":213.627,"note":51,"dur":0.165,"vel":1.0,"inst":"pad_glass_v0_struck_307","midi_source":""},{"t":213.627,"note":53,"dur":0.165,"vel":1.0,"inst":"cello_v0_bass_378","midi_source":""},{"t":213.627,"note":58,"dur":0.165,"vel":1.0,"inst":"xylophone_v0_bowed_182","midi_source":""},{"t":213.627,"note":82,"dur":0.165,"vel":1.0,"inst":"xylophone_v0_bowed_182","midi_source":""},{"t":213.791,"note":79,"dur":0.165,"vel":1.0,"inst":"xylophone_v0_bowed_182","midi_source":""},{"t":213.956,"note":51,"dur":0.165,"vel":1.0,"inst":"pad_glass_v0_struck_307","midi_source":""},{"t":213.956,"note":55,"dur":0.165,"vel":1.0,"inst":"xylophone_v0_bowed_182","midi_source":""},{"t":213.956,"note":58,"dur":0.165,"vel":1.0,"inst":"xylophone_v0_bowed_182","midi_source":""},{"t":213.956,"note":82,"dur":0.165,"vel":1.0,"inst":"xylophone_v0_bowed_182","midi_source":""},{"t":214.12,"note":77,"dur":0.165,"vel":1.0,"inst":"cello_v0_bass_378","midi_source":""},{"t":214.285,"note":82,"dur":0.165,"vel":1.0,"inst":"xylophone_v0_bowed_182","midi_source":""},{"t":214.45,"note":79,"dur":0.165,"vel":1.0,"inst":"xylophone_v0_bowed_182","midi_source":""},{"t":214.614,"note":77,"dur":0.165,"vel":1.0,"inst":"cello_v0_bass_378","midi_source":""},{"t":214.779,"note":60,"dur":0.165,"vel":1.0,"inst":"pad_glass_v0_struck_307","midi_source":""},{"t":214.779,"note":79,"dur":0.165,"vel":1.0,"inst":"xylophone_v0_bowed_182","midi_source":""},{"t":214.943,"note":51,"dur":0.165,"vel":1.0,"inst":"pad_glass_v0_struck_307","midi_source":""},{"t":214.943,"note":75,"dur":0.165,"vel":1.0,"inst":"pad_glass_v0_struck_307","midi_source":""},{"t":215.108,"note":60,"dur":0.165,"vel":1.0,"inst":"pad_glass_v0_struck_307","midi_source":""},{"t":215.108,"note":77,"dur":0.165,"vel":1.0,"inst":"cello_v0_bass_378","midi_source":""},{"t":215.272,"note":51,"dur":0.165,"vel":1.0,"inst":"pad_glass_v0_struck_307","midi_source":""},{"t":215.272,"note":79,"dur":0.165,"vel":1.0,"inst":"xylophone_v0_bowed_182","midi_source":""},{"t":215.437,"note":82,"dur":0.165,"vel":1.0,"inst":"xylophone_v0_bowed_182","midi_source":""},{"t":215.602,"note":51,"dur":0.165,"vel":1.0,"inst":"pad_glass_v0_struck_307","midi_source":""},{"t":215.766,"note":79,"dur":0.165,"vel":1.0,"inst":"xylophone_v0_bowed_182","midi_source":""},{"t":215.931,"note":58,"dur":0.165,"vel":1.0,"inst":"xylophone_v0_bowed_182","midi_source":""},{"t":215.931,"note":79,"dur":0.165,"vel":1.0,"inst":"xylophone_v0_bowed_182","midi_source":""},{"t":216.095,"note":79,"dur":0.165,"vel":1.0,"inst":"xylophone_v0_bowed_182","midi_source":""},{"t":216.26,"note":58,"dur":0.165,"vel":1.0,"inst":"xylophone_v0_bowed_182","midi_source":""},{"t":216.424,"note":77,"dur":0.165,"vel":1.0,"inst":"cello_v0_bass_378","midi_source":""},{"t":216.589,"note":58,"dur":0.165,"vel":1.0,"inst":"xylophone_v0_bowed_182","midi_source":""},{"t":216.754,"note":51,"dur":0.165,"vel":1.0,"inst":"pad_glass_v0_struck_307","midi_source":""},{"t":216.754,"note":55,"dur":0.165,"vel":1.0,"inst":"xylophone_v0_bowed_182","midi_source":""},{"t":216.754,"note":75,"dur":0.165,"vel":1.0,"inst":"pad_glass_v0_struck_307","midi_source":""},{"t":216.918,"note":58,"dur":0.165,"vel":1.0,"inst":"xylophone_v0_bowed_182","midi_source":""},{"t":216.918,"note":77,"dur":0.165,"vel":1.0,"inst":"cello_v0_bass_378","midi_source":""},{"t":217.083,"note":55,"dur":0.165,"vel":1.0,"inst":"xylophone_v0_bowed_182","midi_source":""},{"t":217.083,"note":79,"dur":0.165,"vel":1.0,"inst":"xylophone_v0_bowed_182","midi_source":""},{"t":217.247,"note":51,"dur":0.165,"vel":1.0,"inst":"pad_glass_v0_struck_307","midi_source":""},{"t":217.247,"note":82,"dur":0.165,"vel":1.0,"inst":"xylophone_v0_bowed_182","midi_source":""},{"t":217.412,"note":77,"dur":0.165,"vel":1.0,"inst":"cello_v0_bass_378","midi_source":""},{"t":217.576,"note":51,"dur":0.165,"vel":1.0,"inst":"pad_glass_v0_struck_307","midi_source":""},{"t":217.576,"note":53,"dur":0.165,"vel":1.0,"inst":"cello_v0_bass_378","midi_source":""},{"t":217.576,"note":58,"dur":0.165,"vel":1.0,"inst":"xylophone_v0_bowed_182","midi_source":""},{"t":217.576,"note":82,"dur":0.165,"vel":1.0,"inst":"xylophone_v0_bowed_182","midi_source":""},{"t":217.741,"note":79,"dur":0.165,"vel":1.0,"inst":"xylophone_v0_bowed_182","midi_source":""},{"t":217.906,"note":51,"dur":0.165,"vel":1.0,"inst":"pad_glass_v0_struck_307","midi_source":""},{"t":217.906,"note":55,"dur":0.165,"vel":1.0,"inst":"xylophone_v0_bowed_182","midi_source":""},{"t":217.906,"note":58,"dur":0.165,"vel":1.0,"inst":"xylophone_v0_bowed_182","midi_source":""},{"t":217.906,"note":82,"dur":0.165,"vel":1.0,"inst":"xylophone_v0_bowed_182","midi_source":""},{"t":218.07,"note":77,"dur":0.165,"vel":1.0,"inst":"cello_v0_bass_378","midi_source":""},{"t":218.235,"note":51,"dur":0.165,"vel":1.0,"inst":"pad_glass_v0_struck_307","midi_source":""},{"t":218.235,"note":53,"dur":0.165,"vel":1.0,"inst":"cello_v0_bass_378","midi_source":""},{"t":218.235,"note":58,"dur":0.165,"vel":1.0,"inst":"xylophone_v0_bowed_182","midi_source":""},{"t":218.235,"note":82,"dur":0.165,"vel":1.0,"inst":"xylophone_v0_bowed_182","midi_source":""},{"t":218.399,"note":79,"dur":0.165,"vel":1.0,"inst":"xylophone_v0_bowed_182","midi_source":""},{"t":218.564,"note":51,"dur":0.165,"vel":1.0,"inst":"pad_glass_v0_struck_307","midi_source":""},{"t":218.564,"note":55,"dur":0.165,"vel":1.0,"inst":"xylophone_v0_bowed_182","midi_source":""},{"t":218.564,"note":58,"dur":0.165,"vel":1.0,"inst":"xylophone_v0_bowed_182","midi_source":""},{"t":218.564,"note":82,"dur":0.165,"vel":1.0,"inst":"xylophone_v0_bowed_182","midi_source":""},{"t":218.728,"note":77,"dur":0.165,"vel":1.0,"inst":"cello_v0_bass_378","midi_source":""},{"t":218.893,"note":82,"dur":0.165,"vel":1.0,"inst":"xylophone_v0_bowed_182","midi_source":""},{"t":219.058,"note":79,"dur":0.165,"vel":1.0,"inst":"xylophone_v0_bowed_182","midi_source":""},{"t":219.222,"note":77,"dur":0.165,"vel":1.0,"inst":"cello_v0_bass_378","midi_source":""},{"t":219.387,"note":51,"dur":0.165,"vel":1.0,"inst":"pad_glass_v0_struck_307","midi_source":""},{"t":219.387,"note":55,"dur":0.165,"vel":1.0,"inst":"xylophone_v0_bowed_182","midi_source":""},{"t":219.387,"note":75,"dur":0.165,"vel":1.0,"inst":"pad_glass_v0_struck_307","midi_source":""},{"t":219.551,"note":58,"dur":0.165,"vel":1.0,"inst":"xylophone_v0_bowed_182","midi_source":""},{"t":219.551,"note":79,"dur":0.165,"vel":1.0,"inst":"xylophone_v0_bowed_182","midi_source":""},{"t":219.716,"note":51,"dur":0.165,"vel":1.0,"inst":"pad_glass_v0_struck_307","midi_source":""},{"t":219.716,"note":53,"dur":0.165,"vel":1.0,"inst":"cello_v0_bass_378","midi_source":""},{"t":219.716,"note":82,"dur":0.165,"vel":1.0,"inst":"xylophone_v0_bowed_182","midi_source":""},{"t":219.88,"note":58,"dur":0.165,"vel":1.0,"inst":"xylophone_v0_bowed_182","midi_source":""},{"t":219.88,"note":79,"dur":0.165,"vel":1.0,"inst":"xylophone_v0_bowed_182","midi_source":""},{"t":220.045,"note":79,"dur":0.165,"vel":1.0,"inst":"xylophone_v0_bowed_182","midi_source":""},{"t":220.21,"note":58,"dur":0.165,"vel":1.0,"inst":"xylophone_v0_bowed_182","midi_source":""},{"t":220.374,"note":77,"dur":0.165,"vel":1.0,"inst":"cello_v0_bass_378","midi_source":""},{"t":220.539,"note":58,"dur":0.165,"vel":1.0,"inst":"xylophone_v0_bowed_182","midi_source":""},{"t":220.703,"note":51,"dur":0.165,"vel":1.0,"inst":"pad_glass_v0_struck_307","midi_source":""},{"t":220.703,"note":55,"dur":0.165,"vel":1.0,"inst":"xylophone_v0_bowed_182","midi_source":""},{"t":220.703,"note":75,"dur":0.165,"vel":1.0,"inst":"pad_glass_v0_struck_307","midi_source":""},{"t":220.868,"note":58,"dur":0.165,"vel":1.0,"inst":"xylophone_v0_bowed_182","midi_source":""},{"t":220.868,"note":79,"dur":0.165,"vel":1.0,"inst":"xylophone_v0_bowed_182","midi_source":""},{"t":221.032,"note":51,"dur":0.165,"vel":1.0,"inst":"pad_glass_v0_struck_307","midi_source":""},{"t":221.032,"note":55,"dur":0.165,"vel":1.0,"inst":"xylophone_v0_bowed_182","midi_source":""},{"t":221.032,"note":82,"dur":0.165,"vel":1.0,"inst":"xylophone_v0_bowed_182","midi_source":""},{"t":221.197,"note":58,"dur":0.165,"vel":1.0,"inst":"xylophone_v0_bowed_182","midi_source":""},{"t":221.197,"note":79,"dur":0.165,"vel":1.0,"inst":"xylophone_v0_bowed_182","midi_source":""},{"t":221.362,"note":79,"dur":0.165,"vel":1.0,"inst":"xylophone_v0_bowed_182","midi_source":""},{"t":221.526,"note":58,"dur":0.165,"vel":1.0,"inst":"xylophone_v0_bowed_182","midi_source":""},{"t":221.691,"note":77,"dur":0.165,"vel":1.0,"inst":"cello_v0_bass_378","midi_source":""},{"t":221.855,"note":58,"dur":0.165,"vel":1.0,"inst":"xylophone_v0_bowed_182","midi_source":""},{"t":222.02,"note":51,"dur":0.165,"vel":1.0,"inst":"pad_glass_v0_struck_307","midi_source":""},{"t":222.02,"note":55,"dur":0.165,"vel":1.0,"inst":"xylophone_v0_bowed_182","midi_source":""},{"t":222.02,"note":75,"dur":0.165,"vel":1.0,"inst":"pad_glass_v0_struck_307","midi_source":""},{"t":222.184,"note":58,"dur":0.165,"vel":1.0,"inst":"xylophone_v0_bowed_182","midi_source":""},{"t":222.184,"note":77,"dur":0.165,"vel":1.0,"inst":"cello_v0_bass_378","midi_source":""},{"t":222.349,"note":55,"dur":0.165,"vel":1.0,"inst":"xylophone_v0_bowed_182","midi_source":""},{"t":222.349,"note":79,"dur":0.165,"vel":1.0,"inst":"xylophone_v0_bowed_182","midi_source":""},{"t":222.514,"note":51,"dur":0.165,"vel":1.0,"inst":"pad_glass_v0_struck_307","midi_source":""},{"t":222.514,"note":82,"dur":0.165,"vel":1.0,"inst":"xylophone_v0_bowed_182","midi_source":""},{"t":222.678,"note":77,"dur":0.165,"vel":1.0,"inst":"cello_v0_bass_378","midi_source":""},{"t":222.843,"note":51,"dur":0.165,"vel":1.0,"inst":"pad_glass_v0_struck_307","midi_source":""},{"t":222.843,"note":53,"dur":0.165,"vel":1.0,"inst":"cello_v0_bass_378","midi_source":""},{"t":222.843,"note":58,"dur":0.165,"vel":1.0,"inst":"xylophone_v0_bowed_182","midi_source":""},{"t":222.843,"note":82,"dur":0.165,"vel":1.0,"inst":"xylophone_v0_bowed_182","midi_source":""},{"t":223.007,"note":79,"dur":0.165,"vel":1.0,"inst":"xylophone_v0_bowed_182","midi_source":""},{"t":223.172,"note":51,"dur":0.165,"vel":1.0,"inst":"pad_glass_v0_struck_307","midi_source":""},{"t":223.172,"note":55,"dur":0.165,"vel":1.0,"inst":"xylophone_v0_bowed_182","midi_source":""},{"t":223.172,"note":58,"dur":0.165,"vel":1.0,"inst":"xylophone_v0_bowed_182","midi_source":""},{"t":223.172,"note":82,"dur":0.165,"vel":1.0,"inst":"xylophone_v0_bowed_182","midi_source":""},{"t":223.336,"note":77,"dur":0.165,"vel":1.0,"inst":"cello_v0_bass_378","midi_source":""},{"t":223.501,"note":51,"dur":0.165,"vel":1.0,"inst":"pad_glass_v0_struck_307","midi_source":""},{"t":223.501,"note":53,"dur":0.165,"vel":1.0,"inst":"cello_v0_bass_378","midi_source":""},{"t":223.501,"note":58,"dur":0.165,"vel":1.0,"inst":"xylophone_v0_bowed_182","midi_source":""},{"t":223.501,"note":82,"dur":0.165,"vel":1.0,"inst":"xylophone_v0_bowed_182","midi_source":""},{"t":223.666,"note":79,"dur":0.165,"vel":1.0,"inst":"xylophone_v0_bowed_182","midi_source":""},{"t":223.83,"note":51,"dur":0.165,"vel":1.0,"inst":"pad_glass_v0_struck_307","midi_source":""},{"t":223.83,"note":55,"dur":0.165,"vel":1.0,"inst":"xylophone_v0_bowed_182","midi_source":""},{"t":223.83,"note":58,"dur":0.165,"vel":1.0,"inst":"xylophone_v0_bowed_182","midi_source":""},{"t":223.83,"note":82,"dur":0.165,"vel":1.0,"inst":"xylophone_v0_bowed_182","midi_source":""},{"t":223.995,"note":77,"dur":0.165,"vel":1.0,"inst":"cello_v0_bass_378","midi_source":""},{"t":224.159,"note":82,"dur":0.165,"vel":1.0,"inst":"xylophone_v0_bowed_182","midi_source":""},{"t":224.324,"note":79,"dur":0.165,"vel":1.0,"inst":"xylophone_v0_bowed_182","midi_source":""},{"t":224.488,"note":77,"dur":0.165,"vel":1.0,"inst":"cello_v0_bass_378","midi_source":""},{"t":224.653,"note":60,"dur":0.165,"vel":1.0,"inst":"pad_glass_v0_struck_307","midi_source":""},{"t":224.653,"note":79,"dur":0.165,"vel":1.0,"inst":"xylophone_v0_bowed_182","midi_source":""},{"t":224.818,"note":51,"dur":0.165,"vel":1.0,"inst":"pad_glass_v0_struck_307","midi_source":""},{"t":224.818,"note":75,"dur":0.165,"vel":1.0,"inst":"pad_glass_v0_struck_307","midi_source":""},{"t":224.982,"note":60,"dur":0.165,"vel":1.0,"inst":"pad_glass_v0_struck_307","midi_source":""},{"t":224.982,"note":77,"dur":0.165,"vel":1.0,"inst":"cello_v0_bass_378","midi_source":""},{"t":225.147,"note":51,"dur":0.165,"vel":1.0,"inst":"pad_glass_v0_struck_307","midi_source":""},{"t":225.147,"note":79,"dur":0.165,"vel":1.0,"inst":"xylophone_v0_bowed_182","midi_source":""},{"t":225.311,"note":82,"dur":0.165,"vel":1.0,"inst":"xylophone_v0_bowed_182","midi_source":""},{"t":225.476,"note":51,"dur":0.165,"vel":1.0,"inst":"pad_glass_v0_struck_307","midi_source":""},{"t":225.64,"note":79,"dur":0.165,"vel":1.0,"inst":"xylophone_v0_bowed_182","midi_source":""},{"t":225.805,"note":58,"dur":0.165,"vel":1.0,"inst":"xylophone_v0_bowed_182","midi_source":""},{"t":225.805,"note":79,"dur":0.165,"vel":1.0,"inst":"xylophone_v0_bowed_182","midi_source":""},{"t":225.97,"note":79,"dur":0.165,"vel":1.0,"inst":"xylophone_v0_bowed_182","midi_source":""},{"t":226.134,"note":58,"dur":0.165,"vel":1.0,"inst":"xylophone_v0_bowed_182","midi_source":""},{"t":226.299,"note":77,"dur":0.165,"vel":1.0,"inst":"cello_v0_bass_378","midi_source":""},{"t":226.463,"note":58,"dur":0.165,"vel":1.0,"inst":"xylophone_v0_bowed_182","midi_source":""},{"t":226.628,"note":51,"dur":0.165,"vel":1.0,"inst":"pad_glass_v0_struck_307","midi_source":""},{"t":226.628,"note":55,"dur":0.165,"vel":1.0,"inst":"xylophone_v0_bowed_182","midi_source":""},{"t":226.628,"note":75,"dur":0.165,"vel":1.0,"inst":"pad_glass_v0_struck_307","midi_source":""},{"t":226.792,"note":58,"dur":0.165,"vel":1.0,"inst":"xylophone_v0_bowed_182","midi_source":""},{"t":226.792,"note":77,"dur":0.165,"vel":1.0,"inst":"cello_v0_bass_378","midi_source":""},{"t":226.957,"note":55,"dur":0.165,"vel":1.0,"inst":"xylophone_v0_bowed_182","midi_source":""},{"t":226.957,"note":79,"dur":0.165,"vel":1.0,"inst":"xylophone_v0_bowed_182","midi_source":""},{"t":227.122,"note":51,"dur":0.165,"vel":1.0,"inst":"pad_glass_v0_struck_307","midi_source":""},{"t":227.122,"note":82,"dur":0.165,"vel":1.0,"inst":"xylophone_v0_bowed_182","midi_source":""},{"t":227.286,"note":77,"dur":0.165,"vel":1.0,"inst":"cello_v0_bass_378","midi_source":""},{"t":227.451,"note":51,"dur":0.165,"vel":1.0,"inst":"pad_glass_v0_struck_307","midi_source":""},{"t":227.451,"note":53,"dur":0.165,"vel":1.0,"inst":"cello_v0_bass_378","midi_source":""},{"t":227.451,"note":58,"dur":0.165,"vel":1.0,"inst":"xylophone_v0_bowed_182","midi_source":""},{"t":227.451,"note":82,"dur":0.165,"vel":1.0,"inst":"xylophone_v0_bowed_182","midi_source":""},{"t":227.615,"note":79,"dur":0.165,"vel":1.0,"inst":"xylophone_v0_bowed_182","midi_source":""},{"t":227.78,"note":51,"dur":0.165,"vel":1.0,"inst":"pad_glass_v0_struck_307","midi_source":""},{"t":227.78,"note":55,"dur":0.165,"vel":1.0,"inst":"xylophone_v0_bowed_182","midi_source":""},{"t":227.78,"note":58,"dur":0.165,"vel":1.0,"inst":"xylophone_v0_bowed_182","midi_source":""},{"t":227.78,"note":82,"dur":0.165,"vel":1.0,"inst":"xylophone_v0_bowed_182","midi_source":""},{"t":227.944,"note":77,"dur":0.165,"vel":1.0,"inst":"cello_v0_bass_378","midi_source":""},{"t":228.109,"note":51,"dur":0.165,"vel":1.0,"inst":"pad_glass_v0_struck_307","midi_source":""},{"t":228.109,"note":53,"dur":0.165,"vel":1.0,"inst":"cello_v0_bass_378","midi_source":""},{"t":228.109,"note":58,"dur":0.165,"vel":1.0,"inst":"xylophone_v0_bowed_182","midi_source":""},{"t":228.109,"note":82,"dur":0.165,"vel":1.0,"inst":"xylophone_v0_bowed_182","midi_source":""},{"t":228.273,"note":79,"dur":0.165,"vel":1.0,"inst":"xylophone_v0_bowed_182","midi_source":""},{"t":228.438,"note":51,"dur":0.165,"vel":1.0,"inst":"pad_glass_v0_struck_307","midi_source":""},{"t":228.438,"note":55,"dur":0.165,"vel":1.0,"inst":"xylophone_v0_bowed_182","midi_source":""},{"t":228.438,"note":58,"dur":0.165,"vel":1.0,"inst":"xylophone_v0_bowed_182","midi_source":""},{"t":228.438,"note":82,"dur":0.165,"vel":1.0,"inst":"xylophone_v0_bowed_182","midi_source":""},{"t":228.603,"note":77,"dur":0.165,"vel":1.0,"inst":"cello_v0_bass_378","midi_source":""},{"t":228.767,"note":82,"dur":0.165,"vel":1.0,"inst":"xylophone_v0_bowed_182","midi_source":""},{"t":228.932,"note":79,"dur":0.165,"vel":1.0,"inst":"xylophone_v0_bowed_182","midi_source":""},{"t":229.096,"note":77,"dur":0.165,"vel":1.0,"inst":"cello_v0_bass_378","midi_source":""},{"t":229.261,"note":51,"dur":0.165,"vel":1.0,"inst":"pad_glass_v0_struck_307","midi_source":""},{"t":229.261,"note":55,"dur":0.165,"vel":1.0,"inst":"xylophone_v0_bowed_182","midi_source":""},{"t":229.261,"note":75,"dur":0.165,"vel":1.0,"inst":"pad_glass_v0_struck_307","midi_source":""},{"t":229.425,"note":58,"dur":0.165,"vel":1.0,"inst":"xylophone_v0_bowed_182","midi_source":""},{"t":229.425,"note":79,"dur":0.165,"vel":1.0,"inst":"xylophone_v0_bowed_182","midi_source":""},{"t":229.59,"note":51,"dur":0.165,"vel":1.0,"inst":"pad_glass_v0_struck_307","midi_source":""},{"t":229.59,"note":53,"dur":0.165,"vel":1.0,"inst":"cello_v0_bass_378","midi_source":""},{"t":229.59,"note":82,"dur":0.165,"vel":1.0,"inst":"xylophone_v0_bowed_182","midi_source":""},{"t":229.755,"note":58,"dur":0.165,"vel":1.0,"inst":"xylophone_v0_bowed_182","midi_source":""},{"t":229.755,"note":79,"dur":0.165,"vel":1.0,"inst":"xylophone_v0_bowed_182","midi_source":""},{"t":229.919,"note":79,"dur":0.165,"vel":1.0,"inst":"xylophone_v0_bowed_182","midi_source":""},{"t":230.084,"note":58,"dur":0.165,"vel":1.0,"inst":"xylophone_v0_bowed_182","midi_source":""},{"t":230.248,"note":77,"dur":0.165,"vel":1.0,"inst":"cello_v0_bass_378","midi_source":""},{"t":230.413,"note":58,"dur":0.165,"vel":1.0,"inst":"xylophone_v0_bowed_182","midi_source":""},{"t":230.577,"note":51,"dur":0.165,"vel":1.0,"inst":"pad_glass_v0_struck_307","midi_source":""},{"t":230.577,"note":55,"dur":0.165,"vel":1.0,"inst":"xylophone_v0_bowed_182","midi_source":""},{"t":230.577,"note":75,"dur":0.165,"vel":1.0,"inst":"pad_glass_v0_struck_307","midi_source":""},{"t":230.742,"note":58,"dur":0.165,"vel":1.0,"inst":"xylophone_v0_bowed_182","midi_source":""},{"t":230.742,"note":79,"dur":0.165,"vel":1.0,"inst":"xylophone_v0_bowed_182","midi_source":""},{"t":230.907,"note":51,"dur":0.165,"vel":1.0,"inst":"pad_glass_v0_struck_307","midi_source":""},{"t":230.907,"note":55,"dur":0.165,"vel":1.0,"inst":"xylophone_v0_bowed_182","midi_source":""},{"t":230.907,"note":82,"dur":0.165,"vel":1.0,"inst":"xylophone_v0_bowed_182","midi_source":""},{"t":231.071,"note":58,"dur":0.165,"vel":1.0,"inst":"xylophone_v0_bowed_182","midi_source":""},{"t":231.071,"note":79,"dur":0.165,"vel":1.0,"inst":"xylophone_v0_bowed_182","midi_source":""},{"t":231.236,"note":79,"dur":0.165,"vel":1.0,"inst":"xylophone_v0_bowed_182","midi_source":""},{"t":231.4,"note":58,"dur":0.165,"vel":1.0,"inst":"xylophone_v0_bowed_182","midi_source":""},{"t":231.565,"note":77,"dur":0.165,"vel":1.0,"inst":"cello_v0_bass_378","midi_source":""},{"t":231.729,"note":58,"dur":0.165,"vel":1.0,"inst":"xylophone_v0_bowed_182","midi_source":""},{"t":231.894,"note":51,"dur":0.165,"vel":1.0,"inst":"pad_glass_v0_struck_307","midi_source":""},{"t":231.894,"note":55,"dur":0.165,"vel":1.0,"inst":"xylophone_v0_bowed_182","midi_source":""},{"t":231.894,"note":75,"dur":0.165,"vel":1.0,"inst":"pad_glass_v0_struck_307","midi_source":""},{"t":232.059,"note":58,"dur":0.165,"vel":1.0,"inst":"xylophone_v0_bowed_182","midi_source":""},{"t":232.059,"note":77,"dur":0.165,"vel":1.0,"inst":"cello_v0_bass_378","midi_source":""},{"t":232.223,"note":55,"dur":0.165,"vel":1.0,"inst":"xylophone_v0_bowed_182","midi_source":""},{"t":232.223,"note":79,"dur":0.165,"vel":1.0,"inst":"xylophone_v0_bowed_182","midi_source":""},{"t":232.388,"note":51,"dur":0.165,"vel":1.0,"inst":"pad_glass_v0_struck_307","midi_source":""},{"t":232.388,"note":82,"dur":0.165,"vel":1.0,"inst":"xylophone_v0_bowed_182","midi_source":""},{"t":232.552,"note":77,"dur":0.165,"vel":1.0,"inst":"cello_v0_bass_378","midi_source":""},{"t":232.717,"note":51,"dur":0.165,"vel":1.0,"inst":"pad_glass_v0_struck_307","midi_source":""},{"t":232.717,"note":53,"dur":0.165,"vel":1.0,"inst":"cello_v0_bass_378","midi_source":""},{"t":232.717,"note":58,"dur":0.165,"vel":1.0,"inst":"xylophone_v0_bowed_182","midi_source":""},{"t":232.717,"note":82,"dur":0.165,"vel":1.0,"inst":"xylophone_v0_bowed_182","midi_source":""},{"t":232.881,"note":79,"dur":0.165,"vel":1.0,"inst":"xylophone_v0_bowed_182","midi_source":""},{"t":233.046,"note":51,"dur":0.165,"vel":1.0,"inst":"pad_glass_v0_struck_307","midi_source":""},{"t":233.046,"note":55,"dur":0.165,"vel":1.0,"inst":"xylophone_v0_bowed_182","midi_source":""},{"t":233.046,"note":58,"dur":0.165,"vel":1.0,"inst":"xylophone_v0_bowed_182","midi_source":""},{"t":233.046,"note":82,"dur":0.165,"vel":1.0,"inst":"xylophone_v0_bowed_182","midi_source":""},{"t":233.211,"note":77,"dur":0.165,"vel":1.0,"inst":"cello_v0_bass_378","midi_source":""},{"t":233.375,"note":51,"dur":0.165,"vel":1.0,"inst":"pad_glass_v0_struck_307","midi_source":""},{"t":233.375,"note":53,"dur":0.165,"vel":1.0,"inst":"cello_v0_bass_378","midi_source":""},{"t":233.375,"note":58,"dur":0.165,"vel":1.0,"inst":"xylophone_v0_bowed_182","midi_source":""},{"t":233.375,"note":82,"dur":0.165,"vel":1.0,"inst":"xylophone_v0_bowed_182","midi_source":""},{"t":233.54,"note":79,"dur":0.165,"vel":1.0,"inst":"xylophone_v0_bowed_182","midi_source":""},{"t":233.704,"note":51,"dur":0.165,"vel":1.0,"inst":"pad_glass_v0_struck_307","midi_source":""},{"t":233.704,"note":55,"dur":0.165,"vel":1.0,"inst":"xylophone_v0_bowed_182","midi_source":""},{"t":233.704,"note":58,"dur":0.165,"vel":1.0,"inst":"xylophone_v0_bowed_182","midi_source":""},{"t":233.704,"note":82,"dur":0.165,"vel":1.0,"inst":"xylophone_v0_bowed_182","midi_source":""},{"t":233.869,"note":77,"dur":0.165,"vel":1.0,"inst":"cello_v0_bass_378","midi_source":""},{"t":234.033,"note":82,"dur":0.165,"vel":1.0,"inst":"xylophone_v0_bowed_182","midi_source":""},{"t":234.198,"note":79,"dur":0.165,"vel":1.0,"inst":"xylophone_v0_bowed_182","midi_source":""},{"t":234.363,"note":77,"dur":0.165,"vel":1.0,"inst":"cello_v0_bass_378","midi_source":""},{"t":234.527,"note":60,"dur":0.165,"vel":1.0,"inst":"pad_glass_v0_struck_307","midi_source":""},{"t":234.527,"note":79,"dur":0.165,"vel":1.0,"inst":"xylophone_v0_bowed_182","midi_source":""},{"t":234.692,"note":51,"dur":0.165,"vel":1.0,"inst":"pad_glass_v0_struck_307","midi_source":""},{"t":234.692,"note":75,"dur":0.165,"vel":1.0,"inst":"pad_glass_v0_struck_307","midi_source":""},{"t":234.856,"note":60,"dur":0.165,"vel":1.0,"inst":"pad_glass_v0_struck_307","midi_source":""},{"t":234.856,"note":77,"dur":0.165,"vel":1.0,"inst":"cello_v0_bass_378","midi_source":""},{"t":235.021,"note":51,"dur":0.165,"vel":1.0,"inst":"pad_glass_v0_struck_307","midi_source":""},{"t":235.021,"note":79,"dur":0.165,"vel":1.0,"inst":"xylophone_v0_bowed_182","midi_source":""},{"t":235.185,"note":82,"dur":0.165,"vel":1.0,"inst":"xylophone_v0_bowed_182","midi_source":""},{"t":235.35,"note":51,"dur":0.165,"vel":1.0,"inst":"pad_glass_v0_struck_307","midi_source":""},{"t":235.515,"note":79,"dur":0.165,"vel":1.0,"inst":"xylophone_v0_bowed_182","midi_source":""},{"t":235.679,"note":58,"dur":0.165,"vel":1.0,"inst":"xylophone_v0_bowed_182","midi_source":""},{"t":235.679,"note":79,"dur":0.165,"vel":1.0,"inst":"xylophone_v0_bowed_182","midi_source":""},{"t":235.844,"note":79,"dur":0.165,"vel":1.0,"inst":"xylophone_v0_bowed_182","midi_source":""},{"t":236.008,"note":58,"dur":0.165,"vel":1.0,"inst":"xylophone_v0_bowed_182","midi_source":""},{"t":236.173,"note":77,"dur":0.165,"vel":1.0,"inst":"cello_v0_bass_378","midi_source":""},{"t":236.337,"note":58,"dur":0.165,"vel":1.0,"inst":"xylophone_v0_bowed_182","midi_source":""},{"t":236.502,"note":51,"dur":0.165,"vel":1.0,"inst":"pad_glass_v0_struck_307","midi_source":""},{"t":236.502,"note":55,"dur":0.165,"vel":1.0,"inst":"xylophone_v0_bowed_182","midi_source":""},{"t":236.502,"note":75,"dur":0.165,"vel":1.0,"inst":"pad_glass_v0_struck_307","midi_source":""},{"t":236.667,"note":58,"dur":0.165,"vel":1.0,"inst":"xylophone_v0_bowed_182","midi_source":""},{"t":236.667,"note":77,"dur":0.165,"vel":1.0,"inst":"cello_v0_bass_378","midi_source":""},{"t":236.831,"note":55,"dur":0.165,"vel":1.0,"inst":"xylophone_v0_bowed_182","midi_source":""},{"t":236.831,"note":79,"dur":0.165,"vel":1.0,"inst":"xylophone_v0_bowed_182","midi_source":""},{"t":236.996,"note":51,"dur":0.165,"vel":1.0,"inst":"pad_glass_v0_struck_307","midi_source":""},{"t":236.996,"note":82,"dur":0.165,"vel":1.0,"inst":"xylophone_v0_bowed_182","midi_source":""},{"t":237.16,"note":77,"dur":0.165,"vel":1.0,"inst":"cello_v0_bass_378","midi_source":""},{"t":237.325,"note":51,"dur":0.165,"vel":1.0,"inst":"pad_glass_v0_struck_307","midi_source":""},{"t":237.325,"note":53,"dur":0.165,"vel":1.0,"inst":"cello_v0_bass_378","midi_source":""},{"t":237.325,"note":58,"dur":0.165,"vel":1.0,"inst":"xylophone_v0_bowed_182","midi_source":""},{"t":237.325,"note":82,"dur":0.165,"vel":1.0,"inst":"xylophone_v0_bowed_182","midi_source":""},{"t":237.489,"note":79,"dur":0.165,"vel":1.0,"inst":"xylophone_v0_bowed_182","midi_source":""},{"t":237.654,"note":51,"dur":0.165,"vel":1.0,"inst":"pad_glass_v0_struck_307","midi_source":""},{"t":237.654,"note":55,"dur":0.165,"vel":1.0,"inst":"xylophone_v0_bowed_182","midi_source":""},{"t":237.654,"note":58,"dur":0.165,"vel":1.0,"inst":"xylophone_v0_bowed_182","midi_source":""},{"t":237.654,"note":82,"dur":0.165,"vel":1.0,"inst":"xylophone_v0_bowed_182","midi_source":""},{"t":237.819,"note":77,"dur":0.165,"vel":1.0,"inst":"cello_v0_bass_378","midi_source":""},{"t":237.983,"note":51,"dur":0.165,"vel":1.0,"inst":"pad_glass_v0_struck_307","midi_source":""},{"t":237.983,"note":53,"dur":0.165,"vel":1.0,"inst":"cello_v0_bass_378","midi_source":""},{"t":237.983,"note":58,"dur":0.165,"vel":1.0,"inst":"xylophone_v0_bowed_182","midi_source":""},{"t":237.983,"note":82,"dur":0.165,"vel":1.0,"inst":"xylophone_v0_bowed_182","midi_source":""},{"t":238.148,"note":79,"dur":0.165,"vel":1.0,"inst":"xylophone_v0_bowed_182","midi_source":""},{"t":238.312,"note":51,"dur":0.165,"vel":1.0,"inst":"pad_glass_v0_struck_307","midi_source":""},{"t":238.312,"note":55,"dur":0.165,"vel":1.0,"inst":"xylophone_v0_bowed_182","midi_source":""},{"t":238.312,"note":58,"dur":0.165,"vel":1.0,"inst":"xylophone_v0_bowed_182","midi_source":""},{"t":238.312,"note":82,"dur":0.165,"vel":1.0,"inst":"xylophone_v0_bowed_182","midi_source":""},{"t":238.477,"note":77,"dur":0.165,"vel":1.0,"inst":"cello_v0_bass_378","midi_source":""},{"t":238.641,"note":82,"dur":0.165,"vel":1.0,"inst":"xylophone_v0_bowed_182","midi_source":""},{"t":238.806,"note":79,"dur":0.165,"vel":1.0,"inst":"xylophone_v0_bowed_182","midi_source":""},{"t":238.971,"note":77,"dur":0.165,"vel":1.0,"inst":"cello_v0_bass_378","midi_source":""},{"t":239.135,"note":51,"dur":0.165,"vel":1.0,"inst":"pad_glass_v0_struck_307","midi_source":""},{"t":239.135,"note":55,"dur":0.165,"vel":1.0,"inst":"xylophone_v0_bowed_182","midi_source":""},{"t":239.135,"note":75,"dur":0.165,"vel":1.0,"inst":"pad_glass_v0_struck_307","midi_source":""},{"t":239.3,"note":58,"dur":0.165,"vel":1.0,"inst":"xylophone_v0_bowed_182","midi_source":""},{"t":239.3,"note":79,"dur":0.165,"vel":1.0,"inst":"xylophone_v0_bowed_182","midi_source":""},{"t":239.464,"note":51,"dur":0.165,"vel":1.0,"inst":"pad_glass_v0_struck_307","midi_source":""},{"t":239.464,"note":53,"dur":0.165,"vel":1.0,"inst":"cello_v0_bass_378","midi_source":""},{"t":239.464,"note":82,"dur":0.165,"vel":1.0,"inst":"xylophone_v0_bowed_182","midi_source":""},{"t":239.629,"note":58,"dur":0.165,"vel":1.0,"inst":"xylophone_v0_bowed_182","midi_source":""},{"t":239.629,"note":79,"dur":0.165,"vel":1.0,"inst":"xylophone_v0_bowed_182","midi_source":""},{"t":239.793,"note":79,"dur":0.165,"vel":1.0,"inst":"xylophone_v0_bowed_182","midi_source":""},{"t":239.958,"note":58,"dur":0.165,"vel":1.0,"inst":"xylophone_v0_bowed_182","midi_source":""},{"t":240.123,"note":77,"dur":0.165,"vel":1.0,"inst":"cello_v0_bass_378","midi_source":""},{"t":240.287,"note":58,"dur":0.165,"vel":1.0,"inst":"xylophone_v0_bowed_182","midi_source":""},{"t":240.452,"note":51,"dur":0.165,"vel":1.0,"inst":"pad_glass_v0_struck_307","midi_source":""},{"t":240.452,"note":55,"dur":0.165,"vel":1.0,"inst":"xylophone_v0_bowed_182","midi_source":""},{"t":240.452,"note":75,"dur":0.165,"vel":1.0,"inst":"pad_glass_v0_struck_307","midi_source":""},{"t":240.616,"note":58,"dur":0.165,"vel":1.0,"inst":"xylophone_v0_bowed_182","midi_source":""},{"t":240.616,"note":79,"dur":0.165,"vel":1.0,"inst":"xylophone_v0_bowed_182","midi_source":""},{"t":240.781,"note":51,"dur":0.165,"vel":1.0,"inst":"pad_glass_v0_struck_307","midi_source":""},{"t":240.781,"note":55,"dur":0.165,"vel":1.0,"inst":"xylophone_v0_bowed_182","midi_source":""},{"t":240.781,"note":82,"dur":0.165,"vel":1.0,"inst":"xylophone_v0_bowed_182","midi_source":""},{"t":240.945,"note":58,"dur":0.165,"vel":1.0,"inst":"xylophone_v0_bowed_182","midi_source":""},{"t":240.945,"note":79,"dur":0.165,"vel":1.0,"inst":"xylophone_v0_bowed_182","midi_source":""},{"t":241.11,"note":79,"dur":0.165,"vel":1.0,"inst":"xylophone_v0_bowed_182","midi_source":""},{"t":241.275,"note":58,"dur":0.165,"vel":1.0,"inst":"xylophone_v0_bowed_182","midi_source":""},{"t":241.439,"note":77,"dur":0.165,"vel":1.0,"inst":"cello_v0_bass_378","midi_source":""},{"t":241.604,"note":58,"dur":0.165,"vel":1.0,"inst":"xylophone_v0_bowed_182","midi_source":""},{"t":241.768,"note":51,"dur":0.165,"vel":1.0,"inst":"pad_glass_v0_struck_307","midi_source":""},{"t":241.768,"note":55,"dur":0.165,"vel":1.0,"inst":"xylophone_v0_bowed_182","midi_source":""},{"t":241.768,"note":75,"dur":0.165,"vel":1.0,"inst":"pad_glass_v0_struck_307","midi_source":""},{"t":241.933,"note":58,"dur":0.165,"vel":1.0,"inst":"xylophone_v0_bowed_182","midi_source":""},{"t":241.933,"note":77,"dur":0.165,"vel":1.0,"inst":"cello_v0_bass_378","midi_source":""},{"t":242.097,"note":55,"dur":0.165,"vel":1.0,"inst":"xylophone_v0_bowed_182","midi_source":""},{"t":242.097,"note":79,"dur":0.165,"vel":1.0,"inst":"xylophone_v0_bowed_182","midi_source":""},{"t":242.262,"note":51,"dur":0.165,"vel":1.0,"inst":"pad_glass_v0_struck_307","midi_source":""},{"t":242.262,"note":82,"dur":0.165,"vel":1.0,"inst":"xylophone_v0_bowed_182","midi_source":""},{"t":242.426,"note":77,"dur":0.165,"vel":1.0,"inst":"cello_v0_bass_378","midi_source":""},{"t":242.591,"note":51,"dur":0.165,"vel":1.0,"inst":"pad_glass_v0_struck_307","midi_source":""},{"t":242.591,"note":53,"dur":0.165,"vel":1.0,"inst":"cello_v0_bass_378","midi_source":""},{"t":242.591,"note":58,"dur":0.165,"vel":1.0,"inst":"xylophone_v0_bowed_182","midi_source":""},{"t":242.591,"note":82,"dur":0.165,"vel":1.0,"inst":"xylophone_v0_bowed_182","midi_source":""},{"t":242.756,"note":79,"dur":0.165,"vel":1.0,"inst":"xylophone_v0_bowed_182","midi_source":""},{"t":242.92,"note":51,"dur":0.165,"vel":1.0,"inst":"pad_glass_v0_struck_307","midi_source":""},{"t":242.92,"note":55,"dur":0.165,"vel":1.0,"inst":"xylophone_v0_bowed_182","midi_source":""},{"t":242.92,"note":58,"dur":0.165,"vel":1.0,"inst":"xylophone_v0_bowed_182","midi_source":""},{"t":242.92,"note":82,"dur":0.165,"vel":1.0,"inst":"xylophone_v0_bowed_182","midi_source":""},{"t":243.085,"note":77,"dur":0.165,"vel":1.0,"inst":"cello_v0_bass_378","midi_source":""},{"t":243.249,"note":51,"dur":0.165,"vel":1.0,"inst":"pad_glass_v0_struck_307","midi_source":""},{"t":243.249,"note":53,"dur":0.165,"vel":1.0,"inst":"cello_v0_bass_378","midi_source":""},{"t":243.249,"note":58,"dur":0.165,"vel":1.0,"inst":"xylophone_v0_bowed_182","midi_source":""},{"t":243.249,"note":82,"dur":0.165,"vel":1.0,"inst":"xylophone_v0_bowed_182","midi_source":""},{"t":243.414,"note":79,"dur":0.165,"vel":1.0,"inst":"xylophone_v0_bowed_182","midi_source":""},{"t":243.578,"note":51,"dur":0.165,"vel":1.0,"inst":"pad_glass_v0_struck_307","midi_source":""},{"t":243.578,"note":55,"dur":0.165,"vel":1.0,"inst":"xylophone_v0_bowed_182","midi_source":""},{"t":243.578,"note":58,"dur":0.165,"vel":1.0,"inst":"xylophone_v0_bowed_182","midi_source":""},{"t":243.578,"note":82,"dur":0.165,"vel":1.0,"inst":"xylophone_v0_bowed_182","midi_source":""},{"t":243.743,"note":77,"dur":0.165,"vel":1.0,"inst":"cello_v0_bass_378","midi_source":""},{"t":243.908,"note":82,"dur":0.165,"vel":1.0,"inst":"xylophone_v0_bowed_182","midi_source":""},{"t":244.072,"note":79,"dur":0.165,"vel":1.0,"inst":"xylophone_v0_bowed_182","midi_source":""},{"t":244.237,"note":77,"dur":0.165,"vel":1.0,"inst":"cello_v0_bass_378","midi_source":""},{"t":244.401,"note":60,"dur":0.165,"vel":1.0,"inst":"pad_glass_v0_struck_307","midi_source":""},{"t":244.401,"note":79,"dur":0.165,"vel":1.0,"inst":"xylophone_v0_bowed_182","midi_source":""},{"t":244.566,"note":51,"dur":0.165,"vel":1.0,"inst":"pad_glass_v0_struck_307","midi_source":""},{"t":244.566,"note":75,"dur":0.165,"vel":1.0,"inst":"pad_glass_v0_struck_307","midi_source":""},{"t":244.73,"note":60,"dur":0.165,"vel":1.0,"inst":"pad_glass_v0_struck_307","midi_source":""},{"t":244.73,"note":77,"dur":0.165,"vel":1.0,"inst":"cello_v0_bass_378","midi_source":""},{"t":244.895,"note":51,"dur":0.165,"vel":1.0,"inst":"pad_glass_v0_struck_307","midi_source":""},{"t":244.895,"note":79,"dur":0.165,"vel":1.0,"inst":"xylophone_v0_bowed_182","midi_source":""},{"t":245.06,"note":82,"dur":0.165,"vel":1.0,"inst":"xylophone_v0_bowed_182","midi_source":""},{"t":245.224,"note":51,"dur":0.165,"vel":1.0,"inst":"pad_glass_v0_struck_307","midi_source":""},{"t":245.389,"note":79,"dur":0.165,"vel":1.0,"inst":"xylophone_v0_bowed_182","midi_source":""},{"t":245.553,"note":58,"dur":0.165,"vel":1.0,"inst":"xylophone_v0_bowed_182","midi_source":""},{"t":245.553,"note":79,"dur":0.165,"vel":1.0,"inst":"xylophone_v0_bowed_182","midi_source":""},{"t":245.718,"note":79,"dur":0.165,"vel":1.0,"inst":"xylophone_v0_bowed_182","midi_source":""},{"t":245.882,"note":58,"dur":0.165,"vel":1.0,"inst":"xylophone_v0_bowed_182","midi_source":""},{"t":246.047,"note":77,"dur":0.165,"vel":1.0,"inst":"cello_v0_bass_378","midi_source":""},{"t":246.212,"note":58,"dur":0.165,"vel":1.0,"inst":"xylophone_v0_bowed_182","midi_source":""},{"t":246.376,"note":51,"dur":0.165,"vel":1.0,"inst":"pad_glass_v0_struck_307","midi_source":""},{"t":246.376,"note":55,"dur":0.165,"vel":1.0,"inst":"xylophone_v0_bowed_182","midi_source":""},{"t":246.376,"note":75,"dur":0.165,"vel":1.0,"inst":"pad_glass_v0_struck_307","midi_source":""},{"t":246.541,"note":58,"dur":0.165,"vel":1.0,"inst":"xylophone_v0_bowed_182","midi_source":""},{"t":246.541,"note":77,"dur":0.165,"vel":1.0,"inst":"cello_v0_bass_378","midi_source":""},{"t":246.705,"note":55,"dur":0.165,"vel":1.0,"inst":"xylophone_v0_bowed_182","midi_source":""},{"t":246.705,"note":79,"dur":0.165,"vel":1.0,"inst":"xylophone_v0_bowed_182","midi_source":""},{"t":246.87,"note":51,"dur":0.165,"vel":1.0,"inst":"pad_glass_v0_struck_307","midi_source":""},{"t":246.87,"note":82,"dur":0.165,"vel":1.0,"inst":"xylophone_v0_bowed_182","midi_source":""},{"t":247.034,"note":77,"dur":0.165,"vel":1.0,"inst":"cello_v0_bass_378","midi_source":""},{"t":247.199,"note":51,"dur":0.165,"vel":1.0,"inst":"pad_glass_v0_struck_307","midi_source":""},{"t":247.199,"note":53,"dur":0.165,"vel":1.0,"inst":"cello_v0_bass_378","midi_source":""},{"t":247.199,"note":58,"dur":0.165,"vel":1.0,"inst":"xylophone_v0_bowed_182","midi_source":""},{"t":247.199,"note":82,"dur":0.165,"vel":1.0,"inst":"xylophone_v0_bowed_182","midi_source":""},{"t":247.364,"note":79,"dur":0.165,"vel":1.0,"inst":"xylophone_v0_bowed_182","midi_source":""},{"t":247.528,"note":51,"dur":0.165,"vel":1.0,"inst":"pad_glass_v0_struck_307","midi_source":""},{"t":247.528,"note":55,"dur":0.165,"vel":1.0,"inst":"xylophone_v0_bowed_182","midi_source":""},{"t":247.528,"note":58,"dur":0.165,"vel":1.0,"inst":"xylophone_v0_bowed_182","midi_source":""},{"t":247.528,"note":82,"dur":0.165,"vel":1.0,"inst":"xylophone_v0_bowed_182","midi_source":""},{"t":247.693,"note":77,"dur":0.165,"vel":1.0,"inst":"cello_v0_bass_378","midi_source":""},{"t":247.857,"note":51,"dur":0.165,"vel":1.0,"inst":"pad_glass_v0_struck_307","midi_source":""},{"t":247.857,"note":53,"dur":0.165,"vel":1.0,"inst":"cello_v0_bass_378","midi_source":""},{"t":247.857,"note":58,"dur":0.165,"vel":1.0,"inst":"xylophone_v0_bowed_182","midi_source":""},{"t":247.857,"note":82,"dur":0.165,"vel":1.0,"inst":"xylophone_v0_bowed_182","midi_source":""},{"t":248.022,"note":79,"dur":0.165,"vel":1.0,"inst":"xylophone_v0_bowed_182","midi_source":""},{"t":248.186,"note":51,"dur":0.165,"vel":1.0,"inst":"pad_glass_v0_struck_307","midi_source":""},{"t":248.186,"note":55,"dur":0.165,"vel":1.0,"inst":"xylophone_v0_bowed_182","midi_source":""},{"t":248.186,"note":58,"dur":0.165,"vel":1.0,"inst":"xylophone_v0_bowed_182","midi_source":""},{"t":248.186,"note":82,"dur":0.165,"vel":1.0,"inst":"xylophone_v0_bowed_182","midi_source":""},{"t":248.351,"note":77,"dur":0.165,"vel":1.0,"inst":"cello_v0_bass_378","midi_source":""},{"t":248.516,"note":82,"dur":0.165,"vel":1.0,"inst":"xylophone_v0_bowed_182","midi_source":""},{"t":248.68,"note":79,"dur":0.165,"vel":1.0,"inst":"xylophone_v0_bowed_182","midi_source":""},{"t":248.845,"note":77,"dur":0.165,"vel":1.0,"inst":"cello_v0_bass_378","midi_source":""},{"t":249.009,"note":51,"dur":0.165,"vel":1.0,"inst":"pad_glass_v0_struck_307","midi_source":""},{"t":249.009,"note":55,"dur":0.165,"vel":1.0,"inst":"xylophone_v0_bowed_182","midi_source":""},{"t":249.009,"note":75,"dur":0.165,"vel":1.0,"inst":"pad_glass_v0_struck_307","midi_source":""},{"t":249.174,"note":58,"dur":0.165,"vel":1.0,"inst":"xylophone_v0_bowed_182","midi_source":""},{"t":249.174,"note":79,"dur":0.165,"vel":1.0,"inst":"xylophone_v0_bowed_182","midi_source":""},{"t":249.338,"note":51,"dur":0.165,"vel":1.0,"inst":"pad_glass_v0_struck_307","midi_source":""},{"t":249.338,"note":53,"dur":0.165,"vel":1.0,"inst":"cello_v0_bass_378","midi_source":""},{"t":249.338,"note":82,"dur":0.165,"vel":1.0,"inst":"xylophone_v0_bowed_182","midi_source":""},{"t":249.503,"note":58,"dur":0.165,"vel":1.0,"inst":"xylophone_v0_bowed_182","midi_source":""},{"t":249.503,"note":79,"dur":0.165,"vel":1.0,"inst":"xylophone_v0_bowed_182","midi_source":""},{"t":249.668,"note":79,"dur":0.165,"vel":1.0,"inst":"xylophone_v0_bowed_182","midi_source":""},{"t":249.832,"note":58,"dur":0.165,"vel":1.0,"inst":"xylophone_v0_bowed_182","midi_source":""},{"t":249.997,"note":77,"dur":0.165,"vel":1.0,"inst":"cello_v0_bass_378","midi_source":""},{"t":250.161,"note":58,"dur":0.165,"vel":1.0,"inst":"xylophone_v0_bowed_182","midi_source":""},{"t":250.326,"note":51,"dur":0.165,"vel":1.0,"inst":"pad_glass_v0_struck_307","midi_source":""},{"t":250.326,"note":55,"dur":0.165,"vel":1.0,"inst":"xylophone_v0_bowed_182","midi_source":""},{"t":250.326,"note":75,"dur":0.165,"vel":1.0,"inst":"pad_glass_v0_struck_307","midi_source":""},{"t":250.49,"note":58,"dur":0.165,"vel":1.0,"inst":"xylophone_v0_bowed_182","midi_source":""},{"t":250.49,"note":79,"dur":0.165,"vel":1.0,"inst":"xylophone_v0_bowed_182","midi_source":""},{"t":250.655,"note":51,"dur":0.165,"vel":1.0,"inst":"pad_glass_v0_struck_307","midi_source":""},{"t":250.655,"note":55,"dur":0.165,"vel":1.0,"inst":"xylophone_v0_bowed_182","midi_source":""},{"t":250.655,"note":82,"dur":0.165,"vel":1.0,"inst":"xylophone_v0_bowed_182","midi_source":""},{"t":250.82,"note":58,"dur":0.165,"vel":1.0,"inst":"xylophone_v0_bowed_182","midi_source":""},{"t":250.82,"note":79,"dur":0.165,"vel":1.0,"inst":"xylophone_v0_bowed_182","midi_source":""},{"t":250.984,"note":79,"dur":0.165,"vel":1.0,"inst":"xylophone_v0_bowed_182","midi_source":""},{"t":251.149,"note":58,"dur":0.165,"vel":1.0,"inst":"xylophone_v0_bowed_182","midi_source":""},{"t":251.313,"note":77,"dur":0.165,"vel":1.0,"inst":"cello_v0_bass_378","midi_source":""},{"t":251.478,"note":58,"dur":0.165,"vel":1.0,"inst":"xylophone_v0_bowed_182","midi_source":""},{"t":251.642,"note":51,"dur":0.165,"vel":1.0,"inst":"pad_glass_v0_struck_307","midi_source":""},{"t":251.642,"note":55,"dur":0.165,"vel":1.0,"inst":"xylophone_v0_bowed_182","midi_source":""},{"t":251.642,"note":75,"dur":0.165,"vel":1.0,"inst":"pad_glass_v0_struck_307","midi_source":""},{"t":251.807,"note":58,"dur":0.165,"vel":1.0,"inst":"xylophone_v0_bowed_182","midi_source":""},{"t":251.807,"note":77,"dur":0.165,"vel":1.0,"inst":"cello_v0_bass_378","midi_source":""},{"t":251.972,"note":55,"dur":0.165,"vel":1.0,"inst":"xylophone_v0_bowed_182","midi_source":""},{"t":251.972,"note":79,"dur":0.165,"vel":1.0,"inst":"xylophone_v0_bowed_182","midi_source":""},{"t":252.136,"note":51,"dur":0.165,"vel":1.0,"inst":"pad_glass_v0_struck_307","midi_source":""},{"t":252.136,"note":82,"dur":0.165,"vel":1.0,"inst":"xylophone_v0_bowed_182","midi_source":""},{"t":252.301,"note":77,"dur":0.165,"vel":1.0,"inst":"cello_v0_bass_378","midi_source":""},{"t":252.465,"note":51,"dur":0.165,"vel":1.0,"inst":"pad_glass_v0_struck_307","midi_source":""},{"t":252.465,"note":53,"dur":0.165,"vel":1.0,"inst":"cello_v0_bass_378","midi_source":""},{"t":252.465,"note":58,"dur":0.165,"vel":1.0,"inst":"xylophone_v0_bowed_182","midi_source":""},{"t":252.465,"note":82,"dur":0.165,"vel":1.0,"inst":"xylophone_v0_bowed_182","midi_source":""},{"t":252.63,"note":79,"dur":0.165,"vel":1.0,"inst":"xylophone_v0_bowed_182","midi_source":""},{"t":252.794,"note":51,"dur":0.165,"vel":1.0,"inst":"pad_glass_v0_struck_307","midi_source":""},{"t":252.794,"note":55,"dur":0.165,"vel":1.0,"inst":"xylophone_v0_bowed_182","midi_source":""},{"t":252.794,"note":58,"dur":0.165,"vel":1.0,"inst":"xylophone_v0_bowed_182","midi_source":""},{"t":252.794,"note":82,"dur":0.165,"vel":1.0,"inst":"xylophone_v0_bowed_182","midi_source":""},{"t":252.959,"note":77,"dur":0.165,"vel":1.0,"inst":"cello_v0_bass_378","midi_source":""},{"t":253.124,"note":51,"dur":0.165,"vel":1.0,"inst":"pad_glass_v0_struck_307","midi_source":""},{"t":253.124,"note":53,"dur":0.165,"vel":1.0,"inst":"cello_v0_bass_378","midi_source":""},{"t":253.124,"note":58,"dur":0.165,"vel":1.0,"inst":"xylophone_v0_bowed_182","midi_source":""},{"t":253.124,"note":82,"dur":0.165,"vel":1.0,"inst":"xylophone_v0_bowed_182","midi_source":""},{"t":253.288,"note":79,"dur":0.165,"vel":1.0,"inst":"xylophone_v0_bowed_182","midi_source":""},{"t":253.453,"note":51,"dur":0.165,"vel":1.0,"inst":"pad_glass_v0_struck_307","midi_source":""},{"t":253.453,"note":55,"dur":0.165,"vel":1.0,"inst":"xylophone_v0_bowed_182","midi_source":""},{"t":253.453,"note":58,"dur":0.165,"vel":1.0,"inst":"xylophone_v0_bowed_182","midi_source":""},{"t":253.453,"note":82,"dur":0.165,"vel":1.0,"inst":"xylophone_v0_bowed_182","midi_source":""},{"t":253.617,"note":77,"dur":0.165,"vel":1.0,"inst":"cello_v0_bass_378","midi_source":""},{"t":253.782,"note":82,"dur":0.165,"vel":1.0,"inst":"xylophone_v0_bowed_182","midi_source":""},{"t":253.946,"note":79,"dur":0.165,"vel":1.0,"inst":"xylophone_v0_bowed_182","midi_source":""},{"t":254.111,"note":77,"dur":0.165,"vel":1.0,"inst":"cello_v0_bass_378","midi_source":""},{"t":254.276,"note":60,"dur":0.165,"vel":1.0,"inst":"pad_glass_v0_struck_307","midi_source":""},{"t":254.276,"note":79,"dur":0.165,"vel":1.0,"inst":"xylophone_v0_bowed_182","midi_source":""},{"t":254.44,"note":51,"dur":0.165,"vel":1.0,"inst":"pad_glass_v0_struck_307","midi_source":""},{"t":254.44,"note":75,"dur":0.165,"vel":1.0,"inst":"pad_glass_v0_struck_307","midi_source":""},{"t":254.605,"note":60,"dur":0.165,"vel":1.0,"inst":"pad_glass_v0_struck_307","midi_source":""},{"t":254.605,"note":77,"dur":0.165,"vel":1.0,"inst":"cello_v0_bass_378","midi_source":""},{"t":254.769,"note":51,"dur":0.165,"vel":1.0,"inst":"pad_glass_v0_struck_307","midi_source":""},{"t":254.769,"note":79,"dur":0.165,"vel":1.0,"inst":"xylophone_v0_bowed_182","midi_source":""},{"t":254.934,"note":82,"dur":0.165,"vel":1.0,"inst":"xylophone_v0_bowed_182","midi_source":""},{"t":255.098,"note":51,"dur":0.165,"vel":1.0,"inst":"pad_glass_v0_struck_307","midi_source":""},{"t":255.263,"note":79,"dur":0.165,"vel":1.0,"inst":"xylophone_v0_bowed_182","midi_source":""},{"t":255.428,"note":58,"dur":0.165,"vel":1.0,"inst":"xylophone_v0_bowed_182","midi_source":""},{"t":255.428,"note":79,"dur":0.165,"vel":1.0,"inst":"xylophone_v0_bowed_182","midi_source":""},{"t":255.592,"note":79,"dur":0.165,"vel":1.0,"inst":"xylophone_v0_bowed_182","midi_source":""},{"t":255.757,"note":58,"dur":0.165,"vel":1.0,"inst":"xylophone_v0_bowed_182","midi_source":""},{"t":255.921,"note":77,"dur":0.165,"vel":1.0,"inst":"cello_v0_bass_378","midi_source":""},{"t":256.086,"note":58,"dur":0.165,"vel":1.0,"inst":"xylophone_v0_bowed_182","midi_source":""},{"t":256.25,"note":51,"dur":0.165,"vel":1.0,"inst":"pad_glass_v0_struck_307","midi_source":""},{"t":256.25,"note":55,"dur":0.165,"vel":1.0,"inst":"xylophone_v0_bowed_182","midi_source":""},{"t":256.25,"note":75,"dur":0.165,"vel":1.0,"inst":"pad_glass_v0_struck_307","midi_source":""},{"t":256.415,"note":58,"dur":0.165,"vel":1.0,"inst":"xylophone_v0_bowed_182","midi_source":""},{"t":256.415,"note":77,"dur":0.165,"vel":1.0,"inst":"cello_v0_bass_378","midi_source":""},{"t":256.579,"note":55,"dur":0.165,"vel":1.0,"inst":"xylophone_v0_bowed_182","midi_source":""},{"t":256.579,"note":79,"dur":0.165,"vel":1.0,"inst":"xylophone_v0_bowed_182","midi_source":""},{"t":256.744,"note":51,"dur":0.165,"vel":1.0,"inst":"pad_glass_v0_struck_307","midi_source":""},{"t":256.744,"note":82,"dur":0.165,"vel":1.0,"inst":"xylophone_v0_bowed_182","midi_source":""},{"t":256.909,"note":77,"dur":0.165,"vel":1.0,"inst":"cello_v0_bass_378","midi_source":""},{"t":257.073,"note":51,"dur":0.165,"vel":1.0,"inst":"pad_glass_v0_struck_307","midi_source":""},{"t":257.073,"note":53,"dur":0.165,"vel":1.0,"inst":"cello_v0_bass_378","midi_source":""},{"t":257.073,"note":58,"dur":0.165,"vel":1.0,"inst":"xylophone_v0_bowed_182","midi_source":""},{"t":257.073,"note":82,"dur":0.165,"vel":1.0,"inst":"xylophone_v0_bowed_182","midi_source":""},{"t":257.238,"note":79,"dur":0.165,"vel":1.0,"inst":"xylophone_v0_bowed_182","midi_source":""},{"t":257.402,"note":51,"dur":0.165,"vel":1.0,"inst":"pad_glass_v0_struck_307","midi_source":""},{"t":257.402,"note":55,"dur":0.165,"vel":1.0,"inst":"xylophone_v0_bowed_182","midi_source":""},{"t":257.402,"note":58,"dur":0.165,"vel":1.0,"inst":"xylophone_v0_bowed_182","midi_source":""},{"t":257.402,"note":82,"dur":0.165,"vel":1.0,"inst":"xylophone_v0_bowed_182","midi_source":""},{"t":257.567,"note":77,"dur":0.165,"vel":1.0,"inst":"cello_v0_bass_378","midi_source":""},{"t":257.731,"note":51,"dur":0.165,"vel":1.0,"inst":"pad_glass_v0_struck_307","midi_source":""},{"t":257.731,"note":53,"dur":0.165,"vel":1.0,"inst":"cello_v0_bass_378","midi_source":""},{"t":257.731,"note":58,"dur":0.165,"vel":1.0,"inst":"xylophone_v0_bowed_182","midi_source":""},{"t":257.731,"note":82,"dur":0.165,"vel":1.0,"inst":"xylophone_v0_bowed_182","midi_source":""},{"t":257.896,"note":79,"dur":0.165,"vel":1.0,"inst":"xylophone_v0_bowed_182","midi_source":""},{"t":258.061,"note":51,"dur":0.165,"vel":1.0,"inst":"pad_glass_v0_struck_307","midi_source":""},{"t":258.061,"note":55,"dur":0.165,"vel":1.0,"inst":"xylophone_v0_bowed_182","midi_source":""},{"t":258.061,"note":58,"dur":0.165,"vel":1.0,"inst":"xylophone_v0_bowed_182","midi_source":""},{"t":258.061,"note":82,"dur":0.165,"vel":1.0,"inst":"xylophone_v0_bowed_182","midi_source":""},{"t":258.225,"note":77,"dur":0.165,"vel":1.0,"inst":"cello_v0_bass_378","midi_source":""},{"t":258.39,"note":82,"dur":0.165,"vel":1.0,"inst":"xylophone_v0_bowed_182","midi_source":""},{"t":258.554,"note":79,"dur":0.165,"vel":1.0,"inst":"xylophone_v0_bowed_182","midi_source":""},{"t":258.719,"note":77,"dur":0.165,"vel":1.0,"inst":"cello_v0_bass_378","midi_source":""},{"t":258.883,"note":51,"dur":0.165,"vel":1.0,"inst":"pad_glass_v0_struck_307","midi_source":""},{"t":258.883,"note":55,"dur":0.165,"vel":1.0,"inst":"xylophone_v0_bowed_182","midi_source":""},{"t":258.883,"note":75,"dur":0.165,"vel":1.0,"inst":"pad_glass_v0_struck_307","midi_source":""},{"t":259.048,"note":58,"dur":0.165,"vel":1.0,"inst":"xylophone_v0_bowed_182","midi_source":""},{"t":259.048,"note":79,"dur":0.165,"vel":1.0,"inst":"xylophone_v0_bowed_182","midi_source":""},{"t":259.213,"note":51,"dur":0.165,"vel":1.0,"inst":"pad_glass_v0_struck_307","midi_source":""},{"t":259.213,"note":53,"dur":0.165,"vel":1.0,"inst":"cello_v0_bass_378","midi_source":""},{"t":259.213,"note":82,"dur":0.165,"vel":1.0,"inst":"xylophone_v0_bowed_182","midi_source":""},{"t":259.377,"note":58,"dur":0.165,"vel":1.0,"inst":"xylophone_v0_bowed_182","midi_source":""},{"t":259.377,"note":79,"dur":0.165,"vel":1.0,"inst":"xylophone_v0_bowed_182","midi_source":""},{"t":259.542,"note":79,"dur":0.165,"vel":1.0,"inst":"xylophone_v0_bowed_182","midi_source":""},{"t":259.706,"note":58,"dur":0.165,"vel":1.0,"inst":"xylophone_v0_bowed_182","midi_source":""},{"t":259.871,"note":77,"dur":0.165,"vel":1.0,"inst":"cello_v0_bass_378","midi_source":""},{"t":260.035,"note":58,"dur":0.165,"vel":1.0,"inst":"xylophone_v0_bowed_182","midi_source":""},{"t":260.2,"note":51,"dur":0.165,"vel":1.0,"inst":"pad_glass_v0_struck_307","midi_source":""},{"t":260.2,"note":55,"dur":0.165,"vel":1.0,"inst":"xylophone_v0_bowed_182","midi_source":""},{"t":260.2,"note":75,"dur":0.165,"vel":1.0,"inst":"pad_glass_v0_struck_307","midi_source":""},{"t":260.365,"note":58,"dur":0.165,"vel":1.0,"inst":"xylophone_v0_bowed_182","midi_source":""},{"t":260.365,"note":79,"dur":0.165,"vel":1.0,"inst":"xylophone_v0_bowed_182","midi_source":""},{"t":260.529,"note":51,"dur":0.165,"vel":1.0,"inst":"pad_glass_v0_struck_307","midi_source":""},{"t":260.529,"note":55,"dur":0.165,"vel":1.0,"inst":"xylophone_v0_bowed_182","midi_source":""},{"t":260.529,"note":82,"dur":0.165,"vel":1.0,"inst":"xylophone_v0_bowed_182","midi_source":""},{"t":260.694,"note":58,"dur":0.165,"vel":1.0,"inst":"xylophone_v0_bowed_182","midi_source":""},{"t":260.694,"note":79,"dur":0.165,"vel":1.0,"inst":"xylophone_v0_bowed_182","midi_source":""},{"t":260.858,"note":79,"dur":0.165,"vel":1.0,"inst":"xylophone_v0_bowed_182","midi_source":""},{"t":261.023,"note":58,"dur":0.165,"vel":1.0,"inst":"xylophone_v0_bowed_182","midi_source":""},{"t":261.187,"note":77,"dur":0.165,"vel":1.0,"inst":"cello_v0_bass_378","midi_source":""},{"t":261.352,"note":58,"dur":0.165,"vel":1.0,"inst":"xylophone_v0_bowed_182","midi_source":""},{"t":261.517,"note":51,"dur":0.165,"vel":1.0,"inst":"pad_glass_v0_struck_307","midi_source":""},{"t":261.517,"note":55,"dur":0.165,"vel":1.0,"inst":"xylophone_v0_bowed_182","midi_source":""},{"t":261.517,"note":75,"dur":0.165,"vel":1.0,"inst":"pad_glass_v0_struck_307","midi_source":""},{"t":261.681,"note":58,"dur":0.165,"vel":1.0,"inst":"xylophone_v0_bowed_182","midi_source":""},{"t":261.681,"note":77,"dur":0.165,"vel":1.0,"inst":"cello_v0_bass_378","midi_source":""},{"t":261.846,"note":55,"dur":0.165,"vel":1.0,"inst":"xylophone_v0_bowed_182","midi_source":""},{"t":261.846,"note":79,"dur":0.165,"vel":1.0,"inst":"xylophone_v0_bowed_182","midi_source":""},{"t":262.01,"note":51,"dur":0.165,"vel":1.0,"inst":"pad_glass_v0_struck_307","midi_source":""},{"t":262.01,"note":82,"dur":0.165,"vel":1.0,"inst":"xylophone_v0_bowed_182","midi_source":""},{"t":262.175,"note":77,"dur":0.165,"vel":1.0,"inst":"cello_v0_bass_378","midi_source":""},{"t":262.339,"note":51,"dur":0.165,"vel":1.0,"inst":"pad_glass_v0_struck_307","midi_source":""},{"t":262.339,"note":53,"dur":0.165,"vel":1.0,"inst":"cello_v0_bass_378","midi_source":""},{"t":262.339,"note":58,"dur":0.165,"vel":1.0,"inst":"xylophone_v0_bowed_182","midi_source":""},{"t":262.339,"note":82,"dur":0.165,"vel":1.0,"inst":"xylophone_v0_bowed_182","midi_source":""},{"t":262.504,"note":79,"dur":0.165,"vel":1.0,"inst":"xylophone_v0_bowed_182","midi_source":""},{"t":262.669,"note":51,"dur":0.165,"vel":1.0,"inst":"pad_glass_v0_struck_307","midi_source":""},{"t":262.669,"note":55,"dur":0.165,"vel":1.0,"inst":"xylophone_v0_bowed_182","midi_source":""},{"t":262.669,"note":58,"dur":0.165,"vel":1.0,"inst":"xylophone_v0_bowed_182","midi_source":""},{"t":262.669,"note":82,"dur":0.165,"vel":1.0,"inst":"xylophone_v0_bowed_182","midi_source":""},{"t":262.833,"note":77,"dur":0.165,"vel":1.0,"inst":"cello_v0_bass_378","midi_source":""},{"t":262.998,"note":51,"dur":0.165,"vel":1.0,"inst":"pad_glass_v0_struck_307","midi_source":""},{"t":262.998,"note":53,"dur":0.165,"vel":1.0,"inst":"cello_v0_bass_378","midi_source":""},{"t":262.998,"note":58,"dur":0.165,"vel":1.0,"inst":"xylophone_v0_bowed_182","midi_source":""},{"t":262.998,"note":82,"dur":0.165,"vel":1.0,"inst":"xylophone_v0_bowed_182","midi_source":""},{"t":263.162,"note":79,"dur":0.165,"vel":1.0,"inst":"xylophone_v0_bowed_182","midi_source":""},{"t":263.327,"note":51,"dur":0.165,"vel":1.0,"inst":"pad_glass_v0_struck_307","midi_source":""},{"t":263.327,"note":55,"dur":0.165,"vel":1.0,"inst":"xylophone_v0_bowed_182","midi_source":""},{"t":263.327,"note":58,"dur":0.165,"vel":1.0,"inst":"xylophone_v0_bowed_182","midi_source":""},{"t":263.327,"note":82,"dur":0.165,"vel":1.0,"inst":"xylophone_v0_bowed_182","midi_source":""},{"t":263.491,"note":77,"dur":0.165,"vel":1.0,"inst":"cello_v0_bass_378","midi_source":""},{"t":263.656,"note":82,"dur":0.165,"vel":1.0,"inst":"xylophone_v0_bowed_182","midi_source":""},{"t":263.821,"note":79,"dur":0.165,"vel":1.0,"inst":"xylophone_v0_bowed_182","midi_source":""},{"t":263.985,"note":77,"dur":0.165,"vel":1.0,"inst":"cello_v0_bass_378","midi_source":""},{"t":264.15,"note":60,"dur":0.165,"vel":1.0,"inst":"pad_glass_v0_struck_307","midi_source":""},{"t":264.15,"note":79,"dur":0.165,"vel":1.0,"inst":"xylophone_v0_bowed_182","midi_source":""},{"t":264.314,"note":51,"dur":0.165,"vel":1.0,"inst":"pad_glass_v0_struck_307","midi_source":""},{"t":264.314,"note":75,"dur":0.165,"vel":1.0,"inst":"pad_glass_v0_struck_307","midi_source":""},{"t":264.479,"note":60,"dur":0.165,"vel":1.0,"inst":"pad_glass_v0_struck_307","midi_source":""},{"t":264.479,"note":77,"dur":0.165,"vel":1.0,"inst":"cello_v0_bass_378","midi_source":""},{"t":264.643,"note":51,"dur":0.165,"vel":1.0,"inst":"pad_glass_v0_struck_307","midi_source":""},{"t":264.643,"note":79,"dur":0.165,"vel":1.0,"inst":"xylophone_v0_bowed_182","midi_source":""},{"t":264.808,"note":82,"dur":0.165,"vel":1.0,"inst":"xylophone_v0_bowed_182","midi_source":""},{"t":264.973,"note":51,"dur":0.165,"vel":1.0,"inst":"pad_glass_v0_struck_307","midi_source":""},{"t":265.137,"note":79,"dur":0.165,"vel":1.0,"inst":"xylophone_v0_bowed_182","midi_source":""},{"t":265.302,"note":58,"dur":0.165,"vel":1.0,"inst":"xylophone_v0_bowed_182","midi_source":""},{"t":265.302,"note":79,"dur":0.165,"vel":1.0,"inst":"xylophone_v0_bowed_182","midi_source":""},{"t":265.466,"note":79,"dur":0.165,"vel":1.0,"inst":"xylophone_v0_bowed_182","midi_source":""},{"t":265.631,"note":58,"dur":0.165,"vel":1.0,"inst":"xylophone_v0_bowed_182","midi_source":""},{"t":265.795,"note":77,"dur":0.165,"vel":1.0,"inst":"cello_v0_bass_378","midi_source":""},{"t":265.96,"note":58,"dur":0.165,"vel":1.0,"inst":"xylophone_v0_bowed_182","midi_source":""},{"t":266.125,"note":51,"dur":0.165,"vel":1.0,"inst":"pad_glass_v0_struck_307","midi_source":""},{"t":266.125,"note":55,"dur":0.165,"vel":1.0,"inst":"xylophone_v0_bowed_182","midi_source":""},{"t":266.125,"note":75,"dur":0.165,"vel":1.0,"inst":"pad_glass_v0_struck_307","midi_source":""},{"t":266.289,"note":58,"dur":0.165,"vel":1.0,"inst":"xylophone_v0_bowed_182","midi_source":""},{"t":266.289,"note":77,"dur":0.165,"vel":1.0,"inst":"cello_v0_bass_378","midi_source":""},{"t":266.454,"note":55,"dur":0.165,"vel":1.0,"inst":"xylophone_v0_bowed_182","midi_source":""},{"t":266.454,"note":79,"dur":0.165,"vel":1.0,"inst":"xylophone_v0_bowed_182","midi_source":""},{"t":266.618,"note":51,"dur":0.165,"vel":1.0,"inst":"pad_glass_v0_struck_307","midi_source":""},{"t":266.618,"note":82,"dur":0.165,"vel":1.0,"inst":"xylophone_v0_bowed_182","midi_source":""},{"t":266.783,"note":77,"dur":0.165,"vel":1.0,"inst":"cello_v0_bass_378","midi_source":""},{"t":266.947,"note":51,"dur":0.165,"vel":1.0,"inst":"pad_glass_v0_struck_307","midi_source":""},{"t":266.947,"note":53,"dur":0.165,"vel":1.0,"inst":"cello_v0_bass_378","midi_source":""},{"t":266.947,"note":58,"dur":0.165,"vel":1.0,"inst":"xylophone_v0_bowed_182","midi_source":""},{"t":266.947,"note":82,"dur":0.165,"vel":1.0,"inst":"xylophone_v0_bowed_182","midi_source":""},{"t":267.112,"note":79,"dur":0.165,"vel":1.0,"inst":"xylophone_v0_bowed_182","midi_source":""},{"t":267.277,"note":51,"dur":0.165,"vel":1.0,"inst":"pad_glass_v0_struck_307","midi_source":""},{"t":267.277,"note":55,"dur":0.165,"vel":1.0,"inst":"xylophone_v0_bowed_182","midi_source":""},{"t":267.277,"note":58,"dur":0.165,"vel":1.0,"inst":"xylophone_v0_bowed_182","midi_source":""},{"t":267.277,"note":82,"dur":0.165,"vel":1.0,"inst":"xylophone_v0_bowed_182","midi_source":""},{"t":267.441,"note":77,"dur":0.165,"vel":1.0,"inst":"cello_v0_bass_378","midi_source":""},{"t":267.606,"note":51,"dur":0.165,"vel":1.0,"inst":"pad_glass_v0_struck_307","midi_source":""},{"t":267.606,"note":53,"dur":0.165,"vel":1.0,"inst":"cello_v0_bass_378","midi_source":""},{"t":267.606,"note":58,"dur":0.165,"vel":1.0,"inst":"xylophone_v0_bowed_182","midi_source":""},{"t":267.606,"note":82,"dur":0.165,"vel":1.0,"inst":"xylophone_v0_bowed_182","midi_source":""},{"t":267.77,"note":79,"dur":0.165,"vel":1.0,"inst":"xylophone_v0_bowed_182","midi_source":""},{"t":267.935,"note":51,"dur":0.165,"vel":1.0,"inst":"pad_glass_v0_struck_307","midi_source":""},{"t":267.935,"note":55,"dur":0.165,"vel":1.0,"inst":"xylophone_v0_bowed_182","midi_source":""},{"t":267.935,"note":58,"dur":0.165,"vel":1.0,"inst":"xylophone_v0_bowed_182","midi_source":""},{"t":267.935,"note":82,"dur":0.165,"vel":1.0,"inst":"xylophone_v0_bowed_182","midi_source":""},{"t":268.099,"note":77,"dur":0.165,"vel":1.0,"inst":"cello_v0_bass_378","midi_source":""},{"t":268.264,"note":82,"dur":0.165,"vel":1.0,"inst":"xylophone_v0_bowed_182","midi_source":""},{"t":268.429,"note":79,"dur":0.165,"vel":1.0,"inst":"xylophone_v0_bowed_182","midi_source":""},{"t":268.593,"note":77,"dur":0.165,"vel":1.0,"inst":"cello_v0_bass_378","midi_source":""},{"t":268.758,"note":51,"dur":0.165,"vel":1.0,"inst":"pad_glass_v0_struck_307","midi_source":""},{"t":268.758,"note":55,"dur":0.165,"vel":1.0,"inst":"xylophone_v0_bowed_182","midi_source":""},{"t":268.758,"note":75,"dur":0.165,"vel":1.0,"inst":"pad_glass_v0_struck_307","midi_source":""},{"t":268.922,"note":58,"dur":0.165,"vel":1.0,"inst":"xylophone_v0_bowed_182","midi_source":""},{"t":268.922,"note":79,"dur":0.165,"vel":1.0,"inst":"xylophone_v0_bowed_182","midi_source":""},{"t":269.087,"note":51,"dur":0.165,"vel":1.0,"inst":"pad_glass_v0_struck_307","midi_source":""},{"t":269.087,"note":53,"dur":0.165,"vel":1.0,"inst":"cello_v0_bass_378","midi_source":""},{"t":269.087,"note":82,"dur":0.165,"vel":1.0,"inst":"xylophone_v0_bowed_182","midi_source":""},{"t":269.251,"note":58,"dur":0.165,"vel":1.0,"inst":"xylophone_v0_bowed_182","midi_source":""},{"t":269.251,"note":79,"dur":0.165,"vel":1.0,"inst":"xylophone_v0_bowed_182","midi_source":""},{"t":269.416,"note":79,"dur":0.165,"vel":1.0,"inst":"xylophone_v0_bowed_182","midi_source":""},{"t":269.581,"note":58,"dur":0.165,"vel":1.0,"inst":"xylophone_v0_bowed_182","midi_source":""},{"t":269.745,"note":77,"dur":0.165,"vel":1.0,"inst":"cello_v0_bass_378","midi_source":""},{"t":269.91,"note":58,"dur":0.165,"vel":1.0,"inst":"xylophone_v0_bowed_182","midi_source":""},{"t":270.074,"note":51,"dur":0.165,"vel":1.0,"inst":"pad_glass_v0_struck_307","midi_source":""},{"t":270.074,"note":55,"dur":0.165,"vel":1.0,"inst":"xylophone_v0_bowed_182","midi_source":""},{"t":270.074,"note":75,"dur":0.165,"vel":1.0,"inst":"pad_glass_v0_struck_307","midi_source":""},{"t":270.239,"note":58,"dur":0.165,"vel":1.0,"inst":"xylophone_v0_bowed_182","midi_source":""},{"t":270.239,"note":79,"dur":0.165,"vel":1.0,"inst":"xylophone_v0_bowed_182","midi_source":""},{"t":270.403,"note":51,"dur":0.165,"vel":1.0,"inst":"pad_glass_v0_struck_307","midi_source":""},{"t":270.403,"note":55,"dur":0.165,"vel":1.0,"inst":"xylophone_v0_bowed_182","midi_source":""},{"t":270.403,"note":82,"dur":0.165,"vel":1.0,"inst":"xylophone_v0_bowed_182","midi_source":""},{"t":270.568,"note":58,"dur":0.165,"vel":1.0,"inst":"xylophone_v0_bowed_182","midi_source":""},{"t":270.568,"note":79,"dur":0.165,"vel":1.0,"inst":"xylophone_v0_bowed_182","midi_source":""},{"t":270.732,"note":79,"dur":0.165,"vel":1.0,"inst":"xylophone_v0_bowed_182","midi_source":""},{"t":270.897,"note":58,"dur":0.165,"vel":1.0,"inst":"xylophone_v0_bowed_182","midi_source":""},{"t":271.062,"note":77,"dur":0.165,"vel":1.0,"inst":"cello_v0_bass_378","midi_source":""},{"t":271.226,"note":58,"dur":0.165,"vel":1.0,"inst":"xylophone_v0_bowed_182","midi_source":""},{"t":271.391,"note":51,"dur":0.165,"vel":1.0,"inst":"pad_glass_v0_struck_307","midi_source":""},{"t":271.391,"note":55,"dur":0.165,"vel":1.0,"inst":"xylophone_v0_bowed_182","midi_source":""},{"t":271.391,"note":75,"dur":0.165,"vel":1.0,"inst":"pad_glass_v0_struck_307","midi_source":""},{"t":271.555,"note":58,"dur":0.165,"vel":1.0,"inst":"xylophone_v0_bowed_182","midi_source":""},{"t":271.555,"note":77,"dur":0.165,"vel":1.0,"inst":"cello_v0_bass_378","midi_source":""},{"t":271.72,"note":55,"dur":0.165,"vel":1.0,"inst":"xylophone_v0_bowed_182","midi_source":""},{"t":271.72,"note":79,"dur":0.165,"vel":1.0,"inst":"xylophone_v0_bowed_182","midi_source":""},{"t":271.884,"note":51,"dur":0.165,"vel":1.0,"inst":"pad_glass_v0_struck_307","midi_source":""},{"t":271.884,"note":82,"dur":0.165,"vel":1.0,"inst":"xylophone_v0_bowed_182","midi_source":""},{"t":272.049,"note":77,"dur":0.165,"vel":1.0,"inst":"cello_v0_bass_378","midi_source":""},{"t":272.214,"note":51,"dur":0.165,"vel":1.0,"inst":"pad_glass_v0_struck_307","midi_source":""},{"t":272.214,"note":53,"dur":0.165,"vel":1.0,"inst":"cello_v0_bass_378","midi_source":""},{"t":272.214,"note":58,"dur":0.165,"vel":1.0,"inst":"xylophone_v0_bowed_182","midi_source":""},{"t":272.214,"note":82,"dur":0.165,"vel":1.0,"inst":"xylophone_v0_bowed_182","midi_source":""},{"t":272.378,"note":79,"dur":0.165,"vel":1.0,"inst":"xylophone_v0_bowed_182","midi_source":""},{"t":272.543,"note":51,"dur":0.165,"vel":1.0,"inst":"pad_glass_v0_struck_307","midi_source":""},{"t":272.543,"note":55,"dur":0.165,"vel":1.0,"inst":"xylophone_v0_bowed_182","midi_source":""},{"t":272.543,"note":58,"dur":0.165,"vel":1.0,"inst":"xylophone_v0_bowed_182","midi_source":""},{"t":272.543,"note":82,"dur":0.165,"vel":1.0,"inst":"xylophone_v0_bowed_182","midi_source":""},{"t":272.707,"note":77,"dur":0.165,"vel":1.0,"inst":"cello_v0_bass_378","midi_source":""},{"t":272.872,"note":51,"dur":0.165,"vel":1.0,"inst":"pad_glass_v0_struck_307","midi_source":""},{"t":272.872,"note":53,"dur":0.165,"vel":1.0,"inst":"cello_v0_bass_378","midi_source":""},{"t":272.872,"note":58,"dur":0.165,"vel":1.0,"inst":"xylophone_v0_bowed_182","midi_source":""},{"t":272.872,"note":82,"dur":0.165,"vel":1.0,"inst":"xylophone_v0_bowed_182","midi_source":""},{"t":273.036,"note":79,"dur":0.165,"vel":1.0,"inst":"xylophone_v0_bowed_182","midi_source":""},{"t":273.201,"note":51,"dur":0.165,"vel":1.0,"inst":"pad_glass_v0_struck_307","midi_source":""},{"t":273.201,"note":55,"dur":0.165,"vel":1.0,"inst":"xylophone_v0_bowed_182","midi_source":""},{"t":273.201,"note":58,"dur":0.165,"vel":1.0,"inst":"xylophone_v0_bowed_182","midi_source":""},{"t":273.201,"note":82,"dur":0.165,"vel":1.0,"inst":"xylophone_v0_bowed_182","midi_source":""},{"t":273.366,"note":77,"dur":0.165,"vel":1.0,"inst":"cello_v0_bass_378","midi_source":""},{"t":273.53,"note":82,"dur":0.165,"vel":1.0,"inst":"xylophone_v0_bowed_182","midi_source":""},{"t":273.695,"note":79,"dur":0.165,"vel":1.0,"inst":"xylophone_v0_bowed_182","midi_source":""},{"t":273.859,"note":77,"dur":0.165,"vel":1.0,"inst":"cello_v0_bass_378","midi_source":""},{"t":274.024,"note":60,"dur":0.165,"vel":1.0,"inst":"pad_glass_v0_struck_307","midi_source":""},{"t":274.024,"note":79,"dur":0.165,"vel":1.0,"inst":"xylophone_v0_bowed_182","midi_source":""},{"t":274.188,"note":51,"dur":0.165,"vel":1.0,"inst":"pad_glass_v0_struck_307","midi_source":""},{"t":274.188,"note":75,"dur":0.165,"vel":1.0,"inst":"pad_glass_v0_struck_307","midi_source":""},{"t":274.353,"note":60,"dur":0.165,"vel":1.0,"inst":"pad_glass_v0_struck_307","midi_source":""},{"t":274.353,"note":77,"dur":0.165,"vel":1.0,"inst":"cello_v0_bass_378","midi_source":""},{"t":274.518,"note":51,"dur":0.165,"vel":1.0,"inst":"pad_glass_v0_struck_307","midi_source":""},{"t":274.518,"note":79,"dur":0.165,"vel":1.0,"inst":"xylophone_v0_bowed_182","midi_source":""},{"t":274.682,"note":82,"dur":0.165,"vel":1.0,"inst":"xylophone_v0_bowed_182","midi_source":""},{"t":274.847,"note":51,"dur":0.165,"vel":1.0,"inst":"pad_glass_v0_struck_307","midi_source":""},{"t":275.011,"note":79,"dur":0.165,"vel":1.0,"inst":"xylophone_v0_bowed_182","midi_source":""},{"t":275.176,"note":58,"dur":0.165,"vel":1.0,"inst":"xylophone_v0_bowed_182","midi_source":""},{"t":275.176,"note":79,"dur":0.165,"vel":1.0,"inst":"xylophone_v0_bowed_182","midi_source":""},{"t":275.34,"note":79,"dur":0.165,"vel":1.0,"inst":"xylophone_v0_bowed_182","midi_source":""},{"t":275.505,"note":58,"dur":0.165,"vel":1.0,"inst":"xylophone_v0_bowed_182","midi_source":""},{"t":275.67,"note":77,"dur":0.165,"vel":1.0,"inst":"cello_v0_bass_378","midi_source":""},{"t":275.834,"note":58,"dur":0.165,"vel":1.0,"inst":"xylophone_v0_bowed_182","midi_source":""},{"t":275.999,"note":51,"dur":0.165,"vel":1.0,"inst":"pad_glass_v0_struck_307","midi_source":""},{"t":275.999,"note":55,"dur":0.165,"vel":1.0,"inst":"xylophone_v0_bowed_182","midi_source":""},{"t":275.999,"note":75,"dur":0.165,"vel":1.0,"inst":"pad_glass_v0_struck_307","midi_source":""},{"t":276.163,"note":58,"dur":0.165,"vel":1.0,"inst":"xylophone_v0_bowed_182","midi_source":""},{"t":276.163,"note":77,"dur":0.165,"vel":1.0,"inst":"cello_v0_bass_378","midi_source":""},{"t":276.328,"note":55,"dur":0.165,"vel":1.0,"inst":"xylophone_v0_bowed_182","midi_source":""},{"t":276.328,"note":79,"dur":0.165,"vel":1.0,"inst":"xylophone_v0_bowed_182","midi_source":""},{"t":276.492,"note":51,"dur":0.165,"vel":1.0,"inst":"pad_glass_v0_struck_307","midi_source":""},{"t":276.492,"note":82,"dur":0.165,"vel":1.0,"inst":"xylophone_v0_bowed_182","midi_source":""},{"t":276.657,"note":77,"dur":0.165,"vel":1.0,"inst":"cello_v0_bass_378","midi_source":""},{"t":276.822,"note":51,"dur":0.165,"vel":1.0,"inst":"pad_glass_v0_struck_307","midi_source":""},{"t":276.822,"note":53,"dur":0.165,"vel":1.0,"inst":"cello_v0_bass_378","midi_source":""},{"t":276.822,"note":58,"dur":0.165,"vel":1.0,"inst":"xylophone_v0_bowed_182","midi_source":""},{"t":276.822,"note":82,"dur":0.165,"vel":1.0,"inst":"xylophone_v0_bowed_182","midi_source":""},{"t":276.986,"note":79,"dur":0.165,"vel":1.0,"inst":"xylophone_v0_bowed_182","midi_source":""},{"t":277.151,"note":51,"dur":0.165,"vel":1.0,"inst":"pad_glass_v0_struck_307","midi_source":""},{"t":277.151,"note":55,"dur":0.165,"vel":1.0,"inst":"xylophone_v0_bowed_182","midi_source":""},{"t":277.151,"note":58,"dur":0.165,"vel":1.0,"inst":"xylophone_v0_bowed_182","midi_source":""},{"t":277.151,"note":82,"dur":0.165,"vel":1.0,"inst":"xylophone_v0_bowed_182","midi_source":""},{"t":277.315,"note":77,"dur":0.165,"vel":1.0,"inst":"cello_v0_bass_378","midi_source":""},{"t":277.48,"note":51,"dur":0.165,"vel":1.0,"inst":"pad_glass_v0_struck_307","midi_source":""},{"t":277.48,"note":53,"dur":0.165,"vel":1.0,"inst":"cello_v0_bass_378","midi_source":""},{"t":277.48,"note":58,"dur":0.165,"vel":1.0,"inst":"xylophone_v0_bowed_182","midi_source":""},{"t":277.48,"note":82,"dur":0.165,"vel":1.0,"inst":"xylophone_v0_bowed_182","midi_source":""},{"t":277.644,"note":79,"dur":0.165,"vel":1.0,"inst":"xylophone_v0_bowed_182","midi_source":""},{"t":277.809,"note":51,"dur":0.165,"vel":1.0,"inst":"pad_glass_v0_struck_307","midi_source":""},{"t":277.809,"note":55,"dur":0.165,"vel":1.0,"inst":"xylophone_v0_bowed_182","midi_source":""},{"t":277.809,"note":58,"dur":0.165,"vel":1.0,"inst":"xylophone_v0_bowed_182","midi_source":""},{"t":277.809,"note":82,"dur":0.165,"vel":1.0,"inst":"xylophone_v0_bowed_182","midi_source":""},{"t":277.974,"note":77,"dur":0.165,"vel":1.0,"inst":"cello_v0_bass_378","midi_source":""},{"t":278.138,"note":82,"dur":0.165,"vel":1.0,"inst":"xylophone_v0_bowed_182","midi_source":""},{"t":278.303,"note":79,"dur":0.165,"vel":1.0,"inst":"xylophone_v0_bowed_182","midi_source":""},{"t":278.467,"note":77,"dur":0.165,"vel":1.0,"inst":"cello_v0_bass_378","midi_source":""},{"t":278.632,"note":51,"dur":0.165,"vel":1.0,"inst":"pad_glass_v0_struck_307","midi_source":""},{"t":278.632,"note":55,"dur":0.165,"vel":1.0,"inst":"xylophone_v0_bowed_182","midi_source":""},{"t":278.632,"note":75,"dur":0.165,"vel":1.0,"inst":"pad_glass_v0_struck_307","midi_source":""},{"t":278.796,"note":58,"dur":0.165,"vel":1.0,"inst":"xylophone_v0_bowed_182","midi_source":""},{"t":278.796,"note":79,"dur":0.165,"vel":1.0,"inst":"xylophone_v0_bowed_182","midi_source":""},{"t":278.961,"note":51,"dur":0.165,"vel":1.0,"inst":"pad_glass_v0_struck_307","midi_source":""},{"t":278.961,"note":53,"dur":0.165,"vel":1.0,"inst":"cello_v0_bass_378","midi_source":""},{"t":278.961,"note":82,"dur":0.165,"vel":1.0,"inst":"xylophone_v0_bowed_182","midi_source":""},{"t":279.126,"note":58,"dur":0.165,"vel":1.0,"inst":"xylophone_v0_bowed_182","midi_source":""},{"t":279.126,"note":79,"dur":0.165,"vel":1.0,"inst":"xylophone_v0_bowed_182","midi_source":""},{"t":279.29,"note":79,"dur":0.165,"vel":1.0,"inst":"xylophone_v0_bowed_182","midi_source":""},{"t":279.455,"note":58,"dur":0.165,"vel":1.0,"inst":"xylophone_v0_bowed_182","midi_source":""},{"t":279.619,"note":77,"dur":0.165,"vel":1.0,"inst":"cello_v0_bass_378","midi_source":""},{"t":279.784,"note":58,"dur":0.165,"vel":1.0,"inst":"xylophone_v0_bowed_182","midi_source":""},{"t":279.948,"note":51,"dur":0.165,"vel":1.0,"inst":"pad_glass_v0_struck_307","midi_source":""},{"t":279.948,"note":55,"dur":0.165,"vel":1.0,"inst":"xylophone_v0_bowed_182","midi_source":""},{"t":279.948,"note":75,"dur":0.165,"vel":1.0,"inst":"pad_glass_v0_struck_307","midi_source":""},{"t":280.113,"note":58,"dur":0.165,"vel":1.0,"inst":"xylophone_v0_bowed_182","midi_source":""},{"t":280.113,"note":79,"dur":0.165,"vel":1.0,"inst":"xylophone_v0_bowed_182","midi_source":""},{"t":280.278,"note":51,"dur":0.165,"vel":1.0,"inst":"pad_glass_v0_struck_307","midi_source":""},{"t":280.278,"note":55,"dur":0.165,"vel":1.0,"inst":"xylophone_v0_bowed_182","midi_source":""},{"t":280.278,"note":82,"dur":0.165,"vel":1.0,"inst":"xylophone_v0_bowed_182","midi_source":""},{"t":280.442,"note":58,"dur":0.165,"vel":1.0,"inst":"xylophone_v0_bowed_182","midi_source":""},{"t":280.442,"note":79,"dur":0.165,"vel":1.0,"inst":"xylophone_v0_bowed_182","midi_source":""},{"t":280.607,"note":79,"dur":0.165,"vel":1.0,"inst":"xylophone_v0_bowed_182","midi_source":""},{"t":280.771,"note":58,"dur":0.165,"vel":1.0,"inst":"xylophone_v0_bowed_182","midi_source":""},{"t":280.936,"note":77,"dur":0.165,"vel":1.0,"inst":"cello_v0_bass_378","midi_source":""},{"t":281.1,"note":58,"dur":0.165,"vel":1.0,"inst":"xylophone_v0_bowed_182","midi_source":""},{"t":281.265,"note":51,"dur":0.165,"vel":1.0,"inst":"pad_glass_v0_struck_307","midi_source":""},{"t":281.265,"note":55,"dur":0.165,"vel":1.0,"inst":"xylophone_v0_bowed_182","midi_source":""},{"t":281.265,"note":75,"dur":0.165,"vel":1.0,"inst":"pad_glass_v0_struck_307","midi_source":""},{"t":281.43,"note":58,"dur":0.165,"vel":1.0,"inst":"xylophone_v0_bowed_182","midi_source":""},{"t":281.43,"note":77,"dur":0.165,"vel":1.0,"inst":"cello_v0_bass_378","midi_source":""},{"t":281.594,"note":55,"dur":0.165,"vel":1.0,"inst":"xylophone_v0_bowed_182","midi_source":""},{"t":281.594,"note":79,"dur":0.165,"vel":1.0,"inst":"xylophone_v0_bowed_182","midi_source":""},{"t":281.759,"note":51,"dur":0.165,"vel":1.0,"inst":"pad_glass_v0_struck_307","midi_source":""},{"t":281.759,"note":82,"dur":0.165,"vel":1.0,"inst":"xylophone_v0_bowed_182","midi_source":""},{"t":281.923,"note":77,"dur":0.165,"vel":1.0,"inst":"cello_v0_bass_378","midi_source":""},{"t":282.088,"note":51,"dur":0.165,"vel":1.0,"inst":"pad_glass_v0_struck_307","midi_source":""},{"t":282.088,"note":53,"dur":0.165,"vel":1.0,"inst":"cello_v0_bass_378","midi_source":""},{"t":282.088,"note":58,"dur":0.165,"vel":1.0,"inst":"xylophone_v0_bowed_182","midi_source":""},{"t":282.088,"note":82,"dur":0.165,"vel":1.0,"inst":"xylophone_v0_bowed_182","midi_source":""},{"t":282.252,"note":79,"dur":0.165,"vel":1.0,"inst":"xylophone_v0_bowed_182","midi_source":""},{"t":282.417,"note":51,"dur":0.165,"vel":1.0,"inst":"pad_glass_v0_struck_307","midi_source":""},{"t":282.417,"note":55,"dur":0.165,"vel":1.0,"inst":"xylophone_v0_bowed_182","midi_source":""},{"t":282.417,"note":58,"dur":0.165,"vel":1.0,"inst":"xylophone_v0_bowed_182","midi_source":""},{"t":282.417,"note":82,"dur":0.165,"vel":1.0,"inst":"xylophone_v0_bowed_182","midi_source":""},{"t":282.582,"note":77,"dur":0.165,"vel":1.0,"inst":"cello_v0_bass_378","midi_source":""},{"t":282.746,"note":51,"dur":0.165,"vel":1.0,"inst":"pad_glass_v0_struck_307","midi_source":""},{"t":282.746,"note":53,"dur":0.165,"vel":1.0,"inst":"cello_v0_bass_378","midi_source":""},{"t":282.746,"note":58,"dur":0.165,"vel":1.0,"inst":"xylophone_v0_bowed_182","midi_source":""},{"t":282.746,"note":82,"dur":0.165,"vel":1.0,"inst":"xylophone_v0_bowed_182","midi_source":""},{"t":282.911,"note":79,"dur":0.165,"vel":1.0,"inst":"xylophone_v0_bowed_182","midi_source":""},{"t":283.075,"note":51,"dur":0.165,"vel":1.0,"inst":"pad_glass_v0_struck_307","midi_source":""},{"t":283.075,"note":55,"dur":0.165,"vel":1.0,"inst":"xylophone_v0_bowed_182","midi_source":""},{"t":283.075,"note":58,"dur":0.165,"vel":1.0,"inst":"xylophone_v0_bowed_182","midi_source":""},{"t":283.075,"note":82,"dur":0.165,"vel":1.0,"inst":"xylophone_v0_bowed_182","midi_source":""},{"t":283.24,"note":77,"dur":0.165,"vel":1.0,"inst":"cello_v0_bass_378","midi_source":""},{"t":283.404,"note":82,"dur":0.165,"vel":1.0,"inst":"xylophone_v0_bowed_182","midi_source":""},{"t":283.569,"note":79,"dur":0.165,"vel":1.0,"inst":"xylophone_v0_bowed_182","midi_source":""},{"t":283.734,"note":77,"dur":0.165,"vel":1.0,"inst":"cello_v0_bass_378","midi_source":""},{"t":283.898,"note":60,"dur":0.165,"vel":1.0,"inst":"pad_glass_v0_struck_307","midi_source":""},{"t":283.898,"note":79,"dur":0.165,"vel":1.0,"inst":"xylophone_v0_bowed_182","midi_source":""},{"t":284.063,"note":51,"dur":0.165,"vel":1.0,"inst":"pad_glass_v0_struck_307","midi_source":""},{"t":284.063,"note":75,"dur":0.165,"vel":1.0,"inst":"pad_glass_v0_struck_307","midi_source":""},{"t":284.227,"note":60,"dur":0.165,"vel":1.0,"inst":"pad_glass_v0_struck_307","midi_source":""},{"t":284.227,"note":77,"dur":0.165,"vel":1.0,"inst":"cello_v0_bass_378","midi_source":""},{"t":284.392,"note":51,"dur":0.165,"vel":1.0,"inst":"pad_glass_v0_struck_307","midi_source":""},{"t":284.392,"note":79,"dur":0.165,"vel":1.0,"inst":"xylophone_v0_bowed_182","midi_source":""},{"t":284.556,"note":82,"dur":0.165,"vel":1.0,"inst":"xylophone_v0_bowed_182","midi_source":""},{"t":284.721,"note":51,"dur":0.165,"vel":1.0,"inst":"pad_glass_v0_struck_307","midi_source":""},{"t":284.885,"note":79,"dur":0.165,"vel":1.0,"inst":"xylophone_v0_bowed_182","midi_source":""},{"t":285.05,"note":58,"dur":0.165,"vel":1.0,"inst":"xylophone_v0_bowed_182","midi_source":""},{"t":285.05,"note":79,"dur":0.165,"vel":1.0,"inst":"xylophone_v0_bowed_182","midi_source":""},{"t":285.215,"note":79,"dur":0.165,"vel":1.0,"inst":"xylophone_v0_bowed_182","midi_source":""},{"t":285.379,"note":58,"dur":0.165,"vel":1.0,"inst":"xylophone_v0_bowed_182","midi_source":""},{"t":285.544,"note":77,"dur":0.165,"vel":1.0,"inst":"cello_v0_bass_378","midi_source":""},{"t":285.708,"note":58,"dur":0.165,"vel":1.0,"inst":"xylophone_v0_bowed_182","midi_source":""},{"t":285.873,"note":51,"dur":0.165,"vel":1.0,"inst":"pad_glass_v0_struck_307","midi_source":""},{"t":285.873,"note":55,"dur":0.165,"vel":1.0,"inst":"xylophone_v0_bowed_182","midi_source":""},{"t":285.873,"note":75,"dur":0.165,"vel":1.0,"inst":"pad_glass_v0_struck_307","midi_source":""},{"t":286.037,"note":58,"dur":0.165,"vel":1.0,"inst":"xylophone_v0_bowed_182","midi_source":""},{"t":286.037,"note":77,"dur":0.165,"vel":1.0,"inst":"cello_v0_bass_378","midi_source":""},{"t":286.202,"note":55,"dur":0.165,"vel":1.0,"inst":"xylophone_v0_bowed_182","midi_source":""},{"t":286.202,"note":79,"dur":0.165,"vel":1.0,"inst":"xylophone_v0_bowed_182","midi_source":""},{"t":286.367,"note":51,"dur":0.165,"vel":1.0,"inst":"pad_glass_v0_struck_307","midi_source":""},{"t":286.367,"note":82,"dur":0.165,"vel":1.0,"inst":"xylophone_v0_bowed_182","midi_source":""},{"t":286.531,"note":77,"dur":0.165,"vel":1.0,"inst":"cello_v0_bass_378","midi_source":""},{"t":286.696,"note":51,"dur":0.165,"vel":1.0,"inst":"pad_glass_v0_struck_307","midi_source":""},{"t":286.696,"note":53,"dur":0.165,"vel":1.0,"inst":"cello_v0_bass_378","midi_source":""},{"t":286.696,"note":58,"dur":0.165,"vel":1.0,"inst":"xylophone_v0_bowed_182","midi_source":""},{"t":286.696,"note":82,"dur":0.165,"vel":1.0,"inst":"xylophone_v0_bowed_182","midi_source":""},{"t":286.86,"note":79,"dur":0.165,"vel":1.0,"inst":"xylophone_v0_bowed_182","midi_source":""},{"t":287.025,"note":51,"dur":0.165,"vel":1.0,"inst":"pad_glass_v0_struck_307","midi_source":""},{"t":287.025,"note":55,"dur":0.165,"vel":1.0,"inst":"xylophone_v0_bowed_182","midi_source":""},{"t":287.025,"note":58,"dur":0.165,"vel":1.0,"inst":"xylophone_v0_bowed_182","midi_source":""},{"t":287.025,"note":82,"dur":0.165,"vel":1.0,"inst":"xylophone_v0_bowed_182","midi_source":""},{"t":287.189,"note":77,"dur":0.165,"vel":1.0,"inst":"cello_v0_bass_378","midi_source":""},{"t":287.354,"note":51,"dur":0.165,"vel":1.0,"inst":"pad_glass_v0_struck_307","midi_source":""},{"t":287.354,"note":53,"dur":0.165,"vel":1.0,"inst":"cello_v0_bass_378","midi_source":""},{"t":287.354,"note":58,"dur":0.165,"vel":1.0,"inst":"xylophone_v0_bowed_182","midi_source":""},{"t":287.354,"note":82,"dur":0.165,"vel":1.0,"inst":"xylophone_v0_bowed_182","midi_source":""},{"t":287.519,"note":79,"dur":0.165,"vel":1.0,"inst":"xylophone_v0_bowed_182","midi_source":""},{"t":287.683,"note":51,"dur":0.165,"vel":1.0,"inst":"pad_glass_v0_struck_307","midi_source":""},{"t":287.683,"note":55,"dur":0.165,"vel":1.0,"inst":"xylophone_v0_bowed_182","midi_source":""},{"t":287.683,"note":58,"dur":0.165,"vel":1.0,"inst":"xylophone_v0_bowed_182","midi_source":""},{"t":287.683,"note":82,"dur":0.165,"vel":1.0,"inst":"xylophone_v0_bowed_182","midi_source":""},{"t":287.848,"note":77,"dur":0.165,"vel":1.0,"inst":"cello_v0_bass_378","midi_source":""},{"t":288.012,"note":82,"dur":0.165,"vel":1.0,"inst":"xylophone_v0_bowed_182","midi_source":""},{"t":288.177,"note":79,"dur":0.165,"vel":1.0,"inst":"xylophone_v0_bowed_182","midi_source":""},{"t":288.341,"note":77,"dur":0.165,"vel":1.0,"inst":"cello_v0_bass_378","midi_source":""},{"t":288.506,"note":51,"dur":0.165,"vel":1.0,"inst":"pad_glass_v0_struck_307","midi_source":""},{"t":288.506,"note":55,"dur":0.165,"vel":1.0,"inst":"xylophone_v0_bowed_182","midi_source":""},{"t":288.506,"note":75,"dur":0.165,"vel":1.0,"inst":"pad_glass_v0_struck_307","midi_source":""},{"t":288.671,"note":58,"dur":0.165,"vel":1.0,"inst":"xylophone_v0_bowed_182","midi_source":""},{"t":288.671,"note":79,"dur":0.165,"vel":1.0,"inst":"xylophone_v0_bowed_182","midi_source":""},{"t":288.835,"note":51,"dur":0.165,"vel":1.0,"inst":"pad_glass_v0_struck_307","midi_source":""},{"t":288.835,"note":53,"dur":0.165,"vel":1.0,"inst":"cello_v0_bass_378","midi_source":""},{"t":288.835,"note":82,"dur":0.165,"vel":1.0,"inst":"xylophone_v0_bowed_182","midi_source":""},{"t":289.0,"note":58,"dur":0.165,"vel":1.0,"inst":"xylophone_v0_bowed_182","midi_source":""},{"t":289.0,"note":79,"dur":0.165,"vel":1.0,"inst":"xylophone_v0_bowed_182","midi_source":""},{"t":289.164,"note":79,"dur":0.165,"vel":1.0,"inst":"xylophone_v0_bowed_182","midi_source":""},{"t":289.329,"note":58,"dur":0.165,"vel":1.0,"inst":"xylophone_v0_bowed_182","midi_source":""},{"t":289.493,"note":77,"dur":0.165,"vel":1.0,"inst":"cello_v0_bass_378","midi_source":""},{"t":289.658,"note":58,"dur":0.165,"vel":1.0,"inst":"xylophone_v0_bowed_182","midi_source":""}]}