{"track_num":2,"title":"Torrent","duration":294.0,"midi_sources":["Beethoven/quartet03-1.mid","Joplin/binks.mid","Lincke/adl_The_Glow_Worm.mid"],"events":[{"t":0.035,"note":59,"dur":0.147,"vel":1.0,"inst":"glockenspiel_v0_pad_339","midi_source":""},{"t":0.182,"note":40,"dur":0.068,"vel":1.0,"inst":"clarinet_v0_plucked_119","midi_source":""},{"t":0.182,"note":62,"dur":0.068,"vel":1.0,"inst":"clarinet_v0_plucked_119","midi_source":""},{"t":0.416,"note":35,"dur":0.232,"vel":0.638,"inst":"bass_v0_struck_273","midi_source":""},{"t":0.416,"note":54,"dur":0.929,"vel":0.638,"inst":"guitar_v0_bass_381","midi_source":""},{"t":0.648,"note":42,"dur":0.232,"vel":0.638,"inst":"guitar_v0_bass_381","midi_source":""},{"t":0.881,"note":47,"dur":0.232,"vel":0.638,"inst":"bass_v0_struck_273","midi_source":""},{"t":1.113,"note":49,"dur":0.232,"vel":0.638,"inst":"bass_v0_struck_273","midi_source":""},{"t":1.345,"note":49,"dur":0.465,"vel":0.638,"inst":"bass_v0_struck_273","midi_source":""},{"t":1.345,"note":52,"dur":0.465,"vel":0.638,"inst":"guitar_v0_bass_381","midi_source":""},{"t":1.81,"note":28,"dur":0.465,"vel":0.638,"inst":"guitar_v0_bass_381","midi_source":""},{"t":1.81,"note":66,"dur":0.465,"vel":0.638,"inst":"guitar_v0_bass_381","midi_source":""},{"t":1.81,"note":64,"dur":0.465,"vel":0.638,"inst":"guitar_v0_bass_381","midi_source":""},{"t":1.81,"note":78,"dur":0.465,"vel":0.638,"inst":"guitar_v0_bass_381","midi_source":""},{"t":2.275,"note":40,"dur":0.465,"vel":0.638,"inst":"guitar_v0_bass_381","midi_source":""},{"t":2.275,"note":44,"dur":0.465,"vel":0.638,"inst":"guitar_v0_bass_381","midi_source":""},{"t":2.275,"note":40,"dur":0.465,"vel":0.638,"inst":"guitar_v0_bass_381","midi_source":""},{"t":2.275,"note":66,"dur":0.697,"vel":0.638,"inst":"guitar_v0_bass_381","midi_source":""},{"t":2.275,"note":64,"dur":0.697,"vel":0.638,"inst":"guitar_v0_bass_381","midi_source":""},{"t":2.275,"note":78,"dur":0.697,"vel":0.638,"inst":"guitar_v0_bass_381","midi_source":""},{"t":2.739,"note":40,"dur":0.465,"vel":0.638,"inst":"guitar_v0_bass_381","midi_source":""},{"t":2.739,"note":44,"dur":0.465,"vel":0.638,"inst":"guitar_v0_bass_381","midi_source":""},{"t":2.739,"note":40,"dur":0.465,"vel":0.638,"inst":"guitar_v0_bass_381","midi_source":""},{"t":2.972,"note":66,"dur":0.232,"vel":0.638,"inst":"guitar_v0_bass_381","midi_source":""},{"t":2.972,"note":64,"dur":0.232,"vel":0.638,"inst":"guitar_v0_bass_381","midi_source":""},{"t":2.972,"note":78,"dur":0.232,"vel":0.638,"inst":"guitar_v0_bass_381","midi_source":""},{"t":3.204,"note":28,"dur":0.465,"vel":0.638,"inst":"guitar_v0_bass_381","midi_source":""},{"t":3.204,"note":64,"dur":0.465,"vel":0.638,"inst":"guitar_v0_bass_381","midi_source":""},{"t":3.204,"note":64,"dur":0.465,"vel":0.638,"inst":"guitar_v0_bass_381","midi_source":""},{"t":3.204,"note":76,"dur":0.465,"vel":0.638,"inst":"guitar_v0_bass_381","midi_source":""},{"t":3.669,"note":40,"dur":0.465,"vel":0.638,"inst":"guitar_v0_bass_381","midi_source":""},{"t":3.669,"note":44,"dur":0.465,"vel":0.638,"inst":"guitar_v0_bass_381","midi_source":""},{"t":3.669,"note":40,"dur":0.465,"vel":0.638,"inst":"guitar_v0_bass_381","midi_source":""},{"t":3.669,"note":59,"dur":0.465,"vel":0.638,"inst":"bass_v0_struck_273","midi_source":""},{"t":3.669,"note":71,"dur":0.465,"vel":0.638,"inst":"bass_v0_struck_273","midi_source":""},{"t":4.133,"note":40,"dur":0.465,"vel":0.638,"inst":"guitar_v0_bass_381","midi_source":""},{"t":4.133,"note":44,"dur":0.465,"vel":0.638,"inst":"guitar_v0_bass_381","midi_source":""},{"t":4.133,"note":40,"dur":0.465,"vel":0.638,"inst":"guitar_v0_bass_381","midi_source":""},{"t":4.133,"note":61,"dur":0.465,"vel":0.638,"inst":"bass_v0_struck_273","midi_source":""},{"t":4.133,"note":73,"dur":0.465,"vel":0.638,"inst":"bass_v0_struck_273","midi_source":""},{"t":4.598,"note":24,"dur":0.465,"vel":0.638,"inst":"guitar_v0_bass_381","midi_source":""},{"t":4.598,"note":35,"dur":0.465,"vel":0.638,"inst":"bass_v0_struck_273","midi_source":""},{"t":4.598,"note":61,"dur":0.465,"vel":0.638,"inst":"bass_v0_struck_273","midi_source":""},{"t":4.598,"note":73,"dur":0.465,"vel":0.638,"inst":"bass_v0_struck_273","midi_source":""},{"t":5.063,"note":40,"dur":0.465,"vel":0.638,"inst":"guitar_v0_bass_381","midi_source":""},{"t":5.063,"note":47,"dur":0.465,"vel":0.638,"inst":"bass_v0_struck_273","midi_source":""},{"t":5.063,"note":49,"dur":0.465,"vel":0.638,"inst":"bass_v0_struck_273","midi_source":""},{"t":5.063,"note":64,"dur":0.232,"vel":0.638,"inst":"guitar_v0_bass_381","midi_source":""},{"t":5.295,"note":61,"dur":0.232,"vel":0.638,"inst":"bass_v0_struck_273","midi_source":""},{"t":5.527,"note":40,"dur":0.465,"vel":0.638,"inst":"guitar_v0_bass_381","midi_source":""},{"t":5.527,"note":47,"dur":0.465,"vel":0.638,"inst":"bass_v0_struck_273","midi_source":""},{"t":5.527,"note":49,"dur":0.465,"vel":0.638,"inst":"bass_v0_struck_273","midi_source":""},{"t":5.527,"note":61,"dur":0.232,"vel":0.638,"inst":"bass_v0_struck_273","midi_source":""},{"t":5.759,"note":56,"dur":0.232,"vel":0.638,"inst":"guitar_v0_bass_381","midi_source":""},{"t":5.992,"note":25,"dur":0.465,"vel":0.638,"inst":"bass_v0_struck_273","midi_source":""},{"t":5.992,"note":37,"dur":0.465,"vel":0.638,"inst":"bass_v0_struck_273","midi_source":""},{"t":5.992,"note":59,"dur":0.929,"vel":0.638,"inst":"bass_v0_struck_273","midi_source":""},{"t":6.456,"note":40,"dur":0.465,"vel":0.638,"inst":"guitar_v0_bass_381","midi_source":""},{"t":6.456,"note":47,"dur":0.465,"vel":0.638,"inst":"bass_v0_struck_273","midi_source":""},{"t":6.456,"note":49,"dur":0.465,"vel":0.638,"inst":"bass_v0_struck_273","midi_source":""},{"t":6.921,"note":40,"dur":0.465,"vel":0.638,"inst":"guitar_v0_bass_381","midi_source":""},{"t":6.921,"note":47,"dur":0.465,"vel":0.638,"inst":"bass_v0_struck_273","midi_source":""},{"t":6.921,"note":49,"dur":0.465,"vel":0.638,"inst":"bass_v0_struck_273","midi_source":""},{"t":6.921,"note":52,"dur":0.465,"vel":0.638,"inst":"guitar_v0_bass_381","midi_source":""},{"t":7.386,"note":24,"dur":0.465,"vel":0.638,"inst":"guitar_v0_bass_381","midi_source":""},{"t":7.386,"note":28,"dur":0.465,"vel":0.638,"inst":"guitar_v0_bass_381","midi_source":""},{"t":7.386,"note":54,"dur":0.232,"vel":0.638,"inst":"guitar_v0_bass_381","midi_source":""},{"t":7.618,"note":59,"dur":0.232,"vel":0.638,"inst":"bass_v0_struck_273","midi_source":""},{"t":7.85,"note":42,"dur":0.465,"vel":0.638,"inst":"guitar_v0_bass_381","midi_source":""},{"t":7.85,"note":47,"dur":0.465,"vel":0.638,"inst":"bass_v0_struck_273","midi_source":""},{"t":7.85,"note":40,"dur":0.465,"vel":0.638,"inst":"guitar_v0_bass_381","midi_source":""},{"t":7.85,"note":59,"dur":0.232,"vel":0.638,"inst":"bass_v0_struck_273","midi_source":""},{"t":8.083,"note":59,"dur":0.232,"vel":0.638,"inst":"bass_v0_struck_273","midi_source":""},{"t":8.315,"note":42,"dur":0.465,"vel":0.638,"inst":"guitar_v0_bass_381","midi_source":""},{"t":8.315,"note":47,"dur":0.465,"vel":0.638,"inst":"bass_v0_struck_273","midi_source":""},{"t":8.315,"note":40,"dur":0.465,"vel":0.638,"inst":"guitar_v0_bass_381","midi_source":""},{"t":8.315,"note":59,"dur":0.232,"vel":0.638,"inst":"bass_v0_struck_273","midi_source":""},{"t":8.547,"note":54,"dur":0.232,"vel":0.638,"inst":"guitar_v0_bass_381","midi_source":""},{"t":8.78,"note":25,"dur":0.465,"vel":0.638,"inst":"bass_v0_struck_273","midi_source":""},{"t":8.78,"note":37,"dur":0.465,"vel":0.638,"inst":"bass_v0_struck_273","midi_source":""},{"t":8.78,"note":52,"dur":0.929,"vel":0.638,"inst":"guitar_v0_bass_381","midi_source":""},{"t":9.244,"note":40,"dur":0.465,"vel":0.638,"inst":"guitar_v0_bass_381","midi_source":""},{"t":9.244,"note":47,"dur":0.465,"vel":0.638,"inst":"bass_v0_struck_273","midi_source":""},{"t":9.244,"note":49,"dur":0.465,"vel":0.638,"inst":"bass_v0_struck_273","midi_source":""},{"t":9.709,"note":35,"dur":0.232,"vel":0.638,"inst":"bass_v0_struck_273","midi_source":""},{"t":9.709,"note":54,"dur":0.929,"vel":0.638,"inst":"guitar_v0_bass_381","midi_source":""},{"t":9.941,"note":42,"dur":0.232,"vel":0.638,"inst":"guitar_v0_bass_381","midi_source":""},{"t":10.174,"note":47,"dur":0.232,"vel":0.638,"inst":"bass_v0_struck_273","midi_source":""},{"t":10.406,"note":49,"dur":0.232,"vel":0.638,"inst":"bass_v0_struck_273","midi_source":""},{"t":10.638,"note":49,"dur":0.465,"vel":0.638,"inst":"bass_v0_struck_273","midi_source":""},{"t":10.638,"note":52,"dur":0.465,"vel":0.638,"inst":"guitar_v0_bass_381","midi_source":""},{"t":11.103,"note":28,"dur":0.465,"vel":0.638,"inst":"guitar_v0_bass_381","midi_source":""},{"t":11.103,"note":66,"dur":0.465,"vel":0.638,"inst":"guitar_v0_bass_381","midi_source":""},{"t":11.103,"note":64,"dur":0.465,"vel":0.638,"inst":"guitar_v0_bass_381","midi_source":""},{"t":11.103,"note":78,"dur":0.465,"vel":0.638,"inst":"guitar_v0_bass_381","midi_source":""},{"t":11.568,"note":40,"dur":0.465,"vel":0.638,"inst":"guitar_v0_bass_381","midi_source":""},{"t":11.568,"note":44,"dur":0.465,"vel":0.638,"inst":"guitar_v0_bass_381","midi_source":""},{"t":11.568,"note":40,"dur":0.465,"vel":0.638,"inst":"guitar_v0_bass_381","midi_source":""},{"t":11.568,"note":66,"dur":0.697,"vel":0.638,"inst":"guitar_v0_bass_381","midi_source":""},{"t":11.568,"note":64,"dur":0.697,"vel":0.638,"inst":"guitar_v0_bass_381","midi_source":""},{"t":11.568,"note":78,"dur":0.697,"vel":0.638,"inst":"guitar_v0_bass_381","midi_source":""},{"t":12.032,"note":40,"dur":0.465,"vel":0.638,"inst":"guitar_v0_bass_381","midi_source":""},{"t":12.032,"note":44,"dur":0.465,"vel":0.638,"inst":"guitar_v0_bass_381","midi_source":""},{"t":12.032,"note":40,"dur":0.465,"vel":0.638,"inst":"guitar_v0_bass_381","midi_source":""},{"t":12.264,"note":66,"dur":0.232,"vel":0.638,"inst":"guitar_v0_bass_381","midi_source":""},{"t":12.264,"note":64,"dur":0.232,"vel":0.638,"inst":"guitar_v0_bass_381","midi_source":""},{"t":12.264,"note":78,"dur":0.232,"vel":0.638,"inst":"guitar_v0_bass_381","midi_source":""},{"t":12.497,"note":28,"dur":0.465,"vel":0.638,"inst":"guitar_v0_bass_381","midi_source":""},{"t":12.497,"note":64,"dur":0.465,"vel":0.638,"inst":"guitar_v0_bass_381","midi_source":""},{"t":12.497,"note":64,"dur":0.465,"vel":0.638,"inst":"guitar_v0_bass_381","midi_source":""},{"t":12.497,"note":76,"dur":0.465,"vel":0.638,"inst":"guitar_v0_bass_381","midi_source":""},{"t":12.961,"note":40,"dur":0.465,"vel":0.638,"inst":"guitar_v0_bass_381","midi_source":""},{"t":12.961,"note":44,"dur":0.465,"vel":0.638,"inst":"guitar_v0_bass_381","midi_source":""},{"t":12.961,"note":40,"dur":0.465,"vel":0.638,"inst":"guitar_v0_bass_381","midi_source":""},{"t":12.961,"note":59,"dur":0.465,"vel":0.638,"inst":"bass_v0_struck_273","midi_source":""},{"t":12.961,"note":71,"dur":0.465,"vel":0.638,"inst":"bass_v0_struck_273","midi_source":""},{"t":13.426,"note":40,"dur":0.465,"vel":0.638,"inst":"guitar_v0_bass_381","midi_source":""},{"t":13.426,"note":44,"dur":0.465,"vel":0.638,"inst":"guitar_v0_bass_381","midi_source":""},{"t":13.426,"note":40,"dur":0.465,"vel":0.638,"inst":"guitar_v0_bass_381","midi_source":""},{"t":13.426,"note":61,"dur":0.465,"vel":0.638,"inst":"bass_v0_struck_273","midi_source":""},{"t":13.426,"note":73,"dur":0.465,"vel":0.638,"inst":"bass_v0_struck_273","midi_source":""},{"t":13.891,"note":24,"dur":0.465,"vel":0.638,"inst":"guitar_v0_bass_381","midi_source":""},{"t":13.891,"note":35,"dur":0.465,"vel":0.638,"inst":"bass_v0_struck_273","midi_source":""},{"t":13.891,"note":61,"dur":0.465,"vel":0.638,"inst":"bass_v0_struck_273","midi_source":""},{"t":13.891,"note":73,"dur":0.465,"vel":0.638,"inst":"bass_v0_struck_273","midi_source":""},{"t":14.355,"note":40,"dur":0.465,"vel":0.638,"inst":"guitar_v0_bass_381","midi_source":""},{"t":14.355,"note":47,"dur":0.465,"vel":0.638,"inst":"bass_v0_struck_273","midi_source":""},{"t":14.355,"note":49,"dur":0.465,"vel":0.638,"inst":"bass_v0_struck_273","midi_source":""},{"t":14.355,"note":64,"dur":0.232,"vel":0.638,"inst":"guitar_v0_bass_381","midi_source":""},{"t":14.588,"note":61,"dur":0.232,"vel":0.638,"inst":"bass_v0_struck_273","midi_source":""},{"t":14.82,"note":40,"dur":0.465,"vel":0.638,"inst":"guitar_v0_bass_381","midi_source":""},{"t":14.82,"note":47,"dur":0.465,"vel":0.638,"inst":"bass_v0_struck_273","midi_source":""},{"t":14.82,"note":49,"dur":0.465,"vel":0.638,"inst":"bass_v0_struck_273","midi_source":""},{"t":14.82,"note":61,"dur":0.232,"vel":0.638,"inst":"bass_v0_struck_273","midi_source":""},{"t":15.052,"note":56,"dur":0.232,"vel":0.638,"inst":"guitar_v0_bass_381","midi_source":""},{"t":15.285,"note":25,"dur":0.465,"vel":0.638,"inst":"bass_v0_struck_273","midi_source":""},{"t":15.285,"note":37,"dur":0.465,"vel":0.638,"inst":"bass_v0_struck_273","midi_source":""},{"t":15.285,"note":59,"dur":0.929,"vel":0.638,"inst":"bass_v0_struck_273","midi_source":""},{"t":15.749,"note":40,"dur":0.465,"vel":0.638,"inst":"guitar_v0_bass_381","midi_source":""},{"t":15.749,"note":47,"dur":0.465,"vel":0.638,"inst":"bass_v0_struck_273","midi_source":""},{"t":15.749,"note":49,"dur":0.465,"vel":0.638,"inst":"bass_v0_struck_273","midi_source":""},{"t":16.214,"note":40,"dur":0.465,"vel":0.638,"inst":"guitar_v0_bass_381","midi_source":""},{"t":16.214,"note":47,"dur":0.465,"vel":0.638,"inst":"bass_v0_struck_273","midi_source":""},{"t":16.214,"note":49,"dur":0.465,"vel":0.638,"inst":"bass_v0_struck_273","midi_source":""},{"t":16.214,"note":52,"dur":0.465,"vel":0.638,"inst":"guitar_v0_bass_381","midi_source":""},{"t":16.679,"note":24,"dur":0.465,"vel":0.638,"inst":"guitar_v0_bass_381","midi_source":""},{"t":16.679,"note":28,"dur":0.465,"vel":0.638,"inst":"guitar_v0_bass_381","midi_source":""},{"t":16.679,"note":54,"dur":0.232,"vel":0.638,"inst":"guitar_v0_bass_381","midi_source":""},{"t":16.911,"note":59,"dur":0.232,"vel":0.638,"inst":"bass_v0_struck_273","midi_source":""},{"t":17.143,"note":42,"dur":0.465,"vel":0.638,"inst":"guitar_v0_bass_381","midi_source":""},{"t":17.143,"note":47,"dur":0.465,"vel":0.638,"inst":"bass_v0_struck_273","midi_source":""},{"t":17.143,"note":40,"dur":0.465,"vel":0.638,"inst":"guitar_v0_bass_381","midi_source":""},{"t":17.143,"note":59,"dur":0.232,"vel":0.638,"inst":"bass_v0_struck_273","midi_source":""},{"t":17.376,"note":59,"dur":0.232,"vel":0.638,"inst":"bass_v0_struck_273","midi_source":""},{"t":17.608,"note":42,"dur":0.465,"vel":0.638,"inst":"guitar_v0_bass_381","midi_source":""},{"t":17.608,"note":47,"dur":0.465,"vel":0.638,"inst":"bass_v0_struck_273","midi_source":""},{"t":17.608,"note":40,"dur":0.465,"vel":0.638,"inst":"guitar_v0_bass_381","midi_source":""},{"t":17.608,"note":59,"dur":0.232,"vel":0.638,"inst":"bass_v0_struck_273","midi_source":""},{"t":17.84,"note":54,"dur":0.232,"vel":0.638,"inst":"guitar_v0_bass_381","midi_source":""},{"t":18.073,"note":25,"dur":0.465,"vel":0.638,"inst":"bass_v0_struck_273","midi_source":""},{"t":18.073,"note":37,"dur":0.465,"vel":0.638,"inst":"bass_v0_struck_273","midi_source":""},{"t":18.073,"note":52,"dur":0.929,"vel":0.638,"inst":"guitar_v0_bass_381","midi_source":""},{"t":18.537,"note":40,"dur":0.465,"vel":0.638,"inst":"guitar_v0_bass_381","midi_source":""},{"t":18.537,"note":47,"dur":0.465,"vel":0.638,"inst":"bass_v0_struck_273","midi_source":""},{"t":18.537,"note":49,"dur":0.465,"vel":0.638,"inst":"bass_v0_struck_273","midi_source":""},{"t":19.002,"note":35,"dur":0.232,"vel":0.638,"inst":"bass_v0_struck_273","midi_source":""},{"t":19.002,"note":54,"dur":0.929,"vel":0.638,"inst":"guitar_v0_bass_381","midi_source":""},{"t":19.234,"note":42,"dur":0.232,"vel":0.638,"inst":"guitar_v0_bass_381","midi_source":""},{"t":19.466,"note":47,"dur":0.232,"vel":0.638,"inst":"bass_v0_struck_273","midi_source":""},{"t":19.699,"note":49,"dur":0.232,"vel":0.638,"inst":"bass_v0_struck_273","midi_source":""},{"t":19.931,"note":49,"dur":0.465,"vel":0.638,"inst":"bass_v0_struck_273","midi_source":""},{"t":19.931,"note":52,"dur":0.465,"vel":0.638,"inst":"guitar_v0_bass_381","midi_source":""},{"t":20.396,"note":28,"dur":0.465,"vel":0.638,"inst":"guitar_v0_bass_381","midi_source":""},{"t":20.396,"note":66,"dur":0.465,"vel":0.638,"inst":"guitar_v0_bass_381","midi_source":""},{"t":20.396,"note":64,"dur":0.465,"vel":0.638,"inst":"guitar_v0_bass_381","midi_source":""},{"t":20.396,"note":78,"dur":0.465,"vel":0.638,"inst":"guitar_v0_bass_381","midi_source":""},{"t":20.86,"note":40,"dur":0.465,"vel":0.638,"inst":"guitar_v0_bass_381","midi_source":""},{"t":20.86,"note":44,"dur":0.465,"vel":0.638,"inst":"guitar_v0_bass_381","midi_source":""},{"t":20.86,"note":40,"dur":0.465,"vel":0.638,"inst":"guitar_v0_bass_381","midi_source":""},{"t":20.86,"note":66,"dur":0.697,"vel":0.638,"inst":"guitar_v0_bass_381","midi_source":""},{"t":20.86,"note":64,"dur":0.697,"vel":0.638,"inst":"guitar_v0_bass_381","midi_source":""},{"t":20.86,"note":78,"dur":0.697,"vel":0.638,"inst":"guitar_v0_bass_381","midi_source":""},{"t":21.325,"note":40,"dur":0.465,"vel":0.638,"inst":"guitar_v0_bass_381","midi_source":""},{"t":21.325,"note":44,"dur":0.465,"vel":0.638,"inst":"guitar_v0_bass_381","midi_source":""},{"t":21.325,"note":40,"dur":0.465,"vel":0.638,"inst":"guitar_v0_bass_381","midi_source":""},{"t":21.557,"note":66,"dur":0.232,"vel":0.638,"inst":"guitar_v0_bass_381","midi_source":""},{"t":21.557,"note":64,"dur":0.232,"vel":0.638,"inst":"guitar_v0_bass_381","midi_source":""},{"t":21.557,"note":78,"dur":0.232,"vel":0.638,"inst":"guitar_v0_bass_381","midi_source":""},{"t":21.79,"note":28,"dur":0.465,"vel":0.638,"inst":"guitar_v0_bass_381","midi_source":""},{"t":21.79,"note":64,"dur":0.465,"vel":0.638,"inst":"guitar_v0_bass_381","midi_source":""},{"t":21.79,"note":64,"dur":0.465,"vel":0.638,"inst":"guitar_v0_bass_381","midi_source":""},{"t":21.79,"note":76,"dur":0.465,"vel":0.638,"inst":"guitar_v0_bass_381","midi_source":""},{"t":22.254,"note":40,"dur":0.465,"vel":0.638,"inst":"guitar_v0_bass_381","midi_source":""},{"t":22.254,"note":44,"dur":0.465,"vel":0.638,"inst":"guitar_v0_bass_381","midi_source":""},{"t":22.254,"note":40,"dur":0.465,"vel":0.638,"inst":"guitar_v0_bass_381","midi_source":""},{"t":22.254,"note":59,"dur":0.465,"vel":0.638,"inst":"bass_v0_struck_273","midi_source":""},{"t":22.254,"note":71,"dur":0.465,"vel":0.638,"inst":"bass_v0_struck_273","midi_source":""},{"t":22.719,"note":40,"dur":0.465,"vel":0.638,"inst":"guitar_v0_bass_381","midi_source":""},{"t":22.719,"note":44,"dur":0.465,"vel":0.638,"inst":"guitar_v0_bass_381","midi_source":""},{"t":22.719,"note":40,"dur":0.465,"vel":0.638,"inst":"guitar_v0_bass_381","midi_source":""},{"t":22.719,"note":61,"dur":0.465,"vel":0.638,"inst":"bass_v0_struck_273","midi_source":""},{"t":22.719,"note":73,"dur":0.465,"vel":0.638,"inst":"bass_v0_struck_273","midi_source":""},{"t":23.184,"note":24,"dur":0.465,"vel":0.638,"inst":"guitar_v0_bass_381","midi_source":""},{"t":23.184,"note":35,"dur":0.465,"vel":0.638,"inst":"bass_v0_struck_273","midi_source":""},{"t":23.184,"note":61,"dur":0.465,"vel":0.638,"inst":"bass_v0_struck_273","midi_source":""},{"t":23.184,"note":73,"dur":0.465,"vel":0.638,"inst":"bass_v0_struck_273","midi_source":""},{"t":23.648,"note":40,"dur":0.465,"vel":0.638,"inst":"guitar_v0_bass_381","midi_source":""},{"t":23.648,"note":47,"dur":0.465,"vel":0.638,"inst":"bass_v0_struck_273","midi_source":""},{"t":23.648,"note":49,"dur":0.465,"vel":0.638,"inst":"bass_v0_struck_273","midi_source":""},{"t":23.648,"note":64,"dur":0.232,"vel":0.638,"inst":"guitar_v0_bass_381","midi_source":""},{"t":23.881,"note":61,"dur":0.232,"vel":0.638,"inst":"bass_v0_struck_273","midi_source":""},{"t":24.113,"note":40,"dur":0.465,"vel":0.638,"inst":"guitar_v0_bass_381","midi_source":""},{"t":24.113,"note":47,"dur":0.465,"vel":0.638,"inst":"bass_v0_struck_273","midi_source":""},{"t":24.113,"note":49,"dur":0.465,"vel":0.638,"inst":"bass_v0_struck_273","midi_source":""},{"t":24.113,"note":61,"dur":0.232,"vel":0.638,"inst":"bass_v0_struck_273","midi_source":""},{"t":24.345,"note":56,"dur":0.232,"vel":0.638,"inst":"guitar_v0_bass_381","midi_source":""},{"t":24.578,"note":25,"dur":0.465,"vel":0.638,"inst":"bass_v0_struck_273","midi_source":""},{"t":24.578,"note":37,"dur":0.465,"vel":0.638,"inst":"bass_v0_struck_273","midi_source":""},{"t":24.578,"note":59,"dur":0.929,"vel":0.638,"inst":"bass_v0_struck_273","midi_source":""},{"t":25.042,"note":40,"dur":0.465,"vel":0.638,"inst":"guitar_v0_bass_381","midi_source":""},{"t":25.042,"note":47,"dur":0.465,"vel":0.638,"inst":"bass_v0_struck_273","midi_source":""},{"t":25.042,"note":49,"dur":0.465,"vel":0.638,"inst":"bass_v0_struck_273","midi_source":""},{"t":25.507,"note":40,"dur":0.465,"vel":0.638,"inst":"guitar_v0_bass_381","midi_source":""},{"t":25.507,"note":47,"dur":0.465,"vel":0.638,"inst":"bass_v0_struck_273","midi_source":""},{"t":25.507,"note":49,"dur":0.465,"vel":0.638,"inst":"bass_v0_struck_273","midi_source":""},{"t":25.507,"note":52,"dur":0.465,"vel":0.638,"inst":"guitar_v0_bass_381","midi_source":""},{"t":25.971,"note":24,"dur":0.465,"vel":0.638,"inst":"guitar_v0_bass_381","midi_source":""},{"t":25.971,"note":28,"dur":0.465,"vel":0.638,"inst":"guitar_v0_bass_381","midi_source":""},{"t":25.971,"note":54,"dur":0.232,"vel":0.638,"inst":"guitar_v0_bass_381","midi_source":""},{"t":26.204,"note":59,"dur":0.232,"vel":0.638,"inst":"bass_v0_struck_273","midi_source":""},{"t":26.436,"note":42,"dur":0.465,"vel":0.638,"inst":"guitar_v0_bass_381","midi_source":""},{"t":26.436,"note":47,"dur":0.465,"vel":0.638,"inst":"bass_v0_struck_273","midi_source":""},{"t":26.436,"note":40,"dur":0.465,"vel":0.638,"inst":"guitar_v0_bass_381","midi_source":""},{"t":26.436,"note":59,"dur":0.232,"vel":0.638,"inst":"bass_v0_struck_273","midi_source":""},{"t":26.668,"note":59,"dur":0.232,"vel":0.638,"inst":"bass_v0_struck_273","midi_source":""},{"t":26.901,"note":42,"dur":0.465,"vel":0.638,"inst":"guitar_v0_bass_381","midi_source":""},{"t":26.901,"note":47,"dur":0.465,"vel":0.638,"inst":"bass_v0_struck_273","midi_source":""},{"t":26.901,"note":40,"dur":0.465,"vel":0.638,"inst":"guitar_v0_bass_381","midi_source":""},{"t":26.901,"note":59,"dur":0.232,"vel":0.638,"inst":"bass_v0_struck_273","midi_source":""},{"t":27.133,"note":54,"dur":0.232,"vel":0.638,"inst":"guitar_v0_bass_381","midi_source":""},{"t":27.365,"note":25,"dur":0.465,"vel":0.638,"inst":"bass_v0_struck_273","midi_source":""},{"t":27.365,"note":37,"dur":0.465,"vel":0.638,"inst":"bass_v0_struck_273","midi_source":""},{"t":27.365,"note":52,"dur":0.929,"vel":0.638,"inst":"guitar_v0_bass_381","midi_source":""},{"t":27.83,"note":40,"dur":0.465,"vel":0.638,"inst":"guitar_v0_bass_381","midi_source":""},{"t":27.83,"note":47,"dur":0.465,"vel":0.638,"inst":"bass_v0_struck_273","midi_source":""},{"t":27.83,"note":49,"dur":0.465,"vel":0.638,"inst":"bass_v0_struck_273","midi_source":""},{"t":28.295,"note":35,"dur":0.232,"vel":0.638,"inst":"bass_v0_struck_273","midi_source":""},{"t":28.295,"note":54,"dur":0.929,"vel":0.638,"inst":"guitar_v0_bass_381","midi_source":""},{"t":28.527,"note":42,"dur":0.232,"vel":0.638,"inst":"guitar_v0_bass_381","midi_source":""},{"t":28.759,"note":47,"dur":0.232,"vel":0.638,"inst":"bass_v0_struck_273","midi_source":""},{"t":28.992,"note":49,"dur":0.232,"vel":0.638,"inst":"bass_v0_struck_273","midi_source":""},{"t":29.224,"note":49,"dur":0.465,"vel":0.638,"inst":"bass_v0_struck_273","midi_source":""},{"t":29.224,"note":52,"dur":0.465,"vel":0.638,"inst":"guitar_v0_bass_381","midi_source":""},{"t":29.689,"note":28,"dur":0.465,"vel":0.638,"inst":"guitar_v0_bass_381","midi_source":""},{"t":29.689,"note":66,"dur":0.465,"vel":0.638,"inst":"guitar_v0_bass_381","midi_source":""},{"t":29.689,"note":64,"dur":0.465,"vel":0.638,"inst":"guitar_v0_bass_381","midi_source":""},{"t":29.689,"note":78,"dur":0.465,"vel":0.638,"inst":"guitar_v0_bass_381","midi_source":""},{"t":30.153,"note":40,"dur":0.465,"vel":0.638,"inst":"guitar_v0_bass_381","midi_source":""},{"t":30.153,"note":44,"dur":0.465,"vel":0.638,"inst":"guitar_v0_bass_381","midi_source":""},{"t":30.153,"note":40,"dur":0.465,"vel":0.638,"inst":"guitar_v0_bass_381","midi_source":""},{"t":30.153,"note":66,"dur":0.697,"vel":0.638,"inst":"guitar_v0_bass_381","midi_source":""},{"t":30.153,"note":64,"dur":0.697,"vel":0.638,"inst":"guitar_v0_bass_381","midi_source":""},{"t":30.153,"note":78,"dur":0.697,"vel":0.638,"inst":"guitar_v0_bass_381","midi_source":""},{"t":30.618,"note":40,"dur":0.465,"vel":0.638,"inst":"guitar_v0_bass_381","midi_source":""},{"t":30.618,"note":44,"dur":0.465,"vel":0.638,"inst":"guitar_v0_bass_381","midi_source":""},{"t":30.618,"note":40,"dur":0.465,"vel":0.638,"inst":"guitar_v0_bass_381","midi_source":""},{"t":30.85,"note":66,"dur":0.232,"vel":0.638,"inst":"guitar_v0_bass_381","midi_source":""},{"t":30.85,"note":64,"dur":0.232,"vel":0.638,"inst":"guitar_v0_bass_381","midi_source":""},{"t":30.85,"note":78,"dur":0.232,"vel":0.638,"inst":"guitar_v0_bass_381","midi_source":""},{"t":31.083,"note":28,"dur":0.465,"vel":0.638,"inst":"guitar_v0_bass_381","midi_source":""},{"t":31.083,"note":64,"dur":0.465,"vel":0.638,"inst":"guitar_v0_bass_381","midi_source":""},{"t":31.083,"note":64,"dur":0.465,"vel":0.638,"inst":"guitar_v0_bass_381","midi_source":""},{"t":31.083,"note":76,"dur":0.465,"vel":0.638,"inst":"guitar_v0_bass_381","midi_source":""},{"t":31.547,"note":40,"dur":0.465,"vel":0.638,"inst":"guitar_v0_bass_381","midi_source":""},{"t":31.547,"note":44,"dur":0.465,"vel":0.638,"inst":"guitar_v0_bass_381","midi_source":""},{"t":31.547,"note":40,"dur":0.465,"vel":0.638,"inst":"guitar_v0_bass_381","midi_source":""},{"t":31.547,"note":59,"dur":0.465,"vel":0.638,"inst":"bass_v0_struck_273","midi_source":""},{"t":31.547,"note":71,"dur":0.465,"vel":0.638,"inst":"bass_v0_struck_273","midi_source":""},{"t":32.012,"note":40,"dur":0.465,"vel":0.638,"inst":"guitar_v0_bass_381","midi_source":""},{"t":32.012,"note":44,"dur":0.465,"vel":0.638,"inst":"guitar_v0_bass_381","midi_source":""},{"t":32.012,"note":40,"dur":0.465,"vel":0.638,"inst":"guitar_v0_bass_381","midi_source":""},{"t":32.012,"note":61,"dur":0.465,"vel":0.638,"inst":"bass_v0_struck_273","midi_source":""},{"t":32.012,"note":73,"dur":0.465,"vel":0.638,"inst":"bass_v0_struck_273","midi_source":""},{"t":32.476,"note":24,"dur":0.465,"vel":0.638,"inst":"guitar_v0_bass_381","midi_source":""},{"t":32.476,"note":35,"dur":0.465,"vel":0.638,"inst":"bass_v0_struck_273","midi_source":""},{"t":32.476,"note":61,"dur":0.465,"vel":0.638,"inst":"bass_v0_struck_273","midi_source":""},{"t":32.476,"note":73,"dur":0.465,"vel":0.638,"inst":"bass_v0_struck_273","midi_source":""},{"t":32.941,"note":40,"dur":0.465,"vel":0.638,"inst":"guitar_v0_bass_381","midi_source":""},{"t":32.941,"note":47,"dur":0.465,"vel":0.638,"inst":"bass_v0_struck_273","midi_source":""},{"t":32.941,"note":49,"dur":0.465,"vel":0.638,"inst":"bass_v0_struck_273","midi_source":""},{"t":32.941,"note":64,"dur":0.232,"vel":0.638,"inst":"guitar_v0_bass_381","midi_source":""},{"t":33.173,"note":61,"dur":0.232,"vel":0.638,"inst":"bass_v0_struck_273","midi_source":""},{"t":33.406,"note":40,"dur":0.465,"vel":0.638,"inst":"guitar_v0_bass_381","midi_source":""},{"t":33.406,"note":47,"dur":0.465,"vel":0.638,"inst":"bass_v0_struck_273","midi_source":""},{"t":33.406,"note":49,"dur":0.465,"vel":0.638,"inst":"bass_v0_struck_273","midi_source":""},{"t":33.406,"note":61,"dur":0.232,"vel":0.638,"inst":"bass_v0_struck_273","midi_source":""},{"t":33.638,"note":56,"dur":0.232,"vel":0.638,"inst":"guitar_v0_bass_381","midi_source":""},{"t":33.87,"note":25,"dur":0.465,"vel":0.638,"inst":"bass_v0_struck_273","midi_source":""},{"t":33.87,"note":37,"dur":0.465,"vel":0.638,"inst":"bass_v0_struck_273","midi_source":""},{"t":33.87,"note":59,"dur":0.929,"vel":0.638,"inst":"bass_v0_struck_273","midi_source":""},{"t":34.335,"note":40,"dur":0.465,"vel":0.638,"inst":"guitar_v0_bass_381","midi_source":""},{"t":34.335,"note":47,"dur":0.465,"vel":0.638,"inst":"bass_v0_struck_273","midi_source":""},{"t":34.335,"note":49,"dur":0.465,"vel":0.638,"inst":"bass_v0_struck_273","midi_source":""},{"t":34.8,"note":40,"dur":0.465,"vel":0.638,"inst":"guitar_v0_bass_381","midi_source":""},{"t":34.8,"note":47,"dur":0.465,"vel":0.638,"inst":"bass_v0_struck_273","midi_source":""},{"t":34.8,"note":49,"dur":0.465,"vel":0.638,"inst":"bass_v0_struck_273","midi_source":""},{"t":34.8,"note":52,"dur":0.465,"vel":0.638,"inst":"guitar_v0_bass_381","midi_source":""},{"t":35.264,"note":24,"dur":0.465,"vel":0.638,"inst":"guitar_v0_bass_381","midi_source":""},{"t":35.264,"note":28,"dur":0.465,"vel":0.638,"inst":"guitar_v0_bass_381","midi_source":""},{"t":35.264,"note":54,"dur":0.232,"vel":0.638,"inst":"guitar_v0_bass_381","midi_source":""},{"t":35.497,"note":59,"dur":0.232,"vel":0.638,"inst":"bass_v0_struck_273","midi_source":""},{"t":35.729,"note":42,"dur":0.465,"vel":0.638,"inst":"guitar_v0_bass_381","midi_source":""},{"t":35.729,"note":47,"dur":0.465,"vel":0.638,"inst":"bass_v0_struck_273","midi_source":""},{"t":35.729,"note":40,"dur":0.465,"vel":0.638,"inst":"guitar_v0_bass_381","midi_source":""},{"t":35.729,"note":59,"dur":0.232,"vel":0.638,"inst":"bass_v0_struck_273","midi_source":""},{"t":35.961,"note":59,"dur":0.232,"vel":0.638,"inst":"bass_v0_struck_273","midi_source":""},{"t":36.194,"note":42,"dur":0.465,"vel":0.638,"inst":"guitar_v0_bass_381","midi_source":""},{"t":36.194,"note":47,"dur":0.465,"vel":0.638,"inst":"bass_v0_struck_273","midi_source":""},{"t":36.194,"note":40,"dur":0.465,"vel":0.638,"inst":"guitar_v0_bass_381","midi_source":""},{"t":36.194,"note":59,"dur":0.232,"vel":0.638,"inst":"bass_v0_struck_273","midi_source":""},{"t":36.426,"note":54,"dur":0.232,"vel":0.638,"inst":"guitar_v0_bass_381","midi_source":""},{"t":36.658,"note":25,"dur":0.465,"vel":0.638,"inst":"bass_v0_struck_273","midi_source":""},{"t":36.658,"note":37,"dur":0.465,"vel":0.638,"inst":"bass_v0_struck_273","midi_source":""},{"t":36.658,"note":52,"dur":0.929,"vel":0.638,"inst":"guitar_v0_bass_381","midi_source":""},{"t":37.123,"note":40,"dur":0.465,"vel":0.638,"inst":"guitar_v0_bass_381","midi_source":""},{"t":37.123,"note":47,"dur":0.465,"vel":0.638,"inst":"bass_v0_struck_273","midi_source":""},{"t":37.123,"note":49,"dur":0.465,"vel":0.638,"inst":"bass_v0_struck_273","midi_source":""},{"t":37.588,"note":35,"dur":0.232,"vel":0.638,"inst":"bass_v0_struck_273","midi_source":""},{"t":37.588,"note":54,"dur":0.929,"vel":0.638,"inst":"guitar_v0_bass_381","midi_source":""},{"t":37.82,"note":42,"dur":0.232,"vel":0.638,"inst":"guitar_v0_bass_381","midi_source":""},{"t":38.052,"note":47,"dur":0.232,"vel":0.638,"inst":"bass_v0_struck_273","midi_source":""},{"t":38.285,"note":49,"dur":0.232,"vel":0.638,"inst":"bass_v0_struck_273","midi_source":""},{"t":38.517,"note":49,"dur":0.465,"vel":0.638,"inst":"bass_v0_struck_273","midi_source":""},{"t":38.517,"note":52,"dur":0.465,"vel":0.638,"inst":"guitar_v0_bass_381","midi_source":""},{"t":38.981,"note":28,"dur":0.465,"vel":0.638,"inst":"guitar_v0_bass_381","midi_source":""},{"t":38.981,"note":66,"dur":0.465,"vel":0.638,"inst":"guitar_v0_bass_381","midi_source":""},{"t":38.981,"note":64,"dur":0.465,"vel":0.638,"inst":"guitar_v0_bass_381","midi_source":""},{"t":38.981,"note":78,"dur":0.465,"vel":0.638,"inst":"guitar_v0_bass_381","midi_source":""},{"t":39.446,"note":40,"dur":0.465,"vel":0.638,"inst":"guitar_v0_bass_381","midi_source":""},{"t":39.446,"note":44,"dur":0.465,"vel":0.638,"inst":"guitar_v0_bass_381","midi_source":""},{"t":39.446,"note":40,"dur":0.465,"vel":0.638,"inst":"guitar_v0_bass_381","midi_source":""},{"t":39.446,"note":66,"dur":0.697,"vel":0.638,"inst":"guitar_v0_bass_381","midi_source":""},{"t":39.446,"note":64,"dur":0.697,"vel":0.638,"inst":"guitar_v0_bass_381","midi_source":""},{"t":39.446,"note":78,"dur":0.697,"vel":0.638,"inst":"guitar_v0_bass_381","midi_source":""},{"t":39.911,"note":40,"dur":0.465,"vel":0.638,"inst":"guitar_v0_bass_381","midi_source":""},{"t":39.911,"note":44,"dur":0.465,"vel":0.638,"inst":"guitar_v0_bass_381","midi_source":""},{"t":39.911,"note":40,"dur":0.465,"vel":0.638,"inst":"guitar_v0_bass_381","midi_source":""},{"t":40.143,"note":66,"dur":0.232,"vel":0.638,"inst":"guitar_v0_bass_381","midi_source":""},{"t":40.143,"note":64,"dur":0.232,"vel":0.638,"inst":"guitar_v0_bass_381","midi_source":""},{"t":40.143,"note":78,"dur":0.232,"vel":0.638,"inst":"guitar_v0_bass_381","midi_source":""},{"t":40.375,"note":28,"dur":0.465,"vel":0.638,"inst":"guitar_v0_bass_381","midi_source":""},{"t":40.375,"note":64,"dur":0.465,"vel":0.638,"inst":"guitar_v0_bass_381","midi_source":""},{"t":40.375,"note":64,"dur":0.465,"vel":0.638,"inst":"guitar_v0_bass_381","midi_source":""},{"t":40.375,"note":76,"dur":0.465,"vel":0.638,"inst":"guitar_v0_bass_381","midi_source":""},{"t":40.84,"note":40,"dur":0.465,"vel":0.638,"inst":"guitar_v0_bass_381","midi_source":""},{"t":40.84,"note":44,"dur":0.465,"vel":0.638,"inst":"guitar_v0_bass_381","midi_source":""},{"t":40.84,"note":40,"dur":0.465,"vel":0.638,"inst":"guitar_v0_bass_381","midi_source":""},{"t":40.84,"note":59,"dur":0.465,"vel":0.638,"inst":"bass_v0_struck_273","midi_source":""},{"t":40.84,"note":71,"dur":0.465,"vel":0.638,"inst":"bass_v0_struck_273","midi_source":""},{"t":41.305,"note":40,"dur":0.465,"vel":0.638,"inst":"guitar_v0_bass_381","midi_source":""},{"t":41.305,"note":44,"dur":0.465,"vel":0.638,"inst":"guitar_v0_bass_381","midi_source":""},{"t":41.305,"note":40,"dur":0.465,"vel":0.638,"inst":"guitar_v0_bass_381","midi_source":""},{"t":41.305,"note":61,"dur":0.465,"vel":0.638,"inst":"bass_v0_struck_273","midi_source":""},{"t":41.305,"note":73,"dur":0.465,"vel":0.638,"inst":"bass_v0_struck_273","midi_source":""},{"t":41.769,"note":24,"dur":0.465,"vel":0.638,"inst":"guitar_v0_bass_381","midi_source":""},{"t":41.769,"note":35,"dur":0.465,"vel":0.638,"inst":"bass_v0_struck_273","midi_source":""},{"t":41.769,"note":61,"dur":0.465,"vel":0.638,"inst":"bass_v0_struck_273","midi_source":""},{"t":41.769,"note":73,"dur":0.465,"vel":0.638,"inst":"bass_v0_struck_273","midi_source":""},{"t":42.234,"note":40,"dur":0.465,"vel":0.638,"inst":"guitar_v0_bass_381","midi_source":""},{"t":42.234,"note":47,"dur":0.465,"vel":0.638,"inst":"bass_v0_struck_273","midi_source":""},{"t":42.234,"note":49,"dur":0.465,"vel":0.638,"inst":"bass_v0_struck_273","midi_source":""},{"t":42.234,"note":64,"dur":0.232,"vel":0.638,"inst":"guitar_v0_bass_381","midi_source":""},{"t":42.466,"note":61,"dur":0.232,"vel":0.638,"inst":"bass_v0_struck_273","midi_source":""},{"t":42.699,"note":40,"dur":0.465,"vel":0.638,"inst":"guitar_v0_bass_381","midi_source":""},{"t":42.699,"note":47,"dur":0.465,"vel":0.638,"inst":"bass_v0_struck_273","midi_source":""},{"t":42.699,"note":49,"dur":0.465,"vel":0.638,"inst":"bass_v0_struck_273","midi_source":""},{"t":42.699,"note":61,"dur":0.232,"vel":0.638,"inst":"bass_v0_struck_273","midi_source":""},{"t":42.931,"note":56,"dur":0.232,"vel":0.638,"inst":"guitar_v0_bass_381","midi_source":""},{"t":43.163,"note":25,"dur":0.465,"vel":0.638,"inst":"bass_v0_struck_273","midi_source":""},{"t":43.163,"note":37,"dur":0.465,"vel":0.638,"inst":"bass_v0_struck_273","midi_source":""},{"t":43.163,"note":59,"dur":0.929,"vel":0.638,"inst":"bass_v0_struck_273","midi_source":""},{"t":43.628,"note":40,"dur":0.465,"vel":0.638,"inst":"guitar_v0_bass_381","midi_source":""},{"t":43.628,"note":47,"dur":0.465,"vel":0.638,"inst":"bass_v0_struck_273","midi_source":""},{"t":43.628,"note":49,"dur":0.465,"vel":0.638,"inst":"bass_v0_struck_273","midi_source":""},{"t":44.093,"note":40,"dur":0.465,"vel":0.638,"inst":"guitar_v0_bass_381","midi_source":""},{"t":44.093,"note":47,"dur":0.465,"vel":0.638,"inst":"bass_v0_struck_273","midi_source":""},{"t":44.093,"note":49,"dur":0.465,"vel":0.638,"inst":"bass_v0_struck_273","midi_source":""},{"t":44.093,"note":52,"dur":0.465,"vel":0.638,"inst":"guitar_v0_bass_381","midi_source":""},{"t":44.557,"note":24,"dur":0.465,"vel":0.638,"inst":"guitar_v0_bass_381","midi_source":""},{"t":44.557,"note":28,"dur":0.465,"vel":0.638,"inst":"guitar_v0_bass_381","midi_source":""},{"t":44.557,"note":54,"dur":0.232,"vel":0.638,"inst":"guitar_v0_bass_381","midi_source":""},{"t":44.79,"note":59,"dur":0.232,"vel":0.638,"inst":"bass_v0_struck_273","midi_source":""},{"t":45.022,"note":42,"dur":0.465,"vel":0.638,"inst":"guitar_v0_bass_381","midi_source":""},{"t":45.022,"note":47,"dur":0.465,"vel":0.638,"inst":"bass_v0_struck_273","midi_source":""},{"t":45.022,"note":40,"dur":0.465,"vel":0.638,"inst":"guitar_v0_bass_381","midi_source":""},{"t":45.022,"note":59,"dur":0.232,"vel":0.638,"inst":"bass_v0_struck_273","midi_source":""},{"t":45.254,"note":59,"dur":0.232,"vel":0.638,"inst":"bass_v0_struck_273","midi_source":""},{"t":45.486,"note":42,"dur":0.465,"vel":0.638,"inst":"guitar_v0_bass_381","midi_source":""},{"t":45.486,"note":47,"dur":0.465,"vel":0.638,"inst":"bass_v0_struck_273","midi_source":""},{"t":45.486,"note":40,"dur":0.465,"vel":0.638,"inst":"guitar_v0_bass_381","midi_source":""},{"t":45.486,"note":59,"dur":0.232,"vel":0.638,"inst":"bass_v0_struck_273","midi_source":""},{"t":45.719,"note":54,"dur":0.232,"vel":0.638,"inst":"guitar_v0_bass_381","midi_source":""},{"t":45.951,"note":25,"dur":0.465,"vel":0.638,"inst":"bass_v0_struck_273","midi_source":""},{"t":45.951,"note":37,"dur":0.465,"vel":0.638,"inst":"bass_v0_struck_273","midi_source":""},{"t":45.951,"note":52,"dur":0.929,"vel":0.638,"inst":"guitar_v0_bass_381","midi_source":""},{"t":46.416,"note":40,"dur":0.465,"vel":0.638,"inst":"guitar_v0_bass_381","midi_source":""},{"t":46.416,"note":47,"dur":0.465,"vel":0.638,"inst":"bass_v0_struck_273","midi_source":""},{"t":46.416,"note":49,"dur":0.465,"vel":0.638,"inst":"bass_v0_struck_273","midi_source":""},{"t":46.88,"note":35,"dur":0.232,"vel":0.638,"inst":"bass_v0_struck_273","midi_source":""},{"t":46.88,"note":54,"dur":0.929,"vel":0.638,"inst":"guitar_v0_bass_381","midi_source":""},{"t":47.113,"note":42,"dur":0.232,"vel":0.638,"inst":"guitar_v0_bass_381","midi_source":""},{"t":47.345,"note":47,"dur":0.232,"vel":0.638,"inst":"bass_v0_struck_273","midi_source":""},{"t":47.577,"note":49,"dur":0.232,"vel":0.638,"inst":"bass_v0_struck_273","midi_source":""},{"t":47.81,"note":49,"dur":0.465,"vel":0.638,"inst":"bass_v0_struck_273","midi_source":""},{"t":47.81,"note":52,"dur":0.465,"vel":0.638,"inst":"guitar_v0_bass_381","midi_source":""},{"t":48.274,"note":28,"dur":0.465,"vel":0.638,"inst":"guitar_v0_bass_381","midi_source":""},{"t":48.274,"note":66,"dur":0.465,"vel":0.638,"inst":"guitar_v0_bass_381","midi_source":""},{"t":48.274,"note":64,"dur":0.465,"vel":0.638,"inst":"guitar_v0_bass_381","midi_source":""},{"t":48.274,"note":78,"dur":0.465,"vel":0.638,"inst":"guitar_v0_bass_381","midi_source":""},{"t":48.739,"note":40,"dur":0.465,"vel":0.638,"inst":"guitar_v0_bass_381","midi_source":""},{"t":48.739,"note":44,"dur":0.465,"vel":0.638,"inst":"guitar_v0_bass_381","midi_source":""},{"t":48.739,"note":40,"dur":0.465,"vel":0.638,"inst":"guitar_v0_bass_381","midi_source":""},{"t":48.739,"note":66,"dur":0.697,"vel":0.638,"inst":"guitar_v0_bass_381","midi_source":""},{"t":48.739,"note":64,"dur":0.697,"vel":0.638,"inst":"guitar_v0_bass_381","midi_source":""},{"t":48.739,"note":78,"dur":0.697,"vel":0.638,"inst":"guitar_v0_bass_381","midi_source":""},{"t":49.204,"note":40,"dur":0.465,"vel":0.638,"inst":"guitar_v0_bass_381","midi_source":""},{"t":49.204,"note":44,"dur":0.465,"vel":0.638,"inst":"guitar_v0_bass_381","midi_source":""},{"t":49.204,"note":40,"dur":0.465,"vel":0.638,"inst":"guitar_v0_bass_381","midi_source":""},{"t":49.436,"note":66,"dur":0.232,"vel":0.638,"inst":"guitar_v0_bass_381","midi_source":""},{"t":49.436,"note":64,"dur":0.232,"vel":0.638,"inst":"guitar_v0_bass_381","midi_source":""},{"t":49.436,"note":78,"dur":0.232,"vel":0.638,"inst":"guitar_v0_bass_381","midi_source":""},{"t":49.668,"note":28,"dur":0.465,"vel":0.638,"inst":"guitar_v0_bass_381","midi_source":""},{"t":49.668,"note":64,"dur":0.465,"vel":0.638,"inst":"guitar_v0_bass_381","midi_source":""},{"t":49.668,"note":64,"dur":0.465,"vel":0.638,"inst":"guitar_v0_bass_381","midi_source":""},{"t":49.668,"note":76,"dur":0.465,"vel":0.638,"inst":"guitar_v0_bass_381","midi_source":""},{"t":50.133,"note":40,"dur":0.465,"vel":0.638,"inst":"guitar_v0_bass_381","midi_source":""},{"t":50.133,"note":44,"dur":0.465,"vel":0.638,"inst":"guitar_v0_bass_381","midi_source":""},{"t":50.133,"note":40,"dur":0.465,"vel":0.638,"inst":"guitar_v0_bass_381","midi_source":""},{"t":50.133,"note":59,"dur":0.465,"vel":0.638,"inst":"bass_v0_struck_273","midi_source":""},{"t":50.133,"note":71,"dur":0.465,"vel":0.638,"inst":"bass_v0_struck_273","midi_source":""},{"t":50.598,"note":40,"dur":0.465,"vel":0.638,"inst":"guitar_v0_bass_381","midi_source":""},{"t":50.598,"note":44,"dur":0.465,"vel":0.638,"inst":"guitar_v0_bass_381","midi_source":""},{"t":50.598,"note":40,"dur":0.465,"vel":0.638,"inst":"guitar_v0_bass_381","midi_source":""},{"t":50.598,"note":61,"dur":0.465,"vel":0.638,"inst":"bass_v0_struck_273","midi_source":""},{"t":50.598,"note":73,"dur":0.465,"vel":0.638,"inst":"bass_v0_struck_273","midi_source":""},{"t":51.062,"note":24,"dur":0.465,"vel":0.638,"inst":"guitar_v0_bass_381","midi_source":""},{"t":51.062,"note":35,"dur":0.465,"vel":0.638,"inst":"bass_v0_struck_273","midi_source":""},{"t":51.062,"note":61,"dur":0.465,"vel":0.638,"inst":"bass_v0_struck_273","midi_source":""},{"t":51.062,"note":73,"dur":0.465,"vel":0.638,"inst":"bass_v0_struck_273","midi_source":""},{"t":51.527,"note":40,"dur":0.465,"vel":0.638,"inst":"guitar_v0_bass_381","midi_source":""},{"t":51.527,"note":47,"dur":0.465,"vel":0.638,"inst":"bass_v0_struck_273","midi_source":""},{"t":51.527,"note":49,"dur":0.465,"vel":0.638,"inst":"bass_v0_struck_273","midi_source":""},{"t":51.527,"note":64,"dur":0.232,"vel":0.638,"inst":"guitar_v0_bass_381","midi_source":""},{"t":51.759,"note":61,"dur":0.232,"vel":0.638,"inst":"bass_v0_struck_273","midi_source":""},{"t":51.991,"note":40,"dur":0.465,"vel":0.638,"inst":"guitar_v0_bass_381","midi_source":""},{"t":51.991,"note":47,"dur":0.465,"vel":0.638,"inst":"bass_v0_struck_273","midi_source":""},{"t":51.991,"note":49,"dur":0.465,"vel":0.638,"inst":"bass_v0_struck_273","midi_source":""},{"t":51.991,"note":61,"dur":0.232,"vel":0.638,"inst":"bass_v0_struck_273","midi_source":""},{"t":52.224,"note":56,"dur":0.232,"vel":0.638,"inst":"guitar_v0_bass_381","midi_source":""},{"t":52.456,"note":25,"dur":0.465,"vel":0.638,"inst":"bass_v0_struck_273","midi_source":""},{"t":52.456,"note":37,"dur":0.465,"vel":0.638,"inst":"bass_v0_struck_273","midi_source":""},{"t":52.456,"note":59,"dur":0.929,"vel":0.638,"inst":"bass_v0_struck_273","midi_source":""},{"t":52.921,"note":40,"dur":0.465,"vel":0.638,"inst":"guitar_v0_bass_381","midi_source":""},{"t":52.921,"note":47,"dur":0.465,"vel":0.638,"inst":"bass_v0_struck_273","midi_source":""},{"t":52.921,"note":49,"dur":0.465,"vel":0.638,"inst":"bass_v0_struck_273","midi_source":""},{"t":53.385,"note":40,"dur":0.465,"vel":0.638,"inst":"guitar_v0_bass_381","midi_source":""},{"t":53.385,"note":47,"dur":0.465,"vel":0.638,"inst":"bass_v0_struck_273","midi_source":""},{"t":53.385,"note":49,"dur":0.465,"vel":0.638,"inst":"bass_v0_struck_273","midi_source":""},{"t":53.385,"note":52,"dur":0.465,"vel":0.638,"inst":"guitar_v0_bass_381","midi_source":""},{"t":53.85,"note":24,"dur":0.465,"vel":0.638,"inst":"guitar_v0_bass_381","midi_source":""},{"t":53.85,"note":28,"dur":0.465,"vel":0.638,"inst":"guitar_v0_bass_381","midi_source":""},{"t":53.85,"note":54,"dur":0.232,"vel":0.638,"inst":"guitar_v0_bass_381","midi_source":""},{"t":54.082,"note":59,"dur":0.232,"vel":0.638,"inst":"bass_v0_struck_273","midi_source":""},{"t":54.315,"note":42,"dur":0.465,"vel":0.638,"inst":"guitar_v0_bass_381","midi_source":""},{"t":54.315,"note":47,"dur":0.465,"vel":0.638,"inst":"bass_v0_struck_273","midi_source":""},{"t":54.315,"note":40,"dur":0.465,"vel":0.638,"inst":"guitar_v0_bass_381","midi_source":""},{"t":54.315,"note":59,"dur":0.232,"vel":0.638,"inst":"bass_v0_struck_273","midi_source":""},{"t":54.547,"note":59,"dur":0.232,"vel":0.638,"inst":"bass_v0_struck_273","midi_source":""},{"t":54.779,"note":42,"dur":0.465,"vel":0.638,"inst":"guitar_v0_bass_381","midi_source":""},{"t":54.779,"note":47,"dur":0.465,"vel":0.638,"inst":"bass_v0_struck_273","midi_source":""},{"t":54.779,"note":40,"dur":0.465,"vel":0.638,"inst":"guitar_v0_bass_381","midi_source":""},{"t":54.779,"note":59,"dur":0.232,"vel":0.638,"inst":"bass_v0_struck_273","midi_source":""},{"t":55.012,"note":54,"dur":0.232,"vel":0.638,"inst":"guitar_v0_bass_381","midi_source":""},{"t":55.244,"note":25,"dur":0.465,"vel":0.638,"inst":"bass_v0_struck_273","midi_source":""},{"t":55.244,"note":37,"dur":0.465,"vel":0.638,"inst":"bass_v0_struck_273","midi_source":""},{"t":55.244,"note":52,"dur":0.929,"vel":0.638,"inst":"guitar_v0_bass_381","midi_source":""},{"t":55.709,"note":40,"dur":0.465,"vel":0.638,"inst":"guitar_v0_bass_381","midi_source":""},{"t":55.709,"note":47,"dur":0.465,"vel":0.638,"inst":"bass_v0_struck_273","midi_source":""},{"t":55.709,"note":49,"dur":0.465,"vel":0.638,"inst":"bass_v0_struck_273","midi_source":""},{"t":56.173,"note":35,"dur":0.232,"vel":0.638,"inst":"bass_v0_struck_273","midi_source":""},{"t":56.173,"note":54,"dur":0.929,"vel":0.638,"inst":"guitar_v0_bass_381","midi_source":""},{"t":56.406,"note":42,"dur":0.232,"vel":0.638,"inst":"guitar_v0_bass_381","midi_source":""},{"t":56.638,"note":47,"dur":0.232,"vel":0.638,"inst":"bass_v0_struck_273","midi_source":""},{"t":56.87,"note":49,"dur":0.232,"vel":0.638,"inst":"bass_v0_struck_273","midi_source":""},{"t":57.103,"note":49,"dur":0.465,"vel":0.638,"inst":"bass_v0_struck_273","midi_source":""},{"t":57.103,"note":52,"dur":0.465,"vel":0.638,"inst":"guitar_v0_bass_381","midi_source":""},{"t":57.567,"note":28,"dur":0.465,"vel":0.638,"inst":"guitar_v0_bass_381","midi_source":""},{"t":57.567,"note":66,"dur":0.465,"vel":0.638,"inst":"guitar_v0_bass_381","midi_source":""},{"t":57.567,"note":64,"dur":0.465,"vel":0.638,"inst":"guitar_v0_bass_381","midi_source":""},{"t":57.567,"note":78,"dur":0.465,"vel":0.638,"inst":"guitar_v0_bass_381","midi_source":""},{"t":58.032,"note":40,"dur":0.465,"vel":0.638,"inst":"guitar_v0_bass_381","midi_source":""},{"t":58.032,"note":44,"dur":0.465,"vel":0.638,"inst":"guitar_v0_bass_381","midi_source":""},{"t":58.032,"note":40,"dur":0.465,"vel":0.638,"inst":"guitar_v0_bass_381","midi_source":""},{"t":58.032,"note":66,"dur":0.697,"vel":0.638,"inst":"guitar_v0_bass_381","midi_source":""},{"t":58.032,"note":64,"dur":0.697,"vel":0.638,"inst":"guitar_v0_bass_381","midi_source":""},{"t":58.032,"note":78,"dur":0.697,"vel":0.638,"inst":"guitar_v0_bass_381","midi_source":""},{"t":58.497,"note":40,"dur":0.465,"vel":0.638,"inst":"guitar_v0_bass_381","midi_source":""},{"t":58.497,"note":44,"dur":0.465,"vel":0.638,"inst":"guitar_v0_bass_381","midi_source":""},{"t":58.497,"note":40,"dur":0.465,"vel":0.638,"inst":"guitar_v0_bass_381","midi_source":""},{"t":58.729,"note":66,"dur":0.232,"vel":0.638,"inst":"guitar_v0_bass_381","midi_source":""},{"t":58.729,"note":64,"dur":0.232,"vel":0.638,"inst":"guitar_v0_bass_381","midi_source":""},{"t":58.729,"note":78,"dur":0.232,"vel":0.638,"inst":"guitar_v0_bass_381","midi_source":""},{"t":58.961,"note":28,"dur":0.465,"vel":0.638,"inst":"guitar_v0_bass_381","midi_source":""},{"t":58.961,"note":64,"dur":0.465,"vel":0.638,"inst":"guitar_v0_bass_381","midi_source":""},{"t":58.961,"note":64,"dur":0.465,"vel":0.638,"inst":"guitar_v0_bass_381","midi_source":""},{"t":58.961,"note":76,"dur":0.465,"vel":0.638,"inst":"guitar_v0_bass_381","midi_source":""},{"t":59.426,"note":40,"dur":0.465,"vel":0.638,"inst":"guitar_v0_bass_381","midi_source":""},{"t":59.426,"note":44,"dur":0.465,"vel":0.638,"inst":"guitar_v0_bass_381","midi_source":""},{"t":59.426,"note":40,"dur":0.465,"vel":0.638,"inst":"guitar_v0_bass_381","midi_source":""},{"t":59.426,"note":59,"dur":0.465,"vel":0.638,"inst":"bass_v0_struck_273","midi_source":""},{"t":59.426,"note":71,"dur":0.465,"vel":0.638,"inst":"bass_v0_struck_273","midi_source":""},{"t":59.89,"note":40,"dur":0.465,"vel":0.638,"inst":"guitar_v0_bass_381","midi_source":""},{"t":59.89,"note":44,"dur":0.465,"vel":0.638,"inst":"guitar_v0_bass_381","midi_source":""},{"t":59.89,"note":40,"dur":0.465,"vel":0.638,"inst":"guitar_v0_bass_381","midi_source":""},{"t":59.89,"note":61,"dur":0.465,"vel":0.638,"inst":"bass_v0_struck_273","midi_source":""},{"t":59.89,"note":73,"dur":0.465,"vel":0.638,"inst":"bass_v0_struck_273","midi_source":""},{"t":60.355,"note":24,"dur":0.465,"vel":0.638,"inst":"guitar_v0_bass_381","midi_source":""},{"t":60.355,"note":35,"dur":0.465,"vel":0.638,"inst":"bass_v0_struck_273","midi_source":""},{"t":60.355,"note":61,"dur":0.465,"vel":0.638,"inst":"bass_v0_struck_273","midi_source":""},{"t":60.355,"note":73,"dur":0.465,"vel":0.638,"inst":"bass_v0_struck_273","midi_source":""},{"t":60.82,"note":40,"dur":0.465,"vel":0.638,"inst":"guitar_v0_bass_381","midi_source":""},{"t":60.82,"note":47,"dur":0.465,"vel":0.638,"inst":"bass_v0_struck_273","midi_source":""},{"t":60.82,"note":49,"dur":0.465,"vel":0.638,"inst":"bass_v0_struck_273","midi_source":""},{"t":60.82,"note":64,"dur":0.232,"vel":0.638,"inst":"guitar_v0_bass_381","midi_source":""},{"t":61.052,"note":61,"dur":0.232,"vel":0.638,"inst":"bass_v0_struck_273","midi_source":""},{"t":61.284,"note":40,"dur":0.465,"vel":0.638,"inst":"guitar_v0_bass_381","midi_source":""},{"t":61.284,"note":47,"dur":0.465,"vel":0.638,"inst":"bass_v0_struck_273","midi_source":""},{"t":61.284,"note":49,"dur":0.465,"vel":0.638,"inst":"bass_v0_struck_273","midi_source":""},{"t":61.284,"note":61,"dur":0.232,"vel":0.638,"inst":"bass_v0_struck_273","midi_source":""},{"t":61.517,"note":56,"dur":0.232,"vel":0.638,"inst":"guitar_v0_bass_381","midi_source":""},{"t":61.749,"note":25,"dur":0.465,"vel":0.638,"inst":"bass_v0_struck_273","midi_source":""},{"t":61.749,"note":37,"dur":0.465,"vel":0.638,"inst":"bass_v0_struck_273","midi_source":""},{"t":61.749,"note":59,"dur":0.929,"vel":0.638,"inst":"bass_v0_struck_273","midi_source":""},{"t":62.214,"note":40,"dur":0.465,"vel":0.638,"inst":"guitar_v0_bass_381","midi_source":""},{"t":62.214,"note":47,"dur":0.465,"vel":0.638,"inst":"bass_v0_struck_273","midi_source":""},{"t":62.214,"note":49,"dur":0.465,"vel":0.638,"inst":"bass_v0_struck_273","midi_source":""},{"t":62.678,"note":40,"dur":0.465,"vel":0.638,"inst":"guitar_v0_bass_381","midi_source":""},{"t":62.678,"note":47,"dur":0.465,"vel":0.638,"inst":"bass_v0_struck_273","midi_source":""},{"t":62.678,"note":49,"dur":0.465,"vel":0.638,"inst":"bass_v0_struck_273","midi_source":""},{"t":62.678,"note":52,"dur":0.465,"vel":0.638,"inst":"guitar_v0_bass_381","midi_source":""},{"t":63.143,"note":24,"dur":0.465,"vel":0.638,"inst":"guitar_v0_bass_381","midi_source":""},{"t":63.143,"note":28,"dur":0.465,"vel":0.638,"inst":"guitar_v0_bass_381","midi_source":""},{"t":63.143,"note":54,"dur":0.232,"vel":0.638,"inst":"guitar_v0_bass_381","midi_source":""},{"t":63.375,"note":59,"dur":0.232,"vel":0.638,"inst":"bass_v0_struck_273","midi_source":""},{"t":63.608,"note":42,"dur":0.465,"vel":0.638,"inst":"guitar_v0_bass_381","midi_source":""},{"t":63.608,"note":47,"dur":0.465,"vel":0.638,"inst":"bass_v0_struck_273","midi_source":""},{"t":63.608,"note":40,"dur":0.465,"vel":0.638,"inst":"guitar_v0_bass_381","midi_source":""},{"t":63.608,"note":59,"dur":0.232,"vel":0.638,"inst":"bass_v0_struck_273","midi_source":""},{"t":63.84,"note":59,"dur":0.232,"vel":0.638,"inst":"bass_v0_struck_273","midi_source":""},{"t":64.072,"note":42,"dur":0.465,"vel":0.638,"inst":"guitar_v0_bass_381","midi_source":""},{"t":64.072,"note":47,"dur":0.465,"vel":0.638,"inst":"bass_v0_struck_273","midi_source":""},{"t":64.072,"note":40,"dur":0.465,"vel":0.638,"inst":"guitar_v0_bass_381","midi_source":""},{"t":64.072,"note":59,"dur":0.232,"vel":0.638,"inst":"bass_v0_struck_273","midi_source":""},{"t":64.305,"note":54,"dur":0.232,"vel":0.638,"inst":"guitar_v0_bass_381","midi_source":""},{"t":64.537,"note":25,"dur":0.465,"vel":0.638,"inst":"bass_v0_struck_273","midi_source":""},{"t":64.537,"note":37,"dur":0.465,"vel":0.638,"inst":"bass_v0_struck_273","midi_source":""},{"t":64.537,"note":52,"dur":0.929,"vel":0.638,"inst":"guitar_v0_bass_381","midi_source":""},{"t":65.002,"note":40,"dur":0.465,"vel":0.638,"inst":"guitar_v0_bass_381","midi_source":""},{"t":65.002,"note":47,"dur":0.465,"vel":0.638,"inst":"bass_v0_struck_273","midi_source":""},{"t":65.002,"note":49,"dur":0.465,"vel":0.638,"inst":"bass_v0_struck_273","midi_source":""},{"t":65.466,"note":35,"dur":0.232,"vel":0.638,"inst":"bass_v0_struck_273","midi_source":""},{"t":65.466,"note":54,"dur":0.929,"vel":0.638,"inst":"guitar_v0_bass_381","midi_source":""},{"t":65.698,"note":42,"dur":0.232,"vel":0.638,"inst":"guitar_v0_bass_381","midi_source":""},{"t":65.931,"note":47,"dur":0.232,"vel":0.638,"inst":"bass_v0_struck_273","midi_source":""},{"t":66.163,"note":49,"dur":0.232,"vel":0.638,"inst":"bass_v0_struck_273","midi_source":""},{"t":66.395,"note":49,"dur":0.465,"vel":0.638,"inst":"bass_v0_struck_273","midi_source":""},{"t":66.395,"note":52,"dur":0.465,"vel":0.638,"inst":"guitar_v0_bass_381","midi_source":""},{"t":66.86,"note":28,"dur":0.465,"vel":0.638,"inst":"guitar_v0_bass_381","midi_source":""},{"t":66.86,"note":66,"dur":0.465,"vel":0.638,"inst":"guitar_v0_bass_381","midi_source":""},{"t":66.86,"note":64,"dur":0.465,"vel":0.638,"inst":"guitar_v0_bass_381","midi_source":""},{"t":66.86,"note":78,"dur":0.465,"vel":0.638,"inst":"guitar_v0_bass_381","midi_source":""},{"t":67.325,"note":40,"dur":0.465,"vel":0.638,"inst":"guitar_v0_bass_381","midi_source":""},{"t":67.325,"note":44,"dur":0.465,"vel":0.638,"inst":"guitar_v0_bass_381","midi_source":""},{"t":67.325,"note":40,"dur":0.465,"vel":0.638,"inst":"guitar_v0_bass_381","midi_source":""},{"t":67.325,"note":66,"dur":0.697,"vel":0.638,"inst":"guitar_v0_bass_381","midi_source":""},{"t":67.325,"note":64,"dur":0.697,"vel":0.638,"inst":"guitar_v0_bass_381","midi_source":""},{"t":67.325,"note":78,"dur":0.697,"vel":0.638,"inst":"guitar_v0_bass_381","midi_source":""},{"t":67.789,"note":40,"dur":0.465,"vel":0.638,"inst":"guitar_v0_bass_381","midi_source":""},{"t":67.789,"note":44,"dur":0.465,"vel":0.638,"inst":"guitar_v0_bass_381","midi_source":""},{"t":67.789,"note":40,"dur":0.465,"vel":0.638,"inst":"guitar_v0_bass_381","midi_source":""},{"t":68.022,"note":66,"dur":0.232,"vel":0.638,"inst":"guitar_v0_bass_381","midi_source":""},{"t":68.022,"note":64,"dur":0.232,"vel":0.638,"inst":"guitar_v0_bass_381","midi_source":""},{"t":68.022,"note":78,"dur":0.232,"vel":0.638,"inst":"guitar_v0_bass_381","midi_source":""},{"t":68.254,"note":28,"dur":0.465,"vel":0.638,"inst":"guitar_v0_bass_381","midi_source":""},{"t":68.254,"note":64,"dur":0.465,"vel":0.638,"inst":"guitar_v0_bass_381","midi_source":""},{"t":68.254,"note":64,"dur":0.465,"vel":0.638,"inst":"guitar_v0_bass_381","midi_source":""},{"t":68.254,"note":76,"dur":0.465,"vel":0.638,"inst":"guitar_v0_bass_381","midi_source":""},{"t":68.719,"note":40,"dur":0.465,"vel":0.638,"inst":"guitar_v0_bass_381","midi_source":""},{"t":68.719,"note":44,"dur":0.465,"vel":0.638,"inst":"guitar_v0_bass_381","midi_source":""},{"t":68.719,"note":40,"dur":0.465,"vel":0.638,"inst":"guitar_v0_bass_381","midi_source":""},{"t":68.719,"note":59,"dur":0.465,"vel":0.638,"inst":"bass_v0_struck_273","midi_source":""},{"t":68.719,"note":71,"dur":0.465,"vel":0.638,"inst":"bass_v0_struck_273","midi_source":""},{"t":69.183,"note":40,"dur":0.465,"vel":0.638,"inst":"guitar_v0_bass_381","midi_source":""},{"t":69.183,"note":44,"dur":0.465,"vel":0.638,"inst":"guitar_v0_bass_381","midi_source":""},{"t":69.183,"note":40,"dur":0.465,"vel":0.638,"inst":"guitar_v0_bass_381","midi_source":""},{"t":69.183,"note":61,"dur":0.465,"vel":0.638,"inst":"bass_v0_struck_273","midi_source":""},{"t":69.183,"note":73,"dur":0.465,"vel":0.638,"inst":"bass_v0_struck_273","midi_source":""},{"t":69.648,"note":24,"dur":0.465,"vel":0.638,"inst":"guitar_v0_bass_381","midi_source":""},{"t":69.648,"note":35,"dur":0.465,"vel":0.638,"inst":"bass_v0_struck_273","midi_source":""},{"t":69.648,"note":61,"dur":0.465,"vel":0.638,"inst":"bass_v0_struck_273","midi_source":""},{"t":69.648,"note":73,"dur":0.465,"vel":0.638,"inst":"bass_v0_struck_273","midi_source":""},{"t":70.113,"note":40,"dur":0.465,"vel":0.638,"inst":"guitar_v0_bass_381","midi_source":""},{"t":70.113,"note":47,"dur":0.465,"vel":0.638,"inst":"bass_v0_struck_273","midi_source":""},{"t":70.113,"note":49,"dur":0.465,"vel":0.638,"inst":"bass_v0_struck_273","midi_source":""},{"t":70.113,"note":64,"dur":0.232,"vel":0.638,"inst":"guitar_v0_bass_381","midi_source":""},{"t":70.345,"note":61,"dur":0.232,"vel":0.638,"inst":"bass_v0_struck_273","midi_source":""},{"t":70.577,"note":40,"dur":0.465,"vel":0.638,"inst":"guitar_v0_bass_381","midi_source":""},{"t":70.577,"note":47,"dur":0.465,"vel":0.638,"inst":"bass_v0_struck_273","midi_source":""},{"t":70.577,"note":49,"dur":0.465,"vel":0.638,"inst":"bass_v0_struck_273","midi_source":""},{"t":70.577,"note":61,"dur":0.232,"vel":0.638,"inst":"bass_v0_struck_273","midi_source":""},{"t":70.81,"note":56,"dur":0.232,"vel":0.638,"inst":"guitar_v0_bass_381","midi_source":""},{"t":71.042,"note":25,"dur":0.465,"vel":0.638,"inst":"bass_v0_struck_273","midi_source":""},{"t":71.042,"note":37,"dur":0.465,"vel":0.638,"inst":"bass_v0_struck_273","midi_source":""},{"t":71.042,"note":59,"dur":0.929,"vel":0.638,"inst":"bass_v0_struck_273","midi_source":""},{"t":71.507,"note":40,"dur":0.465,"vel":0.638,"inst":"guitar_v0_bass_381","midi_source":""},{"t":71.507,"note":47,"dur":0.465,"vel":0.638,"inst":"bass_v0_struck_273","midi_source":""},{"t":71.507,"note":49,"dur":0.465,"vel":0.638,"inst":"bass_v0_struck_273","midi_source":""},{"t":71.971,"note":40,"dur":0.465,"vel":0.638,"inst":"guitar_v0_bass_381","midi_source":""},{"t":71.971,"note":47,"dur":0.465,"vel":0.638,"inst":"bass_v0_struck_273","midi_source":""},{"t":71.971,"note":49,"dur":0.465,"vel":0.638,"inst":"bass_v0_struck_273","midi_source":""},{"t":71.971,"note":52,"dur":0.465,"vel":0.638,"inst":"guitar_v0_bass_381","midi_source":""},{"t":72.436,"note":24,"dur":0.465,"vel":0.638,"inst":"guitar_v0_bass_381","midi_source":""},{"t":72.436,"note":28,"dur":0.465,"vel":0.638,"inst":"guitar_v0_bass_381","midi_source":""},{"t":72.436,"note":54,"dur":0.232,"vel":0.638,"inst":"guitar_v0_bass_381","midi_source":""},{"t":72.668,"note":59,"dur":0.232,"vel":0.638,"inst":"bass_v0_struck_273","midi_source":""},{"t":72.9,"note":42,"dur":0.465,"vel":0.638,"inst":"guitar_v0_bass_381","midi_source":""},{"t":72.9,"note":47,"dur":0.465,"vel":0.638,"inst":"bass_v0_struck_273","midi_source":""},{"t":72.9,"note":40,"dur":0.465,"vel":0.638,"inst":"guitar_v0_bass_381","midi_source":""},{"t":72.9,"note":59,"dur":0.232,"vel":0.638,"inst":"bass_v0_struck_273","midi_source":""},{"t":73.133,"note":59,"dur":0.232,"vel":0.638,"inst":"bass_v0_struck_273","midi_source":""},{"t":73.365,"note":42,"dur":0.465,"vel":0.638,"inst":"guitar_v0_bass_381","midi_source":""},{"t":73.365,"note":47,"dur":0.465,"vel":0.638,"inst":"bass_v0_struck_273","midi_source":""},{"t":73.365,"note":40,"dur":0.465,"vel":0.638,"inst":"guitar_v0_bass_381","midi_source":""},{"t":73.365,"note":59,"dur":0.232,"vel":0.638,"inst":"bass_v0_struck_273","midi_source":""},{"t":73.597,"note":54,"dur":0.232,"vel":0.638,"inst":"guitar_v0_bass_381","midi_source":""},{"t":73.83,"note":25,"dur":0.465,"vel":0.638,"inst":"bass_v0_struck_273","midi_source":""},{"t":73.83,"note":37,"dur":0.465,"vel":0.638,"inst":"bass_v0_struck_273","midi_source":""},{"t":73.83,"note":52,"dur":0.929,"vel":0.638,"inst":"guitar_v0_bass_381","midi_source":""},{"t":74.294,"note":40,"dur":0.465,"vel":0.638,"inst":"guitar_v0_bass_381","midi_source":""},{"t":74.294,"note":47,"dur":0.465,"vel":0.638,"inst":"bass_v0_struck_273","midi_source":""},{"t":74.294,"note":49,"dur":0.465,"vel":0.638,"inst":"bass_v0_struck_273","midi_source":""},{"t":74.759,"note":35,"dur":0.232,"vel":0.638,"inst":"bass_v0_struck_273","midi_source":""},{"t":74.759,"note":54,"dur":0.929,"vel":0.638,"inst":"guitar_v0_bass_381","midi_source":""},{"t":74.991,"note":42,"dur":0.232,"vel":0.638,"inst":"guitar_v0_bass_381","midi_source":""},{"t":75.224,"note":47,"dur":0.232,"vel":0.638,"inst":"bass_v0_struck_273","midi_source":""},{"t":75.456,"note":49,"dur":0.232,"vel":0.638,"inst":"bass_v0_struck_273","midi_source":""},{"t":75.688,"note":49,"dur":0.465,"vel":0.638,"inst":"bass_v0_struck_273","midi_source":""},{"t":75.688,"note":52,"dur":0.465,"vel":0.638,"inst":"guitar_v0_bass_381","midi_source":""},{"t":76.153,"note":28,"dur":0.465,"vel":0.638,"inst":"guitar_v0_bass_381","midi_source":""},{"t":76.153,"note":66,"dur":0.465,"vel":0.638,"inst":"guitar_v0_bass_381","midi_source":""},{"t":76.153,"note":64,"dur":0.465,"vel":0.638,"inst":"guitar_v0_bass_381","midi_source":""},{"t":76.153,"note":78,"dur":0.465,"vel":0.638,"inst":"guitar_v0_bass_381","midi_source":""},{"t":76.618,"note":40,"dur":0.465,"vel":0.638,"inst":"guitar_v0_bass_381","midi_source":""},{"t":76.618,"note":44,"dur":0.465,"vel":0.638,"inst":"guitar_v0_bass_381","midi_source":""},{"t":76.618,"note":40,"dur":0.465,"vel":0.638,"inst":"guitar_v0_bass_381","midi_source":""},{"t":76.618,"note":66,"dur":0.697,"vel":0.638,"inst":"guitar_v0_bass_381","midi_source":""},{"t":76.618,"note":64,"dur":0.697,"vel":0.638,"inst":"guitar_v0_bass_381","midi_source":""},{"t":76.618,"note":78,"dur":0.697,"vel":0.638,"inst":"guitar_v0_bass_381","midi_source":""},{"t":77.082,"note":40,"dur":0.465,"vel":0.638,"inst":"guitar_v0_bass_381","midi_source":""},{"t":77.082,"note":44,"dur":0.465,"vel":0.638,"inst":"guitar_v0_bass_381","midi_source":""},{"t":77.082,"note":40,"dur":0.465,"vel":0.638,"inst":"guitar_v0_bass_381","midi_source":""},{"t":77.315,"note":66,"dur":0.232,"vel":0.638,"inst":"guitar_v0_bass_381","midi_source":""},{"t":77.315,"note":64,"dur":0.232,"vel":0.638,"inst":"guitar_v0_bass_381","midi_source":""},{"t":77.315,"note":78,"dur":0.232,"vel":0.638,"inst":"guitar_v0_bass_381","midi_source":""},{"t":77.547,"note":28,"dur":0.465,"vel":0.638,"inst":"guitar_v0_bass_381","midi_source":""},{"t":77.547,"note":64,"dur":0.465,"vel":0.638,"inst":"guitar_v0_bass_381","midi_source":""},{"t":77.547,"note":64,"dur":0.465,"vel":0.638,"inst":"guitar_v0_bass_381","midi_source":""},{"t":77.547,"note":76,"dur":0.465,"vel":0.638,"inst":"guitar_v0_bass_381","midi_source":""},{"t":78.012,"note":40,"dur":0.465,"vel":0.638,"inst":"guitar_v0_bass_381","midi_source":""},{"t":78.012,"note":44,"dur":0.465,"vel":0.638,"inst":"guitar_v0_bass_381","midi_source":""},{"t":78.012,"note":40,"dur":0.465,"vel":0.638,"inst":"guitar_v0_bass_381","midi_source":""},{"t":78.012,"note":59,"dur":0.465,"vel":0.638,"inst":"bass_v0_struck_273","midi_source":""},{"t":78.012,"note":71,"dur":0.465,"vel":0.638,"inst":"bass_v0_struck_273","midi_source":""},{"t":78.476,"note":40,"dur":0.465,"vel":0.638,"inst":"guitar_v0_bass_381","midi_source":""},{"t":78.476,"note":44,"dur":0.465,"vel":0.638,"inst":"guitar_v0_bass_381","midi_source":""},{"t":78.476,"note":40,"dur":0.465,"vel":0.638,"inst":"guitar_v0_bass_381","midi_source":""},{"t":78.476,"note":61,"dur":0.465,"vel":0.638,"inst":"bass_v0_struck_273","midi_source":""},{"t":78.476,"note":73,"dur":0.465,"vel":0.638,"inst":"bass_v0_struck_273","midi_source":""},{"t":78.941,"note":24,"dur":0.465,"vel":0.638,"inst":"guitar_v0_bass_381","midi_source":""},{"t":78.941,"note":35,"dur":0.465,"vel":0.638,"inst":"bass_v0_struck_273","midi_source":""},{"t":78.941,"note":61,"dur":0.465,"vel":0.638,"inst":"bass_v0_struck_273","midi_source":""},{"t":78.941,"note":73,"dur":0.465,"vel":0.638,"inst":"bass_v0_struck_273","midi_source":""},{"t":79.405,"note":40,"dur":0.465,"vel":0.638,"inst":"guitar_v0_bass_381","midi_source":""},{"t":79.405,"note":47,"dur":0.465,"vel":0.638,"inst":"bass_v0_struck_273","midi_source":""},{"t":79.405,"note":49,"dur":0.465,"vel":0.638,"inst":"bass_v0_struck_273","midi_source":""},{"t":79.405,"note":64,"dur":0.232,"vel":0.638,"inst":"guitar_v0_bass_381","midi_source":""},{"t":79.638,"note":61,"dur":0.232,"vel":0.638,"inst":"bass_v0_struck_273","midi_source":""},{"t":79.87,"note":40,"dur":0.465,"vel":0.638,"inst":"guitar_v0_bass_381","midi_source":""},{"t":79.87,"note":47,"dur":0.465,"vel":0.638,"inst":"bass_v0_struck_273","midi_source":""},{"t":79.87,"note":49,"dur":0.465,"vel":0.638,"inst":"bass_v0_struck_273","midi_source":""},{"t":79.87,"note":61,"dur":0.232,"vel":0.638,"inst":"bass_v0_struck_273","midi_source":""},{"t":80.102,"note":56,"dur":0.232,"vel":0.638,"inst":"guitar_v0_bass_381","midi_source":""},{"t":80.335,"note":25,"dur":0.465,"vel":0.638,"inst":"bass_v0_struck_273","midi_source":""},{"t":80.335,"note":37,"dur":0.465,"vel":0.638,"inst":"bass_v0_struck_273","midi_source":""},{"t":80.335,"note":59,"dur":0.929,"vel":0.638,"inst":"bass_v0_struck_273","midi_source":""},{"t":80.799,"note":40,"dur":0.465,"vel":0.638,"inst":"guitar_v0_bass_381","midi_source":""},{"t":80.799,"note":47,"dur":0.465,"vel":0.638,"inst":"bass_v0_struck_273","midi_source":""},{"t":80.799,"note":49,"dur":0.465,"vel":0.638,"inst":"bass_v0_struck_273","midi_source":""},{"t":81.264,"note":40,"dur":0.465,"vel":0.638,"inst":"guitar_v0_bass_381","midi_source":""},{"t":81.264,"note":47,"dur":0.465,"vel":0.638,"inst":"bass_v0_struck_273","midi_source":""},{"t":81.264,"note":49,"dur":0.465,"vel":0.638,"inst":"bass_v0_struck_273","midi_source":""},{"t":81.264,"note":52,"dur":0.465,"vel":0.638,"inst":"guitar_v0_bass_381","midi_source":""},{"t":81.729,"note":24,"dur":0.465,"vel":0.638,"inst":"guitar_v0_bass_381","midi_source":""},{"t":81.729,"note":28,"dur":0.465,"vel":0.638,"inst":"guitar_v0_bass_381","midi_source":""},{"t":81.729,"note":54,"dur":0.232,"vel":0.638,"inst":"guitar_v0_bass_381","midi_source":""},{"t":81.961,"note":59,"dur":0.232,"vel":0.638,"inst":"bass_v0_struck_273","midi_source":""},{"t":82.193,"note":42,"dur":0.465,"vel":0.638,"inst":"guitar_v0_bass_381","midi_source":""},{"t":82.193,"note":47,"dur":0.465,"vel":0.638,"inst":"bass_v0_struck_273","midi_source":""},{"t":82.193,"note":40,"dur":0.465,"vel":0.638,"inst":"guitar_v0_bass_381","midi_source":""},{"t":82.193,"note":59,"dur":0.232,"vel":0.638,"inst":"bass_v0_struck_273","midi_source":""},{"t":82.426,"note":59,"dur":0.232,"vel":0.638,"inst":"bass_v0_struck_273","midi_source":""},{"t":82.658,"note":42,"dur":0.465,"vel":0.638,"inst":"guitar_v0_bass_381","midi_source":""},{"t":82.658,"note":47,"dur":0.465,"vel":0.638,"inst":"bass_v0_struck_273","midi_source":""},{"t":82.658,"note":40,"dur":0.465,"vel":0.638,"inst":"guitar_v0_bass_381","midi_source":""},{"t":82.658,"note":59,"dur":0.232,"vel":0.638,"inst":"bass_v0_struck_273","midi_source":""},{"t":82.89,"note":54,"dur":0.232,"vel":0.638,"inst":"guitar_v0_bass_381","midi_source":""},{"t":83.123,"note":25,"dur":0.465,"vel":0.638,"inst":"bass_v0_struck_273","midi_source":""},{"t":83.123,"note":37,"dur":0.465,"vel":0.638,"inst":"bass_v0_struck_273","midi_source":""},{"t":83.123,"note":52,"dur":0.929,"vel":0.638,"inst":"guitar_v0_bass_381","midi_source":""},{"t":83.587,"note":40,"dur":0.465,"vel":0.638,"inst":"guitar_v0_bass_381","midi_source":""},{"t":83.587,"note":47,"dur":0.465,"vel":0.638,"inst":"bass_v0_struck_273","midi_source":""},{"t":83.587,"note":49,"dur":0.465,"vel":0.638,"inst":"bass_v0_struck_273","midi_source":""},{"t":84.052,"note":35,"dur":0.232,"vel":0.638,"inst":"bass_v0_struck_273","midi_source":""},{"t":84.052,"note":54,"dur":0.929,"vel":0.638,"inst":"guitar_v0_bass_381","midi_source":""},{"t":84.284,"note":42,"dur":0.232,"vel":0.638,"inst":"guitar_v0_bass_381","midi_source":""},{"t":84.517,"note":47,"dur":0.232,"vel":0.638,"inst":"bass_v0_struck_273","midi_source":""},{"t":84.749,"note":49,"dur":0.232,"vel":0.638,"inst":"bass_v0_struck_273","midi_source":""},{"t":84.981,"note":49,"dur":0.465,"vel":0.638,"inst":"bass_v0_struck_273","midi_source":""},{"t":84.981,"note":52,"dur":0.465,"vel":0.638,"inst":"guitar_v0_bass_381","midi_source":""},{"t":85.446,"note":28,"dur":0.465,"vel":0.638,"inst":"guitar_v0_bass_381","midi_source":""},{"t":85.446,"note":66,"dur":0.465,"vel":0.638,"inst":"guitar_v0_bass_381","midi_source":""},{"t":85.446,"note":64,"dur":0.465,"vel":0.638,"inst":"guitar_v0_bass_381","midi_source":""},{"t":85.446,"note":78,"dur":0.465,"vel":0.638,"inst":"guitar_v0_bass_381","midi_source":""},{"t":85.91,"note":40,"dur":0.465,"vel":0.638,"inst":"guitar_v0_bass_381","midi_source":""},{"t":85.91,"note":44,"dur":0.465,"vel":0.638,"inst":"guitar_v0_bass_381","midi_source":""},{"t":85.91,"note":40,"dur":0.465,"vel":0.638,"inst":"guitar_v0_bass_381","midi_source":""},{"t":85.91,"note":66,"dur":0.697,"vel":0.638,"inst":"guitar_v0_bass_381","midi_source":""},{"t":85.91,"note":64,"dur":0.697,"vel":0.638,"inst":"guitar_v0_bass_381","midi_source":""},{"t":85.91,"note":78,"dur":0.697,"vel":0.638,"inst":"guitar_v0_bass_381","midi_source":""},{"t":86.375,"note":40,"dur":0.465,"vel":0.638,"inst":"guitar_v0_bass_381","midi_source":""},{"t":86.375,"note":44,"dur":0.465,"vel":0.638,"inst":"guitar_v0_bass_381","midi_source":""},{"t":86.375,"note":40,"dur":0.465,"vel":0.638,"inst":"guitar_v0_bass_381","midi_source":""},{"t":86.607,"note":66,"dur":0.232,"vel":0.638,"inst":"guitar_v0_bass_381","midi_source":""},{"t":86.607,"note":64,"dur":0.232,"vel":0.638,"inst":"guitar_v0_bass_381","midi_source":""},{"t":86.607,"note":78,"dur":0.232,"vel":0.638,"inst":"guitar_v0_bass_381","midi_source":""},{"t":86.84,"note":28,"dur":0.465,"vel":0.638,"inst":"guitar_v0_bass_381","midi_source":""},{"t":86.84,"note":64,"dur":0.465,"vel":0.638,"inst":"guitar_v0_bass_381","midi_source":""},{"t":86.84,"note":64,"dur":0.465,"vel":0.638,"inst":"guitar_v0_bass_381","midi_source":""},{"t":86.84,"note":76,"dur":0.465,"vel":0.638,"inst":"guitar_v0_bass_381","midi_source":""},{"t":87.304,"note":40,"dur":0.465,"vel":0.638,"inst":"guitar_v0_bass_381","midi_source":""},{"t":87.304,"note":44,"dur":0.465,"vel":0.638,"inst":"guitar_v0_bass_381","midi_source":""},{"t":87.304,"note":40,"dur":0.465,"vel":0.638,"inst":"guitar_v0_bass_381","midi_source":""},{"t":87.304,"note":59,"dur":0.465,"vel":0.638,"inst":"bass_v0_struck_273","midi_source":""},{"t":87.304,"note":71,"dur":0.465,"vel":0.638,"inst":"bass_v0_struck_273","midi_source":""},{"t":87.769,"note":40,"dur":0.465,"vel":0.638,"inst":"guitar_v0_bass_381","midi_source":""},{"t":87.769,"note":44,"dur":0.465,"vel":0.638,"inst":"guitar_v0_bass_381","midi_source":""},{"t":87.769,"note":40,"dur":0.465,"vel":0.638,"inst":"guitar_v0_bass_381","midi_source":""},{"t":87.769,"note":61,"dur":0.465,"vel":0.638,"inst":"bass_v0_struck_273","midi_source":""},{"t":87.769,"note":73,"dur":0.465,"vel":0.638,"inst":"bass_v0_struck_273","midi_source":""},{"t":88.234,"note":24,"dur":0.465,"vel":0.638,"inst":"guitar_v0_bass_381","midi_source":""},{"t":88.234,"note":35,"dur":0.465,"vel":0.638,"inst":"bass_v0_struck_273","midi_source":""},{"t":88.234,"note":61,"dur":0.465,"vel":0.638,"inst":"bass_v0_struck_273","midi_source":""},{"t":88.234,"note":73,"dur":0.465,"vel":0.638,"inst":"bass_v0_struck_273","midi_source":""},{"t":88.698,"note":40,"dur":0.465,"vel":0.638,"inst":"guitar_v0_bass_381","midi_source":""},{"t":88.698,"note":47,"dur":0.465,"vel":0.638,"inst":"bass_v0_struck_273","midi_source":""},{"t":88.698,"note":49,"dur":0.465,"vel":0.638,"inst":"bass_v0_struck_273","midi_source":""},{"t":88.698,"note":64,"dur":0.232,"vel":0.638,"inst":"guitar_v0_bass_381","midi_source":""},{"t":88.931,"note":61,"dur":0.232,"vel":0.638,"inst":"bass_v0_struck_273","midi_source":""},{"t":89.163,"note":40,"dur":0.465,"vel":0.638,"inst":"guitar_v0_bass_381","midi_source":""},{"t":89.163,"note":47,"dur":0.465,"vel":0.638,"inst":"bass_v0_struck_273","midi_source":""},{"t":89.163,"note":49,"dur":0.465,"vel":0.638,"inst":"bass_v0_struck_273","midi_source":""},{"t":89.163,"note":61,"dur":0.232,"vel":0.638,"inst":"bass_v0_struck_273","midi_source":""},{"t":89.395,"note":56,"dur":0.232,"vel":0.638,"inst":"guitar_v0_bass_381","midi_source":""},{"t":89.628,"note":25,"dur":0.465,"vel":0.638,"inst":"bass_v0_struck_273","midi_source":""},{"t":89.628,"note":37,"dur":0.465,"vel":0.638,"inst":"bass_v0_struck_273","midi_source":""},{"t":89.628,"note":59,"dur":0.929,"vel":0.638,"inst":"bass_v0_struck_273","midi_source":""},{"t":90.092,"note":40,"dur":0.465,"vel":0.638,"inst":"guitar_v0_bass_381","midi_source":""},{"t":90.092,"note":47,"dur":0.465,"vel":0.638,"inst":"bass_v0_struck_273","midi_source":""},{"t":90.092,"note":49,"dur":0.465,"vel":0.638,"inst":"bass_v0_struck_273","midi_source":""},{"t":90.557,"note":40,"dur":0.465,"vel":0.638,"inst":"guitar_v0_bass_381","midi_source":""},{"t":90.557,"note":47,"dur":0.465,"vel":0.638,"inst":"bass_v0_struck_273","midi_source":""},{"t":90.557,"note":49,"dur":0.465,"vel":0.638,"inst":"bass_v0_struck_273","midi_source":""},{"t":90.557,"note":52,"dur":0.465,"vel":0.638,"inst":"guitar_v0_bass_381","midi_source":""},{"t":91.022,"note":24,"dur":0.465,"vel":0.638,"inst":"guitar_v0_bass_381","midi_source":""},{"t":91.022,"note":28,"dur":0.465,"vel":0.638,"inst":"guitar_v0_bass_381","midi_source":""},{"t":91.022,"note":54,"dur":0.232,"vel":0.638,"inst":"guitar_v0_bass_381","midi_source":""},{"t":91.254,"note":59,"dur":0.232,"vel":0.638,"inst":"bass_v0_struck_273","midi_source":""},{"t":91.486,"note":42,"dur":0.465,"vel":0.638,"inst":"guitar_v0_bass_381","midi_source":""},{"t":91.486,"note":47,"dur":0.465,"vel":0.638,"inst":"bass_v0_struck_273","midi_source":""},{"t":91.486,"note":40,"dur":0.465,"vel":0.638,"inst":"guitar_v0_bass_381","midi_source":""},{"t":91.486,"note":59,"dur":0.232,"vel":0.638,"inst":"bass_v0_struck_273","midi_source":""},{"t":91.719,"note":59,"dur":0.232,"vel":0.638,"inst":"bass_v0_struck_273","midi_source":""},{"t":91.951,"note":42,"dur":0.465,"vel":0.638,"inst":"guitar_v0_bass_381","midi_source":""},{"t":91.951,"note":47,"dur":0.465,"vel":0.638,"inst":"bass_v0_struck_273","midi_source":""},{"t":91.951,"note":40,"dur":0.465,"vel":0.638,"inst":"guitar_v0_bass_381","midi_source":""},{"t":91.951,"note":59,"dur":0.232,"vel":0.638,"inst":"bass_v0_struck_273","midi_source":""},{"t":92.183,"note":54,"dur":0.232,"vel":0.638,"inst":"guitar_v0_bass_381","midi_source":""},{"t":92.415,"note":25,"dur":0.465,"vel":0.638,"inst":"bass_v0_struck_273","midi_source":""},{"t":92.415,"note":37,"dur":0.465,"vel":0.638,"inst":"bass_v0_struck_273","midi_source":""},{"t":92.415,"note":52,"dur":0.929,"vel":0.638,"inst":"guitar_v0_bass_381","midi_source":""},{"t":92.88,"note":40,"dur":0.465,"vel":0.638,"inst":"guitar_v0_bass_381","midi_source":""},{"t":92.88,"note":47,"dur":0.465,"vel":0.638,"inst":"bass_v0_struck_273","midi_source":""},{"t":92.88,"note":49,"dur":0.465,"vel":0.638,"inst":"bass_v0_struck_273","midi_source":""},{"t":93.345,"note":35,"dur":0.232,"vel":0.638,"inst":"bass_v0_struck_273","midi_source":""},{"t":93.345,"note":54,"dur":0.929,"vel":0.638,"inst":"guitar_v0_bass_381","midi_source":""},{"t":93.577,"note":42,"dur":0.232,"vel":0.638,"inst":"guitar_v0_bass_381","midi_source":""},{"t":93.809,"note":47,"dur":0.232,"vel":0.638,"inst":"bass_v0_struck_273","midi_source":""},{"t":94.042,"note":49,"dur":0.232,"vel":0.638,"inst":"bass_v0_struck_273","midi_source":""},{"t":94.274,"note":49,"dur":0.465,"vel":0.638,"inst":"bass_v0_struck_273","midi_source":""},{"t":94.274,"note":52,"dur":0.465,"vel":0.638,"inst":"guitar_v0_bass_381","midi_source":""},{"t":94.739,"note":28,"dur":0.465,"vel":0.638,"inst":"guitar_v0_bass_381","midi_source":""},{"t":94.739,"note":66,"dur":0.465,"vel":0.638,"inst":"guitar_v0_bass_381","midi_source":""},{"t":94.739,"note":64,"dur":0.465,"vel":0.638,"inst":"guitar_v0_bass_381","midi_source":""},{"t":94.739,"note":78,"dur":0.465,"vel":0.638,"inst":"guitar_v0_bass_381","midi_source":""},{"t":95.203,"note":40,"dur":0.465,"vel":0.638,"inst":"guitar_v0_bass_381","midi_source":""},{"t":95.203,"note":44,"dur":0.465,"vel":0.638,"inst":"guitar_v0_bass_381","midi_source":""},{"t":95.203,"note":40,"dur":0.465,"vel":0.638,"inst":"guitar_v0_bass_381","midi_source":""},{"t":95.203,"note":66,"dur":0.697,"vel":0.638,"inst":"guitar_v0_bass_381","midi_source":""},{"t":95.203,"note":64,"dur":0.697,"vel":0.638,"inst":"guitar_v0_bass_381","midi_source":""},{"t":95.203,"note":78,"dur":0.697,"vel":0.638,"inst":"guitar_v0_bass_381","midi_source":""},{"t":95.668,"note":40,"dur":0.465,"vel":0.638,"inst":"guitar_v0_bass_381","midi_source":""},{"t":95.668,"note":44,"dur":0.465,"vel":0.638,"inst":"guitar_v0_bass_381","midi_source":""},{"t":95.668,"note":40,"dur":0.465,"vel":0.638,"inst":"guitar_v0_bass_381","midi_source":""},{"t":95.9,"note":66,"dur":0.232,"vel":0.638,"inst":"guitar_v0_bass_381","midi_source":""},{"t":95.9,"note":64,"dur":0.232,"vel":0.638,"inst":"guitar_v0_bass_381","midi_source":""},{"t":95.9,"note":78,"dur":0.232,"vel":0.638,"inst":"guitar_v0_bass_381","midi_source":""},{"t":96.133,"note":28,"dur":0.465,"vel":0.638,"inst":"guitar_v0_bass_381","midi_source":""},{"t":96.133,"note":64,"dur":0.465,"vel":0.638,"inst":"guitar_v0_bass_381","midi_source":""},{"t":96.133,"note":64,"dur":0.465,"vel":0.638,"inst":"guitar_v0_bass_381","midi_source":""},{"t":96.133,"note":76,"dur":0.465,"vel":0.638,"inst":"guitar_v0_bass_381","midi_source":""},{"t":96.597,"note":40,"dur":0.465,"vel":0.638,"inst":"guitar_v0_bass_381","midi_source":""},{"t":96.597,"note":44,"dur":0.465,"vel":0.638,"inst":"guitar_v0_bass_381","midi_source":""},{"t":96.597,"note":40,"dur":0.465,"vel":0.638,"inst":"guitar_v0_bass_381","midi_source":""},{"t":96.597,"note":59,"dur":0.465,"vel":0.638,"inst":"bass_v0_struck_273","midi_source":""},{"t":96.597,"note":71,"dur":0.465,"vel":0.638,"inst":"bass_v0_struck_273","midi_source":""},{"t":97.062,"note":40,"dur":0.465,"vel":0.638,"inst":"guitar_v0_bass_381","midi_source":""},{"t":97.062,"note":44,"dur":0.465,"vel":0.638,"inst":"guitar_v0_bass_381","midi_source":""},{"t":97.062,"note":40,"dur":0.465,"vel":0.638,"inst":"guitar_v0_bass_381","midi_source":""},{"t":97.062,"note":61,"dur":0.465,"vel":0.638,"inst":"bass_v0_struck_273","midi_source":""},{"t":97.062,"note":73,"dur":0.465,"vel":0.638,"inst":"bass_v0_struck_273","midi_source":""},{"t":97.527,"note":24,"dur":0.465,"vel":0.638,"inst":"guitar_v0_bass_381","midi_source":""},{"t":97.527,"note":35,"dur":0.465,"vel":0.638,"inst":"bass_v0_struck_273","midi_source":""},{"t":97.527,"note":61,"dur":0.465,"vel":0.638,"inst":"bass_v0_struck_273","midi_source":""},{"t":97.527,"note":73,"dur":0.465,"vel":0.638,"inst":"bass_v0_struck_273","midi_source":""},{"t":97.991,"note":40,"dur":0.465,"vel":0.638,"inst":"guitar_v0_bass_381","midi_source":""},{"t":97.991,"note":47,"dur":0.465,"vel":0.638,"inst":"bass_v0_struck_273","midi_source":""},{"t":97.991,"note":49,"dur":0.465,"vel":0.638,"inst":"bass_v0_struck_273","midi_source":""},{"t":97.991,"note":64,"dur":0.232,"vel":0.638,"inst":"guitar_v0_bass_381","midi_source":""},{"t":98.224,"note":61,"dur":0.232,"vel":0.638,"inst":"bass_v0_struck_273","midi_source":""},{"t":98.456,"note":40,"dur":0.465,"vel":0.638,"inst":"guitar_v0_bass_381","midi_source":""},{"t":98.456,"note":47,"dur":0.465,"vel":0.638,"inst":"bass_v0_struck_273","midi_source":""},{"t":98.456,"note":49,"dur":0.465,"vel":0.638,"inst":"bass_v0_struck_273","midi_source":""},{"t":98.456,"note":61,"dur":0.232,"vel":0.638,"inst":"bass_v0_struck_273","midi_source":""},{"t":98.688,"note":56,"dur":0.232,"vel":0.638,"inst":"guitar_v0_bass_381","midi_source":""},{"t":98.92,"note":25,"dur":0.465,"vel":0.638,"inst":"bass_v0_struck_273","midi_source":""},{"t":98.92,"note":37,"dur":0.465,"vel":0.638,"inst":"bass_v0_struck_273","midi_source":""},{"t":98.92,"note":59,"dur":0.929,"vel":0.638,"inst":"bass_v0_struck_273","midi_source":""},{"t":99.385,"note":40,"dur":0.465,"vel":0.638,"inst":"guitar_v0_bass_381","midi_source":""},{"t":99.385,"note":47,"dur":0.465,"vel":0.638,"inst":"bass_v0_struck_273","midi_source":""},{"t":99.385,"note":49,"dur":0.465,"vel":0.638,"inst":"bass_v0_struck_273","midi_source":""},{"t":99.85,"note":40,"dur":0.465,"vel":0.638,"inst":"guitar_v0_bass_381","midi_source":""},{"t":99.85,"note":47,"dur":0.465,"vel":0.638,"inst":"bass_v0_struck_273","midi_source":""},{"t":99.85,"note":49,"dur":0.465,"vel":0.638,"inst":"bass_v0_struck_273","midi_source":""},{"t":99.85,"note":52,"dur":0.465,"vel":0.638,"inst":"guitar_v0_bass_381","midi_source":""},{"t":100.314,"note":24,"dur":0.465,"vel":0.638,"inst":"guitar_v0_bass_381","midi_source":""},{"t":100.314,"note":28,"dur":0.465,"vel":0.638,"inst":"guitar_v0_bass_381","midi_source":""},{"t":100.314,"note":54,"dur":0.232,"vel":0.638,"inst":"guitar_v0_bass_381","midi_source":""},{"t":100.547,"note":59,"dur":0.232,"vel":0.638,"inst":"bass_v0_struck_273","midi_source":""},{"t":100.779,"note":42,"dur":0.465,"vel":0.638,"inst":"guitar_v0_bass_381","midi_source":""},{"t":100.779,"note":47,"dur":0.465,"vel":0.638,"inst":"bass_v0_struck_273","midi_source":""},{"t":100.779,"note":40,"dur":0.465,"vel":0.638,"inst":"guitar_v0_bass_381","midi_source":""},{"t":100.779,"note":59,"dur":0.232,"vel":0.638,"inst":"bass_v0_struck_273","midi_source":""},{"t":101.011,"note":59,"dur":0.232,"vel":0.638,"inst":"bass_v0_struck_273","midi_source":""},{"t":101.244,"note":42,"dur":0.465,"vel":0.638,"inst":"guitar_v0_bass_381","midi_source":""},{"t":101.244,"note":47,"dur":0.465,"vel":0.638,"inst":"bass_v0_struck_273","midi_source":""},{"t":101.244,"note":40,"dur":0.465,"vel":0.638,"inst":"guitar_v0_bass_381","midi_source":""},{"t":101.244,"note":59,"dur":0.232,"vel":0.638,"inst":"bass_v0_struck_273","midi_source":""},{"t":101.476,"note":54,"dur":0.232,"vel":0.638,"inst":"guitar_v0_bass_381","midi_source":""},{"t":101.708,"note":25,"dur":0.465,"vel":0.638,"inst":"bass_v0_struck_273","midi_source":""},{"t":101.708,"note":37,"dur":0.465,"vel":0.638,"inst":"bass_v0_struck_273","midi_source":""},{"t":101.708,"note":52,"dur":0.929,"vel":0.638,"inst":"guitar_v0_bass_381","midi_source":""},{"t":102.173,"note":40,"dur":0.465,"vel":0.638,"inst":"guitar_v0_bass_381","midi_source":""},{"t":102.173,"note":47,"dur":0.465,"vel":0.638,"inst":"bass_v0_struck_273","midi_source":""},{"t":102.173,"note":49,"dur":0.465,"vel":0.638,"inst":"bass_v0_struck_273","midi_source":""},{"t":102.638,"note":35,"dur":0.232,"vel":0.638,"inst":"bass_v0_struck_273","midi_source":""},{"t":102.638,"note":54,"dur":0.929,"vel":0.638,"inst":"guitar_v0_bass_381","midi_source":""},{"t":102.87,"note":42,"dur":0.232,"vel":0.638,"inst":"guitar_v0_bass_381","midi_source":""},{"t":103.102,"note":47,"dur":0.232,"vel":0.638,"inst":"bass_v0_struck_273","midi_source":""},{"t":103.335,"note":49,"dur":0.232,"vel":0.638,"inst":"bass_v0_struck_273","midi_source":""},{"t":103.567,"note":49,"dur":0.465,"vel":0.638,"inst":"bass_v0_struck_273","midi_source":""},{"t":103.567,"note":52,"dur":0.465,"vel":0.638,"inst":"guitar_v0_bass_381","midi_source":""},{"t":104.032,"note":28,"dur":0.465,"vel":0.638,"inst":"guitar_v0_bass_381","midi_source":""},{"t":104.032,"note":66,"dur":0.465,"vel":0.638,"inst":"guitar_v0_bass_381","midi_source":""},{"t":104.032,"note":64,"dur":0.465,"vel":0.638,"inst":"guitar_v0_bass_381","midi_source":""},{"t":104.032,"note":78,"dur":0.465,"vel":0.638,"inst":"guitar_v0_bass_381","midi_source":""},{"t":104.496,"note":40,"dur":0.465,"vel":0.638,"inst":"guitar_v0_bass_381","midi_source":""},{"t":104.496,"note":44,"dur":0.465,"vel":0.638,"inst":"guitar_v0_bass_381","midi_source":""},{"t":104.496,"note":40,"dur":0.465,"vel":0.638,"inst":"guitar_v0_bass_381","midi_source":""},{"t":104.496,"note":66,"dur":0.697,"vel":0.638,"inst":"guitar_v0_bass_381","midi_source":""},{"t":104.496,"note":64,"dur":0.697,"vel":0.638,"inst":"guitar_v0_bass_381","midi_source":""},{"t":104.496,"note":78,"dur":0.697,"vel":0.638,"inst":"guitar_v0_bass_381","midi_source":""},{"t":104.961,"note":40,"dur":0.465,"vel":0.638,"inst":"guitar_v0_bass_381","midi_source":""},{"t":104.961,"note":44,"dur":0.465,"vel":0.638,"inst":"guitar_v0_bass_381","midi_source":""},{"t":104.961,"note":40,"dur":0.465,"vel":0.638,"inst":"guitar_v0_bass_381","midi_source":""},{"t":105.193,"note":66,"dur":0.232,"vel":0.638,"inst":"guitar_v0_bass_381","midi_source":""},{"t":105.193,"note":64,"dur":0.232,"vel":0.638,"inst":"guitar_v0_bass_381","midi_source":""},{"t":105.193,"note":78,"dur":0.232,"vel":0.638,"inst":"guitar_v0_bass_381","midi_source":""},{"t":105.425,"note":28,"dur":0.465,"vel":0.638,"inst":"guitar_v0_bass_381","midi_source":""},{"t":105.425,"note":64,"dur":0.465,"vel":0.638,"inst":"guitar_v0_bass_381","midi_source":""},{"t":105.425,"note":64,"dur":0.465,"vel":0.638,"inst":"guitar_v0_bass_381","midi_source":""},{"t":105.425,"note":76,"dur":0.465,"vel":0.638,"inst":"guitar_v0_bass_381","midi_source":""},{"t":105.89,"note":40,"dur":0.465,"vel":0.638,"inst":"guitar_v0_bass_381","midi_source":""},{"t":105.89,"note":44,"dur":0.465,"vel":0.638,"inst":"guitar_v0_bass_381","midi_source":""},{"t":105.89,"note":40,"dur":0.465,"vel":0.638,"inst":"guitar_v0_bass_381","midi_source":""},{"t":105.89,"note":59,"dur":0.465,"vel":0.638,"inst":"bass_v0_struck_273","midi_source":""},{"t":105.89,"note":71,"dur":0.465,"vel":0.638,"inst":"bass_v0_struck_273","midi_source":""},{"t":106.355,"note":40,"dur":0.465,"vel":0.638,"inst":"guitar_v0_bass_381","midi_source":""},{"t":106.355,"note":44,"dur":0.465,"vel":0.638,"inst":"guitar_v0_bass_381","midi_source":""},{"t":106.355,"note":40,"dur":0.465,"vel":0.638,"inst":"guitar_v0_bass_381","midi_source":""},{"t":106.355,"note":61,"dur":0.465,"vel":0.638,"inst":"bass_v0_struck_273","midi_source":""},{"t":106.355,"note":73,"dur":0.465,"vel":0.638,"inst":"bass_v0_struck_273","midi_source":""},{"t":106.819,"note":24,"dur":0.465,"vel":0.638,"inst":"guitar_v0_bass_381","midi_source":""},{"t":106.819,"note":35,"dur":0.465,"vel":0.638,"inst":"bass_v0_struck_273","midi_source":""},{"t":106.819,"note":61,"dur":0.465,"vel":0.638,"inst":"bass_v0_struck_273","midi_source":""},{"t":106.819,"note":73,"dur":0.465,"vel":0.638,"inst":"bass_v0_struck_273","midi_source":""},{"t":107.284,"note":40,"dur":0.465,"vel":0.638,"inst":"guitar_v0_bass_381","midi_source":""},{"t":107.284,"note":47,"dur":0.465,"vel":0.638,"inst":"bass_v0_struck_273","midi_source":""},{"t":107.284,"note":49,"dur":0.465,"vel":0.638,"inst":"bass_v0_struck_273","midi_source":""},{"t":107.284,"note":64,"dur":0.232,"vel":0.638,"inst":"guitar_v0_bass_381","midi_source":""},{"t":107.516,"note":61,"dur":0.232,"vel":0.638,"inst":"bass_v0_struck_273","midi_source":""},{"t":107.749,"note":40,"dur":0.465,"vel":0.638,"inst":"guitar_v0_bass_381","midi_source":""},{"t":107.749,"note":47,"dur":0.465,"vel":0.638,"inst":"bass_v0_struck_273","midi_source":""},{"t":107.749,"note":49,"dur":0.465,"vel":0.638,"inst":"bass_v0_struck_273","midi_source":""},{"t":107.749,"note":61,"dur":0.232,"vel":0.638,"inst":"bass_v0_struck_273","midi_source":""},{"t":107.981,"note":56,"dur":0.232,"vel":0.638,"inst":"guitar_v0_bass_381","midi_source":""},{"t":108.213,"note":25,"dur":0.465,"vel":0.638,"inst":"bass_v0_struck_273","midi_source":""},{"t":108.213,"note":37,"dur":0.465,"vel":0.638,"inst":"bass_v0_struck_273","midi_source":""},{"t":108.213,"note":59,"dur":0.929,"vel":0.638,"inst":"bass_v0_struck_273","midi_source":""},{"t":108.678,"note":40,"dur":0.465,"vel":0.638,"inst":"guitar_v0_bass_381","midi_source":""},{"t":108.678,"note":47,"dur":0.465,"vel":0.638,"inst":"bass_v0_struck_273","midi_source":""},{"t":108.678,"note":49,"dur":0.465,"vel":0.638,"inst":"bass_v0_struck_273","midi_source":""},{"t":109.143,"note":40,"dur":0.465,"vel":0.638,"inst":"guitar_v0_bass_381","midi_source":""},{"t":109.143,"note":47,"dur":0.465,"vel":0.638,"inst":"bass_v0_struck_273","midi_source":""},{"t":109.143,"note":49,"dur":0.465,"vel":0.638,"inst":"bass_v0_struck_273","midi_source":""},{"t":109.143,"note":52,"dur":0.465,"vel":0.638,"inst":"guitar_v0_bass_381","midi_source":""},{"t":109.607,"note":24,"dur":0.465,"vel":0.638,"inst":"guitar_v0_bass_381","midi_source":""},{"t":109.607,"note":28,"dur":0.465,"vel":0.638,"inst":"guitar_v0_bass_381","midi_source":""},{"t":109.607,"note":54,"dur":0.232,"vel":0.638,"inst":"guitar_v0_bass_381","midi_source":""},{"t":109.84,"note":59,"dur":0.232,"vel":0.638,"inst":"bass_v0_struck_273","midi_source":""},{"t":110.072,"note":42,"dur":0.465,"vel":0.638,"inst":"guitar_v0_bass_381","midi_source":""},{"t":110.072,"note":47,"dur":0.465,"vel":0.638,"inst":"bass_v0_struck_273","midi_source":""},{"t":110.072,"note":40,"dur":0.465,"vel":0.638,"inst":"guitar_v0_bass_381","midi_source":""},{"t":110.072,"note":59,"dur":0.232,"vel":0.638,"inst":"bass_v0_struck_273","midi_source":""},{"t":110.304,"note":59,"dur":0.232,"vel":0.638,"inst":"bass_v0_struck_273","midi_source":""},{"t":110.537,"note":42,"dur":0.465,"vel":0.638,"inst":"guitar_v0_bass_381","midi_source":""},{"t":110.537,"note":47,"dur":0.465,"vel":0.638,"inst":"bass_v0_struck_273","midi_source":""},{"t":110.537,"note":40,"dur":0.465,"vel":0.638,"inst":"guitar_v0_bass_381","midi_source":""},{"t":110.537,"note":59,"dur":0.232,"vel":0.638,"inst":"bass_v0_struck_273","midi_source":""},{"t":110.769,"note":54,"dur":0.232,"vel":0.638,"inst":"guitar_v0_bass_381","midi_source":""},{"t":111.001,"note":25,"dur":0.465,"vel":0.638,"inst":"bass_v0_struck_273","midi_source":""},{"t":111.001,"note":37,"dur":0.465,"vel":0.638,"inst":"bass_v0_struck_273","midi_source":""},{"t":111.001,"note":52,"dur":0.929,"vel":0.638,"inst":"guitar_v0_bass_381","midi_source":""},{"t":111.466,"note":40,"dur":0.465,"vel":0.638,"inst":"guitar_v0_bass_381","midi_source":""},{"t":111.466,"note":47,"dur":0.465,"vel":0.638,"inst":"bass_v0_struck_273","midi_source":""},{"t":111.466,"note":49,"dur":0.465,"vel":0.638,"inst":"bass_v0_struck_273","midi_source":""},{"t":111.931,"note":35,"dur":0.232,"vel":0.638,"inst":"bass_v0_struck_273","midi_source":""},{"t":111.931,"note":54,"dur":0.929,"vel":0.638,"inst":"guitar_v0_bass_381","midi_source":""},{"t":112.163,"note":42,"dur":0.232,"vel":0.638,"inst":"guitar_v0_bass_381","midi_source":""},{"t":112.395,"note":47,"dur":0.232,"vel":0.638,"inst":"bass_v0_struck_273","midi_source":""},{"t":112.627,"note":49,"dur":0.232,"vel":0.638,"inst":"bass_v0_struck_273","midi_source":""},{"t":112.86,"note":49,"dur":0.465,"vel":0.638,"inst":"bass_v0_struck_273","midi_source":""},{"t":112.86,"note":52,"dur":0.465,"vel":0.638,"inst":"guitar_v0_bass_381","midi_source":""},{"t":113.324,"note":28,"dur":0.465,"vel":0.638,"inst":"guitar_v0_bass_381","midi_source":""},{"t":113.324,"note":66,"dur":0.465,"vel":0.638,"inst":"guitar_v0_bass_381","midi_source":""},{"t":113.324,"note":64,"dur":0.465,"vel":0.638,"inst":"guitar_v0_bass_381","midi_source":""},{"t":113.324,"note":78,"dur":0.465,"vel":0.638,"inst":"guitar_v0_bass_381","midi_source":""},{"t":113.789,"note":40,"dur":0.465,"vel":0.638,"inst":"guitar_v0_bass_381","midi_source":""},{"t":113.789,"note":44,"dur":0.465,"vel":0.638,"inst":"guitar_v0_bass_381","midi_source":""},{"t":113.789,"note":40,"dur":0.465,"vel":0.638,"inst":"guitar_v0_bass_381","midi_source":""},{"t":113.789,"note":66,"dur":0.697,"vel":0.638,"inst":"guitar_v0_bass_381","midi_source":""},{"t":113.789,"note":64,"dur":0.697,"vel":0.638,"inst":"guitar_v0_bass_381","midi_source":""},{"t":113.789,"note":78,"dur":0.697,"vel":0.638,"inst":"guitar_v0_bass_381","midi_source":""},{"t":114.254,"note":40,"dur":0.465,"vel":0.638,"inst":"guitar_v0_bass_381","midi_source":""},{"t":114.254,"note":44,"dur":0.465,"vel":0.638,"inst":"guitar_v0_bass_381","midi_source":""},{"t":114.254,"note":40,"dur":0.465,"vel":0.638,"inst":"guitar_v0_bass_381","midi_source":""},{"t":114.486,"note":66,"dur":0.232,"vel":0.638,"inst":"guitar_v0_bass_381","midi_source":""},{"t":114.486,"note":64,"dur":0.232,"vel":0.638,"inst":"guitar_v0_bass_381","midi_source":""},{"t":114.486,"note":78,"dur":0.232,"vel":0.638,"inst":"guitar_v0_bass_381","midi_source":""},{"t":114.718,"note":28,"dur":0.465,"vel":0.638,"inst":"guitar_v0_bass_381","midi_source":""},{"t":114.718,"note":64,"dur":0.465,"vel":0.638,"inst":"guitar_v0_bass_381","midi_source":""},{"t":114.718,"note":64,"dur":0.465,"vel":0.638,"inst":"guitar_v0_bass_381","midi_source":""},{"t":114.718,"note":76,"dur":0.465,"vel":0.638,"inst":"guitar_v0_bass_381","midi_source":""},{"t":115.183,"note":40,"dur":0.465,"vel":0.638,"inst":"guitar_v0_bass_381","midi_source":""},{"t":115.183,"note":44,"dur":0.465,"vel":0.638,"inst":"guitar_v0_bass_381","midi_source":""},{"t":115.183,"note":40,"dur":0.465,"vel":0.638,"inst":"guitar_v0_bass_381","midi_source":""},{"t":115.183,"note":59,"dur":0.465,"vel":0.638,"inst":"bass_v0_struck_273","midi_source":""},{"t":115.183,"note":71,"dur":0.465,"vel":0.638,"inst":"bass_v0_struck_273","midi_source":""},{"t":115.648,"note":40,"dur":0.465,"vel":0.638,"inst":"guitar_v0_bass_381","midi_source":""},{"t":115.648,"note":44,"dur":0.465,"vel":0.638,"inst":"guitar_v0_bass_381","midi_source":""},{"t":115.648,"note":40,"dur":0.465,"vel":0.638,"inst":"guitar_v0_bass_381","midi_source":""},{"t":115.648,"note":61,"dur":0.465,"vel":0.638,"inst":"bass_v0_struck_273","midi_source":""},{"t":115.648,"note":73,"dur":0.465,"vel":0.638,"inst":"bass_v0_struck_273","midi_source":""},{"t":116.112,"note":24,"dur":0.465,"vel":0.638,"inst":"guitar_v0_bass_381","midi_source":""},{"t":116.112,"note":35,"dur":0.465,"vel":0.638,"inst":"bass_v0_struck_273","midi_source":""},{"t":116.112,"note":61,"dur":0.465,"vel":0.638,"inst":"bass_v0_struck_273","midi_source":""},{"t":116.112,"note":73,"dur":0.465,"vel":0.638,"inst":"bass_v0_struck_273","midi_source":""},{"t":116.577,"note":40,"dur":0.465,"vel":0.638,"inst":"guitar_v0_bass_381","midi_source":""},{"t":116.577,"note":47,"dur":0.465,"vel":0.638,"inst":"bass_v0_struck_273","midi_source":""},{"t":116.577,"note":49,"dur":0.465,"vel":0.638,"inst":"bass_v0_struck_273","midi_source":""},{"t":116.577,"note":64,"dur":0.232,"vel":0.638,"inst":"guitar_v0_bass_381","midi_source":""},{"t":116.809,"note":61,"dur":0.232,"vel":0.638,"inst":"bass_v0_struck_273","midi_source":""},{"t":117.042,"note":40,"dur":0.465,"vel":0.638,"inst":"guitar_v0_bass_381","midi_source":""},{"t":117.042,"note":47,"dur":0.465,"vel":0.638,"inst":"bass_v0_struck_273","midi_source":""},{"t":117.042,"note":49,"dur":0.465,"vel":0.638,"inst":"bass_v0_struck_273","midi_source":""},{"t":117.042,"note":61,"dur":0.232,"vel":0.638,"inst":"bass_v0_struck_273","midi_source":""},{"t":117.274,"note":56,"dur":0.232,"vel":0.638,"inst":"guitar_v0_bass_381","midi_source":""},{"t":117.506,"note":25,"dur":0.465,"vel":0.638,"inst":"bass_v0_struck_273","midi_source":""},{"t":117.506,"note":37,"dur":0.465,"vel":0.638,"inst":"bass_v0_struck_273","midi_source":""},{"t":117.506,"note":59,"dur":0.929,"vel":0.638,"inst":"bass_v0_struck_273","midi_source":""},{"t":117.971,"note":40,"dur":0.465,"vel":0.638,"inst":"guitar_v0_bass_381","midi_source":""},{"t":117.971,"note":47,"dur":0.465,"vel":0.638,"inst":"bass_v0_struck_273","midi_source":""},{"t":117.971,"note":49,"dur":0.465,"vel":0.638,"inst":"bass_v0_struck_273","midi_source":""},{"t":118.436,"note":40,"dur":0.465,"vel":0.638,"inst":"guitar_v0_bass_381","midi_source":""},{"t":118.436,"note":47,"dur":0.465,"vel":0.638,"inst":"bass_v0_struck_273","midi_source":""},{"t":118.436,"note":49,"dur":0.465,"vel":0.638,"inst":"bass_v0_struck_273","midi_source":""},{"t":118.436,"note":52,"dur":0.465,"vel":0.638,"inst":"guitar_v0_bass_381","midi_source":""},{"t":118.9,"note":24,"dur":0.465,"vel":0.638,"inst":"guitar_v0_bass_381","midi_source":""},{"t":118.9,"note":28,"dur":0.465,"vel":0.638,"inst":"guitar_v0_bass_381","midi_source":""},{"t":118.9,"note":54,"dur":0.232,"vel":0.638,"inst":"guitar_v0_bass_381","midi_source":""},{"t":119.132,"note":59,"dur":0.232,"vel":0.638,"inst":"bass_v0_struck_273","midi_source":""},{"t":119.365,"note":42,"dur":0.465,"vel":0.638,"inst":"guitar_v0_bass_381","midi_source":""},{"t":119.365,"note":47,"dur":0.465,"vel":0.638,"inst":"bass_v0_struck_273","midi_source":""},{"t":119.365,"note":40,"dur":0.465,"vel":0.638,"inst":"guitar_v0_bass_381","midi_source":""},{"t":119.365,"note":59,"dur":0.232,"vel":0.638,"inst":"bass_v0_struck_273","midi_source":""},{"t":119.597,"note":59,"dur":0.232,"vel":0.638,"inst":"bass_v0_struck_273","midi_source":""},{"t":119.829,"note":42,"dur":0.465,"vel":0.638,"inst":"guitar_v0_bass_381","midi_source":""},{"t":119.829,"note":47,"dur":0.465,"vel":0.638,"inst":"bass_v0_struck_273","midi_source":""},{"t":119.829,"note":40,"dur":0.465,"vel":0.638,"inst":"guitar_v0_bass_381","midi_source":""},{"t":119.829,"note":59,"dur":0.232,"vel":0.638,"inst":"bass_v0_struck_273","midi_source":""},{"t":120.062,"note":54,"dur":0.232,"vel":0.638,"inst":"guitar_v0_bass_381","midi_source":""},{"t":120.294,"note":25,"dur":0.465,"vel":0.638,"inst":"bass_v0_struck_273","midi_source":""},{"t":120.294,"note":37,"dur":0.465,"vel":0.638,"inst":"bass_v0_struck_273","midi_source":""},{"t":120.294,"note":52,"dur":0.929,"vel":0.638,"inst":"guitar_v0_bass_381","midi_source":""},{"t":120.759,"note":40,"dur":0.465,"vel":0.638,"inst":"guitar_v0_bass_381","midi_source":""},{"t":120.759,"note":47,"dur":0.465,"vel":0.638,"inst":"bass_v0_struck_273","midi_source":""},{"t":120.759,"note":49,"dur":0.465,"vel":0.638,"inst":"bass_v0_struck_273","midi_source":""},{"t":121.223,"note":35,"dur":0.232,"vel":0.638,"inst":"bass_v0_struck_273","midi_source":""},{"t":121.223,"note":54,"dur":0.929,"vel":0.638,"inst":"guitar_v0_bass_381","midi_source":""},{"t":121.456,"note":42,"dur":0.232,"vel":0.638,"inst":"guitar_v0_bass_381","midi_source":""},{"t":121.688,"note":47,"dur":0.232,"vel":0.638,"inst":"bass_v0_struck_273","midi_source":""},{"t":121.92,"note":49,"dur":0.232,"vel":0.638,"inst":"bass_v0_struck_273","midi_source":""},{"t":122.153,"note":49,"dur":0.465,"vel":0.638,"inst":"bass_v0_struck_273","midi_source":""},{"t":122.153,"note":52,"dur":0.465,"vel":0.638,"inst":"guitar_v0_bass_381","midi_source":""},{"t":122.617,"note":28,"dur":0.465,"vel":0.638,"inst":"guitar_v0_bass_381","midi_source":""},{"t":122.617,"note":66,"dur":0.465,"vel":0.638,"inst":"guitar_v0_bass_381","midi_source":""},{"t":122.617,"note":64,"dur":0.465,"vel":0.638,"inst":"guitar_v0_bass_381","midi_source":""},{"t":122.617,"note":78,"dur":0.465,"vel":0.638,"inst":"guitar_v0_bass_381","midi_source":""},{"t":123.082,"note":40,"dur":0.465,"vel":0.638,"inst":"guitar_v0_bass_381","midi_source":""},{"t":123.082,"note":44,"dur":0.465,"vel":0.638,"inst":"guitar_v0_bass_381","midi_source":""},{"t":123.082,"note":40,"dur":0.465,"vel":0.638,"inst":"guitar_v0_bass_381","midi_source":""},{"t":123.082,"note":66,"dur":0.697,"vel":0.638,"inst":"guitar_v0_bass_381","midi_source":""},{"t":123.082,"note":64,"dur":0.697,"vel":0.638,"inst":"guitar_v0_bass_381","midi_source":""},{"t":123.082,"note":78,"dur":0.697,"vel":0.638,"inst":"guitar_v0_bass_381","midi_source":""},{"t":123.547,"note":40,"dur":0.465,"vel":0.638,"inst":"guitar_v0_bass_381","midi_source":""},{"t":123.547,"note":44,"dur":0.465,"vel":0.638,"inst":"guitar_v0_bass_381","midi_source":""},{"t":123.547,"note":40,"dur":0.465,"vel":0.638,"inst":"guitar_v0_bass_381","midi_source":""},{"t":123.779,"note":66,"dur":0.232,"vel":0.638,"inst":"guitar_v0_bass_381","midi_source":""},{"t":123.779,"note":64,"dur":0.232,"vel":0.638,"inst":"guitar_v0_bass_381","midi_source":""},{"t":123.779,"note":78,"dur":0.232,"vel":0.638,"inst":"guitar_v0_bass_381","midi_source":""},{"t":124.011,"note":28,"dur":0.465,"vel":0.638,"inst":"guitar_v0_bass_381","midi_source":""},{"t":124.011,"note":64,"dur":0.465,"vel":0.638,"inst":"guitar_v0_bass_381","midi_source":""},{"t":124.011,"note":64,"dur":0.465,"vel":0.638,"inst":"guitar_v0_bass_381","midi_source":""},{"t":124.011,"note":76,"dur":0.465,"vel":0.638,"inst":"guitar_v0_bass_381","midi_source":""},{"t":124.476,"note":40,"dur":0.465,"vel":0.638,"inst":"guitar_v0_bass_381","midi_source":""},{"t":124.476,"note":44,"dur":0.465,"vel":0.638,"inst":"guitar_v0_bass_381","midi_source":""},{"t":124.476,"note":40,"dur":0.465,"vel":0.638,"inst":"guitar_v0_bass_381","midi_source":""},{"t":124.476,"note":59,"dur":0.465,"vel":0.638,"inst":"bass_v0_struck_273","midi_source":""},{"t":124.476,"note":71,"dur":0.465,"vel":0.638,"inst":"bass_v0_struck_273","midi_source":""},{"t":124.941,"note":40,"dur":0.465,"vel":0.638,"inst":"guitar_v0_bass_381","midi_source":""},{"t":124.941,"note":44,"dur":0.465,"vel":0.638,"inst":"guitar_v0_bass_381","midi_source":""},{"t":124.941,"note":40,"dur":0.465,"vel":0.638,"inst":"guitar_v0_bass_381","midi_source":""},{"t":124.941,"note":61,"dur":0.465,"vel":0.638,"inst":"bass_v0_struck_273","midi_source":""},{"t":124.941,"note":73,"dur":0.465,"vel":0.638,"inst":"bass_v0_struck_273","midi_source":""},{"t":125.405,"note":24,"dur":0.465,"vel":0.638,"inst":"guitar_v0_bass_381","midi_source":""},{"t":125.405,"note":35,"dur":0.465,"vel":0.638,"inst":"bass_v0_struck_273","midi_source":""},{"t":125.405,"note":61,"dur":0.465,"vel":0.638,"inst":"bass_v0_struck_273","midi_source":""},{"t":125.405,"note":73,"dur":0.465,"vel":0.638,"inst":"bass_v0_struck_273","midi_source":""},{"t":125.87,"note":40,"dur":0.38,"vel":0.638,"inst":"guitar_v0_bass_381","midi_source":""},{"t":125.87,"note":47,"dur":0.38,"vel":0.638,"inst":"bass_v0_struck_273","midi_source":""},{"t":125.87,"note":49,"dur":0.38,"vel":0.638,"inst":"bass_v0_struck_273","midi_source":""},{"t":125.87,"note":64,"dur":0.232,"vel":0.638,"inst":"guitar_v0_bass_381","midi_source":""},{"t":126.102,"note":61,"dur":0.148,"vel":0.638,"inst":"bass_v0_struck_273","midi_source":""},{"t":126.53,"note":57,"dur":0.472,"vel":0.787,"inst":"bass_v0_blown_220","midi_source":""},{"t":127.002,"note":40,"dur":0.944,"vel":0.787,"inst":"synth_supersaw_v0_bowed_211","midi_source":""},{"t":127.002,"note":57,"dur":0.472,"vel":0.787,"inst":"bass_v0_blown_220","midi_source":""},{"t":127.474,"note":59,"dur":0.472,"vel":0.787,"inst":"bass_v0_blown_220","midi_source":""},{"t":127.946,"note":43,"dur":0.944,"vel":0.787,"inst":"bass_v0_blown_220","midi_source":""},{"t":127.946,"note":45,"dur":0.944,"vel":0.787,"inst":"bass_v0_blown_220","midi_source":""},{"t":127.946,"note":57,"dur":0.472,"vel":0.787,"inst":"bass_v0_blown_220","midi_source":""},{"t":128.418,"note":59,"dur":0.472,"vel":0.787,"inst":"bass_v0_blown_220","midi_source":""},{"t":128.89,"note":40,"dur":0.944,"vel":0.787,"inst":"synth_supersaw_v0_bowed_211","midi_source":""},{"t":128.89,"note":61,"dur":0.472,"vel":0.787,"inst":"bass_v0_blown_220","midi_source":""},{"t":129.362,"note":59,"dur":0.236,"vel":0.787,"inst":"bass_v0_blown_220","midi_source":""},{"t":129.598,"note":59,"dur":0.236,"vel":0.787,"inst":"bass_v0_blown_220","midi_source":""},{"t":129.834,"note":43,"dur":0.944,"vel":0.787,"inst":"bass_v0_blown_220","midi_source":""},{"t":129.834,"note":45,"dur":0.944,"vel":0.787,"inst":"bass_v0_blown_220","midi_source":""},{"t":129.834,"note":57,"dur":0.472,"vel":0.787,"inst":"bass_v0_blown_220","midi_source":""},{"t":130.306,"note":59,"dur":0.472,"vel":0.787,"inst":"bass_v0_blown_220","midi_source":""},{"t":130.778,"note":38,"dur":0.944,"vel":0.787,"inst":"synth_supersaw_v0_bowed_211","midi_source":""},{"t":130.778,"note":61,"dur":0.472,"vel":0.787,"inst":"bass_v0_blown_220","midi_source":""},{"t":131.25,"note":62,"dur":0.472,"vel":0.787,"inst":"synth_supersaw_v0_bowed_211","midi_source":""},{"t":131.722,"note":45,"dur":0.944,"vel":0.787,"inst":"bass_v0_blown_220","midi_source":""},{"t":131.722,"note":61,"dur":0.472,"vel":0.787,"inst":"bass_v0_blown_220","midi_source":""},{"t":132.194,"note":62,"dur":0.472,"vel":0.787,"inst":"synth_supersaw_v0_bowed_211","midi_source":""},{"t":132.665,"note":38,"dur":0.944,"vel":0.787,"inst":"synth_supersaw_v0_bowed_211","midi_source":""},{"t":132.665,"note":64,"dur":0.472,"vel":0.787,"inst":"synth_supersaw_v0_bowed_211","midi_source":""},{"t":133.137,"note":62,"dur":0.472,"vel":0.787,"inst":"synth_supersaw_v0_bowed_211","midi_source":""},{"t":133.609,"note":42,"dur":0.944,"vel":0.787,"inst":"synth_supersaw_v0_bowed_211","midi_source":""},{"t":133.609,"note":45,"dur":0.944,"vel":0.787,"inst":"bass_v0_blown_220","midi_source":""},{"t":133.609,"note":61,"dur":0.472,"vel":0.787,"inst":"bass_v0_blown_220","midi_source":""},{"t":134.081,"note":62,"dur":0.472,"vel":0.787,"inst":"synth_supersaw_v0_bowed_211","midi_source":""},{"t":134.553,"note":40,"dur":0.944,"vel":0.787,"inst":"synth_supersaw_v0_bowed_211","midi_source":""},{"t":134.553,"note":61,"dur":0.472,"vel":0.787,"inst":"bass_v0_blown_220","midi_source":""},{"t":135.025,"note":59,"dur":0.472,"vel":0.787,"inst":"bass_v0_blown_220","midi_source":""},{"t":135.497,"note":43,"dur":0.944,"vel":0.787,"inst":"bass_v0_blown_220","midi_source":""},{"t":135.497,"note":45,"dur":0.944,"vel":0.787,"inst":"bass_v0_blown_220","midi_source":""},{"t":135.497,"note":57,"dur":0.472,"vel":0.787,"inst":"bass_v0_blown_220","midi_source":""},{"t":135.969,"note":59,"dur":0.472,"vel":0.787,"inst":"bass_v0_blown_220","midi_source":""},{"t":136.441,"note":57,"dur":0.472,"vel":0.787,"inst":"bass_v0_blown_220","midi_source":""},{"t":136.913,"note":40,"dur":0.944,"vel":0.787,"inst":"synth_supersaw_v0_bowed_211","midi_source":""},{"t":136.913,"note":57,"dur":0.472,"vel":0.787,"inst":"bass_v0_blown_220","midi_source":""},{"t":137.385,"note":59,"dur":0.472,"vel":0.787,"inst":"bass_v0_blown_220","midi_source":""},{"t":137.857,"note":43,"dur":0.944,"vel":0.787,"inst":"bass_v0_blown_220","midi_source":""},{"t":137.857,"note":45,"dur":0.944,"vel":0.787,"inst":"bass_v0_blown_220","midi_source":""},{"t":137.857,"note":57,"dur":0.472,"vel":0.787,"inst":"bass_v0_blown_220","midi_source":""},{"t":138.329,"note":59,"dur":0.472,"vel":0.787,"inst":"bass_v0_blown_220","midi_source":""},{"t":138.801,"note":40,"dur":0.944,"vel":0.787,"inst":"synth_supersaw_v0_bowed_211","midi_source":""},{"t":138.801,"note":61,"dur":0.472,"vel":0.787,"inst":"bass_v0_blown_220","midi_source":""},{"t":139.273,"note":59,"dur":0.236,"vel":0.787,"inst":"bass_v0_blown_220","midi_source":""},{"t":139.509,"note":59,"dur":0.236,"vel":0.787,"inst":"bass_v0_blown_220","midi_source":""},{"t":139.745,"note":43,"dur":0.944,"vel":0.787,"inst":"bass_v0_blown_220","midi_source":""},{"t":139.745,"note":45,"dur":0.944,"vel":0.787,"inst":"bass_v0_blown_220","midi_source":""},{"t":139.745,"note":57,"dur":0.472,"vel":0.787,"inst":"bass_v0_blown_220","midi_source":""},{"t":140.217,"note":59,"dur":0.472,"vel":0.787,"inst":"bass_v0_blown_220","midi_source":""},{"t":140.688,"note":38,"dur":0.944,"vel":0.787,"inst":"synth_supersaw_v0_bowed_211","midi_source":""},{"t":140.688,"note":61,"dur":0.472,"vel":0.787,"inst":"bass_v0_blown_220","midi_source":""},{"t":141.16,"note":62,"dur":0.472,"vel":0.787,"inst":"synth_supersaw_v0_bowed_211","midi_source":""},{"t":141.632,"note":45,"dur":0.944,"vel":0.787,"inst":"bass_v0_blown_220","midi_source":""},{"t":141.632,"note":61,"dur":0.472,"vel":0.787,"inst":"bass_v0_blown_220","midi_source":""},{"t":142.104,"note":62,"dur":0.472,"vel":0.787,"inst":"synth_supersaw_v0_bowed_211","midi_source":""},{"t":142.576,"note":38,"dur":0.944,"vel":0.787,"inst":"synth_supersaw_v0_bowed_211","midi_source":""},{"t":142.576,"note":64,"dur":0.472,"vel":0.787,"inst":"synth_supersaw_v0_bowed_211","midi_source":""},{"t":143.048,"note":62,"dur":0.472,"vel":0.787,"inst":"synth_supersaw_v0_bowed_211","midi_source":""},{"t":143.52,"note":42,"dur":0.944,"vel":0.787,"inst":"synth_supersaw_v0_bowed_211","midi_source":""},{"t":143.52,"note":45,"dur":0.944,"vel":0.787,"inst":"bass_v0_blown_220","midi_source":""},{"t":143.52,"note":61,"dur":0.472,"vel":0.787,"inst":"bass_v0_blown_220","midi_source":""},{"t":143.992,"note":62,"dur":0.472,"vel":0.787,"inst":"synth_supersaw_v0_bowed_211","midi_source":""},{"t":144.464,"note":40,"dur":0.944,"vel":0.787,"inst":"synth_supersaw_v0_bowed_211","midi_source":""},{"t":144.464,"note":61,"dur":0.472,"vel":0.787,"inst":"bass_v0_blown_220","midi_source":""},{"t":144.936,"note":59,"dur":0.472,"vel":0.787,"inst":"bass_v0_blown_220","midi_source":""},{"t":145.408,"note":43,"dur":0.944,"vel":0.787,"inst":"bass_v0_blown_220","midi_source":""},{"t":145.408,"note":45,"dur":0.944,"vel":0.787,"inst":"bass_v0_blown_220","midi_source":""},{"t":145.408,"note":57,"dur":0.472,"vel":0.787,"inst":"bass_v0_blown_220","midi_source":""},{"t":145.88,"note":59,"dur":0.472,"vel":0.787,"inst":"bass_v0_blown_220","midi_source":""},{"t":146.352,"note":57,"dur":0.472,"vel":0.787,"inst":"bass_v0_blown_220","midi_source":""},{"t":146.824,"note":40,"dur":0.944,"vel":0.787,"inst":"synth_supersaw_v0_bowed_211","midi_source":""},{"t":146.824,"note":57,"dur":0.472,"vel":0.787,"inst":"bass_v0_blown_220","midi_source":""},{"t":147.296,"note":59,"dur":0.472,"vel":0.787,"inst":"bass_v0_blown_220","midi_source":""},{"t":147.768,"note":43,"dur":0.944,"vel":0.787,"inst":"bass_v0_blown_220","midi_source":""},{"t":147.768,"note":45,"dur":0.944,"vel":0.787,"inst":"bass_v0_blown_220","midi_source":""},{"t":147.768,"note":57,"dur":0.472,"vel":0.787,"inst":"bass_v0_blown_220","midi_source":""},{"t":148.24,"note":59,"dur":0.472,"vel":0.787,"inst":"bass_v0_blown_220","midi_source":""},{"t":148.711,"note":40,"dur":0.944,"vel":0.787,"inst":"synth_supersaw_v0_bowed_211","midi_source":""},{"t":148.711,"note":61,"dur":0.472,"vel":0.787,"inst":"bass_v0_blown_220","midi_source":""},{"t":149.183,"note":59,"dur":0.236,"vel":0.787,"inst":"bass_v0_blown_220","midi_source":""},{"t":149.419,"note":59,"dur":0.236,"vel":0.787,"inst":"bass_v0_blown_220","midi_source":""},{"t":149.655,"note":43,"dur":0.944,"vel":0.787,"inst":"bass_v0_blown_220","midi_source":""},{"t":149.655,"note":45,"dur":0.944,"vel":0.787,"inst":"bass_v0_blown_220","midi_source":""},{"t":149.655,"note":57,"dur":0.472,"vel":0.787,"inst":"bass_v0_blown_220","midi_source":""},{"t":150.127,"note":59,"dur":0.472,"vel":0.787,"inst":"bass_v0_blown_220","midi_source":""},{"t":150.599,"note":38,"dur":0.944,"vel":0.787,"inst":"synth_supersaw_v0_bowed_211","midi_source":""},{"t":150.599,"note":61,"dur":0.472,"vel":0.787,"inst":"bass_v0_blown_220","midi_source":""},{"t":151.071,"note":62,"dur":0.472,"vel":0.787,"inst":"synth_supersaw_v0_bowed_211","midi_source":""},{"t":151.543,"note":45,"dur":0.944,"vel":0.787,"inst":"bass_v0_blown_220","midi_source":""},{"t":151.543,"note":61,"dur":0.472,"vel":0.787,"inst":"bass_v0_blown_220","midi_source":""},{"t":152.015,"note":62,"dur":0.472,"vel":0.787,"inst":"synth_supersaw_v0_bowed_211","midi_source":""},{"t":152.487,"note":38,"dur":0.944,"vel":0.787,"inst":"synth_supersaw_v0_bowed_211","midi_source":""},{"t":152.487,"note":64,"dur":0.472,"vel":0.787,"inst":"synth_supersaw_v0_bowed_211","midi_source":""},{"t":152.959,"note":62,"dur":0.472,"vel":0.787,"inst":"synth_supersaw_v0_bowed_211","midi_source":""},{"t":153.431,"note":42,"dur":0.944,"vel":0.787,"inst":"synth_supersaw_v0_bowed_211","midi_source":""},{"t":153.431,"note":45,"dur":0.944,"vel":0.787,"inst":"bass_v0_blown_220","midi_source":""},{"t":153.431,"note":61,"dur":0.472,"vel":0.787,"inst":"bass_v0_blown_220","midi_source":""},{"t":153.903,"note":62,"dur":0.472,"vel":0.787,"inst":"synth_supersaw_v0_bowed_211","midi_source":""},{"t":154.375,"note":40,"dur":0.944,"vel":0.787,"inst":"synth_supersaw_v0_bowed_211","midi_source":""},{"t":154.375,"note":61,"dur":0.472,"vel":0.787,"inst":"bass_v0_blown_220","midi_source":""},{"t":154.847,"note":59,"dur":0.472,"vel":0.787,"inst":"bass_v0_blown_220","midi_source":""},{"t":155.319,"note":43,"dur":0.944,"vel":0.787,"inst":"bass_v0_blown_220","midi_source":""},{"t":155.319,"note":45,"dur":0.944,"vel":0.787,"inst":"bass_v0_blown_220","midi_source":""},{"t":155.319,"note":57,"dur":0.472,"vel":0.787,"inst":"bass_v0_blown_220","midi_source":""},{"t":155.791,"note":59,"dur":0.472,"vel":0.787,"inst":"bass_v0_blown_220","midi_source":""},{"t":156.263,"note":57,"dur":0.472,"vel":0.787,"inst":"bass_v0_blown_220","midi_source":""},{"t":156.734,"note":40,"dur":0.944,"vel":0.787,"inst":"synth_supersaw_v0_bowed_211","midi_source":""},{"t":156.734,"note":57,"dur":0.472,"vel":0.787,"inst":"bass_v0_blown_220","midi_source":""},{"t":157.206,"note":59,"dur":0.472,"vel":0.787,"inst":"bass_v0_blown_220","midi_source":""},{"t":157.678,"note":43,"dur":0.944,"vel":0.787,"inst":"bass_v0_blown_220","midi_source":""},{"t":157.678,"note":45,"dur":0.944,"vel":0.787,"inst":"bass_v0_blown_220","midi_source":""},{"t":157.678,"note":57,"dur":0.472,"vel":0.787,"inst":"bass_v0_blown_220","midi_source":""},{"t":158.15,"note":59,"dur":0.472,"vel":0.787,"inst":"bass_v0_blown_220","midi_source":""},{"t":158.622,"note":40,"dur":0.944,"vel":0.787,"inst":"synth_supersaw_v0_bowed_211","midi_source":""},{"t":158.622,"note":61,"dur":0.472,"vel":0.787,"inst":"bass_v0_blown_220","midi_source":""},{"t":159.094,"note":59,"dur":0.236,"vel":0.787,"inst":"bass_v0_blown_220","midi_source":""},{"t":159.33,"note":59,"dur":0.236,"vel":0.787,"inst":"bass_v0_blown_220","midi_source":""},{"t":159.566,"note":43,"dur":0.944,"vel":0.787,"inst":"bass_v0_blown_220","midi_source":""},{"t":159.566,"note":45,"dur":0.944,"vel":0.787,"inst":"bass_v0_blown_220","midi_source":""},{"t":159.566,"note":57,"dur":0.472,"vel":0.787,"inst":"bass_v0_blown_220","midi_source":""},{"t":160.038,"note":59,"dur":0.472,"vel":0.787,"inst":"bass_v0_blown_220","midi_source":""},{"t":160.51,"note":38,"dur":0.944,"vel":0.787,"inst":"synth_supersaw_v0_bowed_211","midi_source":""},{"t":160.51,"note":61,"dur":0.472,"vel":0.787,"inst":"bass_v0_blown_220","midi_source":""},{"t":160.982,"note":62,"dur":0.472,"vel":0.787,"inst":"synth_supersaw_v0_bowed_211","midi_source":""},{"t":161.454,"note":45,"dur":0.944,"vel":0.787,"inst":"bass_v0_blown_220","midi_source":""},{"t":161.454,"note":61,"dur":0.472,"vel":0.787,"inst":"bass_v0_blown_220","midi_source":""},{"t":161.926,"note":62,"dur":0.472,"vel":0.787,"inst":"synth_supersaw_v0_bowed_211","midi_source":""},{"t":162.398,"note":38,"dur":0.944,"vel":0.787,"inst":"synth_supersaw_v0_bowed_211","midi_source":""},{"t":162.398,"note":64,"dur":0.472,"vel":0.787,"inst":"synth_supersaw_v0_bowed_211","midi_source":""},{"t":162.87,"note":62,"dur":0.472,"vel":0.787,"inst":"synth_supersaw_v0_bowed_211","midi_source":""},{"t":163.342,"note":42,"dur":0.944,"vel":0.787,"inst":"synth_supersaw_v0_bowed_211","midi_source":""},{"t":163.342,"note":45,"dur":0.944,"vel":0.787,"inst":"bass_v0_blown_220","midi_source":""},{"t":163.342,"note":61,"dur":0.472,"vel":0.787,"inst":"bass_v0_blown_220","midi_source":""},{"t":163.814,"note":62,"dur":0.472,"vel":0.787,"inst":"synth_supersaw_v0_bowed_211","midi_source":""},{"t":164.286,"note":40,"dur":0.944,"vel":0.787,"inst":"synth_supersaw_v0_bowed_211","midi_source":""},{"t":164.286,"note":61,"dur":0.472,"vel":0.787,"inst":"bass_v0_blown_220","midi_source":""},{"t":164.757,"note":59,"dur":0.472,"vel":0.787,"inst":"bass_v0_blown_220","midi_source":""},{"t":165.229,"note":43,"dur":0.944,"vel":0.787,"inst":"bass_v0_blown_220","midi_source":""},{"t":165.229,"note":45,"dur":0.944,"vel":0.787,"inst":"bass_v0_blown_220","midi_source":""},{"t":165.229,"note":57,"dur":0.472,"vel":0.787,"inst":"bass_v0_blown_220","midi_source":""},{"t":165.701,"note":59,"dur":0.472,"vel":0.787,"inst":"bass_v0_blown_220","midi_source":""},{"t":166.173,"note":57,"dur":0.472,"vel":0.787,"inst":"bass_v0_blown_220","midi_source":""},{"t":166.645,"note":40,"dur":0.944,"vel":0.787,"inst":"synth_supersaw_v0_bowed_211","midi_source":""},{"t":166.645,"note":57,"dur":0.472,"vel":0.787,"inst":"bass_v0_blown_220","midi_source":""},{"t":167.117,"note":59,"dur":0.472,"vel":0.787,"inst":"bass_v0_blown_220","midi_source":""},{"t":167.589,"note":43,"dur":0.944,"vel":0.787,"inst":"bass_v0_blown_220","midi_source":""},{"t":167.589,"note":45,"dur":0.944,"vel":0.787,"inst":"bass_v0_blown_220","midi_source":""},{"t":167.589,"note":57,"dur":0.472,"vel":0.787,"inst":"bass_v0_blown_220","midi_source":""},{"t":168.061,"note":59,"dur":0.472,"vel":0.787,"inst":"bass_v0_blown_220","midi_source":""},{"t":168.533,"note":40,"dur":0.944,"vel":0.787,"inst":"synth_supersaw_v0_bowed_211","midi_source":""},{"t":168.533,"note":61,"dur":0.472,"vel":0.787,"inst":"bass_v0_blown_220","midi_source":""},{"t":169.005,"note":59,"dur":0.236,"vel":0.787,"inst":"bass_v0_blown_220","midi_source":""},{"t":169.241,"note":59,"dur":0.236,"vel":0.787,"inst":"bass_v0_blown_220","midi_source":""},{"t":169.477,"note":43,"dur":0.944,"vel":0.787,"inst":"bass_v0_blown_220","midi_source":""},{"t":169.477,"note":45,"dur":0.944,"vel":0.787,"inst":"bass_v0_blown_220","midi_source":""},{"t":169.477,"note":57,"dur":0.472,"vel":0.787,"inst":"bass_v0_blown_220","midi_source":""},{"t":169.949,"note":59,"dur":0.472,"vel":0.787,"inst":"bass_v0_blown_220","midi_source":""},{"t":170.421,"note":38,"dur":0.944,"vel":0.787,"inst":"synth_supersaw_v0_bowed_211","midi_source":""},{"t":170.421,"note":61,"dur":0.472,"vel":0.787,"inst":"bass_v0_blown_220","midi_source":""},{"t":170.893,"note":62,"dur":0.472,"vel":0.787,"inst":"synth_supersaw_v0_bowed_211","midi_source":""},{"t":171.365,"note":45,"dur":0.944,"vel":0.787,"inst":"bass_v0_blown_220","midi_source":""},{"t":171.365,"note":61,"dur":0.472,"vel":0.787,"inst":"bass_v0_blown_220","midi_source":""},{"t":171.837,"note":62,"dur":0.472,"vel":0.787,"inst":"synth_supersaw_v0_bowed_211","midi_source":""},{"t":172.309,"note":38,"dur":0.944,"vel":0.787,"inst":"synth_supersaw_v0_bowed_211","midi_source":""},{"t":172.309,"note":64,"dur":0.472,"vel":0.787,"inst":"synth_supersaw_v0_bowed_211","midi_source":""},{"t":172.78,"note":62,"dur":0.472,"vel":0.787,"inst":"synth_supersaw_v0_bowed_211","midi_source":""},{"t":173.252,"note":42,"dur":0.944,"vel":0.787,"inst":"synth_supersaw_v0_bowed_211","midi_source":""},{"t":173.252,"note":45,"dur":0.944,"vel":0.787,"inst":"bass_v0_blown_220","midi_source":""},{"t":173.252,"note":61,"dur":0.472,"vel":0.787,"inst":"bass_v0_blown_220","midi_source":""},{"t":173.724,"note":62,"dur":0.472,"vel":0.787,"inst":"synth_supersaw_v0_bowed_211","midi_source":""},{"t":174.196,"note":40,"dur":0.944,"vel":0.787,"inst":"synth_supersaw_v0_bowed_211","midi_source":""},{"t":174.196,"note":61,"dur":0.472,"vel":0.787,"inst":"bass_v0_blown_220","midi_source":""},{"t":174.668,"note":59,"dur":0.472,"vel":0.787,"inst":"bass_v0_blown_220","midi_source":""},{"t":175.14,"note":43,"dur":0.944,"vel":0.787,"inst":"bass_v0_blown_220","midi_source":""},{"t":175.14,"note":45,"dur":0.944,"vel":0.787,"inst":"bass_v0_blown_220","midi_source":""},{"t":175.14,"note":57,"dur":0.472,"vel":0.787,"inst":"bass_v0_blown_220","midi_source":""},{"t":175.612,"note":59,"dur":0.472,"vel":0.787,"inst":"bass_v0_blown_220","midi_source":""},{"t":176.084,"note":57,"dur":0.472,"vel":0.787,"inst":"bass_v0_blown_220","midi_source":""},{"t":176.556,"note":40,"dur":0.944,"vel":0.787,"inst":"synth_supersaw_v0_bowed_211","midi_source":""},{"t":176.556,"note":57,"dur":0.472,"vel":0.787,"inst":"bass_v0_blown_220","midi_source":""},{"t":177.028,"note":59,"dur":0.472,"vel":0.787,"inst":"bass_v0_blown_220","midi_source":""},{"t":177.5,"note":43,"dur":0.944,"vel":0.787,"inst":"bass_v0_blown_220","midi_source":""},{"t":177.5,"note":45,"dur":0.944,"vel":0.787,"inst":"bass_v0_blown_220","midi_source":""},{"t":177.5,"note":57,"dur":0.472,"vel":0.787,"inst":"bass_v0_blown_220","midi_source":""},{"t":177.972,"note":59,"dur":0.472,"vel":0.787,"inst":"bass_v0_blown_220","midi_source":""},{"t":178.444,"note":40,"dur":0.944,"vel":0.787,"inst":"synth_supersaw_v0_bowed_211","midi_source":""},{"t":178.444,"note":61,"dur":0.472,"vel":0.787,"inst":"bass_v0_blown_220","midi_source":""},{"t":178.916,"note":59,"dur":0.236,"vel":0.787,"inst":"bass_v0_blown_220","midi_source":""},{"t":179.152,"note":59,"dur":0.236,"vel":0.787,"inst":"bass_v0_blown_220","midi_source":""},{"t":179.388,"note":43,"dur":0.944,"vel":0.787,"inst":"bass_v0_blown_220","midi_source":""},{"t":179.388,"note":45,"dur":0.944,"vel":0.787,"inst":"bass_v0_blown_220","midi_source":""},{"t":179.388,"note":57,"dur":0.472,"vel":0.787,"inst":"bass_v0_blown_220","midi_source":""},{"t":179.86,"note":59,"dur":0.472,"vel":0.787,"inst":"bass_v0_blown_220","midi_source":""},{"t":180.332,"note":38,"dur":0.944,"vel":0.787,"inst":"synth_supersaw_v0_bowed_211","midi_source":""},{"t":180.332,"note":61,"dur":0.472,"vel":0.787,"inst":"bass_v0_blown_220","midi_source":""},{"t":180.803,"note":62,"dur":0.472,"vel":0.787,"inst":"synth_supersaw_v0_bowed_211","midi_source":""},{"t":181.275,"note":45,"dur":0.944,"vel":0.787,"inst":"bass_v0_blown_220","midi_source":""},{"t":181.275,"note":61,"dur":0.472,"vel":0.787,"inst":"bass_v0_blown_220","midi_source":""},{"t":181.747,"note":62,"dur":0.472,"vel":0.787,"inst":"synth_supersaw_v0_bowed_211","midi_source":""},{"t":182.219,"note":38,"dur":0.944,"vel":0.787,"inst":"synth_supersaw_v0_bowed_211","midi_source":""},{"t":182.219,"note":64,"dur":0.472,"vel":0.787,"inst":"synth_supersaw_v0_bowed_211","midi_source":""},{"t":182.691,"note":62,"dur":0.472,"vel":0.787,"inst":"synth_supersaw_v0_bowed_211","midi_source":""},{"t":183.163,"note":42,"dur":0.944,"vel":0.787,"inst":"synth_supersaw_v0_bowed_211","midi_source":""},{"t":183.163,"note":45,"dur":0.944,"vel":0.787,"inst":"bass_v0_blown_220","midi_source":""},{"t":183.163,"note":61,"dur":0.472,"vel":0.787,"inst":"bass_v0_blown_220","midi_source":""},{"t":183.635,"note":62,"dur":0.472,"vel":0.787,"inst":"synth_supersaw_v0_bowed_211","midi_source":""},{"t":184.107,"note":40,"dur":0.944,"vel":0.787,"inst":"synth_supersaw_v0_bowed_211","midi_source":""},{"t":184.107,"note":61,"dur":0.472,"vel":0.787,"inst":"bass_v0_blown_220","midi_source":""},{"t":184.579,"note":59,"dur":0.472,"vel":0.787,"inst":"bass_v0_blown_220","midi_source":""},{"t":185.051,"note":43,"dur":0.944,"vel":0.787,"inst":"bass_v0_blown_220","midi_source":""},{"t":185.051,"note":45,"dur":0.944,"vel":0.787,"inst":"bass_v0_blown_220","midi_source":""},{"t":185.051,"note":57,"dur":0.472,"vel":0.787,"inst":"bass_v0_blown_220","midi_source":""},{"t":185.523,"note":59,"dur":0.472,"vel":0.787,"inst":"bass_v0_blown_220","midi_source":""},{"t":185.995,"note":57,"dur":0.472,"vel":0.787,"inst":"bass_v0_blown_220","midi_source":""},{"t":186.467,"note":40,"dur":0.944,"vel":0.787,"inst":"synth_supersaw_v0_bowed_211","midi_source":""},{"t":186.467,"note":57,"dur":0.472,"vel":0.787,"inst":"bass_v0_blown_220","midi_source":""},{"t":186.939,"note":59,"dur":0.472,"vel":0.787,"inst":"bass_v0_blown_220","midi_source":""},{"t":187.411,"note":43,"dur":0.944,"vel":0.787,"inst":"bass_v0_blown_220","midi_source":""},{"t":187.411,"note":45,"dur":0.944,"vel":0.787,"inst":"bass_v0_blown_220","midi_source":""},{"t":187.411,"note":57,"dur":0.472,"vel":0.787,"inst":"bass_v0_blown_220","midi_source":""},{"t":187.883,"note":59,"dur":0.472,"vel":0.787,"inst":"bass_v0_blown_220","midi_source":""},{"t":188.355,"note":40,"dur":0.944,"vel":0.787,"inst":"synth_supersaw_v0_bowed_211","midi_source":""},{"t":188.355,"note":61,"dur":0.472,"vel":0.787,"inst":"bass_v0_blown_220","midi_source":""},{"t":188.826,"note":59,"dur":0.236,"vel":0.787,"inst":"bass_v0_blown_220","midi_source":""},{"t":189.062,"note":59,"dur":0.236,"vel":0.787,"inst":"bass_v0_blown_220","midi_source":""},{"t":189.298,"note":43,"dur":0.944,"vel":0.787,"inst":"bass_v0_blown_220","midi_source":""},{"t":189.298,"note":45,"dur":0.944,"vel":0.787,"inst":"bass_v0_blown_220","midi_source":""},{"t":189.298,"note":57,"dur":0.472,"vel":0.787,"inst":"bass_v0_blown_220","midi_source":""},{"t":189.77,"note":59,"dur":0.472,"vel":0.787,"inst":"bass_v0_blown_220","midi_source":""},{"t":190.242,"note":38,"dur":0.944,"vel":0.787,"inst":"synth_supersaw_v0_bowed_211","midi_source":""},{"t":190.242,"note":61,"dur":0.472,"vel":0.787,"inst":"bass_v0_blown_220","midi_source":""},{"t":190.714,"note":62,"dur":0.472,"vel":0.787,"inst":"synth_supersaw_v0_bowed_211","midi_source":""},{"t":191.186,"note":45,"dur":0.944,"vel":0.787,"inst":"bass_v0_blown_220","midi_source":""},{"t":191.186,"note":61,"dur":0.472,"vel":0.787,"inst":"bass_v0_blown_220","midi_source":""},{"t":191.658,"note":62,"dur":0.472,"vel":0.787,"inst":"synth_supersaw_v0_bowed_211","midi_source":""},{"t":192.13,"note":38,"dur":0.944,"vel":0.787,"inst":"synth_supersaw_v0_bowed_211","midi_source":""},{"t":192.13,"note":64,"dur":0.472,"vel":0.787,"inst":"synth_supersaw_v0_bowed_211","midi_source":""},{"t":192.602,"note":62,"dur":0.472,"vel":0.787,"inst":"synth_supersaw_v0_bowed_211","midi_source":""},{"t":193.074,"note":42,"dur":0.944,"vel":0.787,"inst":"synth_supersaw_v0_bowed_211","midi_source":""},{"t":193.074,"note":45,"dur":0.944,"vel":0.787,"inst":"bass_v0_blown_220","midi_source":""},{"t":193.074,"note":61,"dur":0.472,"vel":0.787,"inst":"bass_v0_blown_220","midi_source":""},{"t":193.546,"note":62,"dur":0.472,"vel":0.787,"inst":"synth_supersaw_v0_bowed_211","midi_source":""},{"t":194.018,"note":40,"dur":0.944,"vel":0.787,"inst":"synth_supersaw_v0_bowed_211","midi_source":""},{"t":194.018,"note":61,"dur":0.472,"vel":0.787,"inst":"bass_v0_blown_220","midi_source":""},{"t":194.49,"note":59,"dur":0.472,"vel":0.787,"inst":"bass_v0_blown_220","midi_source":""},{"t":194.962,"note":43,"dur":0.944,"vel":0.787,"inst":"bass_v0_blown_220","midi_source":""},{"t":194.962,"note":45,"dur":0.944,"vel":0.787,"inst":"bass_v0_blown_220","midi_source":""},{"t":194.962,"note":57,"dur":0.472,"vel":0.787,"inst":"bass_v0_blown_220","midi_source":""},{"t":195.434,"note":59,"dur":0.472,"vel":0.787,"inst":"bass_v0_blown_220","midi_source":""},{"t":195.906,"note":57,"dur":0.472,"vel":0.787,"inst":"bass_v0_blown_220","midi_source":""},{"t":196.378,"note":40,"dur":0.944,"vel":0.787,"inst":"synth_supersaw_v0_bowed_211","midi_source":""},{"t":196.378,"note":57,"dur":0.472,"vel":0.787,"inst":"bass_v0_blown_220","midi_source":""},{"t":196.849,"note":59,"dur":0.472,"vel":0.787,"inst":"bass_v0_blown_220","midi_source":""},{"t":197.321,"note":43,"dur":0.944,"vel":0.787,"inst":"bass_v0_blown_220","midi_source":""},{"t":197.321,"note":45,"dur":0.944,"vel":0.787,"inst":"bass_v0_blown_220","midi_source":""},{"t":197.321,"note":57,"dur":0.472,"vel":0.787,"inst":"bass_v0_blown_220","midi_source":""},{"t":197.793,"note":59,"dur":0.472,"vel":0.787,"inst":"bass_v0_blown_220","midi_source":""},{"t":198.265,"note":40,"dur":0.944,"vel":0.787,"inst":"synth_supersaw_v0_bowed_211","midi_source":""},{"t":198.265,"note":61,"dur":0.472,"vel":0.787,"inst":"bass_v0_blown_220","midi_source":""},{"t":198.737,"note":59,"dur":0.236,"vel":0.787,"inst":"bass_v0_blown_220","midi_source":""},{"t":198.973,"note":59,"dur":0.236,"vel":0.787,"inst":"bass_v0_blown_220","midi_source":""},{"t":199.209,"note":43,"dur":0.944,"vel":0.787,"inst":"bass_v0_blown_220","midi_source":""},{"t":199.209,"note":45,"dur":0.944,"vel":0.787,"inst":"bass_v0_blown_220","midi_source":""},{"t":199.209,"note":57,"dur":0.472,"vel":0.787,"inst":"bass_v0_blown_220","midi_source":""},{"t":199.681,"note":59,"dur":0.472,"vel":0.787,"inst":"bass_v0_blown_220","midi_source":""},{"t":200.153,"note":38,"dur":0.944,"vel":0.787,"inst":"synth_supersaw_v0_bowed_211","midi_source":""},{"t":200.153,"note":61,"dur":0.472,"vel":0.787,"inst":"bass_v0_blown_220","midi_source":""},{"t":200.625,"note":62,"dur":0.472,"vel":0.787,"inst":"synth_supersaw_v0_bowed_211","midi_source":""},{"t":201.097,"note":45,"dur":0.944,"vel":0.787,"inst":"bass_v0_blown_220","midi_source":""},{"t":201.097,"note":61,"dur":0.472,"vel":0.787,"inst":"bass_v0_blown_220","midi_source":""},{"t":201.569,"note":62,"dur":0.472,"vel":0.787,"inst":"synth_supersaw_v0_bowed_211","midi_source":""},{"t":202.041,"note":38,"dur":0.944,"vel":0.787,"inst":"synth_supersaw_v0_bowed_211","midi_source":""},{"t":202.041,"note":64,"dur":0.472,"vel":0.787,"inst":"synth_supersaw_v0_bowed_211","midi_source":""},{"t":202.513,"note":62,"dur":0.472,"vel":0.787,"inst":"synth_supersaw_v0_bowed_211","midi_source":""},{"t":202.985,"note":42,"dur":0.944,"vel":0.787,"inst":"synth_supersaw_v0_bowed_211","midi_source":""},{"t":202.985,"note":45,"dur":0.944,"vel":0.787,"inst":"bass_v0_blown_220","midi_source":""},{"t":202.985,"note":61,"dur":0.472,"vel":0.787,"inst":"bass_v0_blown_220","midi_source":""},{"t":203.457,"note":62,"dur":0.472,"vel":0.787,"inst":"synth_supersaw_v0_bowed_211","midi_source":""},{"t":203.929,"note":40,"dur":0.944,"vel":0.787,"inst":"synth_supersaw_v0_bowed_211","midi_source":""},{"t":203.929,"note":61,"dur":0.472,"vel":0.787,"inst":"bass_v0_blown_220","midi_source":""},{"t":204.401,"note":59,"dur":0.472,"vel":0.787,"inst":"bass_v0_blown_220","midi_source":""},{"t":204.872,"note":43,"dur":0.944,"vel":0.787,"inst":"bass_v0_blown_220","midi_source":""},{"t":204.872,"note":45,"dur":0.944,"vel":0.787,"inst":"bass_v0_blown_220","midi_source":""},{"t":204.872,"note":57,"dur":0.472,"vel":0.787,"inst":"bass_v0_blown_220","midi_source":""},{"t":205.344,"note":59,"dur":0.472,"vel":0.787,"inst":"bass_v0_blown_220","midi_source":""},{"t":205.816,"note":57,"dur":0.472,"vel":0.787,"inst":"bass_v0_blown_220","midi_source":""},{"t":206.288,"note":40,"dur":0.944,"vel":0.787,"inst":"synth_supersaw_v0_bowed_211","midi_source":""},{"t":206.288,"note":57,"dur":0.472,"vel":0.787,"inst":"bass_v0_blown_220","midi_source":""},{"t":206.76,"note":59,"dur":0.472,"vel":0.787,"inst":"bass_v0_blown_220","midi_source":""},{"t":207.232,"note":43,"dur":0.944,"vel":0.787,"inst":"bass_v0_blown_220","midi_source":""},{"t":207.232,"note":45,"dur":0.944,"vel":0.787,"inst":"bass_v0_blown_220","midi_source":""},{"t":207.232,"note":57,"dur":0.472,"vel":0.787,"inst":"bass_v0_blown_220","midi_source":""},{"t":207.704,"note":59,"dur":0.472,"vel":0.787,"inst":"bass_v0_blown_220","midi_source":""},{"t":208.176,"note":40,"dur":0.944,"vel":0.787,"inst":"synth_supersaw_v0_bowed_211","midi_source":""},{"t":208.176,"note":61,"dur":0.472,"vel":0.787,"inst":"bass_v0_blown_220","midi_source":""},{"t":208.648,"note":59,"dur":0.236,"vel":0.787,"inst":"bass_v0_blown_220","midi_source":""},{"t":208.884,"note":59,"dur":0.236,"vel":0.787,"inst":"bass_v0_blown_220","midi_source":""},{"t":209.12,"note":43,"dur":0.944,"vel":0.787,"inst":"bass_v0_blown_220","midi_source":""},{"t":209.12,"note":45,"dur":0.944,"vel":0.787,"inst":"bass_v0_blown_220","midi_source":""},{"t":209.12,"note":57,"dur":0.472,"vel":0.787,"inst":"bass_v0_blown_220","midi_source":""},{"t":209.592,"note":59,"dur":0.472,"vel":0.787,"inst":"bass_v0_blown_220","midi_source":""},{"t":210.064,"note":38,"dur":0.186,"vel":0.787,"inst":"synth_supersaw_v0_bowed_211","midi_source":""},{"t":210.064,"note":61,"dur":0.186,"vel":0.787,"inst":"bass_v0_blown_220","midi_source":""},{"t":210.673,"note":37,"dur":0.441,"vel":0.496,"inst":"bell_v0_plucked_126","midi_source":""},{"t":210.673,"note":46,"dur":0.881,"vel":0.496,"inst":"tuba_v0_blown_231","midi_source":""},{"t":210.673,"note":49,"dur":0.441,"vel":0.496,"inst":"bell_v0_plucked_126","midi_source":""},{"t":210.673,"note":55,"dur":0.441,"vel":0.496,"inst":"bell_v0_plucked_126","midi_source":""},{"t":211.113,"note":34,"dur":0.441,"vel":0.496,"inst":"tuba_v0_blown_231","midi_source":""},{"t":211.113,"note":49,"dur":0.441,"vel":0.496,"inst":"bell_v0_plucked_126","midi_source":""},{"t":211.113,"note":53,"dur":0.441,"vel":0.496,"inst":"bell_v0_plucked_126","midi_source":""},{"t":211.554,"note":34,"dur":0.441,"vel":0.496,"inst":"tuba_v0_blown_231","midi_source":""},{"t":211.554,"note":46,"dur":0.441,"vel":0.496,"inst":"tuba_v0_blown_231","midi_source":""},{"t":211.554,"note":49,"dur":0.441,"vel":0.496,"inst":"bell_v0_plucked_126","midi_source":""},{"t":211.554,"note":53,"dur":0.441,"vel":0.496,"inst":"bell_v0_plucked_126","midi_source":""},{"t":211.994,"note":36,"dur":0.441,"vel":0.496,"inst":"tuba_v0_blown_231","midi_source":""},{"t":211.994,"note":43,"dur":0.441,"vel":0.496,"inst":"bell_v0_plucked_126","midi_source":""},{"t":211.994,"note":48,"dur":0.441,"vel":0.496,"inst":"tuba_v0_blown_231","midi_source":""},{"t":211.994,"note":49,"dur":0.441,"vel":0.496,"inst":"bell_v0_plucked_126","midi_source":""},{"t":212.435,"note":36,"dur":0.881,"vel":0.496,"inst":"tuba_v0_blown_231","midi_source":""},{"t":212.435,"note":43,"dur":0.881,"vel":0.496,"inst":"bell_v0_plucked_126","midi_source":""},{"t":212.435,"note":48,"dur":0.881,"vel":0.496,"inst":"tuba_v0_blown_231","midi_source":""},{"t":212.435,"note":49,"dur":0.881,"vel":0.496,"inst":"bell_v0_plucked_126","midi_source":""},{"t":213.316,"note":36,"dur":0.441,"vel":0.496,"inst":"tuba_v0_blown_231","midi_source":""},{"t":213.316,"note":43,"dur":0.441,"vel":0.496,"inst":"bell_v0_plucked_126","midi_source":""},{"t":213.316,"note":48,"dur":0.441,"vel":0.496,"inst":"tuba_v0_blown_231","midi_source":""},{"t":213.316,"note":53,"dur":0.22,"vel":0.496,"inst":"bell_v0_plucked_126","midi_source":""},{"t":213.537,"note":49,"dur":0.22,"vel":0.496,"inst":"bell_v0_plucked_126","midi_source":""},{"t":213.757,"note":41,"dur":0.441,"vel":0.496,"inst":"bell_v0_plucked_126","midi_source":""},{"t":213.757,"note":43,"dur":0.441,"vel":0.496,"inst":"bell_v0_plucked_126","midi_source":""},{"t":213.757,"note":36,"dur":0.441,"vel":0.496,"inst":"tuba_v0_blown_231","midi_source":""},{"t":213.757,"note":49,"dur":0.441,"vel":0.496,"inst":"bell_v0_plucked_126","midi_source":""},{"t":214.198,"note":41,"dur":0.881,"vel":0.496,"inst":"bell_v0_plucked_126","midi_source":""},{"t":214.198,"note":43,"dur":0.881,"vel":0.496,"inst":"bell_v0_plucked_126","midi_source":""},{"t":214.198,"note":36,"dur":0.881,"vel":0.496,"inst":"tuba_v0_blown_231","midi_source":""},{"t":214.198,"note":55,"dur":0.661,"vel":0.496,"inst":"bell_v0_plucked_126","midi_source":""},{"t":214.859,"note":53,"dur":0.22,"vel":0.496,"inst":"bell_v0_plucked_126","midi_source":""},{"t":215.079,"note":41,"dur":0.441,"vel":0.496,"inst":"bell_v0_plucked_126","midi_source":""},{"t":215.079,"note":43,"dur":0.881,"vel":0.496,"inst":"bell_v0_plucked_126","midi_source":""},{"t":215.079,"note":36,"dur":0.441,"vel":0.496,"inst":"tuba_v0_blown_231","midi_source":""},{"t":215.079,"note":49,"dur":0.22,"vel":0.496,"inst":"bell_v0_plucked_126","midi_source":""},{"t":215.299,"note":49,"dur":0.22,"vel":0.496,"inst":"bell_v0_plucked_126","midi_source":""},{"t":215.52,"note":37,"dur":0.441,"vel":0.496,"inst":"bell_v0_plucked_126","midi_source":""},{"t":215.52,"note":48,"dur":0.441,"vel":0.496,"inst":"tuba_v0_blown_231","midi_source":""},{"t":215.52,"note":48,"dur":0.441,"vel":0.496,"inst":"tuba_v0_blown_231","midi_source":""},{"t":215.96,"note":37,"dur":0.441,"vel":0.496,"inst":"bell_v0_plucked_126","midi_source":""},{"t":215.96,"note":48,"dur":0.881,"vel":0.496,"inst":"tuba_v0_blown_231","midi_source":""},{"t":215.96,"note":55,"dur":0.441,"vel":0.496,"inst":"bell_v0_plucked_126","midi_source":""},{"t":215.96,"note":60,"dur":0.441,"vel":0.496,"inst":"tuba_v0_blown_231","midi_source":""},{"t":216.401,"note":43,"dur":0.441,"vel":0.496,"inst":"bell_v0_plucked_126","midi_source":""},{"t":216.401,"note":53,"dur":0.441,"vel":0.496,"inst":"bell_v0_plucked_126","midi_source":""},{"t":216.401,"note":61,"dur":0.441,"vel":0.496,"inst":"bell_v0_plucked_126","midi_source":""},{"t":216.841,"note":43,"dur":0.441,"vel":0.496,"inst":"bell_v0_plucked_126","midi_source":""},{"t":216.841,"note":48,"dur":0.881,"vel":0.496,"inst":"tuba_v0_blown_231","midi_source":""},{"t":216.841,"note":53,"dur":0.441,"vel":0.496,"inst":"bell_v0_plucked_126","midi_source":""},{"t":216.841,"note":61,"dur":0.441,"vel":0.496,"inst":"bell_v0_plucked_126","midi_source":""},{"t":217.282,"note":43,"dur":0.441,"vel":0.496,"inst":"bell_v0_plucked_126","midi_source":""},{"t":217.282,"note":55,"dur":0.441,"vel":0.496,"inst":"bell_v0_plucked_126","midi_source":""},{"t":217.282,"note":61,"dur":0.441,"vel":0.496,"inst":"bell_v0_plucked_126","midi_source":""},{"t":217.723,"note":48,"dur":0.441,"vel":0.496,"inst":"tuba_v0_blown_231","midi_source":""},{"t":217.723,"note":55,"dur":0.881,"vel":0.496,"inst":"bell_v0_plucked_126","midi_source":""},{"t":217.723,"note":61,"dur":0.441,"vel":0.496,"inst":"bell_v0_plucked_126","midi_source":""},{"t":218.163,"note":31,"dur":0.441,"vel":0.496,"inst":"bell_v0_plucked_126","midi_source":""},{"t":218.163,"note":36,"dur":0.441,"vel":0.496,"inst":"tuba_v0_blown_231","midi_source":""},{"t":218.163,"note":61,"dur":0.441,"vel":0.496,"inst":"bell_v0_plucked_126","midi_source":""},{"t":218.604,"note":37,"dur":0.441,"vel":0.496,"inst":"bell_v0_plucked_126","midi_source":""},{"t":218.604,"note":46,"dur":0.881,"vel":0.496,"inst":"tuba_v0_blown_231","midi_source":""},{"t":218.604,"note":49,"dur":0.441,"vel":0.496,"inst":"bell_v0_plucked_126","midi_source":""},{"t":218.604,"note":55,"dur":0.441,"vel":0.496,"inst":"bell_v0_plucked_126","midi_source":""},{"t":219.045,"note":34,"dur":0.441,"vel":0.496,"inst":"tuba_v0_blown_231","midi_source":""},{"t":219.045,"note":49,"dur":0.441,"vel":0.496,"inst":"bell_v0_plucked_126","midi_source":""},{"t":219.045,"note":53,"dur":0.441,"vel":0.496,"inst":"bell_v0_plucked_126","midi_source":""},{"t":219.485,"note":34,"dur":0.441,"vel":0.496,"inst":"tuba_v0_blown_231","midi_source":""},{"t":219.485,"note":46,"dur":0.441,"vel":0.496,"inst":"tuba_v0_blown_231","midi_source":""},{"t":219.485,"note":49,"dur":0.441,"vel":0.496,"inst":"bell_v0_plucked_126","midi_source":""},{"t":219.485,"note":53,"dur":0.441,"vel":0.496,"inst":"bell_v0_plucked_126","midi_source":""},{"t":219.926,"note":36,"dur":0.441,"vel":0.496,"inst":"tuba_v0_blown_231","midi_source":""},{"t":219.926,"note":43,"dur":0.441,"vel":0.496,"inst":"bell_v0_plucked_126","midi_source":""},{"t":219.926,"note":48,"dur":0.441,"vel":0.496,"inst":"tuba_v0_blown_231","midi_source":""},{"t":219.926,"note":49,"dur":0.441,"vel":0.496,"inst":"bell_v0_plucked_126","midi_source":""},{"t":220.366,"note":36,"dur":0.881,"vel":0.496,"inst":"tuba_v0_blown_231","midi_source":""},{"t":220.366,"note":43,"dur":0.881,"vel":0.496,"inst":"bell_v0_plucked_126","midi_source":""},{"t":220.366,"note":48,"dur":0.881,"vel":0.496,"inst":"tuba_v0_blown_231","midi_source":""},{"t":220.366,"note":49,"dur":0.881,"vel":0.496,"inst":"bell_v0_plucked_126","midi_source":""},{"t":221.248,"note":36,"dur":0.441,"vel":0.496,"inst":"tuba_v0_blown_231","midi_source":""},{"t":221.248,"note":43,"dur":0.441,"vel":0.496,"inst":"bell_v0_plucked_126","midi_source":""},{"t":221.248,"note":48,"dur":0.441,"vel":0.496,"inst":"tuba_v0_blown_231","midi_source":""},{"t":221.248,"note":53,"dur":0.22,"vel":0.496,"inst":"bell_v0_plucked_126","midi_source":""},{"t":221.468,"note":49,"dur":0.22,"vel":0.496,"inst":"bell_v0_plucked_126","midi_source":""},{"t":221.688,"note":41,"dur":0.441,"vel":0.496,"inst":"bell_v0_plucked_126","midi_source":""},{"t":221.688,"note":43,"dur":0.441,"vel":0.496,"inst":"bell_v0_plucked_126","midi_source":""},{"t":221.688,"note":36,"dur":0.441,"vel":0.496,"inst":"tuba_v0_blown_231","midi_source":""},{"t":221.688,"note":49,"dur":0.441,"vel":0.496,"inst":"bell_v0_plucked_126","midi_source":""},{"t":222.129,"note":41,"dur":0.881,"vel":0.496,"inst":"bell_v0_plucked_126","midi_source":""},{"t":222.129,"note":43,"dur":0.881,"vel":0.496,"inst":"bell_v0_plucked_126","midi_source":""},{"t":222.129,"note":36,"dur":0.881,"vel":0.496,"inst":"tuba_v0_blown_231","midi_source":""},{"t":222.129,"note":55,"dur":0.661,"vel":0.496,"inst":"bell_v0_plucked_126","midi_source":""},{"t":222.79,"note":53,"dur":0.22,"vel":0.496,"inst":"bell_v0_plucked_126","midi_source":""},{"t":223.01,"note":41,"dur":0.441,"vel":0.496,"inst":"bell_v0_plucked_126","midi_source":""},{"t":223.01,"note":43,"dur":0.881,"vel":0.496,"inst":"bell_v0_plucked_126","midi_source":""},{"t":223.01,"note":36,"dur":0.441,"vel":0.496,"inst":"tuba_v0_blown_231","midi_source":""},{"t":223.01,"note":49,"dur":0.22,"vel":0.496,"inst":"bell_v0_plucked_126","midi_source":""},{"t":223.231,"note":49,"dur":0.22,"vel":0.496,"inst":"bell_v0_plucked_126","midi_source":""},{"t":223.451,"note":37,"dur":0.441,"vel":0.496,"inst":"bell_v0_plucked_126","midi_source":""},{"t":223.451,"note":48,"dur":0.441,"vel":0.496,"inst":"tuba_v0_blown_231","midi_source":""},{"t":223.451,"note":48,"dur":0.441,"vel":0.496,"inst":"tuba_v0_blown_231","midi_source":""},{"t":223.892,"note":37,"dur":0.441,"vel":0.496,"inst":"bell_v0_plucked_126","midi_source":""},{"t":223.892,"note":48,"dur":0.881,"vel":0.496,"inst":"tuba_v0_blown_231","midi_source":""},{"t":223.892,"note":55,"dur":0.441,"vel":0.496,"inst":"bell_v0_plucked_126","midi_source":""},{"t":223.892,"note":60,"dur":0.441,"vel":0.496,"inst":"tuba_v0_blown_231","midi_source":""},{"t":224.332,"note":43,"dur":0.441,"vel":0.496,"inst":"bell_v0_plucked_126","midi_source":""},{"t":224.332,"note":53,"dur":0.441,"vel":0.496,"inst":"bell_v0_plucked_126","midi_source":""},{"t":224.332,"note":61,"dur":0.441,"vel":0.496,"inst":"bell_v0_plucked_126","midi_source":""},{"t":224.773,"note":43,"dur":0.441,"vel":0.496,"inst":"bell_v0_plucked_126","midi_source":""},{"t":224.773,"note":48,"dur":0.881,"vel":0.496,"inst":"tuba_v0_blown_231","midi_source":""},{"t":224.773,"note":53,"dur":0.441,"vel":0.496,"inst":"bell_v0_plucked_126","midi_source":""},{"t":224.773,"note":61,"dur":0.441,"vel":0.496,"inst":"bell_v0_plucked_126","midi_source":""},{"t":225.213,"note":43,"dur":0.441,"vel":0.496,"inst":"bell_v0_plucked_126","midi_source":""},{"t":225.213,"note":55,"dur":0.441,"vel":0.496,"inst":"bell_v0_plucked_126","midi_source":""},{"t":225.213,"note":61,"dur":0.441,"vel":0.496,"inst":"bell_v0_plucked_126","midi_source":""},{"t":225.654,"note":48,"dur":0.441,"vel":0.496,"inst":"tuba_v0_blown_231","midi_source":""},{"t":225.654,"note":55,"dur":0.881,"vel":0.496,"inst":"bell_v0_plucked_126","midi_source":""},{"t":225.654,"note":61,"dur":0.441,"vel":0.496,"inst":"bell_v0_plucked_126","midi_source":""},{"t":226.095,"note":31,"dur":0.441,"vel":0.496,"inst":"bell_v0_plucked_126","midi_source":""},{"t":226.095,"note":36,"dur":0.441,"vel":0.496,"inst":"tuba_v0_blown_231","midi_source":""},{"t":226.095,"note":61,"dur":0.441,"vel":0.496,"inst":"bell_v0_plucked_126","midi_source":""},{"t":226.535,"note":37,"dur":0.441,"vel":0.496,"inst":"bell_v0_plucked_126","midi_source":""},{"t":226.535,"note":46,"dur":0.881,"vel":0.496,"inst":"tuba_v0_blown_231","midi_source":""},{"t":226.535,"note":49,"dur":0.441,"vel":0.496,"inst":"bell_v0_plucked_126","midi_source":""},{"t":226.535,"note":55,"dur":0.441,"vel":0.496,"inst":"bell_v0_plucked_126","midi_source":""},{"t":226.976,"note":34,"dur":0.441,"vel":0.496,"inst":"tuba_v0_blown_231","midi_source":""},{"t":226.976,"note":49,"dur":0.441,"vel":0.496,"inst":"bell_v0_plucked_126","midi_source":""},{"t":226.976,"note":53,"dur":0.441,"vel":0.496,"inst":"bell_v0_plucked_126","midi_source":""},{"t":227.417,"note":34,"dur":0.441,"vel":0.496,"inst":"tuba_v0_blown_231","midi_source":""},{"t":227.417,"note":46,"dur":0.441,"vel":0.496,"inst":"tuba_v0_blown_231","midi_source":""},{"t":227.417,"note":49,"dur":0.441,"vel":0.496,"inst":"bell_v0_plucked_126","midi_source":""},{"t":227.417,"note":53,"dur":0.441,"vel":0.496,"inst":"bell_v0_plucked_126","midi_source":""},{"t":227.857,"note":36,"dur":0.441,"vel":0.496,"inst":"tuba_v0_blown_231","midi_source":""},{"t":227.857,"note":43,"dur":0.441,"vel":0.496,"inst":"bell_v0_plucked_126","midi_source":""},{"t":227.857,"note":48,"dur":0.441,"vel":0.496,"inst":"tuba_v0_blown_231","midi_source":""},{"t":227.857,"note":49,"dur":0.441,"vel":0.496,"inst":"bell_v0_plucked_126","midi_source":""},{"t":228.298,"note":36,"dur":0.881,"vel":0.496,"inst":"tuba_v0_blown_231","midi_source":""},{"t":228.298,"note":43,"dur":0.881,"vel":0.496,"inst":"bell_v0_plucked_126","midi_source":""},{"t":228.298,"note":48,"dur":0.881,"vel":0.496,"inst":"tuba_v0_blown_231","midi_source":""},{"t":228.298,"note":49,"dur":0.881,"vel":0.496,"inst":"bell_v0_plucked_126","midi_source":""},{"t":229.179,"note":36,"dur":0.441,"vel":0.496,"inst":"tuba_v0_blown_231","midi_source":""},{"t":229.179,"note":43,"dur":0.441,"vel":0.496,"inst":"bell_v0_plucked_126","midi_source":""},{"t":229.179,"note":48,"dur":0.441,"vel":0.496,"inst":"tuba_v0_blown_231","midi_source":""},{"t":229.179,"note":53,"dur":0.22,"vel":0.496,"inst":"bell_v0_plucked_126","midi_source":""},{"t":229.399,"note":49,"dur":0.22,"vel":0.496,"inst":"bell_v0_plucked_126","midi_source":""},{"t":229.62,"note":41,"dur":0.441,"vel":0.496,"inst":"bell_v0_plucked_126","midi_source":""},{"t":229.62,"note":43,"dur":0.441,"vel":0.496,"inst":"bell_v0_plucked_126","midi_source":""},{"t":229.62,"note":36,"dur":0.441,"vel":0.496,"inst":"tuba_v0_blown_231","midi_source":""},{"t":229.62,"note":49,"dur":0.441,"vel":0.496,"inst":"bell_v0_plucked_126","midi_source":""},{"t":230.06,"note":41,"dur":0.881,"vel":0.496,"inst":"bell_v0_plucked_126","midi_source":""},{"t":230.06,"note":43,"dur":0.881,"vel":0.496,"inst":"bell_v0_plucked_126","midi_source":""},{"t":230.06,"note":36,"dur":0.881,"vel":0.496,"inst":"tuba_v0_blown_231","midi_source":""},{"t":230.06,"note":55,"dur":0.661,"vel":0.496,"inst":"bell_v0_plucked_126","midi_source":""},{"t":230.721,"note":53,"dur":0.22,"vel":0.496,"inst":"bell_v0_plucked_126","midi_source":""},{"t":230.942,"note":41,"dur":0.441,"vel":0.496,"inst":"bell_v0_plucked_126","midi_source":""},{"t":230.942,"note":43,"dur":0.881,"vel":0.496,"inst":"bell_v0_plucked_126","midi_source":""},{"t":230.942,"note":36,"dur":0.441,"vel":0.496,"inst":"tuba_v0_blown_231","midi_source":""},{"t":230.942,"note":49,"dur":0.22,"vel":0.496,"inst":"bell_v0_plucked_126","midi_source":""},{"t":231.162,"note":49,"dur":0.22,"vel":0.496,"inst":"bell_v0_plucked_126","midi_source":""},{"t":231.382,"note":37,"dur":0.441,"vel":0.496,"inst":"bell_v0_plucked_126","midi_source":""},{"t":231.382,"note":48,"dur":0.441,"vel":0.496,"inst":"tuba_v0_blown_231","midi_source":""},{"t":231.382,"note":48,"dur":0.441,"vel":0.496,"inst":"tuba_v0_blown_231","midi_source":""},{"t":231.823,"note":37,"dur":0.441,"vel":0.496,"inst":"bell_v0_plucked_126","midi_source":""},{"t":231.823,"note":48,"dur":0.881,"vel":0.496,"inst":"tuba_v0_blown_231","midi_source":""},{"t":231.823,"note":55,"dur":0.441,"vel":0.496,"inst":"bell_v0_plucked_126","midi_source":""},{"t":231.823,"note":60,"dur":0.441,"vel":0.496,"inst":"tuba_v0_blown_231","midi_source":""},{"t":232.264,"note":43,"dur":0.441,"vel":0.496,"inst":"bell_v0_plucked_126","midi_source":""},{"t":232.264,"note":53,"dur":0.441,"vel":0.496,"inst":"bell_v0_plucked_126","midi_source":""},{"t":232.264,"note":61,"dur":0.441,"vel":0.496,"inst":"bell_v0_plucked_126","midi_source":""},{"t":232.704,"note":43,"dur":0.441,"vel":0.496,"inst":"bell_v0_plucked_126","midi_source":""},{"t":232.704,"note":48,"dur":0.881,"vel":0.496,"inst":"tuba_v0_blown_231","midi_source":""},{"t":232.704,"note":53,"dur":0.441,"vel":0.496,"inst":"bell_v0_plucked_126","midi_source":""},{"t":232.704,"note":61,"dur":0.441,"vel":0.496,"inst":"bell_v0_plucked_126","midi_source":""},{"t":233.145,"note":43,"dur":0.441,"vel":0.496,"inst":"bell_v0_plucked_126","midi_source":""},{"t":233.145,"note":55,"dur":0.441,"vel":0.496,"inst":"bell_v0_plucked_126","midi_source":""},{"t":233.145,"note":61,"dur":0.441,"vel":0.496,"inst":"bell_v0_plucked_126","midi_source":""},{"t":233.585,"note":48,"dur":0.441,"vel":0.496,"inst":"tuba_v0_blown_231","midi_source":""},{"t":233.585,"note":55,"dur":0.881,"vel":0.496,"inst":"bell_v0_plucked_126","midi_source":""},{"t":233.585,"note":61,"dur":0.441,"vel":0.496,"inst":"bell_v0_plucked_126","midi_source":""},{"t":234.026,"note":31,"dur":0.441,"vel":0.496,"inst":"bell_v0_plucked_126","midi_source":""},{"t":234.026,"note":36,"dur":0.441,"vel":0.496,"inst":"tuba_v0_blown_231","midi_source":""},{"t":234.026,"note":61,"dur":0.441,"vel":0.496,"inst":"bell_v0_plucked_126","midi_source":""},{"t":234.467,"note":37,"dur":0.441,"vel":0.496,"inst":"bell_v0_plucked_126","midi_source":""},{"t":234.467,"note":46,"dur":0.881,"vel":0.496,"inst":"tuba_v0_blown_231","midi_source":""},{"t":234.467,"note":49,"dur":0.441,"vel":0.496,"inst":"bell_v0_plucked_126","midi_source":""},{"t":234.467,"note":55,"dur":0.441,"vel":0.496,"inst":"bell_v0_plucked_126","midi_source":""},{"t":234.907,"note":34,"dur":0.441,"vel":0.496,"inst":"tuba_v0_blown_231","midi_source":""},{"t":234.907,"note":49,"dur":0.441,"vel":0.496,"inst":"bell_v0_plucked_126","midi_source":""},{"t":234.907,"note":53,"dur":0.441,"vel":0.496,"inst":"bell_v0_plucked_126","midi_source":""},{"t":235.348,"note":34,"dur":0.441,"vel":0.496,"inst":"tuba_v0_blown_231","midi_source":""},{"t":235.348,"note":46,"dur":0.441,"vel":0.496,"inst":"tuba_v0_blown_231","midi_source":""},{"t":235.348,"note":49,"dur":0.441,"vel":0.496,"inst":"bell_v0_plucked_126","midi_source":""},{"t":235.348,"note":53,"dur":0.441,"vel":0.496,"inst":"bell_v0_plucked_126","midi_source":""},{"t":235.789,"note":36,"dur":0.441,"vel":0.496,"inst":"tuba_v0_blown_231","midi_source":""},{"t":235.789,"note":43,"dur":0.441,"vel":0.496,"inst":"bell_v0_plucked_126","midi_source":""},{"t":235.789,"note":48,"dur":0.441,"vel":0.496,"inst":"tuba_v0_blown_231","midi_source":""},{"t":235.789,"note":49,"dur":0.441,"vel":0.496,"inst":"bell_v0_plucked_126","midi_source":""},{"t":236.229,"note":36,"dur":0.881,"vel":0.496,"inst":"tuba_v0_blown_231","midi_source":""},{"t":236.229,"note":43,"dur":0.881,"vel":0.496,"inst":"bell_v0_plucked_126","midi_source":""},{"t":236.229,"note":48,"dur":0.881,"vel":0.496,"inst":"tuba_v0_blown_231","midi_source":""},{"t":236.229,"note":49,"dur":0.881,"vel":0.496,"inst":"bell_v0_plucked_126","midi_source":""},{"t":237.111,"note":36,"dur":0.441,"vel":0.496,"inst":"tuba_v0_blown_231","midi_source":""},{"t":237.111,"note":43,"dur":0.441,"vel":0.496,"inst":"bell_v0_plucked_126","midi_source":""},{"t":237.111,"note":48,"dur":0.441,"vel":0.496,"inst":"tuba_v0_blown_231","midi_source":""},{"t":237.111,"note":53,"dur":0.22,"vel":0.496,"inst":"bell_v0_plucked_126","midi_source":""},{"t":237.331,"note":49,"dur":0.22,"vel":0.496,"inst":"bell_v0_plucked_126","midi_source":""},{"t":237.551,"note":41,"dur":0.441,"vel":0.496,"inst":"bell_v0_plucked_126","midi_source":""},{"t":237.551,"note":43,"dur":0.441,"vel":0.496,"inst":"bell_v0_plucked_126","midi_source":""},{"t":237.551,"note":36,"dur":0.441,"vel":0.496,"inst":"tuba_v0_blown_231","midi_source":""},{"t":237.551,"note":49,"dur":0.441,"vel":0.496,"inst":"bell_v0_plucked_126","midi_source":""},{"t":237.992,"note":41,"dur":0.881,"vel":0.496,"inst":"bell_v0_plucked_126","midi_source":""},{"t":237.992,"note":43,"dur":0.881,"vel":0.496,"inst":"bell_v0_plucked_126","midi_source":""},{"t":237.992,"note":36,"dur":0.881,"vel":0.496,"inst":"tuba_v0_blown_231","midi_source":""},{"t":237.992,"note":55,"dur":0.661,"vel":0.496,"inst":"bell_v0_plucked_126","midi_source":""},{"t":238.653,"note":53,"dur":0.22,"vel":0.496,"inst":"bell_v0_plucked_126","midi_source":""},{"t":238.873,"note":41,"dur":0.441,"vel":0.496,"inst":"bell_v0_plucked_126","midi_source":""},{"t":238.873,"note":43,"dur":0.881,"vel":0.496,"inst":"bell_v0_plucked_126","midi_source":""},{"t":238.873,"note":36,"dur":0.441,"vel":0.496,"inst":"tuba_v0_blown_231","midi_source":""},{"t":238.873,"note":49,"dur":0.22,"vel":0.496,"inst":"bell_v0_plucked_126","midi_source":""},{"t":239.093,"note":49,"dur":0.22,"vel":0.496,"inst":"bell_v0_plucked_126","midi_source":""},{"t":239.314,"note":37,"dur":0.441,"vel":0.496,"inst":"bell_v0_plucked_126","midi_source":""},{"t":239.314,"note":48,"dur":0.441,"vel":0.496,"inst":"tuba_v0_blown_231","midi_source":""},{"t":239.314,"note":48,"dur":0.441,"vel":0.496,"inst":"tuba_v0_blown_231","midi_source":""},{"t":239.754,"note":37,"dur":0.441,"vel":0.496,"inst":"bell_v0_plucked_126","midi_source":""},{"t":239.754,"note":48,"dur":0.881,"vel":0.496,"inst":"tuba_v0_blown_231","midi_source":""},{"t":239.754,"note":55,"dur":0.441,"vel":0.496,"inst":"bell_v0_plucked_126","midi_source":""},{"t":239.754,"note":60,"dur":0.441,"vel":0.496,"inst":"tuba_v0_blown_231","midi_source":""},{"t":240.195,"note":43,"dur":0.441,"vel":0.496,"inst":"bell_v0_plucked_126","midi_source":""},{"t":240.195,"note":53,"dur":0.441,"vel":0.496,"inst":"bell_v0_plucked_126","midi_source":""},{"t":240.195,"note":61,"dur":0.441,"vel":0.496,"inst":"bell_v0_plucked_126","midi_source":""},{"t":240.636,"note":43,"dur":0.441,"vel":0.496,"inst":"bell_v0_plucked_126","midi_source":""},{"t":240.636,"note":48,"dur":0.881,"vel":0.496,"inst":"tuba_v0_blown_231","midi_source":""},{"t":240.636,"note":53,"dur":0.441,"vel":0.496,"inst":"bell_v0_plucked_126","midi_source":""},{"t":240.636,"note":61,"dur":0.441,"vel":0.496,"inst":"bell_v0_plucked_126","midi_source":""},{"t":241.076,"note":43,"dur":0.441,"vel":0.496,"inst":"bell_v0_plucked_126","midi_source":""},{"t":241.076,"note":55,"dur":0.441,"vel":0.496,"inst":"bell_v0_plucked_126","midi_source":""},{"t":241.076,"note":61,"dur":0.441,"vel":0.496,"inst":"bell_v0_plucked_126","midi_source":""},{"t":241.517,"note":48,"dur":0.441,"vel":0.496,"inst":"tuba_v0_blown_231","midi_source":""},{"t":241.517,"note":55,"dur":0.881,"vel":0.496,"inst":"bell_v0_plucked_126","midi_source":""},{"t":241.517,"note":61,"dur":0.441,"vel":0.496,"inst":"bell_v0_plucked_126","midi_source":""},{"t":241.957,"note":31,"dur":0.441,"vel":0.496,"inst":"bell_v0_plucked_126","midi_source":""},{"t":241.957,"note":36,"dur":0.441,"vel":0.496,"inst":"tuba_v0_blown_231","midi_source":""},{"t":241.957,"note":61,"dur":0.441,"vel":0.496,"inst":"bell_v0_plucked_126","midi_source":""},{"t":242.398,"note":37,"dur":0.441,"vel":0.496,"inst":"bell_v0_plucked_126","midi_source":""},{"t":242.398,"note":46,"dur":0.881,"vel":0.496,"inst":"tuba_v0_blown_231","midi_source":""},{"t":242.398,"note":49,"dur":0.441,"vel":0.496,"inst":"bell_v0_plucked_126","midi_source":""},{"t":242.398,"note":55,"dur":0.441,"vel":0.496,"inst":"bell_v0_plucked_126","midi_source":""},{"t":242.839,"note":34,"dur":0.441,"vel":0.496,"inst":"tuba_v0_blown_231","midi_source":""},{"t":242.839,"note":49,"dur":0.441,"vel":0.496,"inst":"bell_v0_plucked_126","midi_source":""},{"t":242.839,"note":53,"dur":0.441,"vel":0.496,"inst":"bell_v0_plucked_126","midi_source":""},{"t":243.279,"note":34,"dur":0.441,"vel":0.496,"inst":"tuba_v0_blown_231","midi_source":""},{"t":243.279,"note":46,"dur":0.441,"vel":0.496,"inst":"tuba_v0_blown_231","midi_source":""},{"t":243.279,"note":49,"dur":0.441,"vel":0.496,"inst":"bell_v0_plucked_126","midi_source":""},{"t":243.279,"note":53,"dur":0.441,"vel":0.496,"inst":"bell_v0_plucked_126","midi_source":""},{"t":243.72,"note":36,"dur":0.441,"vel":0.496,"inst":"tuba_v0_blown_231","midi_source":""},{"t":243.72,"note":43,"dur":0.441,"vel":0.496,"inst":"bell_v0_plucked_126","midi_source":""},{"t":243.72,"note":48,"dur":0.441,"vel":0.496,"inst":"tuba_v0_blown_231","midi_source":""},{"t":243.72,"note":49,"dur":0.441,"vel":0.496,"inst":"bell_v0_plucked_126","midi_source":""},{"t":244.161,"note":36,"dur":0.881,"vel":0.496,"inst":"tuba_v0_blown_231","midi_source":""},{"t":244.161,"note":43,"dur":0.881,"vel":0.496,"inst":"bell_v0_plucked_126","midi_source":""},{"t":244.161,"note":48,"dur":0.881,"vel":0.496,"inst":"tuba_v0_blown_231","midi_source":""},{"t":244.161,"note":49,"dur":0.881,"vel":0.496,"inst":"bell_v0_plucked_126","midi_source":""},{"t":245.042,"note":36,"dur":0.441,"vel":0.496,"inst":"tuba_v0_blown_231","midi_source":""},{"t":245.042,"note":43,"dur":0.441,"vel":0.496,"inst":"bell_v0_plucked_126","midi_source":""},{"t":245.042,"note":48,"dur":0.441,"vel":0.496,"inst":"tuba_v0_blown_231","midi_source":""},{"t":245.042,"note":53,"dur":0.22,"vel":0.496,"inst":"bell_v0_plucked_126","midi_source":""},{"t":245.262,"note":49,"dur":0.22,"vel":0.496,"inst":"bell_v0_plucked_126","midi_source":""},{"t":245.483,"note":41,"dur":0.441,"vel":0.496,"inst":"bell_v0_plucked_126","midi_source":""},{"t":245.483,"note":43,"dur":0.441,"vel":0.496,"inst":"bell_v0_plucked_126","midi_source":""},{"t":245.483,"note":36,"dur":0.441,"vel":0.496,"inst":"tuba_v0_blown_231","midi_source":""},{"t":245.483,"note":49,"dur":0.441,"vel":0.496,"inst":"bell_v0_plucked_126","midi_source":""},{"t":245.923,"note":41,"dur":0.881,"vel":0.496,"inst":"bell_v0_plucked_126","midi_source":""},{"t":245.923,"note":43,"dur":0.881,"vel":0.496,"inst":"bell_v0_plucked_126","midi_source":""},{"t":245.923,"note":36,"dur":0.881,"vel":0.496,"inst":"tuba_v0_blown_231","midi_source":""},{"t":245.923,"note":55,"dur":0.661,"vel":0.496,"inst":"bell_v0_plucked_126","midi_source":""},{"t":246.584,"note":53,"dur":0.22,"vel":0.496,"inst":"bell_v0_plucked_126","midi_source":""},{"t":246.804,"note":41,"dur":0.441,"vel":0.496,"inst":"bell_v0_plucked_126","midi_source":""},{"t":246.804,"note":43,"dur":0.881,"vel":0.496,"inst":"bell_v0_plucked_126","midi_source":""},{"t":246.804,"note":36,"dur":0.441,"vel":0.496,"inst":"tuba_v0_blown_231","midi_source":""},{"t":246.804,"note":49,"dur":0.22,"vel":0.496,"inst":"bell_v0_plucked_126","midi_source":""},{"t":247.025,"note":49,"dur":0.22,"vel":0.496,"inst":"bell_v0_plucked_126","midi_source":""},{"t":247.245,"note":37,"dur":0.441,"vel":0.496,"inst":"bell_v0_plucked_126","midi_source":""},{"t":247.245,"note":48,"dur":0.441,"vel":0.496,"inst":"tuba_v0_blown_231","midi_source":""},{"t":247.245,"note":48,"dur":0.441,"vel":0.496,"inst":"tuba_v0_blown_231","midi_source":""},{"t":247.686,"note":37,"dur":0.441,"vel":0.496,"inst":"bell_v0_plucked_126","midi_source":""},{"t":247.686,"note":48,"dur":0.881,"vel":0.496,"inst":"tuba_v0_blown_231","midi_source":""},{"t":247.686,"note":55,"dur":0.441,"vel":0.496,"inst":"bell_v0_plucked_126","midi_source":""},{"t":247.686,"note":60,"dur":0.441,"vel":0.496,"inst":"tuba_v0_blown_231","midi_source":""},{"t":248.126,"note":43,"dur":0.441,"vel":0.496,"inst":"bell_v0_plucked_126","midi_source":""},{"t":248.126,"note":53,"dur":0.441,"vel":0.496,"inst":"bell_v0_plucked_126","midi_source":""},{"t":248.126,"note":61,"dur":0.441,"vel":0.496,"inst":"bell_v0_plucked_126","midi_source":""},{"t":248.567,"note":43,"dur":0.441,"vel":0.496,"inst":"bell_v0_plucked_126","midi_source":""},{"t":248.567,"note":48,"dur":0.881,"vel":0.496,"inst":"tuba_v0_blown_231","midi_source":""},{"t":248.567,"note":53,"dur":0.441,"vel":0.496,"inst":"bell_v0_plucked_126","midi_source":""},{"t":248.567,"note":61,"dur":0.441,"vel":0.496,"inst":"bell_v0_plucked_126","midi_source":""},{"t":249.008,"note":43,"dur":0.441,"vel":0.496,"inst":"bell_v0_plucked_126","midi_source":""},{"t":249.008,"note":55,"dur":0.441,"vel":0.496,"inst":"bell_v0_plucked_126","midi_source":""},{"t":249.008,"note":61,"dur":0.441,"vel":0.496,"inst":"bell_v0_plucked_126","midi_source":""},{"t":249.448,"note":48,"dur":0.441,"vel":0.496,"inst":"tuba_v0_blown_231","midi_source":""},{"t":249.448,"note":55,"dur":0.881,"vel":0.496,"inst":"bell_v0_plucked_126","midi_source":""},{"t":249.448,"note":61,"dur":0.441,"vel":0.496,"inst":"bell_v0_plucked_126","midi_source":""},{"t":249.889,"note":31,"dur":0.441,"vel":0.496,"inst":"bell_v0_plucked_126","midi_source":""},{"t":249.889,"note":36,"dur":0.441,"vel":0.496,"inst":"tuba_v0_blown_231","midi_source":""},{"t":249.889,"note":61,"dur":0.441,"vel":0.496,"inst":"bell_v0_plucked_126","midi_source":""},{"t":250.33,"note":37,"dur":0.441,"vel":0.496,"inst":"bell_v0_plucked_126","midi_source":""},{"t":250.33,"note":46,"dur":0.881,"vel":0.496,"inst":"tuba_v0_blown_231","midi_source":""},{"t":250.33,"note":49,"dur":0.441,"vel":0.496,"inst":"bell_v0_plucked_126","midi_source":""},{"t":250.33,"note":55,"dur":0.441,"vel":0.496,"inst":"bell_v0_plucked_126","midi_source":""},{"t":250.77,"note":34,"dur":0.441,"vel":0.496,"inst":"tuba_v0_blown_231","midi_source":""},{"t":250.77,"note":49,"dur":0.441,"vel":0.496,"inst":"bell_v0_plucked_126","midi_source":""},{"t":250.77,"note":53,"dur":0.441,"vel":0.496,"inst":"bell_v0_plucked_126","midi_source":""},{"t":251.211,"note":34,"dur":0.441,"vel":0.496,"inst":"tuba_v0_blown_231","midi_source":""},{"t":251.211,"note":46,"dur":0.441,"vel":0.496,"inst":"tuba_v0_blown_231","midi_source":""},{"t":251.211,"note":49,"dur":0.441,"vel":0.496,"inst":"bell_v0_plucked_126","midi_source":""},{"t":251.211,"note":53,"dur":0.441,"vel":0.496,"inst":"bell_v0_plucked_126","midi_source":""},{"t":251.651,"note":36,"dur":0.441,"vel":0.496,"inst":"tuba_v0_blown_231","midi_source":""},{"t":251.651,"note":43,"dur":0.441,"vel":0.496,"inst":"bell_v0_plucked_126","midi_source":""},{"t":251.651,"note":48,"dur":0.441,"vel":0.496,"inst":"tuba_v0_blown_231","midi_source":""},{"t":251.651,"note":49,"dur":0.441,"vel":0.496,"inst":"bell_v0_plucked_126","midi_source":""},{"t":252.092,"note":36,"dur":0.881,"vel":0.496,"inst":"tuba_v0_blown_231","midi_source":""},{"t":252.092,"note":43,"dur":0.881,"vel":0.496,"inst":"bell_v0_plucked_126","midi_source":""},{"t":252.092,"note":48,"dur":0.881,"vel":0.496,"inst":"tuba_v0_blown_231","midi_source":""},{"t":252.092,"note":49,"dur":0.881,"vel":0.496,"inst":"bell_v0_plucked_126","midi_source":""},{"t":252.973,"note":36,"dur":0.441,"vel":0.496,"inst":"tuba_v0_blown_231","midi_source":""},{"t":252.973,"note":43,"dur":0.441,"vel":0.496,"inst":"bell_v0_plucked_126","midi_source":""},{"t":252.973,"note":48,"dur":0.441,"vel":0.496,"inst":"tuba_v0_blown_231","midi_source":""},{"t":252.973,"note":53,"dur":0.22,"vel":0.496,"inst":"bell_v0_plucked_126","midi_source":""},{"t":253.194,"note":49,"dur":0.22,"vel":0.496,"inst":"bell_v0_plucked_126","midi_source":""},{"t":253.414,"note":41,"dur":0.441,"vel":0.496,"inst":"bell_v0_plucked_126","midi_source":""},{"t":253.414,"note":43,"dur":0.441,"vel":0.496,"inst":"bell_v0_plucked_126","midi_source":""},{"t":253.414,"note":36,"dur":0.441,"vel":0.496,"inst":"tuba_v0_blown_231","midi_source":""},{"t":253.414,"note":49,"dur":0.441,"vel":0.496,"inst":"bell_v0_plucked_126","midi_source":""},{"t":253.855,"note":41,"dur":0.881,"vel":0.496,"inst":"bell_v0_plucked_126","midi_source":""},{"t":253.855,"note":43,"dur":0.881,"vel":0.496,"inst":"bell_v0_plucked_126","midi_source":""},{"t":253.855,"note":36,"dur":0.881,"vel":0.496,"inst":"tuba_v0_blown_231","midi_source":""},{"t":253.855,"note":55,"dur":0.661,"vel":0.496,"inst":"bell_v0_plucked_126","midi_source":""},{"t":254.516,"note":53,"dur":0.22,"vel":0.496,"inst":"bell_v0_plucked_126","midi_source":""},{"t":254.736,"note":41,"dur":0.441,"vel":0.496,"inst":"bell_v0_plucked_126","midi_source":""},{"t":254.736,"note":43,"dur":0.881,"vel":0.496,"inst":"bell_v0_plucked_126","midi_source":""},{"t":254.736,"note":36,"dur":0.441,"vel":0.496,"inst":"tuba_v0_blown_231","midi_source":""},{"t":254.736,"note":49,"dur":0.22,"vel":0.496,"inst":"bell_v0_plucked_126","midi_source":""},{"t":254.956,"note":49,"dur":0.22,"vel":0.496,"inst":"bell_v0_plucked_126","midi_source":""},{"t":255.176,"note":37,"dur":0.441,"vel":0.496,"inst":"bell_v0_plucked_126","midi_source":""},{"t":255.176,"note":48,"dur":0.441,"vel":0.496,"inst":"tuba_v0_blown_231","midi_source":""},{"t":255.176,"note":48,"dur":0.441,"vel":0.496,"inst":"tuba_v0_blown_231","midi_source":""},{"t":255.617,"note":37,"dur":0.441,"vel":0.496,"inst":"bell_v0_plucked_126","midi_source":""},{"t":255.617,"note":48,"dur":0.881,"vel":0.496,"inst":"tuba_v0_blown_231","midi_source":""},{"t":255.617,"note":55,"dur":0.441,"vel":0.496,"inst":"bell_v0_plucked_126","midi_source":""},{"t":255.617,"note":60,"dur":0.441,"vel":0.496,"inst":"tuba_v0_blown_231","midi_source":""},{"t":256.058,"note":43,"dur":0.441,"vel":0.496,"inst":"bell_v0_plucked_126","midi_source":""},{"t":256.058,"note":53,"dur":0.441,"vel":0.496,"inst":"bell_v0_plucked_126","midi_source":""},{"t":256.058,"note":61,"dur":0.441,"vel":0.496,"inst":"bell_v0_plucked_126","midi_source":""},{"t":256.498,"note":43,"dur":0.441,"vel":0.496,"inst":"bell_v0_plucked_126","midi_source":""},{"t":256.498,"note":48,"dur":0.881,"vel":0.496,"inst":"tuba_v0_blown_231","midi_source":""},{"t":256.498,"note":53,"dur":0.441,"vel":0.496,"inst":"bell_v0_plucked_126","midi_source":""},{"t":256.498,"note":61,"dur":0.441,"vel":0.496,"inst":"bell_v0_plucked_126","midi_source":""},{"t":256.939,"note":43,"dur":0.441,"vel":0.496,"inst":"bell_v0_plucked_126","midi_source":""},{"t":256.939,"note":55,"dur":0.441,"vel":0.496,"inst":"bell_v0_plucked_126","midi_source":""},{"t":256.939,"note":61,"dur":0.441,"vel":0.496,"inst":"bell_v0_plucked_126","midi_source":""},{"t":257.38,"note":48,"dur":0.441,"vel":0.496,"inst":"tuba_v0_blown_231","midi_source":""},{"t":257.38,"note":55,"dur":0.881,"vel":0.496,"inst":"bell_v0_plucked_126","midi_source":""},{"t":257.38,"note":61,"dur":0.441,"vel":0.496,"inst":"bell_v0_plucked_126","midi_source":""},{"t":257.82,"note":31,"dur":0.441,"vel":0.496,"inst":"bell_v0_plucked_126","midi_source":""},{"t":257.82,"note":36,"dur":0.441,"vel":0.496,"inst":"tuba_v0_blown_231","midi_source":""},{"t":257.82,"note":61,"dur":0.441,"vel":0.496,"inst":"bell_v0_plucked_126","midi_source":""},{"t":258.261,"note":37,"dur":0.441,"vel":0.496,"inst":"bell_v0_plucked_126","midi_source":""},{"t":258.261,"note":46,"dur":0.881,"vel":0.496,"inst":"tuba_v0_blown_231","midi_source":""},{"t":258.261,"note":49,"dur":0.441,"vel":0.496,"inst":"bell_v0_plucked_126","midi_source":""},{"t":258.261,"note":55,"dur":0.441,"vel":0.496,"inst":"bell_v0_plucked_126","midi_source":""},{"t":258.702,"note":34,"dur":0.441,"vel":0.496,"inst":"tuba_v0_blown_231","midi_source":""},{"t":258.702,"note":49,"dur":0.441,"vel":0.496,"inst":"bell_v0_plucked_126","midi_source":""},{"t":258.702,"note":53,"dur":0.441,"vel":0.496,"inst":"bell_v0_plucked_126","midi_source":""},{"t":259.142,"note":34,"dur":0.441,"vel":0.496,"inst":"tuba_v0_blown_231","midi_source":""},{"t":259.142,"note":46,"dur":0.441,"vel":0.496,"inst":"tuba_v0_blown_231","midi_source":""},{"t":259.142,"note":49,"dur":0.441,"vel":0.496,"inst":"bell_v0_plucked_126","midi_source":""},{"t":259.142,"note":53,"dur":0.441,"vel":0.496,"inst":"bell_v0_plucked_126","midi_source":""},{"t":259.583,"note":36,"dur":0.441,"vel":0.496,"inst":"tuba_v0_blown_231","midi_source":""},{"t":259.583,"note":43,"dur":0.441,"vel":0.496,"inst":"bell_v0_plucked_126","midi_source":""},{"t":259.583,"note":48,"dur":0.441,"vel":0.496,"inst":"tuba_v0_blown_231","midi_source":""},{"t":259.583,"note":49,"dur":0.441,"vel":0.496,"inst":"bell_v0_plucked_126","midi_source":""},{"t":260.023,"note":36,"dur":0.881,"vel":0.496,"inst":"tuba_v0_blown_231","midi_source":""},{"t":260.023,"note":43,"dur":0.881,"vel":0.496,"inst":"bell_v0_plucked_126","midi_source":""},{"t":260.023,"note":48,"dur":0.881,"vel":0.496,"inst":"tuba_v0_blown_231","midi_source":""},{"t":260.023,"note":49,"dur":0.881,"vel":0.496,"inst":"bell_v0_plucked_126","midi_source":""},{"t":260.905,"note":36,"dur":0.441,"vel":0.496,"inst":"tuba_v0_blown_231","midi_source":""},{"t":260.905,"note":43,"dur":0.441,"vel":0.496,"inst":"bell_v0_plucked_126","midi_source":""},{"t":260.905,"note":48,"dur":0.441,"vel":0.496,"inst":"tuba_v0_blown_231","midi_source":""},{"t":260.905,"note":53,"dur":0.22,"vel":0.496,"inst":"bell_v0_plucked_126","midi_source":""},{"t":261.125,"note":49,"dur":0.22,"vel":0.496,"inst":"bell_v0_plucked_126","midi_source":""},{"t":261.345,"note":41,"dur":0.441,"vel":0.496,"inst":"bell_v0_plucked_126","midi_source":""},{"t":261.345,"note":43,"dur":0.441,"vel":0.496,"inst":"bell_v0_plucked_126","midi_source":""},{"t":261.345,"note":36,"dur":0.441,"vel":0.496,"inst":"tuba_v0_blown_231","midi_source":""},{"t":261.345,"note":49,"dur":0.441,"vel":0.496,"inst":"bell_v0_plucked_126","midi_source":""},{"t":261.786,"note":41,"dur":0.881,"vel":0.496,"inst":"bell_v0_plucked_126","midi_source":""},{"t":261.786,"note":43,"dur":0.881,"vel":0.496,"inst":"bell_v0_plucked_126","midi_source":""},{"t":261.786,"note":36,"dur":0.881,"vel":0.496,"inst":"tuba_v0_blown_231","midi_source":""},{"t":261.786,"note":55,"dur":0.661,"vel":0.496,"inst":"bell_v0_plucked_126","midi_source":""},{"t":262.447,"note":53,"dur":0.22,"vel":0.496,"inst":"bell_v0_plucked_126","midi_source":""},{"t":262.667,"note":41,"dur":0.441,"vel":0.496,"inst":"bell_v0_plucked_126","midi_source":""},{"t":262.667,"note":43,"dur":0.881,"vel":0.496,"inst":"bell_v0_plucked_126","midi_source":""},{"t":262.667,"note":36,"dur":0.441,"vel":0.496,"inst":"tuba_v0_blown_231","midi_source":""},{"t":262.667,"note":49,"dur":0.22,"vel":0.496,"inst":"bell_v0_plucked_126","midi_source":""},{"t":262.888,"note":49,"dur":0.22,"vel":0.496,"inst":"bell_v0_plucked_126","midi_source":""},{"t":263.108,"note":37,"dur":0.441,"vel":0.496,"inst":"bell_v0_plucked_126","midi_source":""},{"t":263.108,"note":48,"dur":0.441,"vel":0.496,"inst":"tuba_v0_blown_231","midi_source":""},{"t":263.108,"note":48,"dur":0.441,"vel":0.496,"inst":"tuba_v0_blown_231","midi_source":""},{"t":263.549,"note":37,"dur":0.441,"vel":0.496,"inst":"bell_v0_plucked_126","midi_source":""},{"t":263.549,"note":48,"dur":0.881,"vel":0.496,"inst":"tuba_v0_blown_231","midi_source":""},{"t":263.549,"note":55,"dur":0.441,"vel":0.496,"inst":"bell_v0_plucked_126","midi_source":""},{"t":263.549,"note":60,"dur":0.441,"vel":0.496,"inst":"tuba_v0_blown_231","midi_source":""},{"t":263.989,"note":43,"dur":0.441,"vel":0.496,"inst":"bell_v0_plucked_126","midi_source":""},{"t":263.989,"note":53,"dur":0.441,"vel":0.496,"inst":"bell_v0_plucked_126","midi_source":""},{"t":263.989,"note":61,"dur":0.441,"vel":0.496,"inst":"bell_v0_plucked_126","midi_source":""},{"t":264.43,"note":43,"dur":0.441,"vel":0.496,"inst":"bell_v0_plucked_126","midi_source":""},{"t":264.43,"note":48,"dur":0.881,"vel":0.496,"inst":"tuba_v0_blown_231","midi_source":""},{"t":264.43,"note":53,"dur":0.441,"vel":0.496,"inst":"bell_v0_plucked_126","midi_source":""},{"t":264.43,"note":61,"dur":0.441,"vel":0.496,"inst":"bell_v0_plucked_126","midi_source":""},{"t":264.87,"note":43,"dur":0.441,"vel":0.496,"inst":"bell_v0_plucked_126","midi_source":""},{"t":264.87,"note":55,"dur":0.441,"vel":0.496,"inst":"bell_v0_plucked_126","midi_source":""},{"t":264.87,"note":61,"dur":0.441,"vel":0.496,"inst":"bell_v0_plucked_126","midi_source":""},{"t":265.311,"note":48,"dur":0.441,"vel":0.496,"inst":"tuba_v0_blown_231","midi_source":""},{"t":265.311,"note":55,"dur":0.881,"vel":0.496,"inst":"bell_v0_plucked_126","midi_source":""},{"t":265.311,"note":61,"dur":0.441,"vel":0.496,"inst":"bell_v0_plucked_126","midi_source":""},{"t":265.752,"note":31,"dur":0.441,"vel":0.496,"inst":"bell_v0_plucked_126","midi_source":""},{"t":265.752,"note":36,"dur":0.441,"vel":0.496,"inst":"tuba_v0_blown_231","midi_source":""},{"t":265.752,"note":61,"dur":0.441,"vel":0.496,"inst":"bell_v0_plucked_126","midi_source":""},{"t":266.192,"note":37,"dur":0.441,"vel":0.496,"inst":"bell_v0_plucked_126","midi_source":""},{"t":266.192,"note":46,"dur":0.881,"vel":0.496,"inst":"tuba_v0_blown_231","midi_source":""},{"t":266.192,"note":49,"dur":0.441,"vel":0.496,"inst":"bell_v0_plucked_126","midi_source":""},{"t":266.192,"note":55,"dur":0.441,"vel":0.496,"inst":"bell_v0_plucked_126","midi_source":""},{"t":266.633,"note":34,"dur":0.441,"vel":0.496,"inst":"tuba_v0_blown_231","midi_source":""},{"t":266.633,"note":49,"dur":0.441,"vel":0.496,"inst":"bell_v0_plucked_126","midi_source":""},{"t":266.633,"note":53,"dur":0.441,"vel":0.496,"inst":"bell_v0_plucked_126","midi_source":""},{"t":267.074,"note":34,"dur":0.441,"vel":0.496,"inst":"tuba_v0_blown_231","midi_source":""},{"t":267.074,"note":46,"dur":0.441,"vel":0.496,"inst":"tuba_v0_blown_231","midi_source":""},{"t":267.074,"note":49,"dur":0.441,"vel":0.496,"inst":"bell_v0_plucked_126","midi_source":""},{"t":267.074,"note":53,"dur":0.441,"vel":0.496,"inst":"bell_v0_plucked_126","midi_source":""},{"t":267.514,"note":36,"dur":0.441,"vel":0.496,"inst":"tuba_v0_blown_231","midi_source":""},{"t":267.514,"note":43,"dur":0.441,"vel":0.496,"inst":"bell_v0_plucked_126","midi_source":""},{"t":267.514,"note":48,"dur":0.441,"vel":0.496,"inst":"tuba_v0_blown_231","midi_source":""},{"t":267.514,"note":49,"dur":0.441,"vel":0.496,"inst":"bell_v0_plucked_126","midi_source":""},{"t":267.955,"note":36,"dur":0.881,"vel":0.496,"inst":"tuba_v0_blown_231","midi_source":""},{"t":267.955,"note":43,"dur":0.881,"vel":0.496,"inst":"bell_v0_plucked_126","midi_source":""},{"t":267.955,"note":48,"dur":0.881,"vel":0.496,"inst":"tuba_v0_blown_231","midi_source":""},{"t":267.955,"note":49,"dur":0.881,"vel":0.496,"inst":"bell_v0_plucked_126","midi_source":""},{"t":268.836,"note":36,"dur":0.441,"vel":0.496,"inst":"tuba_v0_blown_231","midi_source":""},{"t":268.836,"note":43,"dur":0.441,"vel":0.496,"inst":"bell_v0_plucked_126","midi_source":""},{"t":268.836,"note":48,"dur":0.441,"vel":0.496,"inst":"tuba_v0_blown_231","midi_source":""},{"t":268.836,"note":53,"dur":0.22,"vel":0.496,"inst":"bell_v0_plucked_126","midi_source":""},{"t":269.056,"note":49,"dur":0.22,"vel":0.496,"inst":"bell_v0_plucked_126","midi_source":""},{"t":269.277,"note":41,"dur":0.441,"vel":0.496,"inst":"bell_v0_plucked_126","midi_source":""},{"t":269.277,"note":43,"dur":0.441,"vel":0.496,"inst":"bell_v0_plucked_126","midi_source":""},{"t":269.277,"note":36,"dur":0.441,"vel":0.496,"inst":"tuba_v0_blown_231","midi_source":""},{"t":269.277,"note":49,"dur":0.441,"vel":0.496,"inst":"bell_v0_plucked_126","midi_source":""},{"t":269.717,"note":41,"dur":0.881,"vel":0.496,"inst":"bell_v0_plucked_126","midi_source":""},{"t":269.717,"note":43,"dur":0.881,"vel":0.496,"inst":"bell_v0_plucked_126","midi_source":""},{"t":269.717,"note":36,"dur":0.881,"vel":0.496,"inst":"tuba_v0_blown_231","midi_source":""},{"t":269.717,"note":55,"dur":0.661,"vel":0.496,"inst":"bell_v0_plucked_126","midi_source":""},{"t":270.378,"note":53,"dur":0.22,"vel":0.496,"inst":"bell_v0_plucked_126","midi_source":""},{"t":270.599,"note":41,"dur":0.441,"vel":0.496,"inst":"bell_v0_plucked_126","midi_source":""},{"t":270.599,"note":43,"dur":0.881,"vel":0.496,"inst":"bell_v0_plucked_126","midi_source":""},{"t":270.599,"note":36,"dur":0.441,"vel":0.496,"inst":"tuba_v0_blown_231","midi_source":""},{"t":270.599,"note":49,"dur":0.22,"vel":0.496,"inst":"bell_v0_plucked_126","midi_source":""},{"t":270.819,"note":49,"dur":0.22,"vel":0.496,"inst":"bell_v0_plucked_126","midi_source":""},{"t":271.039,"note":37,"dur":0.441,"vel":0.496,"inst":"bell_v0_plucked_126","midi_source":""},{"t":271.039,"note":48,"dur":0.441,"vel":0.496,"inst":"tuba_v0_blown_231","midi_source":""},{"t":271.039,"note":48,"dur":0.441,"vel":0.496,"inst":"tuba_v0_blown_231","midi_source":""},{"t":271.48,"note":37,"dur":0.441,"vel":0.496,"inst":"bell_v0_plucked_126","midi_source":""},{"t":271.48,"note":48,"dur":0.881,"vel":0.496,"inst":"tuba_v0_blown_231","midi_source":""},{"t":271.48,"note":55,"dur":0.441,"vel":0.496,"inst":"bell_v0_plucked_126","midi_source":""},{"t":271.48,"note":60,"dur":0.441,"vel":0.496,"inst":"tuba_v0_blown_231","midi_source":""},{"t":271.921,"note":43,"dur":0.441,"vel":0.496,"inst":"bell_v0_plucked_126","midi_source":""},{"t":271.921,"note":53,"dur":0.441,"vel":0.496,"inst":"bell_v0_plucked_126","midi_source":""},{"t":271.921,"note":61,"dur":0.441,"vel":0.496,"inst":"bell_v0_plucked_126","midi_source":""},{"t":272.361,"note":43,"dur":0.441,"vel":0.496,"inst":"bell_v0_plucked_126","midi_source":""},{"t":272.361,"note":48,"dur":0.881,"vel":0.496,"inst":"tuba_v0_blown_231","midi_source":""},{"t":272.361,"note":53,"dur":0.441,"vel":0.496,"inst":"bell_v0_plucked_126","midi_source":""},{"t":272.361,"note":61,"dur":0.441,"vel":0.496,"inst":"bell_v0_plucked_126","midi_source":""},{"t":272.802,"note":43,"dur":0.441,"vel":0.496,"inst":"bell_v0_plucked_126","midi_source":""},{"t":272.802,"note":55,"dur":0.441,"vel":0.496,"inst":"bell_v0_plucked_126","midi_source":""},{"t":272.802,"note":61,"dur":0.441,"vel":0.496,"inst":"bell_v0_plucked_126","midi_source":""},{"t":273.242,"note":48,"dur":0.441,"vel":0.496,"inst":"tuba_v0_blown_231","midi_source":""},{"t":273.242,"note":55,"dur":0.881,"vel":0.496,"inst":"bell_v0_plucked_126","midi_source":""},{"t":273.242,"note":61,"dur":0.441,"vel":0.496,"inst":"bell_v0_plucked_126","midi_source":""},{"t":273.683,"note":31,"dur":0.441,"vel":0.496,"inst":"bell_v0_plucked_126","midi_source":""},{"t":273.683,"note":36,"dur":0.441,"vel":0.496,"inst":"tuba_v0_blown_231","midi_source":""},{"t":273.683,"note":61,"dur":0.441,"vel":0.496,"inst":"bell_v0_plucked_126","midi_source":""},{"t":274.124,"note":37,"dur":0.441,"vel":0.496,"inst":"bell_v0_plucked_126","midi_source":""},{"t":274.124,"note":46,"dur":0.881,"vel":0.496,"inst":"tuba_v0_blown_231","midi_source":""},{"t":274.124,"note":49,"dur":0.441,"vel":0.496,"inst":"bell_v0_plucked_126","midi_source":""},{"t":274.124,"note":55,"dur":0.441,"vel":0.496,"inst":"bell_v0_plucked_126","midi_source":""},{"t":274.564,"note":34,"dur":0.441,"vel":0.496,"inst":"tuba_v0_blown_231","midi_source":""},{"t":274.564,"note":49,"dur":0.441,"vel":0.496,"inst":"bell_v0_plucked_126","midi_source":""},{"t":274.564,"note":53,"dur":0.441,"vel":0.496,"inst":"bell_v0_plucked_126","midi_source":""},{"t":275.005,"note":34,"dur":0.441,"vel":0.496,"inst":"tuba_v0_blown_231","midi_source":""},{"t":275.005,"note":46,"dur":0.441,"vel":0.496,"inst":"tuba_v0_blown_231","midi_source":""},{"t":275.005,"note":49,"dur":0.441,"vel":0.496,"inst":"bell_v0_plucked_126","midi_source":""},{"t":275.005,"note":53,"dur":0.441,"vel":0.496,"inst":"bell_v0_plucked_126","midi_source":""},{"t":275.446,"note":36,"dur":0.441,"vel":0.496,"inst":"tuba_v0_blown_231","midi_source":""},{"t":275.446,"note":43,"dur":0.441,"vel":0.496,"inst":"bell_v0_plucked_126","midi_source":""},{"t":275.446,"note":48,"dur":0.441,"vel":0.496,"inst":"tuba_v0_blown_231","midi_source":""},{"t":275.446,"note":49,"dur":0.441,"vel":0.496,"inst":"bell_v0_plucked_126","midi_source":""},{"t":275.886,"note":36,"dur":0.881,"vel":0.496,"inst":"tuba_v0_blown_231","midi_source":""},{"t":275.886,"note":43,"dur":0.881,"vel":0.496,"inst":"bell_v0_plucked_126","midi_source":""},{"t":275.886,"note":48,"dur":0.881,"vel":0.496,"inst":"tuba_v0_blown_231","midi_source":""},{"t":275.886,"note":49,"dur":0.881,"vel":0.496,"inst":"bell_v0_plucked_126","midi_source":""},{"t":276.767,"note":36,"dur":0.441,"vel":0.496,"inst":"tuba_v0_blown_231","midi_source":""},{"t":276.767,"note":43,"dur":0.441,"vel":0.496,"inst":"bell_v0_plucked_126","midi_source":""},{"t":276.767,"note":48,"dur":0.441,"vel":0.496,"inst":"tuba_v0_blown_231","midi_source":""},{"t":276.767,"note":53,"dur":0.22,"vel":0.496,"inst":"bell_v0_plucked_126","midi_source":""},{"t":276.988,"note":49,"dur":0.22,"vel":0.496,"inst":"bell_v0_plucked_126","midi_source":""},{"t":277.208,"note":41,"dur":0.441,"vel":0.496,"inst":"bell_v0_plucked_126","midi_source":""},{"t":277.208,"note":43,"dur":0.441,"vel":0.496,"inst":"bell_v0_plucked_126","midi_source":""},{"t":277.208,"note":36,"dur":0.441,"vel":0.496,"inst":"tuba_v0_blown_231","midi_source":""},{"t":277.208,"note":49,"dur":0.441,"vel":0.496,"inst":"bell_v0_plucked_126","midi_source":""},{"t":277.649,"note":41,"dur":0.881,"vel":0.496,"inst":"bell_v0_plucked_126","midi_source":""},{"t":277.649,"note":43,"dur":0.881,"vel":0.496,"inst":"bell_v0_plucked_126","midi_source":""},{"t":277.649,"note":36,"dur":0.881,"vel":0.496,"inst":"tuba_v0_blown_231","midi_source":""},{"t":277.649,"note":55,"dur":0.661,"vel":0.496,"inst":"bell_v0_plucked_126","midi_source":""},{"t":278.31,"note":53,"dur":0.22,"vel":0.496,"inst":"bell_v0_plucked_126","midi_source":""},{"t":278.53,"note":41,"dur":0.441,"vel":0.496,"inst":"bell_v0_plucked_126","midi_source":""},{"t":278.53,"note":43,"dur":0.881,"vel":0.496,"inst":"bell_v0_plucked_126","midi_source":""},{"t":278.53,"note":36,"dur":0.441,"vel":0.496,"inst":"tuba_v0_blown_231","midi_source":""},{"t":278.53,"note":49,"dur":0.22,"vel":0.496,"inst":"bell_v0_plucked_126","midi_source":""},{"t":278.75,"note":49,"dur":0.22,"vel":0.496,"inst":"bell_v0_plucked_126","midi_source":""},{"t":278.971,"note":37,"dur":0.441,"vel":0.496,"inst":"bell_v0_plucked_126","midi_source":""},{"t":278.971,"note":48,"dur":0.441,"vel":0.496,"inst":"tuba_v0_blown_231","midi_source":""},{"t":278.971,"note":48,"dur":0.441,"vel":0.496,"inst":"tuba_v0_blown_231","midi_source":""},{"t":279.411,"note":37,"dur":0.441,"vel":0.496,"inst":"bell_v0_plucked_126","midi_source":""},{"t":279.411,"note":48,"dur":0.881,"vel":0.496,"inst":"tuba_v0_blown_231","midi_source":""},{"t":279.411,"note":55,"dur":0.441,"vel":0.496,"inst":"bell_v0_plucked_126","midi_source":""},{"t":279.411,"note":60,"dur":0.441,"vel":0.496,"inst":"tuba_v0_blown_231","midi_source":""},{"t":279.852,"note":43,"dur":0.441,"vel":0.496,"inst":"bell_v0_plucked_126","midi_source":""},{"t":279.852,"note":53,"dur":0.441,"vel":0.496,"inst":"bell_v0_plucked_126","midi_source":""},{"t":279.852,"note":61,"dur":0.441,"vel":0.496,"inst":"bell_v0_plucked_126","midi_source":""},{"t":280.293,"note":43,"dur":0.441,"vel":0.496,"inst":"bell_v0_plucked_126","midi_source":""},{"t":280.293,"note":48,"dur":0.881,"vel":0.496,"inst":"tuba_v0_blown_231","midi_source":""},{"t":280.293,"note":53,"dur":0.441,"vel":0.496,"inst":"bell_v0_plucked_126","midi_source":""},{"t":280.293,"note":61,"dur":0.441,"vel":0.496,"inst":"bell_v0_plucked_126","midi_source":""},{"t":280.733,"note":43,"dur":0.441,"vel":0.496,"inst":"bell_v0_plucked_126","midi_source":""},{"t":280.733,"note":55,"dur":0.441,"vel":0.496,"inst":"bell_v0_plucked_126","midi_source":""},{"t":280.733,"note":61,"dur":0.441,"vel":0.496,"inst":"bell_v0_plucked_126","midi_source":""},{"t":281.174,"note":48,"dur":0.441,"vel":0.496,"inst":"tuba_v0_blown_231","midi_source":""},{"t":281.174,"note":55,"dur":0.881,"vel":0.496,"inst":"bell_v0_plucked_126","midi_source":""},{"t":281.174,"note":61,"dur":0.441,"vel":0.496,"inst":"bell_v0_plucked_126","midi_source":""},{"t":281.614,"note":31,"dur":0.441,"vel":0.496,"inst":"bell_v0_plucked_126","midi_source":""},{"t":281.614,"note":36,"dur":0.441,"vel":0.496,"inst":"tuba_v0_blown_231","midi_source":""},{"t":281.614,"note":61,"dur":0.441,"vel":0.496,"inst":"bell_v0_plucked_126","midi_source":""},{"t":282.055,"note":37,"dur":0.441,"vel":0.496,"inst":"bell_v0_plucked_126","midi_source":""},{"t":282.055,"note":46,"dur":0.881,"vel":0.496,"inst":"tuba_v0_blown_231","midi_source":""},{"t":282.055,"note":49,"dur":0.441,"vel":0.496,"inst":"bell_v0_plucked_126","midi_source":""},{"t":282.055,"note":55,"dur":0.441,"vel":0.496,"inst":"bell_v0_plucked_126","midi_source":""},{"t":282.496,"note":34,"dur":0.441,"vel":0.496,"inst":"tuba_v0_blown_231","midi_source":""},{"t":282.496,"note":49,"dur":0.441,"vel":0.496,"inst":"bell_v0_plucked_126","midi_source":""},{"t":282.496,"note":53,"dur":0.441,"vel":0.496,"inst":"bell_v0_plucked_126","midi_source":""},{"t":282.936,"note":34,"dur":0.441,"vel":0.496,"inst":"tuba_v0_blown_231","midi_source":""},{"t":282.936,"note":46,"dur":0.441,"vel":0.496,"inst":"tuba_v0_blown_231","midi_source":""},{"t":282.936,"note":49,"dur":0.441,"vel":0.496,"inst":"bell_v0_plucked_126","midi_source":""},{"t":282.936,"note":53,"dur":0.441,"vel":0.496,"inst":"bell_v0_plucked_126","midi_source":""},{"t":283.377,"note":36,"dur":0.441,"vel":0.496,"inst":"tuba_v0_blown_231","midi_source":""},{"t":283.377,"note":43,"dur":0.441,"vel":0.496,"inst":"bell_v0_plucked_126","midi_source":""},{"t":283.377,"note":48,"dur":0.441,"vel":0.496,"inst":"tuba_v0_blown_231","midi_source":""},{"t":283.377,"note":49,"dur":0.441,"vel":0.496,"inst":"bell_v0_plucked_126","midi_source":""},{"t":283.818,"note":36,"dur":0.881,"vel":0.496,"inst":"tuba_v0_blown_231","midi_source":""},{"t":283.818,"note":43,"dur":0.881,"vel":0.496,"inst":"bell_v0_plucked_126","midi_source":""},{"t":283.818,"note":48,"dur":0.881,"vel":0.496,"inst":"tuba_v0_blown_231","midi_source":""},{"t":283.818,"note":49,"dur":0.881,"vel":0.496,"inst":"bell_v0_plucked_126","midi_source":""},{"t":284.699,"note":36,"dur":0.441,"vel":0.496,"inst":"tuba_v0_blown_231","midi_source":""},{"t":284.699,"note":43,"dur":0.441,"vel":0.496,"inst":"bell_v0_plucked_126","midi_source":""},{"t":284.699,"note":48,"dur":0.441,"vel":0.496,"inst":"tuba_v0_blown_231","midi_source":""},{"t":284.699,"note":53,"dur":0.22,"vel":0.496,"inst":"bell_v0_plucked_126","midi_source":""},{"t":284.919,"note":49,"dur":0.22,"vel":0.496,"inst":"bell_v0_plucked_126","midi_source":""},{"t":285.14,"note":41,"dur":0.441,"vel":0.496,"inst":"bell_v0_plucked_126","midi_source":""},{"t":285.14,"note":43,"dur":0.441,"vel":0.496,"inst":"bell_v0_plucked_126","midi_source":""},{"t":285.14,"note":36,"dur":0.441,"vel":0.496,"inst":"tuba_v0_blown_231","midi_source":""},{"t":285.14,"note":49,"dur":0.441,"vel":0.496,"inst":"bell_v0_plucked_126","midi_source":""},{"t":285.58,"note":41,"dur":0.881,"vel":0.496,"inst":"bell_v0_plucked_126","midi_source":""},{"t":285.58,"note":43,"dur":0.881,"vel":0.496,"inst":"bell_v0_plucked_126","midi_source":""},{"t":285.58,"note":36,"dur":0.881,"vel":0.496,"inst":"tuba_v0_blown_231","midi_source":""},{"t":285.58,"note":55,"dur":0.661,"vel":0.496,"inst":"bell_v0_plucked_126","midi_source":""},{"t":286.241,"note":53,"dur":0.22,"vel":0.496,"inst":"bell_v0_plucked_126","midi_source":""},{"t":286.461,"note":41,"dur":0.441,"vel":0.496,"inst":"bell_v0_plucked_126","midi_source":""},{"t":286.461,"note":43,"dur":0.881,"vel":0.496,"inst":"bell_v0_plucked_126","midi_source":""},{"t":286.461,"note":36,"dur":0.441,"vel":0.496,"inst":"tuba_v0_blown_231","midi_source":""},{"t":286.461,"note":49,"dur":0.22,"vel":0.496,"inst":"bell_v0_plucked_126","midi_source":""},{"t":286.682,"note":49,"dur":0.22,"vel":0.496,"inst":"bell_v0_plucked_126","midi_source":""},{"t":286.902,"note":37,"dur":0.441,"vel":0.496,"inst":"bell_v0_plucked_126","midi_source":""},{"t":286.902,"note":48,"dur":0.441,"vel":0.496,"inst":"tuba_v0_blown_231","midi_source":""},{"t":286.902,"note":48,"dur":0.441,"vel":0.496,"inst":"tuba_v0_blown_231","midi_source":""},{"t":287.343,"note":37,"dur":0.441,"vel":0.496,"inst":"bell_v0_plucked_126","midi_source":""},{"t":287.343,"note":48,"dur":0.881,"vel":0.496,"inst":"tuba_v0_blown_231","midi_source":""},{"t":287.343,"note":55,"dur":0.441,"vel":0.496,"inst":"bell_v0_plucked_126","midi_source":""},{"t":287.343,"note":60,"dur":0.441,"vel":0.496,"inst":"tuba_v0_blown_231","midi_source":""},{"t":287.783,"note":43,"dur":0.441,"vel":0.496,"inst":"bell_v0_plucked_126","midi_source":""},{"t":287.783,"note":53,"dur":0.441,"vel":0.496,"inst":"bell_v0_plucked_126","midi_source":""},{"t":287.783,"note":61,"dur":0.441,"vel":0.496,"inst":"bell_v0_plucked_126","midi_source":""},{"t":288.224,"note":43,"dur":0.441,"vel":0.496,"inst":"bell_v0_plucked_126","midi_source":""},{"t":288.224,"note":48,"dur":0.881,"vel":0.496,"inst":"tuba_v0_blown_231","midi_source":""},{"t":288.224,"note":53,"dur":0.441,"vel":0.496,"inst":"bell_v0_plucked_126","midi_source":""},{"t":288.224,"note":61,"dur":0.441,"vel":0.496,"inst":"bell_v0_plucked_126","midi_source":""},{"t":288.665,"note":43,"dur":0.441,"vel":0.496,"inst":"bell_v0_plucked_126","midi_source":""},{"t":288.665,"note":55,"dur":0.441,"vel":0.496,"inst":"bell_v0_plucked_126","midi_source":""},{"t":288.665,"note":61,"dur":0.441,"vel":0.496,"inst":"bell_v0_plucked_126","midi_source":""},{"t":289.105,"note":48,"dur":0.441,"vel":0.496,"inst":"tuba_v0_blown_231","midi_source":""},{"t":289.105,"note":55,"dur":0.881,"vel":0.496,"inst":"bell_v0_plucked_126","midi_source":""},{"t":289.105,"note":61,"dur":0.441,"vel":0.496,"inst":"bell_v0_plucked_126","midi_source":""},{"t":289.546,"note":31,"dur":0.441,"vel":0.496,"inst":"bell_v0_plucked_126","midi_source":""},{"t":289.546,"note":36,"dur":0.441,"vel":0.496,"inst":"tuba_v0_blown_231","midi_source":""},{"t":289.546,"note":61,"dur":0.441,"vel":0.496,"inst":"bell_v0_plucked_126","midi_source":""},{"t":289.986,"note":37,"dur":0.441,"vel":0.496,"inst":"bell_v0_plucked_126","midi_source":""},{"t":289.986,"note":46,"dur":0.881,"vel":0.496,"inst":"tuba_v0_blown_231","midi_source":""},{"t":289.986,"note":49,"dur":0.441,"vel":0.496,"inst":"bell_v0_plucked_126","midi_source":""},{"t":289.986,"note":55,"dur":0.441,"vel":0.496,"inst":"bell_v0_plucked_126","midi_source":""},{"t":290.427,"note":34,"dur":0.441,"vel":0.496,"inst":"tuba_v0_blown_231","midi_source":""},{"t":290.427,"note":49,"dur":0.441,"vel":0.496,"inst":"bell_v0_plucked_126","midi_source":""},{"t":290.427,"note":53,"dur":0.441,"vel":0.496,"inst":"bell_v0_plucked_126","midi_source":""},{"t":290.868,"note":34,"dur":0.441,"vel":0.496,"inst":"tuba_v0_blown_231","midi_source":""},{"t":290.868,"note":46,"dur":0.441,"vel":0.496,"inst":"tuba_v0_blown_231","midi_source":""},{"t":290.868,"note":49,"dur":0.441,"vel":0.496,"inst":"bell_v0_plucked_126","midi_source":""},{"t":290.868,"note":53,"dur":0.441,"vel":0.496,"inst":"bell_v0_plucked_126","midi_source":""},{"t":291.308,"note":36,"dur":0.441,"vel":0.496,"inst":"tuba_v0_blown_231","midi_source":""},{"t":291.308,"note":43,"dur":0.441,"vel":0.496,"inst":"bell_v0_plucked_126","midi_source":""},{"t":291.308,"note":48,"dur":0.441,"vel":0.496,"inst":"tuba_v0_blown_231","midi_source":""},{"t":291.308,"note":49,"dur":0.441,"vel":0.496,"inst":"bell_v0_plucked_126","midi_source":""},{"t":291.749,"note":36,"dur":0.881,"vel":0.496,"inst":"tuba_v0_blown_231","midi_source":""},{"t":291.749,"note":43,"dur":0.881,"vel":0.496,"inst":"bell_v0_plucked_126","midi_source":""},{"t":291.749,"note":48,"dur":0.881,"vel":0.496,"inst":"tuba_v0_blown_231","midi_source":""},{"t":291.749,"note":49,"dur":0.881,"vel":0.496,"inst":"bell_v0_plucked_126","midi_source":""},{"t":292.63,"note":36,"dur":0.441,"vel":0.496,"inst":"tuba_v0_blown_231","midi_source":""},{"t":292.63,"note":43,"dur":0.441,"vel":0.496,"inst":"bell_v0_plucked_126","midi_source":""},{"t":292.63,"note":48,"dur":0.441,"vel":0.496,"inst":"tuba_v0_blown_231","midi_source":""},{"t":292.63,"note":53,"dur":0.22,"vel":0.496,"inst":"bell_v0_plucked_126","midi_source":""},{"t":292.851,"note":49,"dur":0.22,"vel":0.496,"inst":"bell_v0_plucked_126","midi_source":""},{"t":293.071,"note":41,"dur":0.441,"vel":0.496,"inst":"bell_v0_plucked_126","midi_source":""},{"t":293.071,"note":43,"dur":0.441,"vel":0.496,"inst":"bell_v0_plucked_126","midi_source":""},{"t":293.071,"note":36,"dur":0.441,"vel":0.496,"inst":"tuba_v0_blown_231","midi_source":""},{"t":293.071,"note":49,"dur":0.441,"vel":0.496,"inst":"bell_v0_plucked_126","midi_source":""},{"t":293.512,"note":41,"dur":0.738,"vel":0.496,"inst":"bell_v0_plucked_126","midi_source":""},{"t":293.512,"note":43,"dur":0.738,"vel":0.496,"inst":"bell_v0_plucked_126","midi_source":""},{"t":293.512,"note":36,"dur":0.738,"vel":0.496,"inst":"tuba_v0_blown_231","midi_source":""},{"t":293.512,"note":55,"dur":0.661,"vel":0.496,"inst":"bell_v0_plucked_126","midi_source":""}]}